<?xml version="1.0" encoding="utf-8"?>
<!-- Generator: Adobe Illustrator 19.2.0, SVG Export Plug-In . SVG Version: 6.00 Build 0)  -->
<svg version="1.1" id="Layer_1" xmlns="http://www.w3.org/2000/svg" xmlns:xlink="http://www.w3.org/1999/xlink" x="0px" y="0px"
	 viewBox="0 0 384 224" enable-background="new 0 0 384 224" xml:space="preserve" width="384" height="224" preserveAspectRatio="none">
<g>
	<polygon fill="#519D44" points="0.9,2.2 15.2,149.4 8.4,221.8 260,213.3 381.7,221.8 369.8,86.8 383.1,2.2 154.9,14.1 	"/>
	<g>
		<polygon fill="#FFFFFF" points="258.5,206.8 19.5,212.2 23.5,148.8 13.5,11.5 155.5,19.5 370.2,12.8 361.5,86.5 370.5,212.5 		"/>
		<path fill="#A2CE5A" d="M371.8,213.8l-113.4-5.7l-240.3,5.4l4.1-64.6L12.2,10.2l143.4,8.1l216.1-6.7l-8.8,75L371.8,213.8z
			 M258.5,205.6L258.5,205.6l110.6,5.6l-8.9-124.7l0-0.1l8.5-72.2l-213.3,6.6l-0.1,0L14.9,12.8l9.9,136l-3.9,62.1L258.5,205.6z"/>
	</g>
</g>
</svg>
