<?xml version="1.0" encoding="utf-8"?>
<!-- Generator: Adobe Illustrator 22.0.1, SVG Export Plug-In . SVG Version: 6.00 Build 0)  -->
<svg version="1.1" xmlns="http://www.w3.org/2000/svg" xmlns:xlink="http://www.w3.org/1999/xlink" x="0px" y="0px"
	 viewBox="0 0 355 330" style="enable-background:new 0 0 355 330;" xml:space="preserve" width="355" height="330" preserveAspectRatio="none">
<style type="text/css">
	.st0{opacity:0.1;}
	.st1{fill:#384E7D;}
	.st2{fill:#D0C678;}
	.st3{fill:#969057;}
	.st4{fill:#AC60A6;}
	.st5{fill:#5B1B75;}
	.st6{fill:#00B9C3;}
	.st7{fill:#FFFFFF;}
	.st8{fill:#22004F;}
	.st9{fill:#9F914C;}
	.st10{fill:#70733F;}
	.st11{fill:#00B0D1;}
	.st12{fill:#00839B;}
	.st13{fill:#F2F2F2;}
	.st14{fill:#CE3433;}
	.st15{fill:#2C6CB0;}
	.st16{fill:#F1F2F2;}
	.st17{fill:#5B7C9F;}
	.st18{fill:#314E6B;}
	.st19{fill:#5B7C9F;stroke:#314E6B;stroke-width:0.7915;stroke-miterlimit:10;}
	.st20{fill:none;}
	.st21{fill:#CEC679;}
	.st22{fill:#AB61A6;}
	.st23{fill:#959058;}
	.st24{fill:#5B2974;}
	.st25{opacity:0.1;fill:#010101;enable-background:new    ;}
	.st26{fill:#02B7C1;}
	.st27{fill:#24144F;}
</style>
<g id="Grogg_Cast_Shadow">
</g>
<g id="Grogg_Right_Arm">
</g>
<g id="Grogg_Left_Arm">
</g>
<g id="Grogg_Left_Leg">
</g>
<g id="Grogg_Right_Leg">
</g>
<g id="Grogg_Hair_Back">
</g>
<g id="Grogg_Head">
</g>
<g id="Grogg_Overalls">
</g>
<g id="Grogg_5th_Pants">
</g>
<g id="Grogg_5th_Shirt">
</g>
<g id="Grogg_Mouth_and_Beard">
</g>
<g id="Grogg_Nose">
</g>
<g id="Grogg_Eyes">
</g>
<g id="Grogg_Hair">
</g>
<g id="Horns">
	<g>
		<g class="st0">
			<g>
				<path class="st1" d="M353.6,312.6c0,9-78.8,16.4-176.1,16.4c-97.2,0-176.1-7.3-176.1-16.4c0-9,78.8-16.4,176.1-16.4
					C274.7,296.3,353.6,303.6,353.6,312.6"/>
			</g>
		</g>
		<path class="st13" d="M180,213.2c-43,0.9-77.9-15.5-78.5-15.7c2.1,17.7,10.7,36.7,22,52.1c1.8,0.8,3.9,1.5,6.2,2.2
			c13,3.7,33,5.2,54.5,5.6c19.9,0.4,39.6-0.2,51.9-2.7c0.3-0.1,0.6-0.1,0.9-0.2l9.4-52C246.1,202.7,214.5,212.6,180,213.2z"/>
		<path class="st14" d="M156,256.4c0,0-10.1-27.4-11.2-41.7l-6.9-1.3c1.4,9.3,4.9,26,12.6,42.5L156,256.4z"/>
		<path class="st14" d="M121.6,210.3c0,0,5.8,30.4,17.4,44.5l4.2,0.4c-10.9-18-14.7-34.5-16-43.9L121.6,210.3z"/>
		<path class="st15" d="M137.9,213.4l-10.7-2c1.3,9.4,5.1,25.9,16,43.9l7.4,0.7C142.8,239.3,139.3,222.7,137.9,213.4z"/>
		<g>
			<path class="st2" d="M64.4,223.1c0,0-20.1-9-30.4,2.3c0,0-5.7,9.3,12.2,25.5C55.9,259.5,64.4,223.1,64.4,223.1"/>
			<path class="st2" d="M33.6,274.1c0,0-1.8,11.6-1.2,17.1c0.6,5.5,4.6,12.1,4.6,12.1s-6.4-10.9-14.4,0.8
				c-3.5,5.1,8.5,12.3,17.4,12.9c13.9,0.9,13.6-11.7,13.6-11.7s-6.2,15.4,9.8,16c14.3,0.5,13-12.8,13-12.8s-8.6,15.9,13.2,12.7
				c11.4-1.6,7.5-13.5,7.5-13.5s1,9.8,12.1,6.9c13.9-3.6,5.1-11.2-3.6-19c-7.7-6.9-13.9-22.6-13.9-22.6L33.6,274.1z"/>
			<path class="st3" d="M94.5,301.5c1.7,5.6,2.4,11,2.4,15.3c2.2-3.4,2.5-9.6,0.6-16.2c-1.9-6.6-5.6-11.7-9.3-13.3
				C90.6,290.9,92.8,295.8,94.5,301.5"/>
			<path class="st4" d="M114.2,194.8c4.8-7.6-48.2-7-72.4,30.8c-16.6,26-9.7,62.4-9.7,62.4s1.3,1.7,8.7,1.7
				c7.3,0,13.3-14.8,13.3-14.8s-1.1,16.1,6.2,16.1c7.3,0,8.9-15.1,8.9-15.1s7.5,11.8,12.9,11.2c5.4-0.6,0.9-12.7,0.9-12.7
				s0.4,1,4.7,3.3c4.3,2.2,7.3,1,7.3,1s-11.9-17.8-6.9-43.2C90.9,221,109.8,201.9,114.2,194.8z"/>
			<path class="st15" d="M57.6,208.4L88,235.7c0,0,0-0.1,0-0.1c0.6-2.8,1.7-5.8,3.3-8.9l-26.1-23.6
				C62.6,204.7,60.1,206.4,57.6,208.4z"/>
			<path class="st16" d="M65.2,203.1l26.1,23.6c6.4-12.7,19.4-26.2,22.9-31.9C117.8,189.2,89.8,188.1,65.2,203.1z"/>
		</g>
		<g>
			<path class="st2" d="M281.8,224.9c0,0,19.9-9.4,30.4,1.7c0,0,5.9,9.2-11.7,25.8C291,261.2,281.8,224.9,281.8,224.9"/>
			<path class="st2" d="M313.6,275.3c0,0,2,11.6,1.5,17.1c-0.5,5.5-4.4,12.2-4.4,12.2s6.1-11,14.4,0.6c3.6,5-8.2,12.5-17.2,13.3
				c-13.9,1.2-13.9-11.5-13.9-11.5s6.5,15.3-9.5,16.2c-14.3,0.8-13.2-12.5-13.2-12.5s8.9,15.7-13,13c-11.4-1.4-7.8-13.4-7.8-13.4
				s-0.8,9.8-12,7.2c-14-3.3-5.3-11.1,3.2-19.1c7.6-7.1,13.5-22.9,13.5-22.9L313.6,275.3z"/>
			<path class="st3" d="M253.2,303.8c-1.5,5.7-2.2,11-2.1,15.4c-2.2-3.3-2.7-9.6-0.9-16.2c1.8-6.6,5.4-11.8,9-13.5
				C256.9,293.2,254.7,298.2,253.2,303.8"/>
			<path class="st4" d="M231.4,197.6c-5-7.5,48.1-7.9,72.9,29.5c17.1,25.6,10.9,62.2,10.9,62.2s-1.3,1.7-8.6,1.9
				c-7.3,0.1-13.5-14.5-13.5-14.5s1.4,16.1-5.9,16.2c-7.3,0.1-9.1-14.9-9.1-14.9s-7.3,11.9-12.7,11.4c-5.4-0.5-1.1-12.6-1.1-12.6
				s-0.4,1-4.6,3.3c-4.2,2.3-7.3,1.1-7.3,1.1s11.5-18,6.1-43.3C255.3,223.3,235.9,204.6,231.4,197.6z"/>
			<path class="st15" d="M288.3,210.1L258.4,238c0,0,0-0.1,0-0.1c-0.6-2.8-1.8-5.8-3.4-8.8l25.6-24.1
				C283.2,206.5,285.8,208.2,288.3,210.1z"/>
			<path class="st16" d="M280.6,204.9L254.9,229c-6.6-12.5-19.9-25.8-23.5-31.4C227.7,192,255.7,190.4,280.6,204.9z"/>
		</g>
		<path class="st5" d="M83.9,73.7c0,0-64.9-0.6-69.5,32.7c-3.7,26.6,40.4,42.3,6.4,57.7c0,0,19.5,26.2,52.6,16.2
			c34.6-10.4,48.5-48.6,48.5-48.6l-2-26L83.9,73.7z"/>
		<path class="st5" d="M65.2,83.4C22.6,68.1,88-65.1,264.5,42.9c24.8,15.2,50.9,29.5,71.4,16c0,0,5.4,29.4-15.8,37.9
			c0,0,32.6,9.1,7.8,52.3l-7.3-21.6c0,0-8.1,34-55,46.2c-33.8,8.8-143.3-39.3-146-41.3S65.2,83.4,65.2,83.4z"/>
		<path class="st4" d="M184.2,257.4c-21.5-0.4-41.5-1.9-54.5-5.6c7.2,8,15.6,15.5,25.2,22.1c0,0,37.3,7.5,77.9,0l3.3-19.2
			C223.8,257.3,204.1,257.8,184.2,257.4z"/>
		<path class="st4" d="M178.4,225.1c48.7-1.3,70.4-17.3,86.6-23.8L288.1,84c0,0-93.4-52.8-169.4,7.1c-41.7,32.8-51.5,69.8-41,105.9
			C93.8,208.9,119.7,226.7,178.4,225.1z"/>
		<g>
			<path class="st2" d="M203.7,301.6c-3.9,3.1-9.4,3-9.4,3s-8.1-7.6-13.2-5.6c-14.2,5.6,0.6,9.3,0.6,9.3s-12.5,6.9-7.1,12.5
				c5.5,5.5,10.9-3.7,10.9-3.7s0,7.2,5.8,7.3c5.8,0,4.6-6.9,4.6-6.9s7.5-1.1,17.9-3c21.6-2.7,17.8-8.8,17.8-8.8l-9.6-11.3
				C222.2,294.5,207.7,298.5,203.7,301.6"/>
			<path class="st4" d="M209.2,262.5c0,0-6.7,4.7-8.9,14c-2.2,9.4-2.4,27.7-2.4,27.7l10-2.5c0,0,1.2,7.2,5.5,7
				c4.3-0.2,3.7-7.1,3.7-7.1s2.4,8.3,6.5,8.1c4.1-0.2,2.3-7.4,2.3-7.4s0,0.9,2.4,2.5c2.4,1.6,3.5,1,3.5,1s-10.4-11.7-11.1-28.2
				c-0.4-7.8,3.3-16.1,3.3-16.1L209.2,262.5z"/>
			<path class="st5" d="M216.3,285.5c0,0-0.1,0.1-0.3,0.3c-0.2,0.2-0.6,0.5-1.1,0.8c-1,0.6-2.5,1.3-4.4,1.6c-1,0.1-2,0.2-3.1,0.1
				c-1.1-0.1-2.3-0.4-3.4-1c-0.6-0.3-1.1-0.7-1.6-1.3c-0.4-0.6-0.8-1.4-0.6-2.3c0.5-3.7,6-4.3,8.7-3.2c0.9,0.4,1.9,1.1,1.9,2.2
				c0.2,2.5-3.2,3.1-4.9,2.7c-0.8-0.2-1.8-0.6-1.9-1.6c-0.1-1,0.8-1.5,1.7-1.7c0.6-0.1,1,0,1.3,0c0.3,0.1,0.4,0.1,0.4,0.1
				s-0.2-0.1-0.5-0.1c-0.8-0.1-1.7,0.1-2.3,0.6c-0.6,0.5-0.6,1.3,0.1,1.7c0.3,0.2,0.8,0.4,1.2,0.5c0.9,0.2,2,0.1,2.9-0.3
				c0.9-0.4,1.9-1.5,1.1-2.5c-0.3-0.4-0.8-0.8-1.4-1c-0.6-0.2-1.2-0.3-1.8-0.4c-1.2-0.1-2.6-0.1-3.7,0.4c-2.2,0.8-3.3,3.3-1.1,5
				c3.1,2.4,8.1,2,11.3,0.3c0.5-0.3,0.9-0.5,1.1-0.7C216.1,285.6,216.3,285.5,216.3,285.5"/>
		</g>
		<g>
			<path class="st2" d="M148.9,301.7c-4.2,2.7-9.7,2.1-9.7,2.1s-8.2-7.7-13.6-6.1c-14.6,4.3,0.7,8.7,0.7,8.7s-13.2,5.7-8.3,11.7
				c4.9,6,11.3-2.6,11.3-2.6s-0.6,7.2,5.1,7.8c5.8,0.6,5.2-6.4,5.2-6.4s7.6-0.4,18.1-1.4c21.8-0.7,18.5-7,18.5-7l-8.5-12.2
				C167.9,296.3,153.1,299,148.9,301.7"/>
			<path class="st4" d="M158,263.2c0,0-7.2,4-10.2,13.1c-3,9.1-4.2,27.4-4.2,27.4l9.4-1.6c0,0,0.5,7.3,4.9,7.5
				c4.3,0.2,4.4-6.8,4.4-6.8s1.6,8.5,5.7,8.7c4.1,0.2,2.9-7.1,2.9-7.1s0,0.9,2.2,2.7c2.2,1.8,3.4,1.3,3.4,1.3s-9.3-12.6-8.5-29.1
				c0.4-7.8,4.8-15.7,4.8-15.7L158,263.2z"/>
			<path class="st5" d="M162.9,286.8c0,0-0.1,0.1-0.4,0.3c-0.2,0.2-0.6,0.5-1.1,0.7c-1,0.5-2.6,1.1-4.6,1.1
				c-1.7,0.1-3.5-0.2-5.2-0.8c-1.7-0.7-3.7-2.4-3.2-4.4c0.6-2.8,4.2-3.4,6.6-3.1c0.2,0,0.3,0,0.5,0.1c0.6,0.1,1.3,0.3,1.9,0.6
				c1.3,0.6,2.4,2.1,1.5,3.5c-1.1,1.7-3.9,1.7-5.6,0.8c-0.6-0.3-1.2-1-1-1.8c0.4-1.2,2-1.3,3.1-1c0.3,0.1,0.4,0.2,0.4,0.2
				s-0.2-0.1-0.4-0.1c-0.9-0.2-2.5,0-2.8,1c-0.1,0.4,0.1,0.8,0.4,1c0.3,0.3,0.7,0.4,1.2,0.6c1.2,0.3,2.7,0.2,3.7-0.5
				c0.3-0.2,0.6-0.6,0.7-1c0.3-1-0.6-1.7-1.4-2.1c-0.5-0.3-1.1-0.4-1.7-0.5c-1.2-0.2-2.5-0.2-3.6,0.2c-1.1,0.3-2.3,1.1-2.6,2.3
				c-0.4,1.7,1.4,3,2.7,3.6c1.5,0.7,3.3,1,5,1c1.9,0,4.1-0.3,5.7-1.5C162.7,286.9,162.9,286.8,162.9,286.8"/>
		</g>
		<path class="st17" d="M143.8,300.8l28.3-0.3c0,0-2.9-17.1-0.5-24.5l-24.4-3.4C143.8,282.9,143.8,300.8,143.8,300.8z"/>
		<path class="st17" d="M230.2,274.4c0.9-0.2,1.8-0.3,2.7-0.5l4.7-22.4c-6,1.9-21.2,5.1-56.2,4.3c-34.7-0.7-51.1-4.2-57.8-6.3
			c11.2,23.5,30.1,24.5,32.5,24.9c-0.1,0.2,21,2.5,21.1,2.3c3.7,0.3,7.6,0.5,11.8,0.7C203.8,277.9,227.9,274.8,230.2,274.4z"/>
		<path class="st17" d="M198.4,274.9c-0.9,8.8-0.5,25.4-0.5,25.4l29.6-0.7c0,0-6.9-16.7-5.9-26.4L198.4,274.9z"/>
		<g>
			<path class="st18" d="M173.5,264.5c0,2.4-0.1,4.8-0.2,7.2l-0.2-0.3l5.2,0.4l5.2,0.4l-0.3,0.3c-0.3-1.2-0.6-2.5-0.9-3.7
				c-0.3-1.2-0.5-2.5-0.8-3.8c0.4,1.2,0.8,2.4,1.1,3.7c0.3,1.2,0.7,2.5,1,3.7l0.1,0.3l-0.4,0l-5.2-0.4L173,272l-0.3,0l0-0.2
				C173,269.3,173.2,266.9,173.5,264.5z"/>
		</g>
		<g>
			<path class="st18" d="M214.4,265.3c0.4,1.2,0.9,2.3,1.6,3.2c0.7,1,1.6,1.8,2.6,2.4c0.2,0.2,0.5,0.3,0.8,0.4
				c0.3,0.1,0.5,0.2,0.8,0.3c0.3,0.1,0.6,0.2,0.8,0.3l0.9,0.2c0.6,0.1,1.2,0.1,1.8,0.2c0.6,0,1.2,0,1.8,0.1
				c-0.6,0.1-1.2,0.2-1.8,0.3c-0.6,0-1.3,0.1-1.9,0c-1.3-0.1-2.5-0.5-3.6-1.2C215.9,270.3,214.5,267.8,214.4,265.3z"/>
		</g>
		<g>
			<path class="st18" d="M150.1,263.3c-0.3,1.8-1.3,3.4-2.6,4.7c-0.7,0.6-1.5,1.1-2.3,1.4c-0.9,0.4-1.8,0.4-2.7,0.4
				c0.9-0.3,1.7-0.5,2.4-0.9c0.7-0.4,1.4-0.9,2.1-1.5c0.6-0.6,1.2-1.2,1.7-1.9C149.2,264.8,149.7,264.1,150.1,263.3z"/>
		</g>
		<path class="st7" d="M256.7,168.6c0,0-16.8-8-20.2-6.2c-3.4,1.8-4.2,19.9-4.2,19.9L256.7,168.6z"/>
		<path class="st5" d="M267.2,160.5c0,1.5-1.2,2.7-2.7,2.7c-1.5,0-2.7-1.2-2.7-2.7c0-1.5,1.2-2.7,2.7-2.7
			C266,157.9,267.2,159.1,267.2,160.5"/>
		<path class="st5" d="M94,181.8c-2.1-5.1-4.2-10.2-6.2-15.3l-0.9-2.4l2.2,1.4c3.2,2.1,6.7,4,10.1,5.8c3.5,1.8,7,3.4,10.6,4.9
			c7.2,3,14.6,5.6,22.1,7.7c15,4.2,30.5,6.5,46.1,6.9c7.8,0.2,15.6-0.2,23.3-1.3c7.7-1.1,15.3-2.8,22.7-5.3
			c7.4-2.4,14.6-5.6,21.4-9.4c6.8-3.8,13.4-8.2,19.2-13.5c-2.7,2.9-5.7,5.5-8.8,7.9c-3.1,2.4-6.4,4.7-9.7,6.7
			c-6.7,4.1-13.9,7.6-21.4,10.3c-14.9,5.4-30.9,7.9-46.7,7.5c-15.8-0.3-31.6-2.7-46.8-7.1c-7.6-2.2-15.1-4.9-22.3-8.2
			c-7.2-3.3-14.2-6.9-20.8-11.5l1.3-1c1.9,5.2,5.5,15.6,7.3,20.8"/>
		<g>
			<path class="st5" d="M168.3,174.5c0.1-0.3,0.2-0.5,0.3-0.7c0.6-1.1,1.8-1.9,3-2.5c-1.4,0.2-2.8,0.6-4,1.8c-0.6,0.6-0.9,1.3-1.2,2
				c-0.3,0.8-0.4,1.5-0.4,2.4l0.1,0c0,0.3,0,0.6,0,0.9c0.3,2,1.6,3.5,3,3.3c1.4-0.2,2.3-2,2-4C170.9,175.8,169.6,174.4,168.3,174.5z
				"/>
			<path class="st5" d="M177.8,174.8c-0.1-0.3-0.1-0.5-0.3-0.7c-0.6-1.1-1.8-1.9-3-2.5c1.4,0.2,2.8,0.7,3.9,1.8
				c0.5,0.6,0.9,1.3,1.2,2.1c0.2,0.8,0.4,1.5,0.4,2.4l-0.1,0c0,0.3,0,0.6,0,0.9c-0.3,2-1.6,3.5-3,3.3c-1.4-0.2-2.3-2-2-4
				C175.2,176.2,176.5,174.7,177.8,174.8z"/>
		</g>
		<g>
			<path class="st7" d="M170.6,157.8c0.3,7.1-3.6,13.1-8.9,13.4c-5.2,0.3-9.8-5.2-10.1-12.3c-0.3-7.1,3.6-13.1,8.9-13.4
				C165.7,145.2,170.2,150.7,170.6,157.8"/>
			<path class="st8" d="M166.6,159.2c0.1,3.4-2,6.3-4.8,6.5c-2.8,0.2-5.1-2.4-5.3-5.8c-0.1-3.4,2-6.3,4.8-6.5
				C164.1,153.1,166.5,155.8,166.6,159.2"/>
			<path class="st7" d="M199.2,152.2c0.5,10.3-5.2,18.9-12.7,19.4c-7.5,0.4-13.9-7.5-14.4-17.8c-0.5-10.3,5.2-18.9,12.7-19.4
				C192.3,134,198.8,141.9,199.2,152.2"/>
			<path class="st8" d="M191.7,156c0.2,4.7-2.8,8.8-6.8,9c-4,0.2-7.3-3.4-7.5-8.1c-0.2-4.7,2.8-8.8,6.8-9
				C188.1,147.6,191.5,151.3,191.7,156"/>
		</g>
		<path class="st8" d="M168.7,139.1c-7.8-0.6-15.6-0.1-23.4,1.3c0-2.1,0-4.1,0-6.2c7.6-3,15.2-5,22.8-6.1
			C168.3,131.8,168.5,135.4,168.7,139.1z"/>
		<path class="st2" d="M124.2,68.8c0,0,13.7-42,44.7-42.7c40.7-0.9,60.1,41.7,60.1,41.7L124.2,68.8"/>
		<path class="st19" d="M181.3,255.8c-34.7-0.7-51.1-4.2-57.8-6.3c1.6,3.8,3,6.3,5.7,9.3c6.6,1.7,24.2,4.7,54.4,5.6
			c31.1,0.9,46.4-2.2,52.5-4l1.5-8.9C231.5,253.4,216.3,256.5,181.3,255.8z"/>
		<path class="st19" d="M151.9,266.8l5.4-0.6l-1-11.5c-1.9-0.2-3.8-0.3-5.5-0.5L151.9,266.8z"/>
		<path class="st19" d="M205,255.7l-0.1,11.6l5.5,0l0.1-11.9C208.8,255.5,207,255.6,205,255.7z"/>
		<ellipse class="st18" cx="177.2" cy="260.5" rx="1.9" ry="2.2"/>
		<path class="st8" d="M203.1,132.1c-10-1.7-20.1-2.2-30.1-1.3c0.2-3.7,0.3-7.5,0.5-11.2c9.7,0.3,19.5,1.8,29.2,4.5
			C202.8,126.7,203,129.4,203.1,132.1z"/>
		<path class="st5" d="M291.1,121.9l-45.8-5.1l0.8-11.3l-9,10.7c0,0-56.6-0.4-92,5c-2.7,0.4-14.1-8.8-14.1-8.8s-2.7,4.2-2.7,11.7
			c-8.5-8.1-9.3-22.9-9.3-22.9s-7.6,15.6-5.8,25.7c-15.5,3.2-31.2,7.6-46.8,13.4l1.3-42.5c0,0,54.6-61.1,120.8-48.1
			c21,4.1,22.9,17.3,22.9,17.3s9.5-15.4,38-11.9C278.9,58.7,296.5,74.1,291.1,121.9z"/>
		<path class="st8" d="M31.2,144.1c0,0-10.8-21,1.3-44.9C32.5,99.2,11.1,112.7,31.2,144.1z"/>
		<path class="st8" d="M245.6,116.5l51.5,6.3c0,0,17.2-31.5-18.2-41.2c0,0,28.9,10.3,16.7,39.3L245.6,116.5z"/>
		<path class="st8" d="M84.9,134.3c0.2-0.5,3.4-10.4,12.6-20.2c0,0-12.2,8.5-16.7,21.2"/>
		<g>
			<path class="st8" d="M76.4,106.4c0.7-6.2,2.9-12.2,5.8-17.8c1.5-2.8,3.1-5.5,5-8c1.9-2.5,3.9-5,6.2-7.2
				c4.5-4.5,9.6-8.3,15.1-11.4c5.5-3.1,11.4-5.5,17.4-7.4l-0.4,2.6c-0.4-0.2-1-0.6-1.5-0.8c-0.6-0.2-1.1-0.5-1.7-0.7
				c-1.2-0.4-2.4-0.7-3.7-0.9c-2.5-0.5-5.1-0.7-7.6-0.7c-2.6,0-5.2,0.3-7.8,0.6c-2.6,0.4-5.2,0.9-7.8,1.5c2.4-1.1,4.9-2,7.5-2.7
				c2.6-0.7,5.2-1.2,7.9-1.5c2.7-0.2,5.4-0.2,8.2,0.1c1.4,0.2,2.7,0.5,4.1,0.9c0.7,0.2,1.3,0.4,2,0.7c0.7,0.3,1.3,0.5,2,1l2.7,1.6
				l-3.1,1c-5.8,1.8-11.5,4.3-16.8,7.2c-1.4,0.7-2.6,1.5-3.9,2.3c-1.3,0.8-2.5,1.7-3.8,2.6c-2.5,1.7-4.8,3.7-7,5.8
				c-4.4,4.2-8.3,8.9-11.5,14.1C80.5,94.7,77.9,100.3,76.4,106.4z"/>
		</g>
		<g>
			<path class="st8" d="M202.7,86c1.6-1.2,3.2-2.4,4.5-3.8c1.3-1.4,2.5-2.9,3.3-4.5c0.8-1.6,1.3-3.4,1.5-5.2c0.1-0.9,0.1-1.8,0-2.7
				c-0.1-0.9-0.2-1.9-0.4-2.6l-0.6-1.9l1.9-0.1c1.1,0,1.9,0.1,2.8,0.2c0.9,0.1,1.8,0.4,2.6,0.6c1.7,0.6,3.4,1.4,4.8,2.3
				c0.7,0.5,1.5,1,2.1,1.6c0.7,0.6,1.3,1.2,1.9,1.9c1.1,1.3,2.1,2.8,2.8,4.3c-1.2-1.2-2.5-2.3-3.8-3.3c-1.3-1-2.7-1.8-4.1-2.6
				c-1.4-0.7-2.9-1.2-4.5-1.6c-0.8-0.2-1.5-0.3-2.3-0.4c-0.7-0.1-1.6-0.1-2.2-0.1l1.3-2c0.4,1.2,0.5,2.2,0.6,3.3
				c0.1,1.1,0.1,2.2-0.1,3.3c-0.3,2.2-1,4.3-2.2,6.1c-0.6,0.9-1.3,1.7-2,2.5c-0.8,0.7-1.6,1.4-2.4,2C206.5,84.5,204.6,85.4,202.7,86
				z"/>
		</g>
		<g>
			<path class="st8" d="M223.1,58.4c4-3,8.3-5.6,13-7.5c2.3-1,4.8-1.7,7.3-2.2c0.6-0.1,1.3-0.2,1.9-0.3l2-0.1
				c1.4-0.1,2.9,0.2,4.2,0.7c1.3,0.5,2.5,1.2,3.6,2c1.1,0.8,2.1,1.6,3,2.5c1.8,1.8,3.5,3.8,4.9,5.9c2.9,4.2,5.3,8.6,7,13.3
				c-2.9-4.1-5.8-8.1-8.9-11.9c-1.6-1.8-3.2-3.7-5-5.2c-1.8-1.6-3.7-3-5.7-3.8c-1-0.4-2-0.6-3-0.6l-1.8,0.1
				c-0.6,0.1-1.2,0.2-1.8,0.2c-2.4,0.3-4.7,1-7,1.6C232.2,54.5,227.7,56.5,223.1,58.4z"/>
		</g>
		<g>
			<path class="st8" d="M158.5,83.6c-1.4,5.9-2.4,12-2.4,18c0,6,0.9,11.9,1.9,18l-4,0.4c-0.3-6.1-0.6-12.3,0.1-18.5
				C154.8,95.3,156.5,89.4,158.5,83.6z"/>
		</g>
		<g>
			<path class="st8" d="M261.1,117.9c1.9-4.8,3.4-9.8,4.2-14.9c0.8-5.1,0.9-10.4,0.2-15.6c1.2,5.1,1.6,10.5,1.3,15.8
				c-0.3,5.3-1.4,10.6-2.9,15.7L261.1,117.9z"/>
		</g>
		<g>
			<polygon class="st8" points="164.3,99 167.6,118.4 163.6,118.6 			"/>
		</g>
		<g>
			<path class="st5" d="M191.7,202.4c-0.4,1.4-1,2.6-1.8,3.8c-0.8,1.2-1.7,2.3-2.8,3.2c-1.1,0.9-2.3,1.8-3.6,2.4
				c-1.3,0.7-2.6,1.2-4,1.6l-1.9,0.5l1-1.8c0.2-0.4,0.5-1.1,0.6-1.7c0.2-0.6,0.3-1.2,0.3-1.8c0.1-0.6,0.1-1.2,0-1.9
				c0-0.6-0.1-1.3-0.2-1.9l1.7,0.5c-1.5,1.5-3.1,2.6-4.8,3.6c-1.7,1-3.5,1.8-5.4,2.5c-1.9,0.6-3.8,1.1-5.7,1.4
				c-1,0.2-1.9,0.2-2.9,0.3c-1,0.1-2,0-2.9,0.1l-1.3,0l0.9-0.9c1.9-1.9,3.8-3.7,5.8-5.5c-1.6,2.1-3.4,4.2-5.1,6.2l-0.4-0.9
				c1.9-0.2,3.8-0.4,5.6-0.8l1.4-0.3l1.3-0.4c0.9-0.2,1.8-0.6,2.7-0.9c1.7-0.7,3.4-1.5,5-2.5c1.6-0.9,3.1-2.1,4.4-3.3l1.4-1.3
				l0.3,1.8c0.1,0.7,0.2,1.4,0.2,2.2c0,0.7,0,1.5-0.1,2.2c-0.1,0.7-0.3,1.4-0.5,2.1c-0.2,0.7-0.5,1.4-0.9,2.1l-0.9-1.3
				c1.3-0.3,2.6-0.7,3.8-1.2c1.2-0.5,2.4-1.2,3.5-2c1.1-0.8,2.1-1.7,3-2.7C190.3,204.8,191.1,203.6,191.7,202.4z"/>
		</g>
		<path class="st4" d="M272,153.4c0,0,28.8,2.9,29.1,21.2l-18.1,3.3c0,0,7,5.8,2.5,17.2l-7.8-10c0,0,3.8,13.2-20.8,29.2l2.2-18.5
			l-2.5-12.5L272,153.4z"/>
		<path class="st4" d="M77.5,153.7c-0.6,0.5-10.1-2.7-21.7,10.8l16.2,0.8c0,0-16,12.6-9.6,30.2c10.7-12.6,16-15.3,26.3-20.3
			L77.5,153.7z"/>
		<path class="st4" d="M81.4,173.6c0,0-17.1,10.7-3.8,33.5l9.2-12.6L81.4,173.6z"/>
	</g>
</g>
<g id="Grogg_Hair_Front">
</g>
<g id="labels">
</g>
</svg>
