<?xml version="1.0" encoding="UTF-8" standalone="no"?>
<!-- Generator: Adobe Illustrator 23.0.6, SVG Export Plug-In . SVG Version: 6.00 Build 0)  -->

<svg
   xmlns:dc="http://purl.org/dc/elements/1.1/"
   xmlns:cc="http://creativecommons.org/ns#"
   xmlns:rdf="http://www.w3.org/1999/02/22-rdf-syntax-ns#"
   xmlns:svg="http://www.w3.org/2000/svg"
   xmlns="http://www.w3.org/2000/svg"
   xmlns:sodipodi="http://sodipodi.sourceforge.net/DTD/sodipodi-0.dtd"
   xmlns:inkscape="http://www.inkscape.org/namespaces/inkscape"
   version="1.1"
   id="headmaster"
   x="0px"
   y="0px"
   viewBox="0 0 296 282"
   enable-background="new 0 0 296 282"
   xml:space="preserve"
   sodipodi:docname="instructions-headmaster-grade4.svg"
   inkscape:version="0.92.2 5c3e80d, 2017-08-06" width="296" height="282" preserveAspectRatio="none"><metadata
     id="metadata127"><rdf:RDF><cc:Work
         rdf:about=""><dc:format>image/svg+xml</dc:format><dc:type
           rdf:resource="http://purl.org/dc/dcmitype/StillImage" /></cc:Work></rdf:RDF></metadata><defs
     id="defs125" /><sodipodi:namedview
     pagecolor="#ffffff"
     bordercolor="#666666"
     borderopacity="1"
     objecttolerance="10"
     gridtolerance="10"
     guidetolerance="10"
     inkscape:pageopacity="0"
     inkscape:pageshadow="2"
     inkscape:window-width="776"
     inkscape:window-height="480"
     id="namedview123"
     showgrid="false"
     inkscape:zoom="0.83687943"
     inkscape:cx="148"
     inkscape:cy="141"
     inkscape:window-x="0"
     inkscape:window-y="0"
     inkscape:window-maximized="0"
     inkscape:current-layer="headmaster" /><path
     d="m 186.37088,6 c 0,0 -36.6,-2.9 -99.399999,70.9 -62.7,73.8 -32.5,103.9 -32.5,103.9 0,0 17.2,4.3 34.2,10 19.799999,6.6 26.499999,26.7 26.499999,26.7 0,0 15.4,-21 29.6,-15.7 12.4,4.6 11.8,12.8 11.8,12.8 l 20.5,-23.6 c 0,0 -17.6,-35.3 -12.5,-88.7 5.1,-53.5 21.8,-96.3 21.8,-96.3 z"
     id="path2"
     inkscape:connector-curvature="0"
     style="fill:#d44f27" /><g
     id="g58"
     transform="matrix(-1,0,0,1,295.97088,0)"><path
       d="m 149.3,29.6 c 0,0 7.1,8.3 6,15.5 -1.1,7.2 -10.2,12.7 -10.2,12.7 l -58.8,3 C 86.3,60.8 78.4,62.6 63,56 47.5,49.4 47,43.6 47,43.6 c 0,0 16.7,-8.8 29,-10.7 12.3,-1.9 24,2.9 24,2.9 0,0 -16.2,-10.1 -12,-14.6 4.2,-4.5 18.4,-0.4 30.4,6.8 12,7.3 17,16.9 17,16.9 l -2.8,-19.6 c 0,0 6.9,4.4 8.9,9.4 2,5 2.3,13.3 2.3,13.3 z"
       id="path4"
       inkscape:connector-curvature="0"
       style="fill:#fee56a" /><g
       id="g8"><path
         d="m 108.9,32.7 c 2,0.4 3.9,1.3 5.6,2.4 1.7,1.1 3.1,2.8 4.2,4.6 1.1,1.8 1.8,3.7 2.4,5.7 0.6,2 1,4 1.2,6.1 l 0.2,2.2 -1.1,-2 c -0.3,-0.6 -1,-1.3 -1.6,-1.8 -0.7,-0.6 -1.4,-1 -2.1,-1.5 -1.5,-0.9 -3.1,-1.6 -4.8,-2.3 -3.3,-1.3 -6.7,-2.4 -10.2,-2.9 -3.5,-0.5 -7.1,-0.7 -10.7,-0.4 -3.6,0.3 -7.1,0.8 -10.6,1.8 1.7,-0.6 3.4,-1.1 5.2,-1.5 1.8,-0.4 3.5,-0.7 5.3,-0.9 3.6,-0.4 7.2,-0.4 10.8,0.1 3.6,0.5 7.1,1.5 10.5,2.8 1.7,0.7 3.3,1.4 4.9,2.4 0.8,0.5 1.5,1 2.2,1.6 0.7,0.6 1.4,1.2 1.9,2.2 l -0.9,0.2 c -0.2,-2 -0.6,-4 -1.1,-5.9 -0.5,-2 -1.2,-3.9 -2.2,-5.6 -0.5,-0.9 -1,-1.7 -1.7,-2.5 -0.6,-0.8 -1.4,-1.5 -2.2,-2.1 -1.4,-1.2 -3.2,-2.2 -5.2,-2.7 z"
         id="path6"
         inkscape:connector-curvature="0"
         style="fill:#f7b319" /></g><path
       d="m 140.5,55 c 0,0 5.4,33.2 0.6,51.9 -4.9,19.1 -12.4,51.8 -12.4,51.8 l -17.6,-2.1 c 0,0 -0.1,-6.2 -14.6,-36.4 C 82,90 85.2,55.9 85.2,55.9 c 0,0 9,-3.6 27,-4.6 18,-1 28.3,3.7 28.3,3.7 z"
       id="path10"
       inkscape:connector-curvature="0"
       style="fill:#f69320" /><path
       d="m 130.6,93.4 c 0,0 -3.8,22.5 -33.1,20.1 -26.5,-2.1 -38.8,-11.4 -38.8,-11.4 0,0 3.4,-18.1 19,-19.3 15.6,-1.1 30.4,13.2 30.4,13.2 z"
       id="path12"
       inkscape:connector-curvature="0"
       style="fill:#f69320" /><path
       d="m 174.3,80.3 c 0,0 -6.7,-0.5 -17.5,6.3 C 146.1,93.5 138,103 138,103 l -1.2,9.1 c 0,0 2.6,10.4 17.8,1.4 15.3,-8.8 19.7,-33.2 19.7,-33.2 z"
       id="path14"
       inkscape:connector-curvature="0"
       style="fill:#f69320" /><path
       d="m 139.4,50.1 c 0,0 -6.2,11.1 -4.9,24.8 1.3,13.7 8,26.3 8,26.3 0,0 6.6,-10.1 7.5,-26.5 0.8,-16.4 -2.6,-21.5 -2.6,-21.5 z"
       id="path16"
       inkscape:connector-curvature="0"
       style="fill:#fee56a" /><path
       d="m 109,79.5 c -0.4,4.8 2.2,9 5.9,9.3 3.6,0.3 6.9,-3.4 7.3,-8.2 0.4,-4.8 -2.2,-9 -5.9,-9.3 -3.7,-0.3 -6.9,3.4 -7.3,8.2 z"
       id="path18"
       inkscape:connector-curvature="0"
       style="fill:#fffce8" /><path
       d="m 97.2,79.6 c -0.3,4.2 1.9,7.9 4.9,8.1 3,0.2 5.8,-3 6.1,-7.2 0.3,-4.2 -1.9,-7.9 -4.9,-8.1 -3,-0.2 -5.7,3 -6.1,7.2 z"
       id="path20"
       inkscape:connector-curvature="0"
       style="fill:#fffce8" /><path
       d="m 111.7,81.3 c -0.2,2.1 1.2,4 3,4.1 1.8,0.1 3.4,-1.5 3.6,-3.6 0.2,-2.1 -1.2,-4 -3,-4.1 -1.9,-0.1 -3.5,1.5 -3.6,3.6 z"
       id="path22"
       inkscape:connector-curvature="0"
       style="fill:#3b1026" /><path
       d="m 100.6,81.1 c -0.2,1.9 1,3.5 2.7,3.6 1.6,0.1 3,-1.3 3.2,-3.2 0.2,-1.9 -1,-3.5 -2.7,-3.6 -1.6,-0.1 -3,1.3 -3.2,3.2 z"
       id="path24"
       inkscape:connector-curvature="0"
       style="fill:#3b1026" /><path
       d="m 112.9,61.9 c 4,-0.5 7.9,0.5 11.2,2.6 0.1,-0.3 0.1,-0.5 0.2,-0.8 -3.2,-2.3 -7.1,-3.4 -11,-3.2 -0.2,0.5 -0.3,0.9 -0.4,1.4 z"
       id="path26"
       inkscape:connector-curvature="0"
       style="fill:#3b1026" /><path
       d="m 108.3,66 c -4,-0.4 -7.9,0.6 -11.2,2.8 -0.1,-0.3 -0.2,-0.5 -0.2,-0.8 3.2,-2.4 7.1,-3.6 11,-3.4 0.1,0.5 0.3,1 0.4,1.4 z"
       id="path28"
       inkscape:connector-curvature="0"
       style="fill:#3b1026" /><g
       id="g32"><path
         d="m 150.3,65.3 c -0.2,-0.4 -0.5,-0.7 -0.8,-1 -0.3,-0.3 -0.7,-0.4 -1.1,-0.6 -0.8,-0.3 -1.6,-0.4 -2.5,-0.4 -1.7,-0.1 -3.4,0.2 -5,0.6 -1.6,0.4 -3.1,1.2 -4.3,2.3 -1.2,1.1 -2.1,2.6 -2.5,4.1 l -0.7,-0.5 c 1.4,-0.7 2.9,-1.3 4.4,-1.7 1.5,-0.4 3.1,-0.7 4.6,-0.6 1.6,0.1 3.2,0.5 4.5,1.3 1.3,0.8 2.3,2.3 2.4,3.8 -0.3,-1.5 -1.4,-2.8 -2.7,-3.4 -1.3,-0.7 -2.8,-1 -4.3,-1 -1.5,0 -3,0.3 -4.4,0.8 -1.4,0.4 -2.9,1 -4.2,1.7 l -1,0.5 0.3,-1 c 0.5,-1.8 1.5,-3.4 2.8,-4.6 1.4,-1.2 3.1,-2 4.8,-2.3 1.8,-0.3 3.5,-0.5 5.2,-0.3 0.9,0.1 1.7,0.3 2.6,0.7 0.9,0.2 1.6,0.8 1.9,1.6 z"
         id="path30"
         inkscape:connector-curvature="0"
         style="fill:#f7b319" /></g><g
       id="g36"><path
         d="m 168.6,87.1 c -2.8,0.9 -5.4,2.2 -7.9,3.6 -2.5,1.5 -4.9,3.2 -7.1,5 -2.2,1.9 -3.9,4.2 -5.2,6.7 -1.3,2.5 -2.2,5.3 -2.5,8.1 l -0.9,-0.2 c 0.7,-1.5 1.6,-3 2.6,-4.3 1,-1.3 2.3,-2.6 3.8,-3.3 0.8,-0.3 1.7,-0.6 2.6,-0.5 0.9,0.1 1.7,0.3 2.4,0.9 0.7,0.5 1.1,1.5 1,2.3 -0.1,0.8 -0.5,1.6 -0.9,2.3 0.4,-0.7 0.7,-1.5 0.7,-2.3 0,-0.8 -0.3,-1.6 -1,-2 -0.6,-0.4 -1.5,-0.6 -2.2,-0.7 -0.8,-0.1 -1.5,0.2 -2.2,0.5 -1.4,0.8 -2.5,2 -3.5,3.3 -0.9,1.3 -1.8,2.7 -2.5,4.2 l -1.1,2.4 0.2,-2.6 c 0.3,-3 1.1,-5.9 2.5,-8.5 1.4,-2.7 3.2,-5 5.5,-7 2.3,-1.9 4.8,-3.5 7.4,-4.9 2.7,-1.3 5.4,-2.4 8.3,-3 z"
         id="path34"
         inkscape:connector-curvature="0"
         style="fill:#d44f27" /></g><path
       d="m 74.8,90.3 c -0.1,0.1 -0.3,0.1 -0.4,0.2 -0.5,0.4 -0.9,1.1 -1.1,1.9 0,-0.8 0.1,-1.6 0.6,-2.3 0.3,-0.4 0.6,-0.6 1,-0.8 0.4,-0.2 0.8,-0.4 1.3,-0.4 v 0 c 0.2,0 0.3,-0.1 0.5,-0.1 1.1,0 2.1,0.6 2.1,1.4 0,0.8 -0.9,1.4 -2,1.5 -1.1,-0.1 -2,-0.7 -2,-1.4 z"
       id="path38"
       inkscape:connector-curvature="0"
       style="fill:#d44f27" /><path
       d="m 93.4,92 c 0.1,0.1 0.2,0.2 0.3,0.3 0.4,0.6 0.5,1.4 0.4,2.1 0.3,-0.7 0.4,-1.5 0.2,-2.4 -0.1,-0.4 -0.4,-0.8 -0.7,-1.1 -0.3,-0.3 -0.6,-0.6 -1.1,-0.8 v 0 C 92.4,90 92.2,89.9 92,89.9 c -1.1,-0.4 -2.1,-0.2 -2.4,0.6 -0.3,0.7 0.3,1.6 1.4,2.1 1,0.3 2,0.1 2.4,-0.6 z"
       id="path40"
       inkscape:connector-curvature="0"
       style="fill:#d44f27" /><path
       d="m 128,92.7 c -0.1,0.8 0.5,1.5 1.3,1.6 0.8,0.1 1.5,-0.5 1.6,-1.3 0.1,-0.8 -0.5,-1.5 -1.3,-1.6 -0.9,-0.1 -1.6,0.5 -1.6,1.3 z"
       id="path42"
       inkscape:connector-curvature="0"
       style="fill:#d44f27" /><g
       id="g46"><path
         d="m 106.5,131.1 c 1.3,0.2 2.6,0.3 3.9,0.3 1.3,0 2.6,-0.2 3.8,-0.6 1.2,-0.4 2.3,-1 3.4,-1.7 1,-0.8 2,-1.6 2.9,-2.7 -0.5,1.3 -1.4,2.4 -2.4,3.3 -1,0.9 -2.2,1.6 -3.6,2.1 -1.3,0.5 -2.7,0.6 -4.1,0.4 -1.4,-0.1 -2.7,-0.5 -3.9,-1.1 z"
         id="path44"
         inkscape:connector-curvature="0"
         style="fill:#d44f27" /></g><path
       d="m 113.9,111.8 c 8.2,-1.9 11,-6.8 11,-6.8 0,0 -3.7,10.3 -8.9,16.1 -5.3,5.8 -12.1,3.4 -13.7,-1 -1.6,-4.4 -2.8,-6.9 -2.8,-6.9 0,0 6.2,0.4 14.4,-1.4 z"
       id="path48"
       inkscape:connector-curvature="0"
       style="fill:#3c1026" /><path
       d="m 100.6,113.2 c 0,0 3.5,0.1 4.5,0.2 0.9,0.1 6.5,-1.7 9.7,-2.4 3.2,-0.7 10,-6.1 10,-6.1 -0.5,2.2 -1.2,3.3 -2,5.1 0,0 -4,4.5 -11.6,6.5 -7.5,2 -8.9,0.1 -8.9,0.1 z"
       id="path50"
       inkscape:connector-curvature="0"
       style="fill:#fffeef" /><path
       d="m 107.4,124.6 c 1,0.2 2,0.5 4.8,-0.4 2.8,-1 4.5,-3.9 4.5,-3.9 0,0 -3.9,1.7 -7.8,1.8 -2.1,0.1 -3.9,-0.4 -3.9,-0.4 1.1,2.5 1.6,2.7 2.4,2.9 z"
       id="path52"
       inkscape:connector-curvature="0"
       style="fill:#fffeef" /><g
       id="g56"><path
         d="M 109.2,99.6 C 108,97.1 106.1,95 104.1,93.1 102,91.2 99.7,89.7 97.3,88.4 92.4,85.9 87,84.4 81.5,83.7 c -2.7,-0.3 -5.4,-0.2 -8,0.5 -2.6,0.7 -4.9,2 -6.9,3.8 -3.9,3.7 -6.1,9 -7,14.2 l -0.5,-1 c 2.9,1.6 6,3.1 9.1,4.4 3.1,1.3 6.3,2.4 9.6,3.4 6.5,1.9 13.2,3.2 20,3.5 3.4,0.2 6.8,0.2 10.1,-0.2 3.3,-0.4 6.6,-1.3 9.6,-2.9 3,-1.5 5.7,-3.7 7.7,-6.4 1,-1.4 1.9,-2.8 2.6,-4.4 0.7,-1.6 1.2,-3.2 1.5,-4.9 -0.8,6.8 -5.1,13.2 -11.2,16.6 -3.1,1.7 -6.4,2.8 -9.9,3.3 -3.5,0.6 -6.9,0.6 -10.4,0.5 -6.9,-0.3 -13.8,-1.4 -20.5,-3.3 -6.7,-1.9 -13.1,-4.5 -19.2,-7.9 l -0.6,-0.3 0.1,-0.6 c 0.5,-2.9 1.3,-5.6 2.6,-8.3 1.3,-2.6 3,-5 5.1,-7 2.2,-2 4.8,-3.4 7.7,-4.1 2.8,-0.7 5.8,-0.8 8.6,-0.4 5.6,0.8 11.1,2.5 16,5.3 2.4,1.4 4.7,3.1 6.7,5.1 2.1,2.1 3.9,4.4 4.9,7 z"
         id="path54"
         inkscape:connector-curvature="0"
         style="fill:#d44f27" /></g></g><g
     id="g70"
     transform="matrix(-1,0,0,1,295.97088,0)"><path
       d="m 75.1,168.3 v 0 c -0.2,0.1 -0.3,0.1 -0.3,0.1 0,0 -7.6,-6.4 -16.2,-22.5 -4.4,4.4 -11.9,13.1 -11.9,13.1 0,0 12.2,15.7 25.8,17 3.1,0.3 1.8,-3.3 2.6,-7.7 z"
       id="path60"
       inkscape:connector-curvature="0"
       style="fill:#f59222" /><g
       id="g68"><path
         d="m 57.1,143.5 c 0,0 1.9,-5.9 -0.7,-9.8 -2.7,-3.9 -5.6,7.7 -5.6,8.5 -1.4,-0.4 -11.9,-8.9 -14.1,-7.4 -2.8,2 5.4,9.7 5.4,9.7 0,0 -12.2,-3.5 -12.2,-0.9 0,2.6 11.2,6.5 11.2,6.5 0,0 -10.2,-0.3 -10.1,2.6 0,2.1 6.8,3.3 13.2,3.4 2.5,3.2 5.1,5.7 5.1,5.7 l 12.9,-9.5 c 0,0 -1.5,-2.9 -5.1,-8.8 z"
         id="path62"
         inkscape:connector-curvature="0"
         style="fill:#f89522" /><g
         id="g66"><path
           d="m 49.5,143.3 c -0.7,0.7 -1.4,1.5 -1.9,2.2 -0.5,0.8 -1,1.6 -1.3,2.5 -0.2,0.4 -0.3,0.9 -0.4,1.3 l -0.2,0.7 c 0,0.2 0,0.5 -0.1,0.7 -0.1,0.5 -0.1,1 -0.1,1.5 0,0.5 0,1 0,1.5 -0.2,-0.5 -0.4,-0.9 -0.6,-1.4 -0.1,-0.5 -0.3,-1 -0.3,-1.6 -0.1,-1.1 0.1,-2.1 0.4,-3.2 0.4,-1 1,-1.9 1.7,-2.7 0.9,-0.6 1.8,-1.2 2.8,-1.5 z"
           id="path64"
           inkscape:connector-curvature="0"
           style="fill:#d44f27" /></g></g></g><g
     id="g80"
     transform="matrix(-1,0,0,1,295.97088,0)"><path
       d="m 180.5,12.7 c 0,0 49.6,9.2 83.5,84.6 23.2,51.6 18.6,127.4 18.6,127.4 l -29.1,-53.1 -83,-13 -42,44 -6.5,-45.4 c 0,0 34.9,-15.2 58.2,-60.9 22.5,-44.1 0.3,-83.6 0.3,-83.6 z"
       id="path72"
       inkscape:connector-curvature="0"
       style="fill:#f69320" /><path
       d="m 201.5,39.8 c 0,0 26.6,10.6 56.5,70.5 20,39.9 24.6,114.4 24.6,114.4 0,0 -21.1,-27.1 -46.1,-25.1 -24.5,2 -41.1,26.1 -41.1,26.1 0,0 -6.9,-32.8 -32.9,-33.1 -26,-0.3 -33,20 -33,20 l -6.2,-46.9 c 0,0 36.7,-16.5 62.7,-61.8 20.5,-35.6 15.5,-64.1 15.5,-64.1 z"
       id="path74"
       inkscape:connector-curvature="0"
       style="fill:#97d6d4" /><g
       id="g78"><path
         d="m 214.9,74.4 c 0.5,0.6 0.9,1.2 1.3,1.8 l 1.2,1.9 1,2 0.5,1 0.4,1.1 c 1.2,2.8 1.9,5.7 2.7,8.6 0.5,3 1.2,5.9 1.5,9 l 0.5,4.5 0.1,4.5 c 0,1.5 0.1,3 0.1,4.5 l -0.2,4.5 -0.2,4.5 c -0.1,1.5 -0.3,3 -0.5,4.5 l -0.6,4.5 c -0.2,1.5 -0.3,3 -0.7,4.5 l -1.7,8.9 -0.4,2.2 c -0.2,0.7 -0.4,1.5 -0.6,2.2 l -1.2,4.4 -1.2,4.4 c -0.4,1.5 -0.7,2.9 -1.2,4.4 l -2.9,8.6 c -1,2.9 -1.8,5.7 -3,8.5 l -3.3,8.4 -1.7,4.2 -0.9,2.1 -0.9,2 c -2.6,5.4 -5.1,10.9 -7.7,16.3 2.2,-5.6 4.5,-11.2 6.7,-16.7 l 0.9,-2.1 0.8,-2.1 1.5,-4.2 3.1,-8.5 c 0.5,-1.4 1,-2.8 1.5,-4.3 l 1.3,-4.3 2.7,-8.6 c 0.8,-2.9 1.5,-5.8 2.3,-8.7 l 1.1,-4.3 c 0.2,-0.7 0.4,-1.4 0.6,-2.2 l 0.4,-2.2 1.8,-8.8 c 0.3,-1.5 0.5,-2.9 0.7,-4.4 l 0.6,-4.4 c 0.2,-1.5 0.5,-3 0.6,-4.4 l 0.3,-4.5 0.3,-4.5 c 0,-1.5 0,-3 0,-4.5 v -4.5 l -0.3,-4.5 c -0.1,-3 -0.7,-5.9 -1.1,-8.9 -0.6,-2.9 -1.2,-5.8 -2.2,-8.7 -1.1,-2.4 -2.2,-5.2 -4,-7.7 z"
         id="path76"
         inkscape:connector-curvature="0"
         style="fill:#228dbb" /></g></g><path
     d="m 185.07088,152.3 0.9,-0.4 23.8,12.8 22,-16.5 15.6,19.6 c 0,0 -17.1,14.9 -17.3,14.9 l -0.4,0.1 c -1.8,0.4 -7.5,0.8 -21.4,-4.1 -17.9,-6.3 -33.1,-21.7 -33.1,-21.7 z"
     id="path82"
     inkscape:connector-curvature="0"
     style="fill:#228dbb" /><ellipse
     cx="-166.07089"
     cy="260.60001"
     rx="116.9"
     ry="15.5"
     id="ellipse84"
     transform="scale(-1,1)"
     style="opacity:0.1;fill:#384f7e" /><path
     d="m 154.97088,210.1 c 0,0 -8.7,19.7 -21.8,26.8 -13,7 -55.799999,5.6 -64.899999,14.1 -3.9,3.7 44.399999,9.6 65.099999,9.9 42.6,0.6 58.8,-39.6 58.8,-39.6 z"
     id="path86"
     inkscape:connector-curvature="0"
     style="fill:#d44f27" /><path
     d="m 121.47088,187.8 c 0,0 -1.7,4.4 0.8,8.3 2.4,3.9 6.3,3.5 6.3,3.5 0,0 -11.1,4 -9.9,7.2 1.2,3.2 10.7,-2.9 10.7,-2.9 0,0 -6.5,10.7 -3.9,11.4 2.5,0.7 9,-9.1 9,-9.1 0,0 -3.9,9.6 -1.2,10.2 2.7,0.7 13.1,-14.5 11,-20.9 -2.1,-6.3 -8.7,-12.6 -8.7,-12.6 z"
     id="path88"
     inkscape:connector-curvature="0"
     style="fill:#f69320" /><path
     d="m 154.07088,216.8 c 0,0 -3.1,8.7 -5.8,19.9 -2.6,10.8 -2.6,19.9 -2.6,19.9 h 24.8 l -3.9,-37.2 z"
     id="path90"
     inkscape:connector-curvature="0"
     style="fill:#228dbb" /><path
     d="m 211.17088,221.5 c -0.4,-8.8 1.5,-21.7 -6,-37.4 -8.2,-17 -14.7,-27.5 -16.8,-30.8 -0.9,-0.4 -2.4,-1.3 -2.4,-1.3 h -22.1 c 0,0 -8.3,7.9 -18.1,28.4 -8.7,18.1 -6.7,34.5 -7.1,40.2 z"
     id="path92"
     inkscape:connector-curvature="0"
     style="fill:#228dbb" /><path
     d="m 186.77088,163.8 c 0.4,-5.1 -0.2,-9.2 -0.7,-11.9 h -20.6 c -0.6,1.7 -0.9,4.6 -0.1,9.4 1.8,12.1 12.8,27.6 12.8,27.6 0,0 7.9,-16.1 8.6,-25.1 z"
     id="path94"
     inkscape:connector-curvature="0"
     style="fill:#fffcee" /><path
     d="m 107.27088,174.4 c 0,0 1.2,-4.7 18.1,-13.4 16.9,-8.7 38.6,-9 38.6,-9 l -3.1,11.4 -26.8,8.7 4.7,13 -20.1,10.2 z"
     id="path96"
     inkscape:connector-curvature="0"
     style="fill:#228dbb" /><path
     d="m 178.27088,163.4 4.3,-6.3 -5.2,-4 -4.3,3.8 3.4,6.7 -6.3,11.9 c 3.6,7.4 7.9,13.4 7.9,13.4 0,0 4.4,-8.9 7,-17.1 z"
     id="path98"
     inkscape:connector-curvature="0"
     style="fill:#c5202f" /><g
     id="g102"
     transform="matrix(-1,0,0,1,295.97088,0)"><path
       d="m 128.7,161.6 c -1.9,-1.2 -3.7,-2.5 -5.4,-3.8 -1.8,-1.3 -3.5,-2.7 -5.1,-4.1 h 0.9 c -0.8,0.6 -1.5,1.2 -2.3,1.8 -0.8,0.6 -1.6,1.2 -2.4,1.7 -1.6,1.1 -3.2,2.3 -4.9,3.3 1.3,-1.5 2.8,-2.8 4.2,-4.1 0.7,-0.7 1.5,-1.3 2.2,-1.9 0.7,-0.7 1.5,-1.3 2.3,-1.9 l 0.5,-0.4 0.5,0.4 c 1.7,1.4 3.3,2.9 4.9,4.4 1.5,1.4 3.1,2.9 4.6,4.6 z"
       id="path100"
       inkscape:connector-curvature="0"
       style="fill:#97d6d4" /></g><g
     id="g106"
     transform="matrix(-1,0,0,1,295.97088,0)"><path
       d="m 135.9,156.9 5.3,7.3 0.2,0.2 -0.3,0.1 -3.8,1.2 0.1,-0.5 4.7,3.5 0.2,0.1 -0.1,0.2 c -0.3,1.4 -0.9,2.5 -1.5,3.7 -0.6,1.2 -1.4,2.3 -2.2,3.3 -1.6,2.1 -3.4,4 -5.4,5.8 -2,1.7 -4.1,3.3 -6.4,4.6 -2.3,1.3 -4.6,2.5 -7.1,3.4 l 0.3,-0.4 c 0,5.3 0,10.5 -0.1,15.8 l -0.1,7.9 -0.2,7.9 -0.2,-7.9 -0.1,-7.9 c -0.1,-5.3 -0.1,-10.5 -0.1,-15.8 v -0.3 l 0.3,-0.1 c 2.4,-0.9 4.7,-2.1 6.9,-3.3 2.2,-1.3 4.3,-2.8 6.3,-4.4 1.9,-1.7 3.7,-3.6 5.3,-5.6 1.5,-2 3,-4.2 3.7,-6.6 l 0.1,0.3 -4.7,-3.6 -0.4,-0.3 0.5,-0.1 3.8,-1.1 -0.1,0.3 z"
       id="path104"
       inkscape:connector-curvature="0"
       style="fill:#014c78" /></g><g
     id="g110"
     transform="matrix(-1,0,0,1,295.97088,0)"><path
       d="m 104.5,156.9 c -1.6,2.6 -3.2,5.1 -4.9,7.6 l -0.2,-0.5 3.8,1 0.8,0.2 -0.7,0.5 -4.7,3.6 0.2,-0.5 c 0.3,1 0.7,2 1.2,2.9 0.5,1 1.1,1.9 1.7,2.8 1.3,1.8 2.7,3.5 4.2,5 3.1,3.2 6.7,5.7 10.6,7.9 -4.1,-1.8 -7.9,-4.2 -11.2,-7.3 -1.6,-1.6 -3.1,-3.3 -4.4,-5.1 -1.3,-1.8 -2.5,-3.8 -3.1,-6.1 l -0.1,-0.3 0.3,-0.2 4.7,-3.5 0.1,0.7 -3.8,-1.2 -0.4,-0.1 0.3,-0.4 c 1.9,-2.2 3.7,-4.6 5.6,-7 z"
       id="path108"
       inkscape:connector-curvature="0"
       style="fill:#014c78" /></g><path
     d="m 184.07088,195.3 c 0,1.3 -1.1,2.4 -2.4,2.4 -1.3,0 -2.4,-1.1 -2.4,-2.4 0,-1.3 1.1,-2.4 2.4,-2.4 1.4,0.1 2.4,1.1 2.4,2.4 z"
     id="path112"
     inkscape:connector-curvature="0"
     style="fill:#014c78" /><path
     d="m 184.07088,206.2 c 0,1.3 -1.1,2.4 -2.4,2.4 -1.3,0 -2.4,-1.1 -2.4,-2.4 0,-1.3 1.1,-2.4 2.4,-2.4 1.4,0 2.4,1.1 2.4,2.4 z"
     id="path114"
     inkscape:connector-curvature="0"
     style="fill:#014c78" /><path
     d="m 195.27088,216.8 c 0,0 3.1,8.7 5.8,19.9 2.6,10.8 3.1,19.9 3.1,19.9 h -25.2 l 3.8,-37.2 z"
     id="path116"
     inkscape:connector-curvature="0"
     style="fill:#228dbb" /><path
     d="m 170.27088,253.3 c 0,0 -5.9,2.8 -12.3,2.8 -6.4,0 -21.1,-2.3 -21.1,-2.3 0,0 -5.4,-5.7 -8.4,-2.7 -3,3 1.3,6.2 1.3,6.2 l 1.1,0.7 c 0,0 -8,-1.7 -6.5,2.2 1.5,3.9 9.2,0.6 9.2,0.6 0,0 -5.1,3 -3.4,4.5 1.7,1.5 3.1,1.5 5.2,0.2 2.2,-1.3 1.5,-3 1.5,-3 0,0 34.6,2 36.3,-1.1 1.1,-2.1 -2.9,-8.1 -2.9,-8.1 z"
     id="path118"
     inkscape:connector-curvature="0"
     style="fill:#f69320" /><path
     d="m 178.97088,253.3 c 0,0 7,2.7 13.3,2.7 6.4,0 20,-2.3 20,-2.3 0,0 5.4,-5.7 8.4,-2.7 3,3 -1.3,6.2 -1.3,6.2 l -1.1,0.7 c 0,0 8,-1.7 6.5,2.2 -1.5,3.9 -9.2,0.6 -9.2,0.6 0,0 5.1,3 3.4,4.5 -1.7,1.5 -3.1,1.5 -5.2,0.2 -2.2,-1.3 -1.5,-3 -1.5,-3 0,0 -34.6,2 -36.3,-1.1 -1,-2 3,-8 3,-8 z"
     id="path120"
     inkscape:connector-curvature="0"
     style="fill:#f69320" /></svg>