<?xml version="1.0" encoding="utf-8"?>
<!-- Generator: Adobe Illustrator 19.2.0, SVG Export Plug-In . SVG Version: 6.00 Build 0)  -->
<!DOCTYPE svg PUBLIC "-//W3C//DTD SVG 1.1//EN" "http://www.w3.org/Graphics/SVG/1.1/DTD/svg11.dtd">
<svg version="1.1" xmlns="http://www.w3.org/2000/svg" xmlns:xlink="http://www.w3.org/1999/xlink" x="0px" y="0px"
	 viewBox="0 0 178.7 243.3" enable-background="new 0 0 178.7 243.3" xml:space="preserve" width="178.7" height="243.3" preserveAspectRatio="none">
<g id="Grok_Nose">
	<path opacity="0.1" fill="#384E7D" d="M3.9,221.3c0,9.5,34.8,17.2,77.7,17.2c42.9,0,77.7-7.7,77.7-17.2c0-9.5-34.8-17.2-77.7-17.2
		C38.7,204.1,3.9,211.8,3.9,221.3"/>
	<g>
		<path fill="#E2E5E7" d="M15.9,50.5c-4-13.4-9-38.8-9-38.8s21.3,0.9,43,3.5c-0.8-1.4-1.5-3.1-1.7-4.7c-0.7-4.3,1-6.5,1-6.5
			s6.4,4.8,10.9,7.7c3.1,1.9,12.1,5.8,17.6,8c5,1.2,9.2,2.5,12.2,4c18.4,9.3,23.5,22.6,23.5,22.6l-2.3-10c0,0,11.7,1.1,19.2,13.2
			c7.5,12.1,1.5,20.6,1.5,20.6c-37.8-5.7-54.3,5.9-49.2,34.9c0,0-4.1,6.6-16.8,13.2c-12.7,6.6-25.5,0-25.5,0s7.1-3.2,13.1-9.1
			c0.4-0.4,0.8-0.8,1.2-1.2c-1,0-2-0.1-3-0.2C37.3,106.8,30,94.5,30,94.5s5.3,0.7,11.7-0.1C22.2,84.5,18.9,60.3,15.9,50.5z"/>
	</g>
	<path fill="#7EA6B3" d="M53.6,23.1c1.4,0,2.8,0.1,4.1,0.3c1.4,0.2,2.7,0.4,4.1,0.7c7.4,1.6,14.3,4.8,20.7,8.9
		c7.4,4.7,13,12.2,15.7,20.5c0.4,1.3,0.8,2.6,1.1,3.9c0.3,1.3,0.5,2.7,0.7,3.9l1.8-0.7c-0.9-1.2-1.9-2.2-3-3.2c-1-1-2.1-2-3.2-2.9
		c-8.8-7.2-19.2-12.4-30.2-15.4c-8.5-2.3-17-2.8-25.8-2c8.4-0.8,17.1,0.7,25.1,3.2c10.7,3.3,21,8.5,29.6,15.7
		c1.1,0.9,2.1,1.8,3.1,2.8c1,1,2,2,2.8,3l2.2,2.7l-0.4-3.4c-0.2-1.5-0.4-2.8-0.7-4.2c-0.3-1.4-0.7-2.7-1.2-4.1
		c-3.1-9.4-10-17.4-18.6-22.2c-7.2-4.1-15.4-7-23.7-7.5C56.4,23,55,23,53.6,23.1z"/>
	<g>
		<path fill="#00AFBA" d="M115.7,172.4c0,0,2.9,12.9,0.7,26.2c0,0,4.3-0.1,5.2-0.1c0.8,0,2.5-0.4,2.5-0.4s1.6-17.5-1.9-25.4
			L115.7,172.4z"/>
		<path fill="#C9362C" d="M123.1,208.8c22.3-5.8,19.8,5.8,19.8,5.8c-20.8,3.6-31.9-1-31.9-1c2.5-4,5.4-15.9,5.4-15.9
			c3.8,0.3,7.8-0.2,7.8-0.2C124.5,203,123.1,208.8,123.1,208.8"/>
		<path fill="#69131D" d="M120.3,211.5C120.3,211.5,120.3,211.5,120.3,211.5l15.1-0.6c0.3,0,0.5-0.2,0.5-0.5c0-0.3-0.2-0.5-0.5-0.5
			l-14.5,0.6l0.9-12.7c0-0.3-0.2-0.5-0.5-0.5c-0.3,0-0.5,0.2-0.5,0.5l-0.9,13.2c0,0.1,0,0.3,0.1,0.4
			C120,211.5,120.1,211.5,120.3,211.5z"/>
		<path fill="#69131D" d="M130.4,211C130.4,211,130.4,211,130.4,211c0.3,0,0.5-0.3,0.5-0.6l-0.4-3.1c0-0.3-0.3-0.5-0.6-0.4
			c-0.3,0-0.5,0.3-0.4,0.6l0.4,3.1C129.9,210.8,130.1,211,130.4,211z"/>
		<path fill="#69131D" d="M125.6,211.3c0.2,0,0.5-0.2,0.5-0.4l0.4-2.7c0-0.3-0.2-0.5-0.4-0.6c-0.3,0-0.5,0.2-0.6,0.4l-0.4,2.7
			C125,211,125.2,211.3,125.6,211.3C125.5,211.3,125.5,211.3,125.6,211.3z"/>
		<path fill="#69131D" d="M121.1,201.2C121.1,201.2,121.2,201.2,121.1,201.2l3.1-0.1c0.3,0,0.5-0.2,0.5-0.5c0-0.3-0.2-0.5-0.5-0.5
			l-3.1,0.1c-0.3,0-0.5,0.2-0.5,0.5C120.7,201,120.9,201.2,121.1,201.2z"/>
		<path fill="#69131D" d="M120.7,205.5c0,0,0.1,0,0.1,0l3.2-0.7c0.3-0.1,0.4-0.3,0.4-0.6c-0.1-0.3-0.3-0.4-0.6-0.4l-3.2,0.7
			c-0.3,0.1-0.4,0.3-0.4,0.6C120.2,205.4,120.4,205.5,120.7,205.5z"/>
		<path fill="none" d="M123.1,208.8c22.3-5.8,19.8,5.8,19.8,5.8c-20.8,3.6-31.9-1-31.9-1c2.5-4,5.4-15.9,5.4-15.9
			c3.8,0.3,7.8-0.2,7.8-0.2C124.5,203,123.1,208.8,123.1,208.8"/>
		<path fill="#FFFFFF" d="M134.5,207.1L134.5,207.1c7.6,0.2,8.7,4.3,8.8,6.3v0c0,0.2,0,0.3,0,0.5c0,0,0,0,0,0c0,0.1,0,0.3,0,0.3
			c0,0,0,0,0,0c0,0,0,0.1,0,0.1c0,0,0,0,0,0c0,0,0,0.1,0,0.1c0,0,0,0,0,0c0,0,0,0,0,0.1c0,0,0,0,0,0c0,0,0,0.6,0,0.6
			c-1.8,0.3-5.4,0.8-9.6,0.7c0,0,0.5-1.9,0.8-4C134.7,209.7,134.6,208.6,134.5,207.1z"/>
		<path fill="#D1D2D3" d="M143.3,214.6c0,0,0.4,1.1,0,3c0,0.1,0,0.2-0.1,0.3c-0.4,2-33.4,0.5-34.4-0.9c0,0,0.8-2,2-3.3
			C110.8,213.6,117.7,216,143.3,214.6"/>
	</g>
	<g>
		<path fill="#00AFBA" d="M75.7,172.4c0,0,2.9,12.9,0.7,26.2c0,0,4.3-0.1,5.2-0.1c0.8,0,2.5-0.4,2.5-0.4s1.6-17.5-1.9-25.4
			L75.7,172.4z"/>
		<path fill="#C9362C" d="M83.1,208.8c22.3-5.8,19.8,5.8,19.8,5.8c-20.8,3.6-31.9-1-31.9-1c2.5-4,5.4-15.9,5.4-15.9
			c3.8,0.3,7.8-0.2,7.8-0.2C84.5,203,83.1,208.8,83.1,208.8"/>
		<path fill="#69131D" d="M80.3,211.5C80.3,211.5,80.3,211.5,80.3,211.5l15.1-0.6c0.3,0,0.5-0.2,0.5-0.5c0-0.3-0.2-0.5-0.5-0.5
			l-14.5,0.6l0.9-12.7c0-0.3-0.2-0.5-0.5-0.5c-0.3,0-0.5,0.2-0.5,0.5L79.8,211c0,0.1,0,0.3,0.1,0.4C80,211.5,80.1,211.5,80.3,211.5z
			"/>
		<path fill="#69131D" d="M90.4,211C90.4,211,90.4,211,90.4,211c0.3,0,0.5-0.3,0.5-0.6l-0.4-3.1c0-0.3-0.3-0.5-0.6-0.4
			c-0.3,0-0.5,0.3-0.4,0.6l0.4,3.1C89.9,210.8,90.1,211,90.4,211z"/>
		<path fill="#69131D" d="M85.6,211.3c0.2,0,0.5-0.2,0.5-0.4l0.4-2.7c0-0.3-0.2-0.5-0.4-0.6c-0.3,0-0.5,0.2-0.6,0.4l-0.4,2.7
			C85,211,85.2,211.3,85.6,211.3C85.5,211.3,85.5,211.3,85.6,211.3z"/>
		<path fill="#69131D" d="M81.1,201.2C81.1,201.2,81.2,201.2,81.1,201.2l3.1-0.1c0.3,0,0.5-0.2,0.5-0.5c0-0.3-0.2-0.5-0.5-0.5
			l-3.1,0.1c-0.3,0-0.5,0.2-0.5,0.5C80.7,201,80.9,201.2,81.1,201.2z"/>
		<path fill="#69131D" d="M80.7,205.5c0,0,0.1,0,0.1,0l3.2-0.7c0.3-0.1,0.4-0.3,0.4-0.6c-0.1-0.3-0.3-0.4-0.6-0.4l-3.2,0.7
			c-0.3,0.1-0.4,0.3-0.4,0.6C80.2,205.4,80.4,205.5,80.7,205.5z"/>
		<path fill="none" d="M83.1,208.8c22.3-5.8,19.8,5.8,19.8,5.8c-20.8,3.6-31.9-1-31.9-1c2.5-4,5.4-15.9,5.4-15.9
			c3.8,0.3,7.8-0.2,7.8-0.2C84.5,203,83.1,208.8,83.1,208.8"/>
		<path fill="#FFFFFF" d="M94.5,207.1L94.5,207.1c7.6,0.2,8.7,4.3,8.8,6.3v0c0,0.2,0,0.3,0,0.5c0,0,0,0,0,0c0,0.1,0,0.3,0,0.3
			c0,0,0,0,0,0c0,0,0,0.1,0,0.1c0,0,0,0,0,0c0,0,0,0.1,0,0.1c0,0,0,0,0,0c0,0,0,0,0,0.1c0,0,0,0,0,0c0,0,0,0.6,0,0.6
			c-1.8,0.3-5.4,0.8-9.6,0.7c0,0,0.5-1.9,0.8-4C94.7,209.7,94.6,208.6,94.5,207.1z"/>
		<path fill="#D1D2D3" d="M103.3,214.6c0,0,0.4,1.1,0,3c0,0.1,0,0.2-0.1,0.3c-0.4,2-33.4,0.5-34.4-0.9c0,0,0.8-2,2-3.3
			C70.8,213.6,77.7,216,103.3,214.6"/>
	</g>
	<g>
		<path fill="#00AFBA" d="M37.7,171.4c0,0,2.9,12.9,0.7,26.2c0,0,4.3-0.1,5.2-0.1c0.8,0,2.5-0.4,2.5-0.4s1.6-17.5-1.9-25.4
			L37.7,171.4z"/>
		<path fill="#C9362C" d="M45.1,207.8c22.3-5.8,19.8,5.8,19.8,5.8c-20.8,3.6-31.9-1-31.9-1c2.5-4,5.4-15.9,5.4-15.9
			c3.8,0.3,7.8-0.2,7.8-0.2C46.5,202,45.1,207.8,45.1,207.8"/>
		<path fill="#69131D" d="M42.3,210.5C42.3,210.5,42.3,210.5,42.3,210.5l15.1-0.6c0.3,0,0.5-0.2,0.5-0.5c0-0.3-0.2-0.5-0.5-0.5
			l-14.5,0.6l0.9-12.7c0-0.3-0.2-0.5-0.5-0.5c-0.3,0-0.5,0.2-0.5,0.5L41.8,210c0,0.1,0,0.3,0.1,0.4C42,210.5,42.1,210.5,42.3,210.5z
			"/>
		<path fill="#69131D" d="M52.4,210C52.4,210,52.4,210,52.4,210c0.3,0,0.5-0.3,0.5-0.6l-0.4-3.1c0-0.3-0.3-0.5-0.6-0.4
			c-0.3,0-0.5,0.3-0.4,0.6l0.4,3.1C51.9,209.8,52.1,210,52.4,210z"/>
		<path fill="#69131D" d="M47.6,210.3c0.2,0,0.5-0.2,0.5-0.4l0.4-2.7c0-0.3-0.2-0.5-0.4-0.6c-0.3,0-0.5,0.2-0.6,0.4l-0.4,2.7
			C47,210,47.2,210.3,47.6,210.3C47.5,210.3,47.5,210.3,47.6,210.3z"/>
		<path fill="#69131D" d="M43.1,200.2C43.1,200.2,43.2,200.2,43.1,200.2l3.1-0.1c0.3,0,0.5-0.2,0.5-0.5c0-0.3-0.2-0.5-0.5-0.5
			l-3.1,0.1c-0.3,0-0.5,0.2-0.5,0.5C42.7,200,42.9,200.2,43.1,200.2z"/>
		<path fill="#69131D" d="M42.7,204.5c0,0,0.1,0,0.1,0l3.2-0.7c0.3-0.1,0.4-0.3,0.4-0.6c-0.1-0.3-0.3-0.4-0.6-0.4l-3.2,0.7
			c-0.3,0.1-0.4,0.3-0.4,0.6C42.2,204.4,42.4,204.5,42.7,204.5z"/>
		<path fill="none" d="M45.1,207.8c22.3-5.8,19.8,5.8,19.8,5.8c-20.8,3.6-31.9-1-31.9-1c2.5-4,5.4-15.9,5.4-15.9
			c3.8,0.3,7.8-0.2,7.8-0.2C46.5,202,45.1,207.8,45.1,207.8"/>
		<path fill="#FFFFFF" d="M56.5,206.1L56.5,206.1c7.6,0.2,8.7,4.3,8.8,6.3v0c0,0.2,0,0.3,0,0.5c0,0,0,0,0,0c0,0.1,0,0.3,0,0.3
			c0,0,0,0,0,0c0,0,0,0.1,0,0.1c0,0,0,0,0,0c0,0,0,0.1,0,0.1c0,0,0,0,0,0c0,0,0,0,0,0.1c0,0,0,0,0,0c0,0,0,0.6,0,0.6
			c-1.8,0.3-5.4,0.8-9.6,0.7c0,0,0.5-1.9,0.8-4C56.7,208.7,56.6,207.6,56.5,206.1z"/>
		<path fill="#D1D2D3" d="M65.3,213.6c0,0,0.4,1.1,0,3c0,0.1,0,0.2-0.1,0.3c-0.4,2-33.4,0.5-34.4-0.9c0,0,0.8-2,2-3.3
			C32.8,212.6,39.7,215,65.3,213.6"/>
	</g>
	<g>
		<path fill="#00AFBA" d="M97.7,182.4c0,0,2.9,12.9,0.7,26.2c0,0,4.3-0.1,5.2-0.1c0.8,0,2.5-0.4,2.5-0.4s1.6-17.5-1.9-25.4
			L97.7,182.4z"/>
		<path fill="#C9362C" d="M105.1,218.8c22.3-5.8,19.8,5.8,19.8,5.8c-20.8,3.6-31.9-1-31.9-1c2.5-4,5.4-15.9,5.4-15.9
			c3.8,0.3,7.8-0.2,7.8-0.2C106.5,213,105.1,218.8,105.1,218.8"/>
		<path fill="#69131D" d="M102.3,221.5C102.3,221.5,102.3,221.5,102.3,221.5l15.1-0.6c0.3,0,0.5-0.2,0.5-0.5c0-0.3-0.2-0.5-0.5-0.5
			l-14.5,0.6l0.9-12.7c0-0.3-0.2-0.5-0.5-0.5c-0.3,0-0.5,0.2-0.5,0.5l-0.9,13.2c0,0.1,0,0.3,0.1,0.4
			C102,221.5,102.1,221.5,102.3,221.5z"/>
		<path fill="#69131D" d="M112.4,221C112.4,221,112.4,221,112.4,221c0.3,0,0.5-0.3,0.5-0.6l-0.4-3.1c0-0.3-0.3-0.5-0.6-0.4
			c-0.3,0-0.5,0.3-0.4,0.6l0.4,3.1C111.9,220.8,112.1,221,112.4,221z"/>
		<path fill="#69131D" d="M107.6,221.3c0.2,0,0.5-0.2,0.5-0.4l0.4-2.7c0-0.3-0.2-0.5-0.4-0.6c-0.3,0-0.5,0.2-0.6,0.4l-0.4,2.7
			C107,221,107.2,221.3,107.6,221.3C107.5,221.3,107.5,221.3,107.6,221.3z"/>
		<path fill="#69131D" d="M103.1,211.2C103.1,211.2,103.2,211.2,103.1,211.2l3.1-0.1c0.3,0,0.5-0.2,0.5-0.5c0-0.3-0.2-0.5-0.5-0.5
			l-3.1,0.1c-0.3,0-0.5,0.2-0.5,0.5C102.7,211,102.9,211.2,103.1,211.2z"/>
		<path fill="#69131D" d="M102.7,215.5c0,0,0.1,0,0.1,0l3.2-0.7c0.3-0.1,0.4-0.3,0.4-0.6c-0.1-0.3-0.3-0.4-0.6-0.4l-3.2,0.7
			c-0.3,0.1-0.4,0.3-0.4,0.6C102.2,215.4,102.4,215.5,102.7,215.5z"/>
		<path fill="none" d="M105.1,218.8c22.3-5.8,19.8,5.8,19.8,5.8c-20.8,3.6-31.9-1-31.9-1c2.5-4,5.4-15.9,5.4-15.9
			c3.8,0.3,7.8-0.2,7.8-0.2C106.5,213,105.1,218.8,105.1,218.8"/>
		<path fill="#FFFFFF" d="M116.5,217.1L116.5,217.1c7.6,0.2,8.7,4.3,8.8,6.3v0c0,0.2,0,0.3,0,0.5c0,0,0,0,0,0c0,0.1,0,0.3,0,0.3
			c0,0,0,0,0,0c0,0,0,0.1,0,0.1c0,0,0,0,0,0c0,0,0,0.1,0,0.1c0,0,0,0,0,0c0,0,0,0,0,0.1c0,0,0,0,0,0c0,0,0,0.6,0,0.6
			c-1.8,0.3-5.4,0.8-9.6,0.7c0,0,0.5-1.9,0.8-4C116.7,219.7,116.6,218.6,116.5,217.1z"/>
		<path fill="#D1D2D3" d="M125.3,224.6c0,0,0.4,1.1,0,3c0,0.1,0,0.2-0.1,0.3c-0.4,2-33.4,0.5-34.4-0.9c0,0,0.8-2,2-3.3
			C92.8,223.6,99.7,226,125.3,224.6"/>
	</g>
	<g>
		<path fill="#00AFBA" d="M57.7,182.4c0,0,2.9,12.9,0.7,26.2c0,0,4.3-0.1,5.2-0.1c0.8,0,2.5-0.4,2.5-0.4s1.6-17.5-1.9-25.4
			L57.7,182.4z"/>
		<path fill="#C9362C" d="M65.1,218.8c22.3-5.8,19.8,5.8,19.8,5.8c-20.8,3.6-31.9-1-31.9-1c2.5-4,5.4-15.9,5.4-15.9
			c3.8,0.3,7.8-0.2,7.8-0.2C66.5,213,65.1,218.8,65.1,218.8"/>
		<path fill="#69131D" d="M62.3,221.5C62.3,221.5,62.3,221.5,62.3,221.5l15.1-0.6c0.3,0,0.5-0.2,0.5-0.5c0-0.3-0.2-0.5-0.5-0.5
			l-14.5,0.6l0.9-12.7c0-0.3-0.2-0.5-0.5-0.5c-0.3,0-0.5,0.2-0.5,0.5L61.8,221c0,0.1,0,0.3,0.1,0.4C62,221.5,62.1,221.5,62.3,221.5z
			"/>
		<path fill="#69131D" d="M72.4,221C72.4,221,72.4,221,72.4,221c0.3,0,0.5-0.3,0.5-0.6l-0.4-3.1c0-0.3-0.3-0.5-0.6-0.4
			c-0.3,0-0.5,0.3-0.4,0.6l0.4,3.1C71.9,220.8,72.1,221,72.4,221z"/>
		<path fill="#69131D" d="M67.6,221.3c0.2,0,0.5-0.2,0.5-0.4l0.4-2.7c0-0.3-0.2-0.5-0.4-0.6c-0.3,0-0.5,0.2-0.6,0.4l-0.4,2.7
			C67,221,67.2,221.3,67.6,221.3C67.5,221.3,67.5,221.3,67.6,221.3z"/>
		<path fill="#69131D" d="M63.1,211.2C63.1,211.2,63.2,211.2,63.1,211.2l3.1-0.1c0.3,0,0.5-0.2,0.5-0.5c0-0.3-0.2-0.5-0.5-0.5
			l-3.1,0.1c-0.3,0-0.5,0.2-0.5,0.5C62.7,211,62.9,211.2,63.1,211.2z"/>
		<path fill="#69131D" d="M62.7,215.5c0,0,0.1,0,0.1,0l3.2-0.7c0.3-0.1,0.4-0.3,0.4-0.6c-0.1-0.3-0.3-0.4-0.6-0.4l-3.2,0.7
			c-0.3,0.1-0.4,0.3-0.4,0.6C62.2,215.4,62.4,215.5,62.7,215.5z"/>
		<path fill="none" d="M65.1,218.8c22.3-5.8,19.8,5.8,19.8,5.8c-20.8,3.6-31.9-1-31.9-1c2.5-4,5.4-15.9,5.4-15.9
			c3.8,0.3,7.8-0.2,7.8-0.2C66.5,213,65.1,218.8,65.1,218.8"/>
		<path fill="#FFFFFF" d="M76.5,217.1L76.5,217.1c7.6,0.2,8.7,4.3,8.8,6.3v0c0,0.2,0,0.3,0,0.5c0,0,0,0,0,0c0,0.1,0,0.3,0,0.3
			c0,0,0,0,0,0c0,0,0,0.1,0,0.1c0,0,0,0,0,0c0,0,0,0.1,0,0.1c0,0,0,0,0,0c0,0,0,0,0,0.1c0,0,0,0,0,0c0,0,0,0.6,0,0.6
			c-1.8,0.3-5.4,0.8-9.6,0.7c0,0,0.5-1.9,0.8-4C76.7,219.7,76.6,218.6,76.5,217.1z"/>
		<path fill="#D1D2D3" d="M85.3,224.6c0,0,0.4,1.1,0,3c0,0.1,0,0.2-0.1,0.3c-0.4,2-33.4,0.5-34.4-0.9c0,0,0.8-2,2-3.3
			C52.8,223.6,59.7,226,85.3,224.6"/>
	</g>
	<g>
		<path fill="#00AFBA" d="M19.7,181.4c0,0,2.9,12.9,0.7,26.2c0,0,4.3-0.1,5.2-0.1c0.8,0,2.5-0.4,2.5-0.4s1.6-17.5-1.9-25.4
			L19.7,181.4z"/>
		<path fill="#C9362C" d="M27.1,217.8c22.3-5.8,19.8,5.8,19.8,5.8c-20.8,3.6-31.9-1-31.9-1c2.5-4,5.4-15.9,5.4-15.9
			c3.8,0.3,7.8-0.2,7.8-0.2C28.5,212,27.1,217.8,27.1,217.8"/>
		<path fill="#69131D" d="M24.3,220.5C24.3,220.5,24.3,220.5,24.3,220.5l15.1-0.6c0.3,0,0.5-0.2,0.5-0.5c0-0.3-0.2-0.5-0.5-0.5
			l-14.5,0.6l0.9-12.7c0-0.3-0.2-0.5-0.5-0.5c-0.3,0-0.5,0.2-0.5,0.5L23.8,220c0,0.1,0,0.3,0.1,0.4C24,220.5,24.1,220.5,24.3,220.5z
			"/>
		<path fill="#69131D" d="M34.4,220C34.4,220,34.4,220,34.4,220c0.3,0,0.5-0.3,0.5-0.6l-0.4-3.1c0-0.3-0.3-0.5-0.6-0.4
			c-0.3,0-0.5,0.3-0.4,0.6l0.4,3.1C33.9,219.8,34.1,220,34.4,220z"/>
		<path fill="#69131D" d="M29.6,220.3c0.2,0,0.5-0.2,0.5-0.4l0.4-2.7c0-0.3-0.2-0.5-0.4-0.6c-0.3,0-0.5,0.2-0.6,0.4l-0.4,2.7
			C29,220,29.2,220.3,29.6,220.3C29.5,220.3,29.5,220.3,29.6,220.3z"/>
		<path fill="#69131D" d="M25.1,210.2C25.1,210.2,25.2,210.2,25.1,210.2l3.1-0.1c0.3,0,0.5-0.2,0.5-0.5c0-0.3-0.2-0.5-0.5-0.5
			l-3.1,0.1c-0.3,0-0.5,0.2-0.5,0.5C24.7,210,24.9,210.2,25.1,210.2z"/>
		<path fill="#69131D" d="M24.7,214.5c0,0,0.1,0,0.1,0l3.2-0.7c0.3-0.1,0.4-0.3,0.4-0.6c-0.1-0.3-0.3-0.4-0.6-0.4l-3.2,0.7
			c-0.3,0.1-0.4,0.3-0.4,0.6C24.2,214.4,24.4,214.5,24.7,214.5z"/>
		<path fill="none" d="M27.1,217.8c22.3-5.8,19.8,5.8,19.8,5.8c-20.8,3.6-31.9-1-31.9-1c2.5-4,5.4-15.9,5.4-15.9
			c3.8,0.3,7.8-0.2,7.8-0.2C28.5,212,27.1,217.8,27.1,217.8"/>
		<path fill="#FFFFFF" d="M38.5,216.1L38.5,216.1c7.6,0.2,8.7,4.3,8.8,6.3v0c0,0.2,0,0.3,0,0.5c0,0,0,0,0,0c0,0.1,0,0.3,0,0.3
			c0,0,0,0,0,0c0,0,0,0.1,0,0.1c0,0,0,0,0,0c0,0,0,0.1,0,0.1c0,0,0,0,0,0c0,0,0,0,0,0.1c0,0,0,0,0,0c0,0,0,0.6,0,0.6
			c-1.8,0.3-5.4,0.8-9.6,0.7c0,0,0.5-1.9,0.8-4C38.7,218.7,38.6,217.6,38.5,216.1z"/>
		<path fill="#D1D2D3" d="M47.3,223.6c0,0,0.4,1.1,0,3c0,0.1,0,0.2-0.1,0.3c-0.4,2-33.4,0.5-34.4-0.9c0,0,0.8-2,2-3.3
			C14.8,222.6,21.7,225,47.3,223.6"/>
	</g>
	<g>
		<path fill="#F1F3F4" d="M118.5,121.4c0,0,7.4,17.6,13.3,18.7c5.9,1,9.2-1.3,9.2-1.3l0.5,6.9c0,0-5.9,6.6-15.6,1.3
			c-9.7-5.4-11-22-11-22L118.5,121.4z"/>
		<path fill="#FFD25F" d="M132.3,137.8l2.3,14.6c0,0,3.6-1.3,8.7-4.6c5.1-3.3,10.5-9,10.5-9s6.7,8.4,8.4,6.6
			c1.8-1.8-4.9-9.2-4.9-9.2s12,6.1,12,3.1c0-3.1-11.8-7.9-11.8-7.9s9.2,0.3,9-1.8c-0.3-2-9-3.1-11.3-2.6c-3.9,0.9-5.1,3.1-5.1,3.1
			s1-9.5-0.5-9.7c-1.5-0.3-3.1,2.3-3.6,5.6c-0.5,3.3,0.5,6.9,0.5,6.9s-2.6,3.3-6.1,4.3C136.9,138.3,132.3,137.8,132.3,137.8z"/>
	</g>
	<g>
		<path fill="#F1F3F4" d="M102.2,116.7c8.4,0.4,19.6-1.9,19.6-1.9c0,0.4-2.2,15.8-2.2,16.2c0.7,24.7,13.3,55.8,13.3,55.8
			c-6.6,1.9-25.5,2.4-25.5,2.4l-1.6-8.2l-2.1,10.4c0,0-32.6,2.2-46,2c-36.7-0.7-42-7.3-42-7.3s4.3-8.7,5-11.9
			c2.2-9.8-0.3-15.4,2.3-21.8c2.6-6.5,12.8-7.2,18-7c5.2,0.2,16.3,2.1,16.3,2.1c3.8-3.1,7.7-1.8,7.7-1.8c5.3-18.5,8.8-32.7,8.8-32.7
			S86.8,117.8,102.2,116.7"/>
		<path fill="#CAD5DA" d="M104.2,124.3c0,0-0.3,3.5-0.4,8.7c-0.1,2.6-0.1,5.6-0.1,8.9c0,1.6,0,3.3,0,5c0,1.7,0,3.4,0.1,5.2
			c0,1.7,0.1,3.5,0.1,5.2c0,1.7,0.1,3.4,0.2,5c0.1,3.2,0.3,6.3,0.5,8.8c0.3,5.2,0.8,8.6,0.8,8.6s0.3-3.5,0.4-8.7
			c0.1-2.6,0.1-5.6,0.1-8.9c0-1.6,0-3.3,0-5c0-1.7,0-3.4-0.1-5.2c0-1.7-0.1-3.5-0.1-5.2c0-1.7-0.1-3.4-0.2-5
			c-0.1-3.2-0.3-6.3-0.5-8.8C104.6,127.8,104.2,124.3,104.2,124.3z"/>
		<path fill="#CAD5DA" d="M71.3,177.7l-1.5-18l21.7-1.2l1.2,17.4l-11.3,4.9L71.3,177.7z M90.6,159.5l-19.7,1.1l1.4,16.3l9.1,2.8
			l10.3-4.4L90.6,159.5z"/>
		
			<rect x="71.2" y="165.7" transform="matrix(0.9984 -5.705300e-002 5.705300e-002 0.9984 -9.352 4.9157)" fill="#CAD5DA" width="20.4" height="1"/>
		<circle fill="#CAD5DA" cx="98.8" cy="136" r="2.9"/>
		<circle fill="#CAD5DA" cx="98.8" cy="155" r="2.9"/>
		<path fill="#CAD5DA" d="M125.7,165.6c0.3,0,0.5-0.2,0.5-0.5c0-0.3-0.2-0.5-0.5-0.5l-9.8-0.5c-0.3,0-0.5,0.2-0.5,0.5
			c0,0.3,0.2,0.5,0.5,0.5L125.7,165.6C125.7,165.6,125.7,165.6,125.7,165.6z"/>
		<path fill="none" d="M102.2,116.7c8.4,0.4,19.6-1.9,19.6-1.9c0,0.4-2.2,15.8-2.2,16.2c0.7,24.7,13.3,55.8,13.3,55.8
			c-6.6,1.9-25.5,2.4-25.5,2.4l-1.6-8.2l-2.1,10.4c0,0-32.6,2.2-46,2c-36.7-0.7-42-7.3-42-7.3s4.3-8.7,5-11.9
			c2.2-9.8-0.3-15.4,2.3-21.8c2.6-6.5,12.8-7.2,18-7c5.2,0.2,16.3,2.1,16.3,2.1c3.8-3.1,7.7-1.8,7.7-1.8c5.3-18.5,8.8-32.7,8.8-32.7
			S86.8,117.8,102.2,116.7"/>
		<path fill="#CAD5DA" d="M20.8,174.2c0,0,0.2-0.6,0.6-1.8c0.1-0.6,0.3-1.3,0.5-2.1c0.2-0.8,0.3-1.7,0.4-2.7c0.1-1,0.2-2.1,0.3-3.2
			c0.1-1.2,0.1-2.4,0.1-3.6c0-1.2,0.1-2.5,0.3-3.7c0.1-1.2,0.4-2.5,0.8-3.6l0.2-0.4l0.1-0.2l0-0.1c0-0.1,0,0.1,0,0.1l0,0l0,0
			l0.1-0.1l0.4-0.9c0.3-0.5,0.6-0.9,1-1.3c0.4-0.4,0.9-0.8,1.3-1.2c0.5-0.3,1-0.7,1.5-0.9c1-0.6,2.1-1,3.2-1.3
			c1.1-0.3,2.1-0.6,3-0.8c1-0.2,1.9-0.3,2.6-0.5c0.8-0.1,1.5-0.2,2.1-0.3c1.2-0.1,1.8-0.2,1.8-0.2s-0.2,0-0.5-0.1
			c-0.3,0-0.8-0.1-1.4-0.2c-0.6,0-1.3-0.1-2.1-0.1c-0.8,0-1.7,0-2.8,0.1c-1,0.1-2.1,0.2-3.3,0.5c-1.1,0.3-2.4,0.6-3.6,1.2
			c-1.2,0.5-2.4,1.3-3.4,2.3c-0.5,0.5-1,1.2-1.4,1.8l-0.5,0.9l-0.1,0.1l-0.1,0.1l0,0.1l-0.1,0.2l-0.2,0.5c-0.4,1.3-0.7,2.7-0.9,4.1
			c-0.1,1.4-0.1,2.7-0.1,3.9c0,1.3,0.1,2.5,0.2,3.6c0,1.1,0.1,2.2,0.1,3.2c0,1,0,1.9-0.1,2.7c0,0.8-0.1,1.5-0.1,2.1
			C20.9,173.6,20.8,174.2,20.8,174.2z"/>
		<path fill="#CAD5DA" d="M124,178.7l5.4-1.8c0.3-0.1,0.4-0.4,0.3-0.6c-0.1-0.3-0.4-0.4-0.6-0.3l-5,1.7l-8.2-3.5l0.4-15.3l7.7,0.4
			c0.3,0,0.5-0.2,0.5-0.5c0-0.3-0.2-0.5-0.5-0.5l-8.8-0.5l-0.4,17L124,178.7z"/>
	</g>
	<g>
		<path fill="#F1F3F4" d="M51.8,134.8c4.4-10.2,20.7-12.1,20.7-12.1l0.3,6.1c0,0-13.1,5.2-13.5,11.2c-0.4,6,2.2,9,2.2,9l-6.8,1.2
			C54.5,150.2,47.4,145,51.8,134.8z"/>
		<path fill="#FFD25F" d="M60.4,139.5l-14.1,4.2c0,0,1.7,3.4,5.7,8c4,4.6,10.3,9.2,10.3,9.2s-7.5,7.7-5.5,9.3c2,1.5,8.5-6.1,8.5-6.1
			s-4.5,12.7-1.4,12.3c3-0.4,6.3-12.7,6.3-12.7s1,9.2,3,8.6c2-0.5,1.8-9.3,1-11.5c-1.4-3.7-3.7-4.7-3.7-4.7s9.5-0.3,9.6-1.8
			c0-1.6-2.7-2.7-6.1-2.8c-3.4-0.1-6.8,1.4-6.8,1.4s-3.6-2.1-5.1-5.5C60.5,144.2,60.4,139.5,60.4,139.5z"/>
	</g>
	<g>
		<path fill="#8DD3D5" d="M169.9,65.7c-1.2-2-16.8,0.3-28.3,6.8c-11.5,6.4-13.1,12.4-13.1,12.4l1.4,9.4c0,0,14.5,0.3,24.3-4.8
			C164.2,84.3,171.1,67.7,169.9,65.7z"/>
		<path fill="#00AFBA" d="M142.5,88.5c-0.8-5.3-4.6-3.8-4.6-3.8s7.7-8.3,18.6-12.3c4.5-1.7,9.1-2.7,12.9-3.4
			c-1.7,5.7-7.6,16.4-15.2,20.3c-3.9,2-8.6,3.2-12.8,3.9C142.3,91.9,142.8,90.2,142.5,88.5z"/>
	</g>
	<g>
		<path fill="#8DD3D5" d="M14.4,65.6c2.1-2.1,24.6-0.1,40.4,6.3c15.8,6.4,18.8,25.3,18.8,25.3l-5.5-2.8c0,0-21.3,0.7-35-4.4
			C19.5,85,12.3,67.8,14.4,65.6z"/>
		<path fill="#00AFBA" d="M50.5,88.8c2.1-5.6,7.4-4.1,7.4-4.1s-9.9-8.4-25.2-12.4c-6.4-1.6-12.9-2.6-18.4-3.2
			c1.6,5.9,8.2,17,18.7,20.9c5.4,2,12.1,3.1,18.1,3.7C50.3,92.3,49.9,90.6,50.5,88.8z"/>
	</g>
	<path fill="#8DD3D5" d="M134.2,67.5c0,0-12.2-7.7-43-5.9c-30.8,1.8-36.6,11.9-36.6,11.9s17.1,52.9,49.2,48
		C135.8,116.5,134.2,67.5,134.2,67.5z"/>
	<g>
		
			<ellipse transform="matrix(0.9972 -7.473645e-002 7.473645e-002 0.9972 -6.2535 9.3465)" fill="#FFFFFF" cx="121.8" cy="88.2" rx="6.1" ry="6.7"/>
		
			<ellipse transform="matrix(0.9972 -7.471367e-002 7.471367e-002 0.9972 -6.3203 9.2038)" fill="#00313B" cx="119.9" cy="89.1" rx="2.4" ry="2.6"/>
		
			<ellipse transform="matrix(0.9972 -7.461344e-002 7.461344e-002 0.9972 -6.3058 6.7789)" fill="#FFFFFF" cx="87.6" cy="87.8" rx="6.1" ry="6.7"/>
		
			<ellipse transform="matrix(0.9972 -7.471367e-002 7.471367e-002 0.9972 -6.414 6.6988)" fill="#00313B" cx="86.3" cy="89.1" rx="2.4" ry="2.6"/>
	</g>
	<path fill="#FFFFFF" d="M109.9,77.5c0,0-1.6-2.9,1.3-8.6c2.9-5.7,12.1-9.6,12.1-9.6l-0.3,3.8c0,0,4.2-2,10.3-1.3
		c6.1,0.6,9.2,2.6,9.2,2.6l-4,13.6L109.9,77.5z"/>
	<path fill="#FFFFFF" d="M99.1,77.7c0,0,1.7-2.8-0.8-8.6c-2.5-5.8-11.6-10.3-11.6-10.3l0.1,3.9c0,0-4.1-2.2-10.2-1.9
		c-6.1,0.3-9.3,2.1-9.3,2.1l3.3,13.8L99.1,77.7z"/>
	<path fill="#C9E0E4" d="M134.2,65.5c-1.2,0.1-2.4,0.5-3.5,1.1c-1.7,0.8-3.1,2-4.3,3.3c-0.6,0.7-1.2,1.4-1.7,2.2
		c-0.2,0.3-1.2,2.4-1.4,2.4l1.3-0.1c-1.2-2.1-2.8-4.3-3.2-6.8c-0.1-0.8-0.2-1.7,0-2.5c-0.4,0.8-0.6,1.7-0.6,2.6
		c-0.1,2.6,1.3,5.3,2.6,7.5c0.2,0.3,0.4,0.9,0.7,1.1c0.8-1.3,1.4-2.7,2.3-3.9c1.4-1.9,2.9-3.7,4.8-5.1
		C132.1,66.6,133.1,66,134.2,65.5z"/>
	<path fill="#C9E0E4" d="M76.4,67.6c2.2,0.6,4.3,1.7,6.1,3.1c0.9,0.7,1.8,1.5,2.5,2.3c0.8,0.8,1.4,1.9,2.2,2.7l0.8,1.1l0.5-1.2
		c0.7-1.7,1.3-3.5,1.5-5.3c0.1-0.8,0.1-1.7-0.1-2.6c-0.1-0.4-0.2-0.9-0.4-1.3c-0.1-0.4-0.5-0.7-0.6-1.1c1,3.3-0.6,6.7-1.8,9.7
		c0.4,0,0.9-0.1,1.3-0.1c-0.4-0.5-0.7-1-1.1-1.5C84.7,70.2,80.7,67.5,76.4,67.6z"/>
	<path fill="#00313B" d="M106.6,84.9c2.7,0.1,4.4,2.3,4.4,2.3l-0.1,6.1l-9.6,0.2l-1.3-7.4C100.1,86.2,104,84.9,106.6,84.9z"/>
	<polygon opacity="0.3" fill="#A5DCDF" points="138.5,78 131.6,76.1 112.2,77.6 111,98.7 125.1,101.3 139.7,99 	"/>
	<polygon opacity="0.3" fill="#A5DCDF" points="98.3,77.4 91.4,75.5 72,77 70.8,98.2 84.9,100.7 99.4,98.4 	"/>
	<path fill="#00313B" d="M110.1,75.3c-1.1,0.2-2,1.2-2,2.1c0,7.2-0.1,14.3-0.1,21.5c0,0.9,0.9,1.9,2,2.1c9.9,2,20.2,2,30.1,0.1
		c1.1-0.2,2-1.2,2-2.1c0-7.2,0.1-14.3,0.1-21.5c0-0.9-0.9-1.9-2-2.1C130.3,73.4,120,73.4,110.1,75.3z M113.2,80.7c0-1,0.9-1.9,2.1-2
		c6.5-0.6,13.2-0.5,19.7,0.1c1.1,0.1,2.1,1,2.1,2c0,5,0,10-0.1,15c0,1-0.9,1.9-2.1,2c-6.5,0.6-13.2,0.5-19.7-0.1
		c-1.1-0.1-2.1-1-2.1-2C113.2,90.7,113.2,85.7,113.2,80.7z"/>
	<path fill="#00313B" d="M69.9,74.7c-1.1,0.2-2,1.2-2,2.1c0,7.2-0.1,14.3-0.1,21.5c0,0.9,0.9,1.9,2,2.1c9.9,2,20.2,2,30.1,0.1
		c1.1-0.2,2-1.2,2-2.1c0-7.2,0.1-14.3,0.1-21.5c0-0.9-0.9-1.9-2-2.1C90,72.9,79.7,72.8,69.9,74.7z M73,80.2c0-1,0.9-1.9,2.1-2
		c6.5-0.6,13.2-0.5,19.7,0.1c1.1,0.1,2.1,1,2.1,2c0,5,0,10-0.1,15c0,1-0.9,1.9-2.1,2c-6.5,0.6-13.2,0.5-19.7-0.1
		c-1.1-0.1-2.1-1-2.1-2C72.9,90.1,72.9,85.1,73,80.2z"/>
	<path fill="#E2E5E7" d="M134.5,105.7c0,0-6.9-4.8-16.6-6.1c-9.6-1.3-26.2-1.7-34.6,2.5c-8.4,4.2-16.3,16.8-12.8,30.4l2.3-0.6
		l11.3-2.7l2.9-10.7l1.5,8.4l8.4-0.6c0,0,1.3-4.2,0.8-6.9c0,0,2.7,5.2,2.7,6.5l15.5,1c0,0,1-6.1,0-10.3c0,0,4.8,6.5,4.8,11.7
		l14.5,3.6c0,0,4-7.8,0.4-16.6c0,0,4.8,4.6,5.2,7.8C141,123.1,142.2,115.2,134.5,105.7z"/>
	<path fill="#7EA6B3" d="M111.7,100.7c0.8-0.1,2.5,1.1,3.1,1.5c1.5,0.9,3,1.9,4.3,3.2c2.1,2,3.8,4.2,5.5,6.6
		c0.7,1.1,1.5,2.1,2.2,3.2c0.3,0.4,1.1,1.1,1.1,1.6c0,0-0.3-1.5-1.1-3.6c-2.4-5.8-7.3-12-14.1-12.5
		C112.1,100.6,111.7,100.7,111.7,100.7z"/>
	<path fill="#7EA6B3" d="M106.6,101.6c0.7,0.2,1.7,2.1,2,2.7c0.8,1.4,1.5,2.8,2,4.3c1.2,3.3,1.6,6.8,2.4,10.2
		c-0.1-0.4,0.2-1,0.3-1.4c0.3-2.1,0.4-4.2,0.1-6.2c-0.7-3.6-2.7-7.6-6.1-9.3C106.9,101.6,106.6,101.6,106.6,101.6z"/>
	<path fill="#7EA6B3" d="M103.3,101.9c0,0-0.4,0-1.1,0c-0.7,0.1-1.6,0.2-2.7,0.6c-3.6,1.2-6.5,3.8-8.6,6.9c-1.1,1.6-1.8,3.2-2.5,5
		c-0.3,0.9-0.7,1.8-0.9,2.7c-0.1,0.3-0.1,0.9-0.3,1.1c3.7-5.3,7.1-11.2,12.8-14.7C101.8,102.4,103.3,101.9,103.3,101.9z"/>
	<path fill="#7EA6B3" d="M107.1,101.4c0,0-0.3,0.1-0.8,0.3c-3.1,1.4-5.1,4.4-6.1,7.6c-0.5,1.6-0.8,3.3-0.8,5c0,0.8,0,1.7,0.1,2.5
		c0,0.4,0.4,1.3,0.3,1.6c1.5-5,2.2-10.4,5.4-14.7C106.2,102.3,107.1,101.4,107.1,101.4z"/>
	<path fill="#00AFBA" d="M97.1,98.4c0.3,4,4.3,7.8,9.3,7.5c5-0.4,9.2-4.8,8.9-8.8c-0.3-4-4.6-7-9.6-6.6
		C100.6,90.8,96.7,94.3,97.1,98.4z"/>
</g>
</svg>
