<?xml version="1.0" encoding="utf-8"?>
<!-- Generator: Adobe Illustrator 22.0.1, SVG Export Plug-In . SVG Version: 6.00 Build 0)  -->
<!DOCTYPE svg PUBLIC "-//W3C//DTD SVG 1.1//EN" "http://www.w3.org/Graphics/SVG/1.1/DTD/svg11.dtd">
<svg version="1.1" xmlns="http://www.w3.org/2000/svg" xmlns:xlink="http://www.w3.org/1999/xlink" x="0px" y="0px"
	 viewBox="0 0 100 116" style="enable-background:new 0 0 100 116;" xml:space="preserve" width="100" height="116" preserveAspectRatio="none">
<style type="text/css">
	.st0{fill:#F1729A;}
	.st1{fill:#4EA146;}
	.st2{opacity:0.1;fill:#384E7D;}
	.st3{fill:#340100;}
	.st4{fill:#80C342;}
	.st5{fill:#00722D;}
	.st6{fill:#C2105D;}
	.st7{fill:#EFEADA;}
	.st8{fill:#52677D;}
	.st9{fill:#C8DCD8;}
	.st10{fill:#CD4385;}
	.st11{fill:#8B2A5D;}
	.st12{fill:#FFE98B;}
	.st13{opacity:0.1;}
	.st14{fill:#384E7D;}
	.st15{fill:#C3105D;}
	.st16{fill:#A59E57;}
	.st17{fill:#A44386;}
	.st18{fill:#FFDA30;}
	.st19{fill:#F57E20;}
	.st20{fill:#F9ED32;}
	.st21{fill:#7B2E90;}
	.st22{fill:#2C1647;}
	.st23{fill:none;}
	.st24{fill:#7D0052;}
	.st25{fill:#FFFFFF;}
</style>
<g id="Lizzie_Cast_Shadow">
</g>
<g id="Lizzie_Left_Horn">
</g>
<g id="Lizzie_Tail">
</g>
<g id="Layer_24">
</g>
<g id="Lizzie_Right_Leg">
</g>
<g id="Lizzie_Left_Leg">
</g>
<g id="Lizzie_Wings">
</g>
<g id="Lizzie_Right_Horn">
</g>
<g id="Lizzie_Left_Ear">
</g>
<g id="Lizzie_Right_Ear">
</g>
<g id="Lizzie_Right_Arm">
</g>
<g id="Lizzie_Left_Arm">
</g>
<g id="Lizzie_3rd_grade_Dress">
</g>
<g id="Lizzie_4th_Grade_Dress">
</g>
<g id="Lizzie_5th_Grade_Dress">
</g>
<g id="Lizzie_Head">
</g>
<g id="Lizzie_3rd_Grade_Bow">
</g>
<g id="Lizzie_4th_Grade_Flowers">
</g>
<g id="Lizzie_Glasses">
</g>
<g id="Lizzie_5th_Grade_headband">
</g>
<g id="LIzzie_Eyes">
</g>
<g id="Lizzie_Snout">
</g>
<g id="Lizzie_Mouth">
	<g>
		<path class="st2" d="M7.8,98c0,0,4.1,3,11.7,4.8c1,0.3,2.4,0.5,3.9,0.6c6.4-1,14.9-1.7,24.2-1.7c19.9,0,36,2.9,36,6.4
			c0,3.5-16.1,6.4-36,6.4c-19.9,0-36-2.9-36-6.4c0-0.5,0.3-0.9,0.8-1.3c-1.5-1.1-3.2-2.5-4.3-3.9C4.7,99,7.8,98,7.8,98z"/>
		<g>
			<path class="st0" d="M70.8,66.9c0,0-7,3.1-7.2,3c-0.2-0.1-7.4-1.3-7.4-1.3l-2-3.5l2.5-2.1c0,0,6.9-2.2,7.1-2.4
				c0.2-0.1,4.3-1.1,4.7-1c0.4,0.1,5.3,4.1,5.3,4.1L70.8,66.9z"/>
			<g>
				<path class="st1" d="M68.1,58.6l-14.7,4.1l0.4,2.1l14.1-4.7c0,0,5.2,2.3,7.5,8.3C74.9,61.7,68.1,58.6,68.1,58.6z"/>
			</g>
			<g>
				<path class="st6" d="M67.9,60.8c0.3,1,0.3,2,0.2,3c-0.1,1-0.4,2-1,2.9c0.1-0.5,0.2-1,0.3-1.5c0.1-0.5,0.2-1,0.2-1.5
					C67.7,62.8,67.8,61.8,67.9,60.8z"/>
			</g>
		</g>
		<path class="st0" d="M24,62.6L22.8,65c0,0,1.5-1.4,3.7-1.2c2.2,0.3,4.6,2.6,4.6,2.6h9c0,0,1.9-1.7,1.9-2c0-0.3,0-1.9,0-1.9
			L35,58.7c0,0-3.8-1.4-4-1.3C30.8,57.5,24.2,61.8,24,62.6z"/>
		<g>
			<path class="st1" d="M31.4,56.6l14,6.2l-0.7,2l-13.2-6.7c0,0-5.5,1.5-8.6,7.1C24.2,58.6,31.4,56.6,31.4,56.6z"/>
		</g>
		<g>
			<path class="st6" d="M31.3,59.1c-0.4,1.1-0.7,2.2-0.7,3.3c0,0.6,0,1.1,0,1.7c0,0.6,0.1,1.1,0.2,1.7c-0.3-0.5-0.5-1.1-0.6-1.6
				C30,63.5,30,62.9,30,62.3c0-0.6,0.2-1.2,0.4-1.7C30.6,60.1,30.9,59.5,31.3,59.1z"/>
		</g>
		<path class="st3" d="M16.4,89.4c0,0,1.8-4.1,3.1-4.4c1.1-0.3,4.5,2.1,5.1,2.6l0.1,0.3L17,90.6l-0.6-0.1l-0.3-1.1L16.4,89.4z"/>
		<path class="st3" d="M7.8,87.2c1.4-0.2,3.7,4.1,3.7,4.1l1.2-0.1l0.3,1.3l-8.6-1.8C4.5,90.7,6.4,87.4,7.8,87.2z"/>
		<path class="st4" d="M45.1,75.1c0,0-17.4,13-27.9,14.6c-10.4,1.6-14.9-0.4-15.9,1c-0.7,0.9,5.8,8.3,25.4,8.9
			c10.5,0.3,16.5-7.2,16.5-7.2L45.1,75.1z"/>
		<path class="st0" d="M47.1,92.2c0,0-7.5,6.5-20,7.6c-10.5,0.9-21.7-4-24.5-7.1c0.6,0,1.2,0.2,1.9,0.3c4.8,0.4,7.4,3.4,7.4,3.4
			s-1.1-3.1,2.8-3.7c3.9-0.6,8,3.9,8,3.9s2.6-6.5,7.4-8.5c6.2-2.6,9.7-1.6,13.6-1.4L47.1,92.2z"/>
		<g>
			<path class="st3" d="M32.7,105.8c0,0-2.2,1.8-1.7,2.3c0.5,0.5,5.6-1.3,5.6-1.3s-1.6,3.3-0.5,3.1c1.1-0.2,4.5-2.7,4.5-2.7
				s0.5,2.8,1.4,2.6c0.9-0.2,4-3.5,4-3.5L32.7,105.8z"/>
			<path class="st4" d="M36.7,87.1c-2.1,6-4.1,11.5-4.3,18.6c1.8,3.8,11.5,3.5,15.8,0.6l-1.9-18.7L36.7,87.1z"/>
		</g>
		<g>
			<path class="st3" d="M65.5,106.1c0,0,2.2,1.8,1.7,2.3c-0.5,0.5-5.6-1.3-5.6-1.3s1.6,3.3,0.5,3.1c-1.1-0.2-4.5-2.7-4.5-2.7
				s-0.5,2.8-1.4,2.6c-0.9-0.2-4-3.5-4-3.5L65.5,106.1z"/>
			<path class="st4" d="M61.4,87.4c2.1,6,4.1,11.5,4.3,18.6c-1.8,3.8-11.5,3.5-15.8,0.6l1.9-18.7L61.4,87.4z"/>
		</g>
		<g>
			<path class="st3" d="M29.3,75.8c0,0,0.8,3.3,0.3,3.9c-0.5,0.6-4.1-0.4-4.1-0.4s-3.5,3.3-4.4,3.2c-0.8-0.1-1.5-3.2-1.5-3.2
				S16.2,79.8,16,79c-0.2-0.8,1.4-3.2,1.4-3.2s-2.9-2-2.8-2.7c0.1-0.7,4.5-2,4.5-2L29.3,75.8z"/>
			<path class="st4" d="M41.8,66.5c0,0-5.3,0.7-8.5,4c-3.3,3.3-4.3,10.1-9.5,9.9c-5.2-0.2-7.5-4.9-6-8.5C25.2,59.4,42.1,63,42.1,63
				L41.8,66.5z"/>
			<path class="st20" d="M35.3,68.8c0,0-1.7-6.2-1.2-6.2c4.5-0.4,8,0.4,8,0.4l-0.3,3.5C41.8,66.5,38.3,66.9,35.3,68.8z"/>
			<path class="st21" d="M34.3,62.5c0,0-3-1-3.3-0.4c-0.6,1,2.8,2.5,2.8,2.5s-2.5,0.8-2.2,1.7c0.4,1,2.6,0.5,2.6,0.5
				s-1.5,2.3-1.2,3.4c0.2,0.8,2.7-1.7,2.7-1.7L34.3,62.5z"/>
		</g>
		<g>
			<path class="st3" d="M73.3,61.4c0,0,0.4-3.5,1.1-3.7c0.7-0.3,3,1.5,3,1.5s4.7-1.1,5.4-0.6c0.7,0.5-1.1,3.4-1.1,3.4s4,1.4,3.9,2.3
				c-0.2,0.8-2.8,2.1-2.8,2.1s1.5,3.2,1,3.7c-0.4,0.6-4.9-0.5-4.9-0.5L73.3,61.4z"/>
			<path class="st4" d="M54.9,63.3c0,0,7,3.7,12.2,2.2c5.7-1.6,6.6-8.6,11.8-6.8c5.3,1.7,5.7,13-3.2,16C65.3,78.1,57,68.9,57,68.9
				L54.9,63.3z"/>
			<path class="st20" d="M62.9,65.8c-0.3,0.9-0.6,2-0.8,3.1c-0.3,1.2,0,2.9,0.4,4.2c-3.4-1.9-5.5-4.2-5.5-4.2l-1.6-4.3L55,63.3
				C55.7,63.7,59.2,65.4,62.9,65.8z"/>
			<path class="st21" d="M62.6,65.7c0,0,3.8-1.2,4.1-0.6c0.3,0.5-3,2.6-3,2.6s3.9,0.9,3.2,2.3c-0.7,1.4-3.5,0.7-3.5,0.7
				s2.9,2.5,2.4,3.5c-0.5,1-3.3-1.1-3.3-1.1S60.8,71,62.6,65.7z"/>
		</g>
		<path class="st8" d="M55.6,58.7c0,0,3.6,9.9,6.1,15.9c2.5,6,6.6,14.6,6.6,14.6s-5.7,3.4-19.4,5.1c-13.9,1.7-20.5-2.2-20.5-2.2
			s3.7-13.8,8.1-21.7c4.4-7.8,7.8-12.9,7.8-12.9L55.6,58.7z"/>
		<path class="st4" d="M41.8,61.3c1.5-2.5,2.5-3.9,2.5-3.9l11.3,1.3c0,0,0.6,1.6,1.4,3.8C53.9,63.2,48.5,63.8,41.8,61.3z"/>
		<path class="st3" d="M63.3,10.5c0,0,0.9-1.5,3.9-2.8c2.9-1.3,4-1.5,4.7-0.8c0.7,0.7,1.1,1.9,1.1,4.3c0,2.4-1.2,5.5-1.2,5.5
			L63.3,10.5z"/>
		<path class="st3" d="M44,7.9c0,0-0.9-2.1-4.5-4.3C36,1.4,34.6,1,33.7,1.7c-1,0.7-1.7,2.2-2.2,5.3c-0.4,3.1,0.6,7.3,0.6,7.3L44,7.9
			z"/>
		<g>
			<path class="st0" d="M4.2,29.9c0,0,5.3-1.7,7.7-4.5c4.3-5.2,6.6-16.3,6.6-16.3l7,21.7L15.2,45.3c0,0,0.1-2.3-2.6-6.1
				C9.9,35.5,4.2,29.9,4.2,29.9z"/>
			<path class="st4" d="M18.1,3.8c0,0,1.2,8.2,2.9,13.4c1.7,5.3,6.1,14.1,6.1,14.1s-5.3,9.9-8.2,12c-2.8,2.1-5.6,4.6-5.6,4.6
				s0.6-3.1,3.4-7.7c2.8-4.7,7.4-8.6,7.4-8.6s-2.6-4.6-5.1-12.5C16.7,11.3,18.1,3.8,18.1,3.8z"/>
			<path class="st6" d="M9.4,33.5c0,0,0.8-0.4,2-0.8c1.2-0.5,2.8-1,4.4-1.4c3.3-0.9,6.7-1.2,6.7-1.2s-0.9-0.1-2.2-0.1
				c-1.3,0-3,0.2-4.7,0.7c-1.7,0.4-3.3,1.1-4.4,1.7c-0.6,0.3-1,0.6-1.3,0.8C9.6,33.3,9.4,33.5,9.4,33.5z"/>
		</g>
		<g>
			<path class="st0" d="M98.8,45.9c0,0-4.9-4.4-6.2-11.1c-1.3-6.7-0.9-17.5-0.9-17.5L77.9,35.4l4.9,17.1c0,0,0.7-2.2,4.4-4.9
				C91,45,98.8,45.9,98.8,45.9z"/>
			<path class="st4" d="M93.7,12.3c0,0-3.8,7.3-7.1,11.8c-3.3,4.4-10.4,11.3-10.4,11.3s1.8,11.1,3.8,14c2,2.9,3.8,6.2,3.8,6.2
				s0.4-3.1-0.7-8.4C81.9,41.9,79.2,35,79.2,35s3.6-1.8,8.4-8.4C92.6,19.9,93.7,12.3,93.7,12.3z"/>
			<path class="st6" d="M92.2,43.2c0,0-0.1-0.2-0.3-0.5c-0.2-0.3-0.6-0.7-1-1.2c-0.9-1-2.2-2.1-3.6-3.1c-1.4-1-3-1.7-4.2-2.2
				c-1.2-0.5-2.1-0.6-2.1-0.6s3.2,1.4,6,3.3c1.4,0.9,2.8,2,3.7,2.8C91.6,42.6,92.2,43.2,92.2,43.2z"/>
		</g>
		<path class="st4" d="M55.6,8.1c30.5,6.7,22.6,28.8,22.6,28.8s2.9,25.2-29.8,22.5c-28.4-2.3-25.9-28.1-25.9-28.1S25.2,1.4,55.6,8.1
			z"/>
		<path class="st3" d="M59.3,31.4c0,7.4,5.7,13.3,12.7,13.3c7,0,12.7-6,12.7-13.3S79.1,18,72,18C65,18,59.3,24,59.3,31.4z
			 M60.8,31.4c0-6.5,5-11.8,11.3-11.8c6.2,0,11.3,5.3,11.3,11.8c0,6.5-5,11.8-11.3,11.8C65.8,43.2,60.8,37.9,60.8,31.4z"/>
		<path class="st3" d="M60.1,32.1c0,0-0.5-0.6-2.2-0.7c-1.6-0.1-2.9,0.5-2.9,0.5l-0.4,6.3l7-0.4L60.1,32.1z"/>
		<path class="st3" d="M26.8,29.6c0,8.6,6.7,15.7,14.9,15.7c8.3,0,14.9-7,14.9-15.7C56.7,21,50,14,41.8,14
			C33.5,14,26.8,21,26.8,29.6z M28.5,29.6c0-7.6,5.9-13.8,13.2-13.8C49.1,15.8,55,22,55,29.6c0,7.6-5.9,13.8-13.2,13.8
			C34.5,43.5,28.5,37.3,28.5,29.6z"/>
		<path class="st12" d="M60.8,31.4c0,6.5,5,11.8,11.3,11.8c6.2,0,11.3-5.3,11.3-11.8c0-6.5-5-11.8-11.3-11.8
			C65.8,19.6,60.8,24.9,60.8,31.4z"/>
		<path class="st12" d="M28.5,29.6c0,7.6,5.9,13.8,13.2,13.8c7.3,0,13.2-6.2,13.2-13.8c0-7.6-5.9-13.8-13.2-13.8
			C34.5,15.8,28.5,22,28.5,29.6z"/>
		<path class="st4" d="M52.1,43.5c-0.4,4.3,3.1,7.2,8.8,7.2c5.7,0,10.8-1.4,10.4-7.4c-0.3-4.3-4.6-7.8-10.4-7.8
			C55.2,35.5,52.6,38.3,52.1,43.5z"/>
		<path class="st5" d="M54.6,37.5c0,0,0.3-0.2,0.8-0.5c2.5-1.3,5.6-1.2,7.9-0.6c1.1,0.3,3.6,1.3,4.8,2.3c1.7,1.5,2.9,3.4,3.2,5.6
			c0.1,0.6,0.1,1,0.1,1s0.1-0.3,0.2-1c0.2-2.8-1.1-5.5-3.5-7.1c-2.6-1.7-6.3-2.7-9.3-2c-1.2,0.3-2.4,0.8-3.3,1.6
			C54.7,37.2,54.6,37.5,54.6,37.5z"/>
		<path class="st5" d="M62.1,44.4c0,0.7,0.7,1.3,1.5,1.3s1.5-0.6,1.5-1.3c0-0.7-0.7-1.3-1.5-1.3S62.1,43.6,62.1,44.4z"/>
		<path class="st5" d="M54.6,43.9c0,0.9,0.8,1.5,1.8,1.5c1,0,1.8-0.7,1.8-1.5c0-0.9-0.8-1.5-1.8-1.5C55.4,42.4,54.6,43,54.6,43.9z"
			/>
		<path class="st5" d="M36.5,46.6c0,0.4,0.4,0.7,0.8,0.7c0.4,0,0.8-0.3,0.8-0.7c0-0.4-0.4-0.7-0.8-0.7
			C36.8,45.9,36.5,46.2,36.5,46.6z"/>
		<path class="st7" d="M63.2,52.7c0,0,1.1,4,1.5,4.1c0.5,0.1,2-0.9,3.2-2.9c1.1-2,1-2.7,1-2.7L63.2,52.7z"/>
		<path class="st3" d="M51.4,54c0,0-2.6,4-8.1,2.9c-5.5-1-5-9.2-5-9.2l6.6,3.4l5.7,1.3L51.4,54z"/>
		<path class="st6" d="M47.5,56.8c-1.1,0.3-2.5,0.5-4.2,0.2c-2.8-0.5-4-2.8-4.6-5c1.3-0.2,3.2,0,5.2,1.3C46,54.6,47,55.9,47.5,56.8z
			"/>
		<path class="st7" d="M53.8,53.2c0,0-1.1,4-1.5,4.1c-0.5,0.1-2-0.9-3.2-2.9c-1.1-2-1-2.7-1-2.7L53.8,53.2z"/>
		<path class="st5" d="M69.4,50.9c0,0-0.5,0.2-1.4,0.4c-5.7,1.5-11.8,1.6-17.6,0.6c-4.1-0.7-8.6-1.9-11.9-4.2
			c-0.7-0.5-1.1-0.9-1.1-0.9s0.3,0.4,1,1c0.7,0.6,1.7,1.4,3.1,2.2c5,2.7,11.2,3.8,17,3.5c3.3-0.2,6.5-0.8,9.6-2
			C69,51.2,69.4,50.9,69.4,50.9z"/>
		<path class="st7" d="M40.8,53.1l-0.4,2.2c-0.7-0.7-1.1-1.6-1.4-2.6C39.9,52.8,40.7,53,40.8,53.1z"/>
		<path class="st21" d="M32.3,79.7c4.5,2.1,14.3,4.7,31.9,0.5c2.1,4.6,4.1,8.9,4.1,8.9s-5.6,5.3-19.5,6.3c-14,1-20.4-3.5-20.4-3.5
			S29.9,86,32.3,79.7z"/>
		<path class="st21" d="M37.2,68.9c0.8-1.4,1.5-2.6,2.2-3.8c8,1.7,14.3,1.6,18.9,1c0.5,1.2,0.9,2.4,1.4,3.7
			C54.5,70.7,46.8,71.1,37.2,68.9z"/>
		<path class="st20" d="M39.4,65.1c0.9-1.5,1.7-2.8,2.4-3.9c6.7,2.5,12.1,2,15.2,1.2c0.4,1.1,0.9,2.3,1.4,3.6
			C53.7,66.8,47.4,66.8,39.4,65.1z"/>
		<path class="st21" d="M41.8,61.3c6.7,2.5,12.1,2,15.2,1.2c0.4,0.9-0.1,3.2-1.7,3.2c-1.6,0-2.8-1.7-2.8-1.7s-1.1,2.2-3.4,2
			c-1.6-0.2-2.5-2.4-2.5-2.4S41.2,68.1,41.8,61.3z"/>
		<path class="st20" d="M62.7,76.7c0.5,1.1,1,2.3,1.5,3.5c-13.4,5.2-27.5,1.6-31.9-0.5c0.4-1,0.7-1.9,1.1-2.9
			C48.9,80.7,58.3,78.5,62.7,76.7z"/>
		<path class="st21" d="M61.2,73.4c0.2,0.4,0.3,0.8,0.5,1.1c0.3,0.7,0.6,1.5,1,2.2c-4.4,1.8-13.8,3.9-29.2,0.1
			c0.5-1.3,1.1-2.5,1.6-3.7C47,75.9,56,74.8,61.2,73.4z"/>
		<path class="st20" d="M35,73.1c0.5-1,0.9-1.9,1.4-2.8c0.3-0.5,0.5-0.9,0.8-1.3c9.6,2.1,17.3,1.8,22.6,0.9c0.5,1.3,1,2.5,1.4,3.6
			C56,74.8,47,75.9,35,73.1z"/>
		<g>
			<path class="st22" d="M48.8,95.4c-0.4-2.7-0.5-5.3-0.5-8l0-0.5l0.5,0.2c0.4,0.1,0.8,0.2,1.2,0.3c0.4,0.1,0.9,0.1,1.3,0.1
				c0.4,0,0.9-0.1,1.3-0.2c0.4-0.1,0.9-0.2,1.3-0.4c-0.4,0.3-0.8,0.5-1.2,0.7c-0.4,0.2-0.9,0.3-1.3,0.4C50.9,88,50.4,88,50,88
				c-0.5,0-0.9-0.1-1.4-0.3l0.5-0.3C49.1,90.1,49.1,92.7,48.8,95.4z"/>
		</g>
		<g>
			<path class="st3" d="M67.2,32.6c0,2.7,1.6,4.9,3.5,4.9c2,0,3.5-2.2,3.5-4.9c0-2.7-1.6-4.9-3.5-4.9C68.8,27.6,67.2,29.9,67.2,32.6
				z"/>
			<g>
				<path class="st3" d="M72.4,29.3c0.3,0,0.7-0.2,1.1-0.4c0.4-0.2,0.7-0.4,1.1-0.7c0.3-0.3,0.6-0.6,0.9-1c0.3-0.4,0.5-0.8,0.7-1.2
					c-0.1,0.5-0.2,0.9-0.4,1.4c-0.2,0.5-0.4,0.9-0.7,1.3c-0.3,0.4-0.6,0.8-1,1.2c-0.4,0.4-0.8,0.7-1.4,0.9L72.4,29.3z"/>
			</g>
			<g>
				<path class="st3" d="M71.4,28c0.3-0.3,0.6-0.7,0.8-1.1c0.3-0.4,0.5-0.8,0.7-1.2c0.4-0.8,0.7-1.8,0.9-2.7c0.1,1,0,2-0.2,3
					c-0.1,0.5-0.2,1-0.4,1.5c-0.2,0.5-0.4,0.9-0.6,1.4L71.4,28z"/>
			</g>
			<g>
				<path class="st3" d="M73.1,30c0.2,0.1,0.5,0.2,0.8,0.2c0.3,0,0.6,0,1-0.1c0.3-0.1,0.7-0.2,1-0.4c0.3-0.2,0.6-0.4,0.9-0.7
					c-0.2,0.3-0.4,0.7-0.6,0.9c-0.2,0.3-0.6,0.6-0.9,0.8c-0.3,0.2-0.7,0.4-1.2,0.5c-0.4,0.1-0.8,0.2-1.4,0.1L73.1,30z"/>
			</g>
		</g>
		<g>
			<ellipse class="st3" cx="42.4" cy="31.2" rx="4.2" ry="5.4"/>
			<g>
				<g>
					<path class="st3" d="M39.3,29.6c-0.6-0.2-1-0.6-1.4-0.9c-0.4-0.4-0.7-0.8-1-1.2c-0.3-0.4-0.5-0.9-0.7-1.3
						c-0.2-0.5-0.3-0.9-0.4-1.4c0.2,0.4,0.4,0.8,0.7,1.2c0.3,0.4,0.6,0.7,0.9,1c0.3,0.3,0.7,0.6,1.1,0.7c0.4,0.2,0.8,0.3,1.1,0.4
						L39.3,29.6z"/>
				</g>
				<g>
					<path class="st3" d="M39.5,27.8c-0.3-0.5-0.5-1-0.6-1.4c-0.2-0.5-0.3-1-0.4-1.5c-0.2-1-0.3-2-0.2-3c0.2,1,0.5,1.9,0.9,2.7
						c0.2,0.4,0.4,0.8,0.7,1.2c0.3,0.4,0.6,0.8,0.8,1.1L39.5,27.8z"/>
				</g>
				<g>
					<path class="st3" d="M39.4,30.3c-0.5,0.1-0.9,0-1.4-0.1c-0.4-0.1-0.8-0.3-1.2-0.5c-0.3-0.2-0.6-0.5-0.9-0.8
						c-0.3-0.3-0.4-0.6-0.6-0.9c0.3,0.3,0.6,0.5,0.9,0.7c0.3,0.2,0.6,0.3,1,0.4c0.3,0.1,0.7,0.1,1,0.1c0.3,0,0.7-0.1,0.8-0.2
						L39.4,30.3z"/>
				</g>
			</g>
		</g>
		<path class="st5" d="M54.1,101c0,0,0.1,0.1,0.2,0.2c0.2,0.1,0.4,0.3,0.7,0.4c0.6,0.3,1.6,0.6,2.8,0.6c0.6,0,1.2-0.1,1.9-0.3
			c0.7-0.2,1.3-0.4,2-0.9c0.3-0.2,0.6-0.5,0.8-1c0.2-0.4,0.3-1,0.2-1.5c-0.5-1.8-2.9-2.1-4.4-1.7c-0.4,0.1-0.8,0.2-1.1,0.4
			c-0.3,0.2-0.7,0.5-0.9,0.9c-0.3,0.6-0.1,1.3,0.5,1.7c0.7,0.5,1.8,0.5,2.6,0.2c0.3-0.1,0.6-0.3,0.8-0.5c0.2-0.2,0.3-0.6,0.2-0.9
			c-0.3-0.7-1.3-0.8-1.9-0.5c-0.2,0.1-0.3,0.1-0.3,0.1s0.1,0,0.3-0.1c0.2,0,0.4-0.1,0.8-0.1c0.2,0,0.4,0.1,0.5,0.2
			c0.2,0.1,0.4,0.3,0.4,0.5c0.1,0.2,0,0.5-0.2,0.7c-0.2,0.2-0.4,0.3-0.7,0.4c-0.6,0.2-1.4,0.2-2.1-0.1c-0.5-0.2-0.9-0.8-0.6-1.3
			c0.2-0.3,0.4-0.5,0.7-0.7c0.3-0.2,0.7-0.3,1-0.4c0.7-0.2,1.5-0.2,2.2,0c0.7,0.2,1.5,0.6,1.7,1.3c0.2,0.7-0.2,1.4-0.7,1.8
			c-0.6,0.5-1.3,0.8-2,1.1c-0.6,0.2-1.3,0.3-1.8,0.3c-0.6,0-1.1,0-1.6-0.1c-0.5-0.1-0.9-0.2-1.2-0.3c-0.3-0.1-0.6-0.3-0.7-0.4
			C54.2,101.1,54.1,101,54.1,101"/>
		<path class="st5" d="M44.3,101c0,0-0.1,0.1-0.2,0.2c-0.2,0.1-0.4,0.3-0.7,0.4c-0.6,0.3-1.6,0.6-2.8,0.6c-0.6,0-1.2-0.1-1.9-0.3
			c-0.7-0.2-1.3-0.4-2-0.9c-0.3-0.2-0.6-0.5-0.8-1c-0.2-0.4-0.3-1-0.2-1.5c0.5-1.8,2.9-2.1,4.4-1.7c0.4,0.1,0.8,0.2,1.1,0.4
			c0.3,0.2,0.7,0.5,0.9,0.9c0.3,0.6,0.1,1.3-0.5,1.7c-0.7,0.5-1.8,0.5-2.6,0.2c-0.3-0.1-0.6-0.3-0.8-0.5c-0.2-0.2-0.3-0.6-0.2-0.9
			c0.3-0.7,1.3-0.8,1.9-0.5c0.2,0.1,0.3,0.1,0.3,0.1s-0.1,0-0.3-0.1c-0.2,0-0.4-0.1-0.8-0.1c-0.2,0-0.4,0.1-0.5,0.2
			c-0.2,0.1-0.4,0.3-0.4,0.5c-0.1,0.2,0,0.5,0.2,0.7c0.2,0.2,0.4,0.3,0.7,0.4c0.6,0.2,1.4,0.2,2.1-0.1c0.5-0.2,0.9-0.8,0.6-1.3
			c-0.2-0.3-0.4-0.5-0.7-0.7c-0.3-0.2-0.7-0.3-1-0.4c-0.7-0.2-1.5-0.2-2.2,0c-0.7,0.2-1.5,0.6-1.7,1.3c-0.2,0.7,0.2,1.4,0.7,1.8
			c0.6,0.5,1.3,0.8,2,1.1c0.6,0.2,1.3,0.3,1.8,0.3c0.6,0,1.1,0,1.6-0.1c0.5-0.1,0.9-0.2,1.2-0.3c0.3-0.1,0.6-0.3,0.7-0.4
			C44.2,101.1,44.3,101,44.3,101"/>
	</g>
</g>
<g id="labels">
</g>
</svg>
