<?xml version="1.0" encoding="utf-8"?>
<!-- Generator: Adobe Illustrator 21.1.0, SVG Export Plug-In . SVG Version: 6.00 Build 0)  -->
<svg version="1.1" xmlns="http://www.w3.org/2000/svg" xmlns:xlink="http://www.w3.org/1999/xlink" x="0px" y="0px"
	 viewBox="0 0 178 284" enable-background="new 0 0 178 284" xml:space="preserve" width="178" height="284" preserveAspectRatio="none">
<g id="Fiona_Cast_Shadow">
</g>
<g id="Fiona_Left_Leg">
</g>
<g id="Fiona_Right_Leg">
</g>
<g id="Fiona_Ponytail_3rd">
</g>
<g id="Fiona_Ponytail_4th">
</g>
<g id="Fiona_Back_Hair_5th">
</g>
<g id="Fiona_Tail">
</g>
<g id="Fiona_Body">
</g>
<g id="Fiona_5th_Pants_Body">
</g>
<g id="Fiona_Left_Ear">
</g>
<g id="Fiona_Head">
</g>
<g id="Fiona_Left_Arm">
</g>
<g id="Fiona_Shirt_5th">
</g>
<g id="Friona_Right_Arm">
</g>
<g id="Fiona_Shirt_4th">
</g>
<g id="Fiona_Shirt_3rd">
</g>
<g id="Fiona_Mouth">
</g>
<g id="Fiona_Freckles">
</g>
<g id="Fiona_Eyes">
</g>
<g id="Fiona_Hair">
</g>
<g id="Fiona_Headband_4th">
</g>
<g id="Fiona_Headband_5th">
</g>
<g id="Fiona_Right_Ear">
	<g>
		<path opacity="0.1" fill="#384E7D" d="M159.7,275.5c0,4.4-34.5,7.9-77,7.9s-77-3.5-77-7.9c0-4.4,34.5-7.9,77-7.9
			S159.7,271.1,159.7,275.5"/>
		<g>
			<path fill="#B869A2" d="M95.6,206.9c8.9,23.5,15.8,47.3,20.7,70.8h-13.8c-1-23.1-3.9-46.6-8.7-69.7
				C94.4,207.7,95,207.3,95.6,206.9"/>
			<path fill="#410025" d="M116.3,277.8h-13.8c-0.2-3.8-0.4-7.7-0.6-11.5l11-4C114.1,267.4,115.2,272.6,116.3,277.8"/>
			<polygon fill="#7D0052" points="109.7,277.8 110.1,267.3 112.9,277.8 			"/>
		</g>
		<g>
			<path fill="#B869A2" d="M75.9,204c3.9,24.8,5.7,49.6,5.7,73.6L68,274.7c3.8-22.8,5.8-46.4,5.8-70C74.5,204.5,75.2,204.2,75.9,204
				"/>
			<path fill="#410025" d="M81.6,277.5H67.5c0.6-3.8,1.4-7.9,2-11.7l12-1.9C81.6,269.2,81.6,272.3,81.6,277.5"/>
			<polygon fill="#7D0052" points="74.8,277.5 77.7,267.2 78.3,277.5 			"/>
		</g>
		<path fill="#B869A2" d="M99.6,104l-7.1-3.4c0.3-0.6-0.6-1-1.3-0.9c-0.3,0-0.6,0.1-0.9,0.2l0.1-0.7L59.8,32.8
			c0,0-32.5,15.5-44.9,77c-5,24.9,34,60.2,26,75.6c-3.6,7-12.2,8.2-20.5,7.3c-2.6-0.7-5.4-1.7-6.8-3.4c-1.5-1.8-2.1-3.6-2-5.3
			c0.3-1.2,0.9-2.5,2-3.8c5-6.5,12,0.1,12,0.1s-3.5-12.4-16-8.9c-10.6,3-9.3,14.8-8.6,18.3c0.8,5.2,4.5,20.2,22.4,27.1
			c9.5,3.7,17.7,3.7,24.6,1.8c-9.1,5.1-19.8,6-19.8,6s14,3.5,30-4s17.5-24.5,17.5-24.5l-0.4-0.3c0.9-1.5,1.3-2.4,1.3-2.4l6.8-46.6
			c0.2-0.1,0.4-0.2,0.5-0.3c3.3-1.9,8-1,9.8-4.4C99.5,131.6,103.5,115.3,99.6,104z"/>
		<g>
			<g>
				<path fill="#7D0052" d="M43.8,153.8c-2.3-2.9-4.5-5.9-6.5-9c-2-3.1-3.9-6.3-5.5-9.7c-4.5-9.2-5.7-18.5-4.4-28.7
					c0.8-6.4,2.2-11.2,4.6-17.6c2.6-6.7,5.9-12.9,9.3-18.2l5.1-5.3l4.5,9.5c-3.6,3.8-8.9,11.2-11.1,16c-2.3,4.8-3.7,8.8-3.6,14.1
					c0.4,11.6,5.1,23,12.9,31.6c-9.4-9.6-16.5-22.7-14.6-36.2c1.4-10.3,6.9-17.7,13.6-24.9l-1.6-2.8c-3.1,1.8-5.8,4.2-7.6,7.3
					c-4.2,7.2-8.2,15.4-9.2,23c-1.2,8.5-1.5,11.6-0.3,20.1c0.5,3.6,1.9,8.3,3.4,11.6C35.8,141.4,39.6,147.7,43.8,153.8z"/>
			</g>
		</g>
		<g>
			<path fill="#7D0052" d="M60,131c-1.5-1.6-2.8-3.5-3.8-5.4c-1.1-1.9-2-3.9-2.7-6.1c-1.4-4.2-2-8.8-1.3-13.3
				c0.7-4.5,2.7-8.7,5.4-12.3c2.7-3.6,5.9-6.8,9.6-9.4l1.8-1.3l-0.3,2.2c-0.4,3.2-0.8,6.4-1.1,9.7c-0.3,3.2-0.6,6.5-0.7,9.7
				c0,1.6-0.1,3.2,0.1,4.8c0.1,0.8,0.1,1.6,0.3,2.4c0.2,0.8,0.3,1.6,0.6,2.3c0.9,3.1,2.2,6.1,4.3,8.6c-2.3-2.3-3.9-5.3-5.1-8.4
				c-0.3-0.8-0.5-1.6-0.7-2.4c-0.2-0.8-0.4-1.6-0.5-2.5c-0.2-1.7-0.3-3.3-0.3-4.9c0-3.3,0.1-6.6,0.3-9.8c0.2-3.3,0.5-6.5,1-9.8
				l1.5,0.9c-1.7,1.2-3.4,2.6-4.9,4.1c-1.5,1.5-3,3.1-4.3,4.8c-2.5,3.4-4.6,7.3-5.3,11.4c-0.7,4.2-0.4,8.6,0.7,12.7
				C55.6,123.4,57.5,127.4,60,131z"/>
		</g>
		<g>
			<g>
				<path fill="#7D0052" d="M7.9,198.7c4.8,1,9.7,1.7,14.6,1.9c2.4,0.1,4.9,0.1,7.3-0.1c2.4-0.2,4.8-0.6,7.1-1.3
					c4.6-1.3,8.4-4.5,11.8-7.9c3.4-3.4,6.4-7.3,9-11.4l0.9-1.3l0.8,1.3c0.7,1.1,1.1,2.1,1.5,3.2c0.4,1.1,0.6,2.2,0.7,3.4
					c0.2,2.3,0,4.6-0.7,6.8c-1.4,4.4-4.3,8-7.7,10.9c-3.4,2.9-7.6,4.8-11.9,5.7c-2.2,0.4-4.4,0.6-6.6,0.6c-2.2,0-4.4-0.2-6.5-0.7
					c4.3,0.5,8.7,0.3,12.9-0.9c4.1-1.1,8-3.1,11.2-5.9c3.1-2.8,5.7-6.4,6.9-10.3c0.6-2,0.8-4,0.6-6.1c-0.1-1-0.3-2-0.6-3
					c-0.3-1-0.7-1.9-1.2-2.7l1.7,0c-2.7,4.3-5.8,8.1-9.4,11.7c-1.8,1.8-3.7,3.4-5.8,4.8c-1.1,0.7-2.2,1.4-3.3,1.9
					c-1.2,0.6-2.4,1-3.6,1.3c-4.9,1.3-10,1.3-14.9,0.9c-2.5-0.2-4.9-0.6-7.4-1.1C12.7,200.1,10.3,199.5,7.9,198.7z"/>
			</g>
		</g>
		<path fill="#7D0052" d="M74.7,184.6l-5.3-9.5c0,0-7.5,3.7-17.1,6.4c-15.9,4.4-20.7-4.5-20.7-4.5s-2.7,8.9,2.8,17.6
			c3.3,5.2,9.4,7.9,9.4,7.9s-7.6,1.8-5.1,3.6c2.3,1.7,8.2,3.5,13.6,2.5c2-0.4,4-0.5,5.6-1.9c0,0-4.5,3.7-1.1,3.9
			c6.6,0.4,17.5-9.1,19.5-15.5C78.4,188.7,74.7,184.6,74.7,184.6z"/>
		<path fill="#7D0052" d="M84.3,175c0,0-14.3-7.5-20.9,6.6c-10.1,21.4,6.2,35.6,8.1,35.2C73.5,216.4,75,206,75,206
			s3.1,13.5,6.2,13.9c3.1,0.4,7-11.2,7-11.2s1.5,7.4,3.9,7.7c2.3,0.4,3.1-5.8,3.1-5.8s3.1,7.7,6.6,7c3.5-0.8,2.3-12,2.3-12
			s6.3,12.7,8.9,12.7c2.6,0,9.2-20.8,5.3-29.8c-4-9.2-12.5-9.3-12.5-9.3L84.3,175z"/>
		<g>
			<path fill="#B869A2" d="M93,177C93.1,177,93,177,93,177C93,177,93,177,93,177C93,177,93,177,93,177z"/>
			<path fill="#B869A2" d="M92.8,176.7l-1.7-0.3c-0.1,0.2-0.2,0.3-0.3,0.5c-0.9,2-1.1,4.3-1.3,6.5c-0.1,1.4-0.1,2.7-0.1,4.1
				c0,1.4,0.1,2.8,0.3,4.1c0.4,2.7,1,5.4,2,8c0.9,2.6,2.1,5.1,3.5,7.4c-1.3-2.4-2.2-4.9-3-7.5c-0.8-2.6-1.3-5.2-1.4-7.9
				c-0.2-2.7,0-5.3,0.3-8c0.2-1.3,0.4-2.6,0.7-3.9c0.2-0.6,0.4-1.2,0.6-1.8c0.1-0.3,0.3-0.5,0.4-0.7c0.1-0.1,0.1-0.2,0.2-0.2
				c0,0,0,0,0,0c0,0,0,0-0.2,0L92.8,176.7z"/>
		</g>
		<path fill="#B869A2" d="M113.6,203.9c0.1-2.7-0.2-5.4-0.7-8.1c-0.5-2.7-1.3-5.3-2.3-7.9c-0.5-1.3-1.1-2.5-1.8-3.7
			c-0.7-1.2-1.4-2.3-2.2-3.5c-0.3-0.5-0.7-1-1.1-1.5l-2.6-0.5c0.9,0.9,1.7,2,2.4,2.9c1.6,2.1,3.2,4.3,4.3,6.7
			c1.2,2.4,2.1,4.9,2.7,7.6C113.1,198.5,113.5,201.2,113.6,203.9z"/>
		<g>
			<path fill="#B869A2" d="M85,175.2C85,175.2,85,175.2,85,175.2C84.9,175.2,84.9,175.2,85,175.2C85,175.2,85,175.2,85,175.2
				C85,175.2,85,175.2,85,175.2z"/>
			<path fill="#B869A2" d="M84.3,175c0,0-0.5-0.3-1.3-0.6c-0.2,0.2-0.3,0.5-0.4,0.7c-1,1.8-1.4,4-1.7,6c-0.2,1.4-0.4,2.7-0.5,4.1
				c-0.1,1.4-0.2,2.8-0.1,4.1c0.1,2.8,0.5,5.5,1.2,8.1c0.7,2.6,1.6,5.2,2.7,7.7c-1-2.5-1.7-5.1-2.2-7.8c-0.5-2.7-0.7-5.3-0.7-8
				c0-2.7,0.5-5.3,1.1-7.9c0.3-1.3,0.7-2.6,1.1-3.8c0.2-0.6,0.5-1.2,0.8-1.7c0.2-0.2,0.3-0.5,0.5-0.6c0.1-0.1,0.2-0.1,0.2-0.2
				c0,0,0,0-0.2,0l0-0.1L84.3,175z"/>
		</g>
		<g>
			<path fill="#B8A6CC" d="M177.4,52.9c-0.5-2.7-21.8-6.7-36.3,4.8c-14.5,11.6-19,33.6-19,33.6s10.5-3.1,27.9-11.4
				C162,74.2,177.9,55.6,177.4,52.9"/>
			<path fill="#F7B5D2" d="M146.4,61.8c11.4-6.6,27.4-7.5,27.4-7.3c0.5,2.5-14.8,18.8-25.9,24.1c-10,4.8-17.6,7.7-21.9,9.2
				C127.8,81.3,132.6,69.8,146.4,61.8"/>
		</g>
		<path fill="#B8A6CC" d="M136.6,72.5c-0.9-17.7-11.5-35.1-28.7-40.9c-19.1-6.5-41.5,3-49,22c-1.6,4.2-2.5,8.6-2.5,13.1
			c0,8.2,2.7,15.7,7.4,21.8c4.9,7,11.6,12,18.7,15.5c-1.8,8.8-5.2,22.9-5.2,22.9l9.1,10.7l3.1-3c-1-10.6-0.9-17.3,0.7-27.5
			c13.6,4.6,27.1,4.3,31.6,2C136.5,101.8,137.5,90,136.6,72.5z"/>
		<path fill="#B8A6CC" d="M156.6,118.2c0.4-3.9-23.7,7-23.7,7s11-10.7,8.7-13.5c-2.2-2.8-12.2,3.9-14.1,14.7
			c-1.7-3.9-4.5-9.6-6.1-8.7c-3.1,1.8,0.6,12.4,5.8,14.9c-2.1,4.7-6.4,12-13.5,13.5c-10.5,2.3-14.9-4.5-14.9-4.5l-3,3.2
			c0,0,6,6.4,18.8,6.5c16.2,0,19.5-19.3,19.5-19.3s16.3,3.4,18.3,0.6c2-2.8-17.7-3.7-17.7-3.7S156,124.4,156.6,118.2"/>
		<path fill="#B8A6CC" d="M68.5,139.9c0,0-18.6,0.7-22.4,11.8c-2.3,6.7,12.1,22.3,12.1,22.3s-12.8-2.5-12.8,1.8
			c0,4.3,11.5,1.3,11.5,1.3s-13,9.2-9.9,11.9c3.1,2.6,13.3-10.2,13.3-10.2s-5.3,8.8-1.7,10.1c3.6,1.2,9.9-12,7-16.6
			c-2.9-4.6-9.9-9.6-12.9-14c-6.6-9.6,14-17.1,14-17.1L68.5,139.9z"/>
		<path fill="#49C8F5" d="M101.8,158.3c0,0-6.7-3-11.5-9.1c-4.8-6.2-4.6-7.7-4.6-7.7l4.3-4.3l17,4.7L101.8,158.3z"/>
		<path fill="#49C8F5" d="M76.7,130.2l-10.5,47.6c0,0,14.6,7.9,30.3,4.9c10.3-1.9,9.2-3.1,9.2-3.1s-13.1-16.7-16.1-44.6
			c0,0-1.5,5-3.6,4.4C82.7,138.4,78.2,131.5,76.7,130.2"/>
		<path fill="#F7B5D2" d="M66.2,177.8c0,0,5.9,3.2,14.2,4.7l1.3-44.5l-8.4,7.2L66.2,177.8z"/>
		<path fill="#F7B5D2" d="M90.2,164.7c1.4,7,5.6,13,8.4,17.6c8-1.7,7.1-2.7,7.1-2.7s-11-13.6-15.5-39.5l-0.4-2
			c-0.6,0.7-0.8,1.8-1.6,1.6C88.2,139.6,87.4,150.9,90.2,164.7z"/>
		<polygon fill="#F7B5D2" points="102,140.6 89.9,137.2 89.6,142.2 100.2,147.7 		"/>
		<path fill="#49C8F5" d="M54.3,139.2c0,0,6.3-3.9,14.1-4.3c7.8-0.4,8.9,0.5,8.9,0.5l1,5.5l-13.4,11.8L54.3,139.2z"/>
		<path fill="#F7B5D2" d="M58.8,137.1l4.8,7.5l13.7-8.7l-0.1-0.5c0,0-1.1-1-8.9-0.5C64.7,135.1,61.3,136.1,58.8,137.1z"/>
		<g>
			<path fill="#49C8F5" d="M89.6,134.6l-3.1,3l-9.1-10.7l-1.2,5.3l11,10.5l3-4.2C90.3,138.5,89.7,134.9,89.6,134.6z"/>
		</g>
		<path fill="#61439A" d="M95.7,95.4c0,0,0.2,0.2,0.6,0.6c0.4,0.4,1,0.9,1.7,1.4c4.6,3.2,10.2,2.2,14.8-0.2c0,0-0.7,1.1-2.3,2.2
			c-3.6,2.5-8.7,2.8-12.2-0.1c-0.4-0.4-0.8-0.7-1.1-1.1c-0.6-0.7-1-1.5-1.3-2C95.7,95.7,95.7,95.4,95.7,95.4"/>
		<path fill="#61439A" d="M97.3,95c0.2,0.8-0.3,1.6-1.1,1.8c-0.8,0.2-1.6-0.3-1.8-1.1c-0.2-0.8,0.3-1.6,1.1-1.8
			C96.3,93.7,97.1,94.2,97.3,95"/>
		<path fill="#61439A" d="M128.1,93.7c-0.1,0.4,0.1,0.9,0.6,1.1c0.4,0.1,0.9-0.1,1.1-0.6c0.1-0.4-0.1-0.9-0.6-1.1
			C128.7,93,128.2,93.3,128.1,93.7"/>
		<path fill="#61439A" d="M121.8,95.4c-0.1,0.4,0.1,0.9,0.6,1.1c0.4,0.1,0.9-0.1,1.1-0.6c0.1-0.4-0.1-0.9-0.6-1.1
			C122.4,94.7,121.9,95,121.8,95.4"/>
		<path fill="#61439A" d="M125.8,98.8c-0.1,0.4,0.1,0.9,0.6,1.1c0.5,0.1,0.9-0.1,1.1-0.6c0.1-0.4-0.1-0.9-0.6-1.1
			C126.4,98.1,125.9,98.4,125.8,98.8"/>
		<path fill="#61439A" d="M86.6,96.3c-0.1-0.5,0.2-0.9,0.7-1c0.5-0.1,0.9,0.2,1,0.7c0.1,0.5-0.2,0.9-0.7,1
			C87.1,97,86.7,96.7,86.6,96.3"/>
		<path fill="#61439A" d="M80.6,93.9c-0.1-0.5,0.2-0.9,0.7-1c0.5-0.1,0.9,0.2,1,0.7c0.1,0.5-0.2,0.9-0.7,1
			C81.1,94.7,80.7,94.4,80.6,93.9"/>
		<path fill="#61439A" d="M84.9,91c-0.1-0.5,0.2-0.9,0.7-1c0.5-0.1,0.9,0.2,1,0.7c0.1,0.5-0.2,0.9-0.7,1C85.4,91.7,85,91.5,84.9,91"
			/>
		<g>
			<path fill="#410025" d="M71.5,62.3c0,0,0.4,0.7,1.2,1.7c2.4,2.7,5.7,4.4,9.3,4.6c-0.1,0.7-0.1,1.3-0.2,2c0,0.1-3-0.9-3.2-1
				c-2.5-1.1-4.7-3-6.2-5.4C71.8,63.1,71.5,62.3,71.5,62.3"/>
			<path fill="#410025" d="M73.8,55.4c0,0,0.2,0.9,0.7,2.1c0.5,1.2,1.4,2.7,2.6,4c0.6,0.7,1.2,1.2,1.8,1.8c0.6,0.5,1.2,1,1.8,1.3
				c0.5,0.4,1,0.6,1.3,0.8c0.3,0.2,0.5,0.3,0.5,0.3l-1,1.7c0,0-0.2-0.1-0.5-0.4c-0.3-0.3-0.8-0.6-1.3-1.1c-0.5-0.5-1.1-1-1.7-1.7
				c-0.6-0.6-1.2-1.4-1.6-2.1c-1-1.5-1.7-3.2-2.1-4.5C73.9,56.3,73.8,55.4,73.8,55.4"/>
			<path fill="#410025" d="M78,51.3c0,0-0.1,0.9,0.1,2.2c0.5,3.2,2.3,6,4.4,8.4c0.4,0.5,0.8,0.9,1.1,1.1c0.3,0.3,0.4,0.4,0.4,0.4
				l-1.5,1.4c0,0-0.2-0.2-0.4-0.5c-0.2-0.3-0.6-0.8-1-1.4c-1.8-2.8-3.2-6-3.3-9.4C77.8,52.2,78,51.3,78,51.3"/>
			<path fill="#FFFFFF" d="M105.2,79.9c0,0-5.9,9.8-16.7,7.7c-9.8-1.9-11.4-19-11.4-19s11.3-11.4,17.5-10
				C107.6,61.6,105.2,79.9,105.2,79.9"/>
			<path fill="#0092A1" d="M98,73.8c0.6,5.5-2.6,10.4-7.2,10.9c-4.6,0.5-8.8-3.5-9.5-9c-0.6-5.5,2.6-10.4,7.2-10.9
				C93.1,64.3,97.3,68.3,98,73.8"/>
			<path fill="#410025" d="M94.7,74.2c0.4,3.3-1.6,6.3-4.4,6.6c-2.8,0.3-5.4-2.1-5.7-5.5c-0.4-3.3,1.6-6.3,4.4-6.6
				C91.7,68.4,94.3,70.9,94.7,74.2"/>
			<path fill="#61439A" d="M77.1,68.6c0,0,0.4-0.6,1.2-1.7c0.8-1,2-2.5,3.6-4c0.8-0.8,1.7-1.6,2.8-2.3c1.1-0.8,2.2-1.5,3.6-2.1
				c1.3-0.6,2.8-1,4.5-1c3.2-0.1,6.4,1.5,8.5,3.8c1.1,1.1,1.9,2.4,2.6,3.7c1.3,2.6,1.7,5.3,1.9,7.6c0.2,2.3,0,4.1-0.1,5.4
				c-0.2,1.3-0.3,2-0.3,2s0-0.7-0.1-2c-0.1-1.3-0.2-3.1-0.6-5.3c-1.1-5.9-4.8-13.3-11.8-13.3c-1.3,0-2.6,0.3-3.8,0.7
				c-2.5,0.9-4.6,2.4-6.3,3.7c-1.7,1.3-3.1,2.6-4,3.5C77.6,68.1,77.1,68.6,77.1,68.6"/>
			<path fill="#410025" d="M144.2,63.2c0,0-0.2,0.8-0.9,1.9c-1,1.8-2.5,3.4-4.2,4.6c-1.4,1-3.2,2-4.9,2.2l-0.3-2c0,0,0.7,0,1.9-0.3
				c2.9-0.7,5.4-2.3,7.2-4.7C143.8,64,144.2,63.2,144.2,63.2"/>
			<path fill="#410025" d="M141.5,56.4c0,0,0,0.9-0.3,2.2c-0.3,1.3-0.9,3-1.9,4.6c-1.2,1.9-2.7,3.6-4.4,5.1
				c-0.3,0.3-0.5,0.4-0.5,0.4l-1.1-1.7c0,0,0.2-0.1,0.5-0.3c3.1-1.9,5.8-4.8,7.1-8.3C141.4,57.3,141.5,56.4,141.5,56.4"/>
			<path fill="#410025" d="M136.7,53.4c0,0,0.3,0.9,0.3,2.2c0.1,4-1.6,7.8-3.8,11c-0.2,0.3-0.4,0.5-0.4,0.5l-1.5-1.3
				c0,0,0.1-0.1,0.4-0.4c2.5-2.6,4.6-6.2,5-9.8C136.9,54.3,136.7,53.4,136.7,53.4"/>
			<path fill="#FFFFFF" d="M135.2,69.5c-3.4-4.8-10.8-8.5-14.9-7.4c-12.1,3.2-9.1,20.6-9.1,20.6s8.3,7.9,16.1,5.6
				c3.6-1.1,6.6-3.5,7.7-6.8C136.2,78.2,136.7,73.7,135.2,69.5"/>
			<path fill="#0092A1" d="M115.8,75.7c-0.4,5.3,2.9,9.7,7.3,10c4.4,0.3,8.2-3.7,8.6-9c0.4-5.3-2.9-9.7-7.3-10
				C120,66.5,116.2,70.5,115.8,75.7"/>
			<path fill="#410025" d="M119,75.9c-0.2,3.2,1.8,5.9,4.4,6.1c2.7,0.2,5-2.3,5.2-5.4c0.2-3.2-1.8-5.9-4.4-6.1
				C121.5,70.3,119.2,72.7,119,75.9"/>
			<path fill="#61439A" d="M135.2,69.5c0,0-0.5-0.5-1.3-1.3c-0.8-0.8-2.1-1.9-3.7-2.9c-3.8-2.6-8.5-3.6-12.6-1
				c-1,0.6-1.9,1.5-2.6,2.4c-0.7,1-1.3,2-1.8,3.1c-0.9,2.2-1.4,4.4-1.6,6.3c-0.2,1.9-0.3,3.6-0.3,4.7c0,1.2,0,1.8,0,1.8
				s-0.2-0.6-0.4-1.8c-0.2-1.1-0.4-2.8-0.4-4.8c0-2,0.3-4.4,1.1-6.9c0.5-1.2,1-2.5,1.9-3.6c0.8-1.1,1.9-2.1,3.1-2.9
				c3.6-2.4,7.9-2.3,11.6-0.2c1,0.6,1.9,1.3,2.7,1.9c1.5,1.3,2.6,2.6,3.3,3.5C134.9,69,135.2,69.5,135.2,69.5"/>
			<path fill="#FFFFFF" d="M88.8,78.9c0.2,1.3-0.6,2.5-1.6,2.6c-1.1,0.1-2.1-0.9-2.3-2.2c-0.2-1.3,0.6-2.5,1.6-2.6
				C87.6,76.6,88.7,77.6,88.8,78.9"/>
			<path fill="#FFFFFF" d="M129.5,70.2c0.7,1.9,0.8,4.5-0.9,5c-1.7,0.5-4-1.4-4.7-3.4c-0.7-1.9-1.1-4.3,0.6-4.8
				C126.2,66.6,128.9,68.3,129.5,70.2"/>
			<path fill="#FFFFFF" d="M122.9,80.7c0.2,1.3-0.6,2.5-1.6,2.6c-1.1,0.1-2.1-0.9-2.3-2.2c-0.2-1.3,0.6-2.5,1.6-2.6
				C121.7,78.3,122.7,79.3,122.9,80.7"/>
			<path fill="#FFFFFF" d="M95.9,68.9c0.7,1.9,0.8,4.5-0.9,5c-1.7,0.5-4-1.4-4.7-3.4c-0.7-1.9-1.1-4.3,0.6-4.8
				C92.6,65.3,95.2,67,95.9,68.9"/>
		</g>
		<path fill="#410025" d="M84.9,53.3c-0.1-0.8,4.4-4.5,9-4.2c4.6,0.3,6.1,2.9,5.6,3.3c-0.5,0.4-2.4-0.9-5.8-1
			C88.8,51.3,85,54.1,84.9,53.3"/>
		<path fill="#410025" d="M130.4,54.8c0-0.8-4.6-4.3-9.2-3.8c-4.6,0.5-5.9,3.2-5.5,3.6c0.5,0.4,2.3-1,5.7-1.3
			C126.4,53,130.3,55.6,130.4,54.8"/>
		<path fill="#B869A2" d="M135.1,22C127.7-12.5,104,3.4,99.4,10c-2.6,3.8-12.9,19.1-20.1,16c-8.6-3.6-3.9-12.7-3.9-12.7
			s-20.1,0.1-17.9,14.1c0.3,2,1.1,3.7,2.2,5.2c-10.2,6.5-11.6,17.1-11.7,18.9C47.2,63,57.7,81.8,60.4,82.5c0.1,0,0.2,0,0.3,0.1
			c0.9-1.1,1.2-0.9,2.1-2.3c-0.4,1.6-0.9,7.7,6.9,9.5c0,0,2.6,0.8,4.9-0.8c2.7-1.8,2.2-6.3,2.2-6.3c0-8.6-5.7-1.7-5.7-1.7
			c4.2-1.2,2.1,2.2,2.1,2.2c-0.7,0.7-1.5,1-2.8,0.9c-0.2,0-0.4-0.1-0.6-0.2c-1.1-0.8-4.8-4.4-2-12.9c3-6,3.1-11.7,2.2-16.5l0,0
			c0,0,0.3-17.8,27.7-9.2l0,0c6.3,3,12.3,6.2,12.3,6.2s14.4-5,18.2-3.8c0.9,1.5,1.7,2.8,2.6,4.3C131.9,49.8,138,35.8,135.1,22z"/>
		<path fill="#7D0052" d="M89.7,29.2c0,0,1.7,0.5,4,1.6c6.4,3.2,12.4,9.6,13.3,17.1c0.1,0.8,0,1.2,0,1.2s-0.1-0.4-0.3-1.1
			c-2.5-7-7.5-12.1-13.4-16.4C91.2,30.1,89.7,29.2,89.7,29.2"/>
		<path fill="#7D0052" d="M97.9,21.5c0,0,0.5,0.1,1.3,0.5c0.8,0.4,1.9,1,3.1,2c0.6,0.5,1.2,1,1.8,1.7c5.6,6.1,7.8,15.2,6,23.3
			c0,0,0-2-0.3-5c-0.7-6.2-2.5-12.6-6.5-17.6c-0.5-0.7-1-1.3-1.5-1.8c-1-1.1-2-1.9-2.7-2.4C98.3,21.7,97.9,21.5,97.9,21.5"/>
		<path fill="#7D0052" d="M109.9,5.2c0,0,0.7,0.2,2,0.7c1.2,0.6,3,1.4,4.9,2.8c1.9,1.4,3.9,3.3,5.6,5.7c1.7,2.4,3,5.4,3.7,8.5
			c1.7,7.4,0.5,15.3-1.5,22.5c-0.4,1.3-0.7,2-0.7,2s0.1-0.8,0.4-2.1c1.2-7.1,1.9-15.1,0.4-22.2c-0.6-2.9-1.8-5.7-3.3-8.1
			c-1.5-2.4-3.4-4.3-5.1-5.8c-1.7-1.5-3.3-2.5-4.5-3.2C110.6,5.5,109.9,5.2,109.9,5.2"/>
		<path fill="#7D0052" d="M50.2,44c5.8-2.4,13.1,1.3,15.7,6.6c1.6,3.3,2.5,7,2.9,10.6l0.3,2.5l-1.6-2c-3.2-4-7.6-6.9-12.6-8.3
			c-0.8-0.2-1.7-0.4-2.5-0.4c-0.4,0-0.9,0-1.3,0c-0.4,0-0.9,0.1-1.2,0.3c0.4-0.3,0.8-0.4,1.2-0.5c0.4-0.1,0.9-0.2,1.3-0.2
			c5.4-0.3,10.6,2.5,14.4,6.2c0.7,0.6,1.3,1.3,1.9,2l-1.3,0.5c-0.1-1.1-0.4-2.3-0.6-3.5c-0.2-1.2-0.5-2.3-0.9-3.4
			c-1.2-3.7-2.7-6.9-6.2-8.7c-1.8-0.9-3.9-1.7-5.9-1.9c-0.6-0.1-1.2-0.1-1.8-0.1C51.3,43.8,50.7,43.9,50.2,44"/>
		<path fill="#49C8F5" d="M77.5,24.4c0,0-7.5,1.1-14.5,12.6s-5,36.8-5,36.8l2.7,2.4c0,0,0-23.5,7.5-34.5s16.5-16,16.5-16L77.5,24.4z
			"/>
		<g>
			<path fill="#B8A6CC" d="M6.8,50.5c0.5-2.9,18.9-7.2,37.9,4.8C60.9,65.5,65.5,88,65.5,88s-11.1-2.6-29.6-10.4
				C23.2,72.3,6.3,53.4,6.8,50.5"/>
			<path fill="#F7B5D2" d="M39.7,60.9c-11.2-6.2-23.6-8.7-29.8-9.4c-0.3,0.2,10.5,15.7,25.8,23.3c11.3,5.6,19.2,7.8,23.6,9.4
				C58.4,78.6,53.3,68.4,39.7,60.9"/>
		</g>
	</g>
</g>
<g id="labels">
</g>
</svg>
