<?xml version="1.0" encoding="utf-8"?>
<!-- Generator: Adobe Illustrator 21.1.0, SVG Export Plug-In . SVG Version: 6.00 Build 0)  -->
<svg version="1.1" xmlns="http://www.w3.org/2000/svg" xmlns:xlink="http://www.w3.org/1999/xlink" x="0px" y="0px"
	 viewBox="0 0 354 350" enable-background="new 0 0 354 350" xml:space="preserve" width="354" height="350" preserveAspectRatio="none">
<g id="Grogg_Cast_Shadow">
</g>
<g id="Grogg_Right_Arm">
</g>
<g id="Grogg_Left_Arm">
</g>
<g id="Grogg_Left_Leg">
</g>
<g id="Grogg_Right_Leg">
</g>
<g id="Grogg_Hair_Back">
</g>
<g id="Grogg_Head">
</g>
<g id="Grogg_Overalls">
</g>
<g id="Grogg_5th_Pants">
</g>
<g id="Grogg_5th_Shirt">
</g>
<g id="Grogg_Mouth_and_Beard">
</g>
<g id="Grogg_Nose">
</g>
<g id="Grogg_Eyes">
</g>
<g id="Grogg_Hair">
</g>
<g id="Horns">
	<g>
		<g opacity="0.1">
			<g>
				<path fill="#384E7D" d="M353.1,332.7c0,9-78.8,16.4-176.1,16.4c-97.2,0-176.1-7.3-176.1-16.4c0-9,78.8-16.4,176.1-16.4
					C274.2,316.4,353.1,323.7,353.1,332.7"/>
			</g>
		</g>
		<path fill="#D0C678" d="M48.8,225.2c0,0-20.6-7.6-30.2,4.3c0,0-5.1,9.6,13.9,24.6C42.7,262.2,48.8,225.2,48.8,225.2"/>
		<path fill="#D0C678" d="M27,294.1c0,0-1,11.7,0,17.1c1,5.4,5.4,11.7,5.4,11.7s-7.1-10.5-14.3,1.8c-3.1,5.3,9.3,11.7,18.2,11.7
			c14,0,12.8-12.6,12.8-12.6S44,339.8,60,339.3c14.3-0.4,12.1-13.6,12.1-13.6s-7.5,16.4,14,11.8c11.2-2.4,6.6-14,6.6-14
			s1.7,9.7,12.6,6.1c13.7-4.5,4.3-11.5-4.9-18.7c-8.1-6.4-15.4-21.7-15.4-21.7L27,294.1z"/>
		<path fill="#969057" d="M89.6,317.3c2,5.5,3.2,10.8,3.4,15.2c1.9-3.5,1.9-9.8-0.5-16.2c-2.4-6.4-6.4-11.2-10.2-12.7
			C85,307.1,87.6,311.8,89.6,317.3"/>
		<path fill="#AC60A6" d="M87.9,224.6c4.3-7.9,2.7-30.8-14.1-26.9c-14.4,6.3-40.6,20-50.6,39.4c-14.2,27.3,3.4,71.1,3.4,71.1
			s1.4,1.6,8.8,1.1c7.3-0.5,12.2-15.6,12.2-15.6s0,16.1,7.3,15.6c7.3-0.5,7.8-15.6,7.8-15.6s8.3,11.2,13.7,10.3c5.4-1,0-12.7,0-12.7
			s0.5,1,4.9,2.9c4.4,2,7.3,0.5,7.3,0.5s-6.3-17.3-7.3-43.2C80.9,241.2,84,232,87.9,224.6z"/>
		<path fill="#D0C678" d="M313.7,222.2c0,0,20.6-7.6,30.2,4.3c0,0,5.1,9.6-13.9,24.6C319.8,259.2,313.7,222.2,313.7,222.2"/>
		<path fill="#D0C678" d="M339.3,290.7c0,0-4.5,11.7-6,17.1c-1.5,5.3-4.7,11.8-4.7,11.8s7.1-10.5,14.3,1.8
			c3.1,5.3-9.3,11.7-18.2,11.7c-14,0-12.8-12.6-12.8-12.6s5.2,15.8-10.8,15.3c-14.3-0.4-12.1-13.6-12.1-13.6s7.5,16.4-14,11.8
			c-11.2-2.4-6.6-14-6.6-14s-1.7,9.7-12.6,6.1c-13.7-4.5-5.4-13.2,4.9-18.7c9.5-5.2,15.4-21.7,15.4-21.7L339.3,290.7z"/>
		<path fill="#969057" d="M271.4,313.5c-2,5.5-3.2,10.8-3.4,15.2c-1.9-3.5-1.9-9.8,0.5-16.2c2.4-6.4,6.4-11.2,10.2-12.7
			C276,303.3,273.4,308,271.4,313.5"/>
		<path fill="#AC60A6" d="M265,186.4c0,0,55,21.4,73,46.3c18.1,24.9-3.2,70.1-3.2,70.1s-0.8,2.8-7.4,4.7c-7.1,2-15-16.6-15-16.6
			s2.4,15.9-4.9,16.5c-7.3,0.6-10-14.3-10-14.3s-6.5,12.3-12,12.2c-5.5-0.2-1.9-12.6-1.9-12.6s-0.3,1-4.4,3.6
			c-4.1,2.6-8.6,0.2-8.6,0.2s10.5-23.7,7.6-49.5c-2.9-25.7-24.4-43.1-24.4-43.1L265,186.4z"/>
		<g>
			<path fill="#D0C678" d="M215.9,311.9c-3.7,3.4-9.2,3.8-9.2,3.8s-12.5-7.3-17.5-4.8c-13.7,6.7,5.3,9.6,5.3,9.6s-12.5,9.7-6.6,14.8
				c5.9,5.1,11.2-6.4,11.2-6.4s0.6,7.2,6.4,6.8c5.8-0.4,4.1-7.2,4.1-7.2s7.4-1.7,17.6-4.4c21.3-4.4,17.1-10.1,17.1-10.1l-10.5-10.5
				C233.7,303.4,219.6,308.5,215.9,311.9"/>
			<path fill="#AC60A6" d="M218.3,272.5c0,0-6.4,5.2-7.8,14.7c-1.4,9.5-0.3,27.8-0.3,27.8l9.7-3.3c0,0,1.8,7.1,6.1,6.5
				c4.3-0.5,3.2-7.4,3.2-7.4s3.1,8.1,7.1,7.6c4-0.5,1.7-7.5,1.7-7.5s0.1,0.9,2.6,2.3c2.5,1.4,3.6,0.7,3.6,0.7s-11.3-10.9-13.3-27.2
				c-1-7.8,2-16.3,2-16.3L218.3,272.5z"/>
			<path fill="#5B1B75" d="M227.1,294.8c0,0-0.1,0.1-0.3,0.4c-0.2,0.2-0.5,0.6-1,0.9c-0.9,0.7-2.4,1.5-4.3,1.9
				c-0.9,0.2-2,0.3-3.1,0.3c-1.1,0-2.3-0.2-3.5-0.7c-0.6-0.3-1.2-0.6-1.7-1.2c-0.5-0.5-0.9-1.4-0.8-2.2c0.2-3.8,5.6-4.8,8.4-3.9
				c0.9,0.3,1.9,1,2.1,2c0.4,2.4-2.9,3.3-4.7,3.1c-0.8-0.1-1.9-0.5-2-1.4c-0.2-1,0.7-1.6,1.5-1.8c0.5-0.2,1-0.1,1.3-0.1
				c0.3,0.1,0.5,0.1,0.5,0.1s-0.2,0-0.5-0.1c-0.8,0-1.7,0.2-2.2,0.8c-0.5,0.5-0.5,1.3,0.2,1.7c0.4,0.2,0.8,0.3,1.3,0.4
				c1,0.1,2-0.1,2.8-0.6c0.9-0.5,1.8-1.7,0.9-2.6c-0.4-0.4-0.9-0.7-1.5-0.8c-0.6-0.2-1.2-0.2-1.8-0.2c-1.2,0-2.6,0.1-3.7,0.7
				c-2.1,1-3,3.6-0.7,5.1c3.2,2.1,8.2,1.4,11.3-0.6c0.5-0.3,0.8-0.6,1-0.8C227,294.9,227.1,294.8,227.1,294.8"/>
		</g>
		<g>
			<path fill="#D0C678" d="M147.8,311.9c-4.1,2.9-9.6,2.6-9.6,2.6s-11.5-8.8-16.8-7c-14.4,4.9,4,10.2,4,10.2s-13.6,8.1-8.4,13.9
				c5.2,5.8,11.9-4.9,11.9-4.9s-0.3,7.2,5.5,7.5c5.8,0.3,4.9-6.6,4.9-6.6s7.6-0.8,18-2.2c21.7-1.7,18.2-7.9,18.2-7.9l-9.1-11.8
				C166.6,305.7,151.9,309,147.8,311.9"/>
			<path fill="#AC60A6" d="M155.2,273.1c0,0-7,4.3-9.6,13.6c-2.6,9.3-3,27.5-3,27.5l9.3-2c0,0,0.9,7.2,5.2,7.3
				c4.3,0,4.1-6.9,4.1-6.9s2,8.4,6.1,8.4c4.1,0,2.6-7.2,2.6-7.2s0,0.9,2.3,2.6c2.3,1.7,3.5,1.2,3.5,1.2s-9.8-12.2-9.8-28.7
				c0-7.8,4.1-15.9,4.1-15.9L155.2,273.1z"/>
			<path fill="#5B1B75" d="M161.1,296.4c0,0-0.1,0.1-0.4,0.3c-0.2,0.2-0.6,0.5-1.1,0.8c-1,0.6-2.6,1.2-4.5,1.3
				c-1.7,0.2-3.6,0-5.2-0.6c-1.7-0.6-3.8-2.2-3.4-4.3c0.5-2.8,4-3.6,6.4-3.4c0.2,0,0.3,0,0.5,0.1c0.7,0.1,1.3,0.3,1.9,0.5
				c1.3,0.6,2.5,2,1.6,3.4c-1,1.8-3.8,1.9-5.5,1.1c-0.6-0.3-1.3-1-1.1-1.8c0.4-1.2,2-1.4,3-1.1c0.3,0.1,0.4,0.2,0.4,0.2
				s-0.2-0.1-0.4-0.1c-0.9-0.2-2.5,0.1-2.8,1.2c-0.1,0.4,0.1,0.8,0.5,1c0.3,0.3,0.7,0.4,1.2,0.5c1.2,0.3,2.7,0.1,3.6-0.6
				c0.3-0.2,0.6-0.6,0.7-1c0.2-1-0.7-1.7-1.5-2c-0.5-0.2-1.1-0.4-1.7-0.5c-1.2-0.2-2.5-0.1-3.6,0.4c-1.1,0.4-2.3,1.2-2.5,2.4
				c-0.3,1.7,1.5,2.9,2.9,3.5c1.6,0.6,3.3,0.9,5,0.8c1.9-0.1,4-0.5,5.6-1.7C161,296.5,161.1,296.4,161.1,296.4"/>
		</g>
		<path fill="#5B1B75" d="M245,77c21.4-7.3,48.4,1.2,64.8,20.4c32.5,37.9-19,58.6-19.7,66.7c-1.3,15.4,15.6,22.4,15.6,22.4
			s-52.7,32-76.1-24C213.4,123.5,223.6,84.4,245,77z"/>
		<path fill="#AC60A6" d="M287.3,76.2c0,0-93.4-52.8-169.4,7.1c-76.1,59.8-54.1,146.6,24.8,193.6c0,0,50.8,8.8,106.2,0L287.3,76.2z"
			/>
		<path fill="#9F914C" d="M255.2,243.6c-8.2,2.3-29,5.9-76.7,5.1c-47.3-0.9-69.6-4.9-78.9-7.4c11.4,13.3,25.8,25.4,43,35.7
			c0,0,4.3,0.3,7.5,0.8c-1.8,3-6,9.1-7.2,15.4c-2.4,11.8,0,18.8,0,18.8s4.6-0.3,17.5,0.2c9.1,0.4,11.9,0.3,11.9,0.3
			s-2.3-9.3-1.5-18.1c0.4-4.6,1.1-10.2,2-14.2c10.4,0.6,26,0.9,39.7,0.4c-1.1,2.9-2.3,7-3.3,11.9c-2.6,12.9,0.9,19.4,0.9,19.4
			s4.4-0.3,17.1-1c12.9-0.8,13.3-1.3,13.3-1.3s-2.7-9.6-3.4-19c-0.3-3.9-0.9-8.2-1-11.8c4.3-0.5,8.6-1.1,12.9-1.8L255.2,243.6z"/>
		<path fill="#70733F" d="M178.5,248.6c-47.3-0.9-69.6-4.9-78.9-7.4c3.1,3.7,6.5,7.3,10.2,10.8c9,2,30.6,5.6,71.8,6.6
			c42.4,1.1,63.3-2.6,71.6-4.6l2-10.4C247,245.8,226.2,249.5,178.5,248.6z"/>
		<polygon fill="#70733F" points="218.3,282.5 218.6,302.3 235.9,300.3 231.7,283.5 		"/>
		<path fill="#9F914C" d="M138.6,261.4l7.4-0.8l-1.4-13.4c-2.6-0.2-5.1-0.4-7.5-0.6L138.6,261.4z"/>
		<path fill="#9F914C" d="M211,248.5l-0.1,13.6l7.4,0l0.1-14C216.1,248.3,213.6,248.4,211,248.5z"/>
		<circle fill="#9F914C" cx="227.2" cy="289.9" r="2.5"/>
		<circle fill="#9F914C" cx="173" cy="254.1" r="2.6"/>
		<g>
			<path fill="#70733F" d="M167.9,258.8c0,1.2,0,2.3,0,3.5l0.1,3.5c0.1,2.3,0.2,4.7,0.2,7l-0.3-0.3l7.1,0.4l7.1,0.5l-0.3,0.4
				c-0.5-2.4-1-4.8-1.5-7.2c-0.5-2.4-0.9-4.8-1.4-7.2c0.6,2.4,1.2,4.7,1.8,7.1c0.6,2.4,1.2,4.8,1.7,7.1l0.1,0.4l-0.4,0l-7.1-0.4
				l-7.1-0.5l-0.3,0l0-0.3c0-2.3,0-4.7,0-7c0-1.2,0-2.3,0.1-3.5C167.8,261.2,167.8,260,167.9,258.8z"/>
		</g>
		<g>
			<path fill="#70733F" d="M218.9,259.8c1,1.6,2.3,3.1,3.6,4.5c1.4,1.3,2.9,2.5,4.5,3.4c1.6,0.9,3.4,1.7,5.3,2.1
				c1.8,0.5,3.8,0.6,5.7,0.6c-0.5,0.1-1,0.1-1.4,0.2c-0.5,0.1-1,0.2-1.5,0.1c-1,0-2,0-3-0.2c-1-0.1-1.9-0.4-2.9-0.7
				c-0.9-0.4-1.9-0.7-2.7-1.3c-1.7-1-3.3-2.3-4.6-3.8C220.7,263.3,219.6,261.6,218.9,259.8z"/>
		</g>
		<g>
			<path fill="#70733F" d="M138,256.8c-0.3,1.2-0.8,2.3-1.5,3.3c-0.7,1-1.5,2-2.4,2.8c-1,0.8-2.1,1.4-3.2,1.8
				c-1.2,0.4-2.4,0.5-3.6,0.4c1.2-0.3,2.3-0.6,3.3-1.2c1-0.5,2-1.1,2.9-1.9C135.2,260.6,136.7,258.8,138,256.8z"/>
		</g>
		<path fill="#00B0D1" d="M71.8,182.5c2.9,20.7,12.6,40.9,28,58.9c16.5,6.2,48.3,8.6,82.8,9.1c27.8,0.4,55.3-0.2,71.9-3.3l11.3-59.2
			c-16.2,6.6-43.4,14.2-83.5,14.2C140.8,202.1,99.2,191.4,71.8,182.5z"/>
		<path fill="#00B0D1" d="M265.9,187.9c-0.8,0.3-1.6,0.6-2.4,0.9l-11.1,24.4c0,0,21.6,7.2,25.5,31.5l38.8-31.4
			C290.3,194.7,265.9,187.9,265.9,187.9z"/>
		<path fill="#00B0D1" d="M73.8,197.7c-7.1,3.1-17,8-26.4,14.5l34,34c0.6-8.2,3.3-15.5,6.5-21.6C92.2,216.7,90.6,193.8,73.8,197.7z"
			/>
		<path fill="#00839B" d="M71.8,182.5c0.4,2.8,0.9,5.7,1.6,8.5c30.7,9.6,70.9,18.9,111.2,18.9c34.2,0,60.3-5.1,79.2-11.1l2.1-10.8
			c-16.2,6.6-43.4,14.2-83.5,14.2C140.8,202.1,99.2,191.4,71.8,182.5z"/>
		<path fill="#00839B" d="M47.4,212.2l34,34c0.3-4.2,1.2-8.2,2.4-11.9l-29-26.8C52.3,208.9,49.8,210.5,47.4,212.2z"/>
		<path fill="#00839B" d="M314.2,211.6c-0.1-0.1-0.2-0.1-0.3-0.2c-0.7-0.5-1.5-1-2.2-1.5c-0.1,0-0.1-0.1-0.2-0.1
			c-1.6-1.1-3.2-2.1-4.8-3l0,0l-32.3,26.8c1.1,2.2,2,4.7,2.7,7.4c0,0.1,0.1,0.1,0.1,0.2c0.1,0.3,0.1,0.6,0.2,0.8
			c0,0.1,0,0.2,0.1,0.3c0.2,0.8,0.3,1.5,0.4,2.3l38.8-31.4C315.9,212.8,315,212.2,314.2,211.6z"/>
		<path fill="#FFFFFF" d="M255.8,159.3c0,0-16.8-8-20.2-6.2c-3.4,1.8-4.2,19.9-4.2,19.9L255.8,159.3z"/>
		<path fill="#AC60A6" d="M212.6,208.9c0,0-10.2-3.8-10.8-9c-0.6-5.2,10.8-8.6,25.2-15.3c19.5-9,35.5-31.5,35.5-31.5
			s-11.9,10.6-21.9,15.3c-6.9,3.3-22.2,10.1-48.1,13.8c-25.9,3.7-54.8-3.5-73.3-9.5c-18.5-6-31.5-16-31.5-16l0.2,1.3l8,20.7
			c1.3,3.6,3.5,9.7,5.3,12.3c11,16.3,33.4,17.2,33.4,17.2c-2-8.7,4.2-14.3,4.2-14.3s5.5,23.3,23.2,25.3c0,0-7.3-9.3-4.3-14.5
			c0,0,12.4,16.8,40.1,14.5c0,0-9.3-3.2-8.8-14.3C189,205,198.6,211.4,212.6,208.9z"/>
		<path fill="#5B1B75" d="M266.3,151.2c0,1.5-1.2,2.7-2.7,2.7c-1.5,0-2.7-1.2-2.7-2.7c0-1.5,1.2-2.7,2.7-2.7
			C265.1,148.5,266.3,149.7,266.3,151.2"/>
		<path fill="#5B1B75" d="M200.5,208.5c-3.7-0.7-7.3-2.1-10.7-4c-0.6-0.4-1.2-0.8-1.8-1.2c-0.2,3.8,0,7.6,2,11
			c0.8,1.4,1.9,2.7,3.1,3.7c0.1,0.1,0.2,0.2,0.4,0.3c-7.6,0.1-15.7-1.4-22.5-4.9c-5.2-2.7-9.9-6.3-13.6-10.9c0.1,0.1-1,2-1.1,2.3
			c-0.3,0.8-0.6,1.7-0.6,2.6c-0.1,1.9,0.5,3.8,1.2,5.5c0.5,1.3,1.2,2.5,1.9,3.7c0.2,0.4,0.5,0.8,0.7,1.2c-0.3,0-0.6-0.1-0.9-0.2
			c-2.1-0.4-4.1-1.5-5.9-2.7c-4.6-3-7.9-7.7-10.5-12.5c-1.4-2.7-2.6-5.5-3.5-8.4c0.6,3,1.6,5.9,2.8,8.7c1.2,2.8,2.8,5.5,4.6,8
			c2.1,2.8,4.7,5.2,7.7,7c1.6,1,3.4,1.6,5.2,2.1c1.7,0.5,3.5,0.5,5.2,1c-0.5-0.6-0.8-1.1-1.2-1.6c-0.6-0.8-1.1-1.6-1.6-2.4
			c-0.9-1.5-1.8-3.1-2.4-4.8c-0.6-1.4-1.3-3.1-0.9-4.7c0.1,0.1,1.7,1.7,2.4,2.3c1.4,1.3,3,2.4,4.6,3.4c6.5,4.3,14.1,6.7,21.9,7.4
			c5,0.5,9.8,0.2,14.8-0.3c0.5-0.1,1.4-0.2,2-0.2c-2.2-0.8-4.5-1.3-6.6-2.4c-4.1-2-6.9-6.1-7.3-10.6c0-0.2,0-0.4,0-0.5
			c5.1,2.4,10.9,3.5,16.5,3.2c2-0.1,4.1-0.4,6.1-0.9C208.6,209.4,204.5,209.3,200.5,208.5z"/>
		<path fill="#FFFFFF" d="M108.6,167.7c0,0,15.2-10.7,18.9-9.5c3.6,1.2,7.5,18.9,7.5,18.9L108.6,167.7z"/>
		<path fill="#FFFFFF" d="M223.8,176c0,0-13.2-7.2-15.5-6.6c-2.2,0.6-8,12.8-8,12.8L223.8,176z"/>
		<path fill="#5B1B75" d="M93.1,172.5c-2.1-5.1-4.2-10.2-6.2-15.3l-0.9-2.4l2.2,1.4c3.2,2.1,6.7,4,10.1,5.8c3.5,1.8,7,3.4,10.6,4.9
			c7.2,3,14.6,5.6,22.1,7.7c15,4.2,30.5,6.5,46.1,6.9c7.8,0.2,15.6-0.2,23.3-1.3c7.7-1.1,15.3-2.8,22.7-5.3
			c7.4-2.4,14.6-5.6,21.4-9.4c6.8-3.8,13.4-8.2,19.2-13.5c-2.7,2.9-5.7,5.5-8.8,7.9c-3.1,2.4-6.4,4.7-9.7,6.7
			c-6.7,4.1-13.9,7.6-21.4,10.3c-14.9,5.4-30.9,7.9-46.7,7.5c-15.8-0.3-31.6-2.7-46.8-7.1c-7.6-2.2-15.1-4.9-22.3-8.2
			c-7.2-3.3-14.2-6.9-20.8-11.5l1.3-1c1.9,5.2,5.5,15.6,7.3,20.8"/>
		<g>
			<path fill="#5B1B75" d="M101.2,191.2c2.2,2.4,4.3,4.8,6.9,6.6c2.6,1.9,5.3,3.6,8.2,4.8c2.9,1.3,5.9,2.4,8.9,3.2
				c1.5,0.4,3.1,0.8,4.6,1.1c1.6,0.3,3.2,0.5,4.7,0.7l-0.9,1c-0.2-1.4-0.4-2.7-0.2-4.1c0.1-1.4,0.4-2.7,0.8-4
				c0.9-2.5,2.5-4.8,4.5-6.5c-0.8,1-1.5,2.1-2.1,3.2c-0.6,1.1-1,2.3-1.3,3.6c-0.3,1.2-0.5,2.5-0.4,3.7c0,1.2,0.2,2.5,0.5,3.7
				l0.2,1.1l-1.1,0c-3.3-0.1-6.6-0.7-9.8-1.5c-3.2-0.8-6.3-2-9.2-3.5c-3-1.4-5.7-3.4-8.2-5.5l-1.8-1.7c-0.6-0.6-1.1-1.3-1.6-1.9
				l-0.8-0.9l-0.7-1C102.1,192.6,101.7,191.9,101.2,191.2z"/>
		</g>
		<g>
			<path fill="#5B1B75" d="M167.4,165.3c0.1-0.3,0.2-0.5,0.3-0.7c0.6-1.1,1.8-1.9,3-2.5c-1.4,0.2-2.8,0.6-4,1.8
				c-0.6,0.6-0.9,1.3-1.2,2c-0.3,0.8-0.4,1.5-0.4,2.4l0.1,0c0,0.3,0,0.6,0,0.9c0.3,2,1.6,3.5,3,3.3c1.4-0.2,2.3-2,2-4
				C170,166.6,168.7,165.2,167.4,165.3z"/>
			<path fill="#5B1B75" d="M176.9,165.6c-0.1-0.3-0.1-0.5-0.3-0.7c-0.6-1.1-1.8-1.9-3-2.5c1.4,0.2,2.8,0.7,3.9,1.8
				c0.5,0.6,0.9,1.3,1.2,2.1c0.2,0.8,0.4,1.5,0.4,2.4l-0.1,0c0,0.3,0,0.6,0,0.9c-0.3,2-1.6,3.5-3,3.3c-1.4-0.2-2.3-2-2-4
				C174.3,167,175.6,165.5,176.9,165.6z"/>
		</g>
		<g>
			<path fill="#FFFFFF" d="M169.7,146.4c0.3,7.1-3.6,13.1-8.9,13.4c-5.2,0.3-9.8-5.2-10.1-12.3c-0.3-7.1,3.6-13.1,8.9-13.4
				C164.9,133.8,169.4,139.3,169.7,146.4"/>
			<path fill="#22004F" d="M165.8,147.8c0.1,3.4-2,6.3-4.8,6.5c-2.8,0.2-5.1-2.4-5.3-5.8c-0.1-3.4,2-6.3,4.8-6.5
				C163.3,141.7,165.6,144.4,165.8,147.8"/>
			<path fill="#FFFFFF" d="M198.4,140.8c0.5,10.3-5.2,18.9-12.7,19.4c-7.5,0.4-13.9-7.5-14.4-17.8c-0.5-10.3,5.2-18.9,12.7-19.4
				C191.4,122.6,197.9,130.6,198.4,140.8"/>
			<path fill="#22004F" d="M190.8,144.6c0.2,4.7-2.8,8.8-6.8,9c-4,0.2-7.3-3.4-7.5-8.1c-0.2-4.7,2.8-8.8,6.8-9
				C187.3,136.3,190.6,139.9,190.8,144.6"/>
		</g>
		<path fill="#22004F" d="M167.8,127.7c-7.8-0.6-15.6-0.1-23.4,1.3c0-2.1,0-4.1,0-6.2c7.6-3,15.2-5,22.8-6.1
			C167.5,120.4,167.7,124.1,167.8,127.7z"/>
		<path fill="#22004F" d="M202.2,120.7c-10-1.7-20.1-2.2-30.1-1.3c0.2-3.7,0.3-7.5,0.5-11.2c9.7,0.3,19.5,1.8,29.2,4.5
			C202,115.3,202.1,118,202.2,120.7z"/>
		<path fill="#5B1B75" d="M318.7,54.7c-11.1-8.1-30.9-11.5-40-11.4c3-2.8,5.5-5.9,7.1-9.8c1.9-4.8,2.7-10.1,2.1-15.3
			c-0.3-2.2-1.8-9.2-5.3-8.4c-0.8,0.2-1.2,1-1.5,1.8c-0.9,2.8-1.4,5.7-2,8.6c-1,4.9-1.9,10.4-3.2,15.6c-9-60.4-78.8-23.6-94.9-2.5
			c-10.6-0.7-26.3-4.3-48.5-8C100.9,20,104.1,0.9,104.1,0.9S80.2,12,91,27.9c-5.9,1.8-14.8,5.2-20.2,8.2
			C42.4,52,25.3,83.8,24.1,106.6c14.6-17.1,34.2-21.9,34.2-21.9s-13.5,5.5-23,24.4c-13.9,27.8,35.5,58.2,35.5,58.2
			s1.3-25.4,10.8-36.9c4.9,6.1,12.9,4.6,18.8,4.6c-4.2-8.3-4-17.9-4-17.9s2.6,7.6,9.1,10.9c6.8,3.5,19.1,3.8,19.1,3.8
			s-2.8-12.4,0.5-20.7c2.8-7.2,5.4-10.9,4.9-18.7c1.8,11.8,5.8,15.7,12.5,18.7c-2.5-9-2.5-13.7,2.1-24.9
			c11.2,18.5,62.3,42.8,73.4,44.2c0.8-2.8,3.2-21.8,10.7-33.6c4.4,12,2.3,18.7,1,27.6c8.8,2.4,18.7-2.6,24.5-6.4c0.3,1.9-0.5,7-1,9
			c-1,4.1-2.4,7.7-4.9,11.1c7.6,0.6,13.9-1.4,18.1-6.4c-3.8,10.5,8.9,12,13.8,13.6c1.1-3.3,1.6-6.8,2.1-10.3
			c0.9-6.2,1.5-12.4,2-18.7c0.1-1.9,0.1-4.2-1.3-5.3c0,0,0.1-0.1,0.1-0.1c0,0,25.2,10.2,47.4,33.4
			C341.1,124.7,355.8,81.6,318.7,54.7z"/>
		<g>
			<path fill="#22004F" d="M313.7,108.1c-0.4-3.9-1.4-7.7-2.7-11.4c-1.3-3.7-3.1-7.2-5.1-10.4c-4.1-6.6-9.6-12.2-15.9-16.6
				c-6.3-4.4-13.5-7.5-20.9-9.7c-7.4-2.2-15.1-3.4-22.9-4l1-2.5c2.1,1.8,3.8,3.8,5.4,5.9c1.6,2.1,3.1,4.3,4.4,6.6
				c2.6,4.6,4.5,9.6,5.5,14.8c1,5.2,1,10.5,0.2,15.6c-0.9,5.1-2.5,10.1-4.9,14.7c1.9-4.8,3.2-9.8,3.7-14.9c0.5-5.1,0.2-10.2-1-15.1
				c-1.1-4.9-3.1-9.6-5.7-13.9c-1.3-2.2-2.7-4.2-4.3-6.2c-1.6-1.9-3.3-3.8-5.1-5.4l-3.2-2.8l4.2,0.3c7.9,0.5,15.9,1.7,23.5,4
				l2.9,0.9c1,0.3,1.9,0.7,2.8,1c1.9,0.7,3.7,1.5,5.5,2.3c3.6,1.8,7.1,3.7,10.3,6.1c6.5,4.7,12,10.8,15.8,17.8
				c1.9,3.5,3.4,7.2,4.5,11C312.9,100.3,313.7,104.2,313.7,108.1z"/>
		</g>
		<g>
			<path fill="#22004F" d="M62.7,54.7c3.6-2.9,7.8-5.2,12.2-7c4.4-1.8,9-3,13.7-3.5c4.7-0.5,9.6-0.5,14.3,0.4c2.4,0.3,4.7,1,7,1.6
				c1.2,0.3,2.3,0.8,3.4,1.2l3.3,1.3l3.4,1.3l-3.4,1.4c-2.7,1.1-5.5,2.6-8.1,4.3c-2.6,1.6-5.1,3.4-7.5,5.4c-4.7,4-8.9,8.6-12.1,13.9
				c-3.2,5.3-5.5,11.1-6.7,17.2c-1.2,6.1-1.3,12.4-0.8,18.7c-1.3-6.2-1.6-12.6-0.8-19c0.5-3.2,1.1-6.3,2.2-9.4c1.1-3,2.3-6,3.9-8.8
				c3.2-5.6,7.5-10.6,12.4-14.8c4.9-4.2,10.4-7.7,16.5-10.2l-0.1,2.7l-3.2-1.2c-1.1-0.4-2.1-0.9-3.2-1.2c-2.2-0.6-4.4-1.4-6.6-1.7
				c-4.5-0.9-9.1-1.1-13.6-0.8l-1.7,0.1c-0.6,0-1.1,0.1-1.7,0.2l-3.4,0.5L78.7,48c-1.1,0.3-2.2,0.6-3.3,0.9
				C71,50.3,66.7,52.2,62.7,54.7z"/>
		</g>
		<g>
			<path fill="#22004F" d="M217.9,130.4c-9.1-2.4-18-5.6-26.7-9.3c-8.7-3.7-17.1-8.1-25.1-13.2c-4-2.6-7.8-5.4-11.4-8.6
				c-3.6-3.2-6.9-6.6-9.6-10.6c-2.7-4-4.8-8.5-5.5-13.3c-0.7-4.8,0.3-9.7,2.5-13.9c-1.6,4.4-2.1,9.2-1,13.6c1,4.5,3.2,8.5,5.9,12.2
				c2.8,3.6,6.1,6.9,9.6,9.9c3.5,3,7.3,5.7,11.2,8.2c3.9,2.6,7.9,4.9,12,7.2c4.1,2.3,8.2,4.4,12.4,6.4
				C200.6,123.1,209.2,126.9,217.9,130.4z"/>
		</g>
		<path fill="#D0C678" d="M123.3,50.4c0,0,35-41.1,48.9-42.3c23-2,55.9,41.3,55.9,41.3s-58.4-27.2-72.4,5.3c0,0-3.8-5.8-13.1-7.2
			C128.7,45.3,123.3,50.4,123.3,50.4"/>
	</g>
</g>
<g id="Grogg_Hair_Front">
</g>
<g id="labels">
</g>
</svg>
