<?xml version="1.0" encoding="utf-8"?>
<!-- Generator: Adobe Illustrator 22.0.1, SVG Export Plug-In . SVG Version: 6.00 Build 0)  -->
<!DOCTYPE svg PUBLIC "-//W3C//DTD SVG 1.1//EN" "http://www.w3.org/Graphics/SVG/1.1/DTD/svg11.dtd">
<svg version="1.1" xmlns="http://www.w3.org/2000/svg" xmlns:xlink="http://www.w3.org/1999/xlink" x="0px" y="0px"
	 viewBox="0 0 179 194" enable-background="new 0 0 179 194" xml:space="preserve" width="179" height="194" preserveAspectRatio="none">
<g id="Grok_Cast_Shadow">
</g>
<g id="Grok_Hair">
</g>
<g id="Grok_Right_Leg_Front">
</g>
<g id="Grok_Right_Leg_Middle">
</g>
<g id="Grok_Right_Leg_Back">
</g>
<g id="Grok_Left_Leg_Front">
</g>
<g id="Grok_Left_Leg_Middle">
</g>
<g id="Grok_Left_Leg_Back">
</g>
<g id="Grok_Right_Arm">
</g>
<g id="Grok_Body">
</g>
<g id="Grok_Left_Arm">
</g>
<g id="Grok_Right_Ear">
</g>
<g id="Grok_Left_Ear">
</g>
<g id="Grok_Head">
</g>
<g id="Grok_Eyes">
</g>
<g id="Grok_Eyebrows">
</g>
<g id="Grok_Glasses_and_Eyebrows">
</g>
<g id="Grok_Nose">
</g>
<g id="Text">
	<g id="Grok_Moustache">
		<path fill="#B4B7B8" d="M72.8,80.8c0,0-0.3,6.8,3.7,12.6c4,5.8,8.3,7.3,8.3,7.3l10-9.9l-0.5-8l-2.6-3.4
			C91.8,79.5,72.8,81,72.8,80.8z"/>
		<path fill="#B4B7B8" d="M48,64.5c0,0,0.9,9-5.6,16.5l15.8-3.6l6.3,19.1l17.4-17.3l8-15.6l-5-5.9L48,64.5z"/>
		<path fill="#8CD3D4" d="M134.9,99.8l-0.3,10c7-1,13.9-1.9,20.5-7.1c0,0,4.6,9.1,6.6,7.8c2-1.3-2.8-9.5-2.8-9.5s10,8,10.6,5.2
			c0.6-2.9-9.4-9.6-9.4-9.6s8.5,2,8.7,0c0.2-2-7.7-4.6-10-4.5c-3.8,0.1-5.3,1.9-5.3,1.9s2.8-8.6,1.4-9.1c-1.4-0.5-3.3,1.6-4.4,4.5
			c-1.1,3-0.8,6.5-0.8,6.5C145.3,99.8,140.3,100.4,134.9,99.8z"/>
		<path opacity="0.1" fill="#384E7D" d="M154.9,175.4c0,9.5-34.8,17.2-77.7,17.2c-42.9,0-77.7-7.7-77.7-17.2
			c0-9.5,34.8-17.2,77.7-17.2C120.1,158.2,154.9,165.9,154.9,175.4"/>
		<g>
			<g>
				<path fill="#343A43" d="M121.9,171.4c0.7-0.2,3.1-1,3.7-1.2c17.5-4.5,15.8,5.2,15.8,5.2c-18.3,3.7-28.2-0.1-28.2-0.1l-1.6-13.5
					l9-0.6L121.9,171.4z"/>
				<path fill="#D1D3D4" d="M133.7,169L133.7,169c6.8,0,7.8,3.6,7.9,5.4l0,0c0,0.1,0,0.3,0,0.4c0,0,0,0,0,0c0,0.1,0,0.2,0,0.3
					c0,0,0,0,0,0c0,0,0,0.1,0,0.1c0,0,0,0,0,0c0,0,0,0.1,0,0.1c0,0,0,0,0,0c0,0,0,0,0,0.1c0,0,0,0,0,0c0,0-4.8,1.4-8.5,1.4
					c0,0,0.4-1.7,0.6-3.6C133.9,171.3,133.8,170.4,133.7,169z"/>
				<path fill="#D1D3D4" d="M125.1,177.8c-8.9,0-11.3-0.7-11.4-0.6l-0.5-1.8l0,0c0.1,0,6.4,1.8,28.4,0.1c0,0,0,0.7-0.7,1.3
					S129.4,177.9,125.1,177.8z"/>
				<path fill="none" stroke="#A7A9AC" stroke-width="0.4425" stroke-miterlimit="10" d="M122.1,176.2c4.4,0.1,10.7,0,19.5-0.7"/>
				<path fill="none" stroke="#A7A9AC" stroke-width="0.4425" stroke-miterlimit="10" d="M112.9,175.4c0,0,2.3,0.7,9.2,0.9"/>
			</g>
			<polygon fill="#A69C7F" points="113.8,136.2 123.1,168.5 110.7,170.6 109.8,136.9 			"/>
		</g>
		<g>
			<g>
				<path fill="#343A43" d="M89.9,166.2c0.6-0.2,2.7-0.9,3.2-1c15.4-3.9,13.9,4.6,13.9,4.6c-16.1,3.2-24.8-0.1-24.8-0.1l-1.4-11.9
					l7.9-0.5L89.9,166.2z"/>
				<path fill="#FFFFFF" d="M100.3,164.1L100.3,164.1c6,0,6.9,3.2,6.9,4.7l0,0c0,0.1,0,0.3,0,0.4c0,0,0,0,0,0c0,0.1,0,0.2,0,0.3
					c0,0,0,0,0,0c0,0,0,0.1,0,0.1c0,0,0,0,0,0c0,0,0,0.1,0,0.1c0,0,0,0,0,0c0,0,0,0,0,0c0,0,0,0,0,0c0,0-4.2,1.2-7.5,1.2
					c0,0,0.3-1.5,0.6-3.1C100.5,166.1,100.4,165.3,100.3,164.1z"/>
				<path fill="#FFFFFF" d="M92.7,171.8c-7.8,0-9.9-0.7-10-0.6l-0.5-1.5l0,0c0.1,0,5.6,1.6,25,0.1c0,0,0,0.6-0.6,1.2
					C106,171.5,96.5,171.9,92.7,171.8z"/>
				<path fill="none" stroke="#A7A9AC" stroke-width="0.3892" stroke-miterlimit="10" d="M90.1,170.4c3.9,0.1,9.4,0,17.2-0.7"/>
				<path fill="none" stroke="#A7A9AC" stroke-width="0.3892" stroke-miterlimit="10" d="M82,169.7c0,0,2,0.6,8.1,0.8"/>
			</g>
			<polygon fill="#A69C7F" points="82.4,135.3 90.9,163.6 80.1,165.5 78.9,135.9 			"/>
		</g>
		<g>
			<g>
				<path fill="#343A43" d="M58.6,166.2c0.6-0.2,2.7-0.9,3.2-1c15.4-3.9,13.9,4.6,13.9,4.6c-16.1,3.2-24.8-0.1-24.8-0.1l-1.4-11.9
					l7.9-0.5L58.6,166.2z"/>
				<path fill="#FFFFFF" d="M69,164.1L69,164.1c6,0,6.9,3.2,6.9,4.7l0,0c0,0.1,0,0.3,0,0.4c0,0,0,0,0,0c0,0.1,0,0.2,0,0.3
					c0,0,0,0,0,0c0,0,0,0.1,0,0.1c0,0,0,0,0,0c0,0,0,0.1,0,0.1c0,0,0,0,0,0c0,0,0,0,0,0c0,0,0,0,0,0c0,0-4.2,1.2-7.5,1.2
					c0,0,0.3-1.5,0.6-3.1C69.2,166.1,69.1,165.3,69,164.1z"/>
				<path fill="#FFFFFF" d="M61.4,171.8c-7.8,0-9.9-0.7-10-0.6l-0.5-1.5l0,0c0.1,0,5.6,1.6,25,0.1c0,0,0,0.6-0.6,1.2
					C74.7,171.5,65.2,171.9,61.4,171.8z"/>
				<path fill="none" stroke="#A7A9AC" stroke-width="0.3892" stroke-miterlimit="10" d="M58.7,170.4c3.9,0.1,9.4,0,17.2-0.7"/>
				<path fill="none" stroke="#A7A9AC" stroke-width="0.3892" stroke-miterlimit="10" d="M50.7,169.7c0,0,2,0.6,8.1,0.8"/>
			</g>
			<polygon fill="#A69C7F" points="51.1,135.3 59.6,163.6 48.7,165.5 47.6,135.9 			"/>
		</g>
		<path fill="#D1C6A1" d="M123.1,131.3c0,8.3-21.1,14.5-48.1,13.5c-29.8-1.1-53.3-3.6-44.2-25.6c8.1-19.5,31.1-13.1,53.8-8.1
			C113.7,117.4,123.1,119.8,123.1,131.3z"/>
		<g>
			<g>
				<path fill="#4B5461" d="M59.8,172c-0.7-0.2-3.1-1-3.7-1.2c-17.5-4.5-15.8,5.2-15.8,5.2c18.3,3.7,28.2-0.1,28.2-0.1l1.6-13.5
					l-9-0.6L59.8,172z"/>
				<path fill="#FFFFFF" d="M48,169.6L48,169.6c-6.8,0-7.8,3.6-7.9,5.4l0,0c0,0.1,0,0.3,0,0.4c0,0,0,0,0,0c0,0.1,0,0.2,0,0.3
					c0,0,0,0,0,0c0,0,0,0.1,0,0.1c0,0,0,0,0,0c0,0,0,0.1,0,0.1c0,0,0,0,0,0c0,0,0,0,0,0.1c0,0,0,0,0,0c0,0,4.8,1.4,8.5,1.4
					c0,0-0.4-1.7-0.6-3.6C47.8,171.9,47.9,170.9,48,169.6z"/>
				<path fill="#FFFFFF" d="M56.6,178.4c8.9,0,11.3-0.7,11.4-0.6l0.5-1.8l0,0c-0.1,0-6.4,1.8-28.4,0.1c0,0,0,0.7,0.7,1.3
					S52.3,178.5,56.6,178.4z"/>
				<path fill="none" stroke="#A7A9AC" stroke-width="0.4425" stroke-miterlimit="10" d="M59.6,176.8c-4.4,0.1-10.7,0-19.5-0.7"/>
				<path fill="none" stroke="#A7A9AC" stroke-width="0.4425" stroke-miterlimit="10" d="M68.8,175.9c0,0-2.3,0.7-9.2,0.9"/>
			</g>
			<polygon fill="#D1C6A1" points="64.6,136 58.6,169 71,171.2 68.6,136.7 			"/>
		</g>
		<g>
			<g>
				<path fill="#4B5461" d="M29.8,172c-0.7-0.2-3.1-1-3.7-1.2c-17.5-4.5-15.8,5.2-15.8,5.2c18.3,3.7,28.2-0.1,28.2-0.1l1.6-13.5
					l-9-0.6L29.8,172z"/>
				<path fill="#FFFFFF" d="M18,169.6L18,169.6c-6.8,0-7.8,3.6-7.9,5.4l0,0c0,0.1,0,0.3,0,0.4c0,0,0,0,0,0c0,0.1,0,0.2,0,0.3
					c0,0,0,0,0,0c0,0,0,0.1,0,0.1c0,0,0,0,0,0c0,0,0,0.1,0,0.1c0,0,0,0,0,0c0,0,0,0,0,0.1c0,0,0,0,0,0c0,0,4.8,1.4,8.5,1.4
					c0,0-0.4-1.7-0.6-3.6C17.7,171.9,17.8,170.9,18,169.6z"/>
				<path fill="#FFFFFF" d="M26.5,178.4c8.9,0,11.3-0.7,11.4-0.6l0.5-1.8l0,0c-0.1,0-6.4,1.8-28.4,0.1c0,0,0,0.7,0.7,1.3
					C11.4,178,22.3,178.5,26.5,178.4z"/>
				<path fill="none" stroke="#A7A9AC" stroke-width="0.4425" stroke-miterlimit="10" d="M29.6,176.8c-4.4,0.1-10.7,0-19.5-0.7"/>
				<path fill="none" stroke="#A7A9AC" stroke-width="0.4425" stroke-miterlimit="10" d="M38.7,175.9c0,0-2.3,0.7-9.2,0.9"/>
			</g>
			<polygon fill="#D1C6A1" points="34.6,136 28.6,169 40.9,171.2 38.6,136.7 			"/>
		</g>
		<polygon fill="#4B5461" points="115.2,126.1 90.2,126.1 92.4,119 115.2,119.4 		"/>
		<path fill="#6E6157" d="M94.7,68.5c-22.8,32.2-26.4,67.4-26.4,67.4l24.4-0.3l0.5-17.9l9.7-0.2V67.6L94.7,68.5z"/>
		<path fill="#6E6157" d="M119,82.9c0,0,4.4,12.5,10.2,14.1c7.5,2,15.3,0.7,15.3,0.7l0.5,12.2c0,0-10.4,2.7-20.2-2.7
			c-9.7-5.4-9.5-20.7-9.5-20.7L119,82.9z"/>
		<path fill="#B07549" d="M133.2,108.5c1-2-0.6-4.9-3.6-6.4c-3-1.5-6.3-1.2-7.3,0.8c-0.3,0.7-0.4,1.5-0.2,2.2
			c0.8,0.8,1.8,1.5,2.8,2.1c2.3,1.3,4.6,2.1,6.9,2.6C132.4,109.5,132.9,109,133.2,108.5z"/>
		<polygon fill="#6E6157" points="113.9,67.6 102.9,67.6 102.9,117.5 114.2,117.2 114.7,135.2 131.7,134.6 		"/>
		<polygon fill="#F9D773" points="111.7,77.3 114.3,119.6 93.1,120 91.7,77.6 		"/>
		<g>
			<path fill="#A69C7F" d="M107.2,125.2c0.2,1.6,0.4,3.2,0.5,4.9c0.1,1.6,0.3,3.2,0.4,4.9l0,0.4l-0.4,0.1c-2.6,0.5-5.3,0.8-7.9,1.2
				l-0.7,0.1l0.1-0.7c0.4-1.9,0.7-3.8,1.1-5.6c0.4-1.9,0.8-3.7,1.3-5.6c-0.2,1.9-0.4,3.8-0.7,5.7c-0.2,1.9-0.5,3.8-0.8,5.7l-0.5-0.6
				c2.6-0.4,5.3-0.8,8-1.2l-0.4,0.5c0-1.6,0-3.3,0-4.9C107.1,128.5,107.1,126.8,107.2,125.2z"/>
		</g>
		<polygon fill="#E2E5E7" points="109.1,119.4 109.2,126.3 99.9,126.3 99.6,119.7 		"/>
		<ellipse fill="none" stroke="#CFB35F" stroke-width="0.5" stroke-miterlimit="10" cx="103" cy="95.5" rx="1.3" ry="1.1"/>
		<ellipse fill="none" stroke="#CFB35F" stroke-width="0.5" stroke-miterlimit="10" cx="102.9" cy="107.3" rx="1.3" ry="1.1"/>
		<ellipse fill="none" stroke="#CFB35F" stroke-width="0.5" stroke-miterlimit="10" cx="103" cy="116.1" rx="1.3" ry="1.1"/>
		<g>
			<g>
				<path fill="#50463F" d="M85.4,118.6l-0.1,6.2l-0.1,6.4l0,0.3l-0.3,0c-2,0-4,0-6,0l-6,0l-0.5,0l0.1-0.5c0.6-4.2,1.1-8.5,1.7-12.7
					l0-0.3l0.3,0l5.5,0.2L85.4,118.6z M85.4,118.6l-5.5,0.1l-5.4,0l0.3-0.3c-0.4,4.3-1,8.5-1.5,12.8l-0.4-0.5l6,0.1c2,0,4,0,6,0.1
					l-0.3,0.3L85,125L85.4,118.6z"/>
			</g>
		</g>
		<g>
			<path fill="#50463F" d="M127.1,119.5c-2,0.2-4,0.3-6,0.4l0.3-0.3c0.2,1.9,0.3,3.9,0.5,5.8c0.1,1.9,0.2,3.9,0.3,5.8l-0.4-0.4
				c1.3,0,2.7,0,4,0c1.3,0,2.7,0,4,0.1c-1.3,0.2-2.6,0.3-4,0.4c-1.3,0.1-2.7,0.2-4,0.3l-0.4,0l0-0.4c-0.2-1.9-0.3-3.9-0.4-5.8
				c-0.1-1.9-0.2-3.9-0.2-5.8l0-0.3l0.3,0C123.1,119.3,125.1,119.4,127.1,119.5z"/>
		</g>
		<g>
			<g>
				<path fill="#4B5461" d="M87.6,172c-0.7-0.2-3.1-1-3.7-1.2c-17.5-4.5-15.8,5.2-15.8,5.2c18.3,3.7,28.2-0.1,28.2-0.1l1.6-13.5
					l-9-0.6L87.6,172z"/>
				<path fill="#FFFFFF" d="M75.8,169.6L75.8,169.6c-6.8,0-7.8,3.6-7.9,5.4l0,0c0,0.1,0,0.3,0,0.4c0,0,0,0,0,0c0,0.1,0,0.2,0,0.3
					c0,0,0,0,0,0c0,0,0,0.1,0,0.1c0,0,0,0,0,0c0,0,0,0.1,0,0.1c0,0,0,0,0,0c0,0,0,0,0,0.1c0,0,0,0,0,0c0,0,4.8,1.4,8.5,1.4
					c0,0-0.4-1.7-0.6-3.6C75.6,171.9,75.7,170.9,75.8,169.6z"/>
				<path fill="#FFFFFF" d="M84.4,178.4c8.9,0,11.3-0.7,11.4-0.6l0.5-1.8l0,0c-0.1,0-6.4,1.8-28.4,0.1c0,0,0,0.7,0.7,1.3
					C69.3,178,80.1,178.5,84.4,178.4z"/>
				<path fill="none" stroke="#A7A9AC" stroke-width="0.4425" stroke-miterlimit="10" d="M87.4,176.8c-4.4,0.1-10.7,0-19.5-0.7"/>
				<path fill="none" stroke="#A7A9AC" stroke-width="0.4425" stroke-miterlimit="10" d="M96.6,175.9c0,0-2.3,0.7-9.2,0.9"/>
			</g>
			<polygon fill="#D1C6A1" points="92.4,136 86.4,169 98.8,171.2 96.4,136.7 			"/>
		</g>
		<path fill="#B4B7B8" d="M134.1,71.2c-1.1,7.2-2.2,12.5,3.5,19.9c0,0-15-0.3-19.5-8.1c-4.6-7.8-2.4-6-2.3-6.6
			c0.2-0.6,9.2-5.5,9.2-5.5L134.1,71.2"/>
		<path fill="#E2E5E7" d="M140.5,55.8c0,0,16.2-20.5,1.3-38l-4.3,11.2c0,0-1.7-22.9-32-27.7l9.4,12.9c-32.7-5.4-68.7,7.4-69.3,35.9
			l95,5.6"/>
		<g>
			<path fill="#7EA6B3" d="M119.2,37.6c0.7-2.4,0.9-4.9,0.7-7.3c-0.2-2.4-0.9-4.7-2.2-6.7c-0.7-1-1.3-2-2.2-2.8
				c-0.7-1-1.7-1.7-2.6-2.5c-0.4-0.4-1-0.7-1.5-1.1l-1.5-1.1c-1.1-0.6-2.1-1.2-3.2-1.9c1.2,0.4,2.4,0.8,3.5,1.3
				c1.1,0.6,2.3,1.1,3.3,1.9c2.1,1.4,4,3.3,5.3,5.5c1.3,2.3,2,4.8,2,7.4C121,32.8,120.4,35.4,119.2,37.6z"/>
		</g>
		<g>
			<path fill="#7EA6B3" d="M85.1,37.8c-1.3-1.8-2.8-3.5-4.3-5c-1.6-1.5-3.3-2.9-5.1-4.1c-1.8-1.2-3.7-2.2-5.8-2.9
				c-2-0.8-4.2-1.2-6.4-1.7c2.2-0.1,4.5,0,6.7,0.6c1.1,0.2,2.2,0.7,3.2,1.1c1,0.5,2.1,1,3,1.7c1.9,1.3,3.7,2.8,5.1,4.5
				C83.1,33.7,84.3,35.7,85.1,37.8z"/>
		</g>
		<g>
			<path fill="#7EA6B3" d="M117.1,37.7c-0.5-1.5-1.2-2.9-2.1-4.2c-0.8-1.3-1.7-2.5-2.7-3.7c-2-2.4-4.2-4.4-6.7-6.3l-1.8-1.4
				l-1.9-1.3l-1-0.6l-1-0.6c-0.7-0.4-1.3-0.8-2-1.2c-1.4-0.7-2.7-1.4-4.1-2.2c-1.4-0.7-2.8-1.3-4.2-2c1.5,0.4,3,0.9,4.5,1.3
				c1.5,0.6,2.9,1.1,4.4,1.8c2.8,1.4,5.6,2.9,8.1,4.9c2.5,2,4.8,4.2,6.7,6.8C115,31.7,116.5,34.6,117.1,37.7z"/>
		</g>
		<g>
			<path fill="#8DD3D5" d="M168.5,44.4c-1-2.1-16.8-0.8-28.7,4.8c-11.9,5.6-13.9,11.5-13.9,11.5l0.8,9.4c0,0,14.4,1.3,24.6-3.1
				C161.5,62.6,169.5,46.5,168.5,44.4z"/>
			<path fill="#00AFBA" d="M139.7,65.3c-0.4-5.4-4.3-4.1-4.3-4.1s8.2-7.7,19.4-11c4.6-1.4,9.3-2.1,13.1-2.5
				c-2.1,5.5-8.7,15.9-16.5,19.3c-4.1,1.8-8.8,2.6-13,3C139.2,68.7,139.8,67.1,139.7,65.3z"/>
		</g>
		<g>
			<path fill="#8DD3D5" d="M20.3,36c2.2-2,24.6,1.6,39.9,9c15.3,7.5,17,26.5,17,26.5L72,68.3c0,0-21.3-0.7-34.6-6.7
				C24.1,55.6,18.1,38,20.3,36z"/>
			<path fill="#00AFBA" d="M54.9,61.5c2.4-5.4,7.7-3.6,7.7-3.6s-9.3-9.1-24.3-14c-6.2-2-12.7-3.5-18.1-4.4c1.2,6,7.1,17.5,17.3,22.1
				c5.3,2.4,11.9,3.9,17.8,4.9C54.4,65,54.1,63.3,54.9,61.5z"/>
		</g>
		<path fill="#8DD3D5" d="M139.7,45.9c0,0-11.7-8.5-42.5-8.8c-30.8-0.3-37.3,9.4-37.3,9.4s4.3,39.5,45.6,41.8
			c9.2,0.5,13.3-3.7,18.2-7.4c3.1-2.3,7.1-3.4,9-6.4C140.2,62,139.7,45.9,139.7,45.9z"/>
		<polygon fill="#9B8F78" points="106.3,78.7 121.9,95.2 116.1,98.8 120.1,100.5 114.1,126.3 109.8,84.9 94.3,85.3 93.2,126.8 
			84.2,101 88,96.1 81.6,94.9 97.3,77.4 		"/>
		<path fill="#FFFFFF" d="M118.4,63.9c-0.4,3.2,2.2,6.2,5.8,6.6c3.6,0.4,6.8-1.8,7.2-5.1c0.4-3.2-2.2-6.2-5.8-6.6
			C122,58.4,118.8,60.7,118.4,63.9z"/>
		<path fill="#FFFFFF" d="M93.4,61.2c0.4,3.2-2.5,6.3-6.4,6.8c-3.9,0.5-7.5-1.7-7.9-5c-0.4-3.2,2.5-6.3,6.4-6.8
			C89.5,55.7,93,58,93.4,61.2z"/>
		<path fill="#00313B" d="M122.4,65.2c0,1.5,1.1,2.6,2.4,2.6c1.3,0,2.4-1.2,2.4-2.7c0-1.5-1.1-2.6-2.4-2.6
			C123.5,62.6,122.4,63.7,122.4,65.2z"/>
		<path fill="#00313B" d="M83.9,62.3c0,1.5,1.1,2.6,2.4,2.6c1.3,0,2.4-1.2,2.4-2.7c0-1.5-1.1-2.6-2.4-2.6
			C84.9,59.7,83.9,60.9,83.9,62.3z"/>
		<path fill="#FFFFFF" d="M111.5,54c-0.8-5.9,0.7-13.2,4.7-15.9c2.5-1.7,1.9,7.1,1.9,7.1s14.8-16.1,14.3-9.4
			c-0.5,6.7-5.6,9.4-5.6,9.4s13.7-6.4,16.5-3.5c1.3,1.3-4,7.7-4,7.7s18.5,1.7,2.8,7.6c-3.8-1.4-11.7-2.8-11.7-3.4
			c0-0.6-10.1-0.3-10.1-0.3L111.5,54z"/>
		<path fill="#FFFFFF" d="M100.3,53.2c1.6-5.8,1.1-13.2-2.5-16.4c-2.2-2-2.8,6.8-2.8,6.8S82.4,25.7,82,32.4s4.3,10,4.3,10
			s-12.8-8.2-15.9-5.6c-1.4,1.2,4.6,9.1,4.6,9.1s-20.2-1.7-5.4,6.2c4-0.9,12-1.2,12-1.8c0-0.6,10.1,1.1,10.1,1.1L100.3,53.2z"/>
		<path fill="none" stroke="#02313B" stroke-width="3" stroke-miterlimit="10" d="M139.9,56.6c0,0-14-5.3-28.9-2.4
			c0,0-6,21.8,14.6,22.5C141.6,77.2,139.9,56.6,139.9,56.6z"/>
		<path fill="none" stroke="#02313B" stroke-width="3" stroke-miterlimit="10" d="M72.1,52c0,0,14.6-3.4,29,1.5
			c0,0,3,22.4-17.5,20.4C67.6,72.3,72.1,52,72.1,52z"/>
		<line fill="none" stroke="#02313B" stroke-width="2" stroke-miterlimit="10" x1="110.5" y1="56.5" x2="101.1" y2="55.8"/>
		<path fill="none" stroke="#02313B" stroke-width="2" stroke-miterlimit="10" d="M110.5,63.1c0,0-4.7-6.5-9.8-0.7"/>
		<g>
			<path fill="#8CD3D4" d="M69.9,101.6l-9.1-2.7c-1.6,7.4-2.5,14,1.2,21.5c0,0-10,2.1-9.2,4.4c0.8,2.3,9.9-0.3,9.9-0.3
				s-10.3,7.7-7.6,9c2.6,1.3,11.7-6.7,11.7-6.7s-4.1,7.7-2.2,8.4c1.9,0.6,6.4-6.3,6.9-8.5c0.9-3.7-0.5-5.6-0.5-5.6s7.6,4.8,8.5,3.6
				c0.9-1.2-0.7-3.6-3.3-5.4c-2.6-1.8-6.1-2.5-6.1-2.5C67.3,111.7,67.9,106.7,69.9,101.6z"/>
			<g>
				<path fill="#6E6157" d="M88.1,89.3c0,0-12.9,3.2-15,8.8c-2.7,7.3-2.2,15.2-2.2,15.2l-12.2-0.7c0,0-1.5-10.6,4.6-19.8
					c6.4-9.6,22.5-7.5,22.5-7.5L88.1,89.3z"/>
				<path fill="#B07549" d="M61.4,96.3c0.1,0.3,0.3,0.6,0.6,0.8c1.6,1.6,4.8,0.9,7.2-1.5c2.4-2.4,3-5.7,1.4-7.2
					c-0.3-0.3-0.6-0.6-1-0.7c-1.4,0.8-2.9,1.8-4.2,3C63.5,92.2,62.2,94.2,61.4,96.3z"/>
			</g>
		</g>
		<g>
			<path fill="#E2E5E7" d="M121.4,79.6c1.4,7.5-3,13.5-8.1,16.2l0-3.1l-9.9,11.6L96.9,93l-2.6,4.6c-5.6-3.5-11.2-10.3-9.2-19.4
				l20.2-4.1L121.4,79.6z"/>
			<path fill="#FFFFFF" d="M105.7,66.5c24.2,0.9,18.8,17.5,42.9,15.3c0,0-27.6,7.8-43.2-5.1c0,0-17,15.1-43.4,1.5
				C86.5,81,80.8,65.5,105.7,66.5z"/>
			<polygon fill="#FFFFFF" points="112.5,80.3 110.4,86 106.8,82.7 102.5,88.2 101.8,82.4 97.6,85.6 94.9,80.5 99.5,76.2 
				104.9,77.1 109,76.6 			"/>
			<g>
				<path fill="#B4B7B8" d="M108.6,72c0.8,0.4,1.4,1,1.9,1.6c0.5,0.7,1,1.4,1.3,2.2c0.3,0.8,0.5,1.7,0.5,2.5c0,0.9-0.1,1.7-0.3,2.5
					c-0.2-0.8-0.2-1.6-0.4-2.4c-0.2-0.8-0.4-1.5-0.7-2.3c-0.3-0.7-0.6-1.4-1-2.1C109.5,73.4,109,72.7,108.6,72z"/>
			</g>
			<g>
				<path fill="#B4B7B8" d="M106.2,72.8c0.6,0.7,1,1.6,1.3,2.4c0.3,0.9,0.5,1.8,0.5,2.7c0.1,1.8-0.3,3.7-1.2,5.3
					c0.1-0.9,0.2-1.8,0.2-2.7c0.1-0.9,0.1-1.7,0-2.6c0-0.9-0.1-1.7-0.3-2.6C106.6,74.5,106.4,73.6,106.2,72.8z"/>
			</g>
			<g>
				<path fill="#B4B7B8" d="M102.5,73c0.4,1,0.3,2.3-0.1,3.3c-0.4,1.1-1.1,2-2,2.8c-0.4,0.4-0.9,0.7-1.3,1c-0.5,0.3-0.9,0.6-1.4,0.8
					c-0.5,0.2-1,0.5-1.5,0.6c-0.5,0.2-1,0.3-1.6,0.5c0.4-0.3,0.9-0.6,1.4-0.9l1.3-0.9l1.3-0.9c0.4-0.3,0.8-0.6,1.2-1
					c0.8-0.7,1.4-1.5,1.9-2.4C102.2,75.1,102.5,74.1,102.5,73z"/>
			</g>
			<path fill="#00AFBA" d="M96.9,68.5c0,3.3,3.4,6.7,7.9,6.6c4.5,0,8.5-3.4,8.5-6.8c0-3.3-3.7-6-8.2-6
				C100.5,62.4,96.9,65.1,96.9,68.5z"/>
		</g>
	</g>
</g>
</svg>
