<?xml version="1.0" encoding="utf-8"?>
<!-- Generator: Adobe Illustrator 21.1.0, SVG Export Plug-In . SVG Version: 6.00 Build 0)  -->
<svg version="1.1" xmlns="http://www.w3.org/2000/svg" xmlns:xlink="http://www.w3.org/1999/xlink" x="0px" y="0px"
	 viewBox="0 0 156 210" enable-background="new 0 0 156 210" xml:space="preserve" width="156" height="210" preserveAspectRatio="none">
<g id="Winnie_Cast_Shadow">
</g>
<g id="Winnie_Back_Tentacles">
</g>
<g id="Winnie_Hair">
</g>
<g id="Winnie_Tentacle_2_">
</g>
<g id="Winnie_Tentacle_1_">
</g>
<g id="Winnie_Left_Leg">
</g>
<g id="Winnie_Right_Leg">
</g>
<g id="Winnie_Right_Arm">
</g>
<g id="Winnie_Left_Arm">
</g>
<g id="Winnie_Head">
</g>
<g id="Winnie_Tentacle">
</g>
<g id="Winnie_5th_Headband">
</g>
<g id="Winnie_Mouth_Nose_Chin">
</g>
<g id="Winnie_Body">
</g>
<g id="Wninie_3rd_Grade_Dress">
</g>
<g id="Winnie_Flower">
</g>
<g id="Winnie_4th_Grade_Dress">
</g>
<g id="Winnie_5th_Grade_Dress">
</g>
<g id="Winnie_Eyes">
	<g>
		<g opacity="0.1">
			<g>
				<path fill="#384E7D" d="M145.4,198.3c0,6-29.8,10.8-66.6,10.8c-36.8,0-66.6-4.8-66.6-10.8c0-6,29.8-10.8,66.6-10.8
					C115.6,187.5,145.4,192.4,145.4,198.3"/>
			</g>
		</g>
		<path fill="#0092A1" d="M81.2,128.6c0-0.4-1.1-11.4-0.2-19.9c0.8-10.2,7.6-15.6,10.1-16.1c2.6-0.4,2.7,3.2,2.8,4.8
			c0.7,9.7-6.5,47.2,3,54.8c5.8,4.6,11.1-1.1,14.3-5.7c0.1,4.2-2.7,16.5-16.5,13.5c-2.1-0.5-3.9-1.3-5.4-2.5c-1.2-0.9-2.2-2-3.1-3.1
			C79.6,145.3,81.2,129.1,81.2,128.6"/>
		<path fill="#FFD628" d="M97,152.2c-0.1-0.1-0.1-0.1-0.2-0.2c-0.1-0.1-0.1-0.1-0.2-0.2c-1.2-1.1-2-2.6-2.7-4.2
			c-0.1-0.3-0.2-0.6-0.4-1c0,0,0-0.1,0-0.1c-0.9-2.9-1.4-6.5-1.5-10.4c0-0.1,0-0.2,0-0.3c0-0.3,0-0.6,0-0.9c0-0.8,0-1.7,0-2.5
			c0-0.3,0-0.6,0-0.9c0-0.7,0-1.5,0-2.2c0-0.4,0-0.9,0-1.3c0-0.8,0-1.5,0.1-2.3c0-0.4,0-0.7,0.1-1.1c0-0.8,0.1-1.5,0.1-2.3
			c0-0.2,0-0.4,0-0.6c0.1-2.1,0.3-4.2,0.5-6.3v0c0.2-2.2,0.4-4.3,0.5-6.5c0.2-2.7,0.5-5.4,0.6-8.1c0-0.6,0-1.2,0-1.7
			c0,0,0-0.1,0-0.1c0-0.3,0-0.6,0-0.9c0,0,0,0,0,0c0-0.3,0-0.7,0-1c-0.1-1.6-0.2-5.3-2.8-4.8c2.3-0.3,3.8-0.1,6.5,1
			c3.9,1.8,8.6,6.7,5.7,34.6c-0.8,7.7-2.2,14.8-0.8,16.9c2.8,4.1,7.6-0.4,8.4,0.7c0.2,0.3,0.3,0.5,0.3,0.8
			C108.1,151.1,102.8,156.8,97,152.2"/>
		<path fill="#0092A1" d="M100.2,126.6c0-0.4,1.2-10.6,2.2-19.1c0.8-10.2,5.3-16.5,7.8-16.9c2.6-0.4,2.7,3.2,2.8,4.8
			c0.7,9.7-6.5,47.2,3,54.8c5.8,4.6,11.1-1.1,14.3-5.7c0.1,4.2-2.7,16.5-16.5,13.5c-2.1-0.5-3.9-1.3-5.4-2.5c-1.2-0.9-2.2-2-3.1-3.1
			C98.6,143.3,100.2,127.1,100.2,126.6"/>
		<path fill="#FFD628" d="M116,150.2c-0.1-0.1-0.1-0.1-0.2-0.2c-0.1-0.1-0.1-0.1-0.2-0.2c-1.2-1.1-2-2.6-2.7-4.2
			c-0.1-0.3-0.2-0.6-0.4-1c0,0,0-0.1,0-0.1c-0.9-2.9-1.4-6.5-1.5-10.4c0-0.1,0-0.2,0-0.3c0-0.3,0-0.6,0-0.9c0-0.8,0-1.7,0-2.5
			c0-0.3,0-0.6,0-0.9c0-0.7,0-1.5,0-2.2c0-0.4,0-0.9,0-1.3c0-0.8,0-1.5,0.1-2.3c0-0.4,0-0.7,0.1-1.1c0-0.8,0.1-1.5,0.1-2.3
			c0-0.2,0-0.4,0-0.6c0.1-2.1,0.3-4.2,0.5-6.3v0c0.2-2.2,0.4-4.3,0.5-6.5c0.2-2.7,0.5-5.4,0.6-8.1c0-0.6,0-1.2,0-1.7
			c0,0,0-0.1,0-0.1c0-0.3,0-0.6,0-0.9c0,0,0,0,0,0c0-0.3,0-0.7,0-1c-0.1-1.6-0.2-5.3-2.8-4.8c2.3-0.3,3.8-0.1,6.5,1
			c3.9,1.8,8.6,6.7,5.7,34.6c-0.8,7.7-2.2,14.8-0.8,16.9c2.8,4.1,7.6-0.4,8.4,0.7c0.2,0.3,0.3,0.5,0.3,0.8
			C127.1,149.1,121.8,154.8,116,150.2"/>
		<path fill="#0092A1" d="M76.8,108.8C76,98.5,69.7,95,67.2,94.6c-2.6-0.4-2.7,3.2-2.8,4.8c-0.7,9.7,6.5,47.2-3,54.8
			c-5.8,4.6-11.1-1.1-14.3-5.7c-0.1,4.2,2.7,16.5,16.5,13.5c2.1-0.5,3.9-1.3,5.4-2.5c1.2-0.9,2.2-2,3.1-3.1
			c6.7-9.1,5.2-25.3,5.2-25.8C77.2,130.2,77.8,117.2,76.8,108.8z"/>
		<path fill="#FFD628" d="M61.3,154.2c0.1-0.1,0.1-0.1,0.2-0.2c0.1-0.1,0.1-0.1,0.2-0.2c1.2-1.1,2-2.6,2.7-4.2
			c0.1-0.3,0.2-0.6,0.4-1c0,0,0-0.1,0-0.1c0.9-2.9,1.4-6.5,1.5-10.4c0-0.1,0-0.2,0-0.3c0-0.3,0-0.6,0-0.9c0-0.8,0-1.7,0-2.5
			c0-0.3,0-0.6,0-0.9c0-0.7,0-1.5,0-2.2c0-0.4,0-0.9,0-1.3c0-0.8,0-1.5-0.1-2.3c0-0.4,0-0.7-0.1-1.1c0-0.8-0.1-1.5-0.1-2.3
			c0-0.2,0-0.4,0-0.6c-0.1-2.1-0.3-4.2-0.5-6.3v0c-0.2-2.2-0.4-4.3-0.5-6.5c-0.2-2.7-0.5-5.4-0.6-8.1c0-0.6,0-1.2,0-1.7
			c0,0,0-0.1,0-0.1c0-0.3,0-0.6,0-0.9c0,0,0,0,0,0c0-0.3,0-0.7,0-1c0.1-1.6,0.2-5.3,2.8-4.8c-2.3-0.3-3.8-0.1-6.5,1
			c-3.9,1.8-8.6,6.7-5.7,34.6c0.8,7.7,2.2,14.8,0.8,16.9c-2.8,4.1-7.6-0.4-8.4,0.7c-0.2,0.3-0.3,0.5-0.3,0.8
			C50.2,153.1,55.5,158.8,61.3,154.2"/>
		<path fill="#0092A1" d="M57.3,129.2l0.2-0.6c0-0.4-0.5-29-1.5-37.5c-0.8-10.2-4.9-12.3-7.4-12.7c-2.6-0.4-3,17.4-3.1,19
			c-0.7,9.7,6.5,47.2-3,54.8c-5.8,4.6-11.1-1.1-14.3-5.7c-0.1,4.2,2.7,16.5,16.5,13.5c2.1-0.5,3.9-1.3,5.4-2.5
			c1.2-0.9,2.2-2,3.1-3.1C59.7,145.3,57.3,129.7,57.3,129.2z"/>
		<path fill="#FFD628" d="M42.3,152.2c0.1-0.1,0.1-0.1,0.2-0.2c0.1-0.1,0.1-0.1,0.2-0.2c1.2-1.1,2-2.6,2.7-4.2
			c0.1-0.3,0.2-0.6,0.4-1c0,0,0-0.1,0-0.1c0.9-2.9,1.4-6.5,1.5-10.4c0-0.1,0-0.2,0-0.3c0-0.3,0-0.6,0-0.9c0-0.8,0-1.7,0-2.5
			c0-0.3,0-0.6,0-0.9c0-0.7,0-1.5,0-2.2c0-0.4,0-0.9,0-1.3c0-0.8,0-1.5-0.1-2.3c0-0.4,0-0.7-0.1-1.1c0-0.8-0.1-1.5-0.1-2.3
			c0-0.2,0-0.4,0-0.6c-0.1-2.1-0.3-4.2-0.5-6.3v0c-0.2-2.2-0.4-4.3-0.5-6.5c-0.2-2.7-0.5-5.4-0.6-8.1c0-0.6,0-1.2,0-1.7
			c0,0,0-0.1,0-0.1c0-0.3,0-0.6,0-0.9c0,0,0,0,0,0c0-0.3,0-0.7,0-1c-0.1-5.8,1.2-16.5,2.8-15.8c-2.2-0.9-3.8-0.1-6.5,1
			c-3.9,1.8-8.6,17.7-5.7,45.6c0.8,7.7,2.2,14.8,0.8,16.9c-2.8,4.1-7.6-0.4-8.4,0.7c-0.2,0.3-0.3,0.5-0.3,0.8
			C31.2,151.1,36.5,156.8,42.3,152.2"/>
		<path fill="#FFD628" d="M108.5,56.4C108.5,56.4,108.5,56.4,108.5,56.4c5.1-6.7,13.2-13.3,22.4-12.5c0.6,0.1,1.9-0.1,2.5,0
			c0.5-2.3,0.9-5.5,0.8-8.2c-0.3-14.2-13.2-17.4-24.1-17.4c3.6,3.7,6.8,9.4,6.8,17.7C116.9,43.8,113.1,50.8,108.5,56.4"/>
		<path fill="#0092A1" d="M99.8,50.5C99.8,50.5,99.8,50.5,99.8,50.5c0,0,5-1.3,7,1.4c1.3,1.7,1.6,3.5,1.7,4.6
			c4.5-5.6,8.4-12.6,8.4-20.4c0-8.3-3.2-13.9-6.8-17.7c0,0,0,0,0,0c-0.1,0-0.1,0-0.2,0c-0.5,0-1,0-1.4,0c0,0-0.1,0-0.1,0
			c-0.5,0-1,0-1.5,0.1c-0.1,0-0.1,0-0.2,0c-0.2,0-0.4,0-0.6,0C108.1,30.8,101.8,46,99.8,50.5"/>
		<path fill="#FFD628" d="M82.7,9.6c12.3,6.7,10.5,22.7,7.2,34.2c6.6,2.4,9.7,6.3,9.9,6.6c2-4.4,8.3-19.6,6.4-32c0,0,0,0,0,0
			c-0.9-5.7-3.6-10.8-9.2-13.9c-14-7.7-27.6-1.6-33.1,1.5c0,0,0.1,0.1,0.1,0.1C69.6,5.4,76.1,6,82.7,9.6"/>
		<path fill="#0092A1" d="M82.7,9.6C76.1,6,69.6,5.4,64,6.2c0.5,0.3,0.9,0.6,1.4,0.9c16.2,11.4,12.8,30.3,10.3,38.6
			c2.5-1.8,6.8-4,12.2-2.5c0.7,0.2,1.4,0.4,2.1,0.7C93.2,32.3,95,16.3,82.7,9.6"/>
		<path fill="#FFD628" d="M55.9,20.7c8.2,6,11.5,16.5,12.8,25c2.7,0.4,4.8,1.9,4.8,1.9s0.8-0.9,2.1-1.8c2.5-8.2,5.9-27.2-10.3-38.6
			c-0.5-0.3-1-0.6-1.4-0.9c0,0-0.1-0.1-0.1-0.1c-12.7-7.5-22.9,4-28.9,13.7c0.8-1.3,1.7-2.7,2.7-4.1C42.8,15,49.2,15.8,55.9,20.7"/>
		<path fill="#0092A1" d="M44.6,27.9c9,2.6,13.7,12.9,16.1,21c1-1.3,2.3-2.5,4.2-3.1c1.3-0.4,2.6-0.4,3.9-0.2
			c-1.3-8.5-4.6-19-12.8-25c-6.7-4.9-13.1-5.6-18.3-5c-1,1.4-1.9,2.7-2.7,4.1c0,0,0,0,0,0c-0.3,0.4-0.5,0.9-0.8,1.3c0,0,0,0,0,0
			c-1.4,2.5-2.6,4.7-3.4,6.4C34.5,26.3,39,26.3,44.6,27.9"/>
		<path fill="#0092A1" d="M47.5,59c0,0,5.9,1.2,8.9-0.9c-4.4-9.2-10-15.4-18.1-16.4c-21.4-2.5-22.6,30.8-22.1,47.4
			c0,1.3-1.2,2.3-2.5,1.8C6,88.4,2.3,81.8,0.7,75.5c0.3,1.1-0.1,2.8,0,4C0.8,81,1,82.4,1.2,83.9c0.5,2.9,1.4,5.7,2.8,8.3
			c2.9,5.4,8.5,9.9,14.9,10.1c4.2,0.2,8-0.4,10.4-4.3C32.3,93.2,30,56.4,47.5,59"/>
		<path fill="#FFD628" d="M60.6,48.9c-2.4-8.2-7.1-18.4-16.1-21c-5.5-1.6-10.1-1.6-13.8-0.4c0,0,0,0,0,0C9.5,34.7,15.7,82,11.1,82.8
			C9.5,83.1,4.2,71.1,2,71.5c-0.6,0.1-1.1,1.7-1.3,4.1c0.1,0.2,0.1,0.5,0.2,0.7c0,0.2,0.1,0.3,0.1,0.5c1.1,3.5,2.8,7.1,5.6,9.9
			c0,0,0,0,0,0c0.9,0.9,2,1.8,3.1,2.5c1.2,0.7,2.5,1.4,3.9,1.9c1.3,0.4,2.5-0.5,2.5-1.8c-0.5-16.6,0.8-49.9,22.1-47.4
			c1.6,0.2,2.9,0.5,4.1,1c6,2.3,10.4,7.8,14,15.4c3.3-2,5.5-4.1,5.5-4.1S61.6,52.4,60.6,48.9"/>
		<path fill="#0092A1" d="M117,70.8c0,0-5.9-1-8-4c7.4-7,14.9-10.8,22.8-8.7c20.8,5.4,9.9,36.8,3.5,52.2c-0.5,1.2,0.3,2.6,1.6,2.6
			c8,0.3,13.9-4.5,17.7-9.8c-0.7,0.9-1,2.6-1.5,3.7c-0.6,1.3-1.3,2.6-2.1,3.9c-1.5,2.5-3.4,4.8-5.6,6.7c-4.7,4-11.5,6.1-17.5,4
			c-3.9-1.4-7.3-3.3-8.1-7.8C118.9,108.2,134.3,74.7,117,70.8"/>
		<path fill="#FFD628" d="M108.5,56.7c5.2-6.8,13.3-14.6,22.6-13.8c5.8,0.5,10,2.2,13,4.6l0,0c17.3,14.4-5.6,56.2-1.6,58.6
			c1.4,0.8,10.7-8.4,12.6-7.3c0.5,0.3,0.4,1.9-0.3,4.2c-0.1,0.2-0.3,0.4-0.5,0.6c-0.1,0.1-0.2,0.3-0.3,0.4c-2.3,2.9-5.2,5.6-8.8,7.2
			c0,0,0,0,0,0c-1.2,0.5-2.5,1-3.8,1.2c-1.4,0.3-2.8,0.4-4.3,0.3c-1.3-0.1-2.1-1.4-1.6-2.6c6.4-15.3,17.3-46.8-3.5-52.2
			c-1.5-0.4-2.9-0.6-4.2-0.6c-6.4,0-12.5,3.5-18.6,9.3c-2.4-3.1-3.6-5.8-3.6-5.8S106.3,59.5,108.5,56.7"/>
		<path fill="#FFD628" d="M116.5,121.3c-9.6-12.2,12.1-28.1,5.4-41.6c-4.9-9.8-13.5-9.3-17.8-8.3c-0.1,0.3-0.1,0.7-0.2,1
			c1.7-9.7,6-12,6-12s1.3,0,3.4,0.2c7.6,0.6,25.4,3.4,25.5,15.2c0.2,13.6-10.5,22.2-15,29.8c-2.1,3.5-2.9,6.8-0.6,10.2
			c7.1,10.8,13,2.3,13.9,2.8c0.4,0.2-0.1,2.3-1.6,4.5c0.1-0.2,0.3-0.4,0.4-0.6C130,125.8,122,128.3,116.5,121.3"/>
		<path fill="#0092A1" d="M111.7,92.1c-0.5-1.9-1.3-3.1-2.2-4c-0.6-0.6-1.3-1-1.8-1.3c-1-0.4-1.7-0.5-1.7-0.5s-4.3-1.5-2.1-13.9
			c0.1-0.4,0.1-0.7,0.2-1c4.3-1,12.9-1.5,17.8,8.3c6.7,13.4-15,29.4-5.4,41.6c5.5,7,13.5,4.5,19.3,1.1c-0.4,0.2-0.9,1.3-1.2,1.7
			c-0.6,0.7-1.3,1.3-2,1.9c-1.5,1.1-3.2,1.9-5,2.3c-5.2,1.3-11.7-0.7-14.8-5.3C106.9,114,112.9,96.6,111.7,92.1"/>
		<path fill="#EA7DB2" d="M87.3,161.7l4.8,33.5l6-1c0,0,6.2-6,7.5-4.2s-3,4.5-3,4.5s8,0.5,6.2,2.8s-6.8-0.5-6.8-0.5s2.8,2.2,0.8,3.8
			s-6.2-3-6.2-3s-2.8,0.8-6.2,0.8s-4.5-0.2-5.2-1.8s0.2-34.2,0.2-34.2L87.3,161.7z"/>
		<path fill="#EA7DB2" d="M76.2,161.7l-4.8,33.5l-6-1c0,0-6.2-6-7.5-4.2s3,4.5,3,4.5s-8,0.5-6.2,2.8s6.8-0.5,6.8-0.5
			s-2.8,2.2-0.8,3.8s6.2-3,6.2-3s2.8,0.8,6.2,0.8s4.5-0.2,5.2-1.8s-0.2-34.2-0.2-34.2L76.2,161.7z"/>
		<path fill="#EA7DB2" d="M72.1,125.3c0,0-13.3-0.7-14.3,3.1c-1,3.7,11.7,6.8,13.7,11.9c2,5.1-6.9,12.2-9.3,10.9
			c-2.4-1.4,1.7-5.8,1.7-5.8s-7.5,5.8-8.5,3.4c-1-2.4,4.1-4.8,4.1-4.8s-5.1,1.7-6.1-0.3c-1-2,6.1-3.1,6.1-3.1s-12.9-5.4-10.2-12.9
			c2.7-7.5,22.8-4.8,22.8-4.8V125.3z"/>
		<path fill="#EA7DB2" d="M83.3,125.6c0,0,12.2-1.9,13.5,1.4c1.3,3.3-10.9,7.2-12.3,12.1c-1.4,4.9,8.3,10.6,10.4,9.1
			c2.1-1.5-2.1-5.1-2.1-5.1s7.5,4.5,8.2,2.3c0.7-2.3-4.2-3.9-4.2-3.9s4.9,1,5.6-0.9c0.7-2-6-2.2-6-2.2s11.4-6.2,8.2-12.8
			c-3.2-6.6-21.6-2.1-21.6-2.1L83.3,125.6z"/>
		<path fill="#EA7DB2" d="M93.8,109.7c2.5-0.2,4.8-0.4,6.9-0.8c3.9-0.6,7.3-1.6,10.2-2.7c2.8-1.1,5.2-2.4,7.1-3.9
			c11.9-8.8,8.2-22.3,6.5-24.2c-1.1-1.2-3.1-1.4-5.2-1.2c-3.1,0.3-6.2,1.5-6.2,1.5s3.3-15.5,0.5-18.8c-2.3-2.8-5.2-2.2-5.2-2.2
			s0-0.4,0-1c0,0,0,0,0-0.1c-0.1-1.1-0.4-2.9-1.7-4.6c-2-2.7-7-1.3-7-1.3s0,0,0,0c-0.2-0.3-3.3-4.2-9.9-6.6
			c-0.7-0.2-1.3-0.5-2.1-0.7c-5.4-1.5-9.7,0.7-12.2,2.5c-1.4,1-2.1,1.8-2.1,1.8s-2.1-1.4-4.8-1.9c-1.2-0.2-2.5-0.2-3.9,0.2
			c-1.9,0.6-3.3,1.9-4.2,3.1c-1.2,1.6-1.8,3.2-1.8,3.2s-3.3-2.7-6.7-0.7c-0.2,0.1-2.7,0.8-4.7,4.2c-1.9,3.1-8.6,25.1,7.5,41.6
			c2.1,2.2,5.7,4.3,8.7,6.3c3.5,2.3,7.6,4.3,12.4,5.5c1.3,0.3,2.7,0.6,4.1,0.8c0.6,0,1.1,0,1.7,0.1C86.2,110.1,90.2,110,93.8,109.7"
			/>
		<path fill="#FFD628" d="M33,121.4c11.1-10.5-5.7-31.8,3-44.3c6.3-9.1,14.1-6.7,17.8-4.7c0,0.4,0,0.7,0,1.1
			c0.3-10.4-3.2-13.8-3.2-13.8s-1.2-0.3-3.1-0.5c-7.1-1-23.8-2-26.2,10.2c-2.8,14.1,5.3,25.4,8,34.2c1.2,4.1,1.3,7.7-1.4,10.7
			c-8.6,9.6-12.3-0.5-13.2-0.1c-0.4,0.1-0.3,2.4,0.6,5c-0.1-0.3-0.2-0.5-0.3-0.8C19.8,123.1,26.6,127.4,33,121.4"/>
		<path fill="#0092A1" d="M36,77.1c-8.7,12.5,8,33.8-3,44.3c-6.4,6.1-13.2,1.7-17.8-3.1c0.3,0.3,0.5,1.6,0.8,2
			c0.4,0.8,0.9,1.6,1.5,2.4c1.1,1.5,2.5,2.7,4.1,3.5c4.5,2.5,11.5,1.7,15.8-1.8c9.6-7.9,2.9-38.6,8.7-40c0.8-0.2,1.3-0.8,1.9-0.9
			c1-0.2,1.7-0.1,1.7-0.1s4,3.4,4.4-10c0-0.4,0-0.7,0-1.1C50.1,70.4,42.3,68,36,77.1z"/>
		<path fill="#C3105D" d="M66.3,74.3c0,1.1-0.9,2-2,2c-1.1,0-2-0.9-2-2c0-1.1,0.9-2,2-2C65.4,72.3,66.3,73.2,66.3,74.3"/>
		<path fill="#C3105D" d="M87.9,76.6c0,0.9-0.5,1.6-1.1,1.6c-0.6,0-1.1-0.7-1.1-1.6c0-0.9,0.5-1.6,1.1-1.6
			C87.4,75,87.9,75.7,87.9,76.6"/>
		<path fill="#C3105D" d="M88.4,73.8c-0.2,0-0.5,0.2-0.7,0.3c-0.3,0.2-0.6,0.4-0.8,0.7c-0.2,0.4-0.3,0.9-0.2,1.3c0,0-0.9,0.1-1,0.1
			c0,0,0.1-0.5,0.1-0.5c0.1-0.2,0.1-0.4,0.3-0.6c0.4-0.7,1-1.1,1.8-1.2C88.2,73.8,88.4,73.8,88.4,73.8"/>
		<path fill="#C3105D" d="M89.3,77.2c-0.2,0.9,0.1,1.7,0.7,1.8c0.6,0.1,1.2-0.4,1.4-1.3c0.2-0.9-0.1-1.7-0.7-1.8
			C90.1,75.7,89.5,76.3,89.3,77.2"/>
		<path fill="#C3105D" d="M89.4,74.3c0,0,0.2,0,0.5,0.2c1.1,0.5,1.8,1.7,1.5,2.9c0,0-0.9-0.4-0.9-0.4c0,0,0.2-0.6,0.2-0.6
			c0.1-0.7-0.3-1.3-0.8-1.7C89.6,74.4,89.4,74.3,89.4,74.3"/>
		<path fill="#C3105D" d="M79.3,98.4c0.2,0.2,0.7,0.2,1,0.3c0.8,0.2,1.6,0.4,2.5,0.5c1.8,0.3,3.7,0.5,5.6,0.4c3,0,6.3-0.6,8.8-2.2
			c0,0-0.2,0.2-0.6,0.5c-2.3,1.8-5.3,2.6-8.1,2.6c-2.8,0.1-5.9-0.5-8.4-1.8C79.6,98.5,79.3,98.4,79.3,98.4"/>
		<path fill="#410025" d="M67.2,80.7c0,0,4.7,12.8,16.8,13.9c17,1.6,22.1-11.2,22.1-11.2S94,85.2,82.7,84S67.2,80.7,67.2,80.7z"/>
		<path fill="#FFFFFF" d="M106.2,83.4c0,0-12.1,1.8-23.5,0.6s-15.5-3.3-15.5-3.3s0.9,2.4,2.9,5.2c3.3,1.6,8.9,3.4,18.5,4
			c6.1,0.4,10.6-0.2,13.7-1C105.1,86.1,106.2,83.4,106.2,83.4z"/>
		<path fill="#C3105D" d="M64.4,74.2c0,0,0.1,0.9,0.4,2.5c0.1,0.7,0.1,1.8,0.7,2.3c0.2,0.2,0.4,0.2,0.6,0.3
			c3.6,1.5,7.4,2.5,11.3,3.1c12.4,1.9,25.5,1.1,37.9-0.7c0.5-0.1,1.1-0.2,1.6-0.3c0,0-0.9,0.3-2.4,0.7c-8.6,2.3-17.7,3.5-26.6,3.3
			c-7.6-0.2-15.1-1.4-22.2-4.3c-1.5-0.6-1.8-1.4-2-2.9c0-0.5,0.1-1,0.1-1.4c0.1-0.8,0.3-1.4,0.4-1.9C64.3,74.4,64.4,74.2,64.4,74.2"
			/>
		<polygon fill="#C8DCD8" points="73.9,84.5 75.4,84.9 74.7,86.8 73.4,86.5 		"/>
		<polygon fill="#C8DCD8" points="80.6,85.7 82.2,85.9 81.7,88.3 80.5,88.1 		"/>
		<polygon fill="#C8DCD8" points="101.9,86 100.4,86.1 100.9,88.2 102.2,88 		"/>
		<polygon fill="#C8DCD8" points="95.2,86.3 93.6,86.3 93.7,88.7 95,88.7 		"/>
		<polygon fill="#C8DCD8" points="87.2,86.5 88.8,86.4 88.7,88.8 87.5,88.9 		"/>
		<path fill="#C8DCD8" d="M69.2,84.6c2.7,1.1,7.8,2.7,17,3.4c1.5,0.1,2.9,0.1,4.2,0.1c6.5,0,11.3-1,14.2-1.9
			c0.2-0.2,0.3-0.5,0.4-0.7c-3.3,1.1-9.8,2.6-18.9,1.9c-9.9-0.7-15.1-2.5-17.5-3.6C68.8,84.1,69,84.3,69.2,84.6z"/>
		<path fill="#EA7DB2" d="M84.7,128c-3.4-11.2-3.1-23.1-3.1-23.1h-3.7c0,0-5.8,10.2-7.8,23.8c-2,13.6-3.6,35.6-3.6,35.6
			s3.6,2.4,16.4,2.7c10.2,0.3,16.4-2,16.4-2S88.1,139.2,84.7,128z"/>
		<path fill="#EFEADA" d="M67.8,148.2c4,1,9.8,2,16,2c3.9,0,6.7-0.5,8.8-1.2c-3.1-7.5-6.3-15.8-7.9-21.1c-0.3-1.1-0.6-2.1-0.9-3.2
			c0,0,0,0,0,0c-0.3-1.1-0.5-2.1-0.7-3.2c-1.6,0.8-3.7,1.4-6,1c-2.2-0.4-3.9-1.4-5.3-2.4c-0.2,0.6-0.3,1.3-0.5,1.9
			c0,0.1,0,0.1,0,0.2c-0.2,0.6-0.3,1.2-0.4,1.9c0,0.1,0,0.2-0.1,0.3c-0.1,0.6-0.3,1.3-0.4,1.9c0,0.1,0,0.2,0,0.3
			c-0.1,0.7-0.2,1.4-0.3,2.1c-0.1,0.5-0.1,1-0.2,1.5C69.1,135.7,68.4,142.3,67.8,148.2z"/>
		<path fill="#EFEADA" d="M61.5,119.9l1.9,10.1l10.4-2.7l-0.2-4.3c0,0-1.8-1.7-5.8-2.3S61.5,119.9,61.5,119.9z"/>
		<path fill="#EFEADA" d="M94,119.9L92,130l-10.4-2.7l0.2-4.3c0,0,1.8-1.7,5.8-2.3S94,119.9,94,119.9z"/>
		<path fill="#A59E57" d="M99.3,165c0,0-3.6-8.4-7.4-17.6c0,0-3.2,1.9-10.7,1.8c-7.5-0.2-13.3-2.7-13.3-2.7
			c-0.9,9.6-1.5,17.9-1.5,17.9s3.8,2.3,16.6,2.7C93.3,167.3,99.3,165,99.3,165z"/>
		<path fill="#7E6C3E" d="M73.1,147c-0.3,1.5-0.6,3-0.9,4.5c-0.3,1.5-0.5,3-0.6,4.5c-0.2,1.5-0.2,3-0.4,4.5c-0.1,1.5-0.3,3-0.4,4.6
			c-0.2-1.5-0.3-3.1-0.4-4.6c0-1.5,0-3.1,0.2-4.6C70.9,152.8,71.6,149.8,73.1,147z"/>
		<path fill="#7E6C3E" d="M78.1,148.5c-0.2,1.6-0.3,3.2-0.3,4.8c-0.1,1.6-0.1,3.2-0.1,4.8c0,1.6-0.1,2.8,0,4.4
			c0,1.6-0.1,2.1-0.1,3.7c-0.4-1.6-0.4-1.6-0.6-3.2c-0.2-1.6-0.2-3.2-0.3-4.9C76.7,154.8,77.1,151.5,78.1,148.5z"/>
		<path fill="#7E6C3E" d="M88,149.1c0.4,1.5,0.8,3,1.3,4.4c0.5,1.4,0.9,2.9,1.5,4.3c0.5,1.4,1.2,2.8,1.8,4.2c0.6,1.4,0.9,2,1.4,3.5
			c-0.9-1.3-1.4-1.8-2.1-3.2c-0.7-1.4-1.4-2.7-2-4.2C88.8,155.2,88,152.2,88,149.1z"/>
		<path fill="#7E6C3E" d="M82.7,150c0.3,1.6,0.6,3.1,0.9,4.7c0.3,1.5,0.7,3.1,1.1,4.6c0.4,1.5,0.9,3,1.4,4.5
			c0.5,1.5,0.4,1.2,0.8,2.8c-0.8-1.4-1.2-1.9-1.8-3.4c-0.6-1.5-1-2.1-1.4-3.6C82.9,156.4,82.4,153.2,82.7,150z"/>
		<path fill="#006E3A" d="M90.2,143c-1.8,0.8-4.6,1.4-9.1,1.3c-6.3-0.1-10.4-1-12.7-1.8c-0.3,2.5-0.5,4.9-0.7,7.2
			c2.4,0.9,6.6,2,13.4,2.2c6.3,0.2,10-0.6,12.1-1.5C92.2,148,91.2,145.5,90.2,143z"/>
		<path fill="#C8DCD8" d="M83.1,121.6c-1.6,0.8-3.7,1.4-6,1c-2.2-0.4-3.9-1.4-5.3-2.4c0,0-0.1,5.3,2.9,6c0.9,0.2,1.7-0.2,2.3-0.7
			l-0.2,5.7h4.4l-1.1-5.4c0.4,0.2,0.9,0.3,1.6,0.3c0.9-0.1,1.5-0.9,1.9-2.1C83.5,123.2,83.3,122.4,83.1,121.6z"/>
		<path fill="#410025" d="M75.4,60.3c0,0-1.5-0.2-2-3.2c-0.4-3,0.9-4,0.9-4s-0.6,1.6,0.2,3.1c0.8,1.5,2.3,2.4,2.3,2.4L75.4,60.3z"/>
		<path fill="#410025" d="M74.6,61.7c0,0-1.5,0.5-3.1-2c-1.7-2.5-0.9-4-0.9-4s0.2,1.7,1.5,2.7c1.3,1.1,3.1,1.2,3.1,1.2L74.6,61.7z"
			/>
		<path fill="#410025" d="M76.7,59c0,0-1.2-1,0.2-3.7c1.4-2.7,3-2.8,3-2.8s-1.4,1-1.6,2.7c-0.2,1.7,0.5,3.3,0.5,3.3L76.7,59z"/>
		<path fill="#410025" d="M98.6,60.2c0,0,1.5-0.2,2-3.2c0.4-3-0.9-4-0.9-4s0.6,1.6-0.2,3.1c-0.8,1.5-2.3,2.4-2.3,2.4L98.6,60.2z"/>
		<path fill="#410025" d="M99.4,61.9c0,0,1.5,0.5,3.1-2c1.7-2.5,0.9-4,0.9-4s-0.2,1.7-1.5,2.7c-1.3,1.1-3.1,1.2-3.1,1.2L99.4,61.9z"
			/>
		<path fill="#410025" d="M97.3,58.9c0,0,1.2-1-0.2-3.7c-1.4-2.7-3-2.8-3-2.8s1.4,1,1.6,2.7c0.2,1.7-0.5,3.3-0.5,3.3L97.3,58.9z"/>
		<path fill="#FFFFFF" d="M85.6,65.6c0,4.8-3.2,8.6-7,8.6c-3.9,0-7-3.9-7-8.6c0-4.8,3.2-8.6,7-8.6C82.5,57,85.6,60.9,85.6,65.6"/>
		<path fill="#410025" d="M83.3,66.9c0,2.4-1.7,4.4-3.9,4.4c-2.1,0-3.9-2-3.9-4.4c0-2.4,1.7-4.4,3.9-4.4
			C81.5,62.5,83.3,64.4,83.3,66.9"/>
		<path fill="#FFFFFF" d="M87.9,65.6c0,4.8,3.2,8.6,7,8.6c3.9,0,7-3.9,7-8.6c0-4.8-3.2-8.6-7-8.6C91,57,87.9,60.9,87.9,65.6"/>
		<path fill="#410025" d="M90.3,66.9c0,2.4,1.7,4.4,3.9,4.4c2.1,0,3.9-2,3.9-4.4c0-2.4-1.7-4.4-3.9-4.4C92,62.5,90.3,64.4,90.3,66.9
			"/>
	</g>
</g>
<g id="labels">
</g>
</svg>
