<?xml version="1.0" encoding="utf-8"?>
<!-- Generator: Adobe Illustrator 22.0.1, SVG Export Plug-In . SVG Version: 6.00 Build 0)  -->
<!DOCTYPE svg PUBLIC "-//W3C//DTD SVG 1.1//EN" "http://www.w3.org/Graphics/SVG/1.1/DTD/svg11.dtd">
<svg version="1.1" xmlns="http://www.w3.org/2000/svg" xmlns:xlink="http://www.w3.org/1999/xlink" x="0px" y="0px"
	 viewBox="0 0 395 443" style="enable-background:new 0 0 395 443;" xml:space="preserve" width="395" height="443" preserveAspectRatio="none">
<style type="text/css">
	.st0{opacity:0.1;fill:#384E7D;}
	.st1{fill:#72B2C6;}
	.st2{fill:#0067AC;}
	.st3{fill:#0092A1;}
	.st4{fill:#00454D;}
	.st5{fill:#FFC641;}
	.st6{fill:#F5843C;}
	.st7{fill:#FFED82;}
	.st8{fill:none;stroke:#0067AC;stroke-width:2;stroke-miterlimit:10;}
	.st9{fill:#410025;}
	.st10{fill:#FFFFFF;}
	.st11{fill:#8ED5F6;}
	.st12{fill:#F47729;}
	.st13{fill:#39B54A;}
	.st14{fill:#DB5983;}
	.st15{fill:#882890;}
	.st16{fill:#003E6E;}
	.st17{fill:#BD4161;}
	.st18{fill:#27AAE1;}
	.st19{fill:#822741;}
	.st20{fill:#34BCAA;}
	.st21{fill:#1C8478;}
	.st22{fill:#9B6BAE;}
	.st23{fill:#7A4490;}
	.st24{fill:#7D0052;}
	.st25{opacity:0.5;fill:#FFFFFF;}
	.st26{fill:#F4833D;}
	.st27{fill:#72B1C4;}
	.st28{fill:#0468AC;}
	.st29{fill:#0691A1;}
	.st30{fill:#04454C;}
	.st31{fill:#FDEB82;}
	.st32{fill:none;stroke:#0468AC;stroke-width:2.4572;stroke-miterlimit:10;}
	.st33{fill:#3B1026;}
	.st34{fill:#8ED3F5;}
	.st35{fill:#F37829;}
	.st36{fill:#38B34A;}
	.st37{fill:#DB5A83;}
	.st38{fill:#87298D;}
	.st39{fill:#16406D;}
	.st40{fill:none;stroke:#0468AC;stroke-width:2.6344;stroke-miterlimit:10;}
	.st41{fill:none;stroke:#0067AC;stroke-width:2.4571;stroke-miterlimit:10;}
</style>
<g id="MsQ_Cast_Shadow">
</g>
<g id="MsQ_Bun">
</g>
<g id="MsQ_Right_Antennae">
</g>
<g id="MsQ_Right_Feet">
</g>
<g id="MsQ_Tail">
</g>
<g id="MsQ_MidSection">
</g>
<g id="MsQ_Front_Body">
</g>
<g id="MsQ_Feet">
</g>
<g id="MsQ_5th_Grade_Front_Hair">
</g>
<g id="MsQ_Left_Antennae">
</g>
<g id="MsQ_Eyes">
</g>
<g id="MsQ_Specs">
</g>
<g id="MsQ_Beak">
</g>
<g id="MsQ_3rd_Grade_Apron">
</g>
<g id="MsQ_4th_Grade_Apron">
</g>
<g id="MsQ_5th_Grade_Apron">
</g>
<g id="MsQ_Left_Arm">
</g>
<g id="MsQ_Right_Arm_1_">
	<g>
		<path class="st2" d="M290.8,100.8c0,0,10.1,5.8,7.7,12.7c-1.5,4.5-4.6,3.1-4.6,3.1s2.2,4.9-1.5,11.2s-13.2-0.7-13.2-0.7
			s-5.8-15.3-5.8-16.3s2.7-11.7,2.7-11.7l4.3-3L290.8,100.8z"/>
		<g>
			<path class="st5" d="M303.9,43.6c-4.5,7.7-5.1,15.9-1.2,18.2c3.9,2.3,10.7-2.1,15.3-9.9c4.5-7.7,5.1-15.9,1.2-18.2
				C315.3,31.5,308.5,35.9,303.9,43.6z"/>
			<path class="st5" d="M274.4,100.9c0,0,3.7-28,17.6-47.3c13.8-19.2,23-20.2,23-20.2l-10.2,28.9c0,0-3.7-1.6-7.6,0.9
				c-16,10.4-17.6,38.5-17.6,38.5L274.4,100.9z"/>
			<path class="st6" d="M305.3,45.7c-2.8,5.5-2,12.9,0.1,14.1c2.1,1.2,6.3-2,9.4-7.3c3.1-5.3,4.6-12.6,2.5-13.9
				C315.2,37.4,309.2,38,305.3,45.7z"/>
		</g>
		<ellipse class="st0" cx="205.9" cy="422.3" rx="187.8" ry="19.5"/>
		<path class="st1" d="M360.3,394.7c0,0,3.2,5.6,2.8,13.2c-0.4,7.7-1.9,12.6-3.5,13.2c-1.6,0.6-12.5-15.3-12.5-15.3s0.5-4,4.2-7
			C355,395.9,360.3,394.7,360.3,394.7z"/>
		<path class="st1" d="M350.6,401.2c0,0,1,6.4-2.2,13.4c-3.1,7-6.4,11-8.1,11c-1.7,0-6.1-18.8-6.1-18.8s1.9-3.5,6.4-5
			C345.2,400.3,350.6,401.2,350.6,401.2z"/>
		<path class="st1" d="M340.2,405.4c0,0-0.7,6.4-5.6,12.3c-4.9,5.9-9.1,9-10.7,8.5c-1.7-0.5-0.9-19.8-0.9-19.8s2.8-2.9,7.5-3.1
			C335.1,403.2,340.2,405.4,340.2,405.4z"/>
		<path class="st5" d="M19.1,243.1c23.4-16.5,43.5-10,49.9-7.9c55.5,17.9,15.8,70.2-18.7,115.1c-2.8,3.7-15.8,20.3-23,19.6
			C19.1,369.1-21.6,271.8,19.1,243.1z"/>
		<path class="st7" d="M26.7,369.7c-0.4-0.1-3.1-2.4-3.9-3.5c-3.1-4.5-5.1-10.4-7.3-15.4c-0.9-2.1-3.8-6.9-3.5-9.1
			c0.2-1.7,0.5-3.4,0.9-5.1c6.7-29.3,32.7-37.3,32.7-37.3s27.6-8.2,43-5.4c-7,14.1-16.2,27.1-25.6,39.7c-5.2,7-10,14.3-15.6,21
			c-2.8,3.4-5.9,6.6-9.2,9.5C35.2,366.5,30.8,371,26.7,369.7z"/>
		<path class="st5" d="M27.8,344.1c-6.6-3.1-10.4-9.6-12.5-15.3c0.3-0.9,0.7-1.7,1.1-2.5c1.8,5.9,5.4,13.3,12.3,16
			c10.4,4.2,22.3,1.1,28.6-1.2c-0.2,0.2-0.3,0.4-0.5,0.6c-4.3,2-11.1,4.4-18.6,4.9C35.2,346.6,31.7,346,27.8,344.1z"/>
		<path class="st5" d="M69.5,324.5c-11.4-0.3-30.7-2.1-37.8-10.3c-1.3-1.5-2.2-3.2-2.9-4.9c1-0.9,2.1-1.8,3.1-2.5
			c0.6,1.5,1.5,2.9,2.5,4.3c6.2,7.8,24.8,11.3,35.7,12.7C69.9,324,69.7,324.3,69.5,324.5z"/>
		<path class="st5" d="M70.4,235.7c0,0,1.6-11.4,26-27.6c24.4-16.3,48.8-13,48.8-13s17.8,1.5,36.9,30.8
			c22.6,34.5,60.7,200.1-27.5,200.1c-27.9,0-30.6,0-37,0c-27.6,0-65-75.8-65-75.8s-9.9-34.1-8-54C48.6,255.2,70.4,235.7,70.4,235.7z
			"/>
		<path class="st6" d="M77,225.9c-0.3,0.2-0.6,0.4-0.9,0.7c-0.6,0.5-1.4,1.1-2.4,2c-11.3,10.7-16.3,26.1-15.7,41.5
			c0.3,8.4,2.1,16.6,4.6,24.6c1.3,4,2.7,8,4.3,11.9c1.4,3.5,3.2,6.4,4.9,9.8c0.1,0.2,0.2,0.4,0.4,0.5c-0.1-2.6-1.3-5.6-1.9-8.2
			c-0.7-2.9-1.3-5.7-1.9-8.6c-1.2-5.9-2.2-11.8-3.1-17.8c-0.9-6.3-1.6-12.8-1.4-19.2C64.3,250.1,69.2,236.4,77,225.9z"/>
		<path class="st6" d="M48,274.6c0,0-0.7,2.1-1.4,5.9c-5.3,27.4-1.6,56.4,10.1,81.7c7.4,15.9,17.7,30.6,30.3,42.7
			c-1.4-1.5-2.1-3.4-3.1-5c-1.9-2.9-3.9-5.7-5.8-8.7c-3.7-5.9-7.1-11.9-10.2-18.1c-6.2-12.4-11.1-25.5-14.6-38.9
			c-2.4-9-3.3-18.8-4.4-28.1c-1.1-9.9-1.7-19.9-1-29.9C47.9,275.1,48,274.6,48,274.6z"/>
		<path class="st5" d="M146.5,303.2c-3.4-43.6-6.1-85-2.8-104c0.2-1.4,0.5-2.8,0.8-4.2c0.5,0,0.8,0.1,0.8,0.1s4.1-19.5,9.8-30.9
			c21.9-43.9,73.2-72.3,110.6-68.3c37.4,4.1,21.1,44.7,21.1,44.7s79.7-40.6,102.4,156.1C403.6,421,303,426,303,426
			s-154.6-0.4-159.4-0.4c-23.1,0-34.8-20.6-28-54C122.3,338.5,148.3,338.9,146.5,303.2z"/>
		<path class="st7" d="M140.5,424.9c12.8-5.8,25.6-13.8,35.8-24.8c32.5-34.9,16.3-229.4,16.3-229.4s13.3,9.3,25.7,2.5
			c12.2-6.7,12.6-10.4,16.7-16.5c0.7-1.1,13.9-6.9,13.9-6.9l9.7-4.3c0,0,6.5,21.8,23.5,24.6c16.8,2.8,25.3-11,25.3-11
			s57.8,106,50.6,178.3c-3.2,32.1-8.3,56-13,72.5c-21.9,13.8-43.9,14.9-43.9,14.9S193.5,424.9,140.5,424.9z"/>
		<path class="st5" d="M254.3,412.2c74,0,97.4-8.4,98.3-8.7l-0.7-1.9c-0.2,0.1-24.1,8.6-97.7,8.6c-76.4,0-91.4-7.8-91.5-7.9l-1,1.7
			C162.4,404.4,176.9,412.2,254.3,412.2z"/>
		<path class="st5" d="M263.3,246.2c74,0,97.4-8.4,98.3-8.7l-0.7-1.9c-0.2,0.1-24.1,8.6-97.7,8.6c-76.4,0-91.4-7.8-91.5-7.9l-1,1.7
			C171.4,238.4,185.9,246.2,263.3,246.2z"/>
		<path class="st6" d="M159,157.9c0,0-0.4,0.4-1,1.3c-6.5,8.9-10.9,19.4-13.7,30c-2.2,8.5-3.5,17.3-3.7,26.1
			c-0.1,2.3-0.2,4.6-0.2,6.9c-0.3,27,1.1,54.4,6,81c0,0,0-0.6,0.1-1.7c0-1.1,0.1-2.7,0.1-4.7c0.1-13.5,0.1-27,0-40.5
			c-0.3-27.6-2-56.3,6.4-83c1.5-4.7,3.3-9.4,5.4-13.9C158.7,158.4,159,157.9,159,157.9z"/>
		<path class="st5" d="M273.1,285c57.8,0,89.4-11.5,89.8-11.6l-0.7-1.9c-0.6,0.2-63.8,23.2-175.9,3.7l-0.3,2
			C219.4,282.9,248.6,285,273.1,285z"/>
		<path class="st5" d="M279.9,326.2c16.3,0,32.8-1,48.5-3.4c29.7-4.5,42.8-11.7,43.3-12l-1-1.7c-0.1,0.1-13.5,7.4-42.8,11.8
			c-49.1,7.4-104.6,1-142.5-5.6l-0.3,2C211.1,321.8,245.2,326.2,279.9,326.2z"/>
		<path class="st5" d="M285.1,372.4c14,0,26.3-0.9,36.4-2.1c31.9-3.7,50.5-11.2,50.7-11.3l-0.8-1.9c-0.2,0.1-18.6,7.5-50.3,11.2
			c-29.2,3.4-75.9,4.2-132.8-11.2l-0.5,1.9C225.3,369.2,258.4,372.4,285.1,372.4z"/>
		<path class="st1" d="M68.1,383.8c0,0-2.2,0.5-4.8-0.5c-2.6-1-4.1-2-4.1-2.6c0-0.6,6.5-2.6,6.5-2.6s1.3,0.6,1.9,2.2
			C68.3,381.8,68.1,383.8,68.1,383.8z"/>
		<path class="st1" d="M181.1,398.4c0,0,3.2,5.6,2.8,13.2c-0.4,7.7-1.9,12.6-3.5,13.2s-12.5-15.3-12.5-15.3s0.5-4,4.2-7
			C175.8,399.6,181.1,398.4,181.1,398.4z"/>
		<path class="st1" d="M172.3,406.1c0,0,0.4,6.4-3.3,13.1c-3.7,6.7-7.3,10.5-9,10.3c-1.7-0.2-4.5-19.3-4.5-19.3s2.2-3.4,6.8-4.4
			C167,404.8,172.3,406.1,172.3,406.1z"/>
		<path class="st1" d="M158.3,413.5c0,0-1.5,5.7-6.7,10.5c-5.2,4.8-9.4,7-10.9,6.3c-1.4-0.6,1.7-18.1,1.7-18.1s2.9-2.3,7.2-1.8
			C154.1,410.8,158.3,413.5,158.3,413.5z"/>
		<path class="st1" d="M142.4,420.7c0,0-4,6-11.8,9.4c-7.8,3.4-13.5,4.3-14.9,3c-1.4-1.3,9.1-20.1,9.1-20.1s4.2-1.5,9,0.7
			C138.6,415.9,142.4,420.7,142.4,420.7z"/>
		<path class="st1" d="M123.1,422.6c0,0-4.8,4.4-12.6,5.7c-7.7,1.3-13,0.8-14-0.6c-1-1.5,12.5-15.8,12.5-15.8s4.1-0.4,7.9,2.6
			C120.7,417.5,123.1,422.6,123.1,422.6z"/>
		<path class="st1" d="M106.4,417.2c0,0-4.9,3.1-11.9,3c-7-0.1-11.5-1.4-12.1-2.8c-0.6-1.4,13.5-11.8,13.5-11.8s3.6,0.3,6.4,3.6
			C105.2,412.4,106.4,417.2,106.4,417.2z"/>
		<path class="st1" d="M91.9,410c0,0-3.9,2.4-9.5,2.4c-5.5-0.1-9.1-1.1-9.6-2.2c-0.5-1.1,10.7-9.4,10.7-9.4s2.9,0.2,5.1,2.8
			C90.9,406.2,91.9,410,91.9,410z"/>
		<path class="st1" d="M82.6,403.2c0,0-3.1,1.5-7.2,1c-4.1-0.5-6.6-1.6-6.9-2.4c-0.3-0.9,8.7-6,8.7-6s2.1,0.4,3.5,2.5
			C82.2,400.3,82.6,403.2,82.6,403.2z"/>
		<path class="st1" d="M76,396.9c0,0-3.1,0.7-6.7-0.6c-3.6-1.3-5.7-2.8-5.7-3.7c0-0.9,9.1-3.6,9.1-3.6s1.8,0.8,2.7,3
			C76.2,394.2,76,396.9,76,396.9z"/>
		<path class="st1" d="M70.9,390.1c0,0-2.6,0.6-5.6-0.5c-3-1.1-4.7-2.3-4.8-3c0-0.7,7.6-3,7.6-3s1.5,0.7,2.2,2.5
			C71.1,387.8,70.9,390.1,70.9,390.1z"/>
		<path class="st22" d="M366.4,196.5c0,0-10.2,18.5-16.8,40.1c-4.5,14.9-9,33.3-9,33.3h-106c0,0-26-30-46-45s-47.7-21-47.7-21v13.3
			c0,0,59.3,20.7,46.7,118.7c-4.2,32.6-11.7,45.1-11.7,45.1l198.8-10.4c0,0-10.7-43-13.7-78s11.5-79,11.5-79L366.4,196.5z"/>
		<path class="st22" d="M198.5,300.9c0,0-15.6,3.1-30.2-0.6c-14.6-3.7-24.1-12.1-24.1-12.1l0.3,2.8c0,0,5.1,7.8,19.7,13
			c14.6,5.3,32.4,5,32.4,5L198.5,300.9z"/>
		<path class="st22" d="M389.7,303.5c-0.4,0.1-0.8,0.3-1.2,0.4c-14.6,5.3-32.4,5-32.4,5l-1.9-8.1c0,0,15.6,3.1,30.2-0.6
			c1.7-0.4,3.3-0.9,4.8-1.5C389.4,300.4,389.6,302,389.7,303.5z"/>
		<g>
			<path class="st5" d="M159.6,258.6c5.4,2.5,46.2,11.3,52.9,16c6.7,4.7-2.9,15.7-2.9,15.7s-17,30.9-35.4,25.5
				c-18.4-5.4-23.1-45.1-23.1-45.1L159.6,258.6z"/>
			<path class="st6" d="M209.6,290.3c0,0-0.9,1.3-2.6,3.5c-1.7,2.2-4.2,5.3-7.4,8.8c-1.6,1.7-3.4,3.5-5.4,5.3
				c-2,1.7-4.2,3.4-6.6,4.8c-2.4,1.3-5,2.4-7.7,2.7c-2.7,0.3-5.3-0.2-7.7-1.5c-2.3-1.3-4.4-3.3-6.2-5.6c-1.8-2.3-3.3-4.8-4.6-7.4
				c-1.3-2.6-2.4-5.1-3.4-7.6c-1-2.5-1.8-4.9-2.6-7.1c-1.5-4.5-2.6-8.3-3.3-11c-0.7-2.7-1.1-4.2-1.1-4.2s0,1.6,0.1,4.4
				c0.2,2.8,0.6,6.8,1.5,11.6c0.5,2.4,1,4.9,1.8,7.6c0.8,2.7,1.7,5.5,3,8.3c1.2,2.8,2.7,5.7,4.7,8.4c2,2.7,4.5,5.3,7.7,7.1l1.3,0.6
				l0.3,0.2l0.3,0.1l0.6,0.2l0.6,0.2l0.3,0.1c0.3,0.1,0.1,0,0.2,0.1l0,0l0.1,0l0.2,0l1.4,0.3c1.8,0.3,3.7,0.4,5.5,0.1
				c0.9-0.1,1.8-0.3,2.6-0.5c0.8-0.3,1.7-0.5,2.4-0.9c1.6-0.6,3-1.5,4.4-2.3c2.7-1.8,4.9-3.8,6.9-5.9c2-2,3.6-4.1,5-6.1
				c2.8-4,4.7-7.5,6-10c0.6-1.3,1.1-2.3,1.4-3C209.5,290.6,209.6,290.3,209.6,290.3z"/>
			<path class="st5" d="M207.4,289.7c5.2,0.8,15.3,3.7,21.7,6.1c0.9,0.4,2.2,0.6,2.8-0.2c0.3-0.3,0.4-0.8,0.4-1.2
				c0.8-5.9-2.1-11.2-7.2-14.1c2.9-0.2,5.9-0.4,8.8-0.6c0.6,0,1.2-0.1,1.6-0.5c0.7-0.8,0-2-0.8-2.8c-3.5-3.4-8.2-5.3-13.1-5.7
				c-4.8-0.4-9.7,0.6-14.2,2.4V289.7z"/>
		</g>
		<path class="st5" d="M369.9,240.2c0,0-10.4,17.8-15.7,20.6c-5.3,2.9-28.4-2.9-36.4-1.6c-8.1,1.2-3.1,11-3.1,11
			c5.9,24,22.7,40.4,35.3,40c14.8-0.5,31.6-24.8,27.8-60.3C375.1,246.8,372.5,243.5,369.9,240.2z"/>
		<path class="st6" d="M314.7,271.3c0,0,0.4,1.5,1.3,4.1c0.9,2.6,2.3,6.3,4.3,10.5c1,2.1,2.2,4.4,3.6,6.8c1.4,2.3,2.9,4.8,4.8,7.2
			c1.8,2.4,3.9,4.8,6.3,7c2.4,2.2,5.2,4.2,8.3,5.6c0.8,0.4,1.6,0.6,2.5,0.9c0.4,0.1,0.9,0.2,1.3,0.3l0.7,0.1l0.2,0l0.2,0l0,0l0.1,0
			l0.3,0l1.2,0.1c0.4,0,1,0,1.4,0c1,0,1.9-0.2,2.8-0.3c3.6-0.7,6.6-2.6,8.9-4.8c2.4-2.2,4.1-4.6,5.6-7c1.5-2.4,2.6-4.7,3.5-6.9
			c0.9-2.2,1.6-4.3,2.2-6.1c0.6-1.8,0.9-3.5,1.2-4.8c0.3-1.3,0.5-2.4,0.6-3.1c0.1-0.7,0.2-1.1,0.2-1.1s-0.6,1.5-1.7,3.9
			c-1.1,2.5-2.8,6-5,10c-1.1,2-2.5,4.1-4,6.1c-1.5,2.1-3.3,4.1-5.4,5.7c-1,0.8-2.1,1.6-3.3,2.1c-1.2,0.6-2.4,0.9-3.6,1.2
			c-0.6,0-1.3,0.2-1.8,0.1c-0.3,0-0.5,0-0.9,0L349,309l-0.3,0l-0.1,0l0,0c0,0,0.3,0,0.1,0l-0.1,0l-0.5-0.1c-0.3-0.1-0.6-0.1-1-0.2
			c-0.6-0.2-1.3-0.4-1.9-0.7c-2.5-1.1-4.9-2.7-7.1-4.6c-2.2-1.9-4.2-4-6-6.1c-1.8-2.2-3.5-4.3-5.1-6.5c-1.5-2.1-2.9-4.2-4.2-6.1
			c-2.5-3.9-4.5-7.2-5.9-9.6C315.5,272.6,314.7,271.3,314.7,271.3z"/>
		<path class="st5" d="M317.2,273.6c-5.2-0.6-15.7-0.5-22.6,0.1c-1,0.1-2.3,0-2.7-0.9c-0.2-0.4-0.1-0.8-0.1-1.3
			c0.8-5.9,5-10.2,10.8-11.6c-2.8-1-5.5-2-8.3-3c-0.5-0.2-1.1-0.4-1.4-0.9c-0.5-1,0.5-2,1.5-2.5c4.2-2.3,9.4-2.9,14.1-1.9
			c4.8,0.9,9.2,4.6,13,7.5L317.2,273.6z"/>
		<g>
			<path class="st23" d="M366.1,327.7c-14.8,1.1-29.7,1.9-44.5,2.6c-7.4,0.4-14.9,0.6-22.3,1L277,332l-22.3,0.6
				c-7.4,0.2-14.9,0.4-22.3,0.5c-14.9,0.3-29.7,0.4-44.6,0.3c14.8-1.1,29.7-1.9,44.5-2.6c7.4-0.4,14.9-0.6,22.3-1l22.3-0.8l22.3-0.6
				c7.4-0.2,14.9-0.4,22.3-0.5C336.4,327.7,351.3,327.6,366.1,327.7z"/>
		</g>
		<g>
			<path class="st23" d="M245,331.3c1,3.8,1.5,7.6,1.7,11.5c0.2,1.9,0.2,3.9,0.2,5.8c0,1,0,1.9,0,2.9c0,1-0.1,1.9-0.1,2.9
				c-0.2,3.9-0.7,7.7-1.5,11.5c-0.8,3.8-1.9,7.5-3.4,11.1c0.3-3.9,0.8-7.6,1.1-11.4c0.3-3.8,0.6-7.6,0.8-11.3
				c0.2-1.9,0.2-3.8,0.3-5.7c0.1-1.9,0.2-3.8,0.3-5.7C244.6,339,244.7,335.2,245,331.3z"/>
		</g>
		<g>
			<path class="st23" d="M313.2,329.2c0.7,3.6,1.3,7.3,1.8,10.9c0.5,3.6,1,7.2,1.5,10.8c0.4,3.6,0.9,7.2,1.3,10.8
				c0.4,3.6,0.9,7.2,1.2,11c-1.5-3.4-2.6-6.9-3.5-10.5c-0.9-3.6-1.5-7.2-2-10.9c-0.5-3.7-0.8-7.3-0.8-11
				C312.6,336.6,312.7,332.9,313.2,329.2z"/>
		</g>
		<path class="st1" d="M254.8,94.6c0,0,6.1,13.9,8.1,11.6c2-2.3,2.7-7.7,2.7-7.7s12.7,15.3,16.7,12.7c4-2.7-0.3-10-0.3-10
			s11.4,6.7,12.8,1.5c1-3.4-1.7-9.1-6.8-11.2c-4.6-1.8-9.3-1.3-9.3-1.3s4-3.7-2-6.7s-26.3,2.7-26.3,2.7L254.8,94.6z"/>
		<g>
			<path class="st2" d="M263.9,83.6c0.4,1.4,0.4,3,0.1,4.4c-0.3,1.5-0.8,2.9-1.5,4.2c-0.8,1.3-1.7,2.5-2.8,3.5
				c-1.1,1-2.4,1.7-3.8,2.2c0.9-1.2,1.9-2.2,2.7-3.3c0.9-1.1,1.6-2.2,2.2-3.4C262.1,88.9,263,86.4,263.9,83.6z"/>
		</g>
		<path class="st1" d="M168.2,145.2c0,0-2.4,8.7-8.7,12.7c-2.6,1.6-4.7-3.7-3-12.5c1.7-8.8,8.2-17.9,8.2-17.9s-9.5-7.5,2.4-16.3
			c10.1-7.4,16.8-8.4,16.8-8.4s5.7-22.4,26.6-23.9c7-0.5,6.5,5.1,6.5,5.1s27.3-19,44.9-11.2c9.6,4.2-5.5,31.4-18.5,34.1
			c-3.9,0.8-1.5-9.4-1.5-9.4s-3.2,7-18.3,11.9c-10.8,3.5-12.2-1.1-12.2-1.1s-5.1,16.4-15.8,20.1c-6.8,2.3-7.8-1.3-7.8-1.3
			S180.5,155.3,168.2,145.2z"/>
		<g>
			<path class="st2" d="M176.8,115.4c-1.5,1.5-3,3.1-4.1,4.8c-1.2,1.7-2.2,3.6-2.6,5.6c-0.2,1-0.3,2-0.1,2.9
				c0.2,0.9,0.5,2.1,0.9,2.3c0.5,0.3,1.5,0,2.3-0.5c0.9-0.5,1.7-1.1,2.5-1.7l2.6-2.1l-1.4,3c-0.3,0.6-0.6,1.4-0.8,2.1
				c-0.2,0.7-0.3,1.5-0.4,2.3c-0.1,0.8-0.1,1.5,0,2.3c0,0.8,0.3,1.6,0.5,2.3c-0.4-0.7-0.8-1.4-1-2.2c-0.2-0.8-0.4-1.6-0.4-2.5
				c0-0.8,0-1.7,0.2-2.5c0.2-0.8,0.4-1.6,0.7-2.5l1.1,0.8c-0.8,0.8-1.7,1.4-2.7,2c-0.5,0.3-1,0.5-1.7,0.7c-0.6,0.1-1.4,0.2-2.1-0.2
				c-0.7-0.4-1.1-1.1-1.2-1.7c-0.2-0.6-0.3-1.1-0.4-1.7c-0.1-1.2,0-2.3,0.3-3.4c0.6-2.2,1.8-4.1,3.2-5.8c0.7-0.8,1.5-1.6,2.3-2.3
				C175.1,116.7,175.9,116,176.8,115.4z"/>
		</g>
		<g>
			<path class="st5" d="M242.6,17c-1.8,9.6,0.7,18.1,5.5,19c4.8,0.9,10.2-6.1,12-15.7c1.8-9.6-0.7-18.1-5.5-19
				C249.8,0.4,244.4,7.4,242.6,17z"/>
			<g>
				<path class="st5" d="M233.9,85.4c0,0-6.9-28.8,0.2-53.7c7-24.7,16.1-29.1,16.1-29.1l0.2,33.4c0,0-4.3-0.3-7.4,3.8
					c-12.5,16.6-3.6,47.3-3.6,47.3L233.9,85.4z"/>
				<path class="st6" d="M244.7,18.7c-0.8,6.6,2.7,13.9,5.3,14.4c2.6,0.5,5.7-4.4,7-11c1.2-6.5,0.1-14.6-2.5-15.1
					C251.8,6.5,245.9,9.3,244.7,18.7z"/>
			</g>
		</g>
		<ellipse transform="matrix(0.8327 -0.5537 0.5537 0.8327 -9.168 146.405)" class="st1" cx="237.7" cy="88.4" rx="12.4" ry="4.2"/>
		<g>
			<g>
				<g>
					<path class="st9" d="M268.2,89.3c0,0,0.9,1.6,1.9,4.2c0.5,1.3,0.9,2.8,1.3,4.5c1,5-0.1,10.1-2,14.8c-0.5,1.2-1,2.2-1.4,2.9
						c-0.2,0.3-0.3,0.6-0.4,0.8c-0.1,0.2-0.2,0.3-0.2,0.3l1.7,1c0,0,0.1-0.1,0.2-0.3c0.1-0.2,0.2-0.5,0.4-0.9
						c0.3-0.8,0.8-1.9,1.2-3.2c1.6-5,2.4-10.4,1.1-15.5c-0.4-1.7-1-3.2-1.6-4.5C269.2,90.9,268.2,89.3,268.2,89.3z"/>
					<path class="st9" d="M258.5,86.3c0,0,1.2,1.4,2.6,3.8c0.7,1.2,1.4,2.6,2,4.2c1.9,4.8,1.7,10,0.6,14.9c-0.3,1.3-0.6,2.4-0.8,3.1
						c-0.1,0.4-0.2,0.7-0.3,0.8c-0.1,0.2-0.1,0.3-0.1,0.3l1.9,0.7c0,0,0-0.1,0.1-0.4c0.1-0.2,0.2-0.5,0.2-0.9c0.2-0.8,0.4-2,0.6-3.4
						c0.7-5.2,0.6-10.6-1.7-15.5c-0.7-1.6-1.6-3-2.4-4.1C259.8,87.7,258.5,86.3,258.5,86.3z"/>
					<path class="st9" d="M252.2,90.8c0,0,1.2,1.4,2.6,3.8c0.7,1.2,1.4,2.6,2,4.2c1.9,4.8,1.7,10,0.6,14.9c-0.3,1.3-0.6,2.4-0.8,3.1
						c-0.1,0.4-0.2,0.7-0.3,0.8c-0.1,0.2-0.1,0.3-0.1,0.3l1.9,0.7c0,0,0-0.1,0.1-0.4c0.1-0.2,0.2-0.5,0.2-0.9c0.2-0.8,0.4-2,0.6-3.4
						c0.2-1.4,0.3-3,0.4-4.8c0.1-3.7-0.5-7.3-2.1-10.7c-0.7-1.6-1.6-3-2.4-4.1C253.5,92.2,252.2,90.8,252.2,90.8z"/>
					<path class="st9" d="M233.3,90.9c0,0,0.9,1.6,1.9,4.2c0.5,1.3,0.9,2.8,1.3,4.5c1,5.1-0.1,10.1-2,14.8c-0.5,1.2-1,2.2-1.4,2.9
						c-0.2,0.3-0.3,0.6-0.4,0.8c-0.1,0.2-0.2,0.3-0.2,0.3l1.7,1c0,0,0.1-0.1,0.2-0.3c0.1-0.2,0.2-0.5,0.4-0.9
						c0.3-0.8,0.8-1.9,1.2-3.2c1.6-5,2.4-10.4,1.1-15.5c-0.5-1.7-1-3.2-1.6-4.5C234.4,92.4,233.3,90.9,233.3,90.9z"/>
					<path class="st9" d="M223.7,87.8c0,0,1.2,1.4,2.6,3.8c0.7,1.2,1.4,2.6,2,4.2c1.9,4.8,1.7,10,0.6,14.9c-0.3,1.3-0.6,2.4-0.8,3.1
						c-0.1,0.4-0.2,0.7-0.3,0.8c-0.1,0.2-0.1,0.3-0.1,0.3l1.9,0.7c0,0,0-0.1,0.1-0.4c0.1-0.2,0.2-0.5,0.2-0.9c0.2-0.8,0.4-2,0.6-3.4
						c0.7-5.2,0.6-10.6-1.7-15.5c-0.7-1.6-1.6-3-2.4-4.1C225,89.2,223.7,87.8,223.7,87.8z"/>
					<path class="st9" d="M217.4,92.3c0,0,1.2,1.4,2.6,3.8c3.5,6,4.1,12.4,2.7,19.1c-0.3,1.3-0.6,2.4-0.8,3.1
						c-0.1,0.4-0.2,0.7-0.3,0.8c-0.1,0.2-0.1,0.3-0.1,0.3l1.9,0.7c0,0,0-0.1,0.1-0.3c0.1-0.2,0.2-0.5,0.2-0.9c0.2-0.8,0.4-2,0.6-3.4
						c0.7-5.2,0.6-10.6-1.7-15.5c-0.7-1.6-1.6-3-2.4-4.1C218.7,93.7,217.4,92.3,217.4,92.3z"/>
				</g>
				<path class="st10" d="M250,125.2c0,8.1,5.3,14.6,11.8,14.6c6.5,0,11.8-6.6,11.8-14.6c0-8.1-5.3-14.6-11.8-14.6
					C255.3,110.6,250,117.1,250,125.2z"/>
				<path class="st9" d="M254.6,129.9c0,3.6,2.3,6.5,5.1,6.5s5.1-2.9,5.1-6.5c0-3.6-2.3-6.5-5.1-6.5S254.6,126.3,254.6,129.9z"/>
				<path class="st10" d="M217.1,125.2c0,8.1,5.3,14.6,11.8,14.6c6.5,0,11.8-6.6,11.8-14.6c0-8.1-5.3-14.6-11.8-14.6
					C222.4,110.6,217.1,117.1,217.1,125.2z"/>
				<path class="st9" d="M223.2,129.9c0,3.6,2.3,6.5,5.1,6.5c2.8,0,5.1-2.9,5.1-6.5c0-3.6-2.3-6.5-5.1-6.5
					C225.5,123.4,223.2,126.3,223.2,129.9z"/>
			</g>
			<g>
				<g>
					<path class="st9" d="M238,143.2c1.3-3.3,4.2-8.5,6.8-8.6c3-0.1,5.9,4.2,6.8,5.8l1.8-0.9c-0.2-0.3-3.9-7.1-8.6-6.9
						c-4.8,0.2-8.2,8.9-8.6,9.9L238,143.2z"/>
					<g>
						<path class="st11" d="M249.8,142.9c0,5.1,5.9,9.2,13.2,9.2c7.3,0,13.2-4.1,13.2-9.2c0-5.1-5.9-9.2-13.2-9.2
							C255.7,133.6,249.8,137.8,249.8,142.9z"/>
						<path class="st9" d="M248.8,142.9c0-5.7,6.4-10.2,14.2-10.2c7.8,0,14.2,4.6,14.2,10.2c0,5.7-6.4,10.2-14.2,10.2
							C255.1,153.1,248.8,148.5,248.8,142.9z M250.8,142.9c0,4.5,5.5,8.2,12.2,8.2c6.7,0,12.2-3.7,12.2-8.2c0-4.5-5.5-8.2-12.2-8.2
							C256.2,134.6,250.8,138.3,250.8,142.9z"/>
					</g>
					<g>
						<path class="st11" d="M212.5,142.9c0,5.1,6.1,9.2,13.7,9.2c7.6,0,13.7-4.1,13.7-9.2c0-5.1-6.1-9.2-13.7-9.2
							C218.6,133.6,212.5,137.8,212.5,142.9z"/>
						<path class="st9" d="M211.5,142.9c0-5.7,6.6-10.2,14.7-10.2c8.1,0,14.7,4.6,14.7,10.2c0,5.7-6.6,10.2-14.7,10.2
							C218.1,153.1,211.5,148.5,211.5,142.9z M213.5,142.9c0,4.5,5.7,8.2,12.7,8.2s12.7-3.7,12.7-8.2c0-4.5-5.7-8.2-12.7-8.2
							S213.5,138.3,213.5,142.9z"/>
					</g>
					<path class="st9" d="M207.5,143.1c0,1.4,1.1,2.5,2.5,2.5c1.4,0,2.5-1.1,2.5-2.5c0-1.4-1.1-2.5-2.5-2.5
						C208.6,140.6,207.5,141.7,207.5,143.1z"/>
					<path class="st9" d="M276.2,143.1c0,1.4,1.1,2.5,2.5,2.5c1.4,0,2.5-1.1,2.5-2.5c0-1.4-1.1-2.5-2.5-2.5
						C277.3,140.6,276.2,141.7,276.2,143.1z"/>
				</g>
				<g>
					<path class="st1" d="M233.6,157.9c0,0,6.2-8.4,14.3-12.1c8.1-3.7,11.3-1.3,11.3-1.3s6.4,5.9,6,12.1c-0.3,6.2-4.3,15.5-7.1,16.1
						c-2.8,0.6-8.7-2.5-8.7-2.5s-1.6,6.2-3.1,7.1c-1.6,0.9-5.9-1.6-9.9-7.4C232.3,164.1,233.6,157.9,233.6,157.9z"/>
					<path class="st2" d="M243.6,151.8c0,0-0.2,0.4-0.4,1.2c-0.2,0.8-0.4,1.9-0.4,3.3c-0.1,5.1,1.4,11.1,5.8,14.3
						c2.1,1.8,5,2.5,7.8,2.4c0.4,0,0.7-0.1,0.9-0.1c0.2,0,0.3-0.1,0.3-0.1s-0.5-0.1-1.2-0.2c-4.3-1-7.9-3.7-9.9-7.7
						c-1.8-3.6-2.7-7.9-2.9-11.9C243.5,152.3,243.6,151.8,243.6,151.8z"/>
					<path class="st2" d="M242.7,151.9c0,0.6,0.5,1.1,1.1,1.1c0.6,0,1.1-0.5,1.1-1.1c0-0.6-0.5-1.1-1.1-1.1
						C243.2,150.8,242.7,151.3,242.7,151.9z"/>
				</g>
			</g>
		</g>
		<g>
			<path class="st2" d="M213.5,97c-1,2-2,3.9-2.4,5.9c-0.2,1-0.3,2-0.2,3c0.1,1,0.4,2,0.8,3.1c-0.9-0.7-1.6-1.7-1.9-2.8
				c-0.3-1.1-0.3-2.4-0.1-3.6c0.3-1.2,0.8-2.2,1.5-3.2C211.7,98.4,212.5,97.6,213.5,97z"/>
		</g>
		<g>
			<path class="st2" d="M188,127.5c-0.8-1.4-1.5-3.1-1.6-4.8c-0.2-1.7,0.2-3.6,1.1-5.2c0.9-1.5,2.2-2.8,3.6-3.8
				c0.7-0.5,1.5-0.8,2.3-1.2c0.8-0.3,1.6-0.6,2.4-0.8c-0.7,0.5-1.4,1-2.1,1.4c-0.6,0.5-1.3,1-1.9,1.5c-0.6,0.6-1.2,1-1.7,1.7
				c-0.5,0.6-0.9,1.2-1.3,1.9c-0.8,1.3-1.1,2.8-1.2,4.4C187.4,124.3,187.7,125.8,188,127.5z"/>
		</g>
		<g>
			<path class="st2" d="M282.7,102.4c-1.4-1.7-2.6-3.3-4-4.8c-0.7-0.7-1.4-1.4-2.2-2.1c-0.8-0.6-1.6-1.2-2.6-1.8
				c1.1,0,2.2,0.3,3.2,0.8c1,0.5,1.9,1.3,2.6,2.1c0.7,0.8,1.4,1.7,1.9,2.7C282.1,100.3,282.5,101.3,282.7,102.4z"/>
		</g>
		<g>
			<path class="st2" d="M229.3,88.8c0.8-0.8,1.7-1.5,2.6-2.2c0.9-0.7,1.8-1.4,2.7-2.1c1.9-1.3,3.8-2.6,5.9-3.6c1-0.5,2.1-1,3.3-1.3
				c0.6-0.1,1.2-0.3,1.9-0.3c0.7,0,1.4,0.1,2,0.6c0.3,0.2,0.6,0.6,0.7,1c0.1,0.4,0.1,0.8,0.1,1.2c-0.1,0.7-0.4,1.3-0.7,1.8
				c-0.6,1.1-1.3,2-2.1,2.9l-0.7-1.1c1.9-0.7,3.7-1.3,5.7-1.7c1-0.2,1.9-0.4,2.9-0.5c1-0.1,2-0.2,3,0c-2,0.2-3.8,0.8-5.6,1.4
				c-1.8,0.6-3.6,1.3-5.4,2.1l-2.6,1.1l1.9-2.2c0.7-0.8,1.3-1.7,1.8-2.6c0.2-0.5,0.4-0.9,0.5-1.4c0-0.4,0-0.6-0.3-0.8
				c-0.5-0.4-1.7-0.4-2.7-0.1c-1,0.2-2.1,0.6-3.1,1.1c-2,0.9-4,2-5.9,3.1C233.1,86.4,231.2,87.6,229.3,88.8z"/>
		</g>
		<g>
			<path class="st2" d="M217.2,83.5c0.2,1.2,0.1,2.5-0.3,3.6c-0.4,1.2-1,2.3-1.9,3.2c-0.9,0.9-2,1.7-3.1,2.1
				c-0.6,0.3-1.2,0.3-1.8,0.4c-0.6,0.1-1.2,0-1.8,0c0.6-0.3,1.1-0.4,1.6-0.7c0.5-0.3,1-0.5,1.5-0.8c1-0.5,1.8-1.2,2.5-2
				C215.5,87.8,216.5,85.7,217.2,83.5z"/>
		</g>
	</g>
</g>
<g id="Labels">
</g>
</svg>
