<?xml version="1.0" encoding="utf-8"?>
<!-- Generator: Adobe Illustrator 21.1.0, SVG Export Plug-In . SVG Version: 6.00 Build 0)  -->
<svg version="1.1" xmlns="http://www.w3.org/2000/svg" xmlns:xlink="http://www.w3.org/1999/xlink" x="0px" y="0px"
	 viewBox="0 0 110 174" enable-background="new 0 0 110 174" xml:space="preserve" width="110" height="174" preserveAspectRatio="none">
<g id="Lizzie_Cast_Shadow">
</g>
<g id="Lizzie_Left_Horn">
</g>
<g id="Lizzie_Tail">
</g>
<g id="Layer_24">
</g>
<g id="Lizzie_Right_Leg">
</g>
<g id="Lizzie_Left_Leg">
</g>
<g id="Lizzie_Wings">
</g>
<g id="Lizzie_Right_Horn">
</g>
<g id="Lizzie_Left_Ear">
</g>
<g id="Lizzie_Right_Ear">
</g>
<g id="Lizzie_Right_Arm">
</g>
<g id="Lizzie_Left_Arm">
</g>
<g id="Lizzie_3rd_grade_Dress">
</g>
<g id="Lizzie_4th_Grade_Dress">
</g>
<g id="Lizzie_5th_Grade_Dress">
</g>
<g id="Lizzie_Head">
</g>
<g id="Lizzie_3rd_Grade_Bow">
</g>
<g id="Lizzie_4th_Grade_Flowers">
</g>
<g id="Lizzie_Glasses">
</g>
<g id="Lizzie_5th_Grade_headband">
</g>
<g id="LIzzie_Eyes">
</g>
<g id="Lizzie_Snout">
</g>
<g id="Lizzie_Mouth">
	<g>
		<g>
			<g opacity="0.1">
				<g>
					<path fill="#384E7D" d="M17.1,156.3c0,0,4.1,3,11.7,4.8c1,0.3,2.4,0.5,3.9,0.6c6.4-1,14.9-1.7,24.2-1.7c19.9,0,36,2.9,36,6.4
						c0,3.5-16.1,6.4-36,6.4c-19.9,0-36-2.9-36-6.4c0-0.5,0.3-0.9,0.8-1.3c-1.5-1.1-3.2-2.5-4.3-3.9C14,157.3,17.1,156.3,17.1,156.3
						"/>
				</g>
			</g>
		</g>
		<g>
			<path fill="#340100" d="M69.6,16c0,0,7.7-9,10.8-7.3c3.1,1.7,1.4,12.5,1.4,12.5L69.6,16z"/>
		</g>
		<path fill="#340100" d="M43.8,85.2c0,0-6.8-1.7-8.5-0.7C34,85.3,33,91.9,33,91.9L43.8,85.2z"/>
		<path fill="#340100" d="M33,91.3c0,0-5.2-2.1-6.8-1.2c-1.6,0.9-3.1,5.6-3.1,5.6s-5-2.8-6.7-2.4c-1.7,0.5-3.6,3.4-3.6,3.4l-1.1,0.9
			c0,0-2.7-4.5-4.3-4.3C5.9,93.6,3.7,97,3.7,97l10.7,2L31,93.6L33,91.3z"/>
		<path fill="#80C342" d="M49.3,80c0,0-19.2,14.3-30.7,16.1C7,97.9,2.1,95.7,1,97.2c-0.8,1,6.4,9.2,28,9.8c11.6,0.3,18.2-8,18.2-8
			L49.3,80z"/>
		<path fill="#F1729A" d="M51.5,99c0,0-8.2,7.2-22.1,8.3c-11.5,1-23.9-4.4-27-7.8c0.6,0,1.3,0.2,2.1,0.3c5.3,0.5,8.2,3.8,8.2,3.8
			s-1.2-3.4,3.1-4.1c4.3-0.7,8.8,4.3,8.8,4.3s2.9-7.1,8.1-9.3c6.9-2.9,10.7-1.8,15.1-1.5L51.5,99z"/>
		<g>
			<path fill="#340100" d="M75.1,111.8c0,0,2.1,3,1.7,3.9c-0.4,0.8-5.5-1.7-5.5-1.7s0.2,5.6-1,5.5c-1.2-0.1-3.1-4.4-3.1-4.4
				s-2.7,4.7-3.7,4.5c-1-0.2-2.1-5.3-2.1-5.3L75.1,111.8z"/>
			<path fill="#80C342" d="M73.5,92c0,0,2.4,6.7,2.9,12.1c0.4,5.4-0.6,8.2-1.1,8.9c-0.5,0.7-2.6,3.1-9,3.5c-6.4,0.3-7.8-2.4-8.2-2.7
				c-0.4-0.3,2.4-5.9,3.1-10c0.7-4.1,1.4-9.6,1.4-9.6L73.5,92z"/>
			<path fill="#00722D" d="M65.3,104.6c0,0,0.1,0,0.3,0.1c0.2,0.1,0.5,0.2,0.8,0.3c0.7,0.2,1.8,0.3,3-0.1c0.6-0.2,1.2-0.4,1.9-0.8
				c0.6-0.4,1.3-0.8,1.8-1.5c0.3-0.4,0.5-0.8,0.6-1.3c0.1-0.5,0.1-1.2-0.1-1.7c-0.9-1.9-3.3-1.6-4.8-0.8c-0.4,0.2-0.7,0.5-1,0.8
				c-0.3,0.3-0.6,0.7-0.7,1.3c-0.2,0.8,0.2,1.5,0.9,1.8c0.9,0.4,1.9,0.1,2.7-0.5c0.3-0.2,0.5-0.4,0.7-0.7c0.2-0.3,0.2-0.8,0-1.1
				c-0.5-0.8-1.5-0.6-2.1-0.1c-0.2,0.1-0.2,0.2-0.2,0.2s0.1-0.1,0.2-0.2c0.2-0.1,0.4-0.2,0.8-0.3c0.2,0,0.4,0,0.6,0
				c0.2,0.1,0.4,0.2,0.5,0.4c0.1,0.2,0.1,0.6-0.1,0.8c-0.1,0.3-0.4,0.5-0.6,0.6c-0.6,0.4-1.4,0.6-2.1,0.4c-0.6-0.1-1.1-0.7-0.9-1.4
				c0.1-0.4,0.3-0.7,0.6-1c0.3-0.3,0.6-0.5,1-0.7c0.7-0.4,1.5-0.6,2.3-0.6c0.8,0,1.6,0.3,2,1.1c0.4,0.7,0.1,1.6-0.3,2.2
				c-0.5,0.7-1.1,1.3-1.8,1.7c-0.6,0.4-1.2,0.6-1.8,0.8c-0.6,0.2-1.1,0.3-1.6,0.3c-0.5,0-0.9,0-1.3,0c-0.4-0.1-0.6-0.2-0.8-0.2
				C65.4,104.6,65.3,104.6,65.3,104.6"/>
		</g>
		<g>
			<path fill="#340100" d="M52.6,113.1c0,0,1.2,3.6,0.6,4.3c-0.6,0.7-4.8-3.5-4.8-3.5s-1.3,5.5-2.4,5c-1.1-0.5-1.8-5.2-1.8-5.2
				s-3.9,3.7-4.7,3.2c-0.9-0.5-0.6-5.8-0.6-5.8L52.6,113.1z"/>
			<path fill="#80C342" d="M56.3,93.5c0,0,0.6,7.2-0.4,12.5c-1,5.3-2.7,7.7-3.4,8.2c-0.7,0.5-3.3,2.2-9.5,0.4
				c-6.2-1.8-6.8-4.9-7.1-5.3c-0.3-0.4,3.8-4.9,5.5-8.6c1.7-3.7,3.8-8.8,3.8-8.8L56.3,93.5z"/>
			<path fill="#00722D" d="M53.8,104.9c0,0-0.1,0.1-0.3,0.2c-0.2,0.1-0.4,0.3-0.8,0.4c-0.7,0.3-1.8,0.5-3,0.3
				c-0.6-0.1-1.3-0.2-1.9-0.5c-0.7-0.3-1.3-0.7-1.9-1.3c-0.3-0.3-0.6-0.7-0.7-1.2c-0.2-0.5-0.2-1.1,0-1.7c0.8-2,3.2-2,4.7-1.4
				c0.4,0.2,0.7,0.4,1.1,0.6c0.3,0.3,0.6,0.6,0.8,1.2c0.1,0.2,0.1,0.6,0,0.9c-0.4,1.7-2.4,1.6-3.5,1c-0.3-0.2-0.5-0.4-0.7-0.7
				c-0.2-0.3-0.3-0.7-0.1-1.1c0.4-0.8,1.4-0.7,2-0.4c0.2,0.1,0.2,0.2,0.2,0.2s-0.1-0.1-0.3-0.1c-0.4-0.2-1-0.2-1.4,0
				c-0.4,0.2-0.6,0.6-0.4,1c0.4,0.9,1.8,1.2,2.6,1c0.6-0.2,1.4-0.7,1.1-1.6c-0.1-0.4-0.4-0.7-0.7-0.9c-0.3-0.2-0.6-0.4-1-0.6
				c-0.7-0.3-1.5-0.4-2.3-0.3c-0.8,0.1-1.6,0.5-1.9,1.4c-0.5,1.2,0.5,2.4,1.3,3c0.8,0.6,1.9,1,2.9,1.2c0.6,0.1,1.1,0.1,1.6,0.1
				c0.5,0,0.9-0.1,1.3-0.2c0.3-0.1,0.6-0.2,0.8-0.3C53.7,104.9,53.8,104.9,53.8,104.9"/>
		</g>
		<g>
			<path fill="#00722D" d="M39.1,77.1c0.1-0.4,0.3-0.8,0.4-1.1c0.4-0.7,0.8-1.4,1.2-2c-0.3,0.7-0.7,1.4-1,2.1
				c-0.2,0.5-0.4,1.1-0.4,1.6c0,0.1,0,0.1,0.1,0.2c0.1,0.1,0.3,0.1,0.4,0.1c0.6-0.1,1.1-0.4,1.5-0.7c0.6-0.4,3.2-2.4,3.2-2.4
				s-2.2,3.2-2.8,4.1c-0.3,0.5-0.5,0.9-0.7,1.4c-0.1,0.3-0.3,0.7-0.2,1c0.2,0.5,1.2,0,1.4-0.1c0.5-0.2,1-0.5,1.4-0.8
				c0.9-0.6,1.8-1.2,2.7-1.8c-0.8,0.8-1.6,1.5-2.5,2.1c-0.4,0.3-0.9,0.6-1.4,0.9c-0.2,0.1-0.5,0.2-0.8,0.3c-0.3,0.1-0.8,0.1-1.1-0.1
				c-0.3-0.2-0.4-0.6-0.3-0.9c0-0.3,0.1-0.6,0.2-0.9c0.2-0.5,0.5-1,0.7-1.5c0.2-0.4,0.4-0.7,0.6-1c-0.1,0-0.1,0.1-0.2,0.1
				c-0.3,0.2-0.7,0.4-1.1,0.6c-0.2,0.1-0.4,0.1-0.6,0.2c-0.1,0-0.3,0-0.4,0c-0.1,0-0.1,0-0.3-0.1C39,78.3,39,78,39,77.7
				C39,77.5,39,77.3,39.1,77.1"/>
			<path fill="#00722D" d="M73,83.2c1,0.6,2.3,1.3,3.5,1.2c0.2,0,0.4-0.1,0.5-0.2c0.3-0.2,0.5-0.6,0.4-1c0-0.5-0.3-1-0.5-1.5
				c-0.3-0.5-0.6-1-0.9-1.4c-0.9-1.3-4-4.9-4-4.9s4.2,2.3,5.6,2.9c0.7,0.3,1.4,0.5,2.1,0.4c0.3,0,0.6-0.1,0.7-0.4
				c0.1-0.2,0.1-0.5,0-0.7c-0.3-0.4-0.8-0.8-1.2-1.1c-0.6-0.4-1.3-0.8-2-1.1c-1.4-0.7-2.9-1.3-4.4-1.8l-2.9-1l3-0.3
				c0.6,0,1.1-0.1,1.7-0.2c0.6-0.1,1.2-0.2,1.7-0.3c1-0.2,2.1-0.5,3.1-0.9c0.3-0.2,1.1-0.5,1.1-0.9c0-0.4-0.5-0.6-0.8-0.7
				c-1-0.5-2.2-0.6-3.4-0.7c-1.2-0.1-2.5-0.1-3.8-0.1l-3.3,0.1l3.1-1.1c1.4-0.5,2.7-1,4.1-1.7c0.7-0.3,1.3-0.7,1.9-1.1
				c0.6-0.4,1.2-0.8,1.6-1.4c0.2-0.3,0.3-0.6,0.2-0.9c0-0.3-0.2-0.5-0.5-0.7c-0.6-0.3-1.4-0.3-2.1-0.3c-1.5,0-2.9,0.3-4.4,0.6
				c1.4-0.4,2.9-0.8,4.4-0.9c0.7,0,1.5-0.1,2.3,0.3c0.4,0.2,0.7,0.5,0.8,1c0.1,0.4,0,0.9-0.2,1.2c-0.4,0.7-1,1.2-1.6,1.7
				c-0.6,0.5-1.3,0.9-1.9,1.2c-0.6,0.3-1.1,0.6-1.7,0.9c0.7,0,1.4,0,2.1,0.1c1.1,0.1,2.3,0.3,3.3,0.8c0.6,0.3,1.1,0.8,1.2,1.5
				c0.1,0.9-0.5,1.5-1.2,1.9c-1,0.7-2.2,1-3.4,1.3c-0.5,0.1-1.1,0.2-1.6,0.3c0.7,0.3,1.4,0.6,2.1,1c0.7,0.4,1.5,0.8,2.2,1.3
				c0.4,0.2,0.7,0.5,1,0.9c0.8,0.8,1.2,2.1,0.3,3c-1.1,1.1-2.9,0.6-4.1,0.1c-0.5-0.2-0.9-0.4-1.3-0.6c0.3,0.4,0.6,0.7,0.8,1.1
				c0.5,0.7,0.9,1.4,1.2,2.2c0.1,0.4,0.3,0.8,0.3,1.3c0,1.1-0.8,1.8-1.8,1.7c-1.2,0-2.5-0.8-3.5-1.5c-1.4-0.9-2.6-1.9-3.8-3
				C70.3,81.5,71.6,82.4,73,83.2"/>
			<path fill="#00722D" d="M20.8,64.6c0.1-0.3,0.4-0.6,0.8-0.7c1-0.5,2.2-0.4,3.2-0.4c0.8,0,1.6,0.1,2.4,0.2
				c1.6,0.2,3.2,0.4,4.7,0.6c1.5,0.2,2.9,0.5,4.3,0.8c-1-0.5-2.1-1.1-3.1-1.7c-1-0.6-2-1.2-2.9-1.8c-0.8-0.6-1.7-1.2-2.2-2
				c-0.2-0.2-0.3-0.5-0.3-0.8c0-0.5,0.4-1,0.9-1.2c0.9-0.4,2-0.2,2.8-0.1c1,0.1,1.9,0.4,2.8,0.6c1.4,0.4,2.8,0.8,4.1,1.3
				c1.7,0.6,3.4,1.2,5,1.9c-1-0.9-2-1.8-2.9-2.7c-0.8-0.9-1.7-1.8-2.4-2.8c-0.4-0.6-0.9-1.3-1.1-2.1c-0.1-0.4-0.1-0.8,0.1-1.2
				c0.2-0.4,0.7-0.6,1.1-0.6c0.9-0.1,2,0.2,2.8,0.5c1.1,0.4,2.2,1,3.3,1.6c2.1,1.2,4.1,2.5,6.1,3.9c-2-1.3-4.1-2.6-6.2-3.7
				c-1.1-0.6-2.2-1.1-3.3-1.5c-0.6-0.2-1.1-0.4-1.7-0.4c-0.6-0.1-1.2-0.1-1.6,0.2c-0.4,0.3-0.3,0.9,0,1.4c0.3,0.5,0.6,1,1,1.4
				c0.8,0.9,1.6,1.8,2.5,2.6c1.7,1.6,3.6,3.2,5.5,4.6l3.1,2.4L46,63.5c-2.6-1.1-5.3-2.1-8-3c-1.3-0.5-2.7-1-4.1-1.4
				c-1.4-0.4-2.7-0.8-4-0.8c-0.8,0-1.2,0.5,0.4,1.7c1.1,0.8,2.3,1.6,3.5,2.3c2.5,1.4,5,2.7,7.6,3.9l5.4,2.5L41,67.4
				c-3.1-0.7-6.1-1.3-9.2-1.8c-1.5-0.2-3.1-0.5-4.6-0.6c-0.8-0.1-1.5-0.1-2.3-0.2c-0.9,0-2.7-0.2-2.8,0.3c-0.1,0.6,1.3,1,2.1,1.3
				c1.4,0.5,3,0.8,4.5,1.1c3.1,0.5,12.3,1.7,12.3,1.7s-8.9,0.7-11.8,1c-1.5,0.2-2.9,0.4-4.3,0.8c-0.3,0.1-0.6,0.2-0.9,0.3
				c-0.2,0.1-0.6,0.3-0.6,0.6c0,0.1,0,0.1,0,0.2c0.2,0.5,0.8,0.7,1.3,1c1.3,0.6,2.7,0.9,4.2,1.2c1.4,0.3,2.9,0.5,4.4,0.7
				c2.9,0.3,4.1,0.5,7,0.6c-3,0-4.1,0-7.1-0.3c-1.5-0.1-2.9-0.3-4.4-0.5c-1.5-0.2-2.9-0.5-4.4-1.1c-0.6-0.2-1.2-0.6-1.5-1.1
				c-0.1-0.2-0.2-0.4-0.2-0.6c0-0.5,0.3-0.9,0.7-1.2c0.8-0.5,1.8-0.7,2.7-0.9c1-0.2,2-0.4,2.9-0.5c0.7-0.1,1.5-0.2,2.2-0.2
				c-0.9-0.1-1.9-0.3-2.8-0.4c-1.6-0.3-3.1-0.6-4.7-1.2c-0.9-0.3-2-0.8-2.6-1.6C20.8,65.6,20.6,65.1,20.8,64.6"/>
		</g>
		<g>
			<path fill="#340100" d="M54.3,12.9c0,0-1.4-3.6-4.9-5.8c-3.5-2.2-4.9-2.6-5.9-1.9c-1,0.7-1.7,2.2-2.1,5.3
				c-0.4,3.1,0.6,7.3,0.6,7.3L54.3,12.9z"/>
		</g>
		<g>
			<path fill="#F1729A" d="M14.6,24.4c0,0,5.5-0.8,8.3-3.2c5.2-4.4,9.2-14.9,9.2-14.9l3.3,22.6L22.9,41.5c0,0,0.5-2.3-1.5-6.4
				C19.3,30.9,14.6,24.4,14.6,24.4"/>
			<path fill="#80C342" d="M32.7,1.1c0,0-0.2,8.2,0.5,13.7c0.8,5.5,3.7,15,3.7,15S30,38.6,26.9,40.2c-3.1,1.6-6.3,3.6-6.3,3.6
				s1.1-2.9,4.7-7.1c3.5-4.1,8.8-7.2,8.8-7.2s-1.8-5-2.9-13.2C30.1,8.2,32.7,1.1,32.7,1.1"/>
			<path fill="#C3105D" d="M19.2,28.8c0,0,0.8-0.3,2.1-0.5c1.3-0.3,2.9-0.5,4.6-0.7c3.4-0.3,6.8,0,6.8,0s-0.8-0.3-2.1-0.5
				c-1.3-0.2-3-0.3-4.8-0.1c-1.7,0.2-3.4,0.5-4.7,0.9c-0.6,0.2-1.1,0.4-1.5,0.6C19.4,28.7,19.2,28.8,19.2,28.8"/>
		</g>
		<g>
			<path fill="#F1729A" d="M109.1,44.6c0,0-4.9-4.4-6.2-11.1C101.6,26.8,102,16,102,16L88.2,34.2l4.9,17.1c0,0,0.7-2.2,4.4-4.9
				C101.3,43.7,109.1,44.6,109.1,44.6"/>
			<path fill="#80C342" d="M104,11.1c0,0-3.8,7.3-7.1,11.8c-3.3,4.4-10.4,11.3-10.4,11.3s1.8,11.1,3.8,14c2,2.9,3.8,6.2,3.8,6.2
				s0.4-3.1-0.7-8.4c-1.1-5.3-3.8-12.2-3.8-12.2s3.6-1.8,8.4-8.4C102.9,18.6,104,11.1,104,11.1"/>
			<path fill="#C3105D" d="M102.5,42c0,0-0.1-0.2-0.3-0.5c-0.2-0.3-0.6-0.7-1-1.2c-0.9-1-2.2-2.1-3.6-3.1c-1.4-1-3-1.7-4.2-2.2
				c-1.2-0.5-2.1-0.6-2.1-0.6s3.2,1.4,6,3.3c1.4,0.9,2.8,2,3.7,2.8C101.9,41.3,102.5,42,102.5,42"/>
		</g>
		<g>
			<path fill="#340100" d="M84.5,67.3c0,0,0.7-3.4,1.5-3.6c0.7-0.2,2.9,1.8,2.9,1.8s4.8-0.7,5.4-0.1c0.6,0.5-1.4,3.3-1.4,3.3
				s3.9,1.8,3.7,2.6c-0.3,0.8-3,1.9-3,1.9s1.2,3.3,0.7,3.8c-0.5,0.5-4.8-0.9-4.8-0.9L84.5,67.3z"/>
			<path fill="#80C342" d="M65.9,67.6c0,0,6.6,4.3,12,3.3c5.8-1.1,7.3-8,12.4-5.8c5.1,2.2,4.5,13.4-4.5,15.6
				c-10.7,2.6-18.2-7.3-18.2-7.3L65.9,67.6z"/>
			<path fill="#EFEADA" d="M73.7,70.8c-0.3,0.9-0.7,2-1.1,3c-0.4,1.2-0.2,2.9,0,4.3c-3.2-2.1-5.1-4.6-5.1-4.6L66.3,69L66,67.7
				C66.7,68.1,70,70.1,73.7,70.8"/>
		</g>
		<g>
			<g>
				<path fill="#340100" d="M37.6,79.2c0,0,0.5,3.4-0.1,4c-0.5,0.5-4-0.8-4-0.8s-3.9,2.9-4.7,2.8c-0.8-0.2-1.1-3.4-1.1-3.4
					s-3.5,0.2-3.7-0.6c-0.2-0.8,1.7-3.1,1.7-3.1s-2.7-2.3-2.5-3c0.2-0.7,4.7-1.5,4.7-1.5L37.6,79.2z"/>
				<path fill="#80C342" d="M51,71.2c0,0-5.3,0.2-8.9,3.1c-3.6,2.9-5.3,9.6-10.4,8.9c-5.1-0.7-7-5.6-5.1-9.1
					c8.7-11.6,25.1-6.3,25.1-6.3L51,71.2z"/>
				<path fill="#EFEADA" d="M44.3,72.9l-2.2-6.3c5.3-0.2,9.6,1.2,9.6,1.2L51,71.2C51,71.2,47.5,71.4,44.3,72.9"/>
			</g>
		</g>
		<g>
			<path fill="#A59E57" d="M65.9,63.4c0,0,3.1,9.1,5.6,15.1c2.5,6,6.9,12.9,6.9,12.9s-5.6,5.9-19.3,7.6c-13.9,1.7-20.5-2.2-20.5-2.2
				s3.7-13.8,8.1-21.7c4.4-7.8,7.8-12.9,7.8-12.9L65.9,63.4z"/>
			<path fill="#EFEADA" d="M61.3,75.6c-10.1-0.1-5.8-13.3-5.8-13.3l9,1C64.5,63.3,69.5,75.7,61.3,75.6z"/>
			<path fill="#EFEADA" d="M46.1,76.4c0.2-0.5,0.5-1,0.8-1.4c1.9-3.4,3.6-6.3,5-8.4c0.6,1.8,0.8,4.3-0.5,7.2
				C49.6,77.4,47.4,77.1,46.1,76.4"/>
			<path fill="#C8DCD8" d="M54.3,69.6c-1.4-0.2-2.1-1.7-2.4-3.3c1.6-2.6,2.7-4.1,2.7-4.1l11.3,1.3c0,0,0.9,2.5,2,5.7
				c-0.2,0.3-0.5,0.5-0.9,0.6c-2.9,0.6-4.8-2.8-4.8-2.8l1.2,6.2l-4.9,0.3l0.2-5.6C58.8,67.8,57.7,70,54.3,69.6"/>
		</g>
		<path fill="#A44386" d="M62.7,83.9c0,0,2.2,3.6,2.2,3.9c0.1,0.3-2.3,1.7-2.7,1.7c-0.3,0-0.7-4.8-0.7-4.8L62.7,83.9z"/>
		<path fill="#A44386" d="M60.4,84.1c0,0-2.4,3.5-2.5,3.8c-0.1,0.3,2.2,1.8,2.6,1.8c0.3,0,1-4.8,1-4.8L60.4,84.1z"/>
		<path fill="#A44386" d="M72.9,81.4c-1.3,0.9-4.4,2.4-11.3,3.6c-8.3,1.4-15.9-0.6-18.7-1.4c0.5-1.2,1-2.5,1.5-3.7
			c2.5,0.9,9.4,3.1,16.7,2.3c6.3-0.7,9.3-2.3,10.6-3.3C72.1,79.7,72.5,80.5,72.9,81.4z"/>
		<g>
			<path fill="#A44386" d="M60.4,82.3l0.1,2.5c0,0,0.4,0.4,2-0.1c0,0,0.5-1.3,0.1-2.6C62.6,82.2,61.1,81.6,60.4,82.3"/>
			<path fill="#A44386" d="M60.8,82.4c0,0-1.4-1.8-4-2c-0.7-0.1-1.4-0.3-1.4,1.1c0,1.4,0.4,3.4,0.8,4.4c0.4,1,0.6,1.2,1.6,0.6
				c0.9-0.6,3.6-2.1,3.6-2.1L60.8,82.4z"/>
			<path fill="#A44386" d="M62.5,82.4c0,0,0.6-0.9,1.7-1.7c1-0.8,1.7-1.3,2.2-0.5c0.5,0.8-0.2,3.6-0.5,4.5c-0.2,0.9-0.4,1.7-0.8,1.6
				c-0.4-0.1-3.2-1.9-3.2-1.9L62.5,82.4z"/>
			<path fill="#8B2A5D" d="M61.8,85.1c-1.1,0.3-1.5-0.1-1.5-0.1c0,0,0,0,0-0.1l-0.1-2.5c0,0,0-0.1,0.1-0.1c0.8-0.7,2.3-0.2,2.3-0.2
				c0,0,0,0,0,0.1c0.3,1.3-0.1,2.6-0.1,2.7c0,0.1-0.1,0.1-0.1,0.1C62.2,85,62,85,61.8,85.1 M62.4,84.7c0.1-0.3,0.4-1.4,0.1-2.4
				c-0.4-0.1-1.4-0.4-2,0.1l0.1,2.4C60.7,84.8,61.1,85.1,62.4,84.7"/>
		</g>
		<g>
			<path fill="#80C342" d="M66,12.8c30.5,6.5,22.6,28,22.6,28s2.8,25.5-29.8,21.9c-32.7-3.5-25.9-27.4-25.9-27.4S35.5,6.3,66,12.8"
				/>
		</g>
		<path fill="#A44386" d="M76.7,14.8c-0.3-0.4-0.4-0.9-0.4-1.4c0-1.4,1.1-2.6,2.6-2.6c1.1,0,2.1,0.8,2.4,1.8
			c0.4-0.2,0.7-0.3,1.2-0.3c1.5,0,2.7,1.2,2.7,2.7c0,1.2-0.8,2.2-1.9,2.6c0.1,0.3,0.2,0.5,0.2,0.8c0,1.3-1,2.3-2.3,2.3
			c-0.9,0-1.6-0.5-2-1.2c-0.3,0.1-0.6,0.2-0.9,0.2c-1.5,0-2.7-1.2-2.7-2.7C75.6,16,76.1,15.3,76.7,14.8z"/>
		<circle fill="#FFDA30" cx="80.1" cy="15.7" r="1.9"/>
		<path fill="#A44386" d="M48,10.1c-0.3-0.4-0.4-0.9-0.4-1.4c0-1.4,1.1-2.6,2.6-2.6c1.1,0,2.1,0.8,2.4,1.8c0.4-0.2,0.7-0.3,1.2-0.3
			c1.5,0,2.7,1.2,2.7,2.7c0,1.2-0.8,2.2-1.9,2.6c0.1,0.3,0.2,0.5,0.2,0.8c0,1.3-1,2.3-2.3,2.3c-0.9,0-1.6-0.5-2-1.2
			c-0.3,0.1-0.6,0.2-0.9,0.2c-1.5,0-2.7-1.2-2.7-2.7C46.9,11.3,47.3,10.5,48,10.1z"/>
		<circle fill="#FFDA30" cx="51.3" cy="11" r="1.9"/>
		<g>
			<path fill="#340100" d="M82.4,18.1c-7,0-12.7,6-12.7,13.3c0,7.4,5.7,13.3,12.7,13.3c7,0,12.7-6,12.7-13.3
				C95.1,24.1,89.4,18.1,82.4,18.1 M82.4,43.3c-6.2,0-11.3-5.3-11.3-11.8c0-6.5,5-11.8,11.3-11.8c6.2,0,11.3,5.3,11.3,11.8
				C93.6,38,88.6,43.3,82.4,43.3"/>
			<path fill="#340100" d="M70.4,32.2c0,0-0.5-0.6-2.2-0.7c-1.6-0.1-2.9,0.5-2.9,0.5l-0.4,6.3l7-0.4L70.4,32.2z"/>
			<path fill="#340100" d="M53.1,13.9c-8.3,0-14.9,7-14.9,15.7c0,8.6,6.7,15.7,14.9,15.7c8.3,0,14.9-7,14.9-15.7
				C68,20.9,61.3,13.9,53.1,13.9 M53.1,43.4c-7.3,0-13.2-6.2-13.2-13.8c0-7.6,5.9-13.8,13.2-13.8s13.2,6.2,13.2,13.8
				C66.3,37.2,60.4,43.4,53.1,43.4"/>
			<path fill="#FFE98B" d="M71.1,31.5c0,6.5,5,11.8,11.3,11.8c6.2,0,11.3-5.3,11.3-11.8c0-6.5-5-11.8-11.3-11.8
				C76.1,19.7,71.1,25,71.1,31.5"/>
			<path fill="#FFE98B" d="M39.9,29.6c0,7.6,5.9,13.8,13.2,13.8s13.2-6.2,13.2-13.8c0-7.6-5.9-13.8-13.2-13.8S39.9,21.9,39.9,29.6"
				/>
		</g>
		<g>
			<path fill="#340100" d="M77.3,34.8c0,1.9,1.1,3.5,2.4,3.5c1.3,0,2.4-1.6,2.4-3.5c0-1.9-1.1-3.5-2.4-3.5
				C78.3,31.3,77.3,32.8,77.3,34.8"/>
			<path fill="#340100" d="M50.6,33.7c0,2.3,1.3,4.2,2.9,4.2c1.6,0,2.9-1.9,2.9-4.2c0-2.3-1.3-4.2-2.9-4.2
				C51.9,29.5,50.6,31.4,50.6,33.7"/>
		</g>
		<g>
			<path fill="#80C342" d="M62.5,45.2c-0.4,4.3,3.1,7.2,8.8,7.2c5.7,0,10.8-1.4,10.4-7.4c-0.3-4.3-4.6-7.8-10.4-7.8
				C65.5,37.3,63,40.1,62.5,45.2"/>
			<path fill="#00722D" d="M64.9,39.3c0,0,0.3-0.2,0.8-0.5c2.5-1.3,5.6-1.2,7.9-0.6c1.1,0.3,3.6,1.3,4.8,2.3
				c1.7,1.5,2.9,3.4,3.2,5.6c0.1,0.6,0.1,1,0.1,1s0.1-0.3,0.2-1c0.2-2.8-1.1-5.5-3.5-7.1c-2.6-1.7-6.3-2.7-9.3-2
				c-1.2,0.3-2.4,0.8-3.3,1.6C65.1,39,64.9,39.3,64.9,39.3"/>
			<path fill="#00722D" d="M71.8,46.5c0,0.7,0.7,1.3,1.5,1.3c0.9,0,1.5-0.6,1.5-1.3c0-0.7-0.7-1.3-1.5-1.3
				C72.5,45.2,71.8,45.8,71.8,46.5"/>
			<path fill="#00722D" d="M64.3,46c0,0.9,0.8,1.5,1.8,1.5c1,0,1.8-0.7,1.8-1.5s-0.8-1.5-1.8-1.5C65.1,44.5,64.3,45.2,64.3,46"/>
		</g>
		<g>
			<path fill="#340100" d="M60.5,54.5c0,0-2.6,4.4-8.2,3.2c-5.6-1.2-5-10.1-5-10.1l6.7,3.8l5.8,1.5L60.5,54.5z"/>
			<path fill="#C3105D" d="M56.5,57.6c-1.1,0.4-2.5,0.5-4.2,0.2c-2.8-0.6-4.1-3.1-4.6-5.6c1.3-0.2,3.2,0,5.3,1.4
				C55,55.1,56,56.6,56.5,57.6"/>
			<path fill="#EFEADA" d="M49.7,53.5l-0.4,2.4c-0.7-0.8-1.1-1.8-1.4-2.9C48.9,53.2,49.6,53.4,49.7,53.5"/>
		</g>
		<path fill="#00722D" d="M45.4,46.3c0,0.4,0.4,0.8,0.8,0.8c0.4,0,0.8-0.4,0.8-0.8s-0.4-0.8-0.8-0.8C45.7,45.5,45.4,45.9,45.4,46.3"
			/>
		<path fill="#EFEADA" d="M72.4,53.1c0,0,1.1,4.5,1.6,4.5c0.5,0.1,2.1-1,3.2-3.2c1.1-2.2,1-3,1-3L72.4,53.1z"/>
		<path fill="#EFEADA" d="M63,53.6c0,0-1.1,4.5-1.6,4.5c-0.5,0.1-2.1-1-3.2-3.2c-1.1-2.2-1-3-1-3L63,53.6z"/>
		<path fill="#00722D" d="M78.7,51.1c0,0-0.5,0.2-1.4,0.4c-5.7,1.7-11.9,1.8-17.8,0.7c-4.1-0.8-8.7-2.1-12-4.7
			c-0.8-0.6-1.1-0.9-1.1-0.9s0.3,0.5,1,1.1c0.7,0.7,1.7,1.5,3.1,2.4c5.1,3,11.3,4.2,17.2,3.9c3.4-0.2,6.6-0.9,9.7-2.2
			C78.3,51.4,78.7,51.1,78.7,51.1"/>
	</g>
</g>
<g id="labels">
</g>
</svg>
