<?xml version="1.0" encoding="utf-8"?>
<!-- Generator: Adobe Illustrator 19.2.0, SVG Export Plug-In . SVG Version: 6.00 Build 0)  -->
<!DOCTYPE svg PUBLIC "-//W3C//DTD SVG 1.1//EN" "http://www.w3.org/Graphics/SVG/1.1/DTD/svg11.dtd">
<svg version="1.1" xmlns="http://www.w3.org/2000/svg" xmlns:xlink="http://www.w3.org/1999/xlink" x="0px" y="0px"
	 viewBox="0 0 159 170.4" enable-background="new 0 0 159 170.4" xml:space="preserve" width="159" height="170.4" preserveAspectRatio="none">
<g id="Alex_Cast_Shadow">
	<path opacity="0.1" fill="#384E7D" d="M148.6,157.9c0,5.1-32.9,9.3-73.5,9.3s-66-7.4-66-12.5c0-5.1,24-4,66-6
		C115.7,146.7,148.6,152.8,148.6,157.9z"/>
</g>
<g id="Alex_Right_Leg">
	<path fill="#46B7E9" d="M72.2,128.8c0,0-1.1,22.4-3.1,22.8c-2,0.5-4.3-7-8.6-8.1c-4.3-1.1-8.3,3.4-7.6,5.8c0.7,2.4,4.5,0.4,4.5,0.4
		s-3,2.9-2.2,6.3c0.8,3.4,8-2.7,8-2.7s-3.2,6.2,0,7.2c3.2,0.9,4.5-4,4.5-4s1.3,1.6,5.8,2.2c4.5,0.7,8,0,8,0l-1.8-30.1L72.2,128.8z"
		/>
</g>
<g id="Alex_Left_Leg">
	<path fill="#46B7E9" d="M95,128.8c0,0,1.1,22.4,3.1,22.8c2,0.5,4.3-7,8.6-8.1c4.3-1.1,8.3,3.4,7.6,5.8c-0.7,2.4-4.5,0.4-4.5,0.4
		s3,2.9,2.2,6.3c-0.8,3.4-8-2.7-8-2.7s3.2,6.2,0,7.2s-4.5-4-4.5-4s-1.3,1.6-5.8,2.2c-4.5,0.7-8,0-8,0l-0.1-29.6L95,128.8z"/>
</g>
<g id="Alex_Tail">
	<g>
		<path fill="#0077B5" d="M34.1,119.1c-0.9,0.2,0.9,6.4,0.9,6.4l9.5,0.9C44.6,126.4,35,118.9,34.1,119.1z"/>
		<path fill="#0077B5" d="M34.3,135.6c-0.9-0.9,3-8.5,3-8.5l14,8C51.3,135.1,35.3,136.5,34.3,135.6z"/>
		<path fill="#46B7E9" d="M65.2,113.6c0,0-5.5,7.3-16.1,9.7c-25.5,5.8-35.6-17-37.1-16.8c-1.5,0.2-1.1,9.2,2.7,14.3
			c3.7,5,10.7,6.9,10.7,6.9s-1,1.5-1.8,4.9c-0.8,3.4,0.8,7.7,1.8,8.3c1,0.5,8.9-11.5,8.9-11.5s13.3,11.6,25.2,9.8
			c11.8-1.8,15.5-9.4,15.5-9.4L65.2,113.6z"/>
	</g>
</g>
<g id="Alex_Left_Arm_Upper">
	<g>
		<path fill="#0077B5" d="M124.1,84.6c0,0-1.4,8.9-2.6,10.6c-1.2,1.7-5.7-0.8-5.7-0.8L124.1,84.6z"/>
		<path fill="#46B7E9" d="M98.9,91.3c0,0,8.4,4,13.4,1.4c5-2.6,8.6-10.1,9.1-12.3c0.5-2.2,6.4-9.3,8.8-9c2.4,0.3-3.1,6.3-3.1,6.3
			s8.1-0.1,8.5,2.4c0.4,2.5-7.8-0.3-7.8-0.3s8,5.7,6.7,7.7c-1.3,2-6.6-5.4-6.6-5.4s3.2,6.5,1.8,7.6c-1.4,1.1-4.1-6.2-4.1-6.2
			s-2.8,10.2-10.8,13.1c-8,2.9-16.3-3.8-16.3-3.8L98.9,91.3z"/>
	</g>
</g>
<g id="Alex_Right_Arm_Lower">
	<g>
		<path fill="#0077B5" d="M32.4,102.3c0,0,2.6,8.6,4.1,10.1c1.5,1.5,5.6-1.6,5.6-1.6L32.4,102.3z"/>
		<path fill="#46B7E9" d="M58.3,105.3c0,0-7.8,5.1-13,3.2c-5.3-1.9-9.9-8.8-10.7-10.9c-0.8-2.1-7.6-8.3-9.9-7.7
			c-2.3,0.7,3.9,5.8,3.9,5.8s-8,1-8.1,3.5c-0.1,2.5,7.7-1.4,7.7-1.4s-7.1,6.8-5.5,8.6c1.6,1.8,5.8-6.2,5.8-6.2s-2.3,6.9-0.7,7.8
			c1.6,0.9,3.2-6.7,3.2-6.7s4.2,9.7,12.5,11.5c8.3,1.8,15.6-6,15.6-6L58.3,105.3z"/>
	</g>
</g>
<g id="Alex_Right_Arm_Upper">
	<g>
		<path fill="#0077B5" d="M33.4,84.3c0,0,1.4,8.9,2.6,10.6c1.2,1.7,5.7-0.8,5.7-0.8L33.4,84.3z"/>
		<path fill="#46B7E9" d="M58.7,90.9c0,0-8.4,4-13.4,1.4c-5-2.6-8.6-10.1-9.1-12.3c-0.5-2.2-6.4-9.3-8.8-9c-2.4,0.3,3.1,6.3,3.1,6.3
			s-8.1-0.1-8.5,2.4c-0.4,2.5,7.8-0.3,7.8-0.3s-8,5.7-6.7,7.7c1.3,2,6.6-5.4,6.6-5.4s-3.2,6.5-1.8,7.6c1.4,1.1,4.1-6.2,4.1-6.2
			s2.8,10.2,10.8,13.1c8,2.9,16.3-3.8,16.3-3.8L58.7,90.9z"/>
	</g>
</g>
<g id="Alex_Dorsal">
	<path fill="#0077B5" d="M71.9,62.7c0,0-12.3,9.6-13.1,12.3s8.8,11,8.8,11L71.9,62.7z"/>
</g>
<g id="Alex_Head">
	<path fill="#46B7E9" d="M94.7,92.7c0-0.1,0-0.1,0-0.2c-3.6-19.9-2.8-30.4-2.8-30.4H71.5c0,0-5.3,13.4-7.3,27.2
		c-0.1,0.6-0.2,1.3-0.3,2.1C71,94.5,82.2,97.4,94.7,92.7z"/>
	<path fill="#46B7E9" d="M58,24.2c2.2,0.6,7.5,12.6,25.9,15.9c18.4,3.2,24.8-5.8,26.5-6.5c1.7-0.6,9.6,4.8,13.4,18.1
		c3.8,13.2-3.4,19.8-6,19.8c-2.6,0-3.9-5.5-32-7.1c-28.1-1.6-41.9,9.9-43.7,9.8c-1.9-0.1-10.2-9.8-3.7-27.1
		C44.9,29.7,55.8,23.6,58,24.2z"/>
</g>
<g id="Alex_Mouth">
	<path fill="#0077B5" d="M76.4,69.9c0,0,0.1,0.2,0.2,0.6c0.1,0.2,0.6,2.6,4.8,3.5c1.6,0.4,3.1,0.4,4.3,0.4c1.9,0,3.1,0,3.1,0
		s-0.8,0.5-2.3,0.8c-2.9,0.7-7.9,0.7-9.8-2.9c-0.3-0.7-0.4-1.3-0.4-1.8C76.4,70.1,76.4,69.9,76.4,69.9z"/>
	<circle fill="#0077B5" cx="76" cy="69.4" r="1"/>
	<path fill="#0077B5" d="M80.2,81.7c2.8,0.1,4.5-0.8,6.7-1.5c0,0-0.3,0.4-0.8,0.9c-1.2,1-2.9,1.8-4.9,1.2
		C80.6,82.1,80.2,81.7,80.2,81.7z"/>
</g>
<g id="Alex_Right_Eye">
	
		<ellipse transform="matrix(0.9964 -8.519476e-002 8.519476e-002 0.9964 -2.2822 2.4368)" fill="#46B7E9" cx="27.4" cy="28" rx="24" ry="24"/>
	<g>
		
			<ellipse transform="matrix(0.9964 -8.520138e-002 8.520138e-002 0.9964 -2.3253 2.36)" fill="#FFFFFF" cx="26.5" cy="28.4" rx="19.6" ry="20.9"/>
		
			<ellipse transform="matrix(0.9964 -8.521876e-002 8.521876e-002 0.9964 -2.517 2.6131)" fill="#160D47" cx="29.3" cy="30.8" rx="9.8" ry="12.5"/>
		
			<ellipse transform="matrix(0.2807 -0.9598 0.9598 0.2807 -6.1828 39.5001)" fill="#FFFFFF" cx="23.3" cy="23.9" rx="4.6" ry="3.3"/>
	</g>
</g>
<g id="Alex_Left_Eye">
	
		<ellipse transform="matrix(0.9964 -8.520193e-002 8.520193e-002 0.9964 -2.2744 11.6447)" fill="#46B7E9" cx="135.3" cy="32.5" rx="21" ry="21"/>
	<g>
		
			<ellipse transform="matrix(0.9964 -8.519034e-002 8.519034e-002 0.9964 -2.3117 11.5756)" fill="#FFFFFF" cx="134.5" cy="32.9" rx="17.1" ry="18.3"/>
		
			<ellipse transform="matrix(0.9964 -8.520315e-002 8.520315e-002 0.9964 -2.5148 11.5742)" fill="#160D47" cx="134.3" cy="35.2" rx="8.6" ry="10.9"/>
		
			<ellipse transform="matrix(0.3793 -0.9253 0.9253 0.3793 53.6786 136.9132)" fill="#FFFFFF" cx="128.9" cy="28.4" rx="4" ry="2.9"/>
	</g>
</g>
<g id="Alex_Left_Arm_Lower">
	<g>
		<path fill="#0077B5" d="M107.6,122.2c0,0,9.5-3,10.8-4.7c1.3-1.7-2.5-5.2-2.5-5.2L107.6,122.2z"/>
		<path fill="#46B7E9" d="M102.2,102.8c0,0,14.6,3.6,15.7,9.2c0.7,3.5-10.5,11-10.5,11s9.2,1.9,9,3.6s-6.7,0.2-6.7,0.2
			s5.8,4.9,4.7,5.6c-1.1,0.7-6.2-4.1-6.2-4.1s4.3,6.4,3.2,6.9c-1.1,0.6-11.2-7.3-9.9-12.5c1.3-5.2,10.5-5.8,10.7-11.2
			c0.1-3.6-10.3-5.6-10.3-5.6L102.2,102.8z"/>
	</g>
</g>
<g id="Alex_3rd_Grade_Shirt">
	<path fill="#FFFDE7" d="M106,102l-9.6-1.8c-0.2-0.9-0.5-1.9-0.7-2.8l5.5,2.1l0.9-11.5l-8.1,0.4c-0.1-0.5-0.2-1.1-0.3-1.6l-13.3,3.8
		l-15.7-3.8c-0.1,0.4-0.1,0.9-0.2,1.3l-9.9,1.8l3.4,11l5.5-3.7c-0.1,1.4-0.2,3-0.2,4.5l-9.2,3.1l4.9,10.4l4.1-3.6c0,2.6,0,5.3,0,7.8
		l39.3,0.2c-1-2.7-2-5.6-2.9-8.6l3.1,2.1L106,102z"/>
	<polygon fill="#00659F" points="80,90.7 76.6,94.3 79.5,95.6 76.5,108 82,111.9 87.3,107.8 80.7,95.4 83.2,94 	"/>
	<path fill="#C8DCD8" d="M75.7,97l5-6l4.6,6.6l8.7-9.2c-0.1-0.6-0.2-1.1-0.3-1.7l-13.3,3.8l-15.7-3.8c-0.1,0.4-0.1,0.7-0.2,1.1
		L75.7,97z"/>
</g>
<g id="Alex_Shorts">
	<g>
		<path fill="#726658" d="M63.4,135.9h45.4c0,0-4.1-9.1-8-20.7H63.1C63.1,126.2,63.4,135.9,63.4,135.9z"/>
		<polygon fill="#3C2415" points="65,117 99.8,117.2 100.7,120.6 65.1,121.7 		"/>
		<path fill="#726658" d="M72.7,115.5l-0.8,8.4c0,0,1.9-0.1,2-0.5c0.1-0.4,0.4-7.7,0.4-7.7L72.7,115.5z"/>
		<polygon fill="#726658" points="92,115.9 93.1,123.2 95.3,122.9 93.4,115.8 		"/>
		<polygon fill="#C8DCD8" points="80,116 87.8,116.3 87.5,122.2 80.7,122.5 		"/>
		<polygon fill="#3C2415" points="81.1,117 86.6,117.2 86.4,121.3 81.7,121.5 		"/>
		<path fill="#3C2415" d="M92.1,125.7c-1.2,0.9-2.4,1.8-3.8,2.5c-0.7,0.4-1.4,0.6-2.1,0.8c-0.7,0.2-1.4,0.5-2.2,0.7l0.2-0.3l0.7,6.5
			h-1l-0.3-6.4l0-0.3l0.2-0.1c0.7-0.2,1.4-0.3,2.2-0.5c0.7-0.2,1.4-0.4,2.1-0.7C89.6,127.3,90.9,126.6,92.1,125.7z"/>
	</g>
	<g>
		<path fill="#3C2415" d="M71.6,122.8c0,0,0,0.2,0,0.5c0,0.3-0.1,0.7-0.3,1.2c-0.2,0.5-0.5,1-0.9,1.5c-0.4,0.5-0.9,1-1.4,1.5
			c-0.5,0.4-1.1,0.8-1.7,1.1c-0.6,0.3-1.1,0.5-1.6,0.7c-0.5,0.2-0.9,0.3-1.2,0.3c-0.3,0.1-0.5,0.1-0.5,0.1s0.1-0.1,0.4-0.2
			c0.3-0.1,0.6-0.3,1.1-0.6c0.4-0.3,0.9-0.5,1.4-0.9c0.3-0.2,0.5-0.4,0.8-0.5c0.3-0.2,0.5-0.4,0.8-0.6c1-0.8,1.8-1.8,2.4-2.6
			c0.3-0.4,0.5-0.8,0.6-1.1C71.5,123,71.6,122.8,71.6,122.8z"/>
	</g>
	<g>
		<path fill="#3C2415" d="M98.1,121.3c0,0,0.1,0.2,0.2,0.4c0.1,0.3,0.3,0.6,0.6,1.1c0.5,0.8,1.4,1.8,2.4,2.6
			c0.3,0.2,0.5,0.4,0.8,0.6c0.3,0.2,0.5,0.4,0.8,0.5c0.5,0.3,1,0.6,1.4,0.9c0.4,0.3,0.8,0.5,1.1,0.6c0.3,0.1,0.4,0.2,0.4,0.2
			s-0.2,0-0.5-0.1c-0.3-0.1-0.7-0.2-1.2-0.3c-0.5-0.2-1-0.4-1.6-0.7c-0.6-0.3-1.1-0.7-1.7-1.1c-0.5-0.4-1-1-1.4-1.5
			c-0.4-0.5-0.7-1.1-0.9-1.5c-0.2-0.5-0.3-0.9-0.3-1.2C98.1,121.5,98.1,121.3,98.1,121.3z"/>
	</g>
</g>
<g id="Alex_5th_Grade_Pants">
</g>
<g id="Alex_4th_Grade_Shirt">
</g>
<g id="Layer_20">
</g>
<g id="Alex_5th_Grade_Shirt">
</g>
<g id="labels">
</g>
</svg>
