<svg version="1.1" xmlns="http://www.w3.org/2000/svg" xmlns:xlink="http://www.w3.org/1999/xlink" x="0px" y="0px" viewBox="0 0 190 174" style="enable-background:new 0 0 190 174;" xml:space="preserve" width="190" height="174" preserveAspectRatio="none"><style type="text/css">
	.st0{fill:#1A1A1A;}
	.st1{fill:none;stroke:#B3B3B3;stroke-width:2.6767;stroke-miterlimit:10;}
	.st2{fill:#CCCCCC;}
	.st3{fill:#FFFFFF;stroke:#B3B3B3;stroke-width:0.8336;stroke-miterlimit:10;}
	.st4{fill:#47956C;}
	.st5{fill:#904592;}
	.st6{fill:#ED1C24;}
	.st7{fill:#F7931E;}
	.st8{fill:#D0A637;}
	.st9{fill:#FFFFFF;}
	.st10{fill:#4A53FF;stroke:#000000;stroke-width:1.6;stroke-miterlimit:10;}
	.st11{fill:#FF575C;stroke:#000000;stroke-width:1.6;stroke-miterlimit:10;}
	.st12{fill:#FF9921;stroke:#000000;stroke-width:1.6;stroke-miterlimit:10;}
	.st13{fill:#AEE862;stroke:#000000;stroke-width:1.6;stroke-miterlimit:10;}
	.st14{fill:#37ACDE;stroke:#000000;stroke-width:1.6;stroke-miterlimit:10;}
	.st15{fill:#E349AD;stroke:#000000;stroke-width:1.8058;stroke-miterlimit:10;}
	.st16{fill:none;stroke:#C5DFEA;stroke-width:3;stroke-miterlimit:10;}
	.st17{fill:#808080;}
	.st18{fill:#4D4D4D;}
	.st19{fill:#B3B3B3;}
	.st20{fill:#FFC2EF;}
	.st21{fill:#FFFFD4;}
	.st22{stroke:#000000;stroke-width:0.9864;stroke-miterlimit:10;}
	.st23{fill:#333333;}
	.st24{fill:none;}
	.st25{fill:#C5DFEA;}
	.st26{fill:#42152F;}
	.st27{fill:#611E45;}
	.st28{fill:#9C3589;}
	.st29{fill:#7D1D6C;}
	.st30{fill:none;stroke:#FFFFFF;stroke-width:6;stroke-miterlimit:10;}
	.st31{fill:#666666;}
	.st32{fill:#2959A1;}
	.st33{fill:#996729;}
	.st34{fill:#89C661;}
	.st35{fill:#C1272D;}
	.st36{fill:#8E1B24;}
	.st37{fill:#E53E4B;}
	.st38{fill:#0057A7;}
	.st39{fill:#C4F74F;}
	.st40{fill:#37ACDE;stroke:#000000;stroke-width:0.6424;stroke-miterlimit:10;}
	.st41{fill:none;stroke:#999999;stroke-width:0.5;stroke-miterlimit:10;}
	.st42{fill:#E349AD;stroke:#000000;stroke-width:0.7676;stroke-miterlimit:10;}
	.st43{fill:none;stroke:#999999;stroke-width:0.5088;stroke-miterlimit:10;}
	.st44{fill:none;stroke:#2959A1;stroke-width:4;stroke-miterlimit:10;}
	.st45{fill:none;stroke:#2959A1;stroke-width:5;stroke-miterlimit:10;}
	.st46{fill:none;stroke:#FFFFFF;stroke-width:3;stroke-miterlimit:10;}
	.st47{fill:#2A56A1;}
	.st48{fill:#37ACDE;stroke:#000000;stroke-width:0.4427;stroke-miterlimit:10;}
	.st49{fill:none;stroke:#999999;stroke-width:0.3446;stroke-miterlimit:10;}
	.st50{fill:#E349AD;stroke:#000000;stroke-width:0.529;stroke-miterlimit:10;}
	.st51{fill:#AEE862;stroke:#000000;stroke-width:0.5475;stroke-miterlimit:10;}
	.st52{fill:#FF9921;stroke:#000000;stroke-width:0.4865;stroke-miterlimit:10;}
	.st53{fill:none;stroke:#2959A1;stroke-width:4.5998;stroke-miterlimit:10;}
	.st54{fill:#E349AD;stroke:#000000;stroke-width:1.6;stroke-miterlimit:10;}
	.st55{fill:#FFFFFF;stroke:#000000;stroke-miterlimit:10;}
	.st56{fill:none;stroke:#FFFFFF;stroke-miterlimit:10;}
</style><g id="Layer_3" /><g id="BG" /><g id="Open_Mouth" /><g id="Chew_1" /><g id="Chew_2" /><g id="Chew_3" /><g id="Chew_4" /><g id="Chew_5" /><g id="Chew_6" /><g id="Yucky_1" /><g id="Yucky_2"><g><ellipse transform="matrix(0.9992 -4.031137e-02 4.031137e-02 0.9992 -4.3588 6.8471)" class="st21" cx="167.6" cy="111.5" rx="20.6" ry="19" /><ellipse transform="matrix(0.9992 -4.031157e-02 4.031157e-02 0.9992 -4.5877 7.1192)" cx="174.2" cy="117.3" rx="11.1" ry="11.5" /><g><path class="st20" d="M42.6,108c0,0-29.7-3.5-37.9-32.7S6.8,33.9,19.1,24c0,0-5.2,11,1.2,18.2s27.6,10.6,33,27.7
				s4.2,33.1,4.2,33.1L42.6,108z" /></g><path class="st20" d="M140.2,39.3c0,0,10.2-3.2,9.8-13.5c0,0,25.1,40.3-8,58l-26-5c0,0-4.5-19,5.5-27.4S140.2,39.3,140.2,39.3z" /><g><path class="st18" d="M182.2,125.8c1.1,27-31.9,45.8-73.4,47.5s-80.6-19.1-77.1-45.9c3.7-28.7,31.7-50.3,73.2-52
				C146.4,73.8,181.1,98.8,182.2,125.8z" /></g><g><path class="st18" d="M185.8,135.5l-14.4,4.3l-2.1-41.2C169.3,98.6,184,113.5,185.8,135.5z" /></g><g><path class="st18" d="M112.7,78.4l9.5,2.4c0,0-8.1-17,4.9-28.8c10.9-9.8,24.6-11.9,23.5-23.1c0,0-6.2,6.7-16.5,11.6
				C124.3,45.2,102.5,56.8,112.7,78.4z" /></g><g><path class="st18" d="M21.6,17.8c0,0-11.5,17.8,10,27.7S66.8,68.1,63,90.7l-12.8,7.6c0,0,7-26.7-8.6-38.3
				C34.5,54.7,4.3,42.9,21.6,17.8z" /></g><ellipse transform="matrix(0.9992 -4.031131e-02 4.031131e-02 0.9992 -4.7313 3.8867)" class="st21" cx="94" cy="119.3" rx="22.7" ry="21.8" /><ellipse transform="matrix(0.9992 -4.031157e-02 4.031157e-02 0.9992 -5.0962 3.792)" cx="91.5" cy="128.3" rx="12.9" ry="13.4" /><g><path class="st23" d="M185.8,135.5c-11.8,4.6-24.1,7.8-36.6,10.1c-12.5,2.3-25.1,3.7-37.8,4.1c-1.6,0.1-3.2,0-4.8,0.1l-4.8,0
				c-3.2,0-6.3-0.2-9.5-0.3l-4.8-0.3c-1.6-0.1-3.2-0.3-4.7-0.5l-4.7-0.5c-1.6-0.2-3.2-0.3-4.7-0.6l-9.4-1.6
				c-0.8-0.1-1.6-0.4-2.5-0.6c-0.8-0.4-1.6-0.7-2.3-1.3c-1.4-1.1-2.4-2.6-2.9-4.2c-1.1-3.2-1.2-6.4-1.1-9.6c0-3.2,0.3-6.3,0.4-9.5
				c0.2,3.2,0.2,6.3,0.4,9.5c0.2,3.1,0.5,6.3,1.7,9c0.6,1.4,1.5,2.5,2.6,3.3c0.5,0.4,1.2,0.7,1.8,0.9c0.7,0.1,1.3,0.4,2.2,0.4
				l9.3,1.2c1.6,0.2,3.1,0.3,4.7,0.5l4.7,0.4c1.6,0.1,3.1,0.3,4.7,0.4l4.7,0.2c6.3,0.3,12.5,0.2,18.8,0.1l9.4-0.4l9.4-0.7l9.4-1
				l9.3-1.2c6.2-1,12.4-2,18.6-3.3C173.6,138.7,179.7,137.2,185.8,135.5z" /></g><g><path class="st23" d="M62.6,118.7c-1.6,0.4-3.1,0.8-4.5,1.2c-1.4,0.5-2.8,1.1-4.1,1.8c-0.7,0.3-1.2,0.8-1.8,1.2
				c-0.5,0.5-1.2,0.9-1.7,1.5c-1.1,1-2,2.3-3,3.6c0.2-1.6,0.7-3.2,1.7-4.6c0.4-0.7,1.1-1.3,1.6-2c0.7-0.5,1.3-1.1,2.1-1.5
				c1.5-0.9,3.1-1.4,4.8-1.6C59.3,118.1,61,118.1,62.6,118.7z" /></g><ellipse transform="matrix(0.678 -0.735 0.735 0.678 -41.3988 158.1461)" class="st23" cx="159.8" cy="126.3" rx="6.1" ry="3.6" /><ellipse transform="matrix(0.6493 -0.7605 0.7605 0.6493 -33.0851 176.5096)" class="st23" cx="174.9" cy="124.1" rx="3.4" ry="5.2" /><g><path class="st18" d="M30.3,7.3c-2.1,2.2-3.8,4.6-5.3,7.1c-1.5,2.5-2.7,5.2-3.6,8c-0.9,2.7-1.2,5.6-1.2,8.4l0.1,2.1l0.4,2
				c0.1,0.3,0.1,0.7,0.2,1l0.3,1l0.6,2l-4,1.3l-0.5-2.4l-0.2-1.2c0-0.4-0.1-0.8-0.1-1.2L17,33l0.1-2.4c0.3-3.1,1.1-6.2,2.3-9
				c1.2-2.8,2.8-5.4,4.7-7.8C25.9,11.4,28,9.2,30.3,7.3z" /></g><g><path class="st18" d="M143.4,35.8c2.9-2.7,5.4-6,6.3-9.8c0.9-3.8,0.2-7.9-1.9-11.5c-2.1-3.6-5.2-6.6-8.7-8.9
				c-3.5-2.3-7.5-4-11.7-5c4.3,0.6,8.4,2,12.3,4.1c3.8,2.1,7.3,4.9,9.9,8.7c1.3,1.9,2.3,3.9,2.9,6.2c0.6,2.2,0.7,4.6,0.4,7
				c-0.3,2.3-1.2,4.6-2.3,6.6c-1.1,2-2.5,3.9-4.1,5.6L143.4,35.8z" /></g><g><path class="st18" d="M145.3,33.7c0.3-0.3,0.8-0.9,1.1-1.4c0.4-0.5,0.7-1,1-1.6c0.5-1.1,0.9-2.3,1.1-3.5c0.3-2.4-0.5-4.9-2.1-7.1
				c-1.6-2.1-3.8-3.9-6.2-5.4c-2.4-1.5-5-2.7-7.6-3.8c2.7,0.8,5.5,1.7,8.1,2.9c2.6,1.2,5.2,2.7,7.3,4.9c1,1.1,2,2.4,2.6,3.8
				c0.7,1.5,1,3.1,1,4.7c0,1.6-0.3,3.3-0.8,4.8c-0.3,0.8-0.6,1.5-1,2.2c-0.4,0.7-0.8,1.4-1.4,2.1L145.3,33.7z" /></g><g><path class="st18" d="M20.8,44.5c-0.4-0.9-0.7-1.6-0.9-2.4c-0.3-0.8-0.5-1.6-0.7-2.4c-0.4-1.6-0.7-3.2-0.8-4.9
				c-0.1-1.7,0-3.4,0.5-5.1c0.4-1.7,1.2-3.3,2.4-4.6c1.1-1.3,2.5-2.3,4-3c1.5-0.7,3-1.1,4.6-1.4c3.1-0.5,6.2-0.5,9.2-0.2
				c-3,0.2-6.1,0.6-8.9,1.5c-1.4,0.5-2.7,1-3.9,1.8c-1.2,0.8-2.2,1.7-2.9,2.8c-1.4,2.2-1.6,5-1,7.6c0.3,1.3,0.7,2.7,1.2,3.9
				c0.3,0.6,0.6,1.3,0.9,1.9c0.3,0.6,0.7,1.3,1,1.7L20.8,44.5z" /></g><g><path class="st23" d="M107.3,93.1c3.4,2.6,6.1,6,8.3,9.7c2.2,3.7,3.9,7.8,4.8,12.1c0.4,2.2,0.6,4.4,0.6,6.6
				c0,2.2-0.3,4.4-0.9,6.6c-1.1,4.3-3.3,8.2-6.3,11.2c0.7-2,1.5-3.9,2-5.9c0.3-1,0.5-2,0.7-2.9c0.1-1,0.4-2,0.4-3c0.1-1,0.2-2,0.2-3
				c0-1,0-2-0.1-3c-0.1-2-0.3-3.9-0.7-5.9c-0.8-3.9-2-7.7-3.6-11.4C111.2,100.5,109.4,96.8,107.3,93.1z" /></g></g></g><g id="Yucky_3" /><g id="Yummy_0" /><g id="Yummy_1" /><g id="Yummy_2" /><g id="Yummy_3" /></svg>