<svg version="1.1" xmlns="http://www.w3.org/2000/svg" xmlns:xlink="http://www.w3.org/1999/xlink" x="0px" y="0px" viewBox="0 0 432 408" style="enable-background:new 0 0 432 408;" xml:space="preserve" width="432" height="408" preserveAspectRatio="none"><style type="text/css">.st14{fill:none;stroke:#C5DFEA;stroke-width:3;stroke-linejoin:round;stroke-miterlimit:10;}
.st15{fill:#808080;}
.st16{fill:#4D4D4D;}
.st17{fill:#B3B3B3;}
.st18{fill:#FFC2EF;}
.st19{fill:#FFFFD4;}
.st21{fill:#333333;}
.st23{fill:#C5DFEA;}</style><g id="Neutral_3"><ellipse transform="matrix(0.99919 -0.04031 0.04031 0.99919 -6.19936 15.74345)" class="st19" cx="387.28769" cy="161.59604" rx="20.6355" ry="18.96394" /><ellipse transform="matrix(0.99919 -0.04031 0.04031 0.99919 -6.1027 16.11695)" cx="396.59567" cy="159.38521" rx="11.05175" ry="11.45364" /><path class="st14" d="M259.70596,209.95375c0,0-12.65733,2.32222-18.40794-12.65521
		C235.54739,182.32112,254.50653,175.33058,259.70596,209.95375z" /><g><path class="st15" d="M398.08673,373.90503c0.15186-0.27429,0.2749-0.55591,0.34058-0.85132
			c1.79053-8.05811-4.4978-18.13574-18.13599-18.86121c-8.91187-0.474-25.84351,10.19177-32.97241,14.98682
			c-3.63501,1.19519-5.86255,2.13-5.86255,2.13l0.45605,0.16943c-10.33521,1.6377-19.94727,4.55151-22.12183,7.37842
			c0,0,23.27197-4.73193,34.82056,6.38379c11.60693,11.17163,23.79419,21.1825,29.30762,13.63794
			c2.0979-2.87085,2.39038-5.95569,1.54102-9.01099c4.14844,1.62354,8.3916,2.37329,10.93628,0.30591
			C400.41486,386.90894,401.47272,379.84021,398.08673,373.90503z" /></g><g><path class="st16" d="M362.90411,365.26819c2.8606-1.89062,6.11597-3.18335,9.50024-3.96008
			c1.69336-0.40088,3.43579-0.60779,5.19165-0.68494c1.75757-0.04822,3.5293,0.10205,5.27197,0.43848
			c1.73145,0.37842,3.44678,0.91724,5.03076,1.73792c1.56812,0.8396,3.05981,1.82825,4.34302,3.04382
			c2.57251,2.42114,4.44653,5.44971,5.60522,8.66113c-1.90381-2.83911-4.05078-5.44165-6.61963-7.4751
			c-2.59155-1.99207-5.56836-3.40698-8.7583-4.00916c-3.17383-0.67712-6.50122-0.62256-9.78662-0.1825
			C369.3924,363.30017,366.12067,364.12573,362.90411,365.26819z" /></g><g><path class="st16" d="M385.3316,390.31702c0.03198-3.57776-0.56665-7.13379-2.0752-10.18762
			c-1.49243-3.05664-4.05176-5.43481-7.19458-6.65576c-1.55347-0.64075-3.20703-1.08887-4.91333-1.32825
			c-0.84717-0.14502-1.7146-0.21033-2.57739-0.29236c-0.87061-0.00867-1.73975-0.10486-2.61743-0.08289
			c-3.50952-0.00317-7.04712,0.37573-10.62256,0.77966c3.38477-1.21362,6.92578-2.0437,10.56396-2.33923
			c3.62305-0.31506,7.41309,0.00256,10.9375,1.41882c1.74268,0.73022,3.39697,1.76624,4.75464,3.12195
			c1.34546,1.36304,2.41162,2.99121,3.08887,4.74438C386.05963,382.9967,386.1839,386.82654,385.3316,390.31702z" /></g><g><path class="st15" d="M242.15411,377.13208l0.45605-0.16968c0,0-2.22754-0.93469-5.86255-2.12988
			c-7.12891-4.79504-24.06055-15.46094-32.97266-14.98682c-13.63794,0.72534-19.92651,10.80298-18.13574,18.86108
			c0.06567,0.29565,0.18872,0.57715,0.34058,0.85156c-3.38599,5.93506-2.32812,13.00391,1.69067,16.26868
			c2.54468,2.06738,6.78784,1.31763,10.93628-0.30579c-0.84937,3.05518-0.55688,6.14001,1.54102,9.01099
			c5.51343,7.54443,17.70068-2.46655,29.30762-13.63818c11.54858-11.11548,34.82056-6.38379,34.82056-6.38379
			C262.10138,381.68347,252.48907,378.76965,242.15411,377.13208z" /></g><g><path class="st16" d="M221.16241,370.92139c-3.21655-1.14246-6.48828-1.96802-9.77832-2.43042
			c-3.28564-0.44006-6.61279-0.49463-9.78662,0.1825c-3.19019,0.60217-6.16675,2.01709-8.7583,4.00916
			c-2.56885,2.03345-4.71606,4.63599-6.61963,7.4751c1.15869-3.21143,3.03271-6.23999,5.60522-8.66113
			c1.28296-1.21558,2.7749-2.20435,4.34302-3.04382c1.58398-0.82068,3.29907-1.3595,5.03076-1.73792
			c1.74268-0.33643,3.51416-0.48669,5.27197-0.43848c1.75586,0.07715,3.49829,0.28406,5.19165,0.68494
			C215.04645,367.73804,218.30182,369.03076,221.16241,370.92139z" /></g><g><path class="st16" d="M198.73492,395.97021c-0.85254-3.49048-0.72803-7.32031,0.65552-10.82129
			c0.67725-1.75317,1.74341-3.38135,3.08862-4.74438c1.35791-1.35571,3.01221-2.39172,4.75488-3.12195
			c3.52441-1.41626,7.31421-1.73389,10.9375-1.41882c3.63818,0.29553,7.1792,1.12561,10.56396,2.33923
			c-3.57568-0.40393-7.11304-0.78284-10.62256-0.77966c-0.87769-0.02197-1.74683,0.07422-2.61743,0.08289
			c-0.86304,0.08203-1.73022,0.14734-2.57764,0.29236c-1.70605,0.23938-3.35962,0.6875-4.91309,1.32825
			c-3.14282,1.22095-5.70239,3.59912-7.19458,6.65576C199.30157,388.83643,198.70294,392.39246,198.73492,395.97021z" /></g><path class="st16" d="M329.47687,236.48317c-2.46484-6.80298-3.73975-14.94873-2.89648-24.50684l-72.9707-41.63354
		c0,0-2.68604,19.25,4.02905,34.02319s6.28418,43.21411-23.72656,45.21484c-6.67993,0.44531-20.88306-1.76965-26.31982-6.64038
		c1.81079-7.49512,10.7854-49.81519-12.93481-66.39087c-18.07861-12.6333-41.51318-4.58154-44.62207,20.84668
		c0,0-27.41699,9.80054-23.23486,28.45166c4.35059,19.40332-4.90527,42.97704-28.66187,43.30614
		c0,0,20.8833,7.44922,29.72827-5.25903c0,0-2.1499,25.10596-39.84058,30.44482c0,0,69.24731,10.20337,77.24243-42.40623
		c5.20312-34.2373-12.70044-81.66602,19.86328-69.27319c11.89648,4.52759,23.97168,20.71399,9.97998,68.87354
		c-1.74658,5.72508-3.99951,12.13646-6.41504,18.63988c-5.81982,15.66846-17.90674,87.29614,52.82544,109.23218
		c42.61084,13.21484,85.70923,8.55811,110.79663-9.27197L329.47687,236.48317z" /><g><path class="st15" d="M324.88483,221.90154c0,0,24.47705,26.1788,54.96857,31.26073
			c24.17435,4.02905,25.51736,29.99408,8.05814,25.06967c-9.21082-2.5979-14.32553-19.24994-14.32553-19.24994
			s-25.96506-4.02905-51.48239-28.65105L324.88483,221.90154z" /></g><g><path class="st15" d="M261.34119,218.64571c0,0-10.6413,31.48055-44.1279,43.31361
			c-6.60683,2.33463-18.35458,11.63947-15.22089,25.06967c3.13371,13.43018,13.43019,5.37207,16.11623-2.68604
			s3.32765-16.03781,3.32765-16.03781s28.9048-6.79352,41.8873-40.36897L261.34119,218.64571z" /></g><path class="st17" d="M329.47696,236.48305c0,0-5.13498-17.7916-3.3443-33.01248l-46.55798,1.34302
		c0,0-4.47672,53.27309-41.18591,62.67421l11.63951,3.58145c0.13852-0.1189-19.73889,5.91821-31.78479,26.4126l11.6395-4.02902
		c0,0-59.99033,60.78595,11.6395,85.95319c66.2556,23.27899,110.21452-7.75333,110.21452-7.75333
		c16.55673-11.76712,25.82764-32.52475,21.37802-54.41675l7.18607,4.42026c0,0,3.58136-31.3371-21.48831-45.66263l11.63,1.1586
		c0,0-7.56033-9.64407-17.44974-14.58878C344.93491,258.53433,334.86276,251.34682,329.47696,236.48305" /><g><path class="st16" d="M366.65451,161.72191c-0.00528-10.15445,8.73828-18.62535,19.86871-19.0744
			c11.38739-0.45941,21.67145,7.90781,21.38318,18.11668L366.65451,161.72191z" /></g><g><path class="st18" d="M262.29132,158.05881c0,0-29.68761-3.49223-37.90121-32.70759s2.0835-41.35567,14.34799-51.23038
			c0,0-5.18431,10.99606,1.20497,18.24222c6.38928,7.24615,27.62981,10.61018,33.01109,27.74592s4.15063,33.13123,4.15063,33.13123
			L262.29132,158.05881z" /></g><path class="st18" d="M359.88641,89.40001c0,0,10.18781-3.22499,9.77222-13.52613c0,0,25.07404,40.26003-7.9776,58.00831
		l-25.99844-5.04805c0,0-4.52036-19.04645,5.45963-27.42201C351.12222,93.03657,359.88641,89.40001,359.88641,89.40001z" /><g><path class="st16" d="M401.83298,175.87889c1.09024,27.02351-31.85187,45.83961-73.35687,47.5141
			c-41.50504,1.6745-80.56845-19.073-77.12555-45.89847c3.67912-28.66594,31.67242-50.28784,73.17743-51.96233
			C366.03299,123.8577,400.74274,148.85538,401.83298,175.87889z" /></g><g><path class="st16" d="M405.50732,185.57956l-14.36411,4.33147l-2.13062-41.18565
			C389.0126,148.72537,403.68301,163.61037,405.50732,185.57956z" /></g><g><path class="st16" d="M332.38608,128.49814l9.478,2.43159c0,0-8.12741-16.99871,4.93472-28.80782
			c10.8598-9.81805,24.58008-11.94693,23.51709-23.09544c0,0-6.1691,6.68777-16.47873,11.55559
			C343.94452,95.25298,322.13354,106.86897,332.38608,128.49814z" /></g><g><path class="st16" d="M241.30193,67.92046c0,0-11.47511,17.81579,10.02988,27.73509s35.14445,22.5009,31.36888,45.16501
			L269.8735,148.373c0,0,7.03937-26.66076-8.61551-38.29137C254.15216,104.80242,224.02313,93.00533,241.30193,67.92046z" /></g><ellipse transform="matrix(0.99919 -0.04031 0.04031 0.99919 -6.57179 12.7831)" class="st19" cx="313.69467" cy="169.35135" rx="22.66614" ry="21.79057" /><ellipse transform="matrix(0.99919 -0.04031 0.04031 0.99919 -6.52241 13.1789)" cx="323.53201" cy="168.32353" rx="12.8869" ry="13.35551" /><g><path class="st21" d="M405.50739,185.57953c-11.79785,4.57544-24.12793,7.75244-36.58252,10.11554
			c-12.46997,2.32605-25.13184,3.70209-37.83228,4.05853c-1.58594,0.09528-3.17529,0.04987-4.76343,0.05426l-4.76465-0.01355
			c-3.17676,0.04987-6.34985-0.16656-9.52222-0.3266l-4.75635-0.26831c-1.58301-0.12323-3.16064-0.32312-4.74072-0.48102
			l-4.73682-0.50665c-1.57812-0.17261-3.15576-0.34534-4.71802-0.64331l-9.38696-1.5993
			c-0.75391-0.0929-1.63428-0.39563-2.45264-0.6264c-0.79614-0.38391-1.61011-0.72852-2.28564-1.32135
			c-1.3894-1.09784-2.38135-2.61481-2.94604-4.18921c-1.07812-3.18262-1.15869-6.42639-1.12646-9.5918
			c0.03101-3.17621,0.26929-6.32343,0.42212-9.48126c0.18677,3.15625,0.2334,6.32355,0.40967,9.46075
			c0.19116,3.11951,0.54883,6.29144,1.72217,9.03601c0.59155,1.36035,1.4707,2.52765,2.60132,3.32379
			c0.54077,0.43939,1.21606,0.6637,1.84961,0.94391c0.71436,0.14148,1.3374,0.35461,2.1604,0.41803l9.34839,1.19672
			c1.552,0.23486,3.11938,0.34473,4.68628,0.45447l4.69263,0.38464c1.56445,0.11938,3.12524,0.28088,4.69165,0.36591
			l4.70557,0.15411c6.26685,0.33386,12.54834,0.24786,18.82031,0.11902l9.40796-0.38263l9.39233-0.71686l9.37256-0.98035
			l9.34619-1.24921c6.20703-0.99286,12.42407-1.99475,18.58374-3.31158C393.29132,188.76727,399.4173,187.27301,405.50739,185.57953
			z" /></g><g><path class="st21" d="M282.27155,168.7489c-1.59985,0.35321-3.09839,0.75153-4.54395,1.23279
			c-1.4375,0.50281-2.80127,1.10059-4.06665,1.84644c-0.65405,0.34363-1.22339,0.80304-1.83838,1.21167
			c-0.54395,0.48975-1.1521,0.9234-1.65894,1.47498c-1.10767,1.02942-1.96973,2.28906-3.00635,3.58368
			c0.22217-1.60889,0.74976-3.24951,1.74414-4.62091c0.42578-0.74292,1.05542-1.32367,1.63623-1.95172
			c0.65674-0.54077,1.3147-1.09705,2.06592-1.50391c1.47144-0.8584,3.10327-1.41632,4.75879-1.6261
			C279.0108,168.18097,280.70026,168.2345,282.27155,168.7489z" /></g><ellipse transform="matrix(0.67803 -0.73504 0.73504 0.67803 -7.48372 335.74689)" class="st21" cx="379.49939" cy="176.41579" rx="6.07608" ry="3.61799" /><ellipse transform="matrix(0.64931 -0.76052 0.76052 0.64931 5.86145 361.14706)" class="st21" cx="394.53387" cy="174.21777" rx="3.36477" ry="5.19089" /><g><path class="st16" d="M249.96832,57.34601c-2.05396,2.16089-3.80493,4.57947-5.31812,7.10345
			c-1.50195,2.53302-2.71216,5.21558-3.55835,7.97302c-0.89575,2.74829-1.20166,5.62122-1.17188,8.40869l0.11377,2.0882
			l0.3728,2.04858c0.06567,0.33893,0.11475,0.67969,0.19165,1.01477l0.323,0.98694l0.63086,1.95996l-3.98096,1.29816
			l-0.47314-2.36774l-0.229-1.17694c-0.04443-0.39783-0.05957-0.80072-0.0896-1.19952l-0.14307-2.38702l0.14551-2.37799
			c0.33179-3.13757,1.05737-6.21533,2.34546-9.01941c1.24121-2.81805,2.82422-5.4375,4.65625-7.83685
			C245.62653,61.47382,247.67291,59.25482,249.96832,57.34601z" /></g><g><path class="st16" d="M363.03815,85.90741c2.92871-2.73151,5.36548-6.03833,6.25244-9.84906
			c0.93091-3.78571,0.15894-7.94-1.92725-11.47137c-2.05225-3.55902-5.16138-6.55597-8.68945-8.88586
			c-3.54199-2.33209-7.53833-4.03308-11.73071-5.01331c4.25806,0.63806,8.43701,2.01678,12.27075,4.11664
			c3.81836,2.10437,7.34399,4.94452,9.91992,8.66492c1.27466,1.85736,2.31421,3.93689,2.88452,6.19269
			c0.58276,2.24738,0.71484,4.64691,0.35767,6.98004c-0.34985,2.3363-1.17603,4.58392-2.29956,6.625
			c-1.12427,2.04669-2.53174,3.89789-4.073,5.59656L363.03815,85.90741z" /></g><g><path class="st16" d="M365.0152,83.76221c0.32397-0.31384,0.76782-0.86871,1.1062-1.35596
			c0.35327-0.51031,0.677-1.04553,0.95654-1.59985c0.54712-1.11029,0.94409-2.29163,1.0813-3.50159
			c0.30347-2.42096-0.51099-4.9361-2.11377-7.06226c-1.59839-2.13635-3.80908-3.90216-6.18848-5.38062
			c-2.38525-1.48816-4.95776-2.7179-7.59009-3.81073c2.74512,0.76355,5.46704,1.67188,8.08984,2.89099
			c2.61572,1.21771,5.16406,2.74762,7.28394,4.94434c1.04419,1.10376,1.97266,2.38068,2.625,3.84137
			c0.65625,1.45532,1.01343,3.08429,1.03076,4.71826c0.01855,1.63647-0.30859,3.25275-0.8374,4.771
			c-0.27026,0.75836-0.59668,1.492-0.96948,2.2049c-0.39478,0.73096-0.75317,1.35724-1.35059,2.1283L365.0152,83.76221z" /></g><g><path class="st16" d="M240.47833,94.54059c-0.40479-0.87024-0.66797-1.58527-0.94482-2.38336
			c-0.26172-0.78259-0.50537-1.56659-0.70337-2.36688c-0.40918-1.5932-0.68555-3.23401-0.76978-4.91156
			c-0.08228-1.67407,0.03198-3.396,0.47876-5.07196c0.44019-1.67188,1.24683-3.28546,2.38257-4.58722
			c1.13037-1.31061,2.54419-2.28149,4.01196-2.97882c1.47412-0.70874,3.02759-1.07654,4.55737-1.38361
			c3.08545-0.5144,6.16162-0.45703,9.18628-0.20453c-3.02881,0.18036-6.05542,0.5733-8.87378,1.47516
			c-1.38647,0.49432-2.74976,1.03809-3.92041,1.83069c-1.17017,0.78198-2.17407,1.73413-2.87646,2.8429
			c-1.42944,2.21826-1.57886,4.96832-1.04688,7.62531c0.26318,1.3338,0.68579,2.65869,1.22412,3.9433
			c0.26172,0.64404,0.56494,1.2749,0.87671,1.89459c0.30713,0.60016,0.67896,1.26331,0.98999,1.72888L240.47833,94.54059z" /></g><g><g><path class="st16" d="M382.36627,260.22333c1.82007,0.58978,3.47021,1.60168,4.9668,2.80414
				c1.49121,1.21265,2.82397,2.66779,3.85107,4.35553c1.00366,1.70245,1.62842,3.66162,1.74561,5.6427
				c0.15625,1.99579-0.46021,3.94891-1.35303,5.59882c0.09937-1.91559,0.21606-3.69128-0.19604-5.40833
				c-0.37964-1.70306-1.0415-3.29858-1.91504-4.81134C387.64484,265.4021,385.11578,262.81537,382.36627,260.22333z" /></g><g><path class="st16" d="M390.47467,259.41724c1.56006,0.31183,3.01172,1.14575,4.21167,2.22736
				c1.21606,1.07953,2.1582,2.44269,2.86963,3.89642c0.70898,1.46429,1.0979,3.0462,1.3374,4.6261
				c0.10645,0.7923,0.11987,1.59418,0.16699,2.38477c-0.05518,0.79718-0.07666,1.58844-0.16284,2.37286
				c-0.14062-0.78473-0.21631-1.56274-0.32593-2.33472c-0.16211-0.76483-0.27832-1.5318-0.44629-2.28381
				c-0.22803-0.73785-0.33496-1.50525-0.6311-2.21393c-0.13135-0.35864-0.23438-0.7276-0.37378-1.08179l-0.46704-1.04053
				c-0.65088-1.36969-1.48242-2.64972-2.51147-3.77039C393.10211,261.09601,391.90265,260.09613,390.47467,259.41724z" /></g></g><g><g><path class="st16" d="M214.74689,272.1579c-1.65869,3.36298-3.07153,6.65149-3.72754,10.08588
				c-0.34692,1.71143-0.40869,3.44165-0.28052,5.18195c0.0481,0.43378,0.10986,0.86749,0.14551,1.31262l0.29102,1.30151
				c0.04614,0.22064,0.07959,0.44861,0.13721,0.66797c0.07324,0.21283,0.15234,0.42438,0.21826,0.64441
				c0.14331,0.43445,0.27466,0.88336,0.40137,1.34674c-0.30615-0.3515-0.60718-0.71741-0.89673-1.09778
				c-0.15039-0.18732-0.2876-0.38324-0.43066-0.57776c-0.12573-0.20251-0.22876-0.41742-0.34497-0.62805l-0.63818-1.30487
				c-0.15283-0.45795-0.27979-0.92731-0.42017-1.39661c-0.45264-1.89014-0.54565-3.91089-0.14673-5.82068
				c0.37231-1.91339,1.0918-3.73157,2.05127-5.38037C212.07257,274.85162,213.25641,273.33344,214.74689,272.1579z" /></g><g><path class="st16" d="M207.18317,273.26483c-1.06519,1.15057-1.77271,2.52808-2.34424,3.92279
				c-0.5481,1.41162-0.88867,2.89307-1.07568,4.39459l-0.13281,1.12988l-0.04614,1.14062
				c-0.07471,0.76074,0.021,1.52515-0.00464,2.29346l0.14624,2.30865c0.07471,0.77124,0.18335,1.53949,0.23047,2.32825
				c-0.26758-0.73608-0.47363-1.49268-0.71387-2.24628c-0.15845-0.76855-0.32837-1.54163-0.44043-2.32416
				c-0.17456-1.56958-0.25708-3.17078-0.03003-4.75775c0.21631-1.58014,0.62549-3.15466,1.35791-4.58575
				C204.8526,275.44794,205.85675,274.12476,207.18317,273.26483z" /></g></g><path class="st14" d="M259.13898,210.52422c0,0-21.26245-6.11659-21.26245,9.6118S256.51758,215.18448,259.13898,210.52422z" /><g><path class="st16" d="M291.14719,170.42572c-4.57941-16.62813,9.23917-26.1169,21.74316-26.71231
			c12.504-0.5954,24.43161,10.89197,23.53781,24.55614L291.14719,170.42572z" /></g><path class="st23" d="M328.35712,223.29866c0,0,72.59671,56.24312-21.80734,56.54698
		c-64.20995,0.2067-58.51534-10.84061-49.52029-76.69296C269.92404,224.7356,290.66913,231.72304,328.35712,223.29866z" /><g><path class="st21" d="M326.98029,143.22174c3.36353,2.6377,6.07104,6.02429,8.32007,9.68829
			c2.22656,3.68329,3.89941,7.76941,4.76636,12.08142c0.44141,2.15192,0.64697,4.36426,0.61523,6.5741
			c-0.02319,2.20825-0.29297,4.42291-0.86768,6.55127c-1.06567,4.27759-3.30469,8.1839-6.26831,11.21967
			c0.73022-2.01337,1.54663-3.90363,2.02832-5.89771c0.32227-0.96173,0.48682-1.96967,0.71851-2.94049
			c0.13867-0.9986,0.35669-1.96655,0.43018-2.96045c0.13843-0.98096,0.15137-1.97412,0.22046-2.95398
			c-0.0188-0.98853,0.03076-1.96851-0.05493-2.95209c-0.10449-1.9621-0.33423-3.92206-0.74341-5.85852
			c-0.77637-3.87885-2.04004-7.69629-3.63403-11.43359C330.93048,150.58875,329.05743,146.92145,326.98029,143.22174z" /></g></g></svg>