<svg version="1.1" xmlns="http://www.w3.org/2000/svg" xmlns:xlink="http://www.w3.org/1999/xlink" x="0px" y="0px" viewBox="0 0 432 408" style="enable-background:new 0 0 432 408;" xml:space="preserve" width="432" height="408" preserveAspectRatio="none"><style type="text/css">.st0{fill:#FFFFFF;}
.st14{fill:none;stroke:#C5DFEA;stroke-width:3;stroke-linejoin:round;stroke-miterlimit:10;}
.st15{fill:#808080;}
.st16{fill:#4D4D4D;}
.st17{fill:#B3B3B3;}
.st18{fill:#FFC2EF;}
.st19{fill:#FFFFD4;}
.st21{fill:#333333;}
.st22{fill:none;}
.st23{fill:#C5DFEA;}
.st24{fill:#42152F;}
.st25{fill:#611E45;}
.st26{fill:#9C3589;}
.st27{fill:#7D1D6C;}
.st29{fill:#666666;}</style><g id="Yucky_1"><g><path class="st16" d="M329.4769,236.48291c-2.46484-6.80273-3.73999-14.94849-2.89648-24.50659l-72.9707-41.63354
			c0,0-2.68604,19.24976,4.02905,34.02319c6.71509,14.77295,6.28418,43.21411-23.72681,45.21484
			c-6.60889,0.44067-19.81372-1.14404-25.35132-5.88855c0.17505-0.55524,13.15845-42.01447-6.46021-63.33789
			c-1.04395-1.13489-7.52637-7.0451-15.04126-10.67365c-16.33838-7.88885-33.96631-3.5899-33.96631-3.5899l0.0022,0.09058
			c-7.89966,1.76514-15.87231,6.14087-21.11133,13.2644c0,0-28.70068-4.90259-34.20141,13.40308
			c-5.7229,19.0437-25.34863,35.05029-46.2146,23.68799c0,0,14.54761,16.73193,28.48779,9.9939
			c0,0-14.18457,20.82642-49.65088,6.99756c0,0,55.34766,42.8479,88.11279,0.91772
			c15.03051-19.23486,23.26928-49.80981,34.63451-56.80469c0.17944-0.11035,0.42749-0.26343,0.72266-0.44531
			c10.47876-4.45331,21.1145-2.31738,28.2019,0.8866c6.16602,2.7876,11.54272,7.20343,14.35669,10.29169
			c8.02368,8.8056,11.03809,27.91919-2.6123,67.50555l0.12158-0.09253c-1.5105,4.526-3.24829,9.31219-5.24536,14.38647
			c-6.12085,15.55322-17.90698,87.29614,52.82544,109.23218c42.61084,13.21484,85.70898,8.55811,110.79639-9.27197
			L329.4769,236.48291z" /></g><g><path class="st22" d="M259.78271,210.10204c0,0-11.03831,6.61484-21.67757-5.39346
			C227.46588,192.70027,242.7679,179.50311,259.78271,210.10204z" /></g><g><path class="st22" d="M259.17072,210.54364c0,0-22.12082,0.41638-17.48886,15.44727
			C246.31381,241.02177,258.03802,215.76923,259.17072,210.54364z" /></g><g><path class="st16" d="M383.7352,259.66565c-32.00879-24.1969-63.65845-41.03894-63.65845-41.03894l-3.052,8.3645
			c22.39111,11.3064,39.2229,20.79828,60.04077,34.80878c0,0,0.00928,0.02063,0.02588,0.0564
			c-0.9834,1.39166-10.72437,15.43854-2.22339,14.09351c4.10938-0.65021,5.88037-3.87317,6.59766-7.16663
			c3.67944,4.62164,9.60498,9.70905,17.54761,8.9787C410.6185,276.69476,402.41025,264.46783,383.7352,259.66565z" /></g><g><path class="st16" d="M398.08676,373.90509c0.15161-0.27435,0.27466-0.55591,0.34033-0.85144
			c1.79077-8.05811-4.49756-18.13574-18.13574-18.86115c-8.91211-0.47406-25.84375,10.19196-32.97266,14.98694
			c-3.63501,1.19519-5.8623,2.12988-5.8623,2.12988l0.45605,0.16949c-10.33521,1.6377-19.94751,4.55145-22.12207,7.3783
			c0,0,23.27222-4.73175,34.8208,6.38379c11.60693,11.17163,23.79419,21.18256,29.30737,13.63806
			c2.0979-2.87091,2.39038-5.95569,1.54126-9.01105c4.14844,1.62354,8.39136,2.37329,10.93604,0.30591
			C400.41464,386.909,401.4725,379.84015,398.08676,373.90509z" /></g><path class="st16" d="M362.90405,365.26813c0,0,23.88385-12.81573,34.94278,9.23642" /><path class="st16" d="M385.33157,390.31705c0,0,4.40182-25.96744-30.00046-17.76724" /><g><path class="st16" d="M242.15414,377.13202l0.45605-0.16949c0,0-2.22754-0.93469-5.8623-2.12988
			c-7.12915-4.79504-24.06079-15.461-32.9729-14.98694c-13.63818,0.7254-19.92651,10.80304-18.13574,18.86115
			c0.06567,0.29553,0.18872,0.57709,0.34058,0.8515c-3.38599,5.93512-2.32812,13.00385,1.69067,16.26868
			c2.54468,2.06738,6.78784,1.31763,10.93628-0.30591c-0.84937,3.0553-0.55688,6.14014,1.54102,9.01105
			c5.51318,7.54449,17.70044-2.46643,29.30737-13.63806c11.54858-11.11554,34.82056-6.38379,34.82056-6.38379
			C262.10141,381.68347,252.48911,378.76971,242.15414,377.13202z" /></g><path class="st16" d="M221.16231,370.92133c0,0-23.88385-12.81573-34.94276,9.23642" /><path class="st16" d="M198.73479,395.97025c0,0-4.40182-25.96744,30.00046-17.76724" /><path class="st16" d="M329.4769,236.48303c0,0-5.13498-17.79161-3.3443-33.01248l-46.55798,1.34302
		c0,0-4.47672,53.27307-41.1859,62.67419l11.63951,3.58148c0.13852-0.1189-19.73889,5.91821-31.78479,26.4126l11.6395-4.02905
		c0,0-59.99033,60.78598,11.6395,85.95322c66.25558,23.27896,110.21454-7.75336,110.21454-7.75336
		c16.5567-11.76712,25.82761-32.52472,21.37799-54.41675l7.18607,4.42029c0,0,3.58139-31.3371-21.48831-45.66263l11.63,1.15857
		c0,0-7.56033-9.64404-17.44974-14.58878C344.93488,258.5343,334.86273,251.34679,329.4769,236.48303" /><g><path class="st16" d="M208.52451,267.73114c-0.00024-0.1156-0.00073-0.19244-0.00073-0.19244
			c20.43555-13.43243,33.07202-21.08087,55.0188-39.49463l-2.09937-9.15356c0,0-27.02686,25.49249-59.93408,45.42749
			c-9.92627,3.2207-19.99268,30.06281-4.59058,28.96558c7.25391-0.51678,9.97412-9.88947,10.99438-17.17883
			c2.04395,5.44348,5.86279,13.435,9.16846,8.1217C221.30161,277.44366,210.41074,269.10315,208.52451,267.73114z" /></g><g><path class="st16" d="M386.65775,224.89168c0,0,13.48026,6.69392,7.57446,11.2574
			C388.1178,240.87373,386.65775,224.89168,386.65775,224.89168z" /></g><path class="st16" d="M200.45076,268.08008c0,0-10.52931,11.47876-6.54828,24.41382" /><path class="st16" d="M386.96371,263.46924c0,0,13.96671,3.54712,16.84875,13.96674" /><g><path class="st16" d="M328.35712,223.29866c0,0,72.59671,56.24312-21.80734,56.54698
			c-64.20995,0.2067-58.51534-10.84061-49.52029-76.69296C269.92404,224.7356,290.66913,231.72304,328.35712,223.29866z" /></g><g><ellipse transform="matrix(0.99919 -0.04031 0.04031 0.99919 -6.04457 15.64674)" class="st16" cx="384.96704" cy="157.70946" rx="20.6355" ry="18.96394" /></g><g><ellipse transform="matrix(0.99919 -0.04031 0.04031 0.99919 -6.12949 15.9301)" class="st16" cx="391.95001" cy="159.95651" rx="11.05175" ry="12.81727" /></g><g><path class="st16" d="M307.15262,193.45438c1.22208,11.81346-11.07324,23.08037-34.15359,22.81354
			c-11.38599-0.13164-29.21733-12.54077-29.09435-28.63104c0.09079-11.87616,9.23079-21.50432,20.61754-21.50432
			C275.909,166.13255,305.55167,177.97853,307.15262,193.45438z" /></g><g><path class="st16" d="M373.46686,173.50562c3.49609,2.14258,7.72998,3.33521,12.26465,3.15234
			c8.29858-0.33472,15.25098-5.13794,18.25903-11.7644L373.46686,173.50562z" /></g><g><path class="st16" d="M399.57123,193.69017l-8.39316-3.77914l-2.13062-41.18565
			C389.04745,148.72537,401.56647,162.76385,399.57123,193.69017z" /></g><g><path class="st16" d="M401.86786,175.87889c1.09024,27.02351-31.85187,45.83961-73.3569,47.5141
			c-41.505,1.6745-80.56844-19.07301-77.12553-45.89847c3.67911-28.66594,31.67241-50.28784,73.17741-51.96233
			C366.06787,123.8577,400.77759,148.85538,401.86786,175.87889z" /></g><g><ellipse transform="matrix(0.99919 -0.04031 0.04031 0.99919 -6.2414 12.58726)" class="st16" cx="309.00372" cy="161.06068" rx="22.66614" ry="21.79057" /></g><g><ellipse transform="matrix(0.99919 -0.04031 0.04031 0.99919 -6.43356 12.6123)" class="st16" cx="309.52692" cy="165.83734" rx="12.8869" ry="13.71073" /></g><g><ellipse transform="matrix(0.89083 -0.45433 0.45433 0.89083 -36.67727 188.88147)" class="st16" cx="374.70544" cy="170.76259" rx="6.07608" ry="3.61799" /></g><g><ellipse transform="matrix(0.64931 -0.76052 0.76052 0.64931 7.34262 356.58606)" class="st16" cx="390.32886" cy="170.33119" rx="3.36477" ry="5.19089" /></g><path class="st16" d="M323.53027,134.85115c0,0,21.45602,23.66853,6.56564,46.11475" /><g><path class="st16" d="M276.71927,202.78729c18.28448,3.50417,62.76816,26.14124,99.22318,17.06728
			c22.42105-5.58078-19.043-32.63672-22.91345-31.95003c-15.94263,2.82852-47.97314,6.51381-72.3847,13.24266
			C279.03644,201.59041,274.10721,202.2867,276.71927,202.78729z" /></g><g><path class="st16" d="M385.29999,186.36169c-36.90829-3.37645-47.13962,0.58098-78.68463,6.81419
			c-26.99072,5.3333-40.07892,11.38181-25.61575,9.61311c17.12823-4.21706,43.90582-12.48055,94.91705,4.65587
			C380.08502,205.17122,411.41089,188.75038,385.29999,186.36169z" /></g><g><g><path class="st16" d="M329.26172,195.17606c38.28918-2.24556,44.51636,19.49759,26.15131,19.56863
				c-16.29065,0.06302-30.33542-3.80646-47.39044-7.53397c-6.57352-1.43669-12.90552-3.38956-18.25128-3.99835
				c-6.64514-0.75676-7.72641-1.33699-0.09967-2.97299C298.21085,198.40765,311.46008,196.22006,329.26172,195.17606z" /></g><path class="st16" d="M309.63483,196.96741c29.8053-4.37607,45.57352,3.78519,53.94269,15.77718" /></g><g><path class="st16" d="M390.13049,187.27327c0,0,0.26581,13.58206,2.26178,15.42209
			c1.99597,1.84001,5.09879-2.26251,7.14169-8.97752C399.53397,193.71783,398.52576,187.84077,390.13049,187.27327z" /></g><g><path class="st16" d="M359.37872,185.1391c0,0-8.07532,19.87489-12.76828,20.09236
			c-7.13245,0.33051-9.56998-18.2885-9.56998-18.2885C343.54901,185.79425,349.89029,185.23688,359.37872,185.1391z" /></g><g><path class="st16" d="M379.7077,205.3842l-3.52359,2.03586c2.89716,1.80093,5.35062,7.3333-0.70471,8.61319
			c-33.50555,7.08195-92.55499-11.61702-92.55499-11.61702l-7.63016,8.13235c11.11743,10.67627,80.85144,19.84494,110.29187,9.30124
			C397.74237,217.49606,387.68869,208.70961,379.7077,205.3842z" /></g><g><path class="st16" d="M309.88214,182.8335c3.09912-0.125,6.02783-0.84399,8.67432-2.03589l-29.29688-8.97998
			C293.30109,178.68823,301.10223,183.18774,309.88214,182.8335z" /></g><path class="st16" d="M329.4769,236.48291c-2.46484-6.80273-3.73999-14.94849-2.89648-24.50659l-72.9707-41.63354
		c0,0-2.68604,19.24976,4.02905,34.02319c6.71509,14.77295,6.28418,43.21411-23.72681,45.21484
		c-6.60889,0.44067-19.81372-1.14404-25.35132-5.88855c0.17505-0.55524,13.15845-42.01447-6.46021-63.33789
		c-1.04395-1.13489-7.52637-7.0451-15.04126-10.67365c-16.33838-7.88885-33.96631-3.5899-33.96631-3.5899l0.0022,0.09058
		c-7.89966,1.76514-15.87231,6.14087-21.11133,13.2644c0,0-28.70068-4.90259-34.20141,13.40308
		c-5.7229,19.0437-25.34863,35.05029-46.2146,23.68799c0,0,14.54761,16.73193,28.48779,9.9939
		c0,0-14.18457,20.82642-49.65088,6.99756c0,0,55.34766,42.8479,88.11279,0.91772
		c15.03051-19.23486,23.26928-49.80981,34.63451-56.80469c0.17944-0.11035,0.42749-0.26343,0.72266-0.44531
		c10.47876-4.45331,21.1145-2.31738,28.2019,0.8866c6.16602,2.7876,11.54272,7.20343,14.35669,10.29169
		c8.02368,8.8056,11.03809,27.91919-2.6123,67.50555l0.12158-0.09253c-1.5105,4.526-3.24829,9.31219-5.24536,14.38647
		c-6.12085,15.55322-17.90698,87.29614,52.82544,109.23218c42.61084,13.21484,85.70898,8.55811,110.79639-9.27197
		L329.4769,236.48291z" /><path class="st14" d="M259.78271,210.10204c0,0-11.03831,6.61484-21.67757-5.39346
		C227.46588,192.70027,242.7679,179.50311,259.78271,210.10204z" /><path class="st14" d="M259.17072,210.54364c0,0-22.12082,0.41638-17.48886,15.44727
		C246.31381,241.02177,258.03802,215.76923,259.17072,210.54364z" /><path class="st15" d="M383.7352,259.66565c-32.00879-24.1969-63.65845-41.03894-63.65845-41.03894l-3.052,8.3645
		c22.39111,11.3064,39.2229,20.79828,60.04077,34.80878c0,0,0.00928,0.02063,0.02588,0.0564
		c-0.9834,1.39166-10.72437,15.43854-2.22339,14.09351c4.10938-0.65021,5.88037-3.87317,6.59766-7.16663
		c3.67944,4.62164,9.60498,9.70905,17.54761,8.9787C410.6185,276.69476,402.41025,264.46783,383.7352,259.66565z" /><g><path class="st15" d="M398.08676,373.90509c0.15161-0.27435,0.27466-0.55591,0.34033-0.85144
			c1.79077-8.05811-4.49756-18.13574-18.13574-18.86115c-8.91211-0.47406-25.84375,10.19196-32.97266,14.98694
			c-3.63501,1.19519-5.8623,2.12988-5.8623,2.12988l0.45605,0.16949c-10.33521,1.6377-19.94751,4.55145-22.12207,7.3783
			c0,0,23.27222-4.73175,34.8208,6.38379c11.60693,11.17163,23.79419,21.18256,29.30737,13.63806
			c2.0979-2.87091,2.39038-5.95569,1.54126-9.01105c4.14844,1.62354,8.39136,2.37329,10.93604,0.30591
			C400.41464,386.909,401.4725,379.84015,398.08676,373.90509z" /></g><g><path class="st16" d="M362.90414,365.26813c2.8606-1.89062,6.11597-3.18335,9.5-3.95996
			c1.6936-0.40094,3.43579-0.60791,5.19165-0.68506c1.75781-0.04816,3.5293,0.10205,5.27222,0.43854
			c1.73145,0.37842,3.44653,0.9173,5.03052,1.73792c1.56812,0.83954,3.06006,1.82819,4.34302,3.04376
			c2.57251,2.4212,4.44653,5.44977,5.60522,8.66125c-1.90356-2.83917-4.05054-5.44177-6.61963-7.47522
			c-2.59155-1.99194-5.56812-3.40692-8.7583-4.00916c-3.17358-0.67706-6.50098-0.62256-9.78638-0.18243
			C369.39243,363.30011,366.12045,364.12573,362.90414,365.26813z" /></g><g><path class="st16" d="M385.33163,390.31708c0.03174-3.57776-0.56689-7.13391-2.07544-10.18774
			c-1.49219-3.05658-4.05151-5.43475-7.19434-6.65576c-1.55371-0.64075-3.20728-1.08881-4.91333-1.32819
			c-0.84741-0.14502-1.7146-0.21039-2.57739-0.29236c-0.87061-0.00861-1.73999-0.10486-2.61743-0.08289
			c-3.50952-0.00317-7.04712,0.37573-10.62256,0.77966c3.38477-1.21356,6.92578-2.04376,10.56372-2.33929
			c3.62329-0.315,7.41309,0.00262,10.9375,1.41882c1.74292,0.73035,3.39722,1.76624,4.75488,3.12201
			c1.34546,1.36304,2.41162,2.99115,3.08887,4.74445C386.05966,382.9967,386.18393,386.82654,385.33163,390.31708z" /></g><g><path class="st15" d="M242.15414,377.13202l0.45605-0.16949c0,0-2.22754-0.93469-5.8623-2.12988
			c-7.12915-4.79504-24.06079-15.461-32.9729-14.98694c-13.63818,0.7254-19.92651,10.80304-18.13574,18.86115
			c0.06567,0.29553,0.18872,0.57709,0.34058,0.8515c-3.38599,5.93512-2.32812,13.00385,1.69067,16.26868
			c2.54468,2.06738,6.78784,1.31763,10.93628-0.30591c-0.84937,3.0553-0.55688,6.14014,1.54102,9.01105
			c5.51318,7.54449,17.70044-2.46643,29.30737-13.63806c11.54858-11.11554,34.82056-6.38379,34.82056-6.38379
			C262.10141,381.68347,252.48911,378.76971,242.15414,377.13202z" /></g><g><path class="st16" d="M221.1622,370.92133c-3.21631-1.1424-6.48828-1.96802-9.77808-2.43036
			c-3.28564-0.44012-6.61304-0.49463-9.78662,0.18243c-3.19019,0.60223-6.16675,2.01721-8.7583,4.00916
			c-2.56909,2.03345-4.71606,4.63605-6.61963,7.47522c1.15869-3.21149,3.03271-6.24005,5.60522-8.66125
			c1.28296-1.21558,2.7749-2.20422,4.34302-3.04376c1.58398-0.82062,3.29907-1.3595,5.03052-1.73792
			c1.74292-0.33649,3.5144-0.48669,5.27222-0.43854c1.75586,0.07715,3.49805,0.28412,5.19165,0.68506
			C215.04623,367.73798,218.30161,369.0307,221.1622,370.92133z" /></g><g><path class="st16" d="M198.73471,395.97028c-0.85229-3.49054-0.72803-7.32037,0.65552-10.82129
			c0.67725-1.7533,1.74341-3.38141,3.08887-4.74445c1.35767-1.35577,3.01196-2.39166,4.75488-3.12201
			c3.52441-1.4162,7.31421-1.73383,10.9375-1.41882c3.63794,0.29553,7.1792,1.12573,10.56372,2.33929
			c-3.57544-0.40393-7.11304-0.7829-10.62231-0.77966c-0.87769-0.02197-1.74707,0.07428-2.61743,0.08289
			c-0.86304,0.08197-1.73022,0.14734-2.57764,0.29236c-1.70605,0.23938-3.35962,0.68744-4.91309,1.32819
			c-3.14307,1.22101-5.70239,3.59918-7.19458,6.65576C199.30161,388.83636,198.70297,392.39252,198.73471,395.97028z" /></g><path class="st17" d="M329.4769,236.48303c0,0-5.13498-17.79161-3.3443-33.01248l-46.55798,1.34302
		c0,0-4.47672,53.27307-41.1859,62.67419l11.63951,3.58148c0.13852-0.1189-19.73889,5.91821-31.78479,26.4126l11.6395-4.02905
		c0,0-59.99033,60.78598,11.6395,85.95322c66.25558,23.27896,110.21454-7.75336,110.21454-7.75336
		c16.5567-11.76712,25.82761-32.52472,21.37799-54.41675l7.18607,4.42029c0,0,3.58139-31.3371-21.48831-45.66263l11.63,1.15857
		c0,0-7.56033-9.64404-17.44974-14.58878C344.93488,258.5343,334.86273,251.34679,329.4769,236.48303" /><path class="st15" d="M208.52451,267.73114c-0.00024-0.1156-0.00073-0.19244-0.00073-0.19244
		c20.43555-13.43243,33.07202-21.08087,55.0188-39.49463l-2.09937-9.15356c0,0-27.02686,25.49249-59.93408,45.42749
		c-9.92627,3.2207-19.99268,30.06281-4.59058,28.96558c7.25391-0.51678,9.97412-9.88947,10.99438-17.17883
		c2.04395,5.44348,5.86279,13.435,9.16846,8.1217C221.30161,277.44366,210.41074,269.10315,208.52451,267.73114z" /><path class="st23" d="M386.65775,224.89168c0,0,13.48026,6.69392,7.57446,11.2574
		C388.1178,240.87373,386.65775,224.89168,386.65775,224.89168z" /><g><path class="st16" d="M200.45078,268.08008c-0.63672,0.89984-1.26147,1.79724-1.80762,2.746
			c-0.58105,0.92328-1.1145,1.87405-1.60596,2.84283c-0.97729,1.93942-1.82861,3.93344-2.45654,5.99561
			c-0.68311,2.05038-0.99341,4.19247-1.16455,6.33731l-0.0603,1.62061c0.01978,0.53937,0.07812,1.0777,0.11084,1.62012
			l0.04053,0.8176l0.13721,0.80481c0.09595,0.53699,0.18066,1.07962,0.25806,1.62894
			c-0.75098-2.06052-1.28613-4.26584-1.25537-6.50897c-0.00903-2.23035,0.29297-4.48331,0.97778-6.61237
			c0.67456-2.12979,1.58203-4.18259,2.7439-6.07736C197.52695,271.40292,198.85287,269.60651,200.45078,268.08008z" /></g><g><path class="st16" d="M386.96371,263.46924c1.88623,0.32214,3.72656,0.91302,5.4895,1.67877
			c1.76685,0.76273,3.45312,1.724,5.02271,2.86313c1.54126,1.17743,2.94727,2.54907,4.08813,4.1272
			c1.1272,1.59421,1.87134,3.42896,2.24829,5.29764c-0.75439-1.76376-1.69434-3.37921-2.8689-4.82462
			c-1.21313-1.41016-2.57349-2.67947-4.06421-3.79858c-1.49805-1.11047-3.10474-2.07666-4.76196-2.96384
			C390.44931,264.98331,388.74228,264.16287,386.96371,263.46924z" /></g><path class="st23" d="M328.35712,223.29866c0,0,72.59671,56.24312-21.80734,56.54698
		c-64.20995,0.2067-58.51534-10.84061-49.52029-76.69296C269.92404,224.7356,290.66913,231.72304,328.35712,223.29866z" /><ellipse transform="matrix(0.99919 -0.04031 0.04031 0.99919 -6.04457 15.64674)" class="st19" cx="384.96704" cy="157.70946" rx="20.6355" ry="18.96394" /><ellipse transform="matrix(0.99919 -0.04031 0.04031 0.99919 -6.12949 15.9301)" cx="391.95001" cy="159.95651" rx="11.05175" ry="12.81727" /><g><path class="st16" d="M307.15262,193.45438c1.22208,11.81346-11.07324,23.08037-34.15359,22.81354
			c-11.38599-0.13164-29.21733-12.54077-29.09435-28.63104c0.09079-11.87616,9.23079-21.50432,20.61754-21.50432
			C275.909,166.13255,305.55167,177.97853,307.15262,193.45438z" /></g><path class="st18" d="M358.35187,95.94863c0,0,9.86151-4.11616,8.5336-14.33981c0,0,28.54715,37.87663-2.7995,58.48735
		l-26.34375-2.7215c0,0-6.19241-18.57028,3.00513-27.79826S358.35187,95.94863,358.35187,95.94863z" /><g><path class="st16" d="M334.42886,137.33247l9.65637,1.5811c0,0-9.60352-16.21059,2.35938-29.13204
			c9.94586-10.74284,23.42316-14.08063,21.37521-25.09087c0,0-5.55139,7.20874-15.38846,12.97205
			C342.99216,103.19293,322.29779,116.69824,334.42886,137.33247z" /></g><g><path class="st16" d="M361.18149,92.19016c2.67456-2.98053,4.80835-6.49051,5.35376-10.36496
			c0.59131-3.8533-0.54614-7.92279-2.93726-11.25514c-2.36011-3.36285-5.7229-6.07216-9.44385-8.07983
			c-3.73486-2.00867-7.86646-3.34834-12.12915-3.95276c4.29785,0.25775,8.58276,1.26025,12.58765,3.01169
			c3.98999,1.75729,7.75366,4.27348,10.64941,7.75063c1.43457,1.73697,2.65454,3.71605,3.42285,5.91238
			c0.77979,2.18677,1.12427,4.56509,0.97559,6.92078c-0.14136,2.35815-0.76489,4.67017-1.70288,6.80292
			c-0.93823,2.13834-2.17603,4.10712-3.56055,5.93582L361.18149,92.19016z" /></g><g><path class="st16" d="M362.9603,89.87799c0.29468-0.34134,0.68774-0.93341,0.98145-1.44873
			c0.30664-0.53964,0.58154-1.10147,0.81079-1.67838c0.44653-1.15451,0.7373-2.36639,0.76636-3.58371
			c0.08765-2.43839-0.94678-4.87134-2.73193-6.84689c-1.78174-1.98611-4.14038-3.54881-6.6416-4.81033
			c-2.50781-1.27066-5.1792-2.26733-7.89795-3.12231c2.802,0.51698,5.59351,1.18024,8.31421,2.16183
			c2.71362,0.98082,5.3877,2.27863,7.69385,4.27863c1.13818,1.00674,2.17627,2.19623,2.95557,3.59332
			c0.78271,1.39136,1.2832,2.98221,1.44531,4.60822c0.16357,1.62836-0.0188,3.26724-0.41089,4.82645
			c-0.20166,0.77933-0.46191,1.53906-0.76978,2.2822c-0.32861,0.76312-0.62988,1.41873-1.15649,2.23972L362.9603,89.87799z" /></g><g><g><path class="st18" d="M257.88791,163.01755c0,0-27.1095-12.59468-25.782-42.91362s14.90276-38.63342,29.63884-44.18095
				c0,0-8.36092,8.82526-4.55603,17.70516c3.80487,8.87991,22.93039,18.71309,22.68726,36.67228
				c-0.2431,17.9592-6.41071,32.76904-6.41071,32.76904L257.88791,163.01755z" /></g><g><path class="st16" d="M266.1178,70.83431c0,0-16.46783,13.33759,0.86038,29.48039s26.35287,32.35661,15.68384,52.7058
				l-14.54489,3.16573c0,0,15.01831-23.12575,3.78201-39.06601C266.79892,109.88485,241.86536,89.26329,266.1178,70.83431z" /></g><g><path class="st16" d="M277.65463,63.4977c-2.62646,1.41078-5.04541,3.1611-7.27148,5.08582
				c-2.21851,1.93675-4.2063,4.10681-5.87183,6.46169c-1.70972,2.33081-2.89795,4.96423-3.74072,7.62146l-0.54468,2.01907
				l-0.28589,2.06256c-0.0437,0.34244-0.10352,0.68143-0.13501,1.02383l-0.00171,1.03839l-0.01343,2.05893l-4.18701-0.01083
				l0.29053-2.39703l0.15015-1.18961c0.08203-0.39178,0.1936-0.77921,0.28979-1.16745l0.60986-2.31213l0.88135-2.21347
				c1.29565-2.87677,2.94678-5.57364,5.04663-7.83478c2.05957-2.289,4.38208-4.28255,6.87207-5.9892
				C272.24033,66.0619,274.87778,64.59363,277.65463,63.4977z" /></g><g><path class="st16" d="M257.01669,95.86389c-0.11255-0.95316-0.13916-1.7146-0.15259-2.55923
				c-0.00415-0.8252,0.00952-1.64606,0.07129-2.46817c0.10913-1.64133,0.35962-3.28625,0.80371-4.90613
				c0.44507-1.61594,1.0918-3.21591,2.03979-4.66833c0.94067-1.45059,2.21094-2.73129,3.69678-3.61288
				c1.48315-0.89182,3.12964-1.37222,4.7417-1.57599c1.62207-0.21255,3.2124-0.07648,4.76172,0.10989
				c3.09155,0.47556,5.99585,1.49139,8.79004,2.67639c-2.93335-0.77512-5.9314-1.34772-8.89038-1.37173
				c-1.47144,0.03625-2.93628,0.12683-4.29614,0.51389c-1.35596,0.37708-2.60718,0.96783-3.62085,1.80157
				c-2.05103,1.66049-3.05225,4.22614-3.37744,6.91629c-0.1665,1.34927-0.1792,2.73984-0.06909,4.12839
				c0.04736,0.69357,0.13794,1.38754,0.24048,2.0737c0.10425,0.66605,0.25024,1.41214,0.40015,1.95163L257.01669,95.86389z" /></g></g><g><path class="st29" d="M373.46686,173.50562c3.49609,2.14258,7.72998,3.33521,12.26465,3.15234
			c8.29858-0.33472,15.25098-5.13794,18.25903-11.7644L373.46686,173.50562z" /></g><g><path class="st16" d="M399.57123,193.69017l-8.39316-3.77914l-2.13062-41.18565
			C389.04745,148.72537,401.56647,162.76385,399.57123,193.69017z" /></g><g><path class="st16" d="M401.86786,175.87889c1.09024,27.02351-31.85187,45.83961-73.3569,47.5141
			c-41.505,1.6745-80.56844-19.07301-77.12553-45.89847c3.67911-28.66594,31.67241-50.28784,73.17741-51.96233
			C366.06787,123.8577,400.77759,148.85538,401.86786,175.87889z" /></g><path class="st19" d="M331.65143,160.14697c0.36386,9.01862-5.02756,16.98665-13.0228,20.61989
		c-6.67688,0.18825-10.34705,0.03358-13.3277-0.92023c-5.54236-1.77356-8.42438-3.5471-15.98483-7.92035
		c-1.7532-2.94196-2.81378-6.32474-2.96011-9.9519c-0.48511-12.02481,9.26132-22.18193,21.76932-22.68655
		S331.16632,148.12216,331.65143,160.14697z" /><ellipse transform="matrix(0.99919 -0.04031 0.04031 0.99919 -6.43356 12.6123)" cx="309.52692" cy="165.83734" rx="12.8869" ry="13.71073" /><ellipse transform="matrix(0.89083 -0.45433 0.45433 0.89083 -36.67727 188.88147)" class="st21" cx="374.70544" cy="170.76259" rx="6.07608" ry="3.61799" /><ellipse transform="matrix(0.64931 -0.76052 0.76052 0.64931 7.34262 356.58606)" class="st21" cx="390.32886" cy="170.33119" rx="3.36477" ry="5.19089" /><g><path class="st21" d="M323.53036,134.85117c3.36353,2.63773,6.0708,6.02429,8.31982,9.68829
			c2.22681,3.68329,3.89941,7.76944,4.7666,12.08142c0.44116,2.15192,0.64673,4.36423,0.61523,6.5741
			c-0.02319,2.20825-0.29297,4.42291-0.86768,6.5513c-1.06592,4.27756-3.30493,8.18387-6.26855,11.21964
			c0.73022-2.01334,1.54688-3.90359,2.02832-5.89767c0.32251-0.96176,0.48706-1.96967,0.71851-2.94052
			c0.13892-0.99857,0.35669-1.96652,0.43018-2.96045c0.13843-0.98093,0.15137-1.97412,0.22046-2.95398
			c-0.01855-0.98853,0.03076-1.96851-0.05469-2.95209c-0.10449-1.9621-0.33447-3.92203-0.74341-5.85852
			c-0.77661-3.87888-2.04028-7.69626-3.63428-11.43359C327.48056,142.2182,325.60751,138.55087,323.53036,134.85117z" /></g><path class="st25" d="M276.71927,202.78729c18.28448,3.50417,62.76816,26.14124,99.22318,17.06728
		c22.42105-5.58078-19.043-32.63672-22.91345-31.95003c-15.94263,2.82852-47.97314,6.51381-72.3847,13.24266
		C279.03644,201.59041,274.10721,202.2867,276.71927,202.78729z" /><path class="st24" d="M385.29999,186.36169c-36.90829-3.37645-47.13962,0.58098-78.68463,6.81419
		c-26.99072,5.3333-40.07892,11.38181-25.61575,9.61311c17.12823-4.21706,43.90582-12.48055,94.91705,4.65587
		C380.08502,205.17122,411.41089,188.75038,385.29999,186.36169z" /><g><path class="st26" d="M329.26172,195.17606c38.28918-2.24556,44.51636,19.49759,26.15131,19.56863
			c-16.29065,0.06302-30.33542-3.80646-47.39044-7.53397c-6.57352-1.43669-12.90552-3.38956-18.25128-3.99835
			c-6.64514-0.75676-7.72641-1.33699-0.09967-2.97299C298.21085,198.40765,311.46008,196.22006,329.26172,195.17606z" /><g><path class="st27" d="M309.63486,196.96741c4.81226-1.26294,9.75659-2.11246,14.77075-2.34811
				c1.25146-0.08685,2.51001-0.06406,3.76709-0.06757c1.25854-0.03006,2.51636,0.07291,3.77661,0.1467l1.88892,0.1373
				l1.87988,0.26974l1.88086,0.27139c0.62622,0.09665,1.2439,0.25552,1.86646,0.38077l1.85645,0.43301
				c0.61841,0.14603,1.22021,0.36633,1.83081,0.5463l1.82397,0.56952c0.59912,0.21732,1.19214,0.45828,1.78076,0.70578
				c0.58643,0.25327,1.18286,0.47919,1.75854,0.75522l1.70508,0.87756c1.15918,0.5369,2.20752,1.28796,3.28076,1.97189
				c4.25,2.83255,7.71826,6.75156,10.07568,11.12766c-3.38623-3.65494-7.09326-6.83319-11.31055-9.13879
				c-1.07617-0.53561-2.09961-1.15137-3.21167-1.60492l-1.6377-0.72916c-0.55249-0.22723-1.12695-0.40585-1.68823-0.61133
				l-1.6853-0.61197l-1.72681-0.50159c-0.57812-0.15811-1.14355-0.35623-1.73145-0.48233l-1.76245-0.37823
				c-0.58667-0.12927-1.16577-0.29233-1.75928-0.39487l-1.7854-0.29083l-1.78613-0.29227l-1.80542-0.18948
				c-2.39941-0.34705-4.83447-0.39694-7.26929-0.56747C319.53354,196.74524,314.62387,196.93314,309.63486,196.96741z" /></g></g><path class="st0" d="M390.13049,187.27327c0,0,0.26581,13.58206,2.26178,15.42209c1.99597,1.84001,5.09879-2.26251,7.14169-8.97752
		C399.53397,193.71783,398.52576,187.84077,390.13049,187.27327z" /><path class="st0" d="M359.37872,185.1391c0,0-8.07532,19.87489-12.76828,20.09236
		c-7.13245,0.33051-9.56998-18.2885-9.56998-18.2885C343.54901,185.79425,349.89029,185.23688,359.37872,185.1391z" /><path class="st16" d="M379.7077,205.3842l-3.52359,2.03586c2.89716,1.80093,5.35062,7.3333-0.70471,8.61319
		c-33.50555,7.08195-92.55499-11.61702-92.55499-11.61702l-7.63016,8.13235c11.11743,10.67627,80.85144,19.84494,110.29187,9.30124
		C397.74237,217.49606,387.68869,208.70961,379.7077,205.3842z" /><g><path class="st29" d="M309.88214,182.8335c3.09912-0.125,6.02783-0.84399,8.67432-2.03589l-29.29688-8.97998
			C293.30109,178.68823,301.10223,183.18774,309.88214,182.8335z" /></g></g>></svg>