<?xml version="1.0" encoding="utf-8"?>
<!-- Generator: Adobe Illustrator 22.0.1, SVG Export Plug-In . SVG Version: 6.00 Build 0)  -->
<!DOCTYPE svg PUBLIC "-//W3C//DTD SVG 1.1//EN" "http://www.w3.org/Graphics/SVG/1.1/DTD/svg11.dtd">
<svg version="1.1" id="Layer_1" xmlns="http://www.w3.org/2000/svg" xmlns:xlink="http://www.w3.org/1999/xlink" x="0px" y="0px"
	 viewBox="0 0 82 82" style="enable-background:new 0 0 82 82;" xml:space="preserve" width="82" height="82" preserveAspectRatio="none">
<style type="text/css">
	.st0{fill:#69D669;}
	.st1{fill:#384A82;}
	.st2{fill:#4C68C2;}
	.st3{fill:#C2644C;}
	.st4{fill:#E87041;}
	.st5{fill:#FCEE21;}
	.st6{fill:#FCF590;}
	.st7{fill:#006837;}
	.st8{fill:#008C4A;}
	.st9{fill:#D4145A;}
	.st10{fill:#F7931E;}
	.st11{fill:#8CC63F;}
	.st12{fill:#B54D4D;}
	.st13{fill:#DE5F5F;stroke:#FF948A;stroke-width:1.5;stroke-miterlimit:10;}
	.st14{fill:#FF948A;}
	.st15{fill:#FFFFFF;}
	.st16{fill:#3760B3;stroke:#FFFFFF;stroke-width:0.5;stroke-miterlimit:10;}
	.st17{fill:#ED914B;}
	.st18{fill:#FFAF4F;stroke:#FFC87A;stroke-width:1.5;stroke-miterlimit:10;}
	.st19{fill:#FFC87A;}
	.st20{fill:#284F8F;}
	.st21{fill:#664BED;}
	.st22{fill:#7960F7;}
	.st23{fill:#25CF25;stroke:#157515;stroke-width:0.5;stroke-miterlimit:10;}
	.st24{fill:#BC94FF;}
	.st25{fill:#25CF25;}
	.st26{fill:#4A2EFF;stroke:#FFFFFF;stroke-width:0.5;stroke-miterlimit:10;}
	.st27{fill:#E6D414;}
	.st28{fill:#FFEC59;}
	.st29{fill:#FFFE9E;}
	.st30{fill:#A0B8B6;}
	.st31{fill:#DEFFFC;}
	.st32{fill:#7C8F8D;}
	.st33{fill:#D9CD20;}
	.st34{fill:#F2F2F2;}
	.st35{fill:#25221D;}
	.st36{fill:#108BDE;}
	.st37{fill:#0071BC;}
	.st38{fill:#6BD643;}
	.st39{fill:#39B54A;}
	.st40{fill:#FF6B6B;}
	.st41{fill:#FF0000;}
	.st42{fill:#A32B9F;}
	.st43{fill:#662D91;}
	.st44{fill:#FBB03B;}
	.st45{fill:#B3B3B3;}
	.st46{fill:#DEDEDE;}
	.st47{fill:#0000FF;}
	.st48{fill:#4073FF;}
	.st49{fill:#C92F2F;}
	.st50{fill:#D96161;}
	.st51{fill:#009650;}
	.st52{fill:#26BD49;}
	.st53{fill:#1DC44D;}
	.st54{fill:#17A157;}
	.st55{fill:#22E65A;}
	.st56{fill:#FF82FF;}
	.st57{fill:#E05CE0;}
	.st58{fill:#FFA1FF;}
	.st59{fill:#F15A24;}
	.st60{fill:#F18C68;}
	.st61{fill:#CC2614;}
	.st62{fill:#56F1F7;}
	.st63{fill:#3EC7C7;}
	.st64{fill:#3FC6CC;}
	.st65{fill:#D6FFF6;}
	.st66{fill:none;stroke:#A0B8B6;stroke-width:3;stroke-linecap:round;stroke-miterlimit:10;}
	.st67{fill:none;stroke:#000000;stroke-width:4.8176;stroke-miterlimit:10;}
	.st68{fill:none;stroke:#808080;stroke-width:1.379;stroke-miterlimit:10;}
	.st69{fill:none;stroke:#F2F2F2;stroke-width:0.9193;stroke-miterlimit:10;}
	.st70{fill:#FF7BAC;}
	.st71{fill:none;stroke:#FF7BAC;stroke-width:2.3437;stroke-miterlimit:10;}
	.st72{fill:#E0CA21;}
	.st73{stroke:#FFFFFF;stroke-width:2.4088;stroke-miterlimit:10;}
	.st74{fill:#008747;}
	.st75{fill:#A81919;}
	.st76{fill:#D45757;}
	.st77{fill:#009C52;}
	.st78{fill:#00C266;}
	.st79{fill:#FF9670;}
	.st80{fill:#EDDF13;}
	.st81{fill:#EDE79C;}
	.st82{fill:#A85414;}
	.st83{fill:#E36840;}
	.st84{fill:#B05032;}
	.st85{fill:#913D3D;}
	.st86{fill:#612929;}
	.st87{fill:#D4BB1C;}
	.st88{fill:#A14F3F;}
	.st89{fill:#4AB04A;}
	.st90{fill:#243054;}
	.st91{fill:none;}
	.st92{fill:#985EC4;}
	.st93{fill:#57B342;}
	.st94{fill:#77DB60;}
	.st95{fill:#4692E3;}
	.st96{fill:none;stroke:#4692E3;stroke-width:3.5969;stroke-miterlimit:10;}
	.st97{fill:#7ABAFF;}
</style>
<g>
	<path class="st21" d="M13.4,70c-0.9-5.9-2.6-10-7.7-12.5C7.3,51.8,4.2,47.2,0.5,43c3.5-4.6,5.1-9.3,3.4-14.7
		c5-3.1,7.6-7.7,8.3-13.6c5.9-1.2,10.4-4.1,13.1-9.3c5.5,1.3,10.4,1.4,14.7-2.5c4.5,3.4,9.8,2.4,15.3,0.4c2.9,4.9,5.9,8.7,11.8,9.1
		c0.9,5.9,3.5,9.6,8.6,12.1C74,30.2,77.8,34.8,81.5,39C78,43.6,76.2,49.1,78,54.5c-5,3.1-7.8,9.4-7.3,14.4
		c-5.9-0.4-12.5,1.9-15.1,7.1c-5.5-1.3-9.9-0.9-14.2,3c-4.5-3.4-8.9-3.9-14.4-1.9C24.1,72.3,19.3,70.4,13.4,70z"/>
	<ellipse transform="matrix(0.6787 -0.7344 0.7344 0.6787 -16.8081 43.2431)" class="st22" cx="41" cy="40.8" rx="32.3" ry="32.1"/>
	<path class="st23" d="M72.7,35.5l-15.2,5.6l0.9-1.9l-19,2.4l0.7-2.5l-12.7,3.3L28,39L8.7,42.6c0,0,1.5,7.8,2.3,10.3
		c0.8,2.5,4.9,8.7,5.2,8.7c0.1,0,7.4-2.4,7.4-2.4l0.4,1.7l7.2-2.7L30.3,62l20.8-4.1l-0.9,2.3c0,0,18-2.1,18.1-2.1
		c0.3,0.1,5-8,4.8-17.2"/>
	<g>
		<polygon class="st24" points="54.8,69.4 55.3,75.5 52,70.3 		"/>
	</g>
	<g>
		<polygon class="st24" points="43.3,72.9 41.3,77.3 40.3,72.6 		"/>
	</g>
	<g>
		<polygon class="st24" points="31.6,71.4 27.7,75.4 29,69.9 		"/>
	</g>
	<g>
		<polygon class="st24" points="20.1,65.7 14.2,68.8 18.1,63.4 		"/>
	</g>
	<g>
		<polygon class="st24" points="11.9,56.1 6.7,56.4 10.8,53.3 		"/>
	</g>
	<g>
		<polygon class="st24" points="8.7,43.7 2.7,42.9 8.3,40.7 		"/>
	</g>
	<g>
		<polygon class="st24" points="9.8,32.2 5.8,29.1 10.9,29.4 		"/>
	</g>
	<g>
		<polygon class="st24" points="15.7,20.6 12.2,14.7 17.9,18.5 		"/>
	</g>
	<g>
		<polygon class="st24" points="26.9,12.3 25.7,6.6 29.6,10.9 		"/>
	</g>
	<g>
		<polygon class="st24" points="39.2,9 39.9,2.9 42.1,8.7 		"/>
	</g>
	<g>
		<path class="st24" d="M51.5,9.6c-0.1,0.1-0.1,0.1-0.1,0.2l0,0.1c0,0,0,0,0,0l0,0C51.5,9.8,51.5,9.8,51.5,9.6l0.3-0.3l0.5-0.8
			l1-1.7l1.9-3.4l-0.5,3.9l-0.3,2l-0.2,1l-0.1,0.5L54.1,11l0,0.1l0,0l0,0.1c-0.1,0.1-0.2,0.3-0.2,0.4L51.5,9.6z"/>
	</g>
	<g>
		<polygon class="st24" points="61.5,15.6 66.3,13.1 63.5,17.7 		"/>
	</g>
	<g>
		<polygon class="st24" points="69.8,25 75.6,24.6 70.8,27.8 		"/>
	</g>
	<g>
		<polygon class="st24" points="73.2,37.9 80,39 73.4,40.9 		"/>
	</g>
	<g>
		<polygon class="st24" points="71.4,50.5 76.3,54 70.4,53.4 		"/>
	</g>
	<g>
		<path class="st24" d="M65.7,61.6c0.6,1.1,1.2,2.2,1.8,3.3l0.9,1.6l0.5,0.8c0.2,0.2,0.3,0.6,0.6,0.7c-0.2,0.1-0.3-0.1-0.4-0.2
			l-0.4-0.3l-0.8-0.6l-1.5-1.2c-1-0.8-2-1.6-3-2.4L65.7,61.6z"/>
	</g>
	<path class="st25" d="M23.6,29.7l-0.9,8.1l-1.6,0.5v-1.6c-0.8,0.5-1.8,0.9-2.7,1c-1.5,0.2-2.6-0.9-3-2.1c-0.7-2.2,0-5.1,1.3-7
		c0.7-1,1.6-1.8,2.7-2.4c0.9-0.4,2.2-0.8,3.1-0.6l-0.7,3.5c0,0-1.2-0.2-2.3,0.6c0,0-2.1,1.2-2,4.8c0.1,1.2,1.6,1.9,3.5,0.2v-2.1
		l-2.2,0.5l0.3-1.7L23.6,29.7z"/>
	<path class="st25" d="M30.5,36.6c-3,0.6-5.5-1.3-5.7-4.3c-0.1-3,2.2-5.9,5.2-6.5c3-0.6,5.5,1.3,5.6,4.3
		C35.7,33.1,33.4,36,30.5,36.6z M33.4,31c-0.1-1.8-1.6-3.1-3.3-2.7s-3.1,2.2-3,4c0.1,1.8,1.5,3.1,3.3,2.7
		C32.1,34.7,33.4,32.9,33.4,31z"/>
	<path class="st25" d="M44.5,33.1c0,0-0.9,2.9-6.5,3.6l-0.7-7.1l-0.5,0.2l-0.5-3.2c0.9-0.5,2.8-1.2,3.3-1.3c1.5-0.5,3.4-1,4.8-0.7
		c0.7,0.1,1.5,1.4,0.4,4c0,0-0.4,1.2-1.6,2.4c0,0,0.9-0.2,1.5,0.3C44.9,31.3,44.9,32.1,44.5,33.1z M42.1,32.7c0-1-2.5,0.2-2.5,0.2
		l-0.1,1.7C42.3,33.8,42.1,32.7,42.1,32.7z M39.8,27.7l-0.1,3.2c2.5-0.9,2.6-3,2.6-3C42.4,26.4,39.8,27.7,39.8,27.7z"/>
	<path class="st25" d="M46.9,24.4l2.6-0.7l-0.5,9.1l3.3-1.2l-0.1,1.7l-4.8,2.5L46.9,24.4z"/>
	<path class="st25" d="M54.1,34.9l-0.6-11.1l2.9-0.8l-0.6,11.3L54.1,34.9z"/>
	<path class="st25" d="M58.3,26.5l3-0.7l1.8,6.7L62.7,25l3-0.5l-1,10.8l-1.7,0.4L61,32l0.1,4.5L59.4,37L58.3,26.5z"/>
	<path class="st26" d="M26.6,47l-3.3,10.3L21.1,58l0.4-2c-1.2,0.7-2.5,1.1-3.8,1.3c-1.9,0.2-3-1.1-3.2-2.7c-0.3-2.8,1.3-6.4,3.5-8.9
		c1.1-1.3,2.5-2.3,4.1-3c1.2-0.5,3-1,4.1-0.8l-1.8,4.5c0,0-1.4-0.2-3.1,0.8c0,0-3,1.5-3.8,6.1c-0.2,1.5,1.5,2.5,4.4,0.2l0.6-2.7
		l-3,0.7l0.9-2.2L26.6,47z"/>
	<path class="st26" d="M38.1,51.9L37,53.7L29,54l-0.9,3.4l-2,0.4l0.9-8.8l-0.7,0.3l0.1-4.2c3.1-1.3,11.2-4.8,11.8-1.6
		c0,0,0.5,2.5-3.2,6.1c0,0-0.8,0.7-2,1.6L38.1,51.9z M30.7,46.3l-1,4.4c3.3-1.6,4.2-4,4.2-4C34.7,44.6,30.7,46.3,30.7,46.3z"/>
	<path class="st26" d="M42.3,53.5l-4.8,2.2l-1.1,2.2l-1.7,0.3l4.8-13.9l6.4-2.2l-1.3,14.3l-2,0.9L42.3,53.5z M42.3,51.1L42,46.4
		l-2.8,5.8L42.3,51.1z"/>
	<path class="st26" d="M54.4,49.4c0,0-2.5,2.3-5.9,3.9l-1,4l-2,0.4l0.9-8.8l-0.7,0.3l0.1-4.2c3.2-1.3,10.9-4.7,11.8-1.6
		C57.5,43.4,58,45.9,54.4,49.4z M50.1,46.3l-1,4.4c3.3-1.6,4.2-4,4.2-4C54.1,44.6,50.1,46.3,50.1,46.3z"/>
	<path class="st26" d="M59.7,46.7L59,49.8l4.8-1.2l-0.8,2l-4.6,2.1l-0.4,1.6l4.5-1.4l-0.7,2l-6.6,3.1l1.6-14.1c0,0,9.8-2.1,9.8-2
		c0,0.1-1.3,3-1.3,3L59.7,46.7z"/>
	<path class="st24" d="M40.8,73.5c-8.2,0-16-3-22-8.6C5.6,52.7,4.8,32,17.1,18.7c12.3-13.3,33-14.2,46.1-2
		c6.4,5.9,10.1,14,10.4,22.7c0.3,8.7-2.8,17.1-8.7,23.5c-5.9,6.4-14,10.2-22.7,10.5C41.7,73.5,41.2,73.5,40.8,73.5z M41.2,9.2
		c-8.6,0-17.1,3.4-23.4,10.2C6,32.3,6.7,52.4,19.5,64.2l0,0c6.2,5.7,14.2,8.7,22.7,8.3c8.4-0.4,16.3-4,22-10.2
		c5.8-6.2,8.8-14.3,8.5-22.8c-0.3-8.5-3.9-16.3-10.1-22C56.5,11.9,48.9,9.2,41.2,9.2z"/>
</g>
</svg>
