<?xml version="1.0" encoding="utf-8"?>
<!-- Generator: Adobe Illustrator 22.1.0, SVG Export Plug-In . SVG Version: 6.00 Build 0)  -->
<svg version="1.1" xmlns="http://www.w3.org/2000/svg" xmlns:xlink="http://www.w3.org/1999/xlink" x="0px" y="0px"
	 viewBox="0 0 231 112" style="enable-background:new 0 0 231 112;" xml:space="preserve" width="231" height="112" preserveAspectRatio="none">
<style type="text/css">
	.st0{fill:#E3CFB8;}
	.st1{fill:#B0A08F;}
	.st2{fill:#A32B9F;}
	.st3{fill:#006837;}
	.st4{fill:#008C4A;}
	.st5{fill:#8CC63F;}
	.st6{fill:#B54D4D;}
	.st7{fill:#DE5F5F;stroke:#FF948A;stroke-width:1.5;stroke-miterlimit:10;}
	.st8{fill:#FF948A;}
	.st9{fill:#FFFFFF;}
	.st10{fill:#3760B3;stroke:#FFFFFF;stroke-width:0.5;stroke-miterlimit:10;}
	.st11{fill:#ED914B;}
	.st12{fill:#FFAF4F;stroke:#FFC87A;stroke-width:1.5;stroke-miterlimit:10;}
	.st13{fill:#FFC87A;}
	.st14{fill:#284F8F;}
	.st15{fill:#664BED;}
	.st16{fill:#7960F7;}
	.st17{fill:#25CF25;stroke:#157515;stroke-width:0.5;stroke-miterlimit:10;}
	.st18{fill:#BC94FF;}
	.st19{fill:#25CF25;}
	.st20{fill:#4A2EFF;stroke:#FFFFFF;stroke-width:0.5;stroke-miterlimit:10;}
	.st21{fill:#E6D414;}
	.st22{fill:#FFEC59;}
	.st23{fill:#FFFE9E;}
	.st24{fill:#A0B8B6;}
	.st25{fill:#DEFFFC;}
	.st26{fill:#7C8F8D;}
	.st27{fill:#108BDE;}
	.st28{fill:#0071BC;}
	.st29{fill:#F2F2F2;}
	.st30{fill:#25221D;}
	.st31{fill:#FCEE21;}
	.st32{fill:#D9CD20;}
	.st33{fill:#6BD643;}
	.st34{fill:#39B54A;}
	.st35{fill:#FF6B6B;}
	.st36{fill:#FF0000;}
	.st37{fill:#662D91;}
	.st38{fill:#FBB03B;}
	.st39{fill:#F7931E;}
	.st40{fill:#A8CDE3;}
	.st41{fill:#DEDEDE;}
	.st42{fill:#0000FF;}
	.st43{fill:#4073FF;}
	.st44{fill:#C92F2F;}
	.st45{fill:#D96161;}
	.st46{fill:#009650;}
	.st47{fill:#26BD49;}
	.st48{fill:#1DC44D;}
	.st49{fill:#17A157;}
	.st50{fill:#22E65A;}
	.st51{fill:#FF82FF;}
	.st52{fill:#E05CE0;}
	.st53{fill:#FFA1FF;}
	.st54{fill:#F15A24;}
	.st55{fill:#F18C68;}
	.st56{fill:#CC2614;}
	.st57{fill:#56F1F7;}
	.st58{fill:#3EC7C7;}
	.st59{fill:#3FC6CC;}
	.st60{fill:#D6FFF6;}
	.st61{fill:none;stroke:#A0B8B6;stroke-width:3;stroke-linecap:round;stroke-miterlimit:10;}
	.st62{fill:none;stroke:#000000;stroke-width:4.8176;stroke-miterlimit:10;}
	.st63{fill:#E6E6E6;}
	.st64{fill:none;stroke:#808080;stroke-width:1.379;stroke-miterlimit:10;}
	.st65{fill:#D4145A;}
	.st66{fill:#FF7BAC;}
	.st67{fill:none;stroke:#FF7BAC;stroke-width:2.3437;stroke-miterlimit:10;}
	.st68{fill:#2480BC;}
	.st69{fill:#E3D50C;}
	.st70{fill:#008747;}
	.st71{fill:#A81919;}
	.st72{fill:#D45757;}
	.st73{fill:#009C52;}
	.st74{fill:#00C266;}
	.st75{fill:#FF9670;}
	.st76{fill:#EDDF13;}
	.st77{fill:#EDE79C;}
	.st78{fill:#A85414;}
	.st79{fill:#913D3D;}
	.st80{fill:#612929;}
	.st81{fill:#69D669;}
	.st82{fill:#D4BB1C;}
	.st83{fill:#FCF590;}
	.st84{fill:#4AB04A;}
	.st85{fill:#C2644C;}
	.st86{fill:#E87041;}
	.st87{fill:#A14F3F;}
	.st88{fill:#384A82;}
	.st89{fill:#4C68C2;}
	.st90{fill:#243054;}
	.st91{fill:none;}
	.st92{fill:#985EC4;}
	.st93{fill:#57B342;}
	.st94{fill:#77DB60;}
	.st95{fill:#4692E3;}
	.st96{fill:#7ABAFF;}
	.st97{fill:none;stroke:#4692E3;stroke-width:3.5969;stroke-miterlimit:10;}
	.st98{fill:none;stroke:#FFA6FF;stroke-miterlimit:10;}
	.st99{fill:none;stroke:#7DA6FF;stroke-width:0.5;stroke-miterlimit:10;}
	.st100{fill:#BDE7FF;}
	.st101{fill:#F8FFAD;}
	.st102{fill:#91C0C7;}
	.st103{fill:none;stroke:#B3B3B3;stroke-width:3;stroke-miterlimit:10;}
	.st104{fill:none;stroke:#6197A8;stroke-width:1.5;stroke-miterlimit:10;}
	.st105{fill:#B1E8F5;}
	.st106{fill:#CFB36E;}
	.st107{fill:none;stroke:#9E805D;stroke-width:1.5;stroke-miterlimit:10;}
	.st108{fill:#E8D190;}
	.st109{fill:none;stroke:#7288A1;stroke-width:1.4358;stroke-miterlimit:10;}
	.st110{fill:#C9E1FF;}
	.st111{fill:none;stroke:#B3B3B3;stroke-width:2.8278;stroke-miterlimit:10;}
	.st112{fill:#3295D9;}
	.st113{fill:none;stroke:#0061A1;stroke-width:1.4139;stroke-miterlimit:10;}
	.st114{fill:#56B4F0;}
	.st115{fill:#63C261;}
	.st116{fill:none;stroke:#2A8737;stroke-width:1.3456;stroke-miterlimit:10;}
	.st117{fill:#77E86F;}
	.st118{fill:#DE6868;}
	.st119{fill:none;stroke:#B54D4D;stroke-width:1.3666;stroke-miterlimit:10;}
	.st120{fill:#C9FFC2;}
	.st121{fill:none;stroke:#000000;stroke-miterlimit:10;}
	.st122{fill:none;stroke:#000000;stroke-width:0.7528;stroke-miterlimit:10;}
	.st123{fill:#FFD4D4;}
	.st124{fill:#9CFFFF;}
	.st125{fill:#E3CAA6;}
	.st126{fill:#FFDE85;enable-background:new    ;}
	.st127{fill:#DE5454;}
	.st128{fill:#FF9999;}
	.st129{fill:#0062A3;}
	.st130{fill:#0081D6;}
	.st131{fill:#21A7FF;}
	.st132{fill:#00A35A;}
	.st133{fill:#008247;}
	.st134{fill:#00BA67;}
	.st135{fill:#00DB79;}
	.st136{fill:#787878;}
	.st137{fill:#9BADB8;}
	.st138{fill:#CCCCCC;}
	.st139{fill:none;stroke:#787878;stroke-width:0.25;stroke-miterlimit:10;}
	.st140{fill:#C6AD6D;}
	.st141{fill:#87714A;}
	.st142{fill:#FFE49E;}
	.st143{fill:#71CF89;}
	.st144{fill:#00A151;}
	.st145{fill:#3A3D38;}
	.st146{fill:#40CF88;}
	.st147{fill:#68A649;}
	.st148{fill:#98E3AB;}
	.st149{fill:#FFF08C;}
	.st150{fill:#FFDB3B;}
	.st151{fill:#FFF591;}
	.st152{fill:#FFFBCC;}
	.st153{fill:#B783DE;}
	.st154{fill:#A01FF0;}
	.st155{fill:#C261FF;}
	.st156{fill:#CA97F0;}
	.st157{fill:#25C495;}
	.st158{fill:#47DEB2;}
	.st159{fill:#1A8A68;}
	.st160{fill:#BDBDBD;}
	.st161{fill:#00AED9;}
	.st162{fill:#00CCFF;}
	.st163{fill:#0078A8;}
	.st164{fill:#525252;}
	.st165{fill:#0025A1;}
	.st166{fill:#0059FF;}
	.st167{fill:#6BA9FF;}
	.st168{fill:#707D85;}
	.st169{fill:#B8CCD9;}
	.st170{fill:#A67043;}
	.st171{fill:#D49C6C;}
	.st172{fill:#3C4347;}
	.st173{fill:#009245;}
	.st174{fill:#C1272D;}
	.st175{fill:#FFFBBD;}
	.st176{fill:#FF4D53;}
	.st177{fill:#FFA3C5;}
	.st178{fill:#333333;}
	.st179{fill:#D47B9B;}
	.st180{fill:#E8A2BC;}
	.st181{fill:#B35274;}
	.st182{fill:#FF8A40;}
	.st183{fill:#04C9C9;}
	.st184{fill:#5BFFFF;}
	.st185{fill:#912963;}
	.st186{fill:#C75092;}
	.st187{fill:#E3DDD1;}
	.st188{fill:#BDB5A4;}
</style>
<g id="Layer_2">
</g>
<g id="Layer_1">
	<g>
		<path class="st177" d="M212.7,111.2H19.8c-9.8,0-17.8-8-17.8-17.8V18.7c0-9.8,8-17.8,17.8-17.8h192.9c9.8,0,17.8,8,17.8,17.8v74.7
			C230.5,103.2,222.5,111.2,212.7,111.2z"/>
		<g>
			<path class="st178" d="M39.2,52.4l5.4-8c-1.2,0-2.5,0.2-3.8,0.5s-2.5,0.6-3.5,1s-1.8,0.7-2.6,1s-1.3,0.5-1.6,0.7
				c-0.1,0-0.2,0-0.2-0.1s-0.1-0.1-0.1-0.2c0-0.1,0.3-0.7,0.8-1.7s1.2-2.2,1.9-3.4c4.1-1.5,7.7-2.2,10.9-2.2c3.6,0,6.2,0.8,7.6,2.3
				c0.5,0.5,0.9,1.2,1.2,2s0.4,1.6,0.4,2.3c0,1.8-0.4,3.4-1.1,4.8s-1.8,2.7-3.1,3.7s-3,1.9-4.8,2.4s-3.9,0.8-6,0.8
				c-0.4,0-1.2-0.1-2.4-0.2L36.4,61c0.2,0.2,0.2,0.4,0.2,0.6c0,0.4-0.1,0.7-0.2,0.9c-0.2,0.4-0.5,0.8-0.9,1.4s-0.6,1-0.8,1.1
				s-0.3,0.4-0.5,0.5s-0.3,0.2-0.5,0.2c-0.3,0-0.6-0.1-0.7-0.3S33,65,33,64.6c0-0.5,0.3-1.3,0.8-2.5s1.3-2.6,2.3-4.5
				c-0.6-0.2-1-0.5-1.3-0.8s-0.5-0.7-0.5-1c0-0.7,0.4-1.4,1.2-2S37.6,52.8,39.2,52.4z M41.1,52.9l-1,1.7c0.4,0,0.8,0,1.2,0.1
				s0.6,0,0.9,0c2.1,0,3.8-0.3,5.3-0.8s2.7-1.2,3.6-2s1.5-1.6,1.9-2.5s0.6-1.5,0.6-2.1c0-0.8-0.3-1.4-0.9-1.8s-1.5-0.7-2.6-0.9
				s-2.6-0.2-4.4-0.2c0,0.1,0,0.3,0,0.5c0,0.6-0.3,1.4-1,2.4L41.6,52l2.3-0.3c0.2,0,0.3,0.1,0.3,0.3c0,0.2-0.2,0.3-0.5,0.3
				L41.1,52.9z"/>
			<path class="st178" d="M63.1,57.3v1.3c-1.1,1.5-2.2,2.6-3.2,3.3S58.1,63,57.4,63c-1,0-1.7-0.5-2.1-1.5s-0.7-2.1-0.7-3.3
				c0-0.5,0-0.9,0.1-1.3s0.2-0.8,0.3-1s0.4-0.7,0.7-1.3c1.7-2.6,3.2-3.9,4.6-3.9c0.7,0,1.1,0.3,1.1,0.8c0,0.4-0.2,1-0.7,1.8
				s-0.9,1.4-1.2,1.7c-1,1-1.7,1.7-2,2.1S57,57.9,57,58.4c0,0.4,0.2,0.8,0.5,1.1s0.7,0.4,1.2,0.4c0.6,0,1.2-0.2,1.8-0.6
				S62,58.2,63.1,57.3z M61.9,49.4c-0.3,0-0.6-0.1-0.8-0.3s-0.4-0.5-0.4-0.8c0-0.5,0.2-1.1,0.7-1.7s1-0.9,1.5-0.9
				c0.4,0,0.6,0.1,0.9,0.3s0.4,0.5,0.4,0.9c0,0.5-0.2,1.1-0.7,1.7S62.4,49.4,61.9,49.4z"/>
			<path class="st178" d="M74.8,54.1c-2.1,2.3-3.1,3.9-3.1,4.8c0,0.5,0.2,0.8,0.6,0.8c0.3,0,0.8-0.2,1.3-0.5s1.4-1,2.6-1.9v1.2
				c-1.7,1.6-2.9,2.8-3.8,3.6s-1.6,1.1-2.2,1.1c-1,0-1.4-0.6-1.4-1.9c0-0.4,0.1-0.7,0.2-1.1s0.3-0.7,0.5-1.1s0.5-1,0.9-1.7
				s0.9-1.6,1.5-2.5c-0.7,0.3-1.5,1-2.5,2c-0.7,0.6-1.2,1.2-1.7,1.8s-0.9,1.2-1.5,1.9s-0.9,1.2-1.1,1.4s-0.5,0.4-0.7,0.4
				c-0.4,0-0.7-0.4-1-1.2s-0.5-1.7-0.5-2.7c0-0.6,0.1-1.1,0.2-1.5s0.4-0.9,0.9-1.5c0.8-1.2,1.5-2.2,2.1-2.7s1.1-0.9,1.7-0.9
				c0.4,0,0.7,0.1,0.9,0.2s0.3,0.3,0.3,0.6c0,0.1,0,0.2-0.1,0.4s-0.1,0.2-0.2,0.4s-0.3,0.3-0.6,0.6c-1.9,2.1-2.8,3.4-2.8,4
				c0,0.3,0.1,0.5,0.3,0.5c0.1,0,0.4-0.2,0.8-0.7s0.9-1,1.6-1.8s1.4-1.5,2.3-2.3s1.9-1.6,3-2.3c0.6-0.4,1.1-0.7,1.5-0.7
				c0.2,0,0.4,0.3,0.6,0.8s0.3,1,0.3,1.6C75.5,53.2,75.3,53.6,74.8,54.1z"/>
			<path class="st178" d="M89.3,57.3v1.2C88,60,86.9,61.2,86,62s-1.6,1.2-2.2,1.2c-0.6,0-1.1-0.2-1.6-0.5s-0.9-0.8-1.2-1.4
				s-0.8-1.4-1.3-2.5c-0.6,0.7-1.1,1.4-1.6,2.1s-0.8,1.1-1,1.3s-0.4,0.3-0.5,0.3c-0.3,0-0.5-0.2-0.7-0.6s-0.2-1-0.2-1.8
				c0-1.1,0.1-2.1,0.4-3s0.6-1.9,1.1-2.9s1.1-1.9,1.8-3s1.6-2.2,2.5-3.4c1.3-1.6,2.4-2.9,3.3-4s1.7-1.8,2.4-2.3s1.3-0.8,1.7-0.8
				c0.6,0,0.8,0.3,0.8,0.8c0,0.4-1,2-3.1,4.7s-5.1,6.4-9.1,11v1.5c2.7-2.8,4.8-5,6.4-6.3s2.9-2.1,3.8-2.1c0.4,0,0.6,0.2,0.8,0.6
				s0.3,0.9,0.3,1.5c0,1.1-0.5,2.2-1.5,3.2s-2.5,2.1-4.5,3.4c0.4,0.5,0.7,0.9,0.9,1.2s0.6,0.4,1,0.4c0.4,0,0.8-0.1,1.2-0.4
				s0.9-0.6,1.3-0.9S88.4,58.1,89.3,57.3z M82.4,58.2c0.4-0.3,1-0.7,1.7-1.4s1.2-1.3,1.7-1.9s0.7-1.2,0.7-1.7c0-0.2-0.1-0.3-0.2-0.3
				c-0.4,0-1.2,0.4-2.3,1.3s-2.1,2-3.2,3.3C81.2,57.5,81.7,57.8,82.4,58.2z"/>
			<path class="st178" d="M117.5,57.7c-0.3-0.5-0.7-1-1.3-1.5s-1.2-0.8-2-1s-1.5-0.5-2.3-0.6c-2.4-0.4-4.6-1.1-6.6-2.3
				c-0.2-0.1-0.4-0.3-0.6-0.6s-0.3-0.6-0.3-0.9c0-1,0.2-2.1,0.5-3.1s0.8-1.8,1.3-2.4c0.9-1,2.4-1.8,4.7-2.5s4.8-1.1,7.6-1.1
				c1.7,0,3,0.1,3.9,0.4s1.4,0.7,1.4,1.2c0,0.9-0.1,1.6-0.4,2s-0.5,0.8-0.8,1s-0.8,0.4-1.5,0.6c-0.7,0.3-1.4,0.5-1.9,0.8
				s-1,0.6-1.4,0.8s-0.6,0.4-0.7,0.4c-0.1,0-0.2,0-0.2-0.1c0-0.2,0.2-0.5,0.6-0.9s0.9-0.8,1.5-1.1c0.6-0.3,1-0.6,1-0.7
				c0-0.2-0.4-0.2-1.1-0.2c-2.2,0-4.2,0.2-6,0.6s-3.3,0.9-4.4,1.5s-1.6,1.3-1.6,1.9c0,0.4,0.2,0.7,0.7,0.9s1.4,0.5,2.9,0.9
				s2.8,0.9,4,1.4c1.7,0.7,3,1.5,3.8,2.3s1.2,1.7,1.2,2.6c0,0.7-0.2,1.3-0.5,2s-0.8,1.3-1.4,1.9s-1.3,1-2.1,1.4
				c-0.7,0.3-1.6,0.6-2.6,0.8s-2.2,0.5-3.4,0.6s-2.4,0.2-3.5,0.2c-2.1,0-3.7-0.2-4.9-0.6s-1.9-1-1.9-1.8c0-0.4,0.2-0.9,0.6-1.6
				s0.9-1.2,1.5-1.5c0.5-0.2,1-0.3,1.5-0.3s0.7,0,0.7,0.2c0,0,0,0.1-0.1,0.1s-0.1,0.1-0.1,0.1s-0.1,0-0.1,0.1
				c-0.2,0.1-0.4,0.2-0.6,0.2s-0.3,0.1-0.4,0.2s-0.1,0.1-0.1,0.2c0,0.2,1.2,0.4,3.6,0.4c2.1,0,3.8-0.1,5.2-0.2s2.5-0.4,3.6-0.8
				S116.7,58.5,117.5,57.7z"/>
			<path class="st178" d="M135.4,50.9c0,0.3-0.1,0.6-0.2,0.8c0.1,0.1,0.1,0.2,0.3,0.4s0.2,0.4,0.3,0.5s0.1,0.3,0.1,0.4
				c0,0.2-0.1,0.5-0.4,1s-0.8,1.3-1.5,2.3s-1.5,2.2-2.2,3.2l0.8,0.5c1.4-0.9,2.6-1.9,3.7-2.9v1.3c-0.9,1.1-1.9,2.1-2.8,3
				c0.1,0.5,0.1,0.8,0.1,0.9c0,1.2-0.6,2.5-1.7,4s-2.4,2.8-3.8,4s-2.4,1.7-2.9,1.7c-0.9,0-1.3-0.8-1.3-2.3c0-0.5,0.3-1.3,1-2.4
				s1.6-2.6,2.9-4.4s2.8-4,4.7-6.6c-2.3,2.2-3.7,3.7-4.3,4.2s-1.1,1-1.7,1.4s-1.1,0.6-1.5,0.6s-0.9-0.3-1.2-0.8s-0.7-1.1-0.9-1.8
				s-0.3-1.3-0.3-1.8c0-0.6,0.1-1.1,0.2-1.5s0.4-0.9,0.9-1.4c1-1.2,2.1-2.2,3.5-3.1s2.7-1.5,4-1.9s2.5-0.6,3.5-0.6
				C135,49.6,135.4,50.1,135.4,50.9z M125,59.6c0.5,0,1.1-0.2,1.8-0.6s1.5-1,2.3-1.7c1-0.9,1.9-1.8,2.7-2.6s1.3-1.4,1.7-1.9
				s0.6-0.7,0.6-0.8c0-0.1,0-0.2-0.1-0.2c-0.4,0-1.1,0.2-2.3,0.7s-2.4,1.1-3.6,1.9s-2.1,1.5-2.8,2.2c-0.2,0.3-0.5,0.7-0.6,1.3
				s-0.3,0.9-0.3,1.1C124.4,59.4,124.6,59.6,125,59.6z M130.1,61.9c-0.8,1.2-1.7,2.6-2.5,4.2s-1.2,2.5-1.2,2.7
				c0,0.2,0.1,0.2,0.3,0.2s0.4-0.1,0.8-0.3c0.8-0.3,1.6-1.1,2.6-2.4c0.7-0.9,1.1-1.6,1.3-2.2s0.3-1.2,0.4-1.9
				C131.1,62.3,130.5,62.2,130.1,61.9z"/>
			<path class="st178" d="M144.3,56.1c-1.7,2.2-3,3.8-3.9,4.8s-1.6,1.4-2.2,1.4c-0.4,0-0.9-0.2-1.2-0.6s-0.7-0.9-0.9-1.5
				s-0.3-1.3-0.3-2c0-0.5,0-0.9,0.1-1.3s0.3-0.8,0.5-1.2s0.6-0.9,1-1.5s0.9-1.1,1.5-1.8c0.4-0.4,0.6-0.8,0.9-1s0.5-0.5,0.7-0.6
				s0.6-0.1,1.1-0.1c0.4,0,0.7,0,1.1,0.1s0.5,0.2,0.5,0.3c0,0.2-0.2,0.6-0.5,1.1s-0.9,1.2-1.7,2s-1.7,1.6-2.7,2.3
				c-0.2,0.7-0.3,1.2-0.3,1.6c0,0.5,0.2,0.8,0.6,0.8c0.1,0,0.4-0.1,0.7-0.4s0.9-0.7,1.7-1.4s1.5-1.3,2.1-1.8c0.5-0.4,1-1,1.6-1.8
				s1.1-1.4,1.5-1.8c0.9-0.9,1.5-1.5,1.8-1.8s0.6-0.4,0.9-0.4c0.3,0,0.5,0.1,0.6,0.3s0.1,0.5,0.1,1.1c0,0.2,0,0.4-0.1,0.6
				s-0.1,0.3-0.3,0.6s-0.4,0.7-0.9,1.3s-1,1.4-1.6,2.3c-0.3,0.5-0.6,1-0.9,1.5s-0.4,1-0.4,1.3c0,0.6,0.2,0.9,0.7,0.9
				c0.4,0,0.9-0.2,1.4-0.5s1.3-0.9,2.4-1.8v1.2c-1.4,1.3-2.4,2.2-3,2.8s-1.2,1-1.7,1.3s-0.9,0.4-1.4,0.4c-1,0-1.5-0.6-1.5-1.8
				c0-0.4,0.1-1,0.4-1.8S143.7,57.5,144.3,56.1z"/>
			<path class="st178" d="M158.3,57.3v1.3c-1.1,1.5-2.2,2.6-3.2,3.3s-1.8,1.1-2.5,1.1c-1,0-1.7-0.5-2.1-1.5s-0.7-2.1-0.7-3.3
				c0-0.5,0-0.9,0.1-1.3s0.2-0.8,0.3-1s0.4-0.7,0.7-1.3c1.7-2.6,3.2-3.9,4.6-3.9c0.7,0,1.1,0.3,1.1,0.8c0,0.4-0.2,1-0.7,1.8
				s-0.9,1.4-1.2,1.7c-1,1-1.7,1.7-2,2.1s-0.5,0.8-0.5,1.3c0,0.4,0.2,0.8,0.5,1.1s0.7,0.4,1.2,0.4c0.6,0,1.2-0.2,1.8-0.6
				S157.3,58.2,158.3,57.3z M157.1,49.4c-0.3,0-0.6-0.1-0.8-0.3s-0.4-0.5-0.4-0.8c0-0.5,0.2-1.1,0.7-1.7s1-0.9,1.5-0.9
				c0.4,0,0.6,0.1,0.9,0.3s0.4,0.5,0.4,0.9c0,0.5-0.2,1.1-0.7,1.7S157.7,49.4,157.1,49.4z"/>
			<path class="st178" d="M158,58.6v-1.1c0.6-0.8,1.1-1.4,1.4-1.9c-0.4-0.1-0.6-0.3-0.8-0.5s-0.3-0.5-0.3-0.8c0-0.4,0.2-1,0.5-1.6
				s0.8-1.2,1.3-1.8s1-0.9,1.4-1.1c0.2-0.1,0.3-0.1,0.5-0.1c0.2,0,0.4,0.1,0.4,0.3c0,0.2-0.2,0.6-0.5,1.2c2.4-0.4,3.9-0.6,4.6-0.6
				c0.2,0,0.4,0,0.5,0.1c0.2,0.1,0.4,0.4,0.5,0.7s0.2,0.8,0.2,1.2c0,0.2-0.1,0.5-0.3,0.8s-0.6,0.7-1.1,1.3c-0.6,0.7-1.1,1.4-1.6,2.2
				s-0.6,1.4-0.6,1.8c0,0.6,0.3,0.8,1,0.8c0.7,0,2-0.7,3.7-2.2v1.2c-1,1-1.8,1.8-2.4,2.4s-1.2,1.1-1.8,1.4s-1,0.5-1.4,0.5
				c-0.5,0-0.9-0.2-1.2-0.7s-0.5-1.1-0.5-2c0-0.5,0.1-1.1,0.4-1.7s0.6-1.3,1.1-2.1s1.1-1.5,1.7-2.3c-0.3,0.1-0.7,0.1-1.1,0.2
				s-0.8,0.2-1.3,0.2s-0.8,0.1-1.1,0.2C160.4,56.1,159.4,57.5,158,58.6z"/>
			<path class="st178" d="M168.5,58.6v-1.1c0.6-0.8,1.1-1.4,1.4-1.9c-0.4-0.1-0.6-0.3-0.8-0.5s-0.3-0.5-0.3-0.8c0-0.4,0.2-1,0.5-1.6
				s0.8-1.2,1.3-1.8s1-0.9,1.4-1.1c0.2-0.1,0.3-0.1,0.5-0.1c0.2,0,0.4,0.1,0.4,0.3c0,0.2-0.2,0.6-0.5,1.2c2.4-0.4,3.9-0.6,4.6-0.6
				c0.2,0,0.4,0,0.5,0.1c0.2,0.1,0.4,0.4,0.5,0.7s0.2,0.8,0.2,1.2c0,0.2-0.1,0.5-0.3,0.8s-0.6,0.7-1.1,1.3c-0.6,0.7-1.1,1.4-1.6,2.2
				s-0.6,1.4-0.6,1.8c0,0.6,0.3,0.8,1,0.8c0.7,0,2-0.7,3.7-2.2v1.2c-1,1-1.8,1.8-2.4,2.4s-1.2,1.1-1.8,1.4s-1,0.5-1.4,0.5
				c-0.5,0-0.9-0.2-1.2-0.7s-0.5-1.1-0.5-2c0-0.5,0.1-1.1,0.4-1.7s0.6-1.3,1.1-2.1s1.1-1.5,1.7-2.3c-0.3,0.1-0.7,0.1-1.1,0.2
				s-0.8,0.2-1.3,0.2s-0.8,0.1-1.1,0.2C170.9,56.1,169.9,57.5,168.5,58.6z"/>
			<path class="st178" d="M182,57.9v0.4c0,0.7,0.2,1.2,0.5,1.6s0.8,0.6,1.3,0.6c0.6,0,1.2-0.1,1.8-0.4s1.2-0.6,1.8-1.1
				s1.4-1,2.2-1.8v1.1c-1.3,1.6-2.6,2.8-3.7,3.7s-2.3,1.3-3.5,1.3c-1,0-1.9-0.4-2.5-1.2s-0.9-1.9-0.9-3.3c0-1.2,0.3-2.3,0.9-3.3
				s1.5-2.1,2.8-3.2c0.9-0.8,1.8-1.3,2.7-1.7s1.7-0.6,2.4-0.6c0.6,0,1,0.1,1.3,0.4s0.5,0.6,0.5,1.1c0,0.7-0.3,1.5-0.8,2.2
				s-1.4,1.5-2.5,2.2S183.7,57.3,182,57.9z M182.2,56.8c1.1-0.4,2-0.9,2.7-1.5s1.3-1.2,1.7-1.7s0.5-1,0.5-1.2c0-0.3-0.1-0.4-0.4-0.4
				c-0.2,0-0.6,0.1-1,0.4s-1,0.6-1.4,1.1s-0.9,0.9-1.3,1.5S182.3,56.1,182.2,56.8z"/>
			<path class="st178" d="M198.1,57.1v1.3c-2.4,3.2-4.4,4.9-6,4.9c-0.8,0-1.5-0.5-2-1.4s-0.7-2.1-0.7-3.6c0-1.2,0.3-2.6,0.8-4.3
				s1.3-3.3,2.3-5s1.9-3.2,2.9-4.4s2-2.1,2.8-2.6c0.4-0.2,0.6-0.3,0.8-0.3c0.2,0,0.4,0.1,0.5,0.3s0.1,0.6,0.1,1.1c0,1.6-0.7,3.6-2,6
				s-3.2,4.8-5.5,7.3c-0.1,0.6-0.2,1.1-0.2,1.4c0,0.8,0.2,1.4,0.5,1.8s0.8,0.7,1.3,0.7c0.3,0,0.6-0.1,0.9-0.3s0.7-0.5,1.1-0.9
				S197,58.1,198.1,57.1z M192.8,53.9c0.6-0.6,1.2-1.3,1.8-2s1.1-1.6,1.6-2.4s0.9-1.6,1.2-2.3s0.4-1.2,0.4-1.6
				c0-0.3-0.1-0.4-0.3-0.4c-0.1,0-0.2,0.1-0.4,0.2c-0.7,0.6-1.5,1.7-2.4,3.4S193.2,52.2,192.8,53.9z"/>
		</g>
	</g>
</g>
</svg>
