<?xml version="1.0" encoding="UTF-8" standalone="no"?>
<!-- Generator: Adobe Illustrator 22.1.0, SVG Export Plug-In . SVG Version: 6.00 Build 0)  -->

<svg
   xmlns:dc="http://purl.org/dc/elements/1.1/"
   xmlns:cc="http://creativecommons.org/ns#"
   xmlns:rdf="http://www.w3.org/1999/02/22-rdf-syntax-ns#"
   xmlns:svg="http://www.w3.org/2000/svg"
   xmlns="http://www.w3.org/2000/svg"
   xmlns:sodipodi="http://sodipodi.sourceforge.net/DTD/sodipodi-0.dtd"
   xmlns:inkscape="http://www.inkscape.org/namespaces/inkscape"
   version="1.1"
   x="0px"
   y="0px"
   viewBox="0 0 94 31"
   xml:space="preserve"
   id="svg310"
   sodipodi:docname="safety-pin-silver.svg"
   width="94"
   height="31"
   inkscape:version="0.92.2 5c3e80d, 2017-08-06" preserveAspectRatio="none"><metadata
     id="metadata316"><rdf:RDF><cc:Work
         rdf:about=""><dc:format>image/svg+xml</dc:format><dc:type
           rdf:resource="http://purl.org/dc/dcmitype/StillImage" /><dc:title></dc:title></cc:Work></rdf:RDF></metadata><defs
     id="defs314" /><sodipodi:namedview
     pagecolor="#ffffff"
     bordercolor="#666666"
     borderopacity="1"
     objecttolerance="10"
     gridtolerance="10"
     guidetolerance="10"
     inkscape:pageopacity="0"
     inkscape:pageshadow="2"
     inkscape:window-width="640"
     inkscape:window-height="480"
     id="namedview312"
     showgrid="false"
     inkscape:zoom="7.1011575"
     inkscape:cx="11.702007"
     inkscape:cy="43.363356"
     inkscape:current-layer="svg310" /><style
     type="text/css"
     id="style282">
	.st0{fill:#A32B9F;}
	.st1{fill:#006837;}
	.st2{fill:#008C4A;}
	.st3{fill:#8CC63F;}
	.st4{fill:#B54D4D;}
	.st5{fill:#DE5F5F;stroke:#FF948A;stroke-width:1.5;stroke-miterlimit:10;}
	.st6{fill:#FF948A;}
	.st7{fill:#FFFFFF;}
	.st8{fill:#3760B3;stroke:#FFFFFF;stroke-width:0.5;stroke-miterlimit:10;}
	.st9{fill:#ED914B;}
	.st10{fill:#FFAF4F;stroke:#FFC87A;stroke-width:1.5;stroke-miterlimit:10;}
	.st11{fill:#FFC87A;}
	.st12{fill:#284F8F;}
	.st13{fill:#664BED;}
	.st14{fill:#7960F7;}
	.st15{fill:#25CF25;stroke:#157515;stroke-width:0.5;stroke-miterlimit:10;}
	.st16{fill:#BC94FF;}
	.st17{fill:#25CF25;}
	.st18{fill:#4A2EFF;stroke:#FFFFFF;stroke-width:0.5;stroke-miterlimit:10;}
	.st19{fill:#E6D414;}
	.st20{fill:#FFEC59;}
	.st21{fill:#FFFE9E;}
	.st22{fill:#A0B8B6;}
	.st23{fill:#DEFFFC;}
	.st24{fill:#7C8F8D;}
	.st25{fill:#108BDE;}
	.st26{fill:#0071BC;}
	.st27{fill:#F2F2F2;}
	.st28{fill:#25221D;}
	.st29{fill:#FCEE21;}
	.st30{fill:#D9CD20;}
	.st31{fill:#6BD643;}
	.st32{fill:#39B54A;}
	.st33{fill:#FF6B6B;}
	.st34{fill:#FF0000;}
	.st35{fill:#662D91;}
	.st36{fill:#FBB03B;}
	.st37{fill:#F7931E;}
	.st38{fill:#A8CDE3;}
	.st39{fill:#DEDEDE;}
	.st40{fill:#0000FF;}
	.st41{fill:#4073FF;}
	.st42{fill:#C92F2F;}
	.st43{fill:#D96161;}
	.st44{fill:#009650;}
	.st45{fill:#26BD49;}
	.st46{fill:#1DC44D;}
	.st47{fill:#17A157;}
	.st48{fill:#22E65A;}
	.st49{fill:#FF82FF;}
	.st50{fill:#E05CE0;}
	.st51{fill:#FFA1FF;}
	.st52{fill:#F15A24;}
	.st53{fill:#F18C68;}
	.st54{fill:#CC2614;}
	.st55{fill:#56F1F7;}
	.st56{fill:#3EC7C7;}
	.st57{fill:#3FC6CC;}
	.st58{fill:#D6FFF6;}
	.st59{fill:none;stroke:#A0B8B6;stroke-width:3;stroke-linecap:round;stroke-miterlimit:10;}
	.st60{fill:none;stroke:#000000;stroke-width:4.8176;stroke-miterlimit:10;}
	.st61{fill:#E6E6E6;}
	.st62{fill:none;stroke:#808080;stroke-width:1.379;stroke-miterlimit:10;}
	.st63{fill:none;stroke:#E6E6E6;stroke-width:0.9193;stroke-miterlimit:10;}
	.st64{fill:#D4145A;}
	.st65{fill:#FF7BAC;}
	.st66{fill:none;stroke:#FF7BAC;stroke-width:2.3437;stroke-miterlimit:10;}
	.st67{fill:#E0CA21;}
	.st68{stroke:#FFFFFF;stroke-width:2.4088;stroke-miterlimit:10;}
	.st69{fill:#008747;}
	.st70{fill:#A81919;}
	.st71{fill:#D45757;}
	.st72{fill:#009C52;}
	.st73{fill:#00C266;}
	.st74{fill:#FF9670;}
	.st75{fill:#EDDF13;}
	.st76{fill:#EDE79C;}
	.st77{fill:#A85414;}
	.st78{fill:#913D3D;}
	.st79{fill:#612929;}
	.st80{fill:#69D669;}
	.st81{fill:#D4BB1C;}
	.st82{fill:#FCF590;}
	.st83{fill:#4AB04A;}
	.st84{fill:#C2644C;}
	.st85{fill:#E87041;}
	.st86{fill:#A14F3F;}
	.st87{fill:#384A82;}
	.st88{fill:#4C68C2;}
	.st89{fill:#243054;}
	.st90{fill:none;}
	.st91{fill:#985EC4;}
	.st92{fill:#57B342;}
	.st93{fill:#77DB60;}
	.st94{fill:#4692E3;}
	.st95{fill:#7ABAFF;}
	.st96{fill:none;stroke:#4692E3;stroke-width:3.5969;stroke-miterlimit:10;}
	.st97{fill:none;stroke:#FFA6FF;stroke-miterlimit:10;}
	.st98{fill:none;stroke:#7DA6FF;stroke-width:0.5;stroke-miterlimit:10;}
	.st99{fill:#BDE7FF;}
	.st100{fill:#F8FFAD;}
	.st101{fill:#91C0C7;}
	.st102{fill:none;stroke:#B3B3B3;stroke-width:3;stroke-miterlimit:10;}
	.st103{fill:none;stroke:#6197A8;stroke-width:1.5;stroke-miterlimit:10;}
	.st104{fill:#B1E8F5;}
	.st105{fill:#CFB36E;}
	.st106{fill:none;stroke:#9E805D;stroke-width:1.5;stroke-miterlimit:10;}
	.st107{fill:#E8D190;}
	.st108{fill:none;stroke:#7288A1;stroke-width:1.4358;stroke-miterlimit:10;}
	.st109{fill:#C9E1FF;}
	.st110{fill:none;stroke:#B3B3B3;stroke-width:2.8278;stroke-miterlimit:10;}
	.st111{fill:#3295D9;}
	.st112{fill:none;stroke:#0061A1;stroke-width:1.4139;stroke-miterlimit:10;}
	.st113{fill:#56B4F0;}
	.st114{fill:#63C261;}
	.st115{fill:none;stroke:#2A8737;stroke-width:1.3456;stroke-miterlimit:10;}
	.st116{fill:#77E86F;}
	.st117{fill:#DE6868;}
	.st118{fill:none;stroke:#B54D4D;stroke-width:1.3666;stroke-miterlimit:10;}
	.st119{fill:#C9FFC2;}
	.st120{fill:none;stroke:#000000;stroke-miterlimit:10;}
	.st121{fill:none;stroke:#000000;stroke-width:0.7528;stroke-miterlimit:10;}
	.st122{fill:#FFD4D4;}
	.st123{fill:#E3CAA6;}
	.st124{fill:#9CFFFF;}
	.st125{fill:#FFDE85;enable-background:new    ;}
	.st126{fill:#DE5454;}
	.st127{fill:#FF9999;}
	.st128{fill:#0062A3;}
	.st129{fill:#0081D6;}
	.st130{fill:#21A7FF;}
	.st131{fill:#00A35A;}
	.st132{fill:#008247;}
	.st133{fill:#00BA67;}
	.st134{fill:#00DB79;}
	.st135{fill:#00AED9;}
	.st136{fill:#00CCFF;}
	.st137{fill:#0078A8;}
	.st138{fill:#25C495;}
	.st139{fill:#47DEB2;}
	.st140{fill:#1A8A68;}
	.st141{fill:#787878;}
	.st142{fill:#999999;}
	.st143{fill:#CCCCCC;}
	.st144{fill:none;stroke:#787878;stroke-width:0.25;stroke-miterlimit:10;}
	.st145{fill:#C6AD6D;}
	.st146{fill:#87714A;}
	.st147{fill:#FFE49E;}
	.st148{fill:#71CF89;}
	.st149{fill:#00A151;}
	.st150{fill:#3A3D38;}
	.st151{fill:#40CF88;}
	.st152{fill:#68A649;}
	.st153{fill:#98E3AB;}
	.st154{fill:#FFF08C;}
	.st155{fill:#FFDB3B;}
	.st156{fill:#FFF591;}
	.st157{fill:#FFF6C2;}
	.st158{fill:#B783DE;}
	.st159{fill:#A01FF0;}
	.st160{fill:#C261FF;}
	.st161{fill:#CA97F0;}
	.st162{fill:#BDBDBD;}
</style><g
     id="Layer_2"
     transform="translate(0,-63)" /><g
     id="Layer_1"
     transform="rotate(90,47.032774,47.114564)"><g
       id="g307"><path
         class="st141"
         d="M 18.1,7.7 C 18,7.6 14.2,7.5 12.6,9.8 c -1.6,2.3 -1.9,5.6 -0.9,7.4 1,1.8 2.2,3.9 0.2,8.5 C 9.6,31 2.7,30.4 2.7,30.4 L 2.6,17.6 6.4,7 11.6,5.3 c 0,0.1 6.7,2.5 6.5,2.4 z"
         id="path285"
         inkscape:connector-curvature="0"
         style="fill:#787878" /><path
         class="st142"
         d="M 17.1,92.8 C 15.2,92.8 13.5,92 12,90.5 1.9,80.6 1.9,38.2 1.9,24.3 V 23 h 2 v 1.3 c 0,36.8 3.2,58.6 9.5,64.8 1.2,1.2 2.4,1.7 3.8,1.7 1.7,0 3.1,-0.7 4.4,-2.1 7.7,-8.3 6.2,-38.5 5.3,-54.7 -0.2,-4.2 -0.4,-7.5 -0.4,-9.7 h 2 c 0,2.2 0.2,5.6 0.4,9.6 0.9,17.7 2.4,47.3 -5.8,56.2 -1.6,1.8 -3.6,2.7 -5.8,2.7 -0.1,0 -0.1,0 -0.2,0 z"
         id="path287"
         inkscape:connector-curvature="0"
         style="fill:#999999" /><path
         class="st142"
         d="m 17.2,92.6 c -4.3,0 -7.7,-3.2 -7.7,-7.2 0,-4 3.5,-7.2 7.7,-7.2 4.2,0 7.7,3.2 7.7,7.2 0,4 -3.4,7.2 -7.7,7.2 z m 0,-12.4 c -3.2,0 -5.7,2.3 -5.7,5.2 0,2.9 2.6,5.2 5.7,5.2 3.1,0 5.7,-2.3 5.7,-5.2 0,-2.9 -2.5,-5.2 -5.7,-5.2 z"
         id="path289"
         inkscape:connector-curvature="0"
         style="fill:#999999" /><path
         class="st142"
         d="m 1.3,30.2 v -16 C 1.3,7.1 7.5,1.2 15,1.2 h 0.3 c 7.5,0 13.7,5.9 13.7,13 v 16 c 0,0 -10.6,3 -16.3,-9.2 C 7.1,32.7 1.3,30.2 1.3,30.2 Z M 22.9,12.5 C 22.7,7.4 13.1,5.8 10.4,10.6 c -2.7,4.8 1.8,8.9 1.8,8.9 2.5,-3.7 11.1,1.9 10.7,-7 z"
         id="path291"
         inkscape:connector-curvature="0"
         style="fill:#999999" /><g
         id="g295"><path
           class="st143"
           d="M 27.7,23.2 C 27.6,22 27.6,20.7 27.5,19.5 27.4,18.3 27.3,17.1 27.2,15.9 26.9,13.5 26.3,11.1 25.3,9 24.3,6.9 22.8,4.9 20.5,4 19.4,3.5 18.3,3.1 17.1,2.9 15.9,2.7 14.7,2.6 13.5,2.8 c 2.4,-0.7 5,-0.4 7.4,0.5 0.6,0.2 1.2,0.5 1.7,0.9 0.6,0.3 1.1,0.8 1.5,1.3 0.9,0.9 1.6,2 2.1,3.2 1.1,2.3 1.6,4.8 1.7,7.3 0.1,1.2 0.1,2.5 0.1,3.7 -0.1,1.1 -0.2,2.3 -0.3,3.5 z"
           id="path293"
           inkscape:connector-curvature="0"
           style="fill:#cccccc" /></g><g
         id="g299"><path
           class="st143"
           d="m 11.2,82.3 c 0.3,-0.6 0.8,-1.2 1.4,-1.7 0.6,-0.5 1.2,-0.9 1.9,-1.2 1.4,-0.5 3,-0.7 4.4,-0.4 1.5,0.3 2.9,1.1 3.8,2.2 1,1.2 1.4,2.7 1.3,4.1 -0.2,-1.4 -0.7,-2.8 -1.7,-3.8 -1,-1 -2.2,-1.6 -3.6,-1.9 -1.3,-0.3 -2.8,-0.2 -4.1,0.2 -1.3,0.5 -2.5,1.4 -3.4,2.5 z"
           id="path297"
           inkscape:connector-curvature="0"
           style="fill:#cccccc" /></g><path
         class="st143"
         d="m 28.5,32.6 c 0,0 2.4,26.9 -1.2,46.1 l -0.9,-0.2 c 0,0 3.6,-10.9 1.4,-45.8 z"
         id="path301"
         inkscape:connector-curvature="0"
         style="fill:#cccccc" /><path
         class="st144"
         d="m 29,30.3 c 0,0 -1.2,0.5 -2.4,0.3"
         id="path303"
         inkscape:connector-curvature="0"
         style="fill:none;stroke:#787878;stroke-width:0.25;stroke-miterlimit:10" /><path
         class="st144"
         d="m 2,30.5 c 0,0 0.8,0.1 2.1,-0.1"
         id="path305"
         inkscape:connector-curvature="0"
         style="fill:none;stroke:#787878;stroke-width:0.25;stroke-miterlimit:10" /></g></g></svg>