<svg id="Layer_2" xmlns="http://www.w3.org/2000/svg" viewBox="0 0 31.54395 30.30078" width="31.54395" height="30.30078" preserveAspectRatio="none"><defs><style>.cls-1{fill:#498BED;}.cls-1,.cls-2,.cls-3,.cls-4{stroke-width:0px;}.cls-2{fill:#7FC1FF;}.cls-3{fill:#231f20;}.cls-4{fill:#324AA1;}</style></defs><polygon class="cls-4" points="23.61348 6.57904 23.61348 29.79605 30.98049 24.00103 30.98049 .92404 23.61348 6.57904" /><polygon class="cls-2" points=".74327 6.57904 23.93828 6.57904 30.98027 .81103 8.34627 .56305 .74327 6.57904" /><rect class="cls-1" x=".56328" y="6.53354" width="23.20401" height="23.20401" /><path class="cls-3" d="M23.76758,30.30078H.56348c-.31055,0-.56348-.25293-.56348-.56348V6.5332c0-.31055.25293-.56348.56348-.56348h23.2041c.31055,0,.56348.25293.56348.56348v23.2041c0,.31055-.25293.56348-.56348.56348ZM1.12695,29.17383h22.07715V7.09668H1.12695v22.07715Z" /><path class="cls-3" d="M23.90234,6.98438c-.16699,0-.33301-.0752-.44434-.2168-.19043-.24609-.14746-.59961.09766-.79102L30.63281.45703c.24609-.19043.59863-.14648.79102.09766.19043.24609.14746.59961-.09766.79102l-7.07715,5.51953c-.10352.08008-.22559.11914-.34668.11914Z" /><path class="cls-3" d="M30.98047,1.12695H8.44336c-.31055,0-.56348-.25293-.56348-.56348s.25293-.56348.56348-.56348h22.53711c.31055,0,.56348.25293.56348.56348s-.25293.56348-.56348.56348Z" /><path class="cls-3" d="M30.98047,24.44434c-.31055,0-.56348-.25293-.56348-.56348V.90137c0-.31055.25293-.56348.56348-.56348s.56348.25293.56348.56348v22.97949c0,.31055-.25293.56348-.56348.56348Z" /><path class="cls-3" d="M23.90234,30.18848c-.16699,0-.33301-.0752-.44434-.2168-.19043-.24609-.14746-.59961.09766-.79102l7.07715-5.51953c.24609-.19141.59863-.14746.79102.09766.19043.24609.14746.59961-.09766.79102l-7.07715,5.51953c-.10352.08008-.22559.11914-.34668.11914Z" /><path class="cls-3" d="M.58594,6.80469c-.17383,0-.34473-.08105-.45508-.23242-.18262-.25098-.12793-.60352.12402-.78613L8.0498.1084c.25-.18262.60254-.12695.78613.12402.18262.25098.12793.60352-.12402.78613L.91699,6.69629c-.09961.07324-.21582.1084-.33105.1084Z" /></svg>