<svg id="Layer_2" xmlns="http://www.w3.org/2000/svg" viewBox="0 0 238.71391 238.36066" width="238.71391" height="238.36066" preserveAspectRatio="none"><defs><style>.cls-1{fill:#498BED;}.cls-1,.cls-2,.cls-3,.cls-4{stroke-width:0px;}.cls-2{fill:#7FC1FF;}.cls-3{fill:#231f20;}.cls-4{fill:#324AA1;}</style></defs><polygon class="cls-4" points="230.80064 6.4472 230.80064 237.9382 238.15164 232.11218 238.15164 .56323 230.80064 6.4472" /><polygon class="cls-2" points="8.41544 .5636 .80844 6.32758 230.60744 6.56659 238.15143 .5636 8.41544 .5636" /><rect class="cls-1" x=".56154" y="6.52154" width="23.154" height="23.15302" /><path class="cls-3" d="M24.27681,30.23664H.00044V5.96027h24.27637v24.27637ZM1.12349,29.11359h22.03027V7.08332H1.12349v22.03027Z" /><rect class="cls-1" x=".56154" y="29.64654" width="23.154" height="23.15302" /><path class="cls-3" d="M24.27681,53.36066H.00044v-24.27637h24.27637v24.27637ZM1.12349,52.23761h22.03027v-22.03027H1.12349v22.03027Z" /><rect class="cls-1" x=".56154" y="52.77154" width="23.154" height="23.15302" /><path class="cls-3" d="M24.27681,76.48566H.00044v-24.27637h24.27637v24.27637ZM1.12349,75.36261h22.03027v-22.03027H1.12349v22.03027Z" /><rect class="cls-1" x=".56154" y="75.89862" width="23.154" height="23.15298" /><path class="cls-3" d="M24.27681,99.61359H.00044v-24.27734h24.27637v24.27734ZM1.12349,98.49054h22.03027v-22.03125H1.12349v22.03125Z" /><rect class="cls-1" x=".56154" y="99.0206" width="23.154" height="23.15399" /><path class="cls-3" d="M24.27681,122.73468H.00044v-24.27637h24.27637v24.27637ZM1.12349,121.61164h22.03027v-22.03027H1.12349v22.03027Z" /><rect class="cls-1" x=".56154" y="122.14459" width="23.154" height="23.15399" /><path class="cls-3" d="M24.27681,145.85968H.00044v-24.27637h24.27637v24.27637ZM1.12349,144.73664h22.03027v-22.03027H1.12349v22.03027Z" /><rect class="cls-1" x=".56154" y="145.26959" width="23.154" height="23.15399" /><path class="cls-3" d="M24.27681,168.98468H.00044v-24.27637h24.27637v24.27637ZM1.12349,167.86164h22.03027v-22.03027H1.12349v22.03027Z" /><rect class="cls-1" x=".56154" y="168.39661" width="23.154" height="23.15298" /><path class="cls-3" d="M24.27681,192.11066H.00044v-24.27637h24.27637v24.27637ZM1.12349,190.98761h22.03027v-22.03027H1.12349v22.03027Z" /><rect class="cls-1" x=".56154" y="191.51858" width="23.154" height="23.15399" /><path class="cls-3" d="M24.27681,215.23371H.00044v-24.27637h24.27637v24.27637ZM1.12349,214.11066h22.03027v-22.03027H1.12349v22.03027Z" /><rect class="cls-1" x=".56154" y="214.64557" width="23.154" height="23.15302" /><path class="cls-3" d="M24.27681,238.36066H.00044v-24.27637h24.27637v24.27637ZM1.12349,237.23761h22.03027v-22.03027H1.12349v22.03027Z" /><rect class="cls-1" x="23.67454" y="6.52161" width="23.154" height="23.15399" /><path class="cls-3" d="M47.39009,30.23664h-24.27734V5.96027h24.27734v24.27637ZM24.23579,29.11359h22.03125V7.08332h-22.03125v22.03027Z" /><rect class="cls-1" x="23.67454" y="29.64557" width="23.154" height="23.15399" /><path class="cls-3" d="M47.39009,53.36066h-24.27734v-24.27637h24.27734v24.27637ZM24.23579,52.23761h22.03125v-22.03027h-22.03125v22.03027Z" /><rect class="cls-1" x="23.67454" y="52.77057" width="23.154" height="23.15399" /><path class="cls-3" d="M47.39009,76.48566h-24.27734v-24.27637h24.27734v24.27637ZM24.23579,75.36261h22.03125v-22.03027h-22.03125v22.03027Z" /><rect class="cls-1" x="23.67454" y="75.89758" width="23.154" height="23.15402" /><path class="cls-3" d="M47.39009,99.61359h-24.27734v-24.27734h24.27734v24.27734ZM24.23579,98.49054h22.03125v-22.03125h-22.03125v22.03125Z" /><rect class="cls-1" x="23.67454" y="99.01959" width="23.154" height="23.15399" /><path class="cls-3" d="M47.39009,122.73468h-24.27734v-24.27637h24.27734v24.27637ZM24.23579,121.61164h22.03125v-22.03027h-22.03125v22.03027Z" /><rect class="cls-1" x="23.67454" y="122.14459" width="23.154" height="23.15399" /><path class="cls-3" d="M47.39009,145.85968h-24.27734v-24.27637h24.27734v24.27637ZM24.23579,144.73664h22.03125v-22.03027h-22.03125v22.03027Z" /><rect class="cls-1" x="23.67454" y="145.26959" width="23.154" height="23.15399" /><path class="cls-3" d="M47.39009,168.98468h-24.27734v-24.27637h24.27734v24.27637ZM24.23579,167.86164h22.03125v-22.03027h-22.03125v22.03027Z" /><rect class="cls-1" x="23.67454" y="168.3956" width="23.154" height="23.15399" /><path class="cls-3" d="M47.39009,192.11066h-24.27734v-24.27637h24.27734v24.27637ZM24.23579,190.98761h22.03125v-22.03027h-22.03125v22.03027Z" /><rect class="cls-1" x="23.67454" y="191.51858" width="23.154" height="23.15399" /><path class="cls-3" d="M47.39009,215.23371h-24.27734v-24.27637h24.27734v24.27637ZM24.23579,214.11066h22.03125v-22.03027h-22.03125v22.03027Z" /><rect class="cls-1" x="23.67454" y="214.6456" width="23.154" height="23.15399" /><path class="cls-3" d="M47.39009,238.36066h-24.27734v-24.27637h24.27734v24.27637ZM24.23579,237.23761h22.03125v-22.03027h-22.03125v22.03027Z" /><rect class="cls-1" x="46.65754" y="6.52161" width="23.154" height="23.15399" /><path class="cls-3" d="M70.37349,30.23664h-24.27734V5.96027h24.27734v24.27637ZM47.21919,29.11359h22.03125V7.08332h-22.03125v22.03027Z" /><rect class="cls-1" x="46.65754" y="29.64557" width="23.154" height="23.15399" /><path class="cls-3" d="M70.37349,53.36066h-24.27734v-24.27637h24.27734v24.27637ZM47.21919,52.23761h22.03125v-22.03027h-22.03125v22.03027Z" /><rect class="cls-1" x="46.65754" y="52.77057" width="23.154" height="23.15399" /><path class="cls-3" d="M70.37349,76.48566h-24.27734v-24.27637h24.27734v24.27637ZM47.21919,75.36261h22.03125v-22.03027h-22.03125v22.03027Z" /><rect class="cls-1" x="46.65754" y="75.89758" width="23.154" height="23.15402" /><path class="cls-3" d="M70.37349,99.61359h-24.27734v-24.27734h24.27734v24.27734ZM47.21919,98.49054h22.03125v-22.03125h-22.03125v22.03125Z" /><rect class="cls-1" x="46.65754" y="99.01959" width="23.154" height="23.15399" /><path class="cls-3" d="M70.37349,122.73468h-24.27734v-24.27637h24.27734v24.27637ZM47.21919,121.61164h22.03125v-22.03027h-22.03125v22.03027Z" /><rect class="cls-1" x="46.65754" y="122.14459" width="23.154" height="23.15399" /><path class="cls-3" d="M70.37349,145.85968h-24.27734v-24.27637h24.27734v24.27637ZM47.21919,144.73664h22.03125v-22.03027h-22.03125v22.03027Z" /><rect class="cls-1" x="46.65754" y="145.26959" width="23.154" height="23.15399" /><path class="cls-3" d="M70.37349,168.98468h-24.27734v-24.27637h24.27734v24.27637ZM47.21919,167.86164h22.03125v-22.03027h-22.03125v22.03027Z" /><rect class="cls-1" x="46.65754" y="168.3956" width="23.154" height="23.15399" /><path class="cls-3" d="M70.37349,192.11066h-24.27734v-24.27637h24.27734v24.27637ZM47.21919,190.98761h22.03125v-22.03027h-22.03125v22.03027Z" /><rect class="cls-1" x="46.65754" y="191.51858" width="23.154" height="23.15399" /><path class="cls-3" d="M70.37349,215.23371h-24.27734v-24.27637h24.27734v24.27637ZM47.21919,214.11066h22.03125v-22.03027h-22.03125v22.03027Z" /><rect class="cls-1" x="46.65754" y="214.6456" width="23.154" height="23.15399" /><path class="cls-3" d="M70.37349,238.36066h-24.27734v-24.27637h24.27734v24.27637ZM47.21919,237.23761h22.03125v-22.03027h-22.03125v22.03027Z" /><rect class="cls-1" x="69.64054" y="6.52161" width="23.154" height="23.15399" /><path class="cls-3" d="M93.35591,30.23664h-24.27734V5.96027h24.27734v24.27637ZM70.20161,29.11359h22.03125V7.08332h-22.03125v22.03027Z" /><rect class="cls-1" x="69.64054" y="29.64557" width="23.154" height="23.15399" /><path class="cls-3" d="M93.35591,53.36066h-24.27734v-24.27637h24.27734v24.27637ZM70.20161,52.23761h22.03125v-22.03027h-22.03125v22.03027Z" /><rect class="cls-1" x="69.64054" y="52.77057" width="23.154" height="23.15399" /><path class="cls-3" d="M93.35591,76.48566h-24.27734v-24.27637h24.27734v24.27637ZM70.20161,75.36261h22.03125v-22.03027h-22.03125v22.03027Z" /><rect class="cls-1" x="69.64054" y="75.89758" width="23.154" height="23.15402" /><path class="cls-3" d="M93.35591,99.61359h-24.27734v-24.27734h24.27734v24.27734ZM70.20161,98.49054h22.03125v-22.03125h-22.03125v22.03125Z" /><rect class="cls-1" x="69.64054" y="99.01959" width="23.154" height="23.15399" /><path class="cls-3" d="M93.35591,122.73468h-24.27734v-24.27637h24.27734v24.27637ZM70.20161,121.61164h22.03125v-22.03027h-22.03125v22.03027Z" /><rect class="cls-1" x="69.64054" y="122.14459" width="23.154" height="23.15399" /><path class="cls-3" d="M93.35591,145.85968h-24.27734v-24.27637h24.27734v24.27637ZM70.20161,144.73664h22.03125v-22.03027h-22.03125v22.03027Z" /><rect class="cls-1" x="69.64054" y="145.26959" width="23.154" height="23.15399" /><path class="cls-3" d="M93.35591,168.98468h-24.27734v-24.27637h24.27734v24.27637ZM70.20161,167.86164h22.03125v-22.03027h-22.03125v22.03027Z" /><rect class="cls-1" x="69.64054" y="168.3956" width="23.154" height="23.15399" /><path class="cls-3" d="M93.35591,192.11066h-24.27734v-24.27637h24.27734v24.27637ZM70.20161,190.98761h22.03125v-22.03027h-22.03125v22.03027Z" /><rect class="cls-1" x="69.64054" y="191.51858" width="23.154" height="23.15399" /><path class="cls-3" d="M93.35591,215.23371h-24.27734v-24.27637h24.27734v24.27637ZM70.20161,214.11066h22.03125v-22.03027h-22.03125v22.03027Z" /><rect class="cls-1" x="69.64054" y="214.6456" width="23.154" height="23.15399" /><path class="cls-3" d="M93.35591,238.36066h-24.27734v-24.27637h24.27734v24.27637ZM70.20161,237.23761h22.03125v-22.03027h-22.03125v22.03027Z" /><rect class="cls-1" x="92.75454" y="6.52161" width="23.154" height="23.15399" /><path class="cls-3" d="M116.47017,30.23664h-24.27734V5.96027h24.27734v24.27637ZM93.31587,29.11359h22.03125V7.08332h-22.03125v22.03027Z" /><rect class="cls-1" x="92.75454" y="29.64557" width="23.154" height="23.15399" /><path class="cls-3" d="M116.47017,53.36066h-24.27734v-24.27637h24.27734v24.27637ZM93.31587,52.23761h22.03125v-22.03027h-22.03125v22.03027Z" /><rect class="cls-1" x="92.75454" y="52.77057" width="23.154" height="23.15399" /><path class="cls-3" d="M116.47017,76.48566h-24.27734v-24.27637h24.27734v24.27637ZM93.31587,75.36261h22.03125v-22.03027h-22.03125v22.03027Z" /><rect class="cls-1" x="92.75454" y="75.89758" width="23.154" height="23.15402" /><path class="cls-3" d="M116.47017,99.61359h-24.27734v-24.27734h24.27734v24.27734ZM93.31587,98.49054h22.03125v-22.03125h-22.03125v22.03125Z" /><rect class="cls-1" x="92.75454" y="99.01959" width="23.154" height="23.15399" /><path class="cls-3" d="M116.47017,122.73468h-24.27734v-24.27637h24.27734v24.27637ZM93.31587,121.61164h22.03125v-22.03027h-22.03125v22.03027Z" /><rect class="cls-1" x="92.75454" y="122.14459" width="23.154" height="23.15399" /><path class="cls-3" d="M116.47017,145.85968h-24.27734v-24.27637h24.27734v24.27637ZM93.31587,144.73664h22.03125v-22.03027h-22.03125v22.03027Z" /><rect class="cls-1" x="92.75454" y="145.26959" width="23.154" height="23.15399" /><path class="cls-3" d="M116.47017,168.98468h-24.27734v-24.27637h24.27734v24.27637ZM93.31587,167.86164h22.03125v-22.03027h-22.03125v22.03027Z" /><rect class="cls-1" x="92.75454" y="168.3956" width="23.154" height="23.15399" /><path class="cls-3" d="M116.47017,192.11066h-24.27734v-24.27637h24.27734v24.27637ZM93.31587,190.98761h22.03125v-22.03027h-22.03125v22.03027Z" /><rect class="cls-1" x="92.75454" y="191.51858" width="23.154" height="23.15399" /><path class="cls-3" d="M116.47017,215.23371h-24.27734v-24.27637h24.27734v24.27637ZM93.31587,214.11066h22.03125v-22.03027h-22.03125v22.03027Z" /><rect class="cls-1" x="92.75454" y="214.6456" width="23.154" height="23.15399" /><path class="cls-3" d="M116.47017,238.36066h-24.27734v-24.27637h24.27734v24.27637ZM93.31587,237.23761h22.03125v-22.03027h-22.03125v22.03027Z" /><rect class="cls-1" x="115.60654" y="6.52161" width="23.154" height="23.15399" /><path class="cls-3" d="M139.32173,30.23664h-24.27637V5.96027h24.27637v24.27637ZM116.16841,29.11359h22.03027V7.08332h-22.03027v22.03027Z" /><rect class="cls-1" x="115.60654" y="29.64557" width="23.154" height="23.15399" /><path class="cls-3" d="M139.32173,53.36066h-24.27637v-24.27637h24.27637v24.27637ZM116.16841,52.23761h22.03027v-22.03027h-22.03027v22.03027Z" /><rect class="cls-1" x="115.60654" y="52.77057" width="23.154" height="23.15399" /><path class="cls-3" d="M139.32173,76.48566h-24.27637v-24.27637h24.27637v24.27637ZM116.16841,75.36261h22.03027v-22.03027h-22.03027v22.03027Z" /><rect class="cls-1" x="115.60654" y="75.89758" width="23.154" height="23.15402" /><path class="cls-3" d="M139.32173,99.61359h-24.27637v-24.27734h24.27637v24.27734ZM116.16841,98.49054h22.03027v-22.03125h-22.03027v22.03125Z" /><rect class="cls-1" x="115.60654" y="99.01959" width="23.154" height="23.15399" /><path class="cls-3" d="M139.32173,122.73468h-24.27637v-24.27637h24.27637v24.27637ZM116.16841,121.61164h22.03027v-22.03027h-22.03027v22.03027Z" /><rect class="cls-1" x="115.60654" y="122.14459" width="23.154" height="23.15399" /><path class="cls-3" d="M139.32173,145.85968h-24.27637v-24.27637h24.27637v24.27637ZM116.16841,144.73664h22.03027v-22.03027h-22.03027v22.03027Z" /><rect class="cls-1" x="115.60654" y="145.26959" width="23.154" height="23.15399" /><path class="cls-3" d="M139.32173,168.98468h-24.27637v-24.27637h24.27637v24.27637ZM116.16841,167.86164h22.03027v-22.03027h-22.03027v22.03027Z" /><rect class="cls-1" x="115.60654" y="168.3956" width="23.154" height="23.15399" /><path class="cls-3" d="M139.32173,192.11066h-24.27637v-24.27637h24.27637v24.27637ZM116.16841,190.98761h22.03027v-22.03027h-22.03027v22.03027Z" /><rect class="cls-1" x="115.60654" y="191.51858" width="23.154" height="23.15399" /><path class="cls-3" d="M139.32173,215.23371h-24.27637v-24.27637h24.27637v24.27637ZM116.16841,214.11066h22.03027v-22.03027h-22.03027v22.03027Z" /><rect class="cls-1" x="115.60654" y="214.6456" width="23.154" height="23.15399" /><path class="cls-3" d="M139.32173,238.36066h-24.27637v-24.27637h24.27637v24.27637ZM116.16841,237.23761h22.03027v-22.03027h-22.03027v22.03027Z" /><rect class="cls-1" x="138.72053" y="6.52161" width="23.15401" height="23.15399" /><path class="cls-3" d="M162.43599,30.23664h-24.27734V5.96027h24.27734v24.27637ZM139.28169,29.11359h22.03125V7.08332h-22.03125v22.03027Z" /><rect class="cls-1" x="138.72053" y="29.64557" width="23.15401" height="23.15399" /><path class="cls-3" d="M162.43599,53.36066h-24.27734v-24.27637h24.27734v24.27637ZM139.28169,52.23761h22.03125v-22.03027h-22.03125v22.03027Z" /><rect class="cls-1" x="138.72053" y="52.77057" width="23.15401" height="23.15399" /><path class="cls-3" d="M162.43599,76.48566h-24.27734v-24.27637h24.27734v24.27637ZM139.28169,75.36261h22.03125v-22.03027h-22.03125v22.03027Z" /><rect class="cls-1" x="138.72053" y="75.89758" width="23.15401" height="23.15402" /><path class="cls-3" d="M162.43599,99.61359h-24.27734v-24.27734h24.27734v24.27734ZM139.28169,98.49054h22.03125v-22.03125h-22.03125v22.03125Z" /><rect class="cls-1" x="138.72053" y="99.01959" width="23.15401" height="23.15399" /><path class="cls-3" d="M162.43599,122.73468h-24.27734v-24.27637h24.27734v24.27637ZM139.28169,121.61164h22.03125v-22.03027h-22.03125v22.03027Z" /><rect class="cls-1" x="138.72053" y="122.14459" width="23.15401" height="23.15399" /><path class="cls-3" d="M162.43599,145.85968h-24.27734v-24.27637h24.27734v24.27637ZM139.28169,144.73664h22.03125v-22.03027h-22.03125v22.03027Z" /><rect class="cls-1" x="138.72053" y="145.26959" width="23.15401" height="23.15399" /><path class="cls-3" d="M162.43599,168.98468h-24.27734v-24.27637h24.27734v24.27637ZM139.28169,167.86164h22.03125v-22.03027h-22.03125v22.03027Z" /><rect class="cls-1" x="138.72053" y="168.3956" width="23.15401" height="23.15399" /><path class="cls-3" d="M162.43599,192.11066h-24.27734v-24.27637h24.27734v24.27637ZM139.28169,190.98761h22.03125v-22.03027h-22.03125v22.03027Z" /><rect class="cls-1" x="138.72053" y="191.51858" width="23.15401" height="23.15399" /><path class="cls-3" d="M162.43599,215.23371h-24.27734v-24.27637h24.27734v24.27637ZM139.28169,214.11066h22.03125v-22.03027h-22.03125v22.03027Z" /><rect class="cls-1" x="138.72053" y="214.6456" width="23.15401" height="23.15399" /><path class="cls-3" d="M162.43599,238.36066h-24.27734v-24.27637h24.27734v24.27637ZM139.28169,237.23761h22.03125v-22.03027h-22.03125v22.03027Z" /><rect class="cls-1" x="161.70354" y="6.52161" width="23.15401" height="23.15399" /><path class="cls-3" d="M185.41938,30.23664h-24.27734V5.96027h24.27734v24.27637ZM162.26509,29.11359h22.03125V7.08332h-22.03125v22.03027Z" /><rect class="cls-1" x="161.70354" y="29.64557" width="23.15401" height="23.15399" /><path class="cls-3" d="M185.41938,53.36066h-24.27734v-24.27637h24.27734v24.27637ZM162.26509,52.23761h22.03125v-22.03027h-22.03125v22.03027Z" /><rect class="cls-1" x="161.70354" y="52.77057" width="23.15401" height="23.15399" /><path class="cls-3" d="M185.41938,76.48566h-24.27734v-24.27637h24.27734v24.27637ZM162.26509,75.36261h22.03125v-22.03027h-22.03125v22.03027Z" /><rect class="cls-1" x="161.70354" y="75.89758" width="23.15401" height="23.15402" /><path class="cls-3" d="M185.41938,99.61359h-24.27734v-24.27734h24.27734v24.27734ZM162.26509,98.49054h22.03125v-22.03125h-22.03125v22.03125Z" /><rect class="cls-1" x="161.70354" y="99.01959" width="23.15401" height="23.15399" /><path class="cls-3" d="M185.41938,122.73468h-24.27734v-24.27637h24.27734v24.27637ZM162.26509,121.61164h22.03125v-22.03027h-22.03125v22.03027Z" /><rect class="cls-1" x="161.70354" y="122.14459" width="23.15401" height="23.15399" /><path class="cls-3" d="M185.41938,145.85968h-24.27734v-24.27637h24.27734v24.27637ZM162.26509,144.73664h22.03125v-22.03027h-22.03125v22.03027Z" /><rect class="cls-1" x="161.70354" y="145.26959" width="23.15401" height="23.15399" /><path class="cls-3" d="M185.41938,168.98468h-24.27734v-24.27637h24.27734v24.27637ZM162.26509,167.86164h22.03125v-22.03027h-22.03125v22.03027Z" /><rect class="cls-1" x="161.70354" y="168.3956" width="23.15401" height="23.15399" /><path class="cls-3" d="M185.41938,192.11066h-24.27734v-24.27637h24.27734v24.27637ZM162.26509,190.98761h22.03125v-22.03027h-22.03125v22.03027Z" /><rect class="cls-1" x="161.70354" y="191.51858" width="23.15401" height="23.15399" /><path class="cls-3" d="M185.41938,215.23371h-24.27734v-24.27637h24.27734v24.27637ZM162.26509,214.11066h22.03125v-22.03027h-22.03125v22.03027Z" /><rect class="cls-1" x="161.70354" y="214.6456" width="23.15401" height="23.15399" /><path class="cls-3" d="M185.41938,238.36066h-24.27734v-24.27637h24.27734v24.27637ZM162.26509,237.23761h22.03125v-22.03027h-22.03125v22.03027Z" /><rect class="cls-1" x="184.68654" y="6.52161" width="23.15401" height="23.15399" /><path class="cls-3" d="M208.40181,30.23664h-24.27637V5.96027h24.27637v24.27637ZM185.24849,29.11359h22.03027V7.08332h-22.03027v22.03027Z" /><rect class="cls-1" x="184.68654" y="29.64557" width="23.15401" height="23.15399" /><path class="cls-3" d="M208.40181,53.36066h-24.27637v-24.27637h24.27637v24.27637ZM185.24849,52.23761h22.03027v-22.03027h-22.03027v22.03027Z" /><rect class="cls-1" x="184.68654" y="52.77057" width="23.15401" height="23.15399" /><path class="cls-3" d="M208.40181,76.48566h-24.27637v-24.27637h24.27637v24.27637ZM185.24849,75.36261h22.03027v-22.03027h-22.03027v22.03027Z" /><rect class="cls-1" x="184.68654" y="75.89758" width="23.15401" height="23.15402" /><path class="cls-3" d="M208.40181,99.61359h-24.27637v-24.27734h24.27637v24.27734ZM185.24849,98.49054h22.03027v-22.03125h-22.03027v22.03125Z" /><rect class="cls-1" x="184.68654" y="99.01959" width="23.15401" height="23.15399" /><path class="cls-3" d="M208.40181,122.73468h-24.27637v-24.27637h24.27637v24.27637ZM185.24849,121.61164h22.03027v-22.03027h-22.03027v22.03027Z" /><rect class="cls-1" x="184.68654" y="122.14459" width="23.15401" height="23.15399" /><path class="cls-3" d="M208.40181,145.85968h-24.27637v-24.27637h24.27637v24.27637ZM185.24849,144.73664h22.03027v-22.03027h-22.03027v22.03027Z" /><rect class="cls-1" x="184.68654" y="145.26959" width="23.15401" height="23.15399" /><path class="cls-3" d="M208.40181,168.98468h-24.27637v-24.27637h24.27637v24.27637ZM185.24849,167.86164h22.03027v-22.03027h-22.03027v22.03027Z" /><rect class="cls-1" x="184.68654" y="168.3956" width="23.15401" height="23.15399" /><path class="cls-3" d="M208.40181,192.11066h-24.27637v-24.27637h24.27637v24.27637ZM185.24849,190.98761h22.03027v-22.03027h-22.03027v22.03027Z" /><rect class="cls-1" x="184.68654" y="191.51858" width="23.15401" height="23.15399" /><path class="cls-3" d="M208.40181,215.23371h-24.27637v-24.27637h24.27637v24.27637ZM185.24849,214.11066h22.03027v-22.03027h-22.03027v22.03027Z" /><rect class="cls-1" x="184.68654" y="214.6456" width="23.15401" height="23.15399" /><path class="cls-3" d="M208.40181,238.36066h-24.27637v-24.27637h24.27637v24.27637ZM185.24849,237.23761h22.03027v-22.03027h-22.03027v22.03027Z" /><rect class="cls-1" x="207.79954" y="6.52161" width="23.15401" height="23.15399" /><path class="cls-3" d="M231.51509,30.23664h-24.27734V5.96027h24.27734v24.27637ZM208.36079,29.11359h22.03125V7.08332h-22.03125v22.03027Z" /><rect class="cls-1" x="207.79954" y="29.64557" width="23.15401" height="23.15399" /><path class="cls-3" d="M231.51509,53.36066h-24.27734v-24.27637h24.27734v24.27637ZM208.36079,52.23761h22.03125v-22.03027h-22.03125v22.03027Z" /><rect class="cls-1" x="207.79954" y="52.77057" width="23.15401" height="23.15399" /><path class="cls-3" d="M231.51509,76.48566h-24.27734v-24.27637h24.27734v24.27637ZM208.36079,75.36261h22.03125v-22.03027h-22.03125v22.03027Z" /><rect class="cls-1" x="207.79954" y="75.89758" width="23.15401" height="23.15402" /><path class="cls-3" d="M231.51509,99.61359h-24.27734v-24.27734h24.27734v24.27734ZM208.36079,98.49054h22.03125v-22.03125h-22.03125v22.03125Z" /><rect class="cls-1" x="207.79954" y="99.01959" width="23.15401" height="23.15399" /><path class="cls-3" d="M231.51509,122.73468h-24.27734v-24.27637h24.27734v24.27637ZM208.36079,121.61164h22.03125v-22.03027h-22.03125v22.03027Z" /><rect class="cls-1" x="207.79954" y="122.14459" width="23.15401" height="23.15399" /><path class="cls-3" d="M231.51509,145.85968h-24.27734v-24.27637h24.27734v24.27637ZM208.36079,144.73664h22.03125v-22.03027h-22.03125v22.03027Z" /><rect class="cls-1" x="207.79954" y="145.26959" width="23.15401" height="23.15399" /><path class="cls-3" d="M231.51509,168.98468h-24.27734v-24.27637h24.27734v24.27637ZM208.36079,167.86164h22.03125v-22.03027h-22.03125v22.03027Z" /><rect class="cls-1" x="207.79954" y="168.3956" width="23.15401" height="23.15399" /><path class="cls-3" d="M231.51509,192.11066h-24.27734v-24.27637h24.27734v24.27637ZM208.36079,190.98761h22.03125v-22.03027h-22.03125v22.03027Z" /><rect class="cls-1" x="207.79954" y="191.51858" width="23.15401" height="23.15399" /><path class="cls-3" d="M231.51509,215.23371h-24.27734v-24.27637h24.27734v24.27637ZM208.36079,214.11066h22.03125v-22.03027h-22.03125v22.03027Z" /><rect class="cls-1" x="207.79954" y="214.6456" width="23.15401" height="23.15399" /><path class="cls-3" d="M231.51509,238.36066h-24.27734v-24.27637h24.27734v24.27637ZM208.36079,237.23761h22.03125v-22.03027h-22.03125v22.03027Z" /><path class="cls-3" d="M.56196,6.79132c-.17285,0-.34375-.08105-.4541-.23145-.18262-.25098-.12793-.60254.12305-.78516L8.00825.10871c.24805-.18457.60059-.12793.78516.12305.18262.25098.12793.60254-.12305.78516L.89302,6.68292c-.09961.07324-.21582.1084-.33105.1084Z" /><path class="cls-3" d="M231.08833,6.97199c-.16699,0-.33203-.0752-.44336-.2168-.19043-.24512-.14746-.59766.09766-.78906l7.06348-5.50879c.24414-.19141.59668-.14746.78906.09766.19043.24512.14746.59766-.09766.78906l-7.06348,5.50879c-.10254.08008-.22461.11914-.3457.11914Z" /><path class="cls-3" d="M238.15083,1.12531H8.47407c-.31055,0-.56152-.25098-.56152-.56152S8.16352.00226,8.47407.00226h229.67676c.31055,0,.56152.25098.56152.56152s-.25098.56152-.56152.56152Z" /><path class="cls-3" d="M238.15181,232.39484c-.31055,0-.56152-.25098-.56152-.56152V.9007c0-.31055.25098-.56152.56152-.56152s.56152.25098.56152.56152v230.93262c0,.31055-.25098.56152-.56152.56152Z" /><path class="cls-3" d="M231.08833,30.12531c-.16699,0-.33203-.0752-.44336-.2168-.19043-.24512-.14746-.59766.09766-.78906l7.06348-5.50781c.24414-.19043.59668-.14648.78906.09766.19043.24512.14746.59766-.09766.78906l-7.06348,5.50781c-.10254.08008-.22461.11914-.3457.11914Z" /><path class="cls-3" d="M231.08833,53.2796c-.16699,0-.33203-.0752-.44336-.2168-.19043-.24512-.14746-.59766.09766-.78906l7.06348-5.50781c.24414-.19043.59668-.14648.78906.09766.19043.24512.14746.59766-.09766.78906l-7.06348,5.50781c-.10254.08008-.22461.11914-.3457.11914Z" /><path class="cls-3" d="M231.08833,76.43292c-.16699,0-.33203-.0752-.44336-.2168-.19043-.24512-.14746-.59766.09766-.78906l7.06348-5.50781c.24414-.19043.59668-.14648.78906.09766.19043.24512.14746.59766-.09766.78906l-7.06348,5.50781c-.10254.08008-.22461.11914-.3457.11914Z" /><path class="cls-3" d="M231.08833,99.58722c-.16699,0-.33203-.0752-.44336-.2168-.19043-.24512-.14746-.59766.09766-.78906l7.06348-5.50781c.24414-.19141.59668-.14648.78906.09766.19043.24512.14746.59766-.09766.78906l-7.06348,5.50781c-.10254.08008-.22461.11914-.3457.11914Z" /><path class="cls-3" d="M231.08833,122.74054c-.16699,0-.33203-.0752-.44336-.2168-.19043-.24512-.14746-.59766.09766-.78906l7.06348-5.50781c.24414-.19043.59668-.14648.78906.09766.19043.24512.14746.59766-.09766.78906l-7.06348,5.50781c-.10254.08008-.22461.11914-.3457.11914Z" /><path class="cls-3" d="M231.08833,145.89484c-.16699,0-.33203-.0752-.44336-.2168-.19043-.24512-.14746-.59766.09766-.78906l7.06348-5.50781c.24414-.19043.59668-.14648.78906.09766.19043.24512.14746.59766-.09766.78906l-7.06348,5.50781c-.10254.08008-.22461.11914-.3457.11914Z" /><path class="cls-3" d="M231.08833,169.04816c-.16699,0-.33203-.0752-.44336-.2168-.19043-.24512-.14746-.59766.09766-.78906l7.06348-5.50781c.24414-.19043.59668-.14648.78906.09766.19043.24512.14746.59766-.09766.78906l-7.06348,5.50781c-.10254.08008-.22461.11914-.3457.11914Z" /><path class="cls-3" d="M231.08833,192.20246c-.16699,0-.33203-.0752-.44336-.2168-.19043-.24512-.14746-.59766.09766-.78906l7.06348-5.50781c.24414-.19043.59668-.14648.78906.09766.19043.24512.14746.59766-.09766.78906l-7.06348,5.50781c-.10254.08008-.22461.11914-.3457.11914Z" /><path class="cls-3" d="M231.08833,215.35675c-.16699,0-.33203-.0752-.44336-.2168-.19043-.24512-.14746-.59766.09766-.78906l7.06348-5.50879c.24414-.19043.59668-.14648.78906.09766.19043.24512.14746.59766-.09766.78906l-7.06348,5.50879c-.10254.08008-.22461.11914-.3457.11914Z" /><path class="cls-3" d="M231.08833,238.28546c-.16699,0-.33203-.0752-.44336-.2168-.19043-.24512-.14746-.59766.09766-.78906l7.06348-5.50781c.24414-.19141.59668-.14746.78906.09766.19043.24512.14746.59766-.09766.78906l-7.06348,5.50781c-.10254.08008-.22461.11914-.3457.11914Z" /><path class="cls-3" d="M23.71528,6.79132c-.17285,0-.34473-.08105-.4541-.23145-.18262-.25098-.12793-.60254.12305-.78516L31.16255.10871c.24805-.18457.60254-.12793.78516.12305s.12793.60254-.12305.78516l-7.77832,5.66602c-.09961.07324-.21582.1084-.33105.1084Z" /><path class="cls-3" d="M46.86958,6.79132c-.17285,0-.34375-.08105-.4541-.23145-.18262-.25098-.12793-.60254.12305-.78516L54.31587.10871c.24902-.18457.60059-.12793.78516.12305.18262.25098.12793.60254-.12305.78516l-7.77734,5.66602c-.09961.07324-.21582.1084-.33105.1084Z" /><path class="cls-3" d="M69.79829,6.79132c-.17285,0-.34473-.08105-.4541-.23145-.18262-.25098-.12793-.60254.12305-.78516L77.24556.10871c.24902-.18457.60156-.12793.78516.12305.18262.25098.12793.60254-.12305.78516l-7.77832,5.66602c-.09961.07324-.21582.1084-.33105.1084Z" /><path class="cls-3" d="M92.95259,6.79132c-.17285,0-.34375-.08105-.4541-.23145-.18262-.25098-.12793-.60254.12305-.78516L100.39888.10871c.24902-.18457.60156-.12793.78516.12305.18262.25098.12793.60254-.12305.78516l-7.77734,5.66602c-.09961.07324-.21582.1084-.33105.1084Z" /><path class="cls-3" d="M115.8813,6.79132c-.17285,0-.34473-.08105-.4541-.23145-.18262-.25098-.12793-.60254.12305-.78516L123.32856.10871c.24902-.18457.60254-.12793.78516.12305s.12793.60254-.12305.78516l-7.77832,5.66602c-.09961.07324-.21582.1084-.33105.1084Z" /><path class="cls-3" d="M138.81001,6.79132c-.17285,0-.34473-.08105-.4541-.23145-.18262-.25098-.12793-.60254.12305-.78516L146.25727.10871c.24805-.18457.60254-.12793.78516.12305s.12793.60254-.12305.78516l-7.77832,5.66602c-.09961.07324-.21582.1084-.33105.1084Z" /><path class="cls-3" d="M161.7397,6.79132c-.17285,0-.34375-.08105-.4541-.23145-.18262-.25098-.12793-.60254.12305-.78516L169.18599.10871c.24805-.18457.60059-.12793.78516.12305.18262.25098.12793.60254-.12305.78516l-7.77734,5.66602c-.09961.07324-.21582.1084-.33105.1084Z" /><path class="cls-3" d="M184.89302,6.79132c-.17285,0-.34473-.08105-.4541-.23145-.18262-.25098-.12793-.60254.12305-.78516L192.34028.10871c.24805-.18457.60254-.12793.78516.12305s.12793.60254-.12305.78516l-7.77832,5.66602c-.09961.07324-.21582.1084-.33105.1084Z" /><path class="cls-3" d="M207.82173,6.79132c-.17285,0-.34473-.08105-.4541-.23145-.18262-.25098-.12793-.60254.12305-.78516L215.26899.10871c.24805-.18457.60254-.12793.78516.12305s.12793.60254-.12305.78516l-7.77832,5.66602c-.09961.07324-.21582.1084-.33105.1084Z" /></svg>