<?xml version="1.0" encoding="utf-8"?>
<!-- Generator: Adobe Illustrator 21.1.0, SVG Export Plug-In . SVG Version: 6.00 Build 0)  -->
<svg version="1.1" id="Chapter_Icon_3A" xmlns="http://www.w3.org/2000/svg" xmlns:xlink="http://www.w3.org/1999/xlink" x="0px"
	 y="0px" viewBox="0 0 40 40" style="enable-background:new 0 0 40 40;" xml:space="preserve" width="40" height="40" preserveAspectRatio="none">
<polygon fill="#FFCE41" points="34.1,6.9 21.3,0.5 6.1,7.1 0.5,19.4 5.2,35.2 20.3,39.5 35.7,32.1 39.5,18.9 "/>
<g>
	<path fill="#2B82AE" d="M17.1,21.8h1.6v1.8h-1.6v1.4l1.5,0.3v1.7h-5.7v-1.7l1.5-0.3v-1.4H8.7l-0.1-1.4l5.7-9.1h2.8V21.8z M11.1,21.8
		h3.2v-5l-0.1,0L14,17.2L11.1,21.8z"/>
	<path fill="#2B82AE" d="M25.8,13.1c1.6,0,2.9,0.3,3.8,0.9c0.9,0.6,1.4,1.6,1.4,2.8c0,0.6-0.2,1.2-0.5,1.7c-0.3,0.5-0.8,0.9-1.5,1.1
		c0.8,0.2,1.4,0.6,1.9,1.1c0.4,0.6,0.6,1.3,0.6,2c0,1.3-0.4,2.3-1.3,3c-0.9,0.7-2.1,1-3.7,1h-6.8v-1.7l1.5-0.3v-9.9l-1.5-0.3v-1.7
		h1.5H25.8z M23.9,18.9h2c0.7,0,1.3-0.2,1.7-0.5c0.4-0.3,0.6-0.7,0.6-1.3c0-0.6-0.2-1.1-0.6-1.4c-0.4-0.3-1-0.5-1.8-0.5h-1.9V18.9z
		 M23.9,20.8v4h2.5c0.7,0,1.3-0.2,1.7-0.5s0.6-0.8,0.6-1.4c0-0.7-0.2-1.2-0.5-1.5s-0.8-0.5-1.6-0.5H23.9z"/>
</g>
</svg>
