<?xml version="1.0" encoding="utf-8"?>
<!-- Generator: Adobe Illustrator 21.1.0, SVG Export Plug-In . SVG Version: 6.00 Build 0)  -->
<svg version="1.1" id="Chapter_Icon_3A" xmlns="http://www.w3.org/2000/svg" xmlns:xlink="http://www.w3.org/1999/xlink" x="0px"
	 y="0px" viewBox="0 0 40 40" style="enable-background:new 0 0 40 40;" xml:space="preserve" width="40" height="40" preserveAspectRatio="none">
<polygon fill="#FFCE41" points="34.1,6.9 21.3,0.5 6.1,7.1 0.5,19.4 5.2,35.2 20.3,39.5 35.7,32.1 39.5,18.9 "/>
<g>
	<path fill="#2D7C24" d="M12.2,18.8h1.6c0.7,0,1.1-0.2,1.5-0.5s0.5-0.8,0.5-1.4c0-0.6-0.2-1-0.5-1.3S14.4,15,13.8,15
		c-0.5,0-1,0.2-1.3,0.5S12,16.2,12,16.7H9.3l0-0.1c0-1.1,0.4-2,1.2-2.7c0.9-0.7,1.9-1.1,3.2-1.1c1.4,0,2.6,0.3,3.4,1
		c0.8,0.7,1.3,1.7,1.3,2.9c0,0.6-0.2,1.2-0.6,1.7c-0.4,0.5-0.9,1-1.6,1.3c0.8,0.3,1.3,0.7,1.7,1.2c0.4,0.6,0.6,1.2,0.6,2
		c0,1.3-0.5,2.3-1.4,3c-0.9,0.7-2.1,1.1-3.5,1.1c-1.3,0-2.4-0.3-3.3-1c-0.9-0.7-1.4-1.6-1.3-2.9l0-0.1h2.7c0,0.5,0.2,1,0.6,1.3
		c0.4,0.3,0.9,0.5,1.4,0.5c0.6,0,1.1-0.2,1.5-0.5c0.4-0.4,0.6-0.8,0.6-1.4c0-0.7-0.2-1.3-0.5-1.6c-0.4-0.3-0.9-0.5-1.6-0.5h-1.6
		V18.8z"/>
	<path fill="#2D7C24" d="M30.9,17.8h-2.1l-0.3-1.8c-0.3-0.3-0.6-0.5-1-0.6S26.6,15,26.1,15c-1.2,0-2.1,0.4-2.8,1.3c-0.6,0.9-1,2-1,3.4
		v0.5c0,1.4,0.3,2.5,1,3.4c0.6,0.9,1.6,1.3,2.7,1.3c0.5,0,1-0.1,1.5-0.2c0.5-0.2,0.8-0.4,1-0.6l0.3-1.8h2.1V25
		c-0.6,0.6-1.3,1.2-2.1,1.5c-0.9,0.4-1.8,0.6-2.9,0.6c-1.8,0-3.4-0.6-4.5-1.9c-1.2-1.3-1.8-2.9-1.8-4.9v-0.5c0-2,0.6-3.6,1.8-4.9
		s2.7-1.9,4.6-1.9c1.1,0,2,0.2,2.9,0.6s1.6,0.9,2.1,1.5V17.8z"/>
</g>
</svg>
