<svg version="1.1" xmlns="http://www.w3.org/2000/svg" xmlns:xlink="http://www.w3.org/1999/xlink" x="0px" y="0px" viewBox="0 0 53 38" style="enable-background:new 0 0 53 38;" xml:space="preserve" width="53" height="38" preserveAspectRatio="none"><style type="text/css">
	.st0{fill:#A2D86D;}
	.st1{fill:#539D3F;}
</style><path class="st0" d="M43.7,0.7C39.3,0.7,35,2.7,35,2.7C35,2.7,34.6,2.5,34,2.3C32.4,1.7,29.4,0.7,26.3,0.7C21.2,0.7,18,2.1,18,2.1L20.6,14.1C20.6,14.1,24,13.7,26.3,11.1C27.2,11.5,31,13,34.8,13C34.9,13,35,13,35.1,13C39.4,12.9,43.6,11,43.6,11C43.6,11,48,13,52.3,13C52.4,13,52.5,13,52.6,13L52.6,2.7C52.4,2.7,48.1,0.7,43.7,0.7Z" /><path class="st1" d="M43.4,10.8c0.9-0.3,1.7-0.9,2.5-1.6c0.8-0.7,1.5-1.5,2.2-2.2l2.1-2.3c0.7-0.7,1.4-1.5,2.2-2c-0.9,0.1-1.8,0.7-2.6,1.3c-0.8,0.6-1.5,1.4-2.3,2.1c-0.7,0.8-1.4,1.6-2.1,2.4C44.8,9.3,44.2,10.1,43.4,10.8z" /><path class="st1" d="M26.2,10.9c0.9-0.3,1.6-1,2.3-1.7C29.3,8.6,30,7.8,30.7,7l2.1-2.3C33.5,4,34.2,3.2,35,2.7c-0.9,0.1-1.8,0.7-2.6,1.3c-0.8,0.6-1.5,1.4-2.2,2.2c-0.7,0.8-1.4,1.6-2,2.4C27.5,9.4,27,10.2,26.2,10.9z" /></svg>
