<svg version="1.1" xmlns="http://www.w3.org/2000/svg" xmlns:xlink="http://www.w3.org/1999/xlink" x="0px" y="0px" viewBox="0 0 60 35" style="enable-background:new 0 0 60 35;" xml:space="preserve" width="60" height="35" preserveAspectRatio="none"><style type="text/css">
	.st0{fill:#52A0CC;}
	.st1{fill:#26628B;}
</style><path class="st0" d="M25.1,2.3C25.1,2.3,20.3,4.3,17.6,7C14.5,10.1,12.9,14.6,12.9,14.6C12.9,14.6,8.4,16.2,5.3,19.3C2.2,22.4,0.6,26.9,0.6,26.9L7.8,34.1C10.8,31,12.4,26.7,12.4,26.7C12.4,26.7,16.9,25.1,20,22C20.1,21.9,20.1,21.9,20.2,21.8C23.2,18.7,24.8,14.4,24.8,14.4Z" /><path class="st1" d="M12.2,26.7c0.5-0.8,0.6-1.9,0.6-2.9c0.1-1,0-2.1,0-3.1l-0.1-3.1c0-1,0-2,0.2-3c-0.6,0.7-0.8,1.8-0.9,2.8c-0.1,1-0.1,2.1-0.1,3.1c0,1,0.1,2.1,0.2,3.2C12.1,24.7,12.3,25.7,12.2,26.7z" /></svg>
