<svg version="1.1" xmlns="http://www.w3.org/2000/svg" xmlns:xlink="http://www.w3.org/1999/xlink" x="0px" y="0px" viewBox="0 0 37 25" style="enable-background:new 0 0 37 25;" xml:space="preserve" width="37" height="25" preserveAspectRatio="none"><style type="text/css">
	.st0{fill:#E55CAD;}
	.st1{fill:#A73B86;}
</style><path class="st0" d="M36.5,2.5C36.4,2.5,32,0.5,27.7,0.5C23.3,0.5,19,2.5,19,2.5C11.8,-0.9,5.3,0.6,0.7,6.5L18.9,12.7C23.2,12.6,27.5,10.6,27.5,10.6C27.5,10.6,31.9,12.6,36.2,12.6C36.3,12.6,36.4,12.6,36.5,12.6Z" /><path class="st1" d="M11.4,10.2C11.4,10.2,11.8,9.8,12.5,9.2C13.3,8.5,14,7.7,14.7,7L16.8,4.7C17.5,4,18.2,3.2,19,2.7C18.1,2.8,17.2,3.4,16.4,4C15.6,4.6,14.9,5.4,14.2,6.2C13.5,7,12.8,7.8,12.2,8.6C11.4,9.2,11,10,11,10Z" /><path class="st1" d="M27.4,10.6c0.9-0.3,1.7-0.9,2.5-1.6c0.8-0.7,1.5-1.5,2.2-2.2l2.1-2.3c0.7-0.7,1.4-1.5,2.2-2c-0.9,0.1-1.8,0.7-2.6,1.3C33,4.5,32.2,5.2,31.5,6c-0.7,0.8-1.4,1.6-2.1,2.4C28.8,9.2,28.2,10,27.4,10.6z" /></svg>
