<svg version="1.1" xmlns="http://www.w3.org/2000/svg" xmlns:xlink="http://www.w3.org/1999/xlink" x="0px" y="0px" viewBox="0 0 36 25" style="enable-background:new 0 0 36 25;" xml:space="preserve" width="36" height="25" preserveAspectRatio="none"><style type="text/css">
	.st0{fill:#66C8A1;}
	.st1{fill:#0E907D;}
</style><path class="st0" d="M0.6,2.3C0.6,2.3,0.5,6.8,1.7,9.5C2.7,11.8,4.5,13.9,5.8,15.1C6.6,16.6,7.7,18.3,9.1,19.7C12.2,22.8,16.7,24.4,16.7,24.4L23.9,17.2C22.2,15.5,20.2,14.2,18.6,13.4C18,13.1,17.2,12.8,17.2,12.8Z" /><path class="st1" d="M17.3,12.9c-0.8-0.5-3.9-0.9-6.8-0.8c-1.1,0-3.1,0.1-3.1,0.1c-1,0-2,0-3-0.1c0.7,0.6,1.8,0.8,2.8,0.9c1,0.1,3,0,3.8,0C13.5,12.7,16.3,12.8,17.3,12.9z" /><path class="st1" d="M7,12.3C7.9,12,10,10.3,10.8,9.7L11.4,9.2L10.7,8.7L10.3,9.1C9.5,10,7.8,11.6,7,12.3Z" /><path class="st1" d="M4.5,12.1c0.5,0.8,1,2.3,1.4,3.1c-0.6-0.5-0.8-0.7-1-1.3C4.5,13.3,4.5,12.8,4.5,12.1z" /></svg>
