<svg version="1.1" xmlns="http://www.w3.org/2000/svg" xmlns:xlink="http://www.w3.org/1999/xlink" x="0px" y="0px" viewBox="0 0 36 25" style="enable-background:new 0 0 36 25;" xml:space="preserve" width="36" height="25" preserveAspectRatio="none"><style type="text/css">
	.st0{fill:#FF6673;}
	.st1{fill:#B93844;}
</style><path class="st0" d="M35.7,2.7C35.4,2.7,31,0.7,26.7,0.7C22.3,0.7,18,2.7,18,2.7C18,2.7,17.6,2.5,17,2.3C15.4,1.7,12.4,0.7,9.3,0.7C3.2,0.7,0.8,2.3,0.7,2.4L16.8,12.7C17.2,12.7,17.5,12.7,17.9,12.7C18,12.7,18.1,12.7,18.2,12.7C22.5,12.6,26.7,10.7,26.7,10.7C26.7,10.7,31.1,12.7,35.4,12.7C35.5,12.7,35.6,12.7,35.7,12.7Z" /><path class="st1" d="M26.4,10.8c0.9-0.3,1.7-0.9,2.5-1.6c0.8-0.7,1.5-1.5,2.2-2.2l2.1-2.3c0.7-0.7,1.4-1.5,2.2-2c-0.9,0.1-1.8,0.7-2.6,1.3c-0.8,0.6-1.5,1.4-2.3,2.1c-0.7,0.8-1.4,1.6-2.1,2.4C27.8,9.3,27.2,10.1,26.4,10.8z" /><path class="st1" d="M11.5,9.3C12.2,8.6,12.9,7.8,13.6,7.1L15.7,4.8C16.4,4.1,17.1,3.3,17.9,2.8C17,2.8,16.2,3.4,15.4,4C14.6,4.6,13.9,5.4,13.1,6.1C12.4,6.9,11.7,7.7,10.9,9Z" /></svg>
