<svg version="1.1" xmlns="http://www.w3.org/2000/svg" xmlns:xlink="http://www.w3.org/1999/xlink" x="0px" y="0px" viewBox="0 0 36 25" style="enable-background:new 0 0 36 25;" xml:space="preserve" width="36" height="25" preserveAspectRatio="none"><style type="text/css">
	.st0{fill:#A2D86D;}
	.st1{fill:#539D3F;}
</style><path class="st0" d="M26.7,0.7c-4.4,0-8.7,2-8.7,2c0,0-0.4-0.2-1-0.4c-1.6-0.6-4.6-1.6-7.7-1.6c-6.1,0-8.5,1.6-8.6,1.7c-0.3,2,0.2,5.8,1.6,8.4c1.1,2.2,3,4,4.5,5.1c0.3,0.6,0.5,1.2,0.9,1.7c0.8,1.4,2.1,3,3.7,4.5c1.4,1.3,2.6,2.1,2.6,2.1l8.8-5.1c-2.2-3.7-6-6.4-6-6.4c0.4,0,0.7,0,1.1,0c0.1,0,0.2,0,0.3,0c4.3-0.1,8.5-2,8.5-2s4.4,2,8.7,2c0.1,0,0.2,0,0.3,0V2.7C35.4,2.7,31,0.7,26.7,0.7z" /><path class="st1" d="M26.4,10.8c0.9-0.3,1.7-0.9,2.5-1.6c0.8-0.7,1.5-1.5,2.2-2.2l2.1-2.3c0.7-0.7,1.4-1.5,2.2-2c-0.9,0.1-1.8,0.7-2.6,1.3c-0.8,0.6-1.5,1.4-2.3,2.1c-0.7,0.8-1.4,1.6-2.1,2.4C27.8,9.3,27.2,10.1,26.4,10.8z" /><path class="st1" d="M16.6,12.8c-0.6-0.6-1.5-0.9-2.5-1.2c-1-0.3-2-0.6-3-0.8l-3-0.7c-1-0.2-2-0.5-2.9-0.9c0.6,0.8,1.5,1.2,2.4,1.6c0.9,0.4,2,0.6,3,0.9c1,0.2,2.1,0.4,3.1,0.6C14.8,12.5,15.8,12.6,16.6,12.8z" /><path class="st1" d="M9.1,10.9c0.9-0.3,1.6-0.9,2.3-1.6c0.8-0.7,1.5-1.5,2.2-2.2l2.1-2.3c0.7-0.7,1.4-1.5,2.2-2C17,2.8,16.2,3.4,15.4,4c-0.8,0.6-1.5,1.4-2.3,2.1c-0.7,0.8-1.4,1.6-2.1,2.4C10.4,9.3,9.9,10.2,9.1,10.9z" /><path class="st1" d="M5.3,9.2L5.6,11c0.1,0.6,0.2,1.1,0.3,1.7c0.1,0.5,0.3,1.1,0.4,1.6c0.1,0.6,0.3,1.1,0.4,1.7c-0.9-0.8-1.4-2-1.7-3.2c-0.1-0.6-0.2-1.2-0.2-1.8C4.9,10.4,5,9.8,5.3,9.2z" /></svg>
