<svg version="1.1" xmlns="http://www.w3.org/2000/svg" xmlns:xlink="http://www.w3.org/1999/xlink" x="0px" y="0px" viewBox="0 0 37 37" style="enable-background:new 0 0 37 37;" xml:space="preserve" width="37" height="37" preserveAspectRatio="none"><style type="text/css">
	.st0{fill:#FF6673;}
	.st1{fill:#B93844;}
</style><path class="st0" d="M2.3,1.8C2.3,1.8,0.2,5.3,0.2,10.4C0.2,14.8,2.2,19.1,2.2,19.1C2.2,19.1,0.2,23.5,0.2,27.8C0.2,32.2,2.2,36.5,2.2,36.5L12.3,36.5C12.2,32.2,10.3,28,10.3,28C10.3,28,12.3,23.6,12.3,19.3C12.3,19.2,12.3,19.1,12.3,19C12.2,16.2,11.4,13.5,10.8,11.9Z" /><path class="st1" d="M10.4,28.1c-0.3-0.9-0.9-1.7-1.6-2.5c-0.7-0.8-1.5-1.5-2.2-2.2l-2.3-2.1c-0.7-0.7-1.5-1.4-2-2.2c0.1,0.9,0.7,1.8,1.3,2.6c0.6,0.8,1.4,1.5,2.1,2.3c0.8,0.7,1.6,1.4,2.4,2.1C8.9,26.8,9.7,27.4,10.4,28.1z" /></svg>
