<svg version="1.1" xmlns="http://www.w3.org/2000/svg" xmlns:xlink="http://www.w3.org/1999/xlink" x="0px" y="0px" viewBox="0 0 18 13" style="enable-background:new 0 0 18 13;" xml:space="preserve" width="18" height="13" preserveAspectRatio="none"><style type="text/css">
	.st0{fill:#52A0CC;}
	.st1{fill:#26628B;}
</style><path class="st0" d="M17.5,12.6c-4.4,0-8.7-2-8.7-2s-4.2,1.9-8.5,2V2.4c0,0,4.4-2,8.7-2s8.7,2,8.7,2v10.1C17.6,12.6,17.5,12.6,17.5,12.6z" /><path class="st1" d="M8.7,10.6c0.9-0.3,1.7-0.9,2.5-1.6c0.8-0.7,1.5-1.5,2.2-2.2l2.1-2.3c0.7-0.7,1.4-1.5,2.2-2c-0.9,0.1-1.8,0.7-2.6,1.3c-0.8,0.6-1.5,1.4-2.3,2.1c-0.7,0.8-1.4,1.6-2.1,2.4C10.1,9.1,9.5,9.9,8.7,10.6z" /></svg>
