<?xml version="1.0" encoding="utf-8"?>
<!-- Generator: Adobe Illustrator 21.1.0, SVG Export Plug-In . SVG Version: 6.00 Build 0)  -->
<svg version="1.1" xmlns="http://www.w3.org/2000/svg" xmlns:xlink="http://www.w3.org/1999/xlink" x="0px" y="0px"
	 viewBox="0 0 98 60" enable-background="new 0 0 98 60" xml:space="preserve" width="98" height="60" preserveAspectRatio="none">
<g id="Layer_1">
</g>
<g id="Layer_2">
	<g>
		<g>
			<path fill="#956A28" d="M96.4,31.2l-1.1,11.1c0,0-2.5,2.4-3.8,3.6c-1.3,1.2-6.4,5.4-18.8,8.5s-22.5,3.4-36.4,1.8
				c-13.9-1.5-18.7-4.6-22.9-6.5c-4.2-1.9-11.6-9.2-10.8-9.4c0.8-0.2-1.4-11.5-1.1-11S96.7,31.5,96.4,31.2z"/>
			<path d="M49.4,58.1c-8.2,0-18-2.1-24.7-3.5C9.1,51.1,2.9,42.2,2.5,40.4c-0.4-1.5-1.1-9.4-1.1-11l0.4-1.1l0.1,0.1l95.2-0.6
				c-0.1,5.6-0.6,10.6-1.8,14.6l-0.1,0.1c-0.1,0.1-2.2,4.3-9.5,7.9C71.9,57.1,61.2,58.1,49.4,58.1z M2.4,29.3
				C2.6,32.1,3.5,40,3.8,40.4c1,1.9,6.7,9.7,22.6,12.9C48.8,58,67,57.5,86.2,48.5c3.9-1.8,7.8-6.1,8.2-6.6l2-12.9L2.4,29.3z"/>
		</g>
		<g>
			<linearGradient id="SVGID_1_" gradientUnits="userSpaceOnUse" x1="46.9969" y1="1.3423" x2="52.4589" y2="75.3281">
				<stop  offset="0" style="stop-color:#FFE579"/>
				<stop  offset="1" style="stop-color:#997735"/>
			</linearGradient>
			<path fill-rule="evenodd" clip-rule="evenodd" fill="url(#SVGID_1_)" d="M25.2,46.2C2.5,40.2-5.4,25.5,6.9,14.4S48.9-1,71.7,5
				s32.1,19.5,18.4,32.4C78.1,48.6,47.9,52.3,25.2,46.2z"/>
			<path fill-rule="evenodd" clip-rule="evenodd" fill="#956A28" d="M19.2,31.9c0,0,6,1.5,8.6,2c2.6,0.6,3.8,0.3,3.6,1
				c-0.2,0.7,1,1.5,3.2,2c2.1,0.5,2.8,0.1,3.3,0.3c0.5,0.2,1.7,1.6,1.7,1.6l-1.3-2.2c0,0-2.3,0.1-2.5,0s-1.8-0.4-2.3-1.1
				c-0.5-0.6-1.1-1.3-1.2-1.5c-0.1-0.1-3.6-0.5-3.9-0.5C28.2,33.6,19.2,31.9,19.2,31.9z"/>
			<path fill-rule="evenodd" clip-rule="evenodd" fill="#956A28" d="M60,14.3c0,0,4.3,1.2,5.9,2.2s1.1,1.2,2.7,1.6
				c1.6,0.4,3.9,1.5,5.1,3c1.1,1.5,1.4,2.8,1.3,3c-0.2,0.1-1.7,0.2-1.7,0.2l1.4,0.5c0,0-2.5,0.5-2.6,0.3c-0.1-0.1-2.2-2.1-2.1-2.2
				s-0.2-2-0.2-2L69,19.6l-0.9-0.7l-2-1.2l-2.9-2L60,14.3z"/>
			<path fill-rule="evenodd" clip-rule="evenodd" fill="#956A28" d="M73.1,24.3c0.2-0.2,7.7-1.4,13.6-2c5.9-0.6,9.1-1,9.1-0.8
				c0,0.1,0.4,1.7,0.1,1.5c-0.2-0.1-10.9,0.8-11.3,0.7c-0.4-0.1-9.5,1.2-9.7,1.2c-0.2-0.1-1.7,0-1.7,0L73.1,24.3z"/>
			<path fill-rule="evenodd" clip-rule="evenodd" fill="#956A28" d="M50.6,17c-0.1,0.1-0.5,0.5-1.3,0.7c-0.8,0.3-0.7,0.2-1.2,0.8
				c-0.5,0.5-0.9,0.7-1.5,1c-0.6,0.3-1.3,0.7-1.3,0.7S45.1,21.3,44,22c-1,0.8-2.4,1-2.5,1.1c-0.1,0.1-0.5,1.5-2,2.1
				c-1.5,0.5-2.5,0.3-2.5,0.3s1.2,0,2.3-0.7c1-0.7,0.7-1.3,0.9-1.4c0.1-0.1,0.1-0.7,0.1-0.7s0.8,0.1,2.3-0.7
				c1.5-0.7,1.5-1.1,1.6-1.5c0.1-0.4-0.1-1.1-0.1-1.1s1.5-0.2,2.2-0.6s1.2-1.2,1.3-1.3c0.1-0.1,2-0.9,2-0.9L50.6,17z"/>
			<path fill-rule="evenodd" clip-rule="evenodd" fill="#956A28" d="M27.9,30.8c0.4,0,3.6-0.3,4.3,0.5c0.6,0.8,2.4,0.6,2.4,0.6
				s-1.4-0.3-1.4-0.7s-0.2-1.1-0.2-1.1L31,30.4L27.9,30.8z"/>
			<path fill-rule="evenodd" clip-rule="evenodd" fill="#956A28" d="M58.4,48.6c-0.1-0.3-2.1-3.9-1.3-3.7c0.9,0.2,5,3.5,5,3.5
				l-0.5,0.2C61.7,48.7,58.5,48.8,58.4,48.6z"/>
			<path fill-rule="evenodd" clip-rule="evenodd" fill="#956A28" d="M87.2,27.1c0.2,0.1,2.3,0.4,3,0.1c1-0.6,1-0.6,1-0.6l4.7,1
				l0.5,1.3L87.2,27.1z"/>
			<path fill-rule="evenodd" clip-rule="evenodd" fill="#F3D871" d="M46.3,13.7c0,0-1.3,0.3-2.2,1.1c-0.9,0.8-0.6,1.1-0.6,1.1
				s-1.8,0.2-2.8,1.1S40,18.6,40,18.6s-0.2,0-0.5,0.1c-0.4,0.1-1.1,0.4-2,1.1c-1,0.9-1,1.4-0.9,1.6c0,0.1,0.1,0.2,0.1,0.2
				s-2,0.4-2.9,1.2C33,23.6,33,24.5,33,24.5s-1-0.5-0.5-1.3s0.8-1.2,1.7-1.4c0.9-0.2,3.6-0.1,3.6-0.1s-2.3-0.5-2.1-1.2
				c0.2-0.7,1.6-1.3,1.6-1.3l1.2-0.4c0,0,0.7,0,0.5-0.7c-0.2-0.7-0.5-1.2,0.9-1.7c1.4-0.5,2.6-0.5,2.6-0.5s-1.1-0.3,0.1-1.2
				S45.4,13.3,46.3,13.7z"/>
			<path fill-rule="evenodd" clip-rule="evenodd" fill="#F3D871" d="M48.6,24.9c0.2,0-0.1-2.3,1.8-3.1c1.9-0.8,4.8-1.7,6.7-3.4
				c1.9-1.6,1.8-3,2.8-3.3c1.1-0.3,2.1,0.1,1.9-0.1c-0.2-0.2-2.4-1.1-3.1-0.5c-1.2,1.1-1.5,2.7-3.3,3.7c-1.7,1.1-5.3,2.5-5.5,2.6
				s-1.7,1.5-1.9,1.6C47.9,22.8,47.8,24.7,48.6,24.9z"/>
			<path fill-rule="evenodd" clip-rule="evenodd" fill="#F3D871" d="M22,32c0,0,2.6-0.6,4.4-1.2s5.7-1,6.6-1.1
				c0.9-0.1,1.1,0.1,1.4,0.6c0.3,0.5,0.4,0.8,0.9,1c0.5,0.2,1.5,0.2,1.5,0.2l-1.4,0.3c0,0-1.9,0.2-2.1-0.2c-0.1-0.4-0.4-1.5-0.4-1.5
				l-4.3,0.6l-3.3,0.8c0,0-1.5,0.6-1.8,0.6C23.4,32.1,22,32,22,32z"/>
			<path fill-rule="evenodd" clip-rule="evenodd" fill="#DBBF62" d="M76.8,24.8c0,0,3-0.2,5.7,0.2c2.7,0.4,4.7,0.8,4.4,0.7
				S85.1,25,85.1,25s2.1-0.4,4.7-0.7c2.7-0.3,6.9-0.1,6.9-0.3s-0.4-1.2-0.7-1.3s-9.2,0.7-9.2,0.7L76.8,24.8z"/>
			<path fill-rule="evenodd" clip-rule="evenodd" fill="#DBBF62" d="M38.7,44.3c0.1,0.2,0.4-3.2,2.6-3.8c2.2-0.6,5.8-0.6,5.6-0.7
				c-0.2-0.1-7.4-1.2-7.5-1C39.2,38.9,38.1,43.4,38.7,44.3z"/>
			<path fill-rule="evenodd" clip-rule="evenodd" fill="#DBBF62" d="M45.6,36c0,0,7.7,0.9,12.9,0.8s12-0.9,12-0.9S60,36.2,59.7,36.1
				C59.4,36,45.6,36,45.6,36z"/>
			<path fill-rule="evenodd" clip-rule="evenodd" fill="#DBBF62" d="M71.2,26.5c0.4-0.1,4.7,0.2,4.7,0.2l-0.1-0.7l-4.4-0.4
				L71.2,26.5z"/>
			<path fill-rule="evenodd" clip-rule="evenodd" fill="#DBBF62" d="M73.6,29.6c-0.1,0.1,0.4,0.6,0.4,0.6l5-0.7c0,0,1.7,1.8,1.6,1.7
				c0-0.2-1.2-2.5-1.2-2.5L73.6,29.6z"/>
			<path fill-rule="evenodd" clip-rule="evenodd" d="M10.1,15.4c0.1-0.1,0.2-0.2,0.4-0.3c1.9,0.5,3.4,0.4,5.4,1.1
				c-0.4-0.9-2.1-1.6-2.4-2.4c1.7,0,4.8,0.9,6.2,1.3c-1.1,0.4-3-0.5-4.5-0.9c0.7,0.9,2.4,1.6,2.5,2.6C15.6,17.3,12.5,15.6,10.1,15.4
				z"/>
			<path fill-rule="evenodd" clip-rule="evenodd" d="M14.9,12.5c0.2-0.2,0.5-0.1,0.9,0c1.3-0.7,2.2-2.1,3.8-2.3
				c0.8,0.8-2,1.7-2.9,2.4c1,0.6,3.4,1,3.9,1.6C18.5,14.9,16.5,13,14.9,12.5z"/>
			<path fill-rule="evenodd" clip-rule="evenodd" d="M12.2,16.6c0.5,0.3-0.1,1-0.4,1.5c-0.3,0.5-0.3,1.3-1.5,1.3
				C9.9,19,10.4,17.1,12.2,16.6z"/>
			<path fill-rule="evenodd" clip-rule="evenodd" d="M7.7,20.3c0.1-0.1,0.3-0.2,0.4-0.1c2.1,0.3,3.8-0.1,6,0.3
				C13.2,21.2,9.1,20.7,7.7,20.3z"/>
			<path fill-rule="evenodd" clip-rule="evenodd" d="M18.1,12.3c0.6-0.4,1.4-0.5,1.8-1.1c0.3,0.1,0.7,0.2,1,0.3
				C20.3,12.2,19.3,12.5,18.1,12.3z"/>
			<path fill-rule="evenodd" clip-rule="evenodd" d="M21.1,10.2c1.6-0.2,4.6,0.8,4.6,1.5C24,12.2,22.6,10.6,21.1,10.2z"/>
			<path fill-rule="evenodd" clip-rule="evenodd" d="M23.8,8.4c2.2,0.5,4.2,1.7,4,2.7c-2.5-0.2-2.3-1.5-4.5-2.1
				c-0.1-0.1,0.2-0.3-0.1-0.4C23.4,8.4,23.7,8.5,23.8,8.4z"/>
			<path fill-rule="evenodd" clip-rule="evenodd" d="M5,24.5c0.6-0.3,1.5-0.3,2.3-0.3c-0.1-1.1,2.9-1.3,4.6-1.1
				c-0.8,1.1-2.6,0.1-3.5,0.9c0.7,0.3,2.3-0.3,3.6,0.2c-0.8,1-2.5,0.3-3.7,0.6c-0.5,0.4-0.1,0.6-0.2,0.9c1.6,0.1,3-0.4,4.8,0.1
				C12.2,27,9.7,27.1,8,27.6c1,0.2,2.5,0,3.2,0.6c-1.5,0.2-3.3,0-5.2-0.5C7.5,27,9.5,27,11,26.2c-1.4-0.2-2.5,0.1-4-0.2
				c0.2-0.5,0-0.9,0.1-1.3C6.4,24.5,5.9,24.8,5,24.5z"/>
			<path fill-rule="evenodd" clip-rule="evenodd" d="M8.1,21.8c1.7-0.1,3.5,0,5.4,0.3C12.2,22.9,9.5,22.3,8.1,21.8z"/>
			<path fill-rule="evenodd" clip-rule="evenodd" d="M20.5,11.2c0.1-0.1,0.2-0.2,0.4-0.3c1.2,0.6,3.9,0.9,3.9,1.6
				C22.9,12.8,21.8,11.6,20.5,11.2z"/>
			<path fill-rule="evenodd" clip-rule="evenodd" d="M13.9,17.4c1,0.5,0,1.2-0.8,1.7C12,18.7,13.1,17.7,13.9,17.4z"/>
			<path fill-rule="evenodd" clip-rule="evenodd" d="M29.8,6.5c1.5-0.2,2.4-1.4,4.3-0.8c-0.8,0.6-2,0.6-3,0.9
				c-0.1,0.3,0.9,0.5,1.1,0.7c0.7-0.7,1.6-0.9,2.8-0.7c-0.9,0-1.3,0.9-2.1,1c-0.2,0.4,1.3,0.9,0.3,1.2C31.6,8.5,30.3,7.3,29.8,6.5z"
				/>
			<path fill-rule="evenodd" clip-rule="evenodd" d="M6.4,29.5c2.1-0.2,3.9-1,6.4-0.5C11,29.9,8.7,29.6,6.4,29.5z"/>
			<path fill-rule="evenodd" clip-rule="evenodd" d="M10.3,31.5c-1.4-0.1-1.2-1.1-3.1-1.4c-1,0.6,0.6,1-0.2,1.6
				c-0.7-0.6-1.3-1.1-0.2-2C8.5,30,11.1,30.7,10.3,31.5z"/>
			<path fill-rule="evenodd" clip-rule="evenodd" d="M35.7,5.8c1.3,0.6,2.4,1.2,2.8,1.9c-0.3,0.3-0.7,0.2-1,0.4
				C36.1,7.4,35.3,6.6,35.7,5.8z"/>
			<path fill-rule="evenodd" clip-rule="evenodd" d="M38.8,4.6c0.8,0.6,2.3,1,1.5,1.8C38.9,6.2,37.5,5.4,38.8,4.6z"/>
			<path fill-rule="evenodd" clip-rule="evenodd" d="M7.3,32.2c1.9-0.5,4-0.7,6.2-0.6C11.9,32.7,9.6,32.3,7.3,32.2z"/>
			<path fill-rule="evenodd" clip-rule="evenodd" d="M10.2,30.7c0.9-0.4,1.8-0.8,3.2-0.3C12.5,30.8,11.5,31,10.2,30.7z"/>
			<path fill-rule="evenodd" clip-rule="evenodd" d="M41.7,4.9c1,0.2,1.1,0.4,1.1,0.7C41.9,6.1,40.3,5.2,41.7,4.9z"/>
			<path fill-rule="evenodd" clip-rule="evenodd" d="M44.3,4.8c0.1-0.1,0.2-0.2,0.4-0.3c0.2,0.1,0.4,0.1,0.6,0.2
				C45.2,4.7,45.1,4.9,45,5C44.8,4.9,44.5,4.8,44.3,4.8z"/>
			<path fill-rule="evenodd" clip-rule="evenodd" d="M78.5,13.4c1.4-0.1,3.7,0.5,4.5,1.1C81.9,15.1,78.9,13.9,78.5,13.4z"/>
			<path fill-rule="evenodd" clip-rule="evenodd" d="M81.2,11c0.1-0.1,0.2-0.2,0.4-0.3c1.3,0.3,2.5,0.7,3.8,1
				c-0.2,0.3-0.6,0.4-1.1,0.2C84,12.5,83,13.6,82,13.7c-1.1-0.3,0.5-1.7,1.5-1.8C83.3,11.6,81.5,11.4,81.2,11z"/>
			<path fill-rule="evenodd" clip-rule="evenodd" d="M81.5,11.5c1.1,0.2-0.1,0.7-0.5,0.9C80.4,12.1,80.9,11.9,81.5,11.5z"/>
			<path fill-rule="evenodd" clip-rule="evenodd" d="M73.6,18.4c1.3-0.2,4.1,0.6,4.8,1.1C77.2,20,74.4,18.9,73.6,18.4z"/>
			<path fill-rule="evenodd" clip-rule="evenodd" d="M75.2,17.5c0.8-0.2,1.8-0.1,2.9,0.1c-0.3-0.4-0.7-0.8-0.7-1.3
				c0.8-0.5,1.9-0.4,2.9-0.6c0-0.5-1.6-0.9-1-1.5c1.3,0.5,1.8,1.1,2.1,1.8c-0.8,0.3-1.7,0.4-2.8,0.3c-0.1,0.6,0.8,1,1,1.5
				C78.5,18.6,76.8,17.9,75.2,17.5z"/>
			<path fill-rule="evenodd" clip-rule="evenodd" d="M71.3,14.1c0.6-0.4,2,0.4,3,0.5c-0.4-0.5-1.9-0.9-1-1.6
				c1.4,0.5,2.6,0.1,3.5,0.5c-0.3,0.5-1,0.5-1.8,0.2c0.2,0.6,0.9,1.1,1.5,1.6C74.8,16.1,72.2,14.8,71.3,14.1z"/>
			<path fill-rule="evenodd" clip-rule="evenodd" d="M74.6,11.6c0.7-0.3,2.8,0,3,0.5c-0.2,0.3-0.6,0.1-0.9,0.3
				c0.4,0.1,0.8,0.2,1.3,0.3c-0.6,0.9-2.1,0-3-0.3C76,12.3,75.3,11.9,74.6,11.6z"/>
			<path fill-rule="evenodd" clip-rule="evenodd" d="M71.4,15.3c0.5-0.5,2.9,0.3,2.9,0.6C73.7,16.5,71.4,15.6,71.4,15.3z"/>
			<path fill-rule="evenodd" clip-rule="evenodd" d="M30.2,30.9c0.6,0.4-0.1,1.1-0.1,1.6c1.2,0.3,1.9,0,3,0.3c-1,0.4-2.4,0.4-4-0.1
				C28.9,32.2,28.8,31.1,30.2,30.9z"/>
			<path fill-rule="evenodd" clip-rule="evenodd" d="M60.4,2.7C56.6,2.3,52.5,2.1,48.9,2c-4.1-0.2-8.5,0.1-12.2,0.6
				C32,3.1,14.7,5.1,4.1,16.2c-2.3,3-3.2,5.7-3.6,8.4c-0.3,2.7,0.6,5.1,1.9,7.6c1.4,2.6,3.3,4.8,6.5,6.9c3.2,2.2,7.7,4.4,12.9,6.1
				c2.5,0.7,5.1,1.3,7.6,2c7.7,1.5,14.5,2.1,21,2.2c1.6,0,6-0.2,6.6-0.3c2.2-0.1,4.3-0.5,6.4-0.8c4.7-0.7,9.7-1.9,13.5-3.4
				c1.1-0.4,2.2-0.7,3.2-1.2c10.1-4.6,14.5-10.7,15-11.3c2.5-3.1,2.7-6.3,2.4-9c-0.2-1.8-0.8-3.2-1.8-4.6c-0.8-1.2-1.1-2.1-2.1-3.2
				c-2.6-3-8-6.7-14.8-9C71.7,4.3,62.6,2.9,60.4,2.7z M77.1,7.2c2,0.7,4.1,1.6,5.9,2.5C88,12.1,91.5,15,93.3,18
				c1.7,2.8,2.6,6.1,2.2,9.5c-0.3,2.9-3.6,7.7-9.3,11.7c-1.9,1.3-6.9,4.6-14.1,6.4c-11.4,2.9-23.6,4-38.1,1.5l0,0l0,0
				c-0.2,0-0.3,0-0.5-0.1c0,0,0,0,0,0l-0.8-0.2c0,0,0,0,0,0c-5.3-0.8-9.8-2.2-13.6-3.6C9.8,39.7,5,35,2.9,30.3
				c-2-4.4-0.8-9.2,2.7-13.9c1.9-2.5,6-5,9-6.6c8-4.3,18.5-5.8,20.7-6.2c3.7-0.6,8.4-1,12.8-0.8c3.7,0.1,6.9,0.2,10,0.5
				C59.5,3.5,61.7,3.8,63,4C66.6,4.5,72.7,5.7,77.1,7.2z"/>
			<path d="M93.4,22.7c-2.4,0.2-4.8,0.3-7.1,0.5c-0.6,0-10.1,1-14,1.8c-0.5-0.7-1.1-1.7-0.8-2.2c0.9,0.3,1.3,0.7,2.2,1
				c-1.2-1.8-0.4-3.6-4.1-5c-0.7-0.3-1.8-0.3-2.5-0.7c-1.1-0.5-1.8-1.5-3.1-2.2c-1.3-0.7-2.6-1.5-4.6-1.8c-1.8,0.4-1.6,1.5-2.5,2
				c-0.4,0.2-0.4,0.1-1.1,0.2c-0.4,0.1-0.8,0.4-1,0.4c-1.4,0.2-3.1-0.1-4.7-0.2c3.6-2.2-4.7-4.8-7.9-2.2c-3.5-1-6.2-0.8-8.8-0.2
				c-2.1,2.3-3,5.3-6.5,8c-2,1.7-3.8,2.8-3.3,4.2c0.4,1.1,1.6,2.4,3.2,3.3c-2.5,1-5.6,1-8.1,2.1c3.8,0.8,9.2,1.9,13.3,2.3
				c1.1,0.5,0.4,1.3,0.6,1.9c1.6,0.6,3.9,1.2,5.4,0.8c0.9,1,0.8,2.2,0.4,3.4c-0.1,0.2-0.3,1.4-0.3,1.8c-0.1,3,1.3,6.3,1.3,6.3
				l1.2,0.1c0,0-2.5-4.1-1.2-8c0.2-0.5,0.4-1,0.5-1.5c6.2,1,12.7,2.5,18.7,3.1c1.2-1.6,2.1-3.1,3.7-4.8c1.3,0.9,1.7,2,2.8,2.9
				c5.1-1.3,10-2.8,14.7-4.6c1-0.1,0.2,0.6,1.3,0.8c1.4,0.4,2.6,0.3,4.1,0.8l0.8-0.3c-1.4-0.4-2.6-0.5-3.8-0.7
				c-0.1-2.5-0.9-4.9-2.3-7.3c-1.1-0.1-2.2,0.2-3.1,0.4c-1,0.2-2,0.2-2.9,0.4c0.4-1.1,1.9-2.4,2.9-3.6c-1.8-0.7-3.7,0-4.9-0.5
				c0.2-0.1,0.4-0.1,0.7-0.1c1.4-0.2,3.1-0.4,5-0.5c2.7-0.3,3.9-0.6,6.7,0.3c2.8,0.9,5.9,1.8,8.7,3c-3.1-0.3-6.7-1.3-9.9-1.7
				c3.7,1.1,8.9,2.1,13.2,3.3l0.5-0.5c-4.4-1.6-7.5-3.8-13.6-4.8c2.9-0.5,12-1,13.5-1.1c0,0,0,0,0,0c0-0.2-0.1-0.4-0.1-0.6
				C95.5,22.6,94.4,22.6,93.4,22.7z M47,13.8c-1.8,0.4,0.6,1.7,1.7,1.1c0.5-0.3,0.2-0.5-0.1-0.7c2.3,0.3,1.2,2.6-1.3,2.9
				c-0.7-0.8-2.6-1.2-4.6-1.5C42,14.5,44.8,13.5,47,13.8z M44.4,17.4c0.4,0.1,1.4-0.4,1-0.7c1.3,0,1.4,0.8,1.6,1.2
				c-0.9,0.9-2.1,1.2-3.4,1.4c-0.5-0.6-3-1.1-4-0.8c-1.4-1.3,1.2-3.1,4.2-2.3c-1.1,0.3-0.9,1,0,1.2C44,17.4,44.2,17.3,44.4,17.4z
				 M27,23c0.5-0.7,2.2-1.3,2.8-2.3c0.3,0.7-0.9,1.6,0.3,2.2c0.6-2.1,1.6-5,3.9-7.7c0.1-0.1-0.2-0.1-0.3-0.2c2-1.3,4.9-1,8.3-0.1
				c-0.5,0.3-0.2,0.5,0.1,0.7c-0.7,0.3-1.5,0.3-2.2,0.5c-1.3,0.9-1.8,1.8-1,2.4c-2.4,0.2-4.7,1.9-2.7,2.9c-0.9,0.1-1.8,0.2-2.6,0.4
				c-2.4,1.6-1.6,2.9,0.7,3.5c3.4,0.9,7.5-0.6,6.1-2.5c2.7,0.2,5.5-2,3.6-3c1.3,0,2.2-0.6,3.3-1c0-1,0.9-1.1,2.3-1.8
				c2.4,0.4,4.8,0.7,6.6,0c-1.2,2.1-6.3,3.2-7.9,5.1c-1.3,1.5-0.1,2.9,1,4.3c-1,0.4-2.1,0.8-3.5,0.7c-1.1-0.1-1.2-0.7-2-0.7
				c-1.1,0.3-0.8,1-0.4,1.4c0.8,0,0.2-0.4,0.7-0.6c1.4,0.8,5.3,0.7,6.1-0.5c0.4-0.6-1.2-1.3-1.4-2c-0.2-0.6-0.1-1.8,0.7-2.6
				c1.4-1.4,4.5-2.2,6.3-3.4c1.8-1.3,2.2-2.5,4-4.1c3.2,1,4.5,2.4,6.1,3.6c-1.6,0.5-3.3,0.8-4.9,1.2c-0.7,1.8-1.1,3.6-1.6,5.3
				c-2.6,1-5.3,1.9-7.4,4.5c-2.1-0.1-4.1,0.1-6,0.3c-1.3-0.4-2.3-1.5-3.9-1.7c-1.2-0.2-2.1,0.3-3.3,0.5c-2.1-0.3-3.3-1.6-5.4-2
				c-0.9-0.2-2.8,0-4.2-0.2C27.9,25,26.3,24.1,27,23z M38.9,22.4c0.6-0.1,0.8,0.6,1.2,0.9c-0.2,3.5-10.7,1.6-6.4-1.2
				c1.4,0.2,2.3-0.5,3.8-0.2c-0.5,0-1.3,0.4-1.1,0.8C36.6,23.5,39.7,23.2,38.9,22.4z M36.9,21.4c-2.3-1.1,0.3-2.7,3.2-2.6
				c-0.5,0.4-0.8,1.1,0.9,1.4c0.9,0.1,1.5-0.5,1.6-0.9c2.6,1.1,0.5,3-2.5,3.2C39.7,21.7,37.8,21.9,36.9,21.4z M65.4,39.6
				c-0.8-1-1.5-2-3-2.9c-2.2,1.1-2.8,3.3-4.3,4.9c-5.9-0.8-12.2-2.1-18.3-3c-0.1-0.6-0.5-1.1-0.6-1.6c1-0.4,2.2-0.6,3.3-1
				c10.7,0.5,21,0.5,31.1,0c1.6-0.3,3.3-0.4,4.9-0.7c0.2,0.1,0.4,0.1,0.5,0C75.3,36.8,70.1,38.6,65.4,39.6z M76.5,33.7
				c-0.4-0.8-2.5-1.3-4-1.9c0.7-0.2,1.5-0.1,2.2-0.2c1.6,1,3,2,4.6,3c-1.7,0.1-3.3,0.4-5,0.5c-1.6-0.7-3.5-1.3-4.8-2.1
				C71.7,32.9,74.6,34.2,76.5,33.7z M67.6,32.2c0.5-1,1.1-2.1,2.2-3.2c2,0.7,2.9,1.5,4.4,2.2C72,31.6,69.6,31.5,67.6,32.2z
				 M67.7,35.5c-1.9,0.3-3.9,0.3-5.8,0.3c-5.7,0.1-11.9,0-17.9-0.1c-0.2,0.1-0.5,0-0.7-0.1c7.1-1.9,15.1-2.4,23-3
				C67,33.6,67,34.6,67.7,35.5z M68.1,34.4c0.5,0.3,0.9,0.7,1.7,1c-0.3,0.3-1,0.1-1.6,0C68.7,35,67.6,34.8,68.1,34.4z M75.8,26.3
				c-1.4,1.3-3.1,2.6-2.6,3.6c2.2-0.1,4.2-0.4,6.1-1.1c1.2,2.2,1.5,4.6,2.4,6.9c-2.3-2.3-6.8-5-11.6-7.2c1.2-0.9,1.5-1.7,1.9-2.4
				C73.2,26.3,74.9,25.9,75.8,26.3z M70.7,24.7c1.1,1.8-3.5,5.2-4,7.5c-0.6,0.2-1.4,0.1-2,0.1c-3.1,0.1-6.4,0.6-9.7,0.9
				c-1.2,0.1-2.6,0.1-3.9,0.3c-2.3,0.3-4.7,1-7.2,1.6c-2.4,0.5-5.2,1.4-7.4,1.2c-2.8-0.2-3.3-1.2-3.5-2.3c0.8,0.4,0.9-0.3,1.6,0
				c1.5-0.7,3.3-0.8,4.5-1.9c-0.5-0.4-1.7,0.2-2.3,0.6c-2.3,0.7-4.5,1.3-7.7,0.8c-2-0.3-4.1-1-6.5-1.3c-0.2-0.1-0.2,0-0.3,0
				c-0.2-0.1,0-0.1,0.1-0.1c0.6,0,1.3,0,2-0.1c0.8-0.1,2-0.8,3.1-1.1c1.7-0.4,3.4-0.2,5.1-0.7c-0.1,0.6,0.2,1.1,0.4,1.6
				c1.7,0.1,3.5,0.3,4.6-0.7c-1.2,0.1-2.3,0.3-3.5,0.4c-0.6-0.5-0.6-1.1-0.8-1.7c-3.3,0.3-6.7,0.4-9.4,1.8c-1.4-0.1-2.5,0.3-4,0.1
				c2-0.5,3.7-0.7,5.5-1.2c1.7-0.5,4-1.5,6-1.5c1.1,0,2.6,0.2,3.7,0.3c1.2,0.1,2.8,0.3,3.8,0.5c2.9,0.6,6.1,2.7,9.5,2.5
				c2.8-0.2,5.9-0.9,8.7-1.4c3-0.5,5.9-1.3,8.1-2.4c0.3-1.6,2.3-3.1,4.9-3.7C70.3,25,70.6,24.8,70.7,24.7c0-0.1-0.1-0.1-0.1-0.2
				C70.8,24.6,70.8,24.6,70.7,24.7z"/>
			<path d="M84.9,36.5l-0.3,0.4c0,0,2.3,0.6,4.5,1.4c0.2-0.2,0.4-0.3,0.5-0.5C87.5,37.1,85,36.5,84.9,36.5z"/>
			<polygon points="62.9,48.2 60.9,48.7 58.7,46 			"/>
		</g>
	</g>
</g>
</svg>
