<?xml version="1.0" encoding="utf-8"?>
<!-- Generator: Adobe Illustrator 21.1.0, SVG Export Plug-In . SVG Version: 6.00 Build 0)  -->
<svg version="1.1" xmlns="http://www.w3.org/2000/svg" xmlns:xlink="http://www.w3.org/1999/xlink" x="0px" y="0px"
	 viewBox="0 0 104 160" enable-background="new 0 0 104 160" xml:space="preserve" width="104" height="160" preserveAspectRatio="none">
<g id="Layer_1">
</g>
<g id="Layer_2">
	<g>
		<g>
			<linearGradient id="SVGID_1_" gradientUnits="userSpaceOnUse" x1="3.3901" y1="95.3788" x2="114.058" y2="94.7162">
				<stop  offset="0" style="stop-color:#956A28"/>
				<stop  offset="0.244" style="stop-color:#986E2A"/>
				<stop  offset="0.4705" style="stop-color:#A37931"/>
				<stop  offset="0.6837" style="stop-color:#B38B3D"/>
				<stop  offset="1" style="stop-color:#956A28"/>
			</linearGradient>
			<path fill="url(#SVGID_1_)" d="M98.5,43.3c0,0-1.5,53.5-1.5,59.5s-0.5,31.6-0.5,31.6s-6,14.2-23.7,18.4
				c-10.8,2.6-15.7,3.1-28,2.3c-13.5-0.9-21.2-5.1-26.2-7.5c-4.9-2.3-11.4-12.9-11.4-12.9L4.9,35L98.5,43.3z"/>
			<polygon points="95.2,138.2 96.7,43.3 98.8,42 97.3,132.9 			"/>
			<path d="M51.6,69.4c-25.9,0-47.2-8.6-47.2-19.6H6c0,10,20.8,18.4,45.5,18.4c24.8,0,45.3-8.3,45.3-18.5l1.1,0
				C97.8,60.7,77.2,69.4,51.6,69.4z"/>
			<path d="M50.8,80.4C25,80.4,4.6,70.7,4.6,59.2h1.5c0,10.5,20.7,19.4,45.3,19.4c25,0,45.3-8.6,45.3-19.1h1.5
				C98.2,70.9,76.6,80.4,50.8,80.4z"/>
			<path d="M51.6,90.7c-25.8,0-47.1-9.2-47.1-21.2h1.6c0,10.9,20.9,19.6,45.5,19.6c24.6,0,45.1-8.7,45.1-19.6h1.6
				C98.3,81.5,77.5,90.7,51.6,90.7z"/>
			<path d="M52.1,102c-25.6,0-47.1-9.9-47.1-22.3l1-0.1c0,11.6,21,20.6,45.7,20.6s44.4-8.9,44.4-20.5h1.6
				C97.8,92.1,77.7,102,52.1,102z"/>
			<path d="M51.5,112.6C25.9,112.6,5,102.2,5,89.3h1.6c0,12,19.9,21.2,44.6,21.2s44.9-9.1,44.9-21.2h1.6
				C97.8,102.2,77,112.6,51.5,112.6z"/>
			<path d="M51,122.8C25.4,122.8,5,112.1,5,98.7l1.4-0.1c0,12.5,20.3,22.8,45,22.8s44.7-10.2,44.7-22.7h1.6
				C97.8,112.1,76.5,122.8,51,122.8z"/>
			<path d="M51.5,133.1c-25.6,0-46-10.7-46-24.6l1.3,0.1c0,13,19.9,23,44.6,23c24.9,0,44.6-9.6,44.6-22.4h1.7
				C97.5,123,77.3,133.1,51.5,133.1z"/>
			<path d="M52,144.7c-25.8,0-46.5-11-46.5-25.5h1.7c0,13.3,20.1,23.2,44.5,23.2c1.4,0,2.8,0,4.2-0.1c23.3-1.2,40-10,40-22.3h1.7
				c0,13.2-17,23.3-41.3,24.5C54.9,144.7,53.4,144.7,52,144.7z"/>
			<path d="M51.8,156.4c-25.6,0-46.1-11.4-46.1-26.6h1.7c0,13.9,19.9,24.4,44.2,24.4c24.8,0,44-9.9,44-23.6h1.7
				C97.4,145.3,77.6,156.4,51.8,156.4z"/>
			<linearGradient id="SVGID_2_" gradientUnits="userSpaceOnUse" x1="4.5159" y1="45.6072" x2="99.1646" y2="45.6072">
				<stop  offset="0" style="stop-color:#956A28"/>
				<stop  offset="0.244" style="stop-color:#986E2A"/>
				<stop  offset="0.4705" style="stop-color:#A37931"/>
				<stop  offset="0.6837" style="stop-color:#B38B3D"/>
				<stop  offset="1" style="stop-color:#956A28"/>
			</linearGradient>
			<path fill="url(#SVGID_2_)" d="M99.2,33.5l-1.1,11.1c0,0-2.5,2.4-3.8,3.6c-1.3,1.2-6.4,5.4-18.7,8.5s-22.4,3.4-36.3,1.8
				c-13.9-1.5-18.7-4.6-22.8-6.5c-4.2-1.9-11.6-9.2-10.8-9.4c0.8-0.2-1.4-11.5-1.1-11S99.5,33.9,99.2,33.5z"/>
			<path d="M52.1,60.2c-8.2,0-17.7-1.8-24.3-3.3C12.2,53.5,6,44.5,5.6,42.7c-0.4-1.5-1.1-9.4-1.1-11l0.4-1.1L5,30.7l94.9-0.6
				c-0.1,5.6-0.6,10.6-1.8,14.6l-0.1,0.1c-0.1,0.1-2.2,4.3-9.5,7.9C74.8,59.4,63.9,60.2,52.1,60.2z M5.5,31.7
				c-0.6,3.7,0.3,9.8,1.3,11.1c1.4,1.6,6.7,9.7,22.5,12.9c22.4,4.6,40.5,4.1,59.7-4.8c3.9-1.8,7.8-6.1,8.2-6.6l1-11.5L5.5,31.7z"/>
			<polygon points="5.7,131.3 3.7,29.2 5.7,33.3 7.6,135.8 			"/>
		</g>
		<g>
			<g>
				<linearGradient id="SVGID_3_" gradientUnits="userSpaceOnUse" x1="70.3863" y1="2.7292" x2="10.8004" y2="81.1839">
					<stop  offset="0" style="stop-color:#FFE579"/>
					<stop  offset="1" style="stop-color:#997735"/>
				</linearGradient>
				<path fill-rule="evenodd" clip-rule="evenodd" fill="url(#SVGID_3_)" d="M30.8,6.3c23-5.7,52.1-0.6,63.9,10.6
					s1.3,25.5-21.6,31.3C48,54.7,20.7,48.6,8.9,37.3S7.8,12,30.8,6.3z"/>
				<path fill="none" d="M80.1,30.3c0,0-0.7-0.6-1.7-1.5c-0.2,0-0.5,0.1-0.6,0.1l5.3,5.1c0,0,0.9-2.3,1-2.3c0.1,0,4.5,1,4.5,1l-4-4
					C82.5,29.4,80.2,30.3,80.1,30.3z"/>
				<path fill="none" d="M64.7,12.7c-0.2,0-5.8-1.8-5.8-1.8c1.5,1.5,4.5,4.4,5.2,5.1l1-0.1c-1.1-1-1.7-1.7-1.7-1.7
					c0,0,3.1-0.3,6-0.5l-4.6-3.7C64.9,10.1,64.9,12.7,64.7,12.7z"/>
				<path fill="none" d="M64.8,14.8c4.5,3.8,14.2,13.3,15.8,14.9l6.6-2.6c-7.5-7-12.7-12.2-13.5-13.1C72.7,14,68.4,14.3,64.8,14.8z"
					/>
				<path fill-rule="evenodd" clip-rule="evenodd" fill="#956A28" d="M89.6,33.3c0,0-0.2,0.2-2-0.2c-1.7-0.3-3.6-0.7-3.6-0.7
					s0.3-0.7,0.6-0.6C84.9,31.9,90.3,33.1,89.6,33.3z"/>
				<path fill-rule="evenodd" clip-rule="evenodd" fill="#956A28" d="M83.4,34.8c0.1,0.2-0.5,0.4-1,0.2c-0.5-0.2-6.7-6.5-6.7-6.5
					s0.8-0.5,1-0.4C76.9,28.2,65.3,17,65.3,17l-2.1,0.2l-6.7-6.8l1.5,0.1l6.1,5.6l0.9,0.1l0.8-0.1l13,12.4l-1.6,0.3L83.4,34.8z"/>
				<path fill-rule="evenodd" clip-rule="evenodd" fill="#956A28" d="M64.4,9.2L62.8,12c0,0,1.8,0.6,1.8,0.3
					C64.5,12.1,64.4,9.2,64.4,9.2z"/>
				<path fill-rule="evenodd" clip-rule="evenodd" fill="#956A28" d="M58,45.5c0,0-6.5-0.9-12.9-1.9s-13.5-2.6-19.4-5.3
					c-5.6-2.6-8.5-5.8-6.9-10.6c1.6-4.7,1.7-8.1,0.2-10c-1.5-1.9-5.3-4-5.1-4.1c0.1-0.1,2.6-1.4,2.6-1.4s4.1,2.8,5.5,4.6
					c1.5,1.8,1,5.3,0.1,7.6c-0.9,2.3-2.4,5.6-1.6,7.6c0.7,2,3.4,3.9,6.2,5.6s9.3,3.1,12,4.1s12,2.1,12,2.1s6.4,1.2,6.7,1.2
					C57.6,45,58,45.5,58,45.5z"/>
				<path fill-rule="evenodd" clip-rule="evenodd" fill="#956A28" d="M60,35.3c0.1,0.2-4.9,4.1-5.5,5c-0.6,0.8,1.8,0.7,3.2,0.8
					c1.4,0.1,3.2,0.5,3.2,0.5s-9.1,0.2-9.3,0.2s-1.1-0.7-0.8-0.8c0.3-0.1,5.1-3.2,5.3-3.3C56.3,37.4,60,35.3,60,35.3z"/>
				<path fill-rule="evenodd" clip-rule="evenodd" fill="#956A28" d="M64.4,42.4l-6.3,2.7c0,0-1.7-0.6-1.4-0.6
					c0.3,0,7.5-2.3,7.5-2.3"/>
				<path fill-rule="evenodd" clip-rule="evenodd" fill="#956A28" d="M87.8,26.8c0.5,0.1,1.1,0.7,1.1,0.7l-3.3,1.3
					c0,0-1.1-0.6-0.7-0.7S87.5,26.8,87.8,26.8z"/>
				<polygon fill-rule="evenodd" clip-rule="evenodd" fill="#956A28" points="74,13.7 73.2,12.9 69.5,13.2 70.2,14.1 				"/>
				<path fill-rule="evenodd" clip-rule="evenodd" fill="#E3C766" d="M65.1,41.9c-0.3,0-12.8,0.9-12.7,0.7s-1.4-1.1-0.7-0.9
					S62,41.3,62,41.3l3.1,0.2L65.1,41.9z"/>
				<path fill-rule="evenodd" clip-rule="evenodd" fill="#E3C766" d="M57.8,35.6c0,0-8.1,4.6-8.2,4.8c0,0.2,1,0.7,1.2,0.8
					c0.2,0.1,7.8-5.3,8-5.4C59.1,35.6,57.8,35.6,57.8,35.6z"/>
				<path fill-rule="evenodd" clip-rule="evenodd" fill="#F3D871" d="M41.7,4.6c0.4,0.1,9.8,4.6,11.2,8.6c1.5,4-2.1,8.3-6.1,10.6
					s-7.1,5.2-6,8.1c1.1,3,7.1,7.9,8.6,9.1c1.5,1.2,4.1,2.3,4.1,2.3s-3.3-2.2-5.7-4.4c-2.4-2.2-3.6-3.8-4.6-5.8s-1.4-3.8,0.6-5.3
					c2-1.5,8.4-4.6,10.3-7s2.8-5.4,1.6-7.7c-1.2-2.3-3.7-4.6-3.7-4.6l-9.4-4.3L41.7,4.6z"/>
				<path fill-rule="evenodd" clip-rule="evenodd" fill="#F3D871" d="M46.8,43.1c0,0,0.1-0.7-1.6-1.4c-1.7-0.7-3.3-1-3-1
					c0.3-0.1,2-0.3,3.5,0.3s2.2,1.2,2.4,1.4c0.2,0.2,0.7,1.2,0.7,1.2L46.8,43.1z"/>
				<path fill-rule="evenodd" clip-rule="evenodd" fill="#F3D871" d="M40.5,40.4c0,0,1.1-1.5-0.4-2.6c-1.5-1.2-2.8-1.6-2.8-1.6
					s1.6-0.1,3.3,0.9c1.8,1,2.2,1.9,2.2,1.9S41.8,40.6,40.5,40.4z"/>
				<path fill-rule="evenodd" clip-rule="evenodd" fill="#F3D871" d="M34.5,35.7c0,0,0.7-2.2-1-3.9c-1.7-1.6-2.5-2.2-2.1-2
					c0.3,0.1,1.8,0.4,3.2,1.5c1.4,1.1,1.9,2.1,1.9,2.1l-0.3,1.1L34.5,35.7z"/>
				<path fill-rule="evenodd" clip-rule="evenodd" fill="#F3D871" d="M31.5,29.1c0.3,0,2.3-0.5,2.3-2.2c-0.1-1.7-1.3-3.2-0.9-3
					c0.3,0.2,1.3,0.3,2.5,1.9c1.2,1.6,0.2,2.2,0,2.4C35,28.3,34,28.6,34,28.6L31.5,29.1z"/>
				<path fill-rule="evenodd" clip-rule="evenodd" fill="#F3D871" d="M31.4,22.7c0.5-0.1,4-1.4,3.8-2.5c-0.3-1.1-1.4-2.2-1.4-2.2
					s3.2,0.3,3.8,1.2s-0.2,1.8-0.5,2C36.7,21.3,31.4,22.7,31.4,22.7z"/>
				<path fill-rule="evenodd" clip-rule="evenodd" fill="#F3D871" d="M31.7,16.7c-0.7,0,3.8-1.8,3.1-2.7c-0.7-0.9-1.8-1.6-1.4-1.4
					c0.4,0.2,2.3,0.3,3.1,1.2c0.9,0.8,0.5,1,0.3,1.3C36.6,15.3,32.6,16.7,31.7,16.7z"/>
				<path fill-rule="evenodd" clip-rule="evenodd" fill="#F3D871" d="M30.3,11c0.2-0.1,0.5-1.6-0.4-2.3C29,7.9,28,7.3,28,7.3L31.7,7
					l0.7,1.4l-0.3,1.4L30,11.5"/>
				<path fill-rule="evenodd" clip-rule="evenodd" fill="#F3D871" d="M84.6,31.8c-0.3,0-0.9-0.6-0.8-0.5c0,0.1-1.8,2.4-1.6,2.5
					s1.7,0.8,1.7,0.7C83.8,34.4,84.6,31.8,84.6,31.8z"/>
				<path fill-rule="evenodd" clip-rule="evenodd" fill="#F3D871" d="M87.8,32.6c0,0-4.3-4-4.1-4.1c0.2-0.1,0.6-0.5,1.1-0.4
					s4.8,5.2,4.8,5.2L87.8,32.6z"/>
				<path fill-rule="evenodd" clip-rule="evenodd" fill="#F3D871" d="M86.3,27.2c-0.1-0.1-13.8-13.5-13.8-13.5l1.4-0.1l13.2,13.4
					l-0.8,0.5L86.3,27.2z"/>
				<path fill-rule="evenodd" clip-rule="evenodd" fill="#F3D871" d="M68.6,13.9c-0.3-0.3-4.4-3.6-4.4-3.6l0.6-0.7l5.4,4.3
					L68.6,13.9z"/>
			</g>
			<g>
				<g>
					<path fill-rule="evenodd" clip-rule="evenodd" d="M82.7,12.6c0.4,0.1,0.1,0.3-0.2,0.4c1,0.8,3.5,1.7,3.4,2.5
						c-1.8,0.1-2.8-1.4-3.9-2.1c-1.4,0.3-2.9,1.3-4.3,1.3C77,13.6,81.2,13.2,82.7,12.6z"/>
					<path fill-rule="evenodd" clip-rule="evenodd" d="M82.1,14.2c0.7,0.4,0.5,0.8,1.6,1.2c-0.3,0.1-0.6,0.3-0.9,0.4
						C81.6,15.2,81.4,14.7,82.1,14.2z"/>
				</g>
				<path fill-rule="evenodd" clip-rule="evenodd" d="M92.3,18.6c-0.2,0.4-1,0.6-1.7,0.8c1.2,0.9-1.2,1.9-2.9,2.1
					c-0.4-1.1,2.1-0.8,2.1-1.6c-0.9-0.1-1.7,0.8-3.4,0.7c-0.3-1,1.9-0.9,2.6-1.4c0.1-0.4-0.5-0.5-0.7-0.8c-1.5,0.3-2.2,1.1-4.3,1.1
					c-0.6-1.3,1.5-1.9,2.4-2.8c-1.1,0.1-2.2,0.6-3.4,0.2c1.1-0.5,2.9-0.8,5-0.8c-0.7,1-2.3,1.5-2.9,2.6c1.3-0.2,2.1-0.7,3.6-0.8
					c0.3,0.4,0.9,0.7,1.2,1.2C91,19,91.2,18.6,92.3,18.6z"/>
				<path fill-rule="evenodd" clip-rule="evenodd" d="M92.6,20.9c-0.2,0.4-2.1,1.2-3.2,1.4c0.8,0.2,1.7,0.3,2.4,0.6
					c0.3,0.6-0.8,0.9-1.1,1.4c0.8,0.4,3.5,0,4,0.6c-1.7,0.1-4-0.1-5.2-0.5c0-0.5,0.5-0.9,1.5-1.2c-0.8-0.4-2-0.4-2.9-0.6
					C87.6,21.8,90.9,21.2,92.6,20.9z"/>
			</g>
			<g>
				<path fill-rule="evenodd" clip-rule="evenodd" d="M19,41.2c1.3-0.3,2.3,0.5,4.1,0.3c0-0.8-1.6-0.6-1.7-1.3
					c1.3,0.3,2.4,0.6,2.5,1.5C22.3,41.9,19.4,42.1,19,41.2z"/>
				<path fill-rule="evenodd" clip-rule="evenodd" d="M21.9,39.4c-1,0.9-2.5,1.7-4.4,2.2C17.6,40.3,20,39.9,21.9,39.4z"/>
				<path fill-rule="evenodd" clip-rule="evenodd" d="M21.3,41.4c-0.3,0.6-0.5,1.2-2.2,1.2C19.3,41.9,19.9,41.5,21.3,41.4z"/>
				<g>
					<path fill-rule="evenodd" clip-rule="evenodd" d="M31.3,44c-1.4,0-2.2-0.6-3.3-0.9c-0.6-0.1-1.7,0-1.8-0.5
						C28.3,42.7,30.5,42.7,31.3,44z"/>
					<path fill-rule="evenodd" clip-rule="evenodd" d="M29.3,44.4c-1.5,0.1-2.5-0.3-3.3-0.9C27.2,43.7,28.6,43.7,29.3,44.4z"/>
					<path fill-rule="evenodd" clip-rule="evenodd" d="M28.5,45.2c-1.3,0.4-3.2-0.1-3.8-0.9C26,44.6,27.8,44.4,28.5,45.2z"/>
				</g>
				<path fill-rule="evenodd" clip-rule="evenodd" d="M18.9,38c-0.2,0.6-3.1,1.1-4.3,1.5C14,38.5,17.7,38.2,18.9,38z"/>
				<path fill-rule="evenodd" clip-rule="evenodd" d="M12.9,29.7c-0.5,0.6-2.8,0.5-4.4,0.7C8.1,29.3,11.8,29.6,12.9,29.7z"/>
				<path fill-rule="evenodd" clip-rule="evenodd" d="M14.8,33.1c-0.2,0.8-3,1.6-4.7,1.4c-0.4-0.4,0.5-0.5,1.2-0.7
					c0.2-0.3-0.9-0.9,0.3-1.1c0.5,0.1,0.2,0.5,0.8,0.9C13.2,33.4,14,33.2,14.8,33.1z"/>
				<path fill-rule="evenodd" clip-rule="evenodd" d="M15.8,34.7c-0.1,0.6-3.2,1.4-4.4,1.2C11,35.2,14.7,34.7,15.8,34.7z"/>
				<path fill-rule="evenodd" clip-rule="evenodd" d="M13.3,32.7c-1,0.1-0.7-0.4-0.8-0.8c-0.8,0.2-2.6,0.4-3.6,0.2
					c0-0.6,2.7-0.6,3.3-0.5c0.5-0.1,0-0.6,0.4-0.7c0.3-0.1,0.4-0.1,0.7,0C13.7,31.2,14.2,32.5,13.3,32.7z"/>
				<path fill-rule="evenodd" clip-rule="evenodd" d="M16.9,37.7c-1.1-0.1-2.7-1.2-1.9-1.8C15.9,36,17.4,37.3,16.9,37.7z"/>
				<g>
					<path fill-rule="evenodd" clip-rule="evenodd" d="M14.4,28.4c-1.1,0.4-5.3,0.5-6.5,0.2C8.8,27.8,13.2,28,14.4,28.4z"/>
					<path fill-rule="evenodd" clip-rule="evenodd" d="M12,26.1c0,0.1,0,0.2,0,0.4c-2,0.3-1.7,1.6-4.1,1.6c0-0.9,1.4-1.2,2.5-1.6
						c-0.8-0.5-2.4,0.2-2.9-0.3C8,25.5,10.8,25.9,12,26.1z"/>
				</g>
				<path fill-rule="evenodd" clip-rule="evenodd" d="M18.8,38.7c0.3,0.1,0.1,0.2,0.2,0.4c-0.8,0.5-2,1.1-3.1,1.1
					C15.4,39.6,17.7,38.9,18.8,38.7z"/>
				<path fill-rule="evenodd" clip-rule="evenodd" d="M12.8,24.4c-0.6,0.5-4.1,1.1-4.8,0.3C9.6,24.4,11.2,24.7,12.8,24.4z"/>
				<path fill-rule="evenodd" clip-rule="evenodd" d="M14.8,38.1c-1-0.1-1.9-1.3-1.6-1.7C14.4,36.5,15.4,37.6,14.8,38.1z"/>
				<path fill-rule="evenodd" clip-rule="evenodd" d="M24.9,42c0.2,0.1,0.3,0.2,0.2,0.2c-1.1,0.6-1.7,1.5-3.1,1.6
					C20.8,43.1,23.9,42.3,24.9,42z"/>
				<path fill-rule="evenodd" clip-rule="evenodd" d="M31.9,44.4c0.4,0.4,0.1,0.9-0.4,1.4c0.9-0.1,1.7-0.3,2.7-0.3
					c1,0.4,0.6,1,1,1.4c1.1,0,1.9-0.7,3.1-0.4c-1.1,0.6-2.4,0.8-3.8,0.9c-0.6-0.4-0.8-0.9-0.4-1.4c-1.1-0.1-2.1,0.3-3.1,0.4
					C29.4,45.9,30.9,45.1,31.9,44.4z"/>
			</g>
			<path fill-rule="evenodd" clip-rule="evenodd" d="M83.9,44.9c2.8-1.3,5.4-2.9,7.7-4.2c2.7-1.6,4.6-3.5,6-5.2
				c1.7-2.2,8.1-10.3-4.5-20.8c-3.7-2.6-7.7-4.5-12.1-6.2c-4.3-1.7-9-2.7-13.9-3.5C62,4,57.3,3.6,51.7,3.6C46.3,3.7,40,4.2,34.2,5.4
				C31.6,6,29,6.6,26.5,7.3c-6.9,2.2-11.8,4.6-15.7,7.2c-1,0.6-3,2.5-3.3,2.8c-1.1,1-1.5,2-2.2,3c-1.5,2.3-2.2,5-2,7.3
				c0.1,0.7-0.1,1.3,0.1,1.9c2.1,6.7,9.8,11.9,10.5,12.4c3.8,2.7,9.1,4.6,13.7,6c3.1,0.9,5.8,1.4,8.8,1.9c2.5,0.4,4.2,0.7,6.7,1
				c6.6,0.6,15.8,0.6,23.6-0.9C74.8,48.5,82.3,45.7,83.9,44.9z M66.8,49c-2.2,0.4-5.1,0.7-7.5,1c-7,0.6-13.7,0.4-19.8-0.6
				C33.8,48.5,27.8,47,22.4,45c-4.7-1.7-11-5.8-14.4-10.3c-1.1-1.5-3.8-5.3-2.8-9.3c1.5-6.2,9.1-15.5,34-19.9
				c10.8-1.9,21.7-1,30.7,0.8c8.6,1.7,15.9,4.8,21.8,8.9c3.1,2.2,5.1,5.2,6.1,7.3c2.7,5.6-0.7,10.7-1.3,11.8
				c-1.1,1.8-3.1,3.9-5.9,5.6c-2.3,1.4-4.2,2.6-6.6,3.7c-1,0.5-2.8,1.2-3.9,1.6C77.3,46.3,71.7,48.1,66.8,49z"/>
			<g>
				<path d="M58.7,45.6c0.1-0.1,0.1-0.2-0.1-0.3c-0.3-0.2-0.7-0.4-1.2-0.5c-2.2-1-5.6-2.5-10.7-7.5c-7.1-7.2-3.7-9.2,1.1-12
					c2.3-1.3,5.4-2.7,7.3-5c7.7-9.3-10.6-15.5-10.8-15.6c-0.2-0.1-0.5,0-0.7,0.1c-0.2,0.1-0.1,0.3,0.1,0.3
					c0.2,0.1,17.3,5.9,9.9,14.9c-1.8,2.2-4.3,3.7-6.5,5c-4.8,2.8-8.6,5.1-1.2,12.5c4.4,4.5,7.7,6.3,9.9,7.3c-2.1-0.4-5-1-6.9-1.4
					l0-0.1c-0.2-1.5-1.8-2.6-7.2-2.9c0.1,0,0.2-0.1,0.2-0.1c1.1-0.5,2.2-1.5,0.1-3c-1.9-1.4-6-1.1-7.2-1.2c0.8-0.7,3.3-1.9,2-3.5
					c-1.2-1.4-3.6-2.6-5.3-2.9c1.1-0.2,3.2-0.5,4.1-1c0.8-0.4,1.2-1,1.1-1.6c-0.2-2.2-4.4-3.6-6.6-4.1c2.9-0.3,7.7-1,8.3-2.8
					c0.6-1.7-5.3-2.5-8-2.8c3.4-0.9,8-1.7,7.4-3.2c-0.7-1.6-5.9-2.1-7.8-2.2c0.4-0.3,1.3-0.8,1.9-1.4c3-2.4-0.8-4.2-0.8-4.2
					c-0.2-0.1-1.2,0.2-1,0.3c0,0,3.2,1.7,0.6,3.8c-1.2,1-2.2,1.7-2.1,1.8c0.1,0.1,6.7,0.3,7.4,1.9c0.6,1.3-7.7,3.2-7.6,3.3
					c0,0.1,8.2,0.6,8.4,2.6c0.2,1.6-9,2.5-9,2.6c0,0.1,7,1.2,7.3,4.1c0.1,0.5-0.2,0.9-0.9,1.3c-1.7,0.9-5.6,1.1-5.6,1.2
					c0,0.1,4.4,0.9,6.4,3.1c1.8,1.9-1.5,3.9-1.4,4c0,0,0,0,0,0c0.1,0.1,4.4-0.5,7,1.2c1.6,1.1,1.7,1.5,0.7,2.1
					c-0.5,0.3-1.5,0.8-1.4,0.9c0.1,0.1,6.9,0.1,7.8,2.4c-3.7-0.6-19-3.3-24.2-7.9c-4.3-3.7-2.2-7.1-0.8-10.5
					c0.6-1.4,1.2-2.7,1.4-4.1c0.7-4.8-8.3-8.8-8.7-9l-0.7,0.4c-0.6,0.2,8.3,3.9,7.6,8.4c-0.2,1.3-0.5,2.6-1.1,4
					c-1.5,3.3-3.7,6.9,0.2,10.6c0.1,0.1,0.3,0.3,0.5,0.4c2.9,2.5,9,4.8,14.4,6.2C42.7,43.2,58.6,45.7,58.7,45.6z"/>
				<path d="M50.2,40.9c2-1.2,6.4-4.1,8-5.3c-1.9,0.4-10.8,2.5-11,2.5l-0.1-0.1l0-0.2l-0.4-0.4c0.2,0,12.8-2.8,13.3-2.6
					c0.1,0.1,0.2,0.2,0.1,0.4c-0.7,0.7-8.7,6.1-9.1,6.3L50.2,40.9z"/>
				<path d="M52,42l-0.5-0.6c0.1,0,13-0.7,14.1,0.1c0.2,0.1,0,0.5-0.2,0.6c-1.6,0.8-7.8,2.6-8.6,2.8l-0.8-0.5
					c2.1-0.5,7.6-1.9,8.7-2.6C63.1,41.5,53.1,41.9,52,42z"/>
			</g>
			<path d="M64.2,16.1c-0.7-0.7-3.8-3.6-5.2-5.1c0,0,5.6,1.8,5.8,1.8c0.2,0,0.2-2.6,0.2-2.6l4.6,3.7c0.4,0,0.7,0,1.1-0.1l-5.8-4.7
				C64.7,9,64.4,8.9,64.2,9c-0.2,0-0.3,3.1-0.3,3.1s-5.8-1.7-6-1.7c-0.2,0.1,5.1,5.8,6,6.2l1.7-0.3c-0.2-0.2-0.3-0.3-0.5-0.5
				L64.2,16.1z"/>
			<path d="M83.9,34.8l0.7-2.6l5,1.2c0.2,0,0.4,0,0.6,0c0.1-0.1-3.1-3.5-4.7-5.1c-0.3,0.1-0.5,0.2-0.8,0.3l4,4c0,0-4.4-1-4.5-1
				c-0.1,0-1,2.3-1,2.3l-5.3-5.1c0.2,0,0.4-0.1,0.6-0.1c-0.1-0.1-0.2-0.2-0.3-0.3c-0.9,0.2-1.5,0.3-1.5,0.3c0,0.1,6.5,6.3,6.7,6.3
				C83.5,35,83.9,34.9,83.9,34.8z"/>
			<path d="M80.1,30.3c0.1,0,2.4-0.9,4.6-1.8c0.3-0.1,0.5-0.2,0.8-0.3c1.6-0.6,2.8-1.2,2.8-1.2c0,0,0,0,0,0
				c-5-4.7-13.9-13.5-14-13.5c-0.1,0-1.7,0.1-3.7,0.2c-0.4,0-0.7,0-1.1,0.1c-2.9,0.2-6,0.4-6,0.5c0,0,0.6,0.7,1.7,1.7
				c0.1,0.1,0.3,0.3,0.5,0.5c3.3,3.2,9.4,9.1,12.5,12c0.1,0.1,0.2,0.2,0.3,0.3C79.5,29.7,80.1,30.3,80.1,30.3z M87.2,27.1l-6.6,2.6
				c-1.6-1.6-11.3-11-15.8-14.9c3.6-0.5,7.9-0.8,8.9-0.8C74.5,14.9,79.7,20.1,87.2,27.1z"/>
			<path fill-rule="evenodd" clip-rule="evenodd" d="M81.4,22.3c-0.3,0.4-1,0.5-1.6,0.7c0.9,0.9-1.4,1.6-2.9,1.8
				c-0.2-1,2-0.6,2.2-1.4c-0.8-0.1-1.6,0.7-3.1,0.5c-0.1-0.9,1.8-0.7,2.6-1.2c0.2-0.4-0.3-0.5-0.5-0.8c-1.4,0.2-2.1,0.9-4,0.8
				c-0.4-1.2,1.6-1.7,2.6-2.4c-1,0-2.1,0.4-3,0.1c1.1-0.4,2.7-0.6,4.6-0.5c-0.8,0.9-2.3,1.3-3,2.2c1.2-0.1,2-0.5,3.3-0.6
				c0.2,0.4,0.7,0.7,0.9,1.1C80.3,22.5,80.5,22.2,81.4,22.3z"/>
			<path fill-rule="evenodd" clip-rule="evenodd" d="M75.3,18.1c0.2,0.1,0.3,0.2,0.2,0.2c-1.5,0.5-3.1,1.2-4.6,0.6
				C72.4,18.3,73.9,18.2,75.3,18.1z"/>
			<path fill-rule="evenodd" clip-rule="evenodd" d="M75.2,17.1c0.4,0.3,2.2,1.3,2,1.8C75.2,19.1,74.9,17.7,75.2,17.1z"/>
		</g>
	</g>
</g>
</svg>
