<?xml version="1.0" encoding="utf-8"?>
<!-- Generator: Adobe Illustrator 21.1.0, SVG Export Plug-In . SVG Version: 6.00 Build 0)  -->
<svg version="1.1" xmlns="http://www.w3.org/2000/svg" xmlns:xlink="http://www.w3.org/1999/xlink" x="0px" y="0px"
	 viewBox="0 0 98 60" enable-background="new 0 0 98 60" xml:space="preserve" width="98" height="60" preserveAspectRatio="none">
<g id="Layer_1">
</g>
<g id="Layer_2">
	<g>
		<g>
			<path fill="#956A28" d="M96.2,31.2l-1.1,11.1c0,0-2.5,2.4-3.8,3.6c-1.3,1.2-6.4,5.4-18.8,8.5S50,57.9,36.1,56.3
				c-13.9-1.5-18.7-4.6-22.9-6.5C9,48,1.6,40.7,2.4,40.4c0.8-0.2-1.4-11.5-1.1-11S96.6,31.6,96.2,31.2z"/>
			<path d="M49.3,58.2c-8.2,0-18-2.1-24.7-3.5C9,51.2,2.8,42.3,2.4,40.4C2,38.9,1.3,31,1.3,29.4l0.4-1.1l0.1,0.1L97,27.8
				c-0.1,5.6-0.6,10.6-1.8,14.6l-0.1,0.1c-0.1,0.1-2.2,4.3-9.5,7.9C71.8,57.1,61.1,58.2,49.3,58.2z M2.3,29.4
				C2.5,32.2,3.4,40,3.6,40.5c1,1.9,6.7,9.7,22.6,12.9c22.4,4.6,40.6,4.1,59.8-4.8c3.9-1.8,7.8-6.1,8.2-6.6l2-12.9L2.3,29.4z"/>
		</g>
		<g>
			<linearGradient id="SVGID_1_" gradientUnits="userSpaceOnUse" x1="56.3035" y1="1.5893" x2="28.0002" y2="99.4094">
				<stop  offset="0" style="stop-color:#FFE579"/>
				<stop  offset="1" style="stop-color:#997735"/>
			</linearGradient>
			<path fill-rule="evenodd" clip-rule="evenodd" fill="url(#SVGID_1_)" d="M97.3,24.1c1.9,12.7-19,23.9-44.8,24.9
				c-25.8,0.9-49.2-9-51.1-21.7S17.6,3.4,47.1,2C72.8,0.9,95.4,11.4,97.3,24.1z"/>
			<path fill-rule="evenodd" clip-rule="evenodd" fill="#956A28" d="M76,34.3c0,0-0.7-3.3-1.2-4.7s-1.5-1.7-0.2-2
				c1.3-0.3,2-1.3,1.8-2.4c-0.3-1.2-1.3-1.2-1.2-1.6c0-0.3,1.8-1.5,1.8-1.5l-3,1.7c0,0,1.4,0.9,1.3,1.1s0.2,1-0.6,1.5
				s-1.7,1.2-1.8,1.3c-0.1,0.1,1.2,1.8,1.2,1.9C74,29.7,76,34.3,76,34.3z"/>
			<path fill-rule="evenodd" clip-rule="evenodd" fill="#956A28" d="M23.7,27c0,0-0.2-2.4,0.7-3.6c0.9-1.2,1.5-1.1,1.3-2
				c-0.2-0.9,0.5-2.5,2.5-3.7s4.1-2.1,4.4-2.1c0.3,0,1.3,0.6,1.3,0.6l0-0.8c0,0,2.2,0.8,2,0.9c-0.1,0.1-2.5,2.1-2.7,2.1
				c-0.2,0-3.3,1.2-3.3,1.2l-2.1,1l-0.7,0.7l-0.9,1.5L24.3,25L23.7,27z"/>
			<path fill-rule="evenodd" clip-rule="evenodd" fill="#956A28" d="M33.8,16.1c-0.5,0.1-6.6-2.4-10.9-4.5s-6.6-3.2-6.4-3.3
				c0.2-0.1,2.7-1.1,2.6-0.9s7.2,4.1,7.3,4.3c0.1,0.2,7.3,3.3,7.3,3.4c0,0.1,0.9,0.7,0.9,0.7L33.8,16.1z"/>
			<path fill-rule="evenodd" clip-rule="evenodd" fill="#956A28" d="M33.4,29.5c0.2,0,1.1,0,2,0.1c0.9,0.2,0.8,0.2,2,0.1
				c1.2-0.1,1.7,0,2.5,0.1c0.8,0.1,1.9,0.2,1.9,0.2s2-0.5,3.8-0.5c1.9,0,3,0.5,3.2,0.4c0.2,0,2.8-0.6,4.6-0.3
				c1.8,0.3,1.8,0.9,1.8,0.9s-0.7-0.5-2.4-0.6c-1.7-0.1-2.6,0.4-2.8,0.4c-0.2,0-1.2,0.3-1.2,0.3s-0.3-0.4-2.4-0.6s-2.6,0-3.4,0.2
				c-0.8,0.2-1.8,0.6-1.8,0.6s-1.1-0.5-2.3-0.6c-1.1,0-2.7,0.2-3,0.2c-0.2,0-2.6-0.3-2.6-0.3L33.4,29.5z"/>
			<path fill-rule="evenodd" clip-rule="evenodd" fill="#956A28" d="M69.4,31.3c-0.2-0.2-2.4-1.4-1.4-2c1-0.7-0.3-1.3-0.3-1.3
				s0.2,0.8-0.5,1c-0.7,0.2-1.7,0.7-1.7,0.7l1.5,0.7L69.4,31.3z"/>
			<path fill-rule="evenodd" clip-rule="evenodd" fill="#956A28" d="M83.5,9c-0.4,0.2-5.2,2.8-5.3,2.3c-0.1-0.5,2.6-3.8,2.6-3.8
				l1,0.1C81.8,7.7,83.8,8.9,83.5,9z"/>
			<path fill-rule="evenodd" clip-rule="evenodd" fill="#956A28" d="M31,8.8c0-0.1-0.5-1.2-1.5-1.3c-1.6-0.1-1.6-0.1-1.6-0.1
				l-0.9-2.5l2-0.9L31,8.8z"/>
			<path fill-rule="evenodd" clip-rule="evenodd" fill="#F3D871" d="M30,33c0,0,1.2,0.4,3,0.3c1.9-0.1,2.3-0.4,2.3-0.4
				s1.3,0.7,3.4,0.6s3.1-0.6,3.1-0.6s0.1,0.1,0.4,0.2c0.4,0.1,1.3,0.3,3,0.2c2,0,2.9-0.3,3.3-0.5c0.2-0.1,0.2-0.1,0.2-0.1
				s1.8,0.6,3.6,0.5c1.9-0.1,3.4-0.6,3.4-0.6s-0.4,0.7-1.9,0.9c-1.5,0.2-2.5,0.4-3.4,0.1s-2-1.4-2-1.4s0.3,1.2-1,1.5
				c-1.3,0.3-3.1,0-3.1,0L43,33.5c0,0-0.4-0.3-1.5,0.2c-1,0.4-1.8,0.9-3.5,0.6c-1.6-0.3-2.3-0.8-2.3-0.8s0,0.6-2.1,0.6
				S29.9,33.6,30,33z"/>
			<path fill-rule="evenodd" clip-rule="evenodd" fill="#F3D871" d="M48,26c0-0.1-3.8,1.3-6.3,0.9c-2.4-0.3-5.6-1-9.4-0.9
				c-3.8,0.1-6,0.9-7.2,0.6c-1.1-0.3-1-0.9-1.2-0.7s-0.6,1.6,0.9,1.5c2.5-0.1,5.4-0.8,8.2-0.7s7.1,0.8,7.5,0.9
				c0.3,0,3.5-0.1,3.9-0.1C44.7,27.4,48.1,26.4,48,26z"/>
			<path fill-rule="evenodd" clip-rule="evenodd" fill="#F3D871" d="M74.6,33.2c0,0-2.4-0.8-4.4-1.2c-2-0.4-4.8-1.8-5.4-2.1
				c-0.6-0.3-0.4-0.5,0.3-0.9c0.7-0.4,1.2-0.6,1.2-0.9c0-0.3-0.4-0.8-0.4-0.8l1.3,0.4c0,0,1.4,0.7,0.7,1c-0.7,0.3-2.4,1-2.4,1
				l3.4,1.4l3.1,0.9c0,0,1.9,0.3,2,0.4C74.1,32.5,74.6,33.2,74.6,33.2z"/>
			<path fill-rule="evenodd" clip-rule="evenodd" fill="#DBBF62" d="M32.6,14.3c0,0-1.9-1.1-2.7-2.5c-0.8-1.3-1.1-2.4-1.2-2.2
				c-0.1,0.2-0.2,1.2-0.2,1.2s-1.8-0.6-3.8-1.6c-2-0.9-4-2.8-4.2-2.7s-1.8,0.8-1.8,1s6.3,3.4,6.3,3.4L32.6,14.3z"/>
			<path fill-rule="evenodd" clip-rule="evenodd" fill="#DBBF62" d="M86.7,19.6c0.2-0.1-5.8,1.6-7.9,1c-2.1-0.6-4.2-2.1-4.2-1.9
				s2,3.7,2.3,3.7C77.2,22.3,85.5,20.3,86.7,19.6z"/>
			<path fill-rule="evenodd" clip-rule="evenodd" fill="#DBBF62" d="M68.7,21.2c0,0-2.6-3.7-5.5-5.8c-2.9-2.1-8.1-4.5-8.1-4.5
				s6.1,4.2,6.2,4.3C61.3,15.5,68.7,21.2,68.7,21.2z"/>
			<path fill-rule="evenodd" clip-rule="evenodd" fill="#DBBF62" d="M38.6,15.7c-0.3-0.1-2.2-2-2.2-2l-1.1,0.4l1.6,2L38.6,15.7z"/>
			<path fill-rule="evenodd" clip-rule="evenodd" fill="#DBBF62" d="M42.7,13c0.3,0,0.8-0.5,0.8-0.5l-3.9-1.7c0,0,2.2-1.7,1.9-1.6
				c-0.2,0.1-3.7,1.9-3.7,1.9L42.7,13z"/>
			<path fill-rule="evenodd" clip-rule="evenodd" d="M52.5,47.1c-0.2,0-0.5,0-0.7,0c-0.1-1.1-1.2-1.6-1-2.8
				c-1.3,0.6-1.5,1.7-2.9,2.3c-0.9-0.7-1.1-2.5-1.1-3.3c1.3,0.3,0.7,1.5,1,2.3c1.1-0.8,1.5-1.9,3.1-2.4C52.7,43.8,51.6,46,52.5,47.1
				z"/>
			<path fill-rule="evenodd" clip-rule="evenodd" d="M45,46.7c-0.5,0.1-0.5-0.2-0.5-0.3c-2-0.1-4.8,0.2-6-0.3c1-0.8,4-0.1,5.8-0.1
				c0.4-0.7-0.1-1.9,0.7-2.5C47.1,43.9,45,45.7,45,46.7z"/>
			<path fill-rule="evenodd" clip-rule="evenodd" d="M53.5,45.5c0.3-0.4,1.8-0.5,2.8-0.7c1-0.1,2.4-0.6,3.1-0.1
				C58.8,45.2,55.3,46.1,53.5,45.5z"/>
			<path fill-rule="evenodd" clip-rule="evenodd" d="M62.2,45.4c-0.3,0-0.4,0-0.5-0.1c-0.7-1-2.2-1.5-2.7-2.7
				C60.8,42.6,62.2,44.6,62.2,45.4z"/>
			<path fill-rule="evenodd" clip-rule="evenodd" d="M42.9,45.5c-1.1,0-1.5-0.3-2.9-0.2c0-0.2,0-0.4-0.1-0.6
				C41.6,44.6,42.6,44.8,42.9,45.5z"/>
			<path fill-rule="evenodd" clip-rule="evenodd" d="M37.6,45.3c-1.2-0.5-1.2-2.3,0.2-2.7C39.5,43.1,37.6,44.5,37.6,45.3z"/>
			<path fill-rule="evenodd" clip-rule="evenodd" d="M33.1,45.2c-0.4-1.2,0.6-2.6,2.6-3.1c1,1.2-1.4,1.8-1.1,3
				c-0.2,0.1-0.6,0.1-0.7,0.3C33.4,45.4,33.4,45.2,33.1,45.2z"/>
			<path fill-rule="evenodd" clip-rule="evenodd" d="M70.9,44.3c-0.9-0.1-1.3-0.5-1.8-0.8c-1.8,0.7-3.9-0.5-4.5-1.3
				c2.2-0.3,1.7,1,3.5,1c0.2-0.4-1.7-0.8-1.6-1.6c2.1-0.2,1.9,0.9,3,1.2c0.9,0,1.1-0.3,1.6-0.4c-0.7-0.7-2.3-1-2.4-2.1
				c2.6-0.4,4,0.6,5.9,1c-0.2-0.5-1.3-1.1-0.7-1.6c1.2,0.5,1.7,1.4,1.9,2.4c-2.1-0.3-3.2-1.1-5.4-1.3c0.5,0.7,1.5,1,1.9,1.7
				c-0.9,0.2-1.5,0.5-2.3,0.7C70.2,43.7,71,43.7,70.9,44.3z"/>
			<path fill-rule="evenodd" clip-rule="evenodd" d="M64.7,44.4c-1-0.7-1.9-1.4-2.4-2.4C64.2,42.1,64.7,43.6,64.7,44.4z"/>
			<path fill-rule="evenodd" clip-rule="evenodd" d="M39.8,45.1c-0.2,0-0.5,0-0.7,0c0.3-0.8-0.6-2.1,0.7-2.5
				C41.2,43.2,39.6,44.3,39.8,45.1z"/>
			<path fill-rule="evenodd" clip-rule="evenodd" d="M53.9,44.5c0.3-0.7,2-0.6,3.3-0.6C57.2,44.5,54.8,44.6,53.9,44.5z"/>
			<path fill-rule="evenodd" clip-rule="evenodd" d="M26.7,43.7c-1.1-0.5-3.6-0.3-3.7-1.3c1.5,0,2.2,0.5,3.2,0.7
				c0.6-0.1,0.3-0.6,0.6-0.8c-1.6,0.1-2.4-0.2-2.7-0.8c0.5,0.4,2.2,0,2.9,0.3c0.8-0.1,0.9-1,1.8-0.8C29,42,27.8,43.1,26.7,43.7z"/>
			<path fill-rule="evenodd" clip-rule="evenodd" d="M78.8,41c-1.5-0.7-3.8-1.1-4.3-2.4C76.9,38.8,77.7,40,78.8,41z"/>
			<path fill-rule="evenodd" clip-rule="evenodd" d="M80.1,38.2c0.6,0.6-1.2,1.1-0.7,2c1.6,0,1.3-0.8,2.8-0.8
				c-0.6,0.6-1.2,1.2-3.2,1.1C78.6,39.8,78.3,38.4,80.1,38.2z"/>
			<path fill-rule="evenodd" clip-rule="evenodd" d="M22.1,41.7c0.3-0.9,0.7-1.6,1.7-2.2c0.6,0,0.8,0.2,1.2,0.2
				C24.7,40.7,23.9,41.4,22.1,41.7z"/>
			<path fill-rule="evenodd" clip-rule="evenodd" d="M18.4,41.1c0.5-0.6,0.5-1.5,2.2-1.6C21.1,40.2,20.5,41.2,18.4,41.1z"/>
			<path fill-rule="evenodd" clip-rule="evenodd" d="M82.9,39.1c-1.8-0.5-3.3-1.3-4.3-2.3C81.2,37,81.8,38.1,82.9,39.1z"/>
			<path fill-rule="evenodd" clip-rule="evenodd" d="M78.8,38.7c-1.2-0.2-2.4-0.3-2.3-1.1C77.7,37.7,78.6,38,78.8,38.7z"/>
			<path fill-rule="evenodd" clip-rule="evenodd" d="M17.3,39.7c-0.3-0.5,0.2-0.7,0.6-0.8C19.3,39,18.7,40.2,17.3,39.7z"/>
			<path fill-rule="evenodd" clip-rule="evenodd" d="M15.8,38.7c-0.2,0-0.5,0-0.7,0c0-0.1,0-0.2,0-0.4c0.2,0,0.5,0,0.7,0
				C15.8,38.5,15.8,38.6,15.8,38.7z"/>
			<path fill-rule="evenodd" clip-rule="evenodd" d="M12.1,19.9c-0.9-0.5-1.2-1.8-0.5-2.5C13.3,17.5,12.8,19.4,12.1,19.9z"/>
			<path fill-rule="evenodd" clip-rule="evenodd" d="M6.6,20c-0.2,0-0.5,0-0.7,0c-0.1-0.7-0.2-1.4-0.3-2.1c0.6-0.1,1,0,1,0.3
				c1-0.2,3.3-0.3,4.1,0c0,0.6-3.2,0.7-3.8,0.3C6.4,18.9,7.1,19.7,6.6,20z"/>
			<path fill-rule="evenodd" clip-rule="evenodd" d="M7.3,19.6c-0.2-0.6,1.3-0.4,1.9-0.3C8.8,19.8,8.2,19.7,7.3,19.6z"/>
			<path fill-rule="evenodd" clip-rule="evenodd" d="M23.3,19.2c-1-0.5-1.3-2-0.8-2.6C24.2,16.8,23.7,18.6,23.3,19.2z"/>
			<path fill-rule="evenodd" clip-rule="evenodd" d="M20.9,19c-0.8-0.2-1.2-0.7-1.4-1.3c-0.6,0.4-1,0.7-1.8,1
				c-1.3,0-1.6-0.6-2.5-0.9c-0.9,0.3-0.6,1.1-2,1.2c0.2-0.8,1-1.4,1.9-1.8c1,0.2,1.7,0.5,2,1c1-0.3,1.2-0.9,2-1.2
				C21,17,20.8,18.1,20.9,19z"/>
			<path fill-rule="evenodd" clip-rule="evenodd" d="M17.2,22.4c-1,0-0.4-1.1-0.7-1.5c-0.7,0.4-0.5,1.3-2.2,1.3c0-0.9-1.3-1.1-1-1.7
				c1.1-0.2,1.4,0.2,1.3,0.7c0.9-0.4,1.4-0.9,1.9-1.5C18.7,19.9,17.9,21.7,17.2,22.4z"/>
			<path fill-rule="evenodd" clip-rule="evenodd" d="M11.2,22.4c-0.9-0.1-1.5-1.2-0.7-1.5c0.6-0.1,0.5,0.2,1,0.2
				c0-0.2-0.1-0.5-0.1-0.7c1.8-0.2,1.1,0.8,1.2,1.4C11.5,21.5,11.4,22,11.2,22.4z"/>
			<path fill-rule="evenodd" clip-rule="evenodd" d="M19.3,21.8c-1.2,0.1-1-1.4-0.5-1.5C20.1,20.2,19.8,21.6,19.3,21.8z"/>
			<path fill-rule="evenodd" clip-rule="evenodd" d="M68.3,30.3c0.4-0.5,1.8-0.5,2.8-0.8c0-0.7-1-0.8-1.2-1.4
				c1.3,0.2,1.9,0.8,1.9,1.7C71.2,30.2,69.3,30.8,68.3,30.3z"/>
			<path fill-rule="evenodd" clip-rule="evenodd" d="M3.5,33.2c1.4,1.8,3.3,3.6,5,5.2c1.9,1.8,4.8,3.4,7.5,4.7
				c3.5,1.6,16.3,7.7,41.1,6.1c6.3-0.7,11.5-1.7,16.4-3.1c4.8-1.3,8.5-3,12-4.9c3.7-2,6.4-3.9,8.4-6.5c2-2.5,3.4-5.6,3.5-8.7
				c-0.2-1.4-0.4-2.8-0.6-4.2c-1.6-4-4.2-7.2-7.5-9.9c-0.8-0.7-3.6-2.4-4-2.6c-1.4-0.9-3.3-1.5-4.9-2.2c-3.7-1.6-8.5-3-13.1-3.8
				c-1.3-0.2-2.4-0.5-3.7-0.7C50.3,1,37.3,2.4,36.2,2.5c-6.7,0.7-12.3,2.3-16.7,3.9c-2.9,1-5,2.1-7,3.3c-1.7,1-3,1.6-4.4,2.6
				c-3.8,2.7-7.2,7-7.5,11.1C0.2,27.6,2.7,32.2,3.5,33.2z M2.2,23.8c0.1-1.2,0.6-2.6,1.1-3.8c1.5-3.4,4.5-6.4,8.7-8.8
				c4-2.2,9.1-4.4,15.1-6.1c5.1-1.4,15.2-2.7,25.2-2.5C55.6,2.7,63.9,3.1,70.9,5c11.2,3.1,19.6,7.6,23.2,15l0,0l0,0
				c0,0.1,0.1,0.2,0.1,0.2c0,0-0.1,0-0.1,0l0.1,0.5c0,0,0,0,0.1,0c1.6,2.6,1.6,5.2,1.1,7.6C94.5,34,88.9,38.6,82,42
				c-6.6,3.2-15.3,5.3-25.3,6.4c-5.3,0.6-11.9,0.3-16.2-0.1c-11.7-1-20.1-4.5-21.8-5.2c-3-1.2-6.2-2.9-8.4-4.9
				c-1.8-1.6-3.4-2.9-4.5-4.4c-0.5-0.7-1.1-1.8-1.5-2.4C3.2,29.6,2.1,26.4,2.2,23.8z"/>
			<path d="M20,8.6c1.6,0.9,3.1,1.8,4.7,2.7c0.4,0.2,7.2,3.6,10.6,4.8c-0.9,0.5-2.4,1.4-3.4,1.5c0-0.5,0.4-0.9,0.5-1.4
				c-2.4,1.5-6,2.1-6.3,4.4c-0.1,0.4,0.4,0.9,0.2,1.4c-0.2,0.7-1.5,1.6-2,2.4c-0.5,1-1.2,1.9-0.5,2.9c1.6,0.6,3.4-0.1,4.8-0.1
				c0.6,0,0.4,0.1,1,0.3c0.3,0.1,1.1,0.1,1.2,0.2c1.1,0.5,1.5,1.4,2.2,2.1c-5.7-0.3-5.8,4.6,0.4,4.5c0.2,2,2.1,3,4.4,3.7
				c5-0.4,10.7-1.6,17.3-1.7c4-0.1,6.8,0,9-0.9c1.7-0.8,3.3-2,3.9-3.1c3.1,0.5,4.8,1.8,8,2.2c-0.6-2-1.7-4.8-3.2-6.8
				c0.3-0.7,2-0.8,2.9-1.3c0.1-1-0.1-2.2-1.6-2.7c1.3-0.9,3.3-1.5,5.6-2c0.4-0.1,2.6-0.6,3.3-0.8c5.3-1.6,10.2-4,10.2-4l-0.5-0.6
				c0,0-5.7,3.3-13.1,4.9c-1,0.2-2,0.4-2.9,0.6c-1.7-3.1-2.5-6.7-4.8-9.4c-3.4,0.4-6.5,0.8-10.2,1.1c0.8-1,2.4-1.8,3.4-2.7
				c-4.9-1.4-10.2-2.6-15.9-3.6c-0.7-0.4,1-0.4,0.6-1c-0.1-0.8-0.8-1.3-0.8-2.1l-1-0.2c0,0.8,0.5,1.3,0.8,2c-4.3,1.4-8,3.1-11.3,4.9
				c0.4,0.5,1.5,0.8,2.3,1.1c0.8,0.3,1.5,0.7,2.3,1c-2.1,0.4-5.2,0.5-7.8,0.8c-0.1,1.1,2.1,1.5,1.8,2.3c-0.2,0-0.4-0.1-0.5-0.2
				c-1.2-0.5-2.3-1.1-3.6-1.8c-1.9-1-3.1-1.3-3.1-3c0-1.6-0.1-3.4,0.4-5.2c1.1,1.5,1.4,3.5,2.4,5c-0.2-2.1-1.3-4.8-1.6-7.3l-1.2,0.1
				c-0.4,2.7-2.4,5.2-0.9,8.3c-2.3-0.9-8.2-4.4-9.2-5c0,0,0,0,0,0c-0.3,0.1-0.7,0.3-1.1,0.4C18.6,7.8,19.3,8.2,20,8.6z M29.9,32.7
				c1.7,0.5,2.6-1.1,1-1.3c-0.8,0-1,0.2-1.1,0.4c-0.7-1.1,3.7-1.9,5.6-1c-1,0.7-0.7,1.7-0.1,2.7C33.7,34.4,30.5,33.8,29.9,32.7z
				 M37.5,31.8c-0.1-0.2-1.5-0.3-1.7-0.1c-0.8-0.5,0.7-1,1.2-1.3c2-0.1,3.1,0.3,4.2,0.7c-0.8,0.6-0.3,1.9,0.8,2.1
				c-1.4,1.3-6,1.2-6.3-0.5c1,0.3,2.2-0.1,2.1-0.7C37.7,31.9,37.5,31.9,37.5,31.8z M56.4,36c-1.5,0.2-3.4-0.2-5.5,0.1
				c1.1-0.5,3.3-0.5,3.7-1.3c-3.9,0.9-9.5,2.1-15.3,2.6c-0.2,0-0.2,0.2-0.2,0.2c-3.3-0.1-4.4-1.5-4.6-3.4c0.8,0,1-0.2,1.1-0.4
				c0.8,0.1,1.3,0.5,2,0.6c2.3,0,4-0.2,4.7-0.9c1.7,0.9,5.8,0.9,6.4-0.5c0.7,0.3,1.2,0.7,2.1,0.9c4.1,0.1,5.9-0.9,5.7-2.2
				c-0.3-1.9-5.1-2.7-7.6-1.1c-1.1-1.2-6.4-1.2-7.2,0.1c-0.7-0.6-2.2-0.6-3.5-0.8c-1.8,0.6-2.4,0.2-4.3,0c-0.6-1.2-1.3-2.4-3.5-2.7
				c4.2-0.6,8.9,0.8,13.1,0.5c3.3-0.3,5-1.5,6.8-2.7c1.3,0.2,2.5,0.5,3,1.1c0.4,0.6-0.6,0.9-0.1,1.2c1,0.3,2.2-0.2,2.6-0.6
				c-0.3-0.3-0.8,0.2-1.4,0.1c0.7-1-1.6-2.6-4.2-2.2c-1.2,0.2-1.7,1.2-2.6,1.6c-0.9,0.4-3.1,1-4.9,1.1c-3.1,0.2-6.1-0.7-9.3-0.7
				c-3.2,0-5.5,0.5-9.3,0.6c0-1.9,1.6-3.1,2.9-4.5c1.8,0.3,3.1,1,4.8,1.4c3.5-0.7,6.7-1.5,10-2.3c3.2,0.5,6.1,1.2,11.6,0.6
				c0.9,1,2.3,1.7,3.7,2.4c-0.1,0.8-1.3,1.7-0.8,2.5c0.4,0.6,1.6,0.7,2.6,1.1c0.6,1-1,2.2-0.5,3.3c0.2,0.4,1.6,1.1,2,1.8
				C59.5,34.5,58.7,35.7,56.4,36z M48.9,31.4c-0.5-0.2,0.7-0.7,0.8-1c6.1-1.8,8.5,3.6,1.5,3.3c-0.5-0.7-2.1-0.7-2.4-1.5
				c0.4,0.2,1.4,0.3,1.9,0C52.1,31.7,49.9,30.6,48.9,31.4z M48.4,32.7c-0.7,1.6-4.7,1.3-6.2,0.1c0.9,0,2.3-0.3,2-1.1
				c-0.3-0.4-1.7-0.4-2.4-0.1c0.5-1.7,4.9-1.8,6.9-0.7C47.3,31.4,48.7,32.1,48.4,32.7z M64.2,11.1c-1.3,0.9-2.7,1.7-3.4,2.8
				c3,0.3,7.3-0.6,10.7-0.9c1.9,2.9,3,6.2,4.7,9.2c-0.9,0.4-1.6,0.8-2.5,1.2c-1.3-0.2-2.3-0.6-3.5-0.8c-4.9-4.7-10.6-9-16.9-12.9
				C52,9.2,50.9,8.5,49.5,8c0-0.1-0.1-0.2-0.3-0.2C54,8.5,59.9,9.7,64.2,11.1z M48.1,9.6c-1.1,0.6-0.8,1.7-1,2.6
				c-0.7-0.2-0.9-0.6-1.6-0.8c0.8-1.2,1.8-2.3,2.6-3.5c1,0.7,2.5,1.2,3.6,1.8c-0.3,1.1-0.4,2.2-1,3.1C49.4,12.1,49.9,10.2,48.1,9.6z
				 M50.2,14.2c-2,0.3-4.1,0.7-6.6,0.8c0.1-1.2,1-2,1.5-3C46.8,12.7,48,13.7,50.2,14.2z M55.9,12.3c1.5,0.6,2.6,1.5,3.7,2.2
				c3.2,2.3,6.5,4.9,9.5,7.5c0.3,0,0.2,0.2,0.3,0.3c-7.2-1.9-12.2-5-17.5-7.9C53,13.6,54.8,13.1,55.9,12.3z M53.8,12.7
				c0.3-0.4,0.7-0.7,0.8-1.2c0.7,0,0.8,0.3,0.8,0.7C54.5,12.2,54.8,12.7,53.8,12.7z M35.7,14c3-0.1,6.1-0.1,7.6-0.9
				c-1.3-0.9-3-1.5-5.1-1.9c3.2-1.7,7.2-3.1,10.6-4.8c-2.7,2.2-4.9,5.5-6.1,8.8c-2.2,0-3.7,0.3-5.2,0.5C37.1,15,35.5,14.6,35.7,14z
				 M35.7,16.9c2.6-1.5,10.8-1.4,15-2.4c0.7,0.2,1,0.5,1.3,0.8c1.8,1.2,4.4,2.3,6.8,3.5c0.8,0.4,1.6,1,2.6,1.4
				c1.8,0.8,4.3,1.4,6.6,2.1c2.2,0.7,5.3,1.4,6.1,2.4c1.1,1.3-0.3,2-2,2.7c0.2-0.5-1-0.2-0.8-0.7c-2-0.2-3.1-0.9-5.7-0.9
				c-0.5,0.5,1.2,0.6,2.3,0.6c2.4,0.6,4.6,1.2,5.5,2.8c0.6,1,0.6,2.2,1.2,3.4c0,0.1,0.1,0.1,0.3,0.1c0,0.1-0.2,0.1-0.2,0
				c-0.4-0.2-0.7-0.6-1.3-0.8c-0.7-0.2-2.4-0.4-3.5-0.7c-1.6-0.5-2.2-1.3-3.9-1.8c1.1-0.2,1.7-0.7,2.5-1c-0.8-0.8-1.3-1.6-3.6-1.5
				c0.7,0.5,1.8,0.8,2.6,1.2c-0.6,0.5-1.6,0.9-2.5,1.3c2.2,1.2,4.4,2.5,8.1,2.9c0.6,0.7,2,0.8,2.4,1.6c-2-0.5-3.2-1.1-5.1-1.6
				c-1.7-0.5-4.8-0.8-5.8-1.7c-0.5-0.5-1-1.2-1.5-1.7c-0.4-0.6-1.1-1.3-1.2-1.9c-0.5-1.5,1.4-4-0.8-5.3c-1.8-1.1-4.8-1.9-7.2-2.8
				c-2.5-1-5.4-1.7-8.5-2.1c-2.9,0.7-6.6,0.7-8.9,0C36.5,17,36,16.9,35.7,16.9c-0.1,0-0.2,0.1-0.3,0.1C35.5,17,35.6,16.9,35.7,16.9z
				"/>
			<path d="M48.3,4.7l0.9-0.1c0,0-0.2-1.3-0.1-2.6c-0.4,0-0.8,0-1.1,0C47.9,3.3,48.3,4.6,48.3,4.7z"/>
			<polygon points="80.3,7.4 82.2,8 78.7,10.4 			"/>
		</g>
	</g>
</g>
</svg>
