<?xml version="1.0" encoding="utf-8"?>
<!-- Generator: Adobe Illustrator 23.0.1, SVG Export Plug-In . SVG Version: 6.00 Build 0)  -->
<svg version="1.1" xmlns="http://www.w3.org/2000/svg" xmlns:xlink="http://www.w3.org/1999/xlink" x="0px" y="0px"
	 viewBox="0 0 1024 252" enable-background="new 0 0 1024 252" xml:space="preserve" width="1024" height="252" preserveAspectRatio="none">
<g id="Layer_22">
</g>
<g id="BG">
</g>
<g id="Stage">
</g>
<g id="White_Frame_Drop_Shadow">
</g>
<g id="White_Frame_BG">
</g>
<g id="Right_Microphone">
</g>
<g id="Left_Speaker">
</g>
<g id="Stage_Light_Left">
</g>
<g id="Stage_LIght_Right">
</g>
<g id="Curtain_Left">
</g>
<g id="Curtain_Right">
</g>
<g id="Submit_Button_1_">
</g>
<g id="Left_Tool_Bar_Tab">
</g>
<g id="Right_Info_Tab">
</g>
<g id="Top_Tab">
</g>
<g id="Left_Tools">
</g>
<g id="Keyboard">
</g>
<g id="Header">
</g>
<g id="Header_Buttons">
</g>
<g id="Progress_Indicator_1_">
</g>
<g id="Title">
</g>
<g id="Problem_Screen">
	<g>
		<g>
			<g>
				<path fill="#5C0430" d="M186.1,6.8c-27.4,0.9-44,7.2-53.4,12.8c0,0.1,0,0.3,0,0.4h0v102h123.4V27.4
					C243.9,18.3,220.6,5.7,186.1,6.8z"/>
				<path fill="#730426" d="M256,20c-0.6-8.7-28-17.6-61.7-17.6c-33.2,0-60.3,8.6-61.6,17.2c9.4-5.6,26-12,53.4-12.8
					c34.5-1.1,57.7,11.5,69.9,20.6L256,20L256,20z"/>
			</g>
			<g>
				<path fill="#5C0430" d="M343.8,6.8c-27.4,0.9-44,7.2-53.4,12.8c0,0.1,0,0.3,0,0.4h0v102h123.4V27.4
					C401.5,18.3,378.2,5.7,343.8,6.8z"/>
				<path fill="#730426" d="M413.7,20c-0.6-8.7-28-17.6-61.7-17.6c-33.2,0-60.3,8.6-61.6,17.2c9.4-5.6,26-12,53.4-12.8
					c34.5-1.1,57.7,11.5,69.9,20.6L413.7,20L413.7,20z"/>
			</g>
			<g>
				<path fill="#5C0430" d="M517.8,6.8c27.4,0.9,44,7.2,53.4,12.8c0,0.1,0,0.3,0,0.4h0v102H447.9V27.4
					C460.1,18.3,483.4,5.7,517.8,6.8z"/>
				<path fill="#730426" d="M447.9,20c0.6-8.7,28-17.6,61.7-17.6c33.2,0,60.3,8.6,61.6,17.2c-9.4-5.6-26-12-53.4-12.8
					c-34.5-1.1-57.7,11.5-69.9,20.6L447.9,20L447.9,20z"/>
			</g>
			<g>
				<path fill="#5C0430" d="M677,6.8c27.4,0.9,44,7.2,53.4,12.8c0,0.1,0,0.3,0,0.4h0v102H607.1V27.4C619.3,18.3,642.6,5.7,677,6.8z"
					/>
				<path fill="#730426" d="M607.2,20c0.6-8.7,28-17.6,61.7-17.6c33.2,0,60.3,8.6,61.6,17.2c-9.4-5.6-26-12-53.4-12.8
					c-34.5-1.1-57.7,11.5-69.9,20.6L607.2,20L607.2,20z"/>
			</g>
			<g>
				<path fill="#5C0430" d="M838.7,6.8c27.4,0.9,44,7.2,53.4,12.8c0,0.1,0,0.3,0,0.4h0v102H768.8V27.4
					C780.9,18.3,804.2,5.7,838.7,6.8z"/>
				<path fill="#730426" d="M768.8,20c0.6-8.7,28-17.6,61.7-17.6c33.2,0,60.3,8.6,61.6,17.2c-9.4-5.6-26-12-53.4-12.8
					c-34.5-1.1-57.7,11.5-69.9,20.6L768.8,20L768.8,20z"/>
			</g>
			<g>
				<path fill="#5C0430" d="M595.3,19.6c28.3,0.9,45.4,7.4,55.1,13.2c0,0.1,0,0.3,0,0.4h0v105.2H523.2V40.8
					C535.8,31.4,559.8,18.4,595.3,19.6z"/>
				<path fill="#730426" d="M523.2,33.2c0.6-9,28.8-18.2,63.6-18.2c34.2,0,62.1,8.9,63.5,17.8c-9.7-5.8-26.8-12.4-55.1-13.2
					c-35.5-1.1-59.5,11.9-72.1,21.2L523.2,33.2L523.2,33.2z"/>
			</g>
			<g>
				<g>
					<path fill="#5C0430" d="M759.3,19.6c28.3,0.9,45.4,7.4,55.1,13.2c0,0.1,0,0.3,0,0.4h0v105.2H687.2V40.8
						C699.8,31.4,723.8,18.4,759.3,19.6z"/>
					<path fill="#730426" d="M687.2,33.2c0.6-9,28.8-18.2,63.6-18.2c34.2,0,62.1,8.9,63.5,17.8c-9.7-5.8-26.8-12.4-55.1-13.2
						c-35.5-1.1-59.5,11.9-72.1,21.2L687.2,33.2L687.2,33.2z"/>
				</g>
				<g>
					<path fill="#5C0430" d="M918.5,19.6c28.3,0.9,45.4,7.4,55.1,13.2c0,0.1,0,0.3,0,0.4h0v105.2H846.5V40.8
						C859,31.4,883,18.4,918.5,19.6z"/>
					<path fill="#730426" d="M846.5,33.2c0.6-9,28.8-18.2,63.6-18.2c34.2,0,62.1,8.9,63.5,17.8c-9.7-5.8-26.8-12.4-55.1-13.2
						C883,18.4,859,31.4,846.5,40.8L846.5,33.2L846.5,33.2z"/>
				</g>
			</g>
			<g>
				<path fill="#5C0430" d="M423.9,19.6c-28.3,0.9-45.4,7.4-55.1,13.2c0,0.1,0,0.3,0,0.4h0v105.2H496V40.8
					C483.4,31.4,459.5,18.4,423.9,19.6z"/>
				<path fill="#730426" d="M496,33.2L496,33.2c0-0.2-0.1-0.5-0.1-0.7c0,0,0-0.1,0-0.1c0-0.1-0.1-0.2-0.1-0.3c0,0,0-0.1,0-0.1
					c0-0.1-0.1-0.2-0.1-0.3c0-0.1,0-0.1-0.1-0.2c0-0.1-0.1-0.2-0.1-0.2c0-0.1-0.1-0.1-0.1-0.2c0-0.1-0.1-0.2-0.1-0.2
					c0-0.1-0.1-0.1-0.1-0.2c0-0.1-0.1-0.2-0.2-0.2c0-0.1-0.1-0.1-0.1-0.2c-0.1-0.1-0.1-0.2-0.2-0.2c0-0.1-0.1-0.1-0.1-0.2
					c-0.1-0.1-0.1-0.2-0.2-0.2c-0.1-0.1-0.1-0.1-0.2-0.2c-0.1-0.1-0.1-0.1-0.2-0.2c-0.1-0.1-0.1-0.1-0.2-0.2
					c-0.1-0.1-0.1-0.1-0.2-0.2c-0.1-0.1-0.1-0.1-0.2-0.2c-0.1-0.1-0.2-0.1-0.2-0.2c-0.1-0.1-0.1-0.1-0.2-0.2
					c-0.1-0.1-0.2-0.1-0.3-0.2c-0.1-0.1-0.2-0.1-0.2-0.2c-0.1-0.1-0.2-0.1-0.3-0.2c-0.1-0.1-0.2-0.1-0.2-0.2
					c-0.1-0.1-0.2-0.1-0.3-0.2c-0.1-0.1-0.2-0.1-0.3-0.2c-0.1-0.1-0.2-0.1-0.3-0.2c-0.1-0.1-0.2-0.1-0.3-0.2
					c-0.1-0.1-0.2-0.1-0.3-0.2c-0.1-0.1-0.2-0.1-0.3-0.2c-0.1-0.1-0.2-0.1-0.3-0.2c-0.1-0.1-0.2-0.1-0.3-0.2
					c-0.1-0.1-0.2-0.1-0.4-0.2c-0.1-0.1-0.2-0.1-0.3-0.2c-0.1-0.1-0.2-0.1-0.4-0.2c-0.1-0.1-0.2-0.1-0.3-0.2
					c-0.1-0.1-0.3-0.1-0.4-0.2c-0.1-0.1-0.2-0.1-0.4-0.2c-0.1-0.1-0.3-0.1-0.4-0.2c-0.1-0.1-0.3-0.1-0.4-0.2
					c-0.1-0.1-0.3-0.1-0.4-0.2c-0.1-0.1-0.3-0.1-0.4-0.2c-0.1-0.1-0.3-0.1-0.4-0.2c-0.1-0.1-0.3-0.1-0.4-0.2
					c-0.1-0.1-0.3-0.1-0.4-0.2c-0.1-0.1-0.3-0.1-0.4-0.2c-0.1-0.1-0.3-0.1-0.5-0.2c-0.1-0.1-0.3-0.1-0.4-0.2
					c-0.2-0.1-0.3-0.1-0.5-0.2c-0.1-0.1-0.3-0.1-0.5-0.2c-0.2-0.1-0.3-0.1-0.5-0.2c-0.2-0.1-0.3-0.1-0.5-0.2
					c-0.2-0.1-0.3-0.1-0.5-0.2c-0.2-0.1-0.3-0.1-0.5-0.2c-0.2-0.1-0.3-0.1-0.5-0.2c-0.2-0.1-0.3-0.1-0.5-0.2
					c-0.2-0.1-0.3-0.1-0.5-0.2c-0.2-0.1-0.3-0.1-0.5-0.2c-0.2-0.1-0.4-0.1-0.5-0.2c-0.2-0.1-0.3-0.1-0.5-0.2
					c-0.2-0.1-0.4-0.1-0.5-0.2c-0.2-0.1-0.4-0.1-0.5-0.2c-0.2-0.1-0.4-0.1-0.5-0.2c-0.2-0.1-0.4-0.1-0.5-0.2
					c-0.2-0.1-0.4-0.1-0.6-0.2c-0.2-0.1-0.4-0.1-0.6-0.2c-0.2,0-0.4-0.1-0.6-0.1c-0.2,0-0.4-0.1-0.6-0.1c-0.2,0-0.4-0.1-0.6-0.1
					c-0.2,0-0.4-0.1-0.6-0.1c-0.2,0-0.4-0.1-0.6-0.1c-0.2,0-0.4-0.1-0.6-0.1c-0.2,0-0.4-0.1-0.6-0.1c-0.2,0-0.4-0.1-0.6-0.1
					c-0.2,0-0.4-0.1-0.6-0.1c-0.2,0-0.4-0.1-0.6-0.1c-0.2,0-0.4-0.1-0.6-0.1c-0.2,0-0.4-0.1-0.6-0.1c-0.2,0-0.4-0.1-0.6-0.1
					c-0.2,0-0.4-0.1-0.6-0.1c-0.2,0-0.4-0.1-0.6-0.1c-0.2,0-0.4-0.1-0.7-0.1c-0.2,0-0.4-0.1-0.6-0.1c-0.2,0-0.4-0.1-0.7-0.1
					c-0.2,0-0.4-0.1-0.7-0.1c-0.2,0-0.5-0.1-0.7-0.1c-0.2,0-0.4-0.1-0.7-0.1c-0.2,0-0.5-0.1-0.7-0.1c-0.2,0-0.4-0.1-0.7-0.1
					c-0.2,0-0.5-0.1-0.7-0.1c-0.2,0-0.5-0.1-0.7-0.1c-0.2,0-0.5-0.1-0.7-0.1c-0.2,0-0.5-0.1-0.7-0.1c-0.2,0-0.5-0.1-0.7-0.1
					c-0.2,0-0.5-0.1-0.7-0.1c-0.2,0-0.5-0.1-0.7-0.1c-0.2,0-0.5-0.1-0.7-0.1c-0.2,0-0.5-0.1-0.7-0.1c-0.2,0-0.5-0.1-0.7-0.1
					c-0.2,0-0.5-0.1-0.8-0.1c-0.2,0-0.5,0-0.7-0.1c-0.3,0-0.5,0-0.8-0.1c-0.2,0-0.5,0-0.7-0.1c-0.3,0-0.5,0-0.8-0.1
					c-0.2,0-0.5,0-0.7-0.1c-0.3,0-0.5,0-0.8-0.1c-0.2,0-0.5,0-0.7-0.1c-0.3,0-0.5,0-0.8-0.1c-0.2,0-0.5,0-0.7,0
					c-0.3,0-0.5,0-0.8-0.1c-0.2,0-0.5,0-0.7,0c-0.3,0-0.6,0-0.8,0c-0.2,0-0.5,0-0.7,0c-0.3,0-0.6,0-0.8,0c-0.2,0-0.5,0-0.7,0
					c-0.3,0-0.6,0-0.9,0c-0.2,0-0.5,0-0.7,0c-0.3,0-0.6,0-0.9,0c-0.2,0-0.4,0-0.6,0c-0.3,0-0.7,0-1,0c-0.2,0-0.4,0-0.6,0
					c-0.3,0-0.7,0-1,0c-0.2,0-0.4,0-0.6,0c-0.5,0-1.1,0-1.6,0c-0.5,0-1.1,0-1.6,0c-0.2,0-0.4,0-0.6,0c-0.3,0-0.7,0-1,0
					c-0.2,0-0.4,0-0.6,0c-0.3,0-0.7,0-1,0c-0.2,0-0.4,0-0.6,0c-0.3,0-0.6,0-0.9,0c-0.2,0-0.5,0-0.7,0c-0.3,0-0.6,0-0.9,0
					c-0.2,0-0.5,0-0.7,0c-0.3,0-0.6,0-0.8,0c-0.2,0-0.5,0-0.7,0c-0.3,0-0.6,0-0.8,0c-0.2,0-0.5,0-0.7,0c-0.3,0-0.5,0-0.8,0.1
					c-0.2,0-0.5,0-0.7,0c-0.3,0-0.5,0-0.8,0.1c-0.2,0-0.5,0-0.7,0.1c-0.3,0-0.5,0-0.8,0.1c-0.2,0-0.5,0-0.7,0.1
					c-0.3,0-0.5,0-0.8,0.1c-0.2,0-0.5,0-0.7,0.1c-0.3,0-0.5,0-0.8,0.1c-0.2,0-0.5,0-0.7,0.1c-0.3,0-0.5,0.1-0.8,0.1
					c-0.2,0-0.5,0.1-0.7,0.1c-0.2,0-0.5,0.1-0.7,0.1c-0.2,0-0.5,0.1-0.7,0.1c-0.2,0-0.5,0.1-0.7,0.1c-0.2,0-0.5,0.1-0.7,0.1
					c-0.2,0-0.5,0.1-0.7,0.1c-0.2,0-0.5,0.1-0.7,0.1c-0.2,0-0.5,0.1-0.7,0.1c-0.2,0-0.5,0.1-0.7,0.1c-0.2,0-0.5,0.1-0.7,0.1
					c-0.2,0-0.4,0.1-0.7,0.1c-0.2,0-0.5,0.1-0.7,0.1c-0.2,0-0.4,0.1-0.7,0.1c-0.2,0-0.5,0.1-0.7,0.1c-0.2,0-0.4,0.1-0.7,0.1
					c-0.2,0-0.4,0.1-0.7,0.1c-0.2,0-0.4,0.1-0.6,0.1c-0.2,0-0.4,0.1-0.7,0.1c-0.2,0-0.4,0.1-0.6,0.1c-0.2,0-0.4,0.1-0.6,0.1
					c-0.2,0-0.4,0.1-0.6,0.1c-0.2,0-0.4,0.1-0.6,0.1c-0.2,0-0.4,0.1-0.6,0.1c-0.2,0-0.4,0.1-0.6,0.1c-0.2,0-0.4,0.1-0.6,0.1
					c-0.2,0-0.4,0.1-0.6,0.1c-0.2,0-0.4,0.1-0.6,0.1c-0.2,0-0.4,0.1-0.6,0.1c-0.2,0-0.4,0.1-0.6,0.1c-0.2,0-0.4,0.1-0.6,0.1
					c-0.2,0-0.4,0.1-0.6,0.1c-0.2,0-0.4,0.1-0.6,0.1c-0.2,0-0.4,0.1-0.6,0.1c-0.2,0.1-0.4,0.1-0.6,0.2c-0.2,0.1-0.4,0.1-0.6,0.2
					c-0.2,0.1-0.4,0.1-0.5,0.2c-0.2,0.1-0.4,0.1-0.5,0.2c-0.2,0.1-0.4,0.1-0.5,0.2c-0.2,0.1-0.4,0.1-0.5,0.2
					c-0.2,0.1-0.3,0.1-0.5,0.2c-0.2,0.1-0.4,0.1-0.5,0.2c-0.2,0.1-0.3,0.1-0.5,0.2c-0.2,0.1-0.3,0.1-0.5,0.2
					c-0.2,0.1-0.3,0.1-0.5,0.2c-0.2,0.1-0.3,0.1-0.5,0.2c-0.2,0.1-0.3,0.1-0.5,0.2c-0.2,0.1-0.3,0.1-0.5,0.2
					c-0.2,0.1-0.3,0.1-0.5,0.2c-0.2,0.1-0.3,0.1-0.5,0.2c-0.2,0.1-0.3,0.1-0.5,0.2c-0.2,0.1-0.3,0.1-0.5,0.2
					c-0.1,0.1-0.3,0.1-0.4,0.2c-0.2,0.1-0.3,0.1-0.5,0.2c-0.1,0.1-0.3,0.1-0.4,0.2c-0.1,0.1-0.3,0.1-0.4,0.2
					c-0.1,0.1-0.3,0.1-0.4,0.2c-0.1,0.1-0.3,0.1-0.4,0.2c-0.1,0.1-0.3,0.1-0.4,0.2c-0.1,0.1-0.3,0.1-0.4,0.2
					c-0.1,0.1-0.3,0.1-0.4,0.2c-0.1,0.1-0.3,0.1-0.4,0.2c-0.1,0.1-0.2,0.1-0.4,0.2c-0.1,0.1-0.3,0.1-0.4,0.2
					c-0.1,0.1-0.2,0.1-0.3,0.2c-0.1,0.1-0.2,0.1-0.4,0.2c-0.1,0.1-0.2,0.1-0.3,0.2c-0.1,0.1-0.2,0.1-0.4,0.2
					c-0.1,0.1-0.2,0.1-0.3,0.2c-0.1,0.1-0.2,0.1-0.3,0.2c-0.1,0.1-0.2,0.1-0.3,0.2c-0.1,0.1-0.2,0.1-0.3,0.2
					c-0.1,0.1-0.2,0.1-0.3,0.2c-0.1,0.1-0.2,0.1-0.3,0.2c-0.1,0.1-0.2,0.1-0.3,0.2c-0.1,0.1-0.2,0.1-0.3,0.2
					c-0.1,0.1-0.2,0.1-0.2,0.2c-0.1,0.1-0.2,0.1-0.3,0.2c-0.1,0.1-0.2,0.1-0.2,0.2c-0.1,0.1-0.2,0.1-0.3,0.2
					c-0.1,0.1-0.1,0.1-0.2,0.2c-0.1,0.1-0.2,0.1-0.2,0.2c-0.1,0.1-0.1,0.1-0.2,0.2c-0.1,0.1-0.2,0.1-0.2,0.2
					c-0.1,0.1-0.1,0.1-0.2,0.2c-0.1,0.1-0.1,0.1-0.2,0.2c-0.1,0.1-0.1,0.1-0.2,0.2c-0.1,0.1-0.1,0.1-0.2,0.2c0,0.1-0.1,0.1-0.1,0.2
					c-0.1,0.1-0.1,0.2-0.2,0.2c0,0.1-0.1,0.1-0.1,0.2c-0.1,0.1-0.1,0.2-0.2,0.2c0,0.1-0.1,0.1-0.1,0.2c0,0.1-0.1,0.2-0.1,0.2
					c0,0.1-0.1,0.1-0.1,0.2c0,0.1-0.1,0.2-0.1,0.2c0,0.1,0,0.1-0.1,0.2c0,0.1-0.1,0.2-0.1,0.3c0,0,0,0.1,0,0.1
					c0,0.1-0.1,0.2-0.1,0.3c0,0,0,0.1,0,0.1c-0.1,0.2-0.1,0.5-0.1,0.7h0v7.6c11.5-8.6,32.7-20.2,63.6-21.2
					c30.9,1,52.1,12.6,63.6,21.2V33.2z"/>
			</g>
			<g>
				<g>
					<path fill="#5C0430" d="M105.5,19.6C77.2,20.4,60.1,27,50.4,32.8c0,0.1,0,0.3,0,0.4h0v105.2h127.2V40.8
						C165,31.4,141,18.4,105.5,19.6z"/>
					<path fill="#730426" d="M177.5,33.2c-0.6-9-28.8-18.2-63.6-18.2c-34.2,0-62.1,8.9-63.5,17.8c9.7-5.8,26.8-12.4,55.1-13.2
						c35.5-1.1,59.5,11.9,72.1,21.2L177.5,33.2L177.5,33.2z"/>
				</g>
				<g>
					<path fill="#5C0430" d="M266.3,19.6c-28.3,0.9-45.4,7.4-55.1,13.2c0,0.1,0,0.3,0,0.4h0v105.2h127.2V40.8
						C325.8,31.4,301.8,18.4,266.3,19.6z"/>
					<path fill="#730426" d="M335.1,33.2c-0.6-9-28.8-18.2-63.6-18.2c-34.2,0-62.1,8.9-63.5,17.8c9.7-5.8,26.8-12.4,55.1-13.2
						c35.5-1.1,59.5,11.9,72.1,21.2L335.1,33.2L335.1,33.2z"/>
				</g>
			</g>
			<g>
				<path fill="#5C0430" d="M25.6,38C-3.6,39-21.2,45.7-31.2,51.7c0,0.1,0,0.3,0,0.4h0v108.4H99.9V60C87,50.3,62.2,36.9,25.6,38z"/>
				<path fill="#730426" d="M99.9,52.1c-0.6-9.3-29.7-18.7-65.6-18.7c-35.3,0-64,9.2-65.5,18.3c10-6,27.6-12.7,56.8-13.6
					C62.2,36.9,87,50.3,99.9,60L99.9,52.1L99.9,52.1z"/>
			</g>
			<g>
				<g>
					<path fill="#5C0430" d="M184.8,38c-29.2,0.9-46.8,7.6-56.8,13.6c0,0.1,0,0.3,0,0.4h0v108.4h131.1V60
						C246.2,50.3,221.5,36.9,184.8,38z"/>
					<path fill="#730426" d="M259.1,52.1c-0.6-9.3-29.7-18.7-65.6-18.7c-35.3,0-64,9.2-65.5,18.3c10-6,27.6-12.7,56.8-13.6
						c36.6-1.1,61.4,12.3,74.3,21.9L259.1,52.1L259.1,52.1z"/>
				</g>
				<g>
					<path fill="#5C0430" d="M344,38c-29.2,0.9-46.8,7.6-56.8,13.6c0,0.1,0,0.3,0,0.4h0v108.4h131.1V60
						C405.4,50.3,380.7,36.9,344,38z"/>
					<path fill="#730426" d="M418.3,52.1c-0.6-9.3-29.7-18.7-65.6-18.7c-35.3,0-64,9.2-65.5,18.3c10-6,27.6-12.7,56.8-13.6
						c36.6-1.1,61.4,12.3,74.3,21.9L418.3,52.1L418.3,52.1z"/>
				</g>
			</g>
			<g>
				<path fill="#5C0430" d="M520.7,38c29.2,0.9,46.8,7.6,56.8,13.6c0,0.1,0,0.3,0,0.4h0v108.4H446.4V60
					C459.4,50.3,484.1,36.9,520.7,38z"/>
				<path fill="#730426" d="M446.4,52.1c0.6-9.3,29.7-18.7,65.6-18.7c35.3,0,64,9.2,65.5,18.3c-10-6-27.6-12.7-56.8-13.6
					c-36.6-1.1-61.4,12.3-74.3,21.9L446.4,52.1L446.4,52.1z"/>
			</g>
			<g>
				<path fill="#5C0430" d="M680,38c29.2,0.9,46.8,7.6,56.8,13.6c0,0.1,0,0.3,0,0.4h0v108.4H605.7V60C618.6,50.3,643.3,36.9,680,38z
					"/>
				<path fill="#730426" d="M605.7,52.1c0.6-9.3,29.7-18.7,65.6-18.7c35.3,0,64,9.2,65.5,18.3c-10-6-27.6-12.7-56.8-13.6
					c-36.6-1.1-61.4,12.3-74.3,21.9L605.7,52.1L605.7,52.1z"/>
			</g>
			<g>
				<g>
					<path fill="#5C0430" d="M839.2,38c29.2,0.9,46.8,7.6,56.8,13.6c0,0.1,0,0.3,0,0.4h0v108.4H764.9V60
						C777.8,50.3,802.5,36.9,839.2,38z"/>
					<path fill="#730426" d="M764.9,52.1c0.6-9.3,29.7-18.7,65.6-18.7c35.3,0,64,9.2,65.5,18.3c-10-6-27.6-12.7-56.8-13.6
						c-36.6-1.1-61.4,12.3-74.3,21.9L764.9,52.1L764.9,52.1z"/>
				</g>
				<g>
					<path fill="#5C0430" d="M998.4,38c29.2,0.9,46.8,7.6,56.8,13.6c0,0.1,0,0.3,0,0.4h0v108.4H924.1V60
						C937,50.3,961.8,36.9,998.4,38z"/>
					<path fill="#730426" d="M924.1,52.1c0.6-9.3,29.7-18.7,65.6-18.7c35.3,0,64,9.2,65.5,18.3c-10-6-27.6-12.7-56.8-13.6
						C961.8,36.9,937,50.3,924.1,60L924.1,52.1L924.1,52.1z"/>
				</g>
			</g>
		</g>
		<g>
			<rect x="0" y="103.1" fill="#58230A" width="1024" height="148.9"/>
			<rect x="0" y="87.8" fill="#6B3119" width="1024" height="18.1"/>
			<rect x="0" y="74.8" fill="#8F4728" width="1024" height="19"/>
		</g>
	</g>
</g>
<g id="Layer_23">
</g>
</svg>
