<?xml version="1.0" encoding="utf-8"?>
<!-- Generator: Adobe Illustrator 20.0.0, SVG Export Plug-In . SVG Version: 6.00 Build 0)  -->
<!DOCTYPE svg PUBLIC "-//W3C//DTD SVG 1.1//EN" "http://www.w3.org/Graphics/SVG/1.1/DTD/svg11.dtd">
<svg version="1.1" xmlns="http://www.w3.org/2000/svg" xmlns:xlink="http://www.w3.org/1999/xlink" x="0px" y="0px"
	 viewBox="0 0 50 50" enable-background="new 0 0 50 50" xml:space="preserve" width="50" height="50" preserveAspectRatio="none">
<g id="BG" display="none">
</g>
<g id="Header_Buttons">
	<g>
		<defs>
			<circle id="SVGID_3_" cx="25.1" cy="25" r="19.6"/>
		</defs>
		<clipPath id="SVGID_2_">
			<use xlink:href="#SVGID_3_"  overflow="visible"/>
		</clipPath>
		<g clip-path="url(#SVGID_2_)">
			<path fill="#404041" d="M41.4,36.1c-0.3-0.6-0.6-1.1-1-1.6c-0.4-0.4-0.8-0.8-1.3-1.1c0.1-0.1,0.1-0.2,0.1-0.3
				c0-0.3-0.2-0.6-0.5-0.6c0-0.1,0-0.1,0-0.2c0-0.2-0.1-0.4-0.3-0.5c0.1-0.1,0.1-0.2,0.1-0.3c0-0.1-0.1-0.3-0.2-0.3
				c0.2,0,0.3-0.2,0.3-0.4c0-0.2-0.2-0.4-0.4-0.4c-0.1,0-0.1,0-0.2,0.1c0,0,0,0,0,0c0,0,0,0,0,0c-0.1,0.1-0.2,0.2-0.2,0.3
				c0,0.1,0,0.2,0.1,0.3c-0.2,0-0.4,0.2-0.4,0.4c0,0.1,0.1,0.3,0.2,0.3c-0.2,0.1-0.3,0.3-0.3,0.5c0,0.3,0.2,0.5,0.4,0.6
				c0,0.1-0.1,0.2-0.1,0.3c0,0.3,0.2,0.6,0.5,0.6c0,0,0,0,0,0c0,0,0.1,0,0.1,0c0.1,0,0.1,0,0.1,0c0.9,0.7,1.6,1.7,2.1,2.7
				c0.4,1.1,0.5,2.2,0.1,3.2c-0.4,1-1.2,1.8-2.2,2.3c-0.6,0.3-1.4,0.5-2,0.4c-0.1,0-0.2,0-0.3,0c-0.2,0-0.5-0.1-0.7-0.2
				c-0.2-0.1-0.2-0.1-0.3-0.3c-0.1-0.1-0.2-0.3-0.2-0.6c0-0.1,0-0.3-0.1-0.4c0-0.1,0-0.3,0-0.4c0-0.3,0-0.5,0-0.8c0,0,0-0.1,0-0.1
				c0,0,0,0,0,0c0-0.6,0-1.2-0.1-1.8c-0.1-0.5-0.2-1-0.4-1.5c0,0,0,0,0,0c0,0,0,0,0,0c-0.1-0.2-0.2-0.4-0.3-0.6
				c-0.1-0.1-0.2-0.3-0.4-0.4c0,0-0.1-0.1-0.1-0.1c0,0-0.1-0.1-0.1-0.1c0,0,0,0,0,0c-0.1-0.1-0.2-0.2-0.3-0.2
				c-0.1-0.1-0.2-0.1-0.3-0.2c-0.1,0-0.2-0.1-0.3-0.1c-0.1-0.1-0.1,0-0.3-0.1c-0.1,0-0.2-0.1-0.3-0.1c-0.5-0.1-1,0-1.4,0.2
				c-0.4,0.2-0.8,0.4-1,0.7c-0.1,0-0.1,0.1-0.2,0.1c0,0,0,0,0,0c0,0,0,0-0.1,0.1c-0.2,0.2-0.3,0.3-0.4,0.5c0,0,0,0-0.1,0.1
				c-0.2,0.2-0.3,0.4-0.4,0.5c0,0,0,0,0,0c0,0,0,0,0,0c-0.1,0.1-0.1,0.2-0.2,0.3c-0.4,0.5-0.7,1-1.1,1.5c0,0.1-0.1,0.1-0.1,0.2
				c-0.3,0.4-0.6,0.8-0.9,1.2c-0.4,0.5-0.7,0.9-1.1,1.2c-0.2,0.1-0.3,0.2-0.5,0.3c-0.1,0-0.1,0.1-0.2,0.1c-0.2,0.1-0.3,0.2-0.5,0.2
				c-0.4,0.1-0.7,0.1-1.1,0c-0.4-0.1-0.9-0.3-1.3-0.5c-0.2-0.1-0.3-0.2-0.5-0.3c-0.1-0.1-0.1-0.1-0.2-0.2c-0.1-0.1-0.2-0.2-0.3-0.3
				c-0.2-0.3-0.4-0.6-0.5-1c-0.1-0.4-0.2-0.8-0.2-1.3c0-0.3,0-0.6,0-1c0.1-0.7,0.2-1.4,0.4-2.1c0.1-0.3,0.2-0.5,0.2-0.8
				c0.1-0.3,0.2-0.6,0.3-0.9c0,0,0,0,0,0c1.4,0.9,4.7,2.8,5.9,1.3c1-1.2,1.3-2.1,1.3-2.1s-0.1-0.1-0.3-0.2c0.1-0.2,0.4-0.7,0.4-0.9
				c0-0.4-0.3-0.6-0.3-0.6s1.9,0.2,2-0.2c0.1-0.4-1.3-0.4-1.3-0.4s1.7-0.3,1.6-0.8c0-0.3-1.9,0.3-1.9,0.3s1.4-0.7,1-1.1
				c-0.1-0.1-1,0.1-1.6,0.6c-0.5,0.4-0.8,1.2-0.9,1.6c0,0,0,0,0,0c0-0.4,0-1.2-0.2-1.3c-0.3-0.2-0.9-0.2-0.7,0.8
				c0.2,0.9,1,1.3,1,1.3l0.1,0.5c-0.2,0-0.3,0-0.3,0s-0.8,2.1-1.9,2.2c-1.4,0.1-2.6-1.7-3.1-2.5c0.1-0.1,0.1-0.3,0.2-0.4
				c0.3,0,0.5-0.2,0.5-0.2l1-2.2c0,0,0.1-0.2-0.1-0.4c0.2-0.4,0.5-0.8,0.7-1.2c0.1-0.2,0.3-0.5,0.5-0.7c0.2-0.2,0.3-0.5,0.5-0.7
				c0,0,0.3-0.3,0.6-0.6c1.4-0.7,2.4-2.2,2.4-3.8c0-1.3-0.5-2.8-1.4-3.7l0.3-0.4c0.1,0,0.1,0.1,0.2,0.1c0.3,0.1,0.6-0.1,0.7-0.4
				c0-0.1,0-0.1,0-0.2c1.5-0.1,3-0.1,4.5,0c0,0-1-0.8-0.8-1.7c0.2-0.9,1.4-1.2,1.4-1.2c0,0-0.9-0.1-0.9-0.7
				c-0.1-0.6,1.3-1.6,1.3-1.6c-2.6,0.1-4.8,1.8-6.4,4.1c-0.1-0.1-0.1-0.1-0.2-0.1c-0.3-0.1-0.7,0.1-0.8,0.4c-0.1,0.2,0,0.3,0.1,0.5
				l-0.3,0.3c-0.5-0.3-1.1-0.5-1.8-0.5c-0.3,0-0.6,0-0.9,0.1L22.6,16c0.1-0.1,0.2-0.3,0.2-0.5c0-0.3-0.3-0.6-0.6-0.6
				c-0.1,0-0.2,0-0.2,0.1c-0.8-2.7-2.5-4.9-4.9-5.8c0,0,1,1.3,0.8,1.9c-0.2,0.6-1.1,0.4-1.1,0.4c0,0,1.1,0.7,1,1.5
				c0,0.9-1.2,1.4-1.2,1.4c1.5,0.3,2.9,0.7,4.3,1.3c0,0.1,0,0.1,0,0.2c0,0.3,0.2,0.5,0.5,0.5c0.1,0,0.1,0,0.2,0l0.2,0.4
				c-0.5,0.3-1,0.8-1.4,1.3c-0.1-0.5,0.1-1,0.1-1l-1,0.6c0,0,0.2,0.5,0.6,0.8c-0.3,0.6-0.6,1.2-0.7,1.8c-0.6-0.2-1.3-0.5-2.1-0.7
				c-3.4-0.9-5.7,1.2-5.7,1.2s0.3,0.4,0.9,0.9c0,0.1,0,0.2,0,0.3c-0.1,1.1,0.5,2,0.5,2c0-0.6,0-1.2,0.1-1.9c0.3,0.2,0.6,0.4,1,0.7
				c-0.1,1.1,0.5,2,0.5,2c0-0.5,0-1.1,0.1-1.7c0.9,0.4,1.9,0.8,3.1,0.8c0.2,0,0.3,0,0.5,0c0.2,0,0.5,0,0.7,0c0.2,0,0.4,0,0.5,0
				c0,0,0,0,0,0c0,0,0,0,0,0c0,0,0,0,0,0c0.9,0.1,0.2,0.1,0.1,0.1c0,0.1,0.1,0.2,0.2,0.3c0.1,0.2,0.3,0.4,0.5,0.5
				c-0.3,0.6-0.6,1.1-0.8,1.7c0,0,0,0,0,0.1c-0.4,0-0.5,0.2-0.5,0.2l-0.8,2.4c0,0,0.1,0,0.1,0.1c0,0.1-0.1,0.1-0.1,0.2
				c-1.2,0.3-6.6,2.1-5,5.1c0.8,1.4,1.4,2,1.4,2s0.1,0,0.1,0c0.1,0.1,0.1,0.2,0.2,0.3c0.2,0.2,0.6,0.2,0.6,0.2s-1.5,1.2-1.2,1.5
				c0.2,0.3,1.2-0.6,1.2-0.6s-0.8,1.4-0.3,1.5c0.5,0.2,0.9-1.4,0.9-1.4s-0.5,1.7,0,1.7c0.4,0,0.5-0.7,0.5-1.4c0.1,0.5,0.2,1,0.4,1.6
				c0.2,0.5,0.5,1,0.9,1.5c0,0,0,0,0,0c0.1,0.2,0.3,0.4,0.5,0.5c0.3,0.3,0.6,0.6,0.9,0.8c0,0,0,0,0,0c0.3,0.2,0.7,0.4,1,0.6
				c0.3,0.2,0.7,0.3,1.1,0.4l0.3,0.1l0.3,0.1l0.3,0.1c0.1,0,0.2,0,0.3,0c0.4,0,0.8,0,1.1,0c0,0,0,0,0,0c0,0,0,0,0,0
				c0.2,0,0.4,0,0.5-0.1c0,0,0.1,0,0.1,0c0.2-0.1,0.4-0.1,0.6-0.2c0.2-0.1,0.4-0.2,0.6-0.3c0,0,0,0,0,0c0,0,0,0,0,0
				c0.5-0.3,0.9-0.6,1.3-1c0.5-0.5,0.9-1,1.3-1.6c0,0,0,0,0,0c0,0,0,0,0,0c0.3-0.4,0.6-0.9,0.8-1.3c0,0,0,0,0,0c0,0,0,0,0,0
				c0.1-0.1,0.1-0.2,0.2-0.3c0.3-0.5,0.6-1,0.9-1.5c0.1-0.2,0.3-0.5,0.4-0.7c0.1-0.1,0.1-0.1,0.2-0.2c0.1-0.1,0.2-0.3,0.3-0.4
				c0.2-0.2,0.3-0.3,0.4-0.3c0.1-0.1,0.2-0.1,0.3-0.1c0.1,0,0.3,0.1,0.4,0.1c0,0,0.1,0,0.1,0.1c0.1,0.1,0.3,0.2,0.4,0.3
				c0.1,0.1,0.2,0.2,0.2,0.4c0,0,0,0.1,0,0.1c0.1,0.1,0.1,0.3,0.2,0.5c0,0.1,0.1,0.2,0.1,0.3c0.1,0.5,0.2,1.1,0.2,1.7
				c0,0.3,0.1,0.7,0.1,1c0,0,0,0,0,0c0,0.3,0.1,0.6,0.2,0.9c0.1,0.3,0.2,0.7,0.5,1.1c0.1,0.1,0.2,0.2,0.3,0.3c0,0,0,0,0,0
				c0.1,0.1,0.1,0.1,0.2,0.2c0.2,0.1,0.4,0.2,0.6,0.3c0.3,0.1,0.6,0.1,1,0.1c0,0,0.1,0,0.1,0c0,0,0,0,0,0c0,0,0,0,0,0
				c0.3,0,0.6,0,1-0.1c0.7-0.1,1.3-0.4,1.9-0.7c1.1-0.7,2-1.7,2.5-3c0.1-0.3,0.2-0.7,0.2-1c0-0.3,0-0.7,0-1
				C41.8,37.4,41.6,36.7,41.4,36.1z M26.7,30.6L26.7,30.6c0,0.1,0,0.1,0,0.1S26.7,30.7,26.7,30.6z M15.6,36.2l-0.2-0.1
				c0.1-0.2,0.1-0.3,0.1-0.3s-1.7-1.9-1.5-2.6c0.2-1.2,2.2-1.4,3.4-1.4c0,0.1-0.1,0.2-0.1,0.3c0,0,0,0,0,0c0,0,0,0,0,0
				c-0.1,0.2-0.1,0.4-0.1,0.6c-0.1,0.3-0.2,0.6-0.3,1c0,0,0,0,0,0c0,0.1-0.1,0.3-0.1,0.4c-0.1,0.7-0.2,1.4-0.3,2.1
				C15.9,36.1,15.6,36.2,15.6,36.2z M16,36.5c0,0,0.1,0.1,0.3,0.3c0,0.1,0,0.2,0,0.3c0,0,0,0.1,0,0.1C16.2,36.9,16,36.5,16,36.5z"/>
			<path fill="#404041" d="M19.3,24.2c0,0,0.1,0.1,0.1,0.1s0,0,0,0C19.4,24.2,19.3,24.2,19.3,24.2C19.3,24.2,19.3,24.2,19.3,24.2z"
				/>
		</g>
	</g>
</g>
<g id="Layer_1">
</g>
<g id="elliot">
</g>
</svg>
