<?xml version="1.0" encoding="utf-8"?>
<!-- Generator: Adobe Illustrator 20.0.0, SVG Export Plug-In . SVG Version: 6.00 Build 0)  -->
<!DOCTYPE svg PUBLIC "-//W3C//DTD SVG 1.1//EN" "http://www.w3.org/Graphics/SVG/1.1/DTD/svg11.dtd">
<svg version="1.1" xmlns="http://www.w3.org/2000/svg" xmlns:xlink="http://www.w3.org/1999/xlink" x="0px" y="0px"
	 viewBox="0 0 50 50" enable-background="new 0 0 50 50" xml:space="preserve" width="50" height="50" preserveAspectRatio="none">
<g id="BG" display="none">
</g>
<g id="Header_Buttons">
	<g>
		<defs>
			<circle id="SVGID_5_" cx="25.1" cy="25" r="19.6"/>
		</defs>
		<clipPath id="SVGID_2_">
			<use xlink:href="#SVGID_5_"  overflow="visible"/>
		</clipPath>
		<path clip-path="url(#SVGID_2_)" fill="#FFFFFF" d="M36.6,30.1c0,0,0.9,0,0.8-0.5c-0.1-0.5-1.1,0.1-1.1,0.1s0.5-0.3,0.3-0.7
			c-0.1-0.4-0.9-0.1-1.2,0.5c-0.2-0.3-0.4-0.6-0.6-0.4c-0.2,0.1,0.1,0.7,0.3,1c-0.2,0.4-0.4,0.6-0.6,1c-0.1,0.3-0.4,0.5-0.7,0.8
			l-0.3-0.3l-0.2,0.6c-0.1-0.1-0.2-0.2-0.2-0.3c0,0,0-0.1-0.1-0.1h0c-2.1-2.8-2.9-2.9-3.6-4.1c-0.5-0.9-1-2.1-1.6-3.2
			c1.6-0.2,4.7-0.8,6.2-1.3c2.1-0.7,4.8-1.3,4.7-7.7C38.6,9.2,35.2,9,33.6,10c-1.6,1,1.2,3.6,1.2,3.6s-3.9-1.8-3.9,0.3
			s4.1,3.7,4.1,3.7s-3.6-0.8-3.5,0.8c0.1,1.6,1,2.9,1,2.9s-2.7-2.1-3.5-1.1c-0.8,0.9,1.6,2.7,1.6,2.7l-3.3,0.6l0,0c0,0,0,0,0,0
			l-0.1,0c-0.1-0.1-0.2-0.2-0.2-0.3c-0.2-0.2-0.4-0.4-0.7-0.5c1.1-0.8,2.6-3,2.6-5.2c0-2.9-1.8-5.3-1.8-5.3s-1.8,2.4-1.8,5.3
			c0,2.2-0.1,4.1,0,4.9c-0.6-0.1-1.1-0.1-1.5-0.1c0.1-0.9,0-2.7,0-4.8c0-2.9-1.8-5.3-1.8-5.3s-1.8,2.4-1.8,5.3
			c0,2.3,1.6,4.6,2.7,5.3c-0.2,0.2-0.4,0.4-0.7,0.7c0,0,0,0,0,0L22,23.6l-3.5-0.6c0,0,2.3-1.8,1.6-2.7c-0.8-0.9-3.5,1.1-3.5,1.1
			s0.9-1.3,1-2.9c0.1-1.6-3.5-0.8-3.5-0.8s4.1-1.6,4.1-3.7s-3.9-0.3-3.9-0.3s2.8-2.5,1.2-3.6c-1.6-1-5-0.8-5.1,5.5
			c-0.1,6.4,2.6,7,4.7,7.7c1.5,0.5,4.4,1,6,1.2c-0.8,1.2-1.8,2.8-2.3,5c-0.2,0.8-0.4,1.6-0.5,2.5h0c0,0,0,0,0,0.1
			c-0.3,0-0.9,0.1-1.6,0.4c-1.1,0.4-1.5,1.9-1.5,1.9l0.2,0.1c0,0.1-0.1,0.3-0.1,0.4c-0.3,0.9,0.1,2.3,0.1,2.3s-1.1-0.2-1.1,0.2
			c0,0.4,1.2,0.4,1.2,0.4s-0.9,0.3-0.6,0.7c0.3,0.4,1-0.5,1-0.5s-0.3,0.4-0.1,0.7c0.2,0.2,0.7-0.1,0.9-0.6c0.2,0.2,0.4,0.4,0.5,0.2
			c0.2-0.2-0.1-0.7-0.4-1c0.1-0.5,0.2-0.8,0.2-1.3c0-0.2,0.1-0.5,0.3-0.8l0.4,0.2c0,0.1,0,0.2,0,0.4c0,0.1,0,0.3,0,0.4
			c0,0.1,0,0.1,0,0.2c0,0,0,0,0,0c0,0.1,0,0.2,0,0.2c0,0.1,0,0.3,0,0.4c0,0.1,0,0.3,0,0.4c0,0.1,0,0.2,0,0.3c0,0,0,0,0,0
			c0,0,0,0,0,0c0,0,0,0.1,0,0.1c0,0.1,0,0.3,0,0.4c0,0.1,0,0.2,0,0.4c0,0.1,0,0.3,0,0.4c0,0.1,0,0.3,0,0.4c0,0,0,0,0,0
			c-0.1,0-0.1,0-0.2,0c-0.5,0-0.9,0.4-0.9,0.8c-0.1-0.3-0.4-0.5-0.7-0.5c-0.2,0-0.4,0.1-0.6,0.2c-0.1-0.3-0.3-0.5-0.7-0.5
			c-0.2,0-0.4,0.1-0.5,0.2c-0.3-0.2-0.5-0.4-0.5-0.4s0,3.4,3,4.1c1.8,0.4,3,0,3.8-0.6c0,0.2-0.1,0.3-0.1,0.4
			c-0.2,1.1-0.1,1.7-0.1,1.7h0.4H22h0.3h1.4h1.8c0,0-0.6-0.9-0.9-2.1c-0.1-0.4-0.2-0.9-0.3-1.3H28c-0.1,0.4-0.1,0.9-0.3,1.3
			c-0.4,1.1-0.9,2.1-0.9,2.1h1.8H30h0.3h1.4h0.4c0,0,0.1-0.6-0.1-1.7c-0.1-0.4-0.3-1.1-0.6-1.7h3c0,0,1.3-3.2,0.5-6.4
			c0.8-0.3,1.4-1.1,1.4-1.1l-0.6-0.6c0.1-0.1,0.3-0.3,0.4-0.5c0.5-0.7,0.7-2.2,0.7-2.2s1,0.6,1.1,0.2C37.7,30.5,36.6,30.1,36.6,30.1
			z"/>
	</g>
</g>

</svg>
