<?xml version="1.0" encoding="utf-8"?>
<!-- Generator: Adobe Illustrator 20.0.0, SVG Export Plug-In . SVG Version: 6.00 Build 0)  -->
<!DOCTYPE svg PUBLIC "-//W3C//DTD SVG 1.1//EN" "http://www.w3.org/Graphics/SVG/1.1/DTD/svg11.dtd">
<svg version="1.1" xmlns="http://www.w3.org/2000/svg" xmlns:xlink="http://www.w3.org/1999/xlink" x="0px" y="0px"
	 viewBox="0 0 50 50" enable-background="new 0 0 50 50" xml:space="preserve" width="50" height="50" preserveAspectRatio="none">
<g id="BG" display="none">
</g>
<g id="Header_Buttons">
	<g>
		<defs>
			<circle id="SVGID_11_" cx="25.1" cy="25" r="19.6"/>
		</defs>
		<clipPath id="SVGID_2_">
			<use xlink:href="#SVGID_11_"  overflow="visible"/>
		</clipPath>
		<path clip-path="url(#SVGID_2_)" fill="#FFFFFF" d="M35.4,32.9c0-0.7-0.4-1.7-0.7-2.3h0.4c0,0-0.2-1.4-1-2.4
			c-0.4-0.6-1.1-1-1.5-1.3c2.9-0.6,3.8-4.3,3.8-4.3s-2.1,0.8-2.1-0.9c0-1.7,1-1.7,0.6-3.4c-0.4-1.7-2.6-2.7-4.8-2.4
			c-0.8,0.1-1.3,0.3-1.6,0.5l0-0.8l-1,1.3c-0.6-0.4-1.3-0.7-2.1-0.8c0.1-0.5,0.2-1,0.1-1.6c-0.1-0.7-0.2-1.1-0.4-1.4
			c0.3-0.3,0.5-0.7,0.6-1.1c0.1,0.1,0.2,0.2,0.3,0.2c0.1,0.1,0.3,0.2,0.4,0.3c0,0,0,0,0,0c-0.1,0.1-0.1,0.2-0.1,0.3
			c0,0.2,0.2,0.4,0.4,0.4c0.2,0,0.4-0.2,0.4-0.4s-0.2-0.4-0.4-0.4c-0.1,0-0.2,0-0.2,0.1c0,0,0,0,0,0c-0.1-0.1-0.2-0.2-0.4-0.3
			c-0.1-0.1-0.3-0.2-0.4-0.3c0,0,0-0.1,0-0.1c0,0,0-0.1,0-0.1l1.1,0.2c0,0.2,0.2,0.4,0.4,0.4c0.2,0,0.4-0.2,0.4-0.4
			s-0.2-0.4-0.4-0.4c-0.2,0-0.3,0.1-0.4,0.3l-1.1-0.1c0-0.1,0-0.1,0-0.2c0.1-0.1,0.2-0.2,0.4-0.3c0.1-0.1,0.2-0.2,0.3-0.3
			c0,0,0,0,0,0c0.1,0.1,0.2,0.2,0.3,0.2c0.2,0,0.4-0.2,0.4-0.4c0-0.2-0.2-0.4-0.4-0.4c-0.2,0-0.4,0.2-0.4,0.4c0,0.1,0,0.1,0,0.2
			c0,0,0,0,0,0c-0.1,0.1-0.3,0.2-0.4,0.2c-0.1,0.1-0.2,0.1-0.3,0.2c-0.2-0.8-1-1.5-1.9-1.5c-1.1,0-1.9,0.9-1.9,1.9
			c0,1,0.8,1.9,1.9,1.9c0.3,0.2,0.6,0.6,0.8,1c0.2,0.4,0.2,1,0.2,1.5c-1.3-0.1-2.6-0.1-3.7,0.1c0.1-0.5,0.2-1,0.1-1.6
			c-0.1-0.7-0.3-1.2-0.5-1.4c0.4-0.4,0.6-0.8,0.6-1.4c0-1.1-0.9-1.9-1.9-1.9c-0.9,0-1.6,0.6-1.8,1.3c-0.1-0.1-0.2-0.2-0.3-0.2
			c-0.1-0.1-0.3-0.2-0.4-0.3c0,0,0,0,0,0c0.1-0.1,0.1-0.2,0.1-0.3c0-0.2-0.2-0.4-0.4-0.4c-0.2,0-0.4,0.2-0.4,0.4
			c0,0.2,0.2,0.4,0.4,0.4c0.1,0,0.2,0,0.2-0.1c0,0,0,0,0,0c0.1,0.1,0.2,0.2,0.4,0.3c0.1,0.1,0.2,0.2,0.3,0.3c0,0.1,0,0.2,0,0.3
			l-1-0.2c0-0.2-0.2-0.4-0.4-0.4c-0.2,0-0.4,0.2-0.4,0.4c0,0.2,0.2,0.4,0.4,0.4c0.2,0,0.3-0.1,0.4-0.3l1,0c0,0,0,0.1,0,0.1
			c0,0,0,0.1,0,0.1c-0.1,0.1-0.2,0.1-0.2,0.2c-0.1,0.1-0.2,0.2-0.3,0.3c0,0,0,0,0,0c-0.1-0.1-0.2-0.2-0.3-0.2
			c-0.2,0-0.4,0.2-0.4,0.4c0,0.2,0.2,0.4,0.4,0.4c0.2,0,0.4-0.2,0.4-0.4c0-0.1,0-0.1,0-0.2c0,0,0,0,0,0c0.1-0.1,0.3-0.2,0.4-0.2
			c0.1,0,0.1-0.1,0.2-0.1c0.2,0.9,1,1.6,1.9,1.6c0,0,0,0,0,0c0.3,0.2,0.6,0.6,0.8,1c0.3,0.5,0.2,1.1,0.2,1.7
			c-1.7,0.4-2.7,1.5-1.9,3.5c0.7,1.8,0.6,4,0.1,6.1c-0.1,0.2-0.1,0.5-0.2,0.7c0,0.1,0,0.2-0.1,0.3c-0.4,0.2-1.2,0.7-1.7,1.4
			c-0.7,1-1,2.4-1,2.4h0.4c-0.3,0.7-0.6,1.6-0.7,2.3c0,0.5,0.2,1,0.6,1.4c0,0.1-0.1,0.2-0.1,0.4c0,0.1,0,0.1,0,0.2
			c0,0.2-0.1,0.4-0.1,0.6c0,0,0,0.1,0,0.1c0,0.2,0,0.4-0.1,0.6c0,0.1,0,0.1,0,0.2c0,0.2,0,0.3,0,0.4c0,0,0,0.1,0,0.1
			c0,0.2,0.1,0.3,0.1,0.5c0,0,0,0.1,0,0.1c0,0.1,0.1,0.2,0.2,0.4c0,0,0,0.1,0.1,0.1c0.1,0.1,0.2,0.3,0.3,0.4c0.7,0.7,2,1.3,3.6,1.7
			c-0.2,0.5-0.4,1.3-0.4,2.1c0,0.6,0,1-0.1,1.4c-0.7,0.6-1.6,0.6-1.6,0.6s0.6,0.3,1.5,0.4c0,0.1-0.1,0.2-0.1,0.2
			c-0.7,1.1-2,1.1-2,1.1s1.6,0.7,3.4,0.3c1.9-0.4,1.7-1.1,1.7-1.1s-0.2-0.3-0.5-0.7c1.3-0.4,1.1-1,1.1-1s-1.1-1.5-1.3-2.9
			c0.8,0.1,1.7,0.2,2.6,0.2c0.1,0.4,0.1,0.9,0,1.4c0,0.1,0,0.2,0,0.2c-0.6,0.3-1.2,0.3-1.2,0.3s0.4,0.2,1,0.3
			C23.7,44,22.9,45,22.9,45s-0.2,0.7,1.7,1.1c1.9,0.4,3.4-0.3,3.4-0.3s-1.3,0-2-1.1c-0.2-0.3-0.2-0.7-0.3-1.8c0.2,0,0.5-0.1,0.7-0.1
			c0.1,0,0.1,0,0.2,0c-0.3,0.5-0.5,0.8-0.5,0.8s-0.2,0.7,1.7,1.1c1.9,0.4,3.4-0.3,3.4-0.3s-1.3,0-2-1.1c-0.2-0.3-0.3-0.9-0.3-2.6
			c0-0.2,0-0.5-0.1-0.7c0.8-0.2,1.5-0.5,2.1-0.8c0,0.1,0,0.2,0,0.2c-0.2,1.5-1.3,3-1.3,3s-0.2,0.7,1.7,1.1c1.9,0.4,3.4-0.3,3.4-0.3
			s-1.3,0-2-1.1c-0.2-0.3-0.3-0.9-0.3-2.6c0-0.5-0.1-0.9-0.2-1.3c0.1-0.1,0.2-0.2,0.3-0.3c0.7,0.5,1.5,0.5,1.5,0.5s-1-1.5-0.6-2.4
			C33.8,35.1,35.5,34.2,35.4,32.9z M27.5,40.7C27.5,40.7,27.5,40.7,27.5,40.7c0-0.1-0.1-0.1-0.1-0.2c0,0,0.1,0,0.1,0
			C27.5,40.5,27.5,40.6,27.5,40.7z"/>
	</g>
</g>

</svg>
