<?xml version="1.0" encoding="utf-8"?>
<!-- Generator: Adobe Illustrator 20.0.0, SVG Export Plug-In . SVG Version: 6.00 Build 0)  -->
<!DOCTYPE svg PUBLIC "-//W3C//DTD SVG 1.1//EN" "http://www.w3.org/Graphics/SVG/1.1/DTD/svg11.dtd">
<svg version="1.1" xmlns="http://www.w3.org/2000/svg" xmlns:xlink="http://www.w3.org/1999/xlink" x="0px" y="0px"
	 viewBox="0 0 50 50" enable-background="new 0 0 50 50" xml:space="preserve" width="50" height="50" preserveAspectRatio="none">
<g id="BG" display="none">
</g>
<g id="Header_Buttons">
	<g>
		<defs>
			<circle id="SVGID_13_" cx="25.1" cy="25" r="19.6"/>
		</defs>
		<clipPath id="SVGID_2_">
			<use xlink:href="#SVGID_13_"  overflow="visible"/>
		</clipPath>
		<path clip-path="url(#SVGID_2_)" fill="#404041" d="M34.7,41.6c-0.5-0.9-0.8-2.3-1-3.6h0c0,0,3.1-2.7,3.4-6.4c0,0,0,0,0,0
			c0.3-0.8,0.6-1.7,0.8-2.6c1.6-3.4,1.8-8.3-1.8-11.1c0,0,0,0,0,0c-0.3-0.4-0.7-0.8-1-1.1c-0.4-0.4-0.8-0.7-1.2-1
			c-1.6-3.3-4.9-3.8-6.7-3.1c0,0,0,0,0,0c-2.3-0.2-4.2,0.4-5.3,1c0.7-2.4,2-4.3,1.6-4.3c0,0-0.7-0.4-1.8-0.4
			c-1.1,0.1-1.6,0.5-1.6,0.5c-2.4,1.2-1.5,3.5-2.3,7.2c-0.1,0.4-0.3,0.8-0.6,1.1c-0.3-0.3-0.7-0.4-1.1-0.4c-0.2,0-0.4,0.1-0.7,0.1
			c0.1-0.1,0.3-0.2,0.4-0.3c0.6-0.4,1.1-0.5,1.1-0.5l-0.2-0.5c0,0-0.5,0.1-1.2,0.6c-0.3,0.3-0.5,0.6-0.6,0.9
			c-0.4,0.4-0.7,0.9-0.8,1.6c-0.8,0.4-1.5,0.8-2.1,1.5c-1.5,1.6-1,4.9-1,4.9l0.1-0.1c0,0,0,0.1-0.1,0.1c0.1-0.1,0.1-0.2,0.2-0.3
			l0.1-0.1c0.1-0.1,0.1-0.2,0.2-0.3c0.1,0.1,1.6,1.8,4.2,1.8c0.5,0,1.1,0,1.6,0c-0.9,0.3-1.9,0.7-2.8,1.3c-1.5,1.1-2.1,2.7-2.2,3.8
			c0,0,0,0,0,0c0,0.1,0,0.2,0,0.3c0,0,0,0,0,0c0,0.1,0,0.2,0,0.2c0,0,0,0,0,0c0,0.1,0,0.3,0,0.4c0,0,0,0,0,0c0,0,0,0.1,0,0.1
			c0,0,0,0,0,0c0,0,0,0.1,0,0.1c0,0,0,0,0,0c0,0,0,0,0,0l0.9-0.7v0l0.5-0.4c0,0,0,0,0,0c-0.1,0.2-0.4,0.9,0.1,1.8
			c0.1,0.2,0.2,0.3,0.2,0.4c0,0,0,0,0,0c0,0.1,0.1,0.1,0.1,0.1c0,0,0,0,0.1,0.1c0,0,0,0,0.1,0.1c0,0,0,0,0.1,0.1c0,0,0,0,0.1,0.1
			c0,0,0,0,0.1,0.1c0,0,0,0,0,0c0,0,0,0,0.1,0c0,0,0,0,0,0c0,0,0,0,0.1,0c0,0,0,0,0,0c0,0,0,0,0.1,0c0,0,0,0,0,0c0,0,0.1,0,0.1,0
			c0,0,0,0,0,0c0,0,0,0,0,0c0,0,0,0,0,0c0,0,0,0,0,0c0,0,0,0,0,0c0,0,0,0,0,0c0,0,0,0,0,0c0,0,0,0,0,0c0,0,0,0,0,0c0,0,0,0,0,0
			c0,0,0,0,0,0c0,0,0,0,0,0c0,0,0,0,0,0v-0.9v-0.3l1,0.7c0,0,0,0,0,0l0.8,0.6l-0.1-1.3l0,0l0-0.5c0,0-0.1-0.5,0.7-1.1
			c0,0.4,0,0.8,0,1.2c0,3.3,3.2,4.4,4.3,4.7c-0.7,0.6-1.5,1.6-1.9,2.8c-0.7,2.2-1,3.9-1,3.9h1.3h0.4h1.3h0.7H24H25L24.1,38h2.3
			L26,44.6h1.1h1.3h0.7h1.3h0.4h1.3c0,0,0-0.1-0.1-0.4c0,0,0,0,0,0c0,0,0-0.1,0-0.2c0,0,0,0,0,0c0-0.1,0-0.1,0-0.2c0,0,0,0,0,0
			c0-0.1,0-0.1-0.1-0.2c0,0,0,0,0,0c0,0,0,0,0,0c0,0,0,0,0,0c2.8,1.5,6.1,0.7,6.1,0.7S35.7,43.4,34.7,41.6z"/>
	</g>
</g>
<g id="Layer_1">
</g>
<g id="elliot">
</g>
</svg>
