<svg xmlns="http://www.w3.org/2000/svg" viewBox="0 0 54.22 86.06" width="54.22" height="86.06" preserveAspectRatio="none"><defs><style>.cls-1{fill:#97b8bf;}.cls-2{fill:#a87e35;}.cls-3{fill:#c6cee5;}.cls-4{fill:#f3f5ff;}</style></defs><g id="FG_trees_and_bushes" data-name="FG trees and bushes"><path class="cls-1" d="M51.22,67.52C48,71,40.51,73.65,27.35,71.21A7.3,7.3,0,0,1,30,73.6h0s3.44,1.9,3.43,4.43a2.11,2.11,0,0,1-.67,1.87l-.07,0a2.31,2.31,0,0,1-.52.32,8.28,8.28,0,0,1-7.5.61s-.25-.16-.63-.44A55.86,55.86,0,0,1,9,75.11c-.79-.12-1.66-.28-2.61-.5,0,0-3.46,2.56-6.07,2.72V86c3.2,0,6.57,0,10.14-.08,3-.09,5,.11,3.6-2.1l-2.81-3s13.44,6.52,25.78,1.77c10.81-4.16-1.26-7.77-3.74-8.44a1,1,0,0,1-.43-.12l.43.12c3.38.49,25,.47,18.1-6.79Z" /><path class="cls-1" d="M33.31,74.21l-.43-.12A1,1,0,0,0,33.31,74.21Z" /><path class="cls-2" d="M29.19,56.12a3.28,3.28,0,0,1-.17.37,2.13,2.13,0,0,1,1.66,1.59,26,26,0,0,1,3.71-1.33,59.26,59.26,0,0,0,10.68-7,3.78,3.78,0,0,1-.72-.32S36.14,55.49,29.19,56.12Z" /><path class="cls-2" d="M32.8,79.9A2.11,2.11,0,0,0,33.47,78,3.24,3.24,0,0,1,32.8,79.9Z" /><path class="cls-2" d="M21.8,78.28s-5.43-.62-7.38-3A17.3,17.3,0,0,1,9,75.11a55.86,55.86,0,0,0,15.06,5.33A12.56,12.56,0,0,1,21.8,78.28Z" /><polygon class="cls-2" points="30.04 73.6 30.04 73.6 30.04 73.6 30.04 73.6" /><path class="cls-2" d="M32.73,80c-.09.06-.27.18-.52.32A2.31,2.31,0,0,0,32.73,80Z" /><path class="cls-2" d="M40.87,67s-3.95,4.31-6.58,0c0,0-6.11,4.15-9,1.17,0,0-3.26.26-2.53,1.08a25.18,25.18,0,0,1,4.61,2C40.51,73.65,48,71,51.22,67.52a6.65,6.65,0,0,1-2.49.6S41,70.2,40.87,67Z" /><path class="cls-3" d="M1.36,38.17a8.08,8.08,0,0,0-1,.79V58.08h.94Z" /><path class="cls-3" d="M.34,36.56v1.52A3.39,3.39,0,0,0,.34,36.56Z" /><path class="cls-3" d="M46.63,48.31c-.47.48-1,1-1.56,1.45,2,.63,4-.81,5.78-3.76a6.2,6.2,0,0,0,.88-2.8C51.68,43.36,50.39,47.68,46.63,48.31Z" /><path class="cls-3" d="M18,5.76s6.24,10.38,3,28.76a8.36,8.36,0,0,0-1-.24c0,.27-.06.55-.1.83,2.18.59,4.64,1.89,5,4.78,0,0,2.34-6,15.13-5.72,0,0,10.56-.35,11.76,9,.21-3.68-3-6.61-3-6.61C35.24,27.89,24.89,38.1,24.89,38.1c-.5-1.94-3.46-3.38-3.46-3.38A54,54,0,0,0,18.24,4.9C12.84-3.26,5.21.4.34,4.18V4.8C2.76,2.72,11.71-3.89,18,5.76Z" /><path class="cls-3" d="M1.28,58.07H.34V62l.92-.38Z" /><path class="cls-3" d="M6.48,56.11c0,.67-.05,1.33-.08,2,2,0,4.07.07,6.07.14.25-5.06,1.92-6.76,1.92-6.76A29.3,29.3,0,0,0,13,58.23l1,0a44,44,0,0,1,4.66-4.92c-2.12-.5-3.83-1.2-3.41-1.17a3.39,3.39,0,0,0-2.5-2.2A39.38,39.38,0,0,1,6.48,56.11Z" /><path class="cls-3" d="M5.7,58.08c0-.57,0-1.15,0-1.75a27.27,27.27,0,0,1-4.26-5.12c0-.18,0-.36,0-.54a43.1,43.1,0,0,0,4.26,4.52c0-2.48.08-5.13.16-7.91a1.13,1.13,0,0,0-.18,0,1.62,1.62,0,0,0,.19-.18c0-.71.05-1.42.07-2.15a27.1,27.1,0,0,1-4.34-5.3v-.5A40.31,40.31,0,0,0,6,43.88c0-1.22.11-2.46.17-3.72-.83-2.1-2.45-3.46-4.82-2l-.08,19.9C2.76,58.06,4.23,58.07,5.7,58.08Z" /><path class="cls-3" d="M12.3,49.87a9.69,9.69,0,0,0-3.68,0,4.17,4.17,0,0,0-1.74-2.44c-.14,2.57-.26,5.09-.36,7.51A45.9,45.9,0,0,0,12.3,49.87Z" /><path class="cls-3" d="M16.43,34.62a14.69,14.69,0,0,1,3.43.49c0-.28.07-.56.1-.83A5.17,5.17,0,0,0,16.43,34.62Z" /><path class="cls-3" d="M46.63,48.31h0S45.48,49,44,47c0,0,1.58-.26,1.82-1.21a6.17,6.17,0,0,1-5-.74s2,.37,2.76-.27c0,0-3-2.46-6.18-1,0,0,.66-.15,1.3.74a19.65,19.65,0,0,1-2.12,1.64,22.27,22.27,0,0,0,2.5.52,5.74,5.74,0,0,1-3-.23c-1.81,1.13-4.25,2.16-6.14,1.19a2.91,2.91,0,0,1,.89-1.78c-1.11.57-2.26,1.21-3.43,1.93a19.75,19.75,0,0,0,5.84,1.77s-2,.64-6.16-1.58l-.42.26c.72.12.3,1.31-.57,1.59,0,0-.07,3.33-2.76,3.85a7.57,7.57,0,0,1-1.87.08,26,26,0,0,0,6.36.47s-2.42,1.33-8.27-.55a48.36,48.36,0,0,0-4.07,4.23C19.76,56.83,26,55.52,29,56.49a3.28,3.28,0,0,0,.17-.37c7-.63,15.16-6.68,15.16-6.68a3.78,3.78,0,0,0,.72.32C45.64,49.27,46.16,48.79,46.63,48.31Z" /><path class="cls-3" d="M27.86,45.06c-.56.11-1.18.25-1.86.44,0,0-3.26,2.17-1.93,3.62l.07,0c.77-.5,1.58-1,2.42-1.48A16.94,16.94,0,0,1,27.86,45.06Z" /><path class="cls-3" d="M32.06,44.87A9.75,9.75,0,0,0,28.4,45,17.31,17.31,0,0,0,27,47.33,52.5,52.5,0,0,1,32.06,44.87Z" /><path class="cls-3" d="M5.7,58.08c-1.47,0-2.94,0-4.42,0l0,3.5C2.61,61,4.19,60.41,5.7,59.91Z" /><path class="cls-3" d="M11.27,59.16l1.18-.36c0-.2,0-.4,0-.58-2-.07-4-.11-6.07-.14,0,.55,0,1.08,0,1.61C8.74,58.94,10.81,58.52,11.27,59.16Z" /><path class="cls-3" d="M12.94,58.66l.93-.27.1-.12-1,0Z" /><path class="cls-3" d="M5.88,47.28c-.08,2.78-.14,5.43-.16,7.91l.15.14v1.16l-.16-.16c0,.6,0,1.18,0,1.75h.7c0-.64,0-1.3.08-2h0l-.27-.95.33-.24c.1-2.42.22-4.94.36-7.51A1.81,1.81,0,0,0,5.88,47.28Z" /><path class="cls-3" d="M6.77,44.78l-.24-.87.3-.22a9.82,9.82,0,0,0-.65-3.53c-.06,1.26-.12,2.5-.17,3.72l.2.19v1.16L6,45c0,.73,0,1.44-.07,2.15A4.21,4.21,0,0,0,6.77,44.78Z" /><path class="cls-3" d="M6.4,58.08H5.7v1.83l.66-.22C6.37,59.16,6.39,58.63,6.4,58.08Z" /><path class="cls-3" d="M19.56,53.54l-.19,0-.28.2a2.21,2.21,0,0,1,.05-.25l-.51-.11A44,44,0,0,0,14,58.27h.28l1.27-.34a48.36,48.36,0,0,1,4.07-4.23l-.24-.07Z" /><path class="cls-3" d="M32.26,44.92l-.2-.05a52.5,52.5,0,0,0-5,2.46l-.12.27-.43.2.09-.2c-.84.48-1.65,1-2.42,1.48a7,7,0,0,1,2.55-.81h0l.42-.26-.43-.23.47-.11.28.15c1.17-.72,2.32-1.36,3.43-1.93A4.81,4.81,0,0,1,32.26,44.92Z" /><path class="cls-3" d="M14.25,58.28H14l-.1.12Z" /><path class="cls-3" d="M1.46,50.67c0,.18,0,.36,0,.54a27.27,27.27,0,0,0,4.26,5.12c0-.38,0-.76,0-1.14A43.1,43.1,0,0,1,1.46,50.67Z" /><path class="cls-3" d="M5.87,55.33l-.15-.14c0,.38,0,.76,0,1.14l.16.16Z" /><path class="cls-3" d="M6.52,54.93c0,.4,0,.79,0,1.18A39.38,39.38,0,0,0,12.72,50l-.42-.11A45.9,45.9,0,0,1,6.52,54.93Z" /><path class="cls-3" d="M6.19,55.17l.27.95h0c0-.39,0-.78,0-1.18Z" /><path class="cls-3" d="M1.62,39.18v.5A27.1,27.1,0,0,0,6,45c0-.36,0-.73,0-1.1A40.31,40.31,0,0,1,1.62,39.18Z" /><path class="cls-3" d="M6.21,44.07,6,43.88c0,.37,0,.74,0,1.1l.25.25Z" /><path class="cls-3" d="M6.77,44.78a7.71,7.71,0,0,0,.06-1.09l-.3.22Z" /><path class="cls-3" d="M39.07,46.71a22.27,22.27,0,0,1-2.5-.52l-.45.29A5.74,5.74,0,0,0,39.07,46.71Z" /><path class="cls-3" d="M27,47.33A17.31,17.31,0,0,1,28.4,45l-.54.1a16.94,16.94,0,0,0-1.3,2.54Z" /><path class="cls-3" d="M26.47,47.8l.43-.2.12-.27-.46.27Z" /><path class="cls-3" d="M33.28,49.59a19.75,19.75,0,0,1-5.84-1.77l-.32.19C31.25,50.23,33.28,49.59,33.28,49.59Z" /><path class="cls-3" d="M26.69,47.78l.43.23.32-.19-.28-.15Z" /><path class="cls-3" d="M19.09,53.71l.28-.2-.23,0A2.21,2.21,0,0,0,19.09,53.71Z" /><path class="cls-3" d="M19.59,53.71c5.85,1.88,8.27.55,8.27.55a26,26,0,0,1-6.36-.47,15.34,15.34,0,0,1-1.76-.21Z" /><path class="cls-3" d="M19.56,53.54l-.21.1.24.07.15-.13Z" /><path class="cls-3" d="M14.39,51.46s-1.67,1.7-1.92,6.76H13A29.3,29.3,0,0,1,14.39,51.46Z" /><path class="cls-3" d="M12.94,58.66l0-.43h-.5c0,.18,0,.38,0,.58Z" /><path class="cls-4" d="M51.74,43.19v0Z" /><path class="cls-4" d="M40,34.17c-12.79-.27-15.13,5.72-15.13,5.72-.34-2.89-2.8-4.19-5-4.78-.46,4.1-1.15,8.7-2.13,13.85,0,0,14.16-20.13,29.16-11.38,4,2.36,4.35,6.09-.26,10.73,3.76-.63,5-5,5.1-5.11v0C50.53,33.82,40,34.17,40,34.17Z" /><path class="cls-4" d="M1.42,25.67l-.19-.35v-.15c.06.1.12.2.19.3L1.49,7.92A14.41,14.41,0,0,1,5.42,4.21C10.13,1.29,23.63-.22,20,34.28a8.36,8.36,0,0,1,1,.24c3.29-18.38-3-28.76-3-28.76-6.26-9.65-15.21-3-17.63-1V36.56a3.39,3.39,0,0,1,0,1.52V39a8.08,8.08,0,0,1,1-.79Z" /><path class="cls-4" d="M.08,39.18.34,39v-.88C.17,38.88-.15,39.41.08,39.18Z" /><path class="cls-4" d="M21.5,53.79a7.57,7.57,0,0,0,1.87-.08c2.69-.52,2.76-3.85,2.76-3.85.87-.28,1.29-1.47.57-1.59a50.76,50.76,0,0,0-6.77,5.13A13.55,13.55,0,0,0,21.5,53.79Z" /><path class="cls-4" d="M5.42,4.21A14.41,14.41,0,0,0,1.49,7.92L1.42,25.47a35.54,35.54,0,0,0,5.34,6.09A212.72,212.72,0,0,1,9.61,9.76s-.85,9.59-1.7,21.43a40.67,40.67,0,0,0,7.31-6.93s-1.1,2.95-7.39,8.12c-.25,3.59-.5,7.36-.72,11.11a41.11,41.11,0,0,0,7.31-6.94S13.33,39.49,7,44.66c-.06.92-.11,1.84-.16,2.76a4.17,4.17,0,0,1,1.74,2.44,9.69,9.69,0,0,1,3.68,0c.62-.66,1.23-1.35,1.78-2.06A10,10,0,0,1,12.72,50a3.39,3.39,0,0,1,2.5,2.2c-.42,0,1.29.67,3.41,1.17l.66-.58C20.57,47.34,22.74,46,22.74,46a26,26,0,0,0-2.9,6.29,46.69,46.69,0,0,1,4.3-3.21l-.07,0C22.74,47.67,26,45.5,26,45.5c.68-.19,1.3-.33,1.86-.44,1.44-2.29,2.68-2.75,2.68-2.75A21.44,21.44,0,0,0,28.4,45a9.75,9.75,0,0,1,3.66-.09l.27-.11c1.92-4.54,4-5.32,4-5.32a19.49,19.49,0,0,0-3.57,5.15,56.68,56.68,0,0,1,7.8-2.49c1-.28,1.6-.39,1.6-.39-.55.12-1.07.26-1.6.39A49.43,49.43,0,0,0,33,44.84a17.36,17.36,0,0,0,3.54,1.35,19.65,19.65,0,0,0,2.12-1.64c-.64-.89-1.3-.74-1.3-.74,3.22-1.48,6.18,1,6.18,1-.74.64-2.76.27-2.76.27a6.17,6.17,0,0,0,5,.74C45.54,46.75,44,47,44,47c1.52,2,2.67,1.3,2.67,1.3h0c4.61-4.64,4.31-8.37.26-10.73C31.89,28.83,17.73,49,17.73,49c1-5.15,1.67-9.75,2.13-13.85a14.69,14.69,0,0,0-3.43-.49A5.17,5.17,0,0,1,20,34.28C23.63-.22,10.13,1.29,5.42,4.21Z" /><path class="cls-4" d="M5.7,47.31a1.13,1.13,0,0,1,.18,0v-.15A1.62,1.62,0,0,1,5.7,47.31Z" /><path class="cls-4" d="M30.87,45.89A2.91,2.91,0,0,0,30,47.67c1.89,1,4.33-.06,6.14-1.19A16.56,16.56,0,0,1,32.67,45C32.09,45.28,31.49,45.57,30.87,45.89Z" /><path class="cls-4" d="M6.18,40.16c.13-2.45.3-5,.5-7.53a27.5,27.5,0,0,1-5.26-7l-.06,12.5C3.73,36.7,5.35,38.06,6.18,40.16Z" /><path class="cls-4" d="M6.77,44.78a4.21,4.21,0,0,1-.88,2.35v.15a1.81,1.81,0,0,1,1,.14c0-.92.1-1.84.16-2.76l-.24.2Z" /><path class="cls-4" d="M7,33l-.33-.32c-.2,2.55-.37,5.08-.5,7.53a9.82,9.82,0,0,1,.65,3.53l.28-.2c.22-3.75.47-7.52.72-11.11l-.24.2-.26-1s.22-.15.58-.43c.85-11.84,1.7-21.43,1.7-21.43a212.72,212.72,0,0,0-2.85,21.8l.25.22Z" /><path class="cls-4" d="M32.48,44.91l.46-.12.09.05a49.43,49.43,0,0,1,7.52-2.74,56.68,56.68,0,0,0-7.8,2.49l-.06.14-.43.19a4.81,4.81,0,0,0-1.39,1c.62-.32,1.22-.61,1.8-.88Z" /><path class="cls-4" d="M19.29,52.77l-.66.58.51.11Q19.22,53.1,19.29,52.77Z" /><path class="cls-4" d="M32.33,44.76l-.27.11.2.05C32.28,44.87,32.31,44.82,32.33,44.76Z" /><path class="cls-4" d="M40.55,42.1c.53-.13,1.05-.27,1.6-.39C42.15,41.71,41.56,41.82,40.55,42.1Z" /><path class="cls-4" d="M24.14,49.08a46.69,46.69,0,0,0-4.3,3.21c-.19.68-.27,1.07-.27,1.07l-.2.15.19,0,.33-.15h0a50.76,50.76,0,0,1,6.77-5.13h0A7,7,0,0,0,24.14,49.08Z" /><path class="cls-4" d="M14.08,47.81c-.55.71-1.16,1.4-1.78,2.06l.42.11A10,10,0,0,0,14.08,47.81Z" /><path class="cls-4" d="M14.42,36.55a41.11,41.11,0,0,1-7.31,6.94c0,.39-.05.78-.07,1.17C13.33,39.49,14.42,36.55,14.42,36.55Z" /><path class="cls-4" d="M6.77,44.78l0,.08.24-.2c0-.39,0-.78.07-1.17l-.28.2A7.71,7.71,0,0,1,6.77,44.78Z" /><path class="cls-4" d="M1.23,25.17v.15l.19.35v-.2C1.35,25.37,1.29,25.27,1.23,25.17Z" /><path class="cls-4" d="M6.68,32.63c0-.36.05-.71.08-1.07a35.54,35.54,0,0,1-5.34-6.09v.2A27.5,27.5,0,0,0,6.68,32.63Z" /><path class="cls-4" d="M7,33V31.78l-.25-.22c0,.36,0,.71-.08,1.07Z" /><path class="cls-4" d="M15.22,24.26a40.67,40.67,0,0,1-7.31,6.93c0,.4,0,.79-.08,1.19C14.12,27.21,15.22,24.26,15.22,24.26Z" /><path class="cls-4" d="M7.59,32.58l.24-.2c0-.4.06-.79.08-1.19-.36.28-.58.43-.58.43Z" /><path class="cls-4" d="M36.32,39.44s-2.07.78-4,5.32l.42-.17A19.49,19.49,0,0,1,36.32,39.44Z" /><path class="cls-4" d="M32.69,44.73l.06-.14-.42.17c0,.06,0,.11-.07.16Z" /><path class="cls-4" d="M32.67,45a16.56,16.56,0,0,0,3.45,1.47l.45-.29A17.36,17.36,0,0,1,33,44.84Z" /><path class="cls-4" d="M32.48,44.91l.19.1.36-.17-.09-.05Z" /><path class="cls-4" d="M30.54,42.31s-1.24.46-2.68,2.75l.54-.1A21.44,21.44,0,0,1,30.54,42.31Z" /><path class="cls-4" d="M22.74,46s-2.17,1.34-3.45,6.77l.55-.48A26,26,0,0,1,22.74,46Z" /><path class="cls-4" d="M19.37,53.51l.2-.15s.08-.39.27-1.07l-.55.48q-.08.33-.15.69Z" /><path class="cls-4" d="M19.74,53.58a15.34,15.34,0,0,0,1.76.21,13.55,13.55,0,0,1-1.57-.39Z" /><path class="cls-4" d="M19.93,53.4h0l-.33.15.18,0Z" /><path class="cls-3" d="M39.93,57.81H40a4.59,4.59,0,0,1,3.41,0c.84,0,1.66.08,2.45.16.45-.66,1.36-1.14,3.11.6a7.18,7.18,0,0,1,2.88,1.53,3.86,3.86,0,0,1,.55.66c.63.38,1.27.9,1.32,1.49a5.86,5.86,0,0,0-.72-.16,5.94,5.94,0,0,1-1.66,5.31l0,.06a5.7,5.7,0,0,0,2.81-4.72c-.39-2.42-3.15-3.61-3.15-3.61-3.83-4.25-6.7-1.43-6.7-1.43-1.34-1.17-4.4,0-4.4,0-.6-1.82-3.26-1.55-5.58-.91l-.47.25C35.7,56.48,39.23,55.75,39.93,57.81Z" /><path class="cls-3" d="M30.86,58.55l-1,.51.67-.13A3.3,3.3,0,0,1,30.86,58.55Z" /><path class="cls-3" d="M1.2,76.2V73.38h0c0-.13,0-.26,0-.39h.05l0-4.46-.12-.12c0-.36,0-.72,0-1.08l.14.14,0-4.95L.34,62V77.33c2.61-.16,6.07-2.72,6.07-2.72,1,.22,1.82.38,2.61.5q-1.33-.67-2.73-1.44S4.14,74.79,1.2,76.2Z" /><path class="cls-3" d="M51.36,67.36a1.07,1.07,0,0,1-.14.16l.19-.1Z" /><path class="cls-3" d="M32.8,79.9l-.07,0Z" /><path class="cls-3" d="M30,73.6a7.3,7.3,0,0,0-2.69-2.39c-.37-.06-.72-.12-1.09-.2A31.94,31.94,0,0,1,30,73.6Z" /><path class="cls-3" d="M33.47,78C33.48,75.5,30,73.6,30,73.6,31.68,74.91,33.26,76.54,33.47,78Z" /><path class="cls-3" d="M24.08,80.44c.38.28.63.44.63.44a8.28,8.28,0,0,0,7.5-.61C30.88,80.92,28.09,81.15,24.08,80.44Z" /><path class="cls-3" d="M51.75,62.46A2.06,2.06,0,0,0,50,61.93a1.66,1.66,0,0,1,.38.53,5.33,5.33,0,0,0-3.25-1.06s1,.74,1.14,1.06-4.75-1.41-6.17-.53c0,0,.26-1.06.61-1.12a6.82,6.82,0,0,0-1.44.26c-.27.2-.54.4-.8.63.85.24,1.67.49,2.45.77a55.3,55.3,0,0,1,5.85.84S47,63,44,62.89a22.82,22.82,0,0,1,5.41,2.83,15.6,15.6,0,0,1,1.91,1.64A5.94,5.94,0,0,0,53,62.05C52.47,62,51.8,62,51.75,62.46Z" /><path class="cls-3" d="M40,57.81h-.09s0,0,0,0Z" /><path class="cls-3" d="M45.88,57.93c-.79-.08-1.61-.14-2.45-.16a7.18,7.18,0,0,1,2,1.15A2.78,2.78,0,0,1,45.88,57.93Z" /><path class="cls-3" d="M29,56.49a7.45,7.45,0,0,1-2.52,2.68c1.78.19,3.5.42,5.15.67a3.54,3.54,0,0,1,1.91-.3L30.42,59l.07-.08-.67.13,1-.51a8.57,8.57,0,0,1,2-1.21s.42-.16,1.05-.34l.47-.25a26,26,0,0,0-3.71,1.33A2.13,2.13,0,0,0,29,56.49Z" /><path class="cls-3" d="M51.21,60.12a8.5,8.5,0,0,1,1.21.6,3.86,3.86,0,0,0-.55-.66A7.18,7.18,0,0,0,49,58.53c.18.19.38.4.58.63A1.39,1.39,0,0,1,51.21,60.12Z" /><path class="cls-3" d="M1.23,68.53l0,4.46a25,25,0,0,1,4.1-.49C4.49,71.76,3.05,70.41,1.23,68.53Z" /><path class="cls-3" d="M35,60.55a13,13,0,0,0-1.14.7,6.27,6.27,0,0,1,1.21-.64S35.1,60.58,35,60.55Z" /><path class="cls-3" d="M13.29,60.78c-.2.27-.39.56-.58.83a3.91,3.91,0,0,1-2.09,3.3,48.68,48.68,0,0,0-3.41,7.26,47.7,47.7,0,0,1,16.23-8,11.59,11.59,0,0,1,4.74-4.67A14.22,14.22,0,0,0,24,64a51.17,51.17,0,0,1,7.72-1.46,11.29,11.29,0,0,1,3-2.11,6,6,0,0,0-4,0,4.16,4.16,0,0,1,1-.62c-1.65-.25-3.37-.48-5.15-.67C24.25,60.69,20.23,62,13.29,60.78Z" /><path class="cls-3" d="M6.27,64.82c0,2.93,0,5.41.21,7.21a37.77,37.77,0,0,1,2.87-6.8A8,8,0,0,1,6.27,64.82Z" /><path class="cls-3" d="M32.44,62.43s0,0,0,0a55.67,55.67,0,0,1,5.73-.26A18.86,18.86,0,0,0,32.44,62.43Z" /><path class="cls-3" d="M49.45,65.72A22.82,22.82,0,0,0,44,62.89l-1.13,0c.11.07.18.13.17.17l-.92-.2c-.7,0-1.44,0-2.22,0A15.72,15.72,0,0,0,45.48,67s-4.58-1.63-6.25-4.15c-2,0-4.32.14-6.74.4a15.62,15.62,0,0,0,5.45,4.06s-4.36-1.56-6.12-4a61.26,61.26,0,0,0-7.61,1.38,16,16,0,0,0,6.47,3.46s-4.9-.82-7.16-3.28A43.94,43.94,0,0,0,9.24,71.29a13.71,13.71,0,0,1,4.3-.84c2.84-2.78,4.7-2.6,4.7-2.6a9.84,9.84,0,0,0-4.13,2.59h.16a12.38,12.38,0,0,1,2.43-.18c.21,0,2.18-2,6.37-.4a3.38,3.38,0,0,1,1.39.1,6.71,6.71,0,0,0-1,.06c.4.18.81.37,1.25.62,0,0-1.47.34-1.1.39a6.17,6.17,0,0,1,5.27,2.36s-1.49.37-1.58.36,3.75.28,5,2.26.32,3.76-1.84,3.07-3.31-1-4-2.35c0,0,.07-.72,1.16-.44a17.16,17.16,0,0,0-2.45-.69,7.59,7.59,0,0,0,.65,2.68,6.92,6.92,0,0,1-1-2.74c-1-.15-1.9-.11-2.1.47s-1.37.55-2.48.13a6.54,6.54,0,0,0,.3.59,2.89,2.89,0,0,1-.51-.68c-1-.42-2-1.06-2.08-1.44-.14-.7,1-.83,1.29-.85h0c-.57,0-3.76,0-4.06-1.26,0,0-.43-.2-.88-.47a9.14,9.14,0,0,0,2,3.26s-1.43-.62-2.56-3.62c-.31-.26-.52-.54-.39-.79a13.45,13.45,0,0,0-5.69,1.55l-.86.7-.18.48L6,73.53l0-.43,0,0a16.15,16.15,0,0,0-4.75.31V76.2c2.94-1.41,5.09-2.53,5.09-2.53q1.39.77,2.73,1.44a17.3,17.3,0,0,0,5.4.17c2,2.38,7.38,3,7.38,3a12.56,12.56,0,0,0,2.28,2.16c4,.71,6.8.48,8.13-.17.25-.14.43-.26.52-.32l.07,0A3.24,3.24,0,0,0,33.47,78c-.21-1.49-1.79-3.12-3.43-4.43h0A31.94,31.94,0,0,0,26.26,71c.37.08.72.14,1.09.2a25.18,25.18,0,0,0-4.61-2c-.73-.82,2.53-1.08,2.53-1.08,2.91,3,9-1.17,9-1.17,2.63,4.31,6.58,0,6.58,0,.15,3.25,7.86,1.17,7.86,1.17a6.65,6.65,0,0,0,2.49-.6,1.07,1.07,0,0,0,.14-.16A15.6,15.6,0,0,0,49.45,65.72Z" /><path class="cls-3" d="M42,62.39l.85.08c-.78-.28-1.6-.53-2.45-.77l0,0C40.79,61.87,41.46,62.13,42,62.39Z" /><path class="cls-3" d="M6,72.23c-.07-1.46-.16-4.08-.21-7.58a24.27,24.27,0,0,1-4.49-2.13l0,4.95Q3.51,69.93,6,72.23Z" /><path class="cls-3" d="M6.27,64.82a5.25,5.25,0,0,1-.52-.17c0,3.5.14,6.12.21,7.58l.06.06,0,.46.19.18c0-.09.09-.4.24-.9C6.31,70.23,6.25,67.75,6.27,64.82Z" /><path class="cls-3" d="M6.08,73.08v.1L6,73.1l0,.43.66.07-.36-.5Z" /><path class="cls-3" d="M12.71,61.61c.19-.27.38-.56.58-.83l-.55-.1A5.5,5.5,0,0,1,12.71,61.61Z" /><path class="cls-3" d="M6.68,73.6l.18-.48-.23.18C6.65,73.4,6.66,73.51,6.68,73.6Z" /><path class="cls-3" d="M6.48,72c0,.24,0,.47.07.68.07-.06.29-.25.66-.54a48.68,48.68,0,0,1,3.41-7.26,4.14,4.14,0,0,1-1.27.32A37.77,37.77,0,0,0,6.48,72Z" /><path class="cls-3" d="M6.61,73.32l-.09-.58,0,0c0-.21,0-.44-.07-.68-.15.5-.22.81-.24.9l.17.18H6.32l.36.5c0-.09,0-.2,0-.3Z" /><path class="cls-3" d="M42.88,62.47c.39.13.78.27,1.16.42,2.91.15,4.69.42,4.69.42A55.3,55.3,0,0,0,42.88,62.47Z" /><path class="cls-3" d="M42,62.39a5.8,5.8,0,0,1,.88.45l1.13,0c-.38-.15-.77-.29-1.16-.42Z" /><path class="cls-3" d="M39.66,62.46l-.44-.12c-.36,0-.72-.09-1.1-.12a55.67,55.67,0,0,0-5.73.26l-.27.29-.46-.13.09-.09A51.17,51.17,0,0,0,24,64l-.18.35-.48,0,.07-.15a47.7,47.7,0,0,0-16.23,8c-.12.31-.24.63-.35,1l.86-.7q-.34.18-.69.39l1-.94a7.9,7.9,0,0,1,1.23-.58,43.94,43.94,0,0,1,14.28-6.45h0l.61-.24.09.07a61.26,61.26,0,0,1,7.61-1.38c0-.06-.09-.11-.13-.18l.65-.09a1.5,1.5,0,0,0,.15.19c2.42-.26,4.7-.37,6.74-.4h0l.65-.1a.57.57,0,0,0,.06.09c.78,0,1.52,0,2.22,0-.6-.12-1.45-.27-2.45-.41Z" /><path class="cls-3" d="M6.55,72.71c0,.21.06.41.08.59l.23-.18c.11-.32.23-.64.35-1C6.84,72.46,6.62,72.65,6.55,72.71Z" /><path class="cls-3" d="M6.61,73.32l0,0c0-.18,0-.38-.08-.59l0,0Z" /><path class="cls-3" d="M14.27,70.44h-.16l-.06,0Z" /><path class="cls-3" d="M13.41,70.87a.31.31,0,0,1,.09-.11s0-.08,0-.12h.22l-.22-.11.08-.07a13.71,13.71,0,0,0-4.3.84c-.52.37-1,.74-1.52,1.13A13.45,13.45,0,0,1,13.41,70.87Z" /><path class="cls-3" d="M7,72.81q.34-.21.69-.39c.5-.39,1-.76,1.52-1.13A7.9,7.9,0,0,0,8,71.87Z" /><path class="cls-3" d="M1.1,67.33c0,.36,0,.72,0,1.08l.12.12V67.47Z" /><path class="cls-3" d="M6,73.07l0,0v0Z" /><path class="cls-3" d="M5.31,72.5H5.8l.17.18c0-.13,0-.29,0-.44q-2.46-2.3-4.72-4.76v1.06C3.05,70.41,4.49,71.76,5.31,72.5Z" /><path class="cls-3" d="M6,72.29,6,72.23c0,.15,0,.31,0,.44l.08.08Z" /><path class="cls-3" d="M6.08,73.08H6v0l.1.08Z" /><path class="cls-3" d="M1.16,73c0,.13,0,.26,0,.39h0V73Z" /><path class="cls-3" d="M1.21,73v.39A16.15,16.15,0,0,1,6,73.07l-.65-.57A25,25,0,0,0,1.21,73Z" /><path class="cls-3" d="M6.08,73.08l.24,0L6.23,73v0l-.19-.18Z" /><path class="cls-3" d="M6.32,73.1h.09l-.17-.18v0Z" /><path class="cls-3" d="M6,72.67l-.17-.18H5.31l.65.57H6C6,73,6,72.83,6,72.67Z" /><path class="cls-3" d="M6,72.67c0,.16,0,.29,0,.4h.09l0-.33Z" /><path class="cls-3" d="M40.17,61.62l.26.08c.26-.23.53-.43.8-.63a2.77,2.77,0,0,0-1.13.53Z" /><path class="cls-3" d="M40.41,61.72l0,0-.26-.08Z" /><path class="cls-3" d="M39.66,62.46l.05-.06-.49-.06Z" /><path class="cls-3" d="M39.23,62.8C40.9,65.32,45.48,67,45.48,67a15.72,15.72,0,0,1-5.54-4.16Z" /><path class="cls-3" d="M39.23,62.8h.71a.57.57,0,0,1-.06-.09Z" /><path class="cls-3" d="M33.88,61.25a13,13,0,0,1,1.14-.7l-.31-.11a11.29,11.29,0,0,0-3,2.11h.07C32.18,62.31,33.1,61.72,33.88,61.25Z" /><path class="cls-3" d="M32.17,62.5l.22,0s0,0,0,0Z" /><path class="cls-3" d="M31.82,62.54h-.07l-.09.09Z" /><path class="cls-3" d="M31.66,62.64l.46.13.27-.29-.22,0Z" /><path class="cls-3" d="M37.94,67.26a15.62,15.62,0,0,1-5.45-4.06l-.67.08C33.58,65.7,37.94,67.26,37.94,67.26Z" /><path class="cls-3" d="M31.69,63.1c0,.07.09.12.13.18l.67-.08a1.5,1.5,0,0,1-.15-.19Z" /><path class="cls-3" d="M28.18,59.5a11.59,11.59,0,0,0-4.74,4.67L24,64A14.22,14.22,0,0,1,28.18,59.5Z" /><path class="cls-3" d="M23.85,64.36,24,64l-.59.16-.07.15Z" /><path class="cls-3" d="M30.68,68.12a16,16,0,0,1-6.47-3.46c-.23.06-.46.11-.69.18C25.78,67.3,30.68,68.12,30.68,68.12Z" /><path class="cls-3" d="M23.51,64.83h0c.23-.07.46-.12.69-.18l-.09-.07Z" /><path class="cls-3" d="M25.83,78.28a7.59,7.59,0,0,1-.65-2.68l-.34-.06A6.92,6.92,0,0,0,25.83,78.28Z" /><path class="cls-3" d="M19.26,73.75h0Z" /><path class="cls-3" d="M20.56,76.73a6.54,6.54,0,0,1-.3-.59l-.21-.09A2.89,2.89,0,0,0,20.56,76.73Z" /><path class="cls-3" d="M24.46,70a3.38,3.38,0,0,0-1.39-.1l.39.16A6.71,6.71,0,0,1,24.46,70Z" /><path class="cls-3" d="M16.36,75.28a9.14,9.14,0,0,1-2-3.26,4.8,4.8,0,0,1-.52-.36C14.93,74.66,16.36,75.28,16.36,75.28Z" /><path class="cls-3" d="M13.46,70.64s0,.08,0,.12a.83.83,0,0,1,.17-.12Z" /><path class="cls-3" d="M14.11,70.44a9.84,9.84,0,0,1,4.13-2.59s-1.86-.18-4.7,2.6Z" /><path class="cls-3" d="M13.68,70.63a2.43,2.43,0,0,1,.37-.14l.06,0h-.57l-.08.07Z" /><path class="cls-3" d="M.34,62h0l0,0Z" /><path class="cls-3" d="M1.26,62.52v-1L.34,62v0Z" /><path class="cls-3" d="M26.5,59.17A7.45,7.45,0,0,0,29,56.49c-3-1-9.26.34-13.5,1.45-.1.13-.21.25-.32.38C19.12,58.5,22.92,58.77,26.5,59.17Z" /><path class="cls-3" d="M12.45,58.8l-1.18.36c-.46-.64-2.53-.22-4.91.53-.05,1.82-.09,3.54-.09,5.13a8,8,0,0,0,3.08.41,43.55,43.55,0,0,1,3.1-5C12.44,59.75,12.44,59.26,12.45,58.8Z" /><path class="cls-3" d="M13.87,58.39l-.93.27c0,.39,0,.73,0,1C13.21,59.23,13.53,58.81,13.87,58.39Z" /><path class="cls-3" d="M12.71,61.61c-.73,1-1.43,2.15-2.09,3.3A3.91,3.91,0,0,0,12.71,61.61Z" /><path class="cls-3" d="M5.7,59.91c-1.51.5-3.09,1.11-4.44,1.66v1a24.27,24.27,0,0,0,4.49,2.13C5.72,63.21,5.71,61.62,5.7,59.91Z" /><path class="cls-3" d="M13.65,60.29a27.8,27.8,0,0,0,8.53-1.2s-2.23,2-8.85,1.63l0,.06c6.94,1.19,11-.09,13.21-1.61-3.58-.4-7.38-.67-11.3-.85C14.68,59,14.16,59.61,13.65,60.29Z" /><path class="cls-3" d="M6.36,59.69l-.66.22c0,1.71,0,3.3,0,4.74a5.25,5.25,0,0,0,.52.17C6.27,63.23,6.31,61.51,6.36,59.69Z" /><path class="cls-3" d="M15.2,58.32c.11-.13.22-.25.32-.38l-1.27.34Z" /><path class="cls-3" d="M12.89,59.65c0,.44,0,.68,0,.68l-.44.51c0-.2,0-.39,0-.58a43.55,43.55,0,0,0-3.1,5,4.14,4.14,0,0,0,1.27-.32c.66-1.15,1.36-2.25,2.09-3.3a5.5,5.5,0,0,0,0-.93l.52-.41.39,0c.51-.68,1-1.33,1.55-2l-.95,0-.38.11C13.53,58.81,13.21,59.23,12.89,59.65Z" /><path class="cls-3" d="M13.29,60.78l0-.06-.59,0Z" /><path class="cls-3" d="M12.45,60.26l.44-.61c0-.26,0-.6,0-1l-.49.14C12.44,59.26,12.44,59.75,12.45,60.26Z" /><path class="cls-3" d="M12.46,60.84l.44-.51s0-.24,0-.68l-.44.61C12.46,60.45,12.46,60.64,12.46,60.84Z" /><path class="cls-3" d="M22.18,59.09a27.8,27.8,0,0,1-8.53,1.2c-.11.14-.22.28-.32.43C20,61.12,22.18,59.09,22.18,59.09Z" /><path class="cls-3" d="M12.74,60.68l.59,0c.1-.15.21-.29.32-.43l-.39,0Z" /><path class="cls-4" d="M43.43,57.77a4.59,4.59,0,0,0-3.41,0C41.16,57.76,42.31,57.74,43.43,57.77Z" /><path class="cls-4" d="M53.74,62.21c-.05-.59-.69-1.11-1.32-1.49a4,4,0,0,1,.6,1.33A5.86,5.86,0,0,1,53.74,62.21Z" /><path class="cls-4" d="M45.88,57.93a18.45,18.45,0,0,1,3.11.6C47.24,56.79,46.33,57.27,45.88,57.93Z" /><path class="cls-4" d="M33.92,57c-1,.51-2,1-3.06,1.55a3.3,3.3,0,0,0-.37.38,79.28,79.28,0,0,1,9.44-1.12C39.23,55.75,35.7,56.48,33.92,57Z" /><path class="cls-4" d="M37.39,59.47a15.44,15.44,0,0,0-2.21,1c1.7.33,3.32.7,4.83,1.12a11.67,11.67,0,0,1,4.91-2.42,16.08,16.08,0,0,0-3.69,1.91,6.82,6.82,0,0,1,1.44-.26c-.35.06-.61,1.12-.61,1.12,1.42-.88,6.29.84,6.17.53s-1.14-1.06-1.14-1.06a5.33,5.33,0,0,1,3.25,1.06,1.66,1.66,0,0,0-.38-.53,2.06,2.06,0,0,1,1.79.53c0-.49.72-.49,1.27-.41a4,4,0,0,0-.6-1.33,8.5,8.5,0,0,0-1.21-.6,1.39,1.39,0,0,0-1.64-1c-.2-.23-.4-.44-.58-.63a18.45,18.45,0,0,0-3.11-.6,2.78,2.78,0,0,0-.4,1,7.18,7.18,0,0,0-2-1.15c-1.12,0-2.27,0-3.41,0l-.07,0s0,0,0,0a79.28,79.28,0,0,0-9.44,1.12l-.07.08,3.14.53a3.54,3.54,0,0,0-1.91.3c1.08.17,2.14.35,3.16.54A11.79,11.79,0,0,1,37.39,59.47Z" /><path class="cls-4" d="M32.87,57.34a8.57,8.57,0,0,0-2,1.21c1.07-.52,2.09-1,3.06-1.55C33.29,57.18,32.87,57.34,32.87,57.34Z" /><path class="cls-4" d="M43.08,63s-.06-.1-.17-.17l-.75,0Z" /><path class="cls-4" d="M39.85,62.26c.72,0,1.44.07,2.18.13-.57-.26-1.24-.52-1.62-.67C40.22,61.89,40,62.07,39.85,62.26Z" /><path class="cls-4" d="M35.09,60.61a6.27,6.27,0,0,0-1.21.64,11.42,11.42,0,0,0-1.44,1.18,18.86,18.86,0,0,1,5.68-.21h1.17c.12-.12.37-.36.72-.65-1.51-.42-3.13-.79-4.83-1.12l-.16.09C35.1,60.58,35.13,60.61,35.09,60.61Z" /><path class="cls-4" d="M34.71,60.44l.1-.06c-1-.19-2.08-.37-3.16-.54a4.16,4.16,0,0,0-1,.62A6,6,0,0,1,34.71,60.44Z" /><path class="cls-4" d="M39.29,62.23H38.12c.38,0,.74.08,1.1.12h0Z" /><path class="cls-4" d="M39.85,62.26l-.14.14c1,.14,1.85.29,2.45.41l.75,0a5.8,5.8,0,0,0-.88-.45C41.29,62.33,40.57,62.29,39.85,62.26Z" /><path class="cls-4" d="M40.1,61.6a2.77,2.77,0,0,1,1.13-.53,16.08,16.08,0,0,1,3.69-1.91A11.67,11.67,0,0,0,40,61.58l.16,0Z" /><path class="cls-4" d="M39.29,62.23l.56,0c.18-.19.37-.37.56-.54l-.24-.1-.16,0C39.66,61.87,39.41,62.11,39.29,62.23Z" /><path class="cls-4" d="M39.2,62.33h0l.49.06.14-.14-.56,0Z" /><path class="cls-4" d="M37.39,59.47a11.79,11.79,0,0,0-2.58.91l.37.08A15.44,15.44,0,0,1,37.39,59.47Z" /><path class="cls-4" d="M32.44,62.43a11.42,11.42,0,0,1,1.44-1.18c-.78.47-1.7,1.06-2.06,1.29l.35,0Z" /><path class="cls-4" d="M35.18,60.46l-.37-.08-.1.06.31.11Z" /><path class="cls-4" d="M31.82,62.54l-.16.1.51-.14Z" /><path class="cls-4" d="M18,74.61c.08.38,1,1,2.08,1.44a6.94,6.94,0,0,1-.79-2.29C18.93,73.78,17.83,73.91,18,74.61Z" /><path class="cls-4" d="M24.78,73.65a6.32,6.32,0,0,1,4.41,1,10,10,0,0,0-4-.74,36.54,36.54,0,0,1,4.17,3l.2.17-.2-.17a32.21,32.21,0,0,0-4.21-2.76,13.89,13.89,0,0,0,.06,1.51,17.16,17.16,0,0,1,2.45.69c-1.09-.28-1.16.44-1.16.44.64,1.37,1.8,1.66,4,2.35s3-1.08,1.84-3.07-5-2.27-5-2.26,1.58-.36,1.58-.36A6.17,6.17,0,0,0,23.61,71c-.37,0,1.1-.39,1.1-.39-.44-.25-.85-.44-1.25-.62a11.4,11.4,0,0,0-3.75,1.32A24.67,24.67,0,0,1,24.78,73.65Z" /><path class="cls-4" d="M23.07,69.86c-4.19-1.64-6.16.4-6.37.4a12.38,12.38,0,0,0-2.43.18,17.86,17.86,0,0,1,4.92.75A10.07,10.07,0,0,1,23.07,69.86Z" /><path class="cls-4" d="M13.93,70.85c.07.24.19.66.39,1.17.45.27.88.47.88.47.3,1.23,3.49,1.27,4.06,1.26a13.11,13.11,0,0,1-.2-2.19A18.64,18.64,0,0,0,13.93,70.85Z" /><path class="cls-4" d="M13.41,70.87c-.13.25.08.53.39.79-.09-.25-.18-.51-.27-.79Z" /><path class="cls-4" d="M19.45,71.67a11.31,11.31,0,0,0,.81,4.47c1.11.42,2.26.56,2.48-.13s1.11-.62,2.1-.47a9.49,9.49,0,0,1-.12-1.67A27.46,27.46,0,0,0,19.45,71.67Z" /><path class="cls-4" d="M29.33,76.85l.2.17Z" /><polygon class="cls-4" points="13.68 70.63 13.67 70.64 13.69 70.64 13.68 70.63" /><path class="cls-4" d="M13.5,70.76a.31.31,0,0,0-.09.11h.12Z" /><path class="cls-4" d="M13.88,70.66a1.47,1.47,0,0,1,0,.19,18.64,18.64,0,0,1,5.13.71v-.1l.4.13v.08a27.46,27.46,0,0,1,5.27,2.2v-.12l.4.22v.12a32.21,32.21,0,0,1,4.21,2.76,36.54,36.54,0,0,0-4.17-3h0l-.58-.18a.85.85,0,0,1,.23,0,24.67,24.67,0,0,0-5.07-2.31l-.28.17-.3-.29.06,0a17.86,17.86,0,0,0-4.92-.75l-.22,0Z" /><path class="cls-4" d="M25.12,74.09l-.4-.22a9.49,9.49,0,0,0,.12,1.67l.34.06A13.89,13.89,0,0,1,25.12,74.09Z" /><path class="cls-4" d="M25.12,74l-.4-.22v.12l.4.22Z" /><path class="cls-4" d="M29.19,74.61a6.32,6.32,0,0,0-4.41-1l.38.22A10,10,0,0,1,29.19,74.61Z" /><path class="cls-4" d="M24.55,73.69l.58.18h0l-.38-.22A.85.85,0,0,0,24.55,73.69Z" /><path class="cls-4" d="M19.45,71.67l-.39-.11a13.11,13.11,0,0,0,.2,2.19h0a6.94,6.94,0,0,0,.79,2.29l.21.09A11.31,11.31,0,0,1,19.45,71.67Z" /><path class="cls-4" d="M19.46,71.59l-.4-.13v.1l.39.11Z" /><path class="cls-4" d="M19.71,71.34A11.4,11.4,0,0,1,23.46,70l-.39-.16a10.07,10.07,0,0,0-3.88,1.33C19.36,71.24,19.54,71.28,19.71,71.34Z" /><path class="cls-4" d="M19.13,71.22l.3.29.28-.17c-.17-.06-.35-.1-.52-.15Z" /><path class="cls-4" d="M13.53,70.87c.09.28.18.54.27.79a4.8,4.8,0,0,0,.52.36c-.2-.51-.32-.93-.39-1.17Z" /><path class="cls-4" d="M13.93,70.85a1.47,1.47,0,0,0,0-.19l-.05.06-.14-.08h0a.83.83,0,0,0-.17.12l0,.11Z" /><path class="cls-4" d="M13.88,70.64v0l.17-.17a2.43,2.43,0,0,0-.37.14h.2Z" /><path class="cls-4" d="M13.69,70.64l.14.08.05-.06v0Z" /></g></svg>