<svg xmlns="http://www.w3.org/2000/svg" viewBox="0 0 57.02 59.81" width="57.02" height="59.81" preserveAspectRatio="none"><defs><style>.cls-1{fill:#157258;}.cls-2{fill:#09463d;}.cls-3{fill:#a7c9d1;}.cls-4{fill:#90b0c1;}.cls-5{fill:#daecf2;}</style></defs><g id="trees"><path class="cls-1" d="M28.78,2.05c-1.1,5.17-4,14-11.06,21-2.89,2.88-.82,2.18,1.5,1.3a15.94,15.94,0,0,0,4.34-2.62s-.77,3.76-5,10.62c-2,3.22-6.4,7.23-3.46,6a22.43,22.43,0,0,0,5.13-2.92s-3.46,9.11-15,16.83c-2.85,1.91.86,1.45,3.07,1a48.22,48.22,0,0,0,6.36-2.06,12.66,12.66,0,0,1-2.78,2.88c-3.27,2.83-.16,2.23,2,1.64a37.36,37.36,0,0,0,8.27-3.19,15.46,15.46,0,0,0,1.08,2.24c.83,1.43,2,2,2.66-.16a9.1,9.1,0,0,1,1.31-3.16s1,2.33,4.9,4c1.63.71,6.32,1.85,5-.06S35.26,52.82,35.12,51a18,18,0,0,0,6,3.1c4,1.19,7.87,1.19,5.9-.18s-2.56-2-3.1-3.16c0,0,2.7,1.1,9.78,1.91,2.62.29,1.32-.88-.9-2s-8.28-4.23-12.51-9a34.58,34.58,0,0,0,4.83,2c2.1.62,1.13-.54-2-4.17C40.44,36.31,35.65,29.33,35.53,27c0,0,1.65.67,2.06.81,6.11,2.1,4,.37.62-3.95C31.76,15.57,32,9.7,30.3,3.58,29.59,1,29.42-.92,28.78,2.05Z" /><path class="cls-2" d="M21,40.93s-7.74,9.19-.59,3.76c0,0-4.89,12.92,4.07.18,0,0,3.53,9.29,3.11.05,0,0,7.85,12.3,4.74,2.55,0,0,5.94,5.22,1.11-4.07,0,0,5.39,7.46,3.95,1.33,0,0,1.37,5.59-4.45-2.11,0,0,4.31,8.94-.85,4.48,0,0,3.25,9.34-4.82-3.15,0,0,1,9.65-2.79.37,0,0-8.48,12.86-3.67,0C20.79,44.27,14.43,49.38,21,40.93Z" /><path class="cls-2" d="M35.53,27A13.86,13.86,0,0,1,32.7,24.4s3.59,7.8.07,3.62c0,0-.27,8.7-2.23-2.05,0,0-2.52,7.91-2.93.68,0,0-2.8,5.25-.93-1.88,0,0-3.46,4.29,0-2.53,0,0-3.14,5.87.18,2.32,0,0-1.82,5.82.84,1.82,0,0,.16,7.21,2.89-1,0,0,1.59,10.09,2.09,2.23,0,0,3.07,4.45-.31-3.86A18.64,18.64,0,0,0,35.53,27Z" /><path class="cls-3" d="M12.82,48c-.48.13-8.33,2.3-11.23,4.11s-2.18,4,5.07,3.26c0,0-4.82,5.55,6.16,2.9,0,0,5.8-1.1,7-1.82,0,0,6.4,6.89,8.21.86,0,0,22.93,3.26,13.89-1.45,0,0,13.45,1.24,7.73-2,0,0,17,0-.72-5.28Z" /><path class="cls-4" d="M20.23,35.47S17,40.25,15.8,42c-.89,1.34,9.08,2.17,11.69-.49s17.07,2.92,16,3.21-3.17-3-3.17-3,5.93,2.89,6.18,2.26c.53-1.36-3.32-4.42-5.42-7.09C39.72,35.13,20.23,35.47,20.23,35.47Z" /><path class="cls-5" d="M17.52,39.45S10.23,47.59,6.33,50.06c0,0-3.36,3,3.25,2.14s7.78-1.63,7.78-1.63.38,6.16,3.54,4.16c0,0,4.65,5.6,5.26,1.75a15.05,15.05,0,0,0-.33-2S39,59.66,40.23,56.78c0,0,.28-1.1-1.5-2.21,0,0,10,1.94,9.36.22s-1.71-2-1.71-2,6.09.61,7.36-.17c1-.61,3.16-1.87-4.37-4.87,0,0-6.54-3.16-9.06-6.08,0,0-.3,3.06-2.13-.45,0,0-3.21,1.1-4.43-4.66,0,0-1.94,6-4.32,3.16,0,0-6.48,4.26-5.48-.28C24,39.45,13.7,45.43,17.52,39.45Z" /><path class="cls-5" d="M29.68.12S28.59-.71,28.37,2s-4.9,11.68-5.66,13.37c0,0-1.48,3.18,2.72.6,0,0,2.52-1.44,2.76-2.28,0,0,2.1,5.15,3.41,3.71l1-1.13h0s1.92,3,2.46,2.05c0,0,.84.95-1.2-2.89S30.45,4,30.34,2,29.68.12,29.68.12Z" /><path class="cls-5" d="M21.38,18.81s-2.31,2.86-3.66,4.26c-2,2.06-2.23,3,0,2.24a13.7,13.7,0,0,0,4.07-2.24c.66-.45,1.82-1.32,1.82-1.32s-1.46,3.95-1.74,4.63,1.78-.66,2.56-1.68c0,0,.43,2.92,3.11.37,0,0,1.21,2.36,2.65.52,0,0,5.19,4,4.15.45,0,0,2.53,2,4.27,2.11,0,0,2.91,1.09,2.9.12S37.94,23.69,36.19,21c0,0-.79-1.29-.94-1.55s-1.19,2.29-2.93.13c0,0-2.21,1.59-3.46-1.8,0,0-2.41,2.88-4.15,1.26,0,0-1.65.61-1.5-.77C23.21,18.3,21.24,19.76,21.38,18.81Z" /><path class="cls-5" d="M20.61,28.82s-5.19,7.65-6.36,8.61-1.43,2,.85,1a57.76,57.76,0,0,0,5.13-2.92s-1.77,3,1.27,2a9,9,0,0,0,3.65-2s3.38,2.86,6,2,1.5-1.5,1.5-1.5-.21,2.73,2.89,2.63,2.87-1.13,2.87-1.13,5.74,3.4,4.21,1.41a69.93,69.93,0,0,1-5.56-8.1s-1.25,2.4-4.32-1.92c0,0,.79,2.4-1.59,1.92a3,3,0,0,1-2.63-2.22,3.84,3.84,0,0,1-3.36,1.23c-2.15-.27-.82-1.23-.82-1.23s-1.79,2.35-2.83,2.26S20.61,28.82,20.61,28.82Z" /></g></svg>