		<svg xmlns="http://www.w3.org/2000/svg" viewBox="0 0 268 276" width="268" height="276" preserveAspectRatio="none"><defs><style>.cls-1{fill:#dead88;}.cls-2{fill:#ffe1c6;}.cls-3{fill:#bfcdff;}.cls-4{fill:#e8f8ff;}.cls-5{fill:#7e3e21;}.cls-6{fill:#b37c59;}.cls-7{fill:#7a645d;}.cls-8{fill:#ed1941;}.cls-9{fill:#f3f3f3;}.cls-10{fill:#8b172c;}.cls-11{fill:#b9b9b9;}.cls-12{fill:#d49839;}.cls-13{fill:#aa5b2b;}.cls-14{fill:#662614;}.cls-15{fill:#a65928;}.cls-16{fill:#156a44;}.cls-17{fill:#ed8483;}.cls-18{fill:#09463d;}.cls-19{fill:#0b8855;}.cls-20{fill:#d4dbf4;}.cls-21{fill:#e7e9f2;}.cls-22{fill:none;}.cls-23{fill:#f3f5ff;}</style></defs><g id="theater"><polygon class="cls-1" points="177.84 29.73 139.01 15.59 105.43 27.55 104.27 27.52 104.24 27.97 102.22 28.69 104.2 28.72 103.8 36.15 172.78 37.19 172.51 29.66 177.84 29.73" /><polygon class="cls-1" points="20.07 40.99 29.07 271.56 242.17 272.83 253.83 40.55 20.07 40.99" /><polygon class="cls-2" points="173.4 55.53 173.24 34.24 137.36 22.56 102.84 33.74 104.04 53.07 44.52 52.98 45.87 238.68 226.73 235.63 233.44 55.77 173.4 55.53" /><polygon class="cls-3" points="54.99 81.63 54.9 128.14 79.5 126.93 81.54 81.23 54.99 81.63" /><polygon class="cls-4" points="55.79 83.83 80.98 98.75 80.66 100.76 55.5 87.37 55.79 83.83" /><polygon class="cls-4" points="56 89.72 79.96 101.77 80.07 102.68 55.85 91 56 89.72" /><polygon class="cls-4" points="55.47 108.08 79.8 121.03 79.43 124.86 55.61 114.8 55.47 108.08" /><polygon class="cls-4" points="72.83 126.63 54.98 119.99 55.38 121.44 71.84 126.92 72.83 126.63" /><path class="cls-5" d="M52.8,80l.8,49.55,28.25-1.64.93-48.51ZM80,93.21l-11.07-.08-.41-10.35,11.93-.18ZM56.27,95l10.84,0,.57,9.94-11.43.36Zm13.11,9.9L69,95.05l10.93,0-.4,9.53Zm-3-22.11L67,93.12l-10.73-.07V83ZM56.23,127.13l0-19.63,23.13.59L78.63,126Z" /><polygon class="cls-6" points="49.64 80.34 68.43 67.54 86 79.88 49.64 80.34" /><polygon class="cls-3" points="196.84 77.06 194.5 125.9 222.82 125.84 224.19 77.12 196.84 77.06" /><polygon class="cls-4" points="197.22 78.36 223.47 93.63 223.42 95.97 196.91 82.31 197.22 78.36" /><polygon class="cls-4" points="196.98 84.02 223.35 97.35 222.94 97.55 196.81 84.9 196.98 84.02" /><polygon class="cls-4" points="196.41 103.48 222.95 120.03 222.63 124.06 195.06 110.95 196.41 103.48" /><polygon class="cls-4" points="195.32 118.1 210.25 125.98 209.2 126.11 195.57 119.48 195.32 118.1" /><path class="cls-5" d="M194.37,75.43l-1.51,51.3,31.51,1.48,1.06-52.56Zm28.33,25.82-12.12.12.15-10.71L223,90.35ZM197.11,91l12.11-.3-.62,10.69-12,.12ZM223,88.91,210.75,89,210.91,78l12.42,0ZM210,78l-.64,11.1-12.13.12.53-11.25Zm-14.42,46.72,1-20.32h26.12l-.55,20.28Z" /><polygon class="cls-6" points="191.83 76.1 228.64 76.15 211.31 66.5 191.83 76.1" /><polygon class="cls-1" points="88.23 11.64 89.44 152.48 103.41 149.62 104.65 12.23 88.23 11.64" /><polygon class="cls-1" points="171.18 10.88 173.27 149.85 186.81 153.63 187.1 10.48 171.18 10.88" /><polygon class="cls-7" points="97.05 69.78 64.33 137.64 68.56 136.34 97.79 71.05 97.05 69.78" /><polygon class="cls-7" points="177.98 68.31 207.29 139.9 211.07 141.22 179.42 68.94 177.98 68.31" /><polygon class="cls-7" points="95.19 67.1 94.81 73.98 98.84 74.64 98.46 66.61 95.19 67.1" /><polygon class="cls-7" points="177.33 65.44 177.48 72.7 181.28 72.53 181.03 64.49 177.33 65.44" /><polygon class="cls-8" points="45.13 141.68 137.61 118.77 230.36 139.99 228.44 190.59 45.48 194.54 45.13 141.68" /><polygon class="cls-9" points="49.94 143.82 130.51 127.34 128.9 177.06 48.99 186.41 49.94 143.82" /><polygon class="cls-9" points="144.4 126.32 145.13 175.75 223.26 183.68 223.11 144.15 144.4 126.32" /><polygon class="cls-10" points="85.15 5.75 85.74 14.76 107.16 14.17 107 5.93 85.15 5.75" /><polygon class="cls-10" points="167.91 3.87 168.07 11.94 188.64 12.99 188.61 5.21 167.91 3.87" /><polygon class="cls-10" points="103.03 24.25 138.94 11.63 173.13 25.75 173.25 28.74 138.32 16.21 103.49 28.55 103.03 24.25" /><polygon class="cls-10" points="15.52 35.26 92.5 37.23 93.08 45.24 16.59 46.16 15.52 35.26" /><polygon class="cls-10" points="182.64 35.91 182.86 46.53 258.38 48.85 258.61 37.58 182.64 35.91" /><polygon class="cls-8" points="26.43 46.01 27.75 36.62 29.72 45.99 26.43 46.01" /><polygon class="cls-8" points="49.36 37.15 47.74 45.77 51.07 45.76 49.36 37.15" /><polygon class="cls-8" points="71.68 37.99 70.8 45.52 73.21 45.47 71.68 37.99" /><polygon class="cls-1" points="41.06 58.52 93.75 58.1 93.41 60.89 41.62 60.09 41.06 58.52" /><polygon class="cls-1" points="104.11 41.52 137.2 28.53 173.79 39.04 173.57 41.03 137.24 30.49 103.51 44.44 104.11 41.52" /><polygon class="cls-1" points="185.47 61.26 235.67 61.82 235.58 63.67 185.64 62.97 185.47 61.26" /><polygon class="cls-3" points="117.57 54.77 116.67 109.58 161.26 111.15 160.89 55.28 117.57 54.77" /><polygon class="cls-4" points="117.86 56.45 160.54 75.29 160.6 78.13 117.89 60.8 117.86 56.45" /><polygon class="cls-4" points="117.92 62.25 160.71 80.44 160.27 81.78 159.11 81.63 117.99 62.88 117.92 62.25" /><polygon class="cls-4" points="117.62 84.5 161.21 105.46 160.75 108.37 117.46 90.65 117.62 84.5" /><polygon class="cls-4" points="131.22 83.42 160.62 93.31 160.6 92.2 135.56 83.21 131.22 83.42" /><polygon class="cls-4" points="116.74 98.2 143.61 108.89 142.7 109.66 117.24 100.16 116.74 98.2" /><path class="cls-5" d="M115.6,53.11l-1.75,58.42,49.31.76-.89-58.07Zm2.85,15.45,7.89,0,0,11.75-8-.18Zm32,12.31-10.15-.23-.1-12,10.36,0Zm1.27-12.15,8.24,0,.08,12.32-8.25-.18ZM140.2,67.18l-.09-11.39,10.59.12-.11,11.44Zm-2.85-.05L127.66,67l.11-11.32,10,.12Zm-.07,1.52-.49,11.92-9.26-.21.11-11.76ZM118.2,84.23l8.07,0,0,11.54L118,95.73Zm9.29,0,9.14,0-.48,11.58-8.77-.08Zm8.6,13.15-.45,10.86-8.38-.29.11-10.73Zm4.36.08,9.84.19-.1,11.1-9.65-.34Zm0-1.58-.1-11.59,10.08,0L150.31,96Zm11.38-11.54,8.25,0,.08,11.68L151.88,96ZM160,67.51l-8.23-.14-.06-11.44,8.22.09ZM126.4,55.63l-.05,11.31-7.87-.13.19-11.27ZM118,97.09l8.23.15,0,10.71-8.36-.3Zm34,11.77-.06-11.14,8.27.15.07,11.28Z" /><polygon class="cls-6" points="108.59 53.92 138.23 37.53 168.95 54.55 108.59 53.92" /><polygon class="cls-2" points="116.15 52.34 138.97 40.97 161.21 51.91 116.15 52.34" /><polygon class="cls-8" points="245.57 48.45 244.24 39.19 242.13 48.35 245.57 48.45" /><polygon class="cls-8" points="222.64 39.33 224.21 47.8 220.84 47.7 222.64 39.33" /><polygon class="cls-8" points="200.38 39.82 201.21 47.09 198.78 47.01 200.38 39.82" /><polygon class="cls-10" points="45.45 191.78 138.63 180.79 228.58 187.37 228.44 190.59 45.48 194.54 45.45 191.78" /><polygon class="cls-8" points="91.64 6.89 90 14.64 93.34 14.62 91.64 6.89" /><polygon class="cls-8" points="102.1 6.85 101.22 14.38 103.63 14.33 102.1 6.85" /><polygon class="cls-8" points="173.55 5.03 171.38 12.12 174.71 12.33 173.55 5.03" /><polygon class="cls-8" points="183.96 5.82 182.57 12.69 184.98 12.82 183.96 5.82" /><polygon class="cls-11" points="49.77 150.09 130.32 132.92 130.32 133.69 49.8 150.47 49.77 150.09" /><polygon class="cls-11" points="49.59 158 130.05 141.23 130.07 142.03 49.58 158.46 49.59 158" /><polygon class="cls-11" points="49.41 166.04 129.76 150.41 129.75 151.22 49.42 166.64 49.41 166.04" /><polygon class="cls-11" points="49.29 174.26 129.5 159.99 129.5 160.79 49.3 174.68 49.29 174.26" /><polygon class="cls-11" points="49.09 182.19 129.15 169.58 129.14 170.38 49.04 182.7 49.09 182.19" /><polygon class="cls-11" points="223.1 148.45 144.47 131.51 144.49 132.27 223.14 148.8 223.1 148.45" /><polygon class="cls-11" points="223.13 156.35 144.6 139.78 144.61 140.54 223.17 156.76 223.13 156.35" /><polygon class="cls-11" points="223.17 164.19 144.73 148.84 144.75 149.57 223.2 164.73 223.17 164.19" /><polygon class="cls-11" points="223.22 172.53 144.87 158.41 144.88 159.14 223.21 172.82 223.22 172.53" /><polygon class="cls-11" points="223.23 180.45 144.99 167.97 145.02 168.74 223.27 180.81 223.23 180.45" /><polygon class="cls-5" points="219.49 272.69 221.12 214.46 167.01 213.85 167.51 272.44 219.49 272.69" /><polygon class="cls-3" points="173.14 218.14 174.26 266.09 192.97 266.23 193.13 218.56 173.14 218.14" /><polygon class="cls-3" points="195.44 218.63 196.09 266.64 212.65 266.93 212.98 219.2 195.44 218.63" /><polygon class="cls-4" points="174.59 221.51 212.07 242.39 212.14 245.33 174.72 227.48 174.59 221.51" /><polygon class="cls-4" points="211.79 248.68 174.32 229.87 174.72 232.39 212 249.94 211.79 248.68" /><polygon class="cls-4" points="174.72 250.31 208.44 265.88 206.13 266.02 174.85 252.56 174.72 250.31" /><path class="cls-5" d="M219,212.19l-48.85-1.29s8.79-13.5,24.42-13.07C194.53,197.83,212.15,197.22,219,212.19Z" /><path class="cls-12" d="M215,216.54l-43.67-.62.88,56.54,43,.22Zm-3.39,3.5-.17,27.1-14.52.05-.34-27.69Zm-19.48,30v3.76l-16.7.11-.09-4Zm-16.81-.59,0-1.58h16.85v1.55ZM197,250l14.46.07,0,3.53-14.4.1Zm14.47-.68-14.48,0,0-1.54h14.51Zm-19.2-30.13-.09,28-16.86,0-.6-28.44Zm-16.57,46-.22-10.42,16.68-.2,0,10.76Zm21.48.14L197,254.5l14.39-.17-.07,11.25Z" /><polygon class="cls-13" points="193.65 216.23 194.36 272.59 194.72 272.59 194.42 216.22 193.65 216.23" /><path class="cls-8" d="M214.79,210.41l-38.68-1s7-10.06,19.34-9.74C195.45,199.71,209.5,199.81,214.79,210.41Z" /><path class="cls-12" d="M178.22,207l8.24,2.7-6.12-4.61A20.84,20.84,0,0,0,178.22,207Z" /><path class="cls-12" d="M193.09,199.77l1.6,10.15,2.12-10.14A23.69,23.69,0,0,0,193.09,199.77Z" /><path class="cls-12" d="M188.37,200.69l2.4,9.15L185.1,202A21.85,21.85,0,0,1,188.37,200.69Z" /><path class="cls-12" d="M202.59,200.92,198.76,210l6.71-8A21.36,21.36,0,0,0,202.59,200.92Z" /><path class="cls-12" d="M209.15,204l-5.5,6.14,7.53-4.51A16,16,0,0,0,209.15,204Z" /><polygon class="cls-5" points="112.86 262.17 157.96 262.91 158.84 214.22 111.32 213.72 112.86 262.17" /><path class="cls-5" d="M158,211.32l-46.13-.71S120,197,134.77,197.25C134.77,197.25,151.52,197.18,158,211.32Z" /><polygon class="cls-3" points="114.14 217.94 124.03 217.94 123.94 247.67 116.38 247.5 114.14 217.94" /><polygon class="cls-3" points="124.85 218.34 124.36 247.7 147.38 247.87 146.06 218.85 124.85 218.34" /><polygon class="cls-3" points="147.05 218.51 155.01 218.34 154.27 247.87 147.92 247.7 147.05 218.51" /><polygon class="cls-4" points="114.27 219.27 154.68 237.25 154.42 239.11 114.34 223.18 114.27 219.27" /><polygon class="cls-4" points="114.8 224.78 154.35 240.3 154.28 241.63 114.74 225.97 114.8 224.78" /><polygon class="cls-4" points="115.47 234.46 153.75 247.27 151.83 247.2 115.73 236.25 115.47 234.46" /><path class="cls-12" d="M113.57,217.3l1.08,33.21,40.58.4,1-33.56Zm9.65,29.64-6.61-.17-2-28.23h8.64Zm1.65,0,.47-28.08,20.25.49,1.27,27.75Zm29,.16-5.38-.16-.74-27.59,6.76-.16Z" /><path class="cls-13" d="M142.17,250.79l0-.22a1.92,1.92,0,0,0-1.43-1.93l-10-.26a1.78,1.78,0,0,0-1.47,1.85,2,2,0,0,0,0,.43Z" /><path class="cls-12" d="M138.09,240.85a2.39,2.39,0,0,1-2.44,2.18,2.42,2.42,0,0,1,0-4.84A2.57,2.57,0,0,1,138.09,240.85Z" /><polygon class="cls-13" points="135.57 238.66 135.61 242.56 135.89 242.54 135.83 238.67 135.57 238.66" /><polygon class="cls-13" points="134.88 238.94 134.97 242.34 134.74 242.23 134.68 239.02 134.88 238.94" /><polygon class="cls-13" points="134.13 239.46 134.1 241.88 133.95 241.78 133.99 239.56 134.13 239.46" /><polygon class="cls-13" points="136.44 238.86 136.54 242.42 136.74 242.28 136.57 238.96 136.44 238.86" /><polygon class="cls-13" points="137.24 239.51 137.19 241.83 137.37 241.56 137.37 239.62 137.24 239.51" /><path class="cls-8" d="M151,209.6l-33.4-.51s5.91-9.85,16.6-9.68C134.21,199.41,146.34,199.36,151,209.6Z" /><path class="cls-12" d="M119.5,206.57l6.88,2.65-4.94-4.62A21.55,21.55,0,0,0,119.5,206.57Z" /><path class="cls-12" d="M132.58,199.47l1.22,9.86,2-9.82A15.22,15.22,0,0,0,132.58,199.47Z" /><path class="cls-12" d="M128.45,200.32l1.82,9-4.68-7.69A17.28,17.28,0,0,1,128.45,200.32Z" /><path class="cls-12" d="M140.81,200.64l-3.26,8.74,5.66-7.72A16.11,16.11,0,0,0,140.81,200.64Z" /><path class="cls-12" d="M146.51,203.78,142,209.46l6.13-4.21A14.22,14.22,0,0,0,146.51,203.78Z" /><polygon class="cls-14" points="114.88 260.77 114.63 252.66 123.5 252.66 123.62 260.77 122.94 260.52 122.64 253.37 115.96 253.6 115.37 260.33 114.88 260.77" /><polygon class="cls-14" points="126.92 252.84 126.63 260.58 127.21 260.33 127.39 253.46 143.84 253.72 144.28 260.02 144.8 260.46 144.8 252.78 126.92 252.84" /><polygon class="cls-14" points="147.65 252.84 147.85 260.46 148.33 260.15 148.41 253.96 156.19 253.77 155.51 260.02 156.46 260.52 156.67 252.97 147.65 252.84" /><polygon class="cls-15" points="114.88 260.77 115.37 260.33 122.94 260.52 123.62 260.77 114.88 260.77" /><polygon class="cls-15" points="126.63 260.58 144.8 260.46 144.28 260.02 127.21 260.33 126.63 260.58" /><polygon class="cls-15" points="148.33 260.15 155.51 260.02 156.46 260.52 147.85 260.46 148.33 260.15" /><polygon class="cls-5" points="54.34 271.7 52.92 214.46 104.37 213.85 103.83 272.05 54.34 271.7" /><polygon class="cls-3" points="59.55 217.97 76.16 217.77 76.83 265.4 61.18 265.98 59.55 217.97" /><polygon class="cls-3" points="78.83 217.87 79.26 266.65 96.45 266.65 95.92 218.17 78.83 217.87" /><polygon class="cls-4" points="59.7 221.51 96.33 242.21 96.61 245.93 60.26 228.01 59.7 221.51" /><polygon class="cls-4" points="60.07 230 96.16 248.47 96.16 250.6 59.79 232.13 60.07 230" /><polygon class="cls-4" points="60.7 250.44 91.66 265.72 87.67 265.58 61.11 252.54 60.7 250.44" /><path class="cls-5" d="M54.1,212.19l47.12-1.29s-8.48-13.5-23.56-13.07C77.66,197.83,60.54,198,54.1,212.19Z" /><path class="cls-12" d="M99,216.31l-41.82.23L59,271.73l40.53.31Zm-4.09,3.4.28,27.43-15,.06-.23-27.77ZM61.33,247.83H75.67l0,1.55-14.31,0ZM75.69,250l0,3.78-14.21.1-.13-4Zm4.45,0,15.06.08,0,3.53-15.06.11Zm15-.67-15,0,0-1.54h15Zm-19.9-30,.37,27.88-14.34,0-.89-27.74Zm-13.4,45.86-.33-10.44,14.19-.18.14,10.07Zm18.37-.27-.08-10.4,15.06-.2.11,10.6Z" /><polygon class="cls-13" points="76.96 216.42 77.47 271.87 77.85 271.87 77.61 216.41 76.96 216.42" /><path class="cls-8" d="M60,210.52l35.92-.94s-6.46-9.86-18-9.55C77.93,200,64.88,200.13,60,210.52Z" /><path class="cls-12" d="M61.72,207.63l7.65,2.68-5.8-4.74A11.14,11.14,0,0,0,61.72,207.63Z" /><path class="cls-12" d="M75.4,200.26,77,210.1,78.88,200A20.77,20.77,0,0,0,75.4,200.26Z" /><path class="cls-12" d="M71.08,201.28l2.22,8.87-5.25-7.63A17.59,17.59,0,0,1,71.08,201.28Z" /><path class="cls-12" d="M84.34,200.94,81,210,87,202A25.23,25.23,0,0,0,84.34,200.94Z" /><path class="cls-12" d="M90.45,204.08l-4.59,5.74,6.34-4.3A15.59,15.59,0,0,0,90.45,204.08Z" /><polygon class="cls-1" points="153.86 199.74 153.76 195.79 160.43 195.93 160.53 199.56 153.86 199.74" /><polygon class="cls-2" points="223.91 239.92 224.02 243.86 230.69 243.92 230.6 240.29 223.91 239.92" /><polygon class="cls-2" points="227.69 245.05 227.79 249 234.46 249.05 234.37 245.43 227.69 245.05" /><polygon class="cls-1" points="158.31 204.95 158.2 201.01 164.88 201.15 164.97 204.78 158.31 204.95" /><polygon class="cls-2" points="25.42 108.31 25.52 112.26 32.2 112.31 32.11 108.69 25.42 108.31" /><polygon class="cls-2" points="29.19 113.45 29.3 117.39 35.97 117.45 35.88 113.82 29.19 113.45" /><polygon class="cls-2" points="34.02 108.31 34.12 112.26 40.8 112.31 40.7 108.69 34.02 108.31" /><polygon class="cls-1" points="106.41 116.63 106.31 112.69 112.98 112.83 113.08 116.46 106.41 116.63" /><polygon class="cls-1" points="110.85 121.85 110.75 117.91 117.43 118.05 117.52 121.68 110.85 121.85" /><polygon class="cls-1" points="104.2 201.16 104.09 197.21 110.77 197.35 110.86 200.98 104.2 201.16" /><polygon class="cls-2" points="141.4 265.33 141.5 269.28 148.18 269.34 148.09 265.71 141.4 265.33" /><polygon class="cls-2" points="149.55 265.67 149.66 269.61 156.33 269.67 156.24 266.04 149.55 265.67" /><polygon class="cls-2" points="236.63 67.68 236.73 71.62 243.4 71.68 243.31 68.05 236.63 67.68" /><polygon class="cls-1" points="220.25 135.11 220.14 131.16 226.82 131.31 226.91 134.93 220.25 135.11" /><polygon class="cls-2" points="178.26 101.02 178.37 104.96 185.04 105.02 184.95 101.39 178.26 101.02" /><polygon class="cls-2" points="34.69 245.54 34.79 249.48 41.47 249.54 41.38 245.91 34.69 245.54" /><polygon class="cls-2" points="43.47 245.86 43.58 249.8 50.25 249.86 50.16 246.23 43.47 245.86" /><polygon class="cls-2" points="38.03 261.59 38.13 265.54 44.81 265.59 44.72 261.97 38.03 261.59" /><path class="cls-16" d="M18.74,264.12,18.17,262S1.34,256.5,14,254.34c0,0-11.63-21.5-1.59-15.46,0,0-7-34,2.62-19.1,0,0-.46-24.68,5.91-16.49,0,0,2.73-22.4,6.93,11.48,0,0,8.42-17.51,3.87,13.19,0,0,13-14.44,3.52,16.72,0,0,16-8.76-.56,10.8,0,0,14-1.94-2.28,6.48l-.45,2.27Z" /><polygon class="cls-8" points="16.07 262.22 34.92 261.94 34.65 265.92 33.05 265.94 32.92 274.81 18.82 274.93 18.07 266.37 16.32 266.42 16.07 262.22" /><polygon class="cls-10" points="18.07 266.36 33.05 265.94 32.99 267.36 18.18 267.66 18.07 266.36" /><polygon class="cls-17" points="16.07 262.22 34.92 261.94 34.88 262.5 16.09 262.58 16.07 262.22" /><path class="cls-18" d="M19.07,258.68s-.41-5.31,2.88-1c0,0-1.67-14.1,4.17-5,0,0,2.73-6.7,5.25-6.93,2.22-.21,3.94,2-1,11.9,0,0,3.8-10,2.12-11.1-1.15-.78-3.47-.78-6.29,7.41,0,0-4.56-10.68-4,4.77C22.22,258.68,19.13,254,19.07,258.68Z" /><path class="cls-18" d="M14.55,237.09s-2.46-18.78,4.18-8.29c0,0,2.35-22.33,8,5.6,0,0,4-5.41,4,4.87,0,0-.4-9.32-4.29-3.87,0,0-4.5-26.88-7.46-5.81C18.92,229.59,13.26,219.28,14.55,237.09Z" /><path class="cls-19" d="M22.07,214.1a4.79,4.79,0,0,1-.23,3.68s-2.29-.51-3.08-2.11S19,212,19,212,21.29,212.5,22.07,214.1Z" /><path class="cls-19" d="M25.88,218.06a3.3,3.3,0,0,1-2.45.28,3.17,3.17,0,0,1,1-2.22,3.28,3.28,0,0,1,2.45-.27A3.2,3.2,0,0,1,25.88,218.06Z" /><path class="cls-19" d="M20.29,233.72a4.83,4.83,0,0,0-.91,3.58s2.34.21,3.58-1.08.91-3.58.91-3.58S21.53,232.44,20.29,233.72Z" /><path class="cls-19" d="M25,244.52a4.75,4.75,0,0,0,3.07,1.53,4.82,4.82,0,0,0-.61-3.4,4.68,4.68,0,0,0-3.07-1.53A4.88,4.88,0,0,0,25,244.52Z" /><path class="cls-19" d="M16.59,236.17a3.28,3.28,0,0,0,2.24,1,3.17,3.17,0,0,0-.28-2.42,3.25,3.25,0,0,0-2.24-1A3.15,3.15,0,0,0,16.59,236.17Z" /><path class="cls-16" d="M238.08,263.74l-.71-2.39s-12.81-5.79-12-10.82c0,0,.4-2.61,8.24-1.91,0,0-9.65-16.59-3.32-18.8a4.72,4.72,0,0,1,4.93,1.4s-8.85-28.76,3.52-20.71c0,0,.63-16.4,4.33-16.8,2.35-.25,3.4,1.63,5.33,11.77,0,0,1.39-4.79,3.47-4.37,1.9.38,6.58,5.47,1.45,22.67,0,0,9.56-6.94,1.11,13,0,0,10-10.16,2.21,11,0,0,15.53-4.31-.77,8.56,0,0,5.95,2.56-5,5.74l-.31,1.59Z" /><polygon class="cls-8" points="236.5 261.38 253.5 261.61 253.8 265.15 252.45 265.14 252.13 274.11 238.79 274.35 237.88 265.05 236.4 265.08 236.5 261.38" /><polygon class="cls-10" points="252.45 265.14 237.88 265.05 238.01 266.44 252.35 267.09 252.45 265.14" /><polygon class="cls-17" points="236.5 261.38 253.5 261.54 253.54 262.05 236.49 262.01 236.5 261.38" /><path class="cls-18" d="M235.05,250s-1.33-8-.3-10,4-1.05,5.18,5.1c0,0,4.58-8.39,5.09,5.65,0,0,2.8-3.76,4.53,1.12,0,0-1.48-3.81-5-.61,0,0,.51-13.38-4.68-5.55,0,0-1.62-5.87-3.61-5.94C235.25,239.7,234.13,240.76,235.05,250Z" /><path class="cls-18" d="M253.43,228.59s1.88-3.56-2.65-2.6c0,0,1.78-11.09-2.24-11.14,0,0-3.91-1-3.71,12.21,0,0-4.63-9.05-4.68,7.43,0,0,.56-14.8,4.88-6.51,0,0,.77-12.31,3.41-12,0,0,2.9-.91,2,10.74C250.48,226.76,253.73,224.42,253.43,228.59Z" /><path class="cls-19" d="M249.26,232.83a3.85,3.85,0,0,0-.69,2.85,4,4,0,0,0,2.83-.88,3.85,3.85,0,0,0,.69-2.85A4,4,0,0,0,249.26,232.83Z" /><path class="cls-19" d="M245.44,235a2.61,2.61,0,0,0,1.8.78,2.56,2.56,0,0,0-.25-1.92,2.63,2.63,0,0,0-1.79-.78A2.53,2.53,0,0,0,245.44,235Z" /><path class="cls-19" d="M239.47,216.43a3.88,3.88,0,0,1,.64,2.87,4,4,0,0,1-2.81-.94,3.83,3.83,0,0,1-.65-2.86A4,4,0,0,1,239.47,216.43Z" /><path class="cls-19" d="M251.22,257.36a4,4,0,0,1-2.76,1.09,3.83,3.83,0,0,1,.47-2.89,4,4,0,0,1,2.76-1.09A3.88,3.88,0,0,1,251.22,257.36Z" /><path class="cls-19" d="M243.25,218.62a2.59,2.59,0,0,1-1.8.75,2.53,2.53,0,0,1,.27-1.91,2.6,2.6,0,0,1,1.81-.75A2.55,2.55,0,0,1,243.25,218.62Z" /><path class="cls-19" d="M238.14,251a3.94,3.94,0,0,1-.33-2.94,3.82,3.82,0,0,1,2.67,1.21,4,4,0,0,1,.32,2.95A3.82,3.82,0,0,1,238.14,251Z" /><path class="cls-19" d="M17,250.6a4.77,4.77,0,0,0,1.13,3.24A4.84,4.84,0,0,0,20.06,251a4.68,4.68,0,0,0-1.13-3.23A4.89,4.89,0,0,0,17,250.6Z" /><path class="cls-20" d="M20.07,218.34s2.92,9.29,5.49,1.85c0,0,3.6,15.18,6.92,5.85a36.63,36.63,0,0,0,1.14-7c-3,1.13-5.49-6.27-5.49-6.27-2.8,8.14-5.76-2.23-5.76-2.23-2.91,5.4-6.08,1.84-7.89-1.18a54.17,54.17,0,0,0-.17,7.16C15.58,219.34,17.65,222.16,20.07,218.34Z" /><path class="cls-21" d="M33.62,219c.37-4.8,0-9.62-1.58-10-2.44-.56-3.91,3.71-3.91,3.71S30.57,220.15,33.62,219Z" /><path class="cls-21" d="M22.37,210.52s3,10.37,5.76,2.23c0-3-1.68-17.28-4.7-17.28s-3,6.54-3,6.54a3,3,0,0,0-2-1.06c-2.56.41-3.6,4.4-4,8.39C16.29,212.36,19.46,215.92,22.37,210.52Z" /><path class="cls-21" d="M21.62,228.71s3.94,17.66,8.5,7c0,0,2.84,7.76,7.6,3.32,4.77-15.35.36-15.22.36-15.22-3-1.39-5.6,2.21-5.6,2.21-3.32,9.33-6.92-5.85-6.92-5.85-2.57,7.44-5.49-1.85-5.49-1.85-2.42,3.82-4.49,1-5.76-1.84,0,.8.06,1.28.06,1.28-1.88-3.93-3.6-2.54-3.6-2.54-2.45.75-1.81,7.92-.81,14C12.8,233.32,18.53,239.58,21.62,228.71Z" /><path class="cls-20" d="M19,253.94s5.7,9.12,9.46,1c0,0,2,3.39,8.74-.5a8.37,8.37,0,0,0-1.08.17,28.06,28.06,0,0,0,3-2.86c-4,.76-6.13-3.33-6.13-3.33-4.46,12.1-12.48.67-12.48.67-3.39,3.09-6.83,2.33-9.49.72,1.31,2.49,2.49,4.34,2.49,4.34-.15,0-.28,0-.43,0C15.23,255.61,18.1,256.79,19,253.94Z" /><path class="cls-21" d="M41.18,255.67c-.91-1.34-2.81-1.4-4-1.27-6.7,3.89-8.74.5-8.74.5-3.76,8.16-9.46-1-9.46-1-.86,2.85-3.73,1.67-6,.2a6.15,6.15,0,0,0-3.82,1.37c2.09,2,5.78,4.73,8.9,2.94,0,0,7.19,5,12.6.58A11.75,11.75,0,0,0,37,260.08C39.44,258.67,41.94,256.81,41.18,255.67Z" /><path class="cls-20" d="M30.67,259c-5.41,4.46-12.6-.58-12.6-.58-3.12,1.79-6.81-.95-8.9-2.94a2.9,2.9,0,0,0-.34.34c-1.66,3.41,8,6.36,8,6.36s15.93-.46,16.2-.26a18.19,18.19,0,0,0,4-1.87A11.75,11.75,0,0,1,30.67,259Z" /><path class="cls-21" d="M20.42,249.05s8,11.43,12.48-.67c0,0,2.14,4.09,6.13,3.33,4.69-5.28,3.86-9,3.86-9-1.42-1.76-4.45-.51-5.85.2-2.92,2.33-6.65,4.61-8.95,3.46,0,0-2.86-1.51-4.66-6.45,0,0-5.6,6.33-7.25-1a5.12,5.12,0,0,1-4.63-1.19,3.64,3.64,0,0,0-2.66-.44c-3.11,1.38-.33,8,2,12.46C13.59,251.38,17,252.14,20.42,249.05Z" /><path class="cls-20" d="M16.18,238.94c1.65,7.31,7.25,1,7.25,1,1.8,4.94,4.66,6.45,4.66,6.45,2.3,1.15,6-1.13,9-3.46-.45.23-.74.41-.74.41.55-1.55,1-3,1.42-4.27-4.76,4.44-7.6-3.32-7.6-3.32-4.56,10.64-8.5-7-8.5-7-3.09,10.87-8.82,4.61-11.66.51.77,4.63,1.75,8.62,1.75,8.62a1.29,1.29,0,0,0-.16-.09A5.12,5.12,0,0,0,16.18,238.94Z" /><path class="cls-22" d="M257.13,206.86a7.46,7.46,0,0,1-1,.33c.06.47.11,1,.14,1.52A15.28,15.28,0,0,0,257.13,206.86Z" /><path class="cls-21" d="M254.29,222.58a7.13,7.13,0,0,0,2.71-.49A5.68,5.68,0,0,0,254.29,222.58Z" /><path class="cls-20" d="M249.55,253.94c-5.23,8.59-11.89-1.28-11.89-1.28-4.44,5.9-9.63,1.87-12.42-1.14,1,5.91,12,9.84,11.37,9.86l16.89.23A17.93,17.93,0,0,0,258,259a10,10,0,0,1-4.25-1.49,2.63,2.63,0,0,1-2.08-1c-1.18-1.41,0-.17,2.08,1a9.23,9.23,0,0,0,3.61-1.19,4.42,4.42,0,0,0-.54-.14,14.88,14.88,0,0,0,4-3.29C255.71,255.45,249.55,253.94,249.55,253.94Z" /><path class="cls-21" d="M246.22,201.28s1.14,3.77,6.23,5.63a6.4,6.4,0,0,0,3.64.28c-.8-5.89-4-6.5-4-6.5-2.57-.44-3.6,2.29-3.6,2.29-.72-12-4.93-10.13-4.93-10.13-4.26.45-5.35,9.43-5.63,13.93C241.35,210.94,246.22,201.28,246.22,201.28Z" /><path class="cls-21" d="M251.19,246.29a10.1,10.1,0,0,0,8.15-5.17c1.18-4.6.77-6.9-.44-7.3-1.63-.55-3.44,1.48-3.44,1.48C255.26,241.27,253.33,244.52,251.19,246.29Z" /><path class="cls-21" d="M263.71,247.05c-.84-1.08-3.11-.89-4.67-.61a7,7,0,0,1-7.26,3.14l-6.62-1.2c-2.41,8.55-6.78-1.7-6.78-1.7-2.68,2.94-5.8,2.31-8.34.85a8.54,8.54,0,0,0-4.71,1.88,5,5,0,0,0-.09,2.11c2.79,3,8,7,12.42,1.14,0,0,6.66,9.87,11.89,1.28,0,0,6.16,1.51,11.28-1.08C262.85,250.67,264.5,248.07,263.71,247.05Z" /><path class="cls-20" d="M259.34,241.12a10.1,10.1,0,0,1-8.15,5.17c2.14-1.77,4.07-5,4.27-11a43.71,43.71,0,0,0,2.9-7.21c-5.76,10-8,6.29-8,6.29-2.9,19.16-10.18,5.13-10.18,5.13-4,5.62-8.21,3.56-11.14.65a33,33,0,0,0,4.29,7.91,7.12,7.12,0,0,0-3.26-.54c2.54,1.46,5.66,2.09,8.34-.85,0,0,4.37,10.25,6.78,1.7l6.62,1.2a7,7,0,0,0,7.26-3.14c-.9.17-1.57.37-1.57.37A52.24,52.24,0,0,0,259.34,241.12Z" /><path class="cls-21" d="M240.15,239.51s7.28,14,10.18-5.13c0,0,2.27,3.75,8-6.29,1.27-4.5.07-5.79-1.36-6a7.13,7.13,0,0,1-2.71.49s-8.66,17.25-9.13,5.73c0,0-6.47,5.88-11,.84.13.45.22.72.22.72-2.57-3.08-4.71-1.16-4.71-1.16-2.5,3.44-2,7.76-.64,11.45C231.94,243.07,236.13,245.13,240.15,239.51Z" /><path class="cls-21" d="M258,256.56h0c-1.55-1.38-8-2.08-7-.54a5.93,5.93,0,0,0,1.52,1.61h0c1,1.34,4,1.26,5.47,1.34C259.34,257.71,258.74,257,258,256.56Z" /><path class="cls-21" d="M241,220.35s5.23,11.13,7.58.75a4.64,4.64,0,0,0,6,.39,43.23,43.23,0,0,0,1.67-12.78c-3.75,6.4-7.87-.77-7.87-.77-3.32,6.92-7.55,4.08-10.47.57,0,.5,0,.8,0,.8a4.58,4.58,0,0,0-3.52-1.3c-3.53.64-3.32,6.74-2.34,12.33C234.29,223.86,238.36,228.32,241,220.35Z" /><path class="cls-20" d="M245.16,228.31c.47,11.52,9.13-5.73,9.13-5.73.1-.37.18-.73.27-1.09a4.64,4.64,0,0,1-6-.39c-2.35,10.38-7.58-.75-7.58-.75-2.59,8-6.66,3.51-8.93,0a80.25,80.25,0,0,0,2.12,8.81C238.69,234.19,245.16,228.31,245.16,228.31Z" /><path class="cls-20" d="M248.36,207.94s4.12,7.17,7.87.77c0-.55-.08-1.05-.14-1.52a6.4,6.4,0,0,1-3.64-.28c-5.09-1.86-6.23-5.63-6.23-5.63s-4.87,9.66-8.25,5.5c0,.71-.06,1.3-.08,1.73C240.81,212,245,214.86,248.36,207.94Z" /><path class="cls-21" d="M29.09,274.93s.86-2.7,2.52-1.67a2.33,2.33,0,0,1,.74.95s.55-.45,1.46.72Z" /><path class="cls-21" d="M242.59,273.1c-.28-.51-1-1-2.51-1a2,2,0,0,0-2.2,2.28h6.66A1.66,1.66,0,0,0,242.59,273.1Z" /><path class="cls-23" d="M43.61,35.28s.69,2,2.88,0c0,0,3.19.75,5.37-.18-1.38-.87-3.08-.93-3.35-.38A7.61,7.61,0,0,0,45,33.46c-2.27,0-3,.87-3,.87-2.68-2.87-6.2-2.08-8.61-1C35.1,34.94,38.22,36.68,43.61,35.28Z" /><path class="cls-20" d="M51.86,35.1c-2.18.93-5.37.18-5.37.18-2.19,2-2.88,0-2.88,0-5.39,1.4-8.51-.34-10.14-1.93A15.28,15.28,0,0,0,30.73,35c-2.24-1.76-3.24,0-3.24,0a2.22,2.22,0,0,0-2.91.53l3.87.09c1.22,2.33,3.78.66,3.78.66,2.7,3.32,5.94.48,5.94.48s2.07,3.56,5.61,3.2c2.24-.24,4.4-2.29,4.4-3.84l4.89.12A4.15,4.15,0,0,0,51.86,35.1Z" /><path class="cls-23" d="M91.67,3.75s2.63,1.8,4.49,1.17c0,0,3.64.69,6-.81A4.15,4.15,0,0,0,98,4.3c-5.62-6.14-9.74-.62-9.74-.62a3.5,3.5,0,0,0-4.74-.27C84.89,4.91,87.53,6.54,91.67,3.75Z" /><path class="cls-20" d="M102.15,4.11c-2.35,1.5-6,.81-6,.81-1.86.63-4.49-1.17-4.49-1.17-4.14,2.79-6.78,1.16-8.14-.34a2.83,2.83,0,0,0-1.09,2.12,4.21,4.21,0,0,0,1.65,3.55C86.93,11.66,91,5.65,91,5.65c2.53,4.19,5.81.38,5.81.38s7.57,0,7.48-.12A6.49,6.49,0,0,0,102.15,4.11Z" /><path class="cls-23" d="M185,3.9s2.7,2.94,5.76,2.19A2.53,2.53,0,0,0,190.88,5c-.1-1.59-2.76-3.55-4.32-2a3.84,3.84,0,0,0-5.76-.34A3.75,3.75,0,0,0,185,3.9Z" /><path class="cls-20" d="M185,3.9a3.75,3.75,0,0,1-4.18-1.27,7.78,7.78,0,0,0-.8.75s-2.12-1.56-4.19,1c-.06.07,5.31.36,5.31.36s3.14,4.55,4.84,1.79c0,0,.16,1,2.68,1.11a2.77,2.77,0,0,0,2.1-1.55C187.68,6.84,185,3.9,185,3.9Z" /><path class="cls-20" d="M242.35,36.26c-4,1.25-8.91-.16-8.91-.16-5.44,3.41-7.24-1.37-7.24-1.37-1.36,4-5.74,1.25-5.74,1.25a7,7,0,0,1-7.48-1,2.84,2.84,0,0,0-.45.7c-1.8-1.57-3.28.67-3.31.87l3.2,0c1.38,3.77,4.73,1.18,4.73,1.18,3.07,5.37,7.52.77,7.52.77s7,4.35,11,3.76c2.54-.38.79-2.94.14-5.05l7.21.05A4.24,4.24,0,0,0,242.35,36.26Z" /><path class="cls-23" d="M220.46,36s4.38,2.7,5.74-1.25c0,0,1.8,4.78,7.24,1.37,0,0,4.88,1.41,8.91.16-1.91-2.09-5.55-2.1-5.91-1,0,0-2.12-2-3.95-2-2.58,0-3.37,1.4-3.37,1.4-5.11-7.78-12.9,1.06-12.9,1.06-1.64-1.82-2.69-1.31-3.24-.7A7,7,0,0,0,220.46,36Z" /></g></svg>