<svg xmlns="http://www.w3.org/2000/svg" viewBox="0 0 75.02 52.68" width="75.02" height="52.68" preserveAspectRatio="none"><defs><style>.cls-1{fill:#157258;}.cls-2{fill:#09463d;}.cls-3{fill:#daecf2;}.cls-4{fill:#a7c9d1;}.cls-5{fill:#90b0c1;}</style></defs><g id="trees"><path class="cls-1" d="M21.55,5.63a29.32,29.32,0,0,1-7.62,14.48c-2,2-.56,1.51,1,.9a10.86,10.86,0,0,0,3-1.81s-.54,2.6-3.45,7.32c-1.37,2.22-4.41,5-2.38,4.15a15.67,15.67,0,0,0,3.53-2s-2.38,6.28-10.35,11.6c-2,1.31.59,1,2.12.69a34.31,34.31,0,0,0,4.38-1.42,8.72,8.72,0,0,1-1.92,2c-2.25,2-.11,1.54,1.35,1.13a25.51,25.51,0,0,0,5.7-2.2A11.9,11.9,0,0,0,17.68,42c.58,1,1.39,1.38,1.84-.11a6.64,6.64,0,0,1,.9-2.18,6.35,6.35,0,0,0,3.38,2.76c1.12.48,4.35,1.27,3.44-.05a5.1,5.1,0,0,1-1.31-3.08,12.18,12.18,0,0,0,4.14,2.14c2.73.82,5.42.82,4.07-.13A5.15,5.15,0,0,1,32,39.17a28.82,28.82,0,0,0,6.74,1.31c1.8.21.91-.6-.62-1.35a29.79,29.79,0,0,1-8.62-6.19,23.08,23.08,0,0,0,3.32,1.38c1.46.43.78-.37-1.35-2.87-1.88-2.21-5.18-7-5.27-8.62,0,0,1.14.46,1.42.56,4.22,1.45,2.75.25.43-2.73C23.6,15,23.77,10.9,22.6,6.68,22.11,4.91,22,3.58,21.55,5.63Z" /><path class="cls-2" d="M16.18,32.42s-5.34,6.34-.41,2.59c0,0-3.37,8.91,2.81.13,0,0,2.43,6.4,2.14,0,0,0,5.41,8.48,3.26,1.76,0,0,4.1,3.6.77-2.8,0,0,3.71,5.14,2.72.91,0,0,1,3.85-3.06-1.45,0,0,3,6.16-.59,3.09,0,0,2.24,6.43-3.32-2.18,0,0,.7,6.66-1.92.26,0,0-5.85,8.86-2.53,0C16.05,34.72,11.66,38.24,16.18,32.42Z" /><path class="cls-2" d="M26.2,22.83A10,10,0,0,1,24.25,21s2.48,5.37.05,2.49c0,0-.19,6-1.53-1.41,0,0-1.74,5.45-2,.47,0,0-1.93,3.62-.65-1.3,0,0-2.38,3,0-1.74,0,0-2.16,4,.13,1.6,0,0-1.26,4,.58,1.25,0,0,.1,5,2-.67,0,0,1.1,7,1.44,1.54,0,0,2.12,3.07-.21-2.67A12.77,12.77,0,0,0,26.2,22.83Z" /><path class="cls-1" d="M43.78,1.62a38,38,0,0,1-9.87,18.76c-2.58,2.58-.73,1.95,1.34,1.16a14.23,14.23,0,0,0,3.87-2.34s-.69,3.36-4.46,9.48c-1.78,2.88-5.72,6.45-3.09,5.37a19.65,19.65,0,0,0,4.58-2.6s-3.09,8.13-13.41,15c-2.54,1.69.77,1.29,2.74.89a43.11,43.11,0,0,0,5.68-1.85,11.16,11.16,0,0,1-2.49,2.57c-2.91,2.54-.13,2,1.75,1.47a33,33,0,0,0,7.39-2.85,14.64,14.64,0,0,0,1,2c.74,1.28,1.8,1.79,2.38-.14a8.46,8.46,0,0,1,1.17-2.82s.91,2.08,4.37,3.57c1.46.63,5.64,1.66,4.46-.06s-1.58-2.33-1.7-4A15.86,15.86,0,0,0,54.82,48c3.53,1.07,7,1.06,5.26-.16s-2.28-1.81-2.76-2.82c0,0,2.4,1,8.72,1.7,2.34.27,1.19-.78-.8-1.75s-7.39-3.78-11.17-8a32.15,32.15,0,0,0,4.31,1.79c1.88.55,1-.48-1.75-3.73C54.19,32.2,49.91,26,49.81,23.89c0,0,1.47.61,1.84.73,5.45,1.88,3.55.33.55-3.53C46.44,13.69,46.66,8.44,45.14,3,44.5.69,44.35-1,43.78,1.62Z" /><path class="cls-2" d="M36.82,36.32s-6.91,8.21-.53,3.36c0,0-4.37,11.54,3.64.16,0,0,3.14,8.29,2.77,0,0,0,7,11,4.23,2.28,0,0,5.31,4.65,1-3.64,0,0,4.8,6.66,3.52,1.19,0,0,1.22,5-4-1.89,0,0,3.84,8-.76,4,0,0,2.9,8.33-4.31-2.81,0,0,.91,8.62-2.48.33,0,0-7.57,11.48-3.28,0C36.65,39.31,31,43.86,36.82,36.32Z" /><path class="cls-2" d="M49.81,23.89a12.18,12.18,0,0,1-2.53-2.32s3.21,7,.06,3.23c0,0-.24,7.76-2-1.83,0,0-2.25,7.06-2.61.61,0,0-2.5,4.68-.83-1.69,0,0-3.09,3.84,0-2.25,0,0-2.8,5.24.16,2.07,0,0-1.62,5.19.75,1.62,0,0,.14,6.45,2.58-.87,0,0,1.42,9,1.86,2,0,0,2.74,4-.28-3.45A16.28,16.28,0,0,0,49.81,23.89Z" /><path class="cls-3" d="M21.55,4.53c-.31,1-.9,3.14-1.66,5.81A13.41,13.41,0,0,1,17.1,15.8c-.77.95-1.33,3.27,1.95,1.51,0,0-.2,2.31,1.61,1.27a5.47,5.47,0,0,0,2-1.92s3.53,7.05,6.53,7.21c0,0,2.46.74.49-1.19S23.09,9.22,22.17,4.59C22.13,4.37,21.72,4,21.55,4.53Z" /><path class="cls-4" d="M10.3,37.54c-.61.3-11.39,1.76-10.21,4.87s5.57.73,5.57.73-.72,4.75,9.49,0a4.16,4.16,0,0,0,5.51,0s-9.76,6,0,6.21a15.83,15.83,0,0,0,2.8,0s-4.7,6.88,12,.86c0,0,7.5,4.42,8.31,1,0,0,15.74,3.18,11.37,0,0,0,15.27.82,9.67-1.9,0,0,17.14-.37,7.09-4.24s-13.73-2.25-13.73-2.25Z" /><path class="cls-5" d="M14.73,30.33c-.43-.3-1.7,3.59-4.43,5.3,0,0,7.42,2.11,11.52,2.91S31.9,42.67,31.9,42.67l8.85,2S54.58,43.9,54,43.46s6.46-1.14,6.46-1.14a43.25,43.25,0,0,1-5.38-4.25c-1.67-1.75-8.9-4.19-8.9-4.19l-10.7.67L32.89,36l-2.47-.76s-2.66-4.32-4.22-4.32-3.4-2.21-4.38-2a48.47,48.47,0,0,1-6.16-.24Z" /><path class="cls-3" d="M16.21,23.52s.76,4.32,3.16,1.61c0,0,1.87,3.93,2.8,1.29,0,0,3.42,3.54,3.19-1,0,0,1.3,3.57,3.73,2.89,0,0,2.57,3.35,3,3.82l2.32-3s-1.43,3,2.1.74c0,0,3,1.79,5.29-2.72,0,0,2.56,4.48,6.07,1.84,0,0,6.51,5.3,5.94,2.33,0,0,4.1,5.17,4.65,5.89s2.8,2.84-1.09,1.23-3.9-2.11-3.9-2.11,1.88,2,2.68,2.7S55,41.62,50.55,37.7c0,0,1.52,2.8-1.2,1A30.87,30.87,0,0,1,45.76,36s1.73,4.29-1.18,3.17a4.86,4.86,0,0,1-3.22-3.6s-.18,2.8-2.72,2.48-.4-3.84-.4-3.84-1.51,2.5-2.72,2.64a6.33,6.33,0,0,1-2.36-.23l3.32-5.13-3.41,1.91s1.07,1.36,0,1a5.7,5.7,0,0,0-1.51-.34s-.65.33-.85.13.19-.58.19-.58l-1.41-.66,3.39,3s-2.41,2.29-6.69-2.51c0,0-1.4-2.16-1.56-2.56s-.53,2.4-2.82,1.52c0,0-.93-1.52-.77-1.76,0,0-3.2,2.88-3-.4a26.44,26.44,0,0,1-4.25,1.4l1.9-3s-2.83,3-4.33,2.38c-.53-.24,2.35-3.28,2.35-3.28Z" /><path class="cls-3" d="M45.17,1s-.73-2.45-1.52.47c0,0-3.2,11.76-6.71,14.93a53.42,53.42,0,0,1-3.67,4.27c-.57.34-1.65,1.72-.12,1.58a11.46,11.46,0,0,0,6-3s-.17,2.21,2.59-.3A3.84,3.84,0,0,0,43,17.12s.72,3.28,2.35,2.42c0,0,.95,5.32,4.5,4.35,0,0,2.65,2.91,4.88,1.53.74-.46.28-.74.1-1s-5.87-6.54-7.87-13.9C46.92,10.51,45.28,2.56,45.17,1Z" /><path class="cls-3" d="M13.1,32.67s-4.66,5.26-5.37,5.81-2.51,1.83-2.69,2-1.16,1.07.8.74c0,0,3.34-.47,3.95-.93,0,0-2.62,2.86-.82,3,3,.3,8.08-2.38,8.08-2.38s.6,3.36,2,2.06a4.8,4.8,0,0,0,1.37-3.28s2.16,4.12,6.42,3.55c0,0-3.44,2.78-3.87,3.07s-2.92,1.51.24,1.38,7.72-2.09,7.72-2.09a24.4,24.4,0,0,1-3.29,2.93c-.74.3-1.6,1.66,0,1.67,4.22,0,10.17-3.5,10.17-3.5s.47,3.4,2.4,3.5S42.13,46,42.13,46s4.42,6.14,9.54,4.21c0,0,.92-.11-.94-2.14,0,0-.75-1.24-.63-1.73,0,0,6.48,5.29,11.24,2.37,0,0,.27-.8-2.16-2.07,0,0,8.12,2,9.25.14s-5.3-3.28-7-4.08a12,12,0,0,1-3.17-2s-1.21,2-5.23.54c0,0,0,2.36-5.36-2,0,0,.83,4-2.13,1.46,0,0-1.5,2.57-3.43-.56,0,0-4.12,4.83-3.86,0,0,0-4.85,2.85-2.86-.2,0,0-6.15,1.93-4.16-1,0,0-6.45.77-7.25-1.89,0,0-4.42,2.86-5.09-1.06C18.92,36,13.1,37.17,13.1,32.67Z" /></g></svg>