<?xml version="1.0" encoding="utf-8"?>
<!-- Generator: Adobe Illustrator 19.2.0, SVG Export Plug-In . SVG Version: 6.00 Build 0)  -->
<!DOCTYPE svg PUBLIC "-//W3C//DTD SVG 1.1//EN" "http://www.w3.org/Graphics/SVG/1.1/DTD/svg11.dtd">
<svg version="1.1" xmlns="http://www.w3.org/2000/svg" xmlns:xlink="http://www.w3.org/1999/xlink" x="0px" y="0px"
	 viewBox="0 0 212.2 129" enable-background="new 0 0 212.2 129" xml:space="preserve" width="212.2" height="129" preserveAspectRatio="none">
<g id="BG">
</g>
<g id="Obstacle_Course_Field">
</g>
<g id="Left_SandBags">
	<path opacity="0.3" fill="#231F20" d="M199.1,79c0,0,10.3-0.6,10.6-2.9c0.3-2.3-5.6-8.5-5.6-8.5l-28.5-9l-85.9,4.6l1.9,7.4
		L7.2,81.9L0.6,89c0,0,2.1,3.7,13.3,6.7c11.2,3.1,15.4,1.8,15.4,1.8l-3.9,3.8c8.7,7.7,18.2,13.1,29.2,14.5l-7,6.1c0,0,0,0.6,9.1,4.9
		c9.1,4.3,54.9-6.5,54.9-6.5s21.8,8.9,54.9,5.7c21.7-2.1,25-10.1,25-10.1l-2.3-7.5c0,0,2.9-0.9,11.8-2.9c8.9-2,10.3-6,10.3-6
		L199.1,79z"/>
	<g>
		<g>
			<path fill="#ECE5B3" d="M2.4,84c0,0,4.5-20.5,18.9-24c2.3-0.6,23.1-5.8,25.5-6.1c17.1-2.4,29.3,12.4,29.3,12.4s-3.6,10-38,18.3
				C21.4,88.6,2.4,84,2.4,84z"/>
			<path fill="#BBB683" d="M74.8,66.5c-0.2-0.1-0.4-0.1-0.6-0.1c-0.2,0-0.4,0-0.6,0c-0.4,0-0.8,0-1.2,0.1c-0.8,0-1.5,0.1-2.3,0.2
				c-1.5,0.2-3.1,0.4-4.6,0.6c-3,0.4-6.1,1-9.1,1.5c-6,1.1-12.1,2.1-18,3.7c-3,0.8-5.9,1.6-8.8,2.6c-2.9,1-5.7,2.1-8.6,3.2
				c-1.4,0.6-2.9,1.1-4.3,1.6c-1.4,0.5-2.9,1-4.4,1.4C11,81.7,9.5,82,8,82.4c-1.5,0.4-3,0.7-4.5,0.9C4.2,83.2,5,83,5.7,82.8
				c0.7-0.2,1.5-0.4,2.2-0.6c1.5-0.4,2.9-0.9,4.4-1.4c1.5-0.5,2.9-1,4.3-1.5c1.4-0.5,2.8-1.1,4.3-1.7c2.8-1.2,5.7-2.3,8.6-3.3
				c2.9-1,5.8-1.9,8.8-2.7c3-0.8,6-1.4,9-2c3-0.5,6.1-1.1,9.1-1.5c3-0.5,6.1-0.9,9.2-1.2c1.5-0.2,3.1-0.3,4.6-0.4
				c0.8-0.1,1.5-0.1,2.3-0.1c0.4,0,0.8,0,1.2,0c0.2,0,0.4,0,0.6,0C74.5,66.4,74.6,66.4,74.8,66.5z"/>
		</g>
		<path fill="#BBB683" d="M53,68.7l4.8-10.9l-23.3-1c-5.1,1.3-10.4,2.6-12.5,3.1c2.3,2,5.8,4.4,10.9,6.1C43.4,69.5,53,68.7,53,68.7z
			"/>
		<path fill="#BBB683" d="M102.9,53.7c0,0,13.2,7.7,19.1,7.9c5.8,0.2,4.7-0.7,4.7-0.7L131,51l-23.8-1.4L102.9,53.7z"/>
		<path fill="#ECE5B3" d="M129.7,66.9c0,0-13.4-17.5-30.6-15.4c-2.8,0.3-27.6,3.1-30.3,3.6C49.1,59.2,42,77.4,42,77.4
			s8.1,8,49.1,3.1C110.9,78.1,129.7,66.9,129.7,66.9z"/>
		<g>
			<path fill="#ECE5B3" d="M115.8,72.8c0.1,0,1.7-5.4,6.2-11.3c4.5-5.8,11.9-12.1,21.9-13.3c1.6-0.2,9.5-1.1,17.5-1.4
				c8-0.4,15.9-0.1,17.4,0.1c23.1,2.9,29.5,22.5,29.4,22.3c0,0-2.3,1.8-9.6,3c-7.3,1.3-19.6,1.8-40.3,2.8
				C138.5,75.8,116,72.7,115.8,72.8z"/>
			<path fill="#BBB683" d="M178.8,46.9c-1.6-0.2-9.5-0.5-17.4-0.1c-7.9,0.3-15.9,1.2-17.5,1.4c-10,1.1-17.4,7.4-21.9,13.3
				c-2.9,3.7-4.6,7.2-5.5,9.3c0.8-1.3,1.7-2.7,2.8-4.2c4.5-5.8,11.9-12.1,21.9-13.3c1.6-0.2,9.5-1.1,17.5-1.4
				c7.9-0.4,15.9-0.1,17.4,0.1C193.1,54.2,201,65.3,204,71c3.1-0.9,4.2-1.8,4.1-1.8C208.3,69.4,201.9,49.8,178.8,46.9z"/>
			<path fill="#BBB683" d="M206.7,68.8c-0.2-0.1-0.4-0.2-0.6-0.3c-0.2-0.1-0.4-0.2-0.6-0.3c-0.4-0.2-0.9-0.3-1.3-0.4
				c-0.9-0.3-1.8-0.5-2.7-0.8c-1.8-0.5-3.6-0.9-5.5-1.2c-3.7-0.7-7.4-1.3-11.1-1.8c-7.5-0.9-15.1-1.4-22.7-1
				c-3.8,0.2-7.6,0.6-11.4,1.2c-3.8,0.6-7.5,1.5-11.2,2.4c-1.9,0.5-3.7,1-5.6,1.5c-1.9,0.5-3.7,0.9-5.6,1.4
				c-1.9,0.4-3.7,0.9-5.6,1.3c-1.9,0.4-3.8,0.8-5.6,1.2c0.9-0.2,1.9-0.5,2.8-0.7c0.9-0.2,1.9-0.5,2.8-0.7c1.9-0.5,3.7-1,5.6-1.5
				c1.9-0.5,3.7-1,5.5-1.5c1.8-0.5,3.7-1,5.5-1.6c3.7-1,7.4-1.9,11.2-2.6c3.8-0.6,7.6-1.1,11.5-1.3c3.8-0.2,7.7-0.2,11.5,0.1
				c3.8,0.3,7.6,0.6,11.3,1.1c3.7,0.5,7.5,1.2,11.1,2c1.8,0.4,3.6,0.9,5.4,1.4c0.9,0.3,1.8,0.5,2.7,0.9c0.4,0.2,0.9,0.3,1.3,0.5
				c0.2,0.1,0.4,0.2,0.6,0.3C206.3,68.6,206.5,68.7,206.7,68.8z"/>
		</g>
		<g>
			<path fill="#BBB683" d="M161.4,46.8c-7.9,0.3-15.9,1.2-17.5,1.4c-6.9,0.8-12.5,4-16.8,7.8c0.9,0,1.8-0.1,2.8-0.1
				c20.7-1,33-1.5,40.3-2.8c7.3-1.1,9.6-3,9.6-2.9c0,0.1-0.4-1.3-1.5-3.3C175.9,46.7,168.6,46.5,161.4,46.8z"/>
			<path fill="#ECE5B3" d="M87.1,51.7c0.1,0,1.7-5.4,6.2-11.3c4.5-5.8,11.9-12.1,21.9-13.3c1.6-0.2,9.5-1.1,17.5-1.4
				c7.9-0.4,15.9-0.1,17.4,0.1c23.1,2.9,29.5,22.5,29.4,22.3c0,0-2.3,1.8-9.6,2.9c-7.3,1.3-19.6,1.8-40.3,2.8
				C109.8,54.7,87.3,51.5,87.1,51.7z"/>
			<path fill="#BBB683" d="M178,47.7c-0.2-0.1-0.4-0.2-0.6-0.3c-0.2-0.1-0.4-0.2-0.6-0.3c-0.4-0.2-0.9-0.3-1.3-0.4
				c-0.9-0.3-1.8-0.5-2.7-0.8c-1.8-0.5-3.6-0.9-5.5-1.2c-3.7-0.7-7.4-1.3-11.1-1.8c-7.5-0.9-15.1-1.4-22.7-1
				c-3.8,0.2-7.6,0.6-11.4,1.2c-3.8,0.6-7.5,1.5-11.2,2.4c-1.9,0.5-3.7,1-5.6,1.5c-1.9,0.5-3.7,0.9-5.6,1.4
				c-1.9,0.4-3.7,0.9-5.6,1.3c-1.9,0.4-3.8,0.8-5.6,1.2c0.9-0.2,1.9-0.5,2.8-0.7c0.9-0.2,1.9-0.5,2.8-0.7c1.9-0.5,3.7-1,5.6-1.5
				c1.8-0.5,3.7-1,5.5-1.5c1.8-0.5,3.7-1,5.5-1.6c3.7-1,7.4-1.9,11.2-2.6c3.8-0.6,7.6-1.1,11.5-1.3c3.8-0.2,7.7-0.2,11.5,0.1
				c3.8,0.3,7.6,0.6,11.3,1.1c3.7,0.5,7.5,1.2,11.1,2c1.8,0.4,3.6,0.9,5.4,1.4c0.9,0.3,1.8,0.5,2.7,0.9c0.4,0.2,0.9,0.3,1.3,0.5
				c0.2,0.1,0.4,0.2,0.6,0.3C177.6,47.4,177.8,47.5,178,47.7z"/>
		</g>
		<path fill="#BBB683" d="M115.2,27.1c-10,1.1-17.4,7.4-21.9,13.3c-4.5,5.9-6.2,11.3-6.2,11.3c0.1-0.1,5.8,0.7,14,1.4
			c5.9-2.7,9.6-4.9,9.6-4.9s-4.6-6-11.9-10.5c23-3,27.4-8.9,27.4-8.9s-0.6-1-1.7-2.5C119.9,26.6,116.2,27,115.2,27.1z"/>
		<path fill="#BBB683" d="M99.1,51.5c-2.8,0.3-27.6,3.1-30.3,3.6c-8.6,1.8-14.9,6.3-19.1,10.8c6.1,0,13.6-0.5,22.6-1.6
			c15.4-1.8,30.3-9.1,36.1-12.2C105.5,51.4,102.4,51.1,99.1,51.5z"/>
		<path fill="#ECE5B3" d="M110.5,46.2c0,0-13.4-17.5-30.6-15.4c-2.8,0.3-27.6,3.1-30.3,3.6c-19.7,4.1-26.9,22.3-26.9,22.3
			s8.1,8,49.1,3.1C91.6,57.5,110.5,46.2,110.5,46.2z"/>
		<path fill="#BBB683" d="M24.1,56.4c0.2-0.1,0.4-0.2,0.6-0.3c0.2-0.1,0.4-0.2,0.6-0.2c0.4-0.2,0.8-0.3,1.3-0.4
			c0.9-0.3,1.7-0.5,2.6-0.7c1.7-0.5,3.5-0.9,5.2-1.3c3.5-0.8,7-1.5,10.5-2.2c3.5-0.7,7-1.3,10.6-1.9c3.5-0.6,7.1-1.1,10.6-1.5
			c3.6-0.4,7.1-0.6,10.7-0.7C80.4,47,84,47,87.6,47c1.8,0,3.6,0.1,5.4,0c1.8,0,3.6-0.1,5.3-0.2c1.8-0.1,3.6-0.2,5.3-0.3
			c0.9-0.1,1.8-0.1,2.7-0.2c0.9-0.1,1.8-0.2,2.7-0.3c-1.8,0.3-3.5,0.6-5.3,0.8c-1.8,0.2-3.6,0.4-5.3,0.5c-1.8,0.1-3.6,0.3-5.4,0.3
			c-1.8,0.1-3.6,0.1-5.4,0.1c-3.6,0-7.1,0-10.7,0.2c-3.6,0.1-7.1,0.4-10.7,0.8c-7.1,0.7-14.1,2-21.2,3.2c-3.5,0.6-7,1.2-10.5,1.9
			c-1.8,0.3-3.5,0.7-5.2,1.1c-0.9,0.2-1.7,0.4-2.6,0.7c-0.4,0.1-0.9,0.2-1.3,0.4c-0.2,0.1-0.4,0.1-0.6,0.2
			C24.5,56.2,24.3,56.3,24.1,56.4z"/>
		<path fill="#BBB683" d="M126,26.8c-0.3,0.4-0.6,0.7-1,1c-0.4,0.3-0.7,0.6-1.1,0.9c-0.8,0.5-1.6,1-2.5,1.5
			c-1.7,0.9-3.5,1.6-5.3,2.3c-3.6,1.3-7.3,2.2-11.1,3c-3.7,0.8-7.5,1.3-11.3,1.7c-3.8,0.4-7.6,0.7-11.4,0.9c-1,0-1.9,0.1-2.9,0.1
			c-1,0-1.9,0.1-2.9,0.1c-1.9,0-3.8,0-5.8-0.2c-1.9-0.1-3.8-0.3-5.7-0.6c-0.9-0.1-1.9-0.3-2.8-0.4c-0.9-0.2-1.9-0.3-2.8-0.5
			c-1.9-0.4-3.7-0.8-5.6-1.3c-1.8-0.5-3.7-1-5.5-1.5c-1.8-0.6-3.6-1.2-5.4-1.8c-1.8-0.7-3.6-1.3-5.3-2.1c3.6,1.2,7.3,2.2,10.9,3.1
			c1.8,0.5,3.7,0.9,5.5,1.3c1.9,0.4,3.7,0.7,5.6,1c0.9,0.1,1.9,0.3,2.8,0.4c0.9,0.1,1.9,0.2,2.8,0.4c1.9,0.2,3.8,0.4,5.6,0.5
			c1.9,0.1,3.8,0.2,5.6,0.1c0.9,0,1.9-0.1,2.8-0.1l2.8-0.1c3.8-0.2,7.6-0.4,11.3-0.8c3.8-0.3,7.5-0.8,11.3-1.4
			c1.9-0.3,3.7-0.7,5.6-1.1c1.8-0.4,3.7-0.9,5.5-1.4c1.8-0.5,3.6-1.2,5.3-1.9c0.9-0.4,1.7-0.8,2.5-1.3c0.4-0.2,0.8-0.5,1.2-0.8
			C125.3,27.4,125.7,27.1,126,26.8z"/>
		<g>
			<path fill="#BBB683" d="M170.5,35c-4.5-4.2-11.1-8-20.4-9.2c-1.6-0.2-9.5-0.5-17.4-0.1c-7.9,0.3-15.9,1.2-17.5,1.4
				c-3.7,0.4-7,1.5-10,3.1c7.5,1.2,18.6,2.3,34.9,4C150.7,35.3,162.2,35.2,170.5,35z"/>
		</g>
		<g>
			<path fill="#ECE5B3" d="M37.6,29.7c0,0,10.6-19.3,27.9-19.9c2.8-0.1,27.7-1.2,30.5-1c20.1,1,29.9,17.9,29.9,17.9
				s-6.8,9.1-48,10.5C58,37.9,37.6,29.7,37.6,29.7z"/>
			<path fill="#FFEFCC" d="M96.1,8.8c-2.8-0.1-27.7,0.9-30.5,1c-17.3,0.6-27.9,19.9-27.9,19.9s0.5,0.2,1.4,0.5
				c3.4-5.1,12.9-17.1,26.5-17.6c2.8-0.1,27.7-1.2,30.5-1c16.1,0.8,25.6,11.8,28.7,16.2c0.9-0.7,1.2-1.1,1.2-1.1S116.2,9.9,96.1,8.8
				z"/>
			<path fill="#BBB683" d="M124.5,26.7c-0.2-0.1-0.4-0.1-0.6-0.2c-0.2,0-0.4-0.1-0.7-0.1c-0.4-0.1-0.9-0.1-1.3-0.2
				c-0.9-0.1-1.8-0.2-2.7-0.2c-1.8-0.1-3.6-0.2-5.3-0.3c-3.6-0.2-7.1-0.3-10.7-0.3C96,25.2,88.9,25,81.8,25.4
				c-3.6,0.2-7.1,0.5-10.7,0.9c-3.5,0.4-7.1,0.9-10.6,1.5c-1.8,0.3-3.5,0.5-5.3,0.8c-1.8,0.2-3.6,0.4-5.4,0.5
				c-1.8,0.1-3.6,0.2-5.4,0.3c-1.8,0.1-3.6,0.1-5.4,0c0.9,0,1.8-0.1,2.7-0.1c0.9,0,1.8-0.1,2.7-0.2c1.8-0.1,3.6-0.3,5.3-0.5
				c1.8-0.2,3.5-0.4,5.3-0.6c1.8-0.2,3.5-0.5,5.3-0.8c3.5-0.6,7.1-1.2,10.6-1.6c3.6-0.4,7.1-0.7,10.7-0.9c3.6-0.2,7.2-0.2,10.7-0.2
				c3.6,0.1,7.2,0.2,10.7,0.3c3.6,0.1,7.1,0.3,10.7,0.6c1.8,0.1,3.6,0.3,5.3,0.5c0.9,0.1,1.8,0.2,2.7,0.3c0.4,0.1,0.9,0.1,1.3,0.2
				c0.2,0,0.4,0.1,0.7,0.2C124.1,26.5,124.3,26.6,124.5,26.7z"/>
		</g>
		<path fill="#BBB683" d="M102.1,9.7C93.4,15.8,90.3,24,90.4,23.8c0,0,2.2,2,9.4,3.5c4.6,1.1,11.2,1.9,20.7,3
			c4.3-1.9,5.5-3.5,5.5-3.5S118.1,13.3,102.1,9.7z"/>
		<path fill="#ECE5B3" d="M182.2,30.2c-0.1,0-1.4-5.5-5.6-11.6c-4.1-6.1-11.2-12.8-21.1-14.5c-1.6-0.3-9.5-1.7-17.4-2.4
			c-7.9-0.8-15.9-1-17.4-0.9C97.4,2.5,90,21.7,90.1,21.5c0,0,2.2,2,9.4,3.5c7.2,1.7,19.4,2.9,40.1,5C159.3,31.9,182,30.1,182.2,30.2
			z"/>
		<path fill="#ECE5B3" d="M182.2,30.2c-0.1,0-1.4-5.5-5.6-11.6c-4.1-6.1-11.2-12.8-21.1-14.5c-1.6-0.3-9.5-1.7-17.4-2.4
			c-7.9-0.8-15.9-1-17.4-0.9C97.4,2.5,90,21.7,90.1,21.5c0,0,2.2,2,9.4,3.5c7.2,1.7,19.4,2.9,40.1,5C159.3,31.9,182,30.1,182.2,30.2
			z"/>
		<path fill="#FFEFCC" d="M90.5,21.7c2.8-5.1,11.3-17.1,29.4-18.3c1.6-0.1,9.5,0.1,17.4,0.9c7.9,0.7,15.8,2.1,17.4,2.4
			c10,1.7,17,8.4,21.1,14.5c2.5,3.6,3.9,6.9,4.7,9.1c1-0.1,1.6-0.1,1.6-0.1c-0.1,0-1.4-5.5-5.6-11.6c-4.1-6.1-11.2-12.8-21.1-14.5
			c-1.6-0.3-9.5-1.7-17.4-2.4c-7.9-0.8-15.9-1-17.4-0.9C97.4,2.5,90,21.7,90.1,21.5C90.1,21.5,90.2,21.6,90.5,21.7z"/>
		<path fill="#BBB683" d="M91.6,21.2c0.2-0.1,0.4-0.2,0.6-0.3c0.2-0.1,0.4-0.1,0.7-0.2c0.4-0.1,0.9-0.3,1.3-0.4
			c0.9-0.2,1.8-0.4,2.7-0.6c1.8-0.4,3.7-0.7,5.5-0.9c3.7-0.5,7.5-0.9,11.2-1.1c7.5-0.5,15.1-0.6,22.7,0.2c3.8,0.4,7.5,1,11.3,1.9
			c3.7,0.8,7.4,1.9,11,3.1c1.8,0.6,3.6,1.2,5.5,1.8c1.8,0.6,3.7,1.1,5.5,1.7c1.8,0.6,3.7,1.1,5.5,1.6c1.8,0.5,3.7,1.1,5.6,1.5
			c-0.9-0.3-1.8-0.6-2.7-0.9c-0.9-0.3-1.8-0.6-2.7-0.9c-1.8-0.6-3.6-1.2-5.5-1.8c-1.8-0.6-3.6-1.2-5.4-1.8c-1.8-0.6-3.6-1.2-5.4-1.9
			c-3.6-1.2-7.3-2.3-11.1-3.2c-3.7-0.9-7.5-1.5-11.4-1.9c-3.8-0.4-7.6-0.6-11.5-0.6c-3.8,0-7.6,0.2-11.4,0.5
			c-3.8,0.3-7.5,0.8-11.2,1.4c-1.9,0.3-3.7,0.7-5.5,1.1c-0.9,0.2-1.8,0.5-2.7,0.7c-0.4,0.1-0.9,0.3-1.3,0.4
			c-0.2,0.1-0.4,0.2-0.7,0.2C92,20.9,91.8,21,91.6,21.2z"/>
		<path fill="#BBB683" d="M43.3,76.9c3.1-0.9,6.2-1.7,9.4-2.4c1.6-0.4,3.1-0.7,4.7-1l2.4-0.5l2.4-0.5c1.6-0.3,3.2-0.6,4.8-0.8
			l4.8-0.8c3.2-0.5,6.3-1.1,9.5-1.6l4.7-0.9l2.4-0.4l2.4-0.4c1.6-0.3,3.2-0.5,4.8-0.7c1.6-0.2,3.2-0.5,4.8-0.6
			c3.2-0.4,6.4-0.7,9.6-0.8c1.6-0.1,3.2-0.1,4.8-0.1c0.8,0,1.6,0,2.4,0.1c0.8,0.1,1.6,0.1,2.4,0.3l0,0.1c-1.6-0.1-3.2,0-4.8,0
			c-1.6,0.1-3.2,0.2-4.8,0.4c-3.2,0.3-6.4,0.7-9.6,1l-4.8,0.6l-4.8,0.6L86,68.9c-1.6,0.2-3.2,0.4-4.8,0.7c-3.2,0.5-6.3,1-9.5,1.6
			l-4.7,1c-1.6,0.3-3.1,0.7-4.7,1C56,74.5,49.6,75.8,43.3,76.9L43.3,76.9z"/>
		<path fill="#FFEFCC" d="M2.4,84c0.1-0.7,0.2-1.3,0.3-2c0.1-0.7,0.3-1.3,0.5-2c0.3-1.3,0.8-2.6,1.2-3.9c1-2.5,2.2-5,3.8-7.2
			c1.6-2.2,3.4-4.3,5.7-5.9c2.2-1.6,4.8-2.7,7.5-3c-2.5,0.9-4.8,2.3-6.8,4c-2,1.7-3.7,3.7-5.1,5.8c-1.5,2.1-2.8,4.4-3.9,6.8
			C4.3,79,3.3,81.5,2.4,84z"/>
		<path fill="#FFEFCC" d="M49.6,34.4c-2.9,0.9-5.7,2-8.3,3.4c-2.6,1.4-5.1,3.1-7.3,5c-2.3,1.9-4.3,4.1-6.2,6.4
			c-0.5,0.6-0.9,1.2-1.4,1.8c-0.4,0.6-0.9,1.2-1.3,1.8c-0.9,1.2-1.6,2.5-2.4,3.8c0.4-1.5,1.1-2.8,1.8-4.2c0.4-0.7,0.7-1.3,1.1-2
			c0.4-0.7,0.8-1.3,1.3-1.9c1.7-2.5,3.8-4.8,6.2-6.8c2.3-2,5-3.7,7.8-4.9C43.5,35.6,46.5,34.7,49.6,34.4z"/>
		<path fill="#BBB683" d="M38.9,47.6c0.2-0.4,0.4-0.7,0.6-1c0.2-0.3,0.5-0.5,0.8-0.8c0.3-0.2,0.6-0.4,0.9-0.6c0.3-0.2,0.7-0.4,1-0.5
			c-0.2,0.4-0.4,0.7-0.6,1c-0.2,0.3-0.5,0.5-0.8,0.8c-0.3,0.2-0.6,0.5-0.9,0.6C39.7,47.3,39.3,47.5,38.9,47.6z"/>
		<path fill="#BBB683" d="M38.7,49.6c0.2-0.3,0.5-0.6,0.7-0.8c0.3-0.3,0.5-0.5,0.8-0.7c0.3-0.2,0.6-0.5,0.9-0.7
			c0.3-0.2,0.6-0.4,0.9-0.6c-0.2,0.3-0.5,0.6-0.7,0.8c-0.3,0.3-0.5,0.5-0.8,0.7c-0.3,0.2-0.6,0.5-0.9,0.7
			C39.3,49.2,39,49.4,38.7,49.6z"/>
		<path fill="#BBB683" d="M58.8,32.3c0.2-0.3,0.5-0.6,0.7-0.8c0.3-0.3,0.5-0.5,0.8-0.7c0.3-0.2,0.6-0.5,0.9-0.7
			c0.3-0.2,0.6-0.4,0.9-0.6c-0.2,0.3-0.5,0.6-0.7,0.8c-0.3,0.3-0.5,0.5-0.8,0.7c-0.3,0.2-0.6,0.5-0.9,0.7
			C59.5,31.9,59.2,32.1,58.8,32.3z"/>
		<path fill="#BBB683" d="M84.6,17.3c0.2-0.3,0.5-0.6,0.7-0.8c0.3-0.3,0.5-0.5,0.8-0.7c0.3-0.2,0.6-0.5,0.9-0.7
			c0.3-0.2,0.6-0.4,0.9-0.6c-0.2,0.3-0.5,0.6-0.7,0.8c-0.3,0.3-0.5,0.5-0.8,0.7c-0.3,0.2-0.6,0.5-0.9,0.7
			C85.2,16.9,84.9,17.1,84.6,17.3z"/>
		<path fill="#BBB683" d="M111.2,15.1c0.2-0.3,0.5-0.6,0.7-0.8c0.3-0.3,0.5-0.5,0.8-0.7c0.3-0.2,0.6-0.5,0.9-0.7
			c0.3-0.2,0.6-0.4,0.9-0.6c-0.2,0.3-0.5,0.6-0.7,0.8c-0.3,0.3-0.5,0.5-0.8,0.7c-0.3,0.2-0.6,0.5-0.9,0.7
			C111.9,14.7,111.6,14.9,111.2,15.1z"/>
		<path fill="#BBB683" d="M132.6,23.2c0.2-0.3,0.5-0.6,0.7-0.8c0.3-0.3,0.5-0.5,0.8-0.7c0.3-0.2,0.6-0.5,0.9-0.7
			c0.3-0.2,0.6-0.4,0.9-0.6c-0.2,0.3-0.5,0.6-0.7,0.8c-0.3,0.3-0.5,0.5-0.8,0.7c-0.3,0.2-0.6,0.5-0.9,0.7
			C133.3,22.8,133,23,132.6,23.2z"/>
		<path fill="#BBB683" d="M98.4,62.6c0.2-0.3,0.5-0.6,0.7-0.8c0.3-0.3,0.5-0.5,0.8-0.7c0.3-0.2,0.6-0.5,0.9-0.7
			c0.3-0.2,0.6-0.4,0.9-0.6c-0.2,0.3-0.5,0.6-0.7,0.8c-0.3,0.3-0.5,0.5-0.8,0.7c-0.3,0.2-0.6,0.5-0.9,0.7
			C99.1,62.2,98.8,62.4,98.4,62.6z"/>
		<path fill="#BBB683" d="M185,57.1c0.2-0.3,0.5-0.6,0.7-0.8c0.3-0.3,0.5-0.5,0.8-0.7c0.3-0.2,0.6-0.5,0.9-0.7
			c0.3-0.2,0.6-0.4,0.9-0.6c-0.2,0.3-0.5,0.6-0.7,0.8c-0.3,0.3-0.5,0.5-0.8,0.7c-0.3,0.2-0.6,0.5-0.9,0.7
			C185.6,56.8,185.3,57,185,57.1z"/>
	</g>
</g>
<g id="Right_Sandbags">
</g>
<g id="White_Frame_Drop_Shadow">
</g>
<g id="White_Frame_BG">
</g>
<g id="Whistle">
</g>
<g id="Hat">
</g>
<g id="Layer_26">
</g>
<g id="Submit_Button_1_">
</g>
<g id="Top_Tab">
</g>
<g id="Lab_Safety_Goggles">
</g>
<g id="Left_Potion_Bottles">
</g>
<g id="Right_Tire">
</g>
<g id="Left_Tires">
</g>
<g id="Right_Potion_Bottles">
</g>
<g id="Keyboard">
</g>
<g id="Header">
</g>
<g id="Header_Buttons">
</g>
<g id="Progress_Indicator_1_">
</g>
<g id="Title">
</g>
<g id="Problem_Screen">
</g>
<g id="Isadora_Screenshot" display="none">
</g>
</svg>
