<svg id="Layer_1" data-name="Layer 1" xmlns="http://www.w3.org/2000/svg" viewBox="0 0 144 144" width="144" height="144" preserveAspectRatio="none"><defs><style>.cls-1,.cls-3,.cls-4{fill:#fff;}.cls-1,.cls-2{opacity:0.3;}.cls-1,.cls-4{isolation:isolate;}.cls-4{opacity:0.4;}</style></defs><title>Math Jazz 11NoBG</title><path class="cls-1" d="M70.43,94.72h-.2v-1h.2Zm0-2h-.2v-1h.2Zm0-2.1h-.2v-1h.2Zm0-2h-.2v-1h.2Zm0-2.1h-.2v-1h.2Zm0-2h-.2v-1h.2Zm0-2.1h-.2v-1h.2Zm0-2h-.2v-1h.2Zm0-2.1h-.2v-1h.2Zm0-2h-.2v-1h.2Zm0-2.1h-.2v-1h.2Zm0-2h-.2v-1h.2Zm0-2.1h-.2v-1h.2Zm0-2h-.2v-1h.2Zm0-2h-.2v-1h.2Zm0-2.1h-.2V63h.2Zm0-2h-.2V61h.2Zm0-2.1h-.2v-1h.2Zm0-2h-.2v-1h.2Zm0-2.1h-.2v-1h.2Zm0-2h-.2v-1h.2Z"/><path class="cls-1" d="M77.63,96.32h-1.1v-.2h1.1Zm-2.2,0h-1.1v-.2h1.1Zm-2.3,0H72v-.2h1.1Z"/><path class="cls-1" d="M79.43,94.72h-.2v-1h.2Zm0-2.1h-.2v-1h.2Zm0-2h-.2v-1h.2Zm0-2.1h-.2v-1h.2Zm0-2h-.2v-1h.2Zm0-2h-.2v-1h.2Zm0-2.1h-.2v-1h.2Zm0-2h-.2v-1h.2Zm0-2.1h-.2v-1h.2Zm0-2h-.2v-1h.2Zm0-2.1h-.2v-1h.2Zm0-2h-.2v-1h.2Zm0-2.1h-.2v-1h.2Zm0-2h-.2v-1h.2Zm0-2.1h-.2V65h.2Zm0-2h-.2V63h.2Zm0-2h-.2V61h.2Zm0-2.1h-.2v-1h.2Zm0-2h-.2v-1h.2Zm0-2.1h-.2v-1h.2Zm0-2h-.2v-1h.2Z"/><path class="cls-1" d="M77.63,51.32h-1.1v-.2h1.1Zm-2.2,0h-1.1v-.2h1.1Zm-2.3,0H72v-.2h1.1Z"/><g class="cls-2"><polygon class="cls-3" points="79.23 96.12 78.73 96.12 78.73 96.32 79.33 96.32 79.43 96.22 79.43 95.72 79.23 95.72 79.23 96.12"/><polygon class="cls-3" points="70.43 95.72 70.23 95.72 70.23 96.22 70.33 96.32 70.93 96.32 70.93 96.12 70.43 96.12 70.43 95.72"/><polygon class="cls-3" points="79.43 51.22 79.43 51.22 79.23 50.72 79.03 50.82 79.13 51.12 78.73 51.12 78.73 51.12 78.73 51.32 78.73 51.32 79.23 51.32 79.23 51.72 79.43 51.72 79.43 51.22"/><polygon class="cls-3" points="70.43 50.72 70.23 50.72 70.23 51.22 70.23 51.22 70.23 51.72 70.43 51.72 70.43 51.32 70.93 51.32 70.93 51.32 70.93 51.12 70.93 51.12 70.43 51.12 70.43 50.72"/></g><polygon class="cls-1" points="47.13 96.02 70.53 96.02 70.53 116.62 79.13 96.12 79.33 96.22 79.33 96.02 100.63 96.02 100.63 51.52 79.33 51.52 79.13 51.32 70.53 30.92 70.53 51.52 47.13 51.52 47.13 96.02"/><path class="cls-4" d="M70.53,117.92l-.5-.1V96.52H46.63V51H70V29.62l.5-.1,8.9,21.4h21.7v45.5H79.43ZM47.13,96h23.4v20.6L79,96.22l.2.1v-.2h21.4V51.62H79.23l-.2-.2L70.53,31v20.6H47.13V96Z"/><path class="cls-4" d="M64.63,42a1.22,1.22,0,0,1-.3.9,4.87,4.87,0,0,1-1,.8,3.85,3.85,0,0,0-1.1.8.52.52,0,0,0-.2.4h2.7v.6h-3.4a2,2,0,0,1,.4-1.3,4.25,4.25,0,0,1,1.4-1.1,6.82,6.82,0,0,0,.7-.5A1.42,1.42,0,0,0,64,42a.6.6,0,0,0-.3-.6.84.84,0,0,0-.7-.2.91.91,0,0,0-.7.3,1.22,1.22,0,0,0-.3.9h-.6a1.84,1.84,0,0,1,.4-1.3,1.66,1.66,0,0,1,1.2-.5,1.37,1.37,0,0,1,1.1.4A1.39,1.39,0,0,1,64.63,42Z"/><path class="cls-4" d="M65.13,44.32v-.6l2.3-3.2H68v3.2h.7v.5H68v1.2h-.6v-1.2h-2.3Zm2.1-.5v-2.2l-1.6,2.2h1.6Z"/><path class="cls-4" d="M80.33,38.62a1.22,1.22,0,0,1-.3.9,4.87,4.87,0,0,1-1,.8,3.85,3.85,0,0,0-1.1.8.52.52,0,0,0-.2.4h2.7v.6H77a2,2,0,0,1,.4-1.3,4.25,4.25,0,0,1,1.4-1.1,6.82,6.82,0,0,0,.7-.5,1.42,1.42,0,0,0,.2-.6.6.6,0,0,0-.3-.6.84.84,0,0,0-.7-.2.91.91,0,0,0-.7.3,1.22,1.22,0,0,0-.3.9h-.6a1.84,1.84,0,0,1,.4-1.3,1.66,1.66,0,0,1,1.2-.5,1.37,1.37,0,0,1,1.1.4A1.23,1.23,0,0,1,80.33,38.62Z"/><path class="cls-4" d="M82.73,37.12a1.37,1.37,0,0,1,1.4,1.4h-.6a.86.86,0,0,0-.3-.6c-.2-.2-.3-.2-.6-.2a1.05,1.05,0,0,0-.9.5,2.27,2.27,0,0,0-.3,1.3,1.43,1.43,0,0,1,1.2-.6,1.37,1.37,0,0,1,1.1.4,1.59,1.59,0,0,1,.4,1.2,1.66,1.66,0,0,1-.5,1.2,1.59,1.59,0,0,1-1.2.4,1.31,1.31,0,0,1-1.2-.6,3,3,0,0,1-.4-1.8,3.68,3.68,0,0,1,.5-2A2.25,2.25,0,0,1,82.73,37.12Zm-1.1,3.5a1.14,1.14,0,0,0,.3.8,1,1,0,0,0,1.4,0,1.22,1.22,0,0,0,0-1.6,1,1,0,0,0-1.4,0A1.14,1.14,0,0,0,81.63,40.62Z"/><path class="cls-1" d="M72.83,54h-1.2v-.5a1.88,1.88,0,0,0,.8-.2,1.79,1.79,0,0,0,.5-.7h.5v4.9h-.6Z"/><path class="cls-1" d="M75.53,57a3.36,3.36,0,0,1-.4-1.9,3.58,3.58,0,0,1,.4-1.9,1.52,1.52,0,0,1,1.2-.7,1.46,1.46,0,0,1,1.3.7A4.71,4.71,0,0,1,78,57a1.36,1.36,0,0,1-1.3.7A1.85,1.85,0,0,1,75.53,57Zm2-.4a3.9,3.9,0,0,0,0-3,.89.89,0,0,0-.8-.5,1,1,0,0,0-.8.5,3.9,3.9,0,0,0,0,3,.89.89,0,0,0,1.6,0Z"/><path class="cls-1" d="M58.83,54a1.22,1.22,0,0,1-.3.9,4.87,4.87,0,0,1-1,.8,3.85,3.85,0,0,0-1.1.8.52.52,0,0,0-.2.4h2.7v.6h-3.4a2,2,0,0,1,.4-1.3,4.25,4.25,0,0,1,1.4-1.1,6.82,6.82,0,0,0,.7-.5,1.42,1.42,0,0,0,.2-.6.6.6,0,0,0-.3-.6.84.84,0,0,0-.7-.2.91.91,0,0,0-.7.3,1.22,1.22,0,0,0-.3.9h-.6a1.84,1.84,0,0,1,.4-1.3,1.66,1.66,0,0,1,1.2-.5,1.37,1.37,0,0,1,1.1.4A1.11,1.11,0,0,1,58.83,54Z"/><path class="cls-1" d="M59.43,56.32v-.6l2.3-3.2h.6v3.2H63v.5h-.7v1.2h-.6v-1.2h-2.3Zm2.1-.5v-2.2l-1.6,2.2h1.6Z"/><path class="cls-1" d="M90.33,54a1.22,1.22,0,0,1-.3.9,4.87,4.87,0,0,1-1,.8,3.85,3.85,0,0,0-1.1.8.52.52,0,0,0-.2.4h2.7v.6H87a2,2,0,0,1,.4-1.3,4.25,4.25,0,0,1,1.4-1.1,6.82,6.82,0,0,0,.7-.5,1.42,1.42,0,0,0,.2-.6.6.6,0,0,0-.3-.6.84.84,0,0,0-.7-.2.91.91,0,0,0-.7.3,1.22,1.22,0,0,0-.3.9h-.6a1.84,1.84,0,0,1,.4-1.3,1.66,1.66,0,0,1,1.2-.5,1.37,1.37,0,0,1,1.1.4A1.11,1.11,0,0,1,90.33,54Z"/><path class="cls-1" d="M92.83,52.62a1.37,1.37,0,0,1,1.4,1.4h-.6a.86.86,0,0,0-.3-.6c-.2-.2-.3-.2-.6-.2a1.05,1.05,0,0,0-.9.5,2.27,2.27,0,0,0-.3,1.3,1.43,1.43,0,0,1,1.2-.6,1.37,1.37,0,0,1,1.1.4,1.59,1.59,0,0,1,.4,1.2,1.66,1.66,0,0,1-.5,1.2,1.59,1.59,0,0,1-1.2.4,1.31,1.31,0,0,1-1.2-.6,3,3,0,0,1-.4-1.8,3.68,3.68,0,0,1,.5-2A1.68,1.68,0,0,1,92.83,52.62ZM91.73,56a1.14,1.14,0,0,0,.3.8,1,1,0,0,0,1.4,0,1.22,1.22,0,0,0,0-1.6,1,1,0,0,0-1.4,0A1.14,1.14,0,0,0,91.73,56Z"/><path class="cls-4" d="M41.53,71a.9.9,0,0,0,.5-.1h.3a1.76,1.76,0,0,1,.6-.1H43a.1.1,0,0,1,.1.1L42,74.82q.6-.75.9-1.2a2,2,0,0,1,1.1-.7.6.6,0,0,1,.4.1.59.59,0,0,1,.2.5v.2c0,.1,0,.2-.1.2l-.6,2.1v.4H44c.1,0,.2-.1.3-.2s.2-.3.4-.5l.1.1c-.2.3-.4.5-.5.7-.3.2-.5.4-.8.4a.35.35,0,0,1-.4-.4v-.2l.7-2.6v-.2c0-.1,0-.1-.1-.2a.35.35,0,0,0-.2-.1c-.2,0-.4.2-.7.5a8.74,8.74,0,0,0-.8,1c-.1.2-.2.5-.3.7s-.2.7-.4,1.4h-.7l1.5-5.3v-.2c0-.1,0-.2-.1-.2h-.5Z"/></svg>
