<svg id="Layer_1" data-name="Layer 1" xmlns="http://www.w3.org/2000/svg" viewBox="0 0 144 144" width="144" height="144" preserveAspectRatio="none"><defs><style>.cls-1,.cls-3{opacity:1;}.cls-2,.cls-3,.cls-5{fill:#fff;}.cls-3,.cls-5{isolation:isolate;}.cls-4,.cls-5{opacity:1;}</style></defs><title>Math Jazz 25NoBG</title><g class="cls-1"><path class="cls-2" d="M55.53,70.35v-.8l2.9-4.1H59v4.1h.9v.7H59v1.5h-.8v-1.5h-2.7Zm2.8-.6v-2.9l-2,2.8v.1Z"/></g><g class="cls-1"><path class="cls-2" d="M59,78.15a.91.91,0,0,0-.3-.7,1.5,1.5,0,0,0-1.8,0,1.49,1.49,0,0,0-.3,1h-.8a2.07,2.07,0,0,1,.5-1.5,1.72,1.72,0,0,1,1.5-.5,2.46,2.46,0,0,1,1.5.5,1.5,1.5,0,0,1,0,2.4l-.2.2c.2.1.3.1.4.2a1.49,1.49,0,0,1,.6,1.3,2,2,0,0,1-.6,1.5,2.11,2.11,0,0,1-1.6.6,2.54,2.54,0,0,1-1.6-.5,2,2,0,0,1-.6-1.6h.8a1.82,1.82,0,0,0,.4,1.1,1.33,1.33,0,0,0,1,.3,1.69,1.69,0,0,0,1-.3,1.27,1.27,0,0,0,.4-.9,1,1,0,0,0-.4-.9,1.14,1.14,0,0,0-.8-.3h-.7v-.7h.7a.6.6,0,0,0,.6-.3C58.83,78.65,59,78.45,59,78.15Z"/></g><rect class="cls-3" x="54.23" y="73.85" width="7.2" height="0.8"/><g class="cls-4"><path class="cls-2" d="M90,67.45h-1.5v-.9a2.28,2.28,0,0,0,1.1-.3,1.78,1.78,0,0,0,.7-.8h1v6.4h-1.2v-4.4Z"/><path class="cls-2" d="M95.53,65.55a1.9,1.9,0,0,1,1.3.5,1.66,1.66,0,0,1,.5,1.2h-1.2a.68.68,0,0,0-.7-.7h-.1a.79.79,0,0,0-.8.5,10.38,10.38,0,0,0-.3,1.2,1.46,1.46,0,0,1,1.2-.5,1.82,1.82,0,0,1,1.4.6,2,2,0,0,1,.5,1.5,2.06,2.06,0,0,1-2.2,2.2,1.82,1.82,0,0,1-1.6-.8,3.84,3.84,0,0,1-.6-2.4,4.76,4.76,0,0,1,.6-2.6,2,2,0,0,1,1.7-.8Zm-1.2,4.3a1.14,1.14,0,0,0,.3.8,1,1,0,0,0,1.4,0c.2-.2.2-.5.2-.9a1.14,1.14,0,0,0-.3-.8,1,1,0,0,0-1.4,0A2.92,2.92,0,0,0,94.33,69.85Z"/></g><g class="cls-4"><path class="cls-2" d="M90,78.25h-1.5v-.9a2.28,2.28,0,0,0,1.1-.3,1.78,1.78,0,0,0,.7-.8h1v6.4h-1.2v-4.4Z"/><path class="cls-2" d="M97.43,78.35a2.13,2.13,0,0,1-.3,1.2,5.21,5.21,0,0,1-1.3,1.1,4.43,4.43,0,0,0-1.2,1h2.8v1.1H93a2.41,2.41,0,0,1,.4-1.5,9.24,9.24,0,0,1,1.7-1.5,6.53,6.53,0,0,0,.8-.7,1.33,1.33,0,0,0,0-1.4,1,1,0,0,0-1.4,0c-.2.2-.2.5-.2.9h-1.2a3.1,3.1,0,0,1,.5-1.7,2.11,2.11,0,0,1,1.6-.6,2,2,0,0,1,1.5.6A1.8,1.8,0,0,1,97.43,78.35Z"/></g><rect class="cls-5" x="87.03" y="73.85" width="11.5" height="0.8"/><g class="cls-1"><path class="cls-2" d="M72.33,59.15l-1.4,1.4-.4-.4,1.4-1.4-1.4-1.4.4-.4,1.4,1.4,1.4-1.4.4.4-1.4,1.4,1.4,1.4-.4.4Z"/><path class="cls-2" d="M75.33,59.75v-.5l2.3-3.3h.6v3.3h.7v.5h-.7V61h-.6v-1.2Zm2.3-.5V57L76,59.25h1.6Z"/></g><g class="cls-1"><path class="cls-2" d="M71.33,72.85h6.1v.9h-6.1Zm0,2.4h6.1v.9h-6.1Z"/></g><g class="cls-4"><path class="cls-2" d="M62.63,66.85h.2c.1,0,9.6-4.4,17.8-1.3a5.21,5.21,0,0,1-1.4,1.6l7.4.6-5.3-5.2a5.84,5.84,0,0,1-.3,2.2c-8.5-3.3-18.2,1.1-18.6,1.3a.48.48,0,0,0-.2.7A1,1,0,0,0,62.63,66.85Z"/><path class="cls-2" d="M80.63,83.65c-8.1,3.1-17.7-1.2-17.8-1.3a.51.51,0,1,0-.5.9,31.35,31.35,0,0,0,11.6,2.5,19.12,19.12,0,0,0,7-1.2,5.84,5.84,0,0,1,.3,2.2l5.3-5.2-7.4.6A3.61,3.61,0,0,1,80.63,83.65Z"/></g><g class="cls-1"><path class="cls-2" d="M72.33,91.15l-1.4,1.4-.4-.4,1.4-1.4-1.4-1.4.4-.4,1.4,1.4,1.4-1.4.4.4-1.4,1.4,1.4,1.4-.4.4Z"/><path class="cls-2" d="M75.33,91.75v-.5l2.3-3.3h.6v3.3h.7v.5h-.7V93h-.6v-1.2Zm2.3-.5V89L76,91.25h1.6Z"/></g></svg>
