<svg id="Layer_1" data-name="Layer 1" xmlns="http://www.w3.org/2000/svg" viewBox="0 0 144 144" width="144" height="144" preserveAspectRatio="none"><defs><style>.cls-1,.cls-2{fill:#fff;isolation:isolate;}.cls-1{opacity:0.4;}.cls-2{opacity:0.3;}</style></defs><title>Math Jazz 27NoBG</title><path class="cls-1" d="M76.57,95.05H38l56.8-46.8.6.4Zm-36.5-.7h36l18-44.5Z"/><polygon class="cls-2" points="40.07 94.35 76.07 94.35 94.07 49.75 40.07 94.35"/><path class="cls-1" d="M33,93.35h1l2.3,6.5h-1l-.7-1.9H32l-.7,1.9h-.9Zm-.6,3.8h2l-1-2.9h0Z"/><path class="cls-1" d="M56.27,102.35a.37.37,0,0,1,.3-.1h.1a.1.1,0,0,1,.1.1l.2.1h.2c.1,0,.2,0,.2-.1a3.61,3.61,0,0,0,.4-.5c.1-.2.4-.6.9-1.3a2.8,2.8,0,0,0-.1-.6,5.07,5.07,0,0,1-.2-.9c-.1-.3-.1-.4-.2-.5a.37.37,0,0,0-.3-.1c-.1,0-.1,0-.3.1a.37.37,0,0,0-.3.1v-.2l.6-.2a.76.76,0,0,1,.4-.1h.3c.2,0,.3,0,.3.1a2.19,2.19,0,0,1,.3.8l.1.6a4.87,4.87,0,0,1,.8-1,1.76,1.76,0,0,1,.5-.4.6.6,0,0,1,.4-.1.37.37,0,0,1,.3.1.52.52,0,0,1,.2.4.35.35,0,0,1-.4.4h-.2l-.1-.1h-.2c-.2,0-.4.2-.7.6a2.77,2.77,0,0,0-.4.7,1.34,1.34,0,0,0,.1.5c.1.3.1.6.2.9s.1.5.2.6.2.3.3.3.2-.1.3-.2a3.81,3.81,0,0,0,.5-.6l.2.1a4.23,4.23,0,0,1-.5.7,1.21,1.21,0,0,1-.9.6c-.2,0-.3-.1-.4-.3s-.1-.3-.2-.5l-.3-1.3-1.1,1.4a2.25,2.25,0,0,1-.5.5.6.6,0,0,1-.4.1.76.76,0,0,1-.5-.2c0-.1-.1-.2-.1-.3C56.17,102.55,56.17,102.45,56.27,102.35Z"/><path class="cls-1" d="M79.07,93.35h2.8a1.7,1.7,0,0,1,1.3.4,1.59,1.59,0,0,1-.1,2.4c-.1.1-.2.1-.3.2l.6.3A1.49,1.49,0,0,1,84,98a1.68,1.68,0,0,1-.6,1.4,2.86,2.86,0,0,1-1.7.5h-2.6Zm.8,2.7h1.6a1.33,1.33,0,0,0,1-.3,1,1,0,0,0,.3-.8.78.78,0,0,0-.3-.7c-.2-.2-.5-.2-1-.2h-1.6Zm0,3h1.8a1.61,1.61,0,0,0,1.1-.3,1.22,1.22,0,0,0,.3-.9.81.81,0,0,0-.4-.8,1.61,1.61,0,0,0-1.1-.3h-1.7Z"/><path class="cls-1" d="M100.77,45.55a3.1,3.1,0,0,1-.9,1.9,2.49,2.49,0,0,1-1.9.7,2.58,2.58,0,0,1-2.1-.9,4.31,4.31,0,0,1,0-5,3.08,3.08,0,0,1,4-.3,1.94,1.94,0,0,1,.8,1.6h-.8a1.7,1.7,0,0,0-.6-1,2.13,2.13,0,0,0-1.2-.3,1.68,1.68,0,0,0-1.5.7,2.88,2.88,0,0,0-.6,1.9,3.68,3.68,0,0,0,.5,2,2.13,2.13,0,0,0,1.5.7,1.66,1.66,0,0,0,1.2-.5,2.33,2.33,0,0,0,.7-1.3h.9Z"/><path class="cls-1" d="M86.77,79.25a.37.37,0,0,1,.3-.1h.1a.1.1,0,0,1,.1.1l.2.1h.2c.1,0,.2,0,.2-.1a3.61,3.61,0,0,0,.4-.5c.1-.2.4-.6.9-1.3a2.8,2.8,0,0,0-.1-.6,5.07,5.07,0,0,1-.2-.9c-.1-.3-.1-.4-.2-.5a.37.37,0,0,0-.3-.1c-.1,0-.1,0-.3.1a.37.37,0,0,0-.3.1v-.2l.6-.2a.76.76,0,0,1,.4-.1h.3c.2,0,.3,0,.3.1a2.19,2.19,0,0,1,.3.8l.1.6a4.87,4.87,0,0,1,.8-1,1.76,1.76,0,0,1,.5-.4.6.6,0,0,1,.4-.1.37.37,0,0,1,.3.1.52.52,0,0,1,.2.4.35.35,0,0,1-.4.4h-.2l-.1-.1h-.2c-.2,0-.4.2-.7.6a2.77,2.77,0,0,0-.4.7,1.34,1.34,0,0,0,.1.5c.1.3.1.6.2.9s.1.5.2.6.2.3.3.3.2-.1.3-.2a3.81,3.81,0,0,0,.5-.6l.2.1a4.23,4.23,0,0,1-.5.7,1.21,1.21,0,0,1-.9.6c-.2,0-.3-.1-.4-.3s-.1-.3-.2-.5l-.3-1.3-1.1,1.4a2.25,2.25,0,0,1-.5.5.6.6,0,0,1-.4.1.76.76,0,0,1-.5-.2c0-.1-.1-.2-.1-.3C86.67,79.45,86.67,79.35,86.77,79.25Z"/><path class="cls-1" d="M102.57,75.35a.91.91,0,0,0-.3-.7,1.5,1.5,0,0,0-1.8,0,1.49,1.49,0,0,0-.3,1h-.8a2.07,2.07,0,0,1,.5-1.5,1.72,1.72,0,0,1,1.5-.5,2.46,2.46,0,0,1,1.5.5,1.5,1.5,0,0,1,0,2.4l-.2.2c.2.1.3.1.4.2a1.49,1.49,0,0,1,.6,1.3,2,2,0,0,1-.6,1.5,2.11,2.11,0,0,1-1.6.6,2.54,2.54,0,0,1-1.6-.5,2,2,0,0,1-.6-1.6h.8a1.82,1.82,0,0,0,.4,1.1,1.33,1.33,0,0,0,1,.3,1.69,1.69,0,0,0,1-.3,1.27,1.27,0,0,0,.4-.9,1,1,0,0,0-.4-.9,1.14,1.14,0,0,0-.8-.3H101v-.7h.7a.6.6,0,0,0,.6-.3A1.9,1.9,0,0,0,102.57,75.35Z"/><path class="cls-1" d="M49.27,69.35a.37.37,0,0,1,.3-.1h.1a.1.1,0,0,1,.1.1l.2.1h.2c.1,0,.2,0,.2-.1a3.61,3.61,0,0,0,.4-.5c.1-.2.4-.6.9-1.3a2.8,2.8,0,0,0-.1-.6,5.07,5.07,0,0,1-.2-.9c-.1-.3-.1-.4-.2-.5a.37.37,0,0,0-.3-.1c-.1,0-.1,0-.3.1a.37.37,0,0,0-.3.1v-.2l.6-.2a.76.76,0,0,1,.4-.1h.3c.2,0,.3,0,.3.1a2.19,2.19,0,0,1,.3.8l.1.6a4.87,4.87,0,0,1,.8-1,1.76,1.76,0,0,1,.5-.4.6.6,0,0,1,.4-.1.37.37,0,0,1,.3.1.52.52,0,0,1,.2.4.35.35,0,0,1-.4.4h-.2l-.1-.1h-.2c-.2,0-.4.2-.7.6a2.77,2.77,0,0,0-.4.7,1.34,1.34,0,0,0,.1.5c.1.3.1.6.2.9s.1.5.2.6.2.3.3.3.2-.1.3-.2a3.81,3.81,0,0,0,.5-.6l.2.1a4.23,4.23,0,0,1-.5.7,1.21,1.21,0,0,1-.9.6c-.2,0-.3-.1-.4-.3s-.1-.3-.2-.5l-.3-1.3-1.1,1.4a2.25,2.25,0,0,1-.5.5.6.6,0,0,1-.4.1.76.76,0,0,1-.5-.2c0-.1-.1-.2-.1-.3C49.17,69.55,49.17,69.45,49.27,69.35Z"/><polygon class="cls-1" points="95.67 76.75 95.67 74.75 95.07 74.75 95.07 76.75 93.07 76.75 93.07 77.45 95.07 77.45 95.07 79.35 95.67 79.35 95.67 77.45 97.67 77.45 97.67 76.75 95.67 76.75"/><polygon class="cls-1" points="58.17 64.95 57.57 64.95 57.57 66.85 55.57 66.85 55.57 67.55 57.57 67.55 57.57 69.45 58.17 69.45 58.17 67.55 60.17 67.55 60.17 66.85 58.17 66.85 58.17 64.95"/><path class="cls-1" d="M65,66.65c.2.1.3.2.5.3a1.49,1.49,0,0,1,.6,1.3,1.68,1.68,0,0,1-.6,1.4,2.81,2.81,0,0,1-3.2,0,1.68,1.68,0,0,1-.6-1.4,1.76,1.76,0,0,1,.6-1.3,2.19,2.19,0,0,1,.5-.3c-.1-.1-.2-.1-.3-.2a1.17,1.17,0,0,1-.5-1.1,1.66,1.66,0,0,1,.5-1.2,2.21,2.21,0,0,1,2.8,0,1.35,1.35,0,0,1,.5,1.2,1.43,1.43,0,0,1-.5,1.1C65.17,66.55,65.07,66.65,65,66.65Zm-1.1.4a1.22,1.22,0,0,0-.9.3,1.27,1.27,0,0,0-.4.9,1,1,0,0,0,.4.9,1.61,1.61,0,0,0,.9.3,1.4,1.4,0,0,0,.9-.3,1.27,1.27,0,0,0,.4-.9,1,1,0,0,0-.4-.9A1.22,1.22,0,0,0,63.87,67.05Zm0-.7a1.14,1.14,0,0,0,.8-.3,1,1,0,0,0,0-1.4,1.22,1.22,0,0,0-1.6,0,1,1,0,0,0,0,1.4A1.14,1.14,0,0,0,63.87,66.35Z"/></svg>
