<svg id="Layer_1" data-name="Layer 1" xmlns="http://www.w3.org/2000/svg" viewBox="0 0 144 144" width="144" height="144" preserveAspectRatio="none"><defs><style>.cls-1{opacity:0.4;}.cls-2{fill:#fff;}</style></defs><title>Math Jazz 7NoBG</title><g class="cls-1"><path class="cls-2" d="M100,74.21h2.2a1.49,1.49,0,0,1,1,.3,1.27,1.27,0,0,1,.4.9,1.39,1.39,0,0,1-.5,1c-.1.1-.1.1-.2.1.2.1.3.1.4.2a1.23,1.23,0,0,1,.5,1,1.43,1.43,0,0,1-.5,1.1,1.84,1.84,0,0,1-1.3.4h-2v-5Zm.7,2.1h1.2a1.55,1.55,0,0,0,.8-.2.6.6,0,0,0,.3-.6,1.07,1.07,0,0,0-.2-.6c-.1-.2-.4-.2-.7-.2h-1.3v1.6Zm0,2.3h1.4a2,2,0,0,0,.9-.2.91.91,0,0,0,.3-.7.6.6,0,0,0-.3-.6,2,2,0,0,0-.9-.2h-1.3v1.7Z"/></g><g class="cls-1"><rect class="cls-2" x="71.69" y="71.48" width="0.8" height="3.2" transform="matrix(0.86, -0.52, 0.52, 0.86, -27.38, 47.71)"/><rect class="cls-2" x="75.07" y="76.95" width="0.8" height="3.2" transform="translate(-29.72 50.25) rotate(-31.08)"/><rect class="cls-2" x="78.43" y="82.57" width="0.8" height="3.2" transform="translate(-32.13 52.77) rotate(-31.08)"/><path class="cls-2" d="M67.79,65.61l-15.1,26.2h30.6l13.2-14.6Zm.2,1.3,1.3,2.2.7-.4-1.1-1.9,26.4,10.6-12,13.3L81.69,88l-.7.4,1.5,2.6H54Z"/></g><g class="cls-1"><path class="cls-2" d="M67.09,58.71h.8l1.8,5h-.8l-.5-1.5h-2l-.5,1.5h-.7Zm-.4,2.9h1.6l-.8-2.2h0Z"/></g><g class="cls-1"><path class="cls-2" d="M90.19,95.41a2.63,2.63,0,0,1-.7,1.5,2,2,0,0,1-1.5.5,2.19,2.19,0,0,1-1.7-.7,2.88,2.88,0,0,1-.6-1.9,2.71,2.71,0,0,1,.6-1.9,2.06,2.06,0,0,1,1.7-.7,2.12,2.12,0,0,1,1.4.4,1.85,1.85,0,0,1,.7,1.2h-.7a1.37,1.37,0,0,0-.5-.8,1.4,1.4,0,0,0-.9-.3,1.43,1.43,0,0,0-1.2.6,2.41,2.41,0,0,0-.4,1.5,2.08,2.08,0,0,0,.4,1.5,1.66,1.66,0,0,0,1.2.5,1.28,1.28,0,0,0,1-.4,1.91,1.91,0,0,0,.5-1Z"/></g><g class="cls-1"><path class="cls-2" d="M46.49,92.31h2A1.8,1.8,0,0,1,50,93a2.79,2.79,0,0,1,.6,1.8,2.44,2.44,0,0,1-.6,1.8,1.86,1.86,0,0,1-1.6.7h-2v-5Zm.7,4.4h1.2a1.29,1.29,0,0,0,1.1-.5,2.65,2.65,0,0,0,0-2.8,1.43,1.43,0,0,0-1.1-.5h-1.3v3.8Z"/></g></svg>
