<svg id="Layer_1" data-name="Layer 1" xmlns="http://www.w3.org/2000/svg" viewBox="0 0 144 144" width="144" height="144" preserveAspectRatio="none"><defs><style>.cls-1,.cls-4{fill:#fff;isolation:isolate;}.cls-1{opacity:0.3;}.cls-2{fill:none;}.cls-3{fill:#231f20;}.cls-4{opacity:0.4;}</style></defs><title>Math Jazz 16NoBG</title><path class="cls-1" d="M63.89,83.41a6.57,6.57,0,0,0-1.7-1.2,8.14,8.14,0,1,0,3.4,11,8.36,8.36,0,0,0-.5-8.5,1.76,1.76,0,0,0-.4-.5A6,6,0,0,0,63.89,83.41Z"/><path class="cls-1" d="M95.69,100.21A6.57,6.57,0,0,0,94,99a7.47,7.47,0,0,0-4.1-.9h-.6a8.14,8.14,0,1,0,8.1,11.9A7.94,7.94,0,0,0,95.69,100.21Z"/><path class="cls-1" d="M35.19,44.41a6.57,6.57,0,0,0-1.7-1.2,8.08,8.08,0,1,0,3.2,3c-.1-.2-.2-.3-.3-.5A5,5,0,0,0,35.19,44.41Z"/><path class="cls-2" d="M33.49,43.21a8.08,8.08,0,1,0,3.2,3h0c-.1-.2-.2-.3-.3-.5h0a6.89,6.89,0,0,0-1.1-1.3A7.07,7.07,0,0,0,33.49,43.21Z"/><path class="cls-1" d="M86,73.91l-19.8-27.5-.1-.1h0l-.1-.1-28.5-.7c.1.2.2.3.3.5l28.2.7,19.7,27.4.1.1h.3C86,74.21,86.09,74.11,86,73.91Z"/><path class="cls-3" d="M36.69,46.11h0c-.1-.2-.2-.3-.3-.5h0A2.19,2.19,0,0,0,36.69,46.11Z"/><path class="cls-4" d="M37.69,46.21c-.1-.2-.2-.3-.3-.5a7,7,0,0,0-1.6-1.9,8,8,0,0,0-1.9-1.3,9,9,0,1,0,3.8,12.2A9.42,9.42,0,0,0,37.69,46.21Zm-11.8,11.4a8.14,8.14,0,1,1,7.6-14.4,6.57,6.57,0,0,1,1.7,1.2,6.89,6.89,0,0,1,1.1,1.3c.1.2.2.3.3.5a7.9,7.9,0,0,1,.2,8A8.06,8.06,0,0,1,25.89,57.61Z"/><path class="cls-4" d="M61.59,39.31l.2-.3.2-.3,4.5-2.2.3.2.3.2-1.9,3.7.8.4-.3.6-.8-.4-.7,1.3-.7-.4.7-1.3Zm2.8.7,1.3-2.5-3.1,1.6h-.1Z"/><path class="cls-4" d="M66.19,42.61a3.88,3.88,0,0,1,.6-2.4,5.19,5.19,0,0,1,1.6-1.9,1.91,1.91,0,0,1,1.8,0,1.64,1.64,0,0,1,1,1.5,3.88,3.88,0,0,1-.6,2.4,5.19,5.19,0,0,1-1.6,1.9,1.91,1.91,0,0,1-1.8,0A2.05,2.05,0,0,1,66.19,42.61Zm2.6.8a4.9,4.9,0,0,0,1.2-1.5,4.16,4.16,0,0,0,.6-1.8,1,1,0,0,0-.6-1,1.06,1.06,0,0,0-1.2.1,4.9,4.9,0,0,0-1.2,1.5,4.61,4.61,0,0,0-.6,1.8,1,1,0,0,0,.6,1A1.06,1.06,0,0,0,68.79,43.41Z"/><path class="cls-4" d="M74.89,40.81a2.4,2.4,0,0,1,1,1,1.5,1.5,0,0,1-.1,1.3l-.7-.4a2.49,2.49,0,0,0,.1-.8,2.65,2.65,0,0,0-.5-.6,1.23,1.23,0,0,0-1.3.1,2.92,2.92,0,0,0-1.1,1.3,2,2,0,0,1,1.7,0,2,2,0,0,1,1,1.2,2.32,2.32,0,0,1-.2,1.6,2.13,2.13,0,0,1-1.2,1.1,2.1,2.1,0,0,1-1.7-.2,1.64,1.64,0,0,1-1-1.5,3.76,3.76,0,0,1,.6-2.3,4,4,0,0,1,1.7-1.9A2.06,2.06,0,0,1,74.89,40.81ZM71.59,44a1.21,1.21,0,0,0-.1,1,1.56,1.56,0,0,0,.6.8,1.18,1.18,0,0,0,1,.1,1.78,1.78,0,0,0,.8-.7,1.42,1.42,0,0,0,.1-1.1,1.56,1.56,0,0,0-.6-.8,1.18,1.18,0,0,0-1-.1A2,2,0,0,0,71.59,44Z"/><path class="cls-4" d="M81.29,76.21a1.42,1.42,0,0,1-.9.8,5.79,5.79,0,0,1-1.7.3,4.18,4.18,0,0,0-1.8.3c-.2.1-.3.2-.5.3l3,1.6-.4.7-3.8-2h0a2.33,2.33,0,0,1,1.2-1.2,9.67,9.67,0,0,1,2.3-.4,2.68,2.68,0,0,0,1.1-.2,1.7,1.7,0,0,0,.6-.6,1,1,0,0,0,.1-.9,1.2,1.2,0,0,0-.7-.7,1.18,1.18,0,0,0-1-.1,2.17,2.17,0,0,0-.9.8l-.7-.4a2.19,2.19,0,0,1,1.3-1.2,2.28,2.28,0,0,1,2.7,1.3C81.59,75.31,81.59,75.81,81.29,76.21Z"/><path class="cls-4" d="M80.69,80.21a3.88,3.88,0,0,1,.6-2.4,5.19,5.19,0,0,1,1.6-1.9,1.91,1.91,0,0,1,1.8,0,1.64,1.64,0,0,1,1,1.5,3.88,3.88,0,0,1-.6,2.4,5.19,5.19,0,0,1-1.6,1.9,1.91,1.91,0,0,1-1.8,0A2.05,2.05,0,0,1,80.69,80.21Zm2.6.8a4.9,4.9,0,0,0,1.2-1.5,4.16,4.16,0,0,0,.6-1.8,1,1,0,0,0-.6-1,1.06,1.06,0,0,0-1.2.1,4.9,4.9,0,0,0-1.2,1.5,4.61,4.61,0,0,0-.6,1.8,1,1,0,0,0,.6,1A1.06,1.06,0,0,0,83.29,81Z"/><path class="cls-4" d="M89.39,80.41c.1-.3.2-.5,0-.8a1.34,1.34,0,0,0-.6-.7,1,1,0,0,0-.9-.1c-.3.1-.5.4-.8.8l-.7-.4a1.84,1.84,0,0,1,1.2-1.1,1.87,1.87,0,0,1,1.6.2,2.35,2.35,0,0,1,1.1,1.1,1.23,1.23,0,0,1-.1,1.3,1.59,1.59,0,0,1-1,.8h-.3a.76.76,0,0,1,.2.4,1.41,1.41,0,0,1-.1,1.4,2,2,0,0,1-1.2,1,2.6,2.6,0,0,1-1.7-.2,2.33,2.33,0,0,1-1.2-1.2,2.13,2.13,0,0,1,.2-1.7l.7.4a1.47,1.47,0,0,0-.1,1.1,1.2,1.2,0,0,0,.7.7,1.18,1.18,0,0,0,1,.1,1.06,1.06,0,0,0,.7-.6,1,1,0,0,0,.1-.9.9.9,0,0,0-.6-.6c-.1-.1-.3-.1-.4-.2a.31.31,0,0,0-.2-.1l.3-.6c.1,0,.1.1.3.2l.4.2a1.7,1.7,0,0,0,.7.1A1.44,1.44,0,0,0,89.39,80.41Z"/><path class="cls-1" d="M55.79,91.71a10.23,10.23,0,0,1,2-2.2,14.92,14.92,0,0,1,2.4-1.4l-2.8-1.5.5-1,4,2.1-.2.4-.2.4a7.64,7.64,0,0,0-2.6,1.5,8.33,8.33,0,0,0-2,2.2Z"/><path class="cls-1" d="M32.09,50.31a2,2,0,0,1-.9.9,5.29,5.29,0,0,1-1.6.4,9.59,9.59,0,0,0-1.5.3h0l2.5,1.3-.5,1-3.9-2h0a2.35,2.35,0,0,1,1.1-1.1,8,8,0,0,1,2.2-.5c.4-.1.8-.1,1-.3a1.21,1.21,0,0,0,.5-.5c.1-.3.2-.5.1-.7a.82.82,0,0,0-.5-.5.85.85,0,0,0-.7,0,1.44,1.44,0,0,0-.6.7l-1.1-.6a2.19,2.19,0,0,1,1.3-1.2,2.1,2.1,0,0,1,1.7.2,2.13,2.13,0,0,1,1.1,1.2A2.4,2.4,0,0,1,32.09,50.31Z"/><path class="cls-2" d="M83,102.41a8.14,8.14,0,0,0,14.4,7.6,8.21,8.21,0,0,0-1.7-9.8A6.57,6.57,0,0,0,94,99a7.47,7.47,0,0,0-4.1-.9h-.5A7.87,7.87,0,0,0,83,102.41Z"/><path class="cls-2" d="M62.19,82.21a8,8,0,1,0,2.9,2.5,1.76,1.76,0,0,0-.4-.5h0a3,3,0,0,0-.8-.8A6.57,6.57,0,0,0,62.19,82.21Z"/><path class="cls-1" d="M80.79,84.21l-.6-.3-14.6.3c.1.2.2.3.3.5l14.3-.3,8.5,12.9a4.33,4.33,0,0,0,.5-.1Z"/><path class="cls-3" d="M65,84.71a1.76,1.76,0,0,0-.4-.5h0A1.76,1.76,0,0,1,65,84.71Z"/><path class="cls-4" d="M66,84.71c-.1-.2-.2-.3-.3-.5a17.41,17.41,0,0,0-1.2-1.4,8,8,0,0,0-1.9-1.3,9,9,0,1,0,3.8,12.2A9.27,9.27,0,0,0,66,84.71Zm-11.4,11.9a8.14,8.14,0,1,1,7.6-14.4,6.57,6.57,0,0,1,1.7,1.2l.8.8c.1.2.3.3.4.5a8.17,8.17,0,0,1-10.5,11.9Z"/><path class="cls-4" d="M96.29,99.51a8,8,0,0,0-1.9-1.3,9,9,0,0,0-5-1,.75.75,0,0,0-.5.1,9,9,0,1,0,9.4,13.1A9.33,9.33,0,0,0,96.29,99.51Zm-9.9,13.9a8.15,8.15,0,0,1,2.9-15.3h.5a7.47,7.47,0,0,1,4.1.9,6.57,6.57,0,0,1,1.7,1.2,8.21,8.21,0,0,1,1.7,9.8A8,8,0,0,1,86.39,113.41Z"/><path class="cls-1" d="M90.59,105.11a2,2,0,0,1-.9.9,5.29,5.29,0,0,1-1.6.4,9.59,9.59,0,0,0-1.5.3h0l2.5,1.3-.5,1-3.9-2h0a2.35,2.35,0,0,1,1.1-1.1,8,8,0,0,1,2.2-.5c.4-.1.8-.1,1-.3a1.21,1.21,0,0,0,.5-.5c.1-.3.2-.5.1-.7a.82.82,0,0,0-.5-.5.85.85,0,0,0-.7,0,1.44,1.44,0,0,0-.6.7l-1.1-.6a2.19,2.19,0,0,1,1.3-1.2,2.1,2.1,0,0,1,1.7.2,2.13,2.13,0,0,1,1.1,1.2A1.81,1.81,0,0,1,90.59,105.11Z"/><path class="cls-1" d="M90.79,110.41a1.71,1.71,0,0,1-.9-1,1.5,1.5,0,0,1,.1-1.3l1.1.6a.9.9,0,0,0-.1.5,1.38,1.38,0,0,0,.3.4h.1a.92.92,0,0,0,1-.1,2.9,2.9,0,0,0,.8-1,1.72,1.72,0,0,1-1.4-.1,2,2,0,0,1-.8-2.8,2,2,0,0,1,1.3-1.1,2.06,2.06,0,0,1,1.7.2,1.92,1.92,0,0,1,1.1,1.5,4,4,0,0,1-.6,2.4,4,4,0,0,1-1.8,2,1.87,1.87,0,0,1-1.9-.1Zm3.1-3.3a1,1,0,0,0,.1-.9c-.1-.3-.2-.5-.5-.6a1.13,1.13,0,0,0-.8-.1,1.44,1.44,0,0,0-.6.7.8.8,0,0,0-.1.8c.1.3.2.5.5.6a1.13,1.13,0,0,0,.8.1A1.7,1.7,0,0,0,93.89,107.11Z"/></svg>
