<svg id="Layer_1" data-name="Layer 1" xmlns="http://www.w3.org/2000/svg" viewBox="0 0 144 144" width="144" height="144" preserveAspectRatio="none"><defs><style>.cls-1,.cls-3{fill:#fff;}.cls-1,.cls-2{opacity:0.4;}.cls-1{isolation:isolate;}.cls-4{opacity:0.3;}</style></defs><title>Math Jazz 4NoBG</title><path class="cls-1" d="M100,92.75V74.85H91V57H82V39H63.75v17.9h-9v17.9h-9v17.9h-9v18.2h71.8V92.65H100Zm-9.4-35.3v17.2H73.45V57.45Zm-26.2-18h17.2v17.2H64.35V39.45Zm-9,18h17.2v17.2H55.35Zm-.7,53H37.45V93.25h17.2Zm-8.2-17.9V75.35h17.2v17.2Zm26.1,17.9H55.35V93.25h17.2Zm-8.2-17.9V75.35h5.9a17.74,17.74,0,0,1,3.2-.2,4.25,4.25,0,0,1,1.1.2h7v17.2Zm26.2,17.9H73.35V93.25h17.2Zm-8.2-17.9V75.35h17.2v17.2Zm26.1,17.9H91.25V93.25h17.2Z"/><g class="cls-2"><path class="cls-3" d="M73.85,32.15a2.13,2.13,0,0,1-.3,1.2,5.21,5.21,0,0,1-1.3,1.1,4.43,4.43,0,0,0-1.2,1h2.8v1.1h-4.4a2.41,2.41,0,0,1,.4-1.5,9.24,9.24,0,0,1,1.7-1.5,6.53,6.53,0,0,0,.8-.7,1.33,1.33,0,0,0,0-1.4,1,1,0,0,0-1.4,0c-.2.2-.2.5-.2.9h-1.2a3.1,3.1,0,0,1,.5-1.7,2.11,2.11,0,0,1,1.6-.6,2,2,0,0,1,1.5.6A1.8,1.8,0,0,1,73.85,32.15Z"/></g><g class="cls-2"><path class="cls-3" d="M77.15,31.85a1.38,1.38,0,0,1-1.5,1.5,1.22,1.22,0,0,1-.9-.3,1.27,1.27,0,0,1-.4-.9h.8a.52.52,0,0,0,.2.4c.1.1.2.1.4.1a.52.52,0,0,0,.4-.2.76.76,0,0,0,.2-.5,1.42,1.42,0,0,0-.2-.6.76.76,0,0,0-.4-.2.37.37,0,0,0-.3.1c-.1.1-.2.1-.2.2h-.7l.3-2.3h2.3v.7h-1.7l-.1.9a1.85,1.85,0,0,1,.7-.2,1,1,0,0,1,.9.4A1.69,1.69,0,0,1,77.15,31.85Z"/></g><g class="cls-4"><path class="cls-3" d="M75.05,46.85a1.37,1.37,0,0,1-.4,1.1,5.32,5.32,0,0,1-1.3,1,7.25,7.25,0,0,0-1.5,1.1,2.19,2.19,0,0,0-.3.5H75v.8h-4.3a2.54,2.54,0,0,1,.5-1.6,6.6,6.6,0,0,1,1.9-1.4,3.51,3.51,0,0,0,.9-.7,1.08,1.08,0,0,0,.2-.8.91.91,0,0,0-.4-.8,1.22,1.22,0,0,0-.9-.3,1,1,0,0,0-.9.4,3.58,3.58,0,0,0-.4,1.1h-.8a2.06,2.06,0,0,1,2.2-2.2,2,2,0,0,1,1.4.5A1.46,1.46,0,0,1,75.05,46.85Z"/></g><g class="cls-4"><path class="cls-3" d="M64.45,65.15a1.37,1.37,0,0,1-.4,1.1,5.32,5.32,0,0,1-1.3,1,7.25,7.25,0,0,0-1.5,1.1,2.19,2.19,0,0,0-.3.5h3.4v.8h-4.2a2.54,2.54,0,0,1,.5-1.6,6.6,6.6,0,0,1,1.9-1.4,3.51,3.51,0,0,0,.9-.7,1.08,1.08,0,0,0,.2-.8.91.91,0,0,0-.4-.8,1.22,1.22,0,0,0-.9-.3,1,1,0,0,0-.9.4,3.58,3.58,0,0,0-.4,1.1h-.8a2.06,2.06,0,0,1,2.2-2.2,2,2,0,0,1,1.4.5A1.61,1.61,0,0,1,64.45,65.15Z"/></g><g class="cls-4"><path class="cls-3" d="M67.25,63.35a.76.76,0,0,0-.2-.5.85.85,0,0,0-.6-.2,1.42,1.42,0,0,0-.6.2,1.17,1.17,0,0,0-.2.7h-.5a1.49,1.49,0,0,1,.3-1,1.33,1.33,0,0,1,1-.4,1.2,1.2,0,0,1,1.3,1.1.91.91,0,0,1-.4.8l-.1.1c.1,0,.2.1.3.2a.91.91,0,0,1,.4.8,1,1,0,0,1-.4.9,1.78,1.78,0,0,1-1,.4,1.33,1.33,0,0,1-1-.3,1.53,1.53,0,0,1-.4-1h.5a.91.91,0,0,0,.3.7.73.73,0,0,0,.6.2.85.85,0,0,0,.6-.2c.2-.1.2-.3.2-.6a1.42,1.42,0,0,0-.2-.6.76.76,0,0,0-.5-.2h-.5v-.4h.5a.52.52,0,0,0,.4-.2C67.15,63.65,67.25,63.55,67.25,63.35Z"/></g><g class="cls-4"><path class="cls-3" d="M81.85,64.75h-1.5v-.6a2,2,0,0,0,1.1-.3,1.46,1.46,0,0,0,.6-.9h.6v6.3h-.8v-4.5Z"/></g><g class="cls-4"><path class="cls-3" d="M55,82.75h-1.5v-.7a2,2,0,0,0,1.1-.3,1.46,1.46,0,0,0,.6-.9h.6v6.3H55v-4.4Z"/></g><g class="cls-4"><path class="cls-3" d="M75.05,82.75a1.37,1.37,0,0,1-.4,1.1,5.32,5.32,0,0,1-1.3,1,7.25,7.25,0,0,0-1.5,1.1,2.19,2.19,0,0,0-.3.5H75v.8h-4.3a2.54,2.54,0,0,1,.5-1.6,6.6,6.6,0,0,1,1.9-1.4,3.51,3.51,0,0,0,.9-.7,1.08,1.08,0,0,0,.2-.8.91.91,0,0,0-.4-.8,1.22,1.22,0,0,0-.9-.3,1,1,0,0,0-.9.4,3.58,3.58,0,0,0-.4,1.1h-.8A2.06,2.06,0,0,1,73,81a2,2,0,0,1,1.4.5A1.46,1.46,0,0,1,75.05,82.75Z"/></g><g class="cls-4"><path class="cls-3" d="M91.35,83.15a1.37,1.37,0,0,1-.4,1.1,5.32,5.32,0,0,1-1.3,1,7.25,7.25,0,0,0-1.5,1.1,2.19,2.19,0,0,0-.3.5h3.4v.8H87a2.54,2.54,0,0,1,.5-1.6,6.6,6.6,0,0,1,1.9-1.4,3.51,3.51,0,0,0,.9-.7,1.08,1.08,0,0,0,.2-.8.91.91,0,0,0-.4-.8,1.22,1.22,0,0,0-.9-.3,1,1,0,0,0-.9.4,3.58,3.58,0,0,0-.4,1.1h-.8a2.06,2.06,0,0,1,2.2-2.2,2,2,0,0,1,1.4.5A1.36,1.36,0,0,1,91.35,83.15Z"/></g><g class="cls-4"><path class="cls-3" d="M94.15,81.25a.76.76,0,0,0-.2-.5.85.85,0,0,0-.6-.2,1.42,1.42,0,0,0-.6.2,1.17,1.17,0,0,0-.2.7h-.5a1.49,1.49,0,0,1,.3-1,1.33,1.33,0,0,1,1-.4,1.2,1.2,0,0,1,1.3,1.1.91.91,0,0,1-.4.8l-.1.1c.1,0,.2.1.3.2a.91.91,0,0,1,.4.8,1,1,0,0,1-.4.9,1.78,1.78,0,0,1-1,.4,1.33,1.33,0,0,1-1-.3,1.53,1.53,0,0,1-.4-1h.5a.91.91,0,0,0,.3.7.73.73,0,0,0,.6.2.85.85,0,0,0,.6-.2c.2-.1.2-.3.2-.6a1.42,1.42,0,0,0-.2-.6.76.76,0,0,0-.5-.2h-.5V82h.5a.52.52,0,0,0,.4-.2A.76.76,0,0,0,94.15,81.25Z"/></g><g class="cls-4"><path class="cls-3" d="M82.45,101.05a1.37,1.37,0,0,1-.4,1.1,5.32,5.32,0,0,1-1.3,1,7.25,7.25,0,0,0-1.5,1.1,2.19,2.19,0,0,0-.3.5h3.4v.8h-4.3a2.54,2.54,0,0,1,.5-1.6,6.6,6.6,0,0,1,1.9-1.4,3.51,3.51,0,0,0,.9-.7,1.08,1.08,0,0,0,.2-.8.91.91,0,0,0-.4-.8,1.22,1.22,0,0,0-.9-.3,1,1,0,0,0-.9.4,3.58,3.58,0,0,0-.4,1.1h-.8a2.06,2.06,0,0,1,2.2-2.2,2,2,0,0,1,1.4.5A1.46,1.46,0,0,1,82.45,101.05Z"/></g><g class="cls-4"><path class="cls-3" d="M85.75,99.25a1.45,1.45,0,0,1-.2.7,2.31,2.31,0,0,1-.9.6,2.48,2.48,0,0,0-.9.7c-.1.1-.1.2-.2.3h2.2v.5H83a2,2,0,0,1,.3-1.1,3.09,3.09,0,0,1,1.2-.9,5.92,5.92,0,0,0,.6-.4.72.72,0,0,0,0-1,1.42,1.42,0,0,0-.6-.2.6.6,0,0,0-.6.3,1.45,1.45,0,0,0-.2.7h-.5a1.37,1.37,0,0,1,.4-1.1,1.16,1.16,0,0,1,1-.4,1.22,1.22,0,0,1,.9.3A2.24,2.24,0,0,1,85.75,99.25Z"/></g><g class="cls-4"><path class="cls-3" d="M99.75,100.65h-1.5v-.6a2,2,0,0,0,1.1-.3,1.46,1.46,0,0,0,.6-.9h.6v6.3h-.8Z"/></g><g class="cls-4"><path class="cls-3" d="M46,100.65h-1.5v-.6a2,2,0,0,0,1.1-.3,1.46,1.46,0,0,0,.6-.9h.6v6.3H46v-4.5Z"/></g><g class="cls-4"><path class="cls-3" d="M64.45,101.05a1.37,1.37,0,0,1-.4,1.1,5.32,5.32,0,0,1-1.3,1,7.25,7.25,0,0,0-1.5,1.1,2.19,2.19,0,0,0-.3.5h3.4v.8h-4.2a2.54,2.54,0,0,1,.5-1.6,6.6,6.6,0,0,1,1.9-1.4,3.51,3.51,0,0,0,.9-.7,1.08,1.08,0,0,0,.2-.8.91.91,0,0,0-.4-.8,1.22,1.22,0,0,0-.9-.3,1,1,0,0,0-.9.4,3.58,3.58,0,0,0-.4,1.1h-.8a2.06,2.06,0,0,1,2.2-2.2,2,2,0,0,1,1.4.5A1.61,1.61,0,0,1,64.45,101.05Z"/></g><g class="cls-4"><path class="cls-3" d="M67.25,99.25a.76.76,0,0,0-.2-.5.85.85,0,0,0-.6-.2,1.42,1.42,0,0,0-.6.2,1.17,1.17,0,0,0-.2.7h-.5a1.49,1.49,0,0,1,.3-1,1.33,1.33,0,0,1,1-.4,1.2,1.2,0,0,1,1.3,1.1.91.91,0,0,1-.4.8l-.1.1c.1,0,.2.1.3.2a.91.91,0,0,1,.4.8,1,1,0,0,1-.4.9,1.78,1.78,0,0,1-1,.4,1.33,1.33,0,0,1-1-.3,1.53,1.53,0,0,1-.4-1h.5a.91.91,0,0,0,.3.7.73.73,0,0,0,.6.2.85.85,0,0,0,.6-.2c.2-.1.2-.3.2-.6a1.42,1.42,0,0,0-.2-.6.76.76,0,0,0-.5-.2h-.5V100h.5a.52.52,0,0,0,.4-.2C67.15,99.55,67.25,99.45,67.25,99.25Z"/></g><path class="cls-1" d="M90.05,70.45A15.16,15.16,0,0,0,87.65,60a6.1,6.1,0,0,0-4.2-1.8c-2.9-.2-6.2.6-7.8,2A4.86,4.86,0,0,0,74,64c0,2.7,1.8,5.7,3.6,8l-.1.1a.49.49,0,0,0,.1.7c.4.3.9.5,1.4.8l.6.6a.48.48,0,0,0,.7,0,11.36,11.36,0,0,0,2.5.6h2.3a7.28,7.28,0,0,0,2.4-.7A4.83,4.83,0,0,0,90.05,70.45Zm-10.4,2.2c-2.1-2.1-4.6-5.7-4.6-8.7a3.8,3.8,0,0,1,1.3-3c1.4-1.2,4.5-2,7-1.7a4.75,4.75,0,0,1,3.5,1.4c1.5,1.8,2.8,6.6,2.2,9.7a3.88,3.88,0,0,1-1.8,2.8C85,74.15,82.05,73.65,79.65,72.65Z"/><path class="cls-1" d="M67.65,89.05a.49.49,0,0,0,.1.7c.4.3.9.5,1.4.8l.6.6a.48.48,0,0,0,.7,0,11.56,11.56,0,0,0,3.7.7,7.19,7.19,0,0,0,3.5-.8,4.91,4.91,0,0,0,2.4-3.4,15.16,15.16,0,0,0-2.4-10.5,5.16,5.16,0,0,0-3.1-1.6h-4.3a10.81,10.81,0,0,0-4.6,1.8,4.64,4.64,0,0,0-1.4,2.2V83a24.73,24.73,0,0,0,3.4,6.1C67.75,89,67.65,89,67.65,89.05ZM65.15,81a3.8,3.8,0,0,1,1.3-3c1.4-1.2,4.5-2,7-1.7a4.75,4.75,0,0,1,3.5,1.4c1.5,1.8,2.8,6.6,2.2,9.6a3.88,3.88,0,0,1-1.8,2.8c-2.3,1.2-5.2.7-7.6-.4C67.65,87.55,65.15,84,65.15,81Z"/><path class="cls-1" d="M73.55,75.15a11.5,11.5,0,0,0-3.2.2h4.3C74.25,75.25,74,75.25,73.55,75.15Z"/><path class="cls-1" d="M67.75,53.85h0a.52.52,0,0,0,.1.8c.4.3.9.5,1.4.8l.6.6a.48.48,0,0,0,.7,0,11.56,11.56,0,0,0,3.7.7,7.19,7.19,0,0,0,3.5-.8,4.91,4.91,0,0,0,2.4-3.4,15.16,15.16,0,0,0-2.4-10.5,6.1,6.1,0,0,0-4.2-1.8c-2.9-.2-6.2.6-7.8,2a4.64,4.64,0,0,0-1.4,2.2v3.4A18.13,18.13,0,0,0,67.75,53.85Zm-1.3-11c1.4-1.2,4.5-2,7-1.7a4.75,4.75,0,0,1,3.5,1.4c1.5,1.8,2.8,6.6,2.2,9.6a3.88,3.88,0,0,1-1.8,2.8c-2.3,1.2-5.2.7-7.6-.4-2.1-2.1-4.6-5.7-4.6-8.7A3.54,3.54,0,0,1,66.45,42.85Z"/><path class="cls-1" d="M66.25,110.25a11.06,11.06,0,0,1-3.7-.7.48.48,0,0,1-.7,0l-.6-.6a6.38,6.38,0,0,1-1.4-.8.49.49,0,0,1-.1-.7.1.1,0,0,1,.1-.1c-1.9-2.3-3.6-5.3-3.6-8a4.69,4.69,0,0,1,1.7-3.8c1.6-1.4,4.9-2.2,7.8-2a6.1,6.1,0,0,1,4.2,1.8,15.16,15.16,0,0,1,2.4,10.5,4.64,4.64,0,0,1-2.4,3.4A6.48,6.48,0,0,1,66.25,110.25Zm-4.4-2.1a9.2,9.2,0,0,0,7.6.4,3.88,3.88,0,0,0,1.8-2.8c.6-3.1-.7-7.8-2.2-9.6a4.94,4.94,0,0,0-3.5-1.4c-2.6-.2-5.7.5-7,1.7a3.8,3.8,0,0,0-1.3,3C57.15,102.45,59.65,106.15,61.85,108.15Z"/></svg>
