<svg id="Layer_1" data-name="Layer 1" xmlns="http://www.w3.org/2000/svg" viewBox="0 0 144 144" width="144" height="144" preserveAspectRatio="none"><defs><style>.cls-1,.cls-2{fill:#fff;isolation:isolate;}.cls-1{opacity:0.4;}.cls-2{opacity:0.3;}</style></defs><title>Math Jazz 19NoBG</title><path class="cls-1" d="M95.25,30.25l-21,10.8-5.2,22.7-21.4-9-21,10.8-5.2,22.9v.1l7.3,14.2,21.7,9,.1.1,21-10.7,5.2-22.7,21.4,8.9,21-10.8,5.2-23v-.1l-7.2-14Zm28.4,23.3-5.1,22.6-20.5,10.5-21.5-8.9-.9-1.8-.5.3,1,1.9L71,100.75l-20.5,10.5-21.4-8.9L22,88.55l5.1-22.5,20.5-10.6,21.4,9,.9,1.8.5-.3-.9-1.8,5.2-22.7,20.5-10.6,21.4,9Z"/><rect class="cls-1" x="73.55" y="71.94" width="0.6" height="2.2" transform="translate(-25.25 41.93) rotate(-27.26)"/><rect class="cls-1" x="71.46" y="67.96" width="0.6" height="2.2" transform="translate(-23.66 40.53) rotate(-27.26)"/><path class="cls-2" d="M19.55,100.05l-.1-.3-.1-.3.6-4,.2-.1.2-.1,1.5,2.9.6-.3.2.5-.6.3.6,1.1-.6.3-.6-1.1Zm1.8-1.5-1.1-2.1-.4,2.7v.1Z"/><path class="cls-2" d="M123.45,46.65l-.1-.3-.1-.3.6-4,.2-.1.2-.1,1.5,2.9.6-.3.2.5-.6.3.6,1.1-.6.3-.6-1.1Zm1.7-1.6-1.1-2-.4,2.7v.1Z"/><path class="cls-2" d="M19.45,77.55l.1-.1a3.81,3.81,0,0,0,.5.6.8.8,0,0,0,.8.1c.2-.1.3-.2.3-.4a.9.9,0,0,0-.1-.5c-.1-.1-.1-.2-.2-.3s-.1-.1-.2-.1l-.6-.3c-.3-.2-.6-.3-.7-.4s-.3-.2-.3-.4a1.7,1.7,0,0,1-.1-.7,1,1,0,0,1,.5-.6c.1-.1.3-.1.5-.2s.3-.1.4-.1a.1.1,0,0,0,.1-.1V74l.1-.1.4,1.2-.1.1c-.2-.2-.3-.4-.4-.5a.6.6,0,0,0-.8,0c-.1.1-.2.1-.2.3s0,.2,0,.4.1.2.2.2.2.2.5.3l.5.3.6.3a1.11,1.11,0,0,1,.3,1.3,1.58,1.58,0,0,1-.7.7c-.1.1-.3.1-.5.2a.76.76,0,0,1-.4.1.1.1,0,0,0-.1.1V79l-.1.1Z"/><path class="cls-2" d="M34.55,58.05l.1-.1a3.81,3.81,0,0,0,.5.6.8.8,0,0,0,.8.1c.2-.1.3-.2.3-.4a.9.9,0,0,0-.1-.5c-.1-.1-.1-.2-.2-.3s-.1-.1-.2-.1l-.6-.3c-.3-.2-.6-.3-.7-.4s-.3-.2-.3-.4a1.7,1.7,0,0,1-.1-.7,1,1,0,0,1,.5-.6c.1-.1.3-.1.5-.2s.3-.1.4-.1a.1.1,0,0,0,.1-.1v-.1l.1-.1.4,1.2-.1.1c-.2-.2-.3-.4-.4-.5a.6.6,0,0,0-.8,0c-.1.1-.2.1-.2.3s0,.2,0,.4.1.2.2.2a1.07,1.07,0,0,0,.5.3l.5.3.6.3a1.11,1.11,0,0,1,.3,1.3,1.58,1.58,0,0,1-.7.7c-.1.1-.3.1-.5.2a.76.76,0,0,1-.4.1.1.1,0,0,0-.1.1v.1l-.1.1Z"/><path class="cls-2" d="M83,33.15l.1-.1a3.81,3.81,0,0,0,.5.6.8.8,0,0,0,.8.1c.2-.1.3-.2.3-.4a.9.9,0,0,0-.1-.5c-.1-.1-.1-.2-.2-.3s-.1-.1-.2-.1l-.6-.3c-.3-.2-.6-.3-.7-.4s-.3-.2-.3-.4a1.7,1.7,0,0,1-.1-.7,1,1,0,0,1,.5-.6c.1-.1.3-.1.5-.2s.3-.1.4-.1a.1.1,0,0,0,.1-.1v-.1l.1-.1.4,1.2-.1.1c-.2-.2-.3-.4-.4-.5a.6.6,0,0,0-.8,0c-.1.1-.2.1-.2.3s0,.2,0,.4.1.2.2.2a1.07,1.07,0,0,0,.5.3l.5.3.6.3a1.11,1.11,0,0,1,.3,1.3,1.58,1.58,0,0,1-.7.7c-.1.1-.3.1-.5.2a.76.76,0,0,1-.4.1.1.1,0,0,0-.1.1v.1l-.1.1Z"/><path class="cls-2" d="M62.25,111.85l.1-.1a3.81,3.81,0,0,0,.5.6.8.8,0,0,0,.8.1c.2-.1.3-.2.3-.4a.9.9,0,0,0-.1-.5c-.1-.1-.1-.2-.2-.3s-.1-.1-.2-.1l-.6-.3c-.3-.2-.6-.3-.7-.4s-.3-.2-.3-.4a1.7,1.7,0,0,1-.1-.7,1,1,0,0,1,.5-.6c.1-.1.3-.1.5-.2s.3-.1.4-.1a.1.1,0,0,0,.1-.1v-.1l.1-.1.4,1.2-.1.1c-.2-.2-.3-.4-.4-.5a.6.6,0,0,0-.8,0c-.1.1-.2.1-.2.3s0,.2,0,.4.1.2.2.2a1.07,1.07,0,0,0,.5.3l.5.3.6.3a1.11,1.11,0,0,1,.3,1.3,1.58,1.58,0,0,1-.7.7c-.1.1-.3.1-.5.2a.76.76,0,0,1-.4.1.1.1,0,0,0-.1.1v.1l-.1.1Z"/><path class="cls-2" d="M110.65,87l.1-.1a3.81,3.81,0,0,0,.5.6.8.8,0,0,0,.8.1c.2-.1.3-.2.3-.4a.9.9,0,0,0-.1-.5c-.1-.1-.1-.2-.2-.3s-.1-.1-.2-.1l-.6-.3c-.3-.2-.6-.3-.7-.4s-.3-.2-.3-.4a1.7,1.7,0,0,1-.1-.7,1,1,0,0,1,.5-.6c.1-.1.3-.1.5-.2s.3-.1.4-.1a.1.1,0,0,0,.1-.1v-.1l.1-.1.4,1.2-.1.1c-.2-.2-.3-.4-.4-.5a.6.6,0,0,0-.8,0c-.1.1-.2.1-.2.3s0,.2,0,.4.1.2.2.2.2.2.5.3l.5.3.6.3a1.11,1.11,0,0,1,.3,1.3,1.58,1.58,0,0,1-.7.7c-.1.1-.3.1-.5.2a.76.76,0,0,1-.4.1.1.1,0,0,0-.1.1v.1l-.1.1Z"/><path class="cls-2" d="M59.25,57.05l.1-.1a3.81,3.81,0,0,0,.5.6.8.8,0,0,0,.8.1c.2-.1.3-.2.3-.4a.9.9,0,0,0-.1-.5c-.1-.1-.1-.2-.2-.3s-.1-.1-.2-.1l-.4-.3c-.3-.2-.6-.3-.7-.4s-.3-.2-.3-.4a1.7,1.7,0,0,1-.1-.7,1,1,0,0,1,.5-.6c.1-.1.3-.1.5-.2s.3-.1.4-.1a.1.1,0,0,0,.1-.1v-.1l.1-.1.4,1.2-.1.1c-.2-.2-.3-.4-.4-.5a.6.6,0,0,0-.8,0c-.1.1-.2.1-.2.3s0,.2,0,.4.1.2.2.2.2.2.5.3l.5.3.6.3a1.11,1.11,0,0,1,.3,1.3,1.58,1.58,0,0,1-.7.7c-.1.1-.3.1-.5.2a.76.76,0,0,1-.4.1.1.1,0,0,0-.1.1v.1l-.1.1Z"/><path class="cls-2" d="M67.05,53.05l.1-.1a3.81,3.81,0,0,0,.5.6.8.8,0,0,0,.8.1c.2-.1.3-.2.3-.4a.9.9,0,0,0-.1-.5c-.1-.1-.1-.2-.2-.3s-.1-.1-.2-.1l-.6-.3c-.3-.2-.6-.3-.7-.4s-.3-.2-.3-.4a1.7,1.7,0,0,1-.1-.7,1,1,0,0,1,.5-.6c.1-.1.3-.1.5-.2s.3-.1.4-.1a.1.1,0,0,0,.1-.1v-.1l.1-.1.4,1.2-.1.1c-.2-.2-.3-.4-.4-.5a.6.6,0,0,0-.8,0c-.1.1-.2.1-.2.3s0,.2,0,.4.1.2.2.2.2.2.5.3l.5.3.6.3a1.11,1.11,0,0,1,.3,1.3,1.58,1.58,0,0,1-.7.7c-.1.1-.3.1-.5.2a.76.76,0,0,1-.4.1.1.1,0,0,0-.1.1v.1l-.1.1Z"/><path class="cls-2" d="M106.85,32.55l.1-.1a3.81,3.81,0,0,0,.5.6.8.8,0,0,0,.8.1c.2-.1.3-.2.3-.4a.9.9,0,0,0-.1-.5c-.1-.1-.1-.2-.2-.3s-.1-.1-.2-.1l-.6-.3c-.3-.2-.6-.3-.7-.4s-.3-.2-.3-.4a1.7,1.7,0,0,1-.1-.7,1,1,0,0,1,.5-.6c.1-.1.3-.1.5-.2s.3-.1.4-.1a.1.1,0,0,0,.1-.1V29l.1-.1.4,1.2-.1.1c-.2-.2-.3-.4-.4-.5a.6.6,0,0,0-.8,0c-.1.1-.2.1-.2.3s0,.2,0,.4.1.2.2.2.2.2.5.3l.5.3.6.3a1.11,1.11,0,0,1,.3,1.3,1.58,1.58,0,0,1-.7.7c-.1.1-.3.1-.5.2a.76.76,0,0,1-.4.1.1.1,0,0,0-.1.1V34l-.1.1Z"/><path class="cls-2" d="M36.55,112l.1-.1a3.81,3.81,0,0,0,.5.6.8.8,0,0,0,.8.1c.2-.1.3-.2.3-.4a.9.9,0,0,0-.1-.5c-.1-.1-.1-.2-.2-.3s-.1-.1-.2-.1l-.6-.3c-.3-.2-.6-.3-.7-.4s-.3-.2-.3-.4a1.7,1.7,0,0,1-.1-.7,1,1,0,0,1,.5-.6c.1-.1.3-.1.5-.2s.3-.1.4-.1a.1.1,0,0,0,.1-.1v-.1l.1-.1.4,1.2-.1.1c-.2-.2-.3-.4-.4-.5a.6.6,0,0,0-.8,0c-.1.1-.2.1-.2.3s0,.2,0,.4.1.2.2.2.2.2.5.3l.5.3.6.3a1.11,1.11,0,0,1,.3,1.3,1.58,1.58,0,0,1-.7.7c-.1.1-.3.1-.5.2a.76.76,0,0,1-.4.1.1.1,0,0,0-.1.1v.1l-.1.1Z"/><path class="cls-2" d="M76.35,91.45l.1-.1a3.81,3.81,0,0,0,.5.6.8.8,0,0,0,.8.1c.2-.1.3-.2.3-.4a.9.9,0,0,0-.1-.5c-.1-.1-.1-.2-.2-.3s-.1-.1-.2-.1l-.6-.3c-.3-.2-.6-.3-.7-.4s-.3-.2-.3-.4a1.7,1.7,0,0,1-.1-.7,1,1,0,0,1,.5-.6c.1-.1.3-.1.5-.2s.3-.1.4-.1a.1.1,0,0,0,.1-.1v-.1l.1-.1.4,1.2-.1.1c-.2-.2-.3-.4-.4-.5a.6.6,0,0,0-.8,0c-.1.1-.2.1-.2.3s0,.2,0,.4.1.2.2.2.2.2.5.3l.5.3.6.3a1.11,1.11,0,0,1,.3,1.3,1.58,1.58,0,0,1-.7.7c-.1.1-.3.1-.5.2a.76.76,0,0,1-.4.1.1.1,0,0,0-.1.1v.1l-.1.1Z"/><path class="cls-2" d="M84.65,87.15l.1-.1a3.81,3.81,0,0,0,.5.6.8.8,0,0,0,.8.1c.2-.1.3-.2.3-.4a.9.9,0,0,0-.1-.5c-.1-.1-.1-.2-.2-.3s-.1-.1-.2-.1l-.6-.3c-.3-.2-.6-.3-.7-.4s-.3-.2-.3-.4a1.7,1.7,0,0,1-.1-.7,1,1,0,0,1,.5-.6c.1-.1.3-.1.5-.2s.3-.1.4-.1a.1.1,0,0,0,.1-.1v-.1l.1-.1.4,1.2-.1.1c-.2-.2-.3-.4-.4-.5a.6.6,0,0,0-.8,0c-.1.1-.2.1-.2.3s0,.2,0,.4.1.2.2.2.2.2.5.3l.5.3.6.3a1.11,1.11,0,0,1,.3,1.3,1.58,1.58,0,0,1-.7.7c-.1.1-.3.1-.5.2a.76.76,0,0,1-.4.1.1.1,0,0,0-.1.1v.1l-.1.1Z"/><path class="cls-2" d="M124.45,66.65l.1-.1a3.81,3.81,0,0,0,.5.6.8.8,0,0,0,.8.1c.2-.1.3-.2.3-.4a.9.9,0,0,0-.1-.5c-.1-.1-.1-.2-.2-.3s-.1-.1-.2-.1l-.6-.3c-.3-.2-.6-.3-.7-.4s-.3-.2-.3-.4a1.7,1.7,0,0,1-.1-.7,1,1,0,0,1,.5-.6c.1-.1.3-.1.5-.2s.3-.1.4-.1a.1.1,0,0,0,.1-.1v-.1l.1-.1.4,1.2-.1.1c-.2-.2-.3-.4-.4-.5a.6.6,0,0,0-.8,0c-.1.1-.2.1-.2.3s0,.2,0,.4.1.2.2.2.2.2.5.3l.5.3.6.3a1.11,1.11,0,0,1,.3,1.3,1.58,1.58,0,0,1-.7.7c-.1.1-.3.1-.5.2a.76.76,0,0,1-.4.1.1.1,0,0,0-.1.1v.1l-.1.1Z"/></svg>
