<svg id="Layer_1" data-name="Layer 1" xmlns="http://www.w3.org/2000/svg" viewBox="0 0 144 144" width="144" height="144" preserveAspectRatio="none"><defs><style>.cls-1,.cls-2{fill:#fff;isolation:isolate;}.cls-1{opacity:0.4;}.cls-2{opacity:0.05;}</style></defs><title>Math Jazz 18NoBG</title><path class="cls-1" d="M99.6,81l-4.4-13.4H82.4l10.3-7.4-4.4-13.4H74l-4,12-4-12H51.7l-4.4,13.4,10.3,7.4H44.8L40.4,81,52,89.15l10.4-7.4-4,12L70,102l11.6-8.2-4-12L88,89.15ZM70,101.15l-10.7-7.6L63.5,81v-.1l-.2-.6-11.3,8-10.7-7.6,4.1-12.3H60L48.2,60l4.1-12.3H65.5l4.2,12.6.2.6.4-.1,4.3-13H87.8l4.1,12.3-11.8,8.4H94.7l4.1,12.3-10.7,7.6-10.9-7.8-.4-.3-.2.6,4.2,12.7Z"/><polygon class="cls-2" points="77.1 80.65 88 88.35 98.7 80.75 94.7 68.45 80.1 68.45 91.9 60.05 87.8 47.75 74.5 47.75 70.2 60.75 69.9 60.85 69.7 60.35 65.5 47.75 52.3 47.75 48.2 60.05 60 68.45 45.4 68.45 41.3 80.75 52 88.35 63.3 80.35 63.5 80.95 63.5 81.05 59.3 93.65 70 101.25 80.7 93.65 76.5 80.95 76.7 80.35 77.1 80.65"/><rect class="cls-1" x="75.9" y="42.95" width="10.4" height="0.8"/><rect class="cls-1" x="51.9" y="42.95" width="10.4" height="0.8"/><rect class="cls-1" x="41.14" y="51.69" width="10.4" height="0.7" transform="translate(-17.5 79.97) rotate(-71.94)"/><polygon class="cls-1" points="56.6 97.35 55.9 97.15 59.1 87.25 59.8 87.45 56.6 97.35"/><rect class="cls-1" x="90.1" y="65.95" width="10.4" height="0.8"/><rect class="cls-1" x="41.4" y="65.95" width="10.4" height="0.8"/><rect class="cls-1" x="85.27" y="84.34" width="0.8" height="10.4" transform="translate(-37.12 106.21) rotate(-54)"/><polygon class="cls-1" points="68.8 51.65 65.6 41.75 66.3 41.45 69.5 51.45 68.8 51.65"/><polygon class="cls-1" points="71.3 51.65 70.6 51.45 73.9 41.45 74.6 41.75 71.3 51.65"/><rect class="cls-1" x="72.03" y="100.12" width="10.4" height="0.8" transform="translate(-44.34 64.6) rotate(-36.01)"/><rect class="cls-1" x="92.72" y="46.8" width="0.7" height="10.4" transform="translate(-11.51 31.3) rotate(-18)"/><polygon class="cls-1" points="83.6 97.35 80.4 87.45 81.1 87.25 84.3 97.15 83.6 97.35"/><polygon class="cls-1" points="89.4 65.65 88.9 65.05 97.5 59.05 97.9 59.75 89.4 65.65"/><polygon class="cls-1" points="50.1 92.85 49.7 92.15 58.3 86.25 58.7 86.85 50.1 92.85"/><polygon class="cls-1" points="102 79.35 98.8 69.45 99.5 69.15 102.7 79.15 102 79.35"/><rect class="cls-1" x="90.38" y="87.24" width="10.4" height="0.8" transform="translate(-33.26 72.93) rotate(-36.01)"/><rect class="cls-1" x="62.69" y="95.32" width="0.8" height="10.4" transform="matrix(0.59, -0.81, 0.81, 0.59, -55.32, 92.49)"/><rect class="cls-1" x="44.66" y="82.34" width="0.8" height="10.4" transform="translate(-52.25 72.55) rotate(-54.01)"/><rect class="cls-1" x="35.03" y="73.97" width="10.4" height="0.7" transform="translate(-42.9 89.53) rotate(-71.94)"/><rect class="cls-1" x="47.62" y="57.07" width="0.8" height="10.4" transform="translate(-30.58 64.53) rotate(-54.01)"/></svg>
