<?xml version="1.0" encoding="utf-8"?>
<!-- Generator: Adobe Illustrator 21.0.0, SVG Export Plug-In . SVG Version: 6.00 Build 0)  -->
<!DOCTYPE svg PUBLIC "-//W3C//DTD SVG 1.1//EN" "http://www.w3.org/Graphics/SVG/1.1/DTD/svg11.dtd">
<svg version="1.1" id="Header_Buttons" xmlns="http://www.w3.org/2000/svg" xmlns:xlink="http://www.w3.org/1999/xlink" x="0px"
	 y="0px" viewBox="0 0 40 40" enable-background="new 0 0 40 40" xml:space="preserve" width="40" height="40" preserveAspectRatio="none">
<g>
	<path fill="#FFFFFF" d="M5.6,26.2c0,0-2.3-0.9-3.4,0.5c0,0-0.6,1.1,1.6,2.8C4.9,30.4,5.6,26.2,5.6,26.2"/>
	<path fill="#FFFFFF" d="M3.2,34c0,0-0.1,1.3,0,1.9c0.1,0.6,0.6,1.3,0.6,1.3S3,36,2.2,37.4c-0.4,0.6,1,1.3,2,1.3
		c1.6,0,1.4-1.4,1.4-1.4S5.1,39.1,6.9,39c1.6,0,1.4-1.5,1.4-1.5s-0.8,1.8,1.6,1.3c1.3-0.3,0.7-1.6,0.7-1.6s0.2,1.1,1.4,0.7
		c1.5-0.5,0.5-1.3-0.5-2.1c-0.9-0.7-1.7-2.4-1.7-2.4L3.2,34z"/>
	<path fill="#FFFFFF" d="M10.2,36.6c0.2,0.6,0.4,1.2,0.4,1.7c0.2-0.4,0.2-1.1-0.1-1.8c-0.3-0.7-0.7-1.3-1.1-1.4
		C9.7,35.4,9.9,35.9,10.2,36.6"/>
	<path fill="#FFFFFF" d="M10,26.2c0.5-0.9,0.3-3.4-1.6-3c-1.6,0.7-4.5,2.2-5.7,4.4c-1.6,3.1,0.4,8,0.4,8s0.2,0.2,1,0.1
		c0.8-0.1,1.4-1.8,1.4-1.8s0,1.8,0.8,1.8c0.8-0.1,0.9-1.8,0.9-1.8s0.9,1.3,1.5,1.1c0.6-0.1,0-1.4,0-1.4s0.1,0.1,0.5,0.3
		c0.5,0.2,0.8,0.1,0.8,0.1s-1-1.8-0.9-4.7C9.1,28.2,9.5,27,10,26.2z"/>
</g>
<g>
	<path fill="#FFFFFF" d="M35.2,25.9c0,0,2.3-0.9,3.4,0.5c0,0,0.6,1.1-1.6,2.8C35.9,30,35.2,25.9,35.2,25.9"/>
	<path fill="#FFFFFF" d="M38.1,33.6c0,0-0.5,1.3-0.7,1.9c-0.2,0.6-0.5,1.3-0.5,1.3s0.8-1.2,1.6,0.2c0.4,0.6-1,1.3-2,1.3
		c-1.6,0-1.4-1.4-1.4-1.4s0.6,1.8-1.2,1.7c-1.6,0-1.4-1.5-1.4-1.5s0.8,1.8-1.6,1.3c-1.3-0.3-0.7-1.6-0.7-1.6s-0.2,1.1-1.4,0.7
		c-1.5-0.5-0.6-1.5,0.5-2.1C30.3,34.9,31,33,31,33L38.1,33.6z"/>
	<path fill="#FFFFFF" d="M30.5,36.1c-0.2,0.6-0.4,1.2-0.4,1.7c-0.2-0.4-0.2-1.1,0.1-1.8c0.3-0.7,0.7-1.3,1.1-1.4
		C31,35,30.7,35.5,30.5,36.1"/>
	<path fill="#FFFFFF" d="M29.8,21.9c0,0,6.2,2.4,8.2,5.2c2,2.8-0.4,7.9-0.4,7.9s-0.1,0.3-0.8,0.5c-0.8,0.2-1.7-1.9-1.7-1.9
		s0.3,1.8-0.6,1.9c-0.8,0.1-1.1-1.6-1.1-1.6s-0.7,1.4-1.3,1.4c-0.6,0-0.2-1.4-0.2-1.4s0,0.1-0.5,0.4c-0.5,0.3-1,0-1,0
		s1.2-2.7,0.9-5.5c-0.3-2.9-2.7-4.8-2.7-4.8L29.8,21.9z"/>
</g>
<g>
	<path fill="#FFFFFF" d="M24.3,35.9c-0.4,0.4-1,0.4-1,0.4s-1.4-0.8-2-0.5c-1.5,0.8,0.6,1.1,0.6,1.1s-1.4,1.1-0.7,1.7
		c0.7,0.6,1.3-0.7,1.3-0.7s0.1,0.8,0.7,0.8c0.6,0,0.5-0.8,0.5-0.8s0.8-0.2,2-0.5c2.4-0.5,1.9-1.1,1.9-1.1L26.3,35
		C26.3,35,24.7,35.6,24.3,35.9"/>
	<path fill="#FFFFFF" d="M24.5,31.5c0,0-0.7,0.6-0.9,1.6c-0.2,1.1,0,3.1,0,3.1l1.1-0.4c0,0,0.2,0.8,0.7,0.7c0.5-0.1,0.4-0.8,0.4-0.8
		s0.3,0.9,0.8,0.8c0.5-0.1,0.2-0.8,0.2-0.8s0,0.1,0.3,0.3c0.3,0.2,0.4,0.1,0.4,0.1s-1.3-1.2-1.5-3.1c-0.1-0.9,0.2-1.8,0.2-1.8
		L24.5,31.5z"/>
	<path fill="#FFFFFF" d="M25.5,34C25.5,34,25.5,34,25.5,34c-0.1,0.1-0.1,0.1-0.1,0.1c-0.1,0.1-0.3,0.2-0.5,0.2c-0.1,0-0.2,0-0.3,0
		c-0.1,0-0.3,0-0.4-0.1c-0.1,0-0.1-0.1-0.2-0.1c-0.1-0.1-0.1-0.2-0.1-0.2c0-0.4,0.6-0.5,0.9-0.4c0.1,0,0.2,0.1,0.2,0.2
		c0,0.3-0.3,0.4-0.5,0.3c-0.1,0-0.2-0.1-0.2-0.2c0-0.1,0.1-0.2,0.2-0.2c0.1,0,0.1,0,0.1,0c0,0,0.1,0,0.1,0s0,0-0.1,0
		c-0.1,0-0.2,0-0.2,0.1c-0.1,0.1-0.1,0.1,0,0.2c0,0,0.1,0,0.1,0c0.1,0,0.2,0,0.3-0.1c0.1-0.1,0.2-0.2,0.1-0.3c0,0-0.1-0.1-0.2-0.1
		c-0.1,0-0.1,0-0.2,0c-0.1,0-0.3,0-0.4,0.1c-0.2,0.1-0.3,0.4-0.1,0.6c0.4,0.2,0.9,0.2,1.3-0.1C25.4,34.1,25.5,34.1,25.5,34
		C25.5,34,25.5,34,25.5,34"/>
</g>
<g>
	<path fill="#FFFFFF" d="M16.6,35.9c-0.5,0.3-1.1,0.3-1.1,0.3s-1.3-1-1.9-0.8c-1.6,0.6,0.5,1.1,0.5,1.1s-1.5,0.9-0.9,1.6
		c0.6,0.7,1.3-0.5,1.3-0.5s0,0.8,0.6,0.8c0.6,0,0.6-0.7,0.6-0.7s0.9-0.1,2-0.2c2.4-0.2,2-0.9,2-0.9l-1-1.3
		C18.7,35.3,17.1,35.6,16.6,35.9"/>
	<path fill="#FFFFFF" d="M17.5,31.6c0,0-0.8,0.5-1.1,1.5c-0.3,1-0.3,3.1-0.3,3.1l1-0.2c0,0,0.1,0.8,0.6,0.8c0.5,0,0.5-0.8,0.5-0.8
		s0.2,0.9,0.7,0.9c0.5,0,0.3-0.8,0.3-0.8s0,0.1,0.3,0.3c0.3,0.2,0.4,0.1,0.4,0.1s-1.1-1.4-1.1-3.2c0-0.9,0.5-1.8,0.5-1.8L17.5,31.6z
		"/>
	<path fill="#FFFFFF" d="M18.1,34.2C18.1,34.2,18.1,34.2,18.1,34.2c-0.1,0.1-0.1,0.1-0.2,0.1c-0.1,0.1-0.3,0.1-0.5,0.2
		c-0.2,0-0.4,0-0.6-0.1c-0.2-0.1-0.4-0.2-0.4-0.5c0.1-0.3,0.4-0.4,0.7-0.4c0,0,0,0,0.1,0c0.1,0,0.1,0,0.2,0.1
		c0.1,0.1,0.3,0.2,0.2,0.4c-0.1,0.2-0.4,0.2-0.6,0.1c-0.1,0-0.1-0.1-0.1-0.2c0-0.1,0.2-0.2,0.3-0.1c0,0,0,0,0,0s0,0,0,0
		c-0.1,0-0.3,0-0.3,0.1c0,0,0,0.1,0.1,0.1c0,0,0.1,0,0.1,0.1c0.1,0,0.3,0,0.4-0.1c0,0,0.1-0.1,0.1-0.1c0-0.1-0.1-0.2-0.2-0.2
		c-0.1,0-0.1,0-0.2-0.1c-0.1,0-0.3,0-0.4,0c-0.1,0-0.3,0.1-0.3,0.3c0,0.2,0.2,0.3,0.3,0.4c0.2,0.1,0.4,0.1,0.6,0.1
		C17.7,34.4,17.9,34.4,18.1,34.2C18.1,34.2,18.1,34.2,18.1,34.2"/>
</g>
<path fill="#FFFFFF" d="M28.6,9.3C27.3,9.9,25,12,29.3,20.7c0,0,6.2-2.9,4.9-8.8C33.4,8.6,29.9,8.8,28.6,9.3z"/>
<path fill="#FFFFFF" d="M32.3,9.5c0,0-10.5-5.9-19,0.8C4.8,17,7.2,26.7,16.1,32c0,0,5.7,1,11.9,0L32.3,9.5z"/>
<g>
	<path fill="#FFFFFF" d="M30.3,19.8c-0.9,0-1.7,0.3-3,1.5c-1.6,1.5-1.3,3.3-1.3,3.3l-12.8,0.5c0,0-1.1-1.9-3.1-3
		c-0.7-0.4-1.4-0.7-2-0.8c0,0.5,0.1,0.9,0.2,1.4c0-0.1,1.7-0.7,2.9,5.3c2.4,3,4.8,4,4.8,4s1.4,0.6,5.4,0.6c4.9,0,6.5-0.6,6.5-0.6
		l0.8-4.2l0,0c-0.4-0.9-0.8-2.4-0.5-4.3c0.2-1.3,1.1-2.4,1.7-2.3l0,0L30.3,19.8L30.3,19.8z"/>
	<polygon fill="#FFFFFF" points="15,26.8 24.2,26.3 24.3,29.9 20.3,30.8 15.5,30 	"/>
	<path fill="#FFFFFF" d="M27.7,25.1c0,0.4-0.3,0.7-0.6,0.7c-0.4,0-0.7-0.3-0.7-0.6c0-0.4,0.3-0.7,0.6-0.7
		C27.4,24.5,27.7,24.8,27.7,25.1"/>
	<path fill="#FFFFFF" d="M12.8,25.9c0,0.4-0.3,0.7-0.6,0.7c-0.4,0-0.7-0.3-0.7-0.6c0-0.4,0.3-0.7,0.6-0.7
		C12.5,25.3,12.8,25.6,12.8,25.9"/>
</g>
<g>
	<path fill="#FFFFFF" d="M23.9,24.4c0,0-1.1-0.4-1.2-1c-0.1-0.6,1.2-1,2.8-1.7c2.2-1,4-3.5,4-3.5s-1.3,1.2-2.5,1.7
		c-0.8,0.4-2.5,1.1-5.4,1.5c-2.9,0.4-6.1-0.4-8.2-1.1c-2.1-0.7-3.5-1.8-3.5-1.8l0,0.1l0.9,2.3c0.1,0.4,0.4,1.1,0.6,1.4
		c1.2,1.8,3.7,1.9,3.7,1.9c-0.2-1,0.5-1.6,0.5-1.6s0.6,2.6,2.6,2.8c0,0-0.8-1-0.5-1.6c0,0,1.4,1.9,4.5,1.6c0,0-1-0.4-1-1.6
		C21.3,24,22.3,24.7,23.9,24.4z"/>
	<path fill="#FFFFFF" d="M29.9,17.9c0,0.2-0.1,0.3-0.3,0.3c-0.2,0-0.3-0.1-0.3-0.3c0-0.2,0.1-0.3,0.3-0.3
		C29.8,17.6,29.9,17.8,29.9,17.9"/>
	<path fill="#FFFFFF" d="M22.5,24.4c-0.4-0.1-0.8-0.2-1.2-0.5c-0.1,0-0.1-0.1-0.2-0.1c0,0.4,0,0.9,0.2,1.2c0.1,0.2,0.2,0.3,0.4,0.4
		c0,0,0,0,0,0c-0.9,0-1.8-0.2-2.5-0.5c-0.6-0.3-1.1-0.7-1.5-1.2c0,0-0.1,0.2-0.1,0.3c0,0.1-0.1,0.2-0.1,0.3c0,0.2,0.1,0.4,0.1,0.6
		c0.1,0.1,0.1,0.3,0.2,0.4c0,0,0.1,0.1,0.1,0.1c0,0-0.1,0-0.1,0c-0.2,0-0.5-0.2-0.7-0.3c-0.5-0.3-0.9-0.9-1.2-1.4
		c-0.2-0.3-0.3-0.6-0.4-0.9c0.1,0.3,0.2,0.7,0.3,1c0.1,0.3,0.3,0.6,0.5,0.9c0.2,0.3,0.5,0.6,0.9,0.8c0.2,0.1,0.4,0.2,0.6,0.2
		c0.2,0.1,0.4,0.1,0.6,0.1c-0.1-0.1-0.1-0.1-0.1-0.2c-0.1-0.1-0.1-0.2-0.2-0.3c-0.1-0.2-0.2-0.3-0.3-0.5c-0.1-0.2-0.1-0.4-0.1-0.5
		c0,0,0.2,0.2,0.3,0.3c0.2,0.1,0.3,0.3,0.5,0.4c0.7,0.5,1.6,0.8,2.4,0.8c0.6,0.1,1.1,0,1.7,0c0.1,0,0.2,0,0.2,0
		c-0.2-0.1-0.5-0.1-0.7-0.3c-0.5-0.2-0.8-0.7-0.8-1.2c0,0,0,0,0-0.1c0.6,0.3,1.2,0.4,1.8,0.4c0.2,0,0.5,0,0.7-0.1
		C23.4,24.5,23,24.4,22.5,24.4z"/>
	<path fill="#FFFFFF" d="M12.3,19.8c0,0,1.7-1.2,2.1-1.1c0.4,0.1,0.8,2.1,0.8,2.1L12.3,19.8z"/>
	<path fill="#FFFFFF" d="M27.2,19.8c0,0-1.6-0.6-1.8-0.5c-0.2,0.1-0.7,1.5-0.7,1.5L27.2,19.8z"/>
	<path fill="#FFFFFF" d="M11.2,22c-0.2-0.6-0.5-1.1-0.7-1.7c-0.2-0.6-0.5-1.1-0.7-1.7l-0.1-0.3l0.2,0.2c0.4,0.2,0.7,0.4,1.1,0.6
		c0.4,0.2,0.8,0.4,1.2,0.6c0.8,0.3,1.6,0.6,2.5,0.9c1.7,0.5,3.4,0.7,5.2,0.8c0.9,0,1.7,0,2.6-0.1c0.9-0.1,1.7-0.3,2.5-0.6
		c0.8-0.3,1.6-0.6,2.4-1c0.8-0.4,1.5-0.9,2.1-1.5c-0.3,0.3-0.6,0.6-1,0.9c-0.3,0.3-0.7,0.5-1.1,0.8c-0.8,0.5-1.6,0.8-2.4,1.2
		c-1.7,0.6-3.5,0.9-5.2,0.8c-1.8,0-3.5-0.3-5.2-0.8c-0.9-0.3-1.7-0.6-2.5-0.9c-0.8-0.4-1.6-0.8-2.3-1.3l0.1-0.1
		c0.2,0.6,0.4,1.2,0.6,1.7C10.8,20.9,11,21.5,11.2,22"/>
</g>
<g>
	<path fill="#FFFFFF" d="M18.8,19.5C18.8,19.5,18.9,19.5,18.8,19.5c0.1-0.2,0.2-0.3,0.4-0.4c-0.2,0-0.3,0.1-0.4,0.2
		c-0.1,0.1-0.1,0.1-0.1,0.2c0,0.1,0,0.2,0,0.3l0,0c0,0,0,0.1,0,0.1c0,0.2,0.2,0.4,0.3,0.4c0.2,0,0.3-0.2,0.2-0.4
		C19.1,19.7,19,19.5,18.8,19.5z"/>
	<path fill="#FFFFFF" d="M19.9,19.6C19.9,19.5,19.9,19.5,19.9,19.6c-0.1-0.2-0.2-0.3-0.4-0.4c0.2,0,0.3,0.1,0.4,0.2
		c0.1,0.1,0.1,0.1,0.1,0.2c0,0.1,0,0.2,0,0.3l0,0c0,0,0,0.1,0,0.1c0,0.2-0.2,0.4-0.3,0.4c-0.2,0-0.3-0.2-0.2-0.4
		C19.6,19.7,19.8,19.6,19.9,19.6z"/>
</g>
<g>
	<path fill="#FFFFFF" d="M19.1,17.4c0,0.8-0.4,1.5-1,1.5c-0.6,0-1.1-0.6-1.1-1.4c0-0.8,0.4-1.5,1-1.5C18.6,16,19.1,16.6,19.1,17.4"
		/>
	<path fill="#FFFFFF" d="M18.7,17.6c0,0.4-0.2,0.7-0.5,0.7c-0.3,0-0.6-0.3-0.6-0.7c0-0.4,0.2-0.7,0.5-0.7
		C18.4,16.9,18.6,17.2,18.7,17.6"/>
	<path fill="#FFFFFF" d="M22.3,16.8c0.1,1.1-0.6,2.1-1.4,2.2c-0.8,0-1.6-0.8-1.6-2c-0.1-1.1,0.6-2.1,1.4-2.2
		C21.5,14.7,22.3,15.6,22.3,16.8"/>
	<path fill="#FFFFFF" d="M21.5,17.2c0,0.5-0.3,1-0.8,1c-0.4,0-0.8-0.4-0.8-0.9c0-0.5,0.3-1,0.8-1C21.1,16.3,21.4,16.7,21.5,17.2"/>
</g>
<path fill="#FFFFFF" d="M18.9,15.3c-0.9-0.1-1.7,0-2.6,0.1c0-0.2,0-0.5,0-0.7c0.8-0.3,1.7-0.6,2.6-0.7
	C18.8,14.5,18.9,14.9,18.9,15.3z"/>
<path fill="#FFFFFF" d="M22.7,14.1c-1.1-0.2-2.2-0.2-3.4-0.2c0-0.4,0-0.8,0.1-1.3c1.1,0,2.2,0.2,3.3,0.5
	C22.7,13.5,22.7,13.8,22.7,14.1z"/>
<path fill="#FFFFFF" d="M36.5,11.5c0,0,0.6-4.1-3.9-5.9c-1.2-0.5-2.8-0.3-2.6-0.4c1.2-0.3,2.7-0.4,2.7-0.4s-2.4-2.1-6.6-1.3
	c-1.2,0.2-3.9,2.1-3.9,2.1s-2.4,1.7-4.2,0c-0.6-0.6-2.5-1.8-5.1-1.6C6.1,4.5,4.5,8.8,4.5,8.8l2.1-0.7c0,0-1.1,0.8-1.6,2.4
	c-0.6,1.8,0.5,5.2,0.5,5.2l0.9-1.3c0,0,0.2,0.9,0.7,2c0.5,1.1,0.7,1.2,1.3,2c4.5-10.7,18.3-11,24.7-0.9c1-1.3,2.6-2.7,2.6-5.4
	c0-1.1-0.7-2.6-0.7-2.6C36,10.6,36.5,11.5,36.5,11.5z"/>
<path fill="#FFFFFF" d="M13.2,6.8c0,0,3.6-5,6.8-5.2c3.7-0.2,7,5.6,7,5.6s-3,1.2-7.2,1.2C15.6,8.5,13.2,6.8,13.2,6.8z"/>
<path fill="#FFFFFF" d="M31.4,8.4c0.7,0.4,1.1,0.9,1.5,1.3c0-0.2,0-0.3,0-0.5c0-0.8,0-1.3-0.4-1.6c-0.6-0.4-1.7-0.2-2.4,0.1
	C30.5,7.9,30.9,8.1,31.4,8.4z"/>
<path fill="#FFFFFF" d="M8.9,9c0.8-0.8,1.7-1.3,2.4-1.7c-0.2-0.1-0.4-0.2-0.7-0.2C9.4,6.7,9,7,8.5,7.5c-0.8,0.7-1.2,1.9-1.1,3.1
	C7.7,10.2,8.2,9.6,8.9,9z"/>
<g>
	<path fill="#FFFFFF" d="M22.2,8.5c-0.1-0.1,1-1.1,2.7-1.4c3.4-0.6,8.9,0.1,9,6.7c0,0-0.3-0.5-0.8-0.8c0,0,1.3,2.8-0.2,4.6
		c0,0-4.5-1.8-5.6-2.6l0.2,0.8C27.5,15.7,22.1,13.9,22.2,8.5z"/>
	<path fill="#FFFFFF" d="M29.7,8.8c-0.7-0.5-1.5-0.9-2.4-1.1c-0.4-0.1-0.8-0.2-1.3-0.2c-0.2,0-0.4,0-0.6,0.1c-0.1,0-0.2,0.1-0.3,0.1
		c0,0-0.1,0-0.1,0c0.3,0.1,0.6,0.2,0.9,0.4c0.4,0.2,0.7,0.4,1,0.6c0.3,0.2,0.6,0.4,0.9,0.7c0.3,0.3,0.6,0.5,0.8,0.8
		c0.5,0.6,1,1.2,1.4,1.9c0.2,0.3,0.4,0.7,0.5,1c0.2,0.4,0.3,0.7,0.4,1.1c0-0.2-0.1-0.4-0.2-0.6c-0.1-0.2-0.1-0.4-0.2-0.5
		c-0.2-0.3-0.4-0.7-0.6-1c-0.4-0.6-0.9-1.3-1.4-1.8c-0.5-0.6-1.1-1.1-1.7-1.5c-0.6-0.4-1.4-0.7-2.1-1l-0.2-0.1l0.1-0.1
		c0.1-0.1,0.2-0.1,0.3-0.2c0.1,0,0.2-0.1,0.3-0.1c0.2-0.1,0.5-0.1,0.7-0.1c0.5,0,0.9,0.1,1.3,0.2c0.9,0.3,1.7,0.6,2.4,1.2
		c0.7,0.5,1.4,1.1,2,1.8c0.3,0.3,0.6,0.7,0.8,1c0.3,0.4,0.5,0.7,0.7,1.1c-0.5-0.7-1-1.4-1.6-2.1C31,9.9,30.4,9.3,29.7,8.8"/>
	<path fill="#FFFFFF" d="M23.1,7.7c0,0,0.1-0.1,0.2-0.1c0.1,0,0.2-0.1,0.3-0.1c0.1-0.1,0.2-0.1,0.3-0.2c0.1,0,0.3-0.1,0.4-0.1
		C24.5,7,24.6,7,24.8,7c0.2,0,0.3-0.1,0.5-0.1c0.2,0,0.4-0.1,0.5-0.1c0.2,0,0.4,0,0.5,0c0.1,0,0.2,0,0.3,0c0.1,0,0.2,0,0.3,0
		c0.2,0,0.3,0,0.5,0c0.2,0,0.3,0,0.4,0.1c0.1,0,0.1,0,0.2,0c0.1,0,0.1,0,0.2,0c0.1,0,0.2,0,0.3,0.1c0.2,0,0.2,0.1,0.2,0.1
		s-0.1,0-0.2,0c-0.1,0-0.2,0-0.3,0c-0.1,0-0.2,0-0.4,0c-0.1,0-0.3,0-0.4,0c-0.2,0-0.3,0-0.5,0c-0.2,0-0.3,0-0.5,0
		c-0.2,0-0.4,0-0.5,0c-0.2,0-0.4,0-0.5,0.1c-0.2,0-0.3,0-0.5,0.1c-0.2,0-0.3,0.1-0.5,0.1c-0.1,0-0.3,0.1-0.4,0.1
		c-0.1,0-0.2,0.1-0.3,0.1c-0.1,0-0.2,0.1-0.3,0.1C23.3,7.6,23.2,7.6,23.1,7.7C23.1,7.7,23.1,7.7,23.1,7.7z"/>
</g>
<g>
	<path fill="#FFFFFF" d="M14.4,6c0,0-12.7,4.3-6.1,12.4c0,0,0-2.9,3.6-3.8c0,0-1.1,1.5-2,1.9c0,0,2.8,0.7,7.2-3c0,0-0.1,0.4-1,1.2
		c0,0,2.1,0.1,4.8-2.7l-0.3,2c0,0,2-0.8,2.7-3C24.7,6.4,24.5,2.4,14.4,6z"/>
	<path fill="#FFFFFF" d="M23.5,5.8c0.1,0.4,0.6,2.2-0.2,4.5c-0.8,2.4-2.5,3.5-2.7,3.6c0.2,0,2.2-0.7,3-3.5c0.3-1.1,0.4-2,0.4-2.7
		C23.9,6.4,23.6,6,23.5,5.8z"/>
	<path fill="#FFFFFF" d="M20.5,6.4c-0.3,0.2-0.7,0.4-1.1,0.6c-0.4,0.2-0.8,0.4-1.1,0.5c-0.8,0.3-1.6,0.6-2.4,0.8
		c-0.4,0.1-0.8,0.2-1.2,0.2c-0.4,0.1-0.8,0.1-1.3,0.2c-0.4,0-0.8,0.1-1.3,0.1c-0.2,0-0.4,0-0.6,0c-0.2,0-0.4,0-0.6,0
		C11.2,9,11.7,9,12.1,9c0.4,0,0.9,0,1.3,0c0.4,0,0.9-0.1,1.3-0.1c0.4-0.1,0.9-0.1,1.3-0.2c0.8-0.2,1.7-0.4,2.5-0.8
		c0.7-0.3,1.3-0.6,1.9-1c0,0.1-0.1,0.3-0.1,0.4C20.1,7.5,20,7.8,19.9,8c-0.2,0.5-0.5,1-0.9,1.4c-0.7,0.9-1.5,1.6-2.5,2.1
		c-1,0.5-2,0.9-3.1,1.2c-1.1,0.3-2.2,0.5-3.3,0.5c0.6,0,1.1,0,1.7-0.1c0.6-0.1,1.1-0.1,1.7-0.3c1.1-0.3,2.2-0.6,3.2-1.2
		c1-0.5,1.9-1.3,2.6-2.2c0.4-0.4,0.7-0.9,0.9-1.4c0.1-0.3,0.2-0.5,0.3-0.8c0.1-0.3,0.2-0.5,0.3-0.8l0.1-0.4L20.5,6.4z"/>
	<path fill="#FFFFFF" d="M7,11.5c0,0,1-3,5.8-5.2c4.7-2.2,7.8-1.8,7.8-1.8c0,0-3.1,0.1-7.7,2.2C8.2,9,7,11.5,7,11.5z"/>
</g>
</svg>
