<?xml version="1.0" encoding="utf-8"?>
<!-- Generator: Adobe Illustrator 21.0.0, SVG Export Plug-In . SVG Version: 6.00 Build 0)  -->
<svg version="1.1" xmlns="http://www.w3.org/2000/svg" xmlns:xlink="http://www.w3.org/1999/xlink" x="0px" y="0px"
	 viewBox="0 0 310 296" enable-background="new 0 0 310 296" xml:space="preserve" width="310" height="296" preserveAspectRatio="none">
<g id="Fiona_Right_Ear">
	<g>
		<g>
			<path fill="#B869A2" d="M122.4,117.8c-7,36.2,46.7,40.9,50.4,62.8c3.7,21.9-23.2,25.1-23.2,25.1s25.6,22.9,42,5.3
				c11.9-12.8,19-49.7,10-65.2c-7.3-12.6-28.9-10.9-26.7-23.1c2.2-12.2,12.3-8.5,21.8-13.2c11.9-6,6.3-22.7,1.1-27.6
				C173.5,61.3,129.6,80.7,122.4,117.8"/>
			<path fill="#7D0052" d="M165.4,154.1c-2.1-0.7-4.2-1.6-6.2-2.6c-2-1-3.9-2.2-5.7-3.5c-9.4-6.8-14.7-17.6-13.7-29.2
				c0.2-2.3,0.6-4.5,1.1-6.7c0.6-2.3,1.8-4.3,3.2-6.1c1.4-1.8,3.2-3.3,5-4.7c3.7-2.7,7.7-4.7,11.9-6.4c4.2-1.7,8.5-3,12.8-4.1
				c4.3-1.1,8.7-2,13.2-2.6l3.1-0.4l-2.6,1.8c-5.6,3.7-10.9,8-15.5,12.8c-3.8,4-7.2,8.7-8.1,14.3c-0.4,2.4-0.3,4.9,0.1,7.3
				c0.5,2.4,1.3,4.8,2.4,6.9c0.6,1.1,1.2,2.2,2,3.2c0.7,1,1.5,2,2.4,2.9c-1.9-1.6-3.5-3.6-4.8-5.8c-1.3-2.2-2.3-4.5-2.8-7
				c-0.8-3.8-0.8-7.7,0.5-11.4c1.3-3.5,3.3-6.7,5.8-9.6c4.9-5.7,11.1-10.7,17.3-14.9l0.5,1.3c-4.4,0.6-8.7,1.5-13,2.6
				c-4.3,1.1-8.5,2.4-12.6,4c-6.4,2.6-13.9,6.1-17.5,12.3c-1.4,2.5-2.3,5.3-2.8,8.2c-1.2,7.2,0,14.8,3.8,21.1
				c2.3,3.8,5.3,7.1,8.8,9.8c1.7,1.4,3.6,2.6,5.5,3.7C161.3,152.4,163.3,153.4,165.4,154.1"/>
			<path fill="#7D0052" d="M180.6,74c-4.5,3.9-6.7,9.6-5.1,14.8c2.3,7.5,11.6,11.3,20.7,8.5c2.8-0.9,5.2-2.3,7.2-4
				c-0.9-4.8-3.3-9.3-5.5-11.5C192.8,77.6,186.9,75,180.6,74z"/>
			<path fill="#C21B7B" d="M193.4,91.4c-3,0.8-6.3,0.6-8.9-1.2c-2.7-1.8-4.1-4.7-4.2-7.9c0-0.4,0-0.7,0-1c0-0.5,0.1-0.9,0.1-0.9
				s0,0.3,0.1,0.8c0.3,3.2,1.9,6.1,4.5,8c1.2,0.9,2.5,1.5,3.9,1.8C190.4,91.5,192,91.1,193.4,91.4"/>
			<path fill="#C21B7B" d="M178.3,80.2c0,0-0.1,0.4-0.2,1.2c-0.1,0.7-0.2,1.8-0.1,3.1c0.1,1.3,0.4,2.8,1,4.2
				c1.5,3.1,4.1,5.4,7.5,5.9c2.7,0.4,5.1-0.3,7.7-0.7c-0.6,1-2.6,1.1-3.6,1.3c-2,0.5-3.9,0.6-5.8,0c-3-1-5.2-3.4-6.4-6.3
				c-0.6-1.6-0.9-3.1-0.8-4.5c0-1.3,0.2-2.4,0.4-3.1C178.1,80.6,178.3,80.2,178.3,80.2"/>
		</g>
		<path fill="#7D0052" d="M192.9,183.1c0,0-5.5,4-14.9,2.8c-15.4-1.9-19.3-10.5-19.3-10.5s-5.1,9.9,2,17.3c4.8,5,11.3,6.4,11.3,6.4
			s-6,6.4-4.8,9.3c1.2,2.8,5.5,3,10.9,2c8.9-1.6,14.5-17.7,14.5-17.7L192.9,183.1z"/>
		<g>
			<path opacity="0.1" fill="#384E7D" d="M165,277.3c0,9.5-34.8,17.2-77.7,17.2s-77.7-7.7-77.7-17.2c0-9.5,34.8-17.2,77.7-17.2
				S165,267.8,165,277.3"/>
			<g>
				<path fill="#00AFBA" d="M53.2,228.5c0,0-2.9,12.9-0.7,26.2c0,0-4.3-0.1-5.2-0.1c-0.8,0-2.5-0.4-2.5-0.4s-1.6-17.5,1.9-25.5
					L53.2,228.5z"/>
				<path fill="#C9362C" d="M45.8,264.8C23.5,259,26,270.7,26,270.7c20.8,3.6,31.9-1,31.9-1c-2.5-4-5.4-15.9-5.4-15.9
					c-3.8,0.3-7.8-0.2-7.8-0.2C44.4,259,45.8,264.8,45.8,264.8"/>
				<path fill="#69131D" d="M48.7,267.6C48.7,267.6,48.7,267.6,48.7,267.6L33.6,267c-0.3,0-0.5-0.2-0.5-0.5c0-0.3,0.2-0.5,0.5-0.5
					l14.5,0.6l-0.9-12.7c0-0.3,0.2-0.5,0.5-0.5c0.3,0,0.5,0.2,0.5,0.5l0.9,13.2c0,0.1,0,0.3-0.1,0.4
					C48.9,267.5,48.8,267.6,48.7,267.6z"/>
				<path fill="#69131D" d="M38.5,267.1C38.5,267.1,38.5,267.1,38.5,267.1c-0.3,0-0.5-0.3-0.5-0.6l0.4-3.1c0-0.3,0.3-0.5,0.6-0.4
					c0.3,0,0.5,0.3,0.4,0.6l-0.4,3.1C39,266.9,38.8,267.1,38.5,267.1z"/>
				<path fill="#69131D" d="M43.4,267.4c-0.2,0-0.5-0.2-0.5-0.4l-0.4-2.7c0-0.3,0.2-0.5,0.4-0.6c0.3,0,0.5,0.2,0.6,0.4l0.4,2.7
					C43.9,267.1,43.7,267.3,43.4,267.4C43.4,267.4,43.4,267.4,43.4,267.4z"/>
				<path fill="#69131D" d="M47.8,257.2C47.8,257.2,47.8,257.2,47.8,257.2l-3.1-0.1c-0.3,0-0.5-0.2-0.5-0.5c0-0.3,0.2-0.5,0.5-0.5
					l3.1,0.1c0.3,0,0.5,0.2,0.5,0.5C48.3,257,48,257.2,47.8,257.2z"/>
				<path fill="#69131D" d="M48.2,261.6c0,0-0.1,0-0.1,0l-3.2-0.7c-0.3-0.1-0.4-0.3-0.4-0.6c0.1-0.3,0.3-0.4,0.6-0.4l3.2,0.7
					c0.3,0.1,0.4,0.3,0.4,0.6C48.7,261.4,48.5,261.6,48.2,261.6z"/>
				<path fill="none" d="M45.8,264.8C23.5,259,26,270.7,26,270.7c20.8,3.6,31.9-1,31.9-1c-2.5-4-5.4-15.9-5.4-15.9
					c-3.8,0.3-7.8-0.2-7.8-0.2C44.4,259,45.8,264.8,45.8,264.8"/>
				<path fill="#FFFFFF" d="M34.4,263.1L34.4,263.1c-7.6,0.2-8.7,4.3-8.8,6.3v0c0,0.2,0,0.3,0,0.5c0,0,0,0,0,0c0,0.1,0,0.3,0,0.3
					c0,0,0,0,0,0c0,0,0,0.1,0,0.1c0,0,0,0,0,0c0,0,0,0.1,0,0.1c0,0,0,0,0,0c0,0,0,0,0,0.1c0,0,0,0,0,0c0,0,0,0.6,0,0.6
					c1.8,0.3,5.4,0.8,9.6,0.7c0,0-0.5-1.9-0.8-4C34.2,265.7,34.3,264.7,34.4,263.1z"/>
				<path fill="#D1D2D3" d="M25.7,270.7c0,0-0.4,1.1,0,3c0,0.1,0,0.2,0.1,0.3c0.4,2,33.4,0.5,34.4-0.9c0,0-0.8-2-2-3.3
					C58.1,269.7,51.2,272.1,25.7,270.7"/>
			</g>
			<g>
				<path fill="#00AFBA" d="M93.2,228.5c0,0-2.9,12.9-0.7,26.2c0,0-4.3-0.1-5.2-0.1c-0.8,0-2.5-0.4-2.5-0.4s-1.6-17.5,1.9-25.5
					L93.2,228.5z"/>
				<path fill="#C9362C" d="M85.8,264.8C63.5,259,66,270.7,66,270.7c20.8,3.6,31.9-1,31.9-1c-2.5-4-5.4-15.9-5.4-15.9
					c-3.8,0.3-7.8-0.2-7.8-0.2C84.4,259,85.8,264.8,85.8,264.8"/>
				<path fill="#69131D" d="M88.7,267.6C88.7,267.6,88.7,267.6,88.7,267.6L73.6,267c-0.3,0-0.5-0.2-0.5-0.5c0-0.3,0.2-0.5,0.5-0.5
					l14.5,0.6l-0.9-12.7c0-0.3,0.2-0.5,0.5-0.5c0.3,0,0.5,0.2,0.5,0.5l0.9,13.2c0,0.1,0,0.3-0.1,0.4
					C88.9,267.5,88.8,267.6,88.7,267.6z"/>
				<path fill="#69131D" d="M78.5,267.1C78.5,267.1,78.5,267.1,78.5,267.1c-0.3,0-0.5-0.3-0.5-0.6l0.4-3.1c0-0.3,0.3-0.5,0.6-0.4
					c0.3,0,0.5,0.3,0.4,0.6l-0.4,3.1C79,266.9,78.8,267.1,78.5,267.1z"/>
				<path fill="#69131D" d="M83.4,267.4c-0.2,0-0.5-0.2-0.5-0.4l-0.4-2.7c0-0.3,0.2-0.5,0.4-0.6c0.3,0,0.5,0.2,0.6,0.4l0.4,2.7
					C83.9,267.1,83.7,267.3,83.4,267.4C83.4,267.4,83.4,267.4,83.4,267.4z"/>
				<path fill="#69131D" d="M87.8,257.2C87.8,257.2,87.8,257.2,87.8,257.2l-3.1-0.1c-0.3,0-0.5-0.2-0.5-0.5c0-0.3,0.2-0.5,0.5-0.5
					l3.1,0.1c0.3,0,0.5,0.2,0.5,0.5C88.3,257,88,257.2,87.8,257.2z"/>
				<path fill="#69131D" d="M88.2,261.6c0,0-0.1,0-0.1,0l-3.2-0.7c-0.3-0.1-0.4-0.3-0.4-0.6c0.1-0.3,0.3-0.4,0.6-0.4l3.2,0.7
					c0.3,0.1,0.4,0.3,0.4,0.6C88.7,261.4,88.5,261.6,88.2,261.6z"/>
				<path fill="none" d="M85.8,264.8C63.5,259,66,270.7,66,270.7c20.8,3.6,31.9-1,31.9-1c-2.5-4-5.4-15.9-5.4-15.9
					c-3.8,0.3-7.8-0.2-7.8-0.2C84.4,259,85.8,264.8,85.8,264.8"/>
				<path fill="#FFFFFF" d="M74.4,263.1L74.4,263.1c-7.6,0.2-8.7,4.3-8.8,6.3v0c0,0.2,0,0.3,0,0.5c0,0,0,0,0,0c0,0.1,0,0.3,0,0.3
					c0,0,0,0,0,0c0,0,0,0.1,0,0.1c0,0,0,0,0,0c0,0,0,0.1,0,0.1c0,0,0,0,0,0c0,0,0,0,0,0.1c0,0,0,0,0,0c0,0,0,0.6,0,0.6
					c1.8,0.3,5.4,0.8,9.6,0.7c0,0-0.5-1.9-0.8-4C74.2,265.7,74.3,264.7,74.4,263.1z"/>
				<path fill="#D1D2D3" d="M65.7,270.7c0,0-0.4,1.1,0,3c0,0.1,0,0.2,0.1,0.3c0.4,2,33.4,0.5,34.4-0.9c0,0-0.8-2-2-3.3
					C98.1,269.7,91.2,272.1,65.7,270.7"/>
			</g>
			<g>
				<path fill="#00AFBA" d="M131.2,227.5c0,0-2.9,12.9-0.7,26.2c0,0-4.3-0.1-5.2-0.1c-0.8,0-2.5-0.4-2.5-0.4s-1.6-17.5,1.9-25.5
					L131.2,227.5z"/>
				<path fill="#C9362C" d="M123.8,263.8c-22.3-5.8-19.8,5.8-19.8,5.8c20.8,3.6,31.9-1,31.9-1c-2.5-4-5.4-15.9-5.4-15.9
					c-3.8,0.3-7.8-0.2-7.8-0.2C122.4,258,123.8,263.8,123.8,263.8"/>
				<path fill="#69131D" d="M126.7,266.6C126.7,266.6,126.7,266.6,126.7,266.6l-15.1-0.6c-0.3,0-0.5-0.2-0.5-0.5
					c0-0.3,0.2-0.5,0.5-0.5l14.5,0.6l-0.9-12.7c0-0.3,0.2-0.5,0.5-0.5c0.3,0,0.5,0.2,0.5,0.5l0.9,13.2c0,0.1,0,0.3-0.1,0.4
					C126.9,266.5,126.8,266.6,126.7,266.6z"/>
				<path fill="#69131D" d="M116.5,266.1C116.5,266.1,116.5,266.1,116.5,266.1c-0.3,0-0.5-0.3-0.5-0.6l0.4-3.1
					c0-0.3,0.3-0.5,0.6-0.4c0.3,0,0.5,0.3,0.4,0.6l-0.4,3.1C117,265.9,116.8,266.1,116.5,266.1z"/>
				<path fill="#69131D" d="M121.4,266.4c-0.2,0-0.5-0.2-0.5-0.4l-0.4-2.7c0-0.3,0.2-0.5,0.4-0.6c0.3,0,0.5,0.2,0.6,0.4l0.4,2.7
					C121.9,266.1,121.7,266.3,121.4,266.4C121.4,266.4,121.4,266.4,121.4,266.4z"/>
				<path fill="#69131D" d="M125.8,256.2C125.8,256.2,125.8,256.2,125.8,256.2l-3.1-0.1c-0.3,0-0.5-0.2-0.5-0.5
					c0-0.3,0.2-0.5,0.5-0.5l3.1,0.1c0.3,0,0.5,0.2,0.5,0.5C126.3,256,126,256.2,125.8,256.2z"/>
				<path fill="#69131D" d="M126.2,260.6c0,0-0.1,0-0.1,0l-3.2-0.7c-0.3-0.1-0.4-0.3-0.4-0.6c0.1-0.3,0.3-0.4,0.6-0.4l3.2,0.7
					c0.3,0.1,0.4,0.3,0.4,0.6C126.7,260.4,126.5,260.6,126.2,260.6z"/>
				<path fill="none" d="M123.8,263.8c-22.3-5.8-19.8,5.8-19.8,5.8c20.8,3.6,31.9-1,31.9-1c-2.5-4-5.4-15.9-5.4-15.9
					c-3.8,0.3-7.8-0.2-7.8-0.2C122.4,258,123.8,263.8,123.8,263.8"/>
				<path fill="#FFFFFF" d="M112.4,262.1L112.4,262.1c-7.6,0.2-8.7,4.3-8.8,6.3v0c0,0.2,0,0.3,0,0.5c0,0,0,0,0,0c0,0.1,0,0.3,0,0.3
					c0,0,0,0,0,0c0,0,0,0.1,0,0.1c0,0,0,0,0,0c0,0,0,0.1,0,0.1c0,0,0,0,0,0c0,0,0,0,0,0.1c0,0,0,0,0,0c0,0,0,0.6,0,0.6
					c1.8,0.3,5.4,0.8,9.6,0.7c0,0-0.5-1.9-0.8-4C112.2,264.7,112.3,263.7,112.4,262.1z"/>
				<path fill="#D1D2D3" d="M103.7,269.7c0,0-0.4,1.1,0,3c0,0.1,0,0.2,0.1,0.3c0.4,2,33.4,0.5,34.4-0.9c0,0-0.8-2-2-3.3
					C136.1,268.7,129.2,271.1,103.7,269.7"/>
			</g>
			<g>
				<path fill="#00AFBA" d="M71.2,238.5c0,0-2.9,12.9-0.7,26.2c0,0-4.3-0.1-5.2-0.1c-0.8,0-2.5-0.4-2.5-0.4s-1.6-17.5,1.9-25.5
					L71.2,238.5z"/>
				<path fill="#C9362C" d="M63.8,274.8C41.5,269,44,280.7,44,280.7c20.8,3.6,31.9-1,31.9-1c-2.5-4-5.4-15.9-5.4-15.9
					c-3.8,0.3-7.8-0.2-7.8-0.2C62.4,269,63.8,274.8,63.8,274.8"/>
				<path fill="#69131D" d="M66.7,277.6C66.7,277.6,66.7,277.6,66.7,277.6L51.6,277c-0.3,0-0.5-0.2-0.5-0.5c0-0.3,0.2-0.5,0.5-0.5
					l14.5,0.6l-0.9-12.7c0-0.3,0.2-0.5,0.5-0.5c0.3,0,0.5,0.2,0.5,0.5l0.9,13.2c0,0.1,0,0.3-0.1,0.4
					C66.9,277.5,66.8,277.6,66.7,277.6z"/>
				<path fill="#69131D" d="M56.5,277.1C56.5,277.1,56.5,277.1,56.5,277.1c-0.3,0-0.5-0.3-0.5-0.6l0.4-3.1c0-0.3,0.3-0.5,0.6-0.4
					c0.3,0,0.5,0.3,0.4,0.6l-0.4,3.1C57,276.9,56.8,277.1,56.5,277.1z"/>
				<path fill="#69131D" d="M61.4,277.4c-0.2,0-0.5-0.2-0.5-0.4l-0.4-2.7c0-0.3,0.2-0.5,0.4-0.6c0.3,0,0.5,0.2,0.6,0.4l0.4,2.7
					C61.9,277.1,61.7,277.3,61.4,277.4C61.4,277.4,61.4,277.4,61.4,277.4z"/>
				<path fill="#69131D" d="M65.8,267.2C65.8,267.2,65.8,267.2,65.8,267.2l-3.1-0.1c-0.3,0-0.5-0.2-0.5-0.5c0-0.3,0.2-0.5,0.5-0.5
					l3.1,0.1c0.3,0,0.5,0.2,0.5,0.5C66.3,267,66,267.2,65.8,267.2z"/>
				<path fill="#69131D" d="M66.2,271.6c0,0-0.1,0-0.1,0l-3.2-0.7c-0.3-0.1-0.4-0.3-0.4-0.6c0.1-0.3,0.3-0.4,0.6-0.4l3.2,0.7
					c0.3,0.1,0.4,0.3,0.4,0.6C66.7,271.4,66.5,271.6,66.2,271.6z"/>
				<path fill="none" d="M63.8,274.8C41.5,269,44,280.7,44,280.7c20.8,3.6,31.9-1,31.9-1c-2.5-4-5.4-15.9-5.4-15.9
					c-3.8,0.3-7.8-0.2-7.8-0.2C62.4,269,63.8,274.8,63.8,274.8"/>
				<path fill="#FFFFFF" d="M52.4,273.1L52.4,273.1c-7.6,0.2-8.7,4.3-8.8,6.3v0c0,0.2,0,0.3,0,0.5c0,0,0,0,0,0c0,0.1,0,0.3,0,0.3
					c0,0,0,0,0,0c0,0,0,0.1,0,0.1c0,0,0,0,0,0c0,0,0,0.1,0,0.1c0,0,0,0,0,0c0,0,0,0,0,0.1c0,0,0,0,0,0c0,0,0,0.6,0,0.6
					c1.8,0.3,5.4,0.8,9.6,0.7c0,0-0.5-1.9-0.8-4C52.2,275.7,52.3,274.7,52.4,273.1z"/>
				<path fill="#D1D2D3" d="M43.7,280.7c0,0-0.4,1.1,0,3c0,0.1,0,0.2,0.1,0.3c0.4,2,33.4,0.5,34.4-0.9c0,0-0.8-2-2-3.3
					C76.1,279.7,69.2,282.1,43.7,280.7"/>
			</g>
			<g>
				<path fill="#00AFBA" d="M111.2,238.5c0,0-2.9,12.9-0.7,26.2c0,0-4.3-0.1-5.2-0.1s-2.5-0.4-2.5-0.4s-1.6-17.5,1.9-25.5
					L111.2,238.5z"/>
				<path fill="#C9362C" d="M103.8,274.8C81.5,269,84,280.7,84,280.7c20.8,3.6,31.9-1,31.9-1c-2.5-4-5.4-15.9-5.4-15.9
					c-3.8,0.3-7.8-0.2-7.8-0.2C102.4,269,103.8,274.8,103.8,274.8"/>
				<path fill="#69131D" d="M106.7,277.6C106.7,277.6,106.7,277.6,106.7,277.6L91.6,277c-0.3,0-0.5-0.2-0.5-0.5
					c0-0.3,0.2-0.5,0.5-0.5l14.5,0.6l-0.9-12.7c0-0.3,0.2-0.5,0.5-0.5c0.3,0,0.5,0.2,0.5,0.5l0.9,13.2c0,0.1,0,0.3-0.1,0.4
					C106.9,277.5,106.8,277.6,106.7,277.6z"/>
				<path fill="#69131D" d="M96.5,277.1C96.5,277.1,96.5,277.1,96.5,277.1c-0.3,0-0.5-0.3-0.5-0.6l0.4-3.1c0-0.3,0.3-0.5,0.6-0.4
					c0.3,0,0.5,0.3,0.4,0.6l-0.4,3.1C97,276.9,96.8,277.1,96.5,277.1z"/>
				<path fill="#69131D" d="M101.4,277.4c-0.2,0-0.5-0.2-0.5-0.4l-0.4-2.7c0-0.3,0.2-0.5,0.4-0.6c0.3,0,0.5,0.2,0.6,0.4l0.4,2.7
					C101.9,277.1,101.7,277.3,101.4,277.4C101.4,277.4,101.4,277.4,101.4,277.4z"/>
				<path fill="#69131D" d="M105.8,267.2C105.8,267.2,105.8,267.2,105.8,267.2l-3.1-0.1c-0.3,0-0.5-0.2-0.5-0.5
					c0-0.3,0.2-0.5,0.5-0.5l3.1,0.1c0.3,0,0.5,0.2,0.5,0.5C106.3,267,106,267.2,105.8,267.2z"/>
				<path fill="#69131D" d="M106.2,271.6c0,0-0.1,0-0.1,0l-3.2-0.7c-0.3-0.1-0.4-0.3-0.4-0.6c0.1-0.3,0.3-0.4,0.6-0.4l3.2,0.7
					c0.3,0.1,0.4,0.3,0.4,0.6C106.7,271.4,106.5,271.6,106.2,271.6z"/>
				<path fill="none" d="M103.8,274.8C81.5,269,84,280.7,84,280.7c20.8,3.6,31.9-1,31.9-1c-2.5-4-5.4-15.9-5.4-15.9
					c-3.8,0.3-7.8-0.2-7.8-0.2C102.4,269,103.8,274.8,103.8,274.8"/>
				<path fill="#FFFFFF" d="M92.4,273.1L92.4,273.1c-7.6,0.2-8.7,4.3-8.8,6.3v0c0,0.2,0,0.3,0,0.5c0,0,0,0,0,0c0,0.1,0,0.3,0,0.3
					c0,0,0,0,0,0c0,0,0,0.1,0,0.1c0,0,0,0,0,0c0,0,0,0.1,0,0.1c0,0,0,0,0,0c0,0,0,0,0,0.1c0,0,0,0,0,0c0,0,0,0.6,0,0.6
					c1.8,0.3,5.4,0.8,9.6,0.7c0,0-0.5-1.9-0.8-4C92.2,275.7,92.3,274.7,92.4,273.1z"/>
				<path fill="#D1D2D3" d="M83.7,280.7c0,0-0.4,1.1,0,3c0,0.1,0,0.2,0.1,0.3c0.4,2,33.4,0.5,34.4-0.9c0,0-0.8-2-2-3.3
					C116.1,279.7,109.2,282.1,83.7,280.7"/>
			</g>
			<g>
				<path fill="#00AFBA" d="M149.2,237.5c0,0-2.9,12.9-0.7,26.2c0,0-4.3-0.1-5.2-0.1c-0.8,0-2.5-0.4-2.5-0.4s-1.6-17.5,1.9-25.5
					L149.2,237.5z"/>
				<path fill="#C9362C" d="M141.8,273.8c-22.3-5.8-19.8,5.8-19.8,5.8c20.8,3.6,31.9-1,31.9-1c-2.5-4-5.4-15.9-5.4-15.9
					c-3.8,0.3-7.8-0.2-7.8-0.2C140.4,268,141.8,273.8,141.8,273.8"/>
				<path fill="#69131D" d="M144.7,276.6C144.7,276.6,144.7,276.6,144.7,276.6l-15.1-0.6c-0.3,0-0.5-0.2-0.5-0.5
					c0-0.3,0.2-0.5,0.5-0.5l14.5,0.6l-0.9-12.7c0-0.3,0.2-0.5,0.5-0.5c0.3,0,0.5,0.2,0.5,0.5l0.9,13.2c0,0.1,0,0.3-0.1,0.4
					C144.9,276.5,144.8,276.6,144.7,276.6z"/>
				<path fill="#69131D" d="M134.5,276.1C134.5,276.1,134.5,276.1,134.5,276.1c-0.3,0-0.5-0.3-0.5-0.6l0.4-3.1
					c0-0.3,0.3-0.5,0.6-0.4c0.3,0,0.5,0.3,0.4,0.6l-0.4,3.1C135,275.9,134.8,276.1,134.5,276.1z"/>
				<path fill="#69131D" d="M139.4,276.4c-0.2,0-0.5-0.2-0.5-0.4l-0.4-2.7c0-0.3,0.2-0.5,0.4-0.6c0.3,0,0.5,0.2,0.6,0.4l0.4,2.7
					C139.9,276.1,139.7,276.3,139.4,276.4C139.4,276.4,139.4,276.4,139.4,276.4z"/>
				<path fill="#69131D" d="M143.8,266.2C143.8,266.2,143.8,266.2,143.8,266.2l-3.1-0.1c-0.3,0-0.5-0.2-0.5-0.5
					c0-0.3,0.2-0.5,0.5-0.5l3.1,0.1c0.3,0,0.5,0.2,0.5,0.5C144.3,266,144,266.2,143.8,266.2z"/>
				<path fill="#69131D" d="M144.2,270.6c0,0-0.1,0-0.1,0l-3.2-0.7c-0.3-0.1-0.4-0.3-0.4-0.6c0.1-0.3,0.3-0.4,0.6-0.4l3.2,0.7
					c0.3,0.1,0.4,0.3,0.4,0.6C144.7,270.4,144.5,270.6,144.2,270.6z"/>
				<path fill="none" d="M141.8,273.8c-22.3-5.8-19.8,5.8-19.8,5.8c20.8,3.6,31.9-1,31.9-1c-2.5-4-5.4-15.9-5.4-15.9
					c-3.8,0.3-7.8-0.2-7.8-0.2C140.4,268,141.8,273.8,141.8,273.8"/>
				<path fill="#FFFFFF" d="M130.4,272.1L130.4,272.1c-7.6,0.2-8.7,4.3-8.8,6.3v0c0,0.2,0,0.3,0,0.5c0,0,0,0,0,0c0,0.1,0,0.3,0,0.3
					c0,0,0,0,0,0c0,0,0,0.1,0,0.1c0,0,0,0,0,0c0,0,0,0.1,0,0.1c0,0,0,0,0,0c0,0,0,0,0,0.1c0,0,0,0,0,0c0,0,0,0.6,0,0.6
					c1.8,0.3,5.4,0.8,9.6,0.7c0,0-0.5-1.9-0.8-4C130.2,274.7,130.3,273.7,130.4,272.1z"/>
				<path fill="#D1D2D3" d="M121.7,279.7c0,0-0.4,1.1,0,3c0,0.1,0,0.2,0.1,0.3c0.4,2,33.4,0.5,34.4-0.9c0,0-0.8-2-2-3.3
					C154.1,278.7,147.2,281.1,121.7,279.7"/>
			</g>
			<g>
				<g>
					<path fill="#F1F3F4" d="M52.4,179.8c0,0-9.5,16.6-15.5,16.9c-6,0.3-9-2.4-9-2.4l-1.4,6.8c0,0,5,7.3,15.3,3.2
						c10.3-4.1,13.6-20.5,13.6-20.5L52.4,179.8z"/>
				</g>
				<path fill="#FFD25F" d="M35.8,194.6l-2.2,14.6c0,0-3.6-1.3-8.7-4.5c-5.1-3.3-10.5-7.3-10.5-7.3s-5.4,0.9-7.2-0.9
					c-1.8-1.8,3.5-3.2,3.5-3.2s-5.8,0.4-5.8-2.7c0-3.1,5.5-2.1,5.5-2.1s-5.1-0.5-4.9-2.6c0.2-2,4.8-2.3,7.1-1.8
					c3.9,0.8,4.1,1.9,4.1,1.9s0-8.4,1.5-8.6c1.5-0.3,3.6,1.2,4.2,4.6c0.5,3.3-1.8,6.9-1.8,6.9s3.4,4.4,7,5.4
					C31.2,195.2,35.8,194.6,35.8,194.6z"/>
				<g>
					<path fill="#F79B32" d="M14.8,185.1c0.6,0.3,1.1,0.7,1.5,1.3c0.4,0.6,0.6,1.3,0.2,2.1c-0.4,0.7-1.2,1-1.8,1.1
						c-0.7,0.1-1.3,0.1-2,0.1l0.2-0.9c0.5,0.2,1,0.5,1.4,0.9c0.4,0.4,0.8,1.1,0.7,1.7c-0.1,0.6-0.3,1.2-0.8,1.6
						c-0.5,0.4-1.1,0.6-1.7,0.6l0-0.9c0.7,0.1,1.3,0.3,1.9,0.6c0.6,0.3,1.2,0.9,1.2,1.7c0.1,0.7-0.3,1.4-0.9,1.8
						c-0.5,0.4-1.2,0.6-1.8,0.6c0.6-0.2,1.1-0.5,1.5-0.9c0.4-0.4,0.6-0.9,0.5-1.4c-0.1-0.5-0.5-0.8-1-1.1c-0.5-0.2-1.1-0.4-1.6-0.4
						l-4.1-0.5l4.2-0.4c0.4,0,0.8-0.2,1.1-0.5c0.3-0.2,0.4-0.6,0.4-1c0-0.3-0.1-0.7-0.4-1c-0.3-0.3-0.7-0.5-1.1-0.7l-2.9-1.3
						l3.1,0.4c0.6,0.1,1.2,0.1,1.8,0.1c0.6-0.1,1.2-0.2,1.4-0.6c0.2-0.4,0.2-1.1,0-1.6C15.7,186,15.2,185.5,14.8,185.1z"/>
				</g>
				<g>
					<path fill="#F79B32" d="M18.9,187.9c-0.5,0.7-0.9,1.4-1.2,2.1c-0.3,0.7-0.5,1.4-0.4,2.2c0,1.4,0.7,2.9,1.5,4.3
						c-0.7-0.4-1.3-1.1-1.8-1.8c-0.5-0.7-0.8-1.6-0.8-2.5c0-0.9,0.3-1.8,0.7-2.5C17.5,188.8,18.2,188.2,18.9,187.9z"/>
				</g>
			</g>
			<g>
				<path fill="#F1F3F4" d="M66.7,172.8c-8.4,0.4-19.6-1.9-19.6-1.9c0,0.4,2.2,15.8,2.2,16.2c-0.7,24.7-13.3,55.8-13.3,55.8
					c6.6,1.9,25.5,2.4,25.5,2.4l1.6-8.2l2.1,10.4c0,0,32.6,2.2,46,2c36.7-0.7,42-7.3,42-7.3s-4.3-8.7-5-11.9
					c-2.2-9.8,0.3-15.4-2.3-21.8c-2.6-6.5-12.8-7.2-18-7c-5.2,0.2-16.3,2.1-16.3,2.1c-3.8-3.1-7.7-1.8-7.7-1.8
					c-5.3-18.5-8.8-32.7-8.8-32.7S82.1,173.8,66.7,172.8"/>
				<path fill="#CAD5DA" d="M64.7,180.4c0,0,0.3,3.5,0.4,8.7c0.1,2.6,0.1,5.6,0.1,8.9c0,1.6,0,3.3,0,5c0,1.7,0,3.4-0.1,5.2
					c0,1.7-0.1,3.5-0.1,5.2c0,1.7-0.1,3.4-0.2,5c-0.1,3.2-0.3,6.3-0.5,8.8c-0.3,5.2-0.8,8.6-0.8,8.6s-0.3-3.5-0.4-8.7
					c-0.1-2.6-0.1-5.6-0.1-8.9c0-1.6,0-3.3,0-5c0-1.7,0-3.4,0.1-5.2c0-1.7,0.1-3.5,0.1-5.2c0-1.7,0.1-3.4,0.2-5
					c0.1-3.2,0.3-6.3,0.5-8.8C64.3,183.8,64.7,180.4,64.7,180.4z"/>
				<path fill="#CAD5DA" d="M87.5,236.8l-11.3-4.9l1.2-17.4l21.7,1.2l-1.5,18L87.5,236.8z M77.3,231.3l10.3,4.4l9.1-2.8l1.4-16.3
					l-19.7-1.1L77.3,231.3z"/>

					<rect x="87" y="212.1" transform="matrix(5.704672e-02 -0.9984 0.9984 5.704672e-02 -139.4162 296.9686)" fill="#CAD5DA" width="1" height="20.4"/>
				<circle fill="#CAD5DA" cx="70.1" cy="192" r="2.9"/>
				<circle fill="#CAD5DA" cx="70.1" cy="211" r="2.9"/>
				<path fill="#CAD5DA" d="M43.2,221.7c-0.3,0-0.5-0.2-0.5-0.5c0-0.3,0.2-0.5,0.5-0.5l9.8-0.5c0.3,0,0.5,0.2,0.5,0.5
					c0,0.3-0.2,0.5-0.5,0.5L43.2,221.7C43.2,221.7,43.2,221.7,43.2,221.7z"/>
				<path fill="none" d="M66.7,172.8c-8.4,0.4-19.6-1.9-19.6-1.9c0,0.4,2.2,15.8,2.2,16.2c-0.7,24.7-13.3,55.8-13.3,55.8
					c6.6,1.9,25.5,2.4,25.5,2.4l1.6-8.2l2.1,10.4c0,0,32.6,2.2,46,2c36.7-0.7,42-7.3,42-7.3s-4.3-8.7-5-11.9
					c-2.2-9.8,0.3-15.4-2.3-21.8c-2.6-6.5-12.8-7.2-18-7c-5.2,0.2-16.3,2.1-16.3,2.1c-3.8-3.1-7.7-1.8-7.7-1.8
					c-5.3-18.5-8.8-32.7-8.8-32.7S82.1,173.8,66.7,172.8"/>
				<path fill="#CAD5DA" d="M148.1,230.3c0,0-0.2-0.6-0.6-1.8c-0.1-0.6-0.3-1.3-0.5-2.1c-0.2-0.8-0.3-1.7-0.4-2.7
					c-0.1-1-0.2-2.1-0.3-3.2c-0.1-1.2-0.1-2.4-0.1-3.6c0-1.2-0.1-2.5-0.2-3.7c-0.1-1.2-0.4-2.5-0.8-3.6l-0.2-0.4l-0.1-0.2l0-0.1
					c0-0.1,0,0.1,0,0.1l0,0l0,0l-0.1-0.1l-0.4-0.9c-0.3-0.5-0.6-0.9-1-1.3c-0.4-0.4-0.9-0.8-1.3-1.2c-0.5-0.3-1-0.7-1.5-0.9
					c-1-0.6-2.1-1-3.2-1.3c-1.1-0.3-2.1-0.6-3-0.8c-1-0.2-1.9-0.3-2.6-0.5c-0.8-0.1-1.5-0.2-2.1-0.3c-1.2-0.1-1.8-0.2-1.8-0.2
					s0.2,0,0.5-0.1c0.3,0,0.8-0.1,1.4-0.2c0.6,0,1.3-0.1,2.1-0.1c0.8,0,1.7,0,2.8,0.1c1,0.1,2.1,0.2,3.3,0.5
					c1.1,0.3,2.4,0.6,3.6,1.2c1.2,0.5,2.4,1.3,3.4,2.3c0.5,0.5,1,1.2,1.4,1.8l0.5,0.9l0.1,0.1l0.1,0.1l0,0.1l0.1,0.2l0.2,0.5
					c0.4,1.3,0.7,2.7,0.9,4.1c0.1,1.4,0.1,2.7,0.1,3.9c0,1.3-0.1,2.5-0.2,3.6c0,1.1-0.1,2.2-0.1,3.2c0,1,0,1.9,0.1,2.7
					c0,0.8,0.1,1.5,0.1,2.1C148.1,229.6,148.1,230.3,148.1,230.3z"/>
				<path fill="#CAD5DA" d="M44.9,234.8l-5.4-1.8c-0.3-0.1-0.4-0.4-0.3-0.6c0.1-0.3,0.4-0.4,0.6-0.3l5,1.7l8.2-3.5l-0.4-15.3
					l-7.7,0.4c-0.3,0-0.5-0.2-0.5-0.5c0-0.3,0.2-0.5,0.5-0.5l8.8-0.5l0.4,17L44.9,234.8z"/>
			</g>
			<g>
				<path fill="#F1F3F4" d="M115.9,194.3c-2.5-10.8-18.2-15.6-18.2-15.6l-1.4,5.9c0,0,11.9,7.5,11.3,13.4c-0.6,5.9-3.8,8.5-3.8,8.5
					l6.5,2.4C110.4,209,118.4,205.2,115.9,194.3z"/>
				<path fill="#FFD25F" d="M106.5,197.5l13.1,6.7c0,0-2.3,3-7.1,6.8c-4.8,3.8-11.8,7.2-11.8,7.2s6,8.9,3.7,10.1
					c-2.3,1.1-7.2-7.5-7.2-7.5s2.1,13.3-0.8,12.4c-2.9-1-3.9-13.6-3.9-13.6s-2.6,8.8-4.5,8c-1.9-0.9-0.1-9.5,1.1-11.5
					c2-3.4,4.5-3.9,4.5-3.9s-9.3-2-9.1-3.5c0.2-1.5,3.1-2.2,6.5-1.7c3.3,0.5,6.4,2.6,6.4,2.6s4-1.4,6-4.5
					C105.6,202,106.5,197.5,106.5,197.5z"/>
			</g>
			<g>
				<g>
					<path fill="#E2E5E7" d="M156.4,98.4c2.5-13.7-2-37.8-2-37.8s-18.4,1.6-39.6,6.6c0.6-1.5,1.1-3.2,1.2-4.8
						c0.2-4.3-1.7-6.3-1.7-6.3s-5.8,5.5-10,8.8c-2.8,2.3-11.3,7.1-16.5,9.9c-4.8,1.7-8.9,3.5-11.7,5.4c-17.3,11.3-20.8,25-20.8,25
						l1.1-10.2c0,0-11.5,2.5-17.6,15.3c-6.1,12.9,0.8,20.7,0.8,20.7c36.9-9.9,54.6-0.3,52.8,29.2c0,0,4.8,6.1,18.2,11.3
						c13.4,5.1,25.3-2.8,25.3-2.8s-7.4-2.4-14-7.6c-0.5-0.4-0.9-0.7-1.3-1.1c1-0.1,1.9-0.3,3-0.5c14.1-2.7,19.9-15.8,19.9-15.8
						s-5.2,1.3-11.7,1.3C150.2,133,154.6,108.4,156.4,98.4z"/>
				</g>
				<path fill="#7EA6B3" d="M112,75.5c-1.4,0.2-2.7,0.4-4.1,0.8c-1.3,0.3-2.7,0.7-4,1.2c-7.2,2.5-13.6,6.4-19.6,11.1
					c-6.8,5.5-11.5,13.6-13.3,22.1c-0.3,1.3-0.5,2.7-0.7,4c-0.2,1.3-0.2,2.7-0.2,4l-1.9-0.5c0.8-1.3,1.7-2.4,2.6-3.6
					c0.9-1.1,1.9-2.2,2.9-3.2c7.9-8.2,17.7-14.5,28.2-18.7c8.2-3.3,16.6-4.7,25.4-4.9c-8.4,0.2-16.9,2.6-24.6,6
					c-10.2,4.5-19.9,10.9-27.6,18.9c-1,1-1.9,2.1-2.8,3.1c-0.9,1.1-1.7,2.2-2.4,3.3l-1.8,2.9l0-3.4c0-1.5,0.1-2.9,0.3-4.3
					c0.2-1.4,0.4-2.8,0.7-4.2c2.1-9.7,8-18.4,16-24.2c6.7-4.8,14.5-8.7,22.7-10.1C109.2,75.7,110.6,75.5,112,75.5z"/>
				<g>
					<path fill="#8DD3D5" d="M1.3,130.9c1-2.1,16.7-1.5,28.9,3.5c12.2,5.1,14.4,10.9,14.4,10.9l-0.4,9.5c0,0-14.3,2-24.7-2
						C9,148.7,0.3,133,1.3,130.9z"/>
					<path fill="#00AFBA" d="M31,150.5c0.1-5.4,4.1-4.3,4.1-4.3s-8.6-7.3-19.9-10.1c-4.7-1.1-9.3-1.7-13.2-1.9
						c2.4,5.4,9.4,15.4,17.4,18.5c4.1,1.6,8.9,2.2,13.2,2.4C31.6,153.8,30.9,152.2,31,150.5z"/>
				</g>
				<g>
					<path fill="#8DD3D5" d="M155.8,113.4c-2.3-1.9-24.5,2.7-39.4,10.8c-15,8.1-15.8,27.2-15.8,27.2l5.2-3.4c0,0,21.3-1.7,34.3-8.3
						C152.9,133.1,158.1,115.3,155.8,113.4z"/>
					<path fill="#00AFBA" d="M122.4,140.5c-2.7-5.3-7.8-3.2-7.8-3.2s8.9-9.5,23.6-15.1c6.1-2.3,12.5-4,17.9-5.3
						c-0.9,6-6.3,17.8-16.2,22.9c-5.2,2.6-11.7,4.5-17.6,5.8C123.1,143.9,123.3,142.2,122.4,140.5z"/>
				</g>
				<path fill="#8DD3D5" d="M36.9,128.7c0,0,11.3-9,42-10.7c30.8-1.7,37.7,7.7,37.7,7.7s-11.1,54.5-43.5,53.2
					C40.8,177.6,36.9,128.7,36.9,128.7z"/>
				<g>

						<ellipse transform="matrix(0.9993 -3.782658e-02 3.782658e-02 0.9993 -5.5574 2.0582)" fill="#FFFFFF" cx="51.6" cy="147.9" rx="6.1" ry="6.7"/>

						<ellipse transform="matrix(0.9993 -3.816427e-02 3.816427e-02 0.9993 -5.6352 2.0877)" fill="#00313B" cx="51.9" cy="148.6" rx="2.4" ry="2.6"/>

						<ellipse transform="matrix(0.9993 -3.790814e-02 3.790814e-02 0.9993 -5.3825 3.3456)" fill="#FFFFFF" cx="85.5" cy="143.6" rx="6.1" ry="6.7"/>

						<ellipse transform="matrix(0.9993 -3.777294e-02 3.777294e-02 0.9993 -5.3943 3.3313)" fill="#00313B" cx="85.5" cy="144.4" rx="2.4" ry="2.6"/>
				</g>

					<ellipse transform="matrix(0.9937 -0.1124 0.1124 0.9937 -17.1558 6.9376)" fill="#8DD3D5" cx="52.9" cy="155.6" rx="7.1" ry="4.5"/>

					<ellipse transform="matrix(0.9937 -0.1124 0.1124 0.9937 -16.4651 10.6791)" fill="#8DD3D5" cx="86.5" cy="151.4" rx="7.1" ry="4.5"/>
				<path fill="#FFFFFF" d="M62.2,135.9c0,0,1.2-3-2.2-8.4c-3.5-5.3-13.1-8.2-13.1-8.2l0.7,3.8c0,0-4.4-1.5-10.4-0.2
					c-5.9,1.3-8.9,3.6-8.9,3.6l5.5,13L62.2,135.9z"/>
				<path fill="#FFFFFF" d="M72.9,134.9c0,0-2-2.6-0.2-8.7c1.9-6.1,10.4-11.5,10.4-11.5l0.4,3.8c0,0,3.8-2.6,9.9-3
					c6.1-0.4,9.5,1,9.5,1l-1.7,14.1L72.9,134.9z"/>
				<path fill="#C9E0E4" d="M36.7,126.8c1.2,0,2.4,0.3,3.6,0.7c1.7,0.6,3.3,1.6,4.7,2.8c0.7,0.6,1.3,1.3,1.9,2
					c0.2,0.3,1.5,2.2,1.6,2.2l-1.3,0.1c1-2.2,2.3-4.6,2.4-7.1c0-0.8,0-1.7-0.2-2.5c0.5,0.7,0.8,1.6,0.9,2.5c0.4,2.6-0.7,5.4-1.7,7.7
					c-0.2,0.4-0.3,0.9-0.6,1.1c-0.9-1.2-1.7-2.5-2.7-3.6c-1.6-1.8-3.3-3.3-5.4-4.5C38.9,127.6,37.8,127.1,36.7,126.8z"/>
				<path fill="#C9E0E4" d="M94.4,122.3c-2.1,0.9-4.1,2.2-5.7,3.8c-0.8,0.8-1.6,1.6-2.3,2.6c-0.7,0.9-1.2,2-1.9,2.9l-0.7,1.2
					l-0.6-1.2c-0.9-1.6-1.6-3.3-2-5.1c-0.2-0.8-0.3-1.7-0.2-2.5c0-0.4,0.1-0.9,0.2-1.3c0.1-0.4,0.4-0.8,0.5-1.1
					c-0.6,3.4,1.3,6.5,2.9,9.4c-0.4,0-0.9,0-1.3,0c0.3-0.5,0.6-1.1,1-1.6C86.4,125.8,90.1,122.7,94.4,122.3z"/>
				<path fill="#00313B" d="M66.3,142.9c-2.6,0.4-4.1,2.8-4.1,2.8l0.8,6.1l9.5-0.9l0.5-7.5C72.9,143.5,68.9,142.6,66.3,142.9z"/>
				<polygon opacity="0.3" fill="#A5DCDF" points="33.8,139.6 40.5,136.9 59.9,136.2 63.5,157.1 49.7,161.2 35,160.6 				"/>
				<polygon opacity="0.3" fill="#A5DCDF" points="73.7,134.5 80.4,131.9 99.8,131.1 103.4,152 89.7,156.1 74.9,155.5 				"/>
				<path fill="#00313B" d="M31.9,137.2c-1.1,0.4-1.9,1.4-1.8,2.4c0.8,7.1,1.7,14.2,2.5,21.4c0.1,0.9,1.1,1.8,2.3,1.9
					c10,0.8,20.3-0.4,29.9-3.5c1.1-0.4,1.9-1.4,1.8-2.4c-0.8-7.1-1.7-14.2-2.5-21.4c-0.1-0.9-1.1-1.8-2.3-1.9
					C51.7,133,41.5,134.1,31.9,137.2z M61,154.3c0.1,1-0.7,2-1.8,2.3c-6.4,1.3-13,2.1-19.5,2.3c-1.1,0-2.2-0.8-2.3-1.8
					c-0.6-5-1.2-9.9-1.7-14.9c-0.1-1,0.7-2,1.8-2.3c6.4-1.3,13-2.1,19.5-2.3c1.1,0,2.2,0.8,2.3,1.8C59.9,144.4,60.4,149.4,61,154.3z
					"/>
				<path fill="#00313B" d="M71.8,132.1c-1.1,0.4-1.9,1.4-1.8,2.4c0.8,7.1,1.7,14.2,2.5,21.4c0.1,0.9,1.1,1.8,2.3,1.9
					c10,0.8,20.3-0.4,29.9-3.5c1.1-0.4,1.9-1.4,1.8-2.4c-0.8-7.1-1.7-14.2-2.5-21.4c-0.1-0.9-1.1-1.8-2.3-1.9
					C91.6,127.9,81.4,129.1,71.8,132.1z M100.9,149.3c0.1,1-0.7,2-1.8,2.3c-6.4,1.3-13,2.1-19.5,2.3c-1.1,0-2.2-0.8-2.3-1.8
					c-0.6-5-1.2-9.9-1.7-14.9c-0.1-1,0.7-2,1.8-2.3c6.4-1.3,13-2.1,19.5-2.3c1.1,0,2.2,0.8,2.3,1.8
					C99.8,139.3,100.3,144.3,100.9,149.3z"/>
				<path fill="#E2E5E7" d="M41,166.7c0,0,6.3-5.6,15.8-7.9c9.4-2.3,25.8-4.6,34.6-1.4c8.8,3.2,18.1,14.8,16.1,28.8l-2.4-0.4
					l-11.6-1.4l-4.1-10.3l-0.5,8.5l-8.4,0.3c0,0-1.7-4-1.6-6.8c0,0-2.1,5.5-2,6.8l-15.3,2.8c0,0-1.7-5.9-1.2-10.2
					c0,0-4.1,7-3.5,12.2l-14,5.2c0,0-4.8-7.3-2.3-16.4c0,0-4.3,5.1-4.3,8.3C36.5,184.7,34.3,177,41,166.7z"/>
				<path fill="#7EA6B3" d="M63,159.1c-0.8,0-2.4,1.4-3,1.9c-1.4,1.1-2.8,2.3-3.9,3.6c-1.9,2.2-3.3,4.6-4.7,7.1
					c-0.6,1.1-1.2,2.3-1.8,3.4c-0.2,0.4-0.9,1.3-1,1.8c0,0,0.1-1.5,0.7-3.7c1.7-6.1,5.9-12.8,12.6-14C62.6,159.1,63,159.1,63,159.1z
					"/>
				<path fill="#7EA6B3" d="M68.2,159.4c-0.7,0.3-1.4,2.3-1.7,2.9c-0.7,1.5-1.2,3-1.5,4.5c-0.8,3.4-0.8,7-1.3,10.4
					c0-0.4-0.4-1-0.5-1.4c-0.6-2-0.9-4.1-0.8-6.2c0.3-3.7,1.8-7.8,5-9.9C67.9,159.5,68.2,159.4,68.2,159.4z"/>
				<path fill="#7EA6B3" d="M71.5,159.4c0,0,0.4-0.1,1.1-0.1c0.7,0,1.6,0,2.8,0.3c3.7,0.8,6.9,3.1,9.4,5.9c1.2,1.4,2.1,3,3,4.7
					c0.4,0.8,0.9,1.7,1.2,2.6c0.1,0.3,0.2,0.9,0.4,1.1c-4.3-4.9-8.3-10.4-14.4-13.2C73,159.7,71.5,159.4,71.5,159.4z"/>
				<path fill="#7EA6B3" d="M67.6,159.4c0,0,0.3,0,0.8,0.2c3.3,1,5.6,3.8,6.9,6.8c0.7,1.5,1.1,3.2,1.3,4.9c0.1,0.8,0.1,1.7,0.1,2.5
					c0,0.4-0.2,1.3-0.1,1.6c-2-4.8-3.4-10.1-7-14C68.6,160.1,67.6,159.4,67.6,159.4z"/>
				<path fill="#00AFBA" d="M77.3,155.2c0.2,4.1-3.4,8.3-8.4,8.5c-5,0.2-9.7-3.7-9.8-7.8c-0.2-4,3.8-7.5,8.8-7.7
					C72.9,148,77.2,151.2,77.3,155.2z"/>
			</g>
		</g>
		<path opacity="0.1" fill="#384E7D" d="M285.1,276.4c0,4.4-34.5,7.9-77,7.9c-42.5,0-77-3.5-77-7.9c0-4.4,34.5-7.9,77-7.9
			C250.6,268.5,285.1,272,285.1,276.4"/>
		<g>
			<path fill="#B869A2" d="M221,207.9c8.9,23.5,15.8,47.3,20.7,70.8h-13.8c-1-23.1-3.9-46.6-8.7-69.7
				C219.8,208.6,220.4,208.2,221,207.9"/>
			<path fill="#410025" d="M241.7,278.7h-13.8c-0.2-3.8-0.4-7.7-0.6-11.5l11-4C239.4,268.3,240.6,273.5,241.7,278.7"/>
			<polygon fill="#7D0052" points="235.1,278.7 235.5,268.2 238.3,278.7 			"/>
		</g>
		<g>
			<path fill="#B869A2" d="M201.3,204.9c3.9,24.8,5.7,49.6,5.7,73.6l-13.5-2.8c3.8-22.8,5.8-46.4,5.8-70
				C199.9,205.4,200.6,205.1,201.3,204.9"/>
			<path fill="#410025" d="M206.9,278.4h-14.1c0.6-3.8,1.4-7.9,2-11.7l12-1.9C206.9,270.1,207,273.2,206.9,278.4"/>
			<polygon fill="#7D0052" points="200.2,278.4 203.1,268.1 203.6,278.4 			"/>
		</g>
		<path fill="#7D0052" d="M209.7,175.9c0,0-14.3-7.5-20.9,6.6c-10.1,21.4,6.2,35.6,8.1,35.2c1.9-0.4,3.5-10.8,3.5-10.8
			s3.1,13.5,6.2,13.9c3.1,0.4,7-11.2,7-11.2s1.5,7.4,3.9,7.7c2.3,0.4,3.1-5.8,3.1-5.8s3.1,7.7,6.6,7c3.5-0.8,2.3-12,2.3-12
			s6.3,12.7,8.9,12.7c2.6,0,9.2-20.8,5.3-29.8c-4-9.2-12.5-9.3-12.5-9.3L209.7,175.9z"/>
		<g>
			<path fill="#B869A2" d="M218.4,177.9C218.4,177.9,218.4,177.9,218.4,177.9C218.4,177.9,218.4,177.9,218.4,177.9
				C218.4,177.9,218.4,177.9,218.4,177.9z"/>
			<path fill="#B869A2" d="M218.2,177.6l-1.7-0.3c-0.1,0.2-0.2,0.3-0.3,0.5c-0.9,2-1.1,4.3-1.3,6.5c-0.1,1.4-0.1,2.7-0.1,4.1
				c0,1.4,0.1,2.8,0.3,4.1c0.4,2.7,1,5.4,2,8c0.9,2.6,2.1,5.1,3.5,7.4c-1.3-2.4-2.2-4.9-3-7.5c-0.8-2.6-1.3-5.2-1.4-7.9
				c-0.2-2.7,0-5.3,0.3-8c0.2-1.3,0.4-2.6,0.7-3.9c0.2-0.6,0.4-1.2,0.6-1.8c0.1-0.3,0.3-0.5,0.4-0.7c0.1-0.1,0.1-0.2,0.2-0.2h0
				c0,0,0,0-0.2,0L218.2,177.6z"/>
		</g>
		<path fill="#B869A2" d="M239,204.8c0.1-2.7-0.2-5.4-0.7-8.1c-0.5-2.7-1.3-5.3-2.3-7.9c-0.5-1.3-1.1-2.5-1.8-3.7
			c-0.7-1.2-1.4-2.3-2.2-3.5c-0.3-0.5-0.7-1-1.1-1.5l-2.6-0.5c0.9,0.9,1.7,2,2.4,2.9c1.6,2.1,3.2,4.3,4.3,6.7
			c1.2,2.4,2.1,4.9,2.7,7.6C238.4,199.4,238.9,202.1,239,204.8z"/>
		<g>
			<path fill="#B869A2" d="M210.4,176.1C210.4,176.1,210.3,176.1,210.4,176.1C210.3,176.1,210.3,176.1,210.4,176.1
				C210.3,176.1,210.3,176.1,210.4,176.1C210.3,176.1,210.3,176.1,210.4,176.1z"/>
			<path fill="#B869A2" d="M209.7,175.9c0,0-0.5-0.3-1.3-0.6c-0.2,0.2-0.3,0.5-0.4,0.7c-1,1.8-1.4,4-1.7,6c-0.2,1.4-0.4,2.7-0.5,4.1
				c-0.1,1.4-0.2,2.8-0.1,4.1c0.1,2.8,0.5,5.5,1.2,8.1c0.7,2.6,1.6,5.2,2.7,7.7c-1-2.5-1.7-5.1-2.2-7.8c-0.5-2.7-0.7-5.3-0.7-8
				c0-2.7,0.5-5.3,1.1-7.9c0.3-1.3,0.7-2.6,1.1-3.8c0.2-0.6,0.5-1.2,0.8-1.7c0.2-0.2,0.3-0.5,0.5-0.6c0.1-0.1,0.2-0.1,0.2-0.2
				c0,0,0,0-0.2,0l0-0.1L209.7,175.9z"/>
		</g>
		<g>
			<path fill="#B8A6CC" d="M308.8,53.8c-0.5-2.7-21.8-6.7-36.3,4.8c-14.5,11.6-19,33.6-19,33.6s10.5-3.1,27.9-11.4
				C293.4,75.1,309.3,56.5,308.8,53.8"/>
			<path fill="#F7B5D2" d="M277.8,62.7c11.4-6.6,27.4-7.5,27.4-7.3c0.5,2.5-14.8,18.8-25.9,24.1c-10,4.8-17.6,7.7-21.9,9.2
				C259.2,82.2,264,70.7,277.8,62.7"/>
		</g>
		<path fill="#B8A6CC" d="M262,73.4c-0.9-17.7-11.5-35.1-28.7-40.9c-19.1-6.5-41.5,3-49,22c-1.6,4.2-2.5,8.6-2.5,13.1
			c0,8.2,2.7,15.7,7.4,21.8c4.9,7,11.6,12,18.7,15.5c-1.8,8.8-5.2,22.9-5.2,22.9l9.1,10.7l3.1-3c-1-10.6-0.9-17.3,0.7-27.5
			c13.6,4.6,27.1,4.3,31.6,2C261.9,102.7,262.8,90.9,262,73.4z"/>
		<path fill="#B8A6CC" d="M193.9,140.9c0,0-18.6,0.7-22.4,11.8c-2.3,6.7,12.1,22.3,12.1,22.3s-12.8-2.5-12.8,1.8
			c0,4.3,11.5,1.3,11.5,1.3s-13,9.2-9.9,11.9c3.1,2.6,13.3-10.2,13.3-10.2s-5.3,8.8-1.7,10.1c3.6,1.2,9.9-12,7-16.6
			c-2.9-4.6-9.9-9.6-12.9-14c-6.6-9.6,14-17.1,14-17.1L193.9,140.9z"/>
		<path fill="#B8A6CC" d="M252.1,134.4c-2.2,4.6-6.4,11.1-13,12.5c-10.5,2.3-14.9-4.5-14.9-4.5l-3,3.2c0,0,6,6.4,18.8,6.5
			c10.9,0,16-8.8,18.1-14.5C256,136.8,254,135.7,252.1,134.4z"/>
		<path fill="#B8A6CC" d="M253.7,113.7c-4.3,4.3-1.4,23.4-1.4,23.4s12.5,6.4,13.7,4.2c1.2-2.2-3.2-4.5-3.2-4.5s4.8,2.2,5.7-1.6
			c0.8-3.7-4.7-3.6-4.7-3.6s4.7,0.9,4.6-3.1c-0.1-3.6-12.9-2-12.9-2s1.3-4.1,1.4-7.1C256.9,116.4,254.8,112.6,253.7,113.7z"/>
		<path fill="#61439A" d="M259,130.7c-0.6-0.4-0.9-1-0.8-1.6c0.1-0.6,0.8-1,1.4-1.3c0.7-0.3,1.4-0.4,2.2-0.6c-0.8,0-1.5,0-2.3,0.2
			c-0.4,0.1-0.8,0.2-1.1,0.5c-0.3,0.2-0.7,0.6-0.8,1c-0.2,0.9,0.3,1.8,0.9,2.3c-0.1,0-0.1,0-0.2,0c-0.4,0.1-0.9,0.2-1.3,0.5
			c-0.4,0.3-0.7,0.8-0.9,1.3c-0.1,0.5-0.1,1,0,1.5c0.2,0.5,0.5,0.9,0.9,1.2c0.2,0.1,0.3,0.2,0.5,0.3c0,0-0.1,0.1-0.1,0.1
			c-0.3,0.3-0.5,0.7-0.6,1c-0.1,0.4-0.1,0.8,0.1,1.2c0.3,0.7,0.9,1.1,1.5,1.5c0.6,0.4,1.2,0.6,1.8,0.8c-0.6-0.3-1.1-0.7-1.7-1.1
			c-0.5-0.4-1-0.9-1.2-1.4c-0.1-0.3-0.1-0.5,0-0.8c0.1-0.3,0.2-0.5,0.4-0.6c0.3-0.2,0.6-0.2,1-0.2c0.2,0.1,0.7-0.2,0.7-0.2
			s1.7-0.2,1.7-0.2l-1.7-0.3c-0.7-0.1-1.4-0.4-2-0.9c-0.5-0.4-0.7-1-0.5-1.7c0.1-0.6,0.7-0.9,1.4-1c0.7-0.1,3.7-0.4,3.7-0.4
			l-1.3-0.4C260.9,131.5,259.5,131.1,259,130.7z"/>
		<path fill="#49C8F5" d="M227.2,158.9c0,0-6.7-3-11.5-9.1c-4.8-6.2-4.6-7.7-4.6-7.7l4.3-4.3l17,4.7L227.2,158.9z"/>
		<path fill="#F7B5D2" d="M229.9,141.9l-4.2-1.2l-5.4,13.7c0.9,0.7,1.7,1.4,2.5,1.9L229.9,141.9z"/>
		<path fill="#F7B5D2" d="M215.5,149.6c0,0.1,0.1,0.1,0.1,0.2c0.8,1.1,1.7,2,2.6,2.9l4.6-12.7l-3.6-1L215.5,149.6z"/>
		<path fill="#49C8F5" d="M202.1,130.8l-10.5,47.6c0,0,14.6,7.9,30.3,4.9c10.3-1.9,9.2-3.1,9.2-3.1s-13.1-16.7-16.1-44.6
			c0,0-1.5,5-3.6,4.4C208.2,139,203.6,132.2,202.1,130.8z"/>
		<path fill="#49C8F5" d="M179.7,139.9c0,0,6.3-3.9,14.1-4.3c7.8-0.4,8.9,0.5,8.9,0.5l1.1,5.9l-13.5,11.3L179.7,139.9z"/>
		<path fill="#F7B5D2" d="M192.3,151.7l3.3-2.8l-8.2-12.3c-1.1,0.3-2.1,0.7-3,1L192.3,151.7z"/>
		<path fill="#F7B5D2" d="M194,135.6c-0.1,0-0.1,0-0.2,0c-1.3,0.1-2.6,0.3-3.8,0.5l7.9,11l2.8-2.4L194,135.6z"/>
		<g>
			<path fill="#F7B5D2" d="M215,135.6l-3.1,3l-9.1-10.7l-1.2,5.3l11,10.5l3-4.2C215.6,139.4,215.1,135.8,215,135.6z"/>
		</g>
		<path fill="#61439A" d="M221.8,92.6c0,0,0.2,0.2,0.6,0.6c0.4,0.4,1,0.9,1.7,1.4c4.6,3.2,10.2,2.2,14.8-0.2c0,0-0.7,1.1-2.3,2.2
			c-3.6,2.5-8.7,2.8-12.2-0.1c-0.4-0.4-0.8-0.7-1.1-1.1c-0.6-0.7-1-1.5-1.3-2C221.9,92.9,221.8,92.6,221.8,92.6"/>
		<path fill="#61439A" d="M223.5,92.1c0.2,0.8-0.3,1.6-1.1,1.8c-0.8,0.2-1.6-0.3-1.8-1.1c-0.2-0.8,0.3-1.6,1.1-1.8
			C222.4,90.8,223.2,91.3,223.5,92.1"/>
		<path fill="#61439A" d="M253.5,94.6c-0.1,0.4,0.1,0.9,0.6,1.1c0.4,0.1,0.9-0.1,1.1-0.6c0.1-0.4-0.1-0.9-0.6-1.1
			C254.1,93.9,253.6,94.2,253.5,94.6"/>
		<path fill="#61439A" d="M247.1,96.4c-0.1,0.4,0.1,0.9,0.6,1.1c0.4,0.1,0.9-0.1,1.1-0.6c0.1-0.4-0.1-0.9-0.6-1.1
			C247.8,95.7,247.3,95.9,247.1,96.4"/>
		<path fill="#61439A" d="M251.2,99.8c-0.1,0.4,0.1,0.9,0.6,1.1c0.5,0.1,0.9-0.1,1.1-0.6c0.1-0.4-0.1-0.9-0.6-1.1
			C251.8,99.1,251.3,99.3,251.2,99.8"/>
		<path fill="#61439A" d="M208.7,90.8c0,0.5-0.4,0.8-0.8,0.9c-0.5,0-0.8-0.4-0.9-0.8c0-0.5,0.4-0.8,0.8-0.9
			C208.3,90,208.7,90.3,208.7,90.8"/>
		<path fill="#61439A" d="M214.2,94.1c0,0.5-0.4,0.8-0.8,0.9c-0.5,0-0.8-0.4-0.9-0.8c0-0.5,0.4-0.8,0.8-0.9
			C213.8,93.3,214.2,93.7,214.2,94.1"/>
		<path fill="#61439A" d="M209.5,96.3c0,0.5-0.4,0.8-0.8,0.9c-0.5,0-0.8-0.4-0.9-0.8c0-0.5,0.4-0.8,0.8-0.9
			C209.1,95.4,209.5,95.8,209.5,96.3"/>
		<g>
			<path fill="#410025" d="M196.9,63.2c0,0,0.4,0.7,1.2,1.7c2.4,2.7,5.7,4.4,9.3,4.6c-0.1,0.7-0.1,1.3-0.2,2c0,0.1-3-0.9-3.2-1
				c-2.5-1.1-4.7-3-6.2-5.4C197.2,64,196.9,63.2,196.9,63.2"/>
			<path fill="#410025" d="M199.2,56.3c0,0,0.2,0.9,0.7,2.1c0.5,1.2,1.4,2.7,2.6,4c0.6,0.7,1.2,1.2,1.8,1.8c0.6,0.5,1.2,1,1.8,1.3
				c0.5,0.4,1,0.6,1.3,0.8c0.3,0.2,0.5,0.3,0.5,0.3l-1,1.7c0,0-0.2-0.1-0.5-0.4c-0.3-0.3-0.8-0.6-1.3-1.1c-0.5-0.5-1.1-1-1.7-1.7
				c-0.6-0.6-1.2-1.4-1.6-2.1c-1-1.5-1.7-3.2-2.1-4.5C199.2,57.2,199.2,56.3,199.2,56.3"/>
			<path fill="#410025" d="M203.4,52.2c0,0-0.1,0.9,0.1,2.2c0.5,3.2,2.3,6,4.4,8.4c0.4,0.5,0.8,0.9,1.1,1.1c0.3,0.3,0.4,0.4,0.4,0.4
				l-1.5,1.4c0,0-0.2-0.2-0.4-0.5c-0.2-0.3-0.6-0.8-1-1.4c-1.8-2.8-3.2-6-3.3-9.4C203.1,53.1,203.4,52.2,203.4,52.2"/>
			<path fill="#FFFFFF" d="M230.6,80.9c0,0-5.9,9.8-16.7,7.7c-9.8-1.9-11.4-19-11.4-19s11.3-11.4,17.5-10
				C233,62.5,230.6,80.9,230.6,80.9"/>
			<path fill="#0092A1" d="M224.9,73.7c0.6,5.5-2.6,10.4-7.2,10.9c-4.6,0.5-8.8-3.5-9.5-9c-0.6-5.5,2.6-10.4,7.2-10.9
				C220.1,64.1,224.3,68.2,224.9,73.7"/>
			<path fill="#410025" d="M221.7,74c0.4,3.3-1.6,6.3-4.4,6.6c-2.8,0.3-5.4-2.1-5.7-5.5c-0.4-3.3,1.6-6.3,4.4-6.6
				C218.7,68.2,221.3,70.7,221.7,74"/>
			<path fill="#61439A" d="M202.5,69.5c0,0,0.4-0.6,1.2-1.7c0.8-1,2-2.5,3.6-4c0.8-0.8,1.7-1.6,2.8-2.3c1.1-0.8,2.2-1.5,3.6-2.1
				c1.3-0.6,2.8-1,4.5-1c3.2-0.1,6.4,1.5,8.5,3.8c1.1,1.1,1.9,2.4,2.6,3.7c1.3,2.6,1.7,5.3,1.9,7.6c0.2,2.3,0,4.1-0.1,5.4
				c-0.2,1.3-0.3,2-0.3,2s0-0.7-0.1-2c-0.1-1.3-0.2-3.1-0.6-5.3c-1.1-5.9-4.8-13.3-11.8-13.3c-1.3,0-2.6,0.3-3.8,0.7
				c-2.5,0.9-4.6,2.4-6.3,3.7c-1.7,1.3-3.1,2.6-4,3.5C203,69,202.5,69.5,202.5,69.5"/>
			<path fill="#410025" d="M269.5,64.1c0,0-0.2,0.8-0.9,1.9c-1,1.8-2.5,3.4-4.2,4.6c-1.4,1-3.2,2-4.9,2.2l-0.3-2c0,0,0.7,0,1.9-0.3
				c2.9-0.7,5.4-2.3,7.2-4.7C269.2,64.9,269.5,64.1,269.5,64.1"/>
			<path fill="#410025" d="M266.9,57.3c0,0,0,0.9-0.3,2.2c-0.3,1.3-0.9,3-1.9,4.6c-1.2,1.9-2.7,3.6-4.4,5.1
				c-0.3,0.3-0.5,0.4-0.5,0.4l-1.1-1.7c0,0,0.2-0.1,0.5-0.3c3.1-1.9,5.8-4.8,7.1-8.3C266.8,58.2,266.9,57.3,266.9,57.3"/>
			<path fill="#410025" d="M262.1,54.3c0,0,0.3,0.9,0.3,2.2c0.1,4-1.6,7.8-3.8,11c-0.2,0.3-0.4,0.5-0.4,0.5l-1.5-1.3
				c0,0,0.1-0.1,0.4-0.4c2.5-2.6,4.6-6.2,5-9.8C262.2,55.2,262.1,54.3,262.1,54.3"/>
			<path fill="#FFFFFF" d="M260.6,70.5c-3.4-4.8-10.8-8.5-14.9-7.4c-12.1,3.2-9.1,20.6-9.1,20.6s8.3,7.9,16.1,5.6
				c3.6-1.1,6.6-3.5,7.7-6.8C261.6,79.1,262,74.6,260.6,70.5"/>
			<path fill="#0092A1" d="M241.2,76.6c-0.4,5.3,2.9,9.7,7.3,10c4.4,0.3,8.2-3.7,8.6-9c0.4-5.3-2.9-9.7-7.3-10
				C245.4,67.4,241.5,71.4,241.2,76.6"/>
			<path fill="#410025" d="M244.3,76.8c-0.2,3.2,1.8,5.9,4.4,6.1c2.7,0.2,5-2.3,5.2-5.4c0.2-3.2-1.8-5.9-4.4-6.1
				C246.9,71.2,244.5,73.7,244.3,76.8"/>
			<path fill="#61439A" d="M260.6,70.5c0,0-0.5-0.5-1.3-1.3c-0.8-0.8-2.1-1.9-3.7-2.9c-3.8-2.6-8.5-3.6-12.6-1
				c-1,0.6-1.9,1.5-2.6,2.4c-0.7,1-1.3,2-1.8,3.1c-0.9,2.2-1.4,4.4-1.6,6.3c-0.2,1.9-0.3,3.6-0.3,4.7c0,1.2,0,1.8,0,1.8
				s-0.2-0.6-0.4-1.8c-0.2-1.1-0.4-2.8-0.4-4.8c0-2,0.3-4.4,1.1-6.9c0.5-1.2,1-2.5,1.9-3.6c0.8-1.1,1.9-2.1,3.1-2.9
				c3.6-2.4,7.9-2.3,11.6-0.2c1,0.6,1.9,1.3,2.7,1.9c1.5,1.3,2.6,2.6,3.3,3.5C260.3,69.9,260.6,70.5,260.6,70.5"/>
			<path fill="#FFFFFF" d="M215.8,78.8c0.2,1.3-0.6,2.5-1.6,2.6c-1.1,0.1-2.1-0.9-2.3-2.2c-0.2-1.3,0.6-2.5,1.6-2.6
				C214.6,76.4,215.6,77.4,215.8,78.8"/>
			<path fill="#FFFFFF" d="M254.9,71.1c0.7,1.9,0.8,4.5-0.9,5c-1.7,0.5-4-1.4-4.7-3.4c-0.7-1.9-1.1-4.3,0.6-4.8
				C251.6,67.5,254.2,69.2,254.9,71.1"/>
			<path fill="#FFFFFF" d="M248.3,81.6c0.2,1.3-0.6,2.5-1.6,2.6c-1.1,0.1-2.1-0.9-2.3-2.2c-0.2-1.3,0.6-2.5,1.6-2.6
				C247.1,79.2,248.1,80.2,248.3,81.6"/>
			<path fill="#FFFFFF" d="M222.9,68.7c0.7,1.9,0.8,4.5-0.9,5c-1.7,0.5-4-1.4-4.7-3.4c-0.7-1.9-1.1-4.3,0.6-4.8
				C219.5,65.1,222.2,66.8,222.9,68.7"/>
		</g>
		<path fill="#410025" d="M210.9,52.5c-0.2-0.8,3.7-5.1,8.3-5.4c4.6-0.3,6.4,2,6,2.5c-0.4,0.5-2.5-0.6-5.8-0.2
			C214.5,50,211.1,53.3,210.9,52.5"/>
		<path fill="#410025" d="M255.1,57.4c0.2-0.8-3.4-5.3-8-5.9c-4.6-0.6-6.5,1.7-6.2,2.2c0.4,0.5,2.5-0.4,5.8,0.1
			C251.7,54.7,254.9,58.2,255.1,57.4"/>
		<path fill="#B8A6CC" d="M237.9,92c1.9-1.6,5.8-2.4,10.1-1.9c4.3,0.5,7.9,2.2,9.4,4.2c0.7-0.6,1.1-1.2,1.2-2
			c0.3-2.9-4.2-5.8-10.1-6.5c-5.9-0.7-11,1-11.3,3.9C237.1,90.5,237.3,91.2,237.9,92z"/>
		<path fill="#B8A6CC" d="M204.7,89c1.9-1.6,5.3,0.1,9.7,0.6c4.3,0.5,8.4-0.3,9.8,1.7c0.7-0.6,1.1-1.2,1.2-2
			c0.3-2.9-4.2-5.8-10.1-6.5c-5.9-0.7-11,1-11.3,3.9C203.9,87.5,204.1,88.3,204.7,89z"/>
		<path fill="#B869A2" d="M260.4,22.9c-7.4-34.5-31.1-18.6-35.6-12c-2.6,3.8-12.9,19.1-20.1,16c-8.6-3.6-3.9-12.7-3.9-12.7
			s-20.1,0.1-17.9,14.1c0.3,2,1.1,3.7,2.2,5.2c-10.2,6.5-11.6,17.1-11.7,18.9c-0.9,11.4,9.6,30.2,12.3,30.9c0.1,0,0.2,0,0.3,0.1
			c0.9-1.1,1.2-0.9,2.1-2.3c-0.4,1.6-0.9,7.7,6.9,9.5c0,0,2.6,0.8,4.9-0.8c2.7-1.8,2.2-6.3,2.2-6.3c0-8.6-5.7-1.7-5.7-1.7
			c4.2-1.2,2.1,2.2,2.1,2.2c-0.7,0.7-1.5,1-2.8,0.9c-0.2,0-0.4-0.1-0.6-0.2c-1.1-0.8-4.8-4.4-2-12.9c3-6,3.1-11.7,2.2-16.5l0,0
			c0,0,0.3-17.8,27.7-9.2l0,0c6.3,3,12.3,6.2,12.3,6.2s14.4-5,18.2-3.8c0.9,1.5,1.7,2.8,2.6,4.3C257.3,50.7,263.4,36.7,260.4,22.9z"
			/>
		<path fill="#7D0052" d="M215.1,30.1c0,0,1.7,0.5,4,1.6c6.4,3.2,12.4,9.6,13.3,17.1c0.1,0.8,0,1.2,0,1.2s-0.1-0.4-0.3-1.1
			c-2.5-7-7.5-12.1-13.4-16.4C216.6,31,215.1,30.1,215.1,30.1"/>
		<path fill="#7D0052" d="M223.2,22.4c0,0,0.5,0.1,1.3,0.5c0.8,0.4,1.9,1,3.1,2c0.6,0.5,1.2,1,1.8,1.7c5.6,6.1,7.8,15.2,6,23.3
			c0,0,0-2-0.3-5c-0.6-6.2-2.5-12.6-6.5-17.6c-0.5-0.7-1-1.3-1.5-1.8c-1-1.1-2-1.9-2.7-2.4C223.7,22.6,223.2,22.4,223.2,22.4"/>
		<path fill="#7D0052" d="M235.2,6.1c0,0,0.7,0.2,2,0.7c1.2,0.6,3,1.4,4.9,2.8c1.9,1.4,3.9,3.3,5.6,5.7c1.7,2.4,3,5.4,3.7,8.5
			c1.7,7.4,0.5,15.3-1.5,22.5c-0.4,1.3-0.7,2-0.7,2s0.1-0.8,0.4-2.1c1.2-7.1,1.9-15.1,0.4-22.2c-0.6-2.9-1.8-5.7-3.3-8.1
			c-1.5-2.4-3.4-4.3-5.1-5.8c-1.7-1.5-3.3-2.5-4.5-3.2C235.9,6.4,235.2,6.1,235.2,6.1"/>
		<path fill="#7D0052" d="M175.5,44.9c5.8-2.4,13.1,1.3,15.7,6.6c1.6,3.3,2.5,7,2.9,10.6l0.3,2.5l-1.6-2c-3.2-4-7.6-6.9-12.6-8.3
			c-0.8-0.2-1.7-0.4-2.5-0.4c-0.4,0-0.9,0-1.3,0c-0.4,0-0.9,0.1-1.2,0.3c0.4-0.3,0.8-0.4,1.2-0.5c0.4-0.1,0.9-0.2,1.3-0.2
			c5.4-0.3,10.6,2.5,14.4,6.2c0.7,0.6,1.3,1.3,1.9,2l-1.3,0.5c-0.1-1.1-0.4-2.3-0.6-3.5c-0.2-1.2-0.5-2.3-0.9-3.4
			c-1.2-3.7-2.7-6.9-6.2-8.7c-1.8-0.9-3.9-1.7-5.9-1.9c-0.6-0.1-1.2-0.1-1.8-0.1C176.7,44.7,176.1,44.8,175.5,44.9"/>
		<g>
			<path fill="#B8A6CC" d="M132.1,51.4c0.5-2.9,18.9-7.2,37.9,4.8c16.2,10.2,20.8,32.7,20.8,32.7s-11.1-2.6-29.6-10.4
				C148.6,73.2,131.6,54.3,132.1,51.4"/>
			<path fill="#F7B5D2" d="M165.1,61.8c-11.2-6.2-23.6-8.7-29.8-9.4c-0.3,0.2,10.5,15.7,25.8,23.3c11.3,5.6,19.2,7.8,23.6,9.4
				C183.8,79.5,178.6,69.3,165.1,61.8"/>
		</g>
	</g>
</g>
<g id="labels">
</g>
</svg>
