<?xml version="1.0" encoding="utf-8"?>
<!-- Generator: Adobe Illustrator 21.0.0, SVG Export Plug-In . SVG Version: 6.00 Build 0)  -->
<svg version="1.1" id="headmaster" xmlns="http://www.w3.org/2000/svg" xmlns:xlink="http://www.w3.org/1999/xlink" x="0px" y="0px"
	 viewBox="0 0 362 284" enable-background="new 0 0 362 284" xml:space="preserve" width="362" height="284" preserveAspectRatio="none">
<g>
	<polygon fill="#46616E" points="358.2,230.3 360.5,226.6 360.4,206.5 357,211.4 356.6,224.2 	"/>
	<g>
		<polyline fill="none" stroke="#081E25" stroke-miterlimit="10" points="256.4,47 256.4,40.7 251,39 256.2,36 251.7,33.4 
			254.8,32.1 254.8,19.9 		"/>
		<g>
			<circle fill="#EB2044" cx="254.8" cy="19.2" r="3.1"/>
			<ellipse fill="#F0737B" cx="255.3" cy="17.9" rx="1.5" ry="1.1"/>
		</g>
	</g>
	<path fill="#C9DEE8" d="M265.7,53.3c0-0.7-2.7-8.2-2.7-8.2h-13.7l-2.4,8.4L265.7,53.3z"/>
	<path fill="#547585" d="M197.4,165.6c0.6,1.8,2,6.1,7.2,6.1c4,0.1,6-2,6-2l1.7,1.9c0,0-0.8,2.4-6.3,3c-7.9,0.8-10.6-5.7-10.6-5.7
		L197.4,165.6z"/>
	<path fill="#46616E" d="M255.2,280.9l2.3-3.3l0.7-26.3H250v21.6C250,272.8,255.2,280.5,255.2,280.9z"/>
	<path fill="#46616E" d="M336.7,283.1l2.3-3v-28.5l-4.6,4.6l-6.2,6.2C328.2,262.5,336.7,282.6,336.7,283.1z"/>
	<polygon fill="#547585" points="336.7,283.1 325.1,282.6 325.1,253.6 336.6,253.6 	"/>
	<polygon fill="#547585" points="358.2,230.3 348.7,230.2 348.7,205.1 358.6,205.1 	"/>
	<polygon fill="#547585" points="255.2,280.9 244.3,280.4 244.3,251.4 255.8,251.4 	"/>
	<path fill="#547585" d="M312.7,168.4c-0.6,1.8-2,6.3-7.2,6.4c-4,0.1-6-2.1-6-2.1l-1.7,2c0,0,0.8,2.5,6.3,3.1
		c7.9,0.8,10.6-5.9,10.6-5.9L312.7,168.4z"/>
	<path fill="#7CA4B7" d="M306.9,152.6l0.3,3.2l-11.5,36c0,0-0.2-3.5-0.2-3.8c0-0.3-2.2-14.7-2.2-14.7l7.1-16L306.9,152.6z"/>
	<path fill="#C9DEE8" d="M204.2,99.9c5,8,1.9,16.7,1.9,16.7c-1.4,0.2-2.7,0.5-4,0.8c-0.2-6.9-2.7-13.3-3.7-15.8
		C201.9,100.4,204.2,99.9,204.2,99.9z"/>
	<path fill="#7CA4B7" d="M198.4,101.6c1.1,2.5,3.5,9,3.7,15.8c-0.3,0.1-0.7,0.2-1,0.2c-0.2-6.8-2.6-13.3-3.7-15.7
		C197.7,101.8,198.1,101.7,198.4,101.6z"/>
	<polygon fill="#B37452" points="127.6,217.9 276.1,223.9 276.1,212.4 127.3,208.1 	"/>
	<polygon fill="#DFBA71" points="147.8,211.4 271.9,214.1 242.7,240.5 337,242.6 361.3,197.3 147.5,194.6 	"/>
	<g>
		<g>
			<g>
				<path fill="#547585" d="M261.7,175.5c0,0,12.8,10.5,14.5,13.1c1,1.5-9,13.7-9,13.7s3.5-9.9,2.5-12.5c-1-2.5-10.3-12.9-10.3-12.9
					L261.7,175.5z"/>
			</g>
		</g>
		<g>
			<g>
				<path fill="#547585" d="M256.5,175.5c0,0-12.8,10.5-14.5,13.1c-1,1.5,9,13.7,9,13.7s-3.5-9.9-2.5-12.5
					c1-2.5,10.3-12.9,10.3-12.9L256.5,175.5z"/>
			</g>
		</g>
		<g>
			<path fill="#7CA4B7" d="M251.6,177.7c0,0,14.2,11.7,16.2,14.6c1.1,1.6-10,15.3-10,15.3s3.9-11.1,2.8-13.9
				c-1.1-2.8-11.4-14.4-11.4-14.4L251.6,177.7z"/>
		</g>
		<g>
			<path fill="#7CA4B7" d="M249.1,177c0,0-14.2,11.7-16.2,14.6c-1.1,1.6,10,15.3,10,15.3s-3.9-11.1-2.8-13.9
				c1.1-2.8,11.4-14.4,11.4-14.4L249.1,177z"/>
		</g>
	</g>
	<ellipse fill="#C9DEE8" cx="215.8" cy="63.7" rx="12" ry="12.3"/>
	<ellipse fill="#FFFDE7" cx="215.6" cy="64.2" rx="9.9" ry="9.7"/>
	<ellipse fill="#410025" cx="215.8" cy="65.4" rx="6.2" ry="6.2"/>
	<path fill="#C9DEE8" d="M211.1,72.8c0,0,8.1-11.6,17.7-11.4l-1.2,8.5l-11.5,8l-2.8-3.8L211.1,72.8z"/>
	<ellipse fill="#FFFDE7" cx="295" cy="62.1" rx="10.9" ry="10.7"/>
	<path fill="#C9DEE8" d="M314.2,108.9c0,31.7-25.7,57.5-57.5,57.5s-57.5-25.7-57.5-57.5s25.6-54,57.3-54S314.2,77.2,314.2,108.9z"/>
	<path fill="#EB2044" d="M289.2,66.8c0.2-0.3,0.4-0.7,0.6-1c-8-6.4-15.2-13-31.8-13.9c-22.8-1.2-36.1,11-36,11.2
		c16.8,6.7,17.4,17.9,29.5,17.9C263.8,81.1,267.6,68.8,289.2,66.8z"/>
	<path fill="#F0737B" d="M254.2,56.9c9.1,0,17.5,2,24.8,5.5c-6.8-5.2-15.4-8.4-24.8-8.4c-9.4,0-18.1,3.2-24.9,8.5
		C236.5,59,245,56.9,254.2,56.9z"/>
	<g>
		<path fill="#004B78" d="M217,64.6c4.9,6.2,8.5,13.4,11.2,20.8c2.6,7.5,4.2,15.4,4.6,23.3c0.2,4,0.1,8-0.3,11.9
			c-0.1,2-0.5,3.9-0.7,5.9c-0.4,2-0.7,3.9-1.2,5.8l-0.7,2.9c-0.2,1-0.6,1.9-0.8,2.9c-0.5,1.9-1.2,3.8-1.9,5.6
			c-0.3,0.9-0.7,1.9-1.1,2.8l-1.2,2.7c-0.8,1.8-1.7,3.6-2.6,5.4c3.3-7.2,5.8-14.7,7.5-22.4c0.2-1,0.4-1.9,0.6-2.9
			c0.2-1,0.4-1.9,0.5-2.9c0.2-2,0.6-3.9,0.7-5.9c0.4-3.9,0.4-7.9,0.2-11.8c-0.3-7.9-1.9-15.6-4.3-23.1c-1.2-3.7-2.7-7.4-4.5-10.9
			C221.3,71.2,219.4,67.8,217,64.6z"/>
	</g>
	<ellipse fill="#EFF9FE" cx="303.9" cy="110" rx="8.2" ry="18.3"/>
	<polyline fill="#B37452" points="242.6,252.8 242.9,240.4 336.9,242 361.2,197.2 361.2,210 337.6,256 	"/>
	<circle fill="#C9DEE8" cx="295.1" cy="62.4" r="13.5"/>
	<ellipse fill="#FFFDE7" cx="295.7" cy="61.4" rx="10.4" ry="10.2"/>
	<ellipse fill="#410025" cx="294.2" cy="64.6" rx="6.2" ry="6.2"/>
	<path fill="#C9DEE8" d="M282.4,64.4c0,0,15.6,3.6,20.3,9.1l-5,2.9l-13.8-2.8l-0.5-5.5L282.4,64.4z"/>
	<g>
		<path fill="#004B78" d="M284.1,159.3c-1.2-1.7-2.5-3.4-3.6-5.2c-1.1-1.8-2.3-3.5-3.2-5.4l-1.5-2.8l-1.3-2.9l-0.6-1.4l-0.5-1.5
			l-1.1-3c-1.2-4-2.1-8.2-2.5-12.4c-0.4-4.2-0.4-8.4,0-12.6c0.9-8.4,3.3-16.6,7-24.2c3.7-7.6,8.3-14.7,14.1-20.7
			c-2.8,3.2-5.2,6.5-7.5,10.1c-2.2,3.5-4.3,7.2-6,11c-3.5,7.6-5.9,15.7-6.7,23.9c-0.4,4.1-0.4,8.3-0.1,12.5
			c0.4,4.1,1.3,8.2,2.4,12.2C275.6,144.8,279.4,152.4,284.1,159.3z"/>
	</g>
	<path fill="#7CA4B7" d="M289.2,86.2c0,0-3.5,28.1-0.2,54.1l-72.6-0.1c0,0-5.6-27.9-0.1-53.8L289.2,86.2z"/>
	<path fill="#C9DEE8" d="M312.7,102.5c-1,2.5-3.5,9.2-3.7,16.3c6.3,1.6,11.4,3.6,15.4,6l7.2-13.1
		C324.8,107.2,317.7,104.3,312.7,102.5z"/>
	<path fill="#C9DEE8" d="M332.5,112.2l-7.2,13.1c4.9,3.1,8.1,6.6,10.2,10.2c5.6-2.3,10.6-5.5,13.1-7.1
		C344.6,121.6,338.7,116.3,332.5,112.2z"/>
	<path fill="#C9DEE8" d="M305.9,100.4c-5,8.2-1.9,17.3-1.9,17.3c1.4,0.3,2.7,0.5,4,0.8c0.2-7.1,2.7-13.8,3.7-16.4
		C308.2,100.9,305.9,100.4,305.9,100.4z"/>
	<path fill="#C9DEE8" d="M349.1,129.2c-2.5,1.7-7.5,4.8-13.1,7.1c2.4,4.5,3.1,9.1,3.1,12.7c6.4,1.7,11.6,2.1,14,2.1
		C354.2,142.6,352.4,135.3,349.1,129.2z"/>
	<path fill="#C9DEE8" d="M338.4,154.3c-0.7,3-3.2,5-6.2,6.2c1.1,2.9,3.4,8.4,5.8,12.2c6.2-2.7,11.6-7.5,13.8-15.6
		c0.5-1.7,0.8-3.4,1.1-5.1c-2.5-0.1-7.6-0.4-13.9-2.1C338.9,151.8,338.7,153.2,338.4,154.3z"/>
	<path fill="#7CA4B7" d="M311.7,102.2c-1.1,2.6-3.5,9.3-3.7,16.4c0.3,0.1,0.7,0.2,1,0.2c0.2-7.1,2.6-13.7,3.7-16.3
		C312.4,102.4,312.1,102.3,311.7,102.2z"/>
	<path fill="#7CA4B7" d="M331.6,111.6l-7.2,13.1c0.3,0.2,0.6,0.3,0.9,0.5l7.2-13.1C332.2,112,331.9,111.8,331.6,111.6z"/>
	<path fill="#7CA4B7" d="M348.6,128.4c-2.5,1.6-7.5,4.8-13.1,7.1c0.2,0.3,0.3,0.6,0.5,0.9c5.6-2.3,10.6-5.4,13.1-7.1
		C348.9,128.9,348.7,128.7,348.6,128.4z"/>
	<path fill="#7CA4B7" d="M339.1,149c0,0.4,0,0.7,0,1c6.3,1.7,11.4,2,13.9,2.1c0.1-0.3,0.1-0.7,0.1-1
		C350.7,151,345.5,150.7,339.1,149z"/>
	<g>
		<path fill="#EB2044" d="M241.9,93.2c9.7,0,15.9,10.6,1.6,21.7c12.6,4.3,7.4,16.4-4.6,16.4c-8.2,0-13.1-6-13.1-19.8
			c0-9.1,3.5-10.8,11.3-7.3c-3.9,9.1-4.6,23.1,1.7,23.1c5,0,5.5-7-3.4-10.7c11.8-9.2,8.8-15.8,6.1-15.8c-4.4,0-5.1,7-4.1,10.4
			C227.2,114.5,227.6,93.2,241.9,93.2z"/>
		<g>
			<g>
				<path fill="#CF1F39" d="M231.1,108.6c0.2,1.9,1.4,3.6,3.6,3.9c0-0.3,0.1-0.7,0.2-1C233.1,111.3,231.8,110.2,231.1,108.6z"/>
			</g>
		</g>
		<path fill="#F05059" d="M245.8,102.5c0,0,0,0,0,0.2c0,0.1,0,0.2,0.1,0.4c0,0.2,0,0.4,0.1,0.7s0,0.6,0,0.9c0,0.3,0,0.7,0,1.1
			c0,0.4-0.1,0.8-0.2,1.2c-0.1,0.4-0.2,0.8-0.4,1.3c0,0.1-0.1,0.2-0.1,0.3c0,0.1-0.1,0.2-0.1,0.3c-0.1,0.2-0.2,0.4-0.3,0.6
			s-0.2,0.4-0.3,0.6s-0.2,0.4-0.4,0.6c-0.1,0.1-0.1,0.2-0.2,0.3c-0.1,0.1-0.1,0.2-0.2,0.3c-0.1,0.2-0.3,0.4-0.4,0.5
			c-0.2,0.2-0.3,0.3-0.4,0.5c-0.1,0.2-0.3,0.3-0.4,0.4c-0.3,0.3-0.5,0.5-0.8,0.7c-0.3,0.2-0.5,0.4-0.7,0.6c-0.2,0.2-0.4,0.3-0.6,0.4
			c-0.2,0.1-0.3,0.2-0.4,0.2c-0.1,0-0.1,0.1-0.1,0.1s0,0,0.1-0.1c0.1-0.1,0.2-0.2,0.3-0.4c0.1-0.2,0.3-0.3,0.4-0.5s0.4-0.4,0.6-0.7
			c0.1-0.1,0.2-0.3,0.3-0.4c0.1-0.1,0.2-0.3,0.3-0.4c0.1-0.2,0.2-0.3,0.3-0.4c0.1-0.2,0.2-0.3,0.4-0.5c0.1-0.2,0.2-0.3,0.3-0.5
			c0.1-0.2,0.2-0.4,0.3-0.5c0.1-0.2,0.2-0.4,0.3-0.6c0.1-0.2,0.2-0.4,0.3-0.6c0.1-0.2,0.2-0.4,0.3-0.6c0-0.1,0.1-0.2,0.1-0.3
			s0.1-0.2,0.1-0.3s0.1-0.2,0.1-0.3s0.1-0.2,0.1-0.3c0.1-0.2,0.1-0.4,0.2-0.6c0.1-0.4,0.2-0.7,0.3-1.1s0.2-0.7,0.2-1
			c0-0.3,0.1-0.6,0.2-0.9c0-0.3,0.1-0.5,0.1-0.7c0-0.2,0.1-0.4,0.1-0.4C245.8,102.6,245.8,102.5,245.8,102.5z"/>
		<path fill="#F05059" d="M243.8,121.2C243.8,121.2,243.8,121.3,243.8,121.2c0.1,0.2,0.2,0.2,0.2,0.4c0,0,0.1,0.1,0.1,0.2
			c0,0.1,0.1,0.2,0.1,0.2c0.1,0.2,0.2,0.4,0.2,0.6c0.1,0.2,0.1,0.5,0.2,0.7s0.1,0.6,0,0.9c0,0.3,0,0.6-0.1,0.9s-0.2,0.6-0.2,0.9
			c-0.1,0.3-0.2,0.6-0.4,0.9c-0.2,0.3-0.4,0.5-0.6,0.7c-0.2,0.2-0.4,0.4-0.7,0.6c-0.2,0.2-0.5,0.2-0.7,0.3c-0.1,0-0.2,0.1-0.4,0.1
			s-0.2,0-0.3,0c-0.1,0-0.2,0-0.3,0s-0.2,0-0.2,0c-0.1,0-0.2,0-0.3,0s-0.1,0-0.1,0s0,0,0.1,0c0.1,0,0.2,0,0.3-0.1
			c0.1,0,0.1,0,0.2-0.1s0.2-0.1,0.2-0.1c0.1,0,0.2-0.1,0.2-0.1s0.2-0.1,0.2-0.2c0.1-0.1,0.2-0.1,0.2-0.2c0,0,0.1-0.1,0.1-0.1
			s0.1-0.1,0.1-0.1c0.2-0.2,0.3-0.4,0.5-0.6c0.1-0.1,0.2-0.2,0.2-0.3c0.1-0.1,0.1-0.2,0.2-0.3c0.1-0.2,0.2-0.5,0.3-0.7
			c0.1-0.2,0.2-0.5,0.2-0.7c0-0.1,0.1-0.3,0.1-0.4c0-0.1,0-0.3,0.1-0.4c0-0.2,0.1-0.5,0.1-0.7s0-0.5,0-0.7c0-0.2,0-0.4,0-0.6
			c0-0.1,0-0.2,0-0.2c0-0.1,0-0.2,0-0.2C243.8,121.5,243.8,121.4,243.8,121.2C243.8,121.3,243.8,121.2,243.8,121.2z"/>
		<path fill="#F05059" d="M229.8,104.4C229.8,104.4,229.8,104.4,229.8,104.4c-0.1,0.1-0.1,0.1-0.2,0.2c-0.1,0.1-0.2,0.3-0.4,0.6
			c-0.1,0.2-0.2,0.6-0.4,0.9c-0.1,0.4-0.2,0.8-0.3,1.3c-0.2,0.9-0.3,2.1-0.4,3.3c0,0.6,0,1.3,0,1.9c0,0.6,0,1.3,0,1.9
			c0,0.7,0.1,1.3,0.1,1.9c0,0.6,0.1,1.3,0.2,1.9c0.2,1.2,0.4,2.4,0.5,3.3c0.2,1,0.4,1.8,0.5,2.3c0.2,0.6,0.2,0.9,0.2,0.9
			s0-0.1-0.1-0.2c-0.1-0.2-0.2-0.4-0.3-0.6c-0.1-0.3-0.3-0.6-0.4-0.9c-0.2-0.4-0.3-0.8-0.5-1.3c-0.3-0.9-0.6-2.1-0.9-3.3
			c-0.1-0.6-0.2-1.3-0.3-1.9c-0.1-0.7-0.1-1.3-0.2-2s0-1.3,0-2s0.1-1.3,0.2-1.9c0.2-1.3,0.4-2.4,0.7-3.4c0.2-0.5,0.3-0.9,0.5-1.3
			c0.2-0.4,0.4-0.7,0.6-0.9c0.2-0.2,0.4-0.4,0.5-0.5C229.7,104.5,229.8,104.5,229.8,104.4C229.8,104.5,229.8,104.4,229.8,104.4z"/>
		<path fill="#CF1F39" d="M231.7,104.6c0.2-0.9,1.1,0,1.5,2.1c0.4,2.3-0.4,3.9-1.2,2C231.6,108,231.7,104.6,231.7,104.6z"/>
		<path fill="#CF1F39" d="M234.2,97.6c1.1-0.7,1,0.5-0.2,3.4c-1.1,2.7-2.6,3.3-2.3,1.3C231.8,101.3,234.2,97.6,234.2,97.6z"/>
		<path fill="#CF1F39" d="M242,94.4c1.9,0.2-0.8,1.9-3.8,2.4c-3.5,0.6-4-0.5-2.2-1.4C236.8,94.9,242,94.4,242,94.4z"/>
		<path fill="#0A5AA8" d="M232.7,108.9c-0.4,0.5-2.8-1.7-2.9-2.5c0-0.8,1.9-2.5,2.3-2C232.6,104.8,233.2,108.3,232.7,108.9z"/>
		<path fill="#0A5AA8" d="M232.2,102.8c-0.8,0.3-1.9-3.7-1.4-4.6s3.6-1.4,3.8-0.6C234.8,98.4,233.1,102.5,232.2,102.8z"/>
		<path fill="#0A5AA8" d="M235.5,96c-0.8-0.6,2.2-4.4,3.5-4.5c1.2-0.1,3.9,2.5,3.3,3.2C241.6,95.4,236.4,96.7,235.5,96z"/>
		<path fill="#CF1F39" d="M248.5,97.1c0.9,0.9-1.4,1-3.1-0.1c-2-1.3-2.1-2.3-0.9-2C245.1,95.1,248.5,97.1,248.5,97.1z"/>
		<path fill="#0A5AA8" d="M244,95.1c-0.2-0.7,3.1-1.8,3.9-1.3c0.7,0.5,1.3,3.3,0.6,3.5C247.8,97.5,244.2,95.9,244,95.1z"/>
		<path fill="#2D6EB6" d="M230.5,106.8c0,0,0,0,0-0.1c0-0.1,0-0.2,0-0.3c0-0.3,0.2-0.6,0.4-0.8c0.1-0.1,0.2-0.2,0.4-0.3
			c0.1-0.1,0.3-0.2,0.4-0.2c0.1,0,0.2,0,0.3,0s0.1,0,0.1,0s0,0-0.1,0.1s-0.1,0.1-0.2,0.2c-0.1,0.2-0.3,0.4-0.5,0.6
			c-0.2,0.2-0.4,0.4-0.5,0.6c-0.1,0.1-0.1,0.2-0.2,0.2C230.5,106.7,230.5,106.8,230.5,106.8z"/>
		<path fill="#2D6EB6" d="M231.1,98.8c0,0,0,0,0.1-0.1c0-0.1,0.1-0.2,0.2-0.3c0.2-0.2,0.6-0.4,1-0.6c0.4-0.1,0.8-0.1,1.1-0.1
			c0.3,0,0.5,0.1,0.5,0.1s-0.2,0.1-0.5,0.2c-0.3,0.1-0.7,0.2-1,0.3c-0.2,0-0.4,0.1-0.6,0.2c-0.2,0-0.3,0.1-0.5,0.1
			c-0.2,0-0.2,0.1-0.4,0.1C231.1,98.8,231.1,98.8,231.1,98.8z"/>
		<path fill="#2D6EB6" d="M236.3,95.5c0,0,0-0.1,0-0.2c0-0.2,0.1-0.4,0.2-0.6c0.1-0.2,0.2-0.5,0.4-0.7c0.2-0.3,0.4-0.5,0.6-0.7
			c0.2-0.2,0.4-0.5,0.7-0.7c0.1-0.1,0.2-0.2,0.4-0.2c0.1-0.1,0.2-0.1,0.4-0.2c0.1,0,0.2-0.1,0.4-0.1s0.2,0,0.3,0
			c0.2,0,0.2,0.1,0.2,0.1s-0.1,0-0.2,0c-0.1,0-0.1,0.1-0.2,0.1c-0.1,0-0.2,0.1-0.2,0.2c-0.1,0.1-0.2,0.2-0.3,0.2
			c-0.1,0.1-0.2,0.2-0.3,0.3c-0.2,0.2-0.4,0.4-0.6,0.7c-0.4,0.5-0.8,0.9-1.1,1.3C236.4,95.3,236.3,95.5,236.3,95.5z"/>
		<path fill="#2D6EB6" d="M244.6,95.2c0,0,0,0,0.1-0.1c0-0.1,0.2-0.2,0.3-0.3c0.3-0.2,0.7-0.4,1.1-0.6c0.4-0.1,0.9-0.2,1.2-0.1
			c0.1,0,0.2,0,0.2,0s0.1,0,0.2,0.1c0,0,0.1,0,0.1,0.1c0,0,0,0,0,0s-0.1,0-0.2,0c-0.1,0-0.2,0-0.4,0.1c-0.3,0.1-0.7,0.2-1.1,0.3
			c-0.4,0.1-0.8,0.2-1.1,0.3c-0.2,0-0.3,0.1-0.4,0.1C244.7,95.2,244.6,95.2,244.6,95.2z"/>
		<path fill="#0A5AA8" d="M274.6,121.1L271,104h2v-8.5h-22.2c2.1,1.9,2.7,5.3,2,8.5l0,0l0,0l-2.8,13.5c2.6,2.6,3.9,7.8-1.5,12.1
			h11.7v-8.5h-1.8l0.6-3h6l0.6,3h-1.7v8.5h13.8v-8.5H274.6z M260.4,111.1l1.6-7.9l1.5,7.9H260.4z"/>
	</g>
	<polygon fill="#C9DEE8" points="295.7,191.6 199.1,189.7 198.7,187.1 295.7,187.4 	"/>
	<polygon fill="#EFF9FE" points="208.2,152.6 306.9,152.6 295.5,187.9 198.6,187 	"/>
	<path fill="#7CA4B7" d="M314.5,172.4c1-2.3,1.1-4.6,0.9-7.2c0,0-1-5-7.9-6.2c-8.2-1.4-10.5,6.4-10.5,6.4l0.7,2.3
		c0,0,4.2-5.3,9.1-4.3c4.9,0.9,5.5,4.6,5.5,4.6s-0.3,1.8-0.4,2.4L314.5,172.4z"/>
	<path fill="#C9DEE8" d="M316.1,162.6c-1.5-0.1-2.5-0.2-2.5-0.2c-2.2,4.5-2.5,8.9-2,13.3c0,0,1.2,0.2,3.3,0.3
		C314.4,170.9,315.5,164.9,316.1,162.6z"/>
	<path fill="#C9DEE8" d="M317.1,162.6c-0.5,2.2-1.7,8.4-1.3,13.5c5,0.3,13.6,0.1,21.3-3c-2.5-3.9-4.7-9.4-5.8-12.3
		C326.6,162.5,320.7,162.7,317.1,162.6z"/>
	<path fill="#7CA4B7" d="M317.1,162.6c-0.4,0-0.7,0-1,0c-0.5,2.3-1.7,8.4-1.3,13.5c0.3,0,0.7,0,1,0.1
		C315.3,171,316.6,164.8,317.1,162.6z"/>
	<path fill="#7CA4B7" d="M331.3,160.9c1.1,2.9,3.4,8.3,5.8,12.3c0.3-0.1,0.6-0.2,0.9-0.4c-2.4-3.8-4.7-9.3-5.8-12.2
		C331.9,160.7,331.6,160.8,331.3,160.9z"/>
	<polygon fill="#C9DEE8" points="298,158.3 289.9,182.4 268.6,182.2 277.7,158.2 	"/>
	<polygon fill="#C9DEE8" points="273.8,157.9 264.3,182.4 207.5,181.6 214.7,157.7 	"/>
	<path fill="#7CA4B7" d="M196.3,169c-1-2.1-1-4.1-0.8-6.4c0,0,0.9-4.4,7.3-5.5c7.5-1.3,9.7,5.7,9.7,5.7l-0.7,2.1
		c0,0-3.9-4.7-8.4-3.9c-4.5,0.8-5.1,4.1-5.1,4.1s0.3,1.6,0.4,2.1L196.3,169z"/>
	<path fill="#C9DEE8" d="M194,160c1.5-0.1,2.5-0.2,2.5-0.2c2.2,4.3,2.5,8.6,2,12.9c0,0-1.2,0.2-3.3,0.3
		C195.7,168.1,194.6,162.3,194,160z"/>
	<path fill="#7CA4B7" d="M193,160c0.4,0,0.7,0,1,0c0.5,2.3,1.7,8.1,1.3,13.1c-0.3,0-0.7,0-1,0.1C194.8,168.2,193.5,162.1,193,160z"
		/>
	<g>
		<path fill="#C9DEE8" d="M197.4,101.9c1,2.5,3.5,8.9,3.7,15.7c-6.3,1.5-11.4,3.5-15.4,5.8l-7.2-12.7
			C185.4,106.5,192.4,103.6,197.4,101.9z"/>
		<path fill="#C9DEE8" d="M177.7,111.3l7.2,12.7c-4.9,3-8.1,6.4-10.2,9.8c-5.6-2.2-10.6-5.3-13.1-6.9
			C165.5,120.4,171.5,115.3,177.7,111.3z"/>
		<path fill="#C9DEE8" d="M161.1,127.8c2.5,1.6,7.5,4.6,13.1,6.9c-2.4,4.4-3.1,8.8-3.1,12.2c-6.4,1.7-11.6,2-14,2
			C155.9,140.7,157.7,133.7,161.1,127.8z"/>
		<path fill="#C9DEE8" d="M171.7,152c0.7,2.9,3.2,4.8,6.2,6c-1.1,2.8-3.4,8.1-5.8,11.8c-6.2-2.6-11.6-7.2-13.8-15.1
			c-0.5-1.7-0.8-3.3-1.1-4.9c2.5,0,7.6-0.4,13.9-2C171.2,149.5,171.4,151,171.7,152z"/>
		<path fill="#7CA4B7" d="M178.5,110.7l7.2,12.7c-0.3,0.2-0.6,0.3-0.9,0.5l-7.2-12.7C177.9,111.1,178.2,110.9,178.5,110.7z"/>
		<path fill="#7CA4B7" d="M161.6,126.9c2.5,1.6,7.5,4.6,13.1,6.9c-0.2,0.3-0.3,0.6-0.5,0.8c-5.6-2.2-10.6-5.3-13.1-6.9
			C161.2,127.5,161.4,127.2,161.6,126.9z"/>
		<path fill="#7CA4B7" d="M171.1,146.9c0,0.3,0,0.7,0,1c-6.3,1.6-11.4,2-13.9,2c-0.1-0.3-0.1-0.6-0.1-1
			C159.4,148.9,164.6,148.6,171.1,146.9z"/>
		<path fill="#196585" d="M166.7,230.2l20,2.9l4.5,29.9c-6.2,3-13.7,2.4-21.7,0.3l-1.4-25.4l-15.4-6.5L166.7,230.2z"/>
		<path fill="#D44E24" d="M169.3,261.7c0,0,6,2.3,11.5,2.3c5.5,0,17.2-2,17.2-2s4.7-4.9,7.2-2.3c2.6,2.6-1.1,5.3-1.1,5.3l-1,0.6
			c0,0,6.9-1.5,5.6,1.9c-1.3,3.4-7.9,0.5-7.9,0.5s4.3,2.6,2.9,3.9c-1.5,1.3-2.6,1.3-4.5,0.2c-1.9-1.1-1.3-2.6-1.3-2.6
			s-29.8,1.7-31.3-1C165.8,266.9,169.3,261.7,169.3,261.7z"/>
		<path fill="#D44E24" d="M129.7,217.5c0,0-6.6,20-27.6,27.6c-13.9,5-53.8,5.1-62.9,13.7c-3.9,3.7,40.5,7.6,61.2,7.8
			c42.6,0.6,62.8-37.6,62.8-37.6L129.7,217.5z"/>
		<polygon fill="#081E25" points="143.7,257.6 127,263.4 127,266.4 144.2,262.9 		"/>
		<g>
			<ellipse fill="#081E25" cx="129.7" cy="268.3" rx="4.5" ry="4.3"/>
			<ellipse fill="#7CA4B7" cx="129.7" cy="268.2" rx="3.4" ry="3.6"/>
		</g>
		<rect x="143" y="242.2" fill="#7CA4B7" width="3.5" height="8.3"/>
		<path fill="#081E25" d="M162.1,243.7h-37.3c-2.1,0-2.1-8.6,0-8.6h37.3c2.1,0,3.9,1.8,3.9,3.9v0.8
			C166,241.9,164.3,243.7,162.1,243.7z"/>
		<path fill="#D44E24" d="M141.7,188.7c13.1,1.3,16.2,8.3,16.2,8.3l-2-15.5c-10.1-12.2-14.3-36.4-24-67.9
			C116,62.3,136,12.8,136,12.8s-51.7-0.1-81.3,92.1c-11.3,35.3-12.3,65-9.2,88.1c3.6,13.4,7.9,20.8,7.9,20.8s14.8-23.1,32.7-22
			c20.8,1.2,26.7,0.8,26.7,0.8S128.6,187.5,141.7,188.7z"/>
		<g>
			<path fill="#FFE669" d="M137.5,46.2c0,0-5.5,4.4-5.8,11.7c-0.3,7.3,5.3,13.6,5.3,13.6l57.2,14c0,0,1,1.7,17.4-1.9
				c16.4-3.6,17.7-15.8,17.7-15.8s-12.6-5.6-24.5-9c-11.9-3.4-21.6-1.5-21.6-1.5s12.3-6.4,9-11.6s-12.2-4-25.4,1.3
				c-13,5.2-18,13.6-18,13.6l6.4-18.7c0,0-7.4,3.2-10.5,7.6c-4,5.5-4.8,12.6-4.8,12.6L137.5,46.2z"/>
			<g>
				<path fill="#FAB417" d="M180.7,53.6c-1.8,0.6-3.5,1.6-5.1,2.7c-1.6,1.1-3,2.4-4.3,3.9c-1.2,1.5-2.1,3.2-2.8,5
					c-0.6,1.8-1.1,3.7-1.2,5.5l-0.8-0.2c0.6-0.9,1.3-1.5,2.1-2.1c0.8-0.6,1.6-1.1,2.5-1.5c1.7-0.8,3.5-1.4,5.4-1.9
					c3.7-0.8,7.5-1.2,11.2-1c3.8,0.2,7.5,1,11,2.1c1.8,0.6,3.5,1.2,5.2,2c1.7,0.8,3.4,1.6,5,2.6c-3.3-1.7-6.8-3-10.4-4
					c-3.6-1-7.2-1.6-10.9-1.8c-3.7-0.2-7.4,0.3-11,1.1c-1.8,0.4-3.5,1-5.2,1.8c-0.8,0.4-1.6,0.8-2.3,1.4c-0.7,0.5-1.4,1.1-1.9,1.8
					l-0.9,1.3l0.1-1.6c0.1-2,0.6-3.9,1.3-5.8c0.7-1.8,1.8-3.6,3.1-5c1.3-1.5,2.9-2.7,4.5-3.8C177.1,55,178.8,54.2,180.7,53.6z"/>
			</g>
			<path fill="#F7941D" d="M142,69.6c0,0-10.2,32.7-9,52c1.2,19.6,1.2,52.1,1.2,52.1l15.8,3.1c0,0,0.9-8.4,23-34.9
				c21.5-25.7,23.1-61.1,23.1-61.1s-8.2-5.3-25.7-9.6C153,66.9,142,69.6,142,69.6z"/>
			<g>
				
					<ellipse transform="matrix(0.1074 -0.9942 0.9942 0.1074 50.9627 264.276)" fill="#FFFDE7" cx="172.7" cy="103.8" rx="8.7" ry="6.6"/>
				
					<ellipse transform="matrix(0.1074 -0.9942 0.9942 0.1074 49.6572 266.061)" fill="#410025" cx="173" cy="105.4" rx="3.9" ry="3.3"/>
			</g>
			<g>
				
					<ellipse transform="matrix(0.1074 -0.9942 0.9942 0.1074 59.7576 276.5494)" fill="#FFFDE7" cx="183.9" cy="105" rx="6.8" ry="4.9"/>
				
					<ellipse transform="matrix(0.1074 -0.9942 0.9942 0.1074 57.9514 276.4819)" fill="#410025" cx="183" cy="106" rx="3" ry="2.6"/>
			</g>
			<path fill="#410025" d="M179.5,88.7c-3.8-1.2-7.9-1-11.5,0.5c0-0.3,0-0.6-0.1-0.8c3.6-1.7,7.7-2,11.4-1.1
				C179.4,87.8,179.4,88.2,179.5,88.7z"/>
			<path fill="#410025" d="M183,94.4c4,0.4,7.7,2.1,10.4,4.8c0.1-0.3,0.3-0.5,0.4-0.8c-2.7-2.9-6.3-4.8-10.2-5.4
				C183.5,93.5,183.3,94,183,94.4z"/>
			<path fill="#FFE669" d="M151.7,68c0,0,3.2,11.8-0.7,24.9c-3.9,13.2-19.7,21.6-19.7,21.6s-4.3-10.2-2-26.5
				c2.2-16.3,9.9-22.3,9.9-22.3L151.7,68z"/>
			<g>
				<path fill="#FAB417" d="M137,74.5c0.4-0.8,1.3-1.2,2.1-1.4c0.9-0.2,1.8-0.2,2.6-0.2c1.8,0.2,3.4,0.6,5.1,1.3
					c1.6,0.7,3.1,1.8,4.3,3.2c1.1,1.5,1.8,3.1,1.9,5l0.1,1.1l-0.9-0.7c-1.2-0.9-2.5-1.7-3.8-2.4c-1.3-0.7-2.7-1.2-4.2-1.6
					c-1.4-0.3-3-0.3-4.4,0.2c-1.4,0.4-2.7,1.4-3.3,2.9c0.4-1.5,1.6-2.7,3.1-3.3c1.5-0.6,3.1-0.7,4.7-0.4c1.6,0.2,3.1,0.8,4.5,1.5
					c1.4,0.7,2.7,1.5,4,2.5l-0.8,0.4c-0.1-1.6-0.7-3.2-1.7-4.5c-1-1.3-2.3-2.3-3.8-3.1c-1.5-0.7-3.2-1.2-4.8-1.5
					c-0.8-0.1-1.7-0.2-2.5-0.1c-0.4,0.1-0.8,0.2-1.2,0.4C137.6,73.9,137.3,74.1,137,74.5z"/>
			</g>
			<g>
				<path fill="#F7941D" d="M112.1,76.1c0,0,6.7,0.7,16,9.5c9.2,8.8,15.4,19.6,15.4,19.6l-0.5,9.2c0,0-4.4,9.7-17.8-1.9
					C111.9,100.8,112.1,76.1,112.1,76.1z"/>
				<g>
					<path fill="#D44E24" d="M116.5,83.8c2.7,1.1,5.2,2.8,7.5,4.6c2.3,1.8,4.4,3.9,6.3,6.1c1.9,2.3,3.3,5,4.1,7.9
						c0.8,2.9,1.1,5.8,0.9,8.9l-0.3,2.6l-0.6-2.6c-0.4-1.6-0.9-3.1-1.6-4.6c-0.7-1.5-1.6-2.9-2.8-3.9c-0.6-0.4-1.3-0.9-2.1-0.9
						c-0.8-0.1-1.6-0.1-2.3,0.2c-0.7,0.3-1.2,1-1.3,1.8c-0.1,0.8,0,1.6,0.3,2.4c-0.3-0.8-0.5-1.6-0.5-2.4c0.1-0.8,0.5-1.7,1.4-2.1
						c0.8-0.4,1.7-0.5,2.5-0.4c0.9,0,1.7,0.5,2.4,0.9c1.4,1.1,2.4,2.5,3.1,4c0.8,1.5,1.3,3.1,1.8,4.7l-0.9,0
						c0.2-2.8-0.1-5.7-0.9-8.5c-0.8-2.8-2.1-5.4-3.8-7.6c-1.8-2.2-3.8-4.4-6-6.3C121.4,86.9,119,85.2,116.5,83.8z"/>
				</g>
			</g>
			<g>
				<path fill="#D44E24" d="M165.7,147.6c-1.1,0.4-2.4,0.5-3.6,0.5c-1.2-0.1-2.5-0.5-3.5-1.2c-1.1-0.7-1.9-1.6-2.6-2.6
					c-0.7-1-1.1-2.2-1.3-3.4c0.5,1.1,1.1,2.1,1.9,3c0.7,0.9,1.6,1.7,2.5,2.3c0.9,0.6,2,1,3.1,1.2
					C163.3,147.6,164.5,147.7,165.7,147.6z"/>
			</g>
			
				<ellipse transform="matrix(0.1074 -0.9942 0.9942 0.1074 27.304 248.1309)" fill="#D44E24" cx="151.8" cy="108.9" rx="1.5" ry="1.5"/>
			<path fill="#410025" d="M176.7,132.8c0,0-3.4,4.2-6.2,8c-2.8,3.8-9.3,4.9-12.8-2.1c-3.4-7-3.1-20.8-3.1-20.8s1.4,5.5,8.7,9.6
				C170.7,131.5,176.7,132.8,176.7,132.8z"/>
			<path fill="#FFFDED" d="M173,135.3c0,0-1.8,1.4-8.5-2.6s-9.8-9.8-9.8-9.8c-0.2-2-0.1-2.8,0-5.1c0,0,5,7,7.9,8.6
				c2.9,1.6,7.8,4.8,8.7,5c1,0.2,4.4,1.1,4.4,1.1L173,135.3z"/>
			<path fill="#FFFDED" d="M168.4,141.6c0,0-1,0-4.3-0.8c-4-0.9-6.6-2.9-6.6-2.9s0.4,2.6,2.8,4.3c2.5,1.7,4.8,1.6,5.3,1.5
				C167,143.6,166.7,143.7,168.4,141.6z"/>
			<path fill="#F7941D" d="M198.4,108.5c0,0,7.2,2.7,10.6,5.3c3.4,2.7,7.7,11.4,7.9,11.9c0.2,0.5,1.6,6.5,1.6,6.5s-13.9,3.3-23.7,3
				c-9.8-0.3-21-3-21-3s-11.1-5.3-12.3-6.1c-1.1-0.8-5.9-6.5-5.9-6.5l-0.9-1.9c0,0,7.3,0.7,18.3-5.6
				C184,105.9,198.4,108.5,198.4,108.5z"/>
			<g>
				<path fill="#D44E24" d="M164.4,119.2c1.6-2.5,3.9-4.4,6.3-6.1c2.5-1.6,5.2-2.9,8-3.8c2.8-0.9,5.7-1.5,8.7-1.8
					c2.9-0.3,5.9-0.4,8.9-0.1c3,0.3,5.9,1.2,8.6,2.6c1.3,0.7,2.6,1.6,3.8,2.5c1.2,1,2.2,2,3.2,3.2c2,2.3,3.5,4.9,4.7,7.6
					c1.2,2.8,2.1,5.6,2.7,8.6l0.1,0.8l-0.8,0.2c-6.6,1.9-13.3,2.6-20,2.7c-6.7,0.1-13.5-0.5-20-1.9c-6.6-1.2-13.2-3.8-18.2-8.4
					c-2.5-2.3-4.6-5-6.1-8c-1.5-3-2.5-6.3-2.7-9.6c1,6.6,4.4,12.7,9.5,16.9c1.2,1.1,2.6,2,4,2.8c1.4,0.8,2.9,1.6,4.4,2.2
					c3,1.2,6.2,2,9.5,2.5c6.5,1.1,13.1,1.8,19.7,1.6c3.3-0.1,6.6-0.3,9.8-0.8c3.2-0.4,6.5-1,9.6-1.9l-0.6,1c-1-5.5-3.3-11-6.9-15.4
					c-3.6-4.4-8.8-7.3-14.4-8c-5.7-0.6-11.6-0.2-17.1,1.3c-2.8,0.8-5.5,1.9-8,3.3C168.5,115.1,166.2,116.9,164.4,119.2z"/>
			</g>
			<path fill="#D44E24" d="M192.3,113.6c-0.1,0.1-0.2,0.2-0.3,0.3c-0.4,0.5-0.6,1.3-0.5,2.1c-0.2-0.7-0.3-1.6,0-2.4
				c0.2-0.4,0.4-0.8,0.8-1.1c0.3-0.3,0.7-0.6,1.1-0.8l0,0c0.1-0.1,0.3-0.1,0.5-0.2c1.1-0.3,2.2,0,2.4,0.7c0.2,0.7-0.5,1.6-1.5,2
				C193.6,114.5,192.6,114.3,192.3,113.6z"/>
		</g>
		<path fill="#228DBB" d="M170.7,235.1c-0.3-8.8,1.1-20.9-4.4-36.6c-7.4-20.7-13.8-23.4-13.8-23.4l-18.2-12.2c0,0-4.6,11.5-11.8,32
			c-6.4,18.1,2.3,32.7,4.7,40.5L170.7,235.1z"/>
		<path fill="#C51F2E" d="M154.6,166.4c0.2,0.9,4.7,7.3,4.7,7.3l-2.9,4.1c0,0-5.6-1.5-4.3-0.9S154.6,166.4,154.6,166.4z"/>
		<path fill="#C51F2E" d="M154.7,175.4c0,0,7.2,5.3,7.9,10.1c0.8,4.7,0.9,6,0.9,6l-11.9-15.2L154.7,175.4z"/>
		<path fill="#FFFDED" d="M134,163.7l-0.2-7.6l21.3,10.5c0,0-3.1,15.9-3.1,15.2S133.8,163.3,134,163.7z"/>
		<g>
			<path fill="#F7941D" d="M85.2,0.9c0,0-51.7,2.5-76.7,96C-16.6,190.4,27,241.7,27,241.7s10.4-25.4,28.2-27.5
				c20.7-2.5,26.7,15.5,26.7,15.5s14.2-27.4,27.4-28.5c13.2-1.1,17.4,5.3,17.4,5.3c-0.3-11.3,1.1-21.8,8.4-29.9
				c0,0-31-24.3-49.3-74.8C67.6,51.3,85.2,0.9,85.2,0.9z"/>
			<path fill="#98D7D6" d="M109.4,201.2c13.2-1.1,17.4,5.3,17.4,5.3c-0.1-6,0.3-13.5,3.2-21.2c-12.1-10.2-28.6-26.9-43.8-56.2
				c-24.8-47.7-14-100-14-100S21.3,38.4,8.7,134.4c-4.8,36.8-0.4,66.1,6.8,88.3c6,12.6,11.5,19,11.5,19s10.4-25.4,28.2-27.5
				c20.7-2.5,26.7,15.5,26.7,15.5S96.2,202.3,109.4,201.2z"/>
			<g>
				<path fill="#228DBB" d="M68.3,91c-0.6,0.2-1.2,0.6-1.7,1c-0.3,0.2-0.5,0.5-0.7,0.7c-0.2,0.2-0.4,0.5-0.6,0.8
					c-0.4,0.5-0.8,1.1-1.1,1.6c-0.4,0.5-0.7,1.2-1,1.7c-1.2,2.4-2.2,4.9-2.9,7.4c-1.6,5.1-2.7,10.3-3.7,15.6
					c-0.4,2.6-0.9,5.3-1.2,7.9c-0.2,1.3-0.2,2.6-0.3,4c0,1.3-0.1,2.6-0.1,4c0,5.3,0.5,10.6,1.2,15.9c1.4,10.6,3.9,21,6.8,31.3
					c1.5,5.2,3,10.3,4.7,15.4c1.6,5.1,3.4,10.2,5.3,15.2c-4.6-9.7-8.4-19.8-11.7-30.1c-3.2-10.3-5.9-20.8-7.4-31.5
					c-0.7-5.4-1.2-10.8-1.1-16.2c0-1.4,0.1-2.7,0.2-4.1c0.1-1.4,0.2-2.7,0.4-4.1c0.3-2.7,0.9-5.3,1.5-8c1.2-5.3,2.5-10.5,4.4-15.6
					c0.9-2.5,2.1-5,3.5-7.3c0.4-0.6,0.7-1.2,1.1-1.7c0.4-0.6,0.8-1.1,1.3-1.6c0.2-0.3,0.5-0.5,0.7-0.7c0.3-0.2,0.5-0.5,0.8-0.7
					C67,91.5,67.6,91.2,68.3,91z"/>
			</g>
		</g>
		<g>
			<path fill="#F7941D" d="M187.9,203.3c0,0,4.7,0,7.5-3.6c2.8-3.6,1.1-7.1,1.1-7.1s7.4,9,10,6.8c2.6-2.2-6.2-9-6.2-9
				s12.3,2.3,12.1-0.3c-0.2-2.6-11.6-5.3-11.6-5.3s10.3,0.3,10-2.5c-0.3-2.8-18.2-7.2-23.4-3.1c-5.2,4.2-8.8,12.5-8.8,12.5
				L187.9,203.3z"/>
			<path fill="#228DBB" d="M179.7,220.1c0,0-4.8,0.5-18.8-12.3c-14-12.8-21.9-33-21.9-33s7.4-3.1,13-1.7c5.5,1.4,18,21.4,18,21.4
				l8.8-7.6l16.6,15.2L179.7,220.1z"/>
		</g>
		<g>
			<path fill="#004B78" d="M173.6,217.7c-3.3-1.7-6.4-3.9-9.2-6.3c-2.9-2.4-5.5-5.1-8-7.8c-2.5-2.8-4.9-5.7-7.1-8.7
				c-2.1-3.1-4.2-6.2-5.5-9.8c0.8,1.7,1.8,3.3,2.8,4.8c0.5,0.8,1.1,1.5,1.6,2.3l1.7,2.2c2.3,2.9,4.7,5.8,7.2,8.5
				c2.5,2.7,5.1,5.4,7.8,7.9l2.1,1.9l2.1,1.8l2.2,1.7L173.6,217.7z"/>
		</g>
		<rect x="141.4" y="249.9" fill="#081E25" width="6.3" height="13"/>
		<polygon fill="#228DBB" points="155.2,229.6 175.2,234.8 163.4,264.3 140.5,264.4 154.5,241.6 140,233.3 		"/>
		<path fill="#F7941D" d="M143.3,259.2c0,0,6.6,3.6,12.9,4.3c6.3,0.8,20.2,0.2,20.2,0.2s6.1-5,8.7-1.6c2.6,3.3-2.1,6-2.1,6l-1.2,0.6
			c0,0,8.2-0.7,6.2,3c-2,3.7-9.2-0.6-9.2-0.6s4.6,3.6,2.8,4.9c-1.9,1.3-3.2,1.1-5.2-0.5c-2.1-1.6-1.1-3.2-1.1-3.2
			s-34.6-2.3-35.9-5.6C138.6,264.7,143.3,259.2,143.3,259.2z"/>
		<g>
			<path fill="#004B78" d="M143.2,235.2c2.3-0.3,4.6-0.6,6.9-0.8c2.3-0.2,4.6-0.4,6.9-0.5c2.3-0.1,4.6-0.3,7-0.3l3.5-0.1
				c1.2,0,2.3,0,3.5,0c-1.2,0.2-2.3,0.3-3.5,0.5l-3.5,0.4c-2.3,0.2-4.6,0.4-6.9,0.5c-2.3,0.1-4.6,0.3-7,0.3
				C147.8,235.2,145.5,235.3,143.2,235.2z"/>
		</g>
		<path fill="#7CA4B7" d="M178.9,158.4c-1.1,2.8-3.4,8.1-5.8,11.9c-0.3-0.1-0.6-0.2-0.9-0.4c2.4-3.7,4.7-9,5.8-11.8
			C178.2,158.2,178.5,158.3,178.9,158.4z"/>
		<path fill="#C9DEE8" d="M193,160c0.5,2.1,1.7,8.1,1.3,13.1c-5,0.3-13.6,0.1-21.3-2.9c2.5-3.8,4.7-9.1,5.8-11.9
			C183.5,159.9,189.4,160.1,193,160z"/>
	</g>
	<polygon fill="#EFF9FE" points="296.1,159.4 294.5,164.1 289.4,163.7 291.1,159.1 	"/>
	<polygon fill="#EFF9FE" points="293.7,165.2 292,170.6 287,170.2 288.9,165.2 	"/>
	<polygon fill="#EFF9FE" points="291.2,172 289.6,177 284.5,176.7 286.8,171.9 	"/>
	<polygon fill="#EFF9FE" points="282.6,163.3 287.9,163.6 289.1,159.3 283.4,159.2 	"/>
	<polygon fill="#EFF9FE" points="282.2,159.2 280.8,163.2 277,163.1 278.3,159.1 	"/>
	<polygon fill="#EFF9FE" points="287.5,165.1 285.6,170 280.8,169.6 282.5,164.8 	"/>
	<polygon fill="#EFF9FE" points="280.9,165 279.7,169.3 275.1,169.1 276.9,164.8 	"/>
	<polygon fill="#EFF9FE" points="284.7,171.7 283,176.6 278.3,176.4 280.3,171.5 	"/>
	<polygon fill="#EFF9FE" points="278.7,171.4 277,176.5 272.7,176.3 274.8,171.1 	"/>
	<polygon fill="#EFF9FE" points="281.7,178 272.5,177.5 271.7,181 280.9,181.4 	"/>
	<polygon fill="#EFF9FE" points="283.9,177.8 288.6,178 288,181.4 282.9,181.3 	"/>
	<polygon fill="#EFF9FE" points="271.5,159 269.8,163 262.1,163 264.1,159.2 	"/>
	<polygon fill="#EFF9FE" points="269.1,164.2 267.8,167.5 262.4,167.5 264,164.1 	"/>
	<polygon fill="#EFF9FE" points="267.6,168.4 266.1,172.1 258.2,171.9 260.2,168.4 	"/>
	<path fill="#EFF9FE" d="M266,173.3l-1.4,3.7l-10.1-0.2c0,0,1.7-3.9,2-3.9S266,173.3,266,173.3z"/>
	<path fill="#EFF9FE" d="M250,177.8l-0.8,3.5c0,0-30.1,0-30.1-0.3c0-0.3,1.5-3.8,1.5-3.8L250,177.8z"/>
	<polygon fill="#EFF9FE" points="263.8,178 262.4,181.7 256.9,181.5 258.1,177.8 	"/>
	<polygon fill="#EFF9FE" points="258.4,168.6 257.2,172 252,171.8 252.9,168.4 	"/>
	<polygon fill="#EFF9FE" points="251.2,168.4 249.8,172.1 244.7,171.9 245.8,168.2 	"/>
	<polygon fill="#EFF9FE" points="244.5,168.3 243.2,172 238.1,171.8 239.2,168.1 	"/>
	<polygon fill="#EFF9FE" points="237.9,168.2 236.5,171.9 231.4,171.7 232.5,168 	"/>
	<polygon fill="#EFF9FE" points="256.5,177.8 255.4,181.4 250.6,181.4 251.6,177.6 	"/>
	<polygon fill="#EFF9FE" points="218.7,177.2 217.6,180.7 212.9,180.7 214.6,177.2 	"/>
	<polygon fill="#EFF9FE" points="254.7,172.9 253.6,176.5 248.9,176.5 250.6,172.9 	"/>
	<path fill="#EFF9FE" d="M212.7,177.4c0,0-1.6,3.3-1.3,3.2s-2.5-0.1-2.5-0.1l1-3.1H212.7z"/>
	<polygon fill="#EFF9FE" points="262.3,159.2 260.5,162.9 255,162.8 256.8,159.2 	"/>
	<polygon fill="#EFF9FE" points="262.7,163.9 260.9,167.6 255.4,167.5 257.2,163.9 	"/>
	<polygon fill="#EFF9FE" points="255.6,163.9 254,167.6 248.8,167.5 250.5,163.9 	"/>
	<polygon fill="#EFF9FE" points="248.9,163.9 247.3,167.6 242.2,167.5 243.9,163.9 	"/>
	<polygon fill="#EFF9FE" points="248.8,173 247.6,176.6 242.4,176.5 244.1,172.8 	"/>
	<polygon fill="#EFF9FE" points="242.3,172.8 241,176.4 235.8,176.3 237.5,172.6 	"/>
	<polygon fill="#EFF9FE" points="235.5,172.7 234.2,176.3 229.1,176.2 230.8,172.5 	"/>
	<polygon fill="#EFF9FE" points="228.3,172.8 227,176.4 221.8,176.3 223.5,172.6 	"/>
	<polygon fill="#EFF9FE" points="221,172.8 219.7,176.4 210.4,176.1 211.8,172.6 	"/>
	<polygon fill="#EFF9FE" points="242.5,163.9 240.9,167.6 235.7,167.5 237.4,163.9 	"/>
	<polygon fill="#EFF9FE" points="235.8,163.7 234.2,167.5 229.1,167.4 230.8,163.7 	"/>
	<polygon fill="#EFF9FE" points="229.4,163.7 227.8,167.5 222.7,167.4 224.4,163.7 	"/>
	<polygon fill="#EFF9FE" points="222.4,163.7 220.9,167.5 213.3,167.3 214.9,163.6 	"/>
	<polygon fill="#EFF9FE" points="255.2,159.2 253.5,162.9 248.1,162.8 249.9,159.2 	"/>
	<polygon fill="#EFF9FE" points="248.5,159.3 246.9,163 241.7,162.9 243.4,159.3 	"/>
	<polygon fill="#EFF9FE" points="241.7,159.2 240,162.9 234.7,162.8 236.5,159.2 	"/>
	<polygon fill="#EFF9FE" points="234.9,159.1 233.3,162.8 228.2,162.7 229.9,159.1 	"/>
	<polygon fill="#EFF9FE" points="231.4,168.2 229.8,171.9 224.6,171.8 226.3,168.2 	"/>
	<polygon fill="#EFF9FE" points="224.3,168.2 222.7,171.9 217.6,171.8 219.3,168.2 	"/>
	<polygon fill="#EFF9FE" points="218.2,168.2 216.6,171.9 211.6,171.8 213.3,168.2 	"/>
	<polygon fill="#EFF9FE" points="227.8,159.1 226.3,162.8 221.4,162.7 223,159.1 	"/>
	<polygon fill="#EFF9FE" points="221.3,159 219.8,162.7 215,162.6 216.6,159 	"/>
	<path fill="#BA1F3A" d="M307.5,206.6c-1.7-2.2-4.6-2.8-6.5-1.3c-1.9,1.5-2.1,4.4-0.4,6.6c0.8,1.1,2.5,1.4,3.9,1.5l3.5-2.7
		C308.3,209.3,308.4,207.6,307.5,206.6z"/>
	<line fill="none" stroke="#081E25" stroke-width="0.75" stroke-miterlimit="10" x1="324.1" y1="218.8" x2="339.1" y2="215.6"/>
	<ellipse fill="#EB2044" cx="339.1" cy="215.6" rx="1.4" ry="1.5"/>
	<path fill="#C9DEE8" d="M326.2,220.4h-28.4c0,0,2.7-10.8,14.2-10.8C324.3,209.6,326.2,220.4,326.2,220.4z"/>
	
		<ellipse transform="matrix(0.2245 -0.9745 0.9745 0.2245 21.6131 460.4139)" fill="#EFF9FE" cx="300.1" cy="216.6" rx="1.8" ry="1.4"/>
	
		<ellipse transform="matrix(0.9964 -8.502609e-02 8.502609e-02 0.9964 -17.344 26.306)" fill="#410025" cx="300.2" cy="216.8" rx="0.7" ry="0.8"/>
	<path fill="#EB2044" d="M314.6,215.1c2.6-2.2,3.2-5.9,1.3-8.2c-1.9-2.3-5.7-2.4-8.3-0.2c-1.3,1.1-1.6,3.2-1.6,4.9l3.5,4.2
		C311.2,216.2,313.2,216.2,314.6,215.1z"/>
	
		<polyline fill="none" stroke="#081E25" stroke-width="0.25" stroke-linecap="round" stroke-linejoin="round" stroke-miterlimit="10" points="
		305.7,222.6 298.2,220 302.8,223.7 	"/>
	
		<polyline fill="none" stroke="#081E25" stroke-width="0.25" stroke-linecap="round" stroke-linejoin="round" stroke-miterlimit="10" points="
		291.7,217.7 298.2,220 294.3,216.7 	"/>
	
		<ellipse transform="matrix(0.3904 -0.9206 0.9206 0.3904 -15.3068 411.0337)" fill="#EFF9FE" cx="302.7" cy="217.1" rx="2.6" ry="2.1"/>
	<ellipse fill="#410025" cx="302.4" cy="217.4" rx="1" ry="1.1"/>
	
		<ellipse transform="matrix(8.852490e-02 -0.9961 0.9961 8.852490e-02 52.6731 497.3978)" fill="#410025" cx="298.1" cy="219.9" rx="0.7" ry="0.7"/>
</g>
</svg>
