<?xml version="1.0" encoding="utf-8"?>
<!-- Generator: Adobe Illustrator 21.0.0, SVG Export Plug-In . SVG Version: 6.00 Build 0)  -->
<svg version="1.1" xmlns="http://www.w3.org/2000/svg" xmlns:xlink="http://www.w3.org/1999/xlink" x="0px" y="0px"
	 viewBox="0 0 40 40" enable-background="new 0 0 40 40" xml:space="preserve" width="40" height="40" preserveAspectRatio="none">
<g id="Header_Buttons">
	<g>
		<path fill="#330100" d="M15.2,5.6c0,0-0.3-0.5-1.3-0.9c-1-0.4-1.3-0.5-1.5-0.3c-0.2,0.2-0.3,0.6-0.3,1.4c0,0.8,0.4,1.8,0.4,1.8
			L15.2,5.6z"/>
		<path fill="#330100" d="M26,29.7c0,0,1.8-0.7,2.2-0.4c0.5,0.3,0.5,2.1,0.5,2.1s1.6-1.2,2.1-1.1c0.5,0.1,1.2,1.8,1.2,1.8l0.5,0
			c0,0,0.8-1.4,1.2-1.3c0.5,0.1,1.1,1.2,1.1,1.2l-3.1,0.6L27,30.9L26,29.7z"/>
		<path fill="#80C242" d="M22,26.8c0,0,5.7,4.2,9.1,4.8c3.4,0.5,4.9-0.1,5.2,0.3c0.2,0.3-1.9,2.7-8.3,2.9c-3.4,0.1-5.4-2.4-5.4-2.4
			L22,26.8z"/>
		<path fill="#F07199" d="M21.4,32.4c0,0,2.4,2.1,6.5,2.5c3.4,0.3,7.1-1.3,8-2.3c-0.2,0-0.4,0.1-0.6,0.1c-1.6,0.1-2.4,1.1-2.4,1.1
			s0.4-1-0.9-1.2c-1.3-0.2-2.6,1.3-2.6,1.3s-0.8-2.1-2.4-2.8c-2-0.9-3.2-0.5-4.5-0.4L21.4,32.4z"/>
		<g>
			<path fill="#330100" d="M14.6,36.3c0,0-0.7,0.8-0.6,1.1c0.1,0.2,1.8-0.4,1.8-0.4s-0.2,1.6,0.2,1.6c0.4,0,1.1-1.2,1.1-1.2
				s0.7,1.4,1.1,1.4c0.3,0,0.8-1.4,0.8-1.4L14.6,36.3z"/>
			<path fill="#80C242" d="M15.6,30.8c0,0-0.9,1.8-1.2,3.3c-0.3,1.5,0,2.3,0.1,2.5c0.1,0.2,0.7,0.9,2.7,1.2c2,0.2,2.5-0.5,2.7-0.6
				c0.1-0.1-0.6-1.7-0.7-2.9c-0.1-1.2-0.2-2.7-0.2-2.7L15.6,30.8z"/>
			<path fill="#00722D" d="M17.8,34.5C17.8,34.5,17.8,34.5,17.8,34.5c-0.2,0.1-0.2,0.1-0.4,0.1c-0.2,0-0.6,0-0.9-0.1
				c-0.2-0.1-0.4-0.1-0.6-0.3c-0.2-0.1-0.4-0.3-0.5-0.5c-0.1-0.1-0.1-0.2-0.2-0.4c0-0.1,0-0.3,0.1-0.5c0.3-0.5,1.1-0.4,1.5-0.1
				c0.1,0.1,0.2,0.1,0.3,0.2c0.1,0.1,0.2,0.2,0.2,0.4c0,0.2-0.1,0.4-0.3,0.5c-0.3,0.1-0.6,0-0.8-0.2c-0.1-0.1-0.1-0.1-0.2-0.2
				c0-0.1-0.1-0.2,0-0.3c0.2-0.2,0.5-0.1,0.6,0c0,0,0.1,0.1,0.1,0.1s0,0-0.1-0.1c-0.1,0-0.1-0.1-0.2-0.1c-0.1,0-0.1,0-0.2,0
				c-0.1,0-0.1,0-0.2,0.1c0,0.1,0,0.2,0,0.2c0,0.1,0.1,0.1,0.2,0.2c0.2,0.1,0.4,0.2,0.6,0.2c0.2,0,0.4-0.2,0.3-0.4
				c0-0.1-0.1-0.2-0.2-0.3C17,33.1,16.9,33,16.8,33c-0.2-0.1-0.4-0.2-0.7-0.2c-0.2,0-0.5,0.1-0.7,0.3c-0.1,0.2-0.1,0.4,0,0.6
				c0.1,0.2,0.3,0.4,0.5,0.5c0.2,0.1,0.4,0.2,0.5,0.3c0.2,0.1,0.3,0.1,0.5,0.1c0.2,0,0.3,0,0.4,0C17.6,34.6,17.7,34.5,17.8,34.5
				C17.8,34.5,17.8,34.5,17.8,34.5"/>
		</g>
		<g>
			<path fill="#330100" d="M21.6,37.2c0,0-0.5,1-0.3,1.2c0.2,0.2,1.6-0.9,1.6-0.9s0.3,1.6,0.6,1.5c0.4-0.1,0.7-1.4,0.7-1.4
				s1.1,1.1,1.4,1C25.9,38.4,26,37,26,37L21.6,37.2z"/>
			<path fill="#80C242" d="M20.9,31.6c0,0-0.4,2-0.2,3.5c0.2,1.5,0.6,2.2,0.8,2.4c0.2,0.2,1,0.7,3,0.3c2-0.3,2.3-1.2,2.4-1.3
				c0.1-0.1-1.1-1.5-1.5-2.5c-0.4-1.1-1-2.6-1-2.6L20.9,31.6z"/>
			<path fill="#00722D" d="M21.4,34.9C21.4,34.9,21.5,34.9,21.4,34.9c0.1,0.1,0.2,0.1,0.3,0.2c0.2,0.1,0.5,0.2,0.9,0.2
				c0.2,0,0.4,0,0.6-0.1c0.2-0.1,0.4-0.2,0.6-0.3c0.1-0.1,0.2-0.2,0.3-0.3c0.1-0.1,0.1-0.3,0-0.5c-0.2-0.6-1-0.7-1.4-0.5
				c-0.1,0-0.2,0.1-0.4,0.2c-0.1,0.1-0.2,0.2-0.3,0.3c0,0.1,0,0.2,0,0.2c0.1,0.5,0.7,0.5,1.1,0.4c0.1,0,0.2-0.1,0.2-0.2
				c0.1-0.1,0.1-0.2,0.1-0.3c-0.1-0.2-0.4-0.2-0.6-0.2c-0.1,0-0.1,0-0.1,0s0,0,0.1,0c0.1,0,0.3,0,0.5,0c0.1,0.1,0.2,0.2,0.1,0.3
				c-0.1,0.3-0.6,0.3-0.8,0.2c-0.2-0.1-0.4-0.2-0.3-0.5c0-0.1,0.1-0.2,0.2-0.2c0.1-0.1,0.2-0.1,0.3-0.1c0.2-0.1,0.5-0.1,0.7,0
				c0.2,0,0.5,0.2,0.6,0.4c0.1,0.4-0.2,0.7-0.5,0.8c-0.3,0.2-0.6,0.2-0.9,0.3c-0.2,0-0.4,0-0.5,0c-0.2,0-0.3-0.1-0.4-0.1
				C21.7,35,21.6,34.9,21.4,34.9C21.5,34.9,21.4,34.9,21.4,34.9"/>
		</g>
		<path fill="#00722D" d="M26.5,25.9c0-0.1-0.1-0.2-0.1-0.4c-0.1-0.2-0.2-0.4-0.4-0.6c0.1,0.2,0.2,0.5,0.3,0.7
			c0.1,0.2,0.1,0.4,0.1,0.5c0,0,0,0,0,0.1c0,0-0.1,0-0.1,0c-0.2,0-0.4-0.1-0.5-0.2c-0.2-0.1-1.1-0.8-1.1-0.8s0.7,1,0.9,1.3
			c0.1,0.2,0.2,0.3,0.2,0.5c0,0.1,0.1,0.2,0.1,0.3c-0.1,0.2-0.4,0-0.5,0c-0.2-0.1-0.3-0.2-0.5-0.2c-0.3-0.2-0.6-0.4-0.9-0.6
			c0.3,0.3,0.5,0.5,0.8,0.7c0.1,0.1,0.3,0.2,0.5,0.3c0.1,0,0.2,0.1,0.3,0.1c0.1,0,0.3,0,0.4,0c0.1-0.1,0.1-0.2,0.1-0.3
			c0-0.1,0-0.2-0.1-0.3c-0.1-0.2-0.1-0.3-0.2-0.5c-0.1-0.1-0.1-0.2-0.2-0.3c0,0,0,0,0.1,0c0.1,0.1,0.2,0.1,0.3,0.2
			c0.1,0,0.1,0,0.2,0.1c0,0,0.1,0,0.1,0c0,0,0,0,0.1,0c0.1-0.1,0.1-0.2,0.1-0.2C26.6,26,26.6,25.9,26.5,25.9z"/>
		<path fill="#00722D" d="M15.5,27.9c-0.3,0.2-0.8,0.4-1.1,0.4c-0.1,0-0.1,0-0.2-0.1C14,28.1,14,28,14,27.9c0-0.2,0.1-0.3,0.2-0.5
			c0.1-0.2,0.2-0.3,0.3-0.5c0.3-0.4,1.3-1.6,1.3-1.6s-1.4,0.7-1.8,0.9c-0.2,0.1-0.5,0.2-0.7,0.1c-0.1,0-0.2,0-0.2-0.1
			c0-0.1,0-0.2,0-0.2c0.1-0.1,0.3-0.3,0.4-0.4c0.2-0.1,0.4-0.3,0.7-0.4c0.5-0.2,0.9-0.4,1.4-0.6l0.9-0.3l-1-0.1
			c-0.2,0-0.4,0-0.6-0.1c-0.2,0-0.4-0.1-0.6-0.1c-0.3-0.1-0.7-0.2-1-0.3c-0.1-0.1-0.4-0.2-0.4-0.3c0-0.1,0.2-0.2,0.2-0.2
			c0.3-0.2,0.7-0.2,1.1-0.2c0.4,0,0.8,0,1.2,0l1.1,0l-1-0.4c-0.4-0.2-0.9-0.3-1.3-0.6c-0.2-0.1-0.4-0.2-0.6-0.4
			c-0.2-0.1-0.4-0.3-0.5-0.5c-0.1-0.1-0.1-0.2-0.1-0.3c0-0.1,0.1-0.2,0.2-0.2c0.2-0.1,0.4-0.1,0.7-0.1c0.5,0,1,0.1,1.4,0.2
			c-0.5-0.1-0.9-0.3-1.4-0.3c-0.2,0-0.5,0-0.7,0.1c-0.1,0.1-0.2,0.2-0.3,0.3c0,0.1,0,0.3,0.1,0.4c0.1,0.2,0.3,0.4,0.5,0.6
			c0.2,0.2,0.4,0.3,0.6,0.4c0.2,0.1,0.4,0.2,0.6,0.3c-0.2,0-0.5,0-0.7,0c-0.4,0-0.7,0.1-1.1,0.3c-0.2,0.1-0.4,0.3-0.4,0.5
			c0,0.3,0.2,0.5,0.4,0.6c0.3,0.2,0.7,0.3,1.1,0.4c0.2,0,0.4,0.1,0.5,0.1c-0.2,0.1-0.5,0.2-0.7,0.3c-0.2,0.1-0.5,0.3-0.7,0.4
			c-0.1,0.1-0.2,0.2-0.3,0.3c-0.3,0.3-0.4,0.7-0.1,1c0.4,0.4,0.9,0.2,1.3,0c0.2-0.1,0.3-0.1,0.4-0.2c-0.1,0.1-0.2,0.2-0.3,0.4
			c-0.1,0.2-0.3,0.5-0.4,0.7c0,0.1-0.1,0.3-0.1,0.4c0,0.3,0.3,0.6,0.6,0.6c0.4,0,0.8-0.3,1.1-0.5c0.4-0.3,0.9-0.6,1.2-1
			C16.3,27.3,15.9,27.6,15.5,27.9z"/>
		<path fill="#00722D" d="M32.5,21.8c0-0.1-0.1-0.2-0.2-0.2c-0.3-0.1-0.7-0.1-1.1-0.1c-0.3,0-0.5,0-0.8,0c-0.5,0-1,0.1-1.5,0.2
			c-0.5,0.1-0.9,0.2-1.4,0.2c0.3-0.2,0.7-0.4,1-0.6c0.3-0.2,0.6-0.4,0.9-0.6c0.3-0.2,0.5-0.4,0.7-0.7c0.1-0.1,0.1-0.2,0.1-0.3
			c0-0.2-0.1-0.3-0.3-0.4c-0.3-0.1-0.6-0.1-0.9,0c-0.3,0-0.6,0.1-0.9,0.2c-0.5,0.1-0.9,0.3-1.4,0.4c-0.6,0.2-1.1,0.4-1.6,0.6
			c0.3-0.3,0.6-0.6,1-0.9c0.3-0.3,0.6-0.6,0.8-0.9c0.1-0.2,0.3-0.4,0.4-0.7c0-0.1,0-0.3,0-0.4c-0.1-0.1-0.2-0.2-0.4-0.2
			c-0.3,0-0.6,0.1-0.9,0.2c-0.4,0.1-0.7,0.3-1.1,0.5c-0.7,0.4-1.3,0.8-2,1.3c0.7-0.4,1.3-0.9,2-1.2c0.3-0.2,0.7-0.3,1.1-0.5
			c0.2-0.1,0.4-0.1,0.6-0.1c0.2,0,0.4,0,0.5,0.1c0.1,0.1,0.1,0.3,0,0.4c-0.1,0.2-0.2,0.3-0.3,0.5c-0.2,0.3-0.5,0.6-0.8,0.8
			c-0.6,0.5-1.2,1-1.8,1.5l-1,0.8l1.2-0.5c0.9-0.4,1.7-0.7,2.6-1c0.4-0.2,0.9-0.3,1.3-0.4c0.5-0.1,0.9-0.2,1.3-0.2
			c0.2,0,0.4,0.2-0.1,0.5c-0.4,0.3-0.8,0.5-1.2,0.7c-0.8,0.5-1.6,0.9-2.5,1.3L24,23.1l1.9-0.4c1-0.2,2-0.4,3-0.6
			c0.5-0.1,1-0.2,1.5-0.2c0.3,0,0.5,0,0.8-0.1c0.3,0,0.9-0.1,0.9,0.1c0,0.2-0.4,0.3-0.7,0.4c-0.5,0.2-1,0.3-1.5,0.4
			c-1,0.2-4,0.6-4,0.6s2.9,0.2,3.9,0.3c0.5,0.1,1,0.1,1.4,0.3c0.1,0,0.2,0.1,0.3,0.1c0.1,0,0.2,0.1,0.2,0.2c0,0,0,0,0,0
			c-0.1,0.2-0.3,0.2-0.4,0.3c-0.4,0.2-0.9,0.3-1.4,0.4c-0.5,0.1-0.9,0.2-1.4,0.2c-1,0.1-1.3,0.2-2.3,0.2c1,0,1.3,0,2.3-0.1
			c0.5,0,1-0.1,1.4-0.2c0.5-0.1,1-0.2,1.4-0.4c0.2-0.1,0.4-0.2,0.5-0.3c0-0.1,0.1-0.1,0.1-0.2c0-0.2-0.1-0.3-0.2-0.4
			c-0.3-0.2-0.6-0.2-0.9-0.3c-0.3-0.1-0.6-0.1-1-0.2c-0.2,0-0.5-0.1-0.7-0.1c0.3,0,0.6-0.1,0.9-0.1c0.5-0.1,1-0.2,1.5-0.4
			c0.3-0.1,0.7-0.3,0.8-0.5C32.5,22.1,32.6,21.9,32.5,21.8z"/>
		<path fill="#330100" d="M21.5,4.8c0,0,0.3-0.7,1.5-1.4c1.2-0.7,1.6-0.9,1.9-0.6c0.3,0.2,0.6,0.7,0.7,1.7c0.1,1-0.2,2.4-0.2,2.4
			L21.5,4.8z"/>
		<g>
			<path fill="#F07199" d="M34.5,8.6c0,0-1.8-0.3-2.7-1c-1.7-1.4-3-4.9-3-4.9l-1.1,7.4l4.1,4.1c0,0-0.2-0.7,0.5-2.1
				C33,10.8,34.5,8.6,34.5,8.6z"/>
			<path fill="#80C242" d="M28.6,1c0,0,0.1,2.7-0.2,4.5c-0.3,1.8-1.2,4.9-1.2,4.9s2.3,2.9,3.3,3.4c1,0.5,2.1,1.2,2.1,1.2
				s-0.4-1-1.5-2.3c-1.2-1.4-2.9-2.3-2.9-2.3s0.6-1.6,0.9-4.3C29.5,3.3,28.6,1,28.6,1z"/>
			<path fill="#C2105D" d="M33,10.1c0,0-0.3-0.1-0.7-0.2c-0.4-0.1-1-0.2-1.5-0.2c-1.1-0.1-2.2,0-2.2,0s0.3-0.1,0.7-0.2
				c0.4-0.1,1-0.1,1.6,0c0.6,0,1.1,0.2,1.5,0.3c0.2,0.1,0.4,0.1,0.5,0.2C33,10,33,10.1,33,10.1z"/>
		</g>
		<g>
			<path fill="#F07199" d="M3.6,15.2c0,0,1.6-1.5,2-3.6C6.1,9.4,6,5.9,6,5.9l4.5,6l-1.6,5.6c0,0-0.2-0.7-1.5-1.6
				C6.2,14.9,3.6,15.2,3.6,15.2z"/>
			<path fill="#80C242" d="M5.3,4.3c0,0,1.2,2.4,2.3,3.8c1.1,1.5,3.4,3.7,3.4,3.7s-0.6,3.6-1.2,4.6c-0.7,0.9-1.2,2-1.2,2
				s-0.1-1,0.2-2.8c0.4-1.7,1.2-4,1.2-4s-1.2-0.6-2.8-2.8C5.7,6.7,5.3,4.3,5.3,4.3z"/>
			<path fill="#C2105D" d="M5.8,14.4c0,0,0-0.1,0.1-0.2C6,14.1,6.1,14,6.2,13.8c0.3-0.3,0.7-0.7,1.2-1c0.5-0.3,1-0.6,1.4-0.7
				c0.4-0.1,0.7-0.2,0.7-0.2s-1,0.5-1.9,1.1c-0.5,0.3-0.9,0.6-1.2,0.9C6,14.2,5.8,14.4,5.8,14.4z"/>
		</g>
		<g>
			<path fill="#330100" d="M11.7,22.6c0,0-0.2-1.1-0.5-1.2C11,21.4,10.3,22,10.3,22s-1.6-0.2-1.8,0C8.3,22.2,9,23.1,9,23.1
				s-1.3,0.6-1.2,0.8c0.1,0.3,1,0.6,1,0.6s-0.4,1.1-0.2,1.2c0.2,0.2,1.6-0.3,1.6-0.3L11.7,22.6z"/>
			<path fill="#80C242" d="M17.8,22.8c0,0-2.2,1.4-3.9,1.1c-1.9-0.4-2.4-2.6-4-1.9c-1.7,0.7-1.5,4.4,1.5,5.1
				c3.5,0.8,5.9-2.4,5.9-2.4L17.8,22.8z"/>
			<path fill="#EEE9D9" d="M15.2,23.8c0.1,0.3,0.2,0.6,0.3,1c0.1,0.4,0.1,0.9,0,1.4c1.1-0.7,1.7-1.5,1.7-1.5l0.4-1.5l0.1-0.4
				C17.5,22.9,16.4,23.6,15.2,23.8z"/>
		</g>
		<g>
			<path fill="#330100" d="M27,26.5c0,0-0.2,1.1,0,1.3c0.2,0.2,1.3-0.3,1.3-0.3s1.3,1,1.5,0.9c0.3-0.1,0.4-1.1,0.4-1.1
				s1.2,0.1,1.2-0.2c0.1-0.3-0.5-1-0.5-1s0.9-0.7,0.8-1c-0.1-0.2-1.5-0.5-1.5-0.5L27,26.5z"/>
			<path fill="#80C242" d="M22.6,23.9c0,0,1.7,0.1,2.9,1c1.2,0.9,1.7,3.1,3.4,2.9c1.7-0.2,2.3-1.8,1.7-3c-2.8-3.8-8.2-2.1-8.2-2.1
				L22.6,23.9z"/>
			<path fill="#EEE9D9" d="M24.8,24.5l0.7-2.1c-1.7-0.1-3.1,0.4-3.1,0.4l0.2,1.1C22.6,23.9,23.8,24,24.8,24.5z"/>
		</g>
		<g>
			<path fill="#52677D" d="M17.7,21.4c0,0-1,3-1.8,4.9c-0.8,1.9-2.3,4.2-2.3,4.2s1.8,1.9,6.3,2.5c4.6,0.6,6.7-0.7,6.7-0.7
				s-1.2-4.5-2.7-7.1c-1.4-2.6-2.6-4.2-2.6-4.2L17.7,21.4z"/>
			<polygon fill="#EEE9D9" points="17.7,25.5 21.3,25.4 21.2,21 18.2,21.3 			"/>
			<path fill="#EEE9D9" d="M24.3,25.6c-0.1-0.2-0.2-0.3-0.2-0.5c-0.6-1.1-1.2-2-1.6-2.8c-0.2,0.6-0.3,1.4,0.2,2.3
				C23.1,26,23.8,25.9,24.3,25.6z"/>
			<path fill="#C8DBD7" d="M21.5,23.4c0.5-0.1,0.7-0.5,0.8-1.1c-0.5-0.9-0.9-1.4-0.9-1.4l-3.7,0.4c0,0-0.3,0.8-0.7,1.9
				c0.1,0.1,0.2,0.2,0.3,0.2c1,0.2,1.6-0.9,1.6-0.9l-0.4,2l1.6,0.1l-0.1-1.8C20.1,22.8,20.4,23.5,21.5,23.4z"/>
			<ellipse fill="#C8DBD7" cx="17" cy="26" rx="0.6" ry="0.5"/>
			<ellipse fill="#C8DBD7" cx="22" cy="26.1" rx="0.6" ry="0.5"/>
		</g>
		<path fill="#80C242" d="M17.7,4.8C7.8,7,10.3,14,10.3,14s-0.9,8.3,9.7,7.2c10.7-1.2,8.5-8.9,8.5-8.9S27.7,2.7,17.7,4.8z"/>
		<g>
			<path fill="#CD4385" d="M17.4,3.6l-0.2,1.5c0,0-0.3,0.3-1.3,0.2c0,0-0.2-0.7,0.1-1.5C16,3.8,16.9,3.3,17.4,3.6z"/>
			<path fill="#CD4385" d="M17.1,3.8c0,0,1-1.2,2.7-1.7c0.4-0.1,0.9-0.4,0.8,0.5c-0.1,0.9-0.5,2.1-0.8,2.7c-0.3,0.7-0.5,0.8-1,0.6
				c-0.6-0.2-2.2-0.8-2.2-0.8L17.1,3.8z"/>
			<path fill="#CD4385" d="M16.1,3.9c0,0-0.4-0.4-1-0.8c-0.6-0.3-1-0.5-1.4,0c-0.4,0.5-0.1,2.1,0.1,2.6c0.1,0.5,0.2,0.9,0.4,0.8
				c0.2-0.1,2.1-1.6,2.1-1.6L16.1,3.9z"/>
			<path fill="#8A295D" d="M16.3,5.5c-0.1,0-0.2,0-0.4,0c0,0-0.1,0-0.1-0.1c0,0-0.2-0.8,0.1-1.6c0,0,0,0,0,0c0,0,1-0.5,1.5-0.2
				c0,0,0,0,0,0.1l-0.2,1.5c0,0,0,0,0,0C17.2,5.2,17,5.5,16.3,5.5z M16,5.3c0.8,0.1,1.1-0.1,1.1-0.2l0.2-1.5c-0.3-0.2-1,0.1-1.3,0.2
				C15.8,4.5,15.9,5.1,16,5.3z"/>
		</g>
		<g>
			<path fill="#330100" d="M12.4,6.6c-2.3,0-4.2,2-4.2,4.4s1.9,4.4,4.2,4.4c2.3,0,4.2-2,4.2-4.4S14.7,6.6,12.4,6.6z M12.4,14.8
				c-2,0-3.7-1.7-3.7-3.9c0-2.1,1.6-3.9,3.7-3.9c2,0,3.7,1.7,3.7,3.9C16.1,13.1,14.4,14.8,12.4,14.8z"/>
			<path fill="#330100" d="M16.3,11.2c0,0,0.2-0.2,0.7-0.2c0.5,0,1,0.2,1,0.2l0.1,2L15.8,13L16.3,11.2z"/>
			<path fill="#330100" d="M22,5.2c-2.7,0-4.9,2.3-4.9,5.1c0,2.8,2.2,5.1,4.9,5.1c2.7,0,4.9-2.3,4.9-5.1C26.8,7.5,24.6,5.2,22,5.2z
				 M22,14.8c-2.4,0-4.3-2-4.3-4.5c0-2.5,1.9-4.5,4.3-4.5c2.4,0,4.3,2,4.3,4.5C26.3,12.8,24.3,14.8,22,14.8z"/>
		</g>
		<ellipse fill="#FFE88A" cx="12.4" cy="10.9" rx="3.7" ry="3.9"/>
		<ellipse fill="#FFE88A" cx="21.9" cy="10.3" rx="4.3" ry="4.5"/>
		<ellipse fill="#330100" cx="13.3" cy="12" rx="0.8" ry="1.1"/>
		<ellipse fill="#330100" cx="21.8" cy="11.7" rx="1" ry="1.4"/>
		<path fill="#80C242" d="M18.9,15.4c0.1,1.4-1,2.4-2.9,2.4c-1.9,0-3.5-0.5-3.4-2.4c0.1-1.4,1.5-2.5,3.4-2.5
			C17.9,12.8,18.7,13.8,18.9,15.4z"/>
		<path fill="#00722D" d="M18.1,13.5c0,0-0.1-0.1-0.3-0.2c-0.8-0.4-1.8-0.4-2.6-0.2c-0.4,0.1-1.2,0.4-1.6,0.8
			c-0.5,0.5-0.9,1.1-1,1.8c0,0.2,0,0.3,0,0.3s0-0.1,0-0.3c-0.1-0.9,0.4-1.8,1.2-2.3c0.9-0.6,2-0.9,3.1-0.7c0.4,0.1,0.8,0.3,1.1,0.5
			C18,13.4,18.1,13.5,18.1,13.5z"/>
		<ellipse fill="#00722D" cx="15.3" cy="15.9" rx="0.5" ry="0.4"/>
		<ellipse fill="#00722D" cx="17.7" cy="15.7" rx="0.6" ry="0.5"/>
		<g>
			<circle fill="#00722D" cx="24.2" cy="15.8" r="0.3"/>
			<g>
				<path fill="#EEE9D9" d="M15.6,18c0,0-0.3,1.5-0.5,1.5c-0.2,0-0.7-0.3-1-1c-0.4-0.7-0.3-1-0.3-1L15.6,18z"/>
				<path fill="#330100" d="M19.5,18.5c0,0,0.8,1.4,2.7,1.1c1.8-0.4,1.6-3.3,1.6-3.3l-2.2,1.2l-1.9,0.5L19.5,18.5z"/>
				<path fill="#C2105D" d="M20.8,19.5c0.4,0.1,0.8,0.2,1.4,0.1c0.9-0.2,1.3-1,1.5-1.8c-0.4-0.1-1.1,0-1.7,0.5
					C21.3,18.7,21,19.1,20.8,19.5z"/>
				<path fill="#EEE9D9" d="M18.7,18.2c0,0,0.3,1.5,0.5,1.5c0.2,0,0.7-0.3,1-1c0.4-0.7,0.3-1,0.3-1L18.7,18.2z"/>
				<path fill="#00722D" d="M13.6,17.3c0,0,0.2,0.1,0.5,0.1c1.9,0.5,3.9,0.6,5.8,0.2c1.3-0.3,2.8-0.7,3.9-1.5
					c0.2-0.2,0.4-0.3,0.4-0.3S24,16,23.8,16.2c-0.2,0.2-0.6,0.5-1,0.8c-1.7,1-3.7,1.4-5.6,1.3C16.1,18.2,15,18,14,17.6
					C13.7,17.4,13.6,17.3,13.6,17.3z"/>
				<path fill="#EEE9D9" d="M23,18.1l0.1,0.8c0.2-0.3,0.4-0.6,0.5-0.9C23.3,18,23.1,18.1,23,18.1z"/>
			</g>
		</g>
	</g>
</g>
<g id="Layer_1">
</g>
</svg>
