<?xml version="1.0" encoding="utf-8"?>
<!-- Generator: Adobe Illustrator 21.0.0, SVG Export Plug-In . SVG Version: 6.00 Build 0)  -->
<!DOCTYPE svg PUBLIC "-//W3C//DTD SVG 1.1//EN" "http://www.w3.org/Graphics/SVG/1.1/DTD/svg11.dtd">
<svg version="1.1" id="Header_Buttons" xmlns="http://www.w3.org/2000/svg" xmlns:xlink="http://www.w3.org/1999/xlink" x="0px"
	 y="0px" viewBox="0 0 40 40" enable-background="new 0 0 40 40" xml:space="preserve" width="40" height="40" preserveAspectRatio="none">
<path fill="#330100" d="M16.4,8.7c0,0-0.2-0.3-0.7-0.5C15.2,8,15,8,14.9,8.1c-0.1,0.1-0.2,0.3-0.2,0.8c0,0.4,0.2,1,0.2,1L16.4,8.7z"
	/>
<path fill="#330100" d="M22.3,22c0,0,1-0.4,1.2-0.2c0.3,0.2,0.3,1.2,0.3,1.2s0.9-0.7,1.1-0.6c0.3,0.1,0.7,1,0.7,1l0.3,0
	c0,0,0.4-0.8,0.7-0.7c0.3,0,0.6,0.6,0.6,0.6l-1.7,0.3l-2.6-0.9L22.3,22z"/>
<path fill="#80C242" d="M20.1,20.4c0,0,3.1,2.3,5,2.6c1.9,0.3,2.7-0.1,2.9,0.2c0.1,0.2-1,1.5-4.6,1.6c-1.9,0.1-3-1.3-3-1.3
	L20.1,20.4z"/>
<path fill="#F07199" d="M19.8,23.5c0,0,1.3,1.2,3.6,1.4c1.9,0.2,3.9-0.7,4.4-1.3c-0.1,0-0.2,0-0.4,0c-0.9,0.1-1.3,0.6-1.3,0.6
	s0.2-0.6-0.5-0.7c-0.7-0.1-1.4,0.7-1.4,0.7s-0.5-1.2-1.3-1.5c-1.1-0.5-1.8-0.3-2.5-0.2L19.8,23.5z"/>
<g>
	<path fill="#330100" d="M16,25.7c0,0-0.4,0.4-0.3,0.6c0.1,0.1,1-0.2,1-0.2s-0.1,0.9,0.1,0.9c0.2,0,0.6-0.6,0.6-0.6s0.4,0.8,0.6,0.8
		c0.2,0,0.4-0.8,0.4-0.8L16,25.7z"/>
	<path fill="#80C242" d="M16.6,22.6c0,0-0.5,1-0.7,1.8c-0.2,0.8,0,1.3,0.1,1.4c0.1,0.1,0.4,0.5,1.5,0.7c1.1,0.1,1.4-0.3,1.5-0.3
		c0.1,0-0.3-0.9-0.4-1.6c-0.1-0.6-0.1-1.5-0.1-1.5L16.6,22.6z"/>
	<path fill="#00722D" d="M17.8,24.7C17.8,24.7,17.8,24.7,17.8,24.7c-0.1,0-0.1,0-0.2,0.1c-0.1,0-0.3,0-0.5,0c-0.1,0-0.2-0.1-0.3-0.1
		c-0.1-0.1-0.2-0.1-0.3-0.3c0-0.1-0.1-0.1-0.1-0.2c0-0.1,0-0.2,0-0.3c0.2-0.3,0.6-0.2,0.8-0.1c0.1,0,0.1,0.1,0.2,0.1
		c0,0.1,0.1,0.1,0.1,0.2c0,0.1-0.1,0.2-0.2,0.3c-0.2,0.1-0.3,0-0.5-0.1c0,0-0.1-0.1-0.1-0.1c0,0,0-0.1,0-0.2c0.1-0.1,0.3-0.1,0.4,0
		c0,0,0,0,0,0s0,0,0,0c0,0-0.1,0-0.1-0.1c0,0-0.1,0-0.1,0c0,0-0.1,0-0.1,0.1c0,0,0,0.1,0,0.1c0,0,0.1,0.1,0.1,0.1
		c0.1,0.1,0.2,0.1,0.4,0.1c0.1,0,0.2-0.1,0.2-0.2c0-0.1,0-0.1-0.1-0.2c0,0-0.1-0.1-0.2-0.1c-0.1-0.1-0.2-0.1-0.4-0.1
		c-0.1,0-0.3,0-0.4,0.1c-0.1,0.1,0,0.2,0,0.3c0.1,0.1,0.2,0.2,0.3,0.3c0.1,0.1,0.2,0.1,0.3,0.2c0.1,0,0.2,0.1,0.3,0.1
		c0.1,0,0.2,0,0.2,0C17.7,24.7,17.7,24.7,17.8,24.7C17.8,24.7,17.8,24.7,17.8,24.7"/>
</g>
<g>
	<path fill="#330100" d="M19.9,26.2c0,0-0.3,0.5-0.2,0.7c0.1,0.1,0.9-0.5,0.9-0.5s0.1,0.9,0.3,0.8c0.2-0.1,0.4-0.8,0.4-0.8
		s0.6,0.6,0.8,0.6c0.2-0.1,0.2-0.9,0.2-0.9L19.9,26.2z"/>
	<path fill="#80C242" d="M19.5,23.1c0,0-0.2,1.1-0.1,2c0.1,0.8,0.4,1.2,0.5,1.3c0.1,0.1,0.5,0.4,1.6,0.2c1.1-0.2,1.3-0.7,1.3-0.7
		c0.1-0.1-0.6-0.8-0.8-1.4c-0.2-0.6-0.5-1.4-0.5-1.4L19.5,23.1z"/>
	<path fill="#00722D" d="M19.8,24.9C19.8,24.9,19.8,24.9,19.8,24.9c0.1,0.1,0.1,0.1,0.2,0.1c0.1,0.1,0.3,0.1,0.5,0.1
		c0.1,0,0.2,0,0.3-0.1c0.1,0,0.2-0.1,0.4-0.2c0.1,0,0.1-0.1,0.1-0.2c0-0.1,0.1-0.2,0-0.3c-0.1-0.3-0.5-0.4-0.8-0.3
		c-0.1,0-0.1,0-0.2,0.1c-0.1,0-0.1,0.1-0.2,0.2c0,0,0,0.1,0,0.1c0,0.3,0.4,0.3,0.6,0.2c0.1,0,0.1,0,0.1-0.1c0,0,0.1-0.1,0-0.2
		c-0.1-0.1-0.2-0.1-0.3-0.1c0,0,0,0,0,0s0,0,0,0c0.1,0,0.2,0,0.3,0c0.1,0,0.1,0.1,0.1,0.2c-0.1,0.1-0.3,0.2-0.5,0.1
		c-0.1,0-0.2-0.1-0.2-0.3c0-0.1,0.1-0.1,0.1-0.1c0.1,0,0.1-0.1,0.2-0.1c0.1,0,0.3,0,0.4,0c0.1,0,0.3,0.1,0.3,0.2
		c0.1,0.2-0.1,0.4-0.3,0.4C20.9,25,20.7,25,20.5,25c-0.1,0-0.2,0-0.3,0c-0.1,0-0.2,0-0.2,0C19.9,24.9,19.9,24.9,19.8,24.9
		C19.8,24.9,19.8,24.9,19.8,24.9"/>
</g>
<path fill="#00722D" d="M22.6,19.9c0-0.1,0-0.1-0.1-0.2c-0.1-0.1-0.1-0.2-0.2-0.4c0.1,0.1,0.1,0.2,0.2,0.4c0,0.1,0.1,0.2,0.1,0.3
	c0,0,0,0,0,0c0,0,0,0-0.1,0c-0.1,0-0.2-0.1-0.3-0.1c-0.1-0.1-0.6-0.4-0.6-0.4s0.4,0.6,0.5,0.7c0,0.1,0.1,0.2,0.1,0.3
	c0,0.1,0,0.1,0,0.2c0,0.1-0.2,0-0.3,0c-0.1,0-0.2-0.1-0.3-0.1c-0.2-0.1-0.3-0.2-0.5-0.3c0.1,0.1,0.3,0.3,0.5,0.4
	c0.1,0.1,0.2,0.1,0.3,0.2c0,0,0.1,0,0.1,0.1c0.1,0,0.1,0,0.2,0c0.1,0,0.1-0.1,0.1-0.2c0-0.1,0-0.1,0-0.2c0-0.1-0.1-0.2-0.1-0.3
	c0-0.1-0.1-0.1-0.1-0.2c0,0,0,0,0,0c0.1,0,0.1,0.1,0.2,0.1c0,0,0.1,0,0.1,0c0,0,0,0,0.1,0c0,0,0,0,0.1,0c0,0,0.1-0.1,0.1-0.1
	C22.6,20,22.6,19.9,22.6,19.9z"/>
<path fill="#00722D" d="M16.5,21c-0.2,0.1-0.4,0.2-0.6,0.2c0,0-0.1,0-0.1,0c-0.1,0-0.1-0.1-0.1-0.2c0-0.1,0.1-0.2,0.1-0.3
	c0-0.1,0.1-0.2,0.2-0.3c0.2-0.2,0.7-0.9,0.7-0.9s-0.8,0.4-1,0.5c-0.1,0-0.3,0.1-0.4,0.1c-0.1,0-0.1,0-0.1-0.1c0,0,0-0.1,0-0.1
	c0-0.1,0.1-0.1,0.2-0.2c0.1-0.1,0.2-0.1,0.4-0.2c0.3-0.1,0.5-0.2,0.8-0.3l0.5-0.2L16.5,19c-0.1,0-0.2,0-0.3,0c-0.1,0-0.2,0-0.3-0.1
	c-0.2,0-0.4-0.1-0.6-0.2c-0.1,0-0.2-0.1-0.2-0.2c0-0.1,0.1-0.1,0.1-0.1c0.2-0.1,0.4-0.1,0.6-0.1c0.2,0,0.5,0,0.7,0l0.6,0l-0.6-0.2
	c-0.2-0.1-0.5-0.2-0.7-0.3c-0.1-0.1-0.2-0.1-0.3-0.2c-0.1-0.1-0.2-0.2-0.3-0.3c0-0.1-0.1-0.1,0-0.2c0-0.1,0-0.1,0.1-0.1
	c0.1-0.1,0.2-0.1,0.4-0.1c0.3,0,0.5,0,0.8,0.1C16.2,17.1,16,17,15.7,17c-0.1,0-0.3,0-0.4,0.1c-0.1,0-0.1,0.1-0.1,0.2
	c0,0.1,0,0.2,0,0.2c0.1,0.1,0.2,0.2,0.3,0.3c0.1,0.1,0.2,0.2,0.3,0.2c0.1,0.1,0.2,0.1,0.3,0.2c-0.1,0-0.3,0-0.4,0
	c-0.2,0-0.4,0-0.6,0.1c-0.1,0.1-0.2,0.2-0.2,0.3c0,0.2,0.1,0.3,0.2,0.3c0.2,0.1,0.4,0.2,0.6,0.2c0.1,0,0.2,0,0.3,0.1
	c-0.1,0.1-0.3,0.1-0.4,0.2c-0.1,0.1-0.3,0.1-0.4,0.2c-0.1,0-0.1,0.1-0.2,0.2c-0.1,0.2-0.2,0.4-0.1,0.5c0.2,0.2,0.5,0.1,0.7,0
	c0.1,0,0.2-0.1,0.2-0.1c-0.1,0.1-0.1,0.1-0.2,0.2c-0.1,0.1-0.2,0.3-0.2,0.4c0,0.1-0.1,0.1-0.1,0.2c0,0.2,0.1,0.3,0.3,0.3
	C16.1,21.3,16.4,21.2,16.5,21c0.3-0.1,0.5-0.3,0.7-0.5C17,20.7,16.8,20.9,16.5,21z"/>
<path fill="#00722D" d="M25.9,17.7c0-0.1-0.1-0.1-0.1-0.1c-0.2-0.1-0.4-0.1-0.6-0.1c-0.1,0-0.3,0-0.4,0c-0.3,0-0.6,0.1-0.9,0.1
	c-0.3,0-0.5,0.1-0.8,0.1c0.2-0.1,0.4-0.2,0.6-0.3c0.2-0.1,0.4-0.2,0.5-0.3c0.1-0.1,0.3-0.2,0.4-0.4c0,0,0.1-0.1,0.1-0.1
	c0-0.1-0.1-0.2-0.2-0.2c-0.2-0.1-0.4,0-0.5,0c-0.2,0-0.3,0.1-0.5,0.1c-0.3,0.1-0.5,0.1-0.7,0.2c-0.3,0.1-0.6,0.2-0.9,0.3
	c0.2-0.2,0.4-0.3,0.5-0.5c0.2-0.2,0.3-0.3,0.4-0.5c0.1-0.1,0.2-0.2,0.2-0.4c0-0.1,0-0.2,0-0.2c0-0.1-0.1-0.1-0.2-0.1
	c-0.2,0-0.4,0-0.5,0.1c-0.2,0.1-0.4,0.2-0.6,0.3c-0.4,0.2-0.7,0.5-1.1,0.7c0.4-0.2,0.7-0.5,1.1-0.7c0.2-0.1,0.4-0.2,0.6-0.3
	c0.1,0,0.2-0.1,0.3-0.1c0.1,0,0.2,0,0.3,0c0.1,0.1,0,0.2,0,0.2c0,0.1-0.1,0.2-0.2,0.3c-0.1,0.2-0.3,0.3-0.4,0.5
	c-0.3,0.3-0.6,0.6-1,0.8l-0.6,0.4l0.6-0.3c0.5-0.2,1-0.4,1.4-0.5c0.2-0.1,0.5-0.2,0.7-0.2c0.2-0.1,0.5-0.1,0.7-0.1
	c0.1,0,0.2,0.1-0.1,0.3c-0.2,0.1-0.4,0.3-0.6,0.4c-0.4,0.3-0.9,0.5-1.4,0.7l-1,0.5l1.1-0.2c0.6-0.1,1.1-0.2,1.7-0.3
	c0.3,0,0.6-0.1,0.8-0.1c0.1,0,0.3,0,0.4,0c0.2,0,0.5,0,0.5,0.1c0,0.1-0.2,0.2-0.4,0.2c-0.3,0.1-0.5,0.2-0.8,0.2
	c-0.6,0.1-2.2,0.3-2.2,0.3s1.6,0.1,2.1,0.2c0.3,0,0.5,0.1,0.8,0.1c0.1,0,0.1,0,0.2,0.1c0,0,0.1,0.1,0.1,0.1c0,0,0,0,0,0
	c0,0.1-0.1,0.1-0.2,0.2c-0.2,0.1-0.5,0.2-0.8,0.2c-0.3,0-0.5,0.1-0.8,0.1c-0.5,0.1-0.7,0.1-1.3,0.1c0.5,0,0.7,0,1.3-0.1
	c0.3,0,0.5-0.1,0.8-0.1c0.3,0,0.5-0.1,0.8-0.2c0.1,0,0.2-0.1,0.3-0.2c0,0,0-0.1,0-0.1c0-0.1-0.1-0.2-0.1-0.2
	c-0.1-0.1-0.3-0.1-0.5-0.2c-0.2,0-0.4-0.1-0.5-0.1c-0.1,0-0.3,0-0.4,0c0.2,0,0.3,0,0.5-0.1c0.3-0.1,0.6-0.1,0.8-0.2
	c0.2-0.1,0.4-0.1,0.5-0.3C25.9,17.8,26,17.7,25.9,17.7z"/>
<path fill="#330100" d="M19.9,8.3c0,0,0.2-0.4,0.8-0.8c0.6-0.4,0.9-0.5,1.1-0.3c0.2,0.1,0.3,0.4,0.4,1C22.2,8.7,22,9.4,22,9.4
	L19.9,8.3z"/>
<g>
	<path fill="#F07199" d="M27,10.4c0,0-1-0.1-1.5-0.6c-0.9-0.8-1.7-2.7-1.7-2.7l-0.6,4.1l2.3,2.3c0,0-0.1-0.4,0.3-1.2
		C26.2,11.6,27,10.4,27,10.4z"/>
	<path fill="#80C242" d="M23.8,6.2c0,0,0,1.5-0.1,2.5c-0.1,1-0.7,2.7-0.7,2.7s1.2,1.6,1.8,1.9c0.6,0.3,1.1,0.7,1.1,0.7
		s-0.2-0.5-0.8-1.3c-0.6-0.7-1.6-1.3-1.6-1.3s0.3-0.9,0.5-2.4C24.3,7.5,23.8,6.2,23.8,6.2z"/>
	<path fill="#C2105D" d="M26.2,11.2c0,0-0.1,0-0.4-0.1c-0.2,0-0.5-0.1-0.8-0.1c-0.6-0.1-1.2,0-1.2,0s0.1,0,0.4-0.1
		c0.2,0,0.5-0.1,0.9,0c0.3,0,0.6,0.1,0.8,0.2C26,11.1,26.1,11.1,26.2,11.2C26.2,11.2,26.2,11.2,26.2,11.2z"/>
</g>
<g>
	<path fill="#F07199" d="M10,14c0,0,0.9-0.8,1.1-2c0.2-1.2,0.2-3.2,0.2-3.2l2.5,3.3l-0.9,3.1c0,0-0.1-0.4-0.8-0.9
		C11.4,13.9,10,14,10,14z"/>
	<path fill="#80C242" d="M10.9,8c0,0,0.7,1.3,1.3,2.1c0.6,0.8,1.9,2,1.9,2s-0.3,2-0.7,2.5c-0.4,0.5-0.7,1.1-0.7,1.1
		s-0.1-0.6,0.1-1.5c0.2-1,0.7-2.2,0.7-2.2s-0.6-0.3-1.5-1.5C11.1,9.4,10.9,8,10.9,8z"/>
	<path fill="#C2105D" d="M11.2,13.6C11.2,13.6,11.2,13.5,11.2,13.6c0.1-0.1,0.2-0.2,0.2-0.3c0.2-0.2,0.4-0.4,0.7-0.6
		c0.3-0.2,0.5-0.3,0.8-0.4c0.2-0.1,0.4-0.1,0.4-0.1s-0.6,0.3-1.1,0.6c-0.3,0.2-0.5,0.4-0.7,0.5C11.3,13.4,11.2,13.6,11.2,13.6z"/>
</g>
<g>
	<path fill="#330100" d="M14.4,18.1c0,0-0.1-0.6-0.3-0.7c-0.1,0-0.5,0.3-0.5,0.3s-0.9-0.1-1,0c-0.1,0.1,0.3,0.6,0.3,0.6
		s-0.7,0.3-0.7,0.5c0,0.1,0.5,0.3,0.5,0.3s-0.2,0.6-0.1,0.7c0.1,0.1,0.9-0.2,0.9-0.2L14.4,18.1z"/>
	<path fill="#80C242" d="M17.8,18.2c0,0-1.2,0.8-2.2,0.6c-1-0.2-1.3-1.4-2.2-1c-0.9,0.4-0.8,2.4,0.8,2.8c1.9,0.5,3.3-1.3,3.3-1.3
		L17.8,18.2z"/>
	<path fill="#EEE9D9" d="M16.4,18.8c0.1,0.2,0.1,0.4,0.2,0.5c0.1,0.2,0,0.5,0,0.8c0.6-0.4,0.9-0.8,0.9-0.8l0.2-0.8l0-0.2
		C17.6,18.3,17,18.6,16.4,18.8z"/>
</g>
<g>
	<path fill="#330100" d="M22.9,20.3c0,0-0.1,0.6,0,0.7c0.1,0.1,0.7-0.1,0.7-0.1s0.7,0.5,0.8,0.5c0.1,0,0.2-0.6,0.2-0.6
		s0.6,0,0.7-0.1c0-0.1-0.3-0.6-0.3-0.6s0.5-0.4,0.4-0.5c0-0.1-0.8-0.3-0.8-0.3L22.9,20.3z"/>
	<path fill="#80C242" d="M20.5,18.8c0,0,1,0,1.6,0.6c0.6,0.5,1,1.7,1.9,1.6c0.9-0.1,1.3-1,0.9-1.6c-1.6-2.1-4.5-1.1-4.5-1.1
		L20.5,18.8z"/>
	<path fill="#EEE9D9" d="M21.7,19.2l0.4-1.1c-1,0-1.7,0.2-1.7,0.2l0.1,0.6C20.5,18.8,21.1,18.9,21.7,19.2z"/>
</g>
<g>
	<path fill="#52677D" d="M17.8,17.4c0,0-0.6,1.6-1,2.7c-0.5,1.1-1.2,2.3-1.2,2.3s1,1.1,3.5,1.4c2.5,0.3,3.7-0.4,3.7-0.4
		s-0.7-2.5-1.5-3.9c-0.8-1.4-1.4-2.3-1.4-2.3L17.8,17.4z"/>
	<polygon fill="#EEE9D9" points="17.7,19.7 19.7,19.7 19.7,17.2 18,17.4 	"/>
	<path fill="#EEE9D9" d="M21.4,19.8c0-0.1-0.1-0.2-0.1-0.3c-0.3-0.6-0.7-1.1-0.9-1.5c-0.1,0.3-0.1,0.8,0.1,1.3
		C20.7,20,21.1,19.9,21.4,19.8z"/>
	<path fill="#C8DBD7" d="M19.9,18.5c0.3,0,0.4-0.3,0.4-0.6c-0.3-0.5-0.5-0.7-0.5-0.7l-2,0.2c0,0-0.2,0.4-0.4,1
		c0,0.1,0.1,0.1,0.2,0.1c0.5,0.1,0.9-0.5,0.9-0.5l-0.2,1.1l0.9,0.1l0-1C19.1,18.2,19.3,18.6,19.9,18.5z"/>
	<ellipse fill="#C8DBD7" cx="17.4" cy="20" rx="0.3" ry="0.3"/>
	<ellipse fill="#C8DBD7" cx="20.1" cy="20" rx="0.3" ry="0.3"/>
</g>
<path fill="#80C242" d="M17.8,8.3c-5.5,1.2-4.1,5.1-4.1,5.1s-0.5,4.6,5.4,4c5.9-0.6,4.7-4.9,4.7-4.9S23.3,7.1,17.8,8.3z"/>
<g>
	<path fill="#CD4385" d="M17.6,7.6l-0.1,0.8c0,0-0.1,0.2-0.7,0.1c0,0-0.1-0.4,0-0.8C16.8,7.8,17.3,7.5,17.6,7.6z"/>
	<path fill="#CD4385" d="M17.4,7.7c0,0,0.5-0.7,1.5-1c0.2-0.1,0.5-0.2,0.5,0.3c0,0.5-0.3,1.1-0.4,1.5c-0.2,0.4-0.3,0.4-0.6,0.3
		c-0.3-0.1-1.2-0.4-1.2-0.4L17.4,7.7z"/>
	<path fill="#CD4385" d="M16.8,7.8c0,0-0.2-0.2-0.5-0.4c-0.3-0.2-0.6-0.3-0.8,0c-0.2,0.3,0,1.2,0,1.4c0.1,0.3,0.1,0.5,0.2,0.5
		C15.9,9.2,17,8.4,17,8.4L16.8,7.8z"/>
	<path fill="#8A295D" d="M17,8.7c-0.1,0-0.1,0-0.2,0c0,0,0,0,0,0c0,0-0.1-0.4,0-0.9c0,0,0,0,0,0c0,0,0.6-0.3,0.8-0.1c0,0,0,0,0,0
		l-0.1,0.8c0,0,0,0,0,0C17.5,8.5,17.4,8.7,17,8.7z M16.8,8.6c0.4,0,0.6-0.1,0.6-0.1l0.1-0.8c-0.2-0.1-0.5,0-0.7,0.1
		C16.7,8.1,16.8,8.5,16.8,8.6z"/>
</g>
<g>
	<path fill="#330100" d="M14.8,9.3c-1.3,0-2.3,1.1-2.3,2.4s1,2.4,2.3,2.4c1.3,0,2.3-1.1,2.3-2.4S16.1,9.3,14.8,9.3z M14.8,13.8
		c-1.1,0-2-1-2-2.1c0-1.2,0.9-2.1,2-2.1c1.1,0,2,1,2,2.1C16.8,12.8,15.9,13.8,14.8,13.8z"/>
	<path fill="#330100" d="M17,11.8c0,0,0.1-0.1,0.4-0.1c0.3,0,0.5,0.1,0.5,0.1l0.1,1.1l-1.3-0.1L17,11.8z"/>
	<path fill="#330100" d="M20.1,8.5c-1.5,0-2.7,1.3-2.7,2.8c0,1.6,1.2,2.8,2.7,2.8c1.5,0,2.7-1.3,2.7-2.8C22.8,9.8,21.6,8.5,20.1,8.5
		z M20.1,13.8c-1.3,0-2.4-1.1-2.4-2.5c0-1.4,1.1-2.5,2.4-2.5c1.3,0,2.4,1.1,2.4,2.5C22.5,12.7,21.4,13.8,20.1,13.8z"/>
</g>
<ellipse fill="#FFE88A" cx="14.8" cy="11.7" rx="2" ry="2.1"/>
<ellipse fill="#FFE88A" cx="20.1" cy="11.3" rx="2.4" ry="2.5"/>
<ellipse fill="#330100" cx="15.3" cy="12.3" rx="0.4" ry="0.6"/>
<ellipse fill="#330100" cx="20" cy="12.1" rx="0.5" ry="0.8"/>
<path fill="#80C242" d="M18.4,14.1c0.1,0.8-0.6,1.3-1.6,1.3c-1,0-1.9-0.3-1.9-1.3c0.1-0.8,0.8-1.4,1.9-1.4
	C17.9,12.7,18.3,13.2,18.4,14.1z"/>
<path fill="#00722D" d="M18,13.1c0,0,0,0-0.1-0.1c-0.4-0.2-1-0.2-1.4-0.1c-0.2,0.1-0.7,0.2-0.9,0.4c-0.3,0.3-0.5,0.6-0.6,1
	c0,0.1,0,0.2,0,0.2s0-0.1,0-0.2c0-0.5,0.2-1,0.6-1.3c0.5-0.3,1.1-0.5,1.7-0.4c0.2,0,0.4,0.1,0.6,0.3C17.9,13,18,13.1,18,13.1z"/>
<ellipse fill="#00722D" cx="16.4" cy="14.4" rx="0.3" ry="0.2"/>
<ellipse fill="#00722D" cx="17.8" cy="14.3" rx="0.3" ry="0.3"/>
<g>
	<circle fill="#00722D" cx="21.3" cy="14.4" r="0.1"/>
	<g>
		<path fill="#EEE9D9" d="M16.6,15.6c0,0-0.2,0.8-0.3,0.8c-0.1,0-0.4-0.2-0.6-0.6c-0.2-0.4-0.2-0.5-0.2-0.5L16.6,15.6z"/>
		<path fill="#330100" d="M18.8,15.8c0,0,0.5,0.8,1.5,0.6c1-0.2,0.9-1.8,0.9-1.8l-1.2,0.7l-1,0.3L18.8,15.8z"/>
		<path fill="#C2105D" d="M19.5,16.4c0.2,0.1,0.5,0.1,0.8,0c0.5-0.1,0.7-0.6,0.8-1c-0.2,0-0.6,0-1,0.3
			C19.7,15.9,19.6,16.2,19.5,16.4z"/>
		<path fill="#EEE9D9" d="M18.3,15.7c0,0,0.2,0.8,0.3,0.8c0.1,0,0.4-0.2,0.6-0.6c0.2-0.4,0.2-0.5,0.2-0.5L18.3,15.7z"/>
		<path fill="#00722D" d="M15.5,15.2c0,0,0.1,0,0.3,0.1c1,0.3,2.2,0.3,3.2,0.1c0.7-0.1,1.6-0.4,2.2-0.8c0.1-0.1,0.2-0.2,0.2-0.2
			s-0.1,0.1-0.2,0.2c-0.1,0.1-0.3,0.3-0.6,0.4c-0.9,0.5-2,0.8-3.1,0.7c-0.6,0-1.2-0.2-1.8-0.4C15.6,15.3,15.5,15.2,15.5,15.2z"/>
		<path fill="#EEE9D9" d="M20.7,15.6l0.1,0.4c0.1-0.1,0.2-0.3,0.3-0.5C20.9,15.6,20.7,15.6,20.7,15.6z"/>
	</g>
</g>
</svg>
