<?xml version="1.0" encoding="utf-8"?>
<!-- Generator: Adobe Illustrator 19.2.0, SVG Export Plug-In . SVG Version: 6.00 Build 0)  -->
<!DOCTYPE svg PUBLIC "-//W3C//DTD SVG 1.1//EN" "http://www.w3.org/Graphics/SVG/1.1/DTD/svg11.dtd">
<svg version="1.1" xmlns="http://www.w3.org/2000/svg" xmlns:xlink="http://www.w3.org/1999/xlink" x="0px" y="0px"
	 viewBox="0 0 240.7 348.7" enable-background="new 0 0 240.7 348.7" xml:space="preserve" width="240.7" height="348.7" preserveAspectRatio="none">
<g id="Shadow">
</g>
<g id="body">
	<path fill="#BBBBBB" d="M117.2,257.4c0,0-8.4-3.6-32.4-4.6c-24-1-40.7,3.6-40.7,3.6l2.1-38.6l66.5,0.7L117.2,257.4z"/>
	<path fill="#BBBBBB" d="M71.1,324.7c-2.1,0-4.2,0-6.3,0c1.7-27.1,1.7-54.3,0-81.4c2.1,0,4.2,0,6.3,0
		C69.4,270.5,69.4,297.6,71.1,324.7z"/>
	<ellipse fill="#BBBBBB" cx="68" cy="278.3" rx="5.2" ry="6"/>
	<path fill="#BBBBBB" d="M68,272.3c-2.1,0-4,1.5-4.8,3.7c0.8,2.1,2.6,3.7,4.8,3.7c2.1,0,4-1.5,4.8-3.7C72,273.8,70.2,272.3,68,272.3
		z"/>
	<path fill="#BBBBBB" d="M75.5,328.4c0,0-6-8.4-23.7-8.4s-31.7,15.3-31.7,15.3s17.1,1.8,32.6,0C68.4,333.5,75.5,328.4,75.5,328.4z"
		/>
	<ellipse fill="#BBBBBB" cx="69.5" cy="322" rx="3" ry="4.6"/>
	<g>
		<defs>
			<path id="SVGID_19_" d="M71.1,324.7c-2.1,0-4.2,0-6.3,0c1.7-27.1,1.7-54.3,0-81.4c2.1,0,4.2,0,6.3,0
				C69.4,270.5,69.4,297.6,71.1,324.7z"/>
		</defs>
		<clipPath id="SVGID_2_">
			<use xlink:href="#SVGID_19_"  overflow="visible"/>
		</clipPath>
		<polyline clip-path="url(#SVGID_2_)" fill="none" stroke="#BBBBBB" stroke-miterlimit="10" points="60.8,294.1 76.4,296.3 
			75.9,305.8 58.2,304.5 		"/>
		<polyline clip-path="url(#SVGID_2_)" fill="none" stroke="#BBBBBB" stroke-miterlimit="10" points="72.5,265.1 56.9,263.7 
			57.4,258 75,258.8 		"/>
	</g>
	<g>
		<defs>
			<path id="SVGID_21_" d="M75.5,328.4c0,0-6-8.4-23.7-8.4s-31.7,15.3-31.7,15.3s17.1,1.8,32.6,0C68.4,333.5,75.5,328.4,75.5,328.4z
				"/>
		</defs>
		<clipPath id="SVGID_4_">
			<use xlink:href="#SVGID_21_"  overflow="visible"/>
		</clipPath>
		<path clip-path="url(#SVGID_4_)" fill="none" stroke="#BBBBBB" stroke-miterlimit="10" d="M43,318.3c0,0,3.5,2,7,7.2
			c3.5,5.2,4.4,13.1,4.4,13.1"/>
		<path clip-path="url(#SVGID_4_)" fill="none" stroke="#BBBBBB" stroke-miterlimit="10" d="M31.7,321.3c0,0,3.5,2,7,7.2
			c3.5,5.2,4.4,13.1,4.4,13.1"/>
	</g>
	<path fill="#BBBBBB" d="M93.5,279.6c-1-11.1-2.3-22.2-3.9-33.3l6.3-0.5c0.2,11.2,0.7,22.4,1.5,33.5
		C96.1,279.4,94.8,279.5,93.5,279.6z"/>
	<path fill="#BBBBBB" d="M95.1,282.4c1.2,0.3,2.5,0.5,3.7,0.8c-3.3,14.6-6,29.3-8.3,44.1l-6.1-1.3C88.5,311.6,92.1,297,95.1,282.4z"
		/>
	
		<ellipse transform="matrix(0.9989 -4.605783e-002 4.605783e-002 0.9989 -12.8182 4.717)" fill="#BBBBBB" cx="96" cy="280.5" rx="5.2" ry="6"/>
	<path fill="#BBBBBB" d="M95.7,274.5c2.1-0.1,4,1.3,4.9,3.4c-0.7,2.2-2.5,3.8-4.6,3.9c-2.1,0.1-4-1.3-4.9-3.4
		C91.8,276.2,93.5,274.6,95.7,274.5z"/>
	
		<ellipse transform="matrix(0.9989 -4.601328e-002 4.601328e-002 0.9989 -11.0249 4.5937)" fill="#BBBBBB" cx="94.3" cy="241.8" rx="7.3" ry="11.3"/>
	<ellipse fill="#BBBBBB" cx="67.3" cy="239.2" rx="7.3" ry="11.3"/>
	<path fill="#BBBBBB" d="M57.9,243.4c0,1.8,1.5,3.3,3.3,3.3h37.4c1.8,0,3.3-1.5,3.3-3.3V235c0-1.8-1.5-3.3-3.3-3.3H61.2
		c-1.8,0-3.3,1.5-3.3,3.3V243.4z"/>
	<polygon fill="#BBBBBB" points="75.3,240.8 85.7,240.8 87.6,225.7 73.7,225.7 	"/>
	<path fill="#BBBBBB" d="M98.9,219.6l-0.9,11.9c0,0-6.4,4-17.9,4.3c-12.5,0.3-18.8-3.6-18.8-3.6l0.9-14.3L98.9,219.6z"/>
	<path fill="#BBBBBB" d="M109.1,203.7l-1.3,18.4c0,0-9.9,6.2-27.6,6.6c-19.3,0.4-28.9-5.6-28.9-5.6l1.4-22L109.1,203.7z"/>
	<path fill="#BBBBBB" d="M118.1,159l10.1,11.6l-7.2,36.9c0,0-13.1,13.1-39.4,13.1c-32.8,0-43.6-13.6-43.6-13.6L31,169.1L45.3,158
		L118.1,159z"/>
	<path fill="#BBBBBB" d="M81.9,214.1c21,0,34.4-7,40-10.8l-0.8,4.2c0,0-13.1,13.1-39.4,13.1c-32.8,0-43.6-13.6-43.6-13.6l-0.7-3.8
		C42.9,207.2,56.2,214.1,81.9,214.1z"/>
	<path fill="#BBBBBB" d="M118,150.5l3,14.1c0,0-11.9,12.5-41.2,12.5c-29.2,0-40.6-10.7-40.6-10.7l3.6-15.9H118z"/>
	<ellipse fill="#BBBBBB" cx="80.5" cy="150.5" rx="33.4" ry="9.8"/>
	<rect x="75.1" y="124.6" fill="#BBBBBB" width="13.7" height="35.4"/>
	<path fill="#BBBBBB" d="M42.9,150.5c0,6.1,16.8,11.1,37.6,11.1c20.7,0,37.6-5,37.6-11.1c0-6.1-16.8-11.1-37.6-11.1
		C59.7,139.4,42.9,144.4,42.9,150.5z M51,150.5c0-4.8,13.2-8.7,29.4-8.7s29.4,3.9,29.4,8.7c0,4.8-13.2,7.7-29.4,7.7
		S51,155.3,51,150.5z"/>
	<circle fill="#BBBBBB" cx="79.3" cy="196" r="14.9"/>
	<path fill="#BBBBBB" d="M39.9,192c25.9,8.9,54,8.9,79.9,0c0-1,0-2,0-3c-25.9,8.9-54,8.9-79.9,0C39.9,190,39.9,191,39.9,192z"/>
	<circle fill="#BBBBBB" cx="79.3" cy="196" r="11.3"/>
	<circle fill="#BBBBBB" cx="79.3" cy="196" r="8.7"/>
	<circle fill="#BBBBBB" cx="79.3" cy="196" r="3.8"/>
	<circle fill="#BBBBBB" cx="79.3" cy="196" r="2.6"/>
	<line fill="none" stroke="#BBBBBB" stroke-width="2" stroke-miterlimit="10" x1="105.7" y1="156.8" x2="107.5" y2="173.8"/>
	<line fill="none" stroke="#BBBBBB" stroke-width="2" stroke-miterlimit="10" x1="88.5" y1="160.7" x2="89.4" y2="177.8"/>
	<line fill="none" stroke="#BBBBBB" stroke-width="2" stroke-miterlimit="10" x1="50.1" y1="156.8" x2="48.3" y2="173.8"/>
	<line fill="none" stroke="#BBBBBB" stroke-width="2" stroke-miterlimit="10" x1="69.3" y1="159.8" x2="68.4" y2="177.1"/>
	<path fill="#BBBBBB" d="M88.8,182.7c1.1,0.7,1.4,2.2,0.7,3.2l-2.1,3.2l-3.9-2.6l2.1-3.2C86.3,182.3,87.7,182,88.8,182.7z"/>
	
		<ellipse transform="matrix(0.545 -0.8384 0.8384 0.545 -115.1191 157.4115)" fill="#BBBBBB" cx="87.5" cy="184.8" rx="1.2" ry="1.2"/>
	<path fill="#BBBBBB" d="M70,182.7c-1.1,0.7-1.4,2.2-0.7,3.2l2.1,3.2l3.9-2.6l-2.1-3.2C72.5,182.3,71,182,70,182.7z"/>
	
		<ellipse transform="matrix(0.8384 -0.545 0.545 0.8384 -89.1869 68.7251)" fill="#BBBBBB" cx="71.3" cy="184.8" rx="1.2" ry="1.2"/>
	<path fill="#BBBBBB" d="M88.8,209.2c1.1-0.7,1.4-2.2,0.7-3.2l-2.1-3.2l-3.9,2.6l2.1,3.2C86.3,209.6,87.7,209.9,88.8,209.2z"/>
	
		<ellipse transform="matrix(0.8384 -0.545 0.545 0.8384 -98.7635 81.1419)" fill="#BBBBBB" cx="87.5" cy="207.2" rx="1.2" ry="1.2"/>
	<path fill="#BBBBBB" d="M70,209.2c-1.1-0.7-1.4-2.2-0.7-3.2l2.1-3.2l3.9,2.6l-2.1,3.2C72.5,209.6,71,209.9,70,209.2z"/>
	
		<ellipse transform="matrix(0.545 -0.8384 0.8384 0.545 -141.2365 154.0403)" fill="#BBBBBB" cx="71.3" cy="207.2" rx="1.2" ry="1.2"/>
	<path fill="none" stroke="#BBBBBB" stroke-width="2" stroke-miterlimit="10" d="M92.7,148.9c0,0-3.2,2.6-11.3,2.6
		c-8.1,0-12.9-2.6-12.9-2.6"/>
	<path fill="#BBBBBB" d="M78.6,327.6c0,0,6-8.4,23.6-8.4c17.7,0,31.7,15.2,31.7,15.2s-17.1,1.8-32.6,0
		C85.7,332.7,78.6,327.6,78.6,327.6z"/>
	
		<ellipse transform="matrix(0.2115 -0.9774 0.9774 0.2115 -248.1207 339.7962)" fill="#BBBBBB" cx="86.5" cy="323.7" rx="4.6" ry="3"/>
	<g>
		<defs>
			<path id="SVGID_23_" d="M96.2,327.4c2.1-0.2,4.2-0.3,6.3-0.5c-3.9-26.9-6.1-54-6.6-81.1c-2.1,0.2-4.2,0.3-6.3,0.5
				C93.5,273.2,95.7,300.3,96.2,327.4z"/>
		</defs>
		<clipPath id="SVGID_6_">
			<use xlink:href="#SVGID_23_"  overflow="visible"/>
		</clipPath>
		<polyline clip-path="url(#SVGID_6_)" fill="none" stroke="#BBBBBB" stroke-miterlimit="10" points="89.9,268 105.4,265.5 
			104.4,259.8 86.9,262 		"/>
	</g>
	<g>
		<defs>
			<path id="SVGID_25_" d="M78.6,327.6c0,0,6-8.4,23.6-8.4c17.7,0,31.7,15.2,31.7,15.2s-17.1,1.8-32.6,0
				C85.7,332.7,78.6,327.6,78.6,327.6z"/>
		</defs>
		<clipPath id="SVGID_8_">
			<use xlink:href="#SVGID_25_"  overflow="visible"/>
		</clipPath>
		<path clip-path="url(#SVGID_8_)" fill="none" stroke="#BBBBBB" stroke-miterlimit="10" d="M111.1,317.5c0,0-3.5,2-7,7.2
			c-3.5,5.2-4.4,13.1-4.4,13.1"/>
		<path clip-path="url(#SVGID_8_)" fill="none" stroke="#BBBBBB" stroke-miterlimit="10" d="M122.4,320.5c0,0-3.5,2-7,7.2
			c-3.5,5.2-4.4,13.1-4.4,13.1"/>
	</g>
	<path fill="#BBBBBB" d="M79.7,145.1c-1.5-0.2-3.1-0.4-4.6-0.6v-20h13.7v20.2C85.8,144.8,82.7,144.9,79.7,145.1z"/>
	<g>
		<defs>
			<path id="SVGID_27_" d="M95.1,282.4c1.2,0.3,2.5,0.5,3.7,0.8c-3.3,14.6-6,29.3-8.3,44.1l-6.1-1.3C88.5,311.6,92.1,297,95.1,282.4
				z"/>
		</defs>
		<clipPath id="SVGID_10_">
			<use xlink:href="#SVGID_27_"  overflow="visible"/>
		</clipPath>
		<polyline clip-path="url(#SVGID_10_)" fill="none" stroke="#BBBBBB" stroke-miterlimit="10" points="101,298.2 85.3,297 
			83.7,306.5 101.2,308.9 		"/>
	</g>
</g>
<g id="arms">
	<polygon fill="#BBBBBB" points="207,173.5 219.6,172.6 230,166.4 231.8,169.3 221.1,174.9 207.6,174.9 	"/>
	<polygon fill="#BBBBBB" points="209.8,178.6 222.4,177.6 232.8,171.5 234.6,174.3 223.9,179.9 210.4,180 	"/>
	<polygon fill="#BBBBBB" points="209.7,181.9 222.2,183.4 233.6,179.4 234.8,182.5 223.2,185.9 210,183.4 	"/>
	<polygon fill="#BBBBBB" points="204.8,174.6 202.4,163.8 207.1,156.9 210,159.4 205.1,163.7 206.7,172.5 	"/>
	<ellipse transform="matrix(0.9193 -0.3936 0.3936 0.9193 -54.3135 95.2109)" fill="#BBBBBB" cx="205" cy="180" rx="9.9" ry="9.9"/>
	<path fill="#BBBBBB" d="M192.2,178.1c0,0,5.7,1.3,8.9,9.6s5.1,20.4,5.1,20.4l-45.2,14l-26.1-27.4l0.6-24.8c0,0,1.9,0,8.9,2.5
		c7,2.5,23.6,17.2,23.6,17.2L192.2,178.1z"/>
	<g>
		<defs>
			<path id="SVGID_37_" d="M192.2,178.1c0,0,5.7,1.3,8.9,9.6s5.1,20.4,5.1,20.4l-45.2,14l-26.1-27.4l0.6-24.8c0,0,1.9,0,8.9,2.5
				c7,2.5,23.6,17.2,23.6,17.2L192.2,178.1z"/>
		</defs>
		<clipPath id="SVGID_12_">
			<use xlink:href="#SVGID_37_"  overflow="visible"/>
		</clipPath>
		<g clip-path="url(#SVGID_12_)">
			<polyline fill="none" stroke="#BBBBBB" stroke-miterlimit="10" points="203.5,183.6 165.5,200.4 132.4,171.7 128.5,186.4 
				164.2,213.1 212,195.9 			"/>
			<path fill="none" stroke="#BBBBBB" stroke-miterlimit="10" d="M181.4,174.9c0,0,8.9,7.6,13.4,21c4.5,13.4,0.6,23.6,0.6,23.6"/>
			<path fill="none" stroke="#BBBBBB" stroke-miterlimit="10" d="M170.1,176.9c0,0,7,9.5,8.3,23.5c1.3,14-4.7,23.1-4.7,23.1"/>
			<path fill="none" stroke="#BBBBBB" stroke-miterlimit="10" d="M164.6,231.1c0,0-2.3-9.6-0.9-23.7c1.4-14,6.4-22.7,6.4-22.7"/>
			<path fill="none" stroke="#BBBBBB" stroke-miterlimit="10" d="M142.5,215c0,0,1.5-9.8,8.1-22.3c6.6-12.5,14.5-18.6,14.5-18.6"/>
			<path fill="none" stroke="#BBBBBB" stroke-miterlimit="10" d="M131.7,208.6c0,0,1.5-9.8,8.1-22.3c6.6-12.5,14.5-18.6,14.5-18.6"
				/>
		</g>
	</g>
</g>
<g id="jacket">
	<path fill="#BBBBBB" d="M117.9,155.8c0,0-10.7,19-14.8,42.2c-4.1,23.2-2.4,67.2-2.4,67.2s1.7,1.9,18.1-0.5
		c13.6-2,17.5-4.5,17.5-4.5l1.2-89.6L117.9,155.8z"/>
	<g>
		<defs>
			<path id="SVGID_55_" d="M117.9,155.8c0,0-10.7,19-14.8,42.2c-4.1,23.2-2.4,67.2-2.4,67.2s1.7,1.9,18.1-0.5
				c13.6-2,17.5-4.5,17.5-4.5l1.2-89.6L117.9,155.8z"/>
		</defs>
		<clipPath id="SVGID_14_">
			<use xlink:href="#SVGID_55_"  overflow="visible"/>
		</clipPath>
		<g clip-path="url(#SVGID_14_)">
			<g>
				<path fill="none" stroke="#BBBBBB" stroke-width="0.9527" stroke-miterlimit="10" d="M92.4,267.3c0,0,6.2,2.9,21.5,1.3
					c15.3-1.6,22.7-7.4,22.7-7.4"/>
				<path fill="none" stroke="#BBBBBB" stroke-width="0.9527" stroke-miterlimit="10" d="M93.2,253.2c0,0,6.9,3.2,21.7,2.5
					c14.8-0.6,22.1-5.1,22.1-5.1"/>
				<path fill="none" stroke="#BBBBBB" stroke-width="0.9527" stroke-miterlimit="10" d="M94,239c0,0,7.7,3.4,21.9,3.8
					c14.3,0.4,21.5-2.8,21.5-2.8"/>
				<path fill="none" stroke="#BBBBBB" stroke-width="0.9527" stroke-miterlimit="10" d="M94.8,224.9c0,0,8.4,3.7,22.1,5
					c13.8,1.3,20.8-0.5,20.8-0.5"/>
				<path fill="none" stroke="#BBBBBB" stroke-width="0.9527" stroke-miterlimit="10" d="M95.6,210.8c0,0,9.1,4,22.3,6.3
					c13.3,2.3,20.2,1.8,20.2,1.8"/>
				<path fill="none" stroke="#BBBBBB" stroke-width="0.9527" stroke-miterlimit="10" d="M96.4,196.7c0,0,9.8,4.2,22.5,7.5
					c12.7,3.3,19.5,4.1,19.5,4.1"/>
				<path fill="none" stroke="#BBBBBB" stroke-width="0.9527" stroke-miterlimit="10" d="M97.2,182.6c0,0,10.5,4.5,22.7,8.8
					c12.2,4.3,18.9,6.4,18.9,6.4"/>
				<path fill="none" stroke="#BBBBBB" stroke-width="0.9527" stroke-miterlimit="10" d="M98,168.5c0,0,11.2,4.8,22.9,10
					c11.7,5.3,18.3,8.7,18.3,8.7"/>
				<path fill="none" stroke="#BBBBBB" stroke-width="0.9527" stroke-miterlimit="10" d="M98.8,154.3c0,0,11.9,5,23.1,11.3
					c11.2,6.2,17.6,11,17.6,11"/>
				<path fill="none" stroke="#BBBBBB" stroke-width="0.9527" stroke-miterlimit="10" d="M140,166c0,0-6.3-6.1-17-13.3
					c-10.7-7.2-23.3-12.5-23.3-12.5"/>
			</g>
			<g>
				
					<line fill="none" stroke="#BBBBBB" stroke-width="0.9527" stroke-miterlimit="10" x1="145.5" y1="153.5" x2="145.5" y2="262.1"/>
				<path fill="none" stroke="#BBBBBB" stroke-width="0.9527" stroke-miterlimit="10" d="M137.4,150.5c0,0-1.9,54.8-1.8,61
					c0.1,6.2,0.9,52.8,0.9,52.8"/>
				<path fill="none" stroke="#BBBBBB" stroke-width="0.9527" stroke-miterlimit="10" d="M129.3,147.4c0,0-3.8,51.4-3.7,63.8
					c0.1,12.4,1.7,55.3,1.7,55.3"/>
				<path fill="none" stroke="#BBBBBB" stroke-width="0.9527" stroke-miterlimit="10" d="M121.2,144.4c0,0-5.7,47.9-5.5,66.5
					c0.2,18.6,2.6,57.8,2.6,57.8"/>
				<path fill="none" stroke="#BBBBBB" stroke-width="0.9527" stroke-miterlimit="10" d="M113.1,141.4c0,0-7.6,44.5-7.4,69.3
					c0.2,24.8,3.4,60.3,3.4,60.3"/>
				<path fill="none" stroke="#BBBBBB" stroke-width="0.9527" stroke-miterlimit="10" d="M105,138.3c0,0-9.5,41-9.2,72.1
					c0.3,31,4.3,62.8,4.3,62.8"/>
				<path fill="none" stroke="#BBBBBB" stroke-width="0.9527" stroke-miterlimit="10" d="M96.9,135.3c0,0-11.4,37.6-11,74.8
					c0.3,37.2,5.2,65.3,5.2,65.3"/>
			</g>
		</g>
	</g>
	<path fill="#BBBBBB" d="M117.2,148.2l6.9,3.4l9.3,42.9l-22.4-1.9l14.8,13.7c0,0-4.5,3.8-12.1,14.1c-7.6,10.3-14.5,29.6-14.5,29.6
		s2.4-61.4,5.5-73.7C108.6,161.5,117.2,148.2,117.2,148.2z"/>
	<g>
		<defs>
			<path id="SVGID_57_" d="M117.2,148.2l6.9,3.4l9.3,42.9l-22.4-1.9l14.8,13.7c0,0-4.5,3.8-12.1,14.1c-7.6,10.3-14.5,29.6-14.5,29.6
				s2.4-61.4,5.5-73.7C108.6,161.5,117.2,148.2,117.2,148.2z"/>
		</defs>
		<clipPath id="SVGID_16_">
			<use xlink:href="#SVGID_57_"  overflow="visible"/>
		</clipPath>
		<g clip-path="url(#SVGID_16_)">
			<g>
				<line fill="none" stroke="#BBBBBB" stroke-width="0.9527" stroke-miterlimit="10" x1="126.9" y1="144.8" x2="111" y2="273.5"/>
				<line fill="none" stroke="#BBBBBB" stroke-width="0.9527" stroke-miterlimit="10" x1="118.8" y1="145.2" x2="103" y2="273.9"/>
				<line fill="none" stroke="#BBBBBB" stroke-width="0.9527" stroke-miterlimit="10" x1="110.8" y1="145.5" x2="94.9" y2="274.3"/>
				<line fill="none" stroke="#BBBBBB" stroke-width="0.9527" stroke-miterlimit="10" x1="102.7" y1="145.9" x2="86.9" y2="274.6"/>
			</g>
			<g>
				<line fill="none" stroke="#BBBBBB" stroke-width="0.9527" stroke-miterlimit="10" x1="146.2" y1="159.2" x2="93.8" y2="146.7"/>
				<line fill="none" stroke="#BBBBBB" stroke-width="0.9527" stroke-miterlimit="10" x1="143.9" y1="172.8" x2="91.5" y2="160.3"/>
				<line fill="none" stroke="#BBBBBB" stroke-width="0.9527" stroke-miterlimit="10" x1="141.6" y1="186.4" x2="89.3" y2="173.9"/>
				<line fill="none" stroke="#BBBBBB" stroke-width="0.9527" stroke-miterlimit="10" x1="139.4" y1="200.1" x2="87" y2="187.5"/>
				<line fill="none" stroke="#BBBBBB" stroke-width="0.9527" stroke-miterlimit="10" x1="137.1" y1="213.7" x2="84.7" y2="201.1"/>
				<line fill="none" stroke="#BBBBBB" stroke-width="0.9527" stroke-miterlimit="10" x1="134.9" y1="227.3" x2="82.5" y2="214.8"/>
				<line fill="none" stroke="#BBBBBB" stroke-width="0.9527" stroke-miterlimit="10" x1="132.6" y1="240.9" x2="80.2" y2="228.4"/>
				<line fill="none" stroke="#BBBBBB" stroke-width="0.9527" stroke-miterlimit="10" x1="130.3" y1="254.5" x2="77.9" y2="242"/>
			</g>
		</g>
	</g>
	<path fill="#BBBBBB" d="M111.3,218.1c4.4-5.9,7.7-9.7,9.9-12l-13.6-12.8c0.5-0.6,0.8-3.7,1.3-4.3l20.5,1.6l-8.3-40.6l3,1.5
		l9.3,42.9l-22.4-1.9l14.8,13.7c0,0-4.5,3.8-12.1,14.1c-7.6,10.3-14.5,29.6-14.5,29.6s0.1-3.3,0.2-8.6
		C102.9,233.1,107.3,223.5,111.3,218.1z"/>
	<path fill="#BBBBBB" d="M133.1,223.8l-20.3,4.2l0.3,10.6c0,0,2.4-1.1,6.5-1.1c4.1,0,5.5,4.2,5.5,4.2s0.7-4.2,3.8-6.5
		c3.1-2.3,4.8-1.9,4.8-1.9L133.1,223.8z"/>
	<path fill="none" stroke="#BBBBBB" stroke-width="1.9054" stroke-miterlimit="10" d="M112.7,227.9l0.3,10.6c0,0,2.4-1.1,6.5-1.1
		c4.1,0,5.5,4.2,5.5,4.2s0.7-4.2,3.8-6.5c3.1-2.3,4.8-1.9,4.8-1.9l-0.7-9.5"/>
	<path fill="#BBBBBB" d="M43,155.8c0,0,10.7,19,14.8,42.2c4.1,23.2,2.4,67.2,2.4,67.2s-1.7,1.9-18.1-0.5c-13.6-2-17.5-4.5-17.5-4.5
		l-1.2-89.6L43,155.8z"/>
	<g>
		<defs>
			<path id="SVGID_59_" d="M43,155.8c0,0,10.7,19,14.8,42.2c4.1,23.2,2.4,67.2,2.4,67.2s-1.7,1.9-18.1-0.5
				c-13.6-2-17.5-4.5-17.5-4.5l-1.2-89.6L43,155.8z"/>
		</defs>
		<clipPath id="SVGID_18_">
			<use xlink:href="#SVGID_59_"  overflow="visible"/>
		</clipPath>
		<g clip-path="url(#SVGID_18_)">
			<g>
				<path fill="none" stroke="#BBBBBB" stroke-width="0.9527" stroke-miterlimit="10" d="M68.6,267.3c0,0-6.2,2.9-21.5,1.3
					c-15.3-1.6-22.7-7.4-22.7-7.4"/>
				<path fill="none" stroke="#BBBBBB" stroke-width="0.9527" stroke-miterlimit="10" d="M67.7,253.2c0,0-6.9,3.2-21.7,2.5
					c-14.8-0.6-22.1-5.1-22.1-5.1"/>
				<path fill="none" stroke="#BBBBBB" stroke-width="0.9527" stroke-miterlimit="10" d="M66.9,239c0,0-7.7,3.4-21.9,3.8
					c-14.3,0.4-21.5-2.8-21.5-2.8"/>
				<path fill="none" stroke="#BBBBBB" stroke-width="0.9527" stroke-miterlimit="10" d="M66.1,224.9c0,0-8.4,3.7-22.1,5
					c-13.8,1.3-20.8-0.5-20.8-0.5"/>
				<path fill="none" stroke="#BBBBBB" stroke-width="0.9527" stroke-miterlimit="10" d="M65.3,210.8c0,0-9.1,4-22.3,6.3
					c-13.3,2.3-20.2,1.8-20.2,1.8"/>
				<path fill="none" stroke="#BBBBBB" stroke-width="0.9527" stroke-miterlimit="10" d="M64.5,196.7c0,0-9.8,4.2-22.5,7.5
					c-12.7,3.3-19.5,4.1-19.5,4.1"/>
				<path fill="none" stroke="#BBBBBB" stroke-width="0.9527" stroke-miterlimit="10" d="M63.7,182.6c0,0-10.5,4.5-22.7,8.8
					c-12.2,4.3-18.9,6.4-18.9,6.4"/>
				<path fill="none" stroke="#BBBBBB" stroke-width="0.9527" stroke-miterlimit="10" d="M62.9,168.5c0,0-11.2,4.8-22.9,10
					c-11.7,5.3-18.3,8.7-18.3,8.7"/>
				<path fill="none" stroke="#BBBBBB" stroke-width="0.9527" stroke-miterlimit="10" d="M62.1,154.3c0,0-11.9,5-23.1,11.3
					c-11.2,6.2-17.6,11-17.6,11"/>
				<path fill="none" stroke="#BBBBBB" stroke-width="0.9527" stroke-miterlimit="10" d="M20.9,166c0,0,6.3-6.1,17-13.3
					c10.7-7.2,23.3-12.5,23.3-12.5"/>
			</g>
			<g>
				<line fill="none" stroke="#BBBBBB" stroke-width="0.9527" stroke-miterlimit="10" x1="15.4" y1="153.5" x2="15.4" y2="262.1"/>
				<path fill="none" stroke="#BBBBBB" stroke-width="0.9527" stroke-miterlimit="10" d="M23.5,150.5c0,0,1.9,54.8,1.8,61
					c-0.1,6.2-0.9,52.8-0.9,52.8"/>
				<path fill="none" stroke="#BBBBBB" stroke-width="0.9527" stroke-miterlimit="10" d="M31.6,147.4c0,0,3.8,51.4,3.7,63.8
					c-0.1,12.4-1.7,55.3-1.7,55.3"/>
				<path fill="none" stroke="#BBBBBB" stroke-width="0.9527" stroke-miterlimit="10" d="M39.7,144.4c0,0,5.7,47.9,5.5,66.5
					c-0.2,18.6-2.6,57.8-2.6,57.8"/>
				<path fill="none" stroke="#BBBBBB" stroke-width="0.9527" stroke-miterlimit="10" d="M47.8,141.4c0,0,7.6,44.5,7.4,69.3
					c-0.2,24.8-3.4,60.3-3.4,60.3"/>
				<path fill="none" stroke="#BBBBBB" stroke-width="0.9527" stroke-miterlimit="10" d="M55.9,138.3c0,0,9.5,41,9.2,72.1
					c-0.3,31-4.3,62.8-4.3,62.8"/>
				<path fill="none" stroke="#BBBBBB" stroke-width="0.9527" stroke-miterlimit="10" d="M64,135.3c0,0,11.4,37.6,11,74.8
					c-0.3,37.2-5.2,65.3-5.2,65.3"/>
			</g>
		</g>
	</g>
	<path fill="#BBBBBB" d="M43.7,148.2l-6.9,3.4l-9.3,42.9l22.4-1.9l-14.8,13.7c0,0,4.5,3.8,12.1,14.1c7.6,10.3,14.5,29.6,14.5,29.6
		s-2.4-61.4-5.5-73.7C52.3,161.5,43.7,148.2,43.7,148.2z"/>
	<g>
		<defs>
			<path id="SVGID_61_" d="M43.7,148.2l-6.9,3.4l-9.3,42.9l22.4-1.9l-14.8,13.7c0,0,4.5,3.8,12.1,14.1c7.6,10.3,14.5,29.6,14.5,29.6
				s-2.4-61.4-5.5-73.7C52.3,161.5,43.7,148.2,43.7,148.2z"/>
		</defs>
		<clipPath id="SVGID_20_">
			<use xlink:href="#SVGID_61_"  overflow="visible"/>
		</clipPath>
		<g clip-path="url(#SVGID_20_)">
			<g>
				<line fill="none" stroke="#BBBBBB" stroke-width="0.9527" stroke-miterlimit="10" x1="34" y1="144.8" x2="49.9" y2="273.5"/>
				<line fill="none" stroke="#BBBBBB" stroke-width="0.9527" stroke-miterlimit="10" x1="42.1" y1="145.2" x2="57.9" y2="273.9"/>
				<line fill="none" stroke="#BBBBBB" stroke-width="0.9527" stroke-miterlimit="10" x1="50.1" y1="145.5" x2="66" y2="274.3"/>
				<line fill="none" stroke="#BBBBBB" stroke-width="0.9527" stroke-miterlimit="10" x1="58.2" y1="145.9" x2="74" y2="274.6"/>
			</g>
			<g>
				<line fill="none" stroke="#BBBBBB" stroke-width="0.9527" stroke-miterlimit="10" x1="14.7" y1="159.2" x2="67.1" y2="146.7"/>
				<line fill="none" stroke="#BBBBBB" stroke-width="0.9527" stroke-miterlimit="10" x1="17" y1="172.8" x2="69.4" y2="160.3"/>
				<line fill="none" stroke="#BBBBBB" stroke-width="0.9527" stroke-miterlimit="10" x1="19.3" y1="186.4" x2="71.7" y2="173.9"/>
				<line fill="none" stroke="#BBBBBB" stroke-width="0.9527" stroke-miterlimit="10" x1="21.5" y1="200.1" x2="73.9" y2="187.5"/>
				<line fill="none" stroke="#BBBBBB" stroke-width="0.9527" stroke-miterlimit="10" x1="23.8" y1="213.7" x2="76.2" y2="201.1"/>
				<line fill="none" stroke="#BBBBBB" stroke-width="0.9527" stroke-miterlimit="10" x1="26.1" y1="227.3" x2="78.4" y2="214.8"/>
				<line fill="none" stroke="#BBBBBB" stroke-width="0.9527" stroke-miterlimit="10" x1="28.3" y1="240.9" x2="80.7" y2="228.4"/>
				<line fill="none" stroke="#BBBBBB" stroke-width="0.9527" stroke-miterlimit="10" x1="30.6" y1="254.5" x2="83" y2="242"/>
			</g>
		</g>
	</g>
	<path fill="#BBBBBB" d="M49.6,218.1c-4.4-5.9-7.7-9.7-9.9-12l13.6-12.8c-0.5-0.6-0.8-3.7-1.3-4.3l-20.5,1.6l8.3-40.6l-3,1.5
		l-9.3,42.9l22.4-1.9l-14.8,13.7c0,0,4.5,3.8,12.1,14.1c7.6,10.3,14.5,29.6,14.5,29.6s-0.1-3.3-0.2-8.6
		C58,233.1,53.6,223.5,49.6,218.1z"/>
	<path fill="#BBBBBB" d="M27.8,223.8l20.3,4.2l-0.3,10.6c0,0-2.4-1.1-6.5-1.1c-4.1,0-5.5,4.2-5.5,4.2s-0.7-4.2-3.8-6.5
		c-3.1-2.3-4.8-1.9-4.8-1.9L27.8,223.8z"/>
	<path fill="none" stroke="#BBBBBB" stroke-width="1.9054" stroke-miterlimit="10" d="M48.2,227.9l-0.3,10.6c0,0-2.4-1.1-6.5-1.1
		c-4.1,0-5.5,4.2-5.5,4.2s-0.7-4.2-3.8-6.5c-3.1-2.3-4.8-1.9-4.8-1.9l0.7-9.5"/>
</g>
<g id="front_arm">
	<g>
		<line fill="none" stroke="#BBBBBB" stroke-miterlimit="10" x1="45.2" y1="229.1" x2="41.4" y2="249.9"/>
		
			<ellipse transform="matrix(0.1791 -0.9838 0.9838 0.1791 -211.8558 245.8801)" fill="#BBBBBB" cx="41.4" cy="249.9" rx="1.8" ry="1.8"/>
		<path fill="#BBBBBB" d="M23.5,170.4c0,0,4.2,2.6,5.2,9.4c0.9,5.8,0.7,26.4,0.7,26.4l15.9-4.8l-2.1,31.5c0,0-16.6,6.2-27.2,2.6
			c-10.6-3.6-15.9-14.4-10-35.2C11.7,179.6,23.5,170.4,23.5,170.4z"/>
		<path fill="#BBBBBB" d="M43.5,202.8c0,0-7.8,1.2-9,13.6c-1.2,12.4,7.9,15.7,7.9,15.7L43.5,202.8z"/>
		<path fill="#BBBBBB" d="M43.1,208.6l-7,3.5c0,0-1,0.7-1,2.6c0,1.9,1.4,2.6,1.4,2.6l7.9-0.3L43.1,208.6z"/>
		
			<ellipse transform="matrix(0.179 -0.9839 0.9839 0.179 -168.9192 222.5904)" fill="#BBBBBB" cx="48.9" cy="212.5" rx="10.4" ry="10.4"/>
		<path fill="#BBBBBB" d="M42.3,233c1,1.4,3,1.8,4.4,0.8c1.9-10.5,3.8-20.9,5.7-31.4c-1-1.4-3-1.8-4.4-0.8
			C46.1,212.1,44.2,222.5,42.3,233z"/>
		<path fill="#BBBBBB" d="M41.4,229.3c1.7,2.4,5,3,7.4,1.3c3.2-17.5,6.4-35.1,9.6-52.6c-1.7-2.4-5-3-7.4-1.3
			C47.8,194.2,44.6,211.8,41.4,229.3z"/>
		<g>
			<defs>
				<path id="SVGID_67_" d="M41.4,229.3c1.7,2.4,5,3,7.4,1.3c3.2-17.5,6.4-35.1,9.6-52.6c-1.7-2.4-5-3-7.4-1.3
					C47.8,194.2,44.6,211.8,41.4,229.3z"/>
			</defs>
			<clipPath id="SVGID_22_">
				<use xlink:href="#SVGID_67_"  overflow="visible"/>
			</clipPath>
			<g clip-path="url(#SVGID_22_)">
				<path fill="none" stroke="#BBBBBB" stroke-miterlimit="10" d="M56.6,217c0,0-3.8,2.4-9.5,1.4c-5.7-1-8.7-4.9-8.7-4.9"/>
				<path fill="none" stroke="#BBBBBB" stroke-miterlimit="10" d="M62.8,183.1c0,0-3.8,2.4-9.5,1.4c-5.7-1-8.7-4.9-8.7-4.9"/>
				<path fill="none" stroke="#BBBBBB" stroke-miterlimit="10" d="M55.5,222.8c0,0-3.8,2.4-9.5,1.3c-5.7-1-8.7-4.9-8.7-4.9"/>
			</g>
		</g>
		
			<ellipse transform="matrix(0.1789 -0.9839 0.9839 0.1789 -121.8599 195.0149)" fill="#BBBBBB" cx="55.9" cy="170.5" rx="11.3" ry="11.3"/>
		<path fill="#BBBBBB" d="M43.1,170.6c7.7,3.3,16,4.8,24.3,4.4c0.2-1,0.4-2.1,0.6-3.1c-8.3,0.3-16.7-1.2-24.3-4.4
			C43.5,168.5,43.3,169.5,43.1,170.6z"/>
		<g>
			<g>
				<path fill="#BBBBBB" d="M61.7,163c0,0,0.8,0.7,1.5,2.1c0.4,0.7,0.7,1.6,1,2.5c0.1,0.5,0.2,1,0.3,1.5c0.1,0.5,0.1,1.1,0.1,1.6
					c0,0.5,0,1.1-0.1,1.6c0,0.5-0.1,1-0.2,1.5c-0.2,1-0.5,1.9-0.7,2.6c-0.6,1.5-1.1,2.4-1.1,2.4s0.4-1,0.9-2.4
					c0.2-0.7,0.4-1.6,0.6-2.6c0.1-0.5,0.1-1,0.2-1.5c0-0.5,0-1,0-1.5c0-0.5,0-1-0.1-1.5c-0.1-0.5-0.1-1-0.3-1.5
					c-0.2-0.9-0.5-1.8-0.8-2.5C62.4,163.8,61.7,163,61.7,163z"/>
			</g>
			<g>
				<path fill="#BBBBBB" d="M59.8,163.4c0,0,0.6,0.8,1.2,2.2c0.3,0.7,0.6,1.5,0.8,2.5c0.2,0.9,0.4,1.9,0.5,2.9c0.1,1,0,2-0.1,3
					c-0.1,0.9-0.3,1.8-0.5,2.6c-0.4,1.5-0.8,2.4-0.8,2.4s0.3-1,0.6-2.4c0.1-0.7,0.2-1.6,0.3-2.5c0.1-0.9,0.1-1.9,0-2.9
					c-0.1-2-0.6-3.9-1-5.3C60.3,164.3,59.8,163.4,59.8,163.4z"/>
			</g>
			<g>
				<path fill="#BBBBBB" d="M57.9,163.8c0,0,0.5,0.9,0.9,2.3c0.2,0.7,0.5,1.5,0.7,2.4c0.2,0.9,0.3,1.9,0.5,2.8c0.1,1,0.1,2,0.1,2.9
					c0,0.9-0.1,1.8-0.2,2.5c-0.2,1.5-0.5,2.4-0.5,2.4s0.2-1,0.2-2.4c0.1-0.7,0.1-1.6,0-2.5c0-0.9-0.1-1.9-0.2-2.8
					c-0.2-1.9-0.5-3.8-0.9-5.2C58.2,164.7,57.9,163.8,57.9,163.8z"/>
			</g>
			<g>
				<path fill="#BBBBBB" d="M56,164.2c0,0,0.3,0.9,0.6,2.3c0.2,0.7,0.4,1.5,0.5,2.4c0.2,0.9,0.3,1.8,0.4,2.8
					c0.1,0.9,0.2,1.9,0.3,2.8c0.1,0.9,0.1,1.7,0.1,2.4c0,1.4-0.2,2.4-0.2,2.4s0-0.9-0.1-2.4c-0.1-1.4-0.3-3.3-0.5-5.2
					c-0.1-0.9-0.2-1.9-0.4-2.7c-0.1-0.9-0.2-1.7-0.4-2.4C56.1,165.1,56,164.2,56,164.2z"/>
			</g>
			<g>
				<path fill="#BBBBBB" d="M54.1,164.6c0,0,0.6,3.7,1.1,7.3c0.3,1.8,0.5,3.7,0.7,5.1c0.2,1.4,0.2,2.3,0.2,2.3s-0.2-0.9-0.5-2.3
					c-0.3-1.4-0.6-3.2-0.9-5c-0.3-1.8-0.5-3.7-0.6-5.1C54.1,165.5,54.1,164.6,54.1,164.6z"/>
			</g>
			<g>
				<path fill="#BBBBBB" d="M52.2,165c0,0,0,0.9,0.1,2.3c0,0.7,0.1,1.5,0.2,2.3c0.1,0.9,0.2,1.8,0.4,2.7c0.3,1.8,0.7,3.6,1.1,4.9
					c0.4,1.3,0.7,2.2,0.7,2.2s-0.5-0.8-0.9-2.1c-0.5-1.3-1-3.1-1.3-4.9c-0.3-1.8-0.4-3.7-0.4-5.1C52,165.9,52.2,165,52.2,165z"/>
			</g>
			<g>
				<path fill="#BBBBBB" d="M50.3,165.3c0,0-0.1,0.9-0.2,2.3c0,1.4,0,3.2,0.4,5c0.2,0.9,0.4,1.8,0.6,2.6c0.3,0.8,0.5,1.6,0.8,2.2
					c0.5,1.3,1.1,2,1.1,2s-0.7-0.7-1.3-1.9c-0.3-0.6-0.7-1.4-1-2.2c-0.3-0.8-0.5-1.7-0.7-2.7c-0.3-1.8-0.3-3.7-0.2-5.1
					C50,166.2,50.3,165.3,50.3,165.3z"/>
			</g>
			<g>
				<path fill="#BBBBBB" d="M51.4,179.7c0,0-0.8-0.5-1.7-1.7c-0.4-0.6-0.9-1.3-1.2-2.1c-0.2-0.4-0.3-0.8-0.5-1.3
					c-0.1-0.4-0.3-0.9-0.4-1.4c-0.1-0.5-0.2-1-0.2-1.4c0-0.5,0-0.9,0-1.4c0-0.9,0.1-1.7,0.3-2.4c0.3-1.4,0.7-2.3,0.7-2.3
					s-0.2,0.9-0.4,2.3c-0.2,1.4-0.2,3.3,0.2,5.1c0.1,0.5,0.2,0.9,0.3,1.3c0.1,0.4,0.3,0.9,0.4,1.3c0.3,0.8,0.7,1.5,1.1,2.1
					C50.7,179,51.4,179.7,51.4,179.7z"/>
			</g>
		</g>
		<g>
			<g>
				<path fill="#BBBBBB" d="M64.9,164.9c0,0-0.1,0.3-0.5,0.6c-0.4,0.4-1.1,0.8-1.9,1.2c-0.8,0.4-1.8,0.8-3,1.1
					c-1.1,0.3-2.3,0.6-3.5,0.9c-0.6,0.1-1.2,0.2-1.8,0.3c-0.6,0.1-1.2,0.1-1.8,0.2c-1.2,0.1-2.2,0-3.2,0c-0.9-0.1-1.7-0.3-2.2-0.4
					c-0.5-0.2-0.8-0.3-0.8-0.3s0.3,0.1,0.8,0.2c0.5,0.1,1.3,0.2,2.2,0.2c0.5,0,0.9,0,1.5,0c0.5,0,1.1-0.1,1.6-0.1
					c0.6,0,1.1-0.1,1.7-0.2c0.6-0.1,1.2-0.2,1.8-0.3c1.2-0.2,2.4-0.5,3.5-0.8c1.1-0.3,2.1-0.6,3-0.9c0.8-0.3,1.5-0.7,2-1
					c0.2-0.2,0.4-0.3,0.5-0.4C64.8,164.9,64.9,164.9,64.9,164.9z"/>
			</g>
			<g>
				<path fill="#BBBBBB" d="M64.9,167c0,0-0.1,0.3-0.5,0.6c-0.4,0.3-1,0.8-1.9,1.1c-0.8,0.4-1.8,0.8-2.9,1.1
					c-1.1,0.3-2.2,0.6-3.4,0.8c-0.6,0.1-1.2,0.2-1.8,0.3c-0.6,0.1-1.2,0.1-1.7,0.2c-1.1,0.1-2.2,0-3.1,0c-0.9-0.1-1.6-0.3-2.1-0.4
					c-0.5-0.1-0.8-0.3-0.8-0.3s0.3,0.1,0.8,0.2c0.5,0.1,1.2,0.2,2.1,0.2c0.4,0,0.9,0,1.4,0c0.5,0,1-0.1,1.6-0.1
					c0.6,0,1.1-0.1,1.7-0.2c0.6-0.1,1.1-0.2,1.7-0.3c1.2-0.2,2.3-0.5,3.4-0.8c1.1-0.3,2.1-0.6,2.9-0.9c0.8-0.3,1.5-0.7,1.9-1
					C64.7,167.3,64.9,167,64.9,167z"/>
			</g>
			<g>
				<path fill="#BBBBBB" d="M64.9,169.2c0,0-0.1,0.3-0.5,0.6c-0.4,0.3-1,0.7-1.8,1.1c-0.8,0.4-1.7,0.7-2.8,1.1
					c-1.1,0.3-2.2,0.6-3.3,0.8c-0.6,0.1-1.2,0.2-1.7,0.3c-0.6,0.1-1.1,0.1-1.7,0.2c-1.1,0.1-2.1,0-3,0c-0.9-0.1-1.6-0.3-2.1-0.4
					c-0.5-0.1-0.7-0.3-0.7-0.3s0.3,0.1,0.8,0.2c0.5,0.1,1.2,0.2,2.1,0.2c0.4,0,0.9,0,1.4,0c0.5,0,1-0.1,1.5-0.1
					c0.5,0,1.1-0.1,1.6-0.2c0.6-0.1,1.1-0.2,1.7-0.3c1.1-0.2,2.3-0.5,3.3-0.7c1-0.3,2-0.6,2.8-0.9c0.8-0.3,1.4-0.6,1.9-0.9
					C64.8,169.4,64.9,169.2,64.9,169.2z"/>
			</g>
			<g>
				<path fill="#BBBBBB" d="M64.9,171.3c0,0-0.1,0.3-0.5,0.6c-0.4,0.3-1,0.7-1.8,1.1c-0.8,0.4-1.7,0.7-2.7,1c-1,0.3-2.1,0.6-3.2,0.8
					c-0.5,0.1-1.1,0.2-1.7,0.3c-0.6,0.1-1.1,0.1-1.6,0.2c-1.1,0.1-2.1,0-2.9,0c-0.8-0.1-1.5-0.3-2-0.4c-0.5-0.1-0.7-0.3-0.7-0.3
					s0.3,0.1,0.8,0.2c0.5,0.1,1.2,0.2,2,0.2c0.4,0,0.9,0,1.4,0c0.5,0,1-0.1,1.5-0.1c0.5,0,1.1-0.1,1.6-0.2c0.5-0.1,1.1-0.2,1.6-0.3
					c1.1-0.2,2.2-0.5,3.2-0.7c1-0.3,2-0.6,2.7-0.9c0.8-0.3,1.4-0.6,1.8-0.9C64.8,171.5,64.9,171.3,64.9,171.3z"/>
			</g>
			<g>
				<path fill="#BBBBBB" d="M65,173.4c0,0-0.1,0.3-0.5,0.6c-0.4,0.3-0.9,0.7-1.7,1.1c-0.8,0.3-1.7,0.7-2.6,1c-1,0.3-2.1,0.6-3.1,0.8
					c-0.5,0.1-1.1,0.2-1.6,0.3c-0.5,0.1-1.1,0.1-1.6,0.2c-1,0.1-2,0-2.8,0c-0.8-0.1-1.5-0.2-2-0.4c-0.5-0.1-0.7-0.3-0.7-0.3
					s0.3,0.1,0.7,0.2c0.5,0.1,1.1,0.2,2,0.2c0.4,0,0.8,0,1.3,0c0.5,0,1-0.1,1.5-0.1c0.5,0,1-0.1,1.6-0.2c0.5-0.1,1.1-0.2,1.6-0.3
					c1.1-0.2,2.1-0.4,3.1-0.7c1-0.3,1.9-0.5,2.7-0.8c0.8-0.3,1.4-0.6,1.8-0.9C64.8,173.7,65,173.4,65,173.4z"/>
			</g>
			<g>
				<path fill="#BBBBBB" d="M65,175.6c0,0-0.1,0.3-0.5,0.6c-0.4,0.3-0.9,0.7-1.7,1c-0.7,0.3-1.6,0.7-2.6,1c-1,0.3-2,0.5-3,0.8
					c-0.5,0.1-1.1,0.2-1.6,0.2c-0.5,0.1-1,0.1-1.5,0.1c-1,0.1-1.9,0-2.7-0.1c-0.8-0.1-1.5-0.2-1.9-0.4c-0.4-0.1-0.7-0.3-0.7-0.3
					s0.3,0.1,0.7,0.2c0.5,0.1,1.1,0.2,1.9,0.2c0.8,0,1.7,0,2.7-0.1c0.5,0,1-0.1,1.5-0.2c0.5-0.1,1-0.2,1.5-0.3c1-0.2,2.1-0.4,3-0.7
					c1-0.3,1.8-0.5,2.6-0.8c0.7-0.3,1.3-0.6,1.7-0.8C64.8,175.8,65,175.6,65,175.6z"/>
			</g>
		</g>
		<g>
			<defs>
				<path id="SVGID_69_" d="M23.5,170.4c0,0,4.2,2.6,5.2,9.4c0.9,5.8,0.7,26.4,0.7,26.4l15.9-4.8l-2.1,31.5c0,0-16.6,6.2-27.2,2.6
					c-10.6-3.6-15.9-14.4-10-35.2C11.7,179.6,23.5,170.4,23.5,170.4z"/>
			</defs>
			<clipPath id="SVGID_24_">
				<use xlink:href="#SVGID_69_"  overflow="visible"/>
			</clipPath>
			<g clip-path="url(#SVGID_24_)">
				<polyline fill="none" stroke="#BBBBBB" stroke-miterlimit="10" points="37.7,209.8 19.6,212.2 29,170.8 20.6,168 8.8,225.9 
					37.1,221.7 				"/>
				<path fill="none" stroke="#BBBBBB" stroke-miterlimit="10" d="M34.1,202.5c0,0-10.1,6-11.5,16.8C21.3,230,27.8,240,27.8,240"/>
				<path fill="none" stroke="#BBBBBB" stroke-miterlimit="10" d="M32.9,188.3c0,0-2.5-2.6-11.7-2.6c-9.3,0-23.6,6.7-23.6,6.7"/>
				<path fill="none" stroke="#BBBBBB" stroke-miterlimit="10" d="M30.5,201.6c0,0-3-2-12,0.1C9.4,203.9-3,213.6-3,213.6"/>
				<path fill="none" stroke="#BBBBBB" stroke-miterlimit="10" d="M34.2,201.9c0,0-10.1,5.2-17.5,12.8c-7.4,7.6-11.9,18-11.9,18"/>
			</g>
		</g>
	</g>
	<g>
		<path fill="#BBBBBB" d="M28.7,179.8c0.6,2.1,0.8,4.4,1,6.6c0.2,2.2,0.4,4.4,0.5,6.6c0.1,2.2,0.2,4.4,0.2,6.6c0,2.2,0,4.4,0,6.6
			l-1.2-0.9l4-1.1l4-1c2.7-0.6,5.4-1.3,8.1-1.7c-2.5,1.1-5.1,2.1-7.7,3l-3.9,1.4l-3.9,1.3l-1.2,0.4l0-1.3c0-2.2,0-4.4,0-6.6
			c0-2.2,0-4.4,0.1-6.6c0-1.1,0-2.2,0.1-3.3l0.1-3.3C28.6,184.2,28.7,182,28.7,179.8z"/>
	</g>
	<polygon fill="#BBBBBB" points="45.7,207.3 39.4,199.8 54,199.6 54.8,193.5 34.8,195.4 34.2,202.7 44.9,211.1 	"/>
	<path fill="#BBBBBB" d="M44.1,211.3c-0.1,0.1-1,3.5-1.1,4.7l-9.8-4.9l0.6-7.3l20.7-1.9l-0.6,6.8l-15.5-0.5L44.1,211.3z"/>
	<path fill="#BBBBBB" d="M49.2,199l-8.4-6l15.6-0.2l0.7-6.6l-20,2.7l-0.6,7.3l7.9,2.3c0,0,2,0.9,2.4,0.4
		C47.3,198.3,49.2,199,49.2,199z"/>
	<g>
		<path fill="#BBBBBB" d="M40.8,193.1c1.3-0.1,2.6-0.2,3.9-0.3c1.3-0.1,2.6-0.2,3.9-0.3c2.6-0.1,5.2-0.3,7.8-0.3l-0.7,0.6l0.3-3.3
			c0.1-1.1,0.2-2.2,0.4-3.3l0.8,0.8c-1.7,0.2-3.3,0.4-5,0.6c-1.7,0.2-3.3,0.4-5,0.5c-1.7,0.2-3.3,0.3-5,0.5c-1.7,0.1-3.4,0.3-5,0.3
			c1.6-0.4,3.3-0.7,4.9-1c1.7-0.3,3.3-0.6,5-0.9c1.7-0.3,3.3-0.5,5-0.8c1.7-0.3,3.3-0.5,5-0.7l0.9-0.1l-0.1,1
			c-0.1,1.1-0.2,2.2-0.4,3.3l-0.4,3.3l-0.1,0.6l-0.6,0c-2.6,0-5.2,0-7.8-0.1c-1.3,0-2.6-0.1-3.9-0.1
			C43.4,193.2,42.1,193.2,40.8,193.1z"/>
	</g>
	<g>
		<path fill="#BBBBBB" d="M54,199.6c0-1,0-2.1,0-3.1c0-1,0.1-2.1,0.2-3.1l0.6,0.6c-1.7,0.3-3.3,0.5-5,0.6c-1.7,0.2-3.3,0.3-5,0.5
			c-1.7,0.1-3.3,0.2-5,0.3c-1.7,0-3.4,0.1-5,0c1.6-0.4,3.3-0.7,5-1c1.7-0.3,3.3-0.5,5-0.7c1.7-0.2,3.3-0.4,5-0.5
			c1.7-0.1,3.3-0.3,5-0.3l0.7,0l-0.1,0.7c-0.2,1-0.4,2-0.6,3C54.5,197.6,54.3,198.6,54,199.6z"/>
	</g>
	<path fill="#BBBBBB" d="M56.7,211.2l9.6-10.3l-6.5-9.6l-5.1,4l6.1,5.7l-6.3,6.3c0,0-1.4,0-0.5,1.8
		C54.9,210.9,56.7,211.2,56.7,211.2z"/>
	<g>
		<path fill="#BBBBBB" d="M56.7,211.2c0.7-1,1.4-1.9,2.1-2.8c0.7-0.9,1.5-1.8,2.2-2.7c1.5-1.8,3.1-3.6,4.7-5.3l-0.1,0.9
			c-0.5-0.8-1.1-1.6-1.6-2.4c-0.5-0.8-1.1-1.6-1.6-2.4c-1-1.6-2.1-3.3-3-4.9l0.7,0.1c-1.5,1.1-3,2.1-4.6,3c1.3-1.3,2.6-2.6,4-3.8
			l0.4-0.3l0.3,0.4c1.2,1.5,2.3,3.1,3.4,4.7c0.6,0.8,1.1,1.6,1.6,2.4c0.6,0.8,1.1,1.6,1.6,2.4l0.3,0.5l-0.4,0.4
			c-1.6,1.7-3.2,3.4-4.9,5c-0.8,0.8-1.7,1.6-2.6,2.4C58.5,209.7,57.6,210.5,56.7,211.2z"/>
	</g>
	<g>
		<path fill="#BBBBBB" d="M53.9,208.7c-0.1-2.3-0.1-4.6,0-6.8l0.6,0.6c-1.7,0.2-3.4,0.5-5.2,0.6c-1.7,0.2-3.5,0.3-5.2,0.4
			c-1.7,0.1-3.5,0.2-5.2,0.2c-1.7,0-3.5,0.1-5.2,0c1.7-0.4,3.4-0.7,5.1-1c1.7-0.3,3.4-0.5,5.2-0.7c1.7-0.2,3.5-0.4,5.2-0.5
			c1.7-0.1,3.5-0.2,5.2-0.3l0.7,0l-0.1,0.7C54.8,204.2,54.5,206.5,53.9,208.7z"/>
	</g>
</g>
<g id="head">
	<path fill="#BBBBBB" d="M117.4,15.2c0,0,12.4,7.4,13.2,28.8c1,26.6-50.5,33.4-50.5,33.4s-37.9,3.5-46.6-10
		C22.9,51,31.2,43.3,31.2,43.3L117.4,15.2z"/>
	<g>
		<path fill="#BBBBBB" d="M54,121.9c0.2,1,1,1.8,1.9,1.8c16.5-0.9,33-1.8,49.5-2.8c0.9-0.1,1.7-0.9,1.7-2
			c1.1-24.3,2.5-44.3,3.7-68.6c0.1-1-0.7-2.7-1.8-3.5c-19.3-15.6-47.4-14-64.9,3.6c-1,1-1.6,2.7-1.4,3.7
			C46.5,78.2,50.2,97.9,54,121.9z"/>
		<path fill="#BBBBBB" d="M54,121.9c0.2,1,1,1.8,1.9,1.8c16.5-0.9,33-1.8,49.5-2.8c0.9-0.1,1.7-0.9,1.7-2
			c1.1-24.3,2.5-44.3,3.7-68.6c0.1-1-0.7-2.7-1.8-3.5c-19.3-15.6-47.4-14-64.9,3.6c-1,1-1.6,2.7-1.4,3.7
			C46.5,78.2,50.2,97.9,54,121.9z"/>
	</g>
	<g>
		<path fill="#BBBBBB" d="M88.7,121.5c0.6,0,1.2,0.1,1.9,0.1c8.6-13.2-4.5-25.5,4.2-39.4c-1.2,0.2-2.4,0.4-3.5,0.7
			C83.3,96.4,96.6,108.5,88.7,121.5z"/>
		<path fill="#BBBBBB" d="M87.2,121.4c0.6,0,1.2,0.1,1.8,0.1c8-13-5.3-25.1,2.8-38.7c-1.2,0.2-2.4,0.4-3.5,0.7
			C80.9,96.6,94.5,108.5,87.2,121.4z"/>
		<path fill="#BBBBBB" d="M85.3,121.2c0.6,0,1.2,0.1,1.9,0.1c7.3-12.8-6.3-24.7,1.1-37.9c-1.2,0.2-2.4,0.4-3.5,0.7
			C78.1,96.9,92,108.5,85.3,121.2z"/>
		<path fill="#BBBBBB" d="M83.8,121.1c0.6,0,1.2,0.1,1.9,0.1c6.7-12.7-7.1-24.4-0.3-37.3c-1.2,0.2-2.4,0.4-3.5,0.7
			C75.7,97.2,89.9,108.6,83.8,121.1z"/>
		<path fill="#BBBBBB" d="M82,121c0.6,0,1.2,0.1,1.9,0.1c6.1-12.5-8.1-23.9-2-36.5c-1.2,0.2-2.4,0.4-3.5,0.7
			C72.9,97.5,87.3,108.6,82,121z"/>
		<path fill="#BBBBBB" d="M80.4,120.9c0.6,0,1.2,0.1,1.9,0.1c5.5-12.4-8.9-23.6-3.4-35.8c-1.2,0.2-2.4,0.4-3.5,0.7
			C70.5,97.7,85.2,108.6,80.4,120.9z"/>
		<path fill="#BBBBBB" d="M78.6,120.7c0.6,0,1.2,0.1,1.9,0.1c4.8-12.2-9.9-23.2-5.1-35c-1.2,0.2-2.4,0.4-3.5,0.7
			C67.7,98,82.7,108.7,78.6,120.7z"/>
		<path fill="#BBBBBB" d="M77,120.6c0.6,0,1.2,0.1,1.9,0.1c4.2-12.1-10.7-22.8-6.5-34.4c-1.2,0.2-2.4,0.4-3.5,0.7
			C65.3,98.2,80.6,108.7,77,120.6z"/>
	</g>
	<path fill="#BBBBBB" d="M69.7,66.4c2.1-0.7,8.9,0.3,10,4.3c0.6-4.3,4-7.8,7.7-8c8.7-0.6,15.1,9,15.6,17.7
		c0.5,8.7-5.4,16.2-12.3,13.4c-4.2-1.7-11.3-2.9-21.3,2.5c-6.6,3.5-11.1-4.8-11.6-13.6C57.4,73.9,62.7,68.7,69.7,66.4z"/>
	<g>
		<defs>
			<path id="SVGID_87_" d="M69.7,66.4c2.1-0.7,8.9,0.3,10,4.3c0.6-4.3,4-7.8,7.7-8c8.7-0.6,15.1,9,15.6,17.7
				c0.5,8.7-5.4,16.2-12.3,13.4c-4.2-1.7-11.3-2.9-21.3,2.5c-6.6,3.5-11.1-4.8-11.6-13.6C57.4,73.9,62.7,68.7,69.7,66.4z"/>
		</defs>
		<clipPath id="SVGID_26_">
			<use xlink:href="#SVGID_87_"  overflow="visible"/>
		</clipPath>
		<path clip-path="url(#SVGID_26_)" fill="#BBBBBB" d="M82.3,68.1c0,2.2,0.9,4.3,2.4,5.8c0.8,0.7,1.7,1.2,2.7,1.5
			c1,0.3,2.1,0.3,3.1,0c1-0.3,1.9-0.8,2.7-1.5c0.7-0.7,1.2-1.6,1.4-2.6c0.2-1,0-2-0.4-2.9c-0.2-0.4-0.5-0.9-0.9-1.2
			c-0.3-0.3-0.8-0.6-1.2-0.8c-0.9-0.4-2-0.4-2.9,0c-0.9,0.4-1.6,1.1-1.9,2.1c-0.2,0.9,0,2,0.7,2.7c0.7,0.7,1.8,0.9,2.7,0.5
			c0.1-0.1,0.2-0.1,0.3-0.2l0.1-0.1l0.2-0.1c0.2-0.2,0.3-0.4,0.4-0.6c0.2-0.5,0.2-1,0-1.5c-0.1-0.2-0.2-0.5-0.4-0.7
			c-0.2-0.2-0.4-0.3-0.7-0.4c-0.5-0.2-1.1-0.1-1.6,0.3c0.4-0.4,1-0.6,1.6-0.5c0.3,0.1,0.6,0.2,0.8,0.4c0.2,0.2,0.4,0.4,0.5,0.7
			c0.3,0.6,0.3,1.2,0.1,1.8c-0.1,0.3-0.3,0.6-0.5,0.8l-0.1,0.2c-0.1,0.1-0.1,0.1-0.2,0.2c-0.1,0.1-0.3,0.2-0.4,0.3
			c-1.1,0.6-2.6,0.5-3.6-0.4c-0.9-0.9-1.4-2.3-1.1-3.5c0.1-0.6,0.4-1.2,0.8-1.8c0.4-0.5,1-0.9,1.5-1.2c1.2-0.6,2.5-0.6,3.8-0.2
			c0.6,0.2,1.2,0.6,1.6,1c0.5,0.5,0.8,1,1.1,1.5c0.6,1.1,0.8,2.5,0.6,3.7C95.6,72.8,95,74,94,74.9c-0.9,0.8-2,1.5-3.2,1.7
			c-2.4,0.6-5.1-0.2-6.8-2c-1.7-1.7-2.5-4.2-2.3-6.5c0.2-2.3,1.4-4.6,3.2-5.9C83.3,63.7,82.3,65.9,82.3,68.1z M101.1,91.6
			c2.1-1,3.7-2.9,4.4-5.1c0.7-2.3,0.4-4.8-0.9-6.9c-1.3-2.1-3.7-3.4-6.2-3.4c-1.2,0-2.5,0.4-3.5,1c-1.1,0.7-2,1.7-2.4,2.9
			c-0.5,1.2-0.6,2.5-0.2,3.7c0.2,0.6,0.4,1.2,0.8,1.7c0.4,0.5,0.8,1,1.4,1.4c1.1,0.7,2.5,0.9,3.7,0.6c0.6-0.2,1.2-0.4,1.7-0.8
			c0.5-0.4,0.9-0.9,1.2-1.5c0.5-1.2,0.4-2.6-0.4-3.7c-0.8-1.1-2.2-1.6-3.4-1.2c-0.2,0-0.3,0.1-0.4,0.2c-0.1,0-0.1,0.1-0.2,0.1
			l-0.2,0.1c-0.3,0.2-0.5,0.4-0.6,0.7c-0.3,0.5-0.4,1.2-0.3,1.8c0.1,0.3,0.2,0.6,0.4,0.8c0.2,0.3,0.4,0.4,0.7,0.6
			c0.5,0.2,1.2,0.2,1.7-0.1c-0.5,0.2-1.1,0.2-1.6-0.1c-0.2-0.1-0.4-0.3-0.6-0.5c-0.1-0.2-0.2-0.5-0.3-0.7c-0.1-0.5,0.1-1.1,0.4-1.5
			c0.1-0.2,0.3-0.4,0.5-0.5l0.2-0.1L97,81c0.1,0,0.2-0.1,0.4-0.1c1-0.2,2.1,0.2,2.5,1c0.5,0.8,0.6,1.9,0.1,2.8
			c-0.4,0.9-1.3,1.5-2.3,1.7c-1,0.2-2,0-2.8-0.5c-0.4-0.3-0.8-0.6-1-1c-0.3-0.4-0.5-0.9-0.6-1.4c-0.3-1-0.2-2,0.2-2.9
			c0.4-0.9,1-1.7,1.9-2.3c0.9-0.5,1.9-0.8,2.9-0.9c1,0,2.1,0.2,3,0.6c0.9,0.5,1.7,1.2,2.3,2c1.2,1.8,1.6,4.1,1.1,6.2
			C104.4,88.4,103,90.4,101.1,91.6z M85.7,94.4c2.1-1,3.7-2.9,4.4-5.1c0.7-2.3,0.4-4.8-0.9-6.9C87.9,80.3,85.5,79,83,79
			c-1.2,0-2.5,0.4-3.5,1c-1.1,0.7-2,1.7-2.4,2.9c-0.5,1.2-0.6,2.5-0.2,3.7c0.2,0.6,0.4,1.2,0.8,1.7c0.4,0.5,0.8,1,1.4,1.4
			c1.1,0.7,2.5,0.9,3.7,0.6c0.6-0.2,1.2-0.4,1.7-0.8c0.5-0.4,0.9-0.9,1.2-1.5c0.5-1.2,0.4-2.6-0.4-3.7c-0.8-1.1-2.2-1.6-3.4-1.2
			c-0.1,0-0.3,0.1-0.4,0.2c-0.1,0-0.1,0.1-0.2,0.1L81,83.5c-0.3,0.2-0.5,0.4-0.6,0.7c-0.3,0.5-0.4,1.2-0.3,1.8
			c0.1,0.3,0.2,0.6,0.4,0.8c0.2,0.3,0.4,0.4,0.7,0.6c0.5,0.2,1.2,0.2,1.7-0.1c-0.5,0.2-1.1,0.2-1.6-0.1c-0.2-0.1-0.4-0.3-0.6-0.5
			c-0.1-0.2-0.2-0.5-0.3-0.7c-0.1-0.5,0.1-1.1,0.4-1.5c0.1-0.2,0.3-0.4,0.5-0.5l0.2-0.1l0.2-0.1c0.1,0,0.2-0.1,0.4-0.1
			c1-0.2,2.1,0.2,2.6,1c0.5,0.8,0.6,1.9,0.1,2.8c-0.4,0.9-1.3,1.5-2.3,1.7c-1,0.2-2,0-2.8-0.5c-0.4-0.3-0.8-0.6-1-1
			c-0.3-0.4-0.5-0.9-0.6-1.4c-0.3-1-0.2-2,0.2-2.9c0.4-0.9,1-1.7,1.9-2.3c0.9-0.5,1.9-0.8,2.9-0.9c1,0,2.1,0.2,3,0.6
			c0.9,0.5,1.7,1.2,2.3,2c1.2,1.8,1.6,4.1,1.1,6.2C89,91.2,87.7,93.2,85.7,94.4z M70.4,80.6c2.1-1,3.7-2.9,4.4-5.1
			c0.7-2.3,0.4-4.8-0.9-6.9c-1.3-2.1-3.7-3.4-6.2-3.4c-1.2,0-2.5,0.4-3.5,1c-1.1,0.7-2,1.7-2.4,2.9c-0.5,1.2-0.6,2.5-0.2,3.7
			c0.2,0.6,0.4,1.2,0.8,1.7c0.4,0.5,0.8,1,1.4,1.4c1.1,0.7,2.5,0.9,3.7,0.6c0.6-0.2,1.2-0.4,1.7-0.8c0.5-0.4,0.9-0.9,1.2-1.5
			c0.5-1.2,0.4-2.6-0.4-3.7c-0.8-1.1-2.2-1.6-3.4-1.2c-0.2,0-0.3,0.1-0.4,0.2c-0.1,0-0.1,0.1-0.2,0.1l-0.2,0.1
			c-0.3,0.2-0.5,0.4-0.6,0.7c-0.3,0.5-0.4,1.2-0.3,1.8c0.1,0.3,0.2,0.6,0.4,0.8c0.2,0.3,0.4,0.4,0.7,0.6c0.5,0.2,1.2,0.2,1.7-0.1
			c-0.5,0.2-1.1,0.2-1.6-0.1c-0.2-0.1-0.4-0.3-0.6-0.5c-0.1-0.2-0.2-0.5-0.3-0.7c-0.1-0.5,0.1-1.1,0.4-1.5c0.1-0.2,0.3-0.4,0.5-0.5
			l0.2-0.1l0.2-0.1c0.1,0,0.2-0.1,0.4-0.1c1-0.2,2.1,0.2,2.6,1c0.5,0.8,0.6,1.9,0.1,2.8c-0.4,0.9-1.3,1.5-2.3,1.7
			c-1,0.2-2,0-2.8-0.5c-0.4-0.3-0.8-0.6-1-1c-0.3-0.4-0.5-0.9-0.6-1.4c-0.3-1-0.2-2,0.2-2.9c0.4-0.9,1-1.7,1.9-2.3
			c0.9-0.5,1.9-0.8,2.9-0.9c1,0,2.1,0.2,3,0.6c0.9,0.5,1.7,1.2,2.3,2c1.2,1.8,1.6,4.1,1.1,6.2C73.8,77.4,72.4,79.4,70.4,80.6z
			 M56.7,84.9c0.3,2.3,1.8,4.3,3.7,5.6c2,1.3,4.5,1.7,6.9,1c2.4-0.6,4.3-2.6,4.9-5c0.3-1.2,0.3-2.5,0-3.7c-0.3-1.3-1.1-2.3-2.1-3.1
			c-1-0.8-2.3-1.2-3.5-1.2c-0.6,0-1.3,0.1-1.9,0.3c-0.6,0.2-1.2,0.5-1.7,1c-1,0.9-1.6,2.1-1.6,3.4c0,0.6,0.1,1.3,0.3,1.9
			c0.2,0.6,0.7,1.2,1.2,1.6c1,0.8,2.4,1.1,3.6,0.7c1.3-0.4,2.1-1.7,2.1-3c0-0.2,0-0.3-0.1-0.5c0-0.1,0-0.1-0.1-0.2l-0.1-0.2
			c-0.1-0.3-0.3-0.6-0.5-0.8c-0.4-0.5-1-0.7-1.6-0.8c-0.3,0-0.6,0-0.9,0.1c-0.3,0.1-0.5,0.3-0.7,0.5c-0.4,0.5-0.5,1.1-0.4,1.6
			c-0.1-0.6,0.1-1.1,0.5-1.5c0.2-0.2,0.4-0.3,0.7-0.4c0.3-0.1,0.5-0.1,0.8-0.1c0.5,0.1,1,0.3,1.3,0.7c0.2,0.2,0.3,0.4,0.3,0.7l0,0.2
			l0,0.2c0,0.1,0,0.3,0,0.4c0,1-0.8,1.9-1.7,2.2c-1,0.3-2,0-2.7-0.6c-0.7-0.6-1.1-1.6-1-2.6c0.1-1,0.6-1.9,1.3-2.5
			c0.4-0.3,0.8-0.6,1.3-0.7c0.5-0.1,1-0.2,1.5-0.2c1,0,2,0.4,2.8,1c0.8,0.6,1.4,1.5,1.6,2.4c0.3,1,0.3,2.1,0,3.1
			c-0.2,1-0.7,1.9-1.4,2.7c-0.7,0.8-1.6,1.4-2.6,1.7c-2,0.7-4.3,0.5-6.3-0.6C58.8,89,57.3,87.1,56.7,84.9z"/>
	</g>
	<g >
		<path fill="#BBBBBB" d="M48.5,132.1c0.2,1.3,1.3,2.2,2.4,2.2c20.2-1.1,40.5-2.3,60.7-3.4c1.1-0.1,2.1-1.2,2.1-2.4
			c1.4-29.9,3.1-55.3,4.5-85.2c0.1-1.3-0.9-3.3-2.2-4.3c-23.7-19.1-58.2-17.2-79.6,4.5c-1.2,1.2-1.9,3.3-1.7,4.5
			C39.3,77.5,43.8,102.6,48.5,132.1z"/>
		<path fill="#BBBBBB" d="M48.5,132.1c0.2,1.3,1.3,2.2,2.4,2.2c20.2-1.1,40.5-2.3,60.7-3.4c1.1-0.1,2.1-1.2,2.1-2.4
			c1.4-29.9,3.1-55.3,4.5-85.2c0.1-1.3-0.9-3.3-2.2-4.3c-23.7-19.1-58.2-17.2-79.6,4.5c-1.2,1.2-1.9,3.3-1.7,4.5
			C39.3,77.5,43.8,102.6,48.5,132.1z"/>
	</g>
	<path fill="#BBBBBB" d="M54.7,104c6.5,2.8,8.1,10.7,8.1,10.7l3.4-0.2c-0.2-0.6-0.3-1.2-0.3-1.8c-0.3-4.7,3.3-8.7,8-9
		c3-0.2,5.7,1.2,7.3,3.5c1.4-2.4,3.9-4.1,6.9-4.3c4.7-0.3,8.7,3.3,9,8c0,0.6,0,1.2-0.1,1.8l4.9-0.3c0,0,0.4-6.8,7.3-11.5
		c9.6-6.7,9.3-3.7,9.3-3.7l-2.8,34.7c0,0-9.7,3.3-33.1,4.6c-23.3,1.3-33.8-0.9-33.8-0.9l-6.7-34.2C42.2,101.5,43.9,99.3,54.7,104z"
		/>
	<path fill="#BBBBBB" d="M54.5,101.4c6.5,2.8,9,10.6,9,10.6l2.5-0.1c-0.2-0.6-0.3-1.2-0.3-1.8c-0.3-4.7,3.3-8.7,8-9
		c3-0.2,5.7,1.2,7.3,3.5c1.4-2.4,3.9-4.1,6.9-4.3c4.7-0.3,8.7,3.3,9,8c0,0.6,0,1.2-0.1,1.8l4-0.2c0,0,1.3-6.8,8.2-11.6
		c9.6-6.7,9.5-1.1,9.5-1.1l-3,32.1c0,0-9.7,3.3-33.1,4.6c-23.3,1.3-33.8-0.9-33.8-0.9l-6.5-31.6C42.2,101.5,43.8,96.7,54.5,101.4z"
		/>
	<path fill="#BBBBBB" d="M54.7,104c6.5,2.8,8.1,10.7,8.1,10.7l3.4-0.2c-0.2-0.6-0.3-1.2-0.3-1.8c-0.3-4.7,3.3-8.7,8-9
		c3-0.2,5.7,1.2,7.3,3.5c1.4-2.4,3.9-4.1,6.9-4.3c4.7-0.3,8.7,3.3,9,8c0,0.6,0,1.2-0.1,1.8l4.9-0.3c0,0,0.4-6.8,7.3-11.5
		c9.6-6.7,9.3-3.7,9.3-3.7l-2.8,34.7c0,0-9.7,3.3-33.1,4.6c-23.3,1.3-33.8-0.9-33.8-0.9l-6.7-34.2C42.2,101.5,43.9,99.3,54.7,104z"
		/>
	<g>
		<path fill="#BBBBBB" d="M64.6,136.9L61.2,123L104,121l-2.2,13.8c-4.3,0.5-13.2,1.4-19.2,1.8C75.5,137,69.5,137,64.6,136.9z"/>
		<g>
			<defs>
				<path id="SVGID_89_" d="M64.6,136.9L61.2,123L104,121l-3.4,14c-4.3,0.5-12,1.3-18,1.6C75.5,137,69.5,137,64.6,136.9z"/>
			</defs>
			<clipPath id="SVGID_28_">
				<use xlink:href="#SVGID_89_"  overflow="visible"/>
			</clipPath>
			<line clip-path="url(#SVGID_28_)" fill="none" stroke="#BBBBBB" stroke-miterlimit="10" x1="96" y1="122.3" x2="94.4" y2="138"/>
			
				<line clip-path="url(#SVGID_28_)" fill="none" stroke="#BBBBBB" stroke-miterlimit="10" x1="87" y1="122.8" x2="86.3" y2="138.4"/>
			
				<line clip-path="url(#SVGID_28_)" fill="none" stroke="#BBBBBB" stroke-miterlimit="10" x1="77.4" y1="123.2" x2="78.3" y2="138.9"/>
			
				<line clip-path="url(#SVGID_28_)" fill="none" stroke="#BBBBBB" stroke-miterlimit="10" x1="66.7" y1="124" x2="69.9" y2="139.3"/>
		</g>
	</g>
	<path fill="#BBBBBB" d="M62.3,112.9c0.4,1,0.5,1.7,0.5,1.7l3.4-0.2c-0.2-0.6-0.3-1.2-0.3-1.8c-0.3-4.7,3.3-8.7,8-9
		c3-0.2,5.7,1.2,7.3,3.5c1.4-2.4,3.9-4.1,6.9-4.3c4.7-0.3,8.7,3.3,9,8c0,0.6,0,1.2-0.1,1.8l4.9-0.3c0,0,0-0.1,0-0.2l2,8.8
		c0,0-10.4,4.7-23.4,5.6c-14.3,0.9-19.4-3.5-19.4-3.5L62.3,112.9z"/>
	
		<ellipse transform="matrix(0.9984 -5.578129e-002 5.578129e-002 0.9984 -6.1708 5.1152)" fill="#BBBBBB" cx="88.5" cy="113.1" rx="5.9" ry="6.7"/>
	
		<ellipse transform="matrix(0.9984 -5.578968e-002 5.578968e-002 0.9984 -6.2379 4.3273)" fill="#BBBBBB" cx="74.4" cy="113.9" rx="5.9" ry="6.7"/>
	<polygon fill="#BBBBBB" points="143.5,115.4 118.2,115.6 118.4,119.4 	"/>
	
		<ellipse transform="matrix(0.9984 -5.581904e-002 5.581904e-002 0.9984 -6.2174 8.1679)" fill="#BBBBBB" cx="143.1" cy="115.4" rx="4.6" ry="4.6"/>
	<polygon fill="#BBBBBB" points="18.7,121.1 45.4,118.5 45.6,122.3 	"/>
	
		<ellipse transform="matrix(0.9984 -5.582446e-002 5.582446e-002 0.9984 -6.7277 1.2922)" fill="#BBBBBB" cx="19.8" cy="121.1" rx="4.6" ry="4.6"/>
	<path fill="#BBBBBB" d="M120.5,62.4c0,0-9.2,3.1-24.1,1.7c-20.5-2-39.7-27.5-39.7-27.5s3,8.2-4.8,17.4C44,63.2,35.7,65.2,35.7,65.2
		s-12-17.7-3.9-28.5c8.1-10.8,21.8-8.3,21.8-8.3s-4.6-6.5-5.9-12.9C46.5,9.1,51,3.7,51,3.7s5.8,5.8,17,4.5c10.9-1.2,22.2-8.1,36-3
		C138.4,17.8,120.5,62.4,120.5,62.4z"/>
	<g>
		<path fill="#BBBBBB" d="M112.4,117c0,0-0.8,0.7-2.3,1.8c-0.8,0.5-1.7,1.2-2.8,1.8c-1.1,0.6-2.4,1.4-3.8,2c-0.7,0.3-1.5,0.7-2.3,1
			c-0.8,0.3-1.6,0.6-2.5,0.9c-0.9,0.3-1.7,0.6-2.7,0.9c-0.9,0.3-1.9,0.5-2.8,0.8c-1,0.3-1.9,0.5-3,0.7c-0.5,0.1-1,0.2-1.5,0.3
			c-0.5,0.1-1,0.1-1.5,0.2c-1,0.1-2.1,0.3-3.1,0.3l-1.6,0.1l-0.4,0l-0.2,0l-0.2,0l-0.8,0c-2,0.1-4.2,0-6.3-0.2
			c-1-0.1-2.1-0.2-3.1-0.3c-1-0.2-2-0.3-3-0.5c-1-0.2-1.9-0.4-2.9-0.6c-0.9-0.2-1.8-0.5-2.7-0.7c-0.9-0.3-1.7-0.5-2.5-0.8
			c-0.8-0.3-1.6-0.6-2.3-0.8c-0.7-0.3-1.4-0.6-2.1-0.8c-0.7-0.3-1.3-0.6-1.9-0.8c-1.2-0.5-2.1-1.1-2.9-1.5c-1.6-0.9-2.5-1.5-2.5-1.5
			s0.2,0.1,0.7,0.3c0.5,0.2,1.1,0.4,2,0.7c0.9,0.3,1.9,0.6,3.1,1c1.2,0.4,2.6,0.7,4.1,1.1c0.7,0.2,1.5,0.4,2.3,0.6
			c0.8,0.2,1.6,0.4,2.5,0.5c0.9,0.2,1.8,0.3,2.7,0.5c0.9,0.1,1.8,0.3,2.8,0.4c0.9,0.1,1.9,0.2,2.9,0.3c1,0.1,2,0.1,3,0.2
			c2,0.1,4,0.2,6.1,0.1l0.8,0l0.2,0l0.1,0l0.1,0l0.4,0l1.5-0.1c1,0,2-0.2,3-0.3c1-0.1,2-0.2,2.9-0.4c1-0.1,1.9-0.3,2.9-0.5
			c0.9-0.2,1.9-0.4,2.8-0.6c0.9-0.2,1.8-0.4,2.6-0.6c0.9-0.2,1.7-0.5,2.5-0.7c0.8-0.2,1.6-0.5,2.3-0.7c0.7-0.2,1.4-0.5,2.1-0.7
			c0.7-0.2,1.3-0.5,1.9-0.7c1.2-0.5,2.2-0.9,3-1.3C111.5,117.5,112.4,117,112.4,117z"/>
	</g>
	
		<ellipse transform="matrix(0.9984 -5.584379e-002 5.584379e-002 0.9984 -6.3563 6.5963)" fill="#BBBBBB" cx="114.9" cy="117" rx="4.9" ry="6.4"/>
	
		<ellipse transform="matrix(0.9984 -5.579308e-002 5.579308e-002 0.9984 -6.5929 2.8985)" fill="#BBBBBB" cx="48.6" cy="119.5" rx="4.9" ry="6.4"/>
	
		<ellipse transform="matrix(0.9984 -5.576859e-002 5.576859e-002 0.9984 -3.2011 3.3269)" fill="#BBBBBB" cx="58" cy="59" rx="2.7" ry="3.1"/>
	
		<ellipse transform="matrix(0.9984 -5.587346e-002 5.587346e-002 0.9984 -3.7474 3.0394)" fill="#BBBBBB" cx="52.5" cy="68.5" rx="1.9" ry="2.2"/>
	
		<ellipse transform="matrix(0.9984 -5.583879e-002 5.583879e-002 0.9984 -3.7017 5.9773)" fill="#BBBBBB" cx="105.1" cy="69.2" rx="2.2" ry="2.4"/>
	
		<ellipse transform="matrix(0.9984 -5.579045e-002 5.579045e-002 0.9984 -5.1056 3.2577)" fill="#BBBBBB" cx="55.8" cy="93.1" rx="2.4" ry="3.6"/>
	<g>
		<path fill="#BBBBBB" d="M117.6,54c-0.3-1.5-0.9-2.9-1.6-4.3c-0.7-1.4-1.4-2.7-2.3-3.9c-0.9-1.3-1.8-2.5-2.8-3.6
			c-1-1.1-2.1-2.2-3.2-3.2c-2.2-2.1-4.7-3.9-7.2-5.5c-2.5-1.6-5.2-3.1-8-4.4c-1.3-0.6-2.8-1.3-4.2-1.8c-1.4-0.5-2.8-1-4.3-1.5
			c-1.4-0.4-2.9-0.9-4.4-1.3c-1.5-0.4-2.9-0.8-4.4-1.1c-1.5-0.3-3-0.7-4.5-0.9c-1.5-0.3-3-0.5-4.5-0.8c-1.5-0.2-3-0.5-4.5-0.7
			c-1.5-0.2-3-0.4-4.5-0.5l1.5-1.9c0.4,1.1,0.8,2.3,1.3,3.4c0.5,1.1,1,2.2,1.6,3.3c1.1,2.2,2.3,4.4,3.7,6.4c1.4,2.1,2.9,4,4.5,5.8
			c0.8,0.9,1.7,1.8,2.6,2.6c0.9,0.8,1.8,1.6,2.8,2.4c1,0.8,2,1.4,3,2.1c1,0.6,2.2,1.3,3.3,1.9c1.1,0.6,2.2,1.2,3.3,1.7
			c1.1,0.5,2.3,1,3.4,1.5c1.2,0.4,2.3,0.9,3.5,1.2c1.2,0.4,2.4,0.7,3.6,1c1.2,0.3,2.5,0.5,3.7,0.7c1.2,0.2,2.5,0.3,3.8,0.3
			c-2.5,0.3-5.1,0.1-7.6-0.2c-1.3-0.2-2.5-0.4-3.8-0.7c-1.2-0.3-2.5-0.6-3.7-1c-1.2-0.4-2.4-0.8-3.6-1.3c-1.2-0.5-2.4-1-3.5-1.5
			c-1.2-0.5-2.2-1.1-3.4-1.7c-1.1-0.6-2.2-1.3-3.3-2.1c-4.3-3-7.9-6.8-10.8-11.1c-1.5-2.1-2.8-4.3-4-6.6c-0.6-1.1-1.2-2.3-1.7-3.5
			c-0.5-1.2-1-2.4-1.5-3.7l-0.7-2.1l2.2,0.2c1.6,0.1,3.1,0.3,4.7,0.5c1.5,0.2,3.1,0.4,4.6,0.7c1.5,0.3,3.1,0.5,4.6,0.8
			c1.5,0.3,3,0.6,4.6,1c1.5,0.4,3,0.7,4.5,1.2c1.5,0.4,3,0.9,4.5,1.4c1.5,0.5,2.9,1.1,4.4,1.7c0.7,0.3,1.5,0.6,2.1,0.9
			c0.7,0.3,1.4,0.6,2.1,1c2.8,1.4,5.5,3.1,8,4.9c1.3,0.9,2.5,1.9,3.7,2.9c1.2,1,2.3,2.1,3.4,3.2c2.2,2.3,4.1,4.8,5.6,7.5
			c0.8,1.4,1.4,2.8,2,4.2C117,50.9,117.4,52.5,117.6,54z"/>
	</g>
	<g>
		<path fill="#BBBBBB" d="M115.5,25c0,0-0.4-0.8-1.2-1.9c-0.4-0.6-1-1.2-1.7-1.9c-0.7-0.7-1.5-1.4-2.5-2.1c-1-0.7-2-1.4-3.2-2.1
			c-1.2-0.7-2.5-1.3-3.8-2l-0.3-0.1l-0.1-0.1l0,0l0,0c0,0-0.1,0,0.1,0l-0.1,0l-0.5-0.2c-0.4-0.1-0.7-0.3-1.1-0.4
			c-0.4-0.2-0.7-0.2-1.1-0.3l-1-0.2c-1.4-0.3-3-0.4-4.6-0.5c-0.8-0.1-1.6,0-2.4,0c-0.8,0-1.6,0-2.4,0.1c-1.6,0.1-3.1,0.2-4.6,0.3
			c-1.5,0.2-3,0.3-4.4,0.4c-1.4,0.2-2.7,0.3-3.9,0.5c-4.9,0.7-8.2,1.1-8.2,1.1s0.8-0.4,2.1-0.9c1.4-0.5,3.3-1.2,5.7-1.9
			c1.2-0.3,2.5-0.7,3.9-1c1.4-0.3,2.9-0.6,4.4-0.9c1.6-0.2,3.2-0.5,4.8-0.6c0.8-0.1,1.7-0.1,2.5-0.1c0.8,0,1.7,0,2.5,0
			c1.7,0.1,3.4,0.3,5.1,0.6c0.4,0.1,0.9,0.2,1.3,0.3c0.4,0.1,0.9,0.2,1.2,0.4c0.4,0.2,0.7,0.3,1.1,0.5l0.5,0.2l0.1,0
			c0.2,0.1,0.1,0,0.1,0.1l0,0l0,0l0.1,0.1l0.3,0.1c1.4,0.8,2.7,1.6,3.8,2.5c1.2,0.9,2.2,1.8,3.1,2.7c1.8,1.8,2.9,3.6,3.5,5
			c0.3,0.7,0.5,1.2,0.6,1.6C115.5,24.8,115.5,25,115.5,25z"/>
	</g>
	<g>
		<path fill="#BBBBBB" d="M37.5,51.2c-0.3-0.4-0.5-1-0.7-1.5c-0.1-0.5-0.2-1.1-0.2-1.7c0-0.6,0-1.1,0.1-1.7c0.1-0.6,0.2-1.1,0.4-1.7
			c0.1-0.6,0.4-1.1,0.6-1.6c0.2-0.5,0.5-1,0.7-1.6c0.3-0.5,0.5-1,0.9-1.5c0.3-0.4,0.7-1,1.1-1.4c0.4-0.4,0.8-0.9,1.3-1.3
			c0.5-0.4,0.9-0.7,1.5-1.1c1-0.6,2.1-1.2,3.2-1.5c1.1-0.4,2.3-0.6,3.4-0.8c0.6-0.1,1.2-0.1,1.8-0.1c0.6,0,1.1,0,1.8,0.1l6.2,0.6
			l-5.8,2.3c-0.2,0.1-0.6,0.3-0.9,0.4c-0.3,0.2-0.7,0.4-1,0.6c-0.6,0.4-1.3,0.9-1.8,1.5c-0.3,0.3-0.6,0.6-0.8,0.9
			c-0.2,0.3-0.5,0.6-0.8,0.9c-0.5,0.6-0.9,1.3-1.3,2l-0.2,0.3l0,0.1l0,0c0,0,0,0,0,0l0,0l-0.1,0.1l-0.3,0.6
			c-0.2,0.4-0.3,0.7-0.5,1.1c-0.3,0.8-0.6,1.6-0.8,2.4c-0.1,0.4-0.2,0.8-0.2,1.2c-0.1,0.4-0.1,0.8-0.1,1.3c0,0.8,0,1.7,0.2,2.6
			c-0.4-0.8-0.7-1.6-0.9-2.5c-0.2-0.9-0.2-1.8-0.2-2.7c0-0.9,0.2-1.8,0.4-2.7c0.1-0.4,0.2-0.9,0.4-1.3l0.2-0.6l0-0.2l0.1-0.2
			l0.1-0.3c0.3-0.9,0.7-1.7,1.2-2.5c0.5-0.8,1-1.6,1.7-2.3c0.6-0.7,1.3-1.4,2.1-1.9c0.4-0.3,0.8-0.6,1.2-0.8
			c0.4-0.3,0.8-0.5,1.4-0.7l0.3,2.9c-0.4,0-0.9,0-1.4,0c-0.5,0-1,0-1.5,0.1c-1,0.1-2,0.3-2.9,0.6c-0.9,0.3-1.9,0.6-2.7,1.1
			c-0.4,0.2-0.8,0.5-1.2,0.8c-0.4,0.3-0.8,0.6-1.1,0.9c-0.4,0.4-0.7,0.6-1,1.1c-0.3,0.4-0.6,0.8-0.9,1.2c-0.3,0.4-0.6,0.9-0.9,1.3
			c-0.3,0.4-0.5,0.9-0.7,1.4c-0.2,0.5-0.4,0.9-0.6,1.4c-0.2,0.5-0.3,1-0.4,1.5c-0.1,0.5-0.1,1-0.2,1.6
			C37.2,50.1,37.3,50.7,37.5,51.2z"/>
	</g>
	<g>
		<defs>
			
				<ellipse id="SVGID_91_" transform="matrix(0.9984 -5.578968e-002 5.578968e-002 0.9984 -6.2379 4.3273)" cx="74.4" cy="113.9" rx="5.9" ry="6.7"/>
		</defs>
		<clipPath id="SVGID_30_">
			<use xlink:href="#SVGID_91_"  overflow="visible"/>
		</clipPath>
		<g clip-path="url(#SVGID_30_)">
			<line fill="none" stroke="#BBBBBB" stroke-miterlimit="10" x1="77.5" y1="105.8" x2="78.5" y2="124.3"/>
			<line fill="none" stroke="#BBBBBB" stroke-miterlimit="10" x1="74.1" y1="106" x2="75.1" y2="124.5"/>
			<line fill="none" stroke="#BBBBBB" stroke-miterlimit="10" x1="70.6" y1="106.2" x2="71.7" y2="124.7"/>
		</g>
	</g>
	<g>
		<defs>
			
				<ellipse id="SVGID_93_" transform="matrix(0.9984 -5.578129e-002 5.578129e-002 0.9984 -6.1708 5.1152)" cx="88.5" cy="113.1" rx="5.9" ry="6.7"/>
		</defs>
		<clipPath id="SVGID_32_">
			<use xlink:href="#SVGID_93_"  overflow="visible"/>
		</clipPath>
		<g clip-path="url(#SVGID_32_)">
			<line fill="none" stroke="#BBBBBB" stroke-miterlimit="10" x1="91.7" y1="105" x2="92.7" y2="123.5"/>
			<line fill="none" stroke="#BBBBBB" stroke-miterlimit="10" x1="88.2" y1="105.2" x2="89.3" y2="123.7"/>
			<line fill="none" stroke="#BBBBBB" stroke-miterlimit="10" x1="84.8" y1="105.4" x2="85.8" y2="123.9"/>
		</g>
	</g>
</g>
<g id="label">
</g>
</svg>
