<?xml version="1.0" encoding="utf-8"?>
<!-- Generator: Adobe Illustrator 21.0.0, SVG Export Plug-In . SVG Version: 6.00 Build 0)  -->
<!DOCTYPE svg PUBLIC "-//W3C//DTD SVG 1.1//EN" "http://www.w3.org/Graphics/SVG/1.1/DTD/svg11.dtd">
<svg version="1.1" id="Header_Buttons" xmlns="http://www.w3.org/2000/svg" xmlns:xlink="http://www.w3.org/1999/xlink" x="0px"
	 y="0px" viewBox="0 0 40 40" enable-background="new 0 0 40 40" xml:space="preserve" width="40" height="40" preserveAspectRatio="none">
<path fill="#FFFFFF" d="M31,26.3c0.1-0.3,0.1-0.6,0-0.6c0,0,0,0,0,0c0,0,0,0,0,0c-0.3-0.2-1.6,1.2-1.8,1c-0.6-0.4,2.7-6.3,0.2-8.4
	l0,0c-0.4-0.4-1-0.6-1.9-0.7l0,0c0.1,0,0.2,0,0.2,0c0,0,0,0,0,0c0,0,0,0,0,0c0.1-0.3,0.1-0.7,0.1-1.1c0-2-1.8-2.5-3.3-2.5l0,0
	c0,0,0,0,0,0c-0.1,0-0.1,0-0.2,0c0,0,0,0,0,0c-0.1,0-0.1,0-0.2,0c0,0,0,0,0,0c0,0-0.1,0-0.1,0l0,0c-0.1-0.8-0.5-1.5-1.3-2
	c-2-1.1-4-0.2-4.7,0.2c-1.6-0.9-2.9,0.2-3.7,1.4c0,0,0,0,0,0c0,0,0,0,0,0c-0.1,0.2-0.3,0.4-0.4,0.6c0,0,0,0,0,0
	c0,0.1-0.1,0.1-0.1,0.2c0,0,0,0,0,0c-0.2,0.4-0.4,0.7-0.5,0.9l0,0c-3.1,1-2.2,7.8-2.8,7.9c-0.2,0-1-1.7-1.3-1.6c0,0,0,0,0,0
	c0,0,0,0,0,0C9,21.8,9,22,8.9,22.3c0,0,0,0,0,0v0v0c0,0.2,0,0.4,0,0.6c0,0.2,0,0.4,0.1,0.6c0.1,0.4,0.2,0.8,0.4,1.2
	c0.4,0.8,1.2,1.4,2.1,1.4c0.1,0,0.3,0,0.4,0c0.4,0,0.8-0.2,1.1-0.6c0.2,0.5,0.2,1-0.2,1.3c-0.3,0.3-0.6,0.4-0.8,0.5
	c-0.7,0.2-1-0.5-1.1-0.5c0,0,0,0,0,0c0,0,0,0,0,0c0,0,0,0.2,0.1,0.5c0,0,0,0,0,0l0,0c0,0,0,0,0,0c0,0,0,0,0,0c0,0,0,0,0,0l0,0
	c0,0,0,0,0,0c0,0,0,0.1,0,0.1c0,0,0,0,0-0.1c0,0,0,0,0,0c0,0,0,0,0,0c0,0,0,0,0,0c0,0.1,0.1,0.1,0.1,0.2c0.1,0.1,0.1,0.2,0.2,0.3
	c0.2,0.2,0.4,0.3,0.6,0.4c0.5,0.2,1.1,0.2,1.6,0c0.2-0.1,0.3-0.2,0.5-0.3c0.1,1.1,0.3,2.1,0.1,2.4c0,0.1-0.1,0.1-0.2,0.2
	c-0.4,0.3-0.9-0.2-1-0.1c0,0,0,0,0,0c0,0,0,0,0,0c0,0,0,0.1,0,0.1c0,0,0,0,0,0c0,0.6,0.4,2.4,2.4,1.9c0.3-0.1,0.5-0.2,0.8-0.3
	c0.3,0.4,0.8,0.8,1.7,0.7c0,0.1,0,0.1,0.1,0.2c0.2,0.1,0.5-0.1,0.8-0.4c-0.1,0.8-0.1,1.4-0.1,1.4s0.5,0.1,1.2,0.1l-0.6,4.2l-0.9-0.1
	c0,0-0.9-0.9-1.1-0.6c0,0,0,0.1,0,0.1c0,0.2,0.4,0.5,0.5,0.5c0,0-0.9,0.1-0.9,0.3c0,0,0,0.1,0,0.1c0.2,0.3,0.9,0,1-0.1
	c0,0-0.1,0.1-0.2,0.3c0,0.1,0,0.2,0.1,0.3c0.3,0.2,0.9-0.4,0.9-0.4s0.4,0.1,0.9,0.1c0.5,0,0.6,0,0.8-0.3c0-0.1,0-0.5,0-1.1
	c0-1,0-2.5-0.1-3.2c0.2,0,0.3,0,0.5,0c0,1-0.1,3.2-0.1,4c0,0.2,0,0.3,0,0.4c0.1,0.2,0.3,0.3,0.8,0.3c0.5,0,0.9-0.1,0.9-0.1
	s0.6,0.6,0.9,0.4c0.1-0.1,0.1-0.2,0.1-0.3c0-0.1-0.1-0.2-0.2-0.3c0.1,0,0.7,0.4,1,0.1c0,0,0-0.1,0-0.1c0-0.2-0.9-0.3-0.9-0.3
	c0,0,0.5-0.3,0.5-0.5c0,0,0-0.1,0-0.1c-0.2-0.3-1.1,0.6-1.1,0.6l-0.9,0.1l-0.6-4.2c0,0,0,0,0,0c1.5-0.2,2.1-0.5,2.1-0.5s0,0,0,0l0,0
	c0,0-0.3-0.4-0.6-1c0,0,0,0,0,0c0,0,0,0,0-0.1c1,0.2,1.6-0.2,1.9-0.6c0.2,0.2,0.5,0.3,0.8,0.3c2,0.4,2.4-1.3,2.4-1.9c0,0,0,0,0,0
	c0,0,0-0.1,0-0.1c0,0,0,0,0,0c0,0,0,0,0,0c-0.1-0.1-0.6,0.3-1,0.1c-0.1,0-0.1-0.1-0.2-0.2c-0.1-0.1-0.1-0.2-0.1-0.4
	c0.3,0.1,0.6,0.1,0.9,0c0.3-0.1,0.5-0.2,0.7-0.3c0.1-0.1,0.2-0.2,0.3-0.3c0,0,0.1-0.1,0.1-0.2c0,0,0,0,0,0c0,0,0,0,0,0c0,0,0,0,0,0
	c0,0,0,0,0,0.1c0,0,0-0.1,0.1-0.1c0,0,0,0,0,0c0,0,0,0,0,0c0,0,0,0,0,0c0,0,0-0.1,0-0.1c0.5-0.1,1-0.3,1.4-0.6
	c0.3-0.3,0.6-0.6,0.8-1c0.1-0.2,0.2-0.4,0.3-0.6C30.9,26.7,30.9,26.4,31,26.3C31,26.3,31,26.3,31,26.3C31,26.3,31,26.3,31,26.3z"/>
</svg>
