<svg width="100" height="76" viewBox="0 0 100 76" fill="none" xmlns="http://www.w3.org/2000/svg" preserveAspectRatio="none"><g><path d="M24.995 24.7791L6.81927 42.9587L31.647 49.6125L24.995 24.7791Z" fill-opacity="0.2" fill="rgb(255 255 255 / .1)" /><path d="M49.822 31.4334L74.6498 24.7783L56.4752 6.59869L49.822 31.4334Z" fill-opacity="0.2" fill="rgb(255 255 255 / .1)" /><path d="M49.8226 67.7934L74.6504 74.4472L67.9984 49.6137L49.8226 67.7934Z" fill-opacity="0.2" fill="rgb(255 255 255 / .1)" /><path d="M74.6512 74.4482L92.8258 56.2685L67.998 49.6135L74.6512 74.4482Z" fill-opacity="0.2" fill="rgb(255 255 255 / .1)" /><path d="M100 31.9257L99.7473 31.4884L75.0112 24.859L56.9047 6.74739L56.8125 6.77207L56.7443 6.65392L31.9168 0L31.4796 0.252741L24.8528 24.9939L6.74351 43.1073L6.76838 43.2003L6.65127 43.2681L0 68.1026L0.252671 68.5399L25.0802 75.1938L25.1961 75.1268L25.2631 75.1938L49.998 68.5635L74.7345 75.193L74.8801 75.0475L75.0802 75.1011L93.2557 56.9214L93.2304 56.828L93.3479 56.7601L100 31.9257ZM92.7503 56.2306L68.6126 49.7616L75.0802 25.6168L99.2179 32.0857L92.7503 56.2306ZM67.9902 49.3239L50.6898 32.0195L74.3226 25.6846L71.548 36.0424L67.9902 49.3239ZM25.677 25.6853L49.3102 32.0191L32.009 49.3239L25.677 25.6853ZM50 32.3395L67.6701 50.0141L49.9992 67.6892L32.3291 50.0145L50 32.3395ZM50.5049 31.3285L56.8365 7.68985L74.1369 24.9945L50.5049 31.3285ZM32.0772 0.782292L56.2149 7.25127L55.6233 9.4597L49.7461 31.3962L25.6096 24.9275L32.0772 0.782292ZM24.9872 25.8699L31.3192 49.5084L7.68602 43.1747L24.9872 25.8699ZM7.24886 43.7977L29.7462 49.8265L31.3866 50.2661L24.9186 74.4112L0.782075 67.9425L7.24886 43.7977ZM25.6774 74.3432L32.009 50.7052L49.3086 68.0087L25.6774 74.3432ZM50.6891 68.0091L67.9902 50.7044L74.3222 74.3429L50.6891 68.0091ZM75.012 74.1588L68.68 50.5206L92.3132 56.854L75.012 74.1588Z" fill="rgb(255 255 255 / .1)" /><path d="M51.7268 46.6427C52.0565 47.0768 52.2209 47.5241 52.2209 47.9842H51.2896C51.2343 47.6877 51.1453 47.4559 51.0233 47.2886C50.7963 46.9745 50.453 46.8176 49.9934 46.8176C49.4664 46.8176 49.0485 47.0611 48.7381 47.5473C48.4276 48.034 48.2552 48.7304 48.2207 49.6371C48.4365 49.3197 48.7084 49.0826 49.0364 48.9258C49.3356 48.7862 49.6709 48.7164 50.0399 48.7164C50.668 48.7164 51.215 48.917 51.6819 49.3181C52.1495 49.7193 52.3829 50.3171 52.3829 51.1122C52.3829 51.7922 52.1615 52.3948 51.7188 52.9195C51.276 53.4443 50.6447 53.7066 49.8257 53.7066C49.1247 53.7066 48.5199 53.4411 48.0113 52.9091C47.502 52.3775 47.2477 51.4821 47.2477 50.2232C47.2477 49.2921 47.3608 48.5022 47.5878 47.8535C48.0233 46.6122 48.8199 45.9912 49.9773 45.9912C50.8139 45.9912 51.3971 46.2082 51.7268 46.6427L51.7268 46.6427ZM51.0209 52.3703C51.2664 52.0373 51.3891 51.6442 51.3891 51.1908C51.3891 50.8073 51.2792 50.4418 51.0602 50.0948C50.8404 49.7478 50.441 49.5745 49.8626 49.5745C49.4576 49.5745 49.103 49.7089 48.7982 49.9773C48.4934 50.2457 48.341 50.65 48.341 51.1908C48.341 51.665 48.479 52.0634 48.7565 52.3859C49.0332 52.7085 49.4183 52.8698 49.9092 52.8698C50.4041 52.8698 50.7747 52.7033 51.0209 52.3703V52.3703Z" fill="rgb(255 255 255 / .1)" /><path d="M84.319 44.4185V42.5876H81.035V41.6673L84.4657 36.9069H85.2607V41.7664H86.3636V42.5876H85.2607V44.4186H84.319L84.319 44.4185ZM84.3037 41.7664V38.3644L81.9029 41.7664H84.3037Z" fill="rgb(255 255 255 / .1)" /><path d="M38.6184 19.0602C38.2189 18.5735 38.0192 17.9818 38.0192 17.2842H39.0026C39.0443 17.7688 39.1349 18.121 39.2745 18.3409C39.5184 18.7348 39.9595 18.9318 40.598 18.9318C41.0929 18.9318 41.49 18.7994 41.79 18.5342C42.09 18.2694 42.24 17.9276 42.24 17.5092C42.24 16.9929 42.082 16.6322 41.7667 16.4264C41.4507 16.2206 41.0127 16.1175 40.4512 16.1175C40.3887 16.1175 40.3245 16.1187 40.2603 16.1203C40.1962 16.122 40.1304 16.1248 40.0646 16.128V15.2963C40.1617 15.3067 40.2435 15.314 40.3101 15.3172C40.3759 15.3208 40.448 15.3224 40.5243 15.3224C40.8764 15.3224 41.166 15.2666 41.3921 15.1551C41.79 14.9597 41.9889 14.6111 41.9889 14.1088C41.9889 13.7357 41.8558 13.4481 41.5911 13.2459C41.3264 13.0437 41.0176 12.9426 40.6654 12.9426C40.0382 12.9426 39.6042 13.1516 39.3636 13.5701C39.2312 13.8003 39.1558 14.1281 39.139 14.5537H38.2077C38.2077 13.9957 38.3192 13.5215 38.5422 13.1308C38.9256 12.4335 39.6002 12.0845 40.566 12.0845C41.3296 12.0845 41.9208 12.2546 42.3387 12.5948C42.7574 12.9346 42.9668 13.4272 42.9668 14.0723C42.9668 14.5329 42.8424 14.906 42.5954 15.1916C42.4422 15.3697 42.2432 15.5089 41.9994 15.6104C42.3932 15.7183 42.7004 15.9266 42.9218 16.2355C43.1432 16.544 43.2539 16.9215 43.2539 17.368C43.2539 18.0829 43.0189 18.665 42.548 19.1151C42.078 19.5648 41.4098 19.7899 40.5451 19.7899C39.6596 19.7899 39.0179 19.5464 38.6184 19.0602H38.6184Z" fill="rgb(255 255 255 / .1)" /><path d="M13.6721 60.9134C13.9039 60.4356 14.3563 60.0011 15.0293 59.6107L16.0328 59.0302C16.4828 58.7687 16.798 58.5452 16.9793 58.3599C17.2657 58.0698 17.4084 57.738 17.4084 57.3641C17.4084 56.9273 17.2777 56.5806 17.0162 56.3239C16.7547 56.0671 16.4066 55.9388 15.9702 55.9388C15.3253 55.9388 14.8793 56.1835 14.6315 56.6729C14.4991 56.9353 14.4261 57.2992 14.4117 57.7641H13.4547C13.4652 57.1122 13.5855 56.5803 13.8157 56.1687C14.224 55.4433 14.9435 55.0807 15.9758 55.0807C16.8333 55.0807 17.4598 55.3125 17.8552 55.7763C18.2515 56.2405 18.4488 56.7564 18.4488 57.3248C18.4488 57.9246 18.2378 58.4373 17.8167 58.8626C17.5721 59.1105 17.1349 59.4102 16.5036 59.7624L15.7873 60.16C15.4456 60.3481 15.1769 60.5278 14.982 60.6987C14.6331 61.002 14.4141 61.3386 14.3235 61.7081H18.4127V62.5975H13.2719C13.3071 61.9524 13.4403 61.3912 13.6721 60.9134V60.9134Z" fill="rgb(255 255 255 / .1)" /><path d="M34.0045 36.9354C34.0631 37.2596 34.1762 37.5099 34.343 37.686C34.5099 37.8621 34.7537 37.95 35.0738 37.95C35.4419 37.95 35.7235 37.8204 35.916 37.5604C36.1093 37.3009 36.2056 36.9739 36.2056 36.5796C36.2056 36.1924 36.1149 35.8659 35.9345 35.5991C35.754 35.3323 35.4716 35.1987 35.089 35.1987C34.9085 35.1987 34.7521 35.2216 34.6198 35.2669C34.3864 35.3504 34.2107 35.5056 34.0928 35.7323L32.7564 35.6697L33.289 31.4794H37.4609V32.7455H34.3639L34.0928 34.4036C34.323 34.2539 34.5019 34.1544 34.631 34.1055C34.8468 34.0253 35.1091 33.9851 35.4195 33.9851C36.046 33.9851 36.5922 34.1962 37.059 34.6182C37.5259 35.0402 37.7585 35.6536 37.7585 36.4592C37.7585 37.1605 37.5339 37.7863 37.0847 38.3371C36.6355 38.8883 35.9633 39.1635 35.0682 39.1635C34.347 39.1635 33.7551 38.9702 33.2922 38.583C32.8286 38.1959 32.5711 37.6467 32.519 36.9354H34.0045Z" fill="rgb(255 255 255 / .1)" /><path d="M18.5852 37.6985V36.6839C19.0544 36.663 19.3833 36.6313 19.571 36.5896C19.8702 36.5234 20.1132 36.3906 20.3009 36.192C20.4301 36.056 20.5271 35.8747 20.5929 35.648C20.6314 35.5121 20.6507 35.411 20.6507 35.3448H21.8956V42.9294H20.3683V37.6985H18.5852Z" fill="rgb(255 255 255 / .1)" /><path d="M34.0903 65.4338C34.0903 65.7371 34.1393 65.9882 34.2371 66.1868C34.4176 66.5531 34.7465 66.736 35.2229 66.736C35.5149 66.736 35.77 66.6361 35.9874 66.4355C36.2048 66.2349 36.3131 65.9465 36.3131 65.5698C36.3131 65.0711 36.1117 64.7381 35.7082 64.5705C35.4788 64.4766 35.1179 64.4292 34.6238 64.4292V63.3621C35.1066 63.3553 35.4443 63.3084 35.6352 63.2209C35.9649 63.0745 36.1302 62.7784 36.1302 62.3319C36.1302 62.0422 36.0459 61.8071 35.8775 61.6254C35.7082 61.4445 35.4708 61.3534 35.1652 61.3534C34.8139 61.3534 34.5556 61.4653 34.3912 61.6884C34.2259 61.9114 34.1465 62.2099 34.1537 62.583H32.7628C32.7765 62.2063 32.8406 61.8489 32.9553 61.5107C33.0773 61.2142 33.269 60.9402 33.5305 60.6895C33.7254 60.5113 33.9572 60.3753 34.2251 60.2815C34.493 60.1872 34.8227 60.1399 35.2125 60.1399C35.9369 60.1399 36.5208 60.3276 36.9652 60.7023C37.4088 61.0774 37.631 61.5805 37.631 62.2115C37.631 62.6581 37.4986 63.0344 37.2339 63.3413C37.0663 63.533 36.8922 63.6638 36.7109 63.7336C36.8465 63.7336 37.0422 63.8504 37.2965 64.0842C37.6767 64.4365 37.866 64.9175 37.866 65.5277C37.866 66.1696 37.6446 66.7336 37.2002 67.2198C36.7558 67.7065 36.0989 67.9496 35.2278 67.9496C34.1553 67.9496 33.4102 67.5993 32.9922 66.8985C32.7725 66.5254 32.6505 66.0372 32.6265 65.4338H34.0904L34.0903 65.4338Z" fill="rgb(255 255 255 / .1)" /><path d="M61.9507 60.7621C62.4192 60.2582 63.0288 60.0063 63.778 60.0063C64.9323 60.0063 65.7232 60.5174 66.1523 61.5392C66.3962 62.1181 66.5181 62.8799 66.5181 63.8251C66.5181 64.7422 66.4018 65.5076 66.1676 66.1214C65.7216 67.2897 64.9026 67.8738 63.7098 67.8738C63.1419 67.8738 62.631 67.7053 62.1778 67.3687C61.7246 67.0325 61.4647 66.5415 61.3989 65.8964H62.8836C62.9189 66.1194 63.0128 66.3007 63.166 66.4404C63.32 66.58 63.5237 66.6498 63.778 66.6498C64.2697 66.6498 64.6146 66.3778 64.8136 65.8334C64.9218 65.5337 64.9892 65.096 65.0173 64.5207C64.8817 64.6916 64.7366 64.8224 64.5834 64.9131C64.3042 65.0804 63.9609 65.1642 63.5534 65.1642C62.9502 65.1642 62.4152 64.9556 61.9475 64.5388C61.4807 64.1223 61.2473 63.5214 61.2473 62.7371C61.2473 61.9243 61.4815 61.2664 61.9507 60.7621L61.9507 60.7621ZM64.4582 63.7725C64.7959 63.5563 64.9651 63.1816 64.9651 62.648C64.9651 62.2192 64.8649 61.879 64.6643 61.6278C64.4638 61.3767 64.1895 61.2515 63.8405 61.2515C63.5863 61.2515 63.3681 61.323 63.1868 61.4658C62.9013 61.6888 62.7585 62.0675 62.7585 62.6011C62.7585 63.0508 62.8499 63.3882 63.0328 63.6133C63.2157 63.8379 63.4972 63.9507 63.8774 63.9507C64.0828 63.9507 64.2769 63.8913 64.4582 63.7725V63.7725Z" fill="rgb(255 255 255 / .1)" /><path d="M76.4725 59.3379V58.3234C76.9418 58.3025 77.2707 58.2708 77.4583 58.2291C77.7575 58.1629 78.0006 58.0301 78.1883 57.8315C78.3174 57.6955 78.4145 57.5142 78.4803 57.2875C78.5188 57.1515 78.538 57.0504 78.538 56.9842H79.7829V64.5689H78.2557V59.3379H76.4725Z" fill="rgb(255 255 255 / .1)" /><path d="M66.9833 32.8498C66.7595 33.0697 66.4491 33.4612 66.0504 34.0241C65.6526 34.5873 65.3189 35.169 65.0502 35.7688C64.8368 36.2394 64.6451 36.815 64.4734 37.495C64.3026 38.175 64.2168 38.7331 64.2168 39.1688H62.6686C62.7144 37.8088 63.1611 36.3946 64.009 34.9267C64.5569 34.0164 65.0157 33.3818 65.3855 33.0223H61.6074L61.6283 31.6832H66.9833V32.8498H66.9833Z" fill="rgb(255 255 255 / .1)" /><path d="M57.5583 19.8501V18.8355C58.0275 18.8146 58.3564 18.7829 58.5441 18.7412C58.8433 18.675 59.0863 18.5422 59.274 18.3436C59.4032 18.2077 59.5002 18.0263 59.566 17.7997C59.6045 17.6637 59.6238 17.5626 59.6238 17.4964H60.8687V25.081H59.3414V19.8501H57.5583Z" fill="rgb(255 255 255 / .1)" /></g></svg>