<svg version="1.1" xmlns="http://www.w3.org/2000/svg" xmlns:xlink="http://www.w3.org/1999/xlink" x="0px" y="0px" viewBox="0 0 432 408" style="enable-background:new 0 0 432 408;" xml:space="preserve" width="432" height="408" preserveAspectRatio="none"><style type="text/css">
	.st0{fill:none;stroke:#EDE5BB;stroke-width:3;stroke-linejoin:round;stroke-miterlimit:10;}
	.st1{fill:#A1B2C2;}
	.st2{fill:#7C8C99;}
	.st3{fill:#C5D0D9;}
	.st4{fill:#FFF9D4;}
	.st5{fill:#FFC4DA;}
	.st6{fill:#F2F2F2;}
	.st7{stroke:#000000;stroke-width:0.9864;stroke-miterlimit:10;}
	.st8{fill:#515F6E;}
	.st9{fill:none;}
	.st10{fill:#42152F;}
	.st11{fill:#611E45;}
	.st12{fill:#B34EA0;}
	.st13{fill:#FFFFFF;}
	.st14{fill:#852975;}
	.st15{fill:#8F9FAE;}
	.st16{display:none;}
	.st17{display:inline;}
	.st18{fill:none;stroke:#EA0000;stroke-width:4;stroke-miterlimit:10;}
	.st19{fill:none;stroke:#EA0000;stroke-width:4;stroke-miterlimit:10;stroke-dasharray:6.0068,6.0068;}
	.st20{fill:none;stroke:#EA0000;stroke-width:4;stroke-miterlimit:10;stroke-dasharray:6.0172,6.0172;}
	.st21{fill:none;stroke:#C1272D;stroke-miterlimit:10;}
	.st22{fill:none;stroke:#EDE5BB;stroke-width:2.1339;stroke-linejoin:round;stroke-miterlimit:10;}
	.st23{fill:#573827;}
	.st24{fill:#E349AD;stroke:#000000;stroke-width:0.6708;stroke-miterlimit:10;}
	.st25{fill:none;stroke:#C5DFEA;stroke-width:3;stroke-linejoin:round;stroke-miterlimit:10;}
	.st26{fill:#7D1D6C;}
	.st27{fill:#FFFFFF;stroke:#FFFFFF;stroke-miterlimit:10;}
	.st28{fill:#CCCCCC;}
	.st29{fill:#E6E6E6;}
	.st30{fill:#FF4D4D;}
	.st31{fill:#8B98A3;}
	.st32{fill:#AEE862;stroke:#000000;stroke-width:0.5391;stroke-miterlimit:10;}
</style><g id="Layer_3" /><g id="BG" /><g id="Open_Mouth" /><g id="Chew_1" /><g id="Chew_2" /><g id="Chew_3" /><g id="Chew_4" /><g id="Chew_5" /><g id="Chew_6" /><g id="Yucky_1" /><g id="Yucky_2" /><g id="Yucky_3" /><g id="Yummy_0" /><g id="Yummy_1" /><g id="Yummy_2" /><g id="Yummy_3" /><g id="Neutral_1" /><g id="Win_1" /><g id="Win_2"><g><path class="st25" d="M259.7,210c0,0-12.7,2.3-18.4-12.7C235.5,182.3,254.5,175.3,259.7,210z" /><path class="st1" d="M398.1,373.9c0.2-0.3,0.3-0.6,0.3-0.9c1.8-8.1-4.5-18.1-18.1-18.9c-8.9-0.5-25.8,10.2-33,15
			c-3.6,1.2-5.9,2.1-5.9,2.1l0.5,0.2c-10.3,1.6-19.9,4.6-22.1,7.4c0,0,23.3-4.7,34.8,6.4c11.6,11.2,23.8,21.2,29.3,13.6
			c2.1-2.9,2.4-6,1.5-9c4.1,1.6,8.4,2.4,10.9,0.3C400.4,386.9,401.5,379.8,398.1,373.9z" /><g><path class="st2" d="M362.9,365.3c2.9-1.9,6.1-3.2,9.5-4c1.7-0.4,3.4-0.6,5.2-0.7c1.8,0,3.5,0.1,5.3,0.4c1.7,0.4,3.4,0.9,5,1.7
				c1.6,0.8,3.1,1.8,4.3,3c2.6,2.4,4.4,5.4,5.6,8.7c-1.9-2.8-4.1-5.4-6.6-7.5c-2.6-2-5.6-3.4-8.8-4c-3.2-0.7-6.5-0.6-9.8-0.2
				C369.4,363.3,366.1,364.1,362.9,365.3z" /></g><g><path class="st2" d="M385.3,390.3c0-3.6-0.6-7.1-2.1-10.2c-1.5-3.1-4.1-5.4-7.2-6.7c-1.6-0.6-3.2-1.1-4.9-1.3
				c-0.8-0.1-1.7-0.2-2.6-0.3c-0.9,0-1.7-0.1-2.6-0.1c-3.5,0-7,0.4-10.6,0.8c3.4-1.2,6.9-2,10.6-2.3c3.6-0.3,7.4,0,10.9,1.4
				c1.7,0.7,3.4,1.8,4.8,3.1c1.3,1.4,2.4,3,3.1,4.7C386.1,383,386.2,386.8,385.3,390.3z" /></g><path class="st1" d="M242.2,377.1l0.5-0.2c0,0-2.2-0.9-5.9-2.1c-7.1-4.8-24.1-15.5-33-15c-13.6,0.7-19.9,10.8-18.1,18.9
			c0.1,0.3,0.2,0.6,0.3,0.9c-3.4,5.9-2.3,13,1.7,16.3c2.5,2.1,6.8,1.3,10.9-0.3c-0.8,3.1-0.6,6.1,1.5,9c5.5,7.5,17.7-2.5,29.3-13.6
			c11.5-11.1,34.8-6.4,34.8-6.4C262.1,381.7,252.5,378.8,242.2,377.1z" /><g><path class="st2" d="M221.2,370.9c-3.2-1.1-6.5-2-9.8-2.4c-3.3-0.4-6.6-0.5-9.8,0.2c-3.2,0.6-6.2,2-8.8,4c-2.6,2-4.7,4.6-6.6,7.5
				c1.2-3.2,3-6.2,5.6-8.7c1.3-1.2,2.8-2.2,4.3-3c1.6-0.8,3.3-1.4,5-1.7c1.7-0.3,3.5-0.5,5.3-0.4c1.8,0.1,3.5,0.3,5.2,0.7
				C215,367.7,218.3,369,221.2,370.9z" /></g><g><path class="st2" d="M198.7,396c-0.9-3.5-0.7-7.3,0.7-10.8c0.7-1.8,1.7-3.4,3.1-4.7c1.4-1.4,3-2.4,4.8-3.1
				c3.5-1.4,7.3-1.7,10.9-1.4c3.6,0.3,7.2,1.1,10.6,2.3c-3.6-0.4-7.1-0.8-10.6-0.8c-0.9,0-1.7,0.1-2.6,0.1c-0.9,0.1-1.7,0.1-2.6,0.3
				c-1.7,0.2-3.4,0.7-4.9,1.3c-3.1,1.2-5.7,3.6-7.2,6.7C199.3,388.8,198.7,392.4,198.7,396z" /></g><path class="st2" d="M329.5,236.5c-2.5-6.8-3.7-14.9-2.9-24.5l-73-41.6c0,0-2.7,19.2,4,34s6.3,43.2-23.7,45.2
			c-6.7,0.4-20.9-1.8-26.3-6.6c1.8-7.5,10.8-49.8-12.9-66.4c-18.1-12.6-41.5-4.6-44.6,20.8c0,0-27.4,9.8-23.2,28.5
			c4.4,19.4-4.9,43-28.7,43.3c0,0,20.9,7.4,29.7-5.3c0,0-2.1,25.1-39.8,30.4c0,0,69.2,10.2,77.2-42.4c5.2-34.2-12.7-81.7,19.9-69.3
			c11.9,4.5,24,20.7,10,68.9c-1.7,5.7-4,12.1-6.4,18.6c-5.8,15.7-17.9,87.3,52.8,109.2c42.6,13.2,85.7,8.6,110.8-9.3L329.5,236.5z" /><path class="st1" d="M324.9,221.9c0,0,24.5,26.2,55,31.3c24.2,4,25.5,30,8.1,25.1c-9.2-2.6-14.3-19.2-14.3-19.2s-26-4-51.5-28.7
			L324.9,221.9z" /><path class="st1" d="M261.3,218.6c0,0-10.6,31.5-44.1,43.3c-6.6,2.3-18.4,11.6-15.2,25.1c3.1,13.4,13.4,5.4,16.1-2.7
			s3.3-16,3.3-16s28.9-6.8,41.9-40.4L261.3,218.6z" /><path class="st3" d="M329.5,236.5c0,0-5.1-17.8-3.3-33l-46.6,1.3c0,0-4.5,53.3-41.2,62.7l11.6,3.6c0.1-0.1-19.7,5.9-31.8,26.4
			l11.6-4c0,0-60,60.8,11.6,86c66.3,23.3,110.2-7.8,110.2-7.8c16.6-11.8,25.8-32.5,21.4-54.4l7.2,4.4c0,0,3.6-31.3-21.5-45.7
			l11.6,1.2c0,0-7.6-9.6-17.4-14.6C344.9,258.5,334.9,251.3,329.5,236.5" /><ellipse transform="matrix(0.9992 -4.031137e-02 4.031137e-02 0.9992 -6.1994 15.7434)" class="st6" cx="387.3" cy="161.6" rx="20.6" ry="19" /><ellipse transform="matrix(0.9992 -4.031157e-02 4.031157e-02 0.9992 -6.4283 16.0157)" cx="393.9" cy="167.4" rx="11.1" ry="11.5" /><path class="st5" d="M262.3,158.1c0,0-29.7-3.5-37.9-32.7s2.1-41.4,14.3-51.2c0,0-5.2,11,1.2,18.2c6.4,7.2,27.6,10.6,33,27.7
			s4.2,33.1,4.2,33.1L262.3,158.1z" /><path class="st5" d="M359.9,89.4c0,0,10.2-3.2,9.8-13.5c0,0,25.1,40.3-8,58l-26-5c0,0-4.5-19,5.5-27.4
			C351.1,93,359.9,89.4,359.9,89.4z" /><path class="st2" d="M401.8,175.9c1.1,27-31.9,45.8-73.4,47.5c-41.5,1.7-80.6-19.1-77.1-45.9c3.7-28.7,31.7-50.3,73.2-52
			C366,123.9,400.7,148.9,401.8,175.9z" /><path class="st2" d="M405.5,185.6l-14.4,4.3l-2.1-41.2C389,148.7,403.7,163.6,405.5,185.6z" /><path class="st2" d="M332.4,128.5l9.5,2.4c0,0-8.1-17,4.9-28.8c10.9-9.8,24.6-11.9,23.5-23.1c0,0-6.2,6.7-16.5,11.6
			C343.9,95.3,322.1,106.9,332.4,128.5z" /><path class="st2" d="M241.3,67.9c0,0-11.5,17.8,10,27.7s35.1,22.5,31.4,45.2l-12.8,7.6c0,0,7-26.7-8.6-38.3
			C254.2,104.8,224,93,241.3,67.9z" /><ellipse transform="matrix(0.9992 -4.031131e-02 4.031131e-02 0.9992 -6.5718 12.7831)" class="st6" cx="313.7" cy="169.4" rx="22.7" ry="21.8" /><ellipse transform="matrix(0.9992 -4.031157e-02 4.031157e-02 0.9992 -6.9367 12.6885)" cx="311.2" cy="178.4" rx="12.9" ry="13.4" /><g><path class="st8" d="M405.5,185.6c-9.6,3.9-19.6,6.7-29.7,8.9c-2.5,0.5-5.1,1.1-7.6,1.5l-7.7,1.3c-5.1,0.7-10.3,1.3-15.5,1.7
				c-2.6,0.2-5.2,0.4-7.8,0.5l-7.8,0.3l-7.8-0.1c-1.3,0-2.6,0-3.9-0.1l-3.9-0.3c-10.4-0.5-20.6-2.2-30.7-4.4c10.3,0.9,20.5,2,30.8,2
				l3.8,0.1c1.3,0,2.6,0,3.9,0l7.7-0.1c5.1-0.3,10.3-0.4,15.4-0.9c10.2-0.8,20.4-2.1,30.6-3.8C385.4,190.3,395.5,188.2,405.5,185.6z
				" /></g><g><path class="st8" d="M291.5,188.5c-1.3,1-2.4,2.1-3.5,3.1c-1.1,1.1-2,2.2-2.8,3.5c-0.4,0.6-0.7,1.3-1.1,1.9
				c-0.3,0.7-0.6,1.3-0.8,2.1c-0.5,1.4-0.7,2.9-1.1,4.6c-0.5-1.5-0.8-3.2-0.5-4.9c0-0.9,0.3-1.7,0.6-2.5c0.3-0.8,0.7-1.6,1.2-2.3
				c0.9-1.4,2.1-2.7,3.5-3.6C288.4,189.4,289.9,188.7,291.5,188.5z" /></g><ellipse transform="matrix(0.678 -0.735 0.735 0.678 -7.4837 335.7469)" class="st8" cx="379.5" cy="176.4" rx="6.1" ry="3.6" /><ellipse transform="matrix(0.6493 -0.7605 0.7605 0.6493 5.8615 361.1471)" class="st8" cx="394.5" cy="174.2" rx="3.4" ry="5.2" /><g><path class="st2" d="M250,57.3c-2.1,2.2-3.8,4.6-5.3,7.1c-1.5,2.5-2.7,5.2-3.6,8c-0.9,2.7-1.2,5.6-1.2,8.4l0.1,2.1l0.4,2
				c0.1,0.3,0.1,0.7,0.2,1l0.3,1l0.6,2l-4,1.3l-0.5-2.4l-0.2-1.2c0-0.4-0.1-0.8-0.1-1.2l-0.1-2.4l0.1-2.4c0.3-3.1,1.1-6.2,2.3-9
				c1.2-2.8,2.8-5.4,4.7-7.8C245.6,61.5,247.7,59.3,250,57.3z" /></g><g><path class="st2" d="M363,85.9c2.9-2.7,5.4-6,6.3-9.8c0.9-3.8,0.2-7.9-1.9-11.5c-2.1-3.6-5.2-6.6-8.7-8.9c-3.5-2.3-7.5-4-11.7-5
				c4.3,0.6,8.4,2,12.3,4.1c3.8,2.1,7.3,4.9,9.9,8.7c1.3,1.9,2.3,3.9,2.9,6.2c0.6,2.2,0.7,4.6,0.4,7c-0.4,2.3-1.2,4.6-2.3,6.6
				c-1.1,2-2.5,3.9-4.1,5.6L363,85.9z" /></g><g><path class="st2" d="M365,83.8c0.3-0.3,0.8-0.9,1.1-1.4c0.4-0.5,0.7-1,1-1.6c0.5-1.1,0.9-2.3,1.1-3.5c0.3-2.4-0.5-4.9-2.1-7.1
				c-1.6-2.1-3.8-3.9-6.2-5.4c-2.4-1.5-5-2.7-7.6-3.8c2.7,0.8,5.5,1.7,8.1,2.9c2.6,1.2,5.2,2.7,7.3,4.9c1,1.1,2,2.4,2.6,3.8
				c0.7,1.5,1,3.1,1,4.7c0,1.6-0.3,3.3-0.8,4.8c-0.3,0.8-0.6,1.5-1,2.2c-0.4,0.7-0.8,1.4-1.4,2.1L365,83.8z" /></g><g><path class="st2" d="M240.5,94.5c-0.4-0.9-0.7-1.6-0.9-2.4c-0.3-0.8-0.5-1.6-0.7-2.4c-0.4-1.6-0.7-3.2-0.8-4.9
				c-0.1-1.7,0-3.4,0.5-5.1c0.4-1.7,1.2-3.3,2.4-4.6c1.1-1.3,2.5-2.3,4-3c1.5-0.7,3-1.1,4.6-1.4c3.1-0.5,6.2-0.5,9.2-0.2
				c-3,0.2-6.1,0.6-8.9,1.5c-1.4,0.5-2.7,1-3.9,1.8c-1.2,0.8-2.2,1.7-2.9,2.8c-1.4,2.2-1.6,5-1,7.6c0.3,1.3,0.7,2.7,1.2,3.9
				c0.3,0.6,0.6,1.3,0.9,1.9c0.3,0.6,0.7,1.3,1,1.7L240.5,94.5z" /></g><g><g><path class="st2" d="M382.4,260.2c1.8,0.6,3.5,1.6,5,2.8c1.5,1.2,2.8,2.7,3.9,4.4c1,1.7,1.6,3.7,1.7,5.6c0.2,2-0.5,3.9-1.4,5.6
					c0.1-1.9,0.2-3.7-0.2-5.4c-0.4-1.7-1-3.3-1.9-4.8C387.6,265.4,385.1,262.8,382.4,260.2z" /></g><g><path class="st2" d="M390.5,259.4c1.6,0.3,3,1.1,4.2,2.2c1.2,1.1,2.2,2.4,2.9,3.9c0.7,1.5,1.1,3,1.3,4.6
					c0.1,0.8,0.1,1.6,0.2,2.4c-0.1,0.8-0.1,1.6-0.2,2.4c-0.1-0.8-0.2-1.6-0.3-2.3c-0.2-0.8-0.3-1.5-0.4-2.3
					c-0.2-0.7-0.3-1.5-0.6-2.2c-0.1-0.4-0.2-0.7-0.4-1.1l-0.5-1c-0.7-1.4-1.5-2.6-2.5-3.8C393.1,261.1,391.9,260.1,390.5,259.4z" /></g></g><g><g><path class="st2" d="M214.7,272.2c-1.7,3.4-3.1,6.7-3.7,10.1c-0.3,1.7-0.4,3.4-0.3,5.2c0,0.4,0.1,0.9,0.1,1.3l0.3,1.3
					c0,0.2,0.1,0.4,0.1,0.7c0.1,0.2,0.2,0.4,0.2,0.6c0.1,0.4,0.3,0.9,0.4,1.3c-0.3-0.4-0.6-0.7-0.9-1.1c-0.2-0.2-0.3-0.4-0.4-0.6
					c-0.1-0.2-0.2-0.4-0.3-0.6l-0.6-1.3c-0.2-0.5-0.3-0.9-0.4-1.4c-0.5-1.9-0.5-3.9-0.1-5.8c0.4-1.9,1.1-3.7,2.1-5.4
					C212.1,274.9,213.3,273.3,214.7,272.2z" /></g><g><path class="st2" d="M207.2,273.3c-1.1,1.2-1.8,2.5-2.3,3.9c-0.5,1.4-0.9,2.9-1.1,4.4l-0.1,1.1l0,1.1c-0.1,0.8,0,1.5,0,2.3
					l0.1,2.3c0.1,0.8,0.2,1.5,0.2,2.3c-0.3-0.7-0.5-1.5-0.7-2.2c-0.2-0.8-0.3-1.5-0.4-2.3c-0.2-1.6-0.3-3.2,0-4.8
					c0.2-1.6,0.6-3.2,1.4-4.6C204.9,275.4,205.9,274.1,207.2,273.3z" /></g></g><path class="st25" d="M259.1,210.5c0,0-21.3-6.1-21.3,9.6S256.5,215.2,259.1,210.5z" /><path class="st4" d="M328.4,223.3c0,0,72.6,56.2-21.8,56.5c-64.2,0.2-58.5-10.8-49.5-76.7C269.9,224.7,290.7,231.7,328.4,223.3z" /><path class="st2" d="M334.9,160.8c-12.8,9.6-28.3,13.2-45,13.5c0,0-2.4-12.5,6.9-21.3c14.5-13.6,34.3-1.9,34.3-1.9L334.9,160.8z" /><path class="st2" d="M374.8,146.3c3.6-2.4,8.1-3.8,12.9-3.6c11.4,0.4,20.3,9.2,20,19.7C399.2,160.7,386.9,153.4,374.8,146.3z" /><g><path class="st8" d="M327,143.2c3.4,2.6,6.1,6,8.3,9.7c2.2,3.7,3.9,7.8,4.8,12.1c0.4,2.2,0.6,4.4,0.6,6.6c0,2.2-0.3,4.4-0.9,6.6
				c-1.1,4.3-3.3,8.2-6.3,11.2c0.7-2,1.5-3.9,2-5.9c0.3-1,0.5-2,0.7-2.9c0.1-1,0.4-2,0.4-3c0.1-1,0.2-2,0.2-3c0-1,0-2-0.1-3
				c-0.1-2-0.3-3.9-0.7-5.9c-0.8-3.9-2-7.7-3.6-11.4C330.9,150.6,329.1,146.9,327,143.2z" /></g></g></g><g id="Win_3" /><g id="Win_4" /><g id="Win_5" /><g id="Win_6" /><g id="Win_7" /><g id="Win_8" /><g id="Win_9_00000070117181118771457000000017804805890223002288_" /><g id="Lose_1" /><g id="Lose_2" /><g id="Lose_3" /><g id="Lose_4" /></svg>