<svg version="1.1" xmlns="http://www.w3.org/2000/svg" xmlns:xlink="http://www.w3.org/1999/xlink" x="0px" y="0px" viewBox="0 0 432 408" style="enable-background:new 0 0 432 408;" xml:space="preserve" width="432" height="408" preserveAspectRatio="none"><style type="text/css">.st0{fill:none;stroke:#EDE5BB;stroke-width:3;stroke-linejoin:round;stroke-miterlimit:10;}
.st1{fill:#A1B2C2;}
.st2{fill:#7C8C99;}
.st3{fill:#C5D0D9;}
.st4{fill:#FFF9D4;}
.st5{fill:#FFC4DA;}
.st6{fill:#F2F2F2;}
.st8{fill:#515F6E;}
.st9{fill:none;}
.st10{fill:#42152F;}
.st11{fill:#611E45;}
.st12{fill:#B34EA0;}
.st13{fill:#FFFFFF;}
.st14{fill:#852975;}
.st15{fill:#C5DFEA;}
.st16{fill:#8F9FAE;}</style><g id="Yucky_1"><path class="st2" d="M329.5,236.5c-2.5-6.8-3.7-14.9-2.9-24.5l-73-41.6c0,0-2.7,19.2,4,34c6.7,14.8,6.3,43.2-23.7,45.2
		c-6.6,0.4-19.8-1.1-25.4-5.9c0.2-0.6,13.2-42-6.5-63.3c-1-1.1-7.5-7-15-10.7c-16.3-7.9-34-3.6-34-3.6l0,0.1
		c-7.9,1.8-15.9,6.1-21.1,13.3c0,0-28.7-4.9-34.2,13.4c-5.7,19-25.3,35.1-46.2,23.7c0,0,14.5,16.7,28.5,10c0,0-14.2,20.8-49.7,7
		c0,0,55.3,42.8,88.1,0.9c15-19.2,23.3-49.8,34.6-56.8c0.2-0.1,0.4-0.3,0.7-0.4c10.5-4.5,21.1-2.3,28.2,0.9
		c6.2,2.8,11.5,7.2,14.4,10.3c8,8.8,11,27.9-2.6,67.5l0.1-0.1c-1.5,4.5-3.2,9.3-5.2,14.4c-6.1,15.6-17.9,87.3,52.8,109.2
		c42.6,13.2,85.7,8.6,110.8-9.3L329.5,236.5z" /><g><path class="st9" d="M259.8,210.1c0,0-11,6.6-21.7-5.4C227.5,192.7,242.8,179.5,259.8,210.1z" /></g><g><path class="st9" d="M259.2,210.5c0,0-22.1,0.4-17.5,15.4C246.3,241,258,215.8,259.2,210.5z" /></g><path class="st2" d="M383.7,259.7c-32-24.2-63.7-41-63.7-41L317,227c22.4,11.3,39.2,20.8,60,34.8c0,0,0,0,0,0.1
		c-1,1.4-10.7,15.4-2.2,14.1c4.1-0.7,5.9-3.9,6.6-7.2c3.7,4.6,9.6,9.7,17.5,9C410.6,276.7,402.4,264.5,383.7,259.7z" /><path class="st2" d="M398.1,373.9c0.2-0.3,0.3-0.6,0.3-0.9c1.8-8.1-4.5-18.1-18.1-18.9c-8.9-0.5-25.8,10.2-33,15
		c-3.6,1.2-5.9,2.1-5.9,2.1l0.5,0.2c-10.3,1.6-19.9,4.6-22.1,7.4c0,0,23.3-4.7,34.8,6.4c11.6,11.2,23.8,21.2,29.3,13.6
		c2.1-2.9,2.4-6,1.5-9c4.1,1.6,8.4,2.4,10.9,0.3C400.4,386.9,401.5,379.8,398.1,373.9z" /><path class="st2" d="M362.9,365.3c0,0,23.9-12.8,34.9,9.2" /><path class="st2" d="M385.3,390.3c0,0,4.4-26-30-17.8" /><path class="st2" d="M242.2,377.1l0.5-0.2c0,0-2.2-0.9-5.9-2.1c-7.1-4.8-24.1-15.5-33-15c-13.6,0.7-19.9,10.8-18.1,18.9
		c0.1,0.3,0.2,0.6,0.3,0.9c-3.4,5.9-2.3,13,1.7,16.3c2.5,2.1,6.8,1.3,10.9-0.3c-0.8,3.1-0.6,6.1,1.5,9c5.5,7.5,17.7-2.5,29.3-13.6
		c11.5-11.1,34.8-6.4,34.8-6.4C262.1,381.7,252.5,378.8,242.2,377.1z" /><path class="st2" d="M221.2,370.9c0,0-23.9-12.8-34.9,9.2" /><path class="st2" d="M198.7,396c0,0-4.4-26,30-17.8" /><path class="st2" d="M329.5,236.5c0,0-5.1-17.8-3.3-33l-46.6,1.3c0,0-4.5,53.3-41.2,62.7l11.6,3.6c0.1-0.1-19.7,5.9-31.8,26.4
		l11.6-4c0,0-60,60.8,11.6,86c66.3,23.3,110.2-7.8,110.2-7.8c16.6-11.8,25.8-32.5,21.4-54.4l7.2,4.4c0,0,3.6-31.3-21.5-45.7
		l11.6,1.2c0,0-7.6-9.6-17.4-14.6C344.9,258.5,334.9,251.3,329.5,236.5" /><path class="st2" d="M208.5,267.7c0-0.1,0-0.2,0-0.2c20.4-13.4,33.1-21.1,55-39.5l-2.1-9.2c0,0-27,25.5-59.9,45.4
		c-9.9,3.2-20,30.1-4.6,29c7.3-0.5,10-9.9,11-17.2c2,5.4,5.9,13.4,9.2,8.1C221.3,277.4,210.4,269.1,208.5,267.7z" /><path class="st2" d="M386.7,224.9c0,0,13.5,6.7,7.6,11.3C388.1,240.9,386.7,224.9,386.7,224.9z" /><path class="st2" d="M200.5,268.1c0,0-10.5,11.5-6.5,24.4" /><path class="st2" d="M387,263.5c0,0,14,3.5,16.8,14" /><path class="st2" d="M328.4,223.3c0,0,72.6,56.2-21.8,56.5c-64.2,0.2-58.5-10.8-49.5-76.7C269.9,224.7,290.7,231.7,328.4,223.3z" /><ellipse transform="matrix(0.9992 -4.031137e-02 4.031137e-02 0.9992 -6.0446 15.6467)" class="st2" cx="385" cy="157.7" rx="20.6" ry="19" /><ellipse transform="matrix(0.9992 -4.031146e-02 4.031146e-02 0.9992 -6.1295 15.9301)" class="st2" cx="392" cy="160" rx="11.1" ry="12.8" /><path class="st2" d="M307.2,193.5c1.2,11.8-11.1,23.1-34.2,22.8c-11.4-0.1-29.2-12.5-29.1-28.6c0.1-11.9,9.2-21.5,20.6-21.5
		C275.9,166.1,305.6,178,307.2,193.5z" /><path class="st2" d="M373.5,173.5c3.5,2.1,7.7,3.3,12.3,3.2c8.3-0.3,15.3-5.1,18.3-11.8L373.5,173.5z" /><path class="st2" d="M399.6,193.7l-8.4-3.8l-2.1-41.2C389,148.7,401.6,162.8,399.6,193.7z" /><path class="st2" d="M401.9,175.9c1.1,27-31.9,45.8-73.4,47.5c-41.5,1.7-80.6-19.1-77.1-45.9c3.7-28.7,31.7-50.3,73.2-52
		C366.1,123.9,400.8,148.9,401.9,175.9z" /><ellipse transform="matrix(0.9992 -4.031131e-02 4.031131e-02 0.9992 -6.2414 12.5873)" class="st2" cx="309" cy="161.1" rx="22.7" ry="21.8" /><ellipse transform="matrix(0.9992 -4.031151e-02 4.031151e-02 0.9992 -6.4336 12.6123)" class="st2" cx="309.5" cy="165.8" rx="12.9" ry="13.7" /><ellipse transform="matrix(0.8908 -0.4543 0.4543 0.8908 -36.6773 188.8815)" class="st2" cx="374.7" cy="170.8" rx="6.1" ry="3.6" /><ellipse transform="matrix(0.6493 -0.7605 0.7605 0.6493 7.3426 356.5861)" class="st2" cx="390.3" cy="170.3" rx="3.4" ry="5.2" /><path class="st2" d="M323.5,134.9c0,0,21.5,23.7,6.6,46.1" /><path class="st2" d="M276.7,202.8c18.3,3.5,62.8,26.1,99.2,17.1c22.4-5.6-19-32.6-22.9-32c-15.9,2.8-48,6.5-72.4,13.2
		C279,201.6,274.1,202.3,276.7,202.8z" /><path class="st2" d="M385.3,186.4c-36.9-3.4-47.1,0.6-78.7,6.8c-27,5.3-40.1,11.4-25.6,9.6c17.1-4.2,43.9-12.5,94.9,4.7
		C380.1,205.2,411.4,188.8,385.3,186.4z" /><g><path class="st2" d="M329.3,195.2c38.3-2.2,44.5,19.5,26.2,19.6c-16.3,0.1-30.3-3.8-47.4-7.5c-6.6-1.4-12.9-3.4-18.3-4
			c-6.6-0.8-7.7-1.3-0.1-3C298.2,198.4,311.5,196.2,329.3,195.2z" /><path class="st2" d="M309.6,197c29.8-4.4,45.6,3.8,53.9,15.8" /></g><path class="st2" d="M390.1,187.3c0,0,0.3,13.6,2.3,15.4c2,1.8,5.1-2.3,7.1-9C399.5,193.7,398.5,187.8,390.1,187.3z" /><path class="st2" d="M359.4,185.1c0,0-8.1,19.9-12.8,20.1c-7.1,0.3-9.6-18.3-9.6-18.3C343.5,185.8,349.9,185.2,359.4,185.1z" /><path class="st2" d="M379.7,205.4l-3.5,2c2.9,1.8,5.4,7.3-0.7,8.6c-33.5,7.1-92.6-11.6-92.6-11.6l-7.6,8.1
		c11.1,10.7,80.9,19.8,110.3,9.3C397.7,217.5,387.7,208.7,379.7,205.4z" /><path class="st2" d="M309.9,182.8c3.1-0.1,6-0.8,8.7-2l-29.3-9C293.3,178.7,301.1,183.2,309.9,182.8z" /><path class="st2" d="M329.5,236.5c-2.5-6.8-3.7-14.9-2.9-24.5l-73-41.6c0,0-2.7,19.2,4,34c6.7,14.8,6.3,43.2-23.7,45.2
		c-6.6,0.4-19.8-1.1-25.4-5.9c0.2-0.6,13.2-42-6.5-63.3c-1-1.1-7.5-7-15-10.7c-16.3-7.9-34-3.6-34-3.6l0,0.1
		c-7.9,1.8-15.9,6.1-21.1,13.3c0,0-28.7-4.9-34.2,13.4c-5.7,19-25.3,35.1-46.2,23.7c0,0,14.5,16.7,28.5,10c0,0-14.2,20.8-49.7,7
		c0,0,55.3,42.8,88.1,0.9c15-19.2,23.3-49.8,34.6-56.8c0.2-0.1,0.4-0.3,0.7-0.4c10.5-4.5,21.1-2.3,28.2,0.9
		c6.2,2.8,11.5,7.2,14.4,10.3c8,8.8,11,27.9-2.6,67.5l0.1-0.1c-1.5,4.5-3.2,9.3-5.2,14.4c-6.1,15.6-17.9,87.3,52.8,109.2
		c42.6,13.2,85.7,8.6,110.8-9.3L329.5,236.5z" /><path class="st0" d="M259.8,210.1c0,0-11,6.6-21.7-5.4C227.5,192.7,242.8,179.5,259.8,210.1z" /><path class="st0" d="M259.2,210.5c0,0-22.1,0.4-17.5,15.4C246.3,241,258,215.8,259.2,210.5z" /><path class="st1" d="M383.7,259.7c-32-24.2-63.7-41-63.7-41L317,227c22.4,11.3,39.2,20.8,60,34.8c0,0,0,0,0,0.1
		c-1,1.4-10.7,15.4-2.2,14.1c4.1-0.7,5.9-3.9,6.6-7.2c3.7,4.6,9.6,9.7,17.5,9C410.6,276.7,402.4,264.5,383.7,259.7z" /><path class="st1" d="M398.1,373.9c0.2-0.3,0.3-0.6,0.3-0.9c1.8-8.1-4.5-18.1-18.1-18.9c-8.9-0.5-25.8,10.2-33,15
		c-3.6,1.2-5.9,2.1-5.9,2.1l0.5,0.2c-10.3,1.6-19.9,4.6-22.1,7.4c0,0,23.3-4.7,34.8,6.4c11.6,11.2,23.8,21.2,29.3,13.6
		c2.1-2.9,2.4-6,1.5-9c4.1,1.6,8.4,2.4,10.9,0.3C400.4,386.9,401.5,379.8,398.1,373.9z" /><g><path class="st2" d="M362.9,365.3c2.9-1.9,6.1-3.2,9.5-4c1.7-0.4,3.4-0.6,5.2-0.7c1.8,0,3.5,0.1,5.3,0.4c1.7,0.4,3.4,0.9,5,1.7
			c1.6,0.8,3.1,1.8,4.3,3c2.6,2.4,4.4,5.4,5.6,8.7c-1.9-2.8-4.1-5.4-6.6-7.5c-2.6-2-5.6-3.4-8.8-4c-3.2-0.7-6.5-0.6-9.8-0.2
			C369.4,363.3,366.1,364.1,362.9,365.3z" /></g><g><path class="st2" d="M385.3,390.3c0-3.6-0.6-7.1-2.1-10.2c-1.5-3.1-4.1-5.4-7.2-6.7c-1.6-0.6-3.2-1.1-4.9-1.3
			c-0.8-0.1-1.7-0.2-2.6-0.3c-0.9,0-1.7-0.1-2.6-0.1c-3.5,0-7,0.4-10.6,0.8c3.4-1.2,6.9-2,10.6-2.3c3.6-0.3,7.4,0,10.9,1.4
			c1.7,0.7,3.4,1.8,4.8,3.1c1.3,1.4,2.4,3,3.1,4.7C386.1,383,386.2,386.8,385.3,390.3z" /></g><path class="st1" d="M242.2,377.1l0.5-0.2c0,0-2.2-0.9-5.9-2.1c-7.1-4.8-24.1-15.5-33-15c-13.6,0.7-19.9,10.8-18.1,18.9
		c0.1,0.3,0.2,0.6,0.3,0.9c-3.4,5.9-2.3,13,1.7,16.3c2.5,2.1,6.8,1.3,10.9-0.3c-0.8,3.1-0.6,6.1,1.5,9c5.5,7.5,17.7-2.5,29.3-13.6
		c11.5-11.1,34.8-6.4,34.8-6.4C262.1,381.7,252.5,378.8,242.2,377.1z" /><g><path class="st2" d="M221.2,370.9c-3.2-1.1-6.5-2-9.8-2.4c-3.3-0.4-6.6-0.5-9.8,0.2c-3.2,0.6-6.2,2-8.8,4c-2.6,2-4.7,4.6-6.6,7.5
			c1.2-3.2,3-6.2,5.6-8.7c1.3-1.2,2.8-2.2,4.3-3c1.6-0.8,3.3-1.4,5-1.7c1.7-0.3,3.5-0.5,5.3-0.4c1.8,0.1,3.5,0.3,5.2,0.7
			C215,367.7,218.3,369,221.2,370.9z" /></g><g><path class="st2" d="M198.7,396c-0.9-3.5-0.7-7.3,0.7-10.8c0.7-1.8,1.7-3.4,3.1-4.7c1.4-1.4,3-2.4,4.8-3.1
			c3.5-1.4,7.3-1.7,10.9-1.4c3.6,0.3,7.2,1.1,10.6,2.3c-3.6-0.4-7.1-0.8-10.6-0.8c-0.9,0-1.7,0.1-2.6,0.1c-0.9,0.1-1.7,0.1-2.6,0.3
			c-1.7,0.2-3.4,0.7-4.9,1.3c-3.1,1.2-5.7,3.6-7.2,6.7C199.3,388.8,198.7,392.4,198.7,396z" /></g><path class="st3" d="M329.5,236.5c0,0-5.1-17.8-3.3-33l-46.6,1.3c0,0-4.5,53.3-41.2,62.7l11.6,3.6c0.1-0.1-19.7,5.9-31.8,26.4
		l11.6-4c0,0-60,60.8,11.6,86c66.3,23.3,110.2-7.8,110.2-7.8c16.6-11.8,25.8-32.5,21.4-54.4l7.2,4.4c0,0,3.6-31.3-21.5-45.7
		l11.6,1.2c0,0-7.6-9.6-17.4-14.6C344.9,258.5,334.9,251.3,329.5,236.5" /><path class="st1" d="M208.5,267.7c0-0.1,0-0.2,0-0.2c20.4-13.4,33.1-21.1,55-39.5l-2.1-9.2c0,0-27,25.5-59.9,45.4
		c-9.9,3.2-20,30.1-4.6,29c7.3-0.5,10-9.9,11-17.2c2,5.4,5.9,13.4,9.2,8.1C221.3,277.4,210.4,269.1,208.5,267.7z" /><path class="st15" d="M386.7,224.9c0,0,13.5,6.7,7.6,11.3C388.1,240.9,386.7,224.9,386.7,224.9z" /><g><path class="st2" d="M200.5,268.1c-0.6,0.9-1.3,1.8-1.8,2.7c-0.6,0.9-1.1,1.9-1.6,2.8c-1,1.9-1.8,3.9-2.5,6
			c-0.7,2.1-1,4.2-1.2,6.3l-0.1,1.6c0,0.5,0.1,1.1,0.1,1.6l0,0.8l0.1,0.8c0.1,0.5,0.2,1.1,0.3,1.6c-0.8-2.1-1.3-4.3-1.3-6.5
			c0-2.2,0.3-4.5,1-6.6c0.7-2.1,1.6-4.2,2.7-6.1C197.5,271.4,198.9,269.6,200.5,268.1z" /></g><g><path class="st2" d="M387,263.5c1.9,0.3,3.7,0.9,5.5,1.7c1.8,0.8,3.5,1.7,5,2.9c1.5,1.2,2.9,2.5,4.1,4.1c1.1,1.6,1.9,3.4,2.2,5.3
			c-0.8-1.8-1.7-3.4-2.9-4.8c-1.2-1.4-2.6-2.7-4.1-3.8c-1.5-1.1-3.1-2.1-4.8-3C390.4,265,388.7,264.2,387,263.5z" /></g><path class="st4" d="M328.4,223.3c0,0,72.6,56.2-21.8,56.5c-64.2,0.2-58.5-10.8-49.5-76.7C269.9,224.7,290.7,231.7,328.4,223.3z" /><ellipse transform="matrix(0.9992 -4.031137e-02 4.031137e-02 0.9992 -6.0446 15.6467)" class="st6" cx="385" cy="157.7" rx="20.6" ry="19" /><ellipse transform="matrix(0.9992 -4.031146e-02 4.031146e-02 0.9992 -6.1295 15.9301)" cx="392" cy="160" rx="11.1" ry="12.8" /><path class="st2" d="M307.2,193.5c1.2,11.8-11.1,23.1-34.2,22.8c-11.4-0.1-29.2-12.5-29.1-28.6c0.1-11.9,9.2-21.5,20.6-21.5
		C275.9,166.1,305.6,178,307.2,193.5z" /><path class="st5" d="M358.4,95.9c0,0,9.9-4.1,8.5-14.3c0,0,28.5,37.9-2.8,58.5l-26.3-2.7c0,0-6.2-18.6,3-27.8
		S358.4,95.9,358.4,95.9z" /><path class="st2" d="M334.4,137.3l9.7,1.6c0,0-9.6-16.2,2.4-29.1c9.9-10.7,23.4-14.1,21.4-25.1c0,0-5.6,7.2-15.4,13
		C343,103.2,322.3,116.7,334.4,137.3z" /><g><path class="st2" d="M361.2,92.2c2.7-3,4.8-6.5,5.4-10.4c0.6-3.9-0.5-7.9-2.9-11.3c-2.4-3.4-5.7-6.1-9.4-8.1
			c-3.7-2-7.9-3.3-12.1-4c4.3,0.3,8.6,1.3,12.6,3c4,1.8,7.8,4.3,10.6,7.8c1.4,1.7,2.7,3.7,3.4,5.9c0.8,2.2,1.1,4.6,1,6.9
			c-0.1,2.4-0.8,4.7-1.7,6.8c-0.9,2.1-2.2,4.1-3.6,5.9L361.2,92.2z" /></g><g><path class="st2" d="M363,89.9c0.3-0.3,0.7-0.9,1-1.4c0.3-0.5,0.6-1.1,0.8-1.7c0.4-1.2,0.7-2.4,0.8-3.6c0.1-2.4-0.9-4.9-2.7-6.8
			c-1.8-2-4.1-3.5-6.6-4.8c-2.5-1.3-5.2-2.3-7.9-3.1c2.8,0.5,5.6,1.2,8.3,2.2c2.7,1,5.4,2.3,7.7,4.3c1.1,1,2.2,2.2,3,3.6
			c0.8,1.4,1.3,3,1.4,4.6c0.2,1.6,0,3.3-0.4,4.8c-0.2,0.8-0.5,1.5-0.8,2.3c-0.3,0.8-0.6,1.4-1.2,2.2L363,89.9z" /></g><g><path class="st5" d="M257.9,163c0,0-27.1-12.6-25.8-42.9s14.9-38.6,29.6-44.2c0,0-8.4,8.8-4.6,17.7c3.8,8.9,22.9,18.7,22.7,36.7
			c-0.2,18-6.4,32.8-6.4,32.8L257.9,163z" /><path class="st2" d="M266.1,70.8c0,0-16.5,13.3,0.9,29.5s26.4,32.4,15.7,52.7l-14.5,3.2c0,0,15-23.1,3.8-39.1
			C266.8,109.9,241.9,89.3,266.1,70.8z" /><g><path class="st2" d="M277.7,63.5c-2.6,1.4-5,3.2-7.3,5.1c-2.2,1.9-4.2,4.1-5.9,6.5c-1.7,2.3-2.9,5-3.7,7.6l-0.5,2l-0.3,2.1
				c0,0.3-0.1,0.7-0.1,1l0,1l0,2.1l-4.2,0l0.3-2.4l0.2-1.2c0.1-0.4,0.2-0.8,0.3-1.2l0.6-2.3l0.9-2.2c1.3-2.9,2.9-5.6,5-7.8
				c2.1-2.3,4.4-4.3,6.9-6C272.2,66.1,274.9,64.6,277.7,63.5z" /></g><g><path class="st2" d="M257,95.9c-0.1-1-0.1-1.7-0.2-2.6c0-0.8,0-1.6,0.1-2.5c0.1-1.6,0.4-3.3,0.8-4.9c0.4-1.6,1.1-3.2,2-4.7
				c0.9-1.5,2.2-2.7,3.7-3.6c1.5-0.9,3.1-1.4,4.7-1.6c1.6-0.2,3.2-0.1,4.8,0.1c3.1,0.5,6,1.5,8.8,2.7c-2.9-0.8-5.9-1.3-8.9-1.4
				c-1.5,0-2.9,0.1-4.3,0.5c-1.4,0.4-2.6,1-3.6,1.8c-2.1,1.7-3.1,4.2-3.4,6.9c-0.2,1.3-0.2,2.7-0.1,4.1c0,0.7,0.1,1.4,0.2,2.1
				c0.1,0.7,0.3,1.4,0.4,2L257,95.9z" /></g></g><path class="st16" d="M373.5,173.5c3.5,2.1,7.7,3.3,12.3,3.2c8.3-0.3,15.3-5.1,18.3-11.8L373.5,173.5z" /><path class="st2" d="M399.6,193.7l-8.4-3.8l-2.1-41.2C389,148.7,401.6,162.8,399.6,193.7z" /><path class="st2" d="M401.9,175.9c1.1,27-31.9,45.8-73.4,47.5c-41.5,1.7-80.6-19.1-77.1-45.9c3.7-28.7,31.7-50.3,73.2-52
		C366.1,123.9,400.8,148.9,401.9,175.9z" /><ellipse transform="matrix(0.8908 -0.4543 0.4543 0.8908 -36.6773 188.8815)" class="st8" cx="374.7" cy="170.8" rx="6.1" ry="3.6" /><ellipse transform="matrix(0.6493 -0.7605 0.7605 0.6493 7.3426 356.5861)" class="st8" cx="390.3" cy="170.3" rx="3.4" ry="5.2" /><g><path class="st8" d="M323.5,134.9c3.4,2.6,6.1,6,8.3,9.7c2.2,3.7,3.9,7.8,4.8,12.1c0.4,2.2,0.6,4.4,0.6,6.6c0,2.2-0.3,4.4-0.9,6.6
			c-1.1,4.3-3.3,8.2-6.3,11.2c0.7-2,1.5-3.9,2-5.9c0.3-1,0.5-2,0.7-2.9c0.1-1,0.4-2,0.4-3c0.1-1,0.2-2,0.2-3c0-1,0-2-0.1-3
			c-0.1-2-0.3-3.9-0.7-5.9c-0.8-3.9-2-7.7-3.6-11.4C327.5,142.2,325.6,138.6,323.5,134.9z" /></g><path class="st11" d="M276.7,202.8c18.3,3.5,62.8,26.1,99.2,17.1c22.4-5.6-19-32.6-22.9-32c-15.9,2.8-48,6.5-72.4,13.2
		C279,201.6,274.1,202.3,276.7,202.8z" /><path class="st10" d="M385.3,186.4c-36.9-3.4-47.1,0.6-78.7,6.8c-27,5.3-40.1,11.4-25.6,9.6c17.1-4.2,43.9-12.5,94.9,4.7
		C380.1,205.2,411.4,188.8,385.3,186.4z" /><g><path class="st12" d="M329.3,195.2c38.3-2.2,44.5,19.5,26.2,19.6c-16.3,0.1-30.3-3.8-47.4-7.5c-6.6-1.4-12.9-3.4-18.3-4
			c-6.6-0.8-7.7-1.3-0.1-3C298.2,198.4,311.5,196.2,329.3,195.2z" /><g><path class="st14" d="M309.6,197c4.8-1.3,9.8-2.1,14.8-2.3c1.3-0.1,2.5-0.1,3.8-0.1c1.3,0,2.5,0.1,3.8,0.1l1.9,0.1l1.9,0.3
				l1.9,0.3c0.6,0.1,1.2,0.3,1.9,0.4l1.9,0.4c0.6,0.1,1.2,0.4,1.8,0.5l1.8,0.6c0.6,0.2,1.2,0.5,1.8,0.7c0.6,0.3,1.2,0.5,1.8,0.8
				l1.7,0.9c1.2,0.5,2.2,1.3,3.3,2c4.2,2.8,7.7,6.8,10.1,11.1c-3.4-3.7-7.1-6.8-11.3-9.1c-1.1-0.5-2.1-1.2-3.2-1.6l-1.6-0.7
				c-0.6-0.2-1.1-0.4-1.7-0.6L344,200l-1.7-0.5c-0.6-0.2-1.1-0.4-1.7-0.5l-1.8-0.4c-0.6-0.1-1.2-0.3-1.8-0.4l-1.8-0.3l-1.8-0.3
				l-1.8-0.2c-2.4-0.3-4.8-0.4-7.3-0.6C319.5,196.7,314.6,196.9,309.6,197z" /></g></g><path class="st13" d="M390.1,187.3c0,0,0.3,13.6,2.3,15.4c2,1.8,5.1-2.3,7.1-9C399.5,193.7,398.5,187.8,390.1,187.3z" /><path class="st13" d="M359.4,185.1c0,0-8.1,19.9-12.8,20.1c-7.1,0.3-9.6-18.3-9.6-18.3C343.5,185.8,349.9,185.2,359.4,185.1z" /><path class="st2" d="M379.7,205.4l-3.5,2c2.9,1.8,5.4,7.3-0.7,8.6c-33.5,7.1-92.6-11.6-92.6-11.6l-7.6,8.1
		c11.1,10.7,80.9,19.8,110.3,9.3C397.7,217.5,387.7,208.7,379.7,205.4z" /><path class="st6" d="M331.7,160.1c0.4,9-5,17-13,20.6c-6.7,0.2-10.3,0-13.3-0.9c-5.5-1.8-8.4-3.5-16-7.9c-1.8-2.9-2.8-6.3-3-10
		c-0.5-12,9.3-22.2,21.8-22.7S331.2,148.1,331.7,160.1z" /><ellipse transform="matrix(0.9992 -4.031151e-02 4.031151e-02 0.9992 -6.4336 12.6123)" cx="309.5" cy="165.8" rx="12.9" ry="13.7" /><path class="st16" d="M309.9,182.8c3.1-0.1,6-0.8,8.7-2l-29.3-9C293.3,178.7,301.1,183.2,309.9,182.8z" /></g></svg>