<svg xmlns="http://www.w3.org/2000/svg" viewBox="0 0 300 900" width="300" height="900" preserveAspectRatio="none"><defs><style>.cls-1,.cls-13,.cls-8,.cls-9{fill:none;}.cls-2{fill:#146b45;}.cls-3{fill:#0b5430;}.cls-4{fill:#108342;}.cls-5{fill:#5d3213;}.cls-10,.cls-11,.cls-12,.cls-14,.cls-6{fill:#b1b3b5;}.cls-7{fill:#898b8d;}.cls-8{stroke:#898b8d;stroke-miterlimit:10;}.cls-10,.cls-11,.cls-12,.cls-13,.cls-14,.cls-9{stroke:#808184;stroke-linejoin:round;}.cls-9{stroke-width:0.63px;}.cls-10{stroke-width:0.61px;}.cls-11,.cls-13{stroke-width:0.69px;}.cls-12{stroke-width:0.62px;}.cls-13{stroke-linecap:round;}.cls-14{stroke-width:0.5px;}.cls-15{fill:#f52338;}</style></defs><g id="rooms"><polygon class="cls-1" points="66.7 342.45 66.7 342.45 66.7 342.45 66.7 342.45" /><polygon class="cls-2" points="66.7 342.45 66.7 342.45 66.7 342.45 66.7 342.45" /><path class="cls-3" d="M61.75,338.21S56,334,59.62,329.49C59.62,329.49,65.3,331.29,61.75,338.21Z" /><path class="cls-3" d="M62.38,336.75s1.16,5.49-3.1,6.38C59.28,343.13,57,339.19,62.38,336.75Z" /><path class="cls-2" d="M263.15,258.08c-.35-.36-.56-.63-.56-.63s0,.3.05.73A2.3,2.3,0,0,1,263.15,258.08Z" /><path class="cls-1" d="M236.15,191.63a3.46,3.46,0,0,1,.32.82,3,3,0,0,1,2.49,1.41,6.65,6.65,0,0,1-.2-1.12A26.13,26.13,0,0,1,236.15,191.63Z" /><path class="cls-1" d="M191.33,185.54l0,0h0Z" /><path class="cls-1" d="M42.92,345.36a1.81,1.81,0,0,0,.41-.32Z" /><path class="cls-1" d="M100.75,184.7h.34l.16-.27A4.21,4.21,0,0,1,100.75,184.7Z" /><path class="cls-1" d="M244.5,190.32V190l-.31.24Z" /><path class="cls-1" d="M242,284.32l0,1a8.78,8.78,0,0,1,1.29-1.73A12.37,12.37,0,0,1,242,284.32Z" /><path class="cls-1" d="M122.55,184.39a2.44,2.44,0,0,1,0,.48l7.55.07c0-.15.09-.29.14-.43Z" /><path class="cls-1" d="M244.56,190.34c.27-.5.48-.81.48-.81s-.2.19-.53.46v.33Z" /><path class="cls-1" d="M242.48,235.26c0-.11.06-.18.06-.18l-.32.11Z" /><path class="cls-1" d="M189.52,168.07h.24l-.17-.16A1,1,0,0,1,189.52,168.07Z" /><path class="cls-1" d="M249.49,319.4c.51.38.83.67.83.67s-.09-.41-.18-1A5.84,5.84,0,0,1,249.49,319.4Z" /><path class="cls-1" d="M237.74,174.21a3,3,0,0,1,.34,0c0-.08-.06-.16-.08-.23Z" /><path class="cls-1" d="M259.33,316.87a8.63,8.63,0,0,1-.58-1.64,11.43,11.43,0,0,1-.12,1.73A2.07,2.07,0,0,1,259.33,316.87Z" /><path class="cls-1" d="M46.74,295.92a8.63,8.63,0,0,1-.58,1.64,2.07,2.07,0,0,1,.7.09A11.43,11.43,0,0,1,46.74,295.92Z" /><polygon class="cls-1" points="95.46 174.99 95.47 174.99 95.47 174.99 95.46 174.99" /><path class="cls-1" d="M42.42,287.46s.32-.28.83-.66l-.65-.35C42.51,287.06,42.42,287.46,42.42,287.46Z" /><path class="cls-1" d="M243.78,292.9l.13-3.15a2.55,2.55,0,0,1-2.09.3l-.07,2.41.42.06C242.79,292.64,243.31,292.77,243.78,292.9Z" /><path class="cls-2" d="M241.16,289.06a1.32,1.32,0,0,0,.66,1l.12-4.71A5.46,5.46,0,0,0,241.16,289.06Z" /><path class="cls-2" d="M271.91,182.38c-1.62-4.81-4.86-3.11-4.86-3.11s4-3.44-.59-5.25c-3.08-1.23-4.47-1.08-4.47-1.08s4.2-3.52,1.37-5-5.41.8-5.41.8-1.6-4.1-3.86-4.06c-4.26.07-6,5.17-6,5.17s-.8-3.66-2.73-1.75c-2.33,2.3-1.72,4.07-1.24,4.83-.77-1-2.79-3.3-4.29-3.05a1.89,1.89,0,0,0-.78-.67c-2.83-1.45-5.41.79-5.41.79s-1.6-4.1-3.86-4.06c-4.25.08-6,5.17-6,5.17s-.79-3.66-2.72-1.75c-2.33,2.31-1.72,4.07-1.25,4.84a15.44,15.44,0,0,0-1.36-1.52,5.17,5.17,0,0,0-.71-1.1c-1.58-1.91-7.26.74-7.26.74s5.8-2.78,2.09-6.87c-1.48-1.63-4.17,1.45-5.08,2.61.47-.76,1.08-2.53-1.25-4.83-1.93-1.91-2.72,1.75-2.72,1.75s-1.69-5.1-6-5.17c-2.26,0-3.86,4.06-3.86,4.06s-2.58-2.25-5.41-.8a1.75,1.75,0,0,0-.85.83,4.85,4.85,0,0,0-2.4.31s2.08-5.17-3-4.56c-2.46.29-3.3,6.5-3.3,6.5s.8-6.38-4.65-5.47c-2.17.36-1,4.28-.55,5.68-.39-.81-1.54-2.28-4.74-1.57a1.8,1.8,0,0,0-.9.44,10.32,10.32,0,0,0-3,2.72h0c.46-.81.92-2.52-1.31-4.72-1.93-1.91-2.72,1.75-2.72,1.75s-1.69-5.1-6-5.17c-2.26,0-3.86,4.06-3.86,4.06a5.26,5.26,0,0,0-.81-.55c.54-1,.69-2-.58-2.7-2.83-1.45-5.41.79-5.41.79s-1.6-4.1-3.86-4.06c-4.26.08-6,5.17-6,5.17s-.79-3.66-2.72-1.75c-2.33,2.31-1.72,4.07-1.25,4.84-.91-1.16-3.6-4.24-5.08-2.61-3.71,4.09,2.09,6.87,2.09,6.87a16.45,16.45,0,0,0-5.12-1.43c-.6-5.32-6.36-2.86-6.36-2.86s2.65-2.65,0-3.24c-3.2-.71-4.36.75-4.74,1.57.48-1.4,1.62-5.33-.56-5.69-5.44-.9-4.64,5.48-4.64,5.48s-.85-6.21-3.31-6.51c-5.1-.61-3,4.56-3,4.56s-3.12-1.33-4.43,1.2,2.12,5.12,2.12,5.12-5.35-.63-4.31,2.06l.12.29a9.75,9.75,0,0,0-3.72-.79s4.2-3.53,1.36-5-5.41.8-5.41.8-1.6-4.1-3.86-4.06c-4.25.07-6,5.17-6,5.17s-.79-3.66-2.72-1.75a5.71,5.71,0,0,0-1.5,2.24,16,16,0,0,0-1.72.53,5.52,5.52,0,0,0-1.14-.76c.22-1.52.18-3.64-1.87-3.44-3.17.32-4.12,3.6-4.12,3.6s-3.56-2.58-5.44-1.33A5.32,5.32,0,0,0,55,168.82a8.86,8.86,0,0,0-3.09,1.23s1.63-5.24-1.54-4.92-4.12,3.59-4.12,3.59-3.56-2.58-5.44-1.32c-3.54,2.37-2.21,7.57-2.21,7.57s-2.65-2.65-3.23,0c-.72,3.2.75,4.35,1.56,4.74-1.4-.48-5.32-1.62-5.68.56-.91,5.44,5.47,4.64,5.47,4.64s-6.21.84-6.5,3.3c-.61,5.11,4.56,3,4.56,3s-1.34,3.12,1.19,4.43a2.31,2.31,0,0,0,.41.16c-.94-.24-2.26-.07-4,1.31-4,3.17,3.83,6,3.83,6s-4.38,1.19-5.25,3.66,6.78,3.29,6.78,3.29a3.56,3.56,0,0,0-1.84,3.79c.59,2.83,4.41.37,4.41.37a9.85,9.85,0,0,0-1.17,4.37c-.76-.38-1.65-.46-2,.94-.71,3.2.76,4.35,1.57,4.74-1.4-.48-5.32-1.62-5.68.56-.91,5.44,5.47,4.64,5.47,4.64s-6.21.84-6.5,3.3c-.61,5.11,4.56,3,4.56,3s-1.34,3.12,1.19,4.43a2.76,2.76,0,0,0,2.31.09,5,5,0,0,0-.28.61c-1.23,3.08-1.08,4.47-1.08,4.47s-3.52-4.2-5-1.37.79,5.41.79,5.41-4.1,1.6-4.06,3.86c.08,4.26,5.17,5.95,5.17,5.95S32,260.07,33.9,262c2.31,2.33,4.07,1.73,4.84,1.25-1.16.92-4.24,3.6-2.61,5.08C40.22,272,43,266.24,43,266.24a19.18,19.18,0,0,0-1.22,3.6,2.07,2.07,0,0,0-.87.31c-3.54,2.37-2.2,7.57-2.2,7.57s-2.65-2.65-3.24,0c-.71,3.2.75,4.36,1.57,4.74-1.4-.48-5.33-1.61-5.69.56-.9,5.44,5.48,4.64,5.48,4.64s-6.21.85-6.51,3.31c-.61,5.1,4.56,3,4.56,3s-1.33,3.12,1.2,4.42,5.12-2.12,5.12-2.12-.63,5.35,2.06,4.31a2.75,2.75,0,0,0,.3-.14,9.77,9.77,0,0,0-.8,3.74s-3.53-4.19-5-1.36.8,5.41.8,5.41-4.1,1.6-4.06,3.86c.07,4.26,5.17,5.95,5.17,5.95s-3.66.79-1.75,2.72a5.78,5.78,0,0,0,2.3,1.53,5.28,5.28,0,0,0,.8,1.3h0s-4.1,1.61-4.06,3.86a5.13,5.13,0,0,0,1.05,3,6,6,0,0,0,.69,1.08s-4.1,1.6-4.06,3.86c.08,4.26,5.17,5.95,5.17,5.95s-3.66.79-1.75,2.72c2.31,2.33,4.07,1.73,4.84,1.25l.41-.32a1.81,1.81,0,0,1-.41.32c-1.16.92-4.26,3.16-2.63,4.64H53.75a4.68,4.68,0,0,0,1.85.65l5.63,0L54.79,184.32l46,.38a4.21,4.21,0,0,0,.5-.27l-.16.27,21.41.17a2.44,2.44,0,0,0,0-.48l7.64.12c-.05.14-.09.28-.14.43l114.57.94-.11,4.11c.33-.27.53-.46.53-.46s-.21.31-.48.81l-.06,0-2.53,94a12.37,12.37,0,0,0,1.26-.71,8.78,8.78,0,0,0-1.29,1.73l-.12,4.71a2.55,2.55,0,0,0,2.09-.3l-.13,3.15c-.47-.13-1-.26-1.61-.38l-.42-.06-1.5,55.88a11.88,11.88,0,0,0,1.27-.82l-.08,1.83,2.82.58,0,0,8.65,0a9.69,9.69,0,0,0-1.37-3.74s2.78,5.8,6.87,2.09c1.63-1.48-1.45-4.17-2.61-5.08.76.47,2.53,1.08,4.83-1.25,1.91-1.93-1.75-2.72-1.75-2.72s5.1-1.69,5.17-5.95c0-2.26-4.06-3.86-4.06-3.86s2.25-2.58.8-5.41-5,1.36-5,1.36a9.77,9.77,0,0,0-.8-3.74,2.75,2.75,0,0,0,.3.14c2.69,1,2.06-4.31,2.06-4.31s2.59,3.43,5.12,2.12,1.2-4.43,1.2-4.43,5.17,2.08,4.56-3c-.3-2.46-6.51-3.31-6.51-3.31s6.39.8,5.48-4.64c-.36-2.17-4.29-1-5.68-.56.81-.38,2.27-1.54,1.56-4.74-.59-2.65-3.24,0-3.24,0s1.34-5.2-2.2-7.57a2,2,0,0,0-.86-.31,19.64,19.64,0,0,0-1.23-3.6s2.79,5.8,6.87,2.09c1.63-1.48-1.45-4.16-2.61-5.08.77.48,2.53,1.08,4.84-1.25,1.91-1.93-1.75-2.72-1.75-2.72s5.09-1.69,5.17-5.95c0-2.26-4.06-3.86-4.06-3.86s2.24-2.58.79-5.41-5,1.37-5,1.37.15-1.39-1.07-4.47c-.1-.23-.19-.43-.29-.61a2.79,2.79,0,0,0,2.31-.09c2.53-1.31,1.19-4.43,1.19-4.43s5.17,2.08,4.56-3c-.29-2.46-6.5-3.3-6.5-3.3s6.38.8,5.47-4.64c-.36-2.18-4.28-1-5.68-.56.81-.39,2.28-1.54,1.57-4.74-.31-1.4-1.2-1.32-2-.94a9.85,9.85,0,0,0-1.17-4.37s3.82,2.46,4.41-.37a3.54,3.54,0,0,0-1.84-3.79s7.66-.82,6.79-3.29-5.25-3.66-5.25-3.66,7.79-2.83,3.82-6c-1.74-1.38-3.06-1.55-4-1.31a2.23,2.23,0,0,0,.4-.16c2.53-1.31,1.19-4.43,1.19-4.43s5.17,2.08,4.56-3c-.29-2.46-6.5-3.3-6.5-3.3s6.38.8,5.47-4.64c-.36-2.18-4.28-1-5.68-.56.81-.39,2.28-1.54,1.57-4.74-.59-2.65-3.24,0-3.24,0a10.16,10.16,0,0,0,.24-2,3.6,3.6,0,0,0,.21-3.84s6.88,3.46,7.48.9-2.43-5.91-2.43-5.91S273.54,187.2,271.91,182.38ZM42.42,287.46s.09-.4.18-1l.65.35C42.74,287.18,42.42,287.46,42.42,287.46Zm3.74,10.1a8.63,8.63,0,0,0,.58-1.64,11.43,11.43,0,0,0,.12,1.73A2.07,2.07,0,0,0,46.16,297.56ZM95.46,175Zm94.06-6.92a1,1,0,0,0,.07-.15l.17.16Zm48.22,6.14L238,174c0,.07.05.15.08.23A3,3,0,0,0,237.74,174.21ZM249.49,319.4a5.84,5.84,0,0,0,.65-.35c.09.61.18,1,.18,1S250,319.78,249.49,319.4Zm9.26-4.17a8.63,8.63,0,0,0,.58,1.64,2.07,2.07,0,0,0-.7.09A11.43,11.43,0,0,0,258.75,315.23Z" /><path class="cls-2" d="M191.33,185.54v0h0Zm45.14,6.91a3.46,3.46,0,0,0-.32-.82,26.13,26.13,0,0,0,2.61,1.11,6.65,6.65,0,0,0,.2,1.12A3,3,0,0,0,236.47,192.45Zm6,42.81-.26-.07.32-.11S242.52,235.15,242.48,235.26Z" /><path class="cls-3" d="M48,269.71s-5.81-4.24-2.14-8.72C45.9,261,51.58,262.79,48,269.71Z" /><path class="cls-3" d="M48.25,269.86s1.92-7.7,8.37-3.88C56.62,266,57.25,273.17,48.25,269.86Z" /><path class="cls-3" d="M48.66,268.25s1.16,5.49-3.1,6.38C45.56,274.63,43.27,270.68,48.66,268.25Z" /><path class="cls-3" d="M252.75,212.33s-5.81-4.24-2.14-8.72C250.61,203.61,256.29,205.41,252.75,212.33Z" /><path class="cls-3" d="M253,212.48s1.92-7.7,8.37-3.87C261.33,208.61,262,215.8,253,212.48Z" /><path class="cls-3" d="M253.38,210.87s1.15,5.49-3.11,6.38C250.27,217.25,248,213.31,253.38,210.87Z" /><path class="cls-3" d="M90.52,170.75s-5.81-4.24-2.14-8.72C88.38,162,94.06,163.83,90.52,170.75Z" /><path class="cls-3" d="M90.73,170.9s1.92-7.7,8.37-3.88C99.1,167,99.73,174.21,90.73,170.9Z" /><path class="cls-3" d="M91.14,169.29s1.16,5.49-3.1,6.37C88,175.66,85.75,171.72,91.14,169.29Z" /><path class="cls-3" d="M44.32,321s-5.8-4.24-2.13-8.72C42.19,312.27,47.87,314.08,44.32,321Z" /><path class="cls-3" d="M44.53,321.14s1.93-7.69,8.37-3.87C52.9,317.27,53.54,324.46,44.53,321.14Z" /><path class="cls-3" d="M45,319.53s1.16,5.49-3.1,6.38C41.85,325.91,39.56,322,45,319.53Z" /><path class="cls-3" d="M44.93,285.34s1.16,5.49-3.1,6.37C41.83,291.71,39.54,287.77,44.93,285.34Z" /><path class="cls-3" d="M47.64,176.11s-5.8-4.24-2.13-8.72C45.51,167.39,51.19,169.2,47.64,176.11Z" /><path class="cls-3" d="M40.31,253.4s-5.81-4.24-2.14-8.72C38.17,244.68,43.86,246.48,40.31,253.4Z" /><path class="cls-3" d="M47.85,176.26s1.93-7.69,8.37-3.87C56.22,172.39,56.85,179.58,47.85,176.26Z" /><path class="cls-3" d="M44.62,237.29s1.92-7.7,8.37-3.87C53,233.42,53.62,240.61,44.62,237.29Z" /><path class="cls-3" d="M48.27,174.65s1.15,5.49-3.1,6.38C45.17,181,42.88,177.09,48.27,174.65Z" /><path class="cls-3" d="M39.7,250.8s1.16,5.49-3.1,6.38C36.6,257.18,34.31,253.24,39.7,250.8Z" /><path class="cls-3" d="M199.6,169.06s7.12-1,7.59,4.79C207.19,173.85,201.85,176.5,199.6,169.06Z" /><path class="cls-3" d="M199.34,169.09s4,6.88-3.33,8.61C196,177.7,190.56,173,199.34,169.09Z" /><path class="cls-3" d="M200.16,170.54s-4.64-3.14-2.2-6.74C198,163.8,202.35,165.05,200.16,170.54Z" /><path class="cls-3" d="M162.34,169.76s-4.65-3.15-2.2-6.74C160.14,163,164.52,164.26,162.34,169.76Z" /><path class="cls-3" d="M245.06,250s3.62-6.22,8.45-3C253.51,246.93,252.3,252.77,245.06,250Z" /><path class="cls-3" d="M244.93,250.18s7.86,1.12,4.72,7.93C249.65,258.11,242.56,259.48,244.93,250.18Z" /><path class="cls-3" d="M246.58,250.43s-5.35,1.71-6.67-2.43C239.91,248,243.6,245.32,246.58,250.43Z" /><path class="cls-4" d="M253.25,176.33s4.85-3.75,7.27,1.08C260.52,177.41,257.58,181.88,253.25,176.33Z" /><path class="cls-4" d="M251.67,176.07s-4-6.2,1.18-9.14C252.85,166.93,257.64,170.75,251.67,176.07Z" /><path class="cls-4" d="M173.79,181.6s-4-6.2,1.18-9.14C175,172.46,179.76,176.27,173.79,181.6Z" /><path class="cls-4" d="M56.23,176.7s4.85-3.75,7.28,1.08C63.51,177.78,60.56,182.25,56.23,176.7Z" /><path class="cls-4" d="M99.13,172.34s-4-6.2,1.19-9.14C100.32,163.2,105.11,167,99.13,172.34Z" /><path class="cls-4" d="M246.71,295.55s6.12-.36,5.41,5C252.12,300.54,247.16,302.57,246.71,295.55Z" /><path class="cls-4" d="M255.9,269.36s6.12-.36,5.41,5C261.31,274.35,256.36,276.39,255.9,269.36Z" /><path class="cls-4" d="M245.55,294.45s.19-7.38,6.13-6.89C251.68,287.56,253.48,293.41,245.55,294.45Z" /><path class="cls-4" d="M255.83,280.6s.19-7.38,6.13-6.89C262,273.71,263.76,279.56,255.83,280.6Z" /><path class="cls-4" d="M250,344s6.12-.36,5.41,5C255.43,348.94,250.48,351,250,344Z" /><path class="cls-4" d="M248.86,342.85s.19-7.38,6.13-6.89C255,336,256.8,341.81,248.86,342.85Z" /><path class="cls-4" d="M144.92,178.38s3.7-8.23,10.19-3.65C155.11,174.73,154.4,182.57,144.92,178.38Z" /><path class="cls-4" d="M142.69,179.15s-9.5-5.27-4.81-12.69C137.88,166.46,146.74,168.09,142.69,179.15Z" /><path class="cls-4" d="M43.36,202.92s-6.18-6.57.55-10.81C43.91,192.11,50.88,195.79,43.36,202.92Z" /><path class="cls-4" d="M43.21,205.28s-8.52,6.74-13.56-.44C29.65,204.84,34.56,197.28,43.21,205.28Z" /><path class="cls-4" d="M40.48,289.93s-5.59,0-4-4.79C36.45,285.14,41.26,283.52,40.48,289.93Z" /><path class="cls-4" d="M42.67,339.72s-5.58,0-4-4.79C38.64,334.93,43.46,333.31,42.67,339.72Z" /><path class="cls-4" d="M50,232.6s-5.58.05-4-4.79C45.93,227.81,50.75,226.19,50,232.6Z" /><path class="cls-4" d="M41.34,291s-1.43,6.71-6.71,6C34.63,297,34,291.56,41.34,291Z" /><path class="cls-4" d="M53.71,339.72s-5.59,0-4-4.79C49.68,334.93,54.49,333.31,53.71,339.72Z" /><path class="cls-4" d="M54.57,340.78s-1.43,6.7-6.7,6C47.87,346.76,47.23,341.36,54.57,340.78Z" /><polyline class="cls-5" points="248.8 350 254.75 177.25 45.25 172.79 51.7 350" /><polygon class="cls-6" points="63.83 371.27 238.09 369.87 242.04 186.33 60.38 186.33 63.83 371.27" /><path class="cls-7" d="M242.13,241.64,116.39,232.4l-56.67,41V185.64s185.4-2.51,185-1.22S242.13,241.64,242.13,241.64Z" /><path class="cls-8" d="M242.13,241.64,116.39,232.4l-56.67,41V185.64s185.4-2.51,185-1.22S242.13,241.64,242.13,241.64Z" /><path class="cls-9" d="M217.37,265.58c0-1.64,3.17-3,7.08-3s7.09,1.33,7.09,3" /><polygon class="cls-10" points="242.71 244.3 233.43 259.05 187.55 255.59 200.11 241.57 242.71 244.3" /><polygon class="cls-11" points="244.51 232.9 243.61 249.54 241.81 249.54 242.08 235.87 244.51 232.9" /><polygon class="cls-12" points="233.99 246.48 233.81 264.29 232.01 264.29 231.47 248.37 233.99 246.48" /><polygon class="cls-12" points="188.65 242.97 188.47 260.79 186.67 260.79 186.13 244.86 188.65 242.97" /><polygon class="cls-11" points="245.54 232.08 235.17 248.54 183.96 244.68 198.18 229.75 245.54 232.08" /><path class="cls-10" d="M225.55,255.43l-.68,15.79c-.58.41-1,.37-1.33-.25l-.08-15.55Z" /><path class="cls-12" d="M228.07,258.46,230.86,275c.62.34,1.07.25,1.28-.4l-2-16.42Z" /><path class="cls-12" d="M221.44,258.4l-4.07,16.28c-.65.29-1.09.16-1.25-.5L219.39,258Z" /><ellipse class="cls-11" cx="224.6" cy="256.46" rx="7.6" ry="3.91" /><path class="cls-9" d="M231.54,265.58c0,1.65-3.17,3-7.09,3s-7.08-1.33-7.08-3" /><path class="cls-9" d="M192.07,264.74c0-1.65,3.18-3,7.09-3s7.09,1.33,7.09,3" /><path class="cls-10" d="M200.39,254.19l-.67,15.32a.75.75,0,0,1-.65.74c-.28,0-.52-.15-.7-.52l-.07-15.55Z" /><path class="cls-12" d="M202.9,257.22l2.71,16.09a.75.75,0,0,0,.74.65c.29,0,.5-.2.63-.59L205,257Z" /><path class="cls-12" d="M196.27,257.16l-4,15.83a.75.75,0,0,1-.79.59c-.28,0-.48-.24-.58-.64l3.28-16.21Z" /><ellipse class="cls-11" cx="199.4" cy="255.14" rx="7.6" ry="3.91" /><path class="cls-9" d="M206.25,264.74c0,1.64-3.17,3-7.09,3s-7.09-1.33-7.09-3" /><polygon class="cls-10" points="162.97 208.76 177 209.16 173.75 238.63 157.69 236.8 162.97 208.76" /><polygon class="cls-11" points="151.39 204.69 165.82 205.3 161.15 242.29 145.91 241.07 151.39 204.69" /><polygon class="cls-11" points="174.76 199.61 170.29 243.31 164.8 242.29 170.5 199.41 174.76 199.61" /><polygon class="cls-11" points="178.22 217.09 175.57 246.35 154.03 244.12 157.9 216.48 178.22 217.09" /><polygon class="cls-10" points="163.18 221.36 170.5 221.76 167.24 246.76 158.91 246.15 163.18 221.36" /><polygon class="cls-10" points="123.33 240.98 122.11 250.74 120.44 250.69 119.52 241.29 123.33 240.98" /><polygon class="cls-10" points="142.08 228.48 140.56 238.85 138.88 239 138.73 228.64 142.08 228.48" /><polygon class="cls-10" points="101.99 232.29 103.52 243.73 105.19 243.57 106.41 233.36 101.99 232.29" /><polygon class="cls-11" points="143.71 227.77 121.56 242.2 100.42 232.24 123.79 221.47 143.71 227.77" /><polyline class="cls-10" points="130.06 221 128.16 222.12 129.51 223.15 128.1 223.93 129.51 225.06 127.75 225.28 128.82 226.88 127.14 226.81 127.68 229.02 126.21 228.7 126.15 230.09 124.97 229.56 124.32 231.08 123.56 229.71 122.04 230.69 122.17 229.13 120.44 229.47 120.95 228 119.22 227.8 119.99 226.54 118.07 226.12 119.45 224.98 117.13 224.5 118.84 223.38 117.08 222.08 118.66 221.32 117.16 220.18 118.72 219.51 116.89 218.26 119.04 217.75 117.46 216.2 119.67 216.11 118.47 214.26 120.61 214.75 120.63 213.42 121.85 213.88 122.14 213.01 122.61 213.71 122.58 211.72 122.76 213.7 122.83 211.72 122.9 213.7 123.07 211.72 123.04 213.71 123.32 211.74 123.18 213.72 123.56 211.78 123.33 213.74 123.8 211.82 124.03 213.96 125.34 213.38 125.23 214.76 126.88 214.63 126.23 215.92 128.38 215.61 127.03 217.3 129.19 217.33 127.6 218.81 129.74 219.14 127.98 220.4 130.06 221" /><path class="cls-10" d="M125.47,221.5c.2,1.8-.57,3.37-1.71,3.49s-2.22-1.24-2.41-3.05.57-3.37,1.71-3.49a1.19,1.19,0,0,1,.42,0c1,.2,1.82,1.45,2,3" /><path class="cls-10" d="M116.25,219.57l14.31,2.9s-.34-9.11-7.48-10.13C117,211.47,116.25,219.57,116.25,219.57Z" /><path class="cls-10" d="M110.38,207.3l1.06,20.27c2.52.51,3.69,0,3.66-1.52l-.46-20.43Z" /><path class="cls-12" d="M124.48,213.47c-.63.75-1.29.68-2,0V208.9h2Z" /><polygon class="cls-12" points="133.75 208.47 128.87 211.11 108.14 207.65 113.88 205.16 133.75 208.47" /><polyline class="cls-13" points="125.63 219.21 128.55 220.31 132.68 218.59 129.51 217.59" /><polygon class="cls-11" points="82.07 256.31 105.25 263.9 71.89 283.97 54.36 273.23 82.07 256.31" /><polygon class="cls-12" points="106.64 254.64 106.47 272.45 104.67 272.45 104.13 256.53 106.64 254.64" /><polygon class="cls-12" points="72.44 272.45 72.56 293.02 70.76 293.02 69.92 274.34 72.44 272.45" /><polygon class="cls-11" points="83.02 243.73 108.85 254.12 69.91 275.49 52.38 262.48 83.02 243.73" /><path class="cls-9" d="M162.76,253.56c0-1.64,3.17-3,7.09-3s7.08,1.33,7.08,3" /><path class="cls-10" d="M171.07,243l-.66,15.32a.76.76,0,0,1-.65.74c-.29,0-.52-.14-.7-.52L169,243Z" /><path class="cls-12" d="M173.59,246l2.71,16.09a.73.73,0,0,0,.74.65c.28,0,.49-.2.62-.59l-2-16.42Z" /><path class="cls-12" d="M167,246l-4,15.83a.74.74,0,0,1-.78.59c-.29,0-.48-.24-.58-.64l3.27-16.21Z" /><ellipse class="cls-11" cx="170.09" cy="243.96" rx="7.6" ry="3.91" /><path class="cls-9" d="M176.93,253.56c0,1.64-3.17,3-7.08,3s-7.09-1.33-7.09-3" /><path class="cls-9" d="M117.43,258.23c0-1.65,3.17-3,7.08-3s7.09,1.33,7.09,3" /><path class="cls-10" d="M125.74,247.68,125.08,263a.76.76,0,0,1-.66.74c-.28,0-.51-.15-.69-.52l-.08-15.55Z" /><path class="cls-12" d="M128.26,250.71,131,266.8a.74.74,0,0,0,.73.65c.29,0,.5-.2.63-.59l-2-16.42Z" /><path class="cls-12" d="M121.62,250.65l-4,15.83a.74.74,0,0,1-.78.59c-.29,0-.48-.24-.58-.64l3.27-16.21Z" /><ellipse class="cls-11" cx="124.76" cy="248.63" rx="7.6" ry="3.91" /><path class="cls-9" d="M131.6,258.23c0,1.64-3.17,3-7.09,3s-7.08-1.33-7.08-3" /><path class="cls-9" d="M86.72,280.64c0-1.64,3.17-3,7.08-3s7.09,1.33,7.09,3" /><path class="cls-10" d="M95,270.1l-.67,15.31a.75.75,0,0,1-.65.74c-.28,0-.52-.14-.7-.51l-.07-15.55Z" /><path class="cls-12" d="M97.54,273.12l2.72,16.1a.74.74,0,0,0,.73.65c.29,0,.5-.21.63-.6l-2-16.42Z" /><path class="cls-12" d="M90.91,273.06l-4,15.83a.75.75,0,0,1-.79.59c-.28,0-.48-.24-.58-.64l3.28-16.21Z" /><ellipse class="cls-11" cx="94.04" cy="271.05" rx="7.6" ry="3.91" /><path class="cls-9" d="M100.89,280.64c0,1.64-3.17,3-7.09,3s-7.08-1.33-7.08-3" /><path class="cls-11" d="M224.41,236.36l-19.48-1.17-1.3,2.86,1.82-1,.82,1.73,1.3-1.43,1,1.69,1.52-1.38.61,1.86,1.26-1.21s.39,1.64.47,1.51a13.3,13.3,0,0,1,1.39-.83s1,1.54,1.09,1.45,1.35-1.27,1.35-1.27l.72,1.39,1.4-1,.81,1.17,1.35-1,.7,1.55.68-1.41,1.06,1.38Z" /><polygon class="cls-11" points="224.41 236.35 230.53 236.43 229.5 237.63 227.91 241.94 228.16 243.57 222.93 241.31 223.28 238.05 224.41 236.35" /><path class="cls-11" d="M227.7,237.45a3.68,3.68,0,0,1-1.09,3.5c-1.38,1.49-2.49-2-2-2.68C225.3,237.31,227.56,237.1,227.7,237.45Z" /><path class="cls-14" d="M87.42,254.72l1.86-1.16a6.7,6.7,0,0,0-3-2.23A4.74,4.74,0,0,0,82,252.49a5.22,5.22,0,0,1,3.22-.08C86.24,252.85,86.6,253.59,87.42,254.72Z" /><path class="cls-14" d="M90.41,254.94,88.17,256l-1.11-1.72a1.39,1.39,0,0,1,2.08-.81Z" /><ellipse class="cls-14" cx="89.2" cy="255.49" rx="1.63" ry="0.68" transform="translate(-111.14 73.57) rotate(-28.51)" /><path class="cls-14" d="M86,253.16l-12.42,5.07s-.59,1.42,1.34,2.41l12-6.48C86.91,253.62,86.66,253.25,86,253.16Z" /></g><g id="Grade_1" data-name="Grade 1"><polygon class="cls-15" points="129.47 368.75 171.72 368.38 172.31 371.89 129.86 372.21 129.47 368.75" /><ellipse class="cls-15" cx="137.6" cy="374.84" rx="1.78" ry="2.84" transform="translate(-242.07 498.48) rotate(-87.88)" /><ellipse class="cls-15" cx="137.6" cy="366.43" rx="1.78" ry="2.84" transform="translate(-233.67 490.38) rotate(-87.88)" /><polygon class="cls-15" points="129.49 374.43 54.37 377.05 47.95 176.96 252.05 179.61 243.44 374.37 172.12 373.98 170.84 367.32 233.65 367.11 237.47 189.72 61.33 189.92 66.79 368.3 130.86 367.73 129.49 374.43" /><polygon class="cls-15" points="129.79 368.75 172.04 368.38 172.63 371.89 130.18 372.21 129.79 368.75" /><ellipse class="cls-15" cx="137.29" cy="366.43" rx="1.78" ry="2.84" transform="translate(-233.97 490.07) rotate(-87.88)" /></g></svg>