<svg xmlns="http://www.w3.org/2000/svg" viewBox="0 0 300 900" width="300" height="900" preserveAspectRatio="none"><defs><style>.cls-1{fill:#e6e6e6;}.cls-2{fill:none;stroke:#e6e6e6;stroke-miterlimit:10;stroke-width:50px;}.cls-3{fill:#657c8e;}</style></defs><g id="Dotted_Path_grey" data-name="Dotted Path grey"><ellipse class="cls-1" cx="274.88" cy="490.01" rx="8.36" ry="24.86" /><path class="cls-1" d="M274.88,515a25,25,0,0,0,0-50" /><path class="cls-2" d="M0,528c142,0,146.78-38,275-38" /><circle class="cls-3" cx="274.89" cy="489.27" r="7.5" /><circle class="cls-3" cx="181.02" cy="499.14" r="5" /><circle class="cls-3" cx="213.97" cy="494.14" r="5" /><circle class="cls-3" cx="244.83" cy="491.27" r="5" /><circle class="cls-3" cx="120.29" cy="516.53" r="5" /><circle class="cls-3" cx="148" cy="509.14" r="5" /><circle class="cls-3" cx="28" cy="527.85" r="5" /><circle class="cls-3" cx="59.75" cy="525.85" r="5" /><circle class="cls-3" cx="90.54" cy="522.13" r="5" /><path class="cls-3" d="M0,533V523a5,5,0,0,1,5,5A5,5,0,0,1,0,533Z" /></g></svg>