<svg xmlns="http://www.w3.org/2000/svg" viewBox="0 0 300 900" width="300" height="900" preserveAspectRatio="none"><defs><style>.cls-1,.cls-13,.cls-19,.cls-20,.cls-21,.cls-22,.cls-24,.cls-7{fill:none;}.cls-2{fill:#146b45;}.cls-3{fill:#0b5430;}.cls-4{fill:#108342;}.cls-5{fill:#5d3315;}.cls-14,.cls-15,.cls-17,.cls-23,.cls-6,.cls-9{fill:#b1b3b4;}.cls-10,.cls-11,.cls-12,.cls-13,.cls-14,.cls-15,.cls-16,.cls-17,.cls-19,.cls-20,.cls-21,.cls-22,.cls-23,.cls-24,.cls-6,.cls-7,.cls-9{stroke:#808083;}.cls-10,.cls-11,.cls-12,.cls-13,.cls-14,.cls-15,.cls-16,.cls-17,.cls-19,.cls-20,.cls-21,.cls-22,.cls-23,.cls-24,.cls-6,.cls-9{stroke-linejoin:round;}.cls-6{stroke-width:0.92px;}.cls-7{stroke-miterlimit:10;}.cls-8{fill:#888a8c;}.cls-9{stroke-width:0.77px;}.cls-10,.cls-11,.cls-12,.cls-16{fill:#f1e7a9;}.cls-10{stroke-width:0.69px;}.cls-11,.cls-12,.cls-13{stroke-width:1.54px;}.cls-12,.cls-13{stroke-linecap:round;}.cls-14,.cls-16{stroke-width:0.47px;}.cls-15{stroke-width:0.58px;}.cls-17,.cls-19{stroke-width:0.42px;}.cls-18{fill:#808083;}.cls-20{stroke-width:0.5px;}.cls-21{stroke-width:0.33px;}.cls-22{stroke-width:0.38px;}.cls-23{stroke-width:0.39px;}.cls-24{stroke-width:0.43px;}.cls-25{fill:#f48242;}</style></defs><g id="rooms"><polygon class="cls-1" points="69.23 342.45 69.23 342.45 69.23 342.45 69.23 342.45" /><polygon class="cls-2" points="69.23 342.45 69.23 342.45 69.23 342.45 69.23 342.45" /><path class="cls-3" d="M64.28,338.21s-5.8-4.24-2.13-8.72C62.15,329.49,67.83,331.29,64.28,338.21Z" /><path class="cls-3" d="M64.91,336.75s1.16,5.49-3.1,6.38C61.81,343.13,59.52,339.19,64.91,336.75Z" /><path class="cls-2" d="M265.68,258.08c-.35-.36-.56-.63-.56-.63s0,.3.05.73A2.3,2.3,0,0,1,265.68,258.08Z" /><path class="cls-1" d="M238.68,191.63a3.46,3.46,0,0,1,.32.82,3,3,0,0,1,2.49,1.41,5.63,5.63,0,0,1-.2-1.12A24.94,24.94,0,0,1,238.68,191.63Z" /><path class="cls-1" d="M193.86,185.54l0,0h0Z" /><path class="cls-1" d="M45.44,345.36a2.06,2.06,0,0,0,.42-.32Z" /><path class="cls-1" d="M103.28,184.7h.34l.16-.27A4.21,4.21,0,0,1,103.28,184.7Z" /><path class="cls-1" d="M247,190.32V190l-.31.24Z" /><path class="cls-1" d="M244.5,284.32l0,1a9,9,0,0,1,1.28-1.73A11.48,11.48,0,0,1,244.5,284.32Z" /><path class="cls-1" d="M125.08,184.39a3.54,3.54,0,0,1,0,.48l7.55.07c0-.15.09-.29.14-.43Z" /><path class="cls-1" d="M247.09,190.34c.27-.5.48-.81.48-.81s-.2.19-.53.46v.33Z" /><path class="cls-1" d="M245,235.26c0-.11.06-.18.06-.18l-.32.11Z" /><path class="cls-1" d="M192.05,168.07h.24l-.17-.16A1,1,0,0,1,192.05,168.07Z" /><path class="cls-1" d="M252,319.4c.51.38.83.67.83.67s-.09-.41-.18-1A5.84,5.84,0,0,1,252,319.4Z" /><path class="cls-1" d="M240.27,174.21a3,3,0,0,1,.34,0c0-.08-.06-.16-.08-.23Z" /><path class="cls-1" d="M261.86,316.87a8.63,8.63,0,0,1-.58-1.64,11.43,11.43,0,0,1-.12,1.73A2.07,2.07,0,0,1,261.86,316.87Z" /><path class="cls-1" d="M49.26,295.92a8.14,8.14,0,0,1-.57,1.64,2,2,0,0,1,.69.09A13.27,13.27,0,0,1,49.26,295.92Z" /><polygon class="cls-1" points="97.99 174.99 98 174.99 97.99 174.99 97.99 174.99" /><path class="cls-1" d="M45,287.46s.32-.28.83-.66l-.65-.35C45,287.06,45,287.46,45,287.46Z" /><path class="cls-1" d="M246.31,292.9l.13-3.15a2.55,2.55,0,0,1-2.09.3l-.07,2.41.42.06C245.32,292.64,245.84,292.77,246.31,292.9Z" /><path class="cls-2" d="M243.69,289.06a1.32,1.32,0,0,0,.66,1l.12-4.71A5.46,5.46,0,0,0,243.69,289.06Z" /><path class="cls-2" d="M274.44,182.38c-1.63-4.81-4.86-3.11-4.86-3.11s4-3.44-.59-5.25c-3.08-1.23-4.47-1.08-4.47-1.08s4.2-3.52,1.36-5-5.4.8-5.4.8-1.6-4.1-3.86-4.06c-4.26.07-6,5.17-6,5.17s-.79-3.66-2.72-1.75c-2.33,2.3-1.72,4.07-1.25,4.83-.76-1-2.78-3.3-4.28-3.05a1.89,1.89,0,0,0-.78-.67c-2.83-1.45-5.41.79-5.41.79s-1.6-4.1-3.86-4.06c-4.26.08-6,5.17-6,5.17s-.79-3.66-2.72-1.75c-2.33,2.31-1.72,4.07-1.25,4.84a15.44,15.44,0,0,0-1.36-1.52,6.09,6.09,0,0,0-.71-1.1c-1.58-1.91-7.26.74-7.26.74s5.8-2.78,2.09-6.87c-1.48-1.63-4.17,1.45-5.08,2.61.47-.76,1.08-2.53-1.25-4.83-1.93-1.91-2.72,1.75-2.72,1.75s-1.7-5.1-6-5.17c-2.26,0-3.86,4.06-3.86,4.06s-2.58-2.25-5.41-.8a1.75,1.75,0,0,0-.85.83,4.85,4.85,0,0,0-2.4.31s2.08-5.17-3-4.56c-2.46.29-3.3,6.5-3.3,6.5s.8-6.38-4.65-5.47c-2.17.36-1,4.28-.55,5.68-.39-.81-1.54-2.28-4.74-1.57a1.8,1.8,0,0,0-.9.44,10.32,10.32,0,0,0-3,2.72h0c.46-.81.92-2.52-1.31-4.72-1.93-1.91-2.72,1.75-2.72,1.75s-1.69-5.1-6-5.17c-2.26,0-3.86,4.06-3.86,4.06a5.26,5.26,0,0,0-.81-.55c.54-1,.69-2-.58-2.7-2.83-1.45-5.41.79-5.41.79s-1.6-4.1-3.86-4.06c-4.26.08-6,5.17-6,5.17s-.79-3.66-2.72-1.75c-2.33,2.31-1.72,4.07-1.25,4.84-.92-1.16-3.6-4.24-5.08-2.61-3.71,4.09,2.09,6.87,2.09,6.87a16.45,16.45,0,0,0-5.12-1.43c-.6-5.32-6.36-2.86-6.36-2.86s2.65-2.65,0-3.24c-3.2-.71-4.36.75-4.74,1.57.48-1.4,1.62-5.33-.56-5.69-5.44-.9-4.64,5.48-4.64,5.48s-.85-6.21-3.31-6.51c-5.1-.61-3,4.56-3,4.56s-3.12-1.33-4.43,1.2S100,168.1,100,168.1s-5.35-.63-4.31,2.06l.12.29a9.75,9.75,0,0,0-3.72-.79s4.2-3.53,1.36-5-5.41.8-5.41.8-1.6-4.1-3.86-4.06c-4.26.07-6,5.17-6,5.17s-.79-3.66-2.72-1.75a5.71,5.71,0,0,0-1.5,2.24,16,16,0,0,0-1.72.53,5.52,5.52,0,0,0-1.14-.76c.22-1.52.18-3.64-1.87-3.44-3.17.32-4.12,3.6-4.12,3.6s-3.56-2.58-5.44-1.33a5.32,5.32,0,0,0-2.17,3.14,8.86,8.86,0,0,0-3.09,1.23s1.62-5.24-1.54-4.92-4.12,3.59-4.12,3.59-3.57-2.58-5.44-1.32c-3.54,2.37-2.21,7.57-2.21,7.57s-2.65-2.65-3.24,0c-.71,3.2.76,4.35,1.57,4.74-1.4-.48-5.32-1.62-5.68.56-.91,5.44,5.47,4.64,5.47,4.64s-6.21.84-6.5,3.3c-.61,5.11,4.56,3,4.56,3s-1.34,3.12,1.19,4.43a2.56,2.56,0,0,0,.4.16c-.93-.24-2.25-.07-4,1.31-4,3.17,3.82,6,3.82,6s-4.37,1.19-5.25,3.66,6.79,3.29,6.79,3.29a3.54,3.54,0,0,0-1.84,3.79c.59,2.83,4.41.37,4.41.37a9.85,9.85,0,0,0-1.17,4.37c-.76-.38-1.65-.46-2,.94-.71,3.2.76,4.35,1.57,4.74-1.4-.48-5.32-1.62-5.68.56-.91,5.44,5.47,4.64,5.47,4.64s-6.21.84-6.5,3.3c-.61,5.11,4.56,3,4.56,3s-1.34,3.12,1.19,4.43a2.76,2.76,0,0,0,2.31.09c-.1.18-.19.38-.29.61-1.22,3.08-1.07,4.47-1.07,4.47s-3.52-4.2-5-1.37.79,5.41.79,5.41-4.1,1.6-4.06,3.86c.08,4.26,5.17,5.95,5.17,5.95s-3.66.79-1.75,2.72c2.31,2.33,4.07,1.73,4.84,1.25-1.16.92-4.24,3.6-2.61,5.08,4.09,3.71,6.87-2.09,6.87-2.09a19.18,19.18,0,0,0-1.22,3.6,2,2,0,0,0-.87.31c-3.54,2.37-2.2,7.57-2.2,7.57s-2.65-2.65-3.24,0c-.71,3.2.75,4.36,1.56,4.74-1.39-.48-5.32-1.61-5.68.56-.91,5.44,5.48,4.64,5.48,4.64s-6.21.85-6.51,3.31c-.61,5.1,4.56,3,4.56,3s-1.33,3.12,1.2,4.42,5.12-2.12,5.12-2.12-.63,5.35,2.06,4.31a2.75,2.75,0,0,0,.3-.14,9.77,9.77,0,0,0-.8,3.74s-3.53-4.19-5-1.36.8,5.41.8,5.41-4.1,1.6-4.06,3.86c.07,4.26,5.17,5.95,5.17,5.95s-3.66.79-1.75,2.72a5.78,5.78,0,0,0,2.3,1.53,5.28,5.28,0,0,0,.8,1.3h0s-4.1,1.61-4.06,3.86a5.13,5.13,0,0,0,1.05,3,5.4,5.4,0,0,0,.69,1.08s-4.1,1.6-4.06,3.86c.08,4.26,5.17,5.95,5.17,5.95s-3.66.79-1.75,2.72c2.31,2.33,4.07,1.73,4.83,1.25l.42-.32a2.06,2.06,0,0,1-.42.32c-1.15.92-4.24,2.21-2.6,3.69a1,1,0,0,0,.52.25c.34,0,14.31.08,14.77,0,1.9,0,3.82,1.35,5.63,1.34L57.32,184.32l46,.38a4.21,4.21,0,0,0,.5-.27l-.16.27,21.41.17a3.54,3.54,0,0,0,0-.48l7.64.12c-.05.14-.09.28-.14.43l114.57.94L247,190c.33-.27.53-.46.53-.46s-.21.31-.48.81l-.06,0-2.53,94a11.48,11.48,0,0,0,1.25-.71,9,9,0,0,0-1.28,1.73l-.12,4.71a2.55,2.55,0,0,0,2.09-.3l-.13,3.15c-.47-.13-1-.26-1.61-.38l-.42-.06-1.5,55.88a11.88,11.88,0,0,0,1.27-.82l-.08,1.83,11.15-.05a6.13,6.13,0,0,0-1.09-3s3.33,5,6.87,2.09c1.7-1.4-1.45-4.17-2.61-5.08.76.47,2.53,1.08,4.83-1.25,1.91-1.93-1.75-2.72-1.75-2.72s5.1-1.69,5.17-5.95c0-2.26-4.06-3.86-4.06-3.86s2.25-2.58.8-5.41-5,1.36-5,1.36a9.77,9.77,0,0,0-.8-3.74,2.75,2.75,0,0,0,.3.14c2.69,1,2.06-4.31,2.06-4.31s2.59,3.43,5.12,2.12,1.2-4.43,1.2-4.43,5.17,2.08,4.56-3c-.3-2.46-6.51-3.31-6.51-3.31s6.38.8,5.48-4.64c-.36-2.17-4.29-1-5.69-.56.82-.38,2.28-1.54,1.57-4.74-.59-2.65-3.24,0-3.24,0s1.34-5.2-2.2-7.57a2.07,2.07,0,0,0-.87-.31,19.18,19.18,0,0,0-1.22-3.6s2.78,5.8,6.87,2.09c1.63-1.48-1.45-4.16-2.61-5.08.77.48,2.53,1.08,4.84-1.25,1.91-1.93-1.75-2.72-1.75-2.72s5.09-1.69,5.17-5.95c0-2.26-4.06-3.86-4.06-3.86s2.24-2.58.79-5.41-5,1.37-5,1.37.15-1.39-1.08-4.47a5,5,0,0,0-.28-.61,2.79,2.79,0,0,0,2.31-.09c2.53-1.31,1.19-4.43,1.19-4.43s5.17,2.08,4.56-3c-.29-2.46-6.5-3.3-6.5-3.3s6.38.8,5.47-4.64c-.36-2.18-4.28-1-5.68-.56.81-.39,2.28-1.54,1.57-4.74-.31-1.4-1.2-1.32-2-.94a9.85,9.85,0,0,0-1.17-4.37s3.82,2.46,4.41-.37a3.56,3.56,0,0,0-1.84-3.79s7.66-.82,6.78-3.29-5.25-3.66-5.25-3.66,7.8-2.83,3.83-6c-1.74-1.38-3.06-1.55-4-1.31a2.31,2.31,0,0,0,.41-.16c2.53-1.31,1.19-4.43,1.19-4.43s5.17,2.08,4.56-3c-.29-2.46-6.5-3.3-6.5-3.3s6.38.8,5.47-4.64c-.36-2.18-4.28-1-5.68-.56.81-.39,2.28-1.54,1.56-4.74-.58-2.65-3.23,0-3.23,0a10.16,10.16,0,0,0,.24-2,3.6,3.6,0,0,0,.21-3.84s6.88,3.46,7.48.9-2.43-5.91-2.43-5.91S276.07,187.2,274.44,182.38ZM45,287.46s.09-.4.18-1l.65.35C45.27,287.18,45,287.46,45,287.46Zm3.74,10.1a8.14,8.14,0,0,0,.57-1.64,13.27,13.27,0,0,0,.12,1.73A2,2,0,0,0,48.69,297.56ZM98,175Zm94.06-6.92a1,1,0,0,0,.07-.15l.17.16Zm48.22,6.14.26-.23c0,.07.05.15.08.23A3,3,0,0,0,240.27,174.21ZM252,319.4a5.84,5.84,0,0,0,.65-.35c.09.61.18,1,.18,1S252.53,319.78,252,319.4Zm9.26-4.17a8.63,8.63,0,0,0,.58,1.64,2.07,2.07,0,0,0-.7.09A11.43,11.43,0,0,0,261.28,315.23Z" /><path class="cls-2" d="M193.86,185.54v0h0ZM239,192.45a3.46,3.46,0,0,0-.32-.82,24.94,24.94,0,0,0,2.61,1.11,5.63,5.63,0,0,0,.2,1.12A3,3,0,0,0,239,192.45Zm6,42.81-.26-.07.32-.11S245.05,235.15,245,235.26Z" /><path class="cls-2" d="M35.05,345l-.42.32A2.06,2.06,0,0,0,35.05,345Z" /><path class="cls-3" d="M50.57,269.71s-5.81-4.24-2.14-8.72C48.43,261,54.11,262.79,50.57,269.71Z" /><path class="cls-3" d="M50.78,269.86s1.92-7.7,8.37-3.88C59.15,266,59.78,273.17,50.78,269.86Z" /><path class="cls-3" d="M51.19,268.25s1.16,5.49-3.1,6.38C48.09,274.63,45.8,270.68,51.19,268.25Z" /><path class="cls-3" d="M255.28,212.33s-5.81-4.24-2.14-8.72C253.14,203.61,258.82,205.41,255.28,212.33Z" /><path class="cls-3" d="M255.49,212.48s1.92-7.7,8.37-3.87C263.86,208.61,264.49,215.8,255.49,212.48Z" /><path class="cls-3" d="M255.9,210.87s1.16,5.49-3.1,6.38C252.8,217.25,250.51,213.31,255.9,210.87Z" /><path class="cls-3" d="M93.05,170.75s-5.81-4.24-2.14-8.72C90.91,162,96.59,163.83,93.05,170.75Z" /><path class="cls-3" d="M93.26,170.9s1.92-7.7,8.37-3.88C101.63,167,102.26,174.21,93.26,170.9Z" /><path class="cls-3" d="M93.67,169.29s1.16,5.49-3.1,6.37C90.57,175.66,88.28,171.72,93.67,169.29Z" /><path class="cls-3" d="M46.85,321s-5.8-4.24-2.13-8.72C44.72,312.27,50.4,314.08,46.85,321Z" /><path class="cls-3" d="M47.06,321.14s1.93-7.69,8.37-3.87C55.43,317.27,56.06,324.46,47.06,321.14Z" /><path class="cls-3" d="M47.48,319.53s1.16,5.49-3.1,6.38C44.38,325.91,42.09,322,47.48,319.53Z" /><path class="cls-3" d="M47.46,285.34s1.16,5.49-3.1,6.37C44.36,291.71,42.07,287.77,47.46,285.34Z" /><path class="cls-3" d="M50.17,176.11s-5.81-4.24-2.14-8.72C48,167.39,53.72,169.2,50.17,176.11Z" /><path class="cls-3" d="M42.84,253.4s-5.81-4.24-2.14-8.72C40.7,244.68,46.38,246.48,42.84,253.4Z" /><path class="cls-3" d="M50.38,176.26s1.93-7.69,8.37-3.87C58.75,172.39,59.38,179.58,50.38,176.26Z" /><path class="cls-3" d="M47.15,237.29s1.92-7.7,8.37-3.87C55.52,233.42,56.15,240.61,47.15,237.29Z" /><path class="cls-3" d="M50.8,174.65S52,180.14,47.7,181C47.7,181,45.41,177.09,50.8,174.65Z" /><path class="cls-3" d="M42.23,250.8s1.15,5.49-3.1,6.38C39.13,257.18,36.84,253.24,42.23,250.8Z" /><path class="cls-3" d="M202.12,169.06s7.13-1,7.6,4.79C209.72,173.85,204.38,176.5,202.12,169.06Z" /><path class="cls-3" d="M201.87,169.09s4,6.88-3.33,8.61C198.54,177.7,193.09,173,201.87,169.09Z" /><path class="cls-3" d="M202.69,170.54s-4.65-3.14-2.2-6.74C200.49,163.8,204.87,165.05,202.69,170.54Z" /><path class="cls-3" d="M164.87,169.76s-4.65-3.15-2.2-6.74C162.67,163,167.05,164.26,164.87,169.76Z" /><path class="cls-3" d="M247.59,250s3.62-6.22,8.45-3C256,246.93,254.83,252.77,247.59,250Z" /><path class="cls-3" d="M247.46,250.18s7.85,1.12,4.72,7.93C252.18,258.11,245.09,259.48,247.46,250.18Z" /><path class="cls-3" d="M249.1,250.43s-5.34,1.71-6.66-2.43C242.44,248,246.12,245.32,249.1,250.43Z" /><path class="cls-4" d="M255.78,176.33s4.85-3.75,7.27,1.08C263.05,177.41,260.11,181.88,255.78,176.33Z" /><path class="cls-4" d="M254.19,176.07s-4-6.2,1.19-9.14C255.38,166.93,260.17,170.75,254.19,176.07Z" /><path class="cls-4" d="M176.31,181.6s-4-6.2,1.19-9.14C177.5,172.46,182.29,176.27,176.31,181.6Z" /><path class="cls-4" d="M58.76,176.7S63.61,173,66,177.78C66,177.78,63.09,182.25,58.76,176.7Z" /><path class="cls-4" d="M101.66,172.34s-4-6.2,1.19-9.14C102.85,163.2,107.63,167,101.66,172.34Z" /><path class="cls-4" d="M249.24,295.55s6.12-.36,5.41,5C254.65,300.54,249.69,302.57,249.24,295.55Z" /><path class="cls-4" d="M258.43,269.36s6.12-.36,5.41,5C263.84,274.35,258.88,276.39,258.43,269.36Z" /><path class="cls-4" d="M248.08,294.45s.19-7.38,6.13-6.89C254.21,287.56,256,293.41,248.08,294.45Z" /><path class="cls-4" d="M258.36,280.6s.19-7.38,6.13-6.89C264.49,273.71,266.29,279.56,258.36,280.6Z" /><path class="cls-4" d="M252.55,344s6.12-.36,5.41,5C258,348.94,253,351,252.55,344Z" /><path class="cls-4" d="M251.39,342.85s.19-7.38,6.13-6.89C257.52,336,259.33,341.81,251.39,342.85Z" /><path class="cls-4" d="M147.45,178.38s3.69-8.23,10.19-3.65C157.64,174.73,156.93,182.57,147.45,178.38Z" /><path class="cls-4" d="M145.22,179.15s-9.5-5.27-4.81-12.69C140.41,166.46,149.27,168.09,145.22,179.15Z" /><path class="cls-4" d="M45.89,202.92s-6.18-6.57.55-10.81C46.44,192.11,53.4,195.79,45.89,202.92Z" /><path class="cls-4" d="M45.74,205.28s-8.52,6.74-13.56-.44C32.18,204.84,37.09,197.28,45.74,205.28Z" /><path class="cls-4" d="M43,289.93s-5.58,0-4-4.79C39,285.14,43.79,283.52,43,289.93Z" /><path class="cls-4" d="M45.2,339.72s-5.58,0-4-4.79C41.17,334.93,46,333.31,45.2,339.72Z" /><path class="cls-4" d="M52.49,232.6s-5.58.05-4-4.79C48.46,227.81,53.27,226.19,52.49,232.6Z" /><path class="cls-4" d="M43.87,291s-1.43,6.71-6.71,6C37.16,297,36.53,291.56,43.87,291Z" /><path class="cls-4" d="M56.24,339.72s-5.59,0-4-4.79C52.21,334.93,57,333.31,56.24,339.72Z" /><path class="cls-4" d="M57.1,340.78s-1.43,6.7-6.71,6C50.39,346.76,49.76,341.36,57.1,340.78Z" /><polyline class="cls-5" points="248.8 349.3 254.75 177.25 45.25 172.79 51.7 349.3" /><polygon class="cls-6" points="64.54 371.34 236.92 371.83 240.83 184.18 59.17 184.18 64.54 371.34" /><path class="cls-7" d="M60.07,239.76l182.42-13.39V183s-185.41-2.5-185-1.21S60.07,239.76,60.07,239.76Z" /><path class="cls-8" d="M60.07,239.76l182.42-13.39V183s-185.41-2.5-185-1.21S60.07,239.76,60.07,239.76Z" /><polygon class="cls-9" points="83.14 200.63 104.68 200.42 104.22 222.99 85.64 223.42 83.14 200.63" /><line class="cls-10" x1="93.8" y1="200.21" x2="94.85" y2="223.42" /><line class="cls-10" x1="104.68" y1="212.55" x2="84.18" y2="213.38" /><polygon class="cls-9" points="169.76 233.1 172.39 232.9 180.58 245.2 175.87 245.4 169.76 233.1" /><polygon class="cls-9" points="126.48 236.51 129.29 236.34 125.29 249.29 120.52 249.46 126.48 236.51" /><polygon class="cls-9" points="170.78 235.92 128.11 239.2 127.4 242.33 172.49 239.05 170.78 235.92" /><line class="cls-11" x1="172.23" y1="211.12" x2="168.14" y2="211.21" /><line class="cls-11" x1="123.33" y1="214.27" x2="127.84" y2="214.02" /><polygon class="cls-9" points="169.59 192.81 169.59 224.41 127.25 226.29 123.5 193.91 169.59 192.81" /><polygon class="cls-9" points="174.96 236.85 171.72 237.28 171.04 209.42 174.19 209.5 174.96 236.85" /><polygon class="cls-9" points="124.01 212.49 121.03 212.91 123.84 241.11 127.76 240.85 124.01 212.49" /><polygon class="cls-9" points="167.03 195.02 126.48 196.13 129.55 223.31 167.2 221.86 167.03 195.02" /><line class="cls-12" x1="163.8" y1="254.78" x2="162.77" y2="260.83" /><line class="cls-12" x1="144.37" y1="255.55" x2="145.48" y2="261.68" /><polygon class="cls-9" points="144.12 244.39 163.71 243.71 165.33 253.51 141.81 254.27 144.12 244.39" /><path class="cls-9" d="M165.33,253.51s-.26,3.06-2.81,3.74-17.38.69-17.38.69a4.75,4.75,0,0,1-3.32-3.67Z" /><line class="cls-12" x1="158.77" y1="261.86" x2="159.28" y2="266.97" /><line class="cls-12" x1="148.97" y1="261.6" x2="148.38" y2="266.2" /><polygon class="cls-9" points="146.12 249.88 160.56 249.25 159.45 260.15 148.26 260.41 146.12 249.88" /><polygon class="cls-9" points="159.33 261.92 148.26 262 148.16 260.11 159.41 259.98 159.33 261.92" /><line class="cls-12" x1="210.99" y1="253.85" x2="210.57" y2="260.49" /><line class="cls-12" x1="191.57" y1="254.61" x2="192.25" y2="261.94" /><line class="cls-13" x1="187.91" y1="244.94" x2="188.42" y2="250.31" /><line class="cls-12" x1="206.19" y1="258.17" x2="206.7" y2="263.19" /><line class="cls-12" x1="197.99" y1="259.24" x2="197.57" y2="264.01" /><line class="cls-12" x1="195.25" y1="253.35" x2="194.82" y2="258.12" /><polygon class="cls-9" points="197.45 259.24 194.47 254.25 204.48 255.21 206.86 258.87 197.45 259.24" /><polygon class="cls-9" points="207.45 259.06 197.37 259.39 197.41 257.29 207.61 257.26 207.45 259.06" /><polygon class="cls-9" points="187.05 243.79 204.77 242.64 211.63 251.33 189.69 252.48 187.05 243.79" /><path class="cls-9" d="M211.55,251.59s0,3.19-2.52,3.88-16.66.81-16.66.81-1.74-.7-2.42-3.77Z" /><polygon class="cls-9" points="196.08 247.37 209.63 246.73 207.59 257.21 197.51 257.46 196.08 247.37" /><line class="cls-12" x1="91.9" y1="256.87" x2="92.71" y2="263.48" /><line class="cls-12" x1="111.33" y1="256.5" x2="111.08" y2="263.85" /><line class="cls-13" x1="114.43" y1="246.63" x2="114.23" y2="252.02" /><line class="cls-12" x1="96.95" y1="260.9" x2="96.73" y2="265.95" /><line class="cls-12" x1="105.19" y1="261.49" x2="105.9" y2="266.23" /><line class="cls-12" x1="107.59" y1="255.45" x2="108.29" y2="260.19" /><polygon class="cls-9" points="105.73 261.46 108.42 256.31 98.48 257.85 96.32 261.65 105.73 261.46" /><polygon class="cls-9" points="95.75 261.87 105.82 261.61 105.66 259.51 95.47 260.08 95.75 261.87" /><polygon class="cls-9" points="115.21 245.44 97.45 245.32 91.11 254.4 113.08 254.26 115.21 245.44" /><path class="cls-9" d="M91.21,254.65s.15,3.19,2.74,3.72,16.68-.16,16.68-.16,1.69-.8,2.2-3.9Z" /><polygon class="cls-9" points="106.4 249.53 92.84 249.69 95.5 260.03 105.57 259.69 106.4 249.53" /><polygon class="cls-14" points="186.03 237.7 216.45 235.65 218.62 194.38 182.96 194.38 186.03 237.7" /><polygon class="cls-15" points="216.45 235.74 213.38 232.42 185.86 233.87 186.03 237.79 216.45 235.74" /><line class="cls-15" x1="215.74" y1="194.4" x2="213.38" y2="232.42" /><polygon class="cls-15" points="218.06 204.14 183.65 205.24 183.48 204.14 215.04 203.09 218.06 204.14" /><path class="cls-14" d="M209.3,235.26h0c-.5-.15-.8-.42-.65-.92,0,0,4.17-13.22,4.89-13h0c.71.2-3.09,13.53-3.09,13.53C210.3,235.38,209.79,235.41,209.3,235.26Z" /><rect class="cls-14" x="213.49" y="217.29" width="0.84" height="5.58" transform="translate(72.5 -52.31) rotate(16.75)" /><rect class="cls-14" x="213.87" y="216.9" width="1.81" height="0.79" transform="translate(71.74 -52.68) rotate(16.75)" /><line class="cls-16" x1="214.73" y1="219.01" x2="213.81" y2="218.81" /><line class="cls-16" x1="214.39" y1="220.26" x2="213.47" y2="220.05" /><line class="cls-16" x1="214.03" y1="221.57" x2="213.11" y2="221.37" /><path class="cls-14" d="M186.89,217.15l6.59,15.35,5.61.27a1.79,1.79,0,0,1-.91,2.54l-5.45-1.41-7.21-16.73Z" /><line class="cls-16" x1="189.24" y1="222.81" x2="188.1" y2="223.31" /><line class="cls-16" x1="188.24" y1="220.87" x2="187.28" y2="221.26" /><line class="cls-16" x1="187.73" y1="219.34" x2="186.55" y2="219.65" /><path class="cls-14" d="M214.13,203.31l0-1.43-4.56.14,0,1.2c0,.25,1,.45,2.26.45a4.66,4.66,0,0,0,2.23-.36Z" /><ellipse class="cls-14" cx="211.81" cy="201.88" rx="2.27" ry="0.45" /><path class="cls-17" d="M201.75,198.89a5,5,0,0,1,.87,4.94l-12.91.32s-1-3.11.08-5.19c0,0,3.58.34,6.16.37A46.51,46.51,0,0,0,201.75,198.89Z" /><path class="cls-18" d="M191.68,199.26c-.05-.82-.2-1.61.43-2.28a1.52,1.52,0,0,1,.55-.33s5.34-.55,6.46-.08,1.35,2.32,1.35,2.32l-1.12.07a1.3,1.3,0,0,0-1.19-1.67c-1.6-.24-5-.24-5.34.32a2.89,2.89,0,0,0-.24,1.43Z" /><path class="cls-17" d="M200.4,199.05a8.09,8.09,0,0,1,.15,4.86h-1.43a13.23,13.23,0,0,0,.29-4.74Z" /><path class="cls-17" d="M192.57,199.18a10.2,10.2,0,0,1,.35,5l-1.27-.06a10.15,10.15,0,0,0,0-5Z" /><path class="cls-17" d="M198.27,200.49l-3.82,0a4.32,4.32,0,0,1,0,2.46l3.8-.1A3.39,3.39,0,0,0,198.27,200.49Z" /><path class="cls-19" d="M189.79,199s1.46,1,.48,5.21" /><ellipse class="cls-14" cx="206.26" cy="230.47" rx="4.72" ry="3.72" transform="translate(-30.94 428.95) rotate(-88.09)" /><path class="cls-20" d="M203.78,227a15.77,15.77,0,0,0,2.79-3.86,16.38,16.38,0,0,0,2.41,4.05" /><line class="cls-21" x1="208.16" y1="226.46" x2="207.86" y2="234.65" /><line class="cls-21" x1="209.13" y1="227.36" x2="208.89" y2="233.81" /><line class="cls-21" x1="207.24" y1="225.88" x2="206.93" y2="235.05" /><line class="cls-21" x1="206.19" y1="225.69" x2="205.8" y2="235.06" /><line class="cls-21" x1="205.01" y1="225.92" x2="204.63" y2="234.85" /><polyline class="cls-21" points="208.67 234.08 203.63 233.87 203.83 226.99" /><line class="cls-21" x1="209.66" y1="232.22" x2="202.62" y2="232.09" /><line class="cls-21" x1="209.98" y1="230.59" x2="202.54" y2="230.35" /><line class="cls-21" x1="209.75" y1="228.91" x2="202.67" y2="228.81" /><line class="cls-21" x1="209.32" y1="227.74" x2="203.5" y2="227.47" /><polygon class="cls-14" points="207.03 223.94 206.04 223.93 206.41 216.76 207.74 216.84 207.03 223.94" /><line class="cls-16" x1="207.64" y1="218.29" x2="206.47" y2="218.29" /><line class="cls-16" x1="207.42" y1="219.98" x2="206.25" y2="219.98" /><polygon class="cls-15" points="217.47 217 184.67 218.36 184.41 216.83 214.4 215.68 217.47 217" /><ellipse class="cls-14" cx="211.55" cy="211.76" rx="4.94" ry="4.69" /><path class="cls-22" d="M213.76,207.51s-2.15.17-1.67,4.1c0,0-4,1.18-5.36-.72" /><path class="cls-22" d="M211.74,207s-2.24,1.47-1.5,5" /><path class="cls-22" d="M209.36,207.56a4.76,4.76,0,0,0-1.21,4.23" /><path class="cls-22" d="M212,211.64s2,1.53.88,4.63" /><path class="cls-22" d="M213,213.07a8.58,8.58,0,0,1-6.41-.23" /><path class="cls-22" d="M213.26,214.77a7.54,7.54,0,0,1-5.38.07" /><path class="cls-22" d="M212.16,209.36s3.21,1.28,2.61,5.94" /><path class="cls-22" d="M212.86,208s3,.6,3.58,4.56" /><ellipse class="cls-23" cx="205.47" cy="214.46" rx="2.37" ry="2.3" /><path class="cls-21" d="M206.34,212.35s-1.15.58-.6,1.56,2,.36,2,.36" /><path class="cls-21" d="M203.1,214.46s1.08-1.35,1.76-.39-.5,2.3-.5,2.3" /><circle class="cls-14" cx="190.55" cy="212.52" r="4.89" /><path class="cls-24" d="M187.4,216.27c.91.75,3.06-.36,4.8-2.47s2.34-4.32,1.43-5.07" /><path class="cls-24" d="M186.77,209.43c.75-.91,3-.29,5.14,1.44s3.17,3.87,2.42,4.78" /><path class="cls-24" d="M195.47,212.48a4.76,4.76,0,0,0-1.21,1.14c-.54.68-1.57,3.34-2.6,3.67" /><path class="cls-24" d="M191,207.66s2.5.62.87,3.21-5.24,1.86-6,2.78" /><polygon class="cls-15" points="186.03 237.79 184.12 234.97 180.58 195.75 183.29 194.22 186.03 237.79" /><polygon class="cls-9" points="110.31 233.51 110.25 241.29 109.19 241.29 108.66 233.33 110.31 233.51" /><polygon class="cls-9" points="82.3 234.8 83.24 242.65 84.07 242.53 83.89 234.69 82.3 234.8" /><polygon class="cls-9" points="86.78 230.62 87.08 238.99 86.19 238.99 85.48 230.79 86.78 230.62" /><polygon class="cls-9" points="107.72 237.69 106.48 237.87 106.42 229.73 107.77 229.73 107.72 237.69" /><polygon class="cls-9" points="108.08 229.1 110.78 232.52 81.59 234.14 85.73 230 108.08 229.1" /><polygon class="cls-9" points="110.84 234.1 81.53 235.63 81.53 234.16 110.84 232.62 110.84 234.1" /></g><g id="Grade_2" data-name="Grade 2"><polygon class="cls-25" points="129.49 374.43 54.37 377.05 47.95 176.96 252.05 179.61 243.44 374.37 172.12 373.98 170.84 367.32 233.65 367.11 237.47 189.72 61.33 189.92 66.79 368.3 130.86 367.73 129.49 374.43" /><polygon class="cls-25" points="129.44 368.71 176.05 368.28 176 371.19 129.84 372.18 129.44 368.71" /><ellipse class="cls-25" cx="137.57" cy="374.8" rx="1.78" ry="2.84" transform="translate(-242.06 498.42) rotate(-87.88)" /><ellipse class="cls-25" cx="137.57" cy="366.39" rx="1.78" ry="2.84" transform="translate(-233.66 490.32) rotate(-87.88)" /></g></svg>