<svg xmlns="http://www.w3.org/2000/svg" viewBox="0 0 300 900" width="300" height="900" preserveAspectRatio="none"><defs><style>.cls-1,.cls-11{fill:none;}.cls-2{fill:#146b45;}.cls-3{fill:#0b5430;}.cls-4{fill:#108342;}.cls-5{fill:#5d3213;}.cls-6{fill:#898b8d;}.cls-11,.cls-13,.cls-6,.cls-7{stroke:#808184;}.cls-13,.cls-6{stroke-miterlimit:10;}.cls-13,.cls-15,.cls-7,.cls-9{fill:#b1b3b5;}.cls-11,.cls-14,.cls-15,.cls-16,.cls-17,.cls-18,.cls-19,.cls-7{stroke-linejoin:round;}.cls-11,.cls-15,.cls-18,.cls-7{stroke-width:0.69px;}.cls-8{fill:#cec391;}.cls-10{fill:#808184;}.cls-12{fill:#8d8d8e;}.cls-13{stroke-width:0.5px;}.cls-14,.cls-16,.cls-17{fill:#c8e3dd;}.cls-14,.cls-16{stroke:#fff;}.cls-14{stroke-width:0.58px;}.cls-15{stroke:#606060;}.cls-16,.cls-17{stroke-linecap:round;stroke-width:1.15px;}.cls-17,.cls-18,.cls-19{stroke:#cec391;}.cls-18{fill:#f3e8ab;}.cls-19{fill:#e2d995;stroke-width:0.62px;}.cls-20{fill:#f52338;}</style></defs><g id="room_foilage" data-name="room foilage"><polygon class="cls-1" points="71.53 637.6 71.53 637.6 71.53 637.61 71.53 637.6" /><polygon class="cls-2" points="71.53 637.6 71.53 637.61 71.53 637.6 71.53 637.6" /><path class="cls-3" d="M66.58,641.85s-5.8,4.24-2.13,8.72C64.45,650.57,70.13,648.77,66.58,641.85Z" /><path class="cls-3" d="M67.21,643.31s1.15-5.49-3.1-6.38C64.11,636.93,61.82,640.87,67.21,643.31Z" /><path class="cls-2" d="M268,722c-.35.36-.56.63-.56.63s0-.3.05-.73A3.06,3.06,0,0,0,268,722Z" /><path class="cls-1" d="M241,788.42a3.81,3.81,0,0,0,.32-.81,3,3,0,0,0,2.48-1.41,6.14,6.14,0,0,0-.19,1.12A26.29,26.29,0,0,0,241,788.42Z" /><path class="cls-1" d="M196.16,794.52l0,0h0Z" /><path class="cls-1" d="M47.74,634.7a2.3,2.3,0,0,1,.42.31Z" /><path class="cls-1" d="M105.58,795.36h.34c.09.16.16.26.16.26S105.9,795.51,105.58,795.36Z" /><path class="cls-1" d="M249.33,789.74v.33l-.31-.24Z" /><path class="cls-1" d="M246.8,695.74l0-1a9,9,0,0,0,1.28,1.73A11.48,11.48,0,0,0,246.8,695.74Z" /><path class="cls-1" d="M127.37,795.67a3.74,3.74,0,0,0,0-.49l7.55-.06c0,.15.09.29.14.43Z" /><path class="cls-1" d="M249.38,789.72c.27.5.48.81.48.81s-.19-.19-.52-.46v-.33Z" /><path class="cls-1" d="M247.3,744.8l.07.18-.32-.11Z" /><path class="cls-1" d="M194.35,812h.24l-.17.16A1,1,0,0,1,194.35,812Z" /><path class="cls-1" d="M254.32,660.66c.51-.38.83-.67.83-.67s-.09.41-.18,1A5.84,5.84,0,0,0,254.32,660.66Z" /><path class="cls-1" d="M242.56,805.85h.35a1.55,1.55,0,0,0-.08.23Z" /><path class="cls-1" d="M264.16,663.19a8.69,8.69,0,0,0-.58,1.63,11.27,11.27,0,0,0-.12-1.72A2.36,2.36,0,0,0,264.16,663.19Z" /><path class="cls-1" d="M51.56,684.13A9.05,9.05,0,0,0,51,682.5a2.3,2.3,0,0,0,.69-.09A13.08,13.08,0,0,0,51.56,684.13Z" /><polygon class="cls-1" points="100.29 805.07 100.29 805.07 100.29 805.07 100.29 805.07" /><path class="cls-1" d="M47.25,692.6s.31.28.83.66c-.23.11-.44.23-.65.35C47.34,693,47.25,692.6,47.25,692.6Z" /><path class="cls-1" d="M248.6,687.16l.14,3.15a2.56,2.56,0,0,0-2.1-.3l-.06-2.41.42-.06C247.62,687.42,248.14,687.29,248.6,687.16Z" /><path class="cls-2" d="M246,691a1.32,1.32,0,0,1,.65-1l.13,4.71A5.46,5.46,0,0,1,246,691Z" /><path class="cls-2" d="M270.28,794.7s3-3.36,2.43-5.92-7.48.91-7.48.91a3.6,3.6,0,0,0-.21-3.84,10.16,10.16,0,0,0-.24-2s2.64,2.65,3.23,0c.71-3.2-.75-4.35-1.56-4.74,1.39.48,5.32,1.62,5.68-.56.91-5.44-5.47-4.64-5.47-4.64s6.21-.84,6.5-3.3c.61-5.11-4.56-3-4.56-3s1.34-3.12-1.19-4.43A2.31,2.31,0,0,0,267,763c.94.24,2.26.07,4-1.32,4-3.17-3.83-6-3.83-6s4.38-1.18,5.25-3.65-6.78-3.29-6.78-3.29a3.56,3.56,0,0,0,1.84-3.79c-.59-2.84-4.42-.38-4.42-.38a9.7,9.7,0,0,0,1.18-4.37c.76.39,1.64.47,1.95-.93.71-3.2-.75-4.35-1.56-4.74,1.4.48,5.32,1.62,5.68-.56.91-5.44-5.47-4.64-5.47-4.64s6.21-.84,6.5-3.3c.61-5.11-4.56-3-4.56-3s1.34-3.12-1.19-4.43a2.76,2.76,0,0,0-2.31-.09c.09-.19.19-.38.28-.61,1.23-3.08,1.08-4.47,1.08-4.47s3.52,4.2,5,1.37-.79-5.41-.79-5.41,4.1-1.6,4.06-3.86c-.08-4.26-5.18-6-5.18-6s3.66-.79,1.76-2.72c-2.31-2.33-4.07-1.73-4.84-1.25,1.16-.92,4.24-3.6,2.61-5.08-4.09-3.71-6.87,2.09-6.87,2.09a20,20,0,0,0,1.22-3.6,2.21,2.21,0,0,0,.87-.31c3.54-2.37,2.2-7.57,2.2-7.57s2.65,2.65,3.24,0c.71-3.2-.75-4.36-1.57-4.74,1.4.47,5.32,1.61,5.69-.56.9-5.44-5.48-4.64-5.48-4.64s6.21-.85,6.51-3.31c.61-5.1-4.56-3-4.56-3s1.33-3.12-1.2-4.43-5.13,2.13-5.13,2.13.64-5.36-2.06-4.31l-.29.14a9.8,9.8,0,0,0,.8-3.75s3.53,4.2,5,1.37-.8-5.41-.8-5.41,4.1-1.6,4.06-3.86c-.07-4.26-5.17-6-5.17-6s3.66-.79,1.75-2.72c-2.31-2.33-4.07-1.73-4.83-1.25,1.16-.92,4.24-3.6,2.6-5.08-4.08-3.71-6.86,2.09-6.86,2.09a33.12,33.12,0,0,0,1.42-5.32h-7.82l-.84,1.65-2.82.58.08,1.83a11.88,11.88,0,0,0-1.27-.82l1.5,55.88.42-.06c.62-.12,1.14-.25,1.6-.38l.14,3.15a2.56,2.56,0,0,0-2.1-.3l.13,4.71a9,9,0,0,0,1.28,1.73,11.48,11.48,0,0,0-1.25-.71l2.53,94,0,0c.27.5.48.81.48.81s-.19-.19-.52-.46l.11,4.11-114.57.94c0,.15.09.29.14.43l-7.65.12a3.74,3.74,0,0,0,0-.49l-21.41.18c.09.16.16.26.16.26s-.18-.11-.5-.26l-46,.38,6.44-167.26H45.83a1.06,1.06,0,0,0-.52.25c-1.63,1.48,1.27,5,2.43,6a2.3,2.3,0,0,1,.42.31l-.42-.31c-.76-.48-2.52-1.08-4.83,1.25-1.91,1.92,1.75,2.72,1.75,2.72s-5.1,1.69-5.17,6c0,2.26,4.06,3.86,4.06,3.86a5.4,5.4,0,0,0-.69,1.08,5.13,5.13,0,0,0-1,3c0,2.25,4,3.85,4,3.86h0a5.76,5.76,0,0,0-.8,1.31,5.69,5.69,0,0,0-2.31,1.53c-1.9,1.93,1.76,2.72,1.76,2.72s-5.1,1.69-5.18,6c0,2.26,4.06,3.86,4.06,3.86s-2.24,2.58-.79,5.41,5-1.37,5-1.37a10,10,0,0,0,.81,3.75,2.75,2.75,0,0,0-.3-.14c-2.69-1.05-2.06,4.3-2.06,4.3s-2.6-3.42-5.13-2.12-1.19,4.43-1.19,4.43-5.17-2.07-4.56,3c.29,2.46,6.5,3.31,6.5,3.31s-6.38-.8-5.47,4.64c.36,2.17,4.29,1,5.68.56-.81.38-2.27,1.54-1.56,4.74.59,2.65,3.23,0,3.23,0s-1.33,5.2,2.21,7.57a2.17,2.17,0,0,0,.86.31,20,20,0,0,0,1.22,3.6S45,708,41,711.73c-1.64,1.48,1.45,4.16,2.6,5.08-.76-.48-2.52-1.08-4.83,1.25-1.91,1.93,1.75,2.72,1.75,2.72s-5.09,1.69-5.17,6c0,2.26,4.06,3.86,4.06,3.86s-2.25,2.58-.8,5.41,5-1.37,5-1.37-.15,1.39,1.07,4.47a5.8,5.8,0,0,0,.29.61,2.76,2.76,0,0,0-2.31.09c-2.53,1.31-1.2,4.43-1.2,4.43s-5.17-2.08-4.56,3c.3,2.46,6.51,3.31,6.51,3.31s-6.38-.8-5.48,4.64c.37,2.18,4.29,1,5.69.56-.82.39-2.28,1.54-1.57,4.74.31,1.4,1.19,1.32,2,.93a9.79,9.79,0,0,0,1.17,4.37s-3.82-2.46-4.41.38A3.54,3.54,0,0,0,42.54,770s-7.65.81-6.78,3.29S41,776.91,41,776.91s-7.8,2.83-3.82,6c1.74,1.39,3.06,1.56,4,1.32a2.23,2.23,0,0,0-.4.16c-2.53,1.31-1.2,4.43-1.2,4.43s-5.17-2.08-4.56,3c.3,2.45,6.51,3.3,6.51,3.3s-6.38-.8-5.48,4.64c.37,2.18,4.29,1,5.69.56-.81.39-2.28,1.54-1.57,4.74.59,2.65,3.24,0,3.24,0s-1.34,5.2,2.2,7.57c1.88,1.26,5.45-1.32,5.45-1.32s.95,3.28,4.12,3.59S56.72,810,56.72,810a9.12,9.12,0,0,0,3.08,1.23A5.29,5.29,0,0,0,62,814.37c1.87,1.26,5.44-1.32,5.44-1.32s1,3.28,4.12,3.59c2,.21,2.09-1.91,1.86-3.43a5.32,5.32,0,0,0,1.15-.76,16.42,16.42,0,0,0,1.71.53,5.94,5.94,0,0,0,1.51,2.24c1.93,1.91,2.72-1.75,2.72-1.75s1.69,5.1,6,5.17c2.26,0,3.86-4.06,3.86-4.06s2.58,2.25,5.41.8-1.37-5-1.37-5a10,10,0,0,0,3.73-.8l-.12.29c-1,2.7,4.31,2.06,4.31,2.06s-3.43,2.6-2.12,5.13,4.42,1.2,4.42,1.2-2.07,5.17,3,4.56c2.46-.3,3.31-6.51,3.31-6.51s-.8,6.38,4.64,5.48c2.17-.37,1-4.29.56-5.69.38.82,1.54,2.28,4.74,1.57,2.65-.59,0-3.24,0-3.24s5.76,2.46,6.35-2.87a16.26,16.26,0,0,0,5.13-1.42s-5.8,2.78-2.09,6.87c1.48,1.63,4.16-1.45,5.08-2.61-.48.77-1.08,2.53,1.25,4.84,1.93,1.9,2.72-1.76,2.72-1.76s1.69,5.1,5.95,5.18c2.26,0,3.86-4.06,3.86-4.06s2.58,2.24,5.41.79c1.27-.65,1.12-1.72.58-2.7a6.29,6.29,0,0,0,.81-.55s1.6,4.1,3.86,4.06c4.25-.07,5.95-5.17,5.95-5.17s.79,3.66,2.72,1.75c2.23-2.2,1.77-3.91,1.31-4.72h0a10.32,10.32,0,0,0,3.05,2.72,1.72,1.72,0,0,0,.89.43c3.2.72,4.36-.75,4.74-1.56-.47,1.4-1.61,5.32.56,5.68,5.45.91,4.65-5.47,4.65-5.47s.84,6.21,3.3,6.5c5.1.61,3-4.56,3-4.56a4.78,4.78,0,0,0,2.4.3,1.69,1.69,0,0,0,.85.84c2.83,1.45,5.4-.8,5.4-.8s1.6,4.1,3.86,4.06c4.26-.07,6-5.17,6-5.17s.79,3.66,2.72,1.75c2.33-2.3,1.72-4.07,1.25-4.83.91,1.16,3.6,4.24,5.08,2.61,3.7-4.09-2.09-6.87-2.09-6.87s5.67,2.65,7.25.74a5.69,5.69,0,0,0,.72-1.1,16.87,16.87,0,0,0,1.36-1.52c-.47.77-1.08,2.53,1.25,4.84,1.93,1.91,2.72-1.76,2.72-1.76s1.69,5.1,5.95,5.18c2.26,0,3.86-4.06,3.86-4.06s2.58,2.24,5.41.79a1.85,1.85,0,0,0,.77-.67c1.51.24,3.52-2.08,4.29-3-.47.76-1.08,2.53,1.25,4.83,1.93,1.91,2.72-1.75,2.72-1.75s1.7,5.1,6,5.17c2.26,0,3.86-4.06,3.86-4.06s2.58,2.25,5.41.8-1.36-5-1.36-5,1.39.15,4.47-1.07c4.56-1.82.59-5.26.59-5.26s3.23,1.71,4.86-3.11S270.28,794.7,270.28,794.7ZM48.08,693.26c-.23.11-.44.23-.65.35-.09-.61-.18-1-.18-1S47.56,692.88,48.08,693.26Zm3.6-10.85a13.08,13.08,0,0,0-.12,1.72A9.05,9.05,0,0,0,51,682.5,2.3,2.3,0,0,0,51.68,682.41Zm48.61,122.66Zm94.3,6.91-.17.16a1,1,0,0,1-.07-.15Zm48.32-6.13a1.55,1.55,0,0,0-.08.23l-.27-.23ZM255.15,660s-.09.41-.18,1a5.84,5.84,0,0,0-.65-.35C254.83,660.28,255.15,660,255.15,660Zm8.31,3.11a2.36,2.36,0,0,0,.7.09,8.69,8.69,0,0,0-.58,1.63A11.27,11.27,0,0,0,263.46,663.1Z" /><path class="cls-2" d="M196.18,794.56h0v0Zm47.6-8.36a6.14,6.14,0,0,0-.19,1.12,26.29,26.29,0,0,0-2.61,1.1,3.81,3.81,0,0,0,.32-.81A3,3,0,0,0,243.78,786.2ZM247.37,745l-.32-.11.25-.07Z" /><path class="cls-2" d="M37.35,635s-.17-.11-.42-.31A2.3,2.3,0,0,1,37.35,635Z" /><path class="cls-3" d="M52.86,710.35s-5.8,4.24-2.13,8.72C50.73,719.07,56.41,717.27,52.86,710.35Z" /><path class="cls-3" d="M53.07,710.2s1.93,7.7,8.37,3.88C61.44,714.08,62.08,706.88,53.07,710.2Z" /><path class="cls-3" d="M53.49,711.81s1.16-5.49-3.1-6.38C50.39,705.43,48.1,709.37,53.49,711.81Z" /><path class="cls-3" d="M257.58,767.73s-5.81,4.24-2.14,8.72C255.44,776.45,261.12,774.65,257.58,767.73Z" /><path class="cls-3" d="M257.79,767.58s1.92,7.7,8.37,3.87C266.16,771.45,266.79,764.26,257.79,767.58Z" /><path class="cls-3" d="M258.2,769.19s1.16-5.49-3.1-6.38C255.1,762.81,252.81,766.75,258.2,769.19Z" /><path class="cls-3" d="M95.34,809.31s-5.8,4.24-2.13,8.72C93.21,818,98.89,816.23,95.34,809.31Z" /><path class="cls-3" d="M95.55,809.16s1.93,7.7,8.37,3.88C103.92,813,104.56,805.85,95.55,809.16Z" /><path class="cls-3" d="M96,810.77s1.16-5.49-3.1-6.38C92.87,804.39,90.58,808.33,96,810.77Z" /><path class="cls-3" d="M49.15,659.06s-5.81,4.25-2.14,8.72C47,667.78,52.7,666,49.15,659.06Z" /><path class="cls-3" d="M49.36,658.91s1.93,7.7,8.37,3.88C57.73,662.79,58.36,655.6,49.36,658.91Z" /><path class="cls-3" d="M49.78,660.53s1.15-5.49-3.1-6.38C46.68,654.15,44.39,658.09,49.78,660.53Z" /><path class="cls-3" d="M49.76,694.72s1.16-5.49-3.1-6.38C46.66,688.34,44.37,692.28,49.76,694.72Z" /><path class="cls-3" d="M52.47,803.94s-5.81,4.25-2.14,8.72C50.33,812.66,56,810.86,52.47,803.94Z" /><path class="cls-3" d="M45.14,726.66s-5.81,4.24-2.14,8.72C43,735.38,48.68,733.58,45.14,726.66Z" /><path class="cls-3" d="M52.68,803.79s1.92,7.7,8.37,3.88C61.05,807.67,61.68,800.48,52.68,803.79Z" /><path class="cls-3" d="M49.44,742.77s1.93,7.69,8.37,3.87C57.81,746.64,58.45,739.45,49.44,742.77Z" /><path class="cls-3" d="M53.1,805.41S54.25,799.92,50,799C50,799,47.7,803,53.1,805.41Z" /><path class="cls-3" d="M44.53,729.25s1.15-5.48-3.11-6.37C41.42,722.88,39.14,726.82,44.53,729.25Z" /><path class="cls-3" d="M204.42,811s7.13,1,7.6-4.79C212,806.21,206.68,803.56,204.42,811Z" /><path class="cls-3" d="M204.17,811s4-6.87-3.33-8.6C200.84,802.36,195.39,807.1,204.17,811Z" /><path class="cls-3" d="M205,809.51s-4.65,3.15-2.2,6.75C202.79,816.26,207.17,815,205,809.51Z" /><path class="cls-3" d="M167.16,810.3s-4.64,3.14-2.19,6.74C165,817,169.35,815.8,167.16,810.3Z" /><path class="cls-3" d="M249.88,730.1s3.63,6.22,8.46,3C258.34,733.13,257.13,727.29,249.88,730.1Z" /><path class="cls-3" d="M249.76,729.88s7.85-1.12,4.71-7.93C254.47,722,247.39,720.58,249.76,729.88Z" /><path class="cls-3" d="M251.4,729.63s-5.34-1.72-6.66,2.43C244.74,732.06,248.42,734.74,251.4,729.63Z" /><path class="cls-4" d="M258.07,803.73s4.86,3.74,7.28-1.08C265.35,802.65,262.4,798.18,258.07,803.73Z" /><path class="cls-4" d="M256.49,804s-4,6.21,1.19,9.15C257.68,813.13,262.46,809.31,256.49,804Z" /><path class="cls-4" d="M178.61,798.46s-4,6.2,1.19,9.14C179.8,807.6,184.58,803.79,178.61,798.46Z" /><path class="cls-4" d="M61.06,803.36s4.85,3.74,7.27-1.08C68.33,802.28,65.39,797.81,61.06,803.36Z" /><path class="cls-4" d="M104,807.72s-4,6.2,1.19,9.14C105.15,816.86,109.93,813.05,104,807.72Z" /><path class="cls-4" d="M251.54,684.51s6.12.36,5.4-5C256.94,679.52,252,677.49,251.54,684.51Z" /><path class="cls-4" d="M260.73,710.7s6.12.36,5.41-5C266.14,705.71,261.18,703.67,260.73,710.7Z" /><path class="cls-4" d="M250.38,685.61s.19,7.38,6.13,6.89C256.51,692.5,258.31,686.65,250.38,685.61Z" /><path class="cls-4" d="M260.66,699.46s.18,7.38,6.13,6.89C266.79,706.35,268.59,700.5,260.66,699.46Z" /><path class="cls-4" d="M254.85,636.11s6.12.36,5.41-5C260.26,631.12,255.3,629.08,254.85,636.11Z" /><path class="cls-4" d="M253.69,637.21s.19,7.38,6.13,6.89C259.82,644.1,261.62,638.25,253.69,637.21Z" /><path class="cls-4" d="M149.75,801.68s3.69,8.23,10.19,3.65C159.94,805.33,159.22,797.48,149.75,801.68Z" /><path class="cls-4" d="M147.52,800.91s-9.5,5.27-4.81,12.69C142.71,813.6,151.57,812,147.52,800.91Z" /><path class="cls-4" d="M48.19,777.13S42,783.71,48.73,788C48.73,788,55.7,784.27,48.19,777.13Z" /><path class="cls-4" d="M48,774.78s-8.52-6.74-13.56.44C34.48,775.22,39.39,782.77,48,774.78Z" /><path class="cls-4" d="M45.3,690.13s-5.58,0-4,4.79C41.27,694.92,46.09,696.54,45.3,690.13Z" /><path class="cls-4" d="M47.5,640.34s-5.59-.05-4,4.79C43.47,645.13,48.28,646.75,47.5,640.34Z" /><path class="cls-4" d="M54.79,747.46s-5.59-.05-4,4.79C50.76,752.25,55.57,753.87,54.79,747.46Z" /><path class="cls-4" d="M46.16,689.07s-1.42-6.7-6.7-6C39.46,683.09,38.83,688.5,46.16,689.07Z" /><path class="cls-4" d="M58.53,640.34s-5.58-.05-4,4.79C54.51,645.13,59.32,646.75,58.53,640.34Z" /><path class="cls-4" d="M59.4,639.28s-1.43-6.7-6.71-6C52.69,633.3,52.06,638.7,59.4,639.28Z" /><polyline class="cls-5" points="52.7 628.48 46.86 800.33 256.36 804.84 249.93 628.48" /><polygon class="cls-6" points="242.6 730.54 245.26 796.16 54.16 793.95 59.04 701.72 242.6 730.54" /><polygon class="cls-7" points="243.47 752.32 61.05 738.92 59.48 609.05 241.72 606.39 243.47 752.32" /><path class="cls-8" d="M226.25,772.17a11.34,11.34,0,0,1,.83,1l.34,1.17.69,2.33,0,.12,0,.13-.61,2.82-.3,1.42a14.65,14.65,0,0,1-.8,1.3,13.15,13.15,0,0,1-.19-1.52l.31-1.41.61-2.82V777l-.69-2.33-.34-1.17A12.1,12.1,0,0,1,226.25,772.17Z" /><path class="cls-8" d="M231.43,769.87c.29.35.53.72.78,1.08s.22.8.34,1.19l.63,2.4,0,.12,0,.12-.58,2.67c-.1.44-.21.88-.29,1.33a9.13,9.13,0,0,1-.79,1.23,10.56,10.56,0,0,1-.21-1.45c.12-.44.21-.88.31-1.33l.59-2.67v.24l-.63-2.4c-.1-.4-.23-.8-.3-1.21A12.41,12.41,0,0,1,231.43,769.87Z" /><path class="cls-8" d="M235.12,777.69c-.09-.5-.11-1-.15-1.48l.35-1.36.68-2.72v.25l-.76-2.78-.39-1.38c0-.51,0-1,.11-1.53a14.76,14.76,0,0,1,.86,1.26l.38,1.39.77,2.78,0,.13,0,.12-.68,2.72-.35,1.36A12.07,12.07,0,0,1,235.12,777.69Z" /><polyline class="cls-9" points="244.56 784.25 245.82 789.05 244.65 794.39" /><path class="cls-10" d="M244.56,784.25a11.22,11.22,0,0,1,.77,1.08c.15.39.23.79.34,1.19l.64,2.4,0,.12,0,.12-.59,2.67c-.09.44-.2.88-.28,1.33a10.23,10.23,0,0,1-.79,1.23,9.22,9.22,0,0,1-.21-1.45c.12-.44.2-.89.31-1.33l.58-2.67v.24l-.63-2.4c-.1-.41-.24-.8-.3-1.21A10.27,10.27,0,0,1,244.56,784.25Z" /><polygon class="cls-7" points="107.42 699.73 129.88 700.96 129.68 731.52 107.41 730.39 107.42 699.73" /><path class="cls-7" d="M128.27,724.25s-3.34,2.77-.2,5.78c0,0-3.74-2-5.92,0,0,0-4-2.37-6.12-.42,0,0-4.92-2.71-7.16-.21,0,0,1.94-2.17-.35-5.77a4.08,4.08,0,0,0,0-5.89s3-2.18.06-6.56c0,0,3.13-1.67.17-5,0,0,3-.72-.17-4.19,0,0,3.15,2.07,6.13,0,0,0,4.56,3.23,6.91.32a6.29,6.29,0,0,0,6.54.16s-2,1.68.3,4.2c0,0-3.53,1.1-.06,5.21,0,0-3.6,2.54-.24,6.95C128.17,718.81,124.83,721.57,128.27,724.25Z" /><polygon class="cls-7" points="219.79 705.13 217.18 742.83 150.91 739.11 148.75 703.48 219.79 705.13" /><polygon class="cls-7" points="215.47 708.92 152.94 708.08 155.64 737.13 213.76 739.89 215.47 708.92" /><polygon class="cls-7" points="197.56 752.74 196.98 762.55 198.48 762.7 199.27 751.38 197.56 752.74" /><polygon class="cls-7" points="192.76 770.39 199.59 757.68 200.36 745.3 192.92 757.01 192.76 770.39" /><polygon class="cls-7" points="146.4 741.55 134.39 753.11 194.31 756.96 201.43 744.43 146.4 741.55" /><polygon class="cls-7" points="192.76 761.59 191.09 773 189.72 773.08 190.18 761.36 192.76 761.59" /><polygon class="cls-7" points="135.89 757.59 135.57 769.79 136.92 770.03 138.78 757.26 135.89 757.59" /><polygon class="cls-7" points="135.28 753.21 135.41 766.6 192.59 770.72 193.1 756.93 135.28 753.21" /><path class="cls-7" d="M176.35,751.26s.26-3.07,7.17-3.84l6.92-.77,3.33-5.68h1.91l-1.61,5.68,1.61-1-.6,6.48-1.82-.64a44.44,44.44,0,0,1-9.42,1.16A17.37,17.37,0,0,1,176.35,751.26Z" /><line class="cls-11" x1="193.26" y1="751.52" x2="194.07" y2="746.65" /><path class="cls-12" d="M177.67,749.26l4.26.46.78-2.34S179.06,747.66,177.67,749.26Z" /><rect class="cls-11" x="177.06" y="752.85" width="1.13" height="1.3" rx="0.56" /><rect class="cls-11" x="190.79" y="753.21" width="1.47" height="1.47" rx="0.74" /><path class="cls-7" d="M177.63,752.85c.2-.05.29-1,.29-1" /><line class="cls-7" x1="191.52" y1="753.21" x2="191.05" y2="751.79" /><path class="cls-7" d="M141.88,750.69c-.17-.09-1-9.72-1-9.72s-.61-2,2.12-1.85a13,13,0,0,1,3.89.91s1.92.48,1.83,1.88c-.1,1.58,0,9,0,9A7.74,7.74,0,0,1,141.88,750.69Z" /><path class="cls-11" d="M140.91,740.75s.66,1.46,3.89,1.25c1-.06,3.76-.24,3.54-1.18" /><path class="cls-10" d="M143,739.87s-2.54-.08-1.05.88c1.77,1.14,4.94.22,4.94.22S147.9,740.46,143,739.87Z" /><path class="cls-10" d="M142.6,745.08s-.58,2.78,1.3,2.59c1.16-.12.53-2.21.19-2.5S142.79,743.83,142.6,745.08Z" /><path class="cls-11" d="M141.21,745.36s1.36,1.78,7.55.63" /><path class="cls-13" d="M148.76,746.56c.14,0,3-1.2,3-1.2l.86,2.21-3.83,1.64Z" /><polygon class="cls-10" points="148.89 744.98 151.84 745.04 148.66 746.41 148.89 744.98" /><path class="cls-12" d="M148.76,746.56l3-1.2.65,2.16a39.66,39.66,0,0,1-3.62,1.69C148.84,749,148.76,746.56,148.76,746.56Z" /><polyline class="cls-7" points="60.6 752.82 80.85 755.25 59.48 779.49" /><polygon class="cls-7" points="80.85 755.25 80.44 757.76 62.96 778.77 62.43 776.15 80.85 755.25" /><path class="cls-7" d="M78,760.64l-.26,15.91s-.16.31-.74.3-.65-.3-.65-.3l-.19-13.63Z" /><ellipse class="cls-14" cx="224.89" cy="770.53" rx="6.07" ry="3.45" /><line class="cls-15" x1="221.97" y1="774.19" x2="220.44" y2="781.86" /><line class="cls-15" x1="221.38" y1="768.92" x2="219.84" y2="776.58" /><line class="cls-16" x1="227.59" y1="774.45" x2="228.78" y2="781.94" /><line class="cls-16" x1="229.12" y1="769.43" x2="230.32" y2="776.92" /><path class="cls-15" d="M223.25,767.34s.24-9.82-3.41-8.61c-2,.66-3.64,4.13-3.9,6.7,0,0,.11,4.6,3.51,6.63C219.45,772.06,222.61,769.77,223.25,767.34Z" /><path class="cls-15" d="M218.93,770.39l.92-.28a8,8,0,0,1,5-1.49c2.57,0,4.77.92,5.65,2.21l.46-.44s-.17,2.43-.24,2.51c-.4,1.69-2.8,2.62-5.87,2.62-2.78,0-4.85-.84-5.57-2.29Z" /><ellipse class="cls-15" cx="224.89" cy="770.53" rx="6.07" ry="3.45" /><ellipse class="cls-14" cx="218.52" cy="787.7" rx="6.07" ry="3.45" /><line class="cls-17" x1="215.6" y1="791.36" x2="214.07" y2="799.02" /><line class="cls-17" x1="215.01" y1="786.08" x2="213.47" y2="793.74" /><line class="cls-17" x1="221.22" y1="791.62" x2="222.41" y2="799.11" /><line class="cls-17" x1="222.75" y1="786.59" x2="223.95" y2="794.08" /><path class="cls-15" d="M216.88,784.51s.32-10.29-3.32-9.07c-4.6,1.53-5.11,11.24.89,14.81A33.4,33.4,0,0,0,216.88,784.51Z" /><path class="cls-18" d="M212.56,787.55l.92-.28a8.08,8.08,0,0,1,5-1.48c2.57,0,4.77.91,5.65,2.2l.46-.44s-.17,2.44-.24,2.52c-.4,1.68-2.8,2.62-5.87,2.62-2.78,0-4.85-.85-5.57-2.29Z" /><ellipse class="cls-15" cx="218.52" cy="787.7" rx="6.07" ry="3.45" /><polygon class="cls-19" points="223.53 792.68 223.7 797.28 242.77 798.47 243.62 793.88 223.53 792.68" /><polygon class="cls-15" points="243.22 763.85 228.61 763.35 222.18 792.81 244.65 794.39 243.22 763.85" /></g><g id="Grade_1" data-name="Grade 1"><ellipse class="cls-20" cx="163.31" cy="602.27" rx="1.78" ry="2.84" transform="translate(-444.59 743.2) rotate(-87.88)" /><ellipse class="cls-20" cx="163.31" cy="610.68" rx="1.78" ry="2.84" transform="matrix(0.04, -1, 1, 0.04, -452.99, 751.29)" /><polygon class="cls-20" points="170.7 602.95 245.82 600.33 252.24 800.41 48.14 797.76 56.74 603 128.07 603.4 129.35 610.05 66.54 610.26 62.72 787.66 238.86 787.45 233.4 609.07 169.33 609.64 170.7 602.95" /><polygon class="cls-20" points="171.44 608.36 124.84 608.79 124.89 605.88 171.05 604.9 171.44 608.36" /><ellipse class="cls-20" cx="163.31" cy="602.27" rx="1.78" ry="2.84" transform="translate(-444.59 743.2) rotate(-87.88)" /><ellipse class="cls-20" cx="163.31" cy="610.68" rx="1.78" ry="2.84" transform="matrix(0.04, -1, 1, 0.04, -452.99, 751.29)" /></g></svg>