<svg xmlns="http://www.w3.org/2000/svg" viewBox="0 0 300 900" width="300" height="900" preserveAspectRatio="none"><defs><style>.cls-1,.cls-11,.cls-13,.cls-8{fill:none;}.cls-2{fill:#146b45;}.cls-3{fill:#0b5430;}.cls-4{fill:#108342;}.cls-5{fill:#5d3315;}.cls-6{fill:#888a8c;}.cls-10,.cls-14,.cls-7,.cls-9{fill:#b1b3b4;}.cls-10,.cls-11,.cls-14,.cls-16,.cls-8,.cls-9{stroke:#808083;}.cls-8{stroke-miterlimit:10;}.cls-10,.cls-11,.cls-12,.cls-13,.cls-14,.cls-16,.cls-9{stroke-linejoin:round;}.cls-9{stroke-width:0.69px;}.cls-10,.cls-12{stroke-width:0.59px;}.cls-11,.cls-13,.cls-16{stroke-linecap:round;stroke-width:1.28px;}.cls-12{fill:#f1e7a9;}.cls-12,.cls-13{stroke:#cdc290;}.cls-14{stroke-width:0.43px;}.cls-15,.cls-16{fill:#808083;}.cls-17{fill:#159848;}</style></defs><g id="rooms"><polygon class="cls-1" points="69.47 637.6 69.47 637.6 69.47 637.61 69.47 637.6" /><polygon class="cls-2" points="69.47 637.6 69.47 637.61 69.47 637.6 69.47 637.6" /><path class="cls-3" d="M64.52,641.85s-5.81,4.24-2.14,8.72C62.38,650.57,68.07,648.77,64.52,641.85Z" /><path class="cls-3" d="M65.15,643.31s1.15-5.49-3.1-6.38C62.05,636.93,59.76,640.87,65.15,643.31Z" /><path class="cls-2" d="M265.92,722c-.35.36-.56.63-.56.63s0-.3.05-.73A3.06,3.06,0,0,0,265.92,722Z" /><path class="cls-1" d="M238.92,788.42a3.81,3.81,0,0,0,.32-.81,3,3,0,0,0,2.48-1.41,6.14,6.14,0,0,0-.19,1.12A26.29,26.29,0,0,0,238.92,788.42Z" /><path class="cls-1" d="M194.1,794.52l0,0h0Z" /><path class="cls-1" d="M45.68,634.7a2.3,2.3,0,0,1,.42.31S45.93,634.9,45.68,634.7Z" /><path class="cls-1" d="M103.52,795.36h.34c.09.16.16.26.16.26S103.84,795.51,103.52,795.36Z" /><path class="cls-1" d="M247.27,789.74v.33l-.3-.24Z" /><path class="cls-1" d="M244.74,695.74l0-1a9,9,0,0,0,1.28,1.73A11.48,11.48,0,0,0,244.74,695.74Z" /><path class="cls-1" d="M125.31,795.67a3.74,3.74,0,0,0,0-.49l7.55-.06c0,.15.09.29.14.43Z" /><path class="cls-1" d="M247.32,789.72c.27.5.48.81.48.81a6.81,6.81,0,0,0-.53-.46v-.33Z" /><path class="cls-1" d="M245.24,744.8l.07.18-.32-.11Z" /><path class="cls-1" d="M192.29,812h.24l-.18.16Z" /><path class="cls-1" d="M252.26,660.66c.51-.38.83-.67.83-.67s-.1.41-.18,1A5.84,5.84,0,0,0,252.26,660.66Z" /><path class="cls-1" d="M240.5,805.85h.35a.9.9,0,0,0-.08.23Z" /><path class="cls-1" d="M262.09,663.19a9.05,9.05,0,0,0-.57,1.63,11.27,11.27,0,0,0-.12-1.72A2.34,2.34,0,0,0,262.09,663.19Z" /><path class="cls-1" d="M49.5,684.13a9.05,9.05,0,0,0-.57-1.63,2.3,2.3,0,0,0,.69-.09A13.08,13.08,0,0,0,49.5,684.13Z" /><polygon class="cls-1" points="98.23 805.07 98.23 805.07 98.23 805.07 98.23 805.07" /><path class="cls-1" d="M45.18,692.6s.32.28.83.66c-.22.11-.43.23-.64.35C45.28,693,45.18,692.6,45.18,692.6Z" /><path class="cls-1" d="M246.54,687.16l.13,3.15a2.54,2.54,0,0,0-2.09-.3l-.06-2.41.42-.06C245.56,687.42,246.07,687.29,246.54,687.16Z" /><path class="cls-2" d="M243.93,691a1.32,1.32,0,0,1,.65-1l.13,4.71A5.46,5.46,0,0,1,243.93,691Z" /><path class="cls-2" d="M268.21,794.7s3-3.36,2.44-5.92-7.48.91-7.48.91a3.6,3.6,0,0,0-.21-3.84,10.16,10.16,0,0,0-.24-2s2.64,2.65,3.23,0c.71-3.2-.75-4.35-1.56-4.74,1.39.48,5.32,1.62,5.68-.56.91-5.44-5.47-4.64-5.47-4.64s6.21-.84,6.5-3.3c.61-5.11-4.56-3-4.56-3s1.34-3.12-1.19-4.43a2.31,2.31,0,0,0-.41-.16c.94.24,2.26.07,4-1.32,4-3.17-3.83-6-3.83-6s4.38-1.18,5.25-3.65-6.78-3.29-6.78-3.29a3.56,3.56,0,0,0,1.84-3.79c-.59-2.84-4.42-.38-4.42-.38a9.7,9.7,0,0,0,1.18-4.37c.76.39,1.64.47,1.95-.93.71-3.2-.75-4.35-1.56-4.74,1.39.48,5.32,1.62,5.68-.56.91-5.44-5.47-4.64-5.47-4.64s6.21-.84,6.5-3.3c.61-5.11-4.56-3-4.56-3s1.34-3.12-1.19-4.43a2.78,2.78,0,0,0-2.32-.09,5.8,5.8,0,0,0,.29-.61c1.23-3.08,1.08-4.47,1.08-4.47s3.52,4.2,5,1.37-.79-5.41-.79-5.41,4.09-1.6,4.05-3.86c-.07-4.26-5.17-6-5.17-6s3.66-.79,1.75-2.72c-2.3-2.33-4.07-1.73-4.83-1.25,1.16-.92,4.24-3.6,2.61-5.08-4.09-3.71-6.87,2.09-6.87,2.09a20,20,0,0,0,1.22-3.6,2.17,2.17,0,0,0,.86-.31c3.55-2.37,2.21-7.57,2.21-7.57s2.65,2.65,3.24,0c.71-3.2-.76-4.36-1.57-4.74,1.4.47,5.32,1.61,5.68-.56.91-5.44-5.47-4.64-5.47-4.64s6.21-.85,6.5-3.31c.61-5.1-4.56-3-4.56-3s1.34-3.12-1.19-4.43-5.13,2.13-5.13,2.13.64-5.36-2.06-4.31l-.3.14a10,10,0,0,0,.81-3.75s3.52,4.2,5,1.37-.8-5.41-.8-5.41,4.1-1.6,4.06-3.86c-.08-4.26-5.17-6-5.17-6s3.66-.79,1.75-2.72c-2.31-2.33-4.07-1.73-4.83-1.25,1.15-.92,4.24-3.6,2.6-5.08-4.08-3.71-6.86,2.09-6.86,2.09a36.6,36.6,0,0,0,1.37-5.32h-7.93l-.69,1.65-2.81.58.07,1.83a10.13,10.13,0,0,0-1.27-.82l1.51,55.88.42-.06c.62-.12,1.13-.25,1.6-.38l.13,3.15a2.54,2.54,0,0,0-2.09-.3l.13,4.71a9,9,0,0,0,1.28,1.73,11.48,11.48,0,0,0-1.25-.71l2.53,94,0,0c.27.5.48.81.48.81a6.81,6.81,0,0,0-.53-.46l.12,4.11-114.57.94c0,.15.09.29.14.43l-7.65.12a3.74,3.74,0,0,0,0-.49l-21.41.18c.09.16.16.26.16.26s-.18-.11-.5-.26l-46,.38L64,628.48H43.59a1.06,1.06,0,0,0-.52.25c-1.63,1.48,1.45,5,2.61,6a2.3,2.3,0,0,1,.42.31s-.17-.11-.42-.31c-.76-.48-2.53-1.08-4.83,1.25-1.91,1.92,1.75,2.72,1.75,2.72s-5.1,1.69-5.17,6c0,2.26,4.06,3.86,4.06,3.86a5.4,5.4,0,0,0-.69,1.08,5.13,5.13,0,0,0-1,3c0,2.25,4,3.85,4,3.86h0a5.76,5.76,0,0,0-.8,1.31,5.69,5.69,0,0,0-2.31,1.53c-1.91,1.93,1.75,2.72,1.75,2.72s-5.09,1.69-5.17,6c0,2.26,4.06,3.86,4.06,3.86s-2.24,2.58-.79,5.41,5-1.37,5-1.37a10,10,0,0,0,.81,3.75l-.3-.14c-2.69-1.05-2.06,4.3-2.06,4.3s-2.6-3.42-5.13-2.12-1.19,4.43-1.19,4.43-5.17-2.07-4.56,3c.29,2.46,6.5,3.31,6.5,3.31s-6.38-.8-5.47,4.64c.36,2.17,4.29,1,5.68.56-.81.38-2.27,1.54-1.56,4.74.59,2.65,3.23,0,3.23,0s-1.33,5.2,2.21,7.57a2.17,2.17,0,0,0,.86.31,20,20,0,0,0,1.22,3.6S43,708,38.9,711.73c-1.64,1.48,1.45,4.16,2.6,5.08-.76-.48-2.52-1.08-4.83,1.25-1.91,1.93,1.75,2.72,1.75,2.72s-5.1,1.69-5.17,6c0,2.26,4.06,3.86,4.06,3.86s-2.25,2.58-.8,5.41,5-1.37,5-1.37-.15,1.39,1.07,4.47a5.8,5.8,0,0,0,.29.61,2.76,2.76,0,0,0-2.31.09c-2.53,1.31-1.2,4.43-1.2,4.43s-5.17-2.08-4.56,3c.3,2.46,6.51,3.31,6.51,3.31s-6.38-.8-5.48,4.64c.36,2.18,4.29,1,5.69.56-.82.39-2.28,1.54-1.57,4.74.31,1.4,1.19,1.32,2,.93a9.79,9.79,0,0,0,1.17,4.37s-3.82-2.46-4.41.38A3.54,3.54,0,0,0,40.48,770s-7.65.81-6.78,3.29S39,776.91,39,776.91s-7.8,2.83-3.82,6c1.73,1.39,3,1.56,4,1.32a2.23,2.23,0,0,0-.4.16c-2.53,1.31-1.2,4.43-1.2,4.43s-5.17-2.08-4.56,3c.3,2.45,6.51,3.3,6.51,3.3s-6.38-.8-5.48,4.64c.37,2.18,4.29,1,5.69.56-.82.39-2.28,1.54-1.57,4.74.59,2.65,3.24,0,3.24,0s-1.34,5.2,2.2,7.57c1.88,1.26,5.45-1.32,5.45-1.32s1,3.28,4.11,3.59S54.66,810,54.66,810a9.12,9.12,0,0,0,3.08,1.23,5.29,5.29,0,0,0,2.18,3.13c1.87,1.26,5.44-1.32,5.44-1.32s1,3.28,4.12,3.59c2,.21,2.09-1.91,1.86-3.43a5.32,5.32,0,0,0,1.15-.76,16.42,16.42,0,0,0,1.71.53,5.94,5.94,0,0,0,1.51,2.24c1.93,1.91,2.72-1.75,2.72-1.75s1.69,5.1,5.95,5.17c2.26,0,3.86-4.06,3.86-4.06s2.58,2.25,5.41.8-1.37-5-1.37-5a10,10,0,0,0,3.73-.8l-.12.29c-1,2.7,4.3,2.06,4.3,2.06s-3.42,2.6-2.12,5.13,4.43,1.2,4.43,1.2-2.07,5.17,3,4.56c2.46-.3,3.3-6.51,3.3-6.51s-.8,6.38,4.65,5.48c2.17-.37,1-4.29.55-5.69.39.82,1.55,2.28,4.75,1.57,2.65-.59,0-3.24,0-3.24s5.76,2.46,6.35-2.87a16.35,16.35,0,0,0,5.13-1.42s-5.8,2.78-2.09,6.87c1.48,1.63,4.16-1.45,5.08-2.61-.48.77-1.08,2.53,1.25,4.84,1.92,1.9,2.72-1.76,2.72-1.76s1.69,5.1,5.95,5.18c2.26,0,3.86-4.06,3.86-4.06s2.57,2.24,5.41.79c1.27-.65,1.12-1.72.57-2.7a5.5,5.5,0,0,0,.81-.55s1.61,4.1,3.86,4.06c4.26-.07,6-5.17,6-5.17s.79,3.66,2.72,1.75c2.23-2.2,1.77-3.91,1.31-4.72h0a10.32,10.32,0,0,0,3.05,2.72,1.68,1.68,0,0,0,.89.43c3.2.72,4.36-.75,4.74-1.56-.47,1.4-1.61,5.32.56,5.68,5.44.91,4.64-5.47,4.64-5.47s.85,6.21,3.31,6.5c5.1.61,3-4.56,3-4.56a4.78,4.78,0,0,0,2.4.3,1.66,1.66,0,0,0,.84.84c2.84,1.45,5.41-.8,5.41-.8s1.6,4.1,3.86,4.06c4.26-.07,5.95-5.17,5.95-5.17s.8,3.66,2.72,1.75c2.33-2.3,1.73-4.07,1.25-4.83.92,1.16,3.6,4.24,5.09,2.61,3.7-4.09-2.1-6.87-2.1-6.87s5.68,2.65,7.26.74a5.69,5.69,0,0,0,.72-1.1,16.87,16.87,0,0,0,1.36-1.52c-.48.77-1.08,2.53,1.25,4.84,1.93,1.91,2.72-1.76,2.72-1.76s1.69,5.1,5.95,5.18c2.26,0,3.86-4.06,3.86-4.06s2.58,2.24,5.41.79a1.85,1.85,0,0,0,.77-.67c1.51.24,3.52-2.08,4.29-3-.47.76-1.08,2.53,1.25,4.83,1.93,1.91,2.72-1.75,2.72-1.75s1.69,5.1,6,5.17c2.26,0,3.86-4.06,3.86-4.06s2.58,2.25,5.41.8-1.36-5-1.36-5,1.39.15,4.47-1.07c4.56-1.82.59-5.26.59-5.26s3.23,1.71,4.86-3.11S268.21,794.7,268.21,794.7ZM46,693.26c-.22.11-.43.23-.64.35-.09-.61-.19-1-.19-1S45.5,692.88,46,693.26Zm3.61-10.85a13.08,13.08,0,0,0-.12,1.72,9.05,9.05,0,0,0-.57-1.63A2.3,2.3,0,0,0,49.62,682.41ZM98.23,805.07Zm94.3,6.91-.18.16-.06-.15Zm48.32-6.13a.9.9,0,0,0-.08.23l-.27-.23ZM253.09,660s-.1.41-.18,1a5.84,5.84,0,0,0-.65-.35C252.77,660.28,253.09,660,253.09,660Zm8.31,3.11a2.34,2.34,0,0,0,.69.09,9.05,9.05,0,0,0-.57,1.63A11.27,11.27,0,0,0,261.4,663.1Z" /><path class="cls-2" d="M194.12,794.56h0v0Zm47.6-8.36a6.14,6.14,0,0,0-.19,1.12,26.29,26.29,0,0,0-2.61,1.1,3.81,3.81,0,0,0,.32-.81A3,3,0,0,0,241.72,786.2ZM245.31,745l-.32-.11.25-.07Z" /><path class="cls-2" d="M35.29,635s-.17-.11-.42-.31A2.3,2.3,0,0,1,35.29,635Z" /><path class="cls-3" d="M50.8,710.35s-5.8,4.24-2.13,8.72C48.67,719.07,54.35,717.27,50.8,710.35Z" /><path class="cls-3" d="M51,710.2s1.93,7.7,8.37,3.88C59.38,714.08,60,706.88,51,710.2Z" /><path class="cls-3" d="M51.43,711.81s1.16-5.49-3.1-6.38C48.33,705.43,46,709.37,51.43,711.81Z" /><path class="cls-3" d="M255.51,767.73s-5.8,4.24-2.13,8.72C253.38,776.45,259.06,774.65,255.51,767.73Z" /><path class="cls-3" d="M255.73,767.58s1.92,7.7,8.36,3.87C264.09,771.45,264.73,764.26,255.73,767.58Z" /><path class="cls-3" d="M256.14,769.19s1.16-5.49-3.1-6.38C253,762.81,250.75,766.75,256.14,769.19Z" /><path class="cls-3" d="M93.28,809.31s-5.8,4.24-2.13,8.72C91.15,818,96.83,816.23,93.28,809.31Z" /><path class="cls-3" d="M93.49,809.16s1.93,7.7,8.37,3.88C101.86,813,102.49,805.85,93.49,809.16Z" /><path class="cls-3" d="M93.91,810.77s1.16-5.49-3.1-6.38C90.81,804.39,88.52,808.33,93.91,810.77Z" /><path class="cls-3" d="M47.09,659.06s-5.81,4.25-2.14,8.72C45,667.78,50.64,666,47.09,659.06Z" /><path class="cls-3" d="M47.3,658.91s1.92,7.7,8.37,3.88C55.67,662.79,56.3,655.6,47.3,658.91Z" /><path class="cls-3" d="M47.72,660.53s1.15-5.49-3.11-6.38C44.61,654.15,42.33,658.09,47.72,660.53Z" /><path class="cls-3" d="M47.7,694.72s1.15-5.49-3.1-6.38C44.6,688.34,42.31,692.28,47.7,694.72Z" /><path class="cls-3" d="M50.41,803.94s-5.81,4.25-2.14,8.72C48.27,812.66,54,810.86,50.41,803.94Z" /><path class="cls-3" d="M43.08,726.66s-5.81,4.24-2.14,8.72C40.94,735.38,46.62,733.58,43.08,726.66Z" /><path class="cls-3" d="M50.62,803.79s1.92,7.7,8.37,3.88C59,807.67,59.62,800.48,50.62,803.79Z" /><path class="cls-3" d="M47.38,742.77s1.93,7.69,8.37,3.87C55.75,746.64,56.38,739.45,47.38,742.77Z" /><path class="cls-3" d="M51,805.41s1.16-5.49-3.1-6.38C47.93,799,45.64,803,51,805.41Z" /><path class="cls-3" d="M42.47,729.25s1.15-5.48-3.11-6.37C39.36,722.88,37.07,726.82,42.47,729.25Z" /><path class="cls-3" d="M202.36,811s7.13,1,7.6-4.79C210,806.21,204.62,803.56,202.36,811Z" /><path class="cls-3" d="M202.11,811s4-6.87-3.33-8.6C198.78,802.36,193.33,807.1,202.11,811Z" /><path class="cls-3" d="M202.93,809.51s-4.65,3.15-2.2,6.75C200.73,816.26,205.11,815,202.93,809.51Z" /><path class="cls-3" d="M165.1,810.3s-4.64,3.14-2.19,6.74C162.91,817,167.29,815.8,165.1,810.3Z" /><path class="cls-3" d="M247.82,730.1s3.63,6.22,8.46,3C256.28,733.13,255.07,727.29,247.82,730.1Z" /><path class="cls-3" d="M247.7,729.88s7.85-1.12,4.71-7.93C252.41,722,245.33,720.58,247.7,729.88Z" /><path class="cls-3" d="M249.34,729.63s-5.34-1.72-6.66,2.43C242.68,732.06,246.36,734.74,249.34,729.63Z" /><path class="cls-4" d="M256,803.73s4.85,3.74,7.28-1.08C263.29,802.65,260.34,798.18,256,803.73Z" /><path class="cls-4" d="M254.43,804s-4,6.21,1.19,9.15C255.62,813.13,260.4,809.31,254.43,804Z" /><path class="cls-4" d="M176.55,798.46s-4,6.2,1.19,9.14C177.74,807.6,182.52,803.79,176.55,798.46Z" /><path class="cls-4" d="M59,803.36s4.85,3.74,7.27-1.08C66.27,802.28,63.33,797.81,59,803.36Z" /><path class="cls-4" d="M101.9,807.72s-4,6.2,1.19,9.14C103.09,816.86,107.87,813.05,101.9,807.72Z" /><path class="cls-4" d="M249.48,684.51s6.12.36,5.4-5C254.88,679.52,249.93,677.49,249.48,684.51Z" /><path class="cls-4" d="M258.67,710.7s6.12.36,5.4-5C264.07,705.71,259.12,703.67,258.67,710.7Z" /><path class="cls-4" d="M248.32,685.61s.18,7.38,6.13,6.89C254.45,692.5,256.25,686.65,248.32,685.61Z" /><path class="cls-4" d="M258.59,699.46s.19,7.38,6.13,6.89C264.72,706.35,266.53,700.5,258.59,699.46Z" /><path class="cls-4" d="M252.79,636.11s6.12.36,5.4-5C258.19,631.12,253.24,629.08,252.79,636.11Z" /><path class="cls-4" d="M251.63,637.21s.19,7.38,6.13,6.89C257.76,644.1,259.56,638.25,251.63,637.21Z" /><path class="cls-4" d="M147.69,801.68s3.69,8.23,10.19,3.65C157.88,805.33,157.16,797.48,147.69,801.68Z" /><path class="cls-4" d="M145.46,800.91s-9.5,5.27-4.82,12.69C140.64,813.6,149.51,812,145.46,800.91Z" /><path class="cls-4" d="M46.13,777.13S40,783.71,46.67,788C46.67,788,53.64,784.27,46.13,777.13Z" /><path class="cls-4" d="M46,774.78s-8.52-6.74-13.57.44C32.41,775.22,37.32,782.77,46,774.78Z" /><path class="cls-4" d="M43.24,690.13s-5.58,0-4,4.79C39.21,694.92,44,696.54,43.24,690.13Z" /><path class="cls-4" d="M45.44,640.34s-5.59-.05-4,4.79C41.41,645.13,46.22,646.75,45.44,640.34Z" /><path class="cls-4" d="M52.73,747.46s-5.59-.05-4,4.79C48.7,752.25,53.51,753.87,52.73,747.46Z" /><path class="cls-4" d="M44.1,689.07s-1.42-6.7-6.7-6C37.4,683.09,36.77,688.5,44.1,689.07Z" /><path class="cls-4" d="M56.47,640.34s-5.58-.05-4,4.79C52.44,645.13,57.26,646.75,56.47,640.34Z" /><path class="cls-4" d="M57.33,639.28s-1.42-6.7-6.7-6C50.63,633.3,50,638.7,57.33,639.28Z" /><polyline class="cls-5" points="51.23 628.48 45.22 800.67 254.78 803.2 248.33 628.48" /><polygon class="cls-6" points="53.38 792.61 247.69 795.33 241.04 607.35 59.39 607.35 53.38 792.61" /><path class="cls-7" d="M242.61,607.42c-.43,1.29-1.47,117.94-1.47,117.94l-140.41-8.42-42,40.14,2.55-148.77Z" /><path class="cls-8" d="M241.58,604.69c-.43,1.29-.44,120.67-.44,120.67l-140.41-8.42-42,40.14L62,605.63" /><polygon class="cls-9" points="218.72 678.87 218.87 707.49 169.95 706.74 168.49 678.5 218.72 678.87" /><path class="cls-10" d="M180.86,705.12s-4.7-4.31-8.85-.39c0,0,2.58-4.7-.86-7.52,0,0,3-5-.24-7.75,0,0,3.45-6.19-.7-9.08,0,0,3.6,2.5,8.77-.32,0,0,4.7,3.76,9,.16,0,0,3.76,3.91,10,.23a6.48,6.48,0,0,0,8.61.08s4,3.68,8.85-.23c0,0-3.6,3.83,0,7.67,0,0-4.07,5.8.71,8.85,0,0-3.68,3.37-.16,8.07a5.53,5.53,0,0,0-6.58.7s-3.84-4.31-9.63,0c0,0-4.39-4.62-10.65-.47C189.16,705.12,184.46,700.81,180.86,705.12Z" /><path class="cls-10" d="M143.87,701.06a13.44,13.44,0,0,0-13.62,1.34L133,713.2l10.26-.62Z" /><line class="cls-11" x1="166.72" y1="723.25" x2="167.74" y2="729.28" /><path class="cls-10" d="M160.45,706.49s5-1.33,9,5.4l-2.74,11.36-6.11-5.64Z" /><polygon class="cls-12" points="166.72 723.25 157.4 725.83 151.06 719.1 160.61 717.61 166.72 723.25" /><line class="cls-11" x1="115.97" y1="725.38" x2="115.82" y2="731.39" /><line class="cls-13" x1="124.49" y1="726.4" x2="125.02" y2="733.11" /><polygon class="cls-10" points="134.61 735.15 140.09 730.85 131.17 728.57 124.59 732.33 134.61 735.15" /><line class="cls-11" x1="125.22" y1="732.33" x2="125.37" y2="738.44" /><line class="cls-11" x1="133.61" y1="740.61" x2="134" y2="734.37" /><line class="cls-11" x1="138.69" y1="730.84" x2="138.69" y2="735.58" /><path class="cls-10" d="M119.86,708s-4.92-1.15-8.41,6.29l3.88,11,5.5-6.23Z" /><polygon class="cls-10" points="115.33 725.29 124.49 726.4 130.42 720.44 120.83 719.06 115.33 725.29" /><polygon class="cls-10" points="152.47 735.15 146.99 730.85 155.91 728.57 162.49 732.33 152.47 735.15" /><line class="cls-11" x1="161.86" y1="732.33" x2="161.94" y2="738.44" /><line class="cls-11" x1="154.35" y1="740.01" x2="153.71" y2="733.82" /><line class="cls-11" x1="148.4" y1="730.84" x2="148.4" y2="735.58" /><ellipse class="cls-9" cx="142.43" cy="720.4" rx="25.49" ry="12.7" /><path class="cls-14" d="M144.15,713.53c2.34,0,4.24-.77,4.24-1.72h0c0-.95-1.9-1.72-4.24-1.72s-4.23.77-4.23,1.72a.82.82,0,0,0,.06.26C140.28,712.9,142,713.53,144.15,713.53Z" /><path class="cls-15" d="M146.29,709.2c-.26.79-.82,3.58-1.08,4.65a10.53,10.53,0,0,0-.51,3.6A11.52,11.52,0,0,0,146,714c.26-1.06,1-3.77,1.11-4.57Z" /><polygon class="cls-14" points="146.96 709.38 146.38 709.22 146.72 707.66 147.55 707.85 146.96 709.38" /><polygon class="cls-15" points="147.66 707.88 148.63 705.59 147.51 705.28 147.3 706.05 147.4 705.25 146.87 705.15 146.63 707.65 147.66 707.88" /><polygon class="cls-14" points="141.08 708.39 140.61 706.31 139.38 706.67 140.23 708.65 140.64 709.17 141.08 708.39" /><path class="cls-15" d="M140.08,708.54c.17.81,1.08,3.51,1.38,4.56a10.7,10.7,0,0,0,1.36,3.38s.4-1.11-.36-3.78c-.3-1-1.05-3.74-1.32-4.51A1.08,1.08,0,0,1,140.08,708.54Z" /><path class="cls-15" d="M140.71,706.33a2.32,2.32,0,0,0-.8-1.8,1.72,1.72,0,0,1-.74-1.5,3.06,3.06,0,0,0,.15,3.71Z" /><path class="cls-15" d="M144.53,708.53l-.13,8.88s-.56.57-.7,0-.31-8.88-.31-8.88Z" /><polygon class="cls-14" points="144.49 708.54 143.35 708.56 142.17 707.34 145.49 707.37 144.49 708.54" /><polygon class="cls-15" points="145.52 707.44 145.9 704.84 144.93 704.72 144.81 705.45 144.76 704.73 143.44 704.72 143.4 705.37 143.32 704.77 141.68 704.79 142.1 707.4 145.52 707.44" /><path class="cls-14" d="M144.15,713.53c-2.12,0-3.87-.63-4.17-1.46h0l.87,4.91c0,.78,1.52,1.42,3.4,1.42s3.4-.64,3.4-1.42l.75-5.17h0C148.39,712.76,146.49,713.53,144.15,713.53Z" /><path class="cls-10" d="M165,721.59a13.52,13.52,0,0,0-12.61,2.74l.06,10.82,10-2.82Z" /><path class="cls-10" d="M122.39,721.66A13.5,13.5,0,0,1,135,724.4l-.38,10.75-10-2.82Z" /><path class="cls-10" d="M213.61,712.5a13.45,13.45,0,0,1,13.63,1.33l-2.74,10.8L214.24,724Z" /><line class="cls-11" x1="190.77" y1="734.68" x2="189.75" y2="740.71" /><path class="cls-10" d="M197,717.92s-5-1.33-9,5.41l2.74,11.35,6.1-5.64Z" /><polygon class="cls-12" points="190.77 734.68 200.09 737.27 206.43 730.53 196.88 729.04 190.77 734.68" /><line class="cls-16" x1="241.52" y1="736.81" x2="241.67" y2="742.83" /><line class="cls-13" x1="232.99" y1="737.83" x2="232.47" y2="744.54" /><polygon class="cls-10" points="222.87 746.59 217.39 742.28 226.32 740.01 232.9 743.76 222.87 746.59" /><line class="cls-11" x1="232.27" y1="743.77" x2="232.11" y2="749.87" /><line class="cls-11" x1="223.88" y1="752.04" x2="223.48" y2="745.8" /><line class="cls-11" x1="218.8" y1="742.28" x2="218.8" y2="747.02" /><path class="cls-9" d="M237.63,719.41s4.92-1.15,8.41,6.29l-3.88,11-5.5-6.23Z" /><polygon class="cls-10" points="242.16 736.72 232.99 737.83 227.07 731.87 236.66 730.49 242.16 736.72" /><polygon class="cls-10" points="205.02 746.59 210.5 742.28 201.57 740.01 195 743.76 205.02 746.59" /><line class="cls-11" x1="195.62" y1="743.77" x2="195.54" y2="749.87" /><line class="cls-11" x1="203.14" y1="751.44" x2="203.78" y2="745.25" /><line class="cls-11" x1="209.09" y1="742.28" x2="209.09" y2="747.02" /><ellipse class="cls-10" cx="215.06" cy="731.84" rx="25.49" ry="12.7" /><path class="cls-10" d="M192.47,733a13.5,13.5,0,0,1,12.6,2.74l0,10.81-10-2.81Z" /><polygon class="cls-14" points="212.03 726.49 215.81 732.35 206.65 733.52 203.14 727.24 212.03 726.49" /><polygon class="cls-14" points="223.63 723.87 216.53 725.83 223.07 731.49 230.58 728.56 223.63 723.87" /><polygon class="cls-14" points="225.85 727.56 235.14 727.62 237.16 734.65 226.8 734.65 225.85 727.56" /><path class="cls-10" d="M235.1,733.09a13.52,13.52,0,0,0-12.61,2.74l.38,10.75,10-2.81Z" /><polygon class="cls-14" points="215.49 723.09 209.85 722.48 208.73 724.3 215.49 723.09" /><polygon class="cls-14" points="219.5 726.45 222.16 729.2 216.38 728.83 219.5 726.45" /><polygon class="cls-14" points="202.47 729.86 207 727.62 209.47 730.56 202.47 729.86" /><path class="cls-10" d="M84.75,728.57a13.44,13.44,0,0,0-13.63,1.33l2.74,10.8,10.26-.62Z" /><line class="cls-11" x1="108.67" y1="752.92" x2="108.81" y2="758.93" /><path class="cls-10" d="M104.78,735.52s4.91-1.15,8.41,6.29l-3.88,11-5.51-6.23Z" /><polygon class="cls-10" points="109.31 752.83 100.14 753.94 94.22 747.98 103.8 746.6 109.31 752.83" /><polygon class="cls-10" points="71.66 764.18 77.14 759.87 68.21 757.6 61.63 761.36 71.66 764.18" /><line class="cls-13" x1="62.26" y1="761.36" x2="62.65" y2="767.13" /><line class="cls-11" x1="70.18" y1="768.42" x2="70.42" y2="762.85" /><line class="cls-11" x1="76.82" y1="759.67" x2="76.72" y2="763.37" /><polygon class="cls-10" points="92.18 764.67 86.7 760.37 95.63 758.1 102.21 761.85 92.18 764.67" /><line class="cls-11" x1="101.58" y1="761.85" x2="101.19" y2="767.63" /><line class="cls-11" x1="93.66" y1="768.92" x2="93.42" y2="763.34" /><line class="cls-11" x1="87.02" y1="760.17" x2="87.12" y2="763.86" /><ellipse class="cls-9" cx="82.09" cy="748.34" rx="25.49" ry="12.7" /><path class="cls-10" d="M59.1,750.62a13.52,13.52,0,0,1,12.61,2.74l-.06,10.82-10-2.82Z" /><path class="cls-10" d="M104.74,751.11a13.52,13.52,0,0,0-12.61,2.74l.05,10.82,10-2.82Z" /><path class="cls-15" d="M80.71,743.77l-.1-.67,1.39-.23-1.43-.29.05-.6,2.45.67a.2.2,0,0,1,.17.2.21.21,0,0,1-.17.21Z" /><ellipse class="cls-14" cx="79.41" cy="741.96" rx="0.66" ry="1.36" transform="translate(-660 641.5) rotate(-76.15)" /><ellipse class="cls-14" cx="79" cy="743.86" rx="1.74" ry="0.84" transform="translate(-200.55 50.01) rotate(-15.88)" /><ellipse class="cls-14" cx="73.89" cy="749.09" rx="1.48" ry="0.46" transform="translate(-136.39 26.33) rotate(-10.59)" /><path class="cls-14" d="M76,750.47a2.82,2.82,0,0,1-2,1c-.51-.09-.43-.72.18-1.41a2.87,2.87,0,0,1,2-1.1c.51.08.43.71-.18,1.4l-.06.07" /><polygon class="cls-15" points="82.69 742.56 87.38 742.02 87.42 742.2 82.48 743.16 82.69 742.56" /><polygon class="cls-15" points="82.44 742.59 87.45 743.38 87.42 743.59 82.13 743.13 82.44 742.59" /><ellipse class="cls-7" cx="82.83" cy="742.89" rx="0.4" ry="0.27" /><path class="cls-15" d="M90.37,748l.16-.66L89.15,747l1.46-.17v-.6l-2.49.47a.23.23,0,0,0-.19.2.21.21,0,0,0,.15.22Z" /><ellipse class="cls-14" cx="91.69" cy="746.26" rx="1.35" ry="0.51" transform="translate(-132.8 28.68) rotate(-10.37)" /><ellipse class="cls-14" cx="91.77" cy="747.79" rx="0.7" ry="1.61" transform="translate(-658.86 683.23) rotate(-78.09)" /><polygon class="cls-15" points="88.49 746.62 85.32 746.06 85.27 746.24 88.65 747.24 88.49 746.62" /><polygon class="cls-15" points="88.73 746.68 85.14 747.4 85.16 747.62 89.01 747.23 88.73 746.68" /><ellipse class="cls-7" cx="88.33" cy="746.94" rx="0.27" ry="0.4" transform="translate(-663.2 777.6) rotate(-85.59)" /><path class="cls-15" d="M76.48,749.25,76,749l.61-.55-1.18.49-.64-.51L77,748c.07,0,.29.05.32.12a.18.18,0,0,1,0,.19Z" /><polygon class="cls-15" points="76.45 748.47 81.19 747.08 80.99 746.95 75.79 748.25 76.45 748.47" /><polygon class="cls-15" points="76.73 749.22 79.11 746.32 78.79 746.26 76.07 748.9 76.73 749.22" /><ellipse class="cls-7" cx="77.08" cy="748.17" rx="0.42" ry="0.2" /></g><g id="Grade_3" data-name="Grade 3"><ellipse class="cls-17" cx="163.31" cy="602.27" rx="1.78" ry="2.84" transform="translate(-444.59 743.2) rotate(-87.88)" /><ellipse class="cls-17" cx="163.31" cy="610.68" rx="1.78" ry="2.84" transform="translate(-452.99 751.29) rotate(-87.88)" /><polygon class="cls-17" points="170.7 602.95 245.82 600.33 252.24 800.41 48.14 797.76 56.74 603 128.07 603.4 129.35 610.05 66.54 610.26 62.72 787.66 238.86 787.45 233.4 609.07 169.33 609.64 170.7 602.95" /><polygon class="cls-17" points="171.44 608.36 124.84 608.79 124.89 605.88 171.05 604.9 171.44 608.36" /><ellipse class="cls-17" cx="163.31" cy="602.27" rx="1.78" ry="2.84" transform="translate(-444.59 743.2) rotate(-87.88)" /><ellipse class="cls-17" cx="163.31" cy="610.68" rx="1.78" ry="2.84" transform="translate(-452.99 751.29) rotate(-87.88)" /></g></svg>