<svg xmlns="http://www.w3.org/2000/svg" viewBox="0 0 300 900" width="300" height="900" preserveAspectRatio="none"><defs><style>.cls-1,.cls-10,.cls-8{fill:none;}.cls-2{fill:#146b45;}.cls-3{fill:#0b5430;}.cls-4{fill:#108342;}.cls-5{fill:#5d3315;}.cls-6{fill:#f6efc5;stroke-width:0.7px;}.cls-10,.cls-11,.cls-13,.cls-14,.cls-15,.cls-16,.cls-17,.cls-18,.cls-6,.cls-8,.cls-9{stroke:#cdc290;}.cls-15,.cls-16,.cls-17,.cls-18,.cls-6,.cls-8{stroke-miterlimit:10;}.cls-11,.cls-13,.cls-14,.cls-15,.cls-16,.cls-17,.cls-18,.cls-7,.cls-9{fill:#f1e7a9;}.cls-10,.cls-11,.cls-13,.cls-14,.cls-9{stroke-linejoin:round;}.cls-9{stroke-width:0.59px;}.cls-10{stroke-linecap:round;stroke-width:1.28px;}.cls-11{stroke-width:0.43px;}.cls-12{fill:#cdc290;}.cls-13{stroke-width:0.21px;}.cls-14{stroke-width:0.18px;}.cls-15{stroke-width:0.35px;}.cls-16{stroke-width:0.45px;}.cls-17{stroke-width:0.31px;}.cls-18{stroke-width:0.43px;}.cls-19{fill:#f2e8aa;}.cls-20{fill:#159848;}</style></defs><g id="rooms"><polygon class="cls-1" points="68.69 637.6 68.69 637.6 68.69 637.61 68.69 637.6" /><polygon class="cls-2" points="68.69 637.6 68.69 637.61 68.69 637.6 68.69 637.6" /><path class="cls-3" d="M63.74,641.85s-5.81,4.24-2.13,8.72C61.61,650.57,67.29,648.77,63.74,641.85Z" /><path class="cls-3" d="M64.37,643.31s1.15-5.49-3.1-6.38C61.27,636.93,59,640.87,64.37,643.31Z" /><path class="cls-2" d="M265.14,722c-.35.36-.56.63-.56.63s0-.3.05-.73A3.06,3.06,0,0,0,265.14,722Z" /><path class="cls-1" d="M238.14,788.42a3.81,3.81,0,0,0,.32-.81,3,3,0,0,0,2.48-1.41,6.14,6.14,0,0,0-.19,1.12A26.29,26.29,0,0,0,238.14,788.42Z" /><path class="cls-1" d="M193.32,794.52l0,0h0Z" /><path class="cls-1" d="M44.9,634.7a2.3,2.3,0,0,1,.42.31S45.15,634.9,44.9,634.7Z" /><path class="cls-1" d="M102.74,795.36h.34c.09.16.16.26.16.26S103.06,795.51,102.74,795.36Z" /><path class="cls-1" d="M246.49,789.74v.33l-.31-.24Z" /><path class="cls-1" d="M244,695.74l0-1a9,9,0,0,0,1.28,1.73A11.48,11.48,0,0,0,244,695.74Z" /><path class="cls-1" d="M124.53,795.67a3.74,3.74,0,0,0,0-.49l7.55-.06c0,.15.09.29.14.43Z" /><path class="cls-1" d="M246.54,789.72c.27.5.48.81.48.81s-.19-.19-.52-.46v-.33Z" /><path class="cls-1" d="M244.46,744.8l.07.18-.32-.11Z" /><path class="cls-1" d="M191.51,812h.24l-.17.16A1,1,0,0,1,191.51,812Z" /><path class="cls-1" d="M251.48,660.66c.51-.38.83-.67.83-.67s-.09.41-.18,1A5.84,5.84,0,0,0,251.48,660.66Z" /><path class="cls-1" d="M239.72,805.85h.35a1.55,1.55,0,0,0-.08.23Z" /><path class="cls-1" d="M261.32,663.19a8.69,8.69,0,0,0-.58,1.63,11.27,11.27,0,0,0-.12-1.72A2.36,2.36,0,0,0,261.32,663.19Z" /><path class="cls-1" d="M48.72,684.13a9.05,9.05,0,0,0-.57-1.63,2.3,2.3,0,0,0,.69-.09A13.08,13.08,0,0,0,48.72,684.13Z" /><polygon class="cls-1" points="97.45 805.07 97.45 805.07 97.45 805.07 97.45 805.07" /><path class="cls-1" d="M44.41,692.6s.31.28.82.66c-.22.11-.43.23-.64.35C44.5,693,44.41,692.6,44.41,692.6Z" /><path class="cls-1" d="M245.76,687.16l.13,3.15a2.54,2.54,0,0,0-2.09-.3l-.06-2.41.42-.06C244.78,687.42,245.3,687.29,245.76,687.16Z" /><path class="cls-2" d="M243.15,691a1.32,1.32,0,0,1,.65-1l.13,4.71A5.46,5.46,0,0,1,243.15,691Z" /><path class="cls-2" d="M267.43,794.7s3-3.36,2.44-5.92-7.48.91-7.48.91a3.6,3.6,0,0,0-.21-3.84,10.16,10.16,0,0,0-.24-2s2.64,2.65,3.23,0c.71-3.2-.75-4.35-1.56-4.74,1.39.48,5.32,1.62,5.68-.56.91-5.44-5.47-4.64-5.47-4.64s6.21-.84,6.5-3.3c.61-5.11-4.56-3-4.56-3s1.34-3.12-1.19-4.43a2.31,2.31,0,0,0-.41-.16c.94.24,2.26.07,4-1.32,4-3.17-3.83-6-3.83-6s4.38-1.18,5.25-3.65-6.78-3.29-6.78-3.29a3.56,3.56,0,0,0,1.84-3.79c-.59-2.84-4.42-.38-4.42-.38a9.7,9.7,0,0,0,1.18-4.37c.76.39,1.64.47,2-.93.71-3.2-.75-4.35-1.56-4.74,1.39.48,5.32,1.62,5.68-.56.91-5.44-5.47-4.64-5.47-4.64s6.21-.84,6.5-3.3c.61-5.11-4.56-3-4.56-3s1.34-3.12-1.19-4.43a2.78,2.78,0,0,0-2.32-.09,5.8,5.8,0,0,0,.29-.61c1.23-3.08,1.08-4.47,1.08-4.47s3.52,4.2,5,1.37-.79-5.41-.79-5.41,4.09-1.6,4-3.86c-.07-4.26-5.17-6-5.17-6s3.66-.79,1.76-2.72c-2.31-2.33-4.07-1.73-4.84-1.25,1.16-.92,4.24-3.6,2.61-5.08-4.09-3.71-6.87,2.09-6.87,2.09a20,20,0,0,0,1.22-3.6,2.21,2.21,0,0,0,.87-.31c3.54-2.37,2.2-7.57,2.2-7.57s2.65,2.65,3.24,0c.71-3.2-.76-4.36-1.57-4.74,1.4.47,5.32,1.61,5.69-.56.9-5.44-5.48-4.64-5.48-4.64s6.21-.85,6.51-3.31c.61-5.1-4.56-3-4.56-3s1.33-3.12-1.2-4.43-5.13,2.13-5.13,2.13.64-5.36-2.06-4.31l-.29.14a10.07,10.07,0,0,0,.8-3.75s3.52,4.2,5,1.37-.8-5.41-.8-5.41,4.1-1.6,4.06-3.86c-.07-4.26-5.17-6-5.17-6s3.66-.79,1.75-2.72c-2.31-2.33-4.07-1.73-4.83-1.25,1.15-.92,4.24-3.6,2.6-5.08-4.08-3.71-6.86,2.09-6.86,2.09a35.26,35.26,0,0,0,1.37-5.32h-7.93l-.69,1.65-2.81.58.08,1.83a11.88,11.88,0,0,0-1.27-.82l1.5,55.88.42-.06c.62-.12,1.14-.25,1.6-.38l.13,3.15a2.54,2.54,0,0,0-2.09-.3l.13,4.71a9,9,0,0,0,1.28,1.73,11.48,11.48,0,0,0-1.25-.71l2.53,94,0,0c.27.5.48.81.48.81s-.19-.19-.52-.46l.11,4.11L132,795.12c0,.15.09.29.14.43l-7.65.12a3.74,3.74,0,0,0,0-.49l-21.41.18c.09.16.16.26.16.26s-.18-.11-.5-.26l-46,.38,6.44-167.26H43.15c-.19,0-.77.75-.88.9-1.32,1.81,1.47,4.4,2.63,5.32a2.3,2.3,0,0,1,.42.31s-.17-.11-.42-.31c-.76-.48-2.53-1.08-4.83,1.25-1.91,1.92,1.75,2.72,1.75,2.72s-5.1,1.69-5.17,6c0,2.26,4.06,3.86,4.06,3.86a5.4,5.4,0,0,0-.69,1.08,5.13,5.13,0,0,0-1.05,3c0,2.25,4,3.85,4.05,3.86h0a5.76,5.76,0,0,0-.8,1.31,5.69,5.69,0,0,0-2.31,1.53C38,661.2,41.68,662,41.68,662s-5.1,1.69-5.18,6c0,2.26,4.06,3.86,4.06,3.86s-2.24,2.58-.79,5.41,5-1.37,5-1.37a10,10,0,0,0,.81,3.75l-.3-.14c-2.69-1.05-2.06,4.3-2.06,4.3s-2.6-3.42-5.13-2.12-1.19,4.43-1.19,4.43-5.17-2.07-4.56,3c.29,2.46,6.5,3.31,6.5,3.31s-6.38-.8-5.47,4.64c.36,2.17,4.29,1,5.68.56-.81.38-2.27,1.54-1.56,4.74.59,2.65,3.23,0,3.23,0s-1.33,5.2,2.21,7.57a2.17,2.17,0,0,0,.86.31,20,20,0,0,0,1.22,3.6s-2.78-5.8-6.86-2.09c-1.64,1.48,1.45,4.16,2.6,5.08-.76-.48-2.52-1.08-4.83,1.25-1.91,1.93,1.75,2.72,1.75,2.72s-5.1,1.69-5.17,6c0,2.26,4.06,3.86,4.06,3.86s-2.25,2.58-.8,5.41,5-1.37,5-1.37-.15,1.39,1.07,4.47a5.8,5.8,0,0,0,.29.61,2.76,2.76,0,0,0-2.31.09c-2.53,1.31-1.2,4.43-1.2,4.43s-5.17-2.08-4.56,3c.3,2.46,6.51,3.31,6.51,3.31s-6.38-.8-5.48,4.64c.37,2.18,4.29,1,5.69.56-.82.39-2.28,1.54-1.57,4.74.31,1.4,1.19,1.32,2,.93a9.79,9.79,0,0,0,1.17,4.37s-3.82-2.46-4.41.38A3.54,3.54,0,0,0,39.7,770s-7.65.81-6.78,3.29,5.25,3.65,5.25,3.65-7.8,2.83-3.82,6c1.73,1.39,3.06,1.56,4,1.32a2.23,2.23,0,0,0-.4.16c-2.53,1.31-1.2,4.43-1.2,4.43s-5.17-2.08-4.56,3c.3,2.45,6.51,3.3,6.51,3.3s-6.38-.8-5.48,4.64c.37,2.18,4.29,1,5.69.56-.82.39-2.28,1.54-1.57,4.74.59,2.65,3.24,0,3.24,0s-1.34,5.2,2.2,7.57c1.88,1.26,5.45-1.32,5.45-1.32s1,3.28,4.12,3.59S53.88,810,53.88,810A9.12,9.12,0,0,0,57,811.24a5.29,5.29,0,0,0,2.18,3.13c1.87,1.26,5.44-1.32,5.44-1.32s1,3.28,4.12,3.59c2,.21,2.09-1.91,1.86-3.43a5.32,5.32,0,0,0,1.15-.76,16.42,16.42,0,0,0,1.71.53,5.94,5.94,0,0,0,1.51,2.24c1.93,1.91,2.72-1.75,2.72-1.75s1.69,5.1,5.95,5.17c2.26,0,3.86-4.06,3.86-4.06s2.58,2.25,5.41.8-1.37-5-1.37-5a10,10,0,0,0,3.73-.8l-.12.29c-1,2.7,4.31,2.06,4.31,2.06s-3.43,2.6-2.13,5.13,4.43,1.2,4.43,1.2-2.07,5.17,3,4.56c2.46-.3,3.31-6.51,3.31-6.51s-.8,6.38,4.64,5.48c2.17-.37,1-4.29.56-5.69.38.82,1.54,2.28,4.74,1.57,2.65-.59,0-3.24,0-3.24s5.76,2.46,6.35-2.87a16.35,16.35,0,0,0,5.13-1.42s-5.8,2.78-2.09,6.87c1.48,1.63,4.16-1.45,5.08-2.61-.48.77-1.08,2.53,1.25,4.84,1.93,1.9,2.72-1.76,2.72-1.76s1.69,5.1,5.95,5.18c2.26,0,3.86-4.06,3.86-4.06s2.58,2.24,5.41.79c1.27-.65,1.12-1.72.57-2.7a6,6,0,0,0,.82-.55s1.6,4.1,3.85,4.06c4.26-.07,6-5.17,6-5.17s.79,3.66,2.72,1.75c2.23-2.2,1.77-3.91,1.31-4.72h0A10.32,10.32,0,0,0,170,814.8a1.68,1.68,0,0,0,.89.43c3.2.72,4.36-.75,4.74-1.56-.47,1.4-1.61,5.32.56,5.68,5.44.91,4.64-5.47,4.64-5.47s.85,6.21,3.31,6.5c5.1.61,3-4.56,3-4.56a4.78,4.78,0,0,0,2.4.3,1.7,1.7,0,0,0,.84.84c2.84,1.45,5.41-.8,5.41-.8s1.6,4.1,3.86,4.06c4.26-.07,5.95-5.17,5.95-5.17s.8,3.66,2.73,1.75c2.33-2.3,1.72-4.07,1.25-4.83.91,1.16,3.59,4.24,5.08,2.61,3.7-4.09-2.09-6.87-2.09-6.87s5.67,2.65,7.25.74a5.69,5.69,0,0,0,.72-1.1,16.87,16.87,0,0,0,1.36-1.52c-.48.77-1.08,2.53,1.25,4.84,1.93,1.91,2.72-1.76,2.72-1.76s1.69,5.1,5.95,5.18c2.26,0,3.86-4.06,3.86-4.06s2.58,2.24,5.41.79a1.85,1.85,0,0,0,.77-.67c1.51.24,3.52-2.08,4.29-3-.47.76-1.08,2.53,1.25,4.83,1.93,1.91,2.72-1.75,2.72-1.75s1.69,5.1,5.95,5.17c2.26,0,3.86-4.06,3.86-4.06s2.58,2.25,5.41.8-1.36-5-1.36-5,1.39.15,4.47-1.07c4.56-1.82.59-5.26.59-5.26s3.23,1.71,4.86-3.11S267.43,794.7,267.43,794.7ZM45.23,693.26c-.22.11-.43.23-.64.35-.09-.61-.18-1-.18-1S44.72,692.88,45.23,693.26Zm3.61-10.85a13.08,13.08,0,0,0-.12,1.72,9.05,9.05,0,0,0-.57-1.63A2.3,2.3,0,0,0,48.84,682.41ZM97.45,805.07Zm94.3,6.91-.17.16a1,1,0,0,1-.07-.15Zm48.32-6.13a1.55,1.55,0,0,0-.08.23l-.27-.23ZM252.31,660s-.09.41-.18,1a5.84,5.84,0,0,0-.65-.35C252,660.28,252.31,660,252.31,660Zm8.31,3.11a2.36,2.36,0,0,0,.7.09,8.69,8.69,0,0,0-.58,1.63A11.27,11.27,0,0,0,260.62,663.1Z" /><path class="cls-2" d="M193.34,794.56h0v0Zm47.6-8.36a6.14,6.14,0,0,0-.19,1.12,26.29,26.29,0,0,0-2.61,1.1,3.81,3.81,0,0,0,.32-.81A3,3,0,0,0,240.94,786.2ZM244.53,745l-.32-.11.25-.07Z" /><path class="cls-2" d="M34.51,635s-.17-.11-.42-.31A2.3,2.3,0,0,1,34.51,635Z" /><path class="cls-3" d="M50,710.35s-5.8,4.24-2.13,8.72C47.89,719.07,53.57,717.27,50,710.35Z" /><path class="cls-3" d="M50.23,710.2s1.93,7.7,8.37,3.88C58.6,714.08,59.23,706.88,50.23,710.2Z" /><path class="cls-3" d="M50.65,711.81s1.16-5.49-3.1-6.38C47.55,705.43,45.26,709.37,50.65,711.81Z" /><path class="cls-3" d="M254.74,767.73s-5.81,4.24-2.14,8.72C252.6,776.45,258.28,774.65,254.74,767.73Z" /><path class="cls-3" d="M255,767.58s1.92,7.7,8.37,3.87C263.32,771.45,264,764.26,255,767.58Z" /><path class="cls-3" d="M255.36,769.19s1.16-5.49-3.1-6.38C252.26,762.81,250,766.75,255.36,769.19Z" /><path class="cls-3" d="M92.5,809.31s-5.8,4.24-2.13,8.72C90.37,818,96.05,816.23,92.5,809.31Z" /><path class="cls-3" d="M92.71,809.16s1.93,7.7,8.37,3.88C101.08,813,101.72,805.85,92.71,809.16Z" /><path class="cls-3" d="M93.13,810.77s1.16-5.49-3.1-6.38C90,804.39,87.74,808.33,93.13,810.77Z" /><path class="cls-3" d="M46.31,659.06s-5.81,4.25-2.14,8.72C44.17,667.78,49.86,666,46.31,659.06Z" /><path class="cls-3" d="M46.52,658.91s1.92,7.7,8.37,3.88C54.89,662.79,55.52,655.6,46.52,658.91Z" /><path class="cls-3" d="M46.94,660.53s1.15-5.49-3.11-6.38C43.83,654.15,41.55,658.09,46.94,660.53Z" /><path class="cls-3" d="M46.92,694.72s1.16-5.49-3.1-6.38C43.82,688.34,41.53,692.28,46.92,694.72Z" /><path class="cls-3" d="M49.63,803.94s-5.81,4.25-2.14,8.72C47.49,812.66,53.17,810.86,49.63,803.94Z" /><path class="cls-3" d="M42.3,726.66s-5.81,4.24-2.14,8.72C40.16,735.38,45.84,733.58,42.3,726.66Z" /><path class="cls-3" d="M49.84,803.79s1.92,7.7,8.37,3.88C58.21,807.67,58.84,800.48,49.84,803.79Z" /><path class="cls-3" d="M46.6,742.77s1.93,7.69,8.37,3.87C55,746.64,55.6,739.45,46.6,742.77Z" /><path class="cls-3" d="M50.26,805.41s1.15-5.49-3.11-6.38C47.15,799,44.86,803,50.26,805.41Z" /><path class="cls-3" d="M41.69,729.25s1.15-5.48-3.11-6.37C38.58,722.88,36.3,726.82,41.69,729.25Z" /><path class="cls-3" d="M201.58,811s7.13,1,7.6-4.79C209.18,806.21,203.84,803.56,201.58,811Z" /><path class="cls-3" d="M201.33,811s4-6.87-3.33-8.6C198,802.36,192.55,807.1,201.33,811Z" /><path class="cls-3" d="M202.15,809.51s-4.65,3.15-2.2,6.75C200,816.26,204.33,815,202.15,809.51Z" /><path class="cls-3" d="M164.32,810.3s-4.64,3.14-2.19,6.74C162.13,817,166.51,815.8,164.32,810.3Z" /><path class="cls-3" d="M247,730.1s3.63,6.22,8.46,3C255.5,733.13,254.29,727.29,247,730.1Z" /><path class="cls-3" d="M246.92,729.88s7.85-1.12,4.71-7.93C251.63,722,244.55,720.58,246.92,729.88Z" /><path class="cls-3" d="M248.56,729.63s-5.34-1.72-6.66,2.43C241.9,732.06,245.58,734.74,248.56,729.63Z" /><path class="cls-4" d="M255.23,803.73s4.86,3.74,7.28-1.08C262.51,802.65,259.56,798.18,255.23,803.73Z" /><path class="cls-4" d="M253.65,804s-4,6.21,1.19,9.15C254.84,813.13,259.62,809.31,253.65,804Z" /><path class="cls-4" d="M175.77,798.46s-4,6.2,1.19,9.14C177,807.6,181.74,803.79,175.77,798.46Z" /><path class="cls-4" d="M58.22,803.36s4.85,3.74,7.27-1.08C65.49,802.28,62.55,797.81,58.22,803.36Z" /><path class="cls-4" d="M101.12,807.72s-4,6.2,1.19,9.14C102.31,816.86,107.09,813.05,101.12,807.72Z" /><path class="cls-4" d="M248.7,684.51s6.12.36,5.4-5C254.1,679.52,249.15,677.49,248.7,684.51Z" /><path class="cls-4" d="M257.89,710.7s6.12.36,5.4-5C263.29,705.71,258.34,703.67,257.89,710.7Z" /><path class="cls-4" d="M247.54,685.61s.19,7.38,6.13,6.89C253.67,692.5,255.47,686.65,247.54,685.61Z" /><path class="cls-4" d="M257.82,699.46s.18,7.38,6.13,6.89C264,706.35,265.75,700.5,257.82,699.46Z" /><path class="cls-4" d="M252,636.11s6.12.36,5.41-5C257.42,631.12,252.46,629.08,252,636.11Z" /><path class="cls-4" d="M250.85,637.21s.19,7.38,6.13,6.89C257,644.1,258.78,638.25,250.85,637.21Z" /><path class="cls-4" d="M146.91,801.68s3.69,8.23,10.19,3.65C157.1,805.33,156.38,797.48,146.91,801.68Z" /><path class="cls-4" d="M144.68,800.91s-9.5,5.27-4.82,12.69C139.86,813.6,148.73,812,144.68,800.91Z" /><path class="cls-4" d="M45.35,777.13s-6.18,6.58.54,10.82C45.89,788,52.86,784.27,45.35,777.13Z" /><path class="cls-4" d="M45.2,774.78s-8.52-6.74-13.57.44C31.63,775.22,36.55,782.77,45.2,774.78Z" /><path class="cls-4" d="M42.46,690.13s-5.58,0-4,4.79C38.43,694.92,43.25,696.54,42.46,690.13Z" /><path class="cls-4" d="M44.66,640.34s-5.59-.05-4,4.79C40.63,645.13,45.44,646.75,44.66,640.34Z" /><path class="cls-4" d="M52,747.46s-5.59-.05-4,4.79C47.92,752.25,52.73,753.87,52,747.46Z" /><path class="cls-4" d="M43.32,689.07s-1.42-6.7-6.7-6C36.62,683.09,36,688.5,43.32,689.07Z" /><path class="cls-4" d="M55.69,640.34s-5.58-.05-4,4.79C51.67,645.13,56.48,646.75,55.69,640.34Z" /><path class="cls-4" d="M56.55,639.28s-1.42-6.7-6.7-6C49.85,633.3,49.22,638.7,56.55,639.28Z" /><polyline class="cls-5" points="51.2 628.48 45.25 799.25 254.75 803.7 248.3 628.48" /><polygon class="cls-6" points="52.18 789.95 246.49 792.67 239.84 604.69 58.18 604.69 52.18 789.95" /><path class="cls-7" d="M241.41,604.76c-.43,1.29-1.48,117.94-1.48,117.94l-140.4-8.43-42,40.15,2.54-148.78Z" /><path class="cls-8" d="M241.41,604.76c-.43,1.29-1.48,117.94-1.48,117.94l-140.4-8.43-42,40.15,2.54-148.78Z" /><polygon class="cls-9" points="217.51 678.87 217.66 707.49 168.75 706.74 167.28 678.5 217.51 678.87" /><path class="cls-9" d="M179.66,705.12s-4.7-4.31-8.85-.39c0,0,2.58-4.7-.86-7.52,0,0,3.05-5-.24-7.75,0,0,3.45-6.19-.7-9.08,0,0,3.6,2.5,8.77-.32,0,0,4.69,3.76,9,.16,0,0,3.76,3.91,10,.23a6.48,6.48,0,0,0,8.61.08s4,3.68,8.85-.23c0,0-3.6,3.83,0,7.67,0,0-4.07,5.8.7,8.85,0,0-3.68,3.37-.15,8.07a5.53,5.53,0,0,0-6.58.7s-3.84-4.31-9.63,0c0,0-4.39-4.62-10.65-.47C188,705.12,183.26,700.81,179.66,705.12Z" /><path class="cls-9" d="M142.67,701.06A13.46,13.46,0,0,0,129,702.4l2.74,10.8,10.26-.62Z" /><line class="cls-10" x1="165.52" y1="723.25" x2="166.53" y2="729.28" /><path class="cls-9" d="M159.25,706.49s5-1.33,9,5.4l-2.74,11.36-6.11-5.64Z" /><polygon class="cls-9" points="165.52 723.25 156.2 725.83 149.85 719.1 159.41 717.61 165.52 723.25" /><line class="cls-10" x1="114.76" y1="725.38" x2="114.62" y2="731.39" /><line class="cls-10" x1="123.29" y1="726.4" x2="123.82" y2="733.11" /><polygon class="cls-9" points="133.41 735.15 138.89 730.85 129.97 728.57 123.39 732.33 133.41 735.15" /><line class="cls-10" x1="124.01" y1="732.33" x2="124.17" y2="738.44" /><line class="cls-10" x1="132.41" y1="740.61" x2="132.8" y2="734.37" /><line class="cls-10" x1="137.48" y1="730.84" x2="137.48" y2="735.58" /><path class="cls-9" d="M118.65,708s-4.92-1.15-8.41,6.29l3.88,11,5.51-6.23Z" /><polygon class="cls-9" points="114.12 725.29 123.29 726.4 129.21 720.44 119.63 719.06 114.12 725.29" /><polygon class="cls-9" points="151.26 735.15 145.78 730.85 154.71 728.57 161.29 732.33 151.26 735.15" /><line class="cls-10" x1="160.66" y1="732.33" x2="160.74" y2="738.44" /><line class="cls-10" x1="153.14" y1="740.01" x2="152.5" y2="733.82" /><line class="cls-10" x1="147.19" y1="730.84" x2="147.19" y2="735.58" /><ellipse class="cls-9" cx="141.22" cy="720.4" rx="25.49" ry="12.7" /><path class="cls-11" d="M143,713.53c2.34,0,4.24-.77,4.24-1.72h0c0-.95-1.9-1.72-4.24-1.72s-4.24.77-4.24,1.72a.84.84,0,0,0,.07.26C139.08,712.9,140.82,713.53,143,713.53Z" /><path class="cls-12" d="M145.09,709.2c-.26.79-.82,3.58-1.08,4.65a10.18,10.18,0,0,0-.51,3.6,11.52,11.52,0,0,0,1.25-3.49c.26-1.06,1-3.77,1.11-4.57Z" /><polygon class="cls-13" points="145.75 709.38 145.18 709.22 145.51 707.66 146.35 707.85 145.75 709.38" /><polygon class="cls-12" points="146.46 707.88 147.42 705.59 146.31 705.28 146.1 706.05 146.19 705.25 145.67 705.15 145.42 707.65 146.46 707.88" /><polygon class="cls-13" points="139.87 708.39 139.41 706.31 138.17 706.67 139.03 708.65 139.44 709.17 139.87 708.39" /><path class="cls-12" d="M138.88,708.54c.16.81,1.08,3.51,1.38,4.56a10.38,10.38,0,0,0,1.36,3.38s.4-1.11-.37-3.78c-.3-1-1.05-3.74-1.31-4.51A1.08,1.08,0,0,1,138.88,708.54Z" /><path class="cls-12" d="M139.51,706.33a2.36,2.36,0,0,0-.8-1.8A1.72,1.72,0,0,1,138,703a3.06,3.06,0,0,0,.15,3.71Z" /><path class="cls-12" d="M143.32,708.53l-.13,8.88s-.56.57-.7,0-.31-8.88-.31-8.88Z" /><polygon class="cls-14" points="143.29 708.54 142.15 708.56 140.96 707.34 144.28 707.37 143.29 708.54" /><polygon class="cls-12" points="144.32 707.44 144.7 704.84 143.73 704.72 143.61 705.45 143.56 704.73 142.24 704.72 142.2 705.37 142.12 704.77 140.47 704.79 140.9 707.4 144.32 707.44" /><path class="cls-11" d="M143,713.53c-2.13,0-3.87-.63-4.17-1.46h0l.87,4.91c0,.78,1.52,1.42,3.4,1.42s3.39-.64,3.39-1.42l.76-5.17h0C147.19,712.76,145.29,713.53,143,713.53Z" /><path class="cls-9" d="M163.82,721.59a13.52,13.52,0,0,0-12.61,2.74l0,10.82,10-2.82Z" /><path class="cls-9" d="M121.18,721.66a13.52,13.52,0,0,1,12.61,2.74l-.38,10.75-10-2.82Z" /><path class="cls-9" d="M212.41,712.5A13.44,13.44,0,0,1,226,713.83l-2.74,10.8L213,724Z" /><line class="cls-10" x1="189.56" y1="734.68" x2="188.55" y2="740.71" /><path class="cls-9" d="M195.83,717.92s-5-1.33-9,5.41l2.74,11.35,6.11-5.64Z" /><polygon class="cls-9" points="189.56 734.68 198.88 737.27 205.22 730.53 195.67 729.04 189.56 734.68" /><line class="cls-10" x1="240.32" y1="736.81" x2="240.46" y2="742.83" /><line class="cls-10" x1="231.79" y1="737.83" x2="231.26" y2="744.54" /><polygon class="cls-9" points="221.67 746.59 216.19 742.28 225.12 740.01 231.69 743.76 221.67 746.59" /><line class="cls-10" x1="231.07" y1="743.77" x2="230.91" y2="749.87" /><line class="cls-10" x1="222.67" y1="752.04" x2="222.28" y2="745.8" /><line class="cls-10" x1="217.6" y1="742.28" x2="217.6" y2="747.02" /><path class="cls-9" d="M236.43,719.41s4.92-1.15,8.41,6.29l-3.88,11-5.51-6.23Z" /><polygon class="cls-9" points="240.96 736.72 231.79 737.83 225.87 731.87 235.45 730.49 240.96 736.72" /><polygon class="cls-9" points="203.82 746.59 209.3 742.28 200.37 740.01 193.79 743.76 203.82 746.59" /><line class="cls-10" x1="194.42" y1="743.77" x2="194.34" y2="749.87" /><line class="cls-10" x1="201.94" y1="751.44" x2="202.58" y2="745.25" /><line class="cls-10" x1="207.89" y1="742.28" x2="207.89" y2="747.02" /><ellipse class="cls-9" cx="213.86" cy="731.84" rx="25.49" ry="12.7" /><path class="cls-9" d="M191.26,733a13.52,13.52,0,0,1,12.61,2.74l-.05,10.81-10-2.81Z" /><polygon class="cls-11" points="210.83 726.49 214.61 732.35 205.45 733.52 201.94 727.24 210.83 726.49" /><polygon class="cls-11" points="222.43 723.87 215.32 725.83 221.86 731.49 229.38 728.56 222.43 723.87" /><polygon class="cls-11" points="224.65 727.56 233.93 727.62 235.96 734.65 225.6 734.65 224.65 727.56" /><path class="cls-9" d="M233.9,733.09a13.52,13.52,0,0,0-12.61,2.74l.38,10.75,10-2.81Z" /><polygon class="cls-11" points="214.29 723.09 208.64 722.48 207.52 724.3 214.29 723.09" /><polygon class="cls-11" points="218.3 726.45 220.96 729.2 215.18 728.83 218.3 726.45" /><polygon class="cls-11" points="201.27 729.86 205.8 727.62 208.27 730.56 201.27 729.86" /><path class="cls-9" d="M83.55,728.57a13.45,13.45,0,0,0-13.63,1.33l2.74,10.8,10.26-.62Z" /><line class="cls-10" x1="107.46" y1="752.92" x2="107.61" y2="758.93" /><path class="cls-9" d="M103.57,735.52s4.92-1.15,8.41,6.29l-3.88,11-5.5-6.23Z" /><polygon class="cls-9" points="108.1 752.83 98.94 753.94 93.01 747.98 102.6 746.6 108.1 752.83" /><polygon class="cls-9" points="70.45 764.18 75.93 759.87 67.01 757.6 60.43 761.36 70.45 764.18" /><line class="cls-10" x1="61.05" y1="761.36" x2="61.44" y2="767.13" /><line class="cls-10" x1="68.97" y1="768.42" x2="69.21" y2="762.85" /><line class="cls-10" x1="75.61" y1="759.67" x2="75.51" y2="763.37" /><polygon class="cls-9" points="90.98 764.67 85.5 760.37 94.43 758.1 101 761.85 90.98 764.67" /><line class="cls-10" x1="100.38" y1="761.85" x2="99.99" y2="767.63" /><line class="cls-10" x1="92.46" y1="768.92" x2="92.22" y2="763.34" /><line class="cls-10" x1="85.82" y1="760.17" x2="85.92" y2="763.86" /><ellipse class="cls-9" cx="80.89" cy="748.34" rx="25.49" ry="12.7" /><path class="cls-9" d="M57.9,750.62a13.52,13.52,0,0,1,12.61,2.74l-.06,10.82-10-2.82Z" /><path class="cls-9" d="M103.53,751.11a13.52,13.52,0,0,0-12.61,2.74L91,764.67l10-2.82Z" /><path class="cls-12" d="M79.51,743.77l-.11-.67,1.4-.23-1.44-.29,0-.6,2.45.67a.21.21,0,0,1,0,.41Z" /><ellipse class="cls-15" cx="78.21" cy="741.96" rx="0.66" ry="1.36" transform="translate(-660.91 640.33) rotate(-76.15)" /><ellipse class="cls-16" cx="77.79" cy="743.86" rx="1.74" ry="0.84" transform="translate(-200.6 49.68) rotate(-15.88)" /><ellipse class="cls-17" cx="72.69" cy="749.09" rx="1.48" ry="0.46" transform="translate(-136.41 26.11) rotate(-10.59)" /><path class="cls-18" d="M74.81,750.47a2.84,2.84,0,0,1-2,1c-.52-.09-.43-.72.18-1.41a2.85,2.85,0,0,1,2-1.1c.51.08.43.71-.18,1.4l-.06.07" /><polygon class="cls-12" points="81.49 742.56 86.18 742.02 86.21 742.2 81.28 743.16 81.49 742.56" /><polygon class="cls-12" points="81.24 742.59 86.25 743.38 86.21 743.59 80.92 743.13 81.24 742.59" /><ellipse class="cls-7" cx="81.63" cy="742.89" rx="0.4" ry="0.27" /><path class="cls-12" d="M89.16,748l.16-.66L88,747l1.45-.17v-.6l-2.5.47a.22.22,0,0,0-.18.2.21.21,0,0,0,.15.22Z" /><ellipse class="cls-15" cx="90.49" cy="746.26" rx="1.35" ry="0.51" transform="translate(-132.82 28.47) rotate(-10.37)" /><ellipse class="cls-15" cx="90.57" cy="747.79" rx="0.7" ry="1.61" transform="translate(-659.82 682.05) rotate(-78.09)" /><polygon class="cls-12" points="87.28 746.62 84.12 746.06 84.07 746.24 87.45 747.24 87.28 746.62" /><polygon class="cls-12" points="87.53 746.68 83.94 747.4 83.96 747.62 87.81 747.23 87.53 746.68" /><ellipse class="cls-7" cx="87.12" cy="746.94" rx="0.27" ry="0.4" transform="translate(-664.31 776.4) rotate(-85.59)" /><path class="cls-12" d="M75.28,749.25,74.8,749l.6-.55-1.17.49-.65-.51,2.16-.39c.08,0,.29.05.32.12a.17.17,0,0,1,0,.19Z" /><polygon class="cls-12" points="75.25 748.47 79.99 747.08 79.79 746.95 74.59 748.25 75.25 748.47" /><polygon class="cls-12" points="75.53 749.22 77.91 746.32 77.59 746.26 74.86 748.9 75.53 749.22" /><ellipse class="cls-7" cx="75.88" cy="748.17" rx="0.42" ry="0.2" /><path class="cls-19" d="M169.83,602.59s-.52,45.29-52.56,38.7L128.06,609l-.86-6Z" /><path class="cls-19" d="M169.83,602.59s-.52,45.29-52.56,38.7L128.06,609l-.86-6Z" /></g><g id="Grade_3" data-name="Grade 3"><polygon class="cls-20" points="169.83 602.59 244.96 599.97 251.38 800.05 47.27 797.4 55.88 602.64 127.2 603.04 128.48 609.7 65.68 609.9 61.85 787.3 238 787.09 232.53 608.71 168.47 609.28 169.83 602.59" /><polygon class="cls-20" points="128.89 612.18 98.41 625.93 96.77 622.52 127.87 609.57 128.89 612.18" /><ellipse class="cls-20" cx="105.85" cy="626.06" rx="2.84" ry="1.78" transform="translate(-274.91 117.94) rotate(-27.25)" /><ellipse class="cls-20" cx="102.48" cy="617.87" rx="2.84" ry="1.78" transform="translate(-271.53 115.49) rotate(-27.25)" /></g></svg>