<svg xmlns="http://www.w3.org/2000/svg" viewBox="0 0 300 900" width="300" height="900" preserveAspectRatio="none"><defs><style>.cls-1{fill:#0b5430;}.cls-2{fill:#146b45;}.cls-16,.cls-3,.cls-8{fill:none;}.cls-4{fill:#108342;}.cls-5{fill:#5d3213;}.cls-10,.cls-11,.cls-13,.cls-15,.cls-6{fill:#f3e8ab;}.cls-7{fill:#f6efc5;stroke-miterlimit:10;stroke-width:0.7px;}.cls-10,.cls-11,.cls-12,.cls-14,.cls-15,.cls-16,.cls-7,.cls-8,.cls-9{stroke:#cec391;}.cls-10,.cls-11,.cls-12,.cls-13,.cls-14,.cls-15,.cls-16,.cls-8,.cls-9{stroke-linejoin:round;}.cls-8{stroke-width:0.63px;}.cls-12,.cls-14,.cls-9{fill:#e2d995;}.cls-11,.cls-13,.cls-16,.cls-9{stroke-width:0.69px;}.cls-10,.cls-12{stroke-width:0.62px;}.cls-13{stroke:#cfc392;}.cls-14{stroke-width:0.5px;}.cls-15{stroke-width:0.61px;}.cls-16{stroke-linecap:round;}.cls-17{fill:#f2e8aa;}.cls-18{fill:#f48242;}</style></defs><g id="wall_outlinefoilage" data-name="wall outlinefoilage"><path class="cls-1" d="M149.35,335.94c2.48,5.59,8.65,3.32,8.65,3.32-.36-4.4-6.17-4.88-8.17-4.85a9.64,9.64,0,0,1-.46,1.54Z" /><path class="cls-1" d="M149.35,335.94h0a9.64,9.64,0,0,0,.46-1.54,7.86,7.86,0,0,0-1,.06A13,13,0,0,0,149.35,335.94Z" /><path class="cls-1" d="M149.11,335.76a8.39,8.39,0,0,0-.57-1.25l-.53.24A8,8,0,0,0,149.11,335.76Z" /></g><g id="room_interiors" data-name="room interiors"><path class="cls-1" d="M61,338.21s-5.81-4.24-2.14-8.72C58.84,329.49,64.52,331.29,61,338.21Z" /><path class="cls-1" d="M61.6,336.75s1.16,5.49-3.1,6.38C58.5,343.13,56.21,339.19,61.6,336.75Z" /><path class="cls-2" d="M262.37,258.08c-.35-.36-.56-.63-.56-.63s0,.3.05.73A2.3,2.3,0,0,1,262.37,258.08Z" /><path class="cls-3" d="M235.37,191.63a3.72,3.72,0,0,1,.33.82,3,3,0,0,1,2.48,1.41,6.65,6.65,0,0,1-.2-1.12A26.13,26.13,0,0,1,235.37,191.63Z" /><path class="cls-3" d="M190.55,185.54l0,0h0Z" /><path class="cls-3" d="M42.14,345.36a1.81,1.81,0,0,0,.41-.32Z" /><path class="cls-3" d="M100,184.7h.34l.16-.27A4.21,4.21,0,0,1,100,184.7Z" /><path class="cls-3" d="M243.72,190.32V190l-.31.24Z" /><path class="cls-3" d="M241.19,284.32l0,1a8.78,8.78,0,0,1,1.29-1.73A12.37,12.37,0,0,1,241.19,284.32Z" /><path class="cls-3" d="M121.77,184.39a2.44,2.44,0,0,1,0,.48l7.55.07c0-.15.09-.29.14-.43Z" /><path class="cls-3" d="M243.78,190.34c.27-.5.48-.81.48-.81s-.2.19-.53.46v.33Z" /><path class="cls-3" d="M241.7,235.26l.07-.18-.33.11Z" /><path class="cls-3" d="M188.74,168.07H189l-.17-.16A1,1,0,0,1,188.74,168.07Z" /><path class="cls-3" d="M248.71,319.4c.51.38.83.67.83.67s-.09-.41-.18-1A5.84,5.84,0,0,1,248.71,319.4Z" /><path class="cls-3" d="M237,174.21a3,3,0,0,1,.34,0c0-.08-.05-.16-.08-.23Z" /><path class="cls-3" d="M258.55,316.87a8.14,8.14,0,0,1-.57-1.64,13.27,13.27,0,0,1-.12,1.73A2,2,0,0,1,258.55,316.87Z" /><path class="cls-3" d="M46,295.92a8.63,8.63,0,0,1-.58,1.64,2.07,2.07,0,0,1,.7.09A11.43,11.43,0,0,1,46,295.92Z" /><polygon class="cls-3" points="94.69 174.99 94.69 174.99 94.69 174.99 94.69 174.99" /><path class="cls-3" d="M41.64,287.46s.32-.28.83-.66l-.65-.35C41.73,287.06,41.64,287.46,41.64,287.46Z" /><path class="cls-3" d="M243,292.9l.13-3.15a2.54,2.54,0,0,1-2.09.3l-.07,2.41.42.06C242,292.64,242.53,292.77,243,292.9Z" /><path class="cls-2" d="M240.39,289.06a1.29,1.29,0,0,0,.65,1l.12-4.71A5.4,5.4,0,0,0,240.39,289.06Z" /><path class="cls-2" d="M271.13,182.38c-1.62-4.81-4.85-3.11-4.85-3.11s4-3.44-.6-5.25c-3.08-1.23-4.47-1.08-4.47-1.08s4.2-3.52,1.37-5-5.41.8-5.41.8-1.6-4.1-3.86-4.06c-4.26.07-5.95,5.17-5.95,5.17s-.8-3.66-2.72-1.75c-2.33,2.3-1.73,4.07-1.25,4.83-.77-1-2.79-3.3-4.29-3.05a1.89,1.89,0,0,0-.78-.67c-2.83-1.45-5.41.79-5.41.79s-1.6-4.1-3.85-4.06c-4.26.08-6,5.17-6,5.17s-.79-3.66-2.72-1.75c-2.33,2.31-1.72,4.07-1.25,4.84a15.44,15.44,0,0,0-1.36-1.52,5.17,5.17,0,0,0-.71-1.1c-1.58-1.91-7.26.74-7.26.74s5.8-2.78,2.09-6.87c-1.48-1.63-4.17,1.45-5.08,2.61.47-.76,1.08-2.53-1.25-4.83-1.93-1.91-2.72,1.75-2.72,1.75s-1.69-5.1-6-5.17c-2.26,0-3.86,4.06-3.86,4.06s-2.58-2.25-5.41-.8a1.75,1.75,0,0,0-.85.83,4.85,4.85,0,0,0-2.4.31s2.08-5.17-3-4.56c-2.46.29-3.3,6.5-3.3,6.5s.8-6.38-4.64-5.47c-2.18.36-1,4.28-.56,5.68-.39-.81-1.54-2.28-4.74-1.57a1.72,1.72,0,0,0-.89.44,10.24,10.24,0,0,0-3.06,2.72h0c.46-.81.92-2.52-1.31-4.72-1.93-1.91-2.72,1.75-2.72,1.75s-1.69-5.1-6-5.17c-2.26,0-3.86,4.06-3.86,4.06a4.69,4.69,0,0,0-.81-.55c.55-1,.69-2-.58-2.7-2.83-1.45-5.41.79-5.41.79s-1.6-4.1-3.86-4.06c-4.26.08-6,5.17-6,5.17s-.79-3.66-2.72-1.75c-2.33,2.31-1.72,4.07-1.25,4.84-.91-1.16-3.6-4.24-5.08-2.61-3.71,4.09,2.09,6.87,2.09,6.87a16.45,16.45,0,0,0-5.12-1.43c-.6-5.32-6.36-2.86-6.36-2.86s2.65-2.65,0-3.24c-3.2-.71-4.35.75-4.74,1.57.48-1.4,1.62-5.33-.56-5.69-5.44-.9-4.64,5.48-4.64,5.48s-.85-6.21-3.31-6.51c-5.1-.61-3,4.56-3,4.56s-3.12-1.33-4.43,1.2,2.12,5.12,2.12,5.12-5.35-.63-4.31,2.06l.12.29a9.75,9.75,0,0,0-3.72-.79s4.2-3.53,1.36-5-5.4.8-5.4.8-1.61-4.1-3.86-4.06c-4.26.07-6,5.17-6,5.17s-.79-3.66-2.72-1.75a5.71,5.71,0,0,0-1.5,2.24,16,16,0,0,0-1.72.53,5.52,5.52,0,0,0-1.14-.76c.22-1.52.18-3.64-1.87-3.44-3.17.32-4.12,3.6-4.12,3.6s-3.56-2.58-5.44-1.33a5.32,5.32,0,0,0-2.17,3.14,8.86,8.86,0,0,0-3.09,1.23s1.63-5.24-1.54-4.92-4.12,3.59-4.12,3.59-3.56-2.58-5.44-1.32C36.47,169.77,37.8,175,37.8,175s-2.65-2.65-3.23,0c-.71,3.2.75,4.35,1.56,4.74-1.4-.48-5.32-1.62-5.68.56-.91,5.44,5.47,4.64,5.47,4.64s-6.21.84-6.5,3.3c-.61,5.11,4.56,3,4.56,3s-1.34,3.12,1.19,4.43a2.31,2.31,0,0,0,.41.16c-.94-.24-2.26-.07-4,1.31-4,3.17,3.83,6,3.83,6s-4.38,1.19-5.25,3.66,6.78,3.29,6.78,3.29a3.56,3.56,0,0,0-1.84,3.79c.59,2.83,4.41.37,4.41.37a9.85,9.85,0,0,0-1.17,4.37c-.76-.38-1.64-.46-2,.94-.72,3.2.75,4.35,1.56,4.74-1.4-.48-5.32-1.62-5.68.56-.91,5.44,5.47,4.64,5.47,4.64s-6.21.84-6.5,3.3c-.61,5.11,4.56,3,4.56,3S34.46,239,37,240.26a2.76,2.76,0,0,0,2.31.09c-.09.18-.19.38-.28.61-1.23,3.08-1.08,4.47-1.08,4.47s-3.52-4.2-5-1.37.79,5.41.79,5.41-4.1,1.6-4.06,3.86c.08,4.26,5.17,5.95,5.17,5.95s-3.66.79-1.75,2.72c2.31,2.33,4.07,1.73,4.84,1.25-1.16.92-4.24,3.6-2.61,5.08,4.09,3.71,6.87-2.09,6.87-2.09a20,20,0,0,0-1.22,3.6,2.07,2.07,0,0,0-.87.31c-3.54,2.37-2.2,7.57-2.2,7.57s-2.65-2.65-3.24,0c-.71,3.2.75,4.36,1.57,4.74-1.4-.48-5.32-1.61-5.69.56-.9,5.44,5.48,4.64,5.48,4.64s-6.21.85-6.51,3.31c-.61,5.1,4.56,3,4.56,3s-1.33,3.12,1.2,4.42,5.13-2.12,5.13-2.12-.64,5.35,2,4.31a2.75,2.75,0,0,0,.3-.14,9.77,9.77,0,0,0-.8,3.74s-3.53-4.19-5-1.36.8,5.41.8,5.41-4.1,1.6-4.06,3.86c.07,4.26,5.17,5.95,5.17,5.95s-3.66.79-1.75,2.72a5.78,5.78,0,0,0,2.3,1.53,5.28,5.28,0,0,0,.8,1.3h0s-4.1,1.61-4.06,3.86a5.13,5.13,0,0,0,1,3,6,6,0,0,0,.69,1.08s-4.1,1.6-4.06,3.86c.08,4.26,5.17,5.95,5.17,5.95s-3.66.79-1.75,2.72c2.31,2.33,4.07,1.73,4.84,1.25l.41-.32a1.81,1.81,0,0,1-.41.32c-1.16.92-4.57,3.16-2.94,4.64A12.64,12.64,0,0,0,41,350c.34,0,17.92.11,19.73.1L54,184.32l46,.38a4.21,4.21,0,0,0,.5-.27l-.16.27,21.41.17a2.44,2.44,0,0,0,0-.48l7.64.12c0,.14-.09.28-.14.43l114.57.94-.11,4.11c.33-.27.53-.46.53-.46s-.21.31-.48.81l-.06,0-2.53,94a12.37,12.37,0,0,0,1.26-.71,8.78,8.78,0,0,0-1.29,1.73l-.12,4.71a2.54,2.54,0,0,0,2.09-.3L243,292.9c-.47-.13-1-.26-1.61-.38l-.42-.06-1.5,55.88a11.88,11.88,0,0,0,1.27-.82l-.08,1.83,2.82.58,1,.07h7.35a12,12,0,0,0-1.15-3.74s2.78,5.8,6.87,2.09c1.63-1.48-1.45-4.17-2.61-5.08.76.47,2.53,1.08,4.83-1.25,1.91-1.93-1.75-2.72-1.75-2.72s5.1-1.69,5.17-5.95c0-2.26-4.05-3.86-4.05-3.86s2.24-2.58.79-5.41-5,1.36-5,1.36a10,10,0,0,0-.81-3.74,2.75,2.75,0,0,0,.3.14c2.69,1,2.06-4.31,2.06-4.31s2.6,3.43,5.13,2.12,1.19-4.43,1.19-4.43,5.17,2.08,4.56-3c-.29-2.46-6.5-3.31-6.5-3.31s6.38.8,5.47-4.64c-.36-2.17-4.29-1-5.68-.56.81-.38,2.27-1.54,1.56-4.74-.59-2.65-3.23,0-3.23,0s1.33-5.2-2.21-7.57a2,2,0,0,0-.86-.31,20,20,0,0,0-1.22-3.6s2.78,5.8,6.86,2.09c1.64-1.48-1.45-4.16-2.61-5.08.77.48,2.53,1.08,4.84-1.25,1.91-1.93-1.75-2.72-1.75-2.72s5.09-1.69,5.17-5.95c0-2.26-4.06-3.86-4.06-3.86s2.25-2.58.79-5.41-5,1.37-5,1.37.15-1.39-1.07-4.47a5,5,0,0,0-.29-.61,2.79,2.79,0,0,0,2.31-.09c2.53-1.31,1.2-4.43,1.2-4.43s5.17,2.08,4.56-3c-.3-2.46-6.51-3.3-6.51-3.3s6.38.8,5.48-4.64c-.37-2.18-4.29-1-5.69-.56.81-.39,2.28-1.54,1.57-4.74-.31-1.4-1.19-1.32-2-.94a9.85,9.85,0,0,0-1.17-4.37s3.82,2.46,4.41-.37a3.54,3.54,0,0,0-1.84-3.79s7.66-.82,6.79-3.29-5.25-3.66-5.25-3.66,7.8-2.83,3.82-6c-1.74-1.38-3.06-1.55-4-1.31a2.23,2.23,0,0,0,.4-.16c2.53-1.31,1.19-4.43,1.19-4.43s5.17,2.08,4.56-3c-.29-2.46-6.5-3.3-6.5-3.3s6.38.8,5.47-4.64c-.36-2.18-4.28-1-5.68-.56.81-.39,2.28-1.54,1.57-4.74-.59-2.65-3.24,0-3.24,0a10.16,10.16,0,0,0,.24-2,3.6,3.6,0,0,0,.21-3.84s6.88,3.46,7.48.9-2.43-5.91-2.43-5.91S272.76,187.2,271.13,182.38ZM41.64,287.46s.09-.4.18-1l.65.35C42,287.18,41.64,287.46,41.64,287.46Zm3.74,10.1a8.63,8.63,0,0,0,.58-1.64,11.43,11.43,0,0,0,.12,1.73A2.07,2.07,0,0,0,45.38,297.56ZM94.68,175h0Zm94.06-6.92a1,1,0,0,0,.07-.15l.17.16ZM237,174.21l.26-.23c0,.07.05.15.08.23A3,3,0,0,0,237,174.21ZM248.71,319.4a5.84,5.84,0,0,0,.65-.35c.09.61.18,1,.18,1S249.22,319.78,248.71,319.4Zm9.27-4.17a8.14,8.14,0,0,0,.57,1.64,2,2,0,0,0-.69.09A13.27,13.27,0,0,0,258,315.23Z" /><path class="cls-2" d="M190.55,185.54v0h0Zm45.15,6.91a3.72,3.72,0,0,0-.33-.82,26.13,26.13,0,0,0,2.61,1.11,6.65,6.65,0,0,0,.2,1.12A3,3,0,0,0,235.7,192.45Zm6,42.81-.26-.07.33-.11Z" /><path class="cls-1" d="M47.26,269.71s-5.81-4.24-2.14-8.72C45.12,261,50.8,262.79,47.26,269.71Z" /><path class="cls-1" d="M47.47,269.86s1.92-7.7,8.37-3.88C55.84,266,56.47,273.17,47.47,269.86Z" /><path class="cls-1" d="M47.88,268.25s1.16,5.49-3.1,6.38C44.78,274.63,42.49,270.68,47.88,268.25Z" /><path class="cls-1" d="M252,212.33s-5.81-4.24-2.14-8.72C249.83,203.61,255.52,205.41,252,212.33Z" /><path class="cls-1" d="M252.18,212.48s1.92-7.7,8.37-3.87C260.55,208.61,261.18,215.8,252.18,212.48Z" /><path class="cls-1" d="M252.6,210.87s1.15,5.49-3.11,6.38C249.49,217.25,247.21,213.31,252.6,210.87Z" /><path class="cls-1" d="M89.74,170.75s-5.81-4.24-2.14-8.72C87.6,162,93.28,163.83,89.74,170.75Z" /><path class="cls-1" d="M90,170.9s1.92-7.7,8.37-3.88C98.32,167,99,174.21,90,170.9Z" /><path class="cls-1" d="M90.36,169.29s1.16,5.49-3.1,6.37C87.26,175.66,85,171.72,90.36,169.29Z" /><path class="cls-1" d="M43.54,321s-5.8-4.24-2.13-8.72C41.41,312.27,47.09,314.08,43.54,321Z" /><path class="cls-1" d="M43.75,321.14s1.93-7.69,8.37-3.87C52.12,317.27,52.76,324.46,43.75,321.14Z" /><path class="cls-1" d="M44.17,319.53s1.16,5.49-3.1,6.38C41.07,325.91,38.78,322,44.17,319.53Z" /><path class="cls-1" d="M44.15,285.34s1.16,5.49-3.1,6.37C41.05,291.71,38.76,287.77,44.15,285.34Z" /><path class="cls-1" d="M46.86,176.11s-5.8-4.24-2.13-8.72C44.73,167.39,50.41,169.2,46.86,176.11Z" /><path class="cls-1" d="M39.53,253.4s-5.81-4.24-2.14-8.72C37.39,244.68,43.08,246.48,39.53,253.4Z" /><path class="cls-1" d="M47.07,176.26s1.93-7.69,8.37-3.87C55.44,172.39,56.07,179.58,47.07,176.26Z" /><path class="cls-1" d="M43.84,237.29s1.92-7.7,8.37-3.87C52.21,233.42,52.84,240.61,43.84,237.29Z" /><path class="cls-1" d="M47.49,174.65s1.16,5.49-3.1,6.38C44.39,181,42.1,177.09,47.49,174.65Z" /><path class="cls-1" d="M38.92,250.8s1.16,5.49-3.1,6.38C35.82,257.18,33.53,253.24,38.92,250.8Z" /><path class="cls-1" d="M198.82,169.06s7.12-1,7.59,4.79C206.41,173.85,201.07,176.5,198.82,169.06Z" /><path class="cls-1" d="M198.56,169.09s4,6.88-3.33,8.61C195.23,177.7,189.78,173,198.56,169.09Z" /><path class="cls-1" d="M199.38,170.54s-4.64-3.14-2.2-6.74C197.18,163.8,201.57,165.05,199.38,170.54Z" /><path class="cls-1" d="M161.56,169.76s-4.65-3.15-2.2-6.74C159.36,163,163.74,164.26,161.56,169.76Z" /><path class="cls-1" d="M244.28,250s3.62-6.22,8.45-3C252.73,246.93,251.53,252.77,244.28,250Z" /><path class="cls-1" d="M244.15,250.18s7.86,1.12,4.72,7.93C248.87,258.11,241.78,259.48,244.15,250.18Z" /><path class="cls-1" d="M245.8,250.43s-5.34,1.71-6.67-2.43C239.13,248,242.82,245.32,245.8,250.43Z" /><path class="cls-4" d="M252.47,176.33s4.85-3.75,7.27,1.08C259.74,177.41,256.8,181.88,252.47,176.33Z" /><path class="cls-4" d="M250.89,176.07s-4-6.2,1.18-9.14C252.07,166.93,256.86,170.75,250.89,176.07Z" /><path class="cls-4" d="M173,181.6s-4-6.2,1.18-9.14C174.19,172.46,179,176.27,173,181.6Z" /><path class="cls-4" d="M55.45,176.7s4.85-3.75,7.28,1.08C62.73,177.78,59.78,182.25,55.45,176.7Z" /><path class="cls-4" d="M98.35,172.34s-4-6.2,1.19-9.14C99.54,163.2,104.33,167,98.35,172.34Z" /><path class="cls-4" d="M245.93,295.55s6.12-.36,5.41,5C251.34,300.54,246.38,302.57,245.93,295.55Z" /><path class="cls-4" d="M255.12,269.36s6.12-.36,5.41,5C260.53,274.35,255.58,276.39,255.12,269.36Z" /><path class="cls-4" d="M244.77,294.45s.19-7.38,6.13-6.89C250.9,287.56,252.71,293.41,244.77,294.45Z" /><path class="cls-4" d="M255.05,280.6s.19-7.38,6.13-6.89C261.18,273.71,263,279.56,255.05,280.6Z" /><path class="cls-4" d="M249.24,344s6.12-.36,5.41,5C254.65,348.94,249.7,351,249.24,344Z" /><path class="cls-4" d="M248.08,342.85s.19-7.38,6.13-6.89C254.21,336,256,341.81,248.08,342.85Z" /><path class="cls-4" d="M144.14,178.38s3.7-8.23,10.19-3.65C154.33,174.73,153.62,182.57,144.14,178.38Z" /><path class="cls-4" d="M141.91,179.15s-9.5-5.27-4.81-12.69C137.1,166.46,146,168.09,141.91,179.15Z" /><path class="cls-4" d="M42.58,202.92s-6.17-6.57.55-10.81C43.13,192.11,50.1,195.79,42.58,202.92Z" /><path class="cls-4" d="M42.43,205.28s-8.52,6.74-13.56-.44C28.87,204.84,33.78,197.28,42.43,205.28Z" /><path class="cls-4" d="M39.7,289.93s-5.59,0-4-4.79C35.67,285.14,40.48,283.52,39.7,289.93Z" /><path class="cls-4" d="M41.89,339.72s-5.58,0-4-4.79C37.86,334.93,42.68,333.31,41.89,339.72Z" /><path class="cls-4" d="M49.18,232.6s-5.58.05-4-4.79C45.15,227.81,50,226.19,49.18,232.6Z" /><path class="cls-4" d="M40.56,291s-1.43,6.71-6.7,6C33.86,297,33.22,291.56,40.56,291Z" /><path class="cls-4" d="M52.93,339.72s-5.59,0-4-4.79C48.9,334.93,53.71,333.31,52.93,339.72Z" /><path class="cls-4" d="M53.79,340.78s-1.43,6.7-6.7,6C47.09,346.76,46.45,341.36,53.79,340.78Z" /><polygon class="cls-2" points="65.92 342.45 65.92 342.45 65.92 342.45 65.92 342.45" /><polyline class="cls-5" points="248.08 350.08 254.75 177.58 45.25 173.09 51.62 350.08" /><polygon class="cls-6" points="64.54 373.49 236.92 373.98 240.83 186.33 59.17 186.33 64.54 373.49" /><path class="cls-7" d="M239.93,241.64,114.18,232.4l-56.67,41V185.64s185.41-2.51,185-1.22S239.93,241.64,239.93,241.64Z" /><path class="cls-8" d="M218.41,265.58c0-1.64,3.17-3,7.08-3s7.09,1.33,7.09,3" /><polygon class="cls-9" points="243.75 244.3 234.47 259.05 188.59 255.59 201.15 241.57 243.75 244.3" /><polygon class="cls-10" points="245.55 232.9 244.65 249.54 242.85 249.54 243.12 235.87 245.55 232.9" /><polygon class="cls-10" points="235.03 246.48 234.85 264.29 233.05 264.29 232.51 248.37 235.03 246.48" /><polygon class="cls-10" points="189.69 242.97 189.51 260.79 187.71 260.79 187.17 244.86 189.69 242.97" /><polygon class="cls-11" points="246.57 232.08 236.21 248.54 185 244.68 199.22 229.75 246.57 232.08" /><path class="cls-12" d="M226.59,255.43l-.68,15.79c-.58.41-1,.37-1.33-.25l-.08-15.55Z" /><path class="cls-10" d="M229.11,258.46,231.9,275c.62.34,1.07.25,1.28-.4l-2-16.42Z" /><path class="cls-10" d="M222.47,258.4l-4.06,16.28c-.65.29-1.09.16-1.25-.5L220.43,258Z" /><ellipse class="cls-11" cx="225.64" cy="256.46" rx="7.6" ry="3.91" /><path class="cls-8" d="M232.58,265.58c0,1.65-3.17,3-7.09,3s-7.08-1.33-7.08-3" /><path class="cls-8" d="M193.11,264.74c0-1.65,3.18-3,7.09-3s7.09,1.33,7.09,3" /><path class="cls-12" d="M201.43,254.19l-.67,15.32a.75.75,0,0,1-.65.74c-.28,0-.52-.15-.7-.52l-.07-15.55Z" /><path class="cls-10" d="M203.94,257.22l2.71,16.09a.75.75,0,0,0,.74.65c.29,0,.5-.2.63-.59L206,257Z" /><path class="cls-10" d="M197.31,257.16,193.36,273a.75.75,0,0,1-.79.59c-.28,0-.48-.24-.58-.64l3.28-16.21Z" /><ellipse class="cls-11" cx="200.44" cy="255.14" rx="7.6" ry="3.91" /><path class="cls-8" d="M207.29,264.74c0,1.64-3.17,3-7.09,3s-7.09-1.33-7.09-3" /><polygon class="cls-9" points="164.01 208.76 178.04 209.16 174.79 238.63 158.73 236.8 164.01 208.76" /><polygon class="cls-11" points="152.43 204.69 166.86 205.3 162.19 242.29 146.94 241.07 152.43 204.69" /><polygon class="cls-11" points="175.8 199.61 171.33 243.31 165.84 242.29 171.53 199.41 175.8 199.61" /><polygon class="cls-11" points="179.26 217.09 176.62 246.35 155.07 244.12 158.93 216.48 179.26 217.09" /><polygon class="cls-9" points="164.22 221.36 171.53 221.76 168.28 246.76 159.95 246.15 164.22 221.36" /><polygon class="cls-12" points="124.37 240.98 123.15 250.74 121.48 250.69 120.56 241.29 124.37 240.98" /><polygon class="cls-12" points="143.12 228.48 141.6 238.85 139.92 239 139.77 228.64 143.12 228.48" /><polygon class="cls-12" points="103.03 232.29 104.56 243.73 106.23 243.57 107.45 233.36 103.03 232.29" /><polygon class="cls-13" points="144.75 227.77 122.59 242.2 101.46 232.24 124.83 221.47 144.75 227.77" /><polyline class="cls-14" points="131.1 221 129.2 222.12 130.54 223.15 129.15 223.93 130.54 225.06 128.79 225.28 129.86 226.88 128.18 226.81 128.72 229.02 127.25 228.7 127.19 230.09 126.01 229.56 125.36 231.08 124.6 229.71 123.08 230.69 123.21 229.13 121.48 229.47 121.99 228 120.26 227.8 121.03 226.54 119.11 226.12 120.49 224.98 118.17 224.5 119.88 223.38 118.12 222.08 119.7 221.32 118.2 220.18 119.75 219.51 117.94 218.26 120.08 217.75 118.5 216.2 120.7 216.11 119.51 214.26 121.65 214.75 121.67 213.42 122.89 213.88 123.18 213.01 123.65 213.71 123.62 211.72 123.8 213.7 123.86 211.72 123.94 213.7 124.11 211.72 124.08 213.71 124.36 211.74 124.22 213.72 124.6 211.78 124.36 213.74 124.84 211.82 125.07 213.96 126.38 213.38 126.27 214.76 127.92 214.63 127.27 215.92 129.41 215.61 128.06 217.3 130.23 217.33 128.64 218.81 130.78 219.14 129.02 220.4 131.1 221" /><path class="cls-15" d="M126.51,221.5c.2,1.8-.57,3.37-1.71,3.49s-2.22-1.24-2.41-3.05.57-3.37,1.71-3.49a1.19,1.19,0,0,1,.42,0c1,.2,1.82,1.45,2,3" /><path class="cls-15" d="M117.29,219.57l14.31,2.9s-.34-9.11-7.48-10.13C118,211.47,117.29,219.57,117.29,219.57Z" /><path class="cls-14" d="M111.42,207.3l1.06,20.27c2.52.51,3.68,0,3.66-1.52l-.46-20.43Z" /><path class="cls-10" d="M125.52,213.47c-.63.75-1.29.68-2,0V208.9h2Z" /><polygon class="cls-10" points="134.79 208.47 129.91 211.11 109.18 207.65 114.92 205.16 134.79 208.47" /><polyline class="cls-16" points="126.67 219.21 129.59 220.31 133.72 218.59 130.55 217.59" /><polygon class="cls-9" points="83.11 256.31 106.29 263.9 72.93 283.97 55.4 273.23 83.11 256.31" /><polygon class="cls-10" points="107.69 254.64 107.5 272.45 105.71 272.45 105.17 256.53 107.69 254.64" /><polygon class="cls-10" points="73.48 272.45 73.6 293.02 71.8 293.02 70.96 274.34 73.48 272.45" /><polygon class="cls-11" points="84.06 243.73 109.89 254.12 70.95 275.49 53.42 262.48 84.06 243.73" /><path class="cls-8" d="M163.8,253.56c0-1.64,3.17-3,7.09-3s7.08,1.33,7.08,3" /><path class="cls-12" d="M172.11,243l-.66,15.32a.76.76,0,0,1-.65.74c-.29,0-.52-.14-.7-.52L170,243Z" /><path class="cls-10" d="M174.63,246l2.71,16.09a.73.73,0,0,0,.74.65c.28,0,.49-.2.62-.59l-2-16.42Z" /><path class="cls-10" d="M168,246l-4,15.83a.74.74,0,0,1-.78.59c-.29,0-.48-.24-.58-.64L166,245.55Z" /><ellipse class="cls-11" cx="171.13" cy="243.96" rx="7.6" ry="3.91" /><path class="cls-8" d="M178,253.56c0,1.64-3.17,3-7.08,3s-7.09-1.33-7.09-3" /><path class="cls-8" d="M118.47,258.23c0-1.65,3.17-3,7.08-3s7.09,1.33,7.09,3" /><path class="cls-12" d="M126.78,247.68,126.11,263a.75.75,0,0,1-.65.74.73.73,0,0,1-.69-.52l-.08-15.55Z" /><path class="cls-10" d="M129.3,250.71,132,266.8a.74.74,0,0,0,.73.65c.29,0,.5-.2.63-.59l-2-16.42Z" /><path class="cls-10" d="M122.66,250.65l-4,15.83a.75.75,0,0,1-.79.59c-.28,0-.48-.24-.58-.64l3.28-16.21Z" /><ellipse class="cls-11" cx="125.8" cy="248.63" rx="7.6" ry="3.91" /><path class="cls-8" d="M132.64,258.23c0,1.64-3.17,3-7.09,3s-7.08-1.33-7.08-3" /><path class="cls-8" d="M87.75,280.64c0-1.64,3.18-3,7.09-3s7.09,1.33,7.09,3" /><path class="cls-9" d="M96.07,270.1l-.67,15.31a.75.75,0,0,1-.65.74c-.28,0-.52-.14-.7-.51L94,270.09Z" /><path class="cls-10" d="M98.58,273.12l2.71,16.1a.76.76,0,0,0,.74.65c.29,0,.5-.21.63-.6l-2-16.42Z" /><path class="cls-10" d="M92,273.06l-4,15.83a.75.75,0,0,1-.79.59c-.28,0-.48-.24-.58-.64l3.28-16.21Z" /><ellipse class="cls-11" cx="95.08" cy="271.05" rx="7.6" ry="3.91" /><path class="cls-8" d="M101.93,280.64c0,1.64-3.17,3-7.09,3s-7.09-1.33-7.09-3" /><path class="cls-14" d="M226,236.42l-19.48-1.16-1.3,2.86,1.82-1,.82,1.73,1.3-1.43,1,1.69,1.52-1.39.61,1.87,1.25-1.22s.4,1.65.48,1.52a13.3,13.3,0,0,1,1.39-.83s1,1.54,1.09,1.45,1.35-1.27,1.35-1.27l.72,1.39,1.4-1,.81,1.17,1.35-1,.7,1.56.68-1.41,1.06,1.37Z" /><polygon class="cls-14" points="226.01 236.42 232.13 236.49 231.1 237.7 229.51 242.01 229.76 243.64 224.53 241.37 224.88 238.12 226.01 236.42" /><path class="cls-11" d="M229.3,237.52a3.68,3.68,0,0,1-1.1,3.5c-1.37,1.49-2.48-2-2-2.69C226.9,237.38,229.16,237.17,229.3,237.52Z" /><path class="cls-14" d="M88,256.49l1.86-1.15a6.69,6.69,0,0,0-3-2.23,4.72,4.72,0,0,0-4.36,1.15,5.25,5.25,0,0,1,3.23-.08C86.82,254.63,87.18,255.36,88,256.49Z" /><path class="cls-14" d="M91,256.71l-2.24,1.06-1.11-1.72a1.38,1.38,0,0,1,2.08-.8Z" /><ellipse class="cls-14" cx="89.77" cy="257.26" rx="1.63" ry="0.68" transform="translate(-111.92 74.06) rotate(-28.51)" /><path class="cls-14" d="M86.55,254.94,74.13,260s-.59,1.42,1.34,2.42l12-6.49C87.49,255.39,87.23,255,86.55,254.94Z" /><path class="cls-17" d="M123.73,374.43s3.34-45.82,52.54-38.9l-11.19,31.79,1.28,6.66Z" /><polygon class="cls-3" points="65.92 342.45 65.92 342.45 65.92 342.45 65.92 342.45" /></g><g id="Grade_2" data-name="Grade 2"><polygon class="cls-18" points="129.49 374.43 54.37 377.05 47.95 176.96 252.05 179.61 243.44 374.37 172.12 373.98 170.84 367.32 233.65 367.11 237.47 189.72 61.33 189.92 66.79 368.3 130.86 367.73 129.49 374.43" /><polygon class="cls-18" points="170.02 364.75 200.51 351 202.15 354.4 171.05 367.36 170.02 364.75" /><ellipse class="cls-18" cx="193.07" cy="350.86" rx="2.84" ry="1.78" transform="translate(-139.22 127.34) rotate(-27.25)" /><ellipse class="cls-18" cx="196.43" cy="359.06" rx="2.84" ry="1.78" transform="translate(-142.6 129.79) rotate(-27.25)" /></g></svg>