<svg xmlns="http://www.w3.org/2000/svg" viewBox="0 0 300 900" width="300" height="900" preserveAspectRatio="none"><defs><style>.cls-1,.cls-14,.cls-8,.cls-9{fill:none;}.cls-2{fill:#146b45;}.cls-3{fill:#0b5430;}.cls-4{fill:#108342;}.cls-5{fill:#5d3213;}.cls-6{fill:#898b8d;}.cls-10,.cls-12,.cls-13,.cls-15,.cls-7{fill:#b1b3b5;}.cls-8{stroke:#898b8d;stroke-miterlimit:10;}.cls-10,.cls-12,.cls-13,.cls-14,.cls-15,.cls-9{stroke:#808184;}.cls-10,.cls-11,.cls-12,.cls-13,.cls-14,.cls-15,.cls-9{stroke-linejoin:round;}.cls-9{stroke-width:0.63px;}.cls-10,.cls-14{stroke-width:0.69px;}.cls-11{fill:#f3e8ab;stroke:#cec391;}.cls-11,.cls-13{stroke-width:0.62px;}.cls-12{stroke-width:0.61px;}.cls-14{stroke-linecap:round;}.cls-15{stroke-width:0.5px;}.cls-16{fill:#f48242;}</style></defs><g id="rooms"><polygon class="cls-1" points="68.25 637.6 68.26 637.6 68.25 637.61 68.25 637.6" /><polygon class="cls-2" points="68.26 637.6 68.25 637.61 68.25 637.6 68.26 637.6" /><path class="cls-3" d="M63.31,641.85s-5.81,4.24-2.14,8.72C61.17,650.57,66.85,648.77,63.31,641.85Z" /><path class="cls-3" d="M63.93,643.31s1.16-5.49-3.1-6.38C60.83,636.93,58.54,640.87,63.93,643.31Z" /><path class="cls-2" d="M264.7,722c-.35.36-.56.63-.56.63s0-.3.06-.73A2.77,2.77,0,0,0,264.7,722Z" /><path class="cls-1" d="M237.7,788.42a3.49,3.49,0,0,0,.33-.81,3,3,0,0,0,2.48-1.41,6.65,6.65,0,0,0-.2,1.12A27.6,27.6,0,0,0,237.7,788.42Z" /><path class="cls-1" d="M192.88,794.52l0,0h0Z" /><path class="cls-1" d="M44.47,634.7a2.3,2.3,0,0,1,.42.31S44.72,634.9,44.47,634.7Z" /><path class="cls-1" d="M102.3,795.36h.35l.15.26S102.62,795.51,102.3,795.36Z" /><path class="cls-1" d="M246.05,789.74v.33a2.79,2.79,0,0,0-.31-.24Z" /><path class="cls-1" d="M243.52,695.74l0-1a8.53,8.53,0,0,0,1.28,1.73A12.37,12.37,0,0,0,243.52,695.74Z" /><path class="cls-1" d="M124.1,795.67a3.74,3.74,0,0,0,0-.49l7.54-.06c.05.15.09.29.15.43Z" /><path class="cls-1" d="M246.11,789.72c.27.5.48.81.48.81s-.2-.19-.53-.46v-.33Z" /><path class="cls-1" d="M244,744.8l.07.18-.32-.11Z" /><path class="cls-1" d="M191.08,812h.24l-.18.16Z" /><path class="cls-1" d="M251,660.66a9.76,9.76,0,0,0,.83-.67s-.09.41-.18,1A5.84,5.84,0,0,0,251,660.66Z" /><path class="cls-1" d="M239.29,805.85h.34c0,.07,0,.15-.08.23Z" /><path class="cls-1" d="M260.88,663.19a9.05,9.05,0,0,0-.57,1.63,13.08,13.08,0,0,0-.12-1.72A2.3,2.3,0,0,0,260.88,663.19Z" /><path class="cls-1" d="M48.29,684.13a8.69,8.69,0,0,0-.58-1.63,2.36,2.36,0,0,0,.7-.09A11.27,11.27,0,0,0,48.29,684.13Z" /><polygon class="cls-1" points="97.02 805.07 97.02 805.07 97.02 805.07 97.02 805.07" /><path class="cls-1" d="M44,692.6s.32.28.83.66l-.65.35C44.06,693,44,692.6,44,692.6Z" /><path class="cls-1" d="M245.33,687.16l.13,3.15a2.54,2.54,0,0,0-2.09-.3l-.07-2.41.43-.06C244.34,687.42,244.86,687.29,245.33,687.16Z" /><path class="cls-2" d="M242.72,691a1.3,1.3,0,0,1,.65-1l.13,4.71A5.35,5.35,0,0,1,242.72,691Z" /><path class="cls-2" d="M267,794.7s3-3.36,2.44-5.92-7.48.91-7.48.91a3.61,3.61,0,0,0-.22-3.84,10.16,10.16,0,0,0-.24-2s2.65,2.65,3.24,0c.71-3.2-.75-4.35-1.57-4.74,1.4.48,5.32,1.62,5.69-.56.9-5.44-5.48-4.64-5.48-4.64s6.21-.84,6.51-3.3c.61-5.11-4.56-3-4.56-3s1.33-3.12-1.2-4.43a2.23,2.23,0,0,0-.4-.16c.93.24,2.26.07,4-1.32,4-3.17-3.82-6-3.82-6s4.37-1.18,5.25-3.65-6.78-3.29-6.78-3.29A3.54,3.54,0,0,0,264.2,745c-.59-2.84-4.41-.38-4.41-.38A9.79,9.79,0,0,0,261,740.2c.77.39,1.65.47,2-.93.71-3.2-.75-4.35-1.57-4.74,1.4.48,5.33,1.62,5.69-.56.9-5.44-5.48-4.64-5.48-4.64s6.21-.84,6.51-3.3c.61-5.11-4.56-3-4.56-3s1.33-3.12-1.2-4.43a2.76,2.76,0,0,0-2.31-.09,5.8,5.8,0,0,0,.29-.61c1.22-3.08,1.07-4.47,1.07-4.47s3.53,4.2,5,1.37-.8-5.41-.8-5.41,4.1-1.6,4.06-3.86c-.07-4.26-5.17-6-5.17-6s3.66-.79,1.75-2.72c-2.31-2.33-4.07-1.73-4.83-1.25,1.15-.92,4.24-3.6,2.6-5.08-4.08-3.71-6.86,2.09-6.86,2.09a20,20,0,0,0,1.22-3.6,2.17,2.17,0,0,0,.86-.31c3.54-2.37,2.21-7.57,2.21-7.57s2.64,2.65,3.23,0c.71-3.2-.75-4.36-1.56-4.74,1.39.47,5.32,1.61,5.68-.56.91-5.44-5.47-4.64-5.47-4.64s6.21-.85,6.5-3.31c.61-5.1-4.56-3-4.56-3s1.34-3.12-1.19-4.43-5.13,2.13-5.13,2.13.63-5.36-2.06-4.31l-.3.14a10,10,0,0,0,.81-3.75s3.52,4.2,5,1.37-.79-5.41-.79-5.41,4.1-1.6,4.06-3.86c-.08-4.26-5.17-6-5.17-6s3.66-.79,1.75-2.72c-2.31-2.33-4.07-1.73-4.84-1.25,1.16-.92,4.24-3.6,2.61-5.08-4.09-3.71-6.87,2.09-6.87,2.09a35.26,35.26,0,0,0,1.37-5.32h-7.94l-.67,1.65-2.81.58.07,1.83a10.94,10.94,0,0,0-1.27-.82l1.5,55.88.43-.06c.61-.12,1.13-.25,1.6-.38l.13,3.15a2.54,2.54,0,0,0-2.09-.3l.13,4.71a8.53,8.53,0,0,0,1.28,1.73,12.37,12.37,0,0,0-1.26-.71l2.53,94,.06,0c.27.5.48.81.48.81s-.2-.19-.53-.46l.11,4.11-114.57.94c.05.15.09.29.15.43l-7.65.12a3.74,3.74,0,0,0,0-.49l-21.41.18.15.26s-.18-.11-.5-.26l-45.95.38,6.43-166.32c-1.81,0-3.72-.93-5.63-.94H43a5.35,5.35,0,0,0-1.17,1.13c-1.16,1.88,1.45,4.17,2.61,5.09a2.3,2.3,0,0,1,.42.31s-.17-.11-.42-.31c-.77-.48-2.53-1.08-4.84,1.25-1.91,1.92,1.76,2.72,1.76,2.72s-5.1,1.69-5.18,6c0,2.26,4.06,3.86,4.06,3.86a6,6,0,0,0-.69,1.08,5.13,5.13,0,0,0-1,3c0,2.25,4,3.85,4.06,3.86h0a6.21,6.21,0,0,0-.8,1.31,5.67,5.67,0,0,0-2.3,1.53c-1.91,1.93,1.75,2.72,1.75,2.72s-5.09,1.69-5.17,6c0,2.26,4.06,3.86,4.06,3.86s-2.25,2.58-.8,5.41,5-1.37,5-1.37a10.07,10.07,0,0,0,.8,3.75l-.29-.14c-2.7-1.05-2.06,4.3-2.06,4.3s-2.6-3.42-5.13-2.12-1.2,4.43-1.2,4.43-5.17-2.07-4.55,3c.29,2.46,6.5,3.31,6.5,3.31S32,691.6,32.9,697c.37,2.17,4.29,1,5.69.56-.81.38-2.28,1.54-1.57,4.74.59,2.65,3.24,0,3.24,0s-1.34,5.2,2.21,7.57a2.12,2.12,0,0,0,.86.31,20,20,0,0,0,1.22,3.6s-2.78-5.8-6.87-2.09c-1.63,1.48,1.45,4.16,2.61,5.08-.76-.48-2.53-1.08-4.83,1.25-1.91,1.93,1.75,2.72,1.75,2.72s-5.1,1.69-5.17,6c0,2.26,4.05,3.86,4.05,3.86s-2.24,2.58-.79,5.41,5-1.37,5-1.37-.15,1.39,1.08,4.47a5.8,5.8,0,0,0,.29.61,2.78,2.78,0,0,0-2.32.09c-2.53,1.31-1.19,4.43-1.19,4.43s-5.17-2.08-4.56,3c.29,2.46,6.5,3.31,6.5,3.31s-6.38-.8-5.47,4.64c.36,2.18,4.29,1,5.68.56-.81.39-2.27,1.54-1.56,4.74.31,1.4,1.19,1.32,2,.93a9.7,9.7,0,0,0,1.18,4.37s-3.83-2.46-4.42.38A3.56,3.56,0,0,0,39.27,770s-7.66.81-6.78,3.29,5.25,3.65,5.25,3.65-7.8,2.83-3.83,6c1.74,1.39,3.06,1.56,4,1.32a2.31,2.31,0,0,0-.41.16c-2.53,1.31-1.19,4.43-1.19,4.43s-5.17-2.08-4.56,3c.29,2.45,6.5,3.3,6.5,3.3s-6.38-.8-5.47,4.64c.36,2.18,4.29,1,5.68.56-.81.39-2.27,1.54-1.56,4.74.59,2.65,3.23,0,3.23,0s-1.33,5.2,2.21,7.57c1.88,1.26,5.44-1.32,5.44-1.32s.95,3.28,4.12,3.59S53.44,810,53.44,810a9.12,9.12,0,0,0,3.09,1.23,5.32,5.32,0,0,0,2.17,3.13c1.88,1.26,5.44-1.32,5.44-1.32s1,3.28,4.12,3.59c2,.21,2.09-1.91,1.87-3.43a5.85,5.85,0,0,0,1.15-.76A15.68,15.68,0,0,0,73,813a5.78,5.78,0,0,0,1.5,2.24c1.93,1.91,2.73-1.75,2.73-1.75s1.69,5.1,6,5.17c2.26,0,3.86-4.06,3.86-4.06s2.57,2.25,5.41.8-1.37-5-1.37-5a9.92,9.92,0,0,0,3.72-.8c0,.1-.08.19-.11.29C93.63,812.59,99,812,99,812s-3.43,2.6-2.12,5.13,4.43,1.2,4.43,1.2-2.08,5.17,3,4.56c2.46-.3,3.3-6.51,3.3-6.51s-.8,6.38,4.64,5.48c2.18-.37,1-4.29.56-5.69.39.82,1.54,2.28,4.74,1.57,2.65-.59,0-3.24,0-3.24s5.77,2.46,6.36-2.87a16.26,16.26,0,0,0,5.12-1.42s-5.8,2.78-2.09,6.87c1.48,1.63,4.17-1.45,5.08-2.61-.47.77-1.08,2.53,1.25,4.84,1.93,1.9,2.72-1.76,2.72-1.76s1.7,5.1,6,5.18c2.25,0,3.86-4.06,3.86-4.06s2.57,2.24,5.4.79c1.28-.65,1.13-1.72.58-2.7a5.5,5.5,0,0,0,.81-.55s1.6,4.1,3.86,4.06c4.26-.07,5.95-5.17,5.95-5.17s.79,3.66,2.72,1.75c2.23-2.2,1.77-3.91,1.32-4.72h0a10.24,10.24,0,0,0,3.06,2.72,1.65,1.65,0,0,0,.89.43c3.2.72,4.35-.75,4.74-1.56-.48,1.4-1.62,5.32.56,5.68,5.44.91,4.64-5.47,4.64-5.47s.84,6.21,3.3,6.5c5.11.61,3-4.56,3-4.56a4.81,4.81,0,0,0,2.4.3,1.73,1.73,0,0,0,.85.84c2.83,1.45,5.41-.8,5.41-.8s1.6,4.1,3.86,4.06c4.26-.07,5.95-5.17,5.95-5.17s.79,3.66,2.72,1.75c2.33-2.3,1.73-4.07,1.25-4.83.92,1.16,3.6,4.24,5.08,2.61,3.71-4.09-2.09-6.87-2.09-6.87s5.68,2.65,7.26.74a5.69,5.69,0,0,0,.72-1.1,15.14,15.14,0,0,0,1.35-1.52c-.47.77-1.08,2.53,1.25,4.84,1.93,1.91,2.73-1.76,2.73-1.76s1.69,5.1,5.95,5.18c2.26,0,3.86-4.06,3.86-4.06s2.57,2.24,5.41.79a1.85,1.85,0,0,0,.77-.67c1.5.24,3.52-2.08,4.29-3-.48.76-1.08,2.53,1.25,4.83,1.93,1.91,2.72-1.75,2.72-1.75s1.69,5.1,5.95,5.17c2.26,0,3.86-4.06,3.86-4.06s2.58,2.25,5.41.8-1.37-5-1.37-5,1.39.15,4.47-1.07c4.57-1.82.6-5.26.6-5.26s3.23,1.71,4.85-3.11S267,794.7,267,794.7ZM44.8,693.26l-.65.35c-.09-.61-.18-1-.18-1S44.29,692.88,44.8,693.26Zm3.61-10.85a11.27,11.27,0,0,0-.12,1.72,8.69,8.69,0,0,0-.58-1.63A2.36,2.36,0,0,0,48.41,682.41ZM97,805.07Zm94.3,6.91-.18.16-.06-.15Zm48.31-6.13c0,.07,0,.15-.08.23l-.26-.23ZM251.87,660s-.09.41-.18,1a5.84,5.84,0,0,0-.65-.35A9.76,9.76,0,0,0,251.87,660Zm8.32,3.11a2.3,2.3,0,0,0,.69.09,9.05,9.05,0,0,0-.57,1.63A13.08,13.08,0,0,0,260.19,663.1Z" /><path class="cls-2" d="M192.9,794.56h0v0Zm47.61-8.36a6.65,6.65,0,0,0-.2,1.12,27.6,27.6,0,0,0-2.61,1.1,3.49,3.49,0,0,0,.33-.81A3,3,0,0,0,240.51,786.2ZM244.1,745l-.32-.11.25-.07Z" /><path class="cls-2" d="M34.07,635s-.16-.11-.41-.31A2,2,0,0,1,34.07,635Z" /><path class="cls-3" d="M49.59,710.35s-5.81,4.24-2.14,8.72C47.45,719.07,53.13,717.27,49.59,710.35Z" /><path class="cls-3" d="M49.8,710.2s1.92,7.7,8.37,3.88C58.17,714.08,58.8,706.88,49.8,710.2Z" /><path class="cls-3" d="M50.22,711.81s1.15-5.49-3.11-6.38C47.11,705.43,44.82,709.37,50.22,711.81Z" /><path class="cls-3" d="M254.3,767.73s-5.81,4.24-2.13,8.72C252.17,776.45,257.85,774.65,254.3,767.73Z" /><path class="cls-3" d="M254.51,767.58s1.93,7.7,8.37,3.87C262.88,771.45,263.51,764.26,254.51,767.58Z" /><path class="cls-3" d="M254.93,769.19s1.15-5.49-3.1-6.38C251.83,762.81,249.54,766.75,254.93,769.19Z" /><path class="cls-3" d="M92.07,809.31s-5.81,4.24-2.14,8.72C89.93,818,95.61,816.23,92.07,809.31Z" /><path class="cls-3" d="M92.28,809.16s1.92,7.7,8.37,3.88C100.65,813,101.28,805.85,92.28,809.16Z" /><path class="cls-3" d="M92.7,810.77s1.15-5.49-3.11-6.38C89.59,804.39,87.3,808.33,92.7,810.77Z" /><path class="cls-3" d="M45.88,659.06s-5.81,4.25-2.14,8.72C43.74,667.78,49.42,666,45.88,659.06Z" /><path class="cls-3" d="M46.09,658.91s1.92,7.7,8.37,3.88C54.46,662.79,55.09,655.6,46.09,658.91Z" /><path class="cls-3" d="M46.5,660.53s1.16-5.49-3.1-6.38C43.4,654.15,41.11,658.09,46.5,660.53Z" /><path class="cls-3" d="M46.49,694.72s1.15-5.49-3.11-6.38C43.38,688.34,41.09,692.28,46.49,694.72Z" /><path class="cls-3" d="M49.19,803.94s-5.8,4.25-2.13,8.72C47.06,812.66,52.74,810.86,49.19,803.94Z" /><path class="cls-3" d="M41.86,726.66s-5.8,4.24-2.13,8.72C39.73,735.38,45.41,733.58,41.86,726.66Z" /><path class="cls-3" d="M49.4,803.79s1.93,7.7,8.37,3.88C57.77,807.67,58.41,800.48,49.4,803.79Z" /><path class="cls-3" d="M46.17,742.77s1.92,7.69,8.37,3.87C54.54,746.64,55.17,739.45,46.17,742.77Z" /><path class="cls-3" d="M49.82,805.41s1.16-5.49-3.1-6.38C46.72,799,44.43,803,49.82,805.41Z" /><path class="cls-3" d="M41.25,729.25s1.16-5.48-3.1-6.37C38.15,722.88,35.86,726.82,41.25,729.25Z" /><path class="cls-3" d="M201.15,811s7.12,1,7.59-4.79C208.74,806.21,203.4,803.56,201.15,811Z" /><path class="cls-3" d="M200.89,811s4-6.87-3.33-8.6C197.56,802.36,192.11,807.1,200.89,811Z" /><path class="cls-3" d="M201.71,809.51s-4.64,3.15-2.2,6.75C199.51,816.26,203.9,815,201.71,809.51Z" /><path class="cls-3" d="M163.89,810.3s-4.64,3.14-2.2,6.74C161.69,817,166.08,815.8,163.89,810.3Z" /><path class="cls-3" d="M246.61,730.1s3.62,6.22,8.45,3C255.06,733.13,253.86,727.29,246.61,730.1Z" /><path class="cls-3" d="M246.48,729.88s7.86-1.12,4.72-7.93C251.2,722,244.11,720.58,246.48,729.88Z" /><path class="cls-3" d="M248.13,729.63s-5.34-1.72-6.67,2.43C241.46,732.06,245.15,734.74,248.13,729.63Z" /><path class="cls-4" d="M254.8,803.73s4.85,3.74,7.28-1.08C262.08,802.65,259.13,798.18,254.8,803.73Z" /><path class="cls-4" d="M253.22,804s-4,6.21,1.18,9.15C254.4,813.13,259.19,809.31,253.22,804Z" /><path class="cls-4" d="M175.34,798.46s-4,6.2,1.18,9.14C176.52,807.6,181.31,803.79,175.34,798.46Z" /><path class="cls-4" d="M57.78,803.36s4.86,3.74,7.28-1.08C65.06,802.28,62.11,797.81,57.78,803.36Z" /><path class="cls-4" d="M100.69,807.72s-4,6.2,1.18,9.14C101.87,816.86,106.66,813.05,100.69,807.72Z" /><path class="cls-4" d="M248.26,684.51s6.12.36,5.41-5C253.67,679.52,248.72,677.49,248.26,684.51Z" /><path class="cls-4" d="M257.46,710.7s6.12.36,5.4-5C262.86,705.71,257.91,703.67,257.46,710.7Z" /><path class="cls-4" d="M247.1,685.61s.19,7.38,6.13,6.89C253.23,692.5,255,686.65,247.1,685.61Z" /><path class="cls-4" d="M257.38,699.46s.19,7.38,6.13,6.89C263.51,706.35,265.32,700.5,257.38,699.46Z" /><path class="cls-4" d="M251.58,636.11s6.12.36,5.4-5C257,631.12,252,629.08,251.58,636.11Z" /><path class="cls-4" d="M250.41,637.21s.19,7.38,6.13,6.89C256.54,644.1,258.35,638.25,250.41,637.21Z" /><path class="cls-4" d="M146.47,801.68s3.7,8.23,10.2,3.65C156.67,805.33,156,797.48,146.47,801.68Z" /><path class="cls-4" d="M144.25,800.91s-9.5,5.27-4.82,12.69C139.43,813.6,148.29,812,144.25,800.91Z" /><path class="cls-4" d="M44.91,777.13s-6.17,6.58.55,10.82C45.46,788,52.43,784.27,44.91,777.13Z" /><path class="cls-4" d="M44.76,774.78s-8.51-6.74-13.56.44C31.2,775.22,36.11,782.77,44.76,774.78Z" /><path class="cls-4" d="M42,690.13s-5.58,0-4,4.79C38,694.92,42.81,696.54,42,690.13Z" /><path class="cls-4" d="M44.22,640.34s-5.58-.05-4,4.79C40.19,645.13,45,646.75,44.22,640.34Z" /><path class="cls-4" d="M51.51,747.46s-5.58-.05-4,4.79C47.48,752.25,52.3,753.87,51.51,747.46Z" /><path class="cls-4" d="M42.89,689.07s-1.43-6.7-6.7-6C36.19,683.09,35.55,688.5,42.89,689.07Z" /><path class="cls-4" d="M55.26,640.34s-5.58-.05-4,4.79C51.23,645.13,56.05,646.75,55.26,640.34Z" /><path class="cls-4" d="M56.12,639.28s-1.42-6.7-6.7-6C49.42,633.3,48.78,638.7,56.12,639.28Z" /><polyline class="cls-5" points="51.23 628.48 45.22 800.67 254.78 803.2 248.33 628.48" /><polygon class="cls-6" points="53.38 792.61 247.69 795.33 241.04 607.35 59.39 607.35 53.38 792.61" /><path class="cls-7" d="M241.58,604.69c-.43,1.29-.44,120.67-.44,120.67l-125.75-9.24-56.67,41L62,605.63" /><path class="cls-8" d="M241.58,604.69c-.43,1.29-.44,120.67-.44,120.67l-125.75-9.24-56.67,41L62,605.63" /><path class="cls-9" d="M216.37,749.31c0-1.64,3.17-3,7.09-3s7.08,1.34,7.08,3" /><polygon class="cls-10" points="241.72 728.03 232.43 742.77 186.55 739.31 199.12 725.29 241.72 728.03" /><polygon class="cls-11" points="243.52 716.62 242.62 733.26 240.82 733.26 241.09 719.59 243.52 716.62" /><polygon class="cls-12" points="232.99 730.21 232.81 748.02 231.01 748.02 230.47 732.09 232.99 730.21" /><polygon class="cls-10" points="187.65 726.7 187.47 744.51 185.67 744.51 185.13 728.59 187.65 726.7" /><polygon class="cls-10" points="244.54 715.8 234.18 732.26 182.96 728.4 197.19 713.47 244.54 715.8" /><path class="cls-13" d="M224.55,739.16l-.68,15.78c-.58.41-1,.38-1.33-.24l-.07-15.55Z" /><path class="cls-13" d="M227.07,742.18l2.79,16.56c.62.33,1.07.24,1.29-.41l-2-16.42Z" /><path class="cls-13" d="M220.44,742.12l-4.07,16.29c-.64.28-1.08.16-1.25-.51l3.28-16.21Z" /><ellipse class="cls-10" cx="223.61" cy="740.19" rx="7.6" ry="3.91" /><path class="cls-9" d="M230.54,749.31c0,1.64-3.17,3-7.08,3s-7.09-1.33-7.09-3" /><path class="cls-9" d="M191.08,748.46c0-1.64,3.17-3,7.09-3s7.08,1.33,7.08,3" /><path class="cls-13" d="M199.39,737.91l-.66,15.32a.76.76,0,0,1-.65.74c-.29,0-.52-.14-.7-.51l-.08-15.56Z" /><path class="cls-13" d="M201.91,740.94l2.71,16.1a.75.75,0,0,0,.74.65c.28,0,.49-.21.62-.6l-2-16.42Z" /><path class="cls-13" d="M195.27,740.88l-4,15.83a.74.74,0,0,1-.78.59c-.29,0-.48-.24-.58-.64l3.27-16.21Z" /><ellipse class="cls-10" cx="198.41" cy="738.86" rx="7.6" ry="3.91" /><path class="cls-9" d="M205.25,748.46c0,1.64-3.17,3-7.08,3s-7.09-1.33-7.09-3" /><polygon class="cls-10" points="161.98 692.48 176 692.89 172.75 722.35 156.69 720.52 161.98 692.48" /><polygon class="cls-10" points="150.4 688.41 164.82 689.02 160.15 726.01 144.91 724.79 150.4 688.41" /><polygon class="cls-10" points="173.77 683.33 169.29 727.03 163.81 726.01 169.5 683.13 173.77 683.33" /><polygon class="cls-10" points="177.22 700.81 174.58 730.08 153.04 727.84 156.9 700.2 177.22 700.81" /><polygon class="cls-10" points="162.18 705.08 169.5 705.49 166.25 730.48 157.91 729.87 162.18 705.08" /><polygon class="cls-12" points="122.34 724.71 121.12 734.46 119.44 734.41 118.53 725.01 122.34 724.71" /><polygon class="cls-12" points="141.08 712.21 139.56 722.57 137.88 722.72 137.73 712.36 141.08 712.21" /><polygon class="cls-12" points="101 716.02 102.52 727.45 104.2 727.3 105.42 717.09 101 716.02" /><polygon class="cls-10" points="142.71 711.5 120.56 725.92 99.42 715.97 122.79 705.2 142.71 711.5" /><polyline class="cls-12" points="129.06 704.72 127.16 705.85 128.51 706.87 127.11 707.66 128.51 708.78 126.76 709.01 127.82 710.61 126.15 710.53 126.68 712.74 125.21 712.42 125.16 713.81 123.97 713.28 123.33 714.8 122.57 713.43 121.04 714.42 121.17 712.86 119.44 713.2 119.95 711.72 118.22 711.52 119 710.26 117.08 709.85 118.45 708.7 116.13 708.22 117.84 707.1 116.09 705.81 117.67 705.04 116.16 703.9 117.72 703.23 115.9 701.98 118.05 701.47 116.47 699.93 118.67 699.83 117.47 697.98 119.62 698.47 119.63 697.14 120.86 697.61 121.14 696.73 121.62 697.43 121.58 695.45 121.76 697.42 121.83 695.44 121.9 697.42 122.08 695.45 122.04 697.43 122.32 695.47 122.19 697.44 122.56 695.5 122.33 697.47 122.81 695.54 123.04 697.69 124.34 697.11 124.23 698.49 125.89 698.35 125.24 699.64 127.38 699.33 126.03 701.02 128.19 701.06 126.61 702.53 128.75 702.87 126.98 704.12 129.06 704.72" /><path class="cls-12" d="M124.48,705.22c.19,1.81-.57,3.37-1.71,3.5s-2.22-1.25-2.42-3.05.57-3.37,1.71-3.5a1.48,1.48,0,0,1,.42,0c1,.21,1.82,1.45,2,3" /><path class="cls-12" d="M115.25,703.3l14.32,2.89s-.34-9.11-7.49-10.12C116,695.2,115.25,703.3,115.25,703.3Z" /><path class="cls-12" d="M109.38,691l1.07,20.27c2.51.51,3.68,0,3.66-1.52l-.46-20.43Z" /><path class="cls-12" d="M123.48,697.19c-.63.75-1.29.68-2,0v-4.57h2Z" /><polygon class="cls-13" points="132.75 692.19 127.87 694.83 107.14 691.38 112.89 688.89 132.75 692.19" /><polyline class="cls-14" points="124.63 702.93 127.55 704.03 131.68 702.31 128.52 701.32" /><polygon class="cls-10" points="81.07 740.03 104.25 747.62 70.9 767.69 53.37 756.95 81.07 740.03" /><polygon class="cls-12" points="105.65 738.36 105.47 756.17 103.67 756.17 103.13 740.25 105.65 738.36" /><polygon class="cls-12" points="71.44 756.17 71.56 776.74 69.77 776.74 68.92 758.06 71.44 756.17" /><polygon class="cls-10" points="60.82 740.44 82.03 727.46 107.85 737.84 68.92 759.21 62.35 754.34 60.82 740.44" /><path class="cls-9" d="M161.76,737.28c0-1.64,3.18-3,7.09-3s7.09,1.33,7.09,3" /><path class="cls-13" d="M170.07,726.74l-.66,15.32a.74.74,0,0,1-.65.73c-.28,0-.52-.14-.7-.51L168,726.73Z" /><path class="cls-13" d="M172.59,729.77l2.71,16.09a.75.75,0,0,0,.74.65c.28,0,.5-.21.63-.6l-2-16.41Z" /><path class="cls-13" d="M166,729.7l-4,15.83a.76.76,0,0,1-.79.6c-.28,0-.48-.25-.58-.65l3.28-16.21Z" /><ellipse class="cls-10" cx="169.09" cy="727.69" rx="7.6" ry="3.91" /><path class="cls-9" d="M175.94,737.28c0,1.64-3.18,3-7.09,3s-7.09-1.34-7.09-3" /><path class="cls-9" d="M116.43,742c0-1.64,3.17-3,7.09-3s7.09,1.33,7.09,3" /><path class="cls-13" d="M124.74,731.4l-.66,15.32a.75.75,0,0,1-.65.74c-.29,0-.52-.14-.7-.51l-.07-15.56Z" /><path class="cls-13" d="M127.26,734.43,130,750.52a.73.73,0,0,0,.74.65c.28,0,.5-.2.63-.59l-2-16.42Z" /><path class="cls-13" d="M120.63,734.37l-4,15.83a.74.74,0,0,1-.78.59c-.28,0-.48-.24-.58-.64l3.28-16.21Z" /><ellipse class="cls-12" cx="123.76" cy="732.35" rx="7.6" ry="3.91" /><path class="cls-9" d="M130.61,742c0,1.64-3.18,3-7.09,3s-7.09-1.33-7.09-3" /><path class="cls-9" d="M85.72,764.36c0-1.64,3.17-3,7.09-3s7.08,1.33,7.08,3" /><path class="cls-13" d="M94,753.82l-.66,15.32a.75.75,0,0,1-.65.73c-.29,0-.52-.14-.7-.51l-.08-15.55Z" /><path class="cls-13" d="M96.55,756.85l2.71,16.09a.75.75,0,0,0,.74.65c.28,0,.49-.21.62-.6l-2-16.41Z" /><path class="cls-13" d="M89.92,756.78l-4,15.84a.75.75,0,0,1-.78.59c-.29,0-.48-.25-.58-.65l3.27-16.21Z" /><ellipse class="cls-10" cx="93.05" cy="754.77" rx="7.6" ry="3.91" /><path class="cls-9" d="M99.89,764.36c0,1.65-3.17,3-7.08,3s-7.09-1.33-7.09-3" /><path class="cls-10" d="M224.31,719.45l-19.48-1.16-1.31,2.86,1.83-1,.82,1.74,1.3-1.43.95,1.69,1.52-1.39.61,1.86,1.25-1.21s.39,1.65.48,1.52a13.3,13.3,0,0,1,1.39-.83s1,1.53,1.09,1.45,1.35-1.28,1.35-1.28l.72,1.39,1.4-1,.81,1.16,1.34-1,.71,1.56.67-1.42,1.07,1.38Z" /><polygon class="cls-10" points="224.31 719.45 230.43 719.52 229.4 720.72 227.81 725.04 228.06 726.66 222.82 724.4 223.18 721.15 224.31 719.45" /><path class="cls-10" d="M227.6,720.55a3.68,3.68,0,0,1-1.1,3.5c-1.37,1.49-2.49-2-2-2.69C225.19,720.4,227.46,720.19,227.6,720.55Z" /><path class="cls-15" d="M86.12,737.52,88,736.36a6.62,6.62,0,0,0-3-2.23,4.7,4.7,0,0,0-4.35,1.15,5.3,5.3,0,0,1,3.22-.08C84.94,735.65,85.3,736.39,86.12,737.52Z" /><path class="cls-15" d="M89.11,737.74l-2.24,1-1.11-1.71a1.38,1.38,0,0,1,2.08-.81Z" /><ellipse class="cls-15" cx="87.9" cy="738.29" rx="1.63" ry="0.68" transform="translate(-341.77 131.51) rotate(-28.51)" /><path class="cls-15" d="M84.67,736,72.25,741s-.59,1.41,1.34,2.41l12-6.49C85.61,736.41,85.36,736.05,84.67,736Z" /></g><g id="Grade_2" data-name="Grade 2"><polygon class="cls-16" points="171.44 608.36 124.84 608.79 124.89 605.88 171.05 604.9 171.44 608.36" /><ellipse class="cls-16" cx="163.31" cy="602.27" rx="1.78" ry="2.84" transform="translate(-444.59 743.2) rotate(-87.88)" /><ellipse class="cls-16" cx="163.31" cy="610.68" rx="1.78" ry="2.84" transform="translate(-452.99 751.29) rotate(-87.88)" /><polygon class="cls-16" points="170.7 602.95 245.82 599.81 252.24 799.89 48.14 797.76 56.74 603 128.07 603.4 129.35 610.05 66.54 610.26 62.72 787.66 238.86 787.45 233.4 609.07 169.33 609.64 170.7 602.95" /><polygon class="cls-16" points="171.44 608.36 124.84 608.79 124.89 605.88 171.05 604.9 171.44 608.36" /><ellipse class="cls-16" cx="163.31" cy="602.27" rx="1.78" ry="2.84" transform="translate(-444.59 743.2) rotate(-87.88)" /><ellipse class="cls-16" cx="163.31" cy="610.68" rx="1.78" ry="2.84" transform="translate(-452.99 751.29) rotate(-87.88)" /></g></svg>