<svg xmlns="http://www.w3.org/2000/svg" viewBox="0 0 300 900" width="300" height="900" preserveAspectRatio="none"><defs><style>.cls-1,.cls-15,.cls-8{fill:none;}.cls-2{fill:#146b45;}.cls-3{fill:#0b5430;}.cls-4{fill:#108342;}.cls-5{fill:#5d3213;}.cls-6{fill:#f6efc5;stroke-width:0.7px;}.cls-10,.cls-11,.cls-12,.cls-13,.cls-14,.cls-15,.cls-6,.cls-7,.cls-8,.cls-9{stroke:#cec391;}.cls-6,.cls-7{stroke-miterlimit:10;}.cls-10,.cls-11,.cls-14,.cls-7{fill:#f3e8ab;}.cls-10,.cls-11,.cls-12,.cls-13,.cls-14,.cls-15,.cls-8,.cls-9{stroke-linejoin:round;}.cls-8{stroke-width:0.63px;}.cls-12,.cls-13,.cls-9{fill:#e2d995;}.cls-11,.cls-15,.cls-9{stroke-width:0.69px;}.cls-10,.cls-12{stroke-width:0.62px;}.cls-13{stroke-width:0.5px;}.cls-14{stroke-width:0.61px;}.cls-15{stroke-linecap:round;}.cls-16{fill:#f52338;}</style></defs><g id="room_interiors" data-name="room interiors"><polygon class="cls-1" points="67.47 637.6 67.48 637.6 67.48 637.61 67.47 637.6" /><polygon class="cls-2" points="67.48 637.6 67.48 637.61 67.47 637.6 67.48 637.6" /><path class="cls-3" d="M62.53,641.85s-5.81,4.24-2.14,8.72C60.39,650.57,66.07,648.77,62.53,641.85Z" /><path class="cls-3" d="M63.15,643.31s1.16-5.49-3.1-6.38C60.05,636.93,57.76,640.87,63.15,643.31Z" /><path class="cls-2" d="M263.92,722c-.35.36-.56.63-.56.63s0-.3.06-.73A2.77,2.77,0,0,0,263.92,722Z" /><path class="cls-1" d="M236.92,788.42a3.49,3.49,0,0,0,.33-.81,3,3,0,0,0,2.48-1.41,6.14,6.14,0,0,0-.19,1.12A27.15,27.15,0,0,0,236.92,788.42Z" /><path class="cls-1" d="M192.1,794.52l0,0h0Z" /><path class="cls-1" d="M43.69,634.7a2.3,2.3,0,0,1,.42.31S43.94,634.9,43.69,634.7Z" /><path class="cls-1" d="M101.52,795.36h.35l.15.26S101.84,795.51,101.52,795.36Z" /><path class="cls-1" d="M245.27,789.74v.33a2.79,2.79,0,0,0-.31-.24Z" /><path class="cls-1" d="M242.74,695.74l0-1a8.53,8.53,0,0,0,1.28,1.73A12.37,12.37,0,0,0,242.74,695.74Z" /><path class="cls-1" d="M123.32,795.67a3.74,3.74,0,0,0,0-.49l7.54-.06.15.43Z" /><path class="cls-1" d="M245.33,789.72c.27.5.48.81.48.81s-.2-.19-.53-.46v-.33Z" /><path class="cls-1" d="M243.25,744.8l.07.18-.32-.11Z" /><path class="cls-1" d="M190.3,812h.24l-.18.16Z" /><path class="cls-1" d="M250.26,660.66a9.76,9.76,0,0,0,.83-.67s-.09.41-.18,1A5.07,5.07,0,0,0,250.26,660.66Z" /><path class="cls-1" d="M238.51,805.85h.34c0,.07,0,.15-.08.23Z" /><path class="cls-1" d="M260.1,663.19a9.05,9.05,0,0,0-.57,1.63,13.08,13.08,0,0,0-.12-1.72A2.3,2.3,0,0,0,260.1,663.19Z" /><path class="cls-1" d="M47.51,684.13a9.05,9.05,0,0,0-.57-1.63,2.34,2.34,0,0,0,.69-.09A11.27,11.27,0,0,0,47.51,684.13Z" /><polygon class="cls-1" points="96.24 805.07 96.24 805.07 96.24 805.07 96.24 805.07" /><path class="cls-1" d="M43.19,692.6s.32.28.83.66l-.65.35C43.28,693,43.19,692.6,43.19,692.6Z" /><path class="cls-1" d="M244.55,687.16l.13,3.15a2.54,2.54,0,0,0-2.09-.3l-.06-2.41.42-.06C243.57,687.42,244.08,687.29,244.55,687.16Z" /><path class="cls-2" d="M241.94,691a1.3,1.3,0,0,1,.65-1l.13,4.71A5.35,5.35,0,0,1,241.94,691Z" /><path class="cls-2" d="M266.22,794.7s3-3.36,2.44-5.92-7.48.91-7.48.91a3.61,3.61,0,0,0-.22-3.84,10.16,10.16,0,0,0-.24-2s2.65,2.65,3.24,0c.71-3.2-.75-4.35-1.57-4.74,1.4.48,5.33,1.62,5.69-.56.9-5.44-5.48-4.64-5.48-4.64s6.21-.84,6.51-3.3c.61-5.11-4.56-3-4.56-3s1.33-3.12-1.2-4.43a2.23,2.23,0,0,0-.4-.16c.94.24,2.26.07,4-1.32,4-3.17-3.82-6-3.82-6s4.37-1.18,5.25-3.65-6.78-3.29-6.78-3.29a3.54,3.54,0,0,0,1.83-3.79c-.59-2.84-4.41-.38-4.41-.38a9.79,9.79,0,0,0,1.17-4.37c.77.39,1.65.47,2-.93.71-3.2-.75-4.35-1.57-4.74,1.4.48,5.33,1.62,5.69-.56.9-5.44-5.48-4.64-5.48-4.64s6.21-.84,6.51-3.3c.61-5.11-4.56-3-4.56-3s1.33-3.12-1.2-4.43a2.76,2.76,0,0,0-2.31-.09,5.8,5.8,0,0,0,.29-.61c1.22-3.08,1.07-4.47,1.07-4.47s3.53,4.2,5,1.37-.8-5.41-.8-5.41,4.1-1.6,4.06-3.86c-.07-4.26-5.17-6-5.17-6s3.66-.79,1.75-2.72c-2.31-2.33-4.07-1.73-4.83-1.25,1.16-.92,4.24-3.6,2.6-5.08-4.08-3.71-6.86,2.09-6.86,2.09a20,20,0,0,0,1.22-3.6,2.17,2.17,0,0,0,.86-.31c3.54-2.37,2.21-7.57,2.21-7.57s2.65,2.65,3.23,0c.71-3.2-.75-4.36-1.56-4.74,1.4.47,5.32,1.61,5.68-.56.91-5.44-5.47-4.64-5.47-4.64s6.21-.85,6.5-3.31c.61-5.1-4.56-3-4.56-3s1.34-3.12-1.19-4.43-5.13,2.13-5.13,2.13.63-5.36-2.06-4.31l-.3.14a10,10,0,0,0,.81-3.75s3.52,4.2,5,1.37-.79-5.41-.79-5.41,4.1-1.6,4.06-3.86c-.08-4.26-5.17-6-5.17-6s3.66-.79,1.75-2.72c-2.31-2.33-4.07-1.73-4.84-1.25,1.16-.92,4.24-3.6,2.61-5.08-4.09-3.71-6.87,2.09-6.87,2.09a29.64,29.64,0,0,0,1.52-5.32h-7.9l-.86,1.65-2.81.58.07,1.83a10.13,10.13,0,0,0-1.27-.82l1.51,55.88.42-.06c.62-.12,1.13-.25,1.6-.38l.13,3.15a2.54,2.54,0,0,0-2.09-.3l.13,4.71a8.53,8.53,0,0,0,1.28,1.73,12.37,12.37,0,0,0-1.26-.71l2.53,94,.06,0c.27.5.48.81.48.81s-.2-.19-.53-.46l.11,4.11-114.57.94.15.43-7.65.12a3.74,3.74,0,0,0,0-.49l-21.41.18.15.26s-.18-.11-.5-.26l-45.95.38L62,629.42c-1.82,0-3.59-.41-5.49-.42a30.57,30.57,0,0,0-5.38-.52s-8.75,0-9.09,0c-.19,0-.71.72-1,1.13-1.15,1.88,1.45,4.17,2.61,5.09a2.3,2.3,0,0,1,.42.31s-.17-.11-.42-.31c-.77-.48-2.53-1.08-4.84,1.25-1.9,1.92,1.76,2.72,1.76,2.72s-5.1,1.69-5.17,6c0,2.26,4.05,3.86,4.05,3.86a6,6,0,0,0-.69,1.08,5.27,5.27,0,0,0-1,3c0,2.25,4,3.85,4.06,3.86h0a6.21,6.21,0,0,0-.8,1.31,5.67,5.67,0,0,0-2.3,1.53C36.8,661.2,40.46,662,40.46,662s-5.09,1.69-5.17,6c0,2.26,4.06,3.86,4.06,3.86s-2.25,2.58-.79,5.41,5-1.37,5-1.37a10,10,0,0,0,.81,3.75l-.3-.14c-2.7-1.05-2.06,4.3-2.06,4.3s-2.6-3.42-5.13-2.12-1.19,4.43-1.19,4.43-5.17-2.07-4.56,3c.29,2.46,6.5,3.31,6.5,3.31s-6.38-.8-5.47,4.64c.36,2.17,4.28,1,5.68.56-.81.38-2.28,1.54-1.57,4.74.59,2.65,3.24,0,3.24,0s-1.33,5.2,2.21,7.57a2.17,2.17,0,0,0,.86.31,20,20,0,0,0,1.22,3.6S41,708,36.9,711.73c-1.63,1.48,1.45,4.16,2.61,5.08-.76-.48-2.53-1.08-4.83,1.25-1.91,1.93,1.75,2.72,1.75,2.72s-5.1,1.69-5.17,6c0,2.26,4.06,3.86,4.06,3.86s-2.25,2.58-.8,5.41,5-1.37,5-1.37-.15,1.39,1.08,4.47a5.8,5.8,0,0,0,.29.61,2.78,2.78,0,0,0-2.32.09c-2.53,1.31-1.19,4.43-1.19,4.43s-5.17-2.08-4.56,3c.29,2.46,6.5,3.31,6.5,3.31s-6.38-.8-5.47,4.64c.36,2.18,4.29,1,5.68.56-.81.39-2.27,1.54-1.56,4.74.31,1.4,1.19,1.32,2,.93a9.7,9.7,0,0,0,1.18,4.37s-3.83-2.46-4.42.38A3.56,3.56,0,0,0,38.49,770s-7.66.81-6.78,3.29S37,776.91,37,776.91s-7.8,2.83-3.83,6c1.74,1.39,3.06,1.56,4,1.32a2.31,2.31,0,0,0-.41.16c-2.53,1.31-1.19,4.43-1.19,4.43s-5.17-2.08-4.56,3c.29,2.45,6.5,3.3,6.5,3.3s-6.38-.8-5.47,4.64c.36,2.18,4.29,1,5.68.56-.81.39-2.27,1.54-1.56,4.74.59,2.65,3.23,0,3.23,0s-1.33,5.2,2.21,7.57c1.88,1.26,5.44-1.32,5.44-1.32s1,3.28,4.12,3.59S52.66,810,52.66,810a9.26,9.26,0,0,0,3.09,1.23,5.32,5.32,0,0,0,2.17,3.13c1.88,1.26,5.44-1.32,5.44-1.32s1,3.28,4.12,3.59c2,.21,2.09-1.91,1.87-3.43a5.57,5.57,0,0,0,1.15-.76,15.68,15.68,0,0,0,1.71.53,5.71,5.71,0,0,0,1.51,2.24c1.92,1.91,2.72-1.75,2.72-1.75s1.69,5.1,6,5.17c2.26,0,3.86-4.06,3.86-4.06s2.57,2.25,5.41.8-1.37-5-1.37-5a10,10,0,0,0,3.73-.8l-.12.29c-1.05,2.7,4.3,2.06,4.3,2.06s-3.43,2.6-2.12,5.13,4.43,1.2,4.43,1.2-2.08,5.17,3,4.56c2.46-.3,3.3-6.51,3.3-6.51s-.8,6.38,4.65,5.48c2.17-.37,1-4.29.55-5.69.39.82,1.54,2.28,4.74,1.57,2.65-.59,0-3.24,0-3.24s5.77,2.46,6.36-2.87a16.26,16.26,0,0,0,5.12-1.42s-5.79,2.78-2.09,6.87c1.48,1.63,4.17-1.45,5.08-2.61-.47.77-1.08,2.53,1.25,4.84,1.93,1.9,2.72-1.76,2.72-1.76s1.7,5.1,6,5.18c2.26,0,3.86-4.06,3.86-4.06s2.57,2.24,5.4.79c1.28-.65,1.13-1.72.58-2.7a5.5,5.5,0,0,0,.81-.55s1.6,4.1,3.86,4.06c4.26-.07,5.95-5.17,5.95-5.17s.8,3.66,2.72,1.75c2.23-2.2,1.78-3.91,1.32-4.72h0a10.24,10.24,0,0,0,3.06,2.72,1.65,1.65,0,0,0,.89.43c3.2.72,4.36-.75,4.74-1.56-.48,1.4-1.62,5.32.56,5.68,5.44.91,4.64-5.47,4.64-5.47s.85,6.21,3.31,6.5c5.1.61,3-4.56,3-4.56a4.81,4.81,0,0,0,2.4.3,1.73,1.73,0,0,0,.85.84c2.83,1.45,5.41-.8,5.41-.8s1.6,4.1,3.86,4.06c4.26-.07,5.95-5.17,5.95-5.17s.79,3.66,2.72,1.75c2.33-2.3,1.73-4.07,1.25-4.83.92,1.16,3.6,4.24,5.08,2.61,3.71-4.09-2.09-6.87-2.09-6.87s5.68,2.65,7.26.74a5.69,5.69,0,0,0,.72-1.1,16.87,16.87,0,0,0,1.36-1.52c-.48.77-1.08,2.53,1.25,4.84,1.92,1.91,2.72-1.76,2.72-1.76s1.69,5.1,6,5.18c2.26,0,3.86-4.06,3.86-4.06s2.57,2.24,5.41.79a1.85,1.85,0,0,0,.77-.67c1.51.24,3.52-2.08,4.29-3-.48.76-1.08,2.53,1.25,4.83,1.93,1.91,2.72-1.75,2.72-1.75s1.69,5.1,6,5.17c2.26,0,3.86-4.06,3.86-4.06s2.58,2.25,5.41.8-1.37-5-1.37-5,1.39.15,4.47-1.07c4.57-1.82.6-5.26.6-5.26s3.23,1.71,4.85-3.11S266.22,794.7,266.22,794.7ZM44,693.26l-.65.35c-.09-.61-.18-1-.18-1S43.51,692.88,44,693.26Zm3.61-10.85a11.27,11.27,0,0,0-.12,1.72,9.05,9.05,0,0,0-.57-1.63A2.34,2.34,0,0,0,47.63,682.41ZM96.24,805.07Zm94.3,6.91-.18.16-.06-.15Zm48.31-6.13c0,.07,0,.15-.08.23l-.26-.23ZM251.09,660s-.09.41-.18,1a5.07,5.07,0,0,0-.65-.35A9.76,9.76,0,0,0,251.09,660Zm8.32,3.11a2.3,2.3,0,0,0,.69.09,9.05,9.05,0,0,0-.57,1.63A13.08,13.08,0,0,0,259.41,663.1Z" /><path class="cls-2" d="M192.12,794.56h0v0Zm47.61-8.36a6.14,6.14,0,0,0-.19,1.12,27.15,27.15,0,0,0-2.62,1.1,3.49,3.49,0,0,0,.33-.81A3,3,0,0,0,239.73,786.2ZM243.32,745l-.32-.11.25-.07Z" /><path class="cls-2" d="M33.3,635s-.17-.11-.42-.31A2.3,2.3,0,0,1,33.3,635Z" /><path class="cls-3" d="M48.81,710.35s-5.81,4.24-2.14,8.72C46.67,719.07,52.35,717.27,48.81,710.35Z" /><path class="cls-3" d="M49,710.2s1.92,7.7,8.37,3.88C57.39,714.08,58,706.88,49,710.2Z" /><path class="cls-3" d="M49.44,711.81s1.15-5.49-3.11-6.38C46.33,705.43,44,709.37,49.44,711.81Z" /><path class="cls-3" d="M253.52,767.73s-5.8,4.24-2.13,8.72C251.39,776.45,257.07,774.65,253.52,767.73Z" /><path class="cls-3" d="M253.73,767.58s1.93,7.7,8.37,3.87C262.1,771.45,262.73,764.26,253.73,767.58Z" /><path class="cls-3" d="M254.15,769.19s1.16-5.49-3.1-6.38C251.05,762.81,248.76,766.75,254.15,769.19Z" /><path class="cls-3" d="M91.29,809.31s-5.81,4.24-2.14,8.72C89.15,818,94.84,816.23,91.29,809.31Z" /><path class="cls-3" d="M91.5,809.16s1.92,7.7,8.37,3.88C99.87,813,100.5,805.85,91.5,809.16Z" /><path class="cls-3" d="M91.92,810.77s1.15-5.49-3.11-6.38C88.81,804.39,86.53,808.33,91.92,810.77Z" /><path class="cls-3" d="M45.1,659.06s-5.81,4.25-2.14,8.72C43,667.78,48.64,666,45.1,659.06Z" /><path class="cls-3" d="M45.31,658.91s1.92,7.7,8.37,3.88C53.68,662.79,54.31,655.6,45.31,658.91Z" /><path class="cls-3" d="M45.72,660.53s1.16-5.49-3.1-6.38C42.62,654.15,40.33,658.09,45.72,660.53Z" /><path class="cls-3" d="M45.71,694.72s1.15-5.49-3.11-6.38C42.6,688.34,40.31,692.28,45.71,694.72Z" /><path class="cls-3" d="M48.41,803.94s-5.8,4.25-2.13,8.72C46.28,812.66,52,810.86,48.41,803.94Z" /><path class="cls-3" d="M41.08,726.66s-5.8,4.24-2.13,8.72C39,735.38,44.63,733.58,41.08,726.66Z" /><path class="cls-3" d="M48.63,803.79s1.92,7.7,8.36,3.88C57,807.67,57.63,800.48,48.63,803.79Z" /><path class="cls-3" d="M45.39,742.77s1.92,7.69,8.37,3.87C53.76,746.64,54.39,739.45,45.39,742.77Z" /><path class="cls-3" d="M49,805.41s1.16-5.49-3.1-6.38C45.94,799,43.65,803,49,805.41Z" /><path class="cls-3" d="M40.47,729.25s1.16-5.48-3.1-6.37C37.37,722.88,35.08,726.82,40.47,729.25Z" /><path class="cls-3" d="M200.37,811s7.12,1,7.59-4.79C208,806.21,202.62,803.56,200.37,811Z" /><path class="cls-3" d="M200.11,811s4-6.87-3.33-8.6C196.78,802.36,191.34,807.1,200.11,811Z" /><path class="cls-3" d="M200.93,809.51s-4.64,3.15-2.2,6.75C198.73,816.26,203.12,815,200.93,809.51Z" /><path class="cls-3" d="M163.11,810.3s-4.64,3.14-2.2,6.74C160.91,817,165.3,815.8,163.11,810.3Z" /><path class="cls-3" d="M245.83,730.1s3.62,6.22,8.45,3C254.28,733.13,253.08,727.29,245.83,730.1Z" /><path class="cls-3" d="M245.7,729.88s7.86-1.12,4.72-7.93C250.42,722,243.33,720.58,245.7,729.88Z" /><path class="cls-3" d="M247.35,729.63s-5.34-1.72-6.66,2.43C240.69,732.06,244.37,734.74,247.35,729.63Z" /><path class="cls-4" d="M254,803.73s4.85,3.74,7.28-1.08C261.3,802.65,258.35,798.18,254,803.73Z" /><path class="cls-4" d="M252.44,804s-4,6.21,1.18,9.15C253.62,813.13,258.41,809.31,252.44,804Z" /><path class="cls-4" d="M174.56,798.46s-4,6.2,1.18,9.14C175.74,807.6,180.53,803.79,174.56,798.46Z" /><path class="cls-4" d="M57,803.36s4.86,3.74,7.28-1.08C64.28,802.28,61.34,797.81,57,803.36Z" /><path class="cls-4" d="M99.91,807.72s-4,6.2,1.18,9.14C101.09,816.86,105.88,813.05,99.91,807.72Z" /><path class="cls-4" d="M247.48,684.51s6.12.36,5.41-5C252.89,679.52,247.94,677.49,247.48,684.51Z" /><path class="cls-4" d="M256.68,710.7s6.12.36,5.4-5C262.08,705.71,257.13,703.67,256.68,710.7Z" /><path class="cls-4" d="M246.32,685.61s.19,7.38,6.13,6.89C252.45,692.5,254.26,686.65,246.32,685.61Z" /><path class="cls-4" d="M256.6,699.46s.19,7.38,6.13,6.89C262.73,706.35,264.54,700.5,256.6,699.46Z" /><path class="cls-4" d="M250.8,636.11s6.12.36,5.4-5C256.2,631.12,251.25,629.08,250.8,636.11Z" /><path class="cls-4" d="M249.64,637.21s.18,7.38,6.13,6.89C255.77,644.1,257.57,638.25,249.64,637.21Z" /><path class="cls-4" d="M145.7,801.68s3.69,8.23,10.19,3.65C155.89,805.33,155.17,797.48,145.7,801.68Z" /><path class="cls-4" d="M143.47,800.91s-9.5,5.27-4.82,12.69C138.65,813.6,147.51,812,143.47,800.91Z" /><path class="cls-4" d="M44.13,777.13S38,783.71,44.68,788C44.68,788,51.65,784.27,44.13,777.13Z" /><path class="cls-4" d="M44,774.78s-8.51-6.74-13.56.44C30.42,775.22,35.33,782.77,44,774.78Z" /><path class="cls-4" d="M41.25,690.13s-5.58,0-4,4.79C37.22,694.92,42,696.54,41.25,690.13Z" /><path class="cls-4" d="M43.44,640.34s-5.58-.05-4,4.79C39.41,645.13,44.23,646.75,43.44,640.34Z" /><path class="cls-4" d="M50.73,747.46s-5.58-.05-4,4.79C46.7,752.25,51.52,753.87,50.73,747.46Z" /><path class="cls-4" d="M42.11,689.07s-1.42-6.7-6.7-6C35.41,683.09,34.77,688.5,42.11,689.07Z" /><path class="cls-4" d="M54.48,640.34s-5.58-.05-4,4.79C50.45,645.13,55.27,646.75,54.48,640.34Z" /><path class="cls-4" d="M55.34,639.28s-1.42-6.7-6.7-6C48.64,633.3,48,638.7,55.34,639.28Z" /><polyline class="cls-5" points="51.14 627.96 45.25 798.69 254.75 803.18 248.35 628.48" /><polygon class="cls-6" points="52.84 792.61 247.15 795.33 240.51 607.35 58.85 607.35 52.84 792.61" /><path class="cls-7" d="M241.45,604.69C241,606,241,725.36,241,725.36l-125.75-9.24-56.67,41,3.29-151.45" /><path class="cls-8" d="M217.42,749.31c0-1.64,3.17-3,7.08-3s7.09,1.34,7.09,3" /><polygon class="cls-9" points="242.76 728.03 233.48 742.77 187.6 739.31 200.16 725.29 242.76 728.03" /><polygon class="cls-10" points="244.56 716.62 243.66 733.26 241.86 733.26 242.13 719.59 244.56 716.62" /><polygon class="cls-10" points="234.04 730.21 233.86 748.02 232.06 748.02 231.52 732.09 234.04 730.21" /><polygon class="cls-10" points="188.7 726.7 188.52 744.51 186.72 744.51 186.18 728.59 188.7 726.7" /><polygon class="cls-11" points="245.59 715.8 235.22 732.26 184.01 728.4 198.23 713.47 245.59 715.8" /><path class="cls-12" d="M225.6,739.16l-.68,15.78c-.58.41-1,.38-1.33-.24l-.08-15.55Z" /><path class="cls-10" d="M228.12,742.18l2.79,16.56c.62.33,1.07.24,1.28-.41l-2-16.42Z" /><path class="cls-10" d="M221.49,742.12l-4.07,16.29c-.65.28-1.09.16-1.25-.51l3.27-16.21Z" /><ellipse class="cls-11" cx="224.65" cy="740.19" rx="7.6" ry="3.91" /><path class="cls-8" d="M231.59,749.31c0,1.64-3.17,3-7.09,3s-7.08-1.33-7.08-3" /><path class="cls-8" d="M192.12,748.46c0-1.64,3.18-3,7.09-3s7.09,1.33,7.09,3" /><path class="cls-12" d="M200.44,737.91l-.67,15.32a.75.75,0,0,1-.65.74c-.28,0-.52-.14-.7-.51l-.07-15.56Z" /><path class="cls-10" d="M203,740.94l2.71,16.1a.76.76,0,0,0,.74.65c.29,0,.5-.21.63-.6l-2-16.42Z" /><path class="cls-10" d="M196.32,740.88l-3.95,15.83a.75.75,0,0,1-.79.59c-.28,0-.48-.24-.58-.64l3.28-16.21Z" /><ellipse class="cls-11" cx="199.45" cy="738.86" rx="7.6" ry="3.91" /><path class="cls-8" d="M206.3,748.46c0,1.64-3.17,3-7.09,3s-7.09-1.33-7.09-3" /><polygon class="cls-9" points="163.03 692.48 177.05 692.89 173.8 722.35 157.74 720.52 163.03 692.48" /><polygon class="cls-11" points="151.44 688.41 165.87 689.02 161.2 726.01 145.96 724.79 151.44 688.41" /><polygon class="cls-11" points="174.81 683.33 170.34 727.03 164.85 726.01 170.54 683.13 174.81 683.33" /><polygon class="cls-11" points="178.27 700.81 175.63 730.08 154.08 727.84 157.94 700.2 178.27 700.81" /><polygon class="cls-9" points="163.23 705.08 170.54 705.49 167.29 730.48 158.96 729.87 163.23 705.08" /><polygon class="cls-12" points="123.38 724.71 122.16 734.46 120.49 734.41 119.57 725.01 123.38 724.71" /><polygon class="cls-12" points="142.13 712.21 140.61 722.57 138.93 722.72 138.78 712.36 142.13 712.21" /><polygon class="cls-12" points="102.04 716.02 103.57 727.45 105.25 727.3 106.46 717.09 102.04 716.02" /><polygon class="cls-11" points="143.76 711.5 121.61 725.92 100.47 715.97 123.84 705.2 143.76 711.5" /><polyline class="cls-13" points="130.11 704.72 128.21 705.85 129.56 706.87 128.16 707.66 129.56 708.78 127.8 709.01 128.87 710.61 127.19 710.53 127.73 712.74 126.26 712.42 126.2 713.81 125.02 713.28 124.37 714.8 123.61 713.43 122.09 714.42 122.22 712.86 120.49 713.2 121 711.72 119.27 711.52 120.04 710.26 118.12 709.85 119.5 708.7 117.18 708.22 118.89 707.1 117.13 705.81 118.71 705.04 117.21 703.9 118.77 703.23 116.94 701.98 119.09 701.47 117.51 699.93 119.72 699.83 118.52 697.98 120.66 698.47 120.68 697.14 121.9 697.61 122.19 696.73 122.66 697.43 122.63 695.45 122.81 697.42 122.88 695.44 122.95 697.42 123.12 695.45 123.09 697.43 123.37 695.47 123.23 697.44 123.61 695.5 123.38 697.47 123.85 695.54 124.08 697.69 125.39 697.11 125.28 698.49 126.93 698.35 126.28 699.64 128.43 699.33 127.08 701.02 129.24 701.06 127.65 702.53 129.79 702.87 128.03 704.12 130.11 704.72" /><path class="cls-14" d="M125.52,705.22c.2,1.81-.57,3.37-1.71,3.5s-2.22-1.25-2.41-3.05.57-3.37,1.71-3.5a1.48,1.48,0,0,1,.42,0c1,.21,1.82,1.45,2,3" /><path class="cls-14" d="M116.3,703.3l14.31,2.89s-.34-9.11-7.48-10.12C117,695.2,116.3,703.3,116.3,703.3Z" /><path class="cls-13" d="M110.43,691l1.06,20.27c2.52.51,3.69,0,3.66-1.52l-.46-20.43Z" /><path class="cls-10" d="M124.53,697.19c-.63.75-1.29.68-2,0v-4.57h2Z" /><polygon class="cls-10" points="133.8 692.19 128.92 694.83 108.19 691.38 113.93 688.89 133.8 692.19" /><polyline class="cls-15" points="125.68 702.93 128.6 704.03 132.73 702.31 129.56 701.32" /><polygon class="cls-9" points="82.12 740.03 105.3 747.62 71.94 767.69 54.41 756.95 82.12 740.03" /><polygon class="cls-10" points="106.69 738.36 106.52 756.17 104.72 756.17 104.18 740.25 106.69 738.36" /><polygon class="cls-10" points="72.49 756.17 72.61 776.74 70.81 776.74 69.97 758.06 72.49 756.17" /><polygon class="cls-11" points="61.86 740.44 83.07 727.46 108.9 737.84 69.96 759.21 63.4 754.34 61.86 740.44" /><path class="cls-8" d="M162.81,737.28c0-1.64,3.17-3,7.09-3s7.08,1.33,7.08,3" /><path class="cls-12" d="M171.12,726.74l-.66,15.32a.75.75,0,0,1-.65.73c-.29,0-.52-.14-.7-.51L169,726.73Z" /><path class="cls-10" d="M173.64,729.77l2.71,16.09a.75.75,0,0,0,.74.65c.28,0,.49-.21.62-.6l-2-16.41Z" /><path class="cls-10" d="M167,729.7l-4,15.83a.76.76,0,0,1-.78.6c-.29,0-.48-.25-.58-.65L165,729.27Z" /><ellipse class="cls-11" cx="170.14" cy="727.69" rx="7.6" ry="3.91" /><path class="cls-8" d="M177,737.28c0,1.64-3.17,3-7.08,3s-7.09-1.34-7.09-3" /><path class="cls-8" d="M117.48,742c0-1.64,3.17-3,7.08-3s7.09,1.33,7.09,3" /><path class="cls-12" d="M125.79,731.4l-.66,15.32a.76.76,0,0,1-.66.74c-.28,0-.51-.14-.69-.51l-.08-15.56Z" /><path class="cls-10" d="M128.31,734.43,131,750.52a.73.73,0,0,0,.73.65c.29,0,.5-.2.63-.59l-2-16.42Z" /><path class="cls-10" d="M121.67,734.37l-4,15.83a.74.74,0,0,1-.78.59c-.29,0-.48-.24-.58-.64l3.27-16.21Z" /><ellipse class="cls-11" cx="124.81" cy="732.35" rx="7.6" ry="3.91" /><path class="cls-8" d="M131.65,742c0,1.64-3.17,3-7.09,3s-7.08-1.33-7.08-3" /><path class="cls-8" d="M86.77,764.36c0-1.64,3.17-3,7.08-3s7.09,1.33,7.09,3" /><path class="cls-9" d="M95.08,753.82l-.67,15.32a.73.73,0,0,1-.65.73c-.28,0-.52-.14-.7-.51L93,753.81Z" /><path class="cls-10" d="M97.59,756.85l2.72,16.09a.74.74,0,0,0,.73.65c.29,0,.5-.21.63-.6l-2-16.41Z" /><path class="cls-10" d="M91,756.78,87,772.62a.76.76,0,0,1-.79.59c-.28,0-.48-.25-.58-.65l3.28-16.21Z" /><ellipse class="cls-11" cx="94.09" cy="754.77" rx="7.6" ry="3.91" /><path class="cls-8" d="M100.94,764.36c0,1.65-3.17,3-7.09,3s-7.08-1.33-7.08-3" /><path class="cls-13" d="M226,719.52l-19.48-1.17-1.3,2.86,1.82-1,.82,1.73,1.3-1.43,1,1.69,1.52-1.38.61,1.86,1.25-1.21s.4,1.64.48,1.51a13.3,13.3,0,0,1,1.39-.83s1,1.54,1.09,1.45,1.35-1.27,1.35-1.27l.72,1.39,1.4-1,.81,1.17,1.35-.95.7,1.55.68-1.41,1.06,1.38Z" /><polygon class="cls-13" points="226.01 719.52 232.13 719.59 231.1 720.79 229.51 725.1 229.76 726.73 224.53 724.47 224.88 721.21 226.01 719.52" /><path class="cls-11" d="M229.3,720.61a3.68,3.68,0,0,1-1.1,3.5c-1.37,1.49-2.48-2-2-2.68C226.9,720.47,229.16,720.26,229.3,720.61Z" /><path class="cls-13" d="M88,739.29l1.86-1.16a6.77,6.77,0,0,0-3-2.23,4.76,4.76,0,0,0-4.36,1.16,5.25,5.25,0,0,1,3.23-.08C86.82,737.42,87.18,738.16,88,739.29Z" /><path class="cls-13" d="M91,739.51l-2.24,1.06-1.11-1.72a1.39,1.39,0,0,1,2.08-.81Z" /><ellipse class="cls-13" cx="89.77" cy="740.06" rx="1.63" ry="0.68" transform="translate(-342.38 132.62) rotate(-28.51)" /><path class="cls-13" d="M86.55,737.73,74.13,742.8s-.59,1.42,1.34,2.41l12-6.48C87.49,738.19,87.23,737.82,86.55,737.73Z" /></g><g id="Grade_1" data-name="Grade 1"><polygon class="cls-16" points="170.51 602.59 245.63 599.97 252.05 800.05 47.95 797.4 56.56 602.64 127.88 603.04 129.16 609.7 66.35 609.9 62.53 787.3 238.67 787.09 233.21 608.71 169.14 609.28 170.51 602.59" /><polygon class="cls-16" points="130.11 612.18 99.63 625.93 97.99 622.52 129.09 609.57 130.11 612.18" /><ellipse class="cls-16" cx="107.07" cy="626.06" rx="2.84" ry="1.78" transform="translate(-274.77 118.5) rotate(-27.25)" /><ellipse class="cls-16" cx="103.7" cy="617.87" rx="2.84" ry="1.78" transform="translate(-271.39 116.05) rotate(-27.25)" /></g></svg>