<svg xmlns="http://www.w3.org/2000/svg" viewBox="0 0 300 900" width="300" height="900" preserveAspectRatio="none"><defs><style>.cls-1,.cls-12,.cls-14,.cls-16,.cls-17{fill:none;}.cls-2{fill:#0b5430;}.cls-3{fill:#146b45;}.cls-4{fill:#108342;}.cls-5{fill:#5d3213;}.cls-13,.cls-22,.cls-23,.cls-24,.cls-27,.cls-28,.cls-6,.cls-8{fill:#f3e8ab;}.cls-7{fill:#f6efc5;stroke-miterlimit:10;stroke-width:0.7px;}.cls-10,.cls-11,.cls-12,.cls-13,.cls-14,.cls-15,.cls-16,.cls-17,.cls-18,.cls-20,.cls-22,.cls-23,.cls-24,.cls-25,.cls-26,.cls-27,.cls-28,.cls-7,.cls-8,.cls-9{stroke:#cec391;}.cls-10,.cls-11,.cls-12,.cls-13,.cls-14,.cls-15,.cls-16,.cls-17,.cls-18,.cls-19,.cls-20,.cls-21,.cls-22,.cls-23,.cls-24,.cls-25,.cls-26,.cls-27,.cls-28,.cls-8,.cls-9{stroke-linejoin:round;}.cls-10,.cls-8{stroke-width:0.69px;}.cls-10,.cls-25,.cls-26,.cls-9{fill:#e2d995;}.cls-9{stroke-width:0.62px;}.cls-11,.cls-29{fill:#cec391;}.cls-11{stroke-width:0.75px;}.cls-12{stroke-width:0.46px;}.cls-13,.cls-14,.cls-15,.cls-16,.cls-18{stroke-width:0.38px;}.cls-15,.cls-18,.cls-19,.cls-20,.cls-21{fill:#c8e3dd;}.cls-15,.cls-16,.cls-17,.cls-20,.cls-21,.cls-27{stroke-linecap:round;}.cls-17,.cls-19{stroke-width:0.58px;}.cls-19,.cls-21{stroke:#fff;}.cls-20,.cls-21{stroke-width:1.15px;}.cls-22{stroke-width:0.3px;}.cls-23{stroke-width:0.25px;}.cls-24{stroke-width:0.38px;}.cls-25,.cls-28{stroke-width:0.28px;}.cls-26{stroke-width:0.32px;}.cls-27{stroke-width:0.5px;}.cls-30{fill:#159848;}</style></defs><g id="rooms"><polygon class="cls-1" points="69.67 342.45 69.67 342.45 69.67 342.45 69.67 342.45" /><path class="cls-2" d="M64.72,338.21s-5.81-4.24-2.14-8.72C62.58,329.49,68.26,331.29,64.72,338.21Z" /><path class="cls-2" d="M65.34,336.75s1.16,5.49-3.1,6.38C62.24,343.13,60,339.19,65.34,336.75Z" /><path class="cls-3" d="M266.11,258.08c-.35-.36-.56-.63-.56-.63s0,.3.06.73A2.11,2.11,0,0,1,266.11,258.08Z" /><path class="cls-1" d="M239.11,191.63a3.72,3.72,0,0,1,.33.82,3,3,0,0,1,2.48,1.41,6.14,6.14,0,0,1-.19-1.12A25.72,25.72,0,0,1,239.11,191.63Z" /><path class="cls-1" d="M194.29,185.54l0,0h0Z" /><path class="cls-1" d="M45.88,345.36a2.06,2.06,0,0,0,.42-.32Z" /><path class="cls-1" d="M103.71,184.7h.35l.15-.27A4.21,4.21,0,0,1,103.71,184.7Z" /><path class="cls-1" d="M247.46,190.32V190l-.31.24Z" /><path class="cls-1" d="M244.93,284.32l0,1a8.53,8.53,0,0,1,1.28-1.73A12.37,12.37,0,0,1,244.93,284.32Z" /><path class="cls-1" d="M125.51,184.39a3.58,3.58,0,0,1,0,.48l7.54.07.15-.43Z" /><path class="cls-1" d="M247.52,190.34c.27-.5.48-.81.48-.81s-.2.19-.53.46v.33Z" /><path class="cls-1" d="M245.44,235.26l.07-.18-.32.11Z" /><path class="cls-1" d="M192.49,168.07h.24l-.18-.16Z" /><path class="cls-1" d="M252.45,319.4a9.76,9.76,0,0,1,.83.67s-.09-.41-.18-1A5.07,5.07,0,0,1,252.45,319.4Z" /><path class="cls-1" d="M240.7,174.21a3,3,0,0,1,.34,0c0-.08,0-.16-.08-.23Z" /><path class="cls-1" d="M262.29,316.87a9,9,0,0,1-.57-1.64,13.27,13.27,0,0,1-.12,1.73A2,2,0,0,1,262.29,316.87Z" /><path class="cls-1" d="M49.7,295.92a9,9,0,0,1-.57,1.64,2,2,0,0,1,.69.09A11.43,11.43,0,0,1,49.7,295.92Z" /><polygon class="cls-1" points="98.43 174.99 98.43 174.99 98.43 174.99 98.43 174.99" /><path class="cls-1" d="M45.38,287.46s.32-.28.83-.66l-.65-.35C45.47,287.06,45.38,287.46,45.38,287.46Z" /><path class="cls-1" d="M246.74,292.9l.13-3.15a2.54,2.54,0,0,1-2.09.3l-.06,2.41.42.06C245.76,292.64,246.27,292.77,246.74,292.9Z" /><path class="cls-3" d="M244.13,289.06a1.31,1.31,0,0,0,.65,1l.13-4.71A5.35,5.35,0,0,0,244.13,289.06Z" /><path class="cls-3" d="M274.87,182.38c-1.62-4.81-4.85-3.11-4.85-3.11s4-3.44-.6-5.25c-3.08-1.23-4.47-1.08-4.47-1.08s4.2-3.52,1.37-5-5.41.8-5.41.8-1.6-4.1-3.86-4.06c-4.26.07-6,5.17-6,5.17s-.79-3.66-2.72-1.75c-2.33,2.3-1.73,4.07-1.25,4.83-.77-1-2.78-3.3-4.29-3.05a1.85,1.85,0,0,0-.77-.67c-2.84-1.45-5.41.79-5.41.79s-1.6-4.1-3.86-4.06c-4.26.08-6,5.17-6,5.17s-.8-3.66-2.72-1.75c-2.33,2.31-1.73,4.07-1.25,4.84a16.87,16.87,0,0,0-1.36-1.52,5.69,5.69,0,0,0-.72-1.1c-1.58-1.91-7.26.74-7.26.74s5.8-2.78,2.09-6.87c-1.48-1.63-4.16,1.45-5.08,2.61.48-.76,1.08-2.53-1.25-4.83-1.93-1.91-2.72,1.75-2.72,1.75s-1.69-5.1-6-5.17c-2.26,0-3.86,4.06-3.86,4.06s-2.58-2.25-5.41-.8a1.75,1.75,0,0,0-.85.83,4.88,4.88,0,0,0-2.4.31s2.08-5.17-3-4.56c-2.46.29-3.31,6.5-3.31,6.5s.8-6.38-4.64-5.47c-2.18.36-1,4.28-.56,5.68-.38-.81-1.54-2.28-4.74-1.57a1.72,1.72,0,0,0-.89.44,10.24,10.24,0,0,0-3.06,2.72h0c.46-.81.91-2.52-1.32-4.72-1.92-1.91-2.72,1.75-2.72,1.75s-1.69-5.1-6-5.17c-2.26,0-3.86,4.06-3.86,4.06a4.69,4.69,0,0,0-.81-.55c.55-1,.7-2-.58-2.7-2.83-1.45-5.4.79-5.4.79s-1.6-4.1-3.86-4.06c-4.26.08-6,5.17-6,5.17s-.79-3.66-2.72-1.75c-2.33,2.31-1.72,4.07-1.25,4.84-.91-1.16-3.6-4.24-5.08-2.61-3.7,4.09,2.09,6.87,2.09,6.87a16.45,16.45,0,0,0-5.12-1.43c-.59-5.32-6.36-2.86-6.36-2.86s2.65-2.65,0-3.24c-3.2-.71-4.35.75-4.74,1.57.48-1.4,1.62-5.33-.55-5.69-5.45-.9-4.65,5.48-4.65,5.48s-.84-6.21-3.3-6.51c-5.11-.61-3,4.56-3,4.56s-3.12-1.33-4.43,1.2,2.12,5.12,2.12,5.12-5.35-.63-4.3,2.06l.12.29a9.78,9.78,0,0,0-3.73-.79s4.2-3.53,1.37-5-5.41.8-5.41.8-1.6-4.1-3.86-4.06c-4.26.07-6,5.17-6,5.17s-.8-3.66-2.72-1.75a5.64,5.64,0,0,0-1.51,2.24,15.68,15.68,0,0,0-1.71.53,5.57,5.57,0,0,0-1.15-.76c.22-1.52.18-3.64-1.87-3.44-3.16.32-4.12,3.6-4.12,3.6s-3.56-2.58-5.44-1.33a5.37,5.37,0,0,0-2.17,3.14,9,9,0,0,0-3.09,1.23s1.63-5.24-1.54-4.92-4.12,3.59-4.12,3.59-3.56-2.58-5.44-1.32c-3.54,2.37-2.21,7.57-2.21,7.57s-2.64-2.65-3.23,0c-.71,3.2.75,4.35,1.56,4.74-1.39-.48-5.32-1.62-5.68.56-.91,5.44,5.47,4.64,5.47,4.64s-6.21.84-6.5,3.3c-.61,5.11,4.56,3,4.56,3s-1.34,3.12,1.19,4.43a2.31,2.31,0,0,0,.41.16c-.94-.24-2.26-.07-4,1.31-4,3.17,3.83,6,3.83,6s-4.38,1.19-5.25,3.66,6.78,3.29,6.78,3.29a3.56,3.56,0,0,0-1.84,3.79c.59,2.83,4.42.37,4.42.37a9.93,9.93,0,0,0-1.18,4.37c-.76-.38-1.64-.46-1.95.94-.71,3.2.75,4.35,1.56,4.74-1.39-.48-5.32-1.62-5.68.56-.91,5.44,5.47,4.64,5.47,4.64s-6.21.84-6.5,3.3c-.61,5.11,4.56,3,4.56,3s-1.34,3.12,1.19,4.43a2.78,2.78,0,0,0,2.32.09,5,5,0,0,0-.29.61c-1.23,3.08-1.08,4.47-1.08,4.47s-3.52-4.2-5-1.37.8,5.41.8,5.41-4.1,1.6-4.06,3.86c.07,4.26,5.17,5.95,5.17,5.95s-3.66.79-1.75,2.72c2.3,2.33,4.07,1.73,4.83,1.25-1.16.92-4.24,3.6-2.61,5.08C43.18,272,46,266.24,46,266.24a20,20,0,0,0-1.22,3.6,2,2,0,0,0-.86.31c-3.54,2.37-2.21,7.57-2.21,7.57s-2.65-2.65-3.24,0c-.71,3.2.76,4.36,1.57,4.74-1.4-.48-5.32-1.61-5.68.56-.91,5.44,5.47,4.64,5.47,4.64s-6.21.85-6.5,3.31c-.61,5.1,4.56,3,4.56,3s-1.34,3.12,1.19,4.42,5.13-2.12,5.13-2.12-.64,5.35,2.06,4.31l.3-.14a10,10,0,0,0-.81,3.74s-3.52-4.19-5-1.36.79,5.41.79,5.41-4.1,1.6-4.06,3.86c.08,4.26,5.17,5.95,5.17,5.95s-3.66.79-1.75,2.72a5.78,5.78,0,0,0,2.3,1.53,5.66,5.66,0,0,0,.8,1.3h0s-4.1,1.61-4.06,3.86a5.27,5.27,0,0,0,1.05,3,6,6,0,0,0,.69,1.08s-4.09,1.6-4,3.86c.07,4.26,5.17,5.95,5.17,5.95s-3.66.79-1.76,2.72c2.31,2.33,4.07,1.73,4.84,1.25l.42-.32a2.06,2.06,0,0,1-.42.32c-1.16.92-4.24,2.21-2.61,3.69a1,1,0,0,0,.52.25H64.2l-6.44-165,45.95.38a4.21,4.21,0,0,0,.5-.27l-.15.27,21.41.17a3.58,3.58,0,0,0,0-.48l7.65.12-.15.43,114.57.94-.11,4.11c.33-.27.53-.46.53-.46s-.21.31-.48.81l-.06,0-2.53,94a12.37,12.37,0,0,0,1.26-.71,8.53,8.53,0,0,0-1.28,1.73l-.13,4.71a2.54,2.54,0,0,0,2.09-.3l-.13,3.15c-.47-.13-1-.26-1.6-.38l-.42-.06-1.51,55.88a10.13,10.13,0,0,0,1.27-.82l-.07,1.83,11.42-.05a4.94,4.94,0,0,0-1.37-3s3.47,5,6.87,2.09c1.67-1.44-1.45-4.17-2.61-5.08.77.47,2.53,1.08,4.84-1.25,1.91-1.93-1.75-2.72-1.75-2.72s5.09-1.69,5.17-5.95c0-2.26-4.06-3.86-4.06-3.86s2.24-2.58.79-5.41-5,1.36-5,1.36a10,10,0,0,0-.81-3.74l.3.14c2.69,1,2.06-4.31,2.06-4.31s2.6,3.43,5.13,2.12,1.19-4.43,1.19-4.43,5.17,2.08,4.56-3c-.29-2.46-6.5-3.31-6.5-3.31s6.38.8,5.47-4.64c-.36-2.17-4.28-1-5.68-.56.81-.38,2.27-1.54,1.56-4.74-.58-2.65-3.23,0-3.23,0s1.33-5.2-2.21-7.57a2,2,0,0,0-.86-.31,20,20,0,0,0-1.22-3.6s2.78,5.8,6.86,2.09c1.64-1.48-1.44-4.16-2.6-5.08.76.48,2.52,1.08,4.83-1.25,1.91-1.93-1.75-2.72-1.75-2.72s5.1-1.69,5.17-5.95c0-2.26-4.06-3.86-4.06-3.86s2.25-2.58.8-5.41-5,1.37-5,1.37.15-1.39-1.07-4.47a5,5,0,0,0-.29-.61,2.79,2.79,0,0,0,2.31-.09c2.53-1.31,1.2-4.43,1.2-4.43s5.17,2.08,4.56-3c-.3-2.46-6.51-3.3-6.51-3.3s6.38.8,5.48-4.64c-.36-2.18-4.29-1-5.69-.56.82-.39,2.28-1.54,1.57-4.74-.31-1.4-1.19-1.32-2-.94a9.85,9.85,0,0,0-1.17-4.37s3.82,2.46,4.41-.37a3.54,3.54,0,0,0-1.83-3.79s7.66-.82,6.78-3.29-5.25-3.66-5.25-3.66,7.8-2.83,3.82-6c-1.73-1.38-3.05-1.55-4-1.31a2.23,2.23,0,0,0,.4-.16c2.53-1.31,1.2-4.43,1.2-4.43s5.17,2.08,4.56-3c-.3-2.46-6.51-3.3-6.51-3.3s6.38.8,5.48-4.64c-.36-2.18-4.29-1-5.69-.56.82-.39,2.28-1.54,1.57-4.74-.59-2.65-3.24,0-3.24,0a10.16,10.16,0,0,0,.24-2,3.61,3.61,0,0,0,.22-3.84s6.88,3.46,7.48.9-2.44-5.91-2.44-5.91S276.5,187.2,274.87,182.38ZM45.38,287.46s.09-.4.18-1l.65.35C45.7,287.18,45.38,287.46,45.38,287.46Zm3.75,10.1a9,9,0,0,0,.57-1.64,11.43,11.43,0,0,0,.12,1.73A2,2,0,0,0,49.13,297.56ZM98.43,175Zm94.06-6.92.06-.15.18.16Zm48.21,6.14L241,174c0,.07,0,.15.08.23A3,3,0,0,0,240.7,174.21ZM252.45,319.4a5.07,5.07,0,0,0,.65-.35c.09.61.18,1,.18,1A9.76,9.76,0,0,0,252.45,319.4Zm9.27-4.17a9,9,0,0,0,.57,1.64,2,2,0,0,0-.69.09A13.27,13.27,0,0,0,261.72,315.23Z" /><path class="cls-3" d="M194.29,185.54v0h0Zm45.15,6.91a3.72,3.72,0,0,0-.33-.82,25.72,25.72,0,0,0,2.62,1.11,6.14,6.14,0,0,0,.19,1.12A3,3,0,0,0,239.44,192.45Zm6,42.81-.25-.07.32-.11Z" /><path class="cls-3" d="M35.49,345l-.42.32A2.06,2.06,0,0,0,35.49,345Z" /><path class="cls-2" d="M51,269.71s-5.81-4.24-2.14-8.72C48.86,261,54.54,262.79,51,269.71Z" /><path class="cls-2" d="M51.21,269.86s1.92-7.7,8.37-3.88C59.58,266,60.21,273.17,51.21,269.86Z" /><path class="cls-2" d="M51.63,268.25s1.15,5.49-3.11,6.38C48.52,274.63,46.23,270.68,51.63,268.25Z" /><path class="cls-2" d="M255.71,212.33s-5.8-4.24-2.13-8.72C253.58,203.61,259.26,205.41,255.71,212.33Z" /><path class="cls-2" d="M255.92,212.48s1.93-7.7,8.37-3.87C264.29,208.61,264.92,215.8,255.92,212.48Z" /><path class="cls-2" d="M256.34,210.87s1.16,5.49-3.1,6.38C253.24,217.25,251,213.31,256.34,210.87Z" /><path class="cls-2" d="M93.48,170.75s-5.81-4.24-2.14-8.72C91.34,162,97,163.83,93.48,170.75Z" /><path class="cls-2" d="M93.69,170.9s1.92-7.7,8.37-3.88C102.06,167,102.69,174.21,93.69,170.9Z" /><path class="cls-2" d="M94.11,169.29s1.15,5.49-3.11,6.37C91,175.66,88.72,171.72,94.11,169.29Z" /><path class="cls-2" d="M47.29,321s-5.81-4.24-2.14-8.72C45.15,312.27,50.83,314.08,47.29,321Z" /><path class="cls-2" d="M47.5,321.14s1.92-7.69,8.37-3.87C55.87,317.27,56.5,324.46,47.5,321.14Z" /><path class="cls-2" d="M47.91,319.53s1.16,5.49-3.1,6.38C44.81,325.91,42.52,322,47.91,319.53Z" /><path class="cls-2" d="M47.9,285.34s1.15,5.49-3.11,6.37C44.79,291.71,42.5,287.77,47.9,285.34Z" /><path class="cls-2" d="M50.6,176.11s-5.8-4.24-2.13-8.72C48.47,167.39,54.15,169.2,50.6,176.11Z" /><path class="cls-2" d="M43.27,253.4s-5.8-4.24-2.13-8.72C41.14,244.68,46.82,246.48,43.27,253.4Z" /><path class="cls-2" d="M50.82,176.26s1.92-7.69,8.36-3.87C59.18,172.39,59.82,179.58,50.82,176.26Z" /><path class="cls-2" d="M47.58,237.29s1.92-7.7,8.37-3.87C56,233.42,56.58,240.61,47.58,237.29Z" /><path class="cls-2" d="M51.23,174.65s1.16,5.49-3.1,6.38C48.13,181,45.84,177.09,51.23,174.65Z" /><path class="cls-2" d="M42.66,250.8s1.16,5.49-3.1,6.38C39.56,257.18,37.27,253.24,42.66,250.8Z" /><path class="cls-2" d="M202.56,169.06s7.12-1,7.59,4.79C210.15,173.85,204.81,176.5,202.56,169.06Z" /><path class="cls-2" d="M202.3,169.09s4,6.88-3.33,8.61C199,177.7,193.53,173,202.3,169.09Z" /><path class="cls-2" d="M203.12,170.54s-4.64-3.14-2.2-6.74C200.92,163.8,205.31,165.05,203.12,170.54Z" /><path class="cls-2" d="M165.3,169.76s-4.64-3.15-2.2-6.74C163.1,163,167.49,164.26,165.3,169.76Z" /><path class="cls-2" d="M248,250s3.62-6.22,8.45-3C256.47,246.93,255.27,252.77,248,250Z" /><path class="cls-2" d="M247.89,250.18s7.86,1.12,4.72,7.93C252.61,258.11,245.52,259.48,247.89,250.18Z" /><path class="cls-2" d="M249.54,250.43s-5.34,1.71-6.66-2.43C242.88,248,246.56,245.32,249.54,250.43Z" /><path class="cls-4" d="M256.21,176.33s4.85-3.75,7.28,1.08C263.49,177.41,260.54,181.88,256.21,176.33Z" /><path class="cls-4" d="M254.63,176.07s-4-6.2,1.18-9.14C255.81,166.93,260.6,170.75,254.63,176.07Z" /><path class="cls-4" d="M176.75,181.6s-4-6.2,1.18-9.14C177.93,172.46,182.72,176.27,176.75,181.6Z" /><path class="cls-4" d="M59.19,176.7s4.86-3.75,7.28,1.08C66.47,177.78,63.53,182.25,59.19,176.7Z" /><path class="cls-4" d="M102.1,172.34s-4-6.2,1.18-9.14C103.28,163.2,108.07,167,102.1,172.34Z" /><path class="cls-4" d="M249.67,295.55s6.12-.36,5.41,5C255.08,300.54,250.13,302.57,249.67,295.55Z" /><path class="cls-4" d="M258.87,269.36s6.12-.36,5.4,5C264.27,274.35,259.32,276.39,258.87,269.36Z" /><path class="cls-4" d="M248.51,294.45s.19-7.38,6.13-6.89C254.64,287.56,256.45,293.41,248.51,294.45Z" /><path class="cls-4" d="M258.79,280.6s.19-7.38,6.13-6.89C264.92,273.71,266.73,279.56,258.79,280.6Z" /><path class="cls-4" d="M253,344s6.12-.36,5.4,5C258.39,348.94,253.44,351,253,344Z" /><path class="cls-4" d="M251.83,342.85S252,335.47,258,336C258,336,259.76,341.81,251.83,342.85Z" /><path class="cls-4" d="M147.89,178.38s3.69-8.23,10.19-3.65C158.08,174.73,157.36,182.57,147.89,178.38Z" /><path class="cls-4" d="M145.66,179.15s-9.5-5.27-4.82-12.69C140.84,166.46,149.7,168.09,145.66,179.15Z" /><path class="cls-4" d="M46.32,202.92s-6.17-6.57.55-10.81C46.87,192.11,53.84,195.79,46.32,202.92Z" /><path class="cls-4" d="M46.17,205.28s-8.51,6.74-13.56-.44C32.61,204.84,37.52,197.28,46.17,205.28Z" /><path class="cls-4" d="M43.44,289.93s-5.58,0-4-4.79C39.41,285.14,44.23,283.52,43.44,289.93Z" /><path class="cls-4" d="M45.63,339.72s-5.58,0-4-4.79C41.6,334.93,46.42,333.31,45.63,339.72Z" /><path class="cls-4" d="M52.92,232.6s-5.58.05-4-4.79C48.89,227.81,53.71,226.19,52.92,232.6Z" /><path class="cls-4" d="M44.3,291s-1.42,6.71-6.7,6C37.6,297,37,291.56,44.3,291Z" /><path class="cls-4" d="M56.67,339.72s-5.58,0-4-4.79C52.64,334.93,57.46,333.31,56.67,339.72Z" /><path class="cls-4" d="M57.53,340.78s-1.42,6.7-6.7,6C50.83,346.76,50.2,341.36,57.53,340.78Z" /><polygon class="cls-3" points="69.67 342.45 69.67 342.45 69.67 342.45 69.67 342.45" /><polyline class="cls-5" points="248.8 349.3 254.75 177.54 45.25 173.09 51.7 349.3" /><polygon class="cls-6" points="64.97 371.34 237.35 371.83 241.25 184.18 59.6 184.18 64.97 371.34" /><path class="cls-7" d="M59.83,239.76l182.41-13.39V183s-185.4-2.5-185-1.21S59.83,239.76,59.83,239.76Z" /><polygon class="cls-8" points="202.66 198.82 201.39 214.66 153.37 216.57 152.74 198.5 202.66 198.82" /><line class="cls-8" x1="201.71" y1="206.74" x2="153.05" y2="207.37" /><line class="cls-8" x1="194.26" y1="198.97" x2="193.31" y2="215.14" /><line class="cls-8" x1="183.8" y1="198.97" x2="183.33" y2="215.46" /><line class="cls-8" x1="173.02" y1="198.66" x2="173.34" y2="215.62" /><line class="cls-8" x1="163.2" y1="198.66" x2="163.36" y2="215.77" /><polygon class="cls-9" points="106.73 242.69 106.62 245 104.97 244.83 104.29 242.67 106.73 242.69" /><polygon class="cls-9" points="73.52 243.28 74.03 245.84 75.44 245.84 76.33 243.29 73.52 243.28" /><polygon class="cls-10" points="108.53 200.74 107.75 242.73 72.66 243.71 71.08 200.94 108.53 200.74" /><line class="cls-11" x1="90.79" y1="228.93" x2="90.99" y2="243.12" /><line class="cls-12" x1="93.28" y1="233.64" x2="93.17" y2="237.13" /><line class="cls-12" x1="88.43" y1="233.74" x2="88.54" y2="237.23" /><polyline class="cls-8" points="108.17 227.88 104.72 223.16 75.22 223.67 72.28 228.78" /><polygon class="cls-8" points="71.9 216.9 74.71 211.67 104.21 211.16 107.78 216.01 71.9 216.9" /><line class="cls-11" x1="72.46" y1="228.93" x2="107.94" y2="228.14" /><path class="cls-13" d="M104,224.29l-1.28-3.68.82-2.13-6.25.13,1,2.22-.75,3.56a.58.58,0,0,0-.09.3c0,.71,1.51,1.28,3.38,1.28s3.39-.57,3.39-1.28A.62.62,0,0,0,104,224.29Z" /><ellipse class="cls-13" cx="100.43" cy="218.73" rx="3.19" ry="0.98" /><path class="cls-14" d="M98.08,221.71a3,3,0,0,0,2.08.6" /><path class="cls-14" d="M97.86,222.9s.22.47,1.66.56" /><path class="cls-14" d="M97.74,223.71s0,.9,2.25.9" /><path class="cls-13" d="M95.27,224.88v-5.81H89.65v5.81a.3.3,0,0,0-.09.2c0,.44,1.3.8,2.9.8s2.89-.36,2.89-.8A.34.34,0,0,0,95.27,224.88Z" /><ellipse class="cls-13" cx="92.5" cy="219.37" rx="3.07" ry="0.98" /><path class="cls-15" d="M95.22,221.5s-.68.55-2.76.34" /><path class="cls-15" d="M95.18,222.56s-.22.4-2.06.35" /><path class="cls-16" d="M95.22,223.54s-.46.77-2.72.51" /><rect class="cls-13" x="84.37" y="219.37" width="2" height="7.32" rx="1" /><rect class="cls-13" x="81.09" y="219.43" width="2" height="7.32" rx="1" /><rect class="cls-13" x="77.56" y="219.37" width="2" height="7.32" rx="1" /><ellipse class="cls-13" cx="85.37" cy="219.84" rx="1.26" ry="0.59" /><ellipse class="cls-13" cx="82.05" cy="219.91" rx="1.26" ry="0.6" /><ellipse class="cls-13" cx="78.52" cy="219.89" rx="1.26" ry="0.64" /><polyline class="cls-14" points="77.56 221.58 75.94 221.58 75.94 226.48" /><polyline class="cls-14" points="86.41 221.41 87.99 221.37 87.99 226.4" /><line class="cls-17" x1="87.26" y1="224.9" x2="88.58" y2="227.54" /><line class="cls-17" x1="76.66" y1="224.95" x2="75.22" y2="227.67" /><line class="cls-18" x1="84.37" y1="221.51" x2="83.13" y2="221.51" /><line class="cls-18" x1="81.06" y1="221.54" x2="79.4" y2="221.54" /><polygon class="cls-8" points="108.53 200.74 104.84 195.19 73.43 195.19 71.08 200.94 108.53 200.74" /><ellipse class="cls-13" cx="99.29" cy="211.03" rx="3.77" ry="2.55" /><path class="cls-13" d="M102.2,207.49l0,1.71s-2.17,2.21-5.89.21l0-1.92Z" /><ellipse class="cls-13" cx="99.26" cy="207.49" rx="2.94" ry="1.22" /><ellipse class="cls-13" cx="85.24" cy="211.35" rx="2.41" ry="1.63" /><path class="cls-13" d="M87.1,209.09l0,1.1s-1.39,1.41-3.76.13l0-1.23Z" /><ellipse class="cls-13" cx="85.22" cy="209.09" rx="1.88" ry="0.78" /><ellipse class="cls-13" cx="87.5" cy="213.1" rx="2.41" ry="1.63" /><path class="cls-13" d="M89.36,210.84l0,1.09s-1.39,1.41-3.76.13l0-1.22Z" /><ellipse class="cls-13" cx="87.48" cy="210.84" rx="1.88" ry="0.78" /><path class="cls-13" d="M94.44,213.26c-.75,1.22-3.26,1.05-3.64,0v-8.75h3.64Z" /><path class="cls-13" d="M94.83,204.55l0,1.67a4.37,4.37,0,0,1-4.26-.13l0-1.62Z" /><ellipse class="cls-13" cx="92.7" cy="204.55" rx="2.14" ry="0.73" /><path class="cls-13" d="M81.77,213.71c-1.49,1.57-5.66,1.49-7,0l-.59-9.07,7.79,0Z" /><path class="cls-13" d="M83.13,204.43c0,.32-.55.72-1.57,1.28a7.48,7.48,0,0,1-3.36.68c-2.24,0-4-.69-4-1.53s1.81-1.54,4-1.54a7.89,7.89,0,0,1,3.35.68C82.24,204.34,83.13,204.11,83.13,204.43Z" /><polygon class="cls-9" points="120.38 230.48 121.18 243.51 122.53 243.57 122.96 231.4 120.38 230.48" /><polygon class="cls-9" points="126.09 243.34 120.05 230.58 119.87 225.63 126.17 237.63 126.09 243.34" /><polygon class="cls-8" points="173.69 223.93 184.53 235.96 124.8 237.53 118.89 224.72 173.69 223.93" /><polygon class="cls-9" points="125.91 242.22 126.52 253.71 127.88 253.83 128.49 242.09 125.91 242.22" /><polygon class="cls-9" points="182.63 240.37 181.83 252.6 180.48 252.79 179.8 239.94 182.63 240.37" /><polygon class="cls-9" points="183.64 236.01 183.04 241.12 126 243.08 126 237.55 183.64 236.01" /><polyline class="cls-9" points="181 236.1 180.74 239.76 166.95 240.02 166.78 236.44" /><polyline class="cls-9" points="164.74 236.7 164.48 240.19 148.22 240.44 148.05 237.04" /><polyline class="cls-9" points="128.72 237.63 128.81 241.12 145.67 240.61 145.92 237.04" /><path class="cls-17" d="M176.62,237.5s.94.8.38.84c-.93.06-5.34.1-5.34.1l.48-.72" /><path class="cls-17" d="M159.3,237.92s.77.7.42.8-6.46.18-6.46.18-.11-.42.55-.81" /><path class="cls-17" d="M140.47,238.62s.66.66.35.8-6.54.11-6.54.11l.6-.81" /><ellipse class="cls-19" cx="144.37" cy="244.87" rx="6.07" ry="3.45" /><line class="cls-20" x1="147.28" y1="248.53" x2="148.82" y2="256.19" /><line class="cls-20" x1="147.88" y1="243.25" x2="149.41" y2="250.91" /><line class="cls-20" x1="141.67" y1="248.79" x2="140.47" y2="256.28" /><line class="cls-20" x1="140.13" y1="243.76" x2="138.94" y2="251.25" /><path class="cls-8" d="M150.33,244.72l-.92-.28a8.13,8.13,0,0,0-5-1.48c-2.58,0-4.77.91-5.65,2.2l-.47-.44s.18,2.44.25,2.52c.39,1.68,2.8,2.62,5.87,2.62,2.77,0,4.84-.85,5.57-2.29Z" /><ellipse class="cls-8" cx="144.37" cy="244.87" rx="6.07" ry="3.45" /><path class="cls-8" d="M148,247.42s3.61-10.13-.14-12.43c-3.27-2-11.49-1.53-6.9,12.52A8.52,8.52,0,0,0,148,247.42Z" /><ellipse class="cls-19" cx="168.38" cy="245.04" rx="6.07" ry="3.45" /><line class="cls-20" x1="171.29" y1="248.7" x2="172.83" y2="256.36" /><line class="cls-20" x1="171.89" y1="243.42" x2="173.42" y2="251.08" /><line class="cls-20" x1="165.67" y1="248.96" x2="164.48" y2="256.45" /><line class="cls-20" x1="164.14" y1="243.93" x2="162.95" y2="251.42" /><path class="cls-8" d="M174.34,244.89l-.92-.28a8.13,8.13,0,0,0-5-1.48c-2.58,0-4.77.91-5.65,2.2l-.47-.44s.18,2.44.24,2.52c.4,1.68,2.8,2.62,5.88,2.62,2.77,0,4.84-.85,5.56-2.29Z" /><ellipse class="cls-8" cx="168.38" cy="245.04" rx="6.07" ry="3.45" /><path class="cls-8" d="M172,247.59s3.61-10.13-.14-12.43c-3.28-2-11.49-1.53-6.9,12.52A8.51,8.51,0,0,0,172,247.59Z" /><polygon class="cls-9" points="189.93 229.26 190.73 242.29 192.08 242.35 192.51 230.18 189.93 229.26" /><polygon class="cls-9" points="195.63 242.12 189.6 229.36 189.42 224.41 195.72 236.41 195.63 242.12" /><polygon class="cls-8" points="238.38 222.71 249.22 234.73 194.35 236.31 188.44 223.5 238.38 222.71" /><polygon class="cls-9" points="195.46 241 196.07 252.49 197.42 252.61 198.04 240.87 195.46 241" /><polygon class="cls-9" points="246.57 235.16 245.97 240.27 195.55 241.86 195.55 236.33 246.57 235.16" /><polyline class="cls-9" points="234.29 235.47 234.03 238.97 217.77 239.22 217.6 235.81" /><polyline class="cls-9" points="198.27 236.41 198.36 239.9 215.22 239.39 215.47 235.81" /><path class="cls-17" d="M246.17,236.28s.94.8.38.84c-.94,0-5.34.1-5.34.1l.48-.72" /><path class="cls-17" d="M228.85,236.7s.76.69.41.8-6.46.17-6.46.17-.1-.42.56-.8" /><path class="cls-17" d="M210,237.39s.66.67.35.81-6.54.11-6.54.11l.6-.81" /><ellipse class="cls-19" cx="213.92" cy="243.65" rx="6.07" ry="3.45" /><line class="cls-20" x1="216.83" y1="247.31" x2="218.37" y2="254.97" /><line class="cls-20" x1="217.43" y1="242.03" x2="218.96" y2="249.69" /><line class="cls-20" x1="211.21" y1="247.56" x2="210.02" y2="255.06" /><line class="cls-20" x1="209.68" y1="242.54" x2="208.49" y2="250.03" /><path class="cls-8" d="M219.88,243.5l-.92-.28a8.13,8.13,0,0,0-5-1.48c-2.58,0-4.77.91-5.65,2.2l-.47-.44s.18,2.44.24,2.51c.4,1.69,2.8,2.62,5.88,2.62,2.77,0,4.84-.84,5.56-2.28Z" /><ellipse class="cls-8" cx="213.92" cy="243.65" rx="6.07" ry="3.45" /><path class="cls-8" d="M217.57,246.2s3.61-10.13-.14-12.43c-3.28-2-11.49-1.53-6.9,12.52A8.51,8.51,0,0,0,217.57,246.2Z" /><ellipse class="cls-19" cx="237.93" cy="243.82" rx="6.07" ry="3.45" /><line class="cls-20" x1="240.84" y1="247.48" x2="242.37" y2="255.14" /><line class="cls-20" x1="241.44" y1="242.2" x2="242.97" y2="249.86" /><line class="cls-20" x1="235.22" y1="247.73" x2="234.03" y2="255.23" /><line class="cls-20" x1="233.69" y1="242.71" x2="232.5" y2="250.2" /><path class="cls-8" d="M243.89,243.67l-.92-.28a8.13,8.13,0,0,0-5-1.48c-2.58,0-4.77.91-5.65,2.2l-.47-.44s.17,2.44.24,2.51c.4,1.69,2.8,2.63,5.88,2.63,2.77,0,4.84-.85,5.56-2.29Z" /><ellipse class="cls-8" cx="237.93" cy="243.82" rx="6.07" ry="3.45" /><path class="cls-8" d="M241.58,246.37s3.6-10.13-.14-12.43c-3.28-2-11.5-1.53-6.9,12.52A8.51,8.51,0,0,0,241.58,246.37Z" /><ellipse class="cls-19" cx="75.27" cy="253.07" rx="6.07" ry="3.45" /><line class="cls-20" x1="78.19" y1="256.73" x2="79.72" y2="264.39" /><line class="cls-20" x1="78.79" y1="251.45" x2="80.32" y2="259.12" /><line class="cls-21" x1="72.57" y1="256.99" x2="71.38" y2="264.48" /><line class="cls-21" x1="71.04" y1="251.96" x2="69.85" y2="259.46" /><path class="cls-8" d="M76.91,249.88s-.32-10.28,3.32-9.07c4.6,1.53,5.11,11.24-.89,14.82A33.27,33.27,0,0,1,76.91,249.88Z" /><path class="cls-8" d="M81.23,252.93l-.91-.28a8.07,8.07,0,0,0-5-1.49c-2.57,0-4.77.92-5.65,2.2l-.46-.43s.17,2.43.24,2.51c.4,1.68,2.8,2.62,5.87,2.62,2.78,0,4.85-.84,5.57-2.29Z" /><ellipse class="cls-8" cx="75.27" cy="253.07" rx="6.07" ry="3.45" /><ellipse class="cls-19" cx="81.64" cy="270.24" rx="6.07" ry="3.45" /><line class="cls-20" x1="84.56" y1="273.9" x2="86.09" y2="281.56" /><line class="cls-20" x1="85.15" y1="268.62" x2="86.69" y2="276.28" /><line class="cls-20" x1="78.94" y1="274.15" x2="77.75" y2="281.65" /><line class="cls-20" x1="77.41" y1="269.13" x2="76.22" y2="276.62" /><path class="cls-8" d="M83.28,267S83,256.76,86.6,258c4.6,1.53,5.11,11.24-.89,14.81A33.27,33.27,0,0,1,83.28,267Z" /><path class="cls-8" d="M87.6,270.09l-.92-.28a8.08,8.08,0,0,0-5-1.48c-2.57,0-4.77.91-5.65,2.2l-.46-.44s.17,2.44.24,2.51c.4,1.69,2.8,2.62,5.87,2.62,2.78,0,4.85-.84,5.57-2.28Z" /><ellipse class="cls-8" cx="81.64" cy="270.24" rx="6.07" ry="3.45" /><polygon class="cls-9" points="72.79 278.02 73.41 289.51 74.76 289.63 75.37 277.9 72.79 278.02" /><polygon class="cls-9" points="59 278.02 59.62 289.51 60.97 289.63 61.58 277.9 59 278.02" /><polygon class="cls-9" points="76.63 275.22 76.46 279.82 57.39 281.01 56.54 276.42 76.63 275.22" /><polygon class="cls-8" points="56.94 246.38 71.55 245.89 77.99 275.35 55.52 276.93 56.94 246.38" /><polygon class="cls-22" points="137.21 225.1 140 229.08 132.27 229.4 130.03 225.39 137.21 225.1" /><polygon class="cls-22" points="139.56 223.09 141.16 225.51 134.65 225.87 133.3 223.43 139.56 223.09" /><polygon class="cls-22" points="135.06 227.99 135.06 223.43 131.5 223.5 131.5 228.05 135.06 227.99" /><polygon class="cls-22" points="130.63 222.15 130.63 226.16 131.5 228.05 131.5 223.43 130.63 222.15" /><ellipse class="cls-22" cx="134.02" cy="225.76" rx="1.33" ry="1.2" /><polygon class="cls-22" points="130.63 222.15 133.59 222.15 135.06 223.43 131.5 223.43 130.63 222.15" /><polygon class="cls-22" points="140 229.08 140.39 229.98 131.79 230.4 132.27 229.4 140 229.08" /><polygon class="cls-22" points="130.09 225.39 129.54 226.13 131.79 230.36 132.27 229.4 130.09 225.39" /><path class="cls-22" d="M138.62,220.52l.47,1.63a1.45,1.45,0,0,1-1.31.08l.06-1.74Z" /><path class="cls-22" d="M139.59,220.18l.83,1c.09.16-.34.78-.86.64l-.61-1.36Z" /><path class="cls-22" d="M137.06,220.38l-.83,1c-.09.16.34.77.86.63l.61-1.35Z" /><path class="cls-22" d="M136.21,220.57a2,2,0,0,1,1.82-2c.81-.17,1.78.72,2,1.6a1.86,1.86,0,0,1-1.61.94C137.85,221.17,136.51,221.07,136.21,220.57Z" /><path class="cls-22" d="M139.11,219.22l-.9-6.07-2.34.28s.82,6,.83,6c0,.3.59.49,1.26.43S139.14,219.52,139.11,219.22Z" /><ellipse class="cls-22" cx="137.01" cy="213.27" rx="1.21" ry="0.55" transform="matrix(1, -0.1, 0.1, 1, -19.72, 14.04)" /><path class="cls-22" d="M132.78,223.34a20.17,20.17,0,0,1,.25-3.7c.14-.95,1.83-2,3.77-1.73-.59-.38-.48-.6-.46-.73s-4.42-.5-4.42,2.56l0,2.31Z" /><path class="cls-22" d="M136.73,218.6s-2.63-.46-3.06,1.29c0,.17-.06,1.11-.06,1.11l0,2.43-.81,0v-3.15s-.34-2.72,3.94-2.41Z" /><path class="cls-23" d="M207.51,226.15V228c0,.27.58.5,1.3.5s1.3-.23,1.3-.5V226Z" /><path class="cls-23" d="M209.63,225.65a1.48,1.48,0,0,1-.17-.34h-1.32a.94.94,0,0,1-.08.32c-.33.09-.55.23-.55.4s.58.5,1.3.5,1.3-.23,1.3-.5S209.92,225.74,209.63,225.65Z" /><ellipse class="cls-23" cx="208.81" cy="225.11" rx="1.02" ry="0.39" /><path class="cls-23" d="M204.93,227.82v1.27c0,.19.41.35.92.35s.91-.16.91-.35v-1.36Z" /><path class="cls-23" d="M206.43,227.46a1,1,0,0,1-.13-.23h-.92a.64.64,0,0,1-.06.22c-.23.06-.39.16-.39.28s.41.35.92.35.91-.16.91-.35S206.63,227.53,206.43,227.46Z" /><ellipse class="cls-23" cx="205.85" cy="227.09" rx="0.72" ry="0.27" /><path class="cls-23" d="M201.16,226v2.06c0,.32.66.57,1.48.57s1.48-.25,1.48-.57v-2.2Z" /><path class="cls-23" d="M203.58,225.43a1.6,1.6,0,0,1-.2-.39h-1.5a1,1,0,0,1-.09.37c-.37.1-.63.26-.63.45s.66.57,1.48.57,1.48-.26,1.48-.57S203.9,225.54,203.58,225.43Z" /><ellipse class="cls-23" cx="202.64" cy="224.82" rx="1.16" ry="0.45" /><polygon class="cls-24" points="216.42 228.69 216.04 230.57 231.59 230.24 231.21 228.44 216.42 228.69" /><polygon class="cls-24" points="214.44 225.38 213.88 226.8 216.15 230.52 216.42 228.69 214.44 225.38" /><polygon class="cls-24" points="214.44 225.38 216.42 228.69 231.21 228.44 228.56 225.2 214.44 225.38" /><ellipse class="cls-25" cx="217.56" cy="226.92" rx="1.25" ry="0.48" /><ellipse class="cls-26" cx="227.85" cy="226.81" rx="1.26" ry="0.47" /><line class="cls-27" x1="227.85" y1="224.77" x2="227.85" y2="226.74" /><line class="cls-27" x1="217.56" y1="224.43" x2="217.56" y2="226.9" /><ellipse class="cls-28" cx="217.56" cy="223.42" rx="2.72" ry="0.98" /><ellipse class="cls-24" cx="217.38" cy="222.41" rx="3.64" ry="1.31" /><ellipse class="cls-28" cx="227.85" cy="224.62" rx="2.72" ry="0.98" /><ellipse class="cls-6" cx="227.85" cy="223.61" rx="3.64" ry="1.31" /><path class="cls-23" d="M228.92,225v-1.25l-2,.1v1.12" /><path class="cls-23" d="M228.54,223.43a1.67,1.67,0,0,1-.14-.27h-1a.61.61,0,0,1-.06.25c-.25.07-.43.18-.43.31s.45.39,1,.39,1-.17,1-.39S228.77,223.5,228.54,223.43Z" /><ellipse class="cls-23" cx="227.9" cy="223" rx="0.8" ry="0.31" /><path class="cls-29" d="M227.85,225.11c-1.86,0-3.83-.53-3.83-1.5s2-1.51,3.83-1.51,3.83.53,3.83,1.51S229.71,225.11,227.85,225.11Zm0-2.63c-2,0-3.46.59-3.46,1.13s1.42,1.12,3.46,1.12,3.45-.59,3.45-1.12S229.88,222.48,227.85,222.48Z" /><path class="cls-13" d="M171.76,226l-1.27-3.69.82-2.13-6.26.14,1,2.22-.75,3.56a.52.52,0,0,0-.09.29c0,.71,1.51,1.28,3.38,1.28s3.38-.57,3.38-1.28A.59.59,0,0,0,171.76,226Z" /><ellipse class="cls-13" cx="168.16" cy="220.39" rx="3.19" ry="0.98" /><path class="cls-14" d="M165.8,223.37a3,3,0,0,0,2.09.6" /><path class="cls-14" d="M165.59,224.57s.21.47,1.66.55" /><path class="cls-14" d="M165.46,225.38s0,.89,2.26.89" /><path class="cls-13" d="M163.77,228.87v-5.81h-5.62v5.81a.34.34,0,0,0-.08.2c0,.44,1.29.8,2.89.8s2.9-.36,2.9-.8A.36.36,0,0,0,163.77,228.87Z" /><ellipse class="cls-13" cx="161" cy="223.36" rx="3.07" ry="0.98" /><path class="cls-15" d="M163.73,225.49s-.68.55-2.77.34" /><path class="cls-15" d="M163.68,226.55s-.22.4-2.05.35" /><path class="cls-16" d="M163.73,227.53s-.47.77-2.73.51" /><path class="cls-13" d="M170.51,232.23c1.49,1.58,5.67,1.49,7,.05l.6-9.07-7.79,0Z" /><path class="cls-13" d="M169.15,223c0,.32.55.73,1.58,1.28a7.44,7.44,0,0,0,3.36.68c2.23,0,4-.68,4-1.53s-1.81-1.53-4-1.53a7.87,7.87,0,0,0-3.35.67C170.05,222.87,169.15,222.64,169.15,223Z" /></g><g id="Grade_3" data-name="Grade 3"><polygon class="cls-30" points="130.19 374.43 55.06 377.05 48.64 176.96 252.75 179.61 244.14 374.37 172.82 373.98 171.54 367.32 234.34 367.11 238.17 189.72 62.03 189.92 67.49 368.3 131.56 367.73 130.19 374.43" /><polygon class="cls-30" points="170.5 364.75 200.99 351 202.63 354.4 171.52 367.36 170.5 364.75" /><ellipse class="cls-30" cx="193.55" cy="350.86" rx="2.84" ry="1.78" transform="translate(-139.17 127.56) rotate(-27.25)" /><ellipse class="cls-30" cx="196.91" cy="359.06" rx="2.84" ry="1.78" transform="translate(-142.55 130.01) rotate(-27.25)" /></g></svg>