<?xml version="1.0" encoding="utf-8"?>
<!-- Generator: Adobe Illustrator 21.1.0, SVG Export Plug-In . SVG Version: 6.00 Build 0)  -->
<svg version="1.1" xmlns="http://www.w3.org/2000/svg" xmlns:xlink="http://www.w3.org/1999/xlink" x="0px" y="0px"
	 viewBox="0 0 225.4 293" enable-background="new 0 0 225.4 293" xml:space="preserve" width="225.4" height="293" preserveAspectRatio="none">
<g id="_x35_th_Grade">
	<g id="_x33__Stars_2_">
	</g>
	<g id="_x32__Stars_2_">
	</g>
	<g id="_x31__Star_2_">
	</g>
	<g id="_x30__Stars_2_">
	</g>
</g>
<g id="_x34_th_Grade">
	<g id="_x33__Stars_1_">
	</g>
	<g id="_x32__Stars_1_">
	</g>
	<g id="_x31__Star_1_">
		<g>
			<defs>
				<rect id="SVGID_13_" x="-49.7" y="-49.8" width="275.1" height="342.8"/>
			</defs>
			<clipPath id="SVGID_2_">
				<use xlink:href="#SVGID_13_"  overflow="visible"/>
			</clipPath>
			<g clip-path="url(#SVGID_2_)">
				<path fill="#B8A6CC" d="M28.6,211.6c-3.2-4.6,34.1-7.8,34.1-7.8s-20.9-5.6-20.1-10.6c0.8-5,17.8-3.6,27.6,8.3
					c-0.5-6-1.1-15,1.5-15c5.1,0,7.9,15.6,3.1,22.4c5.8,4.3,17.1,10.8,26.9,7.8c14.6-4.4,20.2-8.5,20.2-8.5l3.7,5.3
					c0,0-3.6,6-20.4,12.3c-22.3,8.4-39.4-12.9-39.4-12.9s-17.8,15.4-22.1,13.3c-4.4-2.1,19.3-16.8,19.3-16.8S33.7,218.8,28.6,211.6"
					/>
				<path fill="#B869A2" d="M122.5,148.7l10-4.8c-0.5-0.8,0.9-1.4,1.8-1.3c0.4,0.1,0.9,0.1,1.3,0.2l-0.1-1l43.2-93.9
					c0,0,45.9,21.9,63.5,108.8c7.1,35.2-48,85.1-36.8,106.9c5.1,9.9,17.3,11.5,29,10.3c3.7-0.9,7.6-2.4,9.6-4.8
					c2.1-2.5,2.9-5.1,2.8-7.5c-0.5-1.7-1.3-3.5-2.8-5.4c-7-9.2-17,0.2-17,0.2s5-17.5,22.6-12.6c15,4.2,13.1,20.9,12.2,25.8
					c-1.1,7.4-6.3,28.6-31.6,38.4c-13.4,5.2-25,5.2-34.8,2.5c12.9,7.1,27.9,8.5,27.9,8.5s-19.8,4.9-42.4-5.7
					c-22.6-10.6-24.7-34.6-24.7-34.6l0.6-0.5c-1.2-2.1-1.9-3.4-1.9-3.4l-9.7-65.8c-0.3-0.1-0.5-0.3-0.8-0.4
					c-4.7-2.7-11.3-1.5-13.9-6.2C122.6,187.7,117,164.7,122.5,148.7z"/>
				<g>
					<g>
						<path fill="#7D0052" d="M201.3,219.1c3.3-4.1,6.3-8.4,9.1-12.8c2.8-4.4,5.5-8.9,7.8-13.7c6.4-13,8-26.2,6.3-40.6
							c-1.1-9.1-3-15.8-6.5-24.9c-3.7-9.5-8.3-18.2-13.1-25.7l-7.3-7.5l-6.3,13.4c5.2,5.3,12.5,15.8,15.7,22.6
							c3.2,6.8,5.3,12.4,5,19.9c-0.6,16.4-7.2,32.5-18.2,44.7c13.3-13.6,23.3-32.1,20.6-51.2c-2-14.6-9.7-25-19.3-35.1l2.2-3.9
							c4.4,2.6,8.2,5.9,10.8,10.4c6,10.2,11.5,21.8,13,32.6c1.6,12,2.1,16.4,0.5,28.4c-0.7,5.1-2.6,11.7-4.8,16.4
							C212.6,201.4,207.3,210.5,201.3,219.1z"/>
					</g>
				</g>
				<g>
					<path fill="#7D0052" d="M178.4,186.8c2.1-2.3,3.9-4.9,5.4-7.6c1.5-2.7,2.9-5.6,3.9-8.6c2-6,2.8-12.4,1.9-18.8
						c-1-6.4-3.9-12.3-7.7-17.4c-3.8-5.1-8.4-9.6-13.6-13.3l-2.5-1.8l0.4,3.1c0.6,4.5,1.2,9.1,1.6,13.7c0.4,4.6,0.8,9.1,0.9,13.7
						c0,2.3,0.1,4.6-0.1,6.8c-0.1,1.1-0.2,2.2-0.4,3.3c-0.2,1.1-0.5,2.2-0.8,3.3c-1.2,4.4-3.1,8.6-6,12.2c3.3-3.3,5.5-7.5,7.2-11.9
						c0.4-1.1,0.8-2.2,1.1-3.3c0.3-1.2,0.5-2.3,0.7-3.5c0.3-2.3,0.4-4.7,0.5-7c0.1-4.7-0.1-9.3-0.5-13.9c-0.3-4.6-0.8-9.2-1.4-13.8
						l-2.1,1.3c2.4,1.7,4.8,3.7,6.9,5.8c2.2,2.1,4.2,4.4,6,6.8c3.6,4.8,6.5,10.3,7.5,16.2c1,5.9,0.6,12.1-1,18
						C184.7,176.1,182,181.7,178.4,186.8z"/>
				</g>
				<g>
					<g>
						<path fill="#7D0052" d="M252.1,282.6c-6.8,1.5-13.7,2.4-20.7,2.7c-3.5,0.2-6.9,0.1-10.3-0.2c-3.4-0.3-6.8-0.8-10.1-1.8
							c-6.5-1.9-11.9-6.3-16.7-11.1c-4.8-4.9-9.1-10.4-12.8-16.1l-1.2-1.9l-1.1,1.8c-1,1.5-1.5,3-2.1,4.6c-0.5,1.6-0.8,3.2-1,4.8
							c-0.3,3.2,0,6.6,1,9.6c2,6.2,6.1,11.4,10.9,15.4c4.8,4.1,10.8,6.8,16.9,8.1c3.1,0.6,6.2,0.9,9.3,0.9c3.1,0,6.2-0.3,9.2-1
							c-6.1,0.8-12.3,0.4-18.2-1.2c-5.9-1.5-11.3-4.4-15.8-8.4c-4.4-4-8.1-9-9.8-14.6c-0.8-2.8-1.1-5.7-0.8-8.6
							c0.2-1.4,0.5-2.9,0.9-4.2c0.4-1.3,1.1-2.8,1.7-3.8l-2.3-0.1c3.8,6,8.2,11.5,13.2,16.6c2.5,2.5,5.2,4.8,8.2,6.8
							c1.5,1,3,1.9,4.7,2.7c1.6,0.8,3.4,1.4,5.1,1.9c7,1.8,14.1,1.9,21.1,1.3c3.5-0.3,7-0.9,10.4-1.6
							C245.4,284.5,248.8,283.6,252.1,282.6z"/>
					</g>
				</g>
				<path fill="#7D0052" d="M157.7,262.6l7.5-13.4c0,0,10.6,5.2,24.2,9c22.5,6.2,29.2-6.4,29.2-6.4s3.8,12.6-4,24.9
					c-4.6,7.4-13.3,11.2-13.3,11.2s10.7,2.5,7.3,5.2c-3.2,2.5-11.5,5-19.2,3.6c-2.8-0.5-5.7-0.7-7.9-2.7c0,0,6.3,5.2,1.5,5.5
					c-9.3,0.5-24.7-12.9-27.6-22C152.5,268.3,157.7,262.6,157.7,262.6z"/>
				<path fill="#7D0052" d="M144.1,249c0,0,20.2-10.6,29.5,9.3c14.2,30.3-8.8,50.3-11.5,49.8c-2.7-0.5-4.9-15.3-4.9-15.3
					s-4.4,19.1-8.8,19.7c-4.4,0.5-9.8-15.9-9.8-15.9s-2.2,10.4-5.5,10.9c-3.3,0.5-4.4-8.2-4.4-8.2s-4.4,10.9-9.3,9.8
					c-4.9-1.1-3.3-17-3.3-17s-9,18-12.6,18c-3.6,0-13-29.4-7.5-42.1c5.7-13,17.7-13.2,17.7-13.2L144.1,249z"/>
				<g>
					<path fill="#B869A2" d="M131.7,251.8C131.7,251.8,131.8,251.8,131.7,251.8C131.8,251.9,131.8,251.9,131.7,251.8
						C131.8,251.9,131.7,251.8,131.7,251.8z"/>
					<path fill="#B869A2" d="M132.1,251.4l2.5-0.5c0.1,0.2,0.3,0.5,0.4,0.7c1.3,2.8,1.6,6.1,1.8,9.2c0.1,1.9,0.2,3.9,0.2,5.8
						c0,2-0.2,3.9-0.4,5.8c-0.5,3.9-1.5,7.6-2.8,11.3c-1.3,3.6-2.9,7.1-4.9,10.4c1.8-3.4,3.2-7,4.2-10.6c1.1-3.7,1.8-7.4,2-11.2
						c0.3-3.8,0-7.5-0.5-11.3c-0.2-1.9-0.6-3.7-1.1-5.5c-0.2-0.9-0.5-1.7-0.9-2.5c-0.2-0.4-0.4-0.7-0.6-1c-0.1-0.1-0.2-0.2-0.3-0.3
						c0,0,0,0,0,0c0.1,0,0,0,0.3,0L132.1,251.4z"/>
				</g>
				<path fill="#B869A2" d="M102.6,289.8c-0.1-3.8,0.3-7.7,1-11.5c0.7-3.8,1.8-7.5,3.3-11.1c0.7-1.8,1.6-3.5,2.6-5.3
					c1-1.7,2-3.3,3.1-4.9c0.5-0.7,1-1.4,1.5-2.1l3.6-0.7c-1.3,1.3-2.5,2.9-3.4,4.1c-2.3,3-4.5,6.1-6.1,9.5c-1.7,3.4-2.9,7-3.9,10.7
					C103.4,282.2,102.8,286,102.6,289.8z"/>
				<g>
					<path fill="#B869A2" d="M143.1,249.2C143.1,249.2,143.1,249.2,143.1,249.2C143.2,249.2,143.2,249.2,143.1,249.2
						C143.2,249.2,143.2,249.2,143.1,249.2C143.1,249.2,143.1,249.2,143.1,249.2z"/>
					<path fill="#B869A2" d="M144.1,249c0,0,0.7-0.4,1.9-0.8c0.2,0.3,0.5,0.7,0.6,1c1.3,2.6,1.9,5.6,2.4,8.4
						c0.3,1.9,0.6,3.8,0.8,5.8c0.2,2,0.2,3.9,0.2,5.8c-0.1,3.9-0.7,7.7-1.7,11.5c-0.9,3.7-2.2,7.4-3.9,10.8c1.5-3.5,2.5-7.3,3.2-11
						c0.7-3.7,1-7.6,0.9-11.3c-0.1-3.8-0.7-7.5-1.6-11.2c-0.4-1.8-0.9-3.7-1.6-5.4c-0.3-0.8-0.7-1.7-1.1-2.4
						c-0.2-0.3-0.5-0.7-0.7-0.9c-0.1-0.1-0.2-0.2-0.3-0.2c0,0,0,0,0.3,0l0-0.1L144.1,249z"/>
				</g>
				<g>
					<path fill="#B8A6CC" d="M10.7,81.8c0.4-3.8,30-11.9,51.7,2.7c21.7,14.7,30.5,45.3,30.5,45.3s-15.1-3.2-40.6-13
						C34.8,110.1,10.3,85.7,10.7,81.8"/>
					<path fill="#F7B5D2" d="M55.4,91c-16.8-8.1-39.4-7.5-39.4-7.2c-0.4,3.6,22.9,24.8,39.1,31.1c14.7,5.6,25.6,8.9,31.8,10.6
						C83.8,116.4,75.7,100.7,55.4,91"/>
				</g>
				<path fill="#B8A6CC" d="M70.1,104.1c1.2-24.9,16.2-49.6,40.5-57.9c27.1-9.2,58.7,4.2,69.2,31.1c2.3,5.9,3.5,12.2,3.5,18.5
					c0,11.5-3.9,22.2-10.5,30.9c-6.9,9.9-16.3,17-26.4,21.9c2.6,12.4,7.3,32.4,7.3,32.4L141,196.2l-4.4-4.3
					c1.5-15,1.2-24.5-0.9-38.9c-19.2,6.4-38.3,6-44.6,2.8C70.3,145.5,68.9,128.8,70.1,104.1z"/>
				<path fill="#B8A6CC" d="M166.4,199.5c0,0,26.2,1,31.7,16.7c3.3,9.5-17.1,31.6-17.1,31.6s18.1-3.5,18,2.6
					c0,6.1-16.2,1.9-16.2,1.9s18.3,13,14,16.8c-4.4,3.7-18.9-14.3-18.9-14.3s7.5,12.5,2.4,14.2c-5,1.8-14-16.9-9.8-23.4
					c4.1-6.5,14-13.6,18.2-19.8c9.3-13.5-19.8-24.2-19.8-24.2L166.4,199.5z"/>
				<path fill="#B869A2" d="M72.3,32.8c10.4-48.8,44-26.3,50.4-16.9c3.7,5.4,18.2,27,28.4,22.7c12.1-5.1,5.5-17.9,5.5-17.9
					s28.4,0.1,25.2,19.9c-0.5,2.9-1.6,5.3-3.1,7.4c14.5,9.2,16.3,24.2,16.5,26.7c1.3,16.1-13.5,42.6-17.4,43.6
					c-0.1,0-0.2,0.1-0.4,0.1c-1.2-1.5-1.7-1.3-2.9-3.3c0.5,2.3,1.3,10.9-9.8,13.4c0,0-3.7,1.1-7-1.2c-3.8-2.6-3.1-8.9-3.1-8.9
					c0-12.1,8-2.4,8-2.4c-6-1.7-3,3.2-3,3.2c1,0.9,2.1,1.4,3.9,1.3c0.3,0,0.6-0.1,0.8-0.3c1.5-1.2,6.8-6.2,2.8-18.2
					c-4.2-8.5-4.4-16.6-3.2-23.3l0,0c0,0-0.5-25.2-39.2-13.1l0,0c-8.9,4.2-17.4,8.7-17.4,8.7s-20.4-7-25.8-5.4
					c-1.2,2.2-2.4,4-3.6,6.1C76.8,72.1,68.2,52.2,72.3,32.8z"/>
				<path fill="#7D0052" d="M136.4,42.9c0,0-2.4,0.6-5.7,2.3c-9.1,4.6-17.6,13.6-18.7,24.1c-0.1,1.1-0.1,1.7-0.1,1.7
					s0.1-0.6,0.5-1.6c3.6-9.9,10.5-17.1,18.9-23.2C134.4,44.2,136.4,42.9,136.4,42.9"/>
				<path fill="#7D0052" d="M124.9,32c0,0-0.7,0.2-1.8,0.7c-1.1,0.5-2.7,1.4-4.4,2.8c-0.8,0.7-1.7,1.5-2.5,2.4
					c-7.9,8.6-11,21.5-8.5,32.9c0,0,0-2.8,0.5-7c0.9-8.8,3.6-17.9,9.2-24.9c0.7-0.9,1.5-1.8,2.2-2.5c1.4-1.5,2.8-2.6,3.8-3.3
					C124.3,32.3,124.9,32,124.9,32"/>
				<path fill="#7D0052" d="M108,8.9c0,0-1.1,0.3-2.8,1.1c-1.7,0.8-4.2,2-6.9,4c-2.7,2-5.6,4.6-8,8.1c-2.4,3.4-4.3,7.6-5.2,12
					c-2.5,10.5-0.8,21.7,2.2,31.9c0.5,1.8,1,2.8,1,2.8s-0.2-1.1-0.5-2.9c-1.7-10-2.7-21.3-0.6-31.3c0.9-4.1,2.5-8.1,4.6-11.4
					c2.1-3.4,4.7-6.1,7.2-8.2c2.4-2.1,4.7-3.6,6.4-4.5C107,9.4,108,8.9,108,8.9"/>
				<path fill="#7D0052" d="M192.4,63.9c-8.2-3.4-18.5,1.9-22.2,9.4c-2.3,4.6-3.5,9.8-4.1,14.9l-0.4,3.5l2.2-2.8
					c4.6-5.7,10.8-9.8,17.8-11.7c1.2-0.3,2.4-0.5,3.6-0.6c0.6,0,1.2,0,1.8,0c0.6,0.1,1.2,0.2,1.8,0.5c-0.5-0.4-1.1-0.6-1.7-0.7
					c-0.6-0.2-1.2-0.2-1.9-0.3c-7.7-0.5-15,3.5-20.4,8.7c-0.9,0.9-1.8,1.8-2.6,2.8l1.8,0.8c0.2-1.6,0.5-3.3,0.9-4.9
					c0.3-1.6,0.7-3.2,1.2-4.8c1.7-5.2,3.8-9.8,8.8-12.3c2.5-1.3,5.5-2.4,8.3-2.7c0.8-0.1,1.7-0.1,2.5-0.1
					C190.7,63.6,191.5,63.6,192.4,63.9"/>
				<path fill="#49C8F5" d="M153.7,36.1c0,0,10.6,1.5,20.5,17.7c9.9,16.3,7.1,52,7.1,52l-3.9,3.4c0,0,0-33.2-10.6-48.8
					c-10.6-15.5-23.4-22.6-23.4-22.6L153.7,36.1z"/>
				<g>
					<path fill="#B8A6CC" d="M253.7,73c-0.7-4.1-26.7-10.1-53.6,6.8c-22.9,14.4-29.4,46.3-29.4,46.3s15.7-3.7,41.8-14.7
						C230.5,103.9,254.4,77.1,253.7,73"/>
					<path fill="#F7B5D2" d="M207.2,87.7c15.9-8.8,33.3-12.3,42.1-13.2c0.4,0.2-14.9,22.2-36.5,33c-15.9,7.9-27.1,11.1-33.3,13.2
						C180.7,112.8,188,98.3,207.2,87.7"/>
				</g>
				<g>
					<path fill="#49C8F5" d="M119.4,225.4c0,0,9.5-4.2,16.3-12.9c6.7-8.7,6.5-10.8,6.5-10.8l-6.1-6l-24,6.7L119.4,225.4z"/>
					<path fill="#49C8F5" d="M154.9,185.6l14.8,67.3c0,0-20.6,11.1-42.9,6.9c-14.5-2.8-13-4.4-13-4.4s18.5-23.6,22.8-63.1
						c0,0,2.1,7.1,5.1,6.2C146.3,197.2,152.8,187.5,154.9,185.6"/>
					<path fill="#F7B5D2" d="M169.7,252.9c0,0-8.3,4.5-20.1,6.7l-1.9-62.9l11.9,10.2L169.7,252.9z"/>
					<path fill="#F7B5D2" d="M135.8,234.4c-2,9.9-8,18.4-11.9,24.8c-11.3-2.4-10-3.8-10-3.8s15.5-19.3,21.8-55.8l0.6-2.8
						c0.8,1.1,1.2,2.6,2.2,2.3C138.5,199,139.7,214.9,135.8,234.4z"/>
					<polygon fill="#F7B5D2" points="119.1,200.3 136.1,195.6 136.6,202.6 121.6,210.3 					"/>
					<path fill="#49C8F5" d="M186.5,198.5c0,0-8.8-5.5-19.9-6.1c-11-0.6-12.6,0.8-12.6,0.8l-1.4,7.7l19,16.7L186.5,198.5z"/>
					<path fill="#F7B5D2" d="M180.1,195.4l-6.8,10.6l-19.4-12.3l0.1-0.6c0,0,1.6-1.4,12.6-0.8C171.9,192.6,176.6,194,180.1,195.4z"
						/>
					<g>
						<path fill="#49C8F5" d="M136.6,192l4.4,4.3l12.9-15.2l1.7,7.5L140,203.4l-4.3-6C135.7,197.4,136.5,192.3,136.6,192z"/>
					</g>
				</g>
				<path fill="#61439A" d="M123.2,134c-0.3,1.1,0.4,2.3,1.5,2.6c1.1,0.3,2.3-0.4,2.6-1.5c0.3-1.1-0.4-2.3-1.5-2.6
					C124.6,132.2,123.5,132.9,123.2,134"/>
				<g>
					<path fill="#61439A" d="M124.8,134.5c0,0-3.5,1.5-8.2,2.4c-8.4,1.6-18.1-2.5-18.1-2.5s6.6,7,17.3,5.3
						C124,138.5,124.8,134.5,124.8,134.5z"/>
					<path fill="#61439A" d="M80,133c0.2,0.6-0.2,1.3-0.8,1.5c-0.6,0.2-1.3-0.2-1.5-0.8c-0.2-0.6,0.2-1.3,0.8-1.5
						C79.1,132,79.8,132.3,80,133"/>
					<path fill="#61439A" d="M88.9,135.4c0.2,0.6-0.2,1.3-0.8,1.5c-0.6,0.2-1.3-0.2-1.5-0.8c-0.2-0.6,0.2-1.3,0.8-1.5
						C88,134.4,88.7,134.8,88.9,135.4"/>
					<path fill="#61439A" d="M83.2,140.2c0.2,0.6-0.2,1.3-0.8,1.5c-0.6,0.2-1.3-0.2-1.5-0.8c-0.2-0.6,0.2-1.3,0.8-1.5
						C82.4,139.2,83,139.6,83.2,140.2"/>
					<path fill="#61439A" d="M143.2,127.5c0,0.7,0.5,1.2,1.2,1.2c0.7,0,1.2-0.5,1.2-1.2c0-0.7-0.5-1.2-1.2-1.2
						C143.8,126.4,143.2,126.9,143.2,127.5"/>
					<path fill="#61439A" d="M135.4,132.3c0,0.7,0.5,1.2,1.2,1.2c0.7,0,1.2-0.5,1.2-1.2c0-0.7-0.5-1.2-1.2-1.2
						C136,131.1,135.4,131.6,135.4,132.3"/>
					<path fill="#61439A" d="M142.1,135.3c0,0.7,0.5,1.2,1.2,1.2c0.7,0,1.2-0.5,1.2-1.2c0-0.7-0.5-1.2-1.2-1.2
						C142.6,134.1,142.1,134.6,142.1,135.3"/>
					<g>
						<path fill="#410025" d="M159.9,88.6c0,0-0.6,1-1.7,2.4c-3.3,3.9-8.1,6.2-13.2,6.5c0.1,0.9,0.2,1.9,0.2,2.8
							c0,0.1,4.2-1.3,4.5-1.4c3.6-1.6,6.7-4.2,8.8-7.6C159.5,89.7,159.9,88.6,159.9,88.6"/>
						<path fill="#410025" d="M156.7,78.8c0,0-0.2,1.3-1,3c-0.7,1.7-2,3.9-3.7,5.7c-0.8,0.9-1.7,1.7-2.6,2.5
							c-0.9,0.7-1.7,1.4-2.5,1.9c-0.8,0.5-1.4,0.9-1.8,1.2c-0.5,0.3-0.7,0.4-0.7,0.4l1.4,2.4c0,0,0.3-0.2,0.8-0.6
							c0.5-0.4,1.1-0.9,1.8-1.5s1.5-1.5,2.3-2.4c0.8-0.9,1.6-2,2.3-3c1.5-2.2,2.5-4.5,3-6.4C156.6,80.1,156.7,78.8,156.7,78.8"/>
						<path fill="#410025" d="M150.8,73c0,0,0.1,1.3-0.2,3.1c-0.8,4.5-3.2,8.5-6.2,11.9c-0.6,0.7-1.1,1.2-1.5,1.6
							c-0.4,0.4-0.6,0.6-0.6,0.6l2.1,1.9c0,0,0.2-0.3,0.6-0.7c0.3-0.5,0.8-1.1,1.4-2c2.5-3.9,4.6-8.5,4.7-13.3
							C151.1,74.3,150.8,73,150.8,73"/>
						<path fill="#FFFFFF" d="M112.3,113.5c0,0,8.3,13.8,23.7,10.8c13.9-2.7,16.1-26.9,16.1-26.9s-16-16.2-24.7-14.2
							C108.9,87.5,112.3,113.5,112.3,113.5"/>
						<path fill="#0092A1" d="M122.6,104.9c-0.9,7.8,3.7,14.7,10.2,15.4c6.5,0.7,12.5-5,13.4-12.8c0.9-7.8-3.7-14.7-10.2-15.4
							C129.4,91.3,123.4,97.1,122.6,104.9"/>
						<path fill="#410025" d="M127.2,105.4c-0.5,4.7,2.2,8.9,6.2,9.4c3.9,0.5,7.6-3,8.1-7.7c0.5-4.7-2.2-8.9-6.2-9.4
							C131.4,97.2,127.7,100.7,127.2,105.4"/>
						<path fill="#61439A" d="M152,97.4c0,0-0.6-0.9-1.7-2.4c-1.1-1.5-2.8-3.5-5.1-5.7c-1.2-1.1-2.5-2.2-4-3.3
							c-1.5-1.1-3.2-2.1-5.1-2.9c-1.9-0.8-4-1.4-6.3-1.5c-4.5-0.1-9,2.1-12.1,5.3c-1.6,1.6-2.7,3.4-3.6,5.3
							c-1.8,3.7-2.4,7.5-2.6,10.7c-0.2,3.2,0,5.8,0.2,7.7c0.2,1.8,0.5,2.9,0.5,2.9s-0.2-23.8,18.8-25.8
							C140.1,86.8,152,97.4,152,97.4"/>
						<path fill="#410025" d="M57.2,89.8c0,0,0.4,1.1,1.2,2.7c1.5,2.6,3.5,4.8,5.9,6.5c1.9,1.4,4.5,2.8,6.9,3.1l0.4-2.8
							c0.1,0-1,0-2.6-0.5c-4-1-7.7-3.3-10.2-6.6C57.7,90.9,57.2,89.8,57.2,89.8"/>
						<path fill="#410025" d="M60.9,80.2c0,0,0,1.3,0.4,3.1c0.4,1.9,1.3,4.3,2.7,6.5c1.6,2.7,3.8,5.2,6.2,7.2
							c0.4,0.4,0.7,0.6,0.7,0.6l1.5-2.4c0,0-0.2-0.1-0.7-0.4c-4.4-2.7-8.2-6.8-10-11.7C61.1,81.5,60.9,80.2,60.9,80.2"/>
						<path fill="#410025" d="M67.8,76c0,0-0.4,1.2-0.4,3.2c-0.1,5.6,2.3,11,5.3,15.5c0.3,0.5,0.5,0.8,0.5,0.8l2.1-1.8
							c0,0-0.2-0.2-0.5-0.6c-3.5-3.7-6.4-8.7-7-13.9C67.6,77.3,67.8,76,67.8,76"/>
						<path fill="#FFFFFF" d="M69.9,98.8c4.8-6.7,15.3-12,21-10.5c17.1,4.5,12.8,29.1,12.8,29.1s-11.8,11.2-22.8,7.9
							c-5.1-1.5-9.3-5-10.8-9.7C68.5,111,67.8,104.7,69.9,98.8"/>
						<path fill="#0092A1" d="M97.3,107.5c0.5,7.4-4.1,13.8-10.3,14.2c-6.2,0.4-11.6-5.3-12.1-12.7c-0.5-7.4,4.1-13.8,10.3-14.2
							C91.4,94.4,96.8,100.1,97.3,107.5"/>
						<path fill="#410025" d="M92.9,107.8c0.3,4.5-2.5,8.4-6.3,8.6c-3.8,0.2-7.1-3.2-7.4-7.7c-0.3-4.5,2.5-8.4,6.3-8.6
							C89.3,99.9,92.6,103.3,92.9,107.8"/>
						<path fill="#61439A" d="M69.9,98.8c0,0,0.5-0.9,1.8-1.8c29.8-19,32,20.4,32,20.4s0.3-0.9,0.6-2.5c0.3-1.6,0.6-4,0.6-6.8
							c0-2.8-0.4-6.2-1.6-9.7c-0.6-1.7-1.5-3.5-2.7-5c-1.2-1.6-2.7-3-4.3-4.1c-5.1-3.3-11.1-3.2-16.3-0.3c-1.5,0.8-2.7,1.8-3.8,2.7
							c-2.2,1.9-3.7,3.7-4.7,5C70.3,98,69.9,98.8,69.9,98.8"/>
						<path fill="#FFFFFF" d="M135.5,112.1c-0.2,1.9,0.8,3.5,2.3,3.7c1.5,0.1,3-1.3,3.2-3.2c0.3-1.9-0.8-3.5-2.3-3.7
							C137.2,108.8,135.7,110.2,135.5,112.1"/>
						<path fill="#FFFFFF" d="M77.9,99.7c-1,2.7-1.1,6.4,1.3,7.1c2.4,0.7,5.6-2,6.6-4.8c1-2.7,1.6-6-0.8-6.7
							C82.6,94.6,78.9,97,77.9,99.7"/>
						<path fill="#FFFFFF" d="M87.3,114.5c-0.2,1.9,0.8,3.5,2.3,3.7c1.5,0.1,3-1.3,3.2-3.2c0.3-1.9-0.8-3.5-2.3-3.7
							C89,111.2,87.5,112.6,87.3,114.5"/>
						<path fill="#FFFFFF" d="M125.5,97.9c-1,2.7-1.1,6.4,1.3,7.1c2.4,0.7,5.6-2,6.6-4.8c1-2.7,1.6-6-0.8-6.7
							C130.2,92.8,126.4,95.1,125.5,97.9"/>
					</g>
					<path fill="#410025" d="M141,75.8c0.1-1.2-6.2-6.4-12.7-6c-6.5,0.5-8.6,4.1-8,4.7c0.7,0.6,3.4-1.3,8.1-1.4
						C135.5,73,140.9,77,141,75.8"/>
					<path fill="#410025" d="M77.8,83.6c0-1.2,6.5-6.1,12.9-5.4c6.5,0.8,8.4,4.5,7.7,5.1c-0.7,0.6-3.3-1.4-8.1-1.8
						C83.4,81,77.9,84.7,77.8,83.6"/>
				</g>
			</g>
		</g>
	</g>
	<g id="_x30__Stars_1_">
	</g>
</g>
<g id="_x33_rd_Grade">
	<g id="_x33_rd_Grade_Extras">
	</g>
	<g id="_x33__Stars">
	</g>
	<g id="_x32__Stars">
	</g>
	<g id="_x31__Star">
	</g>
	<g id="_x30__Stars">
	</g>
</g>
<g id="labels">
</g>
</svg>
