<?xml version="1.0" encoding="utf-8"?>
<!-- Generator: Adobe Illustrator 22.0.1, SVG Export Plug-In . SVG Version: 6.00 Build 0)  -->
<!DOCTYPE svg PUBLIC "-//W3C//DTD SVG 1.1//EN" "http://www.w3.org/Graphics/SVG/1.1/DTD/svg11.dtd">
<svg version="1.1" xmlns="http://www.w3.org/2000/svg" xmlns:xlink="http://www.w3.org/1999/xlink" x="0px" y="0px"
	 viewBox="0 0 270 296" enable-background="new 0 0 270 296" xml:space="preserve" width="270" height="296" preserveAspectRatio="none">
<g id="Grok_Cast_Shadow">
</g>
<g id="Grok_Hair">
</g>
<g id="Grok_Right_Leg_Front">
</g>
<g id="Grok_Right_Leg_Middle">
</g>
<g id="Grok_Right_Leg_Back">
</g>
<g id="Grok_Left_Leg_Front">
</g>
<g id="Grok_Left_Leg_Middle">
</g>
<g id="Grok_Left_Leg_Back">
</g>
<g id="Grok_Right_Arm">
</g>
<g id="Grok_Body">
</g>
<g id="Grok_Left_Arm">
</g>
<g id="Grok_Right_Ear">
</g>
<g id="Grok_Left_Ear">
</g>
<g id="Grok_Head">
</g>
<g id="Grok_Eyes">
</g>
<g id="Grok_Eyebrows">
</g>
<g id="Grok_Glasses_and_Eyebrows">
</g>
<g id="Grok_Moustache">
</g>
<g id="Grok_Nose">
</g>
<g id="labels">
	<g>
		<defs>
			<rect id="SVGID_7_" width="270" height="296"/>
		</defs>
		<clipPath id="SVGID_2_">
			<use xlink:href="#SVGID_7_"  overflow="visible"/>
		</clipPath>
		<g clip-path="url(#SVGID_2_)">
			<g>
				<path fill="#8CD3D4" d="M73.7,241.3c0,0-8,18.2-15.7,11.6c-7.7-6.6-16.9-16.4-16.9-16.4s-21.5,7.3-24.1,4
					c-2.6-3.3,15.6-7.2,15.6-7.2s-22.1,1.5-21.4-3.5c0.7-5,22.1-4.5,22.1-4.5s-15.3-1.6-14.4-4.9c0.9-3.3,11-4,14.6-2.6
					c6.2,2.3,9.8,2.4,9.8,2.4s6.8-11.4,9.4-11.5c2.6-0.1,5.5,5.2,2.5,10.3c-2.8,4.8-7.2,7.4-7.2,7.4s8.6,6.7,13.7,10.2
					C70.1,242,73.7,241.3,73.7,241.3z"/>
				<path fill="#00AFBA" d="M35.3,235.6c-1.6-1.2-2.2-3.6-1.8-5.6c0.4-2.1,1.5-3.9,2.9-5.3c1.3-1.4,3-2.7,5-3.3
					c1.9-0.6,4.2-0.7,5.9,0.5c-1.9,0.2-3.4,1-4.8,1.9c-1.4,0.9-2.5,2-3.7,3.2c-1.1,1.2-2.1,2.4-2.8,3.8
					C35.4,232.1,35,233.7,35.3,235.6z"/>
				<path fill="#6E6157" d="M97.3,212.8c0,0-12.6,22.3-22.4,24c-9.8,1.7-18.7-8-18.7-8l-11.7,18.5c0,0,21.9,15,38.1,6.2
					c16.2-8.9,19.1-37.4,19.1-37.4L97.3,212.8z"/>
			</g>
			<path fill="#B4B7B8" d="M170.5,202.6c0,0-0.3,11.1-7.6,20.3c-7.3,9.2-14.6,11.2-14.6,11.2l-15.6-17.4l1.7-13.1l4.6-5.2
				C139.1,198.3,170.5,202.9,170.5,202.6z"/>
			<path fill="#B4B7B8" d="M215.7,176.9c0,0-2.4,14.6,7.5,27.8l-25.9-7.7l-12.6,30.8l-27-30.4l-11.6-26.5l9-9.2L215.7,176.9z"/>
			<g>
				<polygon fill="#A69C7F" points="105.5,291.7 90,344.9 110.6,348.4 112.1,292.8 				"/>
			</g>
			<g>
				<polygon fill="#A69C7F" points="157.7,290.2 143.5,336.8 161.6,339.9 163.6,291.2 				"/>
			</g>
			<g>
				<polygon fill="#A69C7F" points="209.9,290.2 195.6,336.8 213.7,339.9 215.7,291.2 				"/>
			</g>
			<path fill="#D1C6A1" d="M90,283.6c0,13.8,35.2,23.9,80.1,22.2c49.6-1.8,88.8-6,73.5-42.3c-13.5-32.1-51.8-21.7-89.5-13.4
				C105.6,260.7,90,264.6,90,283.6z"/>
			<g>
				<polygon fill="#D1C6A1" points="187.4,291.3 197.4,345.8 176.8,349.3 180.7,292.4 				"/>
			</g>
			<g>
				<polygon fill="#D1C6A1" points="237.4,291.3 247.4,345.8 226.8,349.3 230.7,292.4 				"/>
			</g>
			<polygon fill="#4B5461" points="103.1,275 144.7,275 141.2,263.2 103.1,263.9 			"/>
			<path fill="#6E6157" d="M137.2,180c38,53.1,44,111.2,44,111.2l-40.7-0.6l-0.8-29.6l-16.1-0.3v-82.3L137.2,180z"/>
			<g>
				<path fill="#8CD3D4" d="M180,241.3c0,0,8,18.2,15.7,11.6c7.7-6.6,16.9-16.4,16.9-16.4s21.5,7.3,24.1,4
					c2.6-3.3-15.6-7.2-15.6-7.2s22.1,1.5,21.4-3.5c-0.7-5-22.1-4.5-22.1-4.5s15.3-1.6,14.4-4.9c-0.9-3.3-11-4-14.6-2.6
					c-6.2,2.3-9.8,2.4-9.8,2.4s-6.8-11.4-9.4-11.5c-2.6-0.1-5.5,5.2-2.5,10.3c2.8,4.8,7.2,7.4,7.2,7.4s-8.6,6.7-13.7,10.2
					C183.6,242,180,241.3,180,241.3z"/>
				<path fill="#00AFBA" d="M218.4,235.6c1.6-1.2,2.2-3.6,1.8-5.6c-0.4-2.1-1.5-3.9-2.9-5.3c-1.3-1.4-3-2.7-5-3.3
					c-1.9-0.6-4.2-0.7-5.9,0.5c1.9,0.2,3.4,1,4.8,1.9c1.4,0.9,2.5,2,3.7,3.2c1.1,1.2,2.1,2.4,2.8,3.8
					C218.3,232.1,218.7,233.7,218.4,235.6z"/>
				<path fill="#6E6157" d="M156.4,212.8c0,0,12.6,22.3,22.4,24c9.8,1.7,18.7-8,18.7-8l11.7,18.5c0,0-21.9,15-38.1,6.2
					c-16.2-8.9-19.1-37.4-19.1-37.4L156.4,212.8z"/>
			</g>
			<polygon fill="#6E6157" points="105.3,178.5 123.5,178.5 123.5,260.7 104.7,260.4 103.9,290 75.6,289 			"/>
			<polygon fill="#F9D773" points="108.9,194.4 104.6,264.2 140,264.9 142.3,195 			"/>
			<g>
				<path fill="#A69C7F" d="M116.4,273.5c0.1,1.3,0.1,2.7,0.1,4c0,1.3,0.1,2.7,0,4c0,2.7,0,5.4-0.1,8l-0.6-0.8
					c2.2,0.3,4.4,0.6,6.6,0.9c2.2,0.3,4.4,0.7,6.6,1l-0.9,0.9c-0.5-3.1-1-6.3-1.4-9.4c-0.2-1.6-0.4-3.1-0.6-4.7
					c-0.2-1.6-0.4-3.1-0.5-4.7c0.4,1.5,0.8,3.1,1.1,4.6c0.4,1.5,0.7,3.1,1.1,4.6c0.7,3.1,1.3,6.2,1.9,9.3l0.2,1.1l-1.1-0.2
					c-2.2-0.3-4.4-0.6-6.6-1c-2.2-0.3-4.4-0.7-6.6-1.1l-0.7-0.1l0-0.6c0.2-2.7,0.4-5.4,0.6-8c0.1-1.3,0.2-2.7,0.4-4
					C116.1,276.2,116.2,274.8,116.4,273.5z"/>
			</g>
			<polygon fill="#E2E5E7" points="113.3,263.9 113.1,275.3 128.6,275.3 129.1,264.4 			"/>
			<ellipse fill="none" stroke="#CFB35F" stroke-width="0.8287" stroke-miterlimit="10" cx="123.5" cy="224.5" rx="2.1" ry="1.9"/>
			<ellipse fill="none" stroke="#CFB35F" stroke-width="0.8287" stroke-miterlimit="10" cx="123.6" cy="243.9" rx="2.1" ry="1.9"/>
			<ellipse fill="none" stroke="#CFB35F" stroke-width="0.8287" stroke-miterlimit="10" cx="123.5" cy="258.4" rx="2.1" ry="1.9"/>
			<g>
				<g>
					<path fill="#50463F" d="M152.7,262.7l0.7,10.5l0.6,10.3l-0.5-0.5c3.3-0.1,6.7-0.1,10-0.1l10-0.1l-0.7,0.7l-1.3-10.5
						c-0.4-3.5-0.9-7-1.2-10.5l0.5,0.4c-3,0-6,0-9-0.1L152.7,262.7z M152.7,262.7l9-0.4c3-0.1,6.1-0.2,9.2-0.4l0.4,0l0.1,0.4
						c0.5,3.5,1,7,1.5,10.5l1.4,10.5l0.1,0.7l-0.8,0l-10,0c-3.3,0-6.7,0-10,0l-0.5,0l0-0.5l-0.2-10.6L152.7,262.7z"/>
				</g>
			</g>
			<g>
				<path fill="#50463F" d="M83.3,264.1c1.7-0.1,3.3-0.2,5-0.2c1.7-0.1,3.3-0.1,5-0.1l0.5,0l0,0.5c-0.1,3.2-0.2,6.4-0.4,9.6
					c-0.2,3.2-0.4,6.4-0.7,9.5l-0.1,0.6l-0.6,0c-2.2-0.1-4.4-0.3-6.6-0.4c-2.2-0.2-4.4-0.4-6.6-0.6c2.2-0.1,4.4-0.2,6.6-0.2
					c2.2,0,4.4,0,6.6,0l-0.6,0.6c0.1-3.2,0.3-6.4,0.5-9.6c0.2-3.2,0.5-6.4,0.8-9.5l0.5,0.5c-1.7-0.1-3.3-0.2-5-0.3
					C86.6,264.4,84.9,264.3,83.3,264.1z"/>
			</g>
			<polygon fill="#9B8F78" points="118,196.8 91.9,224 101.6,229.9 95,232.8 104.9,275.3 112,207.1 137.9,207.7 139.8,276.1 
				154.7,233.6 148.5,225.5 159.1,223.5 132.8,194.6 			"/>
			<g>
				<polygon fill="#D1C6A1" points="141.1,291.3 151.1,345.8 130.5,349.3 134.4,292.4 				"/>
			</g>
			<path fill="#B4B7B8" d="M69.8,179.9c1.1,11.9,2.2,20.9-8,32.3c0,0,24.9,1.2,33.3-11.2s4.7-9.6,4.5-10.6c-0.2-1-14.6-10-14.6-10
				L69.8,179.9"/>
			<path fill="#E2E5E7" d="M60.8,154c0,0-24.6-35.5,2.1-62.7l5.8,19c0,0,5.4-37.5,56.2-42.1l-17.1,20.2
				c54.9-5.4,113.3,19.8,111.1,66.8l-158.5-1.3"/>
			<g>
				<path fill="#7EA6B3" d="M98.2,126.2c-1.8-3.8-2.5-8.1-2.1-12.3c0.1-2.1,0.6-4.2,1.3-6.3c0.7-2,1.7-3.9,2.9-5.7
					c1.3-1.7,2.7-3.3,4.3-4.8c0.8-0.7,1.6-1.4,2.5-2c0.4-0.3,0.9-0.6,1.3-0.9l1.4-0.8c3.7-2.1,7.6-3.5,11.7-4.3
					c-3.8,1.7-7.4,3.6-10.7,5.9c-3.3,2.3-6.3,5-8.5,8.2c-2.3,3.2-3.7,6.9-4.4,10.9C97.2,118.1,97.4,122.2,98.2,126.2z"/>
			</g>
			<g>
				<path fill="#7EA6B3" d="M154.9,130.3c1.5-3.4,3.8-6.5,6.4-9.2c2.6-2.7,5.7-5,9-6.9l1.3-0.7c0.4-0.2,0.9-0.4,1.3-0.6
					c0.9-0.4,1.7-0.8,2.6-1.1c1.8-0.5,3.6-1.2,5.5-1.5l1.4-0.3c0.5-0.1,0.9-0.2,1.4-0.2l2.8-0.2c0.9-0.1,1.9,0,2.8,0.1
					c0.9,0.1,1.9,0.2,2.8,0.3c-0.9,0.2-1.8,0.3-2.8,0.4c-0.9,0.1-1.8,0.2-2.7,0.4l-2.7,0.6c-0.9,0.2-1.7,0.5-2.6,0.7
					c-3.5,1-6.8,2.4-9.9,4.2c-3.2,1.7-6.1,3.8-8.9,6.1C159.9,124.9,157.3,127.5,154.9,130.3z"/>
			</g>
			<g>
				<path fill="#7EA6B3" d="M101.8,126.6c0.5-2.6,1.6-5,2.9-7.3c1.3-2.3,2.8-4.4,4.5-6.5c3.4-4.1,7.5-7.5,11.8-10.4l3.3-2.1l3.5-1.9
					l1.7-0.9l1.8-0.8c1.2-0.5,2.4-1,3.6-1.5c2.4-0.9,5-1.7,7.4-2.5c2.5-0.6,5.1-1.2,7.6-1.7c-2.4,1-4.8,1.9-7.2,2.8l-3.5,1.6
					c-1.2,0.5-2.4,1-3.5,1.5c-1.1,0.6-2.3,1.2-3.4,1.7l-1.7,0.8l-1.7,1l-3.3,1.9l-3.2,2.1c-4.2,2.8-8.2,6-11.8,9.7
					c-1.7,1.9-3.5,3.8-4.9,5.9C104.2,122.1,102.8,124.3,101.8,126.6z"/>
			</g>
			<g>
				<path fill="#8DD3D5" d="M15,131.9c2-3.3,27.9,0.6,47.1,11.1c19.2,10.6,21.8,20.5,21.8,20.5L81.5,179c0,0-24.1,0.6-40.5-7.9
					C24.5,162.6,13,135.2,15,131.9z"/>
				<path fill="#00AFBA" d="M60.5,169.6c1.2-8.8,7.6-6.2,7.6-6.2s-12.8-13.6-31-20.2c-7.5-2.7-15.1-4.5-21.5-5.6
					c2.9,9.3,12.6,27,25.3,33.6c6.6,3.4,14.3,5.3,21.3,6.4C61,175.2,60.1,172.5,60.5,169.6z"/>
			</g>
			<g>
				<path fill="#8DD3D5" d="M262.7,134.5c-3.5-3.5-41-0.1-67.3,10.4c-26.3,10.6-31.2,41.7-31.2,41.7l9.2-4.6c0,0,35.5,1.2,58.2-7.2
					C254.2,166.4,266.2,138,262.7,134.5z"/>
				<path fill="#00AFBA" d="M202.5,172.7c-3.4-9.2-12.3-6.7-12.3-6.7s16.4-13.9,41.9-20.4c10.6-2.7,21.5-4.3,30.6-5.3
					c-2.6,9.7-13.7,28-31.2,34.5c-9.1,3.4-20.1,5.2-30.2,6.2C202.8,178.5,203.6,175.7,202.5,172.7z"/>
			</g>
			<path fill="#8DD3D5" d="M63.2,137.6c0,0,20.4-12.7,71.6-9.7c51.2,3,60.9,19.6,60.9,19.6s-11.5,64.5-80.5,63.8
				c-15.3-0.2-21.6-7.6-29.4-14.2c-4.8-4.1-10.7-6.8-14.2-11.6C57.3,165.7,63.2,137.6,63.2,137.6z"/>
			<path fill="#FFFFFF" d="M96.6,169.7c0.3,5.4-4.3,10-10.3,10.3c-6,0.3-11.1-3.8-11.4-9.2c-0.3-5.4,4.3-10,10.3-10.3
				C91.3,160.3,96.3,164.4,96.6,169.7z"/>
			<path fill="#FFFFFF" d="M138.5,167.9c-1,5.3,3.4,10.6,9.9,11.8c6.5,1.2,12.6-2,13.6-7.3c1-5.3-3.4-10.6-9.9-11.8
				C145.6,159.4,139.5,162.7,138.5,167.9z"/>
			<path fill="#414042" d="M89.8,171.4c-0.2,2.4-2.1,4.2-4.4,4c-2.2-0.2-3.9-2.2-3.7-4.6c0.2-2.4,2.1-4.2,4.4-4
				C88.4,166.9,90,169,89.8,171.4z"/>
			<path fill="#414042" d="M154.2,170.9c-0.2,2.4-2.1,4.2-4.4,4c-2.2-0.2-3.9-2.2-3.7-4.6c0.2-2.4,2.1-4.2,4.4-4
				C152.7,166.4,154.4,168.5,154.2,170.9z"/>
			<path fill="#8DD3D5" d="M161.8,181.8c-0.1,2.6-6,4.5-13.1,4.2c-7.1-0.3-12.9-2.6-12.8-5.2c0.1-2.6,6-4.5,13.1-4.2
				C156.2,176.8,161.9,179.2,161.8,181.8z"/>
			<path fill="#8DD3D5" d="M101.2,180c0.3,2.6-5.2,5.3-12.3,6.2c-7.1,0.8-13.1-0.6-13.4-3.2c-0.3-2.6,5.2-5.3,12.3-6.2
				C94.9,176,100.9,177.5,101.2,180z"/>
			<path fill="#FFFFFF" d="M109.2,154.1c1.9-9.7,0.3-21.8-6-26.7c-4-3.1-4,11.5-4,11.5s-22.8-28.1-22.8-17s8.3,16,8.3,16
				s-22.1-12.1-27.1-7.5c-2.2,2.1,5.8,13.1,5.8,13.1s-31,0.8-5.4,12.1c6.5-1.9,19.8-3.3,19.8-4.3c0-1,16.8,0.7,16.8,0.7L109.2,154.1
				z"/>
			<path fill="#FFFFFF" d="M127.9,154.1c-1.9-9.7-0.3-21.8,6-26.7c4-3.1,4,11.5,4,11.5s22.8-28.1,22.8-17s-8.3,16-8.3,16
				s22.1-12.1,27.1-7.5c2.2,2.1-8.6,14.4-8.6,14.4s33.8-0.6,8.3,10.8c-6.5-1.9-19.8-3.3-19.8-4.3s-16.8,0.7-16.8,0.7L127.9,154.1z"
				/>
			<path fill="none" stroke="#02313B" stroke-width="4.9724" stroke-miterlimit="10" d="M61.8,155.2c0,0,23.9-7.2,48.3-0.8
				c0,0,7.5,36.5-26.7,35.5C56.6,189,61.8,155.2,61.8,155.2z"/>
			<path fill="none" stroke="#02313B" stroke-width="4.9724" stroke-miterlimit="10" d="M174.9,155.2c0,0-23.9-7.2-48.3-0.8
				c0,0-7.5,36.5,26.8,35.4C180.1,189,174.9,155.2,174.9,155.2z"/>
			<line fill="none" stroke="#02313B" stroke-width="3.315" stroke-miterlimit="10" x1="110.5" y1="158.3" x2="126.3" y2="158.3"/>
			<path fill="none" stroke="#02313B" stroke-width="3.315" stroke-miterlimit="10" d="M109.8,169.3c0,0,8.4-10.1,16.4,0"/>
			<g>
				<path fill="#E2E5E7" d="M89.9,195.1c-3.1,12.2,3.5,22.6,11.7,27.6l0.4-5.1l15.2,20.2l11.9-18l3.7,7.8
					c9.7-5.2,19.8-15.7,17.5-30.9l-33.1-8.9L89.9,195.1z"/>
				<path fill="#FFFFFF" d="M117.5,175.3c-40.2-1.2-33.2,26.7-73,20.5c0,0,45,15.9,72.3-3.6c0,0,26.6,26.7,72,7.3
					C147.8,201.3,159,176.5,117.5,175.3z"/>
				<polygon fill="#FFFFFF" points="104.6,197.2 107.5,206.9 113.8,202 120.4,211.4 122.1,202 128.8,207.7 133.8,199.6 126.7,192.1 
					117.5,192.9 110.9,191.6 				"/>
				<g>
					<path fill="#B4B7B8" d="M112.1,184.2c-0.9,1.1-1.7,2.2-2.4,3.3c-0.7,1.1-1.4,2.2-1.9,3.4c-0.5,1.2-1,2.4-1.4,3.7
						c-0.4,1.3-0.6,2.6-1,3.9c-0.3-1.4-0.5-2.8-0.3-4.2c0.1-1.4,0.6-2.8,1.1-4.1c0.6-1.3,1.4-2.5,2.4-3.5
						C109.6,185.6,110.8,184.7,112.1,184.2z"/>
				</g>
				<g>
					<path fill="#B4B7B8" d="M116,185.6c-0.5,1.4-0.9,2.8-1.2,4.2c-0.3,1.4-0.6,2.8-0.7,4.2c-0.2,1.4-0.3,2.8-0.3,4.3
						c0,1.4,0.1,2.9,0.1,4.4c-0.7-1.4-1.2-2.8-1.4-4.3c-0.3-1.5-0.2-3-0.1-4.6c0.2-1.5,0.6-3,1.1-4.4
						C114.2,188,114.9,186.7,116,185.6z"/>
				</g>
				<g>
					<path fill="#B4B7B8" d="M122.1,186.4c-0.1,0.9,0,1.8,0.2,2.6c0.1,0.4,0.2,0.8,0.3,1.2c0.2,0.4,0.3,0.8,0.5,1.2
						c0.8,1.5,1.7,2.9,3,4.1c0.5,0.7,1.2,1.2,1.9,1.8l2,1.7c0.7,0.5,1.4,1.1,2.1,1.6c0.7,0.5,1.5,1,2.2,1.6
						c-0.9-0.3-1.7-0.6-2.6-0.9c-0.8-0.4-1.6-0.8-2.4-1.2c-0.8-0.4-1.5-1-2.3-1.5l-1-0.9c-0.4-0.3-0.7-0.6-1-1c-1.3-1.3-2.4-3-3-4.8
						c-0.2-0.4-0.2-0.9-0.3-1.4c0-0.5-0.1-0.9-0.1-1.4C121.5,188.2,121.6,187.3,122.1,186.4z"/>
				</g>
				<path fill="#00AFBA" d="M131.9,179.6c-0.4,5.5-6.3,10.6-13.8,10.1c-7.5-0.6-13.8-6.6-13.4-12.1c0.4-5.5,6.8-9.5,14.3-8.9
					C126.5,169.2,132.3,174.1,131.9,179.6z"/>
			</g>
			<g>
				<path fill="#50463F" d="M94.7,226.3c-1,4.4-2.3,8.6-3.8,12.8c-1.5,4.2-3.1,8.3-5,12.3c1-4.4,2.3-8.6,3.8-12.8
					C91.2,234.4,92.8,230.3,94.7,226.3z"/>
			</g>
			<g>
				<path fill="#50463F" d="M160.4,238.6c1.6,3.1,3.4,6,5.4,8.7c1,1.4,2.2,2.6,3.4,3.8c1.2,1.2,2.6,2.2,4,3.2
					c-1.7-0.5-3.3-1.3-4.7-2.4c-1.4-1.1-2.7-2.3-3.8-3.7c-1.1-1.4-2-2.9-2.7-4.5C161.3,242,160.7,240.3,160.4,238.6z"/>
			</g>
		</g>
	</g>
</g>
<g id="Layer_21">
</g>
</svg>
