<?xml version="1.0" encoding="utf-8"?>
<!-- Generator: Adobe Illustrator 22.0.1, SVG Export Plug-In . SVG Version: 6.00 Build 0)  -->
<!DOCTYPE svg PUBLIC "-//W3C//DTD SVG 1.1//EN" "http://www.w3.org/Graphics/SVG/1.1/DTD/svg11.dtd">
<svg version="1.1" xmlns="http://www.w3.org/2000/svg" xmlns:xlink="http://www.w3.org/1999/xlink" x="0px" y="0px"
	 viewBox="0 0 270 296" enable-background="new 0 0 270 296" xml:space="preserve" width="270" height="296" preserveAspectRatio="none">
<g id="Grok_Cast_Shadow">
</g>
<g id="Grok_Hair">
</g>
<g id="Grok_Right_Leg_Front">
</g>
<g id="Grok_Right_Leg_Middle">
</g>
<g id="Grok_Right_Leg_Back">
</g>
<g id="Grok_Left_Leg_Front">
</g>
<g id="Grok_Left_Leg_Middle">
</g>
<g id="Grok_Left_Leg_Back">
</g>
<g id="Grok_Right_Arm">
</g>
<g id="Grok_Body">
</g>
<g id="Grok_Left_Arm">
</g>
<g id="Grok_Right_Ear">
</g>
<g id="Grok_Left_Ear">
</g>
<g id="Grok_Head">
</g>
<g id="Grok_Eyes">
</g>
<g id="Grok_Eyebrows">
</g>
<g id="Grok_Glasses_and_Eyebrows">
</g>
<g id="Grok_Moustache">
</g>
<g id="Grok_Nose">
</g>
<g id="labels">
	<g>
		<defs>
			<rect id="SVGID_9_" y="0" width="270" height="296"/>
		</defs>
		<clipPath id="SVGID_2_">
			<use xlink:href="#SVGID_9_"  overflow="visible"/>
		</clipPath>
		<g clip-path="url(#SVGID_2_)">
			<path fill="#FFD25F" d="M29.6,219.4c0,0-0.2,0-0.6,0C29.4,219.4,29.6,219.4,29.6,219.4z"/>
			<path fill="#8CD3D4" d="M72.1,244.9l-0.6-16.5c-8.7,1.1-18.1,0.1-25.6-9.3l0.8-1.5c0.7-1.5,2.7-6.7,1.4-11.2
				c-1.6-5.3-5.3-7.4-7.8-6.6c-2.5,0.8-0.7,14.4-0.7,14.4s-0.6-1.8-7.2-2.3c-3.9-0.3-11.5,1-11.4,4.4c0,2.9,6,3.2,8,3.2
				c0.4,0,0.6,0,0.6,0s-0.2,0-0.6,0c-2.1,0-8.7,0.4-8.1,4.7c0.7,5,10.2,3.2,10.2,3.2s-8.5,3.4-5.2,5.9c3.3,2.5,12.1,0,12.1,0
				s0.2,0.1,0.5,0.3l-0.1,0.1C49.3,241.7,60.6,243.2,72.1,244.9z"/>
			<g>
				<path fill="#00AFBA" d="M36.1,213c1,0.4,1.9,0.9,2.7,1.8c0.7,0.9,1.2,2,0.8,3.3c-0.2,0.6-0.7,1.1-1.2,1.4
					c-0.5,0.3-1,0.5-1.6,0.7c-1.1,0.3-2.2,0.5-3.3,0.5l0.2-1.5c0.9,0.2,1.8,0.6,2.6,1.2c0.8,0.6,1.5,1.6,1.5,2.7c0,1-0.2,2.1-1,2.9
					c-0.7,0.8-1.6,1.2-2.7,1.4l-0.1-1.5c1.1,0,2.2,0.2,3.2,0.7c0.5,0.2,1,0.5,1.5,0.9c0.4,0.4,0.8,1,0.9,1.6
					c0.1,0.6,0.1,1.2-0.1,1.7c-0.2,0.5-0.5,1-0.9,1.4c-0.8,0.7-1.8,1.1-2.8,1.3c0.9-0.4,1.8-1,2.4-1.7c0.6-0.7,0.8-1.7,0.5-2.5
					c-0.3-0.8-1-1.3-1.9-1.5c-0.9-0.3-1.8-0.4-2.7-0.4l-7,0l6.9-1.5c0.6-0.1,1.3-0.5,1.6-1c0.4-0.5,0.5-1.1,0.5-1.7
					c0-0.6-0.3-1.1-0.8-1.5c-0.5-0.4-1.2-0.8-1.9-1l-5.1-1.6l5.3,0.1c1,0,2-0.1,2.9-0.3c0.9-0.2,1.9-0.6,2.2-1.3
					c0.2-0.3,0.2-0.8,0.2-1.3c-0.1-0.5-0.2-0.9-0.5-1.3C37.8,214.3,37,213.6,36.1,213z"/>
			</g>
			<path fill="#B4B7B8" d="M168.4,199.3c0,0-4.5,7.5-11.7,16.7c-7.2,9.2-10.3,14.8-10.3,14.8l-15.6-17.3l1.6-13.1l4.6-5.3
				C137,195.1,168.4,199.6,168.4,199.3z"/>
			<path fill="#B4B7B8" d="M211.4,174.9c0,0-2.4,14.7,7.6,27.8l-25.9-7.6L180.5,226l-27.1-30.3l-11.7-26.5l8.9-9.2L211.4,174.9z"/>
			<g>
				<path fill="#00AFBA" d="M43.5,216.7c-0.7,1.2-1.2,2.4-1.5,3.6c-0.3,1.2-0.5,2.4-0.3,3.6c0.1,1.2,0.6,2.3,1.2,3.4
					c0.6,1.1,1.4,2.2,2.2,3.3c-1.3-0.5-2.4-1.4-3.3-2.5c-0.9-1.1-1.6-2.5-1.8-4c-0.2-1.5,0.1-3,0.7-4.3
					C41.4,218.6,42.4,217.5,43.5,216.7z"/>
			</g>
			<g>
				<polygon fill="#A69C7F" points="101.6,288.5 86.1,341.7 106.7,345.2 108.2,289.6 				"/>
			</g>
			<g>
				<polygon fill="#A69C7F" points="153.8,287 139.6,333.6 157.7,336.8 159.7,288 				"/>
			</g>
			<g>
				<polygon fill="#A69C7F" points="206,287 191.7,333.6 209.8,336.8 211.8,288 				"/>
			</g>
			<path fill="#D1C6A1" d="M86.1,280.4c0,13.8,35.2,23.9,80.1,22.2c49.6-1.8,88.8-6,73.5-42.3c-13.5-32.1-51.8-21.7-89.5-13.4
				C101.7,257.5,86.1,261.4,86.1,280.4z"/>
			<g>
				<polygon fill="#D1C6A1" points="183.5,288.1 193.5,342.6 172.9,346.1 176.8,289.2 				"/>
			</g>
			<g>
				<polygon fill="#D1C6A1" points="233.5,288.1 243.5,342.6 222.9,346.1 226.8,289.2 				"/>
			</g>
			<polygon fill="#4B5461" points="99.2,271.8 140.8,271.8 137.3,260 99.2,260.7 			"/>
			<path fill="#6E6157" d="M133.3,176.8c38,53.1,44,111.2,44,111.2l-40.7-0.6l-0.8-29.6l-16.1-0.3v-82.3L133.3,176.8z"/>
			<path fill="#6E6157" d="M97.8,200.2c0,0-7.4,20.7-17,23.2c-12.5,3.3-25.5,1.1-25.5,1.1l-0.8,20.1c0,0,17.4,4.5,33.6-4.4
				c16.2-8.9,15.7-34.1,15.7-34.1L97.8,200.2z"/>
			<path fill="#B07549" d="M74.2,242.3c-1.7-3.3,1-8.1,6-10.6c5-2.6,10.5-1.9,12.2,1.4c0.6,1.1,0.6,2.4,0.3,3.7
				c-1.4,1.3-2.9,2.5-4.7,3.4c-3.8,2.1-7.7,3.4-11.4,4.3C75.5,244,74.7,243.3,74.2,242.3z"/>
			<polygon fill="#6E6157" points="106.4,175.3 124.6,175.3 124.6,257.5 105.8,257.2 105,286.8 76.7,285.8 			"/>
			<polygon fill="#F9D773" points="105,191.2 101.4,249.2 104.9,261.1 136.1,261.7 138.4,191.8 			"/>
			<g>
				<path fill="#A69C7F" d="M112.5,270.3c0.1,1.3,0.1,2.7,0.1,4c0,1.3,0.1,2.7,0,4c0,2.7,0,5.4-0.1,8l-0.6-0.8
					c2.2,0.3,4.4,0.6,6.6,0.9c2.2,0.3,4.4,0.7,6.6,1l-0.9,0.9c-0.5-3.1-1-6.3-1.4-9.4c-0.2-1.6-0.4-3.1-0.6-4.7
					c-0.2-1.6-0.4-3.1-0.5-4.7c0.4,1.5,0.8,3.1,1.1,4.6c0.4,1.5,0.7,3.1,1.1,4.6c0.7,3.1,1.3,6.2,1.9,9.3l0.2,1.1l-1.1-0.2
					c-2.2-0.3-4.4-0.6-6.6-1c-2.2-0.3-4.4-0.7-6.6-1.1l-0.7-0.1l0-0.6c0.2-2.7,0.4-5.4,0.6-8c0.1-1.3,0.2-2.7,0.4-4
					C112.2,273,112.3,271.6,112.5,270.3z"/>
			</g>
			<polygon fill="#E2E5E7" points="109.4,260.7 109.2,272.1 124.7,272.1 125.2,261.2 			"/>
			<ellipse fill="none" stroke="#CFB35F" stroke-width="0.8287" stroke-miterlimit="10" cx="119.6" cy="221.4" rx="2.1" ry="1.9"/>
			<ellipse fill="none" stroke="#CFB35F" stroke-width="0.8287" stroke-miterlimit="10" cx="119.7" cy="240.7" rx="2.1" ry="1.9"/>
			<ellipse fill="none" stroke="#CFB35F" stroke-width="0.8287" stroke-miterlimit="10" cx="119.6" cy="255.2" rx="2.1" ry="1.9"/>
			<g>
				<g>
					<path fill="#50463F" d="M148.8,259.5l0.7,10.5l0.6,10.3l-0.5-0.5c3.3-0.1,6.7-0.1,10-0.1l10-0.1l-0.7,0.7l-1.3-10.5
						c-0.4-3.5-0.9-7-1.2-10.5l0.5,0.4c-3,0-6,0-9-0.1L148.8,259.5z M148.8,259.5l9-0.4c3-0.1,6.1-0.2,9.2-0.4l0.4,0l0.1,0.4
						c0.5,3.5,1,7,1.5,10.5l1.4,10.5l0.1,0.7h-0.8l-10,0c-3.3,0-6.7,0-10,0l-0.5,0l0-0.5l-0.2-10.6L148.8,259.5z"/>
				</g>
			</g>
			<g>
				<path fill="#50463F" d="M84.4,260.9c1.7-0.1,3.3-0.2,5-0.2c1.7-0.1,3.3-0.1,5-0.1l0.5,0l0,0.5c-0.1,3.2-0.2,6.4-0.4,9.6
					c-0.2,3.2-0.4,6.4-0.7,9.5l-0.1,0.6l-0.6,0c-2.2-0.1-4.4-0.3-6.6-0.4c-2.2-0.2-4.4-0.4-6.6-0.6c2.2-0.1,4.4-0.2,6.6-0.2
					c2.2,0,4.4,0,6.6,0l-0.6,0.6c0.1-3.2,0.3-6.4,0.5-9.6c0.2-3.2,0.5-6.4,0.8-9.5l0.5,0.5c-1.7-0.1-3.3-0.2-5-0.3
					C87.7,261.2,86,261.1,84.4,260.9z"/>
			</g>
			<g>
				<polygon fill="#D1C6A1" points="137.2,288.1 147.2,342.6 126.6,346.1 130.5,289.2 				"/>
			</g>
			<path fill="#B4B7B8" d="M67.6,176.9c1.2,11.9,2.3,20.9-7.9,32.4c0,0,24.9,1.1,33.3-11.3s4.7-9.6,4.5-10.6c-0.2-1-14.6-10-14.6-10
				L67.6,176.9"/>
			<path fill="#E2E5E7" d="M58.6,151c0,0-24.7-35.4,1.9-62.7l5.9,19c0,0,5.3-37.6,56.1-42.3l-17,20.3
				c54.9-5.5,113.4,19.4,111.4,66.5l-158.5-0.8"/>
			<g>
				<path fill="#7EA6B3" d="M95.9,123.1c-1.8-3.8-2.5-8-2.2-12.3c0.1-2.1,0.6-4.2,1.3-6.3c0.7-2,1.7-4,2.9-5.7
					c1.3-1.8,2.7-3.3,4.3-4.8c0.8-0.7,1.6-1.4,2.5-2c0.4-0.3,0.9-0.6,1.3-0.9l1.4-0.8c3.6-2.1,7.6-3.5,11.7-4.4
					c-3.8,1.8-7.4,3.6-10.7,5.9c-3.3,2.3-6.3,5-8.5,8.2c-2.2,3.2-3.7,7-4.3,10.9C94.9,115,95,119.1,95.9,123.1z"/>
			</g>
			<g>
				<path fill="#7EA6B3" d="M152.6,127c1.5-3.4,3.8-6.5,6.4-9.2c2.6-2.7,5.7-5.1,9-6.9l1.3-0.7c0.4-0.2,0.9-0.4,1.3-0.6
					c0.9-0.4,1.7-0.8,2.6-1.1c1.8-0.6,3.6-1.2,5.5-1.5l1.4-0.3c0.5-0.1,0.9-0.2,1.4-0.2l2.8-0.2c0.9-0.1,1.9,0,2.8,0.1
					c0.9,0.1,1.9,0.1,2.8,0.2c-0.9,0.2-1.8,0.3-2.8,0.4c-0.9,0.1-1.8,0.2-2.7,0.5l-2.7,0.6c-0.9,0.2-1.7,0.5-2.6,0.7
					c-3.5,1-6.8,2.4-9.9,4.2c-3.2,1.7-6.1,3.8-8.9,6.2C157.6,121.6,155,124.2,152.6,127z"/>
			</g>
			<g>
				<path fill="#7EA6B3" d="M99.5,123.6c0.5-2.6,1.6-5,2.9-7.3c1.3-2.3,2.8-4.5,4.5-6.5c3.4-4.1,7.5-7.5,11.8-10.5l3.3-2.1l3.5-1.9
					l1.7-0.9l1.8-0.8c1.2-0.5,2.4-1,3.6-1.5c2.4-0.9,5-1.7,7.4-2.5c2.5-0.6,5.1-1.2,7.6-1.7c-2.4,1-4.8,1.9-7.2,2.9l-3.5,1.6
					c-1.2,0.5-2.4,1-3.5,1.6c-1.1,0.6-2.3,1.2-3.4,1.7l-1.7,0.8l-1.7,1l-3.3,1.9l-3.2,2.1c-4.2,2.8-8.2,6-11.8,9.7
					c-1.7,1.9-3.4,3.8-4.9,5.9C101.9,119,100.5,121.2,99.5,123.6z"/>
			</g>
			<g>
				<path fill="#8DD3D5" d="M13.3,129.2c2-3.3,27.9,0.5,47.1,11c19.2,10.5,21.8,20.4,21.8,20.4L80,176.1c0,0-24.1,0.6-40.6-7.8
					C22.9,159.9,11.4,132.5,13.3,129.2z"/>
				<path fill="#00AFBA" d="M59,166.7c1.2-8.8,7.6-6.2,7.6-6.2s-12.9-13.6-31-20.1c-7.5-2.7-15.2-4.4-21.5-5.5
					c2.9,9.3,12.7,27,25.4,33.5c6.6,3.4,14.4,5.3,21.3,6.3C59.4,172.3,58.6,169.6,59,166.7z"/>
			</g>
			<g>
				<path fill="#8DD3D5" d="M260.4,130.9c-3.5-3.5-41,0-67.3,10.7c-26.3,10.7-31.1,41.8-31.1,41.8l9.1-4.7c0,0,35.5,1.1,58.2-7.4
					C252,162.8,263.9,134.4,260.4,130.9z"/>
				<path fill="#00AFBA" d="M200.3,169.3c-3.5-9.2-12.4-6.7-12.4-6.7s16.4-14,41.8-20.5c10.6-2.7,21.5-4.4,30.6-5.4
					c-2.6,9.7-13.6,28-31,34.6c-9,3.4-20.1,5.2-30.2,6.3C200.7,175.1,201.4,172.3,200.3,169.3z"/>
			</g>
			<path fill="#8DD3D5" d="M60.9,134.6c0,0,20.3-12.8,71.5-10c51.2,2.8,61,19.4,61,19.4s-11.3,64.6-80.3,64
				c-15.3-0.1-21.6-7.6-29.5-14.1c-4.8-4.1-15-6.8-17.7-12C55,160.6,60.9,134.6,60.9,134.6z"/>
			<polygon fill="#9B8F78" points="155.2,220.3 128.9,191.4 115.4,193.4 114.8,204 134,204.5 135.9,272.9 150.8,230.4 144.6,222.3 
							"/>
			<polygon fill="#9B8F78" points="119.1,193.6 93,220.8 102.7,226.7 96.1,229.6 106,272.1 113.1,203.9 119.8,204 120.4,193.4 			
				"/>
			<path fill="#FFFFFF" d="M94.5,166.7c0.3,5.4-4.3,10-10.3,10.3c-6,0.3-11.1-3.8-11.4-9.1c-0.3-5.4,4.3-10,10.3-10.3
				C89.1,157.2,94.2,161.3,94.5,166.7z"/>
			<path fill="#FFFFFF" d="M136.3,164.7c-1,5.3,3.4,10.6,9.9,11.8c6.5,1.2,12.6-2.1,13.6-7.3c1-5.3-3.4-10.6-9.9-11.8
				C143.4,156.2,137.3,159.5,136.3,164.7z"/>
			<path fill="#414042" d="M87.7,168.3c-0.2,2.4-2.1,4.2-4.3,4.1c-2.2-0.2-3.9-2.2-3.7-4.6c0.2-2.4,2.1-4.2,4.3-4.1
				C86.2,163.8,87.8,165.9,87.7,168.3z"/>
			<path fill="#414042" d="M152,167.6c-0.2,2.4-2.1,4.2-4.3,4.1c-2.2-0.2-3.9-2.2-3.7-4.6c0.2-2.4,2.1-4.2,4.3-4.1
				C150.5,163.1,152.2,165.2,152,167.6z"/>
			<path fill="#FFFFFF" d="M107,151c1.9-9.7,0.2-21.8-6.1-26.7c-4-3.1-3.9,11.5-3.9,11.5s-22.9-28.1-22.8-16.9c0,11.1,8.3,16,8.3,16
				s-22.2-12-27.1-7.4c-2.2,2.1,5.8,13,5.8,13s-31,0.9-5.4,12.2c6.5-1.9,19.8-3.3,19.8-4.3s16.8,0.6,16.8,0.6L107,151z"/>
			<path fill="#FFFFFF" d="M125.7,150.9c-2-9.7-0.4-21.8,5.9-26.7c3.9-3.1,4,11.4,4,11.4s22.7-28.2,22.7-17.1
				c0,11.1-8.2,16.1-8.2,16.1s22.1-12.2,27.1-7.6c2.2,2.1-8.5,14.4-8.5,14.4s33.8-0.7,8.3,10.8c-6.5-1.9-19.8-3.2-19.8-4.2
				c0-1-16.8,0.7-16.8,0.7L125.7,150.9z"/>
			<path fill="none" stroke="#02313B" stroke-width="4.9724" stroke-miterlimit="10" d="M59.6,152.2c0,0,23.9-7.3,48.3-0.9
				c0,0,7.6,36.5-26.6,35.5C54.5,186.1,59.6,152.2,59.6,152.2z"/>
			<path fill="none" stroke="#02313B" stroke-width="4.9724" stroke-miterlimit="10" d="M172.7,151.9c0,0-23.9-7.1-48.4-0.6
				c0,0-7.4,36.6,26.9,35.4C178,185.7,172.7,151.9,172.7,151.9z"/>
			<line fill="none" stroke="#02313B" stroke-width="3.315" stroke-miterlimit="10" x1="108.3" y1="155.2" x2="124.1" y2="155.1"/>
			<path fill="none" stroke="#02313B" stroke-width="3.315" stroke-miterlimit="10" d="M107.6,166.1c0,0,8.4-10.2,16.4-0.1"/>
			<g>
				<path fill="#8CD3D4" d="M167.9,235.8l15.9-0.9c-0.2,12.6-1.4,23.5-10.4,34.1c0,0,15.3,7.3,13.2,10.6c-2.1,3.4-15.9-4.3-15.9-4.3
					s13.6,16.3,8.9,17.3c-4.7,1-16.3-15.3-16.3-15.3s3.6,14,0.3,14.3c-3.2,0.3-7.8-12.6-7.8-16.3c0-6.2,3-8.9,3-8.9
					s-14.3,4.8-15.2,2.5c-0.9-2.3,2.5-5.5,7.4-7.4c5-1.9,10.8-1.6,10.8-1.6C168.2,253.1,169.2,244.7,167.9,235.8z"/>
				<g>
					<path fill="#6E6157" d="M143.3,209.1c0,0,19.7,10.1,20.9,19.9c1.6,12.7-2.4,25.2-2.4,25.2l19.9,3.6c0,0,6.6-16.4,0.2-33.6
						c-6.6-17.8-33.5-20.6-33.5-20.6L143.3,209.1z"/>
					<path fill="#B07549" d="M183.8,230.6c-0.3,0.4-0.8,0.8-1.2,1.1c-3.2,1.9-8.2-0.4-11.1-5.2c-2.9-4.8-2.6-10.2,0.6-12.1
						c0.7-0.4,1.2-0.8,2-0.8c1.9,1.8,4,4.1,5.7,6.5C182,223.3,183.3,226.9,183.8,230.6z"/>
				</g>
			</g>
			<path fill="#8DD3D5" d="M96,177.7c0,4.1-5.3,7.4-11.9,7.4c-6.6,0-11.9-3.3-11.9-7.4c0-4.1,5.3-7.4,11.9-7.4
				C90.7,170.3,96,173.6,96,177.7z"/>
			<ellipse fill="#8DD3D5" cx="147.5" cy="177.6" rx="11.9" ry="7.4"/>
			<g>
				<path fill="#E2E5E7" d="M87.8,192.1c-3,12.2,3.6,22.6,11.7,27.6l0.3-5.1l15.3,20.2l11.9-18.1l3.8,7.8c9.7-5.2,19.7-15.8,17.4-31
					l-33.2-8.8L87.8,192.1z"/>
				<path fill="#FFFFFF" d="M115.4,172.2c-40.2-1-33.2,26.8-72.9,20.7c0,0,45.1,15.8,72.3-3.8c0,0,26.7,26.6,72,7.1
					C145.7,198.1,156.8,173.2,115.4,172.2z"/>
				<polygon fill="#FFFFFF" points="102.5,194.1 105.5,203.8 111.7,198.8 118.4,208.3 120,198.8 126.7,204.6 131.7,196.4 
					124.6,188.9 115.4,189.7 108.8,188.5 				"/>
				<g>
					<path fill="#B4B7B8" d="M110,181c-0.9,1.1-1.7,2.2-2.4,3.3c-0.7,1.1-1.4,2.2-1.9,3.4c-0.5,1.2-1,2.4-1.4,3.7
						c-0.4,1.3-0.6,2.6-1,3.9c-0.3-1.4-0.5-2.8-0.3-4.2c0.1-1.4,0.5-2.8,1.1-4.1c0.6-1.3,1.4-2.5,2.4-3.5
						C107.5,182.5,108.6,181.6,110,181z"/>
				</g>
				<g>
					<path fill="#B4B7B8" d="M113.9,182.4c-0.5,1.4-0.8,2.8-1.2,4.2c-0.3,1.4-0.6,2.8-0.7,4.2c-0.2,1.4-0.3,2.8-0.3,4.3
						c0,1.4,0.1,2.9,0.1,4.4c-0.7-1.3-1.2-2.8-1.4-4.3c-0.3-1.5-0.2-3-0.1-4.6c0.2-1.5,0.5-3,1.1-4.4
						C112.1,184.9,112.8,183.5,113.9,182.4z"/>
				</g>
				<g>
					<path fill="#B4B7B8" d="M119.9,183.3c-0.1,0.9,0,1.8,0.2,2.6c0.1,0.4,0.2,0.8,0.3,1.2c0.2,0.4,0.3,0.8,0.5,1.2
						c0.8,1.5,1.8,2.9,3,4.1c0.5,0.7,1.2,1.2,1.9,1.8l2,1.7c0.7,0.5,1.4,1.1,2.1,1.6c0.7,0.5,1.5,1,2.2,1.6
						c-0.9-0.3-1.7-0.6-2.6-0.9c-0.8-0.4-1.6-0.8-2.4-1.2c-0.8-0.4-1.5-1-2.3-1.5l-1.1-0.9c-0.4-0.3-0.7-0.6-1-1
						c-1.3-1.3-2.4-2.9-3-4.7c-0.2-0.4-0.2-0.9-0.4-1.4c0-0.5-0.1-0.9-0.1-1.4C119.3,185,119.5,184.1,119.9,183.3z"/>
				</g>
				<path fill="#00AFBA" d="M129.7,176.4c-0.4,5.5-6.3,10.6-13.8,10.1c-7.5-0.5-13.8-6.5-13.4-12c0.4-5.5,6.8-9.5,14.3-9
					C124.4,166,130.1,170.9,129.7,176.4z"/>
			</g>
		</g>
	</g>
</g>
<g id="Layer_21">
</g>
</svg>
