<?xml version="1.0" encoding="utf-8"?>
<!-- Generator: Adobe Illustrator 22.0.1, SVG Export Plug-In . SVG Version: 6.00 Build 0)  -->
<!DOCTYPE svg PUBLIC "-//W3C//DTD SVG 1.1//EN" "http://www.w3.org/Graphics/SVG/1.1/DTD/svg11.dtd">
<svg version="1.1" xmlns="http://www.w3.org/2000/svg" xmlns:xlink="http://www.w3.org/1999/xlink" x="0px" y="0px"
	 viewBox="0 0 270 296" enable-background="new 0 0 270 296" xml:space="preserve" width="270" height="296" preserveAspectRatio="none">
<g id="Grok_Cast_Shadow">
</g>
<g id="Grok_Hair">
</g>
<g id="Grok_Right_Leg_Front">
</g>
<g id="Grok_Right_Leg_Middle">
</g>
<g id="Grok_Right_Leg_Back">
</g>
<g id="Grok_Left_Leg_Front">
</g>
<g id="Grok_Left_Leg_Middle">
</g>
<g id="Grok_Left_Leg_Back">
</g>
<g id="Grok_Right_Arm">
</g>
<g id="Grok_Body">
</g>
<g id="Grok_Left_Arm">
</g>
<g id="Grok_Right_Ear">
</g>
<g id="Grok_Left_Ear">
</g>
<g id="Grok_Head">
</g>
<g id="Grok_Eyes">
</g>
<g id="Grok_Eyebrows">
</g>
<g id="Grok_Glasses_and_Eyebrows">
</g>
<g id="Grok_Moustache">
</g>
<g id="Grok_Nose">
</g>
<g id="labels">
	<g>
		<defs>
			<rect id="SVGID_11_" width="270" height="296"/>
		</defs>
		<clipPath id="SVGID_2_">
			<use xlink:href="#SVGID_11_"  overflow="visible"/>
		</clipPath>
		<g clip-path="url(#SVGID_2_)">
			<path fill="#FFD25F" d="M29.1,223.4c0,0-0.2,0-0.6,0C28.8,223.4,29.1,223.4,29.1,223.4z"/>
			<path fill="#8CD3D4" d="M71.5,248.9L71,232.4c-8.7,1.1-18.1,0.1-25.6-9.3l0.8-1.5c0.7-1.5,2.7-6.7,1.4-11.2
				c-1.6-5.3-5.3-7.4-7.8-6.6c-2.5,0.8-0.7,14.4-0.7,14.4s-0.6-1.8-7.2-2.3c-3.9-0.3-11.5,1-11.4,4.4c0,2.9,6,3.2,8,3.2
				c0.4,0,0.6,0,0.6,0s-0.2,0-0.6,0c-2.1,0-8.7,0.4-8.1,4.7c0.7,5,10.2,3.2,10.2,3.2s-8.5,3.4-5.2,5.9c3.3,2.5,12.1,0,12.1,0
				s0.2,0.1,0.5,0.3l-0.1,0.1C48.7,245.8,60,247.3,71.5,248.9z"/>
			<g>
				<path fill="#00AFBA" d="M35.5,217c1,0.4,1.9,0.9,2.7,1.8c0.7,0.9,1.2,2,0.8,3.3c-0.2,0.6-0.7,1.1-1.2,1.4
					c-0.5,0.3-1,0.5-1.6,0.7c-1.1,0.3-2.2,0.5-3.3,0.5l0.2-1.5c0.9,0.2,1.8,0.6,2.6,1.2c0.8,0.6,1.5,1.6,1.5,2.7c0,1-0.2,2.1-1,2.9
					c-0.7,0.8-1.6,1.2-2.7,1.4l-0.1-1.5c1.1,0,2.2,0.2,3.2,0.7c0.5,0.2,1,0.5,1.5,0.9c0.4,0.4,0.8,1,0.9,1.6
					c0.1,0.6,0.1,1.2-0.1,1.7c-0.2,0.5-0.5,1-0.9,1.4c-0.8,0.7-1.8,1.1-2.8,1.3c0.9-0.4,1.8-1,2.4-1.7c0.6-0.7,0.8-1.7,0.5-2.5
					c-0.3-0.8-1-1.3-1.9-1.5c-0.9-0.3-1.8-0.4-2.7-0.4l-7,0l6.9-1.5c0.6-0.1,1.3-0.5,1.6-1c0.4-0.5,0.5-1.1,0.5-1.7
					c0-0.6-0.3-1.1-0.8-1.5c-0.5-0.4-1.2-0.8-1.9-1l-5.1-1.6l5.3,0.1c1,0,2-0.1,2.9-0.3c0.9-0.2,1.9-0.6,2.2-1.3
					c0.2-0.3,0.2-0.8,0.2-1.3c-0.1-0.5-0.2-0.9-0.5-1.3C37.2,218.3,36.4,217.6,35.5,217z"/>
			</g>
			<path fill="#B4B7B8" d="M167.9,197.3c0,0-4.5,7.5-11.7,16.7c-7.2,9.2-10.3,14.8-10.3,14.8l-15.6-17.3l1.6-13.1l4.6-5.3
				C136.5,193.1,167.9,197.6,167.9,197.3z"/>
			<path fill="#B4B7B8" d="M212.4,167.6c0,0-1.3,14.8,9.6,27.2l-26.4-5.7l-10.3,31.6l-29.2-28.3l-13.5-25.6l8.2-9.8L212.4,167.6z"/>
			<g>
				<path fill="#00AFBA" d="M43,220.8c-0.7,1.2-1.2,2.4-1.5,3.6c-0.3,1.2-0.5,2.4-0.3,3.6c0.1,1.2,0.6,2.3,1.2,3.4
					c0.6,1.1,1.4,2.2,2.2,3.3c-1.3-0.5-2.4-1.4-3.3-2.5c-0.9-1.1-1.6-2.5-1.8-4c-0.2-1.5,0.1-3,0.7-4.3
					C40.9,222.6,41.8,221.5,43,220.8z"/>
			</g>
			<polygon fill="#A69C7F" points="101,286.5 85.6,339.7 106.2,343.2 107.7,287.6 			"/>
			<polygon fill="#A69C7F" points="153.3,285 139.1,331.7 157.2,334.8 159.1,286 			"/>
			<polygon fill="#A69C7F" points="205.4,285 191.2,331.7 209.3,334.8 211.3,286 			"/>
			<path fill="#D1C6A1" d="M85.5,278.4c0,13.8,35.2,23.9,80.1,22.2c49.6-1.8,88.8-6,73.5-42.3c-13.5-32.1-51.8-21.7-89.5-13.4
				C101.2,255.5,85.5,259.4,85.5,278.4z"/>
			<polygon fill="#D1C6A1" points="182.9,286.2 192.9,340.6 172.3,344.2 176.3,287.3 			"/>
			<polygon fill="#D1C6A1" points="233,286.2 242.9,340.6 222.3,344.2 226.3,287.3 			"/>
			<polygon fill="#4B5461" points="98.7,269.8 140.3,269.8 136.7,258 98.7,258.8 			"/>
			<path fill="#6E6157" d="M132.7,174.8c38,53.1,44,111.2,44,111.2l-40.7-0.6l-0.8-29.6l-16.1-0.3v-82.3L132.7,174.8z"/>
			<path fill="#6E6157" d="M97.3,204.2c0,0-7.4,20.7-17,23.2c-12.5,3.3-25.5,1.1-25.5,1.1l-0.8,20.1c0,0,17.4,4.5,33.6-4.4
				c16.2-8.9,15.7-34.1,15.7-34.1L97.3,204.2z"/>
			<path fill="#B07549" d="M73.6,246.4c-1.7-3.3,1-8.1,6-10.6c5-2.6,10.5-1.9,12.2,1.4c0.6,1.1,0.6,2.4,0.3,3.7
				c-1.4,1.3-2.9,2.5-4.7,3.4c-3.8,2.1-7.7,3.4-11.4,4.3C75,248,74.1,247.3,73.6,246.4z"/>
			<polygon fill="#6E6157" points="105.9,173.3 124.1,173.3 124.1,255.6 105.3,255.2 104.5,284.8 76.2,283.8 			"/>
			<polygon fill="#F9D773" points="104.5,189.2 100.9,247.3 104.4,259.1 135.5,259.7 137.9,189.8 			"/>
			<g>
				<path fill="#A69C7F" d="M112,268.3c0.1,1.3,0.1,2.7,0.1,4c0,1.3,0.1,2.7,0,4c0,2.7,0,5.4-0.1,8l-0.6-0.8
					c2.2,0.3,4.4,0.6,6.6,0.9c2.2,0.3,4.4,0.7,6.6,1l-0.9,0.9c-0.5-3.1-1-6.3-1.4-9.4c-0.2-1.6-0.4-3.1-0.6-4.7
					c-0.2-1.6-0.4-3.1-0.5-4.7c0.4,1.5,0.8,3.1,1.1,4.6c0.4,1.5,0.7,3.1,1.1,4.6c0.7,3.1,1.3,6.2,1.9,9.3l0.2,1.1l-1.1-0.2
					c-2.2-0.3-4.4-0.6-6.6-1c-2.2-0.3-4.4-0.7-6.6-1.1l-0.7-0.1l0-0.6c0.2-2.7,0.4-5.4,0.6-8c0.1-1.3,0.2-2.7,0.4-4
					C111.7,271,111.8,269.7,112,268.3z"/>
			</g>
			<polygon fill="#E2E5E7" points="108.9,258.7 108.7,270.2 124.1,270.2 124.6,259.2 			"/>
			<ellipse fill="none" stroke="#CFB35F" stroke-width="0.8287" stroke-miterlimit="10" cx="119" cy="219.4" rx="2.1" ry="1.9"/>
			<ellipse fill="none" stroke="#CFB35F" stroke-width="0.8287" stroke-miterlimit="10" cx="119.1" cy="238.8" rx="2.1" ry="1.9"/>
			<g>
				<path fill="#50463F" d="M83.8,258.9c1.7-0.1,3.3-0.2,5-0.2c1.7-0.1,3.3-0.1,5-0.1l0.5,0l0,0.5c-0.1,3.2-0.2,6.4-0.4,9.6
					c-0.2,3.2-0.4,6.4-0.7,9.5l-0.1,0.6l-0.6,0c-2.2-0.1-4.4-0.3-6.6-0.4c-2.2-0.2-4.4-0.4-6.6-0.6c2.2-0.1,4.4-0.2,6.6-0.2
					c2.2,0,4.4,0,6.6,0l-0.6,0.6c0.1-3.2,0.3-6.4,0.5-9.6c0.2-3.2,0.5-6.4,0.8-9.5l0.5,0.5c-1.7-0.1-3.3-0.2-5-0.3
					C87.1,259.2,85.5,259.1,83.8,258.9z"/>
			</g>
			<polygon fill="#D1C6A1" points="136.6,286.2 146.6,340.6 126,344.2 130,287.3 			"/>
			<path fill="#B4B7B8" d="M69.2,179.7c2,11.8,3.8,20.6-5.5,32.8c0,0,24.9-0.7,32.4-13.6s4-9.9,3.7-10.9s-15.3-8.9-15.3-8.9
				L69.2,179.7"/>
			<path fill="#E2E5E7" d="M58.3,154.5c0,0-27.2-33.6-2.6-62.7l7.2,18.5c0,0,2.6-37.8,52.9-46.1l-15.5,21.4
				c54.4-9.4,114.5,11.3,115.9,58.4L58,154.5"/>
			<g>
				<path fill="#7EA6B3" d="M93.5,124.1c-2-3.6-3.1-7.8-3.1-12.1c0-2.1,0.3-4.3,0.8-6.3c0.6-2.1,1.4-4.1,2.5-5.9
					c1.1-1.8,2.5-3.5,3.9-5.1c0.8-0.7,1.5-1.5,2.4-2.1c0.4-0.3,0.8-0.7,1.2-1l1.3-0.9c3.5-2.4,7.3-4.1,11.3-5.2
					c-3.6,2-7.1,4.1-10.2,6.7c-3.1,2.5-5.9,5.4-7.9,8.8c-2,3.4-3.2,7.2-3.5,11.2C92,116.1,92.4,120.1,93.5,124.1z"/>
			</g>
			<g>
				<path fill="#7EA6B3" d="M150.4,124c1.3-3.5,3.3-6.8,5.7-9.6c2.4-2.9,5.3-5.4,8.5-7.5l1.2-0.8c0.4-0.3,0.8-0.5,1.3-0.7
					c0.8-0.4,1.7-0.9,2.5-1.3c1.8-0.7,3.5-1.5,5.4-1.9l1.4-0.4c0.5-0.1,0.9-0.2,1.4-0.3l2.8-0.4c0.9-0.1,1.9-0.1,2.8-0.1
					c0.9,0,1.9,0,2.8,0c-0.9,0.2-1.8,0.4-2.7,0.6c-0.9,0.2-1.8,0.3-2.7,0.6l-2.6,0.8c-0.9,0.2-1.7,0.6-2.6,0.9
					c-3.4,1.2-6.6,2.9-9.6,4.9c-3,1.9-5.8,4.2-8.4,6.8C154.9,118.2,152.5,121,150.4,124z"/>
			</g>
			<g>
				<path fill="#7EA6B3" d="M97.1,124.3c0.3-2.6,1.3-5.1,2.4-7.5c1.1-2.4,2.5-4.6,4-6.8c3.1-4.3,6.9-8,11-11.3l3.2-2.4l3.3-2.1
					l1.7-1l1.7-0.9c1.2-0.6,2.3-1.2,3.5-1.8c2.4-1.1,4.8-2,7.2-3c2.5-0.8,5-1.6,7.5-2.3c-2.3,1.2-4.7,2.3-7,3.4l-3.4,1.8
					c-1.1,0.6-2.3,1.1-3.4,1.8c-1.1,0.7-2.2,1.3-3.3,2l-1.7,1l-1.6,1.1l-3.2,2.1l-3,2.3c-4,3.1-7.8,6.6-11,10.5
					c-1.6,2-3.2,4-4.5,6.2C99.2,119.5,98,121.8,97.1,124.3z"/>
			</g>
			<path fill="#8DD3D5" d="M11.6,136c1.7-3.5,27.9-1.5,47.8,7.6c19.9,9.1,23.2,18.8,23.2,18.8L81.5,178c0,0-24,2.3-41-4.9
				C23.4,165.9,9.9,139.5,11.6,136z"/>
			<path fill="#00AFBA" d="M59.8,170.2c0.6-8.9,7.1-6.7,7.1-6.7s-13.8-12.6-32.4-17.9c-7.7-2.2-15.4-3.4-21.9-4
				c3.6,9.1,14.6,26,27.7,31.6c6.8,2.9,14.7,4.2,21.7,4.8C60.7,175.7,59.7,173.1,59.8,170.2z"/>
			<path fill="#8DD3D5" d="M258.1,120.2c-3.8-3.3-40.9,2.9-66.3,15.4c-25.4,12.5-28,43.9-28,43.9l8.8-5.3c0,0,35.5-1.4,57.5-11.5
				C252.1,152.7,261.9,123.5,258.1,120.2z"/>
			<path fill="#00AFBA" d="M201,162.8c-4.1-9-12.8-5.8-12.8-5.8s15.3-15.1,40.3-23.4c10.3-3.5,21.1-5.9,30.1-7.5
				c-1.9,9.9-11.5,28.9-28.5,36.7c-8.8,4-19.7,6.7-29.7,8.4C201.8,168.6,202.3,165.7,201,162.8z"/>
			<path fill="#8DD3D5" d="M59.5,138c0,0,19.3-14.2,70.6-15c51.3-0.8,62.2,15,62.2,15s-6.6,65.2-75.5,69.5c-15.2,1-22.1-6-30.4-12
				c-5.1-3.7-15.4-5.7-18.5-10.8C55.4,164.4,59.5,138,59.5,138z"/>
			<path fill="#414042" d="M86.1,166.1c4.5-1.1,9.3,2.1,11.8,7.3c-0.1-1.1-0.2-2.2-0.5-3.3c-1.7-7.1-7.5-11.8-12.9-10.5
				c-5.4,1.3-8.3,8.1-6.5,15.2c0.3,1.1,0.7,2.2,1.1,3.1C78.8,172.2,81.6,167.2,86.1,166.1z"/>
			<path fill="#414042" d="M145.5,160.3c4.6-0.3,8.8,3.7,10.2,9.3c0.1-1.1,0.2-2.2,0.1-3.3c-0.4-7.3-5.2-12.9-10.7-12.6
				c-5.5,0.3-9.6,6.5-9.2,13.7c0.1,1.1,0.3,2.2,0.5,3.3C137.2,165,140.9,160.6,145.5,160.3z"/>
			<polygon fill="#9B8F78" points="154.7,218.3 128.4,189.4 114.8,191.4 114.3,202.1 133.4,202.5 135.5,268.9 150.2,228.5 
				144,220.3 			"/>
			<polygon fill="#9B8F78" points="118.5,191.6 92.5,218.8 102.2,224.7 95.6,227.6 105.5,270.1 112.6,201.9 119.3,202.1 
				119.8,191.4 			"/>
			<path fill="#FFFFFF" d="M106.6,151.1c1.2-9.8-1.4-21.8-8-26.2c-4.2-2.8-3.1,11.7-3.1,11.7s-24.8-26.4-24-15.3s9.4,15.4,9.4,15.4
				s-23-10.4-27.6-5.5c-2.1,2.2,6.7,12.6,6.7,12.6s-30.9,3-4.5,12.5c6.3-2.4,19.5-4.7,19.4-5.7c-0.1-1,16.8-0.6,16.8-0.6
				L106.6,151.1z"/>
			<path fill="#FFFFFF" d="M125.2,149.7c-2.7-9.5-1.9-21.7,4-27.1c3.7-3.4,4.8,11.1,4.8,11.1s20.6-29.7,21.4-18.7
				c0.8,11.1-7,16.6-7,16.6s21.2-13.7,26.4-9.5c2.4,1.9-7.5,15-7.5,15s33.7-3.1,9,10.2c-6.6-1.4-20-1.8-20.1-2.8
				c-0.1-1-16.7,1.9-16.7,1.9L125.2,149.7z"/>
			<path fill="none" stroke="#02313B" stroke-width="4.9724" stroke-miterlimit="10" d="M59.4,155.7c0,0,23.3-9,48.2-4.3
				c0,0,10.2,35.9-24,37.3C56.8,189.8,59.4,155.7,59.4,155.7z"/>
			<path fill="none" stroke="#02313B" stroke-width="4.9724" stroke-miterlimit="10" d="M172.2,147.4c0,0-24.4-5.4-48.3,2.8
				c0,0-4.7,37,29.3,33.4C179.9,180.7,172.2,147.4,172.2,147.4z"/>
			<line fill="none" stroke="#02313B" stroke-width="3.315" stroke-miterlimit="10" x1="108.2" y1="155.2" x2="124" y2="154"/>
			<path fill="none" stroke="#02313B" stroke-width="3.315" stroke-miterlimit="10" d="M108.3,166.2c0,0,7.7-10.7,16.3-1.2"/>
			<g>
				<g>
					<path fill="#50463F" d="M147.9,255l0.9,11.8l0.8,11.5l-0.5-0.5c3.3-0.1,6.7-0.1,10-0.1l10-0.1l-0.7,0.8l-1.6-11.8
						c-0.5-3.9-1.1-7.9-1.5-11.8l0.5,0.4c-2.9,0-5.9,0-8.9,0L147.9,255z M147.9,255l8.9-0.5c3-0.2,6.1-0.3,9.1-0.4l0.4,0l0.1,0.4
						c0.6,3.9,1.2,7.9,1.8,11.8l1.7,11.8l0.1,0.8l-0.8,0l-10,0c-3.3,0-6.7,0-10,0l-0.5,0l0-0.5l-0.4-11.8L147.9,255z"/>
				</g>
			</g>
			<path fill="#8CD3D4" d="M131.5,241c0.4-0.2,0.6-0.3,0.6-0.3S131.9,240.8,131.5,241z"/>
			<path fill="#8CD3D4" d="M169.2,230c-9.9,5-17.4,5.7-27.5,3c0,0,0-0.1,0-0.3l-8.3-0.6c0.3,0.4,0.5,0.7,0.5,0.7s-1.3-1.3-7.4,1.2
				c-3.6,1.5-9.7,6.1-8.1,9.1c1.3,2.5,6.8,0.1,8.5-0.7c0.4-0.2,0.6-0.3,0.6-0.3s-0.2,0.1-0.6,0.3c-1.9,1-7.5,4.3-5,7.8
				c2.9,4.2,10.6-1.7,10.6-1.7s-6,6.9-1.9,7.6c4.1,0.7,11.8-10.3,11.8-10.3l29.1-3.8L169.2,230z"/>
			<g>
				<path fill="#50463F" d="M162.9,230.7c-1,0.3-2,0.4-3,0.5c-1,0.1-2,0.1-3,0.1c-1,0-2-0.1-3-0.2c-1-0.1-2-0.3-3-0.6
					c1-0.3,2-0.4,3-0.5c1-0.1,2-0.1,3-0.1c1,0,2,0.1,3,0.2C160.9,230.2,161.9,230.4,162.9,230.7z"/>
			</g>
			<g>
				<path fill="#E2E5E7" d="M90.5,193.4c-2.2,12.4,5.2,22.3,13.7,26.7l0-5.1l16.7,19l10.5-18.9l4.3,7.5c9.3-5.9,18.6-17.1,15.1-32.1
					l-33.7-6.5L90.5,193.4z"/>
				<path fill="#FFFFFF" d="M116.5,171.6c-40.2,1.8-31.1,29.1-71.2,25.8c0,0,46.1,12.5,71.9-8.9c0,0,28.6,24.7,72.4,2
					C148.6,195.4,157.9,169.8,116.5,171.6z"/>
				<polygon fill="#FFFFFF" points="105.2,194.5 108.9,203.9 114.7,198.5 122.1,207.5 123,197.9 130.1,203.2 134.5,194.7 
					126.9,187.7 117.8,189.2 111.1,188.4 				"/>
				<g>
					<path fill="#B4B7B8" d="M111.7,180.9c-0.8,1.1-1.5,2.3-2.1,3.4c-0.6,1.2-1.2,2.3-1.6,3.6c-0.5,1.2-0.8,2.5-1.1,3.7
						c-0.3,1.3-0.4,2.6-0.7,4c-0.4-1.3-0.7-2.7-0.6-4.2c0-1.4,0.3-2.8,0.8-4.2c0.5-1.3,1.2-2.6,2.1-3.7
						C109.4,182.5,110.4,181.5,111.7,180.9z"/>
				</g>
				<g>
					<path fill="#B4B7B8" d="M115.7,182c-0.4,1.5-0.6,2.9-0.9,4.3c-0.2,1.4-0.4,2.8-0.4,4.3c-0.1,1.4-0.1,2.9,0.1,4.3
						c0.1,1.4,0.3,2.9,0.4,4.4c-0.8-1.3-1.4-2.7-1.7-4.2c-0.4-1.5-0.5-3-0.4-4.5c0.1-1.5,0.3-3,0.8-4.5
						C114.1,184.6,114.7,183.2,115.7,182z"/>
				</g>
				<g>
					<path fill="#B4B7B8" d="M121.8,182.4c0,0.9,0.1,1.8,0.4,2.6c0.1,0.4,0.3,0.8,0.4,1.2c0.2,0.4,0.4,0.8,0.6,1.1
						c0.9,1.4,2,2.8,3.3,3.9c0.6,0.6,1.3,1.1,2,1.7l2.1,1.5c0.8,0.5,1.5,1,2.2,1.4c0.8,0.5,1.5,0.9,2.3,1.5
						c-0.9-0.2-1.8-0.5-2.6-0.7c-0.9-0.3-1.7-0.7-2.5-1c-0.8-0.4-1.6-0.9-2.4-1.3l-1.1-0.8c-0.4-0.3-0.7-0.6-1.1-0.9
						c-1.4-1.2-2.6-2.8-3.3-4.5c-0.2-0.4-0.3-0.9-0.5-1.3c-0.1-0.5-0.2-0.9-0.2-1.4C121.4,184.2,121.5,183.3,121.8,182.4z"/>
				</g>
				<path fill="#00AFBA" d="M131.1,174.8c0,5.5-5.5,11.1-13,11.1c-7.5,0-14.2-5.6-14.2-11.1c0-5.5,6.1-10,13.6-10
					C125,164.9,131.1,169.3,131.1,174.8z"/>
			</g>
			<path fill="#8CD3D4" d="M137.7,221.9c-3.9-4-8.1-4.1-10-2.3c-1.6,1.5,3.9,10,5.6,12.4l8.3,0.6
				C141.5,231.2,141.1,225.4,137.7,221.9z"/>
			<path fill="#6E6157" d="M172.9,233c-2.4-6-0.8-12.2,3.5-13.9c0.1-0.1,0.3-0.1,0.4-0.1c-9.9-11.8-23.3-14.7-23.3-14.7l-5.4-1.6
				l1.6,7.6c0,0,14,8.9,15.4,16.2c1.3,7.3-14.3,4-14.3,4l1.1,17.8c0,0,11.3-1.1,18.9-3.2c2.9-0.8,6.4-2.3,9-4.5
				C176.9,239.3,174.3,236.6,172.9,233z"/>
			<g>
				<path fill="#50463F" d="M167.2,245.8c-2.4,1-5,1.7-7.5,2.2c-1.3,0.2-2.6,0.4-3.9,0.6c-1.3,0.1-2.6,0.2-3.9,0.2l-0.5,0l0-0.4
					c0-1.6,0-3.2,0.1-4.8c0.4,1.6,0.7,3.1,0.9,4.7l-0.5-0.5l3.8-0.4c1.3-0.2,2.6-0.3,3.8-0.5C162,246.4,164.6,246,167.2,245.8z"/>
			</g>
			<path fill="#B07549" d="M179.3,222.3c-0.8-1.2-1.7-2.3-2.6-3.3c-0.1,0-0.3,0.1-0.4,0.1c-4.3,1.7-5.8,7.9-3.5,13.9
				c1.4,3.6,4,6.3,6.8,7.5C183.7,236.9,185.4,231.2,179.3,222.3z"/>
		</g>
	</g>
</g>
<g id="Layer_21">
</g>
</svg>
