<svg id="headmaster" xmlns="http://www.w3.org/2000/svg" viewBox="0 0 296 282" width="296" height="282" preserveAspectRatio="none"><defs><style>.cls-1{fill:#d44f27;}.cls-2{fill:#f69320;}.cls-3{fill:#97d6d4;}.cls-4{fill:#228dbb;}.cls-5{fill:#384f7e;}.cls-5,.cls-8{opacity:0.1;}.cls-6{fill:#cb263b;}.cls-7{fill:#791316;}.cls-8{fill:none;}.cls-9{fill:#603b17;}.cls-10{fill:#fffce8;}.cls-11{fill:#3b1026;}.cls-12{fill:#999484;}.cls-13{fill:#d2d3d4;}.cls-14{fill:#cc253c;}.cls-15{fill:#2e8bcb;}.cls-16{fill:#fff;}.cls-17{fill:#6e6f72;}.cls-18{fill:#fee56a;}.cls-19{fill:#f7b319;}</style></defs><path class="cls-1" d="M103.69,10.51s36.65-2.92,99.38,70.85,32.51,103.85,32.51,103.85-17.15,4.33-34.17,10c-19.76,6.59-26.51,26.71-26.51,26.71s-15.35-21-29.59-15.73C132.92,210.75,133.47,219,133.47,219L113,195.59s17.6-35.26,12.5-88.74S103.69,10.51,103.69,10.51Z" /><path class="cls-2" d="M186.66,8.79S236.24,18,270.15,93.4c23.21,51.61,18.63,127.44,18.63,127.44l-29-53.14-83-13-42,44-6.46-45.43s34.92-15.19,58.22-60.9C208.92,48.38,186.66,8.79,186.66,8.79Z" /><path class="cls-3" d="M207.64,36s26.58,10.59,56.54,70.5c19.95,39.9,24.6,114.39,24.6,114.39s-21-27.14-46-25.14c-24.5,2-41.11,26.08-41.11,26.08S194.76,189,168.73,188.7s-33,20-33,20l-6.15-46.87S166.3,145.38,192.32,100C212.71,64.41,207.64,36,207.64,36Z" /><path class="cls-4" d="M221.13,70.55a20.18,20.18,0,0,1,1.31,1.83l1.15,2,1,2,.49,1,.4,1.06a68.34,68.34,0,0,1,2.72,8.65,84.76,84.76,0,0,1,1.48,9l.47,4.52.12,4.54c0,1.51.1,3,.1,4.54l-.24,4.53-.24,4.53c-.09,1.51-.34,3-.5,4.51l-.58,4.5c-.2,1.49-.33,3-.67,4.48l-1.74,8.89-.45,2.22c-.16.74-.37,1.46-.56,2.19l-1.16,4.38L223,154.26c-.41,1.45-.71,2.94-1.22,4.36L219,167.2c-1,2.85-1.83,5.75-3,8.52l-3.35,8.39-1.69,4.19-.85,2.09-.95,2.05c-2.58,5.44-5.08,10.91-7.72,16.31,2.18-5.61,4.49-11.15,6.72-16.72L209,190l.77-2.12,1.52-4.24,3.07-8.45c.52-1.41,1-2.81,1.45-4.25l1.35-4.29,2.69-8.57c.84-2.88,1.52-5.79,2.29-8.68l1.13-4.34c.18-.73.39-1.45.55-2.18l.43-2.2,1.78-8.79c.34-1.46.47-2.94.68-4.42l.61-4.44c.19-1.48.47-3,.58-4.44l.31-4.46.32-4.47c.05-1.49,0-3,0-4.47v-4.48l-.32-4.46a88.38,88.38,0,0,0-1.09-8.87,68.06,68.06,0,0,0-2.23-8.67A33.46,33.46,0,0,0,221.13,70.55Z" /><ellipse class="cls-5" cx="123.72" cy="257.75" rx="116.87" ry="15.46" /><path class="cls-2" d="M176.09,166.93c-.31-1.41-2.75-4-12-8.76-16.92-8.66-38.56-9.06-38.56-9.06l2.79,11.29a68.73,68.73,0,0,1,37.32,7.17s-12.9,8.73-21.53,14.73c3.1,3.42,9.49,9.17,9.49,9.17S176.34,168.09,176.09,166.93Z" /><path class="cls-6" d="M125.83,149c7.71.57,15.46,1.32,22.21,3.32l-2.87,9.38-19.88-1.5.23-9.43Z" /><path class="cls-7" d="M143.29,151.49a23.93,23.93,0,0,1-2.37,9.62,24.18,24.18,0,0,1,2.37-9.62Z" /><path class="cls-1" d="M138.86,207.21S147.58,227,160.61,234s55.77,5.57,64.89,14.12c3.91,3.68-44.43,9.61-65.15,9.88-42.56.56-58.83-39.6-58.83-39.6Z" /><ellipse class="cls-8" cx="127.8" cy="257.75" rx="116.87" ry="15.46" /><path class="cls-2" d="M137.81,52.15s5.41,33.15.64,51.87C133.6,123.1,126,155.86,126,155.86l-8.79,8-8.86-10.06s-.08-6.18-14.59-36.42S82.52,53,82.52,53s9-3.63,27-4.59S137.81,52.15,137.81,52.15Z" /><polygon class="cls-4" points="117.93 156.78 117.75 156.93 117.58 156.78 117.93 156.78" /><path class="cls-9" d="M140.43,200.52c.45,2,.91,4,1.35,5.93l-46.86,0q1-3,2-5.89Z" /><path class="cls-6" d="M107.06,149l10.47,8.08.22-.18.22.18L128.44,149s6.17,26.13,12,51.49H96.89C106.31,171.11,107.06,149,107.06,149Z" /><path class="cls-2" d="M127.92,90.58S124.16,113,94.81,110.66C68.34,108.52,56,99.29,56,99.29S59.42,81.16,75,80s30.42,13.12,30.42,13.12Z" /><path class="cls-2" d="M175.24,81s-6.46-2-18.41,2.45a94.64,94.64,0,0,0-21.85,12L131.84,104s.27,10.68,17.08,5.22S175.24,81,175.24,81Z" /><path class="cls-10" d="M106.28,76.66c-.39,4.82,2.25,9,5.89,9.25s6.91-3.37,7.3-8.18-2.25-9-5.89-9.26S106.67,71.84,106.28,76.66Z" /><path class="cls-10" d="M94.52,76.78c-.34,4.23,1.86,7.86,4.91,8.1s5.79-3,6.14-7.21-1.86-7.85-4.91-8.1S94.87,72.55,94.52,76.78Z" /><path class="cls-11" d="M109,78.46c-.18,2.13,1.15,4,3,4.12s3.41-1.46,3.58-3.6-1.15-4-3-4.12S109.14,76.32,109,78.46Z" /><path class="cls-11" d="M98,78.27a3,3,0,1,0,3.2-3.17A3.21,3.21,0,0,0,98,78.27Z" /><path class="cls-1" d="M106.56,96.72a22.68,22.68,0,0,0-5.12-6.51,32.06,32.06,0,0,0-6.82-4.69,47.16,47.16,0,0,0-15.76-4.67,20.77,20.77,0,0,0-8,.52A16.22,16.22,0,0,0,64,85.22c-3.87,3.65-6.11,9-7,14.19l-.46-1a77.35,77.35,0,0,0,9.13,4.36,94.84,94.84,0,0,0,9.6,3.36,88.13,88.13,0,0,0,20,3.51,53.39,53.39,0,0,0,10.12-.22,29,29,0,0,0,9.59-2.87,21.77,21.77,0,0,0,7.66-6.42,22,22,0,0,0,2.56-4.38,20.33,20.33,0,0,0,1.52-4.88,22.15,22.15,0,0,1-11.23,16.63,29.5,29.5,0,0,1-9.9,3.33,54,54,0,0,1-10.39.5,85.48,85.48,0,0,1-20.46-3.33,87.36,87.36,0,0,1-19.19-7.92L55,99.8l.1-.63a29.79,29.79,0,0,1,2.6-8.26,23.08,23.08,0,0,1,5.11-7,17.75,17.75,0,0,1,7.66-4.13A22.15,22.15,0,0,1,79,79.41a45.88,45.88,0,0,1,16,5.34,32.92,32.92,0,0,1,6.73,5.11A21.62,21.62,0,0,1,106.56,96.72Z" /><path class="cls-11" d="M110.19,59a17,17,0,0,1,11.19,2.61c.07-.27.14-.55.22-.82a17,17,0,0,0-11-3.19Z" /><path class="cls-11" d="M105.61,63.19A17,17,0,0,0,94.46,66c-.07-.27-.15-.55-.23-.82a17,17,0,0,1,11-3.35C105.35,62.26,105.48,62.73,105.61,63.19Z" /><path class="cls-1" d="M168.2,86.32a39.73,39.73,0,0,0-8.51,1.83,47.57,47.57,0,0,0-8,3.39A21.59,21.59,0,0,0,145.19,97a24,24,0,0,0-4.16,7.42l-.8-.39a24.25,24.25,0,0,1,3.5-3.66,11.65,11.65,0,0,1,4.46-2.44A4.9,4.9,0,0,1,153,99.42a2.47,2.47,0,0,1,.43,2.47A5.34,5.34,0,0,1,152,104a5.55,5.55,0,0,0,1.2-2.12,2.21,2.21,0,0,0-.51-2.17,4.51,4.51,0,0,0-2.05-1.13,4.18,4.18,0,0,0-2.3,0,10.87,10.87,0,0,0-4.08,2.46,25.43,25.43,0,0,0-3.3,3.58l-1.6,2.12.8-2.51a23.7,23.7,0,0,1,4.27-7.81,22.43,22.43,0,0,1,6.87-5.61,43.05,43.05,0,0,1,8.23-3.17A33.55,33.55,0,0,1,168.2,86.32Z" /><path class="cls-1" d="M72.07,87.42a2.88,2.88,0,0,0-.38.22,3.54,3.54,0,0,0-1.1,1.88,3.81,3.81,0,0,1,.64-2.33,3.13,3.13,0,0,1,1-.85,3.74,3.74,0,0,1,1.31-.43v0a2.73,2.73,0,0,1,.51-.07c1.13,0,2.07.58,2.09,1.36s-.88,1.43-2,1.46S72.14,88.17,72.07,87.42Z" /><path class="cls-1" d="M90.67,89.18a3.11,3.11,0,0,1,.29.33,3.59,3.59,0,0,1,.4,2.14,3.84,3.84,0,0,0,.18-2.41,3.15,3.15,0,0,0-.68-1.14,3.79,3.79,0,0,0-1.09-.85l0,0a3.94,3.94,0,0,0-.46-.23c-1.05-.41-2.14-.15-2.42.57s.35,1.65,1.41,2.06A1.86,1.86,0,0,0,90.67,89.18Z" /><path class="cls-1" d="M125.29,89.84a1.46,1.46,0,0,0,2.91.23,1.46,1.46,0,0,0-2.91-.23Z" /><path class="cls-1" d="M104.09,116a21.84,21.84,0,0,0,3.92.33,12.43,12.43,0,0,0,3.76-.6,13.28,13.28,0,0,0,3.39-1.74,14.14,14.14,0,0,0,2.87-2.66,8.71,8.71,0,0,1-2.38,3.27,10.53,10.53,0,0,1-3.56,2.08,10.09,10.09,0,0,1-4.11.43A10.89,10.89,0,0,1,104.09,116Z" /><path class="cls-7" d="M117.53,157.11c2.49,3.07,4.83,6.24,7.13,9.45l-.86.17c1.34-6,2.81-12,4.65-17.85-1,6.45-2.43,12.8-4,19.13-2.41-3.57-4.77-7.18-7-10.9Z" /><path class="cls-2" d="M89.9,183.16S96.3,187,98,193.79c1.58,6.46-8.32,21.51-11,20.85s1.18-10.23,1.18-10.23-6.5,9.78-9,9.05S83,202.05,83,202.05s-9.42,5.83-10.6,2.66,9.81-7,9.81-7-4.59-2.41-3.21-7.21l8.53-8.95Z" /><path class="cls-2" d="M56.75,166.93c.31-1.41,2.74-4,12-8.76,16.92-8.66,38.56-9.06,38.56-9.06l-2.79,11.29a68.78,68.78,0,0,0-37.33,7.17S80.1,176.3,88.72,182.3c-3.09,3.42-9.48,9.17-9.48,9.17S56.5,168.09,56.75,166.93Z" /><path class="cls-6" d="M107,149c-7.71.57-15.46,1.32-22.21,3.32l2.88,9.38,19.87-1.5-.22-9.43Z" /><path class="cls-7" d="M89.54,151.49a24,24,0,0,1,2.38,9.62,24.1,24.1,0,0,1-2.38-9.62Z" /><circle class="cls-7" cx="117.61" cy="161.52" r="1.42" /><circle class="cls-7" cx="117.61" cy="166.12" r="1.42" /><path class="cls-12" d="M94.92,206.41s-.87,6,1.32,10.2l44.76-.13s3.82-5.39.78-10Z" /><path class="cls-7" d="M117.53,157.11c-2.17,3.72-4.53,7.33-6.94,10.9-1.54-6.33-3-12.68-4-19.13,1.85,5.88,3.31,11.84,4.66,17.85l-.86-.17c2.29-3.21,4.63-6.38,7.12-9.45Z" /><rect class="cls-12" x="101.52" y="200.32" width="2.56" height="6.4" transform="translate(205.6 407.04) rotate(180)" /><rect class="cls-12" x="131.05" y="200.22" width="2.99" height="6.72" transform="translate(265.09 407.15) rotate(180)" /><rect class="cls-13" x="111.11" y="200.11" width="12.15" height="6.61" transform="translate(234.38 406.83) rotate(180)" /><path class="cls-14" d="M72.19,257.11c5.46-5.72,25-2.87,25-2.87l17,.5,1.37,5.13-41,1.28Z" /><polygon class="cls-15" points="95.85 253.75 98.17 260.73 100.74 260.73 98.82 253.91 95.85 253.75" /><polygon class="cls-15" points="100.18 253.75 102.51 260.73 105.07 260.73 103.15 253.91 100.18 253.75" /><polygon class="cls-15" points="104.51 253.75 106.84 260.73 109.41 260.73 107.48 253.91 104.51 253.75" /><path class="cls-16" d="M72.19,257.11c3,.27,4.31,1.48,5.27,3.56l37.79-2.08.92,3.65L72,263.08s-2.09-2.84-.34-5.34A6.21,6.21,0,0,1,72.19,257.11Z" /><path class="cls-12" d="M98.25,215.07s-8.41,14.78-4.16,38.84l22.33,1.84s-12.31-26-4.83-40.34Z" /><path class="cls-14" d="M164.65,257.11c-5.46-5.72-25-2.87-25-2.87l-17,.5-1.37,5.13,41.05,1.28Z" /><polygon class="cls-15" points="140.78 253.75 138.45 260.73 135.89 260.73 137.81 253.91 140.78 253.75" /><polygon class="cls-15" points="136.45 253.75 134.12 260.73 131.56 260.73 133.48 253.91 136.45 253.75" /><polygon class="cls-15" points="132.12 253.75 129.79 260.73 127.22 260.73 129.15 253.91 132.12 253.75" /><path class="cls-16" d="M164.65,257.11c-3,.27-4.31,1.48-5.27,3.56l-37.79-2.08-.92,3.65,44.16.84s2.09-2.84.34-5.34A5.11,5.11,0,0,0,164.65,257.11Z" /><path class="cls-12" d="M138.59,215.07s8.41,14.78,4.16,38.84l-22.33,1.84s12.31-26,4.83-40.34Z" /><path class="cls-2" d="M142.94,183.16s-6.4,3.82-8.07,10.63c-1.58,6.46,8.32,21.51,11,20.85s-1.18-10.23-1.18-10.23,6.5,9.78,9,9.05-3.94-11.41-3.94-11.41,9.41,5.83,10.59,2.66-9.8-7-9.8-7,4.59-2.41,3.21-7.21l-8.53-8.95Z" /><path class="cls-17" d="M106.83,207.15a8.67,8.67,0,0,1-2,2.48,11.15,11.15,0,0,1-2.69,1.76,14,14,0,0,1-1.52.58,10.62,10.62,0,0,1-1.59.3,8.66,8.66,0,0,1-3.17-.2,23.89,23.89,0,0,0,3-.57,15.36,15.36,0,0,0,2.83-1A22.4,22.4,0,0,0,106.83,207.15Z" /><path class="cls-17" d="M127,207.15a22.62,22.62,0,0,0,5.1,3.34,15.63,15.63,0,0,0,2.83,1,24.05,24.05,0,0,0,3,.57,8.73,8.73,0,0,1-3.18.2,10.86,10.86,0,0,1-1.59-.3,14,14,0,0,1-1.52-.58,11.15,11.15,0,0,1-2.69-1.76A8.84,8.84,0,0,1,127,207.15Z" /><path class="cls-18" d="M51.54,46.11,94.6,50.5l48,4.49-1.09-8.4C136.67,36.38,95.26,17.35,51.54,46.11Z" /><path class="cls-18" d="M130.85,62.59c1.09-10,5.9-15.37,5.9-15.37l8,3.07s3.46,5.12,2.62,21.52-7.48,26.52-7.48,26.52S132.09,82.25,132.56,73a31.64,31.64,0,0,1,6.14-16.38Z" /><polygon class="cls-18" points="138.71 48.13 148.8 36.15 144.34 46.99 156.27 50.64 140.17 51.41 138.71 48.13" /><polygon class="cls-18" points="121.28 45.57 106.4 54.43 136.61 50.74 134.11 45.24 121.28 45.57" /><path class="cls-19" d="M97.06,33.74c12.82-1.36,24.5,2.27,32.88,12.41l-1.41-.34c-8.34-1.89-16.83-3.76-25.37-4.33a107.14,107.14,0,0,0-25.62,2.3,82.26,82.26,0,0,1,38.54-1.58q6.38,1.19,12.67,2.75l-.44.73C120.37,36.36,109,33,97.06,33.74Z" /><polygon class="cls-18" points="81.45 48.59 67.49 56.48 120.38 48.59 104.45 43.46 81.45 48.59" /></svg>