<?xml version="1.0" encoding="utf-8"?>
<!-- Generator: Adobe Illustrator 21.1.0, SVG Export Plug-In . SVG Version: 6.00 Build 0)  -->
<svg version="1.1" xmlns="http://www.w3.org/2000/svg" xmlns:xlink="http://www.w3.org/1999/xlink" x="0px" y="0px"
	 viewBox="0 0 313.1 362.6" enable-background="new 0 0 313.1 362.6" xml:space="preserve" width="313.1" height="362.6" preserveAspectRatio="none">
<g id="_x35_th_Grade">
	<g id="_x33__Stars">
	</g>
	<g id="_x32__Stars">
	</g>
	<g id="_x31__Star">
	</g>
	<g id="_x30__Stars">
	</g>
</g>
<g id="_x34_th_Grade">
	<g id="_x33__Stars_1_">
	</g>
	<g id="_x32__Stars_1_">
	</g>
	<g id="_x31__Star_1_">
	</g>
	<g id="_x30__Stars_1_">
	</g>
</g>
<g id="_x33_rd_Grade">
	<g id="_x33__Stars_3_">
	</g>
	<g id="_x32__Stars_3_">
		<g>
			<defs>
				<rect id="SVGID_9_" x="0" y="0" width="313.1" height="362.6"/>
			</defs>
			<clipPath id="SVGID_2_">
				<use xlink:href="#SVGID_9_"  overflow="visible"/>
			</clipPath>
			<g clip-path="url(#SVGID_2_)">
				<g>
					<path opacity="0.75" fill="#90D6ED" d="M274,33.1c-3.3-0.3-6.4-1.3-9.2-2.9c-3,6.3-8.6,11.3-15.9,13.3
						c-9.9,2.6-19.9-1.2-25.9-8.8c-1.6,8.4-7.7,15.5-16.4,17.8c-7,1.9-14.2,0.2-19.6-4c-2.5,8.9-9.4,16.3-18.9,18.8
						c-2.7,0.7-5.4,1-8,0.9c-14.4,22-19.8,50.1-12.4,77.8c13.7,51.2,65.5,81.8,115.9,68.3c50.3-13.4,80.1-65.8,66.4-117
						C321.8,67.2,300.5,44.2,274,33.1z"/>
					
						<ellipse transform="matrix(0.969 -0.247 0.247 0.969 -12.1357 48.099)" fill="#D1ECFA" cx="185.6" cy="72.4" rx="3.6" ry="3.6"/>
					
						<ellipse transform="matrix(0.969 -0.247 0.247 0.969 -21.3112 49.6064)" fill="#D1ECFA" cx="187" cy="109.7" rx="5.9" ry="5.9"/>
					<ellipse transform="matrix(0.969 -0.247 0.247 0.969 -7.2892 62.8959)" fill="#D1ECFA" cx="247" cy="60.5" rx="3.9" ry="3.9"/>
					
						<ellipse transform="matrix(0.969 -0.247 0.247 0.969 -4.8858 70.0214)" fill="#D1ECFA" cx="276.6" cy="54.5" rx="6.9" ry="6.9"/>
					
						<ellipse transform="matrix(0.969 -0.247 0.247 0.969 -11.3287 51.1598)" fill="#D1ECFA" cx="198.2" cy="70.7" rx="2.3" ry="2.3"/>
					<ellipse transform="matrix(0.969 -0.247 0.247 0.969 -28.3756 43.5227)" fill="#D1ECFA" cx="159.3" cy="134.8" rx="4" ry="4"/>
					
						<ellipse transform="matrix(0.969 -0.247 0.247 0.969 -31.9452 44.9255)" fill="#D1ECFA" cx="163.1" cy="149.8" rx="2.1" ry="2.1"/>
					
						<ellipse transform="matrix(0.969 -0.247 0.247 0.969 -18.4394 79.8032)" fill="#D1ECFA" cx="308.8" cy="113.4" rx="2.1" ry="2.1"/>
					
						<ellipse transform="matrix(0.969 -0.247 0.247 0.969 -20.562 43.9475)" fill="#D1ECFA" cx="164.9" cy="103.9" rx="4.7" ry="4.7"/>
				</g>
				<g>
					<path fill="#26221D" d="M97.6,265.8c0,0,1.3,1.7,3.1,1.7c1.7,0,16.2-0.8,16.2-0.8l-0.8,49.4l-24.2,5.2c0,0-0.7-30.8-0.7-31.6
						C91,289.1,97.6,265.8,97.6,265.8z"/>
					<g>
						<path fill="#26221D" d="M99.1,266.6c0,0,22.1-49.1-19.6-61.4c-41.7-12.3-71.3,66.2-71.3,66.2l22.2,9.8c0,0-4.9,28.2,13.5,39.3
							c18.4,11.1,51.1,0,51.1,0L99.1,266.6z"/>
						<path fill="#C8A260" d="M77.2,324.6c10-1.4,17.8-4,17.8-4l3-37.7l-14.6,3.6l-2.6-14.9l-24.1,3.6l-3.1-14.9l-27.2,3.6l-8-13.8
							c-6.4,11.9-10,21.4-10,21.4l22.2,9.8c0,0-0.7,4.1-0.6,9.9l21.6-3.2l9.2,8.2l19-2.6L77.2,324.6z"/>
						<path fill="#7C6D36" d="M8.2,271.4c1.9,0.6,3.9,1.2,5.8,1.9c1.9,0.6,3.8,1.3,5.7,2c1.9,0.7,3.8,1.4,5.7,2.1
							c1.9,0.7,3.8,1.4,5.7,2.1l-1.2-0.1l9.1-2.7c3.1-0.9,6.1-1.7,9.2-2.6l1.4-0.4l1.1,1.1c1.9,1.9,3.8,3.9,5.7,5.8l5.7,5.9
							l-2.4-0.8c3.3-0.5,6.5-1,9.8-1.5c3.3-0.5,6.5-0.9,9.8-1.3l3.2-0.4l-0.3,3c-0.3,3.3-0.6,6.5-1,9.8l-0.5,4.9
							c-0.2,1.6-0.4,3.2-0.6,4.9c-0.4,3.3-0.8,6.5-1.3,9.7c-0.5,3.2-1,6.5-1.6,9.7c-0.2-3.3-0.3-6.6-0.3-9.8
							c-0.1-3.3-0.1-6.6-0.1-9.8c0-1.6,0-3.3,0-4.9l0.1-4.9c0.1-3.3,0.2-6.5,0.3-9.8l2.9,2.6c-3.2,0.6-6.5,1.2-9.7,1.7
							c-3.2,0.6-6.5,1.1-9.7,1.6l-1.4,0.2l-1-1.1l-5.6-5.9c-1.9-2-3.7-4-5.5-6l2.5,0.7c-3.1,0.7-6.2,1.4-9.3,2l-9.3,1.9l-0.7,0.1
							l-0.5-0.3c-1.8-0.9-3.6-1.9-5.4-2.8c-1.8-0.9-3.6-1.9-5.4-2.8c-1.8-1-3.6-1.9-5.3-2.9C11.7,273.5,10,272.5,8.2,271.4z"/>
						<circle fill="#53687E" cx="47.4" cy="237.1" r="6.4"/>
						<circle fill="#53687E" cx="80" cy="221" r="3.3"/>
						<circle fill="#53687E" cx="56.8" cy="303.7" r="3.3"/>
						<circle fill="#53687E" cx="72" cy="244.9" r="3.3"/>
						<circle fill="#53687E" cx="84.3" cy="260.3" r="6.3"/>
						<circle fill="#53687E" cx="66.8" cy="321.9" r="4.2"/>
						<circle fill="#53687E" cx="39.1" cy="312.6" r="6.3"/>
						<circle fill="#53687E" cx="51.5" cy="212.5" r="6.7"/>
						<circle fill="#53687E" cx="101.8" cy="236.7" r="5.1"/>
					</g>
				</g>
				<path fill="#CA3C40" d="M178.5,223l-21.5-5.1c0,0,1.6,33.8-20.3,39.5c-21.8,5.7-36.8,1.8-36.8,1.8l-10,63.7
					c0,0,37.1,10.6,64.8-4c27.7-14.6,31.4-75,31.4-75L178.5,223z"/>
				<path fill="#F2CE30" d="M137.4,324.9l-3.1-66.9c-10.6,2.5-19.4,2.7-25.5,2.4l-6.2,9.5l9,12l9.2,0l2.1,23.4l-10.4,0.4l-10.1,9.9
					l6.8,10.7C117.4,326.9,127.4,326.9,137.4,324.9z"/>
				<circle fill="#EDA021" cx="116" cy="269.6" r="4.3"/>
				<circle fill="#EDA021" cx="116.9" cy="316.4" r="4.3"/>
				<g>
					<path fill="#A02D36" d="M200.3,85.6c-3.1-2.4-6.7-4.6-10.5-6.2c3.6,2.1,7.1,4.8,10,7.8C199.9,86.6,200.1,86.1,200.3,85.6z"/>
					<path fill="#A02D36" d="M197.3,87.1c-1.5-0.3-3-0.5-4.5-0.8c1.7,0.7,3.3,1.4,4.8,2.1C197.5,88,197.4,87.5,197.3,87.1z"/>
					<path fill="#A02D36" d="M206.6,84c-1.6-1.7-3.4-3.4-5.3-4.9c1.7,1.7,3.2,3.5,4.6,5.4C206.2,84.4,206.4,84.2,206.6,84z"/>
				</g>
				<polygon fill="#A02D36" points="235.5,77 234.7,64 232.7,76.6 				"/>
				<polygon fill="#A02D36" points="230.6,75 227.9,68.3 229,75.2 				"/>
				<polygon fill="#A02D36" points="237.6,74.6 240.4,68 236.3,73.7 				"/>
				<path fill="#C1592B" d="M340.9,196.2c-4.7-12.1-10.5-25.3-17.9-39.4c-35.7-68.5-89.5-85.8-89.5-85.8l-37.2,15.9l16.8,72.3
					c0,0-33.3,32.5-48.9,69.7C199.8,236,260.3,236.7,340.9,196.2z"/>
				<path fill="#26221D" d="M271.9,138.8l-4.6,6.5l-4.1,4.7l11.3,12.6l-31.7-1.6l8,12l-8.1,1.9l-9.8,0.4l-4.7-0.2
					c0,0,12,16.5,34.6,8.3C290.3,173.5,271.9,138.8,271.9,138.8z"/>
				<path fill="#AA1E33" d="M262.9,183.5c7.3-2.6,11.3-7,13.4-12c-4.4-0.1-9.8,0.8-15.6,3.8c-6,3.2-9.4,7.1-11.3,10.5
					C253.3,185.9,257.8,185.3,262.9,183.5z"/>
				<path fill="#EEE9D9" d="M247.6,160.4c0,0-0.3,2.2,6.5,10.8c8.2,10.3,21.6,13.6,21.6,13.6l-5.1-23.8l-9.1-0.2L247.6,160.4z"/>
				<path fill="#EEE9D9" d="M190.6,170.6c0,0,0.4,1.8,7.2,10.4c8.2,10.3,17.5,12.1,17.5,12.1l-6.8-34.6c0,0-3.3-3.2-11.7,2
					C188.4,165.7,190.6,170.6,190.6,170.6z"/>
				<path fill="#C1592B" d="M189.5,176.2c2.8,1,5.7,1.4,8.6,1.4c1.5,0,2.9-0.1,4.4-0.3c0.7-0.1,2.5-0.1,3.5-0.5l1.4-7.1l1.4-7.5
					l0.7-3.8l1.4,3.7c0.3,0.7,0.7,1.5,1.2,2.3c0.5,0.7,1.1,1.4,1.7,2.1c4.6,5,11.9,7,18.5,7.3c5.2,0.3,10.8-0.2,15.9-1.6l-6.8-10.1
					l-1.8-2.7l3.3,0.2l16.7,0.8l12.9,0.7c-3.4-3.3-6.7-6.7-10-10c-0.3-0.3-0.6-0.6-0.9-1c0,0,3.7-3.9,4-4.3c1.2-1.5,2.3-3.2,3.1-5
					c2-4.2,2.4-8.4,0.7-12.8c-0.5-1.3-1.1-2.5-1.8-3.7c-0.7-1.2-1.5-2.3-2.3-3.4c0.1,0.1,0.2,0.2,0.3,0.4c-0.1-0.2-0.3-0.3-0.4-0.5
					c-6-2-18.9-5.2-39.9-5.6c-30.3-0.5-53.8,18.3-53.8,18.3l-3.3,19.1l9.8-4.9c-1.3,1.4-2.5,5.2,0.3,16c0.5,2,1.3,4.1,2.2,6.2
					c0.9,1.2,2.3,2.6,3.9,3.8C185.9,174.7,187.7,175.6,189.5,176.2z"/>
				
					<ellipse transform="matrix(0.969 -0.247 0.247 0.969 -25.8986 52.1609)" fill="#A02D36" cx="194.9" cy="129.3" rx="1.5" ry="1.5"/>
				
					<ellipse transform="matrix(0.969 -0.247 0.247 0.969 -26.8521 50.778)" fill="#A02D36" cx="188.9" cy="132.4" rx="1.1" ry="1.1"/>
				<ellipse transform="matrix(0.969 -0.247 0.247 0.969 -27.5896 52.181)" fill="#A02D36" cx="194.2" cy="136" rx="0.8" ry="0.8"/>
				<path fill="#C1592B" d="M184.3,173.6c0,0,3.6,3.1,10.1,4.2c6.5,1,12.3-0.4,12.3-0.4l3.2-14.8c0,0,3,9.2,15.9,12
					c12.9,2.8,25-1.4,25-1.4l-8-12l33.4,1.4l-12.9-12.5c0,0,5.4-4.3,7.6-12.8c2.1-8.5-5.7-16.5-5.7-16.5"/>
				<path fill="#A02D36" d="M277.2,161.5c-4-3.9-8.1-7.7-12.2-11.5c5.7-5.9,9-14.8,5.1-22.5c-1.3-2.5-3-4.8-5-6.7
					c0.9,1.1,1.7,2.2,2.3,3.4c0.7,1.2,1.3,2.4,1.8,3.7c1.7,4.4,1.3,8.6-0.7,12.8c-0.8,1.8-1.9,3.4-3.1,5c-0.3,0.4-4,4.4-4,4.3
					c0.3,0.3,0.6,0.6,0.9,1c3.3,3.3,6.7,6.7,10,10l-12.9-0.7l-16.7-0.8l-3.3-0.2l1.8,2.7l6.8,10.1c-5.1,1.4-10.7,1.9-15.9,1.6
					c-6.6-0.3-13.9-2.3-18.5-7.3c-0.6-0.7-1.2-1.4-1.7-2.1c-0.5-0.7-0.9-1.6-1.2-2.3l-1.4-3.7l-0.7,3.8l-1.4,7.5l-1.4,7.1
					c-1,0.4-2.8,0.4-3.5,0.5c-1.5,0.2-2.9,0.3-4.4,0.3c-2.9,0-5.9-0.5-8.6-1.4c-1.8-0.6-3.6-1.5-5.2-2.6c1.5,1.3,3.2,2.3,5,3
					c5.4,2.4,11.9,2.6,17.6,1.5l0.4-0.1l0.1-0.5l1.8-7.4l1-4.3c0.5,0.8,1.1,1.6,1.8,2.4c1.3,1.5,2.9,2.9,4.6,4
					c9.7,6.4,24.1,5.9,34.7,2.5l2-0.7l-1.2-1.8l-6.2-9.3l13.4,0.5l16.7,0.6l3.8,0.1L277.2,161.5z"/>
				
					<ellipse transform="matrix(0.969 -0.247 0.247 0.969 -23.3886 67.3442)" fill="#A02D36" cx="256.7" cy="126.9" rx="1.5" ry="1.5"/>
				
					<ellipse transform="matrix(0.969 -0.247 0.247 0.969 -24.3421 65.9612)" fill="#A02D36" cx="250.7" cy="130" rx="1.1" ry="1.1"/>
				
					<ellipse transform="matrix(0.969 -0.247 0.247 0.969 -25.0796 67.3641)" fill="#A02D36" cx="255.9" cy="133.6" rx="0.8" ry="0.8"/>
				<path fill="#A02D36" d="M272.5,189.7c0,0,0.3-0.1,0.8-0.4c1.6-0.9,3.1-2,4.5-3.2c1.6-1.4,3.2-2.8,4.7-4.4c1.5-1.5,3-3.1,4.1-4.9
					c0.3-0.5,0.4-0.8,0.4-0.8s0.1,0.3,0.1,0.9c-0.1,2.7-1.8,5.4-3.5,7.3c-2,2.2-4.7,4.3-7.7,5.1c-1,0.3-1.9,0.4-2.5,0.3
					C272.9,189.8,272.5,189.7,272.5,189.7z"/>
				<path fill="none" d="M189.3,176.6c5.4,2.4,11.9,2.6,17.6,1.5l0.4-0.1l0.1-0.5l1.8-7.4l1-4.3c0.5,0.8,1.1,1.6,1.8,2.4
					c1.3,1.5,2.9,2.9,4.6,4c9.7,6.4,24.1,5.9,34.7,2.5l2-0.7l-1.2-1.8l-6.2-9.3l13.4,0.5l16.7,0.6l3.8,0.1l-2.7-2.6
					c-4-3.9-8.1-7.7-12.2-11.5c5.7-5.9,9-14.8,5.1-22.5c-1.3-2.5-3-4.8-5-6.7c0.9,1.1,1.7,2.2,2.3,3.4c0.7,1.2,1.3,2.4,1.8,3.7
					c1.7,4.4,1.3,8.6-0.7,12.8c-0.8,1.8-1.9,3.4-3.1,5c-0.3,0.4-4,4.4-4,4.3c0.3,0.3,0.6,0.6,0.9,1c3.3,3.3,6.7,6.7,10,10l-12.9-0.7
					l-16.7-0.8l-3.3-0.2l1.8,2.7l6.8,10.1c-5.1,1.4-10.7,1.9-15.9,1.6c-6.6-0.3-13.9-2.3-18.5-7.3c-0.6-0.7-1.2-1.4-1.7-2.1
					c-0.5-0.7-0.9-1.6-1.2-2.3l-1.4-3.7l-0.7,3.8l-1.4,7.5l-1.4,7.1c-1,0.4-2.8,0.4-3.5,0.5c-1.5,0.2-2.9,0.3-4.4,0.3
					c-2.9,0-5.9-0.5-8.6-1.4c-1.8-0.6-3.6-1.5-5.2-2.6c0.2,0.1,0.3,0.3,0.5,0.4c0.5,0.4,1,0.7,1.6,1c-0.6-0.3-1.1-0.7-1.6-1
					C186.2,175.1,187.7,175.9,189.3,176.6z"/>
				<path fill="none" d="M267.5,124.2c0.7,1.2,1.3,2.4,1.8,3.7c1.7,4.4,1.3,8.6-0.7,12.8c-0.8,1.8-1.9,3.4-3.1,5
					c-0.3,0.4-4,4.4-4,4.3c0.3,0.3,0.6,0.6,0.9,1c3.3,3.3,6.7,6.7,10,10l-12.9-0.7l-16.7-0.8l-3.3-0.2l1.8,2.7l6.8,10.1
					c-5.1,1.4-10.7,1.9-15.9,1.6c-6.6-0.3-13.9-2.3-18.5-7.3c-0.6-0.7-1.2-1.4-1.7-2.1c-0.5-0.7-0.9-1.6-1.2-2.3l-1.4-3.7l-0.7,3.8
					l-1.4,7.5l-1.4,7.1c-1,0.4-2.8,0.4-3.5,0.5c-1.5,0.2-2.9,0.3-4.4,0.3c-2.9,0-5.9-0.5-8.6-1.4c-1.8-0.6-3.6-1.4-5.2-2.6
					c0.2,0.1,0.3,0.3,0.5,0.4c1.4,1.1,2.9,1.9,4.5,2.6c5.4,2.4,11.9,2.6,17.6,1.5l0.4-0.1l0.1-0.5l1.8-7.4l1-4.3
					c0.5,0.8,1.1,1.6,1.8,2.4c1.3,1.5,2.9,2.9,4.6,4c9.7,6.4,24.1,5.9,34.7,2.5l2-0.7l-1.2-1.8l-6.2-9.3l13.4,0.5l16.7,0.6l3.8,0.1
					l-2.7-2.6c-4-3.9-8.1-7.7-12.2-11.5c5.7-5.9,9-14.8,5.1-22.5c-1.2-2.4-2.8-4.5-4.6-6.4c0.4,0.4,0.8,0.9,1,1.2
					c-0.2-0.3-0.6-0.8-1-1.2c-0.1-0.1-0.2-0.2-0.3-0.4C266,121.8,266.8,123,267.5,124.2z"/>
				<path fill="none" d="M184.3,173.6c0.2,0.1,0.3,0.3,0.5,0.4C184.6,173.9,184.5,173.7,184.3,173.6
					C184.3,173.6,184.3,173.6,184.3,173.6z"/>
				<path fill="#A02D36" d="M261.4,122.7c0,0-0.1,0-0.1-0.1c-0.1-0.1-0.2-0.3-0.2-0.5c0-0.2,0-0.6,0.1-0.9c0.1-0.4,0.3-0.7,0.6-1
					c0.3-0.3,0.6-0.6,1-0.9c0.4-0.3,0.8-0.5,1.3-0.6c0.2-0.1,0.4-0.2,0.7-0.2c0.2-0.1,0.4-0.1,0.6-0.2c0.6-0.1,1.1-0.1,1.6-0.1
					c2.1,0.1,3.9,0.9,5.1,1.8c0.6,0.4,1,0.9,1.3,1.2c0.3,0.3,0.4,0.6,0.4,0.6s-0.3,0-0.7,0c-0.4,0-1,0-1.7,0c-1.3-0.1-3-0.2-4.5-0.3
					c-0.4,0-0.7,0-1,0c-0.2,0-0.4,0-0.7,0c-0.1,0-0.3,0-0.5,0c-0.4,0-0.7,0.1-1,0.1c-0.3,0-0.6,0.1-0.9,0.1
					c-0.5,0.1-0.9,0.3-1.2,0.5C261.4,122.4,261.4,122.7,261.4,122.7z"/>
				<g>
					
						<ellipse transform="matrix(0.9594 -0.282 0.282 0.9594 -21.2435 66.0532)" fill="#A02D36" cx="218.9" cy="106.8" rx="12" ry="16"/>
					<path fill="#A02D36" d="M246.2,107.3c-1.7,7.5-7.7,12.6-13.4,11.3c-5.6-1.3-10.5-10.3-8.8-17.8c1.7-7.5,9.4-10.8,15.1-9.5
						C244.8,92.6,247.9,99.8,246.2,107.3z"/>
					
						<ellipse transform="matrix(0.9594 -0.282 0.282 0.9594 -21.3524 66.1538)" fill="#EEE9D9" cx="219.1" cy="107.3" rx="9.4" ry="12.5"/>
					
						<ellipse transform="matrix(0.2241 -0.9746 0.9746 0.2241 77.6782 309.5962)" fill="#EEE9D9" cx="233.3" cy="106" rx="11.6" ry="8.7"/>
					
						<ellipse transform="matrix(0.969 -0.247 0.247 0.969 -19.6878 57.7254)" fill="#26221D" cx="220.2" cy="107.3" rx="4.8" ry="6.3"/>
					
						<ellipse transform="matrix(0.969 -0.247 0.247 0.969 -19.3329 60.7088)" fill="#26221D" cx="232.3" cy="107.4" rx="3.9" ry="5.2"/>
					<path fill="#761B14" d="M219.4,76.8c-5.9,2.2-11.7,5.8-16.8,10.8c0.8,1.1,0.8,1.1,1.6,2.1c4.7-4.9,10.9-7.2,16.4-9.3
						C220.1,79.2,219.7,78,219.4,76.8z"/>
					<path fill="#761B14" d="M225.5,79.8c5.7-0.8,11.5,1,17.7,2.8c-0.1,1.2,0.1,1,0,2.2c-5.9-1.8-11.8-2.2-17.1-1.5
						C225.9,82.1,225.7,81,225.5,79.8z"/>
				</g>
				<g>
					<path fill="#26221D" d="M228.9,131.5c8.8-2.3,15.3-8.3,17-14.9c-5.8-0.8-12.6-1.3-20.7-1.5c-7.8-0.1-15.1,1-21.7,2.8
						c0,1,0.1,2.1,0.4,3.1C206.1,129.7,217.3,134.4,228.9,131.5z"/>
					<path fill="#53687E" d="M208.5,122c-1.4,0.4-2.5,1.4-3,2.7c1.5,2.4,3.8,4.3,6.6,5.6c1.6-1,2.5-3,2-5
						C213.4,122.9,211,121.4,208.5,122z"/>
					<path fill="#53687E" d="M231.9,122.4c-3.6,0.9-5.8,4.6-4.9,8.2c0.1,0.4,0.3,0.8,0.5,1.2c0.5-0.1,0.9-0.2,1.4-0.3
						c4.2-1.1,7.9-3,10.7-5.4C238.3,123.2,235.1,121.6,231.9,122.4z"/>
				</g>
				<path fill="#882A8E" d="M287.6,69.6c0,0-2.2-6.4-0.4-10.2c1.4-2.9,3.2-3.9,4.5-3.5c1.4,0.4,0.1,5.4,0.1,5.4s3-3,4.4-1.5
					c1.5,1.5-1.6,3.9-1.6,3.9s4.6-1.4,5,0.8c0.4,2.2-3.1,2.9-3.1,2.9s3.9-0.1,4.2,1.9c0.3,2-4.6,4-4.8,4
					C295.8,73.2,288,69.9,287.6,69.6z"/>
				<path fill="#882A8E" d="M301.7,81.6c0,0-0.6-3.5,0.1-7.9c0.7-4.4,3.5-6,3.5-6s2.9,3.3,2.4,7.3c-0.6,4-4.1,6-4.1,6
					s2.1,0.5,4.1,2.8c2,2.2,3.6,8,3.6,8s-1.8,0.1-5-2.1C303.1,87.4,301.7,81.6,301.7,81.6z"/>
				<polygon fill="#2BB24B" points="299.7,93.9 307.1,99.1 302.6,101.7 				"/>
				<polygon fill="#2BB24B" points="298.6,95.8 298.5,102.1 293.6,100.6 				"/>
				<path fill="#2BB24B" d="M287.5,66.8c-6.5,1.7-4.6,13.4-3,19.8c0.8,0.3,2.3,0.6,4.9,0.7c5,0.2,7.4-3,7.4-3s-0.4,6.1-5.2,7.8
					c-0.3,0.1-0.6,0.2-0.8,0.3c1.7,2.3,4.6,5.2,8.3,4c6-2,4-13.4,4-13.4S296.4,64.5,287.5,66.8z"/>
				<g>
					
						<ellipse transform="matrix(0.969 -0.247 0.247 0.969 -10.1574 75.1706)" fill="#EEE9D9" cx="294.5" cy="78.1" rx="2.9" ry="5"/>
					
						<ellipse transform="matrix(0.969 -0.247 0.247 0.969 -10.4409 75.2723)" fill="#26221D" cx="294.8" cy="79.2" rx="1.7" ry="2.5"/>
				</g>
				<g>
					<path fill="#3D505A" d="M289.3,87.3c1.4,0.1,2.5-0.1,3.5-0.4l-5.1-20.1c-0.1,0-0.1,0-0.2,0c-6.5,1.7-4.6,13.4-3,19.8
						C285.3,86.9,286.8,87.2,289.3,87.3z"/>
					<path fill="#3D505A" d="M291.5,92.1c-0.3,0.1-0.5,0.2-0.8,0.2c1,1.5,2.6,3.2,4.6,3.9l-1.4-5.5
						C293.2,91.3,292.4,91.8,291.5,92.1z"/>
				</g>
				
					<ellipse transform="matrix(0.969 -0.247 0.247 0.969 -11.2797 75.5604)" fill="#2BB24B" cx="295.5" cy="82.7" rx="2.6" ry="1.4"/>
				
					<ellipse transform="matrix(0.9662 -0.2578 0.2578 0.9662 -23.534 65.5661)" opacity="0.2" fill="#56C9F4" cx="238.3" cy="122.5" rx="100.5" ry="100.5"/>
				<path fill="#9A4627" d="M231.3,333.2c0,0-1.8-10.8-26.5-4.5c-27.3,7-22.2,16-22.2,16c22.2,25.3,35.2,74.6,35.2,74.6
					c-1.2,18.8,6.4,6.8,6.4,6.8C247.6,391,231.3,333.2,231.3,333.2z"/>
				<path fill="#9A4627" d="M315,319.4c-4.4-6.4-22.3-7.6-39.7,2.6c-19.6,11.6-8.5,32.7-8.5,32.7s4.2,36.7,41.6,56.3
					c0,0,12.4,6.3,3.6-9.9c0,0-7-12.4-0.3-40.1C311.7,361,319.4,325.7,315,319.4z"/>
				<path fill="#C1592B" d="M161.9,316.9c0,0,8.9,27.7,14.3,38.8c0,0,23.4,47.4,1.8,75.6c0,0-13.7,16.1,8,7.5
					c0,0,63.5-23.7,35.7-108.8c-7.5-23-13.5-34.1-18.9-40.7c-7.9-2.5-19.2,1.4-30.6,9.4C161.5,307.7,160.8,314,161.9,316.9z"/>
				<path fill="#C1592B" d="M237.2,297.7c-24.4,3.7-21.2,20.7-21.2,20.7s-0.1,11,8.8,56.7c0.5,2.8,11.9,43.6,42.1,51.4
					c0,0,25.4,6.9,8.5-7.8c0,0-9.2-15.4-2.6-46.5c6.3-29.7,2.6-38.2,3.9-46.5C278.9,313.9,260.4,294.2,237.2,297.7z"/>
				<path fill="#EDE8D8" d="M221.6,358c0.9,5.1,2,10.7,3.2,17.1c0.3,1.8,5,18.7,16.1,33l30.4-2.6c-1.2-7.7-1.6-18.7,1.5-33.2
					c2.8-13,3.6-22,3.8-28.6L221.6,358z"/>
				<polygon fill="#682E1D" points="289.7,365.6 342.9,342.2 351.2,362.7 304,386.8 				"/>
				<path fill="#904532" d="M289.7,365.6l53.1-23.4c0,0,5.2,14.1-16.2,24.8C326.7,367,302.8,376.5,289.7,365.6"/>
				<path fill="#C1592B" d="M272,314.5c0,0,1.5,38.4,30.5,52.6c0,0,21.9-3.7,36-14.7c0,0,2.6-27.4-9.6-57.4L272,314.5z"/>
				<path fill="#C1592B" d="M163.4,229.1c-1.9,4.3-3.6,8.8-4.9,13.2c-12.8,42.5,6.7,88.1,6.7,88.1c80.9,9.7,157.1-3.4,201.1-58
					c0,0-5.3-34.1-23.5-80.6C259.2,233.1,200.1,235.9,163.4,229.1"/>
				<polygon fill="#EEE9D9" points="208.6,268 232.7,264.7 240.3,247.1 247.4,263.8 262.4,261.4 265.9,252.7 274,259.1 298,253 
					273.5,205.7 204.7,215.3 				"/>
				<path fill="#CA3C40" d="M168.4,333.8l-2.6,35.8l74.3-15L224.4,297l-15.3-85.8l-27.8-10.5c-10.7,11.7-14.8,17.3-22.2,31.7
					c-8.7,16.9-8.9,57.4-2.5,68L168.4,333.8z"/>
				<path fill="#CA3C40" d="M344.5,186c-8.7-16.6-12.1-14.1-12.1-14.1s-15.6,15.2-36.6,24.4c-12.2,5.3-26.6,9.8-26.6,9.8l32.7,131.5
					l80.6-32.3c0,0-7.1-8.4-11-21.6c-2.2-7.5-4.5-15.9-7.2-25.1C355.4,229.4,349.1,194.9,344.5,186z"/>
				<g>
					<path fill="#F2CE30" d="M376.4,296l-69.3,24.7L289.9,253c2.4-4.1,10.9-16.9,28.1-24.8c16.5-7.5,29.6,0,29.6,0l-8.6-12.3
						l-21.7-31.8c-2.8,2-6,4-9.4,6l16.5,24.2c-3,0.7-6.6,1.8-10.8,3.6c-18,7.7-29.2,21.9-34.2,29.6l1,3.9l0,0l21.4,86.2l80.6-32.3
						C382.4,305.3,379.5,301.9,376.4,296z"/>
					<path fill="#F2CE30" d="M185.3,244.9c-4.5-0.4-8.3-0.4-11.4-0.1l8.4-28.7l-10.7-3.1l-11.1,37.9l-4.4,14.4
						c0,0,10.2-11.2,28.2-9.1c7.6,0.9,14.1,3,19.4,5.4c0.3,1.2,0.6,2.4,0.9,3.6c9.1,35.8,21,78.6,21,78.6l-58.8,12.5l-1,13.5
						l74.3-15L224.4,297l-5.2-29.1l0,0l-2.2-12.3C209.8,251.1,199.1,246.1,185.3,244.9z"/>
				</g>
				<path fill="#26221D" d="M153.1,299.3c0,0,28.6-11.7,107.3-25.2c78.8-13.5,104-17.4,104-17.4l8.7,28.4l-206.9,55.1L153.1,299.3z"
					/>
				<path fill="#CCD7DD" d="M225,279.6l12.8,42.2l49.8-12.9l-7.4-40.2L225,279.6z M280.1,305.3L241.8,316l-3.4-13.2l6.9-2.3
					l-1.4-5.4c0,0-4.8,0.2-7.4,0.4l-0.9-3.4l-1.9-7.5l41.6-7.5L280.1,305.3z"/>
				<path fill="#604B45" d="M347.1,292l-8-31.2c-0.3,0.1-0.7,0.1-1,0.2c2.5,11.2-6.4,17.7-6.4,17.7c-14.7,7.9-23.4-9.5-24.8-12.5
					c-0.6,0.1-1.3,0.2-1.9,0.3l6.7,34.9l1.1-0.3l-5.4-31.3c7.4,15.8,21.5,11.2,21.5,11.2c8.8-3,10-11.4,9.9-16.4l6.3,28L347.1,292z"
					/>
				<path fill="#CCD7DD" d="M190.6,304.2c0.4,1.5-0.5,3.1-2.1,3.5c-1.5,0.4-3.1-0.5-3.5-2.1c-0.4-1.5,0.5-3.1,2.1-3.5
					C188.7,301.8,190.2,302.7,190.6,304.2"/>
				<path fill="#604B45" d="M217,326.7L203,285.1l-1,0.3l0.2,0.6c0.4,3,2.3,20.9-12.7,24.7c-16.3,4.1-22.7-15.3-22.9-16l0,0
					l-0.1-0.2l-1.1,0.3l10.1,43l1.1-0.3l-8.5-36c3.2,5.5,10,13.4,22.3,10.3c12.5-3.2,14-13.3,13.7-19.5l11.7,34.7L217,326.7z"/>
				<polygon fill="#F2CE30" points="142.8,214.6 181.3,200.8 181.4,215.5 148.6,228.5 				"/>
				<polygon fill="#26221D" points="155.1,225.9 159.5,224.2 154.5,210.4 149.8,212.1 				"/>
				<polygon fill="#26221D" points="169.7,220.1 174.1,218.4 169.3,205.1 164.5,206.8 				"/>
				<path fill="#604B45" d="M179.4,199.5c0,0-5.5,18.7-1.2,37.4l133.1-20.4c0,0,10.3-25.7,32.3-41.3l-21.4-2.1
					C322.3,173,249.4,215.6,179.4,199.5"/>
				<path fill="#26221D" d="M184.5,200.6c0,0,1.3,17.9,21.5,32.1l-27.8,4.3c0,0-5.2-17.8,1.2-37.4L184.5,200.6z"/>
				<path fill="#26221D" d="M302.6,182.1c0,0-24.4,16.4-15,38l23.9-3.7c0,0,10.8-25.5,32.3-41.3l-12.7-9.5L302.6,182.1z"/>
				<path fill="#604B45" d="M316.7,190.3c0.8,3.1-1.1,6.3-4.2,7c-3.1,0.8-6.3-1.1-7-4.2c-0.8-3.1,1.1-6.3,4.2-7
					C312.8,185.3,316,187.2,316.7,190.3"/>
				<polygon fill="#26221D" points="309.7,183.6 309.9,199.2 311.5,199.5 312.6,182.5 				"/>
				<polygon fill="#26221D" points="230.8,223 228.2,223.6 228.3,209.7 230.9,209.1 				"/>
				<polygon fill="#26221D" points="240.6,221.4 238,222 238.1,208.1 240.8,207.5 				"/>
				<polygon fill="#26221D" points="245.8,220.6 243.2,221.2 243.3,207.3 246,206.7 				"/>
				<polygon fill="#26221D" points="235.8,222.2 233.1,222.8 233.3,208.9 235.9,208.3 				"/>
			</g>
		</g>
	</g>
	<g id="_x31__Stars">
	</g>
	<g id="_x30__Stars_2_">
	</g>
</g>
<g id="labels">
</g>
</svg>
