<svg version="1.1" xmlns="http://www.w3.org/2000/svg" xmlns:xlink="http://www.w3.org/1999/xlink" x="0px" y="0px" viewBox="0 0 325 350" enable-background="new 0 0 325 350" xml:space="preserve" width="325" height="350" preserveAspectRatio="none"><g id="_x35_th_Grade"><g id="_x33__Stars" /><g id="_x32__Stars" /><g id="_x31__Star" /><g id="_x30__Stars" /></g><g id="_x34_th_Grade"><g id="_x33__Stars_1_" /><g id="_x32__Stars_1_" /><g id="_x31__Star_1_" /><g id="_x30__Stars_1_" /></g><g id="_x33_rd_Grade"><g id="_x33__Stars_3_" /><g id="_x32__Stars_3_" /><g id="_x31__Stars" /><g id="_x30__Stars_2_" /></g><g id="labels"><g><defs><rect id="SVGID_00000111882006751237279160000014563788170690441114_" width="325" height="350" /></defs><clipPath id="SVGID_00000070086406769309341090000000983831037207025074_"><use xlink:href="#SVGID_00000111882006751237279160000014563788170690441114_" overflow="visible" /></clipPath><g clip-path="url(#SVGID_00000070086406769309341090000000983831037207025074_)"><path opacity="0.1" fill="#384E7D" d="M109.8,395.5c21.4-18.3,123.7-52.9,181.2-70.9c82.2-25.6,153.4-31.6,159.1-13.4
				c5.7,18.2-56.3,53.8-138.5,79.4c-47.7,14.9-103.5,25-130.2,12.9L135.4,419C92.5,427,98.6,405,109.8,395.5" /><path fill="#C8A260" d="M93.6,214.6c0,0,0.9,1.8,2.4,2.1c1.5,0.3,14.3,2.1,14.3,2.1l-9.3,43.3l-22.2,0.3c0,0,4.7-27.2,4.8-27.9
				C83.8,233.9,93.6,214.6,93.6,214.6z" /><g><path opacity="0.75" fill="#90D6ED" d="M265.2,27.7c-2.9-0.1-5.8-0.9-8.4-2.2c-2.4,5.8-7.3,10.5-13.7,12.5
					c-8.7,2.8-17.9-0.2-23.6-6.8c-1,7.6-6.2,14.2-13.9,16.6c-6.2,2-12.7,0.8-17.7-2.7c-1.9,8.1-7.8,15-16.1,17.6
					c-2.4,0.8-4.8,1.1-7.2,1.1c-12,20.3-15.6,45.7-7.8,70.2c14.4,45.2,62.1,70.4,106.5,56.3c44.5-14.1,68.9-62.2,54.5-107.5
					C309.5,56.2,289.4,36.5,265.2,27.7z" /><path fill="#D1ECFA" d="M190.9,65.6c0.5,1.7-0.4,3.5-2.2,4.1c-1.7,0.5-3.5-0.4-4.1-2.2c-0.5-1.7,0.4-3.6,2.2-4.1
					C188.6,63,190.4,63.9,190.9,65.6z" /><path fill="#D1ECFA" d="M271.6,66.2c0.9,2.8-0.7,5.8-3.5,6.6c-2.8,0.9-5.8-0.7-6.6-3.5c-0.9-2.8,0.7-5.8,3.5-6.6
					C267.8,61.8,270.8,63.4,271.6,66.2z" /><path fill="#D1ECFA" d="M245.6,52.3c0.6,1.9-0.5,3.8-2.3,4.4c-1.9,0.6-3.8-0.5-4.4-2.3c-0.6-1.9,0.5-3.8,2.3-4.4
					C243.1,49.4,245,50.5,245.6,52.3z" /><path fill="#D1ECFA" d="M274.4,44.9c1,3.3-0.8,6.7-4.1,7.7c-3.3,1-6.7-0.8-7.7-4.1c-1-3.3,0.8-6.7,4.1-7.7
					C269.9,39.8,273.4,41.7,274.4,44.9z" /><path fill="#D1ECFA" d="M201,64c0.3,1.1-0.3,2.2-1.4,2.5c-1.1,0.3-2.2-0.3-2.5-1.4c-0.3-1.1,0.3-2.2,1.4-2.5
					C199.5,62.3,200.6,62.9,201,64z" /><path fill="#D1ECFA" d="M170.3,122.5c0.6,1.9-0.5,3.9-2.4,4.5c-1.9,0.6-3.9-0.5-4.5-2.4c-0.6-1.9,0.5-3.9,2.4-4.5
					C167.7,119.6,169.7,120.6,170.3,122.5z" /><path fill="#D1ECFA" d="M172.7,136.2c0.3,1-0.3,2.1-1.3,2.4c-1,0.3-2.1-0.3-2.4-1.3c-0.3-1,0.3-2.1,1.3-2.4
					C171.3,134.7,172.4,135.2,172.7,136.2z" /><path fill="#D1ECFA" d="M279.9,75.8c0.3,1-0.3,2.1-1.3,2.4c-1,0.3-2.1-0.3-2.4-1.3c-0.3-1,0.3-2.1,1.3-2.4
					C278.6,74.2,279.6,74.8,279.9,75.8z" /><path fill="#D1ECFA" d="M298.2,92.3c0.3,1-0.3,2.1-1.3,2.4c-1,0.3-2.1-0.3-2.4-1.3c-0.3-1,0.3-2.1,1.3-2.4
					C296.9,90.7,297.9,91.3,298.2,92.3z" /><path fill="#D1ECFA" d="M300.9,71.6c0.7,2.2-0.6,4.6-2.8,5.3s-4.6-0.6-5.3-2.8c-0.7-2.2,0.6-4.6,2.8-5.3
					C297.8,68,300.2,69.3,300.9,71.6z" /></g><g><path fill="#A02D36" d="M212.7,71.3c-2.7-2.4-5.7-4.5-9-6.2c3.1,2.1,6,4.7,8.4,7.6C212.3,72.2,212.5,71.7,212.7,71.3z" /><path fill="#A02D36" d="M209.9,72.4c-1.3-0.3-2.6-0.7-4-1c1.5,0.7,2.9,1.4,4.2,2.2C210,73.2,210,72.8,209.9,72.4z" /><path fill="#A02D36" d="M218.4,70.3c-1.3-1.7-2.8-3.2-4.4-4.7c1.4,1.6,2.7,3.3,3.8,5.1C218,70.6,218.2,70.4,218.4,70.3z" /></g><polygon fill="#A02D36" points="244.7,65.8 244.8,54.1 242.2,65.3 			" /><polygon fill="#A02D36" points="240.4,63.7 238.5,57.5 239,63.8 			" /><polygon fill="#A02D36" points="246.7,63.8 249.6,58.1 245.6,62.9 			" /><path fill="#C1592B" d="M331.4,178.9c-3.4-11.1-7.8-23.3-13.5-36.3c-27.6-63.4-74.6-82.3-74.6-82.3l-34.3,11.9l10.5,65.7
				L182,179.6c0,0,2.2,13.3-0.9,19.4C212.4,207.5,256.8,210,331.4,178.9z" /><path fill="#26221D" d="M215,146.8c3.1,7.3,7.9,20,27.6,18.1c19.7-1.8,24.3-12.3,27.2-22.1c2.9-9.8-6.9-29.1-6.9-29.1l-48.4,13.6
				C214.4,127.3,211.9,139.5,215,146.8z" /><path fill="#EEE9D9" d="M248.8,133.1c0,0-0.4,2,5.1,10.1c6.6,9.8,18.5,13.5,18.5,13.5l-3-21.5l-8.1-0.8L248.8,133.1z" /><path fill="#EEE9D9" d="M197.7,141.5c0,0,0.3,1.6,5.8,9.7c6.6,9.8,14.9,11.9,14.9,11.9l-3.9-31.3c0,0-2.8-3-10.6,1.1
				C196.1,137,197.7,141.5,197.7,141.5z" /><path fill="#AA1E33" d="M261.9,157.4c-5.1-2.7-12.4-5-21-3.4c-9.1,1.6-13.3,5-15.3,7.7c3.9,2.5,9.3,4,16.9,3.2
				C252,164,258,161.2,261.9,157.4z" /><path fill="#C1592B" d="M196.4,146.4c2.4,1,5,1.6,7.6,1.8c1.3,0.1,2.6,0.1,4,0c0.7,0,2.2,0,3.1-0.2l1.7-6.3l1.8-6.6l0.9-3.3
				l1.1,3.4c0.2,0.6,0.6,1.4,1,2.1c0.4,0.7,0.9,1.4,1.4,2c3.8,4.8,10.2,7,16,7.7c4.6,0.6,9.7,0.5,14.3-0.5l-5.5-9.5l-1.5-2.5
				l2.9,0.3l14.9,1.7l11.5,1.4c-2.8-3.2-5.6-6.4-8.3-9.6c-0.3-0.3-0.5-0.6-0.7-0.9c0,0,3.5-3.3,3.8-3.6c1.2-1.3,2.2-2.7,3.1-4.3
				c2-3.6,2.6-7.4,1.4-11.4c-0.4-1.2-0.8-2.3-1.4-3.4c-0.5-1.1-1.2-2.2-1.9-3.2c0.1,0.1,0.2,0.2,0.3,0.3c-0.1-0.2-0.2-0.3-0.4-0.4
				c-5.2-2.1-16.6-5.9-35.3-7.5c-27-2.3-49.2,13-49.2,13l-4.2,16.9l9.1-3.7c-1.2,1.1-2.5,4.5-0.7,14.3c0.3,1.9,0.9,3.8,1.6,5.7
				c0.8,1.1,1.9,2.5,3.2,3.7C193.3,144.9,194.8,145.7,196.4,146.4z" /><path fill="#A02D36" d="M205.6,104.6c0.1,0.7-0.4,1.5-1.1,1.6c-0.7,0.1-1.5-0.4-1.6-1.1c-0.1-0.7,0.4-1.5,1.1-1.6
				C204.7,103.4,205.4,103.9,205.6,104.6z" /><path fill="#A02D36" d="M199.7,107.1c0.1,0.6-0.3,1.1-0.8,1.2c-0.6,0.1-1.1-0.3-1.2-0.8c-0.1-0.6,0.3-1.1,0.8-1.2
				C199,106.1,199.6,106.5,199.7,107.1z" /><path fill="#A02D36" d="M203.8,110.7c0.1,0.4-0.2,0.7-0.6,0.8c-0.4,0.1-0.7-0.2-0.8-0.6c-0.1-0.4,0.2-0.7,0.6-0.8
				C203.4,110.1,203.7,110.3,203.8,110.7z" /><path fill="#C1592B" d="M191.9,143.8c0,0,3.1,3,8.8,4.4c5.7,1.3,11,0.4,11,0.4l3.8-13.1c0,0,2.1,8.4,13.5,11.7
				c11.4,3.3,22.4,0.3,22.4,0.3l-6.4-11.2l29.7,3.4l-10.8-12c0,0,5.1-3.5,7.6-10.9c2.4-7.4-4.1-15.1-4.1-15.1" /><path fill="#A02D36" d="M275.7,138.8c-3.4-3.7-6.8-7.4-10.2-11c5.5-5,9-12.6,6-19.8c-1-2.3-2.3-4.5-4-6.3c0.7,1,1.3,2.1,1.9,3.2
				c0.6,1.1,1,2.2,1.4,3.4c1.3,4,0.6,7.8-1.4,11.4c-0.9,1.5-1.9,2.9-3.1,4.3c-0.3,0.3-3.8,3.7-3.8,3.6c0.2,0.3,0.5,0.6,0.7,0.9
				c2.8,3.2,5.5,6.4,8.3,9.6l-11.5-1.4l-14.9-1.7l-2.9-0.3l1.5,2.5l5.5,9.5c-4.7,0.9-9.7,1-14.3,0.5c-5.9-0.7-12.2-2.9-16-7.7
				c-0.5-0.6-1-1.3-1.4-2c-0.4-0.7-0.7-1.5-1-2.1l-1.1-3.4l-0.9,3.3l-1.8,6.6l-1.7,6.3c-0.9,0.3-2.5,0.2-3.1,0.2
				c-1.3,0.1-2.6,0.1-4,0c-2.6-0.2-5.2-0.8-7.6-1.8c-1.6-0.7-3.1-1.5-4.5-2.6c1.2,1.2,2.7,2.2,4.3,3c4.7,2.4,10.5,3.1,15.6,2.4
				l0.4-0.1l0.1-0.4l2.1-6.5l1.2-3.8c0.4,0.8,0.9,1.5,1.4,2.2c1.1,1.5,2.4,2.8,3.8,3.9c8.2,6.3,21.2,6.8,30.9,4.4l1.8-0.5l-1-1.7
				l-5-8.7l12,1.3l14.9,1.6l3.4,0.4L275.7,138.8z" /><path fill="#A02D36" d="M260.9,106.3c0.1,0.7-0.4,1.5-1.1,1.6c-0.7,0.1-1.5-0.4-1.6-1.1c-0.1-0.7,0.4-1.5,1.1-1.6
				C260.1,105.1,260.8,105.6,260.9,106.3z" /><path fill="#A02D36" d="M255,108.8c0.1,0.6-0.3,1.1-0.8,1.2c-0.6,0.1-1.1-0.3-1.2-0.8c-0.1-0.6,0.3-1.1,0.8-1.2
				C254.4,107.8,254.9,108.2,255,108.8z" /><path fill="#A02D36" d="M259.1,112.4c0.1,0.4-0.2,0.7-0.6,0.8c-0.4,0.1-0.7-0.2-0.8-0.6c-0.1-0.4,0.2-0.7,0.6-0.8
				C258.7,111.8,259.1,112,259.1,112.4z" /><path fill="none" d="M196.2,146.8c4.7,2.4,10.5,3.1,15.6,2.4l0.4-0.1l0.1-0.4l2.1-6.5l1.2-3.8c0.4,0.8,0.9,1.5,1.4,2.2
				c1.1,1.5,2.4,2.8,3.8,3.9c8.2,6.3,21.2,6.8,30.9,4.4l1.8-0.5l-1-1.7l-5-8.7l12,1.3l14.9,1.6l3.4,0.4l-2.3-2.5
				c-3.4-3.7-6.8-7.4-10.2-11c5.5-5,9-12.6,6-19.8c-1-2.3-2.3-4.5-4-6.3c0.7,1,1.3,2.1,1.9,3.2c0.6,1.1,1,2.2,1.4,3.4
				c1.3,4,0.6,7.8-1.4,11.4c-0.9,1.5-1.9,2.9-3.1,4.3c-0.3,0.3-3.8,3.7-3.8,3.6c0.2,0.3,0.5,0.6,0.7,0.9c2.8,3.2,5.5,6.4,8.3,9.6
				l-11.5-1.4l-14.9-1.7l-2.9-0.3l1.5,2.5l5.5,9.5c-4.7,0.9-9.7,1-14.3,0.5c-5.9-0.7-12.2-2.9-16-7.7c-0.5-0.6-1-1.3-1.4-2
				c-0.4-0.7-0.7-1.5-1-2.1l-1.1-3.4l-0.9,3.3l-1.8,6.6l-1.7,6.3c-0.9,0.3-2.5,0.2-3.1,0.2c-1.3,0.1-2.6,0.1-4,0
				c-2.6-0.2-5.2-0.8-7.6-1.8c-1.6-0.7-3.1-1.5-4.5-2.6c0.1,0.1,0.3,0.3,0.4,0.4c0.4,0.4,0.9,0.7,1.4,1c-0.5-0.3-0.9-0.7-1.4-1
				C193.5,145.2,194.9,146.1,196.2,146.8z" /><path fill="none" d="M269.4,104.8c0.6,1.1,1,2.2,1.4,3.4c1.3,4,0.6,7.8-1.4,11.4c-0.9,1.5-1.9,2.9-3.1,4.3
				c-0.3,0.3-3.8,3.7-3.8,3.6c0.2,0.3,0.5,0.6,0.7,0.9c2.8,3.2,5.5,6.4,8.3,9.6l-11.5-1.4l-14.9-1.7l-2.9-0.3l1.5,2.5l5.5,9.5
				c-4.7,0.9-9.7,1-14.3,0.5c-5.9-0.7-12.2-2.9-16-7.7c-0.5-0.6-1-1.3-1.4-2c-0.4-0.7-0.7-1.5-1-2.1l-1.1-3.4l-0.9,3.3l-1.8,6.6
				l-1.7,6.3c-0.9,0.3-2.5,0.2-3.1,0.2c-1.3,0.1-2.6,0.1-4,0c-2.6-0.2-5.2-0.8-7.6-1.8c-1.6-0.7-3.1-1.5-4.5-2.6
				c0.1,0.1,0.3,0.3,0.4,0.4c1.2,1.1,2.5,1.9,3.9,2.6c4.7,2.4,10.5,3.1,15.6,2.4l0.4-0.1l0.1-0.4l2.1-6.5l1.2-3.8
				c0.4,0.8,0.9,1.5,1.4,2.2c1.1,1.5,2.4,2.8,3.8,3.9c8.2,6.3,21.2,6.8,30.9,4.4l1.8-0.5l-1-1.7l-5-8.7l12,1.3l14.9,1.6l3.4,0.4
				l-2.3-2.5c-3.4-3.7-6.8-7.4-10.2-11c5.5-5,9-12.6,6-19.8c-0.9-2.2-2.2-4.2-3.7-6c0.3,0.4,0.6,0.8,0.8,1.1
				c-0.2-0.3-0.5-0.7-0.8-1.1c-0.1-0.1-0.2-0.2-0.3-0.3C268.2,102.6,268.8,103.7,269.4,104.8z" /><path fill="none" d="M191.9,143.8c0.1,0.1,0.3,0.3,0.4,0.4C192.2,144,192.1,143.9,191.9,143.8C192,143.8,191.9,143.8,191.9,143.8
				z" /><path fill="#A02D36" d="M264,103.1c0,0,0,0-0.1-0.1c0-0.1-0.1-0.3-0.1-0.5c0-0.2,0-0.5,0.2-0.8c0.1-0.3,0.4-0.6,0.6-0.9
				c0.3-0.3,0.6-0.5,1-0.7c0.4-0.2,0.8-0.4,1.2-0.5c0.2-0.1,0.4-0.1,0.7-0.2c0.2,0,0.4-0.1,0.6-0.1c0.5,0,1,0,1.5,0
				c1.9,0.2,3.5,1,4.4,1.9c0.5,0.4,0.9,0.9,1.1,1.2c0.2,0.3,0.3,0.5,0.3,0.5s-0.2,0-0.6,0c-0.4,0-0.9-0.1-1.5-0.1
				c-1.2-0.1-2.7-0.4-4-0.5c-0.4-0.1-0.6,0-0.9-0.1c-0.2,0-0.4,0-0.6,0c-0.1,0-0.3,0-0.5,0c-0.3,0-0.7,0-0.9,0c-0.3,0-0.6,0-0.8,0.1
				c-0.5,0.1-0.8,0.2-1.1,0.4C264.1,102.9,264,103.1,264,103.1z" /><g><path fill="#A02D36" d="M237.4,85.6c1.7,7.7-1.6,15-7.4,16.3c-5.8,1.3-11.9-4-13.5-11.7c-1.7-7.7,1.6-15,7.4-16.3
					C229.6,72.7,235.7,77.9,237.4,85.6z" /><path fill="#A02D36" d="M251.3,90.1c-2,6.6-7.7,10.8-12.6,9.2c-5-1.5-8.8-9.8-6.7-16.5c2-6.6,9.1-9,14.1-7.5
					C250.9,76.9,253.3,83.4,251.3,90.1z" /><path fill="#EEE9D9" d="M235.3,86.5c1.3,6-1.3,11.7-5.8,12.7c-4.5,1-9.3-3.1-10.6-9.1c-1.3-6,1.3-11.7,5.8-12.7
					C229.2,76.4,234,80.5,235.3,86.5z" /><path fill="#EEE9D9" d="M247.3,90.4c-1.7,5.5-6.4,8.9-10.5,7.7c-4.1-1.3-6.1-6.7-4.4-12.2c1.7-5.5,6.4-8.9,10.5-7.7
					C247,79.4,249,84.9,247.3,90.4z" /><path fill="#26221D" d="M232.2,86.4c0.6,3.1-0.9,5.9-3.2,6.3c-2.3,0.4-4.7-1.7-5.2-4.8c-0.6-3.1,0.9-5.9,3.2-6.3
					C229.3,81.3,231.7,83.4,232.2,86.4z" /><path fill="#26221D" d="M242.2,87.4c0.5,2.5-0.7,4.8-2.6,5.2c-1.9,0.3-3.8-1.4-4.3-3.9c-0.5-2.5,0.7-4.8,2.6-5.2
					C239.9,83.1,241.8,84.9,242.2,87.4z" /><path fill="#761B14" d="M214.3,65.7c3.8-4.1,8.7-7.7,14.6-10.3c0.7,1,0.6,1.1,1.2,2.1c-5.6,2.3-9.6,6.6-13.2,10.4
					C216.1,67.2,215.2,66.5,214.3,65.7z" /><path fill="#761B14" d="M233.9,61c5.1-0.4,10.2,1.6,15.7,3.6c-0.2,1.1,0.1,0.9-0.2,2c-5.2-2-10.4-2.7-15.2-2.4
					C234.2,63.2,234.1,62.1,233.9,61z" /></g><g><path fill="#26221D" d="M235.2,108.8c8-1.5,14.2-6.5,16.1-12.3c-5.1-1-11.2-2-18.4-2.6c-6.9-0.6-13.6,0-19.6,1.1
					c-0.1,0.9,0,1.9,0.1,2.8C215,105.8,224.7,110.7,235.2,108.8z" /><path fill="#53687E" d="M217.6,99.1c-1.3,0.2-2.3,1.1-2.9,2.2c1.2,2.2,3.1,4,5.5,5.4c1.5-0.8,2.4-2.5,2.1-4.3
					C221.9,100.1,219.8,98.7,217.6,99.1z" /><path fill="#53687E" d="M238.5,100.8c-3.3,0.6-5.4,3.7-4.8,7c0.1,0.4,0.2,0.8,0.3,1.1c0.4-0.1,0.9-0.1,1.3-0.2
					c3.8-0.7,7.2-2.2,9.9-4.2C244.2,102,241.4,100.3,238.5,100.8z" /></g><path fill="#882A8E" d="M178.3,68.9c0,0-3.3-5.1-7-5.9c-2.8-0.6-4.5,0-5,1.2c-0.5,1.2,3.8,3.1,3.8,3.1s-3.8,0.4-3.5,2.3
				c0.2,1.8,3.6,1,3.6,1s-3.5,2.5-2.2,4c1.3,1.5,3.7-0.6,3.7-0.6s-2.2,2.7-0.9,4c1.3,1.3,5.4-1,5.5-1.2
				C176.3,76.6,178.3,69.3,178.3,68.9z" /><path fill="#882A8E" d="M178.9,85.4c0,0-2.1-2.4-5.6-4.3c-3.5-1.9-6.1-0.9-6.1-0.9s0.7,3.9,3.8,5.7c3.1,1.8,6.5,0.4,6.5,0.4
				s-0.8,1.8-0.3,4.4c0.5,2.7,3.6,7,3.6,7s1.1-1.3,1.3-4.7C182.3,89.6,178.9,85.4,178.9,85.4z" /><path fill="#2BB24B" d="M189.4,86.5c-5.6-0.6-9.1-6.8-9.1-6.8s3.9,2,8.4,0.2c2-0.8,3-2.2,3.6-3.4c-3.5-4.5-11-13-15.9-9.2
				c-6.6,5.1,2.7,19.9,2.7,19.9s6.9,7.7,11.7,4.6c2.1-1.4,2.5-3.6,2.3-5.6C192.2,86.4,191,86.6,189.4,86.5z" /><path fill="#3D505A" d="M188.7,79.9c2-0.8,3-2.2,3.6-3.4c-3.5-4.5-11-13-15.9-9.2c-0.1,0-0.1,0.1-0.2,0.1l10.1,13.2
				C187.1,80.4,187.9,80.2,188.7,79.9z" /><g><path fill="#26221D" d="M178.6,77.3c1.1-0.9,3-0.4,4.5,1.1c-0.1-0.3-0.3-0.5-0.5-0.8c-1.5-2-3.8-2.8-5.1-1.8
					c-1.3,1-1.1,3.4,0.4,5.4c0.2,0.3,0.4,0.5,0.6,0.7C177.4,80.1,177.4,78.1,178.6,77.3z" /><polygon fill="#2BB24B" points="188.8,90.8 188.3,99 192.6,97.2 				" /><polygon fill="#2BB24B" points="190.7,91.1 195.2,94.5 196.8,90.2 				" /></g><g><path fill="#3D505A" d="M191,86.5l1.9,2.5c0.3-1,0.3-2,0.3-3C192.5,86.2,191.8,86.4,191,86.5z" /></g><path opacity="0.2" fill="#56C9F4" d="M322.8,82c15.1,47.4-11.1,98-58.5,113.1c-47.4,15.1-98-11.1-113-58.5
				c-15.1-47.4,11.1-98,58.5-113.1C257.1,8.4,307.8,34.6,322.8,82z" /><path fill="#C1592B" d="M323.5,173.4c0,0,50.4,56.9,89.8,30c27.4-18.7,22.2-56.9,22.2-56.9L395.7,136c0,0-2.9,28.8-27.2,30.1
				c-7.7,0.4-33.5-7-45-16.1C321.7,148.5,323.5,173.4,323.5,173.4z" /><g><path fill="#9A4627" d="M238.1,298.5c0,0-2.1-9.6-23.9-2.9c-24.1,7.4-19.2,15.2-19.2,15.2c21,21.7,34.6,65.2,34.6,65.2
					c-0.3,16.9,6,5.8,6,5.8C255.1,349.5,238.1,298.5,238.1,298.5z" /><path fill="#9A4627" d="M312.4,282.6c-4.2-5.5-20.3-5.9-35.4,4c-17,11.2-6.2,29.6-6.2,29.6s5.3,32.7,39.6,48.6
					c0,0,11.3,5.1,2.8-9c0,0-6.8-10.8-2-35.9C311.2,319.9,316.6,288.1,312.4,282.6z" /><path fill="#C1592B" d="M175.3,286.8c0,0,9.2,24.4,14.4,34.2c0,0,22.9,41.4,4.8,67.5c0,0-11.6,15,7.5,6.4
					c0,0,55.8-23.9,27.3-98.8c-7.7-20.3-13.5-30-18.7-35.6c-7.2-1.9-17.1,2.1-26.9,9.7C174.6,278.6,174.2,284.3,175.3,286.8z" /><path fill="#C1592B" d="M241.9,266.5c-21.7,4.3-18.1,19.4-18.1,19.4s0.3,9.9,10.3,50.3c0.6,2.5,12.5,38.5,39.8,44.2
					c0,0,23,5.1,7.2-7.4c0,0-8.9-13.4-4.2-41.5c4.4-26.9,0.7-34.3,1.6-41.8C279.8,279.2,262.5,262.4,241.9,266.5z" /><path fill="#EDE8D8" d="M230.5,321.1c1,4.5,2.2,9.5,3.6,15.1c0.4,1.6,5.3,16.5,15.8,28.8l27.1-3.6c-1.4-6.8-2.2-16.7,0-29.8
					c1.9-11.8,2.3-19.8,2.2-25.8L230.5,321.1z" /><path fill="#A58C7F" d="M278,323.7l-46,4.1c0.1,0.3,0.2,0.6,0.2,1l45.5-3C277.9,325.1,278,324.4,278,323.7z" /><path fill="#A58C7F" d="M236.7,343.4l40.2-11.8c0.1-0.5,0.2-1,0.2-1.6l-40.7,12.7C236.5,342.9,236.6,343.1,236.7,343.4z" /><path fill="#C1592B" d="M397.7,336.7c0,0-18.6-6.6-25.7-41c0,0-4.3-15.6-8.1-38.3c0,0-2.6-14.8-8-21.2
					c-4.6-0.4-4.7-1.3-11.3-0.7c-9.9,0.9-28.2,7.5-31.7,13.5c-3.5,6,14.6,48.4,18.2,54.6c10.5,21.9,26.7,44.5,57,41.9
					C388.3,345.4,423.3,342.6,397.7,336.7z" /><polygon fill="#682E1D" points="320.5,335.8 339.7,367.3 348.7,363.2 335.2,330.3 				" /><polygon fill="#421B0D" points="327.2,346.8 339.2,340 336.4,333.2 322.4,338.9 				" /><polygon fill="#682E1D" points="291.7,325 338.3,301.8 346.6,319.8 305.4,343.3 				" /><polygon fill="#682E1D" points="311.9,337.3 320.9,344.2 340.3,334.6 338.1,321.9 				" /><path fill="#904532" d="M291.7,325l46.6-23.2c0,0,5.3,12.4-13.4,22.9C324.9,324.7,303.9,334.2,291.7,325" /><path fill="#C1592B" d="M273.7,280c0,0,3,34.3,29.5,45.8c0,0,19.4-4.3,31.6-14.7c0,0,1.1-24.7-11-51L273.7,280z" /><polygon fill="#421B0D" points="313.7,338.6 338.5,324.4 339.3,328 315.7,340.2 				" /></g><path fill="#C8A25F" d="M185.8,197.4c0,0-10.4-4.1-25.6,3.3c-9.8,4.7-21.7,20-31.8,20.4c-20.2,0.8-25.6-5.2-25.6-5.2L81,268.9
				c0,0,9,12.6,46.5,9.7c27.9-2.2,46.7-55.9,46.7-55.9L185.8,197.4z" /><g><path fill="#26221D" d="M72.6,236.3L53,240.1L42.7,230l-16.9,6.2c0.9,8.1,4.1,18.5,13.8,23.6c9,4.8,21.4,3.8,30.9,1.8
					L72.6,236.3z" /><path fill="#26221D" d="M88.3,158.2C53.8,140.2,14.1,204,14.1,204l7.5,5.3l23.1-1l12.2,17.3l23.4,6.8l-8.8,30.4
					c6,0,10.3-0.6,10.3-0.6l13.1-46.6C94.8,215.6,122.8,176.3,88.3,158.2z" /></g><g><path fill="#C8A260" d="M65.5,262.7c9.1,0.5,16.3-0.5,16.3-0.5c8.2-11.8,15.8-23.4,9.1-32.6l-13.5,0.7l0.3-13.5L56,215.7
					l-0.1-13.6l-24.5-1.6L26.6,187c-7.7,9.3-12.5,17-12.5,17l17.8,12.5l16.9-1.6L57,228l17.8,0.3L65.5,262.7z" /><path fill="#53687E" d="M60.1,181.8c-0.6,3.1-3.6,5.1-6.8,4.5c-3.1-0.6-5.1-3.6-4.5-6.8c0.6-3.1,3.6-5.1,6.8-4.5
					C58.7,175.7,60.7,178.7,60.1,181.8z" /><path fill="#53687E" d="M88.9,172.7c-0.3,1.6-1.9,2.7-3.5,2.4c-1.6-0.3-2.7-1.9-2.4-3.5c0.3-1.6,1.9-2.7,3.5-2.4
					C88.1,169.5,89.2,171.1,88.9,172.7z" /><path fill="#53687E" d="M52.1,251.7c0.1,1.6-1.2,3.1-2.8,3.1c-1.7,0.1-3.1-1.2-3.1-2.8c-0.1-1.6,1.2-3.1,2.8-3.1
					C50.6,248.8,52,250,52.1,251.7z" /><path fill="#53687E" d="M77.7,192.3c-0.3,1.6-1.9,2.7-3.5,2.3c-1.6-0.3-2.7-1.9-2.4-3.5c0.3-1.6,1.9-2.7,3.5-2.3
					C77,189.1,78,190.7,77.7,192.3z" /><path fill="#53687E" d="M88.4,208.5c-0.6,3-3.6,5-6.6,4.4c-3-0.6-5-3.6-4.4-6.6c0.6-3,3.6-5,6.6-4.4
					C87,202.5,89,205.5,88.4,208.5z" /><path fill="#53687E" d="M64,259.7c0.1,2.1-1.5,3.9-3.6,4c-2.1,0.1-3.9-1.5-4-3.6c-0.1-2.1,1.5-3.8,3.6-4
					C62.1,256,63.9,257.6,64,259.7z" /><path fill="#53687E" d="M40.6,252.6c0.2,3.1-2.2,5.7-5.3,5.9c-3.1,0.2-5.7-2.2-5.9-5.3c-0.2-3.1,2.2-5.7,5.3-5.9
					C37.7,247.2,40.4,249.5,40.6,252.6z" /><path fill="#53687E" d="M68.2,160.9c-0.6,3.2-3.8,5.3-7,4.7c-3.2-0.6-5.3-3.8-4.7-7c0.6-3.2,3.8-5.3,7-4.7
					C66.8,154.5,68.9,157.7,68.2,160.9z" /><path fill="#53687E" d="M106.9,190.6c-0.5,2.5-2.9,4.1-5.4,3.6c-2.5-0.5-4.1-2.9-3.6-5.4c0.5-2.5,2.9-4.1,5.4-3.6
					C105.8,185.7,107.4,188.1,106.9,190.6z" /></g><path fill="#C8A260" d="M70.6,236.7L53,240.1L42.7,230l-16.9,6.2c0.3,2.2,0.7,4.7,1.4,7.1l14.2-4.7l10,8.9l17.1-2.2L70.6,236.7z" /><path fill="#7C6D36" d="M14.1,204c1.6,0.9,3.2,1.7,4.8,2.7c1.6,0.9,3.1,1.8,4.7,2.8c1.6,0.9,3.1,1.9,4.7,2.8
				c1.5,1,3.1,1.9,4.6,2.9l-1.1-0.3l8.5-0.8c2.8-0.2,5.7-0.5,8.5-0.7l1.3-0.1l0.8,1.2c1.4,2,2.7,4.1,4,6.1l4,6.2l-2-1.1
				c2.9,0.1,5.9,0.2,8.8,0.4c2.9,0.1,5.9,0.3,8.8,0.5l2.9,0.2l-0.8,2.6c-0.8,2.8-1.7,5.6-2.6,8.4l-1.3,4.2c-0.4,1.4-0.9,2.8-1.4,4.2
				c-0.9,2.8-1.9,5.6-2.8,8.3c-1,2.8-2,5.5-3.1,8.3c0.4-2.9,0.9-5.8,1.4-8.7c0.5-2.9,1.1-5.8,1.7-8.6c0.3-1.4,0.6-2.9,0.9-4.3
				l0.9-4.3c0.6-2.9,1.3-5.7,1.9-8.6l2.1,2.8c-2.9-0.1-5.9-0.1-8.8-0.2c-2.9-0.1-5.9-0.2-8.8-0.3l-1.3,0l-0.7-1.1l-3.9-6.2
				c-1.3-2.1-2.6-4.1-3.8-6.2L49,218c-2.8,0.1-5.7,0.1-8.5,0.2l-8.5,0l-0.7,0l-0.4-0.3c-1.4-1.1-2.8-2.3-4.3-3.4
				c-1.4-1.1-2.8-2.3-4.2-3.4c-1.4-1.2-2.8-2.3-4.2-3.5C16.8,206.4,15.5,205.2,14.1,204z" /><polyline fill="#26221D" points="129.3,218.1 130,278.6 101.2,280.9 75.9,268.9 102.2,212.9 			" /><path fill="#26221D" d="M133.8,216l0.2,34.2l4.9,28.3l22.8-23l26-59.3C187.8,196.3,167.6,184,133.8,216z" /><path fill="#52687E" d="M122.2,244.5c-0.9,3-4.1,4.6-7,3.7c-3-0.9-4.6-4.1-3.7-7s4.1-4.6,7-3.7
				C121.4,238.4,123.1,241.5,122.2,244.5" /><path fill="#52687E" d="M120,218c-0.8,2.4-3.3,3.8-5.8,3c-2.4-0.8-3.8-3.3-3-5.8c0.8-2.4,3.3-3.8,5.8-3
				C119.4,213,120.7,215.5,120,218" /><path fill="#52687E" d="M89,272.9c-0.5,1.6-2.2,2.5-3.7,2c-1.6-0.5-2.5-2.2-2-3.7c0.5-1.6,2.2-2.5,3.7-2
				C88.6,269.6,89.5,271.3,89,272.9" /><path fill="#52687E" d="M101.9,255.7c-0.6,2-2.7,3.1-4.7,2.5c-2-0.6-3.1-2.7-2.5-4.7c0.6-2,2.7-3.1,4.7-2.5
				C101.4,251.6,102.5,253.7,101.9,255.7" /><path fill="#52687E" d="M145.5,248.7c-0.6,2-2.7,3.1-4.7,2.5c-2-0.6-3.1-2.7-2.5-4.7c0.6-2,2.7-3.1,4.7-2.5
				C145,244.6,146.1,246.7,145.5,248.7" /><path fill="#52687E" d="M121.6,277.7c-0.9,3-4.1,4.6-7,3.7c-3-0.9-4.6-4.1-3.7-7c0.9-3,4.1-4.6,7-3.7
				C120.8,271.6,122.5,274.7,121.6,277.7" /><path fill="#52687E" d="M141.8,225.1c-0.5,1.6-2.2,2.5-3.7,2c-1.6-0.5-2.5-2.2-2-3.7c0.5-1.6,2.2-2.5,3.7-2
				C141.4,221.8,142.3,223.5,141.8,225.1" /><path fill="#52687E" d="M152.6,266.4c-0.5,1.6-2.2,2.5-3.7,2c-1.6-0.5-2.5-2.2-2-3.7c0.5-1.6,2.2-2.5,3.7-2
				C152.2,263.2,153.1,264.9,152.6,266.4" /><path fill="#C1592B" d="M173,208.2c-1.5,4-2.8,8-3.8,12c-9.7,38.6,9.7,78.6,9.7,78.6c72.8,5.3,140.4-9.7,177.5-60.3
				c0,0-6.2-30.3-24.4-71.1C258.9,207.8,206.1,212.7,173,208.2" /><polygon fill="#695752" points="278.2,220 278.5,221 278.5,221 			" /><path fill="#E9E0D4" d="M169.7,274.6c0,0,6-0.1,10.1,0.4c0.9,0.1,1-2.2,1.2-6.3c-4.3-3.6-7.2-2.7-11.3-6.8
				C169.4,264.5,168.9,269.5,169.7,274.6z" /><path fill="#E9E0D4" d="M131.9,221.8c0,0,13.6,18.6,19.6,22.6l2.9-2.1c-7.9-8.6-14.9-17.1-19.8-23.3L131.9,221.8z" /><path fill="#E9E0D4" d="M154.1,247.6l5.5,0.2c-1.2-1.2-2.4-2.4-3.5-3.6L154.1,247.6z" /><path fill="#BB4848" d="M174.7,243.7c-14.4-9.1-25.7-26.1-32.9-35.6c-2.5,1.3-6.6,3.6-10.8,5.2c0.7,0.9,0.9,1.5,1.8,2.7l4.7,0
				l-2.8,2.9c4.9,6.3,11.3,14.3,19.8,23.3l3.6-2.3l-1.9,4.2c1.2,1.2,2.3,2.4,3.5,3.6l2.2,0.6l-0.4,1.2c3.9,4.1,6,6.2,10.8,9.1
				c0-2.2,2-2.1,2.1-4.6C174.3,252.2,174.6,245.6,174.7,243.7z" /><path fill="#E9E0D4" d="M126.2,215.2l6.6,0.9c-0.5-0.7-1.4-2.2-1.8-2.7C127.8,214.6,126.2,215.2,126.2,215.2z" /><g><path fill="#939F2F" d="M283.9,180.5l0,0.1C283.9,180.6,283.7,180.6,283.9,180.5z" /></g><polygon fill="#695752" points="278.1,224.1 278.4,225.2 278.4,225.2 			" /><path fill="#BB4848" d="M207.1,223.4c11.2,1.7,42.5,0.8,62.6-5.4c46.6-14.2,72.6-48.3,81.9-67.5c-10.8,0.1-26.4,2.3-26.4,2.3
				l-1.9,10.5c0,0,0.3,1.5,0.7,3.9c-16.7,11.6-37.2,21.7-54,31.6l-23.4,6.2l-67.3-5.6l-8.5-5.8c0,0-4.9,2.1-9.7,3.7
				C164.6,202.4,180.6,219.4,207.1,223.4z" /><path fill="#E9E0D4" d="M276.9,293.2l4.6,6.7c21,0.2,90.2-38.4,90.2-38.4s-4.2-5.6-6.3-9.4C336.9,269.6,315.9,282.2,276.9,293.2z
				" /><path fill="#E9E0D4" d="M185.3,327.7l33.9-10.2l2.4-13.1c-13.5,1.7-30.8,2.4-40.1,2.8C183.3,313.7,183.6,321.8,185.3,327.7z" /><path fill="#E9E0D4" d="M253.7,280.2c35.3-9.1,71.3-20.3,103.4-44.4c-2.9-6.8-5.4-13.5-7.8-19.3c-25.2,20.3-51.7,37.5-108.5,46.5
				c-15.5,2.5-58.6,6-71.4,6.1c0.3,6.5,1.3,12,3.6,17.2C189.6,287.3,227.7,286.9,253.7,280.2z" /><path fill="#E9E0D4" d="M250.8,245.6c34.3-6.5,66.1-27.4,95-46.2c0.7,0.4,1.3,0.9,2,1.4c0,0,11.1-14.4,14-34.1
				c0,0,1.6-8.9,1.6-16.4c-4.8,0.2-11.8,0.3-11.8,0.3c-9.3,19.2-39.2,53.2-85.7,67.4c-20.1,6.1-47.6,6.7-58.8,5.4
				c-20.5-2.2-41.4-22.4-45.3-26.5c0,0-11.9,4.7-20.7,11.6c3.3,11.4,23.9,32,34.1,45.6c2.2-5.2-0.6-1.6,0.7-3.2
				C176,251,225.2,250.4,250.8,245.6z" /><path fill="#E9E0D4" d="M231.5,303.1l1.7,10.2c0,0,20.1-2.1,36.9-9.9c0,0,1.3-4.3,1.3-8.6c-4.1,1.1-8.4,2.2-12.8,3.2
				C249.4,300.1,240.3,301.8,231.5,303.1z" /><path fill="#E9E0D4" d="M223.5,313.9l4.5-10.3c-1.7,0.2-3.5,0.5-5.1,0.7L223.5,313.9z" /><path fill="#BB4848" d="M357,235.8c-32,24.1-62.4,33.8-97.7,42.9c-26,6.7-69.7,8.5-86.4,7.6c1.4,7.5,4,16,6,22.8
				c9.3-0.4,29.2-3,42.7-4.7l1-5.2l0.3,5.1c1.7-0.2,3.4-0.5,5.1-0.7l2.6-5.9l0.9,5.4c8.8-1.3,17.9-3,27-5.1c4.5-1,8.7-2.1,12.8-3.2
				l2-6.9l3.5,5.4C315.9,282.2,366,253,366,253S359.8,241.5,357,235.8z" /><path fill="#BB4848" d="M240.7,263.1c70-9.6,91.4-28.3,112.4-44.7c-2.4-5.7-5.6-14-7.3-19.1c-28.9,18.8-58.1,36.7-105.8,42.2
				c-20.5,2.4-72.3,3.2-72.3,3.2c-2.1,3.2-0.9,13.1,1.6,24.5C182.1,269.1,225.1,265.3,240.7,263.1z" /><path fill="#6B7582" d="M184.5,176.6l-15.3,17.5c0,0,49.2,26.5,90.9,11.9c61.7-21.5,82.7-58.8,82.7-58.8l-23.3-1.4
				c0,0-4,20.7-54.3,38C225.3,197.6,184.5,176.6,184.5,176.6z" /><path fill="#B6AFA9" d="M258,196.9c0.3,2.6-1.4,4.9-3.8,5.2c-2.4,0.3-4.7-1.5-5-4.1c-0.3-2.6,1.4-4.9,3.8-5.2
				C255.4,192.5,257.7,194.3,258,196.9z" /><path fill="#B6AFA9" d="M227,200c0.3,2.5-1.4,4.8-3.8,5.1c-2.4,0.3-4.6-1.5-4.9-4c-0.3-2.5,1.4-4.8,3.8-5.1
				C224.5,195.6,226.7,197.4,227,200z" /><path fill="#B6AFA9" d="M198.4,194.5c0.3,2.5-1.4,4.8-3.8,5.1c-2.4,0.3-4.6-1.5-4.9-4c-0.3-2.5,1.4-4.8,3.8-5.1
				C195.9,190.2,198.1,192,198.4,194.5z" /><path fill="#B6AFA9" d="M287.4,185.7c0.3,2.5-1.4,4.9-3.8,5.2c-2.4,0.3-4.6-1.5-4.9-4.1c-0.3-2.5,1.4-4.9,3.8-5.2
				C284.9,181.4,287.1,183.2,287.4,185.7z" /><path fill="#B6AFA9" d="M308.8,172.8c0.3,2.5-1.4,4.9-3.8,5.2c-2.4,0.3-4.6-1.5-4.9-4.1c-0.3-2.5,1.4-4.9,3.8-5.2
				C306.3,168.4,308.5,170.2,308.8,172.8z" /><path fill="#B6AFA9" d="M328.2,156c0.3,2.5-1.4,4.9-3.8,5.2c-2.4,0.3-4.6-1.5-4.9-4.1c-0.3-2.5,1.4-4.9,3.8-5.2
				C325.7,151.6,327.9,153.5,328.2,156z" /><path fill="#B6AFA9" d="M166.1,195.4l3.6-1.9c0,0,61.4,32.3,112.5,2.4c20.4-12,39.5-25.1,47.8-34.2
				c10.3-11.4,10.6-14.7,10.6-14.7l7,0.1c0,0-27.6,39.6-75.8,58.8C218.4,227.1,166.1,195.4,166.1,195.4z" /><path fill="#EBD38F" d="M173.2,289.3c0,0,65.5,9.3,145.3-26.5c17.2-7.7,30.1-16.4,39.8-24.2c0,0,7.2,1.8,2.6,6.3
				c0,0-7.8,7.2-20.7,13.2c-31.2,14.6-94,42.9-165.3,39.5C174.9,297.6,166.7,294.6,173.2,289.3z" /><path fill="#EBD38F" d="M179.1,296.8c0,0-14.9,10.2-14.9,17.3l6,4.3c0,0,6.5-17.5,10.5-18.4C184.7,299.1,179.1,296.8,179.1,296.8
				z" /><path fill="#EBD38F" d="M178.3,300.4c0,0-3.5,23,2,24.4s6-0.4,6-0.4s-4.9-20.1-4.5-24.5S178.3,300.4,178.3,300.4z" /><path fill="#EBD38F" d="M183.6,283.9c0,0-10.1,3-9.8,13.3c0,0,0,5.7,3,7.4c3,1.7,4.8-0.9,7-2.2c2.2-1.3,8.7-10.3,5.5-14.8
				C186,283.1,183.6,283.9,183.6,283.9z" /><path fill="#AF9453" d="M185,292.9c0,0-5.7-0.3-7.4,2c-1.2,1.5-1.6,2.7-1.5,4.1c0,0-1.1-0.9,0.5-4.1
				C178.1,292,183.8,292.3,185,292.9z" /></g></g></g></svg>