<?xml version="1.0" encoding="utf-8"?>
<!-- Generator: Adobe Illustrator 19.2.0, SVG Export Plug-In . SVG Version: 6.00 Build 0)  -->
<!DOCTYPE svg PUBLIC "-//W3C//DTD SVG 1.1//EN" "http://www.w3.org/Graphics/SVG/1.1/DTD/svg11.dtd">
<svg version="1.1" xmlns="http://www.w3.org/2000/svg" xmlns:xlink="http://www.w3.org/1999/xlink" x="0px" y="0px"
	 viewBox="0 0 275.1 352.6" enable-background="new 0 0 275.1 352.6" xml:space="preserve" width="275.1" height="352.6" preserveAspectRatio="none">
<g id="BG">
</g>
<g id="Sunburt_Blue">
</g>
<g id="Results_Small_Rectangle">
</g>
<g id="Sunburst_Yellow">
</g>
<g id="Stars">
</g>
<g id="Submit_Button_1_">
</g>
<g id="Top_Tab">
</g>
<g id="Header">
</g>
<g id="Header_Buttons">
</g>
<g id="Title">
</g>
<g id="Kraken_x5F_3star">
</g>
<g id="Kraken_x5F_2star">
</g>
<g id="Kraken_x5F_1star">
	<g>
		<defs>
			<rect id="SVGID_29_" y="12.3" width="275.1" height="340.2"/>
		</defs>
		<clipPath id="SVGID_1_">
			<use xlink:href="#SVGID_29_"  overflow="visible"/>
		</clipPath>
		<g clip-path="url(#SVGID_1_)">
			<path opacity="0.1" fill="#384E7D" d="M67.1,406.2c22.8-18.6,130.6-52.3,191.2-69.7c86.5-24.8,161.1-29.4,166.6-10.2
				c5.5,19.2-60.2,54.9-146.7,79.7c-50.3,14.4-108.8,23.7-136.5,10.3l-48.5,15C48.2,438.8,55.1,415.8,67.1,406.2z"/>
			<g>
				<path opacity="0.75" fill="#8ED6EC" d="M240,25.1c-3.1-0.2-6-1.1-8.7-2.5c-2.7,6-7.8,10.8-14.6,12.8c-9.2,2.7-18.7-0.6-24.5-7.7
					c-1.3,7.9-6.9,14.7-14.9,17.1c-6.5,1.9-13.3,0.5-18.4-3.3c-2.2,8.4-8.5,15.5-17.3,18c-2.5,0.7-5,1.1-7.5,1
					c-13,21-17.4,47.4-9.9,73.1c13.9,47.6,63.2,75.1,110,61.4c46.8-13.7,73.5-63.4,59.6-111C285.6,56,265.1,34.9,240,25.1z"/>
				
					<ellipse transform="matrix(0.9628 -0.2701 0.2701 0.9628 -11.3691 45.0961)" fill="#CFECFB" cx="158.2" cy="63.9" rx="3.4" ry="3.4"/>
				
					<ellipse transform="matrix(0.9628 -0.2701 0.2701 0.9628 -9.16 67.4382)" fill="#CFECFB" cx="240.5" cy="67" rx="5.5" ry="5.5"/>
				
					<ellipse transform="matrix(0.9628 -0.2701 0.2701 0.9628 -5.86 60.0818)" fill="#CFECFB" cx="215.4" cy="51.3" rx="3.7" ry="3.7"/>
				
					<ellipse transform="matrix(0.9628 -0.2701 0.2701 0.9628 -3.1358 67.2958)" fill="#CFECFB" cx="243" cy="45" rx="6.5" ry="6.5"/>
				
					<ellipse transform="matrix(0.9628 -0.2701 0.2701 0.9628 -10.4299 48.2031)" fill="#CFECFB" cx="170" cy="62" rx="2.1" ry="2.1"/>
				
					<ellipse transform="matrix(0.9628 -0.2701 0.2701 0.9628 -28.1792 41.0018)" fill="#CFECFB" cx="134.9" cy="122.9" rx="3.7" ry="3.7"/>
				
					<ellipse transform="matrix(0.9628 -0.2701 0.2701 0.9628 -31.7858 42.5703)" fill="#CFECFB" cx="138.8" cy="136.8" rx="2" ry="2"/>
				
					<ellipse transform="matrix(0.9628 -0.2701 0.2701 0.9628 -11.2087 70.9963)" fill="#CFECFB" cx="252.4" cy="76.2" rx="2" ry="2"/>
				
					<ellipse transform="matrix(0.9628 -0.2701 0.2701 0.9628 -15.2883 76.711)" fill="#CFECFB" cx="271.1" cy="93.9" rx="2" ry="2"/>
				<ellipse transform="matrix(0.9628 -0.2701 0.2701 0.9628 -9.6045 76.167)" fill="#CFECFB" cx="272" cy="73" rx="4.4" ry="4.4"/>
			</g>
			<path fill="#994627" d="M203.3,324.7c0,0,13.8,31.8-7.4,65.1c0,0-6.8,11.4-6.1-6.2c0,0,1.4-9.6-20-32.8c0,0-6.3-39-5.7-39.4
				c0.6-0.4,26.9-8.3,27.1-7.6C191.4,304.5,203.3,324.7,203.3,324.7"/>
			<path fill="#994627" d="M234.3,322.1c0,0,4.8,34.3,40.2,51.8c0,0,11.7,5.7,3.1-9.4c0,0-6.8-11.5-1.2-37.6
				c0,0-14.9-36.6-15.7-36.6c-0.8,0-27.3,6.9-27.1,7.6C233.9,298.7,234.3,322.1,234.3,322.1"/>
			<path fill="#C1592B" d="M366.5,346.6c0,0-19.3-7.3-25.9-43.5c0,0-2.2-17-5.6-40.9c0,0-1.3-14.6-5.5-36.5
				c-71,0.5-137,17.7-197,55.3c0.7,2.7,1.6,5.5,2.7,8.1c0,0,9,25.8,14.2,36.1c0,0,23,43.9,3.4,70.7c0,0-12.5,15.4,7.7,6.9
				c0,0,40.6-11.8,36.5-57.5c0,0,8.5,37.5,39.1,44.1c0,0,24,5.9,7.7-7.5c0,0-12.4-14.5-2.5-45c0,0,6.4-12.8,2.5-32.3
				c3.6,9,10,20,20.5,25.9c0,0,16.4,5.7,36.1-13.4c0,0,0.1-2,0.1-5.2c8.1,22.2,24.2,45.5,56,43.5C356.4,355.5,393,353.4,366.5,346.6
				"/>
			<path fill="#ECE7D7" d="M244.4,310.7l-52.6,12.9c0,0,2.6,26.1,16.6,46.5l29.8-2.1c0,0-1.2-19.1,4.7-35.6
				C242.9,332.4,246.6,320.3,244.4,310.7"/>
			<polygon fill="#A48B7F" points="192.9,330.5 243.7,329.2 243.2,331.4 193.2,331.6 			"/>
			<polygon fill="#A48B7F" points="196.9,346.2 242,335.1 241.3,336.8 197.2,346.9 			"/>
			<polygon fill="#672E1D" points="256,331.8 305.2,308.7 313.4,327.7 269.8,351.3 			"/>
			<path fill="#8F4432" d="M256,331.8l49.2-23.1c0,0,5.2,13.1-14.6,23.6C290.6,332.3,268.4,341.7,256,331.8"/>
			<path fill="#C1592B" d="M238.2,284.4c0,0,2.3,35.9,29.7,48.6c0,0,20.4-4,33.4-14.6c0,0,1.8-25.8-10.3-53.5L238.2,284.4z"/>
			<g>
				<path fill="#25221D" d="M84.5,259.8c0,0,1.7,1.2,3.2,0.8c1.6-0.4,14.4-4.8,14.4-4.8l11.8,44.8l-20.5,10.8c0,0-8.5-27.6-8.7-28.3
					C84.5,282.5,84.5,259.8,84.5,259.8z"/>
				<g>
					<path fill="#25221D" d="M86.1,260.1c0,0,7.5-49.9-33.2-50.4c-40.7-0.5-47.5,77.8-47.5,77.8l22.5,3.2c0,0,2.7,26.7,22.1,32
						c19.4,5.3,46-13,46-13L86.1,260.1z"/>
					<path fill="#C8A15F" d="M81,317.9c8.7-3.8,15-8.1,15-8.1L89,275l-12.2,7l-6.1-12.8l-20.9,9.3L43.3,266l-23.6,10.1L8.9,265.7
						c-2.8,12.3-3.6,21.8-3.6,21.8l22.5,3.2c0,0,0.4,3.9,2,9.1l18.7-8.3l10.4,5.1l16.5-7.1L81,317.9z"/>
					<path fill="#7C6C36" d="M5.3,287.5c1.9,0,3.8,0.1,5.7,0.2c1.9,0.1,3.8,0.2,5.7,0.3c1.9,0.1,3.8,0.3,5.7,0.4
						c1.9,0.2,3.8,0.3,5.7,0.5l-1.1,0.2l7.6-4.8c2.5-1.6,5.1-3.1,7.6-4.6l1.2-0.7l1.3,0.7c2.2,1.2,4.4,2.5,6.6,3.8l6.6,3.9l-2.4-0.1
						c2.8-1.3,5.6-2.6,8.4-3.8c2.8-1.3,5.7-2.5,8.5-3.7l2.7-1.2l0.5,2.8c0.6,3,1.1,6,1.6,9l0.8,4.5c0.3,1.5,0.5,3,0.7,4.5
						c0.5,3,0.9,6.1,1.3,9.1c0.4,3,0.8,6.1,1,9.2c-1-2.9-1.9-5.8-2.8-8.8c-0.9-2.9-1.7-5.9-2.5-8.8c-0.4-1.5-0.8-3-1.2-4.4l-1.2-4.4
						c-0.8-3-1.5-5.9-2.2-8.9l3.3,1.6c-2.8,1.3-5.5,2.7-8.3,4c-2.8,1.3-5.6,2.6-8.4,3.9l-1.2,0.6l-1.2-0.7l-6.6-3.9
						c-2.2-1.3-4.4-2.6-6.5-4l2.4,0c-2.6,1.4-5.2,2.8-7.9,4.2l-7.9,4.1l-0.6,0.3l-0.5-0.1c-1.9-0.4-3.7-0.8-5.6-1.1
						c-1.9-0.4-3.7-0.8-5.6-1.2c-1.9-0.4-3.7-0.8-5.6-1.3C9,288.5,7.2,288,5.3,287.5z"/>
					
						<ellipse transform="matrix(0.9628 -0.2701 0.2701 0.9628 -65.4334 17.7841)" fill="#52687E" cx="31.9" cy="246.7" rx="6" ry="6"/>
					
						<ellipse transform="matrix(0.9628 -0.2701 0.2701 0.9628 -58.3259 23.7721)" fill="#52687E" cx="57.2" cy="223.8" rx="3.1" ry="3.1"/>
					
						<ellipse transform="matrix(0.9628 -0.2701 0.2701 0.9628 -80.0364 26.7797)" fill="#52687E" cx="57.3" cy="304.2" rx="3.1" ry="3.1"/>
					
						<ellipse transform="matrix(0.9628 -0.2701 0.2701 0.9628 -64.727 24.3397)" fill="#52687E" cx="56.1" cy="247.4" rx="3.1" ry="3.1"/>
					
						<ellipse transform="matrix(0.9628 -0.2701 0.2701 0.9628 -67.0792 28.7938)" fill="#52687E" cx="71.1" cy="258.2" rx="5.9" ry="5.9"/>
					
						<ellipse transform="matrix(0.9628 -0.2701 0.2701 0.9628 -83.2851 30.9802)" fill="#52687E" cx="70.9" cy="318.1" rx="3.9" ry="3.9"/>
					
						<ellipse transform="matrix(0.9628 -0.2701 0.2701 0.9628 -83.9443 23.5464)" fill="#52687E" cx="43.6" cy="316.8" rx="5.9" ry="5.9"/>
					
						<ellipse transform="matrix(0.9628 -0.2701 0.2701 0.9628 -59.2438 16.2364)" fill="#52687E" cx="29.4" cy="223.4" rx="6.3" ry="6.3"/>
					
						<ellipse transform="matrix(0.9628 -0.2701 0.2701 0.9628 -59.7709 30.4766)" fill="#52687E" cx="80.9" cy="232.4" rx="4.8" ry="4.8"/>
				</g>
			</g>
			<path fill="#284180" d="M146.6,200.7l-22.4,2.6c0,0,11.7,28.3-6.6,39c-18.3,10.7-32.7,11-32.7,11l7.1,59.9c0,0,36.1,0.2,57.4-20
				c21.2-20.2,9.3-75.6,9.3-75.6L146.6,200.7z"/>
			
				<ellipse transform="matrix(0.9628 -0.2701 0.2701 0.9628 -66.0197 37.1518)" fill="#EC9F21" cx="102" cy="258.5" rx="4.1" ry="4.1"/>
			
				<ellipse transform="matrix(0.9628 -0.2701 0.2701 0.9628 -76.9014 42.1441)" fill="#EC9F21" cx="114.7" cy="300.5" rx="4.1" ry="4.1"/>
			<path fill="#F1CD2E" d="M135.4,302.9l-19.8-59.6c-8.9,4.9-16.8,7.4-22.4,8.6L90,262.1l11.2,8.6l8.3-2.3l7.8,20.5l-9.3,3
				l-6.6,11.5l8.9,7.9C117.8,309.8,126.9,307.3,135.4,302.9z"/>
			<g>
				<path fill="#A02C36" d="M172.2,75.8c-3-2.2-6.4-4.1-10-5.6c3.5,1.9,6.7,4.3,9.5,7.1C171.9,76.8,172.1,76.3,172.2,75.8z"/>
				<path fill="#A02C36" d="M169.5,77.3c-1.4-0.2-2.8-0.4-4.3-0.6c1.6,0.6,3.1,1.2,4.6,1.9C169.7,78.2,169.6,77.8,169.5,77.3z"/>
				<path fill="#A02C36" d="M178.1,74.3c-1.5-1.6-3.2-3.1-5-4.5c1.6,1.5,3.1,3.2,4.5,5C177.7,74.6,177.9,74.4,178.1,74.3z"/>
			</g>
			<polygon fill="#A02C36" points="205,67 204,54.9 202.4,66.7 			"/>
			<polygon fill="#A02C36" points="200.3,65.2 197.7,59 198.9,65.5 			"/>
			<polygon fill="#A02C36" points="206.9,64.8 209.4,58.5 205.7,64 			"/>
			<path fill="#C1592B" d="M306.4,176.3c-4.6-11.2-10.4-23.4-17.6-36.5c-35-63.3-85.7-78.4-85.7-78.4l-34.5,15.8l17.3,67.3
				c0,0-30.5,31.2-44.2,66.3C175.1,216.7,231.8,216,306.4,176.3z"/>
			<path fill="#EDE8D8" d="M218.2,144.8c0,0-0.3,2.1,6.3,10c7.9,9.5,20.5,12.3,20.5,12.3l-5.3-22.1l-8.6,0L218.2,144.8z"/>
			<path fill="#EDE8D8" d="M165,155.7c0,0,0.4,1.7,7,9.6c7.9,9.5,16.6,11,16.6,11l-7.2-32.2l-6.7,10.1L165,155.7z"/>
			<path fill="#C1592B" d="M164.1,160.9c2.6,0.8,5.4,1.2,8.1,1.1c1.4,0,2.8-0.1,4.1-0.3c0.7-0.1,2.3-0.2,3.3-0.5l1.1-6.7l1.2-7
				l0.6-3.5l1.4,3.4c0.3,0.7,0.7,1.4,1.2,2.1c0.5,0.7,1,1.3,1.6,1.9c4.4,4.6,11.3,6.2,17.4,6.4c4.9,0.1,10.1-0.5,14.9-1.9l-6.6-9.3
				l-1.8-2.5l3.1,0.1l15.6,0.4l12.1,0.3c-3.2-3-6.4-6.1-9.6-9.2c-0.3-0.3-0.6-0.6-0.9-0.9c0,0,3.4-3.8,3.6-4.1
				c1.1-1.5,2.1-3,2.8-4.7c1.7-4,2-7.9,0.3-12c-0.5-1.2-1.1-2.3-1.8-3.4c-0.7-1.1-1.4-2.2-2.3-3.1c0.1,0.1,0.2,0.2,0.3,0.3
				c-0.1-0.1-0.3-0.3-0.4-0.4c-5.6-1.7-17.8-4.5-37.5-4.3c-28.3,0.2-49.9,18.3-49.9,18.3l-2.7,18l9.1-4.8c-1.2,1.3-2.2,4.9,0.6,15
				c0.5,1.9,1.3,3.8,2.2,5.7c0.9,1.1,2.2,2.4,3.7,3.5C160.7,159.7,162.4,160.4,164.1,160.9z"/>
			
				<ellipse transform="matrix(0.9628 -0.2701 0.2701 0.9628 -25.3241 49.7633)" fill="#A02C36" cx="168.2" cy="116.9" rx="1.4" ry="1.4"/>
			
				<ellipse transform="matrix(0.9628 -0.2701 0.2701 0.9628 -26.3519 48.3811)" fill="#A02C36" cx="162.6" cy="120" rx="1.1" ry="1.1"/>
			
				<ellipse transform="matrix(0.9628 -0.2701 0.2701 0.9628 -27.0563 49.8458)" fill="#A02C36" cx="167.6" cy="123.2" rx="0.7" ry="0.7"/>
			<path fill="#C1592B" d="M159.2,158.6c0,0,3.5,2.9,9.6,3.7c6.1,0.8,11.5-0.6,11.5-0.6l2.7-14c0,0,3,8.5,15.2,10.9
				c12.2,2.3,23.3-1.9,23.3-1.9l-7.8-11l31.3,0.6l-12.4-11.4c0,0,5-4.2,6.8-12.1c1.8-8-5.7-15.3-5.7-15.3"/>
			<path fill="#A02C36" d="M245.9,145.3c-3.9-3.5-7.8-7-11.7-10.5c5.2-5.7,8.1-14,4.3-21.2c-1.2-2.3-2.9-4.4-4.8-6.2
				c0.9,1,1.6,2,2.3,3.1c0.7,1.1,1.3,2.2,1.8,3.4c1.7,4.1,1.4,8-0.3,12c-0.7,1.7-1.7,3.3-2.8,4.7c-0.3,0.4-3.6,4.2-3.6,4.1
				c0.3,0.3,0.6,0.6,0.9,0.9c3.2,3.1,6.4,6.1,9.6,9.2l-12.1-0.3l-15.6-0.4l-3.1-0.1l1.8,2.5l6.6,9.3c-4.8,1.4-10,2-14.9,1.9
				c-6.2-0.2-13-1.8-17.4-6.4c-0.6-0.6-1.1-1.3-1.6-1.9c-0.5-0.7-0.9-1.4-1.2-2.1l-1.4-3.4l-0.6,3.5l-1.2,7l-1.1,6.7
				c-0.9,0.4-2.6,0.4-3.3,0.5c-1.4,0.2-2.7,0.3-4.1,0.3c-2.7,0-5.5-0.3-8.1-1.1c-1.7-0.6-3.4-1.3-4.9-2.3c1.4,1.2,3.1,2,4.8,2.7
				c5.1,2.1,11.2,2.2,16.5,1l0.4-0.1l0.1-0.5l1.5-6.9l0.9-4.1c0.5,0.8,1.1,1.5,1.7,2.2c1.3,1.4,2.8,2.6,4.4,3.7
				c9.2,5.8,22.7,5,32.6,1.5l1.9-0.7l-1.2-1.6l-6-8.6l12.6,0.2l15.6,0.2l3.6,0L245.9,145.3z"/>
			
				<ellipse transform="matrix(0.9628 -0.2701 0.2701 0.9628 -22.1951 65.2306)" fill="#A02C36" cx="225.9" cy="113.3" rx="1.4" ry="1.4"/>
			
				<ellipse transform="matrix(0.9628 -0.2701 0.2701 0.9628 -23.2229 63.8483)" fill="#A02C36" cx="220.4" cy="116.3" rx="1.1" ry="1.1"/>
			
				<ellipse transform="matrix(0.9628 -0.2701 0.2701 0.9628 -23.9274 65.3131)" fill="#A02C36" cx="225.4" cy="119.6" rx="0.7" ry="0.7"/>
			<path fill="#A02C36" d="M193.5,164.6c0,0,0.4,0.2,1,0.4c2,0.7,4.1,1.1,6.3,1.3c2.5,0.3,5,0.5,7.4,0.6c2.4,0.1,5,0.1,7.4-0.3
				c0.7-0.1,1-0.2,1-0.2s-0.2,0.3-0.8,0.8c-2.4,2-6,2.7-9.1,2.8c-3.5,0.1-7.4-0.6-10.4-2.5c-1-0.6-1.8-1.3-2.3-1.9
				C193.7,165,193.5,164.6,193.5,164.6z"/>
			<path fill="none" d="M164,161.4c5.1,2.1,11.2,2.2,16.5,1l0.4-0.1l0.1-0.5l1.5-6.9l0.9-4.1c0.5,0.8,1.1,1.5,1.7,2.2
				c1.3,1.4,2.8,2.6,4.4,3.7c9.2,5.8,22.7,5,32.6,1.5l1.9-0.7l-1.2-1.6l-6-8.6l12.6,0.2l15.6,0.2l3.6,0l-2.6-2.4
				c-3.9-3.5-7.8-7-11.7-10.5c5.2-5.7,8.1-14,4.3-21.2c-1.2-2.3-2.9-4.4-4.8-6.2c0.9,1,1.6,2,2.3,3.1c0.7,1.1,1.3,2.2,1.8,3.4
				c1.7,4.1,1.4,8-0.3,12c-0.7,1.7-1.7,3.3-2.8,4.7c-0.3,0.4-3.6,4.2-3.6,4.1c0.3,0.3,0.6,0.6,0.9,0.9c3.2,3.1,6.4,6.1,9.6,9.2
				l-12.1-0.3l-15.6-0.4l-3.1-0.1l1.8,2.5l6.6,9.3c-4.8,1.4-10,2-14.9,1.9c-6.2-0.2-13-1.8-17.4-6.4c-0.6-0.6-1.1-1.3-1.6-1.9
				c-0.5-0.7-0.9-1.4-1.2-2.1l-1.4-3.4l-0.6,3.5l-1.2,7l-1.1,6.7c-0.9,0.4-2.6,0.4-3.3,0.5c-1.4,0.2-2.7,0.3-4.1,0.3
				c-2.7,0-5.5-0.3-8.1-1.1c-1.7-0.6-3.4-1.3-4.9-2.3c0.2,0.1,0.3,0.2,0.5,0.4c0.5,0.3,1,0.6,1.5,0.9c-0.5-0.3-1-0.6-1.5-0.9
				C161,160,162.5,160.7,164,161.4z"/>
			<path fill="none" d="M236,110.5c0.7,1.1,1.3,2.2,1.8,3.4c1.7,4.1,1.4,8-0.3,12c-0.7,1.7-1.7,3.3-2.8,4.7
				c-0.3,0.4-3.6,4.2-3.6,4.1c0.3,0.3,0.6,0.6,0.9,0.9c3.2,3.1,6.4,6.1,9.6,9.2l-12.1-0.3l-15.6-0.4l-3.1-0.1l1.8,2.5l6.6,9.3
				c-4.8,1.4-10,2-14.9,1.9c-6.2-0.2-13-1.8-17.4-6.4c-0.6-0.6-1.1-1.3-1.6-1.9c-0.5-0.7-0.9-1.4-1.2-2.1l-1.4-3.4l-0.6,3.5l-1.2,7
				l-1.1,6.7c-0.9,0.4-2.6,0.4-3.3,0.5c-1.4,0.2-2.7,0.3-4.1,0.3c-2.7,0-5.5-0.3-8.1-1.1c-1.7-0.5-3.4-1.3-4.9-2.3
				c0.2,0.1,0.3,0.2,0.5,0.3c1.3,1,2.8,1.8,4.3,2.4c5.1,2.1,11.2,2.2,16.5,1l0.4-0.1l0.1-0.5l1.5-6.9l0.9-4.1
				c0.5,0.8,1.1,1.5,1.7,2.2c1.3,1.4,2.8,2.6,4.4,3.7c9.2,5.8,22.7,5,32.6,1.5l1.9-0.7l-1.2-1.6l-6-8.6l12.6,0.2l15.6,0.2l3.6,0
				l-2.6-2.4c-3.9-3.5-7.8-7-11.7-10.5c5.2-5.7,8.1-14,4.3-21.2c-1.2-2.2-2.7-4.2-4.5-5.9c0.4,0.4,0.7,0.8,1,1.1
				c-0.2-0.3-0.6-0.7-1-1.1c-0.1-0.1-0.2-0.2-0.3-0.3C234.6,108.3,235.3,109.4,236,110.5z"/>
			<path fill="none" d="M159.2,158.6c0.2,0.1,0.3,0.2,0.5,0.4C159.5,158.9,159.4,158.7,159.2,158.6
				C159.2,158.6,159.2,158.6,159.2,158.6z"/>
			<path fill="#A02C36" d="M230.2,109.3c0,0-0.1,0-0.1-0.1c-0.1-0.1-0.2-0.3-0.2-0.5c0-0.2,0-0.6,0.1-0.9c0.1-0.3,0.3-0.7,0.6-1
				c0.3-0.3,0.6-0.6,1-0.8c0.4-0.2,0.8-0.5,1.2-0.6c0.2-0.1,0.4-0.2,0.7-0.2c0.2-0.1,0.4-0.1,0.6-0.2c0.5-0.1,1.1-0.1,1.5-0.1
				c2,0,3.7,0.8,4.8,1.6c0.6,0.4,1,0.8,1.2,1.1c0.3,0.3,0.4,0.5,0.4,0.5s-0.2,0-0.6,0c-0.4,0-1,0-1.6,0c-1.3,0-2.8-0.2-4.2-0.2
				c-0.4,0-0.7,0-1,0c-0.2,0-0.4,0-0.6,0.1c-0.1,0-0.3,0-0.5,0c-0.3,0-0.7,0.1-1,0.1c-0.3,0-0.6,0.1-0.8,0.1
				c-0.5,0.1-0.9,0.3-1.1,0.5C230.3,109,230.2,109.3,230.2,109.3z"/>
			<g>
				<path fill="#25221D" d="M200.1,118.2c8.2-2.3,14.2-8.1,15.5-14.4c-5.4-0.6-11.8-1-19.4-0.9c-7.3,0.1-14.1,1.3-20.3,3.1
					c0,1,0.2,1.9,0.4,2.9C178.7,117.1,189.3,121.2,200.1,118.2z"/>
				<path fill="#52687E" d="M180.8,109.8c-1.3,0.4-2.3,1.4-2.8,2.6c1.5,2.2,3.6,3.9,6.3,5.1c1.5-1,2.3-2.9,1.8-4.7
					C185.4,110.5,183,109.2,180.8,109.8z"/>
				<path fill="#52687E" d="M202.6,109.6c-3.3,0.9-5.3,4.4-4.4,7.8c0.1,0.4,0.3,0.8,0.4,1.2c0.4-0.1,0.9-0.2,1.3-0.3
					c3.9-1.1,7.3-3,9.9-5.3C208.7,110.2,205.6,108.8,202.6,109.6z"/>
			</g>
			<g>
				
					<ellipse transform="matrix(0.9524 -0.3048 0.3048 0.9524 -20.0156 62.4715)" fill="#A02C36" cx="190.1" cy="95.3" rx="11.2" ry="15"/>
				<path fill="#A02C36" d="M215.7,95.2c-1.5,7.1-6.9,12-12.3,10.9c-5.3-1.1-10.1-9.4-8.6-16.5c1.5-7.1,8.6-10.3,13.9-9.2
					C214,81.5,217.2,88.1,215.7,95.2z"/>
				
					<ellipse transform="matrix(0.9524 -0.3048 0.3048 0.9524 -20.122 62.5753)" fill="#EDE8D8" cx="190.3" cy="95.7" rx="8.8" ry="11.7"/>
				
					<ellipse transform="matrix(0.2009 -0.9796 0.9796 0.2009 70.3409 274.7386)" fill="#EDE8D8" cx="203.6" cy="94.3" rx="10.9" ry="8.2"/>
				
					<ellipse transform="matrix(0.9628 -0.2701 0.2701 0.9628 -18.7553 55.2378)" fill="#25221D" cx="191.4" cy="95.8" rx="4.5" ry="5.9"/>
				
					<ellipse transform="matrix(0.9628 -0.2701 0.2701 0.9628 -18.2823 58.2822)" fill="#25221D" cx="202.7" cy="95.6" rx="3.7" ry="4.8"/>
				<path fill="#751A14" d="M190.2,63.7c-3.6,4.6-8.5,8.8-14.4,11.9c-0.8-1-0.7-1.1-1.4-2.1c5.7-2.8,9.5-7.6,13-11.9
					C188.3,62.3,189.2,63,190.2,63.7z"/>
				<path fill="#751A14" d="M195.7,69.9c5.3-0.9,10.8,0.6,16.7,2.2c-0.1,1.2,0.2,1,0,2.1c-5.6-1.6-11.1-1.8-16-1
					C196.2,72.1,195.9,71,195.7,69.9z"/>
			</g>
			<g>
				<path fill="#87298C" d="M150.6,76.7c0,0-1.2-6.2-4.5-8.4c-2.5-1.7-4.4-1.7-5.3-0.7c-0.9,1,2.5,4.4,2.5,4.4s-3.8-1-4.3,0.8
					c-0.5,1.9,3.1,2.4,3.1,2.4s-4.4,1-3.7,3c0.7,2,3.9,0.9,3.9,0.9s-3.2,1.7-2.5,3.5c0.7,1.8,5.6,1.1,5.8,0.9
					C145.6,83.4,150.4,77.1,150.6,76.7z"/>
				<path fill="#27B24B" d="M144.3,94.7c0,0-3.3-18,5.1-20.3C157.7,72,162,92.8,162,92.8l-3.3,0.9c0,0,0.9,8.8-4.9,10
					C148,104.8,144.3,94.7,144.3,94.7z"/>
				<path fill="#3D5059" d="M149.4,74.3c-0.1,0-0.1,0-0.2,0.1l7.7,27.4c2.4-2.9,1.9-8.2,1.9-8.2l3.3-0.9
					C162,92.8,157.7,72,149.4,74.3z"/>
				<path fill="#25221D" d="M153.2,93.2c0,0,0.6,0,1.5,0c0.8,0,1.9,0,2.9-0.1c0.5-0.1,1-0.1,1.5-0.2c0.5-0.1,1-0.1,1.5-0.2
					c0.9-0.1,1.5,0.1,1.5,0.1s-0.5,0.4-1.2,0.8c-0.4,0.2-0.8,0.4-1.3,0.6c-0.5,0.2-1.1,0.4-1.7,0.5c-0.6,0.1-1.3,0-1.8-0.1
					c-0.6-0.1-1.1-0.3-1.5-0.5C153.6,93.7,153.2,93.2,153.2,93.2z"/>
				
					<ellipse transform="matrix(0.9628 -0.2701 0.2701 0.9628 -17.8902 43.4468)" fill="#EDE8D8" cx="148.9" cy="86.7" rx="2.7" ry="4.6"/>
				
					<ellipse transform="matrix(0.9628 -0.2701 0.2701 0.9628 -18.0833 43.8929)" fill="#25221D" cx="150.5" cy="87.7" rx="1.6" ry="2.4"/>
				<polygon fill="#27B24B" points="152.2,102 148.5,109.7 153.5,109.7 				"/>
				<polygon fill="#27B24B" points="153.9,103 157,108.1 160.2,104.6 				"/>
				<path fill="#87298C" d="M144.7,93c0,0-1.2-3.1-3.8-6.3c-2.6-3.2-5.6-3.3-5.6-3.3s-0.8,4.1,1.5,7c2.3,2.9,6.2,3,6.2,3
					s-1.5,1.4-2,4.2c-0.6,2.8,0.8,8.2,0.8,8.2s1.5-0.8,3.1-4.1C146.3,98.3,144.7,93,144.7,93z"/>
			</g>
			
				<ellipse transform="matrix(0.9598 -0.2807 0.2807 0.9598 -22.3831 62.9773)" opacity="0.2" fill="#55C9F4" cx="208.6" cy="109.6" rx="94.1" ry="94.1"/>
			<path fill="#C1592B" d="M137.7,212c-1.7,4.1-3.2,8.3-4.3,12.5c-11,40.1,8.3,82.4,8.3,82.4c76,7.3,147-6.7,187-58.8
				c0,0-5.8-31.8-23.8-74.9C227.4,213.6,172.2,217.5,137.7,212z"/>
			<polygon fill="#EDE8D8" points="180.9,247.3 203.3,243.7 210,227.1 217.1,242.6 231.1,240 234.1,231.7 241.8,237.6 264.2,231.3 
				240.2,187.6 176,198.1 			"/>
			<path fill="#284180" d="M146.7,257.1l7.2-14.5l2.7,12.6l33.1-5.1l-9.5-55.8l-26.3-9.2c-9.8,11.2-18.7,24.7-22.7,39.3
				c-2.9,10.5-3.1,21.4-1.8,31.8L146.7,257.1z"/>
			<path fill="#284180" d="M231.1,188.4l20.8,50.4l26.1-7.3l2.2-14.7l11.7,11.5l17.8-4.3l1.7-13.9l14.1,7.5c0,0-10.7-34.5-19.3-49.9
				c-8.5-15.4-11.7-12.9-11.7-12.9s-16.1,11.3-33.8,23.7C243.2,190.7,231.1,188.4,231.1,188.4z"/>
			<path fill="#EC9F21" d="M254.7,215.6c0,0,0.5-8,3.8-6.3c3.4,1.8-1.9,7-1.9,7s5.8-1.5,4.9,2.1c-0.9,3.6-6,0.5-6,0.5L254.7,215.6z"
				/>
			
				<ellipse transform="matrix(0.9792 -0.2028 0.2028 0.9792 -38.9515 55.8781)" fill="#F1CD2E" cx="253.2" cy="218" rx="4.1" ry="4.1"/>
			<path fill="#EC9F21" d="M174.3,230c0,0-5-6.3-6.7-2.9c-1.7,3.4,5.6,4.6,5.6,4.6s-5.6,2.1-2.8,4.6c2.9,2.4,5.2-3.1,5.2-3.1
				L174.3,230z"/>
			
				<ellipse transform="matrix(0.9161 -0.401 0.401 0.9161 -77.822 90.3376)" fill="#F1CD2E" cx="176.9" cy="231.1" rx="4.1" ry="4.1"/>
			<g>
				<path fill="#25221D" d="M129.5,277.9c0,0,26.5-11.6,99.9-26c73.4-14.4,97-18.6,97-18.6l8.7,26.4l-192.5,56.2L129.5,277.9z"/>
				<path fill="#CBD7DC" d="M196.4,257.9l12.9,39.2l46.3-13.2l-7.9-37.4L196.4,257.9z M248.6,280.7L213,291.6l-3.9-13.8l-2.4-8.4
					l-2-7l38.8-8L248.6,280.7z"/>
				<path fill="#CBD7DC" d="M206.1,272.6c0.2-0.1,8.4-0.6,8.4-0.6l1.4,5l-7.3,2.7L206.1,272.6z"/>
				<polygon fill="#614B45" points="179.1,271.1 190,302.1 189,302.4 178.1,271.4 				"/>
				<polygon fill="#614B45" points="168.4,275.4 177.3,305.8 178.7,305.4 168.9,275.1 				"/>
				<polygon fill="#614B45" points="142.5,285.6 151.4,313.4 152.5,313.1 143.5,285.3 				"/>
				<path fill="#EC9F21" d="M142.5,285.6l36.6-14.5c0,0-11.5-19.7-26.8-11.4C152.3,259.8,136.4,264.5,142.5,285.6"/>
				<path fill="#F1CD2E" d="M151.3,260.1c0,0,9.7-5.1,17.1,15.3l10.7-4.2C179.1,271.1,170,250.9,151.3,260.1z"/>
				<path fill="#52687E" d="M163.5,277.3c0,0-3.7-13.5-11.7-8.9c0,0-7,3.9-2.5,14.5L163.5,277.3z"/>
				<path fill="#EC9F21" d="M167.6,265.7l0-1.4l3.2-0.4c0,0,4.7,2.2,6.6,8l-3.2,1.3L167.6,265.7z"/>
				<path fill="#52687E" d="M171,274.3c0,0-0.6-5-3.5-8.6l3.6-0.5c0,0,3.5,2.4,5.4,7L171,274.3z"/>
				<path fill="#25221D" d="M172.4,266.2l-3.9,0.8c0.2,0.2,0.3,0.5,0.4,0.8l4-1C172.7,266.5,172.5,266.3,172.4,266.2z"/>
				<path fill="#25221D" d="M175.1,269.4l-5,1c0.1,0.3,0.2,0.5,0.3,0.8l5.1-1.3C175.3,269.7,175.2,269.5,175.1,269.4z"/>
				<path fill="#614B45" d="M311.1,266.7l-8.1-29c-0.3,0.1-0.6,0.1-1,0.2c2.6,10.4-5.6,16.7-5.6,16.7c-13.6,7.7-22.1-8.4-23.5-11.1
					c-0.6,0.1-1.2,0.2-1.8,0.3l7.1,32.5l1-0.3l-5.8-29.2c7.3,14.6,20.4,10,20.4,10c8.1-3,9.1-10.9,8.9-15.6l6.5,26.1L311.1,266.7z"
					/>
			</g>
			<g>
				<g>
					<path fill="#F1CD2E" d="M159.6,193.1c0,0,5.2,19.4,0,21.7c-5.2,2.2-3.7-7-3.7-7s-2.5,13.1-6.4,13.2c-3.9,0.2-3.2-12-3.2-12
						s-2.2,10.3-7.7,9.8c-5.5-0.6-1.8-9.1-1.8-9.1s-10.4,8.9-13.4,5.8c-3-3.1,2.9-11.9,2.9-11.9s-5.4,9.4-9.6,6.8
						c-4.2-2.7,11.5-24.9,11.5-24.9L159.6,193.1z"/>
					<path fill="#EC9F21" d="M165.2,192.5l-40-16.1l-0.5,4.7c0,0-0.8,12.7,12,17.9C149.5,204.2,165.2,192.5,165.2,192.5z"/>
					<path fill="#F1CD2E" d="M165.7,187.8l-40.5-11.4c0,0-0.8,12.7,12,17.9C150,199.5,165.7,187.8,165.7,187.8z"/>
				</g>
				<path fill="#A91E33" d="M152,183.9c0,0-4.8,17.6-0.3,35l124.2-22.1c0,0,9-24.3,29.3-39.4l-20.1-1.5
					C285.1,155.9,217.8,197.4,152,183.9"/>
				<path fill="#751B16" d="M156.8,184.8c0,0,1.7,16.8,20.9,29.5l-26,4.6c0,0-5.3-16.6,0.3-35L156.8,184.8z"/>
				<path fill="#751B16" d="M267,164.8c0,0-22.5,15.9-13.2,35.9l22.3-4c0,0,9.5-24.1,29.3-39.4l-12.1-8.6L267,164.8z"/>
				
					<ellipse transform="matrix(0.9628 -0.2701 0.2701 0.9628 -36.6725 80.7556)" fill="#A91E33" cx="275.1" cy="173.6" rx="5.4" ry="5.4"/>
				<polygon fill="#751B16" points="273.6,166.1 274.1,180.7 275.7,180.9 276.3,165 				"/>
				<polygon fill="#751B16" points="200.6,204.8 198.1,205.4 197.9,192.4 200.4,191.7 				"/>
				<polygon fill="#751B16" points="209.8,203 207.3,203.6 207.1,190.6 209.6,190 				"/>
				<polygon fill="#751B16" points="214.6,202.2 212.2,202.8 212,189.8 214.4,189.2 				"/>
				<polygon fill="#751B16" points="205.3,203.9 202.8,204.5 202.6,191.5 205.1,190.9 				"/>
			</g>
		</g>
	</g>
</g>
<g id="Kraken_x5F_0star">
</g>
<g id="Balloon">
</g>
<g id="Frame" display="none">
</g>
<g id="Problem_Screen" display="none">
</g>
</svg>
