<?xml version="1.0" encoding="utf-8"?>
<!-- Generator: Adobe Illustrator 19.2.0, SVG Export Plug-In . SVG Version: 6.00 Build 0)  -->
<!DOCTYPE svg PUBLIC "-//W3C//DTD SVG 1.1//EN" "http://www.w3.org/Graphics/SVG/1.1/DTD/svg11.dtd">
<svg version="1.1" xmlns="http://www.w3.org/2000/svg" xmlns:xlink="http://www.w3.org/1999/xlink" x="0px" y="0px"
	 viewBox="0 0 313.1 362.6" enable-background="new 0 0 313.1 362.6" xml:space="preserve" width="313.1" height="362.6" preserveAspectRatio="none">
<g id="BG">
</g>
<g id="Sunburt_Blue">
</g>
<g id="Results_Small_Rectangle">
</g>
<g id="Sunburst_Yellow">
</g>
<g id="Stars">
</g>
<g id="Submit_Button_1_">
</g>
<g id="Top_Tab">
</g>
<g id="Header">
</g>
<g id="Header_Buttons">
</g>
<g id="Title">
</g>
<g id="Kraken_x5F_3star">
</g>
<g id="Kraken_x5F_2star">
	<g>
		<defs>
			<rect id="SVGID_25_" width="313.1" height="362.6"/>
		</defs>
		<clipPath id="SVGID_1_">
			<use xlink:href="#SVGID_25_"  overflow="visible"/>
		</clipPath>
		<g clip-path="url(#SVGID_1_)">
			<g>
				<path opacity="0.75" fill="#8ED6EC" d="M270.8,15c-3.3-0.3-6.4-1.3-9.2-3c-3.1,6.3-8.7,11.3-16,13.1c-9.9,2.6-19.9-1.3-25.9-9
					c-1.6,8.4-7.8,15.4-16.5,17.7c-7,1.8-14.2,0.1-19.6-4.1c-2.6,8.9-9.6,16.2-19.1,18.7c-2.7,0.7-5.4,1-8,0.8
					c-14.6,21.9-20.1,50-12.9,77.7c13.3,51.2,64.9,82.2,115.3,69.1c50.4-13.1,80.5-65.2,67.2-116.5C318.4,49.4,297.2,26.3,270.8,15z
					"/>
				
					<ellipse transform="matrix(0.9707 -0.2403 0.2403 0.9707 -7.5583 45.3555)" fill="#CFECFB" cx="182.2" cy="53.7" rx="3.6" ry="3.6"/>
				
					<ellipse transform="matrix(0.9707 -0.2403 0.2403 0.9707 -16.4913 46.7278)" fill="#CFECFB" cx="183.4" cy="91" rx="5.9" ry="5.9"/>
				
					<ellipse transform="matrix(0.9707 -0.2403 0.2403 0.9707 -2.9975 59.7858)" fill="#CFECFB" cx="243.6" cy="42.2" rx="3.9" ry="3.9"/>
				
					<ellipse transform="matrix(0.9707 -0.2403 0.2403 0.9707 -0.7337 66.7354)" fill="#CFECFB" cx="273.3" cy="36.4" rx="6.9" ry="6.9"/>
				
					<ellipse transform="matrix(0.9707 -0.2403 0.2403 0.9707 -6.8049 48.3385)" fill="#CFECFB" cx="194.8" cy="52.1" rx="2.3" ry="2.3"/>
				
					<ellipse transform="matrix(0.9707 -0.2403 0.2403 0.9707 -23.2957 40.7435)" fill="#CFECFB" cx="155.4" cy="115.9" rx="4" ry="4"/>
				
					<ellipse transform="matrix(0.9707 -0.2403 0.2403 0.9707 -26.7792 42.0708)" fill="#CFECFB" cx="159.1" cy="130.8" rx="2.1" ry="2.1"/>
				
					<ellipse transform="matrix(0.9707 -0.2403 0.2403 0.9707 -11.991 77.8112)" fill="#CFECFB" cx="313.1" cy="88.1" rx="2.1" ry="2.1"/>
				
					<ellipse transform="matrix(0.9707 -0.2403 0.2403 0.9707 -14.0055 76.1055)" fill="#CFECFB" cx="305.1" cy="95.5" rx="2.1" ry="2.1"/>
				
					<ellipse transform="matrix(0.9707 -0.2403 0.2403 0.9707 -15.7059 41.2354)" fill="#CFECFB" cx="161.2" cy="85" rx="4.7" ry="4.7"/>
			</g>
			<path fill="#994627" d="M219.5,310c0,0-1.7-10.8-26.4-4.7c-27.3,6.8-22.3,15.8-22.3,15.8c22.1,25.5,34.6,74.8,34.6,74.8
				c-1.3,18.8,6.3,6.9,6.3,6.9C235.4,367.8,219.5,310,219.5,310z"/>
			<path fill="#994627" d="M303.3,296.7c-4.4-6.4-22.3-7.8-39.7,2.3c-19.6,11.4-8.7,32.7-8.7,32.7s3.9,36.8,41.1,56.6
				c0,0,12.3,6.4,3.6-9.9c0,0-6.9-12.5,0-40.1C299.7,338.3,307.7,303.1,303.3,296.7z"/>
			<path fill="#C1592B" d="M150.2,293.2c0,0,8.7,27.8,14,38.9c0,0,23.1,47.6,1.3,75.5c0,0-13.9,16,8,7.6c0,0,63.6-23.3,36.4-108.5
				c-7.4-23-13.3-34.2-18.7-40.8c-7.9-2.6-19.2,1.3-30.6,9.2C150,283.9,149.2,290.3,150.2,293.2z"/>
			<path fill="#C1592B" d="M225.7,274.5c-24.4,3.5-21.4,20.5-21.4,20.5s-0.2,11,8.4,56.7c0.5,2.8,11.6,43.6,41.7,51.7
				c0,0,25.4,7.1,8.5-7.8c0,0-9.1-15.4-2.2-46.5c6.5-29.7,2.9-38.1,4.3-46.5C267.2,291,248.9,271.2,225.7,274.5z"/>
			<path fill="#ECE7D7" d="M209.6,334.7c0.9,5.1,1.9,10.7,3.1,17.1c0.3,1.8,4.9,18.8,15.8,33.1l30.4-2.4c-1.2-7.7-1.4-18.7,1.7-33.2
				c2.9-13,3.8-21.9,4-28.6L209.6,334.7z"/>
			<path fill="#A48B7F" d="M262.5,340.5l-51.5,1.8c0.1,0.4,0.1,0.7,0.2,1.1l50.9-0.6C262.2,342,262.4,341.3,262.5,340.5z"/>
			<path fill="#A48B7F" d="M215.3,359.9l45.5-10.8c0.1-0.6,0.2-1.2,0.4-1.7L215,359.2C215.1,359.4,215.2,359.7,215.3,359.9z"/>
			<path fill="#C1592B" d="M395.1,362.2c0,0-20.4-8.4-26.2-47.3c0,0-3.9-17.6-6.7-43.2c0,0-2-16.7-7.6-24.1
				c-5.1-0.7-5.1-1.8-12.5-1.5c-11.1,0.4-31.8,6.6-36.1,13.1c-4.3,6.5,13.4,54.8,17,61.9c10.4,25.1,27.1,51.2,61,50.1
				C384.1,371.3,423.2,370.3,395.1,362.2z"/>
			<polygon fill="#672E1D" points="309.1,356.5 328.6,392.8 338.9,388.8 325.8,351.2 			"/>
			<polygon fill="#421B0D" points="315.9,369.2 329.7,362.3 327,354.6 311.1,360.1 			"/>
			<polygon fill="#672E1D" points="277.7,342.8 331,319.7 339.1,340.3 291.8,364 			"/>
			<polygon fill="#672E1D" points="299.5,357.6 309.1,365.9 331.3,356.4 329.5,342.1 			"/>
			<path fill="#8F4432" d="M277.7,342.8l53.3-23.1c0,0,5.1,14.2-16.3,24.7C314.7,344.4,290.7,353.7,277.7,342.8"/>
			<path fill="#C1592B" d="M260.3,291.6c0,0,1.3,38.4,30.1,52.8c0,0,21.9-3.6,36.1-14.4c0,0,2.8-27.4-9.2-57.5L260.3,291.6z"/>
			<polygon fill="#421B0D" points="301.4,359.2 329.9,344.9 330.5,349 303.5,361.1 			"/>
			<g>
				<path fill="#25221D" d="M92.9,246.4c0,0,1.3,1.7,3.1,1.8c1.7,0,16.2-0.6,16.2-0.6l-1.2,49.4l-24.3,5c0,0-0.5-30.8-0.5-31.5
					C86.1,269.6,92.9,246.4,92.9,246.4z"/>
				<g>
					<path fill="#25221D" d="M94.4,247.2c0,0,22.5-48.9-19.2-61.5c-41.6-12.6-71.8,65.7-71.8,65.7l22.1,10c0,0-5.1,28.2,13.2,39.4
						c18.3,11.2,51,0.3,51,0.3L94.4,247.2z"/>
					<path fill="#C8A15F" d="M72,305c10-1.4,17.8-3.9,17.8-3.9l3.2-37.7l-14.6,3.5L75.9,252l-24.2,3.4l-3-14.9l-27.2,3.4l-7.9-13.8
						c-6.5,11.8-10.2,21.3-10.2,21.3l22.1,10c0,0-0.7,4.1-0.6,9.9l21.6-3l9.2,8.3l19-2.4L72,305z"/>
					<path fill="#7C6C36" d="M3.5,251.4c1.9,0.6,3.9,1.2,5.8,1.9c1.9,0.7,3.8,1.3,5.7,2c1.9,0.7,3.8,1.4,5.7,2.1
						c1.9,0.7,3.8,1.4,5.7,2.2l-1.2-0.1l9.1-2.6c3.1-0.8,6.1-1.7,9.2-2.5l1.4-0.4l1.1,1.1c1.9,1.9,3.8,3.9,5.7,5.9l5.6,5.9l-2.4-0.8
						c3.3-0.5,6.5-1,9.8-1.4c3.3-0.5,6.5-0.9,9.8-1.3l3.2-0.4l-0.3,3c-0.3,3.3-0.7,6.5-1,9.8l-0.6,4.9c-0.2,1.6-0.4,3.2-0.6,4.9
						c-0.4,3.2-0.9,6.5-1.4,9.7c-0.5,3.2-1,6.5-1.7,9.7c-0.2-3.3-0.2-6.6-0.3-9.8c0-3.3,0-6.6,0-9.8c0-1.6,0-3.3,0.1-4.9l0.1-4.9
						c0.1-3.3,0.2-6.5,0.3-9.8l2.9,2.6c-3.2,0.6-6.5,1.1-9.7,1.6c-3.2,0.5-6.5,1-9.8,1.5l-1.4,0.2l-1-1.1l-5.6-6c-1.8-2-3.7-4-5.5-6
						l2.5,0.7c-3.1,0.7-6.2,1.3-9.3,2l-9.3,1.8l-0.7,0.1l-0.5-0.3c-1.8-0.9-3.6-1.9-5.4-2.8c-1.8-0.9-3.6-1.9-5.4-2.9
						c-1.8-1-3.6-1.9-5.3-3C7,253.5,5.2,252.4,3.5,251.4z"/>
					
						<ellipse transform="matrix(7.782253e-003 -1 1 7.782253e-003 -174.8478 258.5152)" fill="#52687E" cx="42.8" cy="217.4" rx="6.4" ry="6.4"/>
					
						<ellipse transform="matrix(7.832498e-003 -1 1 7.832498e-003 -126.4691 275.4356)" fill="#52687E" cx="75.6" cy="201.4" rx="3.3" ry="3.3"/>
					
						<ellipse transform="matrix(7.670484e-003 -1 1 7.670484e-003 -232.481 333.5579)" fill="#52687E" cx="51.8" cy="283.9" rx="3.3" ry="3.3"/>
					
						<ellipse transform="matrix(7.853229e-003 -1 1 7.853229e-003 -158.3552 290.909)" fill="#52687E" cx="67.4" cy="225.3" rx="3.3" ry="3.3"/>
					
						<ellipse transform="matrix(7.793499e-003 -1 1 7.793499e-003 -161.7425 318.4962)" fill="#52687E" cx="79.6" cy="240.8" rx="6.3" ry="6.3"/>
					
						<ellipse transform="matrix(7.876660e-003 -1 1 7.876660e-003 -241.0014 361.5214)" fill="#52687E" cx="61.7" cy="302.2" rx="4.2" ry="4.2"/>
					
						<ellipse transform="matrix(7.838987e-003 -1 1 7.838987e-003 -258.9737 324.5038)" fill="#52687E" cx="34" cy="292.8" rx="6.3" ry="6.3"/>
					
						<ellipse transform="matrix(7.772217e-003 -1 1 7.772217e-003 -145.9746 238.4006)" fill="#52687E" cx="47.1" cy="192.8" rx="6.7" ry="6.7"/>
					
						<ellipse transform="matrix(7.831831e-003 -1 1 7.831831e-003 -120.7713 312.8307)" fill="#52687E" cx="97.3" cy="217.3" rx="5.1" ry="5.1"/>
				</g>
			</g>
			<path fill="#284180" d="M174,204.2l-23.7-4c0,0,3.6,32.5-18.3,38c-21.9,5.5-36.8,1.6-36.8,1.6l-10.4,63.6c0,0,37,10.9,64.8-3.5
				c27.7-14.4,31.9-74.7,31.9-74.7L174,204.2z"/>
			<path fill="#F1CD2E" d="M132.3,305.7l-2.6-66.9c-10.6,2.4-19.4,2.6-25.5,2.2l-6.3,9.4l8.9,12.1l9.2,0.1l1.9,23.4l-10.4,0.3
				L97.3,296l6.7,10.8C112.3,307.6,122.3,307.7,132.3,305.7z"/>
			
				<ellipse transform="matrix(7.701781e-003 -1 1 7.701781e-003 -139.8803 359.5273)" fill="#EC9F21" cx="111.2" cy="250.2" rx="4.3" ry="4.3"/>
			
				<ellipse transform="matrix(7.826390e-003 -1 1 7.826390e-003 -186.1995 406.5689)" fill="#EC9F21" cx="111.8" cy="297.1" rx="4.3" ry="4.3"/>
			<g>
				<path fill="#A02C36" d="M196.8,66.9c-3.1-2.4-6.7-4.6-10.5-6.3c3.6,2.1,7,4.9,9.9,7.8C196.4,67.9,196.6,67.4,196.8,66.9z"/>
				<path fill="#A02C36" d="M193.8,68.4c-1.5-0.3-3-0.6-4.5-0.8c1.7,0.7,3.3,1.4,4.8,2.1C194,69.3,193.9,68.9,193.8,68.4z"/>
				<path fill="#A02C36" d="M203.1,65.4c-1.6-1.8-3.3-3.4-5.2-4.9c1.7,1.7,3.2,3.5,4.6,5.4C202.7,65.8,202.9,65.6,203.1,65.4z"/>
			</g>
			<polygon fill="#A02C36" points="232.1,58.6 231.3,45.6 229.2,58.2 			"/>
			<polygon fill="#A02C36" points="227.1,56.5 224.5,49.8 225.5,56.8 			"/>
			<polygon fill="#A02C36" points="234.2,56.2 237,49.6 232.9,55.3 			"/>
			<path fill="#C1592B" d="M336.6,178.5c-4.6-12.1-10.3-25.4-17.6-39.5c-35.2-68.7-88.8-86.4-88.8-86.4l-37.3,15.7l16.3,72.4
				c0,0-33.5,32.2-49.4,69.3C195.2,217.2,255.7,218.4,336.6,178.5z"/>
			<path fill="#25221D" d="M268,120.7l-4.6,6.5l-4.1,4.7l11.2,12.7l-31.7-1.8l7.9,12l-8.1,1.8l-9.8,0.4l-4.7-0.2
				c0,0,11.9,16.5,34.6,8.5C286.2,155.4,268,120.7,268,120.7z"/>
			<path fill="#A91E33" d="M258.6,165.2c7.3-2.6,11.4-7,13.4-11.9c-4.4-0.1-9.8,0.7-15.6,3.7c-6,3.1-9.4,7-11.4,10.4
				C249,167.6,253.6,167,258.6,165.2z"/>
			<path fill="#EDE8D8" d="M243.5,142c0,0-0.3,2.2,6.4,10.8c8.1,10.4,21.5,13.8,21.5,13.8l-4.9-23.8l-9.1-0.3L243.5,142z"/>
			<path fill="#EDE8D8" d="M186.5,151.8c0,0,0.4,1.8,7.1,10.4c8.1,10.4,17.4,12.2,17.4,12.2l-6.6-34.6c0,0-3.3-3.2-11.7,1.9
				C184.3,146.9,186.5,151.8,186.5,151.8z"/>
			<path fill="#C1592B" d="M185.3,157.4c2.8,1,5.7,1.4,8.6,1.5c1.5,0,2.9-0.1,4.4-0.2c0.7-0.1,2.5-0.1,3.5-0.5l1.4-7.1l1.5-7.4
				l0.8-3.8l1.4,3.7c0.3,0.7,0.7,1.6,1.2,2.3c0.5,0.7,1,1.5,1.6,2.1c4.6,5.1,11.8,7,18.4,7.4c5.2,0.3,10.8-0.2,15.9-1.5l-6.8-10.2
				l-1.8-2.7l3.3,0.2l16.7,0.9l12.9,0.8c-3.3-3.4-6.6-6.7-10-10.1c-0.3-0.3-0.6-0.6-0.9-1c0,0,3.7-3.9,4-4.3c1.2-1.5,2.3-3.2,3.1-5
				c2-4.2,2.4-8.4,0.8-12.8c-0.5-1.3-1.1-2.5-1.8-3.7c-0.7-1.2-1.4-2.4-2.3-3.4c0.1,0.1,0.2,0.2,0.3,0.4c-0.1-0.2-0.3-0.3-0.4-0.5
				c-6-2-18.9-5.4-39.8-5.9c-30.2-0.7-53.9,17.9-53.9,17.9l-3.5,19.1l9.9-4.8c-1.3,1.4-2.5,5.2,0.2,16c0.5,2.1,1.2,4.1,2.1,6.2
				c0.9,1.2,2.2,2.6,3.9,3.9C181.8,156,183.5,156.8,185.3,157.4z"/>
			
				<ellipse transform="matrix(0.9707 -0.2403 0.2403 0.9707 -20.9757 49.1641)" fill="#A02C36" cx="191.1" cy="110.6" rx="1.5" ry="1.5"/>
			
				<ellipse transform="matrix(0.9707 -0.2403 0.2403 0.9707 -21.8884 47.8105)" fill="#A02C36" cx="185.1" cy="113.7" rx="1.1" ry="1.1"/>
			
				<ellipse transform="matrix(0.9707 -0.2403 0.2403 0.9707 -22.6194 49.1665)" fill="#A02C36" cx="190.3" cy="117.3" rx="0.8" ry="0.8"/>
			<path fill="#C1592B" d="M180.2,154.8c0,0,3.6,3.2,10.1,4.2c6.5,1.1,12.3-0.3,12.3-0.3l3.3-14.8c0,0,3,9.2,15.8,12.1
				c12.9,2.9,25-1.2,25-1.2l-7.9-12l33.3,1.7l-12.8-12.6c0,0,5.5-4.3,7.7-12.7c2.2-8.4-5.6-16.5-5.6-16.5"/>
			<path fill="#A02C36" d="M273.1,143.4c-4-3.9-8.1-7.7-12.1-11.6c5.8-5.9,9.1-14.7,5.3-22.5c-1.2-2.5-2.9-4.8-4.9-6.8
				c0.9,1.1,1.6,2.2,2.3,3.4c0.7,1.2,1.3,2.4,1.8,3.7c1.7,4.4,1.2,8.6-0.8,12.8c-0.8,1.8-1.9,3.4-3.1,5c-0.3,0.4-4,4.4-4,4.3
				c0.3,0.3,0.6,0.6,0.9,1c3.3,3.4,6.6,6.7,10,10.1l-12.9-0.8l-16.7-0.9l-3.3-0.2l1.8,2.7l6.8,10.2c-5.1,1.4-10.7,1.8-15.9,1.5
				c-6.6-0.4-13.8-2.4-18.4-7.4c-0.6-0.7-1.2-1.4-1.6-2.1c-0.5-0.7-0.9-1.6-1.2-2.3l-1.4-3.7l-0.8,3.8l-1.5,7.4l-1.4,7.1
				c-1,0.3-2.8,0.4-3.5,0.5c-1.5,0.2-2.9,0.3-4.4,0.2c-2.9,0-5.9-0.5-8.6-1.5c-1.8-0.6-3.6-1.5-5.2-2.6c1.5,1.3,3.2,2.3,5,3.1
				c5.4,2.4,11.9,2.7,17.6,1.6l0.5-0.1l0.1-0.5l1.8-7.4l1.1-4.3c0.5,0.8,1.1,1.6,1.7,2.4c1.3,1.6,2.9,2.9,4.5,4
				c9.6,6.5,24,6.1,34.7,2.7l2-0.6l-1.2-1.8l-6.1-9.3l13.4,0.6l16.7,0.7l3.8,0.2L273.1,143.4z"/>
			
				<ellipse transform="matrix(0.9707 -0.2403 0.2403 0.9707 -18.6896 63.9463)" fill="#A02C36" cx="252.9" cy="108.6" rx="1.5" ry="1.5"/>
			
				<ellipse transform="matrix(0.9707 -0.2403 0.2403 0.9707 -19.6024 62.5925)" fill="#A02C36" cx="246.8" cy="111.7" rx="1.1" ry="1.1"/>
			
				<ellipse transform="matrix(0.9707 -0.2403 0.2403 0.9707 -20.3334 63.9486)" fill="#A02C36" cx="252" cy="115.3" rx="0.8" ry="0.8"/>
			<path fill="#A02C36" d="M268.3,171.5c0,0,0.3-0.1,0.8-0.4c1.6-0.8,3.1-2,4.5-3.1c1.6-1.4,3.2-2.8,4.7-4.3c1.5-1.5,3-3.1,4.2-4.8
				c0.3-0.5,0.5-0.8,0.5-0.8s0.1,0.3,0.1,0.9c-0.1,2.7-1.8,5.4-3.6,7.3c-2,2.2-4.8,4.3-7.7,5c-1,0.3-1.9,0.3-2.5,0.3
				C268.6,171.6,268.3,171.5,268.3,171.5z"/>
			<path fill="none" d="M185.2,157.9c5.4,2.4,11.9,2.7,17.6,1.6l0.5-0.1l0.1-0.5l1.8-7.4l1.1-4.3c0.5,0.8,1.1,1.6,1.7,2.4
				c1.3,1.6,2.9,2.9,4.5,4c9.6,6.5,24,6.1,34.7,2.7l2-0.6l-1.2-1.8l-6.1-9.3l13.4,0.6l16.7,0.7l3.8,0.2l-2.7-2.6
				c-4-3.9-8.1-7.7-12.1-11.6c5.8-5.9,9.1-14.7,5.3-22.5c-1.2-2.5-2.9-4.8-4.9-6.8c0.9,1.1,1.6,2.2,2.3,3.4c0.7,1.2,1.3,2.4,1.8,3.7
				c1.7,4.4,1.2,8.6-0.8,12.8c-0.8,1.8-1.9,3.4-3.1,5c-0.3,0.4-4,4.4-4,4.3c0.3,0.3,0.6,0.6,0.9,1c3.3,3.4,6.6,6.7,10,10.1
				l-12.9-0.8l-16.7-0.9l-3.3-0.2l1.8,2.7l6.8,10.2c-5.1,1.4-10.7,1.8-15.9,1.5c-6.6-0.4-13.8-2.4-18.4-7.4
				c-0.6-0.7-1.2-1.4-1.6-2.1c-0.5-0.7-0.9-1.6-1.2-2.3l-1.4-3.7l-0.8,3.8l-1.5,7.4l-1.4,7.1c-1,0.3-2.8,0.4-3.5,0.5
				c-1.5,0.2-2.9,0.3-4.4,0.2c-2.9,0-5.9-0.5-8.6-1.5c-1.8-0.6-3.6-1.5-5.2-2.6c0.2,0.1,0.3,0.3,0.5,0.4c0.5,0.4,1,0.7,1.6,1
				c-0.6-0.3-1.1-0.7-1.6-1C182,156.3,183.6,157.2,185.2,157.9z"/>
			<path fill="none" d="M263.7,106c0.7,1.2,1.3,2.4,1.8,3.7c1.7,4.4,1.2,8.6-0.8,12.8c-0.8,1.8-1.9,3.4-3.1,5c-0.3,0.4-4,4.4-4,4.3
				c0.3,0.3,0.6,0.6,0.9,1c3.3,3.4,6.6,6.7,10,10.1l-12.9-0.8l-16.7-0.9l-3.3-0.2l1.8,2.7l6.8,10.2c-5.1,1.4-10.7,1.8-15.9,1.5
				c-6.6-0.4-13.8-2.4-18.4-7.4c-0.6-0.7-1.2-1.4-1.6-2.1c-0.5-0.7-0.9-1.6-1.2-2.3l-1.4-3.7l-0.8,3.8l-1.5,7.4l-1.4,7.1
				c-1,0.3-2.8,0.4-3.5,0.5c-1.5,0.2-2.9,0.3-4.4,0.2c-2.9,0-5.9-0.5-8.6-1.5c-1.8-0.6-3.6-1.5-5.2-2.6c0.2,0.1,0.3,0.3,0.5,0.4
				c1.4,1.1,2.9,2,4.5,2.7c5.4,2.4,11.9,2.7,17.6,1.6l0.5-0.1l0.1-0.5l1.8-7.4l1.1-4.3c0.5,0.8,1.1,1.6,1.7,2.4
				c1.3,1.6,2.9,2.9,4.5,4c9.6,6.5,24,6.1,34.7,2.7l2-0.6l-1.2-1.8l-6.1-9.3l13.4,0.6l16.7,0.7l3.8,0.2l-2.7-2.6
				c-4-3.9-8.1-7.7-12.1-11.6c5.8-5.9,9.1-14.7,5.3-22.5c-1.2-2.4-2.7-4.5-4.6-6.4c0.4,0.4,0.8,0.9,1,1.2c-0.2-0.3-0.6-0.8-1-1.2
				c-0.1-0.1-0.2-0.2-0.3-0.4C262.2,103.6,263,104.8,263.7,106z"/>
			<path fill="none" d="M180.2,154.8c0.2,0.1,0.3,0.3,0.5,0.4C180.5,155.1,180.3,154.9,180.2,154.8
				C180.2,154.8,180.2,154.8,180.2,154.8z"/>
			<path fill="#A02C36" d="M257.6,104.5c0,0-0.1,0-0.1-0.1c-0.1-0.1-0.2-0.3-0.2-0.5c0-0.2,0-0.6,0.1-0.9c0.1-0.3,0.3-0.7,0.6-1
				c0.3-0.3,0.7-0.6,1-0.9c0.4-0.3,0.8-0.5,1.3-0.6c0.2-0.1,0.4-0.2,0.7-0.2c0.2-0.1,0.4-0.1,0.6-0.2c0.6-0.1,1.1-0.1,1.6-0.1
				c2.1,0.1,3.9,0.9,5.1,1.8c0.6,0.5,1,0.9,1.3,1.2c0.3,0.3,0.4,0.6,0.4,0.6s-0.3,0-0.7,0c-0.4,0-1,0-1.7,0c-1.3-0.1-3-0.3-4.5-0.3
				c-0.4,0-0.7,0-1,0c-0.2,0-0.4,0-0.7,0c-0.1,0-0.3,0-0.5,0c-0.4,0-0.7,0.1-1,0.1c-0.3,0-0.6,0.1-0.9,0.1c-0.5,0.1-0.9,0.3-1.2,0.5
				C257.6,104.2,257.6,104.5,257.6,104.5z"/>
			<g>
				
					<ellipse transform="matrix(0.9613 -0.2753 0.2753 0.9613 -15.9955 62.6599)" fill="#A02C36" cx="215.2" cy="88.3" rx="12" ry="16"/>
				<path fill="#A02C36" d="M242.5,89c-1.8,7.5-7.8,12.5-13.4,11.2c-5.6-1.3-10.5-10.3-8.7-17.9c1.8-7.5,9.5-10.7,15.1-9.4
					C241.2,74.3,244.3,81.5,242.5,89z"/>
				
					<ellipse transform="matrix(0.9613 -0.2754 0.2754 0.9613 -16.1023 62.7568)" fill="#EDE8D8" cx="215.5" cy="88.7" rx="9.4" ry="12.5"/>
				
					<ellipse transform="matrix(0.2309 -0.973 0.973 0.2309 91.3703 290.7581)" fill="#EDE8D8" cx="229.6" cy="87.6" rx="11.6" ry="8.7"/>
				
					<ellipse transform="matrix(0.9707 -0.2403 0.2403 0.9707 -14.9956 54.6351)" fill="#25221D" cx="216.5" cy="88.8" rx="4.8" ry="6.3"/>
				
					<ellipse transform="matrix(0.9707 -0.2403 0.2403 0.9707 -14.6808 57.5383)" fill="#25221D" cx="228.6" cy="89" rx="3.9" ry="5.2"/>
				<path fill="#751A14" d="M215.9,58.3C210,60.4,204.2,64,199,68.9c0.7,1.1,0.8,1.1,1.6,2.2c4.8-4.8,10.9-7.1,16.4-9.2
					C216.6,60.7,216.2,59.5,215.9,58.3z"/>
				<path fill="#751A14" d="M222,61.3c5.7-0.8,11.5,1,17.7,2.9c-0.1,1.2,0.1,1-0.1,2.2c-5.9-1.9-11.7-2.3-17.1-1.6
					C222.4,63.7,222.2,62.5,222,61.3z"/>
			</g>
			<g>
				<path fill="#25221D" d="M225.1,113c8.9-2.2,15.4-8.2,17.1-14.8c-5.7-0.8-12.6-1.4-20.7-1.6c-7.8-0.2-15.1,0.9-21.7,2.6
					c0,1,0.1,2.1,0.4,3.1C202.3,111.1,213.5,115.9,225.1,113z"/>
				<path fill="#52687E" d="M204.8,103.4c-1.4,0.4-2.5,1.4-3.1,2.6c1.5,2.4,3.7,4.3,6.5,5.6c1.6-1,2.5-3,2-4.9
					C209.6,104.3,207.2,102.8,204.8,103.4z"/>
				<path fill="#52687E" d="M228.1,103.9c-3.6,0.9-5.8,4.5-4.9,8.1c0.1,0.4,0.3,0.9,0.4,1.2c0.5-0.1,0.9-0.2,1.4-0.3
					c4.2-1,7.9-2.9,10.8-5.4C234.5,104.8,231.3,103.1,228.1,103.9z"/>
			</g>
			<path fill="#87298C" d="M284.2,51.6c0,0-2.1-6.4-0.3-10.2c1.4-2.9,3.2-3.9,4.6-3.5c1.4,0.4,0.1,5.4,0.1,5.4s3-3,4.5-1.5
				c1.5,1.5-1.6,3.9-1.6,3.9s4.6-1.4,5,0.9c0.4,2.2-3.1,2.9-3.1,2.9s3.9-0.1,4.2,2c0.3,2-4.7,4-4.9,3.9
				C292.3,55.2,284.5,51.9,284.2,51.6z"/>
			<path fill="#87298C" d="M298.2,63.6c0,0-0.6-3.5,0.2-7.9c0.7-4.4,3.5-6,3.5-6s2.9,3.3,2.3,7.3c-0.6,3.9-4.1,6-4.1,6
				s2.1,0.5,4.1,2.8c2,2.3,3.6,8,3.6,8s-1.8,0.1-5-2.2C299.5,69.5,298.2,63.6,298.2,63.6z"/>
			<polygon fill="#27B24B" points="296,76 303.5,81.2 298.9,83.8 			"/>
			<polygon fill="#27B24B" points="294.9,77.8 294.8,84.1 289.9,82.6 			"/>
			<path fill="#27B24B" d="M284,48.8c-6.5,1.6-4.6,13.4-3.1,19.8c0.8,0.3,2.3,0.6,4.8,0.7c5,0.2,7.4-2.9,7.4-2.9s-0.4,6-5.3,7.7
				c-0.3,0.1-0.6,0.2-0.8,0.2c1.6,2.3,4.5,5.2,8.3,4c6-2,4.1-13.4,4.1-13.4S293,46.6,284,48.8z"/>
			<g>
				
					<ellipse transform="matrix(0.9707 -0.2403 0.2403 0.9707 -5.9092 71.6867)" fill="#EDE8D8" cx="291" cy="60.1" rx="2.9" ry="5"/>
				
					<ellipse transform="matrix(0.9707 -0.2403 0.2403 0.9707 -6.1858 71.7827)" fill="#25221D" cx="291.2" cy="61.3" rx="1.7" ry="2.5"/>
			</g>
			<g>
				<path fill="#3D5059" d="M285.7,69.3c1.4,0.1,2.5-0.1,3.5-0.4l-5-20.1c-0.1,0-0.1,0-0.2,0c-6.5,1.6-4.6,13.4-3.1,19.8
					C281.7,68.8,283.2,69.2,285.7,69.3z"/>
				<path fill="#3D5059" d="M287.9,74.1c-0.3,0.1-0.5,0.2-0.8,0.2c1,1.5,2.6,3.2,4.5,3.9l-1.4-5.5C289.6,73.3,288.8,73.8,287.9,74.1
					z"/>
			</g>
			
				<ellipse transform="matrix(0.9707 -0.2403 0.2403 0.9707 -7.004 72.0542)" fill="#27B24B" cx="291.9" cy="64.7" rx="2.6" ry="1.4"/>
			
				<ellipse transform="matrix(0.968 -0.2511 0.2511 0.968 -18.6345 62.2093)" opacity="0.2" fill="#55C9F4" cx="234.5" cy="104.1" rx="100.5" ry="100.5"/>
			<path fill="#C1592B" d="M155.4,211c-1.9,4.3-3.6,8.7-5,13.1c-13.1,42.4,6.1,88.2,6.1,88.2c80.8,10.2,157-2.3,201.4-56.5
				c0,0-5.1-34.2-22.9-80.7C251.2,215.7,192,218,155.4,211z"/>
			<polygon fill="#EDE8D8" points="200.4,250.2 224.4,247 232.2,229.5 239.1,246.2 254.2,243.9 257.7,235.3 265.7,241.8 
				289.8,235.8 265.6,188.3 196.8,197.5 			"/>
			<path fill="#284180" d="M163.6,259.5l8.1-15.2l2.4,13.5l35.4-4.4l-8.3-59.9l-27.7-10.7c-10.8,11.7-20.8,25.7-25.5,41.2
				c-3.4,11.1-4,22.8-3,33.9L163.6,259.5z"/>
			<path fill="#284180" d="M255.9,188.9l20.5,54.5l28.1-7l2.8-15.6l12.1,12.6l19.1-4l2.3-14.8l14.8,8.4c0,0-10.3-37.2-18.9-53.9
				c-8.6-16.7-12-14.2-12-14.2s-17.6,11.5-36.8,24.1C268.7,191.8,255.9,188.9,255.9,188.9z"/>
			<path fill="#EC9F21" d="M280.2,218.7c0,0,0.8-8.5,4.3-6.5c3.5,2-2.3,7.4-2.3,7.4s6.2-1.5,5.2,2.4c-1.1,3.9-6.5,0.3-6.5,0.3
				L280.2,218.7z"/>
			
				<ellipse transform="matrix(0.985 -0.1725 0.1725 0.985 -33.9874 51.3507)" fill="#F1CD2E" cx="278.4" cy="221.2" rx="4.4" ry="4.4"/>
			<path fill="#EC9F21" d="M193.9,231.5c0,0-5.1-6.9-7.1-3.3c-2,3.6,5.8,5.1,5.8,5.1s-6.1,2.1-3.1,4.8c3,2.7,5.6-3.1,5.6-3.1
				L193.9,231.5z"/>
			
				<ellipse transform="matrix(0.928 -0.3726 0.3726 0.928 -72.5395 90.0341)" fill="#F1CD2E" cx="196.7" cy="232.7" rx="4.4" ry="4.4"/>
			<g>
				<path fill="#25221D" d="M144.6,281.1c0,0,28.6-11.5,107.5-24.5c78.8-12.9,104.1-16.6,104.1-16.6l8.5,28.4L157.4,322L144.6,281.1
					z"/>
				<path fill="#CBD7DC" d="M216.6,261.9l12.5,42.2l49.8-12.5l-7.2-40.2L216.6,261.9z M271.6,287.9l-38.4,10.5l-3.7-14.9l-2.2-9.1
					l-1.9-7.6l41.7-7.2L271.6,287.9z"/>
				<path fill="#CBD7DC" d="M226.5,277.9c0.2-0.1,8.9-0.4,8.9-0.4l1.3,5.4l-7.9,2.6L226.5,277.9z"/>
				<polygon fill="#614B45" points="197.7,275.5 208.3,308.9 207.2,309.2 196.6,275.8 				"/>
				<polygon fill="#614B45" points="186.1,279.6 194.6,312.4 196.2,312 186.7,279.4 				"/>
				<polygon fill="#614B45" points="158.1,289.7 166.7,319.6 167.9,319.4 159.3,289.4 				"/>
				<path fill="#EC9F21" d="M158.1,289.7l39.5-14.2c0,0-11.7-21.4-28.2-13C169.4,262.5,152.3,267,158.1,289.7"/>
				<path fill="#F1CD2E" d="M168.4,262.8c0,0,10.6-5.1,17.7,16.9l11.5-4.1C197.7,275.5,188.7,253.6,168.4,262.8z"/>
				<path fill="#52687E" d="M180.8,281.6c0,0-3.5-14.6-12.1-9.9c0,0-7.6,3.9-3.1,15.4L180.8,281.6z"/>
				<path fill="#EC9F21" d="M185.6,269.3l0-1.5l3.5-0.3c0,0,5,2.6,6.7,8.7l-3.5,1.3L185.6,269.3z"/>
				<path fill="#52687E" d="M189,278.6c0,0-0.5-5.4-3.4-9.3l3.8-0.4c0,0,3.7,2.7,5.5,7.6L189,278.6z"/>
				<path fill="#25221D" d="M190.7,270l-4.2,0.7c0.2,0.3,0.3,0.5,0.4,0.8l4.3-0.9C191,270.3,190.8,270.1,190.7,270z"/>
				<path fill="#25221D" d="M193.4,273.5l-5.4,0.9c0.1,0.3,0.2,0.6,0.3,0.8l5.5-1.2C193.7,273.8,193.5,273.6,193.4,273.5z"/>
				<path fill="#614B45" d="M338.6,275.1l-7.7-31.2c-0.3,0.1-0.7,0.1-1,0.2c2.4,11.2-6.5,17.6-6.5,17.6
					c-14.7,7.8-23.3-9.6-24.7-12.6c-0.6,0.1-1.3,0.2-1.9,0.3l6.5,34.9l1.1-0.3l-5.2-31.4c7.3,15.8,21.4,11.3,21.4,11.3
					c8.8-3,10.1-11.3,10-16.4l6.1,28L338.6,275.1z"/>
			</g>
			<g>
				<g>
					<path fill="#F1CD2E" d="M179.4,191.6c0,0,4.9,20.9-0.7,23.1c-5.7,2.2-3.7-7.6-3.7-7.6s-3.1,13.9-7.2,13.9c-4.2,0-3-12.9-3-12.9
						s-2.7,10.9-8.5,10.2c-5.8-0.8-1.7-9.7-1.7-9.7s-11.3,9.2-14.5,5.8c-3.1-3.4,3.5-12.6,3.5-12.6s-6.1,9.9-10.4,6.9
						c-4.4-3,13-26.2,13-26.2L179.4,191.6z"/>
					<path fill="#EC9F21" d="M185.4,191.2l-42.1-18.5l-0.7,5c0,0-1.2,13.5,12.3,19.5C168.4,203.2,185.4,191.2,185.4,191.2z"/>
					<path fill="#F1CD2E" d="M186.1,186.1l-42.8-13.5c0,0-1.2,13.5,12.3,19.5C169,198.1,186.1,186.1,186.1,186.1z"/>
				</g>
				<path fill="#A91E33" d="M171.6,181.5c0,0-5.7,18.6-1.5,37.4l133.2-19.5c0,0,10.5-25.6,32.6-41.1l-21.4-2.3
					C314.6,156,241.4,198.1,171.6,181.5"/>
				<path fill="#751B16" d="M176.7,182.6c0,0,1.2,17.9,21.3,32.2l-27.8,4.1c0,0-5.1-17.9,1.5-37.4L176.7,182.6z"/>
				<path fill="#751B16" d="M294.9,165c0,0-24.5,16.2-15.3,37.9l23.9-3.5c0,0,10.9-25.4,32.6-41.1l-12.6-9.5L294.9,165z"/>
				<path fill="#EC9F21" d="M310.9,159.4l-1.3-5.3l44.3-19.5l1.3,5.3c0,0,2.9,14.3-10.8,22.3C330.6,170.3,310.9,159.4,310.9,159.4z"
					/>
				<path fill="#F1CD2E" d="M309.6,154.1l44.3-19.5c0,0,2.9,14.3-10.8,22.3C329.3,165,309.6,154.1,309.6,154.1z"/>
				
					<ellipse transform="matrix(0.9707 -0.2403 0.2403 0.9707 -33.0767 78.0127)" fill="#A91E33" cx="303.3" cy="174.6" rx="5.8" ry="5.8"/>
				<polygon fill="#751B16" points="302,166.5 302.1,182.2 303.7,182.4 304.8,165.5 				"/>
				<polygon fill="#751B16" points="222.8,205.4 220.2,206 220.4,192.1 223,191.5 				"/>
				<polygon fill="#751B16" points="232.7,203.8 230,204.4 230.2,190.5 232.9,189.9 				"/>
				<polygon fill="#751B16" points="237.9,203.1 235.2,203.7 235.4,189.8 238.1,189.2 				"/>
				<polygon fill="#751B16" points="227.8,204.6 225.2,205.2 225.4,191.3 228,190.7 				"/>
			</g>
		</g>
	</g>
</g>
<g id="Kraken_x5F_1star">
</g>
<g id="Kraken_x5F_0star">
</g>
<g id="Balloon">
</g>
<g id="Frame" display="none">
</g>
<g id="Problem_Screen" display="none">
</g>
</svg>
