<?xml version="1.0" encoding="utf-8"?>
<!-- Generator: Adobe Illustrator 22.0.1, SVG Export Plug-In . SVG Version: 6.00 Build 0)  -->
<svg version="1.1" xmlns="http://www.w3.org/2000/svg" xmlns:xlink="http://www.w3.org/1999/xlink" x="0px" y="0px"
	 viewBox="0 0 280 360" enable-background="new 0 0 280 360" xml:space="preserve" width="280" height="360" preserveAspectRatio="none">
<g id="_x35_th_Grade">
	<g id="_x33__Stars">
	</g>
	<g id="_x32__Stars">
	</g>
	<g id="_x31__Star">
	</g>
	<g id="_x30__Stars">
	</g>
</g>
<g id="_x34_th_Grade">
	<g id="_x33__Stars_1_">
	</g>
	<g id="_x32__Stars_1_">
	</g>
	<g id="_x31__Star_1_">
	</g>
	<g id="_x30__Stars_1_">
	</g>
</g>
<g id="_x33_rd_Grade">
	<g id="_x33__Stars_3_">
	</g>
	<g id="_x32__Stars_3_">
	</g>
	<g id="_x31__Stars">
	</g>
	<g id="_x30__Stars_2_">
	</g>
</g>
<g id="labels">
	<g>
		<defs>
			<rect id="SVGID_27_" y="-0.3" width="280" height="360"/>
		</defs>
		<clipPath id="SVGID_2_">
			<use xlink:href="#SVGID_27_"  overflow="visible"/>
		</clipPath>
		<g clip-path="url(#SVGID_2_)">
			<g>
				<path fill="#C8A25F" d="M142.9,212.9c0,0-14.1,0.4-21.4,16.5c-4.7,10.4-4,30.8-11.8,37.9c-15.7,14.3-24.2,13.1-24.2,13.1
					l18.1,57.3c0,0,15.8,4.1,44-23.5c21-20.6,0-76.5,0-76.5L142.9,212.9z"/>
				<path fill="#C8A25F" d="M78.7,288.9c0,0,1.8,1,3.3,0.4c1.5-0.6,13.7-6.5,13.7-6.5L113,326l-19.2,13.3c0,0-11.8-26.4-12.1-27.1
					C81.5,311.5,78.7,288.9,78.7,288.9"/>
				<path fill="#26221D" d="M81.4,288.5c0,0-6.7-48.1-40.4-45.6c-40.8,3-37.8,83.4-37.8,83.4l22.8,0.5c0,0,6,26.3,26,29.2
					c20,2.9,44.3-18.6,44.3-18.6L81.4,288.5z"/>
				<path fill="#C8A25F" d="M82.3,347.3c8.2-4.9,14.7-10.6,14.7-10.6l-9.5-36.3L73.8,312l-7.6-12l-19.6,11.9l-8.1-11.8l-22.3,13
					l-12-9c-1.3,12.6-0.9,22.2-0.9,22.2l22.8,0.5c0,0,0.9,3.9,3.1,8.8l17.6-10.6l11,3.8l15.6-9.1L82.3,347.3z"/>
				<path fill="#7C6D36" d="M3.2,326.2c1.9-0.2,3.8-0.3,5.7-0.5c1.9-0.1,3.8-0.3,5.7-0.4c1.9-0.1,3.8-0.2,5.7-0.3
					c1.9-0.1,3.8-0.2,5.7-0.2l-1.1,0.4l6.9-5.7c2.3-1.9,4.7-3.7,7-5.5l1.1-0.8l1.4,0.5c2.4,1,4.7,2,7.1,3l7.1,3l-2.4,0.2
					c2.6-1.6,5.3-3.2,7.9-4.8c2.7-1.6,5.3-3.2,8-4.7l2.6-1.5l0.9,2.7c0.9,2.9,1.8,5.9,2.7,8.8l1.3,4.4c0.4,1.5,0.8,3,1.3,4.4
					c0.8,3,1.6,5.9,2.4,8.9c0.8,3,1.5,6,2.2,9c-1.4-2.8-2.6-5.6-3.9-8.4c-1.2-2.8-2.5-5.7-3.6-8.5c-0.6-1.4-1.2-2.8-1.8-4.3
					l-1.7-4.3c-1.1-2.9-2.2-5.7-3.3-8.6l3.5,1.2c-2.6,1.7-5.2,3.4-7.8,5c-2.6,1.7-5.2,3.3-7.9,4.9l-1.2,0.7l-1.2-0.6l-7-3.1
					c-2.3-1.1-4.7-2.1-7-3.2l2.4-0.3c-2.4,1.7-4.9,3.4-7.3,5.2l-7.4,5l-0.6,0.4l-0.5,0c-1.9-0.1-3.8-0.3-5.7-0.5
					c-1.9-0.1-3.8-0.3-5.7-0.5c-1.9-0.2-3.8-0.4-5.7-0.6C7,326.7,5.1,326.5,3.2,326.2"/>
				<path fill="#52687E" d="M30.3,279.9c1.3,3.1-0.2,6.6-3.2,7.9c-3.1,1.3-6.6-0.2-7.9-3.2c-1.3-3.1,0.2-6.6,3.2-7.9
					C25.5,275.4,29,276.9,30.3,279.9"/>
				<path fill="#52687E" d="M50,255.2c0.7,1.6-0.1,3.4-1.7,4.1c-1.6,0.7-3.4-0.1-4.1-1.7c-0.7-1.6,0.1-3.4,1.7-4.1
					C47.5,252.8,49.4,253.6,50,255.2"/>
				<path fill="#52687E" d="M60,335.3c0.7,1.6-0.1,3.4-1.7,4.1c-1.6,0.7-3.4-0.1-4.1-1.7c-0.7-1.6,0.1-3.4,1.7-4.1
					C57.5,333,59.3,333.7,60,335.3"/>
				<path fill="#52687E" d="M51.8,278.8c0.7,1.6-0.1,3.4-1.7,4.1c-1.6,0.7-3.4-0.1-4.1-1.7c-0.7-1.6,0.1-3.4,1.7-4.1
					C49.3,276.4,51.1,277.2,51.8,278.8"/>
				<path fill="#52687E" d="M70.6,286.6c1.3,3-0.2,6.4-3.2,7.7c-3,1.3-6.4-0.2-7.7-3.2c-1.3-3,0.2-6.4,3.2-7.7
					C65.9,282.2,69.4,283.6,70.6,286.6"/>
				<path fill="#52687E" d="M76,347.2c0.8,2-0.1,4.3-2.1,5.2c-2,0.8-4.3-0.1-5.2-2.1c-0.8-2,0.1-4.3,2.1-5.2
					C72.9,344.2,75.2,345.2,76,347.2"/>
				<path fill="#52687E" d="M50.4,348.5c1.3,3-0.2,6.4-3.2,7.7c-3,1.3-6.4-0.2-7.7-3.2c-1.3-3,0.2-6.4,3.2-7.7
					C45.7,344.1,49.1,345.5,50.4,348.5"/>
				<path fill="#52687E" d="M25.1,257c1.3,3.2-0.2,6.9-3.4,8.2c-3.2,1.3-6.9-0.2-8.2-3.4c-1.3-3.2,0.2-6.9,3.4-8.2
					C20.1,252.3,23.8,253.8,25.1,257"/>
				<path fill="#52687E" d="M76.2,260.2c1,2.5-0.1,5.3-2.6,6.3c-2.5,1-5.3-0.1-6.3-2.6c-1-2.5,0.1-5.3,2.6-6.3
					C72.4,256.6,75.2,257.8,76.2,260.2"/>
				<polyline fill="#26221D" points="108.2,264.3 149.6,312.6 127.9,333.8 99.4,341.2 82.9,278.4 				"/>
				<path fill="#26221D" d="M110.4,259.6l23.3,27.4l23.1,19.5l2.9-33.8L144,212.2C144,212.2,116.1,211,110.4,259.6z"/>
				<path fill="#52687E" d="M120.3,290.4c1.3,3-0.2,6.4-3.2,7.7c-3,1.3-6.4-0.2-7.7-3.2c-1.3-3,0.2-6.4,3.2-7.7
					C115.6,286,119,287.4,120.3,290.4"/>
				<path fill="#52687E" d="M100.6,270.5c1,2.5-0.1,5.3-2.6,6.3c-2.5,1-5.3-0.1-6.3-2.6c-1-2.5,0.1-5.3,2.6-6.3
					C96.8,266.9,99.6,268,100.6,270.5"/>
				<path fill="#52687E" d="M112.7,335.6c0.7,1.6-0.1,3.4-1.7,4.1c-1.6,0.7-3.4-0.1-4.1-1.7c-0.7-1.6,0.1-3.4,1.7-4.1
					C110.1,333.3,112,334,112.7,335.6"/>
				<path fill="#52687E" d="M111.5,313.1c0.8,2-0.1,4.3-2.1,5.2c-2,0.8-4.3-0.1-5.2-2.1c-0.8-2,0.1-4.3,2.1-5.2
					C108.3,310.1,110.6,311.1,111.5,313.1"/>
				<path fill="#52687E" d="M141.9,278c0.8,2-0.1,4.3-2.1,5.2c-2,0.8-4.3-0.1-5.2-2.1c-0.8-2,0.1-4.3,2.1-5.2
					C138.7,275.1,141,276,141.9,278"/>
				<path fill="#52687E" d="M123,261.5c0.7,1.6-0.1,3.4-1.7,4.1c-1.6,0.7-3.4-0.1-4.1-1.7c-0.7-1.6,0.1-3.4,1.7-4.1
					C120.5,259.2,122.3,259.9,123,261.5"/>
			</g>
			<rect x="4.9" y="33.8" fill="none" width="275.1" height="340.2"/>
			<g opacity="0.75">
				<g>
					<path fill="#90D6ED" d="M240.3,37.7c-3.1-0.2-6-1.1-8.7-2.6c-2.8,6-8,10.8-14.8,12.7c-9.2,2.6-18.8-0.9-24.5-8
						c-1.4,7.9-7.1,14.7-15.2,16.9c-6.6,1.8-13.3,0.3-18.5-3.5c-2.3,8.4-8.7,15.4-17.6,17.9c-2.5,0.7-5.1,1-7.6,0.9
						c-13.3,20.9-18,47.3-10.8,73.3c13.4,48,62.6,76.1,109.7,62.9c47.2-13.2,74.6-62.8,61.1-110.8C285.8,69.2,265.4,47.8,240.3,37.7
						"/>
				</g>
			</g>
			<g>
				<g>
					<path fill="#A02D36" d="M160.1,90.3c-3.2-1.9-6.8-3.6-10.5-4.7c3.6,1.6,7.1,3.8,10.1,6.2C159.9,91.3,160,90.8,160.1,90.3z"/>
					<path fill="#A02D36" d="M157.5,92c-1.4-0.1-2.8-0.2-4.3-0.2c1.6,0.4,3.2,0.9,4.7,1.5C157.8,92.8,157.6,92.4,157.5,92z"/>
					<path fill="#A02D36" d="M165.8,88.2c-1.7-1.5-3.5-2.8-5.4-4c1.7,1.4,3.4,2.9,4.9,4.6C165.5,88.5,165.7,88.4,165.8,88.2z"/>
				</g>
				<polygon fill="#A02D36" points="192.2,78.6 190,66.5 189.5,78.5 				"/>
				<polygon fill="#A02D36" points="187.3,77.2 184.1,71.2 185.9,77.6 				"/>
				<polygon fill="#A02D36" points="193.9,76.1 195.8,69.7 192.6,75.5 				"/>
				<path fill="#C1592B" d="M303.1,179c-5.6-10.8-12.5-22.5-20.8-35c-40.5-60.3-92.6-70.9-92.6-70.9l-33.1,18.8l23.2,65.9
					c0,0-27.8,33.8-38.4,70.2C175.3,230.9,231.9,225.2,303.1,179z"/>
				<path fill="#EEE9D9" d="M159.9,170.7c0,0,0.6,1.6,7.8,9c8.7,8.8,17.6,9.5,17.6,9.5l-10-31.6c0,0-3.4-2.6-10.7,3.1
					C157.3,166.4,159.9,170.7,159.9,170.7z"/>
				<path fill="#C1592B" d="M159.5,176.1c2.7,0.6,5.5,0.7,8.2,0.4c1.4-0.1,2.7-0.4,4.1-0.7c0.7-0.2,2.3-0.4,3.2-0.8l0.5-6.8l0.6-7.1
					l0.3-3.6l1.7,3.3c0.3,0.6,0.9,1.4,1.4,2c0.5,0.6,1.1,1.2,1.8,1.8c4.8,4.2,11.8,5.3,18,4.9c4.9-0.3,10.1-1.4,14.7-3.2l-7.4-8.8
					l-2-2.4l3.1-0.2l15.7-1l12.1-0.7c-3.5-2.8-6.9-5.6-10.4-8.3c-0.3-0.3-0.7-0.5-0.9-0.8c0,0,3-4.1,3.3-4.5c1-1.6,1.8-3.2,2.4-5
					c1.4-4.1,1.3-8.1-0.7-12c-0.6-1.1-1.3-2.2-2.1-3.2c-0.8-1-1.6-2-2.5-2.9c0.1,0.1,0.2,0.2,0.4,0.3c-0.2-0.1-0.3-0.3-0.4-0.4
					c-5.8-1.2-18.2-2.9-37.8-1.1c-28.3,2.7-48.4,22.7-48.4,22.7l-1.1,18.2l8.7-5.6c-1,1.4-1.8,5.1,1.9,14.9c0.7,1.9,1.6,3.7,2.7,5.5
					c1,1,2.4,2.2,4,3.2C156,175.1,157.7,175.7,159.5,176.1z"/>
				<path fill="#A02D36" d="M161,131.2c0.3,0.7-0.1,1.6-0.8,1.9c-0.7,0.3-1.6-0.1-1.9-0.8c-0.3-0.7,0.1-1.6,0.8-1.9
					C159.9,130.1,160.7,130.4,161,131.2z"/>
				<path fill="#A02D36" d="M155.4,134.8c0.2,0.6-0.1,1.2-0.6,1.4c-0.6,0.2-1.2-0.1-1.4-0.6c-0.2-0.6,0.1-1.2,0.6-1.4
					C154.6,134,155.2,134.3,155.4,134.8z"/>
				<path fill="#A02D36" d="M160.3,137.8c0.1,0.4,0,0.8-0.4,0.9c-0.4,0.1-0.8,0-0.9-0.4c-0.1-0.4,0-0.8,0.4-0.9
					C159.8,137.3,160.2,137.5,160.3,137.8z"/>
				<path fill="#C1592B" d="M154.3,174.2c0,0,3.7,2.6,9.9,2.8c6.2,0.3,11.4-1.7,11.4-1.7l1.5-14.2c0,0,3.8,8.3,16.1,9.5
					c12.4,1.3,23.2-3.9,23.2-3.9l-8.7-10.3l31.3-2.1L225.7,144c0,0,4.6-4.6,5.8-12.7c1.1-8.1-7.1-14.8-7.1-14.8"/>
				<path fill="#A02D36" d="M218.5,122.5c0.3,0.7-0.1,1.6-0.8,1.9c-0.7,0.3-1.6-0.1-1.9-0.8c-0.3-0.7,0.1-1.6,0.8-1.9
					C217.4,121.4,218.2,121.7,218.5,122.5z"/>
				<path fill="#A02D36" d="M212.9,126.1c0.2,0.6-0.1,1.2-0.6,1.4c-0.6,0.2-1.2-0.1-1.4-0.6c-0.2-0.6,0.1-1.2,0.6-1.4
					C212,125.3,212.7,125.6,212.9,126.1z"/>
				<path fill="#A02D36" d="M217.8,129.1c0.1,0.4,0,0.8-0.4,0.9c-0.4,0.1-0.8,0-0.9-0.4c-0.1-0.4,0-0.8,0.4-0.9
					C217.2,128.6,217.7,128.8,217.8,129.1z"/>
				<path fill="none" d="M154.3,174.2c0.2,0.1,0.3,0.2,0.5,0.3C154.7,174.4,154.5,174.3,154.3,174.2
					C154.4,174.2,154.3,174.2,154.3,174.2z"/>
				<g>
					<path fill="#A02D36" d="M190.1,103.8c3.2,7.7,1.2,15.8-4.6,18.2c-5.7,2.4-13-1.8-16.2-9.5c-3.2-7.6-1.2-15.8,4.6-18.2
						C179.6,91.9,186.9,96.2,190.1,103.8z"/>
					<path fill="#A02D36" d="M205.3,105.8c-0.8,7.2-5.9,12.6-11.3,11.9c-5.4-0.6-10.9-8.5-10.1-15.7c0.8-7.2,7.7-11,13.1-10.4
						C202.4,92.2,206.1,98.6,205.3,105.8z"/>
					<path fill="#EEE9D9" d="M188.1,105.2c2.5,6,0.9,12.4-3.6,14.2c-4.5,1.9-10.2-1.4-12.7-7.4c-2.5-6-0.9-12.4,3.6-14.2
						C179.9,95.8,185.6,99.2,188.1,105.2z"/>
					<path fill="#EEE9D9" d="M201.2,106.9c-0.7,6-4.9,10.4-9.4,9.9c-4.5-0.5-7.6-5.8-6.9-11.8c0.7-6,4.9-10.4,9.4-9.9
						C198.8,95.6,201.9,100.9,201.2,106.9z"/>
					<path fill="#26221D" d="M185.2,106.9c1.1,3,0.2,6.2-2.1,7.1c-2.3,0.9-5.1-0.9-6.3-3.9c-1.2-3-0.2-6.2,2.1-7.1
						C181.2,102.1,184.1,103.9,185.2,106.9z"/>
					<path fill="#26221D" d="M195.7,106c0.9,2.5,0.2,5.1-1.7,5.8c-1.9,0.7-4.2-0.7-5.2-3.2c-0.9-2.5-0.2-5.1,1.7-5.8
						C192.5,102.1,194.8,103.5,195.7,106z"/>
					<path fill="#761B14" d="M164.1,89c5.3-2.7,11.4-4.4,18.1-4.8c0.3,1.2,0.2,1.3,0.4,2.5c-6.4,0.2-11.9,3-16.8,5.5
						C165.3,91.1,164.7,90,164.1,89z"/>
					<path fill="#761B14" d="M185.8,87.7c5.2-1.5,10.8-0.6,16.9,0.3c0.1,1.2,0.3,0.9,0.2,2.1c-5.7-0.9-11.2-0.6-16.1,0.8
						C186.5,89.8,186.2,88.7,185.8,87.7z"/>
				</g>
				<g>
					<path fill="#26221D" d="M191.7,130.2c8-3,13.5-9.4,14.3-15.7c-5.5-0.1-11.9,0.1-19.5,0.8c-7.3,0.7-14,2.5-20,4.9
						c0.1,1,0.3,1.9,0.7,2.9C170.2,130.9,181.1,134.2,191.7,130.2z"/>
					<path fill="#53687E" d="M171.6,123.5c-1.3,0.5-2.2,1.6-2.6,2.8c1.7,2,4,3.6,6.7,4.5c1.4-1.1,2-3.1,1.4-4.8
						C176.3,123.7,173.8,122.6,171.6,123.5z"/>
					<path fill="#53687E" d="M193.5,121.4c-3.3,1.2-4.9,4.9-3.7,8.2c0.1,0.4,0.3,0.8,0.6,1.1c0.4-0.1,0.9-0.3,1.3-0.4
						c3.8-1.4,7-3.6,9.5-6.2C199.6,121.4,196.4,120.3,193.5,121.4z"/>
				</g>
				<path fill="#EEE9D9" d="M215.6,154.6c0,0-0.1,2.1,7.2,9.4c8.7,8.8,21.6,10.5,21.6,10.5l-7.2-21.7l-8.6,0.7L215.6,154.6z"/>
				<g>
					<path fill="#A02D37" d="M222.3,115.1c0,0-0.1,0-0.1-0.1c-0.1-0.1-0.2-0.3-0.3-0.5c0-0.2-0.1-0.6,0-1c0.1-0.3,0.2-0.8,0.5-1.1
						c0.3-0.3,0.6-0.7,1-0.9c0.4-0.3,0.8-0.6,1.2-0.8c0.2-0.1,0.4-0.3,0.7-0.3c0.2-0.1,0.4-0.1,0.6-0.3c0.5-0.2,1.1-0.2,1.6-0.3
						c2.1-0.2,4,0.4,5.2,1.1c0.7,0.3,1.1,0.7,1.4,1c0.3,0.3,0.5,0.5,0.5,0.5s-0.2,0-0.6,0.1c-0.4,0-1,0.1-1.7,0.2
						c-1.4,0.1-2.9,0.1-4.4,0.3c-0.4,0-0.7,0.1-1,0.1c-0.2,0-0.4,0-0.6,0.2c-0.1,0-0.3,0-0.5,0.1c-0.3,0-0.7,0.2-1,0.2
						s-0.6,0.2-0.8,0.2c-0.5,0.2-0.9,0.4-1.1,0.6C222.4,114.8,222.3,115.1,222.3,115.1z"/>
					<path fill="#A02D37" d="M242.8,150.9c-4.5-3.2-8.9-6.4-13.4-9.6c4.8-6.5,6.9-15.5,2.1-22.6c-1.5-2.3-3.5-4.3-5.7-5.9
						c1.1,0.9,1.9,1.9,2.8,3s1.6,2.1,2.3,3.3c2.2,4.1,2.4,8.2,1,12.6c-0.5,1.9-1.4,3.6-2.4,5.2c-0.3,0.5-3.3,4.8-3.3,4.7
						c0.3,0.3,0.7,0.6,1,0.8c3.7,2.9,7.4,5.6,11.1,8.5l-12.7,1.1l-16.3,1.3l-3.2,0.2l2.2,2.4l7.9,9c-4.9,2-10.2,3.2-15.3,3.7
						c-6.5,0.5-13.8-0.4-18.9-4.7c-0.7-0.6-1.3-1.2-1.9-1.8c-0.6-0.7-1.1-1.4-1.5-2.1l-1.8-3.4l-0.2,3.7l-0.5,7.4l-0.4,7.1
						c-0.9,0.5-2.7,0.7-3.4,0.9c-1.4,0.4-2.8,0.6-4.2,0.8c-2.8,0.3-5.8,0.3-8.6-0.2c-1.8-0.4-4.4-2-6.1-2.9c1.6,1.1,4.2,2.8,6.1,3.3
						c5.6,1.6,11.9,1,17.3-0.8l0.4-0.1l0-0.5l0.8-7.4l0.5-4.4c0.6,0.8,1.3,1.4,2,2.1c1.5,1.3,3.2,2.4,5,3.4
						c10.3,5,24.3,2.7,34.2-2.1l1.9-0.9l-1.4-1.5l-7.2-8.3l13.2-1.2l16.3-1.6l3.8-0.4L242.8,150.9z"/>
				</g>
				<path fill="#A02D36" d="M188.9,178c0,0,0.4,0.2,1,0.4c2,0.7,4.2,1.1,6.3,1.4c2.5,0.3,5,0.6,7.5,0.7c2.5,0.1,5,0.2,7.5-0.3
					c0.7-0.1,1-0.2,1-0.2s-0.2,0.3-0.8,0.8c-2.4,2-6.1,2.7-9.1,2.7c-3.5,0-7.4-0.7-10.4-2.6c-1-0.7-1.8-1.4-2.2-1.9
					C189.1,178.4,188.9,178,188.9,178z"/>
			</g>
			<g>
				<path fill="#882A8E" d="M142.7,90.3c0,0-1.2-6.2-4.4-8.5c-2.4-1.7-4.4-1.8-5.4-0.8c-1,1,2.4,4.5,2.4,4.5s-3.8-1.1-4.4,0.8
					c-0.5,1.9,3.1,2.4,3.1,2.4s-4.4,1-3.8,3c0.7,2,3.9,1,3.9,1s-3.2,1.7-2.5,3.5c0.7,1.8,5.7,1.2,5.8,1
					C137.7,97,142.6,90.7,142.7,90.3z"/>
				<path fill="#2BB24B" d="M136.3,108.3c0,0-3.1-18.1,5.3-20.4c8.4-2.3,12.5,18.7,12.5,18.7l-3.3,0.9c0,0,0.8,8.8-5,9.9
					C139.9,118.6,136.3,108.3,136.3,108.3z"/>
				<path fill="#3D505A" d="M141.6,87.9c-0.1,0-0.1,0-0.2,0.1l7.4,27.6c2.5-2.9,2-8.2,2-8.2l3.3-0.9
					C154.1,106.6,150,85.7,141.6,87.9z"/>
				<path fill="#26221D" d="M145.2,107c0,0,0.6,0,1.5,0c0.8,0,1.9,0,2.9-0.1c0.5-0.1,1-0.1,1.5-0.2c0.5-0.1,1-0.1,1.5-0.1
					c0.9,0,1.5,0.1,1.5,0.1s-0.5,0.4-1.3,0.8c-0.4,0.2-0.9,0.4-1.4,0.6c-0.5,0.2-1.1,0.4-1.7,0.5c-0.6,0.1-1.3,0-1.8-0.1
					c-0.6-0.1-1.1-0.3-1.5-0.5C145.6,107.5,145.2,107,145.2,107z"/>
				<path fill="#EEE9D9" d="M143.6,99.7c0.7,2.5,0,4.8-1.4,5.2c-1.4,0.4-3.1-1.3-3.8-3.8c-0.7-2.5,0-4.8,1.4-5.2
					C141.2,95.5,142.9,97.2,143.6,99.7z"/>
				<path fill="#26221D" d="M144.1,100.9c0.3,1.3-0.1,2.5-0.9,2.7c-0.9,0.2-1.8-0.6-2.2-1.9c-0.3-1.3,0.1-2.5,0.9-2.7
					C142.7,98.8,143.7,99.7,144.1,100.9z"/>
				<polygon fill="#2BB24B" points="144.1,115.8 140.3,123.5 145.3,123.5 				"/>
				<polygon fill="#2BB24B" points="145.8,116.8 148.8,122 152.1,118.5 				"/>
				<path fill="#882A8E" d="M136.7,106.6c0,0-1.1-3.1-3.7-6.4c-2.6-3.3-5.6-3.3-5.6-3.3s-0.9,4.1,1.4,7.1c2.3,3,6.1,3.1,6.1,3.1
					s-1.5,1.4-2.1,4.2c-0.6,2.8,0.7,8.2,0.7,8.2s1.5-0.8,3.1-4.1C138.2,112,136.7,106.6,136.7,106.6z"/>
			</g>
			<g>
				<path fill="#9A4627" d="M200.4,321.2c0,0-1.8-10.1-24.9-3.9c-25.6,6.9-20.7,15.3-20.7,15.3c21.2,23.6,33.9,69.7,33.9,69.7
					c-0.9,17.7,6.1,6.3,6.1,6.3C216.3,375.4,200.4,321.2,200.4,321.2z"/>
				<path fill="#9A4627" d="M278.9,307.2c-4.2-5.9-21.1-6.9-37.3,2.9c-18.3,11.1-7.6,30.9-7.6,30.9s4.4,34.5,39.7,52.5
					c0,0,11.7,5.8,3.3-9.4c0,0-6.7-11.6-0.7-37.7C276.3,346.4,283.2,313.2,278.9,307.2z"/>
				<path fill="#C1592B" d="M134.9,306.7c0,0,8.7,26,13.9,36.4c0,0,22.6,44.3,2.6,71c0,0-12.7,15.3,7.6,7c0,0,59.5-23.1,32.3-102.7
					c-7.3-21.5-13.1-32-18.3-38.1c-7.4-2.3-18,1.5-28.6,9.2C134.5,298,133.8,304,134.9,306.7z"/>
				<path fill="#C1592B" d="M205.6,287.8c-22.9,3.7-19.7,19.7-19.7,19.7s0,10.4,8.9,53.2c0.5,2.6,11.7,40.8,40.2,47.9
					c0,0,24,6.2,7.9-7.5c0,0-8.8-14.3-2.9-43.7c5.6-28,2-35.9,3.2-43.8C244.9,302.5,227.4,284.2,205.6,287.8z"/>
				<path fill="#EDE8D8" d="M191.5,344.7c0.9,4.8,2,10.1,3.2,16c0.3,1.7,4.9,17.6,15.5,30.8l28.6-2.8c-1.3-7.2-1.7-17.6,1-31.2
					c2.5-12.3,3.2-20.7,3.2-26.9L191.5,344.7z"/>
				<path fill="#A58C7F" d="M241.4,349.2l-48.4,2.6c0.1,0.3,0.1,0.7,0.2,1l47.9-1.5C241.2,350.6,241.3,349.9,241.4,349.2z"/>
				<path fill="#A58C7F" d="M197.3,368.3l42.6-10.9c0.1-0.6,0.2-1.1,0.3-1.6L197,367.6C197.1,367.8,197.2,368,197.3,368.3z"/>
				<polygon fill="#682E1D" points="255.7,351 305.4,328.4 313.4,347.6 269.4,370.8 				"/>
				<polygon fill="#682E1D" points="276.5,364.6 285.6,372.2 306.4,362.9 304.5,349.5 				"/>
				<path fill="#904532" d="M255.7,351l49.7-22.6c0,0,5.1,13.2-14.9,23.5C290.5,351.9,268.1,361.1,255.7,351"/>
				<path fill="#C1592B" d="M238.5,303.2c0,0,1.9,36.1,29.3,49.2c0,0,20.5-3.8,33.7-14.2c0,0,2.1-25.8-9.7-53.9L238.5,303.2z"/>
				<polygon fill="#421B0D" points="278.2,366.1 304.8,352.1 305.5,356 280.3,367.8 				"/>
			</g>
			<path fill="#52687E" d="M171.2,312.1c2.2,2.4,2,6.1-0.5,8.3c-2.4,2.2-6.1,2-8.3-0.5c-2.2-2.4-2-6.1,0.5-8.3
				C165.3,309.5,169,309.7,171.2,312.1"/>
			<path fill="#EEE9D9" d="M144.5,204.2c-11,6.3-32.5,26.7-41.6,45.5l14-3.5l-2.7,8.1l29.5,12.1l4.1-6.6l0.1,7.7l7.4-1.4l0.9,6.5
				l20.3,7.2c0,0-5-51.4-5.4-52.8c-0.3-1.4-22-18.6-22-18.6L144.5,204.2z"/>
			<path fill="#52687E" d="M177.9,278.1c1.2,1.3,1,3.3-0.2,4.4c-1.3,1.2-3.3,1-4.4-0.2c-1.2-1.3-1-3.3,0.2-4.4
				C174.7,276.7,176.7,276.8,177.9,278.1"/>
			<path fill="#D1ECFA" d="M161,74.7c0.5,1.8-0.6,3.7-2.4,4.2c-1.8,0.5-3.7-0.6-4.2-2.4c-0.5-1.8,0.6-3.7,2.4-4.2
				C158.7,71.8,160.5,72.9,161,74.7"/>
			<path fill="#D1ECFA" d="M228.9,66.4c0.4,1.4-0.4,2.8-1.8,3.1c-1.4,0.4-2.8-0.4-3.1-1.8c-0.4-1.4,0.4-2.8,1.8-3.1
				C227.1,64.2,228.5,65,228.9,66.4"/>
			<path fill="#D1ECFA" d="M171.6,73.3c0.3,1.1-0.4,2.3-1.5,2.6c-1.1,0.3-2.3-0.4-2.6-1.5c-0.3-1.1,0.4-2.3,1.5-2.6
				C170.1,71.5,171.3,72.2,171.6,73.3"/>
			<path fill="#D1ECFA" d="M259.1,66.8c0.3,1.1-0.4,2.3-1.5,2.6c-1.1,0.3-2.3-0.4-2.6-1.5c-0.3-1.1,0.4-2.3,1.5-2.6
				C257.6,65,258.8,65.7,259.1,66.8"/>
			<path fill="#D1ECFA" d="M137.3,133.7c0.5,2-0.7,4.1-2.7,4.6c-2,0.5-4.1-0.7-4.6-2.6c-0.5-2,0.6-4.1,2.7-4.6
				C134.7,130.5,136.7,131.7,137.3,133.7"/>
			<path fill="#D1ECFA" d="M134.2,156.4c0.3,1.1-0.3,2.1-1.4,2.4s-2.1-0.3-2.4-1.4s0.3-2.1,1.4-2.4S133.9,155.3,134.2,156.4"/>
			<path fill="#D1ECFA" d="M154.8,116.7c0.3,1.1,1.4,1.7,2.4,1.4c1.1-0.3,1.7-1.4,1.4-2.4c-0.3-1.1-1.4-1.7-2.4-1.4
				C155.2,114.6,154.6,115.7,154.8,116.7"/>
			<path fill="#D1ECFA" d="M218.9,62.8c0.5,2-0.6,4-2.6,4.5c-2,0.5-4-0.6-4.5-2.6c-0.5-2,0.6-4,2.6-4.5
				C216.3,59.6,218.4,60.8,218.9,62.8"/>
			<path fill="#D1ECFA" d="M253.4,60.4c0.7,2.7-0.9,5.5-3.6,6.2c-2.7,0.7-5.5-0.9-6.2-3.6c-0.7-2.7,0.9-5.5,3.6-6.2
				C249.9,56.1,252.7,57.7,253.4,60.4"/>
			<path fill="#D1ECFA" d="M252.2,73.7c0.5,2-0.6,4-2.6,4.5c-2,0.5-4-0.6-4.5-2.6c-0.5-2,0.6-4,2.6-4.5
				C249.6,70.6,251.7,71.7,252.2,73.7"/>
			<g opacity="0.2">
				<g>
					<path fill="#56C9F4" d="M298.8,96.7c14.1,50.3-17.3,97.2-67.6,111.2c-50.3,14.1-100.4-10-114.5-60.3
						c-14.1-50.3,15.3-102.4,65.5-116.5C232.6,17.1,284.8,46.4,298.8,96.7"/>
				</g>
			</g>
			<path fill="#6B7582" d="M148.7,195.3l1.9,15.8c0,0,26.2,22.1,71.6,9.4c57.6-16,75.6-50.7,75.6-50.7l-5.2-25.9
				c0,0-19.4,37.2-79,52.3C169.8,207.3,148.7,195.3,148.7,195.3z"/>
			<path fill="#EDA021" d="M218.2,200.7c-17.3,4.6-39.5,7.5-63.1,3.5l0.4-2.7c54,9.3,99.4-19.3,99.9-19.5l1.1,4.2
				C256.3,186.3,241.2,194.5,218.2,200.7z"/>
			<path fill="#C1592B" d="M135.4,224.1c-1.7,4.1-3.3,8.3-4.5,12.5c-11.5,40.1,7.3,82.8,7.3,82.8c76.2,8.2,147.7-5,188.4-56.8
				c0,0-5.4-32-23-75.5C225.5,226.8,169.9,230,135.4,224.1"/>
			<path fill="#EDA021" d="M225,221.4c-21.4,5.7-37.7,5.5-37.9,5.5l-0.4-2.9c0.3,0,30.4,0.3,64.1-15.5l1.1,3.4
				C242.2,216.5,233.6,219.2,225,221.4z"/>
			<path fill="#EEE9D9" d="M170.6,336.6l2-12.8l2.9,9.3l8.2-12.8l2.2,12.8l39-8.4l5.7-15.8l7.3,13.1l103.7-33.6
				c-22.3-42.3-33.5-79.2-44.1-115.7c-20.1,15.2-41,29.4-64.2,41l-21.7,20.1l-41.4-25.8l-30.8,15.9c-11.9,34.4-10.4,74.4,1.9,118.7
				L170.6,336.6z"/>
			<path opacity="0.1" fill="#384E7D" d="M62.2,418.4c23.1-18.5,131.7-51,192.8-67.8c87.2-23.9,162.1-27.6,167.4-8.2
				c5.3,19.3-61.1,54.4-148.2,78.3c-50.6,13.9-109.5,22.5-137.1,8.8l-48.9,14.5C42.9,450.8,50.1,427.9,62.2,418.4"/>
			<path fill="#D1ECFA" d="M272.7,106.6c0.3,1.1-0.3,2.1-1.4,2.4c-1.1,0.3-2.1-0.3-2.4-1.4c-0.3-1.1,0.3-2.1,1.4-2.4
				S272.4,105.6,272.7,106.6"/>
			<path fill="#D1ECFA" d="M276.2,85c0.6,2.4-0.8,4.8-3.2,5.5c-2.4,0.6-4.8-0.8-5.5-3.2c-0.6-2.4,0.8-4.8,3.2-5.5
				C273.1,81.2,275.5,82.6,276.2,85"/>
			<path fill="#871824" d="M126.7,280.6c0,0,28,4.4,101.9-9.2c73.9-13.6,92.1-32.3,92.1-32.3l11.4,29.4
				c-57.1,26.6-132,42.8-197.1,51.2C130.6,307.8,130.1,299.2,126.7,280.6z"/>
			<g>
				<path fill="#939F2F" d="M254.1,194.9l0,0.1C254.1,195,253.9,195,254.1,194.9z"/>
			</g>
			<polygon fill="#695752" points="245.3,240.3 245.6,241.4 245.6,241.4 			"/>
			<path fill="#695752" d="M164.2,225.6l22.9,72.1l-59.3,5.8c0,0-17.4-54,14-88.5L164.2,225.6z"/>
			<path fill="#5E111A" d="M282.5,257.9c0,0,11.8,17.5,20,32.1c8.3,14.6,8.3,16.8,8.3,16.8l-15.9,3.7l-25.1-44.9L282.5,257.9z"/>
			<path fill="#871824" d="M270,259.6l-33.6,6c0,0,22.6,31.8,26.5,70.9l45.1-14.3C308,322.2,294.4,279.7,270,259.6z"/>
			<g>
				<path fill="#5E111A" d="M238.7,270.2c2.1,1.4,3.7,3.4,5.1,5.5c1.4,2.1,2.6,4.2,3.7,6.5c0.5,1.1,1,2.3,1.5,3.4
					c0.4,1.2,0.9,2.3,1.3,3.5c0.8,2.4,1.4,4.8,1.8,7.2c-0.6-1.1-1.2-2.2-1.7-3.3c-0.5-1.1-1.1-2.2-1.6-3.3l-3.1-6.6
					c-0.5-1.1-1-2.2-1.6-3.3c-0.5-1.1-1.1-2.2-1.6-3.3C241.3,274.3,240.2,272.2,238.7,270.2z"/>
			</g>
			<g>
				<path fill="#5E111A" d="M236.6,278.7c-3.4,2.1-7,3.7-10.7,5.1c-3.7,1.4-7.5,2.6-11.3,3.7c-3.8,1-7.7,1.9-11.6,2.5
					c-3.9,0.6-7.8,1-11.8,1.2c1.9-0.5,3.8-1,5.7-1.4c1.9-0.5,3.8-0.9,5.7-1.4c0.9-0.2,1.9-0.5,2.8-0.7l2.8-0.7
					c1.9-0.4,3.8-1,5.7-1.5c3.8-1,7.5-2.1,11.3-3.2C229.1,281.1,232.9,280,236.6,278.7z"/>
			</g>
			<g>
				<path fill="#5E111A" d="M235.5,281.7c-1.8,2.1-4.2,3.8-6.5,5.3c-2.4,1.5-4.9,2.7-7.5,3.8c-1.3,0.6-2.6,1-3.9,1.5
					c-1.3,0.5-2.6,0.9-4,1.3c-1.3,0.4-2.7,0.7-4,1.1c-1.4,0.3-2.7,0.6-4.1,0.8c1.3-0.6,2.6-1.1,3.9-1.5c1.3-0.5,2.6-1,3.9-1.5
					c2.6-1,5.1-2,7.7-3.1c2.5-1.1,5-2.2,7.5-3.5C230.8,284.7,233.3,283.4,235.5,281.7z"/>
			</g>
			<g>
				<path fill="#5E111A" d="M278.6,322.6c-0.6-2.4-1.1-4.8-1.6-7.1l-1.7-7.1c-0.6-2.4-1.2-4.7-1.8-7.1c-0.7-2.3-1.3-4.7-2-7
					c-1.4-4.7-2.9-9.3-4.6-13.8c-0.4-1.1-0.9-2.3-1.4-3.4c-0.5-1.1-1-2.2-1.5-3.3c-0.5-1.1-1.1-2.2-1.7-3.2c-0.6-1-1.2-2.1-1.9-2.9
					l-2-2.6l2.9,1.4c1.7,0.8,3,1.8,4.4,2.8c0.7,0.5,1.3,1.1,1.9,1.7c0.6,0.6,1.2,1.2,1.8,1.8c2.4,2.4,4.4,5.2,6.2,8
					c1.9,2.8,3.5,5.8,4.9,8.8c0.7,1.5,1.3,3.1,2,4.6l1.7,4.7l-2.1-4.6c-0.8-1.5-1.5-3-2.3-4.5c-1.6-2.9-3.3-5.8-5.2-8.5
					c-1.9-2.7-4-5.3-6.3-7.6c-0.6-0.6-1.2-1.1-1.8-1.7c-0.6-0.5-1.2-1.1-1.9-1.6c-1.3-1-2.7-1.9-4-2.6l0.9-1.2
					c0.9,1.1,1.5,2.1,2.1,3.2c0.6,1.1,1.2,2.2,1.7,3.3c0.5,1.1,1,2.2,1.5,3.4c0.5,1.1,0.9,2.3,1.4,3.4c1.7,4.6,3.2,9.3,4.5,14
					c0.6,2.4,1.2,4.7,1.8,7.1c0.5,2.4,1.1,4.8,1.6,7.2C277,313,277.9,317.8,278.6,322.6z"/>
			</g>
			<path fill="#695752" d="M328.4,257.7L306,172c0,0-20.6-6-29.3,0.2l-13.3,110.1L328.4,257.7z"/>
			<path fill="#EDA021" d="M217.7,212.3c0.2,2.8-1.8,5.1-4.5,5.3c-2.6,0.2-4.9-2-5-4.7c-0.2-2.8,1.8-5.1,4.5-5.3
				C215.3,207.5,217.6,209.6,217.7,212.3z"/>
			<path fill="#EDA021" d="M185.4,213.4c0.2,2.7-1.8,5-4.4,5.2c-2.6,0.1-4.8-1.9-5-4.7c-0.2-2.7,1.8-5,4.4-5.2
				C183,208.6,185.2,210.6,185.4,213.4z"/>
			<path fill="#EDA021" d="M251.1,203c0.2,2.7-1.8,5.1-4.4,5.2c-2.6,0.1-4.8-2-5-4.7c-0.2-2.7,1.8-5.1,4.4-5.2
				C248.7,198.2,251,200.3,251.1,203z"/>
			<path fill="#6B7582" d="M295.9,155.9c0,0-8.4-48.8-28.2-47.2c-19.8,1.7-17.8,45.7-14.6,63s4,20.3,4,20.3
				c15.2-4.5,27.9-16,37.8-34.8"/>
			<path fill="#EDA021" d="M277,153.7c-5.7,1.5-12.3-5-14.9-14.9c-2.6-9.9-0.3-18.8,5.5-20.3c5.7-1.5,12.3,5,14.9,14.9
				C285.1,143.2,282.7,152.2,277,153.7z M268.1,120.5c-4.4,1.2-6.2,9.3-4,17.8c2.3,8.5,7.9,14.6,12.3,13.4c4.4-1.2,6.2-9.3,4-17.8
				C278.2,125.5,272.5,119.3,268.1,120.5z"/>
			<polygon fill="#EDA021" points="262.9,126.3 282.1,139 283.3,143 262,135.6 			"/>
			<path fill="#EEE9D9" d="M197.6,224.9c0,0-38.5-10.2-58.1,16.8l6.3-49.5L197.6,224.9z"/>
			<g>
				<path fill="#A58C7F" d="M194.4,224.8c-2.3-0.7-4.6-1.2-6.9-1.5c-2.3-0.3-4.6-0.5-6.9-0.5c-1.1,0-2.3,0-3.5,0.1l-1.7,0.1
					c-0.6,0.1-1.1,0.1-1.7,0.2c-0.6,0-1.2,0.1-1.7,0.2l-1.7,0.2c-1.2,0.2-2.3,0.4-3.5,0.6c1.1-0.6,2.1-1.1,3.3-1.5
					c1.1-0.4,2.3-0.8,3.5-1.1c2.3-0.6,4.8-0.8,7.2-0.9c2.4,0,4.9,0.3,7.2,1C190.2,222.3,192.5,223.3,194.4,224.8z"/>
			</g>
			<path fill="#A58C7F" d="M238.8,217.5c0.3,1.3-0.5,2.7-1.9,3c-1.4,0.4-2.8-0.4-3.2-1.7c-0.3-1.3,0.5-2.7,1.9-3
				S238.4,216.2,238.8,217.5z"/>
			<path fill="#A58C7F" d="M192.2,229.2c0,1.3-1.2,2.4-2.7,2.4c-1.4,0-2.6-1.1-2.6-2.5c0-1.3,1.2-2.4,2.7-2.4
				C191.1,226.8,192.2,227.9,192.2,229.2z"/>
			<g>
				<path fill="#A58C7F" d="M237.9,218.3c0.4,2.9,1.2,5.9,2.1,8.9c0.9,2.9,1.9,5.8,3.1,8.7c1.2,2.8,2.5,5.6,4,8.4
					c1.5,2.7,3.1,5.4,4.8,8c-1.9-2.4-3.8-4.9-5.5-7.6c-1.7-2.6-3.3-5.3-4.8-8.1c-1.5-2.8-2.8-5.6-3.9-8.6c-1.2-3-2.2-5.9-3-9.1
					L237.9,218.3z"/>
			</g>
			<g>
				<path fill="#A58C7F" d="M191.3,230.4c0,3.1-0.2,6-0.5,9c-0.3,3-0.8,5.9-1.4,8.8c-0.7,2.9-1.5,5.7-2.6,8.5
					c-1.1,2.7-2.6,5.3-4.3,7.7c1.5-2.5,2.7-5.2,3.5-8c0.8-2.8,1.4-5.6,1.8-8.5c0.4-2.9,0.6-5.8,0.6-8.7c0-2.9,0-5.8-0.3-8.6
					L191.3,230.4z"/>
			</g>
			<path fill="#EEE9D9" d="M297.5,148.5c0,0-14.8,39.7-64,65c0,0,23.9-10.4,41.4-7.4c18.1,3.1,28.6,11.9,28.6,11.9L297.5,148.5z"/>
			<g>
				<path fill="#A58C7F" d="M272.2,206.1c-3.2-0.3-6.4-0.2-9.5-0.1c-1.6,0.1-3.1,0.2-4.7,0.4l-2.3,0.3l-2.3,0.4
					c-0.8,0.1-1.5,0.3-2.3,0.4c-0.8,0.2-1.5,0.3-2.3,0.5l-2.3,0.5l-2.3,0.6c-1.5,0.4-3,0.9-4.5,1.4c-1.5,0.5-3,1.1-4.5,1.6
					c1.3-0.9,2.7-1.8,4.1-2.5c1.4-0.7,2.9-1.5,4.4-2c3-1.3,6.2-2,9.3-2.7c3.2-0.6,6.5-0.8,9.7-0.6
					C265.9,204.5,269.1,205,272.2,206.1z"/>
			</g>
		</g>
	</g>
</g>
</svg>
