<svg version="1.1" xmlns="http://www.w3.org/2000/svg" xmlns:xlink="http://www.w3.org/1999/xlink" x="0px" y="0px" viewBox="0 0 246 270" style="enable-background:new 0 0 246 270;" xml:space="preserve" width="246" height="270" preserveAspectRatio="none"><style type="text/css">
	.st0{opacity:0.1;fill:#384E7D;}
	.st1{fill:#72B2C6;}
	.st2{fill:#FFC641;}
	.st3{fill:#FFED82;}
	.st4{fill:#F5843C;}
	.st5{fill:#0067AC;}
	.st6{fill:#0092A1;}
	.st7{fill:none;stroke:#0067AC;stroke-width:2;stroke-miterlimit:10;}
	.st8{fill:#410025;}
	.st9{fill:#FFFFFF;}
	.st10{fill:#8ED5F6;}
	.st11{fill:#34BCAA;}
	.st12{fill:#1C8478;}
	.st13{clip-path:url(#SVGID_00000142894799855978456060000016591674357414464951_);}
	.st14{fill:none;stroke:#0067AC;stroke-width:1.3405;stroke-miterlimit:10;}
	.st15{clip-path:url(#SVGID_00000140724155491778354190000017686898908634491776_);}
	.st16{clip-path:url(#SVGID_00000162335926390202269530000003566976215346026112_);}
	.st17{clip-path:url(#SVGID_00000129904251957258513430000012787402218792272314_);}
	.st18{fill:#00454D;}
	.st19{fill:#BD4161;}
	.st20{fill:#F47729;}
	.st21{fill:#39B54A;}
	.st22{fill:#DB5983;}
	.st23{fill:#882890;}
	.st24{fill:#822741;}
	.st25{clip-path:url(#SVGID_00000159440269202430961360000001183468703887741330_);}
	.st26{clip-path:url(#SVGID_00000108273250434284560390000016528772504269569183_);}
	.st27{clip-path:url(#SVGID_00000009559352578145352200000001208335824884444808_);}
	.st28{fill:#003E6E;}
	.st29{fill:none;}
	.st30{clip-path:url(#SVGID_00000054256875854769181260000014500296465220480907_);}
	.st31{clip-path:url(#SVGID_00000089554467763465263110000008803975387329481856_);}
	.st32{clip-path:url(#SVGID_00000098202978101650310430000007790283391216631995_);}
	.st33{clip-path:url(#SVGID_00000101087675192364044200000003771176071791809673_);}
	.st34{fill:#72B1C4;}
	.st35{fill:#0468AC;}
	.st36{fill:#0691A1;}
	.st37{fill:#04454C;}
	.st38{fill:#F4833D;}
	.st39{fill:#FDEB82;}
	.st40{fill:#3B1026;}
	.st41{fill:#8ED3F5;}
	.st42{fill:#F37828;}
	.st43{fill:#38B34A;}
	.st44{fill:#DB5A83;}
	.st45{fill:#87298D;}
	.st46{fill:#16406D;}
	.st47{clip-path:url(#SVGID_00000004543274243878237990000009901286327386251687_);}
	.st48{fill:#06517B;}
	.st49{fill:#E16E8F;}
	.st50{fill:#7A4490;}
	.st51{fill:none;stroke:#000000;stroke-width:2.5729;stroke-miterlimit:10;}
	.st52{fill:none;stroke:#000000;stroke-width:2.5179;stroke-miterlimit:10;}
	.st53{fill:none;stroke:#000000;stroke-width:2;stroke-miterlimit:10;}
	.st54{fill:#9B6BAE;}
	.st55{clip-path:url(#SVGID_00000110451844476464468790000014895631057166976642_);}
	.st56{fill:none;stroke:#0067AC;stroke-width:1.34;stroke-miterlimit:10;}
	.st57{clip-path:url(#SVGID_00000120552332046610528330000006445604247271737473_);}
	.st58{clip-path:url(#SVGID_00000052073952522969616610000001366667262331695277_);}
	.st59{clip-path:url(#SVGID_00000117651975364431981880000004170875158347947666_);}
	.st60{clip-path:url(#SVGID_00000170245775293393325800000017200391778847730345_);}
	.st61{fill:none;stroke:#0067AC;stroke-width:1.3154;stroke-miterlimit:10;}
	.st62{fill:none;stroke:#000000;stroke-width:1.6922;stroke-miterlimit:10;}
	.st63{fill:none;stroke:#000000;stroke-width:1.6561;stroke-miterlimit:10;}
	.st64{fill:none;stroke:#000000;stroke-width:1.3154;stroke-miterlimit:10;}
	.st65{clip-path:url(#SVGID_00000080900796849079026200000015224542886775389845_);}
	.st66{clip-path:url(#SVGID_00000046297851472840010830000012775678643425572764_);}
	.st67{clip-path:url(#SVGID_00000173162940432791228060000002259322540331557526_);}
</style><g id="_x35_th_Grade"><g id="_x33__Stars_2_" /><g id="_x32__Stars_2_" /><g id="_x31__Star_2_" /><g id="_x30__Stars_1_" /></g><g id="_x34_th_Grade"><g id="_x33__Stars_1_" /><g id="_x32__Stars_1_" /><g id="_x31__Star_1_" /><g id="_x30__Stars_2_" /></g><g id="_x33_rd_Grade"><g id="_x33__Stars" /><g id="_x32__Stars"><rect x="-12.4" y="-27" class="st29" width="256.5" height="297" /></g><g id="_x31__Star" /><g id="_x30__Stars" /></g><g id="Labels"><rect class="st29" width="246" height="270" /><g><defs><rect id="SVGID_00000179613001242780599000000005655313597330229931_" x="0" width="246" height="270" /></defs><clipPath id="SVGID_00000096019443006556708930000007720769269407653048_"><use xlink:href="#SVGID_00000179613001242780599000000005655313597330229931_" style="overflow:visible;" /></clipPath><g style="clip-path:url(#SVGID_00000096019443006556708930000007720769269407653048_);"><path class="st1" d="M201.1,101.2c0.5-0.4,15.3-8,12.4,1.5c0,0,21.5-3.3,12.7,7.1c0,0,6.8,3.2,7.8,6.7c1.3,4.6-2.1,6.5-9.2,3.4
				c0,0,4.5,5.3,2.9,8.5c-1.1,2.1-6,1.1-8.8-1.2c0,0,4.5,6.7-5,6.4c-9.4-0.4-17.4,1.7-17,1.4c0.4-0.3-3.8-26.2-3.3-26.7
				S201.1,101.2,201.1,101.2z" /><path class="st48" d="M197,96.2c0,0,2.3-0.4,2.8,1.6c0,0,2.2,0,3,2.9c0.9,2.9-0.1,15.7-2,12.4c-0.4-0.7-4.6-7.5-4.6-7.5L197,96.2
				z" /><path class="st5" d="M110.3,69.8c0,0-6.6,3.8-5,8.4c1,2.9,3,2.1,3,2.1s-1.5,3.2,1,7.4s8.7-0.4,8.7-0.4s3.8-10.1,3.8-10.7
				c0-0.7-1.8-7.7-1.8-7.7l-2.9-2L110.3,69.8z" /><g><path class="st2" d="M101.6,32.2c3,5.1,3.3,10.4,0.8,11.9c-2.6,1.5-7.1-1.4-10-6.5c-3-5.1-3.3-10.4-0.8-11.9
					C94.2,24.2,98.7,27.1,101.6,32.2z" /><path class="st2" d="M121.1,69.9c0,0-2.5-18.4-11.6-31.1c-9.1-12.6-15.1-13.3-15.1-13.3l6.7,19c0,0,2.4-1.1,5,0.6
					c10.5,6.9,11.6,25.3,11.6,25.3L121.1,69.9z" /><path class="st4" d="M100.8,33.6c1.8,3.6,1.3,8.5-0.1,9.3c-1.4,0.8-4.2-1.3-6.2-4.8c-2-3.5-3-8.3-1.6-9.1
					C94.2,28.1,98.2,28.5,100.8,33.6z" /></g><path class="st0" d="M289.7,281.3c0,7.1-55.3,12.8-123.5,12.8c-68.2,0-123.5-5.7-123.5-12.8s55.3-12.8,123.5-12.8
				C234.3,268.4,289.7,274.2,289.7,281.3z" /><path class="st1" d="M64.5,263.1c0,0-2.1,3.7-1.9,8.7c0.2,5,1.3,8.3,2.3,8.7c1.1,0.4,8.2-10.1,8.2-10.1s-0.3-2.6-2.7-4.6
				C68.1,263.9,64.5,263.1,64.5,263.1z" /><path class="st1" d="M71,267.4c0,0-0.6,4.2,1.4,8.8c2.1,4.6,4.2,7.3,5.3,7.2c1.1,0,4-12.4,4-12.4s-1.2-2.3-4.2-3.3
				C74.5,266.8,71,267.4,71,267.4z" /><path class="st1" d="M77.8,270.2c0,0,0.5,4.2,3.7,8.1c3.2,3.9,6,5.9,7,5.6c1.1-0.3,0.6-13,0.6-13s-1.8-1.9-4.9-2
				C81.1,268.7,77.8,270.2,77.8,270.2z" /><path class="st2" d="M289,163.4c-15.4-10.9-28.6-6.5-32.8-5.2c-36.5,11.8-10.4,46.2,12.3,75.7c1.8,2.4,10.4,13.4,15.2,12.9
				C289,246.3,315.8,182.3,289,163.4z" /><path class="st3" d="M284,246.7c0.2-0.1,2-1.6,2.6-2.3c2-3,3.4-6.8,4.8-10.1c0.6-1.4,2.5-4.5,2.3-6c-0.2-1.1-0.4-2.2-0.6-3.4
				c-4.4-19.3-21.5-24.6-21.5-24.6s-18.1-5.4-28.3-3.6c4.6,9.3,10.7,17.8,16.9,26.1c3.4,4.6,6.6,9.4,10.3,13.8
				c1.9,2.2,3.9,4.4,6.1,6.3C278.4,244.6,281.2,247.5,284,246.7z" /><path class="st2" d="M252.8,158.2c0,0-1.1-7.5-17.1-18.2c-16-10.7-32.1-8.6-32.1-8.6s-11.7,1-24.3,20.3
				c-14.8,22.7-39.9,131.6,18.1,131.6c18.4,0,20.1,0,24.4,0c18.2,0,42.7-49.8,42.7-49.8s6.5-22.4,5.3-35.5
				C267.2,171,252.8,158.2,252.8,158.2z" /><path class="st4" d="M268,184.1c0,0,0.5,1.4,0.9,3.9c3.5,18,1.1,37.1-6.7,53.7c-4.9,10.4-11.6,20.1-19.9,28.1
				c0.9-1,1.4-2.2,2.1-3.3c1.2-1.9,2.6-3.8,3.8-5.7c2.4-3.9,4.7-7.8,6.7-11.9c4.1-8.2,7.3-16.8,9.6-25.6c1.6-5.9,2.2-12.4,2.9-18.5
				c0.7-6.5,1.1-13.1,0.6-19.6C268,184.5,268,184.1,268,184.1z" /><path class="st2" d="M205.5,203c2.2-28.6,4-55.9,1.8-68.4c-0.2-0.9-0.3-1.8-0.5-2.7c-0.4,0-0.5,0.1-0.5,0.1s-2.7-12.8-6.4-20.3
				c-14.4-28.9-48.1-47.6-72.7-44.9C102.6,69.3,113.3,96,113.3,96S60.9,69.3,45.9,198.7c-9.5,81.8,56.7,85,56.7,85
				s101.7-0.3,104.8-0.3c15.2,0,22.9-13.6,18.4-35.5C221.4,226.2,204.3,226.4,205.5,203z" /><path class="st3" d="M209.3,282.7c-8.4-3.8-16.8-9.1-23.5-16.3c-21.4-23-10.7-150.8-10.7-150.8s-8.8,6.1-16.9,1.6
				c-8-4.4-8.3-6.8-11-10.9c-0.5-0.7-9.2-4.5-9.2-4.5l-6.4-2.8c0,0-4.3,14.3-15.5,16.2c-11.1,1.8-16.7-7.2-16.7-7.2
				s-38,69.7-33.3,117.3c2.1,21.1,5.5,36.8,8.6,47.7c14.4,9.1,28.9,9.8,28.9,9.8S174.5,282.7,209.3,282.7z" /><path class="st2" d="M134.3,274.7c-48.7,0-64.1-5.5-64.7-5.7l0.5-1.2c0.2,0.1,15.9,5.7,64.2,5.7c50.2,0,60.1-5.1,60.2-5.2
				l0.6,1.1C194.7,269.5,185.2,274.7,134.3,274.7z" /><path class="st2" d="M128.4,165.5c-48.7,0-64.1-5.5-64.7-5.7l0.5-1.2c0.2,0.1,15.9,5.7,64.2,5.7c50.2,0,60.1-5.1,60.2-5.2
				l0.6,1.1C188.8,160.3,179.2,165.5,128.4,165.5z" /><path class="st4" d="M197,107.4c0,0,0.3,0.3,0.7,0.9c4.3,5.9,7.2,12.7,9,19.7c1.5,5.6,2.3,11.4,2.5,17.2c0,1.5,0.1,3,0.1,4.6
				c0.2,17.8-0.7,35.8-4,53.3c0,0,0-0.4,0-1.1c0-0.7-0.1-1.8-0.1-3.1c-0.1-8.9-0.1-17.8,0-26.7c0.2-18.1,1.3-37.1-4.2-54.6
				c-1-3.1-2.1-6.2-3.5-9.1C197.2,107.7,197,107.4,197,107.4z" /><path class="st2" d="M121.9,190.9c-38,0-58.8-7.5-59.1-7.7l0.5-1.2c0.4,0.2,41.9,15.2,115.7,2.4l0.2,1.3
				C157.2,189.6,138,190.9,121.9,190.9z" /><path class="st2" d="M117.4,218.1c-10.7,0-21.5-0.6-31.9-2.2c-19.5-2.9-28.1-7.7-28.5-7.9l0.6-1.1c0.1,0,8.9,4.9,28.2,7.8
				c32.3,4.9,68.8,0.7,93.7-3.7l0.2,1.3C162.7,215.2,140.3,218.1,117.4,218.1z" /><path class="st2" d="M114,248.4c-9.2,0-17.3-0.6-23.9-1.4c-21-2.4-33.2-7.4-33.4-7.4l0.5-1.2c0.1,0,12.3,4.9,33.1,7.4
				c19.2,2.2,49.9,2.8,87.3-7.4l0.3,1.3C153.3,246.4,131.6,248.4,114,248.4z" /><path class="st1" d="M182.4,265.5c0,0-2.1,3.7-1.9,8.7c0.2,5,1.3,8.3,2.3,8.7s8.2-10.1,8.2-10.1s-0.3-2.6-2.7-4.6
				C185.9,266.3,182.4,265.5,182.4,265.5z" /><path class="st1" d="M239.6,272.5c0,0,2.6,1.6,6.2,1.6c3.6-0.1,6-0.7,6.3-1.5c0.3-0.7-7-6.2-7-6.2s-1.9,0.2-3.4,1.9
				C240.3,269.9,239.6,272.5,239.6,272.5z" /><path class="st1" d="M245.4,266.8c0,0,1.8,1.3,4.6,1.4c2.7,0.1,4.5-0.3,4.7-0.8c0.3-0.5-5-4.9-5-4.9s-1.4,0-2.6,1.2
				C246,265,245.4,266.8,245.4,266.8z" /><path class="st49" d="M57.4,132.5c0,0-2,10.1,0.2,14.9c2.2,4.8,8.7,4.4,10.8,11.5c3,9.8,5.9,21.9,5.9,21.9h74.5
				c0,0,17.8-15,30.9-24.8c13.2-9.9,25.9-18.6,25.9-18.6l0.5,8.5c0,0-34.8,5.1-30,63.9c0.2,2.2,14,1.9,14.3,4.2
				c0.6,4.8,23.8,1.6,25.6,6.3c5.8,15.2,15.4,19.9,15.4,19.9s-13.8,10.9-25.2,10.2c-6.9-0.5-14.5-8.1-23.4-8.1
				c-7.1,0-10.1,9.3-24.2,9c-9.7-0.2-23.1-9-40.3-9c-8.6,0-17.6,9.6-34.8,10c0,0-14-1.9-20.9-8.7c-14.6-5.9-36.8,1.6-36.8,1.6
				s10-11.1,14.4-27c1.4-5,5.3-17.3,6.1-24.3c0,0,6.7,6.9,10.6,2.6c3.7-4.1,3.6,4.6,4.1-0.7c1-11.3-0.7-24-2.9-34
				c-2.6-11.5-4.4-7.1-4.4-7.1c0.9-3.8,2.2-8.2,2.2-8.2L57.4,132.5z" /><path class="st49" d="M171,201.4c0,0,10.2,2,19.8-0.4c9.6-2.4,15.9-8,15.9-8l0.3,2.1c0-0.1,1.7,8.4,8.6,22.6
				c10,20.6,19.5,25.1,13.8,24.3c-17.5-2.2-62.4-37-57.1-35.4L171,201.4z" /><g><path class="st50" d="M42.6,218.1c50.2,3.8,100.9,4.3,151.2,2.8c7.2-0.2,14.4-0.5,21.6-0.8c-7.2,0.7-14.4,1.2-21.6,1.7
					C143.4,224.7,92.7,224.4,42.6,218.1L42.6,218.1z" /></g><path class="st1" d="M134,65.7c0,0-4,9.2-5.3,7.6c-1.3-1.5-1.8-5-1.8-5s-8.3,10.1-11,8.3s0.2-6.6,0.2-6.6s-7.5,4.4-8.4,1
				c-0.6-2.2,1.1-6,4.5-7.4c3-1.2,6.1-0.9,6.1-0.9s-2.6-2.4,1.3-4.4c3.9-2,17.3,1.8,17.3,1.8L134,65.7z" /><g><path class="st5" d="M128,58.5c1,3.6,2.9,6.6,5.3,9.4C129.6,66.6,127.1,62.3,128,58.5L128,58.5z" /></g><path class="st1" d="M190.9,99c0,0,1.5,5.8,5.7,8.3c1.7,1,3.1-2.4,2-8.2c-1.1-5.8-5.4-11.8-5.4-11.8s6.2-4.9-1.6-10.7
				c-6.6-4.9-11.1-5.5-11.1-5.5s-3.7-14.7-17.5-15.8c-4.6-0.4-4.3,3.4-4.3,3.4s-18-12.5-29.6-7.4c-6.3,2.8,3.6,20.6,12.1,22.4
				c2.6,0.5,1-6.2,1-6.2s2.1,4.6,12.1,7.9c7.1,2.3,8-0.7,8-0.7s3.4,10.8,10.4,13.2c4.5,1.5,5.2-0.9,5.2-0.9S182.8,105.7,190.9,99z" /><g><path class="st5" d="M185.2,79.4c2.3,1.6,4.4,3.8,5.3,6.6c1,4.7-1.6,6.1-5.2,2.8c0,0,0.7-0.5,0.7-0.5c0.8,2,0.8,4.5-0.4,6.4
					c0.6-2,0.3-4.1-0.5-6c0,0-0.9-2-0.9-2l1.7,1.4c0.8,0.6,2.2,1.8,3.2,1.5c0.7-0.6,0.8-2.4,0.5-3.4C189,83.6,187.2,81.3,185.2,79.4
					L185.2,79.4z" /></g><g><path class="st5" d="M215.4,109.2c3.5-0.1,7.7,1,9.5,4.4c0.3,0.7,0.7,1.6,0.3,2.4c-0.2,0.4-0.7,0.7-1,0.8
					c-1.1,0.3-2.2,0.1-3.2-0.1c0.7,0,1.4,0,2.1-0.2c0.6-0.1,1.4-0.4,1.5-0.8c0.2-0.8-0.7-2.1-1.2-2.8
					C221.1,110.8,218.2,109.9,215.4,109.2L215.4,109.2z" /></g><g><path class="st2" d="M142,14.7c1.2,6.3-0.4,11.9-3.6,12.5c-3.2,0.6-6.7-4-7.9-10.4c-1.2-6.3,0.4-11.9,3.6-12.5
					C137.3,3.8,140.8,8.4,142,14.7z" /><g><path class="st2" d="M147.7,59.7c0,0,4.5-19-0.1-35.3C143,8.1,137,5.2,137,5.2l-0.2,21.9c0,0,2.9-0.2,4.9,2.5
						c8.2,10.9,2.4,31.1,2.4,31.1L147.7,59.7z" /><path class="st4" d="M140.6,15.8c0.5,4.3-1.8,9.1-3.5,9.5c-1.7,0.3-3.8-2.9-4.6-7.2c-0.8-4.3-0.1-9.6,1.7-9.9
						C135.9,7.8,139.8,9.6,140.6,15.8z" /></g></g><g><path class="st5" d="M115.6,70.9c0.5-2.8,2.8-5.7,5.8-5.8C118.9,66.6,117.4,68.7,115.6,70.9L115.6,70.9z" /></g><ellipse transform="matrix(0.5537 -0.8327 0.8327 0.5537 13.4607 148.4127)" class="st1" cx="145.2" cy="61.6" rx="2.8" ry="8.1" /><g><g><g><path class="st8" d="M121.6,62.3c0,0-0.6,1.1-1.2,2.7c-0.3,0.8-0.6,1.9-0.8,2.9c-0.6,3.3,0.1,6.6,1.3,9.7
							c0.3,0.8,0.7,1.5,0.9,1.9c0.1,0.2,0.2,0.4,0.3,0.5c0.1,0.1,0.1,0.2,0.1,0.2L121,81c0,0,0-0.1-0.1-0.2
							c-0.1-0.1-0.2-0.3-0.3-0.6c-0.2-0.5-0.5-1.2-0.8-2.1c-1.1-3.3-1.6-6.8-0.7-10.2c0.3-1.1,0.7-2.1,1-2.9
							C120.9,63.3,121.6,62.3,121.6,62.3z" /><path class="st8" d="M127.9,60.3c0,0-0.8,0.9-1.7,2.5c-0.5,0.8-0.9,1.7-1.3,2.8c-1.2,3.1-1.1,6.6-0.4,9.8
							c0.2,0.9,0.4,1.6,0.5,2.1c0.1,0.2,0.1,0.4,0.2,0.6c0,0.1,0.1,0.2,0.1,0.2l-1.2,0.5c0,0,0-0.1-0.1-0.2c0-0.1-0.1-0.4-0.2-0.6
							c-0.1-0.5-0.3-1.3-0.4-2.2c-0.5-3.4-0.4-7,1.1-10.2c0.5-1,1-1.9,1.5-2.7C127.1,61.2,127.9,60.3,127.9,60.3z" /><path class="st8" d="M132.1,63.3c0,0-0.8,0.9-1.7,2.5c-0.5,0.8-0.9,1.7-1.3,2.8c-1.2,3.1-1.1,6.6-0.4,9.8
							c0.2,0.9,0.4,1.6,0.5,2.1c0.1,0.2,0.1,0.4,0.2,0.6c0,0.1,0.1,0.2,0.1,0.2l-1.2,0.5c0,0,0-0.1-0.1-0.2c0-0.1-0.1-0.4-0.2-0.6
							c-0.1-0.5-0.3-1.3-0.4-2.2c-0.1-0.9-0.2-2-0.2-3.1c0-2.4,0.3-4.8,1.4-7c0.5-1,1-1.9,1.5-2.7C131.2,64.1,132.1,63.3,132.1,63.3
							z" /><path class="st8" d="M148.1,63.3c0,0-0.6,1.1-1.2,2.7c-0.3,0.8-0.6,1.9-0.8,2.9c-0.6,3.3,0.1,6.6,1.3,9.7
							c0.3,0.8,0.7,1.5,0.9,1.9c0.1,0.2,0.2,0.4,0.3,0.5c0.1,0.1,0.1,0.2,0.1,0.2l-1.1,0.7c0,0,0-0.1-0.1-0.2
							c-0.1-0.1-0.2-0.3-0.3-0.6c-0.2-0.5-0.5-1.2-0.8-2.1c-1.1-3.3-1.6-6.8-0.7-10.2c0.3-1.1,0.7-2.1,1-2.9
							C147.4,64.3,148.1,63.3,148.1,63.3z" /><path class="st8" d="M154.4,61.3c0,0-0.8,0.9-1.7,2.5c-0.5,0.8-0.9,1.7-1.3,2.8c-1.2,3.2-1.1,6.5-0.4,9.8
							c0.2,0.9,0.4,1.6,0.5,2.1c0.1,0.2,0.1,0.4,0.2,0.6c0,0.1,0.1,0.2,0.1,0.2l-1.2,0.5c0,0,0-0.1-0.1-0.2c0-0.1-0.1-0.4-0.2-0.6
							c-0.1-0.5-0.3-1.3-0.4-2.2c-0.5-3.4-0.4-7,1.1-10.2c0.5-1,1-1.9,1.5-2.7C153.6,62.2,154.4,61.3,154.4,61.3z" /><path class="st8" d="M158.6,64.2c0,0-0.8,0.9-1.7,2.5c-2.3,3.9-2.7,8.2-1.7,12.6c0.2,0.9,0.4,1.6,0.5,2.1
							c0.1,0.2,0.1,0.4,0.2,0.6c0,0.1,0.1,0.2,0.1,0.2l-1.2,0.5c0,0,0-0.1-0.1-0.2c0-0.1-0.1-0.4-0.2-0.6c-0.1-0.5-0.3-1.3-0.4-2.2
							c-0.5-3.4-0.4-7,1.1-10.2c0.5-1,1-1.9,1.5-2.7C157.7,65.1,158.6,64.2,158.6,64.2z" /></g><path class="st9" d="M133.5,85.9c0,5.3-3.5,9.6-7.8,9.6c-4.3,0-7.8-4.3-7.8-9.6c0-5.3,3.5-9.6,7.8-9.6
						C130,76.2,133.5,80.6,133.5,85.9z" /><path class="st8" d="M130.5,88.9c0,2.4-1.5,4.3-3.4,4.3c-1.9,0-3.4-1.9-3.4-4.3c0-2.4,1.5-4.3,3.4-4.3
						C129,84.7,130.5,86.6,130.5,88.9z" /><path class="st9" d="M158.8,85.9c0,5.3-3.5,9.6-7.8,9.6c-4.3,0-7.8-4.3-7.8-9.6c0-5.3,3.5-9.6,7.8-9.6
						C155.3,76.2,158.8,80.6,158.8,85.9z" /><path class="st8" d="M154.8,88.9c0,2.4-1.5,4.3-3.4,4.3c-1.9,0-3.4-1.9-3.4-4.3c0-2.4,1.5-4.3,3.4-4.3
						C153.3,84.7,154.8,86.6,154.8,88.9z" /></g></g><g><path class="st5" d="M161.1,67.3c2.5,1.5,3.9,5.8,1.2,7.8C163.6,72.4,162.4,69.8,161.1,67.3L161.1,67.3z" /></g><g><path class="st5" d="M177.9,87.4c1-4.1-0.2-7.1-3.7-9.4c-0.5-0.3-0.9-0.6-1.4-0.9c0.5,0.1,1.1,0.3,1.6,0.5
					C178.6,79.2,180.3,83.5,177.9,87.4L177.9,87.4z" /></g><g><path class="st5" d="M150.7,61.9c-3.1-1.9-6.2-4.1-9.7-5.1c-4.3-0.9-0.2,3.5,0.8,4.7c-2.9-1.2-5.8-2.6-9-3
					c2.6-0.2,5.2,0.6,7.6,1.5c0,0-0.5,0.7-0.5,0.7c-0.8-0.9-1.6-1.8-1.8-3.1c-0.2-1.1,0.9-1.9,1.9-1.9
					C144.1,56.2,147.7,59.4,150.7,61.9L150.7,61.9z" /></g><g><path class="st5" d="M158.7,58.4c0.9,3.1,2.9,5.1,5.9,6.1C161.1,65.1,158,61.7,158.7,58.4L158.7,58.4z" /></g><ellipse transform="matrix(0.1057 -0.9944 0.9944 0.1057 52.6818 230.3087)" class="st62" cx="154.4" cy="85.9" rx="19.9" ry="17.6" /><ellipse transform="matrix(0.9945 -0.1051 0.1051 0.9945 -8.3646 12.8463)" class="st63" cx="117.7" cy="85.8" rx="16.8" ry="19.9" /><line class="st64" x1="136.6" y1="89.4" x2="134.8" y2="89.4" /><path d="M175.6,85.6c0,1-0.8,1.8-1.8,1.8c-1,0-1.8-0.8-1.8-1.8c0-1,0.8-1.8,1.8-1.8C174.8,83.8,175.6,84.6,175.6,85.6z" /><path d="M100.5,85.6c0,1-0.8,1.8-1.8,1.8c-1,0-1.8-0.8-1.8-1.8c0-1,0.8-1.8,1.8-1.8C99.7,83.8,100.5,84.6,100.5,85.6z" /><g><path class="st5" d="M204.1,101.5c2.9-0.1,6.2-0.1,8.4,2.1c0.9,1,0.9,2.5,0.5,3.7c-0.9,1.9-3.3,2-5.1,1.7c0,0,0.4-0.8,0.4-0.8
					c1.4,1.2,2.9,2.5,3.3,4.4c0.3,1.6-1.1,2.9-2.6,2.6c-1.8-0.3-3.3-1.5-4.8-2.6c0,0,0.5-0.3,0.5-0.3c0.7,2.1,1,4.4,0.6,6.6
					c0.1-1.1,0-2.2-0.2-3.3c-0.3-1.4-0.7-2.7-1.3-4c1.2,0.9,2.4,1.7,3.8,2.3c2.4,1.2,4.1,0.1,2.5-2.5c-0.9-1.4-2.4-2.6-3.6-3.6
					c2.3,0.5,6,1.3,6.2-1.9C212.7,102.1,206.9,101.7,204.1,101.5L204.1,101.5z" /></g><g><g><path class="st1" d="M147.9,107.4c0,0-4.1-5.5-9.4-8c-5.3-2.4-7.4-0.8-7.4-0.8s-4.2,3.9-4,8c0.2,4.1,2.9,10.2,4.7,10.6
						c1.8,0.4,5.7-1.6,5.7-1.6s1,4.1,2,4.7c1,0.6,3.9-1,6.5-4.9C148.7,111.5,147.9,107.4,147.9,107.4z" /><path class="st5" d="M141.3,103.4c0,0,0.1,0.3,0.3,0.8c0.1,0.5,0.2,1.3,0.3,2.2c0,3.4-0.9,7.3-3.8,9.4
						c-1.4,1.2-3.3,1.6-5.1,1.6c-0.3,0-0.5,0-0.6-0.1c-0.1,0-0.2,0-0.2,0s0.3,0,0.8-0.2c2.8-0.7,5.2-2.4,6.5-5
						c1.2-2.3,1.8-5.2,1.9-7.8C141.4,103.7,141.3,103.4,141.3,103.4z" /><path class="st5" d="M141.9,103.4c0,0.4-0.3,0.7-0.7,0.7c-0.4,0-0.7-0.3-0.7-0.7c0-0.4,0.3-0.7,0.7-0.7
						C141.6,102.7,141.9,103,141.9,103.4z" /></g></g><path class="st49" d="M209.3,146.1l7.9-23.4c-3.6-0.8-9.4,6.1-10.6,7.4c0,0-2.3,2.7-6.1-0.6c-6-5.1-10.9,13-12.7,15.7
				c-2.5,3.9-8.1,7.8-10.3,6.2c-5.9-4.4-11.3,0.7-11.3,0.7c-12.9,10.8-17.2,28.6-17.2,28.6l46.4-33.1L209.3,146.1z" /><path class="st49" d="M73.1,175.9c0-2.2,1.4-17.4-1.6-26c-2.1-6-5.5-5.9-6.8-6c0,0-3.4,0.8-4-7.2c-0.5-6.2-1-8.8-0.8-8.3
				c0.2,0.5-4-3.8-6.3,2.6c-1.9,5.2,2.6,15.9,2.6,15.9L73.1,175.9z" /><g><path class="st2" d="M46.7,118c-0.8-0.5-5.5,0.5-6.6,5.7c-1.1,5.2-0.2,9.7-0.2,9.7l3.9,1.5C43.9,134.9,49.6,120.1,46.7,118z" /><path class="st2" d="M55.5,156.7c-3.6-3.4-8.8-15.8-12.3-19.3c-3.8-3.8-7,2.6-7,2.6c-10.4,12.4-12.7,27.7-7.6,34.2
					c4.2,5.3,14.9,6.7,26.9,1.7V156.7z" /><path class="st4" d="M35.7,140.5c0,0-0.7,0.8-1.7,2.3c-1,1.5-2.5,3.6-3.9,6.4c-0.7,1.4-1.5,2.9-2.2,4.5c-0.7,1.6-1.4,3.4-2,5.3
					c-0.6,1.9-1,3.9-1.3,6c-0.2,2.1-0.2,4.4,0.3,6.6c0.1,0.6,0.3,1.1,0.5,1.7c0.1,0.3,0.2,0.5,0.3,0.8l0.2,0.4l0,0.1l0.1,0.1l0,0
					l0,0l0.1,0.2l0.4,0.7c0.1,0.2,0.4,0.5,0.5,0.8c0.4,0.5,0.8,0.9,1.2,1.4c1.8,1.6,3.9,2.5,6,2.9c2.1,0.4,4,0.4,5.9,0.3
					c1.8-0.1,3.5-0.5,5-0.8c1.5-0.4,2.9-0.8,4.1-1.2c1.2-0.4,2.2-0.8,3-1.2c0.8-0.4,1.5-0.7,1.9-0.9c0.4-0.2,0.7-0.4,0.7-0.4
					s-1,0.3-2.8,0.6c-1.8,0.4-4.3,0.9-7.3,1.2c-1.5,0.2-3.1,0.3-4.8,0.2c-1.7,0-3.4-0.2-5.1-0.6c-0.8-0.2-1.7-0.5-2.4-0.9
					c-0.8-0.4-1.4-0.9-2-1.5c-0.3-0.3-0.6-0.6-0.8-0.9c-0.1-0.2-0.2-0.3-0.3-0.5l-0.4-0.7l-0.1-0.2l0,0l0,0c0,0,0.1,0.2,0,0.1l0-0.1
					l-0.1-0.3c-0.1-0.2-0.2-0.4-0.2-0.6c-0.1-0.4-0.3-0.8-0.4-1.3c-0.4-1.8-0.4-3.7-0.3-5.6c0.2-1.9,0.5-3.8,0.9-5.6
					c0.4-1.8,0.9-3.6,1.5-5.2c0.5-1.6,1.1-3.2,1.6-4.6c1.1-2.8,2.1-5.2,2.8-6.8C35.3,141.4,35.7,140.5,35.7,140.5z" /><path class="st2" d="M42.7,141.5c-3.9-0.3-13.5-2.3-14.2-2.6c-1.9-0.7-2-3-2-3.3c0-2.7,1.3-3.7,4-4.2c-2.1-0.1-3-1.3-3.2-1.7
					c-0.4-0.7,1-5.5,8.4-4.5c3.6,0.5,7.9,2.3,9.2,5.2C46.2,133.3,42.7,141.5,42.7,141.5z" /><g><path class="st4" d="M35.4,126.6c1.7,0.4,3.4,1,4.8,2.1c2.1,1.9,0.5,4-1.9,4.4c-1.2,0.2-2.4,0.3-3.6,0.2L35,132
						c1.6,0.8,3.7,1.7,4.2,3.6c0,2.7-3.2,3.9-5.4,3.3c1.8,0,3.9-0.7,4.3-2.6c0.3-0.8-0.6-1.3-1.2-1.7c-1.4-1-4.2-2-5.8-2.7
						c2,0,5,0.4,6.9,0C43.1,130.8,37.3,127.5,35.4,126.6L35.4,126.6z" /></g></g><path class="st2" d="M189.7,162.3c-1.5,3.6-17.2,26.1-18.4,31.4c-1.1,5.2,8.4,6.3,8.4,6.3s22,7.3,28.5-3.5
				c6.5-10.8-9-32.1-9-32.1L189.7,162.3z" /><path class="st4" d="M195,201.5c1.7,0,3.5-0.2,5.3-0.6c1.8-0.4,3.5-1.1,4.9-2.1c1.4-1,2.5-2.5,3-4.2c0.6-1.7,0.6-3.6,0.5-5.5
				c-0.2-1.9-0.6-3.8-1.1-5.6c-0.5-1.8-1.1-3.6-1.8-5.2c-0.7-1.6-1.3-3.2-2-4.6c-1.3-2.8-2.5-5.2-3.3-6.8c-0.9-1.6-1.4-2.6-1.4-2.6
				s0.7,0.8,1.9,2.2c1.2,1.4,2.8,3.5,4.4,6.2c0.8,1.3,1.7,2.8,2.5,4.5c0.8,1.6,1.6,3.4,2.3,5.3c0.7,1.9,1.2,4,1.5,6.2
				c0.2,2.2,0.2,4.5-0.6,6.9l-0.4,0.9l-0.1,0.2l-0.1,0.2l-0.2,0.3l-0.2,0.3l-0.1,0.2c-0.1,0.2,0,0.1-0.1,0.1l0,0l0,0l-0.1,0.1
				l-0.5,0.8c-0.7,1-1.6,1.8-2.6,2.5c-0.5,0.4-1,0.6-1.5,0.9c-0.5,0.2-1,0.5-1.6,0.7c-1,0.4-2.1,0.6-3.1,0.8
				c-2.1,0.4-4.1,0.3-5.9,0.2c-1.9-0.1-6.4-1.7-7.8-2.2C189.3,201.7,193.2,201.6,195,201.5z" /><path class="st2" d="M180.5,198.6c-2.2,2.7-5.7,8.6-7.7,12.7c-0.3,0.6-0.8,1.3-1.4,1.2c-0.3,0-0.5-0.2-0.7-0.4
				c-3-2.5-4-6.3-2.8-10c-1.5,1.2-3,2.4-4.5,3.6c-0.3,0.2-0.6,0.5-1,0.4c-0.7-0.1-0.9-1-0.9-1.7c0.1-3.2,1.6-6.2,3.8-8.6
				c2.2-2.3,5-4,7.9-5.2L180.5,198.6z" /></g></g></g></svg>