<?xml version="1.0" encoding="utf-8"?>
<!-- Generator: Adobe Illustrator 21.1.0, SVG Export Plug-In . SVG Version: 6.00 Build 0)  -->
<svg version="1.1" xmlns="http://www.w3.org/2000/svg" xmlns:xlink="http://www.w3.org/1999/xlink" x="0px" y="0px"
	 viewBox="0 0 242.2 275" enable-background="new 0 0 242.2 275" xml:space="preserve" width="242.2" height="275" preserveAspectRatio="none">
<g id="_x35_th_Grade">
	<g id="_x33__Stars_2_">
	</g>
	<g id="_x32__Stars_2_">
	</g>
	<g id="_x31__Star_2_">
		<g>
			<defs>
				<rect id="SVGID_5_" x="-32.9" y="-24.5" width="275.1" height="299.5"/>
			</defs>
			<clipPath id="SVGID_2_">
				<use xlink:href="#SVGID_5_"  overflow="visible"/>
			</clipPath>
			<g clip-path="url(#SVGID_2_)">
				<path fill="#72B2C6" d="M56.7,273.6c0,0-2.2,3.7-1.9,8.9c0.2,5.1,1.3,8.4,2.4,8.9c1.1,0.4,8.4-10.3,8.4-10.3s-0.3-2.7-2.8-4.7
					C60.3,274.4,56.7,273.6,56.7,273.6z"/>
				<path fill="#FFC641" d="M285.4,172c-15.7-11.1-29.1-6.7-33.4-5.3c-37.2,12-10.6,47.1,12.5,77.1c1.9,2.5,10.6,13.6,15.4,13.1
					C285.4,256.5,312.6,191.3,285.4,172z"/>
				<path fill="#FFED82" d="M280.3,256.9c0.2-0.1,2.1-1.6,2.6-2.4c2.1-3,3.4-6.9,4.9-10.3c0.6-1.4,2.6-4.6,2.4-6.1
					c-0.2-1.1-0.4-2.3-0.6-3.4c-4.5-19.7-21.9-25-21.9-25s-18.5-5.5-28.8-3.6c4.7,9.5,10.9,18.2,17.2,26.6
					c3.5,4.7,6.7,9.6,10.5,14.1c1.9,2.3,3.9,4.5,6.2,6.4C274.6,254.7,277.5,257.8,280.3,256.9z"/>
				<path fill="#FFC641" d="M250.9,167.1c0,0-1.1-7.6-17.4-18.5c-16.3-10.9-32.7-8.7-32.7-8.7s-11.9,1-24.7,20.6
					c-15.1,23.1-40.7,134.1,18.4,134.1c18.7,0,20.5,0,24.8,0c18.5,0,43.5-50.8,43.5-50.8s6.7-22.9,5.4-36.2
					C265.6,180.1,250.9,167.1,250.9,167.1z"/>
				<path fill="#F5843C" d="M265.9,193.1c0,0,0.5,1.4,1,4c3.6,18.4,1.1,37.8-6.8,54.8c-4.9,10.6-11.8,20.5-20.3,28.6
					c0.9-1,1.4-2.3,2.1-3.4c1.3-2,2.6-3.8,3.9-5.8c2.5-3.9,4.8-8,6.8-12.2c4.1-8.3,7.4-17.1,9.8-26.1c1.6-6,2.2-12.6,2.9-18.8
					c0.8-6.6,1.1-13.3,0.7-20C266,193.5,265.9,193.1,265.9,193.1z"/>
				<g>
					
						<ellipse transform="matrix(0.9194 -0.3934 0.3934 0.9194 -17.7227 76.8376)" fill="#72B2C6" cx="178.6" cy="81.7" rx="15.4" ry="26.8"/>
					<path fill="#0067AC" d="M174.4,84.9c0-3,0.2-5.9,0.9-8.8c0.5-2.3,1.2-4.9,2.5-6.9c0.3-0.4,0.5-0.7,0.9-1
						c0.3-0.3,0.7-0.6,1.1-0.8c-0.5,0.1-0.9,0.3-1.3,0.6c-0.4,0.3-0.7,0.6-1.1,0.9c-1.9,2-2.9,5-3.6,7.7c-0.7,2.7-1.1,5.6-1.2,8.4
						c0,0.5,0,0.9,0,1.4c0,1.5,0.2,3.1,0.3,4.6c1.4-3.7,4-6.9,7.2-9.2c3.2-2.2,7.2-3.5,11.1-3.5C185,77.4,178.4,79.9,174.4,84.9z"/>
					<path fill="#0067AC" d="M173.8,90c0,0,0.2,0.1,0.7,0.3c0.5,0.2,1.2,0.4,2,0.6c4.3,1,8.4,0.9,12.6-0.2c1.7-0.4,2.8-0.8,2.8-0.8
						s-1.1,0.5-2.8,1c-4.2,1.4-8.5,1.7-12.9,1c-0.9-0.2-1.6-0.3-2.1-0.5c-0.5-0.1-0.8-0.2-0.8-0.2L173.8,90z"/>
					<path fill="#0092A1" d="M161.3,90.3l10.8-7.9c0,0,2.7,0.3,5,4c2.3,3.7,1.3,5.6,1.3,5.6L168,97.4L161.3,90.3z"/>
				</g>
				<path fill="#FFC641" d="M200.1,212.3c2.3-29.2,4.1-57,1.8-69.7c-0.2-0.9-0.3-1.9-0.5-2.8c-0.4,0-0.6,0.1-0.6,0.1
					s-2.7-13.1-6.5-20.7c-14.7-29.4-49-48.5-74.1-45.8c-25.1,2.7-14.2,30-14.2,30S52.7,76.1,37.5,208c-9.6,83.3,57.8,86.6,57.8,86.6
					s103.6-0.3,106.8-0.3c15.5,0,23.3-13.8,18.8-36.2C216.3,236,198.9,236.2,200.1,212.3z"/>
				<path fill="#FFED82" d="M203,294.6c-8.6-3.9-17.1-9.3-24-16.6C157.2,254.6,168,124.3,168,124.3s-8.9,6.2-17.3,1.7
					c-9.6-5.3-8.3-7.8-13-13.5c-3.8-4.7-5.8-5.1-5.8-5.1h-8.3c0,0-4.3,14.6-15.8,16.5c-11.3,1.8-17-7.4-17-7.4S52.2,187.6,57.1,236
					c2.2,21.5,5.6,37.5,8.7,48.6c14.7,9.3,29.4,10,29.4,10S167.5,294.6,203,294.6z"/>
				<path fill="#FFC641" d="M121.7,174.1c-49.6,0-65.3-5.6-65.9-5.9l0.5-1.3c0.2,0.1,16.2,5.8,65.5,5.8c51.2,0,61.2-5.2,61.3-5.3
					l0.7,1.2C183.3,168.9,173.6,174.1,121.7,174.1z"/>
				<path fill="#F5843C" d="M191.6,114.9c0,0,0.3,0.3,0.7,0.9c4.4,6,7.3,13,9.2,20.1c1.5,5.7,2.3,11.6,2.5,17.5
					c0,1.5,0.1,3.1,0.1,4.7c0.2,18.1-0.7,36.5-4,54.3c0,0,0-0.4,0-1.1c0-0.7-0.1-1.8-0.1-3.2c-0.1-9.1-0.1-18.1,0-27.2
					c0.2-18.5,1.4-37.8-4.3-55.6c-1-3.2-2.2-6.3-3.6-9.3C191.8,115.3,191.6,114.9,191.6,114.9z"/>
				<path fill="#FFC641" d="M115.2,200.1c-38.8,0-59.9-7.7-60.2-7.8l0.5-1.3c0.4,0.2,42.7,15.5,117.9,2.5l0.2,1.3
					C151.1,198.7,131.6,200.1,115.2,200.1z"/>
				<path fill="#FFC641" d="M110.6,227.7c-10.9,0-21.9-0.7-32.5-2.2c-19.9-3-28.7-7.9-29-8.1l0.7-1.2c0.1,0,9,5,28.7,7.9
					c32.9,4.9,70.1,0.7,95.5-3.8l0.2,1.3C156.7,224.8,133.9,227.7,110.6,227.7z"/>
				<path fill="#FFC641" d="M107.1,258.7c-9.4,0-17.6-0.6-24.4-1.4c-21.4-2.5-33.9-7.5-34-7.6l0.5-1.2c0.1,0.1,12.5,5,33.7,7.5
					c19.6,2.3,50.9,2.8,89-7.5l0.4,1.3C147.2,256.6,125,258.7,107.1,258.7z"/>
				<g>
					
						<ellipse transform="matrix(0.8628 -0.5056 0.5056 0.8628 -8.4444 51.1199)" fill="#FFC641" cx="90" cy="41.1" rx="5.5" ry="10.9"/>
					<path fill="#FFC641" d="M114.5,76.7c0,0-2.5-18.7-11.8-31.7c-9.2-12.9-15.4-13.5-15.4-13.5l6.8,19.4c0,0,2.5-1.1,5.1,0.6
						c10.7,7,11.8,25.8,11.8,25.8L114.5,76.7z"/>
					<path fill="#F5843C" d="M93.8,39.7c1.9,3.7,1.3,8.6-0.1,9.4c-1.4,0.8-4.3-1.4-6.3-4.9c-2.1-3.5-3.1-8.5-1.7-9.3
						C87.1,34.2,91.1,34.5,93.8,39.7z"/>
				</g>
				<path fill="#72B2C6" d="M145.1,60.9c-11.9-1.1-15.2,6.1-15.2,6.1s-27.2-16.4-33.5,7.6c-2.1,7.9,8,20.5,8,20.5s-0.3-4-0.1-8.4
					c0-0.3,0-0.7,0.1-1.1c0.8,0,3.2-3.5,11.8-7.7c6.5-3.2,13.6-4.1,13.6-4.1s8,0.5,14.7,4.2c3.8,2.1,13.1,10.6,18.5,14.9
					c4.7,3.7,12.9,2,12.9,2S169.1,63,145.1,60.9z"/>
				<path fill="#0067AC" d="M175.9,94.8c-0.9-2.9-2-5.8-3.2-8.5c-1.2-2.8-2.7-5.4-4.3-8c-3.2-5.1-7.3-9.7-12.3-12.9
					c-2.5-1.6-5.3-2.8-8.2-3.5c-2.9-0.7-5.9-1.1-8.8-0.6c-2.9,0.5-5.6,1.9-7.7,4.1c-2.1,2.1-3.6,4.9-4.5,7.8c0.6-3,2-5.8,4.1-8.1
					c2-2.3,4.9-4,8-4.6c3.1-0.6,6.3-0.3,9.3,0.3c3,0.7,5.9,1.9,8.6,3.5c5.3,3.3,9.4,8.1,12.6,13.4C172.4,83.1,174.6,88.9,175.9,94.8
					z"/>
				<path fill="#0067AC" d="M98.6,77.8c0.2-1.4,0.7-2.9,1.3-4.2c0.6-1.3,1.4-2.6,2.4-3.7c1-1.1,2.2-2.1,3.5-2.8
					c1.3-0.7,2.8-1.1,4.3-1.3c3-0.4,6-0.1,8.9,0.7c1.4,0.4,2.8,1,4.2,1.6c1.3,0.7,2.6,1.4,3.8,2.4l1.5,1.2l-1.9-0.4
					c-1.8-0.4-3.7-0.6-5.6-0.7c-1.9-0.1-3.8,0-5.6,0.4c-1.8,0.5-3.4,1.5-4.9,2.6c-1.5,1.2-2.8,2.6-3.9,4.1c1-1.6,2.2-3.1,3.7-4.4
					c1.4-1.3,3.1-2.4,5-3c1.9-0.6,3.8-0.7,5.8-0.7c1.9,0,3.9,0.2,5.8,0.6l-0.4,0.8c-2.2-1.7-4.9-3-7.6-3.8c-2.7-0.8-5.6-1.1-8.5-0.8
					c-1.4,0.1-2.8,0.5-4.1,1.1c-1.3,0.6-2.5,1.5-3.4,2.5C100.7,72.2,99.3,74.9,98.6,77.8z"/>
				<path fill="#0067AC" d="M166,82.4c-1.7-3.1-3.9-5.9-6.5-8.3c-2.6-2.4-5.6-4.3-8.9-5.3c-3.3-1-6.9-1.3-10.2-0.3
					c-3.3,0.9-6.7,2.2-8.9,4.8l-0.5-0.8c3.1-0.3,7.1-0.3,10.2,0.3c2.7,0.6,5.8,1.8,8.6,3.4c2.7,1.7,5,3.7,7.2,6
					c2.1,2.3,4,4.7,5.7,7.4c-1.8-2.5-3.8-4.9-6-7c-2.2-2.2-4.6-4.2-7.2-5.7c-2.7-1.4-5.4-2.6-8.5-2.9c-3-0.3-6.8-0.8-9.8-0.4
					l-1.2,0.1l0.7-0.9c1.1-1.5,2.1-1.8,3.6-2.8c1.5-1,4-1.8,5.7-2.3c3.5-1,7.3-0.7,10.7,0.4c3.4,1.2,6.5,3.2,9,5.7
					c1.3,1.3,2.4,2.6,3.4,4.1C164.3,79.3,165.2,80.8,166,82.4z"/>
				<g>
					
						<ellipse transform="matrix(0.9831 -0.1831 0.1831 0.9831 -1.7593 24.1534)" fill="#FFC641" cx="129.9" cy="21.6" rx="6" ry="11.8"/>
					<g>
						<path fill="#FFC641" d="M141.6,66.3c0,0,4.6-19.3-0.1-36c-4.7-16.6-10.8-19.5-10.8-19.5l-0.2,22.4c0,0,2.9-0.2,5,2.5
							c8.4,11.1,2.4,31.7,2.4,31.7L141.6,66.3z"/>
						<path fill="#F5843C" d="M134.4,21.6c0.6,4.4-1.8,9.3-3.6,9.6c-1.8,0.3-3.8-3-4.7-7.3c-0.8-4.4-0.1-9.8,1.7-10.1
							C129.6,13.4,133.6,15.3,134.4,21.6z"/>
					</g>
				</g>
				<g>
					<g>
						<path fill="#410025" d="M118.5,69c0,0-0.6,1.1-1.2,2.8c-0.3,0.9-0.6,1.9-0.8,3c-0.7,3.4,0.1,6.8,1.4,9.9
							c0.3,0.8,0.7,1.5,0.9,2c0.1,0.2,0.2,0.4,0.3,0.5c0.1,0.1,0.1,0.2,0.1,0.2l-1.2,0.7c0,0,0-0.1-0.1-0.2
							c-0.1-0.1-0.2-0.3-0.3-0.6c-0.2-0.5-0.5-1.2-0.8-2.1c-1.1-3.3-1.6-6.9-0.7-10.4c0.3-1.1,0.7-2.1,1.1-3
							C117.8,70,118.5,69,118.5,69z"/>
						<path fill="#410025" d="M124.9,67c0,0-0.8,0.9-1.7,2.5c-0.5,0.8-1,1.7-1.4,2.8c-1.3,3.2-1.1,6.7-0.4,10
							c0.2,0.9,0.4,1.6,0.5,2.1c0.1,0.2,0.1,0.4,0.2,0.6c0,0.1,0.1,0.2,0.1,0.2l-1.3,0.5c0,0,0-0.1-0.1-0.2c0-0.1-0.1-0.4-0.2-0.6
							c-0.1-0.5-0.3-1.3-0.4-2.2c-0.5-3.5-0.4-7.1,1.1-10.4c0.5-1.1,1.1-2,1.6-2.7C124.1,67.8,124.9,67,124.9,67z"/>
						<path fill="#410025" d="M129.2,70c0,0-0.8,0.9-1.7,2.5c-0.5,0.8-1,1.7-1.4,2.8c-1.3,3.2-1.1,6.7-0.4,10
							c0.2,0.9,0.4,1.6,0.5,2.1c0.1,0.2,0.1,0.4,0.2,0.6c0,0.1,0.1,0.2,0.1,0.2l-1.3,0.5c0,0,0-0.1-0.1-0.2c0-0.1-0.1-0.4-0.2-0.6
							c-0.1-0.5-0.3-1.3-0.4-2.2c-0.1-0.9-0.2-2-0.2-3.2c0-2.5,0.3-4.9,1.4-7.2c0.5-1.1,1.1-2,1.6-2.8C128.3,70.9,129.2,70,129.2,70
							z"/>
						<path fill="#410025" d="M141.8,70c0,0-0.6,1.1-1.2,2.8c-0.3,0.9-0.6,1.9-0.8,3c-0.7,3.4,0.1,6.8,1.4,9.9
							c0.3,0.8,0.7,1.5,0.9,2c0.1,0.2,0.2,0.4,0.3,0.5c0.1,0.1,0.1,0.2,0.1,0.2l-1.2,0.7c0,0,0-0.1-0.1-0.2
							c-0.1-0.1-0.2-0.3-0.3-0.6c-0.2-0.5-0.5-1.2-0.8-2.1c-1.1-3.3-1.6-6.9-0.7-10.4c0.3-1.1,0.7-2.1,1.1-3
							C141.1,71,141.8,70,141.8,70z"/>
						<path fill="#410025" d="M148.3,68c0,0-0.8,0.9-1.7,2.5c-0.5,0.8-1,1.7-1.4,2.8c-1.3,3.2-1.1,6.7-0.4,10
							c0.2,0.9,0.4,1.6,0.5,2.1c0.1,0.2,0.1,0.4,0.2,0.6c0,0.1,0.1,0.2,0.1,0.2l-1.3,0.5c0,0,0-0.1-0.1-0.2c0-0.1-0.1-0.4-0.2-0.6
							c-0.1-0.5-0.3-1.3-0.4-2.2c-0.5-3.5-0.4-7.1,1.1-10.4c0.5-1.1,1.1-2,1.6-2.8C147.4,68.8,148.3,68,148.3,68z"/>
						<path fill="#410025" d="M152.5,71c0,0-0.8,0.9-1.7,2.5c-2.3,4-2.7,8.3-1.8,12.8c0.2,0.9,0.4,1.6,0.5,2.1
							c0.1,0.2,0.1,0.4,0.2,0.6c0,0.1,0.1,0.2,0.1,0.2l-1.3,0.5c0,0,0-0.1-0.1-0.2c0-0.1-0.1-0.4-0.2-0.6c-0.1-0.5-0.3-1.3-0.4-2.2
							c-0.5-3.5-0.4-7.1,1.1-10.4c0.5-1.1,1.1-2,1.6-2.7C151.6,71.9,152.5,71,152.5,71z"/>
					</g>
					<ellipse fill="#FFFFFF" cx="122.7" cy="93" rx="7.9" ry="9.8"/>
					<ellipse fill="#410025" cx="124.1" cy="96.1" rx="3.4" ry="4.3"/>
					<ellipse fill="#FFFFFF" cx="144.8" cy="93" rx="7.9" ry="9.8"/>
					<ellipse fill="#410025" cx="145.2" cy="96.1" rx="3.4" ry="4.3"/>
				</g>
				<g>
					<path fill="#410025" d="M138.7,105.1c-0.8-2.2-2.8-5.7-4.6-5.8c-2-0.1-3.9,2.8-4.5,3.9l-1.2-0.6c0.1-0.2,2.6-4.8,5.8-4.6
						c3.2,0.1,5.5,6,5.8,6.6L138.7,105.1z"/>
					<g>
						<ellipse fill="#8ED5F6" cx="122" cy="104.9" rx="8.8" ry="6.2"/>
						<path fill="#410025" d="M122,111.7c-5.2,0-9.5-3.1-9.5-6.9c0-3.8,4.3-6.9,9.5-6.9c5.2,0,9.5,3.1,9.5,6.9
							C131.5,108.6,127.2,111.7,122,111.7z M122,99.3c-4.5,0-8.2,2.5-8.2,5.5c0,3,3.7,5.5,8.2,5.5c4.5,0,8.2-2.5,8.2-5.5
							C130.1,101.8,126.5,99.3,122,99.3z"/>
					</g>
					<g>
						<ellipse fill="#8ED5F6" cx="146.6" cy="104.9" rx="9.2" ry="6.2"/>
						<path fill="#410025" d="M146.6,111.7c-5.4,0-9.9-3.1-9.9-6.9c0-3.8,4.4-6.9,9.9-6.9c5.4,0,9.9,3.1,9.9,6.9
							C156.5,108.6,152,111.7,146.6,111.7z M146.6,99.3c-4.7,0-8.5,2.5-8.5,5.5c0,3,3.8,5.5,8.5,5.5c4.7,0,8.5-2.5,8.5-5.5
							C155.1,101.8,151.3,99.3,146.6,99.3z"/>
					</g>
					<circle fill="#410025" cx="157.5" cy="105" r="1.7"/>
					<circle fill="#410025" cx="111.4" cy="105" r="1.7"/>
				</g>
				<g>
					<path fill="#72B2C6" d="M141.7,118.5c0,0-2.1-6.7-6.3-10.8c-4.3-4.1-6.9-3.3-6.9-3.3s-5.3,2.3-6.5,6.3
						c-1.2,4-0.7,10.8,0.9,11.8c1.6,1,6,0.4,6,0.4s-0.8,2.8,0,3.7c0.8,0.9,4.5,1.8,8.4-1C141.1,122.7,141.7,118.5,141.7,118.5z"/>
					
						<ellipse transform="matrix(0.3312 -0.9436 0.9436 0.3312 -17.6226 207.7124)" fill="#0067AC" cx="137.7" cy="116.3" rx="0.8" ry="0.8"/>
				</g>
				<g>
					<path fill="#0067AC" d="M123.1,122.5c1.4,0.3,2.8,0.1,4.2-0.1c0.7-0.1,1.4-0.2,2-0.4c0.7-0.2,1.3-0.3,2-0.6
						c1.3-0.5,2.4-1.2,3.5-2.1c1.1-0.9,2-1.9,3-3c-0.4,1.4-1.2,2.7-2.2,3.8c-1,1.1-2.3,2-3.7,2.6c-1.5,0.5-2.9,0.7-4.4,0.8
						C125.9,123.5,124.3,123.3,123.1,122.5z"/>
				</g>
				<g>
					<path fill="#34BCAA" d="M52.6,140.8c0,0,6.9,12.4,11.3,26.9c3,10,6,22.3,6,22.3h71c0,0,17.4-20.1,30.8-30.2
						c13.4-10.1,31.9-14.1,31.9-14.1v8.9c0,0-39.8,13.9-31.3,79.5c2.8,21.9,7.8,30.2,7.8,30.2l-133.2-7c0,0,7.2-28.8,9.2-52.3
						s-7.7-52.9-7.7-52.9L52.6,140.8z"/>
					<path fill="#34BCAA" d="M165.1,210.8c0,0,10.4,2.1,20.2-0.4c9.8-2.5,16.2-8.1,16.2-8.1l-0.2,1.9c0,0-3.4,5.2-13.2,8.7
						c-9.8,3.5-21.7,3.3-21.7,3.3L165.1,210.8z"/>
					<path fill="#34BCAA" d="M37,212.5c0.3,0.1,0.5,0.2,0.8,0.3c9.8,3.5,21.7,3.3,21.7,3.3l1.3-5.4c0,0-10.4,2.1-20.2-0.4
						c-1.1-0.3-2.2-0.6-3.2-1C37.2,210.4,37.1,211.5,37,212.5z"/>
					<path fill="#1C8478" d="M54,243.1c9.7,0.1,19.4,0.4,29,0.7c4.8,0.2,9.7,0.4,14.5,0.6l14.5,0.7l14.5,0.8
						c4.8,0.3,9.7,0.6,14.5,0.9c9.7,0.6,19.3,1.4,28.9,2.3c-9.7-0.1-19.4-0.4-29-0.7c-4.8-0.2-9.7-0.4-14.5-0.6l-14.5-0.7l-14.5-0.8
						c-4.8-0.3-9.7-0.6-14.5-0.9C73.3,244.8,63.7,244,54,243.1z"/>
				</g>
				<g>
					<path fill="#FFC641" d="M181.3,175.7c-1.5,3.7-17.6,26.6-18.7,32c-1.1,5.3,8.6,6.4,8.6,6.4s22.5,7.4,29.1-3.6
						c6.6-11-9.2-32.7-9.2-32.7L181.3,175.7z"/>
					<path fill="#F5843C" d="M171.2,214.1c0,0,1.1,0.2,2.9,0.5c1.8,0.3,4.5,0.7,7.6,1c1.6,0.1,3.3,0.2,5,0.1c1.8,0,3.6-0.2,5.4-0.6
						c1.8-0.4,3.6-1.1,5-2.2c1.4-1.1,2.5-2.5,3.1-4.3c0.6-1.7,0.7-3.7,0.5-5.6c-0.2-1.9-0.6-3.9-1.1-5.7c-0.5-1.9-1.1-3.6-1.8-5.3
						c-0.7-1.7-1.3-3.2-2-4.7c-1.3-2.9-2.5-5.3-3.4-6.9c-0.9-1.7-1.4-2.6-1.4-2.6s0.8,0.8,1.9,2.2c1.2,1.5,2.8,3.6,4.5,6.4
						c0.9,1.4,1.8,2.9,2.6,4.6c0.8,1.7,1.7,3.5,2.3,5.4c0.7,2,1.3,4.1,1.5,6.3c0.2,2.2,0.2,4.6-0.6,7l-0.4,0.9l-0.1,0.2l-0.1,0.2
						l-0.2,0.4l-0.2,0.4l-0.1,0.2c-0.1,0.2,0,0.1-0.1,0.1l0,0l0,0l-0.1,0.1l-0.5,0.8c-0.8,1-1.6,1.9-2.6,2.5c-0.5,0.4-1,0.6-1.5,0.9
						c-0.5,0.2-1.1,0.5-1.6,0.7c-1.1,0.4-2.1,0.6-3.2,0.8c-2.1,0.4-4.2,0.3-6.1,0.2c-1.9-0.1-3.7-0.4-5.3-0.7
						c-3.2-0.7-5.8-1.5-7.5-2.2c-0.9-0.3-1.6-0.6-2-0.8C171.4,214.2,171.2,214.1,171.2,214.1z"/>
					<path fill="#FFC641" d="M172,212.8c-2.2,2.8-5.8,8.8-7.9,12.9c-0.3,0.6-0.8,1.3-1.5,1.2c-0.3,0-0.5-0.2-0.8-0.4
						c-3.1-2.5-4.1-6.4-2.8-10.2c-1.5,1.2-3.1,2.5-4.6,3.7c-0.3,0.2-0.6,0.5-1,0.5c-0.7-0.1-0.9-1-0.9-1.7c0.1-3.2,1.7-6.3,3.9-8.7
						c2.2-2.4,5.1-4.1,8.1-5.3L172,212.8z"/>
				</g>
				<path fill="#FFC641" d="M49.1,174.6c-1.7-0.8-3.1-1.6-3.8-2.4c-3.3-3.4-3.6-21.9-6.2-27.7c-2.5-5.8-8.9-0.1-8.9-0.1
					C13.4,153.7,4.4,169.6,7.3,179c3,9.7,20.1,16.8,41.8,11.5V174.6z"/>
				<path fill="#F5843C" d="M29.5,144.6c0,0-1.1,0.6-2.8,1.8c-1.8,1.2-4.3,3-7.1,5.4c-1.4,1.2-2.9,2.5-4.4,4.1c-1.5,1.5-3,3.2-4.4,5
					c-1.4,1.9-2.8,3.9-4,6.1c-1.2,2.2-2.1,4.7-2.5,7.4c-0.1,0.7-0.1,1.4-0.2,2c0,0.3,0,0.7,0,1l0,0.5l0,0.1l0,0.1l0,0l0,0.1l0,0.2
					l0.1,0.9c0,0.3,0.2,0.7,0.3,1.1c0.2,0.8,0.5,1.4,0.8,2c1.3,2.5,3.3,4.4,5.4,5.7c2.1,1.3,4.3,2.2,6.4,2.8c2.1,0.6,4.1,1,5.9,1.2
					c1.8,0.3,3.5,0.3,5,0.4c1.5,0.1,2.8,0,3.9,0c1.1,0,1.9-0.1,2.5-0.2c0.6-0.1,0.9-0.1,0.9-0.1s-1.2-0.1-3.3-0.5
					c-2.1-0.3-5.1-0.9-8.5-1.8c-1.7-0.5-3.6-1-5.4-1.8c-1.9-0.7-3.7-1.7-5.4-2.9c-0.8-0.6-1.6-1.3-2.3-2c-0.7-0.8-1.2-1.6-1.6-2.5
					c-0.2-0.5-0.4-0.9-0.5-1.3c-0.1-0.2-0.1-0.4-0.2-0.7L8,178l0-0.2l0-0.1l0,0c0,0,0,0.2,0,0.1l0-0.1l0-0.4c0-0.3,0-0.5,0-0.8
					c0.1-0.5,0-1,0.2-1.6c0.3-2.1,1.1-4.2,2-6.3c1-2,2.2-4,3.4-5.8c1.2-1.8,2.5-3.5,3.8-5.1c1.3-1.6,2.6-3.1,3.8-4.4
					c2.4-2.7,4.5-4.9,6-6.4C28.6,145.4,29.5,144.6,29.5,144.6z"/>
				<path fill="#FFC641" d="M38.5,137c-2.9-2.9-8-9.3-11-13.7c-0.4-0.7-1.1-1.4-1.9-1.2c-0.3,0.1-0.6,0.3-0.8,0.6
					c-3.2,3.4-3.7,8-1.8,12.2c-2-1.2-3.9-2.4-5.9-3.6c-0.4-0.2-0.8-0.5-1.2-0.4c-0.8,0.2-0.9,1.3-0.8,2.1c0.7,3.7,2.9,7.1,5.7,9.5
					c2.9,2.4,7.3,3.3,10.9,4.2L38.5,137z"/>
				<path fill="#FFC641" d="M30.5,142.5c0,0-1.4-6.2,5.5-7.2c9.2-1.4,10.3-4.7,11.5-3.9c1.2,0.8-0.9,10.4-4.5,12.7
					c-6.2,3.9-10.1,0.2-10.1,0.2L30.5,142.5z"/>
				<path fill="#F5843C" d="M29.6,141.2c0,0,0.1-4.5,3.7-6.4c4.7-2.5,6.8,3,6.8,3s-2.5-1.7-5.6-1.1
					C32.2,137.2,29.6,141.2,29.6,141.2z"/>
				<g>
					<path fill="#F5843C" d="M31.1,130.6c-0.8,0.9-1.5,1.8-2.2,2.7c-0.7,0.9-1.3,1.8-1.7,2.8c-0.4,1-0.6,2.1-0.8,3.2
						c-0.1,1.1-0.2,2.3-0.2,3.5c-0.5-1.1-0.8-2.3-0.8-3.5c0-1.2,0.1-2.4,0.6-3.6c0.5-1.2,1.3-2.2,2.1-3
						C28.9,131.7,30,131,31.1,130.6z"/>
				</g>
			</g>
		</g>
	</g>
	<g id="_x30__Stars_1_">
	</g>
</g>
<g id="_x34_th_Grade">
	<g id="_x33__Stars_1_">
	</g>
	<g id="_x32__Stars_1_">
	</g>
	<g id="_x31__Star_1_">
	</g>
	<g id="_x30__Stars_2_">
	</g>
</g>
<g id="_x33_rd_Grade">
	<g id="_x33__Stars">
	</g>
	<g id="_x32__Stars">
	</g>
	<g id="_x31__Star">
	</g>
	<g id="_x30__Stars">
	</g>
</g>
<g id="Labels">
</g>
</svg>
