<?xml version="1.0" encoding="utf-8"?>
<!-- Generator: Adobe Illustrator 21.1.0, SVG Export Plug-In . SVG Version: 6.00 Build 0)  -->
<svg version="1.1" xmlns="http://www.w3.org/2000/svg" xmlns:xlink="http://www.w3.org/1999/xlink" x="0px" y="0px"
	 viewBox="0 0 245.2 275" enable-background="new 0 0 245.2 275" xml:space="preserve" width="245.2" height="275" preserveAspectRatio="none">
<g id="_x35_th_Grade">
	<g id="_x33__Stars_2_">
	</g>
	<g id="_x32__Stars_2_">
	</g>
	<g id="_x31__Star_2_">
	</g>
	<g id="_x30__Stars_1_">
		<g>
			<defs>
				<rect id="SVGID_7_" x="-29.9" y="-22.8" width="275.1" height="297.8"/>
			</defs>
			<clipPath id="SVGID_2_">
				<use xlink:href="#SVGID_7_"  overflow="visible"/>
			</clipPath>
			<g clip-path="url(#SVGID_2_)">
				<path fill="#72B2C6" d="M63.8,272.5c0,0-2.2,3.7-1.9,8.9c0.2,5.1,1.3,8.4,2.4,8.9c1.1,0.4,8.4-10.3,8.4-10.3s-0.3-2.7-2.8-4.7
					C67.4,273.3,63.8,272.5,63.8,272.5z"/>
				<path fill="#FFC641" d="M258.1,166c0,0-1.1-7.6-17.4-18.5c-16.3-10.9-32.7-8.7-32.7-8.7s-11.9,1-24.7,20.6
					c-15.1,23.1-40.7,134.1,18.4,134.1c18.7,0,20.5,0,24.8,0c18.5,0,43.5-50.8,43.5-50.8s6.7-22.9,5.4-36.2
					C272.7,179,258.1,166,258.1,166z"/>
				<g>
					
						<ellipse transform="matrix(0.9194 -0.3934 0.3934 0.9194 -16.7128 79.5474)" fill="#72B2C6" cx="185.7" cy="80.5" rx="15.4" ry="26.8"/>
					<path fill="#0067AC" d="M181.5,83.8c0-3,0.2-5.9,0.9-8.8c0.5-2.3,1.2-4.9,2.5-6.9c0.3-0.4,0.5-0.7,0.9-1
						c0.3-0.3,0.7-0.6,1.1-0.8c-0.5,0.1-0.9,0.3-1.3,0.6c-0.4,0.3-0.7,0.6-1.1,0.9c-1.9,2-2.9,5-3.6,7.7c-0.7,2.7-1.1,5.6-1.2,8.4
						c0,0.5,0,0.9,0,1.4c0,1.5,0.2,3.1,0.3,4.6c1.4-3.7,4-6.9,7.2-9.2c3.2-2.2,7.2-3.5,11.1-3.5C192.1,76.3,185.5,78.8,181.5,83.8z"
						/>
					<path fill="#0067AC" d="M180.9,88.9c0,0,0.2,0.1,0.7,0.3c0.5,0.2,1.2,0.4,2,0.6c4.3,1,8.4,0.9,12.6-0.2
						c1.7-0.4,2.8-0.8,2.8-0.8s-1.1,0.5-2.8,1c-4.2,1.4-8.5,1.7-12.9,1c-0.9-0.2-1.6-0.3-2.1-0.5c-0.5-0.1-0.8-0.2-0.8-0.2
						L180.9,88.9z"/>
					<path fill="#0092A1" d="M168.4,89.2l10.8-7.9c0,0,2.7,0.3,5,4c2.3,3.7,1.3,5.6,1.3,5.6l-10.4,5.4L168.4,89.2z"/>
				</g>
				<path fill="#FFC641" d="M207.3,211.2c2.3-29.2,4.1-57,1.8-69.7c-0.2-0.9-0.3-1.9-0.5-2.8c-0.4,0-0.6,0.1-0.6,0.1
					s-2.7-13.1-6.5-20.7c-14.7-29.4-49-48.5-74.1-45.8c-25.1,2.7-14.2,30-14.2,30S59.9,75,44.6,206.9c-9.6,83.3,57.8,86.6,57.8,86.6
					s103.6-0.3,106.8-0.3c15.5,0,23.3-13.8,18.8-36.2C223.5,234.9,206,235.1,207.3,211.2z"/>
				<path fill="#FFED82" d="M210.1,293.5c-8.6-3.9-17.1-9.3-24-16.6c-21.8-23.4-10.9-153.7-10.9-153.7s-8.9,6.2-17.3,1.7
					c-9.6-5.3-8.3-7.8-13-13.5c-3.8-4.7-5.8-5.1-5.8-5.1h-8.3c0,0-4.3,14.6-15.8,16.5c-11.3,1.8-17-7.4-17-7.4
					s-38.8,71.1-33.9,119.5c2.2,21.5,5.6,37.5,8.7,48.6c14.7,9.3,29.4,10,29.4,10S174.6,293.5,210.1,293.5z"/>
				<path fill="#FFC641" d="M128.9,173c-49.6,0-65.3-5.6-65.9-5.9l0.5-1.3c0.2,0.1,16.2,5.8,65.5,5.8c51.2,0,61.2-5.2,61.3-5.3
					l0.7,1.2C190.5,167.8,180.7,173,128.9,173z"/>
				<path fill="#F5843C" d="M198.8,113.8c0,0,0.3,0.3,0.7,0.9c4.4,6,7.3,13,9.2,20.1c1.5,5.7,2.3,11.6,2.5,17.5
					c0,1.5,0.1,3.1,0.1,4.7c0.2,18.1-0.7,36.5-4,54.3c0,0,0-0.4,0-1.1c0-0.7-0.1-1.8-0.1-3.2c-0.1-9.1-0.1-18.1,0-27.2
					c0.2-18.5,1.4-37.8-4.3-55.6c-1-3.2-2.2-6.3-3.6-9.3C199,114.2,198.8,113.8,198.8,113.8z"/>
				<path fill="#FFC641" d="M122.3,199c-38.8,0-59.9-7.7-60.2-7.8l0.5-1.3c0.4,0.2,42.7,15.5,117.9,2.5l0.2,1.3
					C158.3,197.6,138.7,199,122.3,199z"/>
				<path fill="#FFC641" d="M117.7,226.6c-10.9,0-22-0.7-32.5-2.2c-19.9-3-28.7-7.9-29-8.1l0.7-1.2c0.1,0,9,5,28.7,7.9
					c32.9,4.9,70.1,0.7,95.5-3.8l0.2,1.3C163.9,223.7,141,226.6,117.7,226.6z"/>
				<path fill="#FFC641" d="M114.3,257.6c-9.4,0-17.6-0.6-24.4-1.4c-21.4-2.5-33.9-7.5-34-7.6l0.5-1.2c0.1,0.1,12.5,5,33.7,7.5
					c19.6,2.3,50.9,2.8,89-7.5l0.4,1.3C154.3,255.4,132.1,257.6,114.3,257.6z"/>
				<g>
					
						<ellipse transform="matrix(0.8628 -0.5056 0.5056 0.8628 -6.9073 54.5654)" fill="#FFC641" cx="97.1" cy="40" rx="5.5" ry="10.9"/>
					<path fill="#FFC641" d="M121.6,75.6c0,0-2.5-18.7-11.8-31.7c-9.2-12.9-15.4-13.5-15.4-13.5l6.8,19.4c0,0,2.5-1.1,5.1,0.6
						c10.7,7,11.8,25.8,11.8,25.8L121.6,75.6z"/>
					<path fill="#F5843C" d="M100.9,38.6c1.9,3.7,1.3,8.6-0.1,9.4c-1.4,0.8-4.3-1.4-6.3-4.9c-2.1-3.5-3.1-8.5-1.7-9.3
						C94.3,33,98.3,33.4,100.9,38.6z"/>
				</g>
				<path fill="#72B2C6" d="M152.2,59.8c-11.9-1.1-15.2,6.1-15.2,6.1s-27.2-16.4-33.5,7.6c-2.1,7.9,8,20.5,8,20.5s-0.3-4-0.1-8.4
					c0-0.3,0-0.7,0.1-1.1c0.8,0,3.2-3.5,11.8-7.7c6.5-3.2,13.6-4.1,13.6-4.1s8,0.5,14.7,4.2c3.8,2.1,13.1,10.6,18.5,14.9
					c4.7,3.7,12.9,2,12.9,2S176.2,61.9,152.2,59.8z"/>
				<path fill="#0067AC" d="M183,93.7c-0.9-2.9-2-5.8-3.2-8.5c-1.2-2.8-2.7-5.4-4.3-8c-3.2-5.1-7.3-9.7-12.3-12.9
					c-2.5-1.6-5.3-2.8-8.2-3.5c-2.9-0.7-5.9-1.1-8.8-0.6c-2.9,0.5-5.6,1.9-7.7,4.1c-2.1,2.1-3.6,4.9-4.5,7.8c0.6-3,2-5.8,4.1-8.1
					c2-2.3,4.9-4,8-4.6c3.1-0.6,6.3-0.3,9.3,0.3c3,0.7,5.9,1.9,8.6,3.5c5.3,3.3,9.4,8.1,12.6,13.4C179.5,82,181.7,87.8,183,93.7z"/>
				<path fill="#0067AC" d="M105.7,76.6c0.2-1.4,0.7-2.9,1.3-4.2c0.6-1.3,1.4-2.6,2.4-3.7c1-1.1,2.2-2.1,3.5-2.8
					c1.3-0.7,2.8-1.1,4.3-1.3c3-0.4,6-0.1,8.9,0.7c1.4,0.4,2.8,1,4.2,1.6c1.3,0.7,2.6,1.4,3.8,2.4l1.5,1.2l-1.9-0.4
					c-1.8-0.4-3.7-0.6-5.6-0.7c-1.9-0.1-3.8,0-5.6,0.4c-1.8,0.5-3.4,1.5-4.9,2.6c-1.5,1.2-2.8,2.6-3.9,4.1c1-1.6,2.2-3.1,3.7-4.4
					c1.4-1.3,3.1-2.4,5-3c1.9-0.6,3.8-0.7,5.8-0.7c1.9,0,3.9,0.2,5.8,0.6l-0.4,0.8c-2.2-1.7-4.9-3-7.6-3.8c-2.7-0.8-5.6-1.1-8.5-0.8
					c-1.4,0.1-2.8,0.5-4.1,1.1c-1.3,0.6-2.5,1.5-3.4,2.5C107.8,71.1,106.4,73.8,105.7,76.6z"/>
				<path fill="#0067AC" d="M173.1,81.3c-1.7-3.1-3.9-5.9-6.5-8.3c-2.6-2.4-5.6-4.3-8.9-5.3c-3.3-1-6.9-1.3-10.2-0.3
					c-3.3,0.9-6.7,2.2-8.9,4.8l-0.5-0.8c3.1-0.3,7.1-0.3,10.2,0.3c2.7,0.6,5.8,1.8,8.6,3.4c2.7,1.7,5,3.7,7.2,6
					c2.1,2.3,4,4.7,5.7,7.4c-1.8-2.5-3.8-4.9-6-7c-2.2-2.2-4.6-4.2-7.2-5.7c-2.7-1.4-5.4-2.6-8.5-2.9c-3-0.3-6.8-0.8-9.8-0.4
					l-1.2,0.1l0.7-0.9c1.1-1.5,2.1-1.8,3.6-2.8c1.5-1,4-1.8,5.7-2.3c3.5-1,7.3-0.7,10.7,0.4c3.4,1.2,6.5,3.2,9,5.7
					c1.3,1.3,2.4,2.6,3.4,4.1C171.4,78.2,172.3,79.7,173.1,81.3z"/>
				<g>
					
						<ellipse transform="matrix(0.9831 -0.1831 0.1831 0.9831 -1.4359 25.4376)" fill="#FFC641" cx="137" cy="20.5" rx="6" ry="11.8"/>
					<g>
						<path fill="#FFC641" d="M148.7,65.2c0,0,4.6-19.3-0.1-36c-4.7-16.6-10.8-19.5-10.8-19.5l-0.2,22.4c0,0,2.9-0.2,5,2.5
							c8.4,11.1,2.4,31.7,2.4,31.7L148.7,65.2z"/>
						<path fill="#F5843C" d="M141.5,20.5c0.6,4.4-1.8,9.3-3.6,9.6c-1.8,0.3-3.8-3-4.7-7.3c-0.8-4.4-0.1-9.8,1.7-10.1
							C136.7,12.3,140.7,14.2,141.5,20.5z"/>
					</g>
				</g>
				<path fill="#72B2C6" d="M184,275c0,0-2.2,3.7-1.9,8.9c0.2,5.1,1.3,8.4,2.4,8.9c1.1,0.4,8.4-10.3,8.4-10.3s-0.3-2.7-2.8-4.7
					C187.6,275.8,184,275,184,275z"/>
				<g>
					<g>
						<path fill="#410025" d="M125.6,67.9c0,0-0.6,1.1-1.2,2.8c-0.3,0.9-0.6,1.9-0.8,3c-0.7,3.4,0.1,6.8,1.4,9.9
							c0.3,0.8,0.7,1.5,0.9,2c0.1,0.2,0.2,0.4,0.3,0.5c0.1,0.1,0.1,0.2,0.1,0.2l-1.2,0.7c0,0,0-0.1-0.1-0.2
							c-0.1-0.1-0.2-0.3-0.3-0.6c-0.2-0.5-0.5-1.2-0.8-2.1c-1.1-3.3-1.6-6.9-0.7-10.4c0.3-1.1,0.7-2.1,1.1-3
							C124.9,68.9,125.6,67.9,125.6,67.9z"/>
						<path fill="#410025" d="M132.1,65.8c0,0-0.8,0.9-1.7,2.5c-0.5,0.8-1,1.7-1.4,2.8c-1.3,3.2-1.1,6.7-0.4,10
							c0.2,0.9,0.4,1.6,0.5,2.1c0.1,0.2,0.1,0.4,0.2,0.6c0,0.1,0.1,0.2,0.1,0.2l-1.3,0.5c0,0,0-0.1-0.1-0.2c0-0.1-0.1-0.4-0.2-0.6
							c-0.1-0.5-0.3-1.3-0.4-2.2c-0.5-3.5-0.4-7.1,1.1-10.4c0.5-1.1,1.1-2,1.6-2.7C131.2,66.7,132.1,65.8,132.1,65.8z"/>
						<path fill="#410025" d="M136.3,68.9c0,0-0.8,0.9-1.7,2.5c-0.5,0.8-1,1.7-1.4,2.8c-1.3,3.2-1.1,6.7-0.4,10
							c0.2,0.9,0.4,1.6,0.5,2.1c0.1,0.2,0.1,0.4,0.2,0.6c0,0.1,0.1,0.2,0.1,0.2l-1.3,0.5c0,0,0-0.1-0.1-0.2c0-0.1-0.1-0.4-0.2-0.6
							c-0.1-0.5-0.3-1.3-0.4-2.2c-0.1-0.9-0.2-2-0.2-3.2c0-2.5,0.3-4.9,1.4-7.2c0.5-1.1,1.1-2,1.6-2.8
							C135.5,69.8,136.3,68.9,136.3,68.9z"/>
						<path fill="#410025" d="M148.7,69.6c0,0-0.6,1.1-1.2,2.8c-0.3,0.9-0.6,1.9-0.8,3c-0.7,3.4,0.1,6.8,1.4,9.9
							c0.3,0.8,0.7,1.5,0.9,2c0.1,0.2,0.2,0.4,0.3,0.5c0.1,0.1,0.1,0.2,0.1,0.2l-1.2,0.7c0,0,0-0.1-0.1-0.2
							c-0.1-0.1-0.2-0.3-0.3-0.6c-0.2-0.5-0.5-1.2-0.8-2.1c-1.1-3.3-1.6-6.9-0.7-10.4c0.3-1.1,0.7-2.1,1.1-3
							C148,70.6,148.7,69.6,148.7,69.6z"/>
						<path fill="#410025" d="M155.2,68c0,0-0.8,0.9-1.7,2.5c-0.5,0.8-1,1.7-1.4,2.8c-1.3,3.2-1.1,6.7-0.4,10
							c0.2,0.9,0.4,1.6,0.5,2.1c0.1,0.2,0.1,0.4,0.2,0.6c0,0.1,0.1,0.2,0.1,0.2l-1.3,0.5c0,0,0-0.1-0.1-0.2c0-0.1-0.1-0.4-0.2-0.6
							c-0.1-0.5-0.3-1.3-0.4-2.2c-0.5-3.5-0.4-7.1,1.1-10.4c0.5-1.1,1.1-2,1.6-2.8C154.3,68.9,155.2,68,155.2,68z"/>
						<path fill="#410025" d="M159.5,71.1c0,0-0.8,0.9-1.7,2.5c-2.3,4-2.7,8.3-1.8,12.8c0.2,0.9,0.4,1.6,0.5,2.1
							c0.1,0.2,0.1,0.4,0.2,0.6c0,0.1,0.1,0.2,0.1,0.2l-1.3,0.5c0,0,0-0.1-0.1-0.2c0-0.1-0.1-0.4-0.2-0.6c-0.1-0.5-0.3-1.3-0.4-2.2
							c-0.5-3.5-0.4-7.1,1.1-10.4c0.5-1.1,1.1-2,1.6-2.7C158.7,72,159.5,71.1,159.5,71.1z"/>
					</g>
					<ellipse fill="#FFFFFF" cx="129.9" cy="91.9" rx="7.9" ry="9.8"/>
					<ellipse fill="#FFFFFF" cx="151.9" cy="91.9" rx="7.9" ry="9.8"/>
					<ellipse fill="#410025" cx="131.3" cy="95" rx="3.4" ry="4.3"/>
					<ellipse fill="#410025" cx="152.3" cy="95" rx="3.4" ry="4.3"/>
				</g>
				<g>
					<path fill="#410025" d="M145.8,104c-0.8-2.2-2.8-5.7-4.6-5.8c-2-0.1-3.9,2.8-4.5,3.9l-1.2-0.6c0.1-0.2,2.6-4.8,5.8-4.6
						c3.2,0.1,5.5,6,5.8,6.6L145.8,104z"/>
					<g>
						<ellipse fill="#8ED5F6" cx="129.1" cy="103.8" rx="8.8" ry="6.2"/>
						<path fill="#410025" d="M129.1,110.6c-5.2,0-9.5-3.1-9.5-6.9c0-3.8,4.3-6.9,9.5-6.9c5.2,0,9.5,3.1,9.5,6.9
							C138.6,107.5,134.4,110.6,129.1,110.6z M129.1,98.2c-4.5,0-8.2,2.5-8.2,5.5c0,3,3.7,5.5,8.2,5.5c4.5,0,8.2-2.5,8.2-5.5
							C137.3,100.7,133.6,98.2,129.1,98.2z"/>
					</g>
					<g>
						<ellipse fill="#8ED5F6" cx="153.8" cy="103.8" rx="9.2" ry="6.2"/>
						<path fill="#410025" d="M153.8,110.6c-5.4,0-9.9-3.1-9.9-6.9c0-3.8,4.4-6.9,9.9-6.9c5.4,0,9.9,3.1,9.9,6.9
							C163.6,107.5,159.2,110.6,153.8,110.6z M153.8,98.2c-4.7,0-8.5,2.5-8.5,5.5c0,3,3.8,5.5,8.5,5.5s8.5-2.5,8.5-5.5
							C162.3,100.7,158.5,98.2,153.8,98.2z"/>
					</g>
					<circle fill="#410025" cx="164.6" cy="103.9" r="1.7"/>
					<circle fill="#410025" cx="118.6" cy="103.9" r="1.7"/>
				</g>
				<g>
					<path fill="#72B2C6" d="M148.7,117.9c0,0-0.4-6.4-4.5-10.7c-4.1-4.3-8-4-8-4s-5,2.3-6.8,6c-2.6,5.3-0.5,12.4,0.1,11.7
						c0.1-0.1,4.7-0.9,4.7-0.9s0.3,1.9,2.1,4c0.8,0.9,3.7,3.4,7.6,0.7C147.9,122.1,148.7,117.9,148.7,117.9z"/>
					
						<ellipse transform="matrix(0.3741 -0.9274 0.9274 0.3741 -16.1638 206.7159)" fill="#0067AC" cx="145.1" cy="115.3" rx="0.8" ry="0.8"/>
				</g>
				<path fill="#0067AC" d="M129.3,120.9c0,0,3,0.4,8.2-1.1c5.2-1.5,7.1-4.2,7.1-4.2s-3.1,1.8-7.6,3.2
					C134.4,119.7,129.3,120.9,129.3,120.9z"/>
				<g>
					<path fill="#34BCAA" d="M59.7,139.7c0,0,6.9,12.4,11.3,26.9c3,10,6,22.3,6,22.3h71c0,0,17.4-20.1,30.8-30.2
						c13.4-10.1,31.9-14.1,31.9-14.1v8.9c0,0-39.8,13.9-31.3,79.5c2.8,21.9,7.8,30.2,7.8,30.2l-133.2-7c0,0,7.2-28.8,9.2-52.3
						s-7.7-52.9-7.7-52.9L59.7,139.7z"/>
					<path fill="#34BCAA" d="M172.3,209.7c0,0,10.4,2.1,20.2-0.4c9.8-2.5,16.2-8.1,16.2-8.1l-0.2,1.9c0,0-3.4,5.2-13.2,8.7
						c-9.8,3.5-21.7,3.3-21.7,3.3L172.3,209.7z"/>
					<path fill="#34BCAA" d="M44.2,211.4c0.3,0.1,0.5,0.2,0.8,0.3c9.8,3.5,21.7,3.3,21.7,3.3l1.3-5.4c0,0-10.4,2.1-20.2-0.4
						c-1.1-0.3-2.2-0.6-3.2-1C44.4,209.3,44.3,210.4,44.2,211.4z"/>
					<path fill="#1C8478" d="M61.2,242c9.7,0.1,19.4,0.4,29,0.7c4.8,0.2,9.7,0.4,14.5,0.6l14.5,0.7l14.5,0.8
						c4.8,0.3,9.7,0.6,14.5,0.9c9.7,0.6,19.3,1.4,28.9,2.3c-9.7-0.1-19.4-0.4-29-0.7c-4.8-0.2-9.7-0.4-14.5-0.6l-14.5-0.7l-14.5-0.8
						c-4.8-0.3-9.7-0.6-14.5-0.9C80.5,243.7,70.8,242.9,61.2,242z"/>
				</g>
				<path fill="#FFC641" d="M177.4,191.4c0,0-3.2-0.9-6.8-1.1c-3.6-0.2-6.8,1.9-7,2.4c-0.2,0.6,9.4,4.3,9.4,4.3L177.4,191.4z"/>
				<g>
					<path fill="#FFC641" d="M194.9,171.7c-0.7,1.9-4.7,15.2-4.7,15.2s-16.2,4-16.7,5.3c-2.2,5,3.4,13.4,3.4,13.4
						s29.5,10.5,35.4-0.9c5.9-11.4-11.2-32.1-11.2-32.1L194.9,171.7z"/>
					<path fill="#FFC641" d="M182.7,198.7c-2,2.9-5.3,9.1-7.1,13.4c-0.3,0.6-0.7,1.3-1.4,1.3c-0.3,0-0.5-0.2-0.8-0.4
						c-3.2-2.3-4.5-6.2-3.5-10c-1.5,1.3-2.9,2.6-4.4,4c-0.3,0.3-0.6,0.5-1,0.5c-0.7,0-1-0.9-1-1.7c-0.1-3.2,1.3-6.4,3.3-9
						c3.3-4.3,5.4-4.9,8.2-5.2L182.7,198.7z"/>
				</g>
				<g>
					<path fill="#F5843C" d="M176.9,205.5c5.9,1.4,11.9,2.6,17.9,3.1c3,0.2,6,0.3,8.8-0.2c2.8-0.5,5.6-1.5,7-3.6
						c0.7-1,1.2-2.3,1.4-3.7c0.2-1.3,0.2-2.8,0.1-4.2c-0.3-2.9-1.2-5.7-2.3-8.5c-2.3-5.5-5.3-10.8-8.7-15.9
						c4.2,4.4,7.9,9.5,10.6,15.1c1.4,2.8,2.4,5.8,2.9,9c0.4,3.2,0.2,6.7-1.8,9.7c-1.1,1.5-2.5,2.5-4.1,3.2c-1.5,0.7-3.2,1.1-4.8,1.3
						c-1.6,0.2-3.2,0.3-4.8,0.2c-1.6,0-3.1-0.2-4.7-0.4C188.4,209.8,182.5,208,176.9,205.5z"/>
				</g>
				<path fill="#FFC641" d="M54.6,164.8c-2.4,0.5-4.5,0.8-5.8,0.5c-4-0.8-13.3-13.8-17.9-16.6c-4.6-2.9-6.3,4.3-6.3,4.3
					c-7.4,14.8-5.9,30.5,0.7,35.7c5.8,4.6,17.9,2.9,29.3-6.5V164.8z"/>
				<path fill="#F5843C" d="M24.1,153.5c0,0-0.5,0.9-1.1,2.7c-0.7,1.7-1.6,4.2-2.4,7.3c-0.4,1.5-0.8,3.2-1.1,5
					c-0.3,1.8-0.6,3.7-0.7,5.7c-0.1,2-0.1,4.1,0.2,6.3c0.3,2.2,0.8,4.4,1.8,6.5c0.2,0.5,0.6,1,0.9,1.5c0.2,0.2,0.3,0.5,0.5,0.7
					l0.3,0.4l0.1,0.1l0.1,0.1l0,0l0,0l0.1,0.1l0.5,0.6c0.2,0.2,0.5,0.4,0.7,0.6c0.5,0.5,1,0.7,1.5,1.1c2.1,1.2,4.5,1.5,6.6,1.4
					c2.1-0.1,4.1-0.6,5.9-1.2c1.8-0.6,3.4-1.3,4.8-2c1.4-0.7,2.7-1.5,3.8-2.2c1.1-0.7,2-1.4,2.7-1.9c0.7-0.6,1.3-1,1.7-1.3
					c0.4-0.3,0.6-0.5,0.6-0.5s-0.9,0.5-2.6,1.3c-1.6,0.8-4,1.9-6.9,2.9c-1.4,0.5-3,1-4.7,1.4c-1.7,0.4-3.5,0.6-5.2,0.6
					c-0.9,0-1.8-0.1-2.6-0.3c-0.8-0.2-1.6-0.5-2.4-1c-0.3-0.2-0.7-0.5-1-0.7c-0.1-0.1-0.3-0.2-0.5-0.4l-0.5-0.6l-0.1-0.1l0,0l0,0
					c0,0,0.1,0.1,0.1,0.1l0-0.1l-0.2-0.3c-0.1-0.2-0.3-0.4-0.4-0.5c-0.2-0.4-0.5-0.8-0.7-1.2c-0.8-1.7-1.3-3.5-1.6-5.4
					c-0.3-1.9-0.4-3.9-0.4-5.8c0-1.9,0.1-3.7,0.2-5.5c0.1-1.8,0.3-3.4,0.5-5c0.4-3.1,0.8-5.6,1.1-7.5
					C24,154.5,24.1,153.5,24.1,153.5z"/>
				<path fill="#FFC641" d="M29.2,156.1c-5.3-0.9-7-0.7-11.3-3.5c-3.8-2.5-4.5-7.4,0.3-8.3c-2.3-0.9-5.8-3.3-8.1-4.2
					c-0.4-0.2-0.9-0.4-1.1-0.8c-0.4-0.8,0.5-1.6,1.3-2c3.6-1.8,7.9-2,11.8-1c3.9,1,11.4,3.5,13.1,18L29.2,156.1z"/>
				<g>
					<path fill="#F5843C" d="M26.3,139.7c-1,0.8-1.6,1.8-2.2,2.8c-0.5,1-0.9,2.1-1.1,3.3c-0.2,1.1-0.2,2.2-0.2,3.4
						c0.1,1.1,0.3,2.3,0.6,3.3l-1.3-0.5c0.7-0.3,1.3-0.6,2-0.9c0.7-0.3,1.3-0.6,2-0.8c1.4-0.5,2.8-1,4.2-1.4
						c-1.2,0.9-2.4,1.8-3.6,2.5c-0.6,0.4-1.2,0.8-1.9,1.2c-0.6,0.4-1.3,0.7-1.9,1.1c-0.4,0.2-1,0.1-1.2-0.3l0-0.1l0-0.1
						c-0.6-1.3-0.8-2.5-0.9-3.9c-0.1-1.3,0-2.7,0.4-3.9c0.2-0.6,0.4-1.3,0.8-1.8c0.3-0.6,0.7-1.1,1.1-1.6
						C23.9,140.8,25,140,26.3,139.7z"/>
				</g>
			</g>
		</g>
	</g>
</g>
<g id="_x34_th_Grade">
	<g id="_x33__Stars_1_">
	</g>
	<g id="_x32__Stars_1_">
	</g>
	<g id="_x31__Star_1_">
	</g>
	<g id="_x30__Stars_2_">
	</g>
</g>
<g id="_x33_rd_Grade">
	<g id="_x33__Stars">
	</g>
	<g id="_x32__Stars">
	</g>
	<g id="_x31__Star">
	</g>
	<g id="_x30__Stars">
	</g>
</g>
<g id="Labels">
</g>
</svg>
