<?xml version="1.0" encoding="utf-8"?>
<!-- Generator: Adobe Illustrator 19.2.0, SVG Export Plug-In . SVG Version: 6.00 Build 0)  -->
<!DOCTYPE svg PUBLIC "-//W3C//DTD SVG 1.1//EN" "http://www.w3.org/Graphics/SVG/1.1/DTD/svg11.dtd">
<svg version="1.1" xmlns="http://www.w3.org/2000/svg" xmlns:xlink="http://www.w3.org/1999/xlink" x="0px" y="0px"
	 viewBox="0 0 266.4 284.8" enable-background="new 0 0 266.4 284.8" xml:space="preserve" width="266.4" height="284.8" preserveAspectRatio="none">
<g id="BG">
</g>
<g id="Sunburt_Blue">
</g>
<g id="Results_Small_Rectangle">
</g>
<g id="Sunburst_Yellow">
</g>
<g id="Stars">
</g>
<g id="Submit_Button_1_">
</g>
<g id="Top_Tab">
</g>
<g id="Header">
</g>
<g id="Header_Buttons">
</g>
<g id="Title">
</g>
<g id="_x33_star">
</g>
<g id="_x32_star">
</g>
<g id="_x31_star">
	<g>
		<defs>
			<rect id="SVGID_45_" x="-57.5" y="-65.2" width="323.9" height="350"/>
		</defs>
		<clipPath id="SVGID_1_">
			<use xlink:href="#SVGID_45_"  overflow="visible"/>
		</clipPath>
		<g clip-path="url(#SVGID_1_)">
			<defs>
				<rect id="SVGID_47_" x="-57.5" y="-65.2" width="323.9" height="350"/>
			</defs>
			<clipPath id="SVGID_2_">
				<use xlink:href="#SVGID_47_"  overflow="visible"/>
			</clipPath>
			<g clip-path="url(#SVGID_2_)">
				<g>
					<path fill="#93AC28" d="M166.1,255.7c0,0,1.4,9.9,2.9,24.5c1.5,14.6,0,20,0,20h-23.9c0,0,5.4-8.5,10.8-25.4
						c3.8-11.9,1.5-19.2,1.5-19.2H166.1z"/>
				</g>
				<g>
					<path fill="#93AC28" d="M116.8,255.7c0,0-1.5,9.9-3.1,24.5c-1.5,14.6,0,20,0,20h23.9c0,0-5.4-8.5-10.8-25.4
						c-3.8-11.9-1.9-19.5-1.9-19.5L116.8,255.7z"/>
				</g>
				<g>
					<path fill="#48C7F4" d="M224.4,197.4c0,0,40.6,13.4,32.3,46.4c-8.2,32.6-51.6,20.5-51.6,20.5l-0.2-5.7c0,0,24.3-6.1,16.5-20.3
						c-5.3-9.6-21.1-13.4-21.1-13.4L224.4,197.4z"/>
					<path fill="#48C7F4" d="M214.6,255.7c0,0-2.9,1.6-4.8,1c-4.7-1.3-11.5-5.1-12.6-2.4c-1.6,3.7,8.8,5.9,8.8,5.9s-11.8,9-8.8,13.2
						c2.5,3.5,9.5-7.5,9.5-7.5s-7.6,13.5-2.3,15.3c3,1,6-11.5,6-11.5s0.4,11,3.6,9.4c4.5-2.2-1.4-12.4-1.4-12.4s2.9,0.7,4.8-2
						c1.4-1.9,0.8-4.4,0.8-4.4L214.6,255.7z"/>
				</g>
				<g>
					<path fill="#48C7F4" d="M63,229.2c0,0-40.2,14.7-54.2-16.3c-13.8-30.7,27.7-48.1,27.7-48.1l3.7,4.4c0,0-15.3,19.9-0.3,26.2
						c10.1,4.2,24.5,2.7,24.5,2.7L63,229.2z"/>
				</g>
				<path fill="#48C7F4" d="M14.2,145.7c3.6-4.1,24.1,11.6,24.1,11.6S38.1,146,42.2,146c4.1,0,7,11.6,1.4,18.2
					c-6.1,7.1-3.4,12.3-13.1,10.5c-6.6-1.2-12.1-6.7-10-9c2.1-2.2,3.7-1.6,3.7-1.6s-3.1-2-2.4-4.7c0.8-3.2,6.1-1.5,6.1-1.5
					S10.6,149.8,14.2,145.7z"/>
				<path fill="#007FC2" d="M35.5,162.1c-0.8-1-1.8-1.6-2.8-2.2c-1-0.6-2.1-1-3.1-1.3c1.6,1.5,3.4,3,4.4,4.7
					c0.5,0.9,0.3,1.2-0.2,1.5c-0.5,0.4-1.5,0.8-2.4,0.9l-3.4,0.4l2.9,2c0.6,0.4,1.1,1.2,1.2,1.8c0.2,0.7,0,1.7-0.4,2.3
					c-0.4,0.6-1.3,1-2.3,1.1c-1,0.1-2.2,0.1-3.3,0c1,0.6,2.1,1,3.3,1.2c1.2,0.2,2.7,0.1,3.8-1c1.1-1.1,1.5-2.5,1.4-4
					c-0.1-0.7-0.3-1.4-0.7-1.9c0.5-0.2,1-0.6,1.5-1c0.1-0.1,0.3-0.3,0.4-0.5c0.1-0.2,0.3-0.5,0.3-0.6l0.1-0.2
					c0.1-0.2,0.1-0.3,0.1-0.4c0.1-0.2,0.1-0.5,0.1-0.7C36.3,163.3,35.9,162.6,35.5,162.1z"/>
				<path fill="#00313B" d="M97.3,65.6c0,0,4.5,1.6,4.5,9.1c0,7.5-4.5,10.4-4.5,10.4s-29.2,2.4-31.7-19.5
					c-2.4-21.9,12.2-31.7,12.2-31.7s-0.7,13,5.4,21.6C89.3,64,97.3,65.6,97.3,65.6"/>
				<path fill="#00313B" d="M98.8,93.9c1.9,3.5,7.8,11.2,6.9,32.7c-0.6,14.7-14.6,43.1-14.6,43.1l74.1,21.5c0,0,8.7-78.1,10.1-89.6
					C155.7,87.8,116.1,85.8,98.8,93.9z"/>
				<path fill="#FFFFFF" d="M141.3,88.4c-1.2-0.2-2.4-0.5-3.6-0.7c-2.2-0.4-4.3-0.7-6.5-0.8c-4.2-0.3-8.5,0.1-12.7,1
					c-4.3,0.9-8.1,2.7-12.1,4.3c-3,1.2-5.9,2.5-8.8,3.8c0,0,13.1,14.1,15.3,13.9c1.1-0.1,2-5,2.6-9.6c4.5-1,15-2.5,30.3,0.1
					c1.9,4.7,3.9,9.1,5.1,9.5c2.6,0.9,13.8-16.4,13.8-16.4C156.8,91.8,149.1,89.9,141.3,88.4z"/>
				<path fill="#CC4284" d="M111.2,163.5c0,0,4.5-16.7,33.5-18.9c29-2.2,50.4,23.9,50.4,23.9s-41.5,58.7-45.4,55.1
					C145.7,220,111.2,163.5,111.2,163.5z"/>
				<path fill="#FFFFFF" d="M155.1,152.9c-1.4-0.3-4.6,4.2-7.4,8.7c-3.5-1.5-7.5-3-12-4.3c-20-5.9-31.8-3.2-31.8-3.2l51.4,30.5
					l10.2-11C165.5,173.6,157.4,153.5,155.1,152.9z"/>
				<path fill="#48C7F4" d="M174.3,64.1c10.2,5.2,25.8,19.1,33,56.9c4.7,24.7,4.6,89.9,4.6,89.9s-43.7,39-85.5,38.9
					c-41.8-0.1-64.6-51.2-64.6-51.2s-7.3-8-7-24.4c0.3-16.3,6.6-26.1,6.6-26.1s3.6-5.3,33.3-1.3c31.9,4.3,60,32.3,60,32.3
					s40-73.5-22.6-88.3c-16.9-4-48.4,15.3-48.4,15.3l11.9-55.8C123.2,44.4,168.7,61.3,174.3,64.1z"/>
				<path fill="#007FC2" d="M75.8,159c3.6-0.3,7.2-0.2,10.8,0.1c3.6,0.4,7.2,1,10.7,2c7,1.9,13.9,5.3,19.2,10.5l2.7,2.7
					c-6.1-0.7-12.7-1.3-18.5,1.3c-1.7,0.8-3.3,1.9-4.3,3.4c-0.9,1.4-1.4,3-1.5,4.7c-0.2,2.9,0.4,5.7,1.3,8.4c0.9,2.6,1.9,5,3.1,7.5
					c-2.1-3.3-4.3-6.6-5.4-10.4c-1.1-3.7-1.2-8,0.9-11.4c3.1-5.2,9.6-6.5,15.2-6.8c1.9-0.1-6.6-5.8-13.3-8c-3.3-1.1-6.8-2-10.3-2.6
					C82.9,159.7,79.4,159.2,75.8,159z"/>
				<g>
					<path fill="#007FC2" d="M126.1,71.5c-0.7,8.8-7,15.5-14,15c-7-0.6-12.1-8.2-11.4-17c0.7-8.8,7-15.5,14-15
						C121.7,55,126.8,62.7,126.1,71.5"/>
					<path fill="#FFFFFF" d="M124.8,69.1c-0.6,7.6-6.1,13.3-12.4,12.8c-6.2-0.5-10.7-7.1-10.1-14.7c0.6-7.6,6.1-13.3,12.3-12.8
						C120.9,55,125.4,61.5,124.8,69.1"/>
					<path fill="#00313B" d="M118.2,70.8c-0.3,3.7-2.8,6.5-5.6,6.2c-2.8-0.2-4.9-3.4-4.6-7.1c0.3-3.7,2.8-6.5,5.6-6.2
						C116.5,64,118.5,67.2,118.2,70.8"/>
					<path fill="#007FC2" d="M150,68.4c1.4,8.7-3,16.8-10,17.9c-6.9,1.2-13.7-5-15.2-13.7c-1.4-8.7,3-16.8,10-17.9
						C141.8,53.5,148.6,59.6,150,68.4"/>
					<path fill="#FFFFFF" d="M148.2,66.4c1.2,7.5-2.7,14.4-8.9,15.5c-6.1,1-12.1-4.2-13.4-11.8c-1.2-7.5,2.7-14.4,8.9-15.5
						C141,53.6,147,58.9,148.2,66.4"/>
					<path fill="#00313B" d="M142.1,69.1c0.6,3.6-1.2,6.9-4,7.4c-2.8,0.5-5.5-2.1-6.1-5.7c-0.6-3.6,1.2-6.9,4-7.4
						C138.7,62.9,141.5,65.5,142.1,69.1"/>
				</g>
				<g>
					<polygon fill="#93AC28" points="91.6,61.5 97.6,21.6 129.9,6.2 165.3,23.5 172.5,62.7 					"/>
					<polygon fill="#603001" points="91.6,61.5 172.5,62.7 169.1,44.1 94.2,44.1 					"/>
					<path fill="#93AC28" d="M214.2,65.9H50.5v-12c0,0,21.5,6,81.9,6c60.4,0,81.9-6,81.9-6V65.9z"/>
					<path fill="#55690E" d="M134.5,14.2c0,0,0.4,2.1,1.3,4.8c0.2,0.7,0.5,1.4,0.8,2.1c0.3,0.7,0.8,1.3,1.2,1.9
						c0.8,0.8,1.6,1.1,2.8,1.1c3.8,0,7.7,0.1,11.5,0.7c2.8,0.4,4.7,0.9,4.7,0.9s-1.9,0.5-4.7,0.9c-2.3,0.3-4.6,0.6-6.9,0.7
						c-1.2,0.1-2.3,0.1-3.5,0c-1,0-2.2,0-3.1-0.4c-1.2-0.4-2.1-1.3-2.8-2.2c-1.2-1.9-1.5-3.8-1.7-5.4
						C133.9,16.2,134.5,14.2,134.5,14.2"/>
					<path fill="#55690E" d="M124.8,14.2c0,0,0.6,2,0.4,5.2c-0.1,1.6-0.5,3.5-1.7,5.4c-0.7,0.9-1.6,1.9-2.8,2.2
						c-2.2,0.6-4.6,0.4-6.9,0.3c-2.2-0.1-4.4-0.3-6.6-0.6c-2.8-0.4-4.7-0.9-4.7-0.9s1.9-0.6,4.7-0.9c2.2-0.3,4.3-0.5,6.5-0.6
						c1.1-0.1,2.2-0.1,3.3-0.1c0.8,0,2.1,0.3,2.9-0.1c1.2-0.6,1.9-1.3,2.6-2.5C123.6,19.2,124.3,16.6,124.8,14.2"/>
				</g>
				<g>
					<path fill="#93AC28" d="M69,220.2c-2.1-0.7-8.5-17.6-8.5-17.6s-2.5-6-3.3-8.2c-3.1,0.8-19.4-1.4-19.4-1.4l5.6,40.5l44.7-1.5
						l-6.6-15.8C76.2,218.3,70.1,220.5,69,220.2z"/>
					<polygon fill="#55690E" points="50.1,191.9 36.7,190.7 40.4,235.4 50.1,234.4 					"/>
					<path fill="#93AC28" d="M250.5,214.8l-31.9,25.6l-28.5-13.8l20.3-36.3c0,0,15.1,2.5,25.5,9.6
						C246.3,207.1,250.5,214.8,250.5,214.8z"/>
					<polygon fill="#55690E" points="248.4,208.2 255.7,219.2 218.7,245.6 212.1,240.1 					"/>
					<path fill="#93AC28" d="M134.6,221.1l-74.1-24.6c8.2,33.5,36.9,70.8,36.9,70.8l86.4,0.2c0,0,27.2-30.8,34.6-72.1L134.6,221.1z"
						/>
					<path fill="#55690E" d="M134.6,221.1L75,200.4l-17.4-6.1l-0.4-0.1c0,0.1,0.1,0.2,0.1,0.2c0.7,2.2,3.3,8.2,3.3,8.2
						s6.4,16.9,8.5,17.6c1.1,0.4,7.2-1.9,12.6-4.1c4.7-1.9,8.8-3.7,8.8-3.7s-3.4,10.5-1.5,12.1c1.9,1.6,40.8,0.7,40.8,0.7l4.8-2.1
						l6.9,2.3h0.5c0,0,42.9,1.1,44.7-1c1.8-2.1-1.5-12.1-1.5-12.1s19.1,8,21.4,7.8c2.3-0.2,4.1-17.6,4.1-17.6
						c0.6-2.4,1-10.7,1.4-13.3L134.6,221.1z"/>
					<polygon fill="#603001" points="194.1,252.5 88.3,252.1 83.7,245.9 197.4,245.9 					"/>
					<rect x="128.5" y="242" fill="#C8DBD7" width="18" height="12.6"/>
					<rect x="103.2" y="243.2" fill="#93AC28" width="3.7" height="12.5"/>
					<rect x="172.2" y="243.2" fill="#93AC28" width="3.7" height="12.5"/>
				</g>
				<path fill="#00313B" d="M168.6,62.4c0,0-5,1.7-5,10c0,8.3,5,11.5,5,11.5s32.2,2.7,34.9-21.5c2.7-24.1-13.4-34.9-13.4-34.9
					s0.8,14.4-5.9,23.7C177.4,60.7,168.6,62.4,168.6,62.4"/>
			</g>
		</g>
	</g>
</g>
<g id="_x30_star">
</g>
<g id="Balloon">
</g>
<g id="Frame" display="none">
</g>
<g id="Problem_Screen" display="none">
</g>
<g id="Left_Tool_Bar_Tab">
</g>
</svg>
