<?xml version="1.0" encoding="utf-8"?>
<!-- Generator: Adobe Illustrator 21.1.0, SVG Export Plug-In . SVG Version: 6.00 Build 0)  -->
<svg version="1.1" xmlns="http://www.w3.org/2000/svg" xmlns:xlink="http://www.w3.org/1999/xlink" x="0px" y="0px"
	 viewBox="0 0 266.4 284.8" enable-background="new 0 0 266.4 284.8" xml:space="preserve" width="266.4" height="284.8" preserveAspectRatio="none">
<g id="_x35_th_Grade">
	<g id="_x33__stars_2_">
	</g>
	<g id="_x32__Stars_2_">
	</g>
	<g id="_x31__Star_2_">
	</g>
	<g id="_x30__Stars_2_">
	</g>
</g>
<g id="_x34_th_Grade">
	<g id="_x33__stars_1_">
	</g>
	<g id="_x32__Stars_1_">
	</g>
	<g id="_x31__Star_1_">
	</g>
	<g id="_x30__Stars_1_">
	</g>
	<g id="_x30_-3_Stars">
		<defs>
			<rect id="SVGID_3_" x="-57.5" y="-17.2" width="323.9" height="302"/>
		</defs>
		<clipPath id="SVGID_2_">
			<use xlink:href="#SVGID_3_"  overflow="visible"/>
		</clipPath>
		<g clip-path="url(#SVGID_2_)">
			<g>
				<path fill="#49C8F5" d="M221.8,195.3c0,0,40.6,13.5,32.4,46.4c-8.2,32.7-51.6,20.5-51.6,20.5l-0.2-5.8c0,0,24.4-6.1,16.5-20.3
					c-5.3-9.6-21.1-13.4-21.1-13.4L221.8,195.3z"/>
				<path fill="#49C8F5" d="M212,253.6c0,0-2.9,1.6-4.8,1c-4.7-1.3-11.5-5.1-12.6-2.4c-1.6,3.7,8.8,5.9,8.8,5.9s-11.8,9-8.8,13.2
					c2.5,3.5,9.5-7.5,9.5-7.5s-7.6,13.5-2.3,15.3c3,1,6-11.5,6-11.5s0.4,11,3.6,9.5c4.5-2.2-1.4-12.4-1.4-12.4s2.9,0.7,4.8-2
					c1.4-1.9,0.8-4.4,0.8-4.4L212,253.6z"/>
			</g>
			<g>
				<path fill="#49C8F5" d="M63,227.1c0,0-40.2,14.7-54.2-16.3c-13.9-30.7,27.7-48.1,27.7-48.1l3.7,4.4c0,0-15.3,19.9-0.3,26.2
					c10.1,4.2,24.5,2.7,24.5,2.7L63,227.1z"/>
			</g>
			<path fill="#49C8F5" d="M14.1,143.6c3.6-4.1,24.1,11.6,24.1,11.6s-0.2-11.3,3.9-11.4c4.1,0,7,11.6,1.4,18.3
				c-6.1,7.1-3.4,12.3-13.1,10.6c-6.6-1.2-12.1-6.7-10-9c2.1-2.2,3.7-1.6,3.7-1.6s-3.1-2-2.4-4.7c0.8-3.2,6.1-1.5,6.1-1.5
				S10.6,147.6,14.1,143.6z"/>
			<path fill="#007EC3" d="M35.4,160c-0.8-1-1.8-1.6-2.8-2.2c-1-0.6-2.1-1-3.1-1.3c1.6,1.5,3.4,3,4.4,4.7c0.5,0.9,0.3,1.2-0.2,1.5
				c-0.5,0.4-1.5,0.8-2.4,0.9l-3.4,0.4l2.9,2c0.6,0.4,1.1,1.2,1.2,1.8c0.2,0.7,0,1.7-0.4,2.3c-0.4,0.6-1.3,1-2.3,1.1
				c-1,0.1-2.2,0.1-3.3,0c1,0.6,2.1,1,3.3,1.2c1.2,0.2,2.7,0.1,3.8-1c1.1-1.1,1.5-2.5,1.4-4c-0.1-0.7-0.3-1.4-0.7-1.9
				c0.5-0.2,1-0.6,1.5-1c0.1-0.1,0.3-0.3,0.4-0.5c0.1-0.2,0.3-0.5,0.3-0.6l0.1-0.2c0.1-0.2,0.1-0.3,0.1-0.4c0.1-0.2,0.1-0.5,0.1-0.7
				C36.2,161.1,35.8,160.5,35.4,160z"/>
			<path fill="#D1B489" d="M69,218.1c-2.1-0.7-8.5-17.6-8.5-17.6s-2.5-6-3.3-8.2c-3.1,0.8-19.4-1.4-19.4-1.4l5.6,40.5l44.7-1.5
				L81.5,214C76.1,216.2,70.1,218.4,69,218.1z"/>
			<polygon fill="#6F4D27" points="50.1,189.8 36.6,188.5 40.3,233.3 50.1,232.3 			"/>
			<path fill="#D1B489" d="M247.9,212.7l-32,25.6l-28.5-13.8l20.3-36.3c0,0,15.1,2.5,25.5,9.6C243.7,205,247.9,212.7,247.9,212.7z"
				/>
			<polygon fill="#6F4D27" points="245.9,206.1 253.1,217.1 216.1,243.5 209.5,238 			"/>
			<g>
				<g>
					<path fill="#D1B489" d="M160.7,265.8L150,266c0,0,2.1,13.7-6.2,25.7l3.5,10.4l10.9,0l10.9-9.1
						C169.2,292.9,168.5,276.8,160.7,265.8z"/>
				</g>
				<g>
					<path fill="#D1B489" d="M115.9,265.8l10.7,0.2c0,0-2.1,13.7,6.2,25.7l-3.5,10.4l-10.9,0l-10.9-9.1
						C107.4,292.9,108.1,276.8,115.9,265.8z"/>
				</g>
			</g>
			<path fill="#00313B" d="M96.1,65c0,0,4.5,1.6,4.5,9.1c0,7.5-4.5,10.4-4.5,10.4S66.9,86.9,64.4,65C62,43,76.6,33.3,76.6,33.3
				s-0.7,13,5.4,21.6C88.1,63.4,96.1,65,96.1,65"/>
			<path fill="#00313B" d="M97.6,93.3c1.9,3.5,7.8,11.2,6.9,32.8c-0.6,14.7-14.7,43.1-14.7,43.1l74.2,21.6c0,0,8.7-78.2,10.1-89.7
				C154.6,87.2,114.9,85.2,97.6,93.3z"/>
			<path fill="#FFFFFF" d="M140.1,87.8c-1.2-0.2-2.4-0.5-3.6-0.7c-2.2-0.4-4.3-0.7-6.5-0.8c-4.2-0.3-8.5,0.1-12.7,1
				c-4.3,0.9-8.1,2.7-12.1,4.4c-3,1.2-5.9,2.5-8.9,3.8c0,0,13.1,14.1,15.3,13.9c1.1-0.1,2-5,2.6-9.6c4.5-1,15-2.5,30.3,0.1
				c1.9,4.7,3.9,9.1,5.1,9.5c2.6,0.9,13.8-16.4,13.8-16.4C155.7,91.2,147.9,89.3,140.1,87.8z"/>
			<path fill="#CC4385" d="M110,163c0,0,4.5-16.7,33.5-18.9C172.6,141.9,194,168,194,168s-41.5,58.7-45.5,55.2
				C144.5,219.5,110,163,110,163z"/>
			<path fill="#FFFFFF" d="M154,152.4c-1.3-0.3-4.6,4.2-7.4,8.7c-3.5-1.5-7.5-3-12.1-4.3c-20-5.9-31.8-3.2-31.8-3.2l51.5,30.5
				l10.2-11C164.4,173.1,156.2,152.9,154,152.4z"/>
			<path fill="#49C8F5" d="M173.2,63.5c10.2,5.2,25.8,19.1,33.1,56.9c3,15.6,4,47.3,4.4,68.6c0.2,12.5-43.6,60.4-85.4,60.3
				c-41.8-0.1-64.6-51.3-64.6-51.3s-7.3-8-7-24.4c0.3-16.4,6.6-26.1,6.6-26.1s3.6-5.3,33.3-1.3c31.9,4.3,60.1,32.3,60.1,32.3
				s40-73.5-22.6-88.3c-16.9-4-48.5,15.3-48.5,15.3L92,61.3l5.3-5.9l2.9-5.9C127.7,43.3,167.6,60.7,173.2,63.5z"/>
			<path fill="#007EC3" d="M74.6,158.4c3.6-0.3,7.2-0.2,10.8,0.1c3.6,0.4,7.2,1,10.7,2c7,1.9,13.9,5.3,19.3,10.5l2.7,2.7
				c-6.2-0.7-12.7-1.3-18.5,1.3c-1.7,0.8-3.3,1.9-4.3,3.4c-0.9,1.4-1.4,3-1.5,4.7c-0.2,2.9,0.4,5.7,1.3,8.4c0.9,2.6,1.9,5,3.1,7.5
				c-2.1-3.3-4.3-6.6-5.4-10.4c-1.1-3.7-1.2-8,0.9-11.4c3.1-5.2,9.6-6.5,15.2-6.8c1.9-0.1-6.6-5.8-13.3-8.1c-3.3-1.1-6.8-2-10.3-2.6
				C81.7,159.1,78.2,158.7,74.6,158.4z"/>
			<g>
				<path fill="#007EC3" d="M124.9,70.9c-0.7,8.8-7,15.5-14,15c-7-0.6-12.1-8.2-11.4-17c0.7-8.8,7-15.5,14-15
					C120.5,54.4,125.6,62.1,124.9,70.9"/>
				<path fill="#FFFFFF" d="M123.6,68.5c-0.6,7.6-6.2,13.4-12.4,12.9c-6.2-0.5-10.8-7.1-10.1-14.7c0.6-7.6,6.1-13.4,12.4-12.8
					C119.7,54.4,124.2,60.9,123.6,68.5"/>
				<path fill="#00313B" d="M117,70.2c-0.3,3.7-2.8,6.5-5.6,6.2c-2.8-0.2-4.9-3.4-4.6-7.1c0.3-3.7,2.8-6.5,5.6-6.2
					C115.3,63.4,117.3,66.5,117,70.2"/>
				<path fill="#007EC3" d="M148.9,67.8c1.5,8.7-3,16.8-10,17.9c-7,1.2-13.8-5-15.2-13.8c-1.5-8.8,3-16.8,10-17.9
					C140.6,52.9,147.4,59,148.9,67.8"/>
				<path fill="#FFFFFF" d="M147.1,65.8c1.2,7.5-2.7,14.4-8.9,15.5c-6.2,1-12.1-4.3-13.4-11.8c-1.2-7.5,2.7-14.4,8.9-15.5
					C139.8,53,145.8,58.3,147.1,65.8"/>
				<path fill="#00313B" d="M140.9,68.5c0.6,3.6-1.2,7-4,7.4c-2.8,0.5-5.5-2.1-6.1-5.7c-0.6-3.6,1.2-7,4-7.4
					C137.5,62.3,140.3,64.9,140.9,68.5"/>
			</g>
			<path fill="#49C8F5" d="M96.6,58.1c10.2-6.4,19.9-5.7,37-5.7c5.3,0,15.5,6.8,20.1,6.7l0.2,6.2H96C96.4,62.8,96.5,60.4,96.6,58.1z
				"/>
			<path fill="#D1B489" d="M133.4,220.6L59.3,196c8.2,33.5,37,70.9,37,70.9l86.5,0.2c0,0,27.2-30.8,34.6-72.1L133.4,220.6z"/>
			<path fill="#6F4D27" d="M139.5,225l45.8-7.2l-1.5-12.2l21.4,7.8c0,0,5.2-22.1,5.6-24.6l-77.4,31.9L139.5,225z"/>
			<path fill="#6F4D27" d="M127.4,225.3l-46.2-4.1l0.7-12.2L61,218.1c0,0-3-22.6-3.6-25.1l75.8,27.6L127.4,225.3z"/>
			<polygon fill="#00313B" points="193,252.1 87.1,251.6 82.5,245.5 196.3,245.5 			"/>
			<rect x="127.3" y="241.6" fill="#C8DCD8" width="18" height="12.6"/>
			<rect x="102" y="242.7" fill="#D1B489" width="3.7" height="12.5"/>
			<rect x="171" y="242.7" fill="#D1B489" width="3.7" height="12.5"/>
			<path fill="#00313B" d="M167.5,61.8c0,0-5,1.7-5,10c0,8.3,5,11.5,5,11.5s32.2,2.7,34.9-21.5c2.7-24.2-13.4-34.9-13.4-34.9
				s0.8,14.4-5.9,23.8C176.3,60.1,167.5,61.8,167.5,61.8"/>
			<path fill="none" d="M97.3,58.6l62.3-1.5c10.5,7,17.2,17.6,17.2,29.5c0,21.1-21.2,38.2-47.3,38.2c-26.1,0-47.3-17.1-47.3-38.2
				C82.2,75.5,88,65.6,97.3,58.6z"/>
			<path fill="#D1B489" d="M90.1,47.3l-8-12.6c12.1-4.2,22.5-16.4,24.1-28.5c16,5.8,30.7,7,48.2,0.3c2.4,12.1,14.5,24.9,26.2,28.2
				l-9.9,13.8c-11-7.8-25.4-12.5-41.2-12.5C114.6,36,100.9,40.2,90.1,47.3z"/>
			<path fill="#D1B489" d="M129.5,48.3c11.4,0,21.9,3.3,30.1,8.7l-62.3,1.5C105.8,52.2,117.1,48.3,129.5,48.3z"/>
			<path fill="#6F4D27" d="M159.6,57c-8.2-5.5-18.7-8.7-30.1-8.7c-12.2,0-23.3,3.8-31.7,10l-7.7-11c10.7-7,24.5-11.3,39.4-11.3
				c15.8,0,30.2,4.7,41.2,12.5c0,0,0,0,0,0l-7.8,11C161.9,58.7,160.8,57.8,159.6,57z"/>
			<path fill="#D1B489" d="M82.1,65.6l93.4,0l-10.1-9.2c-19.1-10-50.6-11-69.1-0.6L82.1,65.6z"/>
			<g>
				<path fill="#6F4D27" d="M153.4,8.2c-2.6,4.2-4.5,8.8-6.2,13.4c-1.6,4.6-3,9.3-3.6,14.3c2.6-4.2,4.5-8.8,6.2-13.4
					C151.4,17.8,152.8,13.2,153.4,8.2z"/>
			</g>
			<g>
				<g>
					<path fill="#6F4D27" d="M107.7,8.2c0.6,5,2.1,9.6,3.6,14.3c1.7,4.6,3.5,9.1,6.2,13.4c-0.6-5-2-9.6-3.6-14.3
						C112.2,17,110.4,12.4,107.7,8.2z"/>
				</g>
			</g>
		</g>
	</g>
</g>
<g id="_x33_rd_Grade">
	<g id="_x33__stars">
	</g>
	<g id="_x32__Stars">
	</g>
	<g id="_x31__Star">
	</g>
	<g id="_x30__Stars">
	</g>
</g>
<g id="Labels">
</g>
</svg>
