<svg id="Layer_3" xmlns="http://www.w3.org/2000/svg" xmlns:xlink="http://www.w3.org/1999/xlink" version="1.1" viewBox="0 0 257 397" width="257" height="397" preserveAspectRatio="none"><defs><style>
      .st0 {
        fill: none;
      }

      .st1 {
        fill: #493661;
      }

      .st2 {
        fill: #a890c1;
      }

      .st3 {
        fill: #bfb47a;
      }

      .st4 {
        fill: #5e457f;
      }

      .st5 {
        fill: #fff;
      }

      .st6 {
        fill: #42283e;
      }

      .st7 {
        fill: #fcf1a5;
      }

      .st8 {
        fill: #745c8d;
      }

      .st9 {
        fill: #a45a87;
      }

      .st10 {
        fill: #886ea2;
      }

      .st11 {
        fill: #e6d687;
      }

      .st12 {
        fill: #5a7ca8;
      }

      .st13 {
        fill: #a967aa;
      }

      .st14 {
        fill: #3a5c84;
      }

      .st15 {
        fill: #333;
      }

      .st16 {
        clip-path: url(#clippath);
      }

      .st17 {
        fill: #c1bdbe;
      }
    </style><clipPath id="clippath"><rect class="st5" x="14.483298" y="0" width="242" height="365" rx="4" ry="4" /></clipPath></defs><rect class="st0" x="14.483298" y="0" width="242" height="365" rx="4" ry="4" /><path class="st0" d="M18.105505,365h234.347701c1.98,0,4.224333-2.027085,4.224333-4.007085V4.002472c0-1.98-1.62-3.6-3.6-3.6H17.889057c-1.988225,0-3.6,1.611775-3.6,3.6v307.974573s0,49.015869,0,49.015869c0,1.98,1.836449,4.007085,3.816449,4.007085Z" /><g><rect class="st5" x="14.483298" y="0" width="242" height="365" rx="4" ry="4" /><g class="st16"><g><path class="st12" d="M60.984365,378.482877c.563158,6.757901,4.821845,11.638936,4.821845,11.638936l29.992996-3.496269,22.526335-3.191231s-.187719-6.194742-1.314036-8.071937c0,0,2.815792-3.37895,2.064914-4.505267-.750878-1.126317-2.252634-2.440353-2.252634-2.440353l-.067929-4.429305s-17.389981,3.115269-32.032099,1.613513c-14.642118-1.501756-18.771946-5.256145-18.771946-5.256145,0,0-5.530605,11.380157-4.967447,18.138058Z" /><polygon class="st14" points="109.938793 364.739333 110.239546 369.75188 113.84858 369.150374 113.648078 363.987451 109.938793 364.739333" /><g><path class="st11" d="M186.28577,311.417623s5.583398-9.990097,6.644377-14.227969c1.06098-4.237872-.103627-14.699218,4.934427-17.129298,5.038054-2.430079,10.425767,1.336631,13.424851,5.944974,2.999084,4.608343.8564,10.144244.8564,10.144244,0,0,4.43939-7.747759,12.227688-11.021369,7.12064-2.992977,12.103161-2.267037,16.175056,1.668586,4.071894,3.935624.865294,9.518935-4.359463,11.883815-5.224758,2.36488-14.171751,6.990926-16.379635,12.71353,0,0,2.575332-.776434,10.010909-4.673455,7.435578-3.897022,15.748367-7.906653,22.294815-2.059522,6.546448,5.847131-1.333695,14.616229-8.555885,16.702522s-14.035394,1.801747-17.66281,6.190744c0,0,8.94993-.435583,15.214854,3.218518,6.264925,3.654101,8.265293,8.12315,3.882168,12.876659-4.383125,4.753508-21.307929-1.366338-21.307929-1.366338,0,0-2.507196,4.780193-12.482527,6.952411l-14.213115-12.085459s-15.603028-11.104532-15.594133-11.729841,4.889953-14.002751,4.889953-14.002751Z" /><path class="st8" d="M161.321703,314.512957c8.452977.294214,17.995042-3.065298,28.431276-9.425501l-2.799288,6.601059,8.507227,1.04795s-1.357356,7.485923-4.919573,11.688216c0,0,3.138378,3.609627,13.291516,2.127918,0,0-.044474,3.126547-1.825582,5.227694l8.090507-1.573593-6.238327,7.666668,7.530397-1.769191s.797159,5.515175,1.312795,8.837321-1.499586,4.294177-1.499586,4.294177l4.590553-1.748465s-15.713006,18.602045-38.831549,17.022387c.987544,1.057853,2.538769,2.466133,4.789507,2.820338,0,0-8.935391,3.262842-14.27261,3.094265,0,0-26.151641-4.768089-37.38626-24.097365l-4.477244-4.961902-6.717537-6.99329,8.630493-13.529119,20.512178-1.894974,13.281105-4.434591Z" /><path class="st3" d="M214.383581,305.44573c5.503537,4.151489,9.433596,11.012126,9.271628,18.001325-1.807241-6.657043-5.173551-12.453953-9.271628-18.001325h0Z" /><path class="st3" d="M220.690222,321.935598c1.974562,2.230345,3.237548,5.024938,3.731027,7.95364.142996.981602.202078,2.021519-.094797,2.999852-.284668-.964478-.628906-1.838196-.956055-2.730286-.98506-2.653272-2.125257-5.387259-2.680176-8.223206h0Z" /><path class="st3" d="M205.848914,308.974111c5.381992,2.478614,3.432811,9.908559.401264,13.577781-.462299.556313-.918842,1.110635-1.423237,1.622781.248535-.685059.544922-1.328003.835449-1.969116,1.797968-4.104697,3.962017-9.553729.186523-13.231445h0Z" /><path class="st3" d="M202.94071,306.847158c.969578-1.272063,1.941276-2.569675,3.10442-3.628608,3.24052-1.954115,5.195959-5.528477,6.315953-9.058294.15824-.536426.313026-1.080066.500037-1.628712.027832.569092.057129,1.149048.028809,1.725586-.232496,4.10945-2.513113,8.280365-6.423817,9.961327-.000012-.000024.16161-.10537.16161-.10537-1.174805.968811-2.383301,1.901672-3.687012,2.73407h0Z" /><path class="st3" d="M206.419714,305.522085c-.524459,1.724298-1.575673,3.25866-3.18693,4.125862.797393-1.626594,1.741812-3.008848,3.18693-4.125862h0Z" /></g><path class="st12" d="M60.98134,419.493631s15.900685,5.98857,37.376934-5.575565l-3.510541-4.956058s3.097536-9.705613,2.891034-18.172211c-.206502-8.466598-3.304038-23.747776-3.304038-23.747776l-30.768857,8.879603s-.206502,20.856742-1.032512,28.910336c-.82601,8.053593-1.652019,14.66167-1.652019,14.66167Z" /><path class="st12" d="M120.45403,359.194931l-.440017,9.454189s2.556399,1.523887,2.556399,2.556399c0,1.032512-1.954893,2.857152-1.954893,2.857152,0,0,3.555555,18.998654,2.729545,24.780721-.82601,5.782067-2.684531,9.912115-2.684531,9.912115,0,0,2.271526,1.445517,2.271526,2.478029,0,0-5.98857,1.652019-8.673101,2.684531-2.684531,1.032512-8.053593,1.652019-12.596646.82601-4.543053-.82601-7.847091-2.684531-7.847091-2.684531,0,0,3.097536-23.954278.82601-38.202944l9.49911-11.564134,10.738125-5.16256,5.575565,2.065024Z" /><path class="st15" d="M141.016584,327.696612s-15.381133,3.545127-26.355312,2.383155c-10.974179-1.161972-30.738516-13.239079-30.738516-13.239079l-14.084338-16.412332-11.228105,1.403513,3.809536,25.463738s8.220577,11.629109,8.822083,13.634128c.601506,2.005019-2.205521,8.822083-2.205521,8.822083,0,0-.601506,5.012547-1.403513,6.817064-.802008,1.804517-1.804517,5.213049-1.804517,5.213049,0,0,11.798602,4.901182,26.666749,4.611543,23.157967-.451129,30.618382-1.187872,30.618382-1.187872l-2.848503-4.21083s14.746595-19.217497,20.751574-33.29816Z" /><path class="st14" d="M77.778113,371.232534c.869147,4.687128-3.367166,8.141995-7.840422,7.631112-.586335-.088571-1.166902-.174875-1.733308-.310067.583984-.107849,1.152832-.166809,1.716309-.228149,4.072373-.467107,7.164365-2.801179,7.857422-7.092896h0Z" /><path class="st14" d="M112.31864,369.543081c.901789,3.49139,2.036116,7.282966,5.631429,8.822736-4.289399.025084-6.404519-5.13271-5.631429-8.822736h0Z" /><path class="st14" d="M103.683386,370.669363c.106767,2.732567.110015,6.454346.508272,9.109134-2.781038.259683-5.567505.462914-8.35837.581233l-.582031.024843c.144434-1.475436.317573-2.953167.522464-4.422546.177243-1.287354.386716-2.572144.631345-3.854248.04248,1.304504.049805,2.606262.025391,3.905518-.023438,1.299316-.067871,2.597046-.139648,3.892639l-.525391-.530396c2.603027-.249817,5.210938-.427551,7.822754-.551086l-.463867.563599c-.234585-2.94813.076082-5.829645.559082-8.718689h0Z" /><ellipse class="st14" cx="99.763323" cy="368.598994" rx="1.854642" ry="1.303262" /><polygon class="st14" points="83.472546 365.290713 82.670538 371.606522 77.657992 371.105268 78.861003 364.889709 83.472546 365.290713" /><path class="st14" d="M104.024206,365.491201c.783564,1.709915.822724,3.474665.10021,5.213074-.789218-1.709242-.81774-3.474309-.10021-5.213074h0Z" /><path class="st14" d="M120.314734,368.197988c-9.446556,2.140509-19.006994,4.064152-28.714338,4.449348-8.509249-.038679-16.983837-1.001031-25.264682-2.899537-1.172836-.302313-2.359359-.59284-3.464828-1.0987,2.31543.699707,4.719727,1.000305,7.108398,1.327148,7.152907.924347,14.407908,1.60759,21.607416,1.596383,9.608242-.290297,19.192614-2.057249,28.728033-3.374642h0Z" /><path class="st14" d="M98.358191,413.918081c-1.314603-1.61991-2.609492-3.255072-3.864277-4.920212.871319-1.702964,1.000885-3.928836,1.212467-5.860053.512619-6.062638.351847-12.161999.22119-18.24897,2.969831-.068963,6.017217-.428899,8.830528-1.452613.882806-.342798,1.737786-.781091,2.474115-1.403589-.639648.72467-1.47168,1.271729-2.34082,1.703918-2.636981,1.296213-5.555317,1.791229-8.468253,2.069619-.000009-.000039.446768-.485696.446768-.485696.330095,5.959602.48341,11.9719-.233376,17.920045-.33584,2.055701-.516335,3.997515-1.547296,5.908714-.00009-.000023.007723-.363793.007723-.363793,1.116153,1.691282,2.201528,3.403885,3.26123,5.132629h0Z" /><path class="st15" d="M77.610162,322.441824l-4.640546-23.644688-21.434904-8.397179-19.667077-.883914-3.250908,8.862902s-12.063249,8.785383-1.793683,17.831314l-.997823,1.244665,15.806998-.903257,21.835325,6.995048,14.142617-1.104892Z" /><path class="st13" d="M93.404567,350.24743c.303877-2.925281,3.741947-5.169741,7.433146-4.879163.414243.03261.810183.10344,1.187847.19576-.599699-.927737-.876958-2.048855-.674162-3.257647.537871-3.206052,4.002359-5.454531,7.485062-4.886183,3.261613.532268,5.09261,3.332671,4.312774,6.150614-.295287,1.06702-.931773,1.992095-1.759103,2.721575.337216-.030884.673738-.040376,1.009788-.013922,2.775953.218528,4.273295,2.356474,3.518326,4.689631-.7222,2.231888-3.307807,3.990713-5.927689,4.01662-1.610695.015928-2.907651-.625988-3.623675-1.64606-.202828,1.411182.078537,2.78232,1.325082,3.769958l-1.997741.06063-2.65569.080599-2.184803.066308c1.874464-1.119034,2.824141-2.548234,3.269028-3.99159-1.241419,1.049084-3.008055,1.747925-4.91626,1.766794-3.399915.03362-6.089558-2.075071-5.80193-4.843924" /><path class="st10" d="M30.567321,313.954804s-19.64584,10.387456-21.000726,30.710739c-.706144,10.59216,52.501814-12.532691,52.501814-12.532691l1.693607-11.177806-14.903741-5.193728-18.290955-1.806514Z" /><path class="st13" d="M24.818341,318.003943s23.739916-8.968413,38.717862,6.451224l2.105264-3.43078c-9.837025-10.345756-27.768703-14.037833-37.445195-6.505047l-3.377931,3.484603Z" /><path d="M68.183386,313.255972c-1.056689,4.492795-2.651559,8.793928-4.83432,12.862241.288047-4.629524,1.997838-9.191267,4.83432-12.862241h0Z" /><path d="M66.02323,317.244375c1.126668-1.651274,2.7693-2.760227,4.74213-3.123382-1.270305,1.551928-2.810145,2.579632-4.74213,3.123382h0Z" /><path class="st4" d="M143.180456,343.718862c.829273-8.117581,5.822715-15.544655,12.758349-19.768958,2.299268-1.410547,4.809033-2.518762,7.445264-3.009973-9.283149,4.94106-16.31496,13.067911-20.203613,22.778931h0Z" /><path class="st4" d="M211.021915,225.649134s4.102108,30.095007-14.05088,48.575385c-14.849377,15.117186-18.684377,15.919894-18.684377,15.919894l-6.648869-4.512766s3.304133-25.810516.173608-36.463782c-3.130525-10.653266-5.06156-28.963178-5.06156-28.963178l21.743558-4.651243,13.279813-1.578707,9.248707,11.674397Z" /><path class="st10" d="M75.906523,313.775658s38.90231,31.829163,74.032275,19.569041c0,5.894289.235772,10.609721.235772,10.609721,23.081345-5.431633,27.042111-23.063053,27.042111-23.063053l6.437453,6.794814c8.989861-12.990046,1.219013-27.111496,1.219013-27.111496,3.835-.802708,9.703479,2.372272,9.703479,2.372272.824845-15.183959-18.131733-21.123601-18.131733-21.123601,13.502627-19.638916-4.361656-53.828299-8.785333-58.706747-4.423677-4.878449-20.918713-10.532716-20.918713-10.532716-9.431458-2.028907-51.04571,1.877797-55.95983,6.609166-4.91412,4.731369-10.055267,57.146146-10.055267,57.146146l-4.819227,37.436453Z" /><path class="st4" d="M144.568937,284.367208s-3.81567,1.532548-4.582646,4.561913c-.766976,3.029365,1.930915,3.965797,3.013022,1.804509,1.082108-2.161288-.246776-3.250835-.246776-3.250835,0,0,.924542-2.595326,1.8164-3.115587Z" /><path class="st4" d="M147.705318,284.211106s2.011161,1.480474,1.982929,2.620571c0,0-1.926403,2.271292.222994,3.455964,2.149398,1.184672,2.391201-1.66022,1.30803-4.110009-.823502-1.862498-3.513953-1.966526-3.513953-1.966526Z" /><path class="st6" d="M176.8285,294.652788s-14.041734-1.954785-31.907845.874292c-14.40058,2.280315-22.100337.556112-31.274653-2.794239-5.084562-1.856822-13.654458-5.948606-13.654458-5.948606l-3.906344,1.418093s10.509235,15.146703,16.368811,20.19162c5.859576,5.044917,18.387291,8.160384,34.886719,5.707625,16.499428-2.452759,20.304671-6.585085,20.304671-6.585085,0,0,7.533168-11.184013,9.183099-12.863701Z" /><path class="st4" d="M168.165808,322.752432c-7.061378,9.263625-19.320278,12.867661-30.516016,13.588232-1.634374.022058-3.265722.04751-4.892187.020349,1.618652-.221497,3.23584-.353333,4.84375-.55603,11.007426-1.55518,22.592269-4.880727,30.564453-13.052551h0Z" /><path class="st4" d="M86.977477,249.311272c-5.319866,10.920896-4.548258,28.472735-4.548258,28.472735l-3.888418,12.022333-8.661315,18.225274c-6.320323.722461-14.938767-9.215783-14.938767-9.215783-2.182022,8.062451-11.16304,12.010503-11.16304,12.010503.151591-3.100708-4.295867-7.774028-4.295867-7.774028-5.800569,3.7675-7.857203,12.185874-7.857203,12.185874-3.692313-.428063-8.445999-7.839397-8.445999-7.839397-15.045662,6.05141-29.346786-7.767873-29.346786-7.767873,0,0,10.773636-6.858509,12.209476-13.864098,1.435839-7.005589-5.070343-12.749126-10.332399-21.154882-13.963748-22.306081-15.839768-35.513815-7.679323-46.729049,8.160444-11.215234,29.003242-13.476279,29.003242-13.476279,0,0-10.640749-11.341361-12.585138-26.846367-2.175174-17.345338,33.31845-26.245026,55.392019-28.363383,22.073568-2.118357,53.545033,6.820967,82.949809,16.778361,30.467221,10.317172,51.848418,1.957203,51.848418,1.957203.102624,7.183948-6.198309,15.808307-6.198309,15.808307,39.210879,19.513614,42.033892,51.647381,41.164411,61.836912-.86948,10.189531-4.963147,7.843968-7.174985,5.404744-2.211838-2.439224-10.987848-12.811507-10.987848-12.811507l-7.562513-14.297282-24.161666-2.250263-53.026482-6.698433s-29.602623,6.667612-29.539604,6.124034-7.095285,13.684044-7.095285,13.684044l-3.078168,14.578298" /><path class="st11" d="M154.963672,195.451153l-.499407,4.307698s-4.544047-1.150464-6.024521.860697c0,0-15.316395-13.707335-39.001239-13.252744-26.068999.50035-49.471394,23.264636-49.471394,23.264636,0,0-9.868484-3.638715-15.835016-.588496l-5.498405-9.056813,7.451397-13.168406s11.808122-15.781598,34.733425-17.177554c0,0,35.505032.374285,59.085964,12.151126,0,0,12.990046,8.989861,15.059197,12.659856Z" /><path class="st10" d="M82.743898,306.70251c-2.619108-.719413-15.57267,4.964951-15.57267,4.964951-2.904603-12.601987,7.782811-20.50992,7.782811-20.50992l-6.611674-.350744c1.57743-6.209605,5.478882-9.518725,9.739514-11.229498,7.101049-2.851287,15.199818-1.262726,15.199818-1.262726l-10.5378,28.387936Z" /><g><path class="st7" d="M145.958046,264.106664c-.500238,9.876251,2.068905,17.895586,10.312442,18.523991,7.785452.593485,10.925739-7.334044,11.591801-17.199555.795216-11.778496-3.424772-16.595463-9.620415-16.94973-6.195642-.354267-11.78359,5.749043-12.283828,15.625294Z" /><path class="st2" d="M165.355933,252.014342s-4.032083-2.727341-9.87449-.894682c-5.842408,1.83266-8.474531,10.036235-9.507505,13.928363,0,0-.114371-16.085987,9.984382-18.13358,6.33943-1.285364,9.397614,5.099899,9.397614,5.099899Z" /><ellipse class="st15" cx="153.932253" cy="270.728784" rx="10.969408" ry="7.03482" transform="translate(-138.064179 379.021428) rotate(-80.726395)" /><path class="st5" d="M151.394039,264.081674c-1.451305,2.15001-1.190175,4.664766.58325,5.616864,1.773425.952098,4.387585-.019003,5.83889-2.169013,1.451305-2.15001,1.190175-4.664766-.58325-5.616864s-4.387585.019003-5.83889,2.169013Z" /></g><g><ellipse class="st7" cx="136.317831" cy="266.890061" rx="9.664023" ry="14.784973" transform="translate(-4.349658 2.266719) rotate(-.937743)" /><path class="st2" d="M143.177425,256.551164s-8.765192-6.305276-16.072817,5.320657c0,0,.871723-9.91516,8.556503-10.077625,5.6872-.120233,7.516314,4.756968,7.516314,4.756968Z" /><ellipse class="st15" cx="134.80648" cy="271.696801" rx="10.277207" ry="6.617044" transform="translate(-142.954359 393.519849) rotate(-87.292758)" /><path class="st5" d="M131.064617,264.872395c-1.14951,2.152089-.649483,4.493208,1.116841,5.229036,1.766325.735828,4.130076-.412278,5.279586-2.564367,1.14951-2.152089.649483-4.493208-1.116841-5.229036-1.766325-.735828-4.130076.412278-5.279586,2.564367Z" /></g><path class="st9" d="M112.453961,308.393933c-5.859495-5.044884-16.368767-20.191609-16.368767-20.191609l3.906363-1.4181s8.569873,4.091791,13.654403,5.948609c3.107215,1.134702,6.045806,2.081944,9.132362,2.751199l2.55707,4.009018s11.429806,5.992518,19.043582,14.993861c-15.034493,1.680896-26.421357-1.354526-31.925013-6.092978Z" /><path class="st5" d="M99.991557,286.784224s8.569873,4.091791,13.654403,5.948609c9.174324,3.350356,16.874112,5.074551,31.274638,2.794249,17.866174-2.829089,31.907895-.874293,31.907895-.874293-.71008.722853-2.509796,3.206301-4.329654,5.800691-2.193633-.177236-5.264314-.204319-9.063124.338401-8.032659,1.147607-28.263061,1.712617-37.178725,1.510523-6.657673-.150896-16.331019-2.274364-22.870462-4.185803-3.962711-5.102632-7.301334-9.914277-7.301334-9.914277l3.906363-1.4181Z" /><path class="st5" d="M118.587779,306.142685c3.538466,1.215099,5.776604,5.583696,6.708853,7.795341-5.630476-1.126968-10.014901-3.109526-12.842671-5.544093-.398131-.342814-.819239-.735713-1.255537-1.163874l-.055494-.079503s2.646614-2.655532,7.444848-1.007871Z" /><polygon class="st17" points="160.789985 301.15595 161.336547 301.199902 161.916106 294.007389 161.35576 294.048256 160.789985 301.15595" /><polygon class="st17" points="146.463708 302.005221 146.994921 301.987434 147.602126 295.152416 147.047834 295.14107 146.463708 302.005221" /><polygon class="st17" points="135.447857 302.315566 135.926856 302.291725 136.578716 296.440812 136.047503 296.4586 135.447857 302.315566" /><polygon class="st17" points="123.668099 302.140485 124.997971 295.918399 124.478506 295.838872 123.24434 302.144272 123.668099 302.140485" /><polygon class="st17" points="109.991622 299.840569 112.70589 292.40319 112.152731 292.153857 109.345009 299.71269 109.991622 299.840569" /><polygon class="st17" points="99.947335 293.596255 102.20986 287.773327 101.676753 287.579235 99.644269 293.243629 99.947335 293.596255" /><path class="st1" d="M177.920691,180.098684c27.040592,6.265592,48.171632,27.617301,51.18826,55.627521.322805,3.190098.50414,6.654846.49475,9.851412-.255326-3.661489-.524021-7.553331-1.227943-11.165753-4.231049-26.974177-24.695486-46.883117-50.455067-54.313179h0Z" /><path class="st1" d="M171.962683,210.206838c8.057562-2.39575,18.139279-2.113188,24.244107,4.439655,4.466097,4.694729,7.387178,11.739056,4.675172,18.044702-.190682.808462-3.676436,6.983414-4.54428,5.263152-2.034511-4.140634-6.022326-7.117079-9.560396-9.959249-.00015.000131.826022-.664359.826022-.664359,1.260526,2.8838,1.92855,6.104291,1.332008,9.238714-.208472,1.054743-.497047,2.051569-1.074195,3.060114-.148926.260376-.480469.350708-.740723.201782-.200684-.114746-.300293-.338135-.267578-.553711.490529-3.78089-2.279571-7.355809-4.855867-9.890843-.00009.000035.88614-.583889.88614-.583889,1.168373,4.166622.686847,8.517119.237919,12.75036-.036763.314127-.343436.530667-.651495.461429-3.305345-.743545-7.989606-1.716507-11.211851-2.61648-.160706-.040195-.275452-.170688-.303773-.323642-.777694-3.781584-2.022133-7.839692-4.961818-10.538444,3.209814,2.50364,4.730672,6.548817,5.783198,10.377136-.000091.000053-.324309-.328743-.324309-.328743,1.878906.362061,3.769043.668823,5.631836,1.108215l5.603027,1.24646-.651367.461243c.428406-4.021447.900072-8.305357-.190304-12.245187-.205651-.520986.495966-.974242.886129-.583944,2.870185,2.832355,5.731764,6.580554,5.211509,10.846915-.000107.000037-1.004014-.381066-1.004014-.381066.903154-1.620934,1.191753-3.700434,1.105471-5.575011-.086564-1.467465-.413633-2.918707-.895535-4.308894.000026-.000007-.546849-1.376899-.546849-1.376899-.128254-.284146.004329-.621533.295901-.736144.183592-.072938.383299-.038819.530759.071593,1.91748,1.446472,3.737793,2.977234,5.467285,4.641296,1.728212,1.726594,3.449043,3.461664,4.451702,5.769135-.000042.00003-.870159-.21048-.870159-.21048,2.900879-2.789978,4.693848-6.951477,4.305176-11.016296-.340332-4.094482-2.602051-7.854492-5.368652-10.892395-5.979487-6.106021-15.426696-6.796525-23.450195-5.196228h0Z" /><path class="st1" d="M178.330359,187.557974c-11.921289-4.496415-16.772748-3.110764-23.366609,7.893444.577185-2.742861,1.678585-5.460828,3.401365-7.785793,5.514858-7.003485,13.833424-5.174358,19.965244-.107651h0Z" /><path class="st1" d="M174.214636,204.231375c-5.309637-1.541953-10.515184-3.242723-15.996574-3.880836-3.282385-.448594-6.430588-.342584-9.778327.269015,7.899321-4.858619,18.846329-1.654873,25.774901,3.61182h0Z" /><path class="st1" d="M160.042761,213.502371c-16.359564-24.092273-46.304604-30.972148-72.690952-20.173156-10.187041,4.271769-18.423964,11.774378-27.04288,18.565748-4.406794,3.334215-9.136774,6.536181-14.513239,8.007494,10.516955-4.028127,17.665982-12.980372,26.454671-19.657243,9.775454-7.960359,22.019307-13.044284,34.666488-13.747773,20.954627-2.25275,42.889826,8.546008,53.125911,27.004931h0Z" /><path class="st1" d="M30.767371,215.041921c7.76983-6.58074,19.949849-9.517689,29.19968-4.410627-2.568333-.373431-5.013157-.75014-7.498997-.693743-7.521288.025276-14.733137,2.339515-21.700684,5.10437h0Z" /><path class="st1" d="M25.286902,195.073171c9.006426-1.402327,17.147758,6.546675,18.845132,14.969746-.974036-1.236826-1.836565-2.637886-2.818304-3.843922-3.941669-5.373218-9.410095-9.60481-16.026828-11.125824h0Z" /><path class="st1" d="M202.299597,247.08959c1.215126,11.284041-1.575019,24.627174-10.04122,32.66769,5.952368-9.990227,8.117725-21.342809,10.04122-32.66769h0Z" /><path class="st4" d="M166.04032,314.190603c-2.380215,3.94248-5.114112,7.774729-8.876903,10.559432-1.426605.942903-3.13229,1.928294-4.973678,1.209273-.340825-.136075-.512212-.515592-.396977-.859037.453125-1.342102.966309-2.640076,1.563965-3.914734.59375-1.270386,1.261719-2.522949,2.108887-3.6474-.89255,2.627706-1.591067,5.295749-2.28468,7.962094.000012.000004-.43114-.872494-.43114-.872494.483398.154297,1.070312.053284,1.680176-.193359,1.963354-.84125,3.543964-2.417784,5.142598-3.874908,2.184108-2.079471,4.218614-4.326275,6.467753-6.368866h0Z" /><path class="st4" d="M152.678503,320.596182c-1.42709,1.540363-3.066066,2.869556-4.870107,3.962047-1.771049,1.219025-4.029619,2.021841-6.175335,1.228674-.072259-.025624-.076855-.132739-.006307-.164355,1.917-.990367,3.600073-1.56976,5.583514-2.236984,1.830052-.807265,3.647923-1.764907,5.358372-2.912123.075112-.056291.176163.051237.109863.122742h0Z" /><path class="st4" d="M143.912878,320.356558c-1.176964,1.160955-2.687623,1.874071-4.231922,2.391986-1.755274.653993-7.494289,1.086052-2.569322-.31886,2.216205-.710852,4.508615-1.490176,6.801244-2.073126h0Z" /><path class="st5" d="M158.168513,298.258285c3.456084-1.374484,7.920631,6.338824,9.467718,9.267776-.176194.182502-3.577896,3.547344-16.54121,5.948902.430744-1.947901,1.238951-5.31086,2.128236-7.526558,1.315456-3.277594,3.1652-6.982148,4.945257-7.69012Z" /><path class="st1" d="M21.247839,297.636282c.199015,5.808778,2.96978,11.164934,7.287177,14.948574.950599.928064,2.088541,1.757781,3.089795,2.653258-7.097085-2.206904-12.717591-10.152182-10.376972-17.601832h0Z" /><path class="st4" d="M94.423621,278.03124c-10.676985-1.092387-22.000956,1.787176-26.080882,12.775787,2.446918-11.774607,15.590528-15.624076,26.080882-12.775787h0Z" /><path class="st1" d="M208.558874,224.28301c6.599262,16.917872,1.300724,36.896988-10.686612,50.110408-3.933505,4.496465-8.500399,8.385564-13.421786,11.677129,4.538086-3.804138,8.745605-7.958679,12.439941-12.504578,11.245095-13.462472,16.334001-32.180361,11.668457-49.282959h0Z" /><path class="st4" d="M177.216589,320.891348c-3.333183,12.29177-15.097585,20.38949-26.912069,23.521085-.305256.089802-.623306-.163121-.605504-.480382.139562-3.36018-.139626-6.774889-.646496-10.120538,1.04782,3.282821,1.600906,6.699602,1.597712,10.165035-.000049.000005-.605517-.48022-.605517-.48022,11.586351-3.351524,22.825831-10.941845,27.171875-22.60498h0Z" /><path class="st1" d="M66.733191,307.8225c-9.478013-3.157218-16.791281-12.623671-16.278176-22.766959,1.106664,9.859868,7.60824,18.196363,16.278176,22.766959h0Z" /><path class="st1" d="M43.777624,310.826345c-1.075232-3.171884-3.251016-5.466227-5.428754-7.884606-2.722699-3.501478-3.094412-8.361359-2.107987-12.527357.417465,3.604971.91759,7.320625,2.663169,10.467332,2.092313,2.984067,5.050364,6.003241,4.873572,9.944632h0Z" /><path class="st17" d="M163.435828,300.79186c-1.640731-1.762736-4.720241-3.501301-6.64015-1.209977-.594714.637223-1.102038,1.377518-1.582507,2.140641.276855-.863342.699707-1.679138,1.262695-2.415894,1.864923-2.717332,5.714477-.90291,6.959961,1.485229h0Z" /><path class="st4" d="M105.532019,286.757253c-4.82.248112-10.240583.280647-13.226003,4.70335.851382-5.904358,8.695264-6.99832,13.226003-4.70335h0Z" /><path class="st10" d="M83.256157,317.981839s-5.143663,3.918134-6.025688,7.028486c0,0-6.675325-9.060272-1.088175-20.193988l7.113863,13.165502Z" /><path class="st15" d="M152.640271,243.183852s13.703402-.409057,18.816612,3.476983c0,0,2.045284-8.999249-5.931323-12.68076-7.976607-3.681511-13.498874-4.090568-13.498874-4.090568l.613585,13.294345Z" /><path class="st15" d="M143.620813,235.614768v9.408306s-6.094569-1.46603-12.858253,1.10847c-4.778735,1.818957-9.532843,7.759291-9.532843,7.759291,0,0-3.788537-3.95908.30203-12.140215,4.090568-8.181136,17.384913-7.772079,22.089066-6.135852Z" /><path class="st4" d="M171.962686,210.206869s16.004061-4.626458,24.602063,5.658659c10.680155,12.775835.272201,21.859537.272201,21.859537-1.690114-4.249709-9.73476-10.171605-9.73476-10.171605,3.215223,7.232974.297386,11.780009.297386,11.780009.79966-5.104431-5.036134-10.354476-5.036134-10.354476,1.394312,4.111472.214151,12.497959.214151,12.497959-2.43776-.490504-11.16316-2.333612-11.16316-2.333612-.454892-5.04199-5.42261-10.607168-5.42261-10.607168,1.260527,3.472306.246836,10.422893.246836,10.422893-27.81125-2.184829-51.07687,8.422578-51.07687,8.422578-2.467517-3.820122-3.323763-10.779612-3.323763-10.779612-1.950184,2.47642-4.361116,10.720219-4.361116,10.720219-2.963996-4.917108-3.210832-15.340001-3.210832-15.340001-4.768445,5.267972-6.581797,17.322989-6.581797,17.322989-3.377181.440014-10.706804.006035-10.706804.006035l2.949332-34.057821,54.741136-6.507638,20.35403,6.583163,6.940711-5.122108Z" /><path class="st1" d="M128.769906,222.349941c2.166695,6.240412,3.322287,12.987375,3.143492,19.592312l1.599657-.334826c-.369415-6.720191-2.027962-13.116723-4.743149-19.257487h0Z" /><path class="st1" d="M119.530158,215.977666c5.131102,8.271018,6.867161,18.03979,6.249838,27.655989-.000035.000023,1.603813-.50267,1.603813-.50267.080429-9.788982-2.182683-19.060618-7.853652-27.153319h0Z" /><path class="st1" d="M117.470888,232.677902c1.32116,4.162038,2.123287,8.522575,2.302194,12.876052l1.545166-.524771c-.730284-4.375837-1.993402-8.334396-3.84736-12.35128h0Z" /><path class="st1" d="M151.885545,226.484998c.663893,4.358765,1.444319,7.973487,1.028887,12.367832-.000098.000004,1.521099-.053189,1.521099-.053189-.114622-4.585828-1.326358-7.943278-2.549986-12.314643h0Z" /><path class="st1" d="M154.129986,219.677123c1.775421,6.251811,2.542624,12.554411,1.7262,19.011778-.000041.000006,1.576245-.000889,1.576245-.000889.284614-6.64537-.968893-12.811296-3.302445-19.010889h0Z" /><path class="st1" d="M89.917273,241.061331c-3.40148,12.1077-6.832136,24.122491-7.488271,36.722656-1.679161-12.42536,2.000506-25.621088,7.488271-36.722656h0Z" /><path class="st4" d="M62.25907,323.059377c-7.087811-3.475022-14.992426-4.677249-22.834475-4.433838.969729-.194825,1.949709-.377991,2.937014-.500855,6.884007-.719986,14.279318.767356,19.897461,4.934692h0Z" /><path d="M111.719519,361.614004c2.87265-.865151,5.957405-.730514,8.916987-.743142-2.48476,1.928519-6.069743,1.844225-8.916987.743142h0Z" /></g></g></g><g><g><path class="st11" d="M98.158377,357.376381s7.625969,8.402919,9.155838,18.029196-7.636377,12.208638-11.548193,12.114578c-3.911816-.09406-8.17079-5.934792-11.159152-11.877764s-8.126116-13.613-12.115948-18.601534l13.775853-9.735643c4.490234.679016,8.327148,4.682129,11.891602,10.071167Z" /><path class="st11" d="M58.636697,361.751294s2.814015,12.208313.565106,21.474327c-2.248909,9.266014-7.413497,13.396654-11.622041,11.471963-4.208544-1.924691-7.678144-9.302101-7.778389-13.559335s.026349-9.522066.026349-9.522066c0,0-3.261846.813077-5.782276-3.907572-2.52043-4.720649.660648-10.600933.660648-10.600933l13.601152-1.091233,10.329452,5.734849Z" /><path class="st11" d="M74.868826,357.40348s9.705103,15.491243,9.471392,25.210934c-.233711,9.719691-3.116648,13.40245-10.811403,13.217429-7.694755-.185022-9.545071-9.249469-10.426076-14.74114s-4.146009-14.417424-10.272371-20.845663c0,0,7.101783-7.393453,7.72387-7.986327s6.894519-.239442,6.894519-.239442l7.420069,5.384208Z" /><path class="st10" d="M63.184913,323.228216l-7.576628-2.607479c-7.541204-2.213664-9.235622,1.468394-9.235622,1.468394l-23.126057,1.174286-.431375-3.571401c-2.330677,1.897062-9.543881,6.476815-13.540997,12.567658-9.648865,14.703032-8.15763,33.113661-8.15763,33.113661l4.556572-4.495179c3.018639,4.289156,6.101326,6.822657,12.478215,8.989847,6.376889,2.167191,21.467212,2.130325,21.467212,2.130325-2.799223-1.726479-4.073628-4.239898-3.297629-7.260496,3.853516,3.841064,10.816993,7.265579,10.816993,7.265579-.758492-3.388092,1.259801-11.324793,1.259801-11.324793,9.96202,5.506022,16.429073,6.186947,16.429073,6.186947,1.075855-2.608097-1.015877-10.995477-1.015877-10.995477,10.945335,1.246885,22.169402,6.429127,22.169402,6.429127,2.383229-4.155232,1.995246-12.193171,1.995246-12.193171,4.877269,1.551858,6.872515,3.32541,10.594471,7.653739-3.37227-7.952464-5.300292-9.930886-9.707695-15.191336-6.872515-8.202679-25.677476-19.340229-25.677476-19.340229Z" /><path class="st3" d="M40.120886,369.504873c.061957,2.975359-.031088,5.794709.289586,8.708555.210621,2.924454.907196,5.736478.981464,8.721737-3.073582-5.168595-4.083719-11.937824-1.27105-17.430292h0Z" /><path class="st3" d="M77.341589,361.697561c5.99897,6.589282,10.08283,16.691277,6.717992,25.419085.97564-9.091254-2.660653-17.444854-6.717992-25.419085h0Z" /><path class="st4" d="M69.353308,327.049856c-7.349669-4.372254-15.99303-6.456817-24.48046-5.62925-1.610713.064911-3.970353.589203-5.576195.850808-1.309184.389501-2.777566.773769-4.105464,1.134522-.868213.332396-3.120309,1.172891-4.016184,1.501114-1.769941.72325-3.466718,1.622725-5.273847,2.364485,1.571289-1.118042,3.161133-2.260925,4.844238-3.24762.964208-.466357,3.00091-1.548878,3.940498-1.970221,1.353063-.483788,2.81562-1.028591,4.172795-1.478996,1.026995-.211305,3.337559-.805087,4.342273-.949832,9.200281-1.373914,19.253622,1.072746,26.152345,7.424989h0Z" /></g><path class="st4" d="M4.483679,355.712515c.470884,3.079949,2.009308,5.528303,3.413126,8.222149-2.500856-1.741417-4.402424-5.16728-3.413126-8.222149h0Z" /></g></svg>