<svg id="Layer_3" xmlns="http://www.w3.org/2000/svg" xmlns:xlink="http://www.w3.org/1999/xlink" version="1.1" viewBox="0 0 242 380" width="242" height="380" preserveAspectRatio="none"><defs><style>
      .st0, .st1, .st2 {
        fill: none;
      }

      .st3 {
        fill: #6cc4b8;
      }

      .st4 {
        fill: #1e5739;
      }

      .st5 {
        fill: #b7b9b8;
      }

      .st6 {
        fill: #010101;
      }

      .st7 {
        stroke: #e7c322;
        stroke-linejoin: round;
        stroke-width: 1.425567px;
      }

      .st7, .st8 {
        fill: #23643c;
      }

      .st9 {
        fill: #848587;
      }

      .st10 {
        fill: #ebebeb;
      }

      .st11 {
        fill: #2fa79e;
      }

      .st12 {
        fill: #fff;
        opacity: .34;
      }

      .st13 {
        fill: #166f67;
      }

      .st14 {
        fill: #27b34b;
      }

      .st15 {
        fill: #fedf50;
      }

      .st16 {
        fill: #42283e;
      }

      .st17 {
        fill: #dbdcdb;
      }

      .st1 {
        stroke-width: 2.240463px;
      }

      .st1, .st2 {
        stroke: #1a1a1a;
        stroke-miterlimit: 10;
      }

      .st18 {
        fill: #b5b5b6;
      }

      .st19 {
        fill: #77cbc4;
      }

      .st20 {
        fill: #75c164;
      }

      .st21 {
        fill: #9ea0a3;
      }

      .st22 {
        fill: #cd9e2b;
      }

      .st23 {
        fill: #e7c322;
      }

      .st24 {
        fill: #169e49;
      }

      .st25 {
        fill: #333;
      }

      .st2 {
        stroke-width: 2.489403px;
      }

      .st26 {
        fill: #1a1a1a;
      }

      .st27 {
        clip-path: url(#clippath);
      }

      .st28 {
        fill: #878e94;
      }

      .st29 {
        fill: #41853f;
      }
    </style><clipPath id="clippath"><rect class="st0" x=".194241" y="0" width="242" height="365" rx="4" ry="4" /></clipPath></defs><rect class="st0" x=".194241" y="0" width="242" height="365" rx="4" ry="4" /><g class="st27"><path class="st29" d="M147.12006,309.038161s2.929066,13.817055,11.221423,19.373748c4.40368,2.950897,12.443212,4.502441,16.506128,7.210776,30.954271,20.634077,47.538317,35.085227,46.888286,34.251727l-235.439053.16127s13.966724-20.446274,36.912055-35.078079c12.844944-8.190979,41.65938-16.319075,45.291951-34.481929l78.619211,8.562488Z" /></g><path class="st0" d="M3.816449,365h234.347701c1.98,0,4.224333-2.027085,4.224333-4.007085V4.002472c0-1.98-1.62-3.6-3.6-3.6H3.6C1.611775.402472,0,2.014247,0,4.002472v356.990443c0,1.98,1.836449,4.007085,3.816449,4.007085Z" /><path class="st28" d="M35.408535,273.289504s-2.902909,11.648028-13.051348,15.554633c0,0,15.245981,4.414076,24.622296.733418,0,0-2.365334,5.228545-6.006128,7.699244,0,0,9.569842,3.2152,16.596703-2.933676,0,0,.883609,8.074554,6.245639,10.474789l7.866967-3.362247,6.593326-9.399638-12.472256-13.3863-20.098554-4.399355-10.296645-.980869Z" /><polyline class="st25" points="66.948383 282.428743 65.705568 312.767018 114.963493 334.927706 140.922267 325.571242 143.782521 296.073988 134.755904 267.902189 104.21849 265.123313 66.948383 282.428743" /><path class="st11" d="M176.444118,256.401184s2.170649.424933-.681481,4.242714c-2.852129,3.817781-19.065416,27.102258-37.818707,25.193781l-2.009045-9.22447s6.215534-8.500149,6.453722-8.865701c.238187-.365552,13.025049-9.999738,21.575978-11.61445,8.550929-1.614713,12.479533.268126,12.479533.268126Z" /><path class="st19" d="M141.809348,265.599521s14.519215-15.170841,33.874886-10.110065c1.334842.349011,1.554669,1.689973,1.554669,1.689973,0,0-17.028417-3.59663-36.790697,13.625977l1.361142-5.205884Z" /><path class="st13" d="M162.379539,261.922167c-.564008,5.257862-3.353592,11.19714-8.574549,13.159978,4.123208-3.362157,6.333401-8.471562,8.574549-13.159978h0Z" /><path class="st19" d="M88.524597,230.870137s-15.624716.88068-25.413563,11.729337c0,0-10.153444,12.243115-9.784527,21.278286s10.657612,29.041037,34.06945,33.985931c4.941366,1.043683,33.949933,12.601088,55.83041-6.507755,9.572706-8.360117,5.299534-12.329153-1.043777-18.457046,8.022304-14.53841-2.609112-26.865724-10.115337-32.878674-13.344396-10.689686-38.519213-10.319615-43.542657-9.15008Z" /><polygon class="st18" points="148.385966 253.988395 147.720518 261.104018 154.916671 256.890946 148.385966 253.988395" /><path class="st5" d="M149.954951,255.856885s2.10012-10.760221-.377046-21.035757c-2.659751-11.032917-6.93606-15.494646-7.621841-13.962638-.685781,1.532008-1.032311,8.857099-2.978832,12.483834,0,0-4.027249-22.986458-38.130668-29.792452-2.304133-.459834,8.500149,6.215534,10.882685,11.829811,0,0-17.646878-8.321839-36.576494-6.283351-18.929616,2.038488-30.273993,9.910184-34.801374,20.135207-4.527381,10.225023-1.663274,26.991794-1.663274,26.991794,0,0,18.265804,8.29591,27.86509,21.216255,0,0,7.37282-23.604967-3.113524-34.76166,0,0,6.781526-9.981986,28.885982-11.618202,22.104456-1.636216,36.763986,6.827844,36.763986,6.827844,0,0,23.035869,14.436971,13.523093,33.911606,0,0,6.7575-8.251649,7.342217-15.942291Z" /><path class="st9" d="M82.212058,232.09659c-13.811011-5.795207-25.92016-9.46731-40.4448-3.536498-.000025-.00023-.106958-.225144-.106958-.225144,9.542976-5.075763,21.371134-6.057486,31.554252-2.271986,3.336416,1.438192,6.575837,3.217771,9.144481,5.832765l-.146975.200864h0Z" /><path class="st9" d="M49.118308,240.758745c6.123139-2.352791,14.145509-1.176971,17.695743,4.880128,3.255471,5.791464,3.62051,12.858322,2.982715,19.2795-.545014,4.295405-1.472549,8.537611-3.122763,12.55138-.00003-.000009-.241729-.060311-.241729-.060311.300293-4.291.697266-8.501511.890625-12.69902.265784-7.68395,1.527805-17.86261-6.027245-22.536659-3.493751-2.12191-8.040137-2.211113-12.094337-1.180351l-.083008-.234665h0Z" /><path class="st9" d="M103.747703,212.091448c6.556774,3.150797,13.363613,9.852586,13.239379,17.595247-.000121.000135-.181761.042601-.181761.042601-.529297-.836334-.882324-1.695572-1.325684-2.51387-2.131639-4.043082-4.047161-8.278894-7.481039-11.440413-1.304605-1.317095-2.758219-2.508089-4.332437-3.515733l.081543-.167831h0Z" /><path class="st9" d="M123.346335,222.070665c-2.333972-.527469-4.110414-1.721767-5.923288-3.139011-1.850831-1.249713-3.746306-2.414225-5.726623-3.464535.000008-.000015.065438-.17485.065438-.17485,2.197266.551453,4.36084,1.332001,6.404785,2.343979,2.16922.879439,4.137356,2.127869,5.295379,4.288128.000031-.000057-.115692.14629-.115692.14629h0Z" /><path class="st11" d="M63.654616,284.412995c-1.498444.083247-4.849071.034082-4.849071.034082,0,0,14.362399,10.373413,24.567201,12.114621,4.948776.844391,10.513841-2.052822,10.513841-2.052822l7.86505-7.843543s-7.087148.661253-12.622502-5.814582-6.131821-15.914653-6.131821-15.914653l.276594-1.959052-13.459022-.457983-.166494,3.329876,10.489484.708134s-2.126655,5.729647,2.155088,12.191994c4.281743,6.462347,10.328857,8.073453,10.328857,8.073453,0,0-4.763874,5.74684-10.070161,7.496856,0,0-14.651453-5.660789-18.897045-9.90638Z" /><ellipse class="st10" cx="105.140387" cy="269.287649" rx="9.332784" ry="8.723433" transform="translate(-160.318986 154.825166) rotate(-45.347339)" /><path class="st9" d="M86.864402,228.993166c-4.694088-3.715585-9.442305-7.145184-14.725998-9.908414-5.336364-2.68425-11.205886-4.090551-17.173417-4.406463.000001-.000033-.000975-.18674-.000975-.18674,9.085028-.330106,18.447973,2.26654,25.815498,7.682047,2.40374,1.896429,4.612236,4.085058,6.228936,6.701147l-.144043.118423h0Z" /><path class="st17" d="M120.984959,295.810038s-5.793223,8.322423-6.64648,8.313243-1.816055-2.667451-1.899034-5.195751c-.062944-1.917856,8.545514-3.117492,8.545514-3.117492Z" /><ellipse class="st6" cx="103.172379" cy="269.027217" rx="5.037196" ry="6.270795" transform="translate(-8.095989 3.246229) rotate(-1.734568)" /><ellipse class="st10" cx="103.832527" cy="267.053132" rx="2.678114" ry="1.746251" transform="translate(-182.659345 271.633101) rotate(-69.66937)" /><path class="st12" d="M116.793226,255.587294s-15.925643-3.450906-22.20122-1.811713c-6.275578,1.639193-9.684304,4.313178-9.684304,4.313178,0,0-3.518888,12.913068.627723,19.416412,4.146612,6.503344,13.049033,9.544038,19.829767,7.609096s12.05056-9.314577,12.996398-14.956415c.945838-5.641837.364098-13.780074.364098-13.780074l-1.932461-.790485Z" /><path class="st0" d="M137.373857,212.619261s5.788564,7.446176,17.810966,8.273528" /><path class="st23" d="M38.495126,254.679479s46.53349-34.014433,111.543515-10.228039c0,0,.790374-6.415485,2.1228-12.350839,2.1228-9.456111,4.245601-11.578912,8.877166-17.175385-7.807809-3.560755-17.085829-8.126131-22.71913-10.426605l-6.10293-10.599827-11.563447,8.030172-33.399337.157484-12.076154-6.479887-9.719831,9.719831-25.611778,8.247959-11.063611-2.444316-3.217046,9.803326s13.250991,13.188887,12.929785,33.746127Z" /><path class="st22" d="M87.253562,202.458254c.131991,5.187888-.373598,12.27365-.615712,17.467327-.443514,5.851765-.550738,11.511497-1.310983,17.414575-.000063-.000005-.229555.033335-.229555.033335-1.270131-8.724314-1.205818-17.635823.173374-26.344162.44772-2.903748,1.002407-5.789185,1.759243-8.633362l.223633.062286h0Z" /><path class="st22" d="M65.403464,205.418657c4.464353,7.767595,7.559442,16.330071,9.141163,25.145685.569774,2.933722.868602,5.910254,1.106883,8.884528l-.231445.015915c-2.417666-7.083599-4.164882-14.05941-6.431747-21.124446-1.297847-4.285518-2.621261-8.379998-3.782607-12.800511l.197752-.12117h0Z" /><path class="st22" d="M39.970359,213.546816c.505867,12.356061,4.842264,24.080314,8.721789,35.687205-.000109.000036-.152453.083883-.152453.083883-4.463723-8.178354-7.984201-17.126113-8.880801-26.455803-.283749-3.106621-.377499-6.25309.141055-9.351433l.17041.036148h0Z" /><path class="st22" d="M25.607078,220.278078c6.029232,3.847614,9.877606,10.435671,11.741251,17.216652,1.419306,5.226849,1.5989,11.020202,1.233262,16.419699.000096-.000013-.173244-.013746-.173244-.013746-.274414-1.59259-.337402-3.152649-.541992-4.701904-.927125-7.492976-2.602151-15.081133-6.61531-21.576686-1.603076-2.632918-3.447492-5.07328-5.727456-7.191366l.083489-.152648h0Z" /><path class="st22" d="M121.089988,202.242342c.751933,11.732888,1.060576,23.556414-.365702,35.252442-.00002,0-.230001-.028748-.230001-.028748-.877222-5.843559-1.019595-11.737788-1.075217-17.592459.04326-2.585336.08872-6.217916.30471-8.764357.199706-2.931834.503905-5.871333,1.134765-8.851237l.231445-.01564h0Z" /><path class="st22" d="M138.561179,205.332781c-1.526899,7.186475-3.354593,14.025029-5.041988,21.122161-1.118641,4.248265-2.044654,8.525938-3.532176,12.687592-.000055-.000015-.231988-.014831-.231988-.014831.362144-5.859783,1.182366-11.688812,2.538619-17.40403,1.472854-5.681867,3.335024-11.291127,6.064854-16.50422.000042.000016.202679.113328.202679.113328h0Z" /><path class="st11" d="M126.532307,270.121079c-.003976-.137358-.0019-.267835.006721-.390107.1918-2.720344.414036-3.754722.414036-3.754722,0,0-5.548446-2.436093-8.433075,1.311735,0,0,.176375,1.241932.101279,2.843983,3.109075-1.266106,6.08936-2.187399,7.911039-.010888Z" /><ellipse class="st10" cx="136.260453" cy="269.093228" rx="8.692578" ry="7.232707" transform="translate(-165.184053 258.639222) rotate(-61.157558)" /><ellipse class="st6" cx="134.664325" cy="269.385581" rx="5.576072" ry="4.47914" transform="translate(-145.345164 380.28084) rotate(-85.045393)" /><ellipse class="st10" cx="135.451813" cy="267.710526" rx="2.381414" ry="1.552789" transform="translate(-164.573537 266.757231) rotate(-62.980195)" /><path class="st15" d="M37.124234,245.958825s16.912771-13.595649,51.644154-16.698223c34.731383-3.102573,62.314132,6.10293,62.314132,6.10293l.022315.219778c-.935364,4.857381-1.472632,9.218398-1.472632,9.218398-65.010025-23.786394-111.543515,10.228039-111.543515,10.228039.050791-3.250622-.237772-6.317008-.759639-9.176146l-.204815.105222Z" /><path class="st20" d="M52.124968,305.841679c2.440312-13.172356-.201992-27.264613-.201992-27.264613,0,0,13.122937,13.894685,41.16952,21.356593,4.133442,16.178379,12.367335,25.956126,21.870996,34.994048,0,0-17.962524-.061012-35.382099-6.871024-10.85613-4.244097-21.50138-11.10948-27.456426-22.215004Z" /><path class="st20" d="M114.963493,334.927706c9.794524-8.265994,14.172215-20.187029,18.658701-34.435589,0,0,10.084912-3.443629,10.048045-6.251358,0,0,.192982,9.649093,5.403492,20.842041-15.476789,21.240714-34.110238,19.844906-34.110238,19.844906Z" /><path class="st11" d="M55.013389,283.608974c-.620902-.206238-1.299263-.281096-1.975626-.444518-15.368417-3.713285-37.098375-15.185023-43.614958-32.219297,0,0,2.2114-3.078603,6.825063-2.434889s24.565367,8.251315,30.36809,11.8782c5.802723,3.626885,17.050098,16.553527,18.474066,19.17618s1.94724,4.205017,1.94724,4.205017c0,0-9.063918.822481-12.023875-.160694Z" /><path class="st13" d="M22.152,254.97661c2.216344,7.034021,7.632022,12.462798,13.692398,16.380568.874008.582063,1.797836,1.081682,2.681626,1.68387-7.970722-2.589615-15.548018-9.351012-16.374023-18.064438h0Z" /><path class="st19" d="M55.013389,283.608974c5.819902,2.015657,15.584777.449992,15.584777.449992l-3.383534-5.873189c-18.905233-24.558514-47.694766-30.980025-53.233139-30.690017-5.538373.290008-4.558688,3.449399-4.558688,3.449399,0,0,5.4519-3.887511,23.084629,4.769942,16.505928,8.104208,24.462517,15.407372,23.237242,15.79024-1.225275.382868-5.231199.872585-4.236591,3.523622.994608,2.651037,8.99666,4.321333,8.194709,5.236822s-3.050155,1.308771-4.689406,3.343188Z" /><path class="st22" d="M150.020164,245.232485c-1.376088-10.677942,2.107036-23.657686,10.762917-30.561252.000267.00014.124778.12186.124778.12186-5.297102,6.27982-8.065746,14.352893-9.661739,22.316779-.534034,2.683104-.805418,5.409523-1.052116,8.133722-.000012,0-.17384-.011109-.17384-.011109h0Z" /><path class="st8" d="M146.243235,309.026313c.156982,0,.298663.045621.442611.084867l.876721,2.337876c-.29583.403366-.76281.684319-1.319332.684319-.903357,0-1.635564-.695512-1.635564-1.553531s.732207-1.553531,1.635564-1.553531Z" /><ellipse class="st8" cx="134.600092" cy="317.398583" rx="1.702056" ry="1.616953" /><path class="st12" d="M127.224667,261.928788s-2.642061,12.286668,2.190332,17.258004c4.832393,4.971336,14.798388,5.580533,19.623999,1.850915,4.825611-3.729618,6.40228-10.305246,6.502682-13.416404.100403-3.111158.405911-9.733927.405911-9.733927,0,0-11.679233-8.282127-27.117475-2.098861,0,0-.999891,2.733366-1.605449,6.140274Z" /><path class="st26" d="M155.736366,261.967824s2.380055-.375972,2.704585.564537-.01406,4.417219-2.89927,5.088941l.194685-5.653478Z" /><polygon class="st26" points="50.600764 262.565323 82.997314 264.936098 83.348694 260.981932 46.950624 260.066067 50.600764 262.565323" /><path class="st17" d="M128.830117,255.788514s.120582-8.097215.917187-10.598514c.796605-2.501299,1.737114-2.825829,2.398415-2.082486.661301.743343,1.88962,4.77235,1.88962,4.77235,0,0,5.03625-10.648063,10.111057-9.76337,1.636712.285329-1.496446,8.450527-1.496446,8.450527,0,0,8.25998-7.109947,13.481244-5.744784,1.735295.453714-6.047149,8.401566-6.047149,8.401566,0,0,8.159697-2.657204,10.709338-.052104,1.125436,1.149916-5.499153,4.123951-5.499153,4.123951,0,0,5.495255.608258,5.006899,4.303915-.145724,1.102775-4.353537.28781-4.353537.28781,0,0-13.445185-6.938036-27.117475-2.098861Z" /><path class="st17" d="M118.276924,256.879711s3.928282-13.862359-2.247894-18.128711c-2.657444-1.835697-2.529418,8.037834-2.529418,8.037834,0,0-2.713728-8.695671-12.194867-11.17463-2.135747-.558417,2.212331,8.992403,2.212331,8.992403,0,0-7.852496-8.516577-15.315784-4.147108-2.020623,1.182998,5.945589,7.258928,5.945589,7.258928,0,0-6.022055-3.90653-13.588428.154987-2.322493,1.24668,8.257661,3.87038,8.257661,3.87038,0,0-6.884988-.393475-8.041473,4.029669-.488615,1.868779,4.392739,2.289411,4.392739,2.289411,0,0,14.03536-10.591237,33.109543-1.183164Z" /><path class="st21" d="M130.647106,255.24195s-1.253234-4.032676.373049-6.386962c.463721-.671305,2.053525,3.995319,2.053525,3.995319,0,0,5.521026-8.71551,6.473539-7.673915s-.898025,6.46585-.898025,6.46585c0,0,7.487599-5.748924,8.838272-4.317726.451353.478262-2.245899,4.456282-2.245899,4.456282,0,0,6.023824-1.739298,9.106192-.933375.809276.211595-4.436142,3.739517-4.436142,3.739517,0,0-12.989864-2.675858-19.26451.655009Z" /><path class="st21" d="M116.368785,254.462759s.179087-5.645126-.151927-6.308073c-.331014-.662948-3.21078,4.564253-3.21078,4.564253,0,0-2.938208-7.4215-6.024443-8.924264-1.278261-.622417.378063,5.718749.378063,5.718749,0,0-5.947857-4.476227-10.56329-5.067501-2.161161-.276862,3.360868,5.05764,3.360868,5.05764,0,0-7.023001-.971649-9.973632-.158028-2.950631.813622,8.053482,4.195131,8.053482,4.195131,0,0,1.552031-1.251353,6.428412-.336613,4.87638.914739,11.262423,2.944698,11.262423,2.944698l.440823-1.685991Z" /><path class="st2" d="M84.50823,258.674884s-4.693285,16.313855,5.416945,23.734717c6.120448,4.492381,21.238597,6.451097,27.285199-7.269514,3.155818-7.161006,1.774992-18.788193,1.774992-18.788193-9.091146-3.093813-23.197472-5.637433-34.477136,2.32299Z" /><path class="st1" d="M127.224667,261.928788s-2.642061,12.286668,2.190332,17.258004c4.832393,4.971336,14.798388,5.580533,19.623999,1.850915,4.825611-3.729618,6.40228-10.305246,6.502682-13.416404.100403-3.111158.405911-9.733927.405911-9.733927,0,0-11.679233-8.282127-27.117475-2.098861,0,0-.999891,2.733366-1.605449,6.140274Z" /><path class="st26" d="M128.544788,257.425226s-7.220388-.746982-9.978234.528479l.439654,2.681924,8.497668.225285,1.040912-3.435689Z" /><path class="st26" d="M119.113392,266.225425s4.560253-5.705777,7.839672-.249175l-.505235,2.059896s-3.371717-3.876377-6.935348.75364l-.399088-2.564361Z" /><path class="st21" d="M95.715281,297.899228s1.345925,11.76067,14.546802,19.633096c0,0,.821085-4.776651,1.94834-6.906278,0,0,3.850863,5.998188,3.553294,8.772576,0,0,8.024932-5.602698,10.455767-13.808917,0,0,1.501408,3.529971.571319,5.996369,0,0,9.400795-5.95601,10.701894-18.02285l-21.847909-.43585-15.128376,3.317587-4.801131,1.454267Z" /><path class="st16" d="M126.187101,298.656818s-5.483077,3.294962-7.262013,3.275823c-1.778936-.019139-6.650381-2.636052-6.650381-2.636052l9.883802-3.984171,4.028592,3.3444Z" /><path class="st17" d="M118.432557,279.737942s-13.803938,1.52472-23.582525,8.380218c-9.778587,6.855498-21.507933,11.899634-21.820285,12.54884-.312352.649206,20.406544,3.766835,32.495384-3.197667,0,0-3.694345,7.44803-2.793327,7.683613s11.226741-3.269574,16.475438-7.992368c0,0,6.28281,5.019263,6.94158,5.054112.65877.034849,1.235099-1.312347,1.602009-5.208996,0,0,3.566528,6.072023,4.745225,5.381941s1.1299-7.125837,1.1299-7.125837c0,0,15.080611,8.183849,32.87816-2.347599.950908-.562686,1.910102-1.676664.317063-1.549486-4.779128.381535-15.338583.451578-22.277137-6.225686-9.268415-8.919349-24.974479-6.878295-26.111485-5.401085Z" /><path class="st3" d="M123.461471,275.776245c-5.312102.763687-8.25518,2.119868-8.768275,6.263999-.513095,4.144131,5.306949,7.519776,10.003377,6.465962,4.696428-1.053814,7.65326-5.272048,6.123071-9.237372-1.530189-3.965325-4.542764-3.897342-7.358173-3.492589Z" /><path class="st8" d="M132.865158,314.484711c2.682869-.114195,4.466915,1.782629,2.699871,4.168252,1.219589-2.307273-.253325-3.793506-2.614863-3.372005-1.880956.288746-3.029138,2.167293-3.220123,3.994976-.622262,4.270404,3.544289,6.544807,6.440247,3.139365,2.756543-2.945829,3.683703-7.14936,5.140183-10.841139.915259-2.187553,2.49097-4.008204,4.524374-5.062451l.306377.723474c-1.733041,1.141665-3.128314,2.765753-3.877523,4.75892-1.224123,3.836577-1.812949,8.382692-4.836419,11.581846-2.39044,3.12123-7.57256,2.943987-8.849389-1.093493-1.092643-3.160476.624529-7.72926,4.287264-7.997745Z" /><path class="st8" d="M143.499168,308.749498c-.790829,3.357031-5.347378,5.889783-6.969287,1.70169,2.904191,2.460389,4.676414.197454,6.969287-1.70169h0Z" /><ellipse class="st8" cx="69.058616" cy="310.265712" rx="1.616999" ry="1.738227" transform="translate(-243.526714 367.92259) rotate(-87.902553)" /><ellipse class="st8" cx="94.65337" cy="320.783877" rx="1.616999" ry="1.738227" transform="translate(-229.379825 403.633406) rotate(-87.902553)" /><ellipse class="st8" cx="55.295712" cy="302.907633" rx="1.616999" ry="1.738227" transform="translate(-249.432758 347.080127) rotate(-87.902553)" /><ellipse class="st8" cx="82.801405" cy="318.407235" rx="1.616999" ry="1.738227" transform="translate(-238.422969 389.499721) rotate(-87.902553)" /><path class="st8" d="M93.034812,321.57506c-.69776-2.560415,1.159096-4.092412,3.660721-3.608606,4.581399.949768,5.46478,8.496731,1.175239,10.467346-4.922683,2.188638-8.743878-1.844499-9.621969-6.388659-.388561-1.890873-.609452-3.914203-1.563652-5.587283-2.911675-5.036911-8.496572-.106141-11.929946,1.851843-3.075951,1.482769-6.94877.89628-9.508962-1.326379-4.447933-3.413603-3.755175-12.304485,2.033644-13.814775,3.262952-.608361,6.968974,1.620969,7.560649,4.956377.562166,3.343104-3.710999,6.541469-6.463008,4.106439-.754379-.607373-1.487906-1.821977-.785117-2.707073-.609043.911501.174237,1.988255.935068,2.512553,1.66779,1.265713,3.925194.569656,4.952608-1.146497,1.789061-2.58004-.644904-5.61524-3.246594-6.373648-6.36149-2.028423-8.348652,8.018562-3.889494,11.157922,2.090017,1.733357,5.187158,2.172383,7.633193.984754,3.449528-2.068236,7.482729-5.713661,11.857004-3.619373,5.026061,2.813464,2.587989,10.024477,6.544338,13.521577,1.333663,1.252351,3.342652,1.381737,5.002965.746136,2.653425-1.125663,2.799803-4.963832,1.377936-7.149716-1.624333-2.685325-6.362914-2.424675-5.724623,1.417063h0Z" /><path class="st8" d="M62.713543,312.379794c-2.199883-5.087831-3.665903-12.858333-9.648505-14.036568l.071066-.711497c6.648913-.655173,9.985085,9.178812,9.577439,14.748064Z" /><path class="st8" d="M83.52407,312.430986c3.456082.823037,6.870178,1.331265,9.846158-.878857-1.810842,3.653286-7.158009,3.368476-9.846158.878857h0Z" /><path class="st8" d="M65.594871,304.114275c1.758354-1.683305,3.998077-3.069101,2.657067-5.764524,3.259539,1.958295.257235,5.718075-2.657067,5.764524h0Z" /><path class="st22" d="M37.530906,245.608553c27.349121-19.889709,67.63518-21.200737,99.741103-14.524671,4.801378,1.081617,9.583604,2.282957,14.216905,3.92938-20.123927-5.239396-41.163401-6.899601-61.874498-5.269237-18.105138,1.745905-36.631516,5.869697-52.083509,15.864528h0Z" /><g><polygon class="st8" points="116.121608 341.875115 103.015394 358.696701 116.266815 375.807759 128.874964 358.310737 116.121608 341.875115" /><path class="st8" d="M148.687768,314.503855c2.150716,3.744626,6.925793,10.087557,10.533123,12.704639.82017.595025,1.918754,1.240306,3.261579,1.9278,0,0-6.349289,19.943477-43.144497,23.288496-36.795208,3.345019-66.643069-20.584732-70.245397-23.672441l-5.982438-6.046765c3.666655-3.473673,5.274836-5.210507,6.754365-8.877166,1.021439-2.531393,1.751761-5.239049,2.260679-7.986808,14.314051,25.568888,46.045776,29.582476,63.751818,29.115992,12.521753-.329898,26.159895-8.202679,32.810767-20.453747Z" /><path class="st0" d="M134.513757,365.339652l-.164917-.187586c.096343-.030036.192686-.059789.289029-.090251l-.124112.277836Z" /><path class="st0" d="M73.953108,362.917192l-.030603-.072824c.03457.011051.070274.021252.104844.032303l-.074241.040521Z" /><path class="st0" d="M167.889808,346.49836l-.708404-.125529c.254459-.250492.508918-.500842.754876-.753884l-.046471.879413Z" /><path class="st0" d="M56.188024,355.111567l-.0034-.012751c.005667.002975.010768.006092.016435.009068l-.013035.003684Z" /><path class="st14" d="M58.172019,314.404223c-3.215537,5.308471-6.176137,10.948536-10.606734,15.345335,3.803401-4.850334,6.028099-10.779207,8.519042-16.36033-.000198-.000111,2.087692,1.014995,2.087692,1.014995h0Z" /><path class="st14" d="M68.023582,322.525896c-3.143646,5.025036-6.071754,10.353047-10.423154,14.428339,3.53506-4.663406,5.503478-10.362372,7.698246-15.724748-.00019-.0001,2.724908,1.296408,2.724908,1.296408h0Z" /><path class="st14" d="M79.161277,328.67708c-2.782704,5.638214-5.566747,11.310604-9.467186,16.253632,2.866022-5.471867,4.545578-11.527517,6.19287-17.437555-.000099-.000037,3.274315,1.183923,3.274315,1.183923h0Z" /><path class="st14" d="M93.610496,333.4312c-2.216814,5.473057-4.569503,10.886302-7.706004,15.873743,2.059669-5.422534,3.28733-11.147747,4.353028-16.811413-.000051-.000014,3.352976.937669,3.352976.937669h0Z" /><path class="st14" d="M107.411277,335.132891c-1.211757,5.363965-2.54586,10.704673-4.781678,15.715901,1.104069-5.273627,1.27351-10.720402,1.317381-16.066451-.000059-.000005,3.464296.35055,3.464296.35055h0Z" /><path class="st14" d="M146.31655,319.443224c3.056572,4.860681,6.226215,9.846588,10.447665,13.808665-4.785204-3.431016-8.601569-7.976668-12.355947-12.486807.000079-.000081,1.908282-1.321858,1.908282-1.321858h0Z" /><path class="st14" d="M136.891257,327.734819c2.65469,5.084326,5.492617,10.175699,9.076614,14.701476-4.372356-3.89896-8.070487-8.459257-11.643551-13.114127.000043-.000038,2.566937-1.587349,2.566937-1.587349h0Z" /><path class="st14" d="M125.317039,333.172564c.964272,5.435358,2.038769,10.955479,4.072687,16.132373-3.10688-4.730988-5.315445-9.965141-7.434079-15.222613.000063-.000031,3.361391-.90976,3.361391-.90976h0Z" /><path class="st25" d="M29.553716,331.036015s23.424933,40.833964,89.800809,37.052469c19.67588-1.120953,49.53215-16.339147,56.093676-33.578879-6.078921-1.881393-13.520057-4.891239-17.848692-8.445304-8.66962,11.231099-18.560834,20.088578-41.29123,20.747137-39.013568,1.130326-59.093918-10.886583-69.553935-27.782171-5.24786,5.153643-10.767981,8.404372-17.200627,12.006747Z" /><path class="st8" d="M95.754964,366.685337l9.704867-7.088055,19.040877-1.029237,9.848132,6.584021c-5.268262,1.639815-10.408445,2.675077-14.994373,2.936337-18.215629,1.037813-33.177132-1.295388-45.327119-5.211732l13.163289-7.139017,8.564327,10.947683Z" /><path class="st8" d="M29.625123,331.156586l10.992737,1.165892,1.035404,12.022616,11.315203-.701037,3.216156,11.454759c-17.908465-10.132734-25.750219-22.595694-26.559501-23.942229Z" /><path class="st8" d="M152.278274,357.264833l3.871289-12.848757,11.031841,1.956755c-8.265663,8.15331-20.704679,14.956685-32.543535,18.688985l5.301132-11.897228,12.339273,4.100245Z" /><path class="st8" d="M175.448201,334.509606c-1.46498,3.849328-4.096845,7.59608-7.511921,11.109341l.711805-13.52415c2.304865.928152,4.638066,1.745792,6.800116,2.414809Z" /><path class="st8" d="M73.922505,362.844368c-6.764413-2.188545-12.64587-4.866172-17.721446-7.736485l12.97797-3.744484,4.743476,11.48097Z" /><path class="st14" d="M124.500632,358.568041c3.718653,1.529909,7.016586,3.727565,9.848216,6.58391-3.721695-1.52441-7.013015-3.732481-9.848216-6.58391h0Z" /><path class="st14" d="M95.755027,366.68535c2.76042-3.000234,6.003373-5.376561,9.704516-7.088177-2.755959,3.005222-6.006973,5.371425-9.704516,7.088177h0Z" /><path class="st14" d="M74.027488,362.876665c4.151466-2.785042,8.49714-5.263101,12.888177-7.645854.249518-.137075.559088-.065663.72901.151622,2.131562,2.745951,4.21329,5.53193,6.185544,8.396731.641116.968992,1.31055,1.915922,1.924808,2.906187-3.193263-3.367585-6.143724-6.953676-9.018559-10.592342.000004-.000004.729008.151577.729008.151577-4.391443,2.380589-8.839764,4.671363-13.437988,6.63208h0Z" /><path class="st14" d="M41.653464,344.345079c3.734952-.683764,7.500766-1.016698,11.279295-1.277295.275392-.018786.520021.164411.591799.420301,1.065858,3.828906,2.047989,7.673044,2.660174,11.610714-.773943-1.842342-1.433611-3.716671-2.050311-5.603115-.622559-1.884827-1.186035-3.786224-1.72168-5.695465l.591309.420105c-3.781635.207826-7.559949.342273-11.350586.124756h0Z" /><path class="st14" d="M29.625144,331.156572c3.702243-.051363,7.377717.23204,11.053223.593858.277343.027601.488281.24922.512207.51692.345666,4.018318.599795,8.036241.462909,12.077728-.825619-3.95654-1.262433-7.956884-1.608924-11.973141.000018-.000003.512714.52255.512714.52255-3.669564-.41715-7.32343-.911119-10.932129-1.737915h0Z" /><path class="st14" d="M152.278464,357.264818c.811355-4.420417,2.017843-8.732783,3.327124-13.021765.085962-.277033.365258-.440607.643579-.389063,3.679808.683736,7.336086,1.453104,10.932133,2.518813-3.742564-.23598-7.441307-.771208-11.131353-1.394591.000002-.000015.645998-.397354.645998-.397354-1.276963,4.295742-2.653674,8.553367-4.41748,12.68396h0Z" /><path class="st14" d="M134.637839,365.061815c1.344968-4.137033,3.020573-8.155249,4.77148-12.133241.12061-.275206.43311-.407897.712895-.314421,3.082889,1.034469,6.146542,2.129587,9.16113,3.355872.997561.433069,2.008303.828363,2.99512,1.294794-4.242812-.927664-8.398698-2.199187-12.522462-3.549708.000001-.000005.712892-.314336.712892-.314336-1.787487,3.961708-3.654004,7.89482-5.831055,11.661041h0Z" /><path class="st14" d="M167.936179,345.618944c-.556656-4.543435-.324748-9.064812.711787-13.524147.563252,4.543506.318678,9.064234-.711787,13.524147h0Z" /><path class="st14" d="M56.337546,355.184862l-.144531-.062378c-.01394-.006359-.010436-.02514.003428-.030731,4.19872-1.688904,8.495595-3.038087,12.822743-4.281251.282715-.083252.580566.067841.691895.333252,1.172837,2.876627,2.288164,5.779222,3.276853,8.726502.311526.991424.654787,1.969604.934573,2.97412-1.977688-3.647341-3.670738-7.438833-5.275396-11.261136.000005-.000003.691411.333127.691411.333127-4.324707,1.253113-8.679688,2.400208-13.132812,3.207581l.003906-.030579.12793.091492h0Z" /><ellipse class="st23" cx="46.191974" cy="339.117648" rx="2.149687" ry="2.042203" /><path class="st23" d="M33.217345,328.980495c.390939.38473.939456.624002,1.546798.624002,1.187239,0,2.149687-.914325,2.149687-2.042203,0-.281866-.060109-.550395-.168814-.794649l-3.527672,2.21285Z" /><ellipse class="st23" cx="76.655844" cy="355.273864" rx="2.149687" ry="2.042203" /><ellipse class="st23" cx="96.538723" cy="359.036932" rx="2.149687" ry="2.042203" /><ellipse class="st23" cx="132.781747" cy="356.250081" rx="2.149687" ry="2.042203" /><ellipse class="st23" cx="148.173149" cy="349.304917" rx="2.149687" ry="2.042203" /><ellipse class="st23" cx="161.038607" cy="338.497933" rx="2.149687" ry="2.042203" /><path class="st23" d="M112.643327,348.427487c1.320466,0,2.661334-.018135,4.030538-.052139,15.998607-.405774,26.470525-6.317834,32.438124-11.207526,6.492385-5.318134,9.153719-10.493454,9.263664-10.711076.006234-1.040221-.457913-1.426018-1.367504-1.188561-.103144.201754-10.802318,20.615845-40.377355,21.366187-56.586216,1.389606-69.111374-28.105806-69.230386-28.398235-.885222-.073249-1.36297.414275-1.386773,1.529304.119012.296963,12.210626,28.662045,66.629691,28.662045Z" /><ellipse class="st23" cx="59.916113" cy="349.047608" rx="2.149687" ry="2.042203" /><path class="st23" d="M112.090205,335.837156c.954363,0,1.916659-.011334,2.897091-.038537,20.183294-.553122,33.045652-16.700494,34.691417-19.930818.210821-1.192528-.196653-1.905041-1.158383-2.186986-1.573225,3.08751-12.350346,19.683703-33.580639,20.37683-46.092919,1.504843-62.622956-28.338446-62.785039-28.637676-.591093.705996-.848952,1.628905-.637564,2.85742.162083.301497,15.523126,27.559768,60.573117,27.559768Z" /><path class="st23" d="M110.898952,369.203573c2.756543,0,5.585628-.079341,8.505388-.247091,20.307973-1.156116,50.198108-16.641271,56.858243-34.137162-.30263-.649324-.783779-.969806-1.62763-.621129-6.257762,16.444051-35.654847,31.902004-55.330357,33.02185-34.043086,1.940462-56.447936-8.151752-69.247954-16.95637-13.830322-9.514155-19.690244-19.561031-19.74805-19.660774-.893156-.13318-1.316499.241849-1.509752.865954.226689.39444,22.374247,37.734723,82.100112,37.734723Z" /><polygon class="st8" points="115.776879 359.017613 115.858555 378.104144 129.843717 358.696164 115.776879 359.017613" /><polygon class="st20" points="129.843717 358.696164 115.697489 340.465506 115.776879 359.017613 129.843717 358.696164" /><polygon class="st24" points="115.776877 359.017155 115.697489 340.465506 101.159864 359.124281 115.776877 359.017155" /><polygon class="st4" points="101.159864 359.124281 115.858555 378.104144 115.776877 359.017155 101.159864 359.124281" /><polygon class="st14" points="115.628362 347.113126 106.225918 359.180991 115.732534 371.456524 124.777664 358.904099 115.628362 347.113126" /></g><path class="st7" d="M177.986682,345.207888s-6.772992,9.423294-17.07972,15.681509h38.576609l-21.496889-15.681509Z" /><polygon class="st20" points="181.722622 349.808552 181.456302 356.642961 174.891847 358.906978 175.498421 352.004503 181.722622 349.808552" /><path class="st7" d="M28.097413,341.085197s6.478515,11.484639,22.085845,19.435544H6.600524s9.423294-12.368073,21.496889-19.435544Z" /><polygon class="st20" points="21.690636 348.068126 30.583473 349.374341 32.621372 358.269213 23.687301 356.508862 21.690636 348.068126" /></svg>