<svg id="Layer_3" xmlns="http://www.w3.org/2000/svg" xmlns:xlink="http://www.w3.org/1999/xlink" version="1.1" viewBox="0 0 242 387" width="242" height="387" preserveAspectRatio="none"><defs><style>
      .st0, .st1, .st2 {
        fill: none;
      }

      .st3 {
        fill: #6cc4b8;
      }

      .st4 {
        fill: #b7b9b8;
      }

      .st5 {
        fill: #d44097;
      }

      .st6 {
        fill: #f196bf;
      }

      .st7 {
        fill: #d55fa2;
      }

      .st8 {
        fill: #1d8a82;
      }

      .st9 {
        fill: #ed1a79;
      }

      .st1 {
        stroke: #1a1a1a;
        stroke-width: 2.389639px;
      }

      .st1, .st10 {
        stroke-linejoin: round;
      }

      .st2 {
        stroke: #e7c322;
        stroke-linecap: round;
        stroke-miterlimit: 10;
        stroke-width: 1.815788px;
      }

      .st11 {
        fill: #2fa79e;
      }

      .st10 {
        fill: #f2b1d0;
        stroke: #fff;
        stroke-width: 1.25px;
      }

      .st12 {
        opacity: .4;
      }

      .st12, .st13 {
        fill: #fff;
      }

      .st14 {
        fill: #166f67;
      }

      .st15 {
        fill: #fedf50;
      }

      .st16 {
        fill: #c52f85;
      }

      .st17 {
        fill: #42283e;
      }

      .st18 {
        fill: #dbdcdb;
      }

      .st19 {
        fill: #fee054;
      }

      .st20 {
        fill: #77cbc4;
      }

      .st21 {
        fill: #9ea0a3;
      }

      .st22 {
        fill: #aa206f;
      }

      .st23 {
        fill: #cd9e2b;
      }

      .st24 {
        fill: #e7c322;
      }

      .st25 {
        fill: #a6aabb;
      }

      .st26 {
        fill: #333;
      }

      .st27 {
        fill: #1a1a1a;
      }

      .st28 {
        clip-path: url(#clippath);
      }

      .st29 {
        fill: #e8e8e8;
      }
    </style><clipPath id="clippath"><rect class="st0" x=".194241" y="0" width="242" height="365" rx="4" ry="4" /></clipPath></defs><rect class="st0" x=".194241" y="0" width="242" height="365" rx="4" ry="4" /><g class="st28"><path class="st5" d="M139.875821,314.674382s17.281962,13.630313,36.246973,20.950085c26.561501,10.251729,35.475272,35.372356,35.475272,35.372356l-213.384726,3.202404-4.323033-18.954839s13.301641-11.971477,24.608037-16.294511c11.306395-4.323033,40.237465-12.636559,44.227958-28.598529l77.14952,4.323033Z" /></g><path class="st0" d="M3.816449,365h234.347701c1.98,0,4.224333-2.027085,4.224333-4.007085V4.002472c0-1.98-1.62-3.6-3.6-3.6H3.6C1.611775.402472,0,2.014247,0,4.002472v356.990443c0,1.98,1.836449,4.007085,3.816449,4.007085Z" /><path class="st21" d="M38.089406,282.793815s-3.036241,12.144965-14.675166,16.361967c0,0,5.884375,5.431529,16.699327,3.204921,5.735122-1.180761,7.590603-2.192841,7.590603-2.192841,0,0-.16868,7.759283,3.710962,12.144965,0,0,3.879642-7.590603,7.253243-8.940044,0,0,1.539628,8.062826,12.819685,13.157046l.8434-5.229082s20.916329,1.855481,26.988812,4.217002c6.072483,2.361521,21.253689-5.903803,21.253689-5.903803,0,0,3.710962,5.229082,3.036241,11.132885,0,0,8.602684-3.542282,10.795525-10.964205,0,0,9.108724,3.879642,12.144965,3.204921,0,0-4.385682-5.397762-4.891722-10.120804s-1.686801-7.759283-1.686801-7.759283l-29.012972,1.01208-44.868899-9.446084-17.542728-8.602684-10.458164,4.723042Z" /><polygon class="st22" points="116.880007 306.58398 118.988485 325.735987 86.307078 324.154629 91.753979 305.881154 116.880007 306.58398" /><path class="st22" d="M124.05237,321.780034s2.954631,22.750659,17.13686,31.910016l15.659545-12.409451s-14.182229-7.091115-22.455196-27.182606l-10.341209,7.682041Z" /><path class="st22" d="M80.914756,321.780034s-2.363705,24.227975-16.545934,33.387331l-19.500565-10.045746s16.250471-9.454819,24.523438-29.546311l11.523061,6.204725Z" /><path class="st29" d="M86.233092,316.461698s8.272967,6.204725,16.841397,5.909262,15.955008-5.022873,15.955008-5.022873l7.386578-2.068242,19.796028,39.887519s-15.068618,12.409451-36.046499,14.477692c-20.977881,2.068242-53.478822-11.818524-54.365212-12.409451-.886389-.590926,24.523438-44.024003,24.523438-44.024003l5.909262,3.250094Z" /><ellipse class="st24" cx="141.759569" cy="320.709206" rx="1.538875" ry="1.389952" /><ellipse class="st24" cx="146.628095" cy="325.573191" rx="1.706663" ry="1.541502" /><ellipse class="st24" cx="152.706257" cy="330.701612" rx="1.793552" ry="1.619983" /><path class="st4" d="M42.475088,252.600082s.8434-17.711408,19.735568-25.302011c18.892168-7.590603,33.904694-11.132885,53.977623-5.566442,0,0-1.180761-5.903803-2.698881-8.940044,0,0,15.012526.33736,29.350333,23.10917,0,0,4.891722-4.385682,6.409843-10.120804,0,0,11.301565,18.217448-1.518121,46.04966,0,0-7.084563-21.085009-19.229528-25.302011-12.144965-4.217002-35.422815-6.241163-35.422815-6.241163l-27.494852,8.265324s-10.120804,6.915883-10.626845,6.915883-12.482325-2.867561-12.482325-2.867561Z" /><path class="st11" d="M170.334582,267.781288s6.072483-.67472,8.771364-.33736c2.698881.33736,3.879642,1.855481,3.879642,1.855481,0,0-2.698881,15.012526-22.94049,20.578969-20.241609,5.566442-20.747649,2.192841-20.747649,2.192841l-1.349441-7.927963,12.144965-10.626845,20.241609-5.735122Z" /><path class="st20" d="M176.913105,268.793369s-6.072483-1.349441-18.217448,4.217002c-12.144965,5.566442-18.723488,11.807605-18.723488,11.807605l.33736-6.241163s8.434004-7.084563,19.060848-9.783444c10.626845-2.698881,16.699327-3.542282,21.085009-2.698881,4.385682.8434,2.530201,3.204921,2.530201,3.204921l-6.072483-.50604Z" /><path class="st20" d="M106.742195,236.912835c11.537398,1.3776,32.321372,8.790961,38.121696,23.61521,5.852303,14.957095-2.179872,23.160167-2.179872,23.160167,0,0,3.023273,4.334685.155711,11.419248-2.867561,7.084563-20.916329,15.855927-36.772256,14.169126-15.855927-1.686801-31.037133-5.397762-38.965097-10.626845-7.927963-5.229082-8.602684-7.253243-8.602684-7.253243,0,0-6.578523-21.422369-6.747203-26.145411-.16868-4.723042,6.409843-13.831766,6.409843-13.831766,0,0,14.675166-18.554808,48.579861-14.506486Z" /><path class="st8" d="M168.141953,274.697163c-2.070745,6.701205-7.97603,11.944156-14.637656,13.882373-.957071.26814-1.938028.448011-2.905313.624128,7.348082-2.630037,13.780995-7.59904,17.542969-14.5065h0Z" /><path class="st11" d="M34.715804,261.877486s-8.940044-2.530201-13.157046-2.361521-5.229082,1.349441-5.229082,1.349441c0,0-1.686801,8.434004,12.313645,18.048768,14.000446,9.614764,22.097089,12.144965,25.639371,12.482325,3.542282.33736,6.578523-.33736,7.590603-1.686801s-3.542282-8.940044-3.542282-8.940044l-4.385682-7.927963s-8.771364-5.735122-11.638925-7.590603c-2.867561-1.855481-7.590603-3.373601-7.590603-3.373601Z" /><path class="st8" d="M26.956406,265.082402c2.37839,6.131252,5.602317,12.232868,11.301781,15.855912-6.54117-2.26728-10.431583-9.30271-11.301781-15.855912h0Z" /><path class="st14" d="M51.752492,275.034531s-8.022667,1.340507-7.590603,5.229082c.16868,1.518121,1.349441,3.542282,1.349441,3.542282,0,0-1.686801-4.048322,3.036241-5.735122,0,0,1.855481,2.192841,3.373601,2.024161,1.518121-.16868,3.036241-2.698881,3.036241-2.698881l-3.204921-2.361521Z" /><path class="st4" d="M60.692535,278.576813s8.16802-26.873328-7.590603-30.025053c-3.373601-.67472-9.446084-.50604-9.446084-.50604,0,0-2.361521,9.952124-1.349441,17.205367,0,0,12.651005,5.060402,18.386128,13.325726Z" /><path class="st21" d="M124.03209,241.902821c-4.383431-9.954635-13.431947-17.166929-23.34913-21.178217-1.426748-.604238-2.910147-1.061437-4.360342-1.656103,1.519531.332748,3.04834.68161,4.557129,1.104477,10.402605,3.199289,20.115641,10.981133,23.152344,21.729843h0Z" /><path class="st21" d="M112.720078,238.058629c-14.67697-6.921996-30.97825-11.119265-47.272442-10.056753-1.618321.186696-3.422847.401895-5.043932.559545,17.726557-4.201537,36.837736.360089,52.316375,9.497208h0Z" /><path class="st21" d="M79.132676,239.337178c-11.025942.164336-22.777107.225841-32.583549,5.900771,8.616777-7.0758,21.996087-7.463057,32.583549-5.900771h0Z" /><path class="st20" d="M50.403051,282.287774c.654421,1.526981,6.409843,3.542282,6.409843,3.542282,0,0-3.710962,3.204921-3.204921,4.385682s1.260666,1.086021,3.116147,1.423381,5.671593-1.521647,5.671593-1.521647c0,0,.995705-5.974217-1.703177-11.54066s-9.783444-12.144965-22.77181-17.036687c-12.988366-4.891722-20.072929-3.373601-21.759729-1.180761,0,0,15.349887.8434,23.61521,5.566442s10.964205,7.253243,15.181206,11.470245c0,0-5.566442,2.530201-4.554362,4.891722Z" /><path class="st5" d="M113.341832,301.91014s20.940286,1.814098,30.025776-8.822574c0,0-2.982451,13.535748-1.43127,22.621238,0,0-11.309915,9.247458-26.156936,11.241834l-2.437571-25.040498Z" /><path class="st5" d="M94.284462,302.131738l-5.318336,25.040498s-19.836559-1.68228-28.92205-14.09173c0,0,.472729-8.145547-1.521647-21.441386,0,0,25.125361,8.71984,35.762033,10.492618Z" /><path class="st5" d="M113.341832,301.91014s20.940286,1.814098,30.025776-8.822574c0,0-2.982451,13.535748-1.43127,22.621238,0,0-11.309915,9.247458-26.156936,11.241834l-2.437571-25.040498Z" /><path class="st26" d="M33.509511,331.659886s-12.330459,6.12455-15.580553,6.715476c0,0,32.516242,38.527283,83.668216,37.178958,55.442222-1.461413,68.910661-35.77541,71.865292-41.093746l-12.965093-6.155483s-14.28527,36.021631-58.604736,33.657926c-44.319466-2.363705-68.383125-30.303131-68.383125-30.303131Z" /><polygon class="st23" points="109.721401 207.487999 83.848352 210.325929 98.762787 220.147088 109.721401 207.487999" /><polygon class="st23" points="77.790268 212.400481 52.045387 218.865614 70.232603 225.626394 77.790268 212.400481" /><polygon class="st23" points="125.25249 209.461799 149.777024 218.257671 135.417461 224.681686 125.25249 209.461799" /><path class="st24" d="M42.196381,256.17374s44.285201-30.547345,110.414767.43908l13.998499-20.946761-4.785126-3.417947-7.840879-16.30347-19.673593,2.460785-17.887255-20.621613-22.444518,15.66559-17.092069-10.238123-13.327658,17.244914-19.653195-5.297818-6.835894,16.577042-3.417947,2.56346s8.359713,12.61717,8.544867,21.87486Z" /><path class="st15" d="M40.963907,249.793853c.809775,2.484739,1.186185,4.06546,1.232474,6.379887,0,0,44.285201-30.547345,110.414767.43908l2.46424-3.687402c-36.098834-22.090092-77.436369-19.794821-114.11148-3.131564Z" /><path class="st15" d="M113.203965,237.75475c5.135776-2.971402,9.996268-6.474795,13.294452-11.393033,2.762012-3.884012,4.422781-10.515133-.458637-13.363138-3.798837-2.592483-8.497735-.188033-11.513031,2.650034,2.3573-3.248653,6.58184-6.049859,10.793427-4.619016,2.0954.685961,3.956589,2.164442,4.886217,4.2042,3.797854,10.264353-8.460063,19.761551-17.002429,22.520952h0Z" /><path class="st15" d="M114.526719,215.648579c-2.785938-5.113434-6.931151-8.261071-12.178678-4.071276-8.950029,7.240866,5.49045,20.652759,10.855718,26.177536-7.232795-4.83515-21.929386-18.312818-12.479038-26.935638,5.89515-5.008822,11.643099-1.97213,13.801999,4.829378h0Z" /><path class="st15" d="M149.300644,228.460515c-1.102476-4.534795-4.109639-11.21772-9.428776-6.884803-5.356399,5.305397-.995714,18.225133,1.957332,24.173267-4.349811-5.637591-7.080308-13.185966-5.909688-20.436432.58317-3.79989,4.474738-7.624641,8.564355-6.359479,3.693005,1.455994,4.574385,6.012047,4.816777,9.507447h0Z" /><path class="st15" d="M83.211777,238.229512c-6.795059-2.812688-20.63783-10.680693-16.142767-19.673667,2.853704-6.07047,12.185316-3.528439,13.513884,2.293004-1.467861-3.115659-5.248879-4.989681-8.518561-4.378995-1.565935.327988-2.826189,1.374039-3.463396,2.840256-3.67416,7.257167,9.573957,15.277973,14.61084,18.919403h0Z" /><path class="st15" d="M80.582871,220.848714c.685673-3.44119,2.764286-7.747465,6.77439-8.012543,4.131688-.223361,7.507123,3.566462,7.697173,7.495858.349053,7.694811-5.441586,13.853812-11.50074,17.55576,4.832986-4.633397,10.002764-10.365077,9.69584-17.401988-.134367-3.186454-2.629015-6.125453-5.858137-6.256807-3.414506.006022-5.535247,3.762088-6.808525,6.61972h0Z" /><path class="st15" d="M56.722519,243.698232c-8.194995-.352343-21.163001-6.086993-16.535052-16.248392,2.111537-4.53354,8.032238-2.813609,11.059406-.275319-2.543563-1.064599-6.116325-2.385055-8.478478-.642179-1.961743,1.745396-2.232694,5.405102-1.120187,7.754614,2.912818,5.461505,9.526836,7.438579,15.074311,9.411277h0Z" /><path class="st15" d="M51.246934,227.174336c.169117-2.352484,1.043209-5.002695,3.167452-6.384491,4.141813-2.429618,9.200863,1.288447,9.718117,5.646678.962994,6.619823-2.700485,12.874954-7.40987,17.090855,3.368202-4.927532,6.508717-10.685679,5.627455-16.766442-.407297-2.823056-2.520984-5.125538-5.413284-5.316115-3.077316-.23182-4.856816,3.100839-5.68987,5.729514h0Z" /><path class="st15" d="M142.17125,246.090794c7.147651-2.833281,20.614161-7.343604,15.002403-17.285719-1.808138-2.718694-5.39696-1.733482-7.872987-.344424,4.780114-4.462044,10.198718-2.193166,10.818303,4.228964.890874,8.960005-10.937006,12.43877-17.947719,13.40118h0Z" /><polygon class="st23" points="122.34022 239.539311 132.165184 231.225879 134.432483 243.318143 122.34022 239.539311" /><polygon class="st23" points="104.683656 237.151833 96.937049 226.004278 91.457743 236.962891 104.683656 237.151833" /><polygon class="st23" points="75.762617 239.064384 67.026666 230.226444 62.83899 242.030462 75.762617 239.064384" /><path class="st23" d="M154.500351,252.456105c-19.14421-10.961613-41.600994-15.679485-63.550733-14.825011-12.84255.592912-25.555247,3.276195-37.673368,7.544669-3.938869,1.428965-8.116161,3.1561-11.951625,4.824183,3.733676-1.876237,7.881808-3.735926,11.768027-5.316219,32.548491-12.901845,71.526706-11.091795,101.407699,7.772378h0Z" /><polyline class="st23" points="148.219679 249.233796 154.81608 252.729883 160.286446 245.23631 148.643374 248.866213" /><polygon class="st23" points="49.918367 246.346146 37.923947 241.476568 41.170997 250.021435 49.918367 246.346146" /><path class="st18" d="M104.884497,261.218286s6.016206-15.13204,0-18.892168c-1.349441-.8434-4.554362,7.927963-4.554362,7.927963,0,0-2.116262-11.391198-9.277404-10.289484-2.192841.33736-.33736,8.434004-.33736,8.434004,0,0-6.682381-10.17918-15.687247-7.927963-1.349441.33736,4.891722,8.096643,4.891722,8.096643,0,0-7.826343-2.740435-12.651005,1.01208-1.518121,1.180761,3.879642,3.710962,3.879642,3.710962,0,0-4.891722,0-5.397762,2.698881s3.710962,2.192841,3.710962,2.192841c0,0,4.891722-3.710962,12.144965-3.710962s12.819685.16868,16.193287,1.349441c3.373601,1.180761,7.084563,3.036241,7.084563,3.036241v2.361521Z" /><path class="st18" d="M114.503696,262.061687s-2.699757-10.52517,5.397762-14.843846c2.530201-1.349441,1.518121,7.421923,1.518121,7.421923,0,0,4.357372-9.913493,13.494406-8.771364,1.349441.16868-2.361521,7.759283-2.361521,7.759283,0,0,6.129102-4.427705,11.638925-2.361521,1.349441.50604-3.204921,5.229082-3.204921,5.229082,0,0,5.735122-1.180761,7.253243,1.01208,1.518121,2.192841-4.385682,3.036241-4.385682,3.036241,0,0,5.735122-.16868,3.373601,5.060402,0,0-4.217002-5.397762-12.313645-6.409843-8.096643-1.01208-16.530647.33736-16.530647.33736l-3.879642,2.530201Z" /><line class="st1" x1="105.055394" y1="262.413556" x2="114.332798" y2="263.256956" /><path class="st1" d="M112.139957,270.847559c-.67472-1.686801-4.723042-4.723042-7.590603.67472" /><path class="st27" d="M69.126539,261.216364s-16.056131,1.231273-21.672806,4.641397l4.613697,3.008933s9.235882-2.334548,17.059108-2.434846v-5.215484Z" /><path class="st21" d="M116.630006,260.754824s-.960144-5.051761,1.968603-7.714258c1.531695-1.39245,2.626482,3.954643,2.626482,3.954643,0,0,9.607906-9.607906,9.607906-6.823006s-1.11396,7.379986-1.11396,7.379986c0,0,9.327905-5.692023,9.46715-3.603348s-1.530184,4.717308-1.530184,4.717308c0,0,8.076211-2.50641,6.823006-.55698-.981763,1.527187-3.06339,2.7849-3.06339,2.7849,0,0,2.50641-.55698,3.202635.974715.696225,1.531695.974715,3.202635.974715,3.202635,0,0-5.152065-3.759615-12.114316-4.595085s-16.848647.27849-16.848647.27849Z" /><path class="st21" d="M103.68022,259.223129s4.327365-9.033987.840119-11.026699c-.974715-.55698-4.878224,5.178409-4.878224,5.178409,0,0-2.642799-9.065732-5.566944-8.508752-2.924145.55698-2.648512,7.116302-2.648512,7.116302,0,0-8.753469-9.107903-9.310449-5.905268-.55698,3.202635,1.651974,5.626778,1.651974,5.626778,0,0-10.170175-3.714842-11.037487-1.690918-.908176,2.119281,1.987481,3.566669,3.481723,3.784481,0,0-3.857287.182014-4.692757,2.270689-.83547,2.088675.605517,1.96793.605517,1.96793,0,0,4.959244-2.990302,13.174699-2.711812s18.380342,3.89886,18.380342,3.89886Z" /><path class="st22" d="M60.140602,310.348198c2.155121.294631,2.400409-4.6037,6.152304-3.24705,4.602135,1.664089-1.307214,7.886163,3.417947,9.912046,4.871692,2.088707,4.845527-6.263659,9.057559-4.956023,4.212033,1.307636.203628,8.031605,3.392355,9.687209,3.188727,1.655605,5.250784-4.916267,8.570459-4.218494l-1.765101,9.64635s-19.853413-1.870521-29.08187-14.346027l.256346-2.478011Z" /><path class="st22" d="M141.5103,305.859366c-.426275-.044434-.920314.018002-1.504011.229786-4.600306,1.669138.92741,7.980285-3.795525,10.011351-4.869397,2.094051-5.023849-6.203405-9.234444-4.891148-4.210595,1.312257-.553969,8.371341-3.740878,10.030443-3.186909,1.659103-4.796161-4.706289-8.115068-4.004874l.659029,9.715715s16.479878-2.076167,26.391924-10.791931l-.661027-10.299342Z" /><ellipse class="st19" cx="141.948582" cy="320.239249" rx=".740555" ry=".626624" /><ellipse class="st19" cx="147.070384" cy="325.080673" rx=".740555" ry=".626624" /><ellipse class="st19" cx="152.910045" cy="330.253211" rx=".740555" ry=".626624" /><ellipse class="st24" cx="59.509798" cy="321.440401" rx="1.538875" ry="1.389952" transform="translate(-8.681168 1.729063) rotate(-1.55147)" /><ellipse class="st24" cx="54.77475" cy="326.434418" rx="1.706663" ry="1.541502" transform="translate(-8.818117 1.602693) rotate(-1.55147)" /><ellipse class="st24" cx="48.837667" cy="331.725525" rx="1.793552" ry="1.619983" transform="translate(-8.96355 1.443886) rotate(-1.55147)" /><ellipse class="st19" cx="59.308131" cy="320.975734" rx=".740555" ry=".626624" transform="translate(-8.668661 1.723433) rotate(-1.55147)" /><ellipse class="st19" cx="54.319288" cy="325.954056" rx=".740555" ry=".626624" transform="translate(-8.805278 1.590185) rotate(-1.55147)" /><ellipse class="st19" cx="48.621814" cy="331.282805" rx=".740555" ry=".626624" transform="translate(-8.951642 1.43788) rotate(-1.55147)" /><path class="st5" d="M133.797357,321.377897c.797521,1.253247-1.48111,3.417947-.455726,5.696578,1.025384,2.278631,3.531878-.797521,4.785126,1.139316,1.253247,1.936837-2.620426,2.848289-1.595042,4.785126,1.025384,1.936837,3.190084-.797521,4.671194,1.367179,1.48111,2.1647-2.848289,3.531878-2.050768,5.012989.797521,1.48111,3.873673-.341795,4.785126,1.253247s-2.620426,3.076152-1.822905,4.557263c.797521,1.48111,4.557263,0,5.240852.797521l-2.278631,2.278631-1.822905,1.139316-13.216061-27.115712,3.759742-.911453Z" /><path class="st5" d="M70.679272,322.061487c-.876163,1.199586,1.169242,3.260447,0,5.468715s-3.765638-.042741-5.140381,1.809838c-1.374743,1.852579,2.432589,3.010298,1.285242,4.877473-1.147347,1.867175-3.132445-1.000232-4.749179,1.065145-1.616734,2.065377,2.616195,3.70708,1.725436,5.134061-.89076,1.426981-3.843823-.589231-4.855578.944149-1.011755,1.53338,2.417993,3.237693,1.527233,4.664674-.89076,1.426981-4.717808-.38022-5.743192,1.328753l2.590004,1.551328,1.746179,1.253747,14.925888-26.213431-3.311653-1.884451Z" /><path class="st24" d="M142.203476,316.503346c-7.762346,6.242719-17.355706,10.21144-27.23434,11.46978-.79646-8.67264-1.487621-17.345729-1.627493-26.06298,1.485864,8.27274,2.472867,16.601288,3.330606,24.953487-.000023.000003-1.01223-.801999-1.01223-.801999,9.370593-1.378677,18.319559-4.895455,26.543457-9.558289h0Z" /><path class="st25" d="M103.07457,322.370961c.396645,11.05252.400779,23.221147.000076,34.273711-.4006-11.052432-.397665-23.221121-.000076-34.273711h0Z" /><ellipse class="st24" cx="95.858147" cy="338.069812" rx="2.511436" ry="2.363705" /><ellipse class="st24" cx="96.818673" cy="328.036073" rx="2.511436" ry="2.363705" /><ellipse class="st24" cx="110.788623" cy="338.060866" rx="2.511436" ry="2.363705" /><ellipse class="st24" cx="109.85928" cy="328.20697" rx="2.511436" ry="2.363705" /><ellipse class="st24" cx="94.661866" cy="348.49455" rx="2.511436" ry="2.363705" /><ellipse class="st24" cx="111.409805" cy="348.665447" rx="2.511436" ry="2.363705" /><path class="st24" d="M111.922715,349.178822c-5.421465,2.374946-12.181235,2.583938-17.431642-.341645,5.793872,1.277807,11.545255,1.06107,17.431642.341645h0Z" /><path class="st24" d="M111.922715,338.754079c-5.421468,2.374946-12.181236,2.583962-17.431642-.341645,5.793872,1.277807,11.545255,1.06107,17.431642.341645h0Z" /><path class="st24" d="M111.666367,328.671132c-5.421333,2.374962-12.181236,2.583968-17.431642-.341645,5.793873,1.277815,11.545253,1.06107,17.431642.341645h0Z" /><ellipse class="st19" cx="93.870798" cy="347.899602" rx="1.050084" ry=".888533" /><ellipse class="st19" cx="110.824571" cy="348.10143" rx="1.050084" ry=".888533" /><ellipse class="st19" cx="95.060626" cy="337.556179" rx="1.050084" ry=".888533" /><ellipse class="st19" cx="110.099592" cy="337.533259" rx="1.050084" ry=".888533" /><ellipse class="st19" cx="109.16344" cy="327.41627" rx="1.050084" ry=".888533" /><ellipse class="st19" cx="96.213293" cy="327.368556" rx="1.050084" ry=".888533" /><path class="st24" d="M60.044297,313.080495c5.449568,6.220637,13.184819,9.666188,21.042505,11.704037,2.616675.665225,5.316382,1.197147,7.954077,1.504032l-.942383.699341c1.822988-8.34112,3.809299-16.652154,6.186011-24.856177-1.200518,8.722595-2.819874,17.381923-4.612744,25.998912-11.150871-1.159265-23.190433-5.361229-29.627466-15.050145h0Z" /><ellipse class="st13" cx="125.634363" cy="274.980221" rx="9.446084" ry="9.530424" /><path class="st13" d="M98.476872,271.100579c0,5.449827-4.115875,9.867784-9.193064,9.867784s-9.193064-4.417957-9.193064-9.867784,4.200215-9.024384,9.277404-9.024384,9.108724,3.574557,9.108724,9.024384Z" /><path d="M131.032125,274.980221c0,3.586638-2.680983,6.494183-5.988143,6.494183s-5.988143-2.907545-5.988143-6.494183,2.596643-6.662863,5.903803-6.662863,6.072483,3.076225,6.072483,6.662863Z" /><ellipse class="st13" cx="124.622283" cy="272.02832" rx="3.204921" ry="2.867561" /><path d="M94.59723,271.016239c0,3.912696-2.794264,7.084563-6.241163,7.084563s-6.072483-3.509227-6.072483-7.421923,3.131624-6.241163,6.578523-6.241163,5.735122,2.665827,5.735122,6.578523Z" /><ellipse class="st13" cx="87.278755" cy="267.801434" rx="3.204921" ry="2.361521" transform="translate(-108.994122 65.78127) rotate(-26.122063)" /><path class="st12" d="M147.056732,266.799238s-9.614764-12.313645-32.723934-4.723042c0,0-4.554362,9.108724,0,18.554808,4.554362,9.446084,16.024607,10.289484,22.26577,7.759283,6.241163-2.530201,12.819685-12.651005,10.458164-21.591049Z" /><path class="st12" d="M69.632579,259.377314s7.927963-5.229082,19.566888-4.048322c11.638925,1.180761,15.855927,4.723042,15.855927,4.723042,0,0,3.373601,24.627291-16.024607,25.639371s-22.43445-11.807605-19.398208-26.314091Z" /><path class="st1" d="M147.056732,266.799238s-9.614764-12.313645-32.723934-4.723042c0,0-4.554362,9.108724,0,18.554808,4.554362,9.446084,16.024607,10.289484,22.26577,7.759283,6.241163-2.530201,12.819685-12.651005,10.458164-21.591049Z" /><path class="st1" d="M69.632579,259.377314s7.927963-5.229082,19.566888-4.048322c11.638925,1.180761,15.855927,4.723042,15.855927,4.723042,0,0,3.373601,24.627291-16.024607,25.639371s-22.43445-11.807605-19.398208-26.314091Z" /><path class="st21" d="M82.468244,298.860364s-1.282827,8.466661,2.565655,12.315143l2.565655-3.078786s7.825501,14.370785,16.805293,16.93644c0,0,6.88053-10.640309,7.906792-14.232226l2.740421,3.453357s11.802012-6.157571,10.519184-16.163625c0,0-9.236357-3.078786-10.262619-3.335351-1.026262-.256565-20.268672.769696-20.268672.769696l-12.571708,3.335351Z" /><path class="st17" d="M115.176199,302.192023s-5.397762,5.735122-10.964205,4.723042c-5.566442-1.01208-3.806223-2.252212-7.927963-4.554362-2.84418-1.588583-3.710962-4.891722-3.710962-4.891722,0,0,6.409843-4.048322,7.253243-4.048322h9.446084s5.999975,1.825915,6.036229,1.334658,1.891734,3.894425-.132426,7.436706Z" /><path class="st18" d="M106.236155,283.805895s16.699327-.50604,27.157492,7.590603c10.458164,8.096643,21.085009,15.012526,28.169572,14.506486,0,0-18.386128,6.915883-41.157938-6.915883,0,0-2.586204,4.19686-5.959806,5.04026l-1.293437-4.36554s-6.578523,3.036241-12.482325,3.036241l1.180761-3.710962s-7.084563,3.036241-12.651005,2.867561l3.036241-2.867561s-28.675612,8.434004-45.206259-1.518121c0,0,16.699327-2.192841,24.12125-5.566442,7.421923-3.373601,20.747649-9.952124,35.085455-8.096643Z" /><path class="st3" d="M107.416915,275.540572c3.036241-.16868,7.253243.8434,8.265324,4.217002s-3.204921,8.434004-8.602684,8.602684-9.446084-4.385682-8.771364-8.602684c.67472-4.217002,9.108724-4.217002,9.108724-4.217002Z" /><polygon class="st22" points="159.434878 331.179718 172.035283 337.47992 165.328616 347.235073 153.947605 340.325173 159.434878 331.179718" /><path class="st9" d="M151.3055,342.763979c3.068871,3.488683,6.8228,6.369296,11.381184,8.53574l-3.454844,3.251735c-2.833031-3.605495-6.5048-6.699782-10.860445-9.377286l2.934105-2.41019Z" /><polygon class="st22" points="146.428009 348.657699 156.183161 358.616083 145.005382 365.322751 137.892251 354.551437 146.428009 348.657699" /><path class="st9" d="M134.234019,356.380541c1.210525,4.418004,3.039317,8.334405,5.690296,11.584219l-4.877566,1.625905c-.222836-4.271712-1.83352-8.242566-4.470905-11.990732l3.658174-1.219391Z" /><polygon class="st22" points="125.69831 360.03871 129.15326 371.419721 114.738533 375.638241 115.009838 363.048157 125.69831 360.03871" /><polygon class="st22" points="38.65612 336.424576 27.271346 347.012499 36.613734 354.645914 46.515166 343.634632 38.65612 336.424576" /><path class="st9" d="M50.081112,346.345005c-2.42833,3.961325-5.635458,7.440439-9.757141,10.353183l3.959196,2.614287c2.176012-4.036165,5.265714-7.711794,9.100397-11.09349l-3.302452-1.873979Z" /><path class="st9" d="M33.507796,331.97295c-3.162577,3.403966-8.570681,6.503726-13.186276,8.545449l4.101536,4.101536c2.93-3.527146,7.525415-7.599817,11.952239-10.157923l-2.867499-2.489063Z" /><polygon class="st22" points="57.46321 349.518993 47.892959 362.165397 59.855773 367.292317 67.717051 353.962324 57.46321 349.518993" /><path class="st9" d="M72.04645,356.127024c-1.210525,4.418004-3.729188,10.421973-6.380168,13.671788l5.12692,1.595042c.222836-4.271712,2.603467-10.151485,5.240852-13.899651l-3.987605-1.367179Z" /><polygon class="st22" points="80.705249 358.519587 76.147987 372.988895 91.134044 375.638241 91.300884 360.91215 80.705249 358.519587" /><path class="st2" d="M18.099855,338.54626s32.345345,38.356385,83.497318,37.00806c55.442222-1.461413,68.74439-35.60914,71.699021-40.927476" /><path class="st2" d="M160.457343,328.634214s-14.24524,35.692508-58.564706,33.328803c-44.319466-2.363705-68.064211-29.984217-68.064211-29.984217" /><path class="st7" d="M102.910495,365.031811c-3.841408-5.318361-10.712085-6.347574-12.497137-.39676-1.639647,5.465687,12.964088,16.469321,12.964088,16.469321,0,0,15.996903-12.502013,11.632391-18.056214-5.085625-6.472587-12.099342,1.983654-12.099342,1.983654Z" /><path class="st0" d="M98.780642,361.445748c-.606445-.301449-1.220574-.523842-1.828201-.665848l.500642,2.147678,1.327558-1.48183Z" /><path class="st24" d="M119.537486,359.341367c-.320955-.445672-.682103-.884103-1.120682-1.308053-2.937652-2.839976-5.658969-3.382141-7.978355-2.904551-2.421642.498426-4.392292,2.105416-5.682612,3.48691-1.068667,1.144325-1.681022,2.117828-1.681022,2.117828,0,0-.737664-.880261-1.918635-1.939323-1.347064-1.207718-3.281067-2.628666-5.436133-3.293775-2.898641-.894743-6.171433-.392179-8.885658,4.036463-.003546.005615-.007093.009162-.010639.014777-1.735401,2.839976-1.595907,5.811319-.409025,8.675678,1.056845,2.549462,2.94238,5.013661,5.087398,7.224732.687422.708849,1.401443,1.38903,2.122557,2.040249,2.377311,2.147086,4.825551,3.947359,6.676804,5.208717,1.824063,1.242296,3.068871,1.965035,3.068871,1.965035.860017-.509508,1.815197-1.124228,2.818845-1.817118,2.083546-1.438385,4.384017-3.233486,6.543811-5.239748.686831-.638067,1.359477-1.295345,2.005524-1.970946,2.219493-2.321897,4.119214-4.835747,5.232803-7.34738,1.380164-3.113054,1.534435-6.218571-.43385-8.949494ZM112.081643,372.710046c-.972912,1.184075-2.041579,2.320124-3.090741,3.368399-1.786825,1.785052-3.481442,3.264222-4.535923,4.144631-.650776.543791-1.077533.881296-1.077533.881296,0,0-.511281-.385382-1.330514-1.046354-1.143143-.922523-2.88741-2.388246-4.686057-4.094093-1.112998-1.055368-2.237226-2.201318-3.260971-3.374457-1.545075-1.769684-2.819436-3.583699-3.421744-5.22438-.364694-.992122-.506553-1.925285-.264802-2.730036.251208-.836965.611173-1.521432,1.040886-2.089752,1.318101-1.743381,3.362636-2.263972,5.498196-1.765399.607627.142006,1.221756.364399,1.828201.665848,1.50429.74786,2.958339,1.964296,4.129854,3.586063,0,0,1.889673-2.262494,4.412979-3.549712.57098-.291105,1.170332-.530048,1.791554-.682694,1.783279-.438431,3.710189-.122501,5.455048,1.776777.145996.159443.296129.289184.439761.471975.927991,1.181267.90021,2.684523.336323,4.307177-.597579,1.718999-1.801011,3.572912-3.264517,5.354713Z" /><path class="st23" d="M103.370469,384.666066c6.686882-4.719015,23.141511-17.571433,14.603201-26.291349-5.008309-5.251022-11.03008-2.871869-14.898608,2.358995,4.047881-6.956663,11.555822-8.542985,16.826171-1.846507,6.838873,9.708201-8.927958,21.71501-16.530764,25.77886h0Z" /><path class="st19" d="M103.075059,360.73351c-2.897312-2.837935-7.012946-6.0634-11.235334-4.926787-3.781312,1.344822-6.443192,5.972668-5.542548,9.9731,2.02689,8.111187,10.603603,14.17435,17.073081,18.886398-7.188406-4.079609-16.173336-10.162587-18.26124-18.65638-.769654-3.492788.804904-7.071143,3.415825-9.412012,4.787317-4.449233,11.393418-.109959,14.550217,4.135681h0Z" /><path class="st19" d="M112.081643,372.710046c-.972912,1.184075-2.041579,2.320124-3.090741,3.368399-1.786825,1.785052-3.481442,3.264222-4.535923,4.144631-.650776.543791-1.077533.881296-1.077533.881296,0,0-.511281-.385382-1.330514-1.046354-1.143143-.922523-2.88741-2.388246-4.686057-4.094093-1.112998-1.055368-2.237226-2.201318-3.260971-3.374457-1.545075-1.769684-2.819436-3.583699-3.421744-5.22438-.364694-.992122-.506553-1.925285-.264802-2.730036.251208-.836965.611173-1.521432,1.040886-2.089752,1.318101-1.743381,3.362636-2.263972,5.498196-1.765399.607627.142006,1.221756.364399,1.828201.665848,1.50429.74786,2.958339,1.964296,4.129854,3.586063,0,0,1.889673-2.262494,4.412979-3.549712.57098-.291105,1.170332-.530048,1.791554-.682694,1.783279-.438431,3.710189-.122501,5.455048,1.776777.145996.159443.296129.289184.439761.471975.927991,1.181267.90021,2.684523.336323,4.307177-.597579,1.718999-1.801011,3.572912-3.264517,5.354713Z" /><path class="st7" d="M102.910495,365.031811c-3.841408-5.318361-10.712085-6.347574-12.497137-.39676-1.639647,5.465687,12.964088,16.469321,12.964088,16.469321,0,0,15.996903-12.502013,11.632391-18.056214-5.085625-6.472587-12.099342,1.983654-12.099342,1.983654Z" /><path class="st16" d="M103.377305,381.104359c3.11268-3.15405,14.871963-13.446308,10.957743-17.940521-3.116558-4.229497-8.541717-1.058741-11.424467,1.868112,2.73855-3.871685,8.57666-7.244474,12.293396-2.615192,4.87553,5.761982-7.510802,15.717078-11.826672,18.687601h0Z" /><path class="st6" d="M102.910508,365.031819c-2.959697-3.826251-10.075427-6.412118-11.909682-.292526-.993015,4.805017,9.005212,13.071867,12.376246,16.36519-4.313692-2.923368-14.93813-10.858213-13.498041-16.713922,2.222843-6.887388,10.233443-4.385857,13.031477.641258h0Z" /><path class="st10" d="M16.835638,345.434428c3.331908,3.672056,10.287287,9.048672,17.957216,15.053348l-30.959505.000031c1.740723-6.564575,7.058142-11.381323,13.002289-15.053378Z" /><path class="st9" d="M11.102278,354.016922c-.385321.550989-.520088,1.142474-.402809,1.776174.11547.632435.452023,1.1433,1.008438,1.532416.300375.21006.631971.365836.997373.468463.36405.101681.803008.160768,1.314169.175371.313398.010349,1.082088-.007138,2.307601-.052738,1.668786-.062981,2.862991-.057052,3.582477.017015.719618.074834,1.429694.241341,2.12809.4987-.466452-.55725-.860346-1.168165-1.179423-1.831169-.402861-.840825-.835688-2.034694-1.298342-3.580836-.355449-1.195666-.701301-2.07274-1.033763-2.629918-.333359-.557805-.728353-.9957-1.183444-1.313957-.511631-.357797-1.084021-.476517-1.719125-.3582-.634509.119406-1.142533.451884-1.524058.997444-.37836.541036-.51008,1.160924-.395487,1.860107.084883.506636.352706,1.036796.80166,1.589218-.709052-.21227-1.315474-.267893-1.819435-.165642-.674164.132766-1.202397.471993-1.583921,1.017553" /><g><path class="st10" d="M177.95177,341.776477s-11.971477,16.627052-17.2536,18.374347l33.732621-.146751c-1.160492-7.693881-10.510116-15.787657-16.479021-18.227596Z" /><path class="st9" d="M184.648547,353.131801c.388012.549097.525671,1.139916.411494,1.774182-.112374.632993-.446424,1.145498-1.000929,1.537331-.299344.211527-.630173.368923-.99507.473337-.363548.10346-.802212.164695-1.313296.181798-.313343.011883-1.08211-.001844-2.307831-.041448-1.669074-.054816-2.863236-.043044-3.58235.034542-.719243.078353-1.428496.248333-2.125624.509105.463721-.559525.854621-1.172361,1.17045-1.836918.398742-.842785.825723-2.038758,1.280807-3.587146.349595-1.19739.691152-2.076146,1.020884-2.634944.330626-.55943.723473-.999252,1.177001-1.319732.509874-.360295,1.081676-.481814,1.717352-.366606.635086.1163,1.14473.446289,1.528919.989976.381003.539178.515753,1.158415.404583,1.85815-.082404.507045-.34763,1.03851-.793875,1.593121.708005-.215737,1.314148-.274326,1.818603-.174542.674805.129466,1.204691.466105,1.58888,1.009792" /></g></svg>