<svg id="Layer_3" xmlns="http://www.w3.org/2000/svg" xmlns:xlink="http://www.w3.org/1999/xlink" version="1.1" viewBox="0 0 242 372" width="242" height="372" preserveAspectRatio="none"><defs><style>
      .st0, .st1, .st2, .st3, .st4, .st5 {
        fill: none;
      }

      .st6 {
        fill: #2cbeef;
      }

      .st7 {
        fill: #468d41;
      }

      .st8 {
        fill: #341e12;
      }

      .st1, .st2, .st5, .st9 {
        stroke-linejoin: round;
      }

      .st1, .st4 {
        stroke-width: 1.459228px;
      }

      .st1, .st4, .st5, .st9 {
        stroke: #e7c322;
      }

      .st2 {
        stroke: #fff;
        stroke-width: 1.02842px;
      }

      .st3 {
        stroke: #4ca2b1;
        stroke-width: 2.300727px;
      }

      .st3, .st4 {
        stroke-miterlimit: 10;
      }

      .st10 {
        fill: #8458a3;
      }

      .st11 {
        fill: #f1f2f2;
      }

      .st12 {
        fill: #fedf50;
      }

      .st13 {
        fill: #066280;
      }

      .st14 {
        fill: #fff;
      }

      .st15 {
        fill: #8bd4e9;
      }

      .st15, .st16 {
        opacity: .3;
      }

      .st17 {
        fill: #a15439;
      }

      .st18 {
        fill: #42283e;
      }

      .st19 {
        fill: #6b4886;
      }

      .st20 {
        fill: #05a7db;
      }

      .st21 {
        fill: #d18640;
      }

      .st5 {
        stroke-width: 2.188843px;
      }

      .st22 {
        fill: #bae3e1;
      }

      .st23 {
        fill: #78c043;
      }

      .st24 {
        fill: #cd9e2b;
      }

      .st25 {
        fill: #e7c322;
      }

      .st26 {
        fill: #0588b3;
      }

      .st27 {
        fill: #f5e444;
      }

      .st28 {
        fill: #e8b125;
      }

      .st29, .st9 {
        fill: #084e7b;
      }

      .st30 {
        fill: #333;
      }

      .st31 {
        fill: #6e747b;
      }

      .st32 {
        fill: #51555a;
      }

      .st33 {
        fill: #e0e0e0;
      }

      .st34 {
        clip-path: url(#clippath);
      }

      .st35 {
        fill: #a4b4b8;
      }

      .st16 {
        fill: #89d5eb;
      }

      .st36 {
        fill: #4d4d4d;
      }

      .st37 {
        fill: #57341d;
      }
    </style><clipPath id="clippath"><rect class="st0" x=".137826" y="0" width="242" height="365" rx="4" ry="4" /></clipPath></defs><rect class="st0" x=".137826" y="0" width="242" height="365" rx="4" ry="4" /><g class="st34"><path class="st26" d="M162.514598,330.017304c-2.596191-1.178284-3.567383-2.139465-3.567383-2.139465l-115.839355-41.406128c-16.248535,17.504272-39.515904,45.668418-61.801532,48.517634l1.998797,67.1778,247.913829-19.545654c-15.640625-5.90741-55.495861-28.771484-68.704357-52.604187Z" /></g><path class="st0" d="M3.649605,365.331288h234.347701c1.98,0,4.224333-2.027085,4.224333-4.007085V4.33376c0-1.98-1.62-3.6-3.6-3.6H3.433156c-1.988225,0-3.6,1.611775-3.419308,3.057924v356.990443c-.180692,2.522076,1.655757,4.549161,3.635757,4.549161Z" /><path class="st15" d="M48.81185,219.083366s6.191874,4.671464,11.588171-1.740359c3.166159-3.761997-1.09625-9.425188-1.09625-9.425188,0,0,5.160133,2.366505,8.343402.239799,3.183268-2.126706.723101-7.48166.723101-7.48166,0,0,3.955053,4.42345,12.132386,1.29592,8.177333-3.12753,6.904696-10.653728,6.904696-10.653728,0,0,2.591135,8.493684,14.65376,7.811416,12.062624-.682268,13.806305-10.660519,13.806305-10.660519,0,0,1.317175,5.530459,5.941355,6.692325,4.624179,1.161866,7.166631-4.376267,7.166631-4.376267,0,0-2.156339,8.052715,7.496124,11.484337,9.652463,3.431622,14.235191-4.057711,14.235191-4.057711,0,0-1.206844,8.140909,3.663043,10.902964,4.869888,2.762055,11.341728-.805563,11.341728-.805563,0,0-5.954319,7.69994-.557914,13.890971,5.396405,6.191031,13.864425,1.146961,13.864425,1.146961,0,0-4.168746,4.851896-1.901635,8.949558,2.267111,4.097662,7.727368,2.32329,7.727368,2.32329,0,0-3.922156,3.410103-2.886231,8.632766,1.035925,5.222663,7.278285,4.732129,7.278285,4.732129,0,0-6.53322-33.887679-34.270852-47.653653-27.737632-13.765974-71.623777-25.94251-106.153087,18.752211Z" /><path class="st14" d="M48.032269,220.363835c17.658329-27.038187,50.311088-38.188272,81.319402-30.548112,15.016765,3.46019,29.590023,10.320602,40.551693,21.334311,10.939452,10.920344,18.307616,25.468378,20.066893,40.744013-3.461043-22.783704-18.895314-42.909242-39.462499-53.024786-36.242335-17.735138-77.952135-12.370457-102.475489,21.494574h0Z" /><path d="M82.28578,210.306584c4.912264-.95408,8.917758,1.19859,13.352362,1.640097-2.460053.100978-7.183501-.419214-10.246703-.640813-1.088465-.078846-2.833383.373593-3.105659-.999285Z" /><path d="M97.678563,204.806305c-.529243.158128-2.139944-.117291-1.344932-.34701,7.053063.470026,13.563883,1.71517,19.869008,3.222674-6.276416-.819961-12.832613-1.258635-18.524076-2.875664Z" /><path d="M126.172544,206.520111c.105166-.016148.233392.117888.027678.180258-4.360543-.960323-8.873665-1.71271-13.005338-2.984938,4.834501.241676,9.541815.656794,12.97766,2.80468Z" /><path class="st2" d="M57.546183,219.825352c-.492704,1.597906,1.200841,3.013878,2.315072,1.858706.941118-1.882028-1.110476-3.82732-2.315072-1.858706Z" /><path class="st22" d="M95.168329,206.483364c.320622,2.088072.775435,3.648121,1.648675,4.728761,4.089001,4.999855,15.341769-.925725,11.760494-7.525793-3.405345.35375-6.085908-.280238-8.499447-1.27813-1.272671,1.625412-3.030546,2.894791-4.909722,4.075161Z" /><path class="st22" d="M117.062062,208.47254c-4.393083-.371032-2.814707,7.705177.053273,7.556949,3.418002-.171178,3.421213-7.260136-.053273-7.556949Z" /><path class="st22" d="M123.468569,206.935279c-.072201,1.933121,2.596481,3.691402,4.061669,3.620186,3.875585-.195311,2.76315-5.237056-.039781-6.267414-1.751964.807183-3.952052.898984-4.021888,2.647227Z" /><path class="st15" d="M140.326284,218.185438c-2.722373.095117-4.657001,5.22033-2.900516,8.748563,1.381164,2.786298,9.586741,5.35503,9.304242-.690599-.163018-3.665276-3.238792-8.174907-6.403725-8.057964Z" /><path class="st16" d="M156.818879,293.149458c-.5173,2.739527,1.095477,7.735198,2.479759,7.73791,2.463508.021513,2.759232-7.665906,1.444903-9.816662-.10279-.168732-.111959-.428721-.263304-.513116-1.218865-.627787-3.382452,1.103672-3.661358,2.591868Z" /><path class="st16" d="M159.390438,223.376824c-4.69364.074902-.770462,7.099135,2.66072,5.311424.784696-.397263,1.100566-1.845006.874342-2.71747-.304707-1.183315-2.170415-2.61898-3.535061-2.593954Z" /><path class="st15" d="M177.096484,273.798493c-1.35185,3.713367-3.127691,7.168937-1.861488,11.910298,1.526458-.172882,3.020914-1.555575,3.994209-2.827493,3.504797-4.612873,7.325671-15.378663,6.024556-23.251425-.396799-2.3839-1.253603-4.358889-2.410908-6.087844-2.103928-.784035-2.177056,4.347495-2.456252,6.835193-.55496,5.097881-1.689638,9.023922-3.290117,13.42127Z" /><path class="st16" d="M172.253943,237.454476c-4.495931-.339863-1.468051,5.960771.705482,5.796165,2.718942-.2176,1.893167-5.595511-.705482-5.796165Z" /><path class="st14" d="M118.62909,207.862893c3.388503,1.939902,2.76016,9.063344-1.139732,9.400773-4.217662.370847-6.723513-9.039072-1.674964-9.706639,1.086204-.136033,2.055663-.13113,2.814696.305867ZM117.062062,208.47254c-4.393083-.371032-2.814707,7.705177.053273,7.556949,3.418002-.171178,3.421213-7.260136-.053273-7.556949Z" /><path class="st21" d="M129.377043,219.143204s5.068666-2.804337,6.309377-6.033918c1.240711-3.229581-.508809-8.02606-4.934591-9.517248-4.425782-1.491188-18.323213-5.290669-30.439377-1.259475-12.116164,4.031194-32.552284,9.48463-44.457354,35.625209-11.905069,26.140579-9.278226,43.248062-9.278226,43.248062,0,0,64.307756,28.620473,77.900709,32.321988,13.592952,3.701516,23.783194,3.149834,23.783194,3.149834l1.45726.065674s-2.728082-5.514528-3.966066-11.692012-1.214639-11.680339.070037-16.508564c1.284676-4.828225.560409-19.912366.560409-19.912366l-21.726306-26.982283,4.720932-22.5049Z" /><path class="st33" d="M133.763662,280.698223s.118038,5.481145.291169,8.493632c.17313,3.012486.802159,8.99404.802159,8.99404,0,0,17.705857-3.442312,16.950389-23.442061,0,0-16.357144,2.801065-18.043717,5.95439Z" /><path class="st18" d="M134.149469,290.986293s-8.099398.266814-11.304351-1.52037c-3.204953-1.787184-4.508747-6.037054-4.508747-6.037054,0,0,3.285954,3.728434,9.420292,1.266975l6.134338-2.461459.258468,8.751909Z" /><path class="st17" d="M126.230512,206.79157c-4.037481-.830549-7.883338-1.940951-11.902842-2.848897,4.12644-.143174,8.225746,1.03573,11.902842,2.848897h0Z" /><path class="st17" d="M115.16557,207.434575c-6.189225-.155568-12.27566-1.078159-18.228535-2.782653,6.189888.148983,12.275125,1.084381,18.228535,2.782653h0Z" /><path class="st17" d="M117.906293,217.423039c-6.175937-.105527-12.254851-.979043-18.206073-2.635253,6.176976.09896,12.253458.985221,18.206073,2.635253h0Z" /><path class="st17" d="M94.2935,211.997197c-3.90285.050914-7.752259-.411607-11.529307-1.397623,3.903335-.055283,7.751535.41569,11.529307,1.397623h0Z" /><path class="st17" d="M74.181195,214.632878c6.904973.388712,14.110676,1.189713,20.95313,2.139016,6.927138,1.082071,13.96498,2.000709,20.617215,4.300792-5.923693-1.300466-14.69335-2.257202-20.777359-3.172979-6.827797-.984304-13.999149-2.019992-20.792986-3.266829h0Z" /><path class="st17" d="M63.850629,224.968999c3.031844-.477954,6.013369-.182647,8.887709.89801-3.032341.484139-6.012678.176807-8.887709-.89801h0Z" /><path class="st17" d="M60.958539,228.731938c4.612166.19737,9.153206.90578,13.603529,2.135172-4.613032-.193058-9.152369-.909862-13.603529-2.135172h0Z" /><path class="st17" d="M74.564984,221.060918c4.438965-.10968,8.859375.255615,13.249023.864563,4.352813.706557,8.867487,1.434895,12.778834,3.586894-8.510565-2.374653-17.35083-2.787701-26.027857-4.451457h0Z" /><path class="st17" d="M97.212933,231.009831c3.397979-.266413,6.916708.168938,9.930218,1.793884-3.432566-.100982-6.720162-.510586-9.930218-1.793884h0Z" /><path class="st17" d="M61.761762,234.944707c6.110588.221336,12.294597.777295,18.183135,2.487859-6.084247-.685818-12.180136-1.237571-18.183135-2.487859h0Z" /><path class="st17" d="M66.442426,238.902593c5.949934.164575,12.164386.746185,18.062503,1.490764,5.969512.869278,12.047436,1.629823,17.737817,3.723053-5.098363-1.113739-12.643259-1.868129-17.884782-2.593443-5.882155-.779446-12.062431-1.596392-17.915538-2.620373h0Z" /><path class="st17" d="M53.29057,243.637517c8.486959.416305,17.032003,1.351171,25.177781,3.827559-8.450871-.934364-16.881501-1.860312-25.177781-3.827559h0Z" /><path class="st17" d="M50.828656,250.20081c6.116312.614519,12.357008,1.841611,17.78621,4.811702-5.981454-1.49479-11.97624-2.661706-17.78621-4.811702h0Z" /><path class="st17" d="M49.092328,255.596623c4.988465.252855,9.833971,1.267101,14.49905,3.053649-4.989706-.246795-9.832023-1.273136-14.49905-3.053649h0Z" /><path class="st17" d="M48.150433,260.267094c1.582905-.488293,3.067131-.20757,4.353051.840039-1.583797.49415-3.065344.202252-4.353051-.840039h0Z" /><path class="st17" d="M52.774457,264.837102c3.818768.542747,7.507151,1.584526,11.041039,3.132062-3.820473-.538501-7.505964-1.588426-11.041039-3.132062h0Z" /><path class="st17" d="M46.186078,270.07282c3.238606.432805,6.160346,1.578981,8.830613,3.471443-3.201889-.412019-6.196506-1.599029-8.830613-3.471443h0Z" /><path class="st17" d="M108.544476,288.104985c4.637501.36277,9.103375,1.834764,13.671403,2.577297-4.649346.840012-9.439033-.703243-13.671403-2.577297h0Z" /><path class="st17" d="M116.908734,295.419621c4.484643.567985,8.889296.919783,13.399904.808726-4.378917,1.164988-9.175203.782867-13.399904-.808726h0Z" /><path class="st17" d="M131.962445,301.103642c4.37007-.711868,8.616604-.6162,13.025876-.642444-4.108255,1.585749-8.755951,1.496762-13.025876.642444h0Z" /><path class="st17" d="M113.834515,301.925969c9.762975,1.500693,20.028185,3.522601,29.912598,3.296594,0-.000086,2.004883-.171228,2.004883-.171228-5.282467,1.15565-10.778172.598228-16.100095.022608-5.33308-.716388-10.634234-1.694289-15.817386-3.147974h0Z" /><path class="st17" d="M121.939008,306.565068c3.677984.251612,7.21053,1.078496,10.735359,2.123068-3.689024-.007919-7.28585-.856125-10.735359-2.123068h0Z" /><ellipse class="st11" cx="126.180228" cy="226.798203" rx="12.928049" ry="3.992015" transform="translate(-111.14476 331.849262) rotate(-84.786828)" /><ellipse cx="128.515825" cy="228.116623" rx="4.044255" ry="1.935359" transform="translate(-112.201273 331.115602) rotate(-83.769362)" /><path class="st37" d="M124.656111,241.648104s-1.569462-6.922533,5.814805-6.898642c7.384268.023891,14.251709.923088,15.484129,7.535579,0,0-18.443978-1.36475-21.298934-.636937Z" /><path class="st8" d="M127.619615,241.627213s-1.423878-2.675717.832977-3.528768c2.256856-.853051,6.176939.643429,8.019406,3.689025l-8.852383-.160257Z" /><path class="st21" d="M109.968577,243.541572s26.975279-5.377487,40.238303.044291c4.632295,1.893631,9.394847,4.635567,11.928634,5.114812,2.533787.479244,7.928095-.204331,7.928095-.204331,0,0,.194294,5.035283-4.036649,6.697966,0,0,8.033915,9.909655,5.236887,17.140866,0,0-4.044503-3.720498-6.08901-3.840718,0,0,3.91152,12.279258-14.881992,16.178014,0,0,1.71941-3.881955,1.230675-6.122392,0,0-3.666497,5.33867-10.85538,6.587237l-1.368786-5.144376s-10.148459,6.478689-18.152264,5.247469c0,0,1.002998-8.547632.220913-11.756049,0,0-5.667039,3.619805-10.941127,2.258874,0,0,2.796483-5.349798,2.297165-8.601633-.499317-3.251836-2.401894-5.275178-4.837717-6.0589-2.435822-.783722-4.088468-2.121853-4.674623-5.939226-.586155-3.817372,1.797848-11.853469,1.797848-11.853469l4.959028.251568Z" /><path class="st17" d="M108.30766,252.474065c-3.407531.088115-8.538257.077297-10.101676,3.720599.000113.000165-.151742.004987-.151742.004987-1.001872-2.668899,1.821382-4.273411,4.066434-4.325742,2.101808-.217542,4.17437-.024512,6.207982.44963-.000002.000014-.020998.150526-.020998.150526h0Z" /><path class="st17" d="M150.293012,284.67249c.532729-1.985452,1.059924-4.063599,1.021533-6.116814-.000048-.000007.360791.137932.360791.137932-3.10058,3.107828-6.677647,6.856814-11.386607,6.942125-.000112-.000231-.105092-.369555-.105092-.369555l-1.458496-5.120361.896484.346497c-5.534013,3.399663-11.951574,6.025273-18.560998,5.479493-.000038-.000123-.733436-.069032-.733436-.069032.436138-4.030881.898173-8.283624.336993-12.291625-.000079-.000001,1.045331.501524,1.045331.501524-1.770391.898717-3.565527,1.583467-5.483881,2.061175-2.149648.551961-4.543173.681586-6.780275-.002163-.000004.00007.422359-.758475.422359-.758475,1.669453-3.146826,4.438661-8.737177,1.133958-11.57224-5.782282-1.860088-8.705353-4.810163-8.034267-11.219649-.228966,5.477453,2.280304,8.839924,7.571364,10.113249.610226.151812,1.286975.540945,1.67216,1.027661,2.87854,3.473891.568711,8.813317-1.224851,12.310825-.000201.000005-.396686-.958369-.396686-.958369,3.838658.787452,7.952717-.923266,11.317397-2.727947.827701,4.325291.491234,8.63857-.029766,12.949995-.000033-.000001-.6431-.827577-.6431-.827577,6.253735.606509,12.40339-1.982675,17.743186-5.015428-.000022-.000075.707009-.420119.707009-.420119l.189453.766602,1.279297,5.16803-.466309-.372131c4.294938-.230559,8.000549-3.812278,11.054802-6.586448.0169,2.300819-.684544,4.491224-1.448357,6.622825h0Z" /><ellipse class="st17" cx="154.12565" cy="257.506652" rx="1.600437" ry="2.358538" transform="translate(-142.836239 300.842878) rotate(-67.400859)" /><ellipse class="st17" cx="148.419969" cy="268.483326" rx="2.016753" ry="1.535512" transform="translate(-98.801558 86.842746) rotate(-24.760025)" /><ellipse class="st17" cx="137.315876" cy="277.599117" rx="1.919235" ry="1.180438" transform="translate(-103.640221 83.03016) rotate(-24.760025)" /><ellipse class="st17" cx="139.10245" cy="254.400861" rx="2.006031" ry="1.336066" transform="translate(-93.760119 81.645793) rotate(-24.760025)" /><path class="st17" d="M163.272504,251.585454c-5.474212-7.00351-16.993215-8.691669-25.357346-9.30089-9.300147-.55663-18.692062.361538-27.946359,1.257096,5.733892-1.260386,11.545484-2.327268,17.419428-2.663985,10.967585-.836134,29.558501.302124,35.884277,10.707779h0Z" /><polygon class="st35" points="45.012156 276.670413 46.600927 275.977086 58.510444 283.607888 57.010841 287.161759 45.012156 276.670413" /><path class="st16" d="M65.615553,221.907581c.334288,2.777906,2.891615,6.014032,4.989979,6.06086,3.072436.081775,5.453833-3.635916,5.007644-7.042443-.359719-2.743248-2.712532-5.949272-5.170244-6.03318-2.644898-.101295-5.21123,3.813932-4.827379,7.014763Z" /><path class="st16" d="M52.532975,246.058246c1.127202,1.933469,3.211982,4.996134,5.337017,4.715965,3.21124-.416203,4.868237-8.451031,4.593145-12.145227-.331518-4.362088-3.016755-10.396696-5.959461-9.971334-7.765263,1.122453-6.308261,13.392663-3.970702,17.400596Z" /><path class="st2" d="M140.326284,218.185438c-2.722373.095117-4.657001,5.22033-2.900516,8.748563,1.381164,2.786298,9.586741,5.35503,9.304242-.690599-.163018-3.665276-3.238792-8.174907-6.403725-8.057964Z" /><path class="st2" d="M156.818879,293.149458c-.5173,2.739527,1.095477,7.735198,2.479759,7.73791,2.463508.021513,2.759232-7.665906,1.444903-9.816662-.10279-.168732-.111959-.428721-.263304-.513116-1.218865-.627787-3.382452,1.103672-3.661358,2.591868Z" /><path class="st2" d="M159.390438,223.376824c-4.69364.074902-.770462,7.099135,2.66072,5.311424.784696-.397263,1.100566-1.845006.874342-2.71747-.304707-1.183315-2.170415-2.61898-3.535061-2.593954Z" /><path class="st2" d="M177.096484,273.798493c-1.35185,3.713367-3.127691,7.168937-1.861488,11.910298,1.526458-.172882,3.020914-1.555575,3.994209-2.827493,3.504797-4.612873,7.325671-15.378663,6.024556-23.251425-.396799-2.3839-1.253603-4.358889-2.410908-6.087844-2.103928-.784035-2.177056,4.347495-2.456252,6.835193-.55496,5.097881-1.689638,9.023922-3.290117,13.42127Z" /><path class="st2" d="M172.253943,237.454476c-4.495931-.339863-1.468051,5.960771.705482,5.796165,2.718942-.2176,1.893167-5.595511-.705482-5.796165Z" /><path class="st2" d="M65.615553,221.907581c.334288,2.777906,2.891615,6.014032,4.989979,6.06086,3.072436.081775,5.453833-3.635916,5.007644-7.042443-.359719-2.743248-2.712532-5.949272-5.170244-6.03318-2.644898-.101295-5.21123,3.813932-4.827379,7.014763Z" /><path class="st2" d="M52.532975,246.058246c1.127202,1.933469,3.211982,4.996134,5.337017,4.715965,3.21124-.416203,4.868237-8.451031,4.593145-12.145227-.331518-4.362088-3.016755-10.396696-5.959461-9.971334-7.765263,1.122453-6.308261,13.392663-3.970702,17.400596Z" /><path class="st2" d="M49.33153,219.025131s5.672194,4.729699,11.068491-1.682124c3.166159-3.761997-1.09625-9.425188-1.09625-9.425188,0,0,5.160133,2.366505,8.343402.239799,3.183268-2.126706.723101-7.48166.723101-7.48166,0,0,3.955053,4.42345,12.132386,1.29592,8.177333-3.12753,6.904696-10.653728,6.904696-10.653728,0,0,2.591135,8.493684,14.65376,7.811416,12.062624-.682268,13.806305-10.660519,13.806305-10.660519,0,0,1.317175,5.530459,5.941355,6.692325,4.624179,1.161866,7.166631-4.376267,7.166631-4.376267,0,0-2.156339,8.052715,7.496124,11.484337,9.652463,3.431622,14.235191-4.057711,14.235191-4.057711,0,0-1.206844,8.140909,3.663043,10.902964,4.869888,2.762055,11.341728-.805563,11.341728-.805563,0,0-5.954319,7.69994-.557914,13.890971,5.396405,6.191031,13.864425,1.146961,13.864425,1.146961,0,0-4.168746,4.851896-1.901635,8.949558,2.267111,4.097662,7.727368,2.32329,7.727368,2.32329,0,0-3.922156,3.410103-2.886231,8.632766,1.035925,5.222663,7.278285,4.732129,7.278285,4.732129" /><path class="st30" d="M141.371331,336.531621l-50.655099-8.550992-60.654962-27.923652c-7.222656,7.76593-14.849609,14.899109-22.602539,21.83551,0,0,19.837017,22.600581,56.812075,35.85461,35.710434,12.800572,97.318785,9.695744,127.947203,2.616643-9.433594-7.674988-18.442871-15.671509-26.591309-24.319763l-24.255369.487645Z" /><path class="st26" d="M166.914454,338.222321c-16.974738,2.397168-49.349182,4.601993-87.383989-7.919862-26.439917-8.704574-49.834937-29.911475-49.834937-29.911475l10.342297-12.197174,121.372833,41.251011" /><path class="st29" d="M80.078542,329.892905c-29.63473-9.683402-50.119491-30.006006-50.119491-30.006006l-2.127999,2.388293s12.86468,17.268991,50.241681,30.843599c34.090892,12.38105,70.85719,10.159987,91.193615,7.272719.67627-.917175.050439-2.584814-1.855469-2.406616-17.656738,1.961609-51.879243,3.49271-87.332338-8.091989Z" /><path class="st25" d="M95.150433,321.826543c-7.130782-1.03408-14.228064-3.323857-20.2178-7.398613,6.362787,3.148779,13.400372,5.415628,20.2178,7.398613h0Z" /><g><path class="st6" d="M8.289946,321.29861s6.180417-6.148808,14.269782-3.491196c0,0,4.886701,8.254364-2.064893,15.036244-4.103356-2.588648-8.896769-8.084886-12.204888-11.545048Z" /><path class="st24" d="M22.65434,317.876958c2.801358,3.97768,2.804363,9.840633-.514744,13.521397-.450588.518581-.979397.96658-1.480374,1.420071,3.675786-4.093882,4.238712-10.006019,1.995117-14.941467h0Z" /><path class="st25" d="M8.290082,321.117925c3.444663-3.841054,9.414212-5.472505,14.187492-3.297873-4.978918-1.119363-10.11551.317907-14.187492,3.297873h0Z" /><path class="st24" d="M30.28764,329.170171c2.933957,3.020493,3.392131,8.54366.006188,11.43632,2.405379-3.471924,1.957041-7.865591-.006188-11.43632h0Z" /><path class="st25" d="M20.673383,333.100713c1.662018-3.363898,5.998067-5.480222,9.601578-4.01268-3.699127-.359621-7.107612,1.357731-9.601578,4.01268h0Z" /><circle class="st29" cx="28.002186" cy="324.542869" r="1.350074" /><circle class="st29" cx="35.747503" cy="330.444907" r="1.226025" /><path class="st24" d="M37.870648,317.65009c-1.269905,3.813815-3.497087,7.284207-6.452017,10.010829,1.262345-3.817495,3.503163-7.279346,6.452017-10.010829h0Z" /></g><g><path class="st6" d="M31.063888,340.192383s4.650012-7.289801,13.06627-5.998551c0,0,6.1775,7.338451.435721,15.17111-4.473168-1.878669-9.669926-6.303472-13.501991-9.172559Z" /><path class="st24" d="M44.234906,334.246831c3.417417,3.462886,4.384318,9.245309,1.715722,13.421986-.359276.585643-.80703,1.114452-1.226952,1.644237,2.953069-4.642524,2.535612-10.566818-.48877-15.066223h0Z" /><path class="st25" d="M31.063519,340.192326c2.410716-4.515756,7.952106-7.360357,12.987804-5.972463-5.052423-.303174-9.765943,2.162392-12.987804,5.972463h0Z" /><path class="st24" d="M53.621137,344.131169c3.391323,2.496661,4.75113,7.869712,1.886558,11.279608,1.802384-3.819926.637136-8.080499-1.886558-11.279608h0Z" /><path class="st25" d="M44.784222,349.589116c1.086186-3.591478,5.015358-6.391832,8.811063-5.536854-3.707517.253332-6.787857,2.508298-8.811063,5.536854h0Z" /><circle class="st29" cx="50.606086" cy="339.942663" r="1.350074" /><circle class="st29" cx="59.216482" cy="344.490748" r="1.226025" /><path class="st24" d="M59.206586,331.521001c-.624688,3.970598-2.251764,7.759813-4.71763,10.935489.617407-3.973027,2.258194-7.756259,4.71763-10.935489h0Z" /></g><g><path class="st6" d="M56.144536,354.949857s3.215964-8.026294,11.725638-8.319822c0,0,7.432388,6.064155,3.244406,14.826539-4.744163-1.015649-10.671987-4.398855-14.970044-6.506717Z" /><path class="st24" d="M67.982953,346.662663c4.001053,2.768768,6.024027,8.270476,4.177635,12.870247-.24453.642143-.586327,1.244865-.900291,1.843315,2.039462-5.110071.529829-10.853856-3.277344-14.713562h0Z" /><path class="st25" d="M56.144574,354.949834c1.529999-4.884861,6.44744-8.70866,11.652856-8.279534-5.020452.640259-9.195516,3.937264-11.652856,8.279534h0Z" /><path class="st24" d="M79.041058,354.632756c3.795616,1.823842,6.129173,6.850975,3.947597,10.733374,1.061283-4.088184-.873845-8.05816-3.947597-10.733374h0Z" /><path class="st25" d="M71.370648,361.636296c.400927-3.730744,3.741895-7.21189,7.630412-7.076289-3.596542.937258-6.203865,3.72461-7.630412,7.076289h0Z" /><circle class="st29" cx="75.300718" cy="351.076801" r="1.350074" /><circle class="st29" cx="84.605732" cy="353.947464" r="1.226025" /><path class="st24" d="M82.188519,341.204961c.122883,4.017596-.772399,8.042935-2.605804,11.621191-.130725-4.018612.779049-8.040711,2.605804-11.621191h0Z" /></g><g><path class="st6" d="M83.699587,363.350418s2.079012-8.392945,10.467014-9.856554c0,0,8.197272,4.981878,5.256972,14.23786-4.838871-.352071-11.176424-2.88596-15.723986-4.381307Z" /><path class="st24" d="M94.282758,353.510625c4.344281,2.190806,7.106855,7.361426,5.911524,12.171652-.153712.669656-.409083,1.31376-.637598,1.949808,1.315559-5.342411-.971007-10.823345-5.273926-14.12146h0Z" /><path class="st25" d="M83.699262,363.350407c.84246-5.048996,5.186091-9.51429,10.400912-9.806638-4.884852,1.325928-8.564444,5.167438-10.400912,9.806638h0Z" /><path class="st24" d="M106.334027,359.880559c4.010061,1.283435,7.01552,5.941112,5.38901,10.086849.488129-4.195567-1.976439-7.860556-5.38901-10.086849h0Z" /><path class="st25" d="M99.702191,367.874394c-.117228-3.750377,2.711792-7.658919,6.582081-8.060365-3.43259,1.423795-5.631915,4.544174-6.582081,8.060365h0Z" /><circle class="st29" cx="102.139121" cy="356.874043" r="1.350074" /><circle class="st29" cx="111.750989" cy="358.434805" r="1.226025" /><path class="st24" d="M107.600629,346.147099c.675283,3.96246.343587,8.072538-.979336,11.869461-.683458-3.962204-.336302-8.071415.979336-11.869461h0Z" /></g><g><path class="st6" d="M112.152594,366.866009s1.078715-8.579055,9.236716-11.017854c0,0,8.725731,3.984468,6.893072,13.52176-4.846727.21878-11.438055-1.553106-16.129788-2.503905Z" /><path class="st24" d="M121.506879,355.851079c4.570673,1.665312,7.922532,6.475924,7.300199,11.393038-.073637.683073-.25186,1.352751-.404203,2.011198.678777-5.459959-2.235732-10.633882-6.895996-13.404236h0Z" /><path class="st25" d="M112.152387,366.866032c.243608-5.112909,4.032373-10.057843,9.176799-10.960511-4.695086,1.890578-7.898302,6.13751-9.176799,10.960511h0Z" /><path class="st24" d="M134.222699,360.761357c4.133883.803401,7.663681,5.075591,6.536966,9.383925-.008713-4.223778-2.88602-7.574117-6.536966-9.383925h0Z" /><path class="st25" d="M128.575726,369.478825c-.556893-3.710064,1.7936-7.924088,5.589412-8.777657-3.241373,1.817217-5.058576,5.174297-5.589412,8.777657h0Z" /><circle class="st29" cx="129.703698" cy="358.268414" r="1.350074" /><circle class="st29" cx="139.43236" cy="358.689282" r="1.226025" /><path class="st24" d="M133.86723,346.974187c1.136097,3.855464,1.289892,7.976528.421545,11.902279-1.143505-3.854637-1.2818-7.975886-.421545-11.902279h0Z" /></g><g><path class="st6" d="M140.590566,366.832415s.077646-8.646296,8.357823-12.01762c0,0,9.668676,2.942279,8.916082,12.628017-5.070866.781153-12.221968-.21188-17.273905-.610398Z" /><path class="st24" d="M149.072308,354.804082c4.821776,1.050699,9.077731,5.320852,9.071212,10.420756.020096.702413-.092209,1.404317-.166427,2.090169.046315-5.707557-3.81377-10.322267-8.904785-12.510925h0Z" /><path class="st25" d="M140.590375,366.832463c-.295417-4.576573,2.319595-9.272992,6.488301-11.25955.583476-.285982,1.208476-.484712,1.813456-.694185-4.564571,2.359439-7.577716,6.902064-8.301758,11.953735h0Z" /><path class="st24" d="M163.051801,358.201604c4.273282.267449,8.64828,3.981639,8.031615,8.559727-.533243-4.338443-4.109344-7.197243-8.031615-8.559727h0Z" /><path class="st25" d="M158.186566,367.51685c-1.051156-3.702023,1.036135-8.176009,4.797438-9.36835-3.10182,2.130532-4.718567,5.652773-4.797438,9.36835h0Z" /><path class="st29" d="M158.989531,355.284451c.565504.520386.57719,1.375135.026102,1.909134s-1.456264.545035-2.021768.024648-.57719-1.375135-.026102-1.909134c.551088-.533999,1.456264-.545035,2.021768-.024648Z" /><path class="st29" d="M169.182371,354.65949c.513544.472572.524156,1.248783.023704,1.733716-.500452.484934-1.322458.494955-1.836002.022384-.513544-.472572-.524156-1.248783-.023704-1.733716s1.322458-.494955,1.836002-.022384Z" /><path class="st24" d="M160.979535,344.549382c1.639422,3.679893,2.309822,7.762374,1.909826,11.772437-1.647484-3.677996-2.30187-7.762773-1.909826-11.772437h0Z" /></g><g><path class="st6" d="M170.5159,363.466121s-2.105282-8.396412,4.770047-13.594845c0,0,9.760827.595566,11.498261,10.156654-4.533789,1.939876-11.455058,2.645837-16.268307,3.438191Z" /><path class="st24" d="M175.398969,349.831975c4.900931-.086927,9.865605,3.142433,11.09954,8.003782.186105.669069.259835,1.366457.358468,2.042055-1.358333-5.40576-6.071938-9.126515-11.458008-10.045837h0Z" /><path class="st25" d="M170.515668,363.466191c-1.409852-4.267784-.24652-9.413139,3.190933-12.393048.47606-.427753,1.023423-.771808,1.542954-1.126788-3.753561,3.419695-5.292149,8.537317-4.733887,13.519836h0Z" /></g><g><path class="st10" d="M99.332849,261.012111s-2.809937-2.585001-4.271264-5.226258c-1.461327-2.641257-5.816884-10.871041-5.816884-10.871041,0,0-2.603226,7.111362-2.518807,9.134515.084419,2.023153,3.119262,4.325763,2.518269,5.322986-.600994.997222-2.181264,4.498467-1.547185,6.663455.634079,2.164988,2.010429,1.71122,2.147845,3.525731.156341,2.064407-1.814038,7.846238-1.814038,7.846238,3.224017-3.499344,6.475106-6.1216,10.999123-7.073498-1.154132-2.889289-1.085377-5.990803.302941-9.322126Z" /><path class="st19" d="M98.700238,263.04865c-3.123952-2.289362-6.012962-4.879852-8.623085-7.742268,3.122369,2.283483,6.014689,4.884957,8.623085,7.742268h0Z" /><path class="st19" d="M91.111371,259.68073c.748219.277414,7.927857,3.093922,6.562583,3.957954-1.836328.253809-3.77474-.067967-5.636803-.292004,1.631895-.094026,3.265294-.070631,4.889161-.152944.190767-.007309.564584-.05792.489749-.038105.014157-.001329-.05762.026259-.084476.093031-.042759.105728.014676.194466-.014155.151187-1.911564-1.411591-4.193857-2.415709-6.206059-3.719119h0Z" /><path class="st19" d="M93.003461,266.099431c2.341924-.566149,4.766652-.757715,7.167965-.556635-2.341263.569261-4.766788.754656-7.167965.556635h0Z" /><path class="st19" d="M94.419476,270.596623c2.502815-1.481609,5.19577-2.631194,7.999978-3.404349-2.501837,1.484487-5.19654,2.628253-7.999978,3.404349h0Z" /><path class="st10" d="M128.298535,249.055107s-1.805679-4.039924-2.967077-5.219002c-1.161398-1.179078-3.389291-1.798618-5.055667-.864042-1.666376.934576-3.689529,1.018995-5.88817.451655-2.198641-.56734-4.714607-1.236778-4.381308,2.407216.333298,3.643994,1.222908,4.035277-.00722,5.355337-1.230127,1.32006-5.067005,2.361681-3.48067,3.852568,1.586335,1.490888,3.836026,1.899566,2.844033,2.806002s-2.198926.413055-2.244745,2.079148c-.045819,1.666092,1.444216,3.020943,1.444216,3.020943l4.528089-.46905,3.867007-7.230003,2.341329-2.923506,2.612834-1.155316,6.38735-2.111949Z" /><path class="st19" d="M117.692914,243.759648c1.83511,1.516873,3.420327,3.325344,4.676311,5.348536-1.83779-1.514543-3.417858-3.327057-4.676311-5.348536h0Z" /><path class="st19" d="M110.63139,243.453679c3.271133,1.102184,6.989148,2.926129,8.360981,6.299291-2.049998-2.932818-5.383759-4.454452-8.360981-6.299291h0Z" /><path class="st19" d="M112.667523,247.248601c1.908089.493572,4.16603,1.349402,5.104124,3.197365-1.50856-1.303334-3.513226-1.9948-5.104124-3.197365h0Z" /><path class="st19" d="M109.351117,253.634892c1.912812.344241,3.907304.993588,5.351131,2.337903-1.836126-.674697-3.694474-1.269078-5.351131-2.337903h0Z" /><path class="st19" d="M109.929242,256.579411c1.532813-.076171,3.346544.175142,4.439994,1.340334-1.483683-.48275-3.022057-.650181-4.439994-1.340334h0Z" /><path class="st23" d="M117.588501,270.224137s3.279647,7.995706,1.190831,13.096713c0,0-7.756808-1.493408-3.531302-12.657069l2.340471-.439644Z" /><path class="st7" d="M121.207638,273.596938s1.086018,7.072763,2.876834,6.948607c1.790816-.124155,1.769896-6.153876,1.769896-6.153876l-4.64673-.794731Z" /><path class="st23" d="M131.211297,249.361971s-6.596208-.721624-9.616867-.257804c-3.020659.46382-5.843204,1.726749-6.575288,5.308097-.732085,3.581348-1.502475,6.696946-3.810444,7.598376-5.249874,2.050459-12.537249-1.449013-12.537249-1.449013,0,0-3.154835,5.447766-.770245,9.681725,0,0,15.594363.767188,23.136176,4.209258,7.541813,3.442071,7.995458,2.467474,8.590653,1.923612.595195-.543862,3.184437-18.059887,3.184437-18.059887l-1.601172-8.954364Z" /><path class="st36" d="M130.066347,249.163269s5.190316-.760056,8.762465,6.018782c4.012745,7.614953,1.674803,10.329081.036456,12.384267-1.638347,2.055186-3.157617,3.695017-3.157617,3.695017,0,0,.607505,3.007345-1.927058,4.90358-1.523341,1.139689-5.269061,2.458685-7.375481-.186173-1.939375-2.435114-2.384764-8.774033-1.415132-10.435925,2.022781-3.466929,1.192783-5.434601,1.040243-8.141214-.35367-6.275882,3.260708-8.684527,4.036125-8.238335Z" /><path class="st30" d="M136.097699,271.01209c-.913086.484253-2.182129.557617-3.148438-.123779-.832567-.579975-1.394968-1.529879-2.308584-1.807634-.773447-.22972-1.781748.325578-2.856455.471513-.53418.088806-1.158203.075867-1.669434-.221619-.493164-.317078-.804199-.793701-.958008-1.294006.310059.420654.678711.798767,1.125.94342.948407.299891,1.897598-.232151,2.825688-.519374.508296-.162877,1.111324-.308995,1.743648-.142857,1.234863.416016,1.78125,1.469177,2.46875,2.078796.695801.612915,1.75293.808167,2.777832.61554h0Z" /><path class="st7" d="M118.77934,283.320866c-5.799433-1.402192-5.877286-8.263728-3.688795-12.727607-.00017.000068.247877.217658.247877.217658-.260254.146179-.553711.27124-.881348.276306-1.028748-.031797-1.241651-1.319034-1.246099-2.106665.268994,1.603633.896465,2.428157,2.380848,1.250898-1.877118,4.566997-2.328757,10.988976,3.187517,13.089409h0Z" /><path class="st7" d="M117.588422,270.224126c1.986711,3.933053,2.893415,8.819007,1.2413,13.02111.867741-4.380428.005857-8.786682-1.2413-13.02111h0Z" /><path class="st7" d="M115.427289,260.653264c-.392882,3.692791.993412,7.25308,3.75845,9.725511-3.568921-1.562566-5.334802-6.19323-3.75845-9.725511h0Z" /><ellipse class="st27" cx="122.215079" cy="261.151396" rx="4.177044" ry="4.303409" transform="translate(-38.219345 21.573908) rotate(-8.729552)" /><ellipse cx="124.472261" cy="261.710993" rx="2.683371" ry="1.960513" transform="translate(-158.018641 326.401625) rotate(-77.462168)" /><circle class="st14" cx="122.784235" cy="260.530746" r="1.259139" /></g><g><path class="st25" d="M131.258384,249.283676s-11.573902.217156-16.619491,7.573463c0,0-1.26662-2.138697-6.675223-8.027998,0,0,5.837227,3.415871,9.138219,1.620339,1.643936-.894198,1.70574-3.900773,1.999165-7.635467,0,0,4.307901,5.214948,7.611317,4.220758,1.532167-.461118,2.300026-3.665677,3.309869-6.808527l1.236145,9.057432Z" /><ellipse class="st25" cx="118.858644" cy="242.13662" rx="1.544412" ry="1.608763" transform="translate(-37.894363 22.623489) rotate(-9.385168)" /><ellipse class="st25" cx="130.02436" cy="240.431461" rx="1.387324" ry="1.445129" transform="translate(-37.466842 24.421464) rotate(-9.385168)" /><ellipse class="st25" cx="108.428553" cy="249.274092" rx="1.387324" ry="1.445129" transform="translate(-39.197888 21.018187) rotate(-9.385168)" /></g><polygon class="st6" points="41.875845 294.30968 51.248903 301.879442 43.439211 311.175303 34.228886 303.922666 41.875845 294.30968" /><polygon class="st29" points="60.459657 307.649521 53.952255 317.999832 66.80493 324.465111 71.444221 313.831459 60.459657 307.649521" /><polygon class="st6" points="83.131894 318.651018 78.989569 329.550476 92.374284 333.539267 95.788053 323.093792 83.131894 318.651018" /><polygon class="st29" points="108.564391 326.833885 106.624842 336.482805 119.350289 338.406107 121.075355 329.588386 108.564391 326.833885" /><polygon class="st6" points="132.327012 330.825685 131.69895 339.360924 143.259394 339.638505 142.747471 331.8485 132.327012 330.825685" /><path class="st6" d="M153.45961,331.800187c.539948-.196947,1.386105,7.541738,1.386105,7.541738l11.929322-1.033475-4.335391-7.514572" /><line class="st1" x1="51.348171" y1="301.171979" x2="43.375842" y2="310.880387" /><line class="st1" x1="60.806217" y1="307.678693" x2="54.228998" y2="317.897492" /><line class="st1" x1="71.333475" y1="313.687491" x2="66.312766" y2="324.399195" /><line class="st1" x1="83.470658" y1="318.076516" x2="79.256424" y2="329.289654" /><line class="st1" x1="95.876037" y1="323.50717" x2="92.411716" y2="333.522349" /><line class="st1" x1="108.843732" y1="326.518134" x2="106.546231" y2="336.666783" /><line class="st1" x1="121.130018" y1="329.842151" x2="119.561218" y2="338.628371" /><line class="st1" x1="132.390967" y1="331.23938" x2="131.542857" y2="339.28967" /><line class="st1" x1="143.150874" y1="332.088275" x2="143.023453" y2="339.402636" /><line class="st1" x1="153.519563" y1="331.746706" x2="154.737408" y2="339.258012" /><polygon class="st25" points="166.556057 338.248413 162.373026 331.476282 163.704597 331.012154 168.053486 338.029083 166.556057 338.248413" /><line class="st1" x1="34.325214" y1="303.629275" x2="42.021011" y2="294.634944" /><path class="st25" d="M27.831097,302.275151l2.072266-2.437622.048828-.057495.059082.054199c9.101462,8.187761,19.329468,15.124764,30.13862,20.838574,26.698738,13.961873,59.093859,18.61489,88.975092,18.274606,6.12994-.061422,12.25494-.423788,18.372128-.947714-6.082031.846008-12.211426,1.351257-18.351074,1.649231-30.213226,1.131565-62.687658-3.456549-89.546944-17.947112-10.610256-5.925225-21.326708-13.331281-29.585016-21.765225.000124-.000126-2.182981,2.338558-2.182981,2.338558h0Z" /><path class="st24" d="M167.791058,340.646001c-43.563649,7.388549-89.647935.228712-126.112305-25.672933-5.030273-3.74467-9.935058-7.778117-13.847656-12.697917,4.105469,4.747253,9.070312,8.645691,14.180664,12.22821,15.516055,10.49199,33.103857,17.896246,51.227449,22.495757,24.33722,5.946578,49.72984,6.476696,74.551848,3.646882h0Z" /><ellipse class="st14" cx="126.825481" cy="225.983056" rx="1.617511" ry="2.102765" transform="translate(-32.828415 21.866232) rotate(-8.729552)" /><path class="st16" d="M39.710008,229.726158c-2.391082,10.53479.313137,25.057908,4.328925,35.806927,1.281311,3.443332,3.997717,5.637061,5.342361,9.592874,1.425088,1.178845,1.746376,3.46427,3.462352,4.537014,1.579806.98614,4.162771,1.403553,4.417223,3.560815,0,0,2.32746-10.048893,5.053113-16.104159,2.723349-6.070271,8.283976-13.067692,10.631038-15.086851,2.347062-2.019159,8.001335-1.822108,10.77234-1.080312,2.771005.741796,14.243571,9.357364,18.03002,18.912881,3.79915,9.538207,6.216086,25.278652,6.216086,25.278652l.496225,8.23301c1.02525-1.125042,2.385767-.166666,3.351715.222577,5.788773,2.290445,12.41925,3.560826,18.654926,5.060778,6.044093,1.452574,13.688194,4.434629,21.372032,3.162626,3.924448-.648674,8.508204-2.39593,11.805028-3.931207,9.958584-4.662365,16.624273-10.587544,22.703169-17.710622,8.615526-10.108242,13.173357-22.934036,10.618468-40.573171-2.410915-16.601472-11.72947-28.545354-20.714396-38.14739-8.837235-9.440407-19.625916-16.053987-31.057903-21.087279-12.355223-5.444453-27.955847-8.73186-44.269743-6.948743-16.783665,1.824532-29.077995,5.505601-40.137665,14.099987-10.197289,7.909044-18.07057,18.96155-21.075313,32.201593Z" /><path class="st31" d="M80.842895,249.895132s-17.029591-3.463257-23.94105,34.935143l-11.889688-8.159862-.510063,15.056595s47.737446,35.216928,111.798706,32.543882l-.779904-10.734069s-33.925762,1.290401-47.076016-9.703469c0,0-2.449187-48.46613-27.601985-53.93822Z" /><ellipse class="st32" cx="81.756021" cy="272.240846" rx="11.308349" ry="11.750575" transform="translate(-40.371086 15.561873) rotate(-8.729552)" /><path class="st28" d="M73.133249,261.073786c5.436541-4.360096,13.726157-3.053708,18.515376,2.9179,4.789219,5.971608,4.264461,14.347109-1.17208,18.707205-5.436541,4.360096-13.726157,3.053708-18.515376-2.9179-4.789219-5.971608-4.264461-14.347109,1.17208-18.707205ZM71.211917,271.996226l19.503077-3.754453s-4.149314-7.937395-11.808687-6.218612c-7.659372,1.718783-7.702327,9.214516-7.694391,9.973065ZM85.254523,281.453582c8.703471-1.987642,6.740048-9.826526,6.740048-9.826526l-19.348193,4.056286s3.904674,7.757883,12.608145,5.770241Z" /><path class="st35" d="M80.842895,249.895132s18.352413.924894,26.294689,32.38198c2.609899,10.337064,3.509738,21.192368,3.509738,21.192368,0,0,13.990639,8.419116,43.974921,8.331747l.898654,1.735594s-29.468227,2.847377-47.185776-9.030537c0,0-2.117976-43.538765-27.492226-54.611151Z" /><path class="st3" d="M56.875207,283.890084c-15.53488-17.226634-22.194703-39.201044-15.72389-59.547518,10.772879-33.87366,53.860443-50.407912,96.238768-36.930285,42.378325,13.477627,67.999602,51.86343,57.226724,85.73709-5.75615,18.09933-21.1802,32.268519-40.350137,38.534034,0,0-16.757087,5.123068-44.422062-6.925445" /><path class="st24" d="M28.609906,198.048222c-1.71762-7.251733,2.976079-14.726242,11.107466-11.767697,2.056109.690915,3.953081,1.709469,5.56148,3.101193-2.029785-.584778-4.011719-1.106201-5.966797-1.442078-7.256343-1.550975-9.533407,3.991006-10.702148,10.108582h0Z" /><path class="st24" d="M64.072797,181.995915c.390528-4.793815,2.193016-10.67879,6.994424-12.779274,5.069-1.242161,10.059485,1.928775,13.683878,5.103975-2.251055-.893061-4.451739-1.769892-6.664141-2.445917-2.011639-.559748-4.375819-1.206517-6.33301-.583111-3.94876,1.868111-5.788876,6.893296-7.68115,10.704327h0Z" /><path class="st24" d="M107.336957,168.602849c1.262331-4.796635,4.113047-11.266463,9.629698-12.24195,3.003983-.174329,5.440074,1.37918,7.651094,3.050955,2.072723,1.640153,3.874481,3.552689,5.328582,5.719315-2.117188-1.507568-4.187012-2.993591-6.317871-4.289429-1.944085-1.120329-4.258883-2.45247-6.459464-2.314794-2.145631.233425-4.012119,2.217118-5.445333,3.857599-1.589832,1.903546-2.996571,4.029889-4.386707,6.218304h0Z" /><path class="st24" d="M147.678754,166.333806c2.69601-4.121389,7.532842-9.384383,13.032121-8.530007,2.902329.793093,4.715856,3.042502,6.277503,5.332434,1.441352,2.215639,2.539008,4.603152,3.22602,7.120547-8.74952-12.082767-10.270164-13.86345-22.535645-3.922974h0Z" /><path class="st25" d="M170.689422,197.963347s3.724897-26.416375,16.238214-40.843152l-4.592515,2.812479c-5.346768,1.473376-10.475729,3.37466-15.332687,5.807987l-14.377461-1.358285s-9.591169-3.943584-11.654287-18.329354c0,0-3.518075,11.383402-13.199441,15.034262l-19.89693,3.912498s-9.616939-1.773743-16.861512-15.199807c0,0-2.107088,16.187249-8.485792,21.217719l-17.631286,6.620177s-13.860818.856623-21.179063-11.740553c0,0,2.87912,15.544363-3.915847,23.378315l-9.963123,5.881413c-5.990813-.204663-13.094695-2.437773-20.899022-5.950994,0,0,18.675602,19.888417,25.45776,36.910324l45.739503-17.027565,51.62694-11.262049,38.92655.136585Z" /><path class="st24" d="M101.630414,183.621098c4.789247,1.061106,11.582036,1.005278,13.578613-4.36624,3.052427-6.62456-2.091976-10.801848-6.971867-14.512137,6.793192,3.232055,11.977076,8.347655,7.795429,16.132607-2.83541,5.078183-9.807005,4.817776-14.402174,2.74577h0Z" /><path class="st24" d="M97.924359,183.960027c2.222649,4.920257,4.489906,10.722688,2.482706,16.095015-.000284.000017-.769327-.991743-.769327-.991743,3.000488-.654968,6.007324-1.28241,9.021484-1.872986l-.342285,1.19165c-1.003906-1.018127-1.871094-2.083618-2.711914-3.200195-2.399028-3.306792-4.531609-7.358145-3.974641-11.560666.283609,5.45346,4.000337,10.009092,7.655178,13.748972.408255.368376.194079,1.096709-.342182,1.191756-2.999975.657048-6.008276,1.277226-9.021948,1.869939-.38007.082551-.755866-.163463-.830566-.545411-.030762-.157531-.00586-.313354.061035-.446471.540527-1.075012.740234-2.366089.788086-3.656799.108679-4.004975-.897901-7.961772-2.015625-11.823059h0Z" /><path class="st12" d="M97.924359,183.960027c-.994104,3.079854-3.559155,5.729165-6.783734,6.456737-4.784748,1.143037-10.875127-1.060641-12.549331-6.055381-1.064722-4.92539.678874-10.167719,3.780701-14.052742,4.048804-5.832073,6.820003-13.376877,8.640748-20.508637-1.074479,7.522068-3.363285,14.933763-7.559478,21.35513-1.865057,2.365244-3.152426,5.350927-3.590918,8.368369-.168016,1.091418-.186281,2.307143-.118636,3.412176.162316,1.801632,1.199852,3.380418,2.666973,4.517943,5.069457,4.04713,12.839993,2.717739,15.513675-3.493596h0Z" /><path class="st24" d="M60.261762,196.57227c7.771167.940294,15.099464-1.204787,13.338802-10.525399-1.267494-4.192579-5.647001-6.188881-9.277665-8.279196,4.117231,1.328179,9.114803,3.311836,10.605405,7.896602,2.25872,10.138012-6.192611,13.700164-14.666542,10.907994h0Z" /><path class="st24" d="M56.664594,198.508183c3.260024,3.869238,6.723462,8.832269,5.603741,14.175107-.000226.000064-.905987-.851682-.905987-.851682l3.963379-1.514587,3.982422-1.46521-.155762,1.238953c-4.262313-3.318382-8.6356-7.838755-8.89076-13.518424,1.160477,5.327679,5.523148,9.228426,9.700714,12.364821.456631.306885.35432,1.057164-.161053,1.235146-1.979963.761-5.967224,2.247799-7.96386,2.962444-.518848.207949-1.077854-.33397-.895962-.855655,1.090298-4.872333-1.917823-9.651284-4.276872-13.770913h0Z" /><path class="st12" d="M56.664594,198.508183c-.487052,3.125099-2.44391,6.132808-5.453159,7.388586-4.457881,1.940443-10.665188.570398-13.019529-4.004887-1.850562-4.610026-.853036-10.046299,1.959425-14.078643,3.447253-6.124755,4.735938-14.571669,3.565329-21.915903,1.998932,7.506298,1.204562,15.753666-2.404149,22.6637-1.666723,2.418013-2.614049,5.48372-2.607385,8.461979-.012496,1.075952.166192,2.247532.399426,3.300113.453013,1.711201,1.668125,3.1058,3.243635,4.006589,5.595093,3.285005,12.681807.626167,14.316406-5.821536h0Z" /><path class="st12" d="M136.268109,178.944646c-2.845129,2.272497-6.43976,4.224616-10.235326,3.939402-4.031414-.296581-7.168716-4.225763-7.017532-8.189629.222067-6.530676,5.140876-11.700806,10.268924-15.096702,4.777574-3.563023,9.443888-7.889625,11.686714-13.544565-1.577845,6.00208-6.218172,10.76617-10.931602,14.571616-4.676889,3.324181-9.318405,8.109755-9.6443,14.089273-.124877,2.287491.932964,4.470089,2.679308,5.915167,3.973345,3.062346,9.386654.613352,13.193813-1.684561h0Z" /><path class="st24" d="M140.340375,179.271001c-.32554,3.888951-.509786,7.869635.489662,11.630684.33358,1.205986.826256,2.367058,1.595787,3.244866.39384.420017.058103,1.159436-.510771,1.148244.000028.000011-4.436495.138072-4.436495.138072l-4.437988.083557c-.536707.024615-.901796-.605662-.623028-1.059401.65916-1.146836,1.283184-2.382005,1.820782-3.624131,1.088194-2.487498,1.953192-5.092477,2.254395-7.801637.132323-1.353881.07373-2.724181-.22461-4.086608,1.094632,2.608891.942301,5.595024.362288,8.318966-.623437,2.775169-1.640363,5.39597-3.000442,7.905961-.00003-.000012-.623077-1.059216-.623077-1.059216,2.211478-.078746,6.662423-.179322,8.874523-.205855-.000012-.000017-.510754,1.148054-.510754,1.148054-3.234568-4.591969-2.228694-10.676093-1.030273-15.781555h0Z" /><path class="st24" d="M150.825238,163.445927c5.46517,2.647372,10.415679,10.657112,6.057178,16.217978-4.166575,5.635323-12.93992,5.957838-16.541993-.39312,4.128632,5.014906,11.571233,4.632538,15.374506-.480761,3.892219-4.846383-.684874-12.206356-4.889691-15.344097h0Z" /><path class="st24" d="M27.93266,213.575749c3.338403-1.374592,7.209897-3.578239,7.478536-7.536254.077626-3.997639-2.781744-8.005334-6.018375-10.161763-3.12773-1.052316-6.562713-1.233365-9.793138-2.028308-3.731255-.885834-7.872831-1.830242-10.661225-4.643198,4.636727,3.241083,11.210878,3.374437,16.626955,4.345298,1.499694.267633,2.97661.415313,4.44001,1.008808,2.279863,1.298091,3.867275,3.427846,5.142649,5.641678,3.772535,6.756082-.338643,11.861698-7.215412,13.373739h0Z" /><path class="st12" d="M174.747113,180.194463c-6.642633,5.631659-13.025647,1.573478-12.368273-6.716094.47628-3.258968,2.270602-6.071331,4.554781-8.329995,2.360394-2.139264,5.763964-2.795135,8.686963-3.70215,3.851544-1.196542,8.070263-1.768491,11.307255-4.325904-2.85727,3.015902-7.203567,4.023863-10.975564,5.406869-2.734168,1.02677-5.856716,1.703877-8.020667,3.635584-2.01442,2.049703-3.733702,4.668987-4.178646,7.514653-.425053,2.694114.398906,5.989606,2.686445,7.656794,2.592705,1.635373,5.834065.305578,8.307707-1.139758h0Z" /><path class="st24" d="M170.249079,204.144695s-57.470791-13.404686-132.596795,28.697068l-4.466902-7.373122s67.700311-43.36596,138.068399-29.259333l-1.004702,7.935387Z" /><path class="st12" d="M33.18559,225.468633c36.283737-22.538539,81.869532-36.416963,124.734758-31.547559,2.457949.371104,6.491053.874639,8.914143,1.399927.000025-.000012,4.419459.888294,4.419459.888294-47.575442-8.049496-96.558944,6.150578-138.068359,29.259338h0Z" /><ellipse class="st24" cx="116.894239" cy="154.439123" rx="3.65355" ry="3.33585" transform="translate(-22.085192 19.530177) rotate(-8.729552)" /><ellipse class="st24" cx="69.62071" cy="166.840721" rx="3.65355" ry="3.33585" transform="translate(-24.515019 12.499107) rotate(-8.729552)" /><ellipse class="st24" cx="31.513239" cy="184.402293" rx="3.65355" ry="3.33585" transform="translate(-27.621797 6.918949) rotate(-8.729552)" /><ellipse class="st24" cx="161.567294" cy="155.454477" rx="3.65355" ry="3.33585" transform="translate(-21.721788 26.321998) rotate(-8.729552)" /><path class="st24" d="M141.816019,158.053296c5.82639,5.705732,11.743273,20.060556-1.090737,19.762333-13.576427-.315474-5.436119-15.253691,1.090737-19.762333Z" /><path class="st24" d="M50.881463,178.75711c7.822225,2.305426,19.782051,12.20659,8.308159,17.964242-12.137629,6.090719-11.956952-10.920521-8.308159-17.964242Z" /><path class="st26" d="M140.20307,157.050427c5.82639,5.705732,11.743273,20.060556-1.090737,19.762333-13.576427-.315474-5.436119-15.253691,1.090737-19.762333Z" /><path class="st24" d="M175.373951,178.847664c-11.407119-3.835829-2.88645-11.332672,6.483007-14.464689l-6.483007,14.464689Z" /><path class="st24" d="M26.867942,212.071809c11.47494-7.389384-2.870302-13.292867-9.525247-13.307505l9.525247,13.307505Z" /><path class="st26" d="M175.721334,177.835365c-11.407119-3.835829-2.575675-11.463546,6.793782-14.595564l-6.793782,14.595564Z" /><path class="st13" d="M175.721529,177.83529c-6.428276-2.161679-6.42963-5.527188-3.529263-8.614145-1.321475,4.543598.506484,6.979134,3.529263,8.614145Z" /><path class="st26" d="M27.408429,210.383034c9.23543-6.670896-4.412872-12.700758-11.067817-12.715396l9.815047,13.158795,1.25277-.443399Z" /><path class="st13" d="M26.155367,210.826509l1.253062-.443476c4.463406-3.223988,3.581743-6.298301.728068-8.615987,1.665811,3.787906.471102,6.631343-1.98113,9.059462Z" /><path class="st24" d="M95.558818,162.126408c7.940486,4.160172,18.716207,17.395837,5.112463,21.147662-14.390688,3.968858-10.554417-14.33413-5.112463-21.147662Z" /><path class="st26" d="M93.945287,160.8781c7.940486,4.160172,18.716207,17.395837,5.112463,21.147662-14.390688,3.968858-10.554417-14.33413-5.112463-21.147662Z" /><path class="st13" d="M99.057987,182.025598c-10.969075,3.025464-11.348164-6.889129-8.498893-14.792267-1.267111,9.859917,1.399236,14.990345,8.498893,14.792267Z" /><path class="st26" d="M49.268514,177.754241c7.822225,2.305426,19.782051,12.20659,8.308159,17.964242-12.137629,6.090719-11.956952-10.920521-8.308159-17.964242Z" /><path class="st13" d="M139.112555,176.812728c-10.58183-.24581-7.970613-9.37535-3.213661-15.525597-2.507675,8.123173-1.905384,13.684072,3.213661,15.525597Z" /><path class="st13" d="M57.57636,195.718701c-9.694738,4.864791-11.530237-5.009271-10.0172-12.769946.445968,9.429994,3.752804,13.745897,10.0172,12.769946Z" /><path class="st20" d="M95.317711,162.843237s5.392694,4.343528,6.731961,7.258661c1.339267,2.915133-7.951518-7.071399-7.951518-7.071399,0,0-.314501-1.467514,1.219557-.187262Z" /><path class="st20" d="M51.069751,179.281751s6.216221,2.925223,7.529866,5.362811c1.313645,2.437588-8.814671-5.16553-8.814671-5.16553,0,0-.284079-1.238324,1.284804-.197281Z" /><path class="st20" d="M140.941341,159.395812s4.383269,5.290112,4.536192,8.054911c.152923,2.764799-5.783006-8.422468-5.783006-8.422468,0,0,.269233-1.241637,1.246814.367557Z" /><path class="st4" d="M33.800985,227.088918c4.692406-2.896257,6.70065,3.264499,12.74119.052998,2.788901-1.482741,3.260016-8.804672,6.996763-10.601227,3.079442-1.480535,9.058399,2.706991,12.648601,1.158411,3.237919-1.396628,4.292875-8.635484,7.853317-9.986064,3.357744-1.273691,8.923749,3.441589,12.492191,2.291942,3.461185-1.115092,5.252378-8.205515,8.843291-9.129168,3.555093-.91444,8.504162,4.437015,12.120628,3.781992,3.08113-.558061,5.119862-7.252403,8.057849-7.642142,3.121583-.414093,6.8384,5.525621,9.773213,5.275508,3.164962-.269726,5.825777-6.742083,8.742174-6.853523,3.216544-.122909,6.363177,6.141656,9.235746,6.16826,3.297811.030542,6.568858-6.153554,9.351525-5.989852,3.486385.205101,5.99871,6.765862,8.559664,7.059224,5.769722.660933,9.384663,1.395893,9.384663,1.395893" /><path class="st29" d="M42.133223,263.833974s41.617621,49.483983,113.423239,47.244013l6.883184,19.715891s-34.923403,2.993772-72.230298-9.126086c-17.859953-5.802147-35.144715-17.990861-52.532133-30.749387l4.456008-27.084431Z" /><path class="st26" d="M39.304482,287.812284c1.69696.012126,3.763513-.491998,6.038549-2.131133,5.558713-4.004982,11.477176-2.983747,13.080943,1.878172,1.704407,5.167016-4.000408,6.685261-4.000408,6.685261,0,0,2.4532-6.739043-3.636349-6.197111-2.779254.247336-4.40169,3.463511-3.816696,6.229939.608185,2.876095,3.306264,5.266379,7.742684,8.294161-6.035343-3.337463-11.458954-7.111472-15.928792-11.566519-1.489953-1.485023-2.331367-3.213147.520069-3.192771Z" /><path class="st26" d="M52.132488,300.784951s5.094594,3.057459,10.494595-2.169919c4.922583-4.765223,10.926469-4.608752,13.215058-.029157,2.432203,4.866975-2.993806,7.192573-2.993806,7.192573,0,0,1.455032-7.022519-4.492573-5.607495-2.714471.645813-3.9859,3.445153-3.007814,6.098206,1.016859,2.758226,4.161724,5.351438,8.988637,7.707323-8.605065-3.242121-16.24598-7.409141-22.204096-13.191531Z" /><path class="st26" d="M71.249049,312.040896s5.488562,2.275661,10.061825-3.688461c4.168938-5.436831,10.130644-6.164281,13.067326-1.970686,3.120965,4.456752-1.904418,7.554414-1.904418,7.554414,0,0,.407335-7.160095-5.267783-4.886479-2.590109,1.037672-2.934495,4.543655-1.577182,7.024188,1.411121,2.578866,4.400998,4.131615,9.521695,5.752651-8.988061-1.942483-17.158345-4.9415-23.901462-9.785626Z" /><path class="st26" d="M91.909985,321.401192s5.767545,1.427713,9.395685-5.154238c3.307374-6.000038,9.092815-7.612426,12.624613-3.906117,3.753427,3.938889-.751167,7.754465-.751167,7.754465,0,0-.669946-7.140312-5.940396-4.042142-2.405419,1.413996-2.614667,4.754498-.901053,7.003691,1.781546,2.338356,5.364298,3.603161,10.670057,4.438749-9.177635-.574021-17.705006-2.315167-25.09774-6.094408Z" /><path class="st26" d="M113.446537,327.395605s5.885625.813858,8.802168-6.112848c2.65869-6.314312,8.24271-8.525611,12.144357-5.210874,4.146484,3.522744.067695,7.790469.067695,7.790469,0,0-1.416419-7.030408-6.332197-3.395658-2.243548,1.65889-2.012128,5.122027-.071691,7.178735,2.01736,2.138241,5.624619,2.900495,10.988803,3.174021-9.187151.393382-17.850257-.442219-25.599134-3.423844Z" /><path class="st26" d="M134.795719,331.619777s5.488737-.205318,7.255468-7.007867c1.610534-6.201132,6.430059-9.123285,10.429473-6.722393,4.250387,2.551554,1.074927,7.110828,1.074927,7.110828,0,0-2.209618-6.198469-6.232883-2.082834-1.836208,1.878365-1.477674,4.422081.56446,5.989263,2.123089,1.629309,5.824796,2.329126,10.76637,1.713962-8.351285,1.841447-16.383094,2.47488-23.857815.999041Z" /><path class="st25" d="M54.713422,302.571599c-5.158323-2.672474-10.10894-5.822632-14.442868-9.715095-1.116337-1.211745-3.285331-2.478088-3.156418-4.364784.224184-.807224,1.080486-.955891,1.749669-1.01284,2.337472.051898,4.433373-.76082,6.301272-2.097734,2.868228-2.006843,6.731216-3.373459,10.128435-1.796145,2.22948,1.039698,3.605457,3.431727,3.621082,5.818567-.027582,2.506273-2.25991,4.247757-4.491247,4.84097,2.12401-.683481,4.230681-2.456754,4.13428-4.842039-.087857-2.238616-1.44772-4.435455-3.499478-5.308074-3.157252-1.363105-6.819668-.075951-9.4868,1.85323-1.873416,1.413712-4.315875,2.333114-6.661658,2.225438-.528299.018195-1.088846.186408-1.136697.484565-.084961.334839.209961.877747.525391,1.298523,4.651582,5.072084,10.516323,9.082808,16.415039,12.615417h0Z" /><path class="st24" d="M54.423383,294.244572c.703258-2.423037.585414-5.997382-2.693471-5.911167-.809635-.008549-1.730115.077646-2.408565.553679-1.886575,1.233436-2.553925,3.935447-1.823772,6.026114,1.273532,3.354398,4.530305,5.460759,7.215768,7.658464-3.005544-1.902271-6.474577-3.934237-7.84327-7.440899-.8916-2.386769-.132659-5.416892,2.102135-6.807094,1.090381-.694214,2.507176-.71412,3.732915-.444929,2.848165.697787,2.657443,4.231021,1.71826,6.365833h0Z" /><path class="st25" d="M74.336469,313.976506c-8.965406-3.063767-17.509437-7.697798-24.137615-14.573414-.00008.000111,2.110271,1.087513,2.110271,1.087513,2.525879,1.301575,5.767578.992676,8.168457-.602478,1.235641-.781771,2.276524-1.950132,3.459942-2.805752,2.425362-1.809386,5.728961-2.963626,8.687036-1.792919,2.811308,1.08161,4.93338,4.663018,3.531804,7.53268-.691966,1.375561-1.959544,2.340893-3.308177,2.956311,1.319336-.6745,2.523438-1.699219,3.120117-3.043457,1.175347-2.720047-.903273-6.038655-3.525316-6.97024-4.025994-1.418125-7.879374,1.345717-10.652828,4.035399-2.685452,2.236449-6.632211,3.005063-9.834086,1.27921.000023.000053.41555-.540718.41555-.540718,6.204252,6.03422,13.998453,10.1884,21.964844,13.437866h0Z" /><path class="st24" d="M72.848187,305.778447c.259797-2.097347-.025625-5.370383-2.677306-5.495068-3.971786-.266026-6.036721,3.667748-3.989569,6.952187,1.875901,3.052439,5.121184,4.966513,8.155121,6.740974-3.292019-1.425386-6.74445-3.258082-8.727548-6.404277-1.430593-2.118495-1.271819-5.396892.965969-6.937552,1.032642-.757849,2.39679-.996231,3.648333-.90753,2.923358.273203,3.247195,3.802,2.624999,6.051266h0Z" /><path class="st25" d="M74.93266,314.427861c-1.608502-.935212-3.248-1.950997-4.855475-2.908137.000006-.000005,1.23194.376277,1.23194.376277,2.801443.899856,5.937438.012918,8.081042-1.947436.469772-.428877,1.092489-1.100352,1.483873-1.597998,2.963095-4.371812,9.95031-7.474343,13.631449-2.222874,2.151211,2.759725.790456,6.202718-2.031976,7.808434,1.182779-.891383,2.213541-2.078517,2.584147-3.485133.754916-2.83877-1.781485-5.742131-4.470654-6.29507-4.159772-.836148-7.56339,2.470814-9.941378,5.480867-2.327278,2.575466-6.165546,3.815394-9.456652,2.549007.000032.00006.151888-.272279.151888-.272279,1.194336.834229,2.400391,1.657349,3.591797,2.514343h0Z" /><path class="st24" d="M92.473676,313.936162c-.11828-3.144837-1.361021-6.170325-5.010275-4.638716-2.838762,1.061535-2.704115,5.012129-1.2031,7.164749,2.063345,2.902092,5.714363,4.058372,8.89009,5.364407-3.390652-.925663-7.249877-1.97185-9.438477-4.989975-1.425089-2.029589-1.802061-5.076944-.072734-7.072168.851453-.964519,2.200608-1.354258,3.438011-1.435114,2.883548-.07125,3.670611,3.316052,3.396487,5.606817h0Z" /><path class="st25" d="M117.007855,327.49561c-9.469595-.297793-18.998351-2.220015-27.352007-6.84803-.000044.000129,2.33687.420356,2.33687.420356,2.796387.50293,5.804688-.743591,7.631348-2.973083.95209-1.109758,1.604433-2.532266,2.484349-3.697591,1.787652-2.441333,4.606932-4.514338,7.778359-4.263387,3.004896.208969,6.085382,3.009873,5.586967,6.164498-.257877,1.518038-1.1861,2.812838-2.294498,3.796907,1.062988-1.031921,1.913574-2.36499,2.089355-3.825073.325712-2.945305-2.635915-5.507543-5.415952-5.628709-2.951761-.141695-5.547076,1.845138-7.214417,4.145187-.851969,1.156199-1.539475,2.64358-2.482954,3.757968-1.935017,2.414518-5.191365,3.803984-8.327595,3.189848l.23877-.638977c7.701642,3.948111,16.372458,5.63169,24.941406,6.400085h0Z" /><path class="st24" d="M113.179242,320.095281c-.368004-2.078787-1.595537-5.116238-4.163145-4.470086-2.297457.510603-3.886982,2.651607-3.359196,4.994776,1.106638,4.934249,7.184502,5.795491,11.350818,6.875776-3.546177-.410364-7.461901-.960125-10.238177-3.462823-2.452358-2.090075-2.696497-6.615036.367334-8.280012,3.720885-2.145502,5.861698.779044,6.042366,4.34237h0Z" /><path class="st25" d="M139.045453,330.819463c-9.448518.698636-19.12538-.211435-27.919403-3.936473-.00003.000133,2.367646.172496,2.367646.172496,3.230823.254485,6.355502-1.817621,7.848093-4.68438,1.104581-2.389703,2.318408-4.863384,4.505491-6.4739,1.218194-.944138,2.732842-1.546189,4.292901-1.595322,3.010188-.107764,6.367516,2.354281,6.203674,5.543479-.096741,1.536721-.884338,2.921914-1.882874,4.017007.94873-1.137939,1.654297-2.552979,1.675781-4.023499.01468-2.963412-3.200367-5.200137-5.976992-5.028495-2.951222.169112-5.322169,2.417373-6.739314,4.880178-.725761,1.239254-1.253437,2.790869-2.074753,3.998085-1.670366,2.604455-4.762651,4.328271-7.946245,4.047082l.17041-.660522c8.07402,3.116896,16.872973,3.880312,25.475586,3.744263h0Z" /><path class="st24" d="M134.46098,323.86237c-.58466-2.027993-2.123033-4.918316-4.607968-4.008776-2.25379.747143-3.541072,3.063658-2.769342,5.336496,1.529921,4.874842,7.710132,5.00163,11.961679,5.629497-3.559433-.046044-7.544793-.082158-10.548264-2.325526-2.590016-1.858-3.335989-6.327468-.499413-8.31672,3.47482-2.522563,5.9095.16196,6.463308,3.68503h0Z" /><path class="st25" d="M158.653363,330.620732c-8.533514,2.181835-17.543084,2.924505-26.191888.900131-.000007.000137,2.321282-.243637,2.321282-.243637,2.624512-.275696,4.989258-2.141663,6.135254-4.561646,1.052459-2.486365,1.566948-5.515336,3.630535-7.545205.973957-1.054221,2.240559-1.885764,3.670246-2.199057,2.737881-.678697,6.303195,1.064998,6.54643,4.067476.102496,1.434294-.443891,2.811369-1.209516,3.961576,3.951711-6.319792-4.299916-10.478252-8.553735-5.408772-2.018308,2.061062-2.362855,4.830638-3.457341,7.42868-1.204256,2.62035-3.755037,4.675038-6.735994,4.942067l.053711-.678894c7.846055,1.554947,15.980638.821068,23.791016-.66272h0Z" /><path class="st24" d="M153.555707,325.000371c-.80079-1.76257-2.607373-4.130681-4.710994-2.908534-3.226658,1.845627-3.065827,5.544455.252633,7.182588,2.925124,1.476757,6.315026,1.493732,9.556007,1.34634-3.232417.584722-6.813578.739109-9.86279-.757246-2.13565-.919695-3.784218-3.539478-2.636115-5.8236.492109-1.064534,1.425425-1.895323,2.435434-2.445128,2.407006-1.242461,4.399997,1.323579,4.965824,3.40558h0Z" /><path class="st5" d="M42.133223,263.833974s41.575713,49.2127,113.381625,46.972483c1.489393,7.648192,4.096538,14.064362,7.699942,19.382143-1.150328,3.170022-74.308432,6.96985-125.537734-39.270216l4.456167-27.08441Z" /><path class="st29" d="M151.489333,369.596371c-29.222337,2.403888-64.031166.402811-89.662101-8.785066-37.036222-13.275853-55.047984-36.660786-55.871845-37.599331l3.005505-2.63957c.195497.222024,20.028162,24.721814,56.035344,37.629132,32.045083,11.486144,82.249726,9.997159,110.4027,3.717036,2.153619-.480411,13.021869-2.818362,14.899404-3.351183,1.877297-.220858,3.423306.552146,3.644164,3.092018-2.112908.488315-14.857624,3.419132-17.36584,3.951948-7.689798,1.633532-16.848058,3.307236-25.087332,3.985015Z" /><g><path class="st9" d="M6.875397,333.279098s19.435544,19.214685,37.987654,26.061297H6.875397v-26.061297Z" /><path class="st6" d="M20.568925,349.749067c-.161811-.273269-.376337-.509996-.645156-.710624-.073537-.054688-.355354-.243629-.418015-.282189-.495294-.302836-1.301655-.615309-2.416533-.937613-1.442875-.41883-2.544219-.810206-3.30775-1.175915-.600388-.289733-1.139449-.646307-1.616787-1.071276.004396.018628-.018216.032017-.032436.019206.14312.62287.196592,1.266976.16197,1.932718-.046444.84532-.232808,1.999187-.558318,3.465132-.254414,1.133103-.367147,1.9898-.340733,2.570274.003684.073483.033854.411431.046449.502205.046663.332173.151092.634092.312903.907361l.048315.081595c.275316.464958.715688.744544,1.321704.839748.606598.096196,1.203513-.030243,1.791336-.378311.581928-.344578.988167-.833387,1.217156-1.466841.054363-.150335.086445-.311402.108965-.477402.333668.738389.475707,1.583644.175792,2.487445l.874858-.51803,1.112732-.658883.874858-.51803c-.937662-.170994-1.61109-.702914-2.09811-1.350519.017395.00696.034613.011371.052991.017748.038909.014135.079959.029655.118687.041243.100121.032322.199883.05955.299899.075991.665529.103783,1.289452-.017398,1.871381-.361976.587823-.348068.985684-.810665,1.192994-1.388802.207897-.577146.17448-1.097704-.100836-1.562661l-.048315-.081595Z" /></g></svg>