<svg id="Layer_3" xmlns="http://www.w3.org/2000/svg" xmlns:xlink="http://www.w3.org/1999/xlink" version="1.1" viewBox="0 0 242 381" width="242" height="381" preserveAspectRatio="none"><defs><style>
      .st0, .st1, .st2, .st3 {
        fill: none;
      }

      .st4 {
        fill: #8d909e;
      }

      .st5 {
        fill: #d44097;
      }

      .st6 {
        fill: #231f20;
      }

      .st7 {
        fill: #ed1a79;
      }

      .st8 {
        stroke: #fff;
        stroke-linejoin: round;
        stroke-width: 1.414847px;
      }

      .st8, .st9 {
        fill: #f2b1d0;
      }

      .st10 {
        fill: #a5a2a3;
      }

      .st11 {
        fill: #f1f0f0;
      }

      .st12 {
        fill: #a27b2f;
      }

      .st13 {
        fill: #84a5b7;
      }

      .st14 {
        fill: #fff;
      }

      .st15 {
        fill: #7d7e81;
      }

      .st1 {
        stroke: #1a1a1a;
        stroke-width: 1.529193px;
      }

      .st1, .st2, .st3 {
        stroke-miterlimit: 10;
      }

      .st16 {
        fill: #42283e;
      }

      .st17 {
        fill: #bbe5f3;
        opacity: .75;
      }

      .st2 {
        stroke: #84a5b7;
        stroke-width: 1.423847px;
      }

      .st18 {
        fill: #aa206f;
      }

      .st19 {
        fill: #f2bc24;
      }

      .st20 {
        fill: #76797d;
      }

      .st21 {
        fill: #c2a775;
      }

      .st22 {
        fill: #c58d50;
      }

      .st3 {
        stroke: #8d909e;
        stroke-linecap: round;
        stroke-width: 1.42657px;
      }

      .st23 {
        fill: #333;
      }

      .st24 {
        fill: #ffd879;
      }

      .st25 {
        fill: #a35886;
      }

      .st26 {
        fill: #add8ef;
      }

      .st27 {
        fill: #1a1a1a;
      }

      .st28 {
        clip-path: url(#clippath);
      }

      .st29 {
        fill: #c1bdbe;
      }

      .st30 {
        fill: #fcdf6a;
      }

      .st31 {
        fill: #e8e8e8;
      }

      .st32 {
        fill: #a8a5a5;
      }
    </style><clipPath id="clippath"><rect class="st0" x=".194241" y="0" width="242" height="365" rx="4" ry="4" /></clipPath></defs><path class="st14" d="M3.816449,365h234.347701c1.98,0,4.224333-2.027085,4.224333-4.007085V4.002472c0-1.98-1.62-3.6-3.6-3.6H3.6C1.611775.402472,0,2.014247,0,4.002472v356.990443c0,1.98,1.836449,4.007085,3.816449,4.007085Z" /><rect class="st0" x=".194241" y="0" width="242" height="365" rx="4" ry="4" /><g class="st28"><path class="st5" d="M230.049423,303.223817l23.277873,13.966724.665082,51.21132s-39.904924,29.928693-43.230335,29.928693-232.113643-17.292134-232.113643-17.292134l4.655575-61.187551,1.662705-9.64369,45.558122-28.598529,199.524622,21.615167Z" /></g><path class="st32" d="M41.856162,228.129052c11.726184,3.583904,29.716988,1.065976,36.891746-8.024055,6.675647-8.457683,9.097634-28.933106-.163828-38.204828-9.203035-9.213232-34.194388-.110361-41.400737,12.562634-7.206349,12.672995-7.780782,29.860023,4.672818,33.666249Z" /><path class="st20" d="M42.261698,221.939872c7.15246,4.050198,16.138782,4.849301,23.445298.805681,1.069838-.502703,2.017592-1.217043,3.082534-1.783739-.909724.773294-1.78733,1.622963-2.781697,2.284889-7.024558,5.031391-17.233492,4.232896-23.746135-1.306831h0Z" /><path class="st20" d="M68.332011,222.258704c2.694978-9.741025,5.26555-21.561446-.973345-30.4487-.893354-1.207138-1.984175-2.255112-3.153608-3.242264,1.324219.76535,2.525391,1.748413,3.603516,2.869904,7.23045,8.604583,4.764703,21.394324.523438,30.82106h0Z" /><path class="st20" d="M72.38914,218.123954c-9.351239,1.5585-19.83117.360409-27.381888-5.830294.000052-.000135.905814-.730466.905814-.730466,4.945968,7.063972,14.040288,9.833574,22.416496,9.423295-2.134758.310866-4.309075.364608-6.477532.214995-6.550326-.512205-13.100282-3.516784-16.941429-9.02782.000023-.000028-2.394508-3.533994-2.394508-3.533994l3.300293,2.803619c7.338371,5.89633,17.398692,7.242809,26.572754,6.680664h0Z" /><path class="st20" d="M45.662089,185.420432c-.44032,11.218035,4.043631,23.48578,15.118862,27.928673,1.473925.710009,3.044484,1.167167,4.603796,1.672103-1.625978-.237022-3.244142-.597114-4.816896-1.127754-11.807455-3.691942-16.959957-17.005868-14.905762-28.473022h0Z" /><path class="st20" d="M58.739237,179.50521c9.567178,2.431833,15.764868,11.441004,15.493081,21.184943.02855,2.08631-.352635,4.384941-.738256,6.408101-.009708-1.437923.10748-2.852855.09039-4.26617-.050446-.719733-.153872-2.475251-.188973-3.166264-.067342-.687834-.397465-2.397321-.498003-3.110246-.212892-.982848-.580302-2.039526-.829598-3.019823-.597908-1.573936-1.369376-3.225841-2.236923-4.685013-2.68486-4.118268-6.538513-7.387853-11.091718-9.345528h0Z" /><path class="st23" d="M102.466392,191.660395c-49.757922,14.397581-95.526903,85.957824-94.670356,112.939054l50.961275-14.019762,25.261151-57.565474,18.44793-41.353818Z" /><path class="st18" d="M111.779098,190.795245c-49.757922,14.397581-88.993491,72.689949-100.556875,109.093196l56.847794-10.173904,25.261151-57.565474,18.44793-41.353818Z" /><path class="st23" d="M183.720046,204.308089s-2.022881,68.17775,52.899396,105.608826l-63.52983-21.695251-19.538278-46.54554,6.313802-28.642405c7.451248-12.685868,13.566457-19.129871,23.854909-8.725631Z" /><path class="st18" d="M180.33688,205.49128s-5.060574,68.778825,49.861704,106.2099l-62.671269-22.906988-19.538278-46.54554,6.313802-28.642405c7.451248-12.685868,15.74559-18.519208,26.034041-8.114968Z" /><path class="st19" d="M183.982262,165.73124s3.336405,1.234972,6.344604-2.766645c3.008199-4.001617,9.003351-16.544306,8.404326-27.052494-.219319-3.847321-2.016795-5.170021-3.87466-3.906165-1.857865,1.263856-8.743346,14.334402-13.458204,20.689821-4.714858,6.355418-24.779304,26.263884-28.780453,38.368352l4.702968.20696s9.630497-21.688949,26.661418-25.539828Z" /><path class="st22" d="M194.688871,149.690679c-1.690071,7.637645-4.342391,12.055469-7.539688,12.355256-1.639372.153712-.692804-6.972859,1.919194-14.346287,2.611998-7.373427,5.987632-12.905064,7.539688-12.355256s-.346817,7.240518-1.919194,14.346287Z" /><path class="st19" d="M116.10517,199.739755l-6.350471-.421548s1.504174-13.067179,8.356838-25.088592c6.852663-12.021413,16.040989-27.686795,18.155532-33.039887,2.114543-5.353092,1.561765-14.585119,5.896788-20.546299,4.335023-5.96118,5.36922.896045,5.83219,4.16457.46297,3.268526.60388,16.842762-1.495011,25.123172-1.008906,3.98027-3.839795,6.792709-6.101737,7.700239-2.261942.90753-14.414708,8.227683-19.760958,22.593963-5.34625,14.36628-4.533171,19.514382-4.533171,19.514382Z" /><ellipse class="st22" cx="143.366111" cy="137.556418" rx="15.533321" ry="3.611135" transform="translate(-3.287147 271.602798) rotate(-86.243689)" /><path class="st5" d="M97.533381,189.604647s.36447-10.128582,5.073099-14.899384c0,0,8.58695,4.210109,8.546163,9.941119l-6.05761,8.140433-7.561652-3.182168Z" /><path class="st5" d="M115.035202,180.629053s-.036872-8.660753,5.560772-13.143667c0,0,6.210316,3.467938,8.412376,12.119473l-7.910065,5.157333-6.063083-4.133139Z" /><path class="st5" d="M168.047392,185.680344s3.718767-5.116835,10.812646-6.820844c0,0,2.213764,9.034417-.985361,14.01077l-5.605721-.609586-4.221565-6.58034Z" /><path class="st5" d="M182.88707,205.965464s3.247255-4.962488,2.793763-8.406727c0,0-7.290613-1.001619-8.559241,2.669367l5.765478,5.737361Z" /><path class="st18" d="M25.129386,284.674911l-21.616086,14.356983s23.774155,79.705077,128.298786,79.019521c45.562019-.298832,90.268074-28.970518,105.538541-70.882325l-16.162995-10.496024-7.26718,3.396263-28.78373,35.284642-38.491755,15.797817-41.827431-2.405896-45.063772-18.071479-34.624379-45.999502Z" /><path class="st7" d="M3.084941,299.031898c19.508776,47.255308,65.766706,74.903757,115.820033,77.513223,24.575934,2.18548,49.09676-2.837402,70.471421-15.273425,21.277909-12.181979,38.874843-31.141856,47.974142-54.102626-7.930454,23.644239-25.491659,43.397174-46.750517,56.180502-21.352576,13.190087-46.999783,18.498629-71.907706,16.332492-51.056451-2.899831-97.814382-31.386228-115.607373-80.650166h0Z" /><path class="st7" d="M189.192672,276.829267l25.221952,15.961001-21.385159,33.115096-19.143928,13.792396c-20.50966,5.768324-40.757695,8.282627-60.655528,6.419497l-38.994417-9.931953c-15.617538-5.206342-29.133228-18.241717-40.749266-38.345582l-8.158847-12.399093,29.478797-21.059815,24.988552,30.804143,52.687486,10.082778,44.992814-16.113229,11.717544-12.325238Z" /><path class="st10" d="M180.722215,220.613016c-2.148857,13.674787-7.297995,15.362259,1.72942,23.380393,3.348281,2.973937-6.024669,1.156792-6.024669,1.156792l-30.901246-23.415101-4.70136-30.862334s8.506721-8.2765,16.297747-7.879572c4.893502.249308,27.940033,10.001636,23.600109,37.619823Z" /><path class="st20" d="M152.639628,194.279563c10.823415.198075,19.461127,8.766004,22.321109,18.832965.430844,1.221692.692563,2.616086.667172,3.946851-.044133,3.962312-1.661246,7.708352-3.163056,11.253884-1.954409,4.612787-4.470557,9.515732-3.156351,14.637239-1.875022-4.996992.507315-10.332002,2.262238-15.005611,1.790116-4.587933,3.963576-9.601178,2.282745-14.48996-2.668253-9.772547-10.854667-18.165056-21.213857-19.175367h0Z" /><path class="st20" d="M149.411112,192.424583c8.349874-2.517693,20.367497-2.825849,24.607384,6.427743,2.768831,5.50964,4.174801,11.598743,4.550421,17.728026.118562,3.063102.017976,6.194389-.951262,9.203514-.516602,1.452362-1.000488,2.838135-1.375,4.296188-1.027607,4.046011-1.911174,8.704719-.070031,12.631884.051476.077619.106652.153593.174035.216459.056152.071152.189453.100357.198242-.025345-.051296.269879-.345662-.046512-.427218-.150043-2.373192-3.807937-1.692761-8.72922-.853231-12.919731.353692-1.486821.838555-2.978078,1.319024-4.387761.874512-2.790634.959473-5.833954.811035-8.804169-.377134-5.933813-1.644659-11.969565-4.293411-17.312758-3.999966-8.980885-15.453094-8.7061-23.689988-6.904008h0Z" /><path class="st19" d="M195.511452,254.4281c-1.120517-6.838096-8.086046-10.21542-12.794705-12.433804-4.70866-2.218384-17.553187-7.317045-17.553187-7.317045,0,0,3.951055-8.925338,4.81315-11.669199.862239-2.743862,3.283886-6.280399,1.196291-11.449757-2.087596-5.169358-8.671681-10.727515-8.671681-10.727515-5.893041-4.58481-18.651828-10.119126-30.775311-9.648458-12.123482.470811-29.894339,4.694605-39.812416,13.365572-9.918077,8.670967-39.655489,27.017077-40.906591,45.019419-.456739,6.572163,1.427896,17.039467,3.524341,24.208913,3.646143,12.469119,25.263485,21.408731,25.263485,21.408731,1.373189-1.883922,2.236853-5.658373,2.264857-12.532433,0,0-1.666443-1.587029-1.582708-2.728141l.048092-.023721c18.974879-5.627862,27.033699-22.858088,27.033699-22.858088,22.497641-2.482263,27.924251-14.191672,27.924251-14.191672l18.351517,1.046917s3.253881,12.986756,18.932719,13.384206c0,0,3.264311,16.175208,14.225248,22.096815.64644-.769887,1.230143-1.515669,1.724672-2.217931,4.360294-6.189528,7.91494-15.894426,6.794277-22.732808Z" /><path class="st29" d="M150.48175,194.773557c-5.598366,4.593116-24.629617,16.841355-43.338941,17.855302-18.709323,1.013948-16.396572,13.921713-20.817493,19.29813-4.420921,5.376417-17.316996,9.471566-22.66711,9.061038-5.350114-.410528-11.206515,2.192875-11.206515,2.192875,6.662914-26.175983,21.235666-42.535396,37.746549-47.687715,16.510883-5.152319,11.466502-8.919979,25.641248-13.569346,12.528015-4.109234,20.825823-2.350746,24.376776-2.036046,11.26353.998218,15.863852,10.292646,10.265486,14.885762Z" /><path class="st20" d="M140.790995,185.78054c-1.486433,8.366845-12.323804,14.28581-19.585752,17.202581-4.202334,1.649881-8.558291,2.899515-12.982119,3.769358-8.876878,1.614988-18.38185,6.523824-21.051245,15.652794-5.129326,13.009449-19.618807,18.122728-32.648511,15.920222,8.74528.602548,18.150999-1.140521,24.717319-7.225713,3.194839-2.967222,5.715835-6.610746,6.910659-10.851011.76416-2.253769,2.108398-4.223663,3.631348-5.973526,4.600462-5.208773,11.462379-7.995471,18.140626-9.082455,4.356444-.812656,8.670897-1.880024,12.844237-3.369434,7.223809-2.690924,18.002739-7.995859,20.023438-16.042816h0Z" /><path class="st20" d="M139.9658,182.569663c-.274218,4.383176-3.94845,7.740579-7.080355,10.448045-6.820651,5.422568-15.451729,8.095382-24.014361,9.087833-1.852647.212643-4.561832.349218-6.453611.438075-6.476215.243226-11.947899,4.163278-15.310923,9.611751-3.586593,5.237973-5.85964,11.847608-11.110367,15.876256-3.557843,2.605202-8.098136,3.592384-12.433704,3.209112-2.07938-.251266-4.486571-.55491-5.977113-2.164631,1.565229,1.494553,3.944385,1.661048,5.999532,1.830188,4.208127.16374,8.584334-.920478,11.937058-3.504622,4.983156-4.144037,7.055451-10.540448,10.638822-15.867154,3.398866-5.760029,9.387827-9.856587,16.183583-10.039559,1.877647-.065975,4.576275-.189785,6.421694-.389776,8.467337-.797435,16.952972-3.32746,23.840859-8.446108,3.18519-2.581588,6.89005-5.778237,7.358886-10.08941h0Z" /><path class="st20" d="M128.037577,182.379874c-.590413,3.65825-3.311424,6.639441-6.344707,8.59718-6.257636,4.040075-13.995814,4.333189-21.157266,4.707089-11.231309,1.774093-22.191894,9.821111-25.888801,20.774043-1.857991,6.576051-9.077993,9.759867-15.477013,8.988907,6.226882.240272,12.999535-2.85901,14.626467-9.250711,3.530827-11.488378,14.917981-19.895377,26.614202-21.551121,7.138255-.319347,14.685091-.323952,21.012346-4.10588,3.066238-1.797049,5.807123-4.595898,6.614771-8.159507h0Z" /><path class="st12" d="M169.836894,246.41442c-4.956448,2.816316-13.11908,1.949039-14.762652-4.336724,3.177426,5.169261,9.381134,5.324316,14.762652,4.336724h0Z" /><path class="st9" d="M195.413934,289.69039c-.79137-.407505-1.591306-.479108-2.401796-.212546-.809152.263965-1.419497.796346-1.831016,1.59551-.222154.431421-.367541.894144-.437188,1.391767-.068647.495679-.068094,1.082056.003661,1.755243.042161.412986.201816,1.418317.479601,3.017952.379423,2.178071.584038,3.745797.614832,4.702861.029812.957373-.062339,1.918532-.275755,2.880526.648093-.711045,1.379496-1.336446,2.192539-1.872959,1.031424-.678054,2.520676-1.458211,4.466769-2.340151,1.505371-.678964,2.59449-1.288677,3.266319-1.823928.672493-.53654,1.176715-1.132611,1.513296-1.786246.378397-.734841.432344-1.506872.164169-2.31902-.269497-.811173-.796027-1.418515-1.579601-1.822006-.777075-.400145-1.613731-.462697-2.510605-.188012-.649556.201465-1.297439.647111-1.94231,1.334341.152369-.967955.117487-1.77341-.106286-2.416369-.294077-.860819-.833055-1.493473-1.616628-1.896964" /><path class="st9" d="M42.260489,279.499564c.785957-.417851,1.584884-.49994,2.398801-.244032.812545.253329,1.429821.777658,1.851787,1.571355.227794.42847.379238.889246.455406,1.385913.075143.494736.082281,1.08107.019363,1.75514-.036741.413503-.183195,1.420842-.439973,3.023983-.350821,2.182861-.534854,3.753136-.553092,4.710521-.017252.957681.087499,1.917549.313515,2.876661-.657364-.702483-1.396907-1.318236-2.216918-1.844038-1.040229-.664467-2.539586-1.425022-4.49708-2.281359-1.514147-.65916-2.61117-1.254534-3.289963-1.780926-.679473-.527672-1.19147-1.117079-1.536596-1.766242-.388003-.729814-.452072-1.501071-.194573-2.316667.258834-.814638.777352-1.428835,1.555566-1.842569.77176-.410303,1.607523-.483825,2.507922-.220928.652143.192927,1.305815.630037,1.959646,1.308749-.165053-.965873-.140739-1.771716.074582-2.417555.282761-.864603.813393-1.504272,1.591607-1.918006" /><path class="st30" d="M172.767255,257.282024c-15.678837-.397449-18.932719-13.384206-18.932719-13.384206l-18.351517-1.046917s-5.42661,11.709408-27.924251,14.191672c0,0-8.05882,17.230226-27.033699,22.858088l-.048092.023721c.543014.778886,1.381801,1.94684,2.565756,3.50397,2.367479,3.113975,12.591584,11.261537,32.967675,16.604452,20.376377,5.342769,33.261605,1.737603,45.553574-2.841551,10.897625-4.059674,20.377553-11.79555,25.428521-17.812412-10.960937-5.921608-14.225248-22.096815-14.225248-22.096815Z" /><path class="st11" d="M165.161276,227.538575c-2.312535,7.144511-6.283419,12.639957-10.875875,11.759385-4.592456-.880571-7.169002-7.573116-5.754878-14.948217,1.414124-7.375101,6.696224-11.909759,11.334496-11.316049,7.035485.900559,7.878341,6.527605,5.296258,14.504881Z" /><path class="st11" d="M138.907707,224.194226c-1.416724,8.314111-5.126228,15.07931-10.780644,14.878091-5.654417-.201218-9.995378-7.188606-9.695809-15.606768.299569-8.418161,5.125556-14.753429,10.780644-14.878091,8.577827-.189093,11.277667,6.323564,9.695809,15.606768Z" /><path class="st12" d="M154.285624,239.297965c-6.508711-1.210886-7.370185-9.873086-5.919049-15.169977.291608-.810644.553815-1.622213.866803-2.406286-.123535.848541-.29834,1.669571-.442871,2.491745-.639145,5.284262-.277054,12.865197,5.495117,15.084518h0Z" /><path class="st12" d="M128.126933,239.072318c-9.986242-.224014-12.290645-15.132382-8.375969-22.32379-.588386,2.191466-.844734,4.418837-.856453,6.631591.050232,6.182159,2.271678,14.342885,9.232422,15.6922h0Z" /><path class="st24" d="M148.909394,222.973024s4.083456-8.254851,11.861052-7.010957c3.132704.501023,5.361845,2.806924,5.607898,5.328634,0,0,1.500909-6.269564-4.128974-8.467752-4.511746-1.761611-12.961355,2.353026-13.339976,10.150074Z" /><path class="st24" d="M119.442538,216.950287s3.395387-9.149737,11.479368-9.202759c8.083981-.053021,8.405045,9.137537,8.405045,9.137537,0,0-.164166-5.149423-5.255665-6.093972s-13.270376,4.520379-14.628748,6.159194Z" /><path class="st12" d="M116.88621,244.675437c5.011825,2.034219,11.057677,1.85561,14.90716-2.290333.566961-.536724,1.044012-1.16293,1.626043-1.729885-.361328.706223-.722656,1.439453-1.186035,2.104782-3.439918,5.113442-10.658654,5.549808-15.347168,1.915436h0Z" /><ellipse class="st23" cx="155.734943" cy="225.188241" rx="3.344932" ry="6.220399" transform="translate(-1.473584 1.026256) rotate(-.375786)" /><ellipse class="st23" cx="127.375494" cy="222.909505" rx="3.755713" ry="6.572497" transform="translate(-1.459248 .840207) rotate(-.375786)" /><ellipse class="st14" cx="153.5286" cy="223.229668" rx="1.408392" ry="2.171271" transform="translate(-1.460786 1.011743) rotate(-.375786)" /><ellipse class="st14" cx="124.857428" cy="220.635379" rx="1.408392" ry="2.171271" transform="translate(-1.444387 .823643) rotate(-.375786)" /><path class="st21" d="M154.308085,265.241279c-.588136,2.186086-1.947624,3.983721-3.969627,5.029227.807083-2.123558,2.067385-3.77636,3.969627-5.029227h0Z" /><path class="st21" d="M127.872538,277.588874c7.64824,3.619163,19.326452,7.786653,26.89951,2.295834,3.09218-3.508773-1.338634-8.017828-3.441314-10.954967,2.846551,2.804068,7.628499,7.591992,4.182582,11.670935-7.734091,6.274471-20.233879,1.849539-27.640777-3.011803h0Z" /><ellipse class="st27" cx="171.883169" cy="235.350246" rx="1.597273" ry="1.923246" transform="translate(-1.539886 1.132385) rotate(-.375786)" /><ellipse class="st27" cx="113.921966" cy="235.07844" rx="1.988441" ry="1.858052" transform="translate(-1.53935 .752232) rotate(-.375786)" /><path class="st27" d="M138.377926,231.234453s6.022792-6.167945,9.805292-5.997165c3.7825.17078,3.246215,7.867449,3.246215,7.867449l-2.223844-1.09375s.765645-2.547673-2.2993-2.657963c-3.064945-.11029-7.402116,4.612283-7.402116,4.612283l-1.126247-2.730854Z" /><ellipse class="st17" cx="160.903772" cy="236.193897" rx="9.227022" ry="6.670136" transform="translate(-1.545655 1.060393) rotate(-.375786)" /><ellipse class="st17" cx="127.096747" cy="234.525718" rx="11.4504" ry="7.003643" transform="translate(-1.535441 .838629) rotate(-.375786)" /><ellipse class="st1" cx="160.525577" cy="236.035155" rx="9.639315" ry="6.973905" transform="translate(-7.486185 5.268817) rotate(-1.837569)" /><ellipse class="st1" cx="127.312533" cy="234.56311" rx="11.738935" ry="7.014553" transform="translate(-1.535682 .840045) rotate(-.375786)" /><polygon class="st16" points="146.270203 251.654296 144.596555 254.925083 139.523443 256.78385 136.246669 254.197494 134.25495 248.734076 134.495199 245.603083 138.504464 243.302621 145.324999 246.705584 146.270203 251.654296" /><path class="st25" d="M139.64169,249.970045c-2.08613-.610954-3.562749.938209-4.246759,1.890995l.851763,2.336443,3.27685,2.586331,5.073071-1.858649.388751-.760155c-2.028161-1.493293-3.491337-3.65255-5.343676-4.194964Z" /><path class="st29" d="M148.095383,231.733307c2.647862-.017367,6.329103,3.169993,5.455952,9.942817-.873151,6.772824-1.885065,9.876269-7.024374,13.236177,0,0-3.706992-5.595819-5.200992-6.044806s-3.05628.103447-3.747439-.350806c-.691159-.454253-1.056563-2.04675-1.056563-2.04675,0,0,1.354498-1.483119.550904-1.592545s-3.217655,1.630473-3.217655,1.630473c0,0,2.656313-14.698583,14.240168-14.774559Z" /><path class="st29" d="M133.855216,246.507866s-1.442096,7.464735,2.381093,13.289185c3.823188,5.82445,7.940051,3.962303,8.964001,2.693925,1.02395-1.268378,1.887322-9.532194,1.887322-9.532194,0,0-2.978974.478325-4.11912,1.518072-1.140146,1.039747-2.754801,1.09694-3.096674.02031-.670628-2.111945-1.987728-2.27958-2.79433-2.847772-.806603-.568193-.902883-1.257055-.795714-2.404724.066981-.717291-.541469-2.636926-1.229885-3.25406-.413053-.370283-.855155.127915-1.196693.517258Z" /><path class="st15" d="M140.454674,238.435822s1.016578,1.317403,1.955776.904745c1.234489-.542401,3.415925-3.807391,1.236784-3.793099s-3.312517,2.086264-3.19256,2.888354Z" /><path class="st21" d="M157.050411,297.55991c-11.079877,4.317904-22.978212,3.889628-34.560815,2.690188-16.341544-1.516588-32.788693-7.837448-41.775047-20.30341l-.924247.295549c2.47115,3.792067,5.599218,7.163831,9.199082,9.870386,9.542504,7.322056,21.554647,10.477454,33.305212,11.889173,11.814685,1.095104,24.083971,1.508311,35.219809-3.166075,10.914775-4.334914,21.758201-10.331037,29.160786-19.636851-7.886834,8.729442-18.714025,14.354553-29.62478,18.36104Z" /><path class="st12" d="M81.663554,281.872703c1.525637,3.953288,1.646504,9.478709-1.784482,12.475857,1.941223-3.821843,1.653974-8.311611,1.784482-12.475857h0Z" /><path class="st31" d="M191.945603,271.958717l-6.895924,39.067859s-17.734904,23.848822-66.483783,19.195803c-18.451933-1.761214-57.010152-11.730283-65.927986-37.250045l-1.640065-38.31121s23.750599,32.184869,70.027982,37.431581c46.277382,5.246711,61.195653-6.434038,70.919777-20.133988Z" /><g><path class="st3" d="M175.771057,319.199805c.133525-.068059.67367-.342416.795548-.415831,14.76694-8.898942-11.008244-25.817925,5.954425-35.41212" /><path class="st4" d="M188.065409,293.292029c.891039-4.024364,1.099963-12.497236-5.286704-9.253684-.88991.406445-1.462534-.986815-.539421-1.321876,7.659717-2.830211,7.473836,5.574451,5.826125,10.57556h0Z" /></g><g><g><path class="st3" d="M161.788101,325.96747c.13781-.045749.697802-.227718.821054-.282582,15.229995-6.776072-11.712972-28.076469,6.053349-35.624231" /><path class="st3" d="M177.201972,318.507357c-.133596.068109-2.113078,1.057874-2.228603,1.088754-13.868836,3.706506,12.038416-33.630885-6.310865-29.535453" /></g><g><path class="st3" d="M147.111432,329.62034c.140421-.023581.713384-.113581.837151-.150532,15.484663-4.626384-11.667465-31.289812,6.712439-36.672082" /><path class="st3" d="M161.788101,325.96747c-.137738.045747-.704592.249778-.82229.262982-14.402921,1.618452,12.445698-34.810896-6.304789-33.432725" /></g></g><g><g><path class="st3" d="M132.376085,330.812064c.14146-.001699.720487-.000101.84394-.019874,15.540858-2.488724-11.474254-34.246699,7.318815-37.364988" /><path class="st3" d="M147.111432,329.62034c-.140383.023627-.718466.134833-.837586.131004-14.797649-.479256,13.182534-35.093423-5.735006-36.324143" /></g><g><path class="st3" d="M117.338212,329.985062c.140968.019989.71903.112534.841353.109536,15.406195-.380952-10.453201-36.532861,8.544178-37.305228" /><path class="st3" d="M132.376085,330.812064c-.14146.001699-.723662.020966-.843541.000322-15.03688-2.591208,14.05179-34.296383-4.808801-38.023016" /></g></g><g><g><path class="st3" d="M102.341477,327.322609c.138943.041485.709114.22418.82946.237601,15.09325,1.679731-8.941364-38.528036,10.043266-36.886815" /><path class="st3" d="M117.338212,329.985062c-.140968-.019989-.720314-.091582-.840188-.128968-15.103652-4.708028,15.305072-33.079278-3.283821-39.182699" /></g><g><path class="st3" d="M86.354581,322.43291c.135293.062696.690571.334651.808209.364371,14.609517,3.689412-6.742594-39.823359,12.004087-35.711891" /><path class="st3" d="M102.341477,327.322609c-.138869-.04144-.708457-.202762-.827456-.256915-14.987611-6.817825,15.764538-31.627596-2.347145-39.980305" /></g></g><g><g><path class="st3" d="M73.187117,315.503612c.130056.083714.66343.443805.777582.489892,13.974425,5.641413-6.605955-40.92175,11.668952-34.292047" /><path class="st3" d="M86.354581,322.43291c-.135257-.062697-.688083-.312384-.805381-.383518-14.680304-8.903293,17.523071-29.885193.08445-40.347934" /></g><g><path class="st3" d="M60.67476,305.333918c.123304.104492.627691.551214.737667.614068,13.200277,7.546051-6.658728-41.092829,10.901615-31.904086" /><path class="st3" d="M73.187117,315.503612c-.130093-.083713-.659309-.420209-.774036-.508776-14.176773-10.944751,16.48121-28.531572-.099039-40.950936" /></g></g><g><path class="st4" d="M52.065898,276.293464c-1.150243-5.593997-.139053-18.077045,8.341952-12.593459.808991.53112-.033853,1.746758-.814646,1.171588-6.98797-5.369596-8.091427,6.875761-7.527305,11.421872h0Z" /><path class="st3" d="M60.67476,305.333918c-.123324-.104539-.622136-.526237-.733314-.632738-13.472213-12.905865,15.602523-26.214132.053466-40.41961" /></g><path class="st23" d="M148.845743,223.037516s4.424656-6.707491,10.275434-6.516472c5.850778.191019,6.894286,1.904623,7.257167,4.769658,0,0,.673857-2.183655.209073-3.098179,0,0,4.002924-1.746703,2.939105-6.556982,0,0-.412515,5.064077-5.347264,4.637657,0,0,5.346512-4.752349,3.018828-9.898427,0,0-.413632,6.884507-4.986253,9.208429l-1.498333-.184314s4.552882-6.258728.269423-12.309552c0,0,1.662853,8.706033-2.786049,12.405503l-1.031472.121462s2.605561-4.949042-.62461-7.79527c0,0,1.300724,5.95569-1.090498,8.609395,0,0-6.057419,2.589123-6.604549,6.607092Z" /><path class="st23" d="M138.860852,214.901449c-.165309-1.121395-.532095-2.157179-1.218633-3.056748,0,0,4.916723-2.326216,2.582269-8.50452,0,0-.725071,5.374216-4.196952,7.138714-1.143155.580981-2.290072.588503-1.272139-1.597408,1.017932-2.185911,3.173002-5.870336.618944-10.556144,0,0,.388161,8.810703-3.136142,11.490226-.91302.694168-1.949006.12748-1.949006.12748,0,0,3.043265-8.163417-2.940258-11.106283,0,0,4.221117,5.449819.590704,11.715191-.633573,1.093422-1.086698.391574-1.086698.391574,0,0,1.577867-4.543888-1.415399-6.244704,0,0,1.290743,4.61924-.757157,7.155997,0,0-3.324167,1.175144-5.12331,5.613891,0,0,10.295347-12.027935,19.303777-2.567267Z" /><path class="st26" d="M160.360943,176.783023s12.87704-7.625239,12.366367,13.061395c0,0,13.743046-6.984566,7.625239,12.87704,0,0,4.752433,1.907888.701433,8.397984,0,0-15.416463-18.212211-34.823164-20.670337-19.406701-2.458126-58.054247,5.470944-58.054247,5.470944,0,0,1.681357-9.736149,6.630862-10.630415,4.949505-.894266,10.188846.603232,10.188846.603232,0,0,2.420137-9.944072,8.420501-10.146765,6.000365-.202693,8.612512,3.873741,8.612512,3.873741,0,0,2.920096-14.669812,14.813189-8.068839l23.518462,5.232019Z" /><path class="st2" d="M160.360943,176.783023s12.87704-7.625239,12.366367,13.061395c0,0,13.743046-6.984566,7.625239,12.87704,0,0,4.752433,1.907888.701433,8.397984,0,0-15.416463-18.212211-34.823164-20.670337-19.406701-2.458126-58.054247,5.470944-58.054247,5.470944,0,0,2.005411-8.654938,6.630862-10.630415,6.214137-2.653985,9.859983,1.543471,9.859983,1.543471,0,0,2.748999-10.884311,8.749364-11.087003,6.000365-.202693,8.612512,3.873741,8.612512,3.873741,0,0,2.920096-14.669812,14.813189-8.068839l23.518462,5.232019Z" /><path class="st13" d="M151.713847,188.132682c2.027832-2.30307,4.266113-4.420868,6.699707-6.332123,1.894389-1.362264,3.936665-2.821526,6.368628-3.067503.833032-.080324,1.855005.176023,2.502954.803495,4.53748,4.310078.902883,13.233871-1.206303,18.065497-.00024.000024-1.043697-.891181-1.043697-.891181,12.578889-8.526852,19.168972-6.179897,11.361239,8.87322.000089-.000097-.343661-.379934-.343661-.379934,2.018583-.630369,5.028065-.973953,6.160682,1.257006.325646.685087.40963,1.441679.390587,2.173719-.019508-1.426781-.692191-2.981064-2.171439-3.353497-1.368223-.3762-2.88215-.045437-4.183543.436219.000002.000026-.343748-.379918-.343748-.379918,6.215446-14.433004,1.713092-15.16914-10.053829-7.469837.000118.000034-1.043339-.891232-1.043339-.891232,1.860223-4.294992,5.449574-12.671387,1.739995-16.601161-3.381742-2.861074-12.150842,5.428561-14.834233,7.757228h0Z" /><path class="st13" d="M144.850566,183.755302c-2.570947-3.11621-9.377793-11.753557-13.8134-9.905894-4.345434,3.052323-5.353225,11.328805-5.984197,16.327468.000234.000118-1.304453.130093-1.304453.130093-1.632527-5.296207-6.341487-13.254119-12.429747-8.030534-2.767255,2.514936-3.652461,6.537433-3.877451,10.166854.000069.000032-.910575.361787-.910575.361787-2.382331-2.428109-5.618775-4.840355-9.176737-4.644041-1.773947.059965-3.259298,1.228026-4.722677,2.297545-1.441406,1.105438-2.850586,2.287048-3.99707,3.716309,1.589244-2.263569,3.72483-4.082179,5.981415-5.673954,4.346355-2.76172,9.480529.49539,12.684589,3.587494.000011.000065-.910633.36176-.910633.36176.058546-3.980978,1.027237-8.313577,4.074159-11.136963,2.072733-1.914982,5.382998-2.806679,7.939518-1.32055,3.621682,2.117212,5.358575,6.167674,6.625572,9.942219-.000089.000066-1.304777.13004-1.304777.13004.775072-5.482687,1.811315-13.881861,6.885978-17.071189,5.240635-2.102843,11.647742,7.046868,14.240487,10.761557h0Z" /><path class="st7" d="M151.210782,169.248148s6.013038-5.351919,10.988935.143377c9.11496,10.066408-14.917,25.09014-14.917,25.09014-5.646699-6.857393-20.302188-22.842541-5.573974-28.618408,5.587351-2.191155,9.502039,3.384892,9.502039,3.384892Z" /><path class="st9" d="M150.601941,176.077295c1.948059-2.467541,5.974048-3.896118,7.922107-1.688318,2.481467,2.812329-10.266659,14.704763-10.266659,14.704763,0,0-8.385155-14.505948-4.66846-16.782693,1.386892-.849572,4.545471.259741,7.013013,3.766248Z" /><path class="st23" d="M90.440269,337.628217l-6.168501,14.170771c6.614204,2.266769,13.54341,4.011423,20.747285,5.232837l3.393982-15.089078c-6.238088-.997098-12.228216-2.455557-17.972766-4.314529Z" /><path class="st23" d="M57.758254,320.413286l-10.354434,10.912462c5.185492,4.285593,10.77523,8.087595,16.70194,11.4313l8.214598-12.797509c-5.164493-2.779988-10.011964-5.986159-14.562104-9.546252Z" /><path class="st9" d="M27.986817,282.883974l-11.814201,6.969929c2.095528,4.457773,4.474157,9.632349,7.017682,13.704968l11.584631-8.429441c-2.487387-3.887529-4.77226-7.957325-6.788112-12.245457Z" /><path class="st23" d="M34.774929,295.129432l-11.584631,8.429441c3.194161,5.114185,6.713143,9.931453,10.571942,14.405992l11.095487-9.547675c-3.68954-4.108904-7.051007-8.548987-10.082798-13.287758Z" /><path class="st9" d="M44.857727,308.41719l-11.095487,9.547675c4.181067,4.848383,8.736409,9.307751,13.64158,13.360883l10.354434-10.912462c-4.633299-3.624901-8.960953-7.608298-12.900527-11.996096Z" /><path class="st9" d="M72.320358,329.959538l-8.214598,12.797509c6.337734,3.575483,13.064724,6.607855,20.166008,9.04194l6.168501-14.170771c-6.366731-2.060338-12.429341-4.605523-18.119911-7.668679Z" /><path class="st23" d="M126.982983,343.601144l-.168091,15.500889c1.301674.024661,2.590769.039323,3.856074.031024,6.792325-.04455,13.051397-.618339,18.847669-1.579651l-3.624496-15.180532c-5.78553.903188-12.060636,1.364278-18.911156,1.228269Z" /><path class="st23" d="M201.983206,304.887897c-2.279397,3.97337-5.339739,8.449838-9.33247,12.91782l12.124214,9.283272c4.215483-4.956641,7.432007-9.895259,9.826037-14.199453l-12.61778-8.001639Z" /><path class="st9" d="M180.103095,328.978336l9.852571,11.894765c4.796982-3.537795,8.778299-7.20199,12.000623-10.620303.9901-1.050763,1.920372-2.107217,2.818661-3.16381l-12.124214-9.283272c-3.439203,3.848358-7.583522,7.676833-12.54764,11.172618Z" /><path class="st9" d="M222.359314,297.258703l-13.151812-7.811794c-.159317.620167-3.025681,8.124596-7.224297,15.440988l12.61778,8.001639c4.085111-7.343631,7.66824-15.267842,7.758328-15.630833Z" /><path class="st9" d="M145.894139,342.372874l3.624496,15.180532c8.273543-1.37229,15.580963-3.550124,21.99586-6.230507l-7.908612-13.585855c-5.286622,2.026051-11.180277,3.616162-17.711744,4.635831Z" /><path class="st23" d="M163.605883,337.737043l7.908612,13.585855c7.222651-3.018012,13.303079-6.660344,18.44117-10.449798l-9.852571-11.894765c-4.723281,3.326476-10.185584,6.339721-16.497212,8.758708Z" /><circle class="st6" cx="26.059656" cy="293.065401" r="2.429932" /><circle class="st6" cx="33.916275" cy="305.878827" r="2.429932" /><circle class="st6" cx="46.064543" cy="319.200145" r="2.429932" /><circle class="st6" cx="59.812073" cy="331.170874" r="2.429932" /><circle class="st6" cx="77.563908" cy="340.703161" r="2.429932" /><circle class="st6" cx="97.172466" cy="347.27505" r="2.429932" /><circle class="st6" cx="137.401849" cy="351.299512" r="2.429932" /><circle class="st6" cx="158.01916" cy="348.216068" r="2.429932" /><circle class="st6" cx="176.72877" cy="340.320778" r="2.429932" /><circle class="st6" cx="193.005212" cy="329.225207" r="2.429932" /><circle class="st6" cx="203.907423" cy="316.020725" r="2.429932" /><circle class="st6" cx="212.406208" cy="300.369049" r="2.429932" /><path class="st9" d="M126.490747,343.601591c-6.222052-.142216-12.241902-.726027-18.077713-1.658845l-3.393982,15.089078c6.860035,1.16266,13.940445,1.89838,21.274373,2.06598.176621.004056.345546.000862.521467.004228l.168091-15.500889c-.167577-.003246-.323959.004384-.492236.000447Z" /><circle class="st6" cx="116.763446" cy="351.166855" r="2.429932" /><path class="st15" d="M142.268062,235.859323s2.353198-1.136027,4.138383-.081145c0,0-2.733794-.194576-3.489225.892592-.557566.802414-1.785185.973737-1.785185.973737l1.136027-1.785185Z" /><path class="st8" d="M6.97499,323.017771c3.914358,6.422599,13.981229,23.274,28.760926,33.169134l-28.427786.000026-.33314-33.16916Z" /><path class="st7" d="M9.773399,347.599648c-.488281.587171-.696803,1.243895-.624041,1.972256.070835.726758.403412,1.336842.996366,1.829932.320101.26619.680676.473892,1.084547.624637.40243.149546.893677.257973,1.470858.322883.353743.041378,1.225449.094342,2.616875.158725,1.894795.086667,3.245907.206411,4.053255.358344.807424.152814,1.595371.408487,2.361499.765885-.475215-.67488-.863224-1.403634-1.16162-2.184263-.376397-.989828-.753296-2.382089-1.130612-4.175898-.289147-1.386971-.597588-2.412432-.921151-3.074548-.324519-.662911-.73015-1.195934-1.215126-1.599231-.545229-.453402-1.181858-.641955-1.911907-.568149-.729478.075093-1.33596.403327-1.819431.984714-.479461.576565-.687222,1.265725-.623698,2.067949.048122.581476.30108,1.206893.756946,1.874652-.782457-.307373-1.463577-.427729-2.043669-.359696-.775626.086462-1.40562.420422-1.889091,1.001808" /><path class="st8" d="M235.637172,325.08704s-11.869293,22.462785-27.86236,31.099867l27.529047.000024.333313-31.099891Z" /><path class="st7" d="M232.786584,347.932509c.476023.536442.691542,1.146599.64519,1.832475-.044592.684314-.338386,1.266996-.880111,1.747706-.292445.259507-.624645.465334-.9992.619001-.373239.152499-.831086.269077-1.370907.347397-.330798.049498-1.147438.12548-2.451574.22784-1.775957.138444-3.040585.291554-3.793832.458495-.753292.167769-1.485203.431501-2.193568.790062.42573-.647802.76798-1.343546,1.024552-2.085283.323484-.940453.635313-2.258671.935434-3.953817.229619-1.310607.488242-2.282461.772007-2.913712.284639-.632027.649327-1.144576,1.092404-1.537749.498123-.44202,1.09002-.638188,1.777512-.590908.686995.048507,1.266166.338333,1.737499.86949.467424.526752.683207,1.167379.647751,1.922309-.02765.547258-.246247,1.141935-.654029,1.782469.725199-.312096,1.360914-.445592,1.907473-.399211.730655.057788,1.332068.35228,1.803401.883437" /></svg>