<svg id="Layer_3" data-name="Layer 3" xmlns="http://www.w3.org/2000/svg" xmlns:xlink="http://www.w3.org/1999/xlink" viewBox="0 0 460.1 446.5" width="460.1" height="446.5" preserveAspectRatio="none"><defs><style>
      .cls-1, .cls-2 {
        fill: none;
      }

      .cls-3 {
        fill: #8e6da9;
      }

      .cls-4 {
        fill: #f1f0f0;
      }

      .cls-5 {
        fill: #9e9fa2;
      }

      .cls-6 {
        fill: #635270;
      }

      .cls-7 {
        fill: #a27b2f;
      }

      .cls-8 {
        fill: #fff;
      }

      .cls-9 {
        fill: #a378b5;
      }

      .cls-10 {
        fill: #7d7e81;
      }

      .cls-2 {
        stroke: #1a1a1a;
        stroke-miterlimit: 10;
        stroke-width: 1.64px;
      }

      .cls-11 {
        fill: #42283e;
      }

      .cls-12 {
        fill: #bbe5f3;
        opacity: .75;
      }

      .cls-13 {
        fill: #c09c56;
      }

      .cls-14 {
        fill: #76797d;
      }

      .cls-15 {
        fill: #c2a775;
      }

      .cls-16 {
        fill: #c58d50;
      }

      .cls-17 {
        fill: #ffc62a;
      }

      .cls-18 {
        fill: #f2d769;
      }

      .cls-19 {
        fill: #333;
      }

      .cls-20 {
        fill: #ffd879;
      }

      .cls-21 {
        fill: #a35886;
      }

      .cls-22 {
        fill: #fce37e;
      }

      .cls-23 {
        fill: #1a1a1a;
      }

      .cls-24 {
        clip-path: url(#clippath);
      }

      .cls-25 {
        fill: #c1bdbe;
      }
    </style><clipPath id="clippath"><path class="cls-1" d="M495.28-191.25H195.86v-226.16h75.09c50.91-35.83,100.26-41.92,147.09,0h77.24s0,226.16,0,226.16Z" /></clipPath></defs><g class="cls-24"><path class="cls-25" d="M464.59-30.31c.71,1.32,5.27,7.98,9.26,11.32,3.99,3.35,11.71,9.39,11.71,9.39,0,0-1.16,2.7-1.16,5.27,0,2.57-.9,4.89-1.29,5.4s-7.46,2.44-15.95-5.27c-8.49-7.72-7.46-16.73-6.95-20.71.51-3.99,3.35-7.33,4.37-5.4Z" /></g><g><path class="cls-5" d="M372.62,416.47s1.96-.35,2.66.49c.7.84-.98,1.61-2.1,2.03-.56.21-.91.14-.91.14,0,0,2.38,1.68.91,2.59-1.47.91-3.71.35-3.71.35,0,0,.77,2.1-1.75,2.45-2.52.35-4.75-.7-4.75-.7,0,0,2.73,2.38.63,2.59s-6.36.14-6.36.14c0,0,1.75,1.96-.07,2.45-1.82.49-7.41-.42-7.41-.42,0,0,3.01,1.47,1.33,2.8-1.68,1.33-8.67-.21-8.67-.21,0,0,2.1,2.1-1.82,2.52-3.91.42-8.88-1.47-8.88-1.47,0,0,2.24,2.17-.56,2.87-2.8.7-13.14-1.54-13.14-1.54,0,0,1.54,1.68.7,2.59s-7.41-.07-9.72-.35c-2.31-.28-7.41-1.4-7.41-1.4,0,0,1.4,2.24.63,2.8s-9.16-.35-12.3-1.05c-3.15-.7-7.41-2.87-7.41-2.87,0,0,2.17,2.66.42,4.05-1.75,1.4-8.04,1.89-11.26,1.12-3.22-.77-8.81-4.47-8.81-4.47l16.5-8.67,32.72.63,22.86-1.68,17.83-2.52,16.36-6.29,3.5,1.05Z" /><path class="cls-17" d="M266.22,232.9c7.96.2,20.08,1.26,26.98,5.51,71.64,19,94.32,67.64,85.99,135.07,0,0,6.99,23.35-.14,35.51-7.13,12.16-15.17,13.98-34.68,17.13-19.5,3.15-35.02,3.57-45.09,4.4-10.07.84-22.44.42-22.44.42,0,0-12.16,4.4-18.25,5.24-6.08.84-11.54-.42-11.54-.42l-16.36-21.81-10.28-14.26-12.58-23.07-8.18-16.78-8.02-38.88c41.06-21.84,70.11-49.25,74.57-88.06Z" /><path class="cls-17" d="M293.21,238.41s18.04-15.52,52.43-3.78c34.4,11.74,50.75,26.01,65.44,33.14,14.68,7.13,34.82,14.26,38.17,15.1,3.36.84,6.08.21,8.81,4.61,2.73,4.4,4.82,22.02-8.18,40.9-13,18.88-30.83,46.98-70.68,45.09-14.54-25.03-29.92-46.84-23.49-83.19l-12.86-16.78-49.64-35.09Z" /><path class="cls-7" d="M273.49,274.06c10.85,8.05,12.46,24.53,10.07,36.91-.11-1.67-.13-3.31-.17-4.95-.57-11.13-2.24-23.31-9.9-31.96h0Z" /><path class="cls-22" d="M236.58,436.25c-6.63,1.99-16.22,3.64-30.76,1.68-14.54-1.96-48.1-5.59-62.08-5.03s-32.16,3.08-41.95,3.36c-9.79.28-31.32,2.24-46.98-21.81-15.66-24.05-19.85-34.68-21.81-41.67-1.96-6.99-3.64-29.92-3.64-29.92,0,0,48.66,6.15,80.82,5.87s86.13-3.64,86.13-3.64c0,0,17.34,58.72,51.45,83.89,0,0-8.39,6.43-11.19,7.27Z" /><path class="cls-15" d="M35.24,364.11c15.37,3.44,31.17,5.09,46.9,4.52,3.22-.12,12.37-.79,15.73-1.03,14.02-.98,28.08-1.77,42.15-1.38,7.03.11,14.03.86,21.03,1.51,10.43.76,21.03.65,31.34-1.21,1.34-.3,3.75-.83,5.07-1.3,1.66-.54,3.28-1.22,4.73-2.22-2.83,2.12-6.3,3.18-9.7,4.01-10.32,2.36-21,2.68-31.54,2.18-6.99-.44-13.96-1.21-20.97-1.24-19.17-.34-38.64,1.36-57.79,2.27-15.84.2-31.75-1.79-46.95-6.1h0Z" /><path class="cls-15" d="M225.39,406.61c-8.64,6.9-20.51,7.9-31.18,7.81-25.35-.31-50.66-2.87-76-2.84-18.06.57-36.41,1.22-54.32-1.78-3.57-.65-7.15-1.45-10.48-2.91l2.58.84c2.61.64,5.33,1.25,7.98,1.57,17.99,2.27,36.14,1.21,54.21.56,25.41-.29,50.7,2.43,76.06,3.38,10.61.3,22.25-.24,31.16-6.62h0Z" /><path class="cls-17" d="M23.77,347.05s.28,30.48,9.23,43.34c8.95,12.86,25.17,31.04,33.84,34.96,0,0-22.43-35.74-25.73-53.41-3.08-16.5-2.24-29.92-2.24-29.92l-15.38-5.59.28,10.63Z" /><path class="cls-18" d="M77.18,173.39l-5.45,24.75,10.49,27.68,34.82,8.39,35.23-2.1,24.33-4.61s10.07-34.4,10.49-36.91c.42-2.52,6.29-23.07,6.29-23.07l-19.71-5.45-27.26.84-24.75,1.68-44.46,8.81Z" /><path class="cls-17" d="M191.65,320.97l-5.41-26.21,16.22-78.3,3.91-27.4s15.1-9.51,28.52-8.67c13.42.84,19.57,12.86,21.53,23.77,1.96,10.91,1.96,28.8,1.96,28.8,0,0,3.22-.17,7.83-.05-6.7,40.72-36.01,67.28-74.57,88.06Z" /><path class="cls-17" d="M78.58,47.71s-3.36.73-5.7-3.51c-2.34-4.24-6.39-17.07-4.39-27.06.73-3.66,2.63-4.68,4.24-3.22,1.61,1.46,6.44,14.92,10.09,21.65,3.66,6.73,20.18,28.52,22.38,40.66l-4.53-.44s-6.29-22.09-22.09-28.08Z" /><line class="cls-1" x1="255.31" y1="351.24" x2="255.31" y2="350.68" /><path class="cls-7" d="M245.39,203.17c-6.15.08-11.63,2.3-15.94,6.71,2.07-6.24,10.03-9.49,15.94-6.71h0Z" /><path class="cls-18" d="M361.06,325.68c1.85,1.01,5.21,9.58,5.21,9.58-1.51-10.25-1.51-21.51,1.18-22.18,8.25-2.06,11.76,15.63,11.76,15.63,0,0-1.18-17.47,3.7-18.99,4.87-1.51,7.73,9.74,7.73,9.74-.67-6.89,1.34-19.49,5.21-19.49,3.86,0,4.03,19.49,4.03,19.49,2.35-5.54,2.21-21.86,2.21-21.86,0,0,2.49.02,3.84,1.36,1.34,1.34,1.68,11.26,1.68,11.26,1.51-4.54,3.86-7.06,5.38-6.72,4.31.96,3.19,12.43,3.19,12.43,2.69-5.54,4.7-3.02,4.37,1.68-.34,4.7-6.22,13.27-6.22,13.27,0,0,6.05-4.54,7.56-3.53,1.51,1.01-.5,7.9-.5,7.9l.84-2.69c4.03-14.11,9.24-22.01,12.1-22.35,2.86-.34,3.02,5.54,3.02,5.54,0,0,3.53-15.29,7.56-17.31,4.03-2.02,5.21,4.2,5.21,4.2,3.19-12.26,5.88-13.27,7.56-11.59.68.68,1.55,2.55,2.35,4.53.52,7.92-1.38,20.06-10.14,32.78-13,18.88-30.83,46.98-70.68,45.09-4.75-16.08-18.34-29.78-22.6-47.04.03-.08.06-.18.09-.24,1.34-2.86,2.52-1.51,4.37-.5Z" /><path class="cls-18" d="M321.31,418.78c3.36.84-.7,7.83-.7,7.83,0,0,21.39-20.69,25.59-20.69,4.19,0,.84,7.97.84,7.97,0,0,13.84-25.45,18.46-26.99,3.61-1.2,4.05,3.22,4.05,3.22.98-19.16,3.64-21.95,5.45-22.37.95-.22,2.79,2.22,4.33,4.59-.05.38-.09.76-.13,1.14,0,0,6.99,23.35-.14,35.51-7.13,12.16-15.17,13.98-34.68,17.13-19.5,3.15-35.03,3.57-45.09,4.4-2.62.22-5.4.35-8.08.43,10.81-4.45,27.35-12.86,30.1-12.17Z" /><path class="cls-13" d="M402.89,297.79c3.3-.1,3.86,2.35,4.22,5.04.37,2.45.57,4.91.72,7.39l-.45-.07c.97-2.61,2.04-5.91,4.96-6.95,4.84-.07,4.35,9.48,4.14,12.77,0,0-.6-.17-.6-.17.48-.93.97-1.86,1.75-2.65,1.08-1.17,2.41-.68,2.84.68.66,2.06.5,4.24-.15,6.27-1.32,3.96-3.48,7.51-5.75,10.97,0,0-.45-.43-.45-.43,1.14-.83,2.3-1.62,3.52-2.32,1.33-.66,2.5-1.59,4.14-1.34,2.08.98.29,6.57-.11,8.37,0,0-.6-.18-.6-.18,1.75-5.71,3.45-11.49,6.17-16.85,1.31-2.55,6.13-11.87,9.35-7.03.76,1.42.96,2.95,1.06,4.47l-.62-.06c1.2-4.28,4.05-17.16,8.91-17.89,2.68-.43,4.02,2.66,4.48,4.8,0,0-.62-.02-.62-.02.97-3.51,5.16-18.37,9.21-9.39.37.79.69,1.6,1.01,2.41-.71-1.55-1.31-3.27-2.47-4.53-1.53-1.47-3.09.55-3.78,1.89-1.63,3.04-2.48,6.45-3.35,9.78-.08.32-.55.3-.62,0-.4-2.09-1.94-5.31-4.5-4.09-1.75.79-2.58,2.77-3.44,4.4-1.88,4.07-3.14,8.45-4.21,12.8-.08.35-.62.29-.62-.06-.48-7.28-3.77-6.22-7.03-1.04-2.41,3.75-4.13,7.9-5.62,12.09-1,2.8-1.78,5.68-2.7,8.53-.05.17-.23.26-.4.2-.16-.05-.25-.22-.21-.39.53-1.97,1.04-4.02,1.05-6.07,0-.63-.13-1.42-.53-1.53-.48-.13-1.2.11-1.8.36-1.88.82-3.62,2.01-5.28,3.21-.27.2-.65-.15-.45-.43,1.13-1.69,2.2-3.45,3.18-5.24,1.82-3.45,3.9-7.47,2.64-11.42-.15-.44-.44-.84-.75-.93-.31-.11-.73.16-1.06.48-.67.67-1.16,1.58-1.62,2.47-.08.16-.27.22-.42.14-.12-.06-.18-.18-.17-.31.18-3.58.44-7.72-1.37-10.91-1.31-1.96-2.85-1.19-4.07.39-1.15,1.43-1.97,3.16-2.6,4.92-.04.12-.18.18-.3.14-.09-.03-.15-.12-.15-.21-.06-2.46-.19-4.93-.48-7.37-.27-2.66-.75-5.08-3.99-5.07h0Z" /><path class="cls-13" d="M356.59,326.43c.56-1.49,1.53-2.62,3.13-1.58,0,0,.91.52.91.52,1,.44,1.59,1.39,2.15,2.27,1.44,2.41,2.58,4.97,3.66,7.55l-.37.1c-.54-3.59-3.19-22.66,2-22.69,7.15-.58,10.22,10.57,11.56,16.03,0,0-.86.11-.86.11-.22-4.24-.23-8.5.41-12.71.43-3.52,2.44-9.05,6.87-6.1,2.83,2.36,3.98,6.07,5,9.43,0,0-.86.15-.86.15-.3-6.11.11-12.61,3.03-18.1.54-.83,1.42-1.8,2.63-1.82,1.94.27,2.36,2.67,2.83,4.2,1.16,5.14,1.34,10.42,1.44,15.67,0,0-.48-.09-.48-.09,1.29-3.37,1.57-7.11,1.91-10.7.28-3.64.41-7.3.43-10.96.09,5.49.01,11-.66,16.45-.01.42-.98,6.8-1.7,5.31-.32-5.97-.24-12.28-2.48-17.89-.37-.73-.91-1.39-1.56-1.2-.68.14-1.26.77-1.7,1.46-1.31,2.19-1.87,4.77-2.32,7.27-.56,3.4-.8,6.89-.5,10.3.04.53-.73.66-.86.15-.82-2.94-3.85-11.87-7.97-8.91-1.39,1.43-1.77,3.57-2.14,5.51-.65,4.12-.66,8.34-.46,12.5.04.52-.76.63-.86.11-1.24-5.04-3.61-14.12-9.34-15.44-.62-.11-1.3-.04-1.92.09-.14.05-.29.12-.42.26-1.06,1.29-1.2,3.37-1.4,5.03-.44,5.5.05,11.04.75,16.51.05.21-.3.32-.37.1-1.33-3.17-2.48-6.58-4.67-9.27-.23-.22-.56-.43-.84-.58-2.01-1.36-2.91-1.46-3.98.96h0Z" /><path class="cls-13" d="M291.21,430.95c6.35-2.72,12.54-5.78,18.84-8.61,3.19-1.38,6.31-2.87,9.7-3.75.89-.24,2.06-.29,2.72.53.66.87.53,1.9.39,2.76-.36,1.77-1.09,3.36-1.93,4.92l-.59-.47c5.09-4.93,10.31-9.73,15.74-14.3,2.8-2.26,5.46-4.6,8.74-6.22.88-.43,2.12-.57,2.99.13,2.05,2.04.43,5.82-.35,8.11,0,0-.83-.4-.83-.4,3.06-5.18,14.36-26.42,19.39-27.26,2.23-.49,3.68,1.73,3.84,3.68,0,0-.63.02-.63.02.33-5.04.68-10.1,1.73-15.05.41-1.98,2.02-8.53,4.83-7.15,1.52,1.16,2.49,2.86,3.54,4.43.01,0-.15,1.14-.15,1.15,0,0,.12-1.18.12-1.14-1.07-1.52-2.09-3.2-3.61-4.31-2.62-1.2-4.05,5.3-4.36,7.09-.91,4.95-1.23,9.99-1.48,15.01,0,.17-.16.31-.33.3-.16,0-.28-.13-.3-.28-.17-1.58-1.26-3.49-3.09-3.05-4.66,1.1-15.77,21.92-18.71,27.01-.26.49-1.06.12-.82-.4.62-1.59,1.14-3.31,1.22-4.97.03-.81-.12-1.66-.61-2.05-2.81-2.69-23.07,17.32-26.34,20.19-.29.29-.82-.09-.6-.47.8-1.5,3.65-6.77.79-7.35-3.76.39-7.31,2.35-10.82,3.71-6.35,2.7-12.62,5.6-19.03,8.17h0Z" /><path class="cls-25" d="M229.68,416.45l.39-5.53s3.22-1.67,7.98,1.93c4.76,3.6,9.91,11.32,14.67,15.44,4.76,4.12,6.95,7.46,4.25,9.01-2.7,1.54-5.15.9-5.15.9,0,0-18.78-13.64-22.13-21.74Z" /><path class="cls-25" d="M207.85,376.62s-2.22-4.17,1.64-5.2c3.86-1.03,10.81,4.37,14.92,13.64,4.12,9.26,3.86,13.9,3.09,17.24-.77,3.35-3.86,1.42-4.89,1.03s-3.22-3.09-3.22-3.09l-11.55-23.62Z" /><path class="cls-25" d="M205.88,348.13s3.86,9.78,4.37,14.15c.51,4.37.51,7.59-2.19,7.85-2.7.26-6.51-3.08-8.4-10.29-1.89-7.21-3.95-12.48-3.95-12.48l10.16.77Z" /><path class="cls-25" d="M37.78,343.8s1.37,7.17,1.93,13.32c.29,3.2.04,11.18-.72,11.36-.76.19-2.57.19-3.86-1.52s-4.31-14.51-4.92-19.11c-.6-4.6.49-7.26,2.66-7.55,2.17-.29,4.91,3.5,4.91,3.5Z" /><path class="cls-25" d="M35.8,375.02s-.13-3.47,1.29-4.12c1.42-.64,3.73.13,4.89,3.6s6.56,17.5,8.49,22.26c1.93,4.76,3.6,8.11,1.67,8.23-1.93.13-13.64-12.48-16.34-29.98Z" /><path class="cls-25" d="M58.96,409.76s-2.96-2.57-4.37-2.44c-1.42.13-2.06,3.22-1.29,6.43.77,3.22,18.66,19.04,18.66,19.04,0,0,9.01,4.12,10.16,3.99,1.16-.13,2.57-.13.13-3.35-2.44-3.22-20.71-19.04-23.29-23.67Z" /><path class="cls-25" d="M61.27,416.84s-3.09-3.6-4.76-4.63c-1.67-1.03-3.22-.64-3.6.13-.39.77-4.63,7.59,0,15.05,4.63,7.46,10.16,10.68,12.99,11.97,2.83,1.29,6.05,0,6.05,0,0,0-1.42-4.12-.39-5.4,1.03-1.29,2.32-2.57,2.32-2.57,0,0-6.82-6.3-8.23-9.01s-4.37-5.53-4.37-5.53Z" /><path class="cls-25" d="M26.41,385.96c-.58,2.51-.13,7.85,4.12,14.67,4.25,6.82,7.46,8.11,8.23,7.72.77-.39.13-7.46,3.35-8.88,3.22-1.42,5.92-.13,5.92-.13,0,0-4.89-9.78-5.92-13.38-1.03-3.6-4.25-11.58-4.25-11.58,0,0-8.75,0-11.45,11.58Z" /><path class="cls-25" d="M35.04,345.04s-.7,6.12.01,8.77c.72,2.66,1.19,8.94.03,9.03s-4.05,1.08-5.21,2.84c-1.16,1.76-2.18,3.65-4.25,3.54s-5.65-4.87-6.87-12.52c-1.22-7.65-1.5-13.18,1.52-17.53,3.03-4.36,14.76,5.86,14.76,5.86Z" /><path class="cls-25" d="M181.7,347.62s.64,6.69,4.89,15.7c4.25,9.01,7.08,11.45,8.62,11.58,1.54.13,2.83-1.93,2.83-3.86,0-1.93,1.29-4.37,2.83-5.27s5.27-.64,5.27-.64c0,0,1.67-2.44-.51-8.23-2.19-5.79-8.62-13.12-8.62-13.12,0,0-14.28-.26-15.31,3.86Z" /><path class="cls-25" d="M211.16,375.41s-8.11,1.03-10.68,7.98c-2.57,6.95,0,12.35,3.99,19.17,3.99,6.82,9.26,9.91,10.68,10.16,1.42.26,2.57-2.7,2.7-4.89.13-2.19,1.03-5.92,2.32-6.43,1.29-.51,3.35-.51,3.35-.51,0,0,.9-18.27-12.35-25.47Z" /><path class="cls-25" d="M232.39,414.52c.71,1.32,5.27,7.98,9.26,11.32,3.99,3.35,11.71,9.39,11.71,9.39,0,0-1.16,2.7-1.16,5.27,0,2.57-.9,4.89-1.29,5.4s-7.46,2.44-15.95-5.27c-8.49-7.72-7.46-16.73-6.95-20.71.51-3.99,3.35-7.33,4.37-5.4Z" /><path class="cls-14" d="M72.07,433.33c.53-.71,1.09-1.41,1.66-2.11v.3c-1.26-1.01-2.47-2.08-3.65-3.19-1.77-1.72-3.57-3.39-4.9-5.53-1.15-2.09-2.7-3.89-4.34-5.6-1.13-1.34-2.28-2.69-3.52-3.91-.91-.89-2-1.7-3.32-1.55-.41.06-.85.2-1.1.59,1.08-1.76,3.7-.67,4.91.4,2.67,2.31,4.95,4.61,7.13,7.37.98,1.3,1.55,2.74,2.66,3.98,1.73,2.16,4.51,5.07,6.42,7.14,0,0,.15.16.15.16-.69.65-1.38,1.31-2.1,1.95h0Z" /><path class="cls-14" d="M44.38,398.85c1.25-.26,2.53-.19,3.76.23,0,0-.38.39-.38.39-2.76-4.9-5.39-9.99-6.89-15.43-1.01-3.1-2.16-6.5-3.13-9.61,0,0,.12.08.12.08-.46-.02-.94,0-1.41.06.48-.14.97-.28,1.48-.31,2.01,4.04,3.77,8.3,5.12,12.6,1.36,3.6,3.7,8.75,5.22,12.37,0,0,.33.76.33.76-1.25-.76-2.73-1.14-4.22-1.12h0Z" /><path class="cls-14" d="M28.52,340.31c2.55,1.16,4.89,2.72,7.08,4.48-.16,3-.53,6.19.07,9.13.45,2.3.59,4.59.31,6.89-.15.66-.14,1.8-.9,2.03.37-.14.37-.6.43-.94.23-3.42-.95-6.72-1.35-10.04-.15-2.31.03-4.6.33-6.88,0,0,.18.48.18.48-1.97-1.79-4.03-3.51-6.15-5.14h0Z" /><path class="cls-14" d="M192.04,343.92c1.69-.28,3.39-.45,5.11-.52,0,0,.12.12.12.12,4.61,5.06,12.44,14.56,9.12,21.75,0,0-.09.15-.09.15-1.35-.13-2.77-.26-4.08.19,1.18-.7,2.6-.74,3.94-.81,0,0-.26.13-.26.13,1.28-3.7-.65-7.77-2.39-11.05-1.97-3.47-4.35-6.74-6.77-9.91,0,0,.26.12.26.12-1.23-.07-3.72-.17-4.96-.19h0Z" /><path class="cls-14" d="M208.09,376.23c.98-.47,2.01-.83,3.09-1.06,2.3,1.07,4.4,2.63,6.12,4.54,5.05,5.7,6.95,13.7,6.44,21.18,0,0-.03.29-.03.29-1.09-.24-2.68-.73-3.56.21.7-1.08,2.28-.84,3.4-.75,0,0-.29.22-.29.22-.39-7.22-2.16-14.74-6.78-20.45-1.51-1.89-3.38-3.48-5.44-4.81l.13.03c-1.03.09-2.07.33-3.09.6h0Z" /><path class="cls-14" d="M230.01,415c.58-.95,1.89-1.85,2.62-.52.95,1.39,2.02,2.71,3.07,4.03,2.55,3.2,5.25,6.1,8.47,8.61,3.04,2.53,6.37,5.34,9.28,8,0,0,.08.07.08.07-.37,1.14-.76,2.27-1.14,3.4.28-1.13.55-2.27.84-3.4l.05.15c-2.27-1.52-4.47-3.13-6.65-4.77-4.39-3.22-8.69-6.89-11.69-11.5-.98-1.41-1.93-2.84-2.71-4.38-.43-1.17-1.66-.3-2.22.3h0Z" /><path class="cls-3" d="M253.64,266.97s-21.61,29.44-42.41,37.82l2.16,4.05s27.28-15.67,42.14-38.63l-1.89-3.24Z" /><path class="cls-7" d="M259.04,280.74c-1.36,14.01-6.28,31.21-16.48,41.33,8.4-12.45,12.27-27.09,16.48-41.33h0Z" /><path class="cls-7" d="M256.07,303.97c-1.56,3.85-3.53,7.51-5.77,11.01-2.29,3.42-4.77,6.96-8.27,9.25,5.82-5.88,9.54-13.37,14.05-20.26h0Z" /><path class="cls-7" d="M250.13,320.45c-1.82,2.68-4.53,4.81-7.56,5.94,2.63-1.92,5.08-3.84,7.56-5.94h0Z" /><path class="cls-7" d="M313.06,399.86c-8.12,13.15-20.34,23.83-34.29,30.44-6.31,3.1-13.27,4.92-20.18,5.88,1.34-.41,2.68-.81,4.03-1.18,2.29-.56,5.63-1.93,7.88-2.71,16.7-6.83,31.22-18.46,42.56-32.43h0Z" /><path class="cls-7" d="M323.87,389.33c-6.97,13.23-17.5,27.5-30.7,34.96-1.39.82-2.94,1.39-4.42,2.04,1.39-.85,2.86-1.51,4.17-2.45,4.92-3.24,9.27-7.29,13.26-11.6,6.57-7.08,12.33-14.91,17.68-22.96h0Z" /><path class="cls-7" d="M332.24,374.2c-2.63,9.65-6.15,19.56-12.7,27.28.34-.54.68-1.07,1.03-1.59,4.74-7.95,8.13-17.14,11.67-25.69h0Z" /><path class="cls-7" d="M335.21,368.26c-1.03,4.72-2.47,9.32-4.32,13.78,1.02-4.72,2.47-9.32,4.32-13.78h0Z" /><path class="cls-13" d="M437.84,313.68c-.13,7.65-1.31,15.26-3.17,22.68-1.83,7.4-4.2,14.79-8.18,21.34,0,0-.08-.05-.08-.05,7.46-13.42,8.77-29.3,11.43-43.97h0Z" /><path class="cls-13" d="M422.22,331.91c-1.12,6.75-3.1,13.33-5.64,19.69-2.56,6.28-5.25,12.84-10.09,17.72,0,0-.07-.07-.07-.07,4.62-5.03,7.07-11.62,9.45-17.92,1.94-5.59,4.4-13.73,6.25-19.44,0,0,.09.02.09.02h0Z" /><path class="cls-13" d="M389.76,316.6c2.09,3.57,3.13,7.61,3.63,11.68.55,4.05.66,8.22-.28,12.21,0,0-.12-.03-.12-.03.59-4.02.17-8.08-.59-12.02-.91-3.95-1.98-7.8-2.75-11.8,0,0,.12-.05.12-.05h0Z" /><path class="cls-13" d="M378.89,324.98c1.49,5.65,1.93,11.51,1.73,17.33-.13,5.8-.64,11.71-2.63,17.2,0,0-.12-.04-.12-.04,3.35-11.19.81-23.27,1.02-34.49h0Z" /><path class="cls-13" d="M361.67,422.93c3.92-4.78,5.18-11.08,6.13-17.04.76-6.09,1.11-12.18,1.68-18.31,0,0,.13,0,.13,0,1.38,9.3-.94,28.96-7.94,35.35h0Z" /><path class="cls-13" d="M337.76,427.4c4.61-4.99,6.84-11.5,10.9-16.87,0,0,.11.05.11.05-.85,3.33-2.51,6.31-4.47,9.09-1.88,2.81-3.94,5.55-6.46,7.82l-.09-.09h0Z" /><path class="cls-13" d="M322.41,424.62c-.15,1.98-1.83,3.04-3.24,4.16-.5.33-1.02.66-1.61.81l-.05-.12c1.43-.99,2.22-2.6,3.31-3.89.42-.4.87-.77,1.49-1.04l.1.07h0Z" /><path class="cls-25" d="M94.19,81.65s-8.94-.54-13.23,1.61c-4.29,2.15-8.05,6.62,1.97,8.23,0,0-9.25,5.92-7.15,11.8.89,2.5,3.22,2.68,3.22,2.68,0,0-1.07,8.4,6.08,6.97l.72-13.77,3.4-8.58,6.44-7.87-1.43-1.07Z" /><path class="cls-22" d="M81.67,147.45c16.81-.54,20.21-14.49,20.21-14.49l19.67-1.25s5.9,12.52,30.04,15.02c0,0,8.76,18.42,29.15,24.32l.05.03c-.58.84-1.47,2.1-2.73,3.78-2.52,3.36-13.42,12.16-35.23,18.04-21.81,5.87-35.65,2.1-48.87-2.73-11.71-4.28-21.93-12.51-27.39-18.92,11.71-6.43,15.1-23.79,15.1-23.79Z" /><path class="cls-17" d="M57.26,144.55c1.15-7.34,8.6-11.01,13.63-13.42,5.03-2.41,18.77-7.97,18.77-7.97,0,0-4.3-9.54-5.24-12.48-.94-2.94-3.57-6.71-1.36-12.27s9.22-11.56,9.22-11.56c6.29-4.96,19.93-10.98,32.93-10.56,13,.42,32.09,4.82,42.78,14.05,10.7,9.23,24.96,29.78,26.43,49.08.54,7.04,1.78,17.26-.42,24.96-3.82,13.4-12.37,23.07-12.37,23.07-1.49-2.01-2.44-6.05-2.52-13.42,0,0,1.78-1.71,1.68-2.94l-.05-.03c-20.39-5.9-29.15-24.32-29.15-24.32-24.14-2.5-30.04-15.02-30.04-15.02l-19.67,1.25s-3.4,13.95-20.21,14.49c0,0-3.39,17.37-15.1,23.79-.7-.82-1.33-1.62-1.86-2.37-4.72-6.61-8.6-16.99-7.45-24.33Z" /><path class="cls-16" d="M70.49,30.89c.58,7.55,2.53,12.14,5.55,12.86,1.55.37,1.61-6.59.1-14.01-1.5-7.42-3.99-13.18-5.55-12.86s-.65,6.98-.1,14.01Z" /><path class="cls-25" d="M109.03,75.39s-8.23-2.32-12.52-1.79-8.94,2.86-2.32,8.05c0,0-5.54,5.72-5.01,8.94.54,3.22,5.72,3.76,9.48-.72,3.76-4.47,4.83-6.62,4.83-6.62,0,0-1.07,8.05,2.32,8.58s5.01-11.8,5.01-11.8l-1.79-4.65Z" /><path class="cls-25" d="M118.51,73.06s-5.9-.89-8.4.36c-2.5,1.25-.54,6.26,6.26,11.62,6.8,5.36,12.52,6.26,8.58.54,0,0,7.51,5.36,14.49,4.83,0,0,4.83,7.33,10.01,8.58,5.19,1.25,5.01-2.5,3.04-6.08,0,0,4.11,5.9,7.69,6.8,0,0,1.97,10.37,6.62,13.77,4.65,3.4,5.01.36,4.65-2.86,0,0,4.65,10.73,9.66,14.84,5.01,4.11,5.54-2.15,5.54-2.15,0,0,5.72,8.23,11.27,10.19,5.54,1.97,7.4-.9,3.58-7.69-1.61-2.86-4.65-6.62-4.65-6.62,0,0,7.69.89,1.61-6.62s-10.91-10.37-10.91-10.37c0,0,3.22-3.04-1.43-7.69-4.65-4.65-11.98-10.37-17.35-11.8,0,0,3.22-1.07-1.43-4.29s-11.27-6.62-16.99-8.05-10.37-3.22-7.69,1.61c0,0-13.41-5.9-20.92-5.36-7.51.54-3.93,4.65-3.22,6.44Z" /><path class="cls-4" d="M89.62,115.51c2.53,7.64,6.83,13.51,11.74,12.53,4.92-.98,7.63-8.17,6.07-16.07-1.57-7.9-7.26-12.72-12.23-12.05-7.54,1.02-8.4,7.05-5.58,15.59Z" /><path class="cls-4" d="M117.74,111.74c1.58,8.91,5.6,16.13,11.66,15.88,6.06-.26,10.67-7.78,10.29-16.8-.38-9.02-5.6-15.78-11.66-15.88-9.2-.14-12.05,6.86-10.29,16.8Z" /><path class="cls-7" d="M101.36,128.04c5.31-1.95,6.23-8.57,6.05-13.54-.1-1.78-.31-3.57-.75-5.34.79,1.65,1.26,3.45,1.49,5.27.67,5.09-.8,12.62-6.78,13.61h0Z" /><path class="cls-7" d="M129.41,127.61c7.46-1.5,9.78-10.26,9.79-16.89-.03-2.37-.32-4.76-.97-7.11,4.27,7.61,1.82,23.77-8.82,24h0Z" /><path class="cls-20" d="M107.01,110.5s-4.44-8.82-12.77-7.43c-3.36.56-5.73,3.05-5.98,5.75,0,0-1.65-6.71,4.37-9.11,4.83-1.92,13.92,2.43,14.38,10.79Z" /><path class="cls-20" d="M138.57,103.83s-3.71-9.79-12.37-9.79c-8.67,0-8.95,9.86-8.95,9.86,0,0,.14-5.52,5.59-6.57,5.45-1.05,14.26,4.75,15.73,6.5Z" /><path class="cls-7" d="M84.73,135.78c5.82,1.01,12.38.83,15.8-4.75-1.72,6.75-10.46,7.74-15.8,4.75h0Z" /><path class="cls-7" d="M141.5,133.54c-5,3.93-12.75,3.51-16.47-1.95-.5-.71-.89-1.49-1.29-2.25.63.6,1.14,1.27,1.76,1.84,4.2,4.43,10.6,4.56,16,2.35h0Z" /><path class="cls-9" d="M236.62,184.04c8.1,2.16,15.94,8.64,16.21,16.21.27,7.56-5.13,21.07-3.24,55.37,1.89,34.3,17.02,42.95,17.02,42.95,8.91-9.99,12.7-40.25,10.8-50.78-1.89-10.53-11.34-19.18-11.34-19.18,0,0,1.08-23.77-13.78-48.35-14.86-24.58-50.78-44.3-50.78-44.3,0,0-3.66-2.73-9.3-5.93,0,0,2.37,7.53,2.26,17.78" /><ellipse class="cls-19" cx="99.71" cy="112.92" rx="3.59" ry="6.67" /><ellipse class="cls-19" cx="130.1" cy="110.28" rx="4.03" ry="7.05" /><ellipse class="cls-8" cx="102.06" cy="110.8" rx="1.51" ry="2.33" /><ellipse class="cls-8" cx="132.78" cy="107.82" rx="1.51" ry="2.33" /><path class="cls-15" d="M101.52,155.86c2.03,1.31,3.45,3.14,4.29,5.36-2.16-1.09-3.67-3.07-4.29-5.36h0Z" /><path class="cls-15" d="M129.95,168.91c-6.34,4.11-13.76,7.19-21.48,6.52-3.61-.47-8.89-1.55-9.44-5.92-.07-4.14,3.1-7.02,5.7-9.72-2.04,2.81-5.02,5.98-4.74,9.61.79,3.7,5.42,4.32,8.59,4.78,7.42.68,14.74-2.11,21.36-5.27h0Z" /><path class="cls-9" d="M55.37,257.51c13.78-28.63,15.4-25.66,15.4-25.66l.81-4.59s-16.75-23.5-23.77-42.14c0,0,12.68-5.96,19.87-12.57,4.25,4.71,11.19,9.23,11.19,9.23-1.68,22.23,5.45,39.43,5.45,39.43,44.46,14.26,88.09,3.36,88.09,3.36-.19-2.35-.13-5.16.19-8.31l13.06,3.55c-1.48,4.58-2.27,9.38-1.97,14.21h6.21s12.43.81,12.43.81c0,0,7.56,23.5,6.75,32.95-.81,9.45-1.35,25.93,9.18,48.62,10.53,22.69,11.07,28.36,10.26,37.82,0,0-52.4-8.64-77.79-2.7-25.39,5.94-99.13,8.1-150.72-16.48,0,0,41.6-48.89,55.37-77.52Z" /><path class="cls-17" d="M131.2,230.97s6.8-6.8,4.65-13.59c-2.15-6.8-14.66-8.4-16.81-8.23-2.15.18-5.72.89-10.55,5.72s-12.34,14.31-15.02,16.09-7.33,2.86-11.62,2.32c-4.29-.54-11.16-3.9-11.16-3.9.8-.34,1.17-1.04.84-2.31l-20.34-33.98-13.32,15.51s-15.2,18.96-16.63,34.69c-1.43,15.74.54,29.51,14.31,36.48,13.77,6.97,36.12,1.97,51.14-15.02,15.02-16.99,17.35-25.57,17.35-25.57,0,0,3.22-.36,5.9-1.97,2.68-1.61,2.5-5.9,2.5-5.9l15.56,6.26s3.22-3.76,3.22-6.62Z" /><path class="cls-7" d="M28.56,230.25c.58-4.04,4.55-6.74,8.24-7.81,7.67-2.26,15.81-.42,23.16,2.04,3.67,1.26,7.25,2.8,10.63,4.7-3.69-1.18-7.36-2.3-11.06-3.29-8.85-2.33-26.19-6.22-30.96,4.36h0Z" /><path class="cls-17" d="M107.6,238.66s-2.86-8.58-1.61-12.16c1.25-3.58,12.16-4.29,14.13-5.54,1.97-1.25,8.05-2.15,10.19-.54,2.15,1.61,7.51,12.34,7.51,12.34,0,0,14.66,1.97,23.96,1.43,9.3-.54,20.92-3.22,20.92-3.22,0,0,5.19-19.31,7.15-24.5s6.62-16.63,6.62-16.63c0,0,8.23-12.88,16.81-13.77,8.58-.89,13.77,23.96,15.92,30.22,2.15,6.26,11.27,36.66,4.47,54.72-6.8,18.06-19.67,29.51-46.14,27.18-26.47-2.32-43.1-23.78-52.93-42.02,0,0-6.44,2.15-9.3,1.07-2.86-1.07-4.47-3.04-4.47-3.04,0,0-2.15,5.9-5.54,4.11s-6.97-7.15-7.69-9.66Z" /><path class="cls-6" d="M213.39,301.27c-14.85-2.73-30.02-3.74-45.09-3.25-15.06.68-30.07,2.64-45.15,4.06-26.08,2.03-54.08,4.4-78.56-6.6-3.45-1.6-6.69-3.6-9.75-5.83,3.11,2.04,6.52,3.91,9.95,5.37,24.75,9.91,52.18,7.34,78.19,5.18,13.27-1.16,32.1-3.39,45.28-3.63,15.18-.17,30.39,1.2,45.13,4.7h0Z" /><path class="cls-6" d="M79.14,302.62c-1.61,14.47-7.57,39.72-19.45,48.89,4.56-4.89,7.15-11.09,9.6-17.2,3.79-9.63,7.01-21.66,9.85-31.69h0Z" /><path class="cls-6" d="M146.13,298.84c2.6,14.32,4.75,39.26-.81,52.67,1.75-7.51,1.52-15.28,1.59-22.94-.12-9.9-.57-19.78-.78-29.73h0Z" /><path class="cls-13" d="M449.68,301.11c2.38,9.84,1.24,20.44-2.42,29.83-.53,1.34-1.17,2.64-1.79,3.94,3.91-10.77,5.58-22.36,4.21-33.77h0Z" /><path class="cls-14" d="M279.36,431.17c1.6-.28,2.75.47,3.17,2.03,0,0-.05.08-.05.08-.82-.47-2.41-1.49-3.17-2.04,0,0,.05-.08.05-.08h0Z" /><path class="cls-14" d="M297.71,430.9c1.07.09,1.82.55,2.49,1.11.64.59,1.19,1.27,1.43,2.32l-.06.07c-1.01-.82-2.97-2.54-3.92-3.43,0,0,.06-.07.06-.07h0Z" /><path class="cls-14" d="M313.93,430.07c1.09.08,1.87.54,2.58,1.09.67.59,1.27,1.27,1.55,2.33l-.06.07c-1.06-.82-3.13-2.54-4.12-3.43,0,0,.06-.07.06-.07h0Z" /><path class="cls-14" d="M327.63,429.08c1.07,0,1.84.4,2.54.89.67.53,1.27,1.16,1.58,2.18l-.06.08c-1.06-.73-3.12-2.27-4.12-3.08,0,0,.06-.08.06-.08h0Z" /><path class="cls-14" d="M342.41,431.18c-1.58-1.06-3.85-2.47-5.25-3.74.13-.11.61.23.82.26,1.21.56,2.38,1.26,3.35,2.18.36.34.84.82,1.11,1.24,0,0-.03.05-.03.05h0Z" /><path class="cls-14" d="M349.75,428.59c-1.15-.62-2.25-1.31-3.29-2.1.1-.13.44.03.58.02.79.21,1.54.58,2.11,1.18.12.14.7.74.6.9h0Z" /><path class="cls-14" d="M357.23,426.56c-.88-.37-2.64-1.18-3.5-1.61.07-.15.43-.06.57-.09.48.04,1,.15,1.43.35.43.19.86.52,1.2.85.07.13.37.35.3.5h0Z" /><path class="cls-13" d="M407.85,309.27c-1.02,6.92-3.5,14.81-9.86,18.59,0,0-.06-.08-.06-.08,2.49-2.58,4.58-5.35,6.3-8.48,1.72-3.09,2.72-6.8,3.62-10.03h0Z" /><path class="cls-17" d="M147.17,81.93l6.14.44s.29-12.72-4.68-25.16-11.7-28.67-13.02-34.08c-1.32-5.41.44-14.19-2.93-20.48-3.36-6.29-5.27.15-6.14,3.22-.88,3.07-2.81,16.06-1.9,24.28.44,3.95,2.78,7.02,4.83,8.19,2.05,1.17,12.72,9.8,15.94,24.28,3.22,14.48,1.76,19.31,1.76,19.31Z" /><ellipse class="cls-16" cx="129.3" cy="18.71" rx="15.03" ry="3.49" transform="translate(101.33 146.33) rotate(-85.87)" /><g><path class="cls-14" d="M144.42,81.73c4.72-.5,9.59-.75,14.22.56,1.66.67,3.24,1.32,4.55,2.56,1.6,1.89-.98,2.6-2.5,2.66,0,0,.18-1.15.18-1.15,3.21,1.6,6.15,3.95,7.82,7.16.54,1.06.88,2.22,1.03,3.37-.66-2.24-1.98-4.15-3.68-5.71-2.17-2.05-4.95-3.51-7.7-4.6,1.11-.18,3.03-.21,4.03-.67.11-.08.07-.09.07.02-.06-.12-.42-.47-.62-.61-5.05-3.53-11.47-3.13-17.4-3.58h0Z" /><path class="cls-14" d="M176.68,95.99c3.98,3.58,9.59,9.84,9.07,15.58-.1.61-.34,1.56-1.11,1.56-1.71-.2-2.77-1.6-3.87-2.71.85.56,1.69,1.12,2.57,1.54.41.21.94.41,1.2.34.12-.07.03.05.12-.21.06-.21.1-.43.11-.66.11-1.87-.73-3.74-1.57-5.41-1.83-3.54-4.23-6.76-6.52-10.04h0Z" /><path class="cls-14" d="M179.17,106.68c2.66,2.55,3.22,7.43.53,10.16.94-3.48.47-6.69-.53-10.16h0Z" /><path class="cls-14" d="M169.73,99.38c.61.88.3,2.2-.64,2.74-3.76,2.22-10.53-2.44-13.34-4.97-1.44-1.32-2.73-2.83-3.66-4.54,1.35,1.39,2.78,2.64,4.29,3.78,2.27,1.69,4.67,3.21,7.25,4.36,1.61.67,3.46,1.57,5.15.83.88-.34,1.24-1.3.95-2.2h0Z" /><path class="cls-14" d="M137.29,85.83c1.7,2.14,3.25,4.5,4.76,6.72.5.77,1.02,1.52,1.48,2.37-1.66-.96-2.97-2.37-4.04-3.91-1.04-1.57-1.92-3.29-2.2-5.18h0Z" /><path class="cls-14" d="M120.9,81.2c2.47,2.68,5.25,4.74,8.38,6.59-3.74-.15-7.43-2.94-8.38-6.59h0Z" /><path class="cls-14" d="M92.56,83.16c-1.55,2.94-3.05,5.55-3.03,8.91-1.91-3.06.11-7.27,3.03-8.91h0Z" /><path class="cls-14" d="M124.64,74.6c-3.72-.83-7.14-1.55-10.87-2.14,3.63-1.2,7.94-.29,10.87,2.14h0Z" /><path class="cls-14" d="M144.95,73.36c-4.2-1.36-8.02-3.19-11.94-5.17,4.42.3,8.62,2.31,11.94,5.17h0Z" /><path class="cls-14" d="M165.27,82.09c1.27-1.05,3.43-.77,4.28.71-1.59.13-2.77,0-4.28-.71h0Z" /></g><path class="cls-9" d="M187.5,174.23c5.3-8.96,6.88-18.5,6.96-26.42l42.15,36.23c-8.1-2.16-20.02.42-27.82,4.32-4.61,2.31-18.02,15.53-23.15,31.44l-13.06-3.55c1.1-10.91,5.47-26.08,14.91-42.02Z" /><path class="cls-7" d="M222.04,184.86c7.46,17.64,12.97,36.3,14.3,55.5.95,15.26-1.97,29.34-14.5,39.28-3.78,2.94-8.01,5.48-12.66,6.73,4.48-1.66,8.53-4.31,12.06-7.44,11.66-10.15,14.18-23.67,13.21-38.47-1.24-18.98-6.37-37.61-12.41-55.6h0Z" /><path class="cls-7" d="M182.71,230.97c10.31-4.34,22.76-2.57,32.73,1.97-10.82-1.98-21.75-3.7-32.73-1.97h0Z" /><path class="cls-7" d="M293.21,238.41c10.93,1.96,20.93,7.6,29.7,14.27,4.84,3.86,9.41,8.3,13.44,12.97.86,1.05,2.98,3.8,3.84,4.89,1.62,2.23,3.11,4.56,4.61,6.87-1.84-2.07-3.49-4.25-5.33-6.29-.95-1.04-3.25-3.56-4.14-4.56-11.8-12.19-25.87-22.8-42.13-28.16h0Z" /><path class="cls-7" d="M401.15,283.99c3.67,24.48.46,54.98-18.7,72.6-2.81,2.43-5.87,4.55-9.13,6.26,3.04-2.08,5.94-4.32,8.49-6.94,17.84-18.6,20.48-47.31,19.33-71.92h0Z" /><path class="cls-7" d="M355.15,314.05c1.49,11.5,4.46,23.15,10.98,32.87,4.65,7.49,9.59,14.99,12.69,23.32.96,2.81,1.69,5.73,1.78,8.68-.98-5.84-3.81-11.03-6.72-16.08-2.56-4.37-6.58-10.57-9.34-14.92-6.57-9.9-9.39-22.11-9.38-33.88h0Z" /><path class="cls-13" d="M415.43,328.74c-5.73,17-18.97,37.48-36.92,42.96,0,0-.03-.09-.03-.09,18.91-6.55,28.76-26.17,36.95-42.87h0Z" /><path class="cls-7" d="M425.77,316.62c-5.73,10.11-18.7,23.84-31.48,20.6,12.73.34,23.38-12.03,31.48-20.6h0Z" /><path class="cls-19" d="M107.08,110.57s-4.79-7.16-11.06-6.92c-6.27.25-7.38,2.09-7.75,5.17,0,0-.74-2.34-.25-3.32,0,0-4.3-1.84-3.2-7.01,0,0,.48,5.43,5.77,4.94,0,0-5.77-5.06-3.31-10.59,0,0,.49,7.38,5.41,9.84l1.61-.21s-4.93-6.68-.38-13.2c0,0-1.72,9.35,3.07,13.28l1.11.12s-2.83-5.29.61-8.36c0,0-1.35,6.4,1.23,9.22,0,0,6.51,2.73,7.13,7.04Z" /><path class="cls-19" d="M117.73,101.77c.17-1.2.56-2.32,1.29-3.29,0,0-5.29-2.46-2.83-9.1,0,0,.82,5.76,4.55,7.63,1.23.61,2.46.61,1.35-1.72-1.11-2.34-3.44-6.27-.74-11.32,0,0-.35,9.45,3.44,12.3.98.74,2.09.12,2.09.12,0,0-3.32-8.73,3.07-11.93,0,0-4.49,5.87-.55,12.57.69,1.17,1.17.41,1.17.41,0,0-1.72-4.86,1.47-6.71,0,0-1.35,4.96.86,7.67,0,0,3.57,1.24,5.53,5.98,0,0-11.12-12.83-20.72-2.62Z" /><path class="cls-7" d="M122.13,213.2c7.55,5.33,11.35,15.51,7.32,24.16,0,0-.24.56-.24.56l-.56-.23c-4.88-2-10.23-4.36-15.09-6.49-1.67-.75-3.33-1.5-5.01-2.22,3.52,1.01,6.93,2.33,10.36,3.59,3.43,1.26,6.83,2.6,10.21,3.97l-.8.33c3.76-8.32.33-17.79-6.19-23.68h0Z" /><path class="cls-7" d="M112.31,230.65c1.55,5.02-3.59,9.18-8.37,8.49-1.54-.2-3.02-.84-4.11-1.88,5.28,2.51,12.39-.37,12.48-6.61h0Z" /><path class="cls-7" d="M115.06,243.77c.25-1.36.64-2.67,1.05-3.97l.55.53c-2.87,1.27-6.9.38-8.11-2.67,1.88,2.2,5.12,2.78,7.79,1.91,0,0,.91-.31.91-.31-.66,1.53-1.33,3.07-2.19,4.52h0Z" /><path class="cls-7" d="M134.78,226.13c-.52,1.81-1.84,3.62-3.73,4.13,1.43-1.29,2.42-2.72,3.73-4.13h0Z" /><path class="cls-7" d="M120.83,244.2c-3.53-2.79-5.54-7.12-6.63-11.39,2.33,3.81,4.08,7.72,6.63,11.39h0Z" /><ellipse class="cls-23" cx="82.46" cy="123.93" rx="1.71" ry="2.06" /><ellipse class="cls-23" cx="144.61" cy="123.23" rx="2.13" ry="1.99" /><path class="cls-23" d="M118.36,119.28s-6.5-6.57-10.56-6.36-3.43,8.46-3.43,8.46l2.38-1.19s-.84-2.73,2.45-2.87c3.29-.14,7.97,4.89,7.97,4.89l1.19-2.94Z" /><ellipse class="cls-12" cx="94.24" cy="124.76" rx="9.89" ry="7.15" /><ellipse class="cls-12" cx="130.48" cy="122.73" rx="12.28" ry="7.51" /><ellipse class="cls-2" cx="94.65" cy="124.58" rx="7.48" ry="10.34" transform="translate(-32.31 216.02) rotate(-88.54)" /><ellipse class="cls-2" cx="130.25" cy="122.77" rx="12.59" ry="7.52" /><polygon class="cls-11" points="110.04 141.23 111.86 144.73 117.31 146.69 120.81 143.89 122.91 138.02 122.63 134.66 118.31 132.22 111.02 135.92 110.04 141.23" /><path class="cls-21" d="M117.14,139.38c2.23-.67,3.83.98,4.57,2l-.9,2.51-3.5,2.8-5.45-1.96-.42-.81c2.16-1.62,3.72-3.94,5.7-4.54Z" /><path class="cls-25" d="M107.94,119.88c-2.84,0-6.76,3.44-5.78,10.7.98,7.26,2.09,10.58,7.63,14.14,0,0,3.94-6.03,5.53-6.52,1.6-.49,3.28.09,4.02-.4s1.12-2.2,1.12-2.2c0,0-1.46-1.58-.6-1.7.86-.12,3.46,1.73,3.46,1.73,0,0-2.95-15.74-15.37-15.74Z" /><path class="cls-25" d="M123.32,135.63s1.6,7.99-2.46,14.27-8.49,4.3-9.59,2.95c-1.11-1.35-2.09-10.21-2.09-10.21,0,0,3.2.49,4.43,1.6,1.23,1.11,2.96,1.16,3.32,0,.7-2.27,2.12-2.46,2.98-3.07s.96-1.35.84-2.58c-.08-.77.56-2.83,1.3-3.5.44-.4.92.13,1.29.55Z" /><path class="cls-10" d="M116.18,127.02s-1.11,1.48-2.09.98-3.69-4.06-1.35-4.06c2.34,0,3.57,2.21,3.44,3.07Z" /><g><path class="cls-6" d="M260.6,262.26c3.5-11.33,6.02-23.02,5.82-34.93,1.97,11.82-.69,24.23-5.82,34.93h0Z" /><path class="cls-6" d="M270.07,241.16c-.41,3.01-1.33,5.9-2.43,8.72-1.2,2.75-2.46,5.71-4.85,7.65,2.99-5.22,4.49-11.02,7.28-16.38h0Z" /><path class="cls-6" d="M210.02,156.01c-5.12,6.82-11.32,12.8-15.28,20.38.93-4.24,3.64-7.86,6.25-11.22,2.72-3.33,5.69-6.45,9.04-9.15h0Z" /><path class="cls-6" d="M208.57,152.01c-1.55,2.95-3.62,5.51-6.19,7.64,1.55-2.95,3.62-5.51,6.19-7.64h0Z" /><path class="cls-6" d="M186.74,191.67c-2.9,12.27-4.99,24.84-4,37.48-2.75-12.45-.57-25.73,4-37.48h0Z" /><path class="cls-6" d="M69.93,193.13c1.2,12.13.68,24.35,2.55,36.39-2.1-5.77-2.33-12.02-2.74-18.09-.26-6.1-.28-12.21.19-18.3h0Z" /></g><path class="cls-15" d="M80,203.28c5.78,3.81,11.72,8.17,18.57,9.72-7.26.18-13.9-4.53-18.57-9.72h0Z" /><path class="cls-15" d="M174.11,202.6c-6.25,6.91-14.61,12.86-24.03,14.12,8.93-2.98,16.58-8.5,24.03-14.12h0Z" /><path class="cls-15" d="M160.74,209.29c-5.07,4.17-11.18,7.84-17.83,8.42,6.22-2.3,11.78-5.7,17.83-8.42h0Z" /><path class="cls-7" d="M187.8,148.88c.42,7.95-1.97,15.85-6.27,22.54l-.99-.31c4.3-6.04,6.97-13.41,7.26-22.23Z" /><path class="cls-15" d="M98.8,190.53c11.91,4.55,24.67,4.01,37.08,2.64,17.51-1.74,35.1-8.63,44.65-22.07l.99.31c-2.62,4.08-5.95,7.72-9.79,10.65-10.18,7.92-23.04,11.39-35.63,12.98-12.66,1.26-25.81,1.79-37.79-3.15-11.73-4.57-23.4-10.92-31.41-20.85,8.52,9.31,20.17,15.26,31.9,19.48Z" /><path class="cls-7" d="M179.53,173.18c.17,4.47-.11,9.28,2,13.37-3.7-3.19-3.61-9.11-2-13.37h0Z" /><path class="cls-15" d="M106.56,193.39c7.1,3.78,15.5,4.06,23.39,4.23,1.15,0,2.3-.03,3.46,0-1.14.18-2.29.3-3.44.46-7.9.54-16.82.19-23.41-4.7h0Z" /></g></svg>