<?xml version="1.0" encoding="utf-8"?>
<!-- Generator: Adobe Illustrator 19.2.0, SVG Export Plug-In . SVG Version: 6.00 Build 0)  -->
<!DOCTYPE svg PUBLIC "-//W3C//DTD SVG 1.1//EN" "http://www.w3.org/Graphics/SVG/1.1/DTD/svg11.dtd">
<svg version="1.1" xmlns="http://www.w3.org/2000/svg" xmlns:xlink="http://www.w3.org/1999/xlink" x="0px" y="0px"
	 viewBox="0 0 80 80" enable-background="new 0 0 80 80" xml:space="preserve" width="80" height="80" preserveAspectRatio="none">
<g id="BG">
</g>
<g id="Coral">
</g>
<g id="Sand_BG">
</g>
<g id="Right_BG_Fish">
</g>
<g id="Left_BG_Fish">
</g>
<g id="Left_Orange_and_Purple_Fish">
</g>
<g id="Starfish">
	<g>
		<path fill="#F59E3E" d="M29.6,9.3c2.4-0.9,16.9,15.4,16.9,15.4s20.1-6.5,22.3-5.1c2.2,1.4-9.5,20.8-9.5,20.8S72.1,58.3,71,59.9
			c-1,1.7-22.7-2.6-22.7-2.6s-12.3,18-15,17.3c-2.7-0.7-4.6-22.4-4.6-22.4s-22-6.6-21-8.9C8.7,41,27.6,32,27.6,32
			S27.2,10.2,29.6,9.3z"/>
		<path fill="#FFD540" d="M30.6,11.9c2.2-0.8,15.3,14,15.3,14s18.3-5.9,20.3-4.7c2,1.2-8.6,18.9-8.6,18.9S69.2,56.5,68.3,58
			c-1,1.5-20.7-2.3-20.7-2.3S36.5,72,34,71.4C31.5,70.7,29.8,51,29.8,51s-20.1-6-19.1-8.1c0.9-2.1,18.1-10.3,18.1-10.3
			S28.4,12.7,30.6,11.9z"/>
		<g>
			<ellipse transform="matrix(0.9318 -0.3631 0.3631 0.9318 -22.6348 17.1262)" fill="#F59E3E" cx="34.2" cy="68.8" rx="1" ry="1"/>
			
				<ellipse transform="matrix(0.9318 -0.363 0.363 0.9318 -21.0502 17.3648)" fill="#F59E3E" cx="35.7" cy="64.7" rx="1.2" ry="1.2"/>
			
				<ellipse transform="matrix(0.9318 -0.363 0.363 0.9318 -19.4692 17.607)" fill="#F59E3E" cx="37.1" cy="60.6" rx="1.3" ry="1.3"/>
			
				<ellipse transform="matrix(0.9318 -0.3631 0.3631 0.9318 -17.8907 17.8532)" fill="#F59E3E" cx="38.5" cy="56.5" rx="1.4" ry="1.4"/>
			
				<ellipse transform="matrix(0.9318 -0.363 0.363 0.9318 -16.0694 17.4812)" fill="#F59E3E" cx="38.5" cy="51.5" rx="1.6" ry="1.6"/>
		</g>
		<g>
			
				<ellipse transform="matrix(0.9317 -0.3632 0.3632 0.9317 -20.1379 18.7588)" fill="#F59E3E" cx="39.8" cy="62.9" rx="0.5" ry="0.5"/>
		</g>
		<g>
			<ellipse transform="matrix(0.9317 -0.3632 0.3632 0.9317 -16.298 20.3661)" fill="#F59E3E" cx="46" cy="53.5" rx="1" ry="1"/>
		</g>
		<g>
			
				<ellipse transform="matrix(0.9317 -0.3633 0.3633 0.9317 -17.6231 19.7869)" fill="#F59E3E" cx="43.8" cy="56.7" rx="0.8" ry="0.8"/>
		</g>
		<g>
			
				<ellipse transform="matrix(0.9317 -0.3632 0.3632 0.9317 -18.8943 19.2481)" fill="#F59E3E" cx="41.7" cy="59.9" rx="0.6" ry="0.6"/>
		</g>
		<g>
			
				<ellipse transform="matrix(0.6898 -0.724 0.724 0.6898 -35.168 43.1425)" fill="#F59E3E" cx="32.8" cy="62.6" rx="0.5" ry="0.5"/>
		</g>
		<g>
			<ellipse transform="matrix(0.6898 -0.724 0.724 0.6898 -26.5954 40.8683)" fill="#F59E3E" cx="34.4" cy="51.5" rx="1" ry="1"/>
		</g>
		<g>
			
				<ellipse transform="matrix(0.6901 -0.7237 0.7237 0.6901 -29.5819 41.5703)" fill="#F59E3E" cx="33.7" cy="55.3" rx="0.8" ry="0.8"/>
		</g>
		<g>
			
				<ellipse transform="matrix(0.6899 -0.7239 0.7239 0.6899 -32.4305 42.3401)" fill="#F59E3E" cx="33.2" cy="59" rx="0.6" ry="0.6"/>
		</g>
		<g>
			<ellipse transform="matrix(0.6598 -0.7515 0.7515 0.6598 -27.5748 25.7776)" fill="#F59E3E" cx="14.7" cy="43.3" rx="1" ry="1"/>
			
				<ellipse transform="matrix(0.6598 -0.7514 0.7514 0.6598 -25.6587 28.7908)" fill="#F59E3E" cx="19" cy="42.7" rx="1.2" ry="1.2"/>
			
				<ellipse transform="matrix(0.6598 -0.7514 0.7514 0.6598 -23.7433 31.8051)" fill="#F59E3E" cx="23.3" cy="42.1" rx="1.3" ry="1.3"/>
			
				<ellipse transform="matrix(0.6598 -0.7514 0.7514 0.6598 -21.8282 34.8208)" fill="#F59E3E" cx="27.5" cy="41.5" rx="1.4" ry="1.4"/>
			
				<ellipse transform="matrix(0.6597 -0.7515 0.7515 0.6597 -19.913 37.8408)" fill="#F59E3E" cx="31.8" cy="40.9" rx="1.6" ry="1.6"/>
		</g>
		<g>
			
				<ellipse transform="matrix(0.6599 -0.7513 0.7513 0.6599 -26.6295 32.363)" fill="#F59E3E" cx="22.4" cy="45.6" rx="0.5" ry="0.5"/>
		</g>
		<g>
			<ellipse transform="matrix(0.6598 -0.7514 0.7514 0.6598 -23.7012 41.1878)" fill="#F59E3E" cx="33.6" cy="46.8" rx="1" ry="1"/>
		</g>
		<g>
			<ellipse transform="matrix(0.66 -0.7512 0.7512 0.66 -24.6536 38.091)" fill="#F59E3E" cx="29.8" cy="46.3" rx="0.8" ry="0.8"/>
		</g>
		<g>
			
				<ellipse transform="matrix(0.6601 -0.7512 0.7512 0.6601 -25.6221 35.1597)" fill="#F59E3E" cx="26" cy="45.9" rx="0.6" ry="0.6"/>
		</g>
		<g>
			
				<ellipse transform="matrix(0.2787 -0.9604 0.9604 0.2787 -23.596 46.9676)" fill="#F59E3E" cx="19.5" cy="39.2" rx="0.5" ry="0.5"/>
		</g>
		<g>
			<ellipse transform="matrix(0.2787 -0.9604 0.9604 0.2787 -12.3764 54.5276)" fill="#F59E3E" cx="30.1" cy="35.5" rx="1" ry="1"/>
		</g>
		<g>
			
				<ellipse transform="matrix(0.279 -0.9603 0.9603 0.279 -16.2225 51.811)" fill="#F59E3E" cx="26.4" cy="36.7" rx="0.8" ry="0.8"/>
		</g>
		<g>
			
				<ellipse transform="matrix(0.2789 -0.9603 0.9603 0.2789 -19.9405 49.3061)" fill="#F59E3E" cx="22.9" cy="37.9" rx="0.6" ry="0.6"/>
		</g>
		<g>
			<ellipse transform="matrix(0.1068 -0.9943 0.9943 0.1068 32.7645 84.9748)" fill="#F59E3E" cx="63.7" cy="24.3" rx="1" ry="1"/>
			
				<ellipse transform="matrix(0.107 -0.9943 0.9943 0.107 27.1258 83.6107)" fill="#F59E3E" cx="60.1" cy="26.7" rx="1.2" ry="1.2"/>
			
				<ellipse transform="matrix(0.1069 -0.9943 0.9943 0.1069 21.5064 82.2579)" fill="#F59E3E" cx="56.5" cy="29.2" rx="1.3" ry="1.3"/>
			
				<ellipse transform="matrix(0.1069 -0.9943 0.9943 0.1069 15.8807 80.9008)" fill="#F59E3E" cx="53" cy="31.6" rx="1.4" ry="1.4"/>
			
				<ellipse transform="matrix(0.107 -0.9943 0.9943 0.107 10.2487 79.5389)" fill="#F59E3E" cx="49.4" cy="34.1" rx="1.6" ry="1.6"/>
		</g>
		<g>
			
				<ellipse transform="matrix(0.1065 -0.9943 0.9943 0.1065 22.1756 86.9967)" fill="#F59E3E" cx="59.5" cy="31.2" rx="0.5" ry="0.5"/>
		</g>
		<g>
			<ellipse transform="matrix(0.107 -0.9943 0.9943 0.107 7.0962 87.1035)" fill="#F59E3E" cx="52" cy="39.6" rx="1" ry="1"/>
		</g>
		<g>
			
				<ellipse transform="matrix(0.1068 -0.9943 0.9943 0.1068 12.3289 86.9603)" fill="#F59E3E" cx="54.6" cy="36.6" rx="0.8" ry="0.8"/>
		</g>
		<g>
			<ellipse transform="matrix(0.1061 -0.9944 0.9944 0.1061 17.3627 86.943)" fill="#F59E3E" cx="57" cy="33.8" rx="0.6" ry="0.6"/>
		</g>
		<g>
			<ellipse transform="matrix(0.519 -0.8548 0.8548 0.519 6.6959 60.7715)" fill="#F59E3E" cx="57.3" cy="24.4" rx="0.5" ry="0.5"/>
		</g>
		<g>
			<ellipse transform="matrix(0.5185 -0.8551 0.8551 0.5185 -2.0941 54.1192)" fill="#F59E3E" cx="47" cy="28.9" rx="1" ry="1"/>
		</g>
		<g>
			
				<ellipse transform="matrix(0.5184 -0.8552 0.8552 0.5184 1.0163 56.3845)" fill="#F59E3E" cx="50.6" cy="27.3" rx="0.8" ry="0.8"/>
		</g>
		<g>
			<ellipse transform="matrix(0.5184 -0.8551 0.8551 0.5184 3.9411 58.5975)" fill="#F59E3E" cx="54" cy="25.8" rx="0.6" ry="0.6"/>
		</g>
		<g>
			<ellipse transform="matrix(0.4578 -0.889 0.889 0.4578 3.7667 36.398)" fill="#F59E3E" cx="31.7" cy="15.1" rx="1" ry="1"/>
			<ellipse transform="matrix(0.4579 -0.889 0.889 0.4579 1.0821 40.0206)" fill="#F59E3E" cx="33.4" cy="19.1" rx="1.2" ry="1.2"/>
			
				<ellipse transform="matrix(0.4581 -0.8889 0.8889 0.4581 -1.6078 43.6329)" fill="#F59E3E" cx="35" cy="23.1" rx="1.3" ry="1.3"/>
			
				<ellipse transform="matrix(0.4579 -0.889 0.889 0.4579 -4.2851 47.2675)" fill="#F59E3E" cx="36.6" cy="27.1" rx="1.4" ry="1.4"/>
			
				<ellipse transform="matrix(0.4579 -0.889 0.889 0.4579 -6.9682 50.8922)" fill="#F59E3E" cx="38.2" cy="31.2" rx="1.6" ry="1.6"/>
		</g>
		<g>
			
				<ellipse transform="matrix(0.458 -0.8889 0.8889 0.458 -1.6011 38.3921)" fill="#F59E3E" cx="30.7" cy="20.5" rx="0.5" ry="0.5"/>
		</g>
		<g>
			<ellipse transform="matrix(0.4578 -0.8891 0.8891 0.4578 -10.6544 45.8524)" fill="#F59E3E" cx="32.3" cy="31.7" rx="1" ry="1"/>
		</g>
		<g>
			
				<ellipse transform="matrix(0.458 -0.8889 0.8889 0.458 -7.4617 43.3181)" fill="#F59E3E" cx="31.8" cy="27.8" rx="0.8" ry="0.8"/>
		</g>
		<g>
			
				<ellipse transform="matrix(0.4578 -0.8891 0.8891 0.4578 -4.4501 40.8576)" fill="#F59E3E" cx="31.3" cy="24.1" rx="0.6" ry="0.6"/>
		</g>
		<g>
			
				<ellipse transform="matrix(3.751558e-002 -0.9993 0.9993 3.751558e-002 16.7896 54.934)" fill="#F59E3E" cx="36.9" cy="18.8" rx="0.5" ry="0.5"/>
		</g>
		<g>
			
				<ellipse transform="matrix(3.768585e-002 -0.9993 0.9993 3.768585e-002 13.2887 70.1607)" fill="#F59E3E" cx="43.1" cy="28.2" rx="1" ry="1"/>
		</g>
		<g>
			
				<ellipse transform="matrix(3.748963e-002 -0.9993 0.9993 3.748963e-002 14.6175 64.9038)" fill="#F59E3E" cx="41" cy="24.9" rx="0.8" ry="0.8"/>
		</g>
		<g>
			
				<ellipse transform="matrix(3.746726e-002 -0.9993 0.9993 3.746726e-002 15.7817 59.8504)" fill="#F59E3E" cx="39" cy="21.7" rx="0.6" ry="0.6"/>
		</g>
		<g>
			<ellipse transform="matrix(0.9317 -0.3631 0.3631 0.9317 -15.871 27.404)" fill="#F59E3E" cx="65" cy="55.9" rx="1" ry="1"/>
			
				<ellipse transform="matrix(0.9318 -0.3631 0.3631 0.9318 -15.3892 25.8699)" fill="#F59E3E" cx="61.1" cy="53.9" rx="1.2" ry="1.2"/>
			
				<ellipse transform="matrix(0.9318 -0.3631 0.3631 0.9318 -14.9105 24.3447)" fill="#F59E3E" cx="57.3" cy="51.8" rx="1.3" ry="1.3"/>
			
				<ellipse transform="matrix(0.9318 -0.363 0.363 0.9318 -14.4306 22.8159)" fill="#F59E3E" cx="53.5" cy="49.8" rx="1.4" ry="1.4"/>
			
				<ellipse transform="matrix(0.9317 -0.3632 0.3632 0.9317 -13.5167 21.4471)" fill="#F59E3E" cx="50.3" cy="46.7" rx="1.6" ry="1.6"/>
		</g>
		<g>
			
				<ellipse transform="matrix(0.9317 -0.3632 0.3632 0.9317 -16.2297 24.4451)" fill="#F59E3E" cx="56.9" cy="55.4" rx="0.5" ry="0.5"/>
		</g>
		<g>
			
				<ellipse transform="matrix(0.9318 -0.363 0.363 0.9318 -16.0328 21.7194)" fill="#F59E3E" cx="49.8" cy="53.5" rx="0.8" ry="0.8"/>
		</g>
		<g>
			
				<ellipse transform="matrix(0.9319 -0.3627 0.3627 0.9319 -16.1047 23.0782)" fill="#F59E3E" cx="53.4" cy="54.4" rx="0.6" ry="0.6"/>
		</g>
		<g>
			
				<ellipse transform="matrix(6.650466e-002 -0.9978 0.9978 6.650466e-002 7.489 108.758)" fill="#F59E3E" cx="61.9" cy="50.4" rx="0.5" ry="0.5"/>
		</g>
		<g>
			
				<ellipse transform="matrix(6.634064e-002 -0.9978 0.9978 6.634064e-002 6.4315 93.4127)" fill="#F59E3E" cx="53.1" cy="43.3" rx="1" ry="1"/>
		</g>
		<g>
			
				<ellipse transform="matrix(6.653620e-002 -0.9978 0.9978 6.653620e-002 6.9003 98.7255)" fill="#F59E3E" cx="56.2" cy="45.7" rx="0.8" ry="0.8"/>
		</g>
		<g>
			
				<ellipse transform="matrix(6.635104e-002 -0.9978 0.9978 6.635104e-002 7.2681 103.8296)" fill="#F59E3E" cx="59.1" cy="48" rx="0.6" ry="0.6"/>
		</g>
		
			<ellipse transform="matrix(0.9318 -0.363 0.363 0.9318 -11.7934 17.8874)" fill="#F59E3E" cx="41.7" cy="40.3" rx="6.9" ry="6.9"/>
		
			<ellipse transform="matrix(0.9318 -0.363 0.363 0.9318 -11.7933 17.8869)" fill="#FFFAF1" cx="41.7" cy="40.3" rx="5.6" ry="5.6"/>
		<ellipse transform="matrix(0.9317 -0.3631 0.3631 0.9317 -12.3526 18.7765)" fill="#4A0038" cx="43.8" cy="42.2" rx="3" ry="3"/>
		
			<ellipse transform="matrix(0.9318 -0.3631 0.3631 0.9318 -13.0169 18.3821)" fill="#FFFAF1" cx="42.4" cy="43.8" rx="1.4" ry="1.4"/>
		<path fill="#4A0038" d="M38.6,47.2c0,0,2.1,2.3,5.6,1.7c3.4-0.6,4.5-4.8,4.5-4.8s1.8,6.6-3.2,7.7C40.4,52.8,38.6,47.2,38.6,47.2z"
			/>
		<path fill="#FFFAF1" d="M46.3,49.5l0.1-1.7c-0.5,0.2-0.9,0.5-1.2,0.8L46.3,49.5z"/>
	</g>
</g>
<g id="White_Frame_Drop_Shadow">
</g>
<g id="White_Frame_BG">
</g>
<g id="Submit_Button_1_">
</g>
<g id="Left_Tool_Bar_Tab">
</g>
<g id="Right_Info_Tab">
</g>
<g id="Top_Tab">
</g>
<g id="Left_Tools">
</g>
<g id="Orange_Crab">
</g>
<g id="Anchor">
</g>
<g id="Treasure_Chest">
</g>
<g id="Keyboard">
</g>
<g id="Header">
</g>
<g id="Header_Buttons">
</g>
<g id="Progress_Indicator_1_">
</g>
<g id="Title">
</g>
<g id="Problem_Screen">
</g>
<g id="Isadora_Screenshot" display="none">
</g>
</svg>
