<?xml version="1.0" encoding="utf-8"?>
<!-- Generator: Adobe Illustrator 19.2.0, SVG Export Plug-In . SVG Version: 6.00 Build 0)  -->
<!DOCTYPE svg PUBLIC "-//W3C//DTD SVG 1.1//EN" "http://www.w3.org/Graphics/SVG/1.1/DTD/svg11.dtd">
<svg version="1.1" xmlns="http://www.w3.org/2000/svg" xmlns:xlink="http://www.w3.org/1999/xlink" x="0px" y="0px"
	 viewBox="0 0 145 170" enable-background="new 0 0 145 170" xml:space="preserve" width="145" height="170" preserveAspectRatio="none">
<g id="BG">
</g>
<g id="Coral">
	<g>
		<path fill="#EF4B2A" d="M88.4,105.8c3.5,4.8,6.6,10.5,9.3,16.5c2.3,5.1,3.8,10.1,2.2,16.4c-0.5,2-1.3,3.4-2.2,4.5h15.7
			c-1.1-4.3-1.9-8.7-2.8-12.9c-0.6-2.8-6.6-28.2-6.6-37.5c0-8.2,0.3-18.3,4.2-24.1c3.7-5.5,11.1-10.6,12-20c0.5-5.7-2.7-9-5.2-11.8
			c-3.1-3.5-15.3-17.7-17.3-20c-4-4.7-9-4-13.7-0.7c-2.8,2-6.5,4.7-7.6,9.8c-1,5-0.3,13.4,0.3,18.6c0.7,5.6,2.8,9.9,4.8,14.5
			c1.7,3.8,10.4,17.6,4.8,24.4c-1.5,1.8-4.2,4.4-9.7-0.5C71.5,94.1,85.5,101.8,88.4,105.8z M86.2,54.9c0-2.9,4.1-5.2,9.2-5.2
			c5.1,0,9.2,2.3,9.2,5.2c0,2.9-4.1,5.2-9.2,5.2C90.3,60.1,86.2,57.8,86.2,54.9z"/>
		<path fill="#9E2C2B" d="M36.2,124.5c2.1,1.6,4.2,3.3,4.9,7.1c0.6,3.5,0.2,6.8-1.6,9.1c-1,1.3-3.3,2.4-5.3,3.8h37.5
			c0-9.6-17.5-5.5-17.1-16.1c0.3-6.3,16.9-6.4,19.2-17.5c1.8-8.8-1.4-12.4-6.2-16.6c-2.5-2.2-9.7-5.6-8.3-11.8
			c0.8-3.8,4.2-4.9,6.4-5.8c2.5-1,7.6-3.5,5.9-8.2c-1.6-4.5-3.9-1.3-6.7-1.9c-0.1,0-5.5,0.4-4.6-13.7c0.3-4.7-1.9-7.8-5.1-8.1
			c-1.6-0.1-3,0.3-4.2,2c-1.6,2.3-1,2.9-1,5.5c0.1,5.3-1.1,6.8-3.8,8.6c-3.7,2.4-17.6,3.6-17.1,12c0.6,10.4,11.6,12.5,11.1,22.5
			c-0.4,9.2-17.3-3.5-17.5,11.7C22.6,112.4,33.5,122.5,36.2,124.5z M61.6,69.3c2.3,0,4.2,1.1,4.2,2.5c0,1.4-1.9,2.5-4.2,2.5
			c-2.3,0-4.2-1.1-4.2-2.5C57.4,70.4,59.3,69.3,61.6,69.3z M55.6,65.9c1,0,1.9,0.5,1.9,1.1c0,0.6-0.8,1.1-1.9,1.1
			c-1,0-1.9-0.5-1.9-1.1C53.8,66.4,54.6,65.9,55.6,65.9z M39.5,80.8c0-3.1,0.9-8.2,5.6-8.2c4.8,0,11.6,5.1,11.6,8.2
			c0,3.1-3.9,5.6-8.6,5.6C43.3,86.4,39.5,83.9,39.5,80.8z M46.7,117c3.6,0,6.6,1.4,6.6,3.2c0,1.8-2.9,3.2-6.6,3.2
			c-3.6,0-6.6-1.4-6.6-3.2C40.1,118.4,43.1,117,46.7,117z"/>
		<path fill="#FFCA2A" d="M67.9,130.3c0.3,8.4-1.6,11.6-4.1,14.7h22.9c-2.7-1.8-5.6-3.3-7-5c-2.6-3.2-3.2-7.9-2.3-12.8
			c0.9-5.3,3.9-7.8,6.9-10c3.8-2.8,19.2-17.1,19.1-24.7c-0.3-21.3-24.1-3.5-24.7-16.5C78,61.8,93.5,58.9,94.3,44.2
			c0.6-11.8-6.5-14.8-12.8-14.8c-4,0-16.9-6.8-16.9-14.3c0-3.6,1-4.5-1.4-7.7c-1.7-2.3-3.7-3-5.9-2.8C52.9,5,49.8,9.4,50.2,16
			c1.4,19.8-6.2,19.3-6.4,19.3c-4.1,0.9-7.2-3.5-9.5,2.7c-2.4,6.6,4.8,10.1,8.3,11.5c3.1,1.3,7.9,2.8,9.1,8.2
			c1.9,8.6-8.2,13.5-11.7,16.6c-6.8,5.9-11.4,11.1-8.8,23.5c3.3,15.7,12.6,14.2,21.4,15.3C60.6,114.1,67.3,116.2,67.9,130.3z
			 M85.8,86.8c5.1,0,9.3,2,9.3,4.5c0,2.5-4.2,4.5-9.3,4.5c-5.1,0-9.3-2-9.3-4.5C76.5,88.8,80.6,86.8,85.8,86.8z M59.8,29.7
			c-3.2,0-5.9-1.6-5.9-3.5c0-2,2.6-3.5,5.9-3.5c3.2,0,5.9,1.6,5.9,3.5C65.7,28.2,63,29.7,59.8,29.7z M66.8,30.9
			c0-0.8,1.2-1.5,2.6-1.5c1.5,0,2.6,0.7,2.6,1.5c0,0.8-1.2,1.5-2.6,1.5C68,32.3,66.8,31.7,66.8,30.9z"/>
		<ellipse fill="#EF4B2A" cx="81.1" cy="34.6" rx="2" ry="1"/>
		<ellipse fill="#C12E7C" cx="83.4" cy="35.7" rx="0" ry="0.1"/>
		<ellipse fill="#EF4B2A" cx="84.4" cy="37.4" rx="1.1" ry="0.6"/>
		<ellipse fill="#EF4B2A" cx="56.1" cy="34.2" rx="2.1" ry="0.9"/>
		<ellipse fill="#C12E7C" cx="37.5" cy="41.7" rx="1" ry="0.5"/>
		<ellipse fill="#EF4B2A" cx="60.2" cy="67.6" rx="4.5" ry="2.2"/>
		<ellipse fill="#EF4B2A" cx="55.3" cy="72.7" rx="1.9" ry="0.9"/>
		<ellipse fill="#EF4B2A" cx="81" cy="105.5" rx="4.2" ry="2.3"/>
		<ellipse fill="#EF4B2A" cx="87.8" cy="101.1" rx="2.8" ry="1.4"/>
		<ellipse fill="#9E2C2B" cx="92.5" cy="24.4" rx="3.4" ry="2.7"/>
		<ellipse fill="#9E2C2B" cx="97.7" cy="30.6" rx="1.4" ry="1.2"/>
		<ellipse fill="#9E2C2B" cx="112.4" cy="51.1" rx="2.8" ry="2.2"/>
		<ellipse fill="#9E2C2B" cx="100.1" cy="116.4" rx="2.5" ry="2.4"/>
		<ellipse fill="#9E2C2B" cx="102.5" cy="121.7" rx="1.1" ry="1.2"/>
		<ellipse fill="#9E2C2B" cx="69.1" cy="56.5" rx="11.3" ry="5.2"/>
		<ellipse fill="#9E2C2B" cx="82.2" cy="46.4" rx="5.5" ry="2"/>
		<path fill="#F9EBC1" d="M2.8,161c0,0,1.2-1.3,1.8-2.1c4.5-5.6,24.7-28.1,59.6-28.6c39.9-0.6,60.5,12.9,60.5,12.9l16.5,17.6
			C98.1,168.3,36.3,165.6,2.8,161z"/>
		<circle fill="#D4C78E" cx="111.7" cy="144.3" r="2.4"/>
		<circle fill="#D4C78E" cx="106.8" cy="142.1" r="1"/>
		<circle fill="#D4C78E" cx="46.7" cy="141.3" r="1.7"/>
		<circle fill="#D4C78E" cx="41.5" cy="139.9" r="1.2"/>
		<circle fill="#D4C78E" cx="22.8" cy="146.8" r="1.2"/>
		<circle fill="#D4C78E" cx="77.5" cy="141.4" r="2.2"/>
		<circle fill="#D4C78E" cx="71.7" cy="147.2" r="0.7"/>
		<ellipse fill="#9E2C2B" cx="50" cy="96.8" rx="14.3" ry="7.5"/>
	</g>
</g>
<g id="Sand_BG">
</g>
<g id="Right_BG_Fish">
</g>
<g id="Left_BG_Fish">
</g>
<g id="Left_Orange_and_Purple_Fish">
</g>
<g id="Starfish">
</g>
<g id="White_Frame_Drop_Shadow">
</g>
<g id="White_Frame_BG">
</g>
<g id="Submit_Button_1_">
</g>
<g id="Left_Tool_Bar_Tab">
</g>
<g id="Right_Info_Tab">
</g>
<g id="Top_Tab">
</g>
<g id="Left_Tools">
</g>
<g id="Orange_Crab">
</g>
<g id="Anchor">
	<g>
		<g>
		</g>
	</g>
</g>
<g id="Treasure_Chest">
</g>
<g id="Keyboard">
</g>
<g id="Header">
</g>
<g id="Header_Buttons">
</g>
<g id="Progress_Indicator_1_">
</g>
<g id="Title">
</g>
<g id="Problem_Screen">
</g>
<g id="Isadora_Screenshot" display="none">
</g>
</svg>
