<svg xmlns="http://www.w3.org/2000/svg" viewBox="0 0 103.18 103.18" width="103.18" height="103.18" preserveAspectRatio="none">
  <defs>
    <style>
      .cls-1{fill:#262223;}.cls-2{fill:#457f7f;}.cls-3{fill:#76a5a5;}.cls-4{fill:#fff;}.cls-5{fill:#221f1f;}.cls-6{fill:#76bbd3;}
    </style>
  </defs>
  <g id="flies" opacity=".2">
    <path class="cls-1" d="M45.75,62.58c0,.44-1.9,5-1.38,9.16a1.4,1.4,0,0,0,1.38.85s-.54-9.46.87-11Z"/>
    <path class="cls-1" d="M42.44,61.3c0,.43-1.9,5-1.38,9.16a1.4,1.4,0,0,0,1.38.85s-.55-9.47.87-11Z"/>
    <path class="cls-1" d="M40.48,59.35c0,.43-2.43,4.79-2.36,8.95a1.41,1.41,0,0,0,1.28,1s.48-9.47,2.06-10.83Z"/>
    <path class="cls-1" d="M57.52,62.94c0,.44,1.9,5,1.38,9.16a1.4,1.4,0,0,1-1.38.85s.55-9.46-.87-11Z"/>
    <path class="cls-1" d="M61.15,61.66c0,.43,1.9,5,1.38,9.16a1.4,1.4,0,0,1-1.38.85s.55-9.47-.87-11Z"/>
    <path class="cls-2" d="M42.2,47.42s-2.06-5.61-11.48-5.5-5.82,5-3.22,6.74,8.66,4.63,13.9,1Z"/>
    <path class="cls-1" d="M62.79,59.71c.05.43,2.43,4.79,2.36,8.95a1.39,1.39,0,0,1-1.27,1s-.49-9.47-2.06-10.83Z"/>
    <path class="cls-3" d="M49.53,46.46s6.64-8.25-7-19.68-16.84-2-16.07,3c.74,4.81,4.62,15.38,18.07,18.05Z"/>
    <path class="cls-2" d="M61,47.42s2-5.61,11.47-5.5,5.83,5,3.22,6.74-8.66,4.63-13.9,1Z"/>
    <path class="cls-3" d="M52.76,46.46s-6.64-8.25,7-19.68,16.84-2,16.08,3S71.36,45.08,57.73,47.79Z"/>
    <ellipse class="cls-1" cx="50.83" cy="52.88" rx="18.31" ry="11.43"/>
    <circle class="cls-4" cx="45.71" cy="50.12" r="6.09"/>
    <circle class="cls-4" cx="56.67" cy="50.12" r="6.09"/>
    <circle class="cls-5" cx="49.81" cy="49.91" r="1.34"/>
    <circle class="cls-5" cx="52.65" cy="49.91" r="1.34"/>
    <ellipse class="cls-6" cx="52.2" cy="78.64" rx="21.99" ry="4.23"/>
  </g>
</svg>
