<svg xmlns="http://www.w3.org/2000/svg" viewBox="0 0 103.18 103.18" width="103.18" height="103.18" preserveAspectRatio="none"><defs><style>.cls-1{fill:#62af35;}.cls-2{fill:#fff;}.cls-3{fill:#231f20;}.cls-4{fill:#2b7703;}</style></defs><g id="frogs"><circle class="cls-1" cx="35.46" cy="23.83" r="11.48" /><circle class="cls-2" cx="35.46" cy="23.83" r="9.92" /><circle class="cls-3" cx="38.09" cy="15.35" r="2.63" /><circle class="cls-1" cx="69.83" cy="23.83" r="11.48" /><circle class="cls-2" cx="69.83" cy="23.83" r="9.92" /><circle class="cls-3" cx="66.75" cy="15.62" r="2.63" /><path class="cls-1" d="M67.28,75.83c5.08-1.73,12.48-4.47,17.66-11.42,10.09-13.52,3.86-14,3.86-14-11.13,0-26.24,20.49-26.24,20.49,6.63-10.35,8.65-30.19,8.65-36.13S65,20.67,60,17.94c-2.42-1.34-7.44-2.54-14-.43-4.24,1.36-8.27,5.89-8.27,5.89-4.17,4.4-4.17,11.71-4.17,11.71s-.82,18.39,7.87,35.8C35.66,59.15,26.3,50.42,18.12,50.42c0,0-6.72.82,2.42,13.78C25.56,71.31,30.9,73.3,36,75c-5-.17-15.87-2.37-15.52-2.22,0,0,3.16,1.41,2.4,1.41-.93,0-7.68.33-7.9.42,0,0,5.21,1.67,5.83,1.72L14,78.15C13.88,78.22,41.22,77,41.22,77c12,5.69,21.15.4,21.15.4S74.06,75.33,67.28,75.83Z" /><path class="cls-1" d="M71.9,73.59c-1.45.64-2.9,1.14-4.32,1.63,5-.17,18.66-2,18.31-1.82,0,0-3.21,1.06-2.45,1.06.93,0,5.88.65,6.1.75,0,0-3.35.76-4,.82l6.66,2.12c.09.07-29.88-1-29.88-1a16.49,16.49,0,0,1-1.86,1,3.86,3.86,0,0,1,.88-2.1C63.58,72.88,67.86,73.32,71.9,73.59Z" /><path class="cls-4" d="M82,57.9a30.39,30.39,0,0,0-11,9.12c-3.22,3.49-4.61,9.21-9.51,10.8l0-.07a10,10,0,0,0,5.06-5,42.2,42.2,0,0,1,4-6.12c3-3.69,6.93-7.43,11.46-8.72Z" /><path class="cls-4" d="M24.49,59.12c4.87.73,8.65,4.68,11.37,8.53,2.87,3.53,3.7,9.5,8.65,10.76-1.06.13-2.34-.78-3.18-1.51-1.62-1.36-3-4.08-4-5.9-3.05-5-7.13-10.16-12.82-11.88Z" /></g></svg>