<svg xmlns="http://www.w3.org/2000/svg" viewBox="0 0 103.18 103.18" width="103.18" height="103.18" preserveAspectRatio="none"><defs><style>
      .cls-1{fill:#76bbd3;}.cls-2{fill:#048204;}.cls-3{fill:#62af35;}.cls-4{fill:#518e29;}.cls-5{fill:#054905;}.cls-6{fill:#2b7703;}
    </style></defs><g id="Layer_13" data-name="Layer 13"><path class="cls-1" d="M94.21,78.68c0,4.84-19.08,8.78-42.62,8.78a115.77,115.77,0,0,1-16-.64l2.85-6.49-13.26,4.9C17.27,83.63,9,80.14,9,77.68c0-4.85,19.08-7.78,42.62-7.78S94.21,73.83,94.21,78.68Z" /><path class="cls-2" d="M94.21,75.67c0,4.85-19.08,8.78-42.62,8.78a115.89,115.89,0,0,1-16-.63l2.85-5.5-13.26,4.9C17.27,81.63,9,78.14,9,75.67c0-4.84,19.08-8.77,42.62-8.77S94.21,70.83,94.21,75.67Z" /><path class="cls-1" d="M60.25,87c-.7.22-7.45,3.84,3.71,4.07,0,0,11.85-1.68,1.39-4.41Z" /><path class="cls-3" d="M62.94,42c1.43-.48,12.39-.75,14.82.93,1.61,1.12,4.62,3.71,5.11,5.17l-1.29.77s-1.9-3-4.78-3.48a54.91,54.91,0,0,0-12.7-.22,4.61,4.61,0,0,0-.92.22C60.79,46.26,62.94,42,62.94,42Z" /><circle class="cls-3" cx="36.46" cy="22.24" r="10.09" /><circle class="cls-4" cx="36.46" cy="22.24" r="8.72" /><path class="cls-5" d="M30.8,21.12s12.61,9.89,12-2.41c0,0,2.6,7-2.51,7.75S31.27,21.38,30.8,21.12Z" /><path class="cls-3" d="M44.88,38.93s13.55-5.67,21.56-12.24c0,0,1,34.76-10.55,45.87C50.35,77.91,44.88,38.93,44.88,38.93Z" /><path class="cls-3" d="M60.21,82.66a12.28,12.28,0,0,0-11-4.92c-7.41.8-13.89-2.83-8.41-5.75,3.55-1.9,25,2.91,25.53,15.42.07,2-.49,2.39-.49,2.39-4.26.81-6.25-.09-6.25-.09C58.79,88.83,60.21,82.66,60.21,82.66Z" /><path class="cls-3" d="M23.27,76.28C21,74.06,25.7,64.52,22,68.61c-1.4,1.56-3.38,9-.49,9.39.87.12,3.91-1,5.27.55.47.52,1.62-.7,1.62-.7-.58,0-.5-.78-1.68-1.19A14.7,14.7,0,0,0,23.27,76.28Z" /><path class="cls-3" d="M59.59,69.92c-2.92-3.25-5.21-11.27-7.79-33.72a115.23,115.23,0,0,0-12.6-5.9c-6.05-2.41-7.24-1-8.15-.34-1.76,1.31-8.57,2.69-10.89,8.42-4.65,11.49,1.2,33.21,1.2,33.21a38.37,38.37,0,0,0,29.25,5.85S57.09,75.46,59.59,69.92Z" /><path class="cls-3" d="M82.47,70.68c-.74-.84-15.11-2-22.29-2.15,4.79-1.62,11.12-4.68,14.95-12,7.41-14.08,2.53-12,2.53-12-12.64,0-20.8,14.77-23,19.48l-.48-.51a13.06,13.06,0,0,0,2.35,7.66C63.07,73.43,75.71,77,76.56,77c2,.1,2-.25,2-.63,0-1-5.16-1.7-1.39-1.88,1.68-.08,3.44,0,3.13-.93-.11-.29-2.1-.7-2-1.06C78.54,71.07,83.51,71.85,82.47,70.68Z" /><path class="cls-3" d="M82.94,47.79s-1.69.26-3.71,3.45c0,0,3.23-1.7,5.37,2.94,0,0-.19-4.09,2.52-3.44Z" /><path class="cls-3" d="M25.09,77.45s1.29.75-1.82,1.61a19.7,19.7,0,0,1,8.31.6s-2.95-2.07.11-2.21h-6.6Z" /><path class="cls-6" d="M61.49,65.16c.36-.83.66-1.78,1-2.66s.77-1.76,1.19-2.62a33.62,33.62,0,0,1,3-4.92,23.86,23.86,0,0,1,4.07-4.15,18.56,18.56,0,0,1,2.46-1.56,15.81,15.81,0,0,1,2.71-1v0a16.22,16.22,0,0,0-5,2.81,24.41,24.41,0,0,0-3.92,4.14A38.62,38.62,0,0,0,64,60.05c-.46.84-.89,1.69-1.3,2.55s-.74,1.75-1.24,2.61Z" /><circle class="cls-3" cx="22.02" cy="26.09" r="11.74" /><circle class="cls-4" cx="22.02" cy="26.09" r="10.15" /><path class="cls-5" d="M12.07,24.15s19.24,12.41,18.32-3c0,0,4,8.72-3.83,9.73S12.79,24.49,12.07,24.15Z" /><path class="cls-6" d="M66.41,26.73A73,73,0,0,1,57.25,33a81.06,81.06,0,0,1-10,4.89,66.33,66.33,0,0,1-10.67,3.43,60.07,60.07,0,0,1-11.09,1.38l0-.1c3.67-.66,7.3-1.35,10.87-2.29A109.6,109.6,0,0,0,46.9,37.14,79,79,0,0,0,57,32.56q2.46-1.3,4.81-2.79c.78-.49,1.56-1,2.32-1.53l1.14-.8.56-.41.28-.2.15-.1s.08-.09.21-.08Z" /><path class="cls-6" d="M65.83,41.23s.09,0,.07,0v.12l0,.14,0,.27,0,.56-.09,1.12-.2,2.24c-.14,1.49-.29,3-.47,4.47-.38,3-.84,5.94-1.45,8.89a46.59,46.59,0,0,1-2.47,8.7,23.19,23.19,0,0,1-2.15,4,9.56,9.56,0,0,1-3.27,3.15l-.06-.08a11.64,11.64,0,0,0,2.72-3.45,26.36,26.36,0,0,0,1.8-4,79.59,79.59,0,0,0,2.62-8.5c.71-2.9,1.27-5.83,1.75-8.78.24-1.48.47-3,.67-4.43l.3-2.23.14-1.11.08-.56,0-.28,0-.14v-.13s.09-.06.1,0Z" /><path class="cls-6" d="M73.37,45.13a14.19,14.19,0,0,1,1.56-.28c.53-.07,1-.09,1.59-.11a2.94,2.94,0,0,1,1.61.47,3.3,3.3,0,0,1,1.11,1.18l0,0a4.11,4.11,0,0,0-1.2-1,3,3,0,0,0-1.5-.39c-1,0-2.1.07-3.15.14Z" /><path class="cls-1" d="M94.21,78.68c0,4.84-19.08,8.78-42.62,8.78a115.77,115.77,0,0,1-16-.64l2.85-6.49-13.26,4.9C17.27,83.63,9,80.14,9,77.68c0-4.85,19.08-7.78,42.62-7.78S94.21,73.83,94.21,78.68Z" /><path class="cls-2" d="M94.21,75.67c0,4.85-19.08,8.78-42.62,8.78a115.89,115.89,0,0,1-16-.63l2.85-5.5-13.26,4.9C17.27,81.63,9,78.14,9,75.67c0-4.84,19.08-8.77,42.62-8.77S94.21,70.83,94.21,75.67Z" /><path class="cls-1" d="M60.25,87c-.7.22-7.45,3.84,3.71,4.07,0,0,11.85-1.68,1.39-4.41Z" /><path class="cls-3" d="M62.94,42c1.43-.48,12.39-.75,14.82.93,1.61,1.12,4.62,3.71,5.11,5.17l-1.29.77s-1.9-3-4.78-3.48a54.91,54.91,0,0,0-12.7-.22,4.61,4.61,0,0,0-.92.22C60.79,46.26,62.94,42,62.94,42Z" /><circle class="cls-3" cx="36.46" cy="22.24" r="10.09" /><circle class="cls-4" cx="36.46" cy="22.24" r="8.72" /><path class="cls-5" d="M30.8,21.12s12.61,9.89,12-2.41c0,0,2.6,7-2.51,7.75S31.27,21.38,30.8,21.12Z" /><path class="cls-3" d="M44.88,38.93s13.55-5.67,21.56-12.24c0,0,1,34.76-10.55,45.87C50.35,77.91,44.88,38.93,44.88,38.93Z" /><path class="cls-3" d="M60.21,82.66a12.28,12.28,0,0,0-11-4.92c-7.41.8-13.89-2.83-8.41-5.75,3.55-1.9,25,2.91,25.53,15.42.07,2-.49,2.39-.49,2.39-4.26.81-6.25-.09-6.25-.09C58.79,88.83,60.21,82.66,60.21,82.66Z" /><path class="cls-3" d="M23.27,76.28C21,74.06,25.7,64.52,22,68.61c-1.4,1.56-3.38,9-.49,9.39.87.12,3.91-1,5.27.55.47.52,1.62-.7,1.62-.7-.58,0-.5-.78-1.68-1.19A14.7,14.7,0,0,0,23.27,76.28Z" /><path class="cls-3" d="M59.59,69.92c-2.92-3.25-5.21-11.27-7.79-33.72a115.23,115.23,0,0,0-12.6-5.9c-6.05-2.41-7.24-1-8.15-.34-1.76,1.31-8.57,2.69-10.89,8.42-4.65,11.49,1.2,33.21,1.2,33.21a38.37,38.37,0,0,0,29.25,5.85S57.09,75.46,59.59,69.92Z" /><path class="cls-3" d="M82.47,70.68c-.74-.84-15.11-2-22.29-2.15,4.79-1.62,11.12-4.68,14.95-12,7.41-14.08,2.53-12,2.53-12-12.64,0-20.8,14.77-23,19.48l-.48-.51a13.06,13.06,0,0,0,2.35,7.66C63.07,73.43,75.71,77,76.56,77c2,.1,2-.25,2-.63,0-1-5.16-1.7-1.39-1.88,1.68-.08,3.44,0,3.13-.93-.11-.29-2.1-.7-2-1.06C78.54,71.07,83.51,71.85,82.47,70.68Z" /><path class="cls-3" d="M82.94,47.79s-1.69.26-3.71,3.45c0,0,3.23-1.7,5.37,2.94,0,0-.19-4.09,2.52-3.44Z" /><path class="cls-3" d="M25.09,77.45s1.29.75-1.82,1.61a19.7,19.7,0,0,1,8.31.6s-2.95-2.07.11-2.21h-6.6Z" /><path class="cls-6" d="M61.49,65.16c.36-.83.66-1.78,1-2.66s.77-1.76,1.19-2.62a33.62,33.62,0,0,1,3-4.92,23.86,23.86,0,0,1,4.07-4.15,18.56,18.56,0,0,1,2.46-1.56,15.81,15.81,0,0,1,2.71-1v0a16.22,16.22,0,0,0-5,2.81,24.41,24.41,0,0,0-3.92,4.14A38.62,38.62,0,0,0,64,60.05c-.46.84-.89,1.69-1.3,2.55s-.74,1.75-1.24,2.61Z" /><circle class="cls-3" cx="22.02" cy="26.09" r="11.74" /><circle class="cls-4" cx="22.02" cy="26.09" r="10.15" /><path class="cls-5" d="M12.07,24.15s19.24,12.41,18.32-3c0,0,4,8.72-3.83,9.73S12.79,24.49,12.07,24.15Z" /><path class="cls-6" d="M66.41,26.73A73,73,0,0,1,57.25,33a81.06,81.06,0,0,1-10,4.89,66.33,66.33,0,0,1-10.67,3.43,60.07,60.07,0,0,1-11.09,1.38l0-.1c3.67-.66,7.3-1.35,10.87-2.29A109.6,109.6,0,0,0,46.9,37.14,79,79,0,0,0,57,32.56q2.46-1.3,4.81-2.79c.78-.49,1.56-1,2.32-1.53l1.14-.8.56-.41.28-.2.15-.1s.08-.09.21-.08Z" /><path class="cls-6" d="M65.83,41.23s.09,0,.07,0v.12l0,.14,0,.27,0,.56-.09,1.12-.2,2.24c-.14,1.49-.29,3-.47,4.47-.38,3-.84,5.94-1.45,8.89a46.59,46.59,0,0,1-2.47,8.7,23.19,23.19,0,0,1-2.15,4,9.56,9.56,0,0,1-3.27,3.15l-.06-.08a11.64,11.64,0,0,0,2.72-3.45,26.36,26.36,0,0,0,1.8-4,79.59,79.59,0,0,0,2.62-8.5c.71-2.9,1.27-5.83,1.75-8.78.24-1.48.47-3,.67-4.43l.3-2.23.14-1.11.08-.56,0-.28,0-.14v-.13s.09-.06.1,0Z" /><path class="cls-6" d="M73.37,45.13a14.19,14.19,0,0,1,1.56-.28c.53-.07,1-.09,1.59-.11a2.94,2.94,0,0,1,1.61.47,3.3,3.3,0,0,1,1.11,1.18l0,0a4.11,4.11,0,0,0-1.2-1,3,3,0,0,0-1.5-.39c-1,0-2.1.07-3.15.14Z" /></g></svg>