<svg xmlns="http://www.w3.org/2000/svg" viewBox="0 0 103.18 103.18" width="103.18" height="103.18" preserveAspectRatio="none"><defs><style>.cls-1{fill:#62af35;}.cls-2{fill:#fff;}.cls-3{fill:#231f20;}.cls-4{fill:#2b7703;}</style></defs><g id="openmouth"><path class="cls-1" d="M22.16,43.4l3.26-25.86s-2.8.09-5.63-3.15c0,0,1.64,6.71-7.2,2.63,0,0-3.62,24,4.76,36.86,0,0,7.56-.18,8.18.44C32.94,48.41,22.16,43.4,22.16,43.4Z" /><circle class="cls-1" cx="50.63" cy="23.64" r="10.7" /><circle class="cls-2" cx="50.63" cy="23.64" r="9.25" /><circle class="cls-3" cx="44.33" cy="17.63" r="2.45" /><path class="cls-1" d="M26.78,46.28s-1,7.66-7,7.24a34.78,34.78,0,0,1,11.74,8.61C36.93,68.22,26.78,46.28,26.78,46.28Z" /><path class="cls-1" d="M62.55,71.71C58.81,68.42,73.76,42.64,75,50.86c2.31,14.92,4.4,18.2-14.44,26.38-2.93,1.27-7-.17-7.79-.11C47.83,77.5,62.55,71.71,62.55,71.71Z" /><path class="cls-1" d="M35.71,21c2.64.52,4.52,1.38,12.35,5.29,8.27,4.13,7.37,7.7,7.37,7.7,2.6,26.52,5.38,31.57,8.39,34.58,0-.09-1.67,2.55.79,1.74-.22,2.2.19,3.14-.45,5.2a11.63,11.63,0,0,1-4.36,1.79c-18.33,3.61-38.06-18.9-38.06-18.9S18.41,55.88,17.17,53a4.37,4.37,0,0,0,4-4c.09-.6-1.39-8.64-1.39-8.64C28.59,35.19,33.4,20.56,35.71,21Z" /><path class="cls-1" d="M56,77.67s.74.62-.1.88-26.06,3.32-26,2.9c0-1.09,6-1.09,2-1.67-1.57-.24-4.13-.47-3.37-1.1a16.51,16.51,0,0,1,3-.69,15.65,15.65,0,0,1-2.89-1.44c-.6-.45,14.09.74,21.69.58-.59-.2-1.33-.4-2.18-.62a18.23,18.23,0,0,0,6-1.8A14.91,14.91,0,0,1,56,77.67Z" /><path class="cls-1" d="M17.35,53.88c3.59-.47,9.86,2,9.86,2,10.54,0,22.35,12.81,26.89,18.87a18.23,18.23,0,0,1-6,1.8C41.57,74.8,28,72.05,20.45,63.2,17.24,59.45,13.48,54.38,17.35,53.88Z" /><path class="cls-1" d="M59.8,77.31S72.65,76.07,78,76c2,0,1.64-.51.41-.81C77.7,75,77.29,75,77,74.87c-.65-.25-.38-.56,0-.58a10.28,10.28,0,0,0,2.19-.09c.28-.1-1.41-.57-1.94-.63h0a4.4,4.4,0,0,0,1.09-.31c1.68-1-1.4-.14-3.92.13-1.49.16-10,2.2-12.71,2.48C56.24,76.46,59.8,77.31,59.8,77.31Z" /><path class="cls-1" d="M26.68,63.05s8.56,6.92,7.39,8.58a22,22,0,0,1-4.7,2.83l-3.43.66s5.06-2.64,4.71-4.19S26.68,63.05,26.68,63.05Z" /><path class="cls-1" d="M24.2,75.26s1-.54-.78-1.94a8.94,8.94,0,0,0,5.63.8s-1.84.57.13,1.23Z" /><circle class="cls-1" cx="27.33" cy="28.85" r="11.48" /><circle class="cls-2" cx="27.33" cy="28.85" r="9.92" /><circle class="cls-3" cx="21.43" cy="22.37" r="2.63" /><path class="cls-4" d="M30.67,70.7A13.61,13.61,0,0,0,33.87,72v0A2.78,2.78,0,0,1,33,72a5.28,5.28,0,0,1-.87-.22,5.86,5.86,0,0,1-.78-.42,2.67,2.67,0,0,1-.65-.65Z" /><path class="cls-4" d="M56,77.71a48.2,48.2,0,0,1-9.79-6.26c-1.48-1.26-2.94-2.54-4.32-3.9s-2.71-2.75-4.14-4a45.38,45.38,0,0,0-9.43-6.45A31.8,31.8,0,0,0,23,54.93a22.06,22.06,0,0,0-5.64-1v-.09a21.65,21.65,0,0,1,5.72.87,33.52,33.52,0,0,1,5.4,2,44.45,44.45,0,0,1,9.63,6.37c1.46,1.25,2.84,2.61,4.28,3.89s2.9,2.52,4.4,3.74A112.81,112.81,0,0,0,56,77.63Z" /><path class="cls-4" d="M61.81,65.94a9.93,9.93,0,0,1,2,2.75,8.3,8.3,0,0,1,.91,3.39,5.19,5.19,0,0,1-1.25,3.34,6.59,6.59,0,0,1-1.34,1.14,11.62,11.62,0,0,1-1.57.71l0,0a7.5,7.5,0,0,0,2.62-2,5,5,0,0,0,1.06-3.1,8.45,8.45,0,0,0-.77-3.23A13,13,0,0,0,61.77,66Z" /><path class="cls-4" d="M72.88,55.51,72,58.42c-.31,1-.62,1.94-.89,2.91-.14.48-.28,1-.39,1.44a14,14,0,0,1-.45,1.51c-.35,1-.72,1.93-1.16,2.86a36.32,36.32,0,0,1-3,5.36,12.11,12.11,0,0,1-4.44,4.21l0,0a13.15,13.15,0,0,0,4.14-4.38,40.14,40.14,0,0,0,2.9-5.36c.42-.92.82-1.86,1.17-2.81s.56-2,.89-2.92c.63-1.93,1.38-3.83,2.15-5.71Z" /><path class="cls-4" d="M21.43,59.77a19.29,19.29,0,0,1,8.46,2.39A36.22,36.22,0,0,1,37,67.39c2.23,1.9,4.41,3.85,6.68,5.7,1.11,1,2.23,1.88,3.38,2.78a30.73,30.73,0,0,0,3.55,2.56l0,0a28,28,0,0,1-3.69-2.38c-1.19-.87-2.35-1.77-3.49-2.68-2.29-1.84-4.52-3.73-6.74-5.65a37.73,37.73,0,0,0-7-5.29,20.16,20.16,0,0,0-8.29-2.66Z" /><path class="cls-4" d="M37.45,34.36a8.35,8.35,0,0,1-.85,2.09,11.53,11.53,0,0,1-1.4,1.81,9.62,9.62,0,0,1-4,2.35,10.76,10.76,0,0,1-2.31.3,9.2,9.2,0,0,1-2.29-.16c-.75-.13-1.47-.39-2.19-.59s-1.37-.62-2-1l0-.07,2.09.67c.72.13,1.43.33,2.15.39A12,12,0,0,0,31,39.89a10,10,0,0,0,6.37-5.56Z" /></g></svg>