<svg xmlns="http://www.w3.org/2000/svg" viewBox="0 0 103.18 103.18" width="103.18" height="103.18" preserveAspectRatio="none"><defs><style>
      .cls-1{fill:#76bbd3;}.cls-2{fill:#048204;}.cls-3{fill:#62af35;}.cls-4{fill:#518e29;}.cls-5{fill:#054905;}.cls-6{fill:#2b7703;}
    </style></defs><g id="Layer_13" data-name="Layer 13"><path class="cls-1" d="M94.21,78.27c0,4.85-19.08,8.78-42.62,8.78a115.89,115.89,0,0,1-16-.63l2.85-6.5-13.26,4.9C17.27,83.23,9,79.74,9,77.27c0-4.85,19.08-7.78,42.62-7.78S94.21,73.43,94.21,78.27Z" /><path class="cls-2" d="M94.21,75.27c0,4.85-19.08,8.78-42.62,8.78-7.4,0-9.89,0-16-.64l2.85-5.49-13.26,4.9C17.27,81.23,9,77.74,9,75.27c0-4.85,19.08-8.78,42.62-8.78S94.21,70.42,94.21,75.27Z" /><path class="cls-1" d="M60.25,86.56c-.7.21-7.45,3.84,3.71,4.07,0,0,11.85-1.69,1.39-4.42Z" /><path class="cls-3" d="M62.94,46.23c1.43-.48,13.58.05,16.29,1.22,1.9.82,4.36,2.25,5.12,3.71l-1.29.78a10.59,10.59,0,0,0-4.78-2c-2.88-.44-10.64-1-14.18-.52a4.61,4.61,0,0,0-.92.22C60.79,50.53,62.94,46.23,62.94,46.23Z" /><circle class="cls-3" cx="36.46" cy="26.5" r="10.09" /><circle class="cls-4" cx="36.46" cy="26.5" r="8.72" /><path class="cls-5" d="M30.8,25.38s12.61,9.89,12-2.41c0,0,2.6,7-2.51,7.76S31.27,25.65,30.8,25.38Z" /><path class="cls-3" d="M44.88,43.19S61.48,37.52,69.48,31c0,0-2.09,30.09-13.59,41.2C50.35,77.51,44.88,43.19,44.88,43.19Z" /><path class="cls-3" d="M60.21,82.26a12.28,12.28,0,0,0-11-4.92c-7.41.8-13.89-2.83-8.41-5.75,3.55-1.9,25,2.91,25.53,15.42.07,2-.49,2.39-.49,2.39-4.26.8-6.25-.09-6.25-.09C58.79,88.42,60.21,82.26,60.21,82.26Z" /><path class="cls-3" d="M23.27,75.88C21,73.65,25.7,64.12,22,68.21c-1.4,1.56-3.38,9-.49,9.39.87.11,3.91-1,5.27.54.47.53,1.62-.69,1.62-.69-.58,0-.5-.78-1.68-1.19A14.7,14.7,0,0,0,23.27,75.88Z" /><path class="cls-3" d="M59.59,69.52c-2.92-3.25-5.21-6.61-7.79-29.06a115.23,115.23,0,0,0-12.6-5.9c-6.05-2.41-7.24-1-8.15-.34a98.54,98.54,0,0,0-10.89,8.42c-15.72,14.72,1.2,28.55,1.2,28.55A38.34,38.34,0,0,0,50.61,77S57.09,75.05,59.59,69.52Z" /><path class="cls-3" d="M82.47,70.27c-.74-.83-15.11-2-22.29-2.14C65,66.5,72.07,63.32,76.6,56.48c5.46-8.22,2.53-7.31,2.53-7.31-12.64,0-22.27,9.81-24.49,14.52l-.48-.51a13.06,13.06,0,0,0,2.35,7.66c6.56,2.18,19.2,5.72,20.05,5.76,2,.11,2-.24,2-.63,0-1-5.16-1.7-1.39-1.87,1.68-.08,3.44-.06,3.13-.93-.11-.29-2.1-.7-2-1.06C78.54,70.67,83.51,71.45,82.47,70.27Z" /><path class="cls-3" d="M84.42,50.9s-1.69.26-3.71,3.45c0,0,3.23-1.7,5.37,2.94,0,0-.19-4.09,2.52-3.44Z" /><path class="cls-3" d="M25.09,77s1.29.76-1.82,1.61a19.8,19.8,0,0,1,8.31.61s-2.95-2.07.11-2.22h-6.6Z" /><path class="cls-6" d="M61.49,64.76c.51-.62,1-1.36,1.51-2s1.09-1.3,1.66-1.93a34.08,34.08,0,0,1,3.75-3.45,28.07,28.07,0,0,1,4.3-2.76,22,22,0,0,1,4.75-1.8l0,.05a28.76,28.76,0,0,0-4.6,2.07,31.81,31.81,0,0,0-4.18,2.81,39.93,39.93,0,0,0-3.78,3.34c-1.21,1.18-2.26,2.48-3.43,3.73Z" /><circle class="cls-3" cx="22.02" cy="30.35" r="11.74" /><circle class="cls-4" cx="22.02" cy="30.35" r="10.15" /><path class="cls-5" d="M12.07,28.41s19.24,12.42,18.32-3c0,0,4,8.73-3.83,9.73S12.79,28.75,12.07,28.41Z" /><path class="cls-6" d="M69.45,31a101.91,101.91,0,0,1-10.09,6.09A104,104,0,0,1,48.54,42,78.38,78.38,0,0,1,37.2,45.49,65.71,65.71,0,0,1,25.44,47l0-.11c3.89-.69,7.75-1.41,11.55-2.4s7.58-2,11.29-3.3a102.16,102.16,0,0,0,10.86-4.56c1.77-.86,3.52-1.76,5.24-2.72.86-.48,1.71-1,2.56-1.47l1.26-.77.63-.39a2.85,2.85,0,0,1,.7-.36Z" /><path class="cls-6" d="M67.21,46s.08,0,.06,0h0v.08l0,.12,0,.24-.08.49-.16,1-.32,1.94c-.22,1.29-.46,2.58-.73,3.86-.54,2.56-1.17,5.11-2,7.63A37.16,37.16,0,0,1,61,68.67c-1.32,2.27-2.94,4.58-5.33,5.82l-.06-.09a18.74,18.74,0,0,0,4.48-6.21,65.3,65.3,0,0,0,3.05-7.13c.86-2.45,1.59-5,2.23-7.49.33-1.26.64-2.53.93-3.8l.42-1.91.2-1,.11-.48,0-.24,0-.12,0-.06v0h0s.08-.06.09,0Z" /><path class="cls-6" d="M74.17,49.66a15.28,15.28,0,0,1,3-.43c.26,0,.52,0,.78,0a2,2,0,0,1,.44.08,1.89,1.89,0,0,1,.36.23c.43.26.81.58,1.23.88v0a8.17,8.17,0,0,1-1.35-.69c-.4-.34-.95-.24-1.44-.26-1,0-2,.1-3,.2Z" /></g></svg>