<svg xmlns="http://www.w3.org/2000/svg" viewBox="0 0 103.18 103.18" width="103.18" height="103.18" preserveAspectRatio="none"><defs><style>.cls-1{fill:#62af35;}.cls-2{fill:#fff;}.cls-3{fill:#231f20;}.cls-4{fill:#2b7703;}</style></defs><g id="frogs"><circle class="cls-1" cx="52.55" cy="23.64" r="10.7" /><circle class="cls-2" cx="52.55" cy="23.64" r="9.25" /><circle class="cls-3" cx="57.65" cy="18.18" r="2.45" /><path class="cls-1" d="M76.39,46.29s2.51-.3,8.54-.72c0,0-7.88,10.48-13.29,16.57S76.39,46.29,76.39,46.29Z" /><path class="cls-1" d="M40.62,71.71c3.74-3.28-11.21-29.06-12.48-20.85-2.31,14.93-4.4,18.21,14.44,26.38,2.93,1.28,7-.17,7.79-.11C55.34,77.51,40.62,71.71,40.62,71.71Z" /><path class="cls-1" d="M76,55.85s6.27-2.43,9.86-2c3.86.49.11,5.57-3.1,9.32C74.16,73.21,58,75.42,52.88,77.14c7.6.16,22.29-1,21.69-.58A16.34,16.34,0,0,1,71.67,78a16.59,16.59,0,0,1,3,.69c.76.62-1.8.86-3.37,1.09-3.94.59,2,.59,2,1.68,0,.41-25.33-2.69-26-2.91s-.1-.88-.1-.88C47.8,75.61,62.86,55.85,76,55.85Z" /><path class="cls-1" d="M68.43,28.31c-1-.61-7.17-5.09-13.32-2-8.26,4.15-7.37,7.7-7.37,7.7-2.6,26.52-5.38,31.57-8.39,34.58-.05-.1,1.67,2.55-.79,1.74.22,2.2-.19,3.14.45,5.2a11.87,11.87,0,0,0,4.36,1.79C61.7,80.92,76,55.85,76,55.85s4-8.33,4.23-9.92C80.81,41.09,70.75,29.67,68.43,28.31Z" /><path class="cls-1" d="M43.37,77.32S30.52,76.08,25.14,76c-2,0-1.64-.51-.41-.82.74-.18,1.15-.23,1.41-.33.65-.25.38-.56,0-.58a10.28,10.28,0,0,1-2.19-.09c-.28-.1,1.41-.57,1.94-.63h0a4.4,4.4,0,0,1-1.09-.31c-1.69-1,1.4-.14,3.92.13,1.49.15,10,2.19,12.71,2.48C46.93,76.46,43.37,77.32,43.37,77.32Z" /><path class="cls-1" d="M76.49,63.06S67.93,70,69.1,71.64a22.18,22.18,0,0,0,4.7,2.83l3.43.65s-5.06-2.63-4.71-4.19S76.49,63.06,76.49,63.06Z" /><path class="cls-1" d="M79,75.26s-1-.54.78-1.94a8.9,8.9,0,0,1-5.63.81s1.84.56-.13,1.23Z" /><path class="cls-4" d="M75.43,48.37c-.09-.17.07-.29.13-.39,2.27-2.45,6.27-2.3,9.36-2.46v.1a39.38,39.38,0,0,0-4.86,1.11c-1.48.62-3.23,1-4.64,1.64Z" /><path class="cls-4" d="M72.53,70.73A8.79,8.79,0,0,1,69.31,72a6.32,6.32,0,0,1,3.22-1.24Z" /><path class="cls-4" d="M47.15,77.64c4.25-3.38,8.64-6.47,13-9.64,5.31-4.37,11.52-8.63,18.58-9.11V59C69.2,59.82,62.34,67.3,55,72.65a66.51,66.51,0,0,1-7.84,5Z" /><path class="cls-4" d="M51.38,72.39C57.63,64.59,66.8,59.52,76,55.83l0,0C67.07,60.05,58,65.23,51.38,72.39Z" /><path class="cls-4" d="M41.41,66c-2.41,4.12-3.5,8.32,1.18,11.25l0,0c-5.22-2.4-4.31-7.65-1.16-11.3Z" /><path class="cls-4" d="M30.34,55.49c2,3.57,2.87,7.57,4.57,11.28,1.73,3.55,3.42,7.5,6.68,9.9l0,0c-3.49-2.18-5.33-6.17-7.11-9.74a33.61,33.61,0,0,1-2-5.75c-.57-1.92-1.5-3.91-2.08-5.73Z" /><circle class="cls-1" cx="75.85" cy="28.85" r="11.48" /><circle class="cls-2" cx="75.85" cy="28.85" r="9.92" /><circle class="cls-3" cx="81.75" cy="23" r="2.63" /></g></svg>