<svg xmlns="http://www.w3.org/2000/svg" viewBox="0 0 103.18 103.18" width="103.18" height="103.18" preserveAspectRatio="none"><defs><style>.cls-1{fill:#76bbd3;}.cls-2{fill:#048204;}</style></defs><g id="openmouth"><path class="cls-1" d="M94.21,81.46c0,4.85-19.08,8.78-42.62,8.78a186.08,186.08,0,0,1-20.43-1.07l-9.3-1.41c-7.95-1.6-11-4.23-12.89-6.3l19.78-1.55c.75-.41-15.36-3.18-15.36-3.18,7.28-2.69,22.16-4,38.2-4C75.13,72.69,94.21,76.62,94.21,81.46Z" /><path class="cls-2" d="M94.21,79.46c0,4.85-19.08,8.78-42.62,8.78a186.08,186.08,0,0,1-20.43-1.07l-9.3-1.42C13.91,84.16,9,81.93,9,79.46l19.78-1.55c.75-.41-15.36-2.18-15.36-2.18,7.28-2.69,22.16-5,38.2-5C75.13,70.68,94.21,74.61,94.21,79.46Z" /></g></svg>