<svg xmlns="http://www.w3.org/2000/svg" viewBox="0 0 103.18 103.18" width="103.18" height="103.18" preserveAspectRatio="none"><defs><style>.cls-1{fill:#a86d42;}.cls-2{fill:#70391c;}.cls-3{fill:#5db3d1;}.cls-4{fill:#7acfe5;}.cls-5{fill:#ccf1ff;}.cls-6{fill:#a5def2;}</style></defs><g id="corner"><rect class="cls-1" width="103.18" height="103.18" /><path class="cls-2" d="M103.18,7.57A149.22,149.22,0,0,1,73.78,2.1C63.39-1,52.34,1.37,51.93,1.58S43,4,42.46,4s-10.4,1.15-19-.21S11.56.12,7.4,3.24,2.51,9,2.09,11.05a14.31,14.31,0,0,0,1.15,8.53c1.45,3.33,2.84,10.69,2.81,16.13,0,5.92-.77,11.37-2.27,19.61C2.16,64.28.89,71.6,2.06,75.55s1.8,10.09,3.67,14.78,1.84,12.85,1.84,12.85h5.07l90.54-91.72Z" /><path class="cls-3" d="M10.2,103.18A61.93,61.93,0,0,0,9.14,92C7.77,84.75,4.46,75.25,5.76,67.05c2.62-16.59,6.15-37.78,1.07-46.82C2.45,12.42,9,3.89,16.31,6.05c9,2.66,15.05,2.73,25.42,1C47.49,6.06,60.07.27,74,4.29,97,11,103.18,10.2,103.18,10.2v93Z" /><path class="cls-4" d="M9.15,103.18a50.72,50.72,0,0,0-1.5-10.12C5.83,85.87,1.57,76.21,2.92,67.68c2.62-16.6,6.61-38.2,1.79-47.39-5.77-11,3-18.55,10.45-17,9,1.89,20.65,2.6,28.55,1.37,5.77-.91,16.7-6.36,30.4-1.65,19.71,6.78,29.07,6.11,29.07,6.11v94Z" /><path class="cls-3" d="M10.2,103.18A61.93,61.93,0,0,0,9.14,92C7.77,84.75,4.46,75.25,5.76,67.05c2.62-16.59,6.15-37.78,1.07-46.82C2.45,12.42,9,3.89,16.31,6.05c9,2.66,15.05,2.73,25.42,1C47.49,6.06,60.07.27,74,4.29,97,11,103.18,10.2,103.18,10.2v93Z" /><path class="cls-5" d="M9.15,103.18a50.72,50.72,0,0,0-1.5-10.12C5.83,85.87,1.57,76.21,2.92,67.68c2.62-16.6,6.61-38.2,1.79-47.39-5.77-11,3-18.55,10.45-17,9,1.89,20.65,2.6,28.55,1.37,5.77-.91,16.7-6.36,30.4-1.65,19.71,6.78,29.07,6.11,29.07,6.11v94Z" /><path class="cls-6" d="M10.26,103.18A65.66,65.66,0,0,0,9.14,92C7.77,84.75,4.46,75.25,5.76,67.05c2.62-16.59,6.15-37.78,1.07-46.82C2.45,12.42,9,3.89,16.31,6.05c9,2.66,15.05,2.73,25.42,1C47.49,6.06,60.07.27,74,4.29,97,11,103.18,10.2,103.18,10.2v93Z" /></g></svg>