<svg id="Layer_1" data-name="Layer 1" xmlns="http://www.w3.org/2000/svg" viewBox="0 0 284 209" width="284" height="209" preserveAspectRatio="none"><defs><style>.main{filter:url(#Shadow);fill:#ffc640};.cls-1{fill:#ffc640;}.cls-2{fill:#fff;}</style><clipPath id="clip-path"><polygon class="cls-1" points="-0.001 222.539 284.415 230.539 282.415 1.401 -0.001 1.401 -0.001 222.539" /></clipPath></defs><filter filterUnits="objectBoundingBox" id="Shadow"><feGaussianBlur in="SourceAlpha" result="blur" stdDeviation="4" /><feOffset dx="0" dy="0" in="blur" result="offsetBlurredAlpha" /><feComponentTransfer in="offsetBlurredAlpha" result="offsetBlurredAlphaLigher"><feFuncA type="linear" slope="0.8" /></feComponentTransfer><feMerge><feMergeNode in="offsetBlurredAlphaLigher" /><feMergeNode in="SourceGraphic" /></feMerge></filter><g class="main"><polygon class="cls-1" points="129.6 174.33 108.93 172.85 139.84 207.56 179.51 177 157.43 175.85 159.4 127.09 129.6 125.86 129.6 174.33" /><polygon class="cls-1" points="31.49 4.99 131.25 10.75 253.62 1.44 247.19 75.71 261.16 162.39 129.92 150.64 22.84 160.4 40.04 93.57 31.49 4.99" /><polygon class="cls-2" points="129.83 142.07 34.58 150.74 48.78 94.3 40.89 14.12 131.23 19.33 243.73 10.77 238.08 76.06 250.46 152.87 129.83 142.07" /><polygon class="cls-2" points="142.26 199.72 120.58 180 135.57 180.46 134.52 131.13 153.07 130.99 152.06 181.04 166.82 181.73 142.26 199.72" /></g></svg>