<svg id="Layer_1" data-name="Layer 1" xmlns="http://www.w3.org/2000/svg" viewBox="0 0 284 163" width="284" height="163" preserveAspectRatio="none"><defs><style><clipPath id="clip-path"><polygon class="cls-1" points="-0.001 222.539 284.415 230.539 282.415 1.401 -0.001 1.401 -0.001 222.539" /></clipPath>.main{filter:url(#Shadow);fill:#ffc640};.cls-1{fill:#ffc640;}.cls-2{fill:#fff;}</style></defs><filter filterUnits="objectBoundingBox" id="Shadow"><feGaussianBlur in="SourceAlpha" result="blur" stdDeviation="4" /><feOffset dx="0" dy="0" in="blur" result="offsetBlurredAlpha" /><feComponentTransfer in="offsetBlurredAlpha" result="offsetBlurredAlphaLigher"><feFuncA type="linear" slope="0.8" /></feComponentTransfer><feMerge><feMergeNode in="offsetBlurredAlphaLigher" /><feMergeNode in="SourceGraphic" /></feMerge></filter><g class="main"><polygon class="cls-1" points="35.11 71.3 36.59 50.63 1.88 81.53 32.44 121.2 33.6 99.13 82.35 101.09 83.58 71.3 35.11 71.3" /><polygon class="cls-1" points="52.44 4.57 152.2 10.34 274.58 1.02 268.15 75.29 282.12 161.97 150.87 150.22 43.8 159.98 60.99 93.16 52.44 4.57" /><polygon class="cls-2" points="150.79 141.65 55.53 150.33 69.73 93.88 61.85 13.7 152.18 18.92 264.69 10.36 259.04 75.64 271.41 152.45 150.79 141.65" /><polygon class="cls-2" points="9.73 83.95 29.45 62.27 28.98 77.27 78.31 76.22 78.45 94.76 28.41 93.76 27.71 108.52 9.73 83.95" /></g></svg>