<?xml version="1.0" encoding="utf-8"?>
<!-- Generator: Adobe Illustrator 24.0.0, SVG Export Plug-In . SVG Version: 6.00 Build 0)  -->
<svg version="1.1" xmlns="http://www.w3.org/2000/svg" xmlns:xlink="http://www.w3.org/1999/xlink" x="0px" y="0px"
	 viewBox="0 0 618 431" style="enable-background:new 0 0 618 431;" xml:space="preserve" width="618" height="431" preserveAspectRatio="none">
<style type="text/css">
	.st0{fill:#FCD353;}
	.st1{fill:none;}
	.st2{fill:#FFFFFF;}
	.st3{fill:#FCB100;}
	.st4{fill:url(#);}
	.st5{fill:#0057A7;}
	.st6{opacity:0.3;fill:#FFFFFF;}
	.st7{fill:#FCC441;}
	.st8{fill:#00B594;}
	.st9{fill:#ED002D;}
	.st10{fill:#178BFF;}
	.st11{fill:#FA7A2F;}
	.st12{fill:#FCEE21;}
	.st13{fill:#85D900;}
	.st14{fill:none;stroke:#FFFFFF;stroke-miterlimit:10;}
	.st15{fill:none;stroke:#ED002D;stroke-width:4.8633;stroke-linecap:round;stroke-miterlimit:10;}
	.st16{fill:none;stroke:#6600FF;stroke-width:4.8633;stroke-linecap:round;stroke-miterlimit:10;}
	.st17{fill:none;stroke:#178BFF;stroke-width:4.8633;stroke-miterlimit:10;}
	.st18{fill:none;stroke:#00B594;stroke-width:4.8633;stroke-miterlimit:10;}
	.st19{fill:none;stroke:#85D900;stroke-width:4.8633;stroke-miterlimit:10;}
	.st20{fill:none;stroke:#FCEE21;stroke-width:4.8633;stroke-miterlimit:10;}
	.st21{fill:none;stroke:#FA7A2F;stroke-width:4.8633;stroke-miterlimit:10;}
	.st22{fill:none;stroke:#6600FF;stroke-width:4.8633;stroke-miterlimit:10;}
	.st23{fill:none;stroke:#FF668C;stroke-width:0.7955;stroke-miterlimit:10;}
	.st24{fill:#0057A7;stroke:#FCC441;stroke-miterlimit:10;}
	.st25{opacity:0.3;fill:#3D5BC4;}
	.st26{opacity:0.3;fill:#99B0FF;}
	.st27{fill:#FA9D67;}
	.st28{fill:#280846;}
	.st29{fill:#E6E6E6;}
	.st30{fill:#C0DBB8;}
	.st31{fill:#519479;}
	.st32{fill:#FFD941;}
	.st33{fill:#FFC640;}
	.st34{clip-path:url(#SVGID_2_);}
	.st35{fill:#973C18;}
	.st36{fill:#002444;}
	.st37{fill:#412D2B;}
	.st38{fill:#716558;}
	.st39{fill:#F9A851;}
	.st40{fill:#8EC2B6;}
	.st41{fill:#FFFCEC;}
	.st42{fill:#D7722E;}
	.st43{fill:#C8DBD7;}
	.st44{fill:#1B75BB;}
	.st45{fill:#CCCCCC;}
	.st46{fill:#FAD796;}
	.st47{fill:#009DFF;}
	.st48{fill:#FF00EA;}
	.st49{fill:none;stroke:#ED002D;stroke-width:2;stroke-miterlimit:10;}
	.st50{fill:none;stroke:#ED002D;stroke-miterlimit:10;}
	.st51{fill:#F5FBFF;}
	.st52{fill:#FFCE41;}
	.st53{fill:#5CCC50;}
	.st54{fill:#00E5FF;}
	.st55{fill:#6600FF;}
	.st56{fill:none;stroke:#ED002D;stroke-width:2.6531;stroke-miterlimit:10;}
	.st57{fill:none;stroke:#ED002D;stroke-width:2.3294;stroke-miterlimit:10;}
	.st58{fill:none;stroke:#D1D3D4;stroke-width:2;stroke-miterlimit:10;}
	.st59{fill:#EDDE00;}
	.st60{fill:none;stroke:#ED002D;stroke-width:1.7502;stroke-miterlimit:10;}
	.st61{opacity:0.32;}
	.st62{fill:#FFAC47;}
	.st63{fill:#BACDFF;}
	.st64{fill:#FFDEF1;}
	.st65{fill:#FF61F2;}
	.st66{fill:#FFE4AD;}
	.st67{clip-path:url(#SVGID_4_);}
	.st68{fill:#6944A3;}
	.st69{clip-path:url(#SVGID_6_);}
	.st70{fill:#94C6FF;}
	.st71{fill:#E2E4E6;}
	.st72{fill:#7EA5B3;}
	.st73{fill:#8BD2D4;}
	.st74{fill:#FFD842;}
	.st75{fill:#2D2B6F;}
	.st76{fill:#00AEB9;}
	.st77{fill:#404041;}
	.st78{fill:#4B5461;}
	.st79{fill:#3D4093;}
	.st80{fill:#00313B;}
	.st81{fill:#C8DFE3;}
	.st82{opacity:0.3;fill:#A4DBDE;}
	.st83{fill:#1D1A4B;}
	.st84{fill:#FFF3CF;}
	.st85{fill:#FFD080;}
	.st86{fill:url(#SVGID_7_);}
	.st87{fill:url(#SVGID_8_);}
	.st88{fill:url(#SVGID_9_);}
	.st89{fill:url(#SVGID_10_);}
	.st90{fill:url(#SVGID_11_);}
	.st91{fill:url(#SVGID_12_);}
	.st92{fill:#FFF0F9;}
	.st93{fill:url(#SVGID_13_);}
	.st94{fill:url(#SVGID_14_);}
	.st95{fill:url(#SVGID_15_);}
	.st96{fill:url(#SVGID_16_);}
	.st97{fill:url(#SVGID_17_);}
	.st98{fill:url(#SVGID_18_);}
	.st99{fill:url(#SVGID_19_);}
	.st100{fill:url(#SVGID_20_);}
	.st101{fill:url(#SVGID_21_);}
	.st102{fill:#FFF9E8;}
	.st103{fill:#FFF7FC;}
	.st104{clip-path:url(#SVGID_23_);}
	.st105{fill:#C8352C;}
	.st106{fill:#6A121D;}
	.st107{fill:#D0D1D2;}
	.st108{fill:#677476;}
	.st109{fill:#485152;}
	.st110{fill:#D8D8EC;}
	.st111{fill:#AAA7D3;}
</style>
	<g>
		<polygon class="st2" points="313.1,214.3 311.2,213.6 311.2,213.6 311.2,213.6 312,214.6 312,214.6 313.1,214.3 		"/>
		<polygon class="st2" points="311.2,213.6 313.1,214.3 311.6,213.5 311.2,213.6 		"/>
		<polygon class="st2" points="311.2,213.6 311.2,213.6 311.2,213.5 311.2,213.5 311.2,213.6 311.2,213.6 		"/>
		<polygon class="st2" points="311.1,213.2 311,213.1 311.2,213.5 311.2,213.5 		"/>
		<polygon class="st2" points="311.2,213.4 311.2,213.3 311.1,213.2 311.2,213.5 		"/>
		<polygon class="st2" points="311.2,213.6 311.5,213.4 311.4,213.3 311.2,213.6 		"/>
		<polygon class="st2" points="311.6,213.5 311.6,213.4 311.2,213.6 		"/>
		<polygon class="st2" points="311.2,213.6 311.2,213.6 311.6,213.4 311.5,213.4 311.2,213.6 		"/>
		<polygon class="st2" points="311.2,213.6 311.4,213.3 311.4,213.3 311.3,213.4 		"/>
		<polygon class="st2" points="311.3,213.4 311.3,213.3 311.2,213.3 311.2,213.4 		"/>
		<polygon class="st2" points="311.4,213.3 311.3,213.3 311.3,213.4 		"/>
		<polygon class="st2" points="311.1,214.4 311,214.6 311.2,214.6 311.2,214.4 		"/>
		<polygon class="st2" points="311.2,214.4 311.2,214.6 311.5,214.6 311.4,214.5 		"/>
		<polygon class="st2" points="310.9,214.4 310.8,214.6 311,214.6 311.1,214.4 		"/>
		<polygon class="st2" points="311.4,214.5 311.5,214.6 311.7,214.6 311.7,214.5 		"/>
		<polygon class="st2" points="311.2,213.6 311.7,214.5 312,214.6 312,214.6 311.2,213.6 		"/>
		<polygon class="st2" points="311.7,214.6 312,214.6 311.7,214.5 		"/>
		<polygon class="st2" points="310.7,214.3 310.5,214.5 310.8,214.6 310.9,214.4 		"/>
		<polygon class="st2" points="311.2,213.6 311.2,213.6 311.2,213.6 		"/>
		<polygon class="st2" points="310.9,214.4 311.2,213.6 311.2,213.6 310.7,214.3 		"/>
		<polygon class="st2" points="310.2,214.2 309.7,214.5 309.9,214.5 310.3,214.2 		"/>
		<polygon class="st2" points="310.3,214.2 309.9,214.5 310.5,214.5 310.7,214.3 		"/>
		<polygon class="st2" points="310.5,214.1 310.2,214.2 310.3,214.2 		"/>
		<polygon class="st2" points="310.7,214.3 311.2,213.6 310.5,214.1 310.3,214.2 		"/>
		<polygon class="st2" points="313.7,214.7 313.6,214.6 313.5,214.6 		"/>
		<polygon class="st2" points="311.2,214.4 311.4,214.5 311.2,213.6 311.2,213.6 		"/>
		<polygon class="st2" points="311.2,213.6 311.1,214.4 311.2,214.4 311.2,213.6 		"/>
		<polygon class="st2" points="311.2,213.6 311.2,213.6 310.9,214.4 311.1,214.4 311.2,213.6 		"/>
		<polygon class="st2" points="313.8,214.6 313.4,214.4 313.6,214.6 		"/>
		<polygon class="st2" points="311.8,213 311.7,213 311.8,213 		"/>
		<polygon class="st2" points="312,214.6 313.5,214.6 313.1,214.3 		"/>
		<polygon class="st2" points="313.2,214.3 313.1,214.3 313.1,214.3 		"/>
		<polygon class="st2" points="311.7,214.5 311.2,213.6 311.4,214.5 		"/>
		<polygon class="st2" points="311.4,213.3 311.4,213.3 311.4,213.3 		"/>
		<polygon class="st2" points="312,214.6 312,214.6 312,214.6 		"/>
		<polygon class="st2" points="311.2,213.4 311.2,213.5 311.2,213.6 311.2,213.6 		"/>
		<polygon class="st2" points="311.2,213.6 311.3,213.4 311.2,213.4 311.2,213.6 		"/>
		<polygon class="st0" points="134.9,3.3 60.2,3.6 308.4,210.3 		"/>
		<polygon class="st3" points="310.3,211.8 199.5,3 134.9,3.3 308.4,210.3 		"/>
		<polygon class="st0" points="310.9,212.4 259.2,2.7 199.5,3 310.3,211.8 		"/>
		<polygon class="st3" points="311.2,212.6 311.2,2.5 259.2,2.7 310.9,212.4 		"/>
		<polygon class="st3" points="308.4,210.3 60.2,3.6 1.2,3.8 7.4,38.7 310.6,212.9 		"/>
		<polygon class="st0" points="311.5,212.8 366,2.2 311.2,2.5 311.2,212.6 		"/>
		<polygon class="st3" points="310.8,213.8 311.1,213.6 19.7,108.2 29.5,163.3 309.9,214.2 		"/>
		<polygon class="st0" points="309.9,214.2 29.5,163.3 32.7,181.6 28.9,213.3 309,214.5 		"/>
		<polygon class="st0" points="311.2,213.5 310.6,212.9 7.4,38.7 19.7,108.2 311.1,213.6 		"/>
		<polygon class="st3" points="312.1,213.3 605.5,97.7 611,38.1 312,213.2 		"/>
		<polygon class="st0" points="313.3,214.3 599.7,160.6 605.5,97.7 312.1,213.3 		"/>
		<polygon class="st3" points="313.4,214.4 313.8,214.6 594.7,215.8 599.7,160.6 313.3,214.3 		"/>
		<polygon class="st3" points="311.6,212.9 423.1,2 366,2.2 311.5,212.8 		"/>
		<polygon class="st0" points="311.8,213 312,213.2 611,38.1 614.3,1.1 562.1,1.4 311.8,213 		"/>
		<polygon class="st0" points="311.7,213 311.8,213 488.9,1.7 423.1,2 311.6,212.9 		"/>
		<polygon class="st3" points="562.1,1.4 488.9,1.7 311.8,213 		"/>
		<polygon class="st0" points="314.2,215 608.4,384 596.1,316.6 315.6,215.2 		"/>
		<polygon class="st0" points="312,214.6 312,214.6 492.5,429.9 572.2,429.9 314,214.9 		"/>
		<polygon class="st3" points="311.8,214.6 425.9,429.9 492.5,429.9 312,214.6 		"/>
		<polygon class="st0" points="311.5,214.7 364.6,429.9 425.9,429.9 311.8,214.6 		"/>
		<polygon class="st3" points="590.2,265.1 315.6,215.2 596.1,316.6 589,278.2 		"/>
		<polygon class="st3" points="314,214.9 572.2,429.9 616.8,429.9 608.4,384 314.2,215 		"/>
		<polygon class="st3" points="311.2,214.7 311.2,429.9 364.6,429.9 311.5,214.7 		"/>
		<polygon class="st0" points="315.6,215.2 590.2,265.1 594.7,215.8 313.8,214.6 		"/>
		<polygon class="st2" points="313.1,214.3 313.5,214.6 313.6,214.6 313.4,214.4 313.2,214.3 		"/>
		<polygon class="st0" points="311,214.8 255.3,429.9 311.2,429.9 311.2,214.7 		"/>
		<polygon class="st0" points="308.6,215.2 7.5,391.6 2.9,429.9 55.3,429.9 309.3,215.1 		"/>
		<polygon class="st0" points="22.2,268.9 14.8,330.5 306.1,215.7 		"/>
		<polygon class="st3" points="306.1,215.7 14.8,330.5 7.5,391.6 308.6,215.2 		"/>
		<polygon class="st3" points="310.6,214.8 197,429.9 255.3,429.9 311,214.8 		"/>
		<polygon class="st0" points="310.2,214.9 130,429.9 197,429.9 310.6,214.8 		"/>
		<polygon class="st3" points="309.3,215.1 55.3,429.9 130,429.9 310.2,214.9 		"/>
		<polygon class="st3" points="309,214.5 28.9,213.3 22.2,268.9 306.1,215.7 		"/>
		<polygon class="st2" points="311.1,213.2 310.9,212.4 310.3,211.8 311,213.1 		"/>
		<polygon class="st2" points="311.3,213.3 311.5,212.8 311.2,212.6 311.2,213.3 		"/>
		<polygon class="st2" points="311.2,213.6 311.2,213.6 311.2,213.6 310.8,213.8 310.5,214.1 		"/>
		<polygon class="st2" points="311.2,213.3 311.2,212.6 310.9,212.4 311.1,213.2 		"/>
		<polygon class="st2" points="311,213.1 310.6,212.9 311.2,213.5 311.2,213.5 		"/>
		<polygon class="st2" points="311.2,213.6 311.2,213.5 311.2,213.5 311.2,213.6 		"/>
		<polygon class="st2" points="311.2,213.6 311.1,213.6 310.8,213.8 311.2,213.6 		"/>
		<polygon class="st2" points="313.6,214.6 313.7,214.7 314.2,215 315.6,215.2 313.8,214.6 		"/>
		<polygon class="st2" points="310.3,211.8 308.4,210.3 310.6,212.9 311,213.1 		"/>
		<polygon class="st2" points="311.6,213.5 312.1,213.3 312,213.2 311.6,213.4 		"/>
		<polygon class="st2" points="313.1,214.3 313.2,214.3 313.3,214.3 312.1,213.3 311.6,213.5 		"/>
		<polygon class="st2" points="313.4,214.4 313.3,214.3 313.2,214.3 		"/>
		<polygon class="st2" points="311.6,213.4 312,213.2 311.8,213 311.5,213.4 		"/>
		<polygon class="st2" points="311.7,213 311.6,212.9 311.4,213.3 		"/>
		<polygon class="st2" points="311.4,213.3 311.4,213.3 311.6,212.9 311.5,212.8 311.3,213.3 		"/>
		<polygon class="st2" points="311.4,213.3 311.5,213.4 311.8,213 311.7,213 311.4,213.3 		"/>
		<polygon class="st2" points="311.2,213.5 311.1,213.6 311.2,213.6 		"/>
		<polygon class="st2" points="312,214.6 311.7,214.6 311.8,214.6 312,214.6 312,214.6 		"/>
		<polygon class="st2" points="311.5,214.6 311.5,214.7 311.8,214.6 311.7,214.6 		"/>
		<polygon class="st2" points="310.5,214.1 310.8,213.8 309.9,214.2 310.2,214.2 		"/>
		<polygon class="st2" points="312,214.6 312,214.6 312,214.6 		"/>
		<polygon class="st2" points="314,214.9 314.2,215 313.7,214.7 		"/>
		<polygon class="st2" points="313.5,214.6 312,214.6 312,214.6 314,214.9 313.7,214.7 		"/>
		<polygon class="st2" points="312,214.6 312,214.6 312,214.6 312,214.6 		"/>
		<polygon class="st2" points="311.2,214.6 311.2,214.7 311.5,214.7 311.5,214.6 		"/>
		<polygon class="st2" points="309,214.5 306.1,215.7 308.6,215.2 309.7,214.5 		"/>
		<polygon class="st2" points="309.7,214.5 308.6,215.2 309.3,215.1 309.9,214.5 		"/>
		<polygon class="st2" points="310.2,214.2 309.9,214.2 309,214.5 309.7,214.5 		"/>
		<polygon class="st2" points="311,214.6 311,214.8 311.2,214.7 311.2,214.6 		"/>
		<polygon class="st2" points="310.8,214.6 310.6,214.8 311,214.8 311,214.6 		"/>
		<polygon class="st2" points="310.5,214.5 310.2,214.9 310.6,214.8 310.8,214.6 		"/>
		<polygon class="st2" points="309.9,214.5 309.3,215.1 310.2,214.9 310.5,214.5 		"/>
	</g>
	<path class="st2" d="M2.9,429.9l29.8-248.3L1.2,3.8l613.2-2.7l-22.1,264.9l24.6,163.8H2.9z M599.7,414.7l-21.3-146.5l20.6-251.7
		L18,19l28.6,161.2L18.4,414.7H599.7z"/>

		<ellipse transform="matrix(9.250382e-02 -0.9957 0.9957 9.250382e-02 14.8095 551.0727)" class="st2" cx="309.7" cy="267.4" rx="126.1" ry="166.3"/>

		<ellipse transform="matrix(0.9956 -9.328350e-02 9.328350e-02 0.9956 -25.7329 30.3087)" class="st57" cx="311.3" cy="290.4" rx="70.8" ry="47.1"/>
	<ellipse transform="matrix(0.9608 -0.2774 0.2774 0.9608 -68.535 97.8581)" class="st7" cx="311.6" cy="291.2" rx="67" ry="50.8"/>
	<g>
		<path class="st10" d="M540.5,95.1l-13.3-1.7l5.5-43.5l13.3,1.7L540.5,95.1z M537.6,118l-13.3-1.7l1.5-11.7l13.3,1.7L537.6,118z"/>
		<path class="st5" d="M541.1,90.4l-13.3-1.7l5.5-43.5l13.3,1.7L541.1,90.4z M538.2,113.3l-13.3-1.7l1.5-11.7l13.3,1.7L538.2,113.3z
			"/>
		<g>
			<path class="st10" d="M123,74h-9.3l-1.3-8.3c-1.2-1.2-2.8-2.2-4.6-2.9c-1.9-0.7-4.1-1.1-6.6-1.1c-5.4,0-9.6,2-12.5,5.9
				c-2.9,3.9-4.4,9.1-4.4,15.4v2.2c0,6.3,1.5,11.5,4.4,15.4s7,5.9,12.3,5.9c2.4,0,4.7-0.4,6.7-1.1c2-0.7,3.6-1.7,4.7-2.9l1.3-8.3
				h9.3v12.3c-2.5,2.9-5.7,5.2-9.6,6.9c-3.9,1.7-8.2,2.6-13,2.6c-8.3,0-15.2-2.9-20.5-8.7c-5.3-5.8-8-13.2-8-22.2v-2.1
				c0-9,2.6-16.4,7.9-22.2c5.3-5.8,12.1-8.7,20.5-8.7c4.8,0,9.2,0.9,13,2.6c3.9,1.8,7.1,4.1,9.6,6.9V74z"/>
			<path class="st5" d="M122.4,70.1h-9.3l-1.3-8.3c-1.2-1.2-2.8-2.2-4.6-2.9c-1.9-0.7-4.1-1.1-6.6-1.1c-5.4,0-9.6,2-12.5,5.9
				c-2.9,3.9-4.4,9.1-4.4,15.4v2.2c0,6.3,1.5,11.5,4.4,15.4c2.9,4,7,5.9,12.3,5.9c2.4,0,4.7-0.4,6.7-1.1c2-0.7,3.6-1.7,4.7-2.9
				l1.3-8.3h9.3v12.3c-2.5,2.9-5.7,5.2-9.6,6.9c-3.9,1.7-8.2,2.6-13,2.6c-8.3,0-15.2-2.9-20.5-8.7c-5.3-5.8-8-13.2-8-22.2v-2.1
				c0-9,2.6-16.4,7.9-22.2c5.3-5.8,12.1-8.7,20.5-8.7c4.8,0,9.2,0.9,13,2.6c3.9,1.8,7.1,4.1,9.6,6.9V70.1z"/>
			<path class="st10" d="M243.8,48v7.4l-6.6,1.3v52.6H225L200.2,68l-0.3,0v32.6l6.6,1.3v7.4h-25.4v-7.4l6.5-1.3v-44l-6.5-1.3V48h6.5
				H200l24.7,41.2l0.3,0V56.7l-6.6-1.3V48h18.8H243.8z"/>
			<path class="st10" d="M328.5,51.9c6.8,0,12.1,1.6,16,4.7c3.9,3.1,5.8,7.4,5.8,12.9c0,3-0.8,5.6-2.4,7.9c-1.6,2.2-4,4-7.1,5.4
				c3.5,1,6.1,2.8,7.6,5.2c1.5,2.4,2.3,5.4,2.3,9v3c0,1.3,0.3,2.3,0.8,3.1c0.5,0.7,1.4,1.2,2.6,1.3l1.5,0.2v7.2h-6.2
				c-3.9,0-6.7-1.1-8.3-3.2c-1.6-2.1-2.4-4.8-2.4-8.2V97c0-2.9-0.8-5.2-2.3-6.9c-1.6-1.7-3.7-2.5-6.6-2.6h-9.8v15.8l6.4,1.2v7.2
				h-24.8v-7.2l6.4-1.2v-43l-6.4-1.2v-7.2h6.4H328.5z M319.9,78.3h8.3c3.3,0,5.9-0.7,7.5-2.1c1.7-1.4,2.5-3.5,2.5-6.2
				c0-2.7-0.8-4.8-2.5-6.4c-1.7-1.6-4.1-2.4-7.3-2.4h-8.5V78.3z"/>
			<path class="st10" d="M360.9,103.2l4-0.6L382,53.7h11.6l17,48.9l4,0.6v6.8h-19.2v-6.8l3.9-0.7l-2.5-7.7h-18.2l-2.5,7.7l3.9,0.7
				v6.8h-19.2V103.2z M381.3,86.5h12.9l-6.3-19.8h-0.2L381.3,86.5z"/>
			<path class="st10" d="M465.2,48v16H456l-0.5-6.7h-11v42.3l6.4,1.2v7.2H426v-7.2l6.4-1.2V57.3h-11l-0.5,6.7h-9.2V48H465.2z"/>
			<path class="st10" d="M515.9,72.1h-9.1l-1.6-8.3c-1.1-0.7-2.6-1.3-4.6-1.8c-2-0.5-4.2-0.8-6.5-0.8c-3.3,0-5.9,0.7-7.7,2.1
				c-1.8,1.4-2.7,3.2-2.7,5.4c0,2.1,1,3.7,2.9,5.1c1.9,1.3,5.2,2.7,9.9,4.2c6.7,1.9,11.8,4.3,15.3,7.4s5.2,7.1,5.2,12.1
				c0,5.2-2.1,9.3-6.2,12.3c-4.1,3-9.5,4.5-16.3,4.5c-4.8,0-9.2-0.8-13-2.3s-7.1-3.6-9.7-6.3V93h9.4l1.3,8.6c1.2,1,2.9,1.8,5,2.5
				c2.1,0.7,4.4,1,7,1c3.3,0,5.9-0.7,7.6-2c1.7-1.4,2.6-3.2,2.6-5.5c0-2.3-0.8-4.2-2.5-5.6c-1.7-1.4-4.6-2.8-8.7-4
				c-7.2-2.1-12.7-4.6-16.4-7.4c-3.7-2.9-5.5-6.8-5.5-11.8c0-4.9,2.1-9,6.3-12.1c4.2-3.1,9.4-4.7,15.7-4.8c4.7,0,8.9,0.7,12.8,2.1
				s7.1,3.3,9.7,5.7V72.1z"/>
			<path class="st10" d="M178.1,83.4c0,8.3-2.4,15.2-7.2,20.7c-4.8,5.4-11,8.2-18.7,8.2c-7.7,0-13.9-2.7-18.6-8.2
				s-7.1-12.3-7.1-20.7v-0.9c0-8.3,2.4-15.2,7.1-20.6c4.7-5.5,10.9-8.2,18.6-8.2c7.7,0,14,2.7,18.7,8.2c4.8,5.5,7.2,12.3,7.2,20.6
				V83.4z M166.8,82.5c0-5.9-1.2-10.7-3.7-14.3c-2.4-3.7-6.1-5.5-10.9-5.5c-4.8,0-8.4,1.8-10.7,5.5c-2.4,3.6-3.5,8.4-3.5,14.4v0.9
				c0,6,1.2,10.8,3.6,14.5s6,5.5,10.7,5.5c4.8,0,8.4-1.8,10.9-5.5s3.6-8.5,3.6-14.5V82.5z"/>
			<path class="st10" d="M294.8,105.1c-1.9,1.9-4.6,3.5-8.2,5c-3.6,1.5-8.2,2.2-13.7,2.2c-7.8,0-14.2-2.6-19.1-7.8
				c-4.9-5.2-7.3-12-7.3-20.4v-2c0-8.7,2.4-15.7,7.2-21.1c4.8-5.4,11.1-8.1,18.9-8.1c4.5,0,8.7,0.7,12.4,2.2
				c3.7,1.4,6.9,3.4,9.4,5.9v11.6h-8.6l-1.6-7.7c-1.1-0.9-2.5-1.6-4.2-2.2c-1.7-0.5-3.7-0.8-6-0.8c-5.1,0-9,1.9-11.8,5.6
				c-2.8,3.7-4.2,8.6-4.2,14.7v2.1c0,5.9,1.4,10.6,4.1,14.1c2.8,3.5,6.7,5.3,11.9,5.3c2.3,0,4.2-0.2,5.7-0.6
				c1.4-0.4,2.6-0.9,3.4-1.4v-9.8L275,91v-8.1h19.9V105.1z"/>
			<path class="st5" d="M244.5,43.3v7.4l-6.6,1.3v52.6h-12.2l-24.7-41.2l-0.3,0V96l6.6,1.3v7.4h-25.4v-7.4l6.5-1.3V52l-6.5-1.3v-7.4
				h6.5h12.3l24.7,41.2l0.3,0V52l-6.6-1.3v-7.4h18.8H244.5z"/>
			<path class="st5" d="M329.1,47.2c6.8,0,12.1,1.6,16,4.7c3.9,3.1,5.8,7.4,5.8,12.9c0,3-0.8,5.6-2.4,7.9c-1.6,2.2-4,4-7.1,5.4
				c3.5,1,6.1,2.8,7.6,5.2c1.5,2.4,2.3,5.4,2.3,9v3c0,1.3,0.3,2.3,0.8,3.1c0.5,0.7,1.4,1.2,2.6,1.3l1.5,0.2v7.2H350
				c-3.9,0-6.7-1.1-8.3-3.2c-1.6-2.1-2.4-4.8-2.4-8.2v-3.4c0-2.9-0.8-5.2-2.3-6.9c-1.6-1.7-3.7-2.5-6.6-2.6h-9.8v15.8l6.4,1.2v7.2
				h-24.8V100l6.4-1.2v-43l-6.4-1.2v-7.2h6.4H329.1z M320.6,73.6h8.3c3.3,0,5.9-0.7,7.5-2.1c1.7-1.4,2.5-3.5,2.5-6.2
				c0-2.7-0.8-4.8-2.5-6.4c-1.7-1.6-4.1-2.4-7.3-2.4h-8.5V73.6z"/>
			<path class="st5" d="M361.5,98.6l4-0.6l17.1-48.9h11.6l17,48.9l4,0.6v6.8h-19.2v-6.8l3.9-0.7l-2.5-7.7h-18.2l-2.5,7.7l3.9,0.7
				v6.8h-19.2V98.6z M381.9,81.8h12.9L388.5,62h-0.2L381.9,81.8z"/>
			<path class="st5" d="M465.9,43.3v16h-9.2l-0.5-6.7h-11v42.3l6.4,1.2v7.2h-24.9v-7.2l6.4-1.2V52.6h-11l-0.5,6.7h-9.2v-16H465.9z"
				/>
			<path class="st5" d="M516.5,67.5h-9.1l-1.6-8.3c-1.1-0.7-2.6-1.3-4.6-1.8c-2-0.5-4.2-0.8-6.5-0.8c-3.3,0-5.9,0.7-7.7,2.1
				c-1.8,1.4-2.7,3.2-2.7,5.4c0,2.1,1,3.7,2.9,5.1c1.9,1.3,5.2,2.7,9.9,4.2c6.7,1.9,11.8,4.3,15.3,7.4c3.5,3.1,5.2,7.1,5.2,12.1
				c0,5.2-2.1,9.3-6.2,12.3c-4.1,3-9.5,4.5-16.3,4.5c-4.8,0-9.2-0.8-13-2.3c-3.9-1.5-7.1-3.6-9.7-6.3V88.4h9.4l1.3,8.6
				c1.2,1,2.9,1.8,5,2.5c2.1,0.7,4.4,1,7,1c3.3,0,5.9-0.7,7.6-2c1.7-1.4,2.6-3.2,2.6-5.5c0-2.3-0.8-4.2-2.5-5.6
				c-1.7-1.4-4.6-2.8-8.7-4c-7.2-2.1-12.7-4.6-16.4-7.4c-3.7-2.9-5.5-6.8-5.5-11.8c0-4.9,2.1-9,6.3-12.1c4.2-3.1,9.4-4.7,15.7-4.8
				c4.7,0,8.9,0.7,12.8,2.1c3.8,1.4,7.1,3.3,9.7,5.7V67.5z"/>
			<path class="st5" d="M178.8,78.8c0,8.3-2.4,15.2-7.2,20.7c-4.8,5.4-11,8.2-18.7,8.2c-7.7,0-13.9-2.7-18.6-8.2
				c-4.7-5.4-7.1-12.3-7.1-20.7v-0.9c0-8.3,2.4-15.2,7.1-20.6c4.7-5.5,10.9-8.2,18.6-8.2c7.7,0,14,2.7,18.7,8.2
				c4.8,5.5,7.2,12.3,7.2,20.6V78.8z M167.4,77.8c0-5.9-1.2-10.7-3.7-14.3c-2.4-3.7-6.1-5.5-10.9-5.5c-4.8,0-8.4,1.8-10.7,5.5
				c-2.4,3.6-3.5,8.4-3.5,14.4v0.9c0,6,1.2,10.8,3.6,14.5c2.4,3.7,6,5.5,10.7,5.5c4.8,0,8.4-1.8,10.9-5.5s3.6-8.5,3.6-14.5V77.8z"/>
			<path class="st5" d="M295.5,100.4c-1.9,1.9-4.6,3.5-8.2,5c-3.6,1.5-8.2,2.2-13.7,2.2c-7.8,0-14.2-2.6-19.1-7.8
				c-4.9-5.2-7.3-12-7.3-20.4v-2c0-8.7,2.4-15.7,7.2-21.1c4.8-5.4,11.1-8.1,18.9-8.1c4.5,0,8.7,0.7,12.4,2.2
				c3.7,1.4,6.9,3.4,9.4,5.9v11.6h-8.6l-1.6-7.7c-1.1-0.9-2.5-1.6-4.2-2.2c-1.7-0.5-3.7-0.8-6-0.8c-5.1,0-9,1.9-11.8,5.6
				c-2.8,3.7-4.2,8.6-4.2,14.7v2.1c0,5.9,1.4,10.6,4.1,14.1c2.8,3.5,6.7,5.3,11.9,5.3c2.3,0,4.2-0.2,5.7-0.6
				c1.4-0.4,2.6-0.9,3.4-1.4V87l-8.3-0.6v-8.1h19.9V100.4z"/>
		</g>
		<g>
		<circle class="st12" cx="168.1" cy="311.5" r="2"/>
		<circle class="st12" cx="198" cy="275.1" r="2"/>
		<circle class="st12" cx="227" cy="294.8" r="2"/>
		<circle class="st12" cx="188.4" cy="261.5" r="2"/>
		<circle class="st12" cx="209.1" cy="339.7" r="2"/>
		<circle class="st12" cx="241.7" cy="330.1" r="2"/>
		<circle class="st12" cx="232.3" cy="250.5" r="2"/>
		<circle class="st12" cx="378.9" cy="326" r="2"/>
		<circle class="st12" cx="421.1" cy="264.6" r="2"/>
		<circle class="st12" cx="398.6" cy="265.8" r="2"/>
		<circle class="st12" cx="433.1" cy="280.2" r="2"/>
		<circle class="st12" cx="415" cy="319.5" r="2"/>
		<circle class="st12" cx="394.9" cy="291.2" r="2"/>
		<polygon class="st47" points="454.3,287.9 466.7,283.7 456.4,291.7 460.6,304 452.6,293.7 440.3,298 450.6,290 446.3,277.6 		"/>
		<polygon class="st47" points="248.5,347.5 261.5,347.4 249.2,351.7 249.3,364.7 245,352.4 232,352.5 244.3,348.2 244.2,335.2
			"/>
		<path class="st48" d="M251.4,238.2c3.2,2.4,11.9,2.4,11.9,2.4s-9.3,1.3-11.4,3.9c-2,2.6-2.3,12.3-2.3,12.3s-1.9-9.7-4.2-11.7
			c-3.3-2.8-12-2.1-12-2.1s9.2-1.9,11.2-4.2c1.9-2.2,2.6-12,2.6-12S248.2,235.8,251.4,238.2z"/>
		<path class="st48" d="M219.9,276.6c2.1,1.6,7.8,1.6,7.8,1.6s-6.1,0.9-7.4,2.6c-1.3,1.7-1.5,8-1.5,8s-1.2-6.3-2.7-7.6
			c-2.2-1.8-7.8-1.3-7.8-1.3s6-1.3,7.3-2.8c1.2-1.4,1.7-7.8,1.7-7.8S217.8,275,219.9,276.6z"/>
		<path class="st55" d="M440.8,314.1c1.5,3.3,8.5,6.9,8.5,6.9s-8-2.8-10.7-1.6c-2.7,1.2-7,8.8-7,8.8s2.5-8.5,1.5-11
			c-1.5-3.6-8.8-6.6-8.8-6.6s8.2,2.2,10.7,1.2c2.4-1,7-8.5,7-8.5S439.3,310.8,440.8,314.1z"/>
		<path class="st48" d="M417.3,251.9c2.1,1.6,7.8,1.6,7.8,1.6s-6.1,0.9-7.4,2.6c-1.3,1.7-1.5,8-1.5,8s-1.2-6.3-2.7-7.6
			c-2.2-1.8-7.8-1.3-7.8-1.3s6-1.3,7.3-2.8c1.2-1.4,1.7-7.8,1.7-7.8S415.3,250.3,417.3,251.9z"/>
		<path class="st48" d="M203.9,322.4c3.2,2.4,11.9,2.4,11.9,2.4s-9.3,1.3-11.4,3.9c-2,2.6-2.3,12.3-2.3,12.3s-1.9-9.7-4.2-11.7
			c-3.3-2.8-12-2.1-12-2.1s9.2-1.9,11.2-4.2c1.9-2.2,2.6-12,2.6-12S200.7,320,203.9,322.4z"/>
		<path class="st53" d="M411.8,282.4c1.4,3,7.7,6.5,7.7,6.5s-7.4-2.7-9.9-1.6c-2.5,1.1-6.6,8.1-6.6,8.1s2.5-7.9,1.6-10.2
			c-1.3-3.3-8-6.3-8-6.3s7.5,2.2,9.9,1.3c2.2-0.8,6.6-7.7,6.6-7.7S410.4,279.4,411.8,282.4z"/>
		<g>
			<polygon class="st11" points="185.1,288.6 196.3,279 186.7,290.2 196.3,301.4 185.1,291.8 173.9,301.4 183.5,290.2 173.9,279
				"/>
			<polygon class="st11" points="183.6,288.7 185.1,268.7 186.6,288.7 206.6,290.2 186.6,291.7 185.1,311.7 183.6,291.7
				163.6,290.2 			"/>
		</g>
		<g>
			<polygon class="st11" points="396,343.8 410,339.2 396.8,345.8 401.3,359.9 394.7,346.7 380.7,351.2 393.9,344.6 389.4,330.6
				"/>
			<polygon class="st11" points="394.5,343.2 403.7,325.4 397.3,344.4 415.2,353.6 396.2,347.2 387,365.1 393.4,346 375.5,336.9
				"/>
		</g>
		<g>
			<polygon class="st11" points="229.5,327.5 237.8,326.5 229.7,328.8 230.8,337 228.5,329 220.2,330.1 228.2,327.8 227.2,319.5
				"/>
			<polygon class="st11" points="228.7,327.1 235.7,318.1 230.2,328 239.1,335 229.2,329.5 222.3,338.4 227.8,328.5 218.8,321.5
				"/>
		</g>
		<g>
			<polygon class="st11" points="377.9,235.4 385.9,228.6 379,236.5 385.9,244.5 377.9,237.6 370,244.5 376.8,236.5 370,228.6
				"/>
			<polygon class="st11" points="376.8,235.4 377.9,221.2 379,235.4 393.2,236.5 379,237.6 377.9,251.8 376.8,237.6 362.6,236.5
				"/>
		</g>
		<g>
			<polygon class="st53" points="206.6,258.5 199.8,257.4 206.6,256.3 207.7,249.5 208.8,256.3 215.7,257.4 208.9,258.5
				207.8,265.3 			"/>
			<circle class="st53" cx="207.8" cy="257.2" r="2.3"/>
		</g>
		<g>
			<polygon class="st11" points="419,302.5 412.2,301.4 419,300.3 420.1,293.4 421.2,300.3 428.1,301.3 421.2,302.5 420.2,309.3
				"/>
			<circle class="st11" cx="420.2" cy="301.2" r="2.3"/>
		</g>
		<g>
			<polygon class="st53" points="363.7,342.7 356.9,341.6 363.7,340.4 364.8,333.6 365.9,340.4 372.8,341.5 365.9,342.6
				364.9,349.5 			"/>
			<circle class="st53" cx="364.9" cy="341.3" r="2.3"/>
		</g>
		<g>
			<polygon class="st55" points="441.7,267.5 434.9,266.4 441.7,265.2 442.8,258.4 443.9,265.2 450.7,266.3 443.9,267.4
				442.8,274.3 			"/>
			<circle class="st55" cx="442.9" cy="266.1" r="2.3"/>
		</g>
		<g>
			<polygon class="st55" points="169.3,258.3 159,256.7 169.3,254.9 170.9,244.7 172.6,254.9 182.9,256.6 172.7,258.3 171,268.6
				"/>
			<circle class="st55" cx="171.1" cy="256.3" r="3.4"/>
		</g>
		<g>
			<polygon class="st53" points="215.8,310.4 205.5,308.8 215.8,307.1 217.4,296.8 219.1,307 229.4,308.7 219.2,310.4 217.5,320.7
							"/>
			<circle class="st53" cx="217.6" cy="308.4" r="3.4"/>
		</g>
		<g>
			<polygon class="st48" points="390.3,316.3 381.7,310.5 391.7,313.2 397.6,304.6 394.8,314.6 403.4,320.5 393.4,317.7
				387.6,326.3 			"/>
			<circle class="st48" cx="392.8" cy="315.2" r="3.4"/>
		</g>
		<path class="st47" d="M229.7,259.6c1.7-0.5,4-3.7,4-3.7s-1.9,3.7-1.5,5.1c0.4,1.4,3.9,4,3.9,4s-4-1.9-5.3-1.5
			c-1.9,0.5-3.9,3.8-3.9,3.8s1.7-3.8,1.4-5.2c-0.3-1.2-3.7-4-3.7-4S228,260.2,229.7,259.6z"/>
	</g>
	</g>
</svg>
