<svg version="1.1" xmlns="http://www.w3.org/2000/svg" xmlns:xlink="http://www.w3.org/1999/xlink" x="0px" y="0px" viewBox="0 0 94 94" style="enable-background:new 0 0 94 94;" xml:space="preserve" width="94" height="94" preserveAspectRatio="none"><style type="text/css">.st2{fill:#1C8689;}
.st6{fill:#F2F2F2;}
.st11{fill:#333333;}
.st14{fill:#999999;}
.st44{fill:#FFFFFF;}
.st340{fill:#8C9ABE;}
.st347{fill:#6DDE77;}
.st364{fill:#636363;}</style>
<path class="st340" d="M27.7,16c13.1-1.7,25.8-1.9,37.9,0c0,0,12.4,11.4,12.5,11.7c1.3,14.5,0.8,23.9,0.3,38.9L66.8,79.5
c-12.5,1.2-25.4,1.2-38.6,0.1l-12-13.5c-1.5-13.2-1.3-26,0.1-37.7L27.7,16z" />
<ellipse class="st340" cx="21" cy="20.3" rx="8.4" ry="10.1" />
<ellipse class="st340" cx="73" cy="20.3" rx="8.4" ry="10.1" />
<ellipse class="st340" cx="73" cy="73.7" rx="8.4" ry="10.1" />
<ellipse class="st340" cx="21.8" cy="73.7" rx="8.4" ry="10.1" />
<ellipse transform="matrix(0.9841 -0.1773 0.1773 0.9841 -2.4221 13.2808)" class="st11" cx="73.1" cy="20.2" rx="7.1" ry="8.4" />
<path class="st364" d="M71.5,28.2c-1.7-0.6-3.2-1.8-4.2-3.6c-0.7-1.2-1.1-2.4-1.2-3.7l7.9-9c2,0.4,3.9,1.7,5.1,3.9
c0.4,0.8,0.8,1.6,1,2.4L71.5,28.2z" />
<ellipse transform="matrix(0.2078 -0.9782 0.9782 0.2078 -3.0455 36.6172)" class="st11" cx="21.1" cy="20.2" rx="8.4" ry="7.2" />
<path class="st364" d="M21.8,28.4c1.7-0.3,3.4-1.3,4.6-3c0.8-1.1,1.3-2.2,1.6-3.5l-6.8-10.1c-2,0.1-4,1.1-5.5,3.1
c-0.5,0.7-0.9,1.5-1.2,2.3L21.8,28.4z" />
<ellipse transform="matrix(0.1773 -0.9841 0.9841 0.1773 -12.504 133.399)" class="st11" cx="73.5" cy="74.2" rx="8.4" ry="7.1" />
<path class="st364" d="M71.9,66.1c-1.7,0.6-3.2,1.8-4.2,3.6c-0.7,1.2-1.1,2.4-1.2,3.7l7.9,9c2-0.4,3.9-1.7,5.1-3.9
c0.4-0.8,0.8-1.6,1-2.4L71.9,66.1z" />
<ellipse transform="matrix(0.9782 -0.2078 0.2078 0.9782 -14.9446 6.0956)" class="st11" cx="21.5" cy="74.2" rx="7.2" ry="8.4" />
<path class="st364" d="M22.3,66c1.7,0.3,3.4,1.3,4.6,3c0.8,1.1,1.3,2.2,1.6,3.5l-6.8,10.1c-2-0.1-4-1.1-5.5-3.1
c-0.5-0.7-0.9-1.5-1.2-2.3L22.3,66z" />
<path class="st6" d="M75.1,76.5c-2.7,2.9-50.9,3.5-55.2,0c-4.3-3.5-3.6-53.9,0-57.4s50.9-3.6,55.2,0
C79.4,22.7,77.8,73.6,75.1,76.5z" />
<path class="st14" d="M75.1,19.1c0.8,0.8,1.1,2.1,1.4,3.2c0.8,3.5,1,7,1.3,10.6c0.5,9.5,0.5,19-0.1,28.4
c-0.3,4.8-0.5,9.5-1.6,14.2c-0.2,0.5-0.3,1.1-0.8,1.4c-1.8,1-3.9,1.1-5.8,1.4c-2.4,0.3-4.7,0.4-7.1,0.6
c-4.7,0.3-9.5,0.4-14.2,0.4c-7.1-0.1-14.2-0.2-21.3-1.1c-2.3-0.4-4.8-0.5-6.9-1.7c2.1,1.1,4.6,1.1,6.9,1.4
c7.1,0.6,14.2,0.6,21.3,0.5c4.7-0.1,9.5-0.2,14.2-0.5c4.1-0.4,8.5-0.3,12.4-1.8c0.2-0.2,0.3-0.6,0.4-0.9c1.1-4.5,1.3-9.3,1.7-14
c0.6-9.4,0.8-18.9,0.5-28.4c-0.1-3.5-0.3-7.1-1-10.6C76.1,21.2,75.9,20,75.1,19.1L75.1,19.1z" />
<path class="st44" d="M19.9,76.5c-0.9-0.8-1.1-2.1-1.4-3.2c-0.8-3.5-1.1-7-1.4-10.6c-0.6-9.5-0.7-19-0.1-28.5
c0.2-3.6,0.5-7.1,1.1-10.7c0.4-1.7,0.4-4.2,2.2-5.2c4-1.5,8.3-1.5,12.5-1.9c4.8-0.3,9.5-0.4,14.3-0.4c7.1,0.1,14.3,0.3,21.3,1.2
c2.3,0.4,4.8,0.6,6.8,1.8c-1-0.6-2.2-0.8-3.4-1.1c-3.5-0.6-7.1-0.8-10.6-1c-4.7-0.2-9.5-0.3-14.2-0.2c-4.7,0.1-9.5,0.2-14.2,0.5
c-4,0.4-8.3,0.4-12.1,1.9c-0.2,0.1-0.4,0.2-0.5,0.4c-0.7,1.2-0.9,2.7-1.2,4.1c-0.6,3.5-0.9,7-1.1,10.6c-0.6,9.5-0.7,19-0.3,28.4
c0.2,3.5,0.4,7.1,1.1,10.6C18.9,74.4,19.1,75.6,19.9,76.5L19.9,76.5z" />
<path class="st2" d="M69.4,68.8c-12.6,1.9-29.9,2.9-44.5,0c-3-13.1-3.2-31,0-44.3c14.8-3.5,29.7-3.5,44.5,0
C72.5,37.2,72.5,55.1,69.4,68.8z" />
<path class="st44" d="M69.4,24.5C73,39,72.9,54.3,69.9,68.9c0,0-0.1,0.3-0.1,0.3l-0.3,0.1c-3.7,0.6-7.4,1-11.1,1.3
c-11.1,0.8-22.5,0.7-33.4-1.7c14.7,2.3,29.7,1.6,44.4-0.5c0,0-0.4,0.4-0.4,0.4c0.8-3.6,1.4-7.3,1.8-11
C71.8,46.7,71.6,35.4,69.4,24.5L69.4,24.5z" />
<path class="st14" d="M24.9,68.8c-3.4-14.5-3.7-29.9-0.5-44.5c0,0,0.1-0.3,0.1-0.3l0.3-0.1c3.7-0.8,7.4-1.5,11.1-1.9
c11.2-1.3,22.6-0.5,33.5,2.4c-7.3-1.5-14.8-2.3-22.2-2.2c-7.5,0.1-14.9,1-22.1,2.7c0,0,0.4-0.4,0.4-0.4
C22.1,39,22.3,54.3,24.9,68.8L24.9,68.8z" />
<path class="st347" d="M58.5,55c-0.4,1.3-6.6,1.6-7.1,0s-0.5-22.9,0-24.5c0.5-1.6,6.6-1.7,7.1,0S58.9,53.6,58.5,55z" />
<path class="st347" d="M43.4,54.7c-0.4,1.3-6.6,1.6-7.1,0c-0.6-1.6-0.5-22.3,0-23.9c0.5-1.6,6.6-1.6,7.1,0
C43.9,32.4,43.7,53.4,43.4,54.7z" />
<path class="st347" d="M40.9,61.9c4.5-1.1,9.2-1.2,13.7-0.3C50.1,62.7,45.4,62.8,40.9,61.9L40.9,61.9z" />
<rect x="30.1" y="25.8" class="st2" width="33.4" height="17.8" />
<rect x="30.1" y="48" class="st2" width="33.4" height="10.2" />
</svg>