<?xml version="1.0" encoding="utf-8"?>
<!-- Generator: Adobe Illustrator 19.2.0, SVG Export Plug-In . SVG Version: 6.00 Build 0)  -->
<svg version="1.1" xmlns="http://www.w3.org/2000/svg" xmlns:xlink="http://www.w3.org/1999/xlink" x="0px" y="0px"
	 viewBox="0 0 76 76" enable-background="new 0 0 76 76" xml:space="preserve" width="76" height="76" preserveAspectRatio="none">
<g id="BG">
</g>
<g id="Coral">
</g>
<g id="Sand_BG">
</g>
<g id="Right_BG_Fish">
</g>
<g id="Left_BG_Fish">
</g>
<g id="Left_Orange_and_Purple_Fish">
</g>
<g id="Starfish">
</g>
<g id="White_Frame_Drop_Shadow">
</g>
<g id="White_Frame_BG">
</g>
<g id="Submit_Button_1_">
</g>
<g id="Left_Tool_Bar_Tab">
</g>
<g id="Right_Info_Tab">
</g>
<g id="Top_Tab">
</g>
<g id="Left_Tools">
</g>
<g id="Orange_Crab">
</g>
<g id="Anchor">
</g>
<g id="Layer_31">
</g>
<g id="Treasure_Chest">
</g>
<g id="Keyboard">
</g>
<g id="Header">
</g>
<g id="Header_Buttons">
</g>
<g id="Progress_Indicator_1_">
</g>
<g id="Title">
</g>
<g id="Layer_30">
</g>
<g id="Bubble_Animation">
	<path opacity="0.43" fill="#CAEFFD" d="M59.4,2.8c-2.1,2.1-5.7,2.2-8,0.5c-1-0.7-2.6-0.8-4.6-0.6c-5.8,0.6-14.4,3.7-17.6,1.5
		c-0.1,0-0.1-0.1-0.2-0.1c-0.2-0.1-0.3-0.3-0.4-0.4c-0.6-0.7-1.5-1.1-2.5-1.2C21.6,2,13.9,5.9,12.9,5.7C7.9,8.9,4.9,13,4.7,17.4
		C4.2,29,16.4,36.8,38.7,36.9c18.8,0.1,32.6-8.7,32.6-19.5C71.4,11.3,66.8,6.1,59.4,2.8z M20.2,16c-1.9-0.9-3.8,0-3.8-1.4
		s1.7-2.5,3.8-2.5c2.1,0,3.8,1.1,3.8,2.5S21.9,16.8,20.2,16z"/>
	<path fill="#FFFFFF" d="M39.7,34c0,0-23.5,1.7-30.6-14.2c0,0-1.8,7,7.4,11.9C21,34.1,30.2,36.1,39.7,34z"/>
	<path fill="#8BC3EB" d="M60.6,1.1c-0.1,0.2-0.2,0.4-0.3,0.6c8.1,3.7,13.3,9.4,13.3,15.7c0,11.1-16.2,21.1-35.6,20.8
		C14.3,37.9,0.9,27.8,2.4,17.6c0.7-4.8,3.9-9.2,8.9-12.7c-0.4-0.3-0.7-0.6-1-1.1c-5,3.4-8.1,7.8-8.8,13.1
		c-1.6,12,11.3,21.8,35.1,21.9C54.4,39,71,34.2,74.4,19.5C76.2,11.6,70,5.1,60.6,1.1z"/>
	<path fill="#91E7FA" d="M60.2,1.7c-0.2,0.4-0.5,0.7-0.8,1l0,0c7.4,3.3,11.9,8.5,11.9,14.7c0,10.7-13.8,19.5-32.6,19.5
		C16.4,36.8,4.2,29,4.7,17.4C4.9,13,7.9,8.9,12.9,5.7h0c-0.6-0.1-1.1-0.4-1.6-0.7l0,0c-4.9,3.5-8.1,7.9-8.9,12.7
		C0.9,27.8,14.3,37.9,37.9,38.2c19.4,0.3,35.6-9.7,35.6-20.8C73.6,11.1,68.4,5.4,60.2,1.7z"/>
	<path fill="none" d="M20.3,12.1c-2.1,0-3.8,1.1-3.8,2.5s1.9,0.4,3.8,1.4c1.6,0.8,3.9,0,3.9-1.4S22.4,12.1,20.3,12.1z"/>
	<path opacity="0.6" fill="#CAEFFD" d="M29.3,4.1c-0.1,0-0.1-0.1-0.2-0.1C29.1,4,29.2,4.1,29.3,4.1z"/>
	<path opacity="0.43" fill="#91E7FA" d="M29.1,4c-0.2-0.1-0.3-0.3-0.4-0.4C28.8,3.7,28.9,3.9,29.1,4z"/>
	<path opacity="0.43" fill="#91E7FA" d="M46.1,11.3c13,5.2,14.9,15.3,14.9,15.3s17.8-11.1-6.1-21.3c-2.8-1.2-5.4-2.1-8-2.7
		c-5.8,0.6-14.4,3.7-17.6,1.5c-0.1,0-0.1-0.1-0.2-0.1c-0.2-0.1-0.3-0.3-0.4-0.4c-0.6-0.7-1.5-1.1-2.5-1.2c-7,1.8-11,5-11,5
		S31.6,5.5,46.1,11.3z"/>
	<path fill="#FFFFFF" d="M58.1,3.9c-0.1,0-0.1-0.1-0.2-0.1c-2.1,1-4.7,0.8-6.5-0.6c-3-2.3-6.1-0.4-6.1-0.4s3.3,0.9,4.8,1.4
		c-1.6,0.4-1.3,1.7-0.6,2.3c1.6,1.5,8,3.3,9.8,2.1c3.6,2.4,6.8,5.7,9,10.1C68.3,18.6,70,9.8,58.1,3.9z"/>
</g>
<g id="Layer_33" display="none">
</g>
<g id="Layer_32">
</g>
<g id="Fizz_1">
</g>
<g id="Fizz_2">
</g>
<g id="Fizz_3">
</g>
<g id="Solution_Screen" display="none">
</g>
<g id="Show_Problem_Modal" display="none">
</g>
</svg>
