<?xml version="1.0" encoding="utf-8"?>
<!-- Generator: Adobe Illustrator 19.2.0, SVG Export Plug-In . SVG Version: 6.00 Build 0)  -->
<svg version="1.1" xmlns="http://www.w3.org/2000/svg" xmlns:xlink="http://www.w3.org/1999/xlink" x="0px" y="0px"
	 viewBox="0 0 76 76" enable-background="new 0 0 76 76" xml:space="preserve" width="76" height="76" preserveAspectRatio="none">
<g id="BG">
</g>
<g id="Coral">
</g>
<g id="Sand_BG">
</g>
<g id="Right_BG_Fish">
</g>
<g id="Left_BG_Fish">
</g>
<g id="Left_Orange_and_Purple_Fish">
</g>
<g id="Starfish">
</g>
<g id="White_Frame_Drop_Shadow">
</g>
<g id="White_Frame_BG">
</g>
<g id="Submit_Button_1_">
</g>
<g id="Left_Tool_Bar_Tab">
</g>
<g id="Right_Info_Tab">
</g>
<g id="Top_Tab">
</g>
<g id="Left_Tools">
</g>
<g id="Orange_Crab">
</g>
<g id="Anchor">
</g>
<g id="Layer_31">
</g>
<g id="Treasure_Chest">
</g>
<g id="Keyboard">
</g>
<g id="Header">
</g>
<g id="Header_Buttons">
</g>
<g id="Progress_Indicator_1_">
</g>
<g id="Title">
</g>
<g id="Layer_30">
</g>
<g id="Bubble_Animation">
	<path opacity="0.6" fill="#CAEFFD" d="M38.8,3.2C20,3.2,5.2,11.9,4.7,21.8c-0.6,11.6,11.7,19.4,34,19.5
		c18.8,0.1,32.6-8.7,32.6-19.5C71.4,11,57.6,3.2,38.8,3.2z"/>
	<g>
		<path opacity="0.43" fill="#91E7FA" d="M60.9,31c0,0-1.9-10.2-14.9-15.3c-14.4-5.8-30.9-3.9-30.9-3.9s15.4-12.4,39.7-2
			C78.7,19.9,60.9,31,60.9,31z"/>
		<path fill="#8BC3EB" d="M31.6,1.5c-17.4,1.9-28.8,9-30.2,19.9c-1.6,12,11.3,21.8,35.1,21.9c17.9,0.1,34.5-4.7,37.9-19.4
			C77.9,8.9,52.5-0.8,31.6,1.5z M37.9,42.6C14.3,42.2,0.9,32.2,2.4,21.9c1.7-11,16.6-20.2,36-20.2s35.2,9,35.2,20.1
			C73.6,32.9,57.3,42.9,37.9,42.6z"/>
		<path fill="#91E7FA" d="M38.4,1.7c-19.4,0-34.3,9.2-36,20.2C0.9,32.2,14.3,42.2,37.9,42.6c19.4,0.3,35.6-9.7,35.6-20.8
			C73.6,10.7,57.8,1.7,38.4,1.7z M38.7,41.2c-22.3-0.1-34.6-7.9-34-19.5C5.2,11.9,20,3.2,38.8,3.2S71.4,11,71.4,21.8
			C71.4,32.5,57.5,41.3,38.7,41.2z"/>
		<path fill="#FFFFFF" d="M53.2,8.6c4.1,0.7,7.8,2.7,6.3,4.2c-1.5,1.5-8.3-0.4-10-1.9C48.5,10,48.4,7.7,53.2,8.6z"/>
		<path fill="#FFFFFF" d="M29,6c0,0,29.3-2.7,39.3,17c0,0,1.8-8.8-10.2-14.7C52.4,5.4,40.7,3.1,29,6z"/>
		<path fill="#FFFFFF" d="M39.7,38.3c0,0-23.5,1.7-30.6-14.2c0,0-1.8,7,7.4,11.9C21,38.5,30.2,40.5,39.7,38.3z"/>
	</g>
</g>
<g id="Layer_33" display="none">
</g>
<g id="Layer_32">
</g>
<g id="Fizz_1">
</g>
<g id="Fizz_2">
</g>
<g id="Fizz_3">
</g>
<g id="Solution_Screen" display="none">
</g>
<g id="Show_Problem_Modal" display="none">
</g>
</svg>
