<?xml version="1.0" encoding="utf-8"?>
<!-- Generator: Adobe Illustrator 19.2.0, SVG Export Plug-In . SVG Version: 6.00 Build 0)  -->
<svg version="1.1" xmlns="http://www.w3.org/2000/svg" xmlns:xlink="http://www.w3.org/1999/xlink" x="0px" y="0px"
	 viewBox="0 0 76 76" enable-background="new 0 0 76 76" xml:space="preserve" width="76" height="76" preserveAspectRatio="none">
<g id="BG">
</g>
<g id="Coral">
</g>
<g id="Sand_BG">
</g>
<g id="Right_BG_Fish">
</g>
<g id="Left_BG_Fish">
</g>
<g id="Left_Orange_and_Purple_Fish">
</g>
<g id="Starfish">
</g>
<g id="White_Frame_Drop_Shadow">
</g>
<g id="White_Frame_BG">
</g>
<g id="Submit_Button_1_">
</g>
<g id="Left_Tool_Bar_Tab">
</g>
<g id="Right_Info_Tab">
</g>
<g id="Top_Tab">
</g>
<g id="Left_Tools">
</g>
<g id="Orange_Crab">
</g>
<g id="Anchor">
</g>
<g id="Layer_31">
</g>
<g id="Treasure_Chest">
</g>
<g id="Keyboard">
</g>
<g id="Header">
</g>
<g id="Header_Buttons">
</g>
<g id="Progress_Indicator_1_">
</g>
<g id="Title">
</g>
<g id="Layer_30">
</g>
<g id="Bubble_Animation">
	<g>
		<path opacity="0.6" fill="#CAEFFD" d="M38.8,4.8C20,4.8,5.2,20,4.7,37.2c-0.6,20.3,11.7,34,34,34.1c18.8,0.1,32.6-15.2,32.6-34
			C71.4,18.5,57.6,4.8,38.8,4.8z"/>
		<g>
			<path opacity="0.43" fill="#91E7FA" d="M60.9,53.4c0,0-1.9-17.8-14.9-26.8c-14.4-10.1-30.9-6.9-30.9-6.9s15.4-21.8,39.7-3.6
				C78.7,34,60.9,53.4,60.9,53.4z"/>
			<path fill="#8BC3EB" d="M31.6,1.7C14.2,5,2.8,17.5,1.4,36.5c-1.6,20.9,11.3,38.2,35.1,38.4C54.4,75,71,66.6,74.4,41
				C77.9,14.7,52.5-2.2,31.6,1.7z M37.9,73.7C14.3,73.1,0.9,55.5,2.4,37.5C4.1,18.2,19,2.2,38.4,2.2s35.2,15.8,35.2,35.2
				C73.6,56.7,57.3,74.2,37.9,73.7z"/>
			<path fill="#91E7FA" d="M38.4,2.2C19,2.2,4.1,18.2,2.4,37.5C0.9,55.5,14.3,73.1,37.9,73.7c19.4,0.5,35.6-17,35.6-36.4
				C73.6,17.9,57.8,2.2,38.4,2.2z M38.7,71.3c-22.3-0.1-34.6-13.8-34-34.1C5.2,20,20,4.8,38.8,4.8s32.6,13.7,32.6,32.5
				C71.4,56.1,57.5,71.4,38.7,71.3z"/>
			<path fill="#FFFFFF" d="M53.2,14.1c4.1,1.3,7.8,4.7,6.3,7.4c-1.5,2.7-8.3-0.7-10-3.3C48.5,16.6,48.4,12.6,53.2,14.1z"/>
			<path fill="#FFFFFF" d="M29,9.6c0,0,29.3-4.7,39.3,29.8c0,0,1.8-15.4-10.2-25.8C52.4,8.6,40.7,4.5,29,9.6z"/>
			<path fill="#FFFFFF" d="M39.7,66.2c0,0-23.5,3-30.6-24.8c0,0-1.8,12.2,7.4,20.9C21,66.4,30.2,70,39.7,66.2z"/>
		</g>
	</g>
</g>
<g id="Layer_33" display="none">
</g>
<g id="Layer_32">
</g>
<g id="Fizz_1">
</g>
<g id="Fizz_2">
</g>
<g id="Fizz_3">
</g>
<g id="Solution_Screen" display="none">
</g>
<g id="Show_Problem_Modal" display="none">
</g>
</svg>
