<?xml version="1.0" encoding="utf-8"?>
<!-- Generator: Adobe Illustrator 19.2.0, SVG Export Plug-In . SVG Version: 6.00 Build 0)  -->
<svg version="1.1" xmlns="http://www.w3.org/2000/svg" xmlns:xlink="http://www.w3.org/1999/xlink" x="0px" y="0px"
	 viewBox="0 0 76 76" enable-background="new 0 0 76 76" xml:space="preserve" width="76" height="76" preserveAspectRatio="none">
<g id="BG">
</g>
<g id="Coral">
</g>
<g id="Sand_BG">
</g>
<g id="Right_BG_Fish">
</g>
<g id="Left_BG_Fish">
</g>
<g id="Left_Orange_and_Purple_Fish">
</g>
<g id="Starfish">
</g>
<g id="White_Frame_Drop_Shadow">
</g>
<g id="White_Frame_BG">
</g>
<g id="Submit_Button_1_">
</g>
<g id="Left_Tool_Bar_Tab">
</g>
<g id="Right_Info_Tab">
</g>
<g id="Top_Tab">
</g>
<g id="Left_Tools">
</g>
<g id="Orange_Crab">
</g>
<g id="Anchor">
</g>
<g id="Layer_31">
</g>
<g id="Treasure_Chest">
</g>
<g id="Keyboard">
</g>
<g id="Header">
</g>
<g id="Header_Buttons">
</g>
<g id="Progress_Indicator_1_">
</g>
<g id="Title">
</g>
<g id="Layer_30">
</g>
<g id="Bubble_Animation">
	<g>
		<path opacity="0.6" fill="#CAEFFD" d="M38.8,4.5C20,4.5,5.2,18.3,4.7,33.9c-0.6,18.5,11.7,30.9,34,31C57.5,65,71.4,51.1,71.4,34
			C71.4,16.9,57.6,4.5,38.8,4.5z"/>
		<g>
			<path opacity="0.43" fill="#91E7FA" d="M60.9,48.7c0,0-1.9-16.2-14.9-24.4C31.6,15.1,15.1,18,15.1,18s15.4-19.8,39.7-3.3
				C78.7,31,60.9,48.7,60.9,48.7z"/>
			<path fill="#8BC3EB" d="M31.6,1.7C14.2,4.6,2.8,16,1.4,33.3c-1.6,19,11.3,34.7,35.1,34.9c17.9,0.2,34.5-7.5,37.9-30.8
				C77.9,13.5,52.5-1.9,31.6,1.7z M37.9,67.1C14.3,66.5,0.9,50.5,2.4,34.2C4.1,16.7,19,2.1,38.4,2.1s35.2,14.3,35.2,32
				C73.6,51.7,57.3,67.6,37.9,67.1z"/>
			<path fill="#91E7FA" d="M38.4,2.1C19,2.1,4.1,16.7,2.4,34.2C0.9,50.5,14.3,66.5,37.9,67.1c19.4,0.5,35.6-15.4,35.6-33.1
				C73.6,16.4,57.8,2.1,38.4,2.1z M38.7,65c-22.3-0.1-34.6-12.5-34-31C5.2,18.3,20,4.5,38.8,4.5S71.4,16.9,71.4,34
				C71.4,51.1,57.5,65,38.7,65z"/>
			<path fill="#FFFFFF" d="M53.2,12.9c4.1,1.1,7.8,4.2,6.3,6.7c-1.5,2.5-8.3-0.6-10-3C48.5,15.2,48.4,11.6,53.2,12.9z"/>
			<path fill="#FFFFFF" d="M29,8.9c0,0,29.3-4.3,39.3,27.1c0,0,1.8-14-10.2-23.4C52.4,7.9,40.7,4.2,29,8.9z"/>
			<path fill="#FFFFFF" d="M39.7,60.3c0,0-23.5,2.7-30.6-22.6c0,0-1.8,11.1,7.4,19C21,60.5,30.2,63.8,39.7,60.3z"/>
		</g>
	</g>
</g>
<g id="Layer_33" display="none">
</g>
<g id="Layer_32">
</g>
<g id="Fizz_1">
</g>
<g id="Fizz_2">
</g>
<g id="Fizz_3">
</g>
<g id="Solution_Screen" display="none">
</g>
<g id="Show_Problem_Modal" display="none">
</g>
</svg>
