<?xml version="1.0" encoding="utf-8"?>
<!-- Generator: Adobe Illustrator 19.2.0, SVG Export Plug-In . SVG Version: 6.00 Build 0)  -->
<svg version="1.1" xmlns="http://www.w3.org/2000/svg" xmlns:xlink="http://www.w3.org/1999/xlink" x="0px" y="0px"
	 viewBox="0 0 76 76" enable-background="new 0 0 76 76" xml:space="preserve" width="76" height="76" preserveAspectRatio="none">
<g id="BG">
</g>
<g id="Coral">
</g>
<g id="Sand_BG">
</g>
<g id="Right_BG_Fish">
</g>
<g id="Left_BG_Fish">
</g>
<g id="Left_Orange_and_Purple_Fish">
</g>
<g id="Starfish">
</g>
<g id="White_Frame_Drop_Shadow">
</g>
<g id="White_Frame_BG">
</g>
<g id="Submit_Button_1_">
</g>
<g id="Left_Tool_Bar_Tab">
</g>
<g id="Right_Info_Tab">
</g>
<g id="Top_Tab">
</g>
<g id="Left_Tools">
</g>
<g id="Orange_Crab">
</g>
<g id="Anchor">
</g>
<g id="Layer_31">
</g>
<g id="Treasure_Chest">
</g>
<g id="Keyboard">
</g>
<g id="Header">
</g>
<g id="Header_Buttons">
</g>
<g id="Progress_Indicator_1_">
</g>
<g id="Title">
</g>
<g id="Layer_30">
</g>
<g id="Bubble_Animation">
</g>
<g id="Layer_32">
</g>
<g id="Fizz_1">
	<g>
		<g>
			<path opacity="0.6" fill="#CAEFFD" d="M44.5,63.6c-1.8-0.8-3.6,0.3-4,1.9c-0.4,1.6,0.2,3,1.8,3.6c1.3,0.5,2.8,0,3.5-1.4
				C46.7,66.2,46.2,64.4,44.5,63.6z"/>
			<g>
				<path opacity="0.43" fill="#91E7FA" d="M44.5,68.6c0,0,0.5-1.4-0.2-2.6c-0.9-1.5-2.4-1.8-2.4-1.8s2.2-1.7,3.6,1.2
					C46.6,67.8,44.5,68.6,44.5,68.6z"/>
				<path fill="#8BC3EB" d="M44,63c-1.8-0.4-3.2,0.6-3.7,2.3c-0.5,1.7,0.2,3.3,1.9,4c1.2,0.5,2.7,0.5,3.9-1.1
					C47.5,66.1,46.1,63.4,44,63z M42.2,69.2c-1.7-0.7-2.4-2.4-1.9-3.8c0.6-1.8,2.4-3,4.3-2.1c1.8,0.8,2.4,2.9,1.5,4.5
					C45.3,69.2,43.5,69.8,42.2,69.2z"/>
				<path fill="#91E7FA" d="M44.6,63.3c-1.8-0.8-3.7,0.3-4.3,2.1c-0.5,1.4,0.2,3.1,1.9,3.8c1.3,0.6,3.1,0,3.8-1.4
					C46.9,66.3,46.4,64.1,44.6,63.3z M42.3,69.1c-1.6-0.7-2.3-2-1.8-3.6c0.4-1.6,2.2-2.7,4-1.9c1.7,0.8,2.2,2.6,1.4,4.1
					C45.1,69.1,43.6,69.7,42.3,69.1z"/>
				<path fill="#FFFFFF" d="M45.4,65.1c0.3,0.3,0.5,0.7,0.2,0.9c-0.2,0.2-0.7-0.4-0.7-0.7C44.9,65.2,45,64.8,45.4,65.1z"/>
				<path fill="#FFFFFF" d="M43.4,63.7c0,0,2.9,0.7,2.1,4.1c0,0,0.8-1.2,0.3-2.5C45.5,64.6,44.7,63.7,43.4,63.7z"/>
				<path fill="#FFFFFF" d="M42.5,68.8c0,0-1.8-0.5-1.8-2.8c0,0-0.4,0.9,0.1,1.8C41.1,68.3,41.7,68.8,42.5,68.8z"/>
			</g>
		</g>
		<g>
			<path opacity="0.6" fill="#CAEFFD" d="M36.9,41.9c-1.8-0.8-3.6,0.3-4,1.9c-0.4,1.6,0.2,3,1.8,3.6c1.3,0.5,2.8,0,3.5-1.4
				C39.1,44.5,38.6,42.6,36.9,41.9z"/>
			<g>
				<path opacity="0.43" fill="#91E7FA" d="M36.9,46.8c0,0,0.5-1.4-0.2-2.6c-0.9-1.5-2.4-1.8-2.4-1.8s2.2-1.7,3.6,1.2
					C39,46,36.9,46.8,36.9,46.8z"/>
				<path fill="#8BC3EB" d="M36.3,41.2c-1.8-0.4-3.2,0.6-3.7,2.3c-0.5,1.7,0.2,3.3,1.9,4c1.2,0.5,2.7,0.5,3.9-1.1
					C39.8,44.4,38.5,41.7,36.3,41.2z M34.6,47.5c-1.7-0.7-2.4-2.4-1.9-3.8c0.6-1.8,2.4-3,4.3-2.1c1.8,0.8,2.4,2.9,1.5,4.5
					C37.7,47.4,35.9,48.1,34.6,47.5z"/>
				<path fill="#91E7FA" d="M37,41.6c-1.8-0.8-3.7,0.3-4.3,2.1c-0.5,1.4,0.2,3.1,1.9,3.8c1.3,0.6,3.1,0,3.8-1.4
					C39.3,44.5,38.7,42.4,37,41.6z M34.7,47.4c-1.6-0.7-2.3-2-1.8-3.6c0.4-1.6,2.2-2.7,4-1.9c1.7,0.8,2.2,2.6,1.4,4.1
					C37.5,47.3,36,47.9,34.7,47.4z"/>
				<path fill="#FFFFFF" d="M37.8,43.4c0.3,0.3,0.5,0.7,0.2,0.9c-0.2,0.2-0.7-0.4-0.7-0.7C37.3,43.4,37.4,43.1,37.8,43.4z"/>
				<path fill="#FFFFFF" d="M35.8,42c0,0,2.9,0.7,2.1,4.1c0,0,0.8-1.2,0.3-2.5C37.9,42.8,37.1,41.9,35.8,42z"/>
				<path fill="#FFFFFF" d="M34.9,47.1c0,0-1.8-0.5-1.8-2.8c0,0-0.4,0.9,0.1,1.8C33.5,46.5,34.1,47,34.9,47.1z"/>
			</g>
		</g>
		<g>
			<path opacity="0.6" fill="#CAEFFD" d="M40.9,4.5c-0.9-0.3-1.8,0.1-2,0.8c-0.2,0.7,0.1,1.2,0.9,1.5c0.7,0.2,1.4,0,1.8-0.6
				C42,5.6,41.7,4.8,40.9,4.5z"/>
			<g>
				<path opacity="0.43" fill="#91E7FA" d="M40.9,6.6c0,0,0.3-0.6-0.1-1.1c-0.4-0.6-1.2-0.7-1.2-0.7s1.1-0.7,1.8,0.5
					C41.9,6.2,40.9,6.6,40.9,6.6z"/>
				<path fill="#8BC3EB" d="M40.6,4.2c-0.9-0.2-1.6,0.2-1.9,1c-0.3,0.7,0.1,1.4,0.9,1.6C40.3,7,41,7,41.6,6.4
					C42.4,5.5,41.7,4.4,40.6,4.2z M39.7,6.8c-0.9-0.3-1.2-1-1-1.6C39,4.5,40,4,40.9,4.4c0.9,0.3,1.2,1.2,0.7,1.9
					C41.3,6.8,40.4,7.1,39.7,6.8z"/>
				<path fill="#91E7FA" d="M40.9,4.4C40,4,39,4.5,38.7,5.2c-0.2,0.6,0.1,1.3,1,1.6c0.7,0.2,1.6,0,2-0.6C42.1,5.6,41.8,4.7,40.9,4.4
					z M39.8,6.8c-0.8-0.3-1.2-0.8-0.9-1.5c0.2-0.7,1.1-1.1,2-0.8c0.9,0.3,1.1,1.1,0.7,1.7C41.2,6.8,40.4,7,39.8,6.8z"/>
				<path fill="#FFFFFF" d="M41.3,5.1c0.2,0.1,0.2,0.3,0.1,0.4c-0.1,0.1-0.3-0.2-0.4-0.3C41.1,5.1,41.1,5,41.3,5.1z"/>
				<path fill="#FFFFFF" d="M40.3,4.5c0,0,1.5,0.3,1.1,1.7c0,0,0.4-0.5,0.1-1.1C41.4,4.9,41,4.5,40.3,4.5z"/>
				<path fill="#FFFFFF" d="M39.9,6.6c0,0-0.9-0.2-0.9-1.2c0,0-0.2,0.4,0.1,0.8C39.2,6.4,39.5,6.6,39.9,6.6z"/>
			</g>
		</g>
		<g>
			<path opacity="0.6" fill="#CAEFFD" d="M36.9,10.7c-0.7-0.3-1.5,0.1-1.6,0.8c-0.2,0.7,0.1,1.2,0.8,1.5c0.5,0.2,1.2,0,1.5-0.5
				C37.8,11.8,37.6,11,36.9,10.7z"/>
			<g>
				<path opacity="0.43" fill="#91E7FA" d="M36.9,12.7c0,0,0.2-0.6-0.1-1c-0.4-0.6-1-0.7-1-0.7s0.9-0.7,1.5,0.5
					C37.8,12.4,36.9,12.7,36.9,12.7z"/>
				<path fill="#8BC3EB" d="M36.7,10.5c-0.7-0.1-1.3,0.2-1.5,0.9c-0.2,0.7,0.1,1.3,0.8,1.6c0.5,0.2,1.1,0.2,1.6-0.5
					C38.1,11.7,37.6,10.7,36.7,10.5z M36,13c-0.7-0.3-1-1-0.8-1.5c0.2-0.7,1-1.2,1.8-0.9c0.7,0.3,1,1.2,0.6,1.8
					C37.2,13,36.5,13.2,36,13z"/>
				<path fill="#91E7FA" d="M37,10.6c-0.8-0.3-1.5,0.1-1.8,0.9C35,12,35.3,12.7,36,13c0.6,0.2,1.3,0,1.6-0.6
					C37.9,11.8,37.7,10.9,37,10.6z M36,12.9c-0.7-0.3-0.9-0.8-0.8-1.5c0.2-0.7,0.9-1.1,1.6-0.8c0.7,0.3,0.9,1,0.6,1.7
					C37.2,12.9,36.6,13.2,36,12.9z"/>
				<path fill="#FFFFFF" d="M37.3,11.3c0.1,0.1,0.2,0.3,0.1,0.4c-0.1,0.1-0.3-0.1-0.3-0.3C37.1,11.4,37.1,11.2,37.3,11.3z"/>
				<path fill="#FFFFFF" d="M36.5,10.8c0,0,1.2,0.3,0.9,1.6c0,0,0.3-0.5,0.1-1C37.4,11.1,37,10.8,36.5,10.8z"/>
				<path fill="#FFFFFF" d="M36.1,12.8c0,0-0.7-0.2-0.7-1.1c0,0-0.2,0.4,0.1,0.7C35.5,12.6,35.8,12.8,36.1,12.8z"/>
			</g>
		</g>
		<g>
			<path opacity="0.6" fill="#CAEFFD" d="M24.4,45.6c-0.5-0.2-1.1,0.1-1.2,0.5c-0.1,0.5,0.1,0.9,0.5,1.1c0.4,0.2,0.8,0,1.1-0.4
				C25,46.4,24.9,45.8,24.4,45.6z"/>
			<g>
				<path opacity="0.43" fill="#91E7FA" d="M24.3,47.1c0,0,0.2-0.4-0.1-0.8c-0.3-0.4-0.7-0.5-0.7-0.5s0.7-0.5,1.1,0.3
					C25,46.8,24.3,47.1,24.3,47.1z"/>
				<path fill="#8BC3EB" d="M24.2,45.4c-0.5-0.1-1,0.2-1.1,0.7c-0.2,0.5,0,1,0.6,1.2c0.4,0.1,0.8,0.1,1.2-0.3
					C25.2,46.3,24.8,45.6,24.2,45.4z M23.7,47.3c-0.5-0.2-0.7-0.7-0.6-1.1c0.2-0.5,0.7-0.9,1.3-0.6c0.5,0.2,0.7,0.9,0.4,1.3
					C24.6,47.2,24.1,47.4,23.7,47.3z"/>
				<path fill="#91E7FA" d="M24.4,45.5c-0.5-0.2-1.1,0.1-1.3,0.6c-0.1,0.4,0.1,0.9,0.6,1.1c0.4,0.2,0.9,0,1.1-0.4
					C25.1,46.4,24.9,45.8,24.4,45.5z M23.7,47.2c-0.5-0.2-0.7-0.6-0.5-1.1c0.1-0.5,0.7-0.8,1.2-0.5c0.5,0.2,0.7,0.8,0.4,1.2
					C24.5,47.2,24.1,47.4,23.7,47.2z"/>
				<path fill="#FFFFFF" d="M24.6,46.1c0.1,0.1,0.1,0.2,0.1,0.3c-0.1,0.1-0.2-0.1-0.2-0.2C24.5,46.1,24.5,46,24.6,46.1z"/>
				<path fill="#FFFFFF" d="M24,45.6c0,0,0.9,0.2,0.6,1.2c0,0,0.2-0.3,0.1-0.7C24.7,45.9,24.4,45.6,24,45.6z"/>
				<path fill="#FFFFFF" d="M23.8,47.1c0,0-0.5-0.1-0.5-0.8c0,0-0.1,0.3,0,0.5C23.4,47,23.5,47.1,23.8,47.1z"/>
			</g>
		</g>
		<g>
			<path opacity="0.6" fill="#CAEFFD" d="M42.8,73.3c-0.5-0.2-1.1,0.1-1.2,0.5c-0.1,0.5,0.1,0.9,0.5,1.1c0.4,0.2,0.8,0,1.1-0.4
				C43.4,74,43.3,73.5,42.8,73.3z"/>
			<g>
				<path opacity="0.43" fill="#91E7FA" d="M42.8,74.7c0,0,0.2-0.4-0.1-0.8c-0.3-0.4-0.7-0.5-0.7-0.5s0.7-0.5,1.1,0.3
					C43.4,74.5,42.8,74.7,42.8,74.7z"/>
				<path fill="#8BC3EB" d="M42.6,73.1c-0.5-0.1-1,0.2-1.1,0.7c-0.2,0.5,0,1,0.6,1.2c0.4,0.1,0.8,0.1,1.2-0.3
					C43.7,74,43.3,73.2,42.6,73.1z M42.1,74.9c-0.5-0.2-0.7-0.7-0.6-1.1c0.2-0.5,0.7-0.9,1.3-0.6c0.5,0.2,0.7,0.9,0.4,1.3
					C43,74.9,42.5,75.1,42.1,74.9z"/>
				<path fill="#91E7FA" d="M42.8,73.2c-0.5-0.2-1.1,0.1-1.3,0.6c-0.1,0.4,0.1,0.9,0.6,1.1c0.4,0.2,0.9,0,1.1-0.4
					C43.5,74,43.3,73.4,42.8,73.2z M42.1,74.9c-0.5-0.2-0.7-0.6-0.5-1.1c0.1-0.5,0.7-0.8,1.2-0.5c0.5,0.2,0.7,0.8,0.4,1.2
					C43,74.9,42.5,75,42.1,74.9z"/>
				<path fill="#FFFFFF" d="M43,73.7c0.1,0.1,0.1,0.2,0.1,0.3c-0.1,0.1-0.2-0.1-0.2-0.2C42.9,73.7,42.9,73.6,43,73.7z"/>
				<path fill="#FFFFFF" d="M42.5,73.3c0,0,0.9,0.2,0.6,1.2c0,0,0.2-0.3,0.1-0.7C43.1,73.5,42.8,73.3,42.5,73.3z"/>
				<path fill="#FFFFFF" d="M42.2,74.8c0,0-0.5-0.1-0.5-0.8c0,0-0.1,0.3,0,0.5C41.8,74.6,42,74.8,42.2,74.8z"/>
			</g>
		</g>
		<g>
			<path opacity="0.6" fill="#CAEFFD" d="M45.2,17.8c-0.5-0.2-1.1,0.1-1.2,0.5c-0.1,0.5,0.1,0.9,0.5,1.1c0.4,0.2,0.8,0,1.1-0.4
				C45.9,18.5,45.7,18,45.2,17.8z"/>
			<g>
				<path opacity="0.43" fill="#91E7FA" d="M45.2,19.2c0,0,0.2-0.4-0.1-0.8c-0.3-0.4-0.7-0.5-0.7-0.5s0.7-0.5,1.1,0.3
					C45.8,19,45.2,19.2,45.2,19.2z"/>
				<path fill="#8BC3EB" d="M45,17.6c-0.5-0.1-1,0.2-1.1,0.7c-0.2,0.5,0,1,0.6,1.2c0.4,0.1,0.8,0.1,1.2-0.3
					C46.1,18.5,45.7,17.7,45,17.6z M44.5,19.4c-0.5-0.2-0.7-0.7-0.6-1.1c0.2-0.5,0.7-0.9,1.3-0.6c0.5,0.2,0.7,0.9,0.4,1.3
					C45.4,19.4,44.9,19.6,44.5,19.4z"/>
				<path fill="#91E7FA" d="M45.2,17.7c-0.5-0.2-1.1,0.1-1.3,0.6c-0.1,0.4,0.1,0.9,0.6,1.1c0.4,0.2,0.9,0,1.1-0.4
					C45.9,18.5,45.8,17.9,45.2,17.7z M44.6,19.4c-0.5-0.2-0.7-0.6-0.5-1.1c0.1-0.5,0.7-0.8,1.2-0.5c0.5,0.2,0.7,0.8,0.4,1.2
					C45.4,19.4,45,19.5,44.6,19.4z"/>
				<path fill="#FFFFFF" d="M45.5,18.2c0.1,0.1,0.1,0.2,0.1,0.3c-0.1,0.1-0.2-0.1-0.2-0.2C45.3,18.2,45.4,18.1,45.5,18.2z"/>
				<path fill="#FFFFFF" d="M44.9,17.8c0,0,0.9,0.2,0.6,1.2c0,0,0.2-0.3,0.1-0.7C45.5,18,45.3,17.8,44.9,17.8z"/>
				<path fill="#FFFFFF" d="M44.6,19.3c0,0-0.5-0.1-0.5-0.8c0,0-0.1,0.3,0,0.5C44.2,19.1,44.4,19.3,44.6,19.3z"/>
			</g>
		</g>
		<g>
			<path opacity="0.6" fill="#CAEFFD" d="M38.6,1.2c-0.5-0.2-1.1,0.1-1.2,0.5c-0.1,0.5,0.1,0.9,0.5,1.1c0.4,0.2,0.8,0,1.1-0.4
				C39.3,2,39.2,1.4,38.6,1.2z"/>
			<g>
				<path opacity="0.43" fill="#91E7FA" d="M38.6,2.7c0,0,0.2-0.4-0.1-0.8c-0.3-0.4-0.7-0.5-0.7-0.5s0.7-0.5,1.1,0.3
					C39.3,2.4,38.6,2.7,38.6,2.7z"/>
				<path fill="#8BC3EB" d="M38.5,1c-0.5-0.1-1,0.2-1.1,0.7c-0.2,0.5,0,1,0.6,1.2C38.3,3,38.7,3,39.1,2.5C39.5,1.9,39.1,1.2,38.5,1z
					 M38,2.9c-0.5-0.2-0.7-0.7-0.6-1.1c0.2-0.5,0.7-0.9,1.3-0.6c0.5,0.2,0.7,0.9,0.4,1.3C38.9,2.8,38.4,3,38,2.9z"/>
				<path fill="#91E7FA" d="M38.7,1.1c-0.5-0.2-1.1,0.1-1.3,0.6c-0.1,0.4,0.1,0.9,0.6,1.1c0.4,0.2,0.9,0,1.1-0.4
					C39.4,2,39.2,1.4,38.7,1.1z M38,2.8c-0.5-0.2-0.7-0.6-0.5-1.1c0.1-0.5,0.7-0.8,1.2-0.5c0.5,0.2,0.7,0.8,0.4,1.2
					C38.8,2.8,38.4,3,38,2.8z"/>
				<path fill="#FFFFFF" d="M38.9,1.7C39,1.7,39,1.9,39,1.9c-0.1,0.1-0.2-0.1-0.2-0.2C38.8,1.7,38.8,1.6,38.9,1.7z"/>
				<path fill="#FFFFFF" d="M38.3,1.2c0,0,0.9,0.2,0.6,1.2c0,0,0.2-0.3,0.1-0.7C39,1.5,38.7,1.2,38.3,1.2z"/>
				<path fill="#FFFFFF" d="M38.1,2.7c0,0-0.5-0.1-0.5-0.8c0,0-0.1,0.3,0,0.5C37.6,2.6,37.8,2.7,38.1,2.7z"/>
			</g>
		</g>
		<g>
			<path opacity="0.6" fill="#CAEFFD" d="M38.6,7.1c-1.3-0.4-2.5,0.1-2.9,1c-0.3,0.9,0.2,1.6,1.3,1.9c0.9,0.3,2,0,2.5-0.7
				C40.2,8.5,39.9,7.5,38.6,7.1z"/>
			<g>
				<path opacity="0.43" fill="#91E7FA" d="M38.6,9.8c0,0,0.4-0.7-0.1-1.4c-0.6-0.8-1.7-1-1.7-1s1.6-0.9,2.6,0.6
					C40.1,9.3,38.6,9.8,38.6,9.8z"/>
				<path fill="#8BC3EB" d="M38.3,6.8C37,6.6,36,7.1,35.6,8c-0.4,0.9,0.1,1.7,1.3,2.1c0.9,0.3,1.9,0.2,2.8-0.6
					C40.7,8.5,39.8,7,38.3,6.8z M37,10.1c-1.2-0.4-1.7-1.3-1.4-2c0.4-1,1.7-1.6,3.1-1.1c1.3,0.4,1.7,1.6,1,2.4
					C39.2,10.1,38,10.4,37,10.1z"/>
				<path fill="#91E7FA" d="M38.7,7c-1.3-0.4-2.6,0.2-3.1,1.1c-0.3,0.8,0.2,1.6,1.4,2c1,0.3,2.2,0,2.7-0.7C40.4,8.5,40,7.4,38.7,7z
					 M37.1,10.1c-1.1-0.3-1.6-1.1-1.3-1.9c0.3-0.9,1.6-1.4,2.9-1c1.2,0.4,1.6,1.4,1,2.2C39.1,10.1,38,10.4,37.1,10.1z"/>
				<path fill="#FFFFFF" d="M39.3,7.9c0.2,0.1,0.3,0.4,0.2,0.5c-0.2,0.1-0.5-0.2-0.5-0.4C38.9,8,39,7.8,39.3,7.9z"/>
				<path fill="#FFFFFF" d="M37.9,7.2c0,0,2,0.4,1.5,2.2c0,0,0.6-0.6,0.2-1.4C39.4,7.6,38.8,7.2,37.9,7.2z"/>
				<path fill="#FFFFFF" d="M37.2,9.9c0,0-1.3-0.3-1.3-1.5c0,0-0.3,0.5,0.1,1C36.2,9.6,36.7,9.9,37.2,9.9z"/>
			</g>
		</g>
		<g>
			<path opacity="0.6" fill="#CAEFFD" d="M28.8,47.4c-1-0.4-2,0.1-2.2,1c-0.2,0.9,0.1,1.6,1,2c0.7,0.3,1.6,0,2-0.7
				C30.1,48.8,29.8,47.8,28.8,47.4z"/>
			<g>
				<path opacity="0.43" fill="#91E7FA" d="M28.8,50.1c0,0,0.3-0.8-0.1-1.4c-0.5-0.8-1.4-1-1.4-1s1.2-1,2,0.6
					C30,49.6,28.8,50.1,28.8,50.1z"/>
				<path fill="#8BC3EB" d="M28.5,47c-1-0.2-1.8,0.3-2.1,1.3c-0.3,0.9,0.1,1.8,1,2.2c0.7,0.3,1.5,0.3,2.2-0.6
					C30.5,48.7,29.7,47.3,28.5,47z M27.5,50.5c-0.9-0.4-1.3-1.3-1.1-2.1c0.3-1,1.4-1.6,2.4-1.2c1,0.4,1.3,1.6,0.8,2.5
					C29.2,50.4,28.3,50.8,27.5,50.5z"/>
				<path fill="#91E7FA" d="M28.9,47.2c-1-0.5-2.1,0.2-2.4,1.2c-0.3,0.8,0.1,1.7,1.1,2.1c0.8,0.3,1.7,0,2.1-0.8
					C30.2,48.8,29.9,47.6,28.9,47.2z M27.6,50.4c-0.9-0.4-1.3-1.1-1-2c0.2-0.9,1.3-1.5,2.2-1c1,0.4,1.3,1.4,0.8,2.3
					C29.2,50.4,28.3,50.7,27.6,50.4z"/>
				<path fill="#FFFFFF" d="M29.3,48.2c0.2,0.2,0.3,0.4,0.1,0.5c-0.1,0.1-0.4-0.2-0.4-0.4C29,48.2,29.1,48,29.3,48.2z"/>
				<path fill="#FFFFFF" d="M28.2,47.4c0,0,1.6,0.4,1.2,2.2c0,0,0.5-0.6,0.2-1.4C29.4,47.9,28.9,47.4,28.2,47.4z"/>
				<path fill="#FFFFFF" d="M27.7,50.2c0,0-1-0.3-1-1.5c0,0-0.2,0.5,0.1,1C26.9,49.9,27.3,50.2,27.7,50.2z"/>
			</g>
		</g>
		<g>
			<path opacity="0.6" fill="#CAEFFD" d="M39.4,69.7c-1-0.4-2,0.1-2.2,1c-0.2,0.9,0.1,1.6,1,2c0.7,0.3,1.6,0,2-0.7
				C40.6,71.1,40.3,70.1,39.4,69.7z"/>
			<g>
				<path opacity="0.43" fill="#91E7FA" d="M39.3,72.4c0,0,0.3-0.8-0.1-1.4c-0.5-0.8-1.4-1-1.4-1s1.2-1,2,0.6
					C40.5,72,39.3,72.4,39.3,72.4z"/>
				<path fill="#8BC3EB" d="M39.1,69.4c-1-0.2-1.8,0.3-2.1,1.3c-0.3,0.9,0.1,1.8,1,2.2c0.7,0.3,1.5,0.3,2.2-0.6
					C41,71.1,40.3,69.6,39.1,69.4z M38.1,72.8c-0.9-0.4-1.3-1.3-1.1-2.1c0.3-1,1.4-1.6,2.4-1.2c1,0.4,1.3,1.6,0.8,2.5
					C39.8,72.8,38.8,73.1,38.1,72.8z"/>
				<path fill="#91E7FA" d="M39.4,69.5c-1-0.5-2.1,0.2-2.4,1.2c-0.3,0.8,0.1,1.7,1.1,2.1c0.8,0.3,1.7,0,2.1-0.8
					C40.7,71.2,40.4,70,39.4,69.5z M38.1,72.7c-0.9-0.4-1.3-1.1-1-2c0.2-0.9,1.3-1.5,2.2-1c1,0.4,1.3,1.4,0.8,2.3
					C39.7,72.7,38.9,73,38.1,72.7z"/>
				<path fill="#FFFFFF" d="M39.9,70.5c0.2,0.2,0.3,0.4,0.1,0.5c-0.1,0.1-0.4-0.2-0.4-0.4C39.6,70.6,39.7,70.4,39.9,70.5z"/>
				<path fill="#FFFFFF" d="M38.8,69.8c0,0,1.6,0.4,1.2,2.2c0,0,0.5-0.6,0.2-1.4C40,70.2,39.5,69.7,38.8,69.8z"/>
				<path fill="#FFFFFF" d="M38.3,72.6c0,0-1-0.3-1-1.5c0,0-0.2,0.5,0.1,1C37.5,72.3,37.8,72.5,38.3,72.6z"/>
			</g>
		</g>
		<g>
			<path opacity="0.6" fill="#CAEFFD" d="M35.8,26.4c-0.8-0.4-1.7,0.1-1.9,0.9c-0.2,0.8,0.1,1.4,0.9,1.7c0.6,0.2,1.3,0,1.7-0.6
				C36.9,27.6,36.6,26.8,35.8,26.4z"/>
			<g>
				<path opacity="0.43" fill="#91E7FA" d="M35.8,28.7c0,0,0.2-0.6-0.1-1.2c-0.4-0.7-1.1-0.8-1.1-0.8s1-0.8,1.7,0.5
					C36.8,28.3,35.8,28.7,35.8,28.7z"/>
				<path fill="#8BC3EB" d="M35.6,26.1c-0.8-0.2-1.5,0.3-1.7,1.1c-0.2,0.8,0.1,1.5,0.9,1.8c0.6,0.2,1.2,0.2,1.8-0.5
					C37.2,27.6,36.6,26.3,35.6,26.1z M34.8,29c-0.8-0.3-1.1-1.1-0.9-1.7c0.3-0.8,1.1-1.4,2-1c0.8,0.4,1.1,1.3,0.7,2.1
					C36.2,29,35.4,29.3,34.8,29z"/>
				<path fill="#91E7FA" d="M35.9,26.3c-0.9-0.4-1.7,0.2-2,1c-0.2,0.7,0.1,1.4,0.9,1.7c0.6,0.3,1.4,0,1.8-0.6
					C37,27.6,36.7,26.6,35.9,26.3z M34.8,28.9c-0.8-0.3-1.1-0.9-0.9-1.7c0.2-0.7,1.1-1.2,1.9-0.9c0.8,0.4,1,1.2,0.6,1.9
					C36.1,28.9,35.4,29.2,34.8,28.9z"/>
				<path fill="#FFFFFF" d="M36.2,27.1c0.1,0.1,0.2,0.3,0.1,0.4c-0.1,0.1-0.3-0.2-0.3-0.3C36,27.1,36.1,27,36.2,27.1z"/>
				<path fill="#FFFFFF" d="M35.3,26.5c0,0,1.3,0.3,1,1.9c0,0,0.4-0.5,0.1-1.2C36.3,26.8,35.9,26.4,35.3,26.5z"/>
				<path fill="#FFFFFF" d="M34.9,28.8c0,0-0.8-0.2-0.8-1.3c0,0-0.2,0.4,0.1,0.8C34.3,28.5,34.5,28.8,34.9,28.8z"/>
			</g>
		</g>
		<g>
			<path opacity="0.6" fill="#CAEFFD" d="M47.9,50c-0.8-0.4-1.7,0.1-1.9,0.9c-0.2,0.8,0.1,1.4,0.9,1.7c0.6,0.2,1.3,0,1.7-0.6
				C48.9,51.2,48.7,50.4,47.9,50z"/>
			<g>
				<path opacity="0.43" fill="#91E7FA" d="M47.9,52.3c0,0,0.2-0.6-0.1-1.2c-0.4-0.7-1.1-0.8-1.1-0.8s1-0.8,1.7,0.5
					C48.9,51.9,47.9,52.3,47.9,52.3z"/>
				<path fill="#8BC3EB" d="M47.7,49.7c-0.8-0.2-1.5,0.3-1.7,1.1c-0.2,0.8,0.1,1.5,0.9,1.8c0.6,0.2,1.2,0.2,1.8-0.5
					C49.3,51.2,48.7,49.9,47.7,49.7z M46.8,52.6c-0.8-0.3-1.1-1.1-0.9-1.7c0.3-0.8,1.1-1.4,2-1c0.8,0.4,1.1,1.3,0.7,2.1
					C48.3,52.6,47.5,52.9,46.8,52.6z"/>
				<path fill="#91E7FA" d="M47.9,49.9c-0.9-0.4-1.7,0.2-2,1c-0.2,0.7,0.1,1.4,0.9,1.7c0.6,0.3,1.4,0,1.8-0.6
					C49,51.2,48.8,50.3,47.9,49.9z M46.9,52.6c-0.8-0.3-1.1-0.9-0.9-1.7c0.2-0.7,1.1-1.2,1.9-0.9c0.8,0.4,1,1.2,0.6,1.9
					C48.2,52.5,47.5,52.8,46.9,52.6z"/>
				<path fill="#FFFFFF" d="M48.3,50.7c0.1,0.1,0.2,0.3,0.1,0.4c-0.1,0.1-0.3-0.2-0.3-0.3C48.1,50.8,48.2,50.6,48.3,50.7z"/>
				<path fill="#FFFFFF" d="M47.4,50.1c0,0,1.3,0.3,1,1.9c0,0,0.4-0.5,0.1-1.2C48.4,50.5,48,50,47.4,50.1z"/>
				<path fill="#FFFFFF" d="M47,52.4c0,0-0.8-0.2-0.8-1.3c0,0-0.2,0.4,0.1,0.8C46.3,52.2,46.6,52.4,47,52.4z"/>
			</g>
		</g>
		<g>
			<path opacity="0.6" fill="#CAEFFD" d="M23.5,52.3c-3.3,0.2-5,2.5-4.6,4.6c0.4,2,2,3.4,4.8,3.9c2.7,0.5,5.3-0.7,5.9-3.1
				C30.4,54.7,27.6,52,23.5,52.3z"/>
			<g>
				<path opacity="0.43" fill="#91E7FA" d="M27.1,59.6c0,0,0-2.2-2.3-3.7c-2.5-1.6-5-1.1-5-1.1s2-3.8,6.9-0.5
					C31.4,57.4,27.1,59.6,27.1,59.6z"/>
				<path fill="#8BC3EB" d="M22.1,51.8c-2.9,0.8-4,2.7-3.6,5c0.4,2.1,2.1,3.8,4.9,4.3c2.4,0.5,5.2,0.1,6.7-2.7
					C32.4,54,26.5,50.6,22.1,51.8z M23.6,61c-2.8-0.6-4.6-2.3-4.9-4.1c-0.4-2.4,1.3-4.9,4.8-5.2c4.3-0.3,7.6,2.9,6.6,6.1
					C29.4,60.3,26.3,61.6,23.6,61z"/>
				<path fill="#91E7FA" d="M23.4,51.8c-3.5,0.2-5.1,2.8-4.8,5.2c0.3,1.8,2.1,3.5,4.9,4.1c2.7,0.5,5.8-0.8,6.5-3.2
					C31,54.6,27.7,51.5,23.4,51.8z M23.7,60.8c-2.7-0.5-4.3-1.9-4.8-3.9c-0.4-2.1,1.3-4.5,4.6-4.6c4.1-0.2,6.9,2.4,6.1,5.5
					C29,60.1,26.3,61.3,23.7,60.8z"/>
				<path fill="#FFFFFF" d="M26.4,53.9c0.9,0.2,1.6,0.8,1.2,1.3c-0.4,0.4-1.7-0.1-2-0.6C25.4,54.4,25.4,53.7,26.4,53.9z"/>
				<path fill="#FFFFFF" d="M21.8,53.2c0,0,6-1.2,7.1,4.8c0,0,1-2.3-1.4-4.2C26.3,52.9,23.9,52.2,21.8,53.2z"/>
				<path fill="#FFFFFF" d="M23.8,60.4c0,0-2.9-0.2-4.2-3c0,0,0.1,1.2,1.3,2.2C21.4,60,22.6,60.5,23.8,60.4z"/>
			</g>
		</g>
		<g>
			<path opacity="0.6" fill="#CAEFFD" d="M29.6,36.2c-1.9-1-3.8,0.3-4.3,2.5c-0.5,2.1,0.2,3.9,2,4.8c1.4,0.7,3,0,3.8-1.8
				C32,39.6,31.4,37.2,29.6,36.2z"/>
			<g>
				<path opacity="0.43" fill="#91E7FA" d="M29.5,42.8c0,0,0.5-1.8-0.2-3.4c-0.9-1.9-2.6-2.4-2.6-2.4s2.3-2.3,3.8,1.5
					C31.8,41.7,29.5,42.8,29.5,42.8z"/>
				<path fill="#8BC3EB" d="M29,35.4c-1.9-0.5-3.4,0.7-4,3.1c-0.5,2.2,0.2,4.3,2,5.2c1.3,0.7,2.8,0.6,4.1-1.5
					C32.7,39.5,31.3,36,29,35.4z M27.1,43.6c-1.8-0.9-2.5-3.1-2-5c0.6-2.4,2.6-3.9,4.6-2.8c1.9,1.1,2.5,3.9,1.6,5.9
					C30.4,43.5,28.6,44.4,27.1,43.6z"/>
				<path fill="#91E7FA" d="M29.7,35.8c-2-1.1-4,0.4-4.6,2.8c-0.5,1.9,0.3,4,2,5c1.4,0.8,3.3-0.1,4.1-1.8
					C32.2,39.7,31.6,36.9,29.7,35.8z M27.3,43.4c-1.7-0.9-2.4-2.6-2-4.8c0.5-2.1,2.4-3.5,4.3-2.5c1.8,1,2.4,3.4,1.5,5.4
					C30.3,43.4,28.7,44.1,27.3,43.4z"/>
				<path fill="#FFFFFF" d="M30.5,38.2c0.3,0.4,0.5,1,0.2,1.2c-0.3,0.2-0.7-0.5-0.8-0.9C30,38.3,30.1,37.8,30.5,38.2z"/>
				<path fill="#FFFFFF" d="M28.4,36.4c0,0,3.1,0.9,2.3,5.4c0,0,0.9-1.5,0.3-3.3C30.7,37.5,29.8,36.3,28.4,36.4z"/>
				<path fill="#FFFFFF" d="M27.5,43c0,0-1.9-0.7-1.9-3.7c0,0-0.4,1.2,0.1,2.4C26,42.3,26.6,43,27.5,43z"/>
			</g>
		</g>
		<g>
			<path opacity="0.6" fill="#CAEFFD" d="M21.9,28.9c-2-0.6-3.7,0.5-4.1,1.8c-0.4,1.4,0,2.6,1.5,3.6c1.5,0.9,3.5,0.7,4.6-0.7
				C25.3,31.8,24.3,29.6,21.9,28.9z"/>
			<g>
				<path opacity="0.43" fill="#91E7FA" d="M21.8,34.3c0,0,0.7-1.5-0.2-2.9c-1-1.5-2.6-1.8-2.6-1.8s2.3-1.8,4.2,1.1
					C25.1,33.8,21.8,34.3,21.8,34.3z"/>
				<path fill="#8BC3EB" d="M21.3,28.3c-1.9-0.1-3.2,0.8-3.7,2.3c-0.5,1.4,0,2.9,1.5,3.8c1.3,0.9,3.1,1.3,5-0.3
					C26.6,31.8,24.2,28.5,21.3,28.3z M19.2,34.4c-1.5-1-2-2.6-1.6-3.7c0.6-1.5,2.3-2.7,4.4-2.1c2.6,0.7,3.6,3.3,2.1,5.2
					C23,35.2,20.6,35.4,19.2,34.4z"/>
				<path fill="#91E7FA" d="M22,28.6c-2.1-0.6-3.8,0.6-4.4,2.1c-0.4,1.2,0,2.7,1.6,3.7c1.5,1,3.8,0.8,5-0.6
					C25.6,31.9,24.6,29.3,22,28.6z M19.3,34.3c-1.5-0.9-2-2.2-1.5-3.6c0.4-1.4,2.2-2.4,4.1-1.8c2.4,0.7,3.4,3,2,4.7
					C22.8,35.1,20.8,35.3,19.3,34.3z"/>
				<path fill="#FFFFFF" d="M23.1,30.5c0.4,0.3,0.7,0.9,0.3,1.1c-0.4,0.2-1-0.5-1-0.8C22.4,30.5,22.6,30.1,23.1,30.5z"/>
				<path fill="#FFFFFF" d="M20.6,29.1c0,0,3.8,0.6,2.7,4.5c0,0,1.3-1.3,0.4-3C23.4,29.8,22.2,28.9,20.6,29.1z"/>
				<path fill="#FFFFFF" d="M19.5,34.1c0,0-1.7-0.8-1.5-2.9c0,0-0.4,0.8,0,1.7C18.2,33.3,18.7,33.9,19.5,34.1z"/>
			</g>
		</g>
		<g>
			<path opacity="0.6" fill="#CAEFFD" d="M40.9,21.5c-1.4-0.4-2.6,0.4-2.9,1.4c-0.3,1,0,2,1.1,2.7c1,0.7,2.4,0.6,3.2-0.5
				C43.3,23.7,42.6,22,40.9,21.5z"/>
			<g>
				<path opacity="0.43" fill="#91E7FA" d="M40.9,25.5c0,0,0.5-1.1-0.2-2.2C40,22.2,38.9,22,38.9,22s1.6-1.4,2.9,0.9
					C43.1,25.2,40.9,25.5,40.9,25.5z"/>
				<path fill="#8BC3EB" d="M40.5,21c-1.3-0.1-2.2,0.6-2.6,1.7c-0.3,1,0,2.2,1,2.9c0.9,0.7,2.2,1,3.4-0.2
					C44.2,23.7,42.5,21.2,40.5,21z M39,25.6c-1.1-0.8-1.4-1.9-1.1-2.8c0.4-1.1,1.6-2,3.1-1.6c1.8,0.5,2.5,2.5,1.5,3.9
					C41.7,26.3,40.1,26.4,39,25.6z"/>
				<path fill="#91E7FA" d="M41,21.2c-1.4-0.4-2.7,0.5-3.1,1.6c-0.3,0.9,0,2.1,1.1,2.8c1,0.7,2.6,0.6,3.5-0.5
					C43.5,23.7,42.8,21.7,41,21.2z M39.1,25.6c-1-0.7-1.4-1.7-1.1-2.7c0.3-1,1.5-1.8,2.9-1.4c1.7,0.5,2.3,2.2,1.4,3.6
					C41.5,26.1,40.1,26.3,39.1,25.6z"/>
				<path fill="#FFFFFF" d="M41.8,22.7c0.3,0.2,0.5,0.6,0.2,0.8c-0.2,0.1-0.7-0.3-0.7-0.6C41.3,22.7,41.4,22.4,41.8,22.7z"/>
				<path fill="#FFFFFF" d="M40,21.6c0,0,2.7,0.4,1.9,3.4c0,0,0.9-1,0.3-2.3C42,22.2,41.1,21.5,40,21.6z"/>
				<path fill="#FFFFFF" d="M39.3,25.4c0,0-1.2-0.6-1.1-2.2c0,0-0.3,0.6,0,1.3C38.4,24.8,38.7,25.2,39.3,25.4z"/>
			</g>
		</g>
		<g>
			<path opacity="0.6" fill="#CAEFFD" d="M32,24.7c-1.9-0.7-3.7,0.5-4.1,2.3c-0.5,2,0.3,3.7,2.3,4.7c1.8,0.8,3.6-0.1,4.2-2
				C35.1,27.5,34.1,25.4,32,24.7z"/>
			<g>
				<path opacity="0.43" fill="#91E7FA" d="M32.9,30.8c0,0,0.4-1.9-0.7-3.4c-1.2-1.7-2.8-1.9-2.8-1.9s2.1-1.9,4.1,1.1
					C35.4,29.6,32.9,30.8,32.9,30.8z"/>
				<path fill="#8BC3EB" d="M31.4,24c-1.8-0.2-3.2,0.8-3.7,2.7c-0.5,2,0.2,4.1,2.3,5.1c1.6,0.8,3.5,0.7,4.7-1.7
					C36,27.3,33.7,24.3,31.4,24z M30.1,31.8c-2.1-1-2.9-3.2-2.4-4.9c0.6-2,2.4-3.2,4.3-2.6c2.1,0.7,3.3,3.2,2.6,5.3
					C34,31.7,31.9,32.7,30.1,31.8z"/>
				<path fill="#91E7FA" d="M32.1,24.3c-2-0.7-3.8,0.6-4.3,2.6c-0.5,1.7,0.3,3.9,2.4,4.9c1.8,0.9,3.9-0.1,4.6-2.1
					C35.4,27.5,34.2,25.1,32.1,24.3z M30.2,31.6c-2-0.9-2.8-2.7-2.3-4.7c0.4-1.8,2.2-2.9,4.1-2.3c2,0.7,3.1,2.8,2.4,4.9
					C33.8,31.5,32,32.4,30.2,31.6z"/>
				<path fill="#FFFFFF" d="M33.3,26.3c0.4,0.3,0.7,0.8,0.4,1.1c-0.2,0.2-0.9-0.4-1-0.8C32.7,26.4,32.8,25.9,33.3,26.3z"/>
				<path fill="#FFFFFF" d="M30.9,24.9c0,0,3.2,0.5,3.1,4.8c0,0,0.7-1.6-0.2-3.3C33.4,25.6,32.3,24.7,30.9,24.9z"/>
				<path fill="#FFFFFF" d="M30.5,31.2c0,0-2.2-0.7-2.2-3.6c0,0-0.4,1.1,0.2,2.3C28.8,30.4,29.5,31.1,30.5,31.2z"/>
			</g>
		</g>
		<g>
			<path opacity="0.6" fill="#CAEFFD" d="M39.6,51.5c-5-2-10.2,0.7-11.4,4.8c-1.3,4.2,0.7,7.7,5.2,9.4c3.8,1.4,8-0.1,10.1-3.5
				C46,58.2,44.5,53.5,39.6,51.5z"/>
			<g>
				<path opacity="0.43" fill="#91E7FA" d="M39.5,64.4c0,0,1.4-3.5-0.6-6.6c-2.5-3.8-6.9-4.6-6.9-4.6s6.2-4.5,10.3,3
					C45.6,62.2,39.5,64.4,39.5,64.4z"/>
				<path fill="#8BC3EB" d="M38.1,49.9c-5.1-0.9-9.1,1.4-10.6,6c-1.5,4.3,0.5,8.5,5.3,10.2c3.5,1.3,7.6,1.2,11-2.9
					C48.1,58,44.2,51,38.1,49.9z M33.1,66.1c-4.8-1.9-6.8-6.1-5.5-9.8c1.6-4.6,7-7.6,12.2-5.5c5.1,2.1,6.7,7.6,4.2,11.7
					C41.8,65.9,36.9,67.5,33.1,66.1z"/>
				<path fill="#91E7FA" d="M39.8,50.7c-5.2-2.1-10.6,0.9-12.2,5.5c-1.3,3.7,0.7,8,5.5,9.8c3.8,1.5,8.7-0.1,10.9-3.6
					C46.6,58.3,44.9,52.8,39.8,50.7z M33.4,65.7c-4.6-1.7-6.5-5.1-5.2-9.4c1.2-4.2,6.4-6.9,11.4-4.8c4.9,2,6.4,6.7,3.9,10.7
					C41.4,65.7,37.2,67.1,33.4,65.7z"/>
				<path fill="#FFFFFF" d="M42.1,55.5c0.9,0.7,1.3,1.9,0.6,2.4c-0.7,0.5-1.9-0.9-2-1.7C40.7,55.6,41.1,54.6,42.1,55.5z"/>
				<path fill="#FFFFFF" d="M36.5,51.8c0,0,8.2,1.8,6.1,10.6c0,0,2.3-3,0.8-6.6C42.6,54,40.2,51.6,36.5,51.8z"/>
				<path fill="#FFFFFF" d="M34,65c0,0-5.1-1.3-5-7.3c0,0-1.1,2.4,0.4,4.8C30.1,63.6,31.8,64.9,34,65z"/>
			</g>
		</g>
		<g>
			<path opacity="0.6" fill="#CAEFFD" d="M37.5,18.3c-1.8-0.8-3.6,0.3-4,1.9c-0.4,1.6,0.2,3,1.8,3.6c1.3,0.5,2.8,0,3.5-1.4
				C39.7,20.9,39.2,19,37.5,18.3z"/>
			<g>
				<path opacity="0.43" fill="#91E7FA" d="M37.5,23.2c0,0,0.5-1.4-0.2-2.6c-0.9-1.5-2.4-1.8-2.4-1.8s2.2-1.7,3.6,1.2
					C39.6,22.4,37.5,23.2,37.5,23.2z"/>
				<path fill="#8BC3EB" d="M37,17.6c-1.8-0.4-3.2,0.6-3.7,2.3c-0.5,1.7,0.2,3.3,1.9,4c1.2,0.5,2.7,0.5,3.9-1.1
					C40.5,20.8,39.1,18.1,37,17.6z M35.2,23.9c-1.7-0.7-2.4-2.4-1.9-3.8c0.6-1.8,2.4-3,4.3-2.1c1.8,0.8,2.4,2.9,1.5,4.5
					C38.3,23.8,36.6,24.5,35.2,23.9z"/>
				<path fill="#91E7FA" d="M37.6,18c-1.8-0.8-3.7,0.3-4.3,2.1c-0.5,1.4,0.2,3.1,1.9,3.8c1.3,0.6,3.1,0,3.8-1.4
					C39.9,20.9,39.4,18.8,37.6,18z M35.3,23.8c-1.6-0.7-2.3-2-1.8-3.6c0.4-1.6,2.2-2.7,4-1.9c1.7,0.8,2.2,2.6,1.4,4.1
					C38.1,23.7,36.7,24.3,35.3,23.8z"/>
				<path fill="#FFFFFF" d="M38.4,19.8c0.3,0.3,0.5,0.7,0.2,0.9c-0.2,0.2-0.7-0.4-0.7-0.7C37.9,19.9,38,19.5,38.4,19.8z"/>
				<path fill="#FFFFFF" d="M36.4,18.4c0,0,2.9,0.7,2.1,4.1c0,0,0.8-1.2,0.3-2.5C38.6,19.2,37.7,18.3,36.4,18.4z"/>
				<path fill="#FFFFFF" d="M35.5,23.5c0,0-1.8-0.5-1.8-2.8c0,0-0.4,0.9,0.1,1.8C34.2,22.9,34.8,23.4,35.5,23.5z"/>
			</g>
		</g>
		<g>
			<path opacity="0.6" fill="#CAEFFD" d="M43.7,11.6c-1-0.5-2.1,0.1-2.4,1.1c-0.3,1,0.1,1.7,1.1,2.1c0.8,0.3,1.7,0,2.1-0.8
				C45,13.1,44.7,12,43.7,11.6z"/>
			<g>
				<path opacity="0.43" fill="#91E7FA" d="M43.7,14.5c0,0,0.3-0.8-0.1-1.5c-0.5-0.9-1.4-1.1-1.4-1.1s1.3-1,2.1,0.7
					C44.9,14,43.7,14.5,43.7,14.5z"/>
				<path fill="#8BC3EB" d="M43.4,11.2c-1-0.2-1.9,0.3-2.2,1.4c-0.3,1,0.1,1.9,1.1,2.3c0.7,0.3,1.6,0.3,2.3-0.7
					C45.4,13.1,44.6,11.5,43.4,11.2z M42.3,14.9c-1-0.4-1.4-1.4-1.1-2.2c0.3-1.1,1.4-1.7,2.5-1.3c1.1,0.5,1.4,1.7,0.9,2.7
					C44.1,14.9,43.1,15.2,42.3,14.9z"/>
				<path fill="#91E7FA" d="M43.7,11.4c-1.1-0.5-2.2,0.2-2.5,1.3c-0.3,0.8,0.1,1.8,1.1,2.2c0.8,0.3,1.8,0,2.3-0.8
					C45.1,13.1,44.8,11.9,43.7,11.4z M42.4,14.8c-0.9-0.4-1.3-1.2-1.1-2.1c0.3-1,1.3-1.6,2.4-1.1c1,0.4,1.3,1.5,0.8,2.4
					C44.1,14.8,43.2,15.1,42.4,14.8z"/>
				<path fill="#FFFFFF" d="M44.2,12.5c0.2,0.2,0.3,0.4,0.1,0.5c-0.1,0.1-0.4-0.2-0.4-0.4C43.9,12.5,44,12.3,44.2,12.5z"/>
				<path fill="#FFFFFF" d="M43,11.7c0,0,1.7,0.4,1.3,2.4c0,0,0.5-0.7,0.2-1.5C44.3,12.1,43.8,11.6,43,11.7z"/>
				<path fill="#FFFFFF" d="M42.5,14.6c0,0-1-0.3-1-1.7c0,0-0.2,0.5,0.1,1.1C41.7,14.3,42.1,14.6,42.5,14.6z"/>
			</g>
		</g>
		<g>
			<path opacity="0.6" fill="#CAEFFD" d="M50.8,29.8c-6.6-2.3-13.3,0.8-15,5.6c-1.6,4.8,0.9,8.8,6.9,10.7c5,1.6,10.5-0.1,13.3-4
				C59.1,37.5,57.2,32.1,50.8,29.8z"/>
			<g>
				<path opacity="0.43" fill="#91E7FA" d="M50.7,44.5c0,0,1.9-4.1-0.8-7.6c-3.2-4.4-9.1-5.3-9.1-5.3S49,26.4,54.3,35
					C58.6,42.1,50.7,44.5,50.7,44.5z"/>
				<path fill="#8BC3EB" d="M48.8,27.9c-6.6-1.1-11.9,1.6-14,6.9c-1.9,5,0.6,9.7,6.9,11.7c4.7,1.5,10,1.4,14.5-3.4
					C61.9,37.2,56.8,29.2,48.8,27.9z M42.2,46.5c-6.3-2.1-8.9-7-7.2-11.2c2.2-5.3,9.2-8.7,16-6.3c6.7,2.4,8.8,8.7,5.5,13.4
					C53.7,46.3,47.3,48.1,42.2,46.5z"/>
				<path fill="#91E7FA" d="M51.1,28.9c-6.9-2.4-13.9,1-16,6.3c-1.7,4.2,0.9,9.1,7.2,11.2c5,1.7,11.4-0.1,14.3-4.2
					C59.9,37.6,57.8,31.3,51.1,28.9z M42.7,46.1c-6-1.9-8.5-5.9-6.9-10.7c1.6-4.8,8.4-7.9,15-5.6c6.4,2.3,8.3,7.7,5.1,12.3
					C53.2,46,47.6,47.7,42.7,46.1z"/>
				<path fill="#FFFFFF" d="M54.1,34.3c1.1,0.8,1.7,2.1,0.8,2.7c-0.9,0.6-2.5-1.1-2.6-2C52.2,34.5,52.8,33.3,54.1,34.3z"/>
				<path fill="#FFFFFF" d="M46.7,30.2c0,0,10.7,2,8,12.1c0,0,3-3.5,1.1-7.5C54.8,32.6,51.5,29.9,46.7,30.2z"/>
				<path fill="#FFFFFF" d="M43.4,45.2c0,0-6.7-1.5-6.6-8.3c0,0-1.5,2.7,0.5,5.5C38.3,43.6,40.5,45.1,43.4,45.2z"/>
			</g>
		</g>
		<g>
			<path opacity="0.6" fill="#CAEFFD" d="M42.7,44.9c-1.3-0.6-2.5,0.2-2.9,1.3c-0.3,1.2,0.2,2.1,1.3,2.6c0.9,0.4,2,0,2.5-1
				C44.2,46.7,43.9,45.4,42.7,44.9z"/>
			<g>
				<path opacity="0.43" fill="#91E7FA" d="M42.6,48.4c0,0,0.4-1-0.1-1.8c-0.6-1.1-1.7-1.3-1.7-1.3s1.6-1.2,2.6,0.8
					C44.2,47.8,42.6,48.4,42.6,48.4z"/>
				<path fill="#8BC3EB" d="M42.3,44.4c-1.3-0.3-2.3,0.4-2.7,1.7c-0.4,1.2,0.1,2.3,1.3,2.8c0.9,0.4,1.9,0.3,2.8-0.8
					C44.8,46.7,43.8,44.7,42.3,44.4z M41,48.9c-1.2-0.5-1.7-1.7-1.4-2.7c0.4-1.3,1.7-2.1,3.1-1.5c1.3,0.6,1.7,2.1,1,3.2
					C43.2,48.9,42,49.3,41,48.9z"/>
				<path fill="#91E7FA" d="M42.7,44.7c-1.3-0.6-2.6,0.2-3.1,1.5c-0.3,1,0.2,2.2,1.4,2.7c1,0.4,2.2,0,2.7-1
					C44.4,46.8,44,45.2,42.7,44.7z M41.1,48.8c-1.1-0.5-1.6-1.4-1.3-2.6c0.3-1.2,1.6-1.9,2.9-1.3c1.2,0.5,1.6,1.9,1,3
					C43.1,48.8,42.1,49.2,41.1,48.8z"/>
				<path fill="#FFFFFF" d="M43.3,46c0.2,0.2,0.3,0.5,0.2,0.7c-0.2,0.1-0.5-0.3-0.5-0.5C42.9,46,43,45.7,43.3,46z"/>
				<path fill="#FFFFFF" d="M41.9,45c0,0,2,0.5,1.5,2.9c0,0,0.6-0.8,0.2-1.8C43.4,45.6,42.8,44.9,41.9,45z"/>
				<path fill="#FFFFFF" d="M41.3,48.6c0,0-1.3-0.4-1.3-2c0,0-0.3,0.7,0.1,1.3C40.3,48.2,40.7,48.6,41.3,48.6z"/>
			</g>
		</g>
		<g>
			<path opacity="0.6" fill="#CAEFFD" d="M41.4,13.3c-1.3-0.6-2.5,0.2-2.9,1.3c-0.3,1.2,0.2,2.1,1.3,2.6c0.9,0.4,2,0,2.5-1
				C42.9,15.2,42.6,13.9,41.4,13.3z"/>
			<g>
				<path opacity="0.43" fill="#91E7FA" d="M41.3,16.9c0,0,0.4-1-0.1-1.8c-0.6-1.1-1.7-1.3-1.7-1.3s1.6-1.2,2.6,0.8
					C42.8,16.3,41.3,16.9,41.3,16.9z"/>
				<path fill="#8BC3EB" d="M41,12.9c-1.3-0.3-2.3,0.4-2.7,1.7c-0.4,1.2,0.1,2.3,1.3,2.8c0.9,0.4,1.9,0.3,2.8-0.8
					C43.5,15.1,42.5,13.2,41,12.9z M39.7,17.3c-1.2-0.5-1.7-1.7-1.4-2.7c0.4-1.3,1.7-2.1,3.1-1.5c1.3,0.6,1.7,2.1,1,3.2
					C41.9,17.3,40.7,17.8,39.7,17.3z"/>
				<path fill="#91E7FA" d="M41.4,13.1c-1.3-0.6-2.6,0.2-3.1,1.5c-0.3,1,0.2,2.2,1.4,2.7c1,0.4,2.2,0,2.7-1
					C43.1,15.2,42.7,13.7,41.4,13.1z M39.8,17.3c-1.1-0.5-1.6-1.4-1.3-2.6c0.3-1.2,1.6-1.9,2.9-1.3c1.2,0.5,1.6,1.9,1,3
					C41.8,17.2,40.8,17.6,39.8,17.3z"/>
				<path fill="#FFFFFF" d="M42,14.4c0.2,0.2,0.3,0.5,0.2,0.7c-0.2,0.1-0.5-0.3-0.5-0.5C41.6,14.5,41.7,14.2,42,14.4z"/>
				<path fill="#FFFFFF" d="M40.6,13.4c0,0,2,0.5,1.5,2.9c0,0,0.6-0.8,0.2-1.8C42.1,14,41.5,13.4,40.6,13.4z"/>
				<path fill="#FFFFFF" d="M39.9,17c0,0-1.3-0.4-1.3-2c0,0-0.3,0.7,0.1,1.3C39,16.7,39.4,17,39.9,17z"/>
			</g>
		</g>
	</g>
</g>
<g id="Fizz_2">
</g>
<g id="Fizz_3">
</g>
<g id="Solution_Screen" display="none">
</g>
<g id="Show_Problem_Modal" display="none">
</g>
</svg>
