<?xml version="1.0" encoding="utf-8"?>
<!-- Generator: Adobe Illustrator 20.0.0, SVG Export Plug-In . SVG Version: 6.00 Build 0)  -->
<!DOCTYPE svg PUBLIC "-//W3C//DTD SVG 1.1//EN" "http://www.w3.org/Graphics/SVG/1.1/DTD/svg11.dtd">
<svg version="1.1" xmlns="http://www.w3.org/2000/svg" xmlns:xlink="http://www.w3.org/1999/xlink" x="0px" y="0px"
	 viewBox="0 0 42 40" enable-background="new 0 0 42 40" xml:space="preserve" width="42" height="40" preserveAspectRatio="none">
<g id="BG" display="none">
	<rect x="-431.3" y="-456.7" display="inline" fill="#006838" width="646.9" height="712.4"/>
</g>
<g id="Header_Buttons">
	<g>
		<path fill="#231F20" d="M32.6,36.7c-2.2,3.2-2.7,0.7-6.1,1.2s-7-0.1-10.3-1.1C13,35.9,9.9,34.5,7.5,32c-3.5-3.7-5-9.4-5.6-14.9
			c-0.3-2.6-0.4-5.4,0.9-7.6c0.7-1.2,1.8-2.1,2.9-2.9c5.5-3.9,12.1-5.9,18.4-4.5s12.2,6.5,14.4,13.6c0.7,2.1,1,4.3,1.5,6.4
			c0.4,1.4,0.8,2.8,0.7,4.3c-0.1,0.9-0.4,1.8-0.7,2.6c-0.4,1-0.8,2-1.3,3C36.8,35.1,32.6,36.7,32.6,36.7z"/>
	</g>
</g>
<g id="Layer_1">
</g>
<g id="elliot">
</g>
</svg>
