<?xml version="1.0" standalone="no"?>
<!DOCTYPE svg PUBLIC "-//W3C//DTD SVG 1.1//EN" "http://www.w3.org/Graphics/SVG/1.1/DTD/svg11.dtd" >
<svg>
<metadata>
Created by FontForge 20090622 at Tue Jun 14 16:32:03 2016
 By deploy user
(modified) &#194;&#169; Jakob Fischer / PizzaDude [distribute freely]
</metadata>
<defs>
<font id="BA_Online_ClockFont" horiz-adv-x="500" >
  <font-face 
    font-family="BA_Online_ClockFont"
    font-weight="400"
    font-stretch="normal"
    units-per-em="1000"
    panose-1="0 0 4 0 0 0 0 0 0 0"
    ascent="800"
    descent="-200"
    x-height="360"
    cap-height="688"
    bbox="-1 -292.44 706 800"
    underline-thickness="20"
    underline-position="-123"
    unicode-range="U+0020-U+2022"
  />
<missing-glyph 
d="M63 0v800h375v-800h-375zM125 63h250v675h-250v-675z" />
    <glyph glyph-name=".notdef" 
d="M63 0v800h375v-800h-375zM125 63h250v675h-250v-675z" />
    <glyph glyph-name=".null" horiz-adv-x="0" 
 />
    <glyph glyph-name="nonmarkingreturn" 
 />
    <glyph glyph-name="space" unicode=" " 
 />
    <glyph glyph-name="exclam" unicode="!" horiz-adv-x="229" 
d="M124 298q-11 0 -23 9t-12 20q-1 37 -12 101q-9 47 -17 101q-12 61 -39 161l2 15q17 20 34 20q6 0 24 -8q26 -124 69 -362q9 -16 9 -25q0 -32 -35 -32zM203 136q-6 -10 -24 -18t-31 -8h-12q-9 0 -25 13.5t-20 22.5q-5 24 -5 32q0 28 16 51q21 18 34 25q8 -1 25 1
q57 -31 57 -78q0 -20 -15 -41zM159 196q-11 9 -13 10h-2q-10 -15 -10 -31q0 -19 18 -19q4 0 9 8t5 13q0 11 -7 19z" />
    <glyph glyph-name="quotedbl" unicode="&#x22;" horiz-adv-x="333" 
d="M333 655q-20 0 -29 14v99q20 6 31 6q13 -3 20 -18q-4 -13 -4 -34q0 -2 5 -58q-10 -9 -23 -9zM255 634q-28 0 -28 23q0 11 -3 38q2 7 -2 17t-4 14v16q22 11 31 11q3 0 8 -1l2 -1q9 -24 15 -69q0 -2 3.5 -7.5t3.5 -9.5v-21q-14 -10 -26 -10z" />
    <glyph glyph-name="numbersign" unicode="#" horiz-adv-x="455" 
d="M351 280q51 -8 48 -8q10 0 19 -1q16 -10 16 -18v-18q-16 -16 -29 -16q6 0 -54 14q-1 -9 0 -17q3 -4 3 -11v-20q-17 -13 -31 -13q-28 0 -28 38l3 9q2 3 2 23q-15 2 -88 15v-1q0 -4 4 -13.5t4 -14.5v-12l-4 -4l-1 -2q-7 -10 -26 -10q-23 0 -26 22q-2 9 -2 25v20
q-9 4 -43 11q-27 6 -40 17v19q27 13 33 13q-4 0 48 -13q1 15 -1 37q-15 1 -45 6q-9 1 -20 13v18q24 11 35 11q5 0 13.5 -1.5t13.5 -1.5l2 -1v94l28 9h13q8 0 14 -19q-4 -20 -4 -50q0 7 1 -21v-20q49 -10 85 -10q-6 38 -16 94q-12 39 -12 35v13q3 4 12 11q23 3 19 3h10
q5 -5 14 -16q5 -29 12 -53q4 -31 13 -92q27 -3 56 -3q15 -9 15 -17v-21q-4 -4 -4 -12h-35q-7 0 -11 4l-2 2q-2 1 -16 2v-2q0 -15 2 -46zM211 343l2 -39q55 -10 84 -16v44q-29 3 -86 11z" />
    <glyph glyph-name="dollar" unicode="$" horiz-adv-x="363" 
d="M263 430v-118q89 -44 89 -109q0 -30 -26.5 -54.5t-57.5 -31.5q-1 -11 -1 -22q0 -24 6 -46q-10 -17 -30 -17q-13 0 -27 12q2 37 1 69q-30 1 -91 29l-5 5l-2 3q-1 2 -6 7q-2 12 9 21.5t23 9.5q10 0 20 -10l2 -2q18 -10 50 -18v120l-60 34q-34 24 -34 57q0 21 22 56t40 46
q3 3 32 20q-1 38 -1 61t1 31q15 13 26 13h11l9 -10l4 -4q0 -10 -1 -27l-3 -2v-58l11 -3q13 -3 21 -9q5 -5 13.5 -21t8.5 -21v-11q-6 -6 -6 -13q-9 0 -11 -1q-5 -2 -9 -2q-15 0 -28 16zM215 438q-13 -12 -26 -33q-16 -24 -16 -38t38 -32l6 -2zM264 255l-1 -89q1 -2 1 -5
q36 18 36 42q0 25 -36 52z" />
    <glyph glyph-name="percent" unicode="%" horiz-adv-x="410" 
d="M104 361q-37 0 -64.5 22.5t-27.5 50.5q0 54 60 54q11 0 25 -4q25 3 51 -21.5t26 -45.5q0 -20 -22 -38t-48 -18zM347 160h-16q-25 0 -47 17t-26 37q-1 6 -1 15q0 13 7 33q8 23 19 27q23 8 28 8h17q13 -12 40 -35q10 -6 20 -25t10 -30q0 -18 -15 -32.5t-36 -14.5zM343 496
q-1 2 0 4q3 -5 1 -11q-1 -5 -5 -10l-11 -13q-14 -18 -15 -25q-29 -71 -143 -271q-8 -13 -13 -35q-29 -2 -33 -1q-16 4 -38 19q-1 23 2 36q2 7 13 20q4 1 14 2q2 3 8 9q10 20 94 170q5 16 35 82q15 31 33 46q20 3 34 -1q8 -2 20 -10zM70 439l-6 -6q0 -13 42 -23q7 4 7 9
q0 10 -43 20zM332 228q-8 5 -14 10q-2 -8 -2 -11q0 -18 21 -24q3 4 3 5q0 2 -8 20z" />
    <glyph glyph-name="ampersand" unicode="&#x26;" horiz-adv-x="302" 
d="M85 272q-32 37 -37 44q-9 13 -20 46q-8 26 -8 27q0 15 5 36q1 6 9 20q31 35 54.5 46t69.5 11q4 0 8 -2l8 -4q11 -4 18 -4q7 -4 23 -18q1 -3 1 -4l2 -4q8 -16 8 -43q0 -37 -27 -80l-51 -68q17 -10 45 -35q5 -2 11 -5l2 -1q3 12 3 17q0 10 -5.5 26.5t-6.5 22.5q21 15 37 15
q5 0 9 -2h-2l9 -6q12 -37 12 -55q0 -27 -11 -52l60 -50q0 -6 8 -25q-8 -5 -10 -7l-2 -2q-1 -2 -5 -6h-5l-3 -1q-6 -1 -9 -1q-24 0 -34 26q-9 9 -29 26q-32 -27 -74 -27h-12q-11 0 -63 22q-2 4 -17 25q0 3 -1 9t-1 9q0 35 31 74zM172 449l-6 9q-21 6 -29 6q-24 0 -45 -24.5
t-21 -49.5q0 -39 43 -80q17 21 46 68q15 30 15 45t-3 26zM120 237q-14 -21 -14 -36q0 -26 40 -26q19 0 36 14q-35 29 -62 48z" />
    <glyph glyph-name="quotesingle" unicode="'" horiz-adv-x="243" 
d="M73 502q0 9 9 26q-3 -15 23 121q18 9 24 9q17 0 34 -22l2 -16q-27 -110 -24 -95.5t2 -26.5q0 -12 -12 -22t-23 -10q-35 0 -35 36z" />
    <glyph glyph-name="parenleft" unicode="(" horiz-adv-x="278" 
d="M80 304q0 -140 134 -247q4 1 15 1q7 -14 23 -43q-5 -6 -6 -8l-2 -3l-12 -15q-4 1 -20 1q-8 0 -62.5 54.5t-62.5 69.5q-12 19 -34 59q-25 87 -25 113q0 79 26 140q6 15 33 66l33 49q8 11 35 44q24 23 70 71q13 6 22 6q20 0 29 -20v-14q-78 -58 -133 -142q-63 -97 -63 -182
z" />
    <glyph glyph-name="parenright" unicode=")" horiz-adv-x="290" 
d="M235 208q-6 -25 -20 -74q-3 -7 -22 -46q-2 -4 -8 -22q-1 -3 -3 -4l-2 -2q-1 -2 -5 -8q-6 0 -16.5 1t-16.5 1l-5 6q-6 7 -6 15q0 11 15 26q4 8 27 59q3 15 10 43q26 104 26 133q0 45 -21 116.5t-45 110.5l-16 24q-13 28 -69 83q-4 12 -4 25q3 -6 2 -7l7 10q23 6 25 6
q10 0 27 -18q17 -22 35 -43q20 -26 29 -47q40 -60 51 -116q28 -64 28 -149q0 -77 -23 -123z" />
    <glyph glyph-name="asterisk" unicode="*" horiz-adv-x="332" 
d="M171 399q-2 12 -3 39q11 19 30 19q11 0 23 -12q-2 -10 -3 -29q5 2 19 8q21 -10 21 -22v-21q-17 -9 -38 -30l1 -1q-10 0 30 5l8 1q16 2 14 2q6 0 21 -8q0 -5 1 -15t1 -15q-18 -12 -27 -12q-38 0 -29 1h-7q18 -25 61 -71q4 -11 4 -15q0 -9 -9.5 -18t-18.5 -9h-10
q-11 0 -23 25l-30 41v-4v-30q-4 -15 -23 -15q-11 0 -34 17q10 38 13 58q-26 -29 -32 -52q-3 -6 -8 -18q-14 -11 -23 -11q-3 0 -9 1l-2 1h-6l-13 14q27 58 58 96h-2q-12 0 -22 2.5t-21 12.5q0 11 1 14l1 3q17 16 33 16q3 0 9 -2l6 -2q-9 17 -48 79q11 22 33 22q7 0 17 -7
l33 -51q1 -4 3 -7z" />
    <glyph glyph-name="plus" unicode="+" horiz-adv-x="463" 
d="M202 405l4 4q11 6 22 6q7 0 22 -8q1 -86 3 -112q7 2 53 5q29 2 53 11q13 -7 19 -6q7 -23 4 -36q-6 -7 -17 -11q-7 0 -107 -5q-1 -17 2 -43l5 -42q0 -3 2.5 -10t2.5 -11q0 -25 -28 -25q-9 0 -28 12q0 15 -8 120h-21q8 0 -80 3q-6 4 -14 13v12l9 9q-1 -1 -3 -1l1 2
q9 9 25 9q-4 0 78 -3l-1 80q-1 5 -7 20q5 5 7 6l2 2v-1z" />
    <glyph glyph-name="comma" unicode="," horiz-adv-x="243" 
d="M48 -17q0 9 9 26q-3 -15 23 121q18 9 24 9q17 0 34 -22l2 -16q-27 -110 -24 -95.5t2 -26.5q0 -12 -12 -22t-23 -10q-35 0 -35 36z" />
    <glyph glyph-name="hyphen" unicode="-" horiz-adv-x="407" 
d="M363 277l-1 -3v-7q-18 -14 -26 -14q-4 0 -11.5 3t-10.5 3q5 0 -81 -6q-22 -1 -67 -1q-8 0 -14 1l-6 2q-2 1 -3 1q-32 0 -46 12l-3 7l1 -1v0l-3 7q3 25 34 25q6 0 30 -3l29 -3q59 0 134 7q10 6 12 6q4 0 10 -1h11q12 -21 12 -27q0 -2 -1 -8z" />
    <glyph glyph-name="hyphen" unicode="&#x2010;" horiz-adv-x="407" 
d="M363 277l-1 -3v-7q-18 -14 -26 -14q-4 0 -11.5 3t-10.5 3q5 0 -81 -6q-22 -1 -67 -1q-8 0 -14 1l-6 2q-2 1 -3 1q-32 0 -46 12l-3 7l1 -1v0l-3 7q3 25 34 25q6 0 30 -3l29 -3q59 0 134 7q10 6 12 6q4 0 10 -1h11q12 -21 12 -27q0 -2 -1 -8z" />
    <glyph glyph-name="period" unicode="." horiz-adv-x="192" 
d="M190 5h-14q-22 0 -41.5 16t-22.5 35q-1 6 -1 14q0 13 6 31q7 23 17 26q20 8 25 8h15q11 -11 35 -33q9 -6 18 -24t9 -29q0 -16 -13.5 -30t-32.5 -14zM177 69q-7 5 -12 10q-2 -8 -2 -11q0 -17 19 -22q2 3 2 4q0 3 -7 19z" />
    <glyph glyph-name="slash" unicode="/" horiz-adv-x="297" 
d="M270 526l-81 -208l-25 -67q-69 -168 -69 -185q0 -7 -4 -25q-9 -7 -7 -7l-7 -3q-5 -3 -19 -3q-10 0 -22 12v12q0 -55 20 -3q9 23 50 157q39 128 65 192q0 3 1 8q51 119 53 156q9 22 31 22q14 0 22 -10q2 -7 10 -22z" />
    <glyph glyph-name="zero" unicode="0" 
d="M30 284v-272l102 102v145l-62 62zM30 399l40 -37l62 62v145l-102 102v-272zM368 259v-145l102 -102v272l-41 37zM368 569v-145l61 -62l41 37v272zM251 95h-99v-1l-94 -94h387l-95 94v1h-99zM58 684l94 -94v-1h99h99v1l95 94h-387z" />
    <glyph glyph-name="one" unicode="1" 
d="M368 259v-145l102 -102v272l-40 37zM368 569v-145l62 -62l40 37v272z" />
    <glyph glyph-name="two" unicode="2" 
d="M30 284v-272l102 102v145l-62 62zM368 569v-145l61 -62l41 37v272zM410 345v0l-50 50h-219l-51 -50h1h-1l50 -50h221l49 50v0zM251 95h-99v-1l-94 -94h387l-95 94v1h-99zM58 684l94 -94v-1h99h99v1l95 94h-387z" />
    <glyph glyph-name="three" unicode="3" 
d="M368 259v-145l102 -102v272l-40 37zM368 569v-145l62 -62l40 37v272zM411 345v0l-51 50h-219l-50 -50v0v0l49 -50h221l50 50v0zM252 95h-99l-1 -1l-94 -94h387l-94 94l-1 1h-98zM58 684l94 -94l1 -1h99h98l1 1l94 94h-387z" />
    <glyph glyph-name="four" unicode="4" 
d="M30 399l40 -37l62 62v145l-102 102v-272zM368 259v-145l102 -102v272l-41 37zM368 569v-145l61 -62l41 37v272zM410 345v0l-50 50h-219l-51 -50h1h-1l50 -50h221l49 50v0z" />
    <glyph glyph-name="five" unicode="5" 
d="M30 399l40 -37l62 62v145l-102 102v-272zM368 259v-145l102 -102v272l-41 37zM410 345v0l-50 50h-219l-51 -50h1h-1l50 -50h221l49 50v0zM251 95h-99v-1l-94 -94h387l-95 94v1h-99zM58 684l94 -94v-1h99h99v1l95 94h-387z" />
    <glyph glyph-name="six" unicode="6" 
d="M30 284v-272l102 102v145l-62 62zM30 399l40 -37l62 62v145l-102 102v-272zM368 259v-145l102 -102v272l-41 37zM410 345v0l-50 50h-219l-51 -50h1h-1l50 -50h221l49 50v0zM251 95h-99v-1l-94 -94h387l-95 94v1h-99zM58 684l94 -94v-1h99h99v1l95 94h-387z" />
    <glyph glyph-name="seven" unicode="7" 
d="M368 259v-145l102 -102v272l-40 37zM368 569v-145l62 -62l40 37v272zM58 684l94 -94l1 -1h99h98l1 1l94 94h-387z" />
    <glyph glyph-name="eight" unicode="8" 
d="M30 284v-272l102 102v145l-62 62zM30 399l40 -37l62 62v145l-102 102v-272zM368 259v-145l102 -102v272l-41 37zM368 569v-145l61 -62l41 37v272zM410 345v0l-50 50h-219l-51 -50h1h-1l50 -50h221l49 50v0zM251 95h-99v-1l-94 -94h387l-95 94v1h-99zM58 684l94 -94v-1h99
h99v1l95 94h-387z" />
    <glyph glyph-name="nine" unicode="9" 
d="M30 399l40 -37l62 62v145l-102 102v-272zM368 259v-145l102 -102v272l-41 37zM368 569v-145l61 -62l41 37v272zM410 345v0l-50 50h-219l-51 -50h1h-1l50 -50h221l49 50v0zM251 95h-99v-1l-94 -94h387l-95 94v1h-99zM58 684l94 -94v-1h99h99v1l95 94h-387z" />
    <glyph glyph-name="colon" unicode=":" horiz-adv-x="212" 
d="M91 257v-112h95l-1 112h-94zM91 550v-112h95l-1 112h-94z" />
    <glyph glyph-name="semicolon" unicode=";" horiz-adv-x="245" 
d="M165 375q-18 0 -29.5 13.5t-11.5 31.5q0 30 35 30q14 0 25.5 -11.5t11.5 -25.5q0 -38 -31 -38zM171 250q-15 0 -25 17q2 9 8 23l-3 1l-14 7q-11 18 -11 24q0 16 16 30t32 14q5 0 19 -7q0 -3 5.5 -22.5t5.5 -30.5q0 -15 -8 -33q-10 -23 -25 -23z" />
    <glyph glyph-name="less" unicode="&#x3c;" horiz-adv-x="389" 
d="M106 360q47 -20 66 -27q66 -32 99 -50l39.5 -19.5t12.5 -17.5q0 -15 -9 -32l-8 -1q-10 7 -19 12q-47 24 -51 27q-41 19 -57 27q-68 31 -126 52v8l-1 4q-1 3 -1 8q-1 16 8 31l11 1q15 3 127 56q28 13 35 16q11 6 19 11q14 5 27 11q18 9 22 19l10 1q14 -22 14 -29
q1 -11 -12 -20l-16 -11q-95 -48 -181 -85q-3 -4 -9 -8l3 9z" />
    <glyph glyph-name="equal" unicode="=" horiz-adv-x="375" 
d="M289 328q-4 0 -12.5 1.5t-12.5 1.5q-2 0 -31 -1l-30 -1q-3 0 -16 -1h-20q-5 0 -14.5 1.5t-14.5 1.5q-21 0 -37 1l-8 6l-4 2q-2 1 -7 5q0 4 -1 6l-1 2v9q21 15 34 15q3 0 7 -1l8 -1q10 -3 15 -3q54 -2 81 -2q10 0 76 7q14 -13 14 -26q0 -23 -26 -23zM296 190q-4 0 -13 2
t-14 2q-2 0 -33 -1l-32 -1q-3 0 -17 -2h-22q-5 0 -15 2t-16 2q-22 0 -39 1l-9 6l-4 2q-2 1 -8 6q0 4 -1 6l-1 2v10q23 16 36 16q4 0 8 -1l9 -1q10 -3 16 -3q58 -3 86 -3q11 0 82 8q15 -14 15 -28q0 -25 -28 -25z" />
    <glyph glyph-name="greater" unicode="&#x3e;" horiz-adv-x="421" 
d="M303 354l3 -9q-5 4 -8 8q-90 37 -190 85l-16 11t-12 20q0 7 14 29l10 -1q5 -10 24 -19q13 -6 27 -11q8 -5 21 -11q7 -3 35 -16q117 -53 133 -56l11 -1q10 -15 9 -31q-1 -5 -2 -8v-4l-1 -8q-59 -21 -130 -52l-60 -27q-4 -3 -52 -27q-11 -5 -21 -12l-8 1q-10 17 -9 32
q1 12 12.5 17.5l40.5 19.5q35 18 104 50q19 7 69 27z" />
    <glyph glyph-name="question" unicode="?" horiz-adv-x="376" 
d="M310 417q-18 -17 -62 -62q-19 -21 -19 -53q0 7 2 -25q9 -15 9 -26q0 -8 -12 -27h-18q-18 0 -28 21q-5 57 -5 60q0 60 47 98q3 2 8 13q82 63 82 134q0 81 -90 81q-3 0 -8 -1.5t-7 -1.5q-92 -12 -92 -76q0 -20 17 -53l28 -51q-15 -16 -25 -16q-9 0 -27 12q-2 10 -11 22
q-13 19 -26 55q-7 20 -7 35q0 65 64 98q47 24 108 24q58 0 93 -36t35 -94q0 -31 -17 -70t-39 -61zM309 108q0 -34 -23 -56t-57 -22q-30 0 -54.5 20t-24.5 49q0 18 15.5 43t32.5 31q6 0 18.5 3t18.5 3q77 0 77 -61q0 -5 -3 -10zM238 131q-3 0 -9.5 1t-9.5 1q-7 0 -11.5 -12
t-4.5 -20q0 -22 25 -22h9q7 2 13.5 16t6.5 22q0 14 -19 14z" />
    <glyph glyph-name="A" unicode="A" 
d="M30 283v-272l102 102v145l-62 62zM30 582v-184l40 -37l62 63v145l-57 57zM369 258v-145l102 -102v272l-41 37zM369 569v-146l61 -62l41 37v184l-45 44zM141 394l-51 -50l50 -50h222l49 50l-50 50h-220zM132 684l-37 -37l57 -57v-1h199v1l56 56l-38 38h-237z" />
    <glyph glyph-name="B" unicode="B" horiz-adv-x="429" 
d="M203 458q3 2 8 2q4 0 33 -8q53 -14 93 -48q25 -21 47 -68.5t22 -80.5q0 -46 -30 -84q-22 -23 -39 -33q-32 -27 -115 -51q-24 -7 -41 -7q-39 0 -95 9q-11 2 -30 17q1 5 1 7q-8 6 -11 14v17q0 3 1 13v106q-1 23 -6 149l-7 148v129q3 5 9 10l4 3l6 6q15 -6 20 -6q4 0 16 3
l15 4q11 1 56 4q15 1 44 1q21 0 87 -11q23 -4 36 -17q15 -5 29 -25t14 -36q0 -43 -27 -81q-15 -22 -65 -48q-43 -22 -77 -31l-12 -3q4 -1 14 -4zM312 627q-7 40 -134 40q-38 0 -76 -4q-1 0 -17 -3v-67v-43q0 -23 1 -48v-24h13l107 36q34 11 67 29q44 24 44 72q0 7 -5 12z
M209 410q-27 3 -81 12q-15 3 -19 3t-19 -2q1 -35 4 -77l3 -42v-64q2 -72 2 -92q2 -3 3 -7q20 -10 27 -11q15 0 30 -1l31 -1q44 0 99 33q64 38 64 86q0 59 -42.5 108t-101.5 55z" />
    <glyph glyph-name="C" unicode="C" horiz-adv-x="373" 
d="M386 239q-5 -8 -9 -13l-7 -3h2q-2 -1 -6 -2q-52 -49 -132 -49q-103 0 -181 103q-2 3 -4 8l-1 3q-3 5 -14 28q-7 15 -7 29q-2 8 -5 33q-6 50 -6 68q0 77 29 145q31 76 90 115q33 22 91 22q79 0 119 -49q0 -9 -6 -19l-8 -5h2q-4 -2 -9 -2q-3 0 -14 4q-14 11 -21 16
q-20 14 -61 14q-38 0 -60 -12.5t-47 -45.5q-29 -38 -39 -69q-19 -57 -19 -107q0 -96 15 -123q44 -79 131 -108q2 -1 6 -2h16q55 0 88 27q31 31 46 31q3 0 9.5 -2t9.5 -2q4 -5 12 -14q-4 -7 -10 -19z" />
    <glyph glyph-name="D" unicode="D" horiz-adv-x="407" 
d="M220 208l-83 -26l-1 -2q-2 -1 -7 -6h-6q-6 -2 -9 -2q-12 0 -32 20q0 3 1 7.5t1 7.5q0 -4 -9 32q-1 14 -5 48l-17 97q-7 50 -9 97q-3 77 -15 159q-1 5 -7 21t-6 21q0 13 13 20q3 2 25 9q13 -8 30 -10q103 -9 178 -62q85 -59 103 -155q19 -58 19 -82q0 -66 -51 -122
q-45 -50 -113 -72zM76 658q2 -9 6 -29q11 -98 15 -164q1 -25 7 -82l28 -155q6 1 27 9l28 9q52 14 94 52q47 43 48 89q4 9 4 12q0 16 -21 86q-24 52 -49 85q-54 71 -187 88z" />
    <glyph glyph-name="E" unicode="E" horiz-adv-x="359" 
d="M73 130q68 8 238 37q6 1 23 9q8 1 14 1q9 0 15 -2q3 -5 5 -8l1 -5q1 -2 6 -5q2 -14 -8.5 -24.5t-24.5 -10.5q-2 0 -5.5 1t-5.5 1q24 0 -102 -18q-41 -5 -146 -23q-37 -7 -33 -7q-19 0 -32 21v9q0 7 7 17l11 240q2 0 2 53l3 2v217q0 2 2 7.5t2 9.5q0 10 -1 17q0 11 20 28
l30 -10v-5q29 -2 97 -2q9 0 25 3q20 3 26 4q13 -12 13 -27q0 -12 -17 -29l-15 3h-28q-93 0 -103 -1q-5 -48 -6 -111v-111q7 0 94 12q14 8 22 8q4 0 8 -2l2 -1h-1l8 -5q2 -4 12 -16q-9 -17 -9 -25l-137 -18q-12 -181 -12 -231v-3z" />
    <glyph glyph-name="F" unicode="F" horiz-adv-x="312" 
d="M117 401q23 1 19 1q13 0 39 4.5t37 5.5q18 8 25 8q9 0 16.5 -8.5t7.5 -17.5q0 -13 -16 -29q-17 3 -31 3q-3 0 -8 -2t-8 -2q-42 0 -78 -10v-93q0 -6 2 -21t1 -23q1 -17 8 -40l-3 -11q-3 -4 -10 -12h-5l-3 -1q-6 -1 -9 -1q-7 0 -25 12q-4 71 -5 142q0 2 1 7q0 67 -24 265
l-16 21q3 6 4 7v3q2 7 5 10l2 3l7 7q13 8 28 8q2 0 5 -1t4 -1l15 3q37 7 134 24q18 2 48 7q10 5 14 5h22q14 -14 14 -24q-1 -5 -9 -28q-123 -5 -218 -30q-4 -1 -9 -1h-2v-5l2 -8q1 -6 3 -21q5 -52 16 -156z" />
    <glyph glyph-name="G" unicode="G" horiz-adv-x="473" 
d="M343 359q-39 4 -92 4h-89q-10 2 -21 13v18q25 16 32 16l268 -6l20 3q15 -14 15 -28q0 -5 -5 -20l-9 -6q-7 -2 -10 -2q-12 0 -32 8l-25 -1q-2 -5 -3 -8q-15 -63 -55 -118q-49 -66 -105 -66h-15q-7 0 -41.5 10.5t-39.5 14.5q-14 11 -30 22q-84 48 -84 197q0 2 2 17l3 22
q8 55 35 106q30 57 72 84q8 5 65 24q29 5 55 5q45 0 86 -19q45 -21 65 -58q0 -5 -1 -7l-1 -5q-12 -13 -26 -13q-11 0 -33 28q-48 32 -87 32q-24 0 -58 -10.5t-50 -24.5q-35 -32 -57 -84t-22 -100q0 -77 31 -122t103 -68q16 -5 24 -5q55 0 96 92q20 45 20 52v2z" />
    <glyph glyph-name="H" unicode="H" horiz-adv-x="407" 
d="M306 667q-2 19 23 19q15 0 25 -18q1 13 1 -77v-70q0 -3 1 -42l1 -42q0 -107 2 -167q1 -22 4 -77l1 -1q3 -4 6 -9q-2 -13 4 -18q0 -8 -1 -11l-1 -3q-12 -25 -33 -25q-5 0 -12 5l-4 3l-6 3q-3 9 -1 18l1 5v2q0 -11 -5 46q0 12 -1 25q-5 4 -5 12v176h-7q-9 0 -28.5 -2.5
t-28.5 -2.5h-58q-36 0 -90 -9v-9q1 -16 5 -58l8 -92q1 -15 6 -35l4 -16q2 -8 2 -11t-1 -10l-1 -3v-8q-21 -10 -24 -10q-8 0 -18 6q-13 8 -13 21v28q-1 13 -5 50q-4 32 -8 80q-1 41 -7 147q-2 32 -8 91l-6 57v12q14 14 26 14q19 0 29 -20q0 -11 -3 -17l5 -86q0 -11 8 -83
q35 4 51 4h38q7 0 34 3l34 2q25 0 58 8q0 2 1 5l1 2v2q0 3 -2 88z" />
    <glyph glyph-name="I" unicode="I" horiz-adv-x="151" 
d="M117 622l-3 -31q-7 -74 -9 -211q0 -25 -3 -64l-1 -1v-80v-37q0 -8 1 -35v-86q2 -10 5 -22q-4 -15 -4 -22q-4 -8 -10 -11t-10 -3q-11 0 -18 8.5t-7 29.5q0 8 2 23q0 31 2 113l4 156q4 177 13 276q-1 -11 -1 33q3 4 24 17q16 -21 16 -36q0 -7 -1 -17zM-1 28q0 5 7 20h6
q3 1 6 1q1 0 6 -4q42 -6 76 -6l16 3q13 2 17 2q17 0 19 -19l-2 -5v0l1 1l-2 -5q-8 -9 -26 -9l-2 -1l-3 -1q-3 -1 -8 -1q-25 0 -37 1q-49 4 -46 4q-2 0 -6 -2t-6 -2q-5 0 -15 10v5v2q-1 5 -1 6zM16 667q0 5 7 20h6q3 1 6 1q1 0 6 -4q42 -6 74 -6l16 3q13 2 17 2q17 0 18 -19
l-1 -5v0v1l-2 -5q-7 -9 -25 -9l-2 -1l-3 -1q-3 -1 -8 -1q-24 0 -36 1q-48 4 -45 4q-2 0 -6 -2t-6 -2q-5 0 -14 10v5l-1 2q-1 5 -1 6z" />
    <glyph glyph-name="J" unicode="J" horiz-adv-x="411" 
d="M349 241q-16 -26 -54 -46q-15 -8 -79 -19l-3 -1q-6 -1 -9 -1q-71 0 -101 26q-16 14 -26 29q-64 99 -61 198q16 23 36 23q9 0 17 -9t8 -18q0 -6 -5 -13l-2 -4q-3 -4 -3 -17q0 -33 23 -85q25 -55 50 -72q14 -10 32 -10q3 0 7.5 -2t6.5 -2q3 0 8.5 1t8.5 1h4q3 0 11.5 2.5
t11.5 2.5q73 8 86 62q3 6 6 18q7 50 7 66q0 87 -55 217q-4 9 -4 14q0 8 12 20h21q13 0 20 -22q20 -36 38 -117q17 -77 17 -122q0 -73 -29 -120z" />
    <glyph glyph-name="K" unicode="K" horiz-adv-x="478" 
d="M235 502l237 -274v-7q0 -29 -27 -29q-15 0 -27 13l-3 6q-1 2 -2 6l-111 137q-65 80 -120 128q-34 -16 -41 -19q-26 -13 -38 -24q-7 -75 -12 -176q-1 -18 2 -41q-4 -4 -12 -18q-6 0 -26 -5q-16 13 -23 28q1 4 5 14q2 16 17 207h-1q-2 7 -1 11q6 62 21 192q19 9 23 9
q9 0 29 -14q-20 -75 -20 -146v-5q81 49 260 96q5 1 28 11q18 8 27 8q10 0 17 -3l6 -9q1 0 1 1l3 -9q-4 -15 -7 -20q-6 -9 -17 -11q-33 -5 -136 -37q-23 -7 -52 -20z" />
    <glyph glyph-name="L" unicode="L" horiz-adv-x="361" 
d="M85 222q2 -1 4 -3l-8 3l3 1q21 3 36 3q-32 0 42 6q66 5 103 7t68 6q15 6 18 6h10q4 -4 5 -7l3 -2q1 -1 7 -4v-31q-20 -10 -33 -10q-3 0 -8 2t-6 2q-18 0 -47 -3q-37 -4 -48 -5q-42 -2 -127 -12q-6 -1 -22 -4l-12 -2q-6 -1 -9 -1q-14 0 -27 9q-6 10 -4 24q3 3 4 7
q11 96 22 214q5 52 12 187q2 35 -1 65q7 14 26 21q21 -12 21 -52q0 -44 -11 -218q-2 -27 -12 -117q-9 -79 -9 -71v-21z" />
    <glyph glyph-name="M" unicode="M" horiz-adv-x="600" 
d="M29 286v-271l102 102v144l-62 62zM29 582v-182l40 -37l62 62v145l-58 57zM473 261v-144l101 -102v271l-40 37zM473 570v-145l61 -62l40 37v183l-44 44zM321 684l-19 -19l-19 19h-152l-37 -37l56 -57v-1h115v1l37 37l37 -37v-1h114v1l56 57l-36 37h-152zM302 363l-50 49
v121l50 50l49 -51v-119z" />
    <glyph glyph-name="N" unicode="N" horiz-adv-x="503" 
d="M425 664v6q19 10 25 10q11 0 20.5 -8.5t9.5 -19.5q0 -4 -2.5 -10t-2.5 -7q1 -35 -21 -191l-7 -70q-13 -122 -13 -130q0 -1 4.5 -11.5t2.5 -21.5q-4 -9 -14 -13l-20 -8q-5 4 -9 6l-3 2q-2 1 -6 4q-44 64 -87 140q-29 52 -102 142q-25 31 -59 65l-50 50v15l-5 -216l-6 -81
t0 -97l-3 -4q-7 -9 -16 -9h-23q-4 5 -5 6l-2 3l-5 5q0 7 2 11v3q0 71 11 164l2 167q1 78 2 72q-6 13 -6 16q0 6 7 20q24 8 27 8q4 0 9 -2h1q21 -26 81 -90q35 -35 90 -96q6 -8 18 -22q29 -33 68 -98q47 -78 62 -101q5 1 15 2v369h10q-5 7 -3 9q-1 1 -2 3q1 2 5 8z" />
    <glyph glyph-name="O" unicode="O" horiz-adv-x="612" 
d="M563 375q-26 -86 -100.5 -136.5t-166.5 -50.5q-83 0 -173 48q-31 17 -53 54q-5 8 -34 69l-1 3q-6 12 -13 49q-6 34 -6 51q0 4 1.5 10t1.5 9q5 64 49 128q41 58 99 96q12 6 37 15l28 4q14 2 24 13q65 7 82 7q60 0 89 -13q70 -32 114.5 -103t44.5 -149q0 -29 -23 -104z
M390 695q-21 3 -41 3q7 0 -48 -3q-12 -9 -19 -9q-3 0 -9 1t-9 1q-55 0 -79 -24l-4 -4q-115 -115 -115 -200q0 -53 35 -130q24 -53 96 -79q52 -19 88 -19h24q20 0 63 12q29 8 50 24q44 33 63.5 60t38.5 80q12 52 12 72q0 68 -40 131q-43 65 -106 84z" />
    <glyph glyph-name="P" unicode="P" 
d="M30 276v-276l104 104v147l-63 63zM30 393l41 -38l63 63v147l-104 104v-276zM373 565v-147l62 -63l42 38v276zM143 389l-52 -51l51 -51h224l50 51l-51 51h-222zM58 682l96 -95v-1h201v1l96 95h-393z" />
    <glyph glyph-name="Q" unicode="Q" horiz-adv-x="542" 
d="M509 387q-2 -5 -4 -12q-6 -81 -101 -146l31 -54q18 -30 40 -48q0 -4 1 -5v-2q1 -5 1 -9q0 -25 -29 -25q-10 0 -24 9l-64 113q-59 -21 -80 -21h-34q-83 0 -156.5 71t-73.5 154q0 -5 10 75q52 162 187 208q44 15 65 15q5 -1 25 -8q4 -6 5 -13l89 -30q59 -27 90 -91
q27 -57 27 -128q0 -27 -5 -53zM460 495q-5 17 -12 37q-11 34 -44.5 64t-66.5 33q-15 6 -46 14q-9 1 -22 3.5t-20 10.5q-73 -10 -131 -95q-52 -77 -52 -148t62 -127t134 -56q28 0 77 18l-81 149q16 19 31 19t21 -12l72 -133q82 48 82 170q0 23 -4 53z" />
    <glyph glyph-name="R" unicode="R" horiz-adv-x="464" 
d="M243 455q12 -19 24 -34q25 -33 128 -157q79 -96 79 -102q0 -3 -1 -9l-1 -3v-8q-26 -9 -28 -9q-16 0 -30 15q-2 18 -103 145l-117 145q-1 1 -4 3q-4 0 -33.5 -11t-34 -11t-10.5 -1q-2 -39 -2 -137q0 4 1 -13q1 -21 2 -49q1 -18 3 -64q0 -7 4.5 -21.5t4.5 -22.5
q0 -3 -10 -23h-35q-10 8 -14 18q-4 92 -4 157l1 -3q-3 18 -1 82q2 58 -3 67l11 -5q-3 -1 -14.5 -5.5t-17.5 -4.5q-22 0 -32 20v13q6 12 19.5 15l26.5 6l6 2q1 15 0 41q-2 33 -2 42v71l-4 42q1 9 1 28q-3 5 -12 15q0 8 1 11l1 3q9 9 21 14q28 1 80 1q41 0 96 -7
q66 -8 101 -23q74 -31 74 -95q0 -10 -9 -24.5t-10 -20.5q-24 -37 -67 -59q-87 -34 -86 -34zM110 463q25 9 75 23q174 50 174 118q0 28 -31 42q-11 5 -33 11q-105 18 -126 18q-30 0 -65 -4z" />
    <glyph glyph-name="S" unicode="S" horiz-adv-x="408" 
d="M343 287q-2 1 -3 4q-7 80 -110 104q-51 6 -120 22q-8 2 -25 5q-71 24 -71 73q0 34 26 78q25 41 55 64q18 14 55 34q41 17 70 17q-11 0 32 -5q62 -7 62 -77q0 -12 -4 -23q-11 -7 -21 -7q-12 0 -26 14q1 19 -3 32q0 22 -40 22q-49 0 -97.5 -45.5t-56.5 -94.5q0 -1 -1.5 -5
t-1.5 -5q0 -19 32 -25q16 -5 58 -15q106 -19 119 -22q66 -20 96 -67q26 -40 26 -78q0 -20 -10.5 -46.5t-24.5 -38.5l3 5q-1 -3 -2 -9q-50 -58 -151 -89q-10 -3 -13 -3h-24q-23 0 -49 13q-29 14 -36 33q-29 37 -29 85q0 18 10 45q11 33 13 45v8q4 5 11 16q22 1 35 -4h1l2 -1
q-7 6 -17 16q6 -7 21 -23l1 -1q1 -12 -1 -23l-10 -13q-17 -45 -17 -66q0 -32 19.5 -59t50.5 -27h16q-5 0 28 9q42 12 80 48q41 40 42 80z" />
    <glyph glyph-name="T" unicode="T" horiz-adv-x="430" 
d="M273 680h48q6 0 27 2l27 1q19 0 34 -3q15 5 24 5q8 0 28 -7q1 -8 1 -16q0 -16 -6 -31q-70 1 -191 4q-1 -4 -1 -12q-1 -80 -11 -188q-13 -140 -13 -194v-80l2 -4q2 -7 2 -11q0 -9 -14 -22h-37q-2 9 -12 14v18q0 4 5 12q6 31 7 100q2 89 3 104q4 32 11 108l3 37q5 81 5 112
v5l-1 2h-2q-7 0 -27 -1t-33 -1h-64q-47 3 -58 18l-2 6q1 1 0 10q2 4 9 13q13 6 23 6q5 0 16 -2t17 -2t38 -1l39 -2q-10 0 43 4q-1 1 -6 9q12 13 23 17l3 1q9 3 12 3t13 -4q10 -10 16 -29z" />
    <glyph glyph-name="U" unicode="U" horiz-adv-x="559" 
d="M522 337q0 -21 -7 -37q-4 -71 -59 -128q-56 -60 -126 -60h-19q-19 0 -66 12q-40 10 -50 15q-112 55 -141 135q-18 50 -32 129q-1 6 -5 67q-3 46 -3 66q2 68 2 88q10 20 29 20q3 0 8.5 -1t8.5 -1q10 -10 10 -21q-7 -49 -7 -97q0 -119 39 -238q8 -25 50 -64q82 -60 167 -60
q89 0 137 112q3 14 10 53q4 30 4 100q0 176 -29 230q-6 11 -6 16q0 10 12 17.5t22 7.5h13q13 -19 14 -29q1 -23 7 -49q20 -90 16 -155q3 -27 3 -42v-17q-1 -19 -2 -69z" />
    <glyph glyph-name="V" unicode="V" horiz-adv-x="370" 
d="M25 645l4 6q19 7 22 7t9 -2h2q1 -1 8 -1q4 -13 27 -82l154 -348q21 159 29 252q10 124 8 211q31 16 34 16q10 0 18 -10q5 -9 11 -18q-3 -7 -8 -21q-6 -90 -28 -321q-22 -197 -22 -200q1 -1 3 -6l2 -5q2 -3 3 -8q-2 -10 -12.5 -17.5t-21.5 -7.5q-19 0 -28 17q0 5 -1 14
l-90 213l-103 241q-6 20 -25 52v10q0 8 5 11v0v-3z" />
    <glyph glyph-name="W" unicode="W" horiz-adv-x="691" 
d="M595 290q0 115 16 317q2 19 6 71q12 7 31 12l9 -3q17 -14 17 -28q0 -7 -5 -17q-4 -28 -12 -100q-12 -149 -12 -302q-1 -4 7 -6v-21q-25 -17 -35 -17t-24 9q-2 5 -3 7l-1 3q0 2 -1 3q-26 32 -90 118l-143 206q-15 21 -36 43q-2 -5 -34 -117l-24 -71q-9 -28 -45 -152
l-17 -62v-11q0 -13 -8 -24q-10 -4 -27 -4q-5 0 -28 15q0 4 1 11t1 11q-1 9 -5 30l-9 49q-5 31 -21 108q-5 14 -34 109l-46 149q-2 7 -9 14v16q21 13 31 13h6q6 0 9 -2l1 -1q-2 0 -3 1l10 -7q18 -66 83 -267q12 -69 21 -109q10 38 24 84l75 245q4 13 3 27q16 19 36 19
q11 0 30 -25q15 -14 42 -45q72 -107 213 -299z" />
    <glyph glyph-name="X" unicode="X" horiz-adv-x="459" 
d="M412 208q-8 0 -23 6q-4 8 -12 21q-53 66 -144 166q-32 -45 -110 -178q-13 -9 -20 -9q-27 0 -36 19q2 9 11 19q11 14 13 18q12 23 105 171q-3 6 -16 21l-172 192q12 22 35 22q7 0 35 -27q24 -24 31 -33l116 -129q8 11 121 195q2 32 42 32q6 0 20 -14q0 -29 -2 -35
q-5 -2 -11 -6q-38 -66 -134 -212q2 -4 71 -79q24 -26 79 -93q9 -11 28 -23q7 -13 7 -27q-10 -17 -34 -17z" />
    <glyph glyph-name="Y" unicode="Y" horiz-adv-x="388" 
d="M407 637q-19 -19 -38 -56l-31 -62l-64 -123l-5 -25q-5 -4 -4 -23l6 -122q-1 -15 0 -44q1 -27 9 -41q2 -23 -1 -36q-16 -9 -24 -9q-4 0 -11 1.5t-11 1.5q-4 4 -18 17q6 11 7 18q-2 69 -9 227q0 3 -10 14q0 5 -1 15q-104 115 -156 208q-8 14 -15.5 28.5t-20.5 26.5v21
q20 10 22 10h25q63 -131 178 -254q36 73 113 218q1 5 5 15q11 15 30 15q10 0 29 -13q0 -10 4 -18q-5 -7 -9 -10z" />
    <glyph glyph-name="Z" unicode="Z" horiz-adv-x="561" 
d="M112 183l70 23q57 19 170 53q57 14 161 43q41 11 36 11q20 0 30 -30q-3 -6 -7 -12l-2 -3q-1 -1 -4 -6q-5 0 -6 -1q-11 -4 -16 -4q-2 0 -6.5 1t-6.5 1q-8 0 -131 -33q-25 -6 -94 -27l-215 -71q-21 -12 -35 -12q-2 0 -5 1t-5 1q-5 0 -9 2h1l-6 2q-8 7 -8 17t8 18.5t14 13.5
q27 40 42 67q9 16 33 62q18 50 63 148q1 4 3 11q13 19 26 43q3 13 15 32q15 24 18 30q24 49 38 89q-2 1 -3 1q-3 0 -109 -12l-108 -12q-13 0 -32 15l-4 7q7 29 33 30q15 0 52 2q239 20 207 20q13 0 22.5 -10t9.5 -23q0 -5 -14 -25q-14 -46 -48 -109l-56 -105q-3 -6 -32 -73
l-31 -72q-9 -20 -59 -104z" />
    <glyph glyph-name="bracketleft" unicode="[" horiz-adv-x="268" 
d="M55 530l-1 1q-4 4 -4 12v17q39 10 32 10q12 0 46 1q33 1 47 0q25 -2 46 -7q8 -2 9 -2q3 0 7.5 1t7.5 1q13 0 27 -25q-6 -7 -6 -14q-14 -5 -28 -5q-4 0 -11.5 2t-10.5 2t-40 3l-40 3q-26 0 -30 -1q3 -55 3 -78q0 -31 -5 -57q1 -70 -27 -192q19 -2 83 -1q42 0 66 -2l9 -9
q3 -14 3 -27q-7 -13 -27 -13q-3 0 -7 1l-8 1q-5 1 -16 2h-32q-3 0 -47 -1l-47 -1q-11 0 -32 11q-3 9 -3 16t3 11.5t10 40.5q10 23 19 106q8 73 8 112q0 20 -3 44q2 21 -1 37z" />
    <glyph glyph-name="backslash" unicode="\" horiz-adv-x="267" 
d="M259 26q-8 2 -27 12q-2 10 -5 27q-27 89 -95 253q-47 112 -81 208l-17 26q5 10 16 28l4 1l3 1q4 2 9 2q21 0 30 -21q9 -49 53 -156q22 -51 74 -183l56 -150q7 -18 7 -22v-11q-11 -15 -27 -15z" />
    <glyph glyph-name="bracketright" unicode="]" horiz-adv-x="245" 
d="M161 183v1q-11 72 -11 167v61q0 5 -1.5 15t-1.5 15q0 31 -10 87q-13 0 -40 -1l-25 -2q-21 0 -36 14q0 13 1 16l1 3q16 15 30 15q3 0 9.5 -2t9.5 -2q16 0 43 3q33 4 44 5q14 -6 16 -46q10 -180 10 -166v-69q0 -44 9 -101q1 -4 6 -15t5 -16q0 -8 -7.5 -17t-15.5 -9
q-4 0 -11 1t-11 1q-7 0 -49 -10l-42 -11q-13 0 -26 21v15q10 5 18 13z" />
    <glyph glyph-name="a" unicode="a" horiz-adv-x="507" 
d="M396 186q-6 -19 -23 -53q-92 -133 -199 -147l-3 -1q-6 -2 -10 -2q-3 0 -7.5 2t-5.5 2l-1 -1q-6 -1 -9 -1q-10 0 -67 21q-53 44 -53 132q0 54 36 101q55 58 122 97q80 47 147 47q12 0 26 -8l2 1q6 3 12 3q39 0 49 -50q-3 -30 14 -79q17 -98 77 -217q3 -16 2 -25q-2 5 -1 6
l-7 -9q-14 -5 -20 -5q-16 0 -31 19q1 5 1 7l1 2v4q0 -2 -13 36zM352 332l-5 6q-6 6 -14 7l-7 1q-1 1 -3 1q-6 0 -42 -10t-41 -13q-26 -13 -75 -47q-14 -13 -35 -25q-66 -58 -66 -116q0 -109 86 -109q3 0 7.5 1t7.5 1q27 0 58 21l51 36q43 48 60 78q26 44 28 94q4 7 4 19
t-14 55z" />
    <glyph glyph-name="b" unicode="b" horiz-adv-x="463" 
d="M101 323q13 4 39 10q81 11 131 11q9 0 21 -4q67 -7 111.5 -53.5t44.5 -113.5q0 -30 -8 -48q-2 -7 -24 -41q-31 -28 -38 -33q-23 -20 -41 -28q-11 -3 -57 -17q-76 -22 -87 -22q-4 0 -7 1q-53 -11 -46 -11q-7 0 -10 -3q-13 -1 -24 8l-4 7q1 0 1 -1l-1 2q-2 4 -2 8t4 13l4 9
q0 44 -37 233q-5 27 -13 44q-3 20 -20 107l-12 76q3 7 8 12l4 3q2 2 5 6h10q10 0 22 -14q1 -15 26 -161zM110 280q11 -39 48 -256q22 2 64 8l64 20q14 3 34 10q40 25 56 44q24 29 24 66q0 42 -27 78q-52 50 -90 48q-3 0 -15 3q-126 0 -158 -21z" />
    <glyph glyph-name="c" unicode="c" horiz-adv-x="368" 
d="M344 282q2 4 6 4q-3 -6 -11 -6q-3 0 -23 12q-23 12 -28 14q-25 6 -80 6q5 0 -43 -14q-38 -11 -58 -62q-16 -39 -16 -87q0 -80 66 -110q24 -11 39 -11h20q15 0 59 17q7 2 25 11.5t22 9.5q5 0 10 -3l2 -2q2 -1 10 -4q-6 -14 -15 -43q-15 -3 -96 -26q-14 -4 -16 -4h-19
q-38 0 -82 26q-47 28 -57 63q-15 22 -15 79q0 23 15 84q29 120 197 120q23 0 69 -17q13 -5 27 -13l14 -14v-17q-9 -13 -22 -13z" />
    <glyph glyph-name="d" unicode="d" horiz-adv-x="395" 
d="M350 219l1 3q3 -30 12 -97q-18 -13 -36 -17q-83 -16 -141 -16q-44 0 -82 23.5t-57 62.5q-9 18 -21 67q-2 8 -2 12l7 35q13 65 69 103q36 24 103 50q64 14 92 14q4 -1 13 -4q-13 47 -16 205q6 3 7 4l3 2q6 4 12 7q5 -2 6 -3l4 -1q5 -1 14 -7q3 -16 2 -38q-2 -33 4 -125
q7 -99 7 -133q2 -123 -1 -147zM309 165q0 14 -2.5 42.5t-2.5 42.5l-1 161q-11 4 -41 4q-20 0 -68 -20q-44 -19 -63 -33q-58 -45 -58 -110q0 -31 23 -63.5t53 -46.5q13 -6 41 -6q36 0 94 10q8 3 24 8z" />
    <glyph glyph-name="e" unicode="e" horiz-adv-x="416" 
d="M393 247l-1 -7l-10 -42q-4 -15 -57 -103q-38 -31 -93 -31q-6 0 -17.5 3.5t-16.5 3.5q-62 9 -104 57q-7 9 -26 31q-14 24 -34 74q-12 49 -12 88q0 114 64 173q17 16 44 30q31 16 50 16q43 0 109 -17q4 -2 6 -6q33 -12 52 -52l31 -68q2 -5 13 -22q-19 -21 -31 -21
q-4 0 -11.5 2.5t-11.5 2.5q-34 3 -172 3l-4 3q-8 1 -24 1l-15 -1q-4 0 -9 1l-15 3q-7 1 -26 3q-3 -19 -3 -44q0 -133 80 -189q41 -29 92 -29q38 0 61 33l33 65q6 17 5 31q-2 27 12 43q7 5 28 4q14 -21 14 -33q0 -2 -1 -6zM323 404q-19 66 -69 86q-40 8 -61 8q-32 0 -64 -28
q-27 -23 -43 -56q25 -6 38 -6z" />
    <glyph glyph-name="f" unicode="f" horiz-adv-x="316" 
d="M98 257q0 2 -1 5l-2 11q-19 104 -19 193q0 59 9 86l1 3q3 16 24 58q12 17 47 36.5t55 19.5q28 0 49 -54q16 -40 29 -157q0 -4 3 -12.5t3 -12.5v-15q-6 -14 -21 -14q-4 0 -11 1t-11 1q-3 5 -5 6l-1 3q-2 2 -6 8q-1 101 -27 189q-1 2 -5 6l-2 3l-22 -10q-63 -30 -63 -154
q0 -53 23 -190q16 3 45 12q4 0 20 -9q2 -6 2 -14q0 -12 -4 -26q-12 -5 -27 -6l-28 -2l42 -198v-2q1 -4 0 -9v-3q-1 -2 -1 -8q-14 -8 -23 -8q-3 0 -8 1l-3 1h-6q-8 16 -49 219q-6 -2 -26 -7l-19 -5q-8 -3 -11 -3q-7 0 -31 6q0 6 -6 12q6 12 6 22q53 13 80 17z" />
    <glyph glyph-name="g" unicode="g" horiz-adv-x="493" 
d="M418 138q-57 -82 -117 -109q-36 -16 -63 -16h-24q-50 0 -97 28t-68 71q-9 18 -14 40q-15 22 -15 66q0 97 43 153q36 47 99 81q53 25 147 47q8 3 12 3q8 0 33 -16.5t33 -24.5q6 -13 19 -36q14 -19 27 -41q21 -38 25 -90l10 -139l-3 -48q-1 -20 -6 -39q-39 -291 -88 -321
q-19 -14 -48 -25q-46 -19 -84 -13q-56 13 -85 44q-13 11 -29 26l-4 13q0 4 10 15t23 4q99 -68 152 -37q55 14 90 204q4 20 3 36q6 22 15 66q4 39 4 30v28zM406 317q-6 18 -22 53q-14 21 -39 63q-11 10 -42 20l-6 2q-20 0 -58 -15l-29 -14q-142 -69 -142 -203q0 -35 10 -56
q5 -15 17.5 -42.5t50 -48t69.5 -20.5h18q30 0 66 23q32 20 54 46q58 70 58 118q0 30 -5 74z" />
    <glyph glyph-name="h" unicode="h" horiz-adv-x="446" 
d="M426 34h-7l-4 -1q-4 -1 -9 -1q-24 0 -27 20q3 17 2 63q-1 89 -3 108q-5 58 -20 107q-7 16 -22.5 48.5t-31.5 32.5q-10 0 -80 -20q-24 -7 -62 -26.5t-55 -34.5h1q0 3 2 6q-1 -27 5 -77q6 -54 6 -77v-59q0 -7 1 -21.5t1 -21.5q0 -3 10 -32q0 -10 -14 -21q-23 -3 -18 -3
q-2 0 -12 4q-4 6 -17 19q6 16 6 22q0 3 -3 80l-3 83l-42 353q0 7 12 19h17q5 0 20 -8q6 -70 24 -210q138 69 206 69q31 0 51 -24q12 -15 30 -56q38 -87 38 -177q0 -54 5 -122l2 -12q1 -6 1 -8q0 -6 -3.5 -11.5z" />
    <glyph glyph-name="i" unicode="i" horiz-adv-x="212" 
d="M110 427q-28 0 -50 18t-22 46q0 37 39 76l48 5q10 -10 28 -26q35 -38 35 -60q0 -27 -27 -44q-23 -15 -51 -15zM58 68q12 129 12 166q0 19 -3 68v38q0 21 -6 37q6 6 8 7l3 4q5 4 10 10q12 -4 33 -16q-4 -30 -2 -69q3 -59 3 -68q0 -8 -6 -110q-4 -69 -2 -83q-3 -11 -28 -24
q-3 2 -18 11q-6 13 -6 19t2 10zM133 504q-26 22 -30 22q-7 0 -13 -14.5t-6 -22.5q0 -6 7 -12.5t13 -6.5h10q5 0 15.5 8t10.5 12q-3 10 -7 14z" />
    <glyph glyph-name="j" unicode="j" horiz-adv-x="359" 
d="M232 504q-32 0 -54.5 21t-22.5 53q0 25 11 51q14 31 36 31q10 0 13 -7l-1 1q-5 0 -7 4l-7 -3q1 -2 -2 -5v1q-1 3 -1 10q21 15 30 15q18 0 59 -43q16 -29 16 -44q0 -31 -20 -58t-50 -27zM343 -1q0 -6 2 -8q-4 -25 -10 -72q-5 -7 -6 -11q-4 -33 -33 -64q-23 -18 -50 -22
q-55 -8 -88 -8q-45 0 -92 23q-26 20 -58 58v10q0 9 11 16.5t20 7.5q8 0 20 -8q8 -29 38 -45.5t62 -16.5q33 0 82 8q11 2 21 8q18 12 28 69q7 40 7 78q0 157 -37 275q-18 55 -46 157q-4 3 -4 12v16q5 3 6 4l3 2q6 6 13 6h21q33 -112 65 -233q9 -34 17 -107q3 -24 9 -87z
M248 604l-3 5q-6 8 -12 9q-11 -1 -19 1q-10 -10 -10 -35q0 -35 21 -35q11 0 23 21q5 9 5 15q0 3 -5 19z" />
    <glyph glyph-name="k" unicode="k" horiz-adv-x="304" 
d="M118 225q-4 -1 -29 -17q-9 -60 -9 -75v-78q0 -7 2 -22t2 -22q-10 -13 -24 -13q-16 0 -32 16v10q0 8 5 12q0 7 -1 23.5t-1 25.5q0 14 10 128l-3 3q-2 16 7 28q6 36 13 193q-1 12 8 118l5 55v23q15 11 27 11q18 0 28 -29q-2 -1 -5 -6q-12 -64 -15 -137l-3 -98
q-1 -12 -10 -113q61 29 87 45l45.5 29t42.5 24q9 0 24 -16v-24q-3 -3 -4 -5l-1 -2l-5 -5h-7l-113 -62v-3q31 -54 68 -107l53 -74v-18q-18 -10 -25 -10q-2 0 -20 3l-48 70q-46 68 -72 119z" />
    <glyph glyph-name="l" unicode="l" horiz-adv-x="138" 
d="M93 -8q-3 0 -9.5 1t-10.5 1q-2 10 -3 13v5q0 3 -5 12q6 6 6 9q0 4 -2.5 12.5t-2.5 12.5q-6 91 -6 110v17q-1 30 -4 91l-22 313q-2 9 -8 25q14 16 26 21q9 -5 22 -5q0 -10 5 -16v-84q1 -15 7 -89q5 -52 10 -125q2 -60 13 -261q3 -19 10 -47q-19 -16 -26 -16z" />
    <glyph glyph-name="m" unicode="m" horiz-adv-x="709" 
d="M81 466q11 8 35 22q65 26 94 26q44 0 76 -68l47 35q36 19 63 26q61 15 85 15q48 0 88 -51q19 -24 54 -93q10 -23 31 -83q13 -42 52 -150q0 -3 -1 -8t-1 -8q-18 -13 -30 -13q-13 0 -25 13q-1 11 -5 31q-25 76 -76 218q-29 53 -45 72q-24 27 -54 27q-45 0 -93 -26
q-14 -10 -43 -29q-10 -11 -17 -24q-3 -2 -8 -5q4 -13 28 -134q0 -4 18 -134l1 -2q2 -1 9 -4l-4 -15q-5 -17 -31 -17q-11 0 -27 11q-15 215 -49 299l-4 10q-25 63 -42 63q-11 0 -40.5 -11.5t-36.5 -18.5q-23 -13 -44 -33v-2l1 -3l1 -7q2 -11 1 -15q5 -65 7 -124q3 -76 8 -149
l3 -6l1 -3q0 -2 3 -6q-12 -22 -29 -22q-23 0 -31 13l-13 326q-3 21 -11 87q1 14 -4 36q-3 13 6.5 22.5t22.5 9.5q3 -1 25 -9q1 -29 4 -89z" />
    <glyph glyph-name="n" unicode="n" horiz-adv-x="454" 
d="M90 131v0q5 -5 5 -12q0 -6 -7 -19q-10 -4 -20 -4q-14 0 -30 7q4 84 4 125v112q0 6 -4 9v106q-4 9 -4 12q0 25 25 25q9 0 32 -12q0 -7 -1 -17v-23q14 8 44 22q66 24 101 24q24 0 52 -11q16 -11 38 -38q39 -66 70 -163l52 -172q-14 -22 -33 -22q-11 0 -19 8l-9 9q2 9 0 33
l-36 119q-60 193 -111 193q-34 0 -78 -18q-6 -2 -73 -36v-2q-1 0 -1 -2q0 -5 1 -14t1 -14v-65l2 -2q1 -18 1 -33q-2 -70 -2 -125z" />
    <glyph glyph-name="o" unicode="o" horiz-adv-x="429" 
d="M336 128q-15 -22 -51 -36q-32 -14 -61 -14q-4 0 -12 1t-11 1t-13 3q-34 10 -67 21t-60 39q-41 42 -41 109q0 44 26 104.5t58 91.5l32 32q12 9 44 35q11 9 19 9q10 0 20 -4q13 2 32.5 -8t26.5 -10q15 -6 45 -29q10 -8 16 -11v-8q57 -84 57 -166q0 -34 -18 -85
q-20 -54 -42 -75zM274 450q-5 5 -27 10q-5 4 -9 6q-7 1 -19 5l-9 2q-1 1 -3 1q-19 0 -82 -72q-13 -15 -42 -76q-14 -47 -14 -75q0 -95 113 -118q34 -7 45 -7q46 0 77 35q41 58 41 132q0 44 -19 87.5t-52 69.5z" />
    <glyph glyph-name="p" unicode="p" horiz-adv-x="383" 
d="M52 169q-3 1 -9 4v7l-1 2q-1 6 -1 9q0 10 10 18q-1 9 -3 57q-1 12 -18 188q0 5 -3 15t-3 15t2 9v-1l4 8q12 8 27 8q22 0 22 -34v-2q4 1 11 1h115q59 -12 80 -22q37 -18 60 -59q17 -42 17 -81q0 -45 -28 -88q-13 -9 -37 -28q-22 -14 -39 -19q-67 -19 -93 -19
q-5 0 -14.5 -1t-14.5 -1q1 0 -18 3l-19 3v-1q-1 -1 -2 -3l2 9q2 -9 2 -106v-78q0 -4 1 -12t1 -12v-22q0 -6 6 -11v-20q-15 -11 -27 -11q-15 0 -30 14v261zM83 425v-9l9 -94q6 -64 7 -114q31 -6 54 -6q3 0 7 1l14 3q28 5 58 11q27 5 55 32q24 23 24 61q0 119 -160 119
q-56 0 -66 -4h-2z" />
    <glyph glyph-name="q" unicode="q" horiz-adv-x="391" 
d="M311 123q6 -46 0 -46q2 -56 6 -99q33 4 37 -19q3 -17 -7 -26t-53 -13q-13 0 -30 16q0 6 1.5 17t1.5 17v65q-1 6 -4 35l3 49q-1 8 -3 68q-43 -29 -95 -29h-28q6 0 -39 9q-75 50 -75 126q0 93 128 189q10 7 35.5 14.5t39.5 7.5q13 0 19 -1q5 5 18 5q12 0 21 -3q9 -9 9 -18
q2 -39 10 -152q7 -96 7 -159q0 -29 -2 -53zM245 461q-8 3 -12 3q-47 0 -102.5 -61.5t-55.5 -109.5q0 -41 25 -65t66 -24q55 0 81 35q4 8 14 20q-5 69 -16 202z" />
    <glyph glyph-name="r" unicode="r" horiz-adv-x="357" 
d="M352 443v-1q-12 -15 -25 -15q-20 0 -30 13l-3 4q-3 5 -6 8q-21 4 -35 4h-22q-28 -7 -68 -38q-43 -31 -54 -55q-2 -6 -9 -11v-2q0 -3 2 -14l6 -34q6 -34 19 -123q2 -13 9 -71q1 -2 6 -7q-7 -31 -37 -31q-15 0 -24 22q3 61 -6 123q-11 71 -26 157l-12 67q-2 14 -5 32v17
l26 8q13 0 26 -11q5 -9 3 -17q-1 -5 -2 -9q1 -12 5 -37q36 30 68 51l46 22q21 7 51 7q47 0 90 -27q1 -4 2 -6l2 -4q5 -8 5 -14q0 -3 -2 -8z" />
    <glyph glyph-name="s" unicode="s" horiz-adv-x="339" 
d="M208 116q-11 0 -63 15q-26 6 -51.5 13t-48.5 23v19q19 19 29 19q6 0 14.5 -7t11.5 -8q32 -12 68.5 -22t43.5 -10q51 0 51 56q0 66 -92 67q-149 1 -149 59q0 29 40 74q35 40 59 49q16 6 22 10q16 10 103 32q18 -12 22 -24q-6 -23 -31 -23q-2 0 -6 1t-6 1q-5 0 -29 -11
l-33 -16q-32 -13 -45 -26q-45 -45 -45 -65q0 -17 61 -17q100 0 126 -20q54 -24 54 -94q0 -95 -106 -95z" />
    <glyph glyph-name="t" unicode="t" horiz-adv-x="256" 
d="M136 405q19 4 59 4q22 -10 22 -20q0 -4 -1 -9l-1 -1q-5 -10 -10 -12h-2q-11 -4 -33 -4q-5 0 -14 -1t-12.5 -1t-11.5 -1q-5 -78 13 -295q0 -6 1.5 -19t1.5 -20q-6 -3 -6 -4l-3 -2q-7 -6 -12 -6q-8 0 -25 5l-7 9v-3l-1 2q-3 6 -3 11q0 -4 4 34l-14 161v46q1 4 2 14l4 55v8
q-3 -1 -28 -1h-41q-3 2 -13 10q-1 2 -3 12q2 12 10 19q28 3 76 3q1 10 0 20q-7 10 10 212q-3 6 -1 14q7 3 33 7q9 -5 19 -25q-12 -7 -8 -74l-5 -82q2 -35 0 -66z" />
    <glyph glyph-name="u" unicode="u" horiz-adv-x="434" 
d="M394 113q-18 0 -27 13q-5 13 -13 39q-20 37 -53 117q-5 -78 -30 -133q-46 -69 -102 -69q-20 0 -35 7q-34 6 -70 56q-26 46 -34 97q-14 88 -14 140q0 14 3 37q2 23 -3 38q24 16 32 16q5 -1 26 -10q-7 -49 -7 -92q0 -52 14 -125q0 -1 1 -3v-2l12 -41t23 -41q26 -31 52 -31
q19 0 37 17.5t25 36.5q23 66 23 110q0 74 -21 182q-1 5 -16 25q12 35 39 35q13 0 22 -16l1 -3q1 0 3 -3q3 -45 51 -173q9 -24 38 -92q14 -46 54 -102q-6 -30 -31 -30z" />
    <glyph glyph-name="v" unicode="v" horiz-adv-x="320" 
d="M192 171l-8 -6q3 9 6 14q24 138 58 291q2 5 -4 10v14q20 22 31 22q7 0 31 -19v-15q-9 -8 -15 -37q-4 -21 -7 -42q-4 -13 -8 -32q-2 -11 -11 -55q-37 -180 -37 -204v-16q-13 -16 -29 -16q-5 0 -9 1l-4 1h-8q-29 87 -70 190l-35 87q-4 6 -34 76q-7 15 -15 29v13
q15 16 30 16q12 0 28 -16q-1 -18 17 -60l64 -151l37 -100z" />
    <glyph glyph-name="w" unicode="w" horiz-adv-x="481" 
d="M124 187q13 63 32 178q-2 7 -2 15q0 29 27 29q20 0 33 -19l41 -39q75 -77 131 -148q5 142 4 168t-1 51q0 24 1 47l-2 3q-3 6 -3 11q0 9 6 23q17 8 22 8q31 0 31 -29q0 16 -3.5 -24.5t-3.5 -48.5t2 -27l1 -21v-238l-12 -14q-6 -7 -16 -7q-15 0 -30 13q-25 47 -65 93
l-76 85q-15 18 -38 38q-3 -10 -6 -31q-1 -5 -2 -25q-9 -39 -25 -121q-3 -16 -8 -47q4 -6 4 -11q0 -10 -11 -18.5t-20 -8.5q-5 0 -10 4q-14 1 -20 17q-2 6 0 14q-24 75 -38 149q-1 2 -4 6l-21 82q-13 46 -28 79v14q13 14 24 14q6 0 29 -6l61 -229z" />
    <glyph glyph-name="x" unicode="x" horiz-adv-x="341" 
d="M218 266l79 -100l27 -26q6 -18 6 -20q0 -4 -2 -8v-1l-4 -8q-13 -8 -23 -8h-4q-9 0 -25 12q-10 23 -38 59l-45 57l1 -3l-69 -105q1 -12 -10 -21.5t-23 -9.5q-11 0 -30 20v9q0 7 4 12l1 2v-2l3 5q35 25 67 92q16 21 28 40v2q-19 19 -77 112l-64 113l9 11q8 10 21 10
q4 -1 21 -4q54 -108 117 -196q40 71 61 134q0 4 -2 12q3 9 18 23h11q25 0 33 -32q-5 -6 -11 -14q-33 -90 -80 -167z" />
    <glyph glyph-name="y" unicode="y" horiz-adv-x="458" 
d="M393 131q-8 -30 -34 -62t-53 -42q-8 -8 -18 -10q-34 -6 -50 -6h-20q-12 0 -23 5q-112 24 -142 114q-29 45 -31 133q0 12 1 37q-1 23 -8 35q4 13 18 19q2 0 27 6l16 -17q-5 -19 -5 -48q0 -28 4 -55q6 -41 6 -46q5 -12 10 -28q12 -41 47 -71t77 -35q24 -3 18 -3
q71 0 108 74q29 58 29 129q0 26 -7 41q-3 5 -3 11q0 27 37 27q9 0 18 -11l4 -6q1 -3 2 -5v-2q0 8 3 -49q24 -160 24 -179v-49q0 -15 -4.5 -54t-26.5 -67q-28 -37 -91 -67q-46 -21 -87 -21q-8 0 -19.5 0.5t-23 2t-26.5 7.5q-12 5 -21 13l-3 7l1 10q3 29 50 16q7 0 21 -6
q26 -2 43 -2t57 21q34 18 51 31q28 39 27 99l2 34q0 10 -1 29.5t-1 29.5q-1 5 -3 10z" />
    <glyph glyph-name="z" unicode="z" horiz-adv-x="469" 
d="M475 123l-1 -3q-12 -16 -24 -16q-4 0 -16 4l-16 5h-32q-52 0 -107 -2l-105 -6q-3 1 -14 -2l-8 -2q-4 -1 -7 -1q-4 0 -12 1.5t-12 1.5q-5 5 -17 16v14q0 9 11 17l2 2q24 44 87 141q59 90 80 145q-4 1 -6 0l-184 -11q-8 -1 -24.5 1.5t-23.5 2.5q-12 0 -26 14v16
q18 17 26 17q7 0 23.5 -2t25.5 -1q38 3 76 3h23q-23 0 34 3t67 3q18 1 41 -1q3 -6 13 -20q-36 -101 -120 -220q-21 -30 -54 -89h49q11 0 29 1h19q8 1 45 4l45 4q7 0 35 -1q48 -2 56 -2l12 -6q11 -18 11 -23q0 -3 -1 -8z" />
    <glyph glyph-name="Aring" unicode="&#xc5;" horiz-adv-x="377" 
d="M176 640q-9 -7 -25 -22q-25 -10 -44 -10q-31 0 -72 37q-9 8 -21 31.5t-12 34.5q0 4 3 11l1 4q2 13 15 37q27 29 44 29q3 0 7 -1l9 -1q8 -1 21 -3q8 -4 27 -12l3 -1q26 -9 44 -28q20 -22 20 -48q0 -33 -20 -58zM328 157q5 -16 20 -58q21 -53 36 -84q0 -5 -2 -9v-1l-4 -8
q-11 -8 -27 -8q-13 0 -27 16q-1 7 -28 85q-7 22 -22 63h-3q-3 0 -55 -6l-55 -7q-6 0 -19.5 -2t-19.5 -2q-9 0 -28 2q-3 -89 -3 -179q-11 -7 -23 -7q-32 0 -32 24q0 13 2 38.5t2 36.5q3 126 22 306l18 239q12 13 19 15l16 3q7 0 7 2q0 3 -20 46l16 -58q5 2 7 2t2 -1v1
q-1 1 -5 16l-6 -9q-2 -1 -3 -2v0q8 7 15 7q20 0 25 -18q21 -81 106 -273l49 -120q1 1 4 3q17 6 21 6q3 0 12 -3q5 -1 18 -1q0 -9 7 -16q-14 -25 -15 -26q-10 -13 -25 -13h-2zM148 693q-1 1 -2 0q0 2 -1 7l-2 6q0 2 -1 5q-4 9 -14 15q-26 15 -37 15q-3 0 -10.5 -3t-11.5 -3
t-10 2q-9 -13 -9 -17v-16q5 -12 24 -34q24 -17 39 -17q9 0 21 11.5t10 17.5zM126 512l-29 -324l12 -2q23 0 145 17q-45 103 -128 309z" />
    <glyph glyph-name="AE" unicode="&#xc6;" horiz-adv-x="484" 
d="M294 334q128 19 146 19q26 0 26 -26q0 -3 -1 -9l-1 -3l-14 -14q-97 -5 -141 -12q19 -63 59 -182q8 3 60 32q20 11 36 31l6 3l5 3q10 6 15 6q8 0 17 -7t9 -15v-22q-7 -3 -136 -76q-14 -8 -26 -8q-10 0 -39 12q2 13 1 19q-18 63 -60 197q-39 -7 -120 -15q-5 0 -14 -1.5
t-14 -1.5h-21l-18 -153q-14 -8 -21 -8h-8q-14 0 -26 16l1 13q1 2 3 7q19 113 19 150q7 49 12 97q1 13 4 45q5 28 16 98l2 4q8 58 25 140q2 9 0 22q15 19 54 19q2 0 5 -1l6 -1q12 -2 96 -2q3 0 57 2l56 2q11 4 13 4q9 0 25 -8q0 -7 -1 -20t-1 -19q-25 -9 -27 -9q-6 0 -10 3
q-40 4 -44 4h-7q-8 -1 -16 -1h-22h-92q-1 -1 -3 -1q14 -33 47 -138zM93 308q78 0 149 17l-39 120q-1 13 -3 19q-54 165 -59 174l-23 -132q-25 -134 -25 -191v-7z" />
    <glyph glyph-name="Oslash" unicode="&#xd8;" horiz-adv-x="658" 
d="M660 626q-12 -6 -95 -69l2 -3q9 -11 24 -35q30 -72 30 -109q0 -97 -49 -177q-42 -48 -109 -70q-16 -5 -37 -14q-63 -15 -87 -15q-141 0 -224 63q-16 -11 -45 -40q-14 -6 -23 -6q-13 0 -33 15v17l61 48q-31 35 -42 62l-18 72l-1 4q-2 8 -2 11q0 10 7 48q15 83 67 137
q45 48 131 84q55 23 139 23q5 0 13 -6l4 -3q5 -1 16 -4l70 -30q40 -18 65 -37l47 37q27 22 43 42q21 5 29 5q27 0 27 -28q0 -12 -10 -22zM371 614q-6 2 -21 4q-11 1 -19 12q-159 -18 -229 -132q-38 -62 -38 -122q0 -26 15 -61t34 -53q76 64 122 96q21 15 42 33q10 6 31 20
q4 2 174 147q-22 19 -111 56zM540 497q-4 6 -13 22q-2 2 -5 4l-160 -136l-209 -159q71 -48 168 -48q5 0 21 1l20 1q12 0 64 16q94 29 119 100q6 18 15 54q3 28 3 41q0 67 -23 104z" />
    <glyph glyph-name="aring" unicode="&#xe5;" horiz-adv-x="496" 
d="M341 567q0 -10 -8 -26q-8 -11 -44 -29q-20 -5 -30 -5q-3 0 -12 3q-28 -1 -53 16q-28 19 -28 46q0 17 20 51q13 10 30 15q17 12 38 12q25 0 59 -18q28 -26 28 -58v-7zM507 113l-4 -2q-7 -6 -13 -6q-20 0 -36 16q0 7 1 9l1 3v4q-3 8 -18 41l-35 117l-6 -16q-6 -16 -18 -41
q-30 -48 -81 -91q-26 -22 -62 -39q-42 -20 -70 -20q-50 0 -85 23q-40 26 -48 72q-9 21 -9 58q0 61 35 106q13 17 62 55t72 50l38 19q72 23 89 23q15 0 32 -6l6 -4q-1 1 -1 2q5 -5 7 -9l-16 2q8 9 21 9h4q21 0 35 -20t11 -41q0 -8 1 -25q39 -168 90 -264q4 -8 4 -21
q-6 -3 -7 -4zM252 604q-2 -1 -25 -5q-13 -15 -13 -26q0 -18 44 -18q35 0 35 21q0 13 -13.5 20.5t-27.5 7.5zM360 439q-1 4 -5 8l-6 6q-2 0 -11 2l-6 1q-2 1 -3 1q-5 0 -18 -4.5t-17 -4.5q-55 -10 -135 -72q-71 -55 -85 -97q-4 -12 -4 -35q0 -75 43 -104q36 -8 46 -8
q63 0 143 83q36 37 40 58q8 8 10 16q20 61 20 96q0 23 -12 54z" />
    <glyph glyph-name="ae" unicode="&#xe6;" horiz-adv-x="630" 
d="M448 554q18 -11 25 -36q33 -48 33 -119q0 -27 -21 -110q-10 -19 -19 -29q-4 -9 -41 -56q70 -54 151 -54q5 0 14.5 1t14.5 1q11 0 19 -11.5t8 -22.5t-9.5 -19.5t-20.5 -8.5q-4 0 -12.5 3.5t-12.5 3.5q-104 0 -195 76q-58 -31 -84 -31q-2 0 -30 1l-32 1q3 0 -22 5
q-38 8 -104 45q-6 6 -23 16q-30 22 -50.5 60.5t-20.5 75.5q0 4 2 12.5t2 12.5q3 24 22 60q31 60 95 99q37 23 118 55q72 9 82 9q83 0 111 -34v-6zM386 239q18 18 46 55q24 72 24 98q0 33 -14 73.5t-36 60.5q-19 10 -37 10h-22q-18 -11 -31 -40t-13 -52q0 -101 69 -192
q6 -4 14 -13zM293 550q-20 -3 -66 -21q-3 -2 -8 -7q-63 -25 -104 -67q-49 -50 -49 -109q0 -78 99 -128q58 -30 96 -30h30q22 0 55 20q-84 99 -89 192q-5 35 -5 44q0 3 1.5 8.5t1.5 8.5q1 40 38 89z" />
    <glyph glyph-name="oslash" unicode="&#xf8;" horiz-adv-x="453" 
d="M121 155q-17 -21 -37 -54q-6 -1 -17 -6q-9 4 -26 10v13q0 11 37 63q-56 48 -56 114q0 43 52 124q27 33 64 51q31 15 76 27q8 2 14 2q18 0 81 -30q22 29 58 91q16 18 26 18q11 0 26 -10q2 -9 2 -19q0 -9 -2 -19q-14 -8 -31 -34l-37 -54q52 -47 70 -99q7 -42 7 -45
q0 -46 -51 -94q-44 -42 -94 -59q-32 -11 -67 -11q-55 0 -95 21zM360 352q-11 13 -30 40l-8 6l-4 3l-169 -207q39 -14 61 -14h14q35 0 90 37q61 41 61 82q0 14 -15 53zM107 220q28 41 83 106l87 103q-36 22 -66 22q-42 0 -90.5 -54t-48.5 -97q0 -44 35 -80z" />
    <glyph glyph-name="oe" unicode="&#x153;" horiz-adv-x="630" 
d="M448 554q18 -11 25 -36q33 -48 33 -119q0 -27 -21 -110q-10 -19 -19 -29q-4 -9 -41 -56q70 -54 151 -54q5 0 14.5 1t14.5 1q11 0 19 -11.5t8 -22.5t-9.5 -19.5t-20.5 -8.5q-4 0 -12.5 3.5t-12.5 3.5q-104 0 -195 76q-58 -31 -84 -31q-2 0 -30 1l-32 1q3 0 -22 5
q-38 8 -104 45q-6 6 -23 16q-30 22 -50.5 60.5t-20.5 75.5q0 4 2 12.5t2 12.5q3 24 22 60q31 60 95 99q37 23 118 55q72 9 82 9q83 0 111 -34v-6zM386 239q18 18 46 55q24 72 24 98q0 33 -14 73.5t-36 60.5q-19 10 -37 10h-22q-18 -11 -31 -40t-13 -52q0 -101 69 -192
q6 -4 14 -13zM293 550q-20 -3 -66 -21q-3 -2 -8 -7q-63 -25 -104 -67q-49 -50 -49 -109q0 -78 99 -128q58 -30 96 -30h30q22 0 55 20q-84 99 -89 192q-5 35 -5 44q0 3 1.5 8.5t1.5 8.5q1 40 38 89z" />
    <glyph glyph-name="Scaron" unicode="&#x160;" horiz-adv-x="1000" 
 />
    <glyph glyph-name="glyph98" 
 />
    <glyph glyph-name="glyph99" 
 />
    <glyph glyph-name="glyph90" horiz-adv-x="227" 
 />
    <glyph glyph-name="divide" unicode="&#xf7;" horiz-adv-x="489" 
d="M189 458q0 27 21 47t48 20q51 0 51 -44q0 -8 -4 -18q3 -18 -20.5 -37t-42.5 -19t-36 16t-17 35zM176 223v14q0 22 18.5 41.5t40.5 22.5q7 1 16 1q15 0 36 -6q26 -7 30 -17q9 -20 9 -25v-15q-13 -11 -38 -35q-7 -9 -28 -18t-33 -9q-19 0 -35 13.5t-16 32.5zM262 473
q-2 1 -5 2q-12 0 -21 -13q4 -2 8 -2q9 0 18 13zM259 236q6 7 11 12q-9 2 -12 2q-20 0 -26 -19q4 -2 5 -2q3 0 22 7zM438 359l-2 -2v-7q-25 -13 -36 -13q-5 0 -15.5 3t-14.5 3q7 0 -112 -6q-30 -1 -92 -1q-11 0 -19 1l-9 2q-2 1 -4 1q-44 0 -63 11l-4 7l1 -1v0l-4 7
q4 23 47 23q8 0 41 -3l40 -3q82 0 185 7q14 6 17 6q5 0 13 -1h15q17 -20 17 -25q0 -3 -1 -9z" />
    <glyph glyph-name="multiply" unicode="&#xd7;" horiz-adv-x="399" 
d="M306 501l6 -1q12 -4 19 -12q5 -5 9 -21q-92 -89 -110 -108q6 -4 39 -36q42 -50 64 -62q4 -14 9 -18q-12 -20 -24 -27q-9 0 -20 5q-4 5 -96 106q-13 -11 -30 -31l-57 -62q-3 -2 -6.5 -8.5t-6.5 -9.5q-18 -17 -37 4q-6 6 -10 28q11 10 113 117l-14 16q5 -6 -82 91
q-1 7 0 19l9 8h12q-1 0 -2 1l2 1q12 -1 23 -13q-2 3 81 -89l88 85q3 4 10 19q7 -1 9 -2h3h-1z" />
    <glyph glyph-name="underscore" unicode="_" horiz-adv-x="656" 
d="M617 11l-2 -3v-7q-38 -14 -55 -14q-9 0 -24.5 3t-22.5 3q11 0 -170 -6q-47 -1 -142 -1q-17 0 -29 1l-13 2q-4 1 -6 1q-68 0 -97 12l-7 7l2 -1v0l-6 7q6 25 72 25q12 0 63 -3l61 -3q125 0 283 7q21 6 25 6q9 0 21 -1h24q25 -21 25 -27q0 -2 -2 -8z" />
    <glyph glyph-name="asciitilde" unicode="~" horiz-adv-x="469" 
d="M219.5 469.5q24.5 -23.5 54.5 -42.5t46 -10t43 36.5t42 15.5l14 -13l8 -12l3 -12l-4 -9l-9 -8q-31 -19 -42.5 -25.5t-36 -15.5t-58 4.5t-64 39.5t-118.5 -22q-20 17 -20 33q0 31 58.5 47.5t83 -7zM271.5 237q-24.5 26 -52 42.5t-45.5 9.5t-32 -21.5t-38 -13.5l-11 8l-6 3
q-3 1 -11 7q0 4 -1 7l-1 2v12q30 19 42 25.5t36 15.5t58.5 -4.5t66.5 -44t117 26.5q21 -17 21 -33q0 -29 -59.5 -48.5t-84 6.5z" />
    <glyph glyph-name="bar" unicode="|" horiz-adv-x="163" 
d="M74 -164q-3 1 -9.5 2.5t-10.5 1.5q-1 15 -2 19v7q0 4 -4 17q6 9 6 13q0 6 -2 18t-1 18q-1 130 0 157l1 24q1 43 1 130q-1 120 -3 447q-2 13 -7 36q15 22 27 28q9 -7 22 -8q-1 -14 4 -23l-5 -119q0 -22 2 -128q2 -74 3 -178q-2 -86 -3 -373q2 -27 8 -67q-20 -22 -27 -22z
" />
    <glyph glyph-name="bullet" unicode="&#x2022;" horiz-adv-x="412" 
d="M229 296h-17q-27 0 -50.5 18.5t-27.5 41.5q-1 7 -1 16q0 15 7 36q9 27 21 31q24 9 30 9h19q13 -13 42 -39q11 -7 22 -28t11 -34q0 -18 -16.5 -34.5t-39.5 -16.5z" />
  </font>
</defs>
</svg>
