<svg xmlns="http://www.w3.org/2000/svg" viewBox="0 0 120 120" width="120" height="120" preserveAspectRatio="none"><defs><style>.cls-1{fill:#93c955;}.cls-2{fill:#63b246;}.cls-3{fill:#00a34b;}.cls-4{fill:#008347;}.cls-5{fill:#058d53;}</style></defs><title>Grid_3</title><g id="Layer_3" data-name="Layer 3"><rect class="cls-1" width="120" height="120"/><path class="cls-2" d="M105,112.84c-1.61-8.8-6.22-32.92-8.87-35.67,0,0,2.51,22.46,2.4,35.67H105Z"/><path class="cls-2" d="M78.77,88.61s9.45,12.94,12.51,24.23h5.13C94,105.62,88.55,92.79,78.77,88.61Z"/><path class="cls-2" d="M78.3,112.84l.53-30.07S74.46,100.45,74,111.92c.2.33.37.64.53.92Z"/><path class="cls-3" d="M74.48,112.84c-.16-.28-.33-.59-.53-.92-3.74-6.44-14-22.21-25.46-24.53,0,0,13,13.75,20.15,25.45Z"/><path class="cls-3" d="M89,83.05S99.37,101,102.35,112.84h5C106.33,107.76,102.2,91.05,89,83.05Z"/><path class="cls-4" d="M81.63,76.5s0,30.19-1.71,36.34h6.86C86.59,103.87,85.7,82.69,81.63,76.5Z"/><path class="cls-4" d="M65.61,79.53c-3.67,5.57-4.76,23.29-5.08,33.31h6.26C65.61,103.11,65.61,79.53,65.61,79.53Z"/><path class="cls-3" d="M76.78,112.84c.12-9.79-.37-29.88-5.94-39.56,0,0,1.62,24.24,1.22,39.56h4.72Z"/><path class="cls-5" d="M120,120H0V0H120ZM1,119H119V1H1Z"/></g></svg>