<?xml version="1.0" encoding="UTF-8" standalone="no"?>
<svg
   viewBox="0 0 120 120"
   width="120"
   height="120"
   preserveAspectRatio="none"
   version="1.1"
   id="svg2988"
   sodipodi:docname="kittyslider.svg"
   inkscape:version="1.2.1 (9c6d41e4, 2022-07-14)"
   xmlns:inkscape="http://www.inkscape.org/namespaces/inkscape"
   xmlns:sodipodi="http://sodipodi.sourceforge.net/DTD/sodipodi-0.dtd"
   xmlns="http://www.w3.org/2000/svg"
   xmlns:svg="http://www.w3.org/2000/svg"
   xmlns:rdf="http://www.w3.org/1999/02/22-rdf-syntax-ns#"
   xmlns:cc="http://creativecommons.org/ns#"
   xmlns:dc="http://purl.org/dc/elements/1.1/">
  <sodipodi:namedview
     id="namedview2990"
     pagecolor="#ffffff"
     bordercolor="#000000"
     borderopacity="0.25"
     inkscape:showpageshadow="2"
     inkscape:pageopacity="0.0"
     inkscape:pagecheckerboard="0"
     inkscape:deskcolor="#d1d1d1"
     showgrid="false"
     inkscape:zoom="4.497219"
     inkscape:cx="62.705418"
     inkscape:cy="49.697379"
     inkscape:window-width="1920"
     inkscape:window-height="1027"
     inkscape:window-x="0"
     inkscape:window-y="25"
     inkscape:window-maximized="0"
     inkscape:current-layer="Layer_3" />
  <defs
     id="defs2863">
    <style
       id="style2861">.cls-1{fill:#2484c6;}.cls-2{fill:#ffe07a;}.cls-3{fill:#e37ab1;}.cls-4{fill:#fff;}.cls-5{fill:#00529a;}.cls-6{fill:#483516;}.cls-7{fill:#f7996c;}.cls-8{fill:#fffce4;}</style>
  </defs>
  <title
     id="title2865">Kitty</title>
  <g
     id="Layer_3"
     data-name="Layer 3">
    <path
       class="cls-1"
       d="m 44.31792,101.00724 c 0,0 -4.982267,-4.275815 -9.891247,-18.404704 C 33.419122,79.678063 31.614237,68.563654 30.648722,64.302307 28.249083,53.138229 21.951979,50.491309 17.974583,51.473308 c -3.701693,0.903973 -8.1477195,5.60906 -8.0205288,9.721373 0.1271908,4.112314 2.9072808,3.923636 6.0581978,3.001073 3.150917,-0.922562 4.633978,-5.061141 7.903385,-2.953067 2.378212,1.535125 5.388977,8.681165 5.847779,15.792818 0.691061,10.827531 0.640744,25.271805 11.015624,32.451245 z"
       id="path2867" />
    <path
       class="cls-2"
       d="m 22.514957,58.719946 c 3.363469,-2.377658 4.158251,0.514735 4.158251,0.514735 0.115899,-4.233936 -3.556157,-4.301499 -3.556157,-4.301499 a 3.8952476,3.9330246 0 0 1 3.425744,0.387723 c -2.613827,-3.445833 -5.905932,-4.336911 -8.338632,-3.794164 -3.627376,0.789446 -8.08007,5.295058 -8.065249,9.340422 0.01482,4.045363 2.726105,3.934312 5.81782,3.111853 3.091716,-0.822457 4.645092,-4.850544 7.771827,-2.691042 a 3.7199615,3.7560385 0 0 1 2.181034,0.519085 c 0.06332,-3.352352 -3.394638,-3.087113 -3.394638,-3.087113 z"
       id="path2869"
       style="stroke-width:0.978523" />
    <path
       class="cls-2"
       d="m 31.58347,67.056902 a 5.59,5.59 0 0 1 -3.063542,2.741242 c 0,0 0.693253,2.937686 0.793294,3.745889 0,0 2.176715,0.282156 2.921413,-1.170574 0.003,-0.0095 -0.250249,-3.143226 -0.651136,-5.316561 z"
       id="path2871"
       inkscape:transform-center-x="-0.061225286"
       inkscape:transform-center-y="-1.5142147" />
    <path
       class="cls-2"
       d="m 34.06733,80.741171 c 0,0 -0.463788,1.469728 -3.758123,1.689176 0,0 -0.02666,2.563628 0.351127,6.720187 0,0 3.784344,0.339471 5.491999,-1.547143 a 63,63 0 0 1 -2.085003,-6.86222 z"
       id="path2873"
       inkscape:transform-center-x="1.8034029"
       inkscape:transform-center-y="-0.13616759" />
    <path
       class="cls-2"
       d="m 39.093456,93.73184 a 19.18,19.18 0 0 1 -6.686709,4.114866 27.77,27.77 0 0 0 4.049416,8.417664 l 5.611515,2.52107 0.829584,-8.32516 c 0,0 -1.496173,-2.630864 -3.803806,-6.72844 z"
       id="path2875" />
    <path
       class="cls-1"
       d="M60.1,78.08s-5.25,7.4-6.41,16.13c0,0-4.28-5.26-9.8-2.68-2.6,1.22-4.4,6.11.17,14.71,0,0-14.43-8.38-13.36,7.12h81.17s1.78-15-14.35-8.19c0,0,5.84-7.51,2.59-12.39-1.78-2.67-6.68-3.38-11.5,1.25,0,0-1.6-10.6-6.14-17C82.47,77,75.78,80.66,60.1,78.08Z"
       id="path2877" />
    <path
       class="cls-1"
       d="m 80.843449,23.214212 c 0,0 15.16288,-17.6697729 38.917271,-8.068498 0,0 -12.51337,16.562952 -15.62215,27.933084 z"
       id="path2879" />
    <path
       class="cls-3"
       d="m 92.683084,34.627787 11.157086,9.209464 c 2.95557,-11.374429 15.20769,-28.131546 15.20769,-28.131546 0,0 -21.385878,1.885434 -26.364776,18.922082 z"
       id="path2881" />
    <path
       class="cls-1"
       d="m 54.917104,23.935322 c 0,0 -19.222946,-19.6322085 -45.5228037,-5.095014 0,0 20.3440417,12.361216 27.4473027,27.017362 z"
       id="path2883" />
    <path
       class="cls-3"
       d="m 44.589784,36.726937 -7.450153,9.289307 C 29.92885,31.4127 9.4945107,19.201333 9.4945107,19.201333 c 0,0 28.0119043,-6.674948 35.0952733,17.525604 z"
       id="path2885"
       inkscape:transform-center-x="-1.8936051"
       inkscape:transform-center-y="-2.2209517" />
    <path
       class="cls-1"
       d="M117.13,56.07s-7.47.33-11.44-4.36c0-.47,0-.93,0-1.4C105.73,33.55,89.46,20,69.39,20S33.05,33.55,33.05,50.31a25.25,25.25,0,0,0,.54,5.24c-1.52.91-5.77,3-10.2,1.68,0,0,6,11.76,14.88,10.16a15.09,15.09,0,0,1-6.32,3s41.78,25.48,75.11-2.85c0,0-3.66-.72-5-3.66A18.09,18.09,0,0,0,117.13,56.07Z"
       id="path2887" />
    <path
       class="cls-4"
       d="m 40.25568,52.714044 c 0,0 -3.699837,-11.643268 11.664369,-13.162235 7.484402,-0.746611 14.52633,3.134478 12.66229,11.360071 0,0 -8.312864,-1.197152 -24.326659,1.802164 z"
       id="path2889"
       style="stroke-width:0.778418" />
    <path
       class="cls-5"
       d="M69.42,82.72s-2.59,19.07.46,30.64h-1S65.24,102.7,69.42,82.72Z"
       id="path2891" />
    <path
       class="cls-5"
       d="M57.45,113.37a3.88,3.88,0,0,1,1.79-4.81s-1.54,2.54-.67,4.8Z"
       id="path2893" />
    <path
       class="cls-5"
       d="M66.39,82.72s-4.6,14.2-4.71,24.33l.9.29A232.82,232.82,0,0,1,66.39,82.72Z"
       id="path2895" />
    <path
       class="cls-5"
       d="M54,113.37s-2.81-13.15,12.67-4.31c0,0-14.14-6.52-11.7,4.3Z"
       id="path2897" />
    <path
       class="cls-5"
       d="M61.91,113.36s-1.67-2.42.64-3.76a7.52,7.52,0,0,0,.47,3.77Z"
       id="path2899" />
    <path
       class="cls-5"
       d="M73.22,83.76s2.35,17.46,1.81,29.6h1.44A114.73,114.73,0,0,0,73.22,83.76Z"
       id="path2901" />
    <path
       class="cls-5"
       d="M76.45,82.43a95,95,0,0,1,5.93,24.94l.9-.18A72.8,72.8,0,0,0,76.45,82.43Z"
       id="path2903" />
    <path
       class="cls-5"
       d="M78.75,109.49s11.87-9.14,11.58,3.88h-.89S89.86,103.24,78.75,109.49Z"
       id="path2905" />
    <path
       class="cls-5"
       d="M87.69,113.36s.26-3.86-2.93-4.83c0,0,2.44,2.13,1.19,4.82Z"
       id="path2907" />
    <path
       class="cls-5"
       d="M84,113.36s.46-3-1.91-3.9a4.58,4.58,0,0,1,.41,3.9Z"
       id="path2909" />
    <path
       class="cls-5"
       d="M108.08,113.36s1.76-9.53-6.11-8.53c0,0,5.65.55,5,8.54Z"
       id="path2911" />
    <path
       class="cls-5"
       d="M102.5,113.37s3-4.64-2.35-6.63c0,0,2.76,3.26,1.07,6.63Z"
       id="path2913" />
    <path
       class="cls-5"
       d="M97.23,113.36a4.11,4.11,0,0,0-1-6s2.06,3.47-.17,6Z"
       id="path2915" />
    <path
       class="cls-5"
       d="M35.61,113.37s-4.61-7.54,4.73-8.21c0,0-5,.43-3.76,8.21Z"
       id="path2917" />
    <path
       class="cls-5"
       d="M40.86,113.36s-2.68-4.6,2.64-6.6c0,0-3.3,2.84-1.11,6.61Z"
       id="path2919" />
    <path
       class="cls-5"
       d="M45.09,113.36s-1.18-4.12,2.16-5.74c0,0-2.38,2.75-.8,5.75Z"
       id="path2921" />
    <path
       class="cls-2"
       d="M56.65,21.85l-3.54,8.31s7.86,1,9.34-5.56l9.39,12.08S80,31.82,74.17,25.32l10,5.92s2.19-6.79-7.55-10.67A39.76,39.76,0,0,0,56.65,21.85Z"
       id="path2923" />
    <path
       class="cls-2"
       d="M84,79.49s.24,3.31-4.53,6.87a23.52,23.52,0,0,0,7.37.11A32.47,32.47,0,0,0,84,79.49Z"
       id="path2925" />
    <path
       class="cls-2"
       d="M87.05,87.24a15,15,0,0,1-4.43,5.85,10,10,0,0,0,5.7-.7A41.38,41.38,0,0,0,87.05,87.24Z"
       id="path2927" />
    <path
       class="cls-2"
       d="M58.59,80.51A16.51,16.51,0,0,0,63,89s-5.2,0-7.43-2.1A37.38,37.38,0,0,1,58.59,80.51Z"
       id="path2929" />
    <path
       class="cls-2"
       d="M55.29,87.69a25.22,25.22,0,0,0,3.59,7.5,15.74,15.74,0,0,1-5-2A33.09,33.09,0,0,1,55.29,87.69Z"
       id="path2931" />
    <path
       class="cls-5"
       d="M53.67,94.22s-.62,2.12,1,7.91C54.65,102.13,50.89,96.89,53.67,94.22Z"
       id="path2933" />
    <path
       class="cls-5"
       d="M88.62,94s.63,2.11-1,7.91C87.65,101.94,91.41,96.69,88.62,94Z"
       id="path2935" />
    <path
       class="cls-2"
       d="M55,79.2S36.05,56,69.58,53.38C80.05,52.57,94,55.55,86.4,78.77,86.4,78.77,73.67,84.33,55,79.2Z"
       id="path2937" />
    <path
       class="cls-4"
       d="m 97.74757,52.561684 c 0,0 4.49438,-13.30749 -11.012649,-15.03007 -7.601482,-0.850201 -15.421508,3.511699 -13.549643,12.960016 0,0 8.361631,-1.375107 24.562292,2.070054 z"
       id="path2939"
       style="stroke-width:0.838139" />
    <path
       class="cls-2"
       d="M62,45.68a8.74,8.74,0,1,0-13.91,7.67A70.78,70.78,0,0,1,59.89,52,8.7,8.7,0,0,0,62,45.68Z"
       id="path2941" />
    <path
       class="cls-6"
       d="M52.76,39.65a6.7,6.7,0,0,0-1.33,13.12c1.87-.28,3.55-.47,5.07-.59a6.69,6.69,0,0,0-3.74-12.53Z"
       id="path2943" />
    <polygon
       class="cls-7"
       points="70.31 61.32 70 66.81 68.89 61.43 70.31 61.32"
       id="polygon2945" />
    <path
       class="cls-7"
       d="M55.88,60.39a.93.93,0,0,1-1.85,0,.93.93,0,1,1,1.85,0Z"
       id="path2947" />
    <path
       class="cls-7"
       d="M61.82,61.58a.93.93,0,0,1-1.85,0,.93.93,0,1,1,1.85,0Z"
       id="path2949" />
    <path
       class="cls-7"
       d="M59.6,66.47a.65.65,0,1,1-.65-.65A.65.65,0,0,1,59.6,66.47Z"
       id="path2951" />
    <path
       class="cls-7"
       d="M83.37,63a1.09,1.09,0,1,0,2.16-.26,1.09,1.09,0,0,0-2.16.26Z"
       id="path2953" />
    <path
       class="cls-7"
       d="M77.36,59a1.09,1.09,0,1,0,1-1.21A1.09,1.09,0,0,0,77.36,59Z"
       id="path2955" />
    <path
       class="cls-7"
       d="M78.94,65.43a.76.76,0,1,0,.66-.85A.76.76,0,0,0,78.94,65.43Z"
       id="path2957" />
    <path
       class="cls-8"
       d="M53.56,43.62c-.17,1.38-1.82,2.31-3.67,2.08s-3.22-1.55-3-2.93,1.82-2.31,3.68-2.08S53.74,42.24,53.56,43.62Z"
       id="path2959" />
    <path
       class="cls-7"
       d="m 62.79,65.2 c 0,0 6.53,3.38 12.92,-0.53 0,0 -2.870471,5.336588 -5.880471,5.716588 C 67.599529,70.676588 65.78,67.59 62.79,65.2 Z"
       id="path2961"
       sodipodi:nodetypes="cccc" />
    <path
       class="cls-2"
       d="M77.29,45.74A8.74,8.74,0,1,1,91.2,53.41a70.78,70.78,0,0,0-11.83-1.34A8.69,8.69,0,0,1,77.29,45.74Z"
       id="path2963" />
    <path
       class="cls-6"
       d="M86.5,39.71a6.7,6.7,0,0,1,1.33,13.12c-1.87-.28-3.55-.47-5.07-.59A6.69,6.69,0,0,1,86.5,39.71Z"
       id="path2965" />
    <path
       class="cls-8"
       d="M86.77,43.21c-.17,1.38-1.82,2.31-3.67,2.08s-3.22-1.54-3-2.93,1.82-2.31,3.68-2.07S87,41.83,86.77,43.21Z"
       id="path2967" />
    <path
       class="cls-5"
       d="m 41.178609,54.804393 c 0,0 -7.602527,1.726595 3.569025,-0.525997 2.776775,0.05468 18.165225,-2.29753 19.350602,-2.108812 2.722631,0.433457 2.844503,-0.0012 2.79834,-0.179973 0,-10e-7 3.904272,-15.147153 -10.718179,-15.480219 -9.085417,-0.201595 -16.803224,2.921286 -16.588762,11.318104 0,0 -3.333917,0.578488 -6.667837,-2.375299 0,0 0.506912,6.827891 7.34047,6.039048 0,0 -2.92449,2.068525 -5.166599,1.165737 -0.03899,0 0.701878,2.050997 6.08294,2.147411 z"
       id="path2969"
       sodipodi:nodetypes="ccsccccccc"
       style="stroke-width:0.924355" />
    <path
       class="cls-5"
       d="m 97.271951,55.041757 c 0,0 4.314469,1.029461 -6.223222,-1.207734 -1.680657,-0.353697 -7.767937,-1.570549 -8.506972,-1.505168 -1.896767,0.167801 -9.164495,0.274714 -9.164495,0.274714 0,0 -3.999776,-13.884746 9.551332,-15.632552 5.980605,-0.786512 17.615586,0.575205 16.136614,11.105735 0,0 1.765532,0.830207 6.368842,-2.621709 0,0 -0.56387,5.811454 -6.285649,6.265883 0,0 1.063009,1.240942 3.475589,0.742818 -0.0369,-0.0437 -0.77646,2.036194 -5.352039,2.578013 z"
       id="path2971"
       sodipodi:nodetypes="ccsccccccc"
       style="stroke-width:0.898777" />
    <path
       class="cls-5"
       d="M81,58.11a16.57,16.57,0,0,1,16.32.54S88.66,55.72,81,58.11Z"
       id="path2973" />
    <path
       class="cls-5"
       d="M82.55,61.08a16.9,16.9,0,0,1,16.19,3.26A29.53,29.53,0,0,0,82.55,61.08Z"
       id="path2975" />
    <path
       class="cls-5"
       d="M85.28,64.78A15.46,15.46,0,0,1,97.17,69S90.9,65.37,85.28,64.78Z"
       id="path2977" />
    <path
       class="cls-5"
       d="M58.16,58.91S51,54.29,42.63,60.7C42.63,60.7,50.3,56.83,58.16,58.91Z"
       id="path2979" />
    <path
       class="cls-5"
       d="M56.88,62s-9.48-1.82-15.94,4.59C40.94,66.63,49.59,61.92,56.88,62Z"
       id="path2981" />
    <path
       class="cls-5"
       d="M56.66,66.24s-7.48-2-12.39,4.07C44.27,70.31,50.79,66.05,56.66,66.24Z"
       id="path2983" />
    <path
       class="cls-3"
       d="M69.71,56.57a11.69,11.69,0,0,0-5.69,2c.74,2.19,5.87,4.19,5.87,4.19s5.16-3,5.23-5.3A11.47,11.47,0,0,0,69.71,56.57Z"
       id="path2985" />
  </g>
  <metadata
     id="metadata3075">
    <rdf:RDF>
      <cc:Work
         rdf:about="">
        <dc:title>Kitty</dc:title>
      </cc:Work>
    </rdf:RDF>
  </metadata>
</svg>
