<svg id="Layer_1" data-name="Layer 1" xmlns="http://www.w3.org/2000/svg" viewBox="0 0 120 120" width="120" height="120" preserveAspectRatio="none"><defs><style>.cls-1{fill:#93c955;}.cls-2{fill:#edd6af;}.cls-3{fill:none;}.cls-4{fill:#e0c18d;}.cls-5{fill:#575757;}</style></defs><title>Dolly</title><rect class="cls-1" x="13.39" y="14.41" width="94.36" height="88.48"/><ellipse cx="103.57" cy="12.24" rx="13.36" ry="12.24"/><ellipse cx="103.57" cy="107.76" rx="13.36" ry="12.24"/><ellipse cx="18.04" cy="107.76" rx="13.36" ry="12.24"/><ellipse cx="18.04" cy="12.24" rx="13.36" ry="12.24"/><rect class="cls-2" x="0.39" y="93.57" width="119.22" height="15.31"/><rect class="cls-2" x="0.39" y="10.58" width="119.22" height="16.14"/><path class="cls-3" d="M25,108.88H54.51c-3.84-.64-7.9-1.27-11-1.64C38.33,106.64,30.28,107.87,25,108.88Z"/><path class="cls-3" d="M51.85,95.08c10.78-1.86,47.5-1,47.87-1v.62c-.37,0-37-.87-47.75,1a38.62,38.62,0,0,1-5.75.31C35.57,96,17,94.26,16.06,94.17l.06-.6H.39v15.31H21.76c4.74-1,15.42-3,21.78-2.26,4.18.49,10,1.44,14.7,2.26H70.78c-12.39-1.79-30.24-4.22-33.93-3.86-5.76.55-17.25,2.62-17.36,2.64l-.12-.62c.12,0,11.63-2.1,17.42-2.65,4.23-.4,25.86,2.66,38.35,4.49h4.08c-12.24-1.46-34.45-4.64-39.81-5.53-6.54-1.1-22.84,2.52-23,2.56l-.14-.62c.68-.15,16.58-3.68,23.25-2.56,6.38,1.06,36.76,5.38,45.53,6.15h34.56V93.57H16.41C19.4,93.85,45.31,96.21,51.85,95.08Zm-33.51.13c.28,0,27.85,2.34,34.5,1.51,8.83-1.11,46.5-.82,46.88-.82v.63c-.38,0-38-.29-46.79.81a39.79,39.79,0,0,1-4.47.19c-10,0-29.2-1.61-30.16-1.69Zm1.38,3.48c8.43.23,8.46.54,8.49.87s-8,1.13-8.21,1.15l0-.63c.05,0,3.7-.18,6.12-.47-1.59-.12-4.09-.23-6.39-.3Zm.16,3.55-.06-.63c6.57-.61,16.89-1.71,19.34-2.35-2.38-.55-12-1.26-18.22-1.62L21,97c7,.4,18.68,1.2,19.17,2v.36C39.76,100.24,28.91,101.4,19.88,102.24Zm83.42,6.4c-2.34-.22-57.4-5.31-60.88-6.56-.52-.19-1.11-.47-1.07-1,.08-.8,1.92-1.17,6.8-1.94,1.28-.2,2.6-.41,3.78-.64,5.12-1,46-1.38,47.78-1.39v.62c-.43,0-42.61.43-47.67,1.39-1.19.22-2.52.43-3.81.64-2.44.39-5.77.91-6.24,1.37a2.56,2.56,0,0,0,.63.31C46,102.71,102.79,108,103.36,108Zm2.55-4.53,0,.63c-1.41-.06-34.69-1.42-38-2.82-.38-.15-.43-.37-.4-.53.09-.42.21-1,17.66-1.16,8.51-.08,17.09,0,17.18,0v.63c-12.21-.1-30.31,0-33.76.63C73.57,102.79,105.51,104.1,105.85,104.11Zm-.21-5.42.11.62c-.37.07-3.14.06-8.85,0-12.75,0-42.42-.16-44.24,1.43l.06,0c4.19,2.84,61.32,5.48,61.9,5.51l0,.63c-2.36-.11-57.88-2.68-62.22-5.62-.39-.27-.41-.54-.35-.72.47-1.53,12.21-2,44.88-1.91C101.6,98.74,105.3,98.75,105.64,98.69Z"/><path class="cls-4" d="M52,100.63c-.06.18,0,.45.35.72,4.34,2.94,59.86,5.51,62.22,5.62l0-.63c-.58,0-56.67-2.7-60.86-5.54a.15.15,0,0,1-.06,0c1.82-1.59,30.45-1.46,43.2-1.41,5.71,0,8.48,0,8.85,0l-.11-.62c-.34.06-4,0-8.74,0C64.23,98.6,52.49,99.1,52,100.63Z"/><path class="cls-4" d="M102.22,100.85v-.63c-.09,0-8.67-.07-17.18,0-17.45.17-19.31.7-19.4,1.12,0,.16,0,.37.4.53,3.35,1.4,38.37,2.8,39.78,2.86l0-.63c-.34,0-31.09-1.45-36.2-2.76C73.11,100.72,90,100.75,102.22,100.85Z"/><path class="cls-4" d="M52.92,97.34c8.78-1.1,46.49-1.15,46.87-1.15l.06-.47c-.38,0-36.47,0-47,1-6.73.66-34-1-34.26-1.06l-.29.18c1,.08,20.14,1.69,30.16,1.69A39.79,39.79,0,0,0,52.92,97.34Z"/><path class="cls-4" d="M46.41,96.15a37.06,37.06,0,0,0,5.75-.32c10.71-1.84,47.26-.54,47.63-.53v-.63c-.37,0-37-1.41-47.82.45-6.54,1.13-32.58-1.27-35.57-1.55h-.29l-.06.6C17,94.26,35.77,96.15,46.41,96.15Z"/><path class="cls-4" d="M42,101.18c.47-.46,3.8-1,6.24-1.37,1.29-.21,2.62-.42,3.81-.64,5.06-1,47.24-1.38,47.67-1.39v-.62c-1.74,0-40.32-.38-51.73,1.71-4.85.89-6.72,1.14-6.8,1.95,0,.48.72,1.07,1.24,1.26,3.48,1.25,58.35,6.65,60.69,6.86l.25-.93c-.57-.05-57.32-5.3-60.73-6.52A2.56,2.56,0,0,1,42,101.18Z"/><path class="cls-4" d="M21,97l0,.62a142.56,142.56,0,0,1,15.85,1.62,159.35,159.35,0,0,1-17,2.35l.06.63c9-.84,19.88-2,20.28-2.82v-.36C39.66,98.22,27.93,97.42,21,97Z"/><path class="cls-4" d="M20,100.08l0,.63c.24,0,10.48-.82,10.45-1.15s-2.3-.64-10.73-.87l0,.62c2.3.07,4.8.18,6.39.3C23.67,99.9,20,100.08,20,100.08Z"/><path class="cls-4" d="M16.27,105.29l.14.62c.16,0,16.46-3.66,23-2.56,5.36.89,29.15,4.07,41.4,5.53h6c-8.78-.77-41.14-5.58-47.52-6.64C32.68,101.13,17,105.14,16.27,105.29Z"/><path class="cls-4" d="M36.79,104.39C31,104.94,19.49,107,19.37,107l.12.62c.11,0,11.6-2.09,17.36-2.64,3.69-.36,19.29,2.07,31.68,3.86h4.09C60.13,107.05,41,104,36.79,104.39Z"/><path class="cls-4" d="M21.76,108.88H25a71.33,71.33,0,0,1,18.43-.95c3.14.37,6.23.42,9.84.95h5c-4.73-.82-10.52-1.77-14.7-2.26C37.18,105.88,26.5,107.88,21.76,108.88Z"/><path class="cls-3" d="M88.87,10.58h-11a.64.64,0,0,1-.19.62c-1.51,1.86-14.28,1-14.12-.62H55.1C59.17,12.14,69.6,14.65,88.87,10.58Z"/><path class="cls-3" d="M90.83,12.29l-3.22.88c-5.13,1.44-11.42,3.19-18.17,3.19A32.71,32.71,0,0,1,56,13.62c-8-3.55-27.22-1.81-35.1-.9l-.62.06v-.62l.56-.07c9.85-1.13,27.56-2.52,35.43,1,11.41,5.05,22.84,1.85,31.19-.48,1.13-.32,2.21-.62,3.23-.88,1.43-.38,2.66-.75,3.74-1.11H91.72a97.74,97.74,0,0,1-22.1,2.89c-9.37,0-14.36-2-16.15-2.89H.39V26.72H25.48l0-.1c11.49-2.07,29.86-6.09,30.26-8,0-.08-.08-.16-.17-.22C45.65,11.77,21.24,14.94,21,15l-.17-.6c.2-.06,24.88-3.32,35.06,3.5a.81.81,0,0,1,.44.87c-.53,2.52-19.72,6.41-27.95,8H39.26l0-.08.21-.09c3.79-1.67,17.11-7.11,29.26-7.19,13.34-.08,29.85-1.15,34-2.2l.15.6C98.67,18.83,82.08,19.91,68.7,20c-11.19.07-23.39,4.75-28.07,6.73h3c2.07-.61,15.51-4.51,26.09-5.14,3.89-.23,8.43-.15,12.83-.07,8.64.16,17.58.32,22-1.86l.28.57c-4.6,2.24-13.62,2.08-22.33,1.92-4.39-.08-8.92-.16-12.79.07-8.63.51-19.2,3.22-23.83,4.51h6.9l.11,0c2.35-1.21,7.79-3.26,17.91-3.46,12.42-.26,31.09,1.43,31.27,1.45l0,.62c-.19,0-18.82-1.7-31.21-1.45C62.17,24,57,25.55,54.28,26.72H61.5c3.16-.87,9.86-2.47,14.33-1.89,3.53.46,7.62,1.3,10.31,1.89h33.47V10.58H96.28A51.08,51.08,0,0,1,90.83,12.29ZM22,15.56c10-1.14,15.7-.51,18.74.23,4,1,5.8,1.92,5.73,3.08-.08,1.4-2.77,3.57-25.14,6.24l-.07-.62C42.46,22,45.74,19.86,45.8,18.84c0-.35-.45-1.28-5.25-2.44-3-.72-8.64-1.35-18.53-.22l-.52.06v-.63ZM21.08,21l.85-2.21s12.55-1.8,11.61,0S21.08,21,21.08,21Zm20-3.71c1.33.33,1.89.7,1.85,1.21-.16,1.95-14.81,3.51-21.1,4.1L21.81,22c9.82-.91,20.19-2.48,20.53-3.53h0s-.15-.24-1.37-.55c-8.29-2.09-19.9-.43-20-.42l-.09-.62C21,16.88,32.71,15.2,41.12,17.33Zm29.12.56c-5.69,0-11.17-.56-15.51-2.05-15-5.17-35.93-1.58-36.12-1.53l-.15-.61c.19,0,21.27-3.68,36.47,1.54,14.69,5,42.5-.59,47.14-2.8l.27.57C99,14.59,84,17.89,70.24,17.89Z"/><path class="cls-3" d="M64.07,26.72h19c-2.3-.47-4.95-.95-7.35-1.27C72.35,25,67.51,25.91,64.07,26.72Z"/><path class="cls-4" d="M54.93,15.24C39.73,10,18.65,13.66,18.46,13.7l.15.61c.19-.05,21.07-3.64,36.12,1.53a49.15,49.15,0,0,0,15.53,2.42C84,18.26,99,14.59,102.34,13l-.27-.57C97.43,14.65,69.62,20.28,54.93,15.24Z"/><path class="cls-4" d="M87.44,12.57c-8.35,2.33-19.78,5.53-31.19.48-7.87-3.48-25.69-2-35.54-.84l-.56.06.12.51.62-.06c7.88-.91,26.87-2.38,34.89,1.17a33.4,33.4,0,0,0,13.66,2.47c6.75,0,13-1.75,18.17-3.19l3.22-.88a51.08,51.08,0,0,0,5.45-1.71H94.41c-1.08.36-2.31.73-3.74,1.11C89.65,12,88.57,12.25,87.44,12.57Z"/><path class="cls-4" d="M91.72,10.58H88.87c-19.27,4.07-29.7,1.56-33.77,0H53.47c1.79.9,6.68,3.4,16,3.4C75.18,14,82.59,12.72,91.72,10.58Z"/><path class="cls-4" d="M41,17.93c1.22.31,1.36.55,1.37.55h0C42,19.53,31.63,21.1,21.81,22l.06.63c6.29-.59,21.43-2.16,21.58-4.11,0-.52-1-.87-2.33-1.2-8.41-2.13-20.14-.45-20.26-.44l.09.62C21.07,17.5,32.68,15.84,41,17.93Z"/><path class="cls-4" d="M22,16.18c9.89-1.13,15.53-.5,18.53.22,4.8,1.16,5.27,2.09,5.25,2.44-.06,1-3.34,3.11-24.59,5.65l.07.62C43.65,22.44,46.91,20.19,47,18.79c.07-1.16-2.26-2-6.3-3-3-.74-8.76-1.37-18.74-.23l-.45,0v.63Z"/><path class="cls-4" d="M33.54,18.83C34.48,17,21.37,18,21.37,18l-.29,3S32.6,20.62,33.54,18.83Z"/><path class="cls-4" d="M56.34,18.75a.81.81,0,0,0-.44-.87C45.72,11.06,21,14.32,20.84,14.38L21,15c.23,0,23.45-3.38,33.51,3a1.56,1.56,0,0,1,.42.34c.16.25-.87.92-1.66,1.3-4.3,2.09-18.12,5.23-27.82,7l0,.1h2.91C36.62,25.16,55.81,21.27,56.34,18.75Z"/><path class="cls-4" d="M103.05,18.48l-.37-1.32c-4.13,1.05-20.64,2.12-34,2.2-12.15.08-25.47,5.52-29.26,7.19l-.21.09,0,.08h1.37c4.68-2,16.86-6.38,28.05-6.45C82.06,20.19,98.88,19.55,103.05,18.48Z"/><path class="cls-4" d="M82.53,22.14c8.71.16,17.73.32,22.33-1.92l-.59-1.34c-4.46,2.17-13.09,2.79-21.73,2.63-4.4-.08-8.94-.16-12.83.07-10.58.63-24,4.53-26.09,5.14h2.29c4.63-1.29,15.2-4,23.83-4.51C73.61,22,78.14,22.06,82.53,22.14Z"/><path class="cls-4" d="M102.05,25.28l0-.62c-.18,0-18.37-2-30.79-1.72-10.12.21-16,2.52-18.39,3.73l-.11,0h1.47C57,25.55,62.17,24,70.84,23.83,83.23,23.58,101.86,25.27,102.05,25.28Z"/><path class="cls-4" d="M61.5,26.72h2.57c3.44-.81,8.37-1.59,11.68-1.27,2.41.24,5,.8,7.35,1.27h3c-2.69-.59-6.53-1.7-10.07-2.16C71.6,24,64.66,25.85,61.5,26.72Z"/><rect class="cls-5" x="55.24" y="48.52" width="105.6" height="23.14" transform="translate(47.95 168.13) rotate(-90)"/><rect class="cls-5" x="-39.82" y="47.14" width="105.6" height="25.17" transform="translate(-46.75 72.71) rotate(-90)"/></svg>