<svg version="1.1" xmlns="http://www.w3.org/2000/svg" xmlns:xlink="http://www.w3.org/1999/xlink" x="0px" y="0px" viewBox="0 0 50 50" enable-background="new 0 0 50 50" xml:space="preserve" width="50" height="50" preserveAspectRatio="none"><g id="Avatar_Silhouettes" /><g id="_x32_nd_Grade_Heads"><path fill="#6D6E71" d="M19,35.7c1.1,2.1,1,5.2,0.6,8.2c0.5,0.2,1.1,0.3,1.7,0.4c0.5,0.1,0.9,0.2,1.4,0.2c0.7,0.1,1.5,0.1,2.3,0.1
		c0.2,0,0.3,0,0.5,0c0,0,0,0,0.1,0c0.1,0,0.3,0,0.4,0c0.9,0,1.7-0.1,2.6-0.3c2.3-0.4,4.5-1.2,6.4-2.4c0.1-0.1,0.3-0.2,0.4-0.2
		c0.1,0,0.1-0.1,0.2-0.1c1.5-1,2.9-2.1,4.1-3.5c0.2-0.2,0.3-0.3,0.5-0.5c0.3-0.3,0.6-0.7,0.8-1.1c0-0.1,0.1-0.1,0.1-0.2
		c-0.6-2.9-1.5-6-2.5-9.3C38.5,27,20.4,34.5,19,35.7z" /><path fill="#B1B3B5" d="M33.8,31.9c1.3-1.7,2-3.8,2-6c0-1.2-0.2-2.5-0.7-3.6c-2.1-5.3-8.3-7.9-13.6-6.1c-4.8,1.6-7.7,6.4-8,11.3
		c-0.2,4.8,0,8.1,4.1,10.1c1.2,0.6,5,0.7,8.8-0.6c0.4,2.8,0.5,4.6,0.2,7.4c0.6-0.1,1.3-0.1,1.9-0.2c0.6-0.1,1.2-0.3,1.8-0.4
		c-0.3-1.2-1.3-5.5-1.8-7.6C30.5,35.3,32.4,33.9,33.8,31.9z" /><g><path fill="#B1B3B5" d="M2.3,22.1c0.1-0.7,6-1.9,10.1,1.3c4,3.2,5.3,9.3,5.3,9.3s-2.9-0.8-7.8-3.2C6.6,28,2.2,22.8,2.3,22.1" /><path fill="#D1D3D4" d="M10.9,24.6c-3.2-1.8-7.6-2.1-7.6-2c-0.1,0.7,4.1,5.2,7.2,6.7c2.8,1.3,4.9,2.1,6.1,2.5
			C16,30,14.7,26.8,10.9,24.6" /></g><path fill="#414042" d="M24.9,33.8c0,0-0.1,0.1-0.2,0.2s-0.3,0.2-0.5,0.4c-1.3,0.9-2.8,0.6-4.1-0.1c0,0,0.2,0.3,0.6,0.6
		c1,0.7,2.4,0.8,3.4,0c0.1-0.1,0.2-0.2,0.3-0.3c0.2-0.2,0.3-0.4,0.4-0.6C24.9,34,24.9,33.8,24.9,33.8" /><path fill="#414042" d="M24.5,33.7c-0.1,0.2,0.1,0.4,0.3,0.5c0.2,0.1,0.4-0.1,0.5-0.3s-0.1-0.4-0.3-0.5
		C24.8,33.4,24.5,33.5,24.5,33.7" /><path fill="#414042" d="M15.9,33.4c0,0.1,0,0.2-0.2,0.3c-0.1,0-0.2,0-0.3-0.2c0-0.1,0-0.2,0.2-0.3C15.8,33.2,15.9,33.3,15.9,33.4" /><path fill="#414042" d="M17.7,33.9c0,0.1,0,0.2-0.2,0.3c-0.1,0-0.2,0-0.3-0.2c0-0.1,0-0.2,0.2-0.3C17.5,33.7,17.7,33.8,17.7,33.9" /><path fill="#414042" d="M16.6,34.8c0,0.1,0,0.2-0.2,0.3c-0.1,0-0.2,0-0.3-0.2c0-0.1,0-0.2,0.2-0.3C16.4,34.6,16.6,34.7,16.6,34.8" /><path fill="#414042" d="M27.4,34.3c0-0.1-0.1-0.2-0.2-0.3c-0.1,0-0.2,0.1-0.3,0.2c0,0.1,0.1,0.2,0.2,0.3
		C27.3,34.5,27.4,34.5,27.4,34.3" /><path fill="#414042" d="M29.1,33.7c0-0.1-0.1-0.2-0.2-0.3c-0.1,0-0.2,0.1-0.3,0.2c0,0.1,0.1,0.2,0.2,0.3
		C29,33.9,29.1,33.9,29.1,33.7" /><path fill="#414042" d="M28,32.9c0-0.1-0.1-0.2-0.2-0.3c-0.1,0-0.2,0.1-0.3,0.2c0,0.1,0.1,0.2,0.2,0.3C27.8,33.1,28,33,28,32.9" /><path fill="#3C0F26" d="M27.9,22.2c0-0.2-1.2-1.2-2.5-1.2s-1.7,0.8-1.6,0.9c0.1,0.1,0.7-0.2,1.6-0.3C26.8,21.6,27.9,22.4,27.9,22.2
		" /><path fill="#808285" d="M17.5,17.9c7-5.5,14.6-3.6,17.9-1.5c2.9,1.9,3,7.6,3.1,8.1c0.2,3.2-3,5.5-3.7,5.7c0,0-0.1,0-0.1,0
		c-0.2-0.3-0.3-0.2-0.6-0.6c-1.9-2.3-2.2-6.6-1.4-9.6c0,0-1.9-2.4-11.4-0.2c-1.1,0.2-4.3,0.5-5.3,0.8C15.7,21.1,15.7,19.4,17.5,17.9
		z" /><path fill="#414042" d="M27,14.5c0,0-0.1,0-0.4,0c-0.3,0-0.6,0-1.1,0.2c-0.2,0-0.5,0.1-0.7,0.2c-2.2,0.9-3.9,2.9-4.3,5
		c0,0,0.2-0.5,0.7-1.2c0.9-1.4,2.1-2.8,3.8-3.6c0.2-0.1,0.4-0.2,0.6-0.3c0.4-0.1,0.8-0.2,1-0.3C26.9,14.5,27,14.5,27,14.5" /><g><path fill="#B1B3B5" d="M49.5,21.4c-0.1-0.8-5.2-2-10.5,1.3c-4.5,2.8-5.8,9.1-5.8,9.1s3.1-0.7,8.2-2.9
			C45,27.5,49.7,22.2,49.5,21.4" /><path fill="#D1D3D4" d="M40.4,24.3c3.1-1.7,6.5-2.4,8.3-2.6c0.1,0.1-2.9,4.3-7.1,6.5c-3.1,1.6-5.3,2.2-6.5,2.6
			C35.3,29.2,36.7,26.4,40.4,24.3" /></g><path fill="#414042" d="M19.9,20c-0.4-0.3-0.7-0.8-0.9-1.3c-0.1-0.3-0.1-0.6,0-0.8c0.1-0.3,0.2-0.5,0.4-0.7
		c-0.1,0.3-0.2,0.5-0.2,0.8c0,0.2,0,0.5,0.1,0.7c0.1,0.2,0.2,0.5,0.3,0.7C19.6,19.5,19.7,19.7,19.9,20z" /><path fill="#414042" d="M25.2,18.9c0.5-0.8,1.2-1.5,2-2c0.8-0.5,1.7-0.8,2.7-1c0.9-0.1,1.9-0.2,2.8,0c0.5,0.1,0.9,0.2,1.4,0.3
		c0.4,0.2,0.9,0.3,1.3,0.5c-0.9-0.1-1.8-0.3-2.7-0.4c-0.9,0-1.8,0-2.7,0.1c-0.9,0.2-1.7,0.4-2.6,0.8C26.6,17.7,25.9,18.2,25.2,18.9z
		" /><path fill="#414042" d="M37.5,22.7c-0.5,0-0.9-0.1-1.4-0.2c-0.5-0.1-0.9-0.3-1.3-0.5c-0.4-0.2-0.9-0.4-1.3-0.7
		c-0.4-0.3-0.8-0.6-1.1-1l0.2-0.1c0.1,1,0.4,2.1,0.8,3.1c0.4,1,1,1.9,1.8,2.6c-0.9-0.7-1.5-1.5-2-2.5c-0.5-1-0.7-2-0.9-3.1l-0.1-0.5
		l0.3,0.4c0.6,0.7,1.4,1.3,2.2,1.6c0.4,0.2,0.8,0.4,1.3,0.6C36.6,22.4,37,22.6,37.5,22.7z" /><g><g><path fill="#414042" d="M31.6,24.7c0,0-0.1,0.2-0.3,0.5c-0.7,0.8-1.6,1.2-2.6,1.3c0,0.2,0,0.4,0,0.6c0,0,0.8-0.3,0.9-0.3
				c0.7-0.3,1.3-0.8,1.7-1.5C31.5,24.9,31.6,24.7,31.6,24.7" /><path fill="#414042" d="M31,22.8c0,0,0,0.2-0.2,0.6c-0.1,0.3-0.4,0.8-0.7,1.1c-0.2,0.2-0.3,0.3-0.5,0.5c-0.2,0.1-0.3,0.3-0.5,0.4
				c-0.1,0.1-0.3,0.2-0.4,0.2c-0.1,0.1-0.1,0.1-0.1,0.1l0.3,0.5c0,0,0.1,0,0.1-0.1c0.1-0.1,0.2-0.2,0.4-0.3c0.1-0.1,0.3-0.3,0.5-0.5
				c0.2-0.2,0.3-0.4,0.5-0.6c0.3-0.4,0.5-0.9,0.6-1.3C31,23,31,22.8,31,22.8" /><path fill="#414042" d="M29.8,21.6c0,0,0,0.2,0,0.6c-0.1,0.9-0.6,1.7-1.2,2.3c-0.1,0.1-0.2,0.2-0.3,0.3C28.2,25,28.2,25,28.2,25
				l0.4,0.4c0,0,0-0.1,0.1-0.1c0.1-0.1,0.2-0.2,0.3-0.4c0.5-0.8,0.9-1.7,0.9-2.6C29.9,21.9,29.8,21.6,29.8,21.6" /><path fill="#E6E7E8" d="M22.3,29.6c0,0,1.6,2.7,4.6,2.1c2.7-0.5,3.1-5.3,3.1-5.3s-3.1-3.2-4.8-2.8C21.6,24.5,22.3,29.6,22.3,29.6
				" /><path fill="#808285" d="M24.3,27.9c-0.2,1.5,0.7,2.9,2,3c1.3,0.1,2.4-1,2.6-2.5c0.2-1.5-0.7-2.9-2-3
				C25.6,25.2,24.5,26.4,24.3,27.9" /><path fill="#414042" d="M25.2,28c-0.1,0.9,0.4,1.7,1.2,1.8c0.8,0.1,1.5-0.6,1.6-1.5c0.1-0.9-0.4-1.7-1.2-1.8
				C26,26.4,25.3,27.1,25.2,28" /><path fill="#6D6E71" d="M30.1,26.4c0,0-0.1-0.2-0.3-0.5c-0.2-0.3-0.5-0.7-1-1.1c-0.2-0.2-0.5-0.4-0.8-0.6c-0.3-0.2-0.6-0.4-1-0.6
				c-0.4-0.2-0.8-0.3-1.2-0.3c-0.9,0-1.8,0.4-2.4,1c-0.3,0.3-0.5,0.7-0.7,1c-0.3,0.7-0.5,1.5-0.5,2.1c0,0.6,0,1.1,0,1.5
				c0,0.4,0.1,0.6,0.1,0.6s0-4.7,3.7-5.1C27.7,24.3,30.1,26.4,30.1,26.4" /><path fill="#414042" d="M11.5,24.9c0,0,0.1,0.2,0.2,0.5c0.3,0.5,0.7,0.9,1.2,1.3c0.4,0.3,0.9,0.6,1.4,0.6l0.1-0.5
				c0,0-0.2,0-0.5-0.1c-0.8-0.2-1.5-0.7-2-1.3C11.6,25.1,11.5,24.9,11.5,24.9" /><path fill="#414042" d="M12.2,23.1c0,0,0,0.2,0.1,0.6c0.1,0.4,0.3,0.8,0.5,1.3c0.3,0.5,0.7,1,1.2,1.4c0.1,0.1,0.1,0.1,0.1,0.1
				l0.3-0.5c0,0,0,0-0.1-0.1c-0.9-0.5-1.6-1.3-2-2.3C12.3,23.3,12.2,23.1,12.2,23.1" /><path fill="#414042" d="M13.6,22.2c0,0-0.1,0.2-0.1,0.6c0,1.1,0.4,2.1,1,3c0.1,0.1,0.1,0.1,0.1,0.2l0.4-0.4c0,0,0,0-0.1-0.1
				c-0.7-0.7-1.3-1.7-1.4-2.7C13.5,22.5,13.6,22.2,13.6,22.2" /><path fill="#E6E7E8" d="M14,26.7c0.9-1.3,3-2.4,4.1-2.1c3.4,0.9,2.5,5.7,2.5,5.7s-2.3,2.2-4.5,1.6c-1-0.3-1.8-1-2.1-1.9
				C13.7,29.1,13.6,27.8,14,26.7" /><path fill="#808285" d="M19.3,28.4c0.1,1.5-0.8,2.7-2,2.8c-1.2,0.1-2.3-1-2.4-2.5c-0.1-1.5,0.8-2.7,2-2.8
				C18.2,25.8,19.2,27,19.3,28.4" /><path fill="#414042" d="M18.5,28.5c0.1,0.9-0.5,1.6-1.2,1.7c-0.7,0-1.4-0.6-1.4-1.5C15.8,27.8,16.3,27,17,27
				C17.8,26.9,18.4,27.6,18.5,28.5" /><path fill="#6D6E71" d="M14,26.7c0,0,0.1-0.2,0.4-0.3c5.8-3.7,6.3,4,6.3,4s0.1-0.2,0.1-0.5c0.1-0.3,0.1-0.8,0.1-1.3
				c0-0.6-0.1-1.2-0.3-1.9c-0.1-0.3-0.3-0.7-0.5-1c-0.2-0.3-0.5-0.6-0.9-0.8c-1-0.7-2.2-0.6-3.2-0.1c-0.3,0.2-0.5,0.3-0.7,0.5
				c-0.4,0.4-0.7,0.7-0.9,1C14.1,26.5,14,26.7,14,26.7" /><path fill="#E6E7E8" d="M26.8,29.3c0,0.4,0.2,0.7,0.5,0.7c0.3,0,0.6-0.2,0.6-0.6c0-0.4-0.2-0.7-0.5-0.7
				C27.2,28.6,26.9,28.9,26.8,29.3" /><path fill="#E6E7E8" d="M15.5,26.9c-0.2,0.5-0.2,1.2,0.3,1.4c0.5,0.1,1.1-0.4,1.3-0.9c0.2-0.5,0.3-1.2-0.2-1.3
				C16.5,25.9,15.7,26.3,15.5,26.9" /><path fill="#E6E7E8" d="M17.4,29.8c0,0.4,0.2,0.7,0.5,0.7c0.3,0,0.6-0.2,0.6-0.6c0-0.4-0.2-0.7-0.5-0.7
				C17.7,29.1,17.4,29.4,17.4,29.8" /><path fill="#E6E7E8" d="M24.9,26.5c-0.2,0.5-0.2,1.2,0.3,1.4c0.5,0.1,1.1-0.4,1.3-0.9c0.2-0.5,0.3-1.2-0.2-1.3
				C25.8,25.5,25.1,26,24.9,26.5" /></g><path fill="#414042" d="M27.9,22.2c0-0.2-1.2-1.3-2.5-1.2c-1.3,0.1-1.7,0.8-1.6,0.9c0.1,0.1,0.7-0.2,1.6-0.3
			C26.8,21.6,27.9,22.4,27.9,22.2" /><path fill="#414042" d="M15.5,23.7c0-0.2,1.3-1.2,2.5-1.1c1.3,0.2,1.6,0.9,1.5,1c-0.1,0.1-0.6-0.3-1.6-0.3
			C16.6,23.2,15.5,23.9,15.5,23.7" /></g><path fill="#414042" d="M39.3,38.3c0.1-0.1,0.2-0.2,0.2-0.3c-0.4-1.7-1-3.5-1.7-5.3C37.8,32.8,38.6,35.2,39.3,38.3z" /></g><g id="_x33_rd_Grade_Heads" /><g id="_x34_th_Grade_Heads" /><g id="_x35_th_Grade_Heads" /><g id="Extra_Heads" /><g id="Templates" /><g id="Labels" /></svg>