<svg version="1.1" xmlns="http://www.w3.org/2000/svg" xmlns:xlink="http://www.w3.org/1999/xlink" x="0px" y="0px" viewBox="0 0 50 50" enable-background="new 0 0 50 50" xml:space="preserve" width="50" height="50" preserveAspectRatio="none"><g id="Avatar_Silhouettes" /><g id="_x32_nd_Grade_Heads" /><g id="_x33_rd_Grade_Heads" /><g id="_x34_th_Grade_Heads" /><g id="_x35_th_Grade_Heads" /><g id="Extra_Heads" /><g id="Templates" /><g id="Labels"><g><g><defs><path id="SVGID_00000106125566648956084590000014282774453022942903_" d="M25.5,44.6c-0.2,0-0.3,0-0.5,0c-0.8,0-1.5-0.1-2.3-0.1
					c-0.5-0.1-1-0.1-1.4-0.2C12.3,42.5,5.4,34.6,5.4,25C5.4,14.2,14.2,5.4,25,5.4S44.6,14.2,44.6,25c0,2.7-0.5,5.2-1.5,7.5
					c-0.5,1.2-1.1,2.3-1.8,3.4c-0.1,0.2-0.2,0.3-0.3,0.5c-0.3,0.4-0.5,0.7-0.8,1.1c-0.1,0.2-0.3,0.4-0.5,0.5
					c-1.2,1.3-2.6,2.5-4.1,3.5c-0.1,0-0.1,0.1-0.2,0.1c-0.1,0.1-0.3,0.2-0.4,0.2c-1.9,1.2-4.1,2-6.4,2.4c-0.8,0.2-1.7,0.2-2.6,0.3
					C25.9,44.6,25.7,44.6,25.5,44.6C25.6,44.6,25.5,44.6,25.5,44.6z" /></defs><clipPath id="SVGID_00000022547651987698707130000013158372976444254875_"><use xlink:href="#SVGID_00000106125566648956084590000014282774453022942903_" overflow="visible" /></clipPath><g clip-path="url(#SVGID_00000022547651987698707130000013158372976444254875_)"><g opacity="0.75"><g><path fill="#D1D3D4" d="M33,0.6c-0.8-0.1-1.5-0.3-2.2-0.6c-0.7,1.5-2,2.7-3.7,3.2c-2.3,0.7-4.7-0.2-6.2-2
							c-0.3,2-1.7,3.7-3.8,4.3c-1.7,0.5-3.4,0.1-4.7-0.8C11.9,6.8,10.2,8.6,8,9.2C7.4,9.4,6.7,9.5,6.1,9.5c-3.3,5.3-4.4,12-2.5,18.5
							c3.5,12.1,16,19.1,27.8,15.6c11.9-3.4,18.7-16,15.2-28.1C44.5,8.4,39.3,3,33,0.6" /></g></g><polygon fill="#58595B" points="24.1,11.1 23.8,8.1 23.4,11.1 				" /><polygon fill="#58595B" points="22.9,10.7 22.2,9.1 22.5,10.8 				" /><polygon fill="#58595B" points="24.6,10.6 25.2,9 24.3,10.4 				" /><path fill="#A02C36" d="M30.4,21.9C30.4,21.9,30.4,21.9,30.4,21.9c0-0.1-0.1-0.1-0.1-0.2c0-0.1,0-0.1,0-0.2
					c0-0.1,0.1-0.2,0.1-0.2c0.1-0.1,0.2-0.2,0.2-0.2c0.1-0.1,0.2-0.1,0.3-0.2c0.1,0,0.1,0,0.2-0.1c0,0,0.1,0,0.2,0
					c0.1,0,0.3,0,0.4,0c0.5,0,0.9,0.2,1.2,0.4c0.1,0.1,0.2,0.2,0.3,0.3c0.1,0.1,0.1,0.1,0.1,0.1s-0.1,0-0.2,0c-0.1,0-0.2,0-0.4,0
					c-0.3,0-0.7,0-1.1,0c-0.1,0-0.2,0-0.2,0c-0.1,0-0.1,0-0.2,0c0,0-0.1,0-0.1,0c-0.1,0-0.2,0-0.2,0c-0.1,0-0.1,0-0.2,0
					c-0.1,0-0.2,0.1-0.3,0.1C30.5,21.8,30.4,21.9,30.4,21.9" /><path fill="#808285" d="M49.7,38.9c-1.2-2.8-2.6-5.9-4.4-9.3C36.4,13.6,23.6,9.7,23.6,9.7l-8.8,4l4.3,17.1
					c0,0-7.7,7.9-11.3,16.8C16.4,49.1,30.8,48.9,49.7,38.9" /><path fill="#F1F2F2" d="M13,10.1c0.1,0.5-0.1,0.9-0.6,1.1c-0.5,0.1-0.9-0.1-1.1-0.6c-0.1-0.5,0.1-0.9,0.6-1.1
					C12.4,9.4,12.9,9.6,13,10.1" /><path fill="#D0EBF9" d="M11.3,14.8c0.1,0.3-0.1,0.7-0.5,0.8c-0.3,0.1-0.7-0.1-0.8-0.5c-0.1-0.3,0.1-0.7,0.5-0.8
					C10.8,14.2,11.2,14.4,11.3,14.8" /><path fill="#F1F2F2" d="M15.7,9.7c0.1,0.3-0.1,0.6-0.4,0.7c-0.3,0.1-0.6-0.1-0.7-0.4c-0.1-0.3,0.1-0.6,0.4-0.7
					C15.3,9.3,15.6,9.4,15.7,9.7" /><path fill="#F1F2F2" d="M7.2,25c0.1,0.5-0.2,1-0.7,1.2c-0.5,0.1-1-0.2-1.2-0.7c-0.1-0.5,0.2-1,0.7-1.2C6.5,24.2,7,24.5,7.2,25" /><path fill="#F1F2F2" d="M7.7,28.7c0.1,0.3-0.1,0.5-0.3,0.6c-0.3,0.1-0.5-0.1-0.6-0.3c-0.1-0.3,0.1-0.5,0.3-0.6
					C7.4,28.2,7.7,28.4,7.7,28.7" /><path fill="#58595B" d="M15.8,13.4c-0.8-0.6-1.6-1.1-2.5-1.4c0.9,0.5,1.7,1.1,2.4,1.8C15.7,13.6,15.7,13.5,15.8,13.4" /><path fill="#58595B" d="M15.1,13.7c-0.3-0.1-0.7-0.1-1.1-0.2c0.4,0.1,0.8,0.3,1.2,0.5C15.1,14,15.1,13.8,15.1,13.7" /><path fill="#A02C36" d="M17.2,13c-0.4-0.4-0.8-0.8-1.3-1.1c0.4,0.4,0.8,0.8,1.1,1.3C17.2,13.1,17.2,13,17.2,13" /><path fill="#E6E7E8" d="M27.4,30.9c0,0-0.1,0.5,1.6,2.5c2,2.4,5.2,3.1,5.2,3.1l-1.3-5.6l-2.2,0L27.4,30.9z" /><path fill="#E6E7E8" d="M13.9,33.6c0,0,0.1,0.4,1.8,2.4c2,2.4,4.2,2.8,4.2,2.8l-1.8-8.2c0,0-1,0.3-2.5,1.1
					C14,32.6,13.9,33.6,13.9,33.6z" /><path fill="#808285" d="M13.7,34.9c0.7,0.2,1.4,0.3,2.1,0.3c0.3,0,0.7,0,1-0.1c0.2,0,0.6,0,0.8-0.1l0.3-1.7l0.3-1.8l0.2-0.9
					l0.4,0.9c0.1,0.2,0.2,0.4,0.3,0.5c0.1,0.2,0.3,0.3,0.4,0.5c1.1,1.2,2.9,1.6,4.4,1.6c1.2,0,2.6-0.1,3.8-0.5l-1.7-2.4l-0.4-0.6
					l0.8,0l4,0.1l3.1,0.1c-0.8-0.8-1.6-1.6-2.4-2.3c-0.1-0.1-0.2-0.1-0.2-0.2c0,0,0.9-1,0.9-1c0.3-0.4,0.5-0.8,0.7-1.2
					c0.4-1,0.5-2,0.1-3c-0.1-0.3-0.3-0.6-0.4-0.9c-0.2-0.3-0.4-0.5-0.6-0.8c0,0,0.1,0.1,0.1,0.1c0,0-0.1-0.1-0.1-0.1
					c-1.4-0.4-4.5-1.1-9.5-1.1c-7.2,0-12.7,4.6-12.7,4.6l-0.7,4.6l2.3-1.2c-0.3,0.3-0.6,1.2,0.2,3.8c0.1,0.5,0.3,1,0.6,1.5
					c0.2,0.3,0.5,0.6,0.9,0.9C12.8,34.6,13.2,34.8,13.7,34.9" /><path fill="#58595B" d="M15.1,23.7c0.1,0.2-0.1,0.4-0.3,0.4c-0.2,0.1-0.4-0.1-0.4-0.3c-0.1-0.2,0.1-0.4,0.3-0.4
					C14.8,23.4,15,23.5,15.1,23.7" /><path fill="#58595B" d="M13.6,24.5c0,0.1,0,0.3-0.2,0.3c-0.1,0-0.3,0-0.3-0.2c0-0.1,0-0.3,0.2-0.3
					C13.4,24.2,13.5,24.3,13.6,24.5" /><path fill="#58595B" d="M14.7,25.3c0,0.1,0,0.2-0.1,0.2c-0.1,0-0.2,0-0.2-0.1c0-0.1,0-0.2,0.1-0.2
					C14.6,25.2,14.7,25.2,14.7,25.3" /><path fill="#808285" d="M12.4,34.3c0,0,0.9,0.7,2.4,0.9c1.5,0.2,2.9-0.2,2.9-0.2l0.7-3.5c0,0,0.8,2.2,3.8,2.8
					c3.1,0.6,5.9-0.5,5.9-0.5l-2-2.8l7.9,0.2L31,28.4c0,0,1.3-1.1,1.7-3.1c0.5-2-1.4-3.9-1.4-3.9" /><path fill="#58595B" d="M34.4,31c-1-0.9-2-1.8-3-2.7c1.3-1.4,2.1-3.5,1.1-5.4c-0.3-0.6-0.7-1.1-1.2-1.6c0.2,0.2,0.4,0.5,0.6,0.8
					c0.2,0.3,0.3,0.6,0.4,0.9c0.4,1,0.4,2-0.1,3c-0.2,0.4-0.4,0.8-0.7,1.2c-0.1,0.1-0.9,1.1-0.9,1c0.1,0.1,0.1,0.1,0.2,0.2
					c0.8,0.8,1.6,1.6,2.4,2.3l-3.1-0.1l-4-0.1l-0.8,0l0.4,0.6l1.7,2.4c-1.2,0.4-2.5,0.5-3.8,0.5c-1.6,0-3.3-0.5-4.4-1.6
					c-0.1-0.2-0.3-0.3-0.4-0.5c-0.1-0.2-0.2-0.4-0.3-0.5l-0.4-0.9l-0.2,0.9l-0.3,1.8L17.6,35c-0.2,0.1-0.7,0.1-0.8,0.1
					c-0.3,0.1-0.7,0.1-1,0.1c-0.7,0-1.4-0.1-2.1-0.3c-0.4-0.1-0.9-0.3-1.2-0.6c0.4,0.3,0.8,0.5,1.2,0.7c1.3,0.5,2.8,0.6,4.2,0.3
					l0.1,0l0-0.1l0.4-1.8l0.2-1c0.1,0.2,0.3,0.4,0.4,0.6c0.3,0.4,0.7,0.7,1.1,0.9c2.3,1.5,5.7,1.3,8.3,0.4l0.5-0.2l-0.3-0.4L27,31.5
					l3.2,0.1l4,0.1l0.9,0L34.4,31z" /><path fill="#58595B" d="M29.7,22.8c0.1,0.2-0.1,0.4-0.3,0.4S29.1,23.2,29,23c-0.1-0.2,0.1-0.4,0.3-0.4
					C29.4,22.5,29.7,22.6,29.7,22.8" /><path fill="#58595B" d="M28.2,23.6c0,0.1,0,0.3-0.2,0.3c-0.1,0-0.3,0-0.3-0.2c0-0.1,0-0.3,0.2-0.3C28,23.3,28.2,23.4,28.2,23.6" /><path fill="#58595B" d="M29.4,24.4c0,0.1,0,0.2-0.1,0.2s-0.2,0-0.2-0.1c0-0.1,0-0.2,0.1-0.2S29.4,24.3,29.4,24.4" /><path fill="#58595B" d="M21.1,35.9c0,0,0.1,0,0.3,0.1c0.5,0.2,1.1,0.3,1.6,0.3c0.6,0.1,1.3,0.1,1.9,0.1c0.6,0,1.3,0,1.9-0.1
					c0.2,0,0.3-0.1,0.3-0.1s-0.1,0.1-0.2,0.2c-0.6,0.5-1.5,0.7-2.3,0.7c-0.9,0-1.9-0.2-2.6-0.6c-0.3-0.2-0.5-0.3-0.6-0.5
					C21.2,36,21.1,35.9,21.1,35.9" /><path fill="#58595B" d="M23,17.5c0.6,2-0.1,4-1.6,4.5c-1.5,0.5-3.2-0.8-3.9-2.8c-0.6-2,0.1-4,1.6-4.5
					C20.6,14.2,22.4,15.5,23,17.5" /><path fill="#58595B" d="M26.8,18.3c-0.4,1.8-1.8,3-3.1,2.7c-1.3-0.3-2.6-2.4-2.2-4.2c0.4-1.8,2.2-2.6,3.5-2.3
					C26.4,14.8,27.1,16.5,26.8,18.3" /><path fill="#EDE8D8" d="M22.5,17.7c0.5,1.6-0.1,3.1-1.2,3.5c-1.2,0.4-2.5-0.6-3-2.2c-0.5-1.6,0.1-3.1,1.2-3.5
					C20.6,15.2,22,16.2,22.5,17.7" /><path fill="#E6E7E8" d="M25.7,18.5c-0.3,1.5-1.5,2.5-2.6,2.3c-1.1-0.2-1.8-1.6-1.5-3.1c0.3-1.5,1.5-2.5,2.6-2.3
					C25.4,15.6,26,17,25.7,18.5" /><path fill="#414042" d="M21.7,18.1c0.2,0.8-0.1,1.6-0.7,1.7c-0.6,0.2-1.3-0.3-1.5-1.1c-0.2-0.8,0.1-1.6,0.7-1.7
					C20.8,16.8,21.5,17.3,21.7,18.1" /><path fill="#414042" d="M24.4,18.1c0.2,0.7-0.1,1.3-0.6,1.4c-0.5,0.1-1-0.3-1.2-0.9c-0.2-0.7,0.1-1.3,0.6-1.4
					C23.6,17.1,24.2,17.5,24.4,18.1" /><path fill="#58595B" d="M20.3,10.3c-0.9,1.2-2.2,2.2-3.7,3c-0.2-0.3-0.2-0.3-0.4-0.5c1.4-0.7,2.4-1.9,3.3-3
					C19.8,9.9,20.1,10.1,20.3,10.3" /><path fill="#58595B" d="M21.7,11.9c1.3-0.2,2.7,0.2,4.2,0.6c0,0.3,0,0.2,0,0.5c-1.4-0.4-2.8-0.5-4.1-0.3
					C21.8,12.4,21.8,12.1,21.7,11.9" /><path fill="#414042" d="M22.8,24.1c2.1-0.6,3.6-2,3.9-3.6c-1.4-0.2-3-0.3-4.9-0.2c-1.8,0-3.6,0.3-5.1,0.8c0,0.2,0,0.5,0.1,0.7
					C17.4,23.8,20.1,24.9,22.8,24.1" /><path fill="#6D6E71" d="M17.9,22c-0.3,0.1-0.6,0.3-0.7,0.6c0.4,0.6,0.9,1,1.6,1.3c0.4-0.2,0.6-0.7,0.5-1.2
					C19.1,22.1,18.5,21.8,17.9,22" /><path fill="#6D6E71" d="M23.5,21.9c-0.8,0.2-1.3,1.1-1.1,2c0,0.1,0.1,0.2,0.1,0.3c0.1,0,0.2-0.1,0.3-0.1c1-0.3,1.8-0.8,2.5-1.3
					C25,22.1,24.2,21.7,23.5,21.9" /><path fill="#D0EBF9" d="M10.3,20.7c0.1,0.3,0.3,0.4,0.6,0.3c0.3-0.1,0.4-0.3,0.3-0.6c-0.1-0.3-0.3-0.4-0.6-0.3
					C10.4,20.1,10.2,20.4,10.3,20.7" /><path fill="#F1F2F2" d="M27.6,6.9c0.1,0.5-0.2,1-0.7,1.2c-0.5,0.1-1-0.2-1.2-0.7c-0.1-0.5,0.2-1,0.7-1.2
					C27,6.1,27.5,6.4,27.6,6.9" /><path fill="#F1F2F2" d="M41.3,17.9c0.1,0.3-0.1,0.5-0.3,0.6c-0.3,0.1-0.5-0.1-0.6-0.3c-0.1-0.3,0.1-0.5,0.3-0.6
					C40.9,17.5,41.2,17.6,41.3,17.9" /><path fill="#F1F2F2" d="M42.1,12.4c0.2,0.6-0.2,1.2-0.8,1.4C40.8,14,40.1,13.6,40,13c-0.2-0.6,0.2-1.2,0.8-1.4
					C41.3,11.5,42,11.8,42.1,12.4" /><g><path fill="#929E2F" d="M36.8,40.2L36.8,40.2C36.8,40.2,36.8,40.2,36.8,40.2z" /></g><path fill="#58595B" d="M12.2,39.2L8,43.5c0,0,10.7,6.4,21.9,3.2c16.6-4.9,22.7-14.5,22.7-14.5l-6.2-0.7c0,0-1.3,5.4-14.9,9.3
					C20.9,44,12.2,39.2,12.2,39.2z" /><path fill="#808285" d="M29.5,44.2c0.1,0.7-0.4,1.3-1.1,1.3c-0.6,0-1.2-0.5-1.3-1.1c0-0.7,0.4-1.3,1.1-1.3
					C28.9,43,29.5,43.6,29.5,44.2z" /><path fill="#808285" d="M21.3,44.6c0,0.7-0.4,1.3-1.1,1.3c-0.6,0-1.2-0.5-1.2-1.1c0-0.7,0.4-1.3,1.1-1.3
					C20.7,43.5,21.2,44,21.3,44.6z" /><path fill="#B5AEA8" d="M13.8,42.8c0,0.7-0.4,1.3-1.1,1.3c-0.6,0-1.2-0.5-1.2-1.1c0-0.7,0.4-1.3,1.1-1.3
					C13.2,41.6,13.7,42.1,13.8,42.8z" /><path fill="#808285" d="M37.5,41.7c0,0.7-0.4,1.3-1.1,1.3c-0.6,0-1.2-0.5-1.3-1.1c0-0.7,0.4-1.3,1.1-1.3
					C36.9,40.5,37.4,41,37.5,41.7z" /><path fill="#B5AEA8" d="M43.3,38.6c0,0.7-0.4,1.3-1.1,1.3c-0.6,0-1.2-0.5-1.3-1.1c0-0.7,0.4-1.3,1.1-1.3
					C42.7,37.4,43.3,37.9,43.3,38.6z" /><path fill="#B5AEA8" d="M48.7,34.4c0,0.7-0.4,1.3-1.1,1.3c-0.6,0-1.2-0.5-1.3-1.1c0-0.7,0.4-1.3,1.1-1.3
					C48.1,33.2,48.6,33.7,48.7,34.4z" /><path fill="#B5AEA8" d="M7.1,44.3L8,43.5c0,0,14,8,27.9,0.8c5.6-2.9,10.8-6.1,13.1-8.4c2.9-2.9,3-3.7,3-3.7l1.9,0.1
					c0,0-7.8,10.1-20.9,14.5C18.6,51.7,7.1,44.3,7.1,44.3z" /></g></g><path fill="#58595B" d="M9.9,14.1c0,0-0.3-1.6-1.1-2.1c-0.6-0.4-1.1-0.4-1.4-0.2c-0.2,0.2,0.6,1.1,0.6,1.1s-1-0.3-1.1,0.2
			c-0.1,0.5,0.8,0.6,0.8,0.6S6.6,14,6.8,14.5c0.2,0.5,1,0.2,1,0.2S7,15.2,7.2,15.6c0.2,0.5,1.4,0.3,1.5,0.2
			C8.7,15.8,9.9,14.2,9.9,14.1" /><path fill="#939598" d="M8.3,18.7c0,0-0.8-4.6,1.3-5.2c2.1-0.6,3.2,4.7,3.2,4.7L12,18.4c0,0,0.2,2.2-1.2,2.5
			C9.3,21.2,8.3,18.7,8.3,18.7" /><path fill="#58595B" d="M9.6,13.5C9.6,13.5,9.6,13.5,9.6,13.5l1.9,7c0.6-0.7,0.5-2.1,0.5-2.1l0.8-0.2
			C12.8,18.2,11.8,12.9,9.6,13.5" /><path fill="#414042" d="M10.6,18.3c0,0,0.1,0,0.4,0c0.2,0,0.5,0,0.7,0c0.1,0,0.2,0,0.4-0.1c0.1,0,0.3,0,0.4,0c0.2,0,0.4,0,0.4,0
			s-0.1,0.1-0.3,0.2c-0.1,0.1-0.2,0.1-0.3,0.2c-0.1,0.1-0.3,0.1-0.4,0.1c-0.2,0-0.3,0-0.5,0c-0.1,0-0.3-0.1-0.4-0.1
			C10.7,18.4,10.6,18.3,10.6,18.3" /><path fill="#EDE8D8" d="M10.2,16.5c0.2,0.6,0,1.2-0.3,1.3c-0.4,0.1-0.8-0.3-1-1c-0.2-0.6,0-1.2,0.3-1.3
			C9.6,15.4,10,15.8,10.2,16.5" /><path fill="#26221D" d="M10.3,16.8c0.1,0.3,0,0.6-0.2,0.7c-0.2,0.1-0.5-0.2-0.6-0.5c-0.1-0.3,0-0.6,0.2-0.7
			C10,16.2,10.2,16.5,10.3,16.8" /><polygon fill="#939598" points="10.3,20.5 9.4,22.5 10.6,22.5 		" /><polygon fill="#939598" points="10.8,20.8 11.5,22.1 12.4,21.2 		" /><path fill="#58595B" d="M8.4,18.2c0,0-0.3-0.8-1-1.6c-0.7-0.8-1.4-0.8-1.4-0.8s-0.2,1,0.4,1.8C7,18.3,8,18.3,8,18.3
			s-0.4,0.4-0.5,1.1c-0.2,0.7,0.2,2.1,0.2,2.1s0.4-0.2,0.8-1C8.8,19.6,8.4,18.2,8.4,18.2" /></g></g></svg>