<?xml version="1.0" encoding="utf-8"?>
<!-- Generator: Adobe Illustrator 22.0.1, SVG Export Plug-In . SVG Version: 6.00 Build 0)  -->
<!DOCTYPE svg PUBLIC "-//W3C//DTD SVG 1.1//EN" "http://www.w3.org/Graphics/SVG/1.1/DTD/svg11.dtd">
<svg version="1.1" xmlns="http://www.w3.org/2000/svg" xmlns:xlink="http://www.w3.org/1999/xlink" x="0px" y="0px"
	 viewBox="0 0 50 50" enable-background="new 0 0 50 50" xml:space="preserve" width="50" height="50" preserveAspectRatio="none">
<g id="Avatar_Silhouettes">
</g>
<g id="_x33_rd_Grade_Heads">
</g>
<g id="_x34_th_Grade_Heads">
</g>
<g id="_x35_th_Grade_Heads">
</g>
<g id="Extra_Heads">
</g>
<g id="Templates">
</g>
<g id="Labels">
</g>
<g id="Layer_8">
	<path fill="#0067AB" d="M12.6,19.3c0,0-1.6,1.6-0.8,2.8c0.5,0.8,1,0.4,1,0.4s-0.2,1.1,0.9,2.1s2.5-0.8,2.5-0.8s0.3-3.3,0.3-3.4
		s-1.1-2.1-1.1-2.1l-1-0.4L12.6,19.3z"/>
	<path fill="#FFC640" d="M22.8,45c0.7,0.1,1.5,0.1,2.3,0.1c0.2,0,0.3,0,0.5,0c0,0,0,0,0.1,0c0.1,0,0.3,0,0.4,0
		c0.9,0,1.7-0.1,2.6-0.3c2.3-0.4,4.5-1.2,6.4-2.4c0.1-0.1,0.3-0.2,0.4-0.2c0.1,0,0.1-0.1,0.2-0.1c1.5-1,2.9-2.1,4.1-3.5
		c0.2-0.2,0.3-0.3,0.5-0.5c0.3-0.3,0.6-0.7,0.8-1.1c0.1-0.2,0.2-0.3,0.3-0.5c0.7-1.1,1.3-2.2,1.8-3.4c0.7-1.6,1.1-2.4,1.3-4.2
		c-0.7-1.1-1.6-3.6-2.5-4.6c-6.5-7.3-17.8-10.1-24.8-7.4c-7,2.7-1.7,9.7-1.7,9.7s-5.4-1.1-9.2,4.6c2.1,6.9,7.9,12.1,15,13.5
		C21.8,44.9,22.3,45,22.8,45z"/>
	<path fill="#FFEC81" d="M30.3,29.4c-2.7-0.7-3-1.3-4.1-2.3c-0.2-0.2-3-0.6-3-0.6l-2.1-0.3c0,0-0.1,4.5-3.2,6
		c-3.1,1.4-5.4-0.8-5.4-0.8s-0.8,3.2-1.4,7.8c2.7,2.8,6.3,4.8,10.4,5.6c0.5,0.1,0.9,0.2,1.4,0.2c0.7,0.1,1.5,0.1,2.3,0.1
		c0.2,0,0.3,0,0.5,0c0,0,0,0,0.1,0c0.1,0,0.3,0,0.4,0c0.9,0,1.7-0.1,2.6-0.3c2.3-0.4,4.5-1.2,6.4-2.4c0.1-0.1,0.3-0.2,0.4-0.2
		c0.1,0,0.1-0.1,0.2-0.1c0.8-0.5,1.6-1.1,2.3-1.7c-1.7-7.2-2.7-12.7-2.7-12.7S33.1,30.1,30.3,29.4z"/>
	<ellipse transform="matrix(0.3164 -0.9486 0.9486 0.3164 1.7646 30.6709)" fill="#72B1C5" cx="22.2" cy="14.1" rx="0.8" ry="2.5"/>
	<path fill="none" d="M15.5,26.7c0,0-5.2-7,1.7-9.7c7-2.7,18.3,0.1,24.8,7.4c0.9,1,1.8,3.4,2.5,4.6c0.1-0.8,0.2-1.6,0.2-2.4
		C44.6,15.7,35.9,6,25,6S5.4,14.7,5.4,25.6c0,2,0.3,3.9,0.9,5.7C10.1,25.6,15.5,26.7,15.5,26.7z"/>
	<path fill="none" d="M17.9,32.2c3.1-1.4,3.2-6,3.2-6l2.1,0.3c0,0,2.8,0.4,3,0.6c1.1,1,1.4,1.7,4.1,2.3c2.7,0.7,4.8-1.8,4.8-1.8
		s1,5.6,2.7,12.7c0.6-0.5,1.2-1.1,1.8-1.7c0.2-0.2,0.3-0.3,0.5-0.5c0.3-0.3,0.6-0.7,0.8-1.1c0.1-0.2,0.2-0.3,0.3-0.5
		c0.7-1.1,1.3-2.2,1.8-3.4c0.7-1.6,1.1-2.4,1.3-4.2c0.1-0.8,0.2-1.6,0.2-2.4C44.6,15.7,35.9,6,25,6S5.4,14.7,5.4,25.6
		c0,2,0.3,3.9,0.9,5.7c0.9,3,2.5,5.7,4.7,7.9c0.7-4.7,1.4-7.8,1.4-7.8S14.8,33.6,17.9,32.2z"/>
	<path fill="none" d="M25,6C14.2,6,5.4,14.7,5.4,25.6c0,2,0.3,3.9,0.9,5.7c0.9,3,2.5,5.7,4.7,7.9c0.7-4.7,1.4-7.8,1.4-7.8
		s2.4,2.2,5.4,0.8c3.1-1.4,3.2-6,3.2-6l2.1,0.3c0,0,2.8,0.4,3,0.6c1.1,1,1.4,1.7,4.1,2.3c2.7,0.7,4.8-1.8,4.8-1.8s1,5.6,2.7,12.7
		c0.6-0.5,1.2-1.1,1.8-1.7c0.2-0.2,0.3-0.3,0.5-0.5c0.3-0.3,0.6-0.7,0.8-1.1c0.1-0.2,0.2-0.3,0.3-0.5c0.7-1.1,1.3-2.2,1.8-3.4
		c0.7-1.6,1.1-2.4,1.3-4.2c0.1-0.8,0.2-1.6,0.2-2.4C44.6,15.7,35.9,6,25,6z"/>
	<path fill="#FFD943" d="M41.8,10.4L26.6,3.1L8.5,10.6L1.9,24.4l5.6,17.8l17.9,4.9l18.3-8.3L48.1,24L41.8,10.4z M24.7,43.6
		c-9.9,0-17.9-8-17.9-17.9s8-17.9,17.9-17.9s17.9,8,17.9,17.9C42.5,35.5,34.5,43.6,24.7,43.6z"/>
	<path fill="#FFC640" d="M17.1,3.4c0.8,1.8,0.7,3.6-0.2,4c-0.9,0.4-2.3-0.7-3.1-2.5c-0.8-1.8-0.7-3.6,0.2-4
		C14.9,0.5,16.3,1.6,17.1,3.4z"/>
	<g>
		<path fill="#FFC640" d="M22.2,16.6c0,0-0.2-6.2-2.8-10.7c-2.6-4.5-4.6-4.9-4.6-4.9l1.6,6.6c0,0,0.8-0.3,1.6,0.4
			c3.3,2.6,3,8.8,3,8.8L22.2,16.6z"/>
		<path fill="#F4833C" d="M16.8,3.8c0.5,1.3,0.1,2.9-0.3,3.1c-0.5,0.2-1.3-0.6-1.9-1.8C14,3.9,13.8,2.2,14.3,2
			C14.8,1.8,16.1,2.1,16.8,3.8z"/>
	</g>
	<g>
		<path fill="#FFC640" d="M7.1,9c1.3,1.3,1.8,2.8,1.2,3.4c-0.6,0.6-2.2,0.1-3.5-1.1C3.5,10,3,8.5,3.6,7.9C4.3,7.2,5.8,7.7,7.1,9z"/>
		<path fill="#FFC640" d="M15.8,18.4c0,0-2.2-5.2-5.9-8.2c-3.7-3-5.5-2.7-5.5-2.7l3.5,5c0,0,0.6-0.5,1.5-0.2
			c3.6,1.2,5.4,6.5,5.4,6.5L15.8,18.4z"/>
		<path fill="#F4833C" d="M6.9,9.4c0.8,0.9,1.1,2.4,0.7,2.7c-0.3,0.3-1.3-0.1-2.2-0.9C4.6,10.4,3.9,9,4.3,8.7
			C4.6,8.3,5.8,8.1,6.9,9.4z"/>
	</g>
	<path fill="#72B1C5" d="M19.2,16.2c0,0-0.4,3-0.9,2.6c-0.5-0.3-0.9-1.3-0.9-1.3s-1.6,3.6-2.5,3.3c-0.9-0.3-0.5-1.9-0.5-1.9
		s-1.8,1.9-2.4,1c-0.4-0.6-0.2-1.8,0.7-2.5c0.8-0.6,1.7-0.7,1.7-0.7s-1-0.5,0-1.4s5.2-0.9,5.2-0.9L19.2,16.2z"/>
	<g>
		<path fill="#0067AB" d="M14.3,19.2c-0.1-0.4,0.1-0.9,0.3-1.3c0.1-0.2,0.2-0.4,0.4-0.5c0.2-0.2,0.4-0.3,0.6-0.3
			c-0.3,0.3-0.5,0.6-0.7,1c-0.1,0.2-0.2,0.4-0.3,0.6L14.3,19.2z"/>
	</g>
	<g>
		<path fill="#0067AB" d="M16.9,14.6c0.3,0.5,0.6,0.9,1,1.3c0.4,0.4,0.8,0.7,1.3,1c-0.3,0-0.6-0.1-0.8-0.2c-0.3-0.1-0.5-0.3-0.7-0.5
			C17.2,15.7,16.9,15.2,16.9,14.6z"/>
	</g>
	<path fill="#72B1C5" d="M38.5,21.4c0,0,0.9,1.6,2.3,2c0.6,0.2,0.7-0.9-0.1-2.6c-0.8-1.6-2.5-3-2.5-3s1.4-1.9-1.3-3
		c-2.3-0.9-3.7-0.7-3.7-0.7s-2.3-4-6.4-3.2c-1.4,0.3-1,1.3-1,1.3s-6.2-2.2-9.2,0.2c-1.6,1.3,2.7,5.7,5.3,5.6c0.8,0-0.2-1.9-0.2-1.9
		s1,1.2,4.1,1.3c2.3,0.1,2.3-0.8,2.3-0.8s1.8,2.9,4.1,3c1.4,0.1,1.4-0.7,1.4-0.7S36.7,24,38.5,21.4z"/>
	<g>
		<path fill="#0067AB" d="M35.3,16.1c0.8,0.3,1.6,0.7,2.1,1.5c0.1,0.2,0.2,0.4,0.2,0.6c0,0.2,0.1,0.5-0.1,0.7
			c-0.3,0.2-0.5,0.1-0.7,0.1c-0.2-0.1-0.4-0.1-0.6-0.2l0.2-0.2c0.4,0.5,0.6,1.3,0.4,1.9c0-0.6-0.2-1.2-0.6-1.7l-0.4-0.5l0.5,0.2
			c0.3,0.2,0.8,0.3,1,0.2c0.1-0.1,0.1-0.3,0.1-0.5c0-0.2-0.1-0.4-0.2-0.6c-0.2-0.4-0.5-0.7-0.8-0.9C36,16.6,35.7,16.3,35.3,16.1z"/>
	</g>
	<g>
		<g>
			<path fill="#400025" d="M16.4,15.9c0,0-0.1,0.4-0.1,0.9c0,0.3,0,0.6,0,0.9c0.1,1,0.6,1.9,1.2,2.7c0.2,0.2,0.3,0.4,0.4,0.5
				c0.1,0.1,0.1,0.1,0.1,0.1c0,0,0,0,0,0l-0.3,0.3c0,0,0,0,0-0.1c0,0-0.1-0.1-0.1-0.1c-0.1-0.1-0.2-0.3-0.4-0.5
				c-0.6-0.9-1-1.9-1-2.9c0-0.3,0-0.7,0.1-0.9C16.2,16.2,16.4,15.9,16.4,15.9z"/>
			<path fill="#400025" d="M18.1,14.8c0,0-0.2,0.3-0.3,0.9c-0.1,0.3-0.1,0.6-0.2,0.9c-0.1,1,0.2,2,0.7,2.9c0.1,0.2,0.2,0.4,0.3,0.6
				c0,0.1,0.1,0.1,0.1,0.1c0,0,0,0,0,0l-0.3,0.2c0,0,0,0,0-0.1c0,0-0.1-0.1-0.1-0.2c-0.1-0.1-0.2-0.4-0.3-0.6c-0.4-1-0.7-2-0.5-3.1
				c0.1-0.3,0.1-0.7,0.2-0.9C17.9,15.1,18.1,14.8,18.1,14.8z"/>
			<path fill="#400025" d="M19.5,15.3c0,0-0.2,0.3-0.3,0.9c-0.1,0.3-0.1,0.6-0.2,0.9c-0.1,1,0.2,2,0.7,2.9c0.1,0.2,0.2,0.4,0.3,0.6
				c0,0.1,0.1,0.1,0.1,0.1c0,0,0,0,0,0L19.8,21c0,0,0,0,0-0.1c0,0-0.1-0.1-0.1-0.2c-0.1-0.1-0.2-0.4-0.3-0.6
				c-0.1-0.3-0.2-0.6-0.3-0.9c-0.2-0.7-0.3-1.4-0.2-2.2c0.1-0.3,0.1-0.7,0.2-0.9C19.3,15.7,19.5,15.3,19.5,15.3z"/>
			<path fill="#400025" d="M23.1,14.4c0,0-0.1,0.4-0.1,0.9c0,0.3,0,0.6,0,0.9c0.1,1,0.6,1.9,1.2,2.7c0.2,0.2,0.3,0.4,0.4,0.5
				c0.1,0.1,0.1,0.1,0.1,0.1c0,0,0,0,0,0l-0.3,0.3c0,0,0,0,0-0.1c0,0-0.1-0.1-0.1-0.1c-0.1-0.1-0.2-0.3-0.4-0.5
				c-0.6-0.9-1-1.9-1-2.9c0-0.3,0-0.7,0.1-0.9C23,14.7,23.1,14.4,23.1,14.4z"/>
			<path fill="#400025" d="M24.8,13.3c0,0-0.2,0.3-0.3,0.9c-0.1,0.3-0.1,0.6-0.2,0.9c-0.1,1,0.2,2,0.7,2.9c0.1,0.2,0.2,0.4,0.3,0.6
				c0,0.1,0.1,0.1,0.1,0.1c0,0,0,0,0,0l-0.3,0.2c0,0,0,0,0-0.1c0,0-0.1-0.1-0.1-0.2c-0.1-0.1-0.2-0.4-0.3-0.6c-0.4-1-0.7-2-0.5-3.1
				c0.1-0.3,0.1-0.7,0.2-0.9C24.7,13.6,24.8,13.3,24.8,13.3z"/>
			<path fill="#400025" d="M26.3,13.8c0,0-0.2,0.3-0.3,0.9c-0.4,1.3-0.1,2.6,0.5,3.8c0.1,0.2,0.2,0.4,0.3,0.6c0,0.1,0.1,0.1,0.1,0.1
				c0,0,0,0,0,0l-0.3,0.2c0,0,0,0,0-0.1c0,0-0.1-0.1-0.1-0.2c-0.1-0.1-0.2-0.4-0.3-0.6c-0.4-1-0.7-2-0.5-3.1
				c0.1-0.3,0.1-0.7,0.2-0.9C26.1,14.1,26.3,13.8,26.3,13.8z"/>
		</g>
		<path fill="#FFFFFF" d="M21.7,21.8c0.4,1.6-0.3,3.1-1.5,3.4c-1.3,0.3-2.6-0.6-3-2.2c-0.4-1.6,0.3-3.1,1.5-3.4
			C19.9,19.3,21.3,20.3,21.7,21.8z"/>
		<path fill="#400025" d="M21.1,23c0.2,0.7-0.1,1.4-0.6,1.5s-1.1-0.3-1.3-1c-0.2-0.7,0.1-1.4,0.6-1.5C20.3,21.8,20.9,22.3,21.1,23z"
			/>
		<path fill="#FFFFFF" d="M28.1,20.1c0.4,1.6-0.3,3.1-1.5,3.4c-1.3,0.3-2.6-0.6-3-2.2c-0.4-1.6,0.3-3.1,1.5-3.4
			C26.3,17.6,27.6,18.6,28.1,20.1z"/>
		<path fill="#400025" d="M27.1,21.3c0.2,0.7-0.1,1.4-0.6,1.5c-0.5,0.1-1.1-0.3-1.3-1c-0.2-0.7,0.1-1.4,0.6-1.5
			C26.3,20.2,26.9,20.6,27.1,21.3z"/>
	</g>
	<path fill="#400025" d="M25,24.7c-0.4-0.6-1.3-1.4-1.8-1.3c-0.6,0.1-0.9,1.1-1,1.5l-0.4-0.1c0-0.1,0.4-1.6,1.3-1.8
		c0.9-0.2,2,1.3,2.2,1.5L25,24.7z"/>
	<g>
		<path fill="#8DD4F5" d="M22.7,25.2c0.3,1-0.7,2.1-2.1,2.5c-1.4,0.4-2.8-0.1-3-1.1c-0.3-1,0.7-2.1,2.1-2.5
			C21.1,23.8,22.4,24.2,22.7,25.2z"/>
		<path fill="#400025" d="M20.7,27.9c-1.5,0.4-3-0.1-3.3-1.2c-0.3-1.1,0.7-2.3,2.2-2.7c1.5-0.4,3,0.1,3.3,1.2
			C23.2,26.3,22.2,27.5,20.7,27.9z M19.7,24.3c-1.3,0.4-2.2,1.3-1.9,2.2c0.2,0.9,1.5,1.3,2.8,0.9s2.2-1.3,1.9-2.2
			C22.3,24.4,21,24,19.7,24.3z"/>
	</g>
	<g>
		<path fill="#8DD4F5" d="M29.9,23.3c0.3,1-0.7,2.1-2.2,2.5c-1.5,0.4-2.9-0.1-3.1-1.1c-0.3-1,0.7-2.1,2.2-2.5
			C28.2,21.8,29.6,22.3,29.9,23.3z"/>
		<path fill="#400025" d="M27.8,26c-1.6,0.4-3.1-0.1-3.4-1.2c-0.3-1.1,0.7-2.3,2.3-2.7c1.6-0.4,3.1,0.1,3.4,1.2
			C30.3,24.3,29.3,25.5,27.8,26z M26.8,22.4c-1.3,0.4-2.3,1.4-2,2.2c0.2,0.9,1.5,1.3,2.9,0.9c1.3-0.4,2.3-1.4,2-2.2
			C29.4,22.5,28.1,22,26.8,22.4z"/>
	</g>
	<path fill="#400025" d="M30.8,23.1c0.1,0.3-0.1,0.5-0.4,0.6c-0.3,0.1-0.5-0.1-0.6-0.4c-0.1-0.3,0.1-0.5,0.4-0.6
		C30.5,22.6,30.8,22.8,30.8,23.1z"/>
	<path fill="#400025" d="M17.6,26.6c0.1,0.3-0.1,0.5-0.4,0.6c-0.3,0.1-0.5-0.1-0.6-0.4c-0.1-0.3,0.1-0.5,0.4-0.6
		C17.3,26.2,17.5,26.4,17.6,26.6z"/>
	<g>
		<path fill="#72B1C5" d="M27,27.9c0,0-1.2-1.7-2.8-2.5C22.7,24.6,22,25,22,25s-1.3,1.1-1.3,2.4c0,1.2,0.8,3.1,1.3,3.3
			c0.6,0.1,1.7-0.4,1.7-0.4s0.3,1.2,0.6,1.4c0.3,0.2,1.2-0.3,2-1.4C27.2,29.1,27,27.9,27,27.9z"/>
		<path fill="#0067AB" d="M25.1,26.6c0,0,0,0.1,0.1,0.2c0,0.2,0.1,0.4,0.1,0.7c0,1-0.4,2.2-1.3,2.8c-0.4,0.3-1,0.5-1.6,0.4
			c-0.1,0-0.1,0-0.2,0c0,0-0.1,0-0.1,0s0.1,0,0.2,0c0.9-0.2,1.6-0.7,2-1.5c0.4-0.7,0.6-1.6,0.7-2.3C25.1,26.7,25.1,26.6,25.1,26.6z"
			/>
		<path fill="#0067AB" d="M25.3,26.6c0,0.1-0.1,0.2-0.2,0.2c-0.1,0-0.2-0.1-0.2-0.2c0-0.1,0.1-0.2,0.2-0.2
			C25.2,26.4,25.3,26.5,25.3,26.6z"/>
	</g>
	<g>
		<path fill="#0067AB" d="M27.3,14.5c0.4,0.1,0.8,0.5,1,0.9c0.1,0.2,0.2,0.4,0.2,0.7c0,0.2-0.1,0.5-0.2,0.6c0-0.2,0-0.4,0-0.6
			c0-0.2-0.1-0.4-0.2-0.6c-0.1-0.2-0.2-0.3-0.3-0.5C27.6,14.8,27.4,14.7,27.3,14.5z"/>
	</g>
	<g>
		<path fill="#0067AB" d="M33.8,19c-0.1-0.7-0.2-1.3-0.6-1.7c-0.4-0.4-1-0.7-1.7-0.9l0.5,0c0.2,0,0.3,0.1,0.5,0.1
			c0.3,0.1,0.6,0.3,0.9,0.5c0.2,0.3,0.4,0.6,0.5,0.9C33.9,18.4,33.8,18.7,33.8,19z"/>
	</g>
	<g>
		<path fill="#0067AB" d="M23.8,13.8c-0.9-0.3-1.7-0.5-2.6-0.7c-0.4-0.1-0.9-0.1-1.2,0.1c-0.1,0.1,0,0.3,0.1,0.4
			c0.1,0.2,0.3,0.3,0.5,0.4l0.5,0.3l-0.5-0.1c-0.4,0-0.8-0.1-1.1-0.1c-0.4,0-0.8,0-1.2,0c0.4-0.1,0.8-0.2,1.2-0.2c0.4,0,0.8,0,1.2,0
			l-0.1,0.2c-0.2-0.1-0.4-0.3-0.6-0.4c-0.1-0.1-0.2-0.2-0.2-0.3c-0.1-0.1-0.1-0.3,0-0.5c0.2-0.2,0.5-0.3,0.7-0.3
			c0.2,0,0.5,0,0.7,0.1C22.2,13,23,13.4,23.8,13.8z"/>
	</g>
	<g>
		<path fill="#0067AB" d="M25.8,12.1c0.1,0.2,0.3,0.4,0.4,0.5c0.2,0.2,0.3,0.3,0.5,0.4c0.4,0.2,0.8,0.3,1.3,0.4
			c-0.2,0.1-0.5,0.1-0.7,0.1c-0.3,0-0.5-0.1-0.7-0.2C26.2,13,25.9,12.6,25.8,12.1z"/>
	</g>
</g>
</svg>
