<?xml version="1.0" encoding="utf-8"?>
<!-- Generator: Adobe Illustrator 21.1.0, SVG Export Plug-In . SVG Version: 6.00 Build 0)  -->
<svg version="1.1" xmlns="http://www.w3.org/2000/svg" xmlns:xlink="http://www.w3.org/1999/xlink" x="0px" y="0px"
	 viewBox="0 0 50 50" enable-background="new 0 0 50 50" xml:space="preserve" width="50" height="50" preserveAspectRatio="none">
<g id="Avatar_Silhouettes">
</g>
<g id="_x33_rd_Grade_Heads">
</g>
<g id="_x34_th_Grade_Heads">
</g>
<g id="_x35_th_Grade_Heads">
	<g>
		<path fill="#FFC640" d="M17.3,19.4c-7.2,2.6-2.1,9.8-2.1,9.8s-4.6-1.1-8.4,3.1c2.5,6.1,7.9,10.7,14.5,11.9
			c0.5,0.1,0.9,0.2,1.4,0.2c0.7,0.1,1.5,0.1,2.3,0.1c0.2,0,0.3,0,0.5,0c0,0,0,0,0.1,0c0.1,0,0.3,0,0.4,0c0.9,0,1.7-0.1,2.6-0.3
			c2.3-0.4,4.5-1.2,6.4-2.4c0.1-0.1,0.3-0.2,0.4-0.2c0.1,0,0.1-0.1,0.2-0.1c1.5-1,2.9-2.1,4.1-3.5c0.2-0.2,0.3-0.3,0.5-0.5
			c0.3-0.3,0.6-0.7,0.8-1.1c0.1-0.2,0.2-0.3,0.3-0.5c0.7-1.1,1.3-2.2,1.8-3.4c0.4-0.8,0.6-1.7,0.9-2.6c-0.5-0.8-1-1.6-1.6-2.3
			C36,20,24.5,16.8,17.3,19.4z"/>
		<path fill="#FFEC81" d="M22.7,44.5c0.7,0.1,1.5,0.1,2.3,0.1c0.2,0,0.3,0,0.5,0c0,0,0,0,0.1,0c0.1,0,0.3,0,0.4,0
			c0.9,0,1.7-0.1,2.6-0.3c2.3-0.4,4.5-1.2,6.4-2.4c0.1-0.1,0.3-0.2,0.4-0.2c0.1,0,0.1-0.1,0.2-0.1c0.4-0.3,0.8-0.5,1.1-0.8
			C35.6,35,35,31,35,31s-2.2,2.5-5,1.7c-3.2-0.9-3-1.7-4.8-3.1c-1.4-1.1-2.1-1.1-2.1-1.1l-2.4,0.6c0,0-0.2,4.6-3.5,6
			c-3.2,1.3-5.5-1-5.5-1s-0.4,1.6-1,4.2c2.8,3,6.4,5,10.6,5.8C21.8,44.3,22.3,44.4,22.7,44.5z"/>
		<g>
			
				<ellipse transform="matrix(0.8022 -0.597 0.597 0.8022 -3.6336 24.4424)" fill="#72B1C5" cx="35.1" cy="17.7" rx="4.7" ry="8.1"/>
			<path fill="#0067AB" d="M34.1,19c-0.2-0.9-0.3-1.8-0.4-2.7c0-0.7,0-1.5,0.3-2.2c0.1-0.1,0.1-0.3,0.2-0.4c0.1-0.1,0.2-0.2,0.3-0.3
				c-0.1,0.1-0.2,0.2-0.3,0.3c-0.1,0.1-0.2,0.2-0.3,0.4c-0.4,0.7-0.5,1.7-0.5,2.5c0,0.9,0.1,1.7,0.3,2.6c0,0.1,0.1,0.3,0.1,0.4
				c0.1,0.5,0.3,0.9,0.4,1.3c0.2-1.2,0.7-2.3,1.5-3.2c0.8-0.9,1.9-1.5,3-1.8C36.7,16,34.9,17.2,34.1,19z"/>
			<path fill="#0067AB" d="M34.2,20.5c0,0,0.1,0,0.2,0c0.2,0,0.4,0,0.6,0c1.3,0,2.5-0.3,3.7-0.9c0.5-0.2,0.8-0.4,0.8-0.4
				s-0.3,0.2-0.7,0.5c-1.2,0.7-2.4,1.1-3.7,1.2c-0.3,0-0.5,0-0.7,0c-0.2,0-0.3,0-0.3,0L34.2,20.5z"/>
			<path fill="#0091A1" d="M30.6,21.5l2.6-3.1c0,0,0.8-0.1,1.8,0.8c1,0.9,0.8,1.6,0.8,1.6l-2.7,2.3L30.6,21.5z"/>
		</g>
		<g>
			<ellipse transform="matrix(0.721 -0.6929 0.6929 0.721 -6.6368 7.5655)" fill="#FFC640" cx="6.1" cy="12" rx="1.7" ry="3.3"/>
			<path fill="#FFC640" d="M15.8,20.8c0,0-2.1-5.3-5.7-8.5C6.5,9.1,4.6,9.4,4.6,9.4L8,14.6c0,0,0.6-0.5,1.5-0.2
				c3.7,1.3,5.3,6.8,5.3,6.8L15.8,20.8z"/>
			<path fill="#F4833C" d="M7.1,11.3c0.8,0.9,1,2.4,0.6,2.8c-0.4,0.3-1.3-0.1-2.2-1c-0.9-0.9-1.5-2.3-1.2-2.6
				C4.8,10.2,6,10,7.1,11.3z"/>
		</g>
		<path fill="#72B1C5" d="M23.7,13.9c-3.6,0.5-4,2.9-4,2.9s-9.2-2.9-9.3,4.6c0,2.5,3.8,5.5,3.8,5.5s-0.4-1.2-0.6-2.5
			c0-0.1,0-0.2-0.1-0.3c0.2-0.1,0.7-1.3,2.9-3.1c1.7-1.4,3.7-2.2,3.7-2.2s2.4-0.4,4.6,0.2c1.3,0.3,4.6,2.2,6.5,3.1
			c1.7,0.8,4-0.3,4-0.3S31,12.9,23.7,13.9z"/>
		<path fill="#0067AB" d="M35.2,21.8c-0.5-0.8-1-1.6-1.6-2.3c-0.6-0.7-1.2-1.4-1.8-2c-1.3-1.3-2.8-2.3-4.5-2.9
			c-0.9-0.3-1.8-0.4-2.7-0.5c-0.9,0-1.8,0.1-2.6,0.5c-0.8,0.3-1.5,1-2,1.7c-0.5,0.8-0.7,1.7-0.8,2.6c0-0.9,0.2-1.9,0.6-2.7
			c0.4-0.8,1.2-1.5,2-1.9c0.9-0.4,1.8-0.5,2.8-0.6c0.9,0,1.9,0.1,2.8,0.4c1.8,0.6,3.4,1.7,4.6,3.1C33.4,18.6,34.4,20.1,35.2,21.8z"
			/>
		<path fill="#0067AB" d="M11.2,22.2c0-0.4,0-0.9,0.1-1.3c0.1-0.4,0.2-0.9,0.4-1.3c0.2-0.4,0.5-0.8,0.8-1.1c0.3-0.3,0.7-0.5,1.2-0.7
			c0.8-0.3,1.8-0.5,2.7-0.4c0.5,0,0.9,0.1,1.3,0.2c0.4,0.1,0.9,0.2,1.3,0.4l0.5,0.3l-0.6,0c-0.6,0-1.1,0.1-1.7,0.2
			c-0.6,0.1-1.1,0.3-1.6,0.5c-0.5,0.3-0.9,0.7-1.3,1.1c-0.3,0.5-0.6,1-0.9,1.5c0.2-0.6,0.4-1.1,0.8-1.6c0.3-0.5,0.7-0.9,1.3-1.2
			c0.5-0.3,1.1-0.5,1.7-0.6c0.6-0.1,1.2-0.2,1.7-0.2l-0.1,0.3c-0.8-0.4-1.7-0.5-2.5-0.6c-0.9,0-1.7,0.1-2.6,0.4
			c-0.4,0.1-0.8,0.3-1.1,0.6c-0.3,0.3-0.6,0.6-0.8,1C11.4,20.4,11.2,21.3,11.2,22.2z"/>
		<path fill="#0067AB" d="M31.4,18.8c-0.7-0.8-1.6-1.5-2.5-2c-0.9-0.5-1.9-0.9-3-0.9c-1-0.1-2.1,0.1-3,0.6c-0.9,0.5-1.8,1.1-2.3,2
			l-0.2-0.2c0.9-0.3,2.1-0.6,3-0.6c0.8,0,1.8,0.1,2.8,0.4c0.9,0.3,1.8,0.7,2.5,1.3c0.8,0.5,1.5,1.1,2.2,1.8
			c-0.7-0.6-1.5-1.2-2.3-1.7c-0.8-0.5-1.6-0.9-2.5-1.2c-0.9-0.2-1.8-0.4-2.7-0.3c-0.9,0.1-2.1,0.3-2.9,0.6l-0.3,0.1l0.1-0.3
			c0.2-0.5,0.5-0.7,0.9-1.1c0.4-0.4,1.1-0.8,1.5-1.1c1-0.5,2.1-0.7,3.2-0.6c1.1,0.1,2.1,0.5,3.1,1.1c0.5,0.3,0.9,0.6,1.3,1
			C30.7,18,31.1,18.4,31.4,18.8z"/>
		<g>
			<g>
				<path fill="#400025" d="M16.5,18.2c0,0-0.1,0.4-0.2,0.9c0,0.3-0.1,0.6,0,0.9c0,1,0.5,2,1.1,2.8c0.2,0.2,0.3,0.4,0.4,0.5
					c0.1,0.1,0.1,0.1,0.1,0.1c0,0,0,0,0,0l-0.3,0.3c0,0,0,0,0-0.1c0,0-0.1-0.1-0.1-0.2c-0.1-0.1-0.2-0.3-0.4-0.6
					c-0.6-0.9-1-1.9-0.9-3c0-0.4,0.1-0.7,0.1-1C16.3,18.6,16.5,18.2,16.5,18.2z"/>
				<path fill="#400025" d="M18.2,17.2c0,0-0.2,0.3-0.3,0.9c-0.1,0.3-0.2,0.6-0.2,0.9c-0.1,1,0.1,2,0.6,3c0.1,0.2,0.2,0.4,0.3,0.6
					c0,0.1,0.1,0.1,0.1,0.2c0,0,0,0,0,0l-0.3,0.2c0,0,0,0,0-0.1c0,0-0.1-0.1-0.1-0.2c-0.1-0.2-0.2-0.4-0.3-0.6
					c-0.4-1-0.6-2.1-0.4-3.1c0.1-0.3,0.2-0.7,0.3-0.9C18,17.5,18.2,17.2,18.2,17.2z"/>
				<path fill="#400025" d="M19.7,17.8c0,0-0.2,0.3-0.3,0.9c-0.1,0.3-0.2,0.6-0.2,0.9c-0.1,1,0.1,2,0.6,3c0.1,0.2,0.2,0.4,0.3,0.6
					c0,0.1,0.1,0.1,0.1,0.2c0,0,0,0,0,0l-0.3,0.2c0,0,0,0,0-0.1c0,0-0.1-0.1-0.1-0.2c-0.1-0.2-0.2-0.4-0.3-0.6
					c-0.1-0.3-0.2-0.6-0.3-0.9c-0.2-0.7-0.2-1.5-0.1-2.2c0.1-0.3,0.2-0.7,0.3-0.9C19.5,18.1,19.7,17.8,19.7,17.8z"/>
				<path fill="#400025" d="M23.4,16.9c0,0-0.1,0.4-0.2,0.9c0,0.3-0.1,0.6,0,0.9c0,1,0.5,2,1.1,2.8c0.2,0.2,0.3,0.4,0.4,0.5
					c0.1,0.1,0.1,0.1,0.1,0.1c0,0,0,0,0,0l-0.3,0.3c0,0,0,0,0-0.1c0,0-0.1-0.1-0.1-0.2c-0.1-0.1-0.2-0.3-0.4-0.6
					c-0.6-0.9-1-1.9-0.9-3c0-0.4,0.1-0.7,0.1-1C23.3,17.2,23.4,16.9,23.4,16.9z"/>
				<path fill="#400025" d="M25.2,15.8c0,0-0.2,0.3-0.3,0.9c-0.1,0.3-0.2,0.6-0.2,0.9c-0.1,1,0.1,2,0.6,3c0.1,0.2,0.2,0.4,0.3,0.6
					c0,0.1,0.1,0.1,0.1,0.2c0,0,0,0,0,0l-0.3,0.2c0,0,0,0,0-0.1c0,0-0.1-0.1-0.1-0.2c-0.1-0.1-0.2-0.4-0.3-0.6
					c-0.4-1-0.6-2.1-0.4-3.1c0.1-0.3,0.2-0.7,0.3-0.9C25,16.1,25.2,15.8,25.2,15.8z"/>
				<path fill="#400025" d="M26.6,16.4c0,0-0.2,0.3-0.3,0.9c-0.4,1.3-0.2,2.6,0.4,3.9c0.1,0.2,0.2,0.4,0.3,0.6
					c0,0.1,0.1,0.1,0.1,0.2c0,0,0,0,0,0l-0.3,0.2c0,0,0,0,0-0.1c0,0-0.1-0.1-0.1-0.2c-0.1-0.1-0.2-0.4-0.3-0.6
					c-0.4-1-0.6-2.1-0.4-3.1c0.1-0.3,0.2-0.7,0.3-0.9C26.4,16.7,26.6,16.4,26.6,16.4z"/>
			</g>
			<ellipse transform="matrix(0.9724 -0.2333 0.2333 0.9724 -5.2977 5.2184)" fill="#FFFFFF" cx="19.4" cy="25" rx="2.4" ry="3"/>
			<ellipse transform="matrix(0.9724 -0.2333 0.2333 0.9724 -5.4725 5.3888)" fill="#400025" cx="20" cy="25.8" rx="1" ry="1.3"/>
			<ellipse transform="matrix(0.9724 -0.2333 0.2333 0.9724 -4.754 6.6933)" fill="#FFFFFF" cx="25.9" cy="23.4" rx="2.4" ry="3"/>
			<ellipse transform="matrix(0.9724 -0.2333 0.2333 0.9724 -4.9535 6.7965)" fill="#400025" cx="26.3" cy="24.3" rx="1" ry="1.3"/>
		</g>
		<g>
			<path fill="#400025" d="M25,27.4c-0.4-0.6-1.2-1.5-1.8-1.4c-0.6,0.1-1,1.1-1.1,1.5l-0.4-0.1c0-0.1,0.4-1.6,1.4-1.8
				c0.9-0.2,2,1.4,2.2,1.5L25,27.4z"/>
			<g>
				<ellipse transform="matrix(0.9724 -0.2333 0.2333 0.9724 -6.109 5.4586)" fill="#8DD4F5" cx="20" cy="28.6" rx="2.7" ry="1.9"/>
				<path fill="#400025" d="M20.5,30.6c-1.5,0.4-3-0.2-3.3-1.4s0.8-2.3,2.3-2.7c1.5-0.4,3,0.2,3.3,1.4C23.1,29,22.1,30.2,20.5,30.6z
					 M19.6,26.9c-1.3,0.3-2.2,1.3-2,2.2c0.2,0.9,1.5,1.4,2.8,1.1s2.2-1.3,2-2.2C22.2,27.1,21,26.6,19.6,26.9z"/>
			</g>
			<g>
				
					<ellipse transform="matrix(0.9724 -0.2333 0.2333 0.9724 -5.5019 7.1054)" fill="#8DD4F5" cx="27.3" cy="26.8" rx="2.8" ry="1.9"/>
				<path fill="#400025" d="M27.8,28.8c-1.6,0.4-3.1-0.2-3.4-1.3c-0.3-1.1,0.8-2.3,2.4-2.7c1.6-0.4,3.1,0.2,3.4,1.3
					C30.5,27.2,29.4,28.4,27.8,28.8z M26.9,25.2c-1.4,0.3-2.3,1.3-2.1,2.2c0.2,0.9,1.5,1.4,2.9,1s2.3-1.3,2.1-2.2
					C29.6,25.3,28.3,24.8,26.9,25.2z"/>
			</g>
			
				<ellipse transform="matrix(0.9724 -0.2333 0.2333 0.9724 -5.2422 7.8351)" fill="#400025" cx="30.5" cy="26.1" rx="0.5" ry="0.5"/>
			
				<ellipse transform="matrix(0.9724 -0.2333 0.2333 0.9724 -6.3766 4.7583)" fill="#400025" cx="16.9" cy="29.3" rx="0.5" ry="0.5"/>
		</g>
		<g>
			<path fill="#72B1C5" d="M26.8,31.2c0,0-1.1-1.8-2.6-2.7c-1.6-0.9-2.3-0.5-2.3-0.5s-1.4,1.1-1.5,2.3c-0.1,1.3,0.6,3.2,1.1,3.4
				c0.6,0.2,1.8-0.3,1.8-0.3s0,0.9,0.2,1.1c0.3,0.2,1.5,0.2,2.4-0.9C26.9,32.5,26.8,31.2,26.8,31.2z"/>
			
				<ellipse transform="matrix(0.1019 -0.9948 0.9948 0.1019 -7.7691 53.0065)" fill="#0067AB" cx="25.5" cy="30.8" rx="0.2" ry="0.2"/>
		</g>
		<g>
			<path fill="#0067AB" d="M21.6,33.7c0.4,0,0.8-0.2,1.2-0.3c0.4-0.2,0.8-0.3,1.1-0.6c0.7-0.5,1.2-1.2,1.5-2
				c-0.1,0.9-0.6,1.8-1.3,2.3c-0.4,0.2-0.8,0.4-1.2,0.5C22.5,33.8,22,33.8,21.6,33.7z"/>
		</g>
		<g>
			
				<ellipse transform="matrix(0.9132 -0.4074 0.4074 0.9132 2.581402e-02 7.0126)" fill="#FFC640" cx="16.5" cy="3.4" rx="1.8" ry="3.6"/>
			<g>
				<path fill="#FFC640" d="M23.1,15.8c0,0,0-6-2.6-10.6c-2.6-4.5-4.6-5-4.6-5l1.5,6.6c0,0,0.8-0.3,1.6,0.4c3.3,2.7,3,9.2,3,9.2
					L23.1,15.8z"/>
				<path fill="#F4833C" d="M17.8,3.1c0.5,1.3,0.1,2.9-0.4,3.1c-0.5,0.2-1.3-0.6-1.9-1.8c-0.6-1.2-0.7-2.9-0.2-3.1
					C15.8,1.1,17.1,1.3,17.8,3.1z"/>
			</g>
		</g>
	</g>
</g>
<g id="Extra_Heads">
</g>
<g id="Templates">
</g>
<g id="Labels">
</g>
</svg>
