<svg version="1.1" xmlns="http://www.w3.org/2000/svg" xmlns:xlink="http://www.w3.org/1999/xlink" x="0px" y="0px" viewBox="0 0 50 50" enable-background="new 0 0 50 50" xml:space="preserve" width="50" height="50" preserveAspectRatio="none"><g id="Avatar_Silhouettes" /><g id="_x32_nd_Grade_Heads" /><g id="_x33_rd_Grade_Heads" /><g id="_x34_th_Grade_Heads" /><g id="_x35_th_Grade_Heads" /><g id="Extra_Heads" /><g id="Templates" /><g id="Labels"><g><path fill="#F59120" d="M34.2,28.9c0.4-5.5-2.7-14.6-2.7-14.6s-3.1-0.8-8.2,0.3c-5,1.1-7.4,2.6-7.4,2.6s0.7,9.8,6.3,17.7
			c4.5,6.3,5.5,8.7,5.8,9.4l5.3-1.9C33.5,39.2,33.9,33,34.2,28.9z" /><path fill="#FFD943" d="M41.8,10.3L26.6,3L8.5,10.5L1.9,24.3l5.6,17.8L25.4,47l18.3-8.3l4.5-14.8L41.8,10.3z M24.7,43.5
			c-9.9,0-17.9-8-17.9-17.9s8-17.9,17.9-17.9s17.9,8,17.9,17.9C42.5,35.4,34.5,43.5,24.7,43.5z" /><polygon fill="#208CBA" points="30.9,44.9 30.9,44.9 30.8,44.9 		" /><path fill="#F59120" d="M30.6,25.6c0,0,0,6.5-8.4,7.3c-7.6,0.7-11.5-1.3-11.5-1.3s0.1-5.3,4.4-6.4c4.4-1.1,9.2,2.2,9.2,2.2
			L30.6,25.6z" /><path fill="#F59120" d="M43.5,20.6c0,0-1.9-0.2-5.1,1.6c-3.2,1.8-5.6,4.4-5.6,4.4l-0.5,2.6c0,0,0.6,3,5.1,0.7
			C41.9,27.6,43.5,20.6,43.5,20.6z" /><path fill="#FFFBE7" d="M23.8,22.7c0.1,1.4,1.1,2.4,2.1,2.3c1-0.1,1.8-1.3,1.7-2.7c-0.1-1.4-1.1-2.4-2.1-2.3
			C24.4,20.2,23.7,21.4,23.8,22.7z" /><path fill="#FFFBE7" d="M20.5,23.3c0.1,1.2,0.9,2.1,1.8,2.1c0.9-0.1,1.5-1.1,1.4-2.3c-0.1-1.2-0.9-2.1-1.8-2.1
			C21,21.1,20.3,22.1,20.5,23.3z" /><path fill="#3A0F25" d="M24.6,23.1c0.1,0.6,0.5,1.1,1,1c0.5,0,0.9-0.6,0.8-1.2c-0.1-0.6-0.5-1.1-1-1C24.9,22,24.6,22.5,24.6,23.1z
			" /><path fill="#3A0F25" d="M21.5,23.6c0,0.5,0.5,0.9,0.9,0.9c0.5,0,0.8-0.5,0.8-1.1c0-0.5-0.5-0.9-0.9-0.9
			C21.8,22.6,21.4,23.1,21.5,23.6z" /><g><path fill="#D34F27" d="M24.8,28.4c-2-2.6-5.5-3.3-8.6-3.2c-3.4,0-5.5,3.2-5.3,6.3c0,0-0.2-0.2-0.2-0.2c3.7,1.2,7.6,1.7,11.5,1.3
				c3.8-0.2,8-2.6,8-6.8c0.2,7-8.5,8-13.9,7.3c-2-0.2-4-0.6-6-1.4c0,0,0-0.2,0-0.2c-0.1-3.4,2.2-6.9,5.8-6.7
				C19.4,24.8,22.9,25.7,24.8,28.4L24.8,28.4z" /></g><path fill="#3A0F25" d="M24,17.6c1.1-0.3,2.3-0.2,3.3,0.2c0-0.1,0-0.2,0-0.2c-1-0.5-2.2-0.6-3.3-0.4C24.1,17.3,24,17.4,24,17.6z" /><path fill="#3A0F25" d="M22.9,19c-1.1,0.1-2.2,0.5-3,1.3c0-0.1-0.1-0.1-0.1-0.2c0.8-0.8,1.8-1.3,2.9-1.5
			C22.8,18.7,22.9,18.8,22.9,19z" /><g><path fill="#D34F27" d="M41.8,22.5c-3.1,0.9-6.3,3-6.8,6.4c0,0-0.2-0.1-0.2-0.1c0.6-1.1,2-2.9,3.4-1.9c0.4,0.3,0.2,1-0.1,1.3
				c0.7-1-0.3-1.8-1.3-1.4c-1,0.6-1.6,1.7-2.1,2.7C34.8,25.7,38.1,23.2,41.8,22.5L41.8,22.5z" /></g><path fill="#D34F27" d="M14.6,27.4C14.6,27.5,14.5,27.5,14.6,27.4c-0.2,0.2-0.3,0.4-0.3,0.7c0-0.2,0-0.5,0.1-0.7
			c0.1-0.1,0.1-0.2,0.2-0.3c0.1-0.1,0.2-0.1,0.4-0.2l0,0c0,0,0.1,0,0.1,0c0.3-0.1,0.6,0.1,0.7,0.3c0,0.2-0.2,0.4-0.5,0.5
			C15,27.8,14.7,27.6,14.6,27.4z" /><path fill="#D34F27" d="M20,27C20,27.1,20,27.1,20,27c0.2,0.2,0.3,0.4,0.3,0.7c0-0.2,0-0.5-0.1-0.7c-0.1-0.1-0.1-0.2-0.2-0.3
			c-0.1-0.1-0.2-0.1-0.4-0.2l0,0c0,0-0.1,0-0.1,0c-0.3-0.1-0.6,0.1-0.7,0.3c0,0.2,0.2,0.4,0.5,0.5C19.6,27.4,19.9,27.2,20,27z" /><path fill="#D34F27" d="M29.8,25.6c0,0.2,0.2,0.4,0.5,0.4c0.2,0,0.4-0.2,0.4-0.5c0-0.2-0.2-0.4-0.5-0.4
			C29.9,25.1,29.8,25.3,29.8,25.6z" /><g><path fill="#D34F27" d="M25.1,34c1.5,0.1,3-0.6,3.7-2C28.4,33.6,26.5,34.5,25.1,34L25.1,34z" /></g><path fill="#FDE369" d="M6.3,16.6l12.4-0.8l13.8-1l-0.7-2.3C29.9,9.8,17.2,6.4,6.3,16.6z" /><path fill="#FDE369" d="M29.5,17.4c-0.2-2.9,0.9-4.6,0.9-4.6l2.4,0.5c0,0,1.2,1.3,1.8,6c0.6,4.7-0.8,7.9-0.8,7.9s-3-4.2-3.3-6.8
			c-0.3-2.7,0.9-4.9,0.9-4.9L29.5,17.4z" /><polygon fill="#FDE369" points="31,13 33.3,9.1 32.6,12.4 36.1,12.8 31.6,13.8 		" /><polygon fill="#FDE369" points="26,13.1 22.2,16.3 30.6,13.8 29.6,12.4 		" /><g><path fill="#F6B119" d="M18.5,10.9c3.4-1,7.2-0.5,9.9,1.9c0,0-0.4,0-0.4,0c-4.9-0.4-9.9-0.1-14.5,1.9c2.3-1,4.6-1.8,7.1-2.1
				c2.5-0.3,5-0.2,7.4,0c0,0-0.1,0.2-0.1,0.2C25.4,10.6,21.8,10.1,18.5,10.9L18.5,10.9z" /></g><polygon fill="#FDE369" points="14.8,15.9 11.3,18.8 25.9,14 21.1,13.3 		" /></g></g></svg>