<svg version="1.1" xmlns="http://www.w3.org/2000/svg" xmlns:xlink="http://www.w3.org/1999/xlink" x="0px" y="0px" viewBox="0 0 50 50" enable-background="new 0 0 50 50" xml:space="preserve" width="50" height="50" preserveAspectRatio="none"><g id="Avatar_Silhouettes" /><g id="_x32_nd_Grade_Heads" /><g id="_x33_rd_Grade_Heads"><g><path fill="#414042" d="M20.6,15.1c0,0,0.9,0.2,1,1.7c0.1,1.5-0.7,2.1-0.7,2.1s-5.6,0.9-6.5-3.3c-0.8-4.2,1.9-6.3,1.9-6.3
			s0.1,2.5,1.4,4.1C19,14.9,20.6,15.1,20.6,15.1" /><path fill="#414042" d="M20.7,19.2c0.5,0.6,1.9,2,2,6.2c0.1,2.9-2.5,8.6-2.5,8.6L36.6,37c0,0,0.7-15.3,0.8-17.6
			C33,17,24.3,17.3,20.7,19.2z" /><path fill="#F1F2F2" d="M29.2,22.2c-0.2-0.1-0.4-0.2-0.7-0.3c-0.4-0.1-0.8-0.3-1.2-0.4c-0.8-0.2-1.6-0.3-2.5-0.3
			c-0.8,0-1.6,0.2-2.5,0.4c-0.6,0.1-1.2,0.3-1.8,0.4c0,0,2,3.2,2.4,3.2c0.2,0,0.6-0.9,0.8-1.7c0.9,0,3,0.1,5.8,1.1
			c0.2,1,0.4,1.9,0.6,2c0.5,0.3,3.2-2.6,3.2-2.6C32,23.5,30.6,22.8,29.2,22.2z" /><path fill="#6D6E71" d="M23.3,32.3c0,0,0.6-3.3,6.2-4.2c5.6-0.9,10.2,3.8,10.2,3.8s-7.1,12.1-8,11.4
			C30.9,42.7,23.3,32.3,23.3,32.3z" /><path fill="#F1F2F2" d="M35.3,27.6c-0.3,0-0.7,1-1,2c-0.7-0.1-1.6-0.2-2.5-0.2c-4.1-0.1-6.1,1-6.1,1l11.2,3.2l1.4-2.6
			C38.3,31,35.7,27.6,35.3,27.6z" /><g><defs><circle id="SVGID_00000025407114625040345090000013219956109612992412_" cx="25" cy="25.1" r="19.7" /></defs><clipPath id="SVGID_00000075863769273299455270000013498811021506803882_"><use xlink:href="#SVGID_00000025407114625040345090000013219956109612992412_" overflow="visible" /></clipPath><path clip-path="url(#SVGID_00000075863769273299455270000013498811021506803882_)" fill="#A7A9AC" d="M35.5,13.6
				c2.1,0.8,5.3,3.3,7.3,10.5c1.3,4.7,2.3,17.4,2.3,17.4s-7.9,8.3-16,8.9c-8.1,0.6-13.3-8.9-13.3-8.9s-1.5-1.4-1.7-4.6
				c-0.2-3.2,0.9-5.2,0.9-5.2s3.9-1.6,9.7-1.6c6.6-0.1,11.6,1.2,11.6,1.2s-0.1-5.4-8.7-8c-4.1-1.2-9,0-9,0l1.4-11
				C25.3,10.6,34.4,13.1,35.5,13.6z" /></g><path fill="#808285" d="M19.5,33.2c0.6-0.3,1.3-0.5,2-0.7c0.7-0.2,1.4-0.3,2.1-0.3c1.4-0.1,2.9,0.1,4.2,0.7l0.7,0.3
			c-1.2,0.3-2.4,0.6-3.3,1.4c-0.3,0.2-0.5,0.6-0.6,0.9c-0.1,0.3-0.1,0.6,0,1c0.1,0.5,0.4,1,0.8,1.5c0.3,0.4,0.7,0.8,1,1.2
			c-0.6-0.5-1.2-1-1.7-1.6c-0.4-0.6-0.7-1.4-0.6-2.1c0.2-1.1,1.4-1.8,2.4-2.2c0.3-0.1-1.6-0.6-3-0.6c-0.7,0-1.4,0.1-2.1,0.2
			C20.8,32.9,20.1,33,19.5,33.2z" /><g><path fill="#808285" d="M26.3,15.8c0,1.7-1.1,3.1-2.5,3.1c-1.4,0-2.5-1.4-2.5-3.1c0-1.7,1.1-3.1,2.5-3.1
				C25.2,12.7,26.3,14.1,26.3,15.8" /><path fill="#F1F2F2" d="M26,15.4c0,1.5-1,2.7-2.2,2.7c-1.2,0-2.2-1.2-2.2-2.7c0-1.5,1-2.7,2.2-2.7C25,12.7,26,13.9,26,15.4" /><path fill="#414042" d="M24.7,15.8c0,0.7-0.4,1.3-1,1.3c-0.5,0-1-0.6-1-1.3c0-0.7,0.4-1.3,1-1.3C24.3,14.5,24.7,15.1,24.7,15.8" /><path fill="#808285" d="M30.9,14.8c0.4,1.7-0.3,3.3-1.7,3.6c-1.3,0.3-2.7-0.8-3.2-2.4c-0.4-1.7,0.3-3.3,1.6-3.6
				C29.1,12,30.5,13.1,30.9,14.8" /><path fill="#F1F2F2" d="M30.5,14.5c0.4,1.4-0.3,2.8-1.5,3.1c-1.2,0.3-2.4-0.6-2.8-2.1c-0.4-1.4,0.3-2.8,1.5-3.1
				C28.9,12.1,30.1,13,30.5,14.5" /><path fill="#414042" d="M29.3,15.1c0.2,0.7-0.1,1.4-0.7,1.5c-0.5,0.1-1.1-0.3-1.3-1c-0.2-0.7,0.1-1.4,0.7-1.5
				C28.6,13.9,29.2,14.4,29.3,15.1" /></g><g><polygon fill="#808285" points="19.4,14.4 20,6.6 26,3 33.1,5.9 35.2,13.4 			" /><polygon fill="#58595B" points="19.4,14.4 35.2,13.4 34.2,9.8 19.7,11 			" /><path fill="#808285" d="M43.3,13.3l-31.8,2.6l-0.2-2.3c0,0,4.3,0.8,16-0.1C39,12.5,43.1,11,43.1,11L43.3,13.3z" /><path fill="#58595B" d="M27,4.5c0,0,0.1,0.4,0.3,0.9c0.1,0.1,0.1,0.3,0.2,0.4c0.1,0.1,0.2,0.2,0.3,0.3c0.2,0.1,0.3,0.2,0.6,0.2
				c0.7-0.1,1.5-0.1,2.2,0c0.6,0,0.9,0.1,0.9,0.1s-0.4,0.1-0.9,0.3c-0.4,0.1-0.9,0.2-1.3,0.2c-0.2,0-0.5,0-0.7,0.1
				c-0.2,0-0.4,0-0.6,0c-0.2,0-0.4-0.2-0.6-0.4c-0.3-0.3-0.4-0.7-0.4-1C26.9,4.9,27,4.5,27,4.5" /><path fill="#58595B" d="M25.1,4.7c0,0,0.2,0.4,0.2,1c0,0.3,0,0.7-0.2,1.1c-0.1,0.2-0.3,0.4-0.5,0.5c-0.4,0.2-0.9,0.1-1.3,0.2
				c-0.4,0-0.9,0-1.3,0c-0.6,0-0.9-0.1-0.9-0.1s0.4-0.1,0.9-0.3c0.4-0.1,0.8-0.2,1.3-0.2c0.2,0,0.4-0.1,0.6-0.1c0.2,0,0.4,0,0.6-0.1
				c0.2-0.1,0.4-0.3,0.5-0.5C25,5.7,25.1,5.2,25.1,4.7" /></g><path fill="#414042" d="M34.4,13.4c0,0-0.9,0.4-0.8,2c0.1,1.6,1.2,2.1,1.2,2.1s6.3,0,6.4-4.7C41.3,8.1,38,6.3,38,6.3
			S38.4,9,37.2,11C36.1,12.9,34.4,13.4,34.4,13.4" /></g></g><g id="_x34_th_Grade_Heads" /><g id="_x35_th_Grade_Heads" /><g id="Extra_Heads" /><g id="Templates" /><g id="Labels" /></svg>