<svg version="1.1" xmlns="http://www.w3.org/2000/svg" xmlns:xlink="http://www.w3.org/1999/xlink" x="0px" y="0px" viewBox="0 0 50 50" enable-background="new 0 0 50 50" xml:space="preserve" width="50" height="50" preserveAspectRatio="none"><g id="Avatar_Silhouettes" /><g id="_x32_nd_Grade_Heads" /><g id="_x33_rd_Grade_Heads"><g><path fill="#808285" d="M43.5,31.5c-3.6-0.9-9.3-1.1-11.9,1.1c-1.4,1.3-2.9,5.7,0.3,7.3c0.9,0.4,2.7,0.9,4.2,1.3
			C39.5,38.8,42.1,35.4,43.5,31.5z" /><g><path fill="#B1B3B5" d="M2.3,25.1c0.1-0.7,5.8-1.8,9.7,1.3c3.9,3.1,5.1,9,5.1,9s-2.8-0.8-7.4-3C6.4,30.8,2.2,25.8,2.3,25.1" /><path fill="#D1D3D4" d="M10.5,27.5c-3-1.8-7.3-2-7.3-1.9c-0.1,0.7,3.9,5,6.9,6.4c2.7,1.3,4.7,2.1,5.8,2.5
				C15.5,32.7,14.2,29.6,10.5,27.5" /></g><path fill="#414042" d="M34.5,34.2l-0.8-0.1l0.7,0.5c1.5,1,2.9,2.1,4.1,3.4c0.1-0.1,0.1-0.2,0.2-0.3c-1-1.1-2.2-2.1-3.4-3
			c0.9,0.2,1.8,0.3,2.6,0.6c0.7,0.2,1.3,0.4,2,0.6c0.1-0.1,0.1-0.2,0.2-0.3c0,0,0,0,0-0.1c-0.7-0.2-1.4-0.4-2.1-0.6
			C36.9,34.6,35.7,34.4,34.5,34.2z" /><path fill="#414042" d="M36.2,30.5c1.2,1,1.8,2.5,1.3,3.9c-0.6,2-3.1,3-5.5,2.3c-0.7-0.2-1.4-0.6-1.9-1.1c0.2-1.3,0.9-2.5,1.5-3.1
			C33,31.4,34.5,30.7,36.2,30.5z" /><path fill="#6D6E71" d="M32.8,35.1c0.8,0.2,1.7,0.2,2.4-0.3c0.7-0.5,1.1-1.3,1.1-2.1c0-0.1,0-0.2,0-0.3c0-0.1,0-0.2,0-0.2
			s0,0.1,0,0.2c-0.1,0.8-0.5,1.6-1.2,2.1c-0.3,0.2-0.7,0.4-1,0.5C33.6,35.1,33.2,35,32.8,35.1" /><path fill="#6D6E71" d="M36.8,32.1c0,0,0,0.1,0.1,0.3c0,0.2,0.1,0.5,0,0.8c0,0.3-0.1,0.7-0.3,1.1c-0.4,0.8-1.1,1.4-2,1.6
			c-0.7,0.1-1.3-0.1-2-0.2c0.2,0.3,0.7,0.3,1,0.4c0.5,0.1,1,0.2,1.6,0c0.8-0.3,1.4-0.9,1.7-1.7c0.2-0.4,0.2-0.8,0.2-1.2
			c0-0.4-0.1-0.6-0.1-0.8C36.9,32.2,36.8,32.1,36.8,32.1" /><path fill="#B1B3B5" d="M33.9,34.5c1.2-1.6,2-3.6,2-5.8c0-1.2-0.2-2.4-0.7-3.5c-2-5.1-7.9-7.6-13-5.9c-4.6,1.6-7.4,6.2-7.6,10.9
			c-0.2,4.7,0,7.8,3.9,9.8c1.2,0.6,4.8,0.7,8.4-0.5c0.3,1.9,0.4,3.3,0.3,4.9c1-0.1,2-0.3,2.9-0.6c-0.3-1.3-0.8-3.6-1.2-5.2
			C30.8,37.8,32.6,36.4,33.9,34.5z" /><path fill="#414042" d="M25,36.3c-0.1,0.2,0.1,0.4,0.3,0.5c0.2,0.1,0.4-0.1,0.5-0.3c0.1-0.2-0.1-0.4-0.3-0.5
			C25.3,35.9,25.1,36.1,25,36.3" /><path fill="#414042" d="M25.3,36.2c0,0-0.7,0.3-1.5,0.5c-1.6,0.3-3.4-0.5-3.4-0.5s1.2,1.3,3.3,1C25.1,37,25.3,36.2,25.3,36.2z" /><path fill="#414042" d="M18.1,37.1c0-0.1,0-0.2,0.1-0.3c0.1,0,0.2,0,0.3,0.2c0,0.1,0,0.2-0.1,0.3C18.3,37.3,18.2,37.3,18.1,37.1" /><path fill="#414042" d="M16.5,36.7c0-0.1,0-0.2,0.1-0.3c0.1,0,0.2,0,0.3,0.1c0,0.1,0,0.2-0.1,0.3C16.6,36.9,16.5,36.8,16.5,36.7" /><path fill="#414042" d="M17.5,35.8c0-0.1,0-0.2,0.1-0.3c0.1,0,0.2,0,0.3,0.1c0,0.1,0,0.2-0.2,0.3C17.7,36,17.6,35.9,17.5,35.8" /><path fill="#414042" d="M28.7,34.9c0,0.1,0.1,0.2,0.2,0.2c0.1,0,0.2-0.1,0.2-0.2c0-0.1-0.1-0.2-0.2-0.2
			C28.8,34.7,28.7,34.8,28.7,34.9" /><path fill="#414042" d="M27.3,35.8c0,0.1,0.1,0.2,0.2,0.2c0.1,0,0.2-0.1,0.2-0.2c0-0.1-0.1-0.2-0.2-0.2
			C27.4,35.6,27.3,35.7,27.3,35.8" /><path fill="#414042" d="M28.5,36.4c0,0.1,0.1,0.2,0.2,0.2c0.1,0,0.2-0.1,0.2-0.2c0-0.1-0.1-0.2-0.2-0.2
			C28.6,36.2,28.5,36.3,28.5,36.4" /><path fill="#414042" d="M31.9,27.6c0,0-0.1,0.2-0.3,0.4c-0.6,0.7-1.5,1.2-2.5,1.2c0,0.2,0,0.4,0,0.5c0,0,0.8-0.2,0.9-0.3
			c0.7-0.3,1.3-0.8,1.7-1.4C31.8,27.8,31.9,27.6,31.9,27.6" /><path fill="#414042" d="M31.3,25.7c0,0,0,0.2-0.2,0.6c-0.1,0.3-0.4,0.7-0.7,1.1c-0.2,0.2-0.3,0.3-0.5,0.5
			c-0.2,0.1-0.3,0.3-0.5,0.4c-0.1,0.1-0.3,0.2-0.3,0.2c-0.1,0-0.1,0.1-0.1,0.1l0.3,0.5c0,0,0.1,0,0.1-0.1c0.1-0.1,0.2-0.2,0.3-0.3
			c0.1-0.1,0.3-0.3,0.4-0.4c0.2-0.2,0.3-0.4,0.4-0.6c0.3-0.4,0.5-0.9,0.6-1.2C31.3,26,31.3,25.7,31.3,25.7" /><path fill="#414042" d="M30.2,24.7c0,0,0,0.2,0,0.6c-0.1,0.9-0.6,1.6-1.2,2.2c-0.1,0.1-0.2,0.2-0.3,0.3c-0.1,0.1-0.1,0.1-0.1,0.1
			l0.4,0.4c0,0,0-0.1,0.1-0.1c0.1-0.1,0.2-0.2,0.3-0.4c0.5-0.7,0.9-1.6,0.9-2.5C30.2,24.9,30.2,24.7,30.2,24.7" /><path fill="#E6E7E8" d="M22.9,32.3c0,0,1.6,2.6,4.5,2c2.6-0.5,3-5.1,3-5.1s-3-3-4.7-2.7C22.3,27.4,22.9,32.3,22.9,32.3" /><path fill="#808285" d="M24.8,30.6c-0.2,1.5,0.7,2.8,1.9,2.9c1.2,0.1,2.4-0.9,2.5-2.4c0.2-1.5-0.7-2.8-1.9-2.9
			C26.1,28.1,25,29.2,24.8,30.6" /><path fill="#414042" d="M25.7,30.7c-0.1,0.9,0.4,1.7,1.2,1.8c0.7,0.1,1.4-0.6,1.5-1.5c0.1-0.9-0.4-1.7-1.2-1.8
			C26.5,29.2,25.8,29.9,25.7,30.7" /><path fill="#6D6E71" d="M30.4,29.3c0,0-0.1-0.2-0.3-0.4c-0.2-0.3-0.5-0.7-1-1.1c-0.2-0.2-0.5-0.4-0.7-0.6c-0.3-0.2-0.6-0.4-1-0.6
			c-0.4-0.2-0.8-0.3-1.2-0.3c-0.8,0-1.7,0.4-2.3,1c-0.3,0.3-0.5,0.6-0.7,1c-0.3,0.7-0.5,1.4-0.5,2c0,0.6,0,1.1,0,1.4
			c0,0.3,0.1,0.5,0.1,0.5s0-4.5,3.5-4.9C28.2,27.2,30.4,29.3,30.4,29.3" /><path fill="#414042" d="M12.5,27.8c0,0,0.1,0.2,0.2,0.5c0.3,0.5,0.7,0.9,1.1,1.2c0.4,0.3,0.9,0.5,1.3,0.6l0.1-0.5
			c0,0-0.2,0-0.5-0.1c-0.8-0.2-1.4-0.6-1.9-1.2C12.6,28,12.5,27.8,12.5,27.8" /><path fill="#414042" d="M13.2,26c0,0,0,0.2,0.1,0.6c0.1,0.4,0.2,0.8,0.5,1.2c0.3,0.5,0.7,1,1.2,1.4c0.1,0.1,0.1,0.1,0.1,0.1
			l0.3-0.4c0,0,0,0-0.1-0.1c-0.8-0.5-1.5-1.3-1.9-2.2C13.3,26.2,13.2,26,13.2,26" /><path fill="#414042" d="M14.5,25.2c0,0-0.1,0.2-0.1,0.6c0,1.1,0.4,2.1,1,2.9c0.1,0.1,0.1,0.1,0.1,0.1l0.4-0.3c0,0,0,0-0.1-0.1
			c-0.7-0.7-1.2-1.6-1.3-2.6C14.5,25.5,14.5,25.2,14.5,25.2" /><path fill="#E6E7E8" d="M14.9,29.5c0.9-1.3,2.9-2.3,4-2c3.2,0.9,2.4,5.5,2.4,5.5s-2.2,2.1-4.3,1.5c-1-0.3-1.8-0.9-2-1.8
			C14.7,31.8,14.5,30.6,14.9,29.5" /><path fill="#808285" d="M20.1,31.2c0.1,1.4-0.8,2.6-1.9,2.7c-1.2,0.1-2.2-1-2.3-2.4c-0.1-1.4,0.8-2.6,1.9-2.7
			C19,28.7,20,29.8,20.1,31.2" /><path fill="#414042" d="M19.3,31.2c0.1,0.8-0.5,1.6-1.2,1.6c-0.7,0-1.3-0.6-1.4-1.4c-0.1-0.8,0.5-1.6,1.2-1.6
			C18.6,29.7,19.2,30.4,19.3,31.2" /><path fill="#6D6E71" d="M14.9,29.5c0,0,0.1-0.2,0.3-0.3c5.6-3.6,6,3.8,6,3.8s0.1-0.2,0.1-0.5c0.1-0.3,0.1-0.7,0.1-1.3
			c0-0.5-0.1-1.2-0.3-1.8c-0.1-0.3-0.3-0.7-0.5-1c-0.2-0.3-0.5-0.6-0.8-0.8c-1-0.6-2.1-0.6-3.1-0.1c-0.3,0.2-0.5,0.3-0.7,0.5
			c-0.4,0.4-0.7,0.7-0.9,0.9C15,29.4,14.9,29.5,14.9,29.5" /><path fill="#E6E7E8" d="M27.3,32c0,0.4,0.1,0.7,0.4,0.7c0.3,0,0.6-0.2,0.6-0.6c0-0.4-0.1-0.7-0.4-0.7C27.6,31.4,27.3,31.6,27.3,32
			" /><path fill="#E6E7E8" d="M16.4,29.7c-0.2,0.5-0.2,1.2,0.2,1.3c0.4,0.1,1.1-0.4,1.2-0.9c0.2-0.5,0.3-1.1-0.1-1.3
			C17.3,28.7,16.6,29.2,16.4,29.7" /><path fill="#E6E7E8" d="M18.2,32.5c0,0.4,0.1,0.7,0.4,0.7c0.3,0,0.6-0.2,0.6-0.6c0-0.4-0.1-0.7-0.4-0.7
			C18.5,31.8,18.3,32.1,18.2,32.5" /><path fill="#E6E7E8" d="M25.4,29.3c-0.2,0.5-0.2,1.2,0.2,1.3c0.4,0.1,1.1-0.4,1.2-0.9c0.2-0.5,0.3-1.1-0.1-1.3
			C26.3,28.4,25.6,28.8,25.4,29.3" /><path fill="#414042" d="M28.3,25.2c0-0.2-1.2-1.2-2.4-1.1c-1.2,0.1-1.6,0.8-1.5,0.9c0.1,0.1,0.6-0.2,1.5-0.3
			C27.3,24.6,28.3,25.4,28.3,25.2" /><path fill="#414042" d="M16.4,26.6c0-0.2,1.2-1.2,2.4-1c1.2,0.1,1.6,0.8,1.5,1c-0.1,0.1-0.6-0.3-1.5-0.3
			C17.5,26.2,16.4,26.9,16.4,26.6" /><path fill="#808285" d="M15,16.9c2-9.2,8.3-4.9,9.5-3.2c0.7,1,3.4,5.1,5.3,4.3c2.3-1,1-3.4,1-3.4s5.3,0,4.8,3.8
			c-0.1,0.5-0.3,1-0.6,1.4c2.7,1.7,3.1,4.6,3.1,5c0.2,3-2.5,8-3.3,8.2c0,0,0,0-0.1,0c-0.2-0.3-0.3-0.2-0.5-0.6
			c0.1,0.4,0.3,2-1.8,2.5c0,0-0.7,0.2-1.3-0.2c-0.7-0.5-0.6-1.7-0.6-1.7c0-2.3,1.5-0.5,1.5-0.5c-1.1-0.3-0.6,0.6-0.6,0.6
			c0.2,0.2,0.4,0.3,0.7,0.2c0.1,0,0.1,0,0.2-0.1c0.3-0.2,1.3-1.2,0.5-3.4c-0.8-1.6-0.8-3.1-0.6-4.4l0,0c0,0-0.1-4.7-7.4-2.5l0,0
			c-1.7,0.8-3.3,1.6-3.3,1.6s-3.8-1.3-4.9-1c-0.2,0.4-0.5,0.7-0.7,1.2C15.8,24.3,14.2,20.5,15,16.9z" /><path fill="#414042" d="M27,18.8c0,0-0.4,0.1-1.1,0.4c-1.7,0.9-3.3,2.6-3.5,4.5c0,0.2,0,0.3,0,0.3s0-0.1,0.1-0.3
			c0.7-1.9,2-3.2,3.6-4.4C26.7,19,27,18.8,27,18.8" /><path fill="#414042" d="M24.9,16.7c0,0-0.1,0-0.3,0.1c-0.2,0.1-0.5,0.3-0.8,0.5c-0.2,0.1-0.3,0.3-0.5,0.4
			c-1.5,1.6-2.1,4.1-1.6,6.2c0,0,0-0.5,0.1-1.3c0.2-1.7,0.7-3.4,1.7-4.7c0.1-0.2,0.3-0.3,0.4-0.5c0.3-0.3,0.5-0.5,0.7-0.6
			C24.8,16.8,24.9,16.7,24.9,16.7" /><path fill="#414042" d="M21.7,12.4c0,0-0.2,0.1-0.5,0.2c-0.3,0.1-0.8,0.4-1.3,0.8c-0.5,0.4-1,0.9-1.5,1.5c-0.5,0.6-0.8,1.4-1,2.3
			c-0.5,2-0.1,4.1,0.4,6c0.1,0.3,0.2,0.5,0.2,0.5s0-0.2-0.1-0.6c-0.3-1.9-0.5-4-0.1-5.9c0.2-0.8,0.5-1.5,0.9-2.2
			c0.4-0.6,0.9-1.1,1.4-1.5c0.5-0.4,0.9-0.7,1.2-0.9C21.5,12.5,21.7,12.4,21.7,12.4" /><path fill="#414042" d="M37.6,22.7c-1.5-0.6-3.5,0.4-4.2,1.8c-0.4,0.9-0.7,1.9-0.8,2.8L32.5,28l0.4-0.5c0.9-1.1,2-1.8,3.4-2.2
			c0.2-0.1,0.4-0.1,0.7-0.1c0.1,0,0.2,0,0.3,0c0.1,0,0.2,0,0.3,0.1c-0.1-0.1-0.2-0.1-0.3-0.1c-0.1,0-0.2,0-0.4-0.1
			c-1.4-0.1-2.8,0.7-3.8,1.6c-0.2,0.2-0.3,0.3-0.5,0.5l0.3,0.1c0-0.3,0.1-0.6,0.2-0.9c0.1-0.3,0.1-0.6,0.2-0.9
			c0.3-1,0.7-1.8,1.7-2.3c0.5-0.2,1-0.5,1.6-0.5c0.2,0,0.3,0,0.5,0C37.3,22.7,37.4,22.7,37.6,22.7" /><g><path fill="#B1B3B5" d="M49.1,24.4c-0.1-0.8-5-1.9-10.1,1.3c-4.3,2.7-5.5,8.7-5.5,8.7s3-0.7,7.9-2.8
				C44.7,30.2,49.3,25.2,49.1,24.4" /><path fill="#D1D3D4" d="M40.4,27.2c3-1.7,6.3-2.3,7.9-2.5c0.1,0-2.8,4.2-6.9,6.2c-3,1.5-5.1,2.1-6.3,2.5
				C35.4,31.9,36.7,29.2,40.4,27.2" /></g></g></g><g id="_x34_th_Grade_Heads" /><g id="_x35_th_Grade_Heads" /><g id="Extra_Heads" /><g id="Templates" /><g id="Labels" /></svg>