<?xml version="1.0" encoding="utf-8"?>
<!-- Generator: Adobe Illustrator 21.1.0, SVG Export Plug-In . SVG Version: 6.00 Build 0)  -->
<svg version="1.1" xmlns="http://www.w3.org/2000/svg" xmlns:xlink="http://www.w3.org/1999/xlink" x="0px" y="0px"
	 viewBox="0 0 50 50" enable-background="new 0 0 50 50" xml:space="preserve" width="50" height="50" preserveAspectRatio="none">
<g id="Avatar_Silhouettes">
</g>
<g id="_x33_rd_Grade_Heads">
</g>
<g id="_x34_th_Grade_Heads">
</g>
<g id="_x35_th_Grade_Heads">
	<path fill="#FFFFFF" d="M24.7,43.5c-9.9,0-17.9-8-17.9-17.9s8-17.9,17.9-17.9s17.9,8,17.9,17.9C42.5,35.4,34.5,43.5,24.7,43.5z"/>
	<g>
		<ellipse transform="matrix(0.8022 -0.597 0.597 0.8022 -4.4352 24.4015)" fill="#72B1C5" cx="34.6" cy="18.9" rx="4.5" ry="7.8"/>
		<path fill="#0067AB" d="M33.7,20.1c-0.2-0.8-0.3-1.7-0.3-2.5c0-0.7,0-1.5,0.2-2.1c0-0.1,0.1-0.2,0.2-0.4c0.1-0.1,0.2-0.2,0.3-0.3
			c-0.1,0.1-0.2,0.2-0.3,0.3c-0.1,0.1-0.2,0.2-0.2,0.3C33,16.1,33,17,32.9,17.8c0,0.8,0.1,1.7,0.2,2.4c0,0.1,0.1,0.3,0.1,0.4
			c0.1,0.4,0.3,0.9,0.4,1.3c0.1-1.1,0.7-2.2,1.4-3.1c0.8-0.9,1.8-1.5,2.9-1.7C36.1,17.3,34.4,18.4,33.7,20.1z"/>
		<path fill="#0067AB" d="M33.8,21.6c0,0,0.1,0,0.2,0c0.1,0,0.4,0,0.6,0c1.3,0,2.4-0.3,3.6-0.9c0.5-0.2,0.7-0.4,0.7-0.4
			s-0.3,0.2-0.7,0.5c-1.1,0.7-2.3,1.1-3.6,1.1c-0.3,0-0.5,0-0.6,0c-0.2,0-0.2,0-0.2,0L33.8,21.6z"/>
		<path fill="#0091A1" d="M30.3,22.5l2.5-3c0,0,0.8-0.1,1.7,0.8c0.9,0.9,0.8,1.5,0.8,1.5l-2.6,2.2L30.3,22.5z"/>
	</g>
	<path fill="#FFC640" d="M17.6,20.5c-6.9,2.5-2,9.4-2,9.4s-4.4-1-8.1,2.9c2.4,5.8,7.6,10.2,13.9,11.4c0.5,0.1,0.9,0.2,1.4,0.2
		c0.7,0.1,1.4,0.1,2.2,0.1c0.2,0,0.3,0,0.5,0c0,0,0,0,0.1,0c0.1,0,0.3,0,0.4,0c0.8,0,1.7-0.1,2.5-0.3c2.2-0.4,4.3-1.2,6.1-2.3
		c0.1-0.1,0.2-0.2,0.4-0.2c0.1,0,0.1-0.1,0.2-0.1c1.4-0.9,2.8-2,3.9-3.3c0.1-0.2,0.3-0.3,0.4-0.5c0.3-0.3,0.5-0.7,0.8-1
		c0.1-0.2,0.2-0.3,0.3-0.5c0.7-1,1.3-2.1,1.8-3.3c0.3-0.8,0.6-1.7,0.8-2.5c-0.5-0.8-1-1.6-1.5-2.2C35.5,21.1,24.5,18,17.6,20.5z"/>
	<path fill="#FFEC81" d="M22.8,44.6c0.7,0.1,1.4,0.1,2.2,0.1c0.2,0,0.3,0,0.5,0c0,0,0,0,0.1,0c0.1,0,0.3,0,0.4,0
		c0.8,0,1.7-0.1,2.5-0.3c2.2-0.4,4.3-1.2,6.1-2.3c0.1-0.1,0.2-0.2,0.4-0.2c0.1,0,0.1-0.1,0.2-0.1c0.4-0.2,0.7-0.5,1.1-0.8
		c-1.1-5.4-1.7-9.3-1.7-9.3s-2.1,2.4-4.8,1.6c-3.1-0.8-2.9-1.6-4.6-2.9c-1.4-1.1-2-1-2-1l-2.3,0.6c0,0-0.2,4.4-3.3,5.7
		c-3.1,1.3-5.3-0.9-5.3-0.9s-0.4,1.5-0.9,4c2.7,2.8,6.2,4.8,10.2,5.6C21.9,44.4,22.3,44.5,22.8,44.6z"/>
	<path fill="#FFD943" d="M41.8,10.3L26.6,3L8.5,10.5L1.9,24.3l5.6,17.8L25.4,47l18.3-8.3l4.5-14.8L41.8,10.3z M24.7,43.5
		c-9.9,0-17.9-8-17.9-17.9s8-17.9,17.9-17.9s17.9,8,17.9,17.9C42.5,35.4,34.5,43.5,24.7,43.5z"/>
	<g>
		<ellipse transform="matrix(0.721 -0.6929 0.6929 0.721 -7.4209 8.4599)" fill="#FFC640" cx="6.8" cy="13.4" rx="1.6" ry="3.2"/>
		<path fill="#FFC640" d="M16.2,21.8c0,0-2-5.1-5.5-8.2c-3.5-3-5.3-2.8-5.3-2.8l3.3,5c0,0,0.6-0.5,1.5-0.2c3.5,1.3,5.1,6.5,5.1,6.5
			L16.2,21.8z"/>
		<path fill="#F4833C" d="M7.8,12.8c0.8,0.9,1,2.3,0.6,2.7c-0.3,0.3-1.3-0.1-2.1-1c-0.8-0.9-1.5-2.2-1.1-2.5
			C5.5,11.7,6.7,11.5,7.8,12.8z"/>
	</g>
	<path fill="#72B1C5" d="M23.7,15.3c-3.4,0.5-3.9,2.8-3.9,2.8s-8.8-2.8-8.9,4.4c0,2.4,3.7,5.3,3.7,5.3s-0.3-1.1-0.6-2.4
		c0-0.1,0-0.2-0.1-0.3c0.2-0.1,0.7-1.2,2.8-3c1.6-1.3,3.6-2.1,3.6-2.1s2.3-0.4,4.4,0.2c1.2,0.3,4.4,2.1,6.2,2.9
		c1.6,0.7,3.8-0.3,3.8-0.3S30.7,14.3,23.7,15.3z"/>
	<path fill="#0067AB" d="M34.7,22.8c-0.4-0.8-0.9-1.5-1.5-2.2c-0.5-0.7-1.1-1.4-1.7-2c-1.2-1.2-2.7-2.2-4.4-2.8
		c-0.8-0.3-1.7-0.4-2.5-0.4c-0.9,0-1.7,0.1-2.5,0.4c-0.8,0.3-1.5,0.9-1.9,1.7c-0.4,0.7-0.7,1.6-0.7,2.5c0-0.9,0.2-1.8,0.6-2.6
		c0.4-0.8,1.1-1.5,1.9-1.8c0.8-0.4,1.7-0.5,2.6-0.5c0.9,0,1.8,0.1,2.7,0.4c1.7,0.6,3.2,1.7,4.5,2.9C33,19.7,34,21.2,34.7,22.8z"/>
	<path fill="#0067AB" d="M11.7,23.2c0-0.4,0-0.9,0.1-1.3c0.1-0.4,0.2-0.8,0.4-1.2c0.2-0.4,0.5-0.7,0.8-1c0.3-0.3,0.7-0.5,1.1-0.7
		c0.8-0.3,1.7-0.4,2.6-0.4c0.4,0,0.9,0.1,1.3,0.2c0.4,0.1,0.8,0.2,1.2,0.4l0.5,0.2l-0.6,0c-0.5,0-1.1,0.1-1.6,0.2
		C17,19.8,16.5,20,16,20.2c-0.5,0.3-0.9,0.6-1.2,1.1c-0.3,0.4-0.6,0.9-0.8,1.4c0.2-0.5,0.4-1,0.7-1.5c0.3-0.5,0.7-0.9,1.2-1.2
		c0.5-0.3,1-0.5,1.6-0.6c0.6-0.1,1.1-0.2,1.7-0.2l-0.1,0.3c-0.7-0.3-1.6-0.5-2.4-0.6c-0.8,0-1.7,0.1-2.5,0.3
		c-0.4,0.1-0.8,0.3-1.1,0.6c-0.3,0.3-0.6,0.6-0.8,0.9C11.9,21.5,11.7,22.4,11.7,23.2z"/>
	<path fill="#0067AB" d="M31.1,20c-0.7-0.8-1.5-1.4-2.4-1.9c-0.9-0.5-1.9-0.8-2.9-0.9c-1-0.1-2,0.1-2.9,0.6c-0.9,0.5-1.8,1.1-2.2,2
		l-0.2-0.2c0.9-0.3,2-0.6,2.9-0.6c0.8,0,1.8,0.1,2.7,0.4c0.9,0.3,1.7,0.7,2.4,1.2c0.8,0.5,1.5,1.1,2.1,1.7c-0.7-0.6-1.4-1.1-2.2-1.6
		c-0.8-0.5-1.6-0.9-2.4-1.1c-0.9-0.2-1.7-0.4-2.6-0.3c-0.9,0.1-2,0.2-2.8,0.5l-0.3,0.1l0.1-0.3c0.2-0.5,0.5-0.7,0.8-1
		c0.4-0.4,1-0.8,1.5-1c0.9-0.5,2-0.7,3-0.6c1,0.1,2,0.5,2.9,1c0.4,0.3,0.9,0.6,1.2,0.9C30.4,19.2,30.8,19.6,31.1,20z"/>
	<g>
		<g>
			<path fill="#400025" d="M16.7,19.4c0,0-0.1,0.3-0.2,0.9c0,0.3,0,0.6,0,0.9c0,1,0.5,1.9,1.1,2.7c0.2,0.2,0.3,0.4,0.4,0.5
				c0,0.1,0.1,0.1,0.1,0.1c0,0,0,0,0,0l-0.3,0.3c0,0,0,0,0-0.1c0,0-0.1-0.1-0.1-0.1c-0.1-0.1-0.2-0.3-0.4-0.5
				c-0.5-0.9-0.9-1.9-0.9-2.9c0-0.3,0.1-0.7,0.1-0.9C16.6,19.7,16.7,19.4,16.7,19.4z"/>
			<path fill="#400025" d="M18.4,18.4c0,0-0.2,0.3-0.3,0.8c-0.1,0.3-0.2,0.6-0.2,0.9c-0.1,1,0.1,2,0.6,2.9c0.1,0.2,0.2,0.4,0.3,0.6
				c0,0.1,0.1,0.1,0.1,0.1c0,0,0,0,0,0l-0.3,0.2c0,0,0,0,0-0.1c0,0-0.1-0.1-0.1-0.2c-0.1-0.1-0.2-0.4-0.3-0.6c-0.4-1-0.6-2-0.4-3
				c0.1-0.3,0.2-0.6,0.3-0.9C18.3,18.7,18.4,18.4,18.4,18.4z"/>
			<path fill="#400025" d="M19.8,18.9c0,0-0.2,0.3-0.3,0.8c-0.1,0.3-0.2,0.6-0.2,0.9c-0.1,1,0.1,2,0.6,2.9c0.1,0.2,0.2,0.4,0.3,0.6
				c0,0.1,0.1,0.1,0.1,0.1c0,0,0,0,0,0L20,24.5c0,0,0,0,0-0.1c0,0-0.1-0.1-0.1-0.2c-0.1-0.1-0.2-0.4-0.3-0.6
				c-0.1-0.3-0.2-0.6-0.3-0.9c-0.2-0.7-0.2-1.4-0.1-2.1c0.1-0.3,0.2-0.6,0.3-0.9C19.7,19.3,19.8,18.9,19.8,18.9z"/>
			<path fill="#400025" d="M23.4,18.1c0,0-0.1,0.3-0.2,0.9c0,0.3,0,0.6,0,0.9c0,1,0.5,1.9,1.1,2.7c0.2,0.2,0.3,0.4,0.4,0.5
				c0,0.1,0.1,0.1,0.1,0.1c0,0,0,0,0,0l-0.3,0.3c0,0,0,0,0-0.1c0,0-0.1-0.1-0.1-0.1c-0.1-0.1-0.2-0.3-0.4-0.5
				c-0.5-0.9-0.9-1.9-0.9-2.9c0-0.3,0-0.7,0.1-0.9C23.3,18.4,23.4,18.1,23.4,18.1z"/>
			<path fill="#400025" d="M25.1,17.1c0,0-0.2,0.3-0.3,0.8c-0.1,0.3-0.2,0.6-0.2,0.9c-0.1,1,0.1,2,0.6,2.9c0.1,0.2,0.2,0.4,0.3,0.6
				c0,0.1,0.1,0.1,0.1,0.1c0,0,0,0,0,0l-0.3,0.2c0,0,0,0,0-0.1c0,0-0.1-0.1-0.1-0.2c-0.1-0.1-0.2-0.4-0.3-0.6c-0.4-1-0.6-2-0.4-3
				c0.1-0.3,0.2-0.6,0.3-0.9C24.9,17.4,25.1,17.1,25.1,17.1z"/>
			<path fill="#400025" d="M26.5,17.6c0,0-0.2,0.3-0.3,0.8c-0.4,1.3-0.2,2.5,0.4,3.7c0.1,0.2,0.2,0.4,0.3,0.6c0,0.1,0.1,0.1,0.1,0.1
				c0,0,0,0,0,0l-0.3,0.2c0,0,0,0,0-0.1c0,0-0.1-0.1-0.1-0.2c-0.1-0.1-0.2-0.4-0.3-0.6c-0.4-1-0.6-2-0.4-3c0.1-0.3,0.2-0.6,0.3-0.9
				C26.3,18,26.5,17.6,26.5,17.6z"/>
		</g>
		<ellipse transform="matrix(0.9724 -0.2333 0.2333 0.9724 -5.5011 5.284)" fill="#FFFFFF" cx="19.6" cy="25.9" rx="2.3" ry="2.9"/>
		<ellipse transform="matrix(0.9724 -0.2333 0.2333 0.9724 -5.6687 5.4475)" fill="#400025" cx="20.2" cy="26.7" rx="1" ry="1.3"/>
		
			<ellipse transform="matrix(0.9724 -0.2333 0.2333 0.9724 -4.9794 6.6989)" fill="#FFFFFF" cx="25.8" cy="24.4" rx="2.3" ry="2.9"/>
		<ellipse transform="matrix(0.9724 -0.2333 0.2333 0.9724 -5.1709 6.7979)" fill="#400025" cx="26.1" cy="25.3" rx="1" ry="1.3"/>
	</g>
	<g>
		<path fill="#400025" d="M24.9,28.2c-0.4-0.6-1.2-1.4-1.7-1.3c-0.6,0.1-0.9,1.1-1,1.4l-0.4-0.1c0-0.1,0.4-1.5,1.3-1.7
			c0.9-0.2,2,1.3,2.1,1.5L24.9,28.2z"/>
		<g>
			
				<ellipse transform="matrix(0.9724 -0.2333 0.2333 0.9724 -6.2793 5.5144)" fill="#8DD4F5" cx="20.2" cy="29.3" rx="2.6" ry="1.8"/>
			<path fill="#400025" d="M20.6,31.2c-1.5,0.4-2.9-0.2-3.2-1.3c-0.3-1.1,0.7-2.2,2.2-2.6c1.5-0.4,2.9,0.2,3.2,1.3
				S22.1,30.9,20.6,31.2z M19.8,27.7c-1.3,0.3-2.1,1.3-1.9,2.1c0.2,0.9,1.4,1.3,2.7,1s2.1-1.3,1.9-2.1
				C22.3,27.9,21.1,27.4,19.8,27.7z"/>
		</g>
		<g>
			
				<ellipse transform="matrix(0.9724 -0.2333 0.2333 0.9724 -5.6969 7.0941)" fill="#8DD4F5" cx="27.1" cy="27.6" rx="2.7" ry="1.8"/>
			<path fill="#400025" d="M27.6,29.6c-1.5,0.4-3-0.2-3.3-1.3c-0.3-1.1,0.8-2.2,2.3-2.6c1.5-0.4,3,0.2,3.3,1.3S29.1,29.2,27.6,29.6z
				 M26.8,26.1c-1.3,0.3-2.2,1.3-2,2.1c0.2,0.9,1.5,1.3,2.8,1c1.3-0.3,2.2-1.3,2-2.1C29.3,26.2,28.1,25.7,26.8,26.1z"/>
		</g>
		
			<ellipse transform="matrix(0.9724 -0.2333 0.2333 0.9724 -5.4478 7.7942)" fill="#400025" cx="30.2" cy="26.9" rx="0.5" ry="0.5"/>
		<ellipse transform="matrix(0.9724 -0.2333 0.2333 0.9724 -6.536 4.8426)" fill="#400025" cx="17.2" cy="30" rx="0.5" ry="0.5"/>
	</g>
	<g>
		<path fill="#72B1C5" d="M26.7,31.8c0,0-1-1.7-2.5-2.6c-1.5-0.9-2.2-0.5-2.2-0.5s-1.4,1-1.4,2.2c-0.1,1.2,0.5,3.1,1.1,3.3
			c0.5,0.2,1.7-0.3,1.7-0.3s0,0.8,0.2,1c0.3,0.2,1.4,0.2,2.3-0.8C26.8,33.1,26.7,31.8,26.7,31.8z"/>
		
			<ellipse transform="matrix(0.1019 -0.9948 0.9948 0.1019 -8.4856 53.5247)" fill="#0067AB" cx="25.4" cy="31.5" rx="0.2" ry="0.2"/>
	</g>
	<g>
		<path fill="#0067AB" d="M21.7,34.2c0.4,0,0.8-0.2,1.2-0.3c0.4-0.2,0.8-0.3,1.1-0.6c0.7-0.4,1.1-1.1,1.5-1.9
			c-0.1,0.9-0.5,1.7-1.3,2.2c-0.4,0.2-0.8,0.4-1.2,0.5C22.5,34.3,22.1,34.4,21.7,34.2z"/>
	</g>
	<g>
		<ellipse transform="matrix(0.9132 -0.4074 0.4074 0.9132 -0.6699 7.2864)" fill="#FFC640" cx="16.8" cy="5.2" rx="1.7" ry="3.4"/>
		<g>
			<path fill="#FFC640" d="M23.1,17.1c0,0,0-5.8-2.5-10.2c-2.5-4.4-4.4-4.8-4.4-4.8l1.5,6.3c0,0,0.8-0.3,1.6,0.4
				c3.1,2.6,2.8,8.8,2.8,8.8L23.1,17.1z"/>
			<path fill="#F4833C" d="M18,4.9c0.5,1.2,0.1,2.8-0.4,3c-0.5,0.2-1.3-0.6-1.8-1.8c-0.5-1.2-0.7-2.8-0.2-3
				C16.1,2.9,17.4,3.2,18,4.9z"/>
		</g>
	</g>
</g>
<g id="Extra_Heads">
</g>
<g id="Templates">
</g>
<g id="Labels">
</g>
</svg>
