<svg version="1.1" xmlns="http://www.w3.org/2000/svg" xmlns:xlink="http://www.w3.org/1999/xlink" x="0px" y="0px" viewBox="0 0 50 50" enable-background="new 0 0 50 50" xml:space="preserve" width="50" height="50" preserveAspectRatio="none"><g id="Avatar_Silhouettes" /><g id="_x32_nd_Grade_Heads"><g><g><defs><path id="SVGID_00000089554075383989109800000011085565274079458192_" d="M25.5,42.9c-0.2,0-0.3,0-0.5,0c-0.7,0-1.4-0.1-2.1-0.1
					c-0.4-0.1-0.9-0.1-1.3-0.2C13.4,41,7.1,33.7,7.1,25c0-9.9,8-17.9,17.9-17.9s17.9,8,17.9,17.9c0,2.4-0.5,4.8-1.4,6.9
					c-0.5,1.1-1,2.1-1.7,3.1c-0.1,0.2-0.2,0.3-0.3,0.5c-0.2,0.3-0.5,0.7-0.7,1c-0.1,0.2-0.3,0.3-0.4,0.5c-1.1,1.2-2.3,2.3-3.7,3.2
					c-0.1,0-0.1,0.1-0.2,0.1c-0.1,0.1-0.2,0.1-0.3,0.2c-1.8,1.1-3.7,1.8-5.8,2.2c-0.8,0.1-1.6,0.2-2.4,0.3
					C25.8,42.9,25.7,42.9,25.5,42.9C25.5,42.9,25.5,42.9,25.5,42.9z" /></defs><clipPath id="SVGID_00000110440515596666771900000008809716299684740278_"><use xlink:href="#SVGID_00000089554075383989109800000011085565274079458192_" overflow="visible" /></clipPath><g clip-path="url(#SVGID_00000110440515596666771900000008809716299684740278_)"><g opacity="0.75"><g><path fill="#90D5EC" d="M32.3,2.7c-0.7,0-1.4-0.3-2-0.6c-0.6,1.4-1.8,2.5-3.4,2.9c-2.1,0.6-4.3-0.2-5.7-1.8
							c-0.3,1.8-1.6,3.4-3.5,3.9c-1.5,0.4-3.1,0.1-4.3-0.8c-0.5,1.9-2,3.6-4,4.2c-0.6,0.2-1.2,0.2-1.7,0.2c-3,4.8-4.1,11-2.3,16.9
							C8.6,38.8,20,45.1,30.8,42c10.9-3.1,17.1-14.6,13.9-25.7C42.8,9.8,38.1,4.9,32.3,2.7" /></g></g><polygon fill="#A02C36" points="24.2,12.3 23.9,9.5 23.5,12.3 				" /><polygon fill="#A02C36" points="23.1,11.9 22.5,10.5 22.7,12 				" /><polygon fill="#A02C36" points="24.6,11.8 25.2,10.4 24.3,11.6 				" /><path fill="#A02C36" d="M30,22.1C30,22.1,30,22.1,30,22.1c0-0.1-0.1-0.1-0.1-0.1c0-0.1,0-0.1,0-0.2c0-0.1,0.1-0.2,0.1-0.2
					c0.1-0.1,0.1-0.1,0.2-0.2c0.1-0.1,0.2-0.1,0.3-0.1c0.1,0,0.1,0,0.2-0.1c0,0,0.1,0,0.1,0c0.1,0,0.2,0,0.4,0
					c0.5,0,0.9,0.2,1.1,0.4c0.1,0.1,0.2,0.2,0.3,0.3c0.1,0.1,0.1,0.1,0.1,0.1s-0.1,0-0.2,0c-0.1,0-0.2,0-0.4,0c-0.3,0-0.7,0-1,0
					c-0.1,0-0.2,0-0.2,0c0,0-0.1,0-0.1,0c0,0-0.1,0-0.1,0c-0.1,0-0.2,0-0.2,0c-0.1,0-0.1,0-0.2,0c-0.1,0-0.2,0.1-0.3,0.1
					C30,22.1,30,22.1,30,22.1" /><path fill="#C1592B" d="M47.6,37.7c-1.1-2.6-2.4-5.4-4.1-8.5C35.4,14.6,23.7,11,23.7,11l-8,3.6l4,15.6c0,0-7.1,7.2-10.3,15.3
					C17.1,47,30.3,46.8,47.6,37.7" /><path fill="#D0EBF9" d="M14.1,11.4c0.1,0.4-0.1,0.9-0.6,1c-0.4,0.1-0.9-0.1-1-0.6c-0.1-0.4,0.1-0.9,0.5-1
					C13.5,10.7,14,11,14.1,11.4" /><path fill="#D0EBF9" d="M12.5,15.6c0.1,0.3-0.1,0.6-0.4,0.7c-0.3,0.1-0.6-0.1-0.7-0.4c-0.1-0.3,0.1-0.6,0.4-0.7
					C12,15.1,12.4,15.3,12.5,15.6" /><path fill="#D0EBF9" d="M16.5,11c0.1,0.3-0.1,0.5-0.3,0.6c-0.3,0.1-0.5-0.1-0.6-0.3c-0.1-0.3,0.1-0.5,0.3-0.6
					C16.2,10.6,16.4,10.8,16.5,11" /><path fill="#D0EBF9" d="M8.7,25c0.1,0.5-0.1,0.9-0.6,1.1c-0.5,0.1-0.9-0.1-1.1-0.6c-0.1-0.5,0.1-0.9,0.6-1.1
					C8.1,24.3,8.6,24.6,8.7,25" /><path fill="#D0EBF9" d="M9.2,28.3c0.1,0.2-0.1,0.5-0.3,0.6c-0.2,0.1-0.5-0.1-0.6-0.3s0.1-0.5,0.3-0.6C8.9,28,9.2,28.1,9.2,28.3" /><path fill="#A02C36" d="M16.6,14.4c-0.7-0.5-1.5-1-2.3-1.3c0.8,0.4,1.6,1,2.2,1.6C16.5,14.6,16.5,14.5,16.6,14.4" /><path fill="#A02C36" d="M15.9,14.7c-0.3-0.1-0.6-0.1-1-0.1c0.4,0.1,0.7,0.3,1.1,0.4C16,14.9,15.9,14.8,15.9,14.7" /><path fill="#A02C36" d="M17.9,14c-0.4-0.4-0.7-0.7-1.2-1c0.4,0.4,0.7,0.7,1,1.2C17.8,14.1,17.9,14,17.9,14" /><path fill="#EDE8D8" d="M27.2,30.4c0,0-0.1,0.5,1.4,2.3c1.8,2.2,4.8,2.9,4.8,2.9l-1.2-5.1l-2,0L27.2,30.4z" /><path fill="#EDE8D8" d="M14.8,32.8c0,0,0.1,0.4,1.6,2.2c1.8,2.2,3.8,2.5,3.8,2.5l-1.6-7.5c0,0-0.9,0.2-2.3,1
					C15,31.9,14.8,32.8,14.8,32.8z" /><path fill="#C1592B" d="M14.6,34.1c0.6,0.2,1.2,0.3,1.9,0.3c0.3,0,0.6,0,1-0.1c0.2,0,0.5,0,0.8-0.1l0.3-1.6l0.3-1.6l0.1-0.8
					l0.3,0.8c0.1,0.2,0.2,0.3,0.3,0.5c0.1,0.2,0.2,0.3,0.4,0.5c1,1.1,2.6,1.5,4,1.5c1.1,0,2.3-0.1,3.4-0.4l-1.5-2.2l-0.4-0.6l0.7,0
					l3.6,0.1l2.8,0.1c-0.7-0.7-1.5-1.4-2.2-2.1c-0.1-0.1-0.1-0.1-0.2-0.2c0,0,0.8-0.9,0.8-1c0.3-0.3,0.5-0.7,0.7-1.1
					c0.4-0.9,0.5-1.8,0.1-2.8c-0.1-0.3-0.3-0.5-0.4-0.8c-0.2-0.3-0.3-0.5-0.5-0.7c0,0,0.1,0.1,0.1,0.1c0,0-0.1-0.1-0.1-0.1
					c-1.3-0.4-4.1-1-8.7-1c-6.6,0-11.6,4.2-11.6,4.2L9.9,29l2.1-1.1c-0.3,0.3-0.5,1.1,0.1,3.5c0.1,0.4,0.3,0.9,0.5,1.3
					c0.2,0.3,0.5,0.6,0.9,0.8C13.8,33.8,14.2,33.9,14.6,34.1" /><path fill="#A02C36" d="M15.9,23.8c0,0.2-0.1,0.4-0.2,0.4c-0.2,0-0.4-0.1-0.4-0.2s0.1-0.4,0.2-0.4
					C15.7,23.5,15.9,23.6,15.9,23.8" /><path fill="#A02C36" d="M14.6,24.5c0,0.1,0,0.3-0.2,0.3c-0.1,0-0.3,0-0.3-0.2c0-0.1,0-0.3,0.2-0.3
					C14.4,24.3,14.5,24.4,14.6,24.5" /><path fill="#A02C36" d="M15.6,25.3c0,0.1,0,0.2-0.1,0.2c-0.1,0-0.2,0-0.2-0.1c0-0.1,0-0.2,0.1-0.2
					C15.5,25.2,15.6,25.2,15.6,25.3" /><path fill="#C1592B" d="M13.5,33.5c0,0,0.8,0.7,2.2,0.9c1.4,0.2,2.7-0.1,2.7-0.1L19,31c0,0,0.7,2,3.5,2.5
					c2.8,0.5,5.4-0.4,5.4-0.4l-1.8-2.6l7.2,0.2l-2.9-2.7c0,0,1.2-1,1.6-2.8c0.4-1.8-1.3-3.6-1.3-3.6" /><path fill="#A02C36" d="M33.6,30.5c-0.9-0.8-1.8-1.6-2.7-2.4c1.2-1.3,1.9-3.2,1-4.9c-0.3-0.5-0.7-1-1.1-1.4
					c0.2,0.2,0.4,0.5,0.5,0.7c0.2,0.3,0.3,0.5,0.4,0.8c0.4,0.9,0.3,1.9-0.1,2.8c-0.2,0.4-0.4,0.8-0.7,1.1c-0.1,0.1-0.8,1-0.8,1
					c0.1,0.1,0.1,0.1,0.2,0.2c0.7,0.7,1.5,1.4,2.2,2.1l-2.8-0.1l-3.6-0.1l-0.7,0l0.4,0.6l1.5,2.2c-1.1,0.3-2.3,0.5-3.4,0.4
					c-1.4,0-3-0.4-4-1.5c-0.1-0.1-0.3-0.3-0.4-0.5c-0.1-0.2-0.2-0.3-0.3-0.5l-0.3-0.8L18.8,31l-0.3,1.6l-0.3,1.6
					c-0.2,0.1-0.6,0.1-0.8,0.1c-0.3,0-0.6,0.1-1,0.1c-0.6,0-1.3-0.1-1.9-0.3c-0.4-0.1-0.8-0.3-1.1-0.5c0.3,0.3,0.7,0.5,1.1,0.6
					c1.2,0.5,2.6,0.5,3.8,0.2l0.1,0l0-0.1l0.4-1.6l0.2-0.9c0.1,0.2,0.2,0.3,0.4,0.5c0.3,0.3,0.6,0.6,1,0.8c2.1,1.3,5.2,1.2,7.5,0.4
					l0.4-0.2l-0.3-0.4l-1.4-2l2.9,0.1l3.6,0l0.8,0L33.6,30.5z" /><path fill="#A02C36" d="M29.3,23c0,0.2-0.1,0.4-0.2,0.4s-0.4-0.1-0.4-0.2s0.1-0.4,0.2-0.4S29.2,22.8,29.3,23" /><path fill="#A02C36" d="M27.9,23.7c0,0.1,0,0.3-0.2,0.3c-0.1,0-0.3,0-0.3-0.2c0-0.1,0-0.3,0.2-0.3
					C27.8,23.5,27.9,23.6,27.9,23.7" /><path fill="#A02C36" d="M29,24.5c0,0.1,0,0.2-0.1,0.2c-0.1,0-0.2,0-0.2-0.1s0-0.2,0.1-0.2C28.9,24.3,29,24.4,29,24.5" /><path fill="#A02C36" d="M21.4,34.9c0,0,0.1,0,0.2,0.1c0.5,0.2,1,0.2,1.4,0.3c0.6,0.1,1.1,0.1,1.7,0.1c0.6,0,1.2,0,1.7-0.1
					c0.2,0,0.2-0.1,0.2-0.1s-0.1,0.1-0.2,0.2c-0.6,0.5-1.4,0.6-2.1,0.6c-0.8,0-1.7-0.2-2.4-0.6c-0.2-0.1-0.4-0.3-0.5-0.4
					C21.5,35,21.4,34.9,21.4,34.9" /><path fill="#A02C36" d="M23.2,18.1c0.6,1.8-0.1,3.7-1.4,4.1c-1.4,0.4-2.9-0.7-3.5-2.5c-0.6-1.8,0.1-3.7,1.4-4.1
					C21,15.2,22.6,16.3,23.2,18.1" /><path fill="#A02C36" d="M26.6,18.9c-0.3,1.6-1.6,2.8-2.8,2.5c-1.2-0.3-2.3-2.2-2-3.8c0.3-1.6,2-2.4,3.2-2.1
					C26.2,15.7,27,17.2,26.6,18.9" /><path fill="#EDE8D8" d="M22.7,18.4c0.5,1.4,0,2.9-1.1,3.2c-1.1,0.3-2.3-0.5-2.8-2c-0.5-1.4,0-2.9,1.1-3.2
					C21,16.1,22.2,16.9,22.7,18.4" /><path fill="#EDE8D8" d="M25.7,19c-0.3,1.4-1.3,2.3-2.4,2.1c-1-0.2-1.6-1.5-1.3-2.9c0.3-1.4,1.3-2.3,2.4-2.1
					C25.3,16.4,25.9,17.7,25.7,19" /><path fill="#26221D" d="M22,18.7c0.2,0.7-0.1,1.4-0.6,1.6c-0.6,0.2-1.2-0.3-1.4-1c-0.2-0.7,0.1-1.4,0.6-1.6
					C21.2,17.5,21.8,18,22,18.7" /><path fill="#26221D" d="M24.4,18.7c0.2,0.6-0.1,1.2-0.5,1.3c-0.5,0.1-1-0.3-1.1-0.8c-0.2-0.6,0.1-1.2,0.5-1.3
					C23.7,17.8,24.3,18.1,24.4,18.7" /><path fill="#751A14" d="M20.7,11.6c-0.8,1.1-2,2-3.4,2.7c-0.2-0.2-0.2-0.2-0.3-0.5c1.3-0.7,2.2-1.8,3-2.8
					C20.3,11.2,20.5,11.4,20.7,11.6" /><path fill="#751A14" d="M22,13c1.2-0.2,2.5,0.2,3.9,0.5c0,0.3,0,0.2,0,0.5c-1.3-0.4-2.6-0.4-3.7-0.3C22.1,13.5,22.1,13.3,22,13" /><path fill="#26221D" d="M23,24.2c1.9-0.5,3.3-1.9,3.6-3.3c-1.3-0.1-2.7-0.2-4.5-0.2c-1.7,0-3.3,0.3-4.7,0.7c0,0.2,0,0.4,0.1,0.7
					C18,23.9,20.5,24.9,23,24.2" /><path fill="#52697E" d="M18.5,22.2c-0.3,0.1-0.5,0.3-0.6,0.6c0.3,0.5,0.8,0.9,1.4,1.2c0.3-0.2,0.5-0.7,0.4-1.1
					C19.6,22.4,19,22.1,18.5,22.2" /><path fill="#52697E" d="M23.6,22.2c-0.8,0.2-1.2,1-1,1.8c0,0.1,0.1,0.2,0.1,0.3c0.1,0,0.2,0,0.3-0.1c0.9-0.3,1.7-0.7,2.3-1.2
					C25,22.3,24.3,22,23.6,22.2" /><path fill="#D0EBF9" d="M11.6,21c0.1,0.2,0.3,0.4,0.6,0.3c0.2-0.1,0.4-0.3,0.3-0.6c-0.1-0.2-0.3-0.4-0.6-0.3
					C11.7,20.5,11.5,20.8,11.6,21" /><path fill="#D0EBF9" d="M27.4,8.5c0.1,0.5-0.1,0.9-0.6,1.1c-0.5,0.1-0.9-0.1-1.1-0.6c-0.1-0.5,0.1-0.9,0.6-1.1
					C26.8,7.8,27.3,8,27.4,8.5" /><path fill="#D0EBF9" d="M39.9,18.5c0.1,0.2-0.1,0.5-0.3,0.6c-0.2,0.1-0.5-0.1-0.6-0.3c-0.1-0.2,0.1-0.5,0.3-0.6
					C39.6,18.1,39.8,18.2,39.9,18.5" /><path fill="#D0EBF9" d="M40.7,13.5c0.2,0.5-0.2,1.1-0.7,1.3c-0.5,0.2-1.1-0.2-1.3-0.7c-0.2-0.5,0.2-1.1,0.7-1.3
					C39.9,12.6,40.5,12.9,40.7,13.5" /><g><path fill="#929E2F" d="M35.8,38.9L35.8,38.9C35.8,38.9,35.8,38.9,35.8,38.9z" /></g><path fill="#6B7582" d="M13.3,38l-3.8,3.9c0,0,9.8,5.9,20,2.9c15.2-4.5,20.7-13.2,20.7-13.2L44.6,31c0,0-1.2,4.9-13.6,8.5
					C21.2,42.4,13.3,38,13.3,38z" /><path fill="#B5AEA8" d="M29.1,42.6c0,0.6-0.4,1.2-1,1.2c-0.6,0-1.1-0.4-1.2-1c0-0.6,0.4-1.2,1-1.2C28.6,41.5,29.1,42,29.1,42.6z
					" /><path fill="#B5AEA8" d="M21.6,42.9c0,0.6-0.4,1.1-1,1.2c-0.6,0-1.1-0.4-1.1-1c0-0.6,0.4-1.1,1-1.2C21,41.9,21.6,42.3,21.6,42.9z
					" /><path fill="#B5AEA8" d="M14.8,41.3c0,0.6-0.4,1.1-1,1.2c-0.6,0-1.1-0.4-1.1-1c0-0.6,0.4-1.1,1-1.2
					C14.2,40.2,14.7,40.7,14.8,41.3z" /><path fill="#B5AEA8" d="M36.4,40.2c0,0.6-0.4,1.2-1,1.2c-0.6,0-1.1-0.4-1.1-1c0-0.6,0.4-1.2,1-1.2
					C35.8,39.2,36.4,39.6,36.4,40.2z" /><path fill="#B5AEA8" d="M41.7,37.4c0,0.6-0.4,1.2-1,1.2c-0.6,0-1.1-0.4-1.1-1c0-0.6,0.4-1.2,1-1.2
					C41.2,36.3,41.7,36.8,41.7,37.4z" /><path fill="#B5AEA8" d="M46.6,33.6c0,0.6-0.4,1.2-1,1.2c-0.6,0-1.1-0.4-1.1-1c0-0.6,0.4-1.2,1-1.2
					C46.1,32.5,46.6,32.9,46.6,33.6z" /><path fill="#B5AEA8" d="M8.7,42.6l0.8-0.7c0,0,12.8,7.3,25.5,0.7c5.1-2.6,9.8-5.6,12-7.7c2.6-2.6,2.7-3.4,2.7-3.4l1.7,0.1
					c0,0-7.2,9.2-19.1,13.3C19.2,49.4,8.7,42.6,8.7,42.6z" /></g></g></g><path fill="#FFD943" d="M41.8,10.3L26.6,3.1L8.5,10.5L1.9,24.4l5.6,17.8l17.9,4.8l18.3-8.3l4.5-14.8L41.8,10.3z M25,42.9
		c-9.9,0-17.9-8-17.9-17.9S15.1,7.1,25,7.1s17.9,8,17.9,17.9S34.9,42.9,25,42.9z" /><g><path fill="#87298C" d="M11.4,13c0,0-0.2-1.6-0.9-2.2c-0.6-0.5-1.1-0.5-1.3-0.3c-0.3,0.2,0.5,1.2,0.5,1.2s-0.9-0.4-1.1,0.1
			c-0.2,0.5,0.7,0.7,0.7,0.7s-1.1,0.2-1,0.7c0.1,0.5,0.9,0.3,0.9,0.3s-0.8,0.4-0.7,0.8c0.1,0.5,1.4,0.4,1.4,0.4
			C9.9,14.5,11.3,13.1,11.4,13z" /><path fill="#27B24B" d="M9.3,17.3c0,0-0.4-4.6,1.8-5c2.2-0.4,2.7,5,2.7,5L13,17.5c0,0,0,2.2-1.5,2.4C10,20,9.3,17.3,9.3,17.3z" /><path fill="#3D5059" d="M11.1,12.3C11.1,12.3,11.1,12.4,11.1,12.3l1.2,7.1c0.7-0.7,0.7-2,0.7-2l0.8-0.1
			C13.8,17.3,13.3,12,11.1,12.3z" /><path fill="#414042" d="M11.6,17.2c0,0,0.1,0,0.4,0c0.2,0,0.5,0,0.7,0c0.1,0,0.3,0,0.4,0c0.1,0,0.3,0,0.4,0c0.2,0,0.4,0.1,0.4,0.1
			s-0.1,0.1-0.3,0.2c-0.1,0-0.2,0.1-0.4,0.1c-0.1,0-0.3,0.1-0.4,0.1c-0.2,0-0.3,0-0.5-0.1c-0.1,0-0.3-0.1-0.4-0.2
			C11.7,17.3,11.6,17.2,11.6,17.2z" /><path fill="#EDE8D8" d="M11.4,15.3c0.1,0.6-0.1,1.2-0.5,1.3c-0.4,0.1-0.8-0.4-0.9-1c-0.1-0.6,0.1-1.2,0.5-1.3
			C10.9,14.2,11.3,14.7,11.4,15.3z" /><path fill="#414042" d="M11.5,15.7c0.1,0.3-0.1,0.6-0.3,0.7c-0.2,0-0.4-0.2-0.5-0.5c-0.1-0.3,0.1-0.6,0.3-0.7
			C11.2,15.1,11.4,15.3,11.5,15.7z" /><polygon fill="#27B24B" points="11.1,19.4 10,21.3 11.3,21.4 		" /><polygon fill="#27B24B" points="11.5,19.7 12.2,21.1 13.1,20.3 		" /><path fill="#87298C" d="M9.5,16.9c0,0-0.2-0.8-0.8-1.7c-0.6-0.9-1.3-1-1.3-1s-0.3,1,0.2,1.8C8.1,16.9,9,17,9,17s-0.4,0.3-0.6,1
			c-0.2,0.7,0,2.1,0,2.1s0.4-0.2,0.9-1C9.7,18.3,9.5,16.9,9.5,16.9z" /></g></g><g id="_x33_rd_Grade_Heads" /><g id="_x34_th_Grade_Heads" /><g id="_x35_th_Grade_Heads" /><g id="Extra_Heads" /><g id="Templates" /><g id="Labels" /></svg>