<?xml version="1.0" encoding="utf-8"?>
<!-- Generator: Adobe Illustrator 21.1.0, SVG Export Plug-In . SVG Version: 6.00 Build 0)  -->
<svg version="1.1" xmlns="http://www.w3.org/2000/svg" xmlns:xlink="http://www.w3.org/1999/xlink" x="0px" y="0px"
	 viewBox="0 0 50 50" enable-background="new 0 0 50 50" xml:space="preserve" width="50" height="50" preserveAspectRatio="none">
<g id="Avatar_Silhouettes">
</g>
<g id="_x33_rd_Grade_Heads">
</g>
<g id="_x34_th_Grade_Heads">
	<g>
		<path fill="#B869A1" d="M33.4,19.7l-8.1,17.7l0,0.2c-0.1,0-0.2,0-0.2,0c-0.2,0-0.4,0.1-0.3,0.2l-1.9,0.9c-0.6,1.7-0.5,3.8,0,5.8
			c0.7,0.1,1.5,0.1,2.3,0.1c8.1,0,15.1-5,18.1-12.1C39.2,22.5,33.4,19.7,33.4,19.7z"/>
		<path fill="none" d="M36.9,30.3L36.5,31c1.8,1.9,3.2,3.8,3.6,6.5c0.3-0.3,0.6-0.7,0.8-1.1c-0.5-1.4-1.2-2.9-2-4.2
			C38.4,31.4,37.7,30.8,36.9,30.3z"/>
		<path fill="#7D0053" d="M38.3,29.8l-1.4-1.4l-1.2,2.5c1,1,2.4,3,3,4.2c0.5,1,0.8,1.9,0.9,2.9c0.2-0.2,0.3-0.3,0.5-0.5
			c-0.4-2.7-1.8-4.6-3.6-6.5l0.4-0.7c0.8,0.5,1.5,1.1,2,2c0.8,1.3,1.5,2.8,2,4.2c0.1-0.2,0.2-0.3,0.3-0.5c-0.1-0.4-0.3-0.9-0.5-1.3
			C40.1,32.8,39.2,31.2,38.3,29.8z"/>
		<path fill="none" d="M35,39.3c-0.2-1.1-0.7-2.1-1.4-3c-0.3-0.5-0.7-0.9-1.1-1.3c-0.1-0.1-0.2-0.2-0.3-0.3
			c-0.1,0.2-0.3,0.4-0.4,0.5c0,0.3,0.1,0.7,0.1,1c0.1,0.9,0.1,1.7,0.1,2.6c0,0.4,0,0.9-0.1,1.3c0,0.2-0.1,0.4-0.1,0.7
			c-0.1,0.2-0.1,0.4-0.2,0.6c-0.3,0.8-0.7,1.6-1.3,2.2c0.5-0.7,0.9-1.5,1.1-2.3c0.1-0.2,0.1-0.4,0.1-0.6c0-0.2,0.1-0.4,0.1-0.6
			c0-0.4,0-0.9,0-1.3c0-0.9-0.1-1.7-0.2-2.6c0-0.2,0-0.3-0.1-0.5c-1.1,1.2-2.5,2.2-3.9,2.9c0.4,1.8,1,4.5,1.3,5.6
			c2.3-0.4,4.5-1.2,6.4-2.4C35.1,41,35.1,40.2,35,39.3z"/>
		<path fill="#7D0053" d="M35.4,39.3c-0.2-1.2-0.7-2.3-1.4-3.3c-0.5-0.6-1-1.1-1.5-1.7c-0.1,0.1-0.1,0.1-0.2,0.2
			c0,0.1-0.1,0.1-0.2,0.2c0.1,0.1,0.2,0.2,0.3,0.3c0.4,0.4,0.8,0.8,1.1,1.3c0.7,0.9,1.2,1.9,1.4,3c0.1,0.8,0.1,1.7,0,2.5
			c0.1-0.1,0.3-0.2,0.4-0.2C35.5,40.8,35.5,40.1,35.4,39.3z"/>
		<path fill="#7D0053" d="M31.3,36.3c0.1,0.9,0.2,1.7,0.2,2.6c0,0.4,0,0.9,0,1.3c0,0.2,0,0.4-0.1,0.6c0,0.2-0.1,0.4-0.1,0.6
			c-0.2,0.8-0.6,1.6-1.1,2.3c0.6-0.6,1-1.4,1.3-2.2c0.1-0.2,0.1-0.4,0.2-0.6c0.1-0.2,0.1-0.4,0.1-0.7c0.1-0.4,0.1-0.9,0.1-1.3
			c0-0.9,0-1.7-0.1-2.6c0-0.3-0.1-0.7-0.1-1c-0.1,0.2-0.3,0.4-0.4,0.5C31.3,36,31.3,36.1,31.3,36.3z"/>
		<path fill="#B7A5CB" d="M31.2,35.8c0.2-0.2,0.3-0.4,0.4-0.5c0.1-0.2,0.3-0.3,0.4-0.5c0-0.1,0.1-0.1,0.2-0.2
			c0.1-0.1,0.1-0.1,0.2-0.2c1.1-1.6,1.8-3.5,1.8-5.6c0-1.2-0.2-2.4-0.7-3.5c-2-5.1-7.9-7.6-13-5.9c-4.6,1.6-7.4,6.2-7.6,10.9
			c-0.2,4.7,0,7.8,3.9,9.8c1.2,0.6,4.8,0.7,8.4-0.5c0.3,1.9,0.4,3.4,0.3,5.1c1,0,2-0.1,3-0.3c-0.3-1.1-0.9-3.8-1.3-5.6
			C28.7,38,30.1,37,31.2,35.8z"/>
		<g>
			<path fill="#B7A5CB" d="M1.7,26.1c0.1-0.7,5.6-2.2,9.7,0.5c4.1,2.8,5.7,8.5,5.7,8.5s-2.8-0.6-7.6-2.4C6.3,31.4,1.7,26.8,1.7,26.1
				"/>
			<path fill="#F6B4D1" d="M10.1,27.8c-3.2-1.5-7.4-1.4-7.4-1.4c-0.1,0.7,4.3,4.7,7.4,5.8c2.8,1.1,4.8,1.7,6,2
				C15.5,32.6,14,29.6,10.1,27.8"/>
		</g>
		<path fill="#B869A1" d="M13.3,16.9c2-9.2,8.3-4.9,9.5-3.2c0.7,1,3.4,5.1,5.3,4.3c2.3-1,1-3.4,1-3.4s5.3,0,4.8,3.8
			c-0.1,0.5-0.3,1-0.6,1.4c2.7,1.7,3.1,4.6,3.1,5c0.2,3-2.5,8-3.3,8.2c0,0,0,0-0.1,0c-0.2-0.3-0.3-0.2-0.5-0.6
			c0.1,0.4,0.3,2-1.8,2.5c0,0-0.7,0.2-1.3-0.2c-0.7-0.5-0.6-1.7-0.6-1.7c0-2.3,1.5-0.5,1.5-0.5c-1.1-0.3-0.6,0.6-0.6,0.6
			c0.2,0.2,0.4,0.3,0.7,0.2c0.1,0,0.1,0,0.2-0.1c0.3-0.2,1.3-1.2,0.5-3.4c-0.8-1.6-0.8-3.1-0.6-4.4l0,0c0,0-0.1-4.7-7.4-2.5l0,0
			c-1.7,0.8-3.3,1.6-3.3,1.6s-3.8-1.3-4.9-1c-0.2,0.4-0.5,0.7-0.7,1.1C14.2,24.3,12.6,20.5,13.3,16.9z"/>
		<path fill="#7D0053" d="M25.4,18.8c0,0-0.4,0.1-1.1,0.4c-1.7,0.9-3.3,2.6-3.5,4.5c0,0.2,0,0.3,0,0.3s0-0.1,0.1-0.3
			c0.7-1.9,2-3.2,3.6-4.4C25,19,25.4,18.8,25.4,18.8"/>
		<path fill="#7D0053" d="M23.2,16.7c0,0-0.1,0-0.3,0.1c-0.2,0.1-0.5,0.3-0.8,0.5c-0.2,0.1-0.3,0.3-0.5,0.4c-1.5,1.6-2.1,4-1.6,6.2
			c0,0,0-0.5,0.1-1.3c0.2-1.7,0.7-3.4,1.7-4.7c0.1-0.2,0.3-0.3,0.4-0.5c0.3-0.3,0.5-0.5,0.7-0.6C23.1,16.8,23.2,16.7,23.2,16.7"/>
		<path fill="#7D0053" d="M20,12.4c0,0-0.2,0.1-0.5,0.2c-0.3,0.1-0.8,0.4-1.3,0.7c-0.5,0.4-1,0.9-1.5,1.5c-0.5,0.6-0.8,1.4-1,2.3
			c-0.5,2-0.1,4.1,0.4,6c0.1,0.3,0.2,0.5,0.2,0.5s0-0.2-0.1-0.6c-0.3-1.9-0.5-4-0.1-5.9c0.2-0.8,0.5-1.5,0.9-2.2
			c0.4-0.6,0.9-1.1,1.4-1.5c0.5-0.4,0.9-0.7,1.2-0.9C19.9,12.5,20,12.4,20,12.4"/>
		<path fill="#7D0053" d="M35.9,22.7c-1.5-0.6-3.5,0.4-4.2,1.8c-0.4,0.9-0.7,1.8-0.8,2.8L30.9,28l0.4-0.5c0.9-1.1,2-1.8,3.4-2.2
			c0.2-0.1,0.4-0.1,0.7-0.1c0.1,0,0.2,0,0.3,0c0.1,0,0.2,0,0.3,0.1c-0.1-0.1-0.2-0.1-0.3-0.1c-0.1,0-0.2,0-0.4-0.1
			c-1.4-0.1-2.8,0.7-3.8,1.6c-0.2,0.2-0.3,0.3-0.5,0.5l0.3,0.1c0-0.3,0.1-0.6,0.2-0.9c0.1-0.3,0.1-0.6,0.2-0.9
			c0.3-1,0.7-1.8,1.7-2.3c0.5-0.2,1-0.5,1.6-0.5c0.2,0,0.3,0,0.5,0C35.6,22.7,35.8,22.7,35.9,22.7"/>
		<path fill="#48C7F4" d="M28.7,17.5c0,0,2,0.3,3.9,3.3c1.9,3.1,1.3,9.8,1.3,9.8l-0.7,0.6c0,0,0-6.3-2-9.2s-4.4-4.3-4.4-4.3
			L28.7,17.5z"/>
		<g>
			<path fill="#B7A5CB" d="M47.5,24.4c-0.1-0.8-5-1.9-10.1,1.3c-4.3,2.7-5.5,8.7-5.5,8.7s3-0.7,7.9-2.8
				C43.1,30.2,47.6,25.2,47.5,24.4"/>
			<path fill="#F6B4D1" d="M38.7,27.2c3-1.7,6.3-2.3,7.9-2.5c0.1,0-2.8,4.2-6.9,6.2c-3,1.5-5.1,2.1-6.3,2.5
				C33.7,31.9,35.1,29.2,38.7,27.2"/>
		</g>
		<path fill="#614299" d="M22.8,35.9c-0.1,0.2,0.1,0.4,0.3,0.5c0.2,0.1,0.4-0.1,0.5-0.3c0.1-0.2-0.1-0.4-0.3-0.5
			C23.1,35.6,22.9,35.7,22.8,35.9"/>
		<g>
			<path fill="#614299" d="M23.2,36c0,0-0.7,0.3-1.5,0.5c-1.6,0.3-3.4-0.5-3.4-0.5s1.2,1.3,3.3,1C23.1,36.7,23.2,36,23.2,36z"/>
			<path fill="#614299" d="M14.8,35.7c0,0.1,0,0.2-0.1,0.3c-0.1,0-0.2,0-0.3-0.2c0-0.1,0-0.2,0.1-0.3C14.6,35.5,14.7,35.6,14.8,35.7
				"/>
			<path fill="#614299" d="M16.5,36.2c0,0.1,0,0.2-0.1,0.3c-0.1,0-0.2,0-0.3-0.1c0-0.1,0-0.2,0.1-0.3S16.4,36.1,16.5,36.2"/>
			<path fill="#614299" d="M15.4,37.1c0,0.1,0,0.2-0.1,0.3c-0.1,0-0.2,0-0.3-0.1c0-0.1,0-0.2,0.2-0.3C15.2,36.9,15.4,37,15.4,37.1"
				/>
			<path fill="#614299" d="M26.7,34.7c0,0.1,0.1,0.2,0.2,0.2c0.1,0,0.2-0.1,0.2-0.2c0-0.1-0.1-0.2-0.2-0.2
				C26.8,34.5,26.7,34.6,26.7,34.7"/>
			<path fill="#614299" d="M25.2,35.6c0,0.1,0.1,0.2,0.2,0.2c0.1,0,0.2-0.1,0.2-0.2c0-0.1-0.1-0.2-0.2-0.2
				C25.3,35.4,25.2,35.5,25.2,35.6"/>
			<path fill="#614299" d="M26.5,36.2c0,0.1,0.1,0.2,0.2,0.2c0.1,0,0.2-0.1,0.2-0.2c0-0.1-0.1-0.2-0.2-0.2
				C26.6,35.9,26.5,36,26.5,36.2"/>
			<g>
				<path fill="#400025" d="M29.8,27.4c0,0-0.1,0.2-0.3,0.4C28.9,28.5,28,29,27,29c0,0.2,0,0.4,0,0.5c0,0,0.8-0.2,0.9-0.3
					c0.7-0.3,1.3-0.8,1.7-1.4C29.8,27.6,29.8,27.4,29.8,27.4"/>
				<path fill="#400025" d="M29.2,25.5c0,0,0,0.2-0.2,0.6c-0.1,0.3-0.4,0.7-0.7,1.1c-0.2,0.2-0.3,0.3-0.5,0.5
					c-0.2,0.1-0.3,0.3-0.5,0.4c-0.1,0.1-0.3,0.2-0.3,0.2c-0.1,0-0.1,0.1-0.1,0.1l0.3,0.5c0,0,0.1,0,0.1-0.1c0.1-0.1,0.2-0.2,0.3-0.3
					c0.1-0.1,0.3-0.3,0.4-0.4c0.2-0.2,0.3-0.4,0.4-0.6c0.3-0.4,0.5-0.9,0.6-1.2C29.2,25.8,29.2,25.5,29.2,25.5"/>
				<path fill="#400025" d="M28.1,24.4c0,0,0,0.2,0,0.6c-0.1,0.9-0.6,1.6-1.2,2.2c-0.1,0.1-0.2,0.2-0.3,0.3
					c-0.1,0.1-0.1,0.1-0.1,0.1l0.4,0.4c0,0,0-0.1,0.1-0.1c0.1-0.1,0.2-0.2,0.3-0.4c0.5-0.7,0.9-1.6,0.9-2.5
					C28.2,24.7,28.1,24.4,28.1,24.4"/>
				<path fill="#FFFFFF" d="M20.9,32c0,0,1.6,2.6,4.5,2c2.6-0.5,3-5.1,3-5.1s-3-3-4.7-2.7C20.2,27.2,20.9,32,20.9,32"/>
				<path fill="#0091A1" d="M22.8,30.4c-0.2,1.5,0.7,2.8,1.9,2.9c1.2,0.1,2.4-0.9,2.5-2.4c0.2-1.5-0.7-2.8-1.9-2.9
					C24.1,27.9,23,29,22.8,30.4"/>
				<path fill="#400025" d="M23.7,30.5c-0.1,0.9,0.4,1.7,1.2,1.8c0.7,0.1,1.4-0.6,1.5-1.5c0.1-0.9-0.4-1.7-1.2-1.8
					C24.4,29,23.8,29.6,23.7,30.5"/>
				<path fill="#614299" d="M28.3,29c0,0-0.1-0.2-0.3-0.4c-0.2-0.3-0.5-0.7-1-1.1c-0.2-0.2-0.5-0.4-0.7-0.6c-0.3-0.2-0.6-0.4-1-0.6
					c-0.4-0.2-0.8-0.3-1.2-0.3c-0.8,0-1.7,0.4-2.3,1c-0.3,0.3-0.5,0.6-0.7,1c-0.3,0.7-0.5,1.4-0.5,2c0,0.6,0,1.1,0,1.4
					c0,0.3,0.1,0.5,0.1,0.5s0-4.5,3.5-4.9C26.1,27,28.3,29,28.3,29"/>
				<path fill="#400025" d="M10.5,27.6c0,0,0.1,0.2,0.2,0.5c0.3,0.5,0.7,0.9,1.1,1.2c0.4,0.3,0.9,0.5,1.3,0.6l0.1-0.5
					c0,0-0.2,0-0.5-0.1c-0.8-0.2-1.4-0.6-1.9-1.2C10.6,27.8,10.5,27.6,10.5,27.6"/>
				<path fill="#400025" d="M11.2,25.8c0,0,0,0.2,0.1,0.6c0.1,0.4,0.2,0.8,0.5,1.2c0.3,0.5,0.7,1,1.2,1.4c0.1,0.1,0.1,0.1,0.1,0.1
					l0.3-0.4c0,0,0,0-0.1-0.1c-0.8-0.5-1.5-1.3-1.9-2.2C11.2,26,11.2,25.8,11.2,25.8"/>
				<path fill="#400025" d="M12.5,25c0,0-0.1,0.2-0.1,0.6c0,1.1,0.4,2.1,1,2.9c0.1,0.1,0.1,0.1,0.1,0.1l0.4-0.3c0,0,0,0-0.1-0.1
					c-0.7-0.7-1.2-1.6-1.3-2.6C12.4,25.2,12.5,25,12.5,25"/>
				<path fill="#FFFFFF" d="M12.9,29.3c0.9-1.3,2.9-2.3,4-2c3.2,0.9,2.4,5.5,2.4,5.5s-2.2,2.1-4.3,1.5c-1-0.3-1.8-0.9-2-1.8
					C12.6,31.6,12.5,30.4,12.9,29.3"/>
				<path fill="#0091A1" d="M18,30.9c0.1,1.4-0.8,2.6-1.9,2.7c-1.2,0.1-2.2-1-2.3-2.4c-0.1-1.4,0.8-2.6,1.9-2.7
					C16.9,28.5,17.9,29.5,18,30.9"/>
				<path fill="#400025" d="M17.2,31c0.1,0.8-0.5,1.6-1.2,1.6c-0.7,0-1.3-0.6-1.4-1.4c-0.1-0.8,0.5-1.6,1.2-1.6
					C16.5,29.5,17.1,30.1,17.2,31"/>
				<path fill="#614299" d="M12.9,29.3c0,0,0.1-0.2,0.3-0.3c5.6-3.6,6,3.8,6,3.8s0.1-0.2,0.1-0.5c0.1-0.3,0.1-0.7,0.1-1.3
					c0-0.5-0.1-1.2-0.3-1.8c-0.1-0.3-0.3-0.7-0.5-1c-0.2-0.3-0.5-0.6-0.8-0.8c-1-0.6-2.1-0.6-3.1-0.1c-0.3,0.2-0.5,0.3-0.7,0.5
					c-0.4,0.4-0.7,0.7-0.9,0.9C13,29.1,12.9,29.3,12.9,29.3"/>
				<path fill="#FFFFFF" d="M25.2,31.8c0,0.4,0.1,0.7,0.4,0.7c0.3,0,0.6-0.2,0.6-0.6c0-0.4-0.1-0.7-0.4-0.7
					C25.5,31.2,25.3,31.4,25.2,31.8"/>
				<path fill="#FFFFFF" d="M14.4,29.5c-0.2,0.5-0.2,1.2,0.2,1.3c0.4,0.1,1.1-0.4,1.2-0.9c0.2-0.5,0.3-1.1-0.1-1.3
					C15.3,28.5,14.6,28.9,14.4,29.5"/>
				<path fill="#FFFFFF" d="M16.2,32.2c0,0.4,0.1,0.7,0.4,0.7c0.3,0,0.6-0.2,0.6-0.6c0-0.4-0.1-0.7-0.4-0.7
					C16.5,31.6,16.2,31.9,16.2,32.2"/>
				<path fill="#FFFFFF" d="M23.3,29.1c-0.2,0.5-0.2,1.2,0.2,1.3c0.4,0.1,1.1-0.4,1.2-0.9c0.2-0.5,0.3-1.1-0.1-1.3
					C24.2,28.2,23.5,28.6,23.3,29.1"/>
			</g>
			<path fill="#400025" d="M26.3,25c0-0.2-1.2-1.2-2.4-1.1c-1.2,0.1-1.6,0.8-1.5,0.9c0.1,0.1,0.6-0.2,1.5-0.3
				C25.2,24.4,26.2,25.2,26.3,25"/>
			<path fill="#400025" d="M14.4,26.4c0-0.2,1.2-1.2,2.4-1c1.2,0.1,1.6,0.8,1.5,1c-0.1,0.1-0.6-0.3-1.5-0.3
				C15.4,25.9,14.4,26.6,14.4,26.4"/>
		</g>
	</g>
</g>
<g id="_x35_th_Grade_Heads">
</g>
<g id="Extra_Heads">
</g>
<g id="Templates">
</g>
<g id="Labels">
</g>
</svg>
