<svg version="1.1" xmlns="http://www.w3.org/2000/svg" xmlns:xlink="http://www.w3.org/1999/xlink" x="0px" y="0px" viewBox="0 0 50 50" enable-background="new 0 0 50 50" xml:space="preserve" width="50" height="50" preserveAspectRatio="none"><g id="Avatar_Silhouettes" /><g id="_x32_nd_Grade_Heads" /><g id="_x33_rd_Grade_Heads" /><g id="_x34_th_Grade_Heads" /><g id="_x35_th_Grade_Heads" /><g id="Extra_Heads" /><g id="Templates" /><g id="Labels"><g><defs><circle id="SVGID_00000078034558750368582750000006967706569127908793_" cx="24.6" cy="25.6" r="19.6" /></defs><clipPath id="SVGID_00000096039555784767626550000015425229076919953539_"><use xlink:href="#SVGID_00000078034558750368582750000006967706569127908793_" overflow="visible" /></clipPath><g clip-path="url(#SVGID_00000096039555784767626550000015425229076919953539_)"><path fill="#0067AB" d="M12.3,20.3c0,0-1.5,1.5-0.7,2.6c0.5,0.7,1,0.3,1,0.3s-0.2,1,0.8,1.9c1,0.9,2.3-0.8,2.3-0.8s0.3-3,0.2-3.2
				c0-0.2-1-1.9-1-1.9l-0.9-0.3L12.3,20.3z" /><g><path fill="#72B1C5" d="M38.9,22.4c0.1-0.1,3.2-1.7,2.6,0.3c0,0,4.5-0.7,2.7,1.5c0,0,1.4,0.7,1.6,1.4c0.3,1-0.4,1.4-1.9,0.7
					c0,0,1,1.1,0.6,1.8c-0.2,0.4-1.3,0.2-1.9-0.2c0,0,0.9,1.4-1,1.3c-2-0.1-3.7,0.4-3.6,0.3s-0.8-5.5-0.7-5.6
					C37.5,23.8,38.9,22.4,38.9,22.4z" /><path fill="#FFC640" d="M43.1,30.6c-0.1-0.2-0.2-0.5-0.3-0.7c-0.1,0-0.1,0.1-0.1,0.1s-1.7-3.3-3.2-5c-6-6.7-16.4-9.3-22.8-6.8
					c-6.4,2.5-1.6,8.9-1.6,8.9S3.6,24.7,3.2,45.3c14.3,0,29.3,0,43.6,0C45.6,38.9,44.3,33.3,43.1,30.6z" /><path fill="#FFEC81" d="M33,27.9c0,0-1.9,2.3-4.4,1.7c-2.5-0.6-2.7-1.2-3.8-2.1c-0.2-0.2-2.8-0.5-2.8-0.5l-1.9-0.3
					c0,0-0.1,4.2-3,5.5c-2.8,1.3-5-0.7-5-0.7s-1.8,7.5-2.3,16.1h27.7C34.8,37.6,33,27.9,33,27.9z" /></g></g></g><g><path fill="#0067AB" d="M39.6,22.4c0.6,0,1.3,0,1.8,0.4c0.5,0.7-0.2,1.3-1,1.1c0,0,0.1-0.2,0.1-0.2c1.4,1.1,0.4,2.1-0.9,0.9
			c0,0,0.1-0.1,0.1-0.1c0.1,0.4,0.2,0.9,0.1,1.4c0.1-0.5-0.1-0.9-0.2-1.3l-0.1-0.2c0.2,0.2,0.5,0.4,0.8,0.5c0.5,0.3,0.9,0,0.5-0.5
			c-0.2-0.3-0.5-0.5-0.8-0.8c0.4,0.1,0.9,0.2,1.2,0c0.2-0.2,0.2-0.5,0-0.7C40.8,22.5,40.1,22.5,39.6,22.4L39.6,22.4z" /></g><path fill="#FFD943" d="M41.8,10.4L26.6,3.1L8.5,10.6L1.9,24.4l5.6,17.8l17.9,4.9l18.3-8.3L48.1,24L41.8,10.4z M24.7,43.6
		c-9.9,0-17.9-8-17.9-17.9s8-17.9,17.9-17.9s17.9,8,17.9,17.9C42.5,35.5,34.5,43.6,24.7,43.6z" /><g><path fill="#FFC640" d="M7.3,10.8c1.2,1.2,1.7,2.6,1.1,3.2c-0.6,0.6-2,0.1-3.2-1C4,11.8,3.5,10.4,4.1,9.8
			C4.7,9.2,6.1,9.6,7.3,10.8z" /><path fill="#FFC640" d="M15.2,19.5c0,0-2-4.8-5.4-7.5c-3.4-2.7-5-2.5-5-2.5L8,14.1c0,0,0.6-0.5,1.4-0.2c3.3,1.1,5,6,5,6L15.2,19.5
			z" /><path fill="#F4833C" d="M7.1,11.2c0.8,0.8,1,2.2,0.7,2.5c-0.3,0.3-1.2-0.1-2-0.8c-0.8-0.8-1.4-2-1.1-2.3C5,10.2,6,10,7.1,11.2z" /></g><path fill="#04527B" d="M38.1,21.3c0,0,0.5-0.1,0.6,0.3c0,0,0.5,0,0.6,0.6c0.2,0.6,0,3.3-0.4,2.6c-0.1-0.1-1-1.6-1-1.6L38.1,21.3z" /><path fill="#72B1C5" d="M18.4,17.4c0,0-0.4,2.8-0.9,2.4s-0.8-1.2-0.8-1.2s-1.5,3.3-2.3,3s-0.4-1.8-0.4-1.8s-1.7,1.7-2.2,0.9
		c-0.3-0.5-0.1-1.7,0.7-2.3c0.7-0.5,1.6-0.7,1.6-0.7s-0.9-0.5,0-1.3c0.9-0.8,4.8-0.8,4.8-0.8L18.4,17.4z" /><g><path fill="#0067AB" d="M16.3,15.9c0.6,0.9,1.2,1.5,2.1,2.1C17.3,18,16.3,17,16.3,15.9L16.3,15.9z" /></g><path fill="#72B1C5" d="M36.1,22.2c0,0,0.8,1.4,2.1,1.8c0.5,0.2,0.6-0.9-0.1-2.4c-0.7-1.5-2.3-2.8-2.3-2.8s1.3-1.8-1.2-2.8
		c-2.1-0.8-3.4-0.7-3.4-0.7s-2.1-3.7-5.8-3c-1.3,0.2-0.9,1.2-0.9,1.2s-5.7-2-8.5,0.2c-1.5,1.2,2.5,5.3,4.9,5.1
		c0.7,0-0.2-1.7-0.2-1.7s0.9,1.1,3.8,1.2c2.1,0.1,2.1-0.8,2.1-0.8s1.7,2.7,3.8,2.8c1.3,0.1,1.3-0.6,1.3-0.6S34.4,24.6,36.1,22.2z" /><g><path fill="#0067AB" d="M33.2,17.4c0.9,0.3,1.9,0.9,2.1,2c0.1,0.6-0.2,0.9-0.8,0.8c-0.2-0.1-0.4-0.1-0.6-0.2l0.2-0.2
			c0.4,0.5,0.5,1.2,0.4,1.7c0-0.8-0.4-1.4-0.9-2c0.5,0.2,1.7,0.9,1.5-0.1C34.9,18.4,34,17.8,33.2,17.4L33.2,17.4z" /></g><g><path fill="#72B1C5" d="M25.2,27.6c0,0-1.5-1.2-3.1-1.5c-1.6-0.3-2.1,0.3-2.1,0.3s-0.8,1.4-0.5,2.4c0.4,1.1,1.5,2.5,2,2.5
			c0.5,0,1.4-0.9,1.4-0.9s0.6,1,0.9,1.1c0.3,0.1,1-0.6,1.4-1.8C25.7,28.7,25.2,27.6,25.2,27.6z" /><path fill="#0067AB" d="M23.1,27c0,0,0.1,0.1,0.1,0.2c0.1,0.1,0.2,0.3,0.2,0.6c0.3,0.9,0.3,2-0.3,2.8c-0.3,0.4-0.8,0.7-1.3,0.8
			c-0.1,0-0.1,0-0.2,0c0,0-0.1,0-0.1,0s0.1,0,0.2-0.1c0.7-0.4,1.2-1,1.4-1.8c0.1-0.7,0.1-1.5-0.1-2.2C23.1,27.1,23.1,27,23.1,27z" /><path fill="#0067AB" d="M23.3,27c0,0.1,0,0.2-0.1,0.3c-0.1,0-0.2,0-0.3-0.1c0-0.1,0-0.2,0.1-0.3C23.1,26.8,23.2,26.9,23.3,27z" /></g><g><path fill="#0067AB" d="M25.8,15.9c0.8,0.2,1.5,1.3,0.9,2C26.9,17.1,26.3,16.4,25.8,15.9L25.8,15.9z" /></g><g><path fill="#0067AB" d="M31.8,20.1c0-1.3-0.9-2.1-2.1-2.4c0,0,0.5,0,0.5,0C31.3,17.8,32.2,18.9,31.8,20.1L31.8,20.1z" /></g><g><path fill="#0067AB" d="M13.8,20.2c-0.1-0.8,0.3-1.7,1.1-2C14.4,18.8,14.2,19.4,13.8,20.2L13.8,20.2z" /></g><g><path fill="#0067AB" d="M24.5,13.7c0.5,0.7,1.1,1.2,2,1.2C25.7,15.3,24.6,14.6,24.5,13.7L24.5,13.7z" /></g><g><path fill="#FFC640" d="M16.8,3.1c0.8,1.6,0.7,3.2-0.1,3.6c-0.8,0.4-2.1-0.6-2.9-2.2c-0.8-1.6-0.7-3.2,0.1-3.6
			C14.8,0.5,16,1.5,16.8,3.1z" /><g><path fill="#FFC640" d="M21.6,14.8c0,0-0.2-5.4-2.6-9.5c-2.4-4-4.2-4.4-4.2-4.4l1.6,5.9c0,0,0.8-0.3,1.5,0.3
				c3,2.3,2.9,8.2,2.9,8.2L21.6,14.8z" /><path fill="#F4833C" d="M16.5,3.5c0.5,1.1,0.2,2.6-0.2,2.8c-0.4,0.2-1.2-0.5-1.8-1.6c-0.5-1.1-0.7-2.6-0.3-2.8
				C14.7,1.7,15.9,1.9,16.5,3.5z" /></g></g><ellipse transform="matrix(0.3164 -0.9486 0.9486 0.3164 -0.2866 30.6314)" fill="#72B1C5" cx="21.1" cy="15.5" rx="0.8" ry="2.3" /><g><path fill="#0067AB" d="M22.6,15.2c-1.1-0.4-5.4-1.4-2.4,0.5c-0.9-0.1-1.7-0.3-2.6-0.1c0.7-0.2,1.4-0.2,2.2-0.2
			c0,0-0.1,0.2-0.1,0.2c-0.3-0.2-0.6-0.4-0.7-0.7C18.7,13.4,22,14.8,22.6,15.2L22.6,15.2z" /></g><path fill="#400025" d="M14.8,17.1c0,0-0.1,0.3-0.1,0.8c0,0.2,0,0.5,0,0.9c0.1,0.9,0.5,1.8,1.1,2.5c0.1,0.2,0.3,0.3,0.4,0.5
		c0,0.1,0.1,0.1,0.1,0.1c0,0,0,0,0,0L16,22.2c0,0,0,0,0,0c0,0-0.1-0.1-0.1-0.1c-0.1-0.1-0.2-0.3-0.4-0.5c-0.5-0.8-0.9-1.7-0.9-2.7
		c0-0.3,0-0.6,0.1-0.9C14.7,17.5,14.8,17.1,14.8,17.1z" /><path fill="#400025" d="M16.4,16.1c0,0-0.1,0.3-0.3,0.8c-0.1,0.2-0.1,0.5-0.2,0.8c-0.1,0.9,0.2,1.8,0.6,2.7
		c0.1,0.2,0.2,0.4,0.3,0.5c0,0.1,0.1,0.1,0.1,0.1c0,0,0,0,0,0l-0.3,0.2c0,0,0,0,0-0.1c0,0-0.1-0.1-0.1-0.2c-0.1-0.1-0.2-0.3-0.3-0.6
		c-0.4-0.9-0.6-1.9-0.4-2.8c0.1-0.3,0.1-0.6,0.2-0.8C16.2,16.4,16.4,16.1,16.4,16.1z" /><path fill="#400025" d="M17.7,16.6c0,0-0.1,0.3-0.3,0.8c-0.1,0.2-0.1,0.5-0.2,0.8c-0.1,0.9,0.2,1.8,0.6,2.7
		c0.1,0.2,0.2,0.4,0.3,0.5c0,0.1,0.1,0.1,0.1,0.1c0,0,0,0,0,0L18,21.8c0,0,0,0,0-0.1c0,0-0.1-0.1-0.1-0.2c-0.1-0.1-0.2-0.3-0.3-0.6
		c-0.1-0.2-0.2-0.5-0.3-0.8c-0.2-0.7-0.3-1.3-0.1-2c0.1-0.3,0.1-0.6,0.2-0.8C17.5,16.9,17.7,16.6,17.7,16.6z" /><path fill="#FFFFFF" d="M19.7,22.6c0.4,1.4-0.2,2.8-1.4,3.2c-1.2,0.3-2.4-0.6-2.8-2c-0.4-1.4,0.2-2.8,1.4-3.2S19.3,21.2,19.7,22.6z
		" /><path fill="#400025" d="M19.1,23.7c0.2,0.6-0.1,1.3-0.6,1.4c-0.5,0.1-1-0.3-1.2-0.9c-0.2-0.6,0.1-1.3,0.6-1.4
		C18.4,22.6,19,23,19.1,23.7z" /><ellipse transform="matrix(0.9371 -0.349 0.349 0.9371 -7.4705 7.3447)" fill="none" stroke="#231F20" stroke-width="0.3488" stroke-miterlimit="10" cx="16.6" cy="24.4" rx="3.5" ry="4.2" /><line fill="none" stroke="#231F20" stroke-width="0.277" stroke-miterlimit="10" x1="20.7" y1="24.1" x2="20.3" y2="24.2" /><path fill="#231F20" d="M13.1,25.3c0.1,0.2-0.1,0.4-0.3,0.5c-0.2,0.1-0.4-0.1-0.5-0.3c-0.1-0.2,0.1-0.4,0.3-0.5
		C12.9,25,13.1,25.1,13.1,25.3z" /><path fill="#400025" d="M22,15.7c0,0-0.1,0.3-0.1,0.8c0,0.2,0,0.5,0,0.9c0.1,0.9,0.5,1.8,1.1,2.5c0.1,0.2,0.3,0.3,0.4,0.5
		c0,0.1,0.1,0.1,0.1,0.1c0,0,0,0,0,0l-0.3,0.3c0,0,0,0,0,0c0,0-0.1-0.1-0.1-0.1c-0.1-0.1-0.2-0.3-0.4-0.5c-0.5-0.8-0.9-1.7-0.9-2.7
		c0-0.3,0-0.6,0.1-0.9C21.9,16.1,22,15.7,22,15.7z" /><path fill="#400025" d="M23.6,14.7c0,0-0.1,0.3-0.3,0.8c-0.1,0.2-0.1,0.5-0.2,0.8c-0.1,0.9,0.2,1.8,0.6,2.7
		c0.1,0.2,0.2,0.4,0.3,0.5c0,0.1,0.1,0.1,0.1,0.1c0,0,0,0,0,0l-0.3,0.2c0,0,0,0,0-0.1c0,0-0.1-0.1-0.1-0.2c-0.1-0.1-0.2-0.3-0.3-0.6
		c-0.4-0.9-0.6-1.9-0.4-2.8c0.1-0.3,0.1-0.6,0.2-0.8C23.4,15,23.6,14.7,23.6,14.7z" /><path fill="#400025" d="M24.9,15.2c0,0-0.1,0.3-0.3,0.8c-0.3,1.2-0.1,2.4,0.4,3.5c0.1,0.2,0.2,0.4,0.3,0.5c0,0.1,0.1,0.1,0.1,0.1
		c0,0,0,0,0,0l-0.3,0.2c0,0,0,0,0-0.1c0,0-0.1-0.1-0.1-0.2c-0.1-0.1-0.2-0.3-0.3-0.6c-0.4-0.9-0.6-1.9-0.4-2.8
		c0.1-0.3,0.1-0.6,0.2-0.8C24.7,15.5,24.9,15.2,24.9,15.2z" /><path fill="#FFFFFF" d="M26.5,21c0.4,1.4-0.2,2.8-1.4,3.2c-1.2,0.3-2.4-0.6-2.8-2c-0.4-1.4,0.2-2.8,1.4-3.2
		C24.9,18.7,26.1,19.6,26.5,21z" /><path fill="#400025" d="M25.7,22.2c0.2,0.6-0.1,1.3-0.6,1.4c-0.5,0.1-1-0.3-1.2-0.9c-0.2-0.6,0.1-1.3,0.6-1.4
		C25,21.1,25.5,21.5,25.7,22.2z" /><path fill="#231F20" d="M28.5,21.3c0.1,0.2-0.1,0.4-0.3,0.5c-0.2,0.1-0.4-0.1-0.5-0.3c-0.1-0.2,0.1-0.4,0.3-0.5
		C28.2,21,28.4,21.1,28.5,21.3z" /><ellipse transform="matrix(0.9895 -0.1448 0.1448 0.9895 -3.0036 3.7327)" fill="none" stroke="#231F20" stroke-width="0.3564" stroke-miterlimit="10" cx="24.1" cy="22.5" rx="3.7" ry="4.2" /><g><path fill="#72B1C5" d="M25.2,27.6c0,0-1.5-1.2-3.1-1.5c-1.6-0.3-2.1,0.3-2.1,0.3s-0.8,1.4-0.5,2.4c0.4,1.1,1.5,2.5,2,2.5
			c0.5,0,1.4-0.9,1.4-0.9s0.6,1,0.9,1.1c0.3,0.1,1-0.6,1.4-1.8C25.7,28.7,25.2,27.6,25.2,27.6z" /><path fill="#0067AB" d="M23.1,27c0,0,0.1,0.1,0.1,0.2c0.1,0.1,0.2,0.3,0.2,0.6c0.3,0.9,0.3,2-0.3,2.8c-0.3,0.4-0.8,0.7-1.3,0.8
			c-0.1,0-0.1,0-0.2,0c0,0-0.1,0-0.1,0s0.1,0,0.2-0.1c0.7-0.4,1.2-1,1.4-1.8c0.1-0.7,0.1-1.5-0.1-2.2C23.1,27.1,23.1,27,23.1,27z" /><path fill="#0067AB" d="M23.3,27c0,0.1,0,0.2-0.1,0.3c-0.1,0-0.2,0-0.3-0.1c0-0.1,0-0.2,0.1-0.3C23.1,26.8,23.2,26.9,23.3,27z" /></g></g></svg>