<?xml version="1.0" encoding="utf-8"?>
<!-- Generator: Adobe Illustrator 22.0.1, SVG Export Plug-In . SVG Version: 6.00 Build 0)  -->
<!DOCTYPE svg PUBLIC "-//W3C//DTD SVG 1.1//EN" "http://www.w3.org/Graphics/SVG/1.1/DTD/svg11.dtd">
<svg version="1.1" xmlns="http://www.w3.org/2000/svg" xmlns:xlink="http://www.w3.org/1999/xlink" x="0px" y="0px"
	 viewBox="0 0 50 50" enable-background="new 0 0 50 50" xml:space="preserve" width="50" height="50" preserveAspectRatio="none">
<g id="Avatar_Silhouettes">
</g>
<g id="_x33_rd_Grade_Heads">
</g>
<g id="_x34_th_Grade_Heads">
</g>
<g id="_x35_th_Grade_Heads">
</g>
<g id="Extra_Heads">
</g>
<g id="Templates">
</g>
<g id="Labels">
</g>
<g id="Layer_8">
	<g>
		<defs>
			<path id="SVGID_65_" d="M25.5,42.9c-0.2,0-0.3,0-0.5,0c-0.7,0-1.4-0.1-2.1-0.1c-0.4-0.1-0.9-0.1-1.3-0.2C13.4,41,7.1,33.7,7.1,25
				c0-9.9,8-17.9,17.9-17.9s17.9,8,17.9,17.9c0,2.4-0.5,4.8-1.4,6.9c-0.5,1.1-1,2.1-1.7,3.1c-0.1,0.2-0.2,0.3-0.3,0.5
				c-0.2,0.3-0.5,0.7-0.7,1c-0.1,0.2-0.3,0.3-0.4,0.5c-1.1,1.2-2.3,2.3-3.7,3.2c-0.1,0-0.1,0.1-0.2,0.1c-0.1,0.1-0.2,0.1-0.3,0.2
				c-1.8,1.1-3.7,1.8-5.8,2.2c-0.8,0.1-1.6,0.2-2.4,0.3C25.8,42.9,25.7,42.9,25.5,42.9C25.5,42.9,25.5,42.9,25.5,42.9z"/>
		</defs>
		<clipPath id="SVGID_2_">
			<use xlink:href="#SVGID_65_"  overflow="visible"/>
		</clipPath>
		<g clip-path="url(#SVGID_2_)">
			<g opacity="0.2">
				<g>
					<path fill="#56C8F3" d="M47.4,18.7c2.2,11.8-6,22-17.8,24.2C17.7,45,6.7,38.5,4.5,26.6C2.3,14.8,10.1,3.4,22,1.2
						C33.8-1,45.2,6.8,47.4,18.7"/>
				</g>
			</g>
			<g opacity="0.75">
				<g>
					<path fill="#90D5EC" d="M35.1,3.9c-0.7-0.1-1.4-0.4-1.9-0.8c-0.8,1.3-2.1,2.3-3.7,2.6c-2.2,0.4-4.3-0.6-5.5-2.3
						c-0.5,1.8-1.9,3.2-3.8,3.6c-1.6,0.3-3.1-0.2-4.2-1.2c-0.7,1.9-2.3,3.4-4.4,3.8c-0.6,0.1-1.2,0.1-1.8,0.1
						c-3.5,4.5-5.1,10.5-4,16.6C8,37.5,18.7,45,29.9,42.9C41,40.9,48.3,30,46.2,18.7C44.9,12.1,40.7,6.7,35.1,3.9"/>
				</g>
			</g>
			<g>
				<g>
					<path fill="#A02C36" d="M15.6,14.3c-0.7-0.5-1.5-1-2.3-1.3c0.8,0.4,1.6,1,2.2,1.6C15.6,14.6,15.6,14.5,15.6,14.3z"/>
					<path fill="#A02C36" d="M15,14.7c-0.3-0.1-0.6-0.1-1-0.1c0.4,0.1,0.7,0.3,1.1,0.4C15,14.9,15,14.8,15,14.7z"/>
					<path fill="#A02C36" d="M17,14c-0.4-0.4-0.7-0.7-1.2-1c0.4,0.4,0.7,0.7,1,1.1C16.9,14.1,16.9,14,17,14z"/>
				</g>
				<polygon fill="#A02C36" points="23.2,12.3 23,9.5 22.6,12.3 				"/>
				<polygon fill="#A02C36" points="22.1,11.9 21.5,10.5 21.8,12 				"/>
				<polygon fill="#A02C36" points="23.7,11.8 24.2,10.3 23.4,11.6 				"/>
				<path fill="#C1592B" d="M46.6,37.6c-1.1-2.6-2.4-5.4-4.1-8.5C34.5,14.5,22.8,11,22.8,11l-8,3.6l4,15.6c0,0-7.1,7.2-10.3,15.3
					C16.2,46.9,29.4,46.8,46.6,37.6z"/>
				<path fill="#EDE8D8" d="M13.9,32.8c0,0,0.1,0.4,1.6,2.2c1.8,2.2,3.8,2.5,3.8,2.5l-1.6-7.5c0,0-0.7-0.7-2.5,0.5
					C13.4,31.8,13.9,32.8,13.9,32.8z"/>
				<path fill="#C1592B" d="M13.7,34c0.6,0.2,1.2,0.3,1.9,0.3c0.3,0,0.6,0,1-0.1c0.2,0,0.5,0,0.8-0.1l0.3-1.6l0.3-1.6l0.1-0.8
					l0.3,0.8c0.1,0.2,0.2,0.3,0.3,0.5c0.1,0.2,0.2,0.3,0.4,0.4c1,1.1,2.6,1.4,4,1.5c1.1,0,2.3-0.1,3.4-0.4l-1.5-2.2l-0.4-0.6l0.7,0
					l3.6,0.1l2.8,0.1c-0.7-0.7-1.5-1.4-2.2-2.1c-0.1-0.1-0.1-0.1-0.2-0.2c0,0,0.8-0.9,0.8-1c0.3-0.3,0.5-0.7,0.7-1.1
					c0.4-0.9,0.5-1.8,0.1-2.8c-0.1-0.3-0.3-0.5-0.4-0.8c-0.2-0.3-0.3-0.5-0.5-0.7c0,0,0.1,0.1,0.1,0.1c0,0-0.1-0.1-0.1-0.1
					c-1.3-0.4-4.1-1-8.7-1c-6.6,0-11.6,4.2-11.6,4.2L9,29l2.1-1.1c-0.3,0.3-0.5,1.1,0.1,3.5c0.1,0.4,0.3,0.9,0.5,1.3
					c0.2,0.3,0.5,0.6,0.9,0.8C12.9,33.7,13.3,33.9,13.7,34z"/>
				<path fill="#A02C36" d="M15,23.8c0,0.2-0.1,0.4-0.2,0.4c-0.2,0-0.4-0.1-0.4-0.2c0-0.2,0.1-0.4,0.2-0.4
					C14.8,23.5,15,23.6,15,23.8z"/>
				<path fill="#A02C36" d="M13.6,24.5c0,0.1,0,0.3-0.2,0.3c-0.1,0-0.3,0-0.3-0.2c0-0.1,0-0.3,0.2-0.3
					C13.5,24.3,13.6,24.4,13.6,24.5z"/>
				<path fill="#A02C36" d="M14.7,25.3c0,0.1,0,0.2-0.1,0.2c-0.1,0-0.2,0-0.2-0.1c0-0.1,0-0.2,0.1-0.2
					C14.6,25.1,14.7,25.2,14.7,25.3z"/>
				<path fill="#C1592B" d="M12.6,33.5c0,0,0.8,0.7,2.2,0.9c1.4,0.2,2.7-0.1,2.7-0.1l0.6-3.2c0,0,0.7,2,3.5,2.5
					c2.8,0.5,5.4-0.4,5.4-0.4l-1.8-2.6l7.2,0.2L29.6,28c0,0,1.2-1,1.6-2.8c0.4-1.8-1.3-3.5-1.3-3.5"/>
				<path fill="#A02C36" d="M28.4,22.9c0,0.2-0.1,0.4-0.2,0.4c-0.2,0-0.4-0.1-0.4-0.2c0-0.2,0.1-0.4,0.2-0.4
					C28.1,22.7,28.3,22.8,28.4,22.9z"/>
				<path fill="#A02C36" d="M27,23.7c0,0.1,0,0.3-0.2,0.3c-0.1,0-0.3,0-0.3-0.2c0-0.1,0-0.3,0.2-0.3C26.8,23.5,27,23.5,27,23.7z"/>
				<path fill="#A02C36" d="M28.1,24.5c0,0.1,0,0.2-0.1,0.2c-0.1,0-0.2,0-0.2-0.1c0-0.1,0-0.2,0.1-0.2C28,24.3,28.1,24.4,28.1,24.5z
					"/>
				<path fill="none" d="M12.6,33.5c0,0,0.1,0.1,0.1,0.1C12.7,33.6,12.6,33.5,12.6,33.5C12.6,33.5,12.6,33.5,12.6,33.5z"/>
				<g>
					<path fill="#A02C36" d="M22.2,18.1c0.6,1.8-0.1,3.7-1.4,4.1c-1.4,0.4-2.9-0.7-3.5-2.5c-0.6-1.8,0.1-3.7,1.4-4.1
						C20.1,15.1,21.7,16.3,22.2,18.1z"/>
					<path fill="#A02C36" d="M25.7,18.8c-0.3,1.6-1.6,2.8-2.8,2.5c-1.2-0.3-2.3-2.2-2-3.8c0.3-1.6,2-2.4,3.2-2.1
						C25.3,15.7,26,17.2,25.7,18.8z"/>
					<path fill="#EDE8D8" d="M21.8,18.3c0.5,1.4,0,2.9-1.1,3.2c-1.1,0.3-2.3-0.5-2.8-2c-0.5-1.4,0-2.9,1.1-3.2
						C20.1,16,21.3,16.9,21.8,18.3z"/>
					<path fill="#EDE8D8" d="M24.7,19c-0.3,1.4-1.3,2.3-2.4,2.1c-1-0.2-1.6-1.5-1.3-2.9c0.3-1.4,1.3-2.3,2.4-2.1
						C24.4,16.4,25,17.6,24.7,19z"/>
					<path fill="#25221D" d="M21.1,18.7c0.2,0.7-0.1,1.4-0.6,1.6c-0.6,0.2-1.2-0.3-1.4-1c-0.2-0.7,0.1-1.4,0.6-1.6
						C20.2,17.5,20.9,18,21.1,18.7z"/>
					<path fill="#25221D" d="M23.5,18.7c0.2,0.6-0.1,1.2-0.5,1.3c-0.5,0.1-1-0.3-1.1-0.8c-0.2-0.6,0.1-1.2,0.5-1.3
						C22.8,17.7,23.3,18.1,23.5,18.7z"/>
					<path fill="#751A14" d="M16.6,14.1c1.3-0.5,2.7-0.8,4.3-0.7c0,0.3,0,0.3,0.1,0.6c-1.5-0.1-2.8,0.4-4,0.9
						C16.8,14.6,16.7,14.4,16.6,14.1z"/>
					<path fill="#751A14" d="M21.6,14.3c1.2-0.2,2.5,0.1,3.9,0.4c0,0.3,0,0.2,0,0.5c-1.3-0.3-2.6-0.4-3.7-0.2
						C21.7,14.8,21.7,14.5,21.6,14.3z"/>
				</g>
				<g>
					<path fill="#25221D" d="M22.1,24.2c1.9-0.5,3.3-1.9,3.6-3.3c-1.3-0.1-2.7-0.2-4.5-0.2c-1.7,0-3.3,0.3-4.7,0.7
						c0,0.2,0,0.4,0.1,0.7C17.1,23.9,19.6,24.9,22.1,24.2z"/>
					<path fill="#52687E" d="M17.6,22.2c-0.3,0.1-0.5,0.3-0.6,0.6c0.3,0.5,0.8,0.9,1.4,1.2c0.3-0.2,0.5-0.7,0.4-1.1
						C18.7,22.4,18.1,22.1,17.6,22.2z"/>
					<path fill="#52687E" d="M22.7,22.2c-0.8,0.2-1.2,1-1,1.8c0,0.1,0.1,0.2,0.1,0.3c0.1,0,0.2,0,0.3-0.1c0.9-0.3,1.7-0.7,2.3-1.2
						C24.1,22.3,23.4,22,22.7,22.2z"/>
				</g>
				<path fill="#EDE8D8" d="M27.1,30.2c0,0-0.1,0.5,1.5,2.3c1.8,2.2,4.8,2.8,4.8,2.8L32,30.3l-2,0L27.1,30.2z"/>
				<g>
					<path fill="#9F2C37" d="M29.4,21.3C29.4,21.3,29.4,21.3,29.4,21.3c0,0-0.1-0.1-0.1-0.1c0,0,0-0.1,0-0.2c0-0.1,0.1-0.2,0.1-0.2
						c0.1-0.1,0.1-0.1,0.2-0.2c0.1-0.1,0.2-0.1,0.3-0.2c0,0,0.1-0.1,0.2-0.1c0,0,0.1,0,0.1-0.1c0.1,0,0.3,0,0.4,0
						c0.5,0,0.9,0.2,1.2,0.4c0.1,0.1,0.2,0.2,0.3,0.3c0.1,0.1,0.1,0.1,0.1,0.1s0,0-0.1,0c-0.1,0-0.2,0-0.4,0c-0.3,0-0.7,0-1,0
						c-0.1,0-0.2,0-0.2,0c0,0-0.1,0-0.1,0c0,0-0.1,0-0.1,0c-0.1,0-0.2,0-0.2,0c-0.1,0-0.1,0-0.2,0c-0.1,0-0.2,0.1-0.3,0.1
						C29.4,21.3,29.4,21.3,29.4,21.3z"/>
					<path fill="#9F2C37" d="M33.4,30c-1-0.8-1.9-1.7-2.9-2.5c1.2-1.4,1.9-3.4,0.9-5.2c-0.3-0.6-0.7-1.1-1.2-1.5
						c0.2,0.2,0.4,0.5,0.6,0.7c0.2,0.3,0.3,0.5,0.5,0.8c0.4,1,0.4,1.9,0,2.9c-0.2,0.4-0.4,0.8-0.7,1.2c-0.1,0.1-0.9,1-0.9,1
						c0.1,0.1,0.1,0.1,0.2,0.2c0.8,0.7,1.6,1.4,2.4,2.2l-2.9,0l-3.8,0l-0.8,0l0.4,0.6l1.6,2.2c-1.2,0.4-2.4,0.5-3.6,0.5
						c-1.5,0-3.2-0.4-4.2-1.5c-0.1-0.1-0.3-0.3-0.4-0.5c-0.1-0.2-0.2-0.3-0.3-0.5l-0.4-0.8l-0.1,0.8l-0.3,1.7l-0.2,1.6
						c-0.2,0.1-0.6,0.1-0.8,0.1c-0.3,0.1-0.7,0.1-1,0.1c-0.7,0-1.3,0-2-0.2c-0.4-0.1-1-0.6-1.3-0.8c0.3,0.3,0.9,0.7,1.3,0.9
						c1.2,0.5,2.7,0.5,4,0.2l0.1,0l0-0.1l0.3-1.7l0.2-1c0.1,0.2,0.3,0.4,0.4,0.5c0.3,0.3,0.7,0.6,1.1,0.9c2.3,1.4,5.5,1.1,7.9,0.2
						l0.5-0.2l-0.3-0.4l-1.5-2.1l3.1,0l3.8,0l0.9,0L33.4,30z"/>
				</g>
				<path fill="#A02C36" d="M20.5,35.1c0,0,0.1,0,0.2,0.1c0.4,0.2,0.9,0.3,1.4,0.4c0.6,0.1,1.1,0.2,1.7,0.3c0.6,0.1,1.2,0.1,1.7,0.1
					c0.2,0,0.2,0,0.2,0s-0.1,0.1-0.2,0.2c-0.6,0.4-1.4,0.5-2.2,0.4c-0.8-0.1-1.7-0.3-2.3-0.8c-0.2-0.2-0.4-0.3-0.5-0.5
					C20.5,35.2,20.5,35.1,20.5,35.1z"/>
			</g>
			<path fill="#D0EBF9" d="M16.2,10.8c0.1,0.4-0.2,0.8-0.6,0.9c-0.4,0.1-0.8-0.2-0.9-0.6c-0.1-0.4,0.2-0.8,0.6-0.9
				C15.7,10.1,16.1,10.4,16.2,10.8"/>
			<path fill="#D0EBF9" d="M31.9,10.3c0.1,0.3-0.2,0.6-0.5,0.7c-0.3,0.1-0.6-0.2-0.7-0.5c-0.1-0.3,0.2-0.6,0.5-0.7
				C31.6,9.7,31.9,10,31.9,10.3"/>
			<path fill="#D0EBF9" d="M18.6,10.7c0,0.3-0.1,0.5-0.4,0.6c-0.3,0-0.5-0.1-0.6-0.4c0-0.3,0.1-0.5,0.4-0.6
				C18.3,10.3,18.6,10.4,18.6,10.7"/>
			<path fill="#D0EBF9" d="M38.8,11c0,0.3-0.1,0.5-0.4,0.6c-0.3,0-0.5-0.1-0.6-0.4c0-0.3,0.1-0.5,0.4-0.6
				C38.5,10.5,38.8,10.7,38.8,11"/>
			<path fill="#D0EBF9" d="M9.5,23.8c0.1,0.5-0.2,0.9-0.7,1c-0.5,0.1-0.9-0.2-1-0.7c-0.1-0.5,0.2-0.9,0.7-1
				C9,23.1,9.4,23.4,9.5,23.8"/>
			<path fill="#D0EBF9" d="M8.3,29c0,0.2-0.1,0.5-0.4,0.5c-0.2,0-0.5-0.1-0.5-0.4c0-0.2,0.1-0.5,0.4-0.5C8.1,28.6,8.3,28.7,8.3,29"
				/>
			<path fill="#D0EBF9" d="M13.9,20.3c0,0.2,0.3,0.4,0.5,0.4c0.2,0,0.4-0.3,0.4-0.5c0-0.2-0.3-0.4-0.5-0.4
				C14,19.8,13.8,20.1,13.9,20.3"/>
			<path fill="#D0EBF9" d="M29.7,9.2c0.1,0.5-0.2,0.9-0.7,1c-0.5,0.1-0.9-0.2-1-0.7c-0.1-0.5,0.2-0.9,0.7-1
				C29.2,8.5,29.6,8.8,29.7,9.2"/>
			<path fill="#D0EBF9" d="M37.7,9.4c0.1,0.6-0.3,1.2-0.9,1.4c-0.6,0.1-1.2-0.3-1.4-0.9c-0.1-0.6,0.3-1.2,0.9-1.4
				C37,8.3,37.6,8.8,37.7,9.4"/>
			<path fill="#D0EBF9" d="M37.1,12.4c0.1,0.5-0.2,0.9-0.7,1c-0.5,0.1-0.9-0.2-1-0.7c-0.1-0.5,0.2-0.9,0.7-1
				C36.6,11.7,37,12,37.1,12.4"/>
			<path fill="#6B7582" d="M10.9,38.2l0.1,3.7c0,0,5.6,5.6,16.2,3.6C40.8,43,45.6,35.4,45.6,35.4l-0.7-6.1c0,0-5.2,8.1-19.2,10.4
				C15.5,41.4,10.9,38.2,10.9,38.2z"/>
			<path fill="#EC9F21" d="M26.7,40.9c-4.1,0.7-9.2,0.9-14.6-0.5l0.2-0.6c12.2,3.2,23.2-2.4,23.3-2.4l0.2,1
				C35.8,38.4,32.1,39.9,26.7,40.9z"/>
			<path fill="#EC9F21" d="M27.9,45.8c-5,0.9-8.8,0.5-8.8,0.5l0-0.7c0.1,0,7,0.7,15-2.2l0.2,0.8C31.9,45,29.9,45.4,27.9,45.8z"/>
			<path fill="#D0EBF9" d="M41.1,20.4c0,0.2-0.1,0.5-0.4,0.5c-0.2,0-0.5-0.1-0.5-0.4c0-0.2,0.1-0.5,0.4-0.5
				C40.9,20,41.1,20.2,41.1,20.4"/>
			<path fill="#D0EBF9" d="M42.4,15.5c0.1,0.6-0.3,1.1-0.8,1.2c-0.6,0.1-1.1-0.3-1.2-0.8c-0.1-0.6,0.3-1.1,0.8-1.2
				C41.8,14.6,42.3,14.9,42.4,15.5"/>
			<g>
				<path fill="#929E2F" d="M35.1,40.3L35.1,40.3C35.1,40.3,35,40.3,35.1,40.3z"/>
			</g>
			<path fill="#EC9F21" d="M26.4,43.6c0,0.6-0.5,1.1-1.1,1.1c-0.6,0-1.1-0.6-1.1-1.2c0-0.6,0.5-1.1,1.1-1.1
				C25.9,42.4,26.4,42.9,26.4,43.6z"/>
			<path fill="#EC9F21" d="M18.9,43.1c0,0.6-0.5,1.1-1.1,1.1c-0.6,0-1.1-0.5-1-1.2c0-0.6,0.5-1.1,1.1-1.1
				C18.5,42,18.9,42.5,18.9,43.1z"/>
			<path fill="#EC9F21" d="M34.2,42.1c0,0.6-0.5,1.1-1.1,1.1c-0.6,0-1.1-0.5-1-1.2c0-0.6,0.5-1.1,1.1-1.1
				C33.8,40.9,34.2,41.5,34.2,42.1z"/>
			<path fill="#6B7582" d="M45.5,32.2c0,0-0.9-11.4-5.5-11.4c-4.6,0-5,10.1-4.7,14.2s0.5,4.7,0.5,4.7c3.6-0.7,6.7-3.1,9.4-7.2"/>
			<path fill="#EC9F21" d="M41.2,31.3c-1.3,0.2-2.7-1.4-3.1-3.7c-0.4-2.3,0.3-4.3,1.7-4.6c1.3-0.2,2.7,1.4,3.1,3.7
				C43.3,29.1,42.5,31.1,41.2,31.3z M39.8,23.5c-1,0.2-1.6,2-1.3,4c0.3,2,1.5,3.5,2.6,3.3c1-0.2,1.6-2,1.3-4
				C42,24.8,40.9,23.3,39.8,23.5z"/>
			<polygon fill="#EC9F21" points="38.5,24.7 42.7,28 42.8,29 38.1,26.8 			"/>
		</g>
	</g>
	<path fill="#FFD943" d="M41.8,10.3L26.6,3.1L8.5,10.5L1.9,24.4l5.6,17.8l17.9,4.8l18.3-8.3l4.5-14.8L41.8,10.3z M25,42.9
		c-9.9,0-17.9-8-17.9-17.9S15.1,7.1,25,7.1s17.9,8,17.9,17.9S34.9,42.9,25,42.9z"/>
	<g>
		<path fill="#87298C" d="M11.4,13c0,0-0.2-1.6-0.9-2.2c-0.6-0.5-1.1-0.5-1.3-0.3c-0.3,0.2,0.5,1.2,0.5,1.2s-0.9-0.4-1.1,0.1
			c-0.2,0.5,0.7,0.7,0.7,0.7s-1.1,0.2-1,0.7c0.1,0.5,0.9,0.3,0.9,0.3s-0.8,0.4-0.7,0.8c0.1,0.5,1.4,0.4,1.4,0.4
			C9.9,14.5,11.3,13.1,11.4,13z"/>
		<path fill="#27B24B" d="M9.3,17.3c0,0-0.4-4.6,1.8-5c2.2-0.4,2.7,5,2.7,5L13,17.5c0,0,0,2.2-1.5,2.4C10,20,9.3,17.3,9.3,17.3z"/>
		<path fill="#3D5059" d="M11.1,12.3C11.1,12.3,11.1,12.4,11.1,12.3l1.2,7.1c0.7-0.7,0.7-2,0.7-2l0.8-0.1
			C13.8,17.3,13.3,12,11.1,12.3z"/>
		<path fill="#25221D" d="M11.6,17.2c0,0,0.1,0,0.4,0c0.2,0,0.5,0,0.7,0c0.1,0,0.3,0,0.4,0c0.1,0,0.3,0,0.4,0c0.2,0,0.4,0.1,0.4,0.1
			s-0.1,0.1-0.3,0.2c-0.1,0-0.2,0.1-0.4,0.1c-0.1,0-0.3,0.1-0.4,0.1c-0.2,0-0.3,0-0.5-0.1c-0.1,0-0.3-0.1-0.4-0.2
			C11.7,17.3,11.6,17.2,11.6,17.2z"/>
		<path fill="#EDE8D8" d="M11.4,15.3c0.1,0.6-0.1,1.2-0.5,1.3c-0.4,0.1-0.8-0.4-0.9-1c-0.1-0.6,0.1-1.2,0.5-1.3
			C10.9,14.2,11.3,14.7,11.4,15.3z"/>
		<path fill="#25221D" d="M11.5,15.7c0.1,0.3-0.1,0.6-0.3,0.7c-0.2,0-0.4-0.2-0.5-0.5c-0.1-0.3,0.1-0.6,0.3-0.7
			C11.2,15.1,11.4,15.3,11.5,15.7z"/>
		<polygon fill="#27B24B" points="11.1,19.4 10,21.3 11.3,21.4 		"/>
		<polygon fill="#27B24B" points="11.5,19.7 12.2,21.1 13.1,20.3 		"/>
		<path fill="#87298C" d="M9.5,16.9c0,0-0.2-0.8-0.8-1.7c-0.6-0.9-1.3-1-1.3-1s-0.3,1,0.2,1.8C8.1,16.9,9,17,9,17s-0.4,0.3-0.6,1
			c-0.2,0.7,0,2.1,0,2.1s0.4-0.2,0.9-1C9.7,18.3,9.5,16.9,9.5,16.9z"/>
	</g>
</g>
</svg>
