<?xml version="1.0" encoding="utf-8"?>
<!-- Generator: Adobe Illustrator 22.0.1, SVG Export Plug-In . SVG Version: 6.00 Build 0)  -->
<!DOCTYPE svg PUBLIC "-//W3C//DTD SVG 1.1//EN" "http://www.w3.org/Graphics/SVG/1.1/DTD/svg11.dtd">
<svg version="1.1" xmlns="http://www.w3.org/2000/svg" xmlns:xlink="http://www.w3.org/1999/xlink" x="0px" y="0px"
	 viewBox="0 0 50 50" enable-background="new 0 0 50 50" xml:space="preserve" width="50" height="50" preserveAspectRatio="none">
<g id="Avatar_Silhouettes">
</g>
<g id="_x32_nd_Grade_Heads">
	<path fill="#B3B5B7" d="M33.1,34.6c0,0,0.2,2.1-0.9,4S29.8,41,29.8,41l-3.3-2.9l0-2.5l0.7-1.1C27.2,34.5,33.1,34.6,33.1,34.6z"/>
	<path fill="#B3B5B7" d="M40.8,28.7c0,0-0.1,2.8,2.1,5l-5-0.8l-1.6,6l-5.7-5l-2.8-4.7l1.4-1.9L40.8,28.7z"/>
	<path fill="#6E6157" d="M20.1,31.3L17.3,42c1.2,0.5,2.4,0.9,3.7,1.1c0.5,0.1,0.9,0.2,1.4,0.2c0.6,0.1,1.2,0.1,1.8,0.1l-0.8-12.5
		L20.1,31.3z"/>
	<path fill="#6E6157" d="M23.5,31.1l0.8,12.5c0.2,0,0.3,0,0.5,0c0.2,0,0.3,0,0.5,0c0,0,0,0,0.1,0c0.1,0,0.3,0,0.4,0
		c0.9,0,1.7-0.1,2.6-0.3c1.5-0.3,2.9-0.7,4.2-1.3c-1.4-3.3-3.5-7.1-6.4-10.7L23.5,31.1z"/>
	<path fill="#F9D773" d="M21,34.2l0,8.9c0,0,0,0,0.1,0c0.5,0.1,0.9,0.2,1.4,0.2c0.6,0.1,1.2,0.1,1.8,0.1c0.2,0,0.3,0,0.5,0
		c0.2,0,0.3,0,0.5,0c0,0,0,0,0.1,0c0.1,0,0.3,0,0.4,0c0.6,0,1.2-0.1,1.7-0.2L27.2,34L21,34.2z"/>
	<path fill="#9A8F78" d="M28.7,39.6l2-0.5L25.4,34l-2.7,0.6L18.2,40l1.9,1l-1.2,0.6l0.3,1.1c0.6,0.2,1.2,0.3,1.8,0.5c0,0,0,0,0.1,0
		c0.1,0,0.3,0,0.4,0.1l0.3-6.7l4.8-0.2l0.6,7c0.1,0,0.2,0,0.3,0c0.3,0,0.6-0.1,0.8-0.1c0.4-0.1,0.7-0.2,1.1-0.2l0.5-1.9L28.7,39.6z"
		/>
	<path fill="none" d="M21.7,36.6l-0.3,6.7c0.3,0.1,0.7,0.1,1,0.2c0.6,0.1,1.2,0.1,1.8,0.1c0.2,0,0.3,0,0.5,0c0.2,0,0.3,0,0.5,0
		c0,0,0,0,0.1,0c0.1,0,0.3,0,0.4,0c0.5,0,0.9-0.1,1.4-0.1l-0.6-7L21.7,36.6z"/>
	<path fill="#FFD943" d="M41.8,10.3L26.6,3L8.5,10.5L1.9,24.3l5.6,17.8L25.4,47l18.3-8.3l4.5-14.8L41.8,10.3z M24.7,43.5
		c-9.9,0-17.9-8-17.9-17.9s8-17.9,17.9-17.9s17.9,8,17.9,17.9C42.5,35.4,34.5,43.5,24.7,43.5z"/>
	<g>
		<path fill="#8BD2D4" d="M4.1,25.4c0.3-0.6,4.6-0.3,7.8,1.2c3.3,1.5,3.8,3.1,3.8,3.1l-0.2,2.6c0,0-3.9,0.4-6.7-0.8
			C6.1,30.3,3.9,26,4.1,25.4z"/>
		<path fill="#00AEB9" d="M12.5,31.3c0.1-1.5,0.7-1.3,0.7-1.3s-2.3-2.1-5.3-2.9c-1.3-0.4-2.5-0.5-3.6-0.7c0.6,1.5,2.4,4.3,4.5,5.2
			c1.1,0.5,2.4,0.7,3.6,0.8C12.2,31.9,12.5,31.7,12.5,31.3z"/>
	</g>
	
		<ellipse transform="matrix(0.998 -6.315755e-02 6.315755e-02 0.998 -2.4612 1.5983)" fill="none" stroke="#CFB25F" stroke-width="0.1552" stroke-miterlimit="10" cx="24" cy="39.7" rx="0.4" ry="0.4"/>
	<path fill="#B3B5B7" d="M14.9,32.8c0.5,2.2,0.9,3.8-0.7,6.2c0,0,4.6-0.4,5.9-2.9c1.3-2.5,0.6-1.9,0.6-2.1s-2.9-1.5-2.9-1.5
		L14.9,32.8"/>
	<path fill="#E2E4E6" d="M11.6,28.2c0,0-5.4-6-1.1-11.7l1.5,3.4c0,0,0.1-7.1,9.4-9.2l-2.7,4.2c10-2.3,21.4,0.9,22.2,9.8L11.6,28.2"
		/>
	<g>
		<path fill="#7EA5B3" d="M17.9,22.1C17,20.8,17,19,17.7,17.5c0.4-0.7,0.9-1.3,1.6-1.8c0.3-0.2,0.7-0.4,1-0.6
			c0.4-0.2,0.7-0.3,1.1-0.5c-0.3,0.2-0.6,0.4-1,0.6c-0.3,0.2-0.6,0.5-0.9,0.7c-0.6,0.5-1,1.1-1.4,1.7c-0.3,0.7-0.5,1.4-0.5,2.1
			C17.5,20.6,17.6,21.4,17.9,22.1z"/>
	</g>
	<g>
		<path fill="#7EA5B3" d="M28.5,21.5c0.4-1.3,1.3-2.5,2.5-3.4c0.6-0.4,1.2-0.8,1.9-1c0.7-0.2,1.4-0.3,2.1-0.3
			c-0.7,0.2-1.3,0.4-1.9,0.7c-0.6,0.3-1.2,0.6-1.7,1c-0.6,0.4-1,0.9-1.5,1.4C29.2,20.3,28.8,20.9,28.5,21.5z"/>
	</g>
	<g>
		<path fill="#7EA5B3" d="M18.6,22.1c0.1-1,0.5-1.9,1-2.7c0.5-0.8,1.2-1.6,1.9-2.2c0.7-0.7,1.6-1.2,2.4-1.7c0.4-0.2,0.9-0.4,1.3-0.6
			c0.5-0.2,0.9-0.3,1.4-0.5c-0.9,0.5-1.7,0.9-2.5,1.5c-0.8,0.5-1.6,1.1-2.3,1.7c-0.7,0.6-1.4,1.3-1.9,2.1
			C19.3,20.3,18.8,21.1,18.6,22.1z"/>
	</g>
	<g>
		<path fill="#8BD2D4" d="M48.5,19.6c-0.7-0.6-7.6,1-12.2,3.6c-4.6,2.6-4.8,8.5-4.8,8.5l1.6-1.1c0,0,6.6-0.6,10.6-2.8
			C47.7,25.8,49.2,20.2,48.5,19.6z"/>
		<path fill="#00AEB9" d="M38.3,28.2c-0.9-1.6-2.4-0.9-2.4-0.9s2.7-3,7.3-4.8c1.9-0.8,3.9-1.3,5.5-1.7c-0.2,1.9-1.8,5.6-4.9,7.2
			c-1.6,0.8-3.6,1.5-5.4,1.9C38.5,29.3,38.6,28.8,38.3,28.2z"/>
	</g>
	<path fill="#8BD2D4" d="M11.7,25.1c0,0,3.5-2.9,13-3.5c9.5-0.7,11.7,2.2,11.7,2.2S35.9,36,23.1,37.5c-2.8,0.3-4.2-0.9-5.8-1.9
		c-1-0.6-2.3-0.9-2.9-1.8C11.9,30.1,11.7,25.1,11.7,25.1z"/>
	<path fill="#FFFFFF" d="M18.7,30.2c0.2,1-0.6,2-1.7,2.2c-1.1,0.2-2.1-0.4-2.3-1.4c-0.2-1,0.6-2,1.7-2.2
		C17.4,28.6,18.5,29.2,18.7,30.2z"/>
	<path fill="#FFFFFF" d="M26.3,28.9c-0.1,1,0.9,1.9,2.1,2c1.2,0.1,2.3-0.7,2.3-1.7c0.1-1-0.9-1.9-2.1-2
		C27.5,27.1,26.4,27.9,26.3,28.9z"/>
	<path fill="#00313B" d="M17.4,30.7c0,0.5-0.3,0.8-0.7,0.9c-0.4,0-0.8-0.3-0.8-0.8c0-0.5,0.3-0.8,0.7-0.9
		C17,29.9,17.4,30.3,17.4,30.7z"/>
	<path fill="#00313B" d="M29.3,29.1c0,0.5-0.3,0.8-0.7,0.9c-0.4,0-0.8-0.3-0.8-0.8c0-0.5,0.3-0.8,0.7-0.9
		C28.9,28.3,29.3,28.6,29.3,29.1z"/>
	<path fill="#FFFFFF" d="M20.6,27c0.1-1.9-0.5-4.1-1.8-4.8c-0.8-0.5-0.5,2.2-0.5,2.2s-4.9-4.7-4.6-2.6s1.9,2.8,1.9,2.8
		s-4.4-1.7-5.2-0.7c-0.4,0.4,1.4,2.3,1.4,2.3s-5.7,0.9-0.7,2.4c1.2-0.5,3.6-1.1,3.6-1.3c0-0.2,3.1-0.3,3.1-0.3L20.6,27z"/>
	<path fill="#FFFFFF" d="M24.1,26.6c-0.6-1.8-0.6-4.1,0.5-5.1c0.7-0.7,1,2,1,2s3.5-5.8,3.8-3.7s-1.1,3.2-1.1,3.2s3.8-2.8,4.8-2.1
		c0.5,0.3-1.2,2.9-1.2,2.9s6.2-0.9,1.8,1.8c-1.2-0.2-3.7-0.1-3.8-0.3s-3.1,0.5-3.1,0.5L24.1,26.6z"/>
	<path fill="none" stroke="#01313B" stroke-width="0.9315" stroke-miterlimit="10" d="M11.9,28.4c0,0,4.2-1.9,8.9-1.3
		c0,0,2.3,6.6-4.1,7.3C11.7,34.8,11.9,28.4,11.9,28.4z"/>
	<path fill="none" stroke="#01313B" stroke-width="0.9315" stroke-miterlimit="10" d="M32.8,25.6c0,0-4.6-0.8-9,1c0,0-0.5,7,5.8,6
		C34.6,31.8,32.8,25.6,32.8,25.6z"/>
	<line fill="none" stroke="#01313B" stroke-width="0.621" stroke-miterlimit="10" x1="20.9" y1="27.8" x2="23.9" y2="27.4"/>
	<path fill="none" stroke="#01313B" stroke-width="0.621" stroke-miterlimit="10" d="M21.1,29.8c0,0,1.3-2.1,3-0.4"/>
	<g>
		<path fill="#E2E4E6" d="M18,35.1c-0.3,2.4,1.2,4.1,2.8,4.9l-0.1-1l3.3,3.4l1.8-3.7l0.9,1.4c1.7-1.2,3.3-3.4,2.5-6.2l-6.3-0.9
			L18,35.1z"/>
		<path fill="#FFFFFF" d="M22.6,30.8c-7.5,0.8-5.5,5.8-13,5.6c0,0,8.7,1.9,13.3-2.4c0,0,5.6,4.3,13.5-0.4
			C28.9,34.9,30.3,30,22.6,30.8z"/>
		<polygon fill="#FFFFFF" points="20.8,35.2 21.6,36.9 22.6,35.8 24.1,37.5 24.1,35.6 25.5,36.6 26.2,34.9 24.7,33.7 23.1,34.1 
			21.8,34 		"/>
		<g>
			<path fill="#B3B5B7" d="M21.9,32.6c-0.3,0.4-0.5,0.9-0.6,1.4c-0.2,0.5-0.2,1-0.2,1.5C20.6,34.4,21,33.1,21.9,32.6z"/>
		</g>
		<g>
			<path fill="#B3B5B7" d="M22.6,32.7c-0.1,0.6-0.2,1.1-0.1,1.6c0,0.5,0.1,1.1,0.2,1.6c-0.3-0.5-0.5-1.1-0.5-1.6
				C22.2,33.8,22.3,33.2,22.6,32.7z"/>
		</g>
		<g>
			<path fill="#B3B5B7" d="M23.8,32.7c0,0.3,0.1,0.6,0.3,0.9c0.2,0.3,0.4,0.5,0.6,0.7c0.2,0.2,0.5,0.4,0.8,0.6l0.9,0.5
				c-0.3-0.1-0.7-0.2-1-0.3c-0.3-0.1-0.6-0.3-0.9-0.5c-0.3-0.2-0.5-0.5-0.7-0.8C23.7,33.5,23.6,33.1,23.8,32.7z"/>
		</g>
		<path fill="#00AEB9" d="M25.4,31.2c0.1,1-0.9,2.1-2.3,2.2c-1.4,0.1-2.7-0.9-2.8-1.9c-0.1-1,1-1.9,2.4-2
			C24.2,29.4,25.3,30.2,25.4,31.2z"/>
	</g>
</g>
<g id="_x33_rd_Grade_Heads">
</g>
<g id="_x34_th_Grade_Heads">
</g>
<g id="_x35_th_Grade_Heads">
</g>
<g id="Extra_Heads">
</g>
<g id="Templates">
</g>
<g id="Labels">
</g>
</svg>
