<?xml version="1.0" encoding="utf-8"?>
<!-- Generator: Adobe Illustrator 21.1.0, SVG Export Plug-In . SVG Version: 6.00 Build 0)  -->
<svg version="1.1" xmlns="http://www.w3.org/2000/svg" xmlns:xlink="http://www.w3.org/1999/xlink" x="0px" y="0px"
	 viewBox="0 0 50 50" enable-background="new 0 0 50 50" xml:space="preserve" width="50" height="50" preserveAspectRatio="none">
<g id="Avatar_Silhouettes">
</g>
<g id="_x33_rd_Grade_Heads">
	<g>
		<path fill="#FFFFFF" d="M24.7,43.5c-9.9,0-17.9-8-17.9-17.9s8-17.9,17.9-17.9s17.9,8,17.9,17.9C42.5,35.4,34.5,43.5,24.7,43.5z"/>
		<path fill="#F1F2F3" d="M28.6,44.3c2.3-0.4,4.5-1.2,6.4-2.4c0.1-0.1,0.3-0.2,0.4-0.2c0.1,0,0.1-0.1,0.2-0.1
			c-1.3-3.3-2.2-5.6-2.2-5.6s-3.4,1.7-7.8,1.9c-2.3,0.4-5.5,0.1-5.5,0.1c0,0.1,1.1,4.3,1.1,4.4c0.1,0.6,0.1,1.3,0.1,1.9
			c0.5,0.1,0.9,0.2,1.4,0.2c0.7,0.1,1.5,0.1,2.3,0.1c0.2,0,0.3,0,0.5,0c0,0,0,0,0.1,0c0.1,0,0.3,0,0.4,0
			C26.9,44.5,27.7,44.4,28.6,44.3z"/>
		<path fill="#C9D4D9" d="M25.3,40c0,0,0,1,0.1,2.4c0,0.6,0.1,1.4,0.1,2.2c0,0,0,0,0.1,0c0.1,0,0.3,0,0.4,0
			c-0.1-0.8-0.2-1.5-0.3-2.2C25.5,40.9,25.3,40,25.3,40z"/>
		<ellipse transform="matrix(0.9939 -0.1103 0.1103 0.9939 -4.5825 3.2617)" fill="#C9D4D9" cx="27.2" cy="43" rx="0.8" ry="0.8"/>
		<path fill="#FFD943" d="M41.8,10.3L26.6,3L8.5,10.5L1.9,24.3l5.6,17.8L25.4,47l18.3-8.3l4.5-14.8L41.8,10.3z M24.7,43.5
			c-9.9,0-17.9-8-17.9-17.9s8-17.9,17.9-17.9s17.9,8,17.9,17.9C42.5,35.4,34.5,43.5,24.7,43.5z"/>
		<g>
			<path fill="#E2E4E6" d="M39.7,31.5c1.7-0.8,3-2,4-3.3l-15.4-0.1c0.6,1.6,0.7,3.5,0.1,5.9c0,0,1.1,1.8,4.4,3.8
				c3.4,1.9,6.9,0.3,6.9,0.3s-1.9-0.9-3.5-2.6c-0.1-0.1-0.2-0.2-0.3-0.3c0.3,0,0.5,0,0.8,0c3.9-0.2,6-3.4,6-3.4S41.4,31.8,39.7,31.5
				z"/>
			<g>
				<path fill="#8BD2D4" d="M4.4,26c0.3-0.6,4.6-0.3,7.8,1.2c3.3,1.5,3.8,3.1,3.8,3.1l-0.2,2.6c0,0-3.9,0.4-6.7-0.8
					C6.3,30.9,4.1,26.5,4.4,26z"/>
				<path fill="#00AEB9" d="M12.7,31.8c0.1-1.5,0.7-1.3,0.7-1.3s-2.3-2.1-5.3-2.9c-1.3-0.4-2.5-0.5-3.6-0.7c0.6,1.5,2.4,4.3,4.5,5.2
					c1.1,0.5,2.4,0.7,3.6,0.8C12.4,32.5,12.7,32.3,12.7,31.8z"/>
			</g>
			<path fill="#E2E4E6" d="M45.8,19.1c0.8-3.7-0.2-12.8-0.2-12.8s-4.3,2.4-10.1,3.5c0.2-0.4,0.3-0.9,0.4-1.3
				c0.1-1.2-0.4-1.7-0.4-1.7S33.9,8.1,32.7,9c-0.8,0.6-3.2,1.8-4.6,2.5c-1.3,0.4-2.5,0.9-3.2,1.4c-4.8,2.9-5.9,6.6-5.9,6.6l0.4-2.8
				c0,0-3.2,0.6-4.9,4c-1.8,3.4,0,5.6,0,5.6c7.1-1.6,11.5-0.8,13.3,2.6L43,27.4C44.8,24.2,45.4,20.9,45.8,19.1z"/>
			<path fill="#7EA5B3" d="M34.7,12c-0.4,0-0.7,0.1-1.1,0.2c-0.4,0.1-0.7,0.2-1.1,0.3c-2,0.6-3.8,1.6-5.4,2.8
				c-1.9,1.4-3.3,3.6-3.8,5.9c-0.1,0.4-0.2,0.7-0.2,1.1c-0.1,0.4-0.1,0.7-0.1,1.1l-0.5-0.1c0.2-0.4,0.5-0.6,0.7-0.9
				c0.3-0.3,0.5-0.6,0.8-0.9c2.2-2.1,4.9-3.8,7.9-4.8c2.3-0.8,4.6-1.1,7-1.1c-2.3,0-4.6,0.6-6.7,1.4c-2.8,1.1-5.5,2.8-7.7,4.9
				c-0.3,0.3-0.5,0.5-0.8,0.8c-0.2,0.3-0.5,0.6-0.7,0.9l-0.5,0.8l0-0.9c0-0.4,0.1-0.8,0.1-1.2c0.1-0.4,0.1-0.8,0.2-1.1
				c0.7-2.6,2.4-4.9,4.6-6.4c1.9-1.3,4-2.2,6.3-2.5C34,12,34.3,12,34.7,12z"/>
			<g>
				<path fill="#8BD2D4" d="M46.3,22.7c-0.6-0.5-6.7,0.5-10.8,2.6c-4.2,2.1-4.6,7.3-4.6,7.3l1.4-0.9c0,0,5.8-0.2,9.4-1.9
					C45.3,28,46.9,23.2,46.3,22.7z"/>
				<path fill="#00AEB9" d="M36.9,29.7c-0.7-1.5-2.1-0.9-2.1-0.9s2.5-2.5,6.6-3.9c1.7-0.6,3.4-1,4.9-1.3c-0.3,1.6-1.9,4.8-4.6,6.1
					c-1.4,0.7-3.2,1.1-4.8,1.4C37.1,30.7,37.1,30.2,36.9,29.7z"/>
			</g>
			<path fill="#8BD2D4" d="M13.8,25.7c0,0,3.2-2.3,11.5-2.5c8.4-0.2,10.2,2.5,10.2,2.5s-1.5,6-4.8,10.2c-1.9,2.3-4.7,3.1-7.8,2.9
				c-2.6-0.2-4.2-0.6-5.6-2.3C14.1,32.3,13.8,25.7,13.8,25.7z"/>
			
				<ellipse transform="matrix(1 -2.153990e-03 2.153990e-03 1 -6.690750e-02 3.793370e-02)" fill="#FFFFFF" cx="17.6" cy="31.1" rx="1.7" ry="1.8"/>
			
				<ellipse transform="matrix(1 -2.360584e-03 2.360584e-03 1 -7.332068e-02 4.157929e-02)" fill="#00313B" cx="17.6" cy="31.1" rx="0.7" ry="0.7"/>
			
				<ellipse transform="matrix(1 -2.317758e-03 2.317758e-03 1 -7.002541e-02 6.231399e-02)" fill="#FFFFFF" cx="26.9" cy="30.2" rx="1.7" ry="1.8"/>
			
				<ellipse transform="matrix(1 -2.375943e-03 2.375943e-03 1 -7.201898e-02 6.390899e-02)" fill="#00313B" cx="26.9" cy="30.3" rx="0.7" ry="0.7"/>
			
				<ellipse transform="matrix(0.9993 -3.771276e-02 3.771276e-02 0.9993 -1.1949 1.0425)" fill="#8BD2D4" cx="27" cy="32.2" rx="2.1" ry="0.8"/>
			
				<ellipse transform="matrix(0.9813 -0.1926 0.1926 0.9813 -5.9975 4.0439)" fill="#8BD2D4" cx="17.8" cy="32.9" rx="2.1" ry="0.8"/>
			<path fill="#FFFFFF" d="M20.6,27.9c0,0,0.4-0.8-0.5-2.3c-0.9-1.5-3.5-2.4-3.5-2.4l0.2,1c0,0-1.2-0.4-2.8-0.1
				c-1.6,0.3-2.4,0.9-2.4,0.9l1.4,3.6L20.6,27.9z"/>
			<path fill="#FFFFFF" d="M23.1,25.7c0,0-0.3-0.8,0.6-2.3c1-1.4,3.6-2.2,3.6-2.2l-0.2,1c0,0,1.2-0.4,2.8,0c1.6,0.4,2.4,1,2.4,1
				l-1.6,3.5c0,0-1.9-0.9-4.5-1.1C23.8,25.4,23.1,25.7,23.1,25.7z"/>
			<path fill="#C8DFE3" d="M13.7,25.2c0.3,0,0.7,0.1,1,0.2c0.5,0.2,0.9,0.5,1.2,0.8c0.2,0.2,0.4,0.4,0.5,0.6
				c0.1,0.1,0.4,0.6,0.4,0.6l-0.3,0c0.3-0.6,0.7-1.2,0.7-1.9c0-0.2,0-0.5,0-0.7c0.1,0.2,0.2,0.4,0.2,0.7c0.1,0.7-0.2,1.5-0.5,2.1
				c0,0.1-0.1,0.2-0.2,0.3c-0.2-0.3-0.4-0.7-0.7-1c-0.4-0.5-0.9-0.9-1.4-1.3C14.3,25.4,14,25.3,13.7,25.2z"/>
			<path fill="#C8DFE3" d="M26.6,24.8c0,0-0.1,0.1-0.1,0.1c-0.2-0.8-0.3-1.6,0.1-2.3c0,0.1-0.2,0.2-0.2,0.3
				c-0.1,0.1-0.1,0.2-0.2,0.3C26,23.4,26,23.6,26,23.8c0,0.5,0,1,0.1,1.5l0.1,0.4l0.3-0.3c0.3-0.2,0.5-0.4,0.7-0.6
				c0.2-0.2,0.5-0.4,0.8-0.5c0.6-0.3,1.2-0.5,1.8-0.5C28.6,23.5,27.4,24.1,26.6,24.8z"/>
			<path fill="#00313B" d="M21.6,29.9c-0.7,0.1-1.2,0.7-1.2,0.7l0.1,1.7l2.6-0.2l0.2-2C23.4,30.1,22.3,29.8,21.6,29.9z"/>
			<polygon opacity="0.3" fill="#A4DBDE" points="12.8,28.6 14.7,28 19.9,28 20.7,33.7 16.9,34.7 12.9,34.4 			"/>
			<polygon opacity="0.3" fill="#A4DBDE" points="23.7,27.6 25.6,27 30.9,27 31.6,32.7 27.9,33.7 23.9,33.4 			"/>
			<path fill="#00313B" d="M12.3,28c-0.3,0.1-0.5,0.4-0.5,0.6c0.2,1.9,0.3,3.9,0.5,5.8c0,0.3,0.3,0.5,0.6,0.5
				c2.7,0.3,5.5,0.1,8.2-0.7c0.3-0.1,0.5-0.4,0.5-0.6c-0.2-1.9-0.3-3.9-0.5-5.8c0-0.3-0.3-0.5-0.6-0.5C17.8,27,15,27.2,12.3,28z
				 M20.1,32.9c0,0.3-0.2,0.5-0.5,0.6C17.8,33.8,16,34,14.2,34c-0.3,0-0.6-0.2-0.6-0.5c-0.1-1.4-0.2-2.7-0.3-4.1
				c0-0.3,0.2-0.5,0.5-0.6c1.8-0.3,3.6-0.4,5.3-0.4c0.3,0,0.6,0.2,0.6,0.5C19.9,30.2,20,31.6,20.1,32.9z"/>
			<path fill="#00313B" d="M23.2,27c-0.3,0.1-0.5,0.4-0.5,0.6c0.2,1.9,0.3,3.9,0.5,5.8c0,0.3,0.3,0.5,0.6,0.5
				c2.7,0.3,5.5,0.1,8.2-0.7c0.3-0.1,0.5-0.4,0.5-0.6c-0.2-1.9-0.3-3.9-0.5-5.8c0-0.3-0.3-0.5-0.6-0.5C28.7,26,25.9,26.2,23.2,27z
				 M31,31.9c0,0.3-0.2,0.5-0.5,0.6c-1.8,0.3-3.6,0.4-5.3,0.4c-0.3,0-0.6-0.2-0.6-0.5c-0.1-1.4-0.2-2.7-0.3-4.1
				c0-0.3,0.2-0.5,0.5-0.6c1.8-0.3,3.6-0.4,5.3-0.4c0.3,0,0.6,0.2,0.6,0.5C30.8,29.2,30.9,30.6,31,31.9z"/>
			<path fill="#E2E4E6" d="M14.8,36.1c0,0,1.7-1.5,4.3-2.2c2.6-0.7,7-1.3,9.4-0.5c2.4,0.9,5,4,4.5,7.8l-0.6-0.1l-3.1-0.4L28.1,38
				L28,40.3l-2.3,0.1c0,0-0.5-1.1-0.5-1.8c0,0-0.6,1.5-0.5,1.8l-4.2,0.8c0,0-0.5-1.6-0.3-2.8c0,0-1.1,1.9-0.9,3.3l-3.8,1.4
				c0,0-1.3-2-0.7-4.5c0,0-1.2,1.4-1.2,2.3C13.7,41.1,13.1,38.9,14.8,36.1z"/>
			<path fill="#7EA5B3" d="M20.8,34c-0.2,0-0.6,0.4-0.8,0.5c-0.4,0.3-0.7,0.6-1.1,1c-0.5,0.6-0.9,1.3-1.3,2
				c-0.2,0.3-0.3,0.6-0.5,0.9c-0.1,0.1-0.2,0.3-0.3,0.5c0,0,0-0.4,0.2-1c0.4-1.7,1.6-3.5,3.4-3.8C20.7,34,20.8,34,20.8,34z"/>
			<path fill="#7EA5B3" d="M22.2,34.1c-0.2,0.1-0.4,0.6-0.5,0.8c-0.2,0.4-0.3,0.8-0.4,1.2c-0.2,0.9-0.2,1.9-0.3,2.8
				c0-0.1-0.1-0.3-0.1-0.4c-0.2-0.5-0.3-1.1-0.2-1.7c0.1-1,0.5-2.1,1.3-2.7C22.2,34.1,22.2,34.1,22.2,34.1z"/>
			<path fill="#7EA5B3" d="M23.2,34.1c0,0,0.1,0,0.3,0c0.2,0,0.4,0,0.8,0.1c1,0.2,1.9,0.8,2.6,1.6c0.3,0.4,0.6,0.8,0.8,1.3
				c0.1,0.2,0.2,0.5,0.3,0.7c0,0.1,0.1,0.2,0.1,0.3c-1.2-1.3-2.3-2.8-3.9-3.5C23.6,34.2,23.2,34.1,23.2,34.1z"/>
			<path fill="#7EA5B3" d="M22.1,34.1c0,0,0.1,0,0.2,0c0.9,0.3,1.5,1,1.9,1.8c0.2,0.4,0.3,0.9,0.4,1.3c0,0.2,0,0.5,0,0.7
				c0,0.1-0.1,0.4,0,0.4c-0.6-1.3-0.9-2.7-1.9-3.8C22.4,34.3,22.1,34.1,22.1,34.1z"/>
			<path fill="#00AEB9" d="M24.5,33.3c0,1.1-1,2.2-2.4,2.2c-1.4,0-2.6-1.1-2.6-2.2c0-1.1,1.1-2,2.5-2C23.4,31.3,24.5,32.2,24.5,33.3
				z"/>
		</g>
	</g>
</g>
<g id="_x34_th_Grade_Heads">
</g>
<g id="_x35_th_Grade_Heads">
</g>
<g id="Extra_Heads">
</g>
<g id="Templates">
</g>
<g id="Labels">
</g>
</svg>
