<svg version="1.1" xmlns="http://www.w3.org/2000/svg" xmlns:xlink="http://www.w3.org/1999/xlink" x="0px" y="0px" viewBox="0 0 50 50" enable-background="new 0 0 50 50" xml:space="preserve" width="50" height="50" preserveAspectRatio="none"><g id="Avatar_Silhouettes" /><g id="_x32_nd_Grade_Heads" /><g id="_x33_rd_Grade_Heads" /><g id="_x34_th_Grade_Heads"><g><path fill="#414042" d="M20.8,15.3c0,0,0.9,0.2,1,1.7c0.1,1.4-0.7,2-0.7,2s-5.5,0.9-6.3-3.2c-0.8-4.1,1.8-6.2,1.8-6.2
			s0.1,2.5,1.3,4C19.3,15.1,20.8,15.3,20.8,15.3" /><g><defs><path id="SVGID_00000016775476720892423860000010846934928141441165_" d="M25.5,44.6c-0.2,0-0.3,0-0.5,0c-0.8,0-1.5-0.1-2.3-0.1
					c-0.5-0.1-1-0.1-1.4-0.2C12.3,42.5,5.4,34.6,5.4,25C5.4,14.2,14.2,5.4,25,5.4S44.6,14.2,44.6,25c0,2.7-0.5,5.2-1.5,7.5
					c-0.5,1.2-1.1,2.3-1.8,3.4c-0.1,0.2-0.2,0.3-0.3,0.5c-0.3,0.4-0.5,0.7-0.8,1.1c-0.1,0.2-0.3,0.4-0.5,0.5
					c-1.2,1.3-2.6,2.5-4.1,3.5c-0.1,0-0.1,0.1-0.2,0.1c-0.1,0.1-0.3,0.2-0.4,0.2c-1.9,1.2-4.1,2-6.4,2.4c-0.8,0.2-1.7,0.2-2.6,0.3
					C25.9,44.6,25.7,44.6,25.5,44.6C25.6,44.6,25.5,44.6,25.5,44.6z" /></defs><clipPath id="SVGID_00000173133821616457878930000005367032730288995995_"><use xlink:href="#SVGID_00000016775476720892423860000010846934928141441165_" overflow="visible" /></clipPath><g clip-path="url(#SVGID_00000173133821616457878930000005367032730288995995_)"><path fill="#414042" d="M21,19.3c0.5,0.6,1.8,2,1.9,6.1c0.1,2.8-2.5,8.4-2.5,8.4l16,2.9c0,0,0.7-14.9,0.8-17.1
					C32.9,17.2,24.5,17.5,21,19.3z" /><path fill="#F1F2F2" d="M29.2,22.3c-0.2-0.1-0.4-0.2-0.7-0.3c-0.4-0.1-0.8-0.3-1.2-0.4c-0.8-0.2-1.6-0.3-2.4-0.3
					c-0.8,0-1.6,0.2-2.4,0.4c-0.6,0.1-1.2,0.3-1.8,0.4c0,0,1.9,3.1,2.4,3.1c0.2,0,0.6-0.9,0.8-1.7c0.9,0,2.9,0.1,5.6,1.1
					c0.2,0.9,0.4,1.8,0.6,1.9c0.5,0.3,3.2-2.6,3.2-2.6C32,23.5,30.6,22.8,29.2,22.3z" /><path fill="#6D6E71" d="M23.5,32c0,0,0.6-3.2,6.1-4.1c5.5-0.8,9.9,3.8,9.9,3.8s-7,11.7-7.8,11.1C30.9,42.2,23.5,32,23.5,32z" /><path fill="#F1F2F2" d="M35.2,27.5c-0.3,0-0.6,1-1,2c-0.7-0.1-1.5-0.2-2.4-0.2c-3.9-0.1-6,0.9-6,0.9l10.9,3.2l1.4-2.5
					C38.1,30.8,35.6,27.5,35.2,27.5z" /><path fill="#A7A9AC" d="M35.5,13.9c2,0.8,5.2,3.2,7.1,10.3c1.3,4.6,2.2,17,2.2,17s-7.7,8-15.6,8.6c-7.9,0.6-13-8.7-13-8.7
					s-1.5-1.4-1.7-4.5c-0.2-3.1,0.9-5,0.9-5s3.8-1.5,9.5-1.5c6.5,0,11.3,1.2,11.3,1.2s-0.1-5.3-8.4-7.9c-4-1.2-8.8,0-8.8,0l1.1-8.6
					C20.1,14.6,34.4,13.4,35.5,13.9z" /><path fill="#808285" d="M19.7,32.9c0.6-0.3,1.3-0.5,2-0.6c0.7-0.2,1.4-0.3,2-0.3c1.4-0.1,2.8,0.1,4.1,0.7l0.7,0.3
					c-1.1,0.3-2.4,0.5-3.2,1.4c-0.3,0.2-0.5,0.5-0.6,0.9c-0.1,0.3-0.1,0.6,0,0.9c0.1,0.5,0.4,1,0.8,1.4c0.3,0.4,0.6,0.8,1,1.2
					c-0.6-0.5-1.2-0.9-1.6-1.5c-0.4-0.6-0.7-1.4-0.5-2.1c0.2-1.1,1.3-1.8,2.3-2.1c0.3-0.1-1.5-0.6-2.9-0.6c-0.7,0-1.3,0.1-2,0.2
					C21.1,32.6,20.4,32.8,19.7,32.9z" /></g></g><g><path fill="#808285" d="M26.4,16c0,1.7-1.1,3-2.4,3c-1.3,0-2.4-1.4-2.4-3.1c0-1.7,1.1-3,2.4-3C25.4,12.9,26.4,14.3,26.4,16" /><path fill="#F1F2F2" d="M26.2,15.5c0,1.4-1,2.6-2.2,2.6c-1.2,0-2.1-1.2-2.1-2.6c0-1.4,1-2.6,2.1-2.6
				C25.2,12.9,26.2,14.1,26.2,15.5" /><path fill="#414042" d="M24.9,16c0,0.7-0.4,1.3-1,1.3c-0.5,0-1-0.6-1-1.3c0-0.7,0.4-1.3,1-1.3C24.5,14.7,24.9,15.3,24.9,16" /><path fill="#808285" d="M30.9,15c0.4,1.6-0.3,3.2-1.6,3.5c-1.3,0.3-2.7-0.7-3.1-2.4c-0.4-1.6,0.3-3.2,1.6-3.5
				C29.2,12.3,30.5,13.4,30.9,15" /><path fill="#F1F2F2" d="M30.6,14.7c0.3,1.4-0.3,2.8-1.5,3.1c-1.1,0.3-2.4-0.6-2.7-2c-0.3-1.4,0.3-2.8,1.5-3.1
				C29,12.4,30.2,13.3,30.6,14.7" /><path fill="#414042" d="M29.4,15.3c0.2,0.7-0.1,1.3-0.6,1.5c-0.5,0.1-1.1-0.3-1.2-1c-0.2-0.7,0.1-1.3,0.6-1.5
				C28.7,14.2,29.3,14.6,29.4,15.3" /></g><path fill="#48C7F4" d="M20.8,14c1.8-1.4,3.7-1.4,6.9-1.6c1-0.1,3,1.1,3.9,1l0.1,1.2l-11,0.8C20.8,14.9,20.8,14.4,20.8,14z" /><path fill="#414042" d="M34.2,13.6c0,0-0.9,0.4-0.8,2c0.1,1.6,1.1,2.1,1.1,2.1s6.1,0,6.3-4.6c0.2-4.6-3.1-6.4-3.1-6.4
			s0.4,2.7-0.8,4.6C35.9,13.2,34.2,13.6,34.2,13.6" /><path fill="#D1D3D4" d="M19.4,12l-1.7-2.3c2.2-1,4-3.4,4.1-5.8C25,4.9,27.7,4.9,31,3.4c0.6,2.3,3.1,4.5,5.4,4.9l-1.7,2.8
			c-2.2-1.3-5-2-8-1.8C23.9,9.5,21.3,10.5,19.4,12z" /><path fill="#D1B488" d="M26.9,11.6c2.2-0.2,4.2,0.3,5.8,1.2l-11.8,1.2C22.4,12.7,24.5,11.8,26.9,11.6z" /><path fill="#939598" d="M32.7,12.9c-1.6-0.9-3.7-1.4-5.8-1.2c-2.3,0.2-4.4,1.1-5.9,2.4l-1.6-2c1.9-1.5,4.5-2.5,7.3-2.7
			c3-0.2,5.8,0.5,8,1.8c0,0,0,0,0,0l-1.3,2.2C33.1,13.1,32.9,13,32.7,12.9z" /><path fill="#D1D3D4" d="M18.2,15.6l17.7-1.4l-2-1.6C30,11,24,11.3,20.7,13.5L18.2,15.6z" /><g><path fill="#939598" d="M30.8,3.7c-0.4,0.8-0.7,1.7-1,2.6c-0.2,0.9-0.4,1.8-0.5,2.7c0.4-0.8,0.7-1.7,1-2.6
				C30.6,5.6,30.8,4.7,30.8,3.7z" /></g><g><g><path fill="#939598" d="M22.2,4.4c0.2,0.9,0.5,1.8,0.9,2.6c0.4,0.8,0.8,1.7,1.4,2.4c-0.2-0.9-0.5-1.8-0.9-2.6
					C23.1,6,22.7,5.1,22.2,4.4z" /></g></g></g></g><g id="_x35_th_Grade_Heads" /><g id="Extra_Heads" /><g id="Templates" /><g id="Labels" /></svg>