<svg version="1.1" xmlns="http://www.w3.org/2000/svg" xmlns:xlink="http://www.w3.org/1999/xlink" x="0px" y="0px" viewBox="0 0 50 50" enable-background="new 0 0 50 50" xml:space="preserve" width="50" height="50" preserveAspectRatio="none"><g id="Avatar_Silhouettes" /><g id="_x32_nd_Grade_Heads" /><g id="_x33_rd_Grade_Heads" /><g id="_x34_th_Grade_Heads" /><g id="_x35_th_Grade_Heads"><g><path fill="#414042" d="M18.2,14.4c1.2,1,2.4,1.1,2.4,1.1s0.9,0.2,1,1.6c0.2,1.4-0.6,2-0.6,2s-5.3,1-6.2-3
			c-0.1-0.5-0.2-0.9-0.2-1.4L18.2,14.4z" /><g><defs><path id="SVGID_00000173879431119029034510000009050524924777489572_" d="M25.5,44.6c-0.2,0-0.3,0-0.5,0c-0.8,0-1.5-0.1-2.3-0.1
					c-0.5-0.1-1-0.1-1.4-0.2C12.3,42.5,5.4,34.6,5.4,25C5.4,14.2,14.2,5.4,25,5.4S44.6,14.2,44.6,25c0,2.7-0.5,5.2-1.5,7.5
					c-0.5,1.2-1.1,2.3-1.8,3.4c-0.1,0.2-0.2,0.3-0.3,0.5c-0.3,0.4-0.5,0.7-0.8,1.1c-0.1,0.2-0.3,0.4-0.5,0.5
					c-1.2,1.3-2.6,2.5-4.1,3.5c-0.1,0-0.1,0.1-0.2,0.1c-0.1,0.1-0.3,0.2-0.4,0.2c-1.9,1.2-4.1,2-6.4,2.4c-0.8,0.2-1.7,0.2-2.6,0.3
					C25.9,44.6,25.7,44.6,25.5,44.6C25.6,44.6,25.5,44.6,25.5,44.6z" /></defs><clipPath id="SVGID_00000041990118362152863750000004565832126515651761_"><use xlink:href="#SVGID_00000173879431119029034510000009050524924777489572_" overflow="visible" /></clipPath><g clip-path="url(#SVGID_00000041990118362152863750000004565832126515651761_)"><path fill="#414042" d="M21.1,19.4c0.5,0.6,1.8,1.9,2.1,5.9c0.2,2.7-2.1,8.3-2.1,8.3l15.7,2.3c0,0,0.2-14.6,0.3-16.7
					C32.7,17,24.5,17.5,21.1,19.4z" /><path fill="#F1F2F2" d="M29.2,22.1c-0.2-0.1-0.4-0.2-0.6-0.2c-0.4-0.1-0.8-0.2-1.2-0.3c-0.8-0.2-1.6-0.2-2.3-0.2
					c-0.8,0-1.6,0.3-2.3,0.4c-0.6,0.1-1.2,0.3-1.7,0.4c0,0,2,3,2.4,3c0.2,0,0.5-0.9,0.8-1.7c0.8,0,2.8,0,5.5,0.9
					c0.2,0.9,0.5,1.8,0.7,1.9c0.4,0.2,3-2.6,3-2.6C31.9,23.1,30.6,22.6,29.2,22.1z" /><path fill="#6D6E71" d="M23.9,31.8c0,0,0.5-3.2,5.8-4.2c5.3-1,9.8,3.4,9.8,3.4S33,42.6,32.2,42.1C31.4,41.5,23.9,31.8,23.9,31.8
					z" /><path fill="#F1F2F2" d="M35.1,27c-0.3,0-0.6,1-0.9,1.9c-0.7-0.1-1.5-0.1-2.4-0.1c-3.9,0-5.8,1.1-5.8,1.1l10.7,2.8l1.2-2.5
					C38.1,30.1,35.6,27,35.1,27z" /><path fill="#A7A9AC" d="M35,13.7c2,0.7,5.1,3,7.2,9.8c1.4,4.5,2.6,16.5,2.6,16.5s-7.3,8.1-15,8.9C22.2,49.7,17,40.7,17,40.7
					s-1.5-1.3-1.8-4.4c-0.3-3,0.7-4.9,0.7-4.9s3.6-1.6,9.2-1.8c6.3-0.2,11.1,0.8,11.1,0.8S36,25.3,27.7,23c-3.9-1.1-8.5,0.2-8.5,0.2
					l1.1-10.5C25.2,11.1,33.9,13.3,35,13.7z" /><path fill="#808285" d="M20.3,32.8c0.6-0.3,1.2-0.5,1.9-0.7c0.7-0.2,1.3-0.3,2-0.4c1.3-0.1,2.8,0,4,0.6l0.6,0.3
					c-1.1,0.3-2.3,0.6-3.1,1.4c-0.2,0.2-0.4,0.5-0.5,0.9c-0.1,0.3,0,0.6,0,0.9c0.1,0.5,0.4,1,0.8,1.4c0.3,0.4,0.7,0.7,1,1.1
					c-0.6-0.4-1.2-0.9-1.6-1.4c-0.4-0.6-0.7-1.3-0.6-2C25,33.7,26,33,27,32.6c0.3-0.1-1.5-0.6-2.8-0.5c-0.7,0-1.3,0.1-2,0.2
					C21.5,32.4,20.9,32.6,20.3,32.8z" /><g><path fill="#808285" d="M26.3,16c0,1.6-1,3-2.3,3c-1.3,0-2.4-1.3-2.4-2.9c0-1.6,1-3,2.3-3C25.1,13.1,26.2,14.4,26.3,16" /><path fill="#F1F2F2" d="M26,15.6c0,1.4-0.9,2.6-2,2.6c-1.2,0-2.1-1.1-2.2-2.5c0-1.4,0.9-2.6,2-2.6C25,13.1,26,14.2,26,15.6" /><path fill="#414042" d="M24.8,16c0,0.7-0.4,1.2-0.9,1.3c-0.5,0-1-0.5-1-1.2c0-0.7,0.4-1.2,0.9-1.3C24.4,14.8,24.8,15.4,24.8,16
						" /><path fill="#808285" d="M30.6,15c0.4,1.6-0.2,3.1-1.5,3.5c-1.3,0.4-2.6-0.6-3.1-2.2c-0.4-1.6,0.2-3.1,1.5-3.5
						C28.8,12.4,30.2,13.4,30.6,15" /><path fill="#F1F2F2" d="M30.3,14.6c0.4,1.4-0.2,2.7-1.3,3c-1.1,0.3-2.3-0.5-2.7-1.9c-0.4-1.4,0.2-2.7,1.3-3
						C28.7,12.4,29.9,13.3,30.3,14.6" /><path fill="#414042" d="M29.2,15.2c0.2,0.7-0.1,1.3-0.6,1.4c-0.5,0.1-1.1-0.3-1.2-0.9c-0.2-0.7,0.1-1.3,0.6-1.4
						C28.4,14.2,29,14.6,29.2,15.2" /></g></g></g><path fill="#48C7F4" d="M20.5,14.3c1.7-1.4,3.6-1.4,6.7-1.8c1-0.1,3,0.9,3.8,0.8l0.2,1.1l-10.7,1.2C20.5,15.1,20.5,14.7,20.5,14.3
			z" /><path fill="#414042" d="M33.6,13.5c0,0,0.7-0.2,1.5-1L40,12c0,0.3,0,0.5,0,0.8c0,4.5-6,4.7-6,4.7s-1-0.5-1.2-2
			C32.7,13.9,33.6,13.5,33.6,13.5z" /><path fill="#6D6E71" d="M6,15.8c0.1,0.9,9.8,0.6,21.8-0.7c11.9-1.3,21.5-3.1,21.4-4s-9.8-0.6-21.8,0.7C15.5,13,5.9,14.8,6,15.8z" /><path fill="#414042" d="M36.2,11.2c1-1.9,0.6-4.5,0.6-4.5S39.7,8.1,40,12l-4.8,0.5C35.5,12.2,35.9,11.7,36.2,11.2z" /><path fill="#414042" d="M16.3,10.1c0,0,0.1,2.4,1.4,3.9c0.1,0.2,0.3,0.3,0.4,0.4l-3.7,0.4C14.4,11.7,16.3,10.1,16.3,10.1z" /><g><path fill="#6D6E71" d="M17.2,5.2C18.5,4.9,22,5.9,22,5.9s1.4-5.5,3.6-5.8C27.7-0.1,30.4,5,30.4,5s3.2-1.8,4.5-1.7
				c1,0.1-0.8,8.6-0.8,8.6l-14.2,1.5C19.9,13.5,16.3,5.5,17.2,5.2z" /><polygon fill="#414042" points="19.9,14 34.1,12.4 34.5,9.6 18.9,11.3 			" /></g><g><g><path fill="#58595B" d="M28.1,4.5c0.1,0.5,0.3,1,0.6,1.5c0.3,0.4,0.7,0.8,1.2,1.1c0.1,0.1,0.2,0.1,0.4,0.2l0.4,0.1
					c0.3,0,0.6,0.1,0.8,0c0.6-0.1,1-0.3,1.5-0.6c-0.3,0-0.5,0.1-0.8,0.2C31.9,7,31.7,7,31.4,7c-0.5,0-0.9-0.1-1.4-0.3
					c-0.4-0.2-0.8-0.6-1.1-0.9C28.6,5.4,28.4,4.9,28.1,4.5z" /></g><g><g><path fill="#58595B" d="M24.1,4.9c-0.2,0.5-0.4,1-0.6,1.4c-0.2,0.4-0.5,0.8-0.9,1.1c-0.3,0.3-0.8,0.5-1.2,0.6
						c-0.2,0.1-0.5,0.1-0.7,0.1c-0.3,0-0.5,0-0.8,0c0.5,0.2,1,0.4,1.6,0.3c0.3,0,0.5-0.1,0.8-0.2l0.4-0.2C22.8,8,22.9,7.9,23,7.8
						c0.4-0.4,0.7-0.8,0.9-1.3C24.1,6,24.2,5.5,24.1,4.9z" /></g></g></g></g></g><g id="Extra_Heads" /><g id="Templates" /><g id="Labels" /></svg>