<?xml version="1.0" encoding="utf-8"?>
<!-- Generator: Adobe Illustrator 22.1.0, SVG Export Plug-In . SVG Version: 6.00 Build 0)  -->
<!DOCTYPE svg PUBLIC "-//W3C//DTD SVG 1.1//EN" "http://www.w3.org/Graphics/SVG/1.1/DTD/svg11.dtd">
<svg version="1.1" xmlns="http://www.w3.org/2000/svg" xmlns:xlink="http://www.w3.org/1999/xlink" x="0px" y="0px"
	 viewBox="0 0 452 56" style="enable-background:new 0 0 452 56;" xml:space="preserve" width="452" height="56" preserveAspectRatio="none">
<style type="text/css">
	.st0{fill:#A32B9F;}
	.st1{fill:#006837;}
	.st2{fill:#008C4A;}
	.st3{fill:#8CC63F;}
	.st4{fill:#B54D4D;}
	.st5{fill:#DE5F5F;stroke:#FF948A;stroke-width:1.5;stroke-miterlimit:10;}
	.st6{fill:#FF948A;}
	.st7{fill:#FFFFFF;}
	.st8{fill:#3760B3;stroke:#FFFFFF;stroke-width:0.5;stroke-miterlimit:10;}
	.st9{fill:#ED914B;}
	.st10{fill:#FFAF4F;stroke:#FFC87A;stroke-width:1.5;stroke-miterlimit:10;}
	.st11{fill:#FFC87A;}
	.st12{fill:#284F8F;}
	.st13{fill:#664BED;}
	.st14{fill:#7960F7;}
	.st15{fill:#25CF25;stroke:#157515;stroke-width:0.5;stroke-miterlimit:10;}
	.st16{fill:#BC94FF;}
	.st17{fill:#25CF25;}
	.st18{fill:#4A2EFF;stroke:#FFFFFF;stroke-width:0.5;stroke-miterlimit:10;}
	.st19{fill:#E6D414;}
	.st20{fill:#FFEC59;}
	.st21{fill:#FFFE9E;}
	.st22{fill:#A0B8B6;}
	.st23{fill:#DEFFFC;}
	.st24{fill:#7C8F8D;}
	.st25{fill:#108BDE;}
	.st26{fill:#0071BC;}
	.st27{fill:#F2F2F2;}
	.st28{fill:#25221D;}
	.st29{fill:#FCEE21;}
	.st30{fill:#D9CD20;}
	.st31{fill:#6BD643;}
	.st32{fill:#39B54A;}
	.st33{fill:#FF6B6B;}
	.st34{fill:#FF0000;}
	.st35{fill:#662D91;}
	.st36{fill:#FBB03B;}
	.st37{fill:#F7931E;}
	.st38{fill:#A8CDE3;}
	.st39{fill:#DEDEDE;}
	.st40{fill:#0000FF;}
	.st41{fill:#4073FF;}
	.st42{fill:#C92F2F;}
	.st43{fill:#D96161;}
	.st44{fill:#009650;}
	.st45{fill:#26BD49;}
	.st46{fill:#1DC44D;}
	.st47{fill:#17A157;}
	.st48{fill:#22E65A;}
	.st49{fill:#FF82FF;}
	.st50{fill:#E05CE0;}
	.st51{fill:#FFA1FF;}
	.st52{fill:#F15A24;}
	.st53{fill:#F18C68;}
	.st54{fill:#CC2614;}
	.st55{fill:#56F1F7;}
	.st56{fill:#3EC7C7;}
	.st57{fill:#3FC6CC;}
	.st58{fill:#D6FFF6;}
	.st59{fill:none;stroke:#A0B8B6;stroke-width:3;stroke-linecap:round;stroke-miterlimit:10;}
	.st60{fill:none;stroke:#000000;stroke-width:4.8176;stroke-miterlimit:10;}
	.st61{fill:#E6E6E6;}
	.st62{fill:none;stroke:#808080;stroke-width:1.379;stroke-miterlimit:10;}
	.st63{fill:#D4145A;}
	.st64{fill:#FF7BAC;}
	.st65{fill:none;stroke:#FF7BAC;stroke-width:2.3437;stroke-miterlimit:10;}
	.st66{fill:#2480BC;}
	.st67{fill:#E3D50C;}
	.st68{fill:#008747;}
	.st69{fill:#A81919;}
	.st70{fill:#D45757;}
	.st71{fill:#009C52;}
	.st72{fill:#00C266;}
	.st73{fill:#FF9670;}
	.st74{fill:#EDDF13;}
	.st75{fill:#EDE79C;}
	.st76{fill:#A85414;}
	.st77{fill:#913D3D;}
	.st78{fill:#612929;}
	.st79{fill:#69D669;}
	.st80{fill:#D4BB1C;}
	.st81{fill:#FCF590;}
	.st82{fill:#4AB04A;}
	.st83{fill:#C2644C;}
	.st84{fill:#E87041;}
	.st85{fill:#A14F3F;}
	.st86{fill:#384A82;}
	.st87{fill:#4C68C2;}
	.st88{fill:#243054;}
	.st89{fill:none;}
	.st90{fill:#985EC4;}
	.st91{fill:#57B342;}
	.st92{fill:#77DB60;}
	.st93{fill:#4692E3;}
	.st94{fill:#7ABAFF;}
	.st95{fill:none;stroke:#4692E3;stroke-width:3.5969;stroke-miterlimit:10;}
	.st96{fill:none;stroke:#FFA6FF;stroke-miterlimit:10;}
	.st97{fill:none;stroke:#7DA6FF;stroke-width:0.5;stroke-miterlimit:10;}
	.st98{fill:#BDE7FF;}
	.st99{fill:#F8FFAD;}
	.st100{fill:#91C0C7;}
	.st101{fill:none;stroke:#B3B3B3;stroke-width:3;stroke-miterlimit:10;}
	.st102{fill:none;stroke:#6197A8;stroke-width:1.5;stroke-miterlimit:10;}
	.st103{fill:#B1E8F5;}
	.st104{fill:#CFB36E;}
	.st105{fill:none;stroke:#9E805D;stroke-width:1.5;stroke-miterlimit:10;}
	.st106{fill:#E8D190;}
	.st107{fill:none;stroke:#7288A1;stroke-width:1.4358;stroke-miterlimit:10;}
	.st108{fill:#C9E1FF;}
	.st109{fill:none;stroke:#B3B3B3;stroke-width:2.8278;stroke-miterlimit:10;}
	.st110{fill:#3295D9;}
	.st111{fill:none;stroke:#0061A1;stroke-width:1.4139;stroke-miterlimit:10;}
	.st112{fill:#56B4F0;}
	.st113{fill:#63C261;}
	.st114{fill:none;stroke:#2A8737;stroke-width:1.3456;stroke-miterlimit:10;}
	.st115{fill:#77E86F;}
	.st116{fill:#DE6868;}
	.st117{fill:none;stroke:#B54D4D;stroke-width:1.3666;stroke-miterlimit:10;}
	.st118{fill:#C9FFC2;}
	.st119{fill:none;stroke:#000000;stroke-miterlimit:10;}
	.st120{fill:none;stroke:#000000;stroke-width:0.7528;stroke-miterlimit:10;}
	.st121{fill:#FFD4D4;}
	.st122{fill:#82CAE0;}
	.st123{fill:#E3CAA6;}
	.st124{opacity:0.5;fill:#FFD943;enable-background:new    ;}
	.st125{fill:#DE5454;}
	.st126{fill:#FF9999;}
	.st127{fill:#0062A3;}
	.st128{fill:#0081D6;}
	.st129{fill:#21A7FF;}
	.st130{fill:#00A35A;}
	.st131{fill:#008247;}
	.st132{fill:#00BA67;}
	.st133{fill:#00DB79;}
	.st134{fill:#787878;}
	.st135{fill:#9BADB8;}
	.st136{fill:#CCCCCC;}
	.st137{fill:none;stroke:#787878;stroke-width:0.25;stroke-miterlimit:10;}
	.st138{fill:#C6AD6D;}
	.st139{fill:#87714A;}
	.st140{fill:#FFE49E;}
	.st141{fill:#71CF89;}
	.st142{fill:#00A151;}
	.st143{fill:#3A3D38;}
	.st144{fill:#40CF88;}
	.st145{fill:#68A649;}
	.st146{fill:#98E3AB;}
	.st147{fill:#FFF08C;}
	.st148{fill:#FFDB3B;}
	.st149{fill:#FFF591;}
	.st150{fill:#FFFBCC;}
	.st151{fill:#B783DE;}
	.st152{fill:#A01FF0;}
	.st153{fill:#C261FF;}
	.st154{fill:#CA97F0;}
	.st155{fill:#25C495;}
	.st156{fill:#47DEB2;}
	.st157{fill:#1A8A68;}
	.st158{fill:#BDBDBD;}
	.st159{fill:#00AED9;}
	.st160{fill:#00CCFF;}
	.st161{fill:#0078A8;}
	.st162{fill:#525252;}
	.st163{fill:#0025A1;}
	.st164{fill:#0059FF;}
	.st165{fill:#6BA9FF;}
	.st166{fill:#707D85;}
	.st167{fill:#B8CCD9;}
	.st168{fill:#A67043;}
	.st169{fill:#D49C6C;}
	.st170{fill:#3C4347;}
	.st171{fill:#009245;}
	.st172{fill:#C1272D;}
	.st173{fill:#FFFBBD;}
	.st174{fill:#FF4D53;}
	.st175{fill:#FFA3C5;}
	.st176{fill:#333333;}
	.st177{fill:#D47B9B;}
	.st178{fill:#E8A2BC;}
	.st179{fill:#B35274;}
	.st180{fill:#FF8A40;}
	.st181{fill:#04C9C9;}
	.st182{fill:#5BFFFF;}
	.st183{fill:#912963;}
	.st184{fill:#C75092;}
	.st185{fill:#FAC1C1;}
	.st186{fill:#D98A8A;}
	.st187{fill:#FFC5DC;}
	.st188{fill:#DB9AB3;}
	.st189{fill:#8CEEFF;}
	.st190{fill:#F80041;}
	.st191{fill:#354652;}
	.st192{fill:#FFE063;}
	.st193{fill:#B08A44;}
	.st194{fill:#305996;}
	.st195{fill:#5C91E0;}
	.st196{fill:#E3EB86;}
	.st197{fill:none;stroke:#4D79BB;stroke-width:0.9372;stroke-miterlimit:10;}
	.st198{fill:#FFFCEC;}
	.st199{fill:#1B1464;}
	.st200{fill:#002444;}
</style>
<g id="Layer_2">
</g>
<g id="Layer_1">
</g>
<g id="Layer_3">
	<g>
		<polygon class="st124" points="1,1 451,1 447.5,10.8 451,18.5 451,26.3 443.8,33.8 451,41.8 446.6,50.8 451,55 447.6,55 1,55 
			3.9,49 1,41.8 14.5,32.6 1,17.8 6,7.5 		"/>
		<g>
			<path d="M34.2,32.9h-1.4l-1.4,0c-0.3,0-0.6,0-0.7-0.1c-0.2-0.1-0.4-0.3-0.4-0.6c0-0.5,0.4-0.7,1.1-0.7l0.3,0l0.3,0
				c0-0.2,0-0.6-0.1-1c0-0.5-0.1-0.8-0.1-1c0-0.6,0.1-1.5,0.2-2.8c0.1-1.2,0.2-2.2,0.2-2.8c-0.6,0.5-1.1,0.8-1.2,0.8
				c-0.2,0-0.4-0.1-0.5-0.2c-0.1-0.1-0.2-0.3-0.2-0.5c0-0.2,0.2-0.5,0.6-0.8c0.3-0.2,0.6-0.5,1.1-0.9c0.4-0.4,0.8-0.6,1.2-0.6
				c0.3,0,0.5,0.2,0.5,0.6c0,0.1,0,0.3,0,0.5c0,0.2,0,0.4,0,0.5c0,0.2,0,0.4,0,0.7c0,0.3,0,0.6,0,0.7c0,0.6-0.1,1.4-0.2,2.5
				s-0.2,1.9-0.2,2.5c0,0.3,0,0.6,0.1,1c0,0.4,0.1,0.7,0.1,1l0.8,0c0.2,0,0.4,0.1,0.5,0.2c0.1,0.1,0.2,0.3,0.2,0.5
				c0,0.2-0.1,0.4-0.2,0.5S34.4,32.9,34.2,32.9z"/>
			<path d="M40.1,32.9c-1.3,0-2.2-0.5-2.8-1.4c-0.5-0.8-0.7-1.8-0.7-3c0-2.4,1-4.5,2.9-6.2l0.7-0.7c0.3-0.3,0.6-0.5,0.8-0.5
				c0.2,0,0.4,0.1,0.5,0.2s0.2,0.3,0.2,0.5c0,0.2-0.2,0.5-0.7,1l-1.5,1.4c-0.4,0.4-0.7,1-1,1.8c0.4-0.2,0.8-0.3,1.1-0.4
				c0.3-0.1,0.6-0.1,0.8-0.1c1.1,0,2,0.3,2.6,0.9c0.6,0.6,0.9,1.5,0.9,2.6c0,1.2-0.3,2.1-1,2.8C42.2,32.6,41.2,32.9,40.1,32.9z
				 M40.1,27c-0.4,0-0.8,0.1-1.1,0.2c-0.1,0.1-0.4,0.2-1,0.6c0,0.3,0,0.5,0,0.8c0,0.9,0.1,1.6,0.4,2.1c0.4,0.7,0.9,1,1.7,1
				c0.7,0,1.3-0.3,1.7-0.8c0.4-0.5,0.6-1.1,0.6-1.9c0-0.7-0.2-1.2-0.6-1.5C41.5,27.1,40.9,27,40.1,27z"/>
		</g>
		<g>
			<path d="M69.8,32.8h-1.4l-1.4,0c-0.3,0-0.6,0-0.7-0.1c-0.2-0.1-0.4-0.3-0.4-0.6c0-0.5,0.4-0.7,1.1-0.7l0.3,0l0.3,0
				c0-0.2,0-0.6-0.1-1s-0.1-0.8-0.1-1c0-0.6,0.1-1.5,0.2-2.8c0.1-1.2,0.2-2.2,0.2-2.8c-0.6,0.5-1.1,0.8-1.2,0.8
				c-0.2,0-0.4-0.1-0.5-0.2c-0.1-0.1-0.2-0.3-0.2-0.5c0-0.2,0.2-0.5,0.6-0.8c0.3-0.2,0.6-0.5,1.1-0.9c0.4-0.4,0.8-0.6,1.2-0.6
				c0.3,0,0.5,0.2,0.5,0.6c0,0.1,0,0.3,0,0.5s0,0.4,0,0.5c0,0.2,0,0.4,0,0.7c0,0.3,0,0.6,0,0.7c0,0.6-0.1,1.4-0.2,2.5
				c-0.1,1.1-0.2,1.9-0.2,2.5c0,0.3,0,0.6,0.1,1c0,0.4,0.1,0.7,0.1,1l0.8,0c0.2,0,0.4,0.1,0.5,0.2c0.1,0.1,0.2,0.3,0.2,0.5
				c0,0.2-0.1,0.4-0.2,0.5C70.2,32.7,70,32.8,69.8,32.8z"/>
			<path d="M79.8,22.9l-0.7,0.8c-0.6,0.7-1.2,1.6-1.7,2.7l-1.3,2.9c-0.1,0.2-0.3,0.8-0.6,1.7c-0.3,0.7-0.5,1.3-0.7,1.6
				c-0.1,0.2-0.3,0.3-0.6,0.3c-0.2,0-0.4-0.1-0.5-0.2c-0.1-0.1-0.2-0.3-0.2-0.5c0-0.2,0.2-0.7,0.5-1.4l1.6-4
				c0.7-1.6,1.5-2.8,2.2-3.7l0.1-0.2l-3.6-0.1l-1.6,0c-0.5,0-0.7-0.3-0.7-0.7c0-0.2,0.1-0.4,0.2-0.5c0.1-0.1,0.3-0.2,0.5-0.2
				c0.6,0,1.5,0,2.7,0.1c1.2,0,2.1,0.1,2.7,0.1h1.3c0.5,0,0.8,0.2,0.8,0.5C80.2,22.2,80.1,22.5,79.8,22.9z"/>
		</g>
		<g>
			<path d="M106.1,32.8h-1.4l-1.4,0c-0.3,0-0.6,0-0.7-0.1c-0.2-0.1-0.4-0.3-0.4-0.6c0-0.5,0.4-0.7,1.1-0.7l0.3,0l0.3,0
				c0-0.2,0-0.6-0.1-1s-0.1-0.8-0.1-1c0-0.6,0.1-1.5,0.2-2.8c0.1-1.2,0.2-2.2,0.2-2.8c-0.6,0.5-1.1,0.8-1.2,0.8
				c-0.2,0-0.4-0.1-0.5-0.2c-0.1-0.1-0.2-0.3-0.2-0.5c0-0.2,0.2-0.5,0.6-0.8c0.3-0.2,0.6-0.5,1.1-0.9c0.4-0.4,0.8-0.6,1.2-0.6
				c0.3,0,0.5,0.2,0.5,0.6c0,0.1,0,0.3,0,0.5c0,0.2,0,0.4,0,0.5c0,0.2,0,0.4,0,0.7c0,0.3,0,0.6,0,0.7c0,0.6-0.1,1.4-0.2,2.5
				s-0.2,1.9-0.2,2.5c0,0.3,0,0.6,0.1,1c0,0.4,0.1,0.7,0.1,1l0.8,0c0.2,0,0.4,0.1,0.5,0.2c0.1,0.1,0.2,0.3,0.2,0.5
				c0,0.2-0.1,0.4-0.2,0.5C106.5,32.8,106.3,32.8,106.1,32.8z"/>
			<path d="M112.2,32.8c-1,0-1.8-0.2-2.5-0.7c-0.7-0.5-1.1-1.2-1.1-2.2c0-1.6,0.5-2.6,1.6-3.2c-0.9-0.5-1.3-1.3-1.3-2.2
				c0-0.9,0.3-1.7,1-2.3c0.6-0.6,1.4-0.9,2.3-0.9c2,0,3,1,3,3c0,0.6-0.1,1-0.3,1.3c-0.2,0.3-0.6,0.5-1.1,0.8
				c0.7,0.4,1.2,0.8,1.5,1.2c0.3,0.5,0.5,1.2,0.5,2c0,1-0.4,1.8-1.1,2.3C114.1,32.6,113.2,32.8,112.2,32.8z M112.1,27.3
				c-0.8,0.4-1.3,0.7-1.5,0.9c-0.4,0.4-0.6,1-0.6,1.7c0,0.6,0.3,1.1,0.8,1.4c0.4,0.2,0.8,0.3,1.3,0.3c0.9,0,1.4-0.2,1.8-0.6
				c0.3-0.3,0.4-0.8,0.4-1.5c0-0.6-0.2-1.1-0.7-1.5C113.3,27.7,112.8,27.5,112.1,27.3z M112.2,22.7c-0.6,0-1.1,0.2-1.4,0.5
				c-0.3,0.3-0.4,0.8-0.4,1.3c0,0.7,0.6,1.2,1.7,1.4c0.6-0.2,1-0.3,1.2-0.5c0.4-0.3,0.6-0.6,0.6-1.1c0-0.7-0.1-1.1-0.4-1.4
				C113.2,22.8,112.8,22.7,112.2,22.7z"/>
		</g>
		<g>
			<path d="M142,32.9h-1.4l-1.4,0c-0.3,0-0.6,0-0.7-0.1c-0.2-0.1-0.4-0.3-0.4-0.6c0-0.5,0.4-0.7,1.1-0.7l0.3,0l0.3,0
				c0-0.2,0-0.6-0.1-1s-0.1-0.8-0.1-1c0-0.6,0.1-1.5,0.2-2.8c0.1-1.2,0.2-2.2,0.2-2.8c-0.6,0.5-1.1,0.8-1.2,0.8
				c-0.2,0-0.4-0.1-0.5-0.2c-0.1-0.1-0.2-0.3-0.2-0.5c0-0.2,0.2-0.5,0.6-0.8c0.3-0.2,0.6-0.5,1.1-0.9c0.4-0.4,0.8-0.6,1.2-0.6
				c0.3,0,0.5,0.2,0.5,0.6c0,0.1,0,0.3,0,0.5s0,0.4,0,0.5c0,0.2,0,0.4,0,0.7c0,0.3,0,0.6,0,0.7c0,0.6-0.1,1.4-0.2,2.5
				c-0.1,1.1-0.2,1.9-0.2,2.5c0,0.3,0,0.6,0.1,1c0,0.4,0.1,0.7,0.1,1l0.8,0c0.2,0,0.4,0.1,0.5,0.2c0.1,0.1,0.2,0.3,0.2,0.5
				c0,0.2-0.1,0.4-0.2,0.5C142.4,32.9,142.2,32.9,142,32.9z"/>
			<path d="M149.3,31.4c-0.4,0.3-0.9,0.6-1.7,0.9c-0.9,0.4-1.5,0.6-1.8,0.6c-0.2,0-0.4-0.1-0.5-0.2s-0.2-0.3-0.2-0.5
				c0-0.3,0.2-0.5,0.5-0.6l1.2-0.4c0.7-0.3,1.3-0.7,1.8-1.1c0.4-0.4,0.8-1,1.2-1.7l0.3-0.6c-0.3,0.2-0.6,0.3-1,0.4s-0.8,0.2-1,0.2
				c-0.9,0-1.7-0.3-2.4-0.8c-0.8-0.6-1.2-1.5-1.2-2.6c0-1.4,0.4-2.4,1.2-3c0.7-0.6,1.6-0.9,2.8-0.9c0.9,0,1.7,0.4,2.4,1.1
				c0.7,0.8,1.1,1.7,1.1,2.8c0,1.2-0.2,2.4-0.7,3.6C150.8,29.8,150.1,30.8,149.3,31.4z M148.3,22.3c-0.8,0-1.4,0.2-1.8,0.6
				s-0.6,1.1-0.6,1.9c0,0.7,0.2,1.3,0.7,1.7c0.4,0.3,1,0.5,1.7,0.5c0.4,0,0.8-0.1,1.2-0.3c0.2-0.1,0.5-0.3,1-0.7
				c0.1-0.4,0.1-0.8,0.1-1c0-0.6-0.3-1.2-0.8-1.8C149.3,22.6,148.8,22.3,148.3,22.3z"/>
		</g>
		<g>
			<path d="M178.9,32.9c-0.1,0-0.3,0-0.5-0.1c-0.2-0.1-0.4-0.1-0.5-0.1c-0.2,0-0.6,0-1.1,0c-0.5,0-0.9,0-1.1,0c-0.2,0-0.5,0-0.8,0.1
				c-0.4,0-0.6,0.1-0.8,0.1c-0.1,0-0.1,0-0.2,0c-0.1,0-0.2,0-0.2,0c-0.3,0-0.6-0.2-0.7-0.5c-0.1-0.2-0.1-0.5-0.1-0.9
				c0-1.1,0.3-2,0.9-2.7c0.3-0.3,1-0.9,2.3-1.7c0.7-0.5,1.2-0.8,1.4-1.1c0.4-0.5,0.6-1,0.6-1.6c0-0.3-0.2-0.6-0.6-0.8
				c-0.4-0.2-0.7-0.3-1-0.3c-0.4,0-0.9,0.1-1.3,0.4l-1,0.8c-0.2,0.2-0.4,0.2-0.5,0.2c-0.5,0-0.7-0.2-0.7-0.6c0-0.2,0.1-0.4,0.3-0.6
				c0.6-0.5,1.1-0.9,1.5-1.2c0.6-0.3,1.2-0.5,1.8-0.5c0.8,0,1.5,0.2,2.1,0.6c0.7,0.5,1,1.1,1,1.8c0,0.5-0.1,0.9-0.2,1.4
				c-0.1,0.4-0.4,0.8-0.6,1.1c-0.4,0.4-1,0.9-1.8,1.5c-0.9,0.6-1.5,1-1.8,1.3c-0.5,0.6-0.8,1.2-0.8,2l1.5-0.1c1-0.1,1.8-0.1,2.2-0.1
				c0.4,0,0.7,0.1,1,0.2c0.4,0.2,0.7,0.4,0.7,0.7c0,0.2-0.1,0.4-0.2,0.5S179.1,32.9,178.9,32.9z"/>
			<path d="M185.1,32.9c-1.5,0-2.5-0.7-3.2-2c-0.5-1-0.8-2.4-0.8-4c0-1.4,0.3-2.6,1-3.7c0.8-1.2,1.9-1.8,3.2-1.8
				c1.3,0,2.3,0.5,3,1.6c0.6,0.9,0.9,2.1,0.9,3.4c0,2.2-0.3,3.8-1,4.9S186.5,32.9,185.1,32.9z M185.3,22.7c-0.9,0-1.6,0.5-2.1,1.4
				c-0.4,0.8-0.7,1.6-0.7,2.6c0,1.6,0.2,2.8,0.6,3.6c0.4,0.8,1.1,1.2,1.9,1.2c1,0,1.8-0.6,2.2-1.8c0.3-0.8,0.5-1.8,0.5-3.1
				c0-1.3-0.2-2.3-0.6-2.9C186.8,23,186.2,22.7,185.3,22.7z"/>
		</g>
		<g>
			<path d="M216.3,32.8c-0.1,0-0.3,0-0.5-0.1c-0.2-0.1-0.4-0.1-0.5-0.1c-0.2,0-0.6,0-1.1,0c-0.5,0-0.9,0-1.1,0c-0.2,0-0.5,0-0.8,0.1
				c-0.4,0-0.6,0.1-0.8,0.1c-0.1,0-0.1,0-0.2,0c-0.1,0-0.2,0-0.2,0c-0.3,0-0.6-0.2-0.7-0.5c-0.1-0.2-0.1-0.5-0.1-0.9
				c0-1.1,0.3-2,0.9-2.7c0.3-0.3,1-0.9,2.3-1.7c0.7-0.5,1.2-0.8,1.4-1.1c0.4-0.5,0.6-1,0.6-1.6c0-0.3-0.2-0.6-0.6-0.8
				c-0.4-0.2-0.7-0.3-1-0.3c-0.4,0-0.9,0.1-1.3,0.4l-1,0.8c-0.2,0.2-0.4,0.2-0.5,0.2c-0.5,0-0.7-0.2-0.7-0.6c0-0.2,0.1-0.4,0.3-0.6
				c0.6-0.5,1.1-0.9,1.5-1.2c0.6-0.3,1.2-0.5,1.8-0.5c0.8,0,1.5,0.2,2.1,0.6c0.7,0.5,1,1.1,1,1.8c0,0.5-0.1,0.9-0.2,1.4
				c-0.1,0.4-0.4,0.8-0.6,1.1c-0.4,0.4-1,0.9-1.8,1.5c-0.9,0.6-1.5,1-1.8,1.3c-0.5,0.6-0.8,1.2-0.8,2l1.5-0.1c1-0.1,1.8-0.1,2.2-0.1
				c0.4,0,0.7,0.1,1,0.2c0.4,0.2,0.7,0.4,0.7,0.7c0,0.2-0.1,0.4-0.2,0.5S216.5,32.8,216.3,32.8z"/>
			<path d="M223.2,32.8h-1.4l-1.4,0c-0.3,0-0.6,0-0.7-0.1c-0.2-0.1-0.4-0.3-0.4-0.6c0-0.5,0.4-0.7,1.1-0.7l0.3,0l0.3,0
				c0-0.2,0-0.6-0.1-1c0-0.5-0.1-0.8-0.1-1c0-0.6,0.1-1.5,0.2-2.8c0.1-1.2,0.2-2.2,0.2-2.8c-0.6,0.5-1.1,0.8-1.2,0.8
				c-0.2,0-0.4-0.1-0.5-0.2c-0.1-0.1-0.2-0.3-0.2-0.5c0-0.2,0.2-0.5,0.6-0.8c0.3-0.2,0.6-0.5,1.1-0.9c0.4-0.4,0.8-0.6,1.2-0.6
				c0.3,0,0.5,0.2,0.5,0.6c0,0.1,0,0.3,0,0.5c0,0.2,0,0.4,0,0.5c0,0.2,0,0.4,0,0.7c0,0.3,0,0.6,0,0.7c0,0.6-0.1,1.4-0.2,2.5
				c-0.1,1.1-0.2,1.9-0.2,2.5c0,0.3,0,0.6,0.1,1s0.1,0.7,0.1,1l0.8,0c0.2,0,0.4,0.1,0.5,0.2s0.2,0.3,0.2,0.5c0,0.2-0.1,0.4-0.2,0.5
				S223.4,32.8,223.2,32.8z"/>
		</g>
		<g>
			<path d="M251.2,32.7c-0.1,0-0.3,0-0.5-0.1c-0.2-0.1-0.4-0.1-0.5-0.1c-0.2,0-0.6,0-1.1,0c-0.5,0-0.9,0-1.1,0c-0.2,0-0.5,0-0.8,0.1
				c-0.4,0-0.6,0.1-0.8,0.1c-0.1,0-0.1,0-0.2,0c-0.1,0-0.2,0-0.2,0c-0.3,0-0.6-0.2-0.7-0.5c-0.1-0.2-0.1-0.5-0.1-0.9
				c0-1.1,0.3-2,0.9-2.7c0.3-0.3,1-0.9,2.3-1.7c0.7-0.5,1.2-0.8,1.4-1.1c0.4-0.5,0.6-1,0.6-1.6c0-0.3-0.2-0.6-0.6-0.8
				c-0.4-0.2-0.7-0.3-1-0.3c-0.4,0-0.9,0.1-1.3,0.4l-1,0.8c-0.2,0.2-0.4,0.2-0.5,0.2c-0.5,0-0.7-0.2-0.7-0.6c0-0.2,0.1-0.4,0.3-0.6
				c0.6-0.5,1.1-0.9,1.5-1.2c0.6-0.3,1.2-0.5,1.8-0.5c0.8,0,1.5,0.2,2.1,0.6c0.7,0.5,1,1.1,1,1.8c0,0.5-0.1,0.9-0.2,1.4
				c-0.1,0.4-0.4,0.8-0.6,1.1c-0.4,0.4-1,0.9-1.8,1.5c-0.9,0.6-1.5,1-1.8,1.3c-0.5,0.6-0.8,1.2-0.8,2l1.5-0.1c1-0.1,1.8-0.1,2.2-0.1
				c0.4,0,0.7,0.1,1,0.2c0.4,0.2,0.7,0.4,0.7,0.7c0,0.2-0.1,0.4-0.2,0.5S251.4,32.7,251.2,32.7z"/>
			<path d="M260.3,32.7c-0.1,0-0.3,0-0.5-0.1c-0.2-0.1-0.4-0.1-0.5-0.1c-0.2,0-0.6,0-1.1,0c-0.5,0-0.9,0-1.1,0c-0.2,0-0.5,0-0.8,0.1
				c-0.4,0-0.6,0.1-0.8,0.1c-0.1,0-0.1,0-0.2,0c-0.1,0-0.2,0-0.2,0c-0.3,0-0.6-0.2-0.7-0.5c-0.1-0.2-0.1-0.5-0.1-0.9
				c0-1.1,0.3-2,0.9-2.7c0.3-0.3,1-0.9,2.3-1.7c0.7-0.5,1.2-0.8,1.4-1.1c0.4-0.5,0.6-1,0.6-1.6c0-0.3-0.2-0.6-0.6-0.8
				c-0.4-0.2-0.7-0.3-1-0.3c-0.4,0-0.9,0.1-1.3,0.4l-1,0.8c-0.2,0.2-0.4,0.2-0.5,0.2c-0.5,0-0.7-0.2-0.7-0.6c0-0.2,0.1-0.4,0.3-0.6
				c0.6-0.5,1.1-0.9,1.5-1.2c0.6-0.3,1.2-0.5,1.8-0.5c0.8,0,1.5,0.2,2.1,0.6c0.7,0.5,1,1.1,1,1.8c0,0.5-0.1,0.9-0.2,1.4
				s-0.4,0.8-0.6,1.1c-0.4,0.4-1,0.9-1.8,1.5c-0.9,0.6-1.5,1-1.8,1.3c-0.5,0.6-0.8,1.2-0.8,2l1.5-0.1c1-0.1,1.8-0.1,2.2-0.1
				c0.4,0,0.7,0.1,1,0.2c0.4,0.2,0.7,0.4,0.7,0.7c0,0.2-0.1,0.4-0.2,0.5S260.5,32.7,260.3,32.7z"/>
		</g>
		<g>
			<path d="M287.3,32.8c-0.1,0-0.3,0-0.5-0.1c-0.2-0.1-0.4-0.1-0.5-0.1c-0.2,0-0.6,0-1.1,0c-0.5,0-0.9,0-1.1,0c-0.2,0-0.5,0-0.8,0.1
				s-0.6,0.1-0.8,0.1c-0.1,0-0.1,0-0.2,0c-0.1,0-0.2,0-0.2,0c-0.3,0-0.6-0.2-0.7-0.5c-0.1-0.2-0.1-0.5-0.1-0.9c0-1.1,0.3-2,0.9-2.7
				c0.3-0.3,1-0.9,2.3-1.7c0.7-0.5,1.2-0.8,1.4-1.1c0.4-0.5,0.6-1,0.6-1.6c0-0.3-0.2-0.6-0.6-0.8c-0.4-0.2-0.7-0.3-1-0.3
				c-0.4,0-0.9,0.1-1.3,0.4l-1,0.8c-0.2,0.2-0.4,0.2-0.5,0.2c-0.5,0-0.7-0.2-0.7-0.6c0-0.2,0.1-0.4,0.3-0.6c0.6-0.5,1.1-0.9,1.5-1.2
				c0.6-0.3,1.2-0.5,1.8-0.5c0.8,0,1.5,0.2,2.1,0.6c0.7,0.5,1,1.1,1,1.8c0,0.5-0.1,0.9-0.2,1.4c-0.1,0.4-0.4,0.8-0.6,1.1
				c-0.4,0.4-1,0.9-1.8,1.5c-0.9,0.6-1.5,1-1.8,1.3c-0.5,0.6-0.8,1.2-0.8,2l1.5-0.1c1-0.1,1.8-0.1,2.2-0.1c0.4,0,0.7,0.1,1,0.2
				c0.4,0.2,0.7,0.4,0.7,0.7c0,0.2-0.1,0.4-0.2,0.5S287.5,32.8,287.3,32.8z"/>
			<path d="M293.4,32.8c-0.7,0-1.4-0.2-2-0.5c-0.7-0.4-1.1-0.8-1.3-1.5c0-0.1,0-0.2,0-0.3c0-0.2,0.1-0.4,0.2-0.5s0.3-0.2,0.5-0.2
				c0.2,0,0.4,0.1,0.5,0.3l0.3,0.5c0.2,0.2,0.4,0.4,0.7,0.5s0.6,0.2,1.1,0.2c0.5,0,1-0.2,1.4-0.5c0.4-0.3,0.6-0.8,0.6-1.3
				c0-0.7-0.3-1.3-0.8-1.7c-0.5-0.4-1.1-0.6-1.9-0.7c-0.5-0.1-0.8-0.3-0.8-0.7c0-0.3,0.2-0.5,0.6-0.7l1.7-0.4
				c0.3-0.1,0.6-0.3,0.8-0.5c0.2-0.2,0.3-0.5,0.3-0.8c0-0.4-0.2-0.8-0.5-1c-0.4-0.3-0.8-0.4-1.5-0.4c-0.3,0-0.6,0.1-1,0.2l-0.8,0.5
				c-0.2,0.1-0.3,0.2-0.4,0.2c-0.2,0-0.4-0.1-0.5-0.2c-0.1-0.1-0.2-0.3-0.2-0.5c0-0.4,0.4-0.7,1.1-1.1c0.6-0.3,1.2-0.5,1.6-0.5
				c1,0,1.9,0.2,2.5,0.7c0.7,0.5,1,1.2,1,2.1c0,1.1-0.5,1.9-1.4,2.3c-0.1,0-0.2,0.1-0.3,0.1c0.6,0.2,1.1,0.6,1.4,1.1
				c0.3,0.5,0.5,1.1,0.5,1.8c0,1-0.3,1.8-1,2.4C295.2,32.5,294.4,32.8,293.4,32.8z"/>
		</g>
		<g>
			<path d="M322.9,32.8c-0.1,0-0.3,0-0.5-0.1c-0.2-0.1-0.4-0.1-0.5-0.1c-0.2,0-0.6,0-1.1,0c-0.5,0-0.9,0-1.1,0c-0.2,0-0.5,0-0.8,0.1
				s-0.6,0.1-0.8,0.1c-0.1,0-0.1,0-0.2,0c-0.1,0-0.2,0-0.2,0c-0.3,0-0.6-0.2-0.7-0.5c-0.1-0.2-0.1-0.5-0.1-0.9c0-1.1,0.3-2,0.9-2.7
				c0.3-0.3,1-0.9,2.3-1.7c0.7-0.5,1.2-0.8,1.4-1.1c0.4-0.5,0.6-1,0.6-1.6c0-0.3-0.2-0.6-0.6-0.8c-0.4-0.2-0.7-0.3-1-0.3
				c-0.4,0-0.9,0.1-1.3,0.4l-1,0.8c-0.2,0.2-0.4,0.2-0.5,0.2c-0.5,0-0.7-0.2-0.7-0.6c0-0.2,0.1-0.4,0.3-0.6c0.6-0.5,1.1-0.9,1.5-1.2
				c0.6-0.3,1.2-0.5,1.8-0.5c0.8,0,1.5,0.2,2.1,0.6c0.7,0.5,1,1.1,1,1.8c0,0.5-0.1,0.9-0.2,1.4c-0.1,0.4-0.4,0.8-0.6,1.1
				c-0.4,0.4-1,0.9-1.8,1.5c-0.9,0.6-1.5,1-1.8,1.3c-0.5,0.6-0.8,1.2-0.8,2l1.5-0.1c1-0.1,1.8-0.1,2.2-0.1c0.4,0,0.7,0.1,1,0.2
				c0.4,0.2,0.7,0.4,0.7,0.7c0,0.2-0.1,0.4-0.2,0.5S323.1,32.8,322.9,32.8z"/>
			<path d="M331.6,29.5v2.7c0,0.5-0.2,0.7-0.7,0.7c-0.5,0-0.8-0.4-0.8-1.1c0-0.1,0-0.2,0-0.4c0-0.2,0-0.3,0-0.3l0-1.6l-3.2-0.1
				c-0.7,0-1.1,0-1.4-0.1c-0.4-0.1-0.7-0.2-0.7-0.5c0-0.2,0.1-0.5,0.4-0.8l0.6-0.7l3.6-5.2c0.3-0.5,0.7-0.7,1.2-0.7
				c0.5,0,0.8,0.2,0.8,0.7v6c0.1,0,0.2,0,0.3,0c0.9,0,1.3,0.2,1.3,0.7c0,0.3-0.2,0.6-0.6,0.7C332.6,29.5,332.2,29.5,331.6,29.5z
				 M330.2,23.3c-1.3,2.1-2.3,3.6-3,4.6l3,0.1V23.3z"/>
		</g>
		<g>
			<path d="M359,32.9c-0.1,0-0.3,0-0.5-0.1c-0.2-0.1-0.4-0.1-0.5-0.1c-0.2,0-0.6,0-1.1,0c-0.5,0-0.9,0-1.1,0c-0.2,0-0.5,0-0.8,0.1
				s-0.6,0.1-0.8,0.1c-0.1,0-0.1,0-0.2,0c-0.1,0-0.2,0-0.2,0c-0.3,0-0.6-0.2-0.7-0.5c-0.1-0.2-0.1-0.5-0.1-0.9c0-1.1,0.3-2,0.9-2.7
				c0.3-0.3,1-0.9,2.3-1.7c0.7-0.5,1.2-0.8,1.4-1.1c0.4-0.5,0.6-1,0.6-1.6c0-0.3-0.2-0.6-0.6-0.8c-0.4-0.2-0.7-0.3-1-0.3
				c-0.4,0-0.9,0.1-1.3,0.4l-1,0.8c-0.2,0.2-0.4,0.2-0.5,0.2c-0.5,0-0.7-0.2-0.7-0.6c0-0.2,0.1-0.4,0.3-0.6c0.6-0.5,1.1-0.9,1.5-1.2
				c0.6-0.3,1.2-0.5,1.8-0.5c0.8,0,1.5,0.2,2.1,0.6c0.7,0.5,1,1.1,1,1.8c0,0.5-0.1,0.9-0.2,1.4c-0.1,0.4-0.4,0.8-0.6,1.1
				c-0.4,0.4-1,0.9-1.8,1.5c-0.9,0.6-1.5,1-1.8,1.3c-0.5,0.6-0.8,1.2-0.8,2l1.5-0.1c1-0.1,1.8-0.1,2.2-0.1c0.4,0,0.7,0.1,1,0.2
				c0.4,0.2,0.7,0.4,0.7,0.7c0,0.2-0.1,0.4-0.2,0.5C359.4,32.8,359.2,32.9,359,32.9z"/>
			<path d="M364.9,32.9c-1.4,0-2.4-0.5-3-1.5c-0.1-0.1-0.1-0.3-0.1-0.4c0-0.2,0.1-0.4,0.2-0.5s0.3-0.2,0.5-0.2
				c0.2,0,0.4,0.1,0.6,0.3c0.3,0.3,0.5,0.5,0.6,0.6c0.3,0.2,0.7,0.3,1.3,0.3c0.8,0,1.5-0.3,2.1-1c0.5-0.6,0.8-1.3,0.8-2.2
				c0-0.7-0.1-1.3-0.3-1.7c-0.3-0.6-0.8-0.8-1.4-0.8c-0.5,0-0.9,0.1-1.3,0.2c-0.3,0.1-0.5,0.3-0.8,0.6l-0.8,0.9
				c-0.2,0.2-0.4,0.3-0.7,0.3c-0.2,0-0.4-0.1-0.5-0.2c-0.1-0.1-0.2-0.3-0.2-0.5c0-0.1,0-0.5,0.1-1.3c0.2-1.5,0.2-2.5,0.2-3
				c0-0.2,0-0.4-0.1-0.6c-0.1-0.2-0.1-0.3-0.1-0.4c0-0.3,0.3-0.4,0.8-0.4c0.1,0,0.2,0,0.4,0c0.2,0,0.3,0,0.4,0c0.3,0,0.7,0,1.3,0
				c0.6,0,1,0,1.3,0c0.1,0,0.3,0,0.6,0c0.3,0,0.5,0,0.6,0c0.1,0,0.2,0,0.4-0.1c0.2,0,0.3-0.1,0.4-0.1c0.2,0,0.4,0.1,0.5,0.2
				s0.2,0.3,0.2,0.5c0,0.5-0.6,0.8-1.7,0.8c-0.2,0-0.3,0-0.6,0c-0.2,0-0.4,0-0.4,0l-1.2,0l-1.2,0c0,0.2-0.1,1-0.3,2.4
				c0.7-0.5,1.5-0.8,2.6-0.8c1.1,0,1.9,0.4,2.4,1.2c0.5,0.7,0.7,1.6,0.7,2.7c0,1.3-0.4,2.4-1.1,3.2
				C367.2,32.5,366.2,32.9,364.9,32.9z"/>
		</g>
		<g>
			<path d="M395.2,32.9c-0.1,0-0.3,0-0.5-0.1c-0.2-0.1-0.4-0.1-0.5-0.1c-0.2,0-0.6,0-1.1,0c-0.5,0-0.9,0-1.1,0c-0.2,0-0.5,0-0.8,0.1
				c-0.4,0-0.6,0.1-0.8,0.1c-0.1,0-0.1,0-0.2,0c-0.1,0-0.2,0-0.2,0c-0.3,0-0.6-0.2-0.7-0.5c-0.1-0.2-0.1-0.5-0.1-0.9
				c0-1.1,0.3-2,0.9-2.7c0.3-0.3,1-0.9,2.3-1.7c0.7-0.5,1.2-0.8,1.4-1.1c0.4-0.5,0.6-1,0.6-1.6c0-0.3-0.2-0.6-0.6-0.8
				c-0.4-0.2-0.7-0.3-1-0.3c-0.4,0-0.9,0.1-1.3,0.4l-1,0.8c-0.2,0.2-0.4,0.2-0.5,0.2c-0.5,0-0.7-0.2-0.7-0.6c0-0.2,0.1-0.4,0.3-0.6
				c0.6-0.5,1.1-0.9,1.5-1.2c0.6-0.3,1.2-0.5,1.8-0.5c0.8,0,1.5,0.2,2.1,0.6c0.7,0.5,1,1.1,1,1.8c0,0.5-0.1,0.9-0.2,1.4
				s-0.4,0.8-0.6,1.1c-0.4,0.4-1,0.9-1.8,1.5c-0.9,0.6-1.5,1-1.8,1.3c-0.5,0.6-0.8,1.2-0.8,2l1.5-0.1c1-0.1,1.8-0.1,2.2-0.1
				c0.4,0,0.7,0.1,1,0.2c0.4,0.2,0.7,0.4,0.7,0.7c0,0.2-0.1,0.4-0.2,0.5S395.4,32.9,395.2,32.9z"/>
			<path d="M401.3,32.9c-1.3,0-2.2-0.5-2.8-1.4c-0.5-0.8-0.7-1.8-0.7-3c0-2.4,1-4.5,2.9-6.2l0.7-0.7c0.3-0.3,0.6-0.5,0.8-0.5
				c0.2,0,0.4,0.1,0.5,0.2s0.2,0.3,0.2,0.5c0,0.2-0.2,0.5-0.7,1l-1.5,1.4c-0.4,0.4-0.7,1-1,1.8c0.4-0.2,0.8-0.3,1.1-0.4
				c0.3-0.1,0.6-0.1,0.8-0.1c1.1,0,2,0.3,2.6,0.9s0.9,1.5,0.9,2.6c0,1.2-0.3,2.1-1,2.8C403.3,32.6,402.4,32.9,401.3,32.9z M401.3,27
				c-0.4,0-0.8,0.1-1.1,0.2c-0.1,0.1-0.4,0.2-1,0.6c0,0.3,0,0.5,0,0.8c0,0.9,0.1,1.6,0.4,2.1c0.4,0.7,0.9,1,1.7,1
				c0.7,0,1.3-0.3,1.7-0.8c0.4-0.5,0.6-1.1,0.6-1.9c0-0.7-0.2-1.2-0.6-1.5C402.6,27.1,402,27,401.3,27z"/>
		</g>
		<g>
			<path d="M430.8,32.8c-0.1,0-0.3,0-0.5-0.1c-0.2-0.1-0.4-0.1-0.5-0.1c-0.2,0-0.6,0-1.1,0c-0.5,0-0.9,0-1.1,0c-0.2,0-0.5,0-0.8,0.1
				c-0.4,0-0.6,0.1-0.8,0.1c-0.1,0-0.1,0-0.2,0c-0.1,0-0.2,0-0.2,0c-0.3,0-0.6-0.2-0.7-0.5c-0.1-0.2-0.1-0.5-0.1-0.9
				c0-1.1,0.3-2,0.9-2.7c0.3-0.3,1-0.9,2.3-1.7c0.7-0.5,1.2-0.8,1.4-1.1c0.4-0.5,0.6-1,0.6-1.6c0-0.3-0.2-0.6-0.6-0.8
				c-0.4-0.2-0.7-0.3-1-0.3c-0.4,0-0.9,0.1-1.3,0.4l-1,0.8c-0.2,0.2-0.4,0.2-0.5,0.2c-0.5,0-0.7-0.2-0.7-0.6c0-0.2,0.1-0.4,0.3-0.6
				c0.6-0.5,1.1-0.9,1.5-1.2c0.6-0.3,1.2-0.5,1.8-0.5c0.8,0,1.5,0.2,2.1,0.6c0.7,0.5,1,1.1,1,1.8c0,0.5-0.1,0.9-0.2,1.4
				s-0.4,0.8-0.6,1.1c-0.4,0.4-1,0.9-1.8,1.5c-0.9,0.6-1.5,1-1.8,1.3c-0.5,0.6-0.8,1.2-0.8,2l1.5-0.1c1-0.1,1.8-0.1,2.2-0.1
				c0.4,0,0.7,0.1,1,0.2c0.4,0.2,0.7,0.4,0.7,0.7c0,0.2-0.1,0.4-0.2,0.5S431,32.8,430.8,32.8z"/>
			<path d="M440.9,22.9l-0.7,0.8c-0.6,0.7-1.2,1.6-1.7,2.7l-1.3,2.9c-0.1,0.2-0.3,0.8-0.6,1.7c-0.3,0.7-0.5,1.3-0.7,1.6
				c-0.1,0.2-0.3,0.3-0.6,0.3c-0.2,0-0.4-0.1-0.5-0.2c-0.1-0.1-0.2-0.3-0.2-0.5c0-0.2,0.2-0.7,0.5-1.4l1.6-4
				c0.7-1.6,1.5-2.8,2.2-3.7l0.1-0.2l-3.6-0.1l-1.6,0c-0.5,0-0.7-0.3-0.7-0.7c0-0.2,0.1-0.4,0.2-0.5c0.1-0.1,0.3-0.2,0.5-0.2
				c0.6,0,1.5,0,2.7,0.1c1.2,0,2.1,0.1,2.7,0.1h1.3c0.5,0,0.8,0.2,0.8,0.5C441.4,22.2,441.2,22.5,440.9,22.9z"/>
		</g>
		<path d="M37.1,15.9c-0.3,0-0.6-0.3-0.6-0.9V0.8h1.1v14.3C37.7,15.6,37.4,15.9,37.1,15.9z"/>
		<path d="M73.1,15.9c-0.3,0-0.6-0.3-0.6-0.9V0.8h1.1v14.3C73.7,15.6,73.4,15.9,73.1,15.9z"/>
		<path d="M109.1,15.9c-0.3,0-0.6-0.3-0.6-0.9V0.8h1.1v14.3C109.7,15.6,109.4,15.9,109.1,15.9z"/>
		<path d="M145.1,15.9c-0.3,0-0.6-0.3-0.6-0.9V0.8h1.1v14.3C145.7,15.6,145.4,15.9,145.1,15.9z"/>
		<path d="M181.1,15.9c-0.3,0-0.6-0.3-0.6-0.9V0.8h1.1v14.3C181.7,15.6,181.4,15.9,181.1,15.9z"/>
		<path d="M217.1,15.9c-0.3,0-0.6-0.3-0.6-0.9V0.8h1.1v14.3C217.7,15.6,217.4,15.9,217.1,15.9z"/>
		<path d="M253.1,15.9c-0.3,0-0.6-0.3-0.6-0.9V0.8h1.1v14.3C253.7,15.6,253.4,15.9,253.1,15.9z"/>
		<path d="M289.1,15.9c-0.3,0-0.6-0.3-0.6-0.9V0.8h1.1v14.3C289.7,15.6,289.4,15.9,289.1,15.9z"/>
		<path d="M325.1,15.9c-0.3,0-0.6-0.3-0.6-0.9V0.8h1.1v14.3C325.7,15.6,325.4,15.9,325.1,15.9z"/>
		<path d="M361.1,15.9c-0.3,0-0.6-0.3-0.6-0.9V0.8h1.1v14.3C361.7,15.6,361.4,15.9,361.1,15.9z"/>
		<path d="M397.1,15.9c-0.3,0-0.6-0.3-0.6-0.9V0.8h1.1v14.3C397.7,15.6,397.4,15.9,397.1,15.9z"/>
		<path d="M433.1,15.9c-0.3,0-0.6-0.3-0.6-0.9V0.8h1.1v14.3C433.7,15.6,433.4,15.9,433.1,15.9z"/>
		<path d="M18.6,7.5C18.6,7.8,18.8,8,19,8s0.4-0.3,0.4-0.5V0.8h-0.8V7.5z"/>
		<path d="M54.6,7.5C54.6,7.8,54.8,8,55,8s0.4-0.3,0.4-0.5V0.8h-0.8V7.5z"/>
		<path d="M90.6,7.5C90.6,7.8,90.8,8,91,8s0.4-0.3,0.4-0.5V0.8h-0.8V7.5z"/>
		<path d="M126.6,7.5c0,0.3,0.2,0.5,0.4,0.5s0.4-0.3,0.4-0.5V0.8h-0.8V7.5z"/>
		<path d="M162.6,7.5c0,0.3,0.2,0.5,0.4,0.5s0.4-0.3,0.4-0.5V0.8h-0.8V7.5z"/>
		<path d="M198.6,7.5c0,0.3,0.2,0.5,0.4,0.5s0.4-0.3,0.4-0.5V0.8h-0.8V7.5z"/>
		<path d="M234.6,7.5c0,0.3,0.2,0.5,0.4,0.5s0.4-0.3,0.4-0.5V0.8h-0.8V7.5z"/>
		<path d="M270.6,7.5c0,0.3,0.2,0.5,0.4,0.5s0.4-0.3,0.4-0.5V0.8h-0.8V7.5z"/>
		<path d="M306.6,7.5c0,0.3,0.2,0.5,0.4,0.5s0.4-0.3,0.4-0.5V0.8h-0.8V7.5z"/>
		<path d="M342.6,7.5c0,0.3,0.2,0.5,0.4,0.5s0.4-0.3,0.4-0.5V0.8h-0.8V7.5z"/>
		<path d="M378.6,7.5c0,0.3,0.2,0.5,0.4,0.5s0.4-0.3,0.4-0.5V0.8h-0.8V7.5z"/>
		<path d="M414.6,7.5c0,0.3,0.2,0.5,0.4,0.5s0.4-0.3,0.4-0.5V0.8h-0.8V7.5z"/>
	</g>
</g>
</svg>
