<svg version="1.1" id="Layer_1" xmlns="http://www.w3.org/2000/svg" xmlns:xlink="http://www.w3.org/1999/xlink" x="0px" y="0px" viewBox="0 0 434 433.7" enable-background="new 0 0 434 433.7" xml:space="preserve" width="434" height="433.7" preserveAspectRatio="none"><path opacity="0.2" fill="#7BADCB" d="M217.1,0.2C98,0.2,1.5,96.7,1.5,215.8c0,9.6-0.1,18.8-0.1,28.3h431.5c0-9.6-0.1-18.7-0.1-28.3
	C432.8,96.7,336.2,0.2,217.1,0.2z" /><g><g><path fill="#EC1E43" d="M150.6,51.9l-1.3,0.5l-1.3,0.5c-0.3,0.1-0.5,0.2-0.7,0.2c-0.2,0-0.4-0.1-0.5-0.4c-0.2-0.4,0.1-0.8,0.8-1
			l0.3-0.1l0.3-0.1c-0.1-0.2-0.2-0.5-0.4-0.9c-0.2-0.4-0.3-0.7-0.4-0.9c-0.2-0.5-0.4-1.4-0.8-2.5c-0.3-1.1-0.6-2-0.8-2.5
			c-0.4,0.7-0.7,1-0.9,1.1c-0.2,0.1-0.3,0.1-0.5,0c-0.2-0.1-0.3-0.2-0.4-0.4c-0.1-0.2,0-0.5,0.3-0.9c0.2-0.2,0.4-0.6,0.7-1.1
			c0.2-0.5,0.5-0.8,0.9-1c0.3-0.1,0.5,0,0.6,0.3c0,0.1,0.1,0.2,0.1,0.5c0,0.2,0.1,0.4,0.1,0.5c0.1,0.1,0.1,0.4,0.3,0.6
			c0.1,0.3,0.2,0.5,0.3,0.6c0.2,0.5,0.4,1.2,0.6,2.2c0.2,1,0.5,1.7,0.6,2.2c0.1,0.2,0.2,0.5,0.4,0.9c0.2,0.3,0.3,0.6,0.4,0.9
			l0.7-0.3c0.2-0.1,0.3-0.1,0.5,0s0.3,0.2,0.3,0.4c0.1,0.2,0.1,0.3,0,0.5S150.8,51.8,150.6,51.9z" /><path fill="#EC1E43" d="M156.6,49.7l-1.3,0.5l-1.3,0.5c-0.3,0.1-0.5,0.2-0.7,0.2c-0.2,0-0.4-0.1-0.5-0.4c-0.2-0.4,0.1-0.8,0.8-1
			l0.3-0.1l0.3-0.1c-0.1-0.2-0.2-0.5-0.4-0.9c-0.2-0.4-0.3-0.7-0.4-0.9c-0.2-0.5-0.4-1.4-0.8-2.5c-0.3-1.1-0.6-2-0.8-2.5
			c-0.4,0.7-0.7,1-0.9,1.1c-0.2,0.1-0.3,0.1-0.5,0c-0.2-0.1-0.3-0.2-0.4-0.4c-0.1-0.2,0-0.5,0.3-0.9c0.2-0.2,0.4-0.6,0.7-1.1
			c0.2-0.5,0.5-0.8,0.9-1c0.3-0.1,0.5,0,0.6,0.3c0,0.1,0.1,0.2,0.1,0.5c0,0.2,0.1,0.4,0.1,0.5c0.1,0.1,0.1,0.4,0.3,0.6
			c0.1,0.3,0.2,0.5,0.3,0.6c0.2,0.5,0.4,1.2,0.6,2.2c0.2,1,0.5,1.7,0.6,2.2c0.1,0.2,0.2,0.5,0.4,0.9c0.2,0.3,0.3,0.6,0.4,0.9
			l0.7-0.3c0.2-0.1,0.3-0.1,0.5,0c0.2,0.1,0.3,0.2,0.3,0.4c0.1,0.2,0.1,0.3,0,0.5C156.9,49.5,156.7,49.6,156.6,49.7z" /><path fill="#EC1E43" d="M162,48c-1.3,0.5-2.5,0.2-3.5-0.7c-0.8-0.8-1.4-1.9-2-3.3c-0.5-1.2-0.6-2.4-0.3-3.6
			c0.3-1.3,1.1-2.2,2.3-2.7c1.1-0.4,2.2-0.2,3.2,0.5c0.8,0.6,1.5,1.5,1.9,2.7c0.7,1.9,0.9,3.5,0.7,4.7C163.9,46.8,163.2,47.6,162,48
			z M158.9,38.9c-0.8,0.3-1.3,0.9-1.5,1.9c-0.1,0.8-0.1,1.7,0.3,2.5c0.5,1.4,1.1,2.4,1.7,3s1.3,0.7,2.1,0.4c0.9-0.3,1.4-1.1,1.4-2.3
			c0-0.8-0.2-1.8-0.6-2.9c-0.4-1.2-0.9-2-1.5-2.4C160.3,38.8,159.6,38.7,158.9,38.9z" /></g><g><path d="M147.3,26.8l-0.3,0.9c-0.3,0.9-0.5,1.8-0.7,2.9l-0.2,3c0,0.2,0,0.8,0,1.7c0,0.7,0,1.3-0.1,1.6c0,0.2-0.2,0.4-0.4,0.5
			c-0.2,0.1-0.3,0.1-0.5,0c-0.2-0.1-0.3-0.2-0.4-0.4c-0.1-0.2-0.1-0.6,0-1.4l0.2-4.1c0.1-1.6,0.4-3,0.8-4l0.1-0.2l-3.2,1.1l-1.5,0.5
			c-0.4,0.1-0.7,0-0.8-0.4c-0.1-0.2-0.1-0.3,0-0.5c0.1-0.2,0.2-0.3,0.4-0.3c0.5-0.2,1.4-0.5,2.5-0.8c1.1-0.4,1.9-0.6,2.5-0.8
			l1.2-0.4c0.5-0.2,0.7-0.1,0.8,0.2C147.4,26.1,147.4,26.4,147.3,26.8z" /><path d="M154.9,33.8c-1.3,0.5-2.5,0.2-3.5-0.7c-0.8-0.8-1.4-1.9-2-3.3c-0.5-1.2-0.6-2.4-0.3-3.6c0.3-1.3,1.1-2.2,2.3-2.7
			c1.1-0.4,2.2-0.2,3.2,0.5c0.8,0.6,1.5,1.5,1.9,2.7c0.7,1.9,0.9,3.5,0.7,4.7C156.9,32.5,156.2,33.3,154.9,33.8z M151.9,24.7
			c-0.8,0.3-1.3,0.9-1.5,1.9c-0.1,0.8-0.1,1.7,0.3,2.5c0.5,1.4,1.1,2.4,1.7,3c0.6,0.6,1.3,0.7,2.1,0.4c0.9-0.3,1.4-1.1,1.4-2.3
			c0-0.8-0.2-1.8-0.6-2.9c-0.4-1.2-0.9-2-1.5-2.4C153.2,24.5,152.6,24.4,151.9,24.7z" /></g></g><g><g><g><path d="M178.8,27.3c-0.9,0.2-1.7,0.1-2.4-0.2c-0.7-0.3-1.2-1-1.4-1.9c-0.3-1.4,0.1-2.5,1-3.2c-0.9-0.3-1.4-1-1.6-1.9
				c-0.1-0.8,0-1.6,0.5-2.3c0.5-0.6,1.2-1,2-1.2c1.9-0.4,3,0.4,3.3,2.3c0.1,0.5,0.1,1-0.1,1.3c-0.1,0.3-0.4,0.6-0.9,0.9
				c0.7,0.2,1.3,0.5,1.6,0.8c0.4,0.4,0.7,1,0.8,1.8c0.2,0.9-0.1,1.7-0.6,2.3C180.5,26.8,179.7,27.1,178.8,27.3z M177.8,22.2
				c-0.7,0.5-1.1,0.8-1.3,1.1c-0.3,0.4-0.4,1-0.2,1.7c0.1,0.6,0.4,0.9,1,1.1c0.4,0.1,0.8,0.2,1.3,0.1c0.8-0.1,1.3-0.4,1.6-0.9
				c0.2-0.3,0.2-0.8,0.1-1.4c-0.1-0.6-0.4-1-0.9-1.3C179,22.4,178.5,22.2,177.8,22.2z M177.2,17.9c-0.6,0.1-1,0.3-1.2,0.7
				c-0.2,0.4-0.3,0.8-0.2,1.3c0.1,0.6,0.7,1,1.8,1.1c0.5-0.3,0.9-0.5,1.1-0.7c0.3-0.3,0.5-0.7,0.4-1.1c-0.1-0.6-0.3-1-0.6-1.2
				C178.1,17.8,177.7,17.8,177.2,17.9z" /><path d="M187.1,25.7c-1.4,0.2-2.5-0.2-3.3-1.3c-0.6-0.9-1.1-2.1-1.4-3.6c-0.2-1.3-0.1-2.5,0.3-3.6c0.5-1.3,1.4-2,2.7-2.2
				c1.2-0.2,2.2,0.1,3,1c0.7,0.8,1.2,1.8,1.4,3c0.4,2,0.3,3.6-0.2,4.7C189.3,24.8,188.4,25.5,187.1,25.7z M185.7,16.3
				c-0.8,0.1-1.4,0.7-1.8,1.6c-0.3,0.8-0.3,1.6-0.2,2.5c0.3,1.5,0.7,2.5,1.2,3.2c0.5,0.7,1.2,0.9,2,0.8c1-0.2,1.5-0.8,1.8-2
				c0.2-0.8,0.1-1.8-0.1-2.9c-0.2-1.2-0.6-2.1-1.1-2.6C187.1,16.3,186.4,16.1,185.7,16.3z" /></g></g><g><path fill="#EC1E43" d="M178.8,43l-1.3,0.2l-1.3,0.2c-0.3,0.1-0.5,0.1-0.7,0.1c-0.2,0-0.4-0.2-0.4-0.5c-0.1-0.5,0.2-0.7,0.9-0.9
			l0.3-0.1l0.3,0c0-0.2-0.1-0.5-0.2-0.9c-0.1-0.4-0.2-0.7-0.2-0.9c-0.1-0.6-0.2-1.4-0.3-2.6c-0.1-1.2-0.2-2-0.3-2.6
			c-0.5,0.6-0.9,0.9-1,0.9c-0.2,0-0.3,0-0.5-0.1c-0.2-0.1-0.2-0.3-0.3-0.4c0-0.2,0.1-0.5,0.4-0.9c0.2-0.2,0.5-0.5,0.9-1
			c0.3-0.5,0.7-0.7,1-0.8c0.3-0.1,0.5,0.1,0.5,0.4c0,0.1,0,0.3,0,0.5s0,0.4,0,0.5c0,0.1,0.1,0.4,0.1,0.7c0.1,0.3,0.1,0.5,0.1,0.7
			c0.1,0.5,0.2,1.3,0.2,2.3c0.1,1,0.2,1.8,0.2,2.3c0,0.3,0.1,0.6,0.2,0.9s0.2,0.7,0.2,0.9l0.7-0.1c0.2,0,0.4,0,0.5,0.1
			c0.1,0.1,0.2,0.2,0.3,0.4c0,0.2,0,0.4-0.1,0.5C179.1,42.8,179,42.9,178.8,43z" /><path fill="#EC1E43" d="M184.4,42.2c-1.4,0.2-2.5-0.2-3.3-1.3c-0.6-0.9-1.1-2.1-1.4-3.6c-0.2-1.3-0.1-2.5,0.3-3.6
			c0.5-1.3,1.4-2,2.7-2.2c1.2-0.2,2.2,0.1,3,1c0.7,0.8,1.2,1.8,1.4,3c0.4,2,0.3,3.6-0.2,4.7C186.6,41.3,185.7,42,184.4,42.2z
			 M183,32.8c-0.8,0.1-1.4,0.7-1.8,1.6c-0.3,0.8-0.3,1.6-0.2,2.5c0.3,1.5,0.7,2.5,1.2,3.2c0.5,0.7,1.2,0.9,2,0.8
			c1-0.2,1.5-0.8,1.8-2c0.2-0.8,0.1-1.8-0.1-2.9c-0.2-1.2-0.6-2.1-1.1-2.6S183.7,32.6,183,32.8z" /><path fill="#EC1E43" d="M192.9,40.7c-1.4,0.2-2.5-0.2-3.3-1.3c-0.6-0.9-1.1-2.1-1.4-3.6c-0.2-1.3-0.1-2.5,0.3-3.6
			c0.5-1.3,1.4-2,2.7-2.2c1.2-0.2,2.2,0.1,3,1c0.7,0.8,1.2,1.8,1.4,3c0.4,2,0.3,3.6-0.2,4.7C195,39.8,194.1,40.5,192.9,40.7z
			 M191.4,31.3c-0.8,0.1-1.4,0.7-1.8,1.6c-0.3,0.8-0.3,1.6-0.2,2.5c0.3,1.5,0.7,2.5,1.2,3.2c0.5,0.7,1.2,0.9,2,0.8
			c1-0.2,1.5-0.8,1.8-2c0.2-0.8,0.1-1.8-0.1-2.9c-0.2-1.2-0.6-2.1-1.1-2.6C192.8,31.3,192.2,31.1,191.4,31.3z" /></g></g><g><g><g><path d="M116.8,51.9c-1,0.6-2,0.7-2.9,0.2c-0.8-0.4-1.4-1.1-2-2.1c-1.1-1.9-1.3-4.1-0.6-6.4l0.2-0.9c0.1-0.4,0.3-0.7,0.4-0.7
				c0.2-0.1,0.3-0.1,0.5-0.1c0.2,0,0.3,0.1,0.4,0.3c0.1,0.1,0,0.5-0.1,1.2l-0.5,1.9c-0.1,0.5-0.1,1.2,0,1.9c0.3-0.4,0.5-0.6,0.7-0.9
				c0.2-0.2,0.4-0.4,0.6-0.5c0.9-0.5,1.8-0.7,2.6-0.5s1.4,0.8,1.9,1.7c0.5,0.9,0.7,1.9,0.5,2.8C118.3,50.7,117.8,51.4,116.8,51.9z
				 M114,47.1c-0.3,0.2-0.6,0.4-0.8,0.7c-0.1,0.1-0.2,0.4-0.5,0.9c0.1,0.2,0.2,0.4,0.3,0.6c0.4,0.7,0.9,1.2,1.4,1.5
				c0.6,0.4,1.3,0.4,1.9,0c0.6-0.3,0.9-0.8,1-1.4c0.1-0.6-0.1-1.2-0.4-1.8c-0.3-0.5-0.7-0.9-1.2-0.9C115.2,46.6,114.6,46.7,114,47.1
				z" /><path d="M124.2,47.4c-1.2,0.7-2.4,0.7-3.6-0.1c-0.9-0.6-1.7-1.6-2.5-2.9c-0.7-1.1-1-2.3-0.9-3.5c0.1-1.4,0.7-2.4,1.8-3
				c1-0.6,2.1-0.6,3.2-0.1c0.9,0.5,1.7,1.3,2.4,2.4c1,1.8,1.5,3.3,1.5,4.5S125.3,46.8,124.2,47.4z M119.6,39
				c-0.7,0.4-1.1,1.1-1.1,2.1c0,0.8,0.2,1.6,0.7,2.4c0.7,1.3,1.5,2.2,2.2,2.6s1.4,0.5,2.1,0.1c0.8-0.5,1.2-1.3,1-2.5
				c-0.1-0.8-0.5-1.7-1.1-2.7c-0.6-1.1-1.2-1.8-1.9-2.1C120.9,38.6,120.2,38.6,119.6,39z" /></g></g><g><path fill="#EC1E43" d="M122.8,66.2l-1.2,0.7l-1.2,0.7c-0.3,0.2-0.5,0.3-0.6,0.3c-0.2,0-0.4,0-0.6-0.3c-0.2-0.4,0-0.8,0.6-1.1
			l0.3-0.2l0.2-0.1c-0.1-0.2-0.3-0.5-0.5-0.8c-0.2-0.4-0.4-0.6-0.5-0.8c-0.3-0.5-0.7-1.3-1.2-2.4c-0.5-1.1-0.9-1.8-1.2-2.4
			c-0.3,0.7-0.5,1.1-0.7,1.2c-0.2,0.1-0.3,0.1-0.5,0.1c-0.2-0.1-0.3-0.2-0.4-0.3c-0.1-0.2-0.1-0.5,0.1-1c0.1-0.3,0.3-0.7,0.5-1.2
			c0.1-0.6,0.4-0.9,0.7-1.1c0.3-0.2,0.5-0.1,0.7,0.2c0.1,0.1,0.1,0.2,0.2,0.4c0.1,0.2,0.1,0.3,0.2,0.4c0.1,0.1,0.2,0.3,0.4,0.6
			c0.2,0.3,0.3,0.4,0.4,0.6c0.3,0.4,0.6,1.1,1,2.1c0.4,0.9,0.8,1.6,1,2.1c0.1,0.2,0.3,0.5,0.5,0.8c0.2,0.3,0.4,0.6,0.5,0.8l0.6-0.4
			c0.2-0.1,0.3-0.1,0.5-0.1c0.2,0,0.3,0.1,0.4,0.3c0.1,0.2,0.1,0.3,0.1,0.5C123,65.9,122.9,66.1,122.8,66.2z" /><path fill="#EC1E43" d="M130,62c-0.1,0.1-0.3,0.1-0.5,0.1c-0.2,0-0.4,0.1-0.5,0.1c-0.2,0.1-0.5,0.3-0.9,0.6
			c-0.4,0.3-0.7,0.4-0.9,0.6c-0.2,0.1-0.4,0.2-0.7,0.5c-0.3,0.2-0.5,0.4-0.6,0.5c0,0-0.1,0.1-0.2,0.1c-0.1,0-0.2,0.1-0.2,0.1
			c-0.3,0.2-0.5,0.1-0.8-0.1c-0.1-0.1-0.3-0.3-0.5-0.7c-0.5-0.9-0.7-1.8-0.5-2.7c0.1-0.4,0.4-1.2,1-2.5c0.3-0.7,0.5-1.2,0.6-1.6
			c0.1-0.6,0-1.1-0.3-1.6c-0.1-0.3-0.4-0.4-0.9-0.4c-0.4,0-0.7,0.1-1,0.2c-0.4,0.2-0.6,0.5-0.9,0.9l-0.5,1.2
			c-0.1,0.2-0.2,0.4-0.3,0.4c-0.4,0.2-0.7,0.2-0.9-0.1c-0.1-0.2-0.1-0.4-0.1-0.6c0.2-0.7,0.4-1.2,0.7-1.6c0.3-0.5,0.7-1,1.2-1.3
			c0.6-0.4,1.3-0.5,2-0.5c0.8,0.1,1.4,0.4,1.7,1c0.2,0.4,0.4,0.8,0.5,1.2c0.1,0.4,0.1,0.8,0,1.2c-0.1,0.5-0.4,1.2-0.8,2.1
			c-0.5,0.9-0.8,1.5-0.9,1.9c-0.2,0.7-0.1,1.4,0.3,2l1.2-0.8c0.8-0.5,1.4-0.9,1.8-1.1c0.3-0.2,0.6-0.3,0.9-0.3
			c0.4-0.1,0.7,0,0.9,0.3c0.1,0.2,0.1,0.3,0.1,0.5C130.3,61.7,130.2,61.9,130,62z" /><path fill="#EC1E43" d="M135.2,59.3c-1.2,0.7-2.4,0.7-3.6-0.1c-0.9-0.6-1.7-1.6-2.5-2.9c-0.7-1.1-1-2.3-0.9-3.5
			c0.1-1.4,0.7-2.4,1.8-3c1-0.6,2.1-0.6,3.2-0.1c0.9,0.5,1.7,1.3,2.4,2.4c1,1.8,1.5,3.3,1.5,4.5C136.9,57.7,136.3,58.6,135.2,59.3z
			 M130.6,50.9c-0.7,0.4-1.1,1.1-1.1,2.1c0,0.8,0.2,1.6,0.7,2.4c0.7,1.3,1.5,2.2,2.2,2.6c0.7,0.4,1.4,0.5,2.1,0.1
			c0.8-0.5,1.2-1.3,1-2.5c-0.1-0.8-0.5-1.7-1.1-2.7c-0.6-1.1-1.2-1.8-1.9-2.1C131.9,50.5,131.3,50.5,130.6,50.9z" /></g></g><g><g><path d="M89.5,72.4c-1,0.8-2,1.1-3.1,0.7c-0.1,0-0.3-0.1-0.3-0.2c-0.1-0.1-0.2-0.3-0.1-0.5s0.1-0.3,0.2-0.5
			c0.1-0.1,0.3-0.2,0.6-0.1c0.4,0.1,0.6,0.1,0.8,0.1c0.4,0,0.7-0.2,1.1-0.5c0.6-0.5,0.9-1.2,0.9-2c0-0.8-0.2-1.4-0.8-2.1
			c-0.4-0.5-0.9-0.9-1.3-1c-0.6-0.2-1.1-0.1-1.5,0.2c-0.4,0.3-0.6,0.6-0.8,0.9C85.1,67.7,85,68,85,68.4l0,1.1c0,0.3-0.1,0.5-0.3,0.6
			c-0.1,0.1-0.3,0.2-0.5,0.1s-0.3-0.1-0.4-0.2c-0.1-0.1-0.3-0.4-0.7-1c-0.8-1.2-1.4-2-1.6-2.3c-0.1-0.1-0.2-0.2-0.4-0.3
			s-0.3-0.2-0.4-0.2c-0.2-0.2-0.1-0.5,0.3-0.8c0.1-0.1,0.2-0.1,0.3-0.2c0.2-0.1,0.3-0.2,0.3-0.2c0.2-0.2,0.5-0.4,0.9-0.8
			s0.7-0.6,0.9-0.8c0.1-0.1,0.2-0.2,0.4-0.3c0.2-0.2,0.3-0.3,0.4-0.3c0.1-0.1,0.2-0.1,0.3-0.3c0.1-0.1,0.2-0.2,0.2-0.3
			c0.1-0.1,0.3-0.2,0.5-0.2s0.3,0.1,0.5,0.2c0.3,0.4,0.1,0.9-0.7,1.6c-0.1,0.1-0.2,0.2-0.4,0.3c-0.2,0.1-0.3,0.2-0.3,0.2l-0.9,0.8
			l-0.9,0.8c0.1,0.2,0.6,0.8,1.3,1.9c0.2-0.8,0.6-1.5,1.4-2.2c0.8-0.6,1.6-0.8,2.5-0.6c0.8,0.2,1.5,0.7,2.1,1.5c0.8,0.9,1.2,2,1.1,3
			C90.9,70.6,90.4,71.6,89.5,72.4z" /><path d="M96.2,66.5c-1.1,0.9-2.2,1.1-3.5,0.5c-1-0.4-2-1.3-3-2.5c-0.8-1-1.3-2.1-1.5-3.3c-0.2-1.4,0.2-2.5,1.2-3.3
			c0.9-0.8,2-1,3.1-0.6c1,0.3,1.9,0.9,2.7,1.9c1.3,1.6,2,2.9,2.2,4.1C97.6,64.7,97.2,65.7,96.2,66.5z M90.2,59.1
			c-0.6,0.5-0.9,1.3-0.7,2.3c0.1,0.8,0.5,1.6,1.1,2.3c1,1.1,1.8,1.9,2.6,2.2c0.8,0.3,1.5,0.2,2.1-0.3c0.7-0.6,0.9-1.5,0.5-2.6
			c-0.3-0.8-0.8-1.6-1.5-2.5c-0.8-0.9-1.5-1.5-2.2-1.8C91.4,58.4,90.8,58.6,90.2,59.1z" /></g><g><path fill="#EC1E43" d="M97.5,85.6l-1,0.9l-1,0.9c-0.2,0.2-0.4,0.3-0.6,0.4c-0.2,0.1-0.4,0-0.6-0.2c-0.3-0.4-0.2-0.8,0.4-1.2
			l0.3-0.2l0.2-0.2c-0.1-0.2-0.4-0.4-0.7-0.7c-0.3-0.3-0.5-0.5-0.7-0.7c-0.4-0.4-0.9-1.2-1.6-2.1c-0.7-1-1.2-1.7-1.6-2.1
			c-0.2,0.8-0.3,1.2-0.4,1.3c-0.1,0.1-0.3,0.2-0.5,0.1c-0.2,0-0.3-0.1-0.5-0.2c-0.1-0.2-0.2-0.5-0.1-1c0.1-0.3,0.2-0.7,0.3-1.3
			c0-0.6,0.2-1,0.5-1.2c0.2-0.2,0.5-0.2,0.7,0.1c0.1,0.1,0.2,0.2,0.3,0.4c0.1,0.2,0.2,0.3,0.3,0.4c0.1,0.1,0.2,0.3,0.5,0.5
			c0.2,0.2,0.4,0.4,0.5,0.5c0.3,0.4,0.8,1,1.4,1.9c0.6,0.9,1,1.5,1.4,1.9c0.2,0.2,0.4,0.4,0.7,0.7s0.5,0.5,0.6,0.7l0.5-0.5
			c0.1-0.1,0.3-0.2,0.5-0.2c0.2,0,0.3,0.1,0.4,0.2c0.1,0.1,0.2,0.3,0.2,0.5C97.8,85.3,97.7,85.4,97.5,85.6z" /><path fill="#EC1E43" d="M102,82.2c-0.5,0.4-1.1,0.7-1.7,0.9c-0.7,0.1-1.3,0-1.9-0.3c-0.1,0-0.1-0.1-0.2-0.2
			c-0.1-0.1-0.2-0.3-0.1-0.5c0-0.2,0.1-0.3,0.3-0.4c0.1-0.1,0.3-0.2,0.5-0.1l0.5,0.2c0.3,0.1,0.5,0.1,0.8,0c0.3-0.1,0.6-0.3,0.9-0.5
			c0.4-0.3,0.6-0.7,0.7-1.2c0.1-0.5,0-0.9-0.3-1.3c-0.4-0.5-1-0.8-1.6-0.8c-0.6,0-1.2,0.2-1.8,0.6c-0.4,0.3-0.7,0.3-1,0
			c-0.2-0.2-0.2-0.5,0.1-0.9l1-1.4c0.2-0.3,0.3-0.6,0.2-0.8c0-0.3-0.1-0.5-0.3-0.7c-0.3-0.3-0.6-0.5-1-0.4c-0.4,0-0.9,0.2-1.3,0.6
			c-0.2,0.2-0.4,0.5-0.5,0.8l-0.3,0.9C95,76.8,95,76.9,94.9,77c-0.1,0.1-0.3,0.2-0.5,0.1c-0.2,0-0.3-0.1-0.5-0.2
			c-0.2-0.3-0.2-0.8,0.1-1.5c0.3-0.6,0.6-1.1,0.9-1.3c0.8-0.6,1.5-1,2.2-1c0.8,0,1.4,0.3,2,0.9c0.7,0.8,0.8,1.6,0.4,2.5
			c0,0.1-0.1,0.2-0.1,0.2c0.6-0.2,1.2-0.3,1.7-0.1c0.5,0.1,1,0.5,1.4,1c0.6,0.7,0.8,1.5,0.7,2.4S102.7,81.6,102,82.2z" /><path fill="#EC1E43" d="M108.6,76.6c-1.1,0.9-2.2,1.1-3.5,0.5c-1-0.4-2-1.3-3-2.5c-0.8-1-1.3-2.1-1.5-3.3
			c-0.2-1.4,0.2-2.5,1.2-3.3c0.9-0.8,2-1,3.1-0.6c1,0.3,1.9,0.9,2.7,1.9c1.3,1.6,2,2.9,2.2,4.1C110,74.8,109.6,75.8,108.6,76.6z
			 M102.6,69.2c-0.6,0.5-0.9,1.3-0.7,2.3c0.1,0.8,0.5,1.6,1.1,2.3c1,1.1,1.8,1.9,2.6,2.2c0.8,0.3,1.5,0.2,2.1-0.3
			c0.7-0.6,0.9-1.5,0.5-2.6c-0.3-0.8-0.8-1.6-1.5-2.5c-0.8-0.9-1.5-1.5-2.2-1.8C103.8,68.5,103.2,68.7,102.6,69.2z" /></g></g><g><g><path d="M65.3,93.1l1.9,1.6c0.3,0.3,0.4,0.6,0.1,0.9C67,96,66.6,96,66.1,95.6c-0.1-0.1-0.1-0.1-0.3-0.2c-0.1-0.1-0.2-0.2-0.2-0.2
			l-1.2-1l-2,2.3c-0.4,0.5-0.7,0.8-0.9,1c-0.3,0.3-0.6,0.3-0.8,0.2c-0.2-0.1-0.3-0.4-0.4-0.8l-0.2-0.9l-1.6-5.7
			c-0.1-0.5,0-0.9,0.3-1.3c0.3-0.4,0.7-0.4,1-0.2l4.4,3.7c0-0.1,0.1-0.1,0.2-0.2c0.5-0.6,1-0.8,1.3-0.5c0.3,0.2,0.3,0.5,0.1,0.8
			C65.8,92.5,65.6,92.7,65.3,93.1z M60,90.4c0.7,2.2,1.2,3.8,1.5,5l1.9-2.1L60,90.4z" /><path d="M71.7,90.5c-0.9,1.1-2,1.4-3.4,1.1c-1.1-0.3-2.2-0.9-3.4-1.9c-1-0.8-1.7-1.8-2-2.9c-0.4-1.3-0.2-2.5,0.6-3.4
			c0.8-0.9,1.8-1.3,3-1.2c1,0.1,2.1,0.6,3,1.4c1.6,1.3,2.5,2.5,2.9,3.7C72.8,88.5,72.5,89.5,71.7,90.5z M64.5,84.2
			c-0.5,0.6-0.6,1.4-0.3,2.4c0.3,0.8,0.8,1.5,1.5,2.1c1.1,1,2.1,1.5,3,1.7c0.8,0.2,1.5-0.1,2-0.7c0.6-0.7,0.6-1.6,0.1-2.7
			c-0.4-0.7-1-1.5-1.9-2.2c-0.9-0.8-1.8-1.2-2.5-1.3S65,83.6,64.5,84.2z" /></g><g><path fill="#EC1E43" d="M76.2,109.3l-0.9,1l-0.9,1c-0.2,0.2-0.4,0.4-0.5,0.5c-0.2,0.1-0.4,0.1-0.6-0.1c-0.4-0.3-0.3-0.7,0.2-1.3
			l0.2-0.2L74,110c-0.2-0.1-0.4-0.3-0.8-0.6c-0.4-0.2-0.6-0.4-0.8-0.6c-0.4-0.4-1.1-1-1.9-1.8c-0.8-0.8-1.5-1.4-1.9-1.8
			c0,0.8-0.1,1.2-0.2,1.4c-0.1,0.1-0.3,0.2-0.5,0.2c-0.2,0-0.4,0-0.5-0.1c-0.2-0.1-0.2-0.5-0.2-1c0-0.3,0-0.7,0-1.3
			c-0.1-0.6,0-1,0.3-1.3c0.2-0.2,0.4-0.2,0.7,0c0.1,0.1,0.2,0.2,0.3,0.3s0.3,0.3,0.3,0.3c0.1,0.1,0.3,0.2,0.5,0.4
			c0.2,0.2,0.4,0.3,0.5,0.4c0.4,0.3,1,0.9,1.7,1.6s1.3,1.3,1.7,1.6c0.2,0.2,0.5,0.4,0.8,0.6c0.3,0.2,0.6,0.4,0.8,0.6l0.5-0.6
			c0.1-0.1,0.3-0.2,0.4-0.2c0.2,0,0.3,0,0.5,0.2c0.1,0.1,0.2,0.3,0.2,0.4C76.4,109,76.4,109.1,76.2,109.3z" /><path fill="#EC1E43" d="M79.1,101.1l1.9,1.6c0.3,0.3,0.4,0.6,0.1,0.9c-0.3,0.4-0.7,0.3-1.2-0.1c-0.1-0.1-0.1-0.1-0.3-0.2
			c-0.1-0.1-0.2-0.2-0.2-0.2l-1.2-1l-2,2.3c-0.4,0.5-0.7,0.8-0.9,1c-0.3,0.3-0.6,0.3-0.8,0.2c-0.2-0.1-0.3-0.4-0.4-0.8l-0.2-0.9
			l-1.6-5.7c-0.1-0.5,0-0.9,0.3-1.3c0.3-0.4,0.7-0.4,1-0.2l4.4,3.7c0-0.1,0.1-0.1,0.2-0.2c0.5-0.6,1-0.8,1.3-0.5
			c0.3,0.2,0.3,0.5,0.1,0.8C79.7,100.5,79.5,100.8,79.1,101.1z M73.9,98.4c0.7,2.2,1.2,3.8,1.5,5l1.9-2.1L73.9,98.4z" /><path fill="#EC1E43" d="M85.6,98.5c-0.9,1.1-2,1.4-3.4,1.1c-1.1-0.3-2.2-0.9-3.4-1.9c-1-0.8-1.7-1.8-2-2.9
			c-0.4-1.3-0.2-2.5,0.6-3.4c0.8-0.9,1.8-1.3,3-1.2c1,0.1,2.1,0.6,3,1.4c1.6,1.3,2.5,2.5,2.9,3.7S86.4,97.5,85.6,98.5z M78.4,92.2
			c-0.5,0.6-0.6,1.4-0.3,2.4c0.3,0.8,0.8,1.5,1.5,2.1c1.1,1,2.1,1.5,3,1.7s1.5-0.1,2-0.7c0.6-0.7,0.6-1.6,0.1-2.7
			c-0.4-0.7-1-1.5-1.9-2.2c-0.9-0.8-1.8-1.2-2.5-1.3C79.5,91.4,78.9,91.6,78.4,92.2z" /></g></g><g><g><path d="M47.3,124.3c-0.3,0.6-0.8,1.1-1.3,1.4c-0.6,0.4-1.2,0.5-1.8,0.4c-0.1,0-0.2,0-0.2-0.1c-0.2-0.1-0.3-0.2-0.3-0.4
			s0-0.4,0.1-0.5s0.2-0.3,0.5-0.3l0.6,0c0.3,0,0.5-0.1,0.8-0.3c0.2-0.2,0.5-0.4,0.6-0.8c0.2-0.4,0.3-0.9,0.3-1.4
			c-0.1-0.5-0.3-0.9-0.7-1.1c-0.6-0.3-1.2-0.4-1.8-0.2c-0.5,0.2-1,0.6-1.5,1.2c-0.3,0.4-0.6,0.5-0.9,0.3c-0.2-0.1-0.3-0.4-0.2-0.8
			l0.5-1.6c0.1-0.3,0-0.6,0-0.8s-0.3-0.4-0.5-0.6c-0.3-0.2-0.7-0.2-1.1-0.1c-0.4,0.2-0.7,0.5-1,1c-0.2,0.3-0.2,0.6-0.3,0.9l0,0.9
			c0,0.2,0,0.3-0.1,0.4c-0.1,0.2-0.2,0.3-0.4,0.3c-0.2,0-0.4,0-0.5-0.1c-0.3-0.2-0.4-0.7-0.4-1.4c0-0.7,0.2-1.2,0.4-1.5
			c0.5-0.8,1.1-1.4,1.7-1.7c0.7-0.3,1.4-0.2,2.2,0.2c0.9,0.5,1.3,1.3,1.2,2.2c0,0.1,0,0.2-0.1,0.3c0.5-0.4,1-0.6,1.5-0.7
			c0.5,0,1.1,0.1,1.7,0.4c0.8,0.4,1.3,1.1,1.5,2C47.9,122.7,47.7,123.6,47.3,124.3z" /><path d="M51.5,116.9c-0.7,1.2-1.7,1.8-3.2,1.7c-1.1-0.1-2.3-0.5-3.7-1.3c-1.1-0.7-2-1.5-2.5-2.5c-0.6-1.2-0.6-2.4,0-3.5
			c0.6-1,1.5-1.6,2.7-1.7c1.1-0.1,2.1,0.2,3.2,0.9c1.8,1,2.9,2.1,3.5,3.1C52.2,114.7,52.2,115.8,51.5,116.9z M43.3,111.9
			c-0.4,0.7-0.4,1.5,0.1,2.4c0.4,0.7,1,1.3,1.8,1.8c1.3,0.7,2.4,1.1,3.2,1.2c0.9,0,1.5-0.3,1.9-1c0.5-0.8,0.4-1.7-0.4-2.6
			c-0.5-0.6-1.3-1.2-2.3-1.8c-1.1-0.6-2-0.9-2.7-0.9C44.3,110.9,43.7,111.3,43.3,111.9z" /></g><g><path fill="#EC1E43" d="M59.3,134.2l-0.7,1.2l-0.7,1.2c-0.2,0.3-0.3,0.5-0.4,0.5c-0.2,0.2-0.4,0.2-0.6,0c-0.4-0.2-0.4-0.7-0.1-1.3
			l0.2-0.3l0.2-0.2c-0.2-0.1-0.5-0.3-0.9-0.4c-0.4-0.2-0.7-0.3-0.9-0.4c-0.5-0.3-1.2-0.8-2.2-1.5c-1-0.7-1.7-1.2-2.2-1.4
			c0.1,0.8,0.1,1.2,0,1.4c-0.1,0.2-0.2,0.3-0.4,0.3c-0.2,0-0.4,0-0.5-0.1c-0.2-0.1-0.3-0.4-0.4-0.9c0-0.3-0.1-0.7-0.2-1.3
			c-0.2-0.6-0.1-1,0-1.3c0.2-0.3,0.4-0.3,0.7-0.1c0.1,0.1,0.2,0.1,0.4,0.3c0.2,0.1,0.3,0.2,0.4,0.3c0.1,0.1,0.3,0.2,0.6,0.3
			s0.5,0.2,0.6,0.3c0.4,0.3,1.1,0.7,1.9,1.3c0.8,0.6,1.5,1,1.9,1.3c0.2,0.1,0.5,0.3,0.9,0.4c0.3,0.2,0.6,0.3,0.8,0.4l0.3-0.6
			c0.1-0.2,0.2-0.3,0.4-0.3s0.3,0,0.5,0.1c0.2,0.1,0.3,0.2,0.3,0.4C59.4,133.8,59.4,134,59.3,134.2z" /><path fill="#EC1E43" d="M62.3,129.8c-0.6,1.1-1.5,1.7-2.7,1.8c-0.2,0-0.3,0-0.4-0.1c-0.2-0.1-0.3-0.2-0.3-0.4s0-0.4,0.1-0.5
			c0.1-0.2,0.3-0.3,0.5-0.3c0.4-0.1,0.6-0.1,0.8-0.2c0.3-0.2,0.6-0.5,0.9-0.9c0.4-0.7,0.5-1.4,0.2-2.2c-0.2-0.7-0.7-1.3-1.4-1.7
			c-0.6-0.3-1.1-0.5-1.6-0.5c-0.6,0-1,0.2-1.3,0.7c-0.2,0.4-0.4,0.8-0.4,1.1c0,0.3,0,0.6,0.1,0.9l0.3,1.1c0.1,0.3,0.1,0.5,0,0.7
			c-0.1,0.2-0.2,0.3-0.4,0.3c-0.2,0-0.3,0-0.5-0.1c-0.1,0-0.4-0.3-1-0.7c-1.2-0.9-1.9-1.4-2.3-1.6c-0.1-0.1-0.3-0.1-0.5-0.2
			c-0.2,0-0.3-0.1-0.4-0.1c-0.2-0.1-0.2-0.4,0-0.8c0-0.1,0.1-0.2,0.2-0.3c0.1-0.2,0.2-0.3,0.2-0.3c0.1-0.2,0.3-0.6,0.6-1
			c0.2-0.5,0.4-0.8,0.6-1c0.1-0.1,0.2-0.3,0.3-0.5c0.1-0.2,0.2-0.4,0.3-0.5c0-0.1,0.1-0.2,0.1-0.4c0.1-0.2,0.1-0.3,0.1-0.3
			c0.1-0.2,0.2-0.3,0.4-0.3c0.2-0.1,0.3,0,0.5,0.1c0.4,0.3,0.4,0.9-0.1,1.8c-0.1,0.1-0.2,0.3-0.3,0.5c-0.1,0.2-0.2,0.3-0.2,0.3
			l-0.6,1l-0.5,1c0.2,0.1,0.8,0.6,1.8,1.4c-0.1-0.8,0.1-1.6,0.6-2.5c0.5-0.9,1.2-1.3,2.2-1.4c0.8-0.1,1.6,0.2,2.5,0.7
			c1.1,0.6,1.8,1.4,2.1,2.5C63.1,127.6,62.9,128.7,62.3,129.8z" /><path fill="#EC1E43" d="M66.6,122c-0.7,1.2-1.7,1.8-3.2,1.7c-1.1-0.1-2.3-0.5-3.7-1.3c-1.1-0.7-2-1.5-2.5-2.5
			c-0.6-1.2-0.6-2.4,0-3.5c0.6-1,1.5-1.6,2.7-1.7c1.1-0.1,2.1,0.2,3.2,0.9c1.8,1,2.9,2.1,3.5,3.1C67.3,119.8,67.3,120.9,66.6,122z
			 M58.4,117c-0.4,0.7-0.4,1.5,0.1,2.4c0.4,0.7,1,1.3,1.8,1.8c1.3,0.7,2.4,1.1,3.2,1.2s1.5-0.3,1.9-1c0.5-0.8,0.4-1.7-0.4-2.6
			c-0.5-0.6-1.3-1.2-2.3-1.8c-1.1-0.6-2-0.9-2.7-0.9C59.4,116,58.8,116.4,58.4,117z" /></g></g><g><g><path d="M34.7,152.2c0,0.1-0.1,0.2-0.3,0.4c-0.1,0.2-0.2,0.3-0.3,0.4c-0.1,0.2-0.2,0.6-0.3,1c-0.1,0.4-0.2,0.8-0.3,1
			c-0.1,0.2-0.1,0.4-0.2,0.8s-0.1,0.6-0.2,0.8c0,0-0.1,0.1-0.1,0.2s-0.1,0.1-0.1,0.2c-0.1,0.3-0.3,0.4-0.6,0.4
			c-0.2,0-0.4-0.1-0.8-0.2c-1-0.4-1.7-0.9-2.1-1.7c-0.2-0.3-0.5-1.2-0.8-2.6c-0.2-0.8-0.4-1.3-0.5-1.6c-0.3-0.5-0.7-0.9-1.2-1.1
			c-0.3-0.1-0.6,0-0.9,0.3c-0.3,0.2-0.5,0.5-0.6,0.8c-0.1,0.4-0.2,0.8-0.1,1.2l0.4,1.2c0.1,0.2,0.1,0.4,0.1,0.5
			c-0.2,0.4-0.4,0.6-0.8,0.5c-0.2-0.1-0.3-0.2-0.4-0.4c-0.3-0.7-0.5-1.2-0.5-1.7c-0.1-0.6-0.1-1.2,0.1-1.8c0.3-0.7,0.7-1.2,1.2-1.7
			c0.6-0.5,1.3-0.6,2-0.3c0.4,0.2,0.8,0.4,1.1,0.6c0.3,0.3,0.6,0.6,0.8,0.9c0.3,0.5,0.5,1.2,0.7,2.1c0.2,1,0.4,1.7,0.6,2
			c0.3,0.7,0.8,1.1,1.5,1.4l0.4-1.4c0.3-0.9,0.5-1.6,0.6-2c0.1-0.3,0.3-0.6,0.5-0.9c0.3-0.3,0.6-0.4,0.8-0.4
			c0.2,0.1,0.3,0.2,0.4,0.3S34.7,152,34.7,152.2z" /><path d="M36.9,146.8c-0.5,1.3-1.4,2-2.8,2.2c-1.1,0.1-2.4-0.1-3.8-0.6c-1.2-0.5-2.2-1.1-2.9-2.1c-0.8-1.1-1-2.2-0.6-3.4
			c0.4-1.1,1.2-1.8,2.4-2.1c1-0.2,2.1-0.1,3.3,0.3c1.9,0.7,3.2,1.5,4,2.5S37.3,145.5,36.9,146.8z M28,143.3
			c-0.3,0.8-0.1,1.6,0.5,2.3c0.5,0.6,1.2,1.1,2.1,1.4c1.4,0.5,2.5,0.7,3.4,0.6c0.8-0.1,1.4-0.6,1.7-1.3c0.3-0.9,0-1.7-0.8-2.5
			c-0.6-0.5-1.5-1-2.6-1.4c-1.2-0.4-2.1-0.6-2.8-0.4S28.2,142.6,28,143.3z" /></g><g><path fill="#EC1E43" d="M47.5,162.4l-0.5,1.3l-0.5,1.3c-0.1,0.3-0.2,0.5-0.3,0.6c-0.2,0.2-0.4,0.2-0.6,0.1
			c-0.4-0.2-0.5-0.6-0.3-1.2l0.1-0.3l0.1-0.3c-0.2-0.1-0.5-0.2-0.9-0.3c-0.4-0.1-0.7-0.2-0.9-0.3c-0.5-0.2-1.4-0.5-2.4-1.1
			c-1.1-0.5-1.9-0.8-2.4-1c0.2,0.7,0.3,1.2,0.3,1.3c-0.1,0.2-0.2,0.3-0.4,0.4c-0.2,0.1-0.3,0.1-0.5,0c-0.2-0.1-0.4-0.3-0.5-0.8
			c-0.1-0.3-0.2-0.7-0.4-1.3c-0.2-0.5-0.3-0.9-0.2-1.3c0.1-0.3,0.3-0.4,0.7-0.3c0.1,0,0.2,0.1,0.4,0.2s0.3,0.2,0.4,0.2
			c0.1,0.1,0.4,0.1,0.7,0.2s0.5,0.2,0.7,0.2c0.5,0.2,1.2,0.5,2.1,0.9c0.9,0.5,1.6,0.8,2.1,0.9c0.2,0.1,0.6,0.2,0.9,0.3
			s0.7,0.2,0.9,0.3l0.2-0.7c0.1-0.2,0.2-0.3,0.3-0.4c0.2-0.1,0.3-0.1,0.5,0c0.2,0.1,0.3,0.2,0.4,0.3C47.5,162,47.6,162.2,47.5,162.4
			z" /><path fill="#EC1E43" d="M49.8,157.3c-0.4,1.1-1.1,1.8-2.1,2c-0.8,0.2-1.8,0.1-2.9-0.3c-2.1-0.8-3.6-2.3-4.6-4.6l-0.4-0.8
			c-0.2-0.4-0.2-0.7-0.2-0.8c0.1-0.2,0.2-0.3,0.3-0.4c0.2-0.1,0.3-0.1,0.5,0c0.2,0,0.4,0.4,0.7,1l0.8,1.8c0.2,0.5,0.6,1,1.3,1.5
			c0-0.4,0-0.8,0-1.1c0-0.3,0.1-0.6,0.1-0.7c0.4-1,0.9-1.7,1.6-2c0.7-0.3,1.6-0.3,2.6,0c1,0.4,1.8,1,2.2,1.8
			C50.2,155.4,50.2,156.3,49.8,157.3z M44.6,155.4c-0.1,0.4-0.2,0.7-0.2,1.1c0,0.1,0.1,0.5,0.2,1c0.2,0.1,0.4,0.2,0.7,0.3
			c0.8,0.3,1.4,0.4,2,0.3c0.7-0.1,1.2-0.5,1.5-1.2c0.2-0.6,0.2-1.2-0.1-1.8c-0.3-0.5-0.8-0.9-1.5-1.1c-0.6-0.2-1.1-0.2-1.5,0
			S44.8,154.7,44.6,155.4z" /><path fill="#EC1E43" d="M52.6,149.1c-0.5,1.3-1.4,2-2.8,2.2c-1.1,0.1-2.4-0.1-3.8-0.6c-1.2-0.5-2.2-1.1-2.9-2.1
			c-0.8-1.1-1-2.2-0.6-3.4c0.4-1.1,1.2-1.8,2.4-2.1c1-0.2,2.1-0.1,3.3,0.3c1.9,0.7,3.2,1.5,4,2.5C52.9,146.8,53,147.9,52.6,149.1z
			 M43.7,145.6c-0.3,0.8-0.1,1.6,0.5,2.3c0.5,0.6,1.2,1.1,2.1,1.4c1.4,0.5,2.5,0.7,3.4,0.6c0.8-0.1,1.4-0.6,1.7-1.3
			c0.3-0.9,0-1.7-0.8-2.5c-0.6-0.5-1.5-1-2.6-1.4c-1.2-0.4-2.1-0.6-2.8-0.4S43.9,144.9,43.7,145.6z" /></g></g><g><g><path d="M26.2,186.1l-0.2,1.3l-0.2,1.3c-0.1,0.3-0.1,0.5-0.2,0.6c-0.1,0.2-0.3,0.3-0.6,0.3c-0.5-0.1-0.6-0.5-0.5-1.2l0.1-0.3
			l0.1-0.3c-0.2,0-0.5-0.1-1-0.1c-0.4,0-0.7-0.1-1-0.1c-0.6-0.1-1.4-0.3-2.6-0.6c-1.1-0.3-2-0.5-2.6-0.6c0.4,0.7,0.5,1.1,0.5,1.3
			c0,0.2-0.1,0.3-0.3,0.4c-0.2,0.1-0.3,0.1-0.5,0.1c-0.2,0-0.4-0.3-0.7-0.7c-0.1-0.3-0.3-0.7-0.6-1.2c-0.3-0.5-0.5-0.9-0.4-1.2
			c0.1-0.3,0.3-0.4,0.6-0.4c0.1,0,0.3,0.1,0.5,0.1c0.2,0.1,0.4,0.1,0.5,0.1c0.1,0,0.4,0.1,0.7,0.1s0.5,0.1,0.7,0.1
			c0.5,0.1,1.3,0.3,2.3,0.6s1.7,0.5,2.3,0.6c0.3,0,0.6,0.1,1,0.1s0.7,0.1,0.9,0.1l0.1-0.7c0-0.2,0.1-0.3,0.3-0.4s0.3-0.1,0.5-0.1
			c0.2,0,0.3,0.1,0.4,0.3C26.2,185.7,26.2,185.9,26.2,186.1z" /><path d="M27.4,180.5c-0.2,1.4-1,2.3-2.4,2.7c-1,0.3-2.3,0.3-3.9,0.1c-1.3-0.2-2.4-0.7-3.2-1.5c-1-0.9-1.4-2-1.2-3.3
			c0.2-1.2,0.9-2,2-2.5c1-0.4,2.1-0.5,3.3-0.3c2,0.4,3.5,0.9,4.4,1.8C27.3,178.2,27.7,179.3,27.4,180.5z M18,178.7
			c-0.1,0.8,0.2,1.6,0.9,2.2c0.6,0.5,1.4,0.9,2.3,1c1.5,0.3,2.6,0.3,3.4,0c0.8-0.3,1.3-0.8,1.4-1.6c0.2-1-0.3-1.7-1.3-2.3
			c-0.7-0.4-1.6-0.7-2.8-0.9c-1.2-0.2-2.2-0.2-2.8,0.1C18.6,177.4,18.2,177.9,18,178.7z" /></g><g><path fill="#EC1E43" d="M40.8,193l-0.2,1.3l-0.2,1.3c-0.1,0.3-0.1,0.5-0.2,0.6c-0.1,0.2-0.3,0.3-0.6,0.3c-0.5-0.1-0.6-0.5-0.5-1.2
			l0.1-0.3l0.1-0.3c-0.2,0-0.5-0.1-1-0.1c-0.4,0-0.7-0.1-1-0.1c-0.6-0.1-1.4-0.3-2.6-0.6c-1.1-0.3-2-0.5-2.6-0.6
			c0.4,0.7,0.5,1.1,0.5,1.3c0,0.2-0.1,0.3-0.3,0.4c-0.2,0.1-0.3,0.1-0.5,0.1c-0.2,0-0.4-0.3-0.7-0.7c-0.1-0.3-0.3-0.7-0.6-1.2
			c-0.3-0.5-0.5-0.9-0.4-1.2c0.1-0.3,0.3-0.4,0.6-0.4c0.1,0,0.3,0.1,0.5,0.1s0.4,0.1,0.5,0.1c0.1,0,0.4,0.1,0.7,0.1s0.5,0.1,0.7,0.1
			c0.5,0.1,1.3,0.3,2.3,0.6c1,0.3,1.7,0.5,2.3,0.6c0.3,0,0.6,0.1,1,0.1s0.7,0.1,0.9,0.1l0.1-0.7c0-0.2,0.1-0.3,0.3-0.4
			s0.3-0.1,0.5-0.1c0.2,0,0.3,0.1,0.4,0.3C40.8,192.6,40.8,192.8,40.8,193z" /><path fill="#EC1E43" d="M33.6,182.2l0.6,0.7c0.6,0.7,1.3,1.4,2.2,2l2.5,1.7c0.2,0.1,0.7,0.4,1.5,0.8c0.6,0.4,1.1,0.7,1.4,0.9
			c0.2,0.2,0.3,0.4,0.2,0.6c0,0.2-0.1,0.3-0.3,0.4s-0.3,0.2-0.5,0.1c-0.2,0-0.6-0.3-1.2-0.7l-3.4-2.2c-1.3-0.9-2.4-1.8-3-2.7
			l-0.1-0.2l-0.7,3.4l-0.3,1.5c-0.1,0.4-0.4,0.6-0.8,0.5c-0.2,0-0.3-0.1-0.4-0.3s-0.1-0.3-0.1-0.5c0.1-0.6,0.3-1.4,0.5-2.5
			c0.2-1.1,0.4-2,0.5-2.5l0.2-1.2c0.1-0.5,0.3-0.7,0.5-0.6C33.1,181.7,33.3,181.9,33.6,182.2z" /><path fill="#EC1E43" d="M43.5,179c-0.2,1.4-1,2.3-2.4,2.7c-1,0.3-2.3,0.3-3.9,0.1c-1.3-0.2-2.4-0.7-3.2-1.5c-1-0.9-1.4-2-1.2-3.3
			c0.2-1.2,0.9-2,2-2.5c1-0.4,2.1-0.5,3.3-0.3c2,0.4,3.5,0.9,4.4,1.8C43.4,176.7,43.8,177.8,43.5,179z M34.1,177.2
			c-0.1,0.8,0.2,1.6,0.9,2.2c0.6,0.5,1.4,0.9,2.3,1c1.5,0.3,2.6,0.3,3.4,0c0.8-0.3,1.3-0.8,1.4-1.6c0.2-1-0.3-1.7-1.3-2.3
			c-0.7-0.4-1.6-0.7-2.8-0.9c-1.2-0.2-2.2-0.2-2.8,0.1C34.7,175.9,34.3,176.4,34.1,177.2z" /></g></g><g><g><path d="M406.6,176.2l-0.2-1.3l-0.2-1.3c-0.1-0.3-0.1-0.5-0.1-0.7c0-0.2,0.2-0.4,0.5-0.4c0.5-0.1,0.7,0.2,0.9,0.9l0.1,0.3l0,0.3
			c0.2,0,0.5-0.1,0.9-0.2c0.4-0.1,0.7-0.2,0.9-0.2c0.6-0.1,1.4-0.2,2.6-0.3c1.2-0.1,2-0.2,2.6-0.3c-0.6-0.5-0.9-0.9-0.9-1
			c0-0.2,0-0.3,0.1-0.5s0.3-0.2,0.4-0.3c0.2,0,0.5,0.1,0.9,0.4c0.2,0.2,0.5,0.5,1,0.9c0.5,0.3,0.7,0.7,0.8,1
			c0.1,0.3-0.1,0.5-0.4,0.5c-0.1,0-0.3,0-0.5,0c-0.2,0-0.4,0-0.5,0c-0.1,0-0.4,0.1-0.7,0.1c-0.3,0.1-0.5,0.1-0.7,0.1
			c-0.5,0.1-1.3,0.2-2.3,0.2s-1.8,0.2-2.3,0.2c-0.3,0-0.6,0.1-0.9,0.2s-0.7,0.2-0.9,0.2l0.1,0.7c0,0.2,0,0.4-0.1,0.5
			c-0.1,0.1-0.2,0.2-0.4,0.3c-0.2,0-0.4,0-0.5-0.1C406.7,176.5,406.6,176.4,406.6,176.2z" /><path d="M417,183.9l-0.8-0.5c-0.8-0.5-1.7-0.9-2.8-1.2l-2.9-0.8c-0.2-0.1-0.8-0.1-1.7-0.3c-0.7-0.1-1.2-0.2-1.6-0.4
			c-0.2-0.1-0.4-0.2-0.4-0.5c0-0.2,0-0.3,0.1-0.5c0.1-0.2,0.2-0.3,0.4-0.3c0.2,0,0.6,0,1.4,0.2l4,0.9c1.6,0.4,2.8,0.9,3.8,1.5
			l0.2,0.1l-0.5-3.4l-0.2-1.5c0-0.4,0.1-0.7,0.5-0.8c0.2,0,0.4,0,0.5,0.1s0.2,0.3,0.3,0.4c0.1,0.6,0.2,1.4,0.4,2.6
			c0.2,1.1,0.3,2,0.4,2.6l0.2,1.2c0.1,0.5,0,0.7-0.3,0.8C417.7,184.2,417.4,184.1,417,183.9z" /><path d="M408.8,190.2c-0.2-1.4,0.2-2.5,1.3-3.3c0.9-0.6,2.1-1.1,3.6-1.4c1.3-0.2,2.5-0.1,3.6,0.3c1.3,0.5,2,1.4,2.2,2.7
			c0.2,1.2-0.1,2.2-1,3c-0.8,0.7-1.8,1.2-3,1.4c-2,0.4-3.6,0.3-4.7-0.2C409.7,192.4,409,191.5,408.8,190.2z M418.3,188.8
			c-0.1-0.8-0.7-1.4-1.6-1.8c-0.8-0.3-1.6-0.3-2.5-0.2c-1.5,0.3-2.5,0.7-3.2,1.2s-0.9,1.2-0.8,2c0.2,1,0.8,1.5,2,1.8
			c0.8,0.2,1.8,0.1,2.9-0.1c1.2-0.2,2.1-0.6,2.6-1.1C418.2,190.2,418.4,189.5,418.3,188.8z" /></g><g><path fill="#EC1E43" d="M391.8,183.2l-0.2-1.3l-0.2-1.3c-0.1-0.3-0.1-0.5-0.1-0.7c0-0.2,0.2-0.4,0.5-0.4c0.5-0.1,0.7,0.2,0.9,0.9
			l0.1,0.3l0,0.3c0.2,0,0.5-0.1,0.9-0.2s0.7-0.2,0.9-0.2c0.6-0.1,1.4-0.2,2.6-0.3c1.2-0.1,2-0.2,2.6-0.3c-0.6-0.5-0.9-0.9-0.9-1
			c0-0.2,0-0.3,0.1-0.5c0.1-0.2,0.3-0.2,0.4-0.3c0.2,0,0.5,0.1,0.9,0.4c0.2,0.2,0.5,0.5,1,0.9c0.5,0.3,0.7,0.7,0.8,1
			c0.1,0.3-0.1,0.5-0.4,0.5c-0.1,0-0.3,0-0.5,0c-0.2,0-0.4,0-0.5,0c-0.1,0-0.4,0.1-0.7,0.1c-0.3,0.1-0.5,0.1-0.7,0.1
			c-0.5,0.1-1.3,0.2-2.3,0.2c-1,0.1-1.8,0.2-2.3,0.2c-0.3,0-0.6,0.1-0.9,0.2c-0.4,0.1-0.7,0.2-0.9,0.2l0.1,0.7c0,0.2,0,0.4-0.1,0.5
			c-0.1,0.1-0.2,0.2-0.4,0.3c-0.2,0-0.4,0-0.5-0.1C391.9,183.5,391.8,183.3,391.8,183.2z" /><path fill="#EC1E43" d="M392.5,188.8c-0.2-1.4,0.2-2.5,1.3-3.3c0.9-0.6,2.1-1.1,3.6-1.4c1.3-0.2,2.5-0.1,3.6,0.3
			c1.3,0.5,2,1.4,2.2,2.7c0.2,1.2-0.1,2.2-1,3c-0.8,0.7-1.8,1.2-3,1.4c-2,0.4-3.6,0.3-4.7-0.2C393.4,190.9,392.8,190.1,392.5,188.8z
			 M402,187.3c-0.1-0.8-0.7-1.4-1.6-1.8c-0.8-0.3-1.6-0.3-2.5-0.2c-1.5,0.3-2.5,0.7-3.2,1.2c-0.7,0.5-0.9,1.2-0.8,2
			c0.2,1,0.8,1.5,2,1.8c0.8,0.2,1.8,0.1,2.9-0.1c1.2-0.2,2.1-0.6,2.6-1.1C401.9,188.7,402.1,188.1,402,187.3z" /></g></g><g><g><path d="M396.3,143.5l-0.5-1.3l-0.5-1.3c-0.1-0.3-0.2-0.5-0.2-0.7c0-0.2,0.1-0.4,0.4-0.5c0.4-0.2,0.8,0.1,1,0.8l0.1,0.3l0.1,0.3
			c0.2-0.1,0.5-0.2,0.9-0.4c0.4-0.2,0.7-0.3,0.9-0.4c0.5-0.2,1.4-0.4,2.5-0.8c1.1-0.3,2-0.6,2.5-0.8c-0.7-0.4-1-0.7-1.1-0.9
			c-0.1-0.2-0.1-0.3,0-0.5c0.1-0.2,0.2-0.3,0.4-0.4c0.2-0.1,0.5,0,0.9,0.3c0.2,0.2,0.6,0.4,1.1,0.7c0.5,0.2,0.8,0.5,1,0.9
			c0.1,0.3,0,0.5-0.3,0.6c-0.1,0-0.2,0.1-0.5,0.1c-0.2,0-0.4,0.1-0.5,0.1c-0.1,0.1-0.4,0.1-0.6,0.3c-0.3,0.1-0.5,0.2-0.6,0.3
			c-0.5,0.2-1.2,0.4-2.2,0.6c-1,0.2-1.7,0.5-2.2,0.6c-0.2,0.1-0.5,0.2-0.9,0.4c-0.3,0.2-0.6,0.3-0.9,0.4l0.3,0.7
			c0.1,0.2,0.1,0.3,0,0.5c-0.1,0.2-0.2,0.3-0.4,0.3c-0.2,0.1-0.3,0.1-0.5,0S396.4,143.6,396.3,143.5z" /><path d="M397.8,148.9c-0.4-1.1-0.3-2.1,0.3-2.9c0.5-0.7,1.3-1.2,2.5-1.6c2.1-0.8,4.3-0.6,6.4,0.6l0.8,0.4c0.4,0.2,0.6,0.4,0.7,0.5
			c0.1,0.2,0.1,0.3,0,0.5s-0.2,0.3-0.4,0.4c-0.2,0.1-0.5,0-1.1-0.3l-1.8-0.8c-0.5-0.2-1.1-0.3-1.9-0.3c0.3,0.3,0.6,0.6,0.7,0.8
			s0.3,0.5,0.4,0.6c0.4,1,0.4,1.9,0,2.6c-0.3,0.7-1,1.3-2,1.6c-1,0.4-2,0.4-2.8,0C398.8,150.6,398.2,149.9,397.8,148.9z
			 M403.1,146.9c-0.1-0.4-0.3-0.7-0.6-0.9c-0.1-0.1-0.4-0.3-0.8-0.7c-0.2,0.1-0.5,0.1-0.7,0.2c-0.8,0.3-1.3,0.6-1.7,1.1
			c-0.5,0.5-0.6,1.2-0.4,1.9c0.2,0.6,0.6,1.1,1.2,1.3c0.5,0.2,1.2,0.1,1.9-0.1c0.6-0.2,1-0.5,1.1-1
			C403.4,148.2,403.3,147.6,403.1,146.9z" /><path d="M401,156.9c-0.5-1.3-0.2-2.5,0.7-3.5c0.8-0.8,1.9-1.4,3.3-2c1.2-0.5,2.4-0.6,3.6-0.3c1.3,0.3,2.2,1.1,2.7,2.3
			c0.4,1.1,0.2,2.2-0.5,3.2c-0.6,0.8-1.5,1.5-2.7,1.9c-1.9,0.7-3.5,0.9-4.7,0.7C402.2,158.9,401.4,158.1,401,156.9z M410,153.8
			c-0.3-0.8-0.9-1.3-1.9-1.5c-0.8-0.1-1.7-0.1-2.5,0.3c-1.4,0.5-2.4,1.1-3,1.7c-0.6,0.6-0.7,1.3-0.4,2.1c0.3,0.9,1.1,1.4,2.3,1.4
			c0.8,0,1.8-0.2,2.9-0.6c1.2-0.4,2-0.9,2.4-1.5C410.2,155.2,410.3,154.5,410,153.8z" /></g><g><path fill="#EC1E43" d="M383.3,153.8c0-0.1-0.1-0.3-0.1-0.5c0-0.2,0-0.4-0.1-0.5c-0.1-0.2-0.2-0.5-0.4-1s-0.3-0.8-0.4-1
			c-0.1-0.2-0.2-0.4-0.3-0.7c-0.2-0.3-0.3-0.6-0.3-0.7c0,0,0-0.1,0-0.2c0-0.1,0-0.2,0-0.2c-0.1-0.3,0-0.5,0.2-0.7
			c0.1-0.1,0.4-0.2,0.7-0.4c1-0.4,1.9-0.4,2.7-0.1c0.4,0.1,1.1,0.6,2.3,1.4c0.6,0.5,1.1,0.7,1.4,0.9c0.5,0.2,1.1,0.2,1.6,0
			c0.3-0.1,0.5-0.4,0.5-0.8c0.1-0.4,0.1-0.7,0-1c-0.1-0.4-0.4-0.7-0.7-1l-1.1-0.7c-0.2-0.1-0.3-0.3-0.4-0.4
			c-0.2-0.4-0.1-0.7,0.3-0.9c0.2-0.1,0.4-0.1,0.6,0.1c0.7,0.3,1.2,0.6,1.5,0.9c0.5,0.4,0.8,0.9,1,1.4c0.3,0.7,0.3,1.4,0.1,2.1
			c-0.2,0.8-0.6,1.3-1.3,1.5c-0.4,0.2-0.9,0.2-1.3,0.3c-0.4,0-0.8-0.1-1.2-0.2c-0.5-0.2-1.1-0.6-1.9-1.2c-0.8-0.6-1.4-1-1.7-1.2
			c-0.7-0.3-1.3-0.3-2,0l0.6,1.3c0.4,0.9,0.6,1.5,0.8,1.9c0.1,0.3,0.2,0.7,0.2,1c0,0.4-0.1,0.7-0.4,0.8c-0.2,0.1-0.3,0.1-0.5,0
			C383.5,154,383.4,153.9,383.3,153.8z" /><path fill="#EC1E43" d="M385.1,159.3c-0.5-1.3-0.2-2.5,0.7-3.5c0.8-0.8,1.9-1.4,3.3-2c1.2-0.5,2.4-0.6,3.6-0.3
			c1.3,0.3,2.2,1.1,2.7,2.3c0.4,1.1,0.2,2.2-0.5,3.2c-0.6,0.8-1.5,1.5-2.7,1.9c-1.9,0.7-3.5,0.9-4.7,0.7
			C386.3,161.3,385.5,160.5,385.1,159.3z M394.1,156.2c-0.3-0.8-0.9-1.3-1.9-1.5c-0.8-0.1-1.7-0.1-2.5,0.3c-1.4,0.5-2.4,1.1-3,1.7
			c-0.6,0.6-0.7,1.3-0.4,2.1c0.3,0.9,1.1,1.4,2.3,1.4c0.8,0,1.8-0.2,2.9-0.6c1.2-0.4,2-0.9,2.4-1.5
			C394.3,157.6,394.4,157,394.1,156.2z" /></g></g><g><g><path d="M381.8,115.2l-0.7-1.2l-0.7-1.2c-0.2-0.3-0.3-0.5-0.3-0.6c0-0.2,0-0.4,0.3-0.6c0.4-0.2,0.8,0,1.1,0.6l0.2,0.3l0.1,0.2
			c0.2-0.1,0.5-0.3,0.8-0.5c0.4-0.2,0.6-0.4,0.8-0.5c0.5-0.3,1.3-0.7,2.4-1.2c1.1-0.5,1.8-0.9,2.4-1.2c-0.7-0.3-1.1-0.5-1.2-0.7
			c-0.1-0.2-0.1-0.3-0.1-0.5c0.1-0.2,0.2-0.3,0.3-0.4c0.2-0.1,0.5-0.1,1,0.1c0.3,0.1,0.7,0.3,1.2,0.5c0.6,0.1,0.9,0.4,1.1,0.7
			c0.2,0.3,0.1,0.5-0.2,0.7c-0.1,0.1-0.2,0.1-0.4,0.2s-0.3,0.1-0.4,0.2c-0.1,0.1-0.3,0.2-0.6,0.4c-0.3,0.2-0.4,0.3-0.6,0.4
			c-0.4,0.3-1.1,0.6-2.1,1c-0.9,0.4-1.6,0.8-2.1,1c-0.2,0.1-0.5,0.3-0.8,0.5s-0.6,0.4-0.8,0.5l0.4,0.6c0.1,0.2,0.1,0.3,0.1,0.5
			c0,0.2-0.1,0.3-0.3,0.4c-0.2,0.1-0.3,0.1-0.5,0.1C382.1,115.5,381.9,115.4,381.8,115.2z" /><path d="M384.1,120c-0.6-1.1-0.7-2.2-0.2-3.2c0.1-0.1,0.2-0.2,0.3-0.3c0.2-0.1,0.3-0.1,0.5,0c0.2,0.1,0.3,0.2,0.4,0.3
			c0.1,0.2,0.1,0.4,0,0.6c-0.1,0.4-0.2,0.6-0.2,0.8c0,0.4,0.1,0.8,0.3,1.2c0.4,0.7,1,1.1,1.8,1.2c0.7,0.1,1.5,0,2.2-0.4
			c0.6-0.3,1-0.7,1.2-1.1c0.3-0.5,0.3-1,0-1.5c-0.2-0.4-0.5-0.7-0.8-0.9c-0.2-0.2-0.5-0.3-0.8-0.4l-1.1-0.2
			c-0.3-0.1-0.5-0.2-0.6-0.4c-0.1-0.2-0.1-0.3-0.1-0.5c0-0.2,0.2-0.3,0.3-0.4c0.1,0,0.4-0.2,1.1-0.5c1.3-0.6,2.2-1,2.6-1.2
			c0.1-0.1,0.3-0.2,0.4-0.4c0.1-0.2,0.2-0.3,0.3-0.3c0.2-0.1,0.5,0,0.7,0.4c0,0.1,0.1,0.2,0.2,0.4c0.1,0.2,0.1,0.3,0.2,0.4
			c0.1,0.2,0.3,0.6,0.6,1c0.3,0.4,0.5,0.8,0.6,1c0.1,0.1,0.2,0.3,0.3,0.5c0.1,0.2,0.2,0.4,0.3,0.5c0,0.1,0.1,0.2,0.2,0.3
			s0.2,0.2,0.2,0.3c0.1,0.2,0.1,0.3,0.1,0.5c0,0.2-0.1,0.3-0.3,0.4c-0.4,0.3-0.9-0.1-1.5-1c-0.1-0.1-0.2-0.3-0.3-0.5
			c-0.1-0.2-0.2-0.3-0.2-0.3l-0.6-1l-0.6-1c-0.2,0.1-0.9,0.4-2.1,0.9c0.7,0.3,1.4,0.9,1.9,1.8c0.5,0.9,0.5,1.7,0.1,2.6
			c-0.4,0.7-1,1.3-1.9,1.9c-1.1,0.6-2.1,0.8-3.2,0.6C385.6,121.8,384.8,121.1,384.1,120z" /><path d="M388.7,127.7c-0.7-1.2-0.7-2.4,0.1-3.6c0.6-0.9,1.6-1.7,2.9-2.5c1.1-0.7,2.3-1,3.5-0.9c1.4,0.1,2.4,0.7,3,1.8
			c0.6,1,0.6,2.1,0.1,3.2c-0.5,0.9-1.3,1.7-2.4,2.4c-1.8,1-3.3,1.5-4.5,1.5C390.3,129.4,389.4,128.8,388.7,127.7z M397.1,123
			c-0.4-0.7-1.1-1.1-2.1-1.1c-0.8,0-1.6,0.2-2.4,0.7c-1.3,0.7-2.2,1.5-2.6,2.2s-0.5,1.4-0.1,2.1c0.5,0.8,1.3,1.2,2.5,1
			c0.8-0.1,1.7-0.5,2.7-1.1c1.1-0.6,1.8-1.2,2.1-1.9S397.5,123.7,397.1,123z" /></g><g><path fill="#EC1E43" d="M369.2,125.4c-0.3-0.6-0.5-1.2-0.6-1.8c0-0.7,0.2-1.3,0.6-1.8c0.1-0.1,0.1-0.1,0.2-0.2
			c0.2-0.1,0.3-0.1,0.5,0c0.2,0.1,0.3,0.2,0.4,0.3s0.1,0.3,0,0.5l-0.3,0.5c-0.1,0.3-0.1,0.5-0.1,0.8c0,0.3,0.2,0.6,0.4,0.9
			c0.2,0.4,0.6,0.7,1.1,0.9c0.5,0.2,0.9,0.2,1.3-0.1c0.6-0.3,0.9-0.8,1-1.5c0.1-0.6,0-1.2-0.3-1.9c-0.2-0.5-0.2-0.8,0.2-1
			c0.2-0.1,0.5-0.1,0.8,0.2l1.2,1.2c0.3,0.2,0.5,0.3,0.8,0.4s0.5,0,0.7-0.1c0.4-0.2,0.6-0.5,0.6-0.9c0.1-0.4-0.1-0.9-0.4-1.4
			c-0.2-0.3-0.4-0.5-0.6-0.7l-0.8-0.4c-0.2-0.1-0.3-0.2-0.3-0.2c-0.1-0.2-0.1-0.3-0.1-0.5s0.2-0.3,0.3-0.4c0.3-0.2,0.8-0.1,1.4,0.4
			c0.6,0.4,0.9,0.7,1.1,1.1c0.5,0.8,0.7,1.6,0.6,2.3c-0.1,0.8-0.5,1.4-1.3,1.8c-0.9,0.5-1.8,0.5-2.5-0.1c-0.1-0.1-0.1-0.1-0.2-0.2
			c0.1,0.6,0,1.2-0.2,1.7c-0.2,0.5-0.6,0.9-1.2,1.2c-0.8,0.4-1.6,0.6-2.5,0.3C370.3,126.7,369.7,126.2,369.2,125.4z" /><path fill="#EC1E43" d="M373.6,132.8c-0.7-1.2-0.7-2.4,0.1-3.6c0.6-0.9,1.6-1.7,2.9-2.5c1.1-0.7,2.3-1,3.5-0.9
			c1.4,0.1,2.4,0.7,3,1.8c0.6,1,0.6,2.1,0.1,3.2c-0.5,0.9-1.3,1.7-2.4,2.4c-1.8,1-3.3,1.5-4.5,1.5
			C375.1,134.5,374.2,133.9,373.6,132.8z M382,128.2c-0.4-0.7-1.1-1.1-2.1-1.1c-0.8,0-1.6,0.2-2.4,0.7c-1.3,0.7-2.2,1.5-2.6,2.2
			c-0.4,0.7-0.5,1.4-0.1,2.1c0.5,0.8,1.3,1.2,2.5,1c0.8-0.1,1.7-0.5,2.7-1.1c1.1-0.6,1.8-1.2,2.1-1.9
			C382.4,129.5,382.3,128.9,382,128.2z" /></g></g><g><g><path d="M360.8,87l-0.9-1l-0.9-1c-0.2-0.2-0.3-0.4-0.4-0.6c-0.1-0.2,0-0.4,0.2-0.6c0.4-0.3,0.8-0.2,1.2,0.4l0.2,0.3l0.2,0.2
			c0.2-0.1,0.4-0.4,0.7-0.7c0.3-0.3,0.5-0.5,0.7-0.7c0.4-0.4,1.2-0.9,2.1-1.6c1-0.7,1.7-1.2,2.1-1.6c-0.8-0.2-1.2-0.3-1.3-0.4
			c-0.1-0.1-0.2-0.3-0.1-0.5c0-0.2,0.1-0.3,0.2-0.5c0.2-0.1,0.5-0.2,1-0.1c0.3,0.1,0.7,0.2,1.3,0.3c0.6,0,1,0.2,1.2,0.5
			c0.2,0.2,0.2,0.5-0.1,0.7c-0.1,0.1-0.2,0.2-0.4,0.3c-0.2,0.1-0.3,0.2-0.4,0.3c-0.1,0.1-0.3,0.2-0.5,0.5c-0.2,0.2-0.4,0.4-0.5,0.5
			c-0.4,0.3-1,0.8-1.9,1.4s-1.5,1-1.9,1.4c-0.2,0.2-0.4,0.4-0.7,0.7c-0.3,0.3-0.5,0.5-0.7,0.6l0.5,0.5c0.1,0.1,0.2,0.3,0.2,0.5
			c0,0.2-0.1,0.3-0.2,0.4c-0.1,0.1-0.3,0.2-0.5,0.2C361,87.2,360.9,87.2,360.8,87z" /><path d="M368.2,91.3l-1.9,1.6c-0.3,0.3-0.6,0.3-0.9-0.1c-0.3-0.4-0.2-0.8,0.3-1.2c0.1-0.1,0.2-0.1,0.3-0.2
			c0.1-0.1,0.2-0.2,0.2-0.2l1.2-1l-1.9-2.4c-0.4-0.5-0.7-0.8-0.8-1c-0.2-0.4-0.2-0.6,0-0.8c0.2-0.1,0.4-0.2,0.8-0.2l0.9,0l5.9-0.6
			c0.5,0,0.9,0.1,1.2,0.5c0.3,0.4,0.3,0.7,0,1l-4.4,3.7c0.1,0.1,0.1,0.1,0.2,0.2c0.5,0.6,0.6,1.1,0.3,1.4c-0.3,0.2-0.5,0.2-0.8,0
			C368.8,91.9,368.6,91.7,368.2,91.3z M371.8,86.5c-2.3,0.3-4,0.5-5.2,0.6l1.8,2.2L371.8,86.5z" /><path d="M369.7,98.1c-0.9-1.1-1.1-2.2-0.5-3.5c0.4-1,1.3-2,2.5-3c1-0.8,2.1-1.3,3.3-1.5c1.4-0.2,2.5,0.2,3.3,1.2
			c0.8,0.9,1,2,0.6,3.1c-0.3,1-0.9,1.9-1.9,2.7c-1.6,1.3-2.9,2-4.1,2.2C371.5,99.5,370.5,99.1,369.7,98.1z M377.2,92.1
			c-0.5-0.6-1.3-0.9-2.3-0.7c-0.8,0.1-1.6,0.5-2.3,1.1c-1.1,1-1.9,1.8-2.2,2.6c-0.3,0.8-0.2,1.5,0.3,2.1c0.6,0.7,1.5,0.9,2.6,0.5
			c0.8-0.3,1.6-0.8,2.5-1.5c0.9-0.8,1.5-1.5,1.8-2.2C377.8,93.3,377.7,92.7,377.2,92.1z" /></g><g><path fill="#EC1E43" d="M354.4,99.3l-1.9,1.6c-0.3,0.3-0.6,0.2-0.9-0.1c-0.3-0.4-0.2-0.8,0.3-1.2c0.1-0.1,0.2-0.1,0.3-0.2
			c0.1-0.1,0.2-0.2,0.2-0.2l1.2-1l-1.9-2.4c-0.4-0.5-0.7-0.8-0.8-1c-0.2-0.4-0.2-0.6,0-0.8c0.2-0.1,0.4-0.2,0.8-0.2l0.9,0l5.9-0.6
			c0.5,0,0.9,0.1,1.2,0.5c0.3,0.4,0.3,0.7,0,1l-4.4,3.7c0.1,0.1,0.1,0.1,0.2,0.2c0.5,0.6,0.6,1.1,0.3,1.4c-0.3,0.2-0.5,0.2-0.8,0
			C354.9,99.9,354.7,99.7,354.4,99.3z M358,94.6c-2.3,0.3-4,0.5-5.2,0.6l1.8,2.2L358,94.6z" /><path fill="#EC1E43" d="M355.8,106.1c-0.9-1.1-1.1-2.2-0.5-3.5c0.4-1,1.3-2,2.5-3c1-0.8,2.1-1.3,3.3-1.5c1.4-0.2,2.5,0.2,3.3,1.2
			c0.8,0.9,1,2,0.6,3.1c-0.3,1-0.9,1.9-1.9,2.7c-1.6,1.3-2.9,2-4.1,2.2C357.7,107.5,356.7,107.1,355.8,106.1z M363.3,100.1
			c-0.5-0.6-1.3-0.9-2.3-0.7c-0.8,0.1-1.6,0.5-2.3,1.1c-1.1,1-1.9,1.8-2.2,2.6c-0.3,0.8-0.2,1.5,0.3,2.1c0.6,0.7,1.5,0.9,2.6,0.5
			c0.8-0.3,1.6-0.8,2.5-1.5c0.9-0.8,1.5-1.5,1.8-2.2C363.9,101.3,363.8,100.7,363.3,100.1z" /></g></g><g><g><path d="M335.9,64l-1-0.9l-1-0.9c-0.2-0.2-0.4-0.4-0.5-0.5c-0.1-0.2-0.1-0.4,0.1-0.6c0.3-0.4,0.7-0.3,1.3,0.2l0.2,0.2l0.2,0.2
			c0.1-0.2,0.3-0.4,0.6-0.8c0.2-0.4,0.4-0.6,0.6-0.8c0.4-0.4,1-1.1,1.8-1.9c0.8-0.8,1.4-1.5,1.8-1.9c-0.8,0-1.2-0.1-1.4-0.2
			c-0.1-0.1-0.2-0.3-0.2-0.5c0-0.2,0-0.4,0.1-0.5c0.1-0.2,0.5-0.2,1-0.2c0.3,0,0.7,0,1.3,0c0.6-0.1,1,0,1.3,0.3
			c0.2,0.2,0.2,0.4,0,0.7c-0.1,0.1-0.2,0.2-0.3,0.3c-0.2,0.1-0.3,0.3-0.3,0.3c-0.1,0.1-0.2,0.3-0.4,0.5c-0.2,0.2-0.3,0.4-0.4,0.5
			c-0.3,0.4-0.9,1-1.6,1.7c-0.7,0.7-1.3,1.3-1.6,1.7c-0.2,0.2-0.4,0.5-0.6,0.8c-0.2,0.3-0.4,0.6-0.6,0.8l0.6,0.5
			c0.1,0.1,0.2,0.3,0.2,0.4s0,0.3-0.2,0.5c-0.1,0.1-0.3,0.2-0.4,0.2C336.2,64.1,336.1,64.1,335.9,64z" /><path d="M340,67.8c-0.5-0.4-0.9-0.9-1.1-1.5c-0.3-0.7-0.3-1.3-0.1-1.9c0-0.1,0.1-0.2,0.1-0.2c0.1-0.1,0.3-0.2,0.5-0.2
			c0.2,0,0.3,0.1,0.5,0.2c0.1,0.1,0.2,0.3,0.2,0.5l-0.1,0.6c0,0.3,0,0.5,0.2,0.8c0.1,0.3,0.4,0.5,0.7,0.8c0.4,0.3,0.8,0.5,1.3,0.5
			c0.5,0,0.9-0.2,1.2-0.5c0.4-0.5,0.6-1.1,0.5-1.7c-0.1-0.6-0.4-1.1-0.9-1.6c-0.4-0.4-0.4-0.7-0.2-1c0.2-0.2,0.5-0.2,0.9-0.1
			l1.5,0.7c0.3,0.1,0.6,0.1,0.8,0.1c0.2,0,0.5-0.2,0.6-0.4c0.3-0.3,0.4-0.6,0.3-1c-0.1-0.4-0.4-0.8-0.8-1.2
			c-0.2-0.2-0.5-0.3-0.8-0.4l-0.9-0.1c-0.2,0-0.3-0.1-0.4-0.1c-0.1-0.1-0.2-0.3-0.2-0.5s0-0.4,0.2-0.5c0.2-0.3,0.7-0.3,1.5-0.1
			c0.7,0.2,1.1,0.4,1.4,0.6c0.8,0.6,1.2,1.3,1.4,2c0.2,0.8,0,1.5-0.6,2.1c-0.7,0.8-1.5,1.1-2.4,0.8c-0.1,0-0.2-0.1-0.3-0.1
			c0.3,0.6,0.5,1.1,0.4,1.6s-0.3,1.1-0.7,1.6c-0.6,0.7-1.3,1.1-2.2,1.1S340.7,68.4,340,67.8z" /><path d="M346.7,73.3c-1.1-0.9-1.4-2-1.1-3.4c0.3-1.1,0.9-2.2,1.9-3.4c0.8-1,1.8-1.7,2.9-2c1.3-0.4,2.5-0.2,3.4,0.6
			c0.9,0.8,1.3,1.8,1.2,3c-0.1,1-0.6,2.1-1.4,3c-1.3,1.6-2.5,2.5-3.7,2.9S347.6,74.1,346.7,73.3z M353,66.1
			c-0.6-0.5-1.4-0.6-2.4-0.3c-0.8,0.3-1.5,0.8-2.1,1.5c-1,1.1-1.5,2.1-1.7,3c-0.2,0.8,0.1,1.5,0.7,2c0.7,0.6,1.6,0.6,2.7,0.1
			c0.7-0.4,1.5-1,2.2-1.9c0.8-0.9,1.2-1.8,1.3-2.5S353.6,66.6,353,66.1z" /></g><g><path fill="#EC1E43" d="M327.4,77.7c-1-0.8-1.4-1.8-1.3-2.9c0-0.2,0.1-0.3,0.2-0.4c0.1-0.1,0.3-0.2,0.5-0.2c0.2,0,0.4,0,0.5,0.2
			c0.1,0.1,0.2,0.3,0.2,0.6c0,0.4,0,0.6,0.1,0.8c0.1,0.3,0.3,0.7,0.7,1c0.6,0.5,1.3,0.7,2.1,0.6c0.7-0.1,1.4-0.5,1.9-1.1
			c0.4-0.5,0.7-1,0.8-1.5c0.1-0.6,0-1.1-0.5-1.4c-0.4-0.3-0.7-0.5-1-0.6c-0.3-0.1-0.6-0.1-0.9-0.1l-1.1,0.1c-0.3,0-0.5,0-0.7-0.2
			c-0.1-0.1-0.2-0.3-0.2-0.4c0-0.2,0-0.3,0.2-0.5c0.1-0.1,0.3-0.4,0.9-0.9c1-1,1.7-1.7,2-2c0.1-0.1,0.2-0.3,0.2-0.5
			c0.1-0.2,0.1-0.3,0.2-0.4c0.2-0.2,0.5-0.2,0.8,0.1c0.1,0.1,0.2,0.2,0.3,0.3s0.2,0.2,0.3,0.3c0.2,0.2,0.5,0.4,0.9,0.7
			c0.4,0.3,0.7,0.6,0.9,0.7c0.1,0.1,0.2,0.2,0.4,0.4c0.2,0.2,0.3,0.3,0.4,0.4c0.1,0.1,0.2,0.1,0.3,0.2s0.3,0.1,0.3,0.2
			c0.1,0.1,0.2,0.3,0.2,0.5s0,0.3-0.1,0.5c-0.3,0.4-0.9,0.2-1.7-0.5c-0.1-0.1-0.2-0.2-0.4-0.4c-0.2-0.1-0.3-0.2-0.3-0.3l-0.9-0.7
			l-0.9-0.7c-0.1,0.2-0.7,0.7-1.7,1.6c0.8,0,1.6,0.4,2.4,1c0.8,0.6,1.1,1.4,1,2.4c-0.1,0.8-0.5,1.6-1.1,2.4
			c-0.8,0.9-1.7,1.5-2.8,1.6C329.3,78.8,328.3,78.5,327.4,77.7z" /><path fill="#EC1E43" d="M334.3,83.3c-1.1-0.9-1.4-2-1.1-3.4c0.3-1.1,0.9-2.2,1.9-3.4c0.8-1,1.8-1.7,2.9-2c1.3-0.4,2.5-0.2,3.4,0.6
			c0.9,0.8,1.3,1.8,1.2,3c-0.1,1-0.6,2.1-1.4,3c-1.3,1.6-2.5,2.5-3.7,2.9C336.4,84.4,335.3,84.1,334.3,83.3z M340.6,76.1
			c-0.6-0.5-1.4-0.6-2.4-0.3c-0.8,0.3-1.5,0.8-2.1,1.5c-1,1.1-1.5,2.1-1.7,3c-0.2,0.8,0.1,1.5,0.7,2c0.7,0.6,1.6,0.6,2.7,0.1
			c0.7-0.4,1.5-1,2.2-1.9c0.8-0.9,1.2-1.8,1.3-2.5C341.4,77.2,341.2,76.6,340.6,76.1z" /></g></g><g><g><path d="M307.9,45.7l-1.2-0.7l-1.2-0.7c-0.3-0.2-0.5-0.3-0.5-0.4c-0.2-0.2-0.2-0.4,0-0.6c0.2-0.4,0.7-0.4,1.3-0.1l0.3,0.2l0.2,0.2
			c0.1-0.2,0.3-0.5,0.4-0.9c0.2-0.4,0.3-0.7,0.4-0.9c0.3-0.5,0.8-1.2,1.5-2.2c0.7-1,1.2-1.7,1.4-2.2c-0.8,0.1-1.2,0.1-1.4,0
			c-0.2-0.1-0.3-0.2-0.3-0.4c0-0.2,0-0.4,0.1-0.5c0.1-0.2,0.4-0.3,0.9-0.4c0.3,0,0.7-0.1,1.3-0.2c0.6-0.2,1-0.1,1.3,0
			c0.3,0.2,0.3,0.4,0.1,0.7c-0.1,0.1-0.1,0.2-0.3,0.4s-0.2,0.3-0.3,0.4c-0.1,0.1-0.2,0.3-0.3,0.6s-0.2,0.5-0.3,0.6
			c-0.3,0.4-0.7,1.1-1.3,1.9s-1,1.5-1.3,1.9c-0.1,0.2-0.3,0.5-0.4,0.9c-0.2,0.3-0.3,0.6-0.4,0.8l0.6,0.3c0.2,0.1,0.3,0.2,0.3,0.4
			s0,0.3-0.1,0.5c-0.1,0.2-0.2,0.3-0.4,0.3C308.2,45.8,308.1,45.8,307.9,45.7z" /><path d="M315.2,49.9c-0.1-0.1-0.2-0.2-0.4-0.3c-0.1-0.2-0.3-0.3-0.4-0.3c-0.2-0.1-0.5-0.3-0.9-0.5c-0.4-0.2-0.7-0.4-0.9-0.5
			c-0.2-0.1-0.4-0.2-0.7-0.3c-0.3-0.1-0.6-0.2-0.7-0.3c0,0-0.1-0.1-0.2-0.1c-0.1-0.1-0.1-0.1-0.2-0.1c-0.3-0.2-0.4-0.4-0.3-0.7
			c0-0.2,0.1-0.4,0.3-0.8c0.5-0.9,1.2-1.5,2-1.8c0.4-0.1,1.3-0.2,2.7-0.4c0.8-0.1,1.3-0.1,1.7-0.3c0.6-0.2,1-0.5,1.3-1
			c0.1-0.3,0.1-0.6-0.1-1c-0.2-0.3-0.4-0.6-0.7-0.8c-0.4-0.2-0.8-0.3-1.2-0.3l-1.2,0.2c-0.2,0-0.4,0-0.5,0c-0.4-0.2-0.5-0.5-0.3-0.8
			c0.1-0.2,0.3-0.3,0.5-0.3c0.7-0.2,1.3-0.3,1.7-0.2c0.6,0,1.2,0.2,1.7,0.4c0.6,0.4,1.1,0.9,1.4,1.5c0.3,0.7,0.3,1.4,0,2
			c-0.2,0.4-0.5,0.7-0.8,1c-0.3,0.3-0.7,0.5-1.1,0.6c-0.5,0.2-1.2,0.3-2.2,0.3c-1,0-1.7,0.1-2.1,0.2c-0.7,0.2-1.2,0.6-1.6,1.3
			l1.3,0.6c0.9,0.4,1.5,0.8,1.8,1c0.3,0.2,0.6,0.4,0.8,0.6c0.3,0.3,0.3,0.6,0.2,0.9c-0.1,0.2-0.2,0.3-0.4,0.3S315.3,50,315.2,49.9z" /><path d="M320.1,53c-1.2-0.7-1.8-1.7-1.7-3.2c0.1-1.1,0.5-2.3,1.3-3.7c0.7-1.1,1.5-2,2.5-2.5c1.2-0.6,2.4-0.6,3.5,0
			c1,0.6,1.6,1.5,1.7,2.7c0.1,1.1-0.2,2.1-0.9,3.2c-1,1.8-2.1,2.9-3.1,3.5S321.2,53.7,320.1,53z M325,44.8c-0.7-0.4-1.5-0.4-2.4,0.1
			c-0.7,0.4-1.3,1-1.8,1.8c-0.7,1.3-1.1,2.4-1.2,3.2c0,0.9,0.3,1.5,1,1.9c0.8,0.5,1.7,0.4,2.6-0.4c0.6-0.5,1.2-1.3,1.8-2.3
			c0.6-1.1,0.9-2,0.9-2.7C326.1,45.8,325.7,45.2,325,44.8z" /></g><g><path fill="#EC1E43" d="M302.1,60.9c-1-0.6-1.6-1.4-1.6-2.4c0-0.9,0.2-1.8,0.8-2.8c1.1-1.9,2.9-3.2,5.3-3.7l0.9-0.2
			c0.4-0.1,0.7-0.1,0.8,0c0.2,0.1,0.3,0.2,0.3,0.4c0.1,0.2,0,0.3,0,0.5c-0.1,0.1-0.4,0.3-1.1,0.5l-1.9,0.5c-0.5,0.1-1.1,0.5-1.7,1
			c0.4,0,0.8,0.1,1.1,0.2s0.5,0.2,0.7,0.3c0.9,0.5,1.5,1.2,1.7,2c0.2,0.8,0.1,1.6-0.5,2.5c-0.5,0.9-1.3,1.6-2.1,1.8
			C304,61.5,303.1,61.4,302.1,60.9z M304.9,56c-0.3-0.2-0.7-0.3-1-0.3c-0.1,0-0.5,0-1,0c-0.1,0.2-0.3,0.4-0.4,0.6
			c-0.4,0.7-0.6,1.4-0.6,1.9c0,0.7,0.3,1.3,0.9,1.7c0.6,0.3,1.2,0.4,1.8,0.2c0.5-0.2,1-0.7,1.4-1.3c0.3-0.5,0.4-1,0.2-1.5
			C305.9,56.8,305.6,56.4,304.9,56z" /><path fill="#EC1E43" d="M309.7,65c-1.2-0.7-1.8-1.7-1.7-3.2c0.1-1.1,0.5-2.3,1.3-3.7c0.7-1.1,1.5-2,2.5-2.5c1.2-0.6,2.4-0.6,3.5,0
			c1,0.6,1.6,1.5,1.7,2.7c0.1,1.1-0.2,2.1-0.9,3.2c-1,1.8-2.1,2.9-3.1,3.5C311.9,65.7,310.8,65.6,309.7,65z M314.7,56.8
			c-0.7-0.4-1.5-0.4-2.4,0.1c-0.7,0.4-1.3,1-1.8,1.8c-0.7,1.3-1.1,2.4-1.2,3.2c0,0.9,0.3,1.5,1,1.9c0.8,0.5,1.7,0.4,2.6-0.4
			c0.6-0.5,1.2-1.3,1.8-2.3c0.6-1.1,0.9-2,0.9-2.7C315.7,57.7,315.3,57.2,314.7,56.8z" /></g></g><g><g><path d="M276.8,33.3l-1.3-0.5l-1.3-0.5c-0.3-0.1-0.5-0.2-0.6-0.3c-0.2-0.2-0.2-0.4-0.1-0.6c0.2-0.4,0.6-0.5,1.2-0.3l0.3,0.1
			l0.3,0.1c0.1-0.2,0.2-0.5,0.3-0.9c0.1-0.4,0.2-0.7,0.3-0.9c0.2-0.5,0.5-1.4,1.1-2.4c0.5-1.1,0.8-1.9,1-2.4
			c-0.7,0.2-1.2,0.3-1.3,0.3c-0.2-0.1-0.3-0.2-0.4-0.4c-0.1-0.2-0.1-0.3,0-0.5c0.1-0.2,0.3-0.4,0.8-0.5c0.3-0.1,0.7-0.2,1.3-0.4
			c0.5-0.2,0.9-0.3,1.3-0.2c0.3,0.1,0.4,0.3,0.3,0.7c0,0.1-0.1,0.2-0.2,0.4c-0.1,0.2-0.2,0.3-0.2,0.4c-0.1,0.1-0.1,0.4-0.2,0.7
			c-0.1,0.3-0.2,0.5-0.2,0.7c-0.2,0.5-0.5,1.2-0.9,2.1s-0.8,1.6-0.9,2.1c-0.1,0.2-0.2,0.6-0.3,0.9c-0.1,0.4-0.2,0.7-0.3,0.9l0.7,0.2
			c0.2,0.1,0.3,0.2,0.4,0.3c0.1,0.2,0.1,0.3,0,0.5c-0.1,0.2-0.2,0.3-0.3,0.4C277.2,33.3,277,33.3,276.8,33.3z" /><path d="M282.8,35.4l-1.3-0.5l-1.3-0.5c-0.3-0.1-0.5-0.2-0.6-0.3c-0.2-0.2-0.2-0.4-0.1-0.6c0.2-0.4,0.6-0.5,1.2-0.3l0.3,0.1
			l0.3,0.1c0.1-0.2,0.2-0.5,0.3-0.9c0.1-0.4,0.2-0.7,0.3-0.9c0.2-0.5,0.5-1.4,1.1-2.4c0.5-1.1,0.8-1.9,1-2.4
			c-0.7,0.2-1.2,0.3-1.3,0.3c-0.2-0.1-0.3-0.2-0.4-0.4c-0.1-0.2-0.1-0.3,0-0.5c0.1-0.2,0.3-0.4,0.8-0.5c0.3-0.1,0.7-0.2,1.3-0.4
			c0.5-0.2,0.9-0.3,1.3-0.2c0.3,0.1,0.4,0.3,0.3,0.7c0,0.1-0.1,0.2-0.2,0.4c-0.1,0.2-0.2,0.3-0.2,0.4c-0.1,0.1-0.1,0.4-0.2,0.7
			c-0.1,0.3-0.2,0.5-0.2,0.7c-0.2,0.5-0.5,1.2-0.9,2.1s-0.8,1.6-0.9,2.1c-0.1,0.2-0.2,0.6-0.3,0.9c-0.1,0.4-0.2,0.7-0.3,0.9l0.7,0.2
			c0.2,0.1,0.3,0.2,0.4,0.3c0.1,0.2,0.1,0.3,0,0.5c-0.1,0.2-0.2,0.3-0.3,0.4C283.1,35.5,282.9,35.5,282.8,35.4z" /><path d="M288,37.6c-1.3-0.5-2-1.4-2.2-2.8c-0.1-1.1,0.1-2.4,0.6-3.8c0.5-1.2,1.1-2.2,2.1-2.9c1.1-0.8,2.2-1,3.4-0.6
			c1.1,0.4,1.8,1.2,2.1,2.4c0.2,1,0.1,2.1-0.3,3.3c-0.7,1.9-1.5,3.2-2.5,4C290.3,37.9,289.2,38,288,37.6z M291.5,28.7
			c-0.8-0.3-1.6-0.1-2.3,0.5c-0.6,0.5-1.1,1.2-1.4,2.1c-0.5,1.4-0.7,2.5-0.6,3.4c0.1,0.8,0.6,1.4,1.3,1.7c0.9,0.3,1.7,0,2.5-0.8
			c0.5-0.6,1-1.5,1.4-2.6c0.4-1.2,0.6-2.1,0.4-2.8C292.6,29.4,292.2,28.9,291.5,28.7z" /></g><g><path fill="#EC1E43" d="M279.6,41.4l-0.8,0.5c-0.8,0.4-1.6,1-2.4,1.8l-2.1,2.1c-0.1,0.2-0.5,0.6-1.1,1.3c-0.5,0.6-0.8,1-1.1,1.2
			c-0.2,0.2-0.4,0.2-0.6,0.1c-0.2-0.1-0.3-0.2-0.4-0.3s-0.1-0.3,0-0.5c0.1-0.2,0.3-0.5,0.9-1.1l2.7-3c1.1-1.2,2.2-2,3.1-2.5l0.2-0.1
			l-3.2-1.2l-1.4-0.6c-0.4-0.2-0.5-0.5-0.4-0.8c0.1-0.2,0.2-0.3,0.3-0.4c0.2-0.1,0.3-0.1,0.5,0c0.5,0.2,1.3,0.5,2.4,0.9
			s1.9,0.7,2.4,0.9l1.2,0.4c0.5,0.2,0.6,0.4,0.5,0.7C280.2,40.9,280,41.1,279.6,41.4z" /><path fill="#EC1E43" d="M281,51.7c-1.3-0.5-2-1.4-2.2-2.8c-0.1-1.1,0.1-2.4,0.6-3.8c0.5-1.2,1.1-2.2,2.1-2.9
			c1.1-0.8,2.2-1,3.4-0.6c1.1,0.4,1.8,1.2,2.1,2.4c0.2,1,0.1,2.1-0.3,3.3c-0.7,1.9-1.5,3.2-2.5,4C283.3,52,282.3,52.1,281,51.7z
			 M284.5,42.7c-0.8-0.3-1.6-0.1-2.3,0.5c-0.6,0.5-1.1,1.2-1.4,2.1c-0.5,1.4-0.7,2.5-0.6,3.4c0.1,0.8,0.6,1.4,1.3,1.7
			c0.9,0.3,1.7,0,2.5-0.8c0.5-0.6,1-1.5,1.4-2.6c0.4-1.2,0.6-2.1,0.4-2.8C285.7,43.5,285.2,43,284.5,42.7z" /></g></g><g><g><path d="M243.6,25.3l-1.3-0.2l-1.3-0.2c-0.3-0.1-0.5-0.1-0.6-0.2c-0.2-0.1-0.3-0.3-0.3-0.6c0.1-0.5,0.5-0.6,1.2-0.5l0.3,0.1
			l0.3,0.1c0-0.2,0.1-0.5,0.1-1s0.1-0.7,0.1-1c0.1-0.6,0.3-1.4,0.6-2.6c0.3-1.1,0.5-2,0.6-2.6c-0.7,0.4-1.1,0.5-1.3,0.5
			c-0.2,0-0.3-0.1-0.4-0.3c-0.1-0.2-0.1-0.3-0.1-0.5c0-0.2,0.3-0.4,0.7-0.7c0.3-0.1,0.7-0.3,1.2-0.6c0.5-0.3,0.9-0.5,1.2-0.4
			c0.3,0.1,0.4,0.3,0.4,0.6c0,0.1-0.1,0.3-0.1,0.5s-0.1,0.4-0.1,0.5c0,0.1-0.1,0.4-0.1,0.7s-0.1,0.5-0.1,0.7
			c-0.1,0.5-0.3,1.3-0.6,2.3c-0.3,1-0.5,1.7-0.6,2.3c0,0.3-0.1,0.6-0.1,1s-0.1,0.7-0.1,0.9l0.7,0.1c0.2,0,0.3,0.1,0.4,0.3
			c0.1,0.1,0.1,0.3,0.1,0.5c0,0.2-0.1,0.3-0.3,0.4C244,25.3,243.8,25.3,243.6,25.3z" /><path d="M249.1,26.5c-1.4-0.2-2.3-1-2.7-2.4c-0.3-1-0.3-2.3-0.1-3.9c0.2-1.3,0.7-2.4,1.5-3.2c0.9-1,2-1.4,3.3-1.2
			c1.2,0.2,2,0.9,2.5,2c0.4,1,0.5,2.1,0.3,3.3c-0.4,2-0.9,3.5-1.8,4.4C251.5,26.4,250.4,26.8,249.1,26.5z M251,17.1
			c-0.8-0.1-1.6,0.2-2.2,0.9c-0.5,0.6-0.9,1.4-1,2.3c-0.3,1.5-0.3,2.6,0,3.4c0.3,0.8,0.8,1.3,1.6,1.4c1,0.2,1.7-0.3,2.3-1.3
			c0.4-0.7,0.7-1.6,0.9-2.8c0.2-1.2,0.2-2.2-0.1-2.8C252.3,17.7,251.8,17.3,251,17.1z" /><path d="M257.6,28c-1.4-0.2-2.3-1-2.7-2.4c-0.3-1-0.3-2.3-0.1-3.9c0.2-1.3,0.7-2.4,1.5-3.2c0.9-1,2-1.4,3.3-1.2
			c1.2,0.2,2,0.9,2.5,2c0.4,1,0.5,2.1,0.3,3.3c-0.4,2-0.9,3.5-1.8,4.4C259.9,27.9,258.8,28.2,257.6,28z M259.4,18.6
			c-0.8-0.1-1.6,0.2-2.2,0.9c-0.5,0.6-0.9,1.4-1,2.3c-0.3,1.5-0.3,2.6,0,3.4c0.3,0.8,0.8,1.3,1.6,1.4c1,0.2,1.7-0.3,2.3-1.3
			c0.4-0.7,0.7-1.6,0.9-2.8c0.2-1.2,0.2-2.2-0.1-2.8C260.7,19.2,260.2,18.7,259.4,18.6z" /></g><g><path fill="#EC1E43" d="M243.4,41.5c-0.9-0.2-1.7-0.5-2.2-1c-0.6-0.6-0.8-1.3-0.7-2.2c0.2-1.5,0.9-2.4,2.1-2.7
			c-0.7-0.6-1-1.4-0.8-2.3c0.1-0.8,0.6-1.5,1.3-2c0.7-0.4,1.4-0.6,2.3-0.4c1.9,0.3,2.7,1.4,2.3,3.3c-0.1,0.5-0.3,0.9-0.5,1.2
			c-0.2,0.2-0.6,0.4-1.1,0.6c0.6,0.5,1,0.9,1.2,1.3c0.2,0.5,0.3,1.2,0.1,2c-0.2,0.9-0.6,1.6-1.4,2C245.3,41.6,244.4,41.7,243.4,41.5
			z M244.3,36.4c-0.8,0.2-1.3,0.4-1.6,0.6c-0.4,0.3-0.7,0.8-0.8,1.5c-0.1,0.6,0.1,1,0.6,1.4c0.3,0.3,0.7,0.4,1.2,0.5
			c0.8,0.1,1.4,0.1,1.8-0.3c0.3-0.3,0.5-0.7,0.6-1.3c0.1-0.6,0-1.1-0.4-1.5C245.3,37,244.9,36.7,244.3,36.4z M245.2,32.1
			c-0.6-0.1-1,0-1.4,0.3c-0.3,0.3-0.5,0.6-0.6,1.2c-0.1,0.6,0.3,1.2,1.3,1.6c0.6-0.1,1-0.2,1.2-0.3c0.4-0.2,0.7-0.5,0.7-0.9
			c0.1-0.6,0-1.1-0.2-1.4C246,32.4,245.7,32.2,245.2,32.1z" /><path fill="#EC1E43" d="M251.8,42.9c-1.4-0.2-2.3-1-2.7-2.4c-0.3-1-0.3-2.3-0.1-3.9c0.2-1.3,0.7-2.4,1.5-3.2c0.9-1,2-1.4,3.3-1.2
			c1.2,0.2,2,0.9,2.5,2c0.4,1,0.5,2.1,0.3,3.3c-0.4,2-0.9,3.5-1.8,4.4C254.2,42.8,253.1,43.1,251.8,42.9z M253.7,33.5
			c-0.8-0.1-1.6,0.2-2.2,0.9c-0.5,0.6-0.9,1.4-1,2.3c-0.3,1.5-0.3,2.6,0,3.4c0.3,0.8,0.8,1.3,1.6,1.4c1,0.2,1.7-0.3,2.3-1.3
			c0.4-0.7,0.7-1.6,0.9-2.8c0.2-1.2,0.2-2.2-0.1-2.8C255,34.1,254.5,33.7,253.7,33.5z" /></g></g><path fill="none" stroke="#000000" stroke-width="0.7488" stroke-linecap="round" stroke-miterlimit="10" d="M26.3,216.6
	c0-100.6,78.3-183.2,177.1-190.2" /><path fill="none" stroke="#000000" stroke-width="0.7488" stroke-linecap="round" stroke-miterlimit="10" d="M407.7,216.6
	c0-100.6-78.3-183.2-177.1-190.2" /><path fill="none" stroke="#A7A9AC" stroke-width="0.9984" stroke-miterlimit="10" d="M197.5,216.6c0-10.8,8.7-19.5,19.5-19.5
	c10.8,0,19.5,8.7,19.5,19.5" /><path fill="none" stroke="#A7A9AC" stroke-width="0.9984" stroke-miterlimit="10" d="M197.5,216.4c0,10.8,8.7,19.5,19.5,19.5
	c10.8,0,19.5-8.7,19.5-19.5" /><g><path d="M213.1,30.2c-0.4,0.3-1,0.7-1.9,1.1c-1,0.5-1.7,0.7-2.1,0.7c-0.2,0-0.4-0.1-0.6-0.2c-0.1-0.2-0.2-0.4-0.2-0.6
		c0-0.3,0.2-0.6,0.6-0.7l1.4-0.5c0.9-0.3,1.5-0.7,2-1.2c0.5-0.5,1-1.1,1.4-1.9l0.4-0.7c-0.3,0.2-0.7,0.3-1.2,0.5
		c-0.5,0.1-0.9,0.2-1.2,0.2c-1,0-1.9-0.3-2.7-0.9c-0.9-0.7-1.4-1.7-1.4-3c0-1.5,0.5-2.7,1.4-3.5c0.8-0.7,1.9-1,3.2-1
		c1,0,1.9,0.4,2.7,1.2c0.9,0.9,1.3,1.9,1.3,3.2c0,1.4-0.3,2.8-0.8,4.1C214.9,28.4,214.1,29.5,213.1,30.2z M212,19.9
		c-0.9,0-1.6,0.2-2.1,0.7c-0.5,0.5-0.7,1.2-0.7,2.2c0,0.8,0.3,1.4,0.9,1.9c0.5,0.4,1.1,0.6,1.9,0.6c0.4,0,0.9-0.1,1.4-0.4
		c0.2-0.1,0.6-0.4,1.2-0.8c0.1-0.5,0.1-0.9,0.1-1.1c0-0.7-0.3-1.4-0.9-2C213.1,20.2,212.6,19.9,212,19.9z" /><path d="M222.1,31.5c-1.7,0-2.9-0.8-3.7-2.3c-0.6-1.2-0.9-2.7-0.9-4.6c0-1.6,0.4-3,1.1-4.2c0.9-1.4,2.1-2.1,3.7-2.1
		c1.5,0,2.6,0.6,3.4,1.9c0.7,1.1,1.1,2.4,1.1,3.9c0,2.5-0.4,4.3-1.2,5.6S223.6,31.5,222.1,31.5z M222.3,19.9c-1,0-1.8,0.5-2.4,1.6
		c-0.5,0.9-0.8,1.9-0.8,3c0,1.8,0.2,3.2,0.7,4.1s1.2,1.4,2.2,1.4c1.2,0,2-0.7,2.5-2c0.4-0.9,0.5-2.1,0.5-3.5c0-1.5-0.2-2.6-0.7-3.4
		C223.9,20.3,223.2,19.9,222.3,19.9z" /></g><line fill="none" stroke="#000000" stroke-width="0.9984" stroke-linecap="round" stroke-miterlimit="10" x1="426.6" y1="216.5" x2="432.6" y2="216.5" /><line fill="none" stroke="#000000" stroke-width="0.7488" stroke-linecap="round" stroke-miterlimit="10" x1="428.6" y1="216.5" x2="432.6" y2="216.5" /><line fill="none" stroke="#000000" stroke-width="0.7488" stroke-linecap="round" stroke-miterlimit="10" x1="428.6" y1="212.8" x2="432.6" y2="212.8" /><line fill="none" stroke="#000000" stroke-width="0.7488" stroke-linecap="round" stroke-miterlimit="10" x1="428.5" y1="209.1" x2="432.5" y2="209" /><line fill="none" stroke="#000000" stroke-width="0.7488" stroke-linecap="round" stroke-miterlimit="10" x1="428.3" y1="205.5" x2="432.3" y2="205.2" /><line fill="none" stroke="#000000" stroke-width="0.7488" stroke-linecap="round" stroke-miterlimit="10" x1="428.1" y1="201.8" x2="432.1" y2="201.5" /><line fill="none" stroke="#000000" stroke-width="0.7488" stroke-linecap="round" stroke-miterlimit="10" x1="427.8" y1="198.1" x2="431.8" y2="197.7" /><line fill="none" stroke="#000000" stroke-width="0.7488" stroke-linecap="round" stroke-miterlimit="10" x1="427.4" y1="194.4" x2="431.4" y2="194" /><line fill="none" stroke="#000000" stroke-width="0.7488" stroke-linecap="round" stroke-miterlimit="10" x1="427" y1="190.7" x2="431" y2="190.3" /><line fill="none" stroke="#000000" stroke-width="0.7488" stroke-linecap="round" stroke-miterlimit="10" x1="426.5" y1="187.1" x2="430.5" y2="186.5" /><line fill="none" stroke="#000000" stroke-width="0.7488" stroke-linecap="round" stroke-miterlimit="10" x1="426" y1="183.4" x2="429.9" y2="182.8" /><line fill="none" stroke="#000000" stroke-width="0.7488" stroke-linecap="round" stroke-miterlimit="10" x1="425.4" y1="179.8" x2="429.3" y2="179.1" /><line fill="none" stroke="#000000" stroke-width="0.7488" stroke-linecap="round" stroke-miterlimit="10" x1="424.7" y1="176.2" x2="428.6" y2="175.4" /><line fill="none" stroke="#000000" stroke-width="0.7488" stroke-linecap="round" stroke-miterlimit="10" x1="424" y1="172.5" x2="427.9" y2="171.7" /><line fill="none" stroke="#000000" stroke-width="0.7488" stroke-linecap="round" stroke-miterlimit="10" x1="423.2" y1="168.9" x2="427.1" y2="168" /><line fill="none" stroke="#000000" stroke-width="0.7488" stroke-linecap="round" stroke-miterlimit="10" x1="422.3" y1="165.3" x2="426.2" y2="164.4" /><line fill="none" stroke="#000000" stroke-width="0.7488" stroke-linecap="round" stroke-miterlimit="10" x1="421.4" y1="161.8" x2="425.2" y2="160.7" /><line fill="none" stroke="#000000" stroke-width="0.7488" stroke-linecap="round" stroke-miterlimit="10" x1="420.4" y1="158.2" x2="424.2" y2="157.1" /><line fill="none" stroke="#000000" stroke-width="0.7488" stroke-linecap="round" stroke-miterlimit="10" x1="419.3" y1="154.7" x2="423.2" y2="153.5" /><line fill="none" stroke="#000000" stroke-width="0.7488" stroke-linecap="round" stroke-miterlimit="10" x1="418.2" y1="151.1" x2="422" y2="149.9" /><line fill="none" stroke="#000000" stroke-width="0.7488" stroke-linecap="round" stroke-miterlimit="10" x1="417.1" y1="147.6" x2="420.8" y2="146.3" /><line fill="none" stroke="#000000" stroke-width="0.7488" stroke-linecap="round" stroke-miterlimit="10" x1="415.8" y1="144.2" x2="419.6" y2="142.8" /><line fill="none" stroke="#000000" stroke-width="0.7488" stroke-linecap="round" stroke-miterlimit="10" x1="414.5" y1="140.7" x2="418.3" y2="139.3" /><line fill="none" stroke="#000000" stroke-width="0.7488" stroke-linecap="round" stroke-miterlimit="10" x1="413.2" y1="137.3" x2="416.9" y2="135.8" /><line fill="none" stroke="#000000" stroke-width="0.7488" stroke-linecap="round" stroke-miterlimit="10" x1="411.8" y1="133.9" x2="415.5" y2="132.3" /><line fill="none" stroke="#000000" stroke-width="0.7488" stroke-linecap="round" stroke-miterlimit="10" x1="410.3" y1="130.5" x2="414" y2="128.8" /><line fill="none" stroke="#000000" stroke-width="0.7488" stroke-linecap="round" stroke-miterlimit="10" x1="408.8" y1="127.1" x2="412.4" y2="125.4" /><line fill="none" stroke="#000000" stroke-width="0.7488" stroke-linecap="round" stroke-miterlimit="10" x1="407.2" y1="123.8" x2="410.8" y2="122" /><line fill="none" stroke="#000000" stroke-width="0.7488" stroke-linecap="round" stroke-miterlimit="10" x1="405.5" y1="120.5" x2="409.1" y2="118.7" /><line fill="none" stroke="#000000" stroke-width="0.7488" stroke-linecap="round" stroke-miterlimit="10" x1="403.8" y1="117.2" x2="407.4" y2="115.3" /><line fill="none" stroke="#000000" stroke-width="0.7488" stroke-linecap="round" stroke-miterlimit="10" x1="402.1" y1="114" x2="405.6" y2="112" /><line fill="none" stroke="#000000" stroke-width="0.7488" stroke-linecap="round" stroke-miterlimit="10" x1="400.2" y1="110.7" x2="403.7" y2="108.7" /><line fill="none" stroke="#000000" stroke-width="0.7488" stroke-linecap="round" stroke-miterlimit="10" x1="398.4" y1="107.6" x2="401.8" y2="105.5" /><line fill="none" stroke="#000000" stroke-width="0.7488" stroke-linecap="round" stroke-miterlimit="10" x1="396.4" y1="104.4" x2="399.8" y2="102.3" /><line fill="none" stroke="#000000" stroke-width="0.7488" stroke-linecap="round" stroke-miterlimit="10" x1="394.4" y1="101.3" x2="397.8" y2="99.1" /><line fill="none" stroke="#000000" stroke-width="0.7488" stroke-linecap="round" stroke-miterlimit="10" x1="392.4" y1="98.2" x2="395.7" y2="96" /><line fill="none" stroke="#000000" stroke-width="0.7488" stroke-linecap="round" stroke-miterlimit="10" x1="390.3" y1="95.2" x2="393.6" y2="92.9" /><line fill="none" stroke="#000000" stroke-width="0.7488" stroke-linecap="round" stroke-miterlimit="10" x1="388.2" y1="92.2" x2="391.4" y2="89.8" /><line fill="none" stroke="#000000" stroke-width="0.7488" stroke-linecap="round" stroke-miterlimit="10" x1="386" y1="89.2" x2="389.2" y2="86.8" /><line fill="none" stroke="#000000" stroke-width="0.7488" stroke-linecap="round" stroke-miterlimit="10" x1="383.7" y1="86.3" x2="386.9" y2="83.8" /><line fill="none" stroke="#000000" stroke-width="0.7488" stroke-linecap="round" stroke-miterlimit="10" x1="381.4" y1="83.4" x2="384.5" y2="80.9" /><line fill="none" stroke="#000000" stroke-width="0.7488" stroke-linecap="round" stroke-miterlimit="10" x1="379.1" y1="80.5" x2="382.1" y2="78" /><line fill="none" stroke="#000000" stroke-width="0.7488" stroke-linecap="round" stroke-miterlimit="10" x1="376.7" y1="77.7" x2="379.7" y2="75.1" /><line fill="none" stroke="#000000" stroke-width="0.7488" stroke-linecap="round" stroke-miterlimit="10" x1="374.2" y1="75" x2="377.2" y2="72.3" /><line fill="none" stroke="#000000" stroke-width="0.7488" stroke-linecap="round" stroke-miterlimit="10" x1="371.7" y1="72.2" x2="374.7" y2="69.5" /><line fill="none" stroke="#000000" stroke-width="0.7488" stroke-linecap="round" stroke-miterlimit="10" x1="369.2" y1="69.6" x2="372.1" y2="66.8" /><line fill="none" stroke="#000000" stroke-width="0.7488" stroke-linecap="round" stroke-miterlimit="10" x1="366.6" y1="66.9" x2="369.4" y2="64.1" /><line fill="none" stroke="#000000" stroke-width="0.7488" stroke-linecap="round" stroke-miterlimit="10" x1="364" y1="64.3" x2="366.8" y2="61.5" /><line fill="none" stroke="#000000" stroke-width="0.7488" stroke-linecap="round" stroke-miterlimit="10" x1="361.3" y1="61.8" x2="364" y2="58.9" /><line fill="none" stroke="#000000" stroke-width="0.7488" stroke-linecap="round" stroke-miterlimit="10" x1="358.6" y1="59.3" x2="361.3" y2="56.3" /><line fill="none" stroke="#000000" stroke-width="0.7488" stroke-linecap="round" stroke-miterlimit="10" x1="355.8" y1="56.8" x2="358.4" y2="53.8" /><line fill="none" stroke="#000000" stroke-width="0.7488" stroke-linecap="round" stroke-miterlimit="10" x1="353" y1="54.5" x2="355.6" y2="51.4" /><line fill="none" stroke="#000000" stroke-width="0.7488" stroke-linecap="round" stroke-miterlimit="10" x1="350.1" y1="52.1" x2="352.7" y2="49" /><line fill="none" stroke="#000000" stroke-width="0.7488" stroke-linecap="round" stroke-miterlimit="10" x1="347.3" y1="49.8" x2="349.7" y2="46.6" /><line fill="none" stroke="#000000" stroke-width="0.7488" stroke-linecap="round" stroke-miterlimit="10" x1="344.3" y1="47.6" x2="346.7" y2="44.4" /><line fill="none" stroke="#000000" stroke-width="0.7488" stroke-linecap="round" stroke-miterlimit="10" x1="341.4" y1="45.4" x2="343.7" y2="42.1" /><line fill="none" stroke="#000000" stroke-width="0.7488" stroke-linecap="round" stroke-miterlimit="10" x1="338.4" y1="43.2" x2="340.7" y2="39.9" /><line fill="none" stroke="#000000" stroke-width="0.7488" stroke-linecap="round" stroke-miterlimit="10" x1="335.3" y1="41.1" x2="337.6" y2="37.8" /><line fill="none" stroke="#000000" stroke-width="0.7488" stroke-linecap="round" stroke-miterlimit="10" x1="332.2" y1="39.1" x2="334.4" y2="35.7" /><line fill="none" stroke="#000000" stroke-width="0.7488" stroke-linecap="round" stroke-miterlimit="10" x1="329.1" y1="37.1" x2="331.2" y2="33.7" /><line fill="none" stroke="#000000" stroke-width="0.7488" stroke-linecap="round" stroke-miterlimit="10" x1="326" y1="35.2" x2="328" y2="31.7" /><line fill="none" stroke="#000000" stroke-width="0.7488" stroke-linecap="round" stroke-miterlimit="10" x1="322.8" y1="33.3" x2="324.8" y2="29.8" /><line fill="none" stroke="#000000" stroke-width="0.7488" stroke-linecap="round" stroke-miterlimit="10" x1="319.6" y1="31.5" x2="321.5" y2="28" /><line fill="none" stroke="#000000" stroke-width="0.7488" stroke-linecap="round" stroke-miterlimit="10" x1="316.3" y1="29.7" x2="318.2" y2="26.2" /><line fill="none" stroke="#000000" stroke-width="0.7488" stroke-linecap="round" stroke-miterlimit="10" x1="313.1" y1="28" x2="314.9" y2="24.4" /><line fill="none" stroke="#000000" stroke-width="0.7488" stroke-linecap="round" stroke-miterlimit="10" x1="309.7" y1="26.4" x2="311.5" y2="22.8" /><line fill="none" stroke="#000000" stroke-width="0.7488" stroke-linecap="round" stroke-miterlimit="10" x1="306.4" y1="24.8" x2="308.1" y2="21.1" /><line fill="none" stroke="#000000" stroke-width="0.7488" stroke-linecap="round" stroke-miterlimit="10" x1="303.1" y1="23.2" x2="304.7" y2="19.6" /><line fill="none" stroke="#000000" stroke-width="0.7488" stroke-linecap="round" stroke-miterlimit="10" x1="299.7" y1="21.8" x2="301.2" y2="18.1" /><line fill="none" stroke="#000000" stroke-width="0.7488" stroke-linecap="round" stroke-miterlimit="10" x1="296.3" y1="20.4" x2="297.8" y2="16.6" /><line fill="none" stroke="#000000" stroke-width="0.7488" stroke-linecap="round" stroke-miterlimit="10" x1="292.8" y1="19" x2="294.3" y2="15.3" /><line fill="none" stroke="#000000" stroke-width="0.7488" stroke-linecap="round" stroke-miterlimit="10" x1="289.4" y1="17.7" x2="290.7" y2="13.9" /><line fill="none" stroke="#000000" stroke-width="0.7488" stroke-linecap="round" stroke-miterlimit="10" x1="285.9" y1="16.5" x2="287.2" y2="12.7" /><line fill="none" stroke="#000000" stroke-width="0.7488" stroke-linecap="round" stroke-miterlimit="10" x1="282.4" y1="15.3" x2="283.6" y2="11.5" /><line fill="none" stroke="#000000" stroke-width="0.7488" stroke-linecap="round" stroke-miterlimit="10" x1="278.9" y1="14.2" x2="280" y2="10.4" /><line fill="none" stroke="#000000" stroke-width="0.7488" stroke-linecap="round" stroke-miterlimit="10" x1="275.3" y1="13.1" x2="276.4" y2="9.3" /><line fill="none" stroke="#000000" stroke-width="0.7488" stroke-linecap="round" stroke-miterlimit="10" x1="271.8" y1="12.2" x2="272.8" y2="8.3" /><line fill="none" stroke="#000000" stroke-width="0.7488" stroke-linecap="round" stroke-miterlimit="10" x1="268.2" y1="11.2" x2="269.1" y2="7.4" /><line fill="none" stroke="#000000" stroke-width="0.7488" stroke-linecap="round" stroke-miterlimit="10" x1="264.6" y1="10.4" x2="265.5" y2="6.5" /><line fill="none" stroke="#000000" stroke-width="0.7488" stroke-linecap="round" stroke-miterlimit="10" x1="261" y1="9.6" x2="261.8" y2="5.7" /><line fill="none" stroke="#000000" stroke-width="0.7488" stroke-linecap="round" stroke-miterlimit="10" x1="257.4" y1="8.8" x2="258.1" y2="4.9" /><line fill="none" stroke="#000000" stroke-width="0.7488" stroke-linecap="round" stroke-miterlimit="10" x1="253.7" y1="8.2" x2="254.4" y2="4.2" /><line fill="none" stroke="#000000" stroke-width="0.7488" stroke-linecap="round" stroke-miterlimit="10" x1="250.1" y1="7.6" x2="250.7" y2="3.6" /><line fill="none" stroke="#000000" stroke-width="0.7488" stroke-linecap="round" stroke-miterlimit="10" x1="246.4" y1="7" x2="247" y2="3" /><line fill="none" stroke="#000000" stroke-width="0.7488" stroke-linecap="round" stroke-miterlimit="10" x1="242.8" y1="6.5" x2="243.3" y2="2.6" /><line fill="none" stroke="#000000" stroke-width="0.7488" stroke-linecap="round" stroke-miterlimit="10" x1="239.1" y1="6.1" x2="239.5" y2="2.1" /><line fill="none" stroke="#000000" stroke-width="0.7488" stroke-linecap="round" stroke-miterlimit="10" x1="235.4" y1="5.8" x2="235.8" y2="1.8" /><line fill="none" stroke="#000000" stroke-width="0.7488" stroke-linecap="round" stroke-miterlimit="10" x1="231.8" y1="5.5" x2="232" y2="1.5" /><line fill="none" stroke="#000000" stroke-width="0.7488" stroke-linecap="round" stroke-miterlimit="10" x1="228.1" y1="5.2" x2="228.3" y2="1.2" /><line fill="none" stroke="#000000" stroke-width="0.7488" stroke-linecap="round" stroke-miterlimit="10" x1="224.4" y1="5.1" x2="224.5" y2="1.1" /><line fill="none" stroke="#000000" stroke-width="0.7488" stroke-linecap="round" stroke-miterlimit="10" x1="220.7" y1="5" x2="220.8" y2="1" /><line fill="none" stroke="#000000" stroke-width="0.7488" stroke-linecap="round" stroke-miterlimit="10" x1="217" y1="5" x2="217" y2="0.9" /><line fill="none" stroke="#000000" stroke-width="0.7488" stroke-linecap="round" stroke-miterlimit="10" x1="213.3" y1="5" x2="213.2" y2="1" /><line fill="none" stroke="#000000" stroke-width="0.7488" stroke-linecap="round" stroke-miterlimit="10" x1="209.6" y1="5.1" x2="209.5" y2="1.1" /><line fill="none" stroke="#000000" stroke-width="0.7488" stroke-linecap="round" stroke-miterlimit="10" x1="205.9" y1="5.2" x2="205.7" y2="1.2" /><line fill="none" stroke="#000000" stroke-width="0.7488" stroke-linecap="round" stroke-miterlimit="10" x1="202.2" y1="5.5" x2="202" y2="1.5" /><line fill="none" stroke="#000000" stroke-width="0.7488" stroke-linecap="round" stroke-miterlimit="10" x1="198.5" y1="5.8" x2="198.2" y2="1.8" /><line fill="none" stroke="#000000" stroke-width="0.7488" stroke-linecap="round" stroke-miterlimit="10" x1="194.9" y1="6.1" x2="194.5" y2="2.1" /><line fill="none" stroke="#000000" stroke-width="0.7488" stroke-linecap="round" stroke-miterlimit="10" x1="191.2" y1="6.5" x2="190.7" y2="2.6" /><line fill="none" stroke="#000000" stroke-width="0.7488" stroke-linecap="round" stroke-miterlimit="10" x1="187.5" y1="7" x2="187" y2="3" /><line fill="none" stroke="#000000" stroke-width="0.7488" stroke-linecap="round" stroke-miterlimit="10" x1="183.9" y1="7.6" x2="183.3" y2="3.6" /><line fill="none" stroke="#000000" stroke-width="0.7488" stroke-linecap="round" stroke-miterlimit="10" x1="180.2" y1="8.2" x2="179.6" y2="4.2" /><line fill="none" stroke="#000000" stroke-width="0.7488" stroke-linecap="round" stroke-miterlimit="10" x1="176.6" y1="8.8" x2="175.9" y2="4.9" /><line fill="none" stroke="#000000" stroke-width="0.7488" stroke-linecap="round" stroke-miterlimit="10" x1="173" y1="9.6" x2="172.2" y2="5.7" /><line fill="none" stroke="#000000" stroke-width="0.7488" stroke-linecap="round" stroke-miterlimit="10" x1="169.4" y1="10.4" x2="168.5" y2="6.5" /><line fill="none" stroke="#000000" stroke-width="0.7488" stroke-linecap="round" stroke-miterlimit="10" x1="165.8" y1="11.2" x2="164.8" y2="7.4" /><line fill="none" stroke="#000000" stroke-width="0.7488" stroke-linecap="round" stroke-miterlimit="10" x1="162.2" y1="12.2" x2="161.2" y2="8.3" /><line fill="none" stroke="#000000" stroke-width="0.7488" stroke-linecap="round" stroke-miterlimit="10" x1="158.7" y1="13.2" x2="157.6" y2="9.3" /><line fill="none" stroke="#000000" stroke-width="0.7488" stroke-linecap="round" stroke-miterlimit="10" x1="155.1" y1="14.2" x2="154" y2="10.4" /><line fill="none" stroke="#000000" stroke-width="0.7488" stroke-linecap="round" stroke-miterlimit="10" x1="151.6" y1="15.3" x2="150.4" y2="11.5" /><line fill="none" stroke="#000000" stroke-width="0.7488" stroke-linecap="round" stroke-miterlimit="10" x1="148.1" y1="16.5" x2="146.8" y2="12.7" /><line fill="none" stroke="#000000" stroke-width="0.7488" stroke-linecap="round" stroke-miterlimit="10" x1="144.6" y1="17.7" x2="143.3" y2="14" /><line fill="none" stroke="#000000" stroke-width="0.7488" stroke-linecap="round" stroke-miterlimit="10" x1="141.2" y1="19" x2="139.7" y2="15.3" /><line fill="none" stroke="#000000" stroke-width="0.7488" stroke-linecap="round" stroke-miterlimit="10" x1="137.7" y1="20.4" x2="136.2" y2="16.7" /><line fill="none" stroke="#000000" stroke-width="0.7488" stroke-linecap="round" stroke-miterlimit="10" x1="134.3" y1="21.8" x2="132.8" y2="18.1" /><line fill="none" stroke="#000000" stroke-width="0.7488" stroke-linecap="round" stroke-miterlimit="10" x1="130.9" y1="23.3" x2="129.3" y2="19.6" /><line fill="none" stroke="#000000" stroke-width="0.7488" stroke-linecap="round" stroke-miterlimit="10" x1="127.6" y1="24.8" x2="125.9" y2="21.2" /><line fill="none" stroke="#000000" stroke-width="0.7488" stroke-linecap="round" stroke-miterlimit="10" x1="124.2" y1="26.4" x2="122.5" y2="22.8" /><line fill="none" stroke="#000000" stroke-width="0.7488" stroke-linecap="round" stroke-miterlimit="10" x1="120.9" y1="28" x2="119.1" y2="24.5" /><line fill="none" stroke="#000000" stroke-width="0.7488" stroke-linecap="round" stroke-miterlimit="10" x1="117.7" y1="29.7" x2="115.8" y2="26.2" /><line fill="none" stroke="#000000" stroke-width="0.7488" stroke-linecap="round" stroke-miterlimit="10" x1="114.4" y1="31.5" x2="112.5" y2="28" /><line fill="none" stroke="#000000" stroke-width="0.7488" stroke-linecap="round" stroke-miterlimit="10" x1="111.2" y1="33.3" x2="109.2" y2="29.8" /><line fill="none" stroke="#000000" stroke-width="0.7488" stroke-linecap="round" stroke-miterlimit="10" x1="108" y1="35.2" x2="106" y2="31.7" /><line fill="none" stroke="#000000" stroke-width="0.7488" stroke-linecap="round" stroke-miterlimit="10" x1="104.9" y1="37.1" x2="102.7" y2="33.7" /><line fill="none" stroke="#000000" stroke-width="0.7488" stroke-linecap="round" stroke-miterlimit="10" x1="101.8" y1="39.1" x2="99.6" y2="35.7" /><line fill="none" stroke="#000000" stroke-width="0.7488" stroke-linecap="round" stroke-miterlimit="10" x1="98.7" y1="41.1" x2="96.4" y2="37.8" /><line fill="none" stroke="#000000" stroke-width="0.7488" stroke-linecap="round" stroke-miterlimit="10" x1="95.6" y1="43.2" x2="93.3" y2="39.9" /><line fill="none" stroke="#000000" stroke-width="0.7488" stroke-linecap="round" stroke-miterlimit="10" x1="92.6" y1="45.4" x2="90.3" y2="42.1" /><line fill="none" stroke="#000000" stroke-width="0.7488" stroke-linecap="round" stroke-miterlimit="10" x1="89.7" y1="47.6" x2="87.2" y2="44.4" /><line fill="none" stroke="#000000" stroke-width="0.7488" stroke-linecap="round" stroke-miterlimit="10" x1="86.7" y1="49.8" x2="84.3" y2="46.7" /><line fill="none" stroke="#000000" stroke-width="0.7488" stroke-linecap="round" stroke-miterlimit="10" x1="83.8" y1="52.1" x2="81.3" y2="49" /><line fill="none" stroke="#000000" stroke-width="0.7488" stroke-linecap="round" stroke-miterlimit="10" x1="81" y1="54.5" x2="78.4" y2="51.4" /><line fill="none" stroke="#000000" stroke-width="0.7488" stroke-linecap="round" stroke-miterlimit="10" x1="78.2" y1="56.9" x2="75.6" y2="53.8" /><line fill="none" stroke="#000000" stroke-width="0.7488" stroke-linecap="round" stroke-miterlimit="10" x1="75.4" y1="59.3" x2="72.7" y2="56.3" /><line fill="none" stroke="#000000" stroke-width="0.7488" stroke-linecap="round" stroke-miterlimit="10" x1="72.7" y1="61.8" x2="70" y2="58.9" /><line fill="none" stroke="#000000" stroke-width="0.7488" stroke-linecap="round" stroke-miterlimit="10" x1="70" y1="64.3" x2="67.2" y2="61.5" /><line fill="none" stroke="#000000" stroke-width="0.7488" stroke-linecap="round" stroke-miterlimit="10" x1="67.4" y1="66.9" x2="64.5" y2="64.1" /><line fill="none" stroke="#000000" stroke-width="0.7488" stroke-linecap="round" stroke-miterlimit="10" x1="64.8" y1="69.6" x2="61.9" y2="66.8" /><line fill="none" stroke="#000000" stroke-width="0.7488" stroke-linecap="round" stroke-miterlimit="10" x1="62.2" y1="72.2" x2="59.3" y2="69.5" /><line fill="none" stroke="#000000" stroke-width="0.7488" stroke-linecap="round" stroke-miterlimit="10" x1="59.8" y1="75" x2="56.8" y2="72.3" /><line fill="none" stroke="#000000" stroke-width="0.7488" stroke-linecap="round" stroke-miterlimit="10" x1="57.3" y1="77.7" x2="54.3" y2="75.1" /><line fill="none" stroke="#000000" stroke-width="0.7488" stroke-linecap="round" stroke-miterlimit="10" x1="54.9" y1="80.5" x2="51.8" y2="78" /><line fill="none" stroke="#000000" stroke-width="0.7488" stroke-linecap="round" stroke-miterlimit="10" x1="52.6" y1="83.4" x2="49.4" y2="80.9" /><line fill="none" stroke="#000000" stroke-width="0.7488" stroke-linecap="round" stroke-miterlimit="10" x1="50.3" y1="86.3" x2="47.1" y2="83.8" /><line fill="none" stroke="#000000" stroke-width="0.7488" stroke-linecap="round" stroke-miterlimit="10" x1="48" y1="89.2" x2="44.8" y2="86.8" /><line fill="none" stroke="#000000" stroke-width="0.7488" stroke-linecap="round" stroke-miterlimit="10" x1="45.8" y1="92.2" x2="42.6" y2="89.8" /><line fill="none" stroke="#000000" stroke-width="0.7488" stroke-linecap="round" stroke-miterlimit="10" x1="43.7" y1="95.2" x2="40.4" y2="92.9" /><line fill="none" stroke="#000000" stroke-width="0.7488" stroke-linecap="round" stroke-miterlimit="10" x1="41.6" y1="98.2" x2="38.3" y2="96" /><line fill="none" stroke="#000000" stroke-width="0.7488" stroke-linecap="round" stroke-miterlimit="10" x1="39.5" y1="101.3" x2="36.2" y2="99.1" /><line fill="none" stroke="#000000" stroke-width="0.7488" stroke-linecap="round" stroke-miterlimit="10" x1="37.6" y1="104.4" x2="34.2" y2="102.3" /><line fill="none" stroke="#000000" stroke-width="0.7488" stroke-linecap="round" stroke-miterlimit="10" x1="35.6" y1="107.6" x2="32.2" y2="105.5" /><line fill="none" stroke="#000000" stroke-width="0.7488" stroke-linecap="round" stroke-miterlimit="10" x1="33.8" y1="110.8" x2="30.3" y2="108.8" /><line fill="none" stroke="#000000" stroke-width="0.7488" stroke-linecap="round" stroke-miterlimit="10" x1="31.9" y1="114" x2="28.4" y2="112" /><line fill="none" stroke="#000000" stroke-width="0.7488" stroke-linecap="round" stroke-miterlimit="10" x1="30.2" y1="117.2" x2="26.6" y2="115.3" /><line fill="none" stroke="#000000" stroke-width="0.7488" stroke-linecap="round" stroke-miterlimit="10" x1="28.5" y1="120.5" x2="24.9" y2="118.7" /><line fill="none" stroke="#000000" stroke-width="0.7488" stroke-linecap="round" stroke-miterlimit="10" x1="26.8" y1="123.8" x2="23.2" y2="122" /><line fill="none" stroke="#000000" stroke-width="0.7488" stroke-linecap="round" stroke-miterlimit="10" x1="25.2" y1="127.1" x2="21.6" y2="125.4" /><line fill="none" stroke="#000000" stroke-width="0.7488" stroke-linecap="round" stroke-miterlimit="10" x1="23.7" y1="130.5" x2="20" y2="128.9" /><line fill="none" stroke="#000000" stroke-width="0.7488" stroke-linecap="round" stroke-miterlimit="10" x1="22.2" y1="133.9" x2="18.5" y2="132.3" /><line fill="none" stroke="#000000" stroke-width="0.7488" stroke-linecap="round" stroke-miterlimit="10" x1="20.8" y1="137.3" x2="17.1" y2="135.8" /><line fill="none" stroke="#000000" stroke-width="0.7488" stroke-linecap="round" stroke-miterlimit="10" x1="19.5" y1="140.7" x2="15.7" y2="139.3" /><line fill="none" stroke="#000000" stroke-width="0.7488" stroke-linecap="round" stroke-miterlimit="10" x1="18.2" y1="144.2" x2="14.4" y2="142.8" /><line fill="none" stroke="#000000" stroke-width="0.7488" stroke-linecap="round" stroke-miterlimit="10" x1="16.9" y1="147.7" x2="13.2" y2="146.4" /><line fill="none" stroke="#000000" stroke-width="0.7488" stroke-linecap="round" stroke-miterlimit="10" x1="15.8" y1="151.2" x2="12" y2="149.9" /><line fill="none" stroke="#000000" stroke-width="0.7488" stroke-linecap="round" stroke-miterlimit="10" x1="14.7" y1="154.7" x2="10.8" y2="153.5" /><line fill="none" stroke="#000000" stroke-width="0.7488" stroke-linecap="round" stroke-miterlimit="10" x1="13.6" y1="158.2" x2="9.8" y2="157.1" /><line fill="none" stroke="#000000" stroke-width="0.7488" stroke-linecap="round" stroke-miterlimit="10" x1="12.6" y1="161.8" x2="8.8" y2="160.8" /><line fill="none" stroke="#000000" stroke-width="0.7488" stroke-linecap="round" stroke-miterlimit="10" x1="11.7" y1="165.4" x2="7.8" y2="164.4" /><line fill="none" stroke="#000000" stroke-width="0.7488" stroke-linecap="round" stroke-miterlimit="10" x1="10.8" y1="169" x2="6.9" y2="168.1" /><line fill="none" stroke="#000000" stroke-width="0.7488" stroke-linecap="round" stroke-miterlimit="10" x1="10" y1="172.6" x2="6.1" y2="171.7" /><line fill="none" stroke="#000000" stroke-width="0.7488" stroke-linecap="round" stroke-miterlimit="10" x1="9.3" y1="176.2" x2="5.4" y2="175.4" /><line fill="none" stroke="#000000" stroke-width="0.7488" stroke-linecap="round" stroke-miterlimit="10" x1="8.6" y1="179.8" x2="4.7" y2="179.1" /><line fill="none" stroke="#000000" stroke-width="0.7488" stroke-linecap="round" stroke-miterlimit="10" x1="8" y1="183.5" x2="4.1" y2="182.8" /><line fill="none" stroke="#000000" stroke-width="0.7488" stroke-linecap="round" stroke-miterlimit="10" x1="7.5" y1="187.1" x2="3.5" y2="186.5" /><line fill="none" stroke="#000000" stroke-width="0.7488" stroke-linecap="round" stroke-miterlimit="10" x1="7" y1="190.8" x2="3" y2="190.3" /><line fill="none" stroke="#000000" stroke-width="0.7488" stroke-linecap="round" stroke-miterlimit="10" x1="6.6" y1="194.4" x2="2.6" y2="194" /><line fill="none" stroke="#000000" stroke-width="0.7488" stroke-linecap="round" stroke-miterlimit="10" x1="6.2" y1="198.1" x2="2.2" y2="197.8" /><line fill="none" stroke="#000000" stroke-width="0.7488" stroke-linecap="round" stroke-miterlimit="10" x1="5.9" y1="201.8" x2="1.9" y2="201.5" /><line fill="none" stroke="#000000" stroke-width="0.7488" stroke-linecap="round" stroke-miterlimit="10" x1="5.7" y1="205.5" x2="1.7" y2="205.3" /><line fill="none" stroke="#000000" stroke-width="0.7488" stroke-linecap="round" stroke-miterlimit="10" x1="5.5" y1="209.2" x2="1.5" y2="209" /><line fill="none" stroke="#000000" stroke-width="0.7488" stroke-linecap="round" stroke-miterlimit="10" x1="5.4" y1="212.9" x2="1.4" y2="212.8" /><line fill="none" stroke="#000000" stroke-width="0.7488" stroke-linecap="round" stroke-miterlimit="10" x1="5.4" y1="216.6" x2="1.4" y2="216.6" /><line fill="none" stroke="#000000" stroke-width="0.9984" stroke-linecap="round" stroke-miterlimit="10" x1="425.8" y1="198.3" x2="431.8" y2="197.7" /><line fill="none" stroke="#000000" stroke-width="0.9984" stroke-linecap="round" stroke-miterlimit="10" x1="419.5" y1="162.3" x2="425.2" y2="160.7" /><line fill="none" stroke="#000000" stroke-width="0.9984" stroke-linecap="round" stroke-miterlimit="10" x1="407" y1="127.9" x2="412.4" y2="125.4" /><line fill="none" stroke="#000000" stroke-width="0.9984" stroke-linecap="round" stroke-miterlimit="10" x1="388.7" y1="96.3" x2="393.6" y2="92.9" /><line fill="none" stroke="#000000" stroke-width="0.9984" stroke-linecap="round" stroke-miterlimit="10" x1="365.2" y1="68.3" x2="369.4" y2="64.1" /><line fill="none" stroke="#000000" stroke-width="0.9984" stroke-linecap="round" stroke-miterlimit="10" x1="337.2" y1="44.8" x2="340.7" y2="39.9" /><line fill="none" stroke="#000000" stroke-width="0.9984" stroke-linecap="round" stroke-miterlimit="10" x1="305.6" y1="26.5" x2="308.1" y2="21.1" /><line fill="none" stroke="#000000" stroke-width="0.9984" stroke-linecap="round" stroke-miterlimit="10" x1="271.2" y1="14.1" x2="272.8" y2="8.3" /><line fill="none" stroke="#000000" stroke-width="0.9984" stroke-linecap="round" stroke-miterlimit="10" x1="235.3" y1="7.7" x2="235.8" y2="1.8" /><line fill="none" stroke="#000000" stroke-width="0.9984" stroke-linecap="round" stroke-miterlimit="10" x1="198.7" y1="7.7" x2="198.2" y2="1.8" /><line fill="none" stroke="#000000" stroke-width="0.9984" stroke-linecap="round" stroke-miterlimit="10" x1="162.7" y1="14.1" x2="161.2" y2="8.3" /><line fill="none" stroke="#000000" stroke-width="0.9984" stroke-linecap="round" stroke-miterlimit="10" x1="128.4" y1="26.6" x2="125.9" y2="21.2" /><line fill="none" stroke="#000000" stroke-width="0.9984" stroke-linecap="round" stroke-miterlimit="10" x1="96.8" y1="44.8" x2="93.3" y2="39.9" /><line fill="none" stroke="#000000" stroke-width="0.9984" stroke-linecap="round" stroke-miterlimit="10" x1="68.8" y1="68.3" x2="64.5" y2="64.1" /><line fill="none" stroke="#000000" stroke-width="0.9984" stroke-linecap="round" stroke-miterlimit="10" x1="45.3" y1="96.3" x2="40.4" y2="92.9" /><line fill="none" stroke="#000000" stroke-width="0.9984" stroke-linecap="round" stroke-miterlimit="10" x1="27" y1="128" x2="21.6" y2="125.4" /><line fill="none" stroke="#000000" stroke-width="0.9984" stroke-linecap="round" stroke-miterlimit="10" x1="14.5" y1="162.3" x2="8.8" y2="160.8" /><line fill="none" stroke="#000000" stroke-width="0.9984" stroke-linecap="round" stroke-miterlimit="10" x1="8.2" y1="198.3" x2="2.2" y2="197.8" /><line fill="none" stroke="#000000" stroke-width="0.9984" stroke-linecap="round" stroke-miterlimit="10" x1="10.6" y1="216.6" x2="1.4" y2="216.6" /><polyline fill="none" stroke="#A7A9AC" stroke-width="0.9984" stroke-miterlimit="10" points="43,216.6 197.6,216.6 236.4,216.5 
	391,216.5 " /><line fill="none" stroke="#000000" stroke-width="0.9984" stroke-linecap="round" stroke-miterlimit="10" x1="217" y1="12.9" x2="217" y2="1" /><line fill="none" stroke="#A7A9AC" stroke-width="0.9984" stroke-linecap="round" stroke-miterlimit="10" x1="217" y1="216.5" x2="217" y2="36.6" /><line fill="none" stroke="#000000" stroke-width="0.9984" stroke-linecap="round" stroke-miterlimit="10" x1="181.1" y1="13.3" x2="179.6" y2="4.2" /><line fill="none" stroke="#000000" stroke-width="0.9984" stroke-linecap="round" stroke-miterlimit="10" x1="252.8" y1="13.2" x2="254.4" y2="4.2" /><line fill="none" stroke="#000000" stroke-width="0.9984" stroke-linecap="round" stroke-miterlimit="10" x1="287.6" y1="22.6" x2="290.7" y2="13.9" /><line fill="none" stroke="#000000" stroke-width="0.9984" stroke-linecap="round" stroke-miterlimit="10" x1="320.2" y1="37.8" x2="324.8" y2="29.8" /><line fill="none" stroke="#000000" stroke-width="0.9984" stroke-linecap="round" stroke-miterlimit="10" x1="349.7" y1="58.4" x2="355.6" y2="51.4" /><line fill="none" stroke="#000000" stroke-width="0.9984" stroke-linecap="round" stroke-miterlimit="10" x1="375.1" y1="83.8" x2="382.1" y2="78" /><line fill="none" stroke="#000000" stroke-width="0.9984" stroke-linecap="round" stroke-miterlimit="10" x1="395.8" y1="113.3" x2="403.7" y2="108.7" /><line fill="none" stroke="#000000" stroke-width="0.9984" stroke-linecap="round" stroke-miterlimit="10" x1="411" y1="145.9" x2="419.6" y2="142.8" /><line fill="none" stroke="#000000" stroke-width="0.9984" stroke-linecap="round" stroke-miterlimit="10" x1="420.3" y1="180.7" x2="429.3" y2="179.1" /><line fill="none" stroke="#000000" stroke-width="0.9984" stroke-linecap="round" stroke-miterlimit="10" x1="146.4" y1="22.6" x2="143.3" y2="14" /><line fill="none" stroke="#000000" stroke-width="0.9984" stroke-linecap="round" stroke-miterlimit="10" x1="113.8" y1="37.8" x2="109.2" y2="29.8" /><line fill="none" stroke="#000000" stroke-width="0.9984" stroke-linecap="round" stroke-miterlimit="10" x1="84.3" y1="58.4" x2="78.4" y2="51.4" /><line fill="none" stroke="#000000" stroke-width="0.9984" stroke-linecap="round" stroke-miterlimit="10" x1="58.9" y1="83.9" x2="51.8" y2="78" /><line fill="none" stroke="#000000" stroke-width="0.9984" stroke-linecap="round" stroke-miterlimit="10" x1="38.2" y1="113.3" x2="30.3" y2="108.8" /><line fill="none" stroke="#000000" stroke-width="0.9984" stroke-linecap="round" stroke-miterlimit="10" x1="23" y1="145.9" x2="14.4" y2="142.8" /><line fill="none" stroke="#000000" stroke-width="0.9984" stroke-linecap="round" stroke-miterlimit="10" x1="13.7" y1="180.7" x2="4.7" y2="179.1" /><line fill="none" stroke="#000000" stroke-width="0.9984" stroke-linecap="round" stroke-miterlimit="10" x1="423.4" y1="216.5" x2="432.6" y2="216.5" /><path fill="#A7A9AC" d="M433.5,245.7H0.5v-0.7c0-4.8,0-9.5,0-14.2c0-4.7,0-9.4,0-14.2c0-57.8,22.5-112.1,63.4-153
	c40.9-40.9,95.2-63.4,153-63.4s112.1,22.5,153,63.4c40.9,40.9,63.4,95.2,63.4,153c0,4.8,0,9.5,0.1,14.2c0,4.7,0.1,9.4,0.1,14.2
	V245.7z M2,244.2h430c0-4.5,0-9-0.1-13.4c0-4.7-0.1-9.4-0.1-14.2c0-57.4-22.4-111.4-62.9-152S274.4,1.7,217,1.7
	c-57.4,0-111.4,22.4-152,62.9s-62.9,94.6-62.9,152c0,4.8,0,9.5,0,14.2C2,235.2,2,239.7,2,244.2z" /><g><g><path d="M24,216.6c0,1.4-0.6,2.4-1.9,3c-1,0.5-2.2,0.7-3.8,0.7c-1.3,0-2.5-0.3-3.5-0.9c-1.2-0.7-1.7-1.8-1.7-3
			c0-1.2,0.5-2.1,1.5-2.8c0.9-0.6,2-0.9,3.2-0.9c2,0,3.6,0.3,4.6,1S24,215.3,24,216.6z M14.4,216.4c0,0.8,0.4,1.5,1.3,2
			c0.7,0.4,1.5,0.6,2.5,0.6c1.5,0,2.6-0.2,3.4-0.6s1.1-1,1.1-1.8c0-1-0.6-1.7-1.7-2.1c-0.8-0.3-1.7-0.4-2.9-0.4
			c-1.2,0-2.2,0.2-2.8,0.6S14.4,215.6,14.4,216.4z" /></g><g><path fill="#EC1E43" d="M39.4,223.7v1.4l0,1.4c0,0.3,0,0.5-0.1,0.7c-0.1,0.2-0.3,0.3-0.5,0.3c-0.5,0-0.7-0.4-0.7-1.1l0-0.3l0-0.3
			c-0.2,0-0.5,0-1,0.1c-0.4,0-0.7,0.1-1,0.1c-0.6,0-1.5-0.1-2.6-0.2c-1.2-0.1-2-0.1-2.6-0.1c0.5,0.6,0.7,1,0.7,1.2
			c0,0.2-0.1,0.3-0.2,0.5c-0.1,0.1-0.3,0.2-0.5,0.2c-0.2,0-0.5-0.2-0.8-0.6c-0.2-0.2-0.5-0.6-0.8-1c-0.4-0.4-0.6-0.8-0.6-1.1
			c0-0.3,0.2-0.5,0.5-0.5c0.1,0,0.3,0,0.5,0s0.4,0,0.5,0c0.2,0,0.4,0,0.7,0c0.3,0,0.5,0,0.7,0c0.5,0,1.3,0.1,2.3,0.2
			s1.8,0.2,2.3,0.2c0.3,0,0.6,0,1-0.1c0.4,0,0.7-0.1,0.9-0.1l0-0.7c0-0.2,0.1-0.3,0.2-0.5c0.1-0.1,0.3-0.2,0.5-0.2
			c0.2,0,0.3,0.1,0.5,0.2C39.3,223.4,39.4,223.5,39.4,223.7z" /><path fill="#EC1E43" d="M39.7,218c0,1-0.2,1.7-0.6,2.3c-0.5,0.7-1.2,1-2.1,1c-1.5,0-2.5-0.5-3-1.6c-0.5,0.8-1.2,1.2-2.1,1.2
			c-0.9,0-1.6-0.3-2.1-0.9c-0.5-0.6-0.8-1.3-0.8-2.2c0-1.9,0.9-2.9,2.8-2.9c0.5,0,1,0.1,1.3,0.3c0.2,0.2,0.5,0.5,0.8,1
			c0.3-0.7,0.7-1.2,1.1-1.4c0.5-0.3,1.1-0.5,1.9-0.5c0.9,0,1.7,0.3,2.2,1C39.5,216.2,39.7,217,39.7,218z M34.5,218.1
			c0.3,0.7,0.6,1.2,0.9,1.4c0.4,0.4,0.9,0.6,1.6,0.5c0.6,0,1-0.3,1.3-0.8c0.2-0.4,0.3-0.8,0.3-1.3c0-0.8-0.2-1.4-0.6-1.7
			c-0.3-0.3-0.8-0.4-1.4-0.4c-0.6,0-1.1,0.2-1.4,0.7C34.9,217,34.7,217.5,34.5,218.1z M30.2,218c0,0.6,0.2,1,0.5,1.3
			c0.3,0.3,0.7,0.4,1.3,0.4c0.6,0,1.1-0.5,1.4-1.6c-0.2-0.5-0.3-0.9-0.5-1.2c-0.3-0.4-0.6-0.6-1-0.6c-0.6,0-1.1,0.1-1.3,0.4
			C30.3,217.1,30.2,217.5,30.2,218z" /><path fill="#EC1E43" d="M39.6,209.5c0,1.4-0.6,2.4-1.9,3c-1,0.5-2.2,0.7-3.8,0.7c-1.3,0-2.5-0.3-3.5-0.9c-1.2-0.7-1.7-1.8-1.7-3
			c0-1.2,0.5-2.1,1.5-2.8c0.9-0.6,2-0.9,3.2-0.9c2,0,3.6,0.3,4.6,1C39.1,207.2,39.6,208.2,39.6,209.5z M30.1,209.3
			c0,0.8,0.4,1.5,1.3,2c0.7,0.4,1.5,0.6,2.5,0.6c1.5,0,2.6-0.2,3.4-0.6c0.8-0.4,1.1-1,1.1-1.8c0-1-0.6-1.7-1.7-2.1
			c-0.8-0.3-1.7-0.4-2.9-0.4c-1.2,0-2.2,0.2-2.8,0.6C30.4,208,30.1,208.5,30.1,209.3z" /></g></g><g><g><path d="M410.3,209.4V208l0-1.4c0-0.3,0-0.5,0.1-0.7c0.1-0.2,0.3-0.3,0.5-0.3c0.5,0,0.7,0.4,0.7,1.1l0,0.3l0,0.3
			c0.2,0,0.5,0,1-0.1c0.4,0,0.7-0.1,1-0.1c0.6,0,1.5,0.1,2.6,0.2c1.2,0.1,2,0.1,2.6,0.1c-0.5-0.6-0.7-1-0.7-1.2
			c0-0.2,0.1-0.3,0.2-0.5c0.1-0.1,0.3-0.2,0.5-0.2c0.2,0,0.5,0.2,0.8,0.6c0.2,0.2,0.5,0.6,0.8,1c0.4,0.4,0.6,0.8,0.6,1.1
			c0,0.3-0.2,0.5-0.5,0.5c-0.1,0-0.3,0-0.5,0s-0.4,0-0.5,0c-0.2,0-0.4,0-0.7,0c-0.3,0-0.5,0-0.7,0c-0.5,0-1.3-0.1-2.3-0.2
			s-1.8-0.2-2.3-0.2c-0.3,0-0.6,0-1,0.1c-0.4,0-0.7,0.1-0.9,0.1l0,0.7c0,0.2-0.1,0.3-0.2,0.5c-0.1,0.1-0.3,0.2-0.5,0.2
			c-0.2,0-0.3-0.1-0.5-0.2C410.4,209.7,410.3,209.6,410.3,209.4z" /><path d="M410,215c0-1,0.2-1.7,0.6-2.3c0.5-0.7,1.2-1,2.1-1c1.5,0,2.5,0.5,3,1.6c0.5-0.8,1.2-1.2,2.1-1.2c0.9,0,1.6,0.3,2.1,0.9
			c0.5,0.6,0.8,1.3,0.8,2.2c0,1.9-0.9,2.9-2.8,2.9c-0.5,0-1-0.1-1.3-0.3c-0.2-0.2-0.5-0.5-0.8-1c-0.3,0.7-0.7,1.2-1.1,1.4
			c-0.5,0.3-1.1,0.5-1.9,0.5c-0.9,0-1.7-0.3-2.2-1C410.2,216.9,410,216.1,410,215z M415.2,215c-0.3-0.7-0.6-1.2-0.9-1.4
			c-0.4-0.4-0.9-0.6-1.6-0.5c-0.6,0-1,0.3-1.3,0.8c-0.2,0.4-0.3,0.8-0.3,1.3c0,0.8,0.2,1.4,0.6,1.7c0.3,0.3,0.8,0.4,1.4,0.4
			c0.6,0,1.1-0.2,1.4-0.7C414.8,216.1,415,215.6,415.2,215z M419.6,215.1c0-0.6-0.2-1-0.5-1.3c-0.3-0.3-0.7-0.4-1.3-0.4
			c-0.6,0-1.1,0.5-1.4,1.6c0.2,0.5,0.3,0.9,0.5,1.2c0.3,0.4,0.6,0.6,1,0.6c0.6,0,1.1-0.1,1.3-0.4C419.5,216,419.6,215.6,419.6,215.1
			z" /><path d="M410.1,223.6c0-1.4,0.6-2.4,1.9-3c1-0.5,2.2-0.7,3.8-0.7c1.3,0,2.5,0.3,3.5,0.9c1.2,0.7,1.7,1.8,1.7,3
			c0,1.2-0.5,2.1-1.5,2.8c-0.9,0.6-2,0.9-3.2,0.9c-2,0-3.6-0.3-4.6-1C410.6,225.8,410.1,224.9,410.1,223.6z M419.7,223.8
			c0-0.8-0.4-1.5-1.3-2c-0.7-0.4-1.5-0.6-2.5-0.6c-1.5,0-2.6,0.2-3.4,0.6c-0.8,0.4-1.1,1-1.1,1.8c0,1,0.6,1.7,1.7,2.1
			c0.8,0.3,1.7,0.4,2.9,0.4c1.2,0,2.2-0.2,2.8-0.6C419.4,225.1,419.7,224.5,419.7,223.8z" /></g><g><path fill="#EC1E43" d="M394.3,216.5c0-1.4,0.6-2.4,1.9-3c1-0.5,2.2-0.7,3.8-0.7c1.3,0,2.5,0.3,3.5,0.9c1.2,0.7,1.7,1.8,1.7,3
			c0,1.2-0.5,2.1-1.5,2.8c-0.9,0.6-2,0.9-3.2,0.9c-2,0-3.6-0.3-4.6-1S394.3,217.8,394.3,216.5z M403.9,216.7c0-0.8-0.4-1.5-1.3-2
			c-0.7-0.4-1.5-0.6-2.5-0.6c-1.5,0-2.6,0.2-3.4,0.6s-1.1,1-1.1,1.8c0,1,0.6,1.7,1.7,2.1c0.8,0.3,1.7,0.4,2.9,0.4
			c1.2,0,2.2-0.2,2.8-0.6S403.9,217.5,403.9,216.7z" /></g></g></svg>