<svg id="Layer_1" data-name="Layer 1" xmlns="http://www.w3.org/2000/svg" viewBox="0 0 396.55981 54" width="396.55981" height="54" preserveAspectRatio="none"><defs><style>.cls-1{fill:#ffd943;opacity:0.5;isolation:isolate;}</style></defs><title>ruler10</title><rect class="cls-1" width="396.55981" height="54"/><path d="M18.15981,6.7a.45751.45751,0,0,0,.4.5c.2,0,.4-.3.4-.5V0h-.8Z"/><path d="M54.15981,6.7a.45751.45751,0,0,0,.4.5c.2,0,.4-.3.4-.5V0h-.8Z"/><path d="M90.15981,6.7a.4575.4575,0,0,0,.4.5c.2,0,.4-.3.4-.5V0h-.8Z"/><path d="M126.15981,6.7a.4575.4575,0,0,0,.4.5c.2,0,.4-.3.4-.5V0h-.8Z"/><path d="M162.15981,6.7a.45751.45751,0,0,0,.4.5c.2,0,.4-.3.4-.5V0h-.8V6.7Z"/><path d="M198.15981,6.7a.45751.45751,0,0,0,.4.5c.2,0,.4-.3.4-.5V0h-.8V6.7Z"/><path d="M234.15981,6.7a.45751.45751,0,0,0,.4.5c.2,0,.4-.3.4-.5V0h-.8V6.7Z"/><path d="M270.15981,6.7a.45752.45752,0,0,0,.4.5c.2,0,.4-.3.4-.5V0h-.8Z"/><path d="M306.15981,6.7a.45752.45752,0,0,0,.4.5c.2,0,.4-.3.4-.5V0h-.8Z"/><path d="M342.15981,6.7a.45752.45752,0,0,0,.4.5c.2,0,.4-.3.4-.5V0h-.8Z"/><path d="M378.15981,6.7a.45752.45752,0,0,0,.4.5c.2,0,.4-.3.4-.5V0h-.8Z"/><path d="M36.55981,15.1c-.3,0-.6-.3-.6-.9V0h1.1V14.3C37.15981,14.8,36.85981,15.1,36.55981,15.1Z"/><path d="M72.55981,15.1c-.3,0-.6-.3-.6-.9V0h1.1V14.3C73.15981,14.8,72.85981,15.1,72.55981,15.1Z"/><path d="M108.55981,15.1c-.3,0-.6-.3-.6-.9V0h1.1V14.3C109.15981,14.8,108.85981,15.1,108.55981,15.1Z"/><path d="M144.55981,15.1c-.3,0-.6-.3-.6-.9V0h1.1V14.3C145.15981,14.8,144.85981,15.1,144.55981,15.1Z"/><path d="M180.55981,15.1c-.3,0-.6-.3-.6-.9V0h1.1V14.3C181.15981,14.8,180.85981,15.1,180.55981,15.1Z"/><path d="M216.55981,15.1c-.3,0-.6-.3-.6-.9V0h1.1V14.3C217.15981,14.8,216.85981,15.1,216.55981,15.1Z"/><path d="M252.55981,15.1c-.3,0-.6-.3-.6-.9V0h1.1V14.3C253.15981,14.8,252.85981,15.1,252.55981,15.1Z"/><path d="M288.55981,15.1c-.3,0-.6-.3-.6-.9V0h1.1V14.3C289.15981,14.8,288.85979,15.1,288.55981,15.1Z"/><path d="M324.55981,15.1c-.3,0-.6-.3-.6-.9V0h1.1V14.3C325.15981,14.8,324.85979,15.1,324.55981,15.1Z"/><path d="M360.55981,15.1c-.3,0-.6-.3-.6-.9V0h1.1V14.3C361.15981,14.8,360.85979,15.1,360.55981,15.1Z"/><path d="M38.15981,31.6h-2.9c-.3,0-.6,0-.7-.1a.67521.67521,0,0,1-.4-.6c0-.5.4-.7,1.1-.7h.7a4.14214,4.14214,0,0,0-.1-1,4.14214,4.14214,0,0,1-.1-1c0-.6.1-1.6.2-2.8s.2-2.2.2-2.8c-.7.5-1.1.8-1.3.8a.68354.68354,0,0,1-.7-.7c0-.2.2-.5.6-.8.3-.2.6-.5,1.1-.9a1.90621,1.90621,0,0,1,1.2-.7c.3,0,.5.2.5.6v2.4c0,.6-.1,1.4-.2,2.5s-.2,1.9-.2,2.5a3.75133,3.75133,0,0,0,.1,1,3.75133,3.75133,0,0,1,.1,1h.8a.70718.70718,0,0,1,.5,1.2A.74932.74932,0,0,1,38.15981,31.6Z"/><path d="M75.2598,31.6a1.08732,1.08732,0,0,1-.5-.1,1.08728,1.08728,0,0,0-.5-.1h-2.2a2.48527,2.48527,0,0,0-.8.1,5.38456,5.38456,0,0,0-.8.1h-.4a.752.752,0,0,1-.7-.5,2.21962,2.21962,0,0,1-.1-.9,3.82922,3.82922,0,0,1,.9-2.7,18.05843,18.05843,0,0,1,2.3-1.8,13.63021,13.63021,0,0,0,1.4-1.1,2.45191,2.45191,0,0,0,.6-1.6.93773.93773,0,0,0-.6-.8,2.23558,2.23558,0,0,0-1-.3,2.19963,2.19963,0,0,0-1.3.4l-1,.8a.64634.64634,0,0,1-.5.2c-.5,0-.8-.2-.8-.6a.86433.86433,0,0,1,.3-.6q.9-.75,1.5-1.2a4.07474,4.07474,0,0,1,1.8-.5,3.697,3.697,0,0,1,2.1.6,2.16573,2.16573,0,0,1,1,1.9,5.90192,5.90192,0,0,1-.2,1.4,3.88053,3.88053,0,0,1-.6,1.1,12.48285,12.48285,0,0,1-1.9,1.5,14.46537,14.46537,0,0,0-1.8,1.3,2.97307,2.97307,0,0,0-.8,2l1.5-.1a21.32578,21.32578,0,0,1,2.2-.1,4.25282,4.25282,0,0,1,1.1.2c.4.2.7.4.7.7a.76385.76385,0,0,1-.2.5A2.54384,2.54384,0,0,1,75.2598,31.6Z"/><path d="M108.45981,31.6a4.55191,4.55191,0,0,1-2-.5,2.66585,2.66585,0,0,1-1.3-1.5v-.3a.68352.68352,0,0,1,.7-.7.54993.54993,0,0,1,.5.3l.3.5a1.79367,1.79367,0,0,0,.7.5,3.595,3.595,0,0,0,1.1.2,2.38933,2.38933,0,0,0,1.4-.5,1.76033,1.76033,0,0,0,.6-1.3,2.50414,2.50414,0,0,0-.8-1.8,3.60526,3.60526,0,0,0-1.9-.7c-.5-.1-.8-.3-.8-.7,0-.3.2-.5.6-.7l1.8-.4a2.17742,2.17742,0,0,0,.8-.5,1.13554,1.13554,0,0,0,.3-.8,1.23077,1.23077,0,0,0-.5-1,2.41006,2.41006,0,0,0-1.5-.4,3.553,3.553,0,0,0-1,.2l-.8.5c-.2.1-.3.2-.4.2a.68354.68354,0,0,1-.7-.7c0-.4.4-.8,1.1-1.1a4.11072,4.11072,0,0,1,1.6-.5,3.9039,3.9039,0,0,1,2.5.7,2.393,2.393,0,0,1,1,2.1,2.34356,2.34356,0,0,1-1.4,2.3c-.1,0-.2.1-.3.1a3.26938,3.26938,0,0,1,1.5,1.1,3.45334,3.45334,0,0,1,.5,1.8,3.31686,3.31686,0,0,1-1,2.5A3.63116,3.63116,0,0,1,108.45981,31.6Z"/><path d="M146.65981,28.2v2.7c0,.5-.2.7-.7.7s-.8-.4-.8-1.1V28.1l-3.2-.1a4.92212,4.92212,0,0,1-1.4-.1c-.4-.1-.7-.2-.7-.5a1.19554,1.19554,0,0,1,.4-.8l.6-.7,3.6-5.3a1.30577,1.30577,0,0,1,1.2-.7c.6,0,.8.2.8.7v6.1h.3c.9,0,1.3.2,1.3.7a.66114.66114,0,0,1-.6.7C147.55981,28.2,147.2598,28.3,146.65981,28.2Zm-1.4-6.2c-1.3,2.1-2.3,3.6-3.1,4.7l3.1.1Z"/><path d="M179.9598,31.6a3.5015,3.5015,0,0,1-3.1-1.5.60123.60123,0,0,1-.1-.4.76385.76385,0,0,1,.2-.5c.2-.1.3-.2.5-.2a.86437.86437,0,0,1,.6.3l.6.6a2.26907,2.26907,0,0,0,1.3.3,2.6429,2.6429,0,0,0,2.1-1,3.49457,3.49457,0,0,0,.8-2.2,2.8614,2.8614,0,0,0-.4-1.7,1.41923,1.41923,0,0,0-1.4-.8,5.06663,5.06663,0,0,0-1.3.2,2.09694,2.09694,0,0,0-.8.6l-.8.9a.90779.90779,0,0,1-.7.3.68354.68354,0,0,1-.7-.7,10.29644,10.29644,0,0,1,.1-1.3,21.23874,21.23874,0,0,0,.2-3,1.26834,1.26834,0,0,0-.1-.6,1.0872,1.0872,0,0,1-.1-.5c0-.3.3-.4.8-.4h4.6a.75586.75586,0,0,0,.4-.1c.2,0,.3-.1.4-.1a.68352.68352,0,0,1,.7.7c0,.5-.6.8-1.7.8h-3.4q0,.3-.3,2.4a4.551,4.551,0,0,1,2.7-.8,2.7645,2.7645,0,0,1,2.5,1.3,4.52638,4.52638,0,0,1,.7,2.7,4.79014,4.79014,0,0,1-1.2,3.3A3.54413,3.54413,0,0,1,179.9598,31.6Z"/><path d="M216.4598,31.6a3.12417,3.12417,0,0,1-2.8-1.4,5.70042,5.70042,0,0,1-.7-3.1,8.476,8.476,0,0,1,2.9-6.3l.7-.7a1.45835,1.45835,0,0,1,.8-.5.68354.68354,0,0,1,.7.7c0,.2-.2.5-.7,1l-1.5,1.5a5.01168,5.01168,0,0,0-1,1.8,7.59587,7.59587,0,0,1,1.1-.4,2.48521,2.48521,0,0,1,.8-.1,3.573,3.573,0,0,1,2.6.9,3.57288,3.57288,0,0,1,.9,2.6,4.10324,4.10324,0,0,1-1,2.9A3.763,3.763,0,0,1,216.4598,31.6Zm0-6a3.5951,3.5951,0,0,0-1.1.2c-.1.1-.4.2-1,.6v.8a4.13594,4.13594,0,0,0,.4,2.1,1.84826,1.84826,0,0,0,1.7,1.1,2.136,2.136,0,0,0,1.7-.8,2.88325,2.88325,0,0,0,.6-1.9,1.7548,1.7548,0,0,0-.6-1.5A2.05913,2.05913,0,0,0,216.4598,25.6Z"/><path d="M256.25982,21.6l-.7.8a15.76784,15.76784,0,0,0-1.8,2.7l-1.3,2.9c-.1.2-.3.8-.6,1.7a14.36106,14.36106,0,0,1-.7,1.6.60469.60469,0,0,1-.6.3.68354.68354,0,0,1-.7-.7,5.93125,5.93125,0,0,1,.5-1.4l1.6-4a17.144,17.144,0,0,1,2.2-3.7l.1-.2-3.7-.1h-1.6a.63172.63172,0,0,1-.7-.7.68355.68355,0,0,1,.7-.7c.6,0,1.5,0,2.8.1,1.2,0,2.2.1,2.8.1h1.3c.5,0,.8.2.8.5C256.75982,20.9,256.55981,21.2,256.25982,21.6Z"/><path d="M288.4598,31.6a3.90392,3.90392,0,0,1-2.5-.7,2.65573,2.65573,0,0,1-1.1-2.2c0-1.6.5-2.7,1.7-3.2a2.40622,2.40622,0,0,1-1.3-2.2,2.89584,2.89584,0,0,1,1-2.3,3.16792,3.16792,0,0,1,2.3-.9c2.1,0,3.1,1,3.1,3a2.11609,2.11609,0,0,1-.4,1.4,3.46673,3.46673,0,0,1-1.1.8,4.89681,4.89681,0,0,1,1.5,1.2,4.06412,4.06412,0,0,1,.5,2.1,2.71187,2.71187,0,0,1-1.1,2.3A4.0227,4.0227,0,0,1,288.4598,31.6Zm0-5.6a15.12652,15.12652,0,0,0-1.6.9,2.35228,2.35228,0,0,0-.6,1.7,1.59591,1.59591,0,0,0,.8,1.4,2.768,2.768,0,0,0,1.3.3,2.15671,2.15671,0,0,0,1.8-.6,2.07578,2.07578,0,0,0,.4-1.5,1.68256,1.68256,0,0,0-.7-1.5A4.46511,4.46511,0,0,0,288.4598,26Zm.1-4.6a1.97819,1.97819,0,0,0-1.4.5,1.84413,1.84413,0,0,0-.4,1.3c0,.7.6,1.2,1.7,1.5a5.88878,5.88878,0,0,0,1.3-.5,1.25469,1.25469,0,0,0,.6-1.1,1.8093,1.8093,0,0,0-.4-1.4A2.90419,2.90419,0,0,0,288.55981,21.4Z"/><path d="M325.65981,30a10.88939,10.88939,0,0,1-1.7,1,5.88759,5.88759,0,0,1-1.8.6.68355.68355,0,0,1-.7-.7c0-.3.2-.5.5-.7l1.2-.4a5.0498,5.0498,0,0,0,1.8-1.1,8.31173,8.31173,0,0,0,1.2-1.7l.3-.6a2.81694,2.81694,0,0,1-1.1.4,8.375,8.375,0,0,1-1,.2,4.06876,4.06876,0,0,1-2.4-.8,3.15974,3.15974,0,0,1-1.2-2.7,3.61513,3.61513,0,0,1,1.3-3.1,4.27713,4.27713,0,0,1,2.8-.9,3.36032,3.36032,0,0,1,2.4,1.1,3.69135,3.69135,0,0,1,1.1,2.8,9.22323,9.22323,0,0,1-.7,3.6A5.30479,5.30479,0,0,1,325.65981,30Zm-1-9.1a2.44467,2.44467,0,0,0-1.8.6,2.70715,2.70715,0,0,0-.6,1.9,2.136,2.136,0,0,0,.8,1.7,2.86021,2.86021,0,0,0,1.7.5,1.92179,1.92179,0,0,0,1.2-.4c.2-.1.5-.3,1.1-.7a4.14214,4.14214,0,0,0,.1-1,2.90035,2.90035,0,0,0-.8-1.8A3.19734,3.19734,0,0,0,324.65981,20.9Z"/><path d="M357.4598,31.3h-3c-.3,0-.6,0-.7-.1a.67519.67519,0,0,1-.4-.6c0-.5.4-.7,1.1-.7h.7a4.14214,4.14214,0,0,0-.1-1c0-.5-.1-.8-.1-1,0-.6.1-1.6.2-2.8s.2-2.2.2-2.8c-.7.5-1.1.8-1.3.8a.68357.68357,0,0,1-.7-.7c0-.2.2-.5.6-.8.3-.2.6-.5,1.1-.9a1.90613,1.90613,0,0,1,1.2-.7c.3,0,.5.2.5.6V23c0,.6-.1,1.4-.2,2.5s-.2,1.9-.2,2.5a3.751,3.751,0,0,0,.1,1,3.751,3.751,0,0,1,.1,1h.8a.70716.70716,0,0,1,.5,1.2C357.85979,31.3,357.65981,31.3,357.4598,31.3Z"/><path d="M363.55981,31.6a3.53782,3.53782,0,0,1-3.3-2,9.32449,9.32449,0,0,1-.8-4.1,6.41352,6.41352,0,0,1,1-3.7,3.824,3.824,0,0,1,3.2-1.9,3.31036,3.31036,0,0,1,3,1.6,6.27324,6.27324,0,0,1,.9,3.5,9.19788,9.19788,0,0,1-1,4.9A3.11362,3.11362,0,0,1,363.55981,31.6Zm.2-10.2a2.626,2.626,0,0,0-2.2,1.4,5.93952,5.93952,0,0,0-.7,2.6,6.95385,6.95385,0,0,0,.7,3.6,2.19973,2.19973,0,0,0,2,1.2,2.29362,2.29362,0,0,0,2.2-1.8,9.13891,9.13891,0,0,0,.5-3.1,6.1218,6.1218,0,0,0-.6-3A2.32251,2.32251,0,0,0,363.75982,21.4Z"/><path d="M5.55981,31.6a3.53782,3.53782,0,0,1-3.3-2,9.32449,9.32449,0,0,1-.8-4.1,6.41352,6.41352,0,0,1,1-3.7,3.824,3.824,0,0,1,3.2-1.9,3.31036,3.31036,0,0,1,3,1.6,6.27324,6.27324,0,0,1,.9,3.5,9.19788,9.19788,0,0,1-1,4.9A3.11362,3.11362,0,0,1,5.55981,31.6Zm.2-10.2a2.626,2.626,0,0,0-2.2,1.4,5.93952,5.93952,0,0,0-.7,2.6,6.95385,6.95385,0,0,0,.7,3.6,2.19973,2.19973,0,0,0,2,1.2,2.29362,2.29362,0,0,0,2.2-1.8,9.13891,9.13891,0,0,0,.5-3.1,6.1218,6.1218,0,0,0-.6-3A2.32251,2.32251,0,0,0,5.75982,21.4Z"/><path d="M.6,15.1c-.3,0-.6-.3-.6-.9V0H1.1V14.3C1.2,14.8.9,15.1.6,15.1Z"/></svg>