<?xml version="1.0" encoding="utf-8"?>
<!-- Generator: Adobe Illustrator 19.2.0, SVG Export Plug-In . SVG Version: 6.00 Build 0)  -->
<!DOCTYPE svg PUBLIC "-//W3C//DTD SVG 1.1//EN" "http://www.w3.org/Graphics/SVG/1.1/DTD/svg11.dtd">
<svg version="1.1" xmlns="http://www.w3.org/2000/svg" xmlns:xlink="http://www.w3.org/1999/xlink" x="0px" y="0px"
	 viewBox="0 0 58.3 138.9" enable-background="new 0 0 58.3 138.9" xml:space="preserve" width="58.3" height="138.9" preserveAspectRatio="none">
<g id="Waves_Background">
</g>
<g id="Cannon">
</g>
<g id="ship">
</g>
<g id="buoy_target">
	
		<ellipse transform="matrix(0.9999 -1.346154e-002 1.346154e-002 0.9999 -0.8579 0.3671)" fill="#CC8049" cx="26.8" cy="63.9" rx="1.9" ry="1.9"/>
	<polygon fill="#FCB55E" points="15.4,60.1 38.7,59.8 39.2,63 16.4,63.3 	"/>
	
		<ellipse transform="matrix(0.9999 -1.341556e-002 1.341556e-002 0.9999 -0.2018 0.3545)" fill="#F47632" cx="26.3" cy="15.2" rx="8.3" ry="8.3"/>
	<path fill="#BE1E2D" d="M26.2,9c-0.4,0-0.7,0-1,0.1c2.7,0.9,4.8,3.7,4.8,7c0,3.7-2.4,6.8-5.6,7.4c0.6,0.2,1.3,0.3,2,0.3
		c3.7,0,6.6-3.4,6.6-7.5S29.9,8.9,26.2,9z"/>
	
		<ellipse transform="matrix(0.9999 -1.338621e-002 1.338621e-002 0.9999 -0.2004 0.3243)" fill="#BE1E2D" cx="24.1" cy="15.1" rx="4" ry="5"/>
	<polygon fill="#FCB55E" points="18.7,99.9 21.6,33.7 23.8,33.7 20.7,101.1 	"/>
	<polygon fill="#FCB55E" points="36.9,99.7 32.2,33.6 30,33.6 34.9,100.9 	"/>
	<path fill="#9C1421" d="M51.7,121.5c0.1,10.6-10.3,14.8-23.3,15c-13,0.2-23.6-3.7-23.7-14.3C4.6,111.5,15,102.8,28,102.6
		C40.9,102.4,51.6,110.9,51.7,121.5z"/>
	<g>
		<path fill="#FFD563" d="M56.2,125.8c-17.8,4.8-36.5,5.1-54.5,0.7c-0.1-5.9-0.2-11.9-0.2-17.8c17.9,4.3,36.7,4.1,54.5-0.7
			C56,113.9,56.1,119.8,56.2,125.8z"/>
		<path fill="#BE1E2D" d="M56.2,125.8c-17.8,4.8-36.5,5.1-54.5,0.7c0-2.9-0.1-5.8-0.1-8.7c17.9,4.3,36.7,4.1,54.5-0.7
			C56.1,120,56.2,122.9,56.2,125.8z"/>
	</g>
	
		<ellipse transform="matrix(0.9999 -1.341195e-002 1.341195e-002 0.9999 -1.449 0.395)" fill="#FCB55E" cx="28.7" cy="108.2" rx="27.4" ry="5.2"/>
	<g>
		<path fill="#FFD563" d="M50.1,107.5c-14,3.1-28.7,3.3-42.8,0.6c-0.1-3.8-0.1-7.6-0.2-11.4C21.3,99.5,36,99.3,50,96.2
			C50,99.9,50.1,103.7,50.1,107.5z"/>
	</g>
	
		<ellipse transform="matrix(0.9999 -1.341349e-002 1.341349e-002 0.9999 -1.2904 0.3919)" fill="#FCB55E" cx="28.6" cy="96.4" rx="21.6" ry="3.3"/>
	<polygon fill="#FFD563" points="9.7,100.1 16.4,33.8 20.8,33.7 13.6,101.2 	"/>
	<polygon fill="#FFD563" points="45.9,99.6 37.4,33.5 33,33.6 42,100.8 	"/>
	
		<ellipse transform="matrix(0.9999 -1.341361e-002 1.341361e-002 0.9999 -1.2916 0.3841)" fill="#87532B" cx="28" cy="96.5" rx="11.6" ry="1.3"/>
	<path fill="#FFD563" d="M41.2,42.8c-9.3,3-19.6,3.2-29,0.4c-0.1-8.5-0.2-17.1-0.3-25.6c9.3-3,19.6-3.2,29-0.4
		C41,25.7,41.1,34.3,41.2,42.8z"/>
	<path fill="#FCB55E" d="M30.9,45c3.5-0.3,7-1,10.3-2.1c-0.1-8.5-0.2-17.1-0.3-25.6c-3.4-1-6.9-1.6-10.4-1.9
		C30.6,25.2,30.7,35.1,30.9,45z"/>
	<path fill="#CC8049" d="M27.1,65.5c-10.3,0.1-6.2,13.1-9.5,15.8c0,0.4,0.1,1.2,0.2,1.7c3,1,6.4,1.5,10,1.5c3.3,0,6.4-0.6,9.2-1.5
		c0.1-0.6,0.2-1.4,0.2-2C32.6,77.2,36.3,65.4,27.1,65.5z"/>
	<path fill="#87532B" d="M35.7,83.3c0-0.2,0-0.4,0-0.6c-3.9-3.9-0.7-16-8.6-15.9c-0.6,0-1.2,0.1-1.7,0.2c7.8-0.1,4.6,12,8.5,15.9
		c0,0.2,0,0.5,0,0.8C34.6,83.6,35.2,83.5,35.7,83.3z"/>
	<path fill="#87532B" d="M43.1,9.1l0.8,1.1L43.8,15c0,0-13.4,4.8-22.8,4.7c-9.3-0.1-11.5-3.9-11.5-3.9l-0.1-4.6L43.1,9.1z"/>
	<path fill="#87532B" d="M26.6,22.4c-9.5,0.3-17.2-2.9-17.2-7.2c0.1-4.3,7.8-8.1,17.3-8.4C36.3,6.4,44,9.6,44,14
		C43.9,18.3,36.1,22.1,26.6,22.4z"/>
	<path fill="#F0EAC1" d="M26.6,18.4C17,18.8,9.4,15.6,9.4,11.2c0.1-4.3,7.8-8.1,17.3-8.4C36.3,2.4,44,5.7,43.9,10
		C43.9,14.3,36.1,18.1,26.6,18.4z"/>
	<path fill="#BE1E2D" d="M26.6,16.2c-6.8,0.2-12.3-2.1-12.3-5.1c0-3.1,5.6-5.8,12.4-6C33.5,4.8,39,7.1,39,10.2
		C39,13.3,33.4,16,26.6,16.2z"/>
	<path fill="#F0EAC1" d="M26.6,13.8c-3.9,0.1-7-1.2-6.9-2.9c0-1.7,3.2-3.3,7-3.4c3.9-0.1,7,1.2,6.9,2.9
		C33.6,12.1,30.5,13.6,26.6,13.8z"/>
	<path fill="#BE1E2D" d="M26.6,12c-1.7,0.1-3-0.5-3-1.3c0-0.8,1.4-1.4,3-1.5c1.7-0.1,3,0.5,3,1.3C29.7,11.3,28.3,11.9,26.6,12z"/>
</g>
<g id="buoy_broken">
	<path d="M14.6,9c0,0,9.3,1.6,4.9,6.4c0,0,5.2-3.8,8.8-1.4c0,0,3.7-2.8,10-1.8c0,0-5.1-1.8-4.5-4.4c0,0-9.3,1.5-10.4-1.9
		C23.5,5.9,21,9.5,14.6,9z"/>
	<path d="M26.5,14.3C22.3,14.4,19,13,19,11c0-1.9,3.4-3.6,7.6-3.8c4.2-0.2,7.5,1.3,7.5,3.2C34,12.4,30.6,14.1,26.5,14.3z"/>
</g>
<g id="cannonball">
</g>
<g id="boom_2">
</g>
<g id="boom_1">
</g>
<g id="Waves_Foreground">
</g>
<g id="standing_idle_1">
</g>
</svg>
