<?xml version="1.0" encoding="utf-8"?>
<!-- Generator: Adobe Illustrator 19.2.0, SVG Export Plug-In . SVG Version: 6.00 Build 0)  -->
<!DOCTYPE svg PUBLIC "-//W3C//DTD SVG 1.1//EN" "http://www.w3.org/Graphics/SVG/1.1/DTD/svg11.dtd">
<svg version="1.1" xmlns="http://www.w3.org/2000/svg" xmlns:xlink="http://www.w3.org/1999/xlink" x="0px" y="0px"
	 viewBox="0 0 154.5 55" enable-background="new 0 0 114.5 55" xml:space="preserve" width="114.5" height="55" preserveAspectRatio="none">
<g id="Cannon" transform="translate(40, 0)">
	<g>
		<polygon fill="#00647D" points="56.3,35.6 56.4,36.8 57,36.7 57.3,35.9 		"/>
		<path fill="#003748" d="M58.7,20.7C41.9,18.3,24.8,18.1,8.3,21c-2,0.4-3.5,2.4-3.4,4.4l0.4,10.2c0.1,2,1.8,3.9,3.7,4.1
			c16.7,1.5,33.8-0.1,50.3-3.9c0,0,1.7-1.7,1.7-7.4C61,22.7,58.7,20.7,58.7,20.7z"/>
		<path fill="#00647D" d="M60.4,23.8c-0.7-2.2-1.7-3.1-1.7-3.1C41.9,18.3,24.8,18.1,8.3,21c-1.7,0.3-3.1,1.9-3.3,3.6
			C23.1,22.1,41.9,22,60.4,23.8z"/>

			<ellipse transform="matrix(0.9991 -4.165365e-002 4.165365e-002 0.9991 -1.2672 0.2071)" fill="#003748" cx="4.3" cy="30.5" rx="3.1" ry="3.1"/>
		<path fill="#00647D" d="M58.6,19.9c-0.9-0.1-1.7-0.2-2.6-0.2c0.5,1.2,2.1,2.9,2.3,8.4c0.1,4.4-0.8,6.8-2,8.8
			c0.8-0.1,2.2-0.1,3-0.2c0,0,2.5-1.9,2.6-8.2C62,22.1,58.6,19.9,58.6,19.9z"/>
		<polygon fill="#00647D" points="56,19.6 55.7,20.6 56.7,20.8 		"/>
	</g>
</g>
<g id="boom_2" transform="translate(40, 0)">
	<path fill="#C7E7DF" d="M77.3,13.4c0.1-1.8-1.3-3.3-3-3.4c-0.7,0-1.4,0.2-1.9,0.5c-0.4-2.1-2.1-3.7-4.3-3.8
		c-2.6-0.1-4.8,1.8-4.9,4.4c0,0.9,0.2,1.7,0.5,2.4c-0.9,0.4-1.6,1.3-1.7,2.4c-0.1,1.5,1,2.7,2.4,2.9c0.5,2.1,2.3,3.7,4.5,3.8
		c2.7,0.1,5.1-2,5.2-4.7c0-0.5,0-1-0.2-1.5C75.7,16.5,77.2,15.1,77.3,13.4z"/>
	<path fill="#C7E7DF" d="M70.4,35.3c-1.7-0.1-3.3,0.5-4.4,1.6c-0.2-0.1-0.4-0.1-0.6-0.1c-1.4-0.1-2.5,1-2.6,2.4c0,0.2,0,0.5,0.1,0.7
		c-1.4,0.4-2.5,1.7-2.6,3.3c-0.1,2,1.4,3.7,3.5,3.8c0.1,0,0.1,0,0.2,0c0,0.1,0,0.2,0,0.3c-0.1,1.6,1.2,3,2.8,3.1
		c1.6,0.1,3-1.2,3.1-2.8c0-0.1,0-0.2,0-0.3c0.1,0,0.1,0,0.2,0c3.3,0.2,6.1-2.4,6.3-5.7C76.2,38.3,73.7,35.5,70.4,35.3z"/>
	<g>
		<path fill="#FFD563" d="M65.3,24.7c0,0,0.6-0.1,1.6-0.1c1-0.1,2.4-0.2,4.2-0.3c1.7-0.1,3.7-0.2,5.9-0.3c2.2-0.1,4.5-0.2,6.8-0.3
			c2.3-0.1,4.6-0.1,6.8-0.1c2.2,0,4.2,0,5.9,0c1.7,0,3.2,0.1,4.2,0.1c1,0,1.6,0.1,1.6,0.1s-0.6,0.1-1.6,0.1c-1,0.1-2.4,0.2-4.2,0.3
			c-1.7,0.1-3.7,0.2-5.9,0.3c-2.2,0.1-4.5,0.2-6.8,0.3c-2.3,0.1-4.6,0.1-6.8,0.1c-2.2,0-4.2,0-5.9,0c-1.7,0-3.2-0.1-4.2-0.1
			C65.8,24.7,65.3,24.7,65.3,24.7z"/>
	</g>
	<g>
		<path fill="#FFD563" d="M65,28.5c0,0,0.4,0,1.2-0.1c0.7,0,1.8-0.2,3.1-0.2c1.3-0.1,2.7-0.2,4.3-0.2c1.6-0.1,3.3-0.1,5-0.1
			c1.7,0,3.4,0,5,0c1.6,0,3.1,0.1,4.3,0.1c1.3,0,2.3,0.1,3.1,0.1c0.7,0.1,1.2,0.1,1.2,0.1s-0.4,0-1.2,0.1c-0.7,0-1.8,0.2-3.1,0.2
			c-1.3,0.1-2.7,0.2-4.3,0.2c-1.6,0.1-3.3,0.1-5,0.1c-1.7,0-3.4,0-5,0c-1.6,0-3.1-0.1-4.3-0.1c-1.3,0-2.3-0.1-3.1-0.1
			C65.4,28.6,65,28.5,65,28.5z"/>
	</g>
	<g>
		<path fill="#FFD563" d="M66.3,31.8c0,0,0.6,0,1.6,0c1,0,2.5,0,4.2,0c1.7,0,3.8,0.1,5.9,0.1c2.2,0.1,4.5,0.2,6.8,0.3
			c2.3,0.1,4.6,0.2,6.8,0.4c2.2,0.1,4.2,0.3,5.9,0.4c1.7,0.1,3.2,0.3,4.2,0.4c1,0.1,1.6,0.2,1.6,0.2s-0.6,0-1.6,0c-1,0-2.5,0-4.2,0
			c-1.7,0-3.8-0.1-5.9-0.1c-2.2-0.1-4.5-0.2-6.8-0.3c-2.3-0.1-4.6-0.2-6.8-0.4c-2.2-0.1-4.2-0.3-5.9-0.4c-1.7-0.1-3.2-0.3-4.2-0.4
			C66.9,31.8,66.3,31.8,66.3,31.8z"/>
	</g>

		<ellipse transform="matrix(5.217167e-002 -0.9986 0.9986 5.217167e-002 58.6351 98.0301)" fill="#C7E7DF" cx="81" cy="18.1" rx="1.3" ry="1.3"/>

		<ellipse transform="matrix(5.217167e-002 -0.9986 0.9986 5.217167e-002 38.0776 119.5733)" fill="#C7E7DF" cx="82" cy="39.7" rx="2.6" ry="2.6"/>

		<ellipse transform="matrix(5.217167e-002 -0.9986 0.9986 5.217167e-002 22.4612 125.4949)" fill="#C7E7DF" cx="77.3" cy="50.9" rx="1.8" ry="1.8"/>

		<ellipse transform="matrix(5.217167e-002 -0.9986 0.9986 5.217167e-002 39.1205 66.1958)" fill="#C7E7DF" cx="54.4" cy="12.5" rx="2.9" ry="2.9"/>
</g>
</svg>
