<?xml version="1.0" encoding="utf-8"?>
<!-- Generator: Adobe Illustrator 19.2.0, SVG Export Plug-In . SVG Version: 6.00 Build 0)  -->
<!DOCTYPE svg PUBLIC "-//W3C//DTD SVG 1.1//EN" "http://www.w3.org/Graphics/SVG/1.1/DTD/svg11.dtd">
<svg version="1.1" xmlns="http://www.w3.org/2000/svg" xmlns:xlink="http://www.w3.org/1999/xlink" x="0px" y="0px"
	 viewBox="0 0 154.5 55" enable-background="new 0 0 114.5 55" xml:space="preserve" width="114.5" height="55" preserveAspectRatio="none">
<g id="Cannon" transform="translate(40, 0)">
	<g>
		<polygon fill="#00647D" points="56.3,35.6 56.4,36.8 57,36.7 57.3,35.9 		"/>
		<path fill="#003748" d="M58.7,20.7C41.9,18.3,24.8,18.1,8.3,21c-2,0.4-3.5,2.4-3.4,4.4l0.4,10.2c0.1,2,1.8,3.9,3.7,4.1
			c16.7,1.5,33.8-0.1,50.3-3.9c0,0,1.7-1.7,1.7-7.4C61,22.7,58.7,20.7,58.7,20.7z"/>
		<path fill="#00647D" d="M60.4,23.8c-0.7-2.2-1.7-3.1-1.7-3.1C41.9,18.3,24.8,18.1,8.3,21c-1.7,0.3-3.1,1.9-3.3,3.6
			C23.1,22.1,41.9,22,60.4,23.8z"/>

			<ellipse transform="matrix(0.9991 -4.165365e-002 4.165365e-002 0.9991 -1.2672 0.2071)" fill="#003748" cx="4.3" cy="30.5" rx="3.1" ry="3.1"/>
		<path fill="#00647D" d="M58.6,19.9c-0.9-0.1-1.7-0.2-2.6-0.2c0.5,1.2,2.1,2.9,2.3,8.4c0.1,4.4-0.8,6.8-2,8.8
			c0.8-0.1,2.2-0.1,3-0.2c0,0,2.5-1.9,2.6-8.2C62,22.1,58.6,19.9,58.6,19.9z"/>
		<polygon fill="#00647D" points="56,19.6 55.7,20.6 56.7,20.8 		"/>
	</g>
</g>
<g id="boom_1" transform="translate(40, 0)">
	<path fill="#C7E7DF" d="M72.1,13.3c1.4-0.2,2.4-1.6,2.2-3c-0.1-0.6-0.4-1.1-0.8-1.5c1.6-0.7,2.6-2.3,2.3-4.1
		c-0.3-2.1-2.3-3.5-4.4-3.2c-0.7,0.1-1.3,0.4-1.8,0.8c-0.5-0.7-1.3-1.1-2.2-0.9c-1.2,0.2-2,1.3-1.9,2.4C64,4.6,63,6.3,63.3,8.1
		c0.3,2.2,2.4,3.7,4.6,3.4c0.4-0.1,0.8-0.2,1.2-0.4C69.4,12.5,70.7,13.5,72.1,13.3z"/>
	<path fill="#C7E7DF" d="M82.9,26.7c0.2-3.6-2.5-6.6-6-6.8c-1.4-0.1-2.7,0.3-3.8,1.1c-0.8-4.2-4.2-7.4-8.5-7.6
		c-5.1-0.3-9.4,3.7-9.7,8.9c-0.1,1.7,0.3,3.4,1,4.8c-1.8,0.8-3.2,2.6-3.3,4.8c-0.2,2.9,2,5.5,4.8,5.8c1,4.2,4.5,7.4,8.9,7.6
		c5.4,0.3,10-4,10.3-9.5c0.1-1-0.1-2-0.3-3C79.8,33,82.7,30.3,82.9,26.7z"/>
	<g>
		<path fill="#9CD9DD" d="M60.1,37.9c-2.8-0.4-4.9-2.9-4.8-5.8c0.1-2.2,1.4-4,3.3-4.8c-0.7-1.4-1.1-3.1-1-4.8
			c0.2-4.7,3.9-8.5,8.4-8.9c-0.4-0.1-0.9-0.2-1.3-0.2c-5.1-0.3-9.4,3.7-9.7,8.9c-0.1,1.7,0.3,3.4,1,4.8c-1.8,0.8-3.2,2.6-3.3,4.8
			c-0.2,2.9,2,5.5,4.8,5.8c1,4.2,4.5,7.4,8.9,7.6c0.4,0,0.9,0,1.3,0C63.9,44.6,61,41.6,60.1,37.9z"/>
	</g>
	<g>
		<path fill="#9CD9DD" d="M68.6,22.4c1.6-0.4,3.3,0.5,3.9,2.1c0.4,1.2,0.1,2.5-0.7,3.4c0.7,0.6,1.3,1.4,1.7,2.4
			c0.9,2.7-0.2,5.5-2.6,6.8c0.3,0,0.5-0.1,0.8-0.2c2.8-1,4.3-4.2,3.3-7.1c-0.3-1-0.9-1.8-1.7-2.4c0.8-0.9,1.1-2.2,0.7-3.4
			c-0.6-1.6-2.3-2.5-3.9-2.1c-1.5-2.1-4.1-3-6.6-2.1c-0.2,0.1-0.5,0.2-0.7,0.3C65,19.6,67.2,20.6,68.6,22.4z"/>
	</g>
	<path fill="#C7E7DF" d="M72.3,46.2c-0.9,0-1.6,0.3-2.2,0.8c-0.1,0-0.2-0.1-0.3-0.1c-0.7,0-1.3,0.5-1.3,1.2c0,0.1,0,0.2,0,0.3
		c-0.7,0.2-1.3,0.9-1.3,1.7c-0.1,1,0.7,1.9,1.7,1.9c0,0,0.1,0,0.1,0c0,0.1,0,0.1,0,0.2c0,0.8,0.6,1.5,1.4,1.5c0.8,0,1.5-0.6,1.5-1.4
		c0-0.1,0-0.1,0-0.2c0,0,0.1,0,0.1,0c1.7,0.1,3.1-1.2,3.2-2.8C75.3,47.7,74,46.2,72.3,46.2z"/>
	<g>
		<path fill="#FFD563" d="M65.3,24.7c0,0,0.5-0.1,1.5-0.2c1-0.1,2.3-0.2,3.9-0.3c1.6-0.1,3.5-0.3,5.6-0.4c2-0.1,4.2-0.2,6.4-0.3
			c2.2-0.1,4.4-0.2,6.4-0.2c2-0.1,3.9,0,5.6-0.1c1.6,0,3,0,4,0c1,0,1.5,0,1.5,0s-0.5,0.1-1.5,0.2c-1,0.1-2.3,0.2-3.9,0.3
			c-1.6,0.1-3.5,0.3-5.6,0.4c-2,0.1-4.2,0.2-6.4,0.3c-2.2,0.1-4.4,0.2-6.4,0.2c-2,0-3.9,0-5.6,0.1c-1.6,0-3,0-4,0
			C65.8,24.7,65.3,24.7,65.3,24.7z"/>
	</g>
	<g>
		<path fill="#F58554" d="M65,28.5c0,0,3-0.4,7.4-0.6c2.2-0.1,4.8-0.3,7.6-0.4c1.4,0,2.8-0.1,4.3-0.1c1.5,0,3,0,4.4-0.1
			c1.5,0,3,0,4.4,0c1.5,0,2.9,0,4.3,0.1c2.8,0.1,5.4,0.1,7.6,0.3c4.5,0.2,7.4,0.5,7.4,0.5s-3,0.4-7.4,0.6c-2.2,0.1-4.8,0.3-7.6,0.4
			c-1.4,0-2.8,0.1-4.3,0.1c-1.5,0-3,0-4.4,0.1c-1.5,0-3,0-4.4,0c-1.5,0-2.9,0-4.3-0.1c-2.8-0.1-5.4-0.1-7.6-0.3
			C68,28.9,65,28.5,65,28.5z"/>
	</g>
	<g>
		<path fill="#FFD563" d="M66.3,31.8c0,0,0.6,0,1.6,0c1,0,2.5,0,4.3,0.1c1.8,0.1,3.8,0.1,6,0.2c2.2,0.1,4.5,0.2,6.9,0.3
			c2.3,0.1,4.7,0.3,6.9,0.5c2.2,0.2,4.2,0.4,6,0.5c1.8,0.1,3.2,0.3,4.2,0.4c1,0.1,1.6,0.2,1.6,0.2s-0.6,0-1.6,0c-1,0-2.5,0-4.3-0.1
			c-1.8-0.1-3.8-0.1-6-0.2c-2.2-0.1-4.5-0.2-6.9-0.3c-2.3-0.1-4.7-0.3-6.9-0.5c-2.2-0.2-4.2-0.4-6-0.5c-1.8-0.1-3.2-0.3-4.2-0.4
			C66.9,31.8,66.3,31.8,66.3,31.8z"/>
	</g>

		<ellipse transform="matrix(5.217167e-002 -0.9986 0.9986 5.217167e-002 58.6351 98.0301)" fill="#C7E7DF" cx="81" cy="18.1" rx="1.3" ry="1.3"/>

		<ellipse transform="matrix(5.217167e-002 -0.9986 0.9986 5.217167e-002 39.183 114.0171)" fill="#C7E7DF" cx="79.7" cy="36.4" rx="1.3" ry="1.3"/>

		<ellipse transform="matrix(5.217167e-002 -0.9986 0.9986 5.217167e-002 29.1698 119.0141)" fill="#C7E7DF" cx="77.3" cy="44.1" rx="1.8" ry="1.8"/>

		<ellipse transform="matrix(5.217167e-002 -0.9986 0.9986 5.217167e-002 45.0259 68.6227)" fill="#C7E7DF" cx="58.7" cy="10.6" rx="1.6" ry="1.6"/>
</g>
</svg>
