<?xml version="1.0" encoding="utf-8"?>
<!-- Generator: Adobe Illustrator 21.1.0, SVG Export Plug-In . SVG Version: 6.00 Build 0)  -->
<svg version="1.1" xmlns="http://www.w3.org/2000/svg" xmlns:xlink="http://www.w3.org/1999/xlink" x="0px" y="0px"
	 viewBox="0 0 227.9 369.2" style="enable-background:new 0 0 227.9 369.2;" xml:space="preserve" width="227.9" height="369.2" preserveAspectRatio="none">
<style type="text/css">
	.st0{fill:#56C5D0;}
	.st1{fill:url(#SVGID_1_);}
	.st2{fill:#00AFC1;}
	.st3{fill:#00647D;}
	.st4{fill:#003748;}
	.st5{fill:#8F4C1C;}
	.st6{fill:#3A0800;}
	.st7{fill:#682C00;}
	.st8{fill:url(#SVGID_2_);}
	.st9{fill:url(#SVGID_3_);}
	.st10{fill:none;stroke:#FFD563;stroke-width:2;stroke-miterlimit:10;}
	.st11{fill:#B05E27;}
	.st12{fill:#BE1E2D;}
	.st13{fill:#FFD563;}
	.st14{fill:url(#SVGID_4_);}
	.st15{fill:url(#SVGID_5_);}
	.st16{fill:url(#SVGID_6_);}
	.st17{fill:url(#SVGID_7_);}
	.st18{fill:#CC8049;}
	.st19{fill:#FCB55E;}
	.st20{fill:#F47632;}
	.st21{fill:#9C1421;}
	.st22{fill:#87532B;}
	.st23{fill:#F0EAC1;}
	.st24{fill:#C7E7DF;}
	.st25{fill:#9CD9DD;}
	.st26{fill:#F58554;}
	.st27{fill:#009DB5;}
	.st28{fill:#FFFFFF;}
</style>
<g id="Waves_Background">
</g>
<g id="Cannon">
</g>
<g id="ship">
	<g>
		<path class="st5" d="M198.4,254.4c0,0-5.4,110.8-81.8,110.8c-76,0-81.8-110.8-81.8-110.8s71.3-22.8,86.2-22.8
			C136,231.6,198.4,254.4,198.4,254.4z"/>
		<path class="st11" d="M120.1,268.3c12.4,0,57.8,15.8,72.6,21.1c1-4,1.9-7.9,2.6-11.5c-11.1-4-61.9-22.1-75.2-22.1
			c-12.7,0-66.7,16.7-82.1,21.5c0.7,3.6,1.6,7.5,2.6,11.6C58.7,283.4,108,268.3,120.1,268.3z"/>
		<path class="st11" d="M44.4,301.8c1.2,3.7,2.6,7.4,4.2,11.1c21.7-6.7,60.9-18.3,71.6-18.3c10.7,0,45.8,11.7,64.8,18.4
			c1.5-3.7,2.9-7.3,4.1-11c-17.6-6.2-57.4-19.8-68.9-19.8C108.8,282.2,64.7,295.5,44.4,301.8z"/>
		<path class="st11" d="M54.6,325.4c2,3.6,4.2,7.1,6.6,10.4c21.8-6.5,50.1-14.4,58.9-14.4c8.6,0,33.2,7.7,52.4,14.1
			c2.4-3.3,4.5-6.7,6.4-10.2c-19.7-6.7-49.2-16.3-58.8-16.3C110.4,309,76.9,318.7,54.6,325.4z"/>
		<path class="st11" d="M120.1,336.8c-7.4,0-28.6,5.6-48.1,11.2c3.7,3.4,7.8,6.4,12.2,8.9c15.5-4.3,30-7.8,35.8-7.8
			c5.5,0,17.5,3.1,30.4,7c4.2-2.5,8.1-5.5,11.6-8.8C145.2,342.1,127.2,336.8,120.1,336.8z"/>
		<path class="st7" d="M121.3,240.8c14,0,67.9,20.7,79.4,25.2c0.9-7.6,1.1-12.3,1.1-12.3s-65.1-25.8-80.6-25.8
			c-15.5,0-89.9,25.8-89.9,25.8s0.2,4.7,1.2,12.3C45.1,261.8,107.2,240.8,121.3,240.8z"/>
		<path class="st7" d="M127.5,366.6h-15.2l-1.6-142.5c0,0,3-2.4,9.4-2.4c6.5,0,8.9,2.4,8.9,2.4L127.5,366.6z"/>
		<path class="st6" d="M132,247.9c-7.9,0-15.9,0-23.8,0c-2.8-8.2-2.8-17.2,0-25.3c7.9,0,15.9,0,23.8,0
			C134.9,230.7,134.9,239.7,132,247.9z"/>
		<path class="st7" d="M132,243.5c-7.9,0-15.9,0-23.8,0c-2.8-7.5-2.8-15.8,0-23.3c7.9,0,15.9,0,23.8,0
			C134.9,227.7,134.9,236,132,243.5z"/>
		<polygon class="st6" points="121.5,267.8 117.7,267.8 116.1,246 123.1,246 		"/>
		<polygon class="st7" points="36.7,281.7 45.7,279.2 55.1,317.5 48.6,320 		"/>
		<polygon class="st7" points="199,281.7 190.1,279.2 180.7,317.5 187.1,320 		"/>
		<ellipse transform="matrix(0.995 -0.1001 0.1001 0.995 -25.5436 10.9494)" class="st7" cx="96.3" cy="260" rx="3.2" ry="5.3"/>
		<ellipse transform="matrix(0.1001 -0.995 0.995 0.1001 -131.9299 374.1263)" class="st7" cx="140.9" cy="260" rx="5.3" ry="3.2"/>
	</g>
</g>
<g id="buoy_target">
</g>
<g id="buoy_broken">
</g>
<g id="cannonball">
</g>
<g id="boom_2">
</g>
<g id="boom_1">
</g>
<g id="Waves_Foreground">
</g>
<g id="standing_idle_1">
</g>
</svg>
