<?xml version="1.0" encoding="utf-8"?>
<svg version="1.1" xmlns="http://www.w3.org/2000/svg" xmlns:xlink="http://www.w3.org/1999/xlink" x="0px" y="0px"
	 viewBox="0 0 70 64" enable-background="new 0 0 70 64" xml:space="preserve" width="70" height="64" preserveAspectRatio="none">
<g id="EyesCenter">
	<circle fill="#BC531E" cx="27.6" cy="7.6" r="6.2"/>
	<path fill="#BC531E" d="M23.9,10.4c0,0-2,1.7-1.1,8.7c1,7,5.2,12.1,5.2,12.1l1.5-0.2c0,0-4.7-5.3-4-10.5c0.7-5.1,5.7-8.4,5.7-8.4
		L23.9,10.4z"/>
	<circle fill="#BC531E" cx="43.5" cy="7.6" r="6.2"/>
	<path fill="#BC531E" d="M47.3,10.4c0,0,2,1.7,1.1,8.7c-1,7-5.2,12.1-5.2,12.1l-1.5-0.2c0,0,4.4-5.6,3.8-10.7
		c-0.7-5.1-5.4-8.1-5.4-8.1L47.3,10.4z"/>
	<circle fill="#FFEB63" cx="27.5" cy="7.4" r="4.3"/>
	<circle fill="#FFEB63" cx="43.6" cy="7.4" r="4.3"/>
	<ellipse fill="#21110A" cx="28.1" cy="7.5" rx="2" ry="2.4"/>
	<ellipse fill="#21110A" cx="43.3" cy="7.4" rx="2" ry="2.4"/>
	<circle fill="#00667F" cx="42.3" cy="7.3" r="1.1"/>
	<circle fill="#00667F" cx="27.1" cy="7.4" r="1.1"/>
	<ellipse fill="#BC531E" cx="27.6" cy="10.6" rx="3.7" ry="1.9"/>
	<ellipse fill="#BC531E" cx="43.3" cy="10.6" rx="3.7" ry="1.9"/>
</g>
</svg>
