<svg id="Layer_3" data-name="Layer 3" xmlns="http://www.w3.org/2000/svg" viewBox="0 0 396 75" width="396" height="75" preserveAspectRatio="none"><defs><style>
      .cls-1 {
        fill: #e66857;
      }

      .cls-2 {
        fill: #ad8a4e;
      }

      .cls-3 {
        fill: #735729;
      }

      .cls-4 {
        fill: #5e457f;
      }

      .cls-5 {
        fill: #c65f99;
      }

      .cls-6 {
        fill: #406e37;
      }
    </style></defs><g><path class="cls-4" d="M59.25,23.43c-.46.6-1.1,1.06-1.92,1.37s-1.75.47-2.79.47-2.02-.24-2.85-.73c-.83-.49-1.46-1.18-1.91-2.09s-.68-1.96-.7-3.17v-1c0-1.93.46-3.44,1.39-4.53.93-1.09,2.22-1.63,3.88-1.63,1.42,0,2.55.35,3.39,1.06.84.71,1.34,1.72,1.51,3.05h-2.18c-.25-1.54-1.14-2.31-2.68-2.31-1,0-1.75.36-2.27,1.08s-.79,1.77-.8,3.16v.98c0,1.38.29,2.45.87,3.22s1.39,1.15,2.43,1.15c1.14,0,1.95-.26,2.43-.77v-2.5h-2.64v-1.69h4.85v4.9Z" /><path class="cls-4" d="M66.47,17.53c-.28-.05-.57-.07-.87-.07-.98,0-1.64.38-1.98,1.12v6.5h-2.14v-9.51h2.04l.05,1.06c.52-.83,1.23-1.24,2.14-1.24.3,0,.56.04.76.12v2Z" /><path class="cls-4" d="M67.1,20.25c0-.93.18-1.77.55-2.52s.89-1.32,1.56-1.72c.67-.4,1.44-.6,2.3-.6,1.28,0,2.32.41,3.12,1.24s1.23,1.92,1.3,3.29v.5c0,.94-.17,1.78-.53,2.51s-.88,1.31-1.55,1.71-1.45.61-2.32.61c-1.34,0-2.42-.45-3.22-1.34-.81-.89-1.21-2.08-1.21-3.57v-.11ZM69.23,20.43c0,.98.2,1.74.61,2.3s.97.83,1.69.83,1.28-.28,1.68-.84.6-1.39.6-2.47c0-.96-.21-1.72-.62-2.29s-.97-.84-1.68-.84-1.25.28-1.66.83-.62,1.38-.62,2.48Z" /><path class="cls-4" d="M77.37,20.27c0-1.48.35-2.66,1.04-3.54.69-.88,1.62-1.32,2.76-1.32,1.08,0,1.94.38,2.56,1.13l.1-.96h1.92v9.22c0,1.25-.39,2.23-1.16,2.95s-1.82,1.08-3.14,1.08c-.7,0-1.38-.15-2.04-.44s-1.17-.67-1.52-1.14l1.01-1.28c.66.78,1.46,1.17,2.43,1.17.71,0,1.27-.19,1.68-.58.41-.38.62-.95.62-1.69v-.64c-.62.69-1.44,1.03-2.46,1.03-1.11,0-2.02-.44-2.73-1.33-.71-.88-1.06-2.11-1.06-3.67ZM79.5,20.45c0,.96.19,1.71.58,2.25.39.55.93.82,1.62.82.86,0,1.5-.37,1.92-1.11v-4.18c-.4-.72-1.04-1.08-1.9-1.08-.7,0-1.25.28-1.64.83-.39.56-.58,1.38-.58,2.46Z" /><path class="cls-4" d="M87.58,20.27c0-1.48.35-2.66,1.04-3.54.69-.88,1.62-1.32,2.76-1.32,1.08,0,1.94.38,2.56,1.13l.1-.96h1.92v9.22c0,1.25-.39,2.23-1.16,2.95s-1.82,1.08-3.14,1.08c-.7,0-1.38-.15-2.04-.44s-1.17-.67-1.52-1.14l1.01-1.28c.66.78,1.46,1.17,2.43,1.17.71,0,1.27-.19,1.68-.58.41-.38.62-.95.62-1.69v-.64c-.62.69-1.44,1.03-2.46,1.03-1.11,0-2.02-.44-2.73-1.33-.71-.88-1.06-2.11-1.06-3.67ZM89.7,20.45c0,.96.19,1.71.58,2.25.39.55.93.82,1.62.82.86,0,1.5-.37,1.92-1.11v-4.18c-.4-.72-1.04-1.08-1.9-1.08-.7,0-1.25.28-1.64.83-.39.56-.58,1.38-.58,2.46Z" /></g><g><path class="cls-5" d="M53.69,59.21l1.97-9.63h2.21l-2.95,12.8h-2.13l-2.43-9.34-2.49,9.34h-2.14l-2.95-12.8h2.21l1.99,9.62,2.44-9.62h1.86l2.42,9.63Z" /><path class="cls-5" d="M59.28,50.39c0-.33.1-.6.31-.82.21-.22.51-.33.89-.33s.69.11.9.33c.21.22.32.49.32.82s-.11.59-.32.8c-.21.21-.51.32-.9.32s-.68-.11-.89-.32c-.21-.21-.31-.48-.31-.8ZM61.55,62.37h-2.14v-9.51h2.14v9.51Z" /><path class="cls-5" d="M65.86,52.86l.06,1.1c.7-.85,1.63-1.27,2.77-1.27,1.98,0,2.99,1.13,3.02,3.4v6.28h-2.14v-6.16c0-.6-.13-1.05-.39-1.34s-.69-.44-1.28-.44c-.86,0-1.5.39-1.92,1.17v6.77h-2.14v-9.51h2.01Z" /><path class="cls-5" d="M75.87,52.86l.06,1.1c.7-.85,1.63-1.27,2.77-1.27,1.98,0,2.99,1.13,3.02,3.4v6.28h-2.14v-6.16c0-.6-.13-1.05-.39-1.34s-.69-.44-1.28-.44c-.86,0-1.5.39-1.92,1.17v6.77h-2.14v-9.51h2.01Z" /><path class="cls-5" d="M83.9,50.39c0-.33.1-.6.31-.82.21-.22.51-.33.89-.33s.69.11.9.33c.21.22.32.49.32.82s-.11.59-.32.8c-.21.21-.51.32-.9.32s-.68-.11-.89-.32c-.21-.21-.31-.48-.31-.8ZM86.17,62.37h-2.14v-9.51h2.14v9.51Z" /><path class="cls-5" d="M92.68,62.55c-1.35,0-2.45-.43-3.29-1.28s-1.26-1.99-1.26-3.41v-.26c0-.95.18-1.8.55-2.54s.88-1.33,1.54-1.74c.66-.42,1.4-.62,2.21-.62,1.29,0,2.3.41,3,1.24s1.06,2,1.06,3.51v.86h-6.21c.06.79.33,1.41.79,1.86s1.04.69,1.74.69c.98,0,1.78-.4,2.39-1.19l1.15,1.1c-.38.57-.89,1.01-1.52,1.32s-1.35.47-2.14.47ZM92.43,54.4c-.59,0-1.06.21-1.42.62-.36.41-.59.98-.69,1.71h4.07v-.16c-.05-.71-.24-1.26-.57-1.62-.33-.37-.8-.55-1.39-.55Z" /></g><g><path class="cls-1" d="M138.16,19.85c0,7.27-6.85,13.16-15.3,13.16s-15.3-5.89-15.3-13.16,6.84-10.55,15.29-10.55,15.3,3.28,15.3,10.55Z" /><path class="cls-6" d="M123.07,9.29c2.39-.39,4.6-1,6.54-1.94,0,0-1.16,2.22-3.6,2.66,2.16.06,3.6.76,5.49,2.11-3-.75-4.27-1.16-5.65-.78,0,0,3.1,2.6,3.99,4.6l-7.54-3.82c-2.25.69-3.45,1.98-4.99,3.27.39-1.41,1.16-2.63,2.33-3.66-1.29-.89-3.47-1.02-6.21-.67,2.31-.89,4.07-1.9,5.99-1.55l-.67-.94c1.68.49,4.32.72,4.32.72Z" /></g><g><path class="cls-1" d="M173.75,19.85c0,7.27-6.85,13.16-15.3,13.16s-15.3-5.89-15.3-13.16,6.84-10.55,15.29-10.55,15.3,3.28,15.3,10.55Z" /><path class="cls-6" d="M158.67,9.29c2.39-.39,4.6-1,6.54-1.94,0,0-1.16,2.22-3.6,2.66,2.16.06,3.6.76,5.49,2.11-3-.75-4.27-1.16-5.65-.78,0,0,3.1,2.6,3.99,4.6l-7.54-3.82c-2.25.69-3.45,1.98-4.99,3.27.39-1.41,1.16-2.63,2.33-3.66-1.29-.89-3.47-1.02-6.21-.67,2.31-.89,4.07-1.9,5.99-1.55l-.67-.94c1.68.49,4.32.72,4.32.72Z" /></g><g><path class="cls-1" d="M209.34,19.85c0,7.27-6.85,13.16-15.3,13.16s-15.3-5.89-15.3-13.16,6.84-10.55,15.29-10.55,15.3,3.28,15.3,10.55Z" /><path class="cls-6" d="M194.26,9.29c2.39-.39,4.6-1,6.54-1.94,0,0-1.16,2.22-3.6,2.66,2.16.06,3.6.76,5.49,2.11-3-.75-4.27-1.16-5.65-.78,0,0,3.1,2.6,3.99,4.6l-7.54-3.82c-2.25.69-3.45,1.98-4.99,3.27.39-1.41,1.16-2.63,2.33-3.66-1.29-.89-3.47-1.02-6.21-.67,2.31-.89,4.07-1.9,5.99-1.55l-.67-.94c1.68.49,4.32.72,4.32.72Z" /></g><g><path class="cls-2" d="M218.72,33.03c5.35,3.77,13.35.5,17.1-6.11,3.76-6.61,5.89-18.07.2-21.31s-13.91,6.38-18.69,11.37c-5.22,5.44-3.2,12.82,1.39,16.05Z" /><ellipse class="cls-3" cx="229.34" cy="10.54" rx=".6" ry=".46" transform="translate(76.06 181.46) rotate(-50.75)" /><path class="cls-3" d="M234.66,22.17c-.28-.23-.23-.74.1-1.15s.83-.56,1.11-.33.42,1.06.08,1.47-1.02.25-1.29.02Z" /><path class="cls-3" d="M226.74,22.61c.23-.28.75-.23,1.15.11s.55.84.32,1.11-1.06.41-1.47.07-.24-1.02,0-1.29Z" /><ellipse class="cls-3" cx="236.35" cy="13.1" rx=".46" ry=".6" transform="translate(53.55 163.48) rotate(-42.62)" /><ellipse class="cls-3" cx="237.58" cy="14.46" rx=".88" ry=".29" transform="translate(108.72 214.58) rotate(-60.71)" /><path class="cls-3" d="M215.65,23.48c.25-.05.22.66.28.99s.22.68-.03.73-.5-.18-.56-.5.06-1.17.31-1.21Z" /><ellipse class="cls-3" cx="228.42" cy="20.98" rx=".46" ry=".6" transform="translate(46.12 160.2) rotate(-42.62)" /><path class="cls-3" d="M224.28,32.74c0-.25.26-.27.59-.26s.81-.35.8-.1-.48.84-.81.83-.59-.22-.58-.47Z" /><ellipse class="cls-3" cx="231.16" cy="6.54" rx=".27" ry=".33" transform="translate(79.83 181.4) rotate(-50.75)" /><ellipse class="cls-3" cx="230.41" cy="7.32" rx=".19" ry=".27" transform="translate(78.95 181.1) rotate(-50.75)" /><ellipse class="cls-3" cx="227.53" cy="21.17" rx=".24" ry=".27" transform="translate(67.16 183.96) rotate(-50.75)" /><ellipse class="cls-3" cx="231.34" cy="7.36" rx=".19" ry=".27" transform="translate(79.26 181.84) rotate(-50.75)" /><ellipse class="cls-3" cx="226.38" cy="33.03" rx=".24" ry=".27" transform="translate(57.56 187.43) rotate(-50.75)" /><path class="cls-3" d="M224.13,12.77c0,.25-.19.43-.52.43s-.6-.19-.6-.45.26-.46.59-.47.53.23.53.48Z" /><path class="cls-3" d="M234.6,23.5c0,.25-.71.4-1.04.4s-.6-.19-.6-.45.26-.46.59-.47,1.05.26,1.06.51Z" /><path class="cls-3" d="M216.59,24.29s.84,3.52.49,2.69c-.12-.27-.85-1.03-.49-2.69Z" /></g><g><path class="cls-2" d="M252.02,33.03c5.35,3.77,13.35.5,17.1-6.11,3.76-6.61,5.89-18.07.2-21.31-5.69-3.23-13.91,6.38-18.69,11.37-5.22,5.44-3.2,12.82,1.39,16.05Z" /><ellipse class="cls-3" cx="262.64" cy="10.54" rx=".6" ry=".46" transform="translate(88.29 207.24) rotate(-50.75)" /><path class="cls-3" d="M267.95,22.17c-.28-.23-.23-.74.1-1.15s.83-.56,1.11-.33.42,1.06.08,1.47-1.02.25-1.29.02Z" /><path class="cls-3" d="M260.03,22.61c.23-.28.75-.23,1.15.11s.55.84.32,1.11-1.06.41-1.47.07c-.41-.34-.24-1.02,0-1.29Z" /><ellipse class="cls-3" cx="269.64" cy="13.1" rx=".46" ry=".6" transform="translate(62.34 186.03) rotate(-42.62)" /><ellipse class="cls-3" cx="270.88" cy="14.46" rx=".88" ry=".29" transform="translate(125.73 243.62) rotate(-60.71)" /><path class="cls-3" d="M248.95,23.48c.25-.05.22.66.28.99s.22.68-.03.73-.5-.18-.56-.5.06-1.17.31-1.21Z" /><ellipse class="cls-3" cx="261.72" cy="20.98" rx=".46" ry=".6" transform="translate(54.91 182.74) rotate(-42.62)" /><path class="cls-3" d="M257.58,32.74c0-.25.26-.27.59-.26s.81-.35.8-.1-.48.84-.81.83-.59-.22-.58-.47Z" /><ellipse class="cls-3" cx="264.45" cy="6.54" rx=".27" ry=".33" transform="translate(92.05 207.18) rotate(-50.75)" /><ellipse class="cls-3" cx="263.7" cy="7.32" rx=".19" ry=".27" transform="translate(91.18 206.89) rotate(-50.75)" /><ellipse class="cls-3" cx="260.82" cy="21.17" rx=".24" ry=".27" transform="translate(79.39 209.74) rotate(-50.75)" /><ellipse class="cls-3" cx="264.63" cy="7.36" rx=".19" ry=".27" transform="translate(91.49 207.62) rotate(-50.75)" /><ellipse class="cls-3" cx="259.68" cy="33.03" rx=".24" ry=".27" transform="translate(69.78 213.21) rotate(-50.75)" /><path class="cls-3" d="M257.42,12.77c0,.25-.19.43-.52.43s-.6-.19-.6-.45.26-.46.59-.47.53.23.53.48Z" /><path class="cls-3" d="M267.89,23.5c0,.25-.71.4-1.04.4s-.6-.19-.6-.45.26-.46.59-.47,1.05.26,1.06.51Z" /><path class="cls-3" d="M249.88,24.29s.84,3.52.49,2.69c-.12-.27-.85-1.03-.49-2.69Z" /></g><g><path class="cls-2" d="M285.32,33.03c5.35,3.77,13.35.5,17.1-6.11,3.76-6.61,5.89-18.07.2-21.31-5.69-3.23-13.91,6.38-18.69,11.37-5.22,5.44-3.2,12.82,1.39,16.05Z" /><ellipse class="cls-3" cx="295.93" cy="10.54" rx=".6" ry=".46" transform="translate(100.52 233.03) rotate(-50.75)" /><path class="cls-3" d="M301.25,22.17c-.28-.23-.23-.74.1-1.15s.83-.56,1.11-.33.42,1.06.08,1.47-1.02.25-1.29.02Z" /><path class="cls-3" d="M293.33,22.61c.23-.28.75-.23,1.15.11s.55.84.32,1.11-1.06.41-1.47.07-.24-1.02,0-1.29Z" /><ellipse class="cls-3" cx="302.94" cy="13.1" rx=".46" ry=".6" transform="translate(71.13 208.57) rotate(-42.62)" /><ellipse class="cls-3" cx="304.17" cy="14.46" rx=".88" ry=".29" transform="translate(142.73 272.66) rotate(-60.71)" /><path class="cls-3" d="M282.24,23.48c.25-.05.22.66.28.99s.22.68-.03.73-.5-.18-.56-.5.06-1.17.31-1.21Z" /><ellipse class="cls-3" cx="295.01" cy="20.98" rx=".46" ry=".6" transform="translate(63.7 205.29) rotate(-42.62)" /><path class="cls-3" d="M290.87,32.74c0-.25.26-.27.59-.26s.81-.35.8-.1-.48.84-.81.83-.59-.22-.58-.47Z" /><ellipse class="cls-3" cx="297.75" cy="6.54" rx=".27" ry=".33" transform="translate(104.28 232.96) rotate(-50.75)" /><ellipse class="cls-3" cx="297" cy="7.32" rx=".19" ry=".27" transform="translate(103.41 232.67) rotate(-50.75)" /><ellipse class="cls-3" cx="294.12" cy="21.17" rx=".24" ry=".27" transform="translate(91.62 235.53) rotate(-50.75)" /><ellipse class="cls-3" cx="297.93" cy="7.36" rx=".19" ry=".27" transform="translate(103.71 233.41) rotate(-50.75)" /><ellipse class="cls-3" cx="292.97" cy="33.03" rx=".24" ry=".27" transform="translate(82.01 238.99) rotate(-50.75)" /><path class="cls-3" d="M290.72,12.77c0,.25-.19.43-.52.43s-.6-.19-.6-.45.26-.46.59-.47.53.23.53.48Z" /><path class="cls-3" d="M301.19,23.5c0,.25-.71.4-1.04.4s-.6-.19-.6-.45.26-.46.59-.47,1.05.26,1.06.51Z" /><path class="cls-3" d="M283.18,24.29s.84,3.52.49,2.69c-.12-.27-.85-1.03-.49-2.69Z" /></g><g><path class="cls-2" d="M318.61,33.03c5.35,3.77,13.35.5,17.1-6.11,3.76-6.61,5.89-18.07.2-21.31-5.69-3.23-13.91,6.38-18.69,11.37-5.22,5.44-3.2,12.82,1.39,16.05Z" /><ellipse class="cls-3" cx="329.23" cy="10.54" rx=".6" ry=".46" transform="translate(112.75 258.81) rotate(-50.75)" /><path class="cls-3" d="M334.55,22.17c-.28-.23-.23-.74.1-1.15s.83-.56,1.11-.33.42,1.06.08,1.47-1.02.25-1.29.02Z" /><path class="cls-3" d="M326.63,22.61c.23-.28.75-.23,1.15.11s.55.84.32,1.11-1.06.41-1.47.07-.24-1.02,0-1.29Z" /><ellipse class="cls-3" cx="336.24" cy="13.1" rx=".46" ry=".6" transform="translate(79.93 231.12) rotate(-42.62)" /><ellipse class="cls-3" cx="337.47" cy="14.46" rx=".88" ry=".29" transform="translate(159.74 301.7) rotate(-60.71)" /><path class="cls-3" d="M315.54,23.48c.25-.05.22.66.28.99s.22.68-.03.73-.5-.18-.56-.5.06-1.17.31-1.21Z" /><ellipse class="cls-3" cx="328.31" cy="20.98" rx=".46" ry=".6" transform="translate(72.5 227.83) rotate(-42.62)" /><path class="cls-3" d="M324.17,32.74c0-.25.26-.27.59-.26s.81-.35.8-.1-.48.84-.81.83-.59-.22-.58-.47Z" /><ellipse class="cls-3" cx="331.05" cy="6.54" rx=".27" ry=".33" transform="translate(116.51 258.75) rotate(-50.75)" /><ellipse class="cls-3" cx="330.3" cy="7.32" rx=".19" ry=".27" transform="translate(115.63 258.45) rotate(-50.75)" /><ellipse class="cls-3" cx="327.42" cy="21.17" rx=".24" ry=".27" transform="translate(103.85 261.31) rotate(-50.75)" /><ellipse class="cls-3" cx="331.23" cy="7.36" rx=".19" ry=".27" transform="translate(115.94 259.19) rotate(-50.75)" /><ellipse class="cls-3" cx="326.27" cy="33.03" rx=".24" ry=".27" transform="translate(94.24 264.78) rotate(-50.75)" /><path class="cls-3" d="M324.02,12.77c0,.25-.19.43-.52.43s-.6-.19-.6-.45.26-.46.59-.47.53.23.53.48Z" /><path class="cls-3" d="M334.49,23.5c0,.25-.71.4-1.04.4s-.6-.19-.6-.45.26-.46.59-.47,1.05.26,1.06.51Z" /><path class="cls-3" d="M316.48,24.29s.84,3.52.49,2.69c-.12-.27-.85-1.03-.49-2.69Z" /></g><g><path class="cls-1" d="M138.16,54.19c0,7.27-6.85,13.16-15.3,13.16s-15.3-5.89-15.3-13.16,6.84-10.55,15.29-10.55,15.3,3.28,15.3,10.55Z" /><path class="cls-6" d="M123.07,43.64c2.39-.39,4.6-1,6.54-1.94,0,0-1.16,2.22-3.6,2.66,2.16.06,3.6.76,5.49,2.11-3-.75-4.27-1.16-5.65-.78,0,0,3.1,2.6,3.99,4.6l-7.54-3.82c-2.25.69-3.45,1.98-4.99,3.27.39-1.41,1.16-2.63,2.33-3.66-1.29-.89-3.47-1.02-6.21-.67,2.31-.89,4.07-1.9,5.99-1.55l-.67-.94c1.68.49,4.32.72,4.32.72Z" /></g><g><path class="cls-1" d="M173.75,54.19c0,7.27-6.85,13.16-15.3,13.16s-15.3-5.89-15.3-13.16,6.84-10.55,15.29-10.55,15.3,3.28,15.3,10.55Z" /><path class="cls-6" d="M158.67,43.64c2.39-.39,4.6-1,6.54-1.94,0,0-1.16,2.22-3.6,2.66,2.16.06,3.6.76,5.49,2.11-3-.75-4.27-1.16-5.65-.78,0,0,3.1,2.6,3.99,4.6l-7.54-3.82c-2.25.69-3.45,1.98-4.99,3.27.39-1.41,1.16-2.63,2.33-3.66-1.29-.89-3.47-1.02-6.21-.67,2.31-.89,4.07-1.9,5.99-1.55l-.67-.94c1.68.49,4.32.72,4.32.72Z" /></g><g><path class="cls-1" d="M209.34,54.19c0,7.27-6.85,13.16-15.3,13.16s-15.3-5.89-15.3-13.16,6.84-10.55,15.29-10.55,15.3,3.28,15.3,10.55Z" /><path class="cls-6" d="M194.26,43.64c2.39-.39,4.6-1,6.54-1.94,0,0-1.16,2.22-3.6,2.66,2.16.06,3.6.76,5.49,2.11-3-.75-4.27-1.16-5.65-.78,0,0,3.1,2.6,3.99,4.6l-7.54-3.82c-2.25.69-3.45,1.98-4.99,3.27.39-1.41,1.16-2.63,2.33-3.66-1.29-.89-3.47-1.02-6.21-.67,2.31-.89,4.07-1.9,5.99-1.55l-.67-.94c1.68.49,4.32.72,4.32.72Z" /></g><g><path class="cls-1" d="M244.35,54.19c0,7.27-6.85,13.16-15.3,13.16s-15.3-5.89-15.3-13.16,6.84-10.55,15.29-10.55,15.3,3.28,15.3,10.55Z" /><path class="cls-6" d="M229.27,43.64c2.39-.39,4.6-1,6.54-1.94,0,0-1.16,2.22-3.6,2.66,2.16.06,3.6.76,5.49,2.11-3-.75-4.27-1.16-5.65-.78,0,0,3.1,2.6,3.99,4.6l-7.54-3.82c-2.25.69-3.45,1.98-4.99,3.27.39-1.41,1.16-2.63,2.33-3.66-1.29-.89-3.47-1.02-6.21-.67,2.31-.89,4.07-1.9,5.99-1.55l-.67-.94c1.68.49,4.32.72,4.32.72Z" /></g><g><path class="cls-2" d="M252.02,67.38c5.35,3.77,13.35.5,17.1-6.11,3.76-6.61,5.89-18.07.2-21.31-5.69-3.23-13.91,6.38-18.69,11.37-5.22,5.44-3.2,12.82,1.39,16.05Z" /><ellipse class="cls-3" cx="262.64" cy="44.89" rx=".6" ry=".46" transform="translate(61.69 219.86) rotate(-50.75)" /><path class="cls-3" d="M267.95,56.52c-.28-.23-.23-.74.1-1.15s.83-.56,1.11-.33.42,1.06.08,1.47-1.02.25-1.29.02Z" /><path class="cls-3" d="M260.03,56.96c.23-.28.75-.23,1.15.11s.55.84.32,1.11-1.06.41-1.47.07-.24-1.02,0-1.29Z" /><ellipse class="cls-3" cx="269.64" cy="47.45" rx=".46" ry=".6" transform="translate(39.08 195.1) rotate(-42.62)" /><ellipse class="cls-3" cx="270.88" cy="48.81" rx=".88" ry=".29" transform="translate(95.77 261.16) rotate(-60.71)" /><path class="cls-3" d="M248.95,57.83c.25-.05.22.66.28.99s.22.68-.03.73-.5-.18-.56-.5.06-1.17.31-1.21Z" /><ellipse class="cls-3" cx="261.72" cy="55.33" rx=".46" ry=".6" transform="translate(31.65 191.82) rotate(-42.62)" /><path class="cls-3" d="M257.58,67.09c0-.25.26-.27.59-.26s.81-.35.8-.1-.48.84-.81.83-.59-.22-.58-.47Z" /><ellipse class="cls-3" cx="264.45" cy="40.89" rx=".27" ry=".33" transform="translate(65.46 219.79) rotate(-50.75)" /><ellipse class="cls-3" cx="263.7" cy="41.67" rx=".19" ry=".27" transform="translate(64.58 219.5) rotate(-50.75)" /><ellipse class="cls-3" cx="260.82" cy="55.52" rx=".24" ry=".27" transform="translate(52.79 222.36) rotate(-50.75)" /><ellipse class="cls-3" cx="264.63" cy="41.71" rx=".19" ry=".27" transform="translate(64.89 220.24) rotate(-50.75)" /><ellipse class="cls-3" cx="259.68" cy="67.38" rx=".24" ry=".27" transform="translate(43.19 225.82) rotate(-50.75)" /><path class="cls-3" d="M257.42,47.12c0,.25-.19.43-.52.43s-.6-.19-.6-.45.26-.46.59-.47.53.23.53.48Z" /><path class="cls-3" d="M267.89,57.85c0,.25-.71.4-1.04.4s-.6-.19-.6-.45.26-.46.59-.47,1.05.26,1.06.51Z" /><path class="cls-3" d="M249.88,58.64s.84,3.52.49,2.69c-.12-.27-.85-1.03-.49-2.69Z" /></g><g><path class="cls-2" d="M285.32,67.38c5.35,3.77,13.35.5,17.1-6.11,3.76-6.61,5.89-18.07.2-21.31-5.69-3.23-13.91,6.38-18.69,11.37-5.22,5.44-3.2,12.82,1.39,16.05Z" /><ellipse class="cls-3" cx="295.93" cy="44.89" rx=".6" ry=".46" transform="translate(73.92 245.64) rotate(-50.75)" /><path class="cls-3" d="M301.25,56.52c-.28-.23-.23-.74.1-1.15s.83-.56,1.11-.33.42,1.06.08,1.47-1.02.25-1.29.02Z" /><path class="cls-3" d="M293.33,56.96c.23-.28.75-.23,1.15.11s.55.84.32,1.11-1.06.41-1.47.07-.24-1.02,0-1.29Z" /><ellipse class="cls-3" cx="302.94" cy="47.45" rx=".46" ry=".6" transform="translate(47.88 217.64) rotate(-42.62)" /><ellipse class="cls-3" cx="304.17" cy="48.81" rx=".88" ry=".29" transform="translate(112.78 290.2) rotate(-60.71)" /><path class="cls-3" d="M282.24,57.83c.25-.05.22.66.28.99s.22.68-.03.73-.5-.18-.56-.5.06-1.17.31-1.21Z" /><ellipse class="cls-3" cx="295.01" cy="55.33" rx=".46" ry=".6" transform="translate(40.45 214.36) rotate(-42.62)" /><path class="cls-3" d="M290.87,67.09c0-.25.26-.27.59-.26s.81-.35.8-.1-.48.84-.81.83-.59-.22-.58-.47Z" /><ellipse class="cls-3" cx="297.75" cy="40.89" rx=".27" ry=".33" transform="translate(77.69 245.58) rotate(-50.75)" /><ellipse class="cls-3" cx="297" cy="41.67" rx=".19" ry=".27" transform="translate(76.81 245.28) rotate(-50.75)" /><ellipse class="cls-3" cx="294.12" cy="55.52" rx=".24" ry=".27" transform="translate(65.02 248.14) rotate(-50.75)" /><ellipse class="cls-3" cx="297.93" cy="41.71" rx=".19" ry=".27" transform="translate(77.12 246.02) rotate(-50.75)" /><ellipse class="cls-3" cx="292.97" cy="67.38" rx=".24" ry=".27" transform="translate(55.42 251.61) rotate(-50.75)" /><path class="cls-3" d="M290.72,47.12c0,.25-.19.43-.52.43s-.6-.19-.6-.45.26-.46.59-.47.53.23.53.48Z" /><path class="cls-3" d="M301.19,57.85c0,.25-.71.4-1.04.4s-.6-.19-.6-.45.26-.46.59-.47,1.05.26,1.06.51Z" /><path class="cls-3" d="M283.18,58.64s.84,3.52.49,2.69c-.12-.27-.85-1.03-.49-2.69Z" /></g><g><path class="cls-2" d="M318.61,67.38c5.35,3.77,13.35.5,17.1-6.11,3.76-6.61,5.89-18.07.2-21.31-5.69-3.23-13.91,6.38-18.69,11.37-5.22,5.44-3.2,12.82,1.39,16.05Z" /><ellipse class="cls-3" cx="329.23" cy="44.89" rx=".6" ry=".46" transform="translate(86.15 271.42) rotate(-50.75)" /><path class="cls-3" d="M334.55,56.52c-.28-.23-.23-.74.1-1.15s.83-.56,1.11-.33.42,1.06.08,1.47-1.02.25-1.29.02Z" /><path class="cls-3" d="M326.63,56.96c.23-.28.75-.23,1.15.11s.55.84.32,1.11-1.06.41-1.47.07-.24-1.02,0-1.29Z" /><ellipse class="cls-3" cx="336.24" cy="47.45" rx=".46" ry=".6" transform="translate(56.67 240.19) rotate(-42.62)" /><ellipse class="cls-3" cx="337.47" cy="48.81" rx=".88" ry=".29" transform="translate(129.78 319.24) rotate(-60.71)" /><path class="cls-3" d="M315.54,57.83c.25-.05.22.66.28.99s.22.68-.03.73-.5-.18-.56-.5.06-1.17.31-1.21Z" /><ellipse class="cls-3" cx="328.31" cy="55.33" rx=".46" ry=".6" transform="translate(49.24 236.9) rotate(-42.62)" /><path class="cls-3" d="M324.17,67.09c0-.25.26-.27.59-.26s.81-.35.8-.1-.48.84-.81.83-.59-.22-.58-.47Z" /><ellipse class="cls-3" cx="331.05" cy="40.89" rx=".27" ry=".33" transform="translate(89.91 271.36) rotate(-50.75)" /><ellipse class="cls-3" cx="330.3" cy="41.67" rx=".19" ry=".27" transform="translate(89.04 271.07) rotate(-50.75)" /><ellipse class="cls-3" cx="327.42" cy="55.52" rx=".24" ry=".27" transform="translate(77.25 273.92) rotate(-50.75)" /><ellipse class="cls-3" cx="331.23" cy="41.71" rx=".19" ry=".27" transform="translate(89.34 271.8) rotate(-50.75)" /><ellipse class="cls-3" cx="326.27" cy="67.38" rx=".24" ry=".27" transform="translate(67.64 277.39) rotate(-50.75)" /><path class="cls-3" d="M324.02,47.12c0,.25-.19.43-.52.43s-.6-.19-.6-.45.26-.46.59-.47.53.23.53.48Z" /><path class="cls-3" d="M334.49,57.85c0,.25-.71.4-1.04.4s-.6-.19-.6-.45.26-.46.59-.47,1.05.26,1.06.51Z" /><path class="cls-3" d="M316.48,58.64s.84,3.52.49,2.69c-.12-.27-.85-1.03-.49-2.69Z" /></g></svg>