<svg id="Layer_3" data-name="Layer 3" xmlns="http://www.w3.org/2000/svg" viewBox="0 0 396 174.76" width="396" height="174.76" preserveAspectRatio="none"><defs><style>
      .cls-1 {
        stroke-width: 5px;
      }

      .cls-1, .cls-2, .cls-3 {
        fill: none;
        stroke: #9c9a95;
        stroke-linecap: round;
        stroke-miterlimit: 10;
      }

      .cls-4 {
        fill: #d44097;
      }

      .cls-5 {
        fill: #61b6d1;
      }

      .cls-6 {
        fill: #79c47d;
      }

      .cls-7 {
        fill: #14a8d8;
      }

      .cls-8 {
        fill: #3b3e39;
      }

      .cls-9 {
        fill: #f9a76f;
      }

      .cls-10 {
        fill: #e79b68;
      }

      .cls-11 {
        fill: #27b34b;
      }

      .cls-12 {
        fill: #fedf50;
      }

      .cls-13 {
        fill: #7f5ea8;
      }

      .cls-14 {
        fill: #fadb4f;
      }

      .cls-15 {
        fill: #5e457f;
      }

      .cls-16 {
        fill: #e27048;
      }

      .cls-17 {
        fill: #d33c2a;
      }

      .cls-18 {
        fill: #9c9a95;
      }

      .cls-19 {
        fill: #ac85bc;
      }

      .cls-2, .cls-3 {
        stroke-width: .9px;
      }

      .cls-20 {
        fill: #c65f99;
      }

      .cls-21 {
        fill: #e27752;
      }

      .cls-22 {
        fill: #0767a1;
      }

      .cls-3 {
        stroke-dasharray: 2.71;
      }

      .cls-23 {
        fill: #ded487;
      }

      .cls-24 {
        fill: #e7c322;
      }

      .cls-25 {
        fill: #e183b6;
      }

      .cls-26 {
        fill: #0588b3;
      }

      .cls-27 {
        fill: #b02829;
      }

      .cls-28 {
        fill: #e57ab0;
      }

      .cls-29 {
        fill: #4582a9;
      }

      .cls-30 {
        fill: #084e7b;
      }

      .cls-31 {
        fill: #e56d62;
      }

      .cls-32 {
        fill: #41853f;
      }
    </style></defs><g><g><g><rect class="cls-29" x="92.39" y="45.77" width="45.45" height="6.57" transform="translate(66.06 164.18) rotate(-90)" /><rect class="cls-30" x="113.05" y="66.43" width="4.13" height="6.57" transform="translate(45.4 184.84) rotate(-90)" /><rect class="cls-8" x="113.82" y="58.71" width="2.59" height="6.57" transform="translate(53.12 177.11) rotate(-90)" /><rect class="cls-8" x="114.67" y="56" width=".9" height="6.57" transform="translate(55.83 174.4) rotate(-90)" /><rect class="cls-8" x="114.67" y="27.36" width=".9" height="6.57" transform="translate(84.47 145.77) rotate(-90)" /><g><rect class="cls-30" x="113.79" y="21.72" width="2.65" height="6.57" transform="translate(90.11 140.13) rotate(-90)" /><polygon class="cls-30" points="118.4 24.16 111.83 24.16 114.62 16.06 115.61 16.06 118.4 24.16" /><rect class="cls-22" x="114.89" y="20.62" width=".45" height="6.57" transform="translate(91.2 139.03) rotate(-90)" /></g><rect class="cls-8" x="113.86" y="29.96" width="2.51" height="6.57" transform="translate(81.87 148.36) rotate(-90)" /></g><g><rect class="cls-25" x="84.73" y="42.02" width="47.63" height="6.57" transform="translate(63.23 153.85) rotate(-90)" /><rect class="cls-4" x="106.48" y="63.77" width="4.13" height="6.57" transform="translate(41.48 175.6) rotate(-90)" /><rect class="cls-4" x="107.22" y="19.06" width="2.65" height="6.57" transform="translate(86.19 130.89) rotate(-90)" /><rect class="cls-8" x="107.31" y="55.98" width="2.46" height="6.57" transform="translate(49.27 167.81) rotate(-90)" /><rect class="cls-8" x="108.09" y="53.34" width=".9" height="6.57" transform="translate(51.91 165.17) rotate(-90)" /><rect class="cls-8" x="107.32" y="27.33" width="2.44" height="6.57" transform="translate(77.92 139.16) rotate(-90)" /><rect class="cls-8" x="108.09" y="24.7" width=".9" height="6.57" transform="translate(80.55 136.53) rotate(-90)" /><polygon class="cls-4" points="111.83 21.5 105.25 21.5 108.05 11.23 109.04 11.23 111.83 21.5" /><rect class="cls-28" x="108.31" y="17.96" width=".45" height="6.57" transform="translate(87.29 129.79) rotate(-90)" /></g><g><polygon class="cls-10" points="78.78 25.18 78.78 71.95 72.21 63.58 72.21 25.18 78.78 25.18" /><polygon class="cls-16" points="78.78 67.82 78.78 71.95 72.21 63.58 72.21 59.45 78.78 67.82" /><rect class="cls-8" x="74.2" y="58.88" width="2.59" height="6.57" transform="translate(13.33 137.66) rotate(-90)" /><rect class="cls-8" x="75.04" y="56.17" width=".9" height="6.57" transform="translate(16.04 134.95) rotate(-90)" /><rect class="cls-8" x="75.04" y="27.53" width=".9" height="6.57" transform="translate(44.68 106.31) rotate(-90)" /><rect class="cls-21" x="74.17" y="20.56" width="2.65" height="6.57" transform="translate(51.64 99.34) rotate(-90)" /><polygon class="cls-16" points="78.78 23 72.21 23 75 14.9 75.99 14.9 78.78 23" /><rect class="cls-9" x="75.27" y="19.46" width=".45" height="6.57" transform="translate(52.74 98.25) rotate(-90)" /><rect class="cls-8" x="74.24" y="30.12" width="2.51" height="6.57" transform="translate(42.08 108.91) rotate(-90)" /></g><g><rect class="cls-19" x="73.35" y="44.76" width="43.81" height="6.57" transform="translate(47.2 143.3) rotate(-90)" /><rect class="cls-15" x="93.19" y="64.6" width="4.13" height="6.57" transform="translate(27.36 163.14) rotate(-90)" /><rect class="cls-8" x="93.96" y="56.88" width="2.59" height="6.57" transform="translate(35.09 155.42) rotate(-90)" /><rect class="cls-8" x="94.8" y="54.17" width=".9" height="6.57" transform="translate(37.79 152.71) rotate(-90)" /><rect class="cls-8" x="94.8" y="25.53" width=".9" height="6.57" transform="translate(66.43 124.07) rotate(-90)" /><g><rect class="cls-15" x="93.93" y="21.53" width="2.65" height="6.57" transform="translate(70.44 120.07) rotate(-90)" /><polygon class="cls-15" points="98.54 23.96 91.97 23.96 94.76 17.22 95.75 17.22 98.54 23.96" /><rect class="cls-13" x="95.03" y="20.43" width=".45" height="6.57" transform="translate(71.54 118.97) rotate(-90)" /></g><rect class="cls-8" x="94" y="28.13" width="2.51" height="6.57" transform="translate(63.84 126.67) rotate(-90)" /></g><g><polyline class="cls-6" points="105.13 46.15 105.13 71.78 98.55 71.78 98.55 24.16 105.13 24.16 105.13 46.15" /><rect class="cls-32" x="99.78" y="66.43" width="4.13" height="6.57" transform="translate(32.12 171.56) rotate(-90)" /><rect class="cls-32" x="100.52" y="21.72" width="2.65" height="6.57" transform="translate(76.83 126.85) rotate(-90)" /><rect class="cls-8" x="100.61" y="58.64" width="2.46" height="6.57" transform="translate(39.91 163.77) rotate(-90)" /><rect class="cls-8" x="101.39" y="56" width=".9" height="6.57" transform="translate(42.55 161.13) rotate(-90)" /><rect class="cls-8" x="100.62" y="29.99" width="2.44" height="6.57" transform="translate(68.56 135.12) rotate(-90)" /><rect class="cls-8" x="101.39" y="27.36" width=".9" height="6.57" transform="translate(71.19 132.49) rotate(-90)" /><polygon class="cls-32" points="105.13 24.16 98.55 24.16 101.35 13.89 102.34 13.89 105.13 24.16" /><rect class="cls-11" x="101.61" y="20.62" width=".45" height="6.57" transform="translate(77.93 125.75) rotate(-90)" /></g><g><rect class="cls-31" x="66.71" y="45.93" width="43.81" height="6.57" transform="translate(39.4 137.83) rotate(-90)" /><rect class="cls-27" x="86.55" y="65.77" width="4.13" height="6.57" transform="translate(19.56 157.67) rotate(-90)" /><rect class="cls-8" x="87.32" y="58.04" width="2.59" height="6.57" transform="translate(27.28 149.95) rotate(-90)" /><rect class="cls-8" x="88.17" y="55.34" width=".9" height="6.57" transform="translate(29.99 147.24) rotate(-90)" /><rect class="cls-8" x="88.17" y="26.7" width=".9" height="6.57" transform="translate(58.63 118.6) rotate(-90)" /><rect class="cls-27" x="87.29" y="22.69" width="2.65" height="6.57" transform="translate(62.64 114.6) rotate(-90)" /><polygon class="cls-27" points="91.9 25.13 85.33 25.13 88.12 18.38 89.11 18.38 91.9 25.13" /><rect class="cls-17" x="88.39" y="21.59" width=".45" height="6.57" transform="translate(63.74 113.5) rotate(-90)" /><rect class="cls-8" x="87.36" y="29.29" width="2.51" height="6.57" transform="translate(56.04 121.2) rotate(-90)" /></g><g><rect class="cls-5" x="58.26" y="42.85" width="47.63" height="6.57" transform="translate(35.93 128.21) rotate(-90)" /><rect class="cls-26" x="80" y="64.6" width="4.13" height="6.57" transform="translate(14.18 149.96) rotate(-90)" /><rect class="cls-26" x="80.74" y="19.89" width="2.65" height="6.57" transform="translate(58.89 105.25) rotate(-90)" /><rect class="cls-8" x="80.84" y="56.81" width="2.46" height="6.57" transform="translate(21.97 142.17) rotate(-90)" /><rect class="cls-8" x="81.62" y="54.17" width=".9" height="6.57" transform="translate(24.61 139.53) rotate(-90)" /><rect class="cls-8" x="80.85" y="28.16" width="2.44" height="6.57" transform="translate(50.62 113.52) rotate(-90)" /><rect class="cls-8" x="81.62" y="25.53" width=".9" height="6.57" transform="translate(53.25 110.89) rotate(-90)" /><polygon class="cls-26" points="85.36 22.33 78.78 22.33 81.57 12.06 82.56 12.06 85.36 22.33" /><rect class="cls-7" x="81.84" y="18.79" width=".45" height="6.57" transform="translate(59.99 104.15) rotate(-90)" /></g></g><path class="cls-12" d="M121.66,80.6h-52.7V8.73h52.7v71.87ZM73.81,27.61s3.93,16.24,21.5,16.24,21.5-16.24,21.5-16.24h-43Z" /><g><path class="cls-11" d="M121.66,19.84s-11.7,2.5-21.67-2.03c-12.72-5.77-31.03-4.29-31.03-4.29v-3.25h52.7v9.57Z" /><path class="cls-32" d="M121.66,18.3s-11.7,2.5-21.67-2.03c-12.72-5.77-31.03-4.29-31.03-4.29v-3.25h52.7v9.57Z" /></g><path class="cls-11" d="M68.95,61.13s11.7-2.5,21.67,2.03c12.72,5.77,31.03,4.29,31.03,4.29v11.62h-52.7v-17.94Z" /><path class="cls-32" d="M68.95,62.67s11.7-2.5,21.67,2.03c12.72,5.77,31.03,4.29,31.03,4.29v11.62h-52.7v-17.94Z" /></g><g><g><rect class="cls-29" x="52.77" y="127.38" width="45.45" height="6.57" transform="translate(-55.17 206.16) rotate(-90)" /><rect class="cls-30" x="73.43" y="148.04" width="4.13" height="6.57" transform="translate(-75.83 226.82) rotate(-90)" /><rect class="cls-8" x="74.2" y="140.32" width="2.59" height="6.57" transform="translate(-68.11 219.1) rotate(-90)" /><rect class="cls-8" x="75.04" y="137.61" width=".9" height="6.57" transform="translate(-65.4 216.39) rotate(-90)" /><rect class="cls-8" x="75.04" y="108.97" width=".9" height="6.57" transform="translate(-36.76 187.75) rotate(-90)" /><g><rect class="cls-30" x="74.17" y="103.33" width="2.65" height="6.57" transform="translate(-31.12 182.11) rotate(-90)" /><polygon class="cls-30" points="72.21 105.76 78.78 105.76 75.99 97.66 75 97.66 72.21 105.76" /><rect class="cls-22" x="75.27" y="102.23" width=".45" height="6.57" transform="translate(-30.02 181.01) rotate(-90)" /></g><rect class="cls-8" x="74.24" y="111.56" width="2.51" height="6.57" transform="translate(-39.36 190.35) rotate(-90)" /></g><g><rect class="cls-25" x="58.26" y="123.63" width="47.63" height="6.57" transform="translate(-44.85 208.99) rotate(-90)" /><rect class="cls-4" x="80" y="145.38" width="4.13" height="6.57" transform="translate(-66.6 230.74) rotate(-90)" /><rect class="cls-4" x="80.74" y="100.67" width="2.65" height="6.57" transform="translate(-21.89 186.03) rotate(-90)" /><rect class="cls-8" x="80.84" y="137.59" width="2.46" height="6.57" transform="translate(-58.81 222.94) rotate(-90)" /><rect class="cls-8" x="81.62" y="134.95" width=".9" height="6.57" transform="translate(-56.16 220.3) rotate(-90)" /><rect class="cls-8" x="80.85" y="108.94" width="2.44" height="6.57" transform="translate(-30.16 194.29) rotate(-90)" /><rect class="cls-8" x="81.62" y="106.31" width=".9" height="6.57" transform="translate(-27.53 191.66) rotate(-90)" /><polygon class="cls-4" points="78.78 103.1 85.36 103.1 82.56 92.83 81.57 92.83 78.78 103.1" /><rect class="cls-28" x="81.84" y="99.57" width=".45" height="6.57" transform="translate(-20.79 184.93) rotate(-90)" /></g><g><polygon class="cls-10" points="111.83 106.78 111.83 153.56 118.4 145.19 118.4 106.78 111.83 106.78" /><polygon class="cls-16" points="111.83 149.43 111.83 153.56 118.4 145.19 118.4 141.06 111.83 149.43" /><rect class="cls-8" x="113.82" y="140.48" width="2.59" height="6.57" transform="translate(-28.65 258.89) rotate(-90)" /><rect class="cls-8" x="114.67" y="137.77" width=".9" height="6.57" transform="translate(-25.94 256.18) rotate(-90)" /><rect class="cls-8" x="114.67" y="109.14" width=".9" height="6.57" transform="translate(2.69 227.54) rotate(-90)" /><rect class="cls-21" x="113.79" y="102.17" width="2.65" height="6.57" transform="translate(9.66 220.57) rotate(-90)" /><polygon class="cls-16" points="111.83 104.6 118.4 104.6 115.61 96.5 114.62 96.5 111.83 104.6" /><rect class="cls-9" x="114.89" y="101.07" width=".45" height="6.57" transform="translate(10.76 219.47) rotate(-90)" /><rect class="cls-8" x="113.86" y="111.73" width="2.51" height="6.57" transform="translate(.1 230.13) rotate(-90)" /></g><g><rect class="cls-19" x="73.45" y="126.37" width="43.81" height="6.57" transform="translate(-34.3 225.01) rotate(-90)" /><rect class="cls-15" x="93.29" y="146.21" width="4.13" height="6.57" transform="translate(-54.14 244.86) rotate(-90)" /><rect class="cls-8" x="94.06" y="138.49" width="2.59" height="6.57" transform="translate(-46.42 237.13) rotate(-90)" /><rect class="cls-8" x="94.91" y="135.78" width=".9" height="6.57" transform="translate(-43.71 234.42) rotate(-90)" /><rect class="cls-8" x="94.91" y="107.14" width=".9" height="6.57" transform="translate(-15.07 205.78) rotate(-90)" /><g><rect class="cls-15" x="94.03" y="103.14" width="2.65" height="6.57" transform="translate(-11.07 201.78) rotate(-90)" /><polygon class="cls-15" points="92.07 105.57 98.64 105.57 95.85 98.83 94.86 98.83 92.07 105.57" /><rect class="cls-13" x="95.13" y="102.04" width=".45" height="6.57" transform="translate(-9.97 200.68) rotate(-90)" /></g><rect class="cls-8" x="94.1" y="109.74" width="2.51" height="6.57" transform="translate(-17.67 208.38) rotate(-90)" /></g><g><polyline class="cls-6" points="85.48 127.76 85.48 153.39 92.06 153.39 92.06 105.76 85.48 105.76 85.48 127.76" /><rect class="cls-32" x="86.7" y="148.04" width="4.13" height="6.57" transform="translate(-62.56 240.1) rotate(-90)" /><rect class="cls-32" x="87.44" y="103.33" width="2.65" height="6.57" transform="translate(-17.85 195.39) rotate(-90)" /><rect class="cls-8" x="87.54" y="140.25" width="2.46" height="6.57" transform="translate(-54.77 232.3) rotate(-90)" /><rect class="cls-8" x="88.32" y="137.61" width=".9" height="6.57" transform="translate(-52.13 229.66) rotate(-90)" /><rect class="cls-8" x="87.55" y="111.6" width="2.44" height="6.57" transform="translate(-26.12 203.66) rotate(-90)" /><rect class="cls-8" x="88.32" y="108.97" width=".9" height="6.57" transform="translate(-23.49 201.02) rotate(-90)" /><polygon class="cls-32" points="85.48 105.76 92.06 105.76 89.26 95.49 88.27 95.49 85.48 105.76" /><rect class="cls-11" x="88.54" y="102.23" width=".45" height="6.57" transform="translate(-16.75 194.29) rotate(-90)" /></g><g><rect class="cls-31" x="80.09" y="127.53" width="43.81" height="6.57" transform="translate(-28.83 232.81) rotate(-90)" /><rect class="cls-27" x="99.93" y="147.37" width="4.13" height="6.57" transform="translate(-48.67 252.66) rotate(-90)" /><rect class="cls-8" x="100.7" y="139.65" width="2.59" height="6.57" transform="translate(-40.94 244.93) rotate(-90)" /><rect class="cls-8" x="101.54" y="136.94" width=".9" height="6.57" transform="translate(-38.24 242.22) rotate(-90)" /><rect class="cls-8" x="101.54" y="108.3" width=".9" height="6.57" transform="translate(-9.6 213.59) rotate(-90)" /><rect class="cls-27" x="100.67" y="104.3" width="2.65" height="6.57" transform="translate(-5.59 209.58) rotate(-90)" /><polygon class="cls-27" points="98.71 106.73 105.28 106.73 102.49 99.99 101.5 99.99 98.71 106.73" /><rect class="cls-17" x="101.77" y="103.2" width=".45" height="6.57" transform="translate(-4.49 208.48) rotate(-90)" /><rect class="cls-8" x="100.74" y="110.9" width="2.51" height="6.57" transform="translate(-12.19 216.18) rotate(-90)" /></g><g><rect class="cls-5" x="84.73" y="124.46" width="47.63" height="6.57" transform="translate(-19.21 236.29) rotate(-90)" /><rect class="cls-26" x="106.48" y="146.21" width="4.13" height="6.57" transform="translate(-40.96 258.04) rotate(-90)" /><rect class="cls-26" x="107.22" y="101.5" width="2.65" height="6.57" transform="translate(3.75 213.33) rotate(-90)" /><rect class="cls-8" x="107.31" y="138.42" width="2.46" height="6.57" transform="translate(-33.17 250.25) rotate(-90)" /><rect class="cls-8" x="108.09" y="135.78" width=".9" height="6.57" transform="translate(-30.52 247.61) rotate(-90)" /><rect class="cls-8" x="107.32" y="109.77" width="2.44" height="6.57" transform="translate(-4.52 221.6) rotate(-90)" /><rect class="cls-8" x="108.09" y="107.14" width=".9" height="6.57" transform="translate(-1.89 218.97) rotate(-90)" /><polygon class="cls-26" points="105.25 103.93 111.83 103.93 109.04 93.66 108.05 93.66 105.25 103.93" /><rect class="cls-7" x="108.31" y="100.4" width=".45" height="6.57" transform="translate(4.85 212.23) rotate(-90)" /></g></g><path class="cls-12" d="M121.66,162.21h-52.7v-71.87h52.7v71.87ZM73.81,109.22s3.93,16.24,21.5,16.24,21.5-16.24,21.5-16.24h-43Z" /><g><path class="cls-11" d="M121.66,101.45s-11.7,2.5-21.67-2.03c-12.72-5.77-31.03-4.29-31.03-4.29v-3.25h52.7v9.57Z" /><path class="cls-32" d="M121.66,99.91s-11.7,2.5-21.67-2.03c-12.72-5.77-31.03-4.29-31.03-4.29v-3.25h52.7v9.57Z" /></g><path class="cls-11" d="M68.95,142.73s11.7-2.5,21.67,2.03c12.72,5.77,31.03,4.29,31.03,4.29v11.62h-52.7v-17.94Z" /><path class="cls-32" d="M68.95,144.27s11.7-2.5,21.67,2.03c12.72,5.77,31.03,4.29,31.03,4.29v11.62h-52.7v-17.94Z" /><g><rect class="cls-29" x="121.13" y="47.61" width="45.45" height="6.57" transform="translate(92.97 194.75) rotate(-90)" /><rect class="cls-30" x="141.79" y="68.27" width="4.13" height="6.57" transform="translate(72.31 215.41) rotate(-90)" /><rect class="cls-8" x="142.56" y="60.54" width="2.59" height="6.57" transform="translate(80.03 207.69) rotate(-90)" /><rect class="cls-8" x="143.41" y="57.83" width=".9" height="6.57" transform="translate(82.74 204.98) rotate(-90)" /><rect class="cls-8" x="143.41" y="29.19" width=".9" height="6.57" transform="translate(111.38 176.34) rotate(-90)" /><g><rect class="cls-30" x="142.53" y="23.56" width="2.65" height="6.57" transform="translate(117.02 170.7) rotate(-90)" /><polygon class="cls-30" points="147.15 25.99 140.57 25.99 143.36 17.89 144.35 17.89 147.15 25.99" /><rect class="cls-22" x="143.63" y="22.46" width=".45" height="6.57" transform="translate(118.11 169.6) rotate(-90)" /></g><rect class="cls-8" x="142.61" y="31.79" width="2.51" height="6.57" transform="translate(108.78 178.94) rotate(-90)" /></g><g><rect class="cls-25" x="110.36" y="46.52" width="47.63" height="6.57" transform="translate(84.37 183.98) rotate(-90)" /><rect class="cls-4" x="132.11" y="68.27" width="4.13" height="6.57" transform="translate(62.62 205.73) rotate(-90)" /><rect class="cls-4" x="132.85" y="23.56" width="2.65" height="6.57" transform="translate(107.33 161.01) rotate(-90)" /><rect class="cls-8" x="132.94" y="60.47" width="2.46" height="6.57" transform="translate(70.41 197.93) rotate(-90)" /><rect class="cls-8" x="133.72" y="57.83" width=".9" height="6.57" transform="translate(73.05 195.29) rotate(-90)" /><rect class="cls-8" x="132.95" y="31.83" width="2.44" height="6.57" transform="translate(99.06 169.28) rotate(-90)" /><rect class="cls-8" x="133.72" y="29.19" width=".9" height="6.57" transform="translate(101.69 166.65) rotate(-90)" /><polygon class="cls-4" points="137.46 25.99 130.88 25.99 133.68 15.72 134.67 15.72 137.46 25.99" /><rect class="cls-28" x="133.94" y="22.46" width=".45" height="6.57" transform="translate(108.43 159.92) rotate(-90)" /></g><g><g><rect class="cls-23" x="145.49" y="47.61" width="45.45" height="6.57" transform="translate(117.32 219.11) rotate(-90)" /><rect class="cls-24" x="166.15" y="68.27" width="4.13" height="6.57" transform="translate(96.66 239.77) rotate(-90)" /><rect class="cls-8" x="166.92" y="60.54" width="2.59" height="6.57" transform="translate(104.39 232.04) rotate(-90)" /><rect class="cls-8" x="167.77" y="57.83" width=".9" height="6.57" transform="translate(107.09 229.34) rotate(-90)" /><rect class="cls-8" x="167.77" y="29.19" width=".9" height="6.57" transform="translate(135.73 200.7) rotate(-90)" /><g><rect class="cls-24" x="166.89" y="23.56" width="2.65" height="6.57" transform="translate(141.37 195.06) rotate(-90)" /><polygon class="cls-24" points="171.5 25.99 164.93 25.99 167.72 17.89 168.71 17.89 171.5 25.99" /><rect class="cls-14" x="167.99" y="22.46" width=".45" height="6.57" transform="translate(142.47 193.96) rotate(-90)" /></g><rect class="cls-8" x="166.96" y="31.79" width="2.51" height="6.57" transform="translate(133.14 203.29) rotate(-90)" /></g><g><rect class="cls-19" x="136.62" y="48.42" width="43.81" height="6.57" transform="translate(106.82 210.24) rotate(-90)" /><rect class="cls-15" x="156.46" y="68.27" width="4.13" height="6.57" transform="translate(86.97 230.08) rotate(-90)" /><rect class="cls-8" x="157.23" y="60.54" width="2.59" height="6.57" transform="translate(94.7 222.36) rotate(-90)" /><rect class="cls-8" x="158.08" y="57.83" width=".9" height="6.57" transform="translate(97.41 219.65) rotate(-90)" /><rect class="cls-8" x="158.08" y="29.19" width=".9" height="6.57" transform="translate(126.05 191.01) rotate(-90)" /><g><rect class="cls-15" x="157.2" y="25.19" width="2.65" height="6.57" transform="translate(130.05 187.01) rotate(-90)" /><polygon class="cls-15" points="161.82 27.62 155.24 27.62 158.03 20.88 159.02 20.88 161.82 27.62" /><rect class="cls-13" x="158.3" y="24.09" width=".45" height="6.57" transform="translate(131.15 185.91) rotate(-90)" /></g><rect class="cls-8" x="157.28" y="31.79" width="2.51" height="6.57" transform="translate(123.45 193.61) rotate(-90)" /></g><g><rect class="cls-31" x="156" y="48.42" width="43.81" height="6.57" transform="translate(126.19 229.61) rotate(-90)" /><rect class="cls-27" x="175.84" y="68.27" width="4.13" height="6.57" transform="translate(106.35 249.46) rotate(-90)" /><rect class="cls-8" x="176.61" y="60.54" width="2.59" height="6.57" transform="translate(114.07 241.73) rotate(-90)" /><rect class="cls-8" x="177.45" y="57.83" width=".9" height="6.57" transform="translate(116.78 239.02) rotate(-90)" /><rect class="cls-8" x="177.45" y="29.19" width=".9" height="6.57" transform="translate(145.42 210.38) rotate(-90)" /><rect class="cls-27" x="176.58" y="25.19" width="2.65" height="6.57" transform="translate(149.42 206.38) rotate(-90)" /><polygon class="cls-27" points="181.19 27.62 174.62 27.62 177.41 20.88 178.4 20.88 181.19 27.62" /><rect class="cls-17" x="177.68" y="24.09" width=".45" height="6.57" transform="translate(150.52 205.28) rotate(-90)" /><rect class="cls-8" x="176.65" y="31.79" width="2.51" height="6.57" transform="translate(142.82 212.98) rotate(-90)" /></g></g><g><path class="cls-15" d="M24.59,48.27c-.46.6-1.1,1.06-1.92,1.37s-1.75.47-2.79.47-2.02-.24-2.85-.73c-.83-.49-1.46-1.18-1.91-2.09s-.68-1.96-.7-3.17v-1c0-1.93.46-3.44,1.39-4.53.93-1.09,2.22-1.63,3.88-1.63,1.42,0,2.55.35,3.39,1.06.84.71,1.34,1.72,1.51,3.05h-2.18c-.25-1.54-1.14-2.31-2.68-2.31-1,0-1.75.36-2.27,1.08s-.79,1.77-.8,3.16v.98c0,1.38.29,2.45.87,3.22s1.39,1.15,2.43,1.15c1.14,0,1.95-.26,2.43-.77v-2.5h-2.64v-1.69h4.85v4.9Z" /><path class="cls-15" d="M31.8,42.37c-.28-.05-.57-.07-.87-.07-.98,0-1.64.38-1.98,1.12v6.5h-2.14v-9.51h2.04l.05,1.06c.52-.83,1.23-1.24,2.14-1.24.3,0,.56.04.76.12v2Z" /><path class="cls-15" d="M32.43,45.09c0-.93.18-1.77.55-2.52s.89-1.32,1.56-1.72c.67-.4,1.44-.6,2.3-.6,1.28,0,2.32.41,3.12,1.24s1.23,1.92,1.3,3.29v.5c0,.94-.17,1.78-.53,2.51s-.88,1.31-1.55,1.71-1.45.61-2.32.61c-1.34,0-2.42-.45-3.22-1.34-.81-.89-1.21-2.08-1.21-3.57v-.11ZM34.57,45.27c0,.98.2,1.74.61,2.3s.97.83,1.69.83,1.28-.28,1.68-.84.6-1.39.6-2.47c0-.96-.21-1.72-.62-2.29s-.97-.84-1.68-.84-1.25.28-1.66.83-.62,1.38-.62,2.48Z" /><path class="cls-15" d="M42.71,45.1c0-1.48.35-2.66,1.04-3.54.69-.88,1.62-1.32,2.76-1.32,1.08,0,1.94.38,2.56,1.13l.1-.96h1.92v9.22c0,1.25-.39,2.23-1.16,2.95s-1.82,1.08-3.14,1.08c-.7,0-1.38-.15-2.04-.44s-1.17-.67-1.52-1.14l1.01-1.28c.66.78,1.46,1.17,2.43,1.17.71,0,1.27-.19,1.68-.58.41-.38.62-.95.62-1.69v-.64c-.62.69-1.44,1.03-2.46,1.03-1.11,0-2.02-.44-2.73-1.33-.71-.88-1.06-2.11-1.06-3.67ZM44.84,45.29c0,.96.19,1.71.58,2.25.39.55.93.82,1.62.82.86,0,1.5-.37,1.92-1.11v-4.18c-.4-.72-1.04-1.08-1.9-1.08-.7,0-1.25.28-1.64.83-.39.56-.58,1.38-.58,2.46Z" /><path class="cls-15" d="M52.91,45.1c0-1.48.35-2.66,1.04-3.54.69-.88,1.62-1.32,2.76-1.32,1.08,0,1.94.38,2.56,1.13l.1-.96h1.92v9.22c0,1.25-.39,2.23-1.16,2.95s-1.82,1.08-3.14,1.08c-.7,0-1.38-.15-2.04-.44s-1.17-.67-1.52-1.14l1.01-1.28c.66.78,1.46,1.17,2.43,1.17.71,0,1.27-.19,1.68-.58.41-.38.62-.95.62-1.69v-.64c-.62.69-1.44,1.03-2.46,1.03-1.11,0-2.02-.44-2.73-1.33-.71-.88-1.06-2.11-1.06-3.67ZM55.04,45.29c0,.96.19,1.71.58,2.25.39.55.93.82,1.62.82.86,0,1.5-.37,1.92-1.11v-4.18c-.4-.72-1.04-1.08-1.9-1.08-.7,0-1.25.28-1.64.83-.39.56-.58,1.38-.58,2.46Z" /></g><g><path class="cls-20" d="M21.92,128.37l1.97-9.63h2.21l-2.95,12.8h-2.13l-2.43-9.34-2.49,9.34h-2.14l-2.95-12.8h2.21l1.99,9.62,2.44-9.62h1.86l2.42,9.63Z" /><path class="cls-20" d="M27.52,119.56c0-.33.1-.6.31-.82.21-.22.51-.33.89-.33s.69.11.9.33c.21.22.32.49.32.82s-.11.59-.32.8c-.21.21-.51.32-.9.32s-.68-.11-.89-.32c-.21-.21-.31-.48-.31-.8ZM29.78,131.54h-2.14v-9.51h2.14v9.51Z" /><path class="cls-20" d="M34.09,122.03l.06,1.1c.7-.85,1.63-1.27,2.77-1.27,1.98,0,2.99,1.13,3.02,3.4v6.28h-2.14v-6.16c0-.6-.13-1.05-.39-1.34s-.69-.44-1.28-.44c-.86,0-1.5.39-1.92,1.17v6.77h-2.14v-9.51h2.01Z" /><path class="cls-20" d="M44.1,122.03l.06,1.1c.7-.85,1.63-1.27,2.77-1.27,1.98,0,2.99,1.13,3.02,3.4v6.28h-2.14v-6.16c0-.6-.13-1.05-.39-1.34s-.69-.44-1.28-.44c-.86,0-1.5.39-1.92,1.17v6.77h-2.14v-9.51h2.01Z" /><path class="cls-20" d="M52.13,119.56c0-.33.1-.6.31-.82.21-.22.51-.33.89-.33s.69.11.9.33c.21.22.32.49.32.82s-.11.59-.32.8c-.21.21-.51.32-.9.32s-.68-.11-.89-.32c-.21-.21-.31-.48-.31-.8ZM54.4,131.54h-2.14v-9.51h2.14v9.51Z" /><path class="cls-20" d="M60.92,131.71c-1.35,0-2.45-.43-3.29-1.28s-1.26-1.99-1.26-3.41v-.26c0-.95.18-1.8.55-2.54s.88-1.33,1.54-1.74c.66-.42,1.4-.62,2.21-.62,1.29,0,2.3.41,3,1.24s1.06,2,1.06,3.51v.86h-6.21c.06.79.33,1.41.79,1.86s1.04.69,1.74.69c.98,0,1.78-.4,2.39-1.19l1.15,1.1c-.38.57-.89,1.01-1.52,1.32s-1.35.47-2.14.47ZM60.66,123.56c-.59,0-1.06.21-1.42.62-.36.41-.59.98-.69,1.71h4.07v-.16c-.05-.71-.24-1.26-.57-1.62-.33-.37-.8-.55-1.39-.55Z" /></g><line class="cls-1" x1="198" y1="6.57" x2="198" y2="168.19" /><path class="cls-3" d="M166.6,10.26c15.61,0,19.74,7.36,19.74,36.82s-5.6,34.17-19.74,34.17c-13.25,0-16.5-5.3-16.5-33.28,0-22.68.59-37.7,16.5-37.7Z" /><g><path class="cls-2" d="M167.13,84.14s-.51,27.45-24.04,32.31" /><path class="cls-18" d="M137.68,117.13c2.42-1.29,5.35-3.33,7.08-5.3l-.96,4.47,2.12,4.05c-2.19-1.44-5.56-2.62-8.24-3.22Z" /></g><g><g><g><rect class="cls-29" x="292.8" y="45.77" width="45.45" height="6.57" transform="translate(266.47 364.59) rotate(-90)" /><rect class="cls-30" x="313.46" y="66.43" width="4.13" height="6.57" transform="translate(245.81 385.25) rotate(-90)" /><rect class="cls-8" x="314.23" y="58.71" width="2.59" height="6.57" transform="translate(253.53 377.52) rotate(-90)" /><rect class="cls-8" x="315.08" y="56" width=".9" height="6.57" transform="translate(256.24 374.81) rotate(-90)" /><rect class="cls-8" x="315.08" y="27.36" width=".9" height="6.57" transform="translate(284.88 346.18) rotate(-90)" /><g><rect class="cls-30" x="314.2" y="21.72" width="2.65" height="6.57" transform="translate(290.52 340.54) rotate(-90)" /><polygon class="cls-30" points="318.81 24.16 312.24 24.16 315.03 16.06 316.02 16.06 318.81 24.16" /><rect class="cls-22" x="315.3" y="20.62" width=".45" height="6.57" transform="translate(291.62 339.44) rotate(-90)" /></g><rect class="cls-8" x="314.27" y="29.96" width="2.51" height="6.57" transform="translate(282.28 348.77) rotate(-90)" /></g><g><rect class="cls-25" x="285.14" y="42.02" width="47.63" height="6.57" transform="translate(263.64 354.26) rotate(-90)" /><rect class="cls-4" x="306.89" y="63.77" width="4.13" height="6.57" transform="translate(241.89 376.01) rotate(-90)" /><rect class="cls-4" x="307.63" y="19.06" width="2.65" height="6.57" transform="translate(286.6 331.3) rotate(-90)" /><rect class="cls-8" x="307.72" y="55.98" width="2.46" height="6.57" transform="translate(249.68 368.22) rotate(-90)" /><rect class="cls-8" x="308.5" y="53.34" width=".9" height="6.57" transform="translate(252.33 365.58) rotate(-90)" /><rect class="cls-8" x="307.73" y="27.33" width="2.44" height="6.57" transform="translate(278.33 339.57) rotate(-90)" /><rect class="cls-8" x="308.5" y="24.7" width=".9" height="6.57" transform="translate(280.96 336.94) rotate(-90)" /><polygon class="cls-4" points="312.24 21.5 305.67 21.5 308.46 11.23 309.45 11.23 312.24 21.5" /><rect class="cls-28" x="308.73" y="17.96" width=".45" height="6.57" transform="translate(287.7 330.2) rotate(-90)" /></g><g><polygon class="cls-10" points="279.19 25.18 279.19 71.95 272.62 63.58 272.62 25.18 279.19 25.18" /><polygon class="cls-16" points="279.19 67.82 279.19 71.95 272.62 63.58 272.62 59.45 279.19 67.82" /><rect class="cls-8" x="274.61" y="58.88" width="2.59" height="6.57" transform="translate(213.74 338.07) rotate(-90)" /><rect class="cls-8" x="275.46" y="56.17" width=".9" height="6.57" transform="translate(216.45 335.36) rotate(-90)" /><rect class="cls-8" x="275.46" y="27.53" width=".9" height="6.57" transform="translate(245.09 306.72) rotate(-90)" /><rect class="cls-21" x="274.58" y="20.56" width="2.65" height="6.57" transform="translate(252.06 299.76) rotate(-90)" /><polygon class="cls-16" points="279.19 23 272.62 23 275.41 14.9 276.4 14.9 279.19 23" /><rect class="cls-9" x="275.68" y="19.46" width=".45" height="6.57" transform="translate(253.15 298.66) rotate(-90)" /><rect class="cls-8" x="274.65" y="30.12" width="2.51" height="6.57" transform="translate(242.49 309.32) rotate(-90)" /></g><g><rect class="cls-19" x="273.76" y="44.76" width="43.81" height="6.57" transform="translate(247.62 343.71) rotate(-90)" /><rect class="cls-15" x="293.6" y="64.6" width="4.13" height="6.57" transform="translate(227.77 363.56) rotate(-90)" /><rect class="cls-8" x="294.37" y="56.88" width="2.59" height="6.57" transform="translate(235.5 355.83) rotate(-90)" /><rect class="cls-8" x="295.21" y="54.17" width=".9" height="6.57" transform="translate(238.21 353.12) rotate(-90)" /><rect class="cls-8" x="295.21" y="25.53" width=".9" height="6.57" transform="translate(266.84 324.49) rotate(-90)" /><g><rect class="cls-15" x="294.34" y="21.53" width="2.65" height="6.57" transform="translate(270.85 320.48) rotate(-90)" /><polygon class="cls-15" points="298.95 23.96 292.38 23.96 295.17 17.22 296.16 17.22 298.95 23.96" /><rect class="cls-13" x="295.44" y="20.43" width=".45" height="6.57" transform="translate(271.95 319.38) rotate(-90)" /></g><rect class="cls-8" x="294.41" y="28.13" width="2.51" height="6.57" transform="translate(264.25 327.08) rotate(-90)" /></g><g><polyline class="cls-6" points="305.54 46.15 305.54 71.78 298.97 71.78 298.97 24.16 305.54 24.16 305.54 46.15" /><rect class="cls-32" x="300.19" y="66.43" width="4.13" height="6.57" transform="translate(232.53 371.97) rotate(-90)" /><rect class="cls-32" x="300.93" y="21.72" width="2.65" height="6.57" transform="translate(277.24 327.26) rotate(-90)" /><rect class="cls-8" x="301.02" y="58.64" width="2.46" height="6.57" transform="translate(240.32 364.18) rotate(-90)" /><rect class="cls-8" x="301.8" y="56" width=".9" height="6.57" transform="translate(242.97 361.54) rotate(-90)" /><rect class="cls-8" x="301.03" y="29.99" width="2.44" height="6.57" transform="translate(268.97 335.53) rotate(-90)" /><rect class="cls-8" x="301.8" y="27.36" width=".9" height="6.57" transform="translate(271.6 332.9) rotate(-90)" /><polygon class="cls-32" points="305.54 24.16 298.97 24.16 301.76 13.89 302.75 13.89 305.54 24.16" /><rect class="cls-11" x="302.03" y="20.62" width=".45" height="6.57" transform="translate(278.34 326.16) rotate(-90)" /></g><g><rect class="cls-31" x="267.12" y="45.93" width="43.81" height="6.57" transform="translate(239.81 338.24) rotate(-90)" /><rect class="cls-27" x="286.96" y="65.77" width="4.13" height="6.57" transform="translate(219.97 358.08) rotate(-90)" /><rect class="cls-8" x="287.73" y="58.04" width="2.59" height="6.57" transform="translate(227.7 350.36) rotate(-90)" /><rect class="cls-8" x="288.58" y="55.34" width=".9" height="6.57" transform="translate(230.41 347.65) rotate(-90)" /><rect class="cls-8" x="288.58" y="26.7" width=".9" height="6.57" transform="translate(259.04 319.01) rotate(-90)" /><rect class="cls-27" x="287.7" y="22.69" width="2.65" height="6.57" transform="translate(263.05 315.01) rotate(-90)" /><polygon class="cls-27" points="292.31 25.13 285.74 25.13 288.53 18.38 289.52 18.38 292.31 25.13" /><rect class="cls-17" x="288.8" y="21.59" width=".45" height="6.57" transform="translate(264.15 313.91) rotate(-90)" /><rect class="cls-8" x="287.77" y="29.29" width="2.51" height="6.57" transform="translate(256.45 321.61) rotate(-90)" /></g><g><rect class="cls-5" x="258.67" y="42.85" width="47.63" height="6.57" transform="translate(236.34 328.62) rotate(-90)" /><rect class="cls-26" x="280.42" y="64.6" width="4.13" height="6.57" transform="translate(214.59 350.37) rotate(-90)" /><rect class="cls-26" x="281.15" y="19.89" width="2.65" height="6.57" transform="translate(259.3 305.66) rotate(-90)" /><rect class="cls-8" x="281.25" y="56.81" width="2.46" height="6.57" transform="translate(222.38 342.58) rotate(-90)" /><rect class="cls-8" x="282.03" y="54.17" width=".9" height="6.57" transform="translate(225.02 339.94) rotate(-90)" /><rect class="cls-8" x="281.26" y="28.16" width="2.44" height="6.57" transform="translate(251.03 313.93) rotate(-90)" /><rect class="cls-8" x="282.03" y="25.53" width=".9" height="6.57" transform="translate(253.66 311.3) rotate(-90)" /><polygon class="cls-26" points="285.77 22.33 279.19 22.33 281.98 12.06 282.98 12.06 285.77 22.33" /><rect class="cls-7" x="282.25" y="18.79" width=".45" height="6.57" transform="translate(260.4 304.56) rotate(-90)" /></g></g><path class="cls-12" d="M322.07,80.6h-52.7V8.73h52.7v71.87ZM274.22,27.61s3.93,16.24,21.5,16.24,21.5-16.24,21.5-16.24h-43Z" /><g><path class="cls-11" d="M322.07,19.84s-11.7,2.5-21.67-2.03c-12.72-5.77-31.03-4.29-31.03-4.29v-3.25h52.7v9.57Z" /><path class="cls-32" d="M322.07,18.3s-11.7,2.5-21.67-2.03c-12.72-5.77-31.03-4.29-31.03-4.29v-3.25h52.7v9.57Z" /></g><path class="cls-11" d="M269.36,61.13s11.7-2.5,21.67,2.03c12.72,5.77,31.03,4.29,31.03,4.29v11.62h-52.7v-17.94Z" /><path class="cls-32" d="M269.36,62.67s11.7-2.5,21.67,2.03c12.72,5.77,31.03,4.29,31.03,4.29v11.62h-52.7v-17.94Z" /></g><g><g><g><rect class="cls-29" x="253.18" y="127.38" width="45.45" height="6.57" transform="translate(145.24 406.57) rotate(-90)" /><rect class="cls-30" x="273.84" y="148.04" width="4.13" height="6.57" transform="translate(124.58 427.23) rotate(-90)" /><rect class="cls-8" x="274.61" y="140.32" width="2.59" height="6.57" transform="translate(132.3 419.51) rotate(-90)" /><rect class="cls-8" x="275.46" y="137.61" width=".9" height="6.57" transform="translate(135.01 416.8) rotate(-90)" /><rect class="cls-8" x="275.46" y="108.97" width=".9" height="6.57" transform="translate(163.65 388.16) rotate(-90)" /><g><rect class="cls-30" x="274.58" y="103.33" width="2.65" height="6.57" transform="translate(169.29 382.52) rotate(-90)" /><polygon class="cls-30" points="272.62 105.76 279.19 105.76 276.4 97.66 275.41 97.66 272.62 105.76" /><rect class="cls-22" x="275.68" y="102.23" width=".45" height="6.57" transform="translate(170.39 381.42) rotate(-90)" /></g><rect class="cls-8" x="274.65" y="111.56" width="2.51" height="6.57" transform="translate(161.05 390.76) rotate(-90)" /></g><g><rect class="cls-25" x="258.67" y="123.63" width="47.63" height="6.57" transform="translate(155.56 409.4) rotate(-90)" /><rect class="cls-4" x="280.42" y="145.38" width="4.13" height="6.57" transform="translate(133.81 431.15) rotate(-90)" /><rect class="cls-4" x="281.15" y="100.67" width="2.65" height="6.57" transform="translate(178.52 386.44) rotate(-90)" /><rect class="cls-8" x="281.25" y="137.59" width="2.46" height="6.57" transform="translate(141.61 423.36) rotate(-90)" /><rect class="cls-8" x="282.03" y="134.95" width=".9" height="6.57" transform="translate(144.25 420.71) rotate(-90)" /><rect class="cls-8" x="281.26" y="108.94" width="2.44" height="6.57" transform="translate(170.25 394.71) rotate(-90)" /><rect class="cls-8" x="282.03" y="106.31" width=".9" height="6.57" transform="translate(172.88 392.08) rotate(-90)" /><polygon class="cls-4" points="279.19 103.1 285.77 103.1 282.98 92.83 281.98 92.83 279.19 103.1" /><rect class="cls-28" x="282.25" y="99.57" width=".45" height="6.57" transform="translate(179.62 385.34) rotate(-90)" /></g><g><polygon class="cls-10" points="312.24 106.78 312.24 153.56 318.81 145.19 318.81 106.78 312.24 106.78" /><polygon class="cls-16" points="312.24 149.43 312.24 153.56 318.81 145.19 318.81 141.06 312.24 149.43" /><rect class="cls-8" x="314.23" y="140.48" width="2.59" height="6.57" transform="translate(171.76 459.3) rotate(-90)" /><rect class="cls-8" x="315.08" y="137.77" width=".9" height="6.57" transform="translate(174.47 456.59) rotate(-90)" /><rect class="cls-8" x="315.08" y="109.14" width=".9" height="6.57" transform="translate(203.1 427.95) rotate(-90)" /><rect class="cls-21" x="314.2" y="102.17" width="2.65" height="6.57" transform="translate(210.07 420.98) rotate(-90)" /><polygon class="cls-16" points="312.24 104.6 318.81 104.6 316.02 96.5 315.03 96.5 312.24 104.6" /><rect class="cls-9" x="315.3" y="101.07" width=".45" height="6.57" transform="translate(211.17 419.89) rotate(-90)" /><rect class="cls-8" x="314.27" y="111.73" width="2.51" height="6.57" transform="translate(200.51 430.55) rotate(-90)" /></g><g><rect class="cls-19" x="273.86" y="126.37" width="43.81" height="6.57" transform="translate(166.11 425.42) rotate(-90)" /><rect class="cls-15" x="293.7" y="146.21" width="4.13" height="6.57" transform="translate(146.27 445.27) rotate(-90)" /><rect class="cls-8" x="294.47" y="138.49" width="2.59" height="6.57" transform="translate(153.99 437.54) rotate(-90)" /><rect class="cls-8" x="295.32" y="135.78" width=".9" height="6.57" transform="translate(156.7 434.83) rotate(-90)" /><rect class="cls-8" x="295.32" y="107.14" width=".9" height="6.57" transform="translate(185.34 406.2) rotate(-90)" /><g><rect class="cls-15" x="294.44" y="103.14" width="2.65" height="6.57" transform="translate(189.35 402.19) rotate(-90)" /><polygon class="cls-15" points="292.48 105.57 299.06 105.57 296.26 98.83 295.27 98.83 292.48 105.57" /><rect class="cls-13" x="295.54" y="102.04" width=".45" height="6.57" transform="translate(190.44 401.09) rotate(-90)" /></g><rect class="cls-8" x="294.52" y="109.74" width="2.51" height="6.57" transform="translate(182.75 408.79) rotate(-90)" /></g><g><polyline class="cls-6" points="285.89 127.76 285.89 153.39 292.47 153.39 292.47 105.76 285.89 105.76 285.89 127.76" /><rect class="cls-32" x="287.12" y="148.04" width="4.13" height="6.57" transform="translate(137.85 440.51) rotate(-90)" /><rect class="cls-32" x="287.85" y="103.33" width="2.65" height="6.57" transform="translate(182.56 395.8) rotate(-90)" /><rect class="cls-8" x="287.95" y="140.25" width="2.46" height="6.57" transform="translate(145.64 432.72) rotate(-90)" /><rect class="cls-8" x="288.73" y="137.61" width=".9" height="6.57" transform="translate(148.29 430.07) rotate(-90)" /><rect class="cls-8" x="287.96" y="111.6" width="2.44" height="6.57" transform="translate(174.29 404.07) rotate(-90)" /><rect class="cls-8" x="288.73" y="108.97" width=".9" height="6.57" transform="translate(176.92 401.44) rotate(-90)" /><polygon class="cls-32" points="285.89 105.76 292.47 105.76 289.68 95.49 288.68 95.49 285.89 105.76" /><rect class="cls-11" x="288.95" y="102.23" width=".45" height="6.57" transform="translate(183.66 394.7) rotate(-90)" /></g><g><rect class="cls-31" x="280.5" y="127.53" width="43.81" height="6.57" transform="translate(171.59 433.23) rotate(-90)" /><rect class="cls-27" x="300.34" y="147.37" width="4.13" height="6.57" transform="translate(151.74 453.07) rotate(-90)" /><rect class="cls-8" x="301.11" y="139.65" width="2.59" height="6.57" transform="translate(159.47 445.34) rotate(-90)" /><rect class="cls-8" x="301.96" y="136.94" width=".9" height="6.57" transform="translate(162.18 442.63) rotate(-90)" /><rect class="cls-8" x="301.96" y="108.3" width=".9" height="6.57" transform="translate(190.81 414) rotate(-90)" /><rect class="cls-27" x="301.08" y="104.3" width="2.65" height="6.57" transform="translate(194.82 409.99) rotate(-90)" /><polygon class="cls-27" points="299.12 106.73 305.69 106.73 302.9 99.99 301.91 99.99 299.12 106.73" /><rect class="cls-17" x="302.18" y="103.2" width=".45" height="6.57" transform="translate(195.92 408.89) rotate(-90)" /><rect class="cls-8" x="301.15" y="110.9" width="2.51" height="6.57" transform="translate(188.22 416.59) rotate(-90)" /></g><g><rect class="cls-5" x="285.14" y="124.46" width="47.63" height="6.57" transform="translate(181.2 436.7) rotate(-90)" /><rect class="cls-26" x="306.89" y="146.21" width="4.13" height="6.57" transform="translate(159.45 458.45) rotate(-90)" /><rect class="cls-26" x="307.63" y="101.5" width="2.65" height="6.57" transform="translate(204.16 413.74) rotate(-90)" /><rect class="cls-8" x="307.72" y="138.42" width="2.46" height="6.57" transform="translate(167.25 450.66) rotate(-90)" /><rect class="cls-8" x="308.5" y="135.78" width=".9" height="6.57" transform="translate(169.89 448.02) rotate(-90)" /><rect class="cls-8" x="307.73" y="109.77" width="2.44" height="6.57" transform="translate(195.9 422.01) rotate(-90)" /><rect class="cls-8" x="308.5" y="107.14" width=".9" height="6.57" transform="translate(198.53 419.38) rotate(-90)" /><polygon class="cls-26" points="305.67 103.93 312.24 103.93 309.45 93.66 308.46 93.66 305.67 103.93" /><rect class="cls-7" x="308.73" y="100.4" width=".45" height="6.57" transform="translate(205.26 412.64) rotate(-90)" /></g></g><path class="cls-12" d="M322.07,162.21h-52.7v-71.87h52.7v71.87ZM274.22,109.22s3.93,16.24,21.5,16.24,21.5-16.24,21.5-16.24h-43Z" /><g><path class="cls-11" d="M322.07,101.45s-11.7,2.5-21.67-2.03c-12.72-5.77-31.03-4.29-31.03-4.29v-3.25h52.7v9.57Z" /><path class="cls-32" d="M322.07,99.91s-11.7,2.5-21.67-2.03c-12.72-5.77-31.03-4.29-31.03-4.29v-3.25h52.7v9.57Z" /></g><path class="cls-11" d="M269.36,142.73s11.7-2.5,21.67,2.03c12.72,5.77,31.03,4.29,31.03,4.29v11.62h-52.7v-17.94Z" /><path class="cls-32" d="M269.36,144.27s11.7-2.5,21.67,2.03c12.72,5.77,31.03,4.29,31.03,4.29v11.62h-52.7v-17.94Z" /></g><g><g><rect class="cls-29" x="321.55" y="47.61" width="45.45" height="6.57" transform="translate(293.38 395.16) rotate(-90)" /><rect class="cls-30" x="342.21" y="68.27" width="4.13" height="6.57" transform="translate(272.72 415.82) rotate(-90)" /><rect class="cls-8" x="342.97" y="60.54" width="2.59" height="6.57" transform="translate(280.44 408.1) rotate(-90)" /><rect class="cls-8" x="343.82" y="57.83" width=".9" height="6.57" transform="translate(283.15 405.39) rotate(-90)" /><rect class="cls-8" x="343.82" y="29.19" width=".9" height="6.57" transform="translate(311.79 376.75) rotate(-90)" /><g><rect class="cls-30" x="342.94" y="23.56" width="2.65" height="6.57" transform="translate(317.43 371.11) rotate(-90)" /><polygon class="cls-30" points="347.56 25.99 340.98 25.99 343.77 17.89 344.77 17.89 347.56 25.99" /><rect class="cls-22" x="344.04" y="22.46" width=".45" height="6.57" transform="translate(318.53 370.01) rotate(-90)" /></g><rect class="cls-8" x="343.02" y="31.79" width="2.51" height="6.57" transform="translate(309.19 379.35) rotate(-90)" /></g><g><rect class="cls-25" x="310.77" y="46.52" width="47.63" height="6.57" transform="translate(284.78 384.39) rotate(-90)" /><rect class="cls-4" x="332.52" y="68.27" width="4.13" height="6.57" transform="translate(263.03 406.14) rotate(-90)" /><rect class="cls-4" x="333.26" y="23.56" width="2.65" height="6.57" transform="translate(307.74 361.43) rotate(-90)" /><rect class="cls-8" x="333.35" y="60.47" width="2.46" height="6.57" transform="translate(270.82 398.34) rotate(-90)" /><rect class="cls-8" x="334.13" y="57.83" width=".9" height="6.57" transform="translate(273.46 395.7) rotate(-90)" /><rect class="cls-8" x="333.36" y="31.83" width="2.44" height="6.57" transform="translate(299.47 369.7) rotate(-90)" /><rect class="cls-8" x="334.13" y="29.19" width=".9" height="6.57" transform="translate(302.1 367.07) rotate(-90)" /><polygon class="cls-4" points="337.87 25.99 331.3 25.99 334.09 15.72 335.08 15.72 337.87 25.99" /><rect class="cls-28" x="334.36" y="22.46" width=".45" height="6.57" transform="translate(308.84 360.33) rotate(-90)" /></g></g><g><g><rect class="cls-23" x="321.55" y="128.13" width="45.45" height="6.57" transform="translate(212.86 475.69) rotate(-90)" /><rect class="cls-24" x="342.21" y="148.79" width="4.13" height="6.57" transform="translate(192.2 496.35) rotate(-90)" /><rect class="cls-8" x="342.97" y="141.06" width="2.59" height="6.57" transform="translate(199.92 488.62) rotate(-90)" /><rect class="cls-8" x="343.82" y="138.35" width=".9" height="6.57" transform="translate(202.63 485.91) rotate(-90)" /><rect class="cls-8" x="343.82" y="109.72" width=".9" height="6.57" transform="translate(231.27 457.27) rotate(-90)" /><g><rect class="cls-24" x="342.94" y="104.08" width="2.65" height="6.57" transform="translate(236.91 451.64) rotate(-90)" /><polygon class="cls-24" points="347.56 106.51 340.98 106.51 343.77 98.41 344.77 98.41 347.56 106.51" /><rect class="cls-14" x="344.04" y="102.98" width=".45" height="6.57" transform="translate(238 450.54) rotate(-90)" /></g><rect class="cls-8" x="343.02" y="112.31" width="2.51" height="6.57" transform="translate(228.67 459.87) rotate(-90)" /></g><g><rect class="cls-19" x="312.68" y="128.95" width="43.81" height="6.57" transform="translate(202.35 466.82) rotate(-90)" /><rect class="cls-15" x="332.52" y="148.79" width="4.13" height="6.57" transform="translate(182.51 486.66) rotate(-90)" /><rect class="cls-8" x="333.29" y="141.06" width="2.59" height="6.57" transform="translate(190.23 478.93) rotate(-90)" /><rect class="cls-8" x="334.13" y="138.35" width=".9" height="6.57" transform="translate(192.94 476.22) rotate(-90)" /><rect class="cls-8" x="334.13" y="109.72" width=".9" height="6.57" transform="translate(221.58 447.59) rotate(-90)" /><g><rect class="cls-15" x="333.26" y="105.71" width="2.65" height="6.57" transform="translate(225.58 443.58) rotate(-90)" /><polygon class="cls-15" points="337.87 108.15 331.3 108.15 334.09 101.4 335.08 101.4 337.87 108.15" /><rect class="cls-13" x="334.36" y="104.61" width=".45" height="6.57" transform="translate(226.68 442.48) rotate(-90)" /></g><rect class="cls-8" x="333.33" y="112.31" width="2.51" height="6.57" transform="translate(218.98 450.18) rotate(-90)" /></g><g><rect class="cls-31" x="332.05" y="128.95" width="43.81" height="6.57" transform="translate(221.73 486.19) rotate(-90)" /><rect class="cls-27" x="351.89" y="148.79" width="4.13" height="6.57" transform="translate(201.88 506.03) rotate(-90)" /><rect class="cls-8" x="352.66" y="141.06" width="2.59" height="6.57" transform="translate(209.61 498.31) rotate(-90)" /><rect class="cls-8" x="353.51" y="138.35" width=".9" height="6.57" transform="translate(212.32 495.6) rotate(-90)" /><rect class="cls-8" x="353.51" y="109.72" width=".9" height="6.57" transform="translate(240.95 466.96) rotate(-90)" /><rect class="cls-27" x="352.63" y="105.71" width="2.65" height="6.57" transform="translate(244.96 462.96) rotate(-90)" /><polygon class="cls-27" points="357.25 108.15 350.67 108.15 353.46 101.4 354.45 101.4 357.25 108.15" /><rect class="cls-17" x="353.73" y="104.61" width=".45" height="6.57" transform="translate(246.06 461.86) rotate(-90)" /><rect class="cls-8" x="352.71" y="112.31" width="2.51" height="6.57" transform="translate(238.36 469.56) rotate(-90)" /></g></g><g><path class="cls-15" d="M225,48.27c-.46.6-1.1,1.06-1.92,1.37s-1.75.47-2.79.47-2.02-.24-2.85-.73c-.83-.49-1.46-1.18-1.91-2.09s-.68-1.96-.7-3.17v-1c0-1.93.46-3.44,1.39-4.53.93-1.09,2.22-1.63,3.88-1.63,1.42,0,2.55.35,3.39,1.06.84.71,1.34,1.72,1.51,3.05h-2.18c-.25-1.54-1.14-2.31-2.68-2.31-1,0-1.75.36-2.27,1.08s-.79,1.77-.8,3.16v.98c0,1.38.29,2.45.87,3.22s1.39,1.15,2.43,1.15c1.14,0,1.95-.26,2.43-.77v-2.5h-2.64v-1.69h4.85v4.9Z" /><path class="cls-15" d="M232.21,42.37c-.28-.05-.57-.07-.87-.07-.98,0-1.64.38-1.98,1.12v6.5h-2.14v-9.51h2.04l.05,1.06c.52-.83,1.23-1.24,2.14-1.24.3,0,.56.04.76.12v2Z" /><path class="cls-15" d="M232.85,45.09c0-.93.18-1.77.55-2.52s.89-1.32,1.56-1.72c.67-.4,1.44-.6,2.3-.6,1.28,0,2.32.41,3.12,1.24s1.23,1.92,1.3,3.29v.5c0,.94-.17,1.78-.53,2.51s-.88,1.31-1.55,1.71-1.45.61-2.32.61c-1.34,0-2.42-.45-3.22-1.34-.81-.89-1.21-2.08-1.21-3.57v-.11ZM234.98,45.27c0,.98.2,1.74.61,2.3s.97.83,1.69.83,1.28-.28,1.68-.84.6-1.39.6-2.47c0-.96-.21-1.72-.62-2.29s-.97-.84-1.68-.84-1.25.28-1.66.83-.62,1.38-.62,2.48Z" /><path class="cls-15" d="M243.12,45.1c0-1.48.35-2.66,1.04-3.54.69-.88,1.62-1.32,2.76-1.32,1.08,0,1.94.38,2.56,1.13l.1-.96h1.92v9.22c0,1.25-.39,2.23-1.16,2.95s-1.82,1.08-3.14,1.08c-.7,0-1.38-.15-2.04-.44s-1.17-.67-1.52-1.14l1.01-1.28c.66.78,1.46,1.17,2.43,1.17.71,0,1.27-.19,1.68-.58.41-.38.62-.95.62-1.69v-.64c-.62.69-1.44,1.03-2.46,1.03-1.11,0-2.02-.44-2.73-1.33-.71-.88-1.06-2.11-1.06-3.67ZM245.25,45.29c0,.96.19,1.71.58,2.25.39.55.93.82,1.62.82.86,0,1.5-.37,1.92-1.11v-4.18c-.4-.72-1.04-1.08-1.9-1.08-.7,0-1.25.28-1.64.83-.39.56-.58,1.38-.58,2.46Z" /><path class="cls-15" d="M253.32,45.1c0-1.48.35-2.66,1.04-3.54.69-.88,1.62-1.32,2.76-1.32,1.08,0,1.94.38,2.56,1.13l.1-.96h1.92v9.22c0,1.25-.39,2.23-1.16,2.95s-1.82,1.08-3.14,1.08c-.7,0-1.38-.15-2.04-.44s-1.17-.67-1.52-1.14l1.01-1.28c.66.78,1.46,1.17,2.43,1.17.71,0,1.27-.19,1.68-.58.41-.38.62-.95.62-1.69v-.64c-.62.69-1.44,1.03-2.46,1.03-1.11,0-2.02-.44-2.73-1.33-.71-.88-1.06-2.11-1.06-3.67ZM255.45,45.29c0,.96.19,1.71.58,2.25.39.55.93.82,1.62.82.86,0,1.5-.37,1.92-1.11v-4.18c-.4-.72-1.04-1.08-1.9-1.08-.7,0-1.25.28-1.64.83-.39.56-.58,1.38-.58,2.46Z" /></g><g><path class="cls-20" d="M222.33,128.37l1.97-9.63h2.21l-2.95,12.8h-2.13l-2.43-9.34-2.49,9.34h-2.14l-2.95-12.8h2.21l1.99,9.62,2.44-9.62h1.86l2.42,9.63Z" /><path class="cls-20" d="M227.93,119.56c0-.33.1-.6.31-.82.21-.22.51-.33.89-.33s.69.11.9.33c.21.22.32.49.32.82s-.11.59-.32.8c-.21.21-.51.32-.9.32s-.68-.11-.89-.32c-.21-.21-.31-.48-.31-.8ZM230.2,131.54h-2.14v-9.51h2.14v9.51Z" /><path class="cls-20" d="M234.5,122.03l.06,1.1c.7-.85,1.63-1.27,2.77-1.27,1.98,0,2.99,1.13,3.02,3.4v6.28h-2.14v-6.16c0-.6-.13-1.05-.39-1.34s-.69-.44-1.28-.44c-.86,0-1.5.39-1.92,1.17v6.77h-2.14v-9.51h2.01Z" /><path class="cls-20" d="M244.51,122.03l.06,1.1c.7-.85,1.63-1.27,2.77-1.27,1.98,0,2.99,1.13,3.02,3.4v6.28h-2.14v-6.16c0-.6-.13-1.05-.39-1.34s-.69-.44-1.28-.44c-.86,0-1.5.39-1.92,1.17v6.77h-2.14v-9.51h2.01Z" /><path class="cls-20" d="M252.55,119.56c0-.33.1-.6.31-.82.21-.22.51-.33.89-.33s.69.11.9.33c.21.22.32.49.32.82s-.11.59-.32.8c-.21.21-.51.32-.9.32s-.68-.11-.89-.32c-.21-.21-.31-.48-.31-.8ZM254.81,131.54h-2.14v-9.51h2.14v9.51Z" /><path class="cls-20" d="M261.33,131.71c-1.35,0-2.45-.43-3.29-1.28s-1.26-1.99-1.26-3.41v-.26c0-.95.18-1.8.55-2.54s.88-1.33,1.54-1.74c.66-.42,1.4-.62,2.21-.62,1.29,0,2.3.41,3,1.24s1.06,2,1.06,3.51v.86h-6.21c.06.79.33,1.41.79,1.86s1.04.69,1.74.69c.98,0,1.78-.4,2.39-1.19l1.15,1.1c-.38.57-.89,1.01-1.52,1.32s-1.35.47-2.14.47ZM261.07,123.56c-.59,0-1.06.21-1.42.62-.36.41-.59.98-.69,1.71h4.07v-.16c-.05-.71-.24-1.26-.57-1.62-.33-.37-.8-.55-1.39-.55Z" /></g></svg>