<svg id="Layer_3" xmlns="http://www.w3.org/2000/svg" version="1.1" viewBox="0 0 396 181.413131" width="396" height="181.413131" preserveAspectRatio="none"><defs><style>
      .st0 {
        fill: #2c2b2f;
        font-family: Roboto-Medium, Roboto;
        font-size: 15.3546px;
        font-weight: 500;
      }

      .st1 {
        fill: #5e457f;
      }

      .st1, .st2, .st3, .st4, .st5 {
        stroke-miterlimit: 10;
        stroke-width: .903996px;
      }

      .st1, .st4, .st5 {
        stroke: #fff;
      }

      .st2 {
        stroke-dasharray: 2.763985 2.763985;
      }

      .st2, .st3 {
        fill: none;
        stroke: #9c9a95;
        stroke-linecap: round;
      }

      .st6 {
        fill: #9c9a95;
      }

      .st4 {
        fill: #a890c1;
      }

      .st5 {
        fill: #a967aa;
      }
    </style></defs><g><path class="st3" d="M227.125706,20.529202s-.152832-.470215-.55127-1.234375" /><path class="st2" d="M225.086643,16.971585c-3.151855-4.142578-10.669434-10.350098-27.224609-9.744141-19.291992.705566-27.114746,13.451172-29.88916,22.859375" /><path class="st3" d="M167.605686,31.42471c-.114258.449707-.217285.88916-.309082,1.316895" /><path class="st6" d="M166.639378,38.155179c-.608398-2.669922-1.802734-6.040527-3.250977-8.223145l4.059082,2.104492,4.464844-.979004c-1.965332,1.731934-3.993164,4.677246-5.272949,7.097656Z" /></g><circle class="st5" cx="197.658007" cy="42.982778" r="10.022954" /><circle class="st5" cx="197.658007" cy="53.219176" r="10.022954" /><circle class="st5" cx="197.658007" cy="63.455573" r="10.022954" /><circle class="st5" cx="197.658007" cy="73.69197" r="10.022954" /><circle class="st5" cx="197.658007" cy="83.928367" r="10.022954" /><circle class="st5" cx="197.658007" cy="94.164764" r="10.022954" /><circle class="st5" cx="197.658007" cy="104.401162" r="10.022954" /><circle class="st5" cx="197.658007" cy="114.637559" r="10.022954" /><circle class="st5" cx="197.658007" cy="124.873956" r="10.022954" /><circle class="st5" cx="197.658007" cy="135.110353" r="10.022954" /><circle class="st4" cx="166.894995" cy="53.219176" r="10.022954" /><circle class="st4" cx="166.894995" cy="63.455573" r="10.022954" /><circle class="st4" cx="166.894995" cy="73.69197" r="10.022954" /><circle class="st4" cx="166.894995" cy="83.928367" r="10.022954" /><circle class="st4" cx="166.894995" cy="94.164764" r="10.022954" /><circle class="st4" cx="166.894995" cy="104.401162" r="10.022954" /><circle class="st4" cx="166.894995" cy="114.637559" r="10.022954" /><circle class="st4" cx="166.894995" cy="124.873956" r="10.022954" /><circle class="st4" cx="166.894995" cy="135.110353" r="10.022954" /><circle class="st1" cx="228.42102" cy="32.746381" r="10.022954" /><circle class="st1" cx="228.42102" cy="42.982778" r="10.022954" /><circle class="st1" cx="228.42102" cy="53.219176" r="10.022954" /><circle class="st1" cx="228.42102" cy="63.455573" r="10.022954" /><circle class="st1" cx="228.42102" cy="73.69197" r="10.022954" /><circle class="st1" cx="228.42102" cy="83.928367" r="10.022954" /><circle class="st1" cx="228.42102" cy="94.164764" r="10.022954" /><circle class="st1" cx="228.42102" cy="104.401162" r="10.022954" /><circle class="st1" cx="228.42102" cy="114.637559" r="10.022954" /><circle class="st1" cx="228.42102" cy="124.873956" r="10.022954" /><circle class="st1" cx="228.42102" cy="135.110353" r="10.022954" /><g><circle class="st5" cx="70.452488" cy="42.982778" r="10.022954" /><circle class="st5" cx="70.452488" cy="53.219176" r="10.022954" /><circle class="st5" cx="70.452488" cy="63.455573" r="10.022954" /><circle class="st5" cx="70.452488" cy="73.69197" r="10.022954" /><circle class="st5" cx="70.452488" cy="83.928367" r="10.022954" /><circle class="st5" cx="70.452488" cy="94.164764" r="10.022954" /><circle class="st5" cx="70.452488" cy="104.401162" r="10.022954" /><circle class="st5" cx="70.452488" cy="114.637559" r="10.022954" /><circle class="st5" cx="70.452488" cy="124.873956" r="10.022954" /><circle class="st5" cx="70.452488" cy="135.110353" r="10.022954" /></g><circle class="st4" cx="39.689475" cy="53.219176" r="10.022954" /><circle class="st4" cx="39.689475" cy="63.455573" r="10.022954" /><circle class="st4" cx="39.689475" cy="73.69197" r="10.022954" /><circle class="st4" cx="39.689475" cy="83.928367" r="10.022954" /><circle class="st4" cx="39.689475" cy="94.164764" r="10.022954" /><circle class="st4" cx="39.689475" cy="104.401162" r="10.022954" /><circle class="st4" cx="39.689475" cy="114.637559" r="10.022954" /><circle class="st4" cx="39.689475" cy="124.873956" r="10.022954" /><circle class="st4" cx="39.689475" cy="135.110353" r="10.022954" /><circle class="st1" cx="101.2155" cy="32.746381" r="10.022954" /><circle class="st1" cx="101.2155" cy="42.982778" r="10.022954" /><circle class="st1" cx="101.2155" cy="53.219176" r="10.022954" /><circle class="st1" cx="101.2155" cy="63.455573" r="10.022954" /><circle class="st1" cx="101.2155" cy="73.69197" r="10.022954" /><circle class="st1" cx="101.2155" cy="83.928367" r="10.022954" /><circle class="st1" cx="101.2155" cy="94.164764" r="10.022954" /><circle class="st1" cx="101.2155" cy="104.401162" r="10.022954" /><circle class="st1" cx="101.2155" cy="114.637559" r="10.022954" /><circle class="st1" cx="101.2155" cy="124.873956" r="10.022954" /><circle class="st1" cx="101.2155" cy="135.110353" r="10.022954" /><text class="st0" transform="translate(34.159923 162.820982)"><tspan x="0" y="0">9 + 10 + 11</tspan></text><circle class="st5" cx="324.863527" cy="42.982778" r="10.022954" /><circle class="st5" cx="324.863527" cy="53.219176" r="10.022954" /><circle class="st5" cx="324.863527" cy="63.455573" r="10.022954" /><circle class="st5" cx="324.863527" cy="73.69197" r="10.022954" /><circle class="st5" cx="324.863527" cy="83.928367" r="10.022954" /><circle class="st5" cx="324.863527" cy="94.164764" r="10.022954" /><circle class="st5" cx="324.863527" cy="104.401162" r="10.022954" /><circle class="st5" cx="324.863527" cy="114.637559" r="10.022954" /><circle class="st5" cx="324.863527" cy="124.873956" r="10.022954" /><circle class="st5" cx="324.863527" cy="135.110353" r="10.022954" /><circle class="st1" cx="294.100515" cy="42.982778" r="10.022954" /><circle class="st4" cx="294.100515" cy="53.219176" r="10.022954" /><circle class="st4" cx="294.100515" cy="63.455573" r="10.022954" /><circle class="st4" cx="294.100515" cy="73.69197" r="10.022954" /><circle class="st4" cx="294.100515" cy="83.928367" r="10.022954" /><circle class="st4" cx="294.100515" cy="94.164764" r="10.022954" /><circle class="st4" cx="294.100515" cy="104.401162" r="10.022954" /><circle class="st4" cx="294.100515" cy="114.637559" r="10.022954" /><circle class="st4" cx="294.100515" cy="124.873956" r="10.022954" /><circle class="st4" cx="294.100515" cy="135.110353" r="10.022954" /><circle class="st1" cx="355.62654" cy="42.982778" r="10.022954" /><circle class="st1" cx="355.62654" cy="53.219176" r="10.022954" /><circle class="st1" cx="355.62654" cy="63.455573" r="10.022954" /><circle class="st1" cx="355.62654" cy="73.69197" r="10.022954" /><circle class="st1" cx="355.62654" cy="83.928367" r="10.022954" /><circle class="st1" cx="355.62654" cy="94.164764" r="10.022954" /><circle class="st1" cx="355.62654" cy="104.401162" r="10.022954" /><circle class="st1" cx="355.62654" cy="114.637559" r="10.022954" /><circle class="st1" cx="355.62654" cy="124.873956" r="10.022954" /><circle class="st1" cx="355.62654" cy="135.110353" r="10.022954" /><text class="st0" transform="translate(282.15797 162.820982)"><tspan x="0" y="0">10 + 10 + 10</tspan></text><g><rect class="st6" x="123.705265" y="86.794966" width="12.636559" height="4.5032" /><path class="st6" d="M144.97109,89.046476l-13.941576-8.048982c1.755859,5.021484,1.473145,10.442383,0,16.098145l13.941576-8.049163Z" /></g><g><rect class="st6" x="251.844411" y="86.794966" width="12.636559" height="4.5032" /><path class="st6" d="M273.110236,89.046476l-13.941576-8.048982c1.755859,5.021484,1.473145,10.442383,0,16.098145l13.941576-8.049163Z" /></g></svg>