<svg id="Layer_3" data-name="Layer 3" xmlns="http://www.w3.org/2000/svg" viewBox="0 0 396 72" width="396" height="72" preserveAspectRatio="none"><defs><style>
      .cls-1 {
        fill: #5e457f;
        stroke: #fff;
        stroke-width: .67px;
      }

      .cls-1, .cls-2, .cls-3 {
        stroke-miterlimit: 10;
      }

      .cls-4 {
        fill: #fff;
      }

      .cls-5 {
        fill: #9c9a95;
      }

      .cls-2 {
        stroke-width: .96px;
      }

      .cls-2, .cls-3 {
        fill: none;
        stroke: #2c2b2f;
      }

      .cls-3 {
        stroke-width: 1.5px;
      }
    </style></defs><rect class="cls-1" x="106.38" y="1.87" width="183.24" height="22.75" /><rect class="cls-3" x="106.38" y="1.87" width="183.24" height="68.26" /><line class="cls-2" x1="106.38" y1="24.62" x2="289.62" y2="24.62" /><line class="cls-2" x1="106.38" y1="47.38" x2="289.62" y2="47.38" /><g><path class="cls-4" d="M137.63,18.26v-9.95h3.41c1.13,0,1.98.23,2.57.68s.88,1.12.88,2.02c0,.46-.12.87-.37,1.23s-.61.65-1.08.85c.54.15.95.42,1.25.82s.44.89.44,1.45c0,.93-.3,1.65-.9,2.15-.6.5-1.46.75-2.57.75h-3.63ZM139.36,12.5h1.7c.54,0,.96-.12,1.26-.37.3-.24.45-.59.45-1.04,0-.49-.14-.85-.42-1.07s-.72-.33-1.31-.33h-1.68v2.8ZM139.36,13.77v3.11h1.92c.54,0,.97-.13,1.27-.4.31-.27.46-.64.46-1.12,0-1.03-.53-1.56-1.59-1.59h-2.06Z" /><path class="cls-4" d="M150.72,18.26c-.07-.14-.14-.37-.19-.69-.53.55-1.18.83-1.94.83s-1.35-.21-1.82-.64c-.47-.42-.7-.95-.7-1.57,0-.79.29-1.39.88-1.81.59-.42,1.42-.63,2.51-.63h1.02v-.49c0-.38-.11-.69-.32-.92-.21-.23-.54-.35-.98-.35-.38,0-.69.09-.93.28-.24.19-.36.43-.36.72h-1.66c0-.41.13-.79.4-1.14.27-.35.63-.63,1.1-.83.46-.2.98-.3,1.55-.3.87,0,1.56.22,2.07.65.51.44.78,1.05.79,1.84v3.34c0,.67.09,1.2.28,1.59v.12h-1.7ZM148.9,17.06c.33,0,.64-.08.93-.24.29-.16.51-.37.65-.64v-1.39h-.9c-.62,0-1.08.11-1.39.32-.31.21-.46.52-.46.91,0,.32.11.57.32.76s.5.28.85.28Z" /><path class="cls-4" d="M158.02,16.25c0-.3-.12-.52-.37-.68-.24-.15-.65-.29-1.21-.41-.57-.12-1.04-.27-1.42-.45-.83-.4-1.24-.98-1.24-1.74,0-.64.27-1.17.81-1.6.54-.43,1.22-.64,2.05-.64.88,0,1.6.22,2.14.66.54.44.82,1,.82,1.7h-1.66c0-.32-.12-.58-.36-.8-.24-.21-.55-.32-.94-.32-.36,0-.66.08-.89.25-.23.17-.35.39-.35.68,0,.26.11.45.32.59.21.14.65.28,1.3.43.65.14,1.16.31,1.53.51.37.2.65.44.83.71.18.28.27.62.27,1.01,0,.67-.28,1.2-.83,1.62-.55.41-1.27.62-2.17.62-.61,0-1.15-.11-1.62-.33-.47-.22-.84-.52-1.11-.9-.26-.38-.4-.8-.4-1.24h1.61c.02.39.17.69.44.91s.64.32,1.09.32.77-.08,1-.25c.23-.17.34-.38.34-.65Z" /><path class="cls-4" d="M164.36,18.39c-1.05,0-1.91-.33-2.56-.99-.65-.66-.98-1.55-.98-2.65v-.21c0-.74.14-1.4.43-1.98.28-.58.68-1.03,1.2-1.36.51-.32,1.09-.49,1.72-.49,1.01,0,1.79.32,2.33.96.55.64.82,1.55.82,2.73v.67h-4.83c.05.61.25,1.09.61,1.45.36.36.81.53,1.35.53.76,0,1.38-.31,1.86-.92l.9.85c-.3.44-.69.79-1.19,1.03-.49.24-1.05.37-1.66.37ZM164.16,12.06c-.46,0-.82.16-1.1.48s-.46.76-.54,1.33h3.17v-.12c-.04-.56-.18-.98-.44-1.26s-.62-.43-1.08-.43Z" /></g><path class="cls-5" d="M153.54,41.98h-1.77v-8.57l-2.61.89v-1.49l4.16-1.53h.23v10.7Z" /><path class="cls-5" d="M155.89,64.51h-7.17v-1.22l3.55-3.87c.51-.57.88-1.05,1.09-1.43s.33-.77.33-1.15c0-.51-.14-.92-.43-1.23s-.67-.47-1.15-.47c-.58,0-1.02.18-1.34.53s-.48.83-.48,1.44h-1.78c0-.65.15-1.23.44-1.75s.72-.92,1.27-1.21,1.18-.43,1.9-.43c1.04,0,1.85.26,2.45.78s.9,1.24.9,2.16c0,.53-.15,1.09-.45,1.67s-.79,1.25-1.48,1.99l-2.61,2.79h4.95v1.42Z" /><path class="cls-5" d="M242.73,61.38c0-.65.08-1.17.24-1.55.16-.39.48-.81.96-1.27s.78-.79.9-.99c.2-.3.29-.62.29-.97,0-.46-.11-.81-.34-1.05s-.56-.36-1-.36-.76.12-1.01.35c-.26.24-.38.56-.38.96h-1.78c0-.86.3-1.55.88-2.05s1.34-.76,2.3-.76,1.75.25,2.3.75.82,1.2.82,2.09c0,.8-.37,1.58-1.11,2.35l-.9.89c-.32.37-.49.9-.5,1.61h-1.66ZM242.6,63.66c0-.29.09-.52.27-.7s.42-.27.73-.27.56.09.74.27.27.41.27.69-.09.49-.26.67c-.18.18-.42.27-.75.27s-.57-.09-.74-.27c-.17-.18-.26-.4-.26-.67Z" /><g><path class="cls-5" d="M226.6,34.13c0,.52-.13.99-.4,1.4s-.63.73-1.1.96c.56.26.99.61,1.29,1.06s.45.96.45,1.52c0,.94-.32,1.68-.95,2.23s-1.48.82-2.53.82-1.91-.28-2.55-.83-.96-1.29-.96-2.23c0-.57.15-1.08.45-1.54s.73-.8,1.27-1.05c-.46-.23-.82-.56-1.09-.96s-.4-.87-.4-1.4c0-.91.29-1.63.88-2.16s1.38-.8,2.37-.8,1.79.27,2.38.8.88,1.25.88,2.16ZM225.06,38.99c0-.53-.16-.95-.47-1.28s-.73-.49-1.25-.49-.93.16-1.24.48-.47.75-.47,1.28.15.94.46,1.25.73.47,1.26.47.96-.15,1.26-.45.45-.73.45-1.27ZM224.83,34.2c0-.46-.13-.85-.4-1.15s-.63-.45-1.08-.45-.81.14-1.08.43-.4.68-.4,1.17.13.88.4,1.16.63.43,1.08.43.81-.14,1.08-.43.4-.68.4-1.16Z" /><path class="cls-5" d="M236.99,41.98c-.08-.15-.15-.4-.21-.74-.57.59-1.26.89-2.08.89s-1.45-.23-1.95-.68-.75-1.02-.75-1.68c0-.84.31-1.49.94-1.94s1.52-.68,2.69-.68h1.09v-.52c0-.41-.11-.74-.34-.99s-.58-.37-1.05-.37c-.41,0-.74.1-1,.3s-.39.46-.39.77h-1.78c0-.43.14-.84.43-1.22s.68-.68,1.18-.89,1.05-.32,1.66-.32c.93,0,1.67.23,2.22.7s.83,1.12.85,1.97v3.57c0,.71.1,1.28.3,1.71v.12h-1.82ZM235.04,40.7c.35,0,.68-.09.99-.26s.54-.4.7-.69v-1.49h-.96c-.66,0-1.15.11-1.49.34s-.5.55-.5.97c0,.34.11.61.34.82s.53.3.91.3Z" /><path class="cls-5" d="M242.03,34.06l.05.92c.59-.71,1.35-1.06,2.31-1.06,1.65,0,2.49.94,2.52,2.83v5.24h-1.78v-5.13c0-.5-.11-.88-.33-1.12s-.57-.36-1.07-.36c-.72,0-1.25.32-1.6.97v5.64h-1.78v-7.92h1.68Z" /><path class="cls-5" d="M248.38,37.96c0-1.22.28-2.2.85-2.94s1.33-1.11,2.28-1.11c.84,0,1.52.29,2.04.88v-4.06h1.78v11.25h-1.61l-.09-.82c-.53.64-1.24.97-2.13.97s-1.68-.37-2.25-1.12-.86-1.76-.86-3.05ZM250.16,38.12c0,.81.16,1.43.47,1.89s.75.68,1.32.68c.73,0,1.26-.32,1.6-.97v-3.38c-.33-.63-.85-.95-1.58-.95-.58,0-1.02.23-1.33.68s-.47,1.14-.47,2.06Z" /><path class="cls-5" d="M267.52,34.13c0,.52-.13.99-.4,1.4s-.63.73-1.1.96c.56.26.99.61,1.29,1.06s.45.96.45,1.52c0,.94-.32,1.68-.95,2.23s-1.48.82-2.53.82-1.91-.28-2.55-.83-.96-1.29-.96-2.23c0-.57.15-1.08.45-1.54s.73-.8,1.27-1.05c-.46-.23-.82-.56-1.09-.96s-.4-.87-.4-1.4c0-.91.29-1.63.88-2.16s1.38-.8,2.37-.8,1.79.27,2.38.8.88,1.25.88,2.16ZM265.98,38.99c0-.53-.16-.95-.47-1.28s-.73-.49-1.25-.49-.93.16-1.24.48-.47.75-.47,1.28.15.94.46,1.25.73.47,1.26.47.96-.15,1.26-.45.45-.73.45-1.27ZM265.75,34.2c0-.46-.13-.85-.4-1.15s-.63-.45-1.08-.45-.81.14-1.08.43-.4.68-.4,1.17.13.88.4,1.16.63.43,1.08.43.81-.14,1.08-.43.4-.68.4-1.16Z" /></g><g><path class="cls-4" d="M214.16,13.81h-4.09v3.06h4.78v1.38h-6.51v-9.95h6.46v1.39h-4.73v2.75h4.09v1.37Z" /><path class="cls-4" d="M215.79,14.5c0-1.16.26-2.08.79-2.75.53-.68,1.24-1.02,2.15-1.02.82,0,1.48.29,1.96.87l.1-.73h1.48v10.24h-1.66v-3.47c-.48.51-1.11.77-1.89.77-.88,0-1.59-.35-2.13-1.04s-.8-1.64-.8-2.86ZM217.45,14.64c0,.76.15,1.35.45,1.78.3.43.71.65,1.24.65.66,0,1.14-.28,1.46-.84v-3.36c-.32-.54-.8-.81-1.45-.81-.53,0-.94.21-1.25.64-.3.42-.45,1.07-.45,1.95Z" /><path class="cls-4" d="M228.53,17.53c-.49.57-1.18.86-2.08.86-.8,0-1.41-.23-1.82-.7-.41-.47-.62-1.15-.62-2.04v-4.79h1.66v4.77c0,.94.39,1.41,1.17,1.41s1.35-.29,1.63-.87v-5.31h1.66v7.4h-1.57l-.04-.72Z" /><path class="cls-4" d="M236.25,18.26c-.07-.14-.14-.37-.19-.69-.53.55-1.18.83-1.94.83s-1.35-.21-1.82-.64c-.47-.42-.7-.95-.7-1.57,0-.79.29-1.39.88-1.81.59-.42,1.42-.63,2.51-.63h1.02v-.49c0-.38-.11-.69-.32-.92-.21-.23-.54-.35-.98-.35-.38,0-.69.09-.93.28-.24.19-.36.43-.36.72h-1.66c0-.41.13-.78.4-1.14.27-.35.63-.63,1.1-.83.46-.2.98-.3,1.55-.3.87,0,1.56.22,2.07.65.51.44.78,1.05.79,1.84v3.34c0,.67.09,1.2.28,1.59v.12h-1.7ZM234.42,17.06c.33,0,.64-.08.93-.24.29-.16.51-.37.65-.64v-1.39h-.9c-.62,0-1.08.11-1.39.32-.31.21-.46.52-.46.91,0,.32.11.57.32.76.21.19.5.28.85.28Z" /><path class="cls-4" d="M241.17,18.26h-1.66V7.76h1.66v10.5Z" /><path class="cls-4" d="M251.83,15.69c0-.44-.15-.77-.46-1.01-.31-.24-.86-.48-1.66-.72-.8-.24-1.44-.51-1.91-.81-.91-.57-1.36-1.31-1.36-2.23,0-.8.33-1.46.98-1.98.65-.52,1.5-.78,2.55-.78.69,0,1.31.13,1.85.38.54.26.97.62,1.28,1.09.31.47.46.99.46,1.57h-1.72c0-.52-.16-.93-.49-1.22-.33-.29-.79-.44-1.4-.44-.57,0-1,.12-1.32.36-.31.24-.47.58-.47,1.01,0,.36.17.67.51.91.34.24.89.48,1.67.71.77.23,1.4.49,1.87.79.47.29.81.63,1.03,1.01.22.38.33.83.33,1.34,0,.83-.32,1.49-.95,1.98-.64.49-1.5.73-2.59.73-.72,0-1.38-.13-1.99-.4-.6-.27-1.07-.63-1.41-1.1-.33-.47-.5-1.02-.5-1.64h1.73c0,.57.19,1,.56,1.31.37.31.91.46,1.61.46.6,0,1.05-.12,1.36-.37.3-.24.45-.57.45-.97Z" /><path class="cls-4" d="M254.92,8.94c0-.26.08-.47.24-.64.16-.17.39-.25.69-.25s.53.08.7.25c.16.17.25.38.25.64s-.08.46-.25.63c-.16.17-.4.25-.7.25s-.53-.08-.69-.25c-.16-.17-.24-.37-.24-.63ZM256.68,18.26h-1.66v-7.4h1.66v7.4Z" /><path class="cls-4" d="M258.18,14.5c0-1.14.26-2.05.79-2.74.53-.69,1.24-1.04,2.13-1.04.78,0,1.42.27,1.9.82v-3.79h1.66v10.5h-1.5l-.08-.77c-.5.6-1.16.9-1.99.9s-1.57-.35-2.1-1.05c-.54-.7-.8-1.65-.8-2.84ZM259.84,14.65c0,.75.14,1.34.43,1.76.29.42.7.63,1.23.63.68,0,1.18-.3,1.49-.91v-3.16c-.31-.59-.8-.89-1.48-.89-.54,0-.95.21-1.24.64-.29.43-.44,1.07-.44,1.92Z" /><path class="cls-4" d="M269.65,18.39c-1.05,0-1.91-.33-2.56-.99-.65-.66-.98-1.55-.98-2.65v-.21c0-.74.14-1.4.43-1.98.28-.58.68-1.03,1.2-1.36.51-.32,1.09-.49,1.72-.49,1.01,0,1.79.32,2.33.96.55.64.82,1.55.82,2.73v.67h-4.83c.05.61.25,1.09.61,1.45.36.36.81.53,1.35.53.76,0,1.38-.31,1.86-.92l.9.85c-.3.44-.69.79-1.19,1.03-.49.24-1.05.37-1.66.37ZM269.45,12.06c-.46,0-.82.16-1.1.48-.28.32-.46.76-.54,1.33h3.17v-.12c-.04-.56-.18-.98-.44-1.26-.26-.28-.62-.43-1.08-.43Z" /><path class="cls-4" d="M278.05,16.25c0-.3-.12-.52-.37-.68-.24-.15-.65-.29-1.21-.41-.57-.12-1.04-.27-1.42-.45-.83-.4-1.24-.98-1.24-1.74,0-.64.27-1.17.81-1.6.54-.43,1.22-.64,2.05-.64.88,0,1.6.22,2.14.66.54.44.82,1,.82,1.7h-1.66c0-.32-.12-.58-.36-.8-.24-.21-.55-.32-.94-.32-.36,0-.66.08-.89.25-.23.17-.35.39-.35.68,0,.26.11.45.32.59.21.14.65.28,1.3.43.65.14,1.16.31,1.53.51.37.2.65.44.83.71.18.28.27.62.27,1.01,0,.67-.28,1.2-.83,1.62-.55.41-1.27.62-2.17.62-.61,0-1.15-.11-1.62-.33-.47-.22-.84-.52-1.11-.9-.26-.38-.4-.8-.4-1.24h1.61c.02.39.17.69.44.91s.64.32,1.09.32.77-.08,1-.25c.23-.17.34-.38.34-.65Z" /></g><line class="cls-3" x1="198" y1="1.87" x2="198" y2="70.13" /></svg>