<svg id="Layer_3" data-name="Layer 3" xmlns="http://www.w3.org/2000/svg" viewBox="0 0 396 41" width="396" height="41" preserveAspectRatio="none"><defs><style>
      .cls-1 {
        fill: none;
        stroke: #cc4c3b;
        stroke-miterlimit: 10;
        stroke-width: 3.06px;
      }

      .cls-2 {
        fill: #231f20;
      }
    </style></defs><polygon class="cls-2" points="288.14 38.47 274.93 38.47 274.14 38.47 271.25 39.12 274.14 39.77 274.93 39.77 288.14 39.77 288.93 39.77 291.82 39.12 288.93 38.47 288.14 38.47" /><g><polygon class="cls-2" points="275.02 37.53 288.08 39.46 288.86 39.57 291.82 39.35 289.05 38.28 288.27 38.16 275.21 36.24 274.43 36.13 271.47 36.35 274.24 37.42 275.02 37.53" /><polygon class="cls-2" points="234.31 31.54 247.37 33.47 248.16 33.58 251.11 33.35 248.35 32.29 247.56 32.17 234.5 30.25 233.72 30.13 230.76 30.36 233.53 31.43 234.31 31.54" /><polygon class="cls-2" points="213.95 28.55 227.02 30.47 227.8 30.58 230.76 30.36 227.99 29.29 227.21 29.18 214.14 27.25 213.36 27.14 210.4 27.36 213.17 28.43 213.95 28.55" /><polygon class="cls-2" points="254.66 34.54 267.73 36.46 268.51 36.58 271.47 36.35 268.7 35.28 267.92 35.17 254.85 33.24 254.07 33.13 251.11 33.35 253.88 34.42 254.66 34.54" /></g><g><polygon class="cls-2" points="122.58 37.53 109.52 39.46 108.73 39.57 105.78 39.35 108.54 38.28 109.33 38.16 122.39 36.24 123.17 36.13 126.13 36.35 123.36 37.42 122.58 37.53" /><polygon class="cls-2" points="163.29 31.54 150.22 33.47 149.44 33.58 146.49 33.35 149.25 32.29 150.03 32.17 163.1 30.25 163.88 30.13 166.84 30.36 164.07 31.43 163.29 31.54" /><polygon class="cls-2" points="183.65 28.55 170.58 30.47 169.8 30.58 166.84 30.36 169.61 29.29 170.39 29.18 183.46 27.25 184.24 27.14 187.2 27.36 184.43 28.43 183.65 28.55" /><polygon class="cls-2" points="142.94 34.54 129.87 36.46 129.09 36.58 126.13 36.35 128.9 35.28 129.68 35.17 142.75 33.24 143.53 33.13 146.49 33.35 143.72 34.42 142.94 34.54" /></g><polygon class="cls-2" points="204.96 38.47 191.76 38.47 190.96 38.47 188.07 39.12 190.96 39.77 191.76 39.77 204.96 39.77 205.75 39.77 208.65 39.12 205.75 38.47 204.96 38.47" /><polygon class="cls-2" points="225.54 38.47 212.33 38.47 211.54 38.47 208.65 39.12 211.54 39.77 212.33 39.77 225.54 39.77 226.33 39.77 229.22 39.12 226.33 38.47 225.54 38.47" /><polygon class="cls-2" points="266.68 38.47 253.48 38.47 252.69 38.47 249.79 39.12 252.69 39.77 253.48 39.77 266.68 39.77 267.47 39.77 270.37 39.12 267.47 38.47 266.68 38.47" /><polygon class="cls-2" points="246.11 38.47 232.9 38.47 232.11 38.47 229.22 39.12 232.11 39.77 232.9 39.77 246.11 39.77 246.9 39.77 249.79 39.12 246.9 38.47 246.11 38.47" /><polygon class="cls-2" points="122.67 38.47 109.46 38.47 108.67 38.47 105.78 39.12 108.67 39.77 109.46 39.77 122.67 39.77 123.46 39.77 126.35 39.12 123.46 38.47 122.67 38.47" /><polygon class="cls-2" points="143.24 38.47 130.03 38.47 129.24 38.47 126.35 39.12 129.24 39.77 130.03 39.77 143.24 39.77 144.03 39.77 146.92 39.12 144.03 38.47 143.24 38.47" /><polygon class="cls-2" points="184.39 38.47 171.18 38.47 170.39 38.47 167.5 39.12 170.39 39.77 171.18 39.77 184.39 39.77 185.18 39.77 188.07 39.12 185.18 38.47 184.39 38.47" /><polygon class="cls-2" points="163.82 38.47 150.61 38.47 149.82 38.47 146.92 39.12 149.82 39.77 150.61 39.77 163.82 39.77 164.6 39.77 167.5 39.12 164.6 38.47 163.82 38.47" /><g><line class="cls-1" x1="189.73" y1="18.21" x2="206.27" y2="34.76" /><line class="cls-1" x1="206.27" y1="18.21" x2="189.73" y2="34.76" /></g></svg>