<svg id="Layer_3" xmlns="http://www.w3.org/2000/svg" version="1.1" viewBox="0 0 396 139.999776" width="396" height="139.999776" preserveAspectRatio="none"><defs><style>
      .st0 {
        stroke: #2c2b2f;
      }

      .st0, .st1 {
        fill: none;
        stroke-linecap: round;
        stroke-width: 2.25px;
      }

      .st2 {
        fill: #d44097;
        opacity: .53;
      }

      .st1 {
        stroke: #d44097;
        stroke-miterlimit: 10;
      }

      .st3 {
        fill: #41853f;
      }
    </style></defs><g><line class="st0" x1="69.489301" y1="63.857109" x2="332.9703" y2="115.829107" /><line class="st0" x1="63.0297" y1="94.208708" x2="330.092706" y2="28.871713" /><line class="st0" x1="287.324097" y1="23.034912" x2="296.50409" y2="124.284912" /><line class="st1" x1="323.121074" y1="13.190794" x2="236.217016" y2="135.122508" /></g><path class="st3" d="M135.658451,68.039966h-1.725586v-11.438965l-3.460449,1.270996v-1.558594l4.916992-1.846191h.269043v13.572754Z" /><path class="st3" d="M280.028775,35.843653h-8.850586v-1.233887l4.675781-5.195312c.692627-.7854,1.17041-1.424072,1.43335-1.915771.262817-.491699.394287-1.000244.394287-1.526123,0-.705078-.213379-1.283203-.640137-1.734863-.426758-.451416-.99585-.677246-1.707031-.677246-.853516,0-1.516846.24292-1.98999.728271-.473145.485596-.709717,1.161377-.709717,2.0271h-1.716309c0-1.243164.400391-2.248047,1.201416-3.015137.800903-.766846,1.872437-1.150391,3.2146-1.150391,1.255493,0,2.248169.329346,2.978027.988037.729736.658691,1.094727,1.5354,1.094727,2.630127,0,1.329834-.847412,2.913086-2.541992,4.75l-3.618164,3.924316h6.781738v1.400879Z" /><path class="st3" d="M303.122016,19.095684h1.289551c.810181-.012207,1.447266-.225586,1.911133-.640137.463867-.414307.695801-.974121.695801-1.679199,0-1.583252-.788574-2.375-2.365723-2.375-.742188,0-1.334473.211914-1.776611.635498-.442261.423828-.66333.985107-.66333,1.683838h-1.716309c0-1.069824.391113-1.958984,1.173584-2.667236.782349-.708008,1.776611-1.062256,2.982666-1.062256,1.274048,0,2.272949.337158,2.996582,1.01123.723633.674316,1.085449,1.611328,1.085449,2.811035,0,.587646-.190186,1.156738-.570557,1.707031-.380371.550537-.898438.961914-1.553955,1.233887.742188.235107,1.315796.624756,1.720947,1.168945.405029.544434.607666,1.209229.607666,1.994629,0,1.212402-.395874,2.174072-1.1875,2.885254-.791748.711426-1.821533,1.066895-3.089355,1.066895-1.267944,0-2.299316-.343262-3.093994-1.029785-.7948-.686523-1.192139-1.592529-1.192139-2.718262h1.725586c0,.711426.231934,1.280273.695801,1.707031s1.085449.640137,1.864746.640137c.828735,0,1.462646-.216309,1.901855-.649414.439087-.432861.658691-1.054443.658691-1.864746,0-.7854-.241211-1.388428-.723633-1.809082-.482422-.42041-1.178223-.636963-2.087402-.649414h-1.289551v-1.400879Z" /><path class="st3" d="M306.442384,64.940534h1.874023v1.400879h-1.874023v3.135742h-1.725586v-3.135742h-6.150879v-1.01123l6.048828-9.36084h1.827637v8.971191ZM300.514161,64.940534h4.202637v-6.624023l-.204102.371094-3.998535,6.25293Z" /><path class="st3" d="M253.360683,85.935375l.686523-6.735352h6.920898v1.586426h-5.464355l-.408203,3.683105c.661743-.389648,1.413208-.584473,2.254395-.584473,1.230713,0,2.208008.406738,2.931641,1.219971.723633.813477,1.085449,1.912842,1.085449,3.298096,0,1.391602-.375732,2.488037-1.127197,3.288818-.751465.801025-1.801392,1.201416-3.149658,1.201416-1.193726,0-2.167847-.330811-2.922363-.992676-.754639-.661621-1.184448-1.577148-1.289551-2.746094h1.623535c.105103.773193.380371,1.356201.825684,1.748779.445312.392822,1.032837.589111,1.762695.589111.797852,0,1.424072-.271973,1.878662-.816406.45459-.544189.681885-1.295654.681885-2.254395,0-.902832-.24585-1.628174-.737549-2.175537s-1.145752-.821045-1.962158-.821045c-.748413,0-1.335938.164062-1.762695.491699l-.45459.371094-1.373047-.352539Z" /><path class="st3" d="M307.589456,90.345676v1.456543h-.31543c-1.335938.024902-2.39978.420654-3.191406,1.1875-.791748.76709-1.24939,1.846191-1.373047,3.237793.711182-.816406,1.682251-1.224609,2.913086-1.224609,1.175049,0,2.113647.414551,2.815674,1.243164.701904.828857,1.052979,1.898926,1.052979,3.209961,0,1.391602-.378906,2.504883-1.136475,3.339844-.75769.834961-1.77356,1.252441-3.047607,1.252441-1.292725,0-2.341064-.496338-3.14502-1.489014-.804077-.992676-1.206055-2.27124-1.206055-3.836182v-.658691c0-2.486328.530273-4.386475,1.591064-5.700928,1.060669-1.314209,2.639404-1.986816,4.736084-2.017822h.306152ZM305.335062,96.431614c-.587646,0-1.128784.17627-1.623535.528809-.494873.352539-.838135.794922-1.029785,1.32666v.630859c0,1.113281.250488,2.010254.751465,2.69043.500977.68042,1.12561,1.020508,1.874023,1.020508.773071,0,1.380737-.284424,1.822998-.853516.442139-.568848.66333-1.314209.66333-2.23584,0-.927734-.224243-1.67749-.672607-2.249756-.448486-.572021-1.043701-.858154-1.785889-.858154Z" /><circle class="st2" cx="134.757115" cy="76.292043" r="5.874898" /><circle class="st2" cx="288.565197" cy="38.828793" r="5.874898" /><circle class="st2" cx="308.742453" cy="34.154739" r="5.874898" /><circle class="st2" cx="290.605092" cy="59.227743" r="5.874898" /><circle class="st2" cx="259.915835" cy="101.400456" r="5.874898" /><circle class="st2" cx="295.092861" cy="108.185223" r="5.874898" /></svg>