<svg id="Layer_3" xmlns="http://www.w3.org/2000/svg" version="1.1" viewBox="0 0 396 177.14952" width="396" height="177.14952" preserveAspectRatio="none"><defs><style>
      .st0, .st1 {
        fill: #9c9a95;
      }

      .st0, .st2, .st3 {
        font-family: Roboto-Medium, Roboto;
        font-size: 18px;
        font-weight: 500;
      }

      .st4 {
        stroke: #e27752;
        stroke-width: .822234px;
      }

      .st4, .st5 {
        fill: none;
        stroke-miterlimit: 10;
      }

      .st6 {
        fill: #5e457f;
      }

      .st7 {
        fill: #fff;
      }

      .st5 {
        stroke: #2c2b2f;
        stroke-width: 2px;
      }

      .st8 {
        fill: #c65f99;
      }

      .st9, .st3 {
        fill: #e27752;
      }

      .st10 {
        fill: #e5e3dc;
      }

      .st11 {
        fill: #0588b3;
      }

      .st12 {
        fill: #41853f;
      }
    </style></defs><g><path class="st1" d="M120.593297,39.022194c-.904297-.321045-1.518066,1.122803-2.322266,2.972168-.086426.199463-.164062.395508-.237793.589111-.078125-.027344-.155762-.054932-.241699-.079102.192383-.4729.375977-1.002197.535156-1.575684.587891-2.12085.863281-3.953369.089355-4.110596-1.008789-.204834-1.452637,1.44873-2.040527,3.569336-.170898.616699-.290039,1.202148-.367676,1.736816-.050781-.007812-.104004-.019775-.154785-.026855.02832-.422607.050781-.85791.058594-1.314453.050781-2.919922-.131348-5.364258-.919922-5.304443-1.02832.077637-1.053711,2.349121-1.104492,5.268799-.007812.434814-.001953.851074.009766,1.255859-.133301.008301-.262695.020508-.38916.036865-.022949-.152832-.041016-.300537-.067383-.456299-.481934-2.879883-1.106445-5.25-1.871094-5.047607-.996582.263672-.60791,2.501709-.125488,5.38208.054199.324219.114258.637207.17627.943359v.000244c.047852.315186.04248,1.240234-.351074,1.406494-.124512.052734-.289062.061523-.471191.043701-.005371.017822-.009277.036377-.014648.054199-.975098-.549072-1.922852-.530762-2.518066-.276611-.668457.285645-1.593262,1.281982.011719,1.507568,1.131836.159424,2.050781.897705,2.5,1.322998.271484.712158.848145,1.303955,1.878418,1.576416l-.11084,2.450928,5.24707-.005859-.182617-2.739502c.444336-.29834.722656-.711426.931152-1.223633.337891-.828857.958496-1.997559.833008-2.965332.216309-.379639.430664-.806396.630371-1.265869.804199-1.849365,1.28418-3.478516.589844-3.725098Z" /><path class="st1" d="M134.781774,39.022194c-.904785-.321045-1.518066,1.122803-2.322266,2.972168-.086914.199463-.164062.395508-.238281.589111-.077637-.027344-.155273-.054932-.241699-.079102.192871-.4729.376465-1.002197.535645-1.575684.587891-2.12085.862793-3.953369.089355-4.110596-1.008789-.204834-1.452637,1.44873-2.040527,3.569336-.171387.616699-.290039,1.202148-.367676,1.736816-.050781-.007812-.104004-.019775-.154785-.026855.02832-.422607.050293-.85791.058594-1.314453.050781-2.919922-.131348-5.364258-.92041-5.304443-1.027832.077637-1.053223,2.349121-1.104492,5.268799-.007324.434814-.001953.851074.010254,1.255859-.133301.008301-.262695.020508-.38916.036865-.022949-.152832-.041016-.300537-.067383-.456299-.481934-2.879883-1.106445-5.25-1.871094-5.047607-.996582.263672-.60791,2.501709-.125488,5.38208.054199.324219.114258.637451.17627.943359v.000244c.047852.315186.04248,1.240234-.351074,1.406494-.124512.052734-.289062.061523-.471191.043701-.005371.017822-.009277.036377-.014648.054199-.975098-.549072-1.922852-.530762-2.518066-.276611-.668457.285645-1.593262,1.281982.011719,1.507568,1.131836.159424,2.050781.897705,2.5,1.322998.271484.712158.848145,1.303955,1.878418,1.576416l-.111328,2.450928,5.247559-.005859-.182617-2.739502c.443848-.29834.722656-.711426.931152-1.223633.337891-.828857.958496-1.997559.833008-2.965332.216309-.379639.430664-.806396.630371-1.265869.804199-1.849365,1.283691-3.478516.589844-3.725098Z" /><path class="st1" d="M149.128454,39.022194c-.904785-.321045-1.518066,1.122803-2.322266,2.972168-.086914.199463-.164062.395508-.238281.589111-.077637-.027344-.155762-.054932-.241699-.079102.192871-.4729.376465-1.002197.535156-1.575684.588379-2.12085.863281-3.953369.089355-4.110596-1.008301-.204834-1.452148,1.44873-2.040527,3.569336-.170898.616699-.289551,1.202148-.367188,1.736816-.05127-.007812-.104492-.019775-.154785-.026855.02832-.422607.050293-.85791.058105-1.314453.05127-2.919922-.130859-5.364258-.919922-5.304443-1.027832.077637-1.053223,2.349121-1.104492,5.268799-.007324.434814-.001953.851074.009766,1.255859-.132812.008301-.262695.020508-.388672.036865-.022949-.152832-.041504-.300537-.067383-.456299-.481934-2.879883-1.106445-5.25-1.871094-5.047607-.996582.263672-.60791,2.501709-.125977,5.38208.054199.324219.114258.637207.176758.943359,0,0,0,.000244-.000488.000244.047852.315186.042969,1.240234-.350586,1.406494-.124512.052734-.289062.061523-.47168.043701-.005371.017578-.009277.036377-.014648.054199-.974609-.549072-1.922852-.530762-2.517578-.276611-.668457.285645-1.593262,1.281982.01123,1.507568,1.132324.159424,2.05127.897705,2.500488,1.322998.271484.712158.847656,1.303955,1.87793,1.576416l-.11084,2.450928,5.247559-.005859-.183105-2.739502c.444336-.29834.722656-.711426.931641-1.223633.337402-.828857.958008-1.997559.83252-2.965576.216797-.379395.431152-.806396.630859-1.265625.803711-1.849365,1.283691-3.478516.589844-3.725098Z" /><path class="st1" d="M163.31693,39.022194c-.904785-.321045-1.518066,1.122803-2.322266,2.972168-.086914.199463-.164062.395508-.238281.589111-.078125-.027344-.155762-.054932-.241699-.079102.192871-.4729.376465-1.002197.535156-1.575684.588379-2.12085.863281-3.953369.089355-4.110596-1.008301-.204834-1.452148,1.44873-2.040527,3.569336-.170898.616699-.289551,1.202148-.367188,1.736816-.05127-.007812-.104492-.019775-.154785-.026855.02832-.422607.050293-.85791.058105-1.314453.05127-2.919922-.130859-5.364258-.919922-5.304443-1.027832.077637-1.053223,2.349121-1.104492,5.268799-.007812.434814-.001953.851074.009766,1.255859-.132812.008301-.262695.020508-.388672.036865-.022949-.152832-.041504-.300537-.067383-.456299-.481934-2.879883-1.106445-5.25-1.871094-5.047607-.996582.263672-.60791,2.501709-.125977,5.38208.054199.324219.114258.637207.176758.943359l-.000488.000244c.047852.315186.042969,1.240234-.350586,1.406494-.125.052734-.289551.061523-.47168.043701-.005371.017578-.009277.036377-.014648.054199-.974609-.549072-1.922852-.530762-2.517578-.276611-.668945.285645-1.593262,1.281982.01123,1.507568,1.131836.159424,2.05127.897705,2.500488,1.322998.270996.712158.847656,1.303955,1.87793,1.576416l-.11084,2.450928,5.247559-.005859-.183105-2.739502c.444336-.29834.722656-.711426.931641-1.223633.337402-.828857.958008-1.997559.83252-2.965576.216797-.379395.430664-.806396.630371-1.265625.804199-1.849365,1.28418-3.478516.590332-3.725098Z" /></g><path class="st1" d="M120.593297,59.86155c-.904297-.321045-1.518066,1.122559-2.322266,2.971924-.086426.199707-.164062.395508-.237793.589355-.078125-.027588-.155762-.054932-.241699-.079346.192383-.472656.375977-1.002197.535156-1.575684.587891-2.120605.863281-3.953369.089355-4.110352-1.008789-.205078-1.452637,1.44873-2.040527,3.569336-.170898.616699-.290039,1.202148-.367676,1.736572-.050781-.007812-.104004-.019531-.154785-.026855.02832-.422363.050781-.857666.058594-1.314453.050781-2.919678-.131348-5.364014-.919922-5.304443-1.02832.077637-1.053711,2.349365-1.104492,5.269043-.007812.43457-.001953.851074.009766,1.255615-.133301.008545-.262695.020752-.38916.036865-.022949-.152588-.041016-.300293-.067383-.456055-.481934-2.880127-1.106445-5.250244-1.871094-5.047852-.996582.263916-.60791,2.501953-.125488,5.38208.054199.324219.114258.637451.17627.943604h0c.047852.315186.04248,1.240234-.351074,1.406738-.124512.05249-.289062.061279-.471191.043457-.005371.017822-.009277.036621-.014648.054443-.975098-.549072-1.922852-.531006-2.518066-.276611-.668457.285645-1.593262,1.281738.011719,1.507324,1.131836.159424,2.050781.897949,2.5,1.323242.271484.712158.848145,1.303711,1.878418,1.576416l-.11084,2.450684,5.24707-.005615-.182617-2.739502c.444336-.298584.722656-.71167.931152-1.223877.337891-.828613.958496-1.997314.833008-2.965332.216309-.379395.430664-.806396.630371-1.265625.804199-1.849365,1.28418-3.478516.589844-3.725098Z" /><path class="st1" d="M134.781774,59.86155c-.904785-.321045-1.518066,1.122559-2.322266,2.971924-.086914.199707-.164062.395508-.238281.589355-.077637-.027588-.155273-.054932-.241699-.079346.192871-.472656.376465-1.002197.535645-1.575684.587891-2.120605.862793-3.953369.089355-4.110352-1.008789-.205078-1.452637,1.44873-2.040527,3.569336-.171387.616699-.290039,1.202148-.367676,1.736572-.050781-.007812-.104004-.019531-.154785-.026855.02832-.422363.050293-.857666.058594-1.314453.050781-2.919678-.131348-5.364014-.92041-5.304443-1.027832.077637-1.053223,2.349365-1.104492,5.269043-.007324.43457-.001953.851074.010254,1.255615-.133301.008545-.262695.020752-.38916.036865-.022949-.152588-.041016-.300293-.067383-.456055-.481934-2.880127-1.106445-5.250244-1.871094-5.047852-.996582.263916-.60791,2.501953-.125488,5.38208.054199.324219.114258.637451.17627.943604h0c.047852.315186.04248,1.240234-.351074,1.406738-.124512.05249-.289062.061279-.471191.043457-.005371.017822-.009277.036621-.014648.054443-.975098-.549072-1.922852-.531006-2.518066-.276611-.668457.285645-1.593262,1.281738.011719,1.507324,1.131836.159424,2.050781.897949,2.5,1.323242.271484.712158.848145,1.303711,1.878418,1.576416l-.111328,2.450684,5.247559-.005615-.182617-2.739502c.443848-.298584.722656-.71167.931152-1.223877.337891-.828613.958496-1.997314.833008-2.965332.216309-.379395.430664-.806396.630371-1.265625.804199-1.849365,1.283691-3.478516.589844-3.725098Z" /><path class="st1" d="M149.128454,59.86155c-.904785-.321045-1.518066,1.122559-2.322266,2.971924-.086914.199707-.164062.395508-.238281.589355-.077637-.027588-.155762-.054932-.241699-.079346.192871-.472656.376465-1.002197.535156-1.575684.588379-2.120605.863281-3.953369.089355-4.110352-1.008301-.205078-1.452148,1.44873-2.040527,3.569336-.170898.616699-.289551,1.202148-.367188,1.736572-.05127-.007812-.104492-.019775-.154785-.026855.02832-.422363.050293-.857666.058105-1.314453.05127-2.919678-.130859-5.364014-.919922-5.304443-1.027832.077637-1.053223,2.349365-1.104492,5.269043-.007324.43457-.001953.851074.009766,1.255615-.132812.008545-.262695.020752-.388672.036865-.022949-.152588-.041504-.300293-.067383-.456055-.481934-2.880127-1.106445-5.250244-1.871094-5.047852-.996582.263916-.60791,2.501953-.125977,5.38208.054199.324219.114258.637451.176758.943604h-.000488c.047852.315186.042969,1.240234-.350586,1.406738-.124512.05249-.289062.061279-.47168.043457-.005371.017822-.009277.036621-.014648.054443-.974609-.549072-1.922852-.531006-2.517578-.276611-.668457.285645-1.593262,1.281738.01123,1.507324,1.132324.159424,2.05127.897949,2.500488,1.323242.271484.712158.847656,1.303955,1.87793,1.576416l-.11084,2.450684,5.247559-.005615-.183105-2.739502c.444336-.298584.722656-.71167.931641-1.223877.337402-.828613.958008-1.997559.83252-2.965332.216797-.379639.431152-.806396.630859-1.265625.803711-1.849365,1.283691-3.478516.589844-3.725098Z" /><path class="st1" d="M120.593297,84.24778c-.904297-.321045-1.518066,1.122803-2.322266,2.972168-.086426.199463-.164062.395508-.237793.589111-.078125-.027344-.155762-.054932-.241699-.079102.192383-.4729.375977-1.002197.535156-1.575684.587891-2.12085.863281-3.953369.089355-4.110596-1.008789-.204834-1.452637,1.44873-2.040527,3.569336-.170898.616699-.290039,1.202148-.367676,1.736816-.050781-.007812-.104004-.019775-.154785-.026855.02832-.422607.050781-.85791.058594-1.314453.050781-2.919922-.131348-5.364258-.919922-5.304443-1.02832.077637-1.053711,2.349121-1.104492,5.268799-.007812.434814-.001953.851074.009766,1.255859-.133301.008301-.262695.020508-.38916.036865-.022949-.152832-.041016-.300537-.067383-.456299-.481934-2.879883-1.106445-5.25-1.871094-5.047607-.996582.263672-.60791,2.501709-.125488,5.38208.054199.324219.114258.637207.17627.943359v.000244c.047852.315186.04248,1.240234-.351074,1.406494-.124512.052734-.289062.061523-.471191.043701-.005371.017822-.009277.036377-.014648.054199-.975098-.549072-1.922852-.530762-2.518066-.276611-.668457.285645-1.593262,1.281982.011719,1.507568,1.131836.159424,2.050781.897705,2.5,1.322998.271484.712158.848145,1.303955,1.878418,1.576416l-.11084,2.450928,5.24707-.005859-.182617-2.739502c.444336-.29834.722656-.711426.931152-1.223633.337891-.828857.958496-1.997559.833008-2.965332.216309-.379639.430664-.806396.630371-1.265869.804199-1.849365,1.28418-3.478516.589844-3.725098Z" /><path class="st1" d="M134.781774,84.24778c-.904785-.321045-1.518066,1.122803-2.322266,2.972168-.086914.199463-.164062.395508-.238281.589111-.077637-.027344-.155273-.054932-.241699-.079102.192871-.4729.376465-1.002197.535645-1.575684.587891-2.12085.862793-3.953369.089355-4.110596-1.008789-.204834-1.452637,1.44873-2.040527,3.569336-.171387.616699-.290039,1.202148-.367676,1.736816-.050781-.007812-.104004-.019775-.154785-.026855.02832-.422607.050293-.85791.058594-1.314453.050781-2.919922-.131348-5.364258-.92041-5.304443-1.027832.077637-1.053223,2.349121-1.104492,5.268799-.007324.434814-.001953.851074.010254,1.255859-.133301.008301-.262695.020508-.38916.036865-.022949-.152832-.041016-.300537-.067383-.456299-.481934-2.879883-1.106445-5.25-1.871094-5.047607-.996582.263672-.60791,2.501709-.125488,5.38208.054199.324219.114258.637451.17627.943359v.000244c.047852.315186.04248,1.240234-.351074,1.406494-.124512.052734-.289062.061523-.471191.043701-.005371.017822-.009277.036377-.014648.054199-.975098-.549072-1.922852-.530762-2.518066-.276611-.668457.285645-1.593262,1.281982.011719,1.507568,1.131836.159424,2.050781.897705,2.5,1.322998.271484.712158.848145,1.303955,1.878418,1.576416l-.111328,2.450928,5.247559-.005859-.182617-2.739502c.443848-.29834.722656-.711426.931152-1.223633.337891-.828857.958496-1.997559.833008-2.965332.216309-.379639.430664-.806396.630371-1.265869.804199-1.849365,1.283691-3.478516.589844-3.725098Z" /><path class="st1" d="M120.593297,106.417214c-.904297-.321045-1.518066,1.122559-2.322266,2.972168-.086426.199463-.164062.395264-.238281.589111-.077637-.027344-.155273-.054932-.241211-.079102.192383-.4729.375977-1.002197.535156-1.575684.587891-2.12085.863281-3.953613.089355-4.110596-1.008789-.205078-1.452637,1.44873-2.040527,3.569336-.170898.616699-.290039,1.202148-.367676,1.736816-.050781-.007812-.104004-.019775-.154785-.026855.02832-.422607.050781-.85791.058594-1.314697.050781-2.919678-.131348-5.364014-.919922-5.304199-1.02832.077637-1.053711,2.349121-1.104492,5.268799-.007812.434814-.001953.851074.009766,1.255859-.133301.008301-.262695.020508-.38916.036865-.022949-.152832-.041016-.300537-.067383-.456299-.481934-2.880127-1.106445-5.25-1.871094-5.047852-.996582.263916-.60791,2.501953-.125488,5.38208.054199.324463.114258.637451.17627.943604v.000244c.047852.315186.04248,1.240234-.351074,1.406494-.124512.05249-.289062.061523-.471191.043701-.005371.017822-.009277.036377-.014648.054199-.975098-.549072-1.922852-.530762-2.518066-.276611-.668457.285645-1.593262,1.281982.011719,1.507568,1.131836.15918,2.050781.897705,2.5,1.322998.271484.712158.848145,1.303955,1.878418,1.576416l-.11084,2.450928,5.24707-.005859-.182617-2.739502c.444336-.298584.722656-.71167.931152-1.223877.337891-.828613.958496-1.997314.833008-2.965088.216309-.379639.430664-.806396.630371-1.265869.804199-1.849365,1.28418-3.478516.589844-3.725098Z" /><text class="st2" transform="translate(45.412808 50.877254)"><tspan class="st8"><tspan x="0" y="0">Winnie</tspan></tspan><tspan class="st11"><tspan x="0" y="21.600098">Alex</tspan></tspan><tspan class="st6"><tspan x="0" y="43.199951">Grogg</tspan></tspan><tspan class="st12"><tspan x="0" y="64.800049">Lizzie</tspan></tspan></text><g><circle class="st10" cx="264.494926" cy="93.157442" r="71.520189" /><line class="st5" x1="330.365845" y1="75.349153" x2="226.516544" y2="150.051226" /><g><ellipse class="st12" cx="265.181703" cy="27.324753" rx="19.952462" ry="18.289757" /><path class="st7" d="M263.587953,31.434128h5.164062v1.578125h-7.140625v-11.375h1.976562v9.796875Z" /></g><g><ellipse class="st8" cx="198.225894" cy="74.932272" rx="19.952462" ry="18.289757" /><path class="st7" d="M201.221987,77.807272l1.75-8.5625h1.960938l-2.625,11.375h-1.890625l-2.164062-8.304688-2.210938,8.304688h-1.898438l-2.625-11.375h1.960938l1.765625,8.546875,2.171875-8.546875h1.65625l2.148438,8.5625Z" /></g><g><ellipse class="st6" cx="330.634783" cy="75.652325" rx="19.952462" ry="18.289757" /><path class="st7" d="M335.158221,79.863262c-.119873.15625-.286499.32959-.5.519531-.213623.190186-.488281.367188-.824219.53125s-.739624.302246-1.210938.414062c-.471436.111816-1.02478.167969-1.660156.167969-.713623,0-1.36853-.122559-1.964844-.367188-.596436-.244629-1.108154-.598877-1.535156-1.0625-.427124-.463379-.759155-1.033691-.996094-1.710938-.237061-.677002-.355469-1.450439-.355469-2.320312v-.75c0-.864502.106689-1.636719.320312-2.316406.213501-.679688.520752-1.253906.921875-1.722656.401001-.46875.890625-.825439,1.46875-1.070312.578125-.244629,1.234375-.367188,1.96875-.367188.692627,0,1.296875.089844,1.8125.269531s.950439.431152,1.304688.753906c.354126.322998.632812.707031.835938,1.152344s.338501.933594.40625,1.464844h-1.9375c-.046875-.296875-.125-.570312-.234375-.820312s-.259155-.466064-.449219-.648438c-.190186-.182129-.424561-.325439-.703125-.429688-.278687-.104004-.610718-.15625-.996094-.15625-.463623,0-.865967.085938-1.207031.257812-.341187.171875-.625.42334-.851562.753906-.226562.330811-.395874.737061-.507812,1.21875-.112061.481934-.167969,1.030029-.167969,1.644531v.765625c0,.625.067627,1.178467.203125,1.660156.135376.481934.329346.886719.582031,1.214844.252563.328125.559814.578125.921875.75.361938.171875.772095.257812,1.230469.257812.338501,0,.628906-.021973.871094-.066406.242188-.044189.446533-.100098.613281-.167969.166626-.067627.303345-.141846.410156-.222656.106689-.080566.19397-.157471.261719-.230469v-2.226562h-2.34375v-1.5h4.3125v4.359375Z" /></g><line class="st5" x1="227.783541" y1="151.582286" x2="307.128266" y2="151.582286" /><g><ellipse class="st11" cx="226.142916" cy="150.136973" rx="19.952462" ry="18.289757" /><path class="st7" d="M228.338228,153.176036h-4.40625l-.921875,2.648438h-2.054688l4.296875-11.375h1.773438l4.304688,11.375h-2.0625l-.929688-2.648438ZM224.486666,151.582286h3.296875l-1.648438-4.71875-1.648438,4.71875Z" /></g><g><ellipse class="st9" cx="307.409516" cy="150.472223" rx="19.952462" ry="18.289757" /><path class="st7" d="M307.300141,151.776911h-2.203125v4.382812h-1.976562v-11.375h4c.651001,0,1.231689.074219,1.742188.222656.510376.148438.941406.367188,1.292969.65625s.618408.647217.800781,1.074219c.182251.427246.273438.921875.273438,1.484375,0,.760498-.183594,1.397217-.550781,1.910156-.367188.513184-.878906.907715-1.535156,1.183594l2.554688,4.742188v.101562h-2.117188l-2.28125-4.382812ZM305.097016,150.190973h2.03125c.354126,0,.664062-.046875.929688-.140625s.486938-.223877.664062-.390625c.177002-.166504.309814-.364502.398438-.59375.088501-.229004.132812-.481689.132812-.757812,0-.291504-.041748-.555908-.125-.792969-.083374-.236816-.210938-.439941-.382812-.609375-.171875-.169189-.391968-.299316-.660156-.390625-.268311-.091064-.589844-.136719-.964844-.136719h-2.023438v3.8125Z" /></g></g><path class="st4" d="M131.998142,145.331136c0,6.505145-9.222481,10.898934-19.205914,10.898934s-16.947295-4.393789-16.947295-10.898934,7.875545-10.98146,17.858978-10.98146,18.294231,4.476315,18.294231,10.98146Z" /><text class="st3" transform="translate(45.412808 152.145412)"><tspan x="0" y="0">Ralph</tspan></text><text class="st0" transform="translate(107.84213 152.145412)"><tspan x="0" y="0">2</tspan></text></svg>