<svg id="Layer_3" data-name="Layer 3" xmlns="http://www.w3.org/2000/svg" viewBox="0 0 396 100" width="396" height="100" preserveAspectRatio="none"><defs><style>
      .cls-1 {
        fill: #d44097;
      }

      .cls-2 {
        fill: #f0a3c7;
      }

      .cls-3 {
        fill: #ed1a79;
      }

      .cls-4 {
        fill: #83a2c9;
      }

      .cls-5 {
        fill: #2c2b2f;
      }

      .cls-6 {
        fill: #d2c352;
      }

      .cls-7 {
        fill: #33a0c5;
      }

      .cls-8 {
        fill: #fff;
      }

      .cls-9 {
        fill: #42283e;
      }

      .cls-10 {
        fill: #fcf1a5;
      }

      .cls-11 {
        fill: #e174ad;
      }

      .cls-12 {
        fill: #c65f99;
      }

      .cls-13 {
        fill: #5a7ca8;
      }

      .cls-14 {
        stroke: #e7c322;
      }

      .cls-14, .cls-15 {
        fill: none;
        stroke-linecap: round;
        stroke-linejoin: round;
        stroke-width: 2px;
      }

      .cls-16 {
        fill: #aa206f;
      }

      .cls-17 {
        fill: #24749d;
      }

      .cls-18 {
        fill: #3a5c84;
      }

      .cls-19 {
        fill: #333;
      }

      .cls-15 {
        stroke: #5e457f;
      }

      .cls-20 {
        fill: #fcdf6a;
      }

      .cls-21 {
        fill: #e8e8e8;
      }
    </style></defs><g><polygon class="cls-5" points="299.15 50.95 299.15 60.22 249.17 60.22 249.17 69.48 199.19 69.48 199.19 78.74 149.21 78.74 149.21 97.26 349.13 97.26 349.13 60.28 349.13 60.22 349.13 50.95 299.15 50.95" /><path class="cls-8" d="M175.4,93.74h-1.45v-9.63l-2.91,1.07v-1.31l4.14-1.55h.23v11.43Z" /><path class="cls-8" d="M228.09,85.3h-7.45v-1.04l3.94-4.38c.58-.66.99-1.2,1.21-1.61.22-.41.33-.84.33-1.29,0-.59-.18-1.08-.54-1.46-.36-.38-.84-.57-1.44-.57-.72,0-1.28.2-1.68.61-.4.41-.6.98-.6,1.71h-1.45c0-1.05.34-1.89,1.01-2.54.67-.65,1.58-.97,2.71-.97,1.06,0,1.89.28,2.51.83.61.55.92,1.29.92,2.21,0,1.12-.71,2.45-2.14,4l-3.05,3.3h5.71v1.18Z" /><path class="cls-8" d="M272.71,70.52h1.09c.68-.01,1.22-.19,1.61-.54.39-.35.59-.82.59-1.41,0-1.33-.66-2-1.99-2-.62,0-1.12.18-1.5.54-.37.36-.56.83-.56,1.42h-1.45c0-.9.33-1.65.99-2.25.66-.6,1.5-.89,2.51-.89,1.07,0,1.91.28,2.52.85.61.57.91,1.36.91,2.37,0,.49-.16.97-.48,1.44-.32.46-.76.81-1.31,1.04.62.2,1.11.53,1.45.98.34.46.51,1.02.51,1.68,0,1.02-.33,1.83-1,2.43-.67.6-1.53.9-2.6.9s-1.94-.29-2.61-.87c-.67-.58-1-1.34-1-2.29h1.45c0,.6.2,1.08.59,1.44s.91.54,1.57.54c.7,0,1.23-.18,1.6-.55.37-.36.55-.89.55-1.57s-.2-1.17-.61-1.52c-.41-.35-.99-.54-1.76-.55h-1.09v-1.18Z" /><path class="cls-8" d="M326.69,64.53h1.58v1.18h-1.58v2.64h-1.45v-2.64h-5.18v-.85l5.09-7.88h1.54v7.55ZM321.7,64.53h3.54v-5.58l-.17.31-3.37,5.27Z" /></g><path class="cls-14" d="M222.19,62.48s5.03-36.57,39.49-45.19c34.87-8.72,61.46,8.27,67.21,32.59" /><path class="cls-14" d="M127.87,96.8s-5.47-39.96,36.11-52.23c35.04-10.33,58.41,18.12,58.21,17.9" /><path class="cls-15" d="M323.43,50.13c-6.21-17.89-29.83-33.23-58.59-25.36-34.26,9.39-40.97,44.12-40.97,44.12,0,0-12.42-12.99-28.83-9.44-16.41,3.55-21.73,17.73-21.73,17.73,0,0-9.65-10.43-26.38-3.54-15.08,6.21-13.08,22.91-13.08,22.91" /><g><path class="cls-7" d="M86.73,49.81s1.27,2.9-.31,3.5c-1.58.59-4.52-1.66-5.31-1.76s-2.45-.72-2.45-.72c0,0-.66-1.08-.78-1.37s-.11-2.44-.08-2.64.6-1.31.91-1.87c.31-.56,2.93-2.4,3.07-2.41s1.09.17,1.09.17l2.11,3.09,1.73,4Z" /><path class="cls-20" d="M87.13,52.23s.78-7.49-5.13-10.97l-1.22,3.07s5.09,2.21,6.35,7.91Z" /><path class="cls-17" d="M80.68,57s0,1.17-.89,1.2-3.14-2.24-3.24-2.58-2.26-4.98-2.22-5.26.63-1.37.92-1.48,2.69.13,2.69.13l1.08.73.93,2.35s1.12,2.79.73,4.89Z" /><path class="cls-17" d="M74.59,61.43s-.34.82-1.38.42-3.37-3.01-3.72-4.12-.41-2.92-.49-3.28-.82-3.33-.77-3.51,1.37-1.05,1.63-1.12,4,.2,4.23.22.97.33.97.33l.8,3.56s-.65,5.7-1.27,7.5Z" /><path class="cls-17" d="M70.49,59.24s.06,3.41-.9,3.67-4.78-1.41-5.57-5c-.79-3.59-.17-7.21-.17-7.21l4.21.31,1.78,2.27s.77,4.95.65,5.96Z" /><path class="cls-6" d="M69.31,51.07s1.9,2.47,1.18,8.17c0,0-.55-5.99-3.34-8l2.17-.16Z" /><path class="cls-17" d="M81.22,55.76s.06,3.41-.9,3.67c-.96.26-4.78-1.41-5.57-5-.79-3.59-.17-7.21-.17-7.21l4.21.31,1.78,2.27s.77,4.95.65,5.96Z" /><path class="cls-6" d="M79.49,46.72s2.61,3.09,1.63,9.18c0,0-.31-6.26-3.26-8.04l1.63-1.14Z" /><path class="cls-6" d="M75.79,49.04s1.03,3.44.38,6.82c-.65,3.38-1.57,5.58-1.57,5.58,0,0,1.29-7.59-1.05-11.17l2.24-1.23Z" /><polygon class="cls-19" points="64.34 56.37 67.6 60.87 70.41 58.17 65.46 55.14 64.34 56.37" /><path class="cls-7" d="M47.72,7.2s-.53,2.1.21,3.72c.75,1.62,2.87,2.58,2.87,2.58l2.23-2.91-.89-2.46-4.43-.93Z" /><path class="cls-20" d="M59.59,9.95s-9.27-4.59-11.66-2.91c-1.49,1.04,5.87,8.11,6.58,9.02s3.7,2.56,4.16,2.61,3.11-1.4,3.54-2.05,1.91-2.25,1.87-2.84c-.05-.59-4.49-3.83-4.49-3.83Z" /><path class="cls-17" d="M48.35,61.37s.4,1.31,1.94,1.35c1.54.04,3.13-3.97,3.13-3.97l.51-6.24-2.48-2.35-1.99,1.86-1.04,4.08s-.87,4.19-.06,5.27Z" /><path class="cls-17" d="M51.88,58.29s-.08,1.86.99,2.26,2.14-.13,3.43-1.32c1.29-1.2,3.27-2.5,3.35-2.73s2.23-6.69,2.23-6.69c0,0-2.3-1.39-2.59-1.66s-2.41-.52-2.41-.52l-1.71.26-2.04,3.44-.94,4.74-.31,2.2Z" /><path class="cls-6" d="M56.36,48.13c-.03-.14-3.93,5.97-4.47,10.16,0,0-1.17-3.87-.24-6.98.93-3.11,3.22-4.71,3.22-4.71l1.5,1.53Z" /><path class="cls-6" d="M50.45,53.08s-1.16,2.34-1.54,4.34c-.38,2.01-.56,3.95-.56,3.95,0,0-1.68-1.6-1-4.93.67-3.33,1.68-4.33,1.68-4.33l1.43.96Z" /><path class="cls-17" d="M43.68,59s.45.94,1.44.87,3.59-4.29,4.94-5.81,3.75-4.04,4.39-4.75c.65-.72,1.57-2.61,1.57-2.61l-3.49-1.67-4.59.53-3.71,4.13-.62,4.41.07,4.91Z" /><path class="cls-7" d="M32.06,47.96s.09.8,1.11.88,4.68-2.48,4.68-2.48c0,0,4.15-2.68,4.38-3.12s-1.17-3.92-1.17-3.92l-3.72,1.43-3.53,2.24-.83,1.86-.93,3.11Z" /><path class="cls-20" d="M35.83,38.6s-2.37,1.45-3.16,5.04c-.8,3.59-.61,4.32-.61,4.32,0,0,1.62-1.86,2.59-2.54.97-.68,5.38-3.61,5.63-3.81s1.93-3.32,2.01-3.54c.07-.22-1.24-1.78-1.24-1.78l-2.17.21-3.05,2.11Z" /><path class="cls-7" d="M29.32,34.47s.91.57,1.57.51,1.22-.09,3.56-.09c2.33,0,7.8-.8,7.95-.92s1.78-2.4,1.82-2.77-2.34-1.91-2.17-2.17-6.26-.7-6.26-.7l-2.84,1.11-3.04,2.44-.59,2.59Z" /><path class="cls-20" d="M35.93,26.34s-3.81,1.46-5.52,4.06-1.27,4-1.09,4.07,1.28-.59,2.89-1.52c1.6-.93,2.97-2.11,4.88-2.55,1.85-.43,7.25-.17,7.25-.17,0,0,.45-2.65.44-2.89s-1.67-1.69-1.67-1.69c0,0-2.74-.51-2.88-.53s-4.3,1.22-4.3,1.22Z" /><path class="cls-7" d="M30.82,39.13s-.13.73.7.83,5.63-.64,7.07-.61c1.44.03,5.42-.01,5.42-.01,0,0,2.54-2.5,2.6-2.68s-.14-2.4-.14-2.4l-4.04-.95-3.7.12-2.06.41-5.85,5.28Z" /><path class="cls-20" d="M42.05,29.03s-3.88.47-7.14,3.49c-3.25,3.02-4.24,5.42-4.23,6.17,0,.75.54.58,1.26.38.72-.19,6.43-3.44,9.71-3.56s6.8.11,6.8.11c0,0,2.38-1.58,2.45-1.81s-1.24-3.32-1.71-3.66-5.23-2.77-5.23-2.77l-1.92,1.64Z" /><path class="cls-17" d="M38.64,58.17s.48.66,1,.59,1.52-1.41,2.31-2.15c.79-.75,2.4-2.14,2.52-2.32s2.04-4.99,2.25-5.61.14-2.78.14-2.78l-2.55-.16-3.03,1.55-2.37,3.03-.78,5.37.5,2.49Z" /><path class="cls-6" d="M37.64,50.53s-.67,3.28-.04,5.41c.63,2.13,1.04,2.22,1.04,2.22,0,0-.53-4.22,4.59-10,0,0-4.97,1-5.6,2.37Z" /><path class="cls-6" d="M43.68,59s.18-4.69,2.32-8.13c2.13-3.43,4.61-5.05,4.61-5.05l-4.5.17s-2.92,1.38-3.27,5.49c-.35,4.11.21,6.51.83,7.52Z" /><path class="cls-7" d="M33.75,22.35s.18.44.95.67,3.41.73,6.54,1.52c3.13.79,6.79,1.74,6.81,1.6s.06-3.26.19-3.2-7.41-4.05-7.41-4.05c0,0-1.9.24-2.41.23s-2.73.61-2.98.77-1.69,2.46-1.69,2.46Z" /><path class="cls-20" d="M45.67,15.83s-1.74-.3-5.06.94c-3.32,1.24-5.63,2.97-6.3,3.92s-.57,1.66-.57,1.66c0,0,.77,0,1.3-.13s2.08-.3,3.72.03c1.64.33,6.76,1.87,6.96,1.8s6.13,1.47,6.28,1.35,2.63-1.32,2.66-2.34c.03-1.02-.32-4.8-.36-5.22s-1.64-1.5-1.64-1.5c0,0-1.61-.24-2.47-.43s-4.52-.07-4.52-.07Z" /><path class="cls-7" d="M83.37,19.13s-2.59.58-4.7,3.04l-1.94,5.74s2.78-.18,2.75-.37,1.61-.98,1.96-1.54c.35-.57,1.55-2.8,1.74-3.25.19-.44.2-3.62.2-3.62Z" /><path class="cls-20" d="M83.37,19.13s1.47.01,1.88,3.02c.3,2.17-1.06,6.59-1.63,8.25-.57,1.66-2.52,3.15-2.52,3.15l-3.27-1.08-.95-1.85-.07-2.2s.9-2.04,1.77-3.48c.87-1.44,2.04-5.03,4.8-5.82Z" /><path class="cls-7" d="M73.59,7.73s-.9-.11-1.41,2.42c-.32,1.6-1.19,4.29-1.19,4.29l-.29,6.41s2.66,1.95,2.8,1.97,1.59-.79,1.9-2.25c.31-1.46.68-4.17.61-5.57-.07-1.41-.42-3.97-.37-4.34s-2.06-2.93-2.06-2.93Z" /><path class="cls-20" d="M77.27,26.9s1.98-1.35,2.03-5.69c.05-4.33-.54-8.79-2.38-11.39-1.84-2.6-3.18-3.08-3.58-1.73-.39,1.35-.16,6.05-.17,7.35s-.72,9.58-.72,9.58l3.68,2.02,1.14-.15Z" /><path class="cls-7" d="M55.62,2.45s-.85.46-.62,1.7c.23,1.24,1.35,5.9,1.68,8.27.33,2.37.7,8.25.7,8.25l3.71.95s1.42-2.12,1.51-2.86.16-7.26.02-8.03c-.14-.76-2.72-3.82-2.91-4.22-.19-.4-4.09-4.08-4.09-4.08Z" /><path class="cls-7" d="M43.49,12.21s-.66.44-.04,1.54c.62,1.1,1.88,2.23,3.22,3.98,1.33,1.75,3.23,4.26,3.78,5.49.55,1.23,1.8,4.13,1.8,4.13,0,0,3.1,2.61,3.36,2.41s2.13-2.97,2.22-4.17c.1-1.2-1.12-6.71-1.66-7.62-.55-.9-5.43-4.57-6.19-4.84s-3.56-1.45-3.69-1.51-2.78.6-2.78.6Z" /><path class="cls-20" d="M64.67,23.68s-.92-4.82-4.58-7.78c-3.66-2.95-6.96-4.7-10.18-5.04s-5.3-.16-6.14.58c-.83.74-.07,1.39.46,2.06.53.67,4.49,3.85,5.74,5.53,1.25,1.69,3.71,8.05,3.71,8.05,0,0,6.03,1.93,6.17,1.85s1.52-.24,1.99-.65,2.52-2.36,2.82-2.56.01-2.05.01-2.05Z" /><path class="cls-20" d="M72.7,22.91s1.5-9.48-5.61-15.69c-7.1-6.21-9.14-5.19-9.92-5.28s-1.55.52-1.55.52c0,0,.43,2.45.83,3.39.4.93,1.98,5.58,2.27,7.43.29,1.86.68,6.89.68,6.89l4.05,5.19s3.66-.13,3.9-.19,2.31-.19,2.6-.25,2.9-1.66,2.9-1.66l-.15-.34Z" /><path class="cls-7" d="M91.97,43.02s-.16,1.75-2.05,1.58c-1.89-.18-4.66-.83-5.89-.7-1.23.13-2.8.41-2.8.41l1.37-4.88s3.96.1,5.73.87c1.78.77,3.64,2.72,3.64,2.72Z" /><path class="cls-8" d="M79.04,31.64s1.37,1.42.96,3.33c0,0-.93.78-1.45.43s-.53-1.79-.5-2.07,1-1.7,1-1.7Z" /><path class="cls-8" d="M73.56,31.44s.46-3.03,2.27-2.92c1.81.11,1.86,2.9,1.86,2.9,0,0-.43-2.22-1.73-2.13-1.59.11-2.41,2.15-2.41,2.15Z" /><path class="cls-20" d="M82.54,39.9s2.56-.06,4.36.66c1.83.73,5.07,2.47,5.07,2.47,0,0,.81-4.48-4.39-8.27-4.12-3.01-6.77-3.93-8.99-4.05l-.8,4.81s2.57,1.15,2.8,1.22,1.34.91,1.34.91l.62,2.27Z" /><path class="cls-11" d="M65.22,51.13l-.58,5.68s-.99.22-2.32-.36c-1.33-.58-2.39-1.18-2.39-1.18,0,0,1.27-3.8,1.28-5.44l4.01,1.3Z" /><path class="cls-9" d="M80.66,37.67s-3.36,1.61-6.65,1.73c-3.28.12-13.48-.43-15,1.72,0,0,3.76.96,6.13,2.27,2.37,1.31,9.23,2.03,13.07-.78l2.45-4.94Z" /><path class="cls-7" d="M35.73,24.91s-.14,1.12,1.03,1.91,5.78,3.25,7.46,4.39c1.69,1.13,4.1,3.61,4.1,3.61,0,0,2.33-1.17,2.3-1.31s-1.13-3.03-1.42-3.34-3.73-2.4-3.99-2.57-1.16-.46-2.36-.93-2.16-.68-2.48-.76-4.64-.98-4.64-.98Z" /><path class="cls-20" d="M57.89,27.73s-2.79-4.02-9.65-4.79c-6.86-.77-9.78.24-11.09.64-1.31.4-1.8,1.2-1.17,1.79.63.59,2.85,1.77,4.86,2.57,2.01.8,3.71,1,5.34,2.17s3.58,3.65,3.58,3.65c0,0,4.13.16,4.44-.08s3.65-1.62,4-2.28c.36-.66,1.29-3.02,1.29-3.02l-1.6-.66Z" /><path class="cls-2" d="M69.15,20.36c2.63.24,3.55,2.54,3.55,2.54,0,0,3.57-.56,3.87,3.21,0,0,1.94-.19,2.91,1.42s-.65,3.94-.82,5.36c-.17,1.43-.14,1.99.22,2.08s1.63.34,2.48.68,2.05,1.18,1.88,3.86c-.18,2.69-1.11,5.46-3.4,7.85-2.29,2.39-7.54,4.94-11.17,4.84-3.37-.1-9.63-.66-14.62-5.08-.2-.17-.6-.16-.79-.34-.18-.17-.16-.55-.33-.74l-2.17-13.14s-.06-1.08,1.04-1.28c0,0,.91-4.51,4.86-4,0,0,.72-6.5,6.71-4.2,0,0,2.48-3.37,5.8-3.07Z" /><path class="cls-7" d="M36.68,50.37s1.44,1.66,2.71,1.12c1.28-.55,4.57-3.52,7.44-4.07,2.87-.55,6.49-1.56,6.49-1.56,0,0,2.98-2.73,2.79-6.58l-1.69-1.09-8.35,1.11-6.52,6.6-2.86,4.47Z" /><path class="cls-20" d="M56.1,39.28s-5.39.99-9.82,4.11c-4.43,3.11-6.49,5.95-7.62,6.42-1.13.47-1.98.56-1.98.56,0,0-.59-8.42,6.66-14.05,5.85-4.54,7.84-3.5,7.84-3.5,0,0,4.92,1.42,4.93,6.47Z" /><path class="cls-12" d="M72.09,36.6s.64-.38,1.12.45c.48.83.15,1.4-.27,1.37s-.7-.43-.13-1.1c0,0-.25-.68-.72-.72Z" /><path class="cls-12" d="M71.02,36.45s-.81.52-.86,1.19c0,0,.4.19.34.64s-.69.64-.94.41.2-2.23,1.46-2.24Z" /><ellipse class="cls-10" cx="75.53" cy="33" rx="3.74" ry="2.26" transform="translate(33.85 104.12) rotate(-83.23)" /><path class="cls-19" d="M77.26,30.2s.72-1.66.27-2.58c0,0-.16,1.17-.63,1.59l-.62-.37s.51-1.32-.01-2.1c0,0-.1,1.76-.67,2.11l-.53.2s.3-1.35-.27-2.04c0,0-.1,2.47-.57,3.15,1.51-1.34,2.3-.94,3.02.04Z" /><path class="cls-19" d="M68.65,31.1s.18-.47-.36-1.3c0,0,.84-1.64.23-2.58,0,0-.12,1.86-.91,2.33l-.57-.05s.34-1.43-.48-2.19c0,0,.12,1.68-.3,2.27l-.71.35s.25-1.07-.39-1.87c0,0,.1,1.48-.3,2.54,0,0-.38,1.14-.3,1.52,0,0,.89-2.06,2.28-2.09,1.39-.03,1.82,1.07,1.82,1.07Z" /><ellipse class="cls-19" cx="76.13" cy="33.36" rx="2.86" ry="1.56" transform="translate(38.69 107.57) rotate(-86.89)" /><ellipse class="cls-8" cx="76.01" cy="31.99" rx="1.23" ry=".88" transform="translate(11.28 83.09) rotate(-61.12)" /><path class="cls-6" d="M72.7,22.91c.03-.89.1-2.69.14-3.58.28,1.17.23,2.43-.14,3.58h0Z" /><path class="cls-6" d="M58.62,14.7c2.47,1.86,4.82,4.36,5.56,7.45-1.06-2.98-3.3-5.32-5.56-7.45h0Z" /><path class="cls-6" d="M40.61,22.76c5.5-.38,11.61-.07,16.26,3.21-4.8-3.01-10.73-3.28-16.26-3.21h0Z" /><path class="cls-6" d="M79.24,30.94c1.46,0,2.91.43,4.21,1.06-1.43-.32-2.79-.73-4.21-1.06h0Z" /><path class="cls-6" d="M37.7,30.5c1.16-.87,2.76-1.14,4.15-.77-1.44-.03-2.83.2-4.15.77h0Z" /><path class="cls-6" d="M51.02,32.71c-2.71-.02-5.08,1.57-7.16,3.14,0,0,.73-.7.73-.7,1.76-1.47,4.06-2.8,6.43-2.45h0Z" /><path class="cls-6" d="M56.75,13.46c-2.11-1.27-4.45-2.04-6.85-2.59,2.45.22,4.92,1.04,6.85,2.59h0Z" /><path class="cls-12" d="M55.37,34.43c-.63-1.57-1.97-2.44-3.59-2.81,1.68-.21,3.51,1.07,3.59,2.81h0Z" /><path class="cls-12" d="M78.62,42.73c-.85,1.96-2.39,4.04-4.59,4.5,2.01-.96,3.28-2.77,4.59-4.5h0Z" /><path class="cls-12" d="M75.97,45.01c-1.13,1.59-2.91,2.82-4.85,3.14,1.85-.64,3.47-1.77,4.85-3.14h0Z" /><path class="cls-12" d="M71.26,47.05c-.7.35-1.43.92-2.26.71.69-.29,1.56-.48,2.26-.71h0Z" /><path class="cls-12" d="M55.86,45.23c-.54,1.43-2.65,3.39-3.08.76.27.39.53,1.02,1.04.97.84-.3,1.37-1.1,2.04-1.73h0Z" /><ellipse class="cls-10" cx="66.7" cy="33.62" rx="3.68" ry="2.47" transform="translate(24.73 95.41) rotate(-82.56)" /><ellipse class="cls-19" cx="67.41" cy="33.94" rx="2.88" ry="1.63" transform="translate(31.01 100.06) rotate(-87.89)" /><ellipse class="cls-8" cx="67.3" cy="32.55" rx="1.23" ry=".88" transform="translate(6.4 75.91) rotate(-61.26)" /><path class="cls-2" d="M68,88.09s-.56,3.58-2,6.65c0,0,6.88-.23,8.55.42,1.67.65,1.58,1.72-.37,2.56-1.95.84-8,.19-10.79-1.39l-.19-9.07,4.65.19.14.65Z" /><path class="cls-2" d="M63.39,96.32s-4.88,2.14-8.97,1.67c-4.09-.46-4.56-1.12-2.88-2.23,1.67-1.12,8.04-.98,9.2-.74,0,0-2.32-3.81-2.37-7.16l4.83-.6.19,9.07Z" /><path class="cls-12" d="M57.16,96.09c-1.06.2-2.11.4-2.87,1.17-.29.26-.23.57.13.74-.18-.01-.39-.08-.49-.3-.08-.24.04-.45.14-.61.69-.93,2.02-1.22,3.09-.99h0Z" /><path class="cls-12" d="M54.56,95.85c-.99.4-2.84.35-2.88,1.72-.59-1.5,1.85-1.92,2.88-1.72h0Z" /><path class="cls-12" d="M72.27,98.04c.02-1.32-1.4-1.35-2.37-1.67,1.01-.31,3.03.32,2.37,1.67h0Z" /><path class="cls-12" d="M74.18,97.71c.2-1.59-1.69-1.69-2.84-2,1.2-.32,3.66.36,2.84,2h0Z" /><path class="cls-12" d="M63.39,96.32c-.31-3.64-.38-7.28-.19-10.93.31,3.64.38,7.28.19,10.93h0Z" /><path class="cls-13" d="M63.3,86s4.51.21,7.97-1.32l-2.25-11.56-4.32.14-8.32-.28s-2,8.69-2.23,11.44c-.02.25-.04.49-.06.71,1.07.33,4.69,1.29,9.22.87Z" /><path class="cls-19" d="M66.9,59.56s1.5,6.82,1.82,10.07c.32,3.25.36,3.47.36,3.47,0,0-4.82.68-7.79.57-2.96-.11-4.89-.43-4.89-.43,0,0,1.61-9.18,1.93-11.22s.65-2.83.65-2.83l-2.12,1.85-2.64-3.16s4.94-2.6,6.07-3.05c1.46,1.84,3.15,1.95,4.65.02l1.96,4.72Z" /><path class="cls-21" d="M60.21,54.35l-.63.74s.9,1.8,3.06,1.8c1.2,0,2.64-.59,2.96-1.83l-.68-.65c-.37.61-.97,1.63-2.33,1.57-1.24-.06-1.92-.98-2.39-1.63Z" /><path class="cls-4" d="M63.21,87.91s4.79,1.53,8.55-.7l-.49-2.52c-3.46,1.52-7.97,1.32-7.97,1.32l-.09,1.91Z" /><path class="cls-4" d="M63.3,86c-4.52.42-8.14-.54-9.22-.87-.17,2.19-.13,2.96-.13,2.96,0,0,5.86,1.35,9.25-.19l.09-1.91Z" /><path d="M59.96,72c2.19-.12,4.41-.04,6.55-.56-2.05.84-4.38.77-6.55.56h0Z" /><path d="M64,68.84c-1.3.26-2.79.04-3.86-.79,1.23.53,2.52.71,3.86.79h0Z" /><path d="M61.12,70.66c1.52.08,3.2.36,4.65-.23-1.34.92-3.17.65-4.65.23h0Z" /><path class="cls-18" d="M65.72,75.47c-1.22.33-2.53,1.19-3.78.88.54-.41,1.18-.56,1.84-.63.62-.06,1.39-.32,1.94-.25h0Z" /><path class="cls-18" d="M63.21,87.91c-.2-3.95-.16-7.91.14-11.85.2,3.95.16,7.91-.14,11.85h0Z" /><path class="cls-2" d="M55.91,65.73l1.3,1.49s.88-1.53,1.63-1.39,2.06,1.58,1.95,3.44c-.05.79-.46.88-.65.65-.19-.23-.74-.84-.74-.84,0,0,.98,2.6.51,3.49s-1.86-1.72-1.86-1.72c0,0,.46,2.74-.05,3.07s-1.26-1.12-1.26-1.12c0,0-.33.51-1.12.09s-1.02-.93-1.02-.93l-2.6-3.25s1.21-2.88,3.91-2.98Z" /><path class="cls-1" d="M53.75,58.12s-4.42,2.16-4.64,3.62c-.21,1.46,3.07,7.25,3.07,7.25,0,0,1.21-2.71,3.73-3.26l-1.34-2.7,2.86-2.43-2.57-3-1.11.52Z" /><path class="cls-16" d="M54.77,62.8c-.73-.65-1.59-1.52-2.28-2.04.04-.03.02-.06.03-.04.11.3.38.59.57.86,0,0,.91,1.15.91,1.15-.27-.23-2.46-2.23-1.45-2.18.91.56,1.55,1.43,2.21,2.25h0Z" /><path class="cls-16" d="M50.47,61.82c1.28.11,2.64.38,3.67,1.19-1.19-.51-2.45-.75-3.67-1.19h0Z" /><path class="cls-16" d="M52.05,66.38c.8-1,2.12-1.81,3.44-1.63-1.3.17-2.38.87-3.44,1.63h0Z" /><path class="cls-16" d="M51.22,65.5c.84-.69,1.98-1.03,3.07-.95-1.06.26-2.05.55-3.07.95h0Z" /><path class="cls-21" d="M55.01,57.49l-1.31.63s.68.37,1.49,1.31c.43.49,1.06,1.26,1.31,1.96l.98-.83s-1.17-2.06-2.48-3.06Z" /><path class="cls-12" d="M55.29,70.42c.33-1.44,1.03-2.97,2.32-3.79-.94,1.19-1.51,2.51-2.32,3.79h0Z" /><path class="cls-12" d="M58.22,67.53c.83.62,1.49,1.44,1.93,2.38-.84-.64-1.47-1.42-1.93-2.38h0Z" /><path class="cls-12" d="M57.52,69.47c.65,1.1,1.08,2.21,1.91,3.2-1.17-.59-1.76-1.96-1.91-3.2h0Z" /><path class="cls-12" d="M56.23,70.03c.3,1.45.51,2.91,1.61,3.98-1.45-.64-1.86-2.55-1.61-3.98h0Z" /><path class="cls-3" d="M63.14,61.77s.08-2.1,1.87-1.71c1.79.39-1.79,4.99-1.79,4.99,0,0-3.22-3.76-2.57-4.52,1.01-1.17,2.49,1.25,2.49,1.25Z" /><path d="M66.47,57.87c.91,3.25,1.63,6.56,1.99,9.91-.69-3.3-1.41-6.59-1.99-9.91h0Z" /><path class="cls-12" d="M59.98,40.14c2.97,2.63,7.01,1.82,10.57,1.25,3.64-.65,7.23-1.79,10.96-1.85,0,0,0,.05,0,.05-3.66.56-7.21,1.68-10.9,2.17-3.53.49-7.96,1.19-10.63-1.62h0Z" /><path class="cls-12" d="M58.45,41.2c.1-1.06,1.28-1.7,2.26-1.7-.77.64-1.58.97-2.26,1.7h0Z" /><path class="cls-2" d="M68.25,65.94s-.52-.52-1.2.3-1.95,3.67-1.42,3.97,2.02-1.2,2.02-1.2c0,0-1.42,3.37-.75,3.59s1.87-1.72,1.87-1.72c0,0-1.05,3.07-.37,3.14s1.2-1.8,1.2-1.8c0,0,.6.82.97.75s1.87-4.12,2.32-5.84l-.75-2.02-2.54-.67-.97,1.87-.37-.37Z" /><path class="cls-21" d="M67.04,60.43c.38-.56,1.82-2.29,2.72-2.73l1.26.83s-.87.2-2.03,1.44c-.45.48-.86,1.09-1.09,1.8l-.69-.85s-.23-.41-.17-.5Z" /><path class="cls-1" d="M70.34,58.38s3.37,1.95,4.27,3.52l-1.87,6.14s-.67-2.92-3.74-2.54l.52-2.25-2.32-2.17,3.14-2.69Z" /><path class="cls-12" d="M67.87,65.71c2.1.68,2.71,3.35,2.77,5.31-.58-1.86-.99-4.21-2.77-5.31h0Z" /><path class="cls-12" d="M68.54,67.52c-.35,1.29-1.44,2.42-2.75,2.75,1.07-.79,1.93-1.69,2.75-2.75h0Z" /><path class="cls-12" d="M69.71,69.45c-.43,1.26-1.18,2.63-2.47,3.16.98-.94,1.59-2.12,2.47-3.16h0Z" /><path class="cls-12" d="M69.85,71.78c.12.92-.42,2.05-1.37,2.26.67-.68.96-1.42,1.37-2.26h0Z" /></g></svg>