<svg id="Layer_3" xmlns="http://www.w3.org/2000/svg" version="1.1" viewBox="0 0 396 31.764045" width="396" height="31.764045" preserveAspectRatio="none"><defs><style>
      .st0 {
        fill: #7a5135;
      }

      .st1 {
        fill: #d44097;
      }

      .st2 {
        fill: none;
        stroke: #41853f;
        stroke-linecap: round;
        stroke-miterlimit: 10;
        stroke-width: 2px;
      }

      .st3 {
        fill: #f3cf96;
        stroke: #2c2b2f;
        stroke-width: 1.8px;
      }
    </style></defs><ellipse class="st3" cx="54.000023" cy="13.860641" rx="10.763988" ry="10.850391" /><ellipse class="st3" cx="85.999937" cy="13.860641" rx="10.763988" ry="10.850391" /><ellipse class="st3" cx="118.00009" cy="13.860641" rx="10.763988" ry="10.850391" /><ellipse class="st3" cx="150.000023" cy="13.860641" rx="10.763988" ry="10.850391" /><ellipse class="st3" cx="181.999915" cy="13.860641" rx="10.763974" ry="10.850391" /><ellipse class="st3" cx="214.000085" cy="13.860641" rx="10.763974" ry="10.850391" /><ellipse class="st3" cx="246" cy="13.860641" rx="10.763974" ry="10.850391" /><ellipse class="st3" cx="277.999915" cy="13.860641" rx="10.763974" ry="10.850391" /><ellipse class="st3" cx="310.000085" cy="13.860641" rx="10.763974" ry="10.850391" /><ellipse class="st3" cx="342" cy="13.860641" rx="10.763974" ry="10.850391" /><path class="st0" d="M54.170721,16.58447c.217676,0,.421777-.033398.612305-.100195.19043-.066797.35625-.160742.497266-.282031.141016-.121094.254785-.26582.341406-.43418.086523-.168164.134766-.351172.144727-.549219h1.699609c-.014844.385937-.110156.749609-.285742,1.091016-.175684.341406-.410742.639648-.705078.894336-.294434.254883-.637109.455273-1.02793.601172-.390918.145898-.808984.218945-1.254297.218945-.618555,0-1.156641-.106445-1.614258-.319141-.457715-.212695-.838672-.502148-1.142969-.868359-.304297-.366016-.530664-.794141-.679102-1.283984s-.222656-1.009375-.222656-1.558594v-.259766c0-.549219.074219-1.06875.222656-1.558594s.374805-.918945.679102-1.287695c.304297-.368555.683984-.65918,1.139258-.87207.455176-.212695.991992-.319141,1.610547-.319141.484863,0,.926465.074219,1.324805.222656.398242.148438.739648.35625,1.024219.623438.284473.267187.507129.586328.667969.957422.160742.371094.248633.779297.263477,1.224609h-1.699609c-.009961-.212695-.053223-.415625-.129883-.608594-.076758-.192969-.183105-.361133-.319141-.504687-.136133-.143359-.300586-.257227-.493555-.341406-.192969-.083984-.410742-.126172-.653125-.126172-.366211,0-.667969.075586-.905469.226367-.2375.150977-.425586.347656-.564062.590039-.138574.242578-.233789.519531-.285742.83125s-.07793.625977-.07793.942578v.259766c0,.326562.025977.644531.07793.953711.051953.309375.147168.585156.285742.827539.138477.242578.325293.437891.560352.586328.234961.148438.538086.222656.90918.222656Z" /><path class="st0" d="M86.170636,16.58447c.217676,0,.421777-.033398.612305-.100195.19043-.066797.35625-.160742.497266-.282031.141016-.121094.254785-.26582.341406-.43418.086523-.168164.134766-.351172.144727-.549219h1.699609c-.014844.385937-.110156.749609-.285742,1.091016-.175684.341406-.410742.639648-.705078.894336-.294434.254883-.637109.455273-1.02793.601172-.390918.145898-.808984.218945-1.254297.218945-.618555,0-1.156641-.106445-1.614258-.319141-.457715-.212695-.838672-.502148-1.142969-.868359-.304297-.366016-.530664-.794141-.679102-1.283984s-.222656-1.009375-.222656-1.558594v-.259766c0-.549219.074219-1.06875.222656-1.558594s.374805-.918945.679102-1.287695c.304297-.368555.683984-.65918,1.139258-.87207.455176-.212695.991992-.319141,1.610547-.319141.484863,0,.926465.074219,1.324805.222656.398242.148438.739648.35625,1.024219.623438.284473.267187.507129.586328.667969.957422.160742.371094.248633.779297.263477,1.224609h-1.699609c-.009961-.212695-.053223-.415625-.129883-.608594-.076758-.192969-.183105-.361133-.319141-.504687-.136133-.143359-.300586-.257227-.493555-.341406-.192969-.083984-.410742-.126172-.653125-.126172-.366211,0-.667969.075586-.905469.226367-.2375.150977-.425586.347656-.564062.590039-.138574.242578-.233789.519531-.285742.83125s-.07793.625977-.07793.942578v.259766c0,.326562.025977.644531.07793.953711.051953.309375.147168.585156.285742.827539.138477.242578.325293.437891.560352.586328.234961.148438.538086.222656.90918.222656Z" /><path class="st0" d="M118.170789,16.58447c.217676,0,.421777-.033398.612305-.100195.19043-.066797.35625-.160742.497266-.282031.141016-.121094.254785-.26582.341406-.43418.086523-.168164.134766-.351172.144727-.549219h1.699609c-.014844.385937-.110156.749609-.285742,1.091016-.175684.341406-.410742.639648-.705078.894336-.294434.254883-.637109.455273-1.02793.601172-.390918.145898-.808984.218945-1.254297.218945-.618555,0-1.156641-.106445-1.614258-.319141-.457715-.212695-.838672-.502148-1.142969-.868359-.304297-.366016-.530664-.794141-.679102-1.283984s-.222656-1.009375-.222656-1.558594v-.259766c0-.549219.074219-1.06875.222656-1.558594s.374805-.918945.679102-1.287695c.304297-.368555.683984-.65918,1.139258-.87207.455176-.212695.991992-.319141,1.610547-.319141.484863,0,.926465.074219,1.324805.222656.398242.148438.739648.35625,1.024219.623438.284473.267187.507129.586328.667969.957422.160742.371094.248633.779297.263477,1.224609h-1.699609c-.009961-.212695-.053223-.415625-.129883-.608594-.076758-.192969-.183105-.361133-.319141-.504687-.136133-.143359-.300586-.257227-.493555-.341406-.192969-.083984-.410742-.126172-.653125-.126172-.366211,0-.667969.075586-.905469.226367-.2375.150977-.425586.347656-.564063.590039-.138574.242578-.233789.519531-.285742.83125s-.07793.625977-.07793.942578v.259766c0,.326562.025977.644531.07793.953711.051953.309375.147168.585156.285742.827539.138477.242578.325293.437891.560352.586328.234961.148438.538086.222656.90918.222656Z" /><g><path class="st0" d="M146.358251,16.58447c.217676,0,.421777-.033398.612305-.100195.19043-.066797.35625-.160742.497266-.282031.141016-.121094.254785-.26582.341406-.43418.086523-.168164.134766-.351172.144727-.549219h1.699609c-.014844.385937-.110156.749609-.285742,1.091016-.175684.341406-.410742.639648-.705078.894336-.294434.254883-.637109.455273-1.02793.601172-.390918.145898-.808984.218945-1.254297.218945-.618555,0-1.156641-.106445-1.614258-.319141-.457715-.212695-.838672-.502148-1.142969-.868359-.304297-.366016-.530664-.794141-.679102-1.283984s-.222656-1.009375-.222656-1.558594v-.259766c0-.549219.074219-1.06875.222656-1.558594s.374805-.918945.679102-1.287695c.304297-.368555.683984-.65918,1.139258-.87207.455176-.212695.991992-.319141,1.610547-.319141.484863,0,.926465.074219,1.324805.222656.398242.148438.739648.35625,1.024219.623438.284473.267187.507129.586328.667969.957422.160742.371094.248633.779297.263477,1.224609h-1.699609c-.009961-.212695-.053223-.415625-.129883-.608594-.076758-.192969-.183105-.361133-.319141-.504687-.136133-.143359-.300586-.257227-.493555-.341406-.192969-.083984-.410742-.126172-.653125-.126172-.366211,0-.667969.075586-.905469.226367-.2375.150977-.425586.347656-.564062.590039-.138574.242578-.233789.519531-.285742.83125s-.07793.625977-.07793.942578v.259766c0,.326562.025977.644531.07793.953711.051953.309375.147168.585156.285742.827539.138477.242578.325293.437891.560352.586328.234961.148438.538086.222656.90918.222656Z" /><path class="st1" d="M155.504676,15.693845c0-.128516-.021094-.248633-.063086-.359961-.04209-.111328-.125-.215234-.248633-.311719-.12373-.096484-.298145-.186719-.523242-.270898-.225195-.083984-.518359-.163281-.879492-.2375-.430469-.089063-.822656-.200391-1.176367-.333984-.353809-.133594-.656836-.295508-.90918-.486133-.252344-.19043-.449023-.414258-.590039-.67168-.141016-.257227-.211523-.554102-.211523-.890625,0-.326562.07168-.636914.215234-.931445.143457-.294336.35-.55293.619727-.775586.269629-.222656.596191-.399414.979688-.530664.383398-.131055.812695-.19668,1.287695-.19668.499707,0,.94873.065625,1.34707.19668.398242.13125.735938.311719,1.013086.541797.277051.230078.488574.500977.63457.812695.145898.311719.218945.648242.218945,1.009375h-1.803516c0-.15332-.029688-.30293-.089063-.449023-.059375-.145898-.148438-.275781-.267188-.389648-.11875-.113672-.266016-.204102-.441602-.270898-.175684-.066797-.379785-.100195-.612305-.100195-.227637,0-.425586.028516-.59375.085352-.168262.057031-.308008.13125-.419336.222656-.111328.091602-.194238.198047-.248633.319141-.054492.121289-.081641.248633-.081641.382227s.024707.252344.074219.35625c.049414.103906.137305.198047.263477.282031.126172.08418.295605.162109.508398.233789.212695.071875.479883.142383.801562.211523.465039.099023.881934.215234,1.250586.348828.368555.133594.680273.296875.935156.489844.254785.192969.449023.420703.582617.682813.133594.262305.200391.574023.200391.935156,0,.35625-.076758.682813-.230078.979688-.153418.296875-.372363.55293-.656836.768164-.28457.215234-.627148.382227-1.02793.500977s-.846094.178125-1.335938.178125c-.549219,0-1.035352-.07793-1.458398-.233789s-.778125-.359961-1.065039-.612305c-.287012-.252344-.503516-.538086-.649414-.857227-.145996-.319141-.218945-.644336-.218945-.975977h1.751562c.014844.247461.07168.455273.170703.623437.098926.168359.225098.304297.378516.408203.15332.103906.326563.179492.519531.226367.192969.04707.39082.070508.59375.070508.475,0,.836133-.090234,1.083594-.270898.247363-.180469.371094-.416797.371094-.708789Z" /></g><g><path class="st0" d="M178.358139,16.58447c.217676,0,.421777-.033398.612305-.100195.19043-.066797.35625-.160742.497266-.282031.141016-.121094.254785-.26582.341406-.43418.086523-.168164.134766-.351172.144727-.549219h1.699609c-.014844.385937-.110156.749609-.285742,1.091016-.175684.341406-.410742.639648-.705078.894336-.294434.254883-.637109.455273-1.02793.601172-.390918.145898-.808984.218945-1.254297.218945-.618555,0-1.156641-.106445-1.614258-.319141-.457715-.212695-.838672-.502148-1.142969-.868359-.304297-.366016-.530664-.794141-.679102-1.283984s-.222656-1.009375-.222656-1.558594v-.259766c0-.549219.074219-1.06875.222656-1.558594s.374805-.918945.679102-1.287695c.304297-.368555.683984-.65918,1.139258-.87207.455176-.212695.991992-.319141,1.610547-.319141.484863,0,.926465.074219,1.324805.222656.398242.148438.739648.35625,1.024219.623438.284473.267187.507129.586328.667969.957422.160742.371094.248633.779297.263477,1.224609h-1.699609c-.009961-.212695-.053223-.415625-.129883-.608594-.076758-.192969-.183105-.361133-.319141-.504687-.136133-.143359-.300586-.257227-.493555-.341406-.192969-.083984-.410742-.126172-.653125-.126172-.366211,0-.667969.075586-.905469.226367-.2375.150977-.425586.347656-.564063.590039-.138574.242578-.233789.519531-.285742.83125s-.07793.625977-.07793.942578v.259766c0,.326562.025977.644531.07793.953711.051953.309375.147168.585156.285742.827539.138477.242578.325293.437891.560352.586328.234961.148438.538086.222656.90918.222656Z" /><path class="st1" d="M187.504563,15.693845c0-.128516-.021094-.248633-.063086-.359961-.04209-.111328-.125-.215234-.248633-.311719-.12373-.096484-.298145-.186719-.523242-.270898-.225195-.083984-.518359-.163281-.879492-.2375-.430469-.089063-.822656-.200391-1.176367-.333984-.353809-.133594-.656836-.295508-.90918-.486133-.252344-.19043-.449023-.414258-.590039-.67168-.141016-.257227-.211523-.554102-.211523-.890625,0-.326562.07168-.636914.215234-.931445.143457-.294336.35-.55293.619727-.775586.269629-.222656.596191-.399414.979688-.530664.383398-.131055.812695-.19668,1.287695-.19668.499707,0,.94873.065625,1.34707.19668.398242.13125.735937.311719,1.013086.541797.277051.230078.488574.500977.63457.812695.145898.311719.218945.648242.218945,1.009375h-1.803516c0-.15332-.029687-.30293-.089063-.449023-.059375-.145898-.148438-.275781-.267187-.389648-.11875-.113672-.266016-.204102-.441602-.270898-.175684-.066797-.379785-.100195-.612305-.100195-.227637,0-.425586.028516-.59375.085352-.168262.057031-.308008.13125-.419336.222656-.111328.091602-.194238.198047-.248633.319141-.054492.121289-.081641.248633-.081641.382227s.024707.252344.074219.35625c.049414.103906.137305.198047.263477.282031.126172.08418.295605.162109.508398.233789.212695.071875.479883.142383.801563.211523.465039.099023.881934.215234,1.250586.348828.368555.133594.680273.296875.935156.489844.254785.192969.449023.420703.582617.682813.133594.262305.200391.574023.200391.935156,0,.35625-.076758.682813-.230078.979688-.153418.296875-.372363.55293-.656836.768164-.28457.215234-.627148.382227-1.02793.500977s-.846094.178125-1.335938.178125c-.549219,0-1.035352-.07793-1.458398-.233789s-.778125-.359961-1.065039-.612305c-.287012-.252344-.503516-.538086-.649414-.857227-.145996-.319141-.218945-.644336-.218945-.975977h1.751562c.014844.247461.07168.455273.170703.623437.098926.168359.225098.304297.378516.408203.15332.103906.326562.179492.519531.226367.192969.04707.39082.070508.59375.070508.475,0,.836133-.090234,1.083594-.270898.247363-.180469.371094-.416797.371094-.708789Z" /></g><g><path class="st0" d="M210.358309,16.58447c.217676,0,.421777-.033398.612305-.100195.19043-.066797.35625-.160742.497266-.282031.141016-.121094.254785-.26582.341406-.43418.086523-.168164.134766-.351172.144727-.549219h1.699609c-.014844.385937-.110156.749609-.285742,1.091016-.175684.341406-.410742.639648-.705078.894336-.294434.254883-.637109.455273-1.02793.601172-.390918.145898-.808984.218945-1.254297.218945-.618555,0-1.156641-.106445-1.614258-.319141-.457715-.212695-.838672-.502148-1.142969-.868359-.304297-.366016-.530664-.794141-.679102-1.283984s-.222656-1.009375-.222656-1.558594v-.259766c0-.549219.074219-1.06875.222656-1.558594s.374805-.918945.679102-1.287695c.304297-.368555.683984-.65918,1.139258-.87207.455176-.212695.991992-.319141,1.610547-.319141.484863,0,.926465.074219,1.324805.222656.398242.148438.739648.35625,1.024219.623438.284473.267187.507129.586328.667969.957422.160742.371094.248633.779297.263477,1.224609h-1.699609c-.009961-.212695-.053223-.415625-.129883-.608594-.076758-.192969-.183105-.361133-.319141-.504687-.136133-.143359-.300586-.257227-.493555-.341406-.192969-.083984-.410742-.126172-.653125-.126172-.366211,0-.667969.075586-.905469.226367-.2375.150977-.425586.347656-.564063.590039-.138574.242578-.233789.519531-.285742.83125s-.07793.625977-.07793.942578v.259766c0,.326562.025977.644531.07793.953711.051953.309375.147168.585156.285742.827539.138477.242578.325293.437891.560352.586328.234961.148438.538086.222656.90918.222656Z" /><path class="st1" d="M219.504734,15.693845c0-.128516-.021094-.248633-.063086-.359961-.04209-.111328-.125-.215234-.248633-.311719-.12373-.096484-.298145-.186719-.523242-.270898-.225195-.083984-.518359-.163281-.879492-.2375-.430469-.089063-.822656-.200391-1.176367-.333984-.353809-.133594-.656836-.295508-.90918-.486133-.252344-.19043-.449023-.414258-.590039-.67168-.141016-.257227-.211523-.554102-.211523-.890625,0-.326562.07168-.636914.215234-.931445.143457-.294336.35-.55293.619727-.775586.269629-.222656.596191-.399414.979688-.530664.383398-.131055.812695-.19668,1.287695-.19668.499707,0,.94873.065625,1.34707.19668.398242.13125.735937.311719,1.013086.541797.277051.230078.488574.500977.63457.812695.145898.311719.218945.648242.218945,1.009375h-1.803516c0-.15332-.029687-.30293-.089063-.449023-.059375-.145898-.148438-.275781-.267187-.389648-.11875-.113672-.266016-.204102-.441602-.270898-.175684-.066797-.379785-.100195-.612305-.100195-.227637,0-.425586.028516-.59375.085352-.168262.057031-.308008.13125-.419336.222656-.111328.091602-.194238.198047-.248633.319141-.054492.121289-.081641.248633-.081641.382227s.024707.252344.074219.35625c.049414.103906.137305.198047.263477.282031.126172.08418.295605.162109.508398.233789.212695.071875.479883.142383.801563.211523.465039.099023.881934.215234,1.250586.348828.368555.133594.680273.296875.935156.489844.254785.192969.449023.420703.582617.682813.133594.262305.200391.574023.200391.935156,0,.35625-.076758.682813-.230078.979688-.153418.296875-.372363.55293-.656836.768164-.28457.215234-.627148.382227-1.02793.500977s-.846094.178125-1.335938.178125c-.549219,0-1.035352-.07793-1.458398-.233789s-.778125-.359961-1.065039-.612305c-.287012-.252344-.503516-.538086-.649414-.857227-.145996-.319141-.218945-.644336-.218945-.975977h1.751562c.014844.247461.07168.455273.170703.623437.098926.168359.225098.304297.378516.408203.15332.103906.326562.179492.519531.226367.192969.04707.39082.070508.59375.070508.475,0,.836133-.090234,1.083594-.270898.247363-.180469.371094-.416797.371094-.708789Z" /></g><g><path class="st0" d="M242.358224,16.58447c.217676,0,.421777-.033398.612305-.100195.19043-.066797.35625-.160742.497266-.282031.141016-.121094.254785-.26582.341406-.43418.086523-.168164.134766-.351172.144727-.549219h1.699609c-.014844.385937-.110156.749609-.285742,1.091016-.175684.341406-.410742.639648-.705078.894336-.294434.254883-.637109.455273-1.02793.601172-.390918.145898-.808984.218945-1.254297.218945-.618555,0-1.156641-.106445-1.614258-.319141-.457715-.212695-.838672-.502148-1.142969-.868359-.304297-.366016-.530664-.794141-.679102-1.283984s-.222656-1.009375-.222656-1.558594v-.259766c0-.549219.074219-1.06875.222656-1.558594s.374805-.918945.679102-1.287695c.304297-.368555.683984-.65918,1.139258-.87207.455176-.212695.991992-.319141,1.610547-.319141.484863,0,.926465.074219,1.324805.222656.398242.148438.739648.35625,1.024219.623438.284473.267187.507129.586328.667969.957422.160742.371094.248633.779297.263477,1.224609h-1.699609c-.009961-.212695-.053223-.415625-.129883-.608594-.076758-.192969-.183105-.361133-.319141-.504687-.136133-.143359-.300586-.257227-.493555-.341406-.192969-.083984-.410742-.126172-.653125-.126172-.366211,0-.667969.075586-.905469.226367-.2375.150977-.425586.347656-.564063.590039-.138574.242578-.233789.519531-.285742.83125s-.07793.625977-.07793.942578v.259766c0,.326562.025977.644531.07793.953711.051953.309375.147168.585156.285742.827539.138477.242578.325293.437891.560352.586328.234961.148438.538086.222656.90918.222656Z" /><path class="st1" d="M251.504648,15.693845c0-.128516-.021094-.248633-.063086-.359961-.04209-.111328-.125-.215234-.248633-.311719-.12373-.096484-.298145-.186719-.523242-.270898-.225195-.083984-.518359-.163281-.879492-.2375-.430469-.089063-.822656-.200391-1.176367-.333984-.353809-.133594-.656836-.295508-.90918-.486133-.252344-.19043-.449023-.414258-.590039-.67168-.141016-.257227-.211523-.554102-.211523-.890625,0-.326562.07168-.636914.215234-.931445.143457-.294336.35-.55293.619727-.775586.269629-.222656.596191-.399414.979688-.530664.383398-.131055.812695-.19668,1.287695-.19668.499707,0,.94873.065625,1.34707.19668.398242.13125.735937.311719,1.013086.541797.277051.230078.488574.500977.63457.812695.145898.311719.218945.648242.218945,1.009375h-1.803516c0-.15332-.029687-.30293-.089063-.449023-.059375-.145898-.148438-.275781-.267187-.389648-.11875-.113672-.266016-.204102-.441602-.270898-.175684-.066797-.379785-.100195-.612305-.100195-.227637,0-.425586.028516-.59375.085352-.168262.057031-.308008.13125-.419336.222656-.111328.091602-.194238.198047-.248633.319141-.054492.121289-.081641.248633-.081641.382227s.024707.252344.074219.35625c.049414.103906.137305.198047.263477.282031.126172.08418.295605.162109.508398.233789.212695.071875.479883.142383.801563.211523.465039.099023.881934.215234,1.250586.348828.368555.133594.680273.296875.935156.489844.254785.192969.449023.420703.582617.682813.133594.262305.200391.574023.200391.935156,0,.35625-.076758.682813-.230078.979688-.153418.296875-.372363.55293-.656836.768164-.28457.215234-.627148.382227-1.02793.500977s-.846094.178125-1.335938.178125c-.549219,0-1.035352-.07793-1.458398-.233789s-.778125-.359961-1.065039-.612305c-.287012-.252344-.503516-.538086-.649414-.857227-.145996-.319141-.218945-.644336-.218945-.975977h1.751562c.014844.247461.07168.455273.170703.623437.098926.168359.225098.304297.378516.408203.15332.103906.326562.179492.519531.226367.192969.04707.39082.070508.59375.070508.475,0,.836133-.090234,1.083594-.270898.247363-.180469.371094-.416797.371094-.708789Z" /></g><path class="st1" d="M311.547537,15.693845c0-.128516-.021094-.248633-.063086-.359961-.04209-.111328-.125-.215234-.248633-.311719-.12373-.096484-.298145-.186719-.523242-.270898-.225195-.083984-.518359-.163281-.879492-.2375-.430469-.089063-.822656-.200391-1.176367-.333984-.353809-.133594-.656836-.295508-.90918-.486133-.252344-.19043-.449023-.414258-.590039-.67168-.141016-.257227-.211523-.554102-.211523-.890625,0-.326562.07168-.636914.215234-.931445.143457-.294336.35-.55293.619727-.775586.269629-.222656.596191-.399414.979688-.530664.383398-.131055.812695-.19668,1.287695-.19668.499707,0,.94873.065625,1.34707.19668.398242.13125.735937.311719,1.013086.541797.277051.230078.488574.500977.63457.812695.145898.311719.218945.648242.218945,1.009375h-1.803516c0-.15332-.029687-.30293-.089063-.449023-.059375-.145898-.148438-.275781-.267187-.389648-.11875-.113672-.266016-.204102-.441602-.270898-.175684-.066797-.379785-.100195-.612305-.100195-.227637,0-.425586.028516-.59375.085352-.168262.057031-.308008.13125-.419336.222656-.111328.091602-.194238.198047-.248633.319141-.054492.121289-.081641.248633-.081641.382227s.024707.252344.074219.35625c.049414.103906.137305.198047.263477.282031.126172.08418.295605.162109.508398.233789.212695.071875.479883.142383.801563.211523.465039.099023.881934.215234,1.250586.348828.368555.133594.680273.296875.935156.489844.254785.192969.449023.420703.582617.682813.133594.262305.200391.574023.200391.935156,0,.35625-.076758.682813-.230078.979688-.153418.296875-.372363.55293-.656836.768164-.28457.215234-.627148.382227-1.02793.500977s-.846094.178125-1.335938.178125c-.549219,0-1.035352-.07793-1.458398-.233789s-.778125-.359961-1.065039-.612305c-.287012-.252344-.503516-.538086-.649414-.857227-.145996-.319141-.218945-.644336-.218945-.975977h1.751562c.014844.247461.07168.455273.170703.623437.098926.168359.225098.304297.378516.408203.15332.103906.326562.179492.519531.226367.192969.04707.39082.070508.59375.070508.475,0,.836133-.090234,1.083594-.270898.247363-.180469.371094-.416797.371094-.708789Z" /><path class="st1" d="M279.547366,15.693845c0-.128516-.021094-.248633-.063086-.359961-.04209-.111328-.125-.215234-.248633-.311719-.12373-.096484-.298145-.186719-.523242-.270898-.225195-.083984-.518359-.163281-.879492-.2375-.430469-.089063-.822656-.200391-1.176367-.333984-.353809-.133594-.656836-.295508-.90918-.486133-.252344-.19043-.449023-.414258-.590039-.67168-.141016-.257227-.211523-.554102-.211523-.890625,0-.326562.07168-.636914.215234-.931445.143457-.294336.35-.55293.619727-.775586.269629-.222656.596191-.399414.979688-.530664.383398-.131055.812695-.19668,1.287695-.19668.499707,0,.94873.065625,1.34707.19668.398242.13125.735937.311719,1.013086.541797.277051.230078.488574.500977.63457.812695.145898.311719.218945.648242.218945,1.009375h-1.803516c0-.15332-.029687-.30293-.089062-.449023-.059375-.145898-.148438-.275781-.267188-.389648-.11875-.113672-.266016-.204102-.441602-.270898-.175684-.066797-.379785-.100195-.612305-.100195-.227637,0-.425586.028516-.59375.085352-.168262.057031-.308008.13125-.419336.222656-.111328.091602-.194238.198047-.248633.319141-.054492.121289-.081641.248633-.081641.382227s.024707.252344.074219.35625c.049414.103906.137305.198047.263477.282031.126172.08418.295605.162109.508398.233789.212695.071875.479883.142383.801562.211523.465039.099023.881934.215234,1.250586.348828.368555.133594.680273.296875.935156.489844.254785.192969.449023.420703.582617.682813.133594.262305.200391.574023.200391.935156,0,.35625-.076758.682813-.230078.979688-.153418.296875-.372363.55293-.656836.768164-.28457.215234-.627148.382227-1.02793.500977s-.846094.178125-1.335938.178125c-.549219,0-1.035352-.07793-1.458398-.233789-.423047-.155859-.778125-.359961-1.065039-.612305-.287012-.252344-.503516-.538086-.649414-.857227-.145996-.319141-.218945-.644336-.218945-.975977h1.751562c.014844.247461.07168.455273.170703.623437.098926.168359.225098.304297.378516.408203.15332.103906.326562.179492.519531.226367.192969.04707.39082.070508.59375.070508.475,0,.836133-.090234,1.083594-.270898.247363-.180469.371094-.416797.371094-.708789Z" /><path class="st1" d="M343.547452,15.693845c0-.128516-.021094-.248633-.063086-.359961-.04209-.111328-.125-.215234-.248633-.311719-.12373-.096484-.298145-.186719-.523242-.270898-.225195-.083984-.518359-.163281-.879492-.2375-.430469-.089063-.822656-.200391-1.176367-.333984-.353809-.133594-.656836-.295508-.90918-.486133-.252344-.19043-.449023-.414258-.590039-.67168-.141016-.257227-.211523-.554102-.211523-.890625,0-.326562.07168-.636914.215234-.931445.143457-.294336.35-.55293.619727-.775586.269629-.222656.596191-.399414.979688-.530664.383398-.131055.812695-.19668,1.287695-.19668.499707,0,.94873.065625,1.34707.19668.398242.13125.735937.311719,1.013086.541797.277051.230078.488574.500977.63457.812695.145898.311719.218945.648242.218945,1.009375h-1.803516c0-.15332-.029687-.30293-.089063-.449023-.059375-.145898-.148438-.275781-.267187-.389648-.11875-.113672-.266016-.204102-.441602-.270898-.175684-.066797-.379785-.100195-.612305-.100195-.227637,0-.425586.028516-.59375.085352-.168262.057031-.308008.13125-.419336.222656-.111328.091602-.194238.198047-.248633.319141-.054492.121289-.081641.248633-.081641.382227s.024707.252344.074219.35625c.049414.103906.137305.198047.263477.282031.126172.08418.295605.162109.508398.233789.212695.071875.479883.142383.801563.211523.465039.099023.881934.215234,1.250586.348828.368555.133594.680273.296875.935156.489844.254785.192969.449023.420703.582617.682813.133594.262305.200391.574023.200391.935156,0,.35625-.076758.682813-.230078.979688-.153418.296875-.372363.55293-.656836.768164-.28457.215234-.627148.382227-1.02793.500977s-.846094.178125-1.335938.178125c-.549219,0-1.035352-.07793-1.458398-.233789s-.778125-.359961-1.065039-.612305c-.287012-.252344-.503516-.538086-.649414-.857227-.145996-.319141-.218945-.644336-.218945-.975977h1.751562c.014844.247461.07168.455273.170703.623437.098926.168359.225098.304297.378516.408203.15332.103906.326562.179492.519531.226367.192969.04707.39082.070508.59375.070508.475,0,.836133-.090234,1.083594-.270898.247363-.180469.371094-.416797.371094-.708789Z" /><line class="st2" x1="140.000018" y1="28.753794" x2="160.000018" y2="28.753794" /><line class="st2" x1="171.999905" y1="28.753794" x2="191.999905" y2="28.753794" /><line class="st2" x1="204.000076" y1="28.753794" x2="224.000076" y2="28.753794" /><line class="st2" x1="235.999991" y1="28.753794" x2="255.999991" y2="28.753794" /></svg>