<svg id="Layer_3" data-name="Layer 3" xmlns="http://www.w3.org/2000/svg" viewBox="0 0 396 138.33" width="396" height="138.33" preserveAspectRatio="none"><defs><style>
      .cls-1, .cls-2, .cls-3, .cls-4, .cls-5, .cls-6, .cls-7, .cls-8, .cls-9, .cls-10, .cls-11, .cls-12, .cls-13, .cls-14, .cls-15, .cls-16, .cls-17, .cls-18, .cls-19, .cls-20, .cls-21, .cls-22, .cls-23, .cls-24, .cls-25, .cls-26, .cls-27, .cls-28, .cls-29 {
        fill: none;
      }

      .cls-1, .cls-2, .cls-3, .cls-4, .cls-5, .cls-6, .cls-7, .cls-8, .cls-9, .cls-10, .cls-11, .cls-12, .cls-13, .cls-14, .cls-15, .cls-16, .cls-17, .cls-18, .cls-19, .cls-20, .cls-21, .cls-23, .cls-24, .cls-25, .cls-26, .cls-28, .cls-29 {
        stroke-linecap: round;
      }

      .cls-1, .cls-7, .cls-28, .cls-29 {
        stroke-dasharray: 1.77;
      }

      .cls-1, .cls-11, .cls-23 {
        stroke-width: .89px;
      }

      .cls-1, .cls-13, .cls-14 {
        stroke: #0f522e;
      }

      .cls-2 {
        stroke-dasharray: 1.96 1.96;
      }

      .cls-2, .cls-3, .cls-4, .cls-5, .cls-7, .cls-10, .cls-11, .cls-12, .cls-15, .cls-16, .cls-17, .cls-20, .cls-21, .cls-23, .cls-25, .cls-26, .cls-28, .cls-29 {
        stroke: #9c9a95;
      }

      .cls-2, .cls-5, .cls-12, .cls-13, .cls-14, .cls-16, .cls-26 {
        stroke-width: .66px;
      }

      .cls-3 {
        stroke-dasharray: 1.68 1.68;
      }

      .cls-3, .cls-15 {
        stroke-width: .75px;
      }

      .cls-4 {
        stroke-dasharray: 1.69 1.69;
      }

      .cls-4, .cls-6, .cls-7, .cls-8, .cls-10, .cls-17, .cls-18, .cls-20, .cls-21, .cls-24, .cls-25 {
        stroke-width: .5px;
      }

      .cls-4, .cls-7, .cls-17, .cls-20 {
        stroke-linejoin: round;
      }

      .cls-5, .cls-17 {
        stroke-dasharray: 1.76 1.76;
      }

      .cls-30 {
        fill: #231f20;
      }

      .cls-6 {
        stroke-dasharray: 2.05 2.05;
      }

      .cls-6, .cls-8, .cls-9, .cls-18, .cls-19, .cls-24 {
        stroke: #0b71b0;
      }

      .cls-9, .cls-19, .cls-29 {
        stroke-width: .6px;
      }

      .cls-14 {
        stroke-dasharray: 1.34 1.34;
      }

      .cls-16 {
        stroke-dasharray: 1.75 1.75;
      }

      .cls-18 {
        stroke-dasharray: 1.69 1.69;
      }

      .cls-31 {
        fill: #7dd1e6;
      }

      .cls-19, .cls-26 {
        stroke-dasharray: 1.58 1.58;
      }

      .cls-21 {
        stroke-dasharray: 1.72 1.72;
      }

      .cls-22 {
        stroke: #231f20;
      }

      .cls-22, .cls-27 {
        stroke-width: 1.22px;
      }

      .cls-23 {
        stroke-dasharray: 1.57 1.57;
      }

      .cls-32 {
        fill: #137642;
      }

      .cls-24 {
        stroke-dasharray: 1.87 1.87;
      }

      .cls-33 {
        fill: #2cbeef;
        stroke: #074163;
        stroke-width: 1.21px;
      }

      .cls-34 {
        fill: #0588b3;
      }

      .cls-25 {
        stroke-dasharray: 1.77 1.77;
      }

      .cls-35 {
        fill: #e6e7e8;
      }

      .cls-27 {
        stroke: #2c2b2f;
      }

      .cls-36 {
        fill: #084e7b;
      }

      .cls-28 {
        stroke-width: .7px;
      }
    </style></defs><path class="cls-32" d="M146.04,75.02c0,.3-.29,28.47-.29,28.47l8.22,7.63.22-28.42-8.15-7.68Z" /><polygon class="cls-31" points="182.43 83.24 174.22 74.73 146.04 75.02 154.39 83.09 182.43 83.24" /><polygon class="cls-33" points="153.97 111.12 182.43 111.12 182.43 83.24 154.29 82.8 153.97 111.12" /><g><line class="cls-9" x1="174.24" y1="103.11" x2="174.87" y2="103.74" /><line class="cls-19" x1="175.98" y1="104.86" x2="179.89" y2="108.79" /><line class="cls-9" x1="180.45" y1="109.35" x2="181.08" y2="109.98" /></g><g><line class="cls-8" x1="162.24" y1="103.11" x2="163.12" y2="103.11" /><line class="cls-6" x1="165.17" y1="103.11" x2="172.33" y2="103.11" /><line class="cls-8" x1="173.36" y1="103.11" x2="174.24" y2="103.11" /></g><g><line class="cls-8" x1="174.24" y1="103.11" x2="174.24" y2="102.23" /><line class="cls-18" x1="174.24" y1="100.54" x2="174.24" y2="77.76" /><line class="cls-8" x1="174.24" y1="76.91" x2="174.24" y2="76.03" /></g><path class="cls-35" d="M52.7,74.84c0,.3-.29,28.47-.29,28.47l8.22,7.63h28.47v-27.88l-8.22-8.51-28.17.29Z" /><rect class="cls-27" x="60.88" y="82.78" width="28.17" height="28.17" /><line class="cls-22" x1="60.88" y1="82.65" x2="53.22" y2="74.99" /><line class="cls-22" x1="60.57" y1="111.13" x2="52.61" y2="103.17" /><line class="cls-27" x1="89.23" y1="82.65" x2="80.97" y2="74.4" /><polyline class="cls-27" points="81.42 74.63 52.72 74.63 52.72 103.62" /><path class="cls-35" d="M24.17,74.84c0,.3-.29,28.47-.29,28.47l8.22,7.63h28.47v-27.88l-8.22-8.51-28.17.29Z" /><rect class="cls-22" x="32.34" y="82.78" width="28.17" height="28.17" /><line class="cls-22" x1="32.34" y1="82.65" x2="24.69" y2="74.99" /><line class="cls-27" x1="32.04" y1="111.13" x2="24.08" y2="103.17" /><line class="cls-22" x1="60.7" y1="82.65" x2="52.44" y2="74.4" /><polyline class="cls-27" points="52.89 74.63 24.19 74.63 24.19 103.62" /><path class="cls-35" d="M32.32,83c0,.3-.29,28.47-.29,28.47l8.22,7.63h28.47v-27.88l-8.22-8.51-28.17.29Z" /><path class="cls-35" d="M316.64,83.33c0,.3-.29,28.47-.29,28.47l8.22,7.63h28.47v-27.88l-8.22-8.51-28.17.29Z" /><rect class="cls-27" x="40.5" y="90.93" width="28.17" height="28.17" /><line class="cls-27" x1="40.5" y1="90.81" x2="32.84" y2="83.15" /><line class="cls-27" x1="40.19" y1="119.28" x2="32.23" y2="111.32" /><line class="cls-27" x1="68.85" y1="90.81" x2="60.59" y2="82.55" /><polyline class="cls-27" points="61.04 82.78 32.34 82.78 32.34 111.77" /><path class="cls-36" d="M24.17,46.46c0,.3-.29,28.47-.29,28.47l8.22,7.63.22-28.42-8.15-7.68Z" /><polygon class="cls-31" points="60.56 54.69 52.34 46.17 24.17 46.46 32.51 54.54 60.56 54.69" /><polygon class="cls-33" points="32.09 82.57 60.56 82.57 60.56 54.69 32.41 54.24 32.09 82.57" /><line class="cls-27" x1="32.34" y1="54.27" x2="24.69" y2="46.61" /><line class="cls-27" x1="24.08" y1="74.64" x2="32.04" y2="82.6" /><line class="cls-27" x1="60.7" y1="54.27" x2="52.44" y2="46.02" /><polyline class="cls-27" points="52.89 46.25 24.19 46.25 24.19 75.23" /><g><line class="cls-9" x1="52.36" y1="74.55" x2="52.99" y2="75.18" /><line class="cls-19" x1="54.11" y1="76.31" x2="58.02" y2="80.23" /><line class="cls-9" x1="58.58" y1="80.8" x2="59.2" y2="81.42" /></g><g><line class="cls-8" x1="26.23" y1="74.55" x2="27.11" y2="74.55" /><line class="cls-24" x1="28.99" y1="74.55" x2="50.54" y2="74.55" /><line class="cls-8" x1="51.48" y1="74.55" x2="52.36" y2="74.55" /></g><g><line class="cls-8" x1="52.36" y1="74.55" x2="52.36" y2="73.67" /><line class="cls-18" x1="52.36" y1="71.98" x2="52.36" y2="49.2" /><line class="cls-8" x1="52.36" y1="48.36" x2="52.36" y2="47.47" /></g><rect class="cls-27" x="32.34" y="54.4" width="28.17" height="28.17" /><polyline class="cls-27" points="161.94 110.95 182.37 110.95 182.37 82.78 154.2 82.78" /><line class="cls-22" x1="154.2" y1="82.65" x2="146.54" y2="74.99" /><line class="cls-27" x1="182.55" y1="82.65" x2="174.29" y2="74.4" /><line class="cls-27" x1="174.74" y1="74.63" x2="153.7" y2="74.63" /><path class="cls-35" d="M117.49,74.84c0,.3-.29,28.47-.29,28.47l8.22,7.63h28.47v-27.88l-8.22-8.51-28.17.29Z" /><rect class="cls-1" x="125.66" y="82.78" width="28.17" height="28.17" /><line class="cls-22" x1="125.66" y1="82.65" x2="118.01" y2="74.99" /><line class="cls-27" x1="125.36" y1="111.13" x2="117.4" y2="103.17" /><polyline class="cls-27" points="146.21 74.63 117.51 74.63 117.51 103.62" /><path class="cls-35" d="M125.64,83c0,.3-.29,28.47-.29,28.47l8.22,7.63h28.47v-27.88l-8.22-8.51-28.17.29Z" /><line class="cls-27" x1="133.82" y1="90.81" x2="126.16" y2="83.15" /><line class="cls-27" x1="133.51" y1="119.28" x2="125.55" y2="111.32" /><polyline class="cls-27" points="154.36 82.78 125.66 82.78 125.66 111.77" /><path class="cls-35" d="M117.49,46.46c0,.3-.29,28.47-.29,28.47l8.22,7.63.22-28.42-8.15-7.68Z" /><polygon class="cls-35" points="153.88 54.69 145.66 46.17 117.49 46.46 125.83 54.54 153.88 54.69" /><polygon class="cls-35" points="125.41 82.57 153.88 82.57 153.88 54.69 125.73 54.24 125.41 82.57" /><line class="cls-27" x1="125.66" y1="54.27" x2="118.01" y2="46.61" /><line class="cls-27" x1="117.4" y1="74.64" x2="125.36" y2="82.6" /><line class="cls-27" x1="154.02" y1="54.27" x2="145.76" y2="46.02" /><polyline class="cls-27" points="146.21 46.25 117.51 46.25 117.51 75.23" /><g><path class="cls-30" d="M29.59,3.56h-2.63v7.29h-1.07V3.56h-2.62v-.88h6.32v.88Z" /><path class="cls-30" d="M31.39,5.52c.46-.57,1.06-.85,1.8-.85,1.28,0,1.93.72,1.94,2.17v4.01h-1.04v-4.02c0-.44-.1-.76-.3-.97-.2-.21-.5-.31-.92-.31-.34,0-.63.09-.89.27-.25.18-.45.42-.59.71v4.33h-1.04V2.23h1.04v3.28Z" /><path class="cls-30" d="M36.4,3.17c0-.17.05-.31.15-.43.1-.12.26-.17.46-.17s.36.06.46.17c.1.12.16.26.16.43s-.05.31-.16.42-.26.17-.46.17-.35-.06-.46-.17-.15-.25-.15-.42ZM37.53,10.86h-1.04v-6.08h1.04v6.08Z" /><path class="cls-30" d="M42.44,9.24c0-.28-.11-.5-.32-.65-.21-.16-.58-.29-1.11-.4s-.94-.25-1.25-.4c-.31-.16-.54-.34-.69-.56-.15-.22-.22-.48-.22-.77,0-.5.21-.92.63-1.26.42-.34.96-.52,1.61-.52.69,0,1.25.18,1.68.53.43.36.64.81.64,1.36h-1.04c0-.28-.12-.53-.36-.74-.24-.21-.55-.31-.91-.31s-.67.08-.89.25c-.21.16-.32.38-.32.65,0,.25.1.44.3.57.2.13.56.25,1.08.36.52.12.94.25,1.26.42.32.16.56.35.72.58.16.23.23.5.23.83,0,.54-.22.98-.65,1.31-.43.33-1,.49-1.69.49-.49,0-.92-.09-1.29-.26s-.67-.41-.88-.72-.32-.64-.32-1h1.04c.02.35.16.62.42.83.26.2.6.31,1.03.31.39,0,.71-.08.95-.24.24-.16.36-.37.36-.64Z" /><path class="cls-30" d="M49.54,10.12c.37,0,.69-.11.97-.34.28-.22.43-.51.46-.84h.98c-.02.35-.14.68-.36.99s-.52.57-.88.75-.76.28-1.17.28c-.83,0-1.49-.28-1.97-.83-.49-.55-.73-1.31-.73-2.27v-.17c0-.59.11-1.12.33-1.58s.53-.82.94-1.07c.41-.25.89-.38,1.44-.38.68,0,1.25.2,1.7.61.45.41.69.94.72,1.59h-.98c-.03-.39-.18-.72-.45-.97s-.6-.38-.99-.38c-.53,0-.94.19-1.23.57-.29.38-.44.93-.44,1.65v.2c0,.7.14,1.24.43,1.62.29.38.7.57,1.24.57Z" /><path class="cls-30" d="M56.59,10.26c-.4.48-1,.71-1.78.71-.65,0-1.14-.19-1.48-.56s-.51-.93-.51-1.67v-3.95h1.04v3.93c0,.92.37,1.38,1.12,1.38.79,0,1.32-.3,1.58-.89v-4.42h1.04v6.08h-.99l-.02-.6Z" /><path class="cls-30" d="M64.03,7.89c0,.93-.21,1.67-.64,2.24-.43.56-1,.85-1.72.85-.77,0-1.36-.27-1.78-.81l-.05.7h-.95V2.23h1.04v3.22c.42-.52,1-.78,1.73-.78s1.32.28,1.74.84c.42.56.63,1.32.63,2.29v.09ZM62.99,7.77c0-.71-.14-1.25-.41-1.64-.27-.39-.67-.58-1.18-.58-.69,0-1.18.32-1.48.95v2.63c.32.64.81.95,1.49.95.5,0,.89-.19,1.16-.58.28-.39.42-.97.42-1.74Z" /><path class="cls-30" d="M67.57,10.97c-.82,0-1.49-.27-2.01-.81-.52-.54-.77-1.26-.77-2.17v-.19c0-.6.11-1.14.35-1.61.23-.47.55-.84.97-1.11.41-.27.86-.4,1.34-.4.79,0,1.4.26,1.84.78.44.52.66,1.27.66,2.23v.43h-4.12c.02.6.19,1.08.52,1.45.33.37.76.55,1.28.55.37,0,.68-.07.93-.22.25-.15.48-.35.67-.6l.63.49c-.51.78-1.27,1.17-2.29,1.17ZM67.44,5.52c-.42,0-.77.15-1.06.46-.28.31-.46.73-.53,1.28h3.04v-.08c-.03-.53-.17-.94-.43-1.23-.25-.29-.6-.44-1.03-.44Z" /><path class="cls-30" d="M74.45,5.52c.46-.57,1.06-.85,1.8-.85,1.28,0,1.93.72,1.94,2.17v4.01h-1.04v-4.02c0-.44-.1-.76-.3-.97-.2-.21-.5-.31-.92-.31-.34,0-.63.09-.89.27-.25.18-.45.42-.59.71v4.33h-1.04V2.23h1.04v3.28Z" /><path class="cls-30" d="M83.21,10.86c-.06-.12-.11-.33-.15-.64-.48.5-1.06.75-1.73.75-.6,0-1.09-.17-1.47-.51-.38-.34-.58-.77-.58-1.29,0-.63.24-1.12.72-1.47.48-.35,1.16-.53,2.03-.53h1.01v-.48c0-.36-.11-.65-.33-.87-.22-.22-.54-.32-.96-.32-.37,0-.68.09-.93.28-.25.19-.38.41-.38.68h-1.04c0-.3.11-.6.32-.88.22-.28.51-.51.88-.67.37-.16.77-.25,1.22-.25.7,0,1.25.18,1.65.53.4.35.6.83.62,1.45v2.8c0,.56.07,1,.21,1.33v.09h-1.09ZM81.49,10.06c.33,0,.63-.08.93-.25s.5-.39.63-.66v-1.25h-.81c-1.27,0-1.91.37-1.91,1.12,0,.33.11.58.33.76.22.18.5.28.84.28Z" /><path class="cls-30" d="M88.97,9.24c0-.28-.11-.5-.32-.65-.21-.16-.58-.29-1.11-.4s-.94-.25-1.25-.4c-.31-.16-.54-.34-.69-.56-.15-.22-.22-.48-.22-.77,0-.5.21-.92.63-1.26.42-.34.96-.52,1.61-.52.69,0,1.25.18,1.68.53.43.36.64.81.64,1.36h-1.04c0-.28-.12-.53-.36-.74-.24-.21-.55-.31-.91-.31s-.67.08-.89.25c-.21.16-.32.38-.32.65,0,.25.1.44.3.57.2.13.56.25,1.08.36.52.12.94.25,1.26.42.32.16.56.35.72.58.16.23.23.5.23.83,0,.54-.22.98-.65,1.31-.43.33-1,.49-1.69.49-.49,0-.92-.09-1.29-.26s-.67-.41-.88-.72-.32-.64-.32-1h1.04c.02.35.16.62.42.83.26.2.6.31,1.03.31.39,0,.71-.08.95-.24.24-.16.36-.37.36-.64Z" /><path class="cls-34" d="M23.19,18.84l.47-4.16h4.58v1.35h-3.25l-.2,1.76c.39-.21.8-.31,1.23-.31.78,0,1.39.24,1.83.72s.66,1.16.66,2.03c0,.53-.11,1-.33,1.42-.22.42-.54.74-.96.97s-.91.35-1.47.35c-.49,0-.95-.1-1.38-.3-.42-.2-.76-.48-1-.85-.25-.36-.38-.78-.39-1.24h1.61c.03.34.15.61.36.79.2.19.47.28.8.28.37,0,.65-.13.85-.4s.3-.64.3-1.12-.11-.82-.34-1.07-.55-.37-.97-.37c-.39,0-.7.1-.94.3l-.16.15-1.29-.32Z" /><path class="cls-30" d="M32.56,22.86v-5.27h-.96v-.8h.96v-.62c0-.65.17-1.15.52-1.51.35-.36.84-.53,1.48-.53.24,0,.48.03.71.09l-.06.84c-.18-.03-.36-.05-.56-.05-.34,0-.6.1-.78.3-.18.2-.28.48-.28.85v.64h1.3v.8h-1.3v5.27h-1.04Z" /><path class="cls-30" d="M39.5,22.86c-.06-.12-.11-.33-.15-.64-.48.5-1.06.75-1.73.75-.6,0-1.09-.17-1.47-.51-.38-.34-.58-.77-.58-1.29,0-.63.24-1.12.72-1.47.48-.35,1.16-.53,2.03-.53h1.01v-.48c0-.36-.11-.65-.33-.87-.22-.22-.54-.32-.96-.32-.37,0-.68.09-.93.28-.25.19-.38.41-.38.68h-1.04c0-.3.11-.6.32-.88.22-.28.51-.51.88-.67.37-.16.77-.25,1.22-.25.7,0,1.25.18,1.65.53.4.35.6.83.62,1.45v2.8c0,.56.07,1,.21,1.33v.09h-1.09ZM37.78,22.06c.33,0,.63-.08.93-.25s.5-.39.63-.66v-1.25h-.81c-1.27,0-1.91.37-1.91,1.12,0,.33.11.58.33.76.22.18.5.28.84.28Z" /><path class="cls-30" d="M44.16,22.12c.37,0,.69-.11.97-.34.28-.22.43-.51.46-.84h.98c-.02.35-.14.68-.36.99s-.52.57-.88.75-.76.28-1.17.28c-.83,0-1.49-.28-1.97-.83-.49-.55-.73-1.31-.73-2.27v-.17c0-.59.11-1.12.33-1.58s.53-.82.94-1.07c.41-.25.89-.38,1.44-.38.68,0,1.25.2,1.7.61.45.41.69.94.72,1.59h-.98c-.03-.39-.18-.72-.45-.97s-.6-.38-.99-.38c-.53,0-.94.19-1.23.57-.29.38-.44.93-.44,1.65v.2c0,.7.14,1.24.43,1.62.29.38.7.57,1.24.57Z" /><path class="cls-30" d="M49.98,22.97c-.82,0-1.49-.27-2.01-.81-.52-.54-.77-1.26-.77-2.17v-.19c0-.6.11-1.14.35-1.61.23-.47.55-.84.97-1.11.41-.27.86-.4,1.34-.4.79,0,1.4.26,1.84.78.44.52.66,1.27.66,2.23v.43h-4.12c.02.6.19,1.08.52,1.45.33.37.76.55,1.28.55.37,0,.68-.07.93-.22.25-.15.48-.35.67-.6l.63.49c-.51.78-1.27,1.17-2.29,1.17ZM49.85,17.52c-.42,0-.77.15-1.06.46-.28.31-.46.73-.53,1.28h3.04v-.08c-.03-.53-.17-.94-.43-1.23-.25-.29-.6-.44-1.03-.44Z" /><path class="cls-30" d="M56.8,21.24c0-.28-.11-.5-.32-.65-.21-.16-.58-.29-1.11-.4s-.94-.25-1.25-.4c-.31-.16-.54-.34-.69-.56-.15-.22-.22-.48-.22-.77,0-.5.21-.92.63-1.26.42-.34.96-.52,1.61-.52.69,0,1.25.18,1.68.53.43.36.64.81.64,1.36h-1.04c0-.28-.12-.53-.36-.74-.24-.21-.55-.31-.91-.31s-.67.08-.89.25c-.21.16-.32.38-.32.65,0,.25.1.44.3.57.2.13.56.25,1.08.36.52.12.94.25,1.26.42.32.16.56.35.72.58.16.23.23.5.23.83,0,.54-.22.98-.65,1.31-.43.33-1,.49-1.69.49-.49,0-.92-.09-1.29-.26s-.67-.41-.88-.72-.32-.64-.32-1h1.04c.02.35.16.62.42.83.26.2.6.31,1.03.31.39,0,.71-.08.95-.24.24-.16.36-.37.36-.64Z" /><path class="cls-30" d="M61.18,19.76c0-.6.12-1.13.35-1.61.23-.48.56-.84.98-1.1s.89-.39,1.43-.39c.83,0,1.5.29,2.01.86.51.57.77,1.33.77,2.29v.07c0,.59-.11,1.12-.34,1.59-.23.47-.55.84-.97,1.1-.42.26-.91.39-1.45.39-.82,0-1.49-.29-2-.86-.51-.57-.77-1.33-.77-2.27v-.07ZM62.23,19.89c0,.67.16,1.21.47,1.62.31.41.73.61,1.25.61s.95-.21,1.26-.62c.31-.41.47-.99.47-1.74,0-.67-.16-1.21-.47-1.62-.32-.41-.74-.62-1.26-.62s-.93.2-1.24.61c-.31.41-.47.99-.47,1.75Z" /><path class="cls-30" d="M68.71,16.78l.03.76c.46-.58,1.07-.88,1.82-.88,1.28,0,1.93.72,1.94,2.17v4.01h-1.04v-4.02c0-.44-.1-.76-.3-.97-.2-.21-.5-.31-.92-.31-.34,0-.63.09-.89.27-.25.18-.45.42-.59.71v4.33h-1.04v-6.08h.98Z" /><path class="cls-30" d="M77.76,15.31v1.47h1.13v.8h-1.13v3.77c0,.24.05.43.15.55.1.12.27.18.52.18.12,0,.28-.02.49-.07v.84c-.27.07-.54.11-.8.11-.46,0-.81-.14-1.05-.42-.24-.28-.35-.68-.35-1.2v-3.77h-1.11v-.8h1.11v-1.47h1.04Z" /><path class="cls-30" d="M80.86,17.52c.46-.57,1.06-.85,1.8-.85,1.28,0,1.93.72,1.94,2.17v4.01h-1.04v-4.02c0-.44-.1-.76-.3-.97-.2-.21-.5-.31-.92-.31-.34,0-.63.09-.89.27-.25.18-.45.42-.59.71v4.33h-1.04v-8.62h1.04v3.28Z" /><path class="cls-30" d="M88.39,22.97c-.82,0-1.49-.27-2.01-.81-.52-.54-.77-1.26-.77-2.17v-.19c0-.6.11-1.14.35-1.61.23-.47.55-.84.97-1.11.41-.27.86-.4,1.34-.4.79,0,1.4.26,1.84.78.44.52.66,1.27.66,2.23v.43h-4.12c.02.6.19,1.08.52,1.45.33.37.76.55,1.28.55.37,0,.68-.07.93-.22.25-.15.48-.35.67-.6l.63.49c-.51.78-1.27,1.17-2.29,1.17ZM88.26,17.52c-.42,0-.77.15-1.06.46-.28.31-.46.73-.53,1.28h3.04v-.08c-.03-.53-.17-.94-.43-1.23-.25-.29-.6-.44-1.03-.44Z" /><path class="cls-30" d="M37.81,31.76c0-.6.12-1.13.35-1.61.23-.48.56-.84.98-1.1s.89-.39,1.43-.39c.83,0,1.5.29,2.01.86.51.57.77,1.33.77,2.29v.07c0,.59-.11,1.12-.34,1.59-.23.47-.55.84-.97,1.1-.42.26-.91.39-1.45.39-.82,0-1.49-.29-2-.86-.51-.57-.77-1.33-.77-2.27v-.07ZM38.85,31.89c0,.67.16,1.21.47,1.62.31.41.73.61,1.25.61s.95-.21,1.26-.62c.31-.41.47-.99.47-1.74,0-.67-.16-1.21-.47-1.62-.32-.41-.74-.62-1.26-.62s-.93.2-1.24.61c-.31.41-.47.99-.47,1.75Z" /><path class="cls-30" d="M48.11,34.26c-.4.48-1,.71-1.78.71-.65,0-1.14-.19-1.48-.56s-.51-.93-.51-1.67v-3.95h1.04v3.93c0,.92.37,1.38,1.12,1.38.79,0,1.32-.3,1.58-.89v-4.42h1.04v6.08h-.99l-.02-.6Z" /><path class="cls-30" d="M51.82,27.31v1.47h1.13v.8h-1.13v3.77c0,.24.05.43.15.55.1.12.27.18.52.18.12,0,.28-.02.49-.07v.84c-.27.07-.54.11-.8.11-.46,0-.81-.14-1.05-.42-.24-.28-.35-.68-.35-1.2v-3.77h-1.11v-.8h1.11v-1.47h1.04Z" /><path class="cls-30" d="M57.41,33.24c0-.28-.11-.5-.32-.65-.21-.16-.58-.29-1.11-.4s-.94-.25-1.25-.4c-.31-.16-.54-.34-.69-.56-.15-.22-.22-.48-.22-.77,0-.5.21-.92.63-1.26.42-.34.96-.52,1.61-.52.69,0,1.25.18,1.68.53.43.36.64.81.64,1.36h-1.04c0-.28-.12-.53-.36-.74-.24-.21-.55-.31-.91-.31s-.67.08-.89.25c-.21.16-.32.38-.32.65,0,.25.1.44.3.57.2.13.56.25,1.08.36.52.12.94.25,1.26.42.32.16.56.35.72.58.16.23.23.5.23.83,0,.54-.22.98-.65,1.31-.43.33-1,.49-1.69.49-.49,0-.92-.09-1.29-.26s-.67-.41-.88-.72-.32-.64-.32-1h1.04c.02.35.16.62.42.83.26.2.6.31,1.03.31.39,0,.71-.08.95-.24.24-.16.36-.37.36-.64Z" /><path class="cls-30" d="M59.52,27.17c0-.17.05-.31.15-.43.1-.12.26-.17.46-.17s.36.06.46.17c.1.12.16.26.16.43s-.05.31-.16.42-.26.17-.46.17-.35-.06-.46-.17-.15-.25-.15-.42ZM60.65,34.86h-1.04v-6.08h1.04v6.08Z" /><path class="cls-30" d="M61.77,31.77c0-.93.22-1.68.66-2.25.44-.57,1.02-.85,1.73-.85s1.27.24,1.69.73v-3.17h1.04v8.62h-.95l-.05-.65c-.42.51-.99.76-1.74.76s-1.28-.29-1.72-.86c-.44-.58-.67-1.33-.67-2.26v-.08ZM62.81,31.89c0,.69.14,1.23.43,1.62.28.39.68.58,1.18.58.66,0,1.14-.3,1.44-.89v-2.79c-.31-.57-.79-.86-1.43-.86-.51,0-.91.2-1.19.59s-.43.98-.43,1.75Z" /><path class="cls-30" d="M70.74,34.97c-.82,0-1.49-.27-2.01-.81-.52-.54-.77-1.26-.77-2.17v-.19c0-.6.11-1.14.35-1.61.23-.47.55-.84.97-1.11.41-.27.86-.4,1.34-.4.79,0,1.4.26,1.84.78.44.52.66,1.27.66,2.23v.43h-4.12c.02.6.19,1.08.52,1.45.33.37.76.55,1.28.55.37,0,.68-.07.93-.22.25-.15.48-.35.67-.6l.63.49c-.51.78-1.27,1.17-2.29,1.17ZM70.61,29.52c-.42,0-.77.15-1.06.46-.28.31-.46.73-.53,1.28h3.04v-.08c-.03-.53-.17-.94-.43-1.23-.25-.29-.6-.44-1.03-.44Z" /><path class="cls-30" d="M74.05,34.31c0-.18.05-.33.16-.45.11-.12.27-.18.48-.18s.38.06.49.18c.11.12.17.27.17.45s-.06.32-.17.43-.27.17-.49.17-.37-.06-.48-.17c-.11-.12-.16-.26-.16-.43Z" /></g><g><path class="cls-30" d="M120.48,3.56h-2.63v7.29h-1.07V3.56h-2.62v-.88h6.32v.88Z" /><path class="cls-30" d="M122.28,5.52c.46-.57,1.06-.85,1.8-.85,1.28,0,1.93.72,1.94,2.17v4.01h-1.04v-4.02c0-.44-.1-.76-.3-.97-.2-.21-.5-.31-.92-.31-.34,0-.63.09-.89.27-.25.18-.45.42-.59.71v4.33h-1.04V2.23h1.04v3.28Z" /><path class="cls-30" d="M127.3,3.17c0-.17.05-.31.15-.43.1-.12.26-.17.46-.17s.36.06.46.17c.1.12.16.26.16.43s-.05.31-.16.42-.26.17-.46.17-.35-.06-.46-.17-.15-.25-.15-.42ZM128.42,10.86h-1.04v-6.08h1.04v6.08Z" /><path class="cls-30" d="M133.33,9.24c0-.28-.11-.5-.32-.65-.21-.16-.58-.29-1.11-.4s-.94-.25-1.25-.4c-.31-.16-.54-.34-.69-.56-.15-.22-.22-.48-.22-.77,0-.5.21-.92.63-1.26.42-.34.96-.52,1.61-.52.69,0,1.25.18,1.68.53.43.36.64.81.64,1.36h-1.04c0-.28-.12-.53-.36-.74-.24-.21-.55-.31-.91-.31s-.67.08-.89.25c-.21.16-.32.38-.32.65,0,.25.1.44.3.57.2.13.56.25,1.08.36.52.12.94.25,1.26.42.32.16.56.35.72.58.16.23.23.5.23.83,0,.54-.22.98-.65,1.31-.43.33-1,.49-1.69.49-.49,0-.92-.09-1.29-.26s-.67-.41-.88-.72-.32-.64-.32-1h1.04c.02.35.16.62.42.83.26.2.6.31,1.03.31.39,0,.71-.08.95-.24.24-.16.36-.37.36-.64Z" /><path class="cls-30" d="M140.43,10.12c.37,0,.69-.11.97-.34.28-.22.43-.51.46-.84h.98c-.02.35-.14.68-.36.99s-.52.57-.88.75-.76.28-1.17.28c-.83,0-1.49-.28-1.97-.83-.49-.55-.73-1.31-.73-2.27v-.17c0-.59.11-1.12.33-1.58s.53-.82.94-1.07c.41-.25.89-.38,1.44-.38.68,0,1.25.2,1.7.61.45.41.69.94.72,1.59h-.98c-.03-.39-.18-.72-.45-.97s-.6-.38-.99-.38c-.53,0-.94.19-1.23.57-.29.38-.44.93-.44,1.65v.2c0,.7.14,1.24.43,1.62.29.38.7.57,1.24.57Z" /><path class="cls-30" d="M147.48,10.26c-.4.48-1,.71-1.78.71-.65,0-1.14-.19-1.48-.56s-.51-.93-.51-1.67v-3.95h1.04v3.93c0,.92.37,1.38,1.12,1.38.79,0,1.32-.3,1.58-.89v-4.42h1.04v6.08h-.99l-.02-.6Z" /><path class="cls-30" d="M154.92,7.89c0,.93-.21,1.67-.64,2.24-.43.56-1,.85-1.72.85-.77,0-1.36-.27-1.78-.81l-.05.7h-.95V2.23h1.04v3.22c.42-.52,1-.78,1.73-.78s1.32.28,1.74.84c.42.56.63,1.32.63,2.29v.09ZM153.89,7.77c0-.71-.14-1.25-.41-1.64-.27-.39-.67-.58-1.18-.58-.69,0-1.18.32-1.48.95v2.63c.32.64.81.95,1.49.95.5,0,.89-.19,1.16-.58.28-.39.42-.97.42-1.74Z" /><path class="cls-30" d="M158.47,10.97c-.82,0-1.49-.27-2.01-.81-.52-.54-.77-1.26-.77-2.17v-.19c0-.6.11-1.14.35-1.61.23-.47.55-.84.97-1.11.41-.27.86-.4,1.34-.4.79,0,1.4.26,1.84.78.44.52.66,1.27.66,2.23v.43h-4.12c.02.6.19,1.08.52,1.45.33.37.76.55,1.28.55.37,0,.68-.07.93-.22.25-.15.48-.35.67-.6l.63.49c-.51.78-1.27,1.17-2.29,1.17ZM158.34,5.52c-.42,0-.77.15-1.06.46-.28.31-.46.73-.53,1.28h3.04v-.08c-.03-.53-.17-.94-.43-1.23-.25-.29-.6-.44-1.03-.44Z" /><path class="cls-30" d="M165.35,5.52c.46-.57,1.06-.85,1.8-.85,1.28,0,1.93.72,1.94,2.17v4.01h-1.04v-4.02c0-.44-.1-.76-.3-.97-.2-.21-.5-.31-.92-.31-.34,0-.63.09-.89.27-.25.18-.45.42-.59.71v4.33h-1.04V2.23h1.04v3.28Z" /><path class="cls-30" d="M174.11,10.86c-.06-.12-.11-.33-.15-.64-.48.5-1.06.75-1.73.75-.6,0-1.09-.17-1.47-.51-.38-.34-.58-.77-.58-1.29,0-.63.24-1.12.72-1.47.48-.35,1.16-.53,2.03-.53h1.01v-.48c0-.36-.11-.65-.33-.87-.22-.22-.54-.32-.96-.32-.37,0-.68.09-.93.28-.25.19-.38.41-.38.68h-1.04c0-.3.11-.6.32-.88.22-.28.51-.51.88-.67.37-.16.77-.25,1.22-.25.7,0,1.25.18,1.65.53.4.35.6.83.62,1.45v2.8c0,.56.07,1,.21,1.33v.09h-1.09ZM172.38,10.06c.33,0,.63-.08.93-.25s.5-.39.63-.66v-1.25h-.81c-1.27,0-1.91.37-1.91,1.12,0,.33.11.58.33.76.22.18.5.28.84.28Z" /><path class="cls-30" d="M179.86,9.24c0-.28-.11-.5-.32-.65-.21-.16-.58-.29-1.11-.4s-.94-.25-1.25-.4c-.31-.16-.54-.34-.69-.56-.15-.22-.22-.48-.22-.77,0-.5.21-.92.63-1.26.42-.34.96-.52,1.61-.52.69,0,1.25.18,1.68.53.43.36.64.81.64,1.36h-1.04c0-.28-.12-.53-.36-.74-.24-.21-.55-.31-.91-.31s-.67.08-.89.25c-.21.16-.32.38-.32.65,0,.25.1.44.3.57.2.13.56.25,1.08.36.52.12.94.25,1.26.42.32.16.56.35.72.58.16.23.23.5.23.83,0,.54-.22.98-.65,1.31-.43.33-1,.49-1.69.49-.49,0-.92-.09-1.29-.26s-.67-.41-.88-.72-.32-.64-.32-1h1.04c.02.35.16.62.42.83.26.2.6.31,1.03.31.39,0,.71-.08.95-.24.24-.16.36-.37.36-.64Z" /><path class="cls-34" d="M114.08,18.84l.47-4.16h4.58v1.35h-3.25l-.2,1.76c.39-.21.8-.31,1.23-.31.78,0,1.39.24,1.83.72s.66,1.16.66,2.03c0,.53-.11,1-.33,1.42-.22.42-.54.74-.96.97s-.91.35-1.47.35c-.49,0-.95-.1-1.38-.3-.42-.2-.76-.48-1-.85-.25-.36-.38-.78-.39-1.24h1.61c.03.34.15.61.36.79.2.19.47.28.8.28.37,0,.65-.13.85-.4s.3-.64.3-1.12-.11-.82-.34-1.07-.55-.37-.97-.37c-.39,0-.7.1-.94.3l-.16.15-1.29-.32Z" /><path class="cls-30" d="M123.45,22.86v-5.27h-.96v-.8h.96v-.62c0-.65.17-1.15.52-1.51.35-.36.84-.53,1.48-.53.24,0,.48.03.71.09l-.06.84c-.18-.03-.36-.05-.56-.05-.34,0-.6.1-.78.3-.18.2-.28.48-.28.85v.64h1.3v.8h-1.3v5.27h-1.04Z" /><path class="cls-30" d="M130.4,22.86c-.06-.12-.11-.33-.15-.64-.48.5-1.06.75-1.73.75-.6,0-1.09-.17-1.47-.51-.38-.34-.58-.77-.58-1.29,0-.63.24-1.12.72-1.47.48-.35,1.16-.53,2.03-.53h1.01v-.48c0-.36-.11-.65-.33-.87-.22-.22-.54-.32-.96-.32-.37,0-.68.09-.93.28-.25.19-.38.41-.38.68h-1.04c0-.3.11-.6.32-.88.22-.28.51-.51.88-.67.37-.16.77-.25,1.22-.25.7,0,1.25.18,1.65.53.4.35.6.83.62,1.45v2.8c0,.56.07,1,.21,1.33v.09h-1.09ZM128.68,22.06c.33,0,.63-.08.93-.25s.5-.39.63-.66v-1.25h-.81c-1.27,0-1.91.37-1.91,1.12,0,.33.11.58.33.76.22.18.5.28.84.28Z" /><path class="cls-30" d="M135.05,22.12c.37,0,.69-.11.97-.34.28-.22.43-.51.46-.84h.98c-.02.35-.14.68-.36.99s-.52.57-.88.75-.76.28-1.17.28c-.83,0-1.49-.28-1.97-.83-.49-.55-.73-1.31-.73-2.27v-.17c0-.59.11-1.12.33-1.58s.53-.82.94-1.07c.41-.25.89-.38,1.44-.38.68,0,1.25.2,1.7.61.45.41.69.94.72,1.59h-.98c-.03-.39-.18-.72-.45-.97s-.6-.38-.99-.38c-.53,0-.94.19-1.23.57-.29.38-.44.93-.44,1.65v.2c0,.7.14,1.24.43,1.62.29.38.7.57,1.24.57Z" /><path class="cls-30" d="M140.87,22.97c-.82,0-1.49-.27-2.01-.81-.52-.54-.77-1.26-.77-2.17v-.19c0-.6.11-1.14.35-1.61.23-.47.55-.84.97-1.11.41-.27.86-.4,1.34-.4.79,0,1.4.26,1.84.78.44.52.66,1.27.66,2.23v.43h-4.12c.02.6.19,1.08.52,1.45.33.37.76.55,1.28.55.37,0,.68-.07.93-.22.25-.15.48-.35.67-.6l.63.49c-.51.78-1.27,1.17-2.29,1.17ZM140.74,17.52c-.42,0-.77.15-1.06.46-.28.31-.46.73-.53,1.28h3.04v-.08c-.03-.53-.17-.94-.43-1.23-.25-.29-.6-.44-1.03-.44Z" /><path class="cls-30" d="M147.69,21.24c0-.28-.11-.5-.32-.65-.21-.16-.58-.29-1.11-.4s-.94-.25-1.25-.4c-.31-.16-.54-.34-.69-.56-.15-.22-.22-.48-.22-.77,0-.5.21-.92.63-1.26.42-.34.96-.52,1.61-.52.69,0,1.25.18,1.68.53.43.36.64.81.64,1.36h-1.04c0-.28-.12-.53-.36-.74-.24-.21-.55-.31-.91-.31s-.67.08-.89.25c-.21.16-.32.38-.32.65,0,.25.1.44.3.57.2.13.56.25,1.08.36.52.12.94.25,1.26.42.32.16.56.35.72.58.16.23.23.5.23.83,0,.54-.22.98-.65,1.31-.43.33-1,.49-1.69.49-.49,0-.92-.09-1.29-.26s-.67-.41-.88-.72-.32-.64-.32-1h1.04c.02.35.16.62.42.83.26.2.6.31,1.03.31.39,0,.71-.08.95-.24.24-.16.36-.37.36-.64Z" /><path class="cls-30" d="M152.08,19.76c0-.6.12-1.13.35-1.61.23-.48.56-.84.98-1.1s.89-.39,1.43-.39c.83,0,1.5.29,2.01.86.51.57.77,1.33.77,2.29v.07c0,.59-.11,1.12-.34,1.59-.23.47-.55.84-.97,1.1-.42.26-.91.39-1.45.39-.82,0-1.49-.29-2-.86-.51-.57-.77-1.33-.77-2.27v-.07ZM153.12,19.89c0,.67.16,1.21.47,1.62.31.41.73.61,1.25.61s.95-.21,1.26-.62c.31-.41.47-.99.47-1.74,0-.67-.16-1.21-.47-1.62-.32-.41-.74-.62-1.26-.62s-.93.2-1.24.61c-.31.41-.47.99-.47,1.75Z" /><path class="cls-30" d="M159.61,16.78l.03.76c.46-.58,1.07-.88,1.82-.88,1.28,0,1.93.72,1.94,2.17v4.01h-1.04v-4.02c0-.44-.1-.76-.3-.97-.2-.21-.5-.31-.92-.31-.34,0-.63.09-.89.27-.25.18-.45.42-.59.71v4.33h-1.04v-6.08h.98Z" /><path class="cls-30" d="M168.65,15.31v1.47h1.13v.8h-1.13v3.77c0,.24.05.43.15.55.1.12.27.18.52.18.12,0,.28-.02.49-.07v.84c-.27.07-.54.11-.8.11-.46,0-.81-.14-1.05-.42-.24-.28-.35-.68-.35-1.2v-3.77h-1.11v-.8h1.11v-1.47h1.04Z" /><path class="cls-30" d="M171.75,17.52c.46-.57,1.06-.85,1.8-.85,1.28,0,1.93.72,1.94,2.17v4.01h-1.04v-4.02c0-.44-.1-.76-.3-.97-.2-.21-.5-.31-.92-.31-.34,0-.63.09-.89.27-.25.18-.45.42-.59.71v4.33h-1.04v-8.62h1.04v3.28Z" /><path class="cls-30" d="M179.28,22.97c-.82,0-1.49-.27-2.01-.81-.52-.54-.77-1.26-.77-2.17v-.19c0-.6.11-1.14.35-1.61.23-.47.55-.84.97-1.11.41-.27.86-.4,1.34-.4.79,0,1.4.26,1.84.78.44.52.66,1.27.66,2.23v.43h-4.12c.02.6.19,1.08.52,1.45.33.37.76.55,1.28.55.37,0,.68-.07.93-.22.25-.15.48-.35.67-.6l.63.49c-.51.78-1.27,1.17-2.29,1.17ZM179.15,17.52c-.42,0-.77.15-1.06.46-.28.31-.46.73-.53,1.28h3.04v-.08c-.03-.53-.17-.94-.43-1.23-.25-.29-.6-.44-1.03-.44Z" /><path class="cls-30" d="M128.7,31.76c0-.6.12-1.13.35-1.61.23-.48.56-.84.98-1.1s.89-.39,1.43-.39c.83,0,1.5.29,2.01.86.51.57.77,1.33.77,2.29v.07c0,.59-.11,1.12-.34,1.59-.23.47-.55.84-.97,1.1-.42.26-.91.39-1.45.39-.82,0-1.49-.29-2-.86-.51-.57-.77-1.33-.77-2.27v-.07ZM129.75,31.89c0,.67.16,1.21.47,1.62.31.41.73.61,1.25.61s.95-.21,1.26-.62c.31-.41.47-.99.47-1.74,0-.67-.16-1.21-.47-1.62-.32-.41-.74-.62-1.26-.62s-.93.2-1.24.61c-.31.41-.47.99-.47,1.75Z" /><path class="cls-30" d="M139,34.26c-.4.48-1,.71-1.78.71-.65,0-1.14-.19-1.48-.56s-.51-.93-.51-1.67v-3.95h1.04v3.93c0,.92.37,1.38,1.12,1.38.79,0,1.32-.3,1.58-.89v-4.42h1.04v6.08h-.99l-.02-.6Z" /><path class="cls-30" d="M142.71,27.31v1.47h1.13v.8h-1.13v3.77c0,.24.05.43.15.55.1.12.27.18.52.18.12,0,.28-.02.49-.07v.84c-.27.07-.54.11-.8.11-.46,0-.81-.14-1.05-.42-.24-.28-.35-.68-.35-1.2v-3.77h-1.11v-.8h1.11v-1.47h1.04Z" /><path class="cls-30" d="M148.31,33.24c0-.28-.11-.5-.32-.65-.21-.16-.58-.29-1.11-.4s-.94-.25-1.25-.4c-.31-.16-.54-.34-.69-.56-.15-.22-.22-.48-.22-.77,0-.5.21-.92.63-1.26.42-.34.96-.52,1.61-.52.69,0,1.25.18,1.68.53.43.36.64.81.64,1.36h-1.04c0-.28-.12-.53-.36-.74-.24-.21-.55-.31-.91-.31s-.67.08-.89.25c-.21.16-.32.38-.32.65,0,.25.1.44.3.57.2.13.56.25,1.08.36.52.12.94.25,1.26.42.32.16.56.35.72.58.16.23.23.5.23.83,0,.54-.22.98-.65,1.31-.43.33-1,.49-1.69.49-.49,0-.92-.09-1.29-.26s-.67-.41-.88-.72-.32-.64-.32-1h1.04c.02.35.16.62.42.83.26.2.6.31,1.03.31.39,0,.71-.08.95-.24.24-.16.36-.37.36-.64Z" /><path class="cls-30" d="M150.42,27.17c0-.17.05-.31.15-.43.1-.12.26-.17.46-.17s.36.06.46.17c.1.12.16.26.16.43s-.05.31-.16.42-.26.17-.46.17-.35-.06-.46-.17-.15-.25-.15-.42ZM151.54,34.86h-1.04v-6.08h1.04v6.08Z" /><path class="cls-30" d="M152.66,31.77c0-.93.22-1.68.66-2.25.44-.57,1.02-.85,1.73-.85s1.27.24,1.69.73v-3.17h1.04v8.62h-.95l-.05-.65c-.42.51-.99.76-1.74.76s-1.28-.29-1.72-.86c-.44-.58-.67-1.33-.67-2.26v-.08ZM153.7,31.89c0,.69.14,1.23.43,1.62.28.39.68.58,1.18.58.66,0,1.14-.3,1.44-.89v-2.79c-.31-.57-.79-.86-1.43-.86-.51,0-.91.2-1.19.59s-.43.98-.43,1.75Z" /><path class="cls-30" d="M161.64,34.97c-.82,0-1.49-.27-2.01-.81-.52-.54-.77-1.26-.77-2.17v-.19c0-.6.11-1.14.35-1.61.23-.47.55-.84.97-1.11.41-.27.86-.4,1.34-.4.79,0,1.4.26,1.84.78.44.52.66,1.27.66,2.23v.43h-4.12c.02.6.19,1.08.52,1.45.33.37.76.55,1.28.55.37,0,.68-.07.93-.22.25-.15.48-.35.67-.6l.63.49c-.51.78-1.27,1.17-2.29,1.17ZM161.51,29.52c-.42,0-.77.15-1.06.46-.28.31-.46.73-.53,1.28h3.04v-.08c-.03-.53-.17-.94-.43-1.23-.25-.29-.6-.44-1.03-.44Z" /><path class="cls-30" d="M164.94,34.31c0-.18.05-.33.16-.45.11-.12.27-.18.48-.18s.38.06.49.18c.11.12.17.27.17.45s-.06.32-.17.43-.27.17-.49.17-.37-.06-.48-.17c-.11-.12-.16-.26-.16-.43Z" /></g><g><path class="cls-30" d="M211.38,3.56h-2.63v7.29h-1.07V3.56h-2.62v-.88h6.32v.88Z" /><path class="cls-30" d="M213.18,5.52c.46-.57,1.06-.85,1.8-.85,1.28,0,1.93.72,1.94,2.17v4.01h-1.04v-4.02c0-.44-.1-.76-.3-.97-.2-.21-.5-.31-.92-.31-.34,0-.63.09-.89.27-.25.18-.45.42-.59.71v4.33h-1.04V2.23h1.04v3.28Z" /><path class="cls-30" d="M218.19,3.17c0-.17.05-.31.15-.43.1-.12.26-.17.46-.17s.36.06.46.17c.1.12.16.26.16.43s-.05.31-.16.42-.26.17-.46.17-.35-.06-.46-.17-.15-.25-.15-.42ZM219.32,10.86h-1.04v-6.08h1.04v6.08Z" /><path class="cls-30" d="M224.23,9.24c0-.28-.11-.5-.32-.65-.21-.16-.58-.29-1.11-.4s-.94-.25-1.25-.4c-.31-.16-.54-.34-.69-.56-.15-.22-.22-.48-.22-.77,0-.5.21-.92.63-1.26.42-.34.96-.52,1.61-.52.69,0,1.25.18,1.68.53.43.36.64.81.64,1.36h-1.04c0-.28-.12-.53-.36-.74-.24-.21-.55-.31-.91-.31s-.67.08-.89.25c-.21.16-.32.38-.32.65,0,.25.1.44.3.57.2.13.56.25,1.08.36.52.12.94.25,1.26.42.32.16.56.35.72.58.16.23.23.5.23.83,0,.54-.22.98-.65,1.31-.43.33-1,.49-1.69.49-.49,0-.92-.09-1.29-.26s-.67-.41-.88-.72-.32-.64-.32-1h1.04c.02.35.16.62.42.83.26.2.6.31,1.03.31.39,0,.71-.08.95-.24.24-.16.36-.37.36-.64Z" /><path class="cls-30" d="M231.33,10.12c.37,0,.69-.11.97-.34.28-.22.43-.51.46-.84h.98c-.02.35-.14.68-.36.99s-.52.57-.88.75-.76.28-1.17.28c-.83,0-1.49-.28-1.97-.83-.49-.55-.73-1.31-.73-2.27v-.17c0-.59.11-1.12.33-1.58s.53-.82.94-1.07c.41-.25.89-.38,1.44-.38.68,0,1.25.2,1.7.61.45.41.69.94.72,1.59h-.98c-.03-.39-.18-.72-.45-.97s-.6-.38-.99-.38c-.53,0-.94.19-1.23.57-.29.38-.44.93-.44,1.65v.2c0,.7.14,1.24.43,1.62.29.38.7.57,1.24.57Z" /><path class="cls-30" d="M238.37,10.26c-.4.48-1,.71-1.78.71-.65,0-1.14-.19-1.48-.56s-.51-.93-.51-1.67v-3.95h1.04v3.93c0,.92.37,1.38,1.12,1.38.79,0,1.32-.3,1.58-.89v-4.42h1.04v6.08h-.99l-.02-.6Z" /><path class="cls-30" d="M245.82,7.89c0,.93-.21,1.67-.64,2.24-.43.56-1,.85-1.72.85-.77,0-1.36-.27-1.78-.81l-.05.7h-.95V2.23h1.04v3.22c.42-.52,1-.78,1.73-.78s1.32.28,1.74.84c.42.56.63,1.32.63,2.29v.09ZM244.78,7.77c0-.71-.14-1.25-.41-1.64-.27-.39-.67-.58-1.18-.58-.69,0-1.18.32-1.48.95v2.63c.32.64.81.95,1.49.95.5,0,.89-.19,1.16-.58.28-.39.42-.97.42-1.74Z" /><path class="cls-30" d="M249.36,10.97c-.82,0-1.49-.27-2.01-.81-.52-.54-.77-1.26-.77-2.17v-.19c0-.6.11-1.14.35-1.61.23-.47.55-.84.97-1.11.41-.27.86-.4,1.34-.4.79,0,1.4.26,1.84.78.44.52.66,1.27.66,2.23v.43h-4.12c.02.6.19,1.08.52,1.45.33.37.76.55,1.28.55.37,0,.68-.07.93-.22.25-.15.48-.35.67-.6l.63.49c-.51.78-1.27,1.17-2.29,1.17ZM249.23,5.52c-.42,0-.77.15-1.06.46-.28.31-.46.73-.53,1.28h3.04v-.08c-.03-.53-.17-.94-.43-1.23-.25-.29-.6-.44-1.03-.44Z" /><path class="cls-30" d="M256.24,5.52c.46-.57,1.06-.85,1.8-.85,1.28,0,1.93.72,1.94,2.17v4.01h-1.04v-4.02c0-.44-.1-.76-.3-.97-.2-.21-.5-.31-.92-.31-.34,0-.63.09-.89.27-.25.18-.45.42-.59.71v4.33h-1.04V2.23h1.04v3.28Z" /><path class="cls-30" d="M265,10.86c-.06-.12-.11-.33-.15-.64-.48.5-1.06.75-1.73.75-.6,0-1.09-.17-1.47-.51-.38-.34-.58-.77-.58-1.29,0-.63.24-1.12.72-1.47.48-.35,1.16-.53,2.03-.53h1.01v-.48c0-.36-.11-.65-.33-.87-.22-.22-.54-.32-.96-.32-.37,0-.68.09-.93.28-.25.19-.38.41-.38.68h-1.04c0-.3.11-.6.32-.88.22-.28.51-.51.88-.67.37-.16.77-.25,1.22-.25.7,0,1.25.18,1.65.53.4.35.6.83.62,1.45v2.8c0,.56.07,1,.21,1.33v.09h-1.09ZM263.28,10.06c.33,0,.63-.08.93-.25s.5-.39.63-.66v-1.25h-.81c-1.27,0-1.91.37-1.91,1.12,0,.33.11.58.33.76.22.18.5.28.84.28Z" /><path class="cls-30" d="M270.76,9.24c0-.28-.11-.5-.32-.65-.21-.16-.58-.29-1.11-.4s-.94-.25-1.25-.4c-.31-.16-.54-.34-.69-.56-.15-.22-.22-.48-.22-.77,0-.5.21-.92.63-1.26.42-.34.96-.52,1.61-.52.69,0,1.25.18,1.68.53.43.36.64.81.64,1.36h-1.04c0-.28-.12-.53-.36-.74-.24-.21-.55-.31-.91-.31s-.67.08-.89.25c-.21.16-.32.38-.32.65,0,.25.1.44.3.57.2.13.56.25,1.08.36.52.12.94.25,1.26.42.32.16.56.35.72.58.16.23.23.5.23.83,0,.54-.22.98-.65,1.31-.43.33-1,.49-1.69.49-.49,0-.92-.09-1.29-.26s-.67-.41-.88-.72-.32-.64-.32-1h1.04c.02.35.16.62.42.83.26.2.6.31,1.03.31.39,0,.71-.08.95-.24.24-.16.36-.37.36-.64Z" /><path class="cls-34" d="M204.98,18.84l.47-4.16h4.58v1.35h-3.25l-.2,1.76c.39-.21.8-.31,1.23-.31.78,0,1.39.24,1.83.72s.66,1.16.66,2.03c0,.53-.11,1-.33,1.42-.22.42-.54.74-.96.97s-.91.35-1.47.35c-.49,0-.95-.1-1.38-.3-.42-.2-.76-.48-1-.85-.25-.36-.38-.78-.39-1.24h1.61c.03.34.15.61.36.79.2.19.47.28.8.28.37,0,.65-.13.85-.4s.3-.64.3-1.12-.11-.82-.34-1.07-.55-.37-.97-.37c-.39,0-.7.1-.94.3l-.16.15-1.29-.32Z" /><path class="cls-30" d="M214.35,22.86v-5.27h-.96v-.8h.96v-.62c0-.65.17-1.15.52-1.51.35-.36.84-.53,1.48-.53.24,0,.48.03.71.09l-.06.84c-.18-.03-.36-.05-.56-.05-.34,0-.6.1-.78.3-.18.2-.28.48-.28.85v.64h1.3v.8h-1.3v5.27h-1.04Z" /><path class="cls-30" d="M221.29,22.86c-.06-.12-.11-.33-.15-.64-.48.5-1.06.75-1.73.75-.6,0-1.09-.17-1.47-.51-.38-.34-.58-.77-.58-1.29,0-.63.24-1.12.72-1.47.48-.35,1.16-.53,2.03-.53h1.01v-.48c0-.36-.11-.65-.33-.87-.22-.22-.54-.32-.96-.32-.37,0-.68.09-.93.28-.25.19-.38.41-.38.68h-1.04c0-.3.11-.6.32-.88.22-.28.51-.51.88-.67.37-.16.77-.25,1.22-.25.7,0,1.25.18,1.65.53.4.35.6.83.62,1.45v2.8c0,.56.07,1,.21,1.33v.09h-1.09ZM219.57,22.06c.33,0,.63-.08.93-.25s.5-.39.63-.66v-1.25h-.81c-1.27,0-1.91.37-1.91,1.12,0,.33.11.58.33.76.22.18.5.28.84.28Z" /><path class="cls-30" d="M225.95,22.12c.37,0,.69-.11.97-.34.28-.22.43-.51.46-.84h.98c-.02.35-.14.68-.36.99s-.52.57-.88.75-.76.28-1.17.28c-.83,0-1.49-.28-1.97-.83-.49-.55-.73-1.31-.73-2.27v-.17c0-.59.11-1.12.33-1.58s.53-.82.94-1.07c.41-.25.89-.38,1.44-.38.68,0,1.25.2,1.7.61.45.41.69.94.72,1.59h-.98c-.03-.39-.18-.72-.45-.97s-.6-.38-.99-.38c-.53,0-.94.19-1.23.57-.29.38-.44.93-.44,1.65v.2c0,.7.14,1.24.43,1.62.29.38.7.57,1.24.57Z" /><path class="cls-30" d="M231.76,22.97c-.82,0-1.49-.27-2.01-.81-.52-.54-.77-1.26-.77-2.17v-.19c0-.6.11-1.14.35-1.61.23-.47.55-.84.97-1.11.41-.27.86-.4,1.34-.4.79,0,1.4.26,1.84.78.44.52.66,1.27.66,2.23v.43h-4.12c.02.6.19,1.08.52,1.45.33.37.76.55,1.28.55.37,0,.68-.07.93-.22.25-.15.48-.35.67-.6l.63.49c-.51.78-1.27,1.17-2.29,1.17ZM231.63,17.52c-.42,0-.77.15-1.06.46-.28.31-.46.73-.53,1.28h3.04v-.08c-.03-.53-.17-.94-.43-1.23-.25-.29-.6-.44-1.03-.44Z" /><path class="cls-30" d="M238.59,21.24c0-.28-.11-.5-.32-.65-.21-.16-.58-.29-1.11-.4s-.94-.25-1.25-.4c-.31-.16-.54-.34-.69-.56-.15-.22-.22-.48-.22-.77,0-.5.21-.92.63-1.26.42-.34.96-.52,1.61-.52.69,0,1.25.18,1.68.53.43.36.64.81.64,1.36h-1.04c0-.28-.12-.53-.36-.74-.24-.21-.55-.31-.91-.31s-.67.08-.89.25c-.21.16-.32.38-.32.65,0,.25.1.44.3.57.2.13.56.25,1.08.36.52.12.94.25,1.26.42.32.16.56.35.72.58.16.23.23.5.23.83,0,.54-.22.98-.65,1.31-.43.33-1,.49-1.69.49-.49,0-.92-.09-1.29-.26s-.67-.41-.88-.72-.32-.64-.32-1h1.04c.02.35.16.62.42.83.26.2.6.31,1.03.31.39,0,.71-.08.95-.24.24-.16.36-.37.36-.64Z" /><path class="cls-30" d="M242.97,19.76c0-.6.12-1.13.35-1.61.23-.48.56-.84.98-1.1s.89-.39,1.43-.39c.83,0,1.5.29,2.01.86.51.57.77,1.33.77,2.29v.07c0,.59-.11,1.12-.34,1.59-.23.47-.55.84-.97,1.1-.42.26-.91.39-1.45.39-.82,0-1.49-.29-2-.86-.51-.57-.77-1.33-.77-2.27v-.07ZM244.02,19.89c0,.67.16,1.21.47,1.62.31.41.73.61,1.25.61s.95-.21,1.26-.62c.31-.41.47-.99.47-1.74,0-.67-.16-1.21-.47-1.62-.32-.41-.74-.62-1.26-.62s-.93.2-1.24.61c-.31.41-.47.99-.47,1.75Z" /><path class="cls-30" d="M250.5,16.78l.03.76c.46-.58,1.07-.88,1.82-.88,1.28,0,1.93.72,1.94,2.17v4.01h-1.04v-4.02c0-.44-.1-.76-.3-.97-.2-.21-.5-.31-.92-.31-.34,0-.63.09-.89.27-.25.18-.45.42-.59.71v4.33h-1.04v-6.08h.98Z" /><path class="cls-30" d="M259.55,15.31v1.47h1.13v.8h-1.13v3.77c0,.24.05.43.15.55.1.12.27.18.52.18.12,0,.28-.02.49-.07v.84c-.27.07-.54.11-.8.11-.46,0-.81-.14-1.05-.42-.24-.28-.35-.68-.35-1.2v-3.77h-1.11v-.8h1.11v-1.47h1.04Z" /><path class="cls-30" d="M262.65,17.52c.46-.57,1.06-.85,1.8-.85,1.28,0,1.93.72,1.94,2.17v4.01h-1.04v-4.02c0-.44-.1-.76-.3-.97-.2-.21-.5-.31-.92-.31-.34,0-.63.09-.89.27-.25.18-.45.42-.59.71v4.33h-1.04v-8.62h1.04v3.28Z" /><path class="cls-30" d="M270.17,22.97c-.82,0-1.49-.27-2.01-.81-.52-.54-.77-1.26-.77-2.17v-.19c0-.6.11-1.14.35-1.61.23-.47.55-.84.97-1.11.41-.27.86-.4,1.34-.4.79,0,1.4.26,1.84.78.44.52.66,1.27.66,2.23v.43h-4.12c.02.6.19,1.08.52,1.45.33.37.76.55,1.28.55.37,0,.68-.07.93-.22.25-.15.48-.35.67-.6l.63.49c-.51.78-1.27,1.17-2.29,1.17ZM270.05,17.52c-.42,0-.77.15-1.06.46-.28.31-.46.73-.53,1.28h3.04v-.08c-.03-.53-.17-.94-.43-1.23-.25-.29-.6-.44-1.03-.44Z" /><path class="cls-30" d="M219.6,31.76c0-.6.12-1.13.35-1.61.23-.48.56-.84.98-1.1s.89-.39,1.43-.39c.83,0,1.5.29,2.01.86.51.57.77,1.33.77,2.29v.07c0,.59-.11,1.12-.34,1.59-.23.47-.55.84-.97,1.1-.42.26-.91.39-1.45.39-.82,0-1.49-.29-2-.86-.51-.57-.77-1.33-.77-2.27v-.07ZM220.64,31.89c0,.67.16,1.21.47,1.62.31.41.73.61,1.25.61s.95-.21,1.26-.62c.31-.41.47-.99.47-1.74,0-.67-.16-1.21-.47-1.62-.32-.41-.74-.62-1.26-.62s-.93.2-1.24.61c-.31.41-.47.99-.47,1.75Z" /><path class="cls-30" d="M229.9,34.26c-.4.48-1,.71-1.78.71-.65,0-1.14-.19-1.48-.56s-.51-.93-.51-1.67v-3.95h1.04v3.93c0,.92.37,1.38,1.12,1.38.79,0,1.32-.3,1.58-.89v-4.42h1.04v6.08h-.99l-.02-.6Z" /><path class="cls-30" d="M233.61,27.31v1.47h1.13v.8h-1.13v3.77c0,.24.05.43.15.55.1.12.27.18.52.18.12,0,.28-.02.49-.07v.84c-.27.07-.54.11-.8.11-.46,0-.81-.14-1.05-.42-.24-.28-.35-.68-.35-1.2v-3.77h-1.11v-.8h1.11v-1.47h1.04Z" /><path class="cls-30" d="M239.2,33.24c0-.28-.11-.5-.32-.65-.21-.16-.58-.29-1.11-.4s-.94-.25-1.25-.4c-.31-.16-.54-.34-.69-.56-.15-.22-.22-.48-.22-.77,0-.5.21-.92.63-1.26.42-.34.96-.52,1.61-.52.69,0,1.25.18,1.68.53.43.36.64.81.64,1.36h-1.04c0-.28-.12-.53-.36-.74-.24-.21-.55-.31-.91-.31s-.67.08-.89.25c-.21.16-.32.38-.32.65,0,.25.1.44.3.57.2.13.56.25,1.08.36.52.12.94.25,1.26.42.32.16.56.35.72.58.16.23.23.5.23.83,0,.54-.22.98-.65,1.31-.43.33-1,.49-1.69.49-.49,0-.92-.09-1.29-.26s-.67-.41-.88-.72-.32-.64-.32-1h1.04c.02.35.16.62.42.83.26.2.6.31,1.03.31.39,0,.71-.08.95-.24.24-.16.36-.37.36-.64Z" /><path class="cls-30" d="M241.31,27.17c0-.17.05-.31.15-.43.1-.12.26-.17.46-.17s.36.06.46.17c.1.12.16.26.16.43s-.05.31-.16.42-.26.17-.46.17-.35-.06-.46-.17-.15-.25-.15-.42ZM242.44,34.86h-1.04v-6.08h1.04v6.08Z" /><path class="cls-30" d="M243.56,31.77c0-.93.22-1.68.66-2.25.44-.57,1.02-.85,1.73-.85s1.27.24,1.69.73v-3.17h1.04v8.62h-.95l-.05-.65c-.42.51-.99.76-1.74.76s-1.28-.29-1.72-.86c-.44-.58-.67-1.33-.67-2.26v-.08ZM244.6,31.89c0,.69.14,1.23.43,1.62.28.39.68.58,1.18.58.66,0,1.14-.3,1.44-.89v-2.79c-.31-.57-.79-.86-1.43-.86-.51,0-.91.2-1.19.59s-.43.98-.43,1.75Z" /><path class="cls-30" d="M252.53,34.97c-.82,0-1.49-.27-2.01-.81-.52-.54-.77-1.26-.77-2.17v-.19c0-.6.11-1.14.35-1.61.23-.47.55-.84.97-1.11.41-.27.86-.4,1.34-.4.79,0,1.4.26,1.84.78.44.52.66,1.27.66,2.23v.43h-4.12c.02.6.19,1.08.52,1.45.33.37.76.55,1.28.55.37,0,.68-.07.93-.22.25-.15.48-.35.67-.6l.63.49c-.51.78-1.27,1.17-2.29,1.17ZM252.4,29.52c-.42,0-.77.15-1.06.46-.28.31-.46.73-.53,1.28h3.04v-.08c-.03-.53-.17-.94-.43-1.23-.25-.29-.6-.44-1.03-.44Z" /><path class="cls-30" d="M255.84,34.31c0-.18.05-.33.16-.45.11-.12.27-.18.48-.18s.38.06.49.18c.11.12.17.27.17.45s-.06.32-.17.43-.27.17-.49.17-.37-.06-.48-.17c-.11-.12-.16-.26-.16-.43Z" /></g><g><path class="cls-30" d="M306.71,3.56h-2.63v7.29h-1.07V3.56h-2.62v-.88h6.32v.88Z" /><path class="cls-30" d="M308.51,5.52c.46-.57,1.06-.85,1.8-.85,1.28,0,1.93.72,1.94,2.17v4.01h-1.04v-4.02c0-.44-.1-.76-.3-.97-.2-.21-.5-.31-.92-.31-.34,0-.63.09-.89.27-.25.18-.45.42-.59.71v4.33h-1.04V2.23h1.04v3.28Z" /><path class="cls-30" d="M313.52,3.17c0-.17.05-.31.15-.43.1-.12.26-.17.46-.17s.36.06.46.17c.1.12.16.26.16.43s-.05.31-.16.42-.26.17-.46.17-.35-.06-.46-.17-.15-.25-.15-.42ZM314.64,10.86h-1.04v-6.08h1.04v6.08Z" /><path class="cls-30" d="M319.56,9.24c0-.28-.11-.5-.32-.65-.21-.16-.58-.29-1.11-.4s-.94-.25-1.25-.4c-.31-.16-.54-.34-.69-.56-.15-.22-.22-.48-.22-.77,0-.5.21-.92.63-1.26.42-.34.96-.52,1.61-.52.69,0,1.25.18,1.68.53.43.36.64.81.64,1.36h-1.04c0-.28-.12-.53-.36-.74-.24-.21-.55-.31-.91-.31s-.67.08-.89.25c-.21.16-.32.38-.32.65,0,.25.1.44.3.57.2.13.56.25,1.08.36.52.12.94.25,1.26.42.32.16.56.35.72.58.16.23.23.5.23.83,0,.54-.22.98-.65,1.31-.43.33-1,.49-1.69.49-.49,0-.92-.09-1.29-.26s-.67-.41-.88-.72-.32-.64-.32-1h1.04c.02.35.16.62.42.83.26.2.6.31,1.03.31.39,0,.71-.08.95-.24.24-.16.36-.37.36-.64Z" /><path class="cls-30" d="M326.66,10.12c.37,0,.69-.11.97-.34.28-.22.43-.51.46-.84h.98c-.02.35-.14.68-.36.99s-.52.57-.88.75-.76.28-1.17.28c-.83,0-1.49-.28-1.97-.83-.49-.55-.73-1.31-.73-2.27v-.17c0-.59.11-1.12.33-1.58s.53-.82.94-1.07c.41-.25.89-.38,1.44-.38.68,0,1.25.2,1.7.61.45.41.69.94.72,1.59h-.98c-.03-.39-.18-.72-.45-.97s-.6-.38-.99-.38c-.53,0-.94.19-1.23.57-.29.38-.44.93-.44,1.65v.2c0,.7.14,1.24.43,1.62.29.38.7.57,1.24.57Z" /><path class="cls-30" d="M333.7,10.26c-.4.48-1,.71-1.78.71-.65,0-1.14-.19-1.48-.56s-.51-.93-.51-1.67v-3.95h1.04v3.93c0,.92.37,1.38,1.12,1.38.79,0,1.32-.3,1.58-.89v-4.42h1.04v6.08h-.99l-.02-.6Z" /><path class="cls-30" d="M341.15,7.89c0,.93-.21,1.67-.64,2.24-.43.56-1,.85-1.72.85-.77,0-1.36-.27-1.78-.81l-.05.7h-.95V2.23h1.04v3.22c.42-.52,1-.78,1.73-.78s1.32.28,1.74.84c.42.56.63,1.32.63,2.29v.09ZM340.11,7.77c0-.71-.14-1.25-.41-1.64-.27-.39-.67-.58-1.18-.58-.69,0-1.18.32-1.48.95v2.63c.32.64.81.95,1.49.95.5,0,.89-.19,1.16-.58.28-.39.42-.97.42-1.74Z" /><path class="cls-30" d="M344.69,10.97c-.82,0-1.49-.27-2.01-.81-.52-.54-.77-1.26-.77-2.17v-.19c0-.6.11-1.14.35-1.61.23-.47.55-.84.97-1.11.41-.27.86-.4,1.34-.4.79,0,1.4.26,1.84.78.44.52.66,1.27.66,2.23v.43h-4.12c.02.6.19,1.08.52,1.45.33.37.76.55,1.28.55.37,0,.68-.07.93-.22.25-.15.48-.35.67-.6l.63.49c-.51.78-1.27,1.17-2.29,1.17ZM344.56,5.52c-.42,0-.77.15-1.06.46-.28.31-.46.73-.53,1.28h3.04v-.08c-.03-.53-.17-.94-.43-1.23-.25-.29-.6-.44-1.03-.44Z" /><path class="cls-30" d="M351.57,5.52c.46-.57,1.06-.85,1.8-.85,1.28,0,1.93.72,1.94,2.17v4.01h-1.04v-4.02c0-.44-.1-.76-.3-.97-.2-.21-.5-.31-.92-.31-.34,0-.63.09-.89.27-.25.18-.45.42-.59.71v4.33h-1.04V2.23h1.04v3.28Z" /><path class="cls-30" d="M360.33,10.86c-.06-.12-.11-.33-.15-.64-.48.5-1.06.75-1.73.75-.6,0-1.09-.17-1.47-.51-.38-.34-.58-.77-.58-1.29,0-.63.24-1.12.72-1.47.48-.35,1.16-.53,2.03-.53h1.01v-.48c0-.36-.11-.65-.33-.87-.22-.22-.54-.32-.96-.32-.37,0-.68.09-.93.28-.25.19-.38.41-.38.68h-1.04c0-.3.11-.6.32-.88.22-.28.51-.51.88-.67.37-.16.77-.25,1.22-.25.7,0,1.25.18,1.65.53.4.35.6.83.62,1.45v2.8c0,.56.07,1,.21,1.33v.09h-1.09ZM358.61,10.06c.33,0,.63-.08.93-.25s.5-.39.63-.66v-1.25h-.81c-1.27,0-1.91.37-1.91,1.12,0,.33.11.58.33.76.22.18.5.28.84.28Z" /><path class="cls-30" d="M366.09,9.24c0-.28-.11-.5-.32-.65-.21-.16-.58-.29-1.11-.4s-.94-.25-1.25-.4c-.31-.16-.54-.34-.69-.56-.15-.22-.22-.48-.22-.77,0-.5.21-.92.63-1.26.42-.34.96-.52,1.61-.52.69,0,1.25.18,1.68.53.43.36.64.81.64,1.36h-1.04c0-.28-.12-.53-.36-.74-.24-.21-.55-.31-.91-.31s-.67.08-.89.25c-.21.16-.32.38-.32.65,0,.25.1.44.3.57.2.13.56.25,1.08.36.52.12.94.25,1.26.42.32.16.56.35.72.58.16.23.23.5.23.83,0,.54-.22.98-.65,1.31-.43.33-1,.49-1.69.49-.49,0-.92-.09-1.29-.26s-.67-.41-.88-.72-.32-.64-.32-1h1.04c.02.35.16.62.42.83.26.2.6.31,1.03.31.39,0,.71-.08.95-.24.24-.16.36-.37.36-.64Z" /><path class="cls-34" d="M301.72,18.05h.86c.41,0,.72-.1.92-.31.2-.21.3-.48.3-.82s-.1-.59-.29-.77c-.2-.18-.47-.28-.81-.28-.31,0-.57.09-.78.26-.21.17-.31.39-.31.67h-1.62c0-.43.12-.81.35-1.15.23-.34.55-.6.97-.79s.87-.29,1.37-.29c.87,0,1.54.21,2.03.62.49.41.74.98.74,1.71,0,.37-.11.72-.34,1.03-.23.31-.53.56-.9.72.46.16.8.41,1.03.74.23.33.34.72.34,1.17,0,.73-.26,1.31-.79,1.75s-1.23.66-2.1.66c-.82,0-1.48-.22-2-.65-.52-.43-.78-1-.78-1.71h1.62c0,.31.11.56.35.75.23.19.51.29.85.29.39,0,.69-.1.91-.31.22-.2.33-.47.33-.81,0-.82-.45-1.22-1.35-1.22h-.86v-1.27Z" /><path class="cls-30" d="M309.68,22.86v-5.27h-.96v-.8h.96v-.62c0-.65.17-1.15.52-1.51.35-.36.84-.53,1.48-.53.24,0,.48.03.71.09l-.06.84c-.18-.03-.36-.05-.56-.05-.34,0-.6.1-.78.3-.18.2-.28.48-.28.85v.64h1.3v.8h-1.3v5.27h-1.04Z" /><path class="cls-30" d="M316.62,22.86c-.06-.12-.11-.33-.15-.64-.48.5-1.06.75-1.73.75-.6,0-1.09-.17-1.47-.51-.38-.34-.58-.77-.58-1.29,0-.63.24-1.12.72-1.47.48-.35,1.16-.53,2.03-.53h1.01v-.48c0-.36-.11-.65-.33-.87-.22-.22-.54-.32-.96-.32-.37,0-.68.09-.93.28-.25.19-.38.41-.38.68h-1.04c0-.3.11-.6.32-.88.22-.28.51-.51.88-.67.37-.16.77-.25,1.22-.25.7,0,1.25.18,1.65.53.4.35.6.83.62,1.45v2.8c0,.56.07,1,.21,1.33v.09h-1.09ZM314.9,22.06c.33,0,.63-.08.93-.25s.5-.39.63-.66v-1.25h-.81c-1.27,0-1.91.37-1.91,1.12,0,.33.11.58.33.76.22.18.5.28.84.28Z" /><path class="cls-30" d="M321.28,22.12c.37,0,.69-.11.97-.34.28-.22.43-.51.46-.84h.98c-.02.35-.14.68-.36.99s-.52.57-.88.75-.76.28-1.17.28c-.83,0-1.49-.28-1.97-.83-.49-.55-.73-1.31-.73-2.27v-.17c0-.59.11-1.12.33-1.58s.53-.82.94-1.07c.41-.25.89-.38,1.44-.38.68,0,1.25.2,1.7.61.45.41.69.94.72,1.59h-.98c-.03-.39-.18-.72-.45-.97s-.6-.38-.99-.38c-.53,0-.94.19-1.23.57-.29.38-.44.93-.44,1.65v.2c0,.7.14,1.24.43,1.62.29.38.7.57,1.24.57Z" /><path class="cls-30" d="M327.09,22.97c-.82,0-1.49-.27-2.01-.81-.52-.54-.77-1.26-.77-2.17v-.19c0-.6.11-1.14.35-1.61.23-.47.55-.84.97-1.11.41-.27.86-.4,1.34-.4.79,0,1.4.26,1.84.78.44.52.66,1.27.66,2.23v.43h-4.12c.02.6.19,1.08.52,1.45.33.37.76.55,1.28.55.37,0,.68-.07.93-.22.25-.15.48-.35.67-.6l.63.49c-.51.78-1.27,1.17-2.29,1.17ZM326.96,17.52c-.42,0-.77.15-1.06.46-.28.31-.46.73-.53,1.28h3.04v-.08c-.03-.53-.17-.94-.43-1.23-.25-.29-.6-.44-1.03-.44Z" /><path class="cls-30" d="M333.91,21.24c0-.28-.11-.5-.32-.65-.21-.16-.58-.29-1.11-.4s-.94-.25-1.25-.4c-.31-.16-.54-.34-.69-.56-.15-.22-.22-.48-.22-.77,0-.5.21-.92.63-1.26.42-.34.96-.52,1.61-.52.69,0,1.25.18,1.68.53.43.36.64.81.64,1.36h-1.04c0-.28-.12-.53-.36-.74-.24-.21-.55-.31-.91-.31s-.67.08-.89.25c-.21.16-.32.38-.32.65,0,.25.1.44.3.57.2.13.56.25,1.08.36.52.12.94.25,1.26.42.32.16.56.35.72.58.16.23.23.5.23.83,0,.54-.22.98-.65,1.31-.43.33-1,.49-1.69.49-.49,0-.92-.09-1.29-.26s-.67-.41-.88-.72-.32-.64-.32-1h1.04c.02.35.16.62.42.83.26.2.6.31,1.03.31.39,0,.71-.08.95-.24.24-.16.36-.37.36-.64Z" /><path class="cls-30" d="M338.3,19.76c0-.6.12-1.13.35-1.61.23-.48.56-.84.98-1.1s.89-.39,1.43-.39c.83,0,1.5.29,2.01.86.51.57.77,1.33.77,2.29v.07c0,.59-.11,1.12-.34,1.59-.23.47-.55.84-.97,1.1-.42.26-.91.39-1.45.39-.82,0-1.49-.29-2-.86-.51-.57-.77-1.33-.77-2.27v-.07ZM339.35,19.89c0,.67.16,1.21.47,1.62.31.41.73.61,1.25.61s.95-.21,1.26-.62c.31-.41.47-.99.47-1.74,0-.67-.16-1.21-.47-1.62-.32-.41-.74-.62-1.26-.62s-.93.2-1.24.61c-.31.41-.47.99-.47,1.75Z" /><path class="cls-30" d="M345.83,16.78l.03.76c.46-.58,1.07-.88,1.82-.88,1.28,0,1.93.72,1.94,2.17v4.01h-1.04v-4.02c0-.44-.1-.76-.3-.97-.2-.21-.5-.31-.92-.31-.34,0-.63.09-.89.27-.25.18-.45.42-.59.71v4.33h-1.04v-6.08h.98Z" /><path class="cls-30" d="M354.88,15.31v1.47h1.13v.8h-1.13v3.77c0,.24.05.43.15.55.1.12.27.18.52.18.12,0,.28-.02.49-.07v.84c-.27.07-.54.11-.8.11-.46,0-.81-.14-1.05-.42-.24-.28-.35-.68-.35-1.2v-3.77h-1.11v-.8h1.11v-1.47h1.04Z" /><path class="cls-30" d="M357.97,17.52c.46-.57,1.06-.85,1.8-.85,1.28,0,1.93.72,1.94,2.17v4.01h-1.04v-4.02c0-.44-.1-.76-.3-.97-.2-.21-.5-.31-.92-.31-.34,0-.63.09-.89.27-.25.18-.45.42-.59.71v4.33h-1.04v-8.62h1.04v3.28Z" /><path class="cls-30" d="M365.5,22.97c-.82,0-1.49-.27-2.01-.81-.52-.54-.77-1.26-.77-2.17v-.19c0-.6.11-1.14.35-1.61.23-.47.55-.84.97-1.11.41-.27.86-.4,1.34-.4.79,0,1.4.26,1.84.78.44.52.66,1.27.66,2.23v.43h-4.12c.02.6.19,1.08.52,1.45.33.37.76.55,1.28.55.37,0,.68-.07.93-.22.25-.15.48-.35.67-.6l.63.49c-.51.78-1.27,1.17-2.29,1.17ZM365.37,17.52c-.42,0-.77.15-1.06.46-.28.31-.46.73-.53,1.28h3.04v-.08c-.03-.53-.17-.94-.43-1.23-.25-.29-.6-.44-1.03-.44Z" /><path class="cls-30" d="M314.93,31.76c0-.6.12-1.13.35-1.61.23-.48.56-.84.98-1.1s.89-.39,1.43-.39c.83,0,1.5.29,2.01.86.51.57.77,1.33.77,2.29v.07c0,.59-.11,1.12-.34,1.59-.23.47-.55.84-.97,1.1-.42.26-.91.39-1.45.39-.82,0-1.49-.29-2-.86-.51-.57-.77-1.33-.77-2.27v-.07ZM315.97,31.89c0,.67.16,1.21.47,1.62.31.41.73.61,1.25.61s.95-.21,1.26-.62c.31-.41.47-.99.47-1.74,0-.67-.16-1.21-.47-1.62-.32-.41-.74-.62-1.26-.62s-.93.2-1.24.61c-.31.41-.47.99-.47,1.75Z" /><path class="cls-30" d="M325.22,34.26c-.4.48-1,.71-1.78.71-.65,0-1.14-.19-1.48-.56s-.51-.93-.51-1.67v-3.95h1.04v3.93c0,.92.37,1.38,1.12,1.38.79,0,1.32-.3,1.58-.89v-4.42h1.04v6.08h-.99l-.02-.6Z" /><path class="cls-30" d="M328.93,27.31v1.47h1.13v.8h-1.13v3.77c0,.24.05.43.15.55.1.12.27.18.52.18.12,0,.28-.02.49-.07v.84c-.27.07-.54.11-.8.11-.46,0-.81-.14-1.05-.42-.24-.28-.35-.68-.35-1.2v-3.77h-1.11v-.8h1.11v-1.47h1.04Z" /><path class="cls-30" d="M334.53,33.24c0-.28-.11-.5-.32-.65-.21-.16-.58-.29-1.11-.4s-.94-.25-1.25-.4c-.31-.16-.54-.34-.69-.56-.15-.22-.22-.48-.22-.77,0-.5.21-.92.63-1.26.42-.34.96-.52,1.61-.52.69,0,1.25.18,1.68.53.43.36.64.81.64,1.36h-1.04c0-.28-.12-.53-.36-.74-.24-.21-.55-.31-.91-.31s-.67.08-.89.25c-.21.16-.32.38-.32.65,0,.25.1.44.3.57.2.13.56.25,1.08.36.52.12.94.25,1.26.42.32.16.56.35.72.58.16.23.23.5.23.83,0,.54-.22.98-.65,1.31-.43.33-1,.49-1.69.49-.49,0-.92-.09-1.29-.26s-.67-.41-.88-.72-.32-.64-.32-1h1.04c.02.35.16.62.42.83.26.2.6.31,1.03.31.39,0,.71-.08.95-.24.24-.16.36-.37.36-.64Z" /><path class="cls-30" d="M336.64,27.17c0-.17.05-.31.15-.43.1-.12.26-.17.46-.17s.36.06.46.17c.1.12.16.26.16.43s-.05.31-.16.42-.26.17-.46.17-.35-.06-.46-.17-.15-.25-.15-.42ZM337.77,34.86h-1.04v-6.08h1.04v6.08Z" /><path class="cls-30" d="M338.89,31.77c0-.93.22-1.68.66-2.25.44-.57,1.02-.85,1.73-.85s1.27.24,1.69.73v-3.17h1.04v8.62h-.95l-.05-.65c-.42.51-.99.76-1.74.76s-1.28-.29-1.72-.86c-.44-.58-.67-1.33-.67-2.26v-.08ZM339.93,31.89c0,.69.14,1.23.43,1.62.28.39.68.58,1.18.58.66,0,1.14-.3,1.44-.89v-2.79c-.31-.57-.79-.86-1.43-.86-.51,0-.91.2-1.19.59s-.43.98-.43,1.75Z" /><path class="cls-30" d="M347.86,34.97c-.82,0-1.49-.27-2.01-.81-.52-.54-.77-1.26-.77-2.17v-.19c0-.6.11-1.14.35-1.61.23-.47.55-.84.97-1.11.41-.27.86-.4,1.34-.4.79,0,1.4.26,1.84.78.44.52.66,1.27.66,2.23v.43h-4.12c.02.6.19,1.08.52,1.45.33.37.76.55,1.28.55.37,0,.68-.07.93-.22.25-.15.48-.35.67-.6l.63.49c-.51.78-1.27,1.17-2.29,1.17ZM347.73,29.52c-.42,0-.77.15-1.06.46-.28.31-.46.73-.53,1.28h3.04v-.08c-.03-.53-.17-.94-.43-1.23-.25-.29-.6-.44-1.03-.44Z" /><path class="cls-30" d="M351.17,34.31c0-.18.05-.33.16-.45.11-.12.27-.18.48-.18s.38.06.49.18c.11.12.17.27.17.45s-.06.32-.17.43-.27.17-.49.17-.37-.06-.48-.17c-.11-.12-.16-.26-.16-.43Z" /></g><path class="cls-34" d="M52.46,130.4l.58-5.38h5.73v1.54h-4.25l-.29,2.55c.49-.28,1.05-.42,1.67-.42,1.02,0,1.81.32,2.37.97.56.65.85,1.52.85,2.62s-.31,1.95-.94,2.59c-.62.64-1.48.96-2.57.96-.98,0-1.79-.28-2.43-.83-.64-.55-.99-1.29-1.04-2.19h1.72c.07.52.25.91.56,1.19.3.28.7.41,1.19.41.55,0,.97-.2,1.28-.59.3-.39.46-.92.46-1.6s-.17-1.16-.51-1.54c-.34-.38-.8-.57-1.39-.57-.32,0-.6.04-.82.13-.22.09-.47.25-.73.5l-1.42-.35Z" /><path class="cls-34" d="M149.79,130.4l.58-5.38h5.73v1.54h-4.25l-.29,2.55c.49-.28,1.05-.42,1.67-.42,1.02,0,1.81.32,2.37.97.56.65.85,1.52.85,2.62s-.31,1.95-.94,2.59c-.62.64-1.48.96-2.57.96-.98,0-1.79-.28-2.43-.83-.64-.55-.99-1.29-1.04-2.19h1.72c.07.52.25.91.56,1.19.3.28.7.41,1.19.41.55,0,.97-.2,1.28-.59.3-.39.46-.92.46-1.6s-.17-1.16-.51-1.54c-.34-.38-.8-.57-1.39-.57-.32,0-.6.04-.82.13-.22.09-.47.25-.73.5l-1.42-.35Z" /><path class="cls-34" d="M242.9,130.4l.58-5.38h5.73v1.54h-4.25l-.29,2.55c.49-.28,1.05-.42,1.67-.42,1.02,0,1.81.32,2.37.97.56.65.85,1.52.85,2.62s-.31,1.95-.94,2.59c-.62.64-1.48.96-2.57.96-.98,0-1.79-.28-2.43-.83-.64-.55-.99-1.29-1.04-2.19h1.72c.07.52.25.91.56,1.19.3.28.7.41,1.19.41.55,0,.97-.2,1.28-.59.3-.39.46-.92.46-1.6s-.17-1.16-.51-1.54c-.34-.38-.8-.57-1.39-.57-.32,0-.6.04-.82.13-.22.09-.47.25-.73.5l-1.42-.35Z" /><path class="cls-34" d="M335.93,129.54h1.08c.55,0,.98-.15,1.3-.42s.48-.68.48-1.21-.13-.9-.4-1.18c-.27-.28-.67-.42-1.22-.42-.48,0-.87.14-1.18.41-.31.28-.46.64-.46,1.08h-1.78c0-.55.15-1.04.44-1.49.29-.45.7-.8,1.22-1.05.52-.25,1.1-.38,1.75-.38,1.06,0,1.9.27,2.51.8.61.53.91,1.28.91,2.23,0,.48-.15.93-.46,1.35-.31.42-.7.74-1.18.96.59.2,1.03.52,1.34.94.3.43.46.94.46,1.54,0,.96-.33,1.72-.98,2.29-.66.57-1.52.85-2.59.85s-1.87-.27-2.52-.82c-.65-.55-.98-1.27-.98-2.18h1.78c0,.47.16.85.47,1.14.31.29.74.44,1.27.44s.99-.15,1.3-.44.48-.72.48-1.27-.17-.99-.5-1.3c-.33-.3-.83-.45-1.48-.45h-1.05v-1.41Z" /><line class="cls-29" x1="154.02" y1="110.99" x2="146.04" y2="103.13" /><g><line class="cls-10" x1="146.04" y1="74.63" x2="146.04" y2="75.51" /><line class="cls-25" x1="146.04" y1="77.29" x2="146.04" y2="101.19" /><line class="cls-10" x1="146.04" y1="102.08" x2="146.04" y2="102.96" /></g><g><line class="cls-11" x1="154.02" y1="82.65" x2="153.39" y2="82.03" /><line class="cls-23" x1="152.28" y1="80.92" x2="148.4" y2="77.04" /><line class="cls-11" x1="147.84" y1="76.48" x2="147.22" y2="75.86" /></g><line class="cls-28" x1="154.2" y1="110.95" x2="161.94" y2="110.95" /><line class="cls-28" x1="154.2" y1="82.78" x2="154.2" y2="110.95" /><g><line class="cls-12" x1="153.7" y1="74.63" x2="152.81" y2="74.63" /><line class="cls-2" x1="150.85" y1="74.63" x2="147.91" y2="74.63" /><line class="cls-12" x1="146.93" y1="74.63" x2="146.04" y2="74.63" /></g><line class="cls-27" x1="162.17" y1="90.81" x2="153.91" y2="82.55" /><rect class="cls-27" x="125.66" y="54.4" width="28.17" height="28.17" /><g><line class="cls-10" x1="148.11" y1="103.11" x2="148.99" y2="103.11" /><line class="cls-21" x1="150.71" y1="103.11" x2="160.19" y2="103.11" /><line class="cls-10" x1="161.06" y1="103.11" x2="161.94" y2="103.11" /></g><rect class="cls-27" x="133.82" y="90.93" width="28.17" height="28.17" /><polygon class="cls-35" points="280.56 83.24 272.35 74.73 244.17 75.02 252.51 83.09 280.56 83.24" /><polygon class="cls-35" points="252.1 111.12 280.56 111.12 280.56 83.24 252.42 82.8 252.1 111.12" /><polyline class="cls-27" points="260.07 110.95 280.5 110.95 280.5 82.78 252.33 82.78" /><line class="cls-22" x1="252.33" y1="82.65" x2="244.67" y2="74.99" /><line class="cls-27" x1="280.68" y1="82.65" x2="272.42" y2="74.4" /><line class="cls-27" x1="272.87" y1="74.63" x2="251.83" y2="74.63" /><path class="cls-35" d="M215.62,74.84c0,.3-.29,28.47-.29,28.47l8.22,7.63h28.47v-27.88l-8.22-8.51-28.17.29Z" /><line class="cls-22" x1="223.79" y1="82.65" x2="216.14" y2="74.99" /><line class="cls-27" x1="224.16" y1="111.84" x2="215.53" y2="103.17" /><polyline class="cls-27" points="244.34 74.63 215.64 74.63 215.64 103.62" /><path class="cls-35" d="M215.62,46.46c0,.3-.29,28.47-.29,28.47l8.22,7.63.22-28.42-8.15-7.68Z" /><polygon class="cls-35" points="252.01 54.69 243.79 46.17 215.62 46.46 223.96 54.54 252.01 54.69" /><polygon class="cls-35" points="223.54 82.57 252.01 82.57 252.01 54.69 223.86 54.24 223.54 82.57" /><line class="cls-27" x1="223.79" y1="54.27" x2="216.14" y2="46.61" /><line class="cls-27" x1="215.53" y1="74.64" x2="223.49" y2="82.6" /><line class="cls-27" x1="252.15" y1="54.27" x2="243.89" y2="46.02" /><polyline class="cls-27" points="244.34 46.25 215.64 46.25 215.64 75.23" /><rect class="cls-27" x="223.79" y="54.4" width="28.17" height="28.17" /><path class="cls-36" d="M223.96,82.77c0,.3-.29,28.47-.29,28.47l8.22,7.63.22-28.42-8.15-7.68Z" /><path class="cls-36" d="M307.76,74.62c0,.3-.29,28.47-.29,28.47l8.22,7.63.22-28.42-8.15-7.68Z" /><polygon class="cls-31" points="260.35 90.99 252.13 82.48 223.96 82.77 232.3 90.84 260.35 90.99" /><polygon class="cls-33" points="231.88 118.87 260.35 118.87 260.35 90.99 232.2 90.55 231.88 118.87" /><g><line class="cls-9" x1="252.16" y1="110.86" x2="252.78" y2="111.49" /><line class="cls-19" x1="253.9" y1="112.61" x2="257.81" y2="116.54" /><line class="cls-9" x1="258.37" y1="117.1" x2="258.99" y2="117.73" /></g><g><line class="cls-8" x1="226.02" y1="110.86" x2="226.91" y2="110.86" /><line class="cls-24" x1="228.78" y1="110.86" x2="250.33" y2="110.86" /><line class="cls-8" x1="251.27" y1="110.86" x2="252.16" y2="110.86" /></g><g><line class="cls-12" x1="315.64" y1="110.86" x2="316.53" y2="110.86" /><line class="cls-16" x1="318.27" y1="110.86" x2="341.89" y2="110.86" /><line class="cls-12" x1="342.77" y1="110.86" x2="343.65" y2="110.86" /></g><g><line class="cls-8" x1="252.16" y1="110.86" x2="252.16" y2="109.98" /><line class="cls-18" x1="252.16" y1="108.29" x2="252.16" y2="85.51" /><line class="cls-8" x1="252.16" y1="84.66" x2="252.16" y2="83.78" /></g><line class="cls-27" x1="231.64" y1="119.28" x2="223.68" y2="111.32" /><polyline class="cls-27" points="252.49 82.78 223.79 82.78 223.79 111.77" /><rect class="cls-27" x="231.94" y="90.93" width="28.17" height="28.17" /><line class="cls-27" x1="260.3" y1="90.81" x2="252.04" y2="82.55" /><line class="cls-27" x1="231.94" y1="90.81" x2="224.29" y2="83.15" /><polygon class="cls-35" points="372.79 83.24 364.57 74.73 336.4 75.02 344.74 83.09 372.79 83.24" /><polygon class="cls-35" points="344.32 111.12 372.79 111.12 372.79 83.24 344.64 82.8 344.32 111.12" /><line class="cls-22" x1="344.55" y1="82.65" x2="336.89" y2="74.99" /><line class="cls-27" x1="372.9" y1="82.65" x2="364.64" y2="74.4" /><line class="cls-27" x1="365.09" y1="74.63" x2="344.05" y2="74.63" /><line class="cls-22" x1="316.02" y1="82.65" x2="308.36" y2="74.99" /><line class="cls-27" x1="316.38" y1="111.84" x2="307.75" y2="103.17" /><polyline class="cls-27" points="336.56 74.63 307.87 74.63 307.87 103.62" /><path class="cls-35" d="M307.84,46.46c0,.3-.29,28.47-.29,28.47l8.22,7.63.22-28.42-8.15-7.68Z" /><polygon class="cls-35" points="344.23 54.69 336.01 46.17 307.84 46.46 316.18 54.54 344.23 54.69" /><polygon class="cls-35" points="315.76 82.57 344.23 82.57 344.23 54.69 316.09 54.24 315.76 82.57" /><line class="cls-27" x1="316.02" y1="54.27" x2="308.36" y2="46.61" /><line class="cls-27" x1="307.75" y1="74.64" x2="315.72" y2="82.6" /><line class="cls-27" x1="344.37" y1="54.27" x2="336.11" y2="46.02" /><polyline class="cls-27" points="336.56 46.25 307.87 46.25 307.87 75.23" /><line class="cls-27" x1="323.87" y1="119.28" x2="315.9" y2="111.32" /><line class="cls-7" x1="336.71" y1="75.17" x2="308.53" y2="75.45" /><g><line class="cls-12" x1="336.81" y1="103.63" x2="337.44" y2="104.26" /><line class="cls-26" x1="338.56" y1="105.38" x2="342.47" y2="109.31" /><line class="cls-12" x1="343.03" y1="109.87" x2="343.65" y2="110.5" /></g><g><line class="cls-20" x1="316.39" y1="103.55" x2="317.27" y2="103.55" /><line class="cls-4" x1="318.96" y1="103.55" x2="335" y2="103.55" /><line class="cls-20" x1="335.85" y1="103.55" x2="336.73" y2="103.55" /></g><g><line class="cls-13" x1="309.6" y1="103.55" x2="310.48" y2="103.55" /><line class="cls-14" x1="311.82" y1="103.55" x2="313.83" y2="103.55" /><line class="cls-13" x1="314.5" y1="103.55" x2="315.39" y2="103.55" /></g><g><line class="cls-20" x1="336.73" y1="103.55" x2="336.73" y2="102.66" /><line class="cls-17" x1="336.73" y1="100.9" x2="336.73" y2="77.1" /><line class="cls-20" x1="336.73" y1="76.22" x2="336.73" y2="75.33" /></g><g><line class="cls-12" x1="343.72" y1="110.74" x2="343.72" y2="109.86" /><line class="cls-5" x1="343.72" y1="108.1" x2="343.72" y2="84.3" /><line class="cls-12" x1="343.72" y1="83.42" x2="343.72" y2="82.53" /></g><g><line class="cls-15" x1="343.95" y1="82.57" x2="343.32" y2="81.94" /><line class="cls-3" x1="342.14" y1="80.75" x2="337.99" y2="76.56" /><line class="cls-15" x1="337.4" y1="75.97" x2="336.78" y2="75.34" /></g><polyline class="cls-27" points="344.71 82.78 316.02 82.78 316.02 111.77" /><polyline class="cls-27" points="352.3 110.95 372.72 110.95 372.72 82.78 344.55 82.78" /><rect class="cls-27" x="316.02" y="54.4" width="28.17" height="28.17" /><line class="cls-27" x1="352.52" y1="90.81" x2="344.26" y2="82.55" /><line class="cls-27" x1="324.17" y1="90.81" x2="316.51" y2="83.15" /><rect class="cls-27" x="324.17" y="90.93" width="28.17" height="28.17" /></svg>