<svg id="Layer_3" xmlns="http://www.w3.org/2000/svg" version="1.1" viewBox="0 0 396 125" width="396" height="125" preserveAspectRatio="none"><defs><style>
      .st0 {
        fill: #2cbeef;
      }

      .st1 {
        fill: #2c2b2f;
      }

      .st2 {
        fill: #fff;
      }

      .st3 {
        stroke: #231f20;
      }

      .st3, .st4 {
        stroke-width: .6px;
      }

      .st3, .st4, .st5 {
        fill: none;
      }

      .st6 {
        fill: #0588b3;
      }

      .st4, .st5 {
        stroke: #2c2b2f;
      }

      .st5 {
        stroke-width: 1.8px;
      }
    </style></defs><rect class="st0" x="99.959595" y="38.765201" width="24" height="24" /><rect class="st2" x="99.959595" y="14.765201" width="24" height="24" /><rect class="st0" x="75.959595" y="14.765201" width="24" height="24" /><rect class="st1" x="27.959595" y="62.762802" width="48" height="48" /><rect class="st3" x="27.959595" y="62.765201" width="48" height="48.000001" /><rect class="st2" x="75.959595" y="62.765201" width="48" height="48.000001" /><rect class="st2" x="27.959595" y="14.765201" width="48" height="48" /><rect class="st3" x="75.959595" y="14.765201" width="48" height="48" /><rect class="st1" x="75.959595" y="38.765201" width="24" height="24" /><rect class="st4" x="75.959595" y="38.765201" width="24" height="24" /><rect class="st6" x="99.959595" y="26.765201" width="12" height="12" /><rect class="st1" x="99.959595" y="26.765201" width="12" height="12" /><rect class="st4" x="111.959595" y="14.765201" width="12" height="12" /><rect class="st1" x="111.959595" y="20.765201" width="6" height="6" /><rect class="st4" x="111.959595" y="20.765201" width="6" height="6" /><rect class="st3" x="117.959595" y="14.765201" width="6" height="6" /><rect class="st1" x="117.959595" y="17.765201" width="3" height="3" /><rect class="st4" x="117.959595" y="17.765201" width="3" height="3" /><rect class="st1" x="121.109238" y="15.863558" width="1.728003" height="1.730402" /><rect class="st4" x="120.959595" y="17.765201" width="3" height="3" /><rect class="st4" x="117.959595" y="14.765201" width="3" height="3" /><rect class="st5" x="27.959595" y="14.153198" width="96.693604" height="96.693604" /><g><polygon class="st0" points="221.653198 38.765201 245.653198 38.765201 245.653198 26.714923 233.528578 26.79011 233.453393 14.765201 221.653198 14.765201 221.653198 38.765201" /><rect class="st4" x="197.653198" y="14.765201" width="24" height="24" /><rect class="st1" x="149.653198" y="62.762802" width="48" height="48" /><rect class="st3" x="149.653198" y="62.765201" width="48" height="48.000001" /><rect class="st2" x="197.653198" y="62.765201" width="48" height="48.000001" /><rect class="st2" x="149.653198" y="14.765201" width="48" height="48" /><rect class="st3" x="197.653198" y="14.765201" width="48" height="48" /><rect class="st1" x="197.653198" y="38.765201" width="24" height="24" /><rect class="st4" x="197.653198" y="38.765201" width="24" height="24" /><rect class="st4" x="221.653198" y="38.765201" width="24" height="24" /><rect class="st6" x="221.653198" y="26.765201" width="12" height="12" /><rect class="st1" x="221.653198" y="26.765201" width="12" height="12" /><rect class="st4" x="233.653198" y="14.765201" width="12" height="12" /><rect class="st1" x="233.653198" y="20.765201" width="6" height="6" /><rect class="st4" x="233.653198" y="20.765201" width="6" height="6" /><rect class="st3" x="239.653198" y="14.765201" width="6" height="6" /><rect class="st1" x="239.653198" y="17.765201" width="3" height="3" /><rect class="st4" x="239.653198" y="17.765201" width="3" height="3" /><rect class="st1" x="242.802842" y="15.863558" width="1.728003" height="1.730402" /><rect class="st4" x="242.653198" y="17.765201" width="3" height="3" /><rect class="st4" x="239.653198" y="14.765201" width="3" height="3" /><rect class="st5" x="149.653198" y="14.153198" width="96.693604" height="96.693604" /></g><g><rect class="st2" x="343.346802" y="14.765201" width="24" height="24" /><rect class="st4" x="319.346802" y="14.765201" width="24" height="24" /><rect class="st1" x="271.346802" y="62.762802" width="48" height="48" /><rect class="st3" x="271.346802" y="62.765201" width="48" height="48.000001" /><rect class="st2" x="319.346802" y="62.765201" width="48" height="48.000001" /><rect class="st2" x="271.346802" y="14.765201" width="48" height="48" /><rect class="st3" x="319.346802" y="14.765201" width="48" height="48" /><rect class="st1" x="319.346802" y="38.765201" width="24" height="24" /><rect class="st4" x="319.346802" y="38.765201" width="24" height="24" /><rect class="st4" x="343.346802" y="38.765201" width="24" height="24" /><rect class="st6" x="343.346802" y="26.765201" width="12" height="12" /><rect class="st1" x="343.346802" y="26.765201" width="12" height="12" /><polygon class="st0" points="355.346802 26.765201 361.329 26.765201 367.346802 26.765201 367.331253 20.722704 361.328996 20.77231 361.329 14.765201 355.346802 14.765201 355.346802 26.765201" /><rect class="st4" x="355.346802" y="14.765201" width="12" height="12" /><rect class="st1" x="355.346802" y="20.765201" width="6" height="6" /><rect class="st4" x="355.346802" y="20.765201" width="6" height="6" /><rect class="st3" x="361.346802" y="14.765201" width="6" height="6" /><rect class="st1" x="361.346802" y="17.765201" width="3" height="3" /><rect class="st4" x="361.346802" y="17.765201" width="3" height="3" /><rect class="st1" x="364.496445" y="15.863558" width="1.728003" height="1.730402" /><rect class="st4" x="364.346802" y="17.765201" width="3" height="3" /><rect class="st4" x="361.346802" y="14.765201" width="3" height="3" /><rect class="st5" x="271.346802" y="14.153198" width="96.693604" height="96.693604" /></g></svg>