<svg id="Layer_3" xmlns="http://www.w3.org/2000/svg" version="1.1" viewBox="0 0 396 182" width="396" height="182" preserveAspectRatio="none"><defs><style>
      .st0 {
        stroke: #2c2b2f;
        stroke-width: .860622px;
      }

      .st0, .st1 {
        fill: #79d0e5;
        stroke-linejoin: bevel;
      }

      .st2, .st3 {
        fill: #2cbeef;
      }

      .st4 {
        stroke-miterlimit: 10;
      }

      .st4, .st5 {
        fill: #e5e3dc;
      }

      .st4, .st3, .st6, .st7, .st8, .st9, .st1 {
        stroke: #074163;
      }

      .st10 {
        fill: #f5f4f3;
      }

      .st11 {
        fill: #bebbb4;
      }

      .st12 {
        stroke: #e6e7e8;
        stroke-dasharray: .5 6;
        stroke-linecap: round;
        stroke-linejoin: round;
        stroke-width: 3px;
      }

      .st12, .st13, .st14, .st6, .st7, .st8, .st9 {
        fill: none;
      }

      .st15 {
        fill: #7dd1e6;
      }

      .st13, .st14 {
        stroke: #231f20;
      }

      .st13, .st8 {
        stroke-width: 1.22281px;
      }

      .st14, .st7 {
        stroke-width: 1.232868px;
      }

      .st3, .st6, .st1 {
        stroke-width: 1.214305px;
      }

      .st16 {
        fill: #e6e7e8;
      }

      .st9 {
        stroke-width: .728583px;
      }

      .st17 {
        fill: #05668d;
      }
    </style></defs><line class="st12" x1="96.170826" y1="97.079927" x2="158.688541" y2="162.25797" /><line class="st12" x1="158.688541" y1="18.932783" x2="91.847793" y2="85.440991" /><rect class="st16" x="159.996429" y=".763225" width="178.662778" height="180.473549" rx="15.92126" ry="15.92126" /><g><polygon class="st17" points="58.979195 64.256987 70.513912 75.546285 70.391202 109.046049 58.856485 97.634041 58.979195 64.256987" /><line class="st6" x1="58.847759" y1="64.086021" x2="58.847759" y2="97.83399" /><polygon class="st1" points="70.498289 75.472559 58.815808 63.915171 58.788678 63.779653 92.521411 63.820086 92.571299 63.896954 103.896538 75.472559 70.498289 75.472559" /><rect class="st3" x="70.480803" y="75.625561" width="33.223392" height="33.22339" /><line class="st9" x1="87.092498" y1="75.626777" x2="87.092498" y2="108.850167" /><line class="st9" x1="70.480803" y1="92.239685" x2="103.70419" y2="92.239685" /><line class="st9" x1="75.371781" y1="63.642802" x2="87.199113" y2="75.472559" /><line class="st9" x1="64.672539" y1="69.556463" x2="97.895927" y2="69.556463" /><line class="st9" x1="64.584137" y1="69.419975" x2="64.584137" y2="103.216517" /><line class="st6" x1="70.323429" y1="109.043726" x2="58.670957" y2="97.388826" /><line class="st9" x1="70.498289" y1="92.233371" x2="58.670957" y2="80.40361" /></g><g><g><g><path class="st11" d="M258.793374,27.39933c0,.295513-.293474,28.469064-.293474,28.469064l8.217285,7.634414.222867-28.421521-8.146678-7.681956Z" /><polygon class="st15" points="295.18421 35.62273 286.966925 27.111972 258.793374 27.39933 267.136309 35.473802 295.18421 35.62273" /><polygon class="st5" points="266.717185 63.502808 295.18421 63.502808 295.18421 35.62273 267.03818 35.179416 266.717185 63.502808" /><line class="st8" x1="266.9699" y1="35.209014" x2="259.313069" y2="27.550146" /><line class="st8" x1="258.703905" y1="55.574522" x2="266.668477" y2="63.535014" /><line class="st8" x1="295.322594" y1="35.209014" x2="287.064548" y2="26.953009" /><polyline class="st8" points="287.513115 27.184321 258.81783 27.184321 258.81783 56.171041" /><rect class="st8" x="266.9699" y="35.33639" width="28.173553" height="28.173551" /></g><g><path class="st11" d="M274.866191,43.192653c0,.295513-.031434,28.18161-.031434,28.18161l7.955245,7.921868.222867-28.421521-8.146678-7.681956Z" /><polygon class="st0" points="311.257027 51.416052 303.039741 42.905295 274.866191 43.192653 283.209126 51.267125 311.257027 51.416052" /><polygon class="st2" points="282.790001 79.29613 311.257027 79.29613 311.257027 51.416052 283.110997 50.972738 282.790001 79.29613" /><line class="st8" x1="283.042717" y1="51.002337" x2="275.385885" y2="43.343469" /><line class="st8" x1="274.776722" y1="71.367844" x2="282.741294" y2="79.328336" /><line class="st8" x1="311.395411" y1="51.002337" x2="303.137365" y2="42.746331" /><polyline class="st8" points="303.585931 42.977643 274.890647 42.977643 274.890647 71.964363" /><rect class="st8" x="283.042717" y="51.129713" width="28.173553" height="28.173551" /></g></g><g><g><g><path class="st11" d="M257.795751,97.306177c0,.295513-.293474,28.469064-.293474,28.469064l8.217285,7.634414.222867-28.421521-8.146678-7.681956Z" /><polygon class="st15" points="294.186587 105.529577 285.969302 97.018819 257.795751 97.306177 266.138686 105.380649 294.186587 105.529577" /><polygon class="st5" points="265.719561 133.409655 294.186587 133.409655 294.186587 105.529577 266.040557 105.086263 265.719561 133.409655" /><line class="st8" x1="265.972277" y1="105.115861" x2="258.315446" y2="97.456993" /><polyline class="st8" points="286.515491 97.091168 257.820207 97.091168 257.820207 126.077888" /><rect class="st8" x="265.972277" y="105.243237" width="28.173553" height="28.173551" /></g><line class="st8" x1="257.619663" y1="125.561555" x2="265.81082" y2="133.5921" /><line class="st8" x1="294.324971" y1="105.115861" x2="286.066925" y2="96.859856" /></g><g><line class="st13" x1="283.042717" y1="150.113401" x2="275.385885" y2="142.454533" /><path class="st11" d="M274.866191,113.92208c0,.295513-.293474,28.469064-.293474,28.469064l8.217285,7.634414.222867-28.421521-8.146678-7.681956Z" /><polygon class="st10" points="311.257027 122.14548 303.039741 113.634722 274.866191 113.92208 283.209126 121.996552 311.257027 122.14548" /><polygon class="st2" points="282.790001 150.025558 311.257027 150.025558 311.257027 122.14548 283.110997 121.702165 282.790001 150.025558" /><line class="st8" x1="283.042717" y1="121.731764" x2="275.385885" y2="114.072896" /><line class="st8" x1="274.776722" y1="142.097272" x2="282.741294" y2="150.057764" /><line class="st8" x1="311.395411" y1="121.731764" x2="303.137365" y2="113.475758" /><polyline class="st8" points="303.585931 113.707071 274.890647 113.707071 274.890647 142.69379" /><rect class="st8" x="283.042717" y="121.85914" width="28.173553" height="28.173551" /></g></g><g><g><line class="st14" x1="199.810719" y1="134.372495" x2="192.208959" y2="126.530715" /><path class="st17" d="M191.693002,97.316837c0,.302571-.291364,29.148975-.291364,29.148975l8.158183,7.816742.221264-29.100297-8.088083-7.86542Z" /><polygon class="st10" points="227.822098 105.736631 219.663915 97.022616 191.693002 97.316837 199.975931 105.584147 227.822098 105.736631" /><polygon class="st5" points="199.559821 134.282553 227.822098 134.282553 227.822098 105.736631 199.878508 105.282729 199.559821 134.282553" /><line class="st7" x1="199.810719" y1="105.313035" x2="192.208959" y2="97.471254" /><line class="st7" x1="191.604177" y1="126.164921" x2="199.511464" y2="134.315529" /><line class="st7" x1="227.959487" y1="105.313035" x2="219.760836" y2="96.859856" /><polyline class="st7" points="220.206177 97.096692 191.717283 97.096692 191.717283 126.775686" /><rect class="st7" x="199.810719" y="105.443453" width="27.970915" height="28.846404" /></g><g><g><line class="st14" x1="215.9019" y1="150.988398" x2="208.30014" y2="143.146617" /><path class="st17" d="M207.784183,113.932739c0,.302571-.291364,29.148975-.291364,29.148975l8.158183,7.816742.221264-29.100297-8.088083-7.86542Z" /><polygon class="st10" points="243.913278 122.352534 235.755096 113.638518 207.784183 113.932739 216.067112 122.200049 243.913278 122.352534" /><polygon class="st2" points="215.651002 150.898456 243.913278 150.898456 243.913278 122.352534 215.969689 121.898632 215.651002 150.898456" /><line class="st7" x1="215.9019" y1="121.928937" x2="208.30014" y2="114.087157" /><line class="st7" x1="207.695358" y1="142.780823" x2="215.602645" y2="150.931431" /><polyline class="st7" points="236.297358 113.712595 207.808464 113.712595 207.808464 143.391588" /><rect class="st7" x="215.9019" y="122.059356" width="27.970915" height="28.846404" /></g><line class="st7" x1="244.050668" y1="121.928937" x2="235.852017" y2="113.475758" /></g></g><g><g><line class="st13" x1="199.871639" y1="63.590652" x2="192.214808" y2="55.931784" /><path class="st17" d="M191.695113,27.39933c0,.295513-.293474,28.469064-.293474,28.469064l8.217285,7.634414.222867-28.421521-8.146678-7.681956Z" /><polygon class="st15" points="228.085949 35.62273 219.868664 27.111972 191.695113 27.39933 200.038049 35.473802 228.085949 35.62273" /><polygon class="st4" points="199.618924 63.502808 228.085949 63.502808 228.085949 35.62273 199.93992 35.179416 199.618924 63.502808" /><line class="st8" x1="199.871639" y1="35.209014" x2="192.214808" y2="27.550146" /><line class="st8" x1="191.605644" y1="55.574522" x2="199.570216" y2="63.535014" /><line class="st8" x1="228.224334" y1="35.209014" x2="219.966287" y2="26.953009" /><polyline class="st8" points="220.414854 27.184321 191.71957 27.184321 191.71957 56.171041" /><rect class="st8" x="199.871639" y="35.33639" width="28.173553" height="28.173551" /></g><g><path class="st17" d="M207.521447,43.192653c0,.295513-.293474,28.469064-.293474,28.469064l8.217285,7.634414.222867-28.421521-8.146678-7.681956Z" /><polygon class="st15" points="243.912283 51.416052 235.694998 42.905295 207.521447 43.192653 215.864383 51.267125 243.912283 51.416052" /><polygon class="st2" points="215.445258 79.29613 243.912283 79.29613 243.912283 51.416052 215.766254 50.972738 215.445258 79.29613" /><line class="st8" x1="215.697973" y1="51.002337" x2="208.041142" y2="43.343469" /><line class="st8" x1="207.431978" y1="71.367844" x2="215.39655" y2="79.328336" /><line class="st8" x1="244.050668" y1="51.002337" x2="235.792621" y2="42.746331" /><polyline class="st8" points="236.241188 42.977643 207.545904 42.977643 207.545904 71.964363" /><rect class="st8" x="215.697973" y="51.129713" width="28.173553" height="28.173551" /></g></g></g></svg>