<svg id="Layer_3" xmlns="http://www.w3.org/2000/svg" version="1.1" viewBox="0 0 396 108" width="396" height="108" preserveAspectRatio="none"><defs><style>
      .st0, .st1 {
        fill: #2cbeef;
      }

      .st2 {
        fill: #2c2b2f;
      }

      .st3 {
        fill: none;
      }

      .st3, .st1 {
        stroke: #2c2b2f;
        stroke-linecap: round;
        stroke-linejoin: round;
        stroke-width: 2.25px;
      }
    </style></defs><g><g><g><polygon class="st2" points="121.591826 2 69.591826 2 121.591826 54 173.591826 2 121.591826 2" /><polygon class="st2" points="69.591826 106 121.591826 106 173.591826 106 121.591826 54 69.591826 106" /></g><g><polygon class="st0" points="121.591826 2 69.591826 2 121.591826 54 173.591826 2 121.591826 2" /><polygon class="st0" points="69.591826 106 121.591826 106 173.591826 106 121.591826 54 69.591826 106" /></g><g><polygon class="st3" points="121.591826 2 69.591826 2 121.591826 54 173.591826 2 121.591826 2" /><polygon class="st3" points="69.591826 106 121.591826 106 173.591826 106 121.591826 54 69.591826 106" /></g></g><g><g><polygon class="st2" points="173.591826 54 173.591826 2 121.591826 54 173.591826 106 173.591826 54" /><polygon class="st2" points="69.591826 2 69.591826 54 69.591826 106 121.591826 54 69.591826 2" /></g><g><polygon class="st0" points="173.591826 54 173.591826 2 121.591826 54 173.591826 106 173.591826 54" /><polygon class="st0" points="69.591826 2 69.591826 54 69.591826 106 121.591826 54 69.591826 2" /></g><g><polygon class="st3" points="173.591826 54 173.591826 2 121.591826 54 173.591826 106 173.591826 54" /><polygon class="st3" points="69.591826 2 69.591826 54 69.591826 106 121.591826 54 69.591826 2" /></g></g></g><g><polygon class="st1" points="274.408174 2 326.408174 106 326.408174 54 326.408174 2 274.408174 2" /><polygon class="st1" points="326.408174 106 274.408174 2 274.408174 54 274.408174 106 326.408174 106" /><polygon class="st1" points="222.408174 106 274.408174 2 274.408174 54 274.408174 106 222.408174 106" /><polygon class="st1" points="222.408174 2 222.408174 54 222.408174 106 274.408174 2 222.408174 2" /></g></svg>