<svg id="Layer_3" data-name="Layer 3" xmlns="http://www.w3.org/2000/svg" viewBox="0 0 396 304" width="396" height="304" preserveAspectRatio="none"><defs><style>
      .cls-1 {
        fill: #9c9a95;
      }

      .cls-2 {
        fill: #e6e7e8;
      }

      .cls-3 {
        fill: #2c2b2f;
        stroke: #e6e7e8;
        stroke-width: .25px;
      }
    </style></defs><rect class="cls-2" x="68.51" y="1.03" width="258.98" height="301.95" rx="15.92" ry="15.92" /><g><path class="cls-1" d="M273.01,51.55v3.96h-1.85v-10.66h4.08c1.19,0,2.14.31,2.84.93.7.62,1.05,1.44,1.05,2.46s-.34,1.86-1.03,2.44c-.69.58-1.65.87-2.88.87h-2.2ZM273.01,50.06h2.23c.66,0,1.16-.16,1.51-.47s.52-.76.52-1.34-.18-1.04-.53-1.38-.83-.52-1.45-.53h-2.28v3.72Z" /><path class="cls-1" d="M286.66,49.79h-6.31v-1.48h6.31v1.48ZM286.66,52.9h-6.31v-1.47h6.31v1.47Z" /><path class="cls-1" d="M295.27,55.51h-7.17v-1.22l3.55-3.87c.51-.57.88-1.05,1.09-1.43s.33-.77.33-1.15c0-.51-.14-.92-.43-1.23-.29-.31-.67-.47-1.15-.47-.58,0-1.02.18-1.34.53s-.48.83-.48,1.44h-1.78c0-.65.15-1.23.44-1.75s.72-.92,1.27-1.21c.55-.29,1.18-.43,1.9-.43,1.04,0,1.85.26,2.45.78.6.52.9,1.24.9,2.16,0,.53-.15,1.09-.45,1.67-.3.58-.79,1.25-1.48,1.99l-2.61,2.79h4.95v1.42Z" /><path class="cls-1" d="M303.2,51.02c0,1.53-.29,2.69-.86,3.47-.57.78-1.45,1.17-2.62,1.17s-2.02-.38-2.6-1.14-.88-1.88-.9-3.37v-1.85c0-1.53.29-2.68.86-3.45.57-.77,1.45-1.15,2.63-1.15s2.04.37,2.61,1.12.87,1.87.88,3.35v1.85ZM301.42,49.02c0-1-.14-1.73-.41-2.2s-.71-.7-1.3-.7-1.01.22-1.28.66-.42,1.13-.43,2.07v2.42c0,1,.14,1.74.42,2.23s.72.73,1.31.73.99-.23,1.27-.68.42-1.16.43-2.12v-2.41Z" /></g><g><path class="cls-1" d="M273.01,152.64v3.96h-1.85v-10.66h4.08c1.19,0,2.14.31,2.84.93.7.62,1.05,1.44,1.05,2.46s-.34,1.86-1.03,2.44c-.69.58-1.65.87-2.88.87h-2.2ZM273.01,151.15h2.23c.66,0,1.16-.16,1.51-.47s.52-.76.52-1.34-.18-1.04-.53-1.38-.83-.52-1.45-.53h-2.28v3.72Z" /><path class="cls-1" d="M286.66,150.89h-6.31v-1.48h6.31v1.48ZM286.66,153.99h-6.31v-1.47h6.31v1.47Z" /><path class="cls-1" d="M295.27,156.6h-7.17v-1.22l3.55-3.87c.51-.57.88-1.05,1.09-1.43s.33-.77.33-1.15c0-.51-.14-.92-.43-1.23-.29-.31-.67-.47-1.15-.47-.58,0-1.02.18-1.34.53s-.48.83-.48,1.44h-1.78c0-.65.15-1.23.44-1.75s.72-.92,1.27-1.21c.55-.29,1.18-.43,1.9-.43,1.04,0,1.85.26,2.45.78.6.52.9,1.24.9,2.16,0,.53-.15,1.09-.45,1.67-.3.58-.79,1.25-1.48,1.99l-2.61,2.79h4.95v1.42Z" /><path class="cls-1" d="M303.2,152.11c0,1.53-.29,2.69-.86,3.47-.57.78-1.45,1.17-2.62,1.17s-2.02-.38-2.6-1.14-.88-1.88-.9-3.37v-1.85c0-1.53.29-2.68.86-3.45.57-.77,1.45-1.15,2.63-1.15s2.04.37,2.61,1.12.87,1.87.88,3.35v1.85ZM301.42,150.12c0-1-.14-1.73-.41-2.2s-.71-.7-1.3-.7-1.01.22-1.28.66-.42,1.13-.43,2.07v2.42c0,1,.14,1.74.42,2.23s.72.73,1.31.73.99-.23,1.27-.68.42-1.16.43-2.12v-2.41Z" /></g><g><path class="cls-1" d="M273.01,252.41v3.96h-1.85v-10.66h4.08c1.19,0,2.14.31,2.84.93.7.62,1.05,1.44,1.05,2.46s-.34,1.86-1.03,2.44c-.69.58-1.65.87-2.88.87h-2.2ZM273.01,250.91h2.23c.66,0,1.16-.16,1.51-.47s.52-.76.52-1.34-.18-1.04-.53-1.38-.83-.52-1.45-.53h-2.28v3.72Z" /><path class="cls-1" d="M286.66,250.65h-6.31v-1.48h6.31v1.48ZM286.66,253.75h-6.31v-1.47h6.31v1.47Z" /><path class="cls-1" d="M295.27,256.36h-7.17v-1.22l3.55-3.87c.51-.57.88-1.05,1.09-1.43s.33-.77.33-1.15c0-.51-.14-.92-.43-1.23-.29-.31-.67-.47-1.15-.47-.58,0-1.02.18-1.34.53s-.48.83-.48,1.44h-1.78c0-.65.15-1.23.44-1.75s.72-.92,1.27-1.21c.55-.29,1.18-.43,1.9-.43,1.04,0,1.85.26,2.45.78.6.52.9,1.24.9,2.16,0,.53-.15,1.09-.45,1.67-.3.58-.79,1.25-1.48,1.99l-2.61,2.79h4.95v1.42Z" /><path class="cls-1" d="M303.2,251.87c0,1.53-.29,2.69-.86,3.47-.57.78-1.45,1.17-2.62,1.17s-2.02-.38-2.6-1.14-.88-1.88-.9-3.37v-1.85c0-1.53.29-2.68.86-3.45.57-.77,1.45-1.15,2.63-1.15s2.04.37,2.61,1.12.87,1.87.88,3.35v1.85ZM301.42,249.88c0-1-.14-1.73-.41-2.2s-.71-.7-1.3-.7-1.01.22-1.28.66-.42,1.13-.43,2.07v2.42c0,1,.14,1.74.42,2.23s.72.73,1.31.73.99-.23,1.27-.68.42-1.16.43-2.12v-2.41Z" /></g><g><g><rect class="cls-3" x="233.12" y="15.85" width="23.41" height="23.41" /><rect class="cls-3" x="209.7" y="15.85" width="23.41" height="23.41" /><rect class="cls-3" x="186.29" y="15.85" width="23.41" height="23.41" /><rect class="cls-3" x="162.88" y="15.85" width="23.41" height="23.41" /><rect class="cls-3" x="139.47" y="15.85" width="23.41" height="23.41" /><rect class="cls-3" x="209.7" y="39.26" width="23.41" height="23.41" /><rect class="cls-3" x="186.29" y="39.26" width="23.41" height="23.41" /><rect class="cls-3" x="162.88" y="39.26" width="23.41" height="23.41" /><rect class="cls-3" x="233.12" y="62.67" width="23.41" height="23.41" /><rect class="cls-3" x="209.7" y="62.67" width="23.41" height="23.41" /><rect class="cls-3" x="186.29" y="62.67" width="23.41" height="23.41" /><rect class="cls-3" x="162.88" y="62.67" width="23.41" height="23.41" /><rect class="cls-3" x="139.47" y="62.67" width="23.41" height="23.41" /></g><g><rect class="cls-3" x="233.12" y="116.08" width="23.41" height="23.41" /><rect class="cls-3" x="209.7" y="116.08" width="23.41" height="23.41" /><rect class="cls-3" x="186.29" y="116.08" width="23.41" height="23.41" /><rect class="cls-3" x="139.47" y="116.08" width="23.41" height="23.41" /><rect class="cls-3" x="233.12" y="139.5" width="23.41" height="23.41" /><rect class="cls-3" x="209.7" y="139.5" width="23.41" height="23.41" /><rect class="cls-3" x="186.29" y="139.5" width="23.41" height="23.41" /><rect class="cls-3" x="139.47" y="139.5" width="23.41" height="23.41" /><rect class="cls-3" x="233.12" y="162.91" width="23.41" height="23.41" /><rect class="cls-3" x="209.7" y="162.91" width="23.41" height="23.41" /><rect class="cls-3" x="186.29" y="162.91" width="23.41" height="23.41" /><rect class="cls-3" x="162.88" y="162.91" width="23.41" height="23.41" /><rect class="cls-3" x="139.47" y="162.91" width="23.41" height="23.41" /></g><g><rect class="cls-3" x="233.12" y="216.32" width="23.41" height="23.41" /><rect class="cls-3" x="209.7" y="216.32" width="23.41" height="23.41" /><rect class="cls-3" x="162.88" y="216.32" width="23.41" height="23.41" /><rect class="cls-3" x="139.47" y="216.32" width="23.41" height="23.41" /><rect class="cls-3" x="233.12" y="239.73" width="23.41" height="23.41" /><rect class="cls-3" x="209.7" y="239.73" width="23.41" height="23.41" /><rect class="cls-3" x="186.29" y="239.73" width="23.41" height="23.41" /><rect class="cls-3" x="162.88" y="239.73" width="23.41" height="23.41" /><rect class="cls-3" x="139.47" y="239.73" width="23.41" height="23.41" /><rect class="cls-3" x="233.12" y="263.14" width="23.41" height="23.41" /><rect class="cls-3" x="186.29" y="263.14" width="23.41" height="23.41" /><rect class="cls-3" x="162.88" y="263.14" width="23.41" height="23.41" /><rect class="cls-3" x="139.47" y="263.14" width="23.41" height="23.41" /></g></g></svg>