<?xml version="1.0" encoding="utf-8"?>
<!-- Generator: Adobe Illustrator 22.0.1, SVG Export Plug-In . SVG Version: 6.00 Build 0)  -->
<!DOCTYPE svg PUBLIC "-//W3C//DTD SVG 1.1//EN" "http://www.w3.org/Graphics/SVG/1.1/DTD/svg11.dtd">
<svg version="1.1" id="Layer_1" xmlns="http://www.w3.org/2000/svg" xmlns:xlink="http://www.w3.org/1999/xlink" x="0px" y="0px"
	 viewBox="0 0 95 148" enable-background="new 0 0 95 148" xml:space="preserve" width="95" height="148" preserveAspectRatio="none">
<g>
	<path d="M30.4,24.4L19,22.6l4.1,11.3l-10.6-5.9C8,31.2,3.4,38.4,1.6,46.4c-0.2,0.7-0.3,1.4-0.4,2.1l11.9,5l-12,1.3
		c0,10.7,3.4,17.5,8,27.7l11-1l-7.6,4.7c2.9,2.5,9.2,9.9,9.3,15.1c0,12.1-9.2,15.7-9.2,15.7l2.5,4.4l55.7,7.8
		c0,0-4.9-38.9-23.5-53.3c10.6,4.8,16.1-1.3,16.1-1.3l3,1.2l1.8,7.3c0,0,3.4,5.3,10.6,2.4c2.8,1.6,8.5-0.2,11.1-2.4
		c8.4-7.2,0.9-17.7,0.9-17.7l-40.1-37l-9.7-2.2c0.5-0.9,1-1.9,1.4-2.9c3.1-7.6-1.2-22-1.2-22s-9,8.6-10.8,16.6
		C29.8,20.8,30.4,24.4,30.4,24.4z"/>
	<polygon points="74.4,131.4 6.7,131.5 11.3,116.1 70.3,115.4 	"/>
	<polygon points="76.5,146.6 6,146.7 2.9,127.8 78,127.6 	"/>
</g>
</svg>
