<svg version="1.1" xmlns="http://www.w3.org/2000/svg" xmlns:xlink="http://www.w3.org/1999/xlink" x="0px" y="0px" viewBox="0 0 207 72" style="enable-background:new 0 0 207 72;" xml:space="preserve" width="207" height="72" preserveAspectRatio="none"><style type="text/css">
	.st0{fill:#FFFFFF;}
	.st1{fill:#E50000;}
</style><path class="st0" d="M79.9,60.2l0.3-0.2c-0.9-0.6-2.2-1.1-2.4-1.2C78.5,59.3,79.3,59.8,79.9,60.2z" /><g><path class="st1" d="M96.6,66.4c-1.4,0.9-2.9,1.9-4.6,2.9c0.2-0.7,1.9-2,3-2.9H1.2v4.2h52.4c-3.4-1.6-6.6-3.2-6.7-3.3
		c3.4,1.5,5.6,2.5,7.2,3.3H66c0.8-0.7-0.4-0.4,0.5-1.7c-0.2,1.6,1.8-2.1,2.4-2c-0.7,1.1-2.3,2.5-2.5,3.6h86.9
		c0.4-1.3,0.9-2.8,1.4-4.2H96.6z M5.7,68.2c-0.1-0.1,0.1-0.1,0.3-0.1c0,0-2.1-0.2-1.7,0.1c-1.6-0.4,1.6-0.6,2.4-0.3
		C6.8,68.1,6.5,68.2,5.7,68.2z M10.2,70.5c0.2-0.7-0.3-0.5,0.8-1.6C11.3,69.2,10.7,69.9,10.2,70.5z M14.9,69.4
		c-0.8-0.8,0-0.4,0.1-0.9C15.8,69.1,15.3,69.6,14.9,69.4z M40.6,69.9c-0.1-0.1-0.1-0.3-0.2-0.4c1.1-0.3,2.1-0.6,2.5-0.5
		C42.4,69.4,41.4,69.6,40.6,69.9z M44.5,69.1c0.5,0.2,0.5-0.2-0.1-1.3c0.1-0.4,0.8,1.4,0.9,1c0.2,0.4-0.5,0.7,0.2,0.7
		C46.1,70.9,45,70,44.5,69.1z M69.9,69.5L69.4,69c0.1,0,0.3,0.1,0.7,0.5C70.1,69.5,70,69.5,69.9,69.5z M89.9,67.8l0.6,0.1
		c0,0,0,0.1,0.1,0.1C90.1,68,90,67.9,89.9,67.8z M105.1,69c-0.3-0.5-1.6-1.2-1.2-1.5C104.2,68,105.8,68.8,105.1,69z M107.8,68.5
		c-0.2-0.2-0.4-0.8-0.2-1.2c0.1,0,0.2,0.1,0.2,0.2L107.8,68.5z M135.8,68.3c-1.2,0.3-1.7,0.3-2.7,0.8c-0.2-0.1-0.7-0.3-0.3-0.6
		c1.3,0.2,3-0.6,4.4-1.2C137.8,67.6,135.3,67.9,135.8,68.3z M136.7,68.9c0.5,0.3,0.5,0.5,0.5,0.6c0.5,0.2,0.8,0.4,1.2,0.8
		C138,70.1,136.6,69.6,136.7,68.9z M147,67.6c0.1,0,0.2,0,0.4,0c0.2-0.1,0.3-1,0.4-1c0.5,0.1-0.3,0.6-0.4,1.7
		C147.3,68.2,146.7,68.8,147,67.6z" /><path class="st1" d="M153.5,70.7h52.1v-4.2h-50.7C154.3,68.3,153.9,69.5,153.5,70.7z M177.4,67.4c1,0.9,2.9,1.1,4.4,1.3
		c0.4,0.7-1.9-0.4-1.7,0.2c-1.2-0.4-1.6-0.7-2.7-0.8C177.3,67.8,177,67.4,177.4,67.4z M176,67.4c-0.2,0.6-0.6,0.7-1.2,1.7
		C174.5,68.7,175.5,67.7,176,67.4z" /><path class="st0" d="M14.9,68.5c-0.1,0.5-0.8,0.1-0.1,0.9C15.3,69.6,15.8,69.1,14.9,68.5z" /><path class="st0" d="M107.6,67.3c-0.2,0.5-0.1,1,0.2,1.2l0.1-1C107.8,67.4,107.7,67.3,107.6,67.3z" /><path class="st0" d="M4.3,68.2C3.9,67.8,6,68.1,6.1,68c-0.2,0-0.4,0-0.3,0.1c0.8,0,1.1-0.1,1-0.3C6,67.5,2.7,67.8,4.3,68.2z" /><path class="st0" d="M65.7,70.9c0.3-0.1,0.3,0.6,0.7-0.1c0-0.1,0-0.1,0-0.2H66C65.9,70.7,65.8,70.8,65.7,70.9z" /><path class="st0" d="M66.5,69c-0.9,1.3,0.3,0.9-0.5,1.7h0.5c0.1-1.2,1.8-2.5,2.5-3.6C68.3,66.9,66.3,70.6,66.5,69z" /><path class="st0" d="M103.9,67.5c-0.4,0.2,0.9,1,1.2,1.5C105.8,68.8,104.2,68,103.9,67.5z" /><path class="st0" d="M89.9,67.8c0.1,0.1,0.2,0.2,0.7,0.2c0,0,0-0.1-0.1-0.1L89.9,67.8z" /><path class="st0" d="M69.4,69l0.5,0.5c0.1,0,0.1,0,0.2,0C69.8,69,69.6,69,69.4,69z" /><path class="st0" d="M174.7,69.1c0.6-1,1-1.1,1.2-1.7C175.5,67.7,174.5,68.7,174.7,69.1z" /><path class="st0" d="M40.4,69.5c0.1,0.1,0.1,0.3,0.2,0.4c0.9-0.3,1.8-0.6,2.2-0.9C42.4,68.9,41.4,69.2,40.4,69.5z" /><path class="st0" d="M53.6,70.7H54c-1.6-0.8-3.7-1.8-7.2-3.3C46.9,67.5,50.2,69.1,53.6,70.7z" /><path class="st0" d="M154.7,66.4c-0.5,1.4-0.9,2.9-1.4,4.2h0.1c0.4-1.2,0.8-2.4,1.4-4.2H154.7z" /><path class="st0" d="M147.8,66.6c-0.2,0-0.3,1-0.4,1c-0.1,0-0.2,0-0.4,0c-0.4,1.2,0.3,0.5,0.4,0.7
		C147.5,67.2,148.4,66.7,147.8,66.6z" /><path class="st0" d="M137.1,67.2c-1.4,0.6-3,1.5-4.4,1.2c-0.4,0.3,0.1,0.5,0.3,0.6c1-0.5,1.5-0.5,2.7-0.8
		C135.3,67.9,137.8,67.6,137.1,67.2z" /><path class="st0" d="M180,68.9c-0.2-0.6,2.1,0.5,1.7-0.2c-1.5-0.2-3.4-0.4-4.4-1.3c-0.5,0-0.2,0.5-0.1,0.7
		C178.4,68.2,178.8,68.5,180,68.9z" /><path class="st0" d="M137.2,69.5c0-0.2,0-0.3-0.5-0.6c-0.1,0.7,1.2,1.2,1.6,1.4C138,69.8,137.7,69.6,137.2,69.5z" /><path class="st0" d="M10.2,70.5c0.5-0.6,1.1-1.3,0.8-1.6C9.9,70,10.4,69.8,10.2,70.5z" /><path class="st0" d="M45.3,68.9c-0.1,0.4-0.8-1.5-0.9-1c0.7,1.1,0.7,1.5,0.1,1.3c0.5,0.8,1.6,1.7,1,0.5
		C44.8,69.5,45.4,69.2,45.3,68.9z" /><path class="st0" d="M92,69.3c1.8-1,3.2-2,4.6-2.9H95C93.9,67.4,92.2,68.7,92,69.3z" /></g><g><path class="st1" d="M1.3,0.9v4.2h204.5V0.9H1.3z M11,3.7c-0.3-0.1,1.6-1.2,0.8-1.1c0.3-0.2,0.4,0,0.7-0.3
		C12.5,2.7,11.6,3.5,11,3.7z M14.5,2.8c0.1-0.3,0.2-0.6,0.2-0.8c0,0.3,0,0.6,0,0.8L14.5,2.8z M37.3,3.3c-0.1-0.1-0.1-0.2-0.2-0.3
		c0.5,0,1.3-0.2,1.3-0.5C39.6,2.4,38.6,3.1,37.3,3.3z M39.9,4.8C40,4,40.2,3.3,40,1.6c0.5,0,0,1.6,0.3,2.8
		C40.1,4.3,40.1,4.8,39.9,4.8z M59.3,3c-0.3-0.1-0.7-0.2-1-0.3c0.1-0.3,0.7,0,1.1,0.2L59.3,3z M61,1.6c-0.3-0.2,3,0.9,1.9,0.3
		c2.8,0.9,4.7,1.4,7.9,2.3C68.6,3.8,63.8,2.3,61,1.6z M87,4.3c-0.3-0.2-0.5-0.4-0.7-0.9c0.2,0,0.6,0.4,0.9,0.7L87,4.3z M89.1,2.2
		c0.4-0.1,1.6,0.8,2.2,1.1C90.9,3.4,89.7,2.5,89.1,2.2z M94.4,3.1c-0.5-0.7-0.1-1-0.8-0.4c-0.2-1.4,0.7-1.7,0.9,0
		C94.4,2.6,94.4,2.8,94.4,3.1z M101.2,3.9c0-0.3,0-0.7-0.5-1.4c0.3,0.3,0.5,0.8,0.8,1.2L101.2,3.9z M122.8,3
		c-0.2-0.2-0.5-0.3-0.9-0.5c0.2-0.2,0.2-0.4,1.1,0C122.9,2.6,122.8,2.8,122.8,3z M124.7,2.5c0.1-0.1,0.1-0.2,0.2-0.3
		c0.8,0.9,1.2,0.9,1.5,1.5C125.8,3.2,125.5,3.3,124.7,2.5z M148,3.5c-0.4-0.1,0.1-0.9,0.5-1.6C149.1,1.7,148.5,3,148,3.5z
		 M164.7,3.7c-0.3-0.1,0.1-0.6,0.1-0.8c-0.2-0.8-0.7-0.7-0.6-1.6c0.2,0.2,0.3,0.7,0.5,0.6c0,0.8,0.1,0.4,0.3,1.4
		C164.7,3.2,164.8,3.7,164.7,3.7z M169,2.9c-1-0.1-1.3,0.2-1.7,0.3c-0.9-0.1-0.1-0.5,0.7-0.3c-0.2-0.2-1.6-0.1-1.1-0.5
		c2.1,0.2,4.5,0.6,6.7,1.1C172.7,3.9,170.7,3.1,169,2.9z M194.5,4.5c0.5,0.5-1.7-0.9-2.6-1.2c1.5,0.4,1.2-0.5-0.2-1
		c0.2-0.1,0.3,0.1,0.7,0.2c0.4,0.1,0.6,0,0.7-0.2c1.1,0.7,1.9,0.8,2.2,1.4c-1.9-0.8-0.4,0.2-1.7-0.4C194,3.9,193.1,3.8,194.5,4.5z
		 M197.7,4.1c0-0.5,0.3-1.5,0.6-2C198.9,1.9,197.9,3.9,197.7,4.1z" /><path class="st0" d="M93.6,2.6c0.7-0.6,0.3-0.3,0.8,0.4c0-0.3,0-0.4,0.2-0.4C94.3,0.9,93.4,1.2,93.6,2.6z" /><path class="st0" d="M121.8,2.5c0.4,0.2,0.7,0.4,0.9,0.5c0-0.2,0.1-0.4,0.1-0.6C122.1,2,122,2.3,121.8,2.5z" /><path class="st0" d="M14.5,2.8l0.3,0.1c0-0.3,0-0.5,0-0.8C14.6,2.2,14.6,2.5,14.5,2.8z" /><path class="st0" d="M58.2,2.6c0.4,0.1,0.7,0.2,1,0.3l0.1-0.2C58.9,2.6,58.3,2.4,58.2,2.6z" /><path class="st0" d="M11,3.7c0.6-0.2,1.5-1.1,1.6-1.4c-0.4,0.3-0.4,0.1-0.7,0.3C12.6,2.6,10.7,3.6,11,3.7z" /><path class="st0" d="M40,1.6c0.2,1.7,0,2.4-0.2,3.2c0.2,0,0.2-0.5,0.4-0.5C40,3.2,40.6,1.5,40,1.6z" /><path class="st0" d="M38.5,2.5c0,0.3-0.8,0.5-1.3,0.5c0.1,0.1,0.1,0.2,0.2,0.3C38.6,3.1,39.6,2.4,38.5,2.5z" /><path class="st0" d="M89.1,2.2c0.6,0.3,1.8,1.2,2.2,1.1C90.8,3,89.6,2.1,89.1,2.2z" /><path class="st0" d="M148.5,1.8c-0.4,0.7-0.9,1.5-0.5,1.6C148.5,3,149.1,1.7,148.5,1.8z" /><path class="st0" d="M124.9,2.2c-0.1,0.1-0.1,0.2-0.2,0.3c0.8,0.9,1.1,0.7,1.7,1.2C126.1,3.1,125.7,3.1,124.9,2.2z" /><path class="st0" d="M198.3,2.1c-0.4,0.5-0.6,1.5-0.6,2C197.9,3.9,198.9,1.9,198.3,2.1z" /><path class="st0" d="M61,1.6c2.8,0.7,7.6,2.2,9.8,2.6c-3.1-0.8-5.1-1.4-7.9-2.3C64,2.5,60.6,1.4,61,1.6z" /><path class="st0" d="M168,2.9c-0.7-0.2-1.5,0.2-0.7,0.3c0.4-0.2,0.7-0.4,1.7-0.3c1.6,0.2,3.7,1,4.6,0.6
		c-2.2-0.5-4.6-0.9-6.7-1.1C166.4,2.8,167.8,2.7,168,2.9z" /><path class="st0" d="M101.2,3.9l0.3-0.2c-0.3-0.5-0.5-0.9-0.8-1.2C101.2,3.3,101.2,3.6,101.2,3.9z" /><path class="st0" d="M86.4,3.4c0.1,0.4,0.4,0.7,0.7,0.9l0.2-0.2C86.9,3.8,86.6,3.4,86.4,3.4z" /><path class="st0" d="M195.3,3.7c-0.3-0.6-1.1-0.7-2.2-1.4c-0.1,0.2-0.3,0.3-0.7,0.2c-0.4-0.1-0.5-0.4-0.7-0.2
		c1.4,0.6,1.7,1.4,0.2,1c0.9,0.3,3.1,1.6,2.6,1.2c-1.4-0.7-0.4-0.6-0.9-1.2C194.8,3.9,193.4,2.8,195.3,3.7z" /><path class="st0" d="M164.6,1.9c-0.2,0.2-0.3-0.4-0.5-0.6c-0.1,0.9,0.3,0.9,0.6,1.6c0,0.2-0.4,0.7-0.1,0.8
		c0.1-0.1,0.1-0.5,0.3-0.5C164.7,2.3,164.6,2.6,164.6,1.9z" /></g><g><path class="st1" d="M4.2,50.4v5.1H38V43.8h-6.5l-0.4,5.1H17.3V36.8h14.4v-6.6h-5.1c-1.2,0.8-2.6,1.7-4.1,2.6
		c0.1-0.6,1.5-1.7,2.6-2.6h-7.8V19.4H31l0.4,5.1h6.6V12.9H8.8H4.2V18l4.5,0.9v30.6L4.2,50.4z M33.7,50.5c-0.2-1.1,0.4-0.5,0.1-1.8
		c0.3-0.3,0.3,0.6,0.5,0.6C34.2,49.9,34,51.1,33.7,50.5z M35.9,47c0.1,0.3-0.2,0.4-1,0.3c-0.1-0.1,0.1-0.1,0.3-0.1
		c0,0-2.1-0.2-1.7,0.1C31.9,46.9,35.2,46.7,35.9,47z M36.2,20.4c-0.4,1-0.7,0.8-1.1,1.8c-0.1,0,0.1-0.4,0.2-0.6
		c-0.1-0.1-0.2,0.1-0.3,0.3c-0.1-0.1,0.1-0.3,0.2-0.3c0.6-0.9,0-0.7,0.6-1.6C35.8,20.2,35.9,20.4,36.2,20.4z M35.3,18.6L35.3,18.6
		c-0.7-0.3-1.3-0.8-2.1-1.3C32.3,16.8,33.5,17.5,35.3,18.6z M31.1,16.2c0,0.4-1.3-0.3-2.4-0.4C28.9,15.7,30.7,15.9,31.1,16.2z
		 M21,32c0,0.2,0.3,0.3,0.8,0c-0.4,0.5-1.9,0.7-1.8,0.4C20.3,32.3,20.7,32.1,21,32z M16.9,31c0.3,0.4,0.7,0.9,1.1,1.2
		c-0.2,0.1-0.7-0.4-1.2-1L16.9,31z M15.3,31.6c-0.5,0.1-0.9,0.2-1.4,0.3c0.2-0.2,0.3-0.5-0.2-0.3C13.8,31.3,15.3,31.1,15.3,31.6z
		 M12.7,47.3c0,0-0.1,0-0.1,0c-0.1-1.1-0.1-2.3-0.2-3c-0.2-1.1-0.4-1.9-0.5-2.7c0.1,0,0.1,0,0.2,0c0.2,1.7,0.6,3.9,0.7,5.3
		C12.7,46.8,12.7,47,12.7,47.3z M12.4,39.4c-0.5,1.6-0.8,0.8-0.4-0.4C12.1,39.2,12.2,39.4,12.4,39.4z M11.7,15.3
		c0.5,0.4-0.2,1.7,0.3,2C11.5,18.6,11.4,16.6,11.7,15.3z M11.4,52.6l0.1,0.4c-0.6,0.2-1,0.4-0.7,0.6c-0.5,0.1-0.7,0-0.9-0.1
		c0.5-0.2,0.9-0.4,0.9-0.5c-0.2-0.2-1.1,0.4-1.4,0.3c0.4-0.3,0.1-0.6,1-0.9C10.2,52.9,10.7,52.8,11.4,52.6z M8.7,17.8
		c0-0.8,0.8-2.3,1.1-3.3c0.3-0.4,0.1,0.1,0.6-0.2c-0.2,0.3-0.3,0.2-0.4,0.2c-0.4,0.8-0.4,1.1-0.5,1.7c0.4,0.1,0.3-1.1,0.6-0.9
		C10.5,15.6,9,17,8.7,17.8z" /><path class="st1" d="M48.2,18.4c-3.5,4.1-5.3,9.3-5.3,15.5v0.6c0,6.2,1.8,11.4,5.3,15.5s8.2,6.1,14,6.1c0.8,0,1.5,0,2.3-0.1
		s1.5-0.2,2.3-0.4l1.6,1.1c0.1-0.7,0.3-1.5,0.4-1.8c0.4,0.9,0.5-0.9,0.8-1.8c-0.2,2-0.4,2.7-0.6,4l8,5.4l3-2.3
		c-0.7-0.4-1.4-0.9-2.2-1.4c0.3,0,1.5,0.6,2.4,1.2l2.8-2.1l-9.1-5.7c0.1-0.1,0.3-0.3,0.4-0.4c-0.4-0.2-0.8-0.4-0.7-0.5
		c0.3,0.1,0.5,0.2,0.8,0.3c0,0,0,0.1,0,0.1c2.2-1.9,3.9-4.2,5.1-7c0.1-0.2,0.2-0.4,0.2-0.6c-0.3-1-0.6-2.1-1-3.1
		c0.1,0,0.2,0,0.3-0.1c0.3,0.7,0.6,1.7,1,2.5c1-2.7,1.5-5.7,1.5-8.9v-0.6c0-6.2-1.8-11.4-5.4-15.5c-0.3-0.4-0.6-0.7-1-1
		c0,0.1,0,0.2,0,0.3c-0.5,0.8-0.8,0.9-0.9,0.5c0.2-0.4,0.4-0.8,0.7-1.2c-3.4-3.2-7.7-4.8-12.8-4.8c-0.2,0-0.4,0-0.6,0
		c2.5,3.8,3.8,5.9,4.8,7.5c1.6,0.7,2.9,1.8,3.9,3.3c1.8,2.8,2.8,6.3,2.8,10.8v0.7c0,4.5-0.9,8.1-2.7,10.9s-4.5,4.1-8.1,4.1
		c-3.6,0-6.3-1.4-8-4.1s-2.7-6.4-2.7-10.9v-0.7c0-4.5,0.9-8,2.7-10.8c0.8-1.2,1.8-2.1,2.9-2.8c-0.5-0.1-1-0.2-1.5-0.3
		c-1-0.1-1.3,0.2-1.7,0.3c-0.9-0.1-0.1-0.5,0.7-0.3c-0.2-0.2-1.6-0.1-1.1-0.5c1.3,0.1,2.6,0.3,4,0.6c1.4-0.7,3-1.1,4.8-1.1
		c1.5,0,2.8,0.2,4,0.7c-1.9-2.9-4-6.2-4.6-7.4c-2.4,0.1-4.6,0.5-6.7,1.3c0.2,0.2,0.4,0.3,0.6,0.5c-0.2,0.2,0.4,0.7,0.9,1.2
		c-1.1-0.1,1.1,1.4,1.3,2c-0.4,0-1.2-0.8-1.7-1.1c0.2-0.3-0.2-1.5-1.3-2.5C52.1,14.7,50,16.3,48.2,18.4z M44,29.5
		c0.1-0.3,0.1-0.8,0.1-1.4c-0.2-1.1,0.3,1.1,0.3,1.7C44.5,33.6,44.5,30,44,29.5z M45.5,42.8c-0.1-0.4-0.8,0-0.9-0.3
		C45.3,42,47,41.6,45.5,42.8z M46.2,30.8c-0.2-0.2-0.2-3.4,0.3-4.2C46.3,28.4,46.3,28.7,46.2,30.8z M79.9,31.5
		c-0.4-0.1-1-0.1-1,0.7c0.4,0.3,0.7,1.1,1,1.8c0,0.1-0.1,0.1-0.1,0.2c0,0,0,0.1-0.1,0.1c-0.3-0.7-0.8-1.8-1.2-2.6
		c0.8-0.2,1.1-1-0.7-4.1C78.7,28.5,79.3,30.3,79.9,31.5z M71.3,20.6c-0.3-1.7-0.5-3.3,0.3-2.8c-0.3,0.4-0.1,1.4,0.4,2.1
		C71.9,20.4,71.6,21.1,71.3,20.6z M73.5,51.5c0.1,0.1,0.1,0.1,0.2,0.2c-0.5,0.2-1.1,0.4-1.8,0.8C71.9,52.2,72.7,51.7,73.5,51.5z
		 M71.6,49.9c0,0.1,0.1,0.2,0.4,0.2c-0.3,0.2-0.8,0.2-1.7,0.2C70,50,70.5,49.9,71.6,49.9z M56.3,49.5l0.1,0c-0.1,0.7,0,1.4,0,2.4
		C56.2,51.6,56.3,50.5,56.3,49.5z" /><path class="st1" d="M102.2,18v-5.2h-4.6H89h-2.1c0.9,1,1.8,2,2.9,3c-1.2-0.9-2.3-1.9-3.2-3l0,0h-2.1V18l4.5,0.9v22.3
		c0,4.8,1.6,8.5,4.7,11.1s7.3,3.9,12.3,3.9c0,0,0.1,0,0.1,0c0-0.1,0-0.2,0.1-0.3c1.3,0.2,3-0.6,4.4-1.2c0.7,0.4-1.8,0.7-1.4,1.1
		c-0.7,0.2-1.1,0.2-1.5,0.4c4.3-0.3,7.9-1.5,10.7-3.8c3.2-2.6,4.7-6.3,4.7-11.1V18.9l4.6-0.9v-5.2h-17.7V18l4.5,0.9v22.3
		c0,2.8-0.8,4.9-2.3,6.3s-3.6,2.1-6.3,2.1c-2.6,0-4.7-0.7-6.2-2.1s-2.3-3.5-2.3-6.3V18.9L102.2,18z M90.6,24.4c0-0.3,1.3,1,1,0.3
		c0.2,0.3,1,0.8,0.7,0.9C90.7,24.4,91,25.5,90.6,24.4z M92.1,42.9c0,0-0.1,0-0.1,0c-0.1-1.1-0.1-2.3-0.2-3
		c-0.2-1.1-0.4-1.9-0.5-2.7c0.1,0,0.1,0,0.2,0c0.2,1.7,0.6,3.9,0.7,5.3C92.1,42.4,92,42.6,92.1,42.9z M93.6,28.3
		c-0.1,0-0.1,0-0.1,0c0,0,0,0,0,0.1c-0.1,0-0.1-0.1-0.2-0.1c-0.1,0-0.1,0-0.2-0.1c0,0-0.1,0.1-0.1,0.1c-0.1,0.6,0,0.9-0.5,2
		c-0.2-0.4,0-1.4,0.4-2.2c-0.5-0.2-0.6-0.2-1.7-0.4c0.1-0.2,1.1-0.1,1.7,0.2c0-0.1,0.1-0.2,0.2-0.3c0.2,0.2,0.8-0.3,0.4,0.6
		C93.5,28.2,93.6,28.3,93.6,28.3z M125.1,15.5c0.1,0,0.1,0,0.2,0l0.5,0.1c-0.1,0.8-1.1,1.5-1.1-0.2L125.1,15.5z M123.1,15.1
		l0.2,0.5c-0.1-0.2-0.3-0.3-0.7,0C122.7,15.4,122.9,15.2,123.1,15.1z M119.9,44.9c0,1.1-0.1,2.1-0.5,2.3
		C119.6,46.4,119.4,44.9,119.9,44.9z M119.4,17.4C119.4,17.4,119.4,17.4,119.4,17.4c-0.1,0-0.1-0.2-0.1-0.4L119.4,17.4z M117,36.4
		c0.1,0,0.2,0,0.3,0c0.2,0.7,0.3,1.5,0.5,2.3C117.7,39.1,117.3,37.5,117,36.4z M118.1,33.9c0.1,0,0.2,0.1,0.2,0.1
		C118.1,34.2,118,34.1,118.1,33.9z M118,33.9C118,33.9,118,33.9,118,33.9C118,33.9,118,33.9,118,33.9C118,33.9,118,33.9,118,33.9z
		 M116.8,34c0.2,0.2,0.5,0.3,0.6,0.2c0.3,0.3,0.3,0.5,0.7,0.8c-0.2,0.1-1.1-0.7-1.4-0.9C116.7,34.1,116.8,34,116.8,34z
		 M110.5,16.2c0.6,0.3,1,0.2,1.9,0.9C112.2,17.4,111.4,16.8,110.5,16.2z M113.7,15.6c0-0.1,0.1-0.3,0.1-0.4l0.3,0.1
		c0,0,0-0.1,0.1-0.1c0.1,0.1,0.2-0.1,0.2-0.3c0.1,0.3,0.1,0.5,0.2,0.6l0.2,0.1c0,0,0,0.1,0,0.1c0.1,0,0.2,0.1,0.3,0.1
		c0,0-0.1,0.1-0.1,0.1l-0.3-0.1C114.3,16.2,113.9,15.7,113.7,15.6z M113.7,52.7c-0.1,0.3-0.4,0.3-1-0.3c0.2-0.1-0.1-0.4-0.4-0.7
		C112.6,51.7,113.2,52.3,113.7,52.7z M94.2,47.4l0.3-0.2c0.3,0.3,0.5,0.6,0.5,0.7C94.7,47.9,94.5,47.7,94.2,47.4z M94.9,25.5
		c-0.3-0.8-0.6-3.3,0-3.9c-0.3,1,0.1,1.3,0.2,2.1C95.2,24.8,94.7,24.3,94.9,25.5z M98.6,50.7c0.2,0.1,0.4,0.3,0.6,0.4
		c-0.2,0.2-0.7,0,0.1,0.6c0,0.1-0.2,0-0.3-0.1c-0.2-0.1-0.4-0.3-0.6-0.4c0-0.1,0.2,0,0.3,0.1c-0.1-0.2-0.2-0.4-0.5-0.6
		C98.3,50.7,98.5,50.8,98.6,50.7z M98.2,47.8c-0.4,0.3-1.4,0.6-2.2,0.9c-0.1-0.1-0.1-0.3-0.2-0.4C96.8,47.9,97.8,47.6,98.2,47.8z" /><path class="st1" d="M152.4,14.7l-0.6-1.8H143l-13,37.1l-3,0.4v5.1h4.9c2.3-1.5,6.1-3.9,8.5-5.3l-1.8-0.3l1.9-5.9h13.8l1.9,5.9
		l-3,0.5v5.1h14.5v-5.1l-3-0.4l-12.1-34.7c-0.9-0.8-1.8-1.6-2.4-2.1C150.7,13.2,151.5,13.9,152.4,14.7z M165.1,52.5
		c0.8,0.6,0.4,1.1-0.1,0.9C164.3,52.7,165.1,53.1,165.1,52.5z M155.5,37.1c0.1-0.2,0.5,0.4,0.3-0.2c0.3-0.1,0.1,0.6,0.5,1.3
		C156.1,38.5,155.8,37.7,155.5,37.1z M158.4,51.8c-0.3-0.5-0.4-2.5,0.1-2.2C158.6,50.6,158.2,50.6,158.4,51.8z M158.2,46.4
		c0.4-0.5,0.8-2.1,0.4-3.7c0.5-0.1,0.3,0.7,0.5,2c-0.3,0-0.2,0.8-0.1,1.5c-0.2-0.3-0.3-0.2-0.4,0.1c0.5,0.3,0.4,0.4,0,0.4
		c0,0.6,0.1,1.5-0.1,1.8c-0.2-0.3-0.3-1.3-0.5-1.9c-0.3-0.1-0.5-0.2-0.7-0.3C157.2,46.1,157.9,46.4,158.2,46.4z M155.7,27.7
		c-0.1,0.2-0.4,1.2,0.5,1.4c0.1,0.3,0.2,0.6,0.5,1c-0.7,0-1.6-2.4-2.1-3.2C154.8,26.9,155.4,27.7,155.7,27.7z M143.1,18.7
		c0.8,0.2-0.2-0.6,1-0.2c0.1,0.3-0.5,0.3-0.7,0.5c-0.3-0.1-0.4-0.2-0.7-0.2c0-0.1,0-0.2,0-0.2C143,18.5,143,18.6,143.1,18.7z
		 M142.9,31.2c-0.3,0,0.1-1.5,0-2.1C143.3,28.8,143,30.9,142.9,31.2z M140.9,30.4l-0.1,0.1c0-0.1,0-0.2,0-0.3
		C140.8,30.2,140.8,30.3,140.9,30.4z M134.1,45.2c-0.2,0.2-0.3-0.2-0.5-0.2C133.7,43.7,134.3,43.5,134.1,45.2z M135.3,43.4
		c0.3-0.1,0.1-0.3,0.6-0.3c1.1-0.1,0.6,0.4,1.5,0.3C137.2,43.8,135.8,43.6,135.3,43.4z M139.6,30.7c-0.6-0.1-0.6,0-1,0
		c-0.6-0.3,1.2,0,2.1,0.3l0,0.2c-0.3,0-0.7-0.1-0.7,0C139.3,30.9,139.3,30.8,139.6,30.7z M140.9,40.9c0.2-1.3-0.7-3-1.4-4.3
		c0.4-0.7,0.8,1.8,1.1,1.3c0.4,1.2,0.4,1.7,0.9,2.7C141.4,40.8,141.2,41.3,140.9,40.9z M142.4,39.5c0.5,0.3,0.5,0.5,0.5,0.6
		c0.5,0.2,0.8,0.4,1.2,0.8C143.6,40.7,142.2,40.2,142.4,39.5z M152.7,38.3c0.1,0,0.2,0,0.4,0c0.2-0.1,0.3-1,0.4-1
		c0.5,0.1-0.3,0.6-0.4,1.7C152.9,38.8,152.3,39.4,152.7,38.3z M152.2,37.7h-9.8l4.8-15h0.2L152.2,37.7z" /><path class="st1" d="M141.5,55.5v-5.1l-0.9-0.2c-4.8,3.1-6.3,3.9-8.6,5.3H141.5z" /><path class="st1" d="M170.5,50.4v5.1h32.1V43.6H196l-0.4,5.4h-12v-5.2c-1.5,4.6-2,5.9-3,8.9c0.6-2.2,2-6.4,3-9.5V18.9l4.6-0.9
		v-5.2h-4.6H175h-4.5V18l4.5,0.9v30.6L170.5,50.4z M198.2,49.9c0.6-1.5,1.2-1.7,2.1-2.9C200.5,47.6,199,48.6,198.2,49.9z
		 M198,45.4c0.2,0,0.1,0.6,0.3,0.1c0.3,0.1-0.4,0.5-0.5,1.3C197.4,46.8,197.8,46,198,45.4z M178.5,35.6c0.8-0.7,1.7-1.6,1.8-1.2
		c-1.3,1.2-0.2,0.6,0.2,0.6c-0.5,0.8-1.4,1-0.5,0.9c-0.5,0.4-0.9,0.4-1.5,1C178.2,36.7,178.4,36.2,178.5,35.6z M181.7,37.5
		c0.7,0.3,0.7,0.6,0.6,1c-2.2-0.5,0.5,0.7-1.1,0.5c-1.9-0.8,1.6-0.7-1.3-1.5C180.3,37,182.1,38.6,181.7,37.5z M178.8,17.2
		c0.9,0.4,1.6,0.7,2.4,1.2c-0.7,0-1.6-0.6-2.5-1L178.8,17.2z M178.7,22.2c0.1,0.5-0.1,0.5-0.4,0.4l-0.3-0.9
		C178.2,22,178.5,22.5,178.7,22.2z M174.3,14.1c0.3,0,1.1,2.1,1.6,1.8c0.7,1-0.4,0.3,0.1,1c-0.1,0.3-0.7-0.7-0.9-0.6
		C175.4,16.2,175,15.3,174.3,14.1z M175.5,53.2c-0.1,0-1.5-1-1.2-1.3C175.2,52.5,175.2,52.8,175.5,53.2z" /><path class="st1" d="M118.3,34.1c-0.1,0-0.2-0.1-0.2-0.1C118,34.1,118.1,34.2,118.3,34.1z" /><path class="st0" d="M178.8,17.2l-0.1,0.2c0.8,0.4,1.8,0.9,2.5,1C180.4,17.9,179.7,17.7,178.8,17.2z" /><path class="st0" d="M118.1,35c-0.4-0.3-0.4-0.5-0.7-0.8c-0.1,0.1-0.3,0-0.6-0.2c0,0-0.1,0.1-0.1,0.1
		C117.1,34.3,117.9,35.1,118.1,35z" /><path class="st0" d="M118,33.9C118,33.9,118,33.9,118,33.9C118,33.9,118,33.9,118,33.9C118,33.9,118,33.9,118,33.9z" /><path class="st0" d="M200.3,47c-0.9,1.2-1.5,1.4-2.1,2.9C199,48.6,200.5,47.6,200.3,47z" /><path class="st0" d="M156.6,30.1c-0.3-0.4-0.4-0.7-0.5-1c-0.8-0.3-0.6-1.2-0.5-1.4c-0.3,0-0.8-0.8-1.2-0.8
		C155.1,27.6,155.9,30.1,156.6,30.1z" /><path class="st0" d="M165.1,52.5c-0.1,0.5-0.8,0.1-0.1,0.9C165.6,53.6,166,53.1,165.1,52.5z" /><path class="st0" d="M158,46.5c0.1,0,0.1-0.1,0.2-0.2c-0.3,0-1-0.2-0.9,0c0.2,0.1,0.4,0.2,0.7,0.3C158,46.6,158,46.6,158,46.5z" /><path class="st0" d="M158.6,46.7c0.4,0,0.5-0.1,0-0.4C158.6,46.4,158.6,46.6,158.6,46.7z" /><path class="st0" d="M180.5,35c-0.4,0-1.5,0.6-0.2-0.6c-0.2-0.4-1.1,0.5-1.8,1.2c-0.1,0.6-0.2,1.1,0.1,1.3c0.6-0.6,1-0.6,1.5-1
		C179.1,36,180,35.8,180.5,35z" /><path class="st0" d="M178.7,22.2c-0.2,0.3-0.4-0.2-0.7-0.5l0.3,0.9C178.5,22.8,178.7,22.7,178.7,22.2z" /><path class="st0" d="M21.8,32c-0.6,0.2-0.8,0.2-0.8,0c-0.3,0.1-0.6,0.3-1,0.4C19.9,32.8,21.5,32.5,21.8,32z" /><path class="st0" d="M119.9,44.9c-0.5,0-0.3,1.5-0.5,2.3C119.8,46.9,119.9,46,119.9,44.9z" /><path class="st0" d="M33.6,47.4c-0.4-0.3,1.7-0.1,1.7-0.1c-0.2,0-0.4,0-0.3,0.1c0.8,0,1.1-0.1,1-0.3
		C35.2,46.7,31.9,46.9,33.6,47.4z" /><path class="st0" d="M135.9,43.1c-0.5,0-0.3,0.3-0.6,0.3c0.5,0.2,1.9,0.4,2.1,0C136.5,43.4,137,43,135.9,43.1z" /><path class="st0" d="M12.4,39.4c-0.2,0-0.3-0.1-0.4-0.4C11.6,40.2,11.9,41,12.4,39.4z" /><path class="st0" d="M33.8,48.7c0.3,1.3-0.3,0.8-0.1,1.8c0.3,0.6,0.5-0.6,0.6-1.2C34.1,49.3,34.1,48.4,33.8,48.7z" /><path class="st0" d="M71.9,50.2c-0.3,0-0.4-0.1-0.4-0.2c-1.1-0.1-1.5,0.1-1.3,0.4C71.1,50.4,71.7,50.3,71.9,50.2z" /><path class="st0" d="M12,17.4c-0.4-0.3,0.2-1.7-0.3-2C11.4,16.6,11.5,18.6,12,17.4z" /><path class="st0" d="M133.6,44.9c0.2,0.1,0.2,0.4,0.5,0.2C134.3,43.5,133.7,43.7,133.6,44.9z" /><path class="st0" d="M153.1,39c0-1.1,0.9-1.6,0.4-1.7c-0.2,0-0.3,1-0.4,1c-0.1,0-0.2,0-0.4,0C152.3,39.4,152.9,38.8,153.1,39z" /><path class="st0" d="M46.2,30.8c0.2-2.1,0.1-2.4,0.3-4.2C46,27.4,46,30.6,46.2,30.8z" /><path class="st0" d="M74.4,51.8c0,0,0-0.1,0-0.1c0,0-0.1,0.1-0.1,0.1C74.4,51.8,74.4,51.8,74.4,51.8z" /><path class="st0" d="M73.6,51.3c0,0.1,0.3,0.3,0.7,0.5c0,0,0.1-0.1,0.1-0.1c0,0,0-0.1,0-0.1C74.1,51.5,73.8,51.4,73.6,51.3z" /><path class="st0" d="M73.7,51.6c-0.1-0.1-0.1-0.1-0.2-0.2c-0.8,0.3-1.6,0.7-1.6,1C72.6,52.1,73.2,51.8,73.7,51.6z" /><path class="st0" d="M31.1,16.2c-0.4-0.4-2.2-0.6-2.4-0.4C29.8,15.9,31.1,16.6,31.1,16.2z" /><path class="st0" d="M78.7,41c0.4,1,0.7,2.1,1,3.1c0.1-0.2,0.2-0.5,0.3-0.7c-0.3-0.8-0.6-1.8-1-2.5C79,40.9,78.9,41,78.7,41z" /><path class="st0" d="M112.7,52.4c0.7,0.6,0.9,0.6,1,0.3c-0.5-0.4-1.1-0.9-1.4-1C112.6,52,112.9,52.3,112.7,52.4z" /><path class="st0" d="M92.5,30.3c0.5-1.1,0.4-1.4,0.5-2c0-0.1,0.1-0.1,0.1-0.1c-0.1,0-0.1,0-0.2-0.1
		C92.5,28.9,92.3,29.9,92.5,30.3z" /><path class="st0" d="M93.1,27.6c-0.1,0.1-0.1,0.2-0.2,0.3c0.2,0.1,0.4,0.2,0.5,0.3C93.9,27.3,93.2,27.8,93.1,27.6z" /><path class="st0" d="M93.4,28.3C93.4,28.3,93.4,28.3,93.4,28.3c0-0.1-0.1-0.1-0.2-0.1C93.3,28.3,93.3,28.3,93.4,28.3z" /><path class="st0" d="M91.6,24.7c0.3,0.7-1-0.6-1-0.3c0.4,1.1,0.1-0.1,1.7,1.2C92.6,25.5,91.8,25,91.6,24.7z" /><path class="st0" d="M94.9,21.7c-0.6,0.5-0.3,3.1,0,3.9c-0.2-1.3,0.3-0.7,0.2-1.8C95,23,94.6,22.7,94.9,21.7z" /><path class="st0" d="M18,32.2c-0.4-0.3-0.8-0.7-1.1-1.2l-0.1,0.1C17.3,31.8,17.8,32.3,18,32.2z" /><path class="st0" d="M95.9,48.6c0.9-0.3,1.8-0.6,2.2-0.9c-0.4-0.1-1.4,0.1-2.5,0.5C95.8,48.4,95.8,48.5,95.9,48.6z" /><path class="st0" d="M112.4,17.1c-0.9-0.7-1.2-0.6-1.9-0.9C111.4,16.8,112.2,17.4,112.4,17.1z" /><path class="st0" d="M44.6,42.5c0.1,0.3,0.8-0.1,0.9,0.3C47,41.6,45.3,42,44.6,42.5z" /><path class="st0" d="M114.3,14.8c-0.1,0.2-0.2,0.4-0.2,0.3c0,0,0,0.1-0.1,0.1l0.5,0.1C114.5,15.3,114.4,15.1,114.3,14.8z" /><path class="st0" d="M115,15.7c-0.1-0.1-0.2-0.1-0.3-0.1c0,0,0,0.1-0.1,0.1l0.3,0.1C114.9,15.7,115,15.7,115,15.7z" /><path class="st0" d="M114.7,15.5C114.7,15.5,114.7,15.5,114.7,15.5l-0.2-0.1C114.6,15.4,114.6,15.5,114.7,15.5z" /><path class="st0" d="M114,15.3l-0.3-0.1c0,0.1-0.1,0.3-0.1,0.4c0.2,0.1,0.6,0.6,0.9,0L114,15.3C114,15.3,114,15.3,114,15.3z" /><path class="st0" d="M114.5,15.4l-0.5-0.1c0,0,0,0.1,0,0.1l0.6,0.3c0,0,0-0.1,0.1-0.1C114.6,15.5,114.6,15.4,114.5,15.4z" /><path class="st0" d="M119.4,17.4l-0.1-0.4C119.3,17.2,119.3,17.4,119.4,17.4C119.4,17.4,119.4,17.4,119.4,17.4z" /><path class="st0" d="M123.3,15.6l-0.2-0.5c-0.2,0.1-0.4,0.3-0.5,0.5C123,15.3,123.2,15.4,123.3,15.6z" /><path class="st0" d="M125.8,15.7l-0.5-0.1c-0.1,0-0.1,0-0.2,0l-0.4-0.1C124.7,17.2,125.6,16.5,125.8,15.7z" /><path class="st0" d="M117,36.4c0.3,1.1,0.7,2.7,0.9,2.4c-0.2-0.8-0.4-1.6-0.5-2.3C117.2,36.5,117.1,36.5,117,36.4z" /><path class="st0" d="M158.5,49.6c-0.5-0.2-0.5,1.7-0.1,2.2C158.2,50.6,158.6,50.6,158.5,49.6z" /><path class="st0" d="M86.7,12.6l-0.1,0.3h0.4C86.8,12.8,86.7,12.7,86.7,12.6z" /><path class="st0" d="M89.8,15.8c-1.1-1-2-2-2.9-3h-0.4l0,0C87.5,13.9,88.6,15,89.8,15.8z" /><path class="st0" d="M132,55.5c2.3-1.4,3.8-2.2,8.6-5.3l-0.2,0c-2.4,1.5-6.1,3.8-8.5,5.3H132z" /><path class="st0" d="M183.6,43.8v-0.6c-1.1,3.1-2.4,7.3-3,9.5C181.6,49.7,182.1,48.4,183.6,43.8z" /><path class="st0" d="M66.3,19.7c-1-1.6-2.3-3.7-4.8-7.5c0,0,0,0-0.1,0c0.6,1.1,2.7,4.4,4.6,7.4C66.2,19.7,66.3,19.7,66.3,19.7z" /><path class="st0" d="M139.5,36.6c0.7,1.4,1.6,3,1.4,4.3c0.3,0.4,0.5-0.1,0.6-0.3c-0.5-1-0.5-1.4-0.9-2.7
		C140.3,38.4,139.9,35.9,139.5,36.6z" /><path class="st0" d="M143.4,19c0.1-0.2,0.7-0.2,0.7-0.5c-1.2-0.3-0.2,0.4-1,0.2c0-0.1-0.1-0.1-0.4-0.2c0,0.1,0,0.2,0,0.2
		C143.1,18.8,143.1,18.9,143.4,19z" /><path class="st0" d="M71.6,17.8c-0.8-0.5-0.6,1.1-0.3,2.8c0.3,0.5,0.6-0.2,0.7-0.7C71.5,19.3,71.3,18.2,71.6,17.8z" /><path class="st0" d="M142.9,29.1c0,0.6-0.3,2.1,0,2.1C143,30.9,143.3,28.8,142.9,29.1z" /><path class="st0" d="M75.2,16.7L75.2,16.7c-0.2,0.1-0.3,0.2-0.3,0.4c0.1,0.1,0.2,0.2,0.3,0.3C75.2,17.2,75.2,16.9,75.2,16.7z" /><path class="st0" d="M75.2,17.7c0-0.1,0-0.2,0-0.3c-0.1-0.1-0.2-0.2-0.3-0.3c-0.2,0.4-0.4,0.7-0.7,1.2
		C74.4,18.6,74.7,18.5,75.2,17.7z" /><path class="st0" d="M158,46.6c0.2,0.6,0.3,1.6,0.5,1.9c0.2-0.3,0.1-1.2,0.1-1.8C158.4,46.7,158.2,46.7,158,46.6z" /><path class="st0" d="M158.3,46.2c0.1,0,0.2,0.1,0.3,0.1c0-0.3,0.1-0.4,0.4-0.1c0-0.7-0.2-1.5,0.1-1.5c-0.3-1.3,0-2.1-0.5-2
		c0.4,1.6,0,3.2-0.4,3.7C158.3,46.4,158.4,46.3,158.3,46.2z" /><path class="st0" d="M158,46.5c0,0,0,0.1,0,0.1c0.2,0,0.4,0.1,0.6,0.1c0-0.1,0-0.3,0-0.4c-0.1,0-0.2-0.1-0.3-0.1
		c0.1,0.1,0,0.2-0.1,0.2C158.1,46.5,158,46.5,158,46.5z" /><path class="st0" d="M55.9,16.2c0.5,0.3,1.4,1.1,1.7,1.1c-0.1-0.6-2.3-2.2-1.3-2c-0.5-0.5-1.2-1-0.9-1.2
		c-0.3-0.2-0.5-0.4-0.6-0.5c-0.1,0-0.2,0.1-0.2,0.1C55.6,14.7,56.1,15.9,55.9,16.2z" /><path class="st0" d="M155.8,37c0.2,0.6-0.2,0-0.3,0.2c0.3,0.6,0.6,1.4,0.8,1.1C155.9,37.6,156.1,36.9,155.8,37z" /><path class="st0" d="M197.8,46.7c0.2-0.8,0.8-1.2,0.5-1.3c-0.3,0.5-0.1-0.1-0.3-0.1C197.8,46,197.4,46.8,197.8,46.7z" /><path class="st0" d="M142.8,40.1c0-0.2,0-0.3-0.5-0.6c-0.1,0.7,1.2,1.2,1.6,1.4C143.6,40.5,143.3,40.3,142.8,40.1z" /><path class="st0" d="M110.7,54.6c-1.4,0.6-3,1.5-4.4,1.2c-0.1,0.1-0.2,0.2-0.1,0.3c0.5,0,1.1,0,1.6-0.1c0.4-0.1,0.9-0.2,1.5-0.4
		C108.9,55.3,111.4,55,110.7,54.6z" /><path class="st0" d="M35.2,18.7L35.2,18.7c-1.7-1.2-2.9-1.9-2-1.3C33.9,17.8,34.6,18.3,35.2,18.7z" /><path class="st0" d="M91.2,37.1c0.2,0.8,0.3,1.6,0.5,2.7c0.1,0.8,0.1,1.9,0.2,3c0,0,0.1,0,0.1,0c0-0.3,0-0.5,0-0.5
		c-0.2-1.4-0.5-3.6-0.7-5.3C91.3,37.1,91.3,37.1,91.2,37.1z" /><path class="st0" d="M11.9,41.6c0.2,0.8,0.3,1.6,0.5,2.7c0.1,0.8,0.1,1.9,0.2,3c0,0,0.1,0,0.1,0c0-0.3,0-0.5,0-0.5
		c-0.2-1.4-0.5-3.6-0.7-5.3C12,41.5,11.9,41.5,11.9,41.6z" /><path class="st0" d="M53.3,19.4c-0.5,0.4,0.9,0.3,1.1,0.5c-0.7-0.2-1.5,0.2-0.7,0.3c0.4-0.2,0.7-0.4,1.7-0.3
		c0.5,0,1,0.2,1.5,0.3c0.1-0.1,0.2-0.1,0.3-0.2C55.9,19.8,54.6,19.6,53.3,19.4z" /><path class="st0" d="M174.3,51.9c-0.3,0.4,1.1,1.3,1.2,1.3C175.2,52.8,175.2,52.5,174.3,51.9z" /><path class="st0" d="M68.8,54.9c-0.2,0.4-0.3,1.1-0.4,1.8l0.6,0.4c0.3-1.3,0.4-2,0.6-4C69.3,53.9,69.2,55.7,68.8,54.9z" /><path class="st0" d="M13.9,31.9c0.5-0.1,0.9-0.2,1.4-0.3c0-0.4-1.5-0.2-1.6,0C14.2,31.4,14,31.7,13.9,31.9z" /><path class="st0" d="M56.5,49.5l-0.1,0c0,1-0.1,2.1,0.2,2.4C56.5,50.9,56.4,50.1,56.5,49.5z" /><path class="st0" d="M180,37.5c2.8,0.8-0.7,0.7,1.3,1.5c1.6,0.2-1.2-1,1.1-0.5c0.1-0.4,0.1-0.7-0.6-1
		C182.1,38.6,180.3,37,180,37.5z" /><path class="st0" d="M35.1,21.9c0.1-0.2,0.2-0.4,0.3-0.3c-0.1,0.2-0.3,0.6-0.2,0.6c0.4-1,0.7-0.8,1.1-1.8
		c-0.3,0-0.4-0.2-0.4-0.5c-0.6,0.9,0,0.7-0.6,1.6C35.2,21.5,35,21.8,35.1,21.9z" /><path class="st0" d="M9.4,53.3c0.3,0.1,1.3-0.5,1.4-0.3c0,0.1-0.4,0.3-0.9,0.5c0.2,0.2,0.4,0.2,0.9,0.1
		c-0.3-0.2,0.2-0.4,0.7-0.6l-0.1-0.4c-0.7,0.2-1.2,0.3-1-0.2C9.6,52.8,9.9,53,9.4,53.3z" /><path class="st0" d="M175,16.3c0.2-0.1,0.8,0.8,0.9,0.6c-0.4-0.7,0.6,0-0.1-1c-0.5,0.3-1.2-1.8-1.6-1.8
		C175,15.3,175.4,16.2,175,16.3z" /><path class="st0" d="M98.7,51.3c-0.2-0.1-0.4-0.2-0.3-0.1c0.2,0.1,0.4,0.3,0.6,0.4c0.2,0.1,0.4,0.2,0.3,0.1
		c-0.8-0.7-0.3-0.4-0.1-0.6c-0.2-0.1-0.4-0.3-0.6-0.4c0,0.1-0.3,0-0.4,0C98.5,51,98.6,51.1,98.7,51.3z" /><path class="st0" d="M10.1,15.3c-0.3-0.2-0.2,1-0.6,0.9c0.1-0.5,0.1-0.9,0.5-1.7c0.1,0,0.2,0.1,0.4-0.2
		c-0.5,0.3-0.3-0.3-0.6,0.2c-0.2,1-1,2.5-1.1,3.3C9,17,10.5,15.6,10.1,15.3z" /><path class="st0" d="M78.6,31.6c0.4,0.8,0.9,1.9,1.2,2.6c0,0,0-0.1,0.1-0.1c0-0.1,0.1-0.1,0.1-0.2c-0.3-0.7-0.6-1.5-1-1.8
		c-0.1-0.8,0.6-0.8,1-0.7c-0.6-1.2-1.2-3-2-4C79.6,30.6,79.4,31.4,78.6,31.6z" /><path class="st0" d="M91.2,27.7c1.1,0.1,1.2,0.2,1.7,0.4c0-0.1,0-0.1,0.1-0.2C92.2,27.7,91.3,27.5,91.2,27.7z" /><path class="st0" d="M93.1,28.1c0.1,0,0.1,0,0.2,0.1C93.2,28.1,93.2,28,93.1,28.1z" /><path class="st0" d="M93.6,28.3c0,0-0.1-0.1-0.1-0.1c0,0,0,0,0,0.1C93.5,28.3,93.5,28.3,93.6,28.3z" /><path class="st0" d="M92.9,28.1c0.1,0,0.1,0,0.2,0.1c0.2-0.2,0.2-0.1,0.2,0.1c0.1,0,0.1,0,0.2,0.1c0,0,0,0,0-0.1
		c-0.1-0.1-0.3-0.2-0.5-0.3C92.9,28,92.9,28,92.9,28.1z" /><path class="st0" d="M44.1,28.1c0,0.6,0,1.1-0.1,1.4c0.4,0.5,0.4,4.1,0.4,0.3C44.3,29.2,43.9,27,44.1,28.1z" /><path class="st0" d="M94.2,47.4c0.3,0.3,0.6,0.5,0.7,0.5c0-0.1-0.2-0.4-0.5-0.7L94.2,47.4z" /><path class="st0" d="M140.8,31.1l0-0.2c-0.9-0.3-2.7-0.6-2.1-0.3c0.4,0.1,0.5-0.1,1,0c-0.4,0.1-0.4,0.2,0.4,0.4
		C140,31,140.4,31,140.8,31.1z" /><path class="st0" d="M140.9,30.4c-0.1-0.1-0.1-0.2-0.2-0.2c0,0.1,0,0.2,0,0.3L140.9,30.4z" /><path class="st0" d="M22.5,32.7c1.5-0.9,2.9-1.8,4.1-2.6h-1.5C24.1,31,22.7,32.1,22.5,32.7z" /><path class="st0" d="M150.1,13.1c0.6,0.5,1.5,1.3,2.4,2.1l-0.2-0.5C151.5,13.9,150.7,13.2,150.1,13.1z" /></g></svg>