<?xml version="1.0" encoding="utf-8"?>
<!-- Generator: Adobe Illustrator 21.1.0, SVG Export Plug-In . SVG Version: 6.00 Build 0)  -->
<svg version="1.1" id="Layer_1" xmlns="http://www.w3.org/2000/svg" xmlns:xlink="http://www.w3.org/1999/xlink" x="0px" y="0px"
	 viewBox="0 0 155 155" style="enable-background:new 0 0 155 155;" xml:space="preserve" width="155" height="155" preserveAspectRatio="none">
<style type="text/css">
	.st0{fill:none;stroke:#D6C8AF;stroke-width:5;stroke-miterlimit:10;}
	.st1{fill:#787878;}
	.st2{fill:#FFAE00;}
</style>
<g>
	<path class="st0" d="M88.5,47.2c9.9-27.8,29.8-41.2,42.6-31c20.1,15.9-4,33.4-7.8,47.6c-6.3,24,10.2,35.6,10.2,35.6"/>
	<circle cx="56" cy="89.9" r="52.3"/>
	<path d="M70.7,46.3c0.7-1.1,7-20.1,8.1-19.7c1.1,0.4,32.1,19,32.1,19L87.9,59.6L70.7,46.3z"/>
	<g>
		<path class="st1" d="M61.5,49.4c-5.7,1-11,2.4-15.9,4.5c-5,2-9.5,4.8-13.3,8.3c-1.9,1.7-3.7,3.6-5.3,5.7c-0.8,1-1.5,2.1-2.3,3.2
			l-1,1.7c-0.4,0.6-0.7,1.1-1,1.7c-2.5,4.7-4.5,9.9-6.3,15.4c-0.6-5.7,0.1-11.6,2-17.3c0.4-1.4,1.1-2.8,1.7-4.1
			c0.7-1.3,1.4-2.7,2.2-3.9c0.8-1.3,1.8-2.5,2.7-3.7c1-1.1,2.1-2.2,3.2-3.3c4.5-4.1,10.1-6.9,15.9-8.3c2.9-0.7,5.8-1,8.8-1.1
			c1.5,0,2.9,0.1,4.4,0.2C58.7,48.8,60.1,49,61.5,49.4z"/>
	</g>
	<polygon class="st2" points="134.7,96.4 147.4,91.1 137.4,100.5 151.3,108.7 137,104.8 136.5,117.4 131.4,106.9 122.1,115.9 
		128.5,104.8 113,105.9 127.7,100.2 115.3,92.3 129.7,95.6 131.6,81.3 	"/>
</g>
</svg>
