<svg version="1.1" id="Layer_1" xmlns="http://www.w3.org/2000/svg" xmlns:xlink="http://www.w3.org/1999/xlink" x="0px" y="0px" viewBox="0 0 168 78" style="enable-background:new 0 0 168 78;" xml:space="preserve" width="168" height="78" preserveAspectRatio="none"><style type="text/css">
	.st0{fill:#E50000;}
	.st1{fill:#FFFFFF;}
</style><g><path class="st0" d="M7.8,40.5l2,13.1c0.3,0.1,0.6,0.2,0.7,0.1l-0.1,0c0.2-0.1,0.2,0,0.3,0c-0.5,0-0.1,0.5-0.8,0.3c0,0-0.1,0-0.1,0
		l1.3,8.7l-3.2,1.1l0.6,3.7l12.8-1.9l-0.2-1.4c-0.8-0.1-1.8,0-1.9-0.4c1,0.1,0-0.3,0.5-0.5c0.4,0.2,0.9,0.3,1.3,0.4L20.8,62
		l-3.4-0.1l-1-6.9l5.2-0.8c3.5-0.5,6.2-1.8,8-4c0.4-0.5,0.7-1,1-1.5c-0.3,0-0.6-0.1-1,0l-0.4-0.4c-1.1,0.3-0.7-0.6-1.8-0.5l0.2,0.2
		L27,47.7l0.3,0c-0.4-0.2,0.1-0.3,0.4-0.3l0,0.2c0.2,0,0.8,0,0.4-0.2c0.4,0,0.6,0.4,0.8,0.5c0.1,0,0.1-0.1,0.1-0.2c0,0,0,0,0-0.1
		c0,0,0,0.1,0,0.1c0.2,0.2,1,0,1.1,0.3c0.2-0.1,0.7,0.1,0.8,0c0.7-1.6,1-3.5,0.7-5.5c-0.4-3-1.8-5.2-4.1-6.7s-5.3-2-8.8-1.5
		L7.2,36.1l-3.3,0.5l0.6,3.7L7.8,40.5z M11.1,55.1c-0.2-0.1-0.2-0.1-0.2-0.2l-0.8-0.1l1.2,0C11.3,55,11.4,55.1,11.1,55.1z
		 M12.2,53.4c0.5,0.1,0.2,0.4,0.8,0.4c0-0.1,0-0.2-0.2-0.2c1-0.4,0.9,0.5,1.8,0.7c-0.5,0.1-1.1-0.5-1.7-0.4
		c-0.1,0.1,0.4,0.2,0.2,0.3c-0.2-0.2-0.6-0.3-0.5-0.4L12.1,54C11.7,53.9,12.5,53.6,12.2,53.4z M15.6,54.1l0.5,0l-0.2,0.1
		c-0.5,0.1-0.9-0.4-1-0.6l0.8,0.1C15.7,53.9,15.5,54,15.6,54.1z M15.4,55.4c0.6,0,0.5,0.4,0.6,0.5c-0.6,0-1.3-0.2-1.9-0.4
		C14.3,55.1,15.5,56,15.4,55.4z M15.2,55l0.6,0l-0.2,0.3L15.2,55z M15.5,54.4l0.6,0.4C15.3,54.8,15.8,54.8,15.5,54.4z M13.3,49.1
		c0.2-0.3,0.5-0.4,0.9-0.7c0.8,0.3-0.2,0.5,0.9,0.7L13.3,49.1z M13.1,58.6l-0.5-0.2v-0.2L13.1,58.6z M12.4,58.9
		c-0.3,0-0.5,0-0.6-0.1C12,58.6,12.2,58.7,12.4,58.9z M12.1,54.2L10.9,54l0.2-0.3L12.1,54.2z M11.6,59.5l0.2-0.1l0.2,0.4L11.6,59.5z
		 M13.4,63.5c-0.6,0.1-0.7-0.3-1.1-0.4c0.1,0,0.2-0.1,0.2-0.1C12.7,63.1,13.6,63.1,13.4,63.5z M14.1,63.6c0-0.3-0.5-0.5,0.1-0.8
		c-1.1,0.3-0.6-0.8-1.6-0.4l0.1,0l-0.5,0c0.3-0.2-0.2-0.6,0.7-0.6c0,0,0,0-0.1,0l0.1,0c0,0,0,0,0,0c0.1,0.1,0.3,0.2,0.5,0.2
		c-0.2-0.2,0.8-0.2,0.8-0.3c0.3,0.3-0.2,0.3-0.3,0.5c0.2,0.2,0.7,0.5,1.1,0.7c0.2,0,0.4,0.1,0.5,0c-0.1,0.1-0.3,0-0.5,0
		c-0.4-0.1-0.8-0.2-0.9,0.1c0,0.1,0.2,0.1,0.4,0.1C14.6,63.4,14.3,63.5,14.1,63.6z M16.5,63.7c-0.9,0.1,0.2,0.4-0.5,0.6
		c-0.2-0.5-1.1-0.3-1.4-0.6c0.4,0.1,0.2-0.1,0.2-0.2c0.6,0,0.1,0.5,0.9,0.5l0-0.2l0,0.2C15.8,63.5,16.3,63.8,16.5,63.7z M18.5,52.3
		l-0.9-0.3c0.1,0,0.2-0.1,0.1-0.2c-0.1,0-0.2-0.1-0.2-0.1c0.1,0,0.2,0.1,0.2,0.1c0.5,0.1,1.2-0.2,1.4,0.3
		C18.8,52,18.1,51.9,18.5,52.3z M19.4,51.3l0.4-0.3c0.6,0,0.2,0.3,0.6,0.5L19.4,51.3z M24.3,51c-0.1,0-0.2,0-0.4-0.1
		C24,51,24.2,51,24.3,51c0.2-0.1-0.1-0.5,0.5-0.2C24.8,51,24.6,51,24.3,51z M25.2,51.1c0.2-0.2,0.5-0.2,0.9-0.1
		C25.7,51.1,25.4,51.4,25.2,51.1z M24.1,49.9c0.2-0.1,0-0.1,0.3-0.1c0-0.5,1.5,0.1,1.8,0.1C25.3,49.8,25.2,50.3,24.1,49.9z
		 M25.2,42.3C25,42.1,25,42,25,41.9c0,0,0.1,0.1,0.2,0.1l0,0l0,0c0.2,0.1,0.5,0.1,0.7-0.1c0.7,0.3-0.2,0.1-0.1,0.4L25.2,42
		c0,0,0,0,0,0L25.2,42.3z M23.9,40.4c0.7-0.1,0.9,0.4,1.1,0.6c0.5,0.2,0.5-0.1,0.6,0l0.1,0.4c-0.4-0.2-0.9-0.4-1-0.4
		C25,40.7,24.1,40.7,23.9,40.4z M23.4,38.3l0.9,0.1c-0.3,0-0.1,0.3,0.1,0.4l-0.9-0.3C23.6,38.5,23.3,38.4,23.4,38.3z M27,50.2
		l-0.2-0.1c-0.2-0.2,0.1,0,0-0.2C27.3,50.1,27,50.1,27,50.2z M27.4,44.1c-0.2-0.1-0.2-0.2-0.2-0.2c-0.1,0-0.1-0.1-0.1-0.1
		c0.1,0,0.1,0.1,0.1,0.1C27.4,43.9,27.7,44,27.4,44.1z M27.7,43.2c0.1,0-0.1,0.2,0.2,0.3L26,43.2l0,0.1c-0.4-0.4,0.9-0.1,0.7-0.4
		c0.1,0.1,0.3,0.2,0.6,0.2l-0.2-0.3l0.9,0.3l0-0.1l0.4,0.2C28.2,43.3,28.1,43.2,27.7,43.2z M28.8,43.3l0,0.1
		C28.8,43.4,28.8,43.3,28.8,43.3l-0.1-0.5c0.4,0.1,0.7,0.5,1,0.6c0,0,0,0,0,0c0,0,0,0,0,0c0.1,0,0.1,0,0.2-0.1
		c-0.1,0.1-0.1,0.1-0.2,0.1c0,0,0,0,0,0c0,0,0,0,0,0c-0.2-0.1-0.4-0.3-0.7-0.3C29.1,43.2,28.9,43.2,28.8,43.3z M30.3,44.4
		C30.3,44.5,30.3,44.5,30.3,44.4L29.9,44C30.5,44,30.4,44.4,30.3,44.4L30.3,44.4z M29.7,43.7c0.2-0.1,0.5,0.1,0.8,0.1
		C30.2,43.7,29.9,43.9,29.7,43.7z M27.5,42.2c0.3-0.1,0.6-0.4,0.2-0.5c1,0,0.5,0.6,1.7,0.6c0.2-0.3-0.6-0.3-0.4-0.6
		c0.8,0.1-0.2,0.3,0.4,0.3l0.6-0.1l-0.2-0.1l0.9,0.4c-0.9-0.2-1.1,0.2-1.7,0.3l-0.6-0.4c-0.2,0.5-1.3-0.2-1.6,0.2
		c0.2-0.2-0.9-0.5-0.2-0.6C26.9,42.2,27.9,41.8,27.5,42.2z M26.2,36.1l0.2,0.3L26,36.3l0.2,0.1L26.2,36.1z M25.5,40.2l0.1-0.2
		l0.4,0.1L25.5,40.2z M25.1,38c0.2,0.1,0.9,0.2,0.5,0.4c-0.7,0-0.8-0.1-1-0.2l-0.4-0.3c0.2,0.1,0.3,0.2,0.4,0.3l0.2,0.1
		C25,38.2,25,38,25.1,38z M24.3,36.9l0.6,0.3l-0.6,0L24.3,36.9z M23.4,37.8l0.5,0.3l-0.1,0L23.4,37.8L23.4,37.8z M22.5,37.7L23,38
		l-0.1,0L22.5,37.7L22.5,37.7z M22.5,39.5l-0.1-0.2L22.5,39.5c0.4,0.2,0.7,0.3,1,0.6c0.9,0.7,1.4,1.6,1.7,2.8c0.2,0,0.4,0,0.5,0.1
		c0.1,0.1-0.1,0.2-0.1,0.3c-0.1,0-0.2-0.1-0.4-0.1c0,0.2,0.1,0.3,0.1,0.5c0.2,1.5,0,2.7-0.8,3.8c-0.7,1.1-2,1.7-3.7,2l-1.5,0.2
		l0.1,0.1c-0.1,0-0.2,0-0.4-0.1l-3.5,0.5L14.1,40l5.2-0.8C20.6,39,21.6,39.1,22.5,39.5z M16.8,37.3l0.5,0.4l-0.2-0.1L16.8,37.3z
		 M17.9,35.8L17.9,35.8l-0.1,0.1c-0.1,0.3,0.9,0.5,1.4,0.7l-0.5-0.1c-0.3,0-0.5,0.1-0.5,0.2c0,0,0,0,0,0c0,0,0,0,0,0
		c0,0.2,0.2,0.4,0.4,0.6c-0.8,0-0.9-0.2-1.3-0.5c0.4,0.1,0.9,0.1,0.9-0.1c0,0,0,0,0,0c-0.7-0.3-1-0.1-1.3-0.5l1-0.3
		C17.8,35.9,17.8,35.8,17.9,35.8z M16.2,37.4l0.5,0.1l-0.2,0.3l-0.5-0.2c0.1,0,0.2,0,0.2,0L16.2,37.4z M14.9,38.8l-0.4,0L14,38.5
		L14.9,38.8z M14,44.2l0.5,0.4c-0.1,0-0.9,0.1-1.1,0.1l0.1,0l-0.5,0c0,0,0,0,0.1,0l-0.1,0l0,0C12.4,44.3,14.2,44.8,14,44.2z
		 M12.8,36.6l0.7,0.3l-0.9-0.1L12.8,36.6z M12.5,47c0.2,0.5,1.6,0.2,1.3,0.6c-0.5,0.1-0.8,0.1-1.3,0.1l0.1,0.5
		c-0.2-0.3-0.4-1-0.9-1.3l0.8,0.3L12.5,47z M12.1,48.7l-0.9,0.1L11,48.6L12.1,48.7z M10.9,41.3C10.6,41,10,41.2,9.8,41
		C9.6,40.8,11.3,41.2,10.9,41.3z M9.6,37.4c0.5,0.2,0,0.2,0,0.4l-0.2-0.1C9.5,37.6,9.8,37.5,9.6,37.4z M8.5,40.8l0.1,0.4l-0.2-0.1
		C8.4,41,8.2,40.9,8.5,40.8z M8.1,37.8c-0.2,0.1-0.5,0.3-0.9,0.3C7,37.6,7.8,37.9,8.1,37.8z M5.8,38.3c0,0.1,0,0.1,0.1,0.1
		c0.1,0,0.1,0,0.1,0.1c0.2,0.1,0.6,0,0.6,0.3c-0.3-0.3-0.2,0.1-0.7,0.1c0.1-0.1,0.2-0.3,0.1-0.3c-0.1,0-0.1,0-0.1-0.1
		c0,0-0.1,0-0.1,0l0,0.1l0-0.1c0,0,0,0,0,0L5.8,38.3z" /><path class="st0" d="M58.5,57.5c-0.1,0-0.1,0-0.1,0c0.1,0.1,0.2,0.2,0.2,0.3c0.1-0.1,0.3-0.1,0.5-0.1
		C58.9,57.6,58.7,57.4,58.5,57.5z" /><path class="st0" d="M39,33.4c0.1,0,0.3,0.1,0.5,0.1c-0.1-0.1,0-0.2-0.2-0.3C39.1,33.2,39.1,33.3,39,33.4z" /><path class="st0" d="M37.6,33.3c0,0,0.1,0,0.1,0C37.7,33.3,37.6,33.3,37.6,33.3L37.6,33.3z" /><path class="st0" d="M38.2,36l1.7,11.5l0,0l0.7,0.3l-0.7,0l0.4,2.7c0,0,0.1,0,0.1,0.1c0.1,0,0.3,0,0.4,0c0.4-0.1,0.9-0.3,0.9-0.4
		c0.5,0.1,0,0.3,0,0.4c-0.2,0.3-0.5,0-0.9-0.1c-0.1,0-0.3,0-0.4,0c0,0-0.1,0-0.1,0l0,0.2l0,0l1.2,7.7l-3.2,1.1l0.1,0.7
		c0.8-0.1,1.2,0.1,1.4,0.4c-0.1,0.3-0.4,0.3-1.1,0.3l0.6-0.2l-0.6-0.3l-0.1,0l-0.2-0.1l0.4,2.9l12.8-1.9l0-0.3c-0.4,0-0.8,0.1-1.1,0
		c0,0,0,0-0.1,0l-0.2-0.1c0.1,0,0.2,0,0.2,0.1c0.3-0.1,0.6-0.4,0.3-0.5l0.8,0.4l-0.5-3.4l-3.4-0.1l-1.2-8.2l5.1-0.8
		c1.5-0.2,2.7,0.1,3.6,0.8c0.9,0.7,1.5,1.9,1.7,3.4l0.3,1.8c0.2,1.2,0.5,2.2,1,3c0.3,0.1,1.2,0.2,1.3,0.5l-0.9,0l0,0.1
		c0.1,0.1,0.2,0.3,0.4,0.4c1,1,2.5,1.3,4.5,1l3.2-0.5l-0.6-3.7l-0.8,0c-0.6,0-1.1-0.1-1.4-0.5c-0.3-0.3-0.5-0.8-0.6-1.5l-0.2-1.6
		c-0.2-1.1-0.5-2-0.9-2.9c-0.6,0.3-1.5-0.3-1.7-0.1c0.3-0.2,0.9,0,0.9-0.3l0.8,0.3c-0.3-0.6-0.6-1.1-1-1.5c-1-1.1-2.4-1.8-4.4-2.1
		c0.1-0.1,0.2-0.1,0.3-0.2l-0.5,0l0.6,0c0.5-0.3,0.9-0.7,1.3-1L58,43.6c-0.4-0.5,0.5-0.2,1-0.3c0.5-0.5,0.9-1.1,1.2-1.7
		c0.7-1.3,0.9-2.7,0.6-4.3c-0.4-2.8-1.8-4.9-4-6.2c-2.2-1.3-5.1-1.7-8.6-1.2l-10.6,1.6l-3.3,0.5l0.6,3.7L38.2,36z M64.5,57.7l-1.3,0
		c-0.1-0.1,0.3-0.2,0-0.3L64.5,57.7z M62,54.8l-0.5-0.1l0.5-0.4L61.1,54C63.2,53.5,61.6,54.7,62,54.8z M61.8,53.5l-0.8,0
		C61.4,53.5,61.4,53.3,61.8,53.5z M61.5,47.7C61.5,47.7,61.5,47.7,61.5,47.7C61.5,47.8,61.5,47.8,61.5,47.7c-0.2,0-0.5,0.2-0.6,0
		C61.1,47.6,61.3,47.6,61.5,47.7z M60.5,47.3C60.6,47.2,60.6,47.2,60.5,47.3C60.6,47.3,60.5,47.3,60.5,47.3c-0.1,0.1-0.5,0.3-0.7,0
		C60.2,47.1,60.3,47.2,60.5,47.3z M62.2,57.8c0.1,0.4-1,0.3-1.4,0.5c-0.3-0.2-0.9-0.6-1.1-0.8L62.2,57.8z M35.9,34.8l-0.3-0.4
		C35.9,34.4,36.3,34.8,35.9,34.8z M37.5,34.1c0.3-0.2,0.7-0.1,0.9,0C38.3,34.3,37.8,34.2,37.5,34.1z M38.7,34.7l0.2-0.2l0.3,0.1
		L38.7,34.7z M39.9,35.3l-0.6-0.1L40,35C39.8,35.1,40.4,35.2,39.9,35.3z M40.2,41.5c0.5,0.1,0.2,0.4,0.9,0.3L40.7,42L40.2,41.5z
		 M40.3,40c0.4,0.2,0.7,0.7,0.7,0.7c-0.1-0.2-0.4-0.2-0.6-0.2l0,0l-0.1,0c-0.1,0-0.1,0-0.1,0l0.1,0c0,0,0,0,0.1,0L40.3,40z
		 M40.5,36.4c0.3,0,0-0.4,0.6-0.3C41,36.2,41,36.6,40.5,36.4z M41.4,49.1c-0.4-0.4-1.1-0.2-0.7-0.6C41.1,48.7,41.7,48.8,41.4,49.1z
		 M41.9,43c0-0.1-0.7-0.2-0.5-0.4c0.3,0.2,1.1,0.3,1,0.4C42.1,43,42,43.1,41.9,43z M42.3,50.1L43,50c0.3,0.1-0.4,0.3-0.3,0.3
		L42.3,50.1z M42.6,60.7L43,61c-0.2-0.3-1.3,0-1.2-0.4l0.8,0.2c-0.3-0.3,0.4-0.4,0.7-0.6c0.1-0.1,0.1-0.1,0.2-0.1
		c0,0-0.1,0.1-0.2,0.1C43.1,60.4,42.9,60.6,42.6,60.7z M45.8,55.7c-0.4,0.3-1.1,0-1.7,0.1c-0.2,0-1-1,0.4-0.9l0.1,0.4
		c-0.2-0.2-0.6-0.1-0.7,0.1C43.8,56.1,45.3,55.6,45.8,55.7z M44.2,56.8C44.2,56.8,44.2,56.8,44.2,56.8c-0.1,0.1-0.2,0.2-0.2,0.2
		l-0.2-0.1C44,56.9,44.1,56.9,44.2,56.8C44.2,56.8,44.2,56.8,44.2,56.8c0-0.1-0.1-0.3,0.1-0.3C44.5,56.5,44.4,56.6,44.2,56.8z
		 M45.4,56.6l-0.4,0l-0.4,0L45.4,56.6z M47.3,59.2c0.2-0.3,1,0,1.4,0c0-0.3-0.5-0.1-0.1-0.4c0.5,0.2,1.2,0.4,1,0.8
		c-0.4-0.3-1.4-0.1-2.3-0.2C47.4,59.4,47.7,59.2,47.3,59.2z M47.1,60l0.2,0L47,60.3L47.1,60z M46.5,60.1c-0.4,0.1-0.8,0.2-0.8-0.1
		c-0.7-0.3-0.4,0.3-0.7,0.4l-0.2-0.6c0.1-0.1,0.7,0,0.6-0.2l-0.2,0l0.2,0c0,0,0,0,0,0l0.6,0C45.7,59.8,46.6,59.9,46.5,60.1z
		 M46.9,48.5c-0.1-0.1-0.7-0.3-0.2-0.4C47,48.3,47.3,48.5,46.9,48.5z M47.2,47.9l-0.1-0.1l0.7,0L47.2,47.9z M48.6,47.8
		c-0.3-0.1-0.2-0.3-0.2-0.3l0.8,0.3C49,47.8,48.7,47.9,48.6,47.8z M50.2,46.6l-0.6-0.4l0.5,0L50,46l0.2,0.3l-0.1,0L50.2,46.6z
		 M49.9,45.6l0.8-0.5l0.3,0.6C50.7,45.4,50.3,45.3,49.9,45.6z M50.7,46.5c0.5,0,0.1-0.3,0.2-0.3l0.6,0.4
		C51.3,46.6,50.7,46.5,50.7,46.5z M51.9,46.1c-0.8-0.3,0.5-0.5-0.3-0.8l1,0C52.5,45.6,52.9,46.2,51.9,46.1z M55.1,44.3
		c0-0.1,0.1-0.2-0.3-0.3c0.3,0.1,0.8,0,0.7,0.3L55.1,44.3z M55,40.1c0.1-0.2,0.2-0.4,0.6-0.3C55.6,40.1,55.2,40,55,40.1z M56.3,48.2
		L55.7,48l1.1,0.1L56.3,48.2z M57.8,51.5c-0.1,0-0.1-0.1-0.1-0.1c-0.1,0-0.1-0.1,0-0.1c0,0,0,0.1,0,0.1c0.1,0.1,0.4,0.1,0.4,0.1
		L57.8,51.5z M58.3,48.3l-0.5,0.3l-0.4-0.2C57.7,48.2,58.3,48.3,58.3,48.3z M57.5,47.8c-0.5,0.2-0.3-0.1-0.9-0.1l0,0.2
		c-0.1-0.2-0.5-0.3-0.1-0.5L57.5,47.8z M56.9,36.2c0.1,0-0.9-0.3-0.5-0.7C56.2,35.8,57.2,35.9,56.9,36.2z M56.6,41.8
		c0.1-0.2,1.2,0,1.1,0.2C57.1,42.1,57.2,41.5,56.6,41.8z M57.5,35c0.3-0.1,0.5-0.2,0.3-0.4l-0.3-0.1c0.1,0,0.2,0.1,0.3,0.1l0.3,0.1
		C57.6,34.7,58.2,35.2,57.5,35z M57,42.3c0.2,0,0.8-0.2,1,0C57.7,42.3,57.3,42.3,57,42.3z M57.8,43c0.1-0.1,0-0.2,0.2-0.3
		C58.1,42.8,58.5,43,57.8,43z M58.1,41.2l0.5-0.1l0.1,0.2L58.1,41.2z M59.2,40.1l-0.1-0.4l0.3,0.1L59.2,40.1z M59.3,35.7l-0.6-0.4
		L59.3,35.7z M58.8,36.2c-0.5,0.4-0.3-0.2-0.9,0L57.6,36l0.8,0.1l-0.1,0L58.8,36.2z M55.7,33c0.1-0.2,0.9-0.3,0.8-0.2
		c0.7,0.3-0.3,0.5,0.7,0.5c0.1-0.2,0.9-0.1,0.4-0.5c0.9,0.1,0.5,0.6,0.5,0.9c-0.7,0-0.6,0.3-1.2,0.2c0.3-0.3,0.2-0.2,0.5-0.1
		c0.2-0.4-0.8-0.4-1.4-0.3l0,0.2c-0.4-0.3-1.2,0.1-2-0.1l0.9,0.4l-0.2,0l-1.2-0.5c0.4-1,2.2,0.5,3-0.4L55.7,33z M55.7,35.7
		c-0.2,0-0.4,0-0.5,0.1c0.2,0,0.1-0.2,0.2-0.3L55.7,35.7z M51.7,30.2c1.3,0.1,1,0,2.2,0.1c-0.2,0-0.8,0.2-0.5,0.5l-0.6-0.1l0.2,0.3
		c-0.3-0.3-1.2-0.2-1.9-0.4C51.6,30.4,51.8,30.4,51.7,30.2z M52.4,31.5c-0.1,0-0.2,0.1-0.2,0.2l-0.7-0.2
		C52.1,31.5,52,31.2,52.4,31.5z M52.7,35.4c0.4-0.2,1.1,0.1,1,0.3l-0.8-0.2c1,0.7,1.6,1.7,1.8,3.1c0,0,0,0.1,0,0.1
		c0.7,0.1,1.4,0.2,1.8,0.5l-0.9,0c0,0,0,0.1,0.1,0.1c-0.4-0.1-0.7-0.1-1-0.1c0,1.1-0.2,2-0.9,2.8c-0.8,0.9-2,1.4-3.7,1.7l-4.3,0.6
		l-1.3-8.9l4.4-0.7C50.5,34.5,51.7,34.7,52.7,35.4z M45.4,33.6l0-0.3l0.4,0.3C45.8,33.7,45.7,33.5,45.4,33.6z M47.4,32.6
		c0.8-0.1,1.4,0.6,2.3,0.4c-0.3,0.4-0.7,0-1.2,0.4c0.1-0.6-1.1,0-1.5-0.4C47.1,32.9,47.3,32.8,47.4,32.6z M46.5,32.7l0,0.3l-0.2,0
		L46.5,32.7z M46,31.3c0.1,0,0.2,0,0.3,0C46.3,31.3,46.2,31.3,46,31.3c-0.5,0-0.9,0-1,0.2C44.9,31.1,45.6,31.2,46,31.3z M44.4,31.7
		c-0.1,0.1-0.2,0.2-0.1,0.3c0.1,0.1,0.2,0.1,0.3,0.2c0.2,0.1,0.6,0.2,0.8,0.2c0,0,0,0,0.1,0l0,0c0.1,0,0.1,0.1,0,0.1l0-0.1
		c0,0,0,0-0.1,0c-0.3,0-0.6-0.1-0.8-0.2c-0.1-0.1-0.3-0.1-0.3-0.2c-0.1-0.1-0.2-0.2-0.4-0.2L44.4,31.7z M43.5,49.4
		C43.5,49.4,43.5,49.4,43.5,49.4l0.6,0.1c-0.6-0.1,0,0.3-0.8,0.2C43.3,49.6,43.6,49.6,43.5,49.4L43.5,49.4c-0.2,0-0.2,0-0.2,0
		L43.5,49.4C43.5,49.4,43.5,49.4,43.5,49.4z M43.1,39.8l0.1,0.4c-0.2-0.1-0.4-0.2-0.5-0.1l-0.6-0.3C42.7,39.7,42.8,40.2,43.1,39.8z
		 M42.7,38.8c-0.4,0.1-0.9,0-0.9-0.1C42.1,38.7,42.5,38.5,42.7,38.8z M40.8,34.4L40.5,34l0.9,0.3L40.8,34.4z M40.7,32.8
		c-0.2,0-0.7,0.1-1-0.1C39.8,32.8,40.8,32.5,40.7,32.8z M37,33.2c-0.1-0.1,1-0.3,0.1-0.4c0.3,0.1-0.4,0.2-0.3,0.1
		c0.6-0.2,1-0.4,1.4-0.2c0.2,0,1,0.3,1.2,0.4c-0.1,0-0.1,0-0.1,0c0.7,0.1,0.6,0.6,0.4,0.9c-0.3-0.3-1.3-0.3-1.7-0.1
		c0.2-0.3-0.5-0.3-0.8-0.5c-0.2,0.2,0.3,0.1,0.3,0.3l-0.7-0.3c0.1,0,0.4-0.1,0.6-0.1L37,33.2z M35.5,33.5l-0.3,0.1
		c0,0.3,0.7,0.1,0.9,0.3c-0.6-0.1-1,0.4-1.5,0C36.1,34.4,34.1,33.3,35.5,33.5z M35.2,35.1l0.2-0.3l0.2,0.1l-0.5,0.4l-0.4-0.5
		L35.2,35.1z" /><path class="st0" d="M70.4,31.2l0.2,1.4c0.4,0,0.8,0.1,1,0.2c-0.1,0.1-0.8,0.3-0.3,0.5c0.2,0.1,0.4-0.1,0.5-0.1
		c0.7,0.4,0.6,0.4,0.9,1c-0.5-0.1-0.2-0.2-0.6-0.5c-0.2,0-0.5,0-0.4,0.1c-0.3-0.2-0.6-0.3-0.9-0.4l0.1,0.5l0.3,0.1l-0.3-0.1l0.3,1.8
		l0.5,0c0,0.2-0.4,0.1-0.4,0.2l-0.1-0.1l1,6.8c0.4,0,0.7,0.1,0.5,0.3c0-0.1-0.3-0.1-0.5-0.1l0.1,0.9l0.4-0.2
		c-0.3,0.1,0.5,0.6,0.8,0.5l-0.3,0.2l-0.9-0.3l0.5,3.1l0.7,0.2l-0.4,0L72.7,47l0.8,5.4c0.1,0,0.2-0.1,0.3,0c1.2,0,0.4,0.6,1.3,0.7
		c0.8,0.1,0.3-0.5,0.2-0.4c0.5-0.1,0.5,0,1.2,0.1c0-0.1,0-0.1,0-0.1c-0.1,0-0.2-0.1-0.3-0.1c0.1,0,0.2,0,0.3,0.1
		c0.3,0.1,0.7,0.2,0.5-0.1c0.5,0.2,1.5,0,1.6,0.4L78,53.1l0.1,0l-1.5-0.4c-0.1,0.2,0.2,0.3,0.4,0.4c-0.4-0.2-0.6,0.3-1.4,0.1
		c-0.3-0.5-1.3,0-1.9-0.1l0,0.2l-3.2,1.1l0.6,3.7l12.8-1.9l-0.6-3.7l-3.4-0.1L77,33.1c-0.2,0-0.4-0.1-0.5-0.1l0.5,0l-0.4-2.8
		l3.2-1.1l-0.6-3.7l-12.8,1.9l0.6,3.7L70.4,31.2z M74,57.6l-0.2-0.3l0.7,0.1C74.4,57.4,74.2,57.5,74,57.6z M76.7,54.7l0.2-0.1
		l0.5,0.1L76.7,54.7z M77.4,54.2l0-0.5l0.5,0.1L77.4,54.2z M73.6,44l0.2-0.1l0.7,0.1L73.6,44z M73.4,43.7l-0.2-0.4
		c-0.1,0.1-0.2,0-0.2-0.1c0.9-0.1,1.3,0.4,2,0.5C74.5,44,74.1,43.6,73.4,43.7z M73.5,39.3l0.4,0.1c0.3,0.1,0.6,0,0.8,0l0-0.2
		c0.1,0.1,0,0.1,0,0.2l0,0.2l-0.7-0.2C73.8,39.3,73.6,39.3,73.5,39.3z M78.5,55.7l0.2-0.2l0.3,0.2L78.5,55.7z M79.1,53.6
		c0,0.2-0.5,0.2-0.8,0.2c-0.1-0.2-0.3-0.3,0-0.4C78.6,53.5,78.6,53.8,79.1,53.6z M77.9,46.9l0.6,0.2l-0.6,0.3
		C77.8,47.1,78,47.1,77.9,46.9z M78,46.1l0.5,0.3l-0.6-0.2C77.8,46.2,77.8,46.1,78,46.1z M76.9,41.8l0.6,0.1L77,42.1
		C77,42,76.8,42,76.9,41.8z M76.7,42.9c0.5-0.1,0.4,0.1,0.3,0.2C77.2,43.3,76.4,43.1,76.7,42.9z M76.5,47.5c0.5,0.2,1,0.3,1.4,0.4
		c0.4-0.1-0.2-0.4,0.4-0.3c0-0.1,0,0.2,0.4,0.3c-0.5,0.1-1.5,0-2.2-0.1c-0.2,0.1-0.4,0.1-0.3,0.2c0.3-0.1,1.4,0.2,1,0.4
		c-1-0.4-0.5-0.1-1.5-0.1c0-0.2-0.5-0.6-0.8-0.7c0.9,0.3,1.2-0.1,1.8,0L76.5,47.5z M75.2,31.3L75,30.8l0.9,0.4L75.2,31.3z
		 M75.4,32.1L75,32.2l0.2-0.3L75.4,32.1z M76.2,40.1l0.2,0.4C75.8,40.6,75.9,40.1,76.2,40.1z M76.5,27.7l0.2,0.1c0,0,0,0,0,0
		c0.3,0.1,0.6,0.2,0.7,0.2c0.2-0.1-0.3-0.2,0.1-0.2c0.5,0.3,1.1-0.1,1.7,0.4c0,0.1-0.2,0.1-0.3,0.1l0,0.1c0,0,0-0.1,0-0.1l0.1-0.2
		l-1.5-0.1c0.3,0.3-0.4,0.2-0.5,0.4l-0.4-0.3c-0.1,0.4-1.3-0.1-1.7-0.2c0.7-0.1,1.2,0,1.8-0.2C76.6,27.8,76.5,27.7,76.5,27.7z
		 M73.8,29.9l-0.7-0.1L73.8,29.9z M73.8,36.1c0.2,0.1-0.9-0.2-0.7,0.1l0.6,0.4c0.2,0,0.6,0,0.5-0.2c-0.2,0-0.2,0-0.2-0.1
		c0.6,0,1.3,0.3,2,0.1l-0.9,0.4c0.2,0,0.4,0.1,0.5,0.1c-1,0-2.8,0-3.5-0.4l0.3-0.1c0.2-0.1-0.2-0.2-0.2-0.2l0.9,0.1
		C72.4,36.1,73.4,35.7,73.8,36.1z M71.7,28.4c-0.4-0.1-1.2,0.2-1.3-0.1C70.9,28.2,71.3,28.1,71.7,28.4z M70.2,28.8
		c-0.3-0.3-1.2-0.2-0.9-0.5c0.4,0.5,1.4,0.3,1.8,0.4c0.1,0.2-0.3-0.2-0.5,0c0.2,0.5,1.6,0.3,1.9,0.1c0,0.2-0.9,0.4,0,0.5
		c-0.9-0.2-0.9,0.2-1.9-0.1l0,0.2c-0.6,0-1.2-0.5-1.5-0.1L69,28.9C69.2,28.9,70.5,29.1,70.2,28.8z M67.4,29.2
		c0.4-0.1,0.7,0.2,0.8,0.4l0.1,0c0.5-0.3,1,0,1.8,0.1c0.3,0.2-0.2,0.6,0.5,0.8L70,30.8c-0.2-0.1-0.2-0.2-0.5-0.2l0.5-0.2l-0.8-0.1
		c0.3-0.1,0.6,0,0.6-0.2L69,29.6c-0.2,0.1,0.2,0.2,0.1,0.3l-0.8-0.2c0,0,0,0,0,0c0,0,0,0,0,0l-0.9-0.3
		C67.5,29.4,67.4,29.3,67.4,29.2z" /><path class="st0" d="M90,44c0-0.2,0.1-0.4,0-0.6l-0.1,0L90,44L90,44C90,44,90,44,90,44z" /><path class="st0" d="M108,37.2l0,0.2c0.1,0,0.2,0,0.2,0C108.2,37.3,108.1,37.2,108,37.2z" /><path class="st0" d="M87.7,28.6l2.2,14.7c0.9,0.3,1.5,0.6,2.1,1.2l-1.2,0.1c0.2-0.1-0.5-0.4-0.7-0.5c0,0,0,0,0,0l0.6,3.8
		c0.2,0,0.5-0.1,0.8,0c-0.2,0.1-0.4,0.1-0.8,0.1l0.4,2.9l-3.2,1.1l0.3,2.2l0.7,0.1l-0.7-0.1l0.2,1.5l12.8-1.9l-0.6-3.7l-3.4-0.1
		L96.5,45l-0.4-2c-0.2-0.1-0.5-0.2-0.9,0c-0.8-0.2,0.5-0.6-0.5-0.6c0.2-0.1,0.6-0.3,0.8,0l-0.3,0.2l0.9,0.2L95.9,42
		c-0.1,0-0.3-0.1-0.6-0.1l0.5,0l-2-10.5l0.1,0l10.2,18.9c0.8-0.1,1.9-0.3,2.7-0.1c0.2-0.2,0.3-0.6,0.8-0.6c-0.3,0.2-0.4,0.5-0.2,0.7
		c0.7,0,0.5-0.3,0.4-0.6c0.1,0.3,0.7,0.1,1,0.4c0.1-0.1,0.4-0.2,0-0.2c0.4,0,0.9,0,1.4,0l1.5-7.3c-0.1,0-0.4,0-0.5,0
		c0.3-0.2,0.1-0.2,0.6-0.2l0.7-3.6c-0.2-0.1-0.4-0.2-0.5-0.3l0.5,0l2.1-10.3l0.1,0l1.1,10.1l1,0.1l-1,0.1l0.4,3.5l0.7,4.9l-3.2,1.1
		l0.6,3.7l12.8-1.9l-0.6-3.7l-3.4-0.1l-2.1-13.8l-0.6,0l0.5-0.1l-0.7-4.4c-0.1,0-0.3,0-0.4-0.1l0.2-0.3c0,0.1,0.1,0.1,0.2,0.1
		l-0.6-3.8l3.2-1.1l-0.2-1.4c-0.1,0-0.1,0-0.2-0.1c0,0-0.1,0.1-0.1,0.1c0,0,0,0.1,0.1,0.1c-0.1,0-0.1-0.1-0.1-0.1
		c-0.1-0.2-0.2-0.4-0.6-0.2l0,0.1l-0.3-0.2l-0.5,0.2c0.3-0.4,1-0.3,1.7-0.2l-0.3-2l-11.5,1.7l-0.7,3.9c0,0,0.1-0.1,0.1-0.1
		c0,0.2,0.6,0,0.9,0l-0.1,0.5c-0.1-0.1-0.4-0.2-0.5,0c0,0.1,0.1,0.1,0.3,0.2l-0.8-0.1l-2,10.8c0.2,0,0.3-0.1,0.3-0.2l-0.2,0l0.2,0
		c0,0,0,0,0,0l0.6,0c-0.3,0.2,0.5,0.2,0.5,0.5c-0.4,0.1-0.8,0.2-0.8-0.1c-0.8-0.2-0.4,0.4-0.6,0.4l-0.1-0.1l-0.2,0.8c0,0,0,0,0,0
		c0.5,0.2,1.2,0.3,1,0.7c-0.3-0.1-0.7-0.1-1.2-0.1l-0.9,5c0.5,0.1,1,0.1,1.1,0.3c-0.8-0.1-0.8,0-1.1-0.2l-0.3,1.7l-0.1,0l-0.9-1.8
		c-0.2,0-0.5,0-0.6,0c0-0.2,0.2-0.3,0.4-0.3l-7.4-14.2c-0.5-0.2-1.3,0-1.3-0.3c0.9,0.2,0.2-0.4,0.6-0.4l0.1,0.4c0.2,0,0.3,0,0.4,0
		l-1.6-3.1c-0.4,0.1-1-0.1-1.3-0.3c0.5,0.4,0.8,0.1,1.2,0.2L95.2,23l-8.1,1.2l-3.3,0.5l0.6,3.7L87.7,28.6z M88.3,51.8
		c0.6,0,0.2,0.2,0.2,0.3C88.3,52,88.3,51.9,88.3,51.8z M89.3,54l-1-0.4c0.9,0.1,0-0.3,0.5-0.4c1,0,0.7,0.2,1.2,0.4
		c0.1,0,0.2,0,0.4,0.1c-0.2,0-0.3-0.1-0.4-0.1C89.6,53.6,89.9,54.1,89.3,54z M90.3,53.1c0.2,0.1,0.6,0,0.6,0.1
		C90.7,53.2,90.4,53.2,90.3,53.1z M98.6,52l0-0.3C99,51.9,98.7,51.9,98.6,52l0,0.1C98.5,52.1,98.5,52.1,98.6,52z M98.2,52.1l0.5,0.2
		l-0.9,0L98.2,52.1z M97,52.4c0,0.1,0.2,0.3-0.2,0.3c0-0.1-0.4-0.2-0.1-0.1c0.1-0.3-0.5-0.2-0.6-0.4L97,52.4z M117.3,33.4l0,0.2
		c-0.1-0.2-0.5-0.3-0.2-0.5l1,0.4C117.7,33.7,117.8,33.3,117.3,33.4z M118.5,41.2c0.4-0.1,1.2-0.2,1.2,0.1
		C119.5,41.2,118.6,41.6,118.5,41.2z M119.8,43.4l0.1,0.3l-0.4-0.1L119.8,43.4z M119.8,48c-0.2,0.2-0.2,0.1-0.6,0.1l0.2-0.4l0.6-0.1
		c0.1,0.2,1.1,0.2,0.6,0.6c0.2-0.1,1.1,0,0.7-0.2l0.5,0.3C120.9,48.6,120.3,48.2,119.8,48z M125,48l0.5,0.1l-0.7,0L125,48z
		 M124.1,49l-0.6,0L124.1,49L124.1,49z M123.7,47.8c0.1,0,0.2,0,0.3,0C124,47.8,123.9,47.8,123.7,47.8c-0.5,0-0.9,0.1-1,0.2
		C122.6,47.6,123.3,47.8,123.7,47.8z M121.3,46.9c0.1-0.1,0.5-0.2,0.7-0.2C122.1,47,121.7,46.8,121.3,46.9z M121.7,37.1
		c-0.6,0.1-0.1,0.4-1,0.4C121.4,37.4,121,36.8,121.7,37.1z M120.7,34.2l0.2,0l-0.4,0.3L120.7,34.2z M120.4,28.4l0.2,0.1l-0.5,0.2
		L120.4,28.4z M120.6,38.8l-0.8,0l0.1-0.2L120.6,38.8z M119.2,23.4c0.2,0.1-0.3,0.3-0.2,0.4c-0.1-0.1-0.6-0.1-0.6-0.3
		C118.7,23.7,119,23.3,119.2,23.4z M118.1,28.4c0.1,0.2,1.1,0.3,0.6,0.6c0.2,0,1.1,0.1,0.8-0.2l0.5,0.4c-1,0.2-1.6-0.3-2-0.5
		c-0.2,0.2-0.2,0.1-0.6,0.1l0.2-0.4L118.1,28.4z M117.1,20l0.4,0.2l-0.6,0L117.1,20z M109.5,47.8l-0.4-0.2c0.3-0.2,0.9-0.1,0.9-0.2
		L109.5,47.8z M114.4,24.8c0.5-0.1,0.4,0.1,0.4,0.2C114.9,25.1,114.1,25,114.4,24.8z M112.3,29.7c0.3-0.2,0.9-0.1,0.9-0.3l0.9,0.3
		C113.6,30.1,112.5,29.4,112.3,29.7z M112.6,28.7c0.2-0.1,0.5-0.1,0.6,0c0.1,0,0.1,0,0.1,0c0,0-0.1,0-0.1,0
		C113,28.8,112.7,28.9,112.6,28.7z M114,22.7l-0.2,0.4l-0.1-0.4L114,22.7z M113.7,24.6l-0.4,0.2c-0.1,0-0.3-0.1-0.2-0.2L113.7,24.6z
		 M113.2,22.1c-0.1,0.1-0.4,0.2-0.5,0.3l-0.2-0.3L113.2,22.1z M112.6,22.9l0.1,0.2L112,23L112.6,22.9z M110.7,38.5
		c0.3,0.1,1.2,0.1,1.4,0.4l-0.9,0.1l0,0.2c-0.7-0.1,0-0.3,0.3-0.4c-0.2-0.1-0.4-0.2-0.6-0.1c-1.1,0.1,0,0.5,0,0.7l-0.7-0.1
		C111.1,39,109.8,38.8,110.7,38.5z M109.7,32.5c0,0,0,0.1,0,0.1c0.1,0,0.4,0,0.4,0.1l-0.3,0c-0.1,0-0.1-0.1-0.1-0.1
		C109.7,32.6,109.6,32.5,109.7,32.5z M109.5,40.1c0.6,0,1,0.3,1.6,0.4c0.3-0.1,0.5-0.1,0.8-0.1c-0.3,0.1-0.5,0.2-0.8,0.1
		c-0.7,0.1-1.5,0.3-2.1,0.1L109.5,40.1z M108.1,47.7C108.2,47.7,108.2,47.7,108.1,47.7C108.2,47.7,108.2,47.7,108.1,47.7
		c-0.1,0.1-0.4,0.3-0.7,0C107.8,47.6,107.9,47.7,108.1,47.7z M88.6,32.1c-0.1,0-0.7-0.3-0.3-0.5l0.6,0.3l-0.6,0L88.6,32.1z M89,29.5
		l-0.3-0.3l0.5,0.2L89,29.5z M89.3,31.9c0.8,0.1,0,0.2,0.4,0.4c0.1,0,0.1,0,0.2,0c0.2,0,0.6,0.2,0.6,0c-0.1-0.1,0-0.3-0.4-0.3
		L90,32.1l0-0.1c0,0,0.1,0,0.1,0l0.1-0.1c0.5,0.3,0.6,0.3,0.9,0.6l-0.3,0c-0.2-0.1-0.6-0.1-0.9-0.1c0,0-0.1,0-0.1,0
		c-0.1,0-0.1,0-0.1-0.1C89.3,32.2,89.1,32.1,89.3,31.9z M90.9,39.6c0.7,0.2-0.2,0.2-0.1,0.4C90.1,39.8,91.1,39.9,90.9,39.6z
		 M90.2,35.8c0.4,0.2,0.8,0.1,0.9,0c-0.2,0.2-0.4,0.4-0.9,0.3l0.1-0.1l0.3,0L90.2,35.8z M91,38.4l0.1,0.4c-0.2,0-0.5,0-0.7-0.2
		L91,38.4z M90.8,41.5c-0.1-0.1,0-0.2-0.2-0.3c0.3-0.1,0.8,0.5,1,0.1C91.8,41.6,91.1,41.5,90.8,41.5z M91.2,30.8l0.2-0.1l0.5,0
		L91.2,30.8z M91.6,34.9c0.2-0.2-0.3-0.5,0.1-0.5l0.9,0.5C92.6,35.1,92,35.1,91.6,34.9z M94.3,49.3c-0.7,0.1-1.9-0.2-2.1,0.4
		L92,49.1l-0.3,0C92.2,48.9,93.7,49.1,94.3,49.3z M91.2,49.7l0.6,0.3l0,0l0.3,0.2l-0.3-0.2l0,0.1L91.2,49.7z M92.2,54.6l0.2-0.1
		l0.4,0.4L92.2,54.6z M92.9,51.4l0.6-0.1l0.2,0.5C93.2,51.8,93.9,51.4,92.9,51.4z M95.3,51.2l-0.9,0c-0.2-0.1,0.7-0.1-0.1-0.4
		c-0.6-0.1-1.8-0.1-2.4-0.4c0.9-0.5,1.4,0.6,2.1,0l-0.3-0.2c-0.1,0-0.1-0.1-0.2-0.1l0.2,0.1c0.3,0.1,0.3-0.3,0.9,0l-0.5,0.1
		C94.6,50.9,95.3,50.8,95.3,51.2z M94.7,48.3c-0.9,0.1-1.3,0.3-2-0.2C93.2,47.7,94.2,48.4,94.7,48.3z M93.1,39.4l0.1-0.2l0.5,0.3
		L93.1,39.4z M106.1,46.3l-1.1-0.2l1.3,0.1L106.1,46.3z M105.5,43.2l-0.5,0.1c-0.3-0.1-1.1,0-1-0.4L105.5,43.2z M103.6,42.1l1,0.4
		c-0.4,0-0.9,0.1-1.3,0.1c0,0,0,0-0.1,0l-0.2-0.1c0.1,0,0.2,0,0.2,0C103.6,42.5,103.8,42.2,103.6,42.1z M101.4,38.8l-0.6-0.1
		l0.2,0.3c-0.3-0.2-1.2-0.1-1.9-0.2c0.4-0.1,0.7-0.2,0.5-0.4c1.3,0,1,0,2.2-0.1C101.7,38.4,101.1,38.6,101.4,38.8z M100.6,35
		l0.2,0.3c-0.8,0,0.2,0.4-0.6,0.4c0.2,0-0.1,0.3,0.1,0.4l0.2,0c-0.1,0-0.1,0-0.2,0l-0.2,0c0.3-0.2-1.5-0.2-1.2-0.6l0.5-0.1
		c-0.1,0.1-0.4,0.2-0.3,0.3C99.4,35.3,100.8,35.6,100.6,35z M97.9,33c0,0,0.1,0,0.1,0c0.1-0.1,0.1-0.1,0.5-0.1
		c0.1-0.1-0.2-0.2-0.3-0.3l0.6,0.2c0.1,0,0.2,0,0.3,0.1l-0.3-0.1c-0.2,0-0.4,0.2-0.8,0.1C98,33,98,33.1,97.9,33l0.6,0.5l-0.7-0.3
		C97.9,33.2,97.9,33.1,97.9,33L97.9,33z M96.6,27.6c0.1,0,0.1,0,0.1,0C96.7,27.6,96.7,27.6,96.6,27.6c-0.2,0-0.7,0.2-1-0.1
		C96,27.4,96.4,27.5,96.6,27.6z M96,27.8l-0.1,0.4L95.8,28L96,27.8z M96.6,32.8l0.2-0.3c0.7,0,0.2,0.4,0.6,0.5
		c-0.5,0.1-1.2-0.4-1.3-0.1l-0.6-0.3L96.6,32.8z M95.1,25.2l0.2,0.1l-0.5,0.2L95.1,25.2z M95.4,27.1l-0.2,0.4l-0.3-0.2
		C94.4,27,95.7,27.1,95.4,27.1z M91.8,25.6l0-0.4C91.8,25.3,92.4,25.7,91.8,25.6z M90.3,26.3l-1,0l0.5,0.3c0.6,0,2.7,0.4,3.6-0.2
		l1.2,0.4c-0.3,0-0.4,0.4,0,0.5c0.2,0.9-2,0.1-1.7,1c-0.3-0.2-0.2-0.9-1.2-0.8l0.3-0.4c-0.1-0.2-0.4-0.1-0.6-0.1
		c-0.1,0.4-0.1,0.5-0.4,0.6c0.2-0.4-0.5-0.1-0.7-0.4c0.2-0.3,0.4,0.1,0.7,0c-0.2-0.2-0.3-0.3-0.5-0.4l-0.1,0
		c-0.8-0.1-1.2-0.4-1.3-0.8C89.6,26.5,90,25.8,90.3,26.3z M89.5,24.7c0.1,0,0.1,0,0.2,0.1c0.1,0,0.1,0,0.2,0l0-0.1
		c0.2-0.1,0.1,0.1,0.1,0.3c-0.1-0.1-0.2-0.1-0.3-0.2C89.6,24.7,89.5,24.7,89.5,24.7c-0.1,0-0.3-0.1-0.4-0.1
		C89.4,24.4,89.4,24.6,89.5,24.7z M88.6,28.2C88.7,28.2,88.7,28.3,88.6,28.2c0.3,0.5,0.6,0.2,1.4,0.3c-0.5,0.2-0.6,0.1-1.2,0.4
		l-0.1-0.2C88.3,28.7,88.6,28.4,88.6,28.2C88.6,28.3,88.6,28.3,88.6,28.2z M88,26.4l0,0.2l-0.3-0.2L88,26.4z M87.7,26.8l0.6,0.4
		l-0.1,0L87.7,26.8L87.7,26.8z M87.7,27.4c0.1,0,0.2,0,0.3,0C88,27.4,87.9,27.4,87.7,27.4c-0.2,0.1-0.1,0.2-0.3,0.3
		C87.1,27.4,87.4,27.4,87.7,27.4z M87,26.8l0.2,0.2C87.1,26.9,87.1,26.9,87,26.8l-0.3-0.3l-0.1,0c-0.2-0.1-0.2-0.2-0.4-0.3
		C87.1,26.2,86.8,26.5,87,26.8z M85.6,24.8c0.7,0,0.3,0.4,0.5,0.4L85.2,25L85.6,24.8z" /><path class="st0" d="M108.7,51.3c-0.8,0.2-1.5-0.4-2.1-0.2c-0.1,0.1,0.1,0.3,0.4,0.2c-0.3,0.1-1.5,0.4-1.6-0.1
		c-0.1-0.1,1.3-0.1,0.6-0.4c0.6,0,1.1,0.1,1.5-0.1c-0.2-0.1-0.1-0.5-0.6-0.4c-0.4,0.2-0.8,0.3-0.9,0.2c0.5,0,0.3-0.1,0.4-0.3
		c-0.8,0.2-1,0.2-1.5,0.3c-0.2-0.1-0.4-0.1-0.6-0.1l1.4,2.7l4.2-0.6l0.4-1.9c-0.7,0-1.3,0.1-2.2,0.2
		C108.2,50.9,108.7,50.9,108.7,51.3z" /><path class="st0" d="M132.4,31.7L132.4,31.7L132.4,31.7C132.4,31.7,132.4,31.7,132.4,31.7z" /><path class="st0" d="M154.5,37.6C154.5,37.7,154.6,37.7,154.5,37.6c0.2,0,0.3,0,0.4-0.1l-0.1-0.5l-1.3,0.2
		C153.9,37.4,154.7,37.3,154.5,37.6z" /><path class="st0" d="M131,22.1l0.2,1.6c0.1-0.1,0.2-0.1,0.3-0.2c0.3,0,0.5,0.3,0.8,0.2c0.1-0.1-0.2-0.3-0.4-0.3l0.7,0.1l0.1-0.3
		c0.5-0.1,0.5-0.1,0.7,0.2l-0.9,0.1c0.1,0.3,1.1,0,1.2,0.3c0,0.2-0.5,0.1-0.6,0c0,0.3-1,0.1-1.9,0l0.2,1.1l0.1-0.1l0.6,0.1l-0.6,0.1
		l0.1,0.5c0.7-0.3,1.3-0.4,2,0l-0.6,0.2l0.4-0.2c-0.4,0.1-1.1-0.1-1,0.3c-0.1-0.1-0.5-0.3-0.8-0.3l0.8,5.1l1.6,0.1
		c-0.2,0.1-0.5,0.3-0.9,0.4l0.7,0.6c-0.3-0.1-0.5-0.2-0.8-0.2c0,0-0.1,0-0.1,0.1c0,0,0,0,0,0c-0.1,0-0.1,0-0.2,0
		c-0.4,0.4,1.1,0.1,0.9,0.5l-0.5,0.2c-0.1-0.3,0.1-0.1,0.4-0.2c0-0.1-0.4-0.2-0.8-0.2l1.2,7.8c0,0,0.1,0,0.2-0.1
		c0.2,0,0,0.1-0.2,0.1l0.7,4.6l-3.2,1.1l0.6,3.7l24.5-3.7l-1-6.7c-0.4,0-0.5,0.1-0.9,0.1c0.2-0.1,0.3-0.3,0.2-0.3l0.7,0.2l-0.2-1
		c-0.2,0-0.3,0-0.4-0.1c0,0-0.1,0-0.1,0c0,0,0-0.1,0.1-0.1c-0.1-0.1-0.2-0.2-0.3-0.2c-0.4,0.4-0.7,0-0.6,0.4
		c-0.7-0.1-0.5-0.3-0.4-0.5l-3,0.5l0,0.4l0.2,0l-0.1,0.3l0.2,3.1l-10,1.5l-0.4-2.4l-1,0.2l0,0.3l-0.5-0.1l0.5,0l-0.6-0.6
		c-0.1,0-0.1-0.1-0.1-0.1l0.1,0.1c0.2,0.1,0.6-0.1,1-0.1l0-0.3c0.2,0,0.4,0,0.5,0l-0.1-0.8c-0.9,0.1-2,0.4-2.7,0l0.5,0l-0.5-0.4
		c0.2,0.1,0.8,0.1,0.6,0.4c0.8-0.2,1.5-0.3,2-0.5l0,0l-0.7-4.5l10.5-1.6l-0.7-4.8l-10.5,1.6l-0.8-5.4c-0.2,0-0.4,0-0.6,0l0.3,0.2
		c0,0,0.1,0,0.1,0.1l-0.1-0.1c-0.2-0.1-0.4-0.1-0.2-0.3l-1.9,0c0.8-0.1,0.8-0.6,1.4-0.6c0.2,0.1-0.5,0.2,0,0.3
		c0.3-0.1,0.6-0.1,1-0.1l-0.3-1.8l9.9-1.5l0.1,0.7l0.6,0l-0.6,0.1l0,0l0.1,0c0,0-0.1,0-0.1,0l0.6,2.8l4.8-0.7l-1.3-8.5l-21.2,3.2
		l-3.3,0.5l0.6,3.7L131,22.1z M143.8,46.1L143.8,46.1l-0.5,0.1l0.1-0.3L143.8,46.1L143.8,46.1L143.8,46.1z M148.3,44
		c-0.1-0.1-0.2-0.2-0.2-0.3C148.8,43.7,148.1,43.8,148.3,44c0,0,0.1,0.1,0.2,0.1C148.4,44,148.3,44,148.3,44z M152.7,38.6l-0.3,0.2
		c0.3,0.2,1.3-0.2,1.4,0.2c-0.2,0-0.4,0.1-0.6,0.1c-0.4,0.4,0.5,0.2,0.3,0.5c-0.4,0.2-0.3-0.1-0.5-0.2
		C152.7,39.2,151.6,39,152.7,38.6z M152.4,39.8L152.4,39.8C152.5,39.9,152.5,39.9,152.4,39.8l-1.2,0.3c-0.7,0-0.2-0.4-0.4-0.6
		l-0.2,0C151.4,39,152.2,39.7,152.4,39.8z M150.7,43.4c0.2,0.1,0.6,0.2,0.8,0.1l0.1,0.4c0.3-0.1,1,0.1,0.7-0.2
		c0.6,0.2,1.4,0.4,2.1,0.5l-0.5,0.1c0.4,0,0.7,0.4,0.3,0.5c-0.1-0.3-0.9-0.2-1-0.4c0.4,0,0,0.2,0.5,0c0-0.2-0.9-0.2-0.7-0.1
		c-0.7-0.1-0.6,0.1-0.3,0.3c0.1,0,0.2,0.1,0.3,0.2c0.1,0,0.1,0.1,0.1,0c0,0,0,0-0.1,0c-0.1,0-0.2-0.1-0.3-0.2
		c-0.6-0.3-1-0.1-1.7-0.1c-0.4-0.2-0.1-0.3,0-0.5c-0.5-0.2-0.4,0.2-0.7-0.1C151,44.1,150.8,43.6,150.7,43.4z M149.4,42.4
		c-1.1,0.3-0.5,0.5-1,0.8l-0.8-0.3l0.5-0.1c0.1-0.1-0.1-0.3-0.5-0.2C148.1,42.5,148.9,42.3,149.4,42.4z M146.4,43
		c-0.2,0.3-0.5,0.1-0.8,0.3c0.1-0.1,0.3-0.2,0.6-0.3l-0.4-0.2c-0.2,0-0.3-0.1-0.3-0.2l0.3,0.2C146.1,42.8,146.6,42.7,146.4,43z
		 M145.4,45.2l-0.5,0.1c0-0.2,0.8-0.2,0.4-0.4C145.9,44.8,145.2,44.9,145.4,45.2z M145,44.7c0.3,0.1-0.6,0.2-0.6,0.4
		c0,0,0.1,0.1,0.1,0.2c-0.1-0.1-0.2-0.1-0.1-0.2C144.3,44.9,144.3,44.9,145,44.7z M143.8,45.2c-0.2-0.2-0.7,0-0.7-0.1
		C143.4,45.1,144.1,44.8,143.8,45.2z M141.8,45.9c0.4-0.1,0.8,0.2,1.3,0.3c-0.6,0.3-1.8,0.6-2.1,0.1c0.1,0,0.4-0.2,0.2-0.2l0.7,0.1
		C141.7,46,142.4,46,141.8,45.9z M141.4,45.2c-0.1,0.1-0.3,0.3-0.6,0.2C141.1,45.3,140.9,45,141.4,45.2z M140.7,45.8
		c0.4,0.2-0.3,0.1-0.2,0.3l-0.4-0.2C140.3,45.9,140.9,45.9,140.7,45.8z M143.2,19.6l-0.1-0.2l0.3,0L143.2,19.6z M143.8,18.8
		l-0.2-0.3l1,0L143.8,18.8z M145.3,18.9l-0.4-0.2l0.9,0L145.3,18.9z M149,20.9l0-0.2l0.3,0.3L149,20.9z M149.8,21.6
		c0.8-0.2,0.8,0.1,1.5,0.1C150.8,21.7,150,21.9,149.8,21.6z M150,20.6c0.1,0,0.1,0.1,0.1,0.1l0.1,0.2l-0.3,0l0.2,0
		c0-0.1,0-0.1,0-0.1L150,20.6z M148.7,16.6c0-0.1-0.2-0.1-0.3-0.3l1.1,0.2l-0.1,0.1c0.4,0.2,0.7-0.1,1.1-0.1
		c-0.5,0.2-0.8,0.4-1.6,0.4c0.3,0.2,1,0.4,1.6,0.5l0.1-0.1c0,0,0,0.1,0,0.1c0.2,0,0.3,0.1,0.5,0.1c-0.1,0-0.4,0-0.5-0.1
		c0,0-0.1,0-0.1,0l-1,0.6c-0.4-0.2-0.8,0-1.3-0.2c1,0,0.4-0.6,0.9-0.5c-0.5-0.2-0.5-0.3-1.3-0.3C148,17,148.1,16.5,148.7,16.6z
		 M147.2,16.9l-0.5,0.1l-0.6-0.1L147.2,16.9z M146.3,17.5c-0.1,0.3-0.4-0.1-0.7-0.1C146.1,17.3,145.6,17.5,146.3,17.5z M143.5,17.3
		c0.4,0.4,1.9,0.2,2.1,0.5c-0.2-0.1-0.3-0.2-0.5-0.1c0.2,0.1,0,0.6,0.5,0.3l-0.4,0.2c0-0.6-1.7-0.2-2-0.7
		C143.3,17.5,143.6,17.4,143.5,17.3z M143.5,19c-0.2-0.1-0.7-0.1-0.9-0.3C143,18.6,143.6,18.6,143.5,19z M139.9,17.3
		c0.2,0,0.5-0.1,0.6,0.1C139.9,17.6,140.2,17.3,139.9,17.3c-0.1,0-0.1,0-0.2,0C139.8,17.3,139.9,17.3,139.9,17.3z M139,18l0.7,0.1
		L139,18z M139,17.7c0.7,0.1-0.3,0-0.1,0.3C138.5,18,138.7,17.8,139,17.7z M136.1,22.3l-0.8,0L136.1,22.3z M133.9,36.1l0.8,0.2
		c-0.3-0.3,0.3-0.4,0.6-0.6c0.1-0.1,0.1-0.1,0.2-0.1c0,0-0.1,0.1-0.2,0.1c-0.1,0.2-0.3,0.4-0.6,0.5l0.4,0.3
		C135,36.1,134,36.5,133.9,36.1z M134.9,38.8c-0.1,0-0.1-0.1-0.1-0.2C134.8,38.7,134.9,38.7,134.9,38.8c0.3,0.1,1,0,0.4,0.2
		C135.4,38.9,135.1,38.9,134.9,38.8z M135.4,40.2l-0.1,0.2l-0.6-0.8C135.6,39.3,135.3,40.1,135.4,40.2z M134.3,40.6
		c0-0.1,0.1-0.2,0.2-0.2l0.3,0.2C134.5,40.7,134.3,40.6,134.3,40.6z M135.5,46.9l-0.5,0l0.5-0.4l-0.9-0.3
		C136.5,45.6,135,46.9,135.5,46.9z M135.7,32.9c0.4-0.2,1.2-0.1,1.2-0.5c-0.3-0.1-0.5-0.2-0.1-0.3c0.5,0.5,0,0,0.4,0.6
		C136.5,32.5,136.3,33.4,135.7,32.9z M137.5,41.1c0.9-0.1,0.8,0.3,1.1,0.5c-0.4,0.2-1.5,0.1-1.7,0.3c-1.1,0.1-1-0.5-0.2-0.5
		c-0.1,0.3,0.8,0.1,1.2,0C138,41.2,137.8,41.2,137.5,41.1z M147.6,31.2l-0.4-0.2l0.5,0.3L147.6,31.2z M147.2,28.9
		c0.4-0.2,0.6-0.3,0.7-0.3l-0.3,0.1l0.7,0.1c0.4,0.3-0.7,0.5-1.1,0.5c0.2-0.3,0.2-0.1,0.6-0.2C147.6,29.1,147.4,28.9,147.2,28.9
		c0,0-0.1,0-0.1,0c0,0,0,0-0.1,0l0,0.2l-0.3-0.1c0.2,0,0.3-0.1,0.4-0.1C147.1,28.9,147.2,28.9,147.2,28.9z M147.1,30.8
		c-0.1,0-0.4,0-0.5,0.1l-0.4-0.2C146.4,30.4,146.8,30.8,147.1,30.8z M145.3,31.2c-0.2,0.4,0.7,0,1.1,0.1c-0.2,0.1,1.2,0.1,0.6,0.4
		c-0.8,0.1-2.7,0.2-2.6,0C144.8,31.5,144.5,31.3,145.3,31.2z M144.5,28.9l-0.2,0.1l-0.4-0.2L144.5,28.9z M144.2,29.5
		c-0.2,0.1-1.1,0.1-1.6,0.1C143.2,29.2,143.9,29.5,144.2,29.5z M139.3,32.3l0.7,0l-0.2,0.3c0.6-0.1,1.3-0.3,1.9-0.2
		c0.2,0.7-1.2,0.2-2,0.6l-0.1-0.4c-0.2,0-0.9,0.2-0.9,0C139.2,32.8,139.4,32.5,139.3,32.3z M138.5,31.8l0.2,0.3l-0.4-0.1
		C138.4,32,138.6,31.9,138.5,31.8z M137.9,31.6c0.2,0.1,0.7,0,0.3,0.1C137.8,31.8,137.9,31.7,137.9,31.6c-0.1,0-0.1,0-0.1-0.1
		C137.9,31.6,137.9,31.6,137.9,31.6z M137.4,29.2l0.2,0.1l-0.5,0.3L137.4,29.2z M136.6,28.2l0.7,0.2l-0.8-0.1L136.6,28.2z
		 M137.3,30.9l-0.2-0.2c0.9-0.1-0.1,0.3,0.3,0.5c-0.7-0.3-1.5,0.3-2.2,0.2c0,0.2,0.3,0.1,0.5,0.2l-0.3,0.3c-1.8-0.1,0.6-0.4-0.9-0.7
		c-0.1,0-0.2,0.1-0.2,0.2c-0.5-0.2,0.1-0.1-0.3-0.3l0.6,0c0-0.2-0.3-0.3,0-0.4C135.1,31.2,136.9,30.2,137.3,30.9z M135,25.3
		l-0.7-0.2L135,25.3L135,25.3z M134.3,18.3c0.1,0-0.1,0.2,0.1,0.3l0.3,0c-0.1,0-0.2,0-0.3,0l-0.5-0.1L134.3,18.3z M133.8,26.4
		c-0.4,0-0.1,0.2-0.3,0.3c-0.3-0.2-0.5-0.3-0.9-0.3c0.2-0.1,0.8-0.2,0.6-0.4C133.7,26,134.2,26.3,133.8,26.4z M131.8,19.4l0.2,0
		c0,0,0.1,0,0.1-0.1c0-0.1-0.1-0.1-0.1-0.2c-0.1,0-0.1,0-0.1,0c0.1,0,0.1,0,0.1,0c0.1,0,0.2,0.1,0.1,0.1c0,0,0,0,0,0c0,0,0,0,0,0.1
		l-0.1,0C131.9,19.4,131.9,19.4,131.8,19.4l-0.6,0.1C131.3,19.1,131.6,19.3,131.8,19.4z M131.9,20c-0.2,0.4,0.6-0.1,0.9,0.1
		l-0.1,0.4c-0.3-0.3-0.8-0.2-1.4,0l0.2,0.1c-1.2,0.3-1,0.1-2.2,0.3l-0.1-0.4C130.1,20.4,131,20,131.9,20z M129.1,20.5
		c-0.2,0.1-0.1,0.2-0.1,0.3c0-0.1-0.2-0.2-0.7-0.2L129.1,20.5z M127.6,20.7l0-0.4C128.1,20.5,127.9,20.5,127.6,20.7z" /><path class="st0" d="M132.7,31.7c0,0,0.1,0,0.1,0c0.2-0.1,0.3-0.2,0.1-0.3c-0.2,0-0.5-0.1-0.7-0.1l0,0.3
		C132.5,31.5,132.7,31.5,132.7,31.7z" /><path class="st0" d="M39.9,19.3c-0.3,0.1-0.7,0.4-1,0.5c-0.1,1.9,0.1,3.3,0.1,3.3c2.2-4.3,5.1-9.2,10.6-9.2l0.4,2.7l0.4-0.1
		c-0.2,0,0.1,0.3,0.3,0.3c0.5,0.4,1.5-0.2,1.6,0.4c-0.6,0-1.5-0.1-2.3-0.3l0.9,5.2l6-9.1l-0.2,0.1c0,0,0,0,0-0.1l0,0l0-0.1
		c-0.2-0.1-0.4-0.2-0.2-0.3l0.2,0.3c0,0,0,0,0.1,0.1l0.2-0.1l2.4-3.6l-4-2.7l-0.2,0c0.4,0.1-0.3,0.4-0.4,0.6l-0.5-0.2
		c0.1,0.4-1.2,0.4-1.7,0.4c0.6-0.3,1.2-0.4,1.6-0.8c-0.1,0-0.2,0-0.3-0.1l0.3,0c0,0,0,0,0,0c0.3,0,0.7,0,0.8,0
		c0.1-0.1-0.4-0.1,0-0.2c0,0,0,0,0,0l-7.5-5.1l0.5,3c0.7,0.2,1.3,0.5,1.6,0.7c-0.3,0-0.5-0.1-0.7-0.2L49,5.2c-0.3,0-0.6-0.1-0.9-0.1
		l0.5,3.3c-4.6-0.1-7,2.2-8.3,4.9l0.7,0.2l-0.7-0.2c-0.9,2-1.3,4.2-1.4,6.1c0.3-0.1,0.5-0.1,0.9-0.3C39.9,19.1,39.6,19.4,39.9,19.3z
		 M56.6,9.8c0.4,0.1,0.5,0,0.6-0.2l0.3,0.7C57.5,10.1,56.3,10.2,56.6,9.8z M50.2,13.9c0.4-0.2,0.3-0.1,0.6,0L50.2,13.9z M55.7,12.1
		l0.7,0.1L55.7,12.1z M55.8,10.9l-0.6-0.1l0.1-0.1l-0.4-0.2C55.3,10.3,55.6,10.7,55.8,10.9z M55.6,13.6c-0.1,0.2-0.6,0.1-0.9,0.2
		l-0.2-0.3C55.2,13.9,55.3,13.3,55.6,13.6z M54.2,10.6l0.5-0.2l-0.6,0.3L54,10.4L54.2,10.6z M53.4,10.2c0.1,0.1,0.2,0.3,0,0.4
		C52.6,10.3,53.7,10.6,53.4,10.2z M52.9,17.6c0.1,0.2-0.1,0.3-0.6,0.3C52.7,17.8,52.4,17.5,52.9,17.6z M52,10.6l0.4,0.3l-0.6-0.1
		L52,10.6z M49.9,7.7l0.2,0.2c0.3,0,0.1-0.4,0.5-0.4c0.1,0,0,0.2,0,0.4c-0.5,0.3-0.1,0-0.9,0L49.9,7.7z M50.4,8.5l-0.2,0.1l-0.8-0.2
		L50.4,8.5z M51.5,13.4l-0.3,0.1c-0.5-0.2-1.6,0-1.7-0.2C50.5,13.7,50.5,12.9,51.5,13.4z M44.8,11.9l-0.5,0
		c-0.1-0.2,0.4-0.2,0.5-0.2L44.8,11.9z M44.2,11.2l0.2-0.2l0.6,0.6L44.2,11.2z M46.9,13.2l0-0.2l0,0l0-0.2l0.6,0.4L46.9,13
		L46.9,13.2z M47.8,12.3l-0.7-0.2c-0.1,0-0.3,0-0.4-0.1l0.4,0.1C47.5,12.1,47.8,11.9,47.8,12.3z M46.3,12.5L45.9,12
		C46.4,12.2,46.1,12.3,46.3,12.5z M45.9,11.2l0.2,0C46,11.3,45.9,11.2,45.9,11.2l-0.9-0.1C45.2,10.9,45.6,11.1,45.9,11.2z M44.5,9.7
		c-0.2,0-0.5,0-0.3-0.2l-0.5,0.1C43.8,9.3,44.5,9.5,44.5,9.7z M43.2,11c0.2,0.1,0.9,0.1,0.6,0.4c-0.2,0.2-0.4,0.1-0.7,0.1
		c0,0-0.1,0-0.2,0c0.1,0,0.1,0,0.2,0C43.2,11.4,42.8,11.1,43.2,11z M42.3,11.7l0.8,0l-0.6,0.2C42.4,11.8,42.2,11.8,42.3,11.7z
		 M41.3,14.7c0-0.1,0-0.2,0.1-0.2c0-0.1,0-0.1,0.1-0.1c-0.1,0-0.1,0.1-0.1,0.1c0.1,0.1,0.4,0.3-0.2,0.2L41.3,14.7z M41.9,15
		C41.9,15,41.9,15,41.9,15C42,15,41.9,15,41.9,15c-0.1,0.1,0.3,0.4-0.2,0.4l-1-0.3C41,15.1,41.7,15.1,41.9,15z M40.3,17.7l0.6,0.3
		l-0.1,0L40.3,17.7L40.3,17.7z M39.8,18.4c0-0.1,0.3-0.1,0.2-0.2l0.4,0.2C40.2,18.4,39.9,18.6,39.8,18.4z" /><path class="st0" d="M24.3,73l-0.1-0.2l0.2,0l-0.1-0.2l-0.1,0c0,0,0-0.1,0-0.1l-0.1-0.2c0.4,0,0.2,0.1,0.1,0.2l0,0.1l1.7-0.1
		c-0.2,0-0.2-0.1-0.1-0.3l0.2,0.3l0,0c0.3,0.1,0.7,0,1,0c0.2-0.5-0.9,0-1.1-0.4l0.4-0.3l0,0.1c0.4,0,0.5,0,0.5-0.2
		c0.2-0.1,0.5,0.1,0.8,0.2c0.1,0,0.2,0.1,0.3,0.2c0,0-0.1-0.1-0.3-0.2c-0.4-0.2-0.8,0.1-1.3,0.1c0.2,0.1,0.7,0.4,0.8,0.1l-0.1,0
		c0.7,0.5,1.4-0.1,2,0.2c0.2,0.4-0.8-0.1-0.5,0.4l-1.2-0.1c-0.4,0.1-0.2,0.3,0,0.4l139.6-19.6l-0.6-4l-24.4,3.4l0.4,0.2l-0.4-0.1
		l0-0.1l-85.5,12c0,0.1,0.2,0.3,0.2,0.5c0.4,0.3,1.7,0.2,1.7,0.6c-1-0.2-0.8,0-1.5-0.4l-0.4,0.3c0.2-0.4-1-0.1-1.2-0.3
		c0.1-0.3,0.6-0.4,1-0.2C56.1,65.2,56,65,56,64.9l-23.4,3.3l0.2,0l-0.3,0.1l-0.3-0.1L1.1,72.6l0.6,4l24.4-3.4
		C25.3,72.9,24.8,72.9,24.3,73z M162.8,50.7c0.5,0.2,1.6,0.1,2.3-0.1l-0.2-0.1c0.1,0,0.4,0.1,0.4,0.2c-0.8,0.2-1.7,0.8-2.6,0.7
		c0.3-0.2,0.4-0.2,0.2-0.4c-0.3,0.1-1,0.2-1.3,0.3c-0.1,0-0.1,0.1-0.1,0.1c-0.1,0,0-0.1,0.1-0.1C161.9,51,163,50.8,162.8,50.7z
		 M157.6,53.5c0-0.1-0.3-0.1-0.2-0.2l0.6,0.1C157.9,53.4,157.8,53.5,157.6,53.5z M157.9,51.6c0,0-0.1,0-0.2,0c0,0.1,0,0.3-0.3,0.3
		c-0.6-0.2,0-0.2,0.3-0.3C157.8,51.6,157.8,51.6,157.9,51.6z M155.4,52.3l0.7,0.3c-0.2,0-0.5,0-0.6,0.1
		C155.4,52.6,155.2,52.5,155.4,52.3z M150.8,55l0.5-0.1l-0.5,0.3L150.8,55z M150.6,54.2c-0.5,0.4-1,0.1-1.6,0.1
		C149.2,53.9,150.2,53.9,150.6,54.2z M148.2,52.8L148,53l-0.6-0.1L148.2,52.8z M145.9,54.5l2.1,0.2c0.2,0,0.1,0,0.1-0.1
		c0.1,0,0.5,0.3,0.4,0.6c-0.7,0,0-0.4-0.7-0.4c-0.5,0.1-1.2-0.1-1.6-0.1c0.3,0.1-0.1,0.5,0.6,0.4l0-0.1l0.3,0.2
		c-0.8-0.4-1.3,0.5-2.4,0.3c0.5-0.3,1.1-0.3,1.7-0.3C146,55,145.6,54.7,145.9,54.5z M143.3,54.6l-0.1-0.4L143.3,54.6z M142.3,55.3
		C142.3,55.3,142.3,55.3,142.3,55.3l-0.2-0.5c0.2,0.3,0.7,0,1.2,0.2c-0.9,0.1,0.3,0.3-0.4,0.4l0-0.5
		C142.5,54.9,142.3,55.1,142.3,55.3L142.3,55.3L142.3,55.3c0,0.1,0,0.2,0,0.3c-0.3-0.2-0.6-0.1-0.9-0.2L142.3,55.3z M136.9,55.2
		c-0.8,0.2-0.7-0.5-1.1-0.3C136.8,54.5,136.1,55.2,136.9,55.2z M135.3,55.7c-0.4,0.4-1.2,0.3-1.8,0.2
		C134.2,55.8,135,55.3,135.3,55.7z M132.6,56.8c1,0.2,1.3,0,2.4,0c-0.5,0.1-1,0.6-1.7,0.5c0.1,0.3,0.7,0.1,0.9,0.3
		c-0.4-0.1-1.5-0.4-1.5,0l-0.2-0.5C132.7,57.1,132.4,57,132.6,56.8z M130.2,55c0,0.2-0.4,0.2-0.6,0.3
		C129.7,55.1,129.8,54.9,130.2,55z M129.8,56.7l-0.4,0c0-0.1,0-0.2-0.3-0.2C129.4,56.5,129.9,56.4,129.8,56.7z M128.2,55.2l0.4,0.2
		c-0.2,0.1-0.4,0-0.5,0.1C128.3,55.4,128.2,55.3,128.2,55.2z M126.7,57.5c0.1-0.1,0-0.2,0.2-0.3C127,57.3,127.3,57.5,126.7,57.5z
		 M126.9,56.8c-0.3,0-0.7,0.1-1,0.1C126.1,56.8,126.7,56.6,126.9,56.8z M126.6,56.5c-0.7,0.2-0.6-0.4-1.1-0.1
		C125.5,56.2,126.6,56.3,126.6,56.5z M124.7,56.4l0.4,0.6c-0.4-0.2-0.8-0.3-1.1,0L124.7,56.4z M118.2,56.4L118.2,56.4
		C118.2,56.3,118.2,56.4,118.2,56.4l-0.3,0.4l-0.5-0.2C117.4,56.2,118,56.4,118.2,56.4z M118.6,58.4c0.6,0.1,0.3,0.5,0.9,0.3
		c-0.1-0.1,0-0.2,0.2-0.3c0,0.2,0.3,0.4,0,0.6c-0.4,0-1.2-0.1-1.4-0.4l-0.1,0.3c-1-0.3-1.9,0.2-2.7,0
		C116.5,58.8,117.5,58.7,118.6,58.4z M115.8,59.6l-0.3,0.2l-0.1-0.1c-1-0.2-0.8,0.7-1.1,0.6c-0.1,0-0.4-0.1-0.2-0.1l0.2-0.1
		c-0.3-0.1,0.3-0.4-0.3-0.3C114.5,59.4,115.1,59.7,115.8,59.6z M108.9,58.5l1,0c0.4,0.4-0.4,0.2-0.4,0.4c0.1,0,0.2,0.1,0.2,0.1
		c0.1,0,0.2,0,0.3,0c0.2,0,0.3,0,0.3,0c-0.1,0-0.2,0-0.3,0c-0.1,0-0.2,0-0.3,0c-0.4,0.1-0.4,0.3-0.8,0
		C109.4,58.8,108.6,58.7,108.9,58.5z M108.1,59.6L108.1,59.6c-0.2-0.1-0.5-0.2-0.8-0.3c0.1-0.1,0.4-0.1,0.6-0.1
		c0.5-0.1,0.5,0.2,0.6,0.3L108.1,59.6C108.1,59.6,108.1,59.6,108.1,59.6C108.1,59.6,108.1,59.6,108.1,59.6l-0.9,0.3
		c-0.4,0-0.9-0.1-0.5-0.3l-0.6,0C106.9,59.1,107.3,59.8,108.1,59.6z M105.1,60.1l0.8,0.2c-0.5,0.3-1.3,0.1-2,0
		C104.2,60.3,105.2,60.6,105.1,60.1z M90.8,61c0,0,0.1-0.1,0.1-0.1l-0.1-0.1l0.2,0.1c0.1,0,0.2,0,0.3,0c0,0,0,0,0,0.1
		c0.7-0.4,0.8,0.3,1.5-0.3c1,0.2-0.2,0.5,0.7,0.8v-0.1l0,0.2c-0.1-0.2-0.9-0.3-0.9-0.1l0.3,0.1l-0.4,0.1l0.2-0.1
		c-0.3-0.5-1.6-0.4-2-0.5C90.4,61.1,90.6,61,90.8,61z M90.8,62.6l-0.4,0c0-0.1,0-0.2-0.3-0.2C90.4,62.4,90.9,62.3,90.8,62.6z
		 M89.2,61.1l0.4,0.2c-0.2,0.1-0.4,0-0.5,0.1C89.3,61.3,89.2,61.2,89.2,61.1z M87.7,63.4c0.1-0.1,0-0.2,0.2-0.3
		C88,63.2,88.3,63.4,87.7,63.4z M87.9,62.7c-0.3,0-0.7,0.1-1,0.1C87.1,62.7,87.7,62.5,87.9,62.7z M87.6,62.4
		c-0.7,0.2-0.6-0.4-1.1-0.1C86.5,62.1,87.6,62.2,87.6,62.4z M85.7,62.3l0.4,0.6c-0.4-0.2-0.8-0.3-1.1,0L85.7,62.3z M79.3,63.7
		l0.6,0.2l-0.7,0.1C78.8,64,79.2,63.8,79.3,63.7z M77.9,63.3c0-0.2-0.1-0.4,0.7-0.2c0.2,0.2-0.2,0.2-0.2,0.3c0,0,0.1,0.1,0.1,0.1
		c-0.1,0-0.1-0.1-0.1-0.1C78.3,63.2,78,63.2,77.9,63.3c0,0.1,0,0.1-0.2,0.1C77.7,63.3,77.8,63.3,77.9,63.3z M76,64.4
		c0-0.1,0.1-0.1-0.2-0.1c1.4,0,1.6-0.2,2.6,0c-0.5,0.2,0.1,0.3,0.3,0.5c-0.4,0.1-0.9-0.2-1.2-0.4c0.2,0.3-0.2,0.4,0.1,0.6l-1-0.1
		l0,0.1c-0.6-0.4-2.7-0.1-3-0.1l0.2,0L73,64.4l0.3,0c0.4-0.3-0.4,0-0.4-0.3C74.6,63.7,74.6,64.4,76,64.4z M66.1,64.9
		c0.6,0,1,0.4,1.5,0.5c0.3,0,0.5-0.1,0.8-0.1c-0.3,0.1-0.6,0.1-0.8,0.1c-0.7,0.1-1.5,0.2-2.1,0L66.1,64.9z M64.6,66.1l1.4,0.4
		l-0.5,0.1C65.2,66.4,64.4,66.5,64.6,66.1z M64.3,65.5c0.3,0.3-0.3,0.2-0.6,0.2C64,65.6,63.8,65.5,64.3,65.5z M62.1,64.8
		c-0.2,0-1.2,0.2-1.2-0.2C61.3,64.6,62.1,64.5,62.1,64.8z M38.1,70l0.3,0l0.2,0.4L38.1,70z M41.2,69.4c0-0.1,0.1-0.1,0.2-0.2
		l0.2,0.3C41.6,69.5,41.3,69.5,41.2,69.4z M54.3,66.4c0.2,0.1,0.2,0.1,0.1,0.1c0.5,0.4,2.4,0.4,1.3,0.6c-0.5,0-1.3-0.3-1.8-0.5
		c0.1,0,0.4-0.1,0.5-0.1C54.3,66.5,54.3,66.4,54.3,66.4z M42.4,68c0,0.2-0.9,0.3-0.9,0.3C41.4,67.9,42.2,68.2,42.4,68z M41.6,69.1
		L41.3,69l-0.1-0.4L41.6,69.1z M38,68.7c0.6,0,1.2,0.1,1.2,0.4C38.5,69.5,38.5,68.9,38,68.7c-0.4,0-0.7,0-1,0
		C37.5,68.5,37.8,68.6,38,68.7z M37.4,69l-0.1,0.4L37.4,69z M37.6,70.2l-0.8-0.4C37.3,69.8,37.6,70.1,37.6,70.2z M29.4,72.5
		l-0.2-0.2l0.8,0.1L29.4,72.5z M32.4,68.8L32,68.8l-0.2-0.1L32.4,68.8z M30.8,72.5c-0.4-0.1-0.6-0.3-0.6-0.6l1.1,0.4
		C31.3,72.3,30.9,72.3,30.8,72.5z M29.8,69.7c0.2,0,0.2-0.4,0.7-0.2C30.5,69.7,30,69.6,29.8,69.7z M30.5,69.3
		c-0.3,0.1-0.7-0.1-0.9,0C29.7,68.9,30.2,69.2,30.5,69.3z M29.2,69.6c-0.1,0.1-0.2,0.1-0.4,0.1c0,0-0.1,0-0.3,0c0.1,0,0.2,0,0.3,0
		C28.9,69.7,28.8,69.5,29.2,69.6z M25.1,69.7c0.1,0.1,0,0.3,0,0.3l0.3,0.1c-0.2,0-0.3,0-0.3-0.1l-0.5-0.1
		C24.6,69.8,24.9,69.7,25.1,69.7z M10.1,73.7L10,73.9c0,0,0,0,0,0l0,0c0-0.1-0.5-0.3-0.7-0.2c0.2,0.1,0.1,0.5,0.6,0.3
		c-0.1,0.1-0.5,0-0.8,0L9.3,74c-0.1-0.5-0.8,0-1.2-0.3l0.2-0.1c-0.4-0.3-0.8,0-0.6,0.3c-0.3-0.1-0.1-0.2-0.1-0.3
		c-0.1-0.1-0.6-0.3-0.6-0.1l0.2,0.1c-0.8,0.2-1.7-0.1-2,0.1c-0.2-0.3,0.3-0.4,0.4-0.5c-0.5-0.2-0.6,0.1-0.8-0.2l0.5,0.1l-0.1-0.2
		c0.3,0,0.5,0.1,0.8,0.1l0-0.2c-0.2,0-0.5-0.1-0.7-0.1l0.7,0l0,0.1c1,0.2,2.2,0.6,2.7,0.6l0.5,0.3c-0.1-0.3,0.9,0.2,1.2,0l-0.4-0.2
		l0.6,0.1c-0.1,0-0.2,0.1,0,0.3C10.3,73.6,10.3,74.1,10.1,73.7z M16.2,72l-1.2,0.1l0.1,0.1L15,72.1l0,0l-0.6-0.5
		c-0.6-0.4-0.8,0.3-1.3-0.1c0.5,0.2,0.7-0.2,1.2-0.3c0.5,0.1,0.8,0.8,1.5,0.3L15.7,72C15.9,72,16.1,72,16.2,72l0.2,0
		C16.4,72,16.3,72,16.2,72z M18.1,73.1c-0.1-0.1,0.2-0.2,0.3-0.2c0.7-0.1,0.1,0.3,0.5,0.4L18.1,73.1z" /><path class="st0" d="M26,72.9l0.3,0.3l1-0.1c0,0,0,0,0-0.1C27.1,73.1,26.2,72.5,26,72.9z" /><path class="st1" d="M9.6,37.8c0-0.2,0.5-0.2,0-0.4c0.2,0.1-0.2,0.1-0.2,0.3L9.6,37.8z" /><path class="st1" d="M57.7,34.6c-0.1,0-0.1-0.1-0.3-0.1L57.7,34.6z" /><path class="st1" d="M58,34.7l-0.3-0.1c0.2,0.1,0,0.3-0.3,0.4C58.2,35.2,57.6,34.7,58,34.7z" /><path class="st1" d="M56.9,36.2c0.2-0.3-0.7-0.3-0.5-0.7C56,35.8,57,36.1,56.9,36.2z" /><path class="st1" d="M57.6,36l0.2,0.2c0.6-0.2,0.4,0.4,0.9,0L58.3,36l0.1,0L57.6,36z" /><path class="st1" d="M40.4,40.5L40.4,40.5C40.2,40.5,40.3,40.5,40.4,40.5z" /><path class="st1" d="M41,40.6c0,0-0.3-0.5-0.7-0.7l0.2,0.5C40.6,40.5,40.8,40.5,41,40.6z" /><path class="st1" d="M40.4,40.5L40.4,40.5C40.4,40.5,40.4,40.5,40.4,40.5L40.4,40.5z" /><polygon class="st1" points="12.8,36.6 12.6,36.7 13.5,36.9 	" /><path class="st1" d="M5.9,38.8c0.5,0,0.4-0.4,0.7-0.1c0.1-0.2-0.3-0.2-0.6-0.3C6.1,38.5,5.9,38.6,5.9,38.8z" /><path class="st1" d="M5.7,38.4L5.7,38.4C5.7,38.4,5.7,38.4,5.7,38.4L5.7,38.4z" /><path class="st1" d="M5.8,38.3l0,0.1c0,0,0.1,0,0.1,0C5.8,38.3,5.8,38.3,5.8,38.3z" /><path class="st1" d="M5.9,38.4c0,0,0.1,0,0.1,0.1C6,38.4,5.9,38.4,5.9,38.4z" /><path class="st1" d="M8.1,37.8c-0.2,0.2-1-0.1-0.9,0.3C7.5,38.1,7.8,37.9,8.1,37.8z" /><path class="st1" d="M16.6,37.8l0.2-0.3l-0.5-0.1l0.1,0.2c-0.1,0-0.2,0-0.2,0L16.6,37.8z" /><path class="st1" d="M8.3,41.1l0.2,0.1l-0.1-0.4C8.2,40.9,8.4,41,8.3,41.1z" /><polygon class="st1" points="16.8,37.3 17.1,37.5 17.3,37.6 	" /><polygon class="st1" points="14.9,38.8 14,38.5 14.5,38.8 	" /><path class="st1" d="M9.8,41c0.2,0.1,0.9-0.1,1.1,0.2C11.3,41.2,9.6,40.8,9.8,41z" /><path class="st1" d="M17.9,35.8c-0.1,0-0.1,0.1-0.1,0.1L17.9,35.8L17.9,35.8z" /><path class="st1" d="M17.2,36.8c0.4,0.3,0.6,0.6,1.3,0.5c-0.2-0.2-0.4-0.4-0.4-0.6C18.1,36.9,17.6,36.9,17.2,36.8z" /><path class="st1" d="M18.1,36.7c0-0.1,0.2-0.2,0.5-0.2l0.5,0.1c-0.4-0.2-1.5-0.4-1.4-0.7l-1,0.3C17.1,36.6,17.4,36.4,18.1,36.7z" /><path class="st1" d="M18.1,36.7C18.1,36.7,18.1,36.7,18.1,36.7C18.1,36.7,18.1,36.7,18.1,36.7C18.1,36.7,18.1,36.7,18.1,36.7z" /><polygon class="st1" points="26.4,36.4 26.2,36.1 26.3,36.3 26,36.3 	" /><polygon class="st1" points="23.9,38.1 23.4,37.8 23.3,37.8 23.9,38.1 	" /><polygon class="st1" points="23,38 22.5,37.7 22.4,37.7 22.9,38 	" /><path class="st1" d="M25.6,38.3c0.5-0.1-0.3-0.3-0.5-0.4C25,38,25,38.2,24.8,38.2l-0.2-0.1C24.8,38.2,24.9,38.3,25.6,38.3z" /><path class="st1" d="M24.6,38.1c-0.1-0.1-0.2-0.2-0.4-0.3L24.6,38.1z" /><path class="st1" d="M24.3,38.9c-0.2-0.2-0.4-0.5-0.1-0.4l-0.9-0.1c-0.1,0.1,0.2,0.2,0.1,0.3L24.3,38.9z" /><path class="st1" d="M34.6,34c0.5,0.4,0.9-0.1,1.5,0c-0.2-0.2-0.9,0.1-0.9-0.3l0.3-0.1C34.1,33.3,36.1,34.4,34.6,34z" /><polygon class="st1" points="40.8,34.4 41.4,34.3 40.5,34 	" /><path class="st1" d="M37.5,33.8c0-0.2-0.5-0.1-0.3-0.3c0.2,0.1,1,0.1,0.8,0.5c0.5-0.2,1.4-0.2,1.7,0.1c0.2-0.3,0.3-0.8-0.4-0.9
		c0,0,0,0,0,0c0.2,0.1,0.1,0.2,0.2,0.3c-0.2,0-0.4,0-0.5-0.1c-0.1,0-0.2,0.1-0.3,0.1l0-0.2c-0.3,0.1-0.7,0.1-1,0c0,0-0.1,0-0.1,0
		l0,0.1l-0.2,0c-0.2,0-0.5,0.1-0.6,0.1L37.5,33.8z" /><polygon class="st1" points="24.3,36.9 24.2,37.2 24.8,37.3 	" /><path class="st1" d="M35.6,34.3l0.3,0.4C36.3,34.8,35.9,34.4,35.6,34.3z" /><path class="st1" d="M18.4,72.8c-0.2,0.1-0.4,0.1-0.3,0.2l0.8,0.1C18.5,73.1,19.1,72.8,18.4,72.8z" /><polygon class="st1" points="35.6,35 35.4,34.8 35.2,35.1 34.7,34.9 35.1,35.3 	" /><polygon class="st1" points="50,46 50.1,46.2 50.2,46.2 	" /><polygon class="st1" points="50.2,46.6 50.1,46.2 49.6,46.2 	" /><path class="st1" d="M12.9,44.7l0.5,0l-0.1,0c0.2,0,1,0,1.1-0.1L14,44.2C14.2,44.8,12.4,44.3,12.9,44.7z" /><path class="st1" d="M13,44.7C13,44.7,13,44.7,13,44.7L13,44.7L13,44.7z" /><polygon class="st1" points="47.2,47.9 47.9,47.8 47.2,47.7 	" /><path class="st1" d="M48.6,47.8c0.2,0.2,0.4,0.1,0.6,0l-0.8-0.3C48.3,47.5,48.3,47.7,48.6,47.8z" /><path class="st1" d="M25.7,41.5L25.6,41c-0.2-0.1-0.1,0.3-0.6,0c-0.2-0.2-0.4-0.7-1.1-0.6c0.2,0.3,1.1,0.2,0.8,0.6
		C24.8,41.1,25.3,41.3,25.7,41.5z" /><polygon class="st1" points="25.5,40.2 25.9,40.2 25.5,40 	" /><path class="st1" d="M44.6,32.1c0.2,0.1,0.4,0.2,0.8,0.2C45.2,32.3,44.8,32.2,44.6,32.1z" /><path class="st1" d="M45.4,32.4C45.4,32.4,45.4,32.4,45.4,32.4C45.4,32.4,45.4,32.4,45.4,32.4L45.4,32.4z" /><path class="st1" d="M44.6,32.1c-0.1-0.1-0.2-0.1-0.3-0.2C44.3,32,44.5,32.1,44.6,32.1z" /><path class="st1" d="M45.4,32.4l0,0.1C45.6,32.5,45.5,32.4,45.4,32.4z" /><path class="st1" d="M44.4,31.7l-0.5,0c0.1,0,0.2,0.1,0.4,0.2C44.3,31.9,44.3,31.8,44.4,31.7z" /><path class="st1" d="M12.6,48.2l-0.1-0.5c0.5,0,0.9,0,1.3-0.1c0.3-0.4-1.2-0.1-1.3-0.6l0,0.2l-0.8-0.3
		C12.2,47.3,12.5,47.9,12.6,48.2z" /><path class="st1" d="M30.1,48.1c-0.1-0.3-0.9-0.1-1.1-0.3c0,0.1,0.1,0.2-0.1,0.2c-0.2-0.1-0.4-0.5-0.8-0.5c0.4,0.2-0.1,0.2-0.4,0.2
		l0-0.2c-0.3,0-0.8,0-0.4,0.3l-0.3,0l0.6,0.3l-0.2-0.2c1.1-0.1,0.7,0.8,1.8,0.5l0.4,0.4c0.3-0.1,0.7-0.1,1,0
		c0.1-0.2,0.2-0.4,0.3-0.7C30.7,48.2,30.3,48.1,30.1,48.1z" /><path class="st1" d="M28.9,47.8C28.9,47.8,28.9,47.8,28.9,47.8C28.9,47.8,28.9,47.8,28.9,47.8z" /><path class="st1" d="M41,41.9c-0.7,0.1-0.3-0.3-0.9-0.3l0.6,0.5L41,41.9z" /><path class="st1" d="M25.2,42L25.2,42C25.2,42,25.2,42,25.2,42L25.2,42z" /><path class="st1" d="M25.9,41.9c-0.2,0.1-0.5,0.1-0.7,0.1l0.6,0.4C25.7,42.1,26.6,42.2,25.9,41.9z" /><path class="st1" d="M25.2,42.3L25.2,42c-0.1,0-0.1-0.1-0.2-0.1C25,42,25,42.1,25.2,42.3z" /><path class="st1" d="M26.7,42.4c0.3-0.5,1.4,0.3,1.6-0.2l0.6,0.4c0.6,0,0.8-0.5,1.7-0.3l-0.9-0.4l0.2,0.1l-0.6,0.1
		c-0.6,0,0.4-0.3-0.4-0.3c-0.2,0.3,0.6,0.4,0.4,0.6c-1.2,0-0.7-0.7-1.7-0.6c0.5,0.1,0.2,0.4-0.2,0.5c0.4-0.4-0.6,0-0.9-0.4
		C25.9,41.9,26.9,42.2,26.7,42.4z" /><path class="st1" d="M25.6,43.2c0-0.1,0.2-0.2,0.1-0.3c-0.1-0.1-0.3-0.1-0.5-0.1c0,0.1,0,0.2,0.1,0.3
		C25.4,43.1,25.5,43.2,25.6,43.2z" /><path class="st1" d="M28.1,43.1l-0.9-0.3l0.2,0.3c-0.3,0-0.5-0.1-0.6-0.2c0.2,0.3-1.1,0-0.7,0.4l0-0.1l1.9,0.2
		c-0.2-0.1-0.1-0.2-0.2-0.3c0.3,0,0.5,0.1,0.7,0.1L28.1,43.1L28.1,43.1z" /><path class="st1" d="M14.3,48.4c-0.4,0.3-0.7,0.4-0.9,0.7l1.9,0C14.1,48.9,15.1,48.7,14.3,48.4z" /><path class="st1" d="M29.8,43.4C29.8,43.4,29.8,43.4,29.8,43.4C29.8,43.4,29.8,43.4,29.8,43.4z" /><path class="st1" d="M28.8,43.4l0-0.1C28.8,43.3,28.8,43.4,28.8,43.4z" /><path class="st1" d="M28.8,42.8l0.1,0.5c0.1-0.1,0.2-0.1,0.2-0.1c0.3,0,0.5,0.2,0.7,0.3C29.5,43.3,29.2,42.9,28.8,42.8z" /><path class="st1" d="M29.8,43.4C29.8,43.4,29.8,43.4,29.8,43.4C29.8,43.4,29.8,43.4,29.8,43.4z" /><path class="st1" d="M30,43.4c-0.1,0-0.1,0.1-0.2,0.1C29.9,43.4,30,43.4,30,43.4z" /><polygon class="st1" points="12.1,48.7 11,48.6 11.2,48.8 	" /><path class="st1" d="M27,43.7c0,0,0,0.1,0.1,0.1C27.2,43.8,27.1,43.7,27,43.7z" /><path class="st1" d="M27.4,44.1c0.4-0.1,0-0.2-0.2-0.2C27.2,43.9,27.2,44,27.4,44.1z" /><path class="st1" d="M19.5,49.7l-0.1-0.1l-0.2,0C19.3,49.6,19.4,49.7,19.5,49.7z" /><path class="st1" d="M40.7,48.6c-0.4,0.3,0.3,0.2,0.7,0.6C41.7,48.8,41.1,48.7,40.7,48.6z" /><path class="st1" d="M29.7,43.7c0.2,0.3,0.5,0,0.8,0.1C30.3,43.8,29.9,43.6,29.7,43.7z" /><path class="st1" d="M29.9,44l0.4,0.5C30.4,44.4,30.5,44,29.9,44z" /><path class="st1" d="M30.3,44.4L30.3,44.4C30.3,44.5,30.3,44.5,30.3,44.4z" /><path class="st1" d="M10.7,53.6c-0.2,0-0.2-0.2-0.3,0l0.1,0c-0.1,0.2-0.4,0-0.7-0.1L9.8,54c0,0,0.1,0,0.1,0
		C10.7,54.1,10.3,53.7,10.7,53.6z" /><path class="st1" d="M5.4,72.6c0.2,0,0.5,0.1,0.7,0.1l0-0.1L5.4,72.6z" /><path class="st1" d="M10.7,73.5l-0.6-0.1l0.4,0.2c-0.3,0.2-1.3-0.3-1.2,0l-0.5-0.3c-0.5,0-1.7-0.4-2.7-0.6l0,0.2
		c-0.3-0.1-0.5-0.1-0.8-0.1l0.1,0.2l-0.5-0.1c0.2,0.3,0.2,0,0.8,0.2c-0.1,0.2-0.6,0.3-0.4,0.5c0.3-0.2,1.3,0.2,2-0.1l-0.2-0.1
		c0.1-0.2,0.5,0,0.6,0.1c-0.1,0.1-0.2,0.3,0.1,0.3c-0.2-0.2,0.2-0.5,0.6-0.3l-0.2,0.1c0.4,0.2,1-0.2,1.2,0.3l-0.2,0.1
		c0.2,0,0.6,0.1,0.8,0c-0.5,0.2-0.4-0.2-0.6-0.3c0.2-0.1,0.7,0.1,0.7,0.2l0.1-0.2c0.2,0.3,0.2-0.1,0.6,0
		C10.5,73.6,10.6,73.5,10.7,73.5z" /><path class="st1" d="M10,73.9L10,73.9C10,74,10,73.9,10,73.9z" /><polygon class="st1" points="10.9,54 12.1,54.2 11,53.7 	" /><path class="st1" d="M52.6,45.3l-1,0c0.9,0.3-0.5,0.5,0.3,0.8C52.9,46.2,52.5,45.6,52.6,45.3z" /><path class="st1" d="M12.1,54l0.5-0.2c-0.1,0.1,0.3,0.3,0.5,0.4c0.2-0.1-0.2-0.2-0.2-0.3c0.6-0.1,1.3,0.5,1.7,0.4
		c-0.9-0.2-0.8-1-1.8-0.7c0.2,0,0.2,0.1,0.2,0.2c-0.6,0-0.3-0.3-0.8-0.4C12.5,53.6,11.7,53.9,12.1,54z" /><path class="st1" d="M17.5,51.6c0.1,0.1,0.2,0.1,0.2,0.1C17.7,51.7,17.6,51.6,17.5,51.6z" /><path class="st1" d="M17.8,51.7c0.1,0.1,0,0.3-0.1,0.2l0.9,0.3c-0.4-0.4,0.2-0.3,0.6-0.3C19,51.5,18.3,51.9,17.8,51.7z" /><path class="st1" d="M10.1,54.8l0.8,0.1c0,0.1,0,0.1,0.2,0.2c0.3,0,0.2-0.1,0.2-0.3L10.1,54.8z" /><path class="st1" d="M12.8,61.9C12.9,61.9,12.9,61.9,12.8,61.9C12.9,61.9,12.9,61.9,12.8,61.9L12.8,61.9z" /><path class="st1" d="M15.4,63c-0.1,0-0.3,0-0.5,0C15.1,63,15.3,63.1,15.4,63z" /><path class="st1" d="M14,63.1c0.1-0.3,0.5-0.2,0.9-0.1c-0.4-0.1-0.9-0.5-1.1-0.7c0.1-0.3,0.6-0.2,0.3-0.5c0,0.2-1,0.1-0.8,0.3
		c-0.2,0-0.3-0.1-0.5-0.2c-0.9-0.1-0.4,0.3-0.7,0.6l0.5,0l-0.1,0c0.9-0.3,0.5,0.8,1.6,0.4c-0.5,0.2-0.1,0.4-0.1,0.8
		c0.2-0.1,0.5-0.2,0.3-0.4C14.3,63.2,14,63.2,14,63.1z" /><path class="st1" d="M19.8,51l-0.4,0.3l0.9,0.2C20,51.3,20.4,51.1,19.8,51z" /><path class="st1" d="M50.7,46.5c0,0,0.5,0.2,0.8,0.1l-0.6-0.4C50.8,46.2,51.2,46.5,50.7,46.5z" /><path class="st1" d="M14.9,53.7c0.1,0.2,0.5,0.7,1,0.6l0.2-0.1l-0.5,0c-0.1-0.1,0.1-0.2,0.1-0.3L14.9,53.7z" /><path class="st1" d="M24.5,49.9c-0.3,0-0.2-0.1-0.3,0.1c1,0.4,1.2-0.1,2.1,0C25.9,49.9,24.4,49.4,24.5,49.9z" /><path class="st1" d="M12.5,62.9c0.1,0-0.1,0.1-0.2,0.1c0.4,0.1,0.5,0.5,1.1,0.4C13.6,63.1,12.7,63.1,12.5,62.9z" /><path class="st1" d="M15.5,54.4c0.3,0.3-0.2,0.3,0.6,0.4L15.5,54.4z" /><path class="st1" d="M26.9,50.2l0.2,0.1c0-0.2,0.2-0.2-0.2-0.3C27,50.1,26.6,49.9,26.9,50.2z" /><polygon class="st1" points="15.8,55 15.2,55 15.6,55.3 	" /><path class="st1" d="M14.1,55.5c0.6,0.2,1.3,0.3,1.9,0.4c-0.2-0.2,0-0.6-0.6-0.5C15.5,56,14.3,55.1,14.1,55.5z" /><path class="st1" d="M15.7,63.8l0-0.2L15.7,63.8c-0.9,0.1-0.3-0.4-0.9-0.4c0,0.1,0.2,0.3-0.2,0.2c0.3,0.3,1.2,0.1,1.4,0.6
		c0.8-0.2-0.3-0.4,0.5-0.6C16.3,63.8,15.8,63.5,15.7,63.8z" /><path class="st1" d="M25.2,51.1c0.2,0.3,0.5,0,0.9-0.1C25.7,50.9,25.5,50.9,25.2,51.1z" /><path class="st1" d="M42.4,68c-0.2,0.3-1,0-0.9,0.3C41.5,68.3,42.4,68.2,42.4,68z" /><polygon class="st1" points="41.6,69.1 41.2,68.6 41.3,69 	" /><path class="st1" d="M11.7,58.8c0.1,0.1,0.3,0.1,0.6,0.1C12.2,58.7,12,58.6,11.7,58.8z" /><polygon class="st1" points="11.6,59.5 12,59.7 11.8,59.4 	" /><path class="st1" d="M19.3,63.9c0.1,0.4,1.1,0.3,1.9,0.4L21,63.7c-0.5-0.1-0.9-0.1-1.3-0.4C19.3,63.6,20.3,64,19.3,63.9z" /><path class="st1" d="M24.3,51c-0.1,0-0.3,0-0.4-0.1C24.2,51,24.3,51,24.3,51z" /><path class="st1" d="M24.3,51c0.2,0,0.5,0,0.5-0.2C24.2,50.5,24.5,50.9,24.3,51z" /><path class="st1" d="M38,68.7c-0.2-0.1-0.5-0.1-1,0C37.3,68.7,37.7,68.7,38,68.7z" /><path class="st1" d="M39.3,69.1c0-0.3-0.6-0.4-1.2-0.4C38.5,68.9,38.5,69.5,39.3,69.1z" /><path class="st1" d="M29.2,69.6c-0.5-0.2-0.3,0-0.4,0.1C29,69.7,29.2,69.7,29.2,69.6z" /><path class="st1" d="M28.9,69.7c-0.1,0-0.2,0-0.3,0C28.8,69.8,28.8,69.8,28.9,69.7z" /><path class="st1" d="M25.1,69.7c-0.2,0-0.5,0.1-0.5,0.2l0.5,0.1C25.1,69.9,25.2,69.8,25.1,69.7z" /><path class="st1" d="M25.5,70.1L25.2,70C25.2,70.1,25.3,70.1,25.5,70.1z" /><path class="st1" d="M36.9,69.9l0.8,0.4C37.6,70.1,37.3,69.8,36.9,69.9z" /><polygon class="st1" points="12.6,58.4 13.1,58.6 12.6,58.3 	" /><polygon class="st1" points="38.1,70 38.6,70.4 38.4,70 	" /><polygon class="st1" points="32.8,68.2 32.6,68.2 32.2,68.3 32.5,68.4 	" /><path class="st1" d="M30.5,69.3c-0.2-0.1-0.8-0.4-0.9,0C29.7,69.2,30.1,69.3,30.5,69.3z" /><path class="st1" d="M55.7,67.1c1-0.2-0.8-0.2-1.3-0.6c-0.1,0-0.4,0.1-0.5,0.1C54.4,66.8,55.1,67.1,55.7,67.1z" /><path class="st1" d="M54.3,66.4c0,0.1,0,0.1,0.1,0.1C54.5,66.5,54.5,66.4,54.3,66.4z" /><polygon class="st1" points="32.4,68.8 31.8,68.6 32,68.8 	" /><path class="st1" d="M29.8,69.7c0.2-0.1,0.8,0.1,0.7-0.2C29.9,69.3,30,69.6,29.8,69.7z" /><path class="st1" d="M41.2,69.4c0.1,0.1,0.4,0.1,0.5,0.1l-0.2-0.3C41.3,69.3,41.2,69.3,41.2,69.4z" /><path class="st1" d="M27.3,72.6l1.2,0.1c-0.2-0.5,0.7,0,0.5-0.4c-0.6-0.3-1.3,0.3-2-0.2l0.1,0c-0.1,0.3-0.5-0.1-0.8-0.1
		c0.5,0,0.9-0.2,1.3-0.1c-0.2-0.2-0.6-0.3-0.8-0.2C26.7,72,26.7,72,26.3,72l0-0.1l-0.4,0.3c0.2,0.4,1.3-0.1,1.1,0.4
		c-0.2,0.1-0.7,0.1-1,0l-1.7,0.1l0.1,0.2l-0.2,0l0.1,0.2c0.4-0.1,1-0.1,1.8,0.1l0.1,0L26,72.9c0.2-0.3,1.1,0.2,1.3,0.1
		c0,0,0,0,0,0.1l0.1,0C27.1,72.9,26.9,72.7,27.3,72.6z" /><path class="st1" d="M24.2,72.4l0.1,0.2C24.3,72.5,24.6,72.4,24.2,72.4z" /><path class="st1" d="M24.2,72.7L24.2,72.7L24.2,72.7C24.2,72.6,24.2,72.6,24.2,72.7z" /><path class="st1" d="M27.6,72c0.1,0.1,0.2,0.2,0.3,0.2C27.7,72.1,27.7,72,27.6,72z" /><path class="st1" d="M25.9,72.3c-0.1,0.1,0,0.2,0.1,0.3l0,0L25.9,72.3z" /><polygon class="st1" points="29.4,72.5 29.9,72.3 29.2,72.3 	" /><path class="st1" d="M30.8,72.5c0.1-0.2,0.5-0.2,0.5-0.2l-1.1-0.4C30.2,72.2,30.4,72.4,30.8,72.5z" /><polygon class="st1" points="15.2,72.2 15.1,72.1 15,72.1 	" /><path class="st1" d="M16.4,72l-0.2,0C16.3,72,16.4,72,16.4,72z" /><path class="st1" d="M15.9,71.6c-0.7,0.5-0.9-0.2-1.5-0.3c-0.5,0-0.6,0.4-1.2,0.3c0.5,0.4,0.6-0.3,1.3,0.1l0.6,0.5l1.2-0.1
		c-0.2,0-0.3,0-0.5,0L15.9,71.6z" /><path class="st1" d="M43.8,11.4c0.3-0.3-0.4-0.2-0.6-0.4c-0.4,0,0,0.4-0.1,0.5C43.4,11.5,43.6,11.6,43.8,11.4z" /><path class="st1" d="M43.1,11.5c-0.1,0-0.1,0-0.2,0C43,11.5,43.1,11.5,43.1,11.5z" /><path class="st1" d="M42.5,11.9l0.6-0.2l-0.8,0C42.2,11.8,42.4,11.8,42.5,11.9z" /><polygon class="st1" points="44.2,11.2 45.1,11.6 44.4,11 	" /><path class="st1" d="M44.9,11.1l0.9,0.1C45.6,11.1,45.2,10.9,44.9,11.1z" /><path class="st1" d="M46,11.2l-0.2,0C45.9,11.2,46,11.3,46,11.2z" /><path class="st1" d="M44.3,11.9l0.5,0l0.1-0.2C44.7,11.7,44.2,11.7,44.3,11.9z" /><path class="st1" d="M48.9,4.9c0.2,0,0.4,0.1,0.7,0.2c-0.3-0.2-0.9-0.5-1.6-0.7l0.1,0.7c0.3,0.1,0.6,0.1,0.9,0.1L48.9,4.9z" /><path class="st1" d="M41.4,14.5c0,0,0.1-0.1,0.1-0.1C41.4,14.4,41.4,14.4,41.4,14.5z" /><path class="st1" d="M41.4,14.5c0,0.1-0.1,0.1-0.1,0.2l-0.2,0C41.7,14.8,41.5,14.7,41.4,14.5z" /><path class="st1" d="M57.5,10.4l-0.3-0.7C57.1,9.8,57,10,56.6,9.8C56.3,10.2,57.5,10.1,57.5,10.4z" /><polygon class="st1" points="50.4,8.5 49.5,8.3 50.3,8.6 	" /><path class="st1" d="M44.5,9.7c0-0.2-0.8-0.4-0.9-0.1l0.5-0.1C44.1,9.7,44.4,9.7,44.5,9.7z" /><path class="st1" d="M50.6,7.9c0-0.2,0.1-0.4,0-0.4c-0.4,0-0.1,0.4-0.5,0.4l-0.2-0.2l-0.2,0.3C50.5,7.9,50.2,8.2,50.6,7.9z" /><path class="st1" d="M42,15C41.9,15,41.9,15,42,15C41.9,15,42,15,42,15z" /><path class="st1" d="M41.9,15c-0.2,0.1-0.8,0-1.2,0.2l1,0.3C42.2,15.4,41.8,15.2,41.9,15z" /><path class="st1" d="M46.3,12.5c-0.2-0.2,0.1-0.3-0.4-0.5L46.3,12.5z" /><path class="st1" d="M47.2,12.1l-0.4-0.1C46.9,12,47,12.1,47.2,12.1z" /><path class="st1" d="M47.2,12.1l0.7,0.2C47.8,11.9,47.5,12.1,47.2,12.1z" /><polygon class="st1" points="46.9,12.8 46.9,13 47.5,13.2 	" /><polygon class="st1" points="46.9,13.2 46.9,13 46.9,13 	" /><path class="st1" d="M53.4,10.2c0.3,0.3-0.8,0.1,0,0.4C53.6,10.5,53.5,10.4,53.4,10.2z" /><polygon class="st1" points="54.7,10.4 54.2,10.6 54,10.4 54.1,10.6 	" /><path class="st1" d="M55.3,10.8l0.6,0.1c-0.2-0.1-0.6-0.6-0.9-0.3l0.4,0.2L55.3,10.8z" /><path class="st1" d="M51.1,13.6l0.3-0.1c-0.9-0.5-0.9,0.3-2-0.1C49.6,13.6,50.7,13.4,51.1,13.6z" /><polygon class="st1" points="40.8,18 40.3,17.7 40.2,17.7 40.8,18 	" /><path class="st1" d="M40.4,18.4L40,18.1c0.2,0.1-0.2,0.1-0.2,0.2C39.9,18.6,40.2,18.4,40.4,18.4z" /><polygon class="st1" points="57.2,12.9 56.9,13 56.9,13 	" /><path class="st1" d="M56.6,13l-0.2-0.3C56.3,12.7,56.5,12.9,56.6,13z" /><path class="st1" d="M56.7,13L56.7,13C56.7,13,56.7,13,56.7,13L56.7,13z" /><path class="st1" d="M56.8,13.1l0.2-0.1l0,0L56.8,13.1C56.7,13.1,56.7,13.1,56.8,13.1z" /><path class="st1" d="M54.7,13.8c0.2-0.1,0.7,0,0.9-0.2c-0.3-0.3-0.4,0.3-1,0L54.7,13.8z" /><path class="st1" d="M50.7,16.8c-0.2-0.1-0.5-0.4-0.3-0.3L50,16.5l0.1,0.4c0.7,0.2,1.7,0.3,2.3,0.3C52.2,16.6,51.2,17.2,50.7,16.8z
		" /><path class="st1" d="M38,19.6c0,0,0.1,0,0.1,0C38.1,19.6,38,19.6,38,19.6z" /><path class="st1" d="M39.9,19.3c-0.3,0.1-0.1-0.2-0.1-0.2c-0.4,0.2-0.7,0.3-0.9,0.3c0,0.2,0,0.3,0,0.4
		C39.2,19.7,39.6,19.4,39.9,19.3z" /><path class="st1" d="M50.2,13.9l0.6,0C50.5,13.8,50.6,13.7,50.2,13.9z" /><path class="st1" d="M52.9,17.6c-0.5-0.1-0.2,0.2-0.6,0.3C52.7,17.9,53,17.8,52.9,17.6z" /><path class="st1" d="M77.9,46.2l0.6,0.2L78,46.1C77.8,46.1,77.8,46.2,77.9,46.2z" /><path class="st1" d="M69,28.9l0.2,0.4c0.3-0.5,0.9,0.1,1.5,0.1l0-0.2c0.9,0.3,0.9,0,1.9,0.1c-0.9-0.1,0-0.3,0-0.5
		c-0.2,0.3-1.6,0.5-1.9-0.1c0.2-0.2,0.6,0.2,0.5,0c-0.4-0.2-1.4,0.1-1.8-0.4c-0.3,0.3,0.6,0.2,0.9,0.5C70.5,29.1,69.2,28.9,69,28.9z
		" /><path class="st1" d="M75,47.6c0.3,0.1,0.8,0.5,0.8,0.7c0.9,0,0.5-0.3,1.5,0.1c0.4-0.2-0.7-0.4-1-0.4c-0.1-0.1,0.2-0.1,0.3-0.2
		c0.7,0.1,1.6,0.2,2.2,0.1c-0.4-0.1-0.4-0.4-0.4-0.3c-0.5-0.1,0,0.2-0.4,0.3c-0.4-0.1-0.9-0.2-1.4-0.4l0.2,0.1
		C76.1,47.5,75.8,47.9,75,47.6z" /><path class="st1" d="M68.3,29.7L68.3,29.7C68.3,29.6,68.3,29.7,68.3,29.7C68.3,29.7,68.3,29.7,68.3,29.7z" /><path class="st1" d="M67.4,29.4l0.9,0.3c-0.2-0.2-0.5-0.5-0.8-0.4C67.4,29.3,67.5,29.4,67.4,29.4z" /><path class="st1" d="M69,29.6l0.9,0.5c0,0.2-0.3,0.1-0.6,0.2l0.8,0.1l-0.5,0.2c0.2,0,0.3,0.1,0.5,0.2l0.6-0.3
		c-0.7-0.2-0.2-0.6-0.5-0.8c-0.8-0.1-1.3-0.4-1.8-0.1l0.8,0.2C69.2,29.8,68.9,29.7,69,29.6z" /><path class="st1" d="M71.7,28.4c-0.5-0.3-0.9-0.2-1.3-0.1C70.5,28.6,71.3,28.3,71.7,28.4z" /><path class="st1" d="M77.9,47.3l0.6-0.3l-0.6-0.2C78,47.1,77.8,47.1,77.9,47.3z" /><path class="st1" d="M76.5,27.7c0,0,0.1,0.1,0.2,0.1c0,0,0,0,0,0L76.5,27.7z" /><path class="st1" d="M76.6,28.2l0.4,0.3c0.2-0.2,0.9-0.1,0.5-0.4l1.5,0.1L79,28.4c0.1,0,0.2-0.1,0.3-0.1c-0.6-0.5-1.2-0.1-1.7-0.4
		c-0.4,0,0.1,0.1-0.1,0.2c-0.1,0-0.5-0.1-0.7-0.2C76.2,28,75.6,28,74.9,28C75.4,28.2,76.6,28.6,76.6,28.2z" /><path class="st1" d="M78.9,28.5L78.9,28.5C78.9,28.5,78.9,28.5,78.9,28.5z" /><path class="st1" d="M53.9,6.6c0.1,0,0.1,0,0.3,0.1c0,0,0,0,0,0L53.9,6.6z" /><path class="st1" d="M54.9,6.7c-0.1,0-0.5,0.1-0.8,0c-0.4,0.4-1,0.5-1.6,0.8c0.5-0.1,1.7-0.1,1.7-0.4l0.5,0.2
		c0.1-0.2,0.8-0.4,0.4-0.6l0.2,0L55,6.5c0,0,0,0,0,0C54.6,6.6,55.1,6.5,54.9,6.7z" /><path class="st1" d="M75.6,53.3c0.8,0.1,1-0.4,1.4-0.1c-0.2-0.1-0.5-0.2-0.4-0.4l1.5,0.4l-0.1,0l0.6-0.1c-0.2-0.4-1.1-0.2-1.6-0.4
		c0.2,0.3-0.2,0.2-0.5,0.1c0,0,0.1,0.1,0,0.1c-0.6-0.1-0.6-0.2-1.2-0.1c0.2-0.1,0.6,0.5-0.2,0.4c-0.9-0.1-0.1-0.7-1.3-0.7
		c-0.1,0-0.2,0-0.3,0l0.1,0.7C74.3,53.3,75.3,52.8,75.6,53.3z" /><path class="st1" d="M76.2,52.6c0.1,0,0.2,0,0.3,0.1C76.4,52.6,76.3,52.6,76.2,52.6z" /><path class="st1" d="M72,33.7c0.5,0.4,0.1,0.4,0.6,0.5c-0.2-0.5-0.2-0.6-0.9-1c-0.1,0-0.2,0.2-0.5,0.1c-0.5-0.3,0.2-0.4,0.3-0.5
		c-0.3-0.2-0.6-0.2-1-0.2l0.1,0.8c0.3,0.1,0.7,0.3,0.9,0.4C71.6,33.6,71.9,33.7,72,33.7z" /><polygon class="st1" points="75,30.8 75.2,31.3 75.8,31.3 	" /><path class="st1" d="M87.2,27L87,26.8C87.1,26.9,87.1,26.9,87.2,27z" /><path class="st1" d="M86.7,26.6l0.3,0.3c-0.2-0.3,0.1-0.7-0.8-0.5C86.4,26.4,86.5,26.5,86.7,26.6L86.7,26.6z" /><path class="st1" d="M89.8,24.6L89.8,24.6c-0.1,0.1-0.1,0.1-0.2,0.1c0.1,0,0.2,0.1,0.3,0.2C89.9,24.7,90,24.4,89.8,24.6z" /><path class="st1" d="M89.6,24.7c-0.1,0-0.1,0-0.2-0.1C89.5,24.7,89.6,24.7,89.6,24.7z" /><path class="st1" d="M89.1,24.5c0.1,0,0.3,0.1,0.4,0.1C89.4,24.6,89.4,24.4,89.1,24.5z" /><path class="st1" d="M92.6,34.9l-0.9-0.5c-0.4,0,0.1,0.4-0.1,0.5C92,35.1,92.6,35.1,92.6,34.9z" /><polygon class="st1" points="88,26.4 87.7,26.4 88,26.6 	" /><polygon class="st1" points="75.4,32.1 75.2,31.9 75,32.2 	" /><path class="st1" d="M92.5,61.7l-0.2,0.1l0.4-0.1l-0.3-0.1c0.1-0.2,0.8-0.1,0.9,0.1l0-0.2v0.1c-0.9-0.3,0.3-0.6-0.7-0.8
		c-0.7,0.6-0.7-0.1-1.5,0.3c-0.1,0.1-0.4,0.1-0.5,0.2c0-0.1,0-0.1,0.1-0.2c-0.2,0-0.4,0.1-0.2,0.2C90.9,61.3,92.2,61.2,92.5,61.7z" /><path class="st1" d="M90.8,60.8l0.1,0.1c0,0,0,0,0.1,0L90.8,60.8z" /><path class="st1" d="M89.1,26.1c0.2,0.4,0.6,0.6,1.3,0.8l0.1,0c0.2,0.1,0.3,0.3,0.5,0.4c-0.3,0.1-0.5-0.3-0.7,0
		c0.2,0.3,0.9,0,0.7,0.4c0.3-0.1,0.3-0.2,0.4-0.6c0.2,0.1,0.5-0.1,0.6,0.1l-0.3,0.4c0.9-0.2,0.9,0.6,1.2,0.8c-0.2-0.9,2-0.1,1.7-1
		c-0.4-0.1-0.3-0.5,0-0.5l-1.2-0.4c-0.9,0.6-3,0.2-3.6,0.2l-0.5-0.3l1,0C90,25.8,89.6,26.5,89.1,26.1z" /><polygon class="st1" points="88.4,27.1 87.7,26.8 87.7,26.8 88.3,27.2 	" /><path class="st1" d="M91.8,25.2l0,0.4C92.4,25.7,91.8,25.3,91.8,25.2z" /><path class="st1" d="M87.4,27.6c0.2,0,0.1-0.2,0.3-0.3C87.4,27.4,87.1,27.4,87.4,27.6z" /><path class="st1" d="M87.7,27.4c0.1,0,0.2,0,0.3,0C87.9,27.3,87.8,27.3,87.7,27.4z" /><path class="st1" d="M85.6,24.8L85.2,25l0.8,0.2C85.9,25.2,86.3,24.8,85.6,24.8z" /><path class="st1" d="M77.9,63.3c-0.1,0-0.2,0-0.2,0.1C77.8,63.4,77.9,63.3,77.9,63.3z" /><path class="st1" d="M78.4,63.4c0-0.1,0.4-0.1,0.2-0.3c-0.8-0.2-0.7,0.1-0.7,0.2C78,63.2,78.3,63.2,78.4,63.4z" /><path class="st1" d="M78.4,63.4c0,0,0,0.1,0.1,0.1C78.5,63.4,78.4,63.4,78.4,63.4z" /><path class="st1" d="M78.3,53.8c0.2,0,0.8,0.1,0.8-0.2c-0.5,0.2-0.5-0.1-0.8-0.2C78,53.4,78.2,53.6,78.3,53.8z" /><path class="st1" d="M94.9,24.6c0.3,0.3,0.8,0.4,1.3,0.3l-0.1-0.2C95.7,24.7,95.4,24.9,94.9,24.6z" /><path class="st1" d="M77,33.1L77,33.1L76.5,33C76.6,33.1,76.8,33.1,77,33.1z" /><path class="st1" d="M71.6,35.6l-0.5,0l0,0.2l0.1,0.1C71.2,35.7,71.6,35.8,71.6,35.6z" /><polygon class="st1" points="95.1,25.2 94.8,25.5 95.3,25.3 	" /><path class="st1" d="M88.7,28.8l0.1,0.2c0.6-0.3,0.7-0.2,1.2-0.4c-0.8-0.2-1.1,0.1-1.4-0.3C88.6,28.4,88.3,28.7,88.7,28.8z" /><path class="st1" d="M88.6,28.2C88.6,28.3,88.6,28.3,88.6,28.2C88.7,28.3,88.7,28.2,88.6,28.2z" /><path class="st1" d="M73,36.4L72,36.2c0.1,0,0.4,0.1,0.2,0.2L72,36.6c0.7,0.4,2.5,0.3,3.5,0.4c-0.2,0-0.3-0.1-0.5-0.1l0.9-0.4
		c-0.7,0.2-1.3-0.1-2-0.1c0.1,0,0.1,0,0.2,0.1c0.2,0.3-0.2,0.2-0.5,0.2l-0.6-0.4c-0.2-0.3,0.9,0,0.7-0.1
		C73.4,35.7,72.4,36.1,73,36.4z" /><path class="st1" d="M98.5,33.5L98,33.1c0,0-0.1,0.1-0.2,0.2L98.5,33.5z" /><path class="st1" d="M98,33c0,0-0.1,0-0.1,0L98,33C98,33.1,98,33,98,33z" /><path class="st1" d="M98.8,32.9l-0.6-0.2c0.1,0,0.4,0.2,0.3,0.3c-0.4,0-0.4,0-0.5,0.1C98.4,33.1,98.6,32.9,98.8,32.9z" /><path class="st1" d="M98.8,32.9l0.3,0.1C99,33,98.9,32.9,98.8,32.9z" /><polygon class="st1" points="89,29.5 89.2,29.4 88.7,29.2 	" /><path class="st1" d="M90.6,47.8l0,0.1c0.3,0,0.6,0,0.8-0.1C91,47.7,90.8,47.8,90.6,47.8z" /><path class="st1" d="M95.2,27.5l0.2-0.4c0.3,0-1-0.1-0.5,0.2L95.2,27.5z" /><path class="st1" d="M79.2,64.1l0.7-0.1l-0.6-0.2C79.2,63.8,78.8,64,79.2,64.1z" /><path class="st1" d="M98.5,51.7l0,0.3C98.7,51.9,99,51.9,98.5,51.7z" /><path class="st1" d="M98.6,52c-0.1,0-0.1,0.1,0,0.1L98.6,52z" /><path class="st1" d="M96.6,27.6c0.1,0,0.1,0,0.1,0C96.7,27.6,96.7,27.6,96.6,27.6z" /><path class="st1" d="M96.6,27.6c-0.2-0.1-0.6-0.2-1-0.1C95.9,27.8,96.4,27.6,96.6,27.6z" /><path class="st1" d="M96.7,52.6c-0.3,0,0.1,0,0.1,0.1c0.4,0.1,0.2-0.2,0.2-0.3l-0.9-0.2C96.2,52.4,96.8,52.3,96.7,52.6z" /><path class="st1" d="M95.6,42.4c-0.2-0.3-0.6,0-0.8,0c1,0-0.3,0.4,0.5,0.6c0.3-0.2,0.6-0.1,0.9,0l0-0.1l-0.9-0.2L95.6,42.4z" /><polygon class="st1" points="96,27.8 95.8,28 95.9,28.2 	" /><path class="st1" d="M92.7,48.1c0.7,0.4,1.2,0.2,2,0.2C94.2,48.4,93.2,47.7,92.7,48.1z" /><path class="st1" d="M97.8,27.6c0,0,0.1,0,0.1,0.1C97.9,27.6,97.9,27.6,97.8,27.6z" /><path class="st1" d="M97.4,28l-0.1-0.4c-0.4,0,0.3,0.6-0.6,0.4c-0.1,0.2,0.8,0.1,1.3,0.3L97.8,28C97.7,28,97.5,28,97.4,28z" /><path class="st1" d="M88.3,31.6c-0.4,0.2,0.2,0.5,0.3,0.5l-0.3-0.3l0.6,0L88.3,31.6z" /><path class="st1" d="M92.2,49.7c0.2-0.6,1.4-0.3,2.1-0.4c-0.6-0.2-2-0.4-2.6-0.2l0.3,0L92.2,49.7z" /><polygon class="st1" points="91.4,30.7 91.2,30.8 91.8,30.8 	" /><polygon class="st1" points="91.8,50 91.8,50.1 92.2,50.2 	" /><polygon class="st1" points="91.2,49.7 91.8,50.1 91.8,50.1 	" /><path class="st1" d="M89.8,32.3c-0.1,0-0.1,0-0.2,0C89.7,32.3,89.7,32.3,89.8,32.3C89.8,32.3,89.8,32.3,89.8,32.3z" /><path class="st1" d="M90,32.1L90,32.1C90,32,90,32,90,32.1L90,32.1z" /><path class="st1" d="M89.3,31.9c-0.2,0.2,0,0.3,0.4,0.4C89.3,32.1,90.1,32,89.3,31.9z" /><path class="st1" d="M91.1,32.5c-0.2-0.3-0.4-0.3-0.9-0.6L90.1,32c0.3,0,0.3,0.2,0.4,0.3c0,0.2-0.4,0-0.6,0c0.4,0,0.8,0.1,0.9,0.1
		L91.1,32.5z" /><path class="st1" d="M92.9,51.4c0.9,0,0.2,0.4,0.9,0.4l-0.2-0.5L92.9,51.4z" /><path class="st1" d="M90.3,53.1c0.1,0.1,0.4,0.2,0.6,0.1C90.9,53.1,90.5,53.2,90.3,53.1z" /><path class="st1" d="M88.5,52.1c0-0.1,0.4-0.3-0.2-0.3C88.3,51.9,88.3,52,88.5,52.1z" /><path class="st1" d="M61,53.5l0.8,0C61.4,53.3,61.4,53.5,61,53.5z" /><path class="st1" d="M93.7,50.4l-0.2-0.1C93.6,50.3,93.6,50.4,93.7,50.4z" /><path class="st1" d="M94.6,50.4c-0.6-0.3-0.6,0.2-0.9,0l0.3,0.2c-0.7,0.5-1.3-0.6-2.1,0c0.6,0.3,1.8,0.3,2.4,0.4
		c0.8,0.2-0.1,0.3,0.1,0.4l0.9,0c0-0.5-0.7-0.3-1.2-0.8L94.6,50.4z" /><path class="st1" d="M73.9,39.4l-0.4-0.1C73.6,39.3,73.8,39.3,73.9,39.4z" /><path class="st1" d="M74.7,39.2l0,0.2C74.7,39.3,74.8,39.2,74.7,39.2z" /><path class="st1" d="M74.7,39.3c-0.1,0.1-0.5,0.1-0.8,0l0.7,0.2L74.7,39.3z" /><path class="st1" d="M88.3,53.6l1,0.4c0.6,0.1,0.3-0.5,0.6-0.5c-0.4-0.2-0.2-0.4-1.2-0.4C88.3,53.3,89.2,53.7,88.3,53.6z" /><path class="st1" d="M89.9,53.6c0.1,0,0.2,0.1,0.4,0.1C90.1,53.6,90,53.5,89.9,53.6z" /><path class="st1" d="M72.1,42.6l0,0.2c0.2,0,0.4,0,0.5,0.1C72.8,42.7,72.4,42.6,72.1,42.6z" /><path class="st1" d="M97.5,33.1c-0.4-0.1,0.1-0.5-0.6-0.5l-0.2,0.3l-1-0.2l0.6,0.3C96.3,32.6,96.9,33.2,97.5,33.1z" /><path class="st1" d="M73,43.2c0.1,0,0.2,0.2,0.2,0.1l0.2,0.4c0.7-0.1,1,0.3,1.6,0C74.3,43.6,73.9,43.1,73,43.2z" /><path class="st1" d="M90.1,36.1c0.5,0.1,0.8-0.1,0.9-0.3c-0.1,0-0.5,0.2-0.9,0l0.3,0.3l-0.3,0L90.1,36.1z" /><path class="st1" d="M73.4,43.9c-0.3,0.1-1.1-0.3-0.8-0.5l-0.4,0.2l0,0.2l0.9,0.3L73.4,43.9z" /><polygon class="st1" points="92.2,54.6 92.8,54.9 92.4,54.6 	" /><polygon class="st1" points="73.6,44 74.5,44 73.8,43.9 	" /><path class="st1" d="M91,38.4l-0.6,0.3c0.2,0.1,0.5,0.2,0.7,0.2L91,38.4z" /><polygon class="st1" points="72.7,47 72.7,47 72.7,47 	" /><polygon class="st1" points="73.4,47.2 72.7,47 72.7,47 73,47.2 	" /><path class="st1" d="M90.8,40c-0.1-0.2,0.8-0.3,0.1-0.4C91.1,39.9,90.1,39.8,90.8,40z" /><polygon class="st1" points="93.2,39.2 93.1,39.4 93.6,39.5 	" /><path class="st1" d="M90.5,41.2c0.2,0.1,0.2,0.2,0.2,0.3c0.3-0.1,1,0.1,0.8-0.2C91.3,41.8,90.8,41.1,90.5,41.2z" /><polygon class="st1" points="98.2,52.1 97.9,52.3 98.7,52.3 	" /><path class="st1" d="M90,44C90,44,90,44,90,44L90,44L90,44z" /><path class="st1" d="M90,44c0.2,0.1,0.9,0.3,0.7,0.5l1.2-0.1c-0.6-0.5-1.1-0.9-2.1-1.2l0,0.2l0.1,0C90.1,43.6,90,43.8,90,44z" /><path class="st1" d="M90,44L90,44L90,44C90,44,90,44,90,44C90,44,90,44,90,44z" /><path class="st1" d="M95.9,42L95.9,42l-0.6-0.1C95.6,42,95.8,42,95.9,42z" /><polygon class="st1" points="106.1,46.3 106.3,46.2 105,46.1 	" /><path class="st1" d="M53.7,33.4l1.2,0.5l0.2,0l-0.9-0.4c0.8,0.2,1.6-0.1,2,0.1l0-0.2c0.5-0.1,1.6-0.1,1.4,0.3
		c-0.3-0.1-0.3-0.2-0.5,0.1c0.6,0.1,0.5-0.2,1.2-0.2c0-0.3,0.4-0.8-0.5-0.9c0.5,0.4-0.4,0.3-0.4,0.5c-1,0,0-0.2-0.7-0.5
		c0.1,0-0.7,0-0.8,0.2l0.9,0C55.9,34,54.1,32.4,53.7,33.4z" /><path class="st1" d="M42.7,38.8c-0.2-0.3-0.6-0.1-0.9-0.1C41.8,38.7,42.3,38.8,42.7,38.8z" /><path class="st1" d="M37.6,33.3C37.6,33.3,37.7,33.3,37.6,33.3c0.5,0,1-0.1,1.4-0.1c-0.1,0.1-0.1,0.2,0,0.2
		c0.1-0.1,0.1-0.2,0.3-0.2c0,0,0,0-0.1,0c0,0,0.1,0,0.1,0c0,0,0.1,0,0.1,0c-0.2-0.1-1-0.4-1.2-0.4c-0.4-0.2-0.8,0-1.4,0.2
		c0,0.1,0.6,0,0.3-0.1c0.8,0.1-0.2,0.3-0.1,0.4l0.4,0.1C37.5,33.3,37.5,33.3,37.6,33.3L37.6,33.3z" /><path class="st1" d="M37.6,33.3c-0.1,0-0.1,0-0.2,0L37.6,33.3L37.6,33.3z" /><path class="st1" d="M39.3,33.2C39.3,33.2,39.3,33.2,39.3,33.2C39.3,33.1,39.2,33.1,39.3,33.2C39.2,33.1,39.2,33.2,39.3,33.2z" /><path class="st1" d="M39,33.2c-0.3,0-0.8,0.1-1.3,0.1c0.3,0.1,0.7,0,1,0l0,0.2c0.2,0,0.3,0,0.3-0.1C38.9,33.3,38.9,33.3,39,33.2z" /><path class="st1" d="M40.7,32.8c0.2-0.4-0.9,0-1-0.1C40,32.9,40.4,32.9,40.7,32.8z" /><path class="st1" d="M37.5,34.1c0.3,0.1,0.8,0.1,0.9,0C38.2,34.1,37.8,34,37.5,34.1z" /><polygon class="st1" points="38.7,34.7 39.2,34.7 38.9,34.5 	" /><path class="st1" d="M40,35l-0.7,0.1l0.6,0.1C40.4,35.2,39.8,35.1,40,35z" /><path class="st1" d="M42.4,43c0.1-0.1-0.7-0.3-1-0.4c-0.2,0.2,0.5,0.3,0.5,0.4C42,43.1,42.1,43,42.4,43z" /><polygon class="st1" points="46.5,32.7 46.3,33 46.5,33 	" /><path class="st1" d="M41.1,36.1c-0.6-0.1-0.3,0.3-0.6,0.3C41,36.6,41,36.2,41.1,36.1z" /><path class="st1" d="M48.5,33.4c0.5-0.4,0.9,0,1.2-0.4c-0.9,0.3-1.6-0.5-2.3-0.4c-0.1,0.1-0.3,0.3-0.4,0.3
		C47.4,33.3,48.6,32.8,48.5,33.4z" /><polygon class="st1" points="52,10.6 51.7,10.7 52.4,10.9 	" /><path class="st1" d="M42.1,39.8l0.6,0.3c0.1-0.1,0.3,0,0.5,0.1l-0.1-0.4C42.8,40.2,42.7,39.7,42.1,39.8z" /><path class="st1" d="M76.4,40.5l-0.2-0.4C75.9,40.1,75.8,40.6,76.4,40.5z" /><path class="st1" d="M52.9,35.5C52.9,35.5,52.9,35.5,52.9,35.5c-0.1,0-0.1-0.1-0.2-0.1c0,0-0.1,0-0.1,0L52.9,35.5z" /><path class="st1" d="M52.9,35.5l0.8,0.2c0.1-0.2-0.6-0.5-1-0.3C52.8,35.4,52.8,35.4,52.9,35.5C52.9,35.5,52.9,35.5,52.9,35.5z" /><path class="st1" d="M55.7,39.3c-0.1,0-0.1-0.1-0.1-0.1l0.9,0c-0.4-0.3-1.1-0.4-1.8-0.5c0,0.2,0,0.3,0,0.5
		C55,39.2,55.3,39.3,55.7,39.3z" /><path class="st1" d="M45.5,33.3l0,0.3c0.2,0,0.3,0.1,0.4,0L45.5,33.3z" /><path class="st1" d="M50.7,45.1l-0.8,0.5c0.4-0.2,0.8-0.1,1.1,0.1L50.7,45.1z" /><path class="st1" d="M57.8,42c0.1-0.2-1-0.4-1.1-0.2C57.2,41.5,57.1,42.1,57.8,42z" /><polygon class="st1" points="39.9,47.4 39.9,47.4 40,47.6 40.7,47.7 	" /><path class="st1" d="M55.2,35.8c0.1-0.1,0.3,0,0.5-0.1l-0.3-0.2C55.3,35.6,55.4,35.7,55.2,35.8z" /><path class="st1" d="M57,42.3c0.3,0.1,0.7,0,1,0C57.9,42,57.2,42.2,57,42.3z" /><path class="st1" d="M55,40.1c0.2-0.1,0.5-0.1,0.6-0.3C55.2,39.8,55.1,39.9,55,40.1z" /><path class="st1" d="M58,42.7c-0.2,0-0.1,0.2-0.2,0.3C58.5,43,58.1,42.8,58,42.7z" /><path class="st1" d="M41.7,50.5c0-0.2,0.5-0.3,0-0.4c0,0.1-0.4,0.3-0.9,0.4C41.2,50.5,41.5,50.7,41.7,50.5z" /><path class="st1" d="M40.4,50.4c0,0,0.1,0,0.1,0C40.4,50.3,40.4,50.3,40.4,50.4l0,0.1l0,0L40.4,50.4z" /><path class="st1" d="M40.9,50.4c-0.1,0-0.3-0.1-0.4,0C40.6,50.4,40.7,50.4,40.9,50.4z" /><polygon class="st1" points="59.2,40.1 59.5,39.8 59.1,39.7 	" /><path class="st1" d="M43.5,49.4C43.5,49.4,43.5,49.4,43.5,49.4L43.5,49.4C43.5,49.4,43.5,49.4,43.5,49.4z" /><path class="st1" d="M43.2,49.8c0.9,0.1,0.3-0.3,0.8-0.2l-0.6-0.1C43.6,49.6,43.3,49.6,43.2,49.8z" /><path class="st1" d="M43.5,49.4l-0.2,0C43.3,49.5,43.3,49.4,43.5,49.4z" /><path class="st1" d="M43,50l-0.7,0.1l0.4,0.2C42.6,50.4,43.3,50.2,43,50z" /><polygon class="st1" points="58.1,41.2 58.8,41.4 58.7,41.2 	" /><polygon class="st1" points="77.4,54.2 77.9,53.9 77.4,53.7 	" /><path class="st1" d="M46.7,48.1c-0.5,0.1,0.1,0.3,0.2,0.4C47.3,48.5,47,48.3,46.7,48.1z" /><polygon class="st1" points="76.7,54.7 77.4,54.7 76.9,54.5 	" /><path class="st1" d="M54.9,44c0.3,0.1,0.3,0.2,0.3,0.3l0.4,0C55.7,44,55.2,44.1,54.9,44z" /><path class="st1" d="M74,57.6c0.1-0.1,0.4-0.1,0.5-0.2l-0.7-0.1L74,57.6z" /><path class="st1" d="M58,43.6l0.6,0.1c0.1-0.1,0.3-0.2,0.4-0.4C58.5,43.5,57.6,43.2,58,43.6z" /><polygon class="st1" points="78.5,55.7 79,55.7 78.7,55.5 	" /><path class="st1" d="M57.2,44.8C57.2,44.8,57.2,44.7,57.2,44.8l-0.5,0L57.2,44.8z" /><path class="st1" d="M117.9,28.7c0.4,0.3,1,0.8,2,0.5l-0.5-0.4c0.4,0.3-0.5,0.1-0.8,0.2c0.5-0.3-0.4-0.4-0.6-0.6l-0.6,0l-0.2,0.4
		C117.7,28.8,117.7,28.9,117.9,28.7z" /><path class="st1" d="M60.5,47.3C60.5,47.3,60.6,47.3,60.5,47.3C60.6,47.2,60.6,47.2,60.5,47.3z" /><path class="st1" d="M60.5,47.3c-0.2,0-0.3-0.1-0.7,0C60.1,47.5,60.4,47.3,60.5,47.3z" /><path class="st1" d="M77,42.1l0.4-0.1l-0.6-0.1C76.8,42,77,42,77,42.1z" /><path class="st1" d="M52.2,31.7c0-0.1,0.1-0.2,0.2-0.2c-0.5-0.2-0.4,0.1-0.9,0L52.2,31.7z" /><path class="st1" d="M57.8,48.6l0.5-0.3c-0.1,0-0.6-0.1-0.9,0.1L57.8,48.6z" /><polygon class="st1" points="56.3,48.2 56.8,48.2 55.7,48 	" /><path class="st1" d="M56.6,47.8l0-0.2c0.5-0.1,0.4,0.3,0.9,0.1l-1-0.4C56.1,47.5,56.5,47.6,56.6,47.8z" /><path class="st1" d="M44.6,55.3l-0.1-0.4c-1.3-0.1-0.6,0.9-0.4,0.9c0.6,0,1.3,0.3,1.7-0.1c-0.6-0.2-2.1,0.4-1.9-0.4
		C44,55.2,44.4,55,44.6,55.3z" /><path class="st1" d="M77,43.2c0.1-0.1,0.1-0.3-0.3-0.2C76.4,43.1,77.2,43.3,77,43.2z" /><path class="st1" d="M38.7,60.2l0.6,0.3l-0.6,0.2c0.6,0.1,0.9,0,1.1-0.3c-0.1-0.3-0.6-0.5-1.4-0.4l0,0.1L38.7,60.2L38.7,60.2z" /><path class="st1" d="M62,54.3l-0.5,0.4l0.5,0.1c-0.4-0.1,1.2-1.3-0.9-0.8L62,54.3z" /><path class="st1" d="M44.2,56.8C44.2,56.8,44.2,56.8,44.2,56.8C44.2,56.8,44.2,56.8,44.2,56.8z" /><path class="st1" d="M44.4,56.4c-0.2,0.1-0.1,0.2-0.1,0.3C44.4,56.6,44.5,56.5,44.4,56.4z" /><path class="st1" d="M44,57c0,0,0.1-0.1,0.1-0.1c-0.1,0-0.1,0-0.3,0L44,57z" /><polygon class="st1" points="45.4,56.6 44.6,56.5 45,56.5 	" /><path class="st1" d="M61.5,47.7c-0.2-0.1-0.4-0.1-0.6,0C60.9,47.9,61.3,47.7,61.5,47.7z" /><path class="st1" d="M61.5,47.7C61.5,47.8,61.5,47.8,61.5,47.7C61.5,47.7,61.5,47.7,61.5,47.7z" /><path class="st1" d="M43.2,60.2c0.1,0,0.1-0.1,0.2-0.1C43.4,60.1,43.3,60.2,43.2,60.2z" /><path class="st1" d="M42.6,60.8l-0.8-0.2c0,0.4,1,0.1,1.2,0.4l-0.4-0.3c0.3-0.1,0.5-0.3,0.6-0.4C42.9,60.4,42.3,60.5,42.6,60.8z" /><path class="st1" d="M60.6,48.6c0.2-0.2,1.1,0.4,1.7,0.1c0,0,0-0.1,0-0.1l-0.8-0.3C61.5,48.6,60.8,48.4,60.6,48.6z" /><path class="st1" d="M52.8,30.6l0.6,0.1c-0.3-0.2,0.3-0.4,0.5-0.5c-1.3,0-0.9,0-2.2-0.1c0.2,0.2,0,0.3-0.5,0.4
		c0.7,0.2,1.6,0.1,1.9,0.4L52.8,30.6z" /><path class="st1" d="M57.7,51.3c0,0,0-0.1,0-0.1C57.7,51.3,57.7,51.3,57.7,51.3z" /><path class="st1" d="M57.8,51.5l0.3,0c-0.1-0.1-0.3-0.1-0.4-0.1C57.7,51.4,57.7,51.4,57.8,51.5z" /><path class="st1" d="M45,31.4c0.1-0.1,0.5-0.1,1-0.2C45.6,31.2,44.9,31.1,45,31.4z" /><path class="st1" d="M46.3,31.3c-0.1,0-0.2,0-0.3,0C46.2,31.3,46.3,31.3,46.3,31.3z" /><polygon class="st1" points="47.1,60 47,60.3 47.2,60 	" /><path class="st1" d="M45.3,59.6l0.2,0c0,0,0,0,0,0L45.3,59.6z" /><path class="st1" d="M46.1,59.6l-0.6,0c0.1,0.3-0.5,0.1-0.6,0.2l0.2,0.6c0.2,0-0.1-0.6,0.7-0.4c0,0.3,0.4,0.2,0.8,0.1
		C46.6,59.9,45.7,59.8,46.1,59.6z" /><path class="st1" d="M47.2,59.5c0.9,0.1,1.9-0.1,2.3,0.2c0.2-0.4-0.5-0.6-1-0.8c-0.4,0.3,0.1,0,0.1,0.4c-0.4,0-1.2-0.3-1.4,0
		C47.7,59.2,47.4,59.4,47.2,59.5z" /><path class="st1" d="M50.5,60.9C50.5,60.9,50.5,60.9,50.5,60.9c0,0-0.1,0-0.2-0.1L50.5,60.9z" /><path class="st1" d="M50.6,60.8c0.3,0.1,0.8,0,1.1,0l0-0.1l-0.8-0.4C51.1,60.5,50.9,60.8,50.6,60.8z" /><path class="st1" d="M55.2,65.5c0.3,0.2,1.4-0.1,1.2,0.3l0.4-0.3c0.7,0.4,0.5,0.2,1.5,0.4c-0.1-0.4-1.3-0.3-1.7-0.6
		c0-0.2-0.2-0.4-0.2-0.5L56,64.9c0.1,0.1,0.2,0.2,0.3,0.4C55.8,65.1,55.4,65.2,55.2,65.5z" /><path class="st1" d="M65.6,66.6l0.5-0.1l-1.4-0.4C64.4,66.5,65.2,66.4,65.6,66.6z" /><path class="st1" d="M59.6,57.8c-0.1-0.3-1-0.4-1.3-0.5c0,0.1,0.1,0.1,0.1,0.2c0,0,0.1,0,0.1,0c0.2-0.1,0.4,0.1,0.6,0.2
		c-0.1,0-0.3,0.1-0.5,0.1c0,0,0.1,0.1,0.1,0.1l0-0.1L59.6,57.8z" /><path class="st1" d="M68.4,65.4c-0.3,0-0.5,0-0.8,0.1C67.9,65.5,68.1,65.5,68.4,65.4z" /><path class="st1" d="M67.6,65.4c-0.5-0.1-0.9-0.5-1.5-0.5l-0.6,0.5C66.1,65.6,66.9,65.5,67.6,65.4z" /><path class="st1" d="M62.2,57.8l-2.6-0.3c0.3,0.2,0.8,0.6,1.1,0.8C61.3,58.1,62.4,58.1,62.2,57.8z" /><path class="st1" d="M63.3,57.8l1.3,0l-1.3-0.3C63.6,57.6,63.2,57.7,63.3,57.8z" /><path class="st1" d="M64.3,65.5c-0.5-0.1-0.3,0-0.6,0.2C64,65.7,64.6,65.9,64.3,65.5z" /><path class="st1" d="M62.1,64.8c0-0.3-0.8-0.2-1.2-0.2C60.9,65.1,61.8,64.8,62.1,64.8z" /><path class="st1" d="M109,50c0.4,0,0.1,0.1,0,0.2c-0.2-0.3-0.8-0.1-1-0.4c0,0.2,0.3,0.5-0.4,0.6c-0.2-0.2-0.2-0.5,0.2-0.7
		c-0.6-0.1-0.6,0.4-0.8,0.6c-0.8-0.2-1.9,0.1-2.7,0.1l0,0.1c0.2,0,0.4,0,0.6,0.1c0.5-0.2,0.7-0.1,1.5-0.3c-0.1,0.2,0.1,0.3-0.4,0.3
		c0.1,0.1,0.6,0,0.9-0.2c0.5-0.1,0.4,0.2,0.6,0.4c-0.4,0.2-0.9,0.1-1.5,0.1c0.7,0.3-0.7,0.3-0.6,0.4c0.1,0.5,1.3,0.2,1.6,0.1
		c-0.3,0-0.5-0.1-0.4-0.2c0.6-0.1,1.4,0.4,2.1,0.2c0-0.4-0.5-0.4-0.7-0.6c0.9-0.1,1.6-0.1,2.2-0.2l0.1-0.5C109.9,50,109.4,50,109,50
		z" /><path class="st1" d="M125.1,57l-0.4-0.6l-0.8,0.5C124.3,56.7,124.7,56.8,125.1,57z" /><path class="st1" d="M126.6,56.5c0-0.2-1-0.4-1.1-0.1C126,56.1,125.9,56.7,126.6,56.5z" /><path class="st1" d="M128.2,55.2c-0.1,0.1,0,0.2-0.2,0.3c0.1-0.1,0.3,0,0.5-0.1L128.2,55.2z" /><path class="st1" d="M126.9,56.8c-0.2-0.2-0.8,0-1,0.1C126.2,56.9,126.5,56.8,126.9,56.8z" /><path class="st1" d="M130.2,55c-0.4-0.1-0.5,0.1-0.6,0.3C129.9,55.2,130.2,55.2,130.2,55z" /><path class="st1" d="M126.7,57.5c0.6,0,0.3-0.2,0.2-0.3C126.6,57.3,126.7,57.4,126.7,57.5z" /><polygon class="st1" points="114,22.7 113.7,22.7 113.7,23.1 	" /><polygon class="st1" points="112.6,22.9 112,23 112.7,23.1 	" /><polygon class="st1" points="125,48 124.8,48.2 125.5,48.1 	" /><path class="st1" d="M129.4,56.7l0.4,0c0.1-0.3-0.4-0.2-0.7-0.2C129.4,56.5,129.4,56.6,129.4,56.7z" /><path class="st1" d="M86.1,62.9l-0.4-0.6l-0.8,0.5C85.3,62.6,85.7,62.7,86.1,62.9z" /><path class="st1" d="M87.6,62.4c0-0.2-1-0.4-1.1-0.1C87,62,86.9,62.6,87.6,62.4z" /><path class="st1" d="M89.2,61.1c-0.1,0.1,0,0.2-0.2,0.3c0.1-0.1,0.3,0,0.5-0.1L89.2,61.1z" /><path class="st1" d="M87.9,62.7c-0.2-0.2-0.8,0-1,0.1C87.2,62.8,87.5,62.7,87.9,62.7z" /><path class="st1" d="M91,61.1l-0.1-0.1c-0.1,0-0.1,0.1-0.1,0.1C90.9,61,91,61,91,61.1z" /><path class="st1" d="M91.2,61C91.2,61,91.2,60.9,91.2,61c-0.1-0.1-0.2-0.1-0.2-0.1L91.2,61C91.2,61,91.2,61,91.2,61z" /><path class="st1" d="M91.2,61C91.2,61,91.2,61,91.2,61L91,60.9c0,0,0,0-0.1,0l0.1,0.1c-0.1,0-0.2,0-0.3,0c0,0.1-0.1,0.1-0.1,0.2
		C90.8,61.1,91.1,61.1,91.2,61z" /><path class="st1" d="M87.7,63.4c0.6,0,0.3-0.2,0.2-0.3C87.6,63.2,87.7,63.3,87.7,63.4z" /><path class="st1" d="M90.4,62.6l0.4,0c0.1-0.3-0.4-0.2-0.7-0.2C90.4,62.4,90.3,62.5,90.4,62.6z" /><path class="st1" d="M99.3,35.3l-0.5,0.1c-0.3,0.3,1.6,0.3,1.2,0.6l0.2,0c-0.1-0.1,0.1-0.4-0.1-0.4c0.8,0.1-0.1-0.3,0.6-0.4
		l-0.2-0.3c0.2,0.7-1.2,0.4-1.6,0.7C98.9,35.5,99.3,35.4,99.3,35.3z" /><path class="st1" d="M100.2,36c0,0,0.1,0,0.2,0L100.2,36z" /><path class="st1" d="M113.2,22.1l-0.7,0l0.2,0.3C112.8,22.3,113,22.2,113.2,22.1z" /><path class="st1" d="M110.8,24.9c0.1-0.1,0.4-0.1,0.5,0l0.1-0.5c-0.4,0-0.9,0.2-0.9,0c0,0.1,0,0.1-0.1,0.1l-0.1,0.5l0.8,0.1
		C110.9,25,110.9,25,110.8,24.9z" /><polygon class="st1" points="117.1,20 116.9,20.2 117.5,20.2 	" /><polygon class="st1" points="124.1,49 124.2,49 123.5,49 	" /><path class="st1" d="M134.2,57.6c-0.2-0.2-0.8-0.1-0.9-0.3c0.7,0.1,1.3-0.4,1.7-0.5c-1.1,0-1.4,0.2-2.4,0c-0.2,0.1,0.1,0.3-0.2,0.4
		l0.2,0.5C132.6,57.2,133.7,57.5,134.2,57.6z" /><path class="st1" d="M120.6,48.2c0.5-0.3-0.5-0.4-0.6-0.6l-0.6,0.1l-0.2,0.4c0.4,0,0.4,0.1,0.6-0.1c0.4,0.2,1.1,0.7,2.1,0.4
		l-0.5-0.3C121.7,48.3,120.8,48.2,120.6,48.2z" /><path class="st1" d="M108.1,47.7c-0.2,0-0.3-0.1-0.7,0C107.7,48,108,47.8,108.1,47.7z" /><path class="st1" d="M108.1,47.7C108.2,47.7,108.2,47.7,108.1,47.7C108.2,47.7,108.2,47.7,108.1,47.7z" /><path class="st1" d="M113.4,24.8l0.4-0.2l-0.6-0.1C113.1,24.7,113.3,24.7,113.4,24.8z" /><path class="st1" d="M109.5,47.8l0.5-0.3c-0.1,0-0.6,0-0.9,0.2L109.5,47.8z" /><polygon class="st1" points="147.2,16.9 146.1,16.9 146.6,17 	" /><path class="st1" d="M117.3,33.5l0-0.2c0.5-0.1,0.4,0.3,0.9,0l-1-0.4C116.8,33.3,117.2,33.4,117.3,33.5z" /><path class="st1" d="M114.8,25c0.1-0.1,0.1-0.3-0.4-0.2C114.1,25,114.9,25.1,114.8,25z" /><path class="st1" d="M121.2,21.2l0.5-0.2l0.3,0.2l0-0.1c0.4-0.1,0.5,0.1,0.6,0.2c0,0,0.1-0.1,0.1-0.1c0.1,0,0.1,0,0.2,0.1l0-0.3
		C122.2,20.8,121.6,20.8,121.2,21.2z" /><path class="st1" d="M122.7,21.4c0,0,0-0.1-0.1-0.1C122.6,21.3,122.6,21.4,122.7,21.4z" /><path class="st1" d="M119,23.8c0-0.2,0.4-0.3,0.2-0.4c-0.2,0-0.6,0.4-0.8,0.1C118.4,23.7,118.9,23.7,119,23.8z" /><path class="st1" d="M134.5,46.2l0.9,0.3l-0.5,0.4l0.5,0C135,46.9,136.5,45.6,134.5,46.2z" /><path class="st1" d="M113.2,28.7c-0.2-0.1-0.4-0.1-0.6,0C112.7,28.9,113,28.8,113.2,28.7z" /><path class="st1" d="M113.2,28.7C113.2,28.7,113.2,28.7,113.2,28.7C113.3,28.7,113.2,28.7,113.2,28.7z" /><path class="st1" d="M135.2,36.4l-0.4-0.3c0.3-0.1,0.5-0.3,0.6-0.5c-0.3,0.2-1,0.3-0.6,0.6l-0.8-0.2C134,36.5,135,36.1,135.2,36.4z
		" /><path class="st1" d="M135.6,35.5c-0.1,0-0.1,0.1-0.2,0.1C135.5,35.6,135.6,35.5,135.6,35.5z" /><path class="st1" d="M112.3,29.7c0.2-0.2,1.3,0.4,1.8-0.1l-0.9-0.3C113.3,29.6,112.6,29.5,112.3,29.7z" /><path class="st1" d="M101.9,38.3c-1.3,0.1-0.9,0.1-2.2,0.1c0.2,0.2,0,0.3-0.5,0.4c0.7,0.2,1.6,0,1.9,0.2l-0.2-0.3l0.6,0.1
		C101.1,38.6,101.7,38.4,101.9,38.3z" /><path class="st1" d="M109.7,32.5c-0.1,0.1,0,0.1,0,0.1C109.7,32.5,109.7,32.5,109.7,32.5z" /><path class="st1" d="M109.8,32.7l0.3,0c-0.1-0.1-0.3-0.1-0.4-0.1C109.7,32.6,109.7,32.7,109.8,32.7z" /><path class="st1" d="M127.6,20.3l0,0.4C127.9,20.5,128.1,20.5,127.6,20.3z" /><path class="st1" d="M123.7,47.8c-0.4,0-1.1-0.1-1,0.2C122.8,47.9,123.2,47.8,123.7,47.8z" /><path class="st1" d="M124,47.7c-0.1,0-0.2,0-0.3,0C123.9,47.8,124,47.8,124,47.7z" /><path class="st1" d="M129,20.9c0-0.2-0.1-0.3,0.1-0.3l-0.8,0.1C128.8,20.6,129,20.8,129,20.9z" /><path class="st1" d="M131.6,20.5l-0.2-0.1c0.5-0.2,1.1-0.3,1.4,0l0.1-0.4c-0.3-0.2-1.1,0.3-0.9-0.1c-1-0.1-1.8,0.4-2.6,0.5l0.1,0.4
		C130.5,20.6,130.3,20.8,131.6,20.5z" /><path class="st1" d="M151,17.6c-0.2,0-0.3-0.1-0.5-0.1C150.6,17.6,150.9,17.6,151,17.6z" /><path class="st1" d="M148.1,17.9c0.5,0.2,0.9-0.1,1.3,0.2l1-0.6c-0.6-0.1-1.3-0.3-1.6-0.5c0.8,0.1,1.1-0.2,1.6-0.4
		c-0.4,0-0.6,0.4-1.1,0.1l0.1-0.1l-1.1-0.2c0.1,0.1,0.3,0.2,0.3,0.3c-0.6-0.1-0.6,0.4-0.9,0.4c0.7,0,0.7,0.1,1.3,0.3
		C148.5,17.3,149.1,17.9,148.1,17.9z" /><path class="st1" d="M150.5,17.4L150.5,17.4C150.5,17.5,150.5,17.5,150.5,17.4C150.5,17.5,150.5,17.5,150.5,17.4z" /><path class="st1" d="M131.2,19.5l0.6-0.1C131.6,19.3,131.3,19.1,131.2,19.5z" /><path class="st1" d="M132,19.1c0,0-0.1,0-0.1,0C131.9,19.1,131.9,19.1,132,19.1z" /><path class="st1" d="M132,19.4l-0.2,0C131.9,19.4,131.9,19.4,132,19.4z" /><path class="st1" d="M132,19.1c0.1,0,0.1,0.1,0.1,0.2c0,0,0,0,0,0C132.1,19.2,132.1,19.2,132,19.1z" /><path class="st1" d="M132.1,19.3C132.1,19.3,132,19.3,132.1,19.3L132.1,19.3C132.1,19.3,132.1,19.3,132.1,19.3z" /><path class="st1" d="M120.3,27.4l-0.2,0.3c0.1,0.1,0.2,0.1,0.4,0.1l0-0.2C120.4,27.5,120.4,27.5,120.3,27.4z" /><path class="st1" d="M108,35.9l0.2,0.4l0.1-0.5C108.1,35.8,108,35.8,108,35.9z" /><path class="st1" d="M108.4,35.6l0.2,0c0,0,0,0,0,0L108.4,35.6z" /><path class="st1" d="M108.9,36c0.1,0.3,0.4,0.2,0.8,0.1c0-0.3-0.8-0.2-0.5-0.5l-0.6,0c0.1,0.1-0.1,0.2-0.3,0.2l-0.1,0.5l0.1,0.1
		C108.5,36.3,108.1,35.8,108.9,36z" /><path class="st1" d="M134.4,18.6c0.1,0,0.1,0,0.3,0L134.4,18.6z" /><path class="st1" d="M134.3,18.3l-0.4,0.2l0.5,0.1C134.2,18.5,134.4,18.3,134.3,18.3z" /><path class="st1" d="M108,37.2l0-0.1C107.9,37.2,107.9,37.2,108,37.2z" /><path class="st1" d="M109.1,37.8c0.2-0.4-0.5-0.5-1-0.7c0,0,0,0,0,0l0,0.1c0.1,0,0.2,0,0.2,0.2c-0.1,0-0.2,0-0.2,0l-0.1,0.3
		C108.4,37.7,108.8,37.7,109.1,37.8z" /><polygon class="st1" points="120.4,28.4 120,28.7 120.6,28.5 	" /><path class="st1" d="M138.9,18c-0.2-0.3,0.8-0.2,0.1-0.3C138.7,17.8,138.5,18,138.9,18z" /><polygon class="st1" points="143.8,18.8 144.6,18.5 143.6,18.5 	" /><path class="st1" d="M146.3,17.5c-0.6,0-0.1-0.2-0.7-0.1C145.8,17.4,146.1,17.7,146.3,17.5z" /><path class="st1" d="M140.5,17.4c-0.1-0.1-0.4-0.1-0.6-0.1C140.2,17.3,139.9,17.6,140.5,17.4z" /><path class="st1" d="M139.8,17.3c0,0,0.1,0,0.2,0C139.9,17.3,139.8,17.3,139.8,17.3z" /><path class="st1" d="M103.3,42.6c0.4,0,0.9-0.1,1.3-0.1l-1-0.4C103.8,42.2,103.6,42.5,103.3,42.6z" /><path class="st1" d="M103.2,42.6C103.2,42.6,103.2,42.6,103.2,42.6c0,0-0.1,0-0.2-0.1L103.2,42.6z" /><path class="st1" d="M133.1,23.8c0.1,0.1,0.6,0.2,0.6,0c-0.1-0.3-1,0-1.2-0.3l0.9-0.1c-0.1-0.3-0.2-0.3-0.7-0.2l-0.1,0.3l-0.7-0.1
		c0.2,0,0.4,0.2,0.4,0.3c-0.3,0-0.5-0.2-0.8-0.2c-0.1,0.1-0.2,0.2-0.3,0.2l0,0.1C132,23.9,133.1,24,133.1,23.8z" /><path class="st1" d="M105,42.8c0.1,0.1,0.3,0.1,0.6,0l-0.2-0.4C105.2,42.5,105,42.7,105,42.8z" /><path class="st1" d="M108.1,43c-0.1-0.3-0.6-0.3-1.1-0.3l0,0.2C107.2,43,107.3,42.9,108.1,43z" /><path class="st1" d="M105,43.3l0.5-0.1l-1.4-0.3C103.9,43.3,104.7,43.2,105,43.3z" /><path class="st1" d="M110.2,39.3l0.7,0.1c0-0.2-1.1-0.6,0-0.7c0.2-0.1,0.4,0.1,0.6,0.1c-0.3,0.1-1,0.3-0.3,0.4l0-0.2l0.9-0.1
		c-0.1-0.3-1-0.3-1.4-0.4C109.8,38.8,111.1,39,110.2,39.3z" /><polygon class="st1" points="131.5,24.8 131.4,24.9 131.4,25 132,24.9 	" /><polygon class="st1" points="121.2,32.2 121.2,32.1 120.6,32.2 	" /><path class="st1" d="M111.1,40.5c-0.5-0.1-1-0.4-1.6-0.4l-0.5,0.5C109.6,40.8,110.4,40.6,111.1,40.5z" /><path class="st1" d="M111.9,40.3c-0.3,0-0.5,0.1-0.8,0.1C111.4,40.5,111.6,40.5,111.9,40.3z" /><path class="st1" d="M132.3,25.8c-0.2-0.4,0.6-0.2,1-0.3l-0.4,0.2l0.6-0.2c-0.8-0.5-1.4-0.3-2,0l0,0.1
		C131.8,25.5,132.2,25.7,132.3,25.8z" /><path class="st1" d="M112.6,38.9l0.1-0.3l-0.5,0C112.2,38.7,112.4,38.8,112.6,38.9z" /><path class="st1" d="M137.3,24.2L137.3,24.2C137.4,24.2,137.3,24.2,137.3,24.2z" /><path class="st1" d="M136.5,23.6c-0.5-0.1,0.2-0.1,0-0.3c-0.6,0-0.6,0.5-1.4,0.6l1.9,0c-0.2,0.2,0,0.2,0.2,0.3L137,24
		c0.2,0,0.4,0,0.6,0l-0.1-0.6C137.2,23.4,136.8,23.4,136.5,23.6z" /><path class="st1" d="M118.2,56.4c-0.1,0-0.7-0.1-0.8,0.2l0.5,0.2L118.2,56.4z" /><path class="st1" d="M118.2,56.3L118.2,56.3C118.2,56.4,118.2,56.3,118.2,56.3z" /><polygon class="st1" points="121,34.2 120.7,34.2 120.5,34.5 	" /><polygon class="st1" points="135,25.3 135,25.3 134.3,25.1 	" /><path class="st1" d="M133.2,26c0.2,0.2-0.3,0.2-0.6,0.4c0.3,0,0.6,0.1,0.9,0.3c0.2-0.1-0.1-0.3,0.3-0.3
		C134.2,26.3,133.7,26,133.2,26z" /><polygon class="st1" points="115.9,38.3 116,38.6 117,38.5 	" /><path class="st1" d="M118.2,59l0.1-0.3c0.2,0.3,1,0.4,1.4,0.4c0.4-0.2,0.1-0.4,0-0.6c-0.3,0.1-0.3,0.2-0.2,0.3
		c-0.7,0.2-0.4-0.3-0.9-0.3c-1,0.4-2.1,0.4-3.1,0.6C116.4,59.2,117.2,58.7,118.2,59z" /><polygon class="st1" points="145.3,18.9 145.7,18.8 144.8,18.8 	" /><path class="st1" d="M142.6,18.6c0.2,0.2,0.8,0.3,0.9,0.3C143.6,18.6,143,18.6,142.6,18.6z" /><path class="st1" d="M111.3,42.7c0.1,0,0.4,0,0.5,0l0-0.2C111.5,42.4,111.6,42.5,111.3,42.7z" /><polygon class="st1" points="148.2,52.8 147.4,52.9 148,53 	" /><polygon class="st1" points="143.2,19.6 143.4,19.3 143.1,19.4 	" /><path class="st1" d="M121.7,37.1c-0.7-0.3-0.3,0.3-1,0.4C121.6,37.5,121.1,37.2,121.7,37.1z" /><path class="st1" d="M141.4,45.2c-0.5-0.2-0.3,0.1-0.6,0.2C141.1,45.5,141.3,45.3,141.4,45.2z" /><path class="st1" d="M146.9,31.7c0.7-0.3-0.8-0.3-0.6-0.4c-0.3-0.1-1.2,0.3-1.1-0.1c-0.8,0.1-0.5,0.3-1,0.5
		C144.2,31.9,146.1,31.8,146.9,31.7z" /><path class="st1" d="M140.7,45.8c0.1,0.2-0.4,0.1-0.7,0.2l0.4,0.2C140.5,45.9,141.2,46,140.7,45.8z" /><polygon class="st1" points="119.8,38.8 120.6,38.8 119.9,38.6 	" /><path class="st1" d="M145.6,43.2c0.3-0.2,0.6,0,0.8-0.3c0.2-0.3-0.3-0.2-0.6-0.2l0.4,0.2C145.9,43,145.7,43.2,145.6,43.2z" /><path class="st1" d="M145.8,42.7l-0.3-0.2C145.5,42.7,145.6,42.7,145.8,42.7z" /><polygon class="st1" points="147.9,20.8 147.3,20.8 147.3,20.9 	" /><path class="st1" d="M147.3,20.9L147.3,20.9C147.4,20.9,147.4,20.9,147.3,20.9L147.3,20.9z" /><path class="st1" d="M132.7,31.7C132.7,31.7,132.7,31.7,132.7,31.7c0.1,0,0.1,0,0.1,0C132.8,31.6,132.8,31.7,132.7,31.7z" /><path class="st1" d="M132.9,31.6c0.3,0,0.5,0.1,0.8,0.2l-0.7-0.6c0.4-0.1,0.7-0.3,0.9-0.4l-1.6-0.1l0.1,0.5
		c0.2,0.1,0.5,0.2,0.7,0.1C133.1,31.5,133.1,31.6,132.9,31.6z" /><path class="st1" d="M133.2,32.2c-0.3,0-0.5-0.1-0.4,0.2l0.5-0.2c0.2-0.4-1.3,0-0.9-0.5c0.1,0,0.2,0,0.2,0c0-0.2-0.2-0.2-0.4-0.1
		l0,0.2c0,0,0,0,0,0l0,0l0,0.2C132.8,32,133.3,32,133.2,32.2z" /><path class="st1" d="M143.8,45.2c0.2-0.3-0.4-0.1-0.7-0.1C143.1,45.2,143.6,45,143.8,45.2z" /><path class="st1" d="M144.6,45.3c-0.1-0.1-0.1-0.1-0.1-0.2C144.4,45.2,144.4,45.2,144.6,45.3z" /><path class="st1" d="M145,44.7c-0.7,0.2-0.7,0.2-0.6,0.4C144.4,44.9,145.3,44.8,145,44.7z" /><path class="st1" d="M118.5,41.2c0.1,0.4,1,0.1,1.2,0.1C119.7,40.9,118.9,41.1,118.5,41.2z" /><path class="st1" d="M148.1,42.8l-0.5,0.1l0.8,0.3c0.4-0.2-0.1-0.5,1-0.8c-0.5-0.1-1.3,0.1-1.8,0.2C148,42.5,148.2,42.7,148.1,42.8
		z" /><polygon class="st1" points="136.6,28.2 136.5,28.3 137.3,28.5 	" /><polygon class="st1" points="149,20.9 149.2,20.9 148.9,20.6 	" /><polygon class="st1" points="143.8,46.1 143.8,46.1 143.7,46.1 	" /><polygon class="st1" points="143.2,46.2 143.7,46.1 143.3,45.9 	" /><path class="st1" d="M134.5,31l-0.6,0c0.4,0.2-0.2,0.1,0.3,0.3c0-0.1,0.1-0.2,0.2-0.2c1.6,0.3-0.8,0.6,0.9,0.7l0.3-0.3
		c-0.2-0.1-0.5,0-0.5-0.2c0.7,0.1,1.5-0.5,2.2-0.2c-0.4-0.2,0.5-0.5-0.3-0.5l0.2,0.2c-0.4-0.7-2.2,0.2-2.8-0.3
		C134.2,30.8,134.5,30.9,134.5,31z" /><path class="st1" d="M144.9,45.2l0.5-0.1c-0.2-0.2,0.5-0.3-0.1-0.4C145.7,45,145,45,144.9,45.2z" /><path class="st1" d="M137.8,39.2c0.2-0.3-0.4-0.2-0.6-0.4l0.5,0.4l-0.5,0c0.7,0.4,1.7,0.1,2.7,0l-0.1-0.5l0,0
		C139.3,38.9,138.6,38.9,137.8,39.2z" /><polygon class="st1" points="144.5,28.9 143.9,28.8 144.3,29 	" /><path class="st1" d="M149.9,20.9l0.3,0l-0.1-0.2c0,0,0,0.1,0,0.1L149.9,20.9z" /><path class="st1" d="M150,20.6l0.1,0.1C150.1,20.7,150.1,20.7,150,20.6z" /><polygon class="st1" points="137.6,29.3 137.4,29.2 137.1,29.5 	" /><path class="st1" d="M148.1,43.7c0.1,0.1,0.1,0.2,0.2,0.3C148.1,43.8,148.8,43.7,148.1,43.7z" /><path class="st1" d="M148.5,44.1c-0.1,0-0.1-0.1-0.2-0.1C148.3,44,148.4,44,148.5,44.1z" /><path class="st1" d="M135.3,55.7c-0.3-0.3-1.2,0.2-1.8,0.2C134.1,56,134.9,56,135.3,55.7z" /><path class="st1" d="M149.8,21.6c0.2,0.3,1,0.1,1.5,0.1C150.7,21.7,150.6,21.4,149.8,21.6z" /><path class="st1" d="M145.2,18.3l0.4-0.2c-0.6,0.2-0.4-0.2-0.5-0.3c0.2-0.1,0.3,0,0.5,0.1c-0.2-0.3-1.7-0.2-2.1-0.5
		c0.1,0.1-0.2,0.2-0.3,0.3C143.5,18,145.2,17.7,145.2,18.3z" /><polygon class="st1" points="119.8,43.4 119.5,43.7 119.9,43.8 	" /><path class="st1" d="M136.7,32c-0.4,0.2-0.1,0.3,0.1,0.3c0.1,0.4-0.8,0.3-1.2,0.5c0.6,0.5,0.8-0.4,1.5-0.3
		C136.7,32,137.2,32.6,136.7,32z" /><path class="st1" d="M105.9,60.3l-0.8-0.2c0.1,0.5-0.9,0.2-1.1,0.2C104.6,60.4,105.4,60.7,105.9,60.3z" /><path class="st1" d="M138.2,31.8c0.3-0.2-0.1-0.1-0.3-0.1C137.9,31.7,137.8,31.8,138.2,31.8z" /><path class="st1" d="M137.9,31.6c0,0,0-0.1-0.1-0.1C137.8,31.6,137.8,31.6,137.9,31.6z" /><path class="st1" d="M138.7,32.1l-0.2-0.3c0.1,0.1-0.1,0.2-0.2,0.2L138.7,32.1z" /><path class="st1" d="M144.2,29.5c-0.3,0-1-0.2-1.6,0.1C143.1,29.6,144,29.5,144.2,29.5z" /><path class="st1" d="M139.7,32.6l0.1,0.4c0.8-0.4,2.2,0.1,2-0.6c-0.6-0.1-1.2,0.1-1.9,0.2l0.2-0.3l-0.7,0c0.1,0.2-0.1,0.5-0.6,0.3
		C138.8,32.8,139.4,32.6,139.7,32.6z" /><polygon class="st1" points="108.1,59.6 108.1,59.6 108.1,59.6 	" /><path class="st1" d="M108,59.1c-0.2,0.1-0.5,0.1-0.6,0.1c0.3,0.1,0.6,0.1,0.8,0.3l0.4-0.1C108.5,59.3,108.4,59.1,108,59.1z" /><path class="st1" d="M107.2,59.8l0.9-0.3c-0.8,0.2-1.2-0.4-2.1,0l0.6,0C106.3,59.7,106.8,59.8,107.2,59.8z" /><path class="st1" d="M147,29.2l0-0.2c0,0,0,0,0.1,0c-0.1,0.1-0.3,0.1-0.4,0.1L147,29.2z" /><path class="st1" d="M147.1,29c0,0,0.1,0,0.1,0C147.2,28.9,147.1,28.9,147.1,29z" /><path class="st1" d="M147.3,29.4c0.4,0,1.5-0.2,1.1-0.5l-0.7-0.1l0.3-0.1c-0.1-0.1-0.3,0.1-0.7,0.3c0.2,0,0.4,0.2,0.7,0.2
		C147.5,29.3,147.4,29.1,147.3,29.4z" /><path class="st1" d="M114.3,60.1l-0.2,0.1c0,0,0,0,0,0l-0.1,0l0.1,0c-0.2,0.1,0.1,0.1,0.2,0.1c0.3,0.1,0.1-0.9,1.1-0.6l0.1,0.1
		l0.3-0.2c-0.6,0.1-1.2-0.2-1.8,0.2C114.6,59.7,113.9,60,114.3,60.1z" /><path class="st1" d="M114.1,60.2C114.1,60.2,114.1,60.2,114.1,60.2L114.1,60.2L114.1,60.2z" /><path class="st1" d="M122.1,46.7c-0.2,0.1-0.6,0.1-0.7,0.2C121.7,46.8,122.1,47,122.1,46.7z" /><polygon class="st1" points="141.9,52.8 141.9,52.8 141.9,52.8 	" /><polygon class="st1" points="142.4,53.1 141.9,52.8 141.9,52.8 141.9,53 	" /><path class="st1" d="M153,44.9C153,44.9,153,44.9,153,44.9C153.1,44.9,153,44.9,153,44.9z" /><path class="st1" d="M150.9,44.1c-0.1,0.2-0.4,0.4,0,0.5c0.7,0,1.1-0.2,1.7,0.1c-0.2-0.2-0.4-0.4,0.3-0.3c-0.2-0.1,0.7,0,0.7,0.1
		c-0.4,0.2-0.1,0-0.5,0c0,0.2,0.9,0.1,1,0.4c0.5-0.1,0.1-0.5-0.3-0.5l0.5-0.1c-0.7-0.1-1.5-0.3-2.1-0.5c0.3,0.2-0.4,0.1-0.7,0.2
		l-0.1-0.4c-0.2,0.1-0.6,0.1-0.8-0.1c0,0.2,0.3,0.7-0.4,0.6C150.5,44.3,150.4,43.9,150.9,44.1z" /><path class="st1" d="M152.7,44.7c0.1,0.1,0.2,0.1,0.3,0.2C152.9,44.8,152.8,44.8,152.7,44.7z" /><path class="st1" d="M110,58.9c-0.1,0-0.2,0-0.3,0C109.8,58.9,109.9,58.9,110,58.9z" /><path class="st1" d="M110,58.9c0.1,0,0.2,0,0.3,0C110.3,58.9,110.2,58.9,110,58.9z" /><path class="st1" d="M108.9,59c0.3,0.2,0.4,0,0.8,0c-0.1,0-0.2,0-0.2-0.1c0-0.2,0.8,0,0.4-0.4l-1,0C108.6,58.7,109.4,58.8,108.9,59
		z" /><path class="st1" d="M157.4,51.9c0.4,0,0.3-0.2,0.3-0.3C157.5,51.7,156.9,51.7,157.4,51.9z" /><path class="st1" d="M157.8,51.7c0.1,0,0.1,0,0.2,0C157.8,51.6,157.8,51.6,157.8,51.7z" /><path class="st1" d="M141.8,46.2l-0.7-0.1c0.2,0.1-0.1,0.2-0.2,0.2c0.3,0.5,1.5,0.2,2.1-0.1c-0.5-0.1-0.9-0.4-1.3-0.3
		C142.4,46,141.7,46,141.8,46.2z" /><path class="st1" d="M157.6,53.5c0.2,0.1,0.3,0,0.4-0.1l-0.6-0.1C157.2,53.3,157.6,53.4,157.6,53.5z" /><path class="st1" d="M133.8,39.7c-0.1,0-0.1,0.1-0.2,0.1l0,0.1C133.8,39.8,133.9,39.7,133.8,39.7z" /><path class="st1" d="M147.1,30.8c-0.2,0-0.6-0.5-0.9,0l0.4,0.2C146.7,30.8,147,30.9,147.1,30.8z" /><path class="st1" d="M134.9,38.8c-0.1,0-0.1-0.1-0.1-0.2C134.8,38.7,134.8,38.7,134.9,38.8z" /><path class="st1" d="M134.9,38.8c0.2,0.1,0.4,0.1,0.4,0.2C135.9,38.8,135.2,38.9,134.9,38.8z" /><path class="st1" d="M134.6,39.5l0.6,0.8l0.1-0.2C135.3,40.1,135.6,39.3,134.6,39.5z" /><path class="st1" d="M142.3,55.3l-0.9,0.1c0.3,0,0.6,0,0.9,0.2C142.2,55.5,142.3,55.4,142.3,55.3z" /><polygon class="st1" points="142.3,55.3 142.3,55.3 142.3,55.3 	" /><path class="st1" d="M142.8,54.9l0,0.5c0.7-0.1-0.5-0.4,0.4-0.4c-0.4-0.2-0.9,0.1-1.2-0.2l0.2,0.5
		C142.3,55.1,142.5,54.9,142.8,54.9z" /><path class="st1" d="M147,55.1l-0.3-0.2l0,0.1c-0.7,0-0.2-0.3-0.6-0.4c0.4,0.1,1.2,0.2,1.6,0.1c0.7,0,0,0.4,0.7,0.4
		c0.1-0.3-0.4-0.6-0.4-0.6c0,0.1,0.1,0.1-0.1,0.1l-2.1-0.2c-0.4,0.2,0.1,0.5,0.3,0.6c-0.6,0-1.2,0.1-1.7,0.3
		C145.7,55.7,146.2,54.7,147,55.1z" /><path class="st1" d="M134.4,40.4c-0.1,0-0.2,0.1-0.2,0.2c0.1,0,0.3,0.1,0.5,0L134.4,40.4z" /><polygon class="st1" points="147.6,31.2 147.8,31.3 147.3,31 	" /><path class="st1" d="M153,39.5c0.2,0.1,0.2,0.4,0.5,0.2c0.2-0.3-0.7-0.2-0.3-0.5c0.2-0.1,0.4-0.2,0.6-0.1c-0.1-0.4-1.1,0-1.4-0.2
		l0.3-0.2C151.6,39,152.7,39.2,153,39.5z" /><path class="st1" d="M136.9,55.2c-0.8,0.1-0.1-0.7-1.1-0.3C136.3,54.6,136.2,55.3,136.9,55.2z" /><path class="st1" d="M136.8,41.3c-0.8,0-0.9,0.6,0.2,0.5c0.2-0.1,1.3-0.1,1.7-0.3c-0.4-0.2-0.2-0.6-1.1-0.5
		c0.3,0.1,0.5,0.1,0.4,0.2C137.6,41.5,136.7,41.7,136.8,41.3z" /><path class="st1" d="M139.5,40l0,0.3c-0.4,0-0.8,0.2-1,0.1L139,41l-0.5,0L139,41l0-0.3l1-0.2L140,40C139.9,40,139.7,40,139.5,40z" /><path class="st1" d="M138.5,40.4l-0.1-0.1C138.4,40.4,138.4,40.4,138.5,40.4z" /><polygon class="st1" points="150.8,55 150.7,55.2 151.2,54.9 	" /><path class="st1" d="M73.3,64.3l-0.3,0l0.8,0.5l-0.2,0c0.2,0,2.3-0.3,3,0.1l0-0.1l1,0.1c-0.3-0.2,0.1-0.3-0.1-0.6
		c0.3,0.2,0.8,0.4,1.2,0.4c-0.1-0.2-0.8-0.4-0.3-0.5c-1-0.2-1.2,0-2.6,0c0.2,0,0.2,0.1,0.2,0.1c-1.4,0-1.5-0.7-3.1-0.3
		C72.9,64.3,73.8,64.1,73.3,64.3z" /><path class="st1" d="M161.4,51.3c0,0,0.1-0.1,0.1-0.1C161.4,51.2,161.3,51.3,161.4,51.3z" /><path class="st1" d="M162.8,50.9c0.2,0.2,0,0.2-0.2,0.4c0.9,0.1,1.9-0.6,2.6-0.7c0.1-0.1-0.3-0.2-0.4-0.2l0.2,0.1
		c-0.7,0.3-1.8,0.3-2.3,0.1c0.2,0.1-0.9,0.2-1.3,0.5C161.8,51.1,162.5,51,162.8,50.9z" /><path class="st1" d="M150.6,54.2c-0.4-0.3-1.3-0.3-1.6,0.1C149.6,54.3,150.1,54.6,150.6,54.2z" /><polygon class="st1" points="150.2,38.2 150.2,38.5 150.3,38.1 	" /><path class="st1" d="M155,37.8l0-0.2c-0.1,0-0.3,0-0.4,0.1C154.7,37.8,154.8,37.8,155,37.8z" /><path class="st1" d="M153.6,37.9c-0.1-0.5,0.2-0.1,0.6-0.4c0.1,0,0.2,0.1,0.3,0.2c0.2-0.3-0.6-0.3-1-0.4l-0.4,0.1
		C153.2,37.6,152.9,37.7,153.6,37.9z" /><path class="st1" d="M154.5,37.6C154.5,37.7,154.5,37.7,154.5,37.6C154.5,37.7,154.5,37.7,154.5,37.6
		C154.6,37.7,154.5,37.7,154.5,37.6z" /><path class="st1" d="M152.5,39.8L152.5,39.8C152.5,39.9,152.5,39.9,152.5,39.8z" /><path class="st1" d="M151.2,40.1l1.2-0.3c-0.2-0.2-1.1-0.8-1.8-0.3l0.2,0C151,39.7,150.5,40.1,151.2,40.1z" /><path class="st1" d="M156.1,52.6l-0.7-0.3c-0.3,0.2,0,0.3,0.1,0.5C155.7,52.6,155.9,52.6,156.1,52.6z" /><path class="st1" d="M154.2,39c0.4,0.1,0.5,0,0.9-0.1l0-0.1l-0.7-0.2C154.5,38.7,154.5,38.8,154.2,39z" /></g></svg>