<?xml version="1.0" encoding="utf-8"?>
<!-- Generator: Adobe Illustrator 20.0.0, SVG Export Plug-In . SVG Version: 6.00 Build 0)  -->
<!DOCTYPE svg PUBLIC "-//W3C//DTD SVG 1.1//EN" "http://www.w3.org/Graphics/SVG/1.1/DTD/svg11.dtd">
<svg version="1.1" id="Layer_1" xmlns="http://www.w3.org/2000/svg" xmlns:xlink="http://www.w3.org/1999/xlink" x="0px" y="0px"
	 viewBox="0 0 292.5 292.3" enable-background="new 0 0 292.5 292.3" xml:space="preserve" width="292.5" height="292.3" preserveAspectRatio="none">
<polygon fill="#D4995D" points="5.5,261.8 26,187.8 55.4,168.6 81.5,261.4 "/>
<polygon fill="#B16533" points="55.4,168.6 50,201.4 41.5,194.7 33,231.7 22.4,220.1 5.5,261.8 52.1,261.4 73.8,222.3 "/>
<polygon fill="#D4995D" points="271.9,197.2 259.4,201.3 246.7,85.3 194.7,40.6 163.1,65 131.1,141.8 89.8,132.7 89.6,133.4 
	60.1,223.2 37.8,261 283.5,261.6 "/>
<ellipse transform="matrix(1.906741e-02 -0.9998 0.9998 1.906741e-02 82.0884 267.3193)" fill="#B16533" cx="177.3" cy="91.8" rx="3.6" ry="2.8"/>
<ellipse transform="matrix(1.906741e-02 -0.9998 0.9998 1.906741e-02 61.1847 257.9059)" fill="#B16533" cx="162" cy="97.8" rx="5.3" ry="4.1"/>
<ellipse transform="matrix(1.906746e-02 -0.9998 0.9998 1.906746e-02 67.094 292.6925)" fill="#B16533" cx="182.7" cy="112.2" rx="1.7" ry="1.5"/>
<polygon fill="#B16533" points="267.5,205.9 260.4,209.6 246.7,85.3 218.9,146.9 190.5,129.9 158.7,147.9 124.1,220.9 118.4,171.5 
	87.6,208.8 74.7,197 59.8,240 37.8,261 283.5,261.6 "/>
<polygon fill="#D4995D" points="147.9,261.2 164.9,210 176.2,218.6 187.1,170.9 228.2,152 246.4,234.5 254.8,229.8 266.7,261.4 "/>
<polygon fill="#B16533" points="147.9,261.2 160.4,244 167.6,252.5 165.4,217.7 190.6,229.3 205.2,191.3 217.9,182.5 222.9,209 
	228.1,175.7 238.9,246.2 246.3,238 253.6,236.7 266.7,261.4 "/>
<path fill="#B16533" d="M187.7,209c-0.2-1.2,0.2-2.9,1-3.7c0.8-0.8,1.6-0.4,1.8,0.8c0.2,1.2-0.2,2.9-1,3.7
	C188.7,210.6,187.9,210.2,187.7,209z"/>
<path fill="#B16533" d="M194,196.7c-0.3-1.8,0.3-4.3,1.5-5.5c1.2-1.2,2.4-0.7,2.7,1.2c0.3,1.9-0.3,4.3-1.5,5.5
	C195.6,199.1,194.4,198.5,194,196.7z"/>
<path fill="#B16533" d="M184.1,200.4c-0.2-0.7-0.1-1.8,0.3-2.4c0.4-0.6,0.9-0.4,1.2,0.4c0.2,0.7,0.1,1.8-0.3,2.4
	C184.9,201.3,184.4,201.1,184.1,200.4z"/>
<ellipse fill="#B16533" cx="31.8" cy="195.4" rx="2.7" ry="3.8"/>
<ellipse fill="#B16533" cx="29.2" cy="216.1" rx="1.8" ry="2.9"/>
</svg>
