<?xml version="1.0" encoding="utf-8"?>
<!-- Generator: Adobe Illustrator 21.0.0, SVG Export Plug-In . SVG Version: 6.00 Build 0)  -->
<!DOCTYPE svg PUBLIC "-//W3C//DTD SVG 1.1//EN" "http://www.w3.org/Graphics/SVG/1.1/DTD/svg11.dtd">
<svg version="1.1" id="Layer_1" xmlns="http://www.w3.org/2000/svg" xmlns:xlink="http://www.w3.org/1999/xlink" x="0px" y="0px"
	 viewBox="0 0 40 40" style="enable-background:new 0 0 40 40;" xml:space="preserve" width="40" height="40" preserveAspectRatio="none">
<style type="text/css">
	.st0{fill:#E8D500;}
</style>
<g>
	<path d="M18,28.6c-5.7,0.1-12-4.1-12.2-10.2C5.6,12,12.3,5.2,24.6,6.7c8.3,1,13.2,6.6,14.6,13.3c0,0-2.8-10-14.3-11.5
		C16.7,7.5,10.7,12,11,18.7c0.2,3.6,3,7,7.3,7.3c3.3,0.2,6.8-1.6,7-4.4c0.2-2.6-1.4-5-4-4.6c-2.2,0.3-2.7,2.7-1.4,3.5
		c-1.8-0.6-1.6-3.6,1.2-4c4-0.6,5.8,2.7,5.7,5.2C26.5,25.5,23.1,28.5,18,28.6z"/>
	<path d="M22,11.4c5.7-0.1,12,4.1,12.2,10.2c0.2,6.5-6.5,13.3-18.8,11.8C7.2,32.3,2.3,26.7,0.8,20c0,0,2.8,10,14.3,11.5
		C23.3,32.5,29.3,28,29,21.3c-0.2-3.6-3-7-7.3-7.3c-3.3-0.2-6.8,1.6-7,4.4c-0.2,2.6,1.4,5,4,4.6c2.2-0.3,2.7-2.7,1.4-3.5
		c1.8,0.6,1.6,3.6-1.2,4c-4,0.6-5.8-2.7-5.7-5.2C13.5,14.5,16.9,11.5,22,11.4z"/>
</g>
</svg>
