<?xml version="1.0" encoding="UTF-8" standalone="no"?>
<!-- Generator: Adobe Illustrator 22.1.0, SVG Export Plug-In . SVG Version: 6.00 Build 0)  -->

<svg
   xmlns:dc="http://purl.org/dc/elements/1.1/"
   xmlns:cc="http://creativecommons.org/ns#"
   xmlns:rdf="http://www.w3.org/1999/02/22-rdf-syntax-ns#"
   xmlns:svg="http://www.w3.org/2000/svg"
   xmlns="http://www.w3.org/2000/svg"
   xmlns:sodipodi="http://sodipodi.sourceforge.net/DTD/sodipodi-0.dtd"
   xmlns:inkscape="http://www.inkscape.org/namespaces/inkscape"
   version="1.1"
   x="0px"
   y="0px"
   viewBox="0 0 229 229"
   xml:space="preserve"
   width="229"
   height="229"
   preserveAspectRatio="none"
   id="svg54"
   sodipodi:docname="taxi.svg"
   inkscape:version="0.92.2 5c3e80d, 2017-08-06"><metadata
     id="metadata60"><rdf:RDF><cc:Work
         rdf:about=""><dc:format>image/svg+xml</dc:format><dc:type
           rdf:resource="http://purl.org/dc/dcmitype/StillImage" /><dc:title></dc:title></cc:Work></rdf:RDF></metadata><defs
     id="defs58" /><sodipodi:namedview
     pagecolor="#ffffff"
     bordercolor="#666666"
     borderopacity="1"
     objecttolerance="10"
     gridtolerance="10"
     guidetolerance="10"
     inkscape:pageopacity="0"
     inkscape:pageshadow="2"
     inkscape:window-width="1527"
     inkscape:window-height="845"
     id="namedview56"
     showgrid="false"
     inkscape:zoom="1.2576419"
     inkscape:cx="114.5"
     inkscape:cy="81"
     inkscape:window-x="0"
     inkscape:window-y="0"
     inkscape:window-maximized="0"
     inkscape:current-layer="svg54" /><style
     type="text/css"
     id="style2">
	.st0{fill:#A32B9F;}
	.st1{fill:#006837;}
	.st2{fill:#008C4A;}
	.st3{fill:#8CC63F;}
	.st4{fill:#B54D4D;}
	.st5{fill:#DE5F5F;stroke:#FF948A;stroke-width:1.5;stroke-miterlimit:10;}
	.st6{fill:#FF948A;}
	.st7{fill:#FFFFFF;}
	.st8{fill:#3760B3;stroke:#FFFFFF;stroke-width:0.5;stroke-miterlimit:10;}
	.st9{fill:#ED914B;}
	.st10{fill:#FFAF4F;stroke:#FFC87A;stroke-width:1.5;stroke-miterlimit:10;}
	.st11{fill:#FFC87A;}
	.st12{fill:#284F8F;}
	.st13{fill:#664BED;}
	.st14{fill:#7960F7;}
	.st15{fill:#25CF25;stroke:#157515;stroke-width:0.5;stroke-miterlimit:10;}
	.st16{fill:#BC94FF;}
	.st17{fill:#25CF25;}
	.st18{fill:#4A2EFF;stroke:#FFFFFF;stroke-width:0.5;stroke-miterlimit:10;}
	.st19{fill:#E6D414;}
	.st20{fill:#FFEC59;}
	.st21{fill:#FFFE9E;}
	.st22{fill:#A0B8B6;}
	.st23{fill:#DEFFFC;}
	.st24{fill:#7C8F8D;}
	.st25{fill:#108BDE;}
	.st26{fill:#0071BC;}
	.st27{fill:#F2F2F2;}
	.st28{fill:#25221D;}
	.st29{fill:#FCEE21;}
	.st30{fill:#D9CD20;}
	.st31{fill:#6BD643;}
	.st32{fill:#39B54A;}
	.st33{fill:#FF6B6B;}
	.st34{fill:#FF0000;}
	.st35{fill:#662D91;}
	.st36{fill:#FBB03B;}
	.st37{fill:#F7931E;}
	.st38{fill:#A8CDE3;}
	.st39{fill:#DEDEDE;}
	.st40{fill:#0000FF;}
	.st41{fill:#4073FF;}
	.st42{fill:#C92F2F;}
	.st43{fill:#D96161;}
	.st44{fill:#009650;}
	.st45{fill:#26BD49;}
	.st46{fill:#1DC44D;}
	.st47{fill:#17A157;}
	.st48{fill:#22E65A;}
	.st49{fill:#FF82FF;}
	.st50{fill:#E05CE0;}
	.st51{fill:#FFA1FF;}
	.st52{fill:#F15A24;}
	.st53{fill:#F18C68;}
	.st54{fill:#CC2614;}
	.st55{fill:#56F1F7;}
	.st56{fill:#3EC7C7;}
	.st57{fill:#3FC6CC;}
	.st58{fill:#D6FFF6;}
	.st59{fill:none;stroke:#A0B8B6;stroke-width:3;stroke-linecap:round;stroke-miterlimit:10;}
	.st60{fill:none;stroke:#000000;stroke-width:4.8176;stroke-miterlimit:10;}
	.st61{fill:#E6E6E6;}
	.st62{fill:none;stroke:#808080;stroke-width:1.379;stroke-miterlimit:10;}
	.st63{fill:#D4145A;}
	.st64{fill:#FF7BAC;}
	.st65{fill:none;stroke:#FF7BAC;stroke-width:2.3437;stroke-miterlimit:10;}
	.st66{fill:#2480BC;}
	.st67{fill:#E3D50C;}
	.st68{fill:#008747;}
	.st69{fill:#A81919;}
	.st70{fill:#D45757;}
	.st71{fill:#009C52;}
	.st72{fill:#00C266;}
	.st73{fill:#FF9670;}
	.st74{fill:#EDDF13;}
	.st75{fill:#EDE79C;}
	.st76{fill:#A85414;}
	.st77{fill:#913D3D;}
	.st78{fill:#612929;}
	.st79{fill:#69D669;}
	.st80{fill:#D4BB1C;}
	.st81{fill:#FCF590;}
	.st82{fill:#4AB04A;}
	.st83{fill:#C2644C;}
	.st84{fill:#E87041;}
	.st85{fill:#A14F3F;}
	.st86{fill:#384A82;}
	.st87{fill:#4C68C2;}
	.st88{fill:#243054;}
	.st89{fill:none;}
	.st90{fill:#985EC4;}
	.st91{fill:#57B342;}
	.st92{fill:#77DB60;}
	.st93{fill:#4692E3;}
	.st94{fill:#7ABAFF;}
	.st95{fill:none;stroke:#4692E3;stroke-width:3.5969;stroke-miterlimit:10;}
	.st96{fill:none;stroke:#FFA6FF;stroke-miterlimit:10;}
	.st97{fill:none;stroke:#7DA6FF;stroke-width:0.5;stroke-miterlimit:10;}
	.st98{fill:#BDE7FF;}
	.st99{fill:#F8FFAD;}
	.st100{fill:#91C0C7;}
	.st101{fill:none;stroke:#B3B3B3;stroke-width:3;stroke-miterlimit:10;}
	.st102{fill:none;stroke:#6197A8;stroke-width:1.5;stroke-miterlimit:10;}
	.st103{fill:#B1E8F5;}
	.st104{fill:#CFB36E;}
	.st105{fill:none;stroke:#9E805D;stroke-width:1.5;stroke-miterlimit:10;}
	.st106{fill:#E8D190;}
	.st107{fill:none;stroke:#7288A1;stroke-width:1.4358;stroke-miterlimit:10;}
	.st108{fill:#C9E1FF;}
	.st109{fill:none;stroke:#B3B3B3;stroke-width:2.8278;stroke-miterlimit:10;}
	.st110{fill:#3295D9;}
	.st111{fill:none;stroke:#0061A1;stroke-width:1.4139;stroke-miterlimit:10;}
	.st112{fill:#56B4F0;}
	.st113{fill:#63C261;}
	.st114{fill:none;stroke:#2A8737;stroke-width:1.3456;stroke-miterlimit:10;}
	.st115{fill:#77E86F;}
	.st116{fill:#DE6868;}
	.st117{fill:none;stroke:#B54D4D;stroke-width:1.3666;stroke-miterlimit:10;}
	.st118{fill:#C9FFC2;}
	.st119{fill:none;stroke:#000000;stroke-miterlimit:10;}
	.st120{fill:none;stroke:#000000;stroke-width:0.7528;stroke-miterlimit:10;}
	.st121{fill:#FFD4D4;}
	.st122{fill:#82CAE0;}
	.st123{fill:#E3CAA6;}
	.st124{fill:#FFDE85;enable-background:new    ;}
	.st125{fill:#DE5454;}
	.st126{fill:#FF9999;}
	.st127{fill:#0062A3;}
	.st128{fill:#0081D6;}
	.st129{fill:#21A7FF;}
	.st130{fill:#00A35A;}
	.st131{fill:#008247;}
	.st132{fill:#00BA67;}
	.st133{fill:#00DB79;}
	.st134{fill:#787878;}
	.st135{fill:#9BADB8;}
	.st136{fill:#CCCCCC;}
	.st137{fill:none;stroke:#787878;stroke-width:0.25;stroke-miterlimit:10;}
	.st138{fill:#C6AD6D;}
	.st139{fill:#87714A;}
	.st140{fill:#FFE49E;}
	.st141{fill:#71CF89;}
	.st142{fill:#00A151;}
	.st143{fill:#3A3D38;}
	.st144{fill:#40CF88;}
	.st145{fill:#68A649;}
	.st146{fill:#98E3AB;}
	.st147{fill:#FFF08C;}
	.st148{fill:#FFDB3B;}
	.st149{fill:#FFF591;}
	.st150{fill:#FFFBCC;}
	.st151{fill:#B783DE;}
	.st152{fill:#A01FF0;}
	.st153{fill:#C261FF;}
	.st154{fill:#CA97F0;}
	.st155{fill:#25C495;}
	.st156{fill:#47DEB2;}
	.st157{fill:#1A8A68;}
	.st158{fill:#BDBDBD;}
	.st159{fill:#00AED9;}
	.st160{fill:#00CCFF;}
	.st161{fill:#0078A8;}
	.st162{fill:#525252;}
	.st163{fill:#0025A1;}
	.st164{fill:#0059FF;}
	.st165{fill:#6BA9FF;}
	.st166{fill:#707D85;}
	.st167{fill:#B8CCD9;}
	.st168{fill:#A67043;}
	.st169{fill:#D49C6C;}
	.st170{fill:#3C4347;}
	.st171{fill:#009245;}
	.st172{fill:#C1272D;}
	.st173{fill:#FFFBBD;}
	.st174{fill:#FF4D53;}
	.st175{fill:#FFA3C5;}
	.st176{fill:#333333;}
	.st177{fill:#D47B9B;}
	.st178{fill:#E8A2BC;}
	.st179{fill:#B35274;}
	.st180{fill:#FF8A40;}
	.st181{fill:#04C9C9;}
	.st182{fill:#5BFFFF;}
	.st183{fill:#912963;}
	.st184{fill:#C75092;}
	.st185{fill:#FAC1C1;}
	.st186{fill:#D98A8A;}
	.st187{fill:#FFC5DC;}
	.st188{fill:#DB9AB3;}
	.st189{fill:#8CEEFF;}
	.st190{fill:#F80041;}
	.st191{fill:#354652;}
	.st192{fill:#FFE063;}
	.st193{fill:#B08A44;}
	.st194{fill:#305996;}
	.st195{fill:#5C91E0;}
	.st196{fill:#E3EB86;}
	.st197{fill:none;stroke:#4D79BB;stroke-width:0.9372;stroke-miterlimit:10;}
	.st198{fill:#FFFCEC;}
	.st199{fill:#1B1464;}
	.st200{fill:#002444;}
</style><g
     id="Layer_2"
     transform="translate(0,67)" /><g
     id="Layer_1"
     transform="translate(0,4.1840282)"><g
       id="g51"><ellipse
         class="st7"
         cx="214"
         cy="102.6"
         rx="8.8000002"
         ry="8.3999996"
         id="ellipse5"
         style="fill:#ffffff" /><path
         class="st189"
         d="M 94.4,19.5 C 61.5,26.1 56.6,77.7 55.4,85 78.6,83.5 148.9,82 173.6,84 168.4,55.4 142.2,9.9 94.4,19.5 Z"
         id="path7"
         inkscape:connector-curvature="0"
         style="fill:#8ceeff" /><path
         class="st190"
         d="m 27.9,108.3 -11,-1.2 c -2.2,-0.2 -3.7,-2.2 -3.5,-4.4 L 14,97.5 c 0.2,-2.2 2.2,-3.7 4.4,-3.5 l 11,1.2 c 2.2,0.2 3.7,2.2 3.5,4.4 l -0.6,5.2 c -0.3,2.1 -2.2,3.7 -4.4,3.5 z"
         id="path9"
         inkscape:connector-curvature="0"
         style="fill:#f80041" /><polygon
         class="st191"
         points="25.1,122 1.1,122 7.6,130.8 24.6,131 "
         id="polygon11"
         style="fill:#354652" /><path
         class="st192"
         d="M 185.4,84 C 178.9,48.5 145.7,0.8 89.9,11 c -41,7.5 -45.5,66.5 -47,75.5 -13,2.5 -23.5,5 -23.5,5 l -4.5,41 h 213 C 226.4,86.5 185.4,84 185.4,84 Z m -130,1 c 1.2,-7.3 6.1,-58.9 39,-65.5 47.8,-9.6 72.9,34.8 78.1,63.4 -24.7,-2 -89.1,-1.4 -117.1,2.1 z"
         id="path13"
         inkscape:connector-curvature="0"
         style="fill:#ffe063" /><polygon
         class="st192"
         points="99.6,14.5 106.6,86.5 93.4,87 93.9,15 "
         id="polygon15"
         style="fill:#ffe063" /><path
         class="st192"
         d="m 123.4,12.3 c -2,-2.2 -8.5,-11.2 -8.5,-11.2 L 95.4,1.8 c 0,0 -10.2,12.5 -9.5,12.2 0.7,-0.3 37.5,-1.7 37.5,-1.7 z"
         id="path17"
         inkscape:connector-curvature="0"
         style="fill:#ffe063" /><g
         id="g37"><path
           class="st191"
           d="m 66.7,101.9 c -5.5,0.3 -8.2,0.5 -13.7,0.9 -0.4,-5.3 -0.6,-7.9 -1,-13.1 5.5,-0.4 8.3,-0.6 13.9,-1 0.3,5.3 0.5,7.9 0.8,13.2 z"
           id="path19"
           inkscape:connector-curvature="0"
           style="fill:#354652" /><path
           class="st191"
           d="m 94.1,100.6 c -5.5,0.2 -8.2,0.3 -13.7,0.6 C 80.1,95.9 80,93.3 79.8,88 c 5.6,-0.3 8.3,-0.4 13.9,-0.6 0.2,5.3 0.2,7.9 0.4,13.2 z"
           id="path21"
           inkscape:connector-curvature="0"
           style="fill:#354652" /><path
           class="st191"
           d="m 121.6,100 c -5.5,0 -8.2,0.1 -13.7,0.2 -0.1,-5.3 -0.2,-7.9 -0.3,-13.2 5.6,-0.1 8.3,-0.1 13.9,-0.2 0,5.3 0,8 0.1,13.2 z"
           id="path23"
           inkscape:connector-curvature="0"
           style="fill:#354652" /><path
           class="st191"
           d="m 149,100.3 c -5.5,-0.1 -8.2,-0.2 -13.7,-0.2 0,-5.3 0.1,-7.9 0.1,-13.2 5.6,0 8.3,0.1 13.9,0.2 -0.1,5.3 -0.2,7.9 -0.3,13.2 z"
           id="path25"
           inkscape:connector-curvature="0"
           style="fill:#354652" /><path
           class="st191"
           d="m 176.4,101.2 c -5.5,-0.3 -8.2,-0.4 -13.7,-0.6 0.2,-5.3 0.3,-7.9 0.5,-13.2 5.6,0.2 8.3,0.3 13.9,0.6 -0.3,5.3 -0.4,8 -0.7,13.2 z"
           id="path27"
           inkscape:connector-curvature="0"
           style="fill:#354652" /><path
           class="st191"
           d="m 81,114.3 c -5.4,0.3 -8.1,0.4 -13.5,0.7 -0.3,-5.3 -0.5,-7.9 -0.8,-13.2 5.5,-0.3 8.2,-0.5 13.7,-0.8 0.3,5.4 0.4,8 0.6,13.3 z"
           id="path29"
           inkscape:connector-curvature="0"
           style="fill:#354652" /><path
           class="st191"
           d="m 108.1,113.4 c -5.4,0.1 -8.1,0.2 -13.5,0.4 -0.2,-5.3 -0.3,-7.9 -0.4,-13.2 5.5,-0.2 8.2,-0.3 13.7,-0.4 0,5.3 0.1,7.9 0.2,13.2 z"
           id="path31"
           inkscape:connector-curvature="0"
           style="fill:#354652" /><path
           class="st191"
           d="m 135.2,113.2 c -5.4,0 -8.1,0 -13.5,0 0,-5.3 0,-7.9 -0.1,-13.2 5.5,0 8.2,0 13.7,0 -0.1,5.3 -0.1,8 -0.1,13.2 z"
           id="path33"
           inkscape:connector-curvature="0"
           style="fill:#354652" /><path
           class="st191"
           d="m 162.3,113.8 c -5.4,-0.2 -8.1,-0.3 -13.5,-0.4 0.1,-5.3 0.2,-7.9 0.3,-13.2 5.5,0.1 8.2,0.2 13.7,0.4 -0.3,5.3 -0.4,8 -0.5,13.2 z"
           id="path35"
           inkscape:connector-curvature="0"
           style="fill:#354652" /></g><path
         class="st193"
         d="m 136.6,132.5 c 1.5,-15.1 14.3,-26.9 29.8,-26.9 15.5,0 28.3,11.8 29.8,26.9 -6.3,0 -55.2,0 -59.6,0 z"
         id="path39"
         inkscape:connector-curvature="0"
         style="fill:#b08a44" /><circle
         class="st191"
         cx="166.60001"
         cy="136.5"
         r="24.5"
         id="circle41"
         style="fill:#354652" /><ellipse
         class="st7"
         cx="167"
         cy="136.60001"
         rx="16.1"
         ry="16.4"
         id="ellipse43"
         style="fill:#ffffff" /><path
         class="st193"
         d="m 36.1,132.5 c 1.5,-15.1 14.3,-26.9 29.8,-26.9 15.5,0 28.3,11.8 29.8,26.9 -6.3,0 -55.2,0 -59.6,0 z"
         id="path45"
         inkscape:connector-curvature="0"
         style="fill:#b08a44" /><circle
         class="st191"
         cx="65.400002"
         cy="136.5"
         r="24.5"
         id="circle47"
         style="fill:#354652" /><ellipse
         class="st7"
         cx="65.5"
         cy="136.89999"
         rx="16.1"
         ry="16.4"
         id="ellipse49"
         style="fill:#ffffff" /></g></g></svg>