<svg xmlns="http://www.w3.org/2000/svg" viewBox="0 0 200 68.71" width="200" height="68.71" preserveAspectRatio="none"><defs><style>.cls-1{fill:#a1ace6;}.cls-2{fill:#d9d9d9;}</style></defs><title>YetiLegs</title><g id="Legs"><path class="cls-1" d="M67,56.35s-8.71-19,6.48-31.17l14.47-.4s-3.32,21.48,4.61,34.54Z"/><path class="cls-1" d="M92.52,58.49c0-3-3.31-5.52-7.4-5.52a9.42,9.42,0,0,0-3.47.64L73,53.08l-3.91-3.91L59.71,53.6s-6.29-5.5-11.46-7.44c-4.82-1.81-9-1.31-9,1.85s6.18,2.8,6.2,2.92-10.08,3.16-6.46,8,8.23-2.3,8.23-2.3-3.58,5.46.81,7.65c3.66,1.82,4.09-2.42,4.13-3.89,2.31,4.76,12.17,4.31,12.17,4.31s23,.41,25.63-.27S92.52,58.49,92.52,58.49Z"/><path class="cls-1" d="M139.26,56.35s8.71-19-6.48-31.17l-14.47-.4s3.32,21.48-4.61,34.54Z"/><path class="cls-1" d="M113.69,58.49c0-3,3.31-5.52,7.4-5.52a9.42,9.42,0,0,1,3.47.64l8.61-.54,3.91-3.91,9.42,4.42s6.29-5.5,11.46-7.44c4.82-1.81,9-1.31,9,1.85s-6.18,2.8-6.2,2.92,10.08,3.16,6.46,8-8.23-2.3-8.23-2.3,3.58,5.46-.81,7.65c-3.66,1.82-4.09-2.42-4.13-3.89-2.31,4.76-12.17,4.31-12.17,4.31s-23,.41-25.63-.27S113.69,58.49,113.69,58.49Z"/><path class="cls-2" d="M157.78,0H50.5c-.22.23-.44.46-.64.73a16.79,16.79,0,0,0-3,14.25L59.11,9,51.28,22.74a53.12,53.12,0,0,0,5.55-.31A27.86,27.86,0,0,0,58,43l5.79-6.88a26.28,26.28,0,0,0,18,10.39l-.72-6.64L97,47.68c-3.58-4.33-5.65-10.25-6.45-16a51.71,51.71,0,0,0,20.12-8.48L108,32.15a24.57,24.57,0,0,0,7.93-1.84c-.64,6.14-2.75,12.69-6.63,17.38l15.88-7.81-.72,6.64a26.28,26.28,0,0,0,18-10.39L148.17,43c3.73-7.58,3.12-16.15.38-22.88a21.61,21.61,0,0,0,5.19-4.38,66,66,0,0,1,6.67,7.63s4.66-14.08-.89-21.29C159,1.35,158.38.66,157.78,0Z"/></g></svg>