<svg xmlns="http://www.w3.org/2000/svg" viewBox="0 0 200 68.71" width="200" height="68.71" preserveAspectRatio="none"><defs><style>.cls-1{fill:#2e75b0;}.cls-2{fill:#999;}.cls-3{fill:#5e5e5e;}.cls-4{fill:#ffbc5e;}.cls-5{fill:#fff;}.cls-6{fill:#323333;}.cls-7{fill:#c27942;}</style></defs><title>GoatHead</title><g id="Bodies"><path class="cls-1" d="M159.24,137.41c.19-11.14-.75-54.46-7.87-64.79a8.72,8.72,0,0,0-4.79-3.91c-28,0-86.3-.08-96.34.06-.25,1.58-1.3,7.88-1.49,9.42l-.1.78q-.28,2.29-.52,4.57l-.07.68q-.25,2.35-.47,4.69l0,.27q-.23,2.43-.43,4.82v.1c-.13,1.59-.24,3.15-.37,4.7-1.2,15.13-.13,35.11.1,38.62Z"/></g><g id="Heads"><path class="cls-2" d="M50.44,38.41,54.6,13.74c-8.4-1.64-14.79.42-19.36,4.43L39.4,40.55A26.81,26.81,0,0,1,50.44,38.41Z"/><path class="cls-2" d="M32.9,20.58C20.53,35.4,26.18,52.52,26.18,52.52a29.76,29.76,0,0,1,11.9-11.35L34,19.34C33.63,19.74,33.26,20.15,32.9,20.58Z"/><path class="cls-3" d="M51.87,38.47,56,14q-.7-.17-1.38-.3L50.44,38.41C50.93,38.42,51.4,38.44,51.87,38.47Z"/><path class="cls-3" d="M38.07,41.17c.44-.22.88-.43,1.32-.62L35.25,18.17q-.64.56-1.22,1.16Z"/><path class="cls-2" d="M62.48,41.19,72.95,21.72A56.23,56.23,0,0,0,56,14L51.87,38.47C57.81,38.84,62.18,40.84,62.48,41.19Z"/><path class="cls-2" d="M172.39,48.65s4.9-20.28-10.77-36.21a24.81,24.81,0,0,0-3.74-3.13l-4,26.15C160.07,37,166.61,40.84,172.39,48.65Z"/><path class="cls-2" d="M139.48,35.21l-6-27.83a66.47,66.47,0,0,0-18,10.16L129.44,39C129.72,38.62,133.7,36.37,139.48,35.21Z"/><path class="cls-2" d="M152.48,35.14l4.09-26.65C151,5.2,143.73,4.16,134.85,6.94l6,28A32.41,32.41,0,0,1,152.48,35.14Z"/><path class="cls-3" d="M140.88,35l-6-28-1.35.45,6,27.83Z"/><path class="cls-3" d="M153.86,35.46l4-26.15c-.42-.29-.86-.56-1.31-.82l-4.09,26.65C152.94,35.23,153.4,35.34,153.86,35.46Z"/><path class="cls-4" d="M146.58,68.71c.37-21-9-17.89-13.93-26.9-5.72-10.38-11.45-25.48-18.12-34S85.92,1.23,85.92,1.23,63,19.16,53.49,55c-1.15,4.33-2.15,8.94-3,13.69Z"/><ellipse class="cls-5" cx="98.93" cy="28.56" rx="20.42" ry="16.47"/><ellipse class="cls-6" cx="98.77" cy="28.31" rx="8.89" ry="8.68"/><ellipse class="cls-4" cx="98.34" cy="50.28" rx="27.33" ry="10.93"/><ellipse class="cls-5" cx="104.05" cy="24.02" rx="2.82" ry="2.72"/><circle class="cls-7" cx="75.9" cy="43.4" r="2.01"/><polygon class="cls-5" points="114.46 54.95 116.66 40.2 124.97 50.19 114.46 54.95"/><path class="cls-7" d="M75.92,43.78a20.39,20.39,0,0,0,4.55,6,23.58,23.58,0,0,0,6.18,4.13,32,32,0,0,0,14.52,2.63,50,50,0,0,0,14.71-2.67,50.85,50.85,0,0,0,6.92-3,40,40,0,0,0,6.41-4,38.73,38.73,0,0,1-12.93,8.1A45.06,45.06,0,0,1,101.22,58a36.45,36.45,0,0,1-7.73-.58,27.06,27.06,0,0,1-7.35-2.51A21,21,0,0,1,75.92,43.78Z"/><path class="cls-7" d="M117.37,59.4A14.51,14.51,0,0,1,114.54,62a23.73,23.73,0,0,1-3.35,1.91,23.36,23.36,0,0,1-3.64,1.3,29.42,29.42,0,0,1-3.8.72l-1,.13.44-.87c.68-1.33,1.35-2.66,2.05-4l.66.59A12.48,12.48,0,0,1,103,63a17.43,17.43,0,0,1-3,.57,13.45,13.45,0,0,1-6-.78,16.41,16.41,0,0,0,3,.4,18.62,18.62,0,0,0,3-.2,16.76,16.76,0,0,0,2.88-.72,14.42,14.42,0,0,0,2.65-1.2l1.29-.78-.64,1.37c-.63,1.35-1.29,2.69-1.95,4l-.52-.74a31.34,31.34,0,0,0,3.67-.65,29.81,29.81,0,0,0,3.57-1.09,23.24,23.24,0,0,0,3.38-1.61A17.58,17.58,0,0,0,117.37,59.4Z"/></g></svg>