<?xml version="1.0" encoding="utf-8"?>
<!-- Generator: Adobe Illustrator 20.1.0, SVG Export Plug-In . SVG Version: 6.00 Build 0)  -->
<!DOCTYPE svg PUBLIC "-//W3C//DTD SVG 1.1//EN" "http://www.w3.org/Graphics/SVG/1.1/DTD/svg11.dtd">
<svg version="1.1" xmlns="http://www.w3.org/2000/svg" xmlns:xlink="http://www.w3.org/1999/xlink" x="0px" y="0px"
	 viewBox="0 0 40 40" enable-background="new 0 0 40 40" xml:space="preserve" width="40" height="40" preserveAspectRatio="none">
<g id="BG" display="none">
</g>
<g id="warren">
</g>
<g id="Kraken_Tusks">
</g>
<g id="Kraken_x27_s_Snout">
</g>
<g id="Layer_1">
</g>
<g id="Header_Buttons">
	<path fill="#0057A7" d="M34.8,29c0.2-1.6,0.8-5.5,0.3-5.6c-0.5-0.1-2.4,3.5-3.3,5.1c-0.4-0.1-0.7-0.1-1.1-0.2
		c0.3-1.4,0.7-3.8,0.3-3.9c-0.4,0-1.8,1.9-2.7,3.3c-2.6-0.8-5-1.9-6.5-3.6c-4.2-4.7-5.6-16.7-5.6-16.7L2.7,11.8
		c0,0,2.6,12.8,12.2,16.9C28.1,34.4,38,29.3,38,29.3S36.7,29.3,34.8,29z"/>
</g>
</svg>
