<svg xmlns="http://www.w3.org/2000/svg" viewBox="0 0 300 900" width="300" height="900" preserveAspectRatio="none"><defs><style>.cls-1{fill:#5d3213;}.cls-10,.cls-11,.cls-13,.cls-19,.cls-2,.cls-5{fill:#b1b3b4;}.cls-10,.cls-11,.cls-12,.cls-13,.cls-15,.cls-16,.cls-17,.cls-18,.cls-19,.cls-2,.cls-20,.cls-4,.cls-5,.cls-6,.cls-7,.cls-8,.cls-9{stroke:#808083;}.cls-10,.cls-11,.cls-12,.cls-13,.cls-15,.cls-16,.cls-17,.cls-18,.cls-19,.cls-2,.cls-20,.cls-5,.cls-6,.cls-7,.cls-8,.cls-9{stroke-linejoin:round;}.cls-2{stroke-width:0.92px;}.cls-3{fill:#888a8c;}.cls-15,.cls-16,.cls-17,.cls-18,.cls-20,.cls-4,.cls-9{fill:none;}.cls-4{stroke-miterlimit:10;}.cls-5{stroke-width:0.77px;}.cls-12,.cls-6,.cls-7,.cls-8{fill:#f1e7a9;}.cls-6{stroke-width:0.69px;}.cls-7,.cls-8,.cls-9{stroke-width:1.54px;}.cls-8,.cls-9{stroke-linecap:round;}.cls-10,.cls-12{stroke-width:0.47px;}.cls-11{stroke-width:0.58px;}.cls-13,.cls-15{stroke-width:0.42px;}.cls-14{fill:#808083;}.cls-16{stroke-width:0.5px;}.cls-17{stroke-width:0.33px;}.cls-18{stroke-width:0.38px;}.cls-19{stroke-width:0.39px;}.cls-20{stroke-width:0.43px;}.cls-21{fill:#f52338;}</style></defs><g id="rooms"><polyline class="cls-1" points="248.08 349 254.75 177.55 45.25 173.09 51.62 349" /><polyline class="cls-2" points="237.3 370.18 241.53 184.62 59.88 184.62 65.25 371.78" /><path class="cls-3" d="M60.11,240.2l182.41-13.39V183.46s-185.4-2.5-185-1.22S60.11,240.2,60.11,240.2Z" /><path class="cls-4" d="M55.78,240.51l182.41-13.39V183.77s-185.4-2.5-185-1.21S55.78,240.51,55.78,240.51Z" /><polygon class="cls-5" points="84.29 201.06 105.83 200.85 105.38 223.43 86.8 223.86 84.29 201.06" /><line class="cls-6" x1="94.96" y1="200.65" x2="96.01" y2="223.86" /><line class="cls-6" x1="105.84" y1="212.99" x2="85.34" y2="213.82" /><polygon class="cls-5" points="170.92 233.54 173.55 233.34 181.74 245.64 177.03 245.84 170.92 233.54" /><polygon class="cls-5" points="127.64 236.95 130.45 236.78 126.44 249.73 121.67 249.9 127.64 236.95" /><polygon class="cls-5" points="171.94 236.36 129.27 239.64 128.56 242.77 173.65 239.49 171.94 236.36" /><line class="cls-7" x1="173.39" y1="211.56" x2="169.3" y2="211.65" /><line class="cls-7" x1="124.49" y1="214.71" x2="129" y2="214.46" /><polygon class="cls-5" points="170.75 193.24 170.75 224.85 128.41 226.72 124.66 194.35 170.75 193.24" /><polygon class="cls-5" points="176.11 237.29 172.88 237.72 172.19 209.86 175.35 209.94 176.11 237.29" /><polygon class="cls-5" points="125.17 212.92 122.19 213.35 125 241.55 128.92 241.29 125.17 212.92" /><polygon class="cls-5" points="168.19 195.46 127.64 196.57 130.71 223.74 168.36 222.29 168.19 195.46" /><line class="cls-8" x1="164.95" y1="255.22" x2="163.93" y2="261.27" /><line class="cls-8" x1="145.53" y1="255.99" x2="146.64" y2="262.12" /><polygon class="cls-5" points="145.27 244.83 164.87 244.15 166.49 253.94 142.97 254.71 145.27 244.83" /><path class="cls-5" d="M166.49,253.94s-.26,3.07-2.81,3.75-17.38.69-17.38.69a4.76,4.76,0,0,1-3.33-3.67Z" /><line class="cls-8" x1="159.93" y1="262.29" x2="160.44" y2="267.41" /><line class="cls-8" x1="150.13" y1="262.04" x2="149.53" y2="266.64" /><polygon class="cls-5" points="147.28 250.32 161.72 249.69 160.61 260.59 149.42 260.85 147.28 250.32" /><polygon class="cls-5" points="160.49 262.35 149.42 262.44 149.32 260.55 160.57 260.42 160.49 262.35" /><line class="cls-8" x1="212.15" y1="254.29" x2="211.73" y2="260.93" /><line class="cls-8" x1="192.73" y1="255.05" x2="193.41" y2="262.38" /><line class="cls-9" x1="189.06" y1="245.38" x2="189.57" y2="250.75" /><line class="cls-8" x1="207.35" y1="258.61" x2="207.86" y2="263.63" /><line class="cls-8" x1="199.15" y1="259.68" x2="198.73" y2="264.45" /><line class="cls-8" x1="196.41" y1="253.79" x2="195.98" y2="258.56" /><polygon class="cls-5" points="198.61 259.68 195.63 254.69 205.63 255.65 208.02 259.31 198.61 259.68" /><polygon class="cls-5" points="208.6 259.5 198.53 259.83 198.56 257.73 208.77 257.7 208.6 259.5" /><polygon class="cls-5" points="188.21 244.23 205.93 243.08 212.79 251.77 190.85 252.92 188.21 244.23" /><path class="cls-5" d="M212.71,252s0,3.19-2.52,3.87-16.66.82-16.66.82-1.74-.7-2.42-3.77Z" /><polygon class="cls-5" points="197.24 247.81 210.79 247.17 208.74 257.65 198.66 257.9 197.24 247.81" /><line class="cls-8" x1="93.06" y1="257.31" x2="93.87" y2="263.92" /><line class="cls-8" x1="112.49" y1="256.94" x2="112.24" y2="264.29" /><line class="cls-9" x1="115.58" y1="247.07" x2="115.39" y2="252.46" /><line class="cls-8" x1="98.11" y1="261.34" x2="97.89" y2="266.39" /><line class="cls-8" x1="106.35" y1="261.93" x2="107.05" y2="266.67" /><line class="cls-8" x1="108.75" y1="255.89" x2="109.45" y2="260.63" /><polygon class="cls-5" points="106.89 261.9 109.58 256.75 99.64 258.29 97.47 262.08 106.89 261.9" /><polygon class="cls-5" points="96.9 262.31 106.98 262.05 106.82 259.95 96.63 260.52 96.9 262.31" /><polygon class="cls-5" points="116.37 245.87 98.61 245.76 92.27 254.84 114.24 254.7 116.37 245.87" /><path class="cls-5" d="M92.37,255.09s.15,3.19,2.74,3.72,16.68-.16,16.68-.16,1.69-.8,2.19-3.91Z" /><polygon class="cls-5" points="107.56 249.97 94 250.13 96.66 260.47 106.73 260.13 107.56 249.97" /><polygon class="cls-10" points="187.19 238.14 217.6 236.09 219.78 194.82 184.12 194.82 187.19 238.14" /><polygon class="cls-11" points="217.6 236.18 214.54 232.86 187.02 234.31 187.19 238.23 217.6 236.18" /><line class="cls-11" x1="216.9" y1="194.84" x2="214.54" y2="232.86" /><polygon class="cls-11" points="219.22 204.57 184.8 205.68 184.63 204.57 216.2 203.53 219.22 204.57" /><path class="cls-10" d="M210.45,235.7h0c-.49-.15-.79-.43-.64-.92,0,0,4.17-13.22,4.89-13h0c.71.21-3.09,13.54-3.09,13.54C211.46,235.82,211,235.84,210.45,235.7Z" /><rect class="cls-10" x="214.65" y="217.72" width="0.84" height="5.58" transform="translate(72.68 -52.63) rotate(16.75)" /><rect class="cls-10" x="215.02" y="217.34" width="1.81" height="0.79" transform="translate(71.91 -52.99) rotate(16.75)" /><line class="cls-12" x1="215.89" y1="219.45" x2="214.97" y2="219.25" /><line class="cls-12" x1="215.55" y1="220.7" x2="214.63" y2="220.49" /><line class="cls-12" x1="215.19" y1="222.01" x2="214.27" y2="221.81" /><path class="cls-10" d="M188,217.59l6.6,15.35,5.6.26a1.78,1.78,0,0,1-.9,2.54l-5.45-1.4-7.21-16.73Z" /><line class="cls-12" x1="190.4" y1="223.25" x2="189.26" y2="223.75" /><line class="cls-12" x1="189.4" y1="221.31" x2="188.44" y2="221.7" /><line class="cls-12" x1="188.89" y1="219.78" x2="187.71" y2="220.09" /><path class="cls-10" d="M215.29,203.75l0-1.43-4.56.14,0,1.2c0,.25,1,.45,2.27.45a4.69,4.69,0,0,0,2.23-.36Z" /><ellipse class="cls-10" cx="212.97" cy="202.32" rx="2.27" ry="0.45" /><path class="cls-13" d="M202.91,199.33a5,5,0,0,1,.87,4.94l-12.91.32s-1-3.11.08-5.19c0,0,3.57.34,6.16.37A46.51,46.51,0,0,0,202.91,199.33Z" /><path class="cls-14" d="M192.83,199.69c0-.81-.19-1.6.44-2.27a1.52,1.52,0,0,1,.55-.33s5.34-.56,6.45-.08,1.36,2.31,1.36,2.31l-1.12.08a1.3,1.3,0,0,0-1.19-1.67c-1.6-.24-5-.24-5.34.32a2.89,2.89,0,0,0-.24,1.43Z" /><path class="cls-13" d="M201.55,199.49a8,8,0,0,1,.16,4.86h-1.44a13,13,0,0,0,.29-4.75Z" /><path class="cls-13" d="M193.73,199.61a10.39,10.39,0,0,1,.35,5l-1.27-.06a10.25,10.25,0,0,0,0-4.95Z" /><path class="cls-13" d="M199.43,200.93l-3.82,0a4.32,4.32,0,0,1,0,2.46l3.8-.1A3.39,3.39,0,0,0,199.43,200.93Z" /><path class="cls-15" d="M191,199.4s1.46.95.48,5.21" /><ellipse class="cls-10" cx="207.42" cy="230.91" rx="4.72" ry="3.72" transform="translate(-30.26 430.53) rotate(-88.09)" /><path class="cls-16" d="M204.94,227.46a15.77,15.77,0,0,0,2.79-3.86,16.38,16.38,0,0,0,2.41,4.05" /><line class="cls-17" x1="209.31" y1="226.9" x2="209.01" y2="235.09" /><line class="cls-17" x1="210.29" y1="227.8" x2="210.05" y2="234.25" /><line class="cls-17" x1="208.39" y1="226.32" x2="208.09" y2="235.49" /><line class="cls-17" x1="207.35" y1="226.13" x2="206.96" y2="235.5" /><line class="cls-17" x1="206.16" y1="226.36" x2="205.79" y2="235.29" /><polyline class="cls-17" points="209.83 234.51 204.78 234.31 204.99 227.43" /><line class="cls-17" x1="210.82" y1="232.66" x2="203.78" y2="232.53" /><line class="cls-17" x1="211.13" y1="231.03" x2="203.7" y2="230.78" /><line class="cls-17" x1="210.91" y1="229.34" x2="203.83" y2="229.25" /><line class="cls-17" x1="210.48" y1="228.18" x2="204.65" y2="227.91" /><polygon class="cls-10" points="208.19 224.38 207.19 224.37 207.56 217.2 208.89 217.28 208.19 224.38" /><line class="cls-12" x1="208.8" y1="218.73" x2="207.63" y2="218.73" /><line class="cls-12" x1="208.57" y1="220.42" x2="207.4" y2="220.42" /><polygon class="cls-11" points="218.63 217.44 185.83 218.8 185.57 217.27 215.56 216.12 218.63 217.44" /><ellipse class="cls-10" cx="212.71" cy="212.2" rx="4.94" ry="4.69" /><path class="cls-18" d="M214.92,208s-2.15.17-1.68,4.1c0,0-4,1.18-5.35-.72" /><path class="cls-18" d="M212.9,207.41s-2.24,1.47-1.5,5" /><path class="cls-18" d="M210.51,208a4.75,4.75,0,0,0-1.2,4.23" /><path class="cls-18" d="M213.17,212.08s2,1.53.88,4.63" /><path class="cls-18" d="M214.15,213.51a8.58,8.58,0,0,1-6.41-.23" /><path class="cls-18" d="M214.42,215.21a7.54,7.54,0,0,1-5.38.07" /><path class="cls-18" d="M213.32,209.8s3.2,1.28,2.6,5.93" /><path class="cls-18" d="M214,208.42s3,.6,3.58,4.56" /><ellipse class="cls-19" cx="206.63" cy="214.9" rx="2.37" ry="2.3" /><path class="cls-17" d="M207.49,212.79s-1.14.57-.6,1.56,2,.36,2,.36" /><path class="cls-17" d="M204.26,214.9s1.08-1.35,1.75-.39-.49,2.3-.49,2.3" /><circle class="cls-10" cx="191.71" cy="212.96" r="4.89" /><path class="cls-20" d="M188.56,216.7c.91.75,3.06-.35,4.79-2.46s2.35-4.33,1.44-5.08" /><path class="cls-20" d="M187.93,209.87c.75-.91,3-.29,5.14,1.44s3.16,3.86,2.41,4.78" /><path class="cls-20" d="M196.62,212.92a4.9,4.9,0,0,0-1.2,1.13c-.55.69-1.57,3.35-2.61,3.68" /><path class="cls-20" d="M192.2,208.1s2.5.62.87,3.21-5.24,1.85-6,2.78" /><polygon class="cls-11" points="187.19 238.23 185.28 235.41 181.74 196.19 184.45 194.66 187.19 238.23" /><polygon class="cls-5" points="111.47 233.94 111.41 241.73 110.35 241.73 109.82 233.77 111.47 233.94" /><polygon class="cls-5" points="83.46 235.24 84.4 243.09 85.22 242.97 85.05 235.12 83.46 235.24" /><polygon class="cls-5" points="87.94 231.06 88.23 239.43 87.35 239.43 86.64 231.23 87.94 231.06" /><polygon class="cls-5" points="108.87 238.13 107.64 238.31 107.58 230.17 108.93 230.17 108.87 238.13" /><polygon class="cls-5" points="109.23 229.54 111.94 232.96 82.75 234.58 86.89 230.44 109.23 229.54" /><polygon class="cls-5" points="112 234.53 82.69 236.07 82.69 234.59 112 233.06 112 234.53" /></g><g id="Grade_1" data-name="Grade 1"><polygon class="cls-21" points="129.49 374.87 54.37 377.49 47.95 177.4 252.05 180.05 243.44 374.81 172.12 374.42 170.84 367.76 233.65 367.55 237.47 190.15 61.33 190.36 66.79 368.74 130.86 368.17 129.49 374.87" /><polygon class="cls-21" points="128.75 369.13 175.35 368.71 175.3 371.62 129.14 372.6 128.75 369.13" /><ellipse class="cls-21" cx="136.88" cy="375.23" rx="1.78" ry="2.84" transform="matrix(0.04, -1, 1, 0.04, -243.16, 498.13)" /><ellipse class="cls-21" cx="136.88" cy="366.82" rx="1.78" ry="2.84" transform="translate(-234.75 490.03) rotate(-87.88)" /></g></svg>