<svg xmlns="http://www.w3.org/2000/svg" viewBox="0 0 300 900" width="300" height="900" preserveAspectRatio="none"><defs><style>.cls-1{fill:#5d3213;}.cls-2{fill:#f2e8aa;}.cls-10,.cls-12,.cls-3,.cls-7,.cls-8{fill:#f3e8ab;}.cls-4{fill:#f6efc5;stroke-miterlimit:10;stroke-width:0.7px;}.cls-11,.cls-12,.cls-13,.cls-4,.cls-5,.cls-6,.cls-7,.cls-8,.cls-9{stroke:#cec391;}.cls-13,.cls-5{fill:none;}.cls-10,.cls-11,.cls-12,.cls-13,.cls-5,.cls-6,.cls-7,.cls-8,.cls-9{stroke-linejoin:round;}.cls-5{stroke-width:0.63px;}.cls-11,.cls-6,.cls-9{fill:#e2d995;}.cls-10,.cls-13,.cls-6,.cls-8{stroke-width:0.69px;}.cls-7,.cls-9{stroke-width:0.62px;}.cls-10{stroke:#cfc392;}.cls-11{stroke-width:0.5px;}.cls-12{stroke-width:0.61px;}.cls-13{stroke-linecap:round;}.cls-14{fill:#f52338;}</style></defs><g id="rooms"><polyline class="cls-1" points="248.08 349 254.75 177.55 45.25 173.09 51.62 349" /><path class="cls-2" d="M129.49,374.77S132.83,329,182,335.87l-11.19,31.79,1.28,6.66Z" /><polygon class="cls-3" points="64.78 373.83 237.15 374.32 241.06 186.68 59.41 186.68 64.78 373.83" /><path class="cls-4" d="M241.15,242l-125.74-9.23L58.74,273.7V186s185.4-2.5,185-1.22S241.15,242,241.15,242Z" /><path class="cls-5" d="M216.39,265.93c0-1.64,3.17-3,7.09-3s7.08,1.34,7.08,3" /><polygon class="cls-6" points="241.73 244.65 232.45 259.39 186.57 255.93 199.13 241.91 241.73 244.65" /><polygon class="cls-7" points="243.53 233.24 242.63 249.88 240.84 249.88 241.11 236.21 243.53 233.24" /><polygon class="cls-7" points="233.01 246.82 232.83 264.64 231.03 264.64 230.49 248.71 233.01 246.82" /><polygon class="cls-7" points="187.67 243.32 187.49 261.13 185.69 261.13 185.15 245.21 187.67 243.32" /><polygon class="cls-8" points="244.56 232.42 234.19 248.88 182.98 245.02 197.2 230.09 244.56 232.42" /><path class="cls-9" d="M224.57,255.78l-.68,15.78c-.58.41-1,.38-1.33-.24l-.07-15.55Z" /><path class="cls-7" d="M227.09,258.8l2.79,16.56c.62.33,1.07.24,1.29-.41l-2-16.42Z" /><path class="cls-7" d="M220.46,258.74,216.39,275c-.65.28-1.09.16-1.25-.51l3.28-16.21Z" /><ellipse class="cls-8" cx="223.63" cy="256.81" rx="7.6" ry="3.91" /><path class="cls-5" d="M230.56,265.93c0,1.64-3.17,3-7.08,3s-7.09-1.33-7.09-3" /><path class="cls-5" d="M191.1,265.08c0-1.64,3.17-3,7.08-3s7.09,1.33,7.09,3" /><path class="cls-9" d="M199.41,254.54l-.67,15.31a.75.75,0,0,1-.65.74c-.28,0-.52-.14-.69-.51l-.08-15.55Z" /><path class="cls-7" d="M201.92,257.56l2.72,16.1a.75.75,0,0,0,.73.65c.29,0,.5-.21.63-.6l-2-16.42Z" /><path class="cls-7" d="M195.29,257.5l-3.95,15.83a.75.75,0,0,1-.79.59c-.28,0-.48-.24-.58-.64l3.28-16.21Z" /><ellipse class="cls-8" cx="198.43" cy="255.49" rx="7.6" ry="3.91" /><path class="cls-5" d="M205.27,265.08c0,1.64-3.17,3-7.09,3s-7.08-1.33-7.08-3" /><polygon class="cls-6" points="162 209.1 176.02 209.51 172.77 238.97 156.71 237.15 162 209.1" /><polygon class="cls-8" points="150.41 205.03 164.84 205.65 160.17 242.63 144.93 241.41 150.41 205.03" /><polygon class="cls-8" points="173.78 199.96 169.31 243.65 163.83 242.63 169.52 199.75 173.78 199.96" /><polygon class="cls-8" points="177.24 217.43 174.6 246.7 153.06 244.46 156.92 216.82 177.24 217.43" /><polygon class="cls-6" points="162.2 221.7 169.52 222.11 166.26 247.1 157.93 246.49 162.2 221.7" /><polygon class="cls-9" points="122.36 241.33 121.14 251.08 119.46 251.03 118.54 241.63 122.36 241.33" /><polygon class="cls-9" points="141.1 228.83 139.58 239.19 137.9 239.34 137.75 228.98 141.1 228.83" /><polygon class="cls-9" points="101.02 232.64 102.54 244.07 104.22 243.92 105.44 233.71 101.02 232.64" /><polygon class="cls-10" points="142.73 228.12 120.58 242.55 99.44 232.59 122.81 221.82 142.73 228.12" /><polyline class="cls-11" points="129.08 221.34 127.18 222.47 128.53 223.49 127.13 224.28 128.53 225.4 126.78 225.63 127.84 227.23 126.17 227.15 126.7 229.36 125.23 229.04 125.17 230.43 123.99 229.9 123.34 231.42 122.59 230.05 121.06 231.04 121.19 229.48 119.46 229.82 119.97 228.34 118.24 228.14 119.02 226.88 117.1 226.47 118.47 225.32 116.15 224.84 117.86 223.72 116.11 222.43 117.68 221.66 116.18 220.52 117.74 219.85 115.92 218.6 118.06 218.09 116.48 216.55 118.69 216.45 117.49 214.6 119.63 215.09 119.65 213.76 120.87 214.23 121.16 213.35 121.64 214.05 121.6 212.07 121.78 214.04 121.85 212.06 121.92 214.04 122.09 212.07 122.06 214.05 122.34 212.09 122.2 214.06 122.58 212.12 122.35 214.09 122.82 212.16 123.06 214.31 124.36 213.73 124.25 215.11 125.9 214.97 125.26 216.26 127.4 215.95 126.05 217.64 128.21 217.68 126.63 219.15 128.77 219.49 127 220.74 129.08 221.34" /><path class="cls-12" d="M124.49,221.84c.2,1.81-.56,3.37-1.7,3.5s-2.22-1.25-2.42-3.05.57-3.37,1.71-3.5a1.48,1.48,0,0,1,.42,0c1,.21,1.82,1.45,2,3" /><path class="cls-12" d="M115.27,219.92l14.32,2.89s-.34-9.11-7.49-10.12C116,211.82,115.27,219.92,115.27,219.92Z" /><path class="cls-11" d="M109.4,207.64l1.07,20.27c2.51.51,3.68,0,3.65-1.52L113.67,206Z" /><path class="cls-7" d="M123.5,213.81c-.63.75-1.29.68-2,0v-4.57h2Z" /><polygon class="cls-7" points="132.77 208.81 127.89 211.45 107.16 208 112.91 205.51 132.77 208.81" /><polyline class="cls-13" points="124.65 219.55 127.57 220.65 131.7 218.93 128.53 217.94" /><polygon class="cls-6" points="81.09 256.65 104.27 264.24 70.91 284.31 53.39 273.57 81.09 256.65" /><polygon class="cls-7" points="105.67 254.98 105.49 272.79 103.69 272.79 103.15 256.87 105.67 254.98" /><polygon class="cls-7" points="71.46 272.79 71.58 293.36 69.78 293.36 68.94 274.68 71.46 272.79" /><polygon class="cls-8" points="82.05 244.08 107.87 254.46 68.94 275.83 51.41 262.83 82.05 244.08" /><path class="cls-5" d="M161.78,253.9c0-1.64,3.17-3,7.09-3s7.09,1.33,7.09,3" /><path class="cls-9" d="M170.09,243.36l-.66,15.32a.74.74,0,0,1-.65.73c-.29,0-.52-.14-.7-.51L168,243.35Z" /><path class="cls-7" d="M172.61,246.39l2.71,16.09a.75.75,0,0,0,.74.65c.28,0,.5-.21.63-.6l-2-16.41Z" /><path class="cls-7" d="M166,246.32l-4,15.83a.75.75,0,0,1-.78.6c-.28,0-.48-.25-.58-.65l3.28-16.21Z" /><ellipse class="cls-8" cx="169.11" cy="244.31" rx="7.6" ry="3.91" /><path class="cls-5" d="M176,253.9c0,1.64-3.18,3-7.09,3s-7.09-1.34-7.09-3" /><path class="cls-5" d="M116.45,258.57c0-1.64,3.17-3,7.09-3s7.08,1.33,7.08,3" /><path class="cls-9" d="M124.76,248l-.66,15.32a.76.76,0,0,1-.65.74c-.29,0-.52-.14-.7-.51L122.68,248Z" /><path class="cls-7" d="M127.28,251.05l2.71,16.1a.75.75,0,0,0,.74.65c.28,0,.49-.21.63-.6l-2-16.42Z" /><path class="cls-7" d="M120.65,251l-4,15.83a.74.74,0,0,1-.78.59c-.29,0-.48-.24-.58-.64l3.27-16.21Z" /><ellipse class="cls-8" cx="123.78" cy="248.97" rx="7.6" ry="3.91" /><path class="cls-5" d="M130.62,258.57c0,1.64-3.17,3-7.08,3s-7.09-1.33-7.09-3" /><path class="cls-5" d="M85.74,281c0-1.64,3.17-3,7.08-3s7.09,1.33,7.09,3" /><path class="cls-6" d="M94.05,270.44l-.67,15.32a.73.73,0,0,1-.65.73c-.28,0-.52-.14-.69-.51L92,270.43Z" /><path class="cls-7" d="M96.57,273.47l2.71,16.09a.75.75,0,0,0,.73.65c.29,0,.5-.2.63-.6l-2-16.41Z" /><path class="cls-7" d="M89.93,273.4l-4,15.84a.76.76,0,0,1-.79.59c-.28,0-.48-.25-.58-.64L87.89,273Z" /><ellipse class="cls-8" cx="93.07" cy="271.39" rx="7.6" ry="3.91" /><path class="cls-5" d="M99.91,281c0,1.65-3.17,3-7.09,3s-7.08-1.33-7.08-3" /><path class="cls-11" d="M223.43,236.7,204,235.53l-1.3,2.87,1.82-1,.82,1.74,1.3-1.43,1,1.69,1.51-1.39.61,1.86,1.26-1.21s.39,1.65.47,1.52a13.3,13.3,0,0,1,1.39-.83s1,1.53,1.1,1.45,1.34-1.28,1.34-1.28L216,241l1.39-1,.82,1.16,1.34-1,.71,1.56.67-1.42,1.06,1.38Z" /><polygon class="cls-11" points="223.43 236.7 229.55 236.77 228.53 237.97 226.94 242.29 227.18 243.91 221.95 241.65 222.3 238.4 223.43 236.7" /><path class="cls-8" d="M226.72,237.8a3.69,3.69,0,0,1-1.09,3.5c-1.38,1.49-2.49-2-2-2.69C224.32,237.65,226.58,237.44,226.72,237.8Z" /><path class="cls-11" d="M86.44,255.06l1.86-1.15a6.63,6.63,0,0,0-3-2.23A4.71,4.71,0,0,0,81,252.83a5.22,5.22,0,0,1,3.22-.08C85.26,253.2,85.63,253.93,86.44,255.06Z" /><path class="cls-11" d="M89.43,255.28l-2.24,1.06-1.11-1.72a1.39,1.39,0,0,1,2.09-.8Z" /><ellipse class="cls-11" cx="88.22" cy="255.83" rx="1.63" ry="0.68" transform="translate(-111.42 73.14) rotate(-28.51)" /><path class="cls-11" d="M85,253.51l-12.42,5.06S72,260,73.91,261l12-6.49C85.93,254,85.68,253.6,85,253.51Z" /><path class="cls-2" d="M129.49,374.77S132.83,329,182,335.87l-11.19,31.79,1.28,6.66Z" /></g><g id="Grade_1" data-name="Grade 1"><polygon class="cls-14" points="129.49 374.77 54.37 377.39 47.95 177.31 252.05 179.96 243.44 374.72 172.12 374.32 170.84 367.66 233.65 367.45 237.47 190.06 61.33 190.26 66.79 368.65 130.86 368.08 129.49 374.77" /><polygon class="cls-14" points="169.78 365.07 200.26 351.32 201.91 354.73 170.8 367.68 169.78 365.07" /><ellipse class="cls-14" cx="192.82" cy="351.19" rx="2.84" ry="1.78" transform="translate(-139.4 127.26) rotate(-27.25)" /><ellipse class="cls-14" cx="196.19" cy="359.38" rx="2.84" ry="1.78" transform="translate(-142.78 129.71) rotate(-27.25)" /></g></svg>