<svg xmlns="http://www.w3.org/2000/svg" viewBox="0 0 1200 900" width="1200" height="900" preserveAspectRatio="none"><defs><style>.cls-1{fill:#cedada;}.cls-2{fill:#fff;}</style></defs><g id="Clouds"><path class="cls-1" d="M0,263c2.93,4.82,12.16,28.94,40.49-6,0,0-4.78,19.2,19.85-12.09s-1.51-51.07-1.51-51.07,36.77,6,30.5-28.72c0,0,30,5.85,15.92-18,0,0,29-11.81-14.1-23.82,0,0,35.33,6,35.2-12.51,0,0-2.53-15.11-6.89-18.62,0,0,54.16,8.6,50.29-24.75,0,0,10.47,10,18.59,0,0,0-.47,19.5,29,8.77s11.67-31,11.67-31,39.62,2.28,28.2-18.62S227.08.73,227.08.73L.15,0Z" /><path class="cls-2" d="M0,236c0,3.23,1.91,26.45,27.65,16.42,0,0-4.95-2-8.47-8.29,0,0,2,6.76,8.51-10.51,0,0,3.32,5.45,0,9.22,0,0,18.9.31,14.54-9.22,0,0,23.91-13.53,7-32.69,0,0-4.48,4.32-13.3-.37,0,0,18.54-6.23,20.9-22.63,0,0,5,7.18,1.28,12.3s36.26-4.48,16.76-23.58c0,0,9.41-.24,7.63-8.32,0,0,21.69-7.27,9.75-19.11,0,0-9.46-11-18.67-9.15,0,0,18.48-5.59,15.26-17.87,0,0,41.51,10.71,22.62-23.83,0,0,63.41,6.33,50.07-30.81,0,0,19.51,16.35,32.65,3.26,0,0,2.62,14,11.64,10.8s22.61-18.38,11.93-28.81c0,0-5.15,4.22-7.31,5.69,0,0,7.13-10.5,4.53-17.36,0,0,10.14,4.4,6.46,8,0,0,33.33-2.08,19.91-15.52S210.39.49,210.39.49L.54,0Z" /><path class="cls-1" d="M0,638c2.34-5,11.55-28.89,39.87,6,0,0-4.77-19.21,19.86,12.08s-1.51,51.08-1.51,51.08,36.76-6,30.5,28.72c0,0,30-5.86,15.92,18,0,0,29,11.8-14.1,23.82,0,0,35.33-6,35.19,12.51,0,0-2.52,15.11-6.88,18.62,0,0,54.15-8.6,50.29,24.75,0,0,10.47-10,18.59,0,0,0-.47-19.5,29-8.78s11.68,31,11.68,31,39.62-2.29,28.2,18.61-30.11,25.88-30.11,25.88L96,898.56,0,900Z" /><path class="cls-2" d="M0,665.1c0-3.23.09-26,25.83-15.92,0,0-4.13,1.44-7.65,7.78,0,0,4.07-7.83,10.56,9.45a9.19,9.19,0,0,0-2-8.15s18.9-.31,14.54,9.22c0,0,23.91,13.53,7,32.69,0,0-4.48-4.33-13.3.37,0,0,18.54,6.22,20.89,22.63,0,0,5-7.19,1.29-12.31s36.26,4.49,16.76,23.59c0,0,9.41.24,7.63,8.32,0,0,21.69,7.27,9.75,19.11,0,0-9.46,11-18.68,9.15,0,0,18.49,5.59,15.27,17.86,0,0,41.51-10.71,22.62,23.83,0,0,63.41-6.32,50.07,30.82,0,0,19.51-16.35,32.65-3.26,0,0,2.62-14,11.64-10.8s22.61,18.38,11.92,28.81c0,0-5.14-4.22-7.3-5.69,0,0,7.13,10.5,4.53,17.36,0,0,10.14-4.4,6.46-8,0,0,33.33,2.08,19.91,15.52s-30.9,23.13-30.9,23.13L96,898.56,0,900Z" /><path class="cls-1" d="M1200,263c-2.93,4.82-12.16,28.94-40.49-6,0,0,4.78,19.2-19.85-12.09s1.51-51.07,1.51-51.07-36.77,6-30.5-28.72c0,0-30,5.85-15.92-18,0,0-29-11.81,14.1-23.82,0,0-35.33,6-35.2-12.51,0,0,2.53-15.11,6.89-18.62,0,0-54.16,8.6-50.29-24.75,0,0-10.47,10-18.59,0,0,0,.47,19.5-29,8.77s-11.67-31-11.67-31S931.4,47.5,942.82,26.6,972.92.73,972.92.73L1199.85,0Z" /><path class="cls-2" d="M1200,236c0,3.23-1.91,26.45-27.65,16.42,0,0,5-2,8.47-8.29,0,0-2,6.76-8.51-10.51,0,0-3.32,5.45,0,9.22,0,0-18.9.31-14.54-9.22,0,0-23.91-13.53-7-32.69,0,0,4.48,4.32,13.3-.37,0,0-18.54-6.23-20.9-22.63,0,0-5,7.18-1.28,12.3s-36.26-4.48-16.76-23.58c0,0-9.41-.24-7.63-8.32,0,0-21.69-7.27-9.75-19.11,0,0,9.46-11,18.67-9.15,0,0-18.48-5.59-15.26-17.87,0,0-41.51,10.71-22.62-23.83,0,0-63.41,6.33-50.07-30.81,0,0-19.51,16.35-32.65,3.26,0,0-2.62,14-11.64,10.8S971.62,53.22,982.3,42.79c0,0,5.15,4.22,7.31,5.69,0,0-7.13-10.5-4.53-17.36,0,0-10.14,4.4-6.46,8,0,0-33.33-2.08-19.91-15.52S989.61.49,989.61.49L1199.46,0Z" /><path class="cls-1" d="M1200,638c-2.34-5-11.55-28.89-39.87,6,0,0,4.77-19.21-19.86,12.08s1.51,51.08,1.51,51.08-36.76-6-30.5,28.72c0,0-30-5.86-15.92,18,0,0-29,11.8,14.1,23.82,0,0-35.33-6-35.19,12.51,0,0,2.52,15.11,6.88,18.62,0,0-54.15-8.6-50.29,24.75,0,0-10.47-10-18.59,0,0,0,.47-19.5-29-8.78s-11.68,31-11.68,31-39.62-2.29-28.2,18.61,30.11,25.88,30.11,25.88L1104,898.56l96,1.44Z" /><path class="cls-2" d="M1200,665.1c0-3.23-.09-26-25.83-15.92,0,0,4.13,1.44,7.65,7.78,0,0-4.07-7.83-10.56,9.45a9.19,9.19,0,0,1,2-8.15s-18.9-.31-14.54,9.22c0,0-23.91,13.53-7,32.69,0,0,4.48-4.33,13.3.37,0,0-18.54,6.22-20.89,22.63,0,0-5-7.19-1.29-12.31s-36.26,4.49-16.76,23.59c0,0-9.41.24-7.63,8.32,0,0-21.69,7.27-9.75,19.11,0,0,9.46,11,18.68,9.15,0,0-18.49,5.59-15.27,17.86,0,0-41.51-10.71-22.62,23.83,0,0-63.41-6.32-50.07,30.82,0,0-19.51-16.35-32.65-3.26,0,0-2.62-14-11.64-10.8s-22.61,18.38-11.92,28.81c0,0,5.14-4.22,7.3-5.69,0,0-7.13,10.5-4.53,17.36,0,0-10.14-4.4-6.46-8,0,0-33.33,2.08-19.91,15.52s30.9,23.13,30.9,23.13l113.37-2,96,1.44Z" /><path class="cls-1" d="M567.14,901.8c-1.83-4.55-3.36-26.76,34.84-23.07,0,0,.13-27.26,34-23.5S670.25,886,670.25,886s14.39-25.2,35-1.21c0,0,11.09-21.15,20.34,1.1,0,0,22.69-10.21,9.25,22.26,0,0,13.63-24.39,26.29-13.47,0,0,9.09,10.33,9.31,15,0,0,21.35-37,42.28-15.22,0,0-1.6-12,9.35-11,0,0-13.61-11.13,8.56-22.23s27.17,11.25,27.17,11.25,18.36-24.73,27-5.77S887.34,900,887.34,900Z" /><path class="cls-2" d="M611.43,900.21s-2.07-5.15-6.33-5.39c0,0,9.3-11.34,13.64-3.19,0,0-8.17-13.64,2.87-16.18s34.15-8.87,38.76,12.34c0,0-5.22.12-6.44,8.07,0,0,13.6-7.31,26,.9,0,0-2.4-7.17-7.8-8s21.32-18.78,24.62,3.9c0,0,4.9-5.42,9.54.36,0,0,15.91-8.55,18,5.42,0,0,2.81,12-3.12,16.37,0,0,13.14-7.64,19.94,1.43,0,0,13.54-30.76,27.73.58,0,0,27.57-41.14,46.34-11.54,0,0-1.41-21.08,14.19-21.19,0,0-8.29-9.73-1.56-13.18s24-2.61,25.77,9.8c0,0-5.49.57-7.58,1,0,0,10.79,1.92,14.19,7.47,0,0,2.09-8.56-2.26-8.51,0,0,16.65-21.33,24.87-7.62,6.88,11.48,2.19,26.93,2.19,26.93S661.8,897.81,611.43,900.21Z" /><path class="cls-1" d="M597,884.71s-5.34-26.88-55.37-8.16c0,0-6.88-25.36-43.22-18.34S472.23,880,472.23,880s-3.46-20.33-29.53-15.84-26,19.21-26,19.21,4.52-22.62-15.92-23.78-29.93,13.68-29.93,13.68S341.18,859.38,299.57,900l311.86.21Z" /><path class="cls-2" d="M354.83,880.56c1.78-1.11,11-.71,17.59,6.24,0,0-.61-8.73,4.31-11.17s23.42-18.39,33.84,4.56c0,0-7.47.24-11.49,2.88,0,0,17.61-.35,25.34,8.29l-3.89-7.83s12.56-23.14,42.27-10.48c0,0,3.17,2.88,9.43,7.51,0,0-.3-3.64,5.07-7.51s17.82-12.87,46.91-6.29c0,0,15.3,7.42,9.45,16.31,0,0,16.07-6.74,38.65-4.6s28.79,13.26,28.79,13.26,13.17-8.54,21.34,2.78,5.39,6.07,5.39,6.07L310.69,900C324.22,880.33,354.83,880.56,354.83,880.56Z" /></g></svg>