<svg xmlns="http://www.w3.org/2000/svg" viewBox="0 0 300 900" width="300" height="900" preserveAspectRatio="none"><defs><style>.cls-1{fill:#5d3213;}.cls-2{fill:#898b8d;}.cls-2,.cls-3,.cls-7,.cls-9{stroke:#808184;}.cls-2,.cls-9{stroke-miterlimit:10;}.cls-11,.cls-3,.cls-5,.cls-9{fill:#b1b3b5;}.cls-10,.cls-11,.cls-12,.cls-13,.cls-14,.cls-15,.cls-3,.cls-7{stroke-linejoin:round;}.cls-11,.cls-14,.cls-3,.cls-7{stroke-width:0.69px;}.cls-4{fill:#cec391;}.cls-6{fill:#808184;}.cls-7{fill:none;}.cls-8{fill:#8d8d8e;}.cls-9{stroke-width:0.5px;}.cls-10,.cls-12,.cls-13{fill:#c8e3dd;}.cls-10,.cls-12{stroke:#fff;}.cls-10{stroke-width:0.58px;}.cls-11{stroke:#606060;}.cls-12,.cls-13{stroke-linecap:round;stroke-width:1.15px;}.cls-13,.cls-14,.cls-15{stroke:#cec391;}.cls-14{fill:#f3e8ab;}.cls-15{fill:#e2d995;stroke-width:0.62px;}.cls-16{fill:#159848;}</style></defs><g id="room_foilage" data-name="room foilage"><polyline class="cls-1" points="51 628.54 45.2 799.2 254.7 803.7 248.31 628.28" /><polygon class="cls-2" points="240.94 729.41 243.6 795.03 52.51 792.81 57.38 700.59 240.94 729.41" /><polygon class="cls-3" points="241.81 751.18 59.4 737.78 57.83 607.92 240.06 605.26 241.81 751.18" /><path class="cls-4" d="M224.6,771a12.75,12.75,0,0,1,.82,1l.34,1.17.69,2.33,0,.13,0,.12-.61,2.83-.3,1.41c-.25.44-.5.88-.8,1.31-.09-.52-.14-1-.19-1.52l.31-1.41.61-2.83v.24l-.69-2.33-.34-1.17A12.16,12.16,0,0,1,224.6,771Z" /><path class="cls-4" d="M229.77,768.73a12.76,12.76,0,0,1,.78,1.08c.15.39.22.8.34,1.2l.63,2.39,0,.12,0,.12-.59,2.67c-.09.45-.21.89-.29,1.34a9.71,9.71,0,0,1-.79,1.22,9.22,9.22,0,0,1-.2-1.44c.12-.44.2-.89.3-1.34l.59-2.67v.24l-.64-2.4c-.09-.4-.23-.79-.29-1.2A12.26,12.26,0,0,1,229.77,768.73Z" /><path class="cls-4" d="M233.46,776.55c-.08-.5-.11-1-.14-1.48l.34-1.36.69-2.72v.26l-.77-2.78-.38-1.39a13.39,13.39,0,0,1,.1-1.53c.32.41.6.84.87,1.26l.38,1.39.76,2.78,0,.13,0,.13-.69,2.72-.34,1.36C234,775.73,233.77,776.15,233.46,776.55Z" /><polyline class="cls-5" points="242.9 783.11 244.17 787.91 242.99 793.25" /><path class="cls-6" d="M242.9,783.11a12.76,12.76,0,0,1,.78,1.08c.15.39.22.8.34,1.19l.63,2.4,0,.12,0,.12-.58,2.67c-.1.44-.21.89-.29,1.34a9.71,9.71,0,0,1-.79,1.22,10.64,10.64,0,0,1-.21-1.44c.12-.45.21-.89.31-1.34l.59-2.67V788l-.63-2.4c-.1-.4-.23-.79-.3-1.21A12.41,12.41,0,0,1,242.9,783.11Z" /><polygon class="cls-3" points="105.77 698.6 128.22 699.82 128.02 730.38 105.75 729.26 105.77 698.6" /><path class="cls-3" d="M126.61,723.12s-3.34,2.76-.2,5.77c0,0-3.74-2-5.92,0,0,0-4-2.38-6.11-.42,0,0-4.93-2.72-7.16-.21,0,0,1.93-2.18-.36-5.78a4.08,4.08,0,0,0,0-5.89s3-2.17.07-6.55c0,0,3.13-1.68.17-5,0,0,3-.72-.18-4.19,0,0,3.15,2.08,6.14,0,0,0,4.56,3.23,6.91.32a6.27,6.27,0,0,0,6.53.16s-2,1.68.3,4.2c0,0-3.53,1.1-.06,5.22,0,0-3.59,2.53-.24,6.94C126.51,717.67,123.17,720.44,126.61,723.12Z" /><polygon class="cls-3" points="218.13 703.99 215.52 741.7 149.25 737.98 147.1 702.34 218.13 703.99" /><polygon class="cls-3" points="213.81 707.79 151.28 706.94 153.99 735.99 212.1 738.75 213.81 707.79" /><polygon class="cls-3" points="195.91 751.61 195.32 761.41 196.82 761.56 197.61 750.25 195.91 751.61" /><polygon class="cls-3" points="191.11 769.25 197.94 756.54 198.7 744.16 191.26 755.87 191.11 769.25" /><polygon class="cls-3" points="144.74 740.41 132.73 751.98 192.65 755.82 199.77 743.29 144.74 740.41" /><polygon class="cls-3" points="191.11 760.45 189.43 771.87 188.06 771.94 188.52 760.23 191.11 760.45" /><polygon class="cls-3" points="134.24 756.45 133.92 768.65 135.26 768.89 137.12 756.13 134.24 756.45" /><polygon class="cls-3" points="133.62 752.07 133.75 765.46 190.94 769.58 191.44 755.79 133.62 752.07" /><path class="cls-3" d="M174.69,750.12s.26-3.07,7.18-3.84l6.91-.77,3.33-5.67H194l-1.61,5.67,1.61-1-.61,6.49-1.82-.65a44.32,44.32,0,0,1-9.42,1.16A17.37,17.37,0,0,1,174.69,750.12Z" /><line class="cls-7" x1="191.6" y1="750.38" x2="192.42" y2="745.51" /><path class="cls-8" d="M176,748.12l4.26.47.78-2.35S177.4,746.52,176,748.12Z" /><rect class="cls-7" x="175.4" y="751.71" width="1.13" height="1.3" rx="0.56" /><rect class="cls-7" x="189.13" y="752.07" width="1.47" height="1.47" rx="0.74" /><path class="cls-3" d="M176,751.71c.2-.05.29-1,.29-1" /><line class="cls-3" x1="189.86" y1="752.07" x2="189.4" y2="750.65" /><path class="cls-3" d="M140.22,749.56c-.16-.1-1-9.72-1-9.72s-.62-2,2.12-1.86a13.05,13.05,0,0,1,3.89.91s1.92.49,1.83,1.88c-.11,1.58,0,9,0,9A7.75,7.75,0,0,1,140.22,749.56Z" /><path class="cls-7" d="M139.26,739.62s.65,1.45,3.89,1.24c.95-.06,3.75-.24,3.54-1.17" /><path class="cls-6" d="M141.37,738.73s-2.54-.08-1.05.89c1.77,1.14,5,.22,5,.22S146.24,739.33,141.37,738.73Z" /><path class="cls-6" d="M140.94,743.94s-.57,2.78,1.3,2.59c1.16-.12.53-2.21.19-2.5S141.14,742.69,140.94,743.94Z" /><path class="cls-7" d="M139.55,744.23s1.36,1.77,7.55.62" /><path class="cls-9" d="M147.1,745.43l3-1.2.86,2.21-3.83,1.63Z" /><polygon class="cls-6" points="147.24 743.84 150.18 743.9 147 745.27 147.24 743.84" /><path class="cls-8" d="M147.1,745.43l3-1.2.65,2.16a39.47,39.47,0,0,1-3.62,1.68A25.76,25.76,0,0,0,147.1,745.43Z" /><polyline class="cls-3" points="58.94 751.68 79.19 754.12 57.83 778.35" /><polygon class="cls-3" points="79.19 754.12 78.78 756.62 61.3 777.63 60.77 775.01 79.19 754.12" /><path class="cls-3" d="M76.38,759.51l-.25,15.91s-.17.31-.75.29-.64-.29-.64-.29l-.2-13.64Z" /><ellipse class="cls-10" cx="223.23" cy="769.4" rx="6.07" ry="3.45" /><line class="cls-11" x1="220.31" y1="773.06" x2="218.78" y2="780.72" /><line class="cls-11" x1="219.72" y1="767.78" x2="218.19" y2="775.44" /><line class="cls-12" x1="225.93" y1="773.31" x2="227.13" y2="780.8" /><line class="cls-12" x1="227.47" y1="768.29" x2="228.66" y2="775.78" /><path class="cls-11" d="M221.59,766.2s.24-9.82-3.4-8.61c-2,.67-3.65,4.14-3.91,6.7,0,0,.11,4.6,3.51,6.63C217.79,770.92,221,768.63,221.59,766.2Z" /><path class="cls-11" d="M217.27,769.25l.92-.28a8.06,8.06,0,0,1,5-1.48c2.58,0,4.77.91,5.65,2.2l.47-.44s-.18,2.43-.25,2.51c-.39,1.69-2.8,2.62-5.87,2.62-2.77,0-4.84-.84-5.57-2.28Z" /><ellipse class="cls-11" cx="223.23" cy="769.4" rx="6.07" ry="3.45" /><ellipse class="cls-10" cx="216.86" cy="786.56" rx="6.07" ry="3.45" /><line class="cls-13" x1="213.95" y1="790.22" x2="212.41" y2="797.89" /><line class="cls-13" x1="213.35" y1="784.94" x2="211.82" y2="792.61" /><line class="cls-13" x1="219.57" y1="790.48" x2="220.76" y2="797.97" /><line class="cls-13" x1="221.1" y1="785.46" x2="222.29" y2="792.95" /><path class="cls-11" d="M215.22,783.37s.33-10.28-3.32-9.07c-4.59,1.53-5.11,11.24.9,14.82A33.57,33.57,0,0,0,215.22,783.37Z" /><path class="cls-14" d="M210.9,786.42l.92-.28a8.06,8.06,0,0,1,5-1.49c2.58,0,4.77.92,5.65,2.2l.47-.43s-.18,2.43-.24,2.51c-.4,1.68-2.8,2.62-5.88,2.62-2.77,0-4.84-.84-5.56-2.29Z" /><ellipse class="cls-11" cx="216.86" cy="786.56" rx="6.07" ry="3.45" /><polygon class="cls-15" points="221.88 791.55 222.05 796.14 241.12 797.34 241.97 792.74 221.88 791.55" /><polygon class="cls-11" points="241.57 762.71 226.96 762.22 220.52 791.67 242.99 793.25 241.57 762.71" /></g><g id="Grade_3" data-name="Grade 3"><ellipse class="cls-16" cx="163.46" cy="602.66" rx="1.78" ry="2.84" transform="translate(-444.83 743.72) rotate(-87.88)" /><ellipse class="cls-16" cx="163.46" cy="611.07" rx="1.78" ry="2.84" transform="translate(-453.23 751.81) rotate(-87.88)" /><polygon class="cls-16" points="170.51 602.96 245.63 600.34 252.05 800.42 47.95 797.77 56.56 603.01 127.88 603.41 129.16 610.07 66.35 610.27 62.53 787.67 238.67 787.46 233.21 609.08 169.14 609.65 170.51 602.96" /><polygon class="cls-16" points="173.3 608.37 126.7 608.8 126.75 605.89 172.91 604.91 173.3 608.37" /><ellipse class="cls-16" cx="163.46" cy="602.66" rx="1.78" ry="2.84" transform="translate(-444.83 743.72) rotate(-87.88)" /><ellipse class="cls-16" cx="163.46" cy="611.07" rx="1.78" ry="2.84" transform="translate(-453.23 751.81) rotate(-87.88)" /></g></svg>