<svg xmlns="http://www.w3.org/2000/svg" viewBox="0 0 300 900" width="300" height="900" preserveAspectRatio="none"><defs><style>.cls-1{fill:#5d3213;}.cls-2{fill:#f6edc3;}.cls-11,.cls-12,.cls-13,.cls-17,.cls-2,.cls-4,.cls-9{stroke:#cec391;}.cls-2,.cls-4{stroke-miterlimit:10;stroke-width:0.7px;}.cls-11,.cls-13,.cls-3{fill:#f3e8ab;}.cls-12,.cls-15,.cls-4{fill:none;}.cls-5{fill:#cec391;}.cls-6{fill:#f2e8aa;}.cls-7{fill:#b1b3b5;}.cls-8{fill:#808184;}.cls-9{fill:#e2d995;}.cls-10,.cls-11,.cls-12,.cls-13,.cls-14,.cls-15,.cls-16,.cls-17,.cls-18,.cls-9{stroke-linejoin:round;}.cls-12,.cls-9{stroke-width:0.62px;}.cls-10,.cls-14{fill:#f1e7a9;}.cls-10,.cls-14,.cls-15{stroke:#cdc290;}.cls-10{stroke-width:0.59px;}.cls-11{stroke-width:0.69px;}.cls-13,.cls-14,.cls-15{stroke-width:0.5px;}.cls-14,.cls-15,.cls-17,.cls-18{stroke-linecap:round;}.cls-16,.cls-17,.cls-18{fill:#c8e3dd;}.cls-16,.cls-18{stroke:#fff;}.cls-16{stroke-width:0.58px;}.cls-17,.cls-18{stroke-width:1.15px;}.cls-19{fill:#3090c1;}</style></defs><g id="room_foilage" data-name="room foilage"><polyline class="cls-1" points="52.25 628.54 46.45 799.2 255.95 803.7 249.55 628.28" /><polygon class="cls-2" points="242.19 729.41 244.85 795.03 53.75 792.81 58.63 700.59 242.19 729.41" /><polygon class="cls-3" points="243.06 751.18 60.64 737.78 59.07 607.92 241.3 605.26 243.06 751.18" /><polyline class="cls-4" points="241.3 605.26 243.06 751.18 60.64 737.78 59.07 607.92" /><path class="cls-5" d="M225.84,771a10.87,10.87,0,0,1,.82,1l.35,1.17.69,2.33,0,.13,0,.12-.6,2.83-.3,1.41c-.25.44-.5.88-.8,1.31a13.72,13.72,0,0,1-.19-1.52l.31-1.41.61-2.83v.24l-.69-2.33-.34-1.17A12.1,12.1,0,0,1,225.84,771Z" /><path class="cls-5" d="M231,768.73c.29.35.53.72.78,1.08s.22.8.33,1.2l.64,2.39,0,.12,0,.12-.59,2.67c-.09.45-.2.89-.28,1.34a9.71,9.71,0,0,1-.79,1.22,9.27,9.27,0,0,1-.21-1.44c.12-.44.2-.89.31-1.34l.59-2.67v.24l-.63-2.4c-.1-.4-.23-.79-.3-1.2A12.3,12.3,0,0,1,231,768.73Z" /><path class="cls-5" d="M234.71,776.55a12.58,12.58,0,0,1-.15-1.48l.35-1.36.68-2.72v.26l-.76-2.78-.39-1.39c0-.5,0-1,.11-1.53.32.41.59.84.86,1.26l.38,1.39.77,2.78,0,.13,0,.13-.68,2.72-.35,1.36C235.27,775.73,235,776.15,234.71,776.55Z" /><path class="cls-6" d="M170.79,603s-.52,45.3-52.56,38.7L129,609.43l-.86-6Z" /><path class="cls-6" d="M170.79,603s-.52,45.3-52.56,38.7L129,609.43l-.86-6Z" /><polyline class="cls-7" points="244.14 783.11 245.41 787.91 244.24 793.25" /><path class="cls-8" d="M244.14,783.11a10.86,10.86,0,0,1,.78,1.08c.15.39.23.8.34,1.19l.64,2.4,0,.12,0,.12-.59,2.67c-.09.44-.21.89-.28,1.34a9.81,9.81,0,0,1-.8,1.22,10.59,10.59,0,0,1-.2-1.44c.12-.45.2-.89.3-1.34l.59-2.67V788l-.64-2.4c-.09-.4-.23-.79-.29-1.21A12.34,12.34,0,0,1,244.14,783.11Z" /><polygon class="cls-9" points="107.01 698.6 129.47 699.82 129.27 730.38 107 729.26 107.01 698.6" /><path class="cls-10" d="M127.86,723.12s-3.34,2.76-.2,5.77c0,0-3.74-2-5.92,0,0,0-4-2.38-6.12-.42,0,0-4.92-2.72-7.16-.21,0,0,1.94-2.18-.35-5.78a4.08,4.08,0,0,0,0-5.89s3-2.17.06-6.55c0,0,3.13-1.68.17-5,0,0,3-.72-.17-4.19,0,0,3.15,2.08,6.13,0,0,0,4.56,3.23,6.91.32a6.28,6.28,0,0,0,6.53.16s-2,1.68.31,4.2c0,0-3.53,1.1-.06,5.22,0,0-3.6,2.53-.24,6.94C127.76,717.67,124.42,720.44,127.86,723.12Z" /><polygon class="cls-9" points="219.38 703.99 216.76 741.7 150.5 737.98 148.34 702.34 219.38 703.99" /><polygon class="cls-11" points="215.06 707.79 152.53 706.94 155.23 735.99 213.35 738.75 215.06 707.79" /><polygon class="cls-9" points="197.15 751.61 196.56 761.41 198.06 761.56 198.85 750.25 197.15 751.61" /><polygon class="cls-9" points="192.35 769.25 199.18 756.54 199.95 744.16 192.51 755.87 192.35 769.25" /><polygon class="cls-11" points="145.98 740.41 133.98 751.98 193.89 755.82 201.02 743.29 145.98 740.41" /><polygon class="cls-9" points="192.35 760.45 190.68 771.87 189.31 771.94 189.77 760.23 192.35 760.45" /><polygon class="cls-9" points="135.48 756.45 135.16 768.65 136.51 768.89 138.37 756.13 135.48 756.45" /><polygon class="cls-9" points="134.87 752.07 135 765.46 192.18 769.58 192.69 755.79 134.87 752.07" /><path class="cls-10" d="M175.94,750.12s.26-3.07,7.17-3.84l6.92-.77,3.33-5.67h1.91l-1.61,5.67,1.61-1-.6,6.49-1.82-.65a44.44,44.44,0,0,1-9.42,1.16A17.37,17.37,0,0,1,175.94,750.12Z" /><line class="cls-10" x1="192.85" y1="750.38" x2="193.66" y2="745.51" /><path class="cls-5" d="M177.26,748.12l4.25.47.79-2.35S178.65,746.52,177.26,748.12Z" /><rect class="cls-10" x="176.65" y="751.71" width="1.13" height="1.3" rx="0.56" /><rect class="cls-10" x="190.38" y="752.07" width="1.47" height="1.47" rx="0.74" /><path class="cls-10" d="M177.21,751.71c.21-.05.3-1,.3-1" /><line class="cls-11" x1="191.11" y1="752.07" x2="190.64" y2="750.65" /><path class="cls-9" d="M141.47,749.56c-.17-.1-1-9.72-1-9.72s-.62-2,2.12-1.86a13,13,0,0,1,3.89.91s1.92.49,1.83,1.88c-.1,1.58,0,9,0,9A7.76,7.76,0,0,1,141.47,749.56Z" /><path class="cls-12" d="M140.5,739.62s.65,1.45,3.89,1.24c1-.06,3.76-.24,3.54-1.17" /><path class="cls-5" d="M142.61,738.73s-2.53-.08-1,.89c1.77,1.14,4.94.22,4.94.22S147.49,739.33,142.61,738.73Z" /><path class="cls-5" d="M142.19,743.94s-.58,2.78,1.3,2.59c1.16-.12.52-2.21.19-2.5S142.38,742.69,142.19,743.94Z" /><path class="cls-4" d="M140.8,744.23s1.36,1.77,7.55.62" /><path class="cls-13" d="M148.35,745.43l3-1.2.86,2.21-3.83,1.63Z" /><line class="cls-13" x1="148.48" y1="743.84" x2="151.32" y2="744.23" /><path class="cls-5" d="M148.35,745.43l3-1.2.65,2.16a39.47,39.47,0,0,1-3.62,1.68C148.43,747.88,148.35,745.43,148.35,745.43Z" /><polyline class="cls-14" points="60.19 751.68 80.44 754.12 59.07 778.35" /><polygon class="cls-9" points="80.44 754.12 80.03 756.62 62.55 777.63 62.02 775.01 80.44 754.12" /><path class="cls-15" d="M77.63,759.51l-.26,15.91a.77.77,0,0,1-.74.29c-.59,0-.65-.29-.65-.29l-.19-13.64Z" /><ellipse class="cls-16" cx="224.48" cy="769.4" rx="6.07" ry="3.45" /><line class="cls-17" x1="221.56" y1="773.06" x2="220.03" y2="780.72" /><line class="cls-17" x1="220.96" y1="767.78" x2="219.43" y2="775.44" /><line class="cls-18" x1="227.18" y1="773.31" x2="228.37" y2="780.8" /><line class="cls-18" x1="228.71" y1="768.29" x2="229.9" y2="775.78" /><path class="cls-11" d="M222.84,766.2s.24-9.82-3.41-8.61c-2,.67-3.64,4.14-3.9,6.7,0,0,.1,4.6,3.51,6.63C219,770.92,222.2,768.63,222.84,766.2Z" /><path class="cls-11" d="M218.52,769.25l.92-.28a8,8,0,0,1,5-1.48c2.57,0,4.77.91,5.65,2.2l.46-.44s-.17,2.43-.24,2.51c-.4,1.69-2.8,2.62-5.87,2.62-2.78,0-4.85-.84-5.57-2.28Z" /><ellipse class="cls-11" cx="224.48" cy="769.4" rx="6.07" ry="3.45" /><ellipse class="cls-16" cx="218.11" cy="786.56" rx="6.07" ry="3.45" /><line class="cls-17" x1="215.19" y1="790.22" x2="213.66" y2="797.89" /><line class="cls-17" x1="214.6" y1="784.94" x2="213.06" y2="792.61" /><line class="cls-17" x1="220.81" y1="790.48" x2="222" y2="797.97" /><line class="cls-17" x1="222.34" y1="785.46" x2="223.54" y2="792.95" /><path class="cls-11" d="M216.47,783.37s.32-10.28-3.32-9.07c-4.6,1.53-5.11,11.24.89,14.82A33.27,33.27,0,0,0,216.47,783.37Z" /><path class="cls-11" d="M212.15,786.42l.92-.28a8,8,0,0,1,5-1.49c2.57,0,4.77.92,5.65,2.2l.46-.43s-.17,2.43-.24,2.51c-.4,1.68-2.8,2.62-5.87,2.62-2.78,0-4.85-.84-5.57-2.29Z" /><ellipse class="cls-11" cx="218.11" cy="786.56" rx="6.07" ry="3.45" /><polygon class="cls-9" points="223.12 791.55 223.29 796.14 242.36 797.34 243.21 792.74 223.12 791.55" /><polygon class="cls-11" points="242.81 762.71 228.2 762.22 221.76 791.67 244.24 793.25 242.81 762.71" /></g><g id="Grade_4" data-name="Grade 4"><polygon class="cls-19" points="170.51 602.79 245.63 600.17 252.05 800.26 47.95 797.61 56.56 602.85 127.88 603.25 129.16 609.9 66.35 610.11 62.53 787.51 238.67 787.3 233.21 608.92 169.14 609.49 170.51 602.79" /><polygon class="cls-19" points="129.63 612.11 99.15 625.86 97.51 622.45 128.61 609.49 129.63 612.11" /><ellipse class="cls-19" cx="106.59" cy="625.99" rx="2.84" ry="1.78" transform="translate(-274.79 118.27) rotate(-27.25)" /><ellipse class="cls-19" cx="103.22" cy="617.79" rx="2.84" ry="1.78" transform="translate(-271.41 115.82) rotate(-27.25)" /></g></svg>