<svg xmlns="http://www.w3.org/2000/svg" viewBox="0 0 600 900" width="600" height="900" preserveAspectRatio="none"><defs><style>.cls-1{fill:#cedada;}.cls-2{fill:#fff;}</style></defs><g id="Clouds"><path class="cls-1" d="M277.57,901.8c-1.83-4.55-3.35-26.76,34.85-23.07,0,0,.12-27.26,34-23.5S380.69,886,380.69,886s14.39-25.2,35.05-1.21c0,0,11.09-21.15,20.33,1.1,0,0,22.7-10.21,9.25,22.26,0,0,13.64-24.39,26.29-13.47,0,0,9.1,10.33,9.32,15,0,0,21.34-37,42.28-15.22,0,0-1.61-12,9.35-11,0,0-13.61-11.13,8.56-22.23s27.16,11.25,27.16,11.25,18.37-24.73,27-5.77S597.77,900,597.77,900Z" /><path class="cls-2" d="M321.86,900.21s-2.07-5.15-6.32-5.39c0,0,9.29-11.34,13.64-3.19,0,0-8.17-13.64,2.86-16.18s34.15-8.87,38.77,12.34c0,0-5.23.12-6.44,8.07,0,0,13.6-7.31,26,.9,0,0-2.41-7.17-7.8-8s21.32-18.78,24.62,3.9c0,0,4.89-5.42,9.54.36,0,0,15.9-8.55,18,5.42,0,0,2.8,12-3.12,16.37,0,0,13.14-7.64,19.94,1.43,0,0,13.53-30.76,27.73.58,0,0,27.56-41.14,46.33-11.54,0,0-1.4-21.08,14.19-21.19,0,0-8.28-9.73-1.55-13.18s24-2.61,25.77,9.8c0,0-5.49.57-7.58,1,0,0,10.79,1.92,14.19,7.47,0,0,2.08-8.56-2.26-8.51,0,0,16.65-21.33,24.86-7.62,6.89,11.48,2.2,26.93,2.2,26.93S372.24,897.81,321.86,900.21Z" /><path class="cls-1" d="M307.43,884.71s-5.34-26.88-55.38-8.16c0,0-6.87-25.36-43.22-18.34S182.67,880,182.67,880s-3.47-20.33-29.53-15.84-26,19.21-26,19.21,4.52-22.62-15.92-23.78-29.92,13.68-29.92,13.68S51.62,859.38,10,900l311.86.21Z" /><path class="cls-2" d="M65.26,880.56c1.79-1.11,11-.71,17.59,6.24,0,0-.6-8.73,4.31-11.17s23.43-18.39,33.84,4.56c0,0-7.46.24-11.49,2.88,0,0,17.61-.35,25.35,8.29L131,883.53s12.56-23.14,42.26-10.48c0,0,3.17,2.88,9.44,7.51,0,0-.3-3.64,5.06-7.51s17.83-12.87,46.91-6.29c0,0,15.3,7.42,9.45,16.31,0,0,16.08-6.74,38.66-4.6s28.78,13.26,28.78,13.26,13.17-8.54,21.35,2.78,5.38,6.07,5.38,6.07L21.12,900C34.65,880.33,65.26,880.56,65.26,880.56Z" /></g></svg>