<svg xmlns="http://www.w3.org/2000/svg" viewBox="0 0 300 900" width="300" height="900" preserveAspectRatio="none"><defs><style>.cls-1{fill:#5d3213;}.cls-19,.cls-2,.cls-20,.cls-21,.cls-23,.cls-25,.cls-5,.cls-9{fill:#b1b3b5;}.cls-3{fill:#898b8d;}.cls-4{fill:#808184;}.cls-10,.cls-11,.cls-12,.cls-13,.cls-14,.cls-16,.cls-19,.cls-20,.cls-21,.cls-22,.cls-23,.cls-24,.cls-25,.cls-5,.cls-6,.cls-7,.cls-8,.cls-9{stroke:#808184;}.cls-10,.cls-11,.cls-12,.cls-13,.cls-14,.cls-15,.cls-16,.cls-17,.cls-18,.cls-19,.cls-20,.cls-21,.cls-22,.cls-24,.cls-25,.cls-5,.cls-6,.cls-7,.cls-8,.cls-9{stroke-linejoin:round;}.cls-5,.cls-6{stroke-width:0.69px;}.cls-22,.cls-6{fill:#f3e8ab;}.cls-7{fill:#cec391;stroke-width:0.75px;}.cls-10,.cls-12,.cls-13,.cls-24,.cls-8{fill:none;}.cls-8{stroke-width:0.46px;}.cls-10,.cls-11,.cls-12,.cls-14,.cls-9{stroke-width:0.38px;}.cls-11,.cls-14,.cls-15,.cls-16,.cls-17,.cls-18{fill:#c8e3dd;}.cls-11,.cls-12,.cls-13,.cls-16,.cls-17,.cls-18,.cls-22{stroke-linecap:round;}.cls-13,.cls-15{stroke-width:0.58px;}.cls-15,.cls-17{stroke:#fff;}.cls-16,.cls-17,.cls-18{stroke-width:1.15px;}.cls-18{stroke:#cec391;}.cls-19{stroke-width:0.38px;}.cls-20{stroke-width:0.28px;}.cls-21{stroke-width:0.32px;}.cls-22{stroke-width:0.5px;}.cls-23{stroke-miterlimit:10;}.cls-24,.cls-25{stroke-width:0.25px;}.cls-26{fill:#3090c1;}</style></defs><g id="rooms"><polyline class="cls-1" points="51.96 628.54 46.16 799.2 255.66 803.7 249.27 628.28" /><polygon class="cls-2" points="238.65 608.97 61.57 608.97 57.59 796.61 239.25 796.61 238.65 608.97" /><polygon class="cls-3" points="66.9 731.48 118.12 727.86 239.76 719.24 243.1 795.92 54.1 791.61 57.44 732.04 66.9 731.48" /><path class="cls-4" d="M235.09,607.72l-1.21,1,8.26.11V718.33L60.72,731.65c-.36-21-2-116-2.52-124.16.33,0,.89-.07,1.65-.1l-1-.9c-1.45.09-1.53.2-1.61.31l-.17.18.09.24c.34,1.95,1.81,82.6,2.54,125v.53l183.4-13.47V607.83h-.49Z" /><polygon class="cls-5" points="203.07 691.24 201.8 707.09 153.78 708.99 153.14 690.92 203.07 691.24" /><line class="cls-6" x1="202.12" y1="699.17" x2="153.46" y2="699.8" /><line class="cls-6" x1="194.67" y1="691.4" x2="193.72" y2="707.57" /><line class="cls-6" x1="184.21" y1="691.4" x2="183.73" y2="707.88" /><line class="cls-6" x1="173.43" y1="691.08" x2="173.75" y2="708.04" /><line class="cls-6" x1="163.6" y1="691.08" x2="163.76" y2="708.71" /><polygon class="cls-5" points="107.13 735.12 107.03 737.42 105.38 737.26 104.7 735.1 107.13 735.12" /><polygon class="cls-5" points="73.93 735.71 74.44 738.27 75.84 738.27 76.74 735.72 73.93 735.71" /><polygon class="cls-5" points="108.94 693.17 108.15 735.15 73.07 736.14 71.49 693.37 108.94 693.17" /><line class="cls-7" x1="91.2" y1="721.36" x2="91.4" y2="735.55" /><line class="cls-8" x1="93.69" y1="726.06" x2="93.58" y2="729.55" /><line class="cls-8" x1="88.84" y1="726.17" x2="88.95" y2="729.66" /><polyline class="cls-5" points="108.57 720.31 105.12 715.59 75.62 716.1 72.69 721.21" /><polygon class="cls-5" points="72.3 709.33 75.11 704.09 104.61 703.58 108.19 708.43 72.3 709.33" /><line class="cls-7" x1="72.87" y1="721.36" x2="108.35" y2="720.57" /><path class="cls-9" d="M104.44,716.72,103.17,713l.82-2.13-6.26.14,1,2.22-.74,3.56a.6.6,0,0,0-.1.3c0,.7,1.52,1.28,3.39,1.28s3.38-.58,3.38-1.28A.62.62,0,0,0,104.44,716.72Z" /><ellipse class="cls-9" cx="100.84" cy="711.16" rx="3.19" ry="0.98" /><path class="cls-10" d="M98.48,714.14a3,3,0,0,0,2.09.59" /><path class="cls-10" d="M98.27,715.33s.21.47,1.66.55" /><path class="cls-10" d="M98.14,716.14s0,.89,2.26.89" /><path class="cls-9" d="M95.67,717.31V711.5H90.05v5.81a.31.31,0,0,0-.08.19c0,.45,1.29.81,2.89.81s2.9-.36,2.9-.81A.28.28,0,0,0,95.67,717.31Z" /><ellipse class="cls-9" cx="92.91" cy="711.8" rx="3.07" ry="0.98" /><path class="cls-11" d="M95.63,713.93s-.68.55-2.77.34" /><path class="cls-11" d="M95.59,715s-.23.4-2.06.34" /><path class="cls-12" d="M95.63,716s-.47.77-2.72.51" /><rect class="cls-9" x="84.77" y="711.8" width="2" height="7.32" rx="1" /><rect class="cls-9" x="81.5" y="711.86" width="2" height="7.32" rx="1" /><rect class="cls-9" x="77.96" y="711.8" width="2" height="7.32" rx="1" /><ellipse class="cls-9" cx="85.78" cy="712.26" rx="1.26" ry="0.59" /><ellipse class="cls-9" cx="82.45" cy="712.34" rx="1.26" ry="0.6" /><ellipse class="cls-9" cx="78.92" cy="712.31" rx="1.26" ry="0.64" /><polyline class="cls-10" points="77.96 714.01 76.35 714.01 76.35 718.91" /><polyline class="cls-10" points="86.82 713.84 88.39 713.8 88.39 718.82" /><line class="cls-13" x1="87.67" y1="717.33" x2="88.99" y2="719.97" /><line class="cls-13" x1="77.07" y1="717.37" x2="75.62" y2="720.1" /><line class="cls-14" x1="84.77" y1="713.93" x2="83.54" y2="713.93" /><line class="cls-14" x1="81.47" y1="713.97" x2="79.81" y2="713.97" /><polygon class="cls-5" points="108.94 693.17 105.25 687.62 73.83 687.62 71.49 693.37 108.94 693.17" /><ellipse class="cls-9" cx="99.69" cy="703.45" rx="3.77" ry="2.55" /><path class="cls-9" d="M102.61,699.91l0,1.72s-2.18,2.21-5.89.2l0-1.92Z" /><ellipse class="cls-9" cx="99.66" cy="699.91" rx="2.94" ry="1.22" /><ellipse class="cls-9" cx="85.65" cy="703.78" rx="2.41" ry="1.63" /><path class="cls-9" d="M87.51,701.52v1.09s-1.38,1.41-3.75.13l0-1.22Z" /><ellipse class="cls-9" cx="85.63" cy="701.52" rx="1.88" ry="0.78" /><ellipse class="cls-9" cx="87.9" cy="705.53" rx="2.41" ry="1.63" /><path class="cls-9" d="M89.76,703.26l0,1.1s-1.39,1.41-3.76.13l0-1.23Z" /><ellipse class="cls-9" cx="87.88" cy="703.26" rx="1.88" ry="0.78" /><path class="cls-9" d="M94.84,705.69c-.74,1.21-3.25,1-3.64,0v-8.75h3.64Z" /><path class="cls-9" d="M95.24,697l0,1.66a4.34,4.34,0,0,1-4.25-.12l0-1.62Z" /><ellipse class="cls-9" cx="93.1" cy="696.98" rx="2.14" ry="0.73" /><path class="cls-9" d="M82.18,706.14c-1.49,1.57-5.66,1.49-7,0l-.6-9.07,7.79,0Z" /><path class="cls-9" d="M83.54,696.86c0,.31-.55.72-1.58,1.28a7.6,7.6,0,0,1-3.36.67c-2.23,0-4-.68-4-1.53s1.81-1.53,4-1.53a7.79,7.79,0,0,1,3.36.68C82.65,696.77,83.54,696.54,83.54,696.86Z" /><polygon class="cls-5" points="120.78 722.91 121.58 735.93 122.94 736 123.36 723.83 120.78 722.91" /><polygon class="cls-5" points="126.49 735.76 120.46 723.01 120.28 718.05 126.58 730.06 126.49 735.76" /><polygon class="cls-5" points="126.31 734.64 126.93 746.13 128.28 746.26 128.9 734.52 126.31 734.64" /><polygon class="cls-5" points="183.03 732.8 182.24 745.03 180.88 745.21 180.21 732.37 183.03 732.8" /><polygon class="cls-5" points="184.04 728.44 183.45 733.55 126.41 735.51 126.41 729.97 184.04 728.44" /><polyline class="cls-5" points="181.41 728.53 181.15 732.19 167.36 732.44 167.19 728.87" /><polyline class="cls-5" points="165.14 729.12 164.89 732.61 148.63 732.87 148.46 729.46" /><polyline class="cls-5" points="129.13 730.06 129.22 733.55 146.07 733.04 146.33 729.46" /><path class="cls-13" d="M177,729.93s.94.8.38.83c-.94.06-5.34.11-5.34.11l.48-.73" /><path class="cls-13" d="M159.7,730.34s.77.7.42.81-6.46.17-6.46.17-.1-.42.56-.8" /><path class="cls-13" d="M140.87,731s.67.67.35.81-6.53.1-6.53.1l.6-.81" /><ellipse class="cls-15" cx="168.78" cy="737.47" rx="6.07" ry="3.45" /><line class="cls-16" x1="171.7" y1="741.13" x2="173.23" y2="748.79" /><line class="cls-16" x1="172.29" y1="735.85" x2="173.83" y2="743.51" /><line class="cls-16" x1="166.08" y1="741.38" x2="164.89" y2="748.87" /><line class="cls-16" x1="164.55" y1="736.36" x2="163.36" y2="743.85" /><path class="cls-5" d="M174.74,737.32l-.92-.28a8,8,0,0,0-5-1.48c-2.57,0-4.77.91-5.65,2.2l-.46-.44s.17,2.43.24,2.51c.4,1.69,2.8,2.62,5.87,2.62,2.78,0,4.85-.84,5.57-2.28Z" /><ellipse class="cls-5" cx="168.78" cy="737.47" rx="6.07" ry="3.45" /><polygon class="cls-5" points="190.33 721.68 191.13 734.71 192.48 734.77 192.91 722.61 190.33 721.68" /><polygon class="cls-5" points="196.04 734.54 190.01 721.79 189.82 716.83 196.13 728.84 196.04 734.54" /><polygon class="cls-5" points="195.86 733.42 196.48 744.91 197.83 745.04 198.44 733.3 195.86 733.42" /><polygon class="cls-5" points="246.97 727.59 246.38 732.7 195.96 734.29 195.96 728.75 246.97 727.59" /><polyline class="cls-5" points="234.69 727.9 234.44 731.39 218.18 731.65 218 728.24" /><polyline class="cls-5" points="198.68 728.84 198.76 732.33 215.62 731.82 215.88 728.24" /><path class="cls-13" d="M229.25,729.12s.77.7.42.81-6.46.17-6.46.17-.11-.42.56-.8" /><path class="cls-13" d="M210.42,729.82s.67.66.35.8-6.53.11-6.53.11l.6-.81" /><polygon class="cls-5" points="238.78 715.14 249.63 727.16 194.76 728.74 188.84 715.92 238.78 715.14" /><ellipse class="cls-15" cx="75.68" cy="745.5" rx="6.07" ry="3.45" /><line class="cls-16" x1="78.6" y1="749.16" x2="80.13" y2="756.82" /><line class="cls-16" x1="79.19" y1="743.88" x2="80.72" y2="751.54" /><line class="cls-17" x1="72.98" y1="749.41" x2="71.78" y2="756.91" /><line class="cls-17" x1="71.44" y1="744.39" x2="70.25" y2="751.88" /><path class="cls-5" d="M77.32,742.31S77,732,80.64,733.24c4.6,1.53,5.11,11.24-.89,14.81A33.4,33.4,0,0,1,77.32,742.31Z" /><path class="cls-5" d="M81.64,745.35l-.92-.28a8.11,8.11,0,0,0-5-1.48c-2.58,0-4.77.91-5.65,2.2l-.47-.44s.18,2.44.25,2.51c.39,1.69,2.8,2.63,5.87,2.63,2.77,0,4.84-.85,5.57-2.29Z" /><ellipse class="cls-5" cx="75.68" cy="745.5" rx="6.07" ry="3.45" /><ellipse class="cls-15" cx="82.05" cy="762.66" rx="6.07" ry="3.45" /><line class="cls-16" x1="84.96" y1="766.32" x2="86.5" y2="773.99" /><line class="cls-16" x1="85.56" y1="761.05" x2="87.09" y2="768.71" /><line class="cls-16" x1="79.35" y1="766.58" x2="78.15" y2="774.07" /><line class="cls-18" x1="77.81" y1="761.56" x2="76.62" y2="769.05" /><path class="cls-5" d="M83.69,759.47s-.33-10.28,3.32-9.07c4.6,1.54,5.11,11.24-.9,14.82A33.57,33.57,0,0,1,83.69,759.47Z" /><path class="cls-5" d="M88,762.52l-.92-.28a8.06,8.06,0,0,0-5-1.48c-2.58,0-4.77.91-5.65,2.2l-.47-.44s.18,2.43.24,2.51c.4,1.69,2.81,2.62,5.88,2.62,2.77,0,4.84-.84,5.57-2.29Z" /><ellipse class="cls-5" cx="82.05" cy="762.66" rx="6.07" ry="3.45" /><polygon class="cls-5" points="73.2 770.45 73.81 781.94 75.16 782.06 75.78 770.32 73.2 770.45" /><polygon class="cls-5" points="59.41 770.45 60.02 781.94 61.37 782.06 61.99 770.32 59.41 770.45" /><polygon class="cls-5" points="77.03 767.65 76.86 772.25 57.79 773.44 56.94 768.84 77.03 767.65" /><polygon class="cls-5" points="57.34 738.81 71.95 738.32 78.39 767.77 55.92 769.35 57.34 738.81" /><path class="cls-9" d="M208.34,716.68v2.58c0,.39.83.71,1.85.71s1.85-.32,1.85-.71v-2.75Z" /><path class="cls-9" d="M211.36,716a2.3,2.3,0,0,1-.25-.48h-1.87a1.1,1.1,0,0,1-.11.45c-.46.13-.79.33-.79.57s.83.7,1.85.7,1.85-.31,1.85-.7C212,716.29,211.77,716.1,211.36,716Z" /><ellipse class="cls-9" cx="210.19" cy="715.21" rx="1.45" ry="0.56" /><path class="cls-9" d="M204.7,719.05v1.8c0,.28.58.5,1.29.5s1.3-.22,1.3-.5v-1.93Z" /><path class="cls-9" d="M206.81,718.55a1.87,1.87,0,0,1-.18-.34h-1.31a.76.76,0,0,1-.07.32c-.33.09-.55.23-.55.39s.58.5,1.29.5,1.3-.22,1.3-.5S207.1,718.64,206.81,718.55Z" /><ellipse class="cls-9" cx="205.99" cy="718.01" rx="1.02" ry="0.39" /><path class="cls-9" d="M199.35,716.47v2.93c0,.44.94.8,2.09.8s2.1-.36,2.1-.8v-3.13Z" /><path class="cls-9" d="M202.77,715.66a2.51,2.51,0,0,1-.28-.55h-2.13a1.25,1.25,0,0,1-.12.52c-.53.15-.89.37-.89.64,0,.45.94.81,2.09.81s2.1-.36,2.1-.81C203.54,716,203.23,715.81,202.77,715.66Z" /><ellipse class="cls-9" cx="201.44" cy="714.79" rx="1.65" ry="0.63" /><polygon class="cls-5" points="174.09 716.36 184.93 728.38 125.21 729.96 119.3 717.15 174.09 716.36" /><polygon class="cls-19" points="219.19 720.12 218.81 722.01 234.35 721.68 233.97 719.88 219.19 720.12" /><polygon class="cls-19" points="217.2 716.82 216.65 718.24 218.92 721.95 219.19 720.12 217.2 716.82" /><polygon class="cls-19" points="217.2 716.82 219.19 720.12 233.97 719.88 231.33 716.63 217.2 716.82" /><ellipse class="cls-20" cx="220.33" cy="718.36" rx="1.25" ry="0.48" /><ellipse class="cls-21" cx="230.61" cy="718.25" rx="1.26" ry="0.47" /><line class="cls-22" x1="230.61" y1="716.21" x2="230.61" y2="718.18" /><line class="cls-22" x1="220.33" y1="715.87" x2="220.33" y2="718.34" /><ellipse class="cls-20" cx="220.33" cy="714.86" rx="2.72" ry="0.98" /><ellipse class="cls-19" cx="220.14" cy="713.84" rx="3.64" ry="1.31" /><ellipse class="cls-20" cx="230.61" cy="716.29" rx="2.72" ry="0.98" /><ellipse class="cls-23" cx="230.61" cy="715.04" rx="3.64" ry="1.31" /><path class="cls-2" d="M230.61,716.55c-1.86,0-3.83-.53-3.83-1.51s2-1.5,3.83-1.5,3.83.53,3.83,1.5S232.47,716.55,230.61,716.55Z" /><polygon class="cls-9" points="137.94 717.99 141.34 722.84 131.91 723.24 129.17 718.34 137.94 717.99" /><polygon class="cls-9" points="140.81 715.54 142.75 718.49 134.81 718.92 133.17 715.94 140.81 715.54" /><polygon class="cls-9" points="135.31 721.51 135.31 715.95 130.97 716.03 130.97 721.59 135.31 721.51" /><polygon class="cls-9" points="129.91 714.39 129.91 719.28 130.97 721.59 130.97 715.95 129.91 714.39" /><ellipse class="cls-9" cx="134.04" cy="718.79" rx="1.62" ry="1.47" /><polygon class="cls-9" points="129.91 714.39 133.51 714.39 135.31 715.95 130.97 715.95 129.91 714.39" /><polygon class="cls-9" points="141.34 722.84 141.81 723.94 131.32 724.45 131.91 723.24 141.34 722.84" /><polygon class="cls-9" points="129.25 718.34 128.58 719.24 131.32 724.41 131.91 723.24 129.25 718.34" /><path class="cls-9" d="M139.65,712.39l.58,2a1.78,1.78,0,0,1-1.59.1l.07-2.13Z" /><path class="cls-9" d="M140.84,712l1,1.18c.12.2-.41.94-1,.78l-.74-1.66Z" /><path class="cls-9" d="M137.76,712.22l-1,1.19c-.12.19.42.94,1,.77l.75-1.65Z" /><path class="cls-9" d="M136.71,712.46a2.52,2.52,0,0,1,2.23-2.44c1-.2,2.17.88,2.4,2a2.26,2.26,0,0,1-2,1.15C138.72,713.19,137.08,713.07,136.71,712.46Z" /><path class="cls-9" d="M140.26,710.81l-1.1-7.4-2.86.34s1,7.28,1,7.34c0,.37.73.6,1.54.53S140.29,711.18,140.26,710.81Z" /><ellipse class="cls-9" cx="137.69" cy="703.55" rx="1.48" ry="0.67" transform="translate(-66.48 16.34) rotate(-5.47)" /><path class="cls-9" d="M132.53,715.84a24.64,24.64,0,0,1,.3-4.52c.18-1.15,2.24-2.5,4.61-2.1-.72-.46-.59-.74-.57-.9,0,0-5.39-.61-5.39,3.13l0,2.82Z" /><path class="cls-9" d="M137.35,710.05s-3.21-.56-3.73,1.58c-.05.21-.07,1.35-.07,1.35l0,3-1,0v-3.83s-.41-3.33,4.81-2.94Z" /><path class="cls-9" d="M172.17,718.38l-1.27-3.68.81-2.13-6.25.13.95,2.22-.74,3.56a.6.6,0,0,0-.1.3c0,.71,1.52,1.28,3.38,1.28s3.39-.57,3.39-1.28A.62.62,0,0,0,172.17,718.38Z" /><ellipse class="cls-9" cx="168.56" cy="712.82" rx="3.19" ry="0.98" /><path class="cls-10" d="M166.21,715.8a3.05,3.05,0,0,0,2.09.6" /><path class="cls-10" d="M166,717s.21.47,1.66.56" /><path class="cls-10" d="M165.87,717.8s0,.9,2.25.9" /><path class="cls-9" d="M164.18,721.3v-5.81h-5.62v5.81a.28.28,0,0,0-.09.19c0,.45,1.3.81,2.9.81s2.89-.36,2.89-.81A.31.31,0,0,0,164.18,721.3Z" /><ellipse class="cls-9" cx="161.41" cy="715.79" rx="3.07" ry="0.98" /><path class="cls-11" d="M164.13,717.92s-.68.55-2.76.34" /><path class="cls-11" d="M164.09,719s-.23.4-2.06.35" /><path class="cls-12" d="M164.13,720s-.47.77-2.72.51" /><path class="cls-9" d="M170.92,724.66c1.49,1.58,5.66,1.49,7,0l.6-9.06-7.79,0Z" /><path class="cls-9" d="M169.56,715.38c0,.32.55.72,1.58,1.28a7.44,7.44,0,0,0,3.36.68c2.23,0,4-.69,4-1.53s-1.81-1.54-4-1.54a7.94,7.94,0,0,0-3.36.68C170.45,715.3,169.56,715.06,169.56,715.38Z" /><path class="cls-5" d="M172.43,740s3.61-10.13-.14-12.43c-3.27-2-11.49-1.53-6.89,12.52A8.53,8.53,0,0,0,172.43,740Z" /><ellipse class="cls-15" cx="214.32" cy="736.07" rx="6.07" ry="3.45" /><line class="cls-16" x1="217.24" y1="739.74" x2="218.77" y2="747.4" /><line class="cls-16" x1="217.84" y1="734.46" x2="219.37" y2="742.12" /><line class="cls-16" x1="211.62" y1="739.99" x2="210.43" y2="747.48" /><line class="cls-16" x1="210.09" y1="734.97" x2="208.9" y2="742.46" /><path class="cls-5" d="M220.28,735.93l-.92-.28a8,8,0,0,0-5-1.48c-2.57,0-4.77.91-5.65,2.2l-.46-.44s.17,2.43.24,2.51c.4,1.69,2.8,2.62,5.87,2.62,2.78,0,4.85-.84,5.57-2.29Z" /><ellipse class="cls-5" cx="214.32" cy="736.07" rx="6.07" ry="3.45" /><path class="cls-5" d="M218,738.63s3.61-10.13-.13-12.43c-3.28-2-11.5-1.53-6.9,12.51A8.51,8.51,0,0,0,218,738.63Z" /><ellipse class="cls-15" cx="238.33" cy="736.24" rx="6.07" ry="3.45" /><line class="cls-16" x1="235.63" y1="740.16" x2="234.44" y2="747.65" /><line class="cls-16" x1="234.1" y1="735.14" x2="232.9" y2="742.63" /><path class="cls-5" d="M244.29,736.1l-.92-.28a8,8,0,0,0-5-1.48c-2.57,0-4.77.91-5.65,2.2l-.46-.44s.17,2.43.24,2.51c.4,1.69,2.8,2.62,5.87,2.62,2.78,0,4.85-.84,5.57-2.29Z" /><ellipse class="cls-5" cx="238.33" cy="736.24" rx="6.07" ry="3.45" /><path class="cls-5" d="M242,738.8s3.61-10.13-.14-12.43c-3.27-2-11.49-1.53-6.89,12.51A8.51,8.51,0,0,0,242,738.8Z" /><ellipse class="cls-15" cx="144.77" cy="737.3" rx="6.07" ry="3.45" /><line class="cls-16" x1="147.69" y1="740.96" x2="149.22" y2="748.62" /><line class="cls-16" x1="148.29" y1="735.68" x2="149.82" y2="743.34" /><line class="cls-16" x1="142.07" y1="741.21" x2="140.88" y2="748.7" /><line class="cls-16" x1="140.54" y1="736.19" x2="139.35" y2="743.68" /><path class="cls-5" d="M150.73,737.15l-.91-.28a8.06,8.06,0,0,0-5-1.48c-2.58,0-4.78.91-5.66,2.2l-.46-.44s.17,2.43.24,2.51c.4,1.69,2.8,2.62,5.88,2.62,2.77,0,4.84-.84,5.56-2.28Z" /><ellipse class="cls-5" cx="144.77" cy="737.3" rx="6.07" ry="3.45" /><path class="cls-5" d="M148.43,739.85s3.6-10.13-.14-12.43c-3.28-2-11.5-1.53-6.9,12.52A8.55,8.55,0,0,0,148.43,739.85Z" /><path class="cls-24" d="M231.68,716.57v-1.25l-2,.09v1.12" /><path class="cls-25" d="M231.31,715a1.05,1.05,0,0,1-.14-.27h-1a.63.63,0,0,1,0,.26c-.26.07-.44.18-.44.31s.46.39,1,.39,1-.18,1-.39S231.53,715.09,231.31,715Z" /><ellipse class="cls-25" cx="230.66" cy="714.6" rx="0.8" ry="0.31" /></g><g id="Grade_4" data-name="Grade 4"><polygon class="cls-26" points="170.51 603.29 245.63 600.67 252.05 800.75 47.95 798.1 56.56 603.34 127.88 603.74 129.16 610.4 66.35 610.61 62.53 788 238.67 787.79 233.21 609.41 169.14 609.98 170.51 603.29" /><polygon class="cls-26" points="171.25 608.71 124.65 609.13 124.7 606.23 170.86 605.24 171.25 608.71" /><ellipse class="cls-26" cx="163.12" cy="602.62" rx="1.78" ry="2.84" transform="translate(-445.11 743.34) rotate(-87.88)" /><ellipse class="cls-26" cx="163.12" cy="611.02" rx="1.78" ry="2.84" transform="translate(-453.52 751.44) rotate(-87.88)" /><polygon class="cls-26" points="171.25 608.71 124.65 609.13 124.7 606.23 170.86 605.24 171.25 608.71" /><ellipse class="cls-26" cx="163.12" cy="602.62" rx="1.78" ry="2.84" transform="translate(-445.11 743.34) rotate(-87.88)" /><ellipse class="cls-26" cx="163.12" cy="611.02" rx="1.78" ry="2.84" transform="translate(-453.52 751.44) rotate(-87.88)" /></g></svg>