<svg xmlns="http://www.w3.org/2000/svg" viewBox="0 0 300 900" width="300" height="900" preserveAspectRatio="none"><defs><style>.cls-1{fill:#5d3213;}.cls-18,.cls-19,.cls-2,.cls-20,.cls-23,.cls-24,.cls-4,.cls-9{fill:#f3e8ab;}.cls-3{fill:#f6efc5;stroke-miterlimit:10;stroke-width:0.7px;}.cls-10,.cls-11,.cls-12,.cls-13,.cls-14,.cls-16,.cls-18,.cls-19,.cls-20,.cls-21,.cls-22,.cls-23,.cls-24,.cls-3,.cls-4,.cls-5,.cls-6,.cls-7,.cls-8,.cls-9{stroke:#cec391;}.cls-10,.cls-11,.cls-12,.cls-13,.cls-14,.cls-15,.cls-16,.cls-17,.cls-18,.cls-19,.cls-20,.cls-21,.cls-22,.cls-23,.cls-24,.cls-4,.cls-5,.cls-6,.cls-7,.cls-8,.cls-9{stroke-linejoin:round;}.cls-4,.cls-6{stroke-width:0.69px;}.cls-21,.cls-22,.cls-5,.cls-6{fill:#e2d995;}.cls-5{stroke-width:0.62px;}.cls-25,.cls-7{fill:#cec391;}.cls-7{stroke-width:0.75px;}.cls-10,.cls-12,.cls-13,.cls-8{fill:none;}.cls-8{stroke-width:0.46px;}.cls-10,.cls-11,.cls-12,.cls-14,.cls-9{stroke-width:0.38px;}.cls-11,.cls-14,.cls-15,.cls-16,.cls-17{fill:#c8e3dd;}.cls-11,.cls-12,.cls-13,.cls-16,.cls-17,.cls-23{stroke-linecap:round;}.cls-13,.cls-15{stroke-width:0.58px;}.cls-15,.cls-17{stroke:#fff;}.cls-16,.cls-17{stroke-width:1.15px;}.cls-18{stroke-width:0.3px;}.cls-19{stroke-width:0.25px;}.cls-20{stroke-width:0.38px;}.cls-21,.cls-24{stroke-width:0.28px;}.cls-22{stroke-width:0.32px;}.cls-23{stroke-width:0.5px;}.cls-26{fill:#f2e8aa;}.cls-27{fill:#a85ba3;}</style></defs><g id="rooms"><polyline class="cls-1" points="248.08 349 254.75 177.55 45.25 173.09 51.62 349" /><polygon class="cls-2" points="64.27 371.68 236.65 372.17 240.55 184.53 58.9 184.53 64.27 371.68" /><path class="cls-3" d="M59.13,240.11l182.41-13.4V183.36s-185.4-2.5-185-1.21S59.13,240.11,59.13,240.11Z" /><polygon class="cls-4" points="201.96 199.16 200.7 215.01 152.67 216.91 152.04 198.84 201.96 199.16" /><line class="cls-4" x1="201.01" y1="207.08" x2="152.36" y2="207.72" /><line class="cls-4" x1="193.56" y1="199.32" x2="192.61" y2="215.48" /><line class="cls-4" x1="183.1" y1="199.32" x2="182.63" y2="215.8" /><line class="cls-4" x1="172.33" y1="199" x2="172.64" y2="215.96" /><line class="cls-4" x1="162.5" y1="199" x2="162.66" y2="216.12" /><polygon class="cls-5" points="106.03 243.03 105.92 245.34 104.28 245.17 103.6 243.01 106.03 243.03" /><polygon class="cls-5" points="72.82 243.63 73.34 246.19 74.74 246.19 75.64 243.63 72.82 243.63" /><polygon class="cls-6" points="107.84 201.09 107.05 243.07 71.96 244.06 70.39 201.28 107.84 201.09" /><line class="cls-7" x1="90.1" y1="229.27" x2="90.29" y2="243.47" /><line class="cls-8" x1="92.58" y1="233.98" x2="92.47" y2="237.47" /><line class="cls-8" x1="87.73" y1="234.08" x2="87.84" y2="237.58" /><polyline class="cls-4" points="107.47 228.23 104.02 223.5 74.52 224.01 71.58 229.12" /><polygon class="cls-4" points="71.2 217.25 74.01 212.01 103.51 211.5 107.08 216.35 71.2 217.25" /><line class="cls-7" x1="71.77" y1="229.27" x2="107.25" y2="228.48" /><path class="cls-9" d="M103.34,224.64,102.07,221l.81-2.13-6.25.14,1,2.22-.74,3.56a.54.54,0,0,0-.1.3c0,.7,1.52,1.27,3.38,1.27s3.39-.57,3.39-1.27A.6.6,0,0,0,103.34,224.64Z" /><ellipse class="cls-9" cx="99.73" cy="219.08" rx="3.19" ry="0.98" /><path class="cls-10" d="M97.38,222.06a3,3,0,0,0,2.08.59" /><path class="cls-10" d="M97.17,223.25s.21.47,1.66.55" /><path class="cls-10" d="M97,224.06s0,.89,2.25.89" /><path class="cls-9" d="M94.57,225.23v-5.81H89v5.81a.31.31,0,0,0-.09.19c0,.45,1.3.81,2.9.81s2.89-.36,2.89-.81A.29.29,0,0,0,94.57,225.23Z" /><ellipse class="cls-9" cx="91.8" cy="219.71" rx="3.07" ry="0.98" /><path class="cls-11" d="M94.53,221.84s-.68.56-2.77.34" /><path class="cls-11" d="M94.48,222.91s-.22.39-2,.34" /><path class="cls-12" d="M94.53,223.89s-.47.76-2.73.51" /><rect class="cls-9" x="83.67" y="219.71" width="2" height="7.32" rx="1" /><rect class="cls-9" x="80.39" y="219.78" width="2" height="7.32" rx="1" /><rect class="cls-9" x="76.86" y="219.71" width="2" height="7.32" rx="1" /><ellipse class="cls-9" cx="84.67" cy="220.18" rx="1.26" ry="0.59" /><ellipse class="cls-9" cx="81.35" cy="220.25" rx="1.26" ry="0.6" /><ellipse class="cls-9" cx="77.82" cy="220.23" rx="1.26" ry="0.64" /><polyline class="cls-10" points="76.86 221.93 75.24 221.93 75.24 226.82" /><polyline class="cls-10" points="85.72 221.76 87.29 221.72 87.29 226.74" /><line class="cls-13" x1="86.57" y1="225.25" x2="87.89" y2="227.89" /><line class="cls-13" x1="75.97" y1="225.29" x2="74.52" y2="228.02" /><line class="cls-14" x1="83.67" y1="221.85" x2="82.44" y2="221.85" /><line class="cls-14" x1="80.36" y1="221.89" x2="78.7" y2="221.89" /><polygon class="cls-4" points="107.84 201.09 104.15 195.54 72.73 195.54 70.39 201.28 107.84 201.09" /><ellipse class="cls-9" cx="98.59" cy="211.37" rx="3.77" ry="2.55" /><path class="cls-9" d="M101.5,207.83l0,1.71s-2.17,2.21-5.88.21l0-1.92Z" /><ellipse class="cls-9" cx="98.56" cy="207.83" rx="2.94" ry="1.22" /><ellipse class="cls-9" cx="84.54" cy="211.7" rx="2.41" ry="1.63" /><path class="cls-9" d="M86.4,209.44l0,1.09s-1.39,1.41-3.76.13v-1.22Z" /><ellipse class="cls-9" cx="84.52" cy="209.44" rx="1.88" ry="0.78" /><ellipse class="cls-9" cx="86.8" cy="213.44" rx="2.41" ry="1.63" /><path class="cls-9" d="M88.66,211.18l0,1.1s-1.39,1.41-3.76.13l0-1.23Z" /><ellipse class="cls-9" cx="86.78" cy="211.18" rx="1.88" ry="0.78" /><path class="cls-9" d="M93.74,213.61c-.75,1.21-3.26,1-3.64,0v-8.75h3.64Z" /><path class="cls-9" d="M94.14,204.89l0,1.67a4.34,4.34,0,0,1-4.26-.13l0-1.61Z" /><ellipse class="cls-9" cx="92" cy="204.89" rx="2.14" ry="0.73" /><path class="cls-9" d="M81.07,214.05c-1.49,1.58-5.66,1.49-7,0L73.5,205l7.79,0Z" /><path class="cls-9" d="M82.44,204.77c0,.32-.56.73-1.58,1.28a7.44,7.44,0,0,1-3.36.68c-2.23,0-4-.69-4-1.53s1.81-1.53,4-1.53a7.87,7.87,0,0,1,3.35.67C81.54,204.69,82.44,204.46,82.44,204.77Z" /><polygon class="cls-5" points="119.68 230.82 120.48 243.85 121.83 243.91 122.26 231.75 119.68 230.82" /><polygon class="cls-5" points="125.39 243.68 119.36 230.93 119.17 225.97 125.47 237.98 125.39 243.68" /><polygon class="cls-4" points="172.99 224.27 183.83 236.3 124.11 237.88 118.19 225.06 172.99 224.27" /><polygon class="cls-5" points="125.21 242.56 125.83 254.05 127.18 254.18 127.79 242.44 125.21 242.56" /><polygon class="cls-5" points="181.93 240.72 181.13 252.95 179.78 253.13 179.1 240.29 181.93 240.72" /><polygon class="cls-5" points="182.94 236.36 182.34 241.47 125.3 243.43 125.3 237.89 182.94 236.36" /><polyline class="cls-5" points="180.3 236.44 180.05 240.1 166.25 240.36 166.08 236.78" /><polyline class="cls-5" points="164.04 237.04 163.78 240.53 147.52 240.79 147.35 237.38" /><polyline class="cls-5" points="128.03 237.98 128.11 241.47 144.97 240.96 145.22 237.38" /><path class="cls-13" d="M175.92,237.84s1,.81.39.84c-.94.06-5.35.1-5.35.1l.49-.72" /><path class="cls-13" d="M158.6,238.26s.77.7.42.8-6.46.18-6.46.18-.11-.42.56-.8" /><path class="cls-13" d="M139.77,239s.67.66.35.8-6.53.11-6.53.11l.6-.81" /><ellipse class="cls-15" cx="143.67" cy="245.21" rx="6.07" ry="3.45" /><line class="cls-16" x1="146.59" y1="248.87" x2="148.12" y2="256.54" /><line class="cls-16" x1="147.18" y1="243.6" x2="148.72" y2="251.26" /><line class="cls-16" x1="140.97" y1="249.13" x2="139.78" y2="256.62" /><line class="cls-16" x1="139.44" y1="244.11" x2="138.24" y2="251.6" /><path class="cls-4" d="M149.63,245.07l-.92-.28a8,8,0,0,0-5-1.49c-2.57,0-4.77.92-5.65,2.21l-.46-.44s.17,2.43.24,2.51c.4,1.68,2.8,2.62,5.87,2.62,2.78,0,4.85-.84,5.57-2.29Z" /><ellipse class="cls-4" cx="143.67" cy="245.21" rx="6.07" ry="3.45" /><path class="cls-4" d="M147.32,247.77s3.61-10.13-.14-12.43c-3.27-2-11.49-1.54-6.89,12.51A8.51,8.51,0,0,0,147.32,247.77Z" /><ellipse class="cls-15" cx="167.68" cy="245.38" rx="6.07" ry="3.45" /><line class="cls-16" x1="170.6" y1="249.04" x2="172.13" y2="256.71" /><line class="cls-16" x1="171.19" y1="243.77" x2="172.72" y2="251.43" /><line class="cls-16" x1="164.98" y1="249.3" x2="163.78" y2="256.79" /><line class="cls-16" x1="163.44" y1="244.28" x2="162.25" y2="251.77" /><path class="cls-4" d="M173.64,245.24l-.92-.28a8,8,0,0,0-5-1.49c-2.58,0-4.77.92-5.65,2.21l-.47-.44s.18,2.43.25,2.51c.39,1.68,2.8,2.62,5.87,2.62,2.77,0,4.84-.84,5.57-2.29Z" /><ellipse class="cls-4" cx="167.68" cy="245.38" rx="6.07" ry="3.45" /><path class="cls-4" d="M171.33,247.94s3.61-10.13-.14-12.43c-3.27-2-11.49-1.54-6.89,12.51A8.51,8.51,0,0,0,171.33,247.94Z" /><polygon class="cls-5" points="189.23 229.6 190.03 242.63 191.38 242.69 191.81 230.52 189.23 229.6" /><polygon class="cls-5" points="194.94 242.46 188.9 229.7 188.72 224.75 195.02 236.75 194.94 242.46" /><polygon class="cls-4" points="237.68 223.05 248.52 235.08 193.66 236.65 187.74 223.84 237.68 223.05" /><polygon class="cls-5" points="194.76 241.34 195.38 252.83 196.73 252.95 197.34 241.22 194.76 241.34" /><polygon class="cls-5" points="245.87 235.5 245.27 240.61 194.85 242.2 194.85 236.67 245.87 235.5" /><polyline class="cls-5" points="233.59 235.82 233.33 239.31 217.07 239.56 216.9 236.16" /><polyline class="cls-5" points="197.58 236.75 197.66 240.25 214.52 239.73 214.77 236.16" /><path class="cls-13" d="M245.47,236.62s.94.8.38.84c-.93.06-5.34.1-5.34.1l.49-.72" /><path class="cls-13" d="M228.15,237s.77.7.42.8-6.46.18-6.46.18-.11-.42.55-.81" /><path class="cls-13" d="M209.32,237.74s.66.66.35.8-6.53.11-6.53.11l.59-.81" /><ellipse class="cls-15" cx="213.22" cy="243.99" rx="6.07" ry="3.45" /><line class="cls-16" x1="216.14" y1="247.65" x2="217.67" y2="255.31" /><line class="cls-16" x1="216.73" y1="242.37" x2="218.26" y2="250.04" /><line class="cls-16" x1="210.52" y1="247.91" x2="209.32" y2="255.4" /><line class="cls-16" x1="208.98" y1="242.88" x2="207.79" y2="250.38" /><path class="cls-4" d="M219.18,243.85l-.92-.29a8.11,8.11,0,0,0-5-1.48c-2.58,0-4.77.92-5.65,2.2l-.47-.43s.18,2.43.25,2.51c.39,1.68,2.8,2.62,5.87,2.62,2.77,0,4.84-.84,5.57-2.29Z" /><ellipse class="cls-4" cx="213.22" cy="243.99" rx="6.07" ry="3.45" /><path class="cls-4" d="M216.87,246.54s3.61-10.13-.14-12.42c-3.27-2-11.49-1.54-6.89,12.51A8.49,8.49,0,0,0,216.87,246.54Z" /><ellipse class="cls-15" cx="237.23" cy="244.16" rx="6.07" ry="3.45" /><line class="cls-16" x1="240.14" y1="247.82" x2="241.68" y2="255.48" /><line class="cls-16" x1="240.74" y1="242.54" x2="242.27" y2="250.21" /><line class="cls-16" x1="234.53" y1="248.08" x2="233.33" y2="255.57" /><line class="cls-16" x1="232.99" y1="243.05" x2="231.8" y2="250.55" /><path class="cls-4" d="M243.19,244l-.92-.28a8.06,8.06,0,0,0-5-1.49c-2.58,0-4.77.92-5.65,2.2l-.47-.43s.18,2.43.24,2.51c.4,1.68,2.81,2.62,5.88,2.62,2.77,0,4.84-.84,5.57-2.29Z" /><ellipse class="cls-4" cx="237.23" cy="244.16" rx="6.07" ry="3.45" /><path class="cls-4" d="M240.88,246.71s3.61-10.13-.14-12.42c-3.27-2-11.49-1.54-6.9,12.51A8.52,8.52,0,0,0,240.88,246.71Z" /><ellipse class="cls-15" cx="74.58" cy="253.41" rx="6.07" ry="3.45" /><line class="cls-16" x1="77.49" y1="257.08" x2="79.03" y2="264.74" /><line class="cls-16" x1="78.09" y1="251.8" x2="79.62" y2="259.46" /><line class="cls-17" x1="71.87" y1="257.33" x2="70.68" y2="264.82" /><line class="cls-17" x1="70.34" y1="252.31" x2="69.15" y2="259.8" /><path class="cls-4" d="M76.22,250.22s-.33-10.28,3.32-9.06c4.59,1.53,5.1,11.23-.9,14.81A32.73,32.73,0,0,1,76.22,250.22Z" /><path class="cls-4" d="M80.54,253.27l-.92-.28a8.06,8.06,0,0,0-5-1.48c-2.58,0-4.77.91-5.65,2.2l-.47-.44s.17,2.43.24,2.51c.4,1.69,2.8,2.62,5.88,2.62,2.77,0,4.84-.84,5.56-2.29Z" /><ellipse class="cls-4" cx="74.58" cy="253.41" rx="6.07" ry="3.45" /><ellipse class="cls-15" cx="80.95" cy="270.58" rx="6.07" ry="3.45" /><line class="cls-16" x1="83.86" y1="274.24" x2="85.39" y2="281.9" /><line class="cls-16" x1="84.46" y1="268.96" x2="85.99" y2="276.63" /><line class="cls-16" x1="78.24" y1="274.5" x2="77.05" y2="281.99" /><line class="cls-16" x1="76.71" y1="269.47" x2="75.52" y2="276.97" /><path class="cls-4" d="M82.58,267.39s-.32-10.28,3.32-9.07c4.6,1.53,5.11,11.24-.89,14.81A33.4,33.4,0,0,1,82.58,267.39Z" /><path class="cls-4" d="M86.9,270.43l-.91-.28a8.13,8.13,0,0,0-5-1.48c-2.58,0-4.78.92-5.66,2.2l-.46-.44s.17,2.44.24,2.52c.4,1.68,2.8,2.62,5.88,2.62,2.77,0,4.84-.85,5.56-2.29Z" /><ellipse class="cls-4" cx="80.95" cy="270.58" rx="6.07" ry="3.45" /><polygon class="cls-5" points="72.09 278.36 72.71 289.85 74.06 289.98 74.68 278.24 72.09 278.36" /><polygon class="cls-5" points="58.3 278.36 58.92 289.85 60.27 289.98 60.88 278.24 58.3 278.36" /><polygon class="cls-5" points="75.93 275.57 75.76 280.16 56.69 281.36 55.84 276.76 75.93 275.57" /><polygon class="cls-4" points="56.24 246.73 70.85 246.24 77.29 275.69 54.82 277.27 56.24 246.73" /><polygon class="cls-18" points="136.51 225.44 139.3 229.42 131.57 229.74 129.33 225.73 136.51 225.44" /><polygon class="cls-18" points="138.87 223.44 140.46 225.86 133.95 226.21 132.6 223.77 138.87 223.44" /><polygon class="cls-18" points="134.36 228.33 134.36 223.78 130.8 223.84 130.8 228.4 134.36 228.33" /><polygon class="cls-18" points="129.94 222.49 129.94 226.5 130.8 228.4 130.8 223.78 129.94 222.49" /><ellipse class="cls-18" cx="133.32" cy="226.1" rx="1.33" ry="1.2" /><polygon class="cls-18" points="129.94 222.49 132.89 222.49 134.36 223.78 130.8 223.78 129.94 222.49" /><polygon class="cls-18" points="139.3 229.42 139.69 230.32 131.09 230.74 131.57 229.74 139.3 229.42" /><polygon class="cls-18" points="129.39 225.73 128.85 226.47 131.09 230.71 131.57 229.74 129.39 225.73" /><path class="cls-18" d="M137.92,220.86l.47,1.63a1.45,1.45,0,0,1-1.3.09l0-1.75Z" /><path class="cls-18" d="M138.89,220.53l.83,1c.1.16-.34.77-.86.63l-.61-1.35Z" /><path class="cls-18" d="M136.37,220.72l-.83,1c-.1.16.33.77.85.64L137,221Z" /><path class="cls-18" d="M135.51,220.91a2.05,2.05,0,0,1,1.83-2c.8-.17,1.77.72,2,1.61a1.83,1.83,0,0,1-1.6.94C137.15,221.51,135.81,221.42,135.51,220.91Z" /><path class="cls-18" d="M138.42,219.56l-.9-6.07-2.35.28s.83,6,.83,6c0,.3.59.5,1.26.43S138.45,219.86,138.42,219.56Z" /><ellipse class="cls-18" cx="136.31" cy="213.61" rx="1.21" ry="0.55" transform="translate(-19.75 13.98) rotate(-5.47)" /><path class="cls-18" d="M132.09,223.68a19.55,19.55,0,0,1,.24-3.7c.14-.95,1.84-2,3.77-1.72-.58-.38-.48-.61-.46-.73s-4.42-.51-4.42,2.56l0,2.31Z" /><path class="cls-18" d="M136,218.94s-2.63-.46-3.05,1.29a10.53,10.53,0,0,0-.07,1.11l0,2.44-.8,0v-3.14s-.35-2.73,3.93-2.41Z" /><path class="cls-19" d="M206.81,226.49v1.82c0,.28.58.5,1.3.5s1.3-.22,1.3-.5v-1.94Z" /><path class="cls-19" d="M208.94,226a1.57,1.57,0,0,1-.18-.34h-1.32a1,1,0,0,1-.07.32c-.33.09-.56.23-.56.4s.58.5,1.3.5,1.3-.22,1.3-.5S209.22,226.08,208.94,226Z" /><ellipse class="cls-19" cx="208.11" cy="225.45" rx="1.02" ry="0.39" /><path class="cls-19" d="M204.24,228.16v1.27c0,.2.41.35.91.35s.91-.15.91-.35v-1.36Z" /><path class="cls-19" d="M205.73,227.81a1,1,0,0,1-.13-.24h-.92a.65.65,0,0,1-.05.22c-.23.07-.39.17-.39.28s.41.35.91.35.91-.15.91-.35S205.93,227.87,205.73,227.81Z" /><ellipse class="cls-19" cx="205.15" cy="227.43" rx="0.72" ry="0.27" /><path class="cls-19" d="M200.46,226.34v2.07c0,.31.67.57,1.48.57s1.49-.26,1.49-.57V226.2Z" /><path class="cls-19" d="M202.88,225.77a1.46,1.46,0,0,1-.2-.38h-1.5a.91.91,0,0,1-.08.36c-.38.1-.64.26-.64.45s.67.57,1.48.57,1.49-.25,1.49-.57C203.43,226,203.21,225.88,202.88,225.77Z" /><ellipse class="cls-19" cx="201.94" cy="225.16" rx="1.16" ry="0.45" /><polygon class="cls-20" points="215.72 229.03 215.34 230.91 230.89 230.59 230.51 228.79 215.72 229.03" /><polygon class="cls-20" points="213.74 225.72 213.18 227.15 215.46 230.86 215.72 229.03 213.74 225.72" /><polygon class="cls-20" points="213.74 225.72 215.72 229.03 230.51 228.79 227.87 225.54 213.74 225.72" /><ellipse class="cls-21" cx="216.87" cy="227.27" rx="1.25" ry="0.48" /><ellipse class="cls-22" cx="227.15" cy="227.15" rx="1.26" ry="0.47" /><line class="cls-23" x1="227.15" y1="225.11" x2="227.15" y2="227.09" /><line class="cls-23" x1="216.87" y1="224.77" x2="216.87" y2="227.24" /><ellipse class="cls-24" cx="216.87" cy="223.76" rx="2.72" ry="0.98" /><ellipse class="cls-20" cx="216.68" cy="222.75" rx="3.64" ry="1.31" /><ellipse class="cls-24" cx="227.15" cy="224.96" rx="2.72" ry="0.98" /><ellipse class="cls-2" cx="227.15" cy="223.95" rx="3.64" ry="1.31" /><path class="cls-19" d="M228.22,225.32v-1.25l-2,.09v1.12" /><path class="cls-19" d="M227.84,223.77a1.22,1.22,0,0,1-.13-.27h-1a.55.55,0,0,1,0,.25c-.26.08-.44.18-.44.32s.46.39,1,.39,1-.18,1-.39S228.07,223.84,227.84,223.77Z" /><ellipse class="cls-19" cx="227.2" cy="223.35" rx="0.8" ry="0.31" /><path class="cls-25" d="M227.15,225.45c-1.86,0-3.83-.53-3.83-1.5s2-1.5,3.83-1.5S231,223,231,224,229,225.45,227.15,225.45Zm0-2.63c-2,0-3.45.6-3.45,1.13s1.41,1.12,3.45,1.12,3.45-.59,3.45-1.12S229.19,222.82,227.15,222.82Z" /><path class="cls-9" d="M171.07,226.3l-1.28-3.69.82-2.13-6.25.14.95,2.22-.75,3.56a.55.55,0,0,0-.09.3c0,.7,1.51,1.28,3.38,1.28s3.39-.58,3.39-1.28A.62.62,0,0,0,171.07,226.3Z" /><ellipse class="cls-9" cx="167.46" cy="220.74" rx="3.19" ry="0.98" /><path class="cls-10" d="M165.11,223.72a3,3,0,0,0,2.08.59" /><path class="cls-10" d="M164.89,224.91s.22.47,1.66.55" /><path class="cls-10" d="M164.77,225.72s0,.89,2.25.89" /><path class="cls-9" d="M163.07,229.22v-5.81h-5.62v5.81a.29.29,0,0,0-.08.19c0,.45,1.29.81,2.89.81s2.9-.36,2.9-.81A.26.26,0,0,0,163.07,229.22Z" /><ellipse class="cls-9" cx="160.31" cy="223.7" rx="3.07" ry="0.98" /><path class="cls-11" d="M163,225.83s-.68.56-2.77.34" /><path class="cls-11" d="M163,226.9s-.23.39-2.06.34" /><path class="cls-12" d="M163,227.88s-.47.76-2.72.51" /><path class="cls-9" d="M169.82,232.58c1.49,1.57,5.66,1.49,7,0l.59-9.07-7.79,0Z" /><path class="cls-9" d="M168.45,223.3c0,.31.56.72,1.58,1.28a7.61,7.61,0,0,0,3.36.68c2.24,0,4.05-.69,4.05-1.54s-1.81-1.53-4.05-1.53a7.74,7.74,0,0,0-3.35.68C169.35,223.21,168.45,223,168.45,223.3Z" /><path class="cls-26" d="M129.49,374.77S132.83,329,182,335.87l-11.19,31.79,1.28,6.66Z" /><path class="cls-26" d="M129.49,374.77S132.83,329,182,335.87l-11.19,31.79,1.28,6.66Z" /></g><g id="Grade_5" data-name="Grade 5"><polygon class="cls-27" points="129.49 374.77 54.37 377.39 47.95 177.31 252.05 179.96 243.44 374.72 172.12 374.32 170.84 367.66 233.65 367.45 237.47 190.06 61.33 190.26 66.79 368.65 130.86 368.08 129.49 374.77" /><polygon class="cls-27" points="169.85 365.07 200.33 351.32 201.97 354.73 170.87 367.68 169.85 365.07" /><ellipse class="cls-27" cx="192.89" cy="351.19" rx="2.84" ry="1.78" transform="translate(-139.39 127.29) rotate(-27.25)" /><ellipse class="cls-27" cx="196.26" cy="359.38" rx="2.84" ry="1.78" transform="translate(-142.77 129.74) rotate(-27.25)" /></g></svg>