<svg xmlns="http://www.w3.org/2000/svg" viewBox="0 0 300 900" width="300" height="900" preserveAspectRatio="none"><defs><style>.cls-1{fill:#5d3213;}.cls-2{fill:#898b8d;}.cls-11,.cls-3,.cls-6,.cls-8,.cls-9{fill:#b1b3b5;}.cls-10,.cls-4,.cls-5{fill:none;}.cls-4{stroke:#898b8d;stroke-miterlimit:10;}.cls-10,.cls-11,.cls-5,.cls-6,.cls-8,.cls-9{stroke:#808184;}.cls-10,.cls-11,.cls-5,.cls-6,.cls-7,.cls-8,.cls-9{stroke-linejoin:round;}.cls-5{stroke-width:0.63px;}.cls-10,.cls-6{stroke-width:0.69px;}.cls-7{fill:#f3e8ab;stroke:#cec391;}.cls-7,.cls-9{stroke-width:0.62px;}.cls-8{stroke-width:0.61px;}.cls-10{stroke-linecap:round;}.cls-11{stroke-width:0.5px;}.cls-12{fill:#3090c1;}</style></defs><g id="rooms"><polyline class="cls-1" points="51.05 628.05 45.25 799.2 254.75 803.7 248.35 628.05" /><polygon class="cls-2" points="53.19 792.96 247.5 795.67 240.85 607.69 59.2 607.69 53.19 792.96" /><path class="cls-3" d="M241.39,605C241,606.32,241,725.7,241,725.7L115.2,716.47,58.53,757.42l3.26-148.87Z" /><path class="cls-4" d="M241.39,605C241,606.32,241,725.7,241,725.7L115.2,716.47,58.53,757.42,61.82,606" /><path class="cls-5" d="M216.18,749.65c0-1.64,3.17-3,7.09-3s7.09,1.33,7.09,3" /><polygon class="cls-6" points="241.53 728.37 232.24 743.12 186.36 739.66 198.93 725.64 241.53 728.37" /><polygon class="cls-7" points="243.33 716.96 242.43 733.61 240.63 733.61 240.9 719.93 243.33 716.96" /><polygon class="cls-8" points="232.8 730.55 232.62 748.36 230.82 748.36 230.28 732.44 232.8 730.55" /><polygon class="cls-6" points="187.46 727.04 187.28 744.85 185.48 744.85 184.94 728.93 187.46 727.04" /><polygon class="cls-6" points="244.35 716.14 233.99 732.61 182.77 728.74 197 713.82 244.35 716.14" /><path class="cls-9" d="M224.37,739.5l-.69,15.78c-.58.41-1,.38-1.33-.24l-.07-15.55Z" /><path class="cls-9" d="M226.88,742.53l2.79,16.55c.62.34,1.07.24,1.29-.41l-2-16.41Z" /><path class="cls-9" d="M220.25,742.46l-4.07,16.29c-.64.29-1.08.16-1.25-.51L218.21,742Z" /><ellipse class="cls-6" cx="223.42" cy="740.53" rx="7.6" ry="3.91" /><path class="cls-5" d="M230.36,749.65c0,1.64-3.18,3-7.09,3s-7.09-1.33-7.09-3" /><path class="cls-5" d="M190.89,748.8c0-1.64,3.17-3,7.09-3s7.08,1.33,7.08,3" /><path class="cls-9" d="M199.2,738.26l-.66,15.32a.75.75,0,0,1-.65.73c-.29,0-.52-.14-.7-.51l-.08-15.55Z" /><path class="cls-9" d="M201.72,741.29l2.71,16.09a.75.75,0,0,0,.74.65c.28,0,.49-.21.62-.6l-2-16.41Z" /><path class="cls-9" d="M195.09,741.22l-4,15.84a.75.75,0,0,1-.78.59c-.29,0-.48-.25-.58-.65L193,740.79Z" /><ellipse class="cls-6" cx="198.22" cy="739.21" rx="7.6" ry="3.91" /><path class="cls-5" d="M205.06,748.8c0,1.65-3.17,3-7.08,3s-7.09-1.33-7.09-3" /><polygon class="cls-6" points="161.79 692.82 175.81 693.23 172.56 722.7 156.51 720.87 161.79 692.82" /><polygon class="cls-6" points="150.21 688.76 164.63 689.37 159.96 726.36 144.72 725.14 150.21 688.76" /><polygon class="cls-6" points="173.58 683.68 169.11 727.37 163.62 726.36 169.31 683.48 173.58 683.68" /><polygon class="cls-6" points="177.03 701.15 174.39 730.42 152.85 728.18 156.71 700.54 177.03 701.15" /><polygon class="cls-6" points="161.99 705.42 169.31 705.83 166.06 730.83 157.73 730.22 161.99 705.42" /><polygon class="cls-8" points="122.15 725.05 120.93 734.8 119.25 734.75 118.34 725.35 122.15 725.05" /><polygon class="cls-8" points="140.9 712.55 139.37 722.91 137.69 723.07 137.54 712.7 140.9 712.55" /><polygon class="cls-8" points="100.81 716.36 102.33 727.79 104.01 727.64 105.23 717.43 100.81 716.36" /><polygon class="cls-6" points="142.52 711.84 120.37 726.27 99.23 716.31 122.61 705.54 142.52 711.84" /><polyline class="cls-8" points="128.88 705.07 126.97 706.19 128.32 707.22 126.92 708 128.32 709.12 126.57 709.35 127.63 710.95 125.96 710.87 126.49 713.08 125.02 712.76 124.97 714.15 123.78 713.63 123.14 715.14 122.38 713.78 120.85 714.76 120.98 713.2 119.25 713.54 119.77 712.07 118.03 711.87 118.81 710.61 116.89 710.19 118.26 709.04 115.94 708.57 117.65 707.45 115.9 706.15 117.48 705.39 115.97 704.24 117.53 703.57 115.71 702.33 117.86 701.81 116.28 700.27 118.48 700.18 117.28 698.33 119.43 698.81 119.44 697.49 120.67 697.95 120.95 697.07 121.43 697.77 121.39 695.79 121.57 697.76 121.64 695.78 121.71 697.76 121.89 695.79 121.86 697.77 122.13 695.81 122 697.79 122.38 695.84 122.14 697.81 122.62 695.88 122.85 698.03 124.15 697.45 124.04 698.83 125.7 698.69 125.05 699.99 127.19 699.67 125.84 701.37 128 701.4 126.42 702.88 128.56 703.21 126.79 704.47 128.88 705.07" /><path class="cls-8" d="M124.29,705.56c.19,1.81-.57,3.38-1.71,3.5s-2.22-1.24-2.42-3,.57-3.37,1.71-3.49a1.19,1.19,0,0,1,.42,0c1,.2,1.83,1.44,2,3" /><path class="cls-8" d="M115.06,703.64l14.32,2.9s-.34-9.11-7.49-10.13C115.77,695.54,115.06,703.64,115.06,703.64Z" /><path class="cls-8" d="M109.19,691.36l1.07,20.28c2.51.5,3.68,0,3.66-1.53l-.46-20.42Z" /><path class="cls-8" d="M123.29,697.54c-.62.75-1.29.67-2,0V693h2Z" /><polygon class="cls-9" points="132.56 692.53 127.69 695.17 106.96 691.72 112.7 689.23 132.56 692.53" /><polyline class="cls-10" points="124.44 703.28 127.36 704.38 131.49 702.66 128.33 701.66" /><polygon class="cls-6" points="80.88 740.38 104.06 747.96 70.71 768.04 53.18 757.29 80.88 740.38" /><polygon class="cls-8" points="105.46 738.7 105.28 756.51 103.48 756.51 102.94 740.59 105.46 738.7" /><polygon class="cls-8" points="71.25 756.51 71.38 777.08 69.58 777.08 68.73 758.4 71.25 756.51" /><polygon class="cls-6" points="60.63 740.78 81.84 727.8 107.66 738.18 68.73 759.55 62.16 754.68 60.63 740.78" /><path class="cls-5" d="M161.57,737.63c0-1.65,3.18-3,7.09-3s7.09,1.33,7.09,3" /><path class="cls-9" d="M169.89,727.08l-.67,15.32a.74.74,0,0,1-.65.73c-.28,0-.52-.14-.7-.51l-.07-15.55Z" /><path class="cls-9" d="M172.4,730.11l2.71,16.09a.75.75,0,0,0,.74.65c.28,0,.5-.2.63-.59l-2-16.42Z" /><path class="cls-9" d="M165.77,730l-4,15.84a.75.75,0,0,1-.79.59c-.28,0-.48-.24-.58-.64l3.28-16.22Z" /><ellipse class="cls-6" cx="168.9" cy="728.03" rx="7.6" ry="3.91" /><path class="cls-5" d="M175.75,737.63c0,1.64-3.18,3-7.09,3s-7.09-1.33-7.09-3" /><path class="cls-5" d="M116.24,742.29c0-1.64,3.18-3,7.09-3s7.09,1.33,7.09,3" /><path class="cls-9" d="M124.55,731.75l-.66,15.32a.74.74,0,0,1-.65.73c-.28,0-.52-.14-.7-.51l-.07-15.55Z" /><path class="cls-9" d="M127.07,734.78l2.71,16.09a.75.75,0,0,0,.74.65c.28,0,.5-.21.63-.6l-2-16.41Z" /><path class="cls-9" d="M120.44,734.71l-4,15.84a.76.76,0,0,1-.79.59c-.28,0-.48-.25-.58-.65l3.28-16.21Z" /><ellipse class="cls-8" cx="123.57" cy="732.7" rx="7.6" ry="3.91" /><path class="cls-5" d="M130.42,742.29c0,1.64-3.18,3-7.09,3s-7.09-1.34-7.09-3" /><path class="cls-5" d="M85.53,764.71c0-1.64,3.17-3,7.09-3s7.08,1.34,7.08,3" /><path class="cls-9" d="M93.84,754.16l-.66,15.32a.76.76,0,0,1-.65.74c-.29,0-.52-.14-.7-.52l-.07-15.55Z" /><path class="cls-9" d="M96.36,757.19l2.71,16.09a.74.74,0,0,0,.74.65c.28,0,.49-.2.63-.59l-2-16.42Z" /><path class="cls-9" d="M89.73,757.13l-4,15.83a.74.74,0,0,1-.78.59c-.28,0-.48-.24-.58-.64l3.27-16.21Z" /><ellipse class="cls-6" cx="92.86" cy="755.11" rx="7.6" ry="3.91" /><path class="cls-5" d="M99.7,764.71c0,1.64-3.17,3-7.08,3s-7.09-1.33-7.09-3" /><path class="cls-6" d="M224.12,719.79l-19.48-1.16-1.3,2.86,1.82-1,.82,1.73,1.3-1.43.95,1.69,1.52-1.39.61,1.87,1.25-1.22s.39,1.65.48,1.52a13.3,13.3,0,0,1,1.39-.83s1,1.54,1.09,1.45,1.35-1.27,1.35-1.27l.72,1.39,1.4-1,.81,1.17,1.35-1,.7,1.56.67-1.42,1.07,1.38Z" /><polygon class="cls-6" points="224.12 719.79 230.24 719.86 229.21 721.07 227.62 725.38 227.87 727.01 222.64 724.74 222.99 721.49 224.12 719.79" /><path class="cls-6" d="M227.41,720.89a3.68,3.68,0,0,1-1.1,3.5c-1.37,1.49-2.49-2-2-2.69C225,720.75,227.27,720.53,227.41,720.89Z" /><path class="cls-11" d="M85.93,737.86l1.86-1.16a6.7,6.7,0,0,0-3-2.23,4.74,4.74,0,0,0-4.35,1.16,5.22,5.22,0,0,1,3.22-.08C84.75,736,85.11,736.73,85.93,737.86Z" /><path class="cls-11" d="M88.92,738.08l-2.24,1.06-1.11-1.72a1.39,1.39,0,0,1,2.08-.81Z" /><ellipse class="cls-11" cx="87.71" cy="738.63" rx="1.63" ry="0.68" transform="translate(-341.95 131.46) rotate(-28.51)" /><path class="cls-11" d="M84.48,736.3l-12.42,5.07s-.58,1.42,1.34,2.41l12-6.48C85.42,736.76,85.17,736.39,84.48,736.3Z" /></g><g id="Grade_4" data-name="Grade 4"><polygon class="cls-12" points="171.25 608.71 124.65 609.13 124.7 606.23 170.86 605.24 171.25 608.71" /><ellipse class="cls-12" cx="163.12" cy="602.62" rx="1.78" ry="2.84" transform="translate(-445.11 743.34) rotate(-87.88)" /><ellipse class="cls-12" cx="163.12" cy="611.02" rx="1.78" ry="2.84" transform="translate(-453.52 751.44) rotate(-87.88)" /><polygon class="cls-12" points="170.51 603.29 245.63 600.67 252.05 800.75 47.95 798.1 56.56 603.34 127.88 603.74 129.16 610.4 66.35 610.61 62.53 788 238.67 787.79 233.21 609.41 169.14 609.98 170.51 603.29" /><polygon class="cls-12" points="172.25 608.71 125.65 609.13 125.7 606.23 171.86 605.24 172.25 608.71" /><ellipse class="cls-12" cx="164.12" cy="602.62" rx="1.78" ry="2.84" transform="translate(-444.15 744.34) rotate(-87.88)" /><ellipse class="cls-12" cx="164.12" cy="611.02" rx="1.78" ry="2.84" transform="translate(-452.55 752.44) rotate(-87.88)" /></g></svg>