<svg xmlns="http://www.w3.org/2000/svg" viewBox="0 0 300 900" width="300" height="900" preserveAspectRatio="none"><defs><style>.cls-1,.cls-10,.cls-11,.cls-6,.cls-8,.cls-9{fill:#f3e8ab;}.cls-13,.cls-2,.cls-3{fill:none;}.cls-10,.cls-11,.cls-12,.cls-13,.cls-2,.cls-3,.cls-4,.cls-6,.cls-8,.cls-9{stroke:#cec391;}.cls-10,.cls-11,.cls-12,.cls-13,.cls-2,.cls-3,.cls-4,.cls-6,.cls-7,.cls-8,.cls-9{stroke-linejoin:round;}.cls-2{stroke-width:0.3px;}.cls-3,.cls-4,.cls-6,.cls-7{stroke-width:0.32px;}.cls-12,.cls-4{fill:#e2d995;}.cls-5,.cls-7{fill:#cec391;}.cls-7{stroke:#cec290;}.cls-8{stroke-width:0.51px;}.cls-9{stroke-width:0.57px;}.cls-10{stroke-width:0.54px;}.cls-11,.cls-12,.cls-13{stroke-width:0.6px;}.cls-14{fill:#159848;}</style></defs><g id="READING_ROOM_V2" data-name="READING ROOM V2"><polygon class="cls-1" points="68.21 370.06 243.89 370.05 245.89 257.81 64.23 257.81 68.21 370.06" /><path class="cls-2" d="M228.69,265.27c0-.78,1.5-1.4,3.35-1.4s3.35.62,3.35,1.4" /><path class="cls-2" d="M216.28,264.87c0-.78,2-1.41,3.82-1.41s3.34.63,3.34,1.41" /><path class="cls-2" d="M90.34,257.81c0,.77-1.5,1.4-3.35,1.4s-3.34-.63-3.34-1.4" /><polygon class="cls-3" points="117.68 261.28 55.3 260.58 57.36 290.19 66.6 295.93 64.32 268.75 117.68 261.28" /><path class="cls-3" d="M65.3,280.49c.84-.49,50.38-8.44,50.38-8.44" /><path class="cls-4" d="M116,259.21c.45.29-1.14,24.72-1.14,24.72l-48.22,12-9.91-9.07v-26Z" /><polygon class="cls-5" points="64.32 268.75 55.3 260.58 55.82 289.6 66.6 295.93 64.32 268.75" /><path class="cls-6" d="M55.3,260.58c.05.71,9,8.18,9,8.18l51.77-6.9-.13-2.65Z" /><path class="cls-4" d="M220,264.17c-.29.57-2.66,25.56-2.24,25.55L239,297.24c.42-.83,2-33.07,2-33.07Z" /><path class="cls-3" d="M240.06,280.74l-21.41-4.12s12-2.61,12.19-2.61,1.2-10.14,1.2-10.14" /><line class="cls-4" x1="115.68" y1="272.05" x2="65.3" y2="280.49" /><polyline class="cls-3" points="115.68 272.05 104.77 268.75 104.77 263.37" /><polyline class="cls-3" points="114.81 283.93 105.19 281.49 105.19 273.75" /><polyline class="cls-3" points="217.74 289.72 228.69 286.22 230 278.8" /><polygon class="cls-6" points="115.91 263.46 113.34 263.77 113.34 262.23 99.78 264.03 99.62 265.97 96.78 266.37 89.22 267.43 89.22 266.28 86.49 266.59 86.49 267.43 72.53 269.11 72.33 268.31 70.18 269.08 70.1 268.75 70.1 268.75 66.41 269.11 66.41 269.73 64.42 270.03 65.3 280.49 95.82 275.33 99.79 274.66 115.53 272.01 115.91 263.46" /><polyline class="cls-3" points="99.19 274.81 99.62 265.97 95.62 264.59" /><polyline class="cls-3" points="93.52 264.87 97.39 266.28 96.84 275.1" /><polyline class="cls-3" points="90.84 265.22 94.51 266.69 94.51 275.6" /><path class="cls-3" d="M87.13,265.72c.16,0,2.09.56,2.09.56" /><line class="cls-3" x1="85.02" y1="266" x2="86.49" y2="266.59" /><polyline class="cls-3" points="83.78 266.28 86.49 267.43 86.49 276.91" /><line class="cls-3" x1="89.22" y1="267.43" x2="89.22" y2="276.48" /><path class="cls-3" d="M91.36,276s.45-8.93.58-8.95l-3.3-1.53" /><path class="cls-3" d="M102.09,263.73c-.1.41-.57,10.61-.57,10.61" /><path class="cls-3" d="M104.33,263.43c0,.23-.67,10.65-.67,10.65" /><path class="cls-3" d="M107,263.07c0,.28-.65,10.49-.65,10.49" /><path class="cls-3" d="M109.78,262.7c-.21.44-.75,10.4-.75,10.4" /><path class="cls-3" d="M111.77,262.44c0,.44-.73,10.38-.73,10.38" /><line class="cls-3" x1="113.34" y1="263.77" x2="113.34" y2="272.37" /><polyline class="cls-3" points="83.78 277.25 82.96 267.9 80.54 266.59" /><path class="cls-3" d="M71.17,267.84a5.42,5.42,0,0,1,1.15.47l2.75,10.53" /><polyline class="cls-3" points="65.5 268.59 66.41 269.11 67.27 280.07" /><polyline class="cls-3" points="67.27 268.31 68.62 268.81 69.35 279.72" /><polyline class="cls-3" points="71.17 279.37 70.1 268.75 68.87 268.07" /><path class="cls-7" d="M70.18,269.53c-.12,0,2.62,9.6,2.62,9.6l-1.74-.87Z" /><path class="cls-3" d="M73.12,267.63a12.48,12.48,0,0,1,2.37,1.12l1.21,9.81" /><path class="cls-6" d="M65.5,283.93c.07-.21,30.52-5.09,30.52-5.09v-1.77l3-.16v-1.47l8.86-.63v2.1l5.44-.6,1,7.73L66.6,295.93Z" /><polyline class="cls-3" points="68.87 295.36 67.8 283.48 65.3 282.16" /><line class="cls-3" x1="96.02" y1="277.07" x2="93.29" y2="275.76" /><polyline class="cls-3" points="96.44 288.5 96.02 278.84 90.49 276.27" /><path class="cls-3" d="M93.81,289.16c.22-.06-.35-9.91-.35-9.91l-5.28-2.73" /><path class="cls-3" d="M91.64,289.59c.24.05-.62-9.87-.62-9.87l-5.26-2.47" /><path class="cls-3" d="M88.64,290.44c.07,0-.26-10.37-.26-10.37l-5.67-2.5" /><path class="cls-3" d="M86.37,290.77s-.55-10.29-.58-10.28-5.71-2.5-5.71-2.5l-.59-9.72a13.56,13.56,0,0,0-2-1.27" /><path class="cls-3" d="M84.06,291.58l-.57-10.72S78,278.39,78,278.34" /><path class="cls-5" d="M82.4,292s1.09-11.14,1.09-11.14.63,10.62.57,10.72A10.36,10.36,0,0,1,82.4,292Z" /><polyline class="cls-3" points="80.4 292.5 80.82 281.3 76.02 278.68" /><path class="cls-3" d="M74,278.89c.21.21,4,2.87,4,2.87s.27,10.87.21,11.08" /><path class="cls-3" d="M75.64,293.61c.07.05.15-11.49.15-11.49l-4.13-2.67" /><polyline class="cls-3" points="71.07 294.59 70.42 282.84 65.88 280.26" /><path class="cls-3" d="M68.59,279.87c.12,0,4.53,2.52,4.53,2.52l.29,11.84" /><line class="cls-3" x1="99.04" y1="275.44" x2="97.38" y2="275.07" /><path class="cls-3" d="M99.05,287.77c0-.11,0-10.86,0-10.86l-3.22-1.58" /><polyline class="cls-3" points="99.79 274.66 101.8 275.33 101.52 287.24" /><path class="cls-3" d="M102.09,274.33a18.33,18.33,0,0,1,2.12.74L104,286.52" /><path class="cls-4" d="M105.57,273.75a18.47,18.47,0,0,1,2.33,1.06l-3.27.24-2-.82Z" /><path class="cls-3" d="M107.9,285.65c.13,0,0-8.74,0-8.74" /><path class="cls-3" d="M110.61,284.76s.07-8.16,0-8.15-2.6-1.33-2.71-1.35" /><path class="cls-3" d="M107.93,273.35c.13.11,5.41,3,5.41,3" /><polygon class="cls-5" points="110.61 276.61 111.93 284.65 110.64 285.05 110.61 276.61" /><polygon class="cls-6" points="221.91 266.69 218.65 276.62 237.76 280.29 239.2 264.87 224.38 265.85 224.38 267.06 221.91 266.69" /><polyline class="cls-3" points="224.38 267.06 221.91 266.69 224.38 266.42" /><path class="cls-3" d="M224.38,264.87c.24.39-.51,12.67-.51,12.67" /><polygon class="cls-5" points="224.29 268.03 220.17 276.74 223.87 276.18 224.29 268.03" /><path class="cls-3" d="M226.81,265.27c0,.42-.65,12.79-.65,12.79" /><path class="cls-3" d="M228.92,265.27c.08.27,0,13.32,0,13.32" /><path class="cls-3" d="M231.94,264.87c-.05.48-.73,14.16-.73,14.16" /><path class="cls-3" d="M234.28,264.57c.17,1.05,0,15.18,0,15.18" /><path class="cls-6" d="M218.42,279.09l2.76.66s0-2.65.22-2.6l1.43.28c3,.59,9.76,1.91,9.75,1.89s-.26,4-.26,4,1.67.63,1.62.47a10.34,10.34,0,0,1,0-1.25l5.26,1.28s-.6,13.58-.6,13.45-20.81-7.27-20.86-7.52S218.42,279.09,218.42,279.09Z" /><line class="cls-3" x1="221.18" y1="279.75" x2="220.68" y2="290.76" /><line class="cls-6" x1="222.63" y1="291.56" x2="222.83" y2="277.43" /><line class="cls-6" x1="218.42" y1="279.09" x2="221.18" y2="278.59" /><path class="cls-6" d="M225,278.06c0,.09-.85,13.93-.85,13.93" /><line class="cls-6" x1="227.14" y1="278.27" x2="227.14" y2="293.06" /><path class="cls-6" d="M230,279c-.05.08-.67,14.79-.67,14.79" /><path class="cls-6" d="M232.32,283.29l-1.11,11.21Z" /><polyline class="cls-6" points="232.32 283.29 233.94 282.51 238.59 280.4" /><line class="cls-6" x1="234" y1="283.92" x2="233.19" y2="295.33" /><polyline class="cls-6" points="240.06 280.74 236.5 283.13 235.46 295.95" /><path class="cls-8" d="M216.19,289.34l4.38,12.76a.62.62,0,0,0,.69.43c.23,0,.38-.23.43-.57l-3.85-13.12Z" /><path class="cls-8" d="M213.47,288.19l-3.27,13.08a.61.61,0,0,1-.65.49c-.23,0-.39-.2-.47-.53l2.7-13.4Z" /><path class="cls-9" d="M223.85,289.46a12.76,12.76,0,0,1,.31,7.13c-.56,2.9-3.75,4.68-8.37,4.68a12.57,12.57,0,0,1-7.85-3,11.17,11.17,0,0,1-.83-8.81" /><ellipse class="cls-9" cx="215.48" cy="289.46" rx="8.37" ry="4.68" /><path class="cls-10" d="M125.87,284.86l2.36,14a.67.67,0,0,0,.65.57c.24,0,.43-.18.54-.52l-1.74-14.29Z" /><path class="cls-10" d="M129.69,281.22l4.62,13.44a.66.66,0,0,0,.73.45c.24-.05.4-.25.45-.6l-4.06-13.81Z" /><path class="cls-10" d="M120.1,284.81l-3.44,13.78a.64.64,0,0,1-.68.51c-.25,0-.42-.21-.51-.56l2.85-14.11Z" /><path class="cls-10" d="M114.62,281.08l-3.44,13.79a.65.65,0,0,1-.68.51c-.25,0-.42-.21-.51-.56l2.85-14.11Z" /><ellipse class="cls-11" cx="122.89" cy="285.71" rx="16.09" ry="7.96" /><path class="cls-12" d="M118.38,282.89s-3-1.9-3.13-1.92-5.47,2.89-5.47,2.89,6.66,5.57,6.8,5.44,3-2.06,3-2.06" /><path class="cls-13" d="M127.88,287.24a11.94,11.94,0,0,0,1.28,1.46c.14,0,5-1.59,5-1.59l-1.82-2.73" /><polyline class="cls-13" points="127 280.89 129.58 280.45 131.44 282.91" /><path class="cls-10" d="M115.47,284.63l7.88,4.95a22.37,22.37,0,0,1,5.64-2.93s.69-1.83,4.46-2.79L125,280s-3.11.21-4.1,2.43C120.86,282.38,116.73,282.78,115.47,284.63Z" /><line class="cls-10" x1="120.69" y1="282.48" x2="128.99" y2="286.65" /></g><g id="Grade_3" data-name="Grade 3"><polygon class="cls-14" points="132.01 373.7 56.89 376.32 50.47 254.65 254.57 257.3 245.97 373.64 174.64 373.25 173.37 366.59 236.17 366.38 240 267.4 63.85 267.61 69.31 367.57 133.38 367 132.01 373.7" /><polygon class="cls-14" points="172.37 364 202.85 350.25 204.49 353.65 173.39 366.61 172.37 364" /><ellipse class="cls-14" cx="195.41" cy="350.11" rx="2.84" ry="1.78" transform="translate(-138.62 128.33) rotate(-27.25)" /><ellipse class="cls-14" cx="198.78" cy="358.31" rx="2.84" ry="1.78" transform="translate(-142 130.78) rotate(-27.25)" /></g></svg>