<svg xmlns="http://www.w3.org/2000/svg" viewBox="0 0 300 900" width="300" height="900" preserveAspectRatio="none"><defs><style>.cls-1{fill:#5d3213;}.cls-10,.cls-12,.cls-14,.cls-16,.cls-2,.cls-4,.cls-6,.cls-8,.cls-9{fill:#b1b3b5;}.cls-3{fill:#898b8d;}.cls-10,.cls-11,.cls-12,.cls-13,.cls-14,.cls-15,.cls-16,.cls-17,.cls-3,.cls-4,.cls-6,.cls-7,.cls-8,.cls-9{stroke:#808184;}.cls-11,.cls-16,.cls-3,.cls-7{stroke-miterlimit:10;}.cls-10,.cls-12,.cls-13,.cls-14,.cls-15,.cls-17,.cls-18,.cls-19,.cls-20,.cls-21,.cls-4,.cls-6,.cls-8,.cls-9{stroke-linejoin:round;}.cls-13,.cls-17,.cls-4{stroke-width:0.69px;}.cls-5{fill:#808184;}.cls-11,.cls-19,.cls-20,.cls-6,.cls-7,.cls-9{stroke-linecap:round;}.cls-11,.cls-15,.cls-17,.cls-7{fill:none;}.cls-7{stroke-width:2.5px;}.cls-8{stroke-width:0.61px;}.cls-10,.cls-9{stroke-width:2px;}.cls-11{stroke-width:2.31px;}.cls-12{stroke-width:0.68px;}.cls-13{fill:#999;}.cls-14,.cls-15,.cls-16{stroke-width:0.5px;}.cls-18,.cls-19,.cls-20{fill:#c8e3dd;}.cls-18,.cls-19{stroke:#fff;}.cls-18{stroke-width:0.58px;}.cls-19,.cls-20{stroke-width:1.15px;}.cls-20,.cls-21{stroke:#cec391;}.cls-21{fill:#e2d995;stroke-width:0.62px;}.cls-22{fill:#f52338;}</style></defs><g id="room_foilage" data-name="room foilage"><polyline class="cls-1" points="247.48 349 254.15 177.55 44.65 173.09 51.02 349" /><polygon class="cls-2" points="236.11 371.77 63.73 372.26 59.82 184.61 241.48 184.61 236.11 371.77" /><path class="cls-3" d="M241.25,240.2,58.84,226.8V188.39s185.4-2.5,185-1.21S241.25,240.2,241.25,240.2Z" /><path class="cls-4" d="M94.1,185.64l4,29.91-2.68,1.39L96,234.2l31.28,3,17.15-1.41,11-32.43a10.42,10.42,0,0,1-2.53-1c-.3-.36,2.53-14,2.53-14Z" /><path class="cls-5" d="M105.86,222.52c-2.61-.69-6.49-.83-6.26,3.75s6.14,3.37,6.58,2.3-.68-2.3.78-3.6S105.86,222.52,105.86,222.52Z" /><path class="cls-4" d="M105.74,223.74c-2.6-.7-6.49-.84-6.25,3.75s6.14,3.36,6.57,2.29-.67-2.29.79-3.6S105.74,223.74,105.74,223.74Z" /><path class="cls-5" d="M120.36,225.79c-2.49-2.08-9.44-.48-8.35,3.44.84,3,4.18-.61,6.23,1.26S125.93,230.44,120.36,225.79Z" /><path class="cls-4" d="M120.24,227c-2.49-2.08-9.44-.47-8.34,3.44.83,3,4.18-.6,6.23,1.26S125.81,231.65,120.24,227Z" /><path class="cls-5" d="M131.16,224.59c.49,3.25,3.5.66,5.42,1.51s3.45,2.44,4.95-.53-2-5.09-5.32-5S130.75,221.87,131.16,224.59Z" /><path class="cls-4" d="M131,225.91c.5,3.25,3.5.66,5.43,1.52s3.44,2.44,4.95-.54-2-5.08-5.32-5S130.62,223.2,131,225.91Z" /><path class="cls-5" d="M144.1,206.14c-2-2.63-5.34-4.91-8.12-2.44-3.16,2.82,2.19,3.87,2.69,5.71.74,2.75,2.24,4.56,5.16,3.05S144.1,206.14,144.1,206.14Z" /><path class="cls-4" d="M144,207.47c-2-2.64-5.34-4.92-8.12-2.44-3.16,2.82,2.19,3.87,2.69,5.71.74,2.74,2.24,4.55,5.17,3S144,207.47,144,207.47Z" /><path class="cls-5" d="M125.1,195c-3.35-.75-6.37.29-4.56,3.47s4.85,2.9,7.44,1.37S128.59,195.77,125.1,195Z" /><path class="cls-4" d="M125,195.87c-3.36-.74-6.38.29-4.56,3.47s4.85,2.91,7.44,1.37S128.51,196.65,125,195.87Z" /><path class="cls-5" d="M109.82,206.53c-2.87-1.17-7.22,2.21-6,7s5.1,4.94,6.79,3.65-3-3.07-.61-5.4S112,207.4,109.82,206.53Z" /><path class="cls-4" d="M110.61,207.61c-2.87-1.17-7.22,2.21-6,7s5.1,4.94,6.78,3.65-3-3.07-.6-5.4S112.76,208.48,110.61,207.61Z" /><path class="cls-5" d="M107.7,194.86c-2.24-.91-6.6.27-7,3.46s3.63,4,5.84,3,.33-2.31,2.09-3.25S109.84,195.73,107.7,194.86Z" /><path class="cls-4" d="M107.58,196.07c-2.24-.91-6.59.27-7,3.46s3.62,4,5.84,3,.33-2.3,2.09-3.25S109.73,197,107.58,196.07Z" /><path class="cls-5" d="M126.52,210.22c-3.08-1.33-7.11-1.59-7.22,1.44s2.93.31,4.5,2.42,3.32,3.82,5.14,2.36S128.87,211.23,126.52,210.22Z" /><path class="cls-4" d="M126.14,211c-3.08-1.33-7.11-1.59-7.22,1.43s2.93.31,4.49,2.42,3.32,3.83,5.14,2.37S128.48,212,126.14,211Z" /><circle class="cls-5" cx="104.55" cy="199.29" r="1.16" /><ellipse class="cls-5" cx="124.02" cy="198.79" rx="1" ry="1.16" transform="translate(-85.58 303.51) rotate(-84.59)" /><ellipse class="cls-5" cx="107.76" cy="213.07" rx="1.27" ry="1.22" transform="translate(-114.53 300.25) rotate(-84.59)" /><circle class="cls-5" cx="124.78" cy="213.32" r="1" /><ellipse class="cls-5" cx="140.75" cy="208.61" rx="1" ry="1.11" transform="translate(-80.2 329.06) rotate(-84.59)" /><path class="cls-4" d="M136.68,191s-.91,1.12.67,3.76a4.66,4.66,0,0,0,7.17.74c2.08-2.07,1-7.13,1.5-4.17Z" /><ellipse class="cls-5" cx="141.57" cy="192.2" rx="1" ry="1.27" transform="translate(-63.13 315.01) rotate(-84.59)" /><ellipse class="cls-5" cx="136.63" cy="224.99" rx="1.11" ry="1.27" transform="translate(-100.24 339.8) rotate(-84.59)" /><ellipse class="cls-5" cx="117.41" cy="228.68" rx="0.94" ry="1.11" transform="translate(-121.33 324.01) rotate(-84.59)" /><ellipse class="cls-5" cx="103.1" cy="226.94" rx="1.33" ry="1.22" transform="translate(-132.55 308.18) rotate(-84.59)" /><polygon class="cls-6" points="158.43 242.88 166.19 279.08 70.42 276.64 81.28 240.28 158.43 242.88" /><line class="cls-6" x1="135.32" y1="242.55" x2="135.49" y2="278.13" /><line class="cls-6" x1="109.05" y1="241.72" x2="101.07" y2="276.8" /><path class="cls-5" d="M229.6,268.22s-2.29-4.85-14.12-4.17c-8.65.49-11.12,4.38-11.12,4.38s-2.24-2-1.92-3.31,1.71-6,1.71-6,11.55-2.67,12.51-2.57,8.13,1.82,9.41,2a13.49,13.49,0,0,1,3.53,1.72c.64.32,3.1,4.49,3.1,4.81A28.31,28.31,0,0,1,229.6,268.22Z" /><path class="cls-4" d="M192.22,264.74s-3.26,6.79-.48,12.57c0,0,4.82,11.1,26.2,10.37,21.57-.74,25.7-9.51,24.49-8.13a19.86,19.86,0,0,0,.11-13.36l-8.77,4.17-15.94,3.74S205,272,204.58,271.75s-6.42-5.24-6.42-5.24Z" /><path class="cls-4" d="M242.6,266.14c0,6.43-11.31,11.64-25.27,11.64s-25.28-5.21-25.28-11.64,11.32-11.64,25.28-11.64S242.6,259.71,242.6,266.14Zm-25.16-6.76c-6.92,0-12.53,2.78-12.53,6.21s5.61,6.2,12.53,6.2S230,269,230,265.59,224.36,259.38,217.44,259.38Z" /><polyline class="cls-2" points="195.72 272.15 194.39 276.79 195.64 281.66" /><path class="cls-5" d="M195.72,272.15a12,12,0,0,1,.14,1.3l-.32,1.16-.67,2.32v-.27l.62,2.44c.11.41.2.82.32,1.22a12.64,12.64,0,0,1-.18,1.34,10.13,10.13,0,0,1-.8-1.09c-.09-.41-.21-.81-.31-1.22l-.62-2.44,0-.13,0-.13.66-2.32.34-1.15A11.09,11.09,0,0,1,195.72,272.15Z" /><polyline class="cls-2" points="192.73 268.89 191.47 273.33 191.74 277.68" /><path class="cls-5" d="M192.73,268.9a10.79,10.79,0,0,1,.16,1.24l-.31,1.11-.63,2.22v-.17l.14,2.17c0,.36,0,.73.08,1.09a11.26,11.26,0,0,1-.44,1.12,9.25,9.25,0,0,1-.58-1.06c0-.36,0-.72-.06-1.09l-.13-2.17v-.08l0-.09.64-2.21.32-1.11A10.16,10.16,0,0,1,192.73,268.9Z" /><polyline class="cls-2" points="199.97 274.78 199.02 279.61 199.83 284.43" /><path class="cls-5" d="M200,274.78a8.8,8.8,0,0,1,.26,1.3c-.09.4-.16.81-.24,1.21l-.48,2.41v-.17l.4,2.41.2,1.2c-.09.43-.16.86-.29,1.29a11.3,11.3,0,0,1-.69-1.12l-.21-1.21-.4-2.41v-.18l.48-2.41c.07-.41.16-.81.23-1.21A9.64,9.64,0,0,1,200,274.78Z" /><polyline class="cls-2" points="205.22 276.59 204.05 281.3 205.15 286.3" /><path class="cls-5" d="M205.22,276.59a10,10,0,0,1,.2,1.3c-.11.39-.2.78-.3,1.17l-.59,2.36v-.23l.56,2.5.27,1.25c-.06.45-.11.9-.21,1.36a11.41,11.41,0,0,1-.76-1.15l-.28-1.25-.55-2.5,0-.11,0-.12.59-2.35c.1-.39.2-.78.29-1.18A10.54,10.54,0,0,1,205.22,276.59Z" /><polyline class="cls-2" points="211.35 277.43 210.2 282.2 211.11 287.81" /><path class="cls-5" d="M211.35,277.43a8.91,8.91,0,0,1,.21,1.31c-.12.4-.2.8-.3,1.19l-.57,2.39v-.2l.46,2.81c.07.47.16.93.21,1.4s-.14,1-.25,1.48c-.27-.43-.49-.88-.71-1.32s-.16-.94-.24-1.4l-.45-2.81,0-.1,0-.1.57-2.38c.09-.4.2-.79.28-1.2A9.37,9.37,0,0,1,211.35,277.43Z" /><polyline class="cls-2" points="216.54 277.86 216.71 282.75 216.1 287.79" /><path class="cls-5" d="M216.54,277.86a10.56,10.56,0,0,1,.54,1.2l0,1.23.09,2.44v.08l-.31,2.52-.15,1.26c-.2.4-.4.8-.64,1.2a13.59,13.59,0,0,1-.35-1.32l.15-1.26.3-2.52v.08l-.09-2.45,0-1.22A8.45,8.45,0,0,1,216.54,277.86Z" /><polyline class="cls-2" points="221.71 277.51 222.79 282.71 221.68 287.68" /><path class="cls-5" d="M221.71,277.51a12.82,12.82,0,0,1,.77,1.2c.07.44.17.87.26,1.3l.54,2.6,0,.1,0,.11-.55,2.48c-.1.42-.18.83-.29,1.24a11.88,11.88,0,0,1-.76,1.14c-.09-.46-.14-.9-.2-1.35s.18-.83.27-1.24l.56-2.49v.21l-.54-2.6c-.1-.43-.17-.86-.28-1.29A10.09,10.09,0,0,1,221.71,277.51Z" /><polyline class="cls-2" points="226.92 276.88 229 281.86 227.75 286.9" /><path class="cls-5" d="M226.92,276.88a9.72,9.72,0,0,1,1,1.05c.16.42.34.83.51,1.25l1,2.49.06.15,0,.16-.62,2.52c-.11.42-.2.84-.32,1.26s-.5.77-.79,1.14a13.32,13.32,0,0,1-.17-1.38c.09-.42.21-.84.31-1.26l.62-2.52,0,.32-1-2.5c-.18-.41-.34-.83-.53-1.24A11.35,11.35,0,0,1,226.92,276.88Z" /><polyline class="cls-2" points="232.54 275.54 233.91 280.21 232.7 285.86" /><path class="cls-5" d="M232.54,275.54a9.74,9.74,0,0,1,.82,1l.35,1.16.69,2.34,0,.12,0,.12-.6,2.83-.3,1.42c-.25.43-.5.87-.8,1.3a13.43,13.43,0,0,1-.19-1.52l.31-1.41.61-2.83v.25l-.69-2.33-.34-1.17A12.1,12.1,0,0,1,232.54,275.54Z" /><polyline class="cls-2" points="237.72 273.24 238.98 278.04 237.81 283.38" /><path class="cls-5" d="M237.72,273.24c.29.35.53.71.78,1.08s.22.79.33,1.19l.64,2.4,0,.12,0,.11-.59,2.67c-.09.45-.2.89-.28,1.34a9.13,9.13,0,0,1-.79,1.23,9.39,9.39,0,0,1-.21-1.45c.12-.44.2-.89.31-1.33l.59-2.67v.23l-.63-2.39c-.1-.41-.24-.8-.3-1.21A10.27,10.27,0,0,1,237.72,273.24Z" /><polyline class="cls-2" points="241.25 270.06 242.78 275.62 241.41 281.06" /><path class="cls-5" d="M241.24,270.06a12.37,12.37,0,0,1,.88,1.25c.11.47.25.93.37,1.4l.77,2.78,0,.12,0,.13-.68,2.72-.35,1.36c-.26.42-.52.83-.82,1.24-.08-.5-.11-1-.14-1.48l.34-1.36.68-2.72v.25l-.76-2.78c-.13-.46-.25-.93-.39-1.38A13.24,13.24,0,0,1,241.24,270.06Z" /><path class="cls-7" d="M220.78,233c-5.59-.26-2.33,10.14-2.33,10.14" /><path class="cls-8" d="M228.43,244.33a6.59,6.59,0,0,1-4.2,6.2,12.53,12.53,0,0,1-5.21-.38,6.63,6.63,0,0,1-3.38-5.82,6.4,6.4,0,1,1,12.79,0Z" /><path class="cls-7" d="M224.94,243.39s2.18-10.07-4.16-10.36" /><ellipse class="cls-5" cx="224.92" cy="244.14" rx="1.39" ry="1.29" /><line class="cls-9" x1="160.75" y1="220.22" x2="166.32" y2="220.62" /><polygon class="cls-5" points="164.24 244.83 169.23 236.18 166.73 235.93 161.08 244.58 164.24 244.83" /><polygon class="cls-5" points="197.58 247.74 200.07 238.51 197.58 238.26 194.42 247.49 197.58 247.74" /><ellipse class="cls-4" cx="164.7" cy="220.43" rx="5.78" ry="1.54" transform="matrix(0.05, -1, 1, 0.05, -63.11, 374.75)" /><polygon class="cls-5" points="166.55 214.55 164.79 214.37 163.77 216.83 163.13 222.91 164.18 226.21 164.52 226.46 165.82 226.62 166.55 214.55" /><ellipse class="cls-4" cx="166.1" cy="220.56" rx="6.07" ry="1.62" transform="translate(-61.91 376.28) rotate(-87.35)" /><ellipse class="cls-4" cx="202.19" cy="222.34" rx="5.78" ry="1.54" transform="translate(-29.26 414.02) rotate(-87.35)" /><polygon class="cls-5" points="204.04 216.46 202.29 216.28 201.26 218.74 200.63 224.82 201.67 228.12 202.01 228.37 203.31 228.54 204.04 216.46" /><ellipse class="cls-4" cx="203.6" cy="222.47" rx="6.07" ry="1.62" transform="translate(-28.06 415.56) rotate(-87.35)" /><line class="cls-9" x1="195" y1="215.65" x2="194.5" y2="241.58" /><line class="cls-10" x1="180.2" y1="247.49" x2="180.12" y2="260.95" /><line class="cls-10" x1="186.6" y1="253.72" x2="173.47" y2="252.81" /><line class="cls-10" x1="189.68" y1="260.62" x2="169.23" y2="258.88" /><polygon class="cls-5" points="197.24 241.08 166.57 239.17 165.24 241.08 196.83 243.08 197.24 241.08" /><path class="cls-4" d="M190.84,236.76s4.82-19.2-5.73-20.12c-12-1-9.48,19.21-9.48,19.21Z" /><polygon class="cls-4" points="190.84 236.76 175.63 235.85 169.98 246.57 189.76 248.23 190.84 236.76" /><line class="cls-9" x1="166.32" y1="220.62" x2="205.72" y2="222.63" /><line class="cls-9" x1="171.22" y1="214.48" x2="170.72" y2="240.42" /><path class="cls-11" d="M83.62,229.64s2.14-11.51-6.3-11.82C68.1,217.49,70.11,229,70.11,229" /><path class="cls-12" d="M83.92,230.12A7.35,7.35,0,0,1,79.24,237a13.91,13.91,0,0,1-5.81-.42,7.4,7.4,0,0,1-3.77-6.49,7.13,7.13,0,1,1,14.26,0Z" /><polyline class="cls-1" points="248.08 349 254.75 177.55 45.25 173.09 51.62 349" /><polygon class="cls-4" points="237.25 371.19 64.87 371.68 60.97 184.03 242.62 184.03 237.25 371.19" /><path class="cls-3" d="M244.27,240.2,61.85,226.8V188.39s185.41-2.5,185-1.21S244.27,240.2,244.27,240.2Z" /><polyline class="cls-2" points="240.73 273.24 242 278.04 240.82 283.38" /><path class="cls-5" d="M240.73,273.24a9.81,9.81,0,0,1,.78,1.08c.15.39.23.79.34,1.19l.63,2.4,0,.12,0,.11-.59,2.67c-.09.45-.21.89-.28,1.34a9.22,9.22,0,0,1-.8,1.23,10.73,10.73,0,0,1-.2-1.45c.12-.44.2-.89.3-1.33l.59-2.67v.23l-.64-2.39c-.09-.41-.23-.8-.29-1.21A12.34,12.34,0,0,1,240.73,273.24Z" /><polyline class="cls-2" points="244.26 270.06 245.79 275.62 244.42 281.06" /><path class="cls-5" d="M244.26,270.06a14.22,14.22,0,0,1,.88,1.25c.11.47.25.93.37,1.4l.76,2.78,0,.12,0,.13-.69,2.72-.35,1.36c-.26.42-.51.83-.82,1.24-.07-.5-.1-1-.13-1.48l.33-1.36.69-2.72v.25l-.77-2.78c-.13-.46-.24-.93-.39-1.38C244.17,271.08,244.19,270.58,244.26,270.06Z" /><polygon class="cls-4" points="84.01 180.02 111.79 182.51 111.8 210.63 84.4 209.24 84.01 180.02" /><path class="cls-4" d="M110.06,201.69s-4.11,3.4-.24,7.1c0,0-4.6-2.51-7.29,0,0,0-4.91-2.92-7.52-.52,0,0-6.06-3.34-8.81-.26,0,0,2.37-2.67-.44-7.1a5,5,0,0,0,0-7.25s3.75-2.67.08-8.06c0,0,3.39,4.3-.25.17,0,0,3.71,1.26-.16-3,0,0,3.78,3.26,7.45.7,0,0,5.69,3.81,8.58.24a6.75,6.75,0,0,0,7.84.86s-2.2.86.59,4c0,0-3.94-7.15.33-2.09,0,0-4.42,3.12-.29,8.55C109.94,195,105.83,198.39,110.06,201.69Z" /><polygon class="cls-4" points="205.9 186.28 204.38 215.29 139.05 212 134.93 181.27 205.9 186.28" /><polygon class="cls-4" points="201.65 189.31 139.18 185.11 143.02 207.76 201.09 211.01 201.65 189.31" /><polygon class="cls-4" points="195.18 236.26 194.59 246.07 196.09 246.21 196.88 234.9 195.18 236.26" /><polygon class="cls-13" points="190.38 253.9 197.21 241.2 197.98 228.81 190.54 240.52 190.38 253.9" /><polygon class="cls-4" points="190.38 245.1 188.71 256.52 187.34 256.59 187.8 244.88 190.38 245.1" /><polygon class="cls-4" points="133.51 241.1 133.19 253.31 134.54 253.54 136.4 240.78 133.51 241.1" /><polygon class="cls-4" points="132.9 236.72 133.03 250.11 190.21 254.24 190.72 240.45 132.9 236.72" /><polygon class="cls-4" points="144.01 225.07 132.01 236.63 191.92 240.47 199.05 227.94 144.01 225.07" /><path class="cls-4" d="M174,234.77s.26-3.07,7.17-3.84l6.92-.77,3.33-5.67h1.91l-1.61,5.67,1.61-1-.6,6.49-1.82-.65a44.44,44.44,0,0,1-9.42,1.16A17.37,17.37,0,0,1,174,234.77Z" /><line class="cls-4" x1="190.88" y1="235.03" x2="191.69" y2="230.16" /><path class="cls-5" d="M175.29,232.77l4.25.47.79-2.35S176.68,231.17,175.29,232.77Z" /><rect class="cls-14" x="174.68" y="236.37" width="1.13" height="1.3" rx="0.56" /><rect class="cls-14" x="188.41" y="236.72" width="1.47" height="1.47" rx="0.74" /><path class="cls-4" d="M175.24,236.37c.21-.06.3-1,.3-1" /><line class="cls-4" x1="189.14" y1="236.72" x2="188.67" y2="235.3" /><path class="cls-4" d="M139.5,234.21c-.17-.1-1-9.72-1-9.72s-.62-2,2.12-1.86a12.79,12.79,0,0,1,3.89.92s1.92.48,1.83,1.87c-.1,1.58,0,9,0,9A7.76,7.76,0,0,1,139.5,234.21Z" /><path class="cls-15" d="M138.53,224.27s.65,1.45,3.89,1.25c1-.06,3.76-.24,3.54-1.18" /><path class="cls-5" d="M140.64,223.38s-2.53-.07-1,.89c1.76,1.14,4.94.22,4.94.22S145.52,224,140.64,223.38Z" /><path class="cls-16" d="M146.37,230.08c.15-.05,3-1.2,3-1.2l.86,2.21-3.67,1.56Z" /><path class="cls-5" d="M140.22,228.59s-.58,2.79,1.3,2.59c1.16-.12.52-2.21.19-2.49S140.41,227.34,140.22,228.59Z" /><path class="cls-17" d="M138.83,228.88s1.36,1.78,7.54.62" /><polyline class="cls-5" points="149.46 228.59 146.6 228.46 146.57 229.84 149.43 228.85" /><path class="cls-2" d="M146.63,230l2.75-1,.62,2a34.26,34.26,0,0,1-3.38,1.56Z" /><polyline class="cls-4" points="60.97 257.24 81.22 259.68 59.85 283.91" /><polygon class="cls-4" points="81.22 259.68 80.8 262.18 63.32 283.19 62.79 280.57 81.22 259.68" /><path class="cls-4" d="M78.4,265.07,78.15,281s-.17.31-.75.29-.64-.29-.64-.29l-.2-13.64Z" /><ellipse class="cls-18" cx="221.07" cy="259.52" rx="6.07" ry="3.45" /><line class="cls-4" x1="218.15" y1="263.18" x2="216.62" y2="270.85" /><line class="cls-4" x1="217.55" y1="257.91" x2="216.02" y2="265.57" /><line class="cls-19" x1="223.77" y1="263.44" x2="224.96" y2="270.93" /><line class="cls-19" x1="225.3" y1="258.42" x2="226.49" y2="265.91" /><path class="cls-4" d="M219.43,256.33s.24-9.83-3.41-8.61c-2,.66-3.64,4.13-3.9,6.7,0,0,.1,4.6,3.51,6.63C215.63,261.05,218.79,258.76,219.43,256.33Z" /><path class="cls-13" d="M215.11,259.38l.91-.28a8.07,8.07,0,0,1,5-1.49c2.57,0,4.77.92,5.65,2.21l.46-.44s-.17,2.43-.24,2.51c-.4,1.68-2.8,2.62-5.87,2.62-2.78,0-4.85-.84-5.57-2.29Z" /><ellipse class="cls-4" cx="221.07" cy="259.52" rx="6.07" ry="3.45" /><ellipse class="cls-18" cx="214.7" cy="276.69" rx="6.07" ry="3.45" /><line class="cls-4" x1="211.78" y1="280.35" x2="210.25" y2="288.01" /><line class="cls-4" x1="211.19" y1="275.07" x2="209.65" y2="282.73" /><line class="cls-4" x1="217.4" y1="280.61" x2="218.59" y2="288.1" /><line class="cls-20" x1="218.93" y1="275.58" x2="220.12" y2="283.07" /><path class="cls-4" d="M213.06,273.5s.32-10.29-3.32-9.07c-4.6,1.53-5.11,11.24.89,14.81A33.4,33.4,0,0,0,213.06,273.5Z" /><path class="cls-4" d="M208.74,276.54l.92-.28a8.08,8.08,0,0,1,5-1.48c2.57,0,4.77.91,5.65,2.2l.46-.44s-.17,2.44-.24,2.52c-.4,1.68-2.8,2.62-5.87,2.62-2.78,0-4.85-.85-5.57-2.29Z" /><ellipse class="cls-4" cx="214.7" cy="276.69" rx="6.07" ry="3.45" /><polygon class="cls-4" points="223.55 284.47 222.93 295.96 221.58 296.08 220.97 284.35 223.55 284.47" /><polygon class="cls-21" points="237.34 284.47 236.73 295.96 235.37 296.08 234.76 284.35 237.34 284.47" /><polygon class="cls-4" points="219.71 281.67 219.88 286.27 238.95 287.46 239.8 282.87 219.71 281.67" /><polygon class="cls-4" points="239.4 252.83 224.79 252.34 218.35 281.8 240.82 283.38 239.4 252.83" /></g><g id="Grade_1" data-name="Grade 1"><polygon class="cls-22" points="128.58 368.95 170.83 368.59 171.42 372.1 128.97 372.42 128.58 368.95" /><ellipse class="cls-22" cx="134.92" cy="374.71" rx="1.78" ry="2.84" transform="translate(-244.52 495.68) rotate(-87.88)" /><ellipse class="cls-22" cx="134.92" cy="366.3" rx="1.78" ry="2.84" transform="translate(-236.12 487.58) rotate(-87.88)" /><polygon class="cls-22" points="129.49 374.64 54.37 377.25 47.95 177.17 252.05 179.82 243.44 374.58 172.12 374.18 170.84 367.53 233.65 367.32 237.47 189.92 61.33 190.13 66.79 368.51 130.86 367.94 129.49 374.64" /><polygon class="cls-22" points="128.58 368.95 170.83 368.59 171.42 372.1 128.97 372.42 128.58 368.95" /><ellipse class="cls-22" cx="134.92" cy="374.71" rx="1.78" ry="2.84" transform="translate(-244.52 495.68) rotate(-87.88)" /><ellipse class="cls-22" cx="134.92" cy="366.3" rx="1.78" ry="2.84" transform="translate(-236.12 487.58) rotate(-87.88)" /></g></svg>