<svg xmlns="http://www.w3.org/2000/svg" viewBox="0 0 300 900" width="300" height="900" preserveAspectRatio="none"><defs><style>.cls-1{fill:#5d3213;}.cls-10,.cls-11,.cls-13,.cls-15,.cls-17,.cls-18,.cls-2,.cls-20,.cls-4,.cls-5,.cls-6,.cls-7,.cls-8,.cls-9{fill:#f1e7a9;}.cls-3{fill:#f6efc5;stroke-miterlimit:10;stroke-width:0.7px;}.cls-10,.cls-11,.cls-13,.cls-14,.cls-15,.cls-16,.cls-17,.cls-18,.cls-19,.cls-20,.cls-21,.cls-3,.cls-4,.cls-5,.cls-6,.cls-7,.cls-8,.cls-9{stroke:#cdc290;}.cls-10,.cls-11,.cls-13,.cls-14,.cls-15,.cls-16,.cls-17,.cls-18,.cls-19,.cls-20,.cls-21,.cls-4,.cls-5,.cls-6,.cls-7,.cls-8,.cls-9{stroke-linejoin:round;}.cls-4{stroke-width:0.77px;}.cls-5{stroke-width:0.69px;}.cls-6,.cls-7{stroke-width:1.54px;}.cls-7{stroke-linecap:round;}.cls-8{stroke-width:0.64px;}.cls-9{stroke-width:0.58px;}.cls-10{stroke-width:0.47px;}.cls-11{stroke-width:0.44px;}.cls-12{fill:#cdc290;}.cls-13{stroke-width:0.42px;}.cls-14,.cls-16,.cls-19,.cls-21{fill:none;}.cls-14{stroke-width:0.33px;}.cls-15{stroke-width:0.45px;}.cls-16{stroke-width:0.38px;}.cls-17{stroke-width:0.39px;}.cls-18,.cls-19{stroke-width:0.43px;}.cls-20{stroke-width:0.64px;}.cls-21{stroke-width:0.5px;}.cls-22{fill:#159848;}</style></defs><g id="rooms"><polyline class="cls-1" points="248.08 349 254.75 177.55 45.25 173.09 51.62 349" /><polygon class="cls-2" points="64.27 371.78 236.65 372.27 240.55 184.62 58.9 184.62 64.27 371.78" /><path class="cls-3" d="M59.13,240.2l182.41-13.39V183.46s-185.4-2.5-185-1.22S59.13,240.2,59.13,240.2Z" /><polygon class="cls-4" points="83.31 201.06 104.86 200.85 104.4 223.43 85.83 223.86 83.31 201.06" /><line class="cls-5" x1="93.98" y1="200.65" x2="95.03" y2="223.86" /><line class="cls-5" x1="104.86" y1="212.99" x2="84.36" y2="213.82" /><polygon class="cls-4" points="169.94 233.54 172.57 233.34 180.76 245.64 176.05 245.84 169.94 233.54" /><polygon class="cls-4" points="126.66 236.95 129.47 236.78 125.47 249.73 120.7 249.9 126.66 236.95" /><polygon class="cls-4" points="170.96 236.36 128.29 239.64 127.58 242.77 172.67 239.49 170.96 236.36" /><line class="cls-6" x1="172.41" y1="211.56" x2="168.32" y2="211.65" /><line class="cls-6" x1="123.51" y1="214.71" x2="128.02" y2="214.46" /><polygon class="cls-4" points="169.77 193.24 169.77 224.85 127.43 226.72 123.68 194.35 169.77 193.24" /><polygon class="cls-4" points="175.14 237.29 171.9 237.72 171.22 209.86 174.37 209.94 175.14 237.29" /><polygon class="cls-4" points="124.19 212.92 121.21 213.35 124.02 241.55 127.94 241.29 124.19 212.92" /><polygon class="cls-4" points="167.21 195.46 126.66 196.57 129.73 223.74 167.38 222.29 167.21 195.46" /><line class="cls-7" x1="163.98" y1="255.22" x2="162.95" y2="261.27" /><line class="cls-7" x1="144.55" y1="255.99" x2="145.66" y2="262.12" /><polygon class="cls-4" points="144.29 244.83 163.89 244.15 165.51 253.94 142 254.71 144.29 244.83" /><path class="cls-4" d="M165.51,253.94s-.26,3.07-2.81,3.75-17.38.69-17.38.69a4.75,4.75,0,0,1-3.32-3.67Z" /><line class="cls-7" x1="158.95" y1="262.29" x2="159.46" y2="267.41" /><line class="cls-7" x1="149.15" y1="262.04" x2="148.56" y2="266.64" /><polygon class="cls-4" points="146.3 250.32 160.74 249.69 159.63 260.59 148.44 260.85 146.3 250.32" /><polygon class="cls-8" points="159.51 262.35 148.44 262.44 148.34 260.55 159.59 260.42 159.51 262.35" /><line class="cls-7" x1="211.17" y1="254.29" x2="210.75" y2="260.93" /><line class="cls-7" x1="191.75" y1="255.05" x2="192.43" y2="262.38" /><line class="cls-7" x1="188.09" y1="245.38" x2="188.6" y2="250.75" /><line class="cls-7" x1="206.37" y1="258.61" x2="206.88" y2="263.63" /><line class="cls-7" x1="198.17" y1="259.68" x2="197.75" y2="264.45" /><line class="cls-7" x1="195.43" y1="253.79" x2="195" y2="258.56" /><polygon class="cls-8" points="197.63 259.68 194.65 254.69 204.66 255.65 207.04 259.31 197.63 259.68" /><polygon class="cls-8" points="207.63 259.5 197.55 259.83 197.59 257.73 207.79 257.7 207.63 259.5" /><polygon class="cls-4" points="187.23 244.23 204.95 243.08 211.81 251.77 189.88 252.92 187.23 244.23" /><path class="cls-4" d="M211.73,252s0,3.19-2.52,3.87-16.66.82-16.66.82-1.74-.7-2.42-3.77Z" /><polygon class="cls-4" points="196.26 247.81 209.81 247.17 207.76 257.65 197.69 257.9 196.26 247.81" /><line class="cls-7" x1="92.08" y1="257.31" x2="92.89" y2="263.92" /><line class="cls-7" x1="111.51" y1="256.94" x2="111.26" y2="264.29" /><line class="cls-7" x1="114.61" y1="247.07" x2="114.41" y2="252.46" /><line class="cls-7" x1="97.13" y1="261.34" x2="96.91" y2="266.39" /><line class="cls-7" x1="105.37" y1="261.93" x2="106.08" y2="266.67" /><line class="cls-7" x1="107.77" y1="255.89" x2="108.47" y2="260.63" /><polygon class="cls-8" points="105.91 261.9 108.6 256.75 98.67 258.29 96.5 262.08 105.91 261.9" /><polygon class="cls-8" points="95.92 262.31 106 262.05 105.84 259.95 95.65 260.52 95.92 262.31" /><polygon class="cls-4" points="115.39 245.87 97.63 245.76 91.29 254.84 113.26 254.7 115.39 245.87" /><path class="cls-4" d="M91.39,255.09s.15,3.19,2.74,3.72,16.68-.16,16.68-.16,1.69-.8,2.2-3.91Z" /><polygon class="cls-4" points="106.58 249.97 93.02 250.13 95.68 260.47 105.75 260.13 106.58 249.97" /><polygon class="cls-9" points="186.21 238.14 216.63 236.09 218.8 194.82 183.14 194.82 186.21 238.14" /><polygon class="cls-9" points="216.63 236.18 213.56 232.86 186.04 234.31 186.21 238.23 216.63 236.18" /><line class="cls-9" x1="215.92" y1="194.84" x2="213.56" y2="232.86" /><polygon class="cls-9" points="218.24 204.57 183.83 205.68 183.66 204.57 215.22 203.53 218.24 204.57" /><path class="cls-10" d="M209.48,235.7h0c-.5-.15-.8-.43-.65-.92,0,0,4.17-13.22,4.89-13h0c.71.21-3.09,13.54-3.09,13.54C210.48,235.82,210,235.84,209.48,235.7Z" /><rect class="cls-10" x="213.67" y="217.72" width="0.84" height="5.58" transform="translate(72.63 -52.34) rotate(16.75)" /><rect class="cls-10" x="214.05" y="217.34" width="1.81" height="0.79" transform="translate(71.87 -52.71) rotate(16.75)" /><line class="cls-10" x1="214.91" y1="219.45" x2="213.99" y2="219.25" /><line class="cls-10" x1="214.57" y1="220.7" x2="213.65" y2="220.49" /><line class="cls-10" x1="214.21" y1="222.01" x2="213.29" y2="221.81" /><path class="cls-10" d="M187.07,217.59l6.59,15.35,5.61.26a1.79,1.79,0,0,1-.91,2.54l-5.45-1.4-7.21-16.73Z" /><line class="cls-10" x1="189.42" y1="223.25" x2="188.28" y2="223.75" /><line class="cls-10" x1="188.42" y1="221.31" x2="187.46" y2="221.7" /><line class="cls-10" x1="187.91" y1="219.78" x2="186.73" y2="220.09" /><path class="cls-10" d="M214.31,203.75l-.05-1.43-4.56.14,0,1.2c0,.25,1,.45,2.27.45a4.66,4.66,0,0,0,2.23-.36Z" /><ellipse class="cls-10" cx="211.99" cy="202.32" rx="2.27" ry="0.45" /><path class="cls-11" d="M201.93,199.33a5,5,0,0,1,.87,4.94l-12.91.32s-1-3.11.08-5.19c0,0,3.58.34,6.16.37A46.51,46.51,0,0,0,201.93,199.33Z" /><path class="cls-12" d="M191.85,199.69c0-.81-.19-1.6.44-2.27a1.52,1.52,0,0,1,.55-.33s5.34-.56,6.46-.08,1.35,2.31,1.35,2.31l-1.12.08a1.3,1.3,0,0,0-1.19-1.67c-1.6-.24-5-.24-5.34.32a2.89,2.89,0,0,0-.24,1.43Z" /><path class="cls-13" d="M200.58,199.49a8.09,8.09,0,0,1,.15,4.86H199.3a13.27,13.27,0,0,0,.29-4.75Z" /><path class="cls-13" d="M192.75,199.61a10.25,10.25,0,0,1,.35,5l-1.27-.06a10.15,10.15,0,0,0,0-4.95Z" /><path class="cls-13" d="M198.45,200.93l-3.82,0a4.32,4.32,0,0,1,0,2.46l3.8-.1A3.39,3.39,0,0,0,198.45,200.93Z" /><path class="cls-13" d="M190,199.4s1.46.95.48,5.21" /><ellipse class="cls-9" cx="206.44" cy="230.91" rx="4.72" ry="3.72" transform="translate(-31.21 429.55) rotate(-88.09)" /><line class="cls-14" x1="208.34" y1="226.9" x2="208.04" y2="235.09" /><line class="cls-14" x1="209.31" y1="227.8" x2="209.07" y2="234.25" /><line class="cls-14" x1="207.42" y1="226.32" x2="207.11" y2="235.49" /><line class="cls-14" x1="206.37" y1="226.13" x2="205.98" y2="235.5" /><line class="cls-14" x1="205.19" y1="226.36" x2="204.81" y2="235.29" /><polyline class="cls-14" points="208.85 234.51 203.81 234.31 204.01 227.43" /><line class="cls-14" x1="209.84" y1="232.66" x2="202.8" y2="232.53" /><line class="cls-14" x1="210.16" y1="231.03" x2="202.72" y2="230.78" /><line class="cls-14" x1="209.93" y1="229.34" x2="202.85" y2="229.25" /><line class="cls-14" x1="209.5" y1="228.18" x2="203.35" y2="227.91" /><polygon class="cls-10" points="207.21 224.38 206.22 224.37 206.59 217.2 207.92 217.28 207.21 224.38" /><line class="cls-10" x1="207.82" y1="218.73" x2="206.65" y2="218.73" /><line class="cls-10" x1="207.6" y1="220.42" x2="206.43" y2="220.42" /><polygon class="cls-9" points="217.65 217.44 184.85 218.8 184.59 217.27 214.58 216.12 217.65 217.44" /><ellipse class="cls-15" cx="211.73" cy="212.2" rx="4.94" ry="4.69" /><path class="cls-16" d="M213.94,208s-2.15.17-1.67,4.1c0,0-4,1.18-5.36-.72" /><path class="cls-16" d="M211.92,207.41s-2.24,1.47-1.5,5" /><path class="cls-16" d="M209.54,208a4.74,4.74,0,0,0-1.21,4.23" /><path class="cls-16" d="M212.19,212.08s2,1.53.88,4.63" /><path class="cls-16" d="M213.17,213.51a8.58,8.58,0,0,1-6.41-.23" /><path class="cls-16" d="M213.44,215.21a7.54,7.54,0,0,1-5.38.07" /><path class="cls-16" d="M212.34,209.8s3.21,1.28,2.61,5.93" /><path class="cls-16" d="M213,208.42s3,.6,3.58,4.56" /><ellipse class="cls-17" cx="205.65" cy="214.9" rx="2.37" ry="2.3" /><path class="cls-14" d="M206.52,212.79s-1.15.57-.6,1.56,2,.36,2,.36" /><path class="cls-14" d="M203.28,214.9s1.08-1.35,1.76-.39-.5,2.3-.5,2.3" /><circle class="cls-18" cx="190.73" cy="212.96" r="4.89" /><path class="cls-19" d="M187.58,216.7c.91.75,3.06-.35,4.8-2.46s2.34-4.33,1.43-5.08" /><path class="cls-19" d="M187,209.87c.75-.91,3-.29,5.14,1.44s3.17,3.86,2.42,4.78" /><path class="cls-19" d="M195.64,212.92a4.9,4.9,0,0,0-1.2,1.13c-.54.69-1.57,3.35-2.6,3.68" /><path class="cls-19" d="M191.22,208.1s2.5.62.87,3.21-5.24,1.85-6,2.78" /><polygon class="cls-9" points="186.21 238.23 184.3 235.41 180.76 196.19 183.47 194.66 186.21 238.23" /><polygon class="cls-20" points="110.49 233.94 110.43 241.73 109.37 241.73 108.84 233.77 110.49 233.94" /><polygon class="cls-20" points="82.48 235.24 83.42 243.09 84.25 242.97 84.07 235.12 82.48 235.24" /><polygon class="cls-20" points="86.96 231.06 87.25 239.43 86.37 239.43 85.66 231.23 86.96 231.06" /><polygon class="cls-20" points="107.89 238.13 106.66 238.31 106.6 230.17 107.95 230.17 107.89 238.13" /><polygon class="cls-20" points="108.25 229.54 110.96 232.96 81.77 234.58 85.91 230.44 108.25 229.54" /><polygon class="cls-20" points="111.02 234.53 81.71 236.07 81.71 234.59 111.02 233.06 111.02 234.53" /><path class="cls-21" d="M204,227.46a15.77,15.77,0,0,0,2.79-3.86,16.38,16.38,0,0,0,2.41,4.05" /></g><g id="Grade_3" data-name="Grade 3"><polygon class="cls-22" points="169.81 365.17 200.3 351.42 201.94 354.82 170.83 367.78 169.81 365.17" /><ellipse class="cls-22" cx="192.86" cy="351.28" rx="2.84" ry="1.78" transform="translate(-139.44 127.29) rotate(-27.25)" /><ellipse class="cls-22" cx="196.22" cy="359.48" rx="2.84" ry="1.78" transform="translate(-142.82 129.74) rotate(-27.25)" /><polygon class="cls-22" points="129.49 374.87 54.37 377.49 47.95 177.4 252.05 180.05 243.44 374.81 172.12 374.42 170.84 367.76 233.65 367.55 237.47 190.15 61.33 190.36 66.79 368.74 130.86 368.17 129.49 374.87" /></g></svg>