<svg xmlns="http://www.w3.org/2000/svg" viewBox="0 0 300 900" width="300" height="900" preserveAspectRatio="none"><defs><style>.cls-1{fill:#86815c;}.cls-2{fill:#d2ca7a;stroke:#fff;stroke-miterlimit:10;stroke-width:0.7px;}.cls-3{fill:#f2e8aa;}.cls-4{fill:#bbb57f;}.cls-5{fill:#a29a6a;}.cls-6{fill:#3090c1;}.cls-7{fill:#226694;}</style></defs><g id="stairs_3" data-name="stairs 3"><path class="cls-1" d="M109.32,344c7.07-.1,14.14,0,21.22-.07s14.14.07,21.21.23c-7.07.1-14.14,0-21.21.07S116.39,344.12,109.32,344Z" /><path class="cls-1" d="M109.54,337.83c6.77.11,13.54.39,20.32.58s13.54.5,20.31.87c-6.78-.11-13.55-.39-20.32-.58S116.3,338.2,109.54,337.83Z" /><path class="cls-1" d="M110.06,324.83c6.88.19,13.75.54,20.62.8s13.74.65,20.6,1.1c-6.88-.19-13.74-.54-20.62-.8S116.93,325.28,110.06,324.83Z" /><path class="cls-1" d="M110.43,319.93c6.95,0,13.9.18,20.84.26s13.9.3,20.84.56c-7,0-13.89-.17-20.84-.26S117.37,320.19,110.43,319.93Z" /><path class="cls-1" d="M149.14,311.64c-6.35,0-12.7-.24-19.06-.36s-12.7-.37-19.05-.67c6.35.05,12.71.25,19.06.37S142.8,311.34,149.14,311.64Z" /><path class="cls-1" d="M110.65,315.18c6.48-.13,13-.09,19.45-.15s13,0,19.45.15c-6.48.13-13,.1-19.45.15S117.13,315.31,110.65,315.18Z" /><path class="cls-1" d="M111,306.93c6.77-.34,13.54-.51,20.31-.78s13.55-.4,20.33-.48c-6.77.34-13.55.52-20.32.78S117.8,306.85,111,306.93Z" /><path class="cls-1" d="M112,301.15c6.49,0,13,.1,19.47.14s13,.21,19.46.44c-6.49,0-13-.1-19.47-.14S118.48,301.37,112,301.15Z" /><path class="cls-1" d="M109.54,332c6.85,0,13.71.08,20.57.11s13.71.18,20.57.4c-6.86,0-13.72-.07-20.58-.1S116.39,332.25,109.54,332Z" /><line class="cls-2" x1="197.83" y1="379.47" x2="198.89" y2="377.51" /><polygon class="cls-3" points="107.23 374.88 106.52 362.86 112.67 273.25 193.48 273.97 198.02 377.7 107.23 374.88" /><path class="cls-4" d="M111.11,300.85l-3.21,60.51c.82,0,23.64.37,34.11.42l5.41-60.2Z" /><path class="cls-5" d="M150.12,301.37l-5.05.08-7.8,60.17c7.56,0,11.69.22,11.69.22Z" /><path class="cls-1" d="M109.14,343.73c7.07-.1,14.14,0,21.21-.07s14.15.08,21.22.23c-7.08.1-14.15.05-21.22.07S116.21,343.89,109.14,343.73Z" /><path class="cls-1" d="M109.35,337.59c6.78.12,13.55.39,20.33.58s13.54.51,20.31.88c-6.78-.12-13.55-.39-20.33-.58S116.12,338,109.35,337.59Z" /><path class="cls-1" d="M109.88,324.6c6.87.19,13.74.53,20.61.8s13.74.65,20.61,1.09c-6.88-.18-13.75-.53-20.62-.79S116.74,325,109.88,324.6Z" /><path class="cls-1" d="M110.25,319.69c7,0,13.89.18,20.84.27s13.89.29,20.84.56c-7,0-13.9-.18-20.84-.27S117.19,320,110.25,319.69Z" /><path class="cls-1" d="M149,311.41c-6.35-.05-12.71-.25-19.06-.37s-12.71-.36-19.06-.66c6.36,0,12.71.24,19.07.36S142.61,311.11,149,311.41Z" /><path class="cls-1" d="M110.46,315c6.49-.13,13-.1,19.46-.15s13,0,19.45.15c-6.48.13-13,.09-19.45.15S117,315.07,110.46,315Z" /><path class="cls-1" d="M110.84,306.7c6.77-.34,13.55-.52,20.32-.78s13.55-.4,20.32-.48c-6.77.34-13.54.51-20.31.78S117.62,306.61,110.84,306.7Z" /><path class="cls-1" d="M111.81,300.91c6.49,0,13,.1,19.47.14s13,.22,19.47.44c-6.49,0-13-.09-19.47-.14S118.3,301.14,111.81,300.91Z" /><path class="cls-1" d="M109.35,331.8c6.86-.05,13.72.07,20.57.1s13.72.19,20.57.4c-6.86.05-13.71-.07-20.57-.1S116.21,332,109.35,331.8Z" /><path class="cls-1" d="M108.52,354.25c7.24.3,14.47.75,21.71,1.11s14.47.86,21.7,1.41c-7.24-.29-14.48-.74-21.72-1.11S115.74,354.8,108.52,354.25Z" /><path class="cls-1" d="M108.88,349.35c7.39,0,14.77.16,22.15.23s14.76.28,22.14.54c-7.39,0-14.77-.16-22.15-.24S116.26,349.6,108.88,349.35Z" /><path class="cls-1" d="M107.9,361.36c7.14-.08,14.28,0,21.42,0s14.29.11,21.43.29c-7.14.08-14.29,0-21.43,0S115,361.54,107.9,361.36Z" /><polygon class="cls-5" points="193.05 307.17 174.1 306.97 186.67 356.43 196.46 347.29 193.05 307.17" /><path class="cls-4" d="M150.67,306.73l1.62,51.61c.05.07,37.17-5.91,42.4-8.56L185,307.13Z" /><polygon class="cls-3" points="151.62 341.47 151.62 373.61 198.02 377.7 197.67 342.92 151.62 341.47" /><path class="cls-1" d="M201.19,324.77c-8.28.15-16.56.14-24.84.21s-16.56,0-24.84-.08c8.28-.15,16.56-.14,24.84-.21S192.91,324.66,201.19,324.77Z" /><path class="cls-1" d="M195.54,328.55c-7.36.3-14.73.44-22.09.67s-14.73.32-22.1.37c7.36-.31,14.73-.45,22.09-.67S188.17,328.59,195.54,328.55Z" /><path class="cls-1" d="M195.9,336.43c-7.68.33-15.36.5-23,.75s-15.36.38-23.05.45c7.68-.33,15.36-.5,23-.75S188.22,336.5,195.9,336.43Z" /><path class="cls-1" d="M196.87,342.76c-7.54-.09-15.08-.34-22.63-.5s-15.08-.45-22.62-.79c7.54.08,15.09.33,22.63.49S189.33,342.41,196.87,342.76Z" /><path class="cls-1" d="M195.37,307.18c-7.45.05-14.9-.05-22.35-.08s-14.9-.17-22.35-.37c7.45-.06,14.9,0,22.35.08S187.92,307,195.37,307.18Z" /><path class="cls-1" d="M195.22,313.1c-7.31.28-14.62.41-21.93.62s-14.63.29-21.94.32c7.31-.29,14.62-.41,21.93-.62S187.9,313.12,195.22,313.1Z" /><path class="cls-1" d="M195.65,333.55c-7.53-.09-15.06-.34-22.58-.5s-15.06-.46-22.58-.81c7.53.09,15.06.34,22.58.51S188.12,333.21,195.65,333.55Z" /><path class="cls-1" d="M194.91,319.9c-7.2,0-14.4-.26-21.6-.39s-14.39-.38-21.58-.69c7.2.05,14.39.27,21.59.39S187.71,319.6,194.91,319.9Z" /></g><g id="Grade_4" data-name="Grade 4"><polygon class="cls-6" points="153.01 298.7 146.86 297.45 147.42 307.37 145.29 372.98 155.92 371.46 151.93 304.66 153.01 298.7" /><polygon class="cls-7" points="107.9 361.36 106.12 360.5 110.55 272.13 195.4 272.05 197.83 372.95 190.54 276.34 114.52 274.67 107.9 361.36" /><polygon class="cls-6" points="96.69 258.25 206.05 258.2 208.28 377.47 198.02 377.7 193.23 275.26 110.94 273.49 108.06 350.11 107.23 374.88 94.68 374.65 96.69 258.25" /></g></svg>