<svg version="1.1" xmlns="http://www.w3.org/2000/svg" xmlns:xlink="http://www.w3.org/1999/xlink" x="0px" y="0px" viewBox="0 0 432 408" style="enable-background:new 0 0 432 408;" xml:space="preserve" width="432" height="408" preserveAspectRatio="none"><style type="text/css">
	.st0{fill:none;stroke:#BDE0D8;stroke-width:3;stroke-linejoin:round;stroke-miterlimit:10;}
	.st1{fill:#C78C63;}
	.st2{fill:#8A583F;}
	.st3{fill:#F2D5BA;}
	.st4{fill:#D0F2EA;}
	.st5{fill:#FFC9CD;}
	.st6{fill:#FFF8D9;}
	.st7{stroke:#000000;stroke-width:0.9864;stroke-miterlimit:10;}
	.st8{fill:#573827;}
	.st9{fill:none;}
	.st10{fill:#333333;}
	.st11{fill:#42152F;}
	.st12{fill:#611E45;}
	.st13{fill:#B34EA0;}
	.st14{fill:#FFFFFF;}
	.st15{fill:#852975;}
	.st16{fill:#A97251;}
	.st17{fill:#2959A1;}
	.st18{fill:#89C661;}
	.st19{fill:#C1272D;}
	.st20{display:none;}
	.st21{display:inline;}
	.st22{fill:none;stroke:#EA0000;stroke-width:4;stroke-miterlimit:10;}
	.st23{fill:none;stroke:#EA0000;stroke-width:4;stroke-miterlimit:10;stroke-dasharray:6.0068,6.0068;}
	.st24{fill:none;stroke:#EA0000;stroke-width:4;stroke-miterlimit:10;stroke-dasharray:6.0172,6.0172;}
	.st25{fill:none;stroke:#C1272D;stroke-miterlimit:10;}
	.st26{fill:none;stroke:#000000;stroke-miterlimit:10;}
	.st27{fill:none;stroke:#BDE0D8;stroke-width:2.1339;stroke-linejoin:round;stroke-miterlimit:10;}
	.st28{fill:#E349AD;stroke:#000000;stroke-width:0.6708;stroke-miterlimit:10;}
	.st29{fill:#FFFFFF;stroke:#FFFFFF;stroke-miterlimit:10;}
	.st30{fill:#CCCCCC;}
	.st31{fill:#E6E6E6;}
	.st32{fill:#FF4D4D;}
</style><g id="Layer_3" /><g id="BG" /><g id="Open_Mouth"><path class="st0" d="M259.7,210c0,0-12.7,2.3-18.4-12.7C235.5,182.3,254.5,175.3,259.7,210z" /><path class="st1" d="M398.1,373.9c0.2-0.3,0.3-0.6,0.3-0.9c1.8-8.1-4.5-18.1-18.1-18.9c-8.9-0.5-25.8,10.2-33,15
		c-3.6,1.2-5.9,2.1-5.9,2.1l0.5,0.2c-10.3,1.6-19.9,4.6-22.1,7.4c0,0,23.3-4.7,34.8,6.4c11.6,11.2,23.8,21.2,29.3,13.6
		c2.1-2.9,2.4-6,1.5-9c4.1,1.6,8.4,2.4,10.9,0.3C400.4,386.9,401.5,379.8,398.1,373.9z" /><g><path class="st2" d="M362.9,365.3c2.9-1.9,6.1-3.2,9.5-4c1.7-0.4,3.4-0.6,5.2-0.7c1.8,0,3.5,0.1,5.3,0.4c1.7,0.4,3.4,0.9,5,1.7
			c1.6,0.8,3.1,1.8,4.3,3c2.6,2.4,4.4,5.4,5.6,8.7c-1.9-2.8-4.1-5.4-6.6-7.5c-2.6-2-5.6-3.4-8.8-4c-3.2-0.7-6.5-0.6-9.8-0.2
			C369.4,363.3,366.1,364.1,362.9,365.3z" /></g><g><path class="st2" d="M385.3,390.3c0-3.6-0.6-7.1-2.1-10.2c-1.5-3.1-4.1-5.4-7.2-6.7c-1.6-0.6-3.2-1.1-4.9-1.3
			c-0.8-0.1-1.7-0.2-2.6-0.3c-0.9,0-1.7-0.1-2.6-0.1c-3.5,0-7,0.4-10.6,0.8c3.4-1.2,6.9-2,10.6-2.3c3.6-0.3,7.4,0,10.9,1.4
			c1.7,0.7,3.4,1.8,4.8,3.1c1.3,1.4,2.4,3,3.1,4.7C386.1,383,386.2,386.8,385.3,390.3z" /></g><path class="st1" d="M242.2,377.1l0.5-0.2c0,0-2.2-0.9-5.9-2.1c-7.1-4.8-24.1-15.5-33-15c-13.6,0.7-19.9,10.8-18.1,18.9
		c0.1,0.3,0.2,0.6,0.3,0.9c-3.4,5.9-2.3,13,1.7,16.3c2.5,2.1,6.8,1.3,10.9-0.3c-0.8,3.1-0.6,6.1,1.5,9c5.5,7.5,17.7-2.5,29.3-13.6
		c11.5-11.1,34.8-6.4,34.8-6.4C262.1,381.7,252.5,378.8,242.2,377.1z" /><g><path class="st2" d="M221.2,370.9c-3.2-1.1-6.5-2-9.8-2.4c-3.3-0.4-6.6-0.5-9.8,0.2c-3.2,0.6-6.2,2-8.8,4c-2.6,2-4.7,4.6-6.6,7.5
			c1.2-3.2,3-6.2,5.6-8.7c1.3-1.2,2.8-2.2,4.3-3c1.6-0.8,3.3-1.4,5-1.7c1.7-0.3,3.5-0.5,5.3-0.4c1.8,0.1,3.5,0.3,5.2,0.7
			C215,367.7,218.3,369,221.2,370.9z" /></g><g><path class="st2" d="M198.7,396c-0.9-3.5-0.7-7.3,0.7-10.8c0.7-1.8,1.7-3.4,3.1-4.7c1.4-1.4,3-2.4,4.8-3.1
			c3.5-1.4,7.3-1.7,10.9-1.4c3.6,0.3,7.2,1.1,10.6,2.3c-3.6-0.4-7.1-0.8-10.6-0.8c-0.9,0-1.7,0.1-2.6,0.1c-0.9,0.1-1.7,0.1-2.6,0.3
			c-1.7,0.2-3.4,0.7-4.9,1.3c-3.1,1.2-5.7,3.6-7.2,6.7C199.3,388.8,198.7,392.4,198.7,396z" /></g><path class="st2" d="M329.5,236.5c-2.5-6.8-3.7-14.9-2.9-24.5l-73-41.6c0,0-2.7,19.2,4,34c6.7,14.8,6.3,43.2-23.7,45.2
		c-6.7,0.4-20.9-1.8-26.3-6.6c1.8-7.5,10.8-49.8-12.9-66.4c-18.1-12.6-41.5-4.6-44.6,20.8c0,0-27.4,9.8-23.2,28.5
		c4.4,19.4-4.9,43-28.7,43.3c0,0,20.9,7.4,29.7-5.3c0,0-2.1,25.1-39.8,30.4c0,0,69.2,10.2,77.2-42.4c5.2-34.2-12.7-81.7,19.9-69.3
		c11.9,4.5,24,20.7,10,68.9c-1.7,5.7-4,12.1-6.4,18.6c-5.8,15.7-17.9,87.3,52.8,109.2c42.6,13.2,85.7,8.6,110.8-9.3L329.5,236.5z" /><path class="st1" d="M324.9,221.9c0,0,24.5,26.2,55,31.3c24.2,4,25.5,30,8.1,25.1c-9.2-2.6-14.3-19.2-14.3-19.2s-26-4-51.5-28.7
		L324.9,221.9z" /><path class="st1" d="M261.3,218.6c0,0-10.6,31.5-44.1,43.3c-6.6,2.3-18.4,11.6-15.2,25.1c3.1,13.4,13.4,5.4,16.1-2.7s3.3-16,3.3-16
		s28.9-6.8,41.9-40.4L261.3,218.6z" /><path class="st3" d="M329.5,236.5c0,0-5.1-17.8-3.3-33l-46.6,1.3c0,0-4.5,53.3-41.2,62.7l11.6,3.6c0.1-0.1-19.7,5.9-31.8,26.4
		l11.6-4c0,0-60,60.8,11.6,86c66.3,23.3,110.2-7.8,110.2-7.8c16.6-11.8,25.8-32.5,21.4-54.4l7.2,4.4c0,0,3.6-31.3-21.5-45.7
		l11.6,1.2c0,0-7.6-9.6-17.4-14.6C344.9,258.5,334.9,251.3,329.5,236.5" /><g><g><path class="st2" d="M382.4,260.2c1.8,0.6,3.5,1.6,5,2.8c1.5,1.2,2.8,2.7,3.9,4.4c1,1.7,1.6,3.7,1.7,5.6c0.2,2-0.5,3.9-1.4,5.6
				c0.1-1.9,0.2-3.7-0.2-5.4c-0.4-1.7-1-3.3-1.9-4.8C387.6,265.4,385.1,262.8,382.4,260.2z" /></g><g><path class="st2" d="M390.5,259.4c1.6,0.3,3,1.1,4.2,2.2c1.2,1.1,2.2,2.4,2.9,3.9c0.7,1.5,1.1,3,1.3,4.6c0.1,0.8,0.1,1.6,0.2,2.4
				c-0.1,0.8-0.1,1.6-0.2,2.4c-0.1-0.8-0.2-1.6-0.3-2.3c-0.2-0.8-0.3-1.5-0.4-2.3c-0.2-0.7-0.3-1.5-0.6-2.2
				c-0.1-0.4-0.2-0.7-0.4-1.1l-0.5-1c-0.7-1.4-1.5-2.6-2.5-3.8C393.1,261.1,391.9,260.1,390.5,259.4z" /></g></g><g><g><path class="st2" d="M214.7,272.2c-1.7,3.4-3.1,6.7-3.7,10.1c-0.3,1.7-0.4,3.4-0.3,5.2c0,0.4,0.1,0.9,0.1,1.3l0.3,1.3
				c0,0.2,0.1,0.4,0.1,0.7c0.1,0.2,0.2,0.4,0.2,0.6c0.1,0.4,0.3,0.9,0.4,1.3c-0.3-0.4-0.6-0.7-0.9-1.1c-0.2-0.2-0.3-0.4-0.4-0.6
				c-0.1-0.2-0.2-0.4-0.3-0.6l-0.6-1.3c-0.2-0.5-0.3-0.9-0.4-1.4c-0.5-1.9-0.5-3.9-0.1-5.8c0.4-1.9,1.1-3.7,2.1-5.4
				C212.1,274.9,213.3,273.3,214.7,272.2z" /></g><g><path class="st2" d="M207.2,273.3c-1.1,1.2-1.8,2.5-2.3,3.9c-0.5,1.4-0.9,2.9-1.1,4.4l-0.1,1.1l0,1.1c-0.1,0.8,0,1.5,0,2.3
				l0.1,2.3c0.1,0.8,0.2,1.5,0.2,2.3c-0.3-0.7-0.5-1.5-0.7-2.2c-0.2-0.8-0.3-1.5-0.4-2.3c-0.2-1.6-0.3-3.2,0-4.8
				c0.2-1.6,0.6-3.2,1.4-4.6C204.9,275.4,205.9,274.1,207.2,273.3z" /></g></g><path class="st0" d="M259.1,210.5c0,0-21.3-6.1-21.3,9.6S256.5,215.2,259.1,210.5z" /><path class="st4" d="M328.4,223.3c0,0,72.6,56.2-21.8,56.5c-64.2,0.2-58.5-10.8-49.5-76.7C269.9,224.7,290.7,231.7,328.4,223.3z" /><g><path class="st5" d="M296.9,70.8c0,0,5.8-9-1-16.7c0,0,44.9,15.2,30.7,49.9l-23.3,12.6c0,0-15.6-11.8-13.2-24.7
			S296.9,70.8,296.9,70.8z" /><path class="st2" d="M300.5,118.4l8.9-4.1c0,0-17.1-8-14.5-25.4c2.2-14.5,11.4-24.8,3.5-32.8c0,0-0.5,9.1-5.4,19.4
			C288.3,85.4,278.8,108.2,300.5,118.4z" /><g><path class="st2" d="M297.1,66.1c0.5-4,0.3-8.1-1.4-11.6c-1.7-3.5-4.9-6.2-8.8-7.6c-3.8-1.4-8.1-1.8-12.4-1.4
				c-4.2,0.4-8.4,1.7-12.2,3.6c3.7-2.2,7.8-3.8,12.1-4.6c4.3-0.8,8.8-0.8,13.2,0.4c2.2,0.6,4.3,1.6,6.2,3c1.9,1.4,3.5,3.1,4.7,5.2
				c1.2,2,2,4.3,2.4,6.6c0.4,2.3,0.5,4.6,0.4,6.9L297.1,66.1z" /></g><g><path class="st2" d="M297.3,63.1c0.1-0.4,0-1.2,0-1.7c-0.1-0.6-0.1-1.2-0.3-1.8c-0.3-1.2-0.7-2.4-1.4-3.4
				c-1.3-2.1-3.5-3.5-6.1-4.1c-2.6-0.6-5.4-0.6-8.2-0.2c-2.8,0.4-5.6,1-8.3,1.9c2.6-1.2,5.3-2.2,8.1-2.9c2.8-0.7,5.7-1.2,8.8-0.8
				c1.5,0.2,3,0.6,4.5,1.3c1.4,0.7,2.7,1.7,3.8,3c1.1,1.3,1.8,2.7,2.4,4.2c0.3,0.8,0.5,1.5,0.7,2.3c0.2,0.8,0.3,1.5,0.3,2.5
				L297.3,63.1z" /></g></g><g><path class="st5" d="M239.7,165.4c0,0-28.7,8.4-47.7-15.2s-14.3-38.9-6.9-52.8c0,0-0.5,12.1,8.3,16.3c8.7,4.2,29.6-1.1,41.2,12.6
			c11.7,13.7,16.8,28.9,16.8,28.9L239.7,165.4z" /><path class="st2" d="M185.1,90.7c0,0-3.6,20.9,20.1,21.6s41.2,6.9,46.6,29.3l-8.8,12c0,0-4-27.3-22.9-31.9
			C211.4,119.6,179,120.6,185.1,90.7z" /><g><path class="st2" d="M188.9,77.6c-1,2.8-1.7,5.7-2.1,8.6c-0.4,2.9-0.5,5.9-0.2,8.7c0.3,2.9,1.1,5.6,2.2,8.2l0.9,1.9l1.1,1.7
				c0.2,0.3,0.4,0.6,0.6,0.9l0.7,0.8l1.3,1.6l-3.2,2.8l-1.4-2l-0.7-1c-0.2-0.3-0.4-0.7-0.6-1.1l-1.1-2.1l-0.8-2.2
				c-0.9-3-1.5-6.1-1.4-9.2c0-3.1,0.5-6.1,1.2-9C186.6,83.1,187.6,80.2,188.9,77.6z" /></g><g><path class="st2" d="M194.8,115.5c-0.7-0.6-1.2-1.2-1.8-1.8c-0.5-0.6-1.1-1.2-1.6-1.9c-1-1.3-1.9-2.7-2.6-4.2
				c-0.7-1.5-1.3-3.1-1.5-4.9c-0.2-1.7-0.1-3.5,0.4-5.2c0.5-1.6,1.4-3.1,2.5-4.3c1.1-1.2,2.4-2.2,3.7-3.1c2.6-1.7,5.5-2.8,8.4-3.8
				c-2.7,1.4-5.3,2.9-7.6,4.8c-1.1,1-2.1,2-2.9,3.2c-0.8,1.2-1.3,2.4-1.5,3.7c-0.4,2.6,0.5,5.2,2,7.4c0.8,1.1,1.7,2.2,2.7,3.1
				c0.5,0.5,1,1,1.5,1.4c0.5,0.4,1.1,0.9,1.6,1.2L194.8,115.5z" /></g></g><ellipse transform="matrix(0.9035 -0.4285 0.4285 0.9035 -16.9425 164.1449)" class="st6" cx="356.1" cy="119.7" rx="20.6" ry="19" /><ellipse cx="365.7" cy="118.2" rx="10.1" ry="11.5" /><path class="st2" d="M375.1,127.1c11.6,24.4-11.3,54.7-48.9,72.5s-81.6,14-88.9-12c-7.8-27.8,9.4-58.7,47-76.5
		S363.5,102.7,375.1,127.1z" /><path class="st2" d="M388.8,131.3l-28.6-1.9l-7.6-22.2C352.7,107.2,378.5,111.8,388.8,131.3z" /><ellipse transform="matrix(0.972 -0.2349 0.2349 0.972 -25.8338 71.7887)" class="st6" cx="288.4" cy="144.3" rx="22.7" ry="23.7" /><ellipse class="st7" cx="292.7" cy="149.3" rx="12.1" ry="13.4" /><g><path class="st8" d="M276.7,191c-1.1,0.7-2.4,1.2-3.7,1.3c-1.4,0.2-2.9,0-4.2-0.7c-1.3-0.6-2.5-1.5-3.4-2.6
			c-0.9-1-1.7-2.1-2.4-3.3c-1.3-2.3-2.3-4.6-3.3-6.9l-2.9-7c2.1,1.6,3.7,3.7,5.1,5.8c1.4,2.1,2.6,4.4,3.9,6.4c1.2,2.1,2.5,4,4.3,5.3
			C271.6,190.8,274.1,191.1,276.7,191z" /></g><g><path class="st8" d="M262.3,167.4c-1.3,1-2.6,1.9-3.7,2.9c-1.1,1-2.1,2.1-3,3.3c-0.5,0.6-0.8,1.2-1.2,1.8c-0.3,0.7-0.7,1.3-0.9,2
			c-0.6,1.4-0.9,2.9-1.4,4.5c-0.4-1.6-0.6-3.3-0.2-4.9c0.1-0.9,0.5-1.6,0.7-2.4c0.4-0.8,0.8-1.5,1.3-2.2c1-1.4,2.3-2.5,3.7-3.4
			C259.1,168.2,260.6,167.6,262.3,167.4z" /></g><ellipse transform="matrix(0.6733 -0.7394 0.7394 0.6733 22.4274 296.4658)" class="st10" cx="346.7" cy="122.9" rx="6.1" ry="3.6" /><ellipse transform="matrix(0.2995 -0.9541 0.9541 0.2995 139.2919 426.9755)" class="st10" cx="360.4" cy="118.6" rx="3.4" ry="5.2" /><g><path class="st8" d="M291.1,116.5c3.9,0.7,7.6,2.3,11,4.5c3.4,2.2,6.4,5.1,8.7,8.5c2.3,3.4,3.8,7.4,4.3,11.5
			c0.4,4.1-0.1,8.2-1.6,11.9c-0.1-4-0.5-7.7-1.4-11.3c-1-3.5-2.5-6.8-4.5-9.8c-2-3-4.5-5.7-7.3-8.2
			C297.4,121,294.4,118.7,291.1,116.5z" /></g><path class="st11" d="M367.9,172.9c7.6-5.1,30.8-36.5,21-41.6c-36.2-18.7-83.6,35.3-95.6,47.3c-6.9,6.9-11.8,10-14.6,11.3
		l89.7-16.9C368,172.9,367.9,172.9,367.9,172.9z" /><path class="st12" d="M368.2,173c-32.5,0.3-61.7,7.3-89.7,16.9c-2.1,1-3.2,1.1-3.2,1.1c29.9,31.1,99.4,35.9,112.5,14.9
		C400.1,186.3,371.9,174.5,368.2,173z" /><path class="st13" d="M345.1,173.5c23.5-0.5,41.4,28.2,23.5,32.4c-23.3,5.5-42.2-9.6-51.9-15.1c-10-5.7-18.6-7-18.6-7
		S314,174.1,345.1,173.5z" /><path class="st2" d="M388.5,187.8c0,0,9.8,14.9,0,23.5c-13,11.4-52.1,26.4-111.2-1.3l8.3-9.8c0,0,54.2,32.1,95.6,10.5
		C388.5,206.9,393,198,388.5,187.8z" /><path class="st14" d="M332.2,143.2c0,0,5.8,18.5,1.9,21.1c-5.9,4-17-9-17-9C322.1,150.9,327.1,146.8,332.2,143.2z" /><path class="st14" d="M375.8,127.6c0,0,4.2,13.9,6.7,14.8s5.6-4.9,5-11.9C387.5,130.6,380.4,127.3,375.8,127.6z" /><g><path class="st15" d="M327.4,174.8c3.6-0.6,7.3-0.3,10.9,0.5c3.6,0.8,7.1,2.1,10.3,3.9c0.8,0.4,1.6,1,2.4,1.4l1.2,0.7
			c0.4,0.3,0.7,0.5,1.1,0.8l2.2,1.7c0.7,0.6,1.3,1.3,2,1.9c1.4,1.2,2.5,2.7,3.6,4.1c1.1,1.5,2.1,3,3,4.5c-1.4-1.1-2.7-2.4-4.1-3.5
			l-2-1.7c-0.3-0.3-0.7-0.6-1-0.8l-1.1-0.8c-0.7-0.5-1.4-1-2.1-1.6l-2.2-1.5c-0.4-0.2-0.7-0.5-1.1-0.7l-1.1-0.7
			c-0.7-0.4-1.5-0.9-2.2-1.3c-3-1.7-6.2-3.1-9.5-4.3C334.4,176.3,331,175.4,327.4,174.8z" /></g></g><g id="Chew_1" /><g id="Chew_2" /><g id="Chew_3" /><g id="Chew_4" /><g id="Chew_5" /><g id="Chew_6" /><g id="Yucky_1" /><g id="Yucky_2" /><g id="Yucky_3" /><g id="Yummy_0" /><g id="Yummy_1" /><g id="Yummy_2" /><g id="Yummy_3" /><g id="Neutral_1" /><g id="Win_1" /><g id="Win_2" /><g id="Win_3" /><g id="Win_4" /><g id="Win_5" /><g id="Win_6" /><g id="Win_7" /><g id="Win_8" /><g id="Win_9_00000070117181118771457000000017804805890223002288_" /><g id="Lose_1" /><g id="Lose_2" /><g id="Lose_3" /><g id="Lose_4" /></svg>