<?xml version="1.0" encoding="utf-8"?>
<!-- Generator: Adobe Illustrator 21.1.0, SVG Export Plug-In . SVG Version: 6.00 Build 0)  -->
<svg version="1.1" xmlns="http://www.w3.org/2000/svg" xmlns:xlink="http://www.w3.org/1999/xlink" x="0px" y="0px"
	 viewBox="0 0 115 804" enable-background="new 0 0 115 804" xml:space="preserve" width="115" height="804" preserveAspectRatio="none">
<g id="Layer_1">
</g>
<g id="Layer_2">
	<g>
		<polygon fill="#CFF49F" points="112.5,3 112.5,3.1 80.1,14.5 80.1,13.9 1.8,13.9 36.1,3 		"/>
		<polygon fill="#5E9615" points="112.7,682.6 112.7,758.1 80.1,801 80.1,722.3 		"/>
		<polygon fill="#5E9615" points="112.7,607.1 112.7,682.6 80.1,722.3 80.1,643.6 112.7,607.1 		"/>
		<polygon fill="#5E9615" points="112.7,455.9 112.7,531.4 80.1,564.9 80.1,486.2 		"/>
		<polygon fill="#5E9615" points="112.7,380.5 112.7,455.9 80.1,486.2 80.1,407.5 112.5,380.5 		"/>
		<polygon fill="#5E9615" points="112.7,304.9 112.7,380.5 112.5,380.5 80.1,407.5 80.1,328.8 112.6,304.9 		"/>
		<polygon fill="#5E9615" points="112.7,229.2 112.7,304.9 112.6,304.9 80.1,328.8 80.1,250.1 112.7,229.2 		"/>
		<polygon fill="#5E9615" points="112.7,153.7 112.7,229.2 112.7,229.2 80.1,250.1 80.1,171.3 112.5,153.7 		"/>
		<polygon fill="#5E9615" points="112.7,77.3 112.7,153.7 112.5,153.7 80.1,171.3 80.1,92.6 80.1,92.4 		"/>
		<polygon fill="#5E9615" points="112.7,3 112.7,77.3 80.1,92.4 80.1,14.5 112.5,3.1 112.5,3 		"/>
		<polygon fill="#5E9615" points="112.7,531.4 112.7,607.1 112.7,607.1 80.1,643.6 80.1,564.9 		"/>
		<rect x="1.8" y="722.3" fill="#94C957" width="78.3" height="78.7"/>
		<rect x="1.8" y="643.6" fill="#94C957" width="78.3" height="78.7"/>
		<rect x="1.8" y="564.9" fill="#94C957" width="78.3" height="78.7"/>
		<rect x="1.8" y="486.2" fill="#94C957" width="78.3" height="78.7"/>
		<rect x="1.8" y="407.5" fill="#94C957" width="78.3" height="78.7"/>
		<rect x="1.8" y="328.8" fill="#94C957" width="78.3" height="78.7"/>
		<rect x="1.8" y="250.1" fill="#94C957" width="78.3" height="78.7"/>
		<rect x="1.8" y="171.3" fill="#94C957" width="78.3" height="78.7"/>
		<rect x="1.8" y="92.6" fill="#94C957" width="78.3" height="78.7"/>
		<polygon fill="#94C957" points="80.1,92.4 80.1,92.6 1.8,92.6 1.8,13.9 80.1,13.9 80.1,14.5 		"/>
		
			<polyline fill="none" stroke="#000000" stroke-width="2.0387" stroke-linecap="round" stroke-linejoin="round" stroke-miterlimit="10" points="
			1.8,92.6 1.8,13.9 80.1,13.9 80.1,14.5 80.1,92.4 80.1,92.6 		"/>
		
			<polyline fill="none" stroke="#000000" stroke-width="2.0387" stroke-linecap="round" stroke-linejoin="round" stroke-miterlimit="10" points="
			1.8,171.3 1.8,92.6 80.1,92.6 80.1,171.3 		"/>
		
			<polyline fill="none" stroke="#000000" stroke-width="2.0387" stroke-linecap="round" stroke-linejoin="round" stroke-miterlimit="10" points="
			1.8,250.1 1.8,171.3 80.1,171.3 80.1,250.1 		"/>
		
			<polyline fill="none" stroke="#000000" stroke-width="2.0387" stroke-linecap="round" stroke-linejoin="round" stroke-miterlimit="10" points="
			1.8,328.8 1.8,250.1 80.1,250.1 80.1,328.8 		"/>
		
			<polyline fill="none" stroke="#000000" stroke-width="2.0387" stroke-linecap="round" stroke-linejoin="round" stroke-miterlimit="10" points="
			1.8,407.5 1.8,328.8 80.1,328.8 80.1,407.5 		"/>
		
			<polyline fill="none" stroke="#000000" stroke-width="2.0387" stroke-linecap="round" stroke-linejoin="round" stroke-miterlimit="10" points="
			1.8,486.2 1.8,407.5 80.1,407.5 80.1,486.2 		"/>
		
			<polyline fill="none" stroke="#000000" stroke-width="2.0387" stroke-linecap="round" stroke-linejoin="round" stroke-miterlimit="10" points="
			1.8,564.9 1.8,486.2 80.1,486.2 80.1,564.9 		"/>
		
			<polyline fill="none" stroke="#000000" stroke-width="2.0387" stroke-linecap="round" stroke-linejoin="round" stroke-miterlimit="10" points="
			1.8,643.6 1.8,564.9 80.1,564.9 80.1,643.6 		"/>
		
			<polyline fill="none" stroke="#000000" stroke-width="2.0387" stroke-linecap="round" stroke-linejoin="round" stroke-miterlimit="10" points="
			1.8,722.3 1.8,643.6 80.1,643.6 80.1,722.3 		"/>
		
			<rect x="1.8" y="722.3" fill="none" stroke="#000000" stroke-width="2.0387" stroke-linecap="round" stroke-linejoin="round" stroke-miterlimit="10" width="78.3" height="78.7"/>
		
			<line fill="none" stroke="#000000" stroke-width="2.0387" stroke-linecap="round" stroke-linejoin="round" stroke-miterlimit="10" x1="80.1" y1="13.9" x2="112.5" y2="3.1"/>
		
			<polyline fill="none" stroke="#000000" stroke-width="2.0387" stroke-linecap="round" stroke-linejoin="round" stroke-miterlimit="10" points="
			112.7,77.3 80.1,92.4 79.8,92.6 		"/>
		
			<polyline fill="none" stroke="#000000" stroke-width="2.0387" stroke-linecap="round" stroke-linejoin="round" stroke-miterlimit="10" points="
			80.1,722.3 112.7,682.6 113.2,682 		"/>
		
			<polyline fill="none" stroke="#000000" stroke-width="2.0387" stroke-linecap="round" stroke-linejoin="round" stroke-miterlimit="10" points="
			112.9,531.3 112.7,531.4 80.1,564.9 		"/>
		
			<line fill="none" stroke="#000000" stroke-width="2.0387" stroke-linecap="round" stroke-linejoin="round" stroke-miterlimit="10" x1="80.1" y1="643.6" x2="112.7" y2="607.1"/>
		
			<line fill="none" stroke="#000000" stroke-width="2.0387" stroke-linecap="round" stroke-linejoin="round" stroke-miterlimit="10" x1="112.5" y1="380.5" x2="80.1" y2="407.5"/>
		
			<polyline fill="none" stroke="#000000" stroke-width="2.0387" stroke-linecap="round" stroke-linejoin="round" stroke-miterlimit="10" points="
			80.1,486.2 112.7,455.9 112.8,455.9 		"/>
		
			<line fill="none" stroke="#000000" stroke-width="2.0387" stroke-linecap="round" stroke-linejoin="round" stroke-miterlimit="10" x1="112.7" y1="229.2" x2="80.1" y2="250.1"/>
		
			<line fill="none" stroke="#000000" stroke-width="2.0387" stroke-linecap="round" stroke-linejoin="round" stroke-miterlimit="10" x1="80.1" y1="328.8" x2="112.6" y2="304.9"/>
		
			<polyline fill="none" stroke="#000000" stroke-width="2.0387" stroke-linecap="round" stroke-linejoin="round" stroke-miterlimit="10" points="
			112.7,758.1 112.7,682.6 112.7,607.1 112.7,531.4 112.7,455.9 112.7,380.5 112.7,304.9 112.7,229.2 112.7,153.7 112.7,77.3 
			112.7,3 112.5,3 36.1,3 36,3 		"/>
		
			<line fill="none" stroke="#000000" stroke-width="2.0387" stroke-linecap="round" stroke-linejoin="round" stroke-miterlimit="10" x1="112.5" y1="153.7" x2="80.1" y2="171.3"/>
		
			<line fill="none" stroke="#000000" stroke-width="2.0387" stroke-linecap="round" stroke-linejoin="round" stroke-miterlimit="10" x1="80.1" y1="801" x2="112.7" y2="758.1"/>
		
			<line fill="none" stroke="#000000" stroke-width="2.0387" stroke-linecap="round" stroke-linejoin="round" stroke-miterlimit="10" x1="1.8" y1="13.9" x2="36.1" y2="3"/>
	</g>
</g>
</svg>
