<?xml version="1.0" encoding="utf-8"?>
<!-- Generator: Adobe Illustrator 22.0.1, SVG Export Plug-In . SVG Version: 6.00 Build 0)  -->
<svg version="1.1" xmlns="http://www.w3.org/2000/svg" xmlns:xlink="http://www.w3.org/1999/xlink" x="0px" y="0px"
	 viewBox="0 0 115 110" enable-background="new 0 0 115 110" xml:space="preserve" width="115" height="110" preserveAspectRatio="none">
<g id="Layer_1">
</g>
<g id="Layer_2">
	<g>
		<path fill="#FFB366" d="M92.5,18.7L78.9,30.4H1.8L36,2.5c0,0,73.1-0.4,74.2-0.4c1.1,0,1.1,0,1.1,0L92.5,18.7z"/>
		<polygon fill="#B25400" points="113.2,2.1 113.2,77.6 80.5,107.9 80.5,29.1 113,2.1 		"/>
		<rect x="2.2" y="29.1" fill="#FF9933" width="78.3" height="78.7"/>
		
			<polyline fill="none" stroke="#000000" stroke-width="2.0387" stroke-linecap="round" stroke-linejoin="round" stroke-miterlimit="10" points="
			2.2,107.9 2.2,29.1 80.5,29.1 80.5,107.9 		"/>
		
			<line fill="none" stroke="#000000" stroke-width="2.0387" stroke-linecap="round" stroke-linejoin="round" stroke-miterlimit="10" x1="2.2" y1="107.9" x2="80.5" y2="107.9"/>
		
			<line fill="none" stroke="#000000" stroke-width="2.0387" stroke-linecap="round" stroke-linejoin="round" stroke-miterlimit="10" x1="113" y1="2.1" x2="80.5" y2="29.1"/>
		
			<polyline fill="none" stroke="#000000" stroke-width="2.0387" stroke-linecap="round" stroke-linejoin="round" stroke-miterlimit="10" points="
			80.5,107.9 113.2,77.6 113.2,77.5 		"/>
		
			<polyline fill="none" stroke="#000000" stroke-width="2.0387" stroke-linecap="round" stroke-linejoin="round" stroke-miterlimit="10" points="
			113.2,77.6 113.2,2.1 35.9,2.1 		"/>
		
			<line fill="none" stroke="#000000" stroke-width="2.0387" stroke-linecap="round" stroke-linejoin="round" stroke-miterlimit="10" x1="2.2" y1="29.1" x2="35.9" y2="2.1"/>
	</g>
</g>
</svg>
