<?xml version="1.0" encoding="utf-8"?>
<!-- Generator: Adobe Illustrator 19.2.0, SVG Export Plug-In . SVG Version: 6.00 Build 0)  -->
<svg version="1.1" xmlns="http://www.w3.org/2000/svg" xmlns:xlink="http://www.w3.org/1999/xlink" x="0px" y="0px"
	 viewBox="0 0 212 56" enable-background="new 0 0 212 56" xml:space="preserve" width="212" height="56" preserveAspectRatio="none">
<g id="Background_Argyle">
</g>
<g id="Clouds">
</g>
<g id="Mountains">
</g>
<g id="Green_Hills">
</g>
<g id="Center_Hill">
</g>
<g id="Office">
</g>
<g id="Library">
</g>
<g id="Main_Building">
</g>
<g id="Front_Tree_and_Bushes">
</g>
<g id="Bottom_Menu">
</g>
<g id="Header">
</g>
<g id="Footer">
</g>
<g id="Buttons_1">
</g>
<g id="Buttons_2">
	<g>
		<polygon fill="#4191CE" points="1.3,0.9 6.4,55.1 210.7,53.9 204.5,0.9 		"/>
		<polygon fill="#0659A6" points="9.2,6.9 197,7.4 201.5,48 16.1,49.7 		"/>
	</g>
	<g>
		<path fill="#FFFFFF" d="M34.9,22.6v-1.7h6.2v1.7l-1.6,0.3V27h6.1v-4.1L44,22.6v-1.7h1.6h3h1.6v1.7l-1.6,0.3v10.2l1.6,0.3v1.7H44
			v-1.7l1.6-0.3v-3.9h-6.1v3.9l1.6,0.3v1.7h-6.2v-1.7l1.6-0.3V22.9L34.9,22.6z"/>
		<path fill="#FFFFFF" d="M50.6,33.4l1.1-0.1l4.5-12.4h3.1l4.5,12.4l1.1,0.1v1.7h-5.1v-1.7l1-0.2l-0.7-2h-4.8l-0.7,2l1,0.2v1.7h-5.1
			V33.4z M56.1,29.2h3.4l-1.7-5h-0.1L56.1,29.2z"/>
		<path fill="#FFFFFF" d="M65.4,35.1v-1.7l1.6-0.3V22.9l-1.6-0.3v-1.7h1.6h3h1.6v1.7l-1.6,0.3v10h4.2l0.1-1.8h2.3v4H65.4z"/>
		<path fill="#FFFFFF" d="M77.1,35.1v-1.7l1.6-0.3V22.9l-1.6-0.3v-1.7h1.6h3h1.6v1.7l-1.6,0.3v10h4.2l0.1-1.8h2.3v4H77.1z"/>
		<path fill="#FFFFFF" d="M107.2,28.1c0,2.1-0.6,3.8-1.9,5.2s-2.9,2-4.9,2c-2,0-3.6-0.7-4.9-2s-1.9-3.1-1.9-5.2v-0.2
			c0-2.1,0.6-3.8,1.9-5.2c1.2-1.4,2.9-2.1,4.9-2.1c2,0,3.7,0.7,4.9,2.1s1.9,3.1,1.9,5.2V28.1z M104.2,27.9c0-1.5-0.3-2.7-1-3.6
			c-0.6-0.9-1.6-1.4-2.8-1.4c-1.3,0-2.2,0.5-2.8,1.4s-0.9,2.1-0.9,3.6v0.2c0,1.5,0.3,2.7,0.9,3.6c0.6,0.9,1.6,1.4,2.8,1.4
			c1.3,0,2.2-0.5,2.8-1.4c0.6-0.9,1-2.1,1-3.6V27.9z"/>
		<path fill="#FFFFFF" d="M107.8,33.4l1.6-0.3V22.9l-1.6-0.3v-1.7h11.9v3.9h-2.3l-0.1-1.7h-4.9V27h5.2v2.2h-5.2v3.9l1.6,0.3v1.7
			h-6.2V33.4z"/>
		<path fill="#FFFFFF" d="M124.9,33.4l1.6-0.3V22.9l-1.6-0.3v-1.7h11.9v3.9h-2.3l-0.1-1.7h-4.9V27h5.2v2.2h-5.2v3.9l1.6,0.3v1.7
			h-6.2V33.4z"/>
		<path fill="#FFFFFF" d="M134.1,33.4l1.1-0.1l4.5-12.4h3.1l4.5,12.4l1.1,0.1v1.7h-5.1v-1.7l1-0.2l-0.7-2h-4.8l-0.7,2l1,0.2v1.7
			h-5.1V33.4z M139.5,29.2h3.4l-1.7-5h-0.1L139.5,29.2z"/>
		<path fill="#FFFFFF" d="M163.2,24.6L163.2,24.6l-4.1,10.5h-2l-4-10.5l-0.1,0l0.3,6.2v2.2l1.6,0.3v1.7h-6.2v-1.7l1.6-0.3V22.9
			l-1.6-0.3v-1.7h1.6h3.9l3.8,10.5h0.1l3.8-10.5h5.5v1.7l-1.6,0.3v10.2l1.6,0.3v1.7h-6.2v-1.7l1.6-0.3v-2.2L163.2,24.6z"/>
		<path fill="#FFFFFF" d="M177.7,28.9h-5.1v4.1h4.8l0.1-1.7h2.3v3.9h-11.8v-1.7l1.6-0.3V22.9l-1.6-0.3v-1.7h1.6h10.2v3.9h-2.3
			l-0.1-1.7h-4.8v3.6h5.1V28.9z"/>
	</g>
</g>
<g id="Isadora_ScreenShot_2" display="none">
</g>
<g id="Isadora_ScreenShot_1" display="none">
</g>
</svg>
