<?xml version="1.0" encoding="utf-8"?>
<!-- Generator: Adobe Illustrator 19.2.0, SVG Export Plug-In . SVG Version: 6.00 Build 0)  -->
<svg version="1.1" xmlns="http://www.w3.org/2000/svg" xmlns:xlink="http://www.w3.org/1999/xlink" x="0px" y="0px"
	 viewBox="0 0 190 72" enable-background="new 0 0 190 72" xml:space="preserve" width="190" height="72" preserveAspectRatio="none">
<g id="Background_Argyle">
</g>
<g id="Clouds">
</g>
<g id="Mountains">
</g>
<g id="Green_Hills">
</g>
<g id="Center_Hill">
</g>
<g id="Office">
</g>
<g id="Library">
</g>
<g id="Main_Building">
</g>
<g id="Front_Tree_and_Bushes">
</g>
<g id="Bottom_Menu">
</g>
<g id="Header">
</g>
<g id="Footer">
</g>
<g id="Buttons_1">
	<g>
		<polygon fill="#4191CE" points="8.1,1.4 169.7,4.8 188.6,69.5 1.4,70.6 		"/>
		<polygon fill="#0659A6" points="14.4,5.6 167.7,9 184.3,66.3 9.3,66.5 		"/>
	</g>
	<g>
		<g>
			<path fill="#FEFFFE" d="M37.4,45v-2.2l2-0.4V29.6l-2-0.4V27h2h3.8h2v2.2l-2,0.4v12.7h5.3l0.2-2.3h2.9v5H37.4z"/>
			<path fill="#FEFFFE" d="M52.7,29.2V27h7.8v2.2l-2,0.4v12.9l2,0.4V45h-7.8v-2.2l2-0.4V29.6L52.7,29.2z"/>
			<path fill="#FEFFFE" d="M70.1,27c2.2,0,4,0.4,5.2,1.2c1.2,0.8,1.9,2.1,1.9,3.7c0,0.8-0.2,1.6-0.7,2.2c-0.5,0.7-1.1,1.1-2,1.5
				c1.1,0.2,2,0.7,2.5,1.5c0.6,0.8,0.8,1.6,0.8,2.6c0,1.7-0.6,3-1.8,3.9C74.8,44.5,73.1,45,71,45h-9.3v-2.2l2-0.4V29.6l-2-0.4V27h2
				H70.1z M67.5,34.5h2.7c1,0,1.8-0.2,2.3-0.6s0.8-1,0.8-1.7c0-0.8-0.3-1.4-0.8-1.8c-0.5-0.4-1.4-0.6-2.5-0.6h-2.6V34.5z M67.5,37
				v5.2H71c1,0,1.8-0.2,2.3-0.6c0.5-0.4,0.8-1,0.8-1.8c0-0.9-0.2-1.6-0.7-2c-0.4-0.5-1.2-0.7-2.1-0.7H67.5z"/>
			<path fill="#FEFFFE" d="M87.4,27c2.1,0,3.8,0.5,5,1.4s1.8,2.2,1.8,3.9c0,0.9-0.3,1.7-0.8,2.4s-1.3,1.2-2.2,1.6
				c1.1,0.3,1.9,0.8,2.4,1.6c0.5,0.7,0.7,1.6,0.7,2.7v0.9c0,0.4,0.1,0.7,0.2,0.9c0.2,0.2,0.4,0.3,0.8,0.4l0.5,0.1V45h-2
				c-1.2,0-2.1-0.3-2.6-1c-0.5-0.6-0.8-1.5-0.8-2.5v-1c0-0.9-0.2-1.6-0.7-2.1c-0.5-0.5-1.2-0.8-2.1-0.8h-3.1v4.7l2,0.4V45H79v-2.2
				l2-0.4V29.6l-2-0.4V27h2H87.4z M84.7,34.9h2.6c1.1,0,1.8-0.2,2.4-0.6s0.8-1,0.8-1.9c0-0.8-0.3-1.5-0.8-1.9
				c-0.5-0.5-1.3-0.7-2.3-0.7h-2.7V34.9z"/>
			<path fill="#FEFFFE" d="M96.7,42.8l1.3-0.2l5.7-15.6h3.9l5.7,15.6l1.3,0.2V45h-6.4v-2.2l1.3-0.2l-0.8-2.5h-6.1l-0.8,2.5l1.3,0.2
				V45h-6.4V42.8z M103.6,37.5h4.3l-2.1-6.3h-0.1L103.6,37.5z"/>
			<path fill="#FEFFFE" d="M124.2,27c2.1,0,3.8,0.5,5,1.4s1.8,2.2,1.8,3.9c0,0.9-0.3,1.7-0.8,2.4s-1.3,1.2-2.2,1.6
				c1.1,0.3,1.9,0.8,2.4,1.6c0.5,0.7,0.7,1.6,0.7,2.7v0.9c0,0.4,0.1,0.7,0.2,0.9c0.2,0.2,0.4,0.3,0.8,0.4l0.5,0.1V45h-2
				c-1.2,0-2.1-0.3-2.6-1c-0.5-0.6-0.8-1.5-0.8-2.5v-1c0-0.9-0.2-1.6-0.7-2.1c-0.5-0.5-1.2-0.8-2.1-0.8h-3.1v4.7l2,0.4V45h-7.8v-2.2
				l2-0.4V29.6l-2-0.4V27h2H124.2z M121.5,34.9h2.6c1.1,0,1.8-0.2,2.4-0.6s0.8-1,0.8-1.9c0-0.8-0.3-1.5-0.8-1.9
				c-0.5-0.5-1.3-0.7-2.3-0.7h-2.7V34.9z"/>
			<path fill="#FEFFFE" d="M139.3,29.2l-1.5,0.2l2.9,5.9h0.1l2.9-5.9l-1.5-0.2V27h7.1v2.2l-1.6,0.2l-5.1,9.2v3.8l2,0.4V45h-7.8v-2.2
				l2-0.4v-4l-5-9.1l-1.6-0.2V27h7.1V29.2z"/>
		</g>
	</g>
</g>
<g id="Buttons_2">
</g>
<g id="Isadora_ScreenShot_2" display="none">
</g>
<g id="Isadora_ScreenShot_1" display="none">
</g>
</svg>
