<?xml version="1.0" encoding="utf-8"?>
<!-- Generator: Adobe Illustrator 19.2.0, SVG Export Plug-In . SVG Version: 6.00 Build 0)  -->
<svg version="1.1" xmlns="http://www.w3.org/2000/svg" xmlns:xlink="http://www.w3.org/1999/xlink" x="0px" y="0px"
	 viewBox="0 0 190 72" enable-background="new 0 0 190 72" xml:space="preserve" width="190" height="72" preserveAspectRatio="none">
<g id="Background_Argyle">
</g>
<g id="Clouds">
</g>
<g id="Mountains">
</g>
<g id="Green_Hills">
</g>
<g id="Center_Hill">
</g>
<g id="Office">
</g>
<g id="Library">
</g>
<g id="Main_Building">
</g>
<g id="Front_Tree_and_Bushes">
</g>
<g id="Bottom_Menu">
</g>
<g id="Header">
</g>
<g id="Footer">
</g>
<g id="Buttons_1">
	<g>
		<polygon fill="#4191CE" points="8.1,1.4 169.7,4.8 188.6,69.5 1.4,70.6 		"/>
		<polygon fill="#0659A6" points="14.4,5.6 167.7,9 184.3,66.3 9.3,66.5 		"/>
	</g>
	<g>
		<g>
			<path fill="#FEFFFE" d="M66.9,36.1c0,2.6-0.8,4.8-2.4,6.5c-1.6,1.7-3.6,2.6-6.2,2.6c-2.5,0-4.6-0.9-6.2-2.6
				c-1.6-1.7-2.4-3.9-2.4-6.5v-0.3c0-2.6,0.8-4.8,2.3-6.5c1.6-1.7,3.6-2.6,6.2-2.6c2.6,0,4.6,0.9,6.2,2.6c1.6,1.7,2.4,3.9,2.4,6.5
				V36.1z M63.1,35.8c0-1.9-0.4-3.4-1.2-4.5c-0.8-1.2-2-1.7-3.6-1.7s-2.8,0.6-3.6,1.7c-0.8,1.2-1.2,2.7-1.2,4.5v0.3
				c0,1.9,0.4,3.4,1.2,4.6c0.8,1.2,2,1.7,3.6,1.7c1.6,0,2.8-0.6,3.6-1.7c0.8-1.2,1.2-2.7,1.2-4.6V35.8z"/>
			<path fill="#FEFFFE" d="M68.2,42.8l2-0.4V29.6l-2-0.4V27h15v4.9h-2.9l-0.2-2.1H74v5h6.6v2.8H74v4.9l2,0.4V45h-7.8V42.8z"/>
			<path fill="#FEFFFE" d="M84.3,42.8l2-0.4V29.6l-2-0.4V27h15v4.9h-2.9l-0.2-2.1h-6.2v5h6.6v2.8h-6.6v4.9l2,0.4V45h-7.8V42.8z"/>
			<path fill="#FEFFFE" d="M100.4,29.2V27h7.8v2.2l-2,0.4v12.9l2,0.4V45h-7.8v-2.2l2-0.4V29.6L100.4,29.2z"/>
			<path fill="#FEFFFE" d="M124.9,33.1H122l-0.4-2.4c-0.4-0.4-0.8-0.6-1.4-0.8c-0.6-0.2-1.2-0.3-2-0.3c-1.6,0-2.9,0.6-3.8,1.7
				s-1.3,2.6-1.3,4.4v0.6c0,1.8,0.4,3.3,1.3,4.5c0.9,1.1,2.1,1.7,3.7,1.7c0.7,0,1.4-0.1,2-0.3c0.6-0.2,1.1-0.5,1.4-0.8l0.4-2.4h2.8
				v3.6c-0.8,0.8-1.7,1.5-2.9,2c-1.2,0.5-2.5,0.7-4,0.7c-2.5,0-4.6-0.8-6.2-2.5c-1.6-1.7-2.4-3.8-2.4-6.4v-0.6
				c0-2.6,0.8-4.8,2.4-6.4c1.6-1.7,3.7-2.5,6.2-2.5c1.5,0,2.8,0.3,4,0.8c1.2,0.5,2.1,1.2,2.9,2V33.1z"/>
			<path fill="#FEFFFE" d="M138.5,37.1h-6.4v5.1h6.1l0.2-2.1h2.9V45h-14.9v-2.2l2-0.4V29.6l-2-0.4V27h2h12.9v4.9h-2.9l-0.2-2.1h-6
				v4.5h6.4V37.1z"/>
		</g>
	</g>
</g>
<g id="Buttons_2">
</g>
<g id="Isadora_ScreenShot_2" display="none">
</g>
<g id="Isadora_ScreenShot_1" display="none">
</g>
</svg>
