<svg version="1.1" id="headmaster" xmlns="http://www.w3.org/2000/svg" xmlns:xlink="http://www.w3.org/1999/xlink" x="0px" y="0px" viewBox="0 0 248 284" enable-background="new 0 0 248 284" xml:space="preserve" width="248" height="284" preserveAspectRatio="none"><path fill="#D44E24" d="M91.9,7.8c0,0,36.6-2.9,99.4,70.9c62.7,73.8,35.6,126.6,35.6,126.6s-20.3-18.5-37.3-12.8
	c-19.8,6.6-17.5,25.5-17.5,25.5s-24.6-18.6-37-14c-12.4,4.6-13.5,12.2-13.5,12.2l-20.4-23.4c0,0,17.6-35.3,12.5-88.7
	C108.6,50.6,91.9,7.8,91.9,7.8z" /><path fill="#FEE66A" d="M136,54.7c0,0,0.8-7.1-1.8-13.4c-2-5-8.5-9.8-8.5-9.8l2,19.7c0,0-3-9.3-14.5-17.3
	c-11.7-8.1-20.1-11.3-24.5-7s6.2,13.3,6.2,13.3s-9-4-21.4-3.4s-25.9,3.3-25.9,3.3s-1.5,12.2,13.7,19.4s16.5,5.8,16.5,5.8l58.9-0.8
	c0,0,6.9-4.9,8.2-12.1c1.3-7.2-3-12.7-3-12.7L136,54.7z" /><g><path fill="#F9B418" d="M102.8,40.9c1.3,1.4,2.6,3,3.5,4.7c1,1.7,1.6,3.7,1.9,5.6c0.3,2,0.3,4,0,5.9l-0.3,1.6l-0.6-1.5
		c-0.3-0.8-0.9-1.5-1.4-2.2c-0.5-0.7-1.2-1.3-1.9-1.9c-1.5-1.2-3-2.1-4.7-2.9c-3.3-1.6-6.8-2.9-10.5-3.5c-3.7-0.6-7.3-0.9-11-0.7
		c-3.7,0.2-7.4,0.6-11,1.6c1.8-0.6,3.6-1,5.5-1.4c1.8-0.4,3.6-0.6,5.5-0.8c3.7-0.3,7.4-0.2,11.2,0.4c3.7,0.6,7.3,1.9,10.7,3.5
		c1.7,0.9,3.4,1.9,4.8,3.1c0.8,0.6,1.5,1.3,2.1,2c0.6,0.8,1.2,1.5,1.6,2.5l-0.8,0c0.3-1.8,0.2-3.7,0.1-5.6c-0.3-1.9-0.8-3.8-1.6-5.5
		c-0.9-1.8-2-3.3-3.3-4.8s-2.7-2.8-4.4-3.8C99.8,38.2,101.3,39.4,102.8,40.9z" /></g><path fill="#F89521" d="M104.2,56.7c-18,0.3-27.2,3.6-27.2,3.6s-6.4,34.9,8.8,64.7c15.6,30.8,14.6,39.2,14.6,39.2l16.1,0.5
	c0,0,7.3-31.7,12.9-50.5c5.5-18.5,2.9-52.7,2.9-52.7S122.1,56.4,104.2,56.7z" /><path fill="#FEE66A" d="M135.8,58.3c0,0,6.2,7.6,4.6,24c-1.4,16.4-7.9,25.4-7.9,25.4s-13.5-11.7-14.3-25.5
	c-0.9-13.6,4.9-24.4,4.9-24.4L135.8,58.3z" /><g><path fill="#F9B418" d="M135.2,66.5c-0.3-0.3-0.7-0.5-1.1-0.7c-0.8-0.3-1.7-0.4-2.5-0.5c-1.6-0.1-3.4,0-5,0.4
		c-1.6,0.4-3.1,1.1-4.4,2.2c-1.3,1-2.2,2.5-2.7,4l-0.7-0.6c1.5-0.7,2.9-1.2,4.5-1.5c1.5-0.4,3.1-0.6,4.7-0.5
		c1.6,0.1,3.2,0.5,4.5,1.4c1.3,0.9,2.2,2.4,2.3,3.9c-0.2-1.6-1.3-2.9-2.6-3.6c-1.3-0.8-2.8-1.2-4.2-1.2c-1.6,0.1-3,0.2-4.5,0.6
		s-2.9,0.9-4.2,1.5l-1,0.5l0.3-1c0.5-1.8,1.6-3.2,3-4.4c1.5-1.1,3.2-1.8,4.9-2.2c1.8-0.3,3.5-0.3,5.3-0.1c0.8,0.2,1.7,0.4,2.5,0.8
		c0.7,0.4,1.5,1,1.7,1.8C135.8,66.9,135.5,66.7,135.2,66.5z" /></g><g><path fill="#F89521" d="M139,107.1c-15.7,8.3-17.8-2.1-17.8-2.1l1.6-9.1c0,0,8.5-9.1,19.4-15.6c11-6.5,17.7-5.7,17.7-5.7
		S154.5,98.7,139,107.1z" /><g><path fill="#D54F27" d="M145.8,84.1c-2.6,1.4-5,3.1-7.3,4.8c-2.2,1.8-4,4-5.4,6.6c-1.4,2.5-2.4,5.3-2.8,8.1l-0.9-0.2
			c0.8-1.4,1.7-2.9,2.8-4.2c1-1.3,2.3-2.4,3.9-3.2c0.8-0.2,1.7-0.5,2.5-0.3c0.8,0.1,1.7,0.4,2.3,1c0.8,0.6,1,1.6,0.9,2.4
			c-0.2,0.8-0.6,1.5-1,2.2c0.5-0.7,0.7-1.5,0.8-2.3c0.1-0.8-0.2-1.6-0.9-2s-1.4-0.6-2.2-0.7c-0.8-0.2-1.6,0.2-2.2,0.4
			c-1.4,0.7-2.6,1.9-3.6,3.2c-1,1.3-1.8,2.7-2.6,4.1l-1.2,2.4l0.3-2.6c0.5-3.1,1.4-5.8,2.9-8.5c1.4-2.6,3.4-5,5.8-6.8
			c2.3-1.7,4.9-3.3,7.5-4.5c2.6-1.2,5.5-2.3,8.3-2.8C151.1,81.9,148.4,83,145.8,84.1z" /></g></g><g><ellipse transform="matrix(4.951578e-02 -0.9988 0.9988 4.951578e-02 1.1705 177.7171)" fill="#FFFCE9" cx="94" cy="88.2" rx="8.7" ry="6.6" /><ellipse transform="matrix(4.951578e-02 -0.9988 0.9988 4.951578e-02 -0.9608 178.6545)" fill="#3C1026" cx="93.4" cy="89.8" rx="3.9" ry="3.3" /></g><g><ellipse transform="matrix(4.951578e-02 -0.9988 0.9988 4.951578e-02 -9.0246 166.0046)" fill="#FFFCE9" cx="82.7" cy="87.7" rx="6.8" ry="4.9" /><ellipse transform="matrix(4.951578e-02 -0.9988 0.9988 4.951578e-02 -9.3746 167.7675)" fill="#3C1026" cx="83.5" cy="88.8" rx="3" ry="2.6" /></g><g><path fill="#D54F27" d="M92.5,123.4c1.1,0.1,2.3-0.1,3.3-0.5c1-0.4,2.1-1,3-1.7c1-0.7,1.8-1.5,2.5-2.5c-0.5,1.1-1.1,2.2-2,3
		c-0.9,0.8-1.9,1.5-3.1,1.9c-1.1,0.5-2.5,0.6-3.7,0.4c-1.2-0.3-2.4-0.7-3.4-1.3C90.2,123.1,91.4,123.3,92.5,123.4z" /></g><path fill="#F89521" d="M92.5,95.9c9.3,8.6,16.6,9.6,16.6,9.6l-1.3,1.6c0,0-6,4.5-7.2,5c-1.3,0.5-13.4,3.7-13.4,3.7
	s-12,1.1-21.6-0.8c-9.6-1.9-21.9-9.7-21.9-9.7s2.7-5.5,3-6c0.3-0.4,6.5-8,10.4-9.8c3.9-1.8,11.5-2.8,11.5-2.8S83.1,87.4,92.5,95.9z" /><ellipse fill="#D54F27" cx="114.7" cy="105.9" rx="1.5" ry="1.5" /><path fill="#F89521" d="M91.4,79.6l14.2,9.8c0,0-4-13.9-4.4-14c-0.4-0.1-8.7-2.5-8.7-2.5L91.4,79.6z" /><path fill="#3C1026" d="M93,72.9c3.7,0.9,7.2,3.1,9.6,6.3c-0.2,0.1-0.3,0.4-0.5,0.7c-2.5-3-6-5.1-9.9-5.8
	C92.5,73.6,92.7,73.3,93,72.9z" /><path fill="#F89521" d="M85.2,80.2l-8.3,5c0,0-0.7-4.5-0.4-4.9s5.3-6,5.3-6l4.2-0.6L85.2,80.2z" /><path fill="#3C1026" d="M85.5,78.9c-3.7,1.3-6.9,3.9-8.9,7.3c0.2,0.3,0.4,0.4,0.5,0.7c2.1-3.2,5.4-5.6,9.3-6.7
	C86,79.8,85.7,79.3,85.5,78.9z" /><g><g><path fill="#3C1026" d="M96.8,113c8.1-2.3,10.4-3.9,10.4-3.9s-1.3,7.5-8.5,13.2c-3,2.3-9.5,4.1-11.8,0.1c-2.3-4.1-3.6-6.8-3.6-6.8
			S88.7,115.2,96.8,113z" /><path fill="#FFFEEF" d="M84,115.8c0,0,3.5-0.1,4.5,0c0.9,0,6.4-1.9,9.6-2.8c3.2-0.9,9-3.5,9-3.5c-0.3,1-0.5,1.9-0.9,2.8
			c0,0-4,4.1-11.5,6.4c-7.5,2.3-8.9,0.5-8.9,0.5L84,115.8z" /></g><g><path fill="#D54F27" d="M94.3,131.9c1.1,0,2.3-0.3,3.2-0.7s2-1.1,2.8-1.9c0.9-0.8,1.7-1.7,2.3-2.7c-0.4,1.2-1,2.3-1.8,3.2
			c-0.8,0.9-1.8,1.6-3,2.2c-1.1,0.5-2.4,0.7-3.6,0.6c-1.2-0.2-2.5-0.5-3.5-1.1C91.9,131.8,93.1,131.9,94.3,131.9z" /></g></g><path fill="#D54F27" d="M70.7,93.5c-0.9-0.6-1.4-1.6-1-2.3c0.4-0.6,1.5-0.7,2.5-0.1c0.2,0.1,0.4,0.2,0.4,0.3l0,0
	c0.3,0.3,0.7,0.7,0.9,1c0.3,0.4,0.4,0.8,0.5,1.3c0.1,0.8-0.2,1.7-0.5,2.3c0.3-0.8,0.3-1.6,0-2.2c-0.1-0.1-0.1-0.2-0.2-0.4
	C72.8,94.1,71.8,94.1,70.7,93.5z" /><g><path fill="#D54F27" d="M99.1,104.2c-0.6-1.3-1.5-2.5-2.4-3.6c-1-1.1-2-2.1-3.1-3c-2.2-1.9-4.5-3.5-7-5c-4.9-2.9-10.4-4.9-16.1-5.3
		c-5.6-0.4-11.3,1.1-15.7,4.6c-4.4,3.4-7.7,8.2-10.1,13.4l-0.3-1.2c2.3,1.9,5.1,3.5,7.8,4.9c2.8,1.4,5.6,2.6,8.6,3.5
		c5.9,1.8,12.1,2.8,18.3,2.7c6.2,0,12.4-1.1,18.4-2.8c6-1.8,11.8-4.2,17.6-6.8c-2.7,1.5-5.6,2.9-8.4,4.3c-2.9,1.3-5.8,2.6-8.8,3.6
		c-3,1-6.1,1.9-9.2,2.4c-3.1,0.6-6.3,0.9-9.5,1c-6.4,0.2-12.8-0.6-18.9-2.5c-3.1-0.9-6-2.1-8.9-3.5c-2.9-1.4-5.6-3.1-8.2-5.1
		l-0.6-0.5l0.3-0.7c2.5-5.3,5.9-10.4,10.8-14c2.4-1.8,5.1-3.1,8-3.9c2.9-0.8,5.9-1,8.9-0.7c5.9,0.6,11.5,2.9,16.4,6
		c2.5,1.6,4.8,3.4,6.9,5.4c1,1,2.1,2.1,3,3.2C97.8,101.6,98.7,102.8,99.1,104.2z" /></g><g><path fill="#F7941D" d="M164.9,1.3c0,0,51.6,3.6,74.6,97.7c23,94.1-21.8,144.4-21.8,144.4s-9.8-25.6-27.6-28.2
		c-20.6-3-27.1,14.9-27.1,14.9s-13.6-27.7-26.8-29.1c-13.1-1.4-17.5,4.9-17.5,4.9l-7.8-30c0,0,31.6-23.6,51-73.7
		C181.3,52.1,164.9,1.3,164.9,1.3z" /><path fill="#98D7D6" d="M136.2,201.1c-13.1-1.4-17.5,4.9-17.5,4.9l-5-19.2c12.4-9.9,31.4-28.3,47.3-57.2
		c25.8-47.1,16.2-99.7,16.2-99.7s50.7,10.3,61.1,106.6c4,36.9-1,66.1-8.8,88.1c-6.3,12.4-11.9,18.8-11.9,18.8s-9.8-25.6-27.6-28.2
		c-20.6-3-27.1,14.9-27.1,14.9S149.4,202.5,136.2,201.1z" /><g><path fill="#228DBB" d="M179.8,91.8c0.7,0.1,1.3,0.5,1.8,0.9c0.3,0.2,0.5,0.4,0.8,0.7c0.3,0.2,0.5,0.5,0.7,0.7
			c0.5,0.5,0.9,1.1,1.2,1.6c0.4,0.5,0.7,1.2,1.1,1.7c1.3,2.4,2.4,4.9,3.3,7.4c1.8,5.1,3,10.4,4.1,15.7c0.5,2.7,1,5.3,1.3,8
			c0.2,1.4,0.2,2.7,0.3,4.1c0,1.4,0.1,2.7,0.1,4.1c-0.1,5.4-0.6,10.8-1.5,16.2c-1.7,10.7-4.6,21.1-8.1,31.3
			c-3.5,10.2-7.6,20.2-12.3,29.8c2-5,3.9-10,5.7-15.1c1.8-5.1,3.5-10.2,5.1-15.3c3.1-10.2,5.8-20.6,7.5-31.2
			c0.9-5.3,1.4-10.6,1.5-15.9c0-1.3,0-2.7,0-4c-0.1-1.3-0.1-2.6-0.2-4c-0.2-2.6-0.7-5.3-1.1-7.9c-0.9-5.3-1.9-10.5-3.4-15.7
			c-0.7-2.6-1.6-5.1-2.8-7.5c-0.3-0.6-0.6-1.2-0.9-1.8c-0.3-0.6-0.7-1.1-1.1-1.7c-0.2-0.3-0.4-0.5-0.6-0.8c-0.2-0.2-0.4-0.5-0.7-0.7
			C181,92.4,180.4,92,179.8,91.8z" /></g></g><ellipse opacity="0.1" fill="#384E7D" cx="117" cy="267.2" rx="116.9" ry="15.5" /><path fill="#D44E24" d="M128,216.7c0,0,8.7,19.7,21.8,26.8c13,7,55.8,5.6,64.9,14.1c3.9,3.7-44.4,9.6-65.1,9.9
	c-42.6,0.6-58.8-39.6-58.8-39.6L128,216.7z" /><path fill="#228DBB" d="M129,223.4c0,0,3.1,8.7,5.8,19.9c2.6,10.8,2.6,19.9,2.6,19.9h-24.8l3.9-37.2L129,223.4z" /><path fill="#228DBB" d="M71.9,228.1c0.4-8.8-1.5-21.7,6-37.4c10-20.7,17.5-32.1,17.5-32.1h23.7c0,0,8.3,7.9,18.1,28.4
	c8.7,18.1,6.7,34.5,7.1,40.2L71.9,228.1z" /><path fill="#FFFDED" d="M96.3,170.5c-0.4-5.1,0.2-9.2,0.7-11.9l19.7,0c0.6,1.7,1.8,4.6,1.1,9.4c-1.8,12.1-12.8,27.6-12.8,27.6
	S97,179.4,96.3,170.5z" /><path fill="#C51F2E" d="M104.8,170l-4.3-6.3l5.2-4l4.3,3.8l-3.4,6.7l6.3,11.9c-3.6,7.4-7.9,13.4-7.9,13.4s-4.4-8.9-7-17.1L104.8,170
	z" /><g><path fill="#98D7D6" d="M115.8,168.2c-1-0.5-1.9-1.1-2.8-1.7c-0.9-0.6-1.8-1.2-2.7-1.9c-1.8-1.3-3.5-2.7-5.2-4.1l1.3,0
		c-1.5,1.2-3.1,2.4-4.7,3.5c-1.6,1.1-3.3,2.2-5.1,3.1c1.3-1.5,2.7-2.9,4.1-4.3c1.4-1.4,2.9-2.6,4.4-3.9l0.6-0.5l0.6,0.5
		c1.7,1.4,3.3,2.9,4.9,4.4c0.8,0.8,1.6,1.5,2.3,2.4C114.3,166.5,115.1,167.4,115.8,168.2z" /></g><g><path fill="#004B78" d="M128.1,170.9l-3.8,1.2l0-0.2l4.8,3.5l0.1,0.1l0,0.2c-0.7,2.6-2.1,4.9-3.7,7c-1.6,2.1-3.3,4-5.3,5.8
		c-2,1.7-4.1,3.3-6.4,4.6c-2.3,1.3-4.6,2.5-7.1,3.4l0.3-0.4c0,5.3,0,10.5-0.1,15.8l-0.1,7.9l-0.2,7.9l-0.2-7.9l-0.1-7.9
		c-0.1-5.3-0.1-10.5-0.1-15.8l0-0.3l0.3-0.1c2.4-0.9,4.7-2.1,6.9-3.3c2.2-1.3,4.3-2.8,6.3-4.4c1.9-1.7,3.7-3.6,5.3-5.6
		c1.6-2,3-4.2,3.8-6.6l0.1,0.3l-4.6-3.7L124,172l0.2-0.1L128.1,170.9z" /></g><path fill="#004B78" d="M99,202c0,1.3,1.1,2.4,2.4,2.4c1.3,0,2.4-1.1,2.4-2.4c0-1.3-1.1-2.4-2.4-2.4C100,199.6,99,200.7,99,202z" /><path fill="#004B78" d="M99,212.8c0,1.3,1.1,2.4,2.4,2.4c1.3,0,2.4-1.1,2.4-2.4c0-1.3-1.1-2.4-2.4-2.4C100,210.4,99,211.5,99,212.8z
	" /><path fill="#228DBB" d="M87.8,223.4c0,0-3.1,8.7-5.8,19.9c-2.6,10.8-3.1,19.9-3.1,19.9h25.1l-3.8-37.2L87.8,223.4z" /><path fill="#F7941D" d="M112.8,260c0,0,5.9,2.8,12.3,2.8c6.4,0,21.1-2.3,21.1-2.3s5.4-5.7,8.4-2.7c3,3-1.3,6.2-1.3,6.2l-1.1,0.7
	c0,0,8-1.7,6.5,2.2c-1.5,3.9-9.2,0.6-9.2,0.6s5.1,3,3.4,4.5c-1.7,1.5-3.1,1.5-5.2,0.2c-2.2-1.3-1.5-3-1.5-3s-34.6,2-36.3-1.1
	C108.7,266,112.8,260,112.8,260z" /><path fill="#F7941D" d="M104.1,260c0,0-7,2.7-13.3,2.7s-20-2.3-20-2.3s-5.4-5.7-8.4-2.7c-3,3,1.3,6.2,1.3,6.2l1.1,0.7
	c0,0-8-1.7-6.5,2.2c1.5,3.9,9.2,0.6,9.2,0.6s-5.1,3-3.4,4.5c1.7,1.5,3.1,1.5,5.2,0.2c2.2-1.3,1.5-3,1.5-3s34.6,2,36.3-1.1
	C108.1,266,104.1,260,104.1,260z" /><path fill="#F7941D" d="M119.1,205.6c0,0,3.5,3.1,8,2.2c4.5-0.9,5.5-4.6,5.5-4.6s-0.1,11.8,3.2,11.8c3.4,0,1.1-11,1.1-11
	s7.7,9.8,9.3,7.7c1.6-2.1-5.3-11.7-5.3-11.7s7.6,7,9.2,4.7c1.6-2.3-9-17.4-15.6-17.7c-6.6-0.3-14.8,3.7-14.8,3.7L119.1,205.6z" /><path fill="#228DBB" stroke="#004B78" stroke-miterlimit="10" d="M93.5,187.2c0,0-1.1-23,1.1-26.9" /><g><path fill="#228DBB" d="M95.1,159.4c0,0-18.2,13.5-16,45c11.3,4.6,27.8,5,41.5,4.2l0.4-21.1c-9.2-1.1-17.4,0.2-25.5,1.9" /><path fill="#004B78" d="M95.1,159.4c-3.1,2.7-5.7,6-7.8,9.5c-2.1,3.5-3.8,7.3-5.1,11.2c-0.5,2-1.2,3.9-1.5,6c-0.2,1-0.4,2-0.6,3
		l-0.4,3.1c-0.1,0.5-0.1,1-0.2,1.5l-0.1,1.5l-0.1,3.1c0,2,0.1,4.1,0.2,6.1l-0.3-0.4c3.2,1.3,6.6,2.2,10,2.8c3.4,0.6,6.9,1,10.4,1.3
		c7,0.5,14,0.5,20.9,0.1l-0.4,0.4c0.1-7,0.3-14,0.5-21.1l0.3,0.3c-4.2-0.5-8.5-0.6-12.8-0.2c-4.3,0.3-8.5,1-12.7,1.9
		c4.2-1,8.4-1.8,12.7-2.2c4.3-0.5,8.6-0.5,12.9,0l0.3,0l0,0.3c-0.1,7-0.1,14-0.3,21.1l0,0.4l-0.4,0c-7,0.4-14.1,0.5-21.1,0
		c-3.5-0.3-7-0.7-10.5-1.4c-3.5-0.7-6.9-1.6-10.2-2.9l-0.3-0.1l0-0.3c0-2.1-0.2-4.1-0.2-6.2l0.1-3.1l0.1-1.6c0-0.5,0.1-1,0.2-1.5
		l0.4-3.1c0.2-1,0.4-2,0.6-3.1c0.4-2,1.1-4,1.6-6c1.4-3.9,3.1-7.7,5.4-11.2C89.2,165.2,91.8,162,95.1,159.4z" /></g><g><path fill="#004B78" d="M92.4,162.2c-1.5,2.6-3.2,5.1-4.8,7.6l-0.2-0.6c1.3,0.3,2.6,0.7,3.8,1l0.9,0.2l-0.7,0.6
		c-1.6,1.2-3.1,2.4-4.7,3.6l0.2-0.5c0.3,1.3,1,2.6,1.6,3.8c0.7,1.2,1.5,2.4,2.3,3.5c0.9,1.1,1.8,2.2,2.7,3.3c0.9,1.1,2,2,3,3
		c-1.1-0.9-2.3-1.8-3.3-2.7c-1.1-1-2-2-3-3.1c-0.9-1.1-1.8-2.3-2.6-3.5c-0.8-1.3-1.4-2.5-1.8-4l-0.1-0.3l0.3-0.2
		c1.6-1.2,3.1-2.4,4.7-3.6l0.2,0.8c-1.3-0.4-2.5-0.8-3.8-1.2l-0.5-0.2l0.3-0.4C88.7,166.9,90.5,164.5,92.4,162.2z" /></g><g><path fill="#F99F33" d="M99.5,156.2c0,0-4.7-0.6-6.9-4.5c-2.3-4-0.2-7.2-0.2-7.2s-8.7,7.9-11,5.4c-2.3-2.5,7.5-8.1,7.5-8.1
		s-12.5,0.8-11.9-1.8c0.5-2.6,12.2-3.8,12.2-3.8s-10.3-1-9.6-3.7c0.7-2.7,19-4.8,23.6,0c4.6,4.8,7.1,13.5,7.1,13.5L99.5,156.2z" /></g><g><path fill="#D54F27" d="M82.2,131.1c2.8-1.3,5.8-2.2,8.9-2.5c3.1-0.3,6.3,0,9.2,1.3c1.4,0.7,2.8,1.6,3.9,2.7c1.1,1.2,2,2.5,2.7,3.8
		c1.5,2.7,2.5,5.7,3.2,8.6c-0.5-1.4-1.1-2.9-1.8-4.2c-0.6-1.4-1.3-2.7-2.1-4c-0.8-1.3-1.7-2.5-2.7-3.6c-1-1-2.3-1.9-3.6-2.5
		c-2.7-1.3-5.7-1.6-8.7-1.5c-1.5,0.1-3,0.3-4.5,0.6C85.1,130.2,83.7,130.6,82.2,131.1z" /></g><g><path fill="#228DBB" d="M119.8,164.8c0,0,19.2,11.5,11,27c-3.1,6-11.8,6.4-19.1-0.6c-10.6-10.1-20-36.1-20-36.1l20.9-10.9l8.5,28.8
		" /><path fill="#004B78" d="M119.8,164.8c3.4,2.1,6.5,4.8,9,7.9c2.5,3.1,4.3,7,4.3,11.1c0,2-0.3,4.1-1.1,6c-0.2,0.5-0.4,0.9-0.6,1.4
		c-0.2,0.5-0.4,0.9-0.7,1.4c-0.6,0.9-1.3,1.7-2.1,2.3c-1.7,1.3-3.8,1.8-5.9,1.8c-2.1,0-4.1-0.6-6-1.5c-3.7-1.8-6.7-4.8-9.1-8
		c-2.5-3.2-4.6-6.6-6.5-10.2c-3.9-7.1-7.1-14.4-9.9-21.9l-0.1-0.4l0.4-0.2c7-3.6,14-7.2,21-10.8l0.4-0.2l0.1,0.4l4.1,14.5l4.1,14.5
		l-4.4-14.4l-4.4-14.4l0.5,0.2c-6.9,3.7-13.9,7.4-20.9,11l0.2-0.6c2.8,7.5,6.1,14.8,9.9,21.8c1.9,3.5,4,6.9,6.4,10.1
		c2.4,3.1,5.2,6.1,8.8,7.8c1.8,0.8,3.7,1.4,5.6,1.4c1.9,0,3.9-0.5,5.4-1.6c0.8-0.6,1.4-1.3,2-2.1c0.3-0.4,0.5-0.8,0.7-1.3
		c0.2-0.4,0.4-0.9,0.6-1.3c0.7-1.8,1.1-3.8,1.1-5.7c0-4-1.7-7.8-4-10.9C126.1,169.8,123.1,167,119.8,164.8z" /></g></svg>