<?xml version="1.0" encoding="utf-8"?>
<!-- Generator: Adobe Illustrator 19.2.0, SVG Export Plug-In . SVG Version: 6.00 Build 0)  -->
<!DOCTYPE svg PUBLIC "-//W3C//DTD SVG 1.1//EN" "http://www.w3.org/Graphics/SVG/1.1/DTD/svg11.dtd">
<svg version="1.1" xmlns="http://www.w3.org/2000/svg" xmlns:xlink="http://www.w3.org/1999/xlink" x="0px" y="0px"
	 viewBox="0 0 67.5 40" enable-background="new 0 0 67.5 40" xml:space="preserve" width="67.5" height="40" preserveAspectRatio="none">
<g id="BG" display="none">
	<rect x="-566.4" y="-196.3" display="inline" fill="#006838" width="646.9" height="712.4"/>
</g>
<g id="Header_Buttons">
	<path fill="#FFC640" d="M22.9,16.9h-6.5v-3l-0.7-0.8h-3.5l-0.8,0.8v11.5l0.8,0.7h3.5l0.7-0.7v-2.8h6.5v5.1l-3.8,3.8H8.7L5,27.7
		V11.6l3.8-3.8h10.4l3.8,3.8V16.9z"/>
	<path fill="#FFC640" d="M37.2,26.1v-3.9h-4.6v3.9H34v5.3h-9.3v-5.3h1.4v-13h-1.4V7.8H34v5.3h-1.4v3.2h4.6v-3.2h-1.4V7.8h9.3v5.3
		h-1.4v13h1.4v5.3h-9.3v-5.3H37.2z"/>
	<g>
		<path fill="#FFC640" d="M54.4,26.8c-0.9,0.3-1.5,0.9-1.5,1.8c0,0.9,0.7,1.7,1.7,1.7c1,0,1.7-0.7,1.7-1.5
			C56.4,27.8,55.6,27.1,54.4,26.8z"/>
		<path fill="#FFC640" d="M54.9,24.7c0.7-0.2,1.2-0.8,1.2-1.6c0-0.8-0.4-1.5-1.5-1.5c-1,0-1.5,0.7-1.5,1.4
			C53.2,23.8,53.9,24.4,54.9,24.7z"/>
		<path fill="#FFC640" d="M62,18.3l-6.3-2.9l-8.3,0.9L45,18.6v6.2h1.8v7.9h-2.5l0.1,0.5l2.6,2l7.9,1.4l6.8-2.1l3.4-7.7L62,18.3z
			 M54.6,32.3c-3.1,0-4.6-1.8-4.6-3.4c0-1.5,0.9-2.5,2.2-3.1v0c-1.2-0.6-1.8-1.6-1.8-2.7c0-2.1,1.9-3.5,4.3-3.5
			c2.9,0,4.1,1.7,4.1,3.2c0,1.1-0.6,2.1-1.8,2.7v0.1c1.2,0.5,2.3,1.5,2.3,3C59.3,30.8,57.4,32.3,54.6,32.3z"/>
	</g>
</g>
</svg>
