<?xml version="1.0" encoding="utf-8"?>
<!-- Generator: Adobe Illustrator 19.2.0, SVG Export Plug-In . SVG Version: 6.00 Build 0)  -->
<!DOCTYPE svg PUBLIC "-//W3C//DTD SVG 1.1//EN" "http://www.w3.org/Graphics/SVG/1.1/DTD/svg11.dtd">
<svg version="1.1" xmlns="http://www.w3.org/2000/svg" xmlns:xlink="http://www.w3.org/1999/xlink" x="0px" y="0px"
	 viewBox="0 0 67.5 40" enable-background="new 0 0 67.5 40" xml:space="preserve" width="67.5" height="40" preserveAspectRatio="none">
<g id="BG" display="none">
	<rect x="-271" y="-196.3" display="inline" fill="#006838" width="646.9" height="712.4"/>
</g>
<g id="Header_Buttons">
	<path fill="#F52338" d="M22.9,16.9h-6.5v-3l-0.7-0.8h-3.5l-0.8,0.8v11.5l0.8,0.7h3.5l0.7-0.7v-2.8h6.5v5.1l-3.8,3.8H8.7L5,27.7
		V11.6l3.8-3.8h10.4l3.8,3.8V16.9z"/>
	<path fill="#F52338" d="M37.2,26.1v-3.9h-4.6v3.9H34v5.3h-9.3v-5.3h1.4v-13h-1.4V7.8H34v5.3h-1.4v3.2h4.6v-3.2h-1.4V7.8h9.3v5.3
		h-1.4v13h1.4v5.3h-9.3v-5.3H37.2z"/>
	<g>
		<path fill="#F52338" d="M62,18.3l-6.3-2.9l-8.3,0.9L45,18.6v6.2h1.8v7.9h-2.5l0.1,0.5l2.6,2l7.9,1.4l6.8-2.1l3.4-7.7L62,18.3z
			 M59,29.2h-1.5v2.9h-2.7v-2.9h-5.4v-1.9l4.6-7.5h3.5v7.2H59V29.2z"/>
		<path fill="#F52338" d="M53.7,24.3L52,27l0,0h2.8v-2.7c0-0.7,0-1.5,0.1-2.3h-0.1C54.4,22.8,54.1,23.6,53.7,24.3z"/>
	</g>
</g>
</svg>
