<?xml version="1.0" encoding="utf-8"?>
<!-- Generator: Adobe Illustrator 19.2.0, SVG Export Plug-In . SVG Version: 6.00 Build 0)  -->
<!DOCTYPE svg PUBLIC "-//W3C//DTD SVG 1.1//EN" "http://www.w3.org/Graphics/SVG/1.1/DTD/svg11.dtd">
<svg version="1.1" xmlns="http://www.w3.org/2000/svg" xmlns:xlink="http://www.w3.org/1999/xlink" x="0px" y="0px"
	 viewBox="0 0 60 40" enable-background="new 0 0 60 40" xml:space="preserve" width="60" height="40" preserveAspectRatio="none">
<g id="BG" display="none">
	<rect x="-122.4" y="-252.9" display="inline" fill="#006838" width="646.9" height="712.4"/>
</g>
<g id="Header_Buttons">
	<path fill="#FFFFFF" d="M19,9.9c-0.1-0.4-0.2-0.9-0.6-1.1c-0.4-0.2-0.9,0-1.3,0.1c-1-0.3-2-0.5-3-0.5c-0.5-0.6-1.5-1.5-2.4-1
		C11,7.9,10.3,8.8,9.9,9.6c-0.7,0.5-1.3,1-1.8,1.7c-0.5,0.1-1.3,0.2-1.5,0.7c-0.2,0.5,0,1.4,0.2,1.8c-0.1,0.4-0.2,0.7-0.3,1.1
		c-3.8,0.2-3.4,5.6-3.3,8.2C3.2,26.4,3.8,30,6,32.6c1.8,2.1,4.6,2.8,7.3,2.6c2.8-0.2,6-1.7,7-4.5c1.3-3.5-1.9-6-4.8-7
		C22.8,18,22.4,12.4,19,9.9z M17.2,17.3c0,0.3-0.1,0.5-0.1,0.8c-0.2,0.8-0.5,1.5-0.8,2.2c-0.2,0.4-0.5,0.8-0.8,1.1
		c-0.7,0.8-1.5,1.5-2.4,2c0.2-0.2,0.4-0.5,0.6-0.7c0.4-0.6,0.9-1.1,1.3-1.7c0.2-0.4,0.5-0.7,0.7-1.1c0.1-0.1,0.1-0.3,0.2-0.4
		c0.3-0.5,0.5-1,0.6-1.6c0.1-0.3,0.2-0.5,0.2-0.8c0.1-0.2,0.1-0.5,0.2-0.7c0.1-0.5,0.2-1,0.3-1.5c0.1,0.5,0.1,1,0.1,1.5
		C17.2,16.7,17.2,17,17.2,17.3C17.2,17.5,17.2,17,17.2,17.3z M16.3,9.8c0.4-0.5,1.2-0.8,1.8-0.6c0.1,0,0.1,0,0.2,0
		c0.1,0,0.1,0.1,0.2,0.1c0,0,0,0,0,0C17.7,9.3,17,9.7,16.3,9.8C16.2,9.9,16.3,9.8,16.3,9.8C16.3,9.7,16.3,9.8,16.3,9.8z M15.8,9.7
		c-0.2,0.6,2.9,2.1,3.2,1.6c0.2,0.3-0.2,0.4-0.4,0.4c-0.5,0-1.1-0.2-1.6-0.4C16.8,11.1,14.9,9.7,15.8,9.7
		C15.8,9.7,15.3,9.7,15.8,9.7z M10.4,9.9c0.2-0.7,0.7-1.5,1.3-1.9c0.1-0.1,0.2-0.1,0.3-0.2c0.1-0.1,0.2-0.1,0.3-0.1
		c0.1,0,0.2,0,0.2-0.1c0.1,0,0.1,0,0.2,0c0.1,0,0.2,0.1,0.2,0.1s-0.1,0-0.1,0c0,0-0.1,0-0.2,0.1c-0.1,0-0.1,0.1-0.2,0.1
		c-0.1,0.1-0.1,0.1-0.2,0.2c-0.6,0.6-1.2,1.3-1.8,2C10.4,10.1,10.4,10,10.4,9.9C10.4,9.8,10.4,10,10.4,9.9z M9.7,10.2
		c0,0.7,2.1,0.2,2.5,0.1c0.4-0.1,2.4-0.4,2.4-1c0.6,0.2-0.2,0.7-0.4,0.8c-0.8,0.4-1.7,0.7-2.5,0.9c-0.5,0.1-1.6,0.3-2.1,0
		C9.3,10.7,9.5,10.4,9.7,10.2C9.7,10.3,9,10.8,9.7,10.2z M8.8,13.9c-0.7,1.8-1.7,2.2-1.7,1.1c0.5,0.8,1.3-1,1.4-1.3
		c0.2-0.4,1-1.8,0.6-2.2C9.7,11.2,9.5,12.1,8.8,13.9C8.1,15.7,9.5,12.1,8.8,13.9z M7.5,16.3c0.7,0.5,0.8,1.9,0.8,2.6
		c0,0.7-0.5,1.5-0.9,0.5l0,0C8.2,19.9,8,18.7,8,18.2C7.9,17.7,7.9,16.8,7.5,16.3C7.8,16.5,7.8,16.7,7.5,16.3z M6.8,12.3
		c0-0.1,0.1-0.1,0.2-0.2c0.5-0.4,1.3-0.6,1.9-0.4C8.1,12,7.4,12.1,6.8,12.3C6.7,12.4,6.7,12.3,6.8,12.3C6.8,12.2,6.7,12.3,6.8,12.3z
		 M4.7,23.4c0.1,2.5,0.5,4.9,1.1,7.3c-1.2-2.2-1.7-4.7-1.9-7.1c-0.1-1.4,0-2.8,0.3-4.2c0.2-0.9,0.5-2.7,1.5-3c0,0,0,0,0,0s0,0,0,0
		c-0.8,0.5-0.9,2.3-1,3.1C4.6,20.8,4.6,22.1,4.7,23.4C4.7,23.9,4.7,23,4.7,23.4z M6.3,17.9C6.3,17.9,6.3,18,6.3,17.9
		c-0.1,0-0.1-0.1-0.1-0.2c0.1-0.5,0.5-1,1-0.9c0.1,0,0.1,0,0.1,0s0,0-0.1,0.1c0,0-0.1,0.1-0.1,0.1C6.9,17.3,6.6,17.6,6.3,17.9
		C6.3,17.9,6.4,17.9,6.3,17.9z M12.1,32.4c-1.8,0-2.7-1.8-3-3.3c-0.5-2.3-0.3-4.8,0.1-7.1c-1.6-0.2-2.4-1.4-2.5-2.7
		c0.5,1.1,1.4,1.9,2.7,2c0,0,0,0,0,0c0.5,0.1,1.1,0,1.8-0.2c-0.5-1.6-0.4-3.5,0.2-5c0.4-1.2,1.6-2.6,3-2.2c2.2,0.6,1.3,3.8,0.7,5.2
		c-1.2,2.4-3.2,4.3-5.3,5.9C16,27.4,15.7,32.4,12.1,32.4z M16.2,30.8c-0.2,1.1-0.8,2-1.9,2.4c-0.1,0-0.2,0-0.2,0.1
		c-0.1,0-0.1,0-0.2,0c-0.1,0-0.2,0-0.3,0c-0.1,0-0.2,0-0.2,0c0,0-0.1,0-0.1,0c0.1,0,0.3-0.1,0.4-0.2c0,0,0.1,0,0.2-0.1
		c0.1,0,0.1-0.1,0.2-0.1c0.1,0,0.1-0.1,0.2-0.1c0.1,0,0.1-0.1,0.2-0.1c0,0,0.1,0,0.1-0.1c0.2-0.2,0.4-0.4,0.6-0.7
		c0.3-0.5,0.5-1,0.6-1.5c0.1-0.6,0.1-1.2,0.1-1.9c0-0.1,0-0.3,0-0.4c0,0,0,0,0,0.1C16.2,29,16.4,29.9,16.2,30.8
		C16.2,31.1,16.3,30.6,16.2,30.8z"/>
	<path fill="#FFFFFF" d="M37.3,28l-2.5-12h1.4v-6H20.6c1.5,1.3,1.9,3.7,1.4,6l0,0l0,0l-2,9.5c1.8,1.8,2.7,5.5-1.1,8.5l8.2,0v-6h-1.3
		l0.4-2.1h4.3l0.4,2.1h-1.2v6h9.7v-6H37.3z M27.3,21l1.1-5.6l1.1,5.6H27.3z"/>
	<path fill="#FFFFFF" d="M54.9,16.1L47.2,13l-8.9,2.8l-1.5,3.5l1.6,7.5h2.3v5.1l4.8,2.6l9.2-2.1l3.4-7.7L54.9,16.1z M52.1,29.9h-9
		v-1.8l4.3-4.6c1-1.1,2.6-3,1.3-4.4c-1.3-1.5-3.2,0.2-3.2,1.7h-2.6c0-3.6,4.2-5.4,7.2-3.8c1.4,0.8,1.9,2.4,1.6,4
		c-0.3,1.7-1.7,3.1-2.8,4.3l-2.3,2.5h5.7V29.9z"/>
</g>
</svg>
