<?xml version="1.0" encoding="utf-8"?>
<!-- Generator: Adobe Illustrator 19.2.0, SVG Export Plug-In . SVG Version: 6.00 Build 0)  -->
<svg version="1.1" xmlns="http://www.w3.org/2000/svg" xmlns:xlink="http://www.w3.org/1999/xlink" x="0px" y="0px"
	 viewBox="0 0 34 34" enable-background="new 0 0 34 34" xml:space="preserve" width="34" height="34" preserveAspectRatio="none">
<g id="Bubble_Animation">
	<g>
		<path fill="#B5DBAF" d="M14.1,11.3L14.1,11.3L14.1,11.3z"/>
		<path fill="#CCA300" d="M17.8,26.7c0.1,0,0.9-0.7,1-0.7c0.1,0,2.2,0.2,2.7,0.5c0,0,8.7,6.2,8.4,5.4L25.6,22
			c-0.2-0.6-0.5-1.1-0.5-1.3s0.5-0.8,0.9-1.2l6.4-7.2c0.4-0.5,0.2-0.9-0.4-1L23.5,10c-0.6-0.1-1.2-0.2-1.3-0.2
			c-0.1,0-0.3-0.3-0.6-0.9l-2.8-7.3c-0.2-0.6-0.7-0.7-0.9-0.1l-3.6,9.1c-0.2,0.6-0.4,1.1-0.5,1.2c-0.1,0.1-0.8,0.3-1.4,0.5l-11,3.3
			c-0.6,0.2,1,0.9,1.5,1.2c0,0,7.1,3.6,7.1,3.7c0.1,0.1-0.1,2.4-0.1,3.1l-0.4,8.7c0,0.6,0.4,0.8,0.9,0.5
			C10.4,32.7,17.7,26.7,17.8,26.7z"/>
		<path fill="#FFD941" d="M19.7,26.7c0.1,0,0.2,0,0.3,0.1l10.4,5.9l-5-11.5c-0.1-0.2,0-0.4,0.1-0.6l6.9-8.4L23,11.5
			c-0.2,0-0.3-0.2-0.4-0.3l-3.5-8.8l-3.7,10.5c-0.1,0.2-0.2,0.3-0.3,0.3L2.6,16.6l8.1,5.1c0.2,0.1,0.2,0.3,0.2,0.5l-0.6,10.6l9-5.9
			C19.5,26.7,19.6,26.7,19.7,26.7z"/>
	</g>
</g>
</svg>
