<?xml version="1.0" encoding="utf-8"?>
<!-- Generator: Adobe Illustrator 19.2.0, SVG Export Plug-In . SVG Version: 6.00 Build 0)  -->
<svg version="1.1" xmlns="http://www.w3.org/2000/svg" xmlns:xlink="http://www.w3.org/1999/xlink" x="0px" y="0px"
	viewBox="0 0 166 504" enable-background="new 0 0 166 504" xml:space="preserve" width="166" height="504" preserveAspectRatio="none">
<g id="BG">
</g>
<g id="Coral">
</g>
<g id="Sand_BG">
</g>
<g id="Right_BG_Fish">
</g>
<g id="Left_BG_Fish">
</g>
<g id="Left_Orange_and_Purple_Fish">
</g>
<g id="Starfish">
</g>
<g id="White_Frame_Drop_Shadow">
</g>
<g id="White_Frame_BG">
</g>
<g id="Submit_Button_1_">
</g>
<g id="Left_Tool_Bar_Tab">
</g>
<g id="Right_Info_Tab">
</g>
<g id="Top_Tab">
</g>
<g id="Left_Tools">
</g>
<g id="Orange_Crab">
</g>
<g id="Anchor">
</g>
<g id="Layer_31">
</g>
<g id="Treasure_Chest">
</g>
<g id="Keyboard">
</g>
<g id="Header">
</g>
<g id="Header_Buttons">
</g>
<g id="Progress_Indicator_1_">
</g>
<g id="Title">
</g>
<g id="Layer_30">
</g>
<g id="Bubble_Animation">
	<g>
		<path fill="#262223" d="M56.6,295.2c-0.1-24.4-5.1-29.4-11.5-35.7c-2.5-2.5-5.4-5.3-8-9.5c-10.1-15.8-5.3-27.5,0.7-42.3
			c3.8-9.2,8-19.6,10.6-34l6.9,1.2c-2.7,15.1-7.3,26.3-11,35.4c-5.9,14.4-9.5,23.2-1.3,35.9c2.2,3.5,4.6,5.8,7.1,8.3
			c7,6.9,13.5,13.4,13.6,40.7L56.6,295.2z"/>
		<path fill="#4A4A57" d="M39.8,214.3c0,0-4.3,7.8-4.3,16.8c0,8.9,1.9,11.5,1.9,11.5s-2.5,1.2-2.5,0.8c0-0.4-1.7-5-1.7-13.2
			c0-7.7,4.2-16.6,4.2-16.6L39.8,214.3z"/>
		<path fill="#4A4A57" d="M51,257.8c0,0,5.3,4.7,6.7,8.9c1.3,4.3,1.6,5.6,1.6,5.6l-2,0.7c0,0-0.8-4.7-3.2-8.1
			c-2.4-3.5-6.3-6.1-6.3-6.1L51,257.8z"/>
	</g>
	<g>
		<path fill="#939598" d="M64.2,317.9L64.2,317.9c-3.2,0.5-5-1.5-5.5-4.7l-7.3-32.8c-0.2-1.6,1.2-2.3,6.6-3.8
			c4.9-1.4,8.3-3.2,8.2,3.5c-0.1,3,2,31.4,2,31.4C68.7,314.6,67.3,317.5,64.2,317.9z"/>
		<path fill="#EF4F4F" d="M69.5,318.4l2.7-10.2c-0.1-1-1.1-1.7-2.1-1.5l-13.3,3c-1,0.1-1.7,1.1-1.5,2.1l1.3,8.7
			c-18,8.2-25.3,26.6-21.6,45.3c3.3,16.9,21.4,132.7,21.4,132.7c21.5,8.7,49.9,0.4,61.6-12.5l-12.9-137.3
			C102.9,330.4,88.4,316.3,69.5,318.4z"/>
		<path fill="#FF7C69" d="M97.4,337.2c0,0-1.3,3.3-6.9,5.5c-3.9,1.6-8.6,1.5-8.6,1.5s10.8,17.8,14.6,34.8c3.6,16.2,5.9,10.3,5.7,4.5
			C101.7,369.5,97.4,337.2,97.4,337.2z"/>
		<path fill="#C72323" d="M48.3,354.9c2.7,33.5,29.4,144.7,29.4,144.7c-5.4,0.5-14.1-1.3-18.1-3.2c0,0-20.2-127.2-21.8-134.8
			c-0.8-3.9,0.1-10.8,2.7-18.4c2.1-6.2,7.4-11.7,13.5-16.2C55.5,326,47.2,340.6,48.3,354.9z"/>
		<path fill="#939598" d="M79.6,300.8l-37,2.5c-0.7,0.1-1.3-0.4-1.4-1l-0.7-7.2c-0.1-0.7,0.4-1.3,1-1.4l36.3-6.6
			C78.5,286.9,80.3,300.8,79.6,300.8z"/>
		<path fill="#262223" d="M18.9,289.4l23.3,0.9c0.6-0.1,1.2,0.3,1.3,1l4.1,14.9c0.1,0.6-0.3,1.2-0.9,1.3l-28.2,8.3
			C16.3,316.1,6,294.5,18.9,289.4z"/>
		<path fill="#4A4A57" d="M15.1,304.6c0,0-1.5-4-0.3-7.5c1.1-3.2,4.3-6.6,4.3-6.6l23,1.1l0.8,2.2L21.6,295
			C20.8,294.8,15.5,300.6,15.1,304.6z"/>
		<polygon fill="#939598" points="67.8,304.8 57.3,306.4 51.8,301.7 49.5,293.5 54.2,288.4 66.5,286.8 71.3,290.2 71.3,298.8 		"/>
		<polygon fill="#B4B6BA" points="68.6,289.2 65.9,287.6 55,288.9 53.2,291.8 65.3,288.9 		"/>
		<polygon fill="#797A7D" points="54.6,302.2 57.1,304.8 67.9,302.5 68.6,301.3 57.5,302.8 		"/>
		<path fill="#797A7D" d="M100,289.3c1.8,10,1,17.2,1,17.2s-10.6-9.2-10.4-15.4c0.4-10,5.7-17.4,5.7-17.4S98.2,278.9,100,289.3z"/>
		<path fill="#939598" d="M76.6,287.3c0,0-1.9,8,0.8,13.7c0,0,6.9-0.4,13.4,0c4,0.3,6.7,4,7.8,5.5c1.1,0,1.7-0.1,2.5-0.1
			c-3-2.9-14.2-13-4.8-32.8c-0.2-0.1-2.4,1-2.4,1S93.4,283.9,76.6,287.3z"/>
		<polygon fill="#B4B6BA" points="65.3,279.1 64.3,276.4 52.8,279.9 52.7,281.7 63.5,277.8 		"/>
		<path fill="#797A7D" d="M76.8,301c-3.5-6.6-1.2-13.3-1.1-13.6l1.6-0.4c0,0.1-3.4,6.9,0.5,13.9L76.8,301z"/>
		<path fill="#B4B6BA" d="M90.5,289.2c0-2.7,0.5-5.7,1.7-8.9c0,0-2.1,3.8-7.5,5.8c-4,1.4-7.2,2.2-7.2,2.2c-0.6,1.1-0.7,2.3-0.7,3.5
			L90.5,289.2z"/>
		<path fill="#B4B6BA" d="M74.5,288.7c0,0-0.3,0.8-0.5,1.9c-0.3,1.1,0,1.8,0,1.8l-28.4,3.8l-0.4-1.8
			C45.2,294.5,74.7,288.6,74.5,288.7z"/>
	</g>
	<g>
		<path fill="#939598" d="M66.3,176l-8.9,2.1c-1.4-0.9-3.2-1.6-5.2-2.2c-2.6-0.7-4.8-0.8-6.7-0.4l-6.7-3.5l-0.1,5.8
			c0,0-0.3,2-0.1,4.4c0.2,4.4,3.9,6,10,7.5c5.3,1.4,9.4,1.8,11.9-1.6c0.5-0.7,2.6-5.5,2.6-5.5L66.3,176z"/>
		<path fill="#939598" d="M74.1,155.9L66.1,174l-24-6.4l0.8-20.8C43,146.8,73.9,156.2,74.1,155.9z"/>
		<path fill="#808285" d="M45.1,151.6c0.3-0.7,11.8,4.2,26.5,7.6C71.6,159.2,53.4,164.4,45.1,151.6z"/>
		<g>
			<path fill="#808285" d="M43,177.9c-0.1-0.2-0.8-2.5-1-2.7c-0.1-0.1-0.6-0.4-1.2-0.8l2.9-11.4l0.5,0.6c0,0,1.4,0.1,1.5-0.1
				c0.1-0.2,1.9-3.5,1.9-3.5l-1-2l-2.7,1l-3.3,1.4l-4.1,12.4l1.8,4.9l2.9,1.8C41.2,179.6,43.1,178.1,43,177.9z"/>
			<path fill="#A7A9AC" d="M69.8,170.2l-3.5-5.8l-1.1,1c0,0,0.1,1.3,0.2,1.6c0.1,0.3,0.6,0.9,0.8,1.1c0.2,0.1,1.4,0.6,1.5,0.6
				l-3.1,12.1c0,0,0,0,0,0l-1.4,0.1c0,0-7.4,2.9-7.4,3c0,0.1,4.6,1.2,4.6,1.2l5.4-2.7L69.8,170.2z"/>
			<polygon fill="#A7A9AC" points="61.5,184.2 41.2,179.6 39.6,175.7 43.1,161.1 46.6,158 66.4,164.5 68.1,167.5 64.4,182 			"/>
			<polygon fill="#D1D3D4" points="66.4,164.5 67.6,168.5 63.1,181.4 61.8,182.7 65.8,166.3 43.1,161 46.5,158 			"/>
			<polygon fill="#808285" points="60.8,183.1 57.8,184.5 38.9,179.3 37.9,176.6 39.9,178 			"/>
		</g>
		<polygon fill="#B4B6BA" points="65.9,2.1 13.6,35.2 1.3,98.9 26.9,146.1 90.5,164.8 150.4,130.6 164.7,67 132.7,22.9 		"/>
		<path fill="#6D6E71" d="M149.2,102.8c-9.3,36.4-48.4,57.5-86.4,47.8C24.9,140.8,1.8,103.4,11.1,67S58.5,8.7,96.8,17.1
			C139.2,26.4,159.3,63.3,149.2,102.8z"/>
		<path fill="#E6E7E8" d="M146.5,102.5c-9.1,35.4-46.3,56.5-83,47s-59.1-45.8-50-81.3s43.7-55.1,81-48.6
			C137,27.1,155.6,67.1,146.5,102.5z"/>
		<g>
			<path fill="#D1D3D4" d="M148.4,128.4l14.3-61.6l-31.6-42.2l-63.7-20l1.7,7.4c30.5,0.3,56.1,14.2,56.1,14.2s5.2,3.2,14.5,14.1
				c1.6,1.9,3.1,3.9,4.5,5.9c11.6,16.6,11.6,29.9,10,45.3c-2.4,22.4-14.2,40.6-14.2,40.6L148.4,128.4z"/>
		</g>
		<path fill="#D1D3D4" d="M8.9,99.8c0,0,7.5,25.2,23.4,38c17.6,14.1,40,18.8,57.6,17.5l0.9,8.3l-61.7-18.9l-26-46L8.9,99.8z"/>
		<g>
			<path fill="#E6E7E8" d="M89.3,75.3c-1.5-1.1-3.3-1.9-5.2-2.4c-2-0.5-3.9-0.6-5.8-0.4c-5.4,0.6-10,4.2-11.3,9.3
				c-1.3,5.1,1,10.4,5.4,13.6c1.5,1.1,3.3,1.9,5.2,2.4c2,0.5,3.9,0.6,5.8,0.4c5.4-0.6,10-4.2,11.3-9.3C96,83.8,93.7,78.5,89.3,75.3z
				"/>
			<path fill="#F9F5B3" d="M78.2,72.5c1.9-0.2,3.8-0.1,5.8,0.4l0,0l5.8-22.7l0,0c0,0,0,0,0,0c-5.5-1.4-10.9-1.5-16.1-0.4
				c-4.8,1-9.3,2.9-13.3,5.6l13.7,18.2C75.4,73,76.8,72.6,78.2,72.5z"/>
			<path fill="#FFD941" d="M73.7,49.8c5.2-1,10.7-1,16.1,0.4c0,0,0,0,0,0l0,0l1.9-7.5l0,0c-6.6-1.7-13.3-1.8-19.6-0.5
				c-5.9,1.2-11.6,3.6-16.5,7l4.7,6.2C64.4,52.6,68.9,50.7,73.7,49.8z"/>
			<path fill="#F7BF7C" d="M66.9,81.7c1-3.7,3.7-6.6,7.2-8.1L60.4,55.4c-7,4.8-12.4,12-14.7,20.9c-0.5,2-0.8,4-1,5.9l22,0.6
				C66.8,82.4,66.9,82.1,66.9,81.7z"/>
			<path fill="#EDA4A6" d="M66.7,82.8l-22-0.6c-1,11.9,3.9,23.4,12.7,30.8l14.9-17.7C68.2,92.4,66,87.6,66.7,82.8z"/>
			<path fill="#F7941E" d="M45.7,76.3c2.3-8.9,7.7-16.1,14.7-20.9l-4.7-6.2C47.4,55,41,63.7,38.2,74.3c-0.7,2.5-1.1,5.1-1.3,7.6
				l7.7,0.2C44.9,80.2,45.2,78.2,45.7,76.3z"/>
			<path fill="#ED1941" d="M44.7,82.2L36.9,82c-1.1,14.3,4.9,28,15.5,37l2.3-2.8l2.6-3.1C48.6,105.5,43.7,94.1,44.7,82.2z"/>
			<path fill="#C1DEB6" d="M104.2,57.6c-4-3.4-8.9-6-14.3-7.4L84,72.9c2,0.5,3.7,1.3,5.2,2.4c1.2,0.9,2.2,1.9,3.1,3l20.8-9.3
				C111,64.6,107.9,60.8,104.2,57.6z"/>
			<path fill="#22B35F" d="M113.1,69l7.1-3.2c-2.7-5.4-6.4-10.2-11-14.1c-4.9-4.1-10.8-7.3-17.4-9l-1.9,7.5c5.5,1.4,10.3,4,14.3,7.4
				C107.9,60.8,111,64.6,113.1,69z"/>
			<path fill="#1FC4C2" d="M123.4,96.3c2.7-10.6,1.3-21.4-3.2-30.5l-7.1,3.2c3.8,7.6,5.1,16.5,2.8,25.4c-0.5,2-1.2,3.9-2,5.7
				l6.9,3.6C121.9,101.3,122.7,98.8,123.4,96.3z"/>
			<path fill="#3877B4" d="M113.9,100c-4.8,10.9-14.7,18.6-26,20.8l0.7,3.7l0.8,3.9c13.6-2.7,25.5-11.8,31.4-24.9L113.9,100z"/>
			<path fill="#92BDD4" d="M94.3,89.9c-1.6,4.6-5.9,7.6-11,8.2l4.5,22.7c11.3-2.3,21.2-9.9,26-20.8L94.3,89.9z"/>
			<path fill="#A7DBD7" d="M115.9,94.3c2.3-8.9,1.1-17.8-2.8-25.4l-20.8,9.3c2.3,3,3.3,6.9,2.3,10.6c-0.1,0.4-0.2,0.7-0.3,1
				l19.6,10.1C114.7,98.2,115.4,96.3,115.9,94.3z"/>
		</g>
		<polyline fill="#231F20" points="89.7,45.2 90.7,39.4 94.4,39.8 89.3,55.1 87.9,55.2 89.7,45.2 		"/>
		<polyline fill="#231F20" points="83.7,41.9 83.7,39.8 85.3,39.7 84.4,45.4 83.7,45.6 83.7,41.9 		"/>
		<polyline fill="#231F20" points="76.3,42 75.9,39.9 77.5,39.6 77.5,45.4 76.9,45.6 76.3,42 		"/>
		<polyline fill="#231F20" points="69,43.4 68.3,41.4 69.8,40.8 70.8,46.5 70.2,46.8 69,43.4 		"/>
		<polyline fill="#231F20" points="62,46 61,44.2 62.3,43.3 64.3,48.7 63.9,49.2 62,46 		"/>
		<polyline fill="#231F20" points="49.6,54.8 48,53.4 49,52.1 52.7,56.6 52.4,57.1 49.6,54.8 		"/>
		<polyline fill="#231F20" points="44.7,60.8 42.9,59.7 43.6,58.3 48.1,62 47.9,62.6 44.7,60.8 		"/>
		<polyline fill="#231F20" points="40.9,67.5 39,66.8 39.5,65.3 44.5,68.1 44.4,68.7 40.9,67.5 		"/>
		<polyline fill="#231F20" points="38.4,74.8 36.4,74.5 36.6,72.9 42,74.8 42.1,75.4 38.4,74.8 		"/>
		<polyline fill="#231F20" points="37.6,91.1 35.6,91.6 35.2,90 41,89.8 41.2,90.4 37.6,91.1 		"/>
		<polyline fill="#231F20" points="39.4,98.9 37.5,99.7 36.8,98.2 42.5,97 42.8,97.5 39.4,98.9 		"/>
		<polyline fill="#231F20" points="42.6,106.2 40.9,107.4 39.9,106 45.2,103.7 45.7,104.2 42.6,106.2 		"/>
		<polyline fill="#231F20" points="47.1,112.8 45.6,114.3 44.4,113.1 49.2,109.9 49.7,110.3 47.1,112.8 		"/>
		<polyline fill="#231F20" points="99.1,45.9 100.2,44 98.8,43.2 96.8,48.6 97.3,49.1 99.1,45.9 		"/>
		<polyline fill="#231F20" points="105.6,49.6 106.9,47.9 105.7,46.9 102.9,51.9 103.3,52.4 105.6,49.6 		"/>
		<polyline fill="#231F20" points="111.3,54.3 112.9,52.9 111.9,51.6 108.2,56.1 108.5,56.7 111.3,54.3 		"/>
		<polyline fill="#231F20" points="116.1,59.9 117.9,58.8 117.1,57.4 112.8,61.2 113,61.8 116.1,59.9 		"/>
		<polyline fill="#231F20" points="122.8,73.6 124.8,73.2 124.6,71.6 119.2,73.7 119.2,74.3 122.8,73.6 		"/>
		<polyline fill="#231F20" points="124.2,81.2 126.3,81.2 126.3,79.6 120.6,80.6 120.5,81.3 124.2,81.2 		"/>
		<polyline fill="#231F20" points="124.2,88.9 126.3,89.3 126.6,87.7 120.8,87.8 120.6,88.4 124.2,88.9 		"/>
		<polyline fill="#231F20" points="122.9,96.6 124.8,97.3 125.4,95.7 119.7,94.8 119.4,95.3 122.9,96.6 		"/>
		<polyline fill="#231F20" points="115.7,111.2 117.3,112.6 118.4,111.4 113.4,108.4 112.9,108.8 115.7,111.2 		"/>
		<polyline fill="#231F20" points="110.4,117.2 111.7,118.8 113,117.8 108.7,114 108.1,114.3 110.4,117.2 		"/>
		<polyline fill="#231F20" points="104,122 105,123.9 106.5,123.2 102.9,118.6 102.3,118.8 104,122 		"/>
		<polyline fill="#231F20" points="97,125.6 97.6,127.6 99.1,127.2 96.5,122.1 95.8,122.2 97,125.6 		"/>
		<polygon fill="#231F20" points="62.3,59.6 50.9,45.8 55.5,46.2 63.4,58.5 		"/>
		<polygon fill="#231F20" points="34.1,80.3 33.1,84 51,83.1 50.6,81.8 		"/>
		<polygon fill="#231F20" points="110.7,70.9 109.6,69.7 122.8,62.1 125.3,64.8 		"/>
		<polygon fill="#231F20" points="121.8,106 110.2,99.2 110.5,97.7 123.9,103.2 		"/>
		<polygon fill="#231F20" points="89,131.7 86.8,118.3 88,117.4 92.9,131.5 		"/>
		<polygon fill="#231F20" points="50.8,122.5 48.9,118.9 59.5,109.9 60.9,110.4 		"/>
	</g>
</g>
<g id="Layer_33" display="none">
</g>
<g id="Layer_32">
</g>
<g id="Fizz_1">
</g>
<g id="Fizz_2">
</g>
<g id="Fizz_3">
</g>
<g id="Solution_Screen" display="none">
</g>
<g id="Show_Problem_Modal" display="none">
</g>
</svg>
