<?xml version="1.0" encoding="utf-8"?>
<!-- Generator: Adobe Illustrator 19.2.0, SVG Export Plug-In . SVG Version: 6.00 Build 0)  -->
<svg version="1.1" xmlns="http://www.w3.org/2000/svg" xmlns:xlink="http://www.w3.org/1999/xlink" x="0px" y="0px"
	 viewBox="0 0 44 47" enable-background="new 0 0 44 47" xml:space="preserve" width="44" height="47" preserveAspectRatio="none">
<g id="Rote_Screen_BG">
</g>
<g id="Barrel_and_Bucket__x28_Ground_x29_">
</g>
<g id="Bucket_Pour_0">
</g>
<g id="Layer_84">
</g>
<g id="Bucket_Pour_1">
</g>
<g id="Bucket_Pour_2_Water_Level_8-10">
</g>
<g id="Bucket_Pour_2_Water_Level_1-7">
</g>
<g id="Bucket_Pour_3">
</g>
<g id="Water_Level_0">
</g>
<g id="Bucket_Pour_3_Water_Level_0">
</g>
<g id="Bucket_Pour_4_Water_Level_0">
</g>
<g id="Water_Level_1">
</g>
<g id="Bucket_Pour_3_Water_Level_1">
</g>
<g id="Bucket_Pour_4_Water_Level_1">
</g>
<g id="Water_Level_2">
</g>
<g id="Bucket_Pour_3_Water_Level_2">
</g>
<g id="Bucket_Pour_4_Water_Level_2">
</g>
<g id="Water_Level_3">
</g>
<g id="Bucket_Pour_3_Water_Level_3">
</g>
<g id="Bucket_Pour_4_Water_Level_3">
</g>
<g id="Water_Level_4">
</g>
<g id="Bucket_Pour_3_Water_Level_4">
	<g id="Bucket_Pour_4_Water_Level_3_copy">
	</g>
</g>
<g id="Bucket_Pour_4_Water_Level_4">
</g>
<g id="Water_Level_5">
</g>
<g id="Bucket_Pour_3_Water_Level_5">
</g>
<g id="Bucket_Pour_4_Water_Level_5">
</g>
<g id="Water_Level_6">
</g>
<g id="Bucket_Pour_3_Water_Level_6">
</g>
<g id="Bucket_Pour_4_Water_Level_6">
</g>
<g id="Water_Level_7">
</g>
<g id="Bucket_Pour_3_Water_Level_7">
</g>
<g id="Bucket_Pour_4_Water_Level_7">
</g>
<g id="Water_Level_8">
</g>
<g id="Bucket_Pour_3_Water_Level_8">
</g>
<g id="Bucket_Pour_4_Water_Level_8">
</g>
<g id="Water_Level_9">
</g>
<g id="Bucket_Pour_3_Water_Level_9">
</g>
<g id="Bucket_Pour_4_Water_Level_9">
</g>
<g id="Water_Level_10">
</g>
<g id="Bucket_Pour_3_Water_Level_10_1_">
</g>
<g id="Bucket_Pour_4_Water_Level_10">
</g>
<g id="Bucket_Pour_0_copy">
</g>
<g id="Layer_69">
</g>
<g id="Puddle_Xtra_Large">
</g>
<g id="Puddle_Large">
</g>
<g id="Puddle_Medium">
</g>
<g id="Puddle_Small">
</g>
<g id="Bucket_Pour_4_1_">
</g>
<g id="Bucket_Pour_4a">
</g>
<g id="Bucket_Pour_5">
</g>
<g id="Spigot_Spray_1">
</g>
<g id="Spigot_Spray_2">
</g>
<g id="Spigot_Spray_3a">
	<g>
		<path fill="#8CD8ED" d="M34.5,41.5c1.1,0.3,1.8-0.3,1.9-1.7c0.1-1.5-1.7-2.2-2.3-4.1c-0.3-1-0.7-2.7-0.8-3.9
			c0.3,0,2.7-0.2,0.4-3.5c-0.4-0.5-3.2-4.3-2.9-6.6c0.8-0.3,1.3-1.3,0.7-2.4c-3.9-6.5-4.6-15.5-4.6-15.5l0.1-1.5l-1.3,0.7l-4.1-0.7
			l-0.1,0.4c0,0-0.8,7.7-3.4,10.2c-1.6,1.5-1.7,2.5-1.4,3.2c0.1,0.2,1,0.4,1.2,0.4c-0.4,2.2-2.3,4-2.4,5.7c0,1.4,1.1,2,1.5,2.4
			c-0.2,1-0.7,1.7-1.2,2.5c-0.9,1.4-2.7,2.5-1.7,3.1c0.4,0.3,0.9,0.4,1.2,0.3c-0.2,1.2-0.5,2.3-1.6,3.8c-2.5,3.3,0.5,3.1,0.6,3.1
			c-0.4,1-1.2,3-2.4,3.4c-1.2,0.4-1.7,1.4-0.4,2c2.1,0.9,3.4,0.3,5,0.3c2.4,0,1.3,2.7,7,2c2.1-0.3,2.6-1.7,4.5-0.6
			c1.6,1,4.3,0.1,3.8-0.6c-0.5-0.7,2.6-0.1,3.6-0.2C37.3,43.5,34.5,41.5,34.5,41.5z"/>
		<path fill="#C4F7FF" d="M31.3,20.6c-0.3,0.6-0.9,0.5-0.9-0.2C30.4,19.7,31.9,19.5,31.3,20.6z"/>
		<path fill="#C4F7FF" d="M33.6,31.1c-0.6-0.5-0.6-1.5,0.1-1.3C34.3,30,34.4,31.8,33.6,31.1z"/>
		<path fill="#C4F7FF" d="M35.1,43.2c-0.9,0.5-2.8-0.2-1.6-0.7S36,42.7,35.1,43.2z"/>
		<path fill="#C4F7FF" d="M33.5,36.5c0,0,0.7,1.6,1,2c0.4,0.4,0.8,1,0.5,1.5s-0.7,0.7-1-0.1C33.8,39.1,33.5,36.5,33.5,36.5z"/>
		<path fill="#C4F7FF" d="M27.3,43.6c0,0,0.9,1,2.3,0.9s2.4-0.5,1.6-0.5s-1.7,0.1-2.3-0.2C28.3,43.5,27.3,43.1,27.3,43.6z"/>
		<path fill="#C4F7FF" d="M25.3,44c0.3-0.1-2.8,0.8-4.2,0.5c-1.4-0.3-2.2-1.1-0.9-0.9S24.8,44.1,25.3,44z"/>
		<path fill="#C4F7FF" d="M25.6,3.1c0,0,0.1,9,1.5,14.2s3.8,9.8,2.9,11s-1.9,0.9-2.2-0.1c-0.3-1.1,0.9-1.9,0.6-3.4
			c-0.8-4.5-2.6-7.6-3.1-11.7C24.9,9.1,25,3,25,3L25.6,3.1z"/>
		<path fill="#C4F7FF" d="M23.3,2.5c0,0-1.8,21.1-3.4,26.7c-1.7,5.6-1.9,8.8-0.8,8.9c1.1,0.2,1.9-0.8,1.8-2s-0.6-0.5-0.5-3.1
			s1.4-9.8,2.3-16.6S24,2.6,24,2.6L23.3,2.5z"/>
		<path fill="#C4F7FF" d="M24.6,2.8c0,0-0.1,3.5-0.1,3.7c-0.1,3-0.6,19,0.4,22.6c1.1,4,3.3,7.3,3.1,10.2c-0.1,0.9-0.4,2.4-1.4,1.9
			c-1.5-0.8-1.1-1.8-0.9-3.9s-1.6-6.1-2.1-11.4s0-23.2,0-23.2L24.6,2.8z"/>
		<path fill="#C4F7FF" d="M16.2,22.1c0,0.2,0.4,1.5,1.2,0.9s0.3-1.1,0.3-1.8s0.7-2.7,0.7-2.7S16.3,20.9,16.2,22.1z"/>
		<path fill="#C4F7FF" d="M21.2,8.3c0,0-1.2,3.9-2.4,5.1c-1.2,1.2-1.7,1.5-0.9,1.7c0.8,0.1,0.9,0,1.5-1.1s1.8-4.2,2.2-5.6
			c0.4-1.4,0.4-1.9,0.4-1.9L21.2,8.3z"/>
		<path fill="#C4F7FF" d="M14.6,29.6c0,0.6,1.5-0.2,1-0.7S14.6,29,14.6,29.6z"/>
		<path fill="#C4F7FF" d="M14.8,38.3c0,0-0.4,1.8-1.4,2.4s-1.6,0.5-1.4,1.2s2.1,1,2.7,0.8c0.6-0.1,0.8-0.4,0.4-0.4s-1.8,0-2-0.3
			c-0.2-0.4,0.9-0.6,1.3-1.6C14.9,39.4,14.8,38.3,14.8,38.3z"/>
		<path fill="#C4F7FF" d="M13.4,35.7c0,0-0.5,1,0.3,1c0.7,0,0.9-0.5,1-1.2c0.1-0.7,0.4-1.6,0.4-1.6S13.8,34.7,13.4,35.7z"/>
	</g>
</g>
<g id="Layer_87">
</g>
<g id="Spigot_3b">
</g>
<g id="Spigot_Spray_4">
</g>
<g id="Spigot_Spray_5">
</g>
<g id="Barrel_FG">
</g>
<g id="Spigot_Handle_1">
</g>
<g id="Spigot_Handle_2">
</g>
<g id="Rote">
</g>
<g id="Hole_1_Stream_1">
</g>
<g id="Hole_1_Stream_2">
</g>
<g id="Hole_1_Stream_3">
</g>
<g id="Hole_1_Stream_3a">
</g>
<g id="Hole_1_Stream_3b">
</g>
<g id="Hole_2_Stream_1">
</g>
<g id="Hole_2_Stream_2">
</g>
<g id="Hole_2_Stream_3">
</g>
<g id="Hole_2_Stream_4">
</g>
<g id="Hole_2_Stream_5">
</g>
<g id="Hole_2_Stream_5a">
</g>
<g id="Hole_2_Stream_5b">
</g>
<g id="Hole_3_Stream_1_1_">
</g>
<g id="Hole_3_Stream_2_1_">
</g>
<g id="Hole_3_Stream_3_1_">
</g>
<g id="Hole_3_Stream_4_1_">
</g>
<g id="Hole_3_Stream_5">
</g>
<g id="Hole_3_Stream_5a">
</g>
<g id="Hole_3_Stream_5b">
</g>
<g id="Droplets_1">
</g>
<g id="Droplets_2">
</g>
<g id="Droplets_3">
</g>
<g id="Band_Aids">
</g>
<g id="Rote_Screen_FG">
</g>
<g id="Labels">
</g>
</svg>
