<?xml version="1.0" encoding="utf-8"?>
<!-- Generator: Adobe Illustrator 19.2.0, SVG Export Plug-In . SVG Version: 6.00 Build 0)  -->
<svg version="1.1" xmlns="http://www.w3.org/2000/svg" xmlns:xlink="http://www.w3.org/1999/xlink" x="0px" y="0px"
	 viewBox="0 0 44 47" enable-background="new 0 0 44 47" xml:space="preserve" width="44" height="47" preserveAspectRatio="none">
<g id="Rote_Screen_BG">
</g>
<g id="Barrel_and_Bucket__x28_Ground_x29_">
</g>
<g id="Bucket_Pour_0">
</g>
<g id="Layer_84">
</g>
<g id="Bucket_Pour_1">
</g>
<g id="Bucket_Pour_2_Water_Level_8-10">
</g>
<g id="Bucket_Pour_2_Water_Level_1-7">
</g>
<g id="Bucket_Pour_3">
</g>
<g id="Water_Level_0">
</g>
<g id="Bucket_Pour_3_Water_Level_0">
</g>
<g id="Bucket_Pour_4_Water_Level_0">
</g>
<g id="Water_Level_1">
</g>
<g id="Bucket_Pour_3_Water_Level_1">
</g>
<g id="Bucket_Pour_4_Water_Level_1">
</g>
<g id="Water_Level_2">
</g>
<g id="Bucket_Pour_3_Water_Level_2">
</g>
<g id="Bucket_Pour_4_Water_Level_2">
</g>
<g id="Water_Level_3">
</g>
<g id="Bucket_Pour_3_Water_Level_3">
</g>
<g id="Bucket_Pour_4_Water_Level_3">
</g>
<g id="Water_Level_4">
</g>
<g id="Bucket_Pour_3_Water_Level_4">
	<g id="Bucket_Pour_4_Water_Level_3_copy">
	</g>
</g>
<g id="Bucket_Pour_4_Water_Level_4">
</g>
<g id="Water_Level_5">
</g>
<g id="Bucket_Pour_3_Water_Level_5">
</g>
<g id="Bucket_Pour_4_Water_Level_5">
</g>
<g id="Water_Level_6">
</g>
<g id="Bucket_Pour_3_Water_Level_6">
</g>
<g id="Bucket_Pour_4_Water_Level_6">
</g>
<g id="Water_Level_7">
</g>
<g id="Bucket_Pour_3_Water_Level_7">
</g>
<g id="Bucket_Pour_4_Water_Level_7">
</g>
<g id="Water_Level_8">
</g>
<g id="Bucket_Pour_3_Water_Level_8">
</g>
<g id="Bucket_Pour_4_Water_Level_8">
</g>
<g id="Water_Level_9">
</g>
<g id="Bucket_Pour_3_Water_Level_9">
</g>
<g id="Bucket_Pour_4_Water_Level_9">
</g>
<g id="Water_Level_10">
</g>
<g id="Bucket_Pour_3_Water_Level_10_1_">
</g>
<g id="Bucket_Pour_4_Water_Level_10">
</g>
<g id="Bucket_Pour_0_copy">
</g>
<g id="Layer_69">
</g>
<g id="Puddle_Xtra_Large">
</g>
<g id="Puddle_Large">
</g>
<g id="Puddle_Medium">
</g>
<g id="Puddle_Small">
</g>
<g id="Bucket_Pour_4_1_">
</g>
<g id="Bucket_Pour_4a">
</g>
<g id="Bucket_Pour_5">
</g>
<g id="Spigot_Spray_1">
</g>
<g id="Spigot_Spray_2">
	<path fill="#8CD8ED" d="M20.5,10.4c-0.7,1.7-1.6,4.1-3.2,6c-1.6,1.9-2.9,3.3-2.4,4.3s0.9,1,1.4,0.6c0.5-0.4,0.8-1.2,0.8-1.2
		s0.2,4.1-1.2,6.8s-1.3,3.8-0.7,4.8c0.5,0.8,1.9,1.2,2.8,0c0.5-0.7-0.1-3.6,1-3.7c0.9,1.2,1.2,2.5-0.4,6.5c-0.7,1.7,1.2,1.8,1.9,1.4
		c0.6-0.4,0.5-1.8,0.5-2.5C21,31.8,22,30.7,22,30.7s-0.3,2.7,0.9,4.8c1,1.7,3.8,1.4,5-1.6c1.3-3.4,0.2-4.8,0.2-5s0.1-12.3,0.1-12.3
		l-1.8-9L26,3.1l-4.2-1.3C21.8,1.8,21.2,8.6,20.5,10.4z"/>
	<path fill="#8CD8ED" d="M26.5,3c0.1,0.2,0.9,4.6,1.8,6.2c1,1.6,1.7,2.7,1.4,3.8s-1,1.2-1,1.2s1.1,3.7,1.3,5.2
		c0.3,1.7-0.7,2.4-0.7,2.4s0.6,4.7,1.2,6.2c0.5,1.5,1.1,2.3-0.3,2.8c-1.4,0.5-2.6-0.3-2.4-1.3s0.7-2.4,0.6-3.9
		c-0.1-2.3-2.6-13.5-2.6-13.5l-2.2-4L26.5,3"/>
	<path fill="#C4F7FF" d="M30.4,29.7c-0.4,0.3-1,0.3-1-0.3c0.1-0.6,0.1-1.3,0.1-1.8c0-0.5-0.3-1.6-0.3-1.6S30.8,29.4,30.4,29.7z"/>
	<g>
		<path fill="#C4F7FF" d="M25.6,31.2c-0.7-3.6-0.8-13.8-0.7-15.9c0-2-0.1-7.2-0.1-8.8S25.1,3,25,3c-0.1,0-0.6,0.2-1,0.4l-0.6,0.2
			c-0.2,2-0.6,10.6-1.6,16.1c-1,5.1-1.3,6.9-0.2,7.1c0.6,0.1,1.1-0.5,1-1.1s-0.5-1.9-0.4-2.7c0.1-0.8,1-10,1.4-12.7
			c0.1-1,0.8,3.2,0.7,5.6c-0.2,3.9-1.1,13-0.9,15.3c0.3,2.4,1.3,2.5,1.7,2.3C25.4,33.4,25.9,32.5,25.6,31.2z"/>
		<path fill="#C4F7FF" d="M23.4,3.5c0-0.2,0-0.3,0-0.4L23.4,3.5z"/>
	</g>
	<path fill="#C4F7FF" d="M19.4,35.3c0.6,0.2,0.8-0.1,0.7-0.4s0-1.4,0.1-1.6c0.1-0.2,0.2-1.3,0.2-1.3S18.8,35.1,19.4,35.3z"/>
	<path fill="#C4F7FF" d="M27.4,20.6c0.3,0.4-0.3,1.2-0.6,0.7S26.9,19.9,27.4,20.6z"/>
	<path fill="#C4F7FF" d="M27.7,32c-0.1,0.5-0.4,1.7-0.8,1.3c-0.4-0.5,0.1-1.1,0.1-1.5C27.1,31.5,27.8,31.2,27.7,32z"/>
	<path fill="#C4F7FF" d="M15.4,30.3c0,0.6,0.8,1,1.1,0.4c0.3-0.5-0.4-1.1-0.4-1.3C16.1,29.1,15.4,29.4,15.4,30.3z"/>
	<path fill="#C4F7FF" d="M21.2,15.7c-0.1,0.6-1.2,0.3-1-0.2C20.4,15,21.4,14.8,21.2,15.7z"/>
	<path fill="#C4F7FF" d="M20.1,18.6c-0.4,0.3-0.5-0.6,0-0.7C20.6,17.9,20.7,18.2,20.1,18.6z"/>
	<path fill="#C4F7FF" d="M18.4,25c-0.5,0.4-1.1-0.7-0.5-1S18.9,24.6,18.4,25z"/>
	<path fill="#C4F7FF" d="M15.5,19.1c0,0-0.7,0.9-0.1,1.1c0.6,0.2,0.7-0.6,0.9-1.2s0.6-1.5,0.6-1.5S15.7,18.7,15.5,19.1z"/>
	<path fill="#C4F7FF" d="M26.2,3.3c0,0,0.2,3.4,1.1,5.1c0.9,1.6,2.2,3.5,1.7,4.2c-0.5,0.8-1.3,0.9-1.4,0.2c-0.1-0.7,0.2-1.3-0.1-2.1
		c-0.4-0.8-1.1-2.6-1.4-4s-0.5-3.4-0.5-3.4L26.2,3.3z"/>
</g>
<g id="Spigot_Spray_3a">
</g>
<g id="Layer_87">
</g>
<g id="Spigot_3b">
</g>
<g id="Spigot_Spray_4">
</g>
<g id="Spigot_Spray_5">
</g>
<g id="Barrel_FG">
</g>
<g id="Spigot_Handle_1">
</g>
<g id="Spigot_Handle_2">
</g>
<g id="Rote">
</g>
<g id="Hole_1_Stream_1">
</g>
<g id="Hole_1_Stream_2">
</g>
<g id="Hole_1_Stream_3">
</g>
<g id="Hole_1_Stream_3a">
</g>
<g id="Hole_1_Stream_3b">
</g>
<g id="Hole_2_Stream_1">
</g>
<g id="Hole_2_Stream_2">
</g>
<g id="Hole_2_Stream_3">
</g>
<g id="Hole_2_Stream_4">
</g>
<g id="Hole_2_Stream_5">
</g>
<g id="Hole_2_Stream_5a">
</g>
<g id="Hole_2_Stream_5b">
</g>
<g id="Hole_3_Stream_1_1_">
</g>
<g id="Hole_3_Stream_2_1_">
</g>
<g id="Hole_3_Stream_3_1_">
</g>
<g id="Hole_3_Stream_4_1_">
</g>
<g id="Hole_3_Stream_5">
</g>
<g id="Hole_3_Stream_5a">
</g>
<g id="Hole_3_Stream_5b">
</g>
<g id="Droplets_1">
</g>
<g id="Droplets_2">
</g>
<g id="Droplets_3">
</g>
<g id="Band_Aids">
</g>
<g id="Rote_Screen_FG">
</g>
<g id="Labels">
</g>
</svg>
