<svg xmlns="http://www.w3.org/2000/svg" viewBox="0 0 103.91 103.91" width="103.91" height="103.91" preserveAspectRatio="none"><defs><style>.cls-1{fill:#0659A6;}.cls-2{fill:#fff;}</style></defs><g id="Layer_2" data-name="Layer 2"><rect class="cls-1" width="103.91" height="103.91" rx="7.99" /><polygon class="cls-2" points="45.3 16.67 47.32 69.77 15.97 69.77 45.3 16.67" /><polygon class="cls-2" points="32.66 94.04 31.64 75.83 48.34 82.41 39.99 84.94 32.66 94.04" /><polygon class="cls-2" points="75.13 94.04 76.14 75.83 59.45 82.41 67.8 84.94 75.13 94.04" /><path class="cls-2" d="M39.23,81.4s12.64,21.74,28.57.5l3.29,3s-19.22,25.28-34.89,0Z" /><polygon class="cls-1" points="41.26 33.36 43.78 65.22 24.14 63.53 41.26 33.36" /><polygon class="cls-2" points="60.47 16.67 58.45 69.77 89.8 69.77 60.47 16.67" /><polygon class="cls-1" points="64.52 33.36 61.99 65.22 81.63 63.53 64.52 33.36" /><polygon class="cls-2" points="49.85 8.07 50.36 25.77 54.91 26.9 56.42 7.57 49.85 8.07" /><polygon class="cls-2" points="56.42 53.98 55.92 36.28 51.37 35.15 49.85 54.48 56.42 53.98" /><polygon class="cls-2" points="56.22 60.99 55.92 79.91 51.37 81.03 49.85 61.7 56.22 60.99" /></g></svg>