<svg xmlns="http://www.w3.org/2000/svg" viewBox="0 0 40 40" width="40" height="40" preserveAspectRatio="none"><defs><style>.cls-1{fill:#231f20;}</style></defs><title>HeaderPirate C</title><g id="Layer_1" data-name="Layer 1"><path class="cls-1" d="M31.74,28.51A3.92,3.92,0,0,0,28.58,27a7.57,7.57,0,0,0-1.55.34,7.77,7.77,0,0,1-1.55.34,4.69,4.69,0,0,1-2.57-.27L19.78,25l-.19-.7a9.13,9.13,0,0,1-2.21-4l-1.29-4.46L16.56,14l-.38-.19q.24-.86,1.62-.95a5.2,5.2,0,0,1,2.31.78L22.2,15a2.75,2.75,0,0,0,2.11.55q.22,0,.62-.54a1.4,1.4,0,0,0,.39-.8l-.05-.92a3,3,0,0,0-.06-.92,1.26,1.26,0,0,0-.41-.68A16.61,16.61,0,0,0,13.88,8.32,10.78,10.78,0,0,0,10.13,9l0,.85-.53.81a24.84,24.84,0,0,1,.68,4,14.92,14.92,0,0,0,.9,4l-.11.57a63.78,63.78,0,0,0,2.37,6.51,14.14,14.14,0,0,1,1.18,1.42,37.43,37.43,0,0,0,8.68,3.72q5.95,1.83,9.29,1.63l.79-.12,0-.57a5.52,5.52,0,0,0-1.59-3.34"/></g></svg>