<?xml version="1.0" encoding="utf-8"?>
<!-- Generator: Adobe Illustrator 20.1.0, SVG Export Plug-In . SVG Version: 6.00 Build 0)  -->
<!DOCTYPE svg PUBLIC "-//W3C//DTD SVG 1.1//EN" "http://www.w3.org/Graphics/SVG/1.1/DTD/svg11.dtd">
<svg version="1.1" xmlns="http://www.w3.org/2000/svg" xmlns:xlink="http://www.w3.org/1999/xlink" x="0px" y="0px"
	 viewBox="0 0 40 40" enable-background="new 0 0 40 40" xml:space="preserve" width="40" height="40" preserveAspectRatio="none">
<g id="BG" display="none">
</g>
<g id="warren">
</g>
<g id="Kraken_Tusks">
</g>
<g id="Kraken_x27_s_Snout">
</g>
<g id="Layer_1">
</g>
<g id="Header_Buttons">
	<path fill="#0057A7" d="M28.1,15.4c-5.4-1.7-6.9-1.3-7-1.2c0.1,0,1.7-0.5,3.3-0.7c1.6-0.2,3.8,0.3,3.8,0.3s-7.6-5-13.9-1.6
		c-1.3,0.7-2.4,1.5-3.1,2.2c-1.5-0.2-3.6,0-5.8,1.9c-3.8,3.4-1.8,7.5-1.8,7.5l5.6-2.8c0.5,1.1,1.4,2.6,3.5,4.1
		c3.1,2.3,6.4,1.1,6.4,1.1s-2-1.2-2.8-3.4c-0.8-2.1-0.6-3.5-0.6-3.5s3.4,4.8,10.4,5.4s9.8-5.5,9.8-5.5S33.9,17.2,28.1,15.4z
		 M14.4,23.9c-0.1-0.1-0.3-0.2-0.4-0.3c-0.2-0.1-0.3-0.2-0.5-0.4c-0.3-0.3-0.7-0.7-1-1.2c-0.1-0.1-0.2-0.3-0.2-0.4
		c-0.1-0.1-0.1-0.3-0.2-0.4c-0.1-0.3-0.2-0.6-0.3-0.9l-0.1-0.4c0-0.1,0-0.1,0-0.2l0,0c0-0.1,0-0.2-0.1-0.3c0-0.2-0.1-0.3-0.1-0.5
		c0-0.2,0-0.3,0-0.4c0-0.3,0-0.6,0.1-0.9c0-0.3,0.1-0.5,0.2-0.7c0.1-0.2,0.2-0.4,0.3-0.6c0.1-0.2,0.2-0.3,0.3-0.4
		c0.2-0.2,0.4-0.2,0.4-0.2s-0.1,0.1-0.3,0.3c-0.1,0.1-0.2,0.2-0.3,0.4c-0.1,0.2-0.2,0.3-0.2,0.6c-0.1,0.4-0.2,0.9-0.1,1.5
		c0,0.1,0,0.3,0,0.4c0,0.1,0,0.3,0.1,0.4c0,0.1,0.1,0.3,0.1,0.4l0.1,0.4c0.1,0.3,0.2,0.6,0.3,0.8c0.1,0.3,0.2,0.5,0.4,0.8
		c0.1,0.2,0.3,0.5,0.4,0.7c0.2,0.2,0.3,0.4,0.5,0.6C14,23.5,14.3,23.7,14.4,23.9c0.3,0.1,0.4,0.2,0.4,0.2S14.7,24.1,14.4,23.9z
		 M30.2,20.4c-0.3,0.2-0.7,0.4-1.1,0.5c-0.2,0.1-0.4,0.1-0.6,0.2c-0.2,0-0.4,0.1-0.6,0.1c-0.4,0.1-0.8,0.1-1.2,0.1
		c-0.4,0-0.8,0-1.2,0l-0.6,0l-0.3,0l-0.3,0c-0.4-0.1-0.8-0.1-1.2-0.2c-0.4-0.1-0.8-0.2-1.2-0.3c-0.4-0.1-0.8-0.3-1.1-0.4l-0.6-0.2
		l-0.5-0.3c-0.4-0.2-0.7-0.4-1-0.6c-0.3-0.2-0.7-0.5-1-0.7c-0.3-0.3-0.6-0.5-0.9-0.8c-0.3-0.3-0.6-0.6-0.9-0.8
		c-0.3-0.3-0.6-0.6-0.8-0.9c-0.3-0.3-0.5-0.6-0.8-1l-0.7-1.1l1.2,0.6c0.7,0.4,1.5,0.7,2.3,1c0.4,0.1,0.8,0.3,1.2,0.4
		c0.4,0.1,0.8,0.2,1.2,0.3c0.2,0,0.4,0.1,0.6,0.1c0.2,0,0.4,0.1,0.6,0.1c0.2,0,0.4,0,0.6,0c0.2,0,0.4,0,0.6,0c0.4,0,0.8-0.1,1.2-0.2
		c0.4-0.1,0.8-0.2,1.2-0.3c-0.8,0.4-1.6,0.6-2.4,0.7c-0.4,0.1-0.8,0.1-1.3,0.1c-0.2,0-0.4,0-0.6,0c-0.2,0-0.4,0-0.6-0.1
		c-0.8-0.1-1.7-0.4-2.5-0.6c-0.4-0.1-0.7-0.2-1.1-0.4c0.2,0.2,0.4,0.5,0.6,0.7c0.3,0.3,0.6,0.5,0.9,0.8c0.3,0.3,0.6,0.5,0.9,0.7
		c0.3,0.2,0.6,0.5,0.9,0.7c0.3,0.2,0.6,0.4,1,0.6l0.5,0.3l0.5,0.3c0.3,0.2,0.7,0.3,1.1,0.4c0.4,0.2,0.7,0.2,1.1,0.3
		c0.4,0.1,0.8,0.2,1.2,0.3l0.3,0.1l0.3,0l0.6,0.1c0.4,0.1,0.8,0.1,1.2,0.1c0.4,0,0.8,0,1.2,0c0.2,0,0.4,0,0.6,0c0.2,0,0.4,0,0.6-0.1
		c0.4-0.1,0.7-0.2,1.1-0.4c0.3-0.2,0.6-0.5,0.6-0.9C30.8,19.8,30.5,20.1,30.2,20.4z"/>
</g>
</svg>
