<?xml version="1.0" encoding="utf-8"?>
<!-- Generator: Adobe Illustrator 20.1.0, SVG Export Plug-In . SVG Version: 6.00 Build 0)  -->
<!DOCTYPE svg PUBLIC "-//W3C//DTD SVG 1.1//EN" "http://www.w3.org/Graphics/SVG/1.1/DTD/svg11.dtd">
<svg version="1.1" xmlns="http://www.w3.org/2000/svg" xmlns:xlink="http://www.w3.org/1999/xlink" x="0px" y="0px"
	 viewBox="0 0 40 40" enable-background="new 0 0 40 40" xml:space="preserve" width="40" height="40" preserveAspectRatio="none">
<g id="BG" display="none">
</g>
<g id="warren">
</g>
<g id="Kraken_Tusks">
</g>
<g id="Kraken_x27_s_Snout">
</g>
<g id="Layer_1">
</g>
<g id="Header_Buttons">
	<path fill="#0057A7" d="M19.1,14.7c-8.1,0-11.5,1-11.5,1l1.1,5.5c1.3,3,3.9,6.2,9.1,6.6c10.4,0.9,14.5-12,14.5-12
		S27.3,14.7,19.1,14.7z M14.1,23.7c-1,0.1-2-1.1-2.2-2.7c-0.2-1.6,0.5-3,1.5-3.1s2,1.1,2.2,2.7C15.8,22.1,15.1,23.5,14.1,23.7z
		 M25.1,21.1c-0.4,1.6-1.4,2.7-2.4,2.4c-1-0.2-1.5-1.7-1.2-3.2c0.4-1.6,1.4-2.7,2.4-2.4C25,18.1,25.5,19.5,25.1,21.1z"/>
</g>
</svg>
