<?xml version="1.0" encoding="utf-8"?>
<!-- Generator: Adobe Illustrator 20.1.0, SVG Export Plug-In . SVG Version: 6.00 Build 0)  -->
<!DOCTYPE svg PUBLIC "-//W3C//DTD SVG 1.1//EN" "http://www.w3.org/Graphics/SVG/1.1/DTD/svg11.dtd">
<svg version="1.1" xmlns="http://www.w3.org/2000/svg" xmlns:xlink="http://www.w3.org/1999/xlink" x="0px" y="0px"
	 viewBox="0 0 40 40" enable-background="new 0 0 40 40" xml:space="preserve" width="40" height="40" preserveAspectRatio="none">
<g id="BG" display="none">
</g>
<g id="warren">
</g>
<g id="Kraken_Tusks">
</g>
<g id="Kraken_x27_s_Snout">
</g>
<g id="Layer_1">
</g>
<g id="Header_Buttons">
	<g>
		<path fill="#0057A7" d="M27.1,6.3C27.1,6.3,27.1,6.3,27.1,6.3c-0.2-0.4-0.6-0.6-0.9-0.5c-0.3,0.1-0.5,0.3-0.5,0.5
			c-5.5,0.5-10.1,5.5-11.8,7.6c-6.7-0.8-11.2,0.5-11.2,0.5s2.9,4.4,9.9,4.5c6.2,0.1,9.9-2.1,10.6-2.7c0.1,0,0.2,0,0.3,0
			c0,0,0.1,0,0.1,0c0.8,0.1,1.6,0.1,2.4,0.2l0,0c3.8,0.3,7.8,0.7,7.8,0.7S34.9,6.9,27.1,6.3z"/>
		<path fill="#0057A7" d="M37.8,33c0,0-0.1-4.4-1.5-5.5c-1.4-1.1-8.9-1.2-9.5-1.3c-0.2-2.9-2.4-5.1-5.1-5.1c-2.3,0-4.3,1.7-4.9,4.1
			c-0.6-2.3-2.6-4.1-4.9-4.1c-2.8,0-5.1,2.5-5.1,5.6c0,3.1,2.3,5.6,5.1,5.6c2.3,0,4.3-1.7,4.9-4.1c0.6,2.3,2.6,4.1,4.9,4.1
			c2.4,0,4.4-1.8,4.9-4.2c2-0.2,7.6-0.7,8.8,0.3c1.5,1.2,0.6,4.4,0.6,4.4L37.8,33z M12,31.1c-2.2,0-4.1-2-4.1-4.5s1.8-4.5,4.1-4.5
			c2.2,0,4.1,2,4.1,4.5S14.3,31.1,12,31.1z M21.8,31.1c-2.2,0-4.1-2-4.1-4.5s1.8-4.5,4.1-4.5c2.2,0,4.1,2,4.1,4.5
			S24.1,31.1,21.8,31.1z"/>
	</g>
</g>
</svg>
