<?xml version="1.0" encoding="utf-8"?>
<!-- Generator: Adobe Illustrator 19.2.0, SVG Export Plug-In . SVG Version: 6.00 Build 0)  -->
<!DOCTYPE svg PUBLIC "-//W3C//DTD SVG 1.1//EN" "http://www.w3.org/Graphics/SVG/1.1/DTD/svg11.dtd">
<svg version="1.1" xmlns="http://www.w3.org/2000/svg" xmlns:xlink="http://www.w3.org/1999/xlink" x="0px" y="0px"
	 viewBox="0 0 30 40" enable-background="new 0 0 30 40" xml:space="preserve" width="30" height="40" preserveAspectRatio="none">
<g id="Header_Buttons">
	<path fill="#FFCE41" d="M23.8,19.6c0,0,5-4,2.7-8.4c-2.3-4.3-4.4-4.6-8.2-4.9c-0.6,0-1.3,0-2.1,0l-0.3-4.5h-3.8l0.3,4.8
		c-0.8,0.1-1.5,0.2-2.3,0.3L10,2.3L6.6,2.9l0.1,4.5C4.3,7.8,2.6,8.1,2.6,8.1l0.2,4.7c0,0,1.6-0.2,3.9-0.5l0.1,6.3
		c-1.9,0-3.2,0-3.2,0l0.2,4c0,0,1.3-0.1,3.1-0.1l0.1,5.6l-4.1,0l0.5,5.6c0,0,1.5,0,3.6-0.1l0.1,4.5l3.5,0.4l-0.1-5
		c1.2,0,2.4-0.1,3.5-0.2l0.4,5.3l3.4-0.7l-0.3-4.9c1.1-0.1,2-0.2,2.7-0.4C24.4,31.7,31.8,24.2,23.8,19.6z M10.2,12
		c0.8-0.1,1.7-0.1,2.5-0.2l0.5,6.7c-0.9,0-1.9,0.1-2.9,0.1L10.2,12z M10.6,28.2l-0.1-5.8c1,0,2-0.1,3-0.1l0.4,5.9L10.6,28.2z
		 M20.5,26.5c-0.8,1.2-2.1,1.6-3,1.7l-0.4-6c0.9,0,1.6,0,1.7,0C19.9,22.6,22.2,23.8,20.5,26.5z M18.2,18.1c-0.3,0.1-0.8,0.1-1.3,0.2
		l-0.4-6.5c2.2,0.1,4,0.4,4.6,1.1C23.2,15.4,21.2,17.5,18.2,18.1z"/>
</g>
</svg>
