<svg xmlns="http://www.w3.org/2000/svg" viewBox="0 0 40 40" width="40" height="40" preserveAspectRatio="none"><defs><style>.cls-1{fill:#ffce41;}</style></defs><g id="Layer_1" data-name="Layer 1"><path class="cls-1" d="M39.11,22.48H35.62L35.41,4.13H30.89l-.08,3.69a12.28,12.28,0,0,1-3.16,2.92A13.51,13.51,0,0,1,10.46,8.21l-.12-4.28h-5V22.48H1.05l.42,5.93,3.83-.09v8.77l5.92-.37L11,28.19l19.34-.45-.2,8.2,5.66.57-.1-8.9,3.42-.08Zm-19.67,0H16.7l-.21-7.26a16.22,16.22,0,0,0,3,.49Zm2.17-6.77a15.68,15.68,0,0,0,3.88-.7v7.47H21.81Zm-11-3.46a14.77,14.77,0,0,0,3.74,2.25v8H10.84ZM27.84,22.48l-.24-8.29.32-.14a14.58,14.58,0,0,0,2.78-1.84l-.24,10.27Z" /></g></svg>