<svg xmlns="http://www.w3.org/2000/svg" viewBox="0 0 51.36 51.26" width="51.36" height="51.26" preserveAspectRatio="none"><defs><style>.cls-1{fill:#ffd943;}</style></defs><title>demo_NEXT_button</title><g id="Layer_2" data-name="Layer 2"><g id="info"><path class="cls-1" d="M26.11,0l-.69,18.7L0,17.79,2.42,38.92l22.66-2.53,2.77,14.87L51.36,25.43ZM14,33.62H11.14L6.89,26.16v7.46H4v-12H6.89l4.24,7.46V21.63H14Zm10.1-9.76H18.73v2.53h4.55v2.15H18.73V31.4h5.38v2.22H15.84v-12h8.28Zm7.65,9.76-2-4.06-2,4.06H24.41l3.43-6L24.5,21.63h3.3l2,4,2-4H35l-3.35,5.95,3.44,6Zm10.09-9.76v9.76H39V23.86H35.44V21.63h10v2.23Z"/></g></g></svg>