<?xml version="1.0" encoding="utf-8"?>
<!-- Generator: Adobe Illustrator 19.2.0, SVG Export Plug-In . SVG Version: 6.00 Build 0)  -->
<!DOCTYPE svg PUBLIC "-//W3C//DTD SVG 1.1//EN" "http://www.w3.org/Graphics/SVG/1.1/DTD/svg11.dtd">
<svg version="1.1" xmlns="http://www.w3.org/2000/svg" xmlns:xlink="http://www.w3.org/1999/xlink" x="0px" y="0px"
	 viewBox="0 0 150 164" enable-background="new 0 0 150 164" xml:space="preserve" width="150" height="164" preserveAspectRatio="none">
<g id="Locks">
	<path fill="#999" d="M94.1,55.9l-10.5,4.2l-9.2-32.8c0,0-43.7-25.5-53.4,15.8L33,80.5l-12.5,5l20,72.4l93-34.3
		L94.1,55.9z M40.4,55.7c0,0,1.8-19.2,23.6-12.4l9.8,20.8L45.9,75.3L40.4,55.7z M73.5,130.2l-6.2-21.3c-4.2-0.8-7.7-4-8.6-8.4
		c-1.1-5.7,2.8-11.3,8.6-12.4c5.8-1.1,11.4,2.7,12.5,8.4c0.5,2.5,0,4.9-1.2,7l12.8,16.9L73.5,130.2z"/>
</g>
</svg>
