<svg id="Layer_1" data-name="Layer 1" xmlns="http://www.w3.org/2000/svg" viewBox="0 0 40 40" width="40" height="40" preserveAspectRatio="none"><defs><style>.cls-1{fill:#fff;stroke-width:0.46px;}.cls-1,.cls-3,.cls-4,.cls-5{stroke:#b7873e;stroke-miterlimit:10;}.cls-2{fill:#ffc540;}.cls-3{fill:#fcf4a4;}.cls-3,.cls-5{stroke-width:0.61px;}.cls-4,.cls-5{fill:none;}.cls-4{stroke-width:1.22px;}.cls-6{fill:#013c24;}.cls-7{fill:#49b649;}.cls-8{fill:#8a5d3b;}.cls-9{fill:#c4a15e;}</style></defs><ellipse class="cls-1" cx="20" cy="20" rx="19.34" ry="18.47" /><ellipse class="cls-2" cx="20" cy="20" rx="19.34" ry="18.47" /><ellipse class="cls-3" cx="20" cy="19.84" rx="15.12" ry="14.44" /><ellipse class="cls-4" cx="20" cy="20" rx="19.34" ry="18.47" /><ellipse class="cls-5" cx="20" cy="19.84" rx="15.12" ry="14.44" /><path class="cls-6" d="M18.61,20s2.32-3.09,2.78-3.09L25,22.53S29,16.25,33,10l3.39,4.69a106.27,106.27,0,0,0-10.53,12Z" /><path class="cls-7" d="M18.73,18.62s2.32-3.09,2.78-3.09l3.6,5.66s4-6.28,8-12.51l3.38,4.68A105.1,105.1,0,0,0,26,25.39Z" /><polygon class="cls-8" points="17.4 26.48 18.41 22.35 21.54 26.19 24.71 25.87 22.53 29.4 23.65 33.24 19.16 31.32 15.62 33.01 16.06 29.77 12.56 26.52 17.4 26.48" /><polygon class="cls-8" points="15.97 10.75 16.25 6.61 19.83 9.53 23.09 9.35 21.68 12.82 22.94 15.99 18.95 14.96 15.52 17.11 16.05 14.32 11.66 11.53 15.97 10.75" /><polygon class="cls-8" points="10.7 18.03 12.14 13.94 14.41 18.08 17.69 17.82 15.15 21.61 15.93 25.15 11.91 22.84 8.06 24.19 8.61 20.68 5.75 17.27 10.7 18.03" /><polygon class="cls-2" points="16.7 25.82 18.41 22.35 20.77 25.96 24.71 25.87 21.79 29.21 22.95 32.57 18.84 30.73 15.62 33.01 16.16 29.07 12.56 26.52 16.7 25.82" /><polygon class="cls-2" points="15.23 10.17 16.25 6.61 19.21 9.57 23.09 9.35 20.94 12.24 22.46 15.48 18.22 14.38 15.52 17.11 15.62 13.27 11.66 11.53 15.23 10.17" /><polygon class="cls-2" points="10.04 17.34 12.14 13.94 13.51 17.57 17.69 17.82 14.49 20.93 15.27 24.47 11.77 22.22 8.06 24.19 8.7 20.09 5.75 17.27 10.04 17.34" /><polygon class="cls-9" points="12.56 26.52 16.41 25.39 18.41 22.35 16.7 25.82 12.56 26.52" /><polygon class="cls-9" points="5.75 17.27 9.79 16.86 12.14 13.94 10.04 17.34 5.75 17.27" /><polygon class="cls-9" points="11.66 11.53 14.81 9.98 16.25 6.61 15.23 10.17 11.66 11.53" /></svg>