<svg id="Layer_1" data-name="Layer 1" xmlns="http://www.w3.org/2000/svg" viewBox="0 0 40 40" width="40" height="40" preserveAspectRatio="none"><defs><style>.cls-1{fill:#ffc540;}.cls-2{fill:#808183;}.cls-3,.cls-6{fill:none;}.cls-3{stroke:#b7873e;}.cls-3,.cls-4,.cls-6{stroke-miterlimit:10;}.cls-3,.cls-4{stroke-width:0.61px;}.cls-4{fill:#00489c;}.cls-4,.cls-6{stroke:#00489c;}.cls-5{fill:#fff;}.cls-6{stroke-width:1.22px;}</style></defs><path class="cls-1" d="M20.56,1.38l-.65,4.77s9.4.08,13.36,8.87C37.3,24,28.08,34,19.46,34l-.11,4.82s18.13,0,20.07-18.28C39.42,20.5,39.17,2.62,20.56,1.38Z" /><ellipse class="cls-2" cx="20" cy="19.84" rx="15.12" ry="14.44" /><ellipse class="cls-3" cx="20" cy="19.84" rx="15.12" ry="14.44" /><ellipse class="cls-4" cx="20" cy="19.84" rx="15.12" ry="14.44" /><path class="cls-5" d="M30.16,12.81s-5-3.36-9.95-.07c0,0-1.41-2.45-9.84-1.34a97.41,97.41,0,0,1-.52,16.19S18.41,26,20.21,29.13c0,0,3.92-4.08,10.29-.8A149.36,149.36,0,0,0,30.16,12.81ZM12.53,18.06a9.72,9.72,0,0,1,6.13.85v1.34a15.71,15.71,0,0,0-6.1-.71Zm6.19-3.56,0,1.45a14.3,14.3,0,0,0-6.18-.38l0-1.89A15.25,15.25,0,0,1,18.72,14.5ZM12.33,24.86l.2-2.23a14.59,14.59,0,0,1,6.07.71l0,1.72C16.18,24.11,13.44,24.68,12.33,24.86ZM22,18.81a13.83,13.83,0,0,1,6.58,0l-.05,1.5A22.79,22.79,0,0,0,22,20.15Zm6.68-4.49-.06,1.46a17.5,17.5,0,0,0-6.74-.1l-.05-1.43C24,13.14,26,13.83,28.67,14.32ZM22.21,24.86l-.05-1.36A16.72,16.72,0,0,1,28.42,23l-.06,1.79A15.89,15.89,0,0,0,22.21,24.86Z" /><ellipse class="cls-6" cx="20" cy="20" rx="19.34" ry="18.47" /></svg>