<svg xmlns="http://www.w3.org/2000/svg" viewBox="0 0 40 40" width="40" height="40" preserveAspectRatio="none"><defs><style>.cls-1{fill:#4191ce;}.cls-2{fill:#0659ab;}.cls-3{fill:#fff;}</style></defs><g id="Assets"><circle class="cls-1" cx="20" cy="20" r="19" /><circle class="cls-2" cx="20" cy="20" r="16.5" /><path class="cls-3" d="M14.3,17.49H11.24V16.08l-.35-.36H9.26l-.36.36v5.41l.36.35h1.63l.35-.35V20.15H14.3v2.43l-1.78,1.78H7.61L5.83,22.58V15l1.78-1.79h4.91L14.3,15Z" /><path class="cls-3" d="M21,21.84V20H18.86v1.85h.67v2.52H15.12V21.84h.67V15.72h-.67V13.21h4.41v2.51h-.67v1.53H21V15.72h-.67V13.21h4.4v2.51H24.1v6.12h.67v2.52h-4.4V21.84Z" /><path class="cls-3" d="M29.17,22.17a.88.88,0,0,0-.71.86.8.8,0,0,0,.82.82.74.74,0,0,0,.8-.73C30.08,22.62,29.69,22.31,29.17,22.17Z" /><path class="cls-3" d="M29.37,21.16a.78.78,0,0,0,.59-.73.66.66,0,0,0-.7-.72.64.64,0,0,0-.7.67C28.56,20.77,28.91,21,29.37,21.16Z" /><path class="cls-3" d="M32.72,18.15l-2.95-1.37-3.93.44L24.7,18.31v2.92h.83v3.71H24.37l.07.23,1.21.95,3.72.67,3.19-1,1.61-3.65Zm-3.49,6.63c-1.47,0-2.15-.83-2.15-1.61a1.54,1.54,0,0,1,1-1.46h0a1.43,1.43,0,0,1-.84-1.28c0-1,.88-1.63,2-1.63,1.36,0,1.92.78,1.92,1.49a1.4,1.4,0,0,1-.85,1.27v0A1.54,1.54,0,0,1,31.46,23C31.46,24.07,30.58,24.78,29.23,24.78Z" /></g></svg>