<svg xmlns="http://www.w3.org/2000/svg" viewBox="0 0 40 40" width="40" height="40" preserveAspectRatio="none"><defs><style>.cls-1{fill:#4191ce;}.cls-2{fill:#0659ab;}.cls-3{fill:#fff;}</style></defs><g id="Assets"><circle class="cls-1" cx="20" cy="20" r="19" /><circle class="cls-2" cx="20" cy="20" r="16.5" /><path class="cls-3" d="M14.3,17.49H11.24V16.08l-.35-.36H9.26l-.36.36v5.41l.36.35h1.63l.35-.35V20.15H14.3v2.43l-1.78,1.78H7.61L5.83,22.58V15l1.78-1.79h4.91L14.3,15Z" /><path class="cls-3" d="M21,21.84V20H18.86v1.85h.67v2.52H15.12V21.84h.67V15.72h-.67V13.21h4.41v2.51h-.67v1.53H21V15.72h-.67V13.21h4.4v2.51H24.1v6.12h.67v2.52h-4.4V21.84Z" /><path class="cls-3" d="M32.72,18.15l-2.95-1.37-3.93.44L24.7,18.31v2.92h.83v3.71H24.37l.07.23,1.21.95,3.72.67,3.19-1,1.61-3.65ZM28,24.22h-1.2V20h0l-1,.49-.21-.94L27,18.91h1Zm4.32.05H28.58v-.76l.68-.61c1.17-1,1.73-1.64,1.74-2.26,0-.43-.25-.78-.87-.78A1.92,1.92,0,0,0,29,20.3l-.35-.89a2.92,2.92,0,0,1,1.73-.54,1.64,1.64,0,0,1,1.86,1.65,3.3,3.3,0,0,1-1.41,2.3l-.49.41v0h2Z" /></g></svg>