<svg xmlns="http://www.w3.org/2000/svg" viewBox="0 0 40 40" width="40" height="40" preserveAspectRatio="none"><defs><style>.cls-1{fill:#4191ce;}.cls-2{fill:#0659ab;}.cls-3{fill:#fff;}</style></defs><g id="Assets"><circle class="cls-1" cx="20" cy="20" r="19" /><circle class="cls-2" cx="20" cy="20" r="16.5" /><path class="cls-3" d="M14.3,17.49H11.24V16.08l-.35-.36H9.26l-.36.36v5.41l.36.35h1.63l.35-.35V20.15H14.3v2.43l-1.78,1.78H7.61L5.83,22.58V15l1.78-1.79h4.91L14.3,15Z" /><path class="cls-3" d="M21,21.84V20H18.86v1.85h.67v2.52H15.12V21.84h.67V15.72h-.67V13.21h4.41v2.51h-.67v1.53H21V15.72h-.67V13.21h4.4v2.51H24.1v6.12h.67v2.52h-4.4V21.84Z" /><path class="cls-3" d="M32.72,18.15l-2.95-1.37-3.93.44L24.7,18.31v2.92h.83v3.71H24.37l.07.23,1.21.95,3.72.67,3.19-1,1.61-3.65Zm-3.85,6.63a3.68,3.68,0,0,1-1.62-.33l.25-1a3.37,3.37,0,0,0,1.31.28c.56,0,1.16-.27,1.16-.88s-.48-1-1.64-1a4.32,4.32,0,0,0-.77.05l.37-3h3.19V20H28.88l-.13.89h.38a2.58,2.58,0,0,1,1.52.42,1.63,1.63,0,0,1,.71,1.45A2.21,2.21,0,0,1,28.87,24.78Z" /></g></svg>