<svg xmlns="http://www.w3.org/2000/svg" viewBox="0 0 40 40" width="40" height="40" preserveAspectRatio="none"><defs><style>.cls-1{fill:#4191ce;}.cls-2{fill:#0659ab;}.cls-3{fill:#fff;}</style></defs><g id="Assets"><circle class="cls-1" cx="20" cy="20" r="19" /><circle class="cls-2" cx="20" cy="20" r="16.5" /><path class="cls-3" d="M29.36,13.12S24.67,10,20,13.05c0,0-1.32-2.3-9.26-1.26A91.55,91.55,0,0,1,10.25,27s8.06-1.51,9.75,1.46c0,0,3.69-3.84,9.69-.76A139.65,139.65,0,0,0,29.36,13.12ZM12.78,18.06a9.14,9.14,0,0,1,5.77.8l0,1.26a14.84,14.84,0,0,0-5.74-.67Zm5.82-3.35v1.36a13.38,13.38,0,0,0-5.83-.35V13.94A14.4,14.4,0,0,1,18.6,14.71Zm-6,9.75.2-2.1a13.78,13.78,0,0,1,5.71.67l0,1.62A11.16,11.16,0,0,0,12.58,24.46Zm9.1-5.7a13.17,13.17,0,0,1,6.19,0l-.05,1.42a21.27,21.27,0,0,0-6.1-.11ZM28,14.54l-.05,1.37a16.49,16.49,0,0,0-6.34-.09l-.05-1.35C23.58,13.43,25.43,14.07,28,14.54Zm-6.08,9.92-.05-1.28a16,16,0,0,1,5.9-.45l-.06,1.69A14.86,14.86,0,0,0,21.88,24.46Z" /></g></svg>