<?xml version="1.0" encoding="UTF-8" standalone="no"?>
<svg
   xmlns:svg="http://www.w3.org/2000/svg"
   xmlns="http://www.w3.org/2000/svg"
   preserveAspectRatio="none"
   height="164"
   width="150"
   xml:space="preserve"
   enable-background="new 0 0 150 164"
   viewBox="0 0 150 164"
   y="0px"
   x="0px"
   version="1.1">
<g
   transform="matrix(-1,0,0,1,154,0)"
   id="Locks">
   <path
   id="path57"
   d="M 94.1,55.9 83.6,60.1 74.4,27.3 c 0,0 -43.7,-25.5 -53.4,15.8 l 12,37.4 -12.5,5 20,72.4 93,-34.3 z M 40.4,55.7 c 0,0 1.8,-19.2 23.6,-12.4 l 9.8,20.8 -27.9,11.2 z m 33.1,74.5 -6.2,-21.3 c -4.2,-0.8 -7.7,-4 -8.6,-8.4 -1.1,-5.7 2.8,-11.3 8.6,-12.4 5.8,-1.1 11.4,2.7 12.5,8.4 0.5,2.5 0,4.9 -1.2,7 l 12.8,16.9 z"
   fill="#AAA"/>
</g>
</svg>
