<svg xmlns="http://www.w3.org/2000/svg" viewBox="0 0 40 40" width="40" height="40" preserveAspectRatio="none"><defs><style>.cls-1{fill:#0659A6;}</style></defs><g id="Miscellaneous_Artwork" data-name="Miscellaneous Artwork"><polygon class="cls-1" points="12.4 25.75 13.58 25.75 15.51 29.76 20.28 27.2 25.04 29.07 27.53 25.75 32.09 36.32 26.63 34.8 23.94 38.67 20.34 30.38 17.51 36.46 14.2 33 9.09 35.01 12.4 25.75" /><path class="cls-1" d="M32,14.43,33.74,10,30.36,8.28l-.55-4H25L22.14,1.1,18.48,2.89,14.2,1.44,12.75,5l-4.42.76L9.57,9,5.64,10.77l3.24,3.38L5.64,18.5l4.55,1.17L9.92,24H14l1.8,3.24L20,25.06l4.77,2.14,2.41-3.8,3.66.83V19.81l3.52-1.59ZM20,21.26a7.11,7.11,0,1,1,7.11-7.11A7.11,7.11,0,0,1,20,21.26Z" /><polygon class="cls-1" points="15.93 10.83 17.58 12.29 19.45 10.83 20 17.95 17.65 17.95 17.96 19.74 23.18 19.74 23.73 17.6 21.52 17.6 21.86 8.49 19.45 8.49 15.93 10.83" /></g></svg>