<?xml version="1.0" encoding="utf-8"?>
<!-- Generator: Adobe Illustrator 21.1.0, SVG Export Plug-In . SVG Version: 6.00 Build 0)  -->
<svg version="1.1" xmlns="http://www.w3.org/2000/svg" xmlns:xlink="http://www.w3.org/1999/xlink" x="0px" y="0px"
	 viewBox="0 0 50 50" style="enable-background:new 0 0 50 50;" xml:space="preserve" width="50" height="50" preserveAspectRatio="none">
<g id="Header_Buttons">
	<polygon fill="#ED1940" points="16.4,19.6 10.9,25.3 11.2,34 16.2,39 23.7,41.1 24.7,17.5 	"/>
	<path fill="#ED1940" d="M34.5,19.6l5.4,9.8l-5.4,9.9c0,0-7.2,2.4-7.4,2.4L26,17.4L34.5,19.6z"/>
	<polygon fill="#ED1940" points="32.7,17 28.2,11 21.8,11 18,17.1 25.7,15.2 	"/>
	<polygon fill="#ED1940" points="26.1,10 27.1,10 31.9,4.7 29.5,4.7 	"/>
	<polygon fill="#ED1940" points="23.7,10 22.8,10 19.2,4.7 21.8,4.7 	"/>
	<path fill="#ED1940" d="M12.5,20.8l-1.3,1.3c0,0-6.4-3.8-6.4-3.9s3-1.7,3-1.7L12.5,20.8z"/>
	<polygon fill="#ED1940" points="9.2,29.3 9.3,30.8 4.2,32.2 3.3,28.9 	"/>
	<polygon fill="#ED1940" points="14.5,39.9 15.2,40.6 15.8,40.7 13.7,45.3 10.6,43.5 	"/>
	<polygon fill="#ED1940" points="37.5,20.9 38.4,22.4 44.8,20.3 43.3,17.5 	"/>
	<polygon fill="#ED1940" points="41.6,28.6 41.9,29.4 41.6,30.1 46.2,31.5 46.7,28.6 	"/>
	<polygon fill="#ED1940" points="37.6,37.4 36.8,39 39.4,43.5 41.9,42.2 	"/>
</g>
</svg>
