<svg xmlns="http://www.w3.org/2000/svg" viewBox="0 0 40 40" width="40" height="40" preserveAspectRatio="none"><defs><style>.cls-1{fill:#4191ce;}.cls-2{fill:#0659ab;}.cls-3{fill:#fff;}</style></defs><g id="Assets"><circle class="cls-1" cx="20" cy="20" r="19" /><circle class="cls-2" cx="20" cy="20" r="16.5" /><path class="cls-3" d="M14.3,17.49H11.24V16.08l-.35-.36H9.26l-.36.36v5.41l.36.35h1.63l.35-.35V20.15H14.3v2.43l-1.78,1.78H7.61L5.83,22.58V15l1.78-1.79h4.91L14.3,15Z" /><path class="cls-3" d="M21,21.84V20H18.86v1.85h.67v2.52H15.12V21.84h.67V15.72h-.67V13.21h4.41v2.51h-.67v1.53H21V15.72h-.67V13.21h4.4v2.51H24.1v6.12h.67v2.52h-4.4V21.84Z" /><path class="cls-3" d="M29.28,21.76a.86.86,0,0,0-.79.51.79.79,0,0,0-.06.35c0,.61.32,1.16.94,1.16s.78-.43.78-1A.89.89,0,0,0,29.28,21.76Z" /><path class="cls-3" d="M32.72,18.15l-2.95-1.37-3.93.44L24.7,18.31v2.92h.83v3.71H24.37l.07.23,1.21.95,3.72.67,3.19-1,1.61-3.65Zm-3.33,6.63a2.27,2.27,0,0,1-2.31-2.53,3.46,3.46,0,0,1,1-2.59,3.43,3.43,0,0,1,2.23-.84,2.51,2.51,0,0,1,.54,0v1a3.4,3.4,0,0,0-.53,0,1.86,1.86,0,0,0-1.89,1.38h0a1.68,1.68,0,0,1,1.23-.45,1.75,1.75,0,0,1,1.79,1.89A2.07,2.07,0,0,1,29.39,24.78Z" /></g></svg>