<svg id="Layer_1" data-name="Layer 1" xmlns="http://www.w3.org/2000/svg" viewBox="0 0 30 30" width="30" height="30" preserveAspectRatio="none"><defs><style>.cls-1,.cls-3{fill:#8b5e3c;}.cls-1{stroke:#8b5e3c;stroke-linecap:round;stroke-linejoin:round;stroke-width:0.3px;}.cls-2{fill:#ffc641;}.cls-4{fill:#b7883f;}.cls-5{fill:#ffcf42;}</style></defs><path class="cls-1" d="M5.58,12s2.58-2.85,3.1-2.85l4,5.23s4.48-5.8,8.9-11.57l3.35,3.86S17.53,13.21,13.07,18Z" /><path class="cls-2" d="M5.07,10.8S7.65,8,8.16,8l4,5.23s4.47-5.8,8.89-11.57l3.77,4.33A105.89,105.89,0,0,0,13.11,17.06Z" /><path class="cls-3" d="M19.86,24.36l-.17-.16a.65.65,0,0,0,0-.19,1,1,0,0,0-.52-.93c.44-.1.56-.3.49-.58a2.78,2.78,0,0,0,.89-2.27s-.1-.19-.14-.18h0V20a2,2,0,0,1-1.29,1,.82.82,0,0,0-.63-.47.66.66,0,0,0,0-.8,1.19,1.19,0,0,0-.68-.17,1.16,1.16,0,0,0-.45.05h0c.23-.73-.63-1-1.12-.84h0a.73.73,0,0,0-.49.27,1.11,1.11,0,0,0-1.06-.48h-.15a.7.7,0,0,0-.67.77.85.85,0,0,0-.8-.09h0c-.48.11-.89.59-.42,1a.88.88,0,0,0-1,.36.61.61,0,0,0,0,.44,2.05,2.05,0,0,1-2-.87A3.12,3.12,0,0,0,11,22.74l.15.12a.67.67,0,0,0-.14,1c-.1.08-.19.18-.3.28a5.44,5.44,0,0,0-1.07,2.87c0,.09.27.18.27.18l.29-.25.28.75.33-.54.29.32v0l.19.28.08-1,.39.15-.17-.78.38-.56.11,0a.86.86,0,0,0,.27.59.82.82,0,0,0,.58.32L13.09,28a7.12,7.12,0,0,0-.71-.1h-.15c-.09,0-.15,0-.15.05s0,.16,0,.23-.32.11-.18.17c-.26,0,.26.11.26.18a.32.32,0,0,0,.16.24h0c0,.05,0,.1.05.13h0a.56.56,0,0,0,.26.18c.29.1,1.13-.43,1.13-.43h1.27V27.08a.46.46,0,0,0,.35,0l.06,1.24.27.18,1.08.09s.88.36,1.17.26-.16-.48-.16-.48.38.1.53,0,.07-.2-.14-.26h0c.14-.06.14-.07.17-.15.13-.28-.54-.2-.78-.15l0-1.42a.61.61,0,0,0,.66-.06.7.7,0,0,0,.18-.63l.06-.17h.15L19,26l-.16.73h0v0l.05,0,.34.22v.57l.27.18.34-.4.07.28v0l.05.15.52-.9.3.4A4.69,4.69,0,0,0,19.86,24.36Z" /><path class="cls-3" d="M20.18,24,20,23.88l.11.44a1.48,1.48,0,0,0-.68-1.63l-.11.82a.93.93,0,0,0,.81-1.13l-.12.44a3.21,3.21,0,0,0,1-2,1.16,1.16,0,0,0-.25-1.12.47.47,0,0,0-.71.09h0l.84.23V20a.45.45,0,0,0-.84-.22,1.64,1.64,0,0,1-1,.74l.51.21a1.43,1.43,0,0,0-.9-.68l.26.66a1.1,1.1,0,0,0-.1-1.34,1.86,1.86,0,0,0-1.59-.23l.55.55a1.13,1.13,0,0,0-.8-1.41,1.36,1.36,0,0,0-.87,0,.56.56,0,0,0-.2.11c.08-.1,0-.1-.08,0a1,1,0,0,0-.42.3l.71.09c-.79-1-2.61-1-2.72.53l.67-.39c-1-.6-2.87.49-1.76,1.58l.43-.75c-.89-.22-1.84.35-1.61,1.35l.44-.57A1.68,1.68,0,0,1,10,19.88a.45.45,0,0,0-.84.23,3.43,3.43,0,0,0,.23,1.26,4.06,4.06,0,0,0,1.6,1.88v-.78a1.13,1.13,0,0,0-.24,1.75v-.63a4.5,4.5,0,0,0-1.36,2.55c-.14.66-.3,1.24.46,1.53a.48.48,0,0,0,.44-.12l.29-.25-.75-.2.28.75a.46.46,0,0,0,.82.11l.33-.54-.71.09.29.32a.46.46,0,0,0,.77-.32v0l-.84.23.19.28a.46.46,0,0,0,.84-.23l.08-1-.57.43.39.15c.34.14.61-.25.55-.55L12,26l0,.35.39-.56L12.1,26l.11,0-.56-.31a1.49,1.49,0,0,0,1.17,1.23l-.33-.44L12.64,28l.57-.43a3.38,3.38,0,0,0-1.09-.12.58.58,0,0,0-.43.26.88.88,0,0,0-.1.34c0,.06,0,.36.06.15l.22-.38a1.78,1.78,0,0,0-.3.17.46.46,0,0,0,0,.64l0,0,.2-.75h-.06a.47.47,0,0,0-.32.32v0a.45.45,0,0,0,.2.5.71.71,0,0,0,.18.08c.15,0,.09.1,0-.07a1.16,1.16,0,0,0,.32.38l-.21-.27v-.17a.47.47,0,0,0,.12.44.75.75,0,0,0,.39.19l-.32-.13c.49.53,1.33.27,1.84-.12.19-.14-.19,0-.05,0a1.7,1.7,0,0,0,.39,0h.8a.45.45,0,0,0,.45-.45V27.08l-.57.44a1.31,1.31,0,0,0,.59,0L15,27.09a5.59,5.59,0,0,0,.08,1.36c.18.54.9.52,1.35.56a2.58,2.58,0,0,1,.38,0h-.05l.15.06a2.48,2.48,0,0,0,1,.23c.82,0,.77-.84.28-1.27l-.44.75c.36.09.87.11,1.07-.27s-.12-.75-.48-.89l.11.83a.63.63,0,0,0,.25-1c-.3-.3-.84-.2-1.21-.14l.57.44,0-1.42-.57.44a1.1,1.1,0,0,0,1.05-.15c.36-.29.26-.65.4-1l-.43.33h.15l-.38-.22.3.44,0-.34c-.06.25-.12.51-.17.77s.21.69.55.56l.05,0-.34-.05.33.21-.22-.38a3.32,3.32,0,0,0,0,.63c.06.26.27.36.48.5a.43.43,0,0,0,.54-.07l.34-.39-.75-.2.07.28a.46.46,0,0,0,.87,0v0h-.87l.05.15a.45.45,0,0,0,.82.11l.52-.91h-.78l.31.41a.45.45,0,0,0,.83-.23,4.66,4.66,0,0,0-1-3.16c-.4-.42-1,.22-.64.64a3.72,3.72,0,0,1,.76,2.52l.84-.23-.3-.4a.46.46,0,0,0-.78,0l-.52.91.82.1,0-.15a.46.46,0,0,0-.87,0v0h.87l-.07-.28a.45.45,0,0,0-.75-.2l-.34.4.54-.07-.26-.18.22.39c0-.32.07-.69-.18-.93a.84.84,0,0,0-.78-.27l.55.55a3.08,3.08,0,0,0,.19-.89,1.06,1.06,0,0,0-.91-.91.45.45,0,0,0-.43.33c-.05.12-.13.62-.35.55a.45.45,0,0,0-.57.43l0,1.42a.45.45,0,0,0,.57.43,1.81,1.81,0,0,0,.23,0c.2-.05.16.11.06-.1l0-.34V27.7c-.38.18-.21.7.11.82.08,0,.14-.52-.11-.58-.41-.1-.79.45-.44.76.14.11.07.17.13,0l.2-.27c-.18.13-.9-.25-1.17-.28s-.49-.06-.74-.07,0-.06,0,0-.19-.13-.24-.16l.22.39-.06-1.24a.46.46,0,0,0-.57-.43h-.11a.45.45,0,0,0-.57.43V28.6l.45-.45a7.39,7.39,0,0,0-1.33,0,3,3,0,0,0-.62.3c-.09,0-.25.14-.34.12s-.22-.17-.38-.18l.32.13-.07-.06.12.44a.65.65,0,0,0,0-.31.59.59,0,0,0-.12-.2l-.09-.07c.07.05.08,0,0,0s-.31-.24-.52-.35l.21.5h0l-.31.31.06,0a.45.45,0,0,0,.2-.75l0,0v.64c-.19.17,0,0,.07,0a.63.63,0,0,0,.21-.19.59.59,0,0,0-.06-.6l.05.34,0,.05-.32.13h.2a5.07,5.07,0,0,1,.65.09c.25.05.6-.12.57-.43l-.15-1.48a.46.46,0,0,0-.33-.43.65.65,0,0,1-.54-.6.45.45,0,0,0-.55-.31c-.33.07-.63.49-.76.79s0,.79.12,1.12l.55-.55-.38-.16c-.3-.12-.55.18-.57.44l-.08,1,.84-.23-.19-.27a.45.45,0,0,0-.84.22v0l.77-.32-.29-.32a.46.46,0,0,0-.71.1l-.32.53.82.11-.29-.75a.46.46,0,0,0-.75-.2l-.29.25L10,26.8c-.1,0,0,.29.07.19a1.23,1.23,0,0,0,0-.2c0-.26.1-.52.16-.77a3.53,3.53,0,0,1,1-1.8.44.44,0,0,0,0-.63.23.23,0,0,1,.06-.34.46.46,0,0,0,0-.78A2.86,2.86,0,0,1,10,20.11l-.84.22a2.56,2.56,0,0,0,2.39,1.1.45.45,0,0,0,.43-.57c-.07-.32.35-.28.5-.24a.45.45,0,0,0,.44-.75c-.1-.1.24-.23.27-.24a.45.45,0,0,1,.41.07.46.46,0,0,0,.68-.39c0-.52.81-.38,1-.07a.46.46,0,0,0,.71.09.76.76,0,0,1,.4-.2c.27-.07-.17-.05.09,0s.44.05.37.33a.46.46,0,0,0,.56.56c.16,0,.9-.11.68.25a.45.45,0,0,0,.27.66.43.43,0,0,1,.36.26.46.46,0,0,0,.51.21,2.55,2.55,0,0,0,1.56-1.16L20,20v.05a.45.45,0,0,0,.84.23h0l-.71.09c.12.1.06-.22,0-.07a1,1,0,0,0,0,.17,2.18,2.18,0,0,1-.1.67,2.49,2.49,0,0,1-.53.92c-.1.11-.21.18-.25.32s.1.19-.18.26a.46.46,0,0,0-.11.82c.33.22.24.41.26.74s.15.33.3.48A.45.45,0,0,0,20.18,24Z" /><path class="cls-4" d="M19.86,24.36l-.17-.16a.65.65,0,0,0,0-.19,1,1,0,0,0-.52-.93c.44-.1.56-.3.49-.58a2.78,2.78,0,0,0,.89-2.27s-.1-.19-.14-.18C20,21.2,19.18,21,19.16,21a.82.82,0,0,0-.63-.47.66.66,0,0,0,0-.8,1.61,1.61,0,0,0-1.15-.12c.23-.73-.63-1-1.12-.84-.19.08-.3.49-.35.7a1.07,1.07,0,0,0-1.21-.9c-.61.11-.7.42-.64,1a.75.75,0,0,0-1-.33.66.66,0,0,0-.16,1.14c-.34-.1-.76-.17-1,.24-.09.2-.24.22-.11.37a2.23,2.23,0,0,1-2.23-.86A3.94,3.94,0,0,0,11.45,23a.68.68,0,0,0-.17,1.06l-.3.28a8,8,0,0,0-1.33,2.69c0,.09.27.18.27.18l.29-.25.28.75.37-.6.44.64.08-1,.39.15-.17-.78.38-.56a.71.71,0,0,0,.31-.1c0,.07-.15.11-.13.17,0,.55.61,1,1,.78l.17,1.7c-.09,0-.75-.26-1-.29s-.36.16-.26.28-.32.11-.18.17c-.26,0,.26.11.26.18a.32.32,0,0,0,.16.24s0,.2.32.31,1.13-.43,1.13-.43h1.27V27.08c.16.1.43,0,.6,0l-.19,1.29.27.18,1.08.09s.88.36,1.17.26-.16-.48-.16-.48.38.1.53,0,.08-.23-.18-.27c.14-.06.14-.07.17-.15.13-.28-.54-.2-.78-.15l0-1.42a.61.61,0,0,0,.66-.06.7.7,0,0,0,.18-.63l.06-.17a2.27,2.27,0,0,0,.59,0l-.29,1.22.38.24v.57l.27.18.34-.4.12.41.52-.9.3.4A4.69,4.69,0,0,0,19.86,24.36Z" /><path class="cls-5" d="M19.59,24.18,19.42,24a.67.67,0,0,0,0-.19,1,1,0,0,0-.55-.85c.44-.09.58-.38.52-.65a3.24,3.24,0,0,0,1-2.33A2,2,0,0,1,19,21l0-.09a1,1,0,0,0-.83-.3.58.58,0,0,0,.14-.94,1.18,1.18,0,0,0-1.15,0c.3-1-1.28-1.3-1.51-.41a1,1,0,0,0-1.09-.71c-.61.11-.72.47-.66,1.07-.45-.95-2,0-1.24.57a.88.88,0,0,0-1,.36.57.57,0,0,0,.07.59,2.16,2.16,0,0,1-2.08-1,3.12,3.12,0,0,0,1.62,2.74.66.66,0,0,0-.16,1c-.1.08-.19.18-.3.28a5.44,5.44,0,0,0-1.07,2.87l.4-.49.38,1,.16-.62.52.56v-.92l.39.15L11.33,26l.39-.57a.63.63,0,0,0,.3-.1,1.89,1.89,0,0,0,.06.18c0,.56.42,1,.84.77l.17,1.7c-.25-.05-1.17-.21-1,0a.79.79,0,0,0,.32.18c-.26.05-.49.11-.49.18s.85.07.85.07-.67.38-.38.48,1.14-.43,1.14-.43h1.26l.1-1.69a.87.87,0,0,0,.51.13l.08,1.47h1.27s.84.52,1.13.42-.38-.47-.38-.47.85.08.86-.08-.23-.13-.49-.17a.93.93,0,0,0,.32-.19c.16-.19-.76,0-1,0l.17-1.66a.59.59,0,0,0,.65-.06.67.67,0,0,0,.18-.63l.06-.17a.45.45,0,0,0,.3,0L19,26l-.17.77.39-.15v.92l.52-.56.16.62.38-1,.4.49A5.44,5.44,0,0,0,19.59,24.18Z" /></svg>