<?xml version="1.0" encoding="utf-8"?>
<!-- Generator: Adobe Illustrator 19.2.0, SVG Export Plug-In . SVG Version: 6.00 Build 0)  -->
<!DOCTYPE svg PUBLIC "-//W3C//DTD SVG 1.1//EN" "http://www.w3.org/Graphics/SVG/1.1/DTD/svg11.dtd">
<svg version="1.1" xmlns="http://www.w3.org/2000/svg" xmlns:xlink="http://www.w3.org/1999/xlink" x="0px" y="0px"
	 viewBox="0 0 40 30" enable-background="new 0 0 40 30" xml:space="preserve" width="40" height="30" preserveAspectRatio="none">
<g id="Header_Buttons">
	<path fill="#FFFFFF" d="M17.7,3.6c-0.1-0.4-0.2-0.9-0.6-1.1c-0.4-0.2-0.9,0-1.3,0.1c-1-0.3-2-0.5-3-0.5c-0.5-0.6-1.5-1.5-2.4-1
		C9.7,1.7,9,2.6,8.6,3.4C7.9,3.8,7.2,4.4,6.7,5C6.2,5.1,5.4,5.3,5.2,5.8c-0.2,0.5,0,1.4,0.2,1.8C5.2,8,5.1,8.3,5,8.7
		c-3.8,0.2-3.4,5.6-3.3,8.2c0.2,3.2,0.7,6.8,2.9,9.4c1.8,2.1,4.6,2.8,7.3,2.6c2.8-0.2,6-1.7,7-4.5c1.3-3.5-1.9-6-4.8-7
		C21.4,11.7,21.1,6.2,17.7,3.6z M15.9,11c0,0.3-0.1,0.5-0.1,0.8c-0.2,0.8-0.5,1.5-0.8,2.2c-0.2,0.4-0.5,0.8-0.8,1.1
		c-0.7,0.8-1.5,1.5-2.4,2c0.2-0.2,0.4-0.5,0.6-0.7c0.4-0.6,0.9-1.1,1.3-1.7c0.2-0.4,0.5-0.7,0.7-1.1c0.1-0.1,0.1-0.3,0.2-0.4
		c0.3-0.5,0.5-1,0.6-1.6c0.1-0.3,0.2-0.5,0.2-0.8c0.1-0.2,0.1-0.5,0.2-0.7c0.1-0.5,0.2-1,0.3-1.5c0.1,0.5,0.1,1,0.1,1.5
		C15.9,10.5,15.9,10.7,15.9,11C15.8,11.3,15.9,10.7,15.9,11z M15,3.5c0.4-0.5,1.2-0.8,1.8-0.6c0.1,0,0.1,0,0.2,0
		C17,2.9,17.1,3,17.1,3c0,0,0,0,0,0C16.4,3.1,15.7,3.5,15,3.5C14.9,3.6,14.9,3.6,15,3.5C15,3.5,14.9,3.6,15,3.5z M14.5,3.4
		C14.3,4,17.4,5.5,17.7,5c0.2,0.3-0.2,0.4-0.4,0.4c-0.5,0-1.1-0.2-1.6-0.4C15.5,4.9,13.6,3.5,14.5,3.4C14.5,3.4,14,3.5,14.5,3.4z
		 M9.1,3.6c0.2-0.7,0.7-1.5,1.3-1.9c0.1-0.1,0.2-0.1,0.3-0.2c0.1-0.1,0.2-0.1,0.3-0.1c0.1,0,0.2,0,0.2-0.1c0.1,0,0.1,0,0.2,0
		c0.1,0,0.2,0.1,0.2,0.1s-0.1,0-0.1,0c0,0-0.1,0-0.2,0.1c-0.1,0-0.1,0.1-0.2,0.1c-0.1,0.1-0.1,0.1-0.2,0.2c-0.6,0.6-1.2,1.3-1.8,2
		C9,3.8,9,3.7,9.1,3.6C9.1,3.5,9,3.7,9.1,3.6z M8.4,4c0,0.7,2.1,0.2,2.5,0.1c0.4-0.1,2.4-0.4,2.4-1c0.6,0.2-0.2,0.7-0.4,0.8
		c-0.8,0.4-1.7,0.7-2.5,0.9C9.8,4.8,8.8,5,8.3,4.7C8,4.5,8.1,4.2,8.4,4C8.4,4,7.7,4.5,8.4,4z M7.5,7.6C6.7,9.5,5.7,9.9,5.8,8.7
		c0.5,0.8,1.3-1,1.4-1.3c0.2-0.4,1-1.8,0.6-2.2C8.4,4.9,8.2,5.8,7.5,7.6C6.7,9.5,8.2,5.8,7.5,7.6z M6.2,10.1
		c0.7,0.5,0.8,1.9,0.8,2.6c0,0.7-0.5,1.5-0.9,0.5l0,0c0.8,0.5,0.7-0.7,0.6-1.2C6.6,11.4,6.5,10.5,6.2,10.1
		C6.4,10.3,6.5,10.5,6.2,10.1z M5.4,6c0-0.1,0.1-0.1,0.2-0.2C6,5.3,6.9,5.2,7.5,5.4C6.8,5.8,6.1,5.8,5.4,6C5.4,6.1,5.4,6.1,5.4,6
		C5.5,6,5.4,6.1,5.4,6z M3.4,17.2c0.1,2.5,0.5,4.9,1.1,7.3c-1.2-2.2-1.7-4.7-1.9-7.1c-0.1-1.4,0-2.8,0.3-4.2c0.2-0.9,0.5-2.7,1.5-3
		c0,0,0,0,0,0s0,0,0,0c-0.8,0.5-0.9,2.3-1,3.1C3.3,14.5,3.3,15.9,3.4,17.2C3.4,17.6,3.3,16.7,3.4,17.2z M5,11.7
		C5,11.7,4.9,11.7,5,11.7c-0.1,0-0.1-0.1-0.1-0.2c0.1-0.5,0.5-1,1-0.9c0.1,0,0.1,0,0.1,0s0,0-0.1,0.1c0,0-0.1,0.1-0.1,0.1
		C5.6,11,5.3,11.3,5,11.7C5,11.7,5,11.6,5,11.7z M10.8,26.1c-1.8,0-2.7-1.8-3-3.3c-0.5-2.3-0.3-4.8,0.1-7.1
		c-1.6-0.2-2.4-1.4-2.5-2.7c0.5,1.1,1.4,1.9,2.7,2c0,0,0,0,0,0c0.5,0.1,1.1,0,1.8-0.2c-0.5-1.6-0.4-3.5,0.2-5c0.4-1.2,1.6-2.6,3-2.2
		c2.2,0.6,1.3,3.8,0.7,5.2c-1.2,2.4-3.2,4.3-5.3,5.9C14.7,21.2,14.3,26.1,10.8,26.1z M14.9,24.6c-0.2,1.1-0.8,2-1.9,2.4
		c-0.1,0-0.2,0-0.2,0.1c-0.1,0-0.1,0-0.2,0c-0.1,0-0.2,0-0.3,0c-0.1,0-0.2,0-0.2,0c0,0-0.1,0-0.1,0c0.1,0,0.3-0.1,0.4-0.2
		c0,0,0.1,0,0.2-0.1c0.1,0,0.1-0.1,0.2-0.1c0.1,0,0.1-0.1,0.2-0.1c0.1,0,0.1-0.1,0.2-0.1c0,0,0.1,0,0.1-0.1c0.2-0.2,0.4-0.4,0.6-0.7
		c0.3-0.5,0.5-1,0.6-1.5c0.1-0.6,0.1-1.2,0.1-1.9c0-0.1,0-0.3,0-0.4c0,0,0,0,0,0.1C14.9,22.7,15.1,23.6,14.9,24.6
		C14.9,24.8,15,24.4,14.9,24.6z"/>
	<path fill="#FFFFFF" d="M36,21.8l-2.5-12h1.4v-6H19.3c1.5,1.3,1.9,3.7,1.4,6l0,0l0,0l-2,9.5c1.8,1.8,2.7,5.5-1.1,8.5l8.2,0v-6h-1.3
		l0.4-2.1h4.3l0.4,2.1h-1.2v6h9.7v-6H36z M26,14.7l1.1-5.6l1.1,5.6H26z"/>
</g>
</svg>
