<svg xmlns="http://www.w3.org/2000/svg" viewBox="0 0 40 40" width="40" height="40" preserveAspectRatio="none"><defs><style>.cls-1{isolation:isolate;}.cls-2{fill:#00a14b;}.cls-3{fill:#fff;}.cls-4{opacity:0.5;}.cls-5,.cls-6{fill:#351111;}.cls-6{mix-blend-mode:multiply;opacity:0.46;}</style></defs><g class="cls-1"><g id="Layer_1" data-name="Layer 1"><path class="cls-2" d="M1.07,23.85c1.92,9.68,12.29,17,22.4,14.62S41,24.9,39.13,15.22A17.38,17.38,0,0,0,17.77,1.58C7.65,4-.84,14.17,1.07,23.85Z" /><path class="cls-3" d="M32.07,31.54c6.77-7.13,6.89-18.08.29-24.46S14.92,1.32,8.16,8.46,1.27,26.54,7.87,32.92,25.31,38.68,32.07,31.54ZM12.29,6.66c7.15-4.9,17.33-2.23,21.62,4.77s1.47,16-5.68,20.87S11.17,36.48,6.88,29.48,5.14,11.55,12.29,6.66Z" /><g class="cls-4"><path class="cls-5" d="M27.64,23.85c-.92-.79-1.83-1.57-2.72-2.35-2.12-1.85-4.23-3.69-6.34-5.55a6.45,6.45,0,0,1-1.64-2.09,3.35,3.35,0,0,1-.1-2.54,1.88,1.88,0,0,0-1.68-2.54,2.74,2.74,0,0,0-1,.09,5.47,5.47,0,0,0-3.26,2.29,1.9,1.9,0,0,0,.16,2.43,1.7,1.7,0,0,0,.91.54c1.95.18,3,1.44,3.54,3.26.88,3,1.69,6.1,2.53,9.15.26.94.5,1.88.76,2.84l.37-.08a1.24,1.24,0,0,1,1.3.7,1.13,1.13,0,0,1-.3,1.46c-1.21.78-2.43,1.54-3.65,2.29a1.23,1.23,0,0,1-1.22-2.12c.72-.47,1.45-.93,2.19-1.37.27-.16.31-.33.22-.65-1-3.62-1.94-7.23-2.93-10.84a14.7,14.7,0,0,0-.77-2.1,2.18,2.18,0,0,0-1.82-1.32A3.16,3.16,0,0,1,9.65,11a4.72,4.72,0,0,1,1.62-2,6.21,6.21,0,0,1,3.35-1.41,3.23,3.23,0,0,1,3.45,2.74,2.63,2.63,0,0,1-.1,1.25,2.45,2.45,0,0,0,.63,2.79c1,1,2,1.92,3.08,2.84,2.23,2,4.49,3.9,6.73,5.85a.37.37,0,0,0,.51.05c.75-.48,1.51-1,2.28-1.42a1.13,1.13,0,0,1,1.53.36,1.21,1.21,0,0,1,0,1.55,1.78,1.78,0,0,1-.31.23L29.1,25.89a1.18,1.18,0,0,1-1.64-.27A1.25,1.25,0,0,1,27.55,24Z" /><path class="cls-5" d="M21.83,16.26,23.92,15l1.88-1.18a1.37,1.37,0,0,1,2,.48,12,12,0,0,1,1.51,3c.44,1.11.83,2.24,1.26,3.36.1.26.08.41-.15.54-.52.3-1,.63-1.53,1a.31.31,0,0,1-.44,0L22,16.42Z" /><path class="cls-5" d="M14.55,20.83c.23.82.44,1.58.64,2.35.54,2,1.07,4,1.62,6.05a.44.44,0,0,1-.22.59c-.51.29-1,.62-1.51.91a.38.38,0,0,1-.36,0c-1.36-1.46-2.71-2.93-4-4.42A4.87,4.87,0,0,1,10,25.12a1.2,1.2,0,0,1,.32-1.63C11.7,22.59,13.1,21.74,14.55,20.83Z" /><path class="cls-5" d="M21,27.05l.3-.2,1.09-.66.48-.3,1.1-.71a6,6,0,0,1,.6-.36l1.72-1.08-6.87-6c-.75.47-1.47.94-2.2,1.37-.25.14-.27.29-.19.57q.75,2.74,1.48,5.49c.27,1,.52,1.95.78,2.92Z" /></g><path class="cls-3" d="M28.73,23.87c-.92-.79-1.82-1.56-2.72-2.35Q22.85,18.76,19.68,16A6.29,6.29,0,0,1,18,13.89a3.4,3.4,0,0,1-.11-2.54,1.87,1.87,0,0,0-1.67-2.54,2.74,2.74,0,0,0-1,.09A5.44,5.44,0,0,0,12,11.18a1.89,1.89,0,0,0,.15,2.43,1.61,1.61,0,0,0,.92.54c1.95.18,3,1.44,3.54,3.26.88,3,1.69,6.1,2.53,9.16.25.93.5,1.87.75,2.83l.38-.08a1.25,1.25,0,0,1,1.3.7,1.16,1.16,0,0,1-.31,1.47c-1.2.78-2.42,1.54-3.65,2.28a1.14,1.14,0,0,1-1.51-.48,1.16,1.16,0,0,1,.3-1.64c.72-.47,1.44-.93,2.18-1.36.28-.16.32-.33.23-.66-1-3.61-1.94-7.23-2.93-10.84a15.89,15.89,0,0,0-.77-2.09,2.15,2.15,0,0,0-1.82-1.32,3.16,3.16,0,0,1-2.55-4.31,4.61,4.61,0,0,1,1.62-2,6.3,6.3,0,0,1,3.35-1.42,3.24,3.24,0,0,1,3.45,2.74,2.6,2.6,0,0,1-.1,1.25,2.44,2.44,0,0,0,.62,2.79c1,1,2,1.93,3.08,2.85,2.24,2,4.5,3.89,6.74,5.84a.35.35,0,0,0,.51.05c.75-.48,1.51-1,2.27-1.42a1.14,1.14,0,0,1,1.54.37,1.19,1.19,0,0,1,0,1.54,1.43,1.43,0,0,1-.31.24l-3.29,2.06a1.17,1.17,0,0,1-1.63-.27A1.25,1.25,0,0,1,28.64,24Z" /><path class="cls-3" d="M22.92,16.29,25,15,26.9,13.8a1.36,1.36,0,0,1,2,.47,11.77,11.77,0,0,1,1.52,3c.44,1.11.83,2.24,1.26,3.36.1.26.08.4-.15.54-.52.3-1,.62-1.53.95a.33.33,0,0,1-.45,0c-2.16-1.89-4.33-3.76-6.5-5.64A1.4,1.4,0,0,1,22.92,16.29Z" /><path class="cls-3" d="M15.65,20.85c.22.82.43,1.59.64,2.35.53,2,1.06,4,1.61,6.05a.42.42,0,0,1-.22.59c-.51.29-1,.62-1.5.92a.4.4,0,0,1-.37,0c-1.35-1.46-2.7-2.92-4-4.42a4.48,4.48,0,0,1-.68-1.16,1.19,1.19,0,0,1,.32-1.63C12.79,22.61,14.2,21.76,15.65,20.85Z" /><path class="cls-3" d="M22.1,27.08l.3-.21c.36-.21.72-.44,1.08-.66l.48-.3,1.1-.71a6.21,6.21,0,0,1,.6-.35l1.73-1.08-6.88-6c-.74.46-1.46.93-2.2,1.37-.24.14-.26.29-.19.56.51,1.83,1,3.66,1.49,5.49l.78,2.93Z" /><path class="cls-6" d="M23.76,26.41l1.74-1.12a1.2,1.2,0,0,1,1.72.41,1.18,1.18,0,0,1-.33,1.7c-1.16.77-2.34,1.53-3.51,2.28a1.18,1.18,0,0,1-1.69-.43A1.2,1.2,0,0,1,22,27.54Z" /><path class="cls-3" d="M25.66,28.76,24,29.82a1.15,1.15,0,0,1-1.65-.42,1.13,1.13,0,0,1,.34-1.64c1.14-.73,2.28-1.45,3.43-2.15A1.15,1.15,0,0,1,27.7,26a1.16,1.16,0,0,1-.34,1.65Z" /></g></g></svg>