<svg xmlns="http://www.w3.org/2000/svg" viewBox="0 0 40 40" width="40" height="40" preserveAspectRatio="none"><defs><style>.cls-1{isolation:isolate;}.cls-2{fill:#eb2044;}.cls-3{fill:#fff;}.cls-4{opacity:0.5;}.cls-5,.cls-6{fill:#351111;}.cls-6{mix-blend-mode:multiply;opacity:0.46;}</style></defs><g class="cls-1"><g id="Layer_1" data-name="Layer 1"><path class="cls-2" d="M1,23.85c1.91,9.68,12.28,17,22.4,14.62S40.93,24.9,39,15.22A17.38,17.38,0,0,0,17.65,1.58C7.54,4-1,14.17,1,23.85Z" /><path class="cls-3" d="M32,31.54c6.76-7.13,6.89-18.08.28-24.46S14.8,1.32,8,8.46,1.15,26.54,7.76,32.92,25.2,38.68,32,31.54ZM12.18,6.66c7.15-4.9,17.32-2.23,21.61,4.77s1.48,16-5.67,20.87S11.05,36.48,6.76,29.48,5,11.55,12.18,6.66Z" /><g class="cls-4"><path class="cls-5" d="M27.71,23.85c-.92-.79-1.83-1.57-2.72-2.35-2.12-1.85-4.23-3.69-6.34-5.55A6.32,6.32,0,0,1,17,13.86a3.35,3.35,0,0,1-.1-2.54,1.88,1.88,0,0,0-1.68-2.54,2.74,2.74,0,0,0-1,.09A5.47,5.47,0,0,0,11,11.16a1.88,1.88,0,0,0,.16,2.43,1.66,1.66,0,0,0,.91.54c1.95.18,3,1.44,3.54,3.26.88,3,1.69,6.1,2.53,9.15.25.94.5,1.88.76,2.84l.37-.08a1.25,1.25,0,0,1,1.3.7,1.15,1.15,0,0,1-.3,1.46c-1.21.78-2.43,1.54-3.66,2.29a1.23,1.23,0,0,1-1.21-2.12c.72-.47,1.45-.93,2.19-1.37.27-.16.31-.33.22-.65-1-3.62-1.94-7.23-2.93-10.84a16,16,0,0,0-.77-2.1,2.18,2.18,0,0,0-1.82-1.32A3.16,3.16,0,0,1,9.72,11a4.72,4.72,0,0,1,1.62-2,6.21,6.21,0,0,1,3.35-1.41,3.23,3.23,0,0,1,3.45,2.74,2.63,2.63,0,0,1-.1,1.25,2.45,2.45,0,0,0,.62,2.79c1,1,2,1.92,3.08,2.84,2.24,2,4.5,3.9,6.74,5.85a.37.37,0,0,0,.51.05c.75-.48,1.51-1,2.27-1.42a1.14,1.14,0,0,1,1.54.36,1.21,1.21,0,0,1,0,1.55,1.7,1.7,0,0,1-.3.23l-3.3,2.06a1.17,1.17,0,0,1-1.63-.27A1.25,1.25,0,0,1,27.61,24S27.65,23.93,27.71,23.85Z" /><path class="cls-5" d="M21.9,16.26,24,15l1.88-1.18a1.35,1.35,0,0,1,2,.48,11.71,11.71,0,0,1,1.52,3c.44,1.11.83,2.24,1.26,3.36.1.26.08.41-.15.54-.52.3-1,.63-1.53,1a.32.32,0,0,1-.45,0L22,16.42Z" /><path class="cls-5" d="M14.62,20.83c.22.82.43,1.58.64,2.35.54,2,1.07,4,1.62,6.05a.44.44,0,0,1-.22.59c-.52.29-1,.62-1.51.91a.38.38,0,0,1-.36,0c-1.36-1.46-2.71-2.93-4-4.42a4.57,4.57,0,0,1-.69-1.17,1.19,1.19,0,0,1,.32-1.63C11.76,22.59,13.17,21.74,14.62,20.83Z" /><path class="cls-5" d="M21.07,27.05a2.23,2.23,0,0,1,.3-.2l1.09-.66.47-.3,1.1-.71c.2-.13.4-.25.61-.36l1.72-1.08-6.88-6c-.74.47-1.46.94-2.2,1.37-.24.14-.26.29-.19.57.51,1.83,1,3.66,1.49,5.49l.78,2.92Z" /></g><path class="cls-3" d="M28.8,23.87c-.92-.79-1.82-1.56-2.72-2.35C24,19.68,21.85,17.83,19.75,16a6.29,6.29,0,0,1-1.64-2.08A3.3,3.3,0,0,1,18,11.35a1.87,1.87,0,0,0-1.67-2.54,2.81,2.81,0,0,0-1,.09,5.5,5.5,0,0,0-3.26,2.28,1.9,1.9,0,0,0,.16,2.43,1.62,1.62,0,0,0,.91.54c2,.18,3,1.44,3.55,3.26.88,3,1.69,6.1,2.52,9.16.26.93.51,1.87.76,2.83l.38-.08a1.25,1.25,0,0,1,1.3.7,1.16,1.16,0,0,1-.31,1.47c-1.21.78-2.42,1.54-3.65,2.28a1.14,1.14,0,0,1-1.51-.48,1.16,1.16,0,0,1,.3-1.64c.72-.47,1.44-.93,2.18-1.36.28-.16.32-.33.23-.66C17.9,26,17,22.4,16,18.79a15.89,15.89,0,0,0-.77-2.09,2.15,2.15,0,0,0-1.82-1.32,3.16,3.16,0,0,1-2.55-4.31,4.61,4.61,0,0,1,1.62-2,6.27,6.27,0,0,1,3.34-1.42,3.24,3.24,0,0,1,3.46,2.74,2.6,2.6,0,0,1-.1,1.25,2.44,2.44,0,0,0,.62,2.79c1,1,2,1.93,3.08,2.85,2.24,2,4.49,3.89,6.74,5.84a.35.35,0,0,0,.51.05c.75-.48,1.5-1,2.27-1.42a1.12,1.12,0,0,1,1.53.37,1.18,1.18,0,0,1,0,1.54,1.43,1.43,0,0,1-.31.24l-3.29,2.06a1.19,1.19,0,0,1-1.64-.27A1.25,1.25,0,0,1,28.71,24Z" /><path class="cls-3" d="M23,16.29,25.08,15,27,13.8a1.36,1.36,0,0,1,2,.47,11.77,11.77,0,0,1,1.52,3c.44,1.11.83,2.24,1.26,3.36.1.26.08.4-.16.54-.52.3-1,.62-1.52.95a.33.33,0,0,1-.45,0c-2.16-1.89-4.33-3.76-6.5-5.64A1.4,1.4,0,0,1,23,16.29Z" /><path class="cls-3" d="M15.72,20.85c.22.82.43,1.59.63,2.35.54,2,1.07,4,1.62,6.05a.42.42,0,0,1-.22.59c-.51.29-1,.62-1.51.92a.38.38,0,0,1-.36,0c-1.35-1.46-2.71-2.92-4-4.42a4.81,4.81,0,0,1-.69-1.16,1.2,1.2,0,0,1,.33-1.63C12.86,22.61,14.27,21.76,15.72,20.85Z" /><path class="cls-3" d="M22.16,27.08l.31-.21,1.08-.66.48-.3,1.1-.71a6.21,6.21,0,0,1,.6-.35l1.73-1.08-6.88-6c-.74.46-1.46.93-2.2,1.37-.24.14-.27.29-.19.56.51,1.83,1,3.66,1.49,5.49l.78,2.93Z" /><path class="cls-6" d="M23.83,26.41l1.74-1.12a1.2,1.2,0,0,1,1.72.41A1.18,1.18,0,0,1,27,27.4c-1.17.77-2.34,1.53-3.52,2.28a1.17,1.17,0,0,1-1.68-.43,1.2,1.2,0,0,1,.32-1.71Z" /><path class="cls-3" d="M25.73,28.76,24,29.82a1.15,1.15,0,0,1-1.65-.42,1.13,1.13,0,0,1,.33-1.64c1.15-.73,2.29-1.45,3.44-2.15a1.14,1.14,0,0,1,1.62.43,1.15,1.15,0,0,1-.33,1.65Z" /></g></g></svg>