<?xml version="1.0" encoding="utf-8"?>
<!-- Generator: Adobe Illustrator 20.0.0, SVG Export Plug-In . SVG Version: 6.00 Build 0)  -->
<!DOCTYPE svg PUBLIC "-//W3C//DTD SVG 1.1//EN" "http://www.w3.org/Graphics/SVG/1.1/DTD/svg11.dtd">
<svg version="1.1" xmlns="http://www.w3.org/2000/svg" xmlns:xlink="http://www.w3.org/1999/xlink" x="0px" y="0px"
   viewBox="0 0 40 37.6" enable-background="new 0 0 40 37.6" xml:space="preserve" width="40" height="37.6" preserveAspectRatio="none">
<g id="Header_Buttons">
  <g>
    <path fill="#fff100" d="M3.3,25.5l1.5-0.3l4.1-6.6l-3.9-6.5l-1.5-0.3L2.3,9.1l8.5-0.3l-0.5,3L8.9,12l2.6,4.7l3-4.7L13,11.8l-1.1-3
      L20.4,9L20,11.8l-1.5,0.3L14.2,19l4.5,6.2l1.6,0.3l0.4,2.5l-8.1,0.1l0.6-2.6l1.4-0.1l-2.8-3.8l-3,3.8l1.5,0.1l0.6,2.9H2.6
      L3.3,25.5z"/>
    <path fill="#fff100" d="M32.2,9.4c2.1,0.1,2.8,0.9,3.9,2.1s1.2,2.5,1.1,4.2c-0.1,1.7-0.3,3.1-1.5,4.1c-1.2,1-2.9,1.4-5,1.3
      l-2.6-0.1l-0.2,4l1.4,0.4l0.6,3.3L21.9,28l0.1-2.9l1.9-0.3l0.6-12.9l-2.4-0.2l0.7-3l3.6,0.2L32.2,9.4z M28.4,17.9l2.6,0.5
      c1,0,1.8-0.2,2.3-0.7s0.5-1.3,0.5-2.1c0-0.9,0.2-1.5-0.3-2.1c-0.5-0.6-1.2-0.9-2.2-1l-2.6-0.2L28.4,17.9z"/>
  </g>
</g>
<g id="Layer_1">
</g>
<g id="elliot">
</g>
</svg>
