<?xml version="1.0" encoding="utf-8"?>
<!-- Generator: Adobe Illustrator 20.0.0, SVG Export Plug-In . SVG Version: 6.00 Build 0)  -->
<!DOCTYPE svg PUBLIC "-//W3C//DTD SVG 1.1//EN" "http://www.w3.org/Graphics/SVG/1.1/DTD/svg11.dtd">
<svg version="1.1" xmlns="http://www.w3.org/2000/svg" xmlns:xlink="http://www.w3.org/1999/xlink" x="0px" y="0px"
	 viewBox="0 0 40 37.6" enable-background="new 0 0 40 37.6" xml:space="preserve" width="40" height="37.6" preserveAspectRatio="none">
<g id="BG" display="none">
</g>
<g id="Header_Buttons">
	<path fill="#FFCE41" d="M33.3,9.4L21.7,3.7L9.2,8.4L4.9,18.9l4.2,12.3l12.2,4.4l11.7-5.3l4.1-11.4L33.3,9.4z M21.1,32.8
		c-7.2,0-13-5.8-13-13c0-8.5,5.8-13,13-13c7.2,0,12.7,5.8,13,13C34.5,28.4,28.3,32.8,21.1,32.8z"/>
	<path fill="#FFCE41" d="M21.1,7.9c-6.5,0-11.8,5.3-11.8,11.8c0,6.5,5.3,12.5,11.8,11.8c8-0.8,11.8-5.3,11.8-11.8
		C32.9,13.2,27.6,7.9,21.1,7.9z M28.5,23.8l-8.4-2.3L17,10.8l2.7-1.1l2.2,10.8l7.2,1.7L28.5,23.8z"/>
</g>
<g id="Layer_1">
</g>
<g id="elliot">
</g>
</svg>
