<svg xmlns="http://www.w3.org/2000/svg" viewBox="0 0 40 40" width="40" height="40" preserveAspectRatio="none"><defs><style>.cls-1{fill:#C4EBBC;}</style></defs><g id="Isolation_Mode" data-name="Isolation Mode"><path class="cls-1" d="M35,21.65l-.57-.55a2.23,2.23,0,0,0,.15-.63,3.23,3.23,0,0,0-1.83-2.83c1.49-.32,1.95-1.26,1.74-2.18A10.75,10.75,0,0,0,37.8,7.72,6.6,6.6,0,0,1,33,11a1.14,1.14,0,0,0-.16-.31,3.3,3.3,0,0,0-2.74-1,1.9,1.9,0,0,0,.46-3.11,3.87,3.87,0,0,0-3.84,0c1-3.19-4.27-4.34-5-1.37C21,3.66,19.82,2.56,18,2.84,16,3.2,15.61,4.42,15.8,6.4c-1.5-3.17-6.67-.09-4.11,1.92A2.9,2.9,0,0,0,8.21,9.51a1.89,1.89,0,0,0,.22,2A7.17,7.17,0,0,1,1.5,8.06s-.21,6.23,5.41,9.13c-1.28.74-1.63,2.69-.55,3.53-.31.27-.64.57-1,.93-3.06,3.07-3.55,9.57-3.55,9.57l1.32-1.64,1.28,3.35L5,30.87l1.72,1.86V29.66L8,30.18l-.56-2.59L8.7,25.72a2.56,2.56,0,0,0,1-.33c.06.21.12.4.19.58,0,1.86,1.42,3.21,2.8,2.58l.56,5.65c-.81-.15-3.87-.7-3.32-.06a3,3,0,0,0,1.06.62c-.86.14-1.63.34-1.63.58,0,.54,2.85.24,2.85.24S10,36.82,11,37.16s3.79-1.41,3.79-1.41l4.21,0,.31-5.65a3,3,0,0,0,1.72.43l.27,4.89,4.21,0s2.83,1.76,3.79,1.42S28,35.26,28,35.26s2.84.3,2.85-.24c0-.25-.77-.44-1.63-.59a2.84,2.84,0,0,0,1.06-.61c.55-.64-2.51-.09-3.32.06l.55-5.53a2.08,2.08,0,0,0,2.2-.2A2.33,2.33,0,0,0,30.28,26c.07-.17.14-.36.21-.56a1.74,1.74,0,0,0,1,0l1.44,2.08-.57,2.59,1.3-.52v3.07l1.73-1.86.53,2.06,1.27-3.35,1.33,1.64S38,24.72,35,21.65Z" /></g></svg>