<svg xmlns="http://www.w3.org/2000/svg" viewBox="0 0 90 90" width="90" height="90" preserveAspectRatio="none"><defs><style>.cls-1{fill:#5864a1;opacity:0.83;}.cls-2{fill:#7294c4;}.cls-3{fill:#fff;}</style></defs><g id="Layer_1" data-name="Layer 1"><rect class="cls-1" x="1.64" y="1.64" width="86.73" height="86.73" rx="12" /><path class="cls-2" d="M76.36,89.86H13.64A13.51,13.51,0,0,1,.14,76.36V13.64A13.51,13.51,0,0,1,13.64.14H76.36a13.51,13.51,0,0,1,13.5,13.5V76.36A13.51,13.51,0,0,1,76.36,89.86ZM13.64,3.14a10.51,10.51,0,0,0-10.5,10.5V76.36a10.51,10.51,0,0,0,10.5,10.5H76.36a10.51,10.51,0,0,0,10.5-10.5V13.64a10.51,10.51,0,0,0-10.5-10.5Z" /><polygon class="cls-3" points="66.83 45 47.43 19 36.3 19 55.7 45 36.3 71 47.43 71 66.83 45" /><circle class="cls-3" cx="31.4" cy="45" r="8.22" /></g></svg>