<svg xmlns="http://www.w3.org/2000/svg" viewBox="0 0 90 90" width="90" height="90" preserveAspectRatio="none"><defs><style>.cls-1{fill:#5864a1;opacity:0.83;}.cls-2{fill:#7294c4;}.cls-3{fill:#7f99d3;stroke:#8ca8e0;stroke-linecap:round;stroke-linejoin:round;stroke-width:2.4px;}.cls-4{fill:#8ca8e0;}</style></defs><g id="Layer_1" data-name="Layer 1"><rect class="cls-1" x="1.64" y="1.64" width="86.73" height="86.73" rx="12" /><path class="cls-2" d="M76.36,89.86H13.64A13.51,13.51,0,0,1,.14,76.36V13.64A13.51,13.51,0,0,1,13.64.14H76.36a13.51,13.51,0,0,1,13.5,13.5V76.36A13.51,13.51,0,0,1,76.36,89.86ZM13.64,3.14a10.51,10.51,0,0,0-10.5,10.5V76.36a10.51,10.51,0,0,0,10.5,10.5H76.36a10.51,10.51,0,0,0,10.5-10.5V13.64a10.51,10.51,0,0,0-10.5-10.5Z" /><path class="cls-1" d="M27.14,27.23c12.58-8.84,27.2-7.82,36-2.72s16.65,21.41,2.38,22.77S43.8,53.4,41.08,60.88,19.66,75.16,16.94,55.1,27.14,27.23,27.14,27.23Zm4.13,21c-2.37-1.16-5.52.44-7,3.56s-.83,6.59,1.54,7.74,5.52-.43,7.05-3.56S33.64,49.41,31.27,48.26Z" /><path class="cls-3" d="M27.14,27.23c12.58-8.84,27.2-7.82,36-2.72s16.65,21.41,2.38,22.77S43.8,53.4,41.08,60.88,19.66,75.16,16.94,55.1,27.14,27.23,27.14,27.23Zm4.13,21c-2.37-1.16-5.52.44-7,3.56s-.83,6.59,1.54,7.74,5.52-.43,7.05-3.56S33.64,49.41,31.27,48.26Z" /><path class="cls-4" d="M56.48,57.25l-5.43,2.87S22.43,15.67,24.29,13.67,56.48,57.25,56.48,57.25Z" /><path class="cls-4" d="M54.59,57.83s7.92,1.33,8.55,8.21c.68,7.29,5.44,10.36,5.44,10.36s-16.77-.84-16.24-17Z" /></g></svg>