<svg xmlns="http://www.w3.org/2000/svg" viewBox="0 0 90 90" width="90" height="90" preserveAspectRatio="none"><defs><style>.cls-1{fill:#5864a1;opacity:0.83;}.cls-2{fill:#7294c4;}.cls-3{fill:#7f99d3;}.cls-3,.cls-4,.cls-5{stroke:#8ca8e0;stroke-linecap:round;stroke-linejoin:round;}.cls-3,.cls-4{stroke-width:2.4px;}.cls-4,.cls-5{fill:none;}.cls-6{fill:#8ca8e0;}</style></defs><g id="Layer_1" data-name="Layer 1"><rect class="cls-1" x="1.64" y="1.64" width="86.73" height="86.73" rx="12" /><path class="cls-2" d="M76.36,89.86H13.64A13.51,13.51,0,0,1,.14,76.36V13.64A13.51,13.51,0,0,1,13.64.14H76.36a13.51,13.51,0,0,1,13.5,13.5V76.36A13.51,13.51,0,0,1,76.36,89.86ZM13.64,3.14a10.51,10.51,0,0,0-10.5,10.5V76.36a10.51,10.51,0,0,0,10.5,10.5H76.36a10.51,10.51,0,0,0,10.5-10.5V13.64a10.51,10.51,0,0,0-10.5-10.5Z" /><path class="cls-3" d="M51.59,64.77S50.31,54.7,54.7,50.31c3.18-3.18,8.11-8.81,8.11-15.12,0-10-7.76-18.51-17.78-18.51S27.19,25.35,27.19,35.37c0,6.32,4.5,12,8.17,15.67,4,4,3.3,13.73,3.3,13.73Z" /><path class="cls-4" d="M51.59,64.77S50.31,54.7,54.7,50.31c3.18-3.18,8.11-8.81,8.11-15.12,0-10-7.76-18.51-17.78-18.51S27.19,25.35,27.19,35.37c0,6.32,4.5,12,8.17,15.67,4,4,3.3,13.73,3.3,13.73Z" /><polyline class="cls-5" points="41.73 62.99 42.74 58.49 37.62 39.25" /><polyline class="cls-5" points="48.82 62.77 47.64 56.28 53.43 39.25" /><polyline class="cls-5" points="37.71 39.62 39.27 34.69 43.59 39.49 45.69 29.43 49.19 38.68 52.25 35.32 53.41 39.55" /><circle class="cls-6" cx="53.4" cy="39.61" r="1.34" /><circle class="cls-6" cx="37.71" cy="39.61" r="1.34" /><path class="cls-6" d="M37.51,61.86H52.59l.31,11.22s-15.38.53-15.25,0S37.51,61.86,37.51,61.86Z" /></g></svg>