<svg xmlns="http://www.w3.org/2000/svg" viewBox="0 0 90 90" width="90" height="90" preserveAspectRatio="none"><defs><style>.cls-1{fill:#5864a1;opacity:0.83;}.cls-2{fill:#7294c4;}.cls-3{fill:none;stroke:#8ca8e0;stroke-linecap:round;stroke-linejoin:round;stroke-width:2.4px;}.cls-4{fill:#8ca8e0;}</style></defs><g id="Layer_1" data-name="Layer 1"><rect class="cls-1" x="1.64" y="1.64" width="86.73" height="86.73" rx="12" /><path class="cls-2" d="M76.36,89.86H13.64A13.51,13.51,0,0,1,.14,76.36V13.64A13.51,13.51,0,0,1,13.64.14H76.36a13.51,13.51,0,0,1,13.5,13.5V76.36A13.51,13.51,0,0,1,76.36,89.86ZM13.64,3.14a10.51,10.51,0,0,0-10.5,10.5V76.36a10.51,10.51,0,0,0,10.5,10.5H76.36a10.51,10.51,0,0,0,10.5-10.5V13.64a10.51,10.51,0,0,0-10.5-10.5Z" /><rect class="cls-3" x="17.55" y="17.55" width="27.45" height="27.45" /><rect class="cls-3" x="45" y="45" width="27.45" height="27.45" /><rect class="cls-3" x="17.55" y="45" width="27.45" height="27.45" /><path class="cls-4" d="M29.61,30.2H31a3,3,0,0,0,1-.16,2.11,2.11,0,0,0,.75-.43,1.82,1.82,0,0,0,.44-.68,2.46,2.46,0,0,0,.14-.88,2.15,2.15,0,0,0-.52-1.55,2.13,2.13,0,0,0-1.61-.56,2.61,2.61,0,0,0-.85.14,2,2,0,0,0-.69.4,1.83,1.83,0,0,0-.45.61,2,2,0,0,0-.17.82H26.75a3.61,3.61,0,0,1,.33-1.54A3.77,3.77,0,0,1,28,25.16a4.12,4.12,0,0,1,1.42-.81,5.46,5.46,0,0,1,1.79-.29,6.29,6.29,0,0,1,1.84.26,4.1,4.1,0,0,1,1.42.75,3.51,3.51,0,0,1,.92,1.25,4.27,4.27,0,0,1,.33,1.73,2.87,2.87,0,0,1-.14.86,3.23,3.23,0,0,1-.4.84,4.27,4.27,0,0,1-.68.75,3.85,3.85,0,0,1-.94.59,4.13,4.13,0,0,1,1.09.56,3.16,3.16,0,0,1,.73.78,3,3,0,0,1,.41.92,3.73,3.73,0,0,1,.13,1,4.09,4.09,0,0,1-.36,1.75,3.52,3.52,0,0,1-1,1.3,4.41,4.41,0,0,1-1.5.8,6.21,6.21,0,0,1-1.87.28,6.33,6.33,0,0,1-1.75-.25A4.64,4.64,0,0,1,28,37.49a3.7,3.7,0,0,1-1-1.24,3.78,3.78,0,0,1-.37-1.72H29a2.15,2.15,0,0,0,.16.85,1.85,1.85,0,0,0,.47.66,2.06,2.06,0,0,0,.72.43,2.81,2.81,0,0,0,.94.15A2.47,2.47,0,0,0,33,36a2.18,2.18,0,0,0,.63-1.68,2.49,2.49,0,0,0-.19-1,1.81,1.81,0,0,0-.52-.72,2.08,2.08,0,0,0-.81-.42A4,4,0,0,0,31,32.05H29.61Z" /><path class="cls-4" d="M29.61,57.66H31a3.22,3.22,0,0,0,1-.16,2.29,2.29,0,0,0,.75-.44,1.74,1.74,0,0,0,.44-.68,2.41,2.41,0,0,0,.14-.87A2.18,2.18,0,0,0,32.86,54a2.13,2.13,0,0,0-1.61-.56,2.61,2.61,0,0,0-.85.14,2.12,2.12,0,0,0-.69.4,1.87,1.87,0,0,0-.45.62,1.92,1.92,0,0,0-.17.81H26.75a3.56,3.56,0,0,1,.33-1.53A3.71,3.71,0,0,1,28,52.61a4.29,4.29,0,0,1,1.42-.81,5.46,5.46,0,0,1,1.79-.29,6.29,6.29,0,0,1,1.84.26,4,4,0,0,1,1.42.76,3.42,3.42,0,0,1,.92,1.25,4.2,4.2,0,0,1,.33,1.73,2.85,2.85,0,0,1-.14.85,3.23,3.23,0,0,1-.4.84,3.67,3.67,0,0,1-.68.75,3.57,3.57,0,0,1-.94.59,3.86,3.86,0,0,1,1.09.57,3.12,3.12,0,0,1,.73.77,3.16,3.16,0,0,1,.41.92,3.83,3.83,0,0,1,.13,1,4.13,4.13,0,0,1-.36,1.76,3.57,3.57,0,0,1-1,1.29,4.41,4.41,0,0,1-1.5.8,5.91,5.91,0,0,1-1.87.28,6,6,0,0,1-1.75-.25A4.64,4.64,0,0,1,28,64.94a3.61,3.61,0,0,1-1-1.24A3.71,3.71,0,0,1,26.62,62H29a2.1,2.1,0,0,0,.16.84,1.85,1.85,0,0,0,.47.66,1.92,1.92,0,0,0,.72.43,2.81,2.81,0,0,0,.94.15A2.42,2.42,0,0,0,33,63.49a2.17,2.17,0,0,0,.63-1.68,2.49,2.49,0,0,0-.19-1,1.81,1.81,0,0,0-.52-.72,2.08,2.08,0,0,0-.81-.42A4,4,0,0,0,31,59.51H29.61Z" /><path class="cls-4" d="M57.07,57.66h1.39a3.31,3.31,0,0,0,1-.16,2.34,2.34,0,0,0,.74-.44,1.64,1.64,0,0,0,.44-.68,2.41,2.41,0,0,0,.15-.87A2.18,2.18,0,0,0,60.31,54a2.1,2.1,0,0,0-1.6-.56,2.63,2.63,0,0,0-.86.14,2.36,2.36,0,0,0-.69.4,1.87,1.87,0,0,0-.45.62,1.92,1.92,0,0,0-.16.81H54.2a3.43,3.43,0,0,1,.34-1.53,3.68,3.68,0,0,1,.92-1.22,4.39,4.39,0,0,1,1.42-.81,5.48,5.48,0,0,1,1.8-.29,6.18,6.18,0,0,1,1.83.26,3.88,3.88,0,0,1,1.42.76,3.31,3.31,0,0,1,.92,1.25,4.2,4.2,0,0,1,.33,1.73,2.83,2.83,0,0,1-.13.85,3.26,3.26,0,0,1-.41.84A3.73,3.73,0,0,1,61,58.54a3.93,3.93,0,0,1,1.1.57,3.07,3.07,0,0,1,.72.77,2.92,2.92,0,0,1,.41.92,3.83,3.83,0,0,1,.13,1A4.29,4.29,0,0,1,63,63.57a3.71,3.71,0,0,1-1,1.29,4.32,4.32,0,0,1-1.5.8,5.85,5.85,0,0,1-1.86.28,5.92,5.92,0,0,1-1.75-.25,4.44,4.44,0,0,1-1.47-.75,3.64,3.64,0,0,1-1-1.24A3.71,3.71,0,0,1,54.07,62h2.34a2.1,2.1,0,0,0,.17.84,1.83,1.83,0,0,0,.46.66,2,2,0,0,0,.72.43,2.83,2.83,0,0,0,1,.15,2.4,2.4,0,0,0,1.71-.58,2.17,2.17,0,0,0,.63-1.68,2.67,2.67,0,0,0-.18-1,2,2,0,0,0-.52-.72,2.2,2.2,0,0,0-.82-.42,4,4,0,0,0-1.07-.13H57.07Z" /></g></svg>