<svg width="35" height="35" viewBox="0 0 35 35" fill="none" xmlns="http://www.w3.org/2000/svg" preserveAspectRatio="none"><g clip-path="url(#clip0_44_184)"><path d="M26.7553 11.4164L31.8905 17.303L28.049 20.6038L23.6176 20.0197L19.8357 23.6289C19.4339 21.8126 17.397 19.8343 16.4288 19.0721C18.3647 21.4112 18.6335 24.6109 18.375 25.8125C19.3287 25.671 21.6378 25.381 23.2446 25.3523C24.8514 25.3236 26.1203 25.8315 26.5539 26.089L25.268 28.6828C20.419 29.7469 13.4325 28.0245 10.6264 25.7511C8.38144 23.9324 5.91268 21.3262 5.39641 19.9223L4.70932 21.3345C4.31184 21.8165 3.15521 22.3319 1.70849 20.5383C-0.0999179 18.2962 1.43987 16.4954 2.81092 15.9748C3.90776 15.5583 5.24254 16.5291 5.77282 17.0665L8.06459 13.3611L9.75702 12.6825L20.7268 13.8278L20.7917 13.3354C19.6749 12.6873 17.2547 11.2863 16.5084 10.8673C15.5756 10.3436 12.974 8.79845 13.4435 6.7564C13.8192 5.12277 15.4505 5.7185 16.2192 6.22057L22.6605 12.0789L23.8346 11.5324L19.2514 6.01911C19.2344 4.88141 19.3092 2.54022 19.7446 2.27701C20.1801 2.01381 21.5327 2.64628 22.1546 2.99541L26.7553 11.4164Z" fill="#FFCE41" /><path d="M10.3295 32.2065L14 28.6828L9.59223 26.3987L7.78748 30.9698L10.3295 32.2065Z" fill="#FFCE41" /></g><defs><clipPath id="clip0_44_184"><rect width="35" height="35" fill="white" /></clipPath></defs></svg>