<svg xmlns="http://www.w3.org/2000/svg" viewBox="0 0 30 30" width="30" height="30" preserveAspectRatio="none"><defs><style>.cls-1{fill:#ffce41;}</style></defs><title>Fullscreen Reverse</title><g id="Header_Buttons" data-name="Header Buttons"><polygon class="cls-1" points="3.058 13.058 13.398 13.298 12.869 3.727 9.982 6.473 3.599 1.218 0.222 4.159 5.906 10.349 3.058 13.058"/><polygon class="cls-1" points="16.996 3.287 16.756 13.628 26.327 13.099 23.581 10.211 28.836 3.828 25.895 0.451 19.705 6.135 16.996 3.287"/><polygon class="cls-1" points="26.942 17.161 16.602 16.921 17.131 26.491 20.018 23.746 26.401 29.001 29.778 26.059 24.094 19.869 26.942 17.161"/><polygon class="cls-1" points="12.995 26.713 13.236 16.372 3.665 16.901 6.411 19.789 1.156 26.172 4.097 29.549 10.287 23.865 12.995 26.713"/></g></svg>