<svg xmlns="http://www.w3.org/2000/svg" viewBox="0 0 30 22" width="30" height="22" preserveAspectRatio="none"><defs><style>.cls-1{fill:#ffce41;}</style></defs><title>CC copy 7</title><g id="Header_Buttons" data-name="Header Buttons"><polygon class="cls-1" points="27.879 16.344 2.451 6.687 3.438 4.13 28.787 13.728 27.879 16.344"/><path class="cls-1" d="M13.76122,6.87426l.3667-2.289a7.23158,7.23158,0,0,0-3.17157-.59479,7.75327,7.75327,0,0,0-2.93586.54938Z"/><path class="cls-1" d="M19.49767,9.207a4.57434,4.57434,0,0,1,3.79718-1.95288,6.15236,6.15236,0,0,1,1.8053.14111l.32232-2.97143a7.231,7.231,0,0,0-3.19763-.433,6.62423,6.62423,0,0,0-6.02148,3.87658Z"/><path class="cls-1" d="M11.60076,14.99932c-2.45758,0-4.29432-1.32666-4.29432-3.78137A3.86863,3.86863,0,0,1,7.5703,9.82458L4.33275,8.6123a8.06365,8.06365,0,0,0-.35382,2.3952c0,4.40063,2.81482,6.77893,6.58118,6.77893a8.48473,8.48473,0,0,0,3.52826-.63434L13.28942,14.826A7.82464,7.82464,0,0,1,11.60076,14.99932Z"/><path class="cls-1" d="M15.82414,12.91521c.76734,3.35791,3.41956,5.0409,6.70545,4.87384a8.485,8.485,0,0,0,3.49152-.81268l-.11475-.28589Z"/></g></svg>