<svg id="Chapter_Icon_3A" data-name="Chapter Icon 3A" xmlns="http://www.w3.org/2000/svg" viewBox="0 0 40 40" width="40" height="40" preserveAspectRatio="none"><defs><style>.cls-1{fill:#ffce41;}</style></defs><title>Volume High</title><path class="cls-1" d="M30.87334,2.3138,27.6658,5.274c3.702,3.70585,5.5811,8.59612,5.76667,14.46347a19.70591,19.70591,0,0,1-6.06663,15.26966l3.06375,2.679A22.77228,22.77228,0,0,0,37.70024,19.636C37.4754,12.62608,35.3934,6.70841,30.87334,2.3138Z"/><path class="cls-1" d="M24.89625,19.95575a11.70559,11.70559,0,0,1-3.59987,9.121l2.704,3.11555a16.07612,16.07612,0,0,0,5.164-12.33936A16.83919,16.83919,0,0,0,24.23563,8.14112l-3.146,3.19664A12.50655,12.50655,0,0,1,24.89625,19.95575Z"/><polygon class="cls-1" points="17.382 5.234 10.002 10.872 2.285 13.037 2.285 27.236 10.206 28.934 17.382 34.766 17.382 5.234"/></svg>