<?xml version="1.0" encoding="utf-8"?>
<!-- Generator: Adobe Illustrator 19.2.0, SVG Export Plug-In . SVG Version: 6.00 Build 0)  -->
<!DOCTYPE svg PUBLIC "-//W3C//DTD SVG 1.1//EN" "http://www.w3.org/Graphics/SVG/1.1/DTD/svg11.dtd">
<svg version="1.1" xmlns="http://www.w3.org/2000/svg" xmlns:xlink="http://www.w3.org/1999/xlink" x="0px" y="0px"
	 viewBox="0 0 63.9 79.9" enable-background="new 0 0 63.9 79.9" xml:space="preserve" width="63.9" height="79.9" preserveAspectRatio="none">
<g id="L_x2F_R_Arrows">
	<g>
		<path fill="#ad64a7" d="M36,6.6c-18.7,0-34,15.3-34,34v1.9c0,18.7,15.3,34,34,34h28V6.6H36z"/>
		<path opacity="0.2" fill="#649933" d="M36,76.4c-18.7,0-34-15.3-34-34v-1.9c0-0.6,0-1.1,0-1.7c-0.4,2.2-0.6,4.7-0.8,7.5
			c1.3,17.6,16,31.5,33.9,31.5h28.8v-1.5H36z"/>
		<path opacity="0.4" fill="#231F20" d="M36,6.6h28V2.2H35.1c-18.7,0-34,15.3-34,34v7.2v0.5c0,0.8,0,1.6,0.1,2.5
			c0.2-2.8,0.5-5.3,0.8-7.5C2.9,21,17.8,6.6,36,6.6z"/>
	</g>
</g>
</svg>
