<?xml version="1.0" encoding="utf-8"?>
<!-- Generator: Adobe Illustrator 19.2.0, SVG Export Plug-In . SVG Version: 6.00 Build 0)  -->
<!DOCTYPE svg PUBLIC "-//W3C//DTD SVG 1.1//EN" "http://www.w3.org/Graphics/SVG/1.1/DTD/svg11.dtd">
<svg version="1.1" xmlns="http://www.w3.org/2000/svg" xmlns:xlink="http://www.w3.org/1999/xlink" x="0px" y="0px"
	 viewBox="0 0 65 80" enable-background="new 0 0 65 80" xml:space="preserve" width="65" height="80" preserveAspectRatio="none">
<g id="Right_Info_Tab">
	<path fill="#ad64a7" d="M37,6.6c-18.7,0-34,15.3-34,34v1.9c0,18.7,15.3,34,34,34h28V6.6H37z"/>
	<path opacity="0.2" fill="#FFFFFF" d="M37,76.5c-18.7,0-34-15.3-34-34v-1.9c0-0.6,0-1.1,0-1.7c-0.4,2.2-0.6,4.7-0.8,7.5
		C3.5,64,18.3,78,36.2,78H65v-1.5H37z"/>
	<path opacity="0.6" d="M37,6.6h28V2.2H36.2c-18.7,0-34,15.3-34,34v7.2V44c0,0.8,0,1.6,0.1,2.5c0.2-2.8,0.5-5.3,0.8-7.5
		C4,21,18.9,6.6,37,6.6z"/>
</g>
</svg>
