<?xml version="1.0" encoding="utf-8"?>
<!-- Generator: Adobe Illustrator 21.1.0, SVG Export Plug-In . SVG Version: 6.00 Build 0)  -->
<svg version="1.1" xmlns="http://www.w3.org/2000/svg" xmlns:xlink="http://www.w3.org/1999/xlink" x="0px" y="0px"
	 viewBox="0 0 40 150" style="enable-background:new 0 0 40 150;" xml:space="preserve" width="40" height="150" preserveAspectRatio="none">
<style type="text/css">
	.st0{fill-rule:evenodd;clip-rule:evenodd;fill:#FFFFFF;}
	.st1{fill:none;stroke:#231F20;stroke-linecap:round;stroke-linejoin:round;stroke-miterlimit:10;}
	.st2{enable-background:new    ;}
	.st3{fill:#231F20;}
	.st4{fill:#FFFFFF;}
	.st5{fill:none;stroke:#231F20;stroke-width:0.5;stroke-linecap:round;stroke-linejoin:round;stroke-miterlimit:10;}
	.st6{fill:none;stroke:#231F20;stroke-width:0.5;stroke-linejoin:round;stroke-miterlimit:10;}
	.st7{fill:none;stroke:#231F20;stroke-linejoin:round;stroke-miterlimit:10;}
	.st8{fill:none;stroke:#231F20;stroke-width:0.75;stroke-linejoin:round;stroke-miterlimit:10;}
</style>
<g id="Layer_1">
	<path class="st0" d="M40.3,149.8H0V0h40.3V149.8z M36.5,144.5l0.1,1c0,0,0,0.6-15.4,0.6c-14,0-17.8-0.6-17.8-0.6v-1.2l4.6-2.4
		c0-1.9,1.1-3.5,2.5-3.5V8.2c0-1.6-1.6-2.8-1.6-2.8l0,0C8.6,5.5,8.4,5.3,8.4,5V4.7c0-0.2,0.2-0.5,0.5-0.5c0,0,3.3-0.8,14-0.8
		s11.7,0.8,11.7,0.8c0.3,0,0.5,0.2,0.5,0.5V5c0,0.2-0.1,0.4-0.2,0.5l0,0c0,2.5-5.4,2.3-5.4,7.6v125.5c1.4,0,2.5,1.6,2.5,3.5
		L36.5,144.5L36.5,144.5C36.5,144.5,36.5,144.5,36.5,144.5z"/>
	<path class="st1" d="M36.5,144.5L36.5,144.5l-4.5-2.4c0-1.9-1.1-3.5-2.5-3.5V13.1c0-5.3,5.4-5.1,5.4-7.6l0,0
		C35,5.4,35.1,5.2,35.1,5V4.7c0-0.3-0.2-0.5-0.5-0.5c0,0-1-0.8-11.7-0.8s-14,0.8-14,0.8c-0.3,0-0.5,0.3-0.5,0.5V5
		c0,0.3,0.2,0.5,0.5,0.4c0,0,0.1,0,0.2,0c-0.1,0-0.2,0-0.2,0s1.6,1.2,1.6,2.8v130.2c-1.4,0-2.5,1.6-2.5,3.5l-4.6,2.4v1.2
		c0,0,3.8,0.6,17.8,0.6c15.4,0,15.4-0.6,15.4-0.6L36.5,144.5C36.6,144.5,36.6,144.5,36.5,144.5z"/>
	<g class="st2">
		<path class="st3" d="M14.7,114.9h-1.3v-0.6c0.4,0,0.7-0.1,0.9-0.2c0.2-0.2,0.4-0.5,0.5-0.8h0.6v5.6H15h-0.4L14.7,114.9L14.7,114.9
			z"/>
		<path class="st3" d="M17.8,118.3c-0.3-0.5-0.5-1.2-0.5-2.1s0.2-1.6,0.5-2.1s0.8-0.8,1.4-0.8s1.1,0.3,1.4,0.8s0.5,1.2,0.5,2.1
			s-0.2,1.6-0.5,2.1s-0.8,0.8-1.4,0.8C18.7,119.1,18.2,118.8,17.8,118.3z M20.2,117.9c0.2-0.4,0.3-0.9,0.3-1.7
			c0-0.8-0.1-1.3-0.3-1.7s-0.5-0.6-0.9-0.6s-0.7,0.2-0.9,0.6s-0.3,0.9-0.3,1.7c0,0.8,0.1,1.3,0.3,1.7s0.5,0.6,0.9,0.6
			C19.7,118.4,20,118.2,20.2,117.9z"/>
	</g>
	<g>
		<g>
			<path class="st4" d="M29.6,138.3H10.4c-1.4,0-2.5,1.7-2.5,3.7l13.2,1.5L32,142C32,139.9,30.9,138.3,29.6,138.3"/>
		</g>
	</g>
	<g>
		<g>
			<path class="st1" d="M29.6,138.3H10.4c-1.4,0-2.5,1.7-2.5,3.7l13.2,1.5L32,142C32,139.9,30.9,138.3,29.6,138.3z"/>
		</g>
	</g>
	<g>
		<g>
			<path class="st4" d="M32,141.8l4.6,2.6l-15.2,1.4l-18-1.4l4.6-2.6c0,0,3.8,0.4,13.3,0.4C30.7,142.2,32,141.8,32,141.8"/>
		</g>
	</g>
	<g>
		<g>
			<path class="st1" d="M32,141.8l4.6,2.6l-15.2,1.4l-18-1.4l4.6-2.6c0,0,3.8,0.4,13.3,0.4C30.7,142.2,32,141.8,32,141.8z"/>
		</g>
	</g>
	<g>
		<g>
			<path class="st4" d="M36.6,145.6c0,0-0.1,0.7-15.4,0.7c-14,0-17.8-0.7-17.8-0.7v-1.4c0,0,5.9,0.5,17.9,0.5
				c13.3,0,15.3-0.5,15.3-0.5V145.6z"/>
		</g>
	</g>
	<g>
		<g>
			<path class="st1" d="M36.6,145.6c0,0-0.1,0.7-15.4,0.7c-14,0-17.8-0.7-17.8-0.7v-1.4c0,0,5.9,0.5,17.9,0.5
				c13.3,0,15.3-0.5,15.3-0.5V145.6z"/>
		</g>
	</g>
	<g>
		<g>
			<path class="st5" d="M29.5,138.6H10.4V8.3c0-1.6-1.6-2.8-1.6-2.8S15.9,5,23.6,5c7,0,9.6,0.5,11.3,0.5c0,2.4-5.4,2.2-5.4,7.6
				C29.5,13.1,29.5,138.6,29.5,138.6z"/>
		</g>
	</g>
	<line class="st6" x1="29.4" y1="136" x2="26.1" y2="136"/>
	<line class="st6" x1="29.4" y1="133.8" x2="26.1" y2="133.8"/>
	<line class="st6" x1="29.4" y1="131.6" x2="26.1" y2="131.6"/>
	<line class="st6" x1="29.4" y1="129.4" x2="26.1" y2="129.4"/>
	<line class="st6" x1="29.4" y1="124.9" x2="26.1" y2="124.9"/>
	<line class="st6" x1="29.4" y1="122.7" x2="26.1" y2="122.7"/>
	<line class="st6" x1="29.4" y1="120.4" x2="26.1" y2="120.4"/>
	<line class="st6" x1="29.4" y1="118.2" x2="26.1" y2="118.2"/>
	<line class="st6" x1="29.4" y1="113.8" x2="26.1" y2="113.8"/>
	<line class="st6" x1="29.4" y1="111.5" x2="26.1" y2="111.5"/>
	<line class="st6" x1="29.4" y1="109.3" x2="26.1" y2="109.3"/>
	<line class="st6" x1="29.4" y1="107.1" x2="26.1" y2="107.1"/>
	<line class="st6" x1="29.4" y1="102.6" x2="26.1" y2="102.6"/>
	<line class="st6" x1="29.4" y1="100.4" x2="26.1" y2="100.4"/>
	<line class="st6" x1="29.4" y1="98.2" x2="26.1" y2="98.2"/>
	<line class="st6" x1="29.4" y1="96" x2="26.1" y2="96"/>
	<line class="st6" x1="29.4" y1="91.5" x2="26.1" y2="91.5"/>
	<line class="st6" x1="29.4" y1="89.3" x2="26.1" y2="89.3"/>
	<line class="st6" x1="29.4" y1="87.1" x2="26.1" y2="87.1"/>
	<line class="st6" x1="29.4" y1="84.8" x2="26.1" y2="84.8"/>
	<line class="st6" x1="29.4" y1="80.4" x2="26.1" y2="80.4"/>
	<line class="st6" x1="29.4" y1="78.2" x2="26.1" y2="78.2"/>
	<line class="st6" x1="29.4" y1="75.9" x2="26.1" y2="75.9"/>
	<line class="st6" x1="29.4" y1="73.7" x2="26.1" y2="73.7"/>
	<line class="st6" x1="29.4" y1="69.3" x2="26.1" y2="69.3"/>
	<line class="st6" x1="29.4" y1="67" x2="26.1" y2="67"/>
	<line class="st6" x1="29.4" y1="64.8" x2="26.1" y2="64.8"/>
	<line class="st6" x1="29.4" y1="62.6" x2="26.1" y2="62.6"/>
	<line class="st6" x1="29.4" y1="58.1" x2="26.1" y2="58.1"/>
	<line class="st6" x1="29.4" y1="55.9" x2="26.1" y2="55.9"/>
	<line class="st6" x1="29.4" y1="53.7" x2="26.1" y2="53.7"/>
	<line class="st6" x1="29.4" y1="51.4" x2="26.1" y2="51.4"/>
	<line class="st6" x1="29.4" y1="47" x2="26.1" y2="47"/>
	<line class="st6" x1="29.4" y1="44.8" x2="26.1" y2="44.8"/>
	<line class="st6" x1="29.4" y1="42.5" x2="26.1" y2="42.5"/>
	<line class="st6" x1="29.4" y1="40.3" x2="26.1" y2="40.3"/>
	<line class="st6" x1="29.4" y1="35.9" x2="26.1" y2="35.9"/>
	<line class="st6" x1="29.4" y1="33.6" x2="26.1" y2="33.6"/>
	<line class="st6" x1="29.4" y1="31.4" x2="26.1" y2="31.4"/>
	<line class="st6" x1="29.4" y1="29.2" x2="26.1" y2="29.2"/>
	<line class="st7" x1="29.4" y1="116" x2="22.9" y2="116"/>
	<line class="st7" x1="29.4" y1="93.7" x2="22.9" y2="93.7"/>
	<line class="st7" x1="29.4" y1="71.5" x2="22.9" y2="71.5"/>
	<line class="st7" x1="29.4" y1="49.2" x2="22.9" y2="49.2"/>
	<line class="st7" x1="29.4" y1="27" x2="22.9" y2="27"/>
	<line class="st8" x1="29.4" y1="127.1" x2="23.3" y2="127.1"/>
	<line class="st8" x1="29.4" y1="104.9" x2="23.3" y2="104.9"/>
	<line class="st8" x1="29.4" y1="82.6" x2="23.3" y2="82.6"/>
	<line class="st8" x1="29.4" y1="60.4" x2="23.3" y2="60.4"/>
	<line class="st8" x1="29.4" y1="38.1" x2="23.3" y2="38.1"/>
	<g class="st2">
		<path class="st3" d="M16.7,92.7c0,0.4-0.1,0.8-0.3,1s-0.6,0.6-1.2,0.9c-0.6,0.3-1.1,0.7-1.3,1c-0.1,0.1-0.2,0.3-0.2,0.4h3.1v0.7
			h-3.9l0,0c0-0.6,0.1-1.1,0.4-1.5c0.3-0.4,0.8-0.8,1.7-1.2c0.4-0.2,0.7-0.4,0.8-0.6S16,93,16,92.7c0-0.3-0.1-0.5-0.3-0.7
			s-0.5-0.3-0.8-0.3s-0.6,0.1-0.8,0.4s-0.3,0.6-0.3,1H13c0-0.6,0.2-1.1,0.5-1.5s0.8-0.5,1.4-0.5c0.5,0,0.9,0.2,1.3,0.5
			C16.5,91.8,16.7,92.2,16.7,92.7z"/>
		<path class="st3" d="M17.8,96.1c-0.3-0.5-0.5-1.2-0.5-2.1s0.2-1.6,0.5-2.1s0.8-0.8,1.4-0.8s1.1,0.3,1.4,0.8s0.5,1.2,0.5,2.1
			s-0.2,1.6-0.5,2.1s-0.8,0.8-1.4,0.8C18.7,96.8,18.2,96.6,17.8,96.1z M20.2,95.6c0.2-0.4,0.3-0.9,0.3-1.7c0-0.8-0.1-1.3-0.3-1.7
			s-0.5-0.6-0.9-0.6s-0.7,0.2-0.9,0.6s-0.3,0.9-0.3,1.7c0,0.8,0.1,1.3,0.3,1.7s0.5,0.6,0.9,0.6S20,96,20.2,95.6z"/>
	</g>
	<g class="st2">
		<path class="st3" d="M16.7,28.1c0,0.6-0.2,1-0.5,1.4S15.4,30,14.8,30c-0.6,0-1-0.1-1.4-0.4s-0.5-0.7-0.6-1.2h0.7
			c0,0.3,0.2,0.6,0.4,0.7c0.2,0.2,0.5,0.3,0.8,0.3s0.6-0.1,0.8-0.4s0.3-0.5,0.3-0.9s-0.1-0.7-0.3-0.9s-0.5-0.3-0.9-0.3
			c-0.2,0-0.4,0-0.6,0.1s-0.3,0.2-0.4,0.4H13l0.4-3h2.9v0.7H14l-0.2,1.5l0,0c0.3-0.2,0.6-0.3,1-0.3c0.6,0,1.1,0.2,1.4,0.5
			C16.5,27.1,16.7,27.5,16.7,28.1z"/>
		<path class="st3" d="M17.8,29.3c-0.3-0.5-0.5-1.2-0.5-2.1s0.2-1.6,0.5-2.1s0.8-0.8,1.4-0.8s1.1,0.3,1.4,0.8s0.5,1.2,0.5,2.1
			s-0.2,1.6-0.5,2.1s-0.8,0.8-1.4,0.8C18.7,30.1,18.2,29.8,17.8,29.3z M20.2,28.9c0.2-0.4,0.3-0.9,0.3-1.7c0-0.8-0.1-1.3-0.3-1.7
			s-0.5-0.6-0.9-0.6s-0.7,0.2-0.9,0.6s-0.3,0.9-0.3,1.7c0,0.8,0.1,1.3,0.3,1.7s0.5,0.6,0.9,0.6C19.7,29.4,20,29.2,20.2,28.9z"/>
	</g>
	<g class="st2">
		<path class="st3" d="M12.8,50.8v-0.3v-0.3l2.6-3.6h0.3H16v3.7h0.8v0.6H16v1.3h-0.7v-1.3h-2.5V50.8z M15.3,50.2v-2.6l-1.8,2.5v0.1
			H15.3z"/>
		<path class="st3" d="M17.8,51.6c-0.3-0.5-0.5-1.2-0.5-2.1s0.2-1.6,0.5-2.1s0.8-0.8,1.4-0.8s1.1,0.3,1.4,0.8s0.5,1.2,0.5,2.1
			s-0.2,1.6-0.5,2.1s-0.8,0.8-1.4,0.8C18.7,52.3,18.2,52.1,17.8,51.6z M20.2,51.1c0.2-0.4,0.3-0.9,0.3-1.7s-0.1-1.3-0.3-1.7
			s-0.5-0.6-0.9-0.6s-0.7,0.2-0.9,0.6s-0.3,0.9-0.3,1.7s0.1,1.3,0.3,1.7s0.5,0.6,0.9,0.6C19.7,51.7,20,51.5,20.2,51.1z"/>
	</g>
	<g class="st2">
		<path class="st3" d="M15.9,70.3c0-0.3-0.1-0.5-0.3-0.7s-0.5-0.3-0.8-0.3s-0.6,0.1-0.8,0.3s-0.3,0.5-0.3,0.9H13
			c0-0.6,0.2-1,0.5-1.4s0.7-0.5,1.3-0.5c0.5,0,1,0.1,1.3,0.4c0.3,0.3,0.5,0.6,0.5,1.1c0,0.4-0.2,0.8-0.5,1.1
			c-0.1,0.1-0.1,0.1-0.2,0.1c0.1,0.1,0.3,0.1,0.4,0.2c0.4,0.3,0.5,0.6,0.5,1.1s-0.2,1-0.5,1.3s-0.8,0.5-1.4,0.5
			c-0.6,0-1.1-0.2-1.4-0.5S13,73.1,13,72.5h0.7c0,0.4,0.2,0.8,0.3,0.9s0.5,0.3,0.9,0.3c0.3,0,0.6-0.1,0.9-0.3s0.3-0.5,0.3-0.8
			S16,72,15.8,71.8c-0.2-0.2-0.4-0.3-0.7-0.3c-0.1,0-0.3,0-0.4,0s-0.2,0-0.2,0v-0.6c0.1,0,0.1,0,0.3,0s0.2,0,0.4,0s0.4-0.1,0.6-0.2
			C15.8,70.8,15.9,70.6,15.9,70.3z"/>
		<path class="st3" d="M17.8,73.8c-0.3-0.5-0.5-1.2-0.5-2.1s0.2-1.6,0.5-2.1s0.8-0.8,1.4-0.8s1.1,0.3,1.4,0.8s0.5,1.2,0.5,2.1
			s-0.2,1.6-0.5,2.1s-0.8,0.8-1.4,0.8C18.7,74.6,18.2,74.3,17.8,73.8z M20.2,73.4c0.2-0.4,0.3-0.9,0.3-1.7c0-0.8-0.1-1.3-0.3-1.7
			s-0.5-0.6-0.9-0.6s-0.7,0.2-0.9,0.6s-0.3,0.9-0.3,1.7c0,0.8,0.1,1.3,0.3,1.7s0.5,0.6,0.9,0.6C19.7,73.9,20,73.7,20.2,73.4z"/>
	</g>
	<g class="st2">
		<path class="st3" d="M15.5,12.7h0.3h0.3v0.6l0.1-0.2c0.3-0.4,0.7-0.6,1.1-0.6s0.7,0.1,0.9,0.3c0.1,0.1,0.2,0.2,0.2,0.3l0.1-0.1
			c0.3-0.4,0.7-0.5,1.1-0.5s0.8,0.1,1,0.4c0.2,0.2,0.4,0.6,0.4,1v2.9h-0.4h-0.4v-2.7c0-0.3-0.1-0.6-0.2-0.7s-0.3-0.2-0.6-0.2
			c-0.3,0-0.5,0.1-0.7,0.4s-0.3,0.6-0.3,1v2.3H18h0V14c0-0.3-0.1-0.5-0.2-0.6s-0.3-0.2-0.5-0.2c-0.3,0-0.6,0.1-0.8,0.4
			s-0.3,0.6-0.3,1v2.2h-0.4h-0.4L15.5,12.7L15.5,12.7z"/>
		<path class="st3" d="M22.3,16.9v-5.7h0.4h0.4v5.1H26v0.3v0.3C26,16.9,22.3,16.9,22.3,16.9z"/>
	</g>
	<g>
		<path class="st1" d="M36.5,144.5L36.5,144.5l-4.5-2.4c0-1.9-1.1-3.5-2.5-3.5V13.1c0-5.3,5.4-5.1,5.4-7.6l0,0
			C35,5.4,35.1,5.2,35.1,5V4.7c0-0.3-0.2-0.5-0.5-0.5c0,0-1-0.8-11.7-0.8s-14,0.8-14,0.8c-0.3,0-0.5,0.3-0.5,0.5V5
			c0,0.3,0.2,0.5,0.5,0.4c0,0,0.1,0,0.2,0c-0.1,0-0.2,0-0.2,0s1.6,1.2,1.6,2.8v130.2c-1.4,0-2.5,1.6-2.5,3.5l-4.6,2.4v1.2
			c0,0,3.8,0.6,17.8,0.6c15.4,0,15.4-0.6,15.4-0.6L36.5,144.5C36.6,144.5,36.6,144.5,36.5,144.5z"/>
	</g>
</g>
<g id="Layer_2">
</g>
</svg>
