<?xml version="1.0" encoding="utf-8"?>
<!-- Generator: Adobe Illustrator 22.1.0, SVG Export Plug-In . SVG Version: 6.00 Build 0)  -->
<!DOCTYPE svg PUBLIC "-//W3C//DTD SVG 1.1//EN" "http://www.w3.org/Graphics/SVG/1.1/DTD/svg11.dtd">
<svg version="1.1" id="Layer_1" xmlns="http://www.w3.org/2000/svg" xmlns:xlink="http://www.w3.org/1999/xlink" x="0px" y="0px"
	 viewBox="0 0 86 290" style="enable-background:new 0 0 86 290;" xml:space="preserve" width="86" height="290" preserveAspectRatio="none">
<style type="text/css">
	.st0{fill:#E6E7E8;}
	.st1{fill:none;stroke:#000000;stroke-width:0.75;stroke-linecap:round;stroke-miterlimit:10;}
	.st2{opacity:0.3;enable-background:new    ;}
	.st3{opacity:0.5;fill:#FFFFFF;enable-background:new    ;}
	.st4{fill:#FFFFFF;fill-opacity:0.5;}
</style>
<path class="st0" d="M1.1,24.9c0-16,7-23,22-23h37.7c17,0,24,7,24,23v241.7c-0.1,15.9-7.1,22.9-22.1,22.9H24.1c-17,0-23-7-23-23
	L1.1,24.9z M46.9,267.4l0.2-250.7c0-3.2-1.3-5.6-4-5.7l0,0c-3.2,0-4.7,2.6-4.7,5.7v250.7c-3.2,2.1-5.4,5.8-4.6,11
	c1.1,8,7.2,8.4,10.3,8.4c4.3,0,8.3-3.1,8.5-10.5C52.7,271.3,49.4,268.7,46.9,267.4z"/>
<line class="st1" x1="27.1" y1="259" x2="38" y2="259"/>
<line class="st1" x1="27.1" y1="259" x2="38" y2="259"/>
<line class="st1" x1="27.1" y1="238" x2="38" y2="238"/>
<line class="st1" x1="27.1" y1="217" x2="38" y2="217"/>
<line class="st1" x1="27.1" y1="196" x2="38" y2="196"/>
<line class="st1" x1="27.1" y1="175" x2="38" y2="175"/>
<line class="st1" x1="27.1" y1="154" x2="38" y2="154"/>
<line class="st1" x1="27.1" y1="133" x2="38" y2="133"/>
<line class="st1" x1="27.1" y1="112" x2="38" y2="112"/>
<line class="st1" x1="27.1" y1="91" x2="38" y2="91"/>
<line class="st1" x1="33.1" y1="254.8" x2="38" y2="254.8"/>
<line class="st1" x1="33.1" y1="250.6" x2="38" y2="250.6"/>
<line class="st1" x1="33.1" y1="246.4" x2="38" y2="246.4"/>
<line class="st1" x1="33.1" y1="242.2" x2="38" y2="242.2"/>
<line class="st1" x1="33.1" y1="233.8" x2="38" y2="233.8"/>
<line class="st1" x1="33.1" y1="229.6" x2="38" y2="229.6"/>
<line class="st1" x1="33.1" y1="225.4" x2="38" y2="225.4"/>
<line class="st1" x1="33.1" y1="221.2" x2="38" y2="221.2"/>
<line class="st1" x1="33.1" y1="212.8" x2="38" y2="212.8"/>
<line class="st1" x1="33.1" y1="208.6" x2="38" y2="208.6"/>
<line class="st1" x1="33.1" y1="204.4" x2="38" y2="204.4"/>
<line class="st1" x1="33.1" y1="200.2" x2="38" y2="200.2"/>
<line class="st1" x1="33.1" y1="191.8" x2="38" y2="191.8"/>
<line class="st1" x1="33.1" y1="187.6" x2="38" y2="187.6"/>
<line class="st1" x1="33.1" y1="183.4" x2="38" y2="183.4"/>
<line class="st1" x1="33.1" y1="179.2" x2="38" y2="179.2"/>
<line class="st1" x1="33.1" y1="170.8" x2="38" y2="170.8"/>
<line class="st1" x1="33.1" y1="166.6" x2="38" y2="166.6"/>
<line class="st1" x1="33.1" y1="162.4" x2="38" y2="162.4"/>
<line class="st1" x1="33.1" y1="158.2" x2="38" y2="158.2"/>
<line class="st1" x1="33.1" y1="149.8" x2="38" y2="149.8"/>
<line class="st1" x1="33.1" y1="145.6" x2="38" y2="145.6"/>
<line class="st1" x1="33.1" y1="141.4" x2="38" y2="141.4"/>
<line class="st1" x1="33.1" y1="137.2" x2="38" y2="137.2"/>
<line class="st1" x1="33.1" y1="128.8" x2="38" y2="128.8"/>
<line class="st1" x1="33.1" y1="124.6" x2="38" y2="124.6"/>
<line class="st1" x1="33.1" y1="120.4" x2="38" y2="120.4"/>
<line class="st1" x1="33.1" y1="116.2" x2="38" y2="116.2"/>
<line class="st1" x1="33.1" y1="107.8" x2="38" y2="107.8"/>
<line class="st1" x1="33.1" y1="103.6" x2="38" y2="103.6"/>
<line class="st1" x1="33.1" y1="99.4" x2="38" y2="99.4"/>
<line class="st1" x1="33.1" y1="95.2" x2="38" y2="95.2"/>
<line class="st1" x1="33.1" y1="86.8" x2="38" y2="86.8"/>
<line class="st1" x1="33.1" y1="82.6" x2="38" y2="82.6"/>
<line class="st1" x1="33.1" y1="78.4" x2="38" y2="78.4"/>
<line class="st1" x1="33.1" y1="74.2" x2="38" y2="74.2"/>
<line class="st1" x1="27.1" y1="70" x2="38" y2="70"/>
<line class="st1" x1="33.1" y1="65.8" x2="38" y2="65.8"/>
<line class="st1" x1="33.1" y1="61.6" x2="38" y2="61.6"/>
<line class="st1" x1="33.1" y1="57.4" x2="38" y2="57.4"/>
<line class="st1" x1="33.1" y1="53.2" x2="38" y2="53.2"/>
<line class="st1" x1="27.1" y1="28" x2="38" y2="28"/>
<line class="st1" x1="27.1" y1="49" x2="38" y2="49"/>
<line class="st1" x1="33.1" y1="44.8" x2="38" y2="44.8"/>
<line class="st1" x1="33.1" y1="40.6" x2="38" y2="40.6"/>
<line class="st1" x1="33.1" y1="36.4" x2="38" y2="36.4"/>
<line class="st1" x1="33.1" y1="32.2" x2="38" y2="32.2"/>
<line class="st1" x1="27.1" y1="28" x2="38" y2="28"/>
<g>
	<line class="st1" x1="33.1" y1="23.8" x2="38" y2="23.8"/>
	<line class="st1" x1="33.1" y1="19.6" x2="38" y2="19.6"/>
</g>
<line class="st1" x1="33.1" y1="15.4" x2="38" y2="15.4"/>
<line class="st1" x1="47.2" y1="249.7" x2="58.1" y2="249.7"/>
<line class="st1" x1="47.2" y1="249.7" x2="58.1" y2="249.7"/>
<line class="st1" x1="47.2" y1="214.7" x2="54.6" y2="214.7"/>
<line class="st1" x1="47.2" y1="191.3" x2="54.6" y2="191.3"/>
<line class="st1" x1="47.2" y1="168" x2="54.6" y2="168"/>
<line class="st1" x1="47.2" y1="144.7" x2="54.6" y2="144.7"/>
<line class="st1" x1="47.2" y1="121.3" x2="54.6" y2="121.3"/>
<line class="st1" x1="47.2" y1="98" x2="54.6" y2="98"/>
<line class="st1" x1="47.2" y1="74.7" x2="54.6" y2="74.7"/>
<line class="st1" x1="47.2" y1="28" x2="54.6" y2="28"/>
<line class="st1" x1="47.2" y1="226.3" x2="58.1" y2="226.3"/>
<line class="st1" x1="47.2" y1="203" x2="58.1" y2="203"/>
<line class="st1" x1="47.2" y1="179.7" x2="58.1" y2="179.7"/>
<line class="st1" x1="47.2" y1="156.3" x2="58.1" y2="156.3"/>
<line class="st1" x1="47.2" y1="133" x2="58.1" y2="133"/>
<line class="st1" x1="47.2" y1="109.7" x2="58.1" y2="109.7"/>
<line class="st1" x1="47.2" y1="86.3" x2="58.1" y2="86.3"/>
<line class="st1" x1="47.2" y1="63" x2="58.1" y2="63"/>
<g>
	<line class="st1" x1="47.2" y1="238" x2="54.6" y2="238"/>
	<line class="st1" x1="47.2" y1="247.3" x2="52.1" y2="247.3"/>
	<line class="st1" x1="47.2" y1="245" x2="52.1" y2="245"/>
	<line class="st1" x1="47.2" y1="242.7" x2="52.1" y2="242.7"/>
	<line class="st1" x1="47.2" y1="240.3" x2="52.1" y2="240.3"/>
</g>
<line class="st1" x1="47.2" y1="259" x2="52.1" y2="259"/>
<line class="st1" x1="47.2" y1="256.7" x2="52.1" y2="256.7"/>
<line class="st1" x1="47.2" y1="254.3" x2="52.1" y2="254.3"/>
<line class="st1" x1="47.2" y1="252" x2="52.1" y2="252"/>
<line class="st1" x1="47.2" y1="235.7" x2="52.1" y2="235.7"/>
<line class="st1" x1="47.2" y1="233.3" x2="52.1" y2="233.3"/>
<line class="st1" x1="47.2" y1="231" x2="52.1" y2="231"/>
<line class="st1" x1="47.2" y1="228.7" x2="52.1" y2="228.7"/>
<line class="st1" x1="47.2" y1="224" x2="52.1" y2="224"/>
<line class="st1" x1="47.2" y1="221.7" x2="52.1" y2="221.7"/>
<line class="st1" x1="47.2" y1="219.3" x2="52.1" y2="219.3"/>
<line class="st1" x1="47.2" y1="217" x2="52.1" y2="217"/>
<line class="st1" x1="47.2" y1="212.3" x2="52.1" y2="212.3"/>
<line class="st1" x1="47.2" y1="210" x2="52.1" y2="210"/>
<line class="st1" x1="47.2" y1="207.7" x2="52.1" y2="207.7"/>
<line class="st1" x1="47.2" y1="205.3" x2="52.1" y2="205.3"/>
<line class="st1" x1="47.2" y1="200.7" x2="52.1" y2="200.7"/>
<line class="st1" x1="47.2" y1="198.3" x2="52.1" y2="198.3"/>
<line class="st1" x1="47.2" y1="196" x2="52.1" y2="196"/>
<line class="st1" x1="47.2" y1="193.7" x2="52.1" y2="193.7"/>
<line class="st1" x1="47.2" y1="189" x2="52.1" y2="189"/>
<line class="st1" x1="47.2" y1="186.7" x2="52.1" y2="186.7"/>
<line class="st1" x1="47.2" y1="184.3" x2="52.1" y2="184.3"/>
<line class="st1" x1="47.2" y1="182" x2="52.1" y2="182"/>
<line class="st1" x1="47.2" y1="177.3" x2="52.1" y2="177.3"/>
<line class="st1" x1="47.2" y1="175" x2="52.1" y2="175"/>
<line class="st1" x1="47.2" y1="172.7" x2="52.1" y2="172.7"/>
<line class="st1" x1="47.2" y1="170.3" x2="52.1" y2="170.3"/>
<line class="st1" x1="47.2" y1="165.7" x2="52.1" y2="165.7"/>
<line class="st1" x1="47.2" y1="163.3" x2="52.1" y2="163.3"/>
<line class="st1" x1="47.2" y1="161" x2="52.1" y2="161"/>
<line class="st1" x1="47.2" y1="158.7" x2="52.1" y2="158.7"/>
<line class="st1" x1="47.2" y1="154" x2="52.1" y2="154"/>
<line class="st1" x1="47.2" y1="151.7" x2="52.1" y2="151.7"/>
<line class="st1" x1="47.2" y1="149.3" x2="52.1" y2="149.3"/>
<line class="st1" x1="47.2" y1="147" x2="52.1" y2="147"/>
<line class="st1" x1="47.2" y1="142.3" x2="52.1" y2="142.3"/>
<line class="st1" x1="47.2" y1="140" x2="52.1" y2="140"/>
<line class="st1" x1="47.2" y1="137.7" x2="52.1" y2="137.7"/>
<line class="st1" x1="47.2" y1="135.3" x2="52.1" y2="135.3"/>
<line class="st1" x1="47.2" y1="130.7" x2="52.1" y2="130.7"/>
<line class="st1" x1="47.2" y1="128.3" x2="52.1" y2="128.3"/>
<line class="st1" x1="47.2" y1="126" x2="52.1" y2="126"/>
<line class="st1" x1="47.2" y1="123.7" x2="52.1" y2="123.7"/>
<line class="st1" x1="47.2" y1="119" x2="52.1" y2="119"/>
<line class="st1" x1="47.2" y1="116.7" x2="52.1" y2="116.7"/>
<line class="st1" x1="47.2" y1="114.3" x2="52.1" y2="114.3"/>
<line class="st1" x1="47.2" y1="112" x2="52.1" y2="112"/>
<line class="st1" x1="47.2" y1="107.3" x2="52.1" y2="107.3"/>
<line class="st1" x1="47.2" y1="105" x2="52.1" y2="105"/>
<line class="st1" x1="47.2" y1="102.7" x2="52.1" y2="102.7"/>
<line class="st1" x1="47.2" y1="100.3" x2="52.1" y2="100.3"/>
<line class="st1" x1="47.2" y1="95.7" x2="52.1" y2="95.7"/>
<line class="st1" x1="47.2" y1="93.3" x2="52.1" y2="93.3"/>
<line class="st1" x1="47.2" y1="91" x2="52.1" y2="91"/>
<line class="st1" x1="47.2" y1="88.7" x2="52.1" y2="88.7"/>
<line class="st1" x1="47.2" y1="84" x2="52.1" y2="84"/>
<line class="st1" x1="47.2" y1="81.7" x2="52.1" y2="81.7"/>
<line class="st1" x1="47.2" y1="79.3" x2="52.1" y2="79.3"/>
<line class="st1" x1="47.2" y1="77" x2="52.1" y2="77"/>
<line class="st1" x1="47.2" y1="72.3" x2="52.1" y2="72.3"/>
<line class="st1" x1="47.2" y1="70" x2="52.1" y2="70"/>
<line class="st1" x1="47.2" y1="67.7" x2="52.1" y2="67.7"/>
<line class="st1" x1="47.2" y1="65.3" x2="52.1" y2="65.3"/>
<line class="st1" x1="47.2" y1="60.7" x2="52.1" y2="60.7"/>
<line class="st1" x1="47.2" y1="58.3" x2="52.1" y2="58.3"/>
<line class="st1" x1="47.2" y1="56" x2="52.1" y2="56"/>
<line class="st1" x1="47.2" y1="53.7" x2="52.1" y2="53.7"/>
<g>
	<line class="st1" x1="47.2" y1="51.3" x2="54.6" y2="51.3"/>
	<line class="st1" x1="47.2" y1="39.7" x2="58.1" y2="39.7"/>
	<line class="st1" x1="47.2" y1="49" x2="52.1" y2="49"/>
	<line class="st1" x1="47.2" y1="46.7" x2="52.1" y2="46.7"/>
	<line class="st1" x1="47.2" y1="44.3" x2="52.1" y2="44.3"/>
	<line class="st1" x1="47.2" y1="42" x2="52.1" y2="42"/>
</g>
<line class="st1" x1="47.2" y1="16.3" x2="58.1" y2="16.3"/>
<line class="st1" x1="47.2" y1="25.7" x2="52.1" y2="25.7"/>
<line class="st1" x1="47.2" y1="23.3" x2="52.1" y2="23.3"/>
<line class="st1" x1="47.2" y1="21" x2="52.1" y2="21"/>
<line class="st1" x1="47.2" y1="18.7" x2="52.1" y2="18.7"/>
<line class="st1" x1="47.2" y1="37.3" x2="52.1" y2="37.3"/>
<line class="st1" x1="47.2" y1="35" x2="52.1" y2="35"/>
<line class="st1" x1="47.2" y1="32.7" x2="52.1" y2="32.7"/>
<line class="st1" x1="47.2" y1="30.3" x2="52.1" y2="30.3"/>
<path class="st2" d="M43.8,286.7c-4.2,0.1-10.7-2.6-10.5-10.8c0.1-4.4,2.6-6.6,5.1-8.4l-0.2-252l1.6-3v5.8v250.2h-0.2
	c-2.9,0.9-4.4,4.7-4.4,8.5c0,4.4,2.1,9.3,9.3,9.5L43.8,286.7z"/>
<path d="M13.3,276.1c0.1-0.2,0.1-0.4,0.3-0.6c0.1-0.2,0.3-0.3,0.4-0.5c0.1-0.1,0.3-0.3,0.5-0.3s0.5-0.1,0.7-0.1
	c0.3,0,0.5,0.1,0.7,0.1c0.2,0,0.3,0.2,0.5,0.4c0.1,0.1,0.3,0.3,0.3,0.5c0.1,0.2,0.1,0.4,0.1,0.7c0,0.3-0.1,0.5-0.1,0.8
	c-0.1,0.3-0.3,0.5-0.4,0.7c-0.2,0.2-0.4,0.4-0.6,0.5c-0.3,0.1-0.5,0.2-0.8,0.2c-0.2,0-0.4-0.1-0.6-0.1s-0.3-0.2-0.5-0.3
	c-0.1-0.1-0.3-0.3-0.3-0.5c-0.1-0.2-0.1-0.4-0.1-0.7C13.3,276.5,13.3,276.3,13.3,276.1L13.3,276.1z M14.2,276.3c0,0.1,0,0.1-0.1,0.2
	c0,0.1,0,0.1,0,0.2c0,0.3,0.1,0.5,0.2,0.5c0.1,0.1,0.3,0.2,0.5,0.2c0.1,0,0.3-0.1,0.4-0.1s0.3-0.1,0.3-0.3c0.1-0.1,0.2-0.3,0.3-0.4
	s0.1-0.3,0.1-0.5s-0.1-0.4-0.2-0.5c-0.1-0.2-0.3-0.3-0.5-0.3c-0.1,0-0.3,0-0.3,0.1c-0.1,0.1-0.2,0.1-0.3,0.2s-0.1,0.2-0.2,0.3
	C14.3,276.1,14.3,276.2,14.2,276.3z"/>
<path d="M22.5,280.5c0.2-0.1,0.3-0.2,0.5-0.2s0.2,0.1,0.4,0.2c0.1,0.1,0.2,0.2,0.2,0.4c0,0.1,0,0.2-0.1,0.3
	c-0.2,0.2-0.3,0.5-0.5,0.7s-0.4,0.4-0.6,0.6s-0.5,0.3-0.7,0.4s-0.6,0.2-0.9,0.2c-0.5,0-1-0.1-1.4-0.3c-0.4-0.2-0.7-0.5-1.1-0.8
	c-0.3-0.3-0.6-0.7-0.7-1.2c-0.2-0.5-0.2-1-0.2-1.5c0-0.4,0.1-0.7,0.2-1.1c0.2-0.4,0.3-0.8,0.5-1.1c0.2-0.3,0.4-0.6,0.6-0.9
	c0.2-0.2,0.6-0.5,0.9-0.6c0.3-0.2,0.7-0.4,1.1-0.6c0.2-0.1,0.6-0.2,0.7-0.2c0.2-0.1,0.5-0.1,0.6-0.1c0.3,0,0.6,0.1,0.9,0.2
	c0.2,0.2,0.5,0.5,0.7,1c0,0.1,0.1,0.2,0.1,0.2c0,0.2-0.1,0.3-0.2,0.4s-0.2,0.2-0.4,0.2s-0.3-0.1-0.5-0.2c-0.2-0.2-0.2-0.4-0.3-0.5
	c-0.2-0.3-0.3-0.4-0.4-0.4s-0.2,0-0.3,0.1c-0.2,0.1-0.3,0.1-0.5,0.2c-0.3,0.2-0.6,0.3-1,0.5c-0.3,0.2-0.6,0.4-0.8,0.7
	c-0.2,0.2-0.4,0.6-0.6,1s-0.2,0.8-0.2,1.3c0,0.3,0.1,0.6,0.2,1c0.1,0.3,0.2,0.6,0.4,0.9c0.2,0.2,0.4,0.5,0.7,0.6
	c0.2,0.2,0.6,0.2,1,0.2c0.2,0,0.4-0.1,0.6-0.2s0.3-0.2,0.5-0.3c0.2-0.2,0.3-0.3,0.4-0.5C22.2,280.9,22.4,280.6,22.5,280.5z"/>
<path d="M61.7,276.1c0.1-0.2,0.1-0.4,0.3-0.6c0.1-0.2,0.3-0.3,0.4-0.5c0.1-0.1,0.3-0.3,0.5-0.3c0.2-0.1,0.5-0.1,0.7-0.1
	c0.3,0,0.5,0.1,0.7,0.1c0.2,0.1,0.3,0.2,0.5,0.4c0.1,0.1,0.3,0.3,0.3,0.5c0.1,0.2,0.1,0.4,0.1,0.7c0,0.3-0.1,0.5-0.1,0.8
	c-0.1,0.3-0.3,0.5-0.4,0.7c-0.2,0.2-0.4,0.4-0.6,0.5c-0.3,0.1-0.5,0.2-0.8,0.2c-0.2,0-0.4-0.1-0.6-0.1s-0.3-0.2-0.5-0.3
	c-0.1-0.1-0.3-0.3-0.3-0.5c-0.1-0.2-0.1-0.4-0.1-0.7C61.6,276.5,61.6,276.3,61.7,276.1L61.7,276.1z M62.6,276.3c0,0.1,0,0.1-0.1,0.2
	c0,0.1,0,0.1,0,0.2c0,0.3,0.1,0.5,0.2,0.5c0.1,0.1,0.3,0.2,0.5,0.2c0.1,0,0.3-0.1,0.4-0.1s0.3-0.1,0.3-0.3c0.1-0.1,0.2-0.3,0.3-0.4
	c0.1-0.1,0.1-0.3,0.1-0.5s-0.1-0.4-0.2-0.5c-0.1-0.2-0.3-0.3-0.5-0.3c-0.1,0-0.3,0-0.3,0.1c-0.1,0.1-0.2,0.1-0.3,0.2
	s-0.1,0.2-0.2,0.3C62.6,276.1,62.6,276.2,62.6,276.3z"/>
<path d="M67.6,282.9c-0.1,0.1-0.2,0.2-0.4,0.2c-0.2,0-0.2-0.1-0.3-0.2c-0.1-0.1-0.2-0.2-0.2-0.5v-3.5c-0.2-0.1-0.3-0.2-0.3-0.5
	c0-0.1,0-0.2,0.1-0.3c0.1-0.1,0.2-0.2,0.2-0.2v-0.1c0-0.1,0-0.2,0-0.4c0-0.2,0-0.3,0-0.5s0-0.5-0.1-0.8c0-0.2-0.1-0.5-0.2-0.6
	c-0.1-0.2-0.1-0.2-0.1-0.3c0-0.2,0.2-0.5,0.4-0.6c0.3-0.1,0.6-0.1,1.1-0.1c0.3,0,0.7,0,1.1,0c0.3,0,0.7,0,1.1,0c0.3,0,0.7,0,1.1-0.1
	c0.2,0,0.4,0.1,0.5,0.2s0.2,0.2,0.2,0.4s-0.1,0.2-0.2,0.3c-0.1,0.1-0.2,0.2-0.4,0.2c-0.6,0.1-1.1,0.1-1.7,0.1s-1.1,0-1.7,0.1
	c0.1,0.2,0.1,0.4,0.1,0.6s0,0.4,0,0.6s0,0.3,0,0.4c0,0.2,0,0.2,0,0.4v0.1c0.5,0,1,0,1.5,0c0.6,0,1-0.1,1.4-0.2
	c0.2,0,0.4,0.1,0.5,0.2s0.2,0.2,0.2,0.4c0,0.2-0.2,0.4-0.4,0.5c-0.2,0.1-0.6,0.2-1,0.2c-0.4,0.1-0.7,0.1-1.1,0.1s-0.8,0-1.1,0v3.3
	C67.8,282.6,67.7,282.8,67.6,282.9z"/>
<g>
	<path d="M62.5,19.6c0.1,0.1,0.1,0.2,0.1,0.3s0,0.2-0.1,0.3s-0.2,0.2-0.4,0.2h-2c-0.2,0-0.3-0.1-0.4-0.2s-0.1-0.2-0.1-0.4
		s0.1-0.2,0.2-0.4c0.1-0.1,0.3-0.2,0.5-0.2h0.4v-5.5c-0.1,0.1-0.3,0.1-0.4,0.1c-0.2,0-0.3-0.1-0.4-0.2s-0.1-0.2-0.1-0.4
		c0-0.1,0-0.2,0.1-0.3c0-0.1,0.1-0.2,0.2-0.2l0.9-0.6c0.1,0,0.2-0.1,0.3-0.1c0.3,0,0.5,0.2,0.5,0.5V19h0.6
		C62.3,19.4,62.4,19.4,62.5,19.6z"/>
	<path d="M69.7,17.2c-0.1,0.3-0.2,0.7-0.4,1.1c-0.2,0.4-0.3,0.7-0.6,1.1c-0.2,0.3-0.5,0.6-0.8,0.8s-0.7,0.4-1,0.4s-0.5,0-0.7,0
		s-0.5-0.1-0.7-0.2s-0.4-0.2-0.5-0.3c-0.2-0.1-0.3-0.2-0.4-0.4c-0.2-0.3-0.4-0.6-0.5-0.9c-0.1-0.3-0.2-0.7-0.3-1
		c-0.1-0.3-0.1-0.7-0.1-1.1s0-0.7,0.1-1.1c0.1-0.4,0.2-0.8,0.3-1.2c0.1-0.4,0.3-0.8,0.6-1.1s0.5-0.6,0.9-0.8
		c0.3-0.2,0.7-0.3,1.2-0.4c0.2,0,0.4,0,0.6,0s0.4,0.1,0.6,0.2s0.4,0.2,0.5,0.3c0.2,0.1,0.3,0.2,0.5,0.4c0.3,0.3,0.5,0.6,0.6,0.9
		c0.1,0.3,0.2,0.7,0.3,1.1c0.1,0.4,0.1,0.7,0.1,1.1C70,16.5,69.7,16.9,69.7,17.2z M68.6,17.2c0-0.3,0.1-0.5,0.1-0.8
		c0-0.3,0-0.5-0.1-0.8c0-0.2-0.1-0.5-0.1-0.7c-0.1-0.3-0.1-0.5-0.3-0.7c-0.1-0.2-0.3-0.4-0.5-0.6s-0.4-0.2-0.6-0.3
		c-0.2,0-0.5,0-0.7,0c-0.2,0.1-0.4,0.2-0.6,0.4c-0.3,0.3-0.5,0.6-0.7,1.1s-0.3,1-0.3,1.5c0,0.5,0,1,0.1,1.5s0.3,0.9,0.5,1.2
		c0.2,0.2,0.3,0.3,0.5,0.4c0.2,0.1,0.4,0.1,0.6,0.2c0.3,0,0.6-0.1,0.9-0.3c0.3-0.2,0.5-0.3,0.6-0.5c0.2-0.2,0.3-0.5,0.4-0.7
		C68.4,17.9,68.5,17.6,68.6,17.2L68.6,17.2z"/>
	<path d="M76.7,17.2c-0.1,0.3-0.2,0.7-0.4,1.1c-0.2,0.4-0.3,0.7-0.6,1.1c-0.2,0.3-0.5,0.6-0.8,0.8s-0.6,0.4-1,0.4
		c-0.3,0-0.5,0-0.7,0s-0.5-0.1-0.7-0.2s-0.4-0.2-0.5-0.3c-0.2-0.1-0.3-0.2-0.4-0.4c-0.2-0.3-0.4-0.6-0.5-0.9s-0.2-0.7-0.3-1
		c-0.1-0.3-0.1-0.7-0.1-1.1s0-0.7,0.1-1.1c0.1-0.4,0.2-0.8,0.3-1.2c0.1-0.4,0.3-0.8,0.6-1.1c0.2-0.3,0.5-0.6,0.9-0.8
		c0.3-0.2,0.7-0.3,1.2-0.4c0.2,0,0.4,0,0.6,0s0.4,0.1,0.6,0.2s0.4,0.2,0.5,0.3c0.2,0.1,0.3,0.2,0.5,0.4c0.3,0.3,0.5,0.6,0.6,0.9
		c0.1,0.3,0.2,0.7,0.3,1.1c0.1,0.4,0.1,0.7,0.1,1.1C77,16.5,76.7,16.9,76.7,17.2z M75.6,17.2c0-0.3,0.1-0.5,0.1-0.8
		c0-0.3,0-0.5-0.1-0.8c0-0.2-0.1-0.5-0.1-0.7c-0.1-0.3-0.1-0.5-0.3-0.7c-0.1-0.2-0.3-0.4-0.5-0.6c-0.2-0.1-0.4-0.2-0.6-0.3
		s-0.5,0-0.7,0c-0.2,0.1-0.4,0.2-0.6,0.4c-0.3,0.3-0.5,0.6-0.7,1.1s-0.3,1-0.3,1.5c0,0.5,0,1,0.1,1.5s0.3,0.9,0.5,1.2
		c0.2,0.2,0.3,0.3,0.5,0.4c0.2,0.1,0.4,0.1,0.6,0.2c0.3,0,0.6-0.1,0.9-0.3c0.3-0.2,0.5-0.3,0.6-0.5c0.2-0.2,0.3-0.5,0.4-0.7
		C75.4,17.9,75.5,17.6,75.6,17.2L75.6,17.2z"/>
</g>
<path class="st1" d="M47.1,262.9"/>
<path class="st1" d="M47.1,260.5"/>
<path class="st1" d="M47.1,258.1"/>
<path class="st1" d="M47.1,255.9"/>
<path class="st1" d="M47.1,266.5"/>
<path class="st1" d="M47.1,262.9"/>
<path class="st1" d="M47.1,262.9"/>
<path d="M67.2,249.4c-0.1,0.3-0.2,0.7-0.4,1.1c-0.2,0.4-0.3,0.7-0.6,1.1c-0.2,0.3-0.5,0.6-0.8,0.8s-0.6,0.4-1,0.4
	c-0.3,0-0.5,0-0.7,0s-0.5-0.1-0.7-0.2s-0.4-0.2-0.5-0.3c-0.2-0.1-0.3-0.2-0.4-0.4c-0.2-0.3-0.4-0.6-0.5-0.9s-0.2-0.7-0.3-1
	s-0.1-0.7-0.1-1.1s0-0.7,0.1-1.1s0.2-0.8,0.3-1.2s0.3-0.8,0.6-1.1s0.5-0.6,0.9-0.8c0.3-0.2,0.7-0.3,1.2-0.4c0.2,0,0.4,0,0.6,0
	s0.4,0.1,0.6,0.2c0.2,0.1,0.4,0.2,0.5,0.3c0.2,0.1,0.3,0.2,0.5,0.4c0.3,0.3,0.5,0.6,0.6,0.9s0.2,0.7,0.3,1.1
	c0.1,0.4,0.1,0.7,0.1,1.1S67.3,249,67.2,249.4z M66.1,249.3c0-0.3,0.1-0.5,0.1-0.8s0-0.5-0.1-0.8c0-0.2-0.1-0.5-0.1-0.7
	c-0.1-0.2-0.1-0.4-0.3-0.7c-0.1-0.2-0.3-0.4-0.5-0.6c-0.2-0.1-0.4-0.2-0.6-0.3s-0.5,0-0.7,0c-0.2,0.1-0.4,0.2-0.6,0.4
	c-0.3,0.3-0.5,0.6-0.7,1.1s-0.3,1-0.3,1.5s0,1,0.1,1.5s0.3,0.9,0.5,1.2c0.2,0.2,0.3,0.3,0.5,0.4s0.4,0.1,0.6,0.2
	c0.3,0,0.6-0.1,0.9-0.3s0.5-0.3,0.6-0.5c0.2-0.2,0.3-0.5,0.4-0.7C66,249.9,66.1,249.6,66.1,249.3L66.1,249.3z"/>
<g>
	<path d="M64.1,228.5c0.1,0.1,0.1,0.2,0.1,0.3s0,0.2-0.1,0.3c-0.1,0.1-0.2,0.2-0.4,0.2h-2c-0.2,0-0.3-0.1-0.4-0.2s-0.1-0.2-0.1-0.4
		s0.1-0.2,0.2-0.4c0.1-0.1,0.3-0.2,0.5-0.2h0.4v-5.5c-0.1,0.1-0.3,0.1-0.4,0.1c-0.2,0-0.3-0.1-0.4-0.2s-0.1-0.2-0.1-0.4
		c0-0.1,0-0.2,0.1-0.3c0-0.1,0.1-0.2,0.2-0.2l0.9-0.6c0.1,0,0.2-0.1,0.3-0.1c0.3,0,0.5,0.2,0.5,0.5v6.5H64
		C63.9,228.4,64,228.5,64.1,228.5z"/>
	<path d="M71.3,226.2c-0.1,0.3-0.2,0.7-0.4,1.1c-0.2,0.4-0.3,0.7-0.6,1.1c-0.2,0.3-0.5,0.6-0.8,0.8s-0.6,0.4-1,0.4
		c-0.3,0-0.5,0-0.7,0s-0.5-0.1-0.7-0.2c-0.2-0.1-0.4-0.2-0.5-0.3c-0.2-0.1-0.3-0.2-0.4-0.4c-0.2-0.3-0.4-0.6-0.5-0.9
		c-0.1-0.3-0.2-0.7-0.3-1s-0.1-0.7-0.1-1.1c0-0.4,0-0.7,0.1-1.1c0.1-0.4,0.2-0.8,0.3-1.2c0.1-0.4,0.3-0.8,0.6-1.1
		c0.3-0.3,0.5-0.6,0.9-0.8c0.3-0.2,0.7-0.3,1.2-0.4c0.2,0,0.4,0,0.6,0s0.4,0.1,0.6,0.2c0.2,0.1,0.4,0.2,0.5,0.3
		c0.2,0.1,0.3,0.2,0.5,0.4c0.3,0.3,0.5,0.6,0.6,0.9c0.1,0.3,0.2,0.7,0.3,1.1c0.1,0.4,0.1,0.7,0.1,1.1S71.3,226,71.3,226.2z
		 M70.2,226.2c0-0.3,0.1-0.5,0.1-0.8s0-0.5-0.1-0.8c0-0.2-0.1-0.5-0.1-0.7c-0.1-0.2-0.1-0.4-0.3-0.7c-0.1-0.2-0.3-0.4-0.5-0.6
		c-0.2-0.1-0.4-0.2-0.6-0.3s-0.5,0-0.7,0c-0.2,0.1-0.4,0.2-0.6,0.4c-0.3,0.3-0.5,0.6-0.7,1.1s-0.3,1-0.3,1.5s0,1,0.1,1.5
		c0.1,0.5,0.3,0.9,0.5,1.2c0.2,0.2,0.3,0.3,0.5,0.4c0.2,0.1,0.4,0.1,0.6,0.2c0.3,0,0.6-0.1,0.9-0.3c0.2-0.1,0.5-0.3,0.6-0.5
		c0.2-0.2,0.3-0.5,0.4-0.7C70,226.8,70.1,226.5,70.2,226.2L70.2,226.2z"/>
</g>
<g>
	<path d="M64.8,199.5c-0.1-0.2-0.2-0.3-0.3-0.4c-0.1-0.1-0.2-0.2-0.4-0.2c-0.4,0-0.7,0.1-1.1,0.3c-0.3,0.2-0.6,0.5-0.9,0.7
		c-0.1,0.1-0.3,0.1-0.4,0.1c-0.2,0-0.3-0.1-0.4-0.2s-0.1-0.2-0.1-0.4c0-0.1,0-0.3,0.1-0.4c0.2-0.2,0.3-0.4,0.5-0.5
		c0.2-0.2,0.4-0.3,0.6-0.5c0.2-0.1,0.4-0.2,0.7-0.3c0.2-0.1,0.5-0.1,0.7-0.1c0.3,0,0.5,0.1,0.8,0.2c0.2,0.1,0.5,0.3,0.6,0.5
		c0.2,0.2,0.3,0.5,0.4,0.8s0.2,0.6,0.2,1c0,0.1,0,0.2,0,0.4c-0.1,0.4-0.2,0.7-0.4,1c-0.2,0.3-0.4,0.5-0.7,0.7
		c-0.2,0.2-0.5,0.3-0.8,0.5c-0.3,0.1-0.5,0.3-0.7,0.5s-0.4,0.4-0.6,0.6c-0.2,0.3-0.3,0.6-0.3,1H65c0.1,0,0.2,0,0.2,0
		c0.1,0,0.1-0.1,0.1-0.1s0.1-0.1,0.1-0.2c0.1-0.1,0.1-0.1,0.2-0.2c0,0,0.1,0,0.2-0.1c0.1,0,0.1,0,0.2,0c0.2,0,0.3,0.1,0.4,0.2
		s0.1,0.2,0.1,0.4c0,0.1,0,0.2,0,0.2c0,0.1,0,0.1-0.1,0.1c-0.2,0.2-0.4,0.4-0.6,0.6c-0.2,0.1-0.5,0.2-0.8,0.2h-3.2
		c-0.3,0-0.5-0.2-0.6-0.6c0-0.3,0.1-0.6,0.1-0.9c0.1-0.3,0.1-0.5,0.2-0.8s0.2-0.5,0.4-0.7c0.1-0.2,0.3-0.4,0.6-0.6
		c0.2-0.2,0.4-0.3,0.7-0.5c0.3-0.1,0.5-0.3,0.8-0.5c0.2-0.2,0.4-0.4,0.6-0.6c0.2-0.2,0.3-0.5,0.3-0.8
		C64.9,199.7,64.9,199.6,64.8,199.5L64.8,199.5z"/>
	<path d="M73.1,202.8c-0.1,0.3-0.2,0.7-0.4,1.1c-0.2,0.4-0.3,0.7-0.6,1.1c-0.2,0.3-0.5,0.6-0.8,0.8s-0.7,0.4-1,0.4s-0.5,0-0.7,0
		s-0.5-0.1-0.7-0.2c-0.2-0.1-0.4-0.2-0.5-0.3c-0.2-0.1-0.3-0.2-0.4-0.4c-0.2-0.3-0.4-0.6-0.5-0.9c-0.1-0.3-0.2-0.7-0.3-1
		c-0.1-0.3-0.1-0.7-0.1-1.1c0-0.4,0-0.7,0.1-1.1c0.1-0.4,0.2-0.8,0.3-1.2c0.1-0.4,0.3-0.8,0.6-1.1s0.5-0.6,0.9-0.8
		c0.3-0.2,0.7-0.3,1.2-0.4c0.2,0,0.4,0,0.6,0s0.4,0.1,0.6,0.2c0.2,0.1,0.4,0.2,0.5,0.3c0.2,0.1,0.3,0.2,0.5,0.4
		c0.3,0.3,0.5,0.6,0.6,0.9c0.1,0.3,0.2,0.7,0.3,1.1c0.1,0.4,0.1,0.7,0.1,1.1S73.2,202.5,73.1,202.8z M72.1,202.6
		c0-0.3,0.1-0.5,0.1-0.8s0-0.5-0.1-0.8c0-0.2-0.1-0.5-0.1-0.7c-0.1-0.2-0.1-0.4-0.3-0.7c-0.1-0.2-0.3-0.4-0.5-0.6s-0.4-0.2-0.6-0.3
		s-0.5,0-0.7,0c-0.2,0.1-0.4,0.2-0.6,0.4c-0.3,0.3-0.5,0.6-0.7,1.1s-0.3,1-0.3,1.5s0,1,0.1,1.5s0.3,0.9,0.5,1.2
		c0.2,0.2,0.3,0.3,0.5,0.4c0.2,0.1,0.4,0.1,0.6,0.2c0.3,0,0.6-0.1,0.9-0.3s0.5-0.3,0.6-0.5c0.2-0.2,0.3-0.5,0.4-0.7
		C71.9,203.3,72,203,72.1,202.6L72.1,202.6z"/>
</g>
<g>
	<path d="M61.4,181.5c-0.1-0.1-0.1-0.3-0.1-0.4c0-0.2,0-0.3,0.1-0.4s0.2-0.1,0.4-0.1c0.1,0,0.2,0,0.4,0.1c0.1,0.1,0.3,0.2,0.4,0.3
		s0.3,0.2,0.4,0.3s0.3,0.1,0.5,0.1s0.5-0.1,0.6-0.2c0.2-0.1,0.3-0.2,0.5-0.4c0.1-0.2,0.2-0.4,0.3-0.6c0.1-0.2,0.1-0.4,0.1-0.6
		c0-0.2-0.1-0.4-0.2-0.6s-0.3-0.3-0.6-0.4c-0.2-0.1-0.5-0.2-0.7-0.2s-0.4-0.1-0.6-0.1s-0.3-0.1-0.4-0.2s-0.1-0.2-0.1-0.3
		s0-0.2,0.1-0.3s0.2-0.2,0.4-0.2s0.3,0,0.5-0.1c0.2,0,0.3-0.1,0.5-0.2s0.3-0.2,0.5-0.3c0.1-0.1,0.2-0.2,0.3-0.4V176l-0.1-0.3
		c0-0.1-0.1-0.2-0.1-0.2s-0.2-0.1-0.3-0.1c-0.1,0-0.2-0.1-0.3-0.1s-0.2,0-0.3,0c-0.2,0-0.4,0-0.7,0.1c-0.2,0-0.4,0.1-0.5,0.2
		c-0.1,0.1-0.2,0.1-0.3,0.2s-0.2,0.1-0.3,0.1s-0.3-0.1-0.4-0.2s-0.2-0.3-0.2-0.5s0.1-0.3,0.2-0.4c0.1-0.1,0.3-0.2,0.4-0.3
		c0.2-0.1,0.4-0.1,0.5-0.1c0.2,0,0.4-0.1,0.5-0.1s0.3,0,0.4,0s0.1,0,0.1,0c0.3,0,0.6,0,0.9,0.1s0.5,0.2,0.7,0.3
		c0.2,0.2,0.4,0.4,0.5,0.6c0.1,0.2,0.2,0.5,0.2,0.8c0,0.1,0,0.2,0,0.3s0,0.3-0.1,0.4c-0.1,0.1-0.1,0.3-0.3,0.5
		c-0.1,0.2-0.3,0.3-0.6,0.5c0.2,0.1,0.3,0.2,0.5,0.3s0.3,0.3,0.4,0.4c0.1,0.2,0.2,0.3,0.3,0.5s0.1,0.4,0.1,0.6c0,0.3-0.1,0.7-0.2,1
		c-0.2,0.3-0.4,0.6-0.6,0.9s-0.5,0.5-0.8,0.6c-0.3,0.2-0.6,0.2-0.9,0.2c-0.4,0-0.8-0.1-1.1-0.3S61.7,181.9,61.4,181.5z"/>
	<path d="M73.3,179.4c-0.1,0.3-0.2,0.7-0.4,1.1c-0.2,0.4-0.3,0.7-0.6,1.1c-0.2,0.3-0.5,0.6-0.8,0.8s-0.7,0.4-1,0.4s-0.5,0-0.7,0
		s-0.5-0.1-0.7-0.2c-0.2-0.1-0.4-0.2-0.5-0.3c-0.2-0.1-0.3-0.2-0.4-0.4c-0.2-0.3-0.4-0.6-0.5-0.9c-0.1-0.3-0.2-0.7-0.3-1
		c-0.1-0.3-0.1-0.7-0.1-1.1c0-0.4,0-0.7,0.1-1.1c0.1-0.4,0.2-0.8,0.3-1.2c0.1-0.4,0.3-0.8,0.6-1.1s0.5-0.6,0.9-0.8
		c0.3-0.2,0.7-0.3,1.2-0.4c0.2,0,0.4,0,0.6,0s0.4,0.1,0.6,0.2c0.2,0.1,0.4,0.2,0.5,0.3c0.2,0.1,0.3,0.2,0.5,0.4
		c0.3,0.3,0.5,0.6,0.6,0.9c0.1,0.3,0.2,0.7,0.3,1.1c0.1,0.4,0.1,0.7,0.1,1.1S73.4,179.1,73.3,179.4z M72.3,179.2
		c0-0.3,0.1-0.5,0.1-0.8s0-0.5-0.1-0.8c0-0.2-0.1-0.5-0.1-0.7c-0.1-0.2-0.1-0.4-0.3-0.7c-0.1-0.2-0.3-0.4-0.5-0.6s-0.4-0.2-0.6-0.3
		s-0.5,0-0.7,0c-0.2,0.1-0.4,0.2-0.6,0.4c-0.3,0.3-0.5,0.6-0.7,1.1s-0.3,1-0.3,1.5s0,1,0.1,1.5s0.3,0.9,0.5,1.2
		c0.2,0.2,0.3,0.3,0.5,0.4c0.2,0.1,0.4,0.1,0.6,0.2c0.3,0,0.6-0.1,0.9-0.3s0.5-0.3,0.6-0.5c0.2-0.2,0.3-0.5,0.4-0.7
		C72.1,179.9,72.2,179.5,72.3,179.2L72.3,179.2z"/>
</g>
<g>
	<path d="M65.6,159.3c-0.1,0.1-0.2,0.2-0.4,0.2c-0.1,0-0.2,0-0.3-0.1s-0.2-0.4-0.2-0.6v-1.5c-0.5,0-1,0-1.5,0s-1,0-1.4,0
		s-0.6-0.2-0.6-0.6c0,0,0-0.1,0-0.2c0.5-0.9,1-1.7,1.5-2.6c0.5-0.8,1-1.7,1.5-2.6c0.1-0.1,0.2-0.2,0.2-0.3c0.1-0.1,0.2-0.1,0.3-0.1
		c0.1,0,0.2,0,0.4,0.1c0.1,0.1,0.2,0.2,0.2,0.4c0,0.1,0,0.2-0.1,0.3c-0.4,0.7-0.8,1.4-1.2,2.1s-0.8,1.4-1.2,2.1c0.3,0,0.6,0,0.9,0
		c0.3,0,0.7,0,1,0v-1.5c0-0.2,0.1-0.3,0.2-0.4s0.2-0.1,0.3-0.1c0.1,0,0.2,0,0.3,0.1s0.2,0.2,0.2,0.4v1.5h0.8
		c0.2,0.1,0.3,0.1,0.4,0.2c0.1,0.1,0.1,0.2,0.1,0.3s0,0.2-0.1,0.3c-0.1,0.1-0.2,0.2-0.4,0.2c-0.1,0-0.2,0-0.4,0c-0.1,0-0.3,0-0.4,0
		v1.4C65.7,159,65.7,159.1,65.6,159.3z"/>
	<path d="M73.8,156c-0.1,0.3-0.2,0.7-0.4,1.1c-0.2,0.4-0.3,0.7-0.6,1.1c-0.2,0.3-0.5,0.6-0.8,0.8s-0.7,0.4-1,0.4s-0.5,0-0.7,0
		s-0.5-0.1-0.7-0.2c-0.2-0.1-0.4-0.2-0.5-0.3c-0.2-0.1-0.3-0.2-0.4-0.4c-0.2-0.3-0.4-0.6-0.5-0.9c-0.1-0.3-0.2-0.7-0.3-1
		c-0.1-0.3-0.1-0.7-0.1-1.1c0-0.4,0-0.7,0.1-1.1c0.1-0.4,0.2-0.8,0.3-1.2s0.3-0.8,0.6-1.1c0.3-0.3,0.5-0.6,0.9-0.8
		c0.3-0.2,0.7-0.3,1.2-0.4c0.2,0,0.4,0,0.6,0s0.4,0.1,0.6,0.2c0.2,0.1,0.4,0.2,0.5,0.3c0.2,0.1,0.3,0.2,0.5,0.4
		c0.3,0.3,0.5,0.6,0.6,0.9c0.1,0.3,0.2,0.7,0.3,1.1c0.1,0.4,0.1,0.7,0.1,1.1S73.9,155.6,73.8,156z M72.8,155.8
		c0-0.3,0.1-0.5,0.1-0.8s0-0.5-0.1-0.8c0-0.2-0.1-0.5-0.1-0.7c-0.1-0.2-0.1-0.4-0.3-0.7c-0.1-0.2-0.3-0.4-0.5-0.6s-0.4-0.2-0.6-0.3
		s-0.5,0-0.7,0c-0.2,0.1-0.4,0.2-0.6,0.4c-0.3,0.3-0.5,0.6-0.7,1.1s-0.3,1-0.3,1.5s0,1,0.1,1.5c0.1,0.5,0.3,0.9,0.5,1.2
		c0.2,0.2,0.3,0.3,0.5,0.4c0.2,0.1,0.4,0.1,0.6,0.2c0.3,0,0.6-0.1,0.9-0.3s0.5-0.3,0.6-0.5c0.2-0.2,0.3-0.5,0.4-0.7
		C72.6,156.4,72.7,156.1,72.8,155.8L72.8,155.8z"/>
</g>
<g>
	<path d="M61.5,135.2c-0.1-0.2-0.2-0.3-0.2-0.5s0-0.3,0.1-0.4s0.2-0.2,0.4-0.2c0.1,0,0.2,0,0.3,0c0.2,0.2,0.5,0.3,0.7,0.4
		c0.2,0.1,0.5,0.1,0.8,0.1c0.2,0,0.4,0,0.6-0.1s0.4-0.2,0.5-0.3c0.2-0.1,0.3-0.3,0.4-0.5c0.1-0.2,0.1-0.4,0.1-0.7
		c0-0.2-0.1-0.5-0.2-0.6c-0.1-0.2-0.3-0.3-0.4-0.4c-0.1-0.1-0.4-0.2-0.6-0.2c-0.2,0-0.4-0.1-0.6-0.1s-0.3,0-0.4,0s-0.3,0.1-0.4,0.1
		s-0.1,0.1-0.2,0.1l-0.1,0.1l-0.1,0.1c0,0-0.1,0-0.2,0s-0.3,0-0.4-0.1s-0.2-0.3-0.2-0.5c0-0.5,0-0.9,0-1.4c0-0.5,0-0.9,0-1.4
		c-0.1-0.1-0.2-0.3-0.2-0.4c0-0.1,0.1-0.3,0.2-0.4s0.3-0.2,0.5-0.2c0.1,0,0.2,0,0.4,0s0.4,0,0.7,0s0.5,0,0.8,0c0.3,0,0.5,0,0.8,0
		c0.2,0,0.5,0,0.7,0s0.3,0,0.4,0c0.2,0,0.3,0.1,0.4,0.2c0.1,0.1,0.1,0.2,0.1,0.3s0,0.3-0.1,0.4c-0.1,0.1-0.2,0.2-0.4,0.2
		c-0.5,0-1,0-1.5,0c-0.5,0-1,0-1.5,0c0,0.3,0,0.6,0,0.9s0,0.6,0,0.9c0.2,0,0.3-0.1,0.5-0.1s0.3,0,0.5,0c0.4,0,0.8,0.1,1.2,0.2
		c0.3,0.1,0.6,0.3,0.9,0.6c0.2,0.2,0.4,0.5,0.6,0.8c0.1,0.3,0.2,0.6,0.2,1c0,0.3-0.1,0.6-0.2,1c-0.1,0.3-0.3,0.6-0.6,0.9
		c-0.3,0.3-0.6,0.5-0.9,0.6s-0.7,0.2-1.1,0.2s-0.7-0.1-1.1-0.2C62.1,135.7,61.8,135.4,61.5,135.2z"/>
	<path d="M73.4,132.7c-0.1,0.3-0.2,0.7-0.4,1.1c-0.2,0.4-0.3,0.7-0.6,1.1c-0.2,0.3-0.5,0.6-0.8,0.8s-0.7,0.4-1,0.4s-0.5,0-0.7,0
		s-0.5-0.1-0.7-0.2c-0.2-0.1-0.4-0.2-0.5-0.3c-0.2-0.1-0.3-0.2-0.4-0.4c-0.2-0.3-0.4-0.6-0.5-0.9c-0.1-0.3-0.2-0.7-0.3-1
		c-0.1-0.3-0.1-0.7-0.1-1.1c0-0.4,0-0.7,0.1-1.1c0.1-0.4,0.2-0.8,0.3-1.2s0.3-0.8,0.6-1.1c0.3-0.3,0.5-0.6,0.9-0.8
		c0.3-0.2,0.7-0.3,1.2-0.4c0.2,0,0.4,0,0.6,0s0.4,0.1,0.6,0.2s0.4,0.2,0.5,0.3c0.2,0.1,0.3,0.2,0.5,0.4c0.3,0.3,0.5,0.6,0.6,0.9
		c0.1,0.3,0.2,0.7,0.3,1.1c0.1,0.4,0.1,0.7,0.1,1.1S73.5,132.4,73.4,132.7z M72.4,132.5c0-0.3,0.1-0.5,0.1-0.8s0-0.5-0.1-0.8
		c0-0.2-0.1-0.5-0.1-0.7c-0.1-0.2-0.1-0.4-0.3-0.7c-0.1-0.2-0.3-0.4-0.5-0.6s-0.4-0.2-0.6-0.3s-0.5,0-0.7,0
		c-0.2,0.1-0.4,0.2-0.6,0.4c-0.3,0.3-0.5,0.6-0.7,1.1c-0.2,0.5-0.3,1-0.3,1.5s0,1,0.1,1.5c0.1,0.5,0.3,0.9,0.5,1.2
		c0.2,0.2,0.3,0.3,0.5,0.4c0.2,0.1,0.4,0.1,0.6,0.2c0.3,0,0.6-0.1,0.9-0.3s0.5-0.3,0.6-0.5c0.2-0.2,0.3-0.5,0.4-0.7
		C72.2,133.2,72.3,132.9,72.4,132.5L72.4,132.5z"/>
</g>
<g>
	<path d="M64.7,105.2c-0.4,0.4-0.8,0.8-1.2,1.3s-0.7,1.1-0.9,1.6c0.5-0.3,1-0.5,1.6-0.5c0.3,0,0.6,0.1,0.9,0.2s0.5,0.3,0.7,0.5
		s0.4,0.4,0.5,0.7s0.2,0.6,0.2,1s-0.1,0.8-0.2,1.1s-0.3,0.6-0.5,0.8s-0.5,0.4-0.8,0.5s-0.6,0.2-1,0.2s-0.8-0.1-1.2-0.2
		c-0.4-0.2-0.7-0.4-0.9-0.7c-0.1-0.2-0.2-0.3-0.3-0.4s-0.1-0.2-0.2-0.3c0-0.1-0.1-0.2-0.1-0.3s-0.1-0.3-0.1-0.5c0-0.1,0-0.3,0-0.5
		c0-0.5,0.1-0.9,0.2-1.4s0.3-0.9,0.6-1.4c0.2-0.5,0.5-0.9,0.8-1.3s0.7-0.8,1-1.1c0.1-0.1,0.3-0.2,0.4-0.2c0.1,0,0.3,0,0.4,0.1
		c0.1,0.1,0.1,0.2,0.1,0.4C64.9,105,64.9,105.1,64.7,105.2z M62.6,109.8L62.6,109.8c-0.1,0.1-0.1,0.1-0.2,0.2c0,0.1,0,0.2,0.1,0.3
		c0,0.1,0.1,0.2,0.1,0.3c0.3,0.4,0.5,0.7,0.8,0.8s0.5,0.2,0.8,0.2c0.3,0,0.6-0.1,0.8-0.2c0.2-0.1,0.3-0.3,0.4-0.4
		c0.1-0.2,0.1-0.3,0.2-0.5c0-0.2,0-0.3,0-0.4c0-0.2,0-0.4-0.1-0.6s-0.2-0.3-0.3-0.4c-0.1-0.1-0.2-0.2-0.4-0.2
		c-0.1,0-0.3-0.1-0.4-0.1c-0.3,0-0.7,0.1-0.9,0.3C63.1,109.2,62.8,109.5,62.6,109.8z"/>
	<path d="M73.5,109.5c-0.1,0.3-0.2,0.7-0.4,1.1c-0.2,0.4-0.3,0.7-0.6,1.1c-0.2,0.3-0.5,0.6-0.8,0.8s-0.7,0.4-1,0.4s-0.5,0-0.7,0
		s-0.5-0.1-0.7-0.2s-0.4-0.2-0.5-0.3c-0.2-0.1-0.3-0.2-0.4-0.4c-0.2-0.3-0.4-0.6-0.5-0.9s-0.2-0.7-0.3-1c-0.1-0.3-0.1-0.7-0.1-1.1
		s0-0.7,0.1-1.1s0.2-0.8,0.3-1.2c0.1-0.4,0.3-0.8,0.6-1.1s0.5-0.6,0.9-0.8c0.3-0.2,0.7-0.3,1.2-0.4c0.2,0,0.4,0,0.6,0
		s0.4,0.1,0.6,0.2s0.4,0.2,0.5,0.3c0.2,0.1,0.3,0.2,0.5,0.4c0.3,0.3,0.5,0.6,0.6,0.9s0.2,0.7,0.3,1.1c0.1,0.4,0.1,0.7,0.1,1.1
		S73.6,109.2,73.5,109.5z M72.5,109.3c0-0.3,0.1-0.5,0.1-0.8s0-0.5-0.1-0.8c0-0.2-0.1-0.5-0.1-0.7c-0.1-0.2-0.1-0.4-0.3-0.7
		c-0.1-0.2-0.3-0.4-0.5-0.6s-0.4-0.2-0.6-0.3s-0.5,0-0.7,0c-0.2,0.1-0.4,0.2-0.6,0.4c-0.3,0.3-0.5,0.6-0.7,1.1s-0.3,1-0.3,1.5
		s0,1,0.1,1.5s0.3,0.9,0.5,1.2c0.2,0.2,0.3,0.3,0.5,0.4s0.4,0.1,0.6,0.2c0.3,0,0.6-0.1,0.9-0.3s0.5-0.3,0.6-0.5
		c0.2-0.2,0.3-0.5,0.4-0.7C72.3,110,72.4,109.8,72.5,109.3L72.5,109.3z"/>
</g>
<g>
	<path d="M63.9,89.1c-0.1,0.2-0.1,0.3-0.2,0.3c-0.1,0.1-0.2,0.1-0.3,0.1s-0.2,0-0.3-0.1s-0.2-0.2-0.2-0.4c0.1-0.5,0.2-1.1,0.3-1.7
		c0.2-0.6,0.3-1.2,0.6-1.8c0.2-0.6,0.5-1.1,0.8-1.7c0.3-0.5,0.6-1,0.9-1.4h-3.8c-0.2,0-0.3-0.1-0.4-0.2s-0.1-0.2-0.1-0.3
		c0-0.1,0.1-0.3,0.2-0.4s0.3-0.2,0.5-0.2h4.9c0.3,0.1,0.5,0.3,0.5,0.5c0,0.1,0,0.2-0.1,0.3c-0.1,0.2-0.2,0.3-0.4,0.4
		c-0.1,0.1-0.2,0.3-0.4,0.5c-0.3,0.4-0.6,0.9-0.8,1.4s-0.5,1-0.7,1.5c-0.2,0.5-0.4,1-0.5,1.6C64.1,88,64,88.5,63.9,89.1z"/>
	<path d="M73.6,86.1c-0.1,0.3-0.2,0.7-0.4,1.1s-0.3,0.7-0.6,1.1c-0.2,0.3-0.5,0.6-0.8,0.8c-0.3,0.2-0.6,0.4-1,0.4
		c-0.3,0-0.5,0-0.7,0s-0.5-0.1-0.7-0.2S69,89.1,68.9,89c-0.2-0.1-0.3-0.2-0.4-0.4c-0.2-0.3-0.4-0.6-0.5-0.9s-0.2-0.7-0.3-1
		c-0.1-0.3-0.1-0.7-0.1-1.1s0-0.7,0.1-1.1s0.2-0.8,0.3-1.2c0.1-0.4,0.3-0.8,0.6-1.1s0.5-0.6,0.9-0.8c0.3-0.2,0.7-0.3,1.2-0.4
		c0.2,0,0.4,0,0.6,0s0.4,0.1,0.6,0.2s0.4,0.2,0.5,0.3c0.2,0.1,0.3,0.2,0.5,0.4c0.3,0.3,0.5,0.6,0.6,0.9s0.2,0.7,0.3,1.1
		c0.1,0.4,0.1,0.7,0.1,1.1S73.6,85.7,73.6,86.1z M72.5,86c0-0.3,0.1-0.5,0.1-0.8s0-0.5-0.1-0.8c0-0.2-0.1-0.5-0.1-0.7
		c-0.1-0.2-0.1-0.4-0.3-0.7c-0.1-0.2-0.3-0.4-0.5-0.6c-0.2-0.1-0.4-0.2-0.6-0.3s-0.5,0-0.7,0c-0.2,0.1-0.4,0.2-0.6,0.4
		c-0.3,0.3-0.5,0.6-0.7,1.1s-0.3,1-0.3,1.5s0,1,0.1,1.5s0.3,0.9,0.5,1.2c0.2,0.2,0.3,0.3,0.5,0.4s0.4,0.1,0.6,0.2
		c0.3,0,0.6-0.1,0.9-0.3s0.5-0.3,0.6-0.5c0.2-0.2,0.3-0.5,0.4-0.7C72.3,86.6,72.4,86.4,72.5,86L72.5,86z"/>
</g>
<g>
	<path d="M61.2,64c0.1-0.3,0.1-0.5,0.2-0.8c0.1-0.2,0.2-0.5,0.4-0.7s0.3-0.3,0.5-0.5c0.2-0.1,0.4-0.3,0.6-0.4
		c-0.4-0.3-0.7-0.6-0.9-1s-0.4-0.8-0.4-1.3c0-0.3,0.1-0.6,0.3-0.8s0.4-0.4,0.6-0.5s0.6-0.2,0.9-0.3s0.6-0.1,0.9-0.1
		c0.2,0,0.5,0,0.8,0.1c0.3,0.1,0.5,0.2,0.7,0.3s0.4,0.3,0.5,0.5c0.1,0.2,0.2,0.5,0.2,0.8s0,0.5-0.1,0.8c-0.1,0.3-0.2,0.4-0.3,0.6
		s-0.3,0.4-0.5,0.5c-0.2,0.2-0.4,0.3-0.7,0.5c0.2,0.1,0.5,0.3,0.7,0.5c0.2,0.2,0.4,0.3,0.6,0.5s0.3,0.4,0.4,0.6
		c0.1,0.2,0.2,0.5,0.2,0.7c0,0.2-0.1,0.5-0.2,0.7c-0.1,0.2-0.3,0.4-0.5,0.6s-0.4,0.3-0.7,0.5c-0.3,0.2-0.6,0.3-0.8,0.3
		c-0.3,0.1-0.6,0.1-0.9,0.1s-0.6,0-0.9-0.1s-0.6-0.3-0.9-0.5c-0.3-0.2-0.4-0.4-0.5-0.6s-0.1-0.5-0.2-0.8L61.2,64z M62.4,63.5
		c0,0.1,0,0.1-0.1,0.2c0,0.1,0,0.1-0.1,0.2c0,0.1,0,0.2,0,0.2c0,0.1,0,0.2,0,0.2c0.1,0.2,0.2,0.3,0.3,0.4s0.2,0.2,0.4,0.2
		c0.1,0,0.3,0.1,0.4,0.1s0.2,0,0.3,0c0.2,0,0.3,0,0.5-0.1c0.2,0,0.4-0.1,0.5-0.2c0.2-0.1,0.3-0.2,0.4-0.4c0.1-0.2,0.2-0.4,0.3-0.6
		c0-0.2-0.1-0.3-0.2-0.5c-0.1-0.2-0.3-0.3-0.5-0.4c-0.2-0.1-0.4-0.3-0.5-0.4c-0.2-0.1-0.4-0.2-0.5-0.3c-0.3,0.2-0.6,0.4-0.8,0.6
		C62.8,63.1,62.6,63.2,62.4,63.5z M62.7,59.9c0.2,0.3,0.3,0.5,0.5,0.7s0.4,0.4,0.7,0.6c0.3-0.2,0.5-0.3,0.8-0.5
		c0.2-0.2,0.4-0.4,0.6-0.7c0-0.1,0-0.1,0-0.2s0-0.1,0-0.2v-0.1v-0.1c-0.2-0.2-0.3-0.3-0.5-0.3C64.6,59,64.4,59,64.2,59
		c-0.1,0-0.3,0-0.4,0s-0.3,0.1-0.5,0.1s-0.3,0.1-0.4,0.2s-0.2,0.2-0.2,0.4C62.7,59.8,62.7,59.8,62.7,59.9
		C62.7,59.6,62.7,59.7,62.7,59.9z"/>
	<path d="M73.5,62.7c-0.1,0.3-0.2,0.7-0.4,1.1c-0.2,0.4-0.3,0.7-0.6,1.1c-0.2,0.3-0.5,0.6-0.8,0.8c-0.3,0.2-0.7,0.4-1,0.4
		s-0.5,0-0.7,0s-0.5-0.1-0.7-0.2c-0.2-0.1-0.4-0.2-0.5-0.3c-0.2-0.1-0.3-0.2-0.4-0.4c-0.2-0.3-0.4-0.6-0.5-0.9
		c-0.1-0.3-0.2-0.7-0.3-1c-0.1-0.3-0.1-0.7-0.1-1.1s0-0.7,0.1-1.1c0.1-0.4,0.2-0.8,0.3-1.2s0.3-0.8,0.6-1.1c0.3-0.3,0.5-0.6,0.9-0.8
		c0.3-0.2,0.7-0.3,1.2-0.4c0.2,0,0.4,0,0.6,0s0.4,0.1,0.6,0.2s0.4,0.2,0.5,0.3c0.2,0.1,0.3,0.2,0.5,0.4c0.3,0.3,0.5,0.6,0.6,0.9
		c0.1,0.3,0.2,0.7,0.3,1.1c0.1,0.4,0.1,0.7,0.1,1.1S73.6,62.5,73.5,62.7z M72.5,62.6c0-0.3,0.1-0.5,0.1-0.8s0-0.5-0.1-0.8
		c0-0.2-0.1-0.5-0.1-0.7c-0.1-0.2-0.1-0.4-0.3-0.7c-0.1-0.2-0.3-0.4-0.5-0.6s-0.4-0.2-0.6-0.3s-0.5,0-0.7,0
		c-0.2,0.1-0.4,0.2-0.6,0.4c-0.3,0.3-0.5,0.6-0.7,1.1s-0.3,1-0.3,1.5s0,1,0.1,1.5c0.1,0.5,0.3,0.9,0.5,1.2c0.2,0.2,0.3,0.3,0.5,0.4
		c0.2,0.1,0.4,0.1,0.6,0.2c0.3,0,0.6-0.1,0.9-0.3c0.3-0.2,0.5-0.3,0.6-0.5c0.2-0.2,0.3-0.5,0.4-0.7C72.3,63.4,72.4,63.1,72.5,62.6
		L72.5,62.6z"/>
</g>
<g>
	<path d="M63.3,42.9C63.2,42.9,63.2,42.9,63.3,42.9c-0.1,0-0.2,0-0.2,0c-0.2,0-0.3,0-0.4-0.1s-0.2-0.2-0.2-0.3
		c0-0.2,0.1-0.3,0.3-0.5c0.6-0.3,1.1-0.6,1.5-1.1s0.8-0.9,1-1.5c-0.5,0.2-0.9,0.3-1.4,0.3c-0.5,0-0.8-0.1-1.2-0.2s-0.6-0.3-0.8-0.6
		c-0.2-0.2-0.4-0.5-0.5-0.8s-0.2-0.6-0.2-0.9s0.1-0.7,0.2-1s0.3-0.6,0.6-0.9s0.6-0.5,0.9-0.6c0.4-0.2,0.8-0.2,1.3-0.2
		c0.2,0,0.4,0,0.6,0.1c0.4,0.1,0.7,0.3,0.9,0.5c0.2,0.2,0.4,0.4,0.6,0.7c0.1,0.3,0.2,0.5,0.3,0.9c0.1,0.3,0.1,0.7,0.1,1
		c0,0.6-0.1,1.1-0.2,1.7c-0.1,0.6-0.4,1-0.7,1.5s-0.7,0.9-1.1,1.2C64.3,42.2,63.8,42.5,63.3,42.9z M62.6,38c0.2,0.2,0.4,0.3,0.6,0.4
		c0.2,0.1,0.4,0.1,0.7,0.1c0.3,0,0.6-0.1,0.9-0.2c0.3-0.1,0.6-0.3,0.8-0.4c0,0,0,0,0-0.1v-0.1v-0.1v-0.1c0-0.3,0-0.5-0.1-0.8
		c0-0.2-0.1-0.5-0.2-0.7c-0.1-0.2-0.3-0.3-0.5-0.5c-0.2-0.1-0.4-0.2-0.7-0.2c-0.2,0-0.5,0-0.7,0.1s-0.4,0.2-0.6,0.4
		s-0.3,0.3-0.4,0.5s-0.1,0.4-0.1,0.7c0,0.2,0,0.3,0.1,0.4C62.4,37.7,62.5,37.9,62.6,38z"/>
	<path d="M73.8,39.4c-0.1,0.3-0.2,0.7-0.4,1.1c-0.2,0.4-0.3,0.7-0.6,1.1c-0.2,0.3-0.5,0.6-0.8,0.8s-0.7,0.4-1,0.4s-0.5,0-0.7,0
		s-0.5-0.1-0.7-0.2c-0.2-0.1-0.4-0.2-0.5-0.3c-0.2-0.1-0.3-0.2-0.4-0.4c-0.2-0.3-0.4-0.6-0.5-0.9c-0.1-0.3-0.2-0.7-0.3-1
		c-0.1-0.3-0.1-0.7-0.1-1.1c0-0.4,0-0.7,0.1-1.1c0.1-0.4,0.2-0.8,0.3-1.2s0.3-0.8,0.6-1.1c0.3-0.3,0.5-0.6,0.9-0.8
		c0.3-0.2,0.7-0.3,1.2-0.4c0.2,0,0.4,0,0.6,0s0.4,0.1,0.6,0.2c0.2,0.1,0.4,0.2,0.5,0.3c0.2,0.1,0.3,0.2,0.5,0.4
		c0.3,0.3,0.5,0.6,0.6,0.9c0.1,0.3,0.2,0.7,0.3,1.1c0.1,0.4,0.1,0.7,0.1,1.1S73.9,39,73.8,39.4z M72.8,39.2c0-0.3,0.1-0.5,0.1-0.8
		s0-0.5-0.1-0.8c0-0.2-0.1-0.5-0.1-0.7c-0.1-0.2-0.1-0.4-0.3-0.7c-0.1-0.2-0.3-0.4-0.5-0.6s-0.4-0.2-0.6-0.3s-0.5,0-0.7,0
		c-0.2,0.1-0.4,0.2-0.6,0.4c-0.3,0.3-0.5,0.6-0.7,1.1s-0.3,1-0.3,1.5s0,1,0.1,1.5c0.1,0.5,0.3,0.9,0.5,1.2c0.2,0.2,0.3,0.3,0.5,0.4
		c0.2,0.1,0.4,0.1,0.6,0.2c0.3,0,0.6-0.1,0.9-0.3s0.5-0.3,0.6-0.5c0.2-0.2,0.3-0.5,0.4-0.7C72.6,40,72.7,39.7,72.8,39.2L72.8,39.2z"
		/>
</g>
<path d="M43.5,287.2c-7.9,0-10.8-4.9-10.8-10.4c0-4.7,1.6-7.8,5.1-9.8V16.8c0-3.4,1.4-6.2,5.2-6.2l0,0c2.7,0,4.3,2.8,4.3,6.2v250.4
	c3.9,1.7,6,4.1,6,9.9C53.3,282.1,50.7,287.3,43.5,287.2z M43,11.5c-3.4,0-4.3,2.4-4.3,5.3v251l-0.3,0.1c-3.5,2.1-4.6,6.2-4.6,8.6
	c0.1,4.4,2.4,10,9.5,9.9c5.5-0.1,9.1-4.2,9-10.1c-0.1-3.8-1.5-6.2-5.5-8.4l-0.3-0.1v-251C46.5,13.9,45.3,11.5,43,11.5L43,11.5z"/>
<path class="st3" d="M50.8,272.6c2.2,4.9-1.8,7.8-1.8,7.8s1.7-4.1-0.2-7c-2.2-3.5-4.2-3.8-4.2-3.8S49.2,269.2,50.8,272.6z"/>
<path class="st4" d="M44.4,267.5c-0.3,0-0.6-0.3-0.6-0.6V17.2c0-0.3,0.3-0.6,0.6-0.6S45,17,45,17.2V267
	C45.1,267.2,44.8,267.5,44.4,267.5z"/>
<g>
	<g>
		<path d="M5.7,260.8c-0.2,0-0.3-0.1-0.4-0.2s-0.1-0.2-0.1-0.3c0-0.1,0.1-0.2,0.2-0.4s0.3-0.2,0.5-0.2c0.1,0,0.3,0,0.7,0
			c0.4,0,0.7,0,1.1,0c0.4,0,0.8,0,1.1,0s0.6,0,0.7,0c0.2,0,0.3,0.1,0.4,0.2s0.1,0.2,0.1,0.3c0,0.1,0,0.2-0.1,0.3
			c-0.1,0.1-0.2,0.2-0.4,0.2c-0.6,0-1.2,0-1.8,0C6.8,260.8,6.3,260.8,5.7,260.8z"/>
		<path d="M14.5,256.6c-0.1-0.2-0.2-0.3-0.3-0.4c-0.1-0.1-0.2-0.2-0.4-0.2c-0.4,0-0.7,0.1-1.1,0.3c-0.3,0.2-0.6,0.5-0.9,0.7
			c-0.1,0.1-0.3,0.1-0.4,0.1c-0.2,0-0.3-0.1-0.4-0.2c-0.1-0.1-0.1-0.2-0.1-0.4c0-0.1,0-0.3,0.1-0.4c0.2-0.2,0.3-0.4,0.5-0.5
			c0.2-0.2,0.4-0.3,0.6-0.5c0.2-0.1,0.4-0.2,0.7-0.3c0.2-0.1,0.5-0.1,0.7-0.1c0.3,0,0.5,0.1,0.8,0.2c0.2,0.1,0.5,0.3,0.6,0.5
			c0.2,0.2,0.3,0.5,0.4,0.8c0.1,0.3,0.2,0.6,0.2,1c0,0.1,0,0.2,0,0.4c-0.1,0.4-0.2,0.7-0.4,1s-0.4,0.5-0.7,0.7
			c-0.2,0.2-0.5,0.3-0.8,0.5c-0.3,0.1-0.5,0.3-0.7,0.5s-0.4,0.4-0.6,0.6c-0.2,0.3-0.3,0.6-0.3,1h2.5c0.1,0,0.2,0,0.2,0
			c0.1,0,0.1-0.1,0.1-0.1s0.1-0.1,0.1-0.2c0.1-0.1,0.1-0.1,0.2-0.2c0,0,0.1,0,0.2-0.1c0.1,0,0.1,0,0.2,0c0.2,0,0.3,0.1,0.4,0.2
			s0.1,0.2,0.1,0.4c0,0.1,0,0.2,0,0.2c0,0.1,0,0.1-0.1,0.1c-0.2,0.2-0.4,0.4-0.6,0.6c-0.2,0.1-0.5,0.2-0.8,0.2h-3.2
			c-0.3,0-0.5-0.2-0.6-0.6c0-0.3,0.1-0.6,0.1-0.9c0.1-0.3,0.1-0.5,0.2-0.8s0.2-0.5,0.4-0.7c0.1-0.2,0.3-0.4,0.6-0.6
			c0.2-0.2,0.4-0.3,0.7-0.5c0.3-0.1,0.5-0.3,0.8-0.5c0.2-0.2,0.4-0.4,0.6-0.6s0.3-0.5,0.3-0.8c0-0.1,0-0.2-0.1-0.3
			C14.5,256.6,14.5,256.6,14.5,256.6z"/>
		<path d="M22.9,259.8c-0.1,0.3-0.2,0.7-0.4,1.1s-0.3,0.7-0.6,1.1c-0.2,0.3-0.5,0.6-0.8,0.8c-0.3,0.2-0.6,0.4-1,0.4
			c-0.3,0-0.5,0-0.7,0s-0.5-0.1-0.7-0.2s-0.4-0.2-0.5-0.3c-0.2-0.1-0.3-0.2-0.4-0.4c-0.2-0.3-0.4-0.6-0.5-0.9s-0.2-0.7-0.3-1
			s-0.1-0.7-0.1-1.1s0-0.7,0.1-1.1s0.2-0.8,0.3-1.2c0.1-0.4,0.3-0.8,0.6-1.1s0.5-0.6,0.9-0.8c0.3-0.2,0.7-0.3,1.2-0.4
			c0.2,0,0.4,0,0.6,0s0.4,0.1,0.6,0.2c0.2,0.1,0.4,0.2,0.5,0.3c0.2,0.1,0.3,0.2,0.5,0.4c0.3,0.3,0.5,0.6,0.6,0.9s0.2,0.7,0.3,1.1
			c0.1,0.4,0.1,0.7,0.1,1.1S22.9,259.6,22.9,259.8z M21.8,259.8c0-0.3,0.1-0.5,0.1-0.8s0-0.5-0.1-0.8c0-0.2-0.1-0.5-0.1-0.7
			c-0.1-0.2-0.1-0.4-0.3-0.7c-0.1-0.2-0.3-0.4-0.5-0.6c-0.2-0.1-0.4-0.2-0.6-0.3c-0.2-0.1-0.5,0-0.7,0c-0.2,0.1-0.4,0.2-0.6,0.4
			c-0.3,0.3-0.5,0.6-0.7,1.1s-0.3,1-0.3,1.5s0,1,0.1,1.5s0.3,0.9,0.5,1.2c0.2,0.2,0.3,0.3,0.5,0.4s0.4,0.1,0.6,0.2
			c0.3,0,0.6-0.1,0.9-0.3s0.5-0.3,0.6-0.5c0.2-0.2,0.3-0.5,0.4-0.7C21.6,260.4,21.7,260.2,21.8,259.8L21.8,259.8z"/>
	</g>
	<g>
		<path d="M7.8,240c-0.2,0-0.3-0.1-0.4-0.2s-0.1-0.2-0.1-0.3s0.1-0.2,0.2-0.4s0.3-0.2,0.5-0.2c0.1,0,0.3,0,0.7,0s0.7,0,1.1,0
			s0.8,0,1.1,0s0.6,0,0.7,0c0.2,0,0.3,0.1,0.4,0.2s0.1,0.2,0.1,0.3s0,0.2-0.1,0.3s-0.2,0.2-0.4,0.2c-0.6,0-1.2,0-1.8,0
			C9,240,8.4,240,7.8,240z"/>
		<path d="M16.1,241.4c0.1,0.1,0.1,0.2,0.1,0.3s0,0.2-0.1,0.3s-0.2,0.2-0.4,0.2h-2c-0.2,0-0.3-0.1-0.4-0.2s-0.1-0.2-0.1-0.4
			s0.1-0.2,0.2-0.4c0.1-0.1,0.3-0.2,0.5-0.2h0.4v-5.5c-0.1,0.1-0.3,0.1-0.4,0.1c-0.2,0-0.3-0.1-0.4-0.2s-0.1-0.2-0.1-0.4
			c0-0.1,0-0.2,0.1-0.3c0-0.1,0.1-0.2,0.2-0.2l0.9-0.6c0.1,0,0.2-0.1,0.3-0.1c0.3,0,0.5,0.2,0.5,0.5v6.5H16
			C15.9,241.1,16,241.2,16.1,241.4z"/>
		<path d="M18.1,241.5c-0.1-0.2-0.2-0.3-0.2-0.5s0-0.3,0.1-0.4s0.2-0.2,0.4-0.2c0.1,0,0.2,0,0.3,0c0.2,0.2,0.5,0.3,0.7,0.4
			s0.5,0.1,0.8,0.1c0.2,0,0.4,0,0.6-0.1s0.4-0.2,0.5-0.3c0.2-0.1,0.3-0.3,0.4-0.5s0.1-0.4,0.1-0.7c0-0.2-0.1-0.5-0.2-0.6
			c-0.1-0.2-0.3-0.3-0.4-0.4s-0.4-0.2-0.6-0.2S20.2,238,20,238s-0.3,0-0.4,0s-0.3,0.1-0.4,0.1s-0.1,0.1-0.2,0.1l-0.1,0.1l-0.1,0.1
			c0,0-0.1,0-0.2,0s-0.3,0-0.4-0.1S18,238,18,237.8c0-0.5,0-0.9,0-1.4s0-0.9,0-1.4c-0.1-0.1-0.2-0.3-0.2-0.4c0-0.1,0.1-0.3,0.2-0.4
			c0.1-0.1,0.3-0.2,0.5-0.2c0.1,0,0.2,0,0.4,0s0.4,0,0.7,0s0.5,0,0.8,0s0.5,0,0.8,0c0.2,0,0.5,0,0.7,0s0.3,0,0.4,0
			c0.2,0,0.3,0.1,0.4,0.2c0.1,0.1,0.1,0.2,0.1,0.3s0,0.3-0.1,0.4s-0.2,0.2-0.4,0.2c-0.5,0-1,0-1.5,0s-1,0-1.5,0c0,0.3,0,0.6,0,0.9
			s0,0.6,0,0.9c0.2,0,0.3-0.1,0.5-0.1s0.3,0,0.5,0c0.4,0,0.8,0.1,1.2,0.2c0.3,0.1,0.6,0.3,0.9,0.6c0.2,0.2,0.4,0.5,0.6,0.8
			c0.1,0.3,0.2,0.6,0.2,1c0,0.3-0.1,0.6-0.2,1c-0.1,0.3-0.3,0.6-0.6,0.9s-0.6,0.5-0.9,0.6s-0.7,0.2-1.1,0.2s-0.7-0.1-1.1-0.2
			C18.8,242,18.4,241.9,18.1,241.5z"/>
	</g>
	<g>
		<path d="M7.4,218.9c-0.2,0-0.3-0.1-0.4-0.2c-0.1-0.1-0.1-0.2-0.1-0.3s0.1-0.2,0.2-0.4s0.3-0.2,0.5-0.2c0.1,0,0.3,0,0.7,0
			c0.4,0,0.7,0,1.1,0s0.8,0,1.1,0s0.6,0,0.7,0c0.2,0,0.3,0.1,0.4,0.2s0.1,0.2,0.1,0.3s0,0.2-0.1,0.3s-0.2,0.2-0.4,0.2
			c-0.6,0-1.2,0-1.8,0C8.6,218.9,8,218.9,7.4,218.9z"/>
		<path d="M15.7,220.2c0.1,0.1,0.1,0.2,0.1,0.3s0,0.2-0.1,0.3s-0.2,0.2-0.4,0.2h-2c-0.2,0-0.3-0.1-0.4-0.2s-0.1-0.2-0.1-0.4
			s0.1-0.2,0.2-0.4c0.1-0.1,0.3-0.2,0.5-0.2h0.4v-5.5c-0.1,0.1-0.3,0.1-0.4,0.1c-0.2,0-0.3-0.1-0.4-0.2S13,214,13,213.8
			c0-0.1,0-0.2,0.1-0.3c0-0.1,0.1-0.2,0.2-0.2l0.9-0.6c0.1,0,0.2-0.1,0.3-0.1c0.3,0,0.5,0.2,0.5,0.5v6.5h0.6
			C15.5,220.1,15.6,220.1,15.7,220.2z"/>
		<path d="M22.9,217.9c-0.1,0.3-0.2,0.7-0.4,1.1c-0.2,0.4-0.3,0.7-0.6,1.1c-0.2,0.3-0.5,0.6-0.8,0.8s-0.6,0.4-1,0.4
			c-0.3,0-0.5,0-0.7,0s-0.5-0.1-0.7-0.2c-0.2-0.1-0.4-0.2-0.5-0.3c-0.2-0.1-0.3-0.2-0.4-0.4c-0.2-0.3-0.4-0.6-0.5-0.9
			c-0.1-0.3-0.2-0.7-0.3-1s-0.1-0.7-0.1-1.1c0-0.4,0-0.7,0.1-1.1c0.1-0.4,0.2-0.8,0.3-1.2s0.3-0.8,0.6-1.1s0.5-0.6,0.9-0.8
			c0.3-0.2,0.7-0.3,1.2-0.4c0.2,0,0.4,0,0.6,0s0.4,0.1,0.6,0.2c0.2,0.1,0.4,0.2,0.5,0.3c0.2,0.1,0.3,0.2,0.5,0.4
			c0.3,0.3,0.5,0.6,0.6,0.9c0.1,0.3,0.2,0.7,0.3,1.1c0.1,0.4,0.1,0.7,0.1,1.1S22.9,217.6,22.9,217.9z M21.8,217.9
			c0-0.3,0.1-0.5,0.1-0.8s0-0.5-0.1-0.8c0-0.2-0.1-0.5-0.1-0.7c-0.1-0.2-0.1-0.4-0.3-0.7c-0.1-0.2-0.3-0.4-0.5-0.6
			c-0.2-0.1-0.4-0.2-0.6-0.3s-0.5,0-0.7,0c-0.2,0.1-0.4,0.2-0.6,0.4c-0.3,0.3-0.5,0.6-0.7,1.1s-0.3,1-0.3,1.5s0,1,0.1,1.5
			s0.3,0.9,0.5,1.2c0.2,0.2,0.3,0.3,0.5,0.4c0.2,0.1,0.4,0.1,0.6,0.2c0.3,0,0.6-0.1,0.9-0.3s0.5-0.3,0.6-0.5
			c0.2-0.2,0.3-0.5,0.4-0.7C21.6,218.6,21.7,218.2,21.8,217.9L21.8,217.9z"/>
	</g>
	<g>
		<path d="M12.9,197.7c-0.2,0-0.3-0.1-0.4-0.2c-0.1-0.1-0.1-0.2-0.1-0.3s0.1-0.2,0.2-0.4s0.3-0.2,0.5-0.2c0.1,0,0.3,0,0.7,0
			s0.7,0,1.1,0c0.4,0,0.8,0,1.1,0s0.6,0,0.7,0c0.2,0,0.3,0.1,0.4,0.2s0.1,0.2,0.1,0.3s0,0.2-0.1,0.3s-0.2,0.2-0.4,0.2
			c-0.6,0-1.2,0-1.8,0C14.1,197.7,13.5,197.7,12.9,197.7z"/>
		<path d="M18.1,199.4c-0.1-0.2-0.2-0.3-0.2-0.5s0-0.3,0.1-0.4s0.2-0.2,0.4-0.2c0.1,0,0.2,0,0.3,0c0.2,0.2,0.5,0.3,0.7,0.4
			c0.2,0.1,0.5,0.1,0.8,0.1c0.2,0,0.4,0,0.6-0.1s0.4-0.2,0.5-0.3c0.2-0.1,0.3-0.3,0.4-0.5s0.1-0.4,0.1-0.7c0-0.2-0.1-0.5-0.2-0.6
			c-0.1-0.2-0.3-0.3-0.4-0.4s-0.4-0.2-0.6-0.2s-0.4-0.1-0.6-0.1s-0.3,0-0.4,0s-0.3,0.1-0.4,0.1s-0.1,0.1-0.2,0.1l-0.1,0.1l-0.1,0.1
			c0,0-0.1,0-0.2,0s-0.3,0-0.4-0.1s-0.2-0.3-0.2-0.5c0-0.5,0-0.9,0-1.4s0-0.9,0-1.4c-0.1-0.1-0.2-0.3-0.2-0.4c0-0.1,0.1-0.3,0.2-0.4
			c0.1-0.1,0.3-0.2,0.5-0.2c0.1,0,0.2,0,0.4,0s0.4,0,0.7,0s0.5,0,0.8,0s0.5,0,0.8,0c0.2,0,0.5,0,0.7,0s0.3,0,0.4,0
			c0.2,0,0.3,0.1,0.4,0.2c0.1,0.1,0.1,0.2,0.1,0.3s0,0.3-0.1,0.4s-0.2,0.2-0.4,0.2c-0.5,0-1,0-1.5,0s-1,0-1.5,0c0,0.3,0,0.6,0,0.9
			c0,0.3,0,0.6,0,0.9c0.2,0,0.3-0.1,0.5-0.1s0.3,0,0.5,0c0.4,0,0.8,0.1,1.2,0.2c0.3,0.1,0.6,0.3,0.9,0.6c0.2,0.2,0.4,0.5,0.6,0.8
			c0.1,0.3,0.2,0.6,0.2,1c0,0.3-0.1,0.6-0.2,1c-0.1,0.3-0.3,0.6-0.6,0.9s-0.6,0.5-0.9,0.6s-0.7,0.2-1.1,0.2s-0.7-0.1-1.1-0.2
			C18.8,199.6,18.4,199.6,18.1,199.4z"/>
	</g>
	<path d="M22.9,175.8c-0.1,0.3-0.2,0.7-0.4,1.1c-0.2,0.4-0.3,0.7-0.6,1.1c-0.2,0.3-0.5,0.6-0.8,0.8s-0.6,0.4-1,0.4
		c-0.3,0-0.5,0-0.7,0s-0.5-0.1-0.7-0.2c-0.2-0.1-0.4-0.2-0.5-0.3c-0.2-0.1-0.3-0.2-0.4-0.4c-0.2-0.3-0.4-0.6-0.5-0.9
		c-0.1-0.3-0.2-0.7-0.3-1s-0.1-0.7-0.1-1.1c0-0.4,0-0.7,0.1-1.1c0.1-0.4,0.2-0.8,0.3-1.2s0.3-0.8,0.6-1.1s0.5-0.6,0.9-0.8
		c0.3-0.2,0.7-0.3,1.2-0.4c0.2,0,0.4,0,0.6,0s0.4,0.1,0.6,0.2c0.2,0.1,0.4,0.2,0.5,0.3c0.2,0.1,0.3,0.2,0.5,0.4
		c0.3,0.3,0.5,0.6,0.6,0.9c0.1,0.3,0.2,0.7,0.3,1.1c0.1,0.4,0.1,0.7,0.1,1.1S23,175.5,22.9,175.8z M21.9,175.8
		c0-0.3,0.1-0.5,0.1-0.8s0-0.5-0.1-0.8c0-0.2-0.1-0.5-0.1-0.7c-0.1-0.2-0.1-0.4-0.3-0.7c-0.1-0.2-0.3-0.4-0.5-0.6
		c-0.2-0.1-0.4-0.2-0.6-0.3s-0.5,0-0.7,0c-0.2,0.1-0.4,0.2-0.6,0.4c-0.3,0.3-0.5,0.6-0.7,1.1s-0.3,1-0.3,1.5s0,1,0.1,1.5
		s0.3,0.9,0.5,1.2c0.2,0.2,0.3,0.3,0.5,0.4c0.2,0.1,0.4,0.1,0.6,0.2c0.3,0,0.6-0.1,0.9-0.3c0.2-0.1,0.5-0.3,0.6-0.5
		c0.2-0.2,0.3-0.5,0.4-0.7C21.7,176.3,21.8,176.1,21.9,175.8L21.9,175.8z"/>
	<path d="M18.1,157.4c-0.1-0.2-0.2-0.3-0.2-0.5s0-0.3,0.1-0.4s0.2-0.2,0.4-0.2c0.1,0,0.2,0,0.3,0c0.2,0.2,0.5,0.3,0.7,0.4
		c0.2,0.1,0.5,0.1,0.8,0.1c0.2,0,0.4,0,0.6-0.1s0.4-0.2,0.5-0.3c0.2-0.1,0.3-0.3,0.4-0.5s0.1-0.4,0.1-0.7c0-0.2-0.1-0.5-0.2-0.6
		c-0.1-0.2-0.3-0.3-0.4-0.4s-0.4-0.2-0.6-0.2s-0.4-0.1-0.6-0.1s-0.3,0-0.4,0s-0.3,0.1-0.4,0.1s-0.1,0.1-0.2,0.1l-0.1,0.1l-0.1,0.1
		c0,0-0.1,0-0.2,0s-0.3,0-0.4-0.1s-0.2-0.3-0.2-0.5c0-0.5,0-0.9,0-1.4s0-0.9,0-1.4c-0.1-0.1-0.2-0.3-0.2-0.4c0-0.1,0.1-0.3,0.2-0.4
		c0.1-0.1,0.3-0.2,0.5-0.2c0.1,0,0.2,0,0.4,0s0.4,0,0.7,0s0.5,0,0.8,0s0.5,0,0.8,0c0.2,0,0.5,0,0.7,0s0.3,0,0.4,0
		c0.2,0,0.3,0.1,0.4,0.2c0.1,0.1,0.1,0.2,0.1,0.3s0,0.3-0.1,0.4s-0.2,0.2-0.4,0.2c-0.5,0-1,0-1.5,0s-1,0-1.5,0c0,0.3,0,0.6,0,0.9
		c0,0.3,0,0.6,0,0.9c0.2,0,0.3-0.1,0.5-0.1s0.3,0,0.5,0c0.4,0,0.8,0.1,1.2,0.2c0.3,0.1,0.6,0.3,0.9,0.6c0.2,0.2,0.4,0.5,0.6,0.8
		c0.1,0.3,0.2,0.6,0.2,1c0,0.3-0.1,0.6-0.2,1c-0.1,0.3-0.3,0.6-0.6,0.9s-0.6,0.5-0.9,0.6s-0.7,0.2-1.1,0.2s-0.7-0.1-1.1-0.2
		C18.8,157.7,18.4,157.6,18.1,157.4z"/>
	<g>
		<path d="M15.7,136.2c0.1,0.1,0.1,0.2,0.1,0.3s0,0.2-0.1,0.3s-0.2,0.2-0.4,0.2h-2c-0.2,0-0.3-0.1-0.4-0.2s-0.1-0.2-0.1-0.4
			s0.1-0.2,0.2-0.4c0.1-0.1,0.3-0.2,0.5-0.2h0.4v-5.5c-0.1,0.1-0.3,0.1-0.4,0.1c-0.2,0-0.3-0.1-0.4-0.2S13,130,13,129.8
			c0-0.1,0-0.2,0.1-0.3c0-0.1,0.1-0.2,0.2-0.2l0.9-0.6c0.1,0,0.2-0.1,0.3-0.1c0.3,0,0.5,0.2,0.5,0.5v6.5h0.6
			C15.5,136.2,15.6,136.2,15.7,136.2z"/>
		<path d="M22.9,134c-0.1,0.3-0.2,0.7-0.4,1.1c-0.2,0.4-0.3,0.7-0.6,1.1c-0.2,0.3-0.5,0.6-0.8,0.8s-0.6,0.4-1,0.4
			c-0.3,0-0.5,0-0.7,0s-0.5-0.1-0.7-0.2c-0.2-0.1-0.4-0.2-0.5-0.3c-0.2-0.1-0.3-0.2-0.4-0.4c-0.2-0.3-0.4-0.6-0.5-0.9
			c-0.1-0.3-0.2-0.7-0.3-1s-0.1-0.7-0.1-1.1c0-0.4,0-0.7,0.1-1.1c0.1-0.4,0.2-0.8,0.3-1.2s0.3-0.8,0.6-1.1s0.5-0.6,0.9-0.8
			c0.3-0.2,0.7-0.3,1.2-0.4c0.2,0,0.4,0,0.6,0s0.4,0.1,0.6,0.2c0.2,0.1,0.4,0.2,0.5,0.3c0.2,0.1,0.3,0.2,0.5,0.4
			c0.3,0.3,0.5,0.6,0.6,0.9c0.1,0.3,0.2,0.7,0.3,1.1c0.1,0.4,0.1,0.7,0.1,1.1S22.9,133.7,22.9,134z M21.8,133.9
			c0-0.3,0.1-0.5,0.1-0.8s0-0.5-0.1-0.8c0-0.2-0.1-0.5-0.1-0.7c-0.1-0.2-0.1-0.4-0.3-0.7c-0.1-0.2-0.3-0.4-0.5-0.6
			c-0.2-0.1-0.4-0.2-0.6-0.3s-0.5,0-0.7,0c-0.2,0.1-0.4,0.2-0.6,0.4c-0.3,0.3-0.5,0.6-0.7,1.1s-0.3,1-0.3,1.5s0,1,0.1,1.5
			s0.3,0.9,0.5,1.2c0.2,0.2,0.3,0.3,0.5,0.4c0.2,0.1,0.4,0.1,0.6,0.2c0.3,0,0.6-0.1,0.9-0.3s0.5-0.3,0.6-0.5
			c0.2-0.2,0.3-0.5,0.4-0.7C21.6,134.5,21.7,134.2,21.8,133.9L21.8,133.9z"/>
	</g>
	<g>
		<path d="M16.1,115.4c0.1,0.1,0.1,0.2,0.1,0.3s0,0.2-0.1,0.3s-0.2,0.2-0.4,0.2h-2c-0.2,0-0.3-0.1-0.4-0.2s-0.1-0.2-0.1-0.4
			s0.1-0.2,0.2-0.4c0.1-0.1,0.3-0.2,0.5-0.2h0.4v-5.5c-0.1,0.1-0.3,0.1-0.4,0.1c-0.2,0-0.3-0.1-0.4-0.2s-0.1-0.2-0.1-0.4
			c0-0.1,0-0.2,0.1-0.3c0-0.1,0.1-0.2,0.2-0.2l0.9-0.6c0.1,0,0.2-0.1,0.3-0.1c0.3,0,0.5,0.2,0.5,0.5v6.5H16
			C15.9,115.3,16,115.3,16.1,115.4z"/>
		<path d="M18.1,115.6c-0.1-0.2-0.2-0.3-0.2-0.5s0-0.3,0.1-0.4s0.2-0.2,0.4-0.2c0.1,0,0.2,0,0.3,0c0.2,0.2,0.5,0.3,0.7,0.4
			s0.5,0.1,0.8,0.1c0.2,0,0.4,0,0.6-0.1s0.4-0.2,0.5-0.3c0.2-0.1,0.3-0.3,0.4-0.5s0.1-0.4,0.1-0.7c0-0.2-0.1-0.5-0.2-0.6
			c-0.1-0.2-0.3-0.3-0.4-0.4s-0.4-0.2-0.6-0.2s-0.4-0.1-0.6-0.1s-0.3,0-0.4,0s-0.3,0.1-0.4,0.1s-0.1,0.1-0.2,0.1l-0.1,0.1l-0.1,0.1
			c0,0-0.1,0-0.2,0s-0.3,0-0.4-0.1s-0.2-0.3-0.2-0.5c0-0.5,0-0.9,0-1.4s0-0.9,0-1.4c-0.1-0.1-0.2-0.3-0.2-0.4s0.1-0.3,0.2-0.4
			s0.3-0.2,0.5-0.2c0.1,0,0.2,0,0.4,0s0.4,0,0.7,0s0.5,0,0.8,0s0.5,0,0.8,0c0.2,0,0.5,0,0.7,0s0.3,0,0.4,0c0.2,0,0.3,0.1,0.4,0.2
			s0.1,0.2,0.1,0.3s0,0.3-0.1,0.4s-0.2,0.2-0.4,0.2c-0.5,0-1,0-1.5,0s-1,0-1.5,0c0,0.3,0,0.6,0,0.9s0,0.6,0,0.9
			c0.2,0,0.3-0.1,0.5-0.1s0.3,0,0.5,0c0.4,0,0.8,0.1,1.2,0.2c0.3,0.1,0.6,0.3,0.9,0.6c0.2,0.2,0.4,0.5,0.6,0.8
			c0.1,0.3,0.2,0.6,0.2,1c0,0.3-0.1,0.6-0.2,1c-0.1,0.3-0.3,0.6-0.6,0.9s-0.6,0.5-0.9,0.6s-0.7,0.2-1.1,0.2s-0.7-0.1-1.1-0.2
			C18.8,116.1,18.4,116,18.1,115.6z"/>
	</g>
	<g>
		<path d="M14.5,88.6c-0.1-0.2-0.2-0.3-0.3-0.4S14,88,13.8,88c-0.4,0-0.7,0.1-1.1,0.3c-0.3,0.2-0.6,0.5-0.9,0.7
			c-0.1,0.1-0.3,0.1-0.4,0.1c-0.2,0-0.3-0.1-0.4-0.2s-0.1-0.2-0.1-0.4c0-0.1,0-0.3,0.1-0.4c0.2-0.2,0.3-0.4,0.5-0.5
			c0.2-0.2,0.4-0.3,0.6-0.5c0.2-0.1,0.4-0.2,0.7-0.3c0.2-0.1,0.5-0.1,0.7-0.1c0.3,0,0.5,0.1,0.8,0.2c0.2,0.1,0.5,0.3,0.6,0.5
			c0.2,0.2,0.3,0.5,0.4,0.8s0.2,0.6,0.2,1c0,0.1,0,0.2,0,0.4c-0.1,0.4-0.2,0.7-0.4,1s-0.4,0.5-0.7,0.7c-0.2,0.2-0.5,0.3-0.8,0.5
			c-0.3,0.1-0.5,0.3-0.7,0.5s-0.4,0.4-0.6,0.6c-0.2,0.3-0.3,0.6-0.3,1h2.5c0.1,0,0.2,0,0.2,0c0.1,0,0.1-0.1,0.1-0.1s0.1-0.1,0.1-0.2
			c0.1-0.1,0.1-0.1,0.2-0.2c0,0,0.1,0,0.2-0.1c0.1,0,0.1,0,0.2,0c0.2,0,0.3,0.1,0.4,0.2s0.1,0.2,0.1,0.4c0,0.1,0,0.2,0,0.2
			c0,0.1,0,0.1-0.1,0.1c-0.2,0.2-0.4,0.4-0.6,0.6c-0.2,0.1-0.5,0.2-0.8,0.2h-3.2c-0.3,0-0.5-0.2-0.6-0.6c0-0.3,0.1-0.6,0.1-0.9
			c0.1-0.3,0.1-0.5,0.2-0.8s0.2-0.5,0.4-0.7c0.1-0.2,0.3-0.4,0.6-0.6c0.2-0.2,0.4-0.3,0.7-0.5c0.3-0.1,0.5-0.3,0.8-0.5
			c0.2-0.2,0.4-0.4,0.6-0.6s0.3-0.5,0.3-0.8c0-0.1,0-0.2-0.1-0.3C14.5,88.7,14.5,88.7,14.5,88.6z"/>
		<path d="M22.9,91.9c-0.1,0.3-0.2,0.7-0.4,1.1s-0.3,0.7-0.6,1.1c-0.2,0.3-0.5,0.6-0.8,0.8c-0.3,0.2-0.6,0.4-1,0.4
			c-0.3,0-0.5,0-0.7,0s-0.5-0.1-0.7-0.2s-0.4-0.2-0.5-0.3c-0.2-0.1-0.3-0.2-0.4-0.4c-0.2-0.3-0.4-0.6-0.5-0.9s-0.2-0.7-0.3-1
			s-0.1-0.7-0.1-1.1s0-0.7,0.1-1.1s0.2-0.8,0.3-1.2c0.1-0.4,0.3-0.8,0.6-1.1s0.5-0.6,0.9-0.8c0.3-0.2,0.7-0.3,1.2-0.4
			c0.2,0,0.4,0,0.6,0s0.4,0.1,0.6,0.2s0.4,0.2,0.5,0.3c0.2,0.1,0.3,0.2,0.5,0.4c0.3,0.3,0.5,0.6,0.6,0.9s0.2,0.7,0.3,1.1
			s0.1,0.7,0.1,1.1S22.9,91.6,22.9,91.9z M21.8,91.8c0-0.3,0.1-0.5,0.1-0.8s0-0.5-0.1-0.8c0-0.2-0.1-0.5-0.1-0.7
			c-0.1-0.3-0.1-0.5-0.3-0.7c-0.1-0.2-0.3-0.4-0.5-0.6c-0.2-0.1-0.4-0.2-0.6-0.3s-0.5,0-0.7,0c-0.2,0.1-0.4,0.2-0.6,0.4
			c-0.3,0.3-0.5,0.6-0.7,1.1s-0.3,1-0.3,1.5s0,1,0.1,1.5s0.3,0.9,0.5,1.2c0.2,0.2,0.3,0.3,0.5,0.4s0.4,0.1,0.6,0.2
			c0.3,0,0.6-0.1,0.9-0.3s0.5-0.3,0.6-0.5c0.2-0.2,0.3-0.5,0.4-0.7C21.6,92.4,21.7,92.2,21.8,91.8L21.8,91.8z"/>
	</g>
	<g>
		<path d="M14.9,67.7c-0.1-0.2-0.2-0.3-0.3-0.4s-0.2-0.2-0.4-0.2c-0.4,0-0.7,0.1-1.1,0.3c-0.3,0.2-0.6,0.5-0.9,0.7
			c-0.1,0.1-0.3,0.1-0.4,0.1c-0.2,0-0.3-0.1-0.4-0.2s-0.1-0.2-0.1-0.4c0-0.1,0-0.3,0.1-0.4c0.2-0.2,0.3-0.4,0.5-0.5
			c0.2-0.2,0.4-0.3,0.6-0.5c0.2-0.1,0.4-0.2,0.7-0.3c0.2-0.1,0.5-0.1,0.7-0.1c0.3,0,0.5,0.1,0.8,0.2c0.2,0.1,0.5,0.3,0.6,0.5
			c0.2,0.2,0.3,0.5,0.4,0.8s0.2,0.6,0.2,1c0,0.1,0,0.2,0,0.4c-0.1,0.4-0.2,0.7-0.4,1s-0.4,0.5-0.7,0.7c-0.2,0.2-0.5,0.3-0.8,0.5
			c-0.3,0.1-0.5,0.3-0.7,0.5s-0.4,0.4-0.6,0.6c-0.2,0.3-0.3,0.6-0.3,1h2.5c0.1,0,0.2,0,0.2,0c0.1,0,0.1-0.1,0.1-0.1s0.1-0.1,0.1-0.2
			c0.1-0.1,0.1-0.1,0.2-0.2c0,0,0.1,0,0.2-0.1c0.1,0,0.1,0,0.2,0c0.2,0,0.3,0.1,0.4,0.2s0.1,0.2,0.1,0.4c0,0.1,0,0.2,0,0.2
			c0,0.1,0,0.1-0.1,0.1c-0.2,0.2-0.4,0.4-0.6,0.6c-0.2,0.1-0.5,0.2-0.8,0.2h-3.2c-0.3,0-0.5-0.2-0.6-0.6c0-0.3,0.1-0.6,0.1-0.9
			c0.1-0.3,0.1-0.5,0.2-0.8s0.2-0.5,0.4-0.7c0.1-0.2,0.3-0.4,0.6-0.6c0.2-0.2,0.4-0.3,0.7-0.5c0.3-0.1,0.5-0.3,0.8-0.5
			c0.2-0.2,0.4-0.4,0.6-0.6s0.3-0.5,0.3-0.8c0-0.1,0-0.2-0.1-0.3C14.9,67.8,14.9,67.8,14.9,67.7z"/>
		<path d="M18.1,73.6c-0.1-0.2-0.2-0.3-0.2-0.5s0-0.3,0.1-0.4s0.2-0.2,0.4-0.2c0.1,0,0.2,0,0.3,0c0.2,0.2,0.5,0.3,0.7,0.4
			s0.5,0.1,0.8,0.1c0.2,0,0.4,0,0.6-0.1s0.4-0.2,0.5-0.3c0.2-0.1,0.3-0.3,0.4-0.5s0.1-0.4,0.1-0.7c0-0.2-0.1-0.5-0.2-0.6
			c-0.1-0.2-0.3-0.3-0.4-0.4s-0.4-0.2-0.6-0.2s-0.4-0.1-0.6-0.1s-0.3,0-0.4,0s-0.3,0.1-0.4,0.1s-0.1,0.1-0.2,0.1l-0.1,0.1l-0.1,0.1
			c0,0-0.1,0-0.2,0s-0.3,0-0.4-0.1S18,70.1,18,69.9c0-0.5,0-0.9,0-1.4s0-0.9,0-1.4c-0.1-0.1-0.2-0.3-0.2-0.4s0.1-0.3,0.2-0.4
			s0.3-0.2,0.5-0.2c0.1,0,0.2,0,0.4,0s0.4,0,0.7,0s0.5,0,0.8,0s0.5,0,0.8,0c0.2,0,0.5,0,0.7,0s0.3,0,0.4,0c0.2,0,0.3,0.1,0.4,0.2
			s0.1,0.2,0.1,0.3c0,0.1,0,0.3-0.1,0.4s-0.2,0.2-0.4,0.2c-0.5,0-1,0-1.5,0s-1,0-1.5,0c0,0.3,0,0.6,0,0.9s0,0.6,0,0.9
			c0.2,0,0.3-0.1,0.5-0.1s0.3,0,0.5,0c0.4,0,0.8,0.1,1.2,0.2c0.3,0.1,0.6,0.3,0.9,0.6c0.2,0.2,0.4,0.5,0.6,0.8
			c0.1,0.3,0.2,0.6,0.2,1c0,0.3-0.1,0.6-0.2,1c-0.1,0.3-0.3,0.6-0.6,0.9s-0.6,0.5-0.9,0.6s-0.7,0.2-1.1,0.2s-0.7-0.1-1.1-0.2
			C18.8,73.9,18.4,73.8,18.1,73.6z"/>
	</g>
	<g>
		<path d="M10.9,52.2c-0.1-0.1-0.1-0.3-0.1-0.4c0-0.2,0-0.3,0.1-0.4s0.2-0.1,0.4-0.1c0.1,0,0.2,0,0.4,0.1c0.1,0.1,0.3,0.2,0.4,0.3
			s0.3,0.2,0.4,0.3s0.3,0.1,0.5,0.1s0.5-0.1,0.6-0.2c0.2-0.1,0.3-0.2,0.5-0.4c0.1-0.2,0.2-0.4,0.3-0.6c0.1-0.2,0.1-0.4,0.1-0.6
			s-0.1-0.4-0.2-0.6s-0.3-0.3-0.6-0.4c-0.2-0.1-0.5-0.2-0.7-0.2S12.6,49,12.4,49s-0.3-0.1-0.4-0.2s-0.1-0.2-0.1-0.3s0-0.2,0.1-0.3
			s0.2-0.2,0.4-0.2s0.3,0,0.5-0.1c0.2,0,0.3-0.1,0.5-0.2s0.3-0.2,0.5-0.3c0.1-0.1,0.2-0.2,0.3-0.4v-0.3l-0.1-0.2
			c0-0.1-0.1-0.2-0.1-0.2s-0.2-0.1-0.3-0.1s-0.2-0.1-0.3-0.1s-0.2,0-0.3,0c-0.2,0-0.4,0-0.7,0.1c-0.2,0-0.4,0.1-0.5,0.2
			s-0.2,0.1-0.3,0.2s-0.2,0.1-0.3,0.1s-0.3-0.1-0.4-0.2s-0.2-0.3-0.2-0.5s0.1-0.3,0.2-0.4s0.3-0.2,0.4-0.3c0.2-0.1,0.4-0.1,0.5-0.1
			c0.2,0,0.4-0.1,0.5-0.1s0.3,0,0.4,0s0.1,0,0.1,0c0.3,0,0.6,0,0.9,0.1s0.5,0.2,0.7,0.3c0.2,0.2,0.4,0.4,0.5,0.6s0.2,0.5,0.2,0.8
			c0,0.1,0,0.2,0,0.3s0,0.3-0.1,0.4s-0.1,0.3-0.3,0.5c-0.1,0.2-0.3,0.3-0.6,0.5c0.2,0.1,0.3,0.2,0.5,0.3c0.2,0.1,0.3,0.3,0.4,0.4
			c0.1,0.2,0.2,0.3,0.3,0.5s0.1,0.4,0.1,0.6c0,0.3-0.1,0.7-0.2,1c-0.2,0.3-0.4,0.6-0.6,0.9s-0.5,0.5-0.8,0.6
			c-0.3,0.2-0.6,0.2-0.9,0.2c-0.4,0-0.8-0.1-1.1-0.3S11.2,52.3,10.9,52.2z"/>
		<path d="M22.9,49.8c-0.1,0.3-0.2,0.7-0.4,1.1s-0.3,0.7-0.6,1.1c-0.2,0.3-0.5,0.6-0.8,0.8s-0.6,0.4-1,0.4c-0.3,0-0.5,0-0.7,0
			s-0.5-0.1-0.7-0.2s-0.4-0.2-0.5-0.3c-0.2-0.1-0.3-0.2-0.4-0.4c-0.2-0.3-0.4-0.6-0.5-0.9s-0.2-0.7-0.3-1s-0.1-0.7-0.1-1.1
			s0-0.7,0.1-1.1s0.2-0.8,0.3-1.2c0.1-0.4,0.3-0.8,0.6-1.1s0.5-0.6,0.9-0.8c0.3-0.2,0.7-0.3,1.2-0.4c0.2,0,0.4,0,0.6,0
			s0.4,0.1,0.6,0.2c0.2,0.1,0.4,0.2,0.5,0.3c0.2,0.1,0.3,0.2,0.5,0.4c0.3,0.3,0.5,0.6,0.6,0.9s0.2,0.7,0.3,1.1s0.1,0.7,0.1,1.1
			S22.9,49.6,22.9,49.8z M21.8,49.8c0-0.3,0.1-0.5,0.1-0.8s0-0.5-0.1-0.8c0-0.2-0.1-0.5-0.1-0.7c-0.1-0.3-0.1-0.5-0.3-0.7
			c-0.1-0.2-0.3-0.4-0.5-0.6c-0.2-0.1-0.4-0.2-0.6-0.3s-0.5,0-0.7,0c-0.2,0.1-0.4,0.2-0.6,0.4c-0.3,0.3-0.5,0.6-0.7,1.1
			s-0.3,1-0.3,1.5s0,1,0.1,1.5s0.3,0.9,0.5,1.2c0.2,0.2,0.3,0.3,0.5,0.4s0.4,0.1,0.6,0.2c0.3,0,0.6-0.1,0.9-0.3s0.5-0.3,0.6-0.5
			c0.2-0.2,0.3-0.5,0.4-0.7C21.6,50.3,21.7,50.1,21.8,49.8L21.8,49.8z"/>
	</g>
	<g>
		<path d="M11.3,31.1c-0.1-0.1-0.1-0.3-0.1-0.4c0-0.2,0-0.3,0.1-0.4s0.2-0.1,0.4-0.1c0.1,0,0.2,0,0.4,0.1c0.1,0.1,0.3,0.2,0.4,0.3
			s0.3,0.2,0.4,0.3s0.3,0.1,0.5,0.1s0.5-0.1,0.6-0.2c0.2-0.1,0.3-0.2,0.5-0.4c0.1-0.2,0.2-0.4,0.3-0.6s0.1-0.4,0.1-0.6
			s-0.1-0.4-0.2-0.6s-0.3-0.3-0.6-0.4c-0.2-0.1-0.5-0.2-0.7-0.2s-0.4-0.1-0.6-0.1s-0.3-0.1-0.4-0.2s-0.1-0.2-0.1-0.3s0-0.2,0.1-0.3
			s0.2-0.2,0.4-0.2s0.3,0,0.5-0.1c0.2,0,0.3-0.1,0.5-0.2s0.3-0.2,0.5-0.3c0.1-0.1,0.2-0.2,0.3-0.4v-0.3l-0.1-0.1
			c0-0.1-0.1-0.2-0.1-0.2s-0.2-0.1-0.3-0.1s-0.2-0.1-0.3-0.1s-0.2,0-0.3,0c-0.2,0-0.4,0-0.7,0.1c-0.2,0-0.4,0.1-0.5,0.2
			s-0.2,0.1-0.3,0.2s-0.2,0.1-0.3,0.1s-0.3-0.1-0.4-0.2s-0.2-0.3-0.2-0.5s0.1-0.3,0.2-0.4s0.3-0.2,0.4-0.3c0.2-0.1,0.4-0.1,0.5-0.1
			c0.2,0,0.4-0.1,0.5-0.1s0.3,0,0.4,0s0.1,0,0.1,0c0.3,0,0.6,0,0.9,0.1s0.5,0.2,0.7,0.3c0.2,0.2,0.4,0.4,0.5,0.6s0.2,0.5,0.2,0.8
			c0,0.1,0,0.2,0,0.3s0,0.3-0.1,0.4s-0.1,0.3-0.3,0.5c-0.1,0.2-0.3,0.3-0.6,0.5c0.2,0.1,0.3,0.2,0.5,0.3c0.2,0.1,0.3,0.3,0.4,0.4
			c0.1,0.2,0.2,0.3,0.3,0.5s0.1,0.4,0.1,0.6c0,0.3-0.1,0.7-0.2,1c-0.2,0.3-0.4,0.6-0.6,0.9s-0.5,0.5-0.8,0.6
			c-0.3,0.2-0.6,0.2-0.9,0.2c-0.4,0-0.8-0.1-1.1-0.3S11.6,31.2,11.3,31.1z"/>
		<path d="M18.1,31.4c-0.1-0.2-0.2-0.3-0.2-0.5s0-0.3,0.1-0.4s0.2-0.2,0.4-0.2c0.1,0,0.2,0,0.3,0c0.2,0.2,0.5,0.3,0.7,0.4
			s0.5,0.1,0.8,0.1c0.2,0,0.4,0,0.6-0.1s0.4-0.2,0.5-0.3c0.2-0.1,0.3-0.3,0.4-0.5s0.1-0.4,0.1-0.7c0-0.2-0.1-0.5-0.2-0.6
			c-0.1-0.2-0.3-0.3-0.4-0.4s-0.4-0.3-0.6-0.3c-0.2,0-0.4,0-0.6,0s-0.3,0-0.4,0S19.3,28,19.2,28s-0.1,0.1-0.2,0.1l-0.1,0.1l-0.1,0.1
			c0,0-0.1,0-0.2,0s-0.3,0-0.4-0.1S18,27.9,18,27.7c0-0.5,0-0.9,0-1.4s0-0.9,0-1.4c-0.1-0.1-0.2-0.3-0.2-0.4s0.1-0.3,0.2-0.4
			s0.3-0.2,0.5-0.2c0.1,0,0.2,0,0.4,0s0.4,0,0.7,0s0.5,0,0.8,0s0.5,0,0.8,0c0.2,0,0.5,0,0.7,0s0.3,0,0.4,0c0.2,0,0.3,0.1,0.4,0.2
			s0.1,0.2,0.1,0.3s0,0.3-0.1,0.4s-0.2,0.1-0.4,0.1c-0.5,0-1,0-1.5,0s-1,0-1.5,0c0,0.3,0,0.6,0,0.9s0,0.6,0,0.9
			c0.2,0,0.3-0.1,0.5-0.1s0.3,0,0.5,0c0.4,0,0.8,0.1,1.2,0.2c0.3,0.1,0.6,0.3,0.9,0.6c0.2,0.2,0.4,0.5,0.6,0.8
			c0.1,0.3,0.2,0.6,0.2,1c0,0.3-0.1,0.6-0.2,1c-0.1,0.3-0.3,0.6-0.6,0.9s-0.6,0.5-0.9,0.6s-0.7,0.2-1.1,0.2s-0.7-0.1-1.1-0.2
			C18.8,31.7,18.4,31.6,18.1,31.4z"/>
	</g>
</g>
</svg>
