<?xml version="1.0" encoding="utf-8"?>
<!-- Generator: Adobe Illustrator 19.2.0, SVG Export Plug-In . SVG Version: 6.00 Build 0)  -->
<svg version="1.1" xmlns="http://www.w3.org/2000/svg" xmlns:xlink="http://www.w3.org/1999/xlink" x="0px" y="0px"
	 viewBox="0 0 150 335" enable-background="new 0 0 150 335" xml:space="preserve" width="150" height="335" preserveAspectRatio="none">
<g id="Rote_Screen_BG">
</g>
<g id="Barrel_and_Bucket__x28_Ground_x29_">
</g>
<g id="Bucket_Pour_0">
</g>
<g id="Layer_84">
	
		<ellipse transform="matrix(0.2634 -0.9647 0.9647 0.2634 -15.1349 78.1689)" fill="#96A3AB" cx="43.6" cy="49" rx="42.4" ry="6.6"/>
	<path fill="#B9C3C9" d="M33.3,89.3c24.7-0.4,59.2,10.5,69.2,13.8c18.6-15.2,24-36.7,23.5-47.2c-0.3-5.7-3.1-10.3-5-13.2
		C84.9,29.1,56.3,9.5,56.3,9.5C55.6,62,33.3,89.3,33.3,89.3z"/>
	<path fill="#969EA3" d="M58.3,10.8c0,0,1.8,8.7-1.6,25.8c-3.4,17-12.4,45.2-19.7,52.7l-1.6,0l4.7-8.6L48.3,59l6.2-25.2
		c0,0,2-15.5,1.9-15.9s-0.4-8.7-0.4-8.7L58.3,10.8z"/>
	<path fill="#CCD7DE" d="M37,47.5c-6.4,23.3-8.6,43-4.9,44c0.8,0.2,1.7-0.2,2.8-1.3c-0.1-0.8-0.2-1.6-0.7-2.3
		c-0.7,0.9-1.3,1.4-1.7,1.3c-0.3-0.1-0.6-0.3-0.8-0.7c-2-3.6,0.4-20.8,5.8-40.9C43.5,26.2,50.7,9.3,54.1,9.3l0.7-2.2
		C51.1,7,43.2,24.7,37,47.5z"/>
	<path fill="#CCD7DE" d="M39.9,82.7c0.5-1.1,1.1-2.2,1.7-3.5L40,77.1c-2.3,5.1-4.4,8.9-5.8,10.8c0.4,0.7,0.6,1.5,0.7,2.3
		C36.3,88.7,38,86.2,39.9,82.7z"/>
	<path opacity="0.74" fill="#8CD8ED" d="M40.5,76.2c3.8-8.8,9.2-22.2,13.3-45.2c0,0-17.9,30.8-24.1,55.3c-1.1,4.2-3.4,11.9-2.3,15.8
		c0.5,1.8,2,4.3,3.7,4c5.5-1,2.6-5.3,3.8-12.2C35.9,88,38.9,81.4,40.5,76.2z"/>
	<path fill="#CCD7DE" d="M97.9,26.5c-6.4-0.4-19.4-1.2-19.4-1.2l0.4,3c6.2,0,16.6,0.9,20.5,1.2c5.6,0.6,11.5,2.3,11.9,4.2
		c0,0,0,0,0,0l3-0.2c0-0.1,0-0.3-0.1-0.4c-0.6-2.8-4.4-4.5-8.2-5.4C104.3,27.3,99.9,26.7,97.9,26.5z"/>
	<path fill="#96A3AB" d="M39.8,40.6c0,0-8.2-2.2-8.7,4.2C30.7,50,37,51.2,37,51.2l0.8-2.5c0,0-4.6-0.6-4.4-3.5c0.2-3.5,6-2.5,6-2.5
		L39.8,40.6z"/>
	<path fill="#B9C3C9" d="M36.1,40.7c0,0-1.7,0.5-3.1,2.1c-1.4,1.6-1,3.2-0.6,4.2s1.7,2.7,1.7,2.7S31,48.3,31.3,45
		C31.6,42,33.5,40.3,36.1,40.7z"/>
	<path fill="#96A3AB" d="M29.9,45.7c-0.5-0.7-0.7-2.1,0.6-3c0.9-0.6,3.8,1.1,5.3,1.5c1.5,0.3,2.2,0.5,2.2,0.5L37.3,47
		c0,0-1.4-0.7-3.2-0.7C32.3,46.4,30.5,46.5,29.9,45.7z"/>
	<line fill="#96A3AB" x1="39.2" y1="40.5" x2="36.7" y2="50.9"/>
	<path fill="#B9C3C9" d="M30.7,42.7c0,0-0.9,0.2-1.1,1.4c-0.2,1.1,0.5,1.6,0.5,1.6S29.8,44.5,30.7,42.7z"/>
	<path fill="none" d="M54.3,9.3c-3.2-0.9-10.7,16.3-16.7,38.3c-5.5,20-7.9,37.3-5.8,40.9c1.5-5.5,7.2-24.4,20.4-49.4
		C55.9,22.6,57,10,54.3,9.3z"/>
	<path fill="#A9B2B8" d="M103,102.7c2,0.4,3.3,0.5,3.3,0.5s12.8-7.3,19.7-29.5c6.7-21.5-1.7-28.4-1.7-28.4c-1.1-0.6-1.8-1.2-3-2.2
		c1.2,2.7,4.3,7.4,4.2,13.1C125.1,68.5,121.6,87.4,103,102.7z"/>
	<path fill="#969EA3" d="M122.7,44.3c-0.7-0.5-0.8-0.7-1.4-1.2c1.4,2.8,4,7.4,4,15.2c0.1,12.9-7.4,31.4-22.3,44.3
		c0.6,0.1,0.9,0.2,1.3,0.2c0,0,11.1-8.8,17.7-23.9C126.2,69.3,129.3,54.3,122.7,44.3z"/>
	<path fill="#CCD7DE" d="M78.7,38.9c-0.4,12.6-3.4,31-15.4,53.6c0.2,1,1.3,1.5,2.2,0.4c3.9-7.4,6.6-13.8,8.8-20.4
		c7.7-22.5,7-39,5.4-49.1c-0.2-1-1.1-1.4-2-1.1C78.4,26.7,78.9,31.5,78.7,38.9z"/>
	<path fill="#969EA3" d="M82.2,39.5c-0.3,11.3-3.3,31-15.6,53.6c-0.1,0.2,0.8,0.5,1,0.3c4.1-7.6,7.2-14.9,9.5-21.7
		c6.9-20.3,7-34.1,4.8-47c-0.1-0.3-1-0.9-1-0.5C81.5,28.1,82.3,33.8,82.2,39.5z"/>
	<path fill="#B9C3C9" d="M44.9,52.8c0,0,0.5-2,0-3.1C45,49.7,46.6,51.1,44.9,52.8z"/>
	<path fill="#969EA3" d="M76.9,49.4l-15.3,2.4L52,52.2l-0.4,2.4c0,0,14.8,0.2,25.7-1.9l0.6-3.5L76.9,49.4z"/>
	<path fill="#969EA3" d="M110.6,38.6l-21.3,8.8L80,48.9l-0.5,3.3c1-0.2,13.8-2.5,22.2-6.4c8.7-4,11.1-6.5,11.1-6.5L110.6,38.6z"/>
	<path fill="#A9B2B8" d="M77.9,49.2l-0.6,3.5c0,0,0,0,0,0c0,0,0.4-0.8,2-0.5c0,0,0,0,0.1,0l0.5-3.3L77.9,49.2z"/>
	<path fill="#CCD7DE" d="M40,77.1l1.5,2.1c0.9-1.9,1.8-4.1,2.7-6.5L43,69.9C42,72.5,41,74.9,40,77.1z"/>
	<path fill="#B9C3C9" d="M51.6,45.2c0,0-9.7-2.8-10.6,5.4c-0.8,6.8,7.3,8.3,7.3,8.3l0.7-2.5c0,0-6.6-2.6-5.7-6.4
		c1-4.2,7.8-1.5,7.8-1.5L51.6,45.2z"/>
	<path fill="#CCD7DE" d="M47.5,45.2c0.1,0-3-0.4-5,2.3c-2,2.7-1.3,5.2-0.3,6.7c0.7,1.2,1.9,2,1.9,2s-2.3-3.6-1.4-6.5
		C43.9,46.4,46.6,45.3,47.5,45.2z"/>
	<path fill="#CCD7DE" d="M41.1,49.1c-1.3,0.3-1.8,3.2-0.1,3.9c0,0,2.7,1,3.7,0.2c1-0.8,0.7-4.1-0.5-4.2
		C42.9,48.9,42.2,48.9,41.1,49.1z"/>
	<path fill="#CCD7DE" d="M55.1,7.1c-0.1,0-0.2,0-0.3,0l-0.7,2.2c0.1,0,0.2,0,0.3,0c2.6,0.7,1.6,13.2-2.2,29.8
		c-0.8,3.7-1.8,7.7-2.9,11.7c-1.9,7-4.1,13.5-6.3,19.1l1.3,2.8c2.3-5.9,4.7-13.1,7.1-21.7c1.9-6.9,3.4-13.1,4.4-18.5
		C58.7,16.8,57.8,7.8,55.1,7.1z"/>
	<path fill="#CCD7DE" d="M104.3,39.8C83.3,51,54.9,50.3,47.7,49.9c-1.1-0.1-4.1-0.4-4.2-0.4c-0.5,1.2-0.4,2.2,0.3,3.2
		c0.2,0,2.6,0.1,3.5,0.2c7.4,0.4,36.3,1.2,58.3-10.5c4.8-2.6,7.5-4.9,8.3-7.1c0.2-0.6,0.3-1.2,0.2-1.8l-3,0.2
		C111.2,34.1,111.2,36.1,104.3,39.8z"/>
	<path fill="#C4F7FF" d="M29.6,105.1c-0.2,0.1,3.4-0.1,3.9-3.1s-0.8-6.1-0.8-4.4C32.8,100.6,32.7,103.2,29.6,105.1z"/>
	<path fill="#C4F7FF" d="M34.1,76.4c0,0-3.5,9.4-4.3,12.3c-0.9,3-0.7,6.2-0.1,4c1.9-7.1,3.7-12.4,4.8-15.3
		C35.4,75.2,34.3,75.8,34.1,76.4z"/>
</g>
<g id="Bucket_Pour_1">
</g>
<g id="Bucket_Pour_2_Water_Level_8-10">
</g>
<g id="Bucket_Pour_2_Water_Level_1-7">
</g>
<g id="Bucket_Pour_3">
</g>
<g id="Water_Level_0">
</g>
<g id="Bucket_Pour_3_Water_Level_0">
</g>
<g id="Bucket_Pour_4_Water_Level_0">
</g>
<g id="Water_Level_1">
</g>
<g id="Bucket_Pour_3_Water_Level_1">
</g>
<g id="Bucket_Pour_4_Water_Level_1">
</g>
<g id="Water_Level_2">
</g>
<g id="Bucket_Pour_3_Water_Level_2">
</g>
<g id="Bucket_Pour_4_Water_Level_2">
</g>
<g id="Water_Level_3">
</g>
<g id="Bucket_Pour_3_Water_Level_3">
</g>
<g id="Bucket_Pour_4_Water_Level_3">
</g>
<g id="Water_Level_4">
</g>
<g id="Bucket_Pour_3_Water_Level_4">
	<g id="Bucket_Pour_4_Water_Level_3_copy">
	</g>
</g>
<g id="Bucket_Pour_4_Water_Level_4">
</g>
<g id="Water_Level_5">
</g>
<g id="Bucket_Pour_3_Water_Level_5">
</g>
<g id="Bucket_Pour_4_Water_Level_5">
</g>
<g id="Water_Level_6">
</g>
<g id="Bucket_Pour_3_Water_Level_6">
</g>
<g id="Bucket_Pour_4_Water_Level_6">
</g>
<g id="Water_Level_7">
</g>
<g id="Bucket_Pour_3_Water_Level_7">
</g>
<g id="Bucket_Pour_4_Water_Level_7">
</g>
<g id="Water_Level_8">
</g>
<g id="Bucket_Pour_3_Water_Level_8">
</g>
<g id="Bucket_Pour_4_Water_Level_8">
</g>
<g id="Water_Level_9">
</g>
<g id="Bucket_Pour_3_Water_Level_9">
</g>
<g id="Bucket_Pour_4_Water_Level_9">
</g>
<g id="Water_Level_10">
</g>
<g id="Bucket_Pour_3_Water_Level_10_1_">
</g>
<g id="Bucket_Pour_4_Water_Level_10">
</g>
<g id="Bucket_Pour_0_copy">
</g>
<g id="Layer_69">
</g>
<g id="Puddle_Xtra_Large">
</g>
<g id="Puddle_Large">
</g>
<g id="Puddle_Medium">
</g>
<g id="Puddle_Small">
</g>
<g id="Bucket_Pour_4_1_">
</g>
<g id="Bucket_Pour_4a">
</g>
<g id="Bucket_Pour_5">
</g>
<g id="Rote_x27_s_Leak_1">
</g>
<g id="Rote_x27_s_Leak_2">
</g>
<g id="Rote_x27_s_Leak_3">
</g>
<g id="Rote_x27_s_Leak_4">
</g>
<g id="Barrel_FG">
</g>
<g id="Spigot_Handle_1">
</g>
<g id="Spigot_Handle_2">
</g>
<g id="Rote">
</g>
<g id="Hole_1_Stream_1">
</g>
<g id="Hole_1_Stream_2">
</g>
<g id="Hole_1_Stream_3">
</g>
<g id="Hole_1_Stream_3a">
</g>
<g id="Hole_1_Stream_3b">
</g>
<g id="Hole_2_Stream_1">
</g>
<g id="Hole_2_Stream_2">
</g>
<g id="Hole_2_Stream_3">
</g>
<g id="Hole_2_Stream_4">
</g>
<g id="Hole_2_Stream_5">
</g>
<g id="Hole_2_Stream_5a">
</g>
<g id="Hole_2_Stream_5b">
</g>
<g id="Hole_3_Stream_1_1_">
</g>
<g id="Hole_3_Stream_2_1_">
</g>
<g id="Hole_3_Stream_3_1_">
</g>
<g id="Hole_3_Stream_4_1_">
</g>
<g id="Hole_3_Stream_5">
</g>
<g id="Hole_3_Stream_5a">
</g>
<g id="Hole_3_Stream_5b">
</g>
<g id="Droplets_1">
</g>
<g id="Droplets_2">
</g>
<g id="Droplets_3">
</g>
<g id="Band_Aids">
</g>
<g id="Rote_Screen_FG">
</g>
<g id="Labels">
	<polyline fill="none" stroke="#FFFFFF" stroke-width="0.9767" stroke-miterlimit="10" points="920.9,335.8 920.9,371.2 -11,371.2 
		-11,329.9 	"/>
</g>
</svg>
