<?xml version="1.0" encoding="utf-8"?>
<!-- Generator: Adobe Illustrator 19.2.0, SVG Export Plug-In . SVG Version: 6.00 Build 0)  -->
<svg version="1.1" xmlns="http://www.w3.org/2000/svg" xmlns:xlink="http://www.w3.org/1999/xlink" x="0px" y="0px"
	 viewBox="0 0 150 335" enable-background="new 0 0 150 335" xml:space="preserve" width="150" height="335" preserveAspectRatio="none">
<g id="Rote_Screen_BG">
</g>
<g id="Barrel_and_Bucket__x28_Ground_x29_">
</g>
<g id="Bucket_Pour_0">
</g>
<g id="Layer_84">
</g>
<g id="Bucket_Pour_1">
</g>
<g id="Bucket_Pour_2_Water_Level_8-10">
</g>
<g id="Bucket_Pour_2_Water_Level_1-7">
</g>
<g id="Bucket_Pour_3">
</g>
<g id="Water_Level_0">
</g>
<g id="Bucket_Pour_3_Water_Level_0">
</g>
<g id="Bucket_Pour_4_Water_Level_0">
</g>
<g id="Water_Level_1">
</g>
<g id="Bucket_Pour_3_Water_Level_1">
</g>
<g id="Bucket_Pour_4_Water_Level_1">
</g>
<g id="Water_Level_2">
</g>
<g id="Bucket_Pour_3_Water_Level_2">
</g>
<g id="Bucket_Pour_4_Water_Level_2">
</g>
<g id="Water_Level_3">
</g>
<g id="Bucket_Pour_3_Water_Level_3">
</g>
<g id="Bucket_Pour_4_Water_Level_3">
</g>
<g id="Water_Level_4">
</g>
<g id="Bucket_Pour_3_Water_Level_4">
	<g id="Bucket_Pour_4_Water_Level_3_copy">
	</g>
</g>
<g id="Bucket_Pour_4_Water_Level_4">
</g>
<g id="Water_Level_5">
</g>
<g id="Bucket_Pour_3_Water_Level_5">
</g>
<g id="Bucket_Pour_4_Water_Level_5">
</g>
<g id="Water_Level_6">
</g>
<g id="Bucket_Pour_3_Water_Level_6">
</g>
<g id="Bucket_Pour_4_Water_Level_6">
</g>
<g id="Water_Level_7">
</g>
<g id="Bucket_Pour_3_Water_Level_7">
</g>
<g id="Bucket_Pour_4_Water_Level_7">
</g>
<g id="Water_Level_8">
</g>
<g id="Bucket_Pour_3_Water_Level_8">
</g>
<g id="Bucket_Pour_4_Water_Level_8">
</g>
<g id="Water_Level_9">
</g>
<g id="Bucket_Pour_3_Water_Level_9">
</g>
<g id="Bucket_Pour_4_Water_Level_9">
</g>
<g id="Water_Level_10">
</g>
<g id="Bucket_Pour_3_Water_Level_10_1_">
</g>
<g id="Bucket_Pour_4_Water_Level_10">
</g>
<g id="Bucket_Pour_0_copy">
</g>
<g id="Layer_69">
</g>
<g id="Puddle_Xtra_Large">
</g>
<g id="Puddle_Large">
</g>
<g id="Puddle_Medium">
</g>
<g id="Puddle_Small">
</g>
<g id="Bucket_Pour_4_1_">
	<g>
		<path opacity="0.75" fill="#8CD8ED" d="M18.5,295.8c1.6-18.3,8.5-36.8-3.8-36.1c-10,0.5-6.7,15-4.3,36.4c0.6,5.2,1,13.2,0.2,21.5
			c-0.5,5.6-1.2,17.5-1.3,18.6l9.4,0.1c0-1-0.5-18.3-0.6-19.4C17.8,309.6,17.9,302.4,18.5,295.8z"/>
		<path fill="#C4F7FF" d="M16,261.6c0,0,5.4,2.5,3.5,5.1c-1.9,2.5-0.6-1.6-3.8-2.6S11.9,261.6,16,261.6z"/>
		<path fill="#C4F7FF" d="M18.8,273c0,0-1.3,5.3-1.6,13.8c-0.3,6.4-0.5,18.5-0.9,22.4c-0.4,3.8-0.5,8.4-1.3,6.4
			c-0.7-2,1.1-36.2,1.5-39.4C16.8,272.8,18.1,268.6,18.8,273z"/>
		<path fill="#C4F7FF" d="M15.4,268.1c-1.2,2.2-3.5-1.1-1.6-2C15.5,265.2,16.3,266.4,15.4,268.1z"/>
	</g>
</g>
<g id="Bucket_Pour_4a">
</g>
<g id="Bucket_Pour_5">
</g>
<g id="Rote_x27_s_Leak_1">
</g>
<g id="Rote_x27_s_Leak_2">
</g>
<g id="Rote_x27_s_Leak_3">
</g>
<g id="Rote_x27_s_Leak_4">
</g>
<g id="Barrel_FG">
</g>
<g id="Spigot_Handle_1">
</g>
<g id="Spigot_Handle_2">
</g>
<g id="Rote">
</g>
<g id="Hole_1_Stream_1">
</g>
<g id="Hole_1_Stream_2">
</g>
<g id="Hole_1_Stream_3">
</g>
<g id="Hole_1_Stream_3a">
</g>
<g id="Hole_1_Stream_3b">
</g>
<g id="Hole_2_Stream_1">
</g>
<g id="Hole_2_Stream_2">
</g>
<g id="Hole_2_Stream_3">
</g>
<g id="Hole_2_Stream_4">
</g>
<g id="Hole_2_Stream_5">
</g>
<g id="Hole_2_Stream_5a">
</g>
<g id="Hole_2_Stream_5b">
</g>
<g id="Hole_3_Stream_1_1_">
</g>
<g id="Hole_3_Stream_2_1_">
</g>
<g id="Hole_3_Stream_3_1_">
</g>
<g id="Hole_3_Stream_4_1_">
</g>
<g id="Hole_3_Stream_5">
</g>
<g id="Hole_3_Stream_5a">
</g>
<g id="Hole_3_Stream_5b">
</g>
<g id="Droplets_1">
</g>
<g id="Droplets_2">
</g>
<g id="Droplets_3">
</g>
<g id="Band_Aids">
</g>
<g id="Rote_Screen_FG">
</g>
<g id="Labels">
</g>
</svg>
