<?xml version="1.0" encoding="utf-8"?>
<!-- Generator: Adobe Illustrator 19.2.0, SVG Export Plug-In . SVG Version: 6.00 Build 0)  -->
<svg version="1.1" xmlns="http://www.w3.org/2000/svg" xmlns:xlink="http://www.w3.org/1999/xlink" x="0px" y="0px"
	 viewBox="0 0 150 335" enable-background="new 0 0 150 335" xml:space="preserve" width="150" height="335" preserveAspectRatio="none">
<g id="Bucket_Pour_3_Water_Level_0">
	<g>
		
			<ellipse transform="matrix(1.020709e-02 -0.9999 0.9999 1.020709e-02 -19.2668 86.3208)" fill="#96A3AB" cx="34" cy="52.9" rx="42.4" ry="6.6"/>
		<path fill="#96A3AB" d="M28.1,45.7c0,0-8.4,0-7.4,6.2c0.9,5.2,7.3,4.8,7.3,4.8l0.1-2.7c0,0-4.6,0.6-5.1-2.3
			c-0.7-3.4,5.1-3.9,5.1-3.9L28.1,45.7z"/>
		<path fill="#B9C3C9" d="M24.5,46.8c0,0-1.5,0.9-2.4,2.8c-0.9,1.9-0.1,3.4,0.5,4.3c0.6,0.9,2.3,2.2,2.3,2.2s-3.4-0.6-3.9-3.9
			C20.5,49.1,21.9,47,24.5,46.8z"/>
		<path fill="#96A3AB" d="M19.7,53.1c-0.7-0.6-1.2-1.9-0.2-3c0.7-0.9,4,0.1,5.5,0.1c1.5,0,2.2-0.1,2.2-0.1l0.1,2.5
			c0,0-1.6-0.3-3.3,0.2C22.3,53.2,20.5,53.8,19.7,53.1z"/>
		<path fill="#CCD7DE" d="M80.6,17.4c-6.3,1.2-19.1,3.8-19.1,3.8l1.1,2.8c6-1.6,16.2-3.4,20.1-4c5.6-0.9,11.7-0.7,12.5,1
			c0,0,0,0,0,0l2.8-1c0-0.1-0.1-0.2-0.2-0.4c-1.3-2.6-5.4-3.2-9.3-3.2C87,16.5,82.6,17,80.6,17.4z"/>
		<path fill="#B9C3C9" d="M34.1,94.4c23.8-6.7,59.9-4.9,70.4-4.2c14.2-19.5,13.9-41.5,10.7-51.6c-1.7-5.5-5.7-9.2-8.2-11.6
			c-38.4-3.9-71-15.7-71-15.7C48.7,62.4,34.1,94.4,34.1,94.4z"/>
		<path fill="#A9B2B8" d="M104.9,89.7c2.1-0.1,3.3-0.3,3.3-0.3s10.5-10.3,11.6-33.5c1-22.5-8.9-27.1-8.9-27.1
			c-1.2-0.3-2-0.7-3.5-1.3c1.8,2.3,6.1,6,7.4,11.6C117.6,51,119.1,70.3,104.9,89.7z"/>
		<path fill="#969EA3" d="M109.2,28.3c-0.8-0.3-0.9-0.5-1.6-0.8c2,2.4,5.7,6.1,7.7,13.6c3.3,12.5,0.8,32.3-10.4,48.5
			c0.6,0,0.9-0.1,1.3-0.1c0,0,8.5-11.3,11-27.6C118.9,51.6,118.1,36.3,109.2,28.3z"/>
		<path fill="#CCD7DE" d="M33.2,96.9c0,0,1,0.5,2.4-1.4c1-1.3,1.6-5.5,1.6-5.5s-2.2,4.3-2.4,4.4s-1.5,1.2-1.5,1.2L33.2,96.9z"/>
		<path fill="#CCD7DE" d="M65.2,34.3C68,46.6,69.8,65.1,63.9,90c0.5,0.9,1.7,1.1,2.2-0.1c1.9-8.1,2.9-15,3.4-22
			c1.7-23.7-3.1-39.5-7.3-48.9c-0.5-0.9-1.4-1.1-2.2-0.5C61.9,22.5,63.5,27,65.2,34.3z"/>
		<path fill="#969EA3" d="M68.7,33.9c2.6,11,4.6,30.8-1.4,55.8c-0.1,0.3,0.9,0.3,1,0c2-8.4,3.2-16.2,3.7-23.4
			c1.6-21.4-1.9-34.8-7.3-46.7c-0.1-0.3-1.2-0.6-1.1-0.3C65.2,23.1,67.4,28.4,68.7,33.9z"/>
		<line fill="#96A3AB" x1="27.4" y1="45.7" x2="27.7" y2="56.5"/>
		<path fill="#B9C3C9" d="M36.1,56.3c0,0,0-2.1-0.8-3.1C35.3,53.2,37.3,54.2,36.1,56.3z"/>
		<path fill="#B9C3C9" d="M19.8,50.1c0,0-0.8,0.4-0.7,1.6c0.1,1.2,0.9,1.4,0.9,1.4S19.3,52.1,19.8,50.1z"/>
		<path fill="#969EA3" d="M38.4,12.2c0,0,4,7.9,5,25.3c1,17.3-0.5,46.9-5.7,56l-1.6,0.4l2.4-9.5l2.4-23.1l-0.4-25.9
			c0,0-2-15.5-2.2-15.9c-0.1-0.3-2.6-8.3-2.6-8.3L38.4,12.2z"/>
		<path fill="none" d="M34.2,11.8c-3.3,0-6.2,18.5-6.5,41.3c-0.2,20.7,1.8,38.1,4.7,41c0.1-5.7,0.7-25.4,7.2-53
			C39.1,24.2,36.9,11.8,34.2,11.8z"/>
		<path fill="#CCD7DE" d="M33.3,94.5c-0.3,0-0.6-0.1-0.9-0.4c-2.9-2.9-4.9-20.3-4.7-41c0.2-22.3,3-40.4,6.2-41.3L34,9.5
			c-3.7,0.9-6.8,20.1-7,43.6c-0.2,24.2,2.6,43.8,6.4,43.8c1.3,0,2.5-1.7,3.7-4.9l-1.2-3.3C35,92.4,34,94.5,33.3,94.5z"/>
		<path fill="#969EA3" d="M66.1,44.8L52,51.1l-9.2,2.8l0.3,2.4c0,0,14.3-3.5,24.3-8.4l-0.3-3.5L66.1,44.8z"/>
		<path fill="#969EA3" d="M96,25.9L77.6,39.7L69,43.6l0.3,3.4c0.9-0.4,12.7-6,19.8-11.8c7.4-6.1,9.1-9.1,9.1-9.1L96,25.9z"/>
		<path fill="#A9B2B8" d="M67.1,44.4l0.3,3.5c0,0,0,0,0,0c0,0,0.2-0.9,1.9-1c0,0,0,0,0.1,0L69,43.6L67.1,44.4z"/>
		<g>
			<path fill="#B9C3C9" d="M40.6,47.2c0,0-10.1-0.3-8.9,7.9c1,6.8,9.2,6.2,9.2,6.2l0.1-2.6c0,0-7.1-0.8-7.2-4.8
				c-0.1-4.3,7.1-3.5,7.1-3.5L40.6,47.2z"/>
			<path fill="#CCD7DE" d="M36.6,48.2c0.1-0.1-3,0.4-4.2,3.5c-1.2,3.1,0.1,5.3,1.4,6.6c1,0.9,2.4,1.4,2.4,1.4s-3.2-2.9-3-5.9
				C33.4,50.3,35.8,48.6,36.6,48.2z"/>
			<path fill="#CCD7DE" d="M31.4,53.6c-1.2,0.6-1,3.5,0.9,3.8c0,0,2.9,0.3,3.6-0.7s-0.3-4.1-1.6-3.9S32.5,53.1,31.4,53.6z"/>
			<path fill="#CCD7DE" d="M41.4,33.9c-1.2-16-4.3-24.4-7.1-24.5c-0.1,0-0.2,0-0.3,0l-0.1,2.4c0.1,0,0.2,0,0.3,0
				c2.7,0,4.9,12.4,5.5,29.4c0.1,3.8,0.2,7.9,0.1,12.1c-0.1,7.3-0.5,14.1-1.2,20c-0.3,2.8-0.7,5.4-1.1,7.7l0,0c-0.5,3-1,5.6-1.6,7.7
				l1.2,3.3c0.6-1.5,1.1-3.4,1.6-5.6c0.3-1.2,0.5-2.4,0.7-3.8c0.4-2.1,0.7-4.4,1-7c0.7-6.3,1.3-13.8,1.4-22.8
				C42,45.7,41.8,39.3,41.4,33.9z"/>
			<path fill="#CCD7DE" d="M90.2,28.6C72.7,44.7,45.1,51.3,38,52.8c-1.1,0.2-4.1,0.7-4.1,0.7c-0.2,1.3,0.2,2.3,1.1,3
				c0.2,0,2.5-0.5,3.5-0.7c7.2-1.4,35.4-8,53.8-25c4-3.7,6-6.6,6.2-9c0-0.6,0-1.2-0.3-1.8l-2.8,1C95.5,21.4,95.9,23.3,90.2,28.6z"/>
		</g>
		<path opacity="0.75" fill="#8CD8ED" d="M20.2,335c-0.3-3.3-0.5-24.6-0.7-29.6c-0.8-23.5-0.4-61.2-0.1-77.5
			c1.2-56.6,6.3-108.2,17.3-141c2-6.1,3.5-17.1,3.6-23c-8.4,7.7-37.7,90.5-38.4,164c-0.1,14.8,0.6,53.5,1,78.8
			c0.1,4.4,0.2,25.4,0.2,28.8L20.2,335z"/>
		<path opacity="0.75" fill="#C4F7FF" d="M31.3,95.4c0,0-6.2,27.5-10.7,54.9s-4.7,56-4.7,56s-2.2,1.8-1.8-8.7
			C14.4,187.1,22.5,113.3,31.3,95.4z"/>
		<path opacity="0.75" fill="#C4F7FF" d="M15.3,211.1c0,0,0,0.5,0,1.5c-0.2,5.9-0.7,27.5-0.7,30.3c0,3.2,0.2,7.5-1,5.2
			s-2-20.8-1-27.8C13.2,214.6,14.3,207.2,15.3,211.1z"/>
	</g>
</g>
</svg>
