<svg id="Layer_3" data-name="Layer 3" xmlns="http://www.w3.org/2000/svg" viewBox="0 0 396 98" width="396" height="98" preserveAspectRatio="none"><defs><style>
      .cls-1 {
        fill: #2c2b2f;
      }
    </style></defs><path class="cls-1" d="M105.34,62.63l-.86-.73c-.42-.08-.95-.27-1.53-.59.26,1.28.56,2.84.81,4.3l.24-.28,1.34-2.7ZM92.6,66.11c.13-.15.27-.28.41-.4.35-2,.67-3.89.79-4.69.32-2.04.65-2.83.65-2.83l-1.51,1.31s.02.04.02.04l-.05.04-2.86,2.43.85,1.73s.04,0,.06,0l-.05.03.47.95,1.21,1.39ZM64.79,33.47c-.18-.07-.62-1.47,1.09-4.07,1.71-2.6,5.52-4.06,5.52-4.06,0,0,.1-.03.25-.07-.43-.55-.46-1.11-.45-1.29-.12-.51.39-1.07,1.42-1.38,0,0,0,0,0,0-1.19-.26-2.07-.45-2.46-.57-.77-.23-.95-.67-.95-.67,0,0-.1-.71.57-1.66.67-.95,2.98-2.68,6.3-3.92,2.19-.82,3.67-.96,4.44-.97-.67-.76-1.26-1.42-1.61-2.05-.48-.86-.19-1.31-.03-1.47-.05-.27.03-.54.35-.83.65-.57,2.03-.8,4.1-.73-.62-1.59-.14-3.52-.14-3.52l.08.02c.03-.07.06-.13.12-.18,1.39-.97,5.1.17,7.97,1.3-.38-1.8-.78-3.51-.9-4.19-.23-1.24.62-1.7.62-1.7,0,0,.77-.61,1.55-.52.78.09,2.82-.93,9.92,5.29,2.09,1.82,3.42,3.94,4.28,6,.27-.92.63-2.16.81-3.07.41-2.06,1.08-2.37,1.31-2.41.53-.86,1.77-.24,3.41,2.08,1.84,2.6,2.43,7.06,2.38,11.39,0,.12-.02.21-.02.33,1.97-1.92,4.1-2.41,4.1-2.41,0,0,1.47.01,1.88,3.02.3,2.17-1.06,6.6-1.63,8.26-.17.49-.46.95-.78,1.38.2.07.4.13.62.21l-.65-.16s0,0,0,0c1.36.63,2.92,1.55,4.79,2.91,5.2,3.79,4.39,8.27,4.39,8.27,0,0-.16,1.75-2.05,1.57-1.52-.14-3.6-.59-5-.69,1.97,2.69,2.25,5.89,2.25,7.42.12.8.04,1.68-.74,1.98-1.52.57-4.28-1.48-5.19-1.72.12.98.12,2.13-.02,3.41.02.33.03.6,0,.76,0,0,.06,3.42-.9,3.68-.7.19-2.91-.66-4.37-2.52-.52,2.33-1.12,3.92-1.3,4.37.37.36.64.72.68,1.05.18,1.27-2.24,5.75-2.9,6.95h0s-.04.06-.04.06c-.09.15-.13.24-.13.24,0,0-.02-.03-.02-.04l-2.41,3.01s-.2.39-.77.76l2.21,11.36.49,2.53c-1.23.73-2.57,1.05-3.81,1.16-.16.87-.74,3.79-1.95,6.37,0,0,6.88-.23,8.55.42,1.67.65,1.58,1.72-.37,2.56-1.95.84-8,.19-10.79-1.39,0,0-4.88,2.14-8.97,1.67-1.2-.14-2.05-.29-2.66-.47l-.08.05s0-.04,0-.07c-1.39-.42-1.3-.97-.14-1.74,1.67-1.12,8.04-.98,9.2-.74,0,0-1.96-3.25-2.3-6.39-2.4-.06-4.49-.54-4.49-.54,0,0-.04-.77.13-2.96.01-.22.03-.46.05-.71.23-2.68,2.14-11.05,2.23-11.4-.18.04-.41.04-.73-.13-.79-.42-1.02-.93-1.02-.93l-2.41-3.01s-.02.04-.02.04c0,0-.05-.09-.14-.24l-.04-.05h0c-.58-1.05-2.49-4.58-2.85-6.32-.62-.4-.82-1.01-.82-1.01,0,0-1.19-1.16-1.15-3.53-.85,1.1-1.63,1.99-2.08,2.03-.99.07-1.44-.87-1.44-.87-.36-.58-.69-1.63-.85-3.2-.32.29-.64.58-.88.8-.79.75-1.79,2.08-2.31,2.15-.52.08-1-.59-1-.59,0,0-.41-.1-1.04-2.23-.47-1.58-.22-3.78-.07-4.82-.51-.34-.86-.75-.86-.75,0,0-.09-1.39.28-3.41-1.15.75-3.08,1.93-3.79,1.88-1.02-.07-1.11-.88-1.11-.88,0,0-.19-.73.61-4.32.41-1.86,1.24-3.13,1.95-3.94-1.4.16-2.71.3-3.1.26-.83-.1-.7-.83-.7-.83h0c-.08-.09-.14-.22-.14-.44,0-.54.52-1.94,2.01-3.79-.94.01-1.35.04-1.8.08-.66.06-1.57-.51-1.57-.51" /><polygon class="cls-1" points="281.42 59.72 281.42 68.99 231.44 68.99 231.44 78.25 181.46 78.25 181.46 87.51 131.48 87.51 131.48 96.77 331.4 96.77 331.4 69.45 331.4 68.99 331.4 59.72 281.42 59.72" /><path class="cls-1" d="M160.19,80.36h-2.54v-16.86l-5.1,1.87v-2.3l7.25-2.72h.4v20Z" /><path class="cls-1" d="M214.9,70.91h-13.04v-1.82l6.89-7.66c1.02-1.16,1.72-2.1,2.11-2.82.39-.72.58-1.47.58-2.25,0-1.04-.31-1.89-.94-2.56-.63-.67-1.47-1-2.52-1-1.26,0-2.24.36-2.93,1.07-.7.72-1.05,1.71-1.05,2.99h-2.53c0-1.83.59-3.31,1.77-4.44,1.18-1.13,2.76-1.7,4.74-1.7,1.85,0,3.31.49,4.39,1.46,1.08.97,1.61,2.26,1.61,3.88,0,1.96-1.25,4.29-3.75,7l-5.33,5.78h9.99v2.06Z" /><path class="cls-1" d="M255.52,50.45h1.9c1.19-.02,2.13-.33,2.82-.94.68-.61,1.03-1.44,1.03-2.47,0-2.33-1.16-3.5-3.49-3.5-1.09,0-1.97.31-2.62.94-.65.62-.98,1.45-.98,2.48h-2.53c0-1.58.58-2.89,1.73-3.93,1.15-1.04,2.62-1.57,4.4-1.57,1.88,0,3.35.5,4.42,1.49,1.07.99,1.6,2.37,1.6,4.14,0,.87-.28,1.7-.84,2.52-.56.81-1.32,1.42-2.29,1.82,1.09.35,1.94.92,2.54,1.72.6.8.9,1.78.9,2.94,0,1.79-.58,3.2-1.75,4.25-1.17,1.05-2.68,1.57-4.55,1.57s-3.39-.51-4.56-1.52c-1.17-1.01-1.76-2.35-1.76-4.01h2.54c0,1.05.34,1.89,1.03,2.52s1.6.94,2.75.94c1.22,0,2.16-.32,2.8-.96.65-.64.97-1.55.97-2.75s-.36-2.05-1.07-2.67c-.71-.62-1.74-.94-3.08-.96h-1.9v-2.06Z" /><path class="cls-1" d="M312.5,45.5h2.76v2.06h-2.76v4.62h-2.54v-4.62h-9.06v-1.49l8.91-13.79h2.69v13.22ZM303.76,45.5h6.19v-9.76l-.3.55-5.89,9.21Z" /></svg>