<svg id="Layer_3" xmlns="http://www.w3.org/2000/svg" version="1.1" viewBox="0 0 396 118" width="396" height="118" preserveAspectRatio="none"><defs><style>
      .st0 {
        fill: #2c2b2f;
      }

      .st1 {
        fill: none;
        stroke: #2c2b2f;
        stroke-width: 2.25px;
      }
    </style></defs><rect class="st0" x="56.928005" y="25.063993" width="19.008001" height="19.008001" /><rect class="st1" x="56.928005" y="25.063993" width="19.008001" height="19.008001" /><rect class="st0" x="80.928005" y="25.063993" width="19.008001" height="19.008001" /><rect class="st1" x="80.928005" y="25.063993" width="19.008001" height="19.008001" /><rect class="st0" x="104.928005" y="25.063993" width="19.008001" height="19.008001" /><rect class="st1" x="104.928005" y="25.063993" width="19.008001" height="19.008001" /><rect class="st0" x="128.928005" y="25.063993" width="19.007996" height="19.008001" /><rect class="st1" x="128.928005" y="25.063993" width="19.007996" height="19.008001" /><rect class="st0" x="152.928005" y="25.063993" width="19.007996" height="19.008001" /><rect class="st1" x="152.928005" y="25.063993" width="19.007996" height="19.008001" /><rect class="st0" x="176.928005" y="25.063993" width="19.007996" height="19.008001" /><rect class="st1" x="176.928005" y="25.063993" width="19.007996" height="19.008001" /><rect class="st0" x="200.928005" y="25.063993" width="19.007996" height="19.008001" /><rect class="st1" x="200.928005" y="25.063993" width="19.007996" height="19.008001" /><rect class="st0" x="224.928005" y="25.063993" width="19.007996" height="19.008001" /><rect class="st1" x="224.928005" y="25.063993" width="19.007996" height="19.008001" /><rect class="st0" x="248.928005" y="25.063993" width="19.007996" height="19.008001" /><rect class="st1" x="248.928005" y="25.063993" width="19.007996" height="19.008001" /><rect class="st0" x="272.928005" y="25.063993" width="19.007996" height="19.008001" /><rect class="st1" x="272.928005" y="25.063993" width="19.007996" height="19.008001" /><rect class="st0" x="296.928005" y="25.063993" width="19.007996" height="19.008001" /><rect class="st1" x="296.928005" y="25.063993" width="19.007996" height="19.008001" /><rect class="st0" x="320.928005" y="25.063993" width="19.007996" height="19.008001" /><rect class="st1" x="320.928005" y="25.063993" width="19.007996" height="19.008001" /><rect class="st0" x="56.928005" y="49.063993" width="19.008001" height="19.008001" /><rect class="st1" x="56.928005" y="49.063993" width="19.008001" height="19.008001" /><rect class="st0" x="320.928005" y="49.063993" width="19.007996" height="19.008001" /><rect class="st1" x="320.928005" y="49.063993" width="19.007996" height="19.008001" /><rect class="st0" x="56.928005" y="73.063993" width="19.008001" height="19.008001" /><rect class="st1" x="56.928005" y="73.063993" width="19.008001" height="19.008001" /><rect class="st0" x="80.928005" y="73.063993" width="19.008001" height="19.008001" /><rect class="st1" x="80.928005" y="73.063993" width="19.008001" height="19.008001" /><rect class="st0" x="104.928005" y="73.063993" width="19.008001" height="19.008001" /><rect class="st1" x="104.928005" y="73.063993" width="19.008001" height="19.008001" /><rect class="st0" x="128.928005" y="73.063993" width="19.007996" height="19.008001" /><rect class="st1" x="128.928005" y="73.063993" width="19.007996" height="19.008001" /><rect class="st0" x="152.928005" y="73.063993" width="19.007996" height="19.008001" /><rect class="st1" x="152.928005" y="73.063993" width="19.007996" height="19.008001" /><rect class="st0" x="176.928005" y="73.063993" width="19.007996" height="19.008001" /><rect class="st1" x="176.928005" y="73.063993" width="19.007996" height="19.008001" /><rect class="st0" x="200.928005" y="73.063993" width="19.007996" height="19.008001" /><rect class="st1" x="200.928005" y="73.063993" width="19.007996" height="19.008001" /><rect class="st0" x="224.928005" y="73.063993" width="19.007996" height="19.008001" /><rect class="st1" x="224.928005" y="73.063993" width="19.007996" height="19.008001" /><rect class="st0" x="248.928005" y="73.063993" width="19.007996" height="19.008001" /><rect class="st1" x="248.928005" y="73.063993" width="19.007996" height="19.008001" /><rect class="st0" x="272.928005" y="73.063993" width="19.007996" height="19.008001" /><rect class="st1" x="272.928005" y="73.063993" width="19.007996" height="19.008001" /><rect class="st0" x="296.928005" y="73.063993" width="19.007996" height="19.008001" /><rect class="st1" x="296.928005" y="73.063993" width="19.007996" height="19.008001" /><rect class="st0" x="320.928005" y="73.063993" width="19.007996" height="19.008001" /><rect class="st1" x="320.928005" y="73.063993" width="19.007996" height="19.008001" /><circle class="st1" cx="66.000005" cy="11" r="9.071997" /><circle class="st1" cx="90.000004" cy="11" r="9.071995" /><circle class="st1" cx="114.000004" cy="11" r="9.071995" /><circle class="st1" cx="137.999997" cy="11" r="9.071996" /><circle class="st1" cx="161.999997" cy="11" r="9.071996" /><circle class="st1" cx="185.999997" cy="11" r="9.071996" /><circle class="st1" cx="209.999997" cy="11" r="9.071996" /><circle class="st1" cx="234.000006" cy="11" r="9.071988" transform="translate(13.602647 90.385181) rotate(-22.499982)" /><circle class="st1" cx="258.000006" cy="11" r="9.071988" transform="translate(15.429535 99.569576) rotate(-22.499982)" /><circle class="st1" cx="282.000006" cy="11" r="9.071988" transform="translate(17.256424 108.753971) rotate(-22.499982)" /><circle class="st1" cx="306.000006" cy="11" r="9.071988" transform="translate(19.083312 117.938367) rotate(-22.499982)" /><circle class="st1" cx="330.000006" cy="11" r="9.071988" transform="translate(20.9102 127.122762) rotate(-22.499982)" /><circle class="st1" cx="66.000005" cy="106.999995" r="9.071999" /><circle class="st1" cx="90.000004" cy="106.999995" r="9.071998" /><circle class="st1" cx="114.000004" cy="106.999995" r="9.071998" /><circle class="st1" cx="137.999997" cy="106.999995" r="9.071999" /><circle class="st1" cx="161.999997" cy="106.999995" r="9.071999" /><circle class="st1" cx="185.999997" cy="106.999995" r="9.071999" /><circle class="st1" cx="209.999997" cy="106.999995" r="9.071999" /><circle class="st1" cx="234.000006" cy="106.999995" r="9.071988" transform="translate(-18.964649 59.948057) rotate(-14.036236)" /><circle class="st1" cx="258.000006" cy="106.999995" r="9.071988" transform="translate(-18.24807 65.768909) rotate(-14.036236)" /><circle class="st1" cx="282.000006" cy="106.999995" r="9.071988" transform="translate(-17.531491 71.589761) rotate(-14.036236)" /><circle class="st1" cx="306.000006" cy="106.999995" r="9.071988" transform="translate(-16.814912 77.410613) rotate(-14.036236)" /><circle class="st1" cx="330.000006" cy="106.999995" r="9.071988" transform="translate(-16.098332 83.231465) rotate(-14.036236)" /><circle class="st1" cx="42.000005" cy="11" r="9.071997" /><circle class="st1" cx="42.000005" cy="34.999999" r="9.071999" /><circle class="st1" cx="42.000005" cy="58.999999" r="9.071999" /><circle class="st1" cx="42.000005" cy="82.999996" r="9.072" /><circle class="st1" cx="42.000005" cy="106.999995" r="9.072" /><circle class="st1" cx="354.000006" cy="11" r="9.071988" transform="translate(22.737088 136.307158) rotate(-22.499982)" /><circle class="st1" cx="354.000006" cy="34.999999" r="9.071988" transform="translate(2.875746 92.032956) rotate(-14.87244)" /><circle class="st1" cx="354.000006" cy="58.999999" r="9.071988" transform="translate(-3.284284 92.836964) rotate(-14.87244)" /><circle class="st1" cx="354.000006" cy="82.999996" r="9.071988" transform="translate(-9.560901 88.335766) rotate(-14.03624)" /><circle class="st1" cx="354.000006" cy="106.999995" r="9.071988" transform="translate(-15.381753 89.052317) rotate(-14.036236)" /></svg>