<svg id="Layer_3" xmlns="http://www.w3.org/2000/svg" version="1.1" viewBox="0 0 396 125" width="396" height="125" preserveAspectRatio="none"><defs><style>
      .st0, .st1, .st2, .st3 {
        fill: none;
      }

      .st4 {
        fill: #2c2b2f;
      }

      .st1 {
        stroke: #231f20;
      }

      .st1, .st3 {
        stroke-width: .75px;
      }

      .st5 {
        fill: #0588b3;
      }

      .st2 {
        stroke-width: 2.25px;
      }

      .st2, .st3 {
        stroke: #2c2b2f;
      }
    </style></defs><rect class="st4" x="137.566498" y="62.828503" width="60" height="60" /><rect class="st1" x="137.566498" y="62.831501" width="60" height="60.000001" /><rect class="st3" x="197.566498" y="62.831501" width="60" height="60.000001" /><rect class="st3" x="137.566498" y="2.831501" width="60" height="60" /><rect class="st0" x="136.441498" y=".941498" width="123.117004" height="123.117004" /><rect class="st1" x="197.566498" y="2.831501" width="60" height="60" /><rect class="st4" x="197.566498" y="32.831501" width="30" height="30" /><rect class="st3" x="197.566498" y="32.831501" width="30" height="30" /><rect class="st3" x="227.566498" y="32.831501" width="30" height="30" /><rect class="st3" x="197.566498" y="2.831501" width="30" height="30" /><rect class="st3" x="227.566498" y="2.831501" width="30" height="30" /><rect class="st5" x="227.566498" y="17.831501" width="15" height="15" /><rect class="st4" x="227.566498" y="17.831501" width="15" height="15" /><rect class="st3" x="242.566498" y="2.831501" width="15" height="15" /><rect class="st4" x="242.566498" y="10.331501" width="7.5" height="7.5" /><rect class="st3" x="242.566498" y="10.331501" width="7.5" height="7.5" /><rect class="st1" x="250.066498" y="2.831501" width="7.5" height="7.5" /><rect class="st4" x="250.066498" y="6.581501" width="3.75" height="3.75" /><rect class="st3" x="250.066498" y="6.581501" width="3.75" height="3.75" /><rect class="st4" x="254.003552" y="4.204448" width="2.160004" height="2.163002" /><rect class="st4" x="256.163556" y="3.122947" width="1.080002" height="1.081501" /><rect class="st2" x="137.566498" y="2.066498" width="120.867004" height="120.867004" /><rect class="st3" x="253.816498" y="6.581501" width="3.75" height="3.75" /><rect class="st3" x="250.066498" y="2.831501" width="3.75" height="3.75" /></svg>