<svg version="1.1" xmlns="http://www.w3.org/2000/svg" xmlns:xlink="http://www.w3.org/1999/xlink" x="0px" y="0px" viewBox="0 0 98 98" enable-background="new 0 0 98 98" xml:space="preserve" width="98" height="98" preserveAspectRatio="none"><g id="Layer_1" /><g id="Layer_2"><g><path fill="#956A28" d="M96.4,51.7l-0.9-6.3l-1.2-3c0,0-3-3.2-6.3-5c-3.3-1.8-11.7-3.7-18.7-4.8c-7-1.2-18.5-1.7-27-0.8
			c-8.5,0.8-17.5,1.2-24.2,3s-11,4.5-11,4.5s-4.9,3.4-4.7,4.1s-1.3,9-0.7,8.8C2.3,51.9,97.1,51.4,96.4,51.7z" /><g><path d="M84.3,35.3c7.4,2.1,10.7,6.7,10.8,6.8l0.1,0.1c1.2,2.3,2,7.1,2,10.3L1.7,52l-0.1,0l-0.7,0.3c-0.1-0.9,1-8.2,1.4-9.1
				c0.4-1.1,6.2-8.4,21.9-10.4c6.6-0.8,16.5-2.1,24.8-2.1C60.7,30.8,70.5,31.4,84.3,35.3z M96.2,51.7l-2-9.3c-0.4-0.3-4-4.2-9.6-5.8
				c-19.2-5.4-36.1-5.4-58.5-2.8c-15.9,1.9-21.6,8.4-22.6,9.5c-0.2,0.3-1.2,6.6-1.3,8.2L96.2,51.7z" /></g><g><g><linearGradient id="SVGID_1_" gradientUnits="userSpaceOnUse" x1="48.5263" y1="-105.942" x2="49.3886" y2="-56.0416" gradientTransform="matrix(1 0 0 1 0 145.2618)"><stop offset="0" style="stop-color:#FFE579" /><stop offset="1" style="stop-color:#997735" /></linearGradient><path fill-rule="evenodd" clip-rule="evenodd" fill="url(#SVGID_1_)" d="M0.8,52.6c0-7.3,22.5-13.3,48.4-13.3S96.3,45.7,96.7,53
					c0.4,8-23.1,13.3-49,13.3S0.8,60,0.8,52.6z" /><path fill="none" d="M67.1,46.5c0,0-1.4,0-3.6,0c0,0.1-0.1,0.1-0.1,0.2l11.7,0c0,0-3.8-0.8-3.8-0.9c0,0,3.8-0.9,3.8-0.9l-9.2,0
					C66.6,45.7,67.2,46.5,67.1,46.5z" /><path fill="none" d="M28.1,45.8c0,0.1-5.9,1-5.9,1c3.4,0,10.1,0,11.7,0l0.2-0.3c-2.4,0-3.8,0-3.9,0c-0.1,0,0.9-0.9,1.9-1.6
					L23.3,45C23.3,45,28.1,45.7,28.1,45.8z" /><path fill="none" d="M31.9,46.3c9-0.1,30.7-0.1,34.3-0.1l-1.7-2.4c-16.1,0.1-28.1,0-30.1,0C34,44.1,32.6,45.3,31.9,46.3z" /><path fill-rule="evenodd" clip-rule="evenodd" fill="#956A28" d="M77,44.9c0,0,0.2,0.1-1.2,0.4s-3,0.7-3,0.7s-1.1-0.3-0.9-0.3
					C72.2,45.7,76.8,44.7,77,44.9z" /><path fill-rule="evenodd" clip-rule="evenodd" fill="#956A28" d="M76.8,46.9c0.3,0,0.5,0.2-0.1,0.3c-0.7,0.1-15,0-15,0
					s-0.5-0.3-0.2-0.3c0.3,0-25.4,0-25.4,0l-0.5,0.6l-15.4-0.1l0.9-0.4l13-0.1l0.6-0.2l0.1-0.2l28.5,0l-0.1,0.5H76.8z" /><path fill-rule="evenodd" clip-rule="evenodd" fill="#956A28" d="M21.4,44.9l4.5,1.2c0,0,1.9-0.3,1.4-0.4
					C26.8,45.7,21.4,44.9,21.4,44.9z" /><path fill-rule="evenodd" clip-rule="evenodd" fill="#956A28" d="M84.9,56.1c0,0-4.7,1.4-9.2,2.8c-4.6,1.4-10.8,2.7-18.5,3.5
					c-7.2,0.7-14.5,0.6-22.4-1c-7.8-1.6-14.1-2.6-18.3-2.7s-9.7,0.3-9.8,0.2c-0.2-0.1-1.3-1-1.3-1s7-0.3,10.9-0.2
					c3.9,0.1,10.2,1.1,14,2s9.2,2.1,13.1,2.4S52,62.2,56.4,62s9.9-1.5,12.9-2c3-0.4,9.3-2.5,9.3-2.5s5.2-1.3,5.2-1.4
					C83.8,56.1,84.9,56.1,84.9,56.1z" /><path fill-rule="evenodd" clip-rule="evenodd" fill="#956A28" d="M67,52.9c0.3,0,5.3,2.3,6.6,2.7s2.2-0.3,2.9-0.6
					c0.8-0.3,2.3-0.7,2.3-0.7s-3.7,2.4-3.9,2.4s-1.8,0.1-1.8,0s-3.5-2.1-3.7-2.2C69.3,54.4,67,52.9,67,52.9z" /><path fill-rule="evenodd" clip-rule="evenodd" fill="#956A28" d="M82.1,53.7l2.1,2.3c0,0-1.9,0.3-1.8,0.2
					c0.1-0.1-0.8-2.5-0.8-2.5" /><path fill-rule="evenodd" clip-rule="evenodd" fill="#956A28" d="M64.2,43.7c0.4-0.1,1.8-0.1,1.8-0.1l0.8,1.2c0,0-1.5,0.1-1.5,0
					S64,43.7,64.2,43.7z" /><polygon fill-rule="evenodd" clip-rule="evenodd" fill="#956A28" points="34,43.7 32.2,43.7 31.1,44.7 33.1,44.8 				" /><path fill-rule="evenodd" clip-rule="evenodd" fill="#E3C766" d="M81.5,53.4c-0.1,0.1-4.2,3.5-4.5,3.4c-0.3-0.1-2.6,0.1-2-0.1
					s4.1-2.7,4.1-2.7l1.8-0.7L81.5,53.4z" /><path fill-rule="evenodd" clip-rule="evenodd" fill="#E3C766" d="M66.7,53.5c0,0,4.8,3.3,5.1,3.3s1.7-0.1,2-0.1
					c0.3,0-6.1-3.4-6.3-3.5C67.2,53.2,66.7,53.5,66.7,53.5z" /><path fill-rule="evenodd" clip-rule="evenodd" fill="#F3D871" d="M2.7,49.5c0.3-0.1,12.8-1.3,20.8-0.6s14.2,2.7,16.6,4.3
					c2.4,1.6,6.2,3.1,12,3.6c6,0.5,17.7,0.3,20.5,0.2c2.8-0.1,6-0.4,6-0.4S73,56.9,68,56.9c-5.1,0-8.6-0.1-12.7-0.4
					s-7.5-0.6-9.4-1.6c-1.9-0.9-4.6-3.3-8.1-4.5s-8.6-2.1-13.4-2.4s-10-0.3-10-0.3L2.6,49L2.7,49.5z" /><path fill-rule="evenodd" clip-rule="evenodd" fill="#F3D871" d="M75.5,58.3c0,0-1.2-0.2-3.2,0c-2.1,0.2-3.2,0.6-3.2,0.5
					c0-0.1,0.4-0.6,2.2-0.8c1.8-0.2,3.2-0.2,3.6-0.2c0.4,0,2.4,0.1,2.4,0.1L75.5,58.3z" /><path fill-rule="evenodd" clip-rule="evenodd" fill="#F3D871" d="M67.7,59.2c0,0-2.2-0.7-5-0.6c-2.8,0.1-4.2,0.3-4.2,0.3
					s0.5-0.4,3.1-0.6s4.5-0.1,4.5-0.1S68.5,58.9,67.7,59.2z" /><path fill-rule="evenodd" clip-rule="evenodd" fill="#F3D871" d="M56.3,59.5c0,0-3.7-0.8-7.5-0.8c-3.8,0-5.1,0.1-4.7,0
					c0.4-0.1,1.6-0.3,4.2-0.4c2.6-0.1,4.8,0.1,4.8,0.1l1.9,0.4L56.3,59.5z" /><path fill-rule="evenodd" clip-rule="evenodd" fill="#F3D871" d="M42.8,58.5c0.1-0.1,0.2-0.7-3-1.2s-6.5-0.5-6-0.6
					c0.5,0,1.2-0.3,4.6-0.1c3.4,0.1,4.1,0.5,4.3,0.6c0.3,0.1,0.4,0.5,0.4,0.5L42.8,58.5z" /><path fill-rule="evenodd" clip-rule="evenodd" fill="#F3D871" d="M31.2,56.8c0-0.2-0.7-1.4-2.9-1.6C26.2,55,23.7,55,23.7,55
					s2-0.7,3.9-0.6c1.9,0.1,3.2,0.5,3.3,0.6S31.2,56.8,31.2,56.8z" /><path fill-rule="evenodd" clip-rule="evenodd" fill="#F3D871" d="M20.3,55.2c-0.3,0.2-1.6-1.4-3.5-1.5c-1.9-0.1-3.7,0-3.2,0
					c0.5-0.1,1.6-0.5,3.5-0.5s2.1,0.2,2.5,0.3C20,53.6,20.8,55,20.3,55.2z" /><path fill-rule="evenodd" clip-rule="evenodd" fill="#F3D871" d="M9.3,54c-0.2-0.1-2.6-0.5-4.4-0.5s-3.4,0.1-3.4,0.1l1.2-1
					l2.9,0.2l2.4,0.4l2.1,1" /><path fill-rule="evenodd" clip-rule="evenodd" fill="#F3D871" d="M72,45.8c-0.1,0.1-1.5,0.1-1.2,0.1s3.6,1.1,3.9,1.1
					c0.2,0,2.3-0.2,2-0.2C76.2,46.7,72,45.8,72,45.8z" /><path fill-rule="evenodd" clip-rule="evenodd" fill="#F3D871" d="M74.9,45.2c0,0-9.3,0-9.3,0c0-0.1-0.7-0.3-0.2-0.4
					c0.5-0.1,11.6,0.2,11.6,0.2L74.9,45.2z" /><path fill-rule="evenodd" clip-rule="evenodd" fill="#F3D871" d="M64.4,44.1c-0.2,0-30.8-0.1-30.8-0.1l0.4-0.4l30.5,0.2l0.5,0.3
					L64.4,44.1z" /><path fill-rule="evenodd" clip-rule="evenodd" fill="#F3D871" d="M31.9,45.1c-0.6,0-8.7,0.2-8.7,0.2l-1-0.3l10.3-0.2L31.9,45.1z
					" /></g><g><g><path fill-rule="evenodd" clip-rule="evenodd" d="M36,41.2c0.5-0.1,0.5,0.1,0.7,0.2c2,0,4.6-0.4,6-0.2
						c-0.6,0.5-3.9,0.3-5.5,0.5c-0.1,0.4,1,1.1,0.5,1.4C35.2,42.9,36.4,41.7,36,41.2z" /><path fill-rule="evenodd" clip-rule="evenodd" d="M38.5,41.8c1-0.1,1.6,0.1,2.9-0.1c0.1,0.1,0.2,0.2,0.3,0.3
						C40.2,42.1,39.1,42.1,38.5,41.8z" /></g><path fill-rule="evenodd" clip-rule="evenodd" d="M51.3,40.4c0.7,0.2,0.6,0.4,0.7,0.6c2.3-0.1,2.9,0.8,2.6,1.3
					c-2.2-0.2-0.4-0.7-2-1c-0.6,0.2,0.7,0.6-0.2,1c-2-0.2-0.7-0.7-1.4-1c-0.8-0.1-1.2,0-1.8,0c-0.1,0.5,0.9,0.8,0,1.4
					c-2.6-0.2-2.9-0.9-4.1-1.3c-0.4,0.3,0.1,0.7-1.1,0.9c-0.5-0.4-0.1-0.9,0.8-1.5c1.5,0.4,1.8,1,3.4,1.4c0.2-0.4-0.3-0.7,0.1-1.1
					c0.9,0,1.8,0,2.7,0C51.4,40.8,50.8,40.6,51.3,40.4z" /><path fill-rule="evenodd" clip-rule="evenodd" d="M55.6,40.9c0.7,0.2,1.3,0.9,1.2,1.2c0.7-0.2,1.3-0.3,2.2-0.5
					c1.3,0.1,1.3,0.4,2.1,0.6c1-0.1,1.6-0.9,3-0.8c-0.5,0.4-2,1-3.2,1.2c-0.9-0.1-1.5-0.4-1.6-0.7c-1.1,0.1-1.6,0.4-2.5,0.6
					C55,42.4,55.4,41.4,55.6,40.9z" /></g><g><path fill-rule="evenodd" clip-rule="evenodd" d="M59.4,64.8c0-0.4,2-0.4,2.4-1c-1.4-0.2-1.8,0.3-3.2,0.1c1-0.3,2.1-0.5,3.9-0.2
					C62.2,64.2,61.2,65,59.4,64.8z" /><path fill-rule="evenodd" clip-rule="evenodd" d="M57.3,63.6c1.2,0.5,1.9,1.1,2,1.7C57,65,57.4,64.3,57.3,63.6z" /><path fill-rule="evenodd" clip-rule="evenodd" d="M60.7,64.3c0.9,0.2,2,0.4,1.1,0.9C60.8,65,60.2,64.7,60.7,64.3z" /><g><path fill-rule="evenodd" clip-rule="evenodd" d="M69.9,62.5c-0.6,0.3-2.1,0.4-3.1,0.6c-0.5,0.1-0.7,0.4-1.7,0.3
						C66.3,62.9,67.3,62.3,69.9,62.5z" /><path fill-rule="evenodd" clip-rule="evenodd" d="M69.7,63.1c-0.5,0.4-1.7,0.5-3.1,0.6C67.5,63.4,68.2,63.1,69.7,63.1z" /><path fill-rule="evenodd" clip-rule="evenodd" d="M70.9,63.5c0.1,0.4-1.7,0.8-3.4,0.7C68.6,64,69.1,63.5,70.9,63.5z" /></g><path fill-rule="evenodd" clip-rule="evenodd" d="M53.4,64c1.1,0.2,0.7,1.1,0.8,1.5C52.1,65.4,53.2,64.4,53.4,64z" /><path fill-rule="evenodd" clip-rule="evenodd" d="M35.4,63.3c0.9,0.3-0.4,0.8-0.8,1.3C32.6,64.5,34.8,63.6,35.4,63.3z" /><path fill-rule="evenodd" clip-rule="evenodd" d="M42.5,63.8c1.4,0.3,1.6,1.2,0.5,1.6c-0.8,0-0.7-0.3-0.6-0.5
					c-0.5-0.2-2.1,0-1.9-0.4c0.4-0.1,1,0.1,1.9,0C42.5,64.3,42.5,64,42.5,63.8z" /><path fill-rule="evenodd" clip-rule="evenodd" d="M46,63.9c1.1,0.2,1,1.2,0.2,1.4C44.7,65.3,45.4,64.2,46,63.9z" /><path fill-rule="evenodd" clip-rule="evenodd" d="M41.2,64c-0.3,0.3-1.1,0.1-1.8,0c0,0.3-0.4,0.8-1.3,1c-1.2-0.2,0.1-0.8,0.6-1
					c0.1-0.2-1.2-0.2-1.1-0.3c-0.1-0.1,0.1-0.1,0.3-0.2C38.7,63.5,41.2,63.8,41.2,64z" /><path fill-rule="evenodd" clip-rule="evenodd" d="M52,64.5c-0.7,0.3-3.5,0.4-4.1,0C48.4,64.3,51.5,64.2,52,64.5z" /><g><path fill-rule="evenodd" clip-rule="evenodd" d="M33.8,62.6c0.3,0.4-1.4,1.5-2.6,1.7C30.3,63.9,32.6,62.8,33.8,62.6z" /><path fill-rule="evenodd" clip-rule="evenodd" d="M28.5,62.6c0.2,0,0.4,0.1,0.7,0.1c-0.5,0.6,2.1,0.8,1.1,1.5
						c-1.6-0.2-1.6-0.7-1.8-1c-1.2,0.1-0.7,0.7-1.8,0.7C25.7,63.5,27.7,62.9,28.5,62.6z" /></g><path fill-rule="evenodd" clip-rule="evenodd" d="M54.7,64.2c0.4,0,0.4,0,0.7,0c0.5,0.3,1.2,0.8,0.6,1.1
					C54.7,65.3,54.4,64.6,54.7,64.2z" /><path fill-rule="evenodd" clip-rule="evenodd" d="M25.9,62c0.7,0.3,0.2,1.3-1.7,1.3C24.3,62.8,25.7,62.5,25.9,62z" /><path fill-rule="evenodd" clip-rule="evenodd" d="M51.7,65.1c-0.6,0.2-3.2,0.1-3.8-0.1C48.6,64.7,51.1,64.8,51.7,65.1z" /><path fill-rule="evenodd" clip-rule="evenodd" d="M63.4,63.5c0.2,0,0.4,0,0.5,0c0.5,0.4,2.1,0.8,1.5,1.2
					C63.6,64.9,63.5,63.9,63.4,63.5z" /><path fill-rule="evenodd" clip-rule="evenodd" d="M71,62.4c0.9,0,1.7,0.2,2.4,0.5c0.2-0.3,0.3-0.5,0.7-0.7c1.2-0.2,2,0.1,3,0.1
					c0.6-0.3-0.5-0.7,0.7-0.9c0.6,0.4,0.3,0.8-0.1,1.2c-1,0-2,0-2.7-0.3c-0.7,0.3-0.3,0.6-0.7,0.9C72.7,63.5,71.9,62.9,71,62.4z" /></g><path fill-rule="evenodd" clip-rule="evenodd" d="M95.6,49.4c-1.1-1.1-2.8-2.1-4.3-3.1c-1.6-1.1-4.3-2.1-6.8-2.9
				c-3.2-1-15.1-4.8-40.1-4.4c-6.4,0.2-11.7,0.8-16.8,1.4c-5,0.7-8.9,1.6-12.7,2.6c-3.9,1.1-7,2.1-9.4,3.5c-2.4,1.4-4.2,3.1-4.8,4.9
				c0,0.8,0,1.6,0,2.5c1,2.3,3.1,4.7,6,6.4c0.7,0.4,3.3,1.4,3.6,1.6c1.3,0.5,3,0.9,4.6,1.4c3.5,1,7.7,2,12.1,2.6
				c1.2,0.2,2.2,0.2,3.5,0.4c13.1,1.2,26.2,0.9,27.4,0.9c6.7-0.2,12.6-1.4,17.2-2.2c3.1-0.5,5.8-1.1,8-1.7c1.8-0.5,3.2-0.9,4.8-1.4
				c4.2-1.5,8.2-4.4,9.1-6.7C97.9,52.7,96.2,50,95.6,49.4z M95.3,54.8c-0.2,0.7-1,1.5-1.7,2.2c-2,1.9-5.5,3.6-10,4.8
				c-4.3,1.2-9.8,2.3-15.9,3.2c-5.3,0.7-15.6,1.2-25.4,0.9c-3.3-0.1-11.5-0.5-18.2-1.7C13.5,62.1,0,57.8,3.2,50.3
				c1.4-3.3,8.1-5.7,15.4-7.5c7-1.7,16-2.7,26.1-3.2c5.4-0.2,11.9,0.1,16.1,0.4c11.5,0.8,19.3,3,20.9,3.4c2.8,0.8,5.7,1.8,7.6,3
				c1.5,0.9,2.9,1.8,3.8,2.6c0.4,0.4,0.8,1,1.1,1.4C95.2,51.4,95.8,53.3,95.3,54.8z" /><g><path d="M49.3,55.8c-3.2-0.6-4.6-1.5-6.1-2.5c-1.4-0.9-2.5-2.1-5.8-3.2C23.8,45.7,4.2,48.7,4,48.8c-0.2,0-0.3,0.1-0.2,0.2
					C3.9,49,4.2,49.1,4.5,49c0.2,0,18.7-2.8,31.7,1.4c3.2,1,4.8,2.1,6.1,3c3,2,5.3,3.5,22.3,3.6c10.1,0.1,14.9-0.3,17.8-0.6
					c-1.8,0.4-4.2,1-5.7,1.4l-0.1,0c-2.8-0.3-5.6-0.2-8.5,1.1c0,0-0.1-0.1-0.1-0.1c-0.5-0.4-1.7-0.9-5.4-0.8
					c-3.4,0.1-4.8,1.2-5.4,1.5c-1-0.4-1.9-1.3-5.4-1.4c-3.1-0.1-6.4,0.2-7.8,0.6c0.2-0.3,0.5-1,0-1.3c-0.4-0.3-1.2-0.6-2.4-0.7
					c-4.2-0.5-8.6,0.2-10.5,0.6c0.9-0.8,1.7-2.2-1.3-2.8c-2.9-0.6-7.1,0.7-8.8,1.3c-0.1-1.1,0.5-2.5-2.5-2.7
					c-3.2-0.2-6.4,0.9-7.5,1.4c-0.3-0.2-0.9-0.5-1.6-0.9c-3.1-1.4-8-0.9-8-0.9c-0.3,0-0.3,0.4,0,0.3c0,0,4.6-0.4,7.3,0.8
					c1.2,0.6,2.2,1,2.4,1c0.2,0,3.6-1.6,6.9-1.4c2.7,0.2,2.4,2.8,2.7,2.8c0.2,0,4.9-1.9,8.6-1.4c3,0.4,0.5,2.9,0.7,3
					s5.4-1.4,10.8-0.8c0.9,0.1,1.6,0.3,1.9,0.6c0.9,0.7-0.6,1.7-0.3,1.7c0.2,0,3.5-0.9,8.5-0.8c4.3,0.1,6.4,1.4,6.6,1.4
					c0,0,0.1,0,0.1,0c0.2,0,1-1.2,5.4-1.4c2.6-0.1,3.5,0,4.2,0.4c0.3,0.2,0.8,0.6,1,0.6c0.2,0,3.3-1.7,7.9-1.3
					c-2.8,0.8-14.7,3.9-25.5,4c-8.8,0.1-14.1-1.3-19.5-2.6c-2.2-0.5-4.5-1-6.9-1.4c-8.4-1.4-19.1-0.3-19.5-0.2l0.4,0.4
					c0.2,0.2,10-1.1,18,0.2c2.4,0.4,4.6,0.8,6.8,1.3c5.4,1.2,10.9,2.7,19.5,2.7c0.3,0,0.6,0,1,0c5.9-0.1,12.8-1,17.8-2
					c5.7-1.1,17.5-4.5,17.4-4.5c-0.1-0.1-0.4-0.1-0.6-0.1c-0.5,0-1,0.1-1.5,0.2c-2.8,0.3-7.1,0.8-18.6,0.7
					C56.8,56.7,52.3,56.4,49.3,55.8" /><path d="M73,56.9c-1.4-0.8-4.7-2.7-6-3.4c-0.2,0.6-0.3,3.4-0.3,3.4l-0.2,0l-0.3,0l-0.9,0c0-0.1,0.7-4,1.3-4c0.2,0,0.5,0,0.7,0.1
					c0.9,0.4,7.2,3.8,7.4,4H73z" /><path d="M75.8,56.7l-1.3,0c0,0,4.6-3.5,6.6-3.5c0.3,0,0.9,0.1,1,0.2c0.7,0.6,1.1,2.6,1.1,2.9L82,56.4c0-0.7-0.1-2.4-0.8-2.9
					C79.9,53.8,76.1,56.4,75.8,56.7z" /></g><path d="M33.9,46.8c-1.6,0-8.3,0-11.7,0c0,0,5.9-0.9,5.9-1c0-0.1-4.8-0.7-4.8-0.7l8.8-0.2c0.1-0.1,0.2-0.2,0.4-0.3l-11.1,0.2
				c-0.2,0-0.4,0.1-0.5,0.1c0,0.1,5.6,0.9,5.6,0.9s-5.8,1-5.8,1.1c0.1,0.1,12.8,0.2,14.1,0.1l0.3-0.5c-0.4,0-0.7,0-1.1,0L33.9,46.8z
				" /><path d="M77.1,46.7l-4.5-0.9l4.4-0.9c0.2,0,0.2-0.1,0.2-0.2c-0.1,0-7.7-0.1-11.4-0.1c0.1,0.1,0.1,0.2,0.2,0.3l9.2,0
				c0,0-3.8,0.8-3.8,0.9c0,0,3.8,0.9,3.8,0.9l-11.7,0c0-0.1,0-0.1,0.1-0.2c-0.2,0-0.5,0-0.7,0c-0.1,0.3-0.2,0.5-0.1,0.5
				c0.1,0,14.4,0,14.5,0C77.3,46.9,77.2,46.8,77.1,46.7z" /><path d="M67.1,46.5c0.1,0-0.5-0.8-1.1-1.6c-0.1-0.1-0.1-0.2-0.2-0.3c-0.4-0.6-0.8-1-0.9-1c0,0,0,0,0,0c-10.8,0-30.9,0-31,0
				c-0.1,0-0.7,0.5-1.3,1c-0.1,0.1-0.2,0.2-0.4,0.3c-0.9,0.8-1.9,1.6-1.9,1.6c0,0,1.5,0,3.9,0c0.3,0,0.7,0,1.1,0
				c7.3,0,20.8,0,27.7,0c0.2,0,0.5,0,0.7,0C65.8,46.5,67.1,46.5,67.1,46.5z M64.5,43.9l1.7,2.4c-3.6,0-25.3,0-34.3,0.1
				c0.8-1,2.2-2.2,2.5-2.5C36.4,43.9,48.4,43.9,64.5,43.9z" /><path fill-rule="evenodd" clip-rule="evenodd" d="M53,44.1c0.5,0.2,0.4,0.4,0.5,0.6c2,0,2.3,0.8,1.9,1.2
				c-1.9-0.2-0.2-0.7-1.5-0.9c-0.6,0.2,0.4,0.6-0.5,0.9c-1.7-0.2-0.5-0.6-0.9-1c-0.6-0.1-1.1,0-1.6-0.1c-0.2,0.4,0.6,0.8-0.4,1.2
				c-2.3-0.2-2.3-0.9-3.2-1.3c-0.4,0.3-0.2,0.6-1.2,0.8c-0.3-0.4,0.2-0.8,1.1-1.3c1.2,0.4,1.3,0.9,2.6,1.3c0.3-0.3-0.1-0.6,0.4-1
				c0.8,0.1,1.6,0,2.4,0.1C53,44.4,52.5,44.3,53,44.1z" /><path fill-rule="evenodd" clip-rule="evenodd" d="M42.6,44.5c0.3,0,0.4,0,0.5,0c0.2,0.5,0.8,1.1-1.1,1.3
				C41.8,45.3,42.2,44.9,42.6,44.5z" /><path fill-rule="evenodd" clip-rule="evenodd" d="M40.8,44.3c0.7,0,3.3-0.2,4.3,0C44.4,44.8,41.7,44.5,40.8,44.3z" /></g></g></g></svg>