<svg version="1.1" xmlns="http://www.w3.org/2000/svg" xmlns:xlink="http://www.w3.org/1999/xlink" x="0px" y="0px" viewBox="0 0 98 98" enable-background="new 0 0 98 98" xml:space="preserve" width="98" height="98" preserveAspectRatio="none"><g id="Layer_1" /><g id="Layer_2"><g><g><path fill="#956A28" d="M96.1,48L95,36.9c0,0-2.5-2.4-3.8-3.6s-6.4-5.4-18.8-8.5S49.9,21.4,36,22.9s-18.7,4.6-22.9,6.5
				c-4.2,1.9-11.6,9.2-10.8,9.4s-1.4,11.5-1.1,11C1.6,49.3,96.4,47.7,96.1,48z" /><path d="M85.5,28.9c7.4,3.6,9.5,7.8,9.5,7.9l0.1,0.1c1.2,4,1.7,9,1.8,14.6L1.7,50.8l-0.1,0.1l-0.4-1.1c-0.1-1.6,0.7-9.5,1.1-11
				C2.7,37,8.9,28.6,24.4,24.5c6.5-1.7,16.8-3.7,25-3.7C61.1,20.8,71.7,22.1,85.5,28.9z M96.2,50.2l-2-12.9c-0.4-0.5-4.5-5.1-8.4-7
				c-19.7-9.7-41.5-9.6-60.6-4.4C9.6,30.2,4.5,36.9,3.5,38.8C3.3,39.2,2.4,47,2.2,49.8L96.2,50.2z" /></g><g><g><linearGradient id="SVGID_1_" gradientUnits="userSpaceOnUse" x1="48.3537" y1="-263.7569" x2="49.8491" y2="-177.2092" gradientTransform="matrix(1 0 0 1 0 293.7786)"><stop offset="0" style="stop-color:#FFE579" /><stop offset="1" style="stop-color:#997735" /></linearGradient><path fill-rule="evenodd" clip-rule="evenodd" fill="url(#SVGID_1_)" d="M0.8,53.1C0.8,40.4,23.4,30,49.2,30
					s47.1,11.1,47.4,23.8c0.4,13.9-23.1,23.1-49,23.1S0.8,65.9,0.8,53.1z" /><path fill="none" d="M67.1,42.5c0,0-1.4,0-3.6,0c0,0.1-0.1,0.2-0.1,0.3l11.7,0c0,0-3.8-1.5-3.8-1.5c0-0.1,3.8-1.5,3.8-1.5
					L66,39.7C66.6,41,67.2,42.5,67.1,42.5z" /><path fill="none" d="M28.1,41.2c0,0.1-5.9,1.7-5.9,1.7c3.4,0,10.1,0,11.7,0.1l0.2-0.5c-2.4,0-3.8,0-3.9,0
					c-0.1,0,0.9-1.5,1.9-2.8l-8.8,0.3C23.3,39.9,28.1,41.1,28.1,41.2z" /><path fill="none" d="M31.9,42.1c9-0.2,30.7-0.1,34.3-0.1l-1.7-4.1c-16.1,0.1-28.1,0-30.1-0.1C34,38.3,32.6,40.3,31.9,42.1z" /><path fill-rule="evenodd" clip-rule="evenodd" fill="#956A28" d="M77,39.7c0,0,0.2,0.2-1.2,0.8s-3,1.3-3,1.3s-1.1-0.5-0.9-0.6
					C72.2,41.1,76.8,39.3,77,39.7z" /><path fill-rule="evenodd" clip-rule="evenodd" fill="#956A28" d="M76.8,43.1c0.3,0,0.5,0.4-0.1,0.5c-0.7,0.1-15-0.1-15-0.1
					s-0.5-0.6-0.2-0.6c0.3,0-25.4,0-25.4,0l-0.5,1l-15.4-0.2l0.9-0.6l13-0.1l0.6-0.3l0.1-0.4l28.5,0l-0.1,0.9H76.8z" /><path fill-rule="evenodd" clip-rule="evenodd" fill="#956A28" d="M21.4,39.7l4.5,2c0,0,1.9-0.5,1.4-0.6
					C26.8,41,21.4,39.7,21.4,39.7z" /><path fill-rule="evenodd" clip-rule="evenodd" fill="#956A28" d="M84.9,59.2c0,0-4.7,2.4-9.2,4.8C71,66.3,64.8,68.7,57.1,70
					c-7.2,1.3-14.5,1.1-22.4-1.8c-7.8-2.8-14.1-4.5-18.3-4.7c-4.2-0.2-9.7,0.5-9.8,0.4c-0.2-0.1-1.3-1.8-1.3-1.8s7-0.5,10.9-0.3
					c3.9,0.2,10.2,2,14,3.4c3.8,1.5,9.2,3.6,13.1,4.2s8.7,0.3,13.1-0.2s9.9-2.7,12.9-3.4s9.3-4.3,9.3-4.3s5.2-2.3,5.2-2.4
					S84.9,59.2,84.9,59.2z" /><path fill-rule="evenodd" clip-rule="evenodd" fill="#956A28" d="M67,53.6c0.3,0,5.3,4,6.6,4.7c1.2,0.7,2.2-0.5,2.9-1
					c0.8-0.6,2.3-1.2,2.3-1.2s-3.7,4.1-3.9,4.1c-0.2,0-1.8,0.2-1.8,0c0-0.2-3.5-3.7-3.7-3.9C69.3,56.2,67,53.6,67,53.6z" /><path fill-rule="evenodd" clip-rule="evenodd" fill="#956A28" d="M82.1,54.9l2.1,4c0,0-1.9,0.5-1.8,0.3c0.1-0.1-0.8-4.3-0.8-4.3
					" /><path fill-rule="evenodd" clip-rule="evenodd" fill="#956A28" d="M64.2,37.5c0.4-0.2,1.8-0.1,1.8-0.1l0.8,2.1c0,0-1.5,0.2-1.5,0
					C65.4,39.3,64,37.6,64.2,37.5z" /><polygon fill-rule="evenodd" clip-rule="evenodd" fill="#956A28" points="34,37.6 32.2,37.6 31.1,39.4 33.1,39.4 				" /><path fill-rule="evenodd" clip-rule="evenodd" fill="#E3C766" d="M81.5,54.4c-0.1,0.1-4.2,6-4.5,5.9c-0.3-0.1-2.6,0.1-2-0.1
					c0.6-0.2,4.1-4.7,4.1-4.7l1.8-1.2L81.5,54.4z" /><path fill-rule="evenodd" clip-rule="evenodd" fill="#E3C766" d="M66.7,54.7c0,0,4.8,5.7,5.1,5.8c0.3,0.1,1.7-0.1,2-0.2
					s-6.1-5.8-6.3-6C67.2,54.1,66.7,54.7,66.7,54.7z" /><path fill-rule="evenodd" clip-rule="evenodd" fill="#F3D871" d="M2.7,47.6c0.3-0.1,12.8-2.2,20.8-1s14.2,4.7,16.6,7.5
					c2.4,2.8,6.2,5.5,12,6.3c6,0.9,17.7,0.5,20.5,0.4c2.8-0.1,6-0.8,6-0.8S73,60.5,68,60.6s-8.6-0.2-12.7-0.6s-7.5-1.1-9.4-2.7
					c-1.9-1.6-4.6-5.8-8.1-7.7s-8.6-3.7-13.4-4.2c-4.8-0.5-10-0.4-10-0.4L2.2,47L2.7,47.6z" /><path fill-rule="evenodd" clip-rule="evenodd" fill="#F3D871" d="M75.5,63c0,0-1.2-0.4-3.2,0c-2.1,0.4-3.2,1-3.2,0.8
					s0.4-1,2.2-1.4c1.8-0.4,3.2-0.4,3.6-0.4c0.4,0,2.4,0.2,2.4,0.2L75.5,63z" /><path fill-rule="evenodd" clip-rule="evenodd" fill="#F3D871" d="M67.7,64.5c0,0-2.2-1.2-5-1c-2.8,0.1-4.2,0.5-4.2,0.5
					s0.5-0.8,3.1-1.1c2.6-0.3,4.5-0.1,4.5-0.1S68.5,64,67.7,64.5z" /><path fill-rule="evenodd" clip-rule="evenodd" fill="#F3D871" d="M56.3,65c0,0-3.7-1.3-7.5-1.3c-3.8,0-5.1,0.1-4.7,0
					c0.4-0.1,1.6-0.6,4.2-0.7c2.6-0.1,4.8,0.1,4.8,0.1l1.9,0.7L56.3,65z" /><path fill-rule="evenodd" clip-rule="evenodd" fill="#F3D871" d="M42.8,63.3c0.1-0.1,0.2-1.2-3-2s-6.5-0.9-6-1
					c0.5,0,1.2-0.4,4.6-0.2s4.1,0.9,4.3,1.1c0.3,0.2,0.4,0.8,0.4,0.8L42.8,63.3z" /><path fill-rule="evenodd" clip-rule="evenodd" fill="#F3D871" d="M31.2,60.4c0-0.3-0.7-2.4-2.9-2.8c-2.2-0.4-4.6-0.4-4.6-0.4
					s2-1.3,3.9-1.1c1.9,0.2,3.2,0.9,3.3,1.1S31.2,60.4,31.2,60.4z" /><path fill-rule="evenodd" clip-rule="evenodd" fill="#F3D871" d="M20.3,57.5c-0.3,0.3-1.6-2.5-3.5-2.6c-1.9-0.1-3.7,0-3.2,0
					c0.5-0.1,1.6-0.8,3.5-0.8s2.1,0.3,2.5,0.5C20,54.7,20.8,57.1,20.3,57.5z" /><path fill-rule="evenodd" clip-rule="evenodd" fill="#F3D871" d="M9.3,55.5c-0.2-0.1-2.6-0.9-4.4-0.9s-3.4,0.2-3.4,0.2l1.2-1.7
					l2.9,0.3l2.4,0.8l2.1,1.7" /><path fill-rule="evenodd" clip-rule="evenodd" fill="#F3D871" d="M72,41.2c-0.1,0.1-1.5,0.1-1.2,0.2c0.2,0,3.6,1.9,3.9,1.9
					c0.2,0,2.3-0.3,2-0.4C76.2,42.7,72,41.2,72,41.2z" /><path fill-rule="evenodd" clip-rule="evenodd" fill="#F3D871" d="M74.9,40.2c0,0-9.3,0-9.3-0.1s-0.7-0.5-0.2-0.6
					c0.5-0.1,11.6,0.3,11.6,0.3L74.9,40.2z" /><path fill-rule="evenodd" clip-rule="evenodd" fill="#F3D871" d="M64.4,38.4c-0.2,0-30.8-0.1-30.8-0.1l0.4-0.7l30.5,0.3l0.5,0.6
					L64.4,38.4z" /><path fill-rule="evenodd" clip-rule="evenodd" fill="#F3D871" d="M31.9,40c-0.6,0-8.7,0.3-8.7,0.3l-1-0.6l10.3-0.4L31.9,40z" /></g><g><g><path fill-rule="evenodd" clip-rule="evenodd" d="M36,33.3c0.5-0.1,0.5,0.1,0.7,0.3c2-0.1,4.6-0.8,6-0.4
						c-0.6,0.9-3.9,0.6-5.5,0.8c-0.1,0.8,1,1.9,0.5,2.5C35.2,36.2,36.4,34.2,36,33.3z" /><path fill-rule="evenodd" clip-rule="evenodd" d="M38.5,34.2c1-0.1,1.6,0.1,2.9-0.2c0.1,0.2,0.2,0.4,0.3,0.6
						C40.2,34.9,39.1,34.8,38.5,34.2z" /></g><path fill-rule="evenodd" clip-rule="evenodd" d="M51.3,31.8c0.7,0.3,0.6,0.7,0.7,1.1c2.3-0.1,2.9,1.4,2.6,2.2
					c-2.2-0.3-0.4-1.3-2-1.7c-0.6,0.3,0.7,1.1-0.2,1.8c-2-0.4-0.7-1.2-1.4-1.8c-0.8-0.2-1.2,0-1.8-0.1c-0.1,0.8,0.9,1.4,0,2.4
					c-2.6-0.3-2.9-1.5-4.1-2.3C44.7,34,45.1,34.7,44,35c-0.5-0.7-0.1-1.6,0.8-2.6c1.5,0.8,1.8,1.7,3.4,2.4c0.2-0.7-0.3-1.2,0.1-2
					c0.9,0.1,1.8-0.1,2.7,0C51.4,32.5,50.8,32.3,51.3,31.8z" /><path fill-rule="evenodd" clip-rule="evenodd" d="M55.6,32.7c0.7,0.3,1.3,1.5,1.2,2.1c0.7-0.3,1.3-0.6,2.2-0.8
					c1.3,0.2,1.3,0.8,2.1,1.1c1-0.2,1.6-1.5,3-1.5c-0.5,0.8-2,1.7-3.2,2.1c-0.9-0.3-1.5-0.6-1.6-1.2c-1.1,0.2-1.6,0.7-2.5,1
					C55,35.3,55.4,33.6,55.6,32.7z" /></g><g><path fill-rule="evenodd" clip-rule="evenodd" d="M59.4,74.3c0-0.7,2-0.8,2.4-1.7c-1.4-0.4-1.8,0.4-3.2,0.1
					c1-0.4,2.1-0.8,3.9-0.4C62.2,73.2,61.2,74.6,59.4,74.3z" /><path fill-rule="evenodd" clip-rule="evenodd" d="M57.3,72.2c1.2,0.9,1.9,1.8,2,2.9C57,74.5,57.4,73.3,57.3,72.2z" /><path fill-rule="evenodd" clip-rule="evenodd" d="M60.7,73.4c0.9,0.4,2,0.7,1.1,1.5C60.8,74.5,60.2,74.1,60.7,73.4z" /><g><path fill-rule="evenodd" clip-rule="evenodd" d="M69.9,70.2c-0.6,0.6-2.1,0.7-3.1,1c-0.5,0.2-0.7,0.7-1.7,0.6
						C66.3,70.9,67.3,70,69.9,70.2z" /><path fill-rule="evenodd" clip-rule="evenodd" d="M69.7,71.2c-0.5,0.7-1.7,0.9-3.1,1C67.5,71.8,68.2,71.2,69.7,71.2z" /><path fill-rule="evenodd" clip-rule="evenodd" d="M70.9,72c0.1,0.7-1.7,1.4-3.4,1.2C68.6,72.8,69.1,71.9,70.9,72z" /></g><path fill-rule="evenodd" clip-rule="evenodd" d="M53.4,72.9c1.1,0.4,0.7,1.9,0.8,2.6C52.1,75.3,53.2,73.5,53.4,72.9z" /><path fill-rule="evenodd" clip-rule="evenodd" d="M35.4,71.7c0.9,0.5-0.4,1.5-0.8,2.2C32.6,73.7,34.8,72.1,35.4,71.7z" /><path fill-rule="evenodd" clip-rule="evenodd" d="M42.5,72.4c1.4,0.5,1.6,2,0.5,2.7c-0.8,0-0.7-0.5-0.6-0.8
					c-0.5-0.3-2.1,0-1.9-0.6c0.4-0.2,1,0.1,1.9,0C42.5,73.3,42.5,72.9,42.5,72.4z" /><path fill-rule="evenodd" clip-rule="evenodd" d="M46,72.7c1.1,0.3,1,2,0.2,2.5C44.7,75,45.4,73.2,46,72.7z" /><path fill-rule="evenodd" clip-rule="evenodd" d="M41.2,72.9c-0.3,0.5-1.1,0.1-1.8,0c0,0.4-0.4,1.3-1.3,1.7
					c-1.2-0.3,0.1-1.4,0.6-1.7c0.1-0.3-1.2-0.3-1.1-0.5c-0.1-0.2,0.1-0.2,0.3-0.3C38.7,72,41.2,72.4,41.2,72.9z" /><path fill-rule="evenodd" clip-rule="evenodd" d="M52,73.6c-0.7,0.4-3.5,0.6-4.1,0C48.4,73.3,51.5,73.2,52,73.6z" /><g><path fill-rule="evenodd" clip-rule="evenodd" d="M33.8,70.5c0.3,0.7-1.4,2.6-2.6,2.9C30.3,72.6,32.6,70.8,33.8,70.5z" /><path fill-rule="evenodd" clip-rule="evenodd" d="M28.5,70.5c0.2,0,0.4,0.1,0.7,0.1c-0.5,1,2.1,1.5,1.1,2.6
						c-1.6-0.4-1.6-1.1-1.8-1.8c-1.2,0.1-0.7,1.2-1.8,1.2C25.7,71.9,27.7,70.9,28.5,70.5z" /></g><path fill-rule="evenodd" clip-rule="evenodd" d="M54.7,73.2c0.4-0.1,0.4,0.1,0.7,0.1c0.5,0.6,1.2,1.4,0.6,1.9
					C54.7,75.2,54.4,73.8,54.7,73.2z" /><path fill-rule="evenodd" clip-rule="evenodd" d="M25.9,69.3c0.7,0.5,0.2,2.3-1.7,2.2C24.3,70.7,25.7,70.2,25.9,69.3z" /><path fill-rule="evenodd" clip-rule="evenodd" d="M51.7,74.7c-0.6,0.4-3.2,0.2-3.8-0.1C48.6,74.1,51.1,74.2,51.7,74.7z" /><path fill-rule="evenodd" clip-rule="evenodd" d="M63.4,72.1c0.2-0.1,0.4-0.1,0.5,0c0.5,0.7,2.1,1.4,1.5,2.1
					C63.6,74.3,63.5,72.6,63.4,72.1z" /><path fill-rule="evenodd" clip-rule="evenodd" d="M71,70.1c0.9,0,1.7,0.4,2.4,0.8c0.2-0.4,0.3-0.9,0.7-1.3c1.2-0.3,2,0.2,3,0.2
					c0.6-0.5-0.5-1.2,0.7-1.6c0.6,0.8,0.3,1.4-0.1,2.1c-1,0.1-2-0.1-2.7-0.5c-0.7,0.5-0.3,1.1-0.7,1.6C72.7,71.9,71.9,70.9,71,70.1z
					" /></g><path fill-rule="evenodd" clip-rule="evenodd" d="M95.6,47.5c-1.1-1.8-2.8-3.7-4.3-5.3c-1.6-1.9-4.3-3.6-6.8-5
				c-3.2-1.8-15.1-8.3-40.1-7.6c-6.4,0.4-11.7,1.3-16.8,2.5c-5,1.1-8.9,2.7-12.7,4.5c-3.9,1.8-7,3.7-9.4,6.1
				c-2.4,2.4-4.2,5.4-4.8,8.5c0,1.4,0,2.8,0,4.3c1,4,3.1,7.3,6,10.2c0.7,0.7,3.3,2.5,3.6,2.7c1.3,0.9,3,1.6,4.6,2.4
				C18.4,72.5,23,74,27.4,75c1.2,0.3,2.3,0.6,3.6,0.8C44.1,78,57.2,77,58.3,76.9c6.7-0.4,12.6-1.9,17.2-3.3c3.1-0.9,5.3-1.9,7.5-3
				c1.8-0.9,3.2-1.5,4.8-2.5c4.2-2.6,8.2-6.7,9.1-10.8C97.9,53.2,96.2,48.6,95.6,47.5z M95.3,56.9c-0.2,1.2-1,2.6-1.7,3.7
				c-2,3.4-5.5,6.2-10,8.4c-4.3,2.1-9.8,4-15.9,5.5c-5.3,1.3-15.6,2.2-25.4,1.6c-3.3-0.2-11.5-0.8-18.2-3C13.5,69.6,0,62,3.2,49
				c1.4-5.6,8.1-10,15.4-13.1c7-3,16-4.8,26.1-5.5c5.4-0.4,11.9,0.2,16.1,0.7c11.5,1.4,19.3,5.2,20.9,6c2.8,1.3,5.7,3.1,7.6,5.1
				c1.5,1.6,2.9,3,3.8,4.6c0.4,0.7,0.8,1.8,1.1,2.4C95.2,51.1,95.8,54.3,95.3,56.9z" /><g><path d="M49.3,58.6c-3.2-1.1-4.6-2.6-6.1-4.3c-1.4-1.6-2.5-3.6-5.8-5.5C23.8,41.1,4.2,46.4,4,46.4c-0.2,0.1-0.3,0.2-0.2,0.3
					c0.1,0.1,0.4,0.2,0.7,0.1c0.2,0,18.7-4.9,31.7,2.5c3.2,1.8,4.8,3.6,6.1,5.2c3,3.4,5.3,6.1,22.3,6.3c10.1,0.1,14.9-0.5,17.8-1
					c-1.8,0.7-4.2,1.7-5.7,2.4l-0.1,0c-2.8-0.6-5.6-0.4-8.5,1.9c0-0.1-0.1-0.1-0.1-0.2c-0.5-0.7-1.7-1.6-5.4-1.4
					c-3.4,0.2-4.8,2.1-5.4,2.6c-1-0.7-1.9-2.3-5.4-2.5c-3.1-0.1-6.4,0.4-7.8,1c0.2-0.6,0.5-1.7,0-2.3c-0.4-0.6-1.2-1-2.4-1.2
					c-4.2-0.9-8.6,0.3-10.5,1c0.9-1.4,1.7-3.8-1.3-4.9c-2.9-1.1-7.1,1.2-8.8,2.2c-0.1-1.9,0.5-4.3-2.5-4.7c-3.2-0.4-6.4,1.6-7.5,2.4
					c-0.3-0.3-0.9-0.9-1.6-1.5c-3.1-2.4-8-1.6-8-1.6c-0.3,0-0.3,0.6,0,0.6c0,0,4.6-0.6,7.3,1.5c1.2,1,2.2,1.7,2.4,1.7
					c0.2,0,3.6-2.8,6.9-2.4c2.7,0.4,2.4,4.8,2.7,4.9c0.2,0,4.9-3.3,8.6-2.5c3,0.7,0.5,5.1,0.7,5.1s5.4-2.5,10.8-1.3
					c0.9,0.2,1.6,0.5,1.9,1c0.9,1.1-0.6,3-0.3,3c0.2,0.1,3.5-1.5,8.5-1.4c4.3,0.1,6.4,2.5,6.6,2.5c0,0,0.1,0,0.1,0
					c0.2,0,1-2.2,5.4-2.5c2.6-0.2,3.5,0,4.2,0.7c0.3,0.4,0.8,1,1,1c0.2,0,3.3-3,7.9-2.3c-2.8,1.4-14.7,6.8-25.5,7
					c-8.8,0.2-14.1-2.3-19.5-4.5c-2.2-0.9-4.5-1.8-6.9-2.5C15.5,60,4.9,62,4.4,62.1l0.4,0.7c0.2,0.4,10-2,18,0.4
					c2.4,0.7,4.6,1.4,6.8,2.3c5.4,2.2,10.9,4.8,19.5,4.8c0.3,0,0.6,0,1,0c5.9-0.1,12.8-1.8,17.8-3.5c5.7-2,17.5-7.8,17.4-7.9
					c-0.1-0.1-0.4-0.2-0.6-0.1c-0.5,0.1-1,0.2-1.5,0.3c-2.8,0.5-7.1,1.3-18.6,1.2C56.8,60.2,52.3,59.6,49.3,58.6" /><path d="M73,60.5c-1.4-1.4-4.7-4.7-6-5.9c-0.2,1-0.3,5.9-0.3,6l-0.2,0l-0.3-0.1l-0.9,0c0-0.1,0.7-6.9,1.3-7c0.2,0,0.5,0,0.7,0.1
					c0.9,0.6,7.2,6.6,7.4,6.9H73z" /><path d="M75.8,60.2l-1.3,0c0-0.1,4.6-6,6.6-6.1c0.3,0,0.9,0.2,1,0.4c0.7,1.1,1.1,4.6,1.1,5.1L82,59.6c0-1.1-0.1-4.2-0.8-5
					C79.9,55.1,76.1,59.6,75.8,60.2z" /></g><path d="M33.9,43c-1.6,0-8.3,0-11.7-0.1c0,0,5.9-1.6,5.9-1.7c0-0.1-4.8-1.3-4.8-1.3l8.8-0.3c0.1-0.2,0.2-0.3,0.4-0.5l-11.1,0.4
				c-0.2,0-0.4,0.1-0.5,0.2c0,0.1,5.6,1.5,5.6,1.5s-5.8,1.8-5.8,1.9c0.1,0.1,12.8,0.4,14.1,0.2l0.3-0.9c-0.4,0-0.7,0-1.1,0L33.9,43z
				" /><path d="M77.1,42.9l-4.5-1.5l4.4-1.6c0.2-0.1,0.2-0.2,0.2-0.3c-0.1-0.1-7.7-0.2-11.4-0.3c0.1,0.2,0.1,0.3,0.2,0.5l9.2,0.1
				c0,0-3.8,1.5-3.8,1.5c0,0.1,3.8,1.5,3.8,1.5l-11.7,0c0-0.1,0-0.2,0.1-0.3c-0.2,0-0.5,0-0.7,0c-0.1,0.5-0.2,0.8-0.1,0.8
				c0.1,0.1,14.4,0,14.5-0.1C77.3,43.1,77.2,43,77.1,42.9z" /><path d="M67.1,42.5c0.1,0-0.5-1.5-1.1-2.8c-0.1-0.2-0.1-0.3-0.2-0.5c-0.4-1-0.8-1.8-0.9-1.8c0,0,0,0,0,0c-10.8,0.1-30.9-0.1-31,0
				c-0.1,0-0.7,0.8-1.3,1.7c-0.1,0.2-0.2,0.3-0.4,0.5c-0.9,1.3-1.9,2.8-1.9,2.8c0,0,1.5,0,3.9,0c0.3,0,0.7,0,1.1,0
				c7.3,0,20.8,0,27.7,0c0.2,0,0.5,0,0.7,0C65.8,42.5,67.1,42.5,67.1,42.5z M64.5,37.9l1.7,4.1c-3.6,0-25.3-0.1-34.3,0.1
				c0.8-1.8,2.2-3.8,2.5-4.3C36.4,37.9,48.4,38,64.5,37.9z" /><path fill-rule="evenodd" clip-rule="evenodd" d="M53,38.2c0.5,0.3,0.4,0.7,0.5,1c2,0,2.3,1.3,1.9,2.1c-1.9-0.4-0.2-1.2-1.5-1.6
				c-0.6,0.3,0.4,1-0.5,1.6c-1.7-0.4-0.5-1.1-0.9-1.7c-0.6-0.3-1.1-0.1-1.6-0.1c-0.2,0.7,0.6,1.3-0.4,2.1c-2.3-0.4-2.3-1.5-3.2-2.2
				c-0.4,0.4-0.2,1.1-1.2,1.4c-0.3-0.7,0.2-1.5,1.1-2.3c1.2,0.7,1.3,1.6,2.6,2.3c0.3-0.6-0.1-1.1,0.4-1.7c0.8,0.1,1.6,0,2.4,0.1
				C53,38.9,52.5,38.6,53,38.2z" /><path fill-rule="evenodd" clip-rule="evenodd" d="M42.6,39c0.3-0.1,0.4,0,0.5,0c0.2,0.9,0.8,1.9-1.1,2.3
				C41.8,40.4,42.2,39.7,42.6,39z" /><path fill-rule="evenodd" clip-rule="evenodd" d="M40.8,38.6c0.7-0.1,3.3-0.4,4.3,0C44.4,39.5,41.7,39,40.8,38.6z" /></g></g></g></svg>