<?xml version="1.0" encoding="utf-8"?>
<!-- Generator: Adobe Illustrator 22.0.1, SVG Export Plug-In . SVG Version: 6.00 Build 0)  -->
<svg version="1.1" xmlns="http://www.w3.org/2000/svg" xmlns:xlink="http://www.w3.org/1999/xlink" x="0px" y="0px"
	 viewBox="0 0 408 432" style="enable-background:new 0 0 408 432;" xml:space="preserve" width="408" height="432" preserveAspectRatio="none">
<style type="text/css">
	.st0{opacity:0.1;fill:#384E7D;}
	.st1{opacity:0.75;fill:#90D6ED;}
	.st2{fill:#D1ECFA;}
	.st3{fill:#9A4627;}
	.st4{fill:#C1592B;}
	.st5{fill:#EDE8D8;}
	.st6{fill:#A58C7F;}
	.st7{fill:#682E1D;}
	.st8{fill:#421B0D;}
	.st9{fill:#904532;}
	.st10{fill:#26221D;}
	.st11{fill:#C8A260;}
	.st12{fill:#7C6D36;}
	.st13{fill:#53687E;}
	.st14{fill:#A02D36;}
	.st15{fill:#284180;}
	.st16{fill:#F2CE30;}
	.st17{fill:#EDA021;}
	.st18{fill:#EEE9D9;}
	.st19{fill:none;}
	.st20{fill:#761B14;}
	.st21{fill:#882A8E;}
	.st22{fill:#2BB24B;}
	.st23{fill:#3D505A;}
	.st24{opacity:0.2;fill:#D1ECFA;}
	.st25{opacity:0.2;fill:#56C9F4;}
	.st26{fill:#CCD7DD;}
	.st27{fill:#604B45;}
	.st28{fill:#AA1E33;}
	.st29{fill:#751B16;}
	.st30{opacity:0.75;}
	.st31{fill:#90D6ED;}
	.st32{fill:#C8A25F;}
	.st33{fill:#52687E;}
	.st34{fill:#A12D36;}
	.st35{fill:#CA3C40;}
	.st36{opacity:0.2;}
	.st37{fill:#56C9F4;}
	.st38{fill:#6B7582;}
	.st39{fill:#939F2F;}
	.st40{fill:#00A79D;}
	.st41{fill:#871824;}
	.st42{fill:#695752;}
	.st43{fill:#5E111A;}
	.st44{fill:#FFFFFF;}
	.st45{fill:#A02D37;}
	.st46{opacity:0.75;fill:#90D6EB;}
	.st47{fill:#CFECFB;}
	.st48{fill:#9A4728;}
	.st49{fill:#C15A2A;}
	.st50{fill:#EBE7D7;}
	.st51{fill:#A48B7F;}
	.st52{fill:#682F1E;}
	.st53{fill:#411D11;}
	.st54{fill:#904533;}
	.st55{fill:#C9A15F;}
	.st56{fill:#7D6C36;}
	.st57{fill:#53697F;}
	.st58{fill:#294181;}
	.st59{fill:#F1CD2F;}
	.st60{fill:#EDA023;}
	.st61{fill:#ECE7D8;}
	.st62{fill:#761B16;}
	.st63{fill:#872B8B;}
	.st64{fill:#2EB24B;}
	.st65{fill:#3E515A;}
	.st66{opacity:0.2;fill:#59C9F4;}
	.st67{fill:#CCD7DC;}
	.st68{fill:#624C46;}
	.st69{fill:#A91E34;}
	.st70{fill:#751C17;}
	.st71{opacity:0.1;fill:#010101;}
	.st72{fill:#682F1D;}
	.st73{opacity:0.2;fill:#CFECFB;}
</style>
<g id="Kraken_Cast_Shadow">
</g>
<g id="Kraken_x27_s_Dome_Bottom">
</g>
<g id="Krakens_Back_Tentacles">
</g>
<g id="Kraken_Regular_tentacles">
</g>
<g id="Kraken_Bandaged_Tentacles">
</g>
<g id="Kraken_Peg_Leg">
</g>
<g id="Kraken_x27_s_Claw">
</g>
<g id="Kraken_x27_s_Left_Hand">
</g>
<g id="Kraken_x27_s_Right_Arm">
</g>
<g id="Kraken_Lashes">
</g>
<g id="Kraken_x27_s_Head">
</g>
<g id="Kraken_Tusks">
</g>
<g id="Kraken_x27_s_Snout">
</g>
<g id="Kraken_x27_s_Eyes">
</g>
<g id="Kraken_Nose">
</g>
<g id="Mr._Wriggles">
</g>
<g id="Kraken_x27_s_Dome_Top">
</g>
<g id="Kraken_Left_Arm">
</g>
<g id="Kraken_x27_s_Body">
</g>
<g id="Kraken_Shirt_5th_Grade">
</g>
<g id="Kraken_Belt_5th">
</g>
<g id="Kraken_Jacket">
</g>
<g id="Kraken_x27_s_Belt">
</g>
<g id="Kraken_x27_s_Breastplate">
</g>
<g id="Kraken_Collar_5th">
</g>
<g id="labels">
	<g>
		<g class="st30">
			<g>
				<path class="st31" d="M222,10.1c-3.3-0.1-6.6-0.9-9.5-2.3c-2.6,6.6-8,12-15.2,14.5c-9.8,3.3-20.3,0.1-26.8-7.2
					c-1,8.6-6.8,16.2-15.4,19.1c-7,2.4-14.4,1.1-20.1-2.8c-2,9.2-8.5,17.1-17.9,20.3c-2.7,0.9-5.4,1.4-8.1,1.4
					c-13.2,23.3-16.8,52-7.5,79.6c17.2,50.9,71.7,78.5,121.8,61.6c50.1-16.9,76.8-71.9,59.6-122.8C272.7,41.4,249.5,19.5,222,10.1"
					/>
			</g>
		</g>
		<polygon class="st34" points="185.9,57 184.2,43.9 183,56.8 		"/>
		<polygon class="st34" points="180.8,55.3 177.7,48.7 179.2,55.7 		"/>
		<polygon class="st34" points="187.9,54.5 190.3,47.6 186.5,53.6 		"/>
		<g>
			<path class="st49" d="M406.1,217.1c-10.7-53-96.5-46.7-96.5-46.7s-21.2,18.8-18.5,19.1c16.5,1.7,43.7,15.7,49.2,22.5
				c10.1,12.3,6.1,25.4,1.6,33.5c-1,1.8-5.5,8.4-5.5,8.4c-0.6,1.2-1.3,2.6-1.7,4.1c-1.5,4.8-1.9,11.5,1.2,20.2
				c7.2,20.2,20,24.6,20,24.6l2.2-9.1l12.5,10.4l-4-13l21.1,3.5l-12-15.3l0.4-0.6C381.4,274.9,412.9,250.8,406.1,217.1z"/>
			<g>
				<g>
					<path class="st34" d="M377.1,193.1c-1.6,1.7-3.4,3.2-5.2,4.6c-1.8,1.5-3.7,2.8-5.6,4.1c-1.9,1.3-3.9,2.5-5.9,3.7
						c-2,1.2-4.1,2.3-6.2,3.2c1.6-1.7,3.4-3.2,5.2-4.6c1.8-1.4,3.7-2.8,5.6-4.1c1.9-1.3,3.9-2.5,5.9-3.7
						C372.9,195.1,374.9,194,377.1,193.1z"/>
				</g>
				<g>
					<path class="st34" d="M385.4,199.2c-0.9,1.1-1.8,2.1-2.9,2.9c-1,0.9-2.1,1.7-3.2,2.4c-1.1,0.7-2.3,1.4-3.5,2
						c-1.2,0.6-2.5,1.1-3.8,1.5c0.9-1.1,1.8-2.1,2.9-2.9c1-0.9,2.1-1.7,3.2-2.4c1.1-0.7,2.3-1.4,3.5-2
						C382.8,200.1,384,199.6,385.4,199.2z"/>
				</g>
				<g>
					<path class="st34" d="M372.7,203.4c-1.5,1.4-3.1,2.7-4.7,3.9c-1.6,1.2-3.3,2.4-5,3.5c-1.7,1.1-3.4,2.2-5.2,3.2
						c-1.8,1-3.6,2-5.4,2.8c1.5-1.4,3.1-2.7,4.7-3.9c1.6-1.2,3.3-2.4,5-3.5c1.7-1.1,3.4-2.2,5.2-3.2
						C369.1,205.2,370.9,204.2,372.7,203.4z"/>
				</g>
			</g>
			<path class="st34" d="M384.6,246.2c0,0-1,0.5-2.7,0.9c-0.8,0.2-1.7,0.5-2.8,0.7c-1,0.2-2.1,0.4-3.2,0.6c-0.5,0.1-1.1,0.2-1.6,0.2
				c-0.5,0.1-1.1,0.1-1.6,0.2c-1,0.1-2,0.2-2.9,0.2c-1.7,0-2.8-0.1-2.8-0.1s1-0.5,2.7-0.9c0.8-0.2,1.7-0.5,2.8-0.7
				c0.5-0.1,1-0.2,1.6-0.3c0.5-0.1,1.1-0.2,1.6-0.3c1.1-0.2,2.2-0.3,3.2-0.4c1-0.1,2-0.2,2.9-0.2
				C383.4,246.1,384.6,246.2,384.6,246.2"/>
			<g>
				<line class="st49" x1="360.3" y1="273.4" x2="343.3" y2="278.6"/>
				<path class="st45" d="M360.3,273.4c0,0-0.2,0.3-0.6,0.6c-0.4,0.4-1,0.8-1.7,1.3c-1.4,1-3.5,2-5.6,2.6c-2.1,0.7-4.3,1-6.1,1
					c-0.9,0-1.6-0.1-2.2-0.2c-0.5-0.1-0.8-0.2-0.8-0.2s0.2-0.3,0.6-0.6c0.4-0.4,1-0.8,1.7-1.3c1.4-1,3.5-2,5.6-2.6
					c2.1-0.6,4.3-1,6.1-0.9c0.9,0,1.6,0.1,2.2,0.2C360,273.3,360.3,273.4,360.3,273.4z"/>
			</g>
			<g>
				<line class="st49" x1="361.6" y1="264.6" x2="344.6" y2="269.8"/>
				<path class="st45" d="M361.6,264.6c0,0-1,0.6-2.5,1.3c-0.8,0.4-1.7,0.7-2.6,1.1c-1,0.4-2,0.7-3.1,1.1c-0.5,0.2-1.1,0.3-1.6,0.5
					c-0.5,0.2-1.1,0.3-1.6,0.4c-1,0.2-2,0.4-2.8,0.6c-1.7,0.3-2.8,0.3-2.8,0.3s1-0.6,2.5-1.3c0.8-0.4,1.7-0.7,2.6-1.1
					c0.5-0.2,1-0.4,1.5-0.5c0.5-0.2,1-0.3,1.6-0.5c1.1-0.3,2.1-0.6,3.1-0.8c1-0.2,2-0.4,2.8-0.6
					C360.4,264.6,361.6,264.6,361.6,264.6z"/>
			</g>
			<g>
				<g>
					<path class="st49" d="M359.5,234c3.2,0,3.2-5,0-5C356.2,229,356.2,234,359.5,234L359.5,234z"/>
				</g>
			</g>
		</g>
		<path class="st32" d="M149,211c0,0-28.9,7.5-32.8,26.3c-2.5,12.1-7,28.6-13.5,37.9c-13.2,18.7-20.2,22.9-20.2,22.9
			s50,56.8,73.3,21c17.3-26.6-17.9-80.5-17.9-80.5L149,211z"/>
		<g>
			<path class="st32" d="M79,308.8c0,0,2.2-0.1,3.3-1.5c1-1.4,9-13.7,9-13.7l40.2,30l-10.1,23c0,0-25.8-17.7-26.4-18.1
				C94.3,328,79,308.8,79,308.8"/>
			<path class="st10" d="M81.3,306.9c0,0-33.3-40.5-62.9-19.2c-35.8,25.8,12.1,98,12.1,98l21.3-12.4c0,0,20.3,20.8,40.3,12.2
				c20-8.6,30.3-42,30.3-42L81.3,306.9z"/>
			<path class="st32" d="M115.2,360.5c4.8-9.1,7.5-18.1,7.5-18.1l-29.2-28.1l-6.1,18.5l-13.8-6.7l-11.4,22l-14.1-6.3L35,366.3
				l-16.1-1.6c6,12.3,11.6,20.9,11.6,20.9l21.3-12.4c0,0,3,3.1,7.8,6.3l10.2-19.7l12.3-2.7l9.2-17.2L115.2,360.5z"/>
			<path class="st12" d="M30.5,385.7c1.6-1.2,3.3-2.5,5-3.7c1.7-1.2,3.4-2.4,5.1-3.5c1.7-1.2,3.4-2.3,5.1-3.5
				c1.7-1.1,3.4-2.3,5.1-3.4l-0.8,1l3.2-9.1c1.1-3,2.2-6.1,3.3-9.1l0.5-1.4l1.6-0.3c2.7-0.4,5.5-0.8,8.2-1.3l8.2-1.2l-2.1,1.5
				c1.5-3,3-6,4.6-8.9c1.5-3,3.1-5.9,4.7-8.9l1.5-2.9l2.3,2c2.5,2.2,5,4.4,7.5,6.6l3.7,3.3c1.2,1.1,2.4,2.3,3.7,3.4
				c2.4,2.2,4.9,4.5,7.2,6.9c2.4,2.3,4.8,4.7,7.1,7.1c-2.8-1.8-5.6-3.7-8.3-5.6c-2.7-1.9-5.4-3.8-8.1-5.8c-1.3-1-2.7-1.9-4-2.9l-4-3
				c-2.7-2-5.3-4-7.9-6l3.9-0.8c-1.4,3-2.9,6-4.4,9c-1.5,3-3,6-4.5,9l-0.7,1.3l-1.5,0.2l-8.2,1.1c-2.7,0.3-5.5,0.7-8.2,1l2.1-1.6
				c-1.3,3-2.5,5.9-3.8,8.9l-4,8.8l-0.3,0.7l-0.5,0.3c-1.8,0.9-3.7,1.9-5.5,2.8c-1.8,0.9-3.7,1.8-5.5,2.7c-1.8,0.9-3.7,1.8-5.6,2.7
				C34.3,384,32.4,384.8,30.5,385.7"/>
			<path class="st33" d="M29.4,327.8c2.9,2.1,3.6,6.2,1.5,9.1c-2.1,2.9-6.2,3.6-9.1,1.5c-2.9-2.1-3.6-6.2-1.5-9.1
				C22.4,326.3,26.4,325.7,29.4,327.8"/>
			<path class="st33" d="M33.6,293.9c1.5,1.1,1.9,3.2,0.8,4.7c-1.1,1.5-3.2,1.9-4.7,0.8c-1.5-1.1-1.9-3.2-0.8-4.7
				C30,293.1,32.1,292.8,33.6,293.9"/>
			<path class="st33" d="M87.9,362.1c1.5,1.1,1.9,3.2,0.8,4.7c-1.1,1.5-3.2,1.9-4.7,0.8c-1.5-1.1-1.9-3.2-0.8-4.7
				C84.2,361.3,86.4,361,87.9,362.1"/>
			<path class="st33" d="M48.5,314.6c1.5,1.1,1.9,3.2,0.8,4.7c-1.1,1.5-3.2,1.9-4.7,0.8c-1.5-1.1-1.9-3.2-0.8-4.7
				C44.9,313.9,47,313.5,48.5,314.6"/>
			<path class="st33" d="M70.3,311.3c2.8,2.1,3.5,6,1.4,8.9c-2.1,2.8-6,3.5-8.9,1.4s-3.5-6-1.4-8.9
				C63.4,309.8,67.4,309.2,70.3,311.3"/>
			<path class="st33" d="M109.3,363.9c1.9,1.4,2.3,4,1,6c-1.4,1.9-4,2.3-6,1c-1.9-1.4-2.3-4-1-6C104.8,363,107.4,362.6,109.3,363.9"
				/>
			<path class="st33" d="M86.5,379.6c2.8,2.1,3.5,6,1.4,8.9c-2.1,2.8-6,3.5-8.9,1.4c-2.8-2.1-3.5-6-1.4-8.9
				C79.7,378.2,83.6,377.5,86.5,379.6"/>
			<path class="st33" d="M11.7,309.6c3,2.2,3.7,6.4,1.5,9.5c-2.2,3-6.4,3.7-9.5,1.5c-3-2.2-3.7-6.4-1.5-9.5
				C4.4,308,8.6,307.4,11.7,309.6"/>
			<path class="st33" d="M60.5,283.8c2.3,1.7,2.9,4.9,1.2,7.3c-1.7,2.3-4.9,2.9-7.3,1.2c-2.3-1.7-2.9-4.9-1.2-7.3
				C54.9,282.6,58.2,282.1,60.5,283.8"/>
		</g>
		<polyline class="st10" points="98.4,273.7 161.1,301.5 149.9,332.2 125.6,352.7 80.2,299.2 		"/>
		<path class="st33" d="M93.9,283.3c2.1,1.9,2.3,5.2,0.4,7.4c-1.9,2.1-5.2,2.3-7.4,0.4c-2.1-1.9-2.3-5.2-0.4-7.4
			C88.4,281.5,91.7,281.3,93.9,283.3"/>
		<path class="st33" d="M135.5,339.8c1.4,1.2,1.5,3.4,0.3,4.8c-1.2,1.4-3.4,1.5-4.8,0.3c-1.4-1.2-1.5-3.4-0.3-4.8
			C132,338.6,134.1,338.5,135.5,339.8"/>
		<path class="st33" d="M120.7,320.1c1.8,1.6,1.9,4.3,0.3,6c-1.6,1.8-4.3,1.9-6,0.3c-1.8-1.6-1.9-4.3-0.3-6
			C116.2,318.7,118.9,318.6,120.7,320.1"/>
		<path class="st33" d="M118.8,294.4c2.6,2.3,2.8,6.4,0.5,9c-2.3,2.6-6.4,2.8-9,0.5s-2.8-6.4-0.5-9
			C112.2,292.3,116.2,292,118.8,294.4"/>
		<path class="st33" d="M157.6,310.5c2.7,2.2,3.2,6.2,1,8.9c-2.2,2.7-6.2,3.2-8.9,1c-2.7-2.2-3.2-6.2-1-8.9
			C150.8,308.8,154.8,308.3,157.6,310.5"/>
		<g>
			<path class="st3" d="M194.9,317.9c0,0-2.5-10.8-27.1-2.8c-27.2,8.8-21.4,17.6-21.4,17.6c24.2,24.2,40.5,73.2,40.5,73.2
				c0,19.1,6.9,6.5,6.9,6.5C215.2,375.3,194.9,317.9,194.9,317.9z"/>
			<path class="st3" d="M278.8,298.4c-4.9-6.2-23.1-6.3-40,5.2c-19.1,13-6.4,33.7-6.4,33.7s6.7,36.9,45.8,54.3c0,0,12.9,5.6,3-10.3
				c0,0-7.9-12.1-2.9-40.6C278.2,340.7,283.7,304.5,278.8,298.4z"/>
			<path class="st4" d="M123.5,305.9c0,0,10.9,27.5,17,38.4c0,0,26.8,46.5,6.8,76.4c0,0-12.9,17.2,8.6,7.1c0,0,62.8-28.2,29-112.5
				c-9.1-22.8-15.9-33.7-21.9-40c-8.1-2.1-19.3,2.7-30.3,11.5C122.6,296.6,122.2,303.1,123.5,305.9z"/>
			<path class="st4" d="M198.6,281.6c-24.5,5.3-20.2,22.3-20.2,22.3s0.6,11.2,12.6,56.8c0.7,2.8,14.9,43.3,46,49.3
				c0,0,26.2,5.3,8.1-8.5c0,0-10.3-15-5.6-46.9c4.5-30.5,0.1-38.8,0.9-47.4C241.8,295.2,221.9,276.5,198.6,281.6z"/>
			<path class="st5" d="M186.7,343.7c1.3,5.1,2.7,10.7,4.4,17.1c0.5,1.8,6.3,18.6,18.4,32.3l30.7-4.7c-1.8-7.7-2.8-18.9-0.6-33.7
				c2-13.4,2.2-22.5,2-29.2L186.7,343.7z"/>
			<path class="st6" d="M240.7,345.7l-52.1,5.5c0.1,0.4,0.2,0.7,0.3,1.1l51.5-4.3C240.5,347.3,240.6,346.5,240.7,345.7z"/>
			<path class="st6" d="M194.2,368.8l45.3-14.2c0.1-0.6,0.2-1.2,0.2-1.8L193.9,368C194,368.3,194.1,368.5,194.2,368.8z"/>
			<path class="st6" d="M199.6,379.1l39.6,3.8c-0.1-0.7-0.2-1.3-0.3-2l-40-2.9C199.1,378.3,199.3,378.7,199.6,379.1z"/>
			<path class="st4" d="M376.6,358c0,0-21.2-7.1-30-46c0,0-5.2-17.6-9.9-43.3c0,0-3.3-16.7-9.5-23.8c-5.3-0.4-5.3-1.4-12.8-0.6
				c-11.2,1.2-31.8,9-35.6,15.9c-3.8,6.9,17.6,54.5,21.7,61.5c12.3,24.6,31.1,49.9,65.4,46.3C366,368,405.6,364.2,376.6,358z"/>
			<path class="st5" d="M300.6,321.7c6.4,12.8,14.5,25.7,25.7,34.7l28.1-22.1c0,0,0,0,0,0c-3-5.9-5.7-13.2-7.7-22.3
				c0,0-2.7-9-5.9-23.5c-9.7,4.4-41.8,18.9-46,21.1C297.3,315.5,299.5,319.9,300.6,321.7z"/>
			<path class="st6" d="M303.5,327.3l36.9-15l-22.5,36c0.2,0.2,0.4,0.4,0.6,0.6l4.6-7.1l29.9-10.6c-0.2-0.4-0.3-0.7-0.5-1.1
				c-5.6,1.8-24,7.6-27.5,8.9l18-27.8l3.2-1.3c-0.1-0.3-0.2-0.7-0.3-1l-43.1,16.7C302.9,326.3,303.2,326.8,303.5,327.3z"/>
			<polygon class="st7" points="289.1,358.5 311.4,393.8 321.5,389.1 305.6,352 			"/>
			<polygon class="st8" points="296.9,370.9 310.3,362.9 307,355.3 291.3,362 			"/>
			<polygon class="st7" points="256.2,346.9 308.5,319.7 318.3,339.9 272.1,367.4 			"/>
			<polygon class="st7" points="279.4,360.4 289.7,368 311.5,356.8 308.7,342.5 			"/>
			<path class="st9" d="M256.2,346.9l52.3-27.2c0,0,6.2,14-14.7,26.2C293.8,345.8,270.2,357,256.2,346.9"/>
			<path class="st4" d="M234.9,296.3c0,0,4.1,38.8,34.3,51.3c0,0,21.9-5.2,35.5-17.2c0,0,0.8-28-13.5-57.5L234.9,296.3z"/>
			<polygon class="st8" points="281.4,361.9 309.2,345.3 310.2,349.4 283.7,363.6 			"/>
		</g>
		<path class="st18" d="M129.1,197.6c-11,8.2-31.3,32.9-38.5,54.2l14.6-5.6l-1.8,9.1l33.2,9l3.5-7.6l1.2,8.3l7.7-2.5l1.9,6.9l22.7,5
			c0,0-12.2-54.4-12.8-55.8c-0.5-1.4-26.1-17-26.1-17L129.1,197.6z"/>
		<path class="st34" d="M215.1,101.6c0,0-0.1,0-0.1-0.1c-0.1-0.1-0.2-0.3-0.2-0.5c0-0.2-0.1-0.6,0-1c0.1-0.4,0.3-0.8,0.6-1.1
			c0.3-0.3,0.6-0.7,1-0.9c0.4-0.3,0.8-0.5,1.2-0.7c0.2-0.1,0.4-0.2,0.7-0.3c0.2-0.1,0.4-0.1,0.6-0.2c0.6-0.1,1.1-0.2,1.6-0.2
			c2.1-0.1,4,0.6,5.3,1.5c0.6,0.4,1.1,0.8,1.4,1.2c0.3,0.3,0.5,0.6,0.5,0.6s-0.3,0-0.7,0.1c-0.4,0-1,0.1-1.7,0.1c-1.4,0-3,0-4.6,0
			c-0.4,0-0.7,0-1.1,0c-0.2,0-0.4,0.1-0.7,0.1c-0.1,0-0.3,0.1-0.5,0.1c-0.4,0.1-0.7,0.1-1.1,0.2c-0.3,0.1-0.6,0.1-0.9,0.2
			c-0.5,0.1-0.9,0.3-1.2,0.6C215.1,101.3,215.1,101.6,215.1,101.6"/>
		<path class="st4" d="M300.5,170.8c-5.5-11.9-12.3-24.9-20.7-38.7C239.1,65,183.6,51,183.6,51l-36.7,18.6l21.7,72.2
			c0,0-31.6,35.1-45,73.8C160.1,220.3,221.4,217.1,300.5,170.8"/>
		<path class="st2" d="M138.6,54.5c0.6,1.9-0.4,4-2.4,4.7c-1.9,0.6-4-0.4-4.7-2.4c-0.6-1.9,0.4-4,2.4-4.7
			C135.9,51.5,138,52.5,138.6,54.5"/>
		<path class="st2" d="M131.9,74.7c0.5,1.5-0.3,3-1.8,3.5c-1.5,0.5-3-0.3-3.5-1.8c-0.5-1.5,0.3-3,1.8-3.5
			C129.9,72.5,131.4,73.3,131.9,74.7"/>
		<path class="st2" d="M124.8,86.9c1.2,3.7-0.8,7.6-4.5,8.8c-3.7,1.2-7.6-0.8-8.8-4.5c-1.2-3.7,0.8-7.6,4.5-8.8
			C119.6,81.2,123.6,83.3,124.8,86.9"/>
		<path class="st2" d="M149.9,52.4c0.4,1.2-0.3,2.5-1.5,2.9c-1.2,0.4-2.5-0.3-2.9-1.5c-0.4-1.2,0.3-2.5,1.5-2.9
			C148.2,50.5,149.5,51.2,149.9,52.4"/>
		<path class="st2" d="M116.3,119.3c0.7,2.1-0.5,4.4-2.6,5.1c-2.1,0.7-4.4-0.5-5.1-2.6c-0.7-2.1,0.5-4.4,2.6-5.1
			C113.3,116,115.6,117.2,116.3,119.3"/>
		<path class="st2" d="M119.3,134.8c0.4,1.1-0.2,2.3-1.4,2.7c-1.1,0.4-2.3-0.3-2.7-1.4c-0.4-1.1,0.2-2.3,1.4-2.7
			C117.8,133.1,119,133.7,119.3,134.8"/>
		<path class="st34" d="M150.8,68c-3.3-2.2-7.1-4.2-11.1-5.6c3.8,1.9,7.5,4.4,10.6,7.2C150.5,69.1,150.7,68.5,150.8,68"/>
		<path class="st34" d="M147.9,69.7c-1.5-0.2-3-0.4-4.6-0.5c1.7,0.6,3.4,1.2,5,1.8C148.1,70.6,148,70.2,147.9,69.7"/>
		<path class="st34" d="M157.1,66c-1.7-1.7-3.6-3.2-5.6-4.6c1.8,1.6,3.5,3.3,5,5.2C156.7,66.4,156.9,66.2,157.1,66"/>
		<path class="st18" d="M203.6,140.7c0,0-0.2,2.3,7.2,10.5c8.9,9.9,22.8,12.4,22.8,12.4l-6.7-23.7l-9.3,0.4L203.6,140.7z"/>
		<path class="st18" d="M146.5,154.7c0,0,0.5,1.8,8,10.1c8.9,9.9,18.5,11.1,18.5,11.1l-9.2-34.5c0,0-4.3,1.3-10.5,5.2
			S146.5,154.7,146.5,154.7z"/>
		<path class="st4" d="M145.8,160.5c2.9,0.8,5.9,1,8.9,0.9c1.5-0.1,3-0.3,4.4-0.6c0.7-0.1,2.5-0.3,3.5-0.7l0.9-7.3l1-7.6l0.5-3.9
			l1.7,3.6c0.3,0.7,0.9,1.5,1.4,2.2c0.5,0.7,1.2,1.4,1.8,2c5,4.8,12.5,6.3,19.2,6.2c5.3-0.1,10.9-1,16-2.7l-7.6-9.8l-2-2.6l3.3-0.1
			l16.9-0.3l13.1-0.2c-3.6-3.2-7.2-6.3-10.8-9.5c-0.3-0.3-0.7-0.6-1-0.9c0,0,3.5-4.2,3.8-4.7c1.1-1.6,2.1-3.4,2.8-5.2
			c1.7-4.4,1.9-8.7-0.2-13c-0.6-1.2-1.3-2.5-2.1-3.6c-0.8-1.2-1.6-2.3-2.6-3.3c0.1,0.1,0.2,0.2,0.4,0.3c-0.2-0.2-0.3-0.3-0.5-0.4
			c-6.2-1.6-19.5-4.1-40.7-3.1c-30.7,1.5-53.3,22-53.3,22l-2.1,19.6l9.6-5.6c-1.2,1.5-2.1,5.4,1.3,16.2c0.7,2,1.6,4.1,2.6,6.1
			c1,1.1,2.5,2.5,4.2,3.6C142,159.2,143.9,160,145.8,160.5"/>
		<path class="st34" d="M149.7,112.1c0.3,0.8-0.2,1.7-1,2c-0.8,0.3-1.7-0.2-2-1s0.2-1.7,1-2C148.6,110.9,149.4,111.3,149.7,112.1"/>
		<path class="st34" d="M143.5,115.8c0.2,0.6-0.1,1.3-0.8,1.5c-0.6,0.2-1.3-0.1-1.5-0.7c-0.2-0.6,0.1-1.3,0.7-1.5
			C142.6,114.9,143.3,115.2,143.5,115.8"/>
		<path class="st34" d="M148.6,119.3c0.1,0.4-0.1,0.8-0.5,1c-0.4,0.1-0.8-0.1-1-0.5s0.1-0.8,0.5-1
			C148.1,118.6,148.5,118.9,148.6,119.3"/>
		<path class="st4" d="M140.4,158.2c0,0,3.9,2.9,10.6,3.6c6.6,0.6,12.4-1.2,12.4-1.2l2.3-15.2c0,0,3.7,9.1,16.9,11.1
			c13.3,2,25.2-3,25.2-3l-8.9-11.6l33.9-0.7l-13.9-11.8c0,0,5.2-4.7,6.8-13.4c1.6-8.7-6.9-16.3-6.9-16.3"/>
		<path class="st34" d="M233.7,139.9c-4.3-3.7-8.7-7.3-13.1-10.9c5.4-6.4,8.1-15.5,3.7-23.2c-1.4-2.5-3.3-4.7-5.5-6.5
			c1,1,1.8,2.1,2.6,3.3c0.8,1.1,1.5,2.4,2.1,3.6c2,4.3,1.9,8.6,0.2,13c-0.7,1.9-1.7,3.6-2.8,5.2c-0.3,0.4-3.7,4.7-3.8,4.7
			c0.3,0.3,0.6,0.6,1,0.9c3.6,3.2,7.2,6.3,10.8,9.5l-13.1,0.2l-16.9,0.3l-3.3,0.1l2,2.6l7.6,9.8c-5.1,1.8-10.7,2.6-16,2.7
			c-6.7,0.1-14.2-1.4-19.2-6.2c-0.7-0.6-1.3-1.3-1.8-2c-0.5-0.7-1.1-1.5-1.4-2.2l-1.7-3.6l-0.5,3.9l-1,7.6l-0.9,7.3
			c-1,0.4-2.8,0.6-3.5,0.7c-1.5,0.3-3,0.5-4.4,0.6c-3,0.2-6-0.1-8.9-0.9c-1.9-0.5-3.8-1.2-5.4-2.3c1.6,1.2,3.4,2.1,5.3,2.8
			c5.6,2,12.2,1.9,17.9,0.3l0.5-0.1l0.1-0.5l1.3-7.6l0.8-4.5c0.6,0.8,1.2,1.6,1.9,2.3c1.4,1.5,3.1,2.7,4.9,3.8
			c10.2,5.9,24.8,4.4,35.3,0.2l2-0.8l-1.3-1.7l-6.9-9l13.6-0.3l16.9-0.5l3.9-0.1L233.7,139.9z"/>
		<path class="st34" d="M212.1,105.7c0.3,0.8-0.2,1.7-1,2c-0.8,0.3-1.7-0.2-2-1c-0.3-0.8,0.2-1.7,1-2
			C211,104.4,211.8,104.8,212.1,105.7"/>
		<path class="st34" d="M205.9,109.3c0.2,0.6-0.1,1.3-0.7,1.5c-0.6,0.2-1.3-0.1-1.5-0.8c-0.2-0.6,0.1-1.3,0.7-1.5
			C205,108.4,205.7,108.7,205.9,109.3"/>
		<path class="st34" d="M211,112.8c0.1,0.4-0.1,0.8-0.5,1c-0.4,0.1-0.8-0.1-1-0.5s0.1-0.8,0.5-1C210.5,112.2,210.9,112.4,211,112.8"
			/>
		<path class="st34" d="M177.8,163.1c0,0,0.4,0.2,1.1,0.4c2.2,0.7,4.5,1,6.8,1.1c2.7,0.2,5.4,0.3,8.1,0.3c2.7,0,5.4-0.1,8-0.7
			c0.7-0.2,1.1-0.3,1.1-0.3s-0.2,0.4-0.8,0.9c-2.5,2.3-6.4,3.2-9.7,3.4c-3.8,0.2-8.1-0.4-11.4-2.3c-1.1-0.6-2-1.4-2.5-1.9
			C178,163.5,177.8,163.1,177.8,163.1"/>
		<path class="st34" d="M182.4,84.1c3.1,8.4,0.5,17.1-5.9,19.4c-6.3,2.3-13.9-2.6-17-11.1c-3.1-8.4-0.5-17.1,5.9-19.4
			C171.7,70.8,179.3,75.7,182.4,84.1"/>
		<path class="st34" d="M198.7,87c-1.3,7.7-7,13.2-12.8,12.3c-5.8-0.9-11.3-9.7-10.1-17.5c1.3-7.7,8.8-11.5,14.6-10.6
			C196.3,72.2,200,79.3,198.7,87"/>
		<path class="st18" d="M180.2,85.5c2.4,6.6,0.4,13.4-4.6,15.2c-4.9,1.8-10.9-2.1-13.3-8.6c-2.4-6.6-0.4-13.4,4.6-15.2
			C171.9,75,177.8,78.9,180.2,85.5"/>
		<path class="st18" d="M194.3,88c-1,6.4-5.8,11-10.6,10.2c-4.8-0.8-7.9-6.6-6.8-13.1c1-6.4,5.8-11,10.6-10.2
			C192.3,75.7,195.3,81.5,194.3,88"/>
		<path class="st10" d="M177,87.2c1.1,3.3-0.1,6.7-2.7,7.6c-2.6,0.8-5.5-1.2-6.6-4.6c-1.1-3.3,0.1-6.7,2.7-7.6
			C173,81.8,175.9,83.9,177,87.2"/>
		<path class="st10" d="M188.4,86.8c0.9,2.7-0.1,5.5-2.2,6.2c-2.1,0.7-4.5-1-5.4-3.7c-0.9-2.7,0.1-5.5,2.2-6.2
			C185.1,82.4,187.5,84,188.4,86.8"/>
		<path class="st20" d="M178.4,66.5c5.7-1.2,11.7,0.2,18.1,1.6c0,1.3,0.2,1,0.1,2.3c-6.1-1.5-12-1.5-17.4-0.4
			C179,68.8,178.7,67.6,178.4,66.5"/>
		<path class="st10" d="M182.8,112.6c8.8-2.9,15-9.4,16.2-16.2c-5.9-0.4-12.9-0.5-21-0.1c-7.9,0.4-15.2,2-21.8,4.2
			c0.1,1,0.3,2.1,0.6,3.1C159.6,112.3,171.3,116.4,182.8,112.6"/>
		<path class="st33" d="M161.5,104.4c-1.4,0.5-2.5,1.6-2.9,2.9c1.7,2.3,4.1,4.1,7,5.2c1.6-1.1,2.3-3.2,1.7-5.1
			C166.5,104.9,164,103.6,161.5,104.4"/>
		<path class="st33" d="M185.2,103.2c-3.6,1.2-5.5,5-4.4,8.6c0.1,0.4,0.3,0.8,0.5,1.2c0.5-0.1,0.9-0.3,1.4-0.4
			c4.2-1.4,7.8-3.6,10.5-6.2C191.8,103.6,188.4,102.2,185.2,103.2"/>
		<path class="st2" d="M128.9,100.2c0.4,1.1,1.6,1.7,2.7,1.4c1.1-0.4,1.7-1.6,1.4-2.7c-0.4-1.1-1.6-1.7-2.7-1.4
			C129.2,97.9,128.6,99.1,128.9,100.2"/>
		<path class="st21" d="M126,72.2c0,0-1.6-6.7-5.2-8.9c-2.7-1.7-4.8-1.7-5.8-0.6c-1,1.1,2.9,4.7,2.9,4.7s-4.2-1-4.6,1.1
			c-0.5,2.1,3.5,2.5,3.5,2.5s-4.7,1.3-3.9,3.4c0.8,2.1,4.2,0.8,4.2,0.8s-3.4,2-2.5,3.9c0.8,1.9,6.2,1,6.3,0.8
			C120.9,79.7,125.9,72.6,126,72.2"/>
		<path class="st22" d="M120.1,92c0,0-4.4-19.3,4.6-22.2c8.9-2.9,14.5,19.4,14.5,19.4l-3.5,1.1c0,0,1.4,9.4-4.9,11
			C124.5,102.8,120.1,92,120.1,92"/>
		<path class="st23" d="M124.6,69.7c-0.1,0-0.1,0.1-0.2,0.1l9.5,29.4c2.5-3.3,1.7-8.9,1.7-8.9l3.5-1.1
			C139.2,89.1,133.6,66.8,124.6,69.7"/>
		<path class="st10" d="M129.6,90c0,0,0.6,0,1.6,0c0.9,0,2.1-0.1,3.1-0.3c0.6-0.1,1.1-0.2,1.7-0.3c0.6-0.1,1.1-0.2,1.6-0.2
			c0.9-0.1,1.6,0,1.6,0s-0.5,0.5-1.3,0.9c-0.4,0.3-0.9,0.5-1.4,0.7c-0.5,0.2-1.2,0.5-1.9,0.6c-0.7,0.1-1.4,0.1-2,0
			c-0.6-0.1-1.2-0.3-1.6-0.5C130,90.5,129.6,90,129.6,90"/>
		<path class="st18" d="M127.5,82.3c0.9,2.6,0.3,5.2-1.2,5.7c-1.5,0.5-3.5-1.2-4.3-3.9c-0.9-2.6-0.3-5.2,1.2-5.7
			C124.7,77.9,126.6,79.6,127.5,82.3"/>
		<path class="st10" d="M128.1,83.6c0.4,1.4,0.1,2.7-0.9,3c-0.9,0.3-2-0.6-2.5-1.9c-0.4-1.4-0.1-2.7,0.9-3
			C126.5,81.4,127.6,82.2,128.1,83.6"/>
		<polygon class="st22" points="128.9,99.6 125.3,108.1 130.6,107.9 		"/>
		<polygon class="st22" points="130.8,100.6 134.4,106 137.7,102 		"/>
		<path class="st21" d="M120.4,90.1c0,0-1.4-3.3-4.4-6.7c-3-3.4-6.2-3.3-6.2-3.3s-0.7,4.4,1.9,7.5c2.6,3.1,6.8,3,6.8,3
			s-1.5,1.6-2,4.6c-0.5,3,1.2,8.8,1.2,8.8s1.6-0.9,3.2-4.6C122.4,95.9,120.4,90.1,120.4,90.1"/>
		<path class="st2" d="M200.3,38.3c0.7,2.1-0.5,4.4-2.6,5c-2.1,0.7-4.4-0.5-5-2.6c-0.7-2.1,0.5-4.4,2.6-5
			C197.3,35.1,199.6,36.2,200.3,38.3"/>
		<g class="st36">
			<g>
				<path class="st37" d="M288.4,70.4c18,53.4-13.2,105.7-66.5,123.7c-53.4,18-108.8-5.1-126.8-58.5c-18-53.4,10.7-111.2,64.1-129.2
					C212.5-11.7,270.4,17,288.4,70.4"/>
			</g>
		</g>
		<path class="st38" d="M132.1,185.1L135,202c0,0,29.4,22.3,77.7,6.1c61.1-20.5,78.6-58.9,78.6-58.9l-7.1-27.6
			c0,0-18.8,41.2-82.2,60.8C155.6,196.8,132.1,185.1,132.1,185.1z"/>
		<path class="st17" d="M207.3,186.9c-18.4,6-42.2,10.3-67.8,7.3l0.3-3c58.8,6.9,106.1-26.4,106.5-26.7l1.5,4.5
			C247.6,169.3,231.8,179,207.3,186.9z"/>
		<path class="st4" d="M119.4,216.9c-1.6,4.5-3,9.1-4.1,13.7c-10.2,43.9,12.6,88.8,12.6,88.8c82.6,4.5,158.8-13.8,199.9-71.9
			c0,0-7.6-34.2-29-80.1C216.7,214.7,157,221.3,119.4,216.9"/>
		<path class="st17" d="M215.9,209c-22.7,7.4-40.3,8.1-40.6,8.1l-0.6-3.1c0.3,0,32.8-1.3,68.2-20.3l1.4,3.6
			C234,202.7,225,206,215.9,209z"/>
		<path class="st18" d="M163.7,336.1l1.4-13.9l3.6,9.8l8.1-14.2l3.1,13.7l41.5-11.3l5.3-17.4l8.6,13.7l109.8-42
			c-26.4-44.4-40.5-83.4-54-122.2c-20.8,17.5-42.6,34-66.9,47.8L202,222.9l-46.1-25.5l-32.3,18.8c-10.9,37.7-7,80.7,8.7,127.9
			L163.7,336.1z"/>
		<path class="st18" d="M295.2,150.4c13.6-1.8,45.4,1.6,65.5,11.7l-17.6,29.8l-12.6-5.3L342,199l-6.9,0.1l4,4.5l-21.7,32.8
			c0,0-29.4-47.4-30-48.8c-0.6-1.4,6.7-30.4,6.7-30.4L295.2,150.4z"/>
		<path class="st2" d="M260.7,82.5c0.4,1.1-0.2,2.3-1.4,2.7c-1.1,0.4-2.3-0.3-2.7-1.4c-0.4-1.1,0.2-2.3,1.4-2.7
			C259.1,80.8,260.3,81.4,260.7,82.5"/>
		<path class="st2" d="M263.3,59c0.8,2.5-0.6,5.2-3.1,6.1c-2.5,0.8-5.2-0.6-6.1-3.1c-0.8-2.5,0.6-5.2,3.1-6.1
			C259.7,55.1,262.4,56.5,263.3,59"/>
		<path class="st41" d="M113.3,278.3c0,0,30.4,3.2,109.3-15.7c78.9-18.8,97.4-40,97.4-40l13.9,31.1C273.8,285.5,194,307.2,124.4,320
			C118.9,307.4,118,298.1,113.3,278.3z"/>
		<g>
			<path class="st39" d="M245.7,178.7l0,0.1C245.7,178.8,245.5,178.9,245.7,178.7z"/>
		</g>
		<path class="st42" d="M346,277.1C346,277.1,346,277.2,346,277.1C346,277.2,346,277.1,346,277.1z"/>
		<path class="st42" d="M345.4,276.5c0,0,0.1,0.1,0.1,0.1C345.5,276.6,345.5,276.6,345.4,276.5z"/>
		<path class="st42" d="M345.8,276.9c0,0,0.1,0.1,0.1,0.1C345.9,277,345.8,277,345.8,276.9z"/>
		<path class="st42" d="M339.9,269c0.1,0.1,0.2,0.3,0.3,0.4C340.1,269.3,340,269.1,339.9,269z"/>
		<path class="st42" d="M341.9,271.9c0,0,0.1,0.1,0.1,0.1C341.9,272,341.9,272,341.9,271.9z"/>
		<path class="st42" d="M341.3,271.1C341.3,271.1,341.3,271.1,341.3,271.1C341.3,271.1,341.3,271.1,341.3,271.1z"/>
		<polygon class="st42" points="238.8,228.1 239.2,229.3 239.2,229.3 		"/>
		<path class="st42" d="M343,273.5C343,273.5,343,273.5,343,273.5C343,273.5,343,273.5,343,273.5z"/>
		<path class="st42" d="M344.4,275.3C344.4,275.3,344.5,275.4,344.4,275.3C344.5,275.4,344.4,275.3,344.4,275.3z"/>
		<path class="st42" d="M150.5,216.9l28.8,76.4l-63.6,9.6c0,0-21.8-57.3,10-96.2L150.5,216.9z"/>
		<path class="st43" d="M279.9,245c0,0,13.7,18.2,23.4,33.5c9.7,15.3,9.9,17.6,9.9,17.6l-16.9,4.9l-29.6-47L279.9,245z"/>
		<path class="st41" d="M266.5,247.5l-35.9,8.4c0,0,26.1,33,32.6,74.9l47.8-17.9C311,312.9,293.9,267.8,266.5,247.5z"/>
		<g>
			<path class="st43" d="M233.4,260.7c2.3,1.4,4.1,3.5,5.8,5.6c1.6,2.1,3.1,4.4,4.3,6.8c0.6,1.2,1.2,2.4,1.8,3.6
				c0.5,1.2,1.1,2.4,1.6,3.7c0.5,1.2,0.9,2.5,1.3,3.8c0.4,1.3,0.7,2.6,1,3.9c-0.7-1.1-1.4-2.3-2-3.4c-0.6-1.2-1.3-2.3-1.9-3.5
				l-3.7-7c-0.6-1.2-1.2-2.3-1.9-3.5c-0.6-1.2-1.3-2.3-1.9-3.4C236.3,265,235,262.8,233.4,260.7z"/>
		</g>
		<g>
			<path class="st43" d="M231.6,270c-3.5,2.4-7.3,4.3-11.2,6.1c-3.9,1.8-7.9,3.2-11.9,4.6c-4.1,1.3-8.2,2.4-12.3,3.3
				c-4.2,0.9-8.4,1.6-12.6,2c2-0.7,4.1-1.2,6.1-1.9c2-0.6,4.1-1.2,6.1-1.8c1-0.3,2-0.6,3-0.9l3-0.9c2-0.6,4-1.3,6-1.9
				c4-1.3,8-2.7,12-4.1C223.7,273,227.6,271.6,231.6,270z"/>
		</g>
		<g>
			<path class="st43" d="M230.6,273.3c-1.8,2.4-4.3,4.3-6.7,6c-2.5,1.7-5.1,3.2-7.8,4.6c-1.4,0.7-2.7,1.3-4.1,1.9
				c-1.4,0.6-2.8,1.1-4.2,1.6c-1.4,0.5-2.9,0.9-4.3,1.4c-1.5,0.4-2.9,0.8-4.4,1.1c1.4-0.7,2.7-1.3,4.1-1.9c1.4-0.6,2.7-1.2,4.1-1.8
				c2.7-1.3,5.4-2.5,8.1-3.8c2.7-1.3,5.3-2.7,7.9-4.1C225.7,276.8,228.2,275.2,230.6,273.3z"/>
		</g>
		<g>
			<path class="st43" d="M279.3,315c-0.7-2.5-1.4-5.1-2.1-7.6l-2.2-7.6c-0.7-2.5-1.6-5-2.3-7.5c-0.8-2.5-1.7-5-2.6-7.4
				c-1.7-4.9-3.7-9.8-5.8-14.6c-0.5-1.2-1.1-2.4-1.7-3.5c-0.6-1.2-1.2-2.3-1.8-3.5c-0.3-0.6-0.6-1.1-1-1.7c-0.3-0.6-0.7-1.1-1-1.7
				c-0.7-1.1-1.4-2.2-2.2-3.1l-2.3-2.7l3.2,1.3c1.8,0.8,3.4,1.7,4.9,2.8c1.5,1.1,2.9,2.3,4.2,3.5c2.7,2.5,5,5.3,7.2,8.2
				c2.1,2.9,4.1,6,5.8,9.2c1.7,3.2,3.2,6.5,4.6,9.8c-1.6-3.2-3.3-6.4-5.2-9.5c-1.9-3.1-3.9-6.1-6.1-8.9c-2.2-2.8-4.6-5.4-7.3-7.8
				c-1.3-1.2-2.7-2.3-4.2-3.3c-1.4-1-3-1.9-4.5-2.5l0.9-1.4c1,1.1,1.7,2.2,2.4,3.3c0.4,0.6,0.7,1.1,1.1,1.7c0.3,0.6,0.7,1.1,1,1.7
				c0.6,1.2,1.3,2.3,1.8,3.5c0.6,1.2,1.1,2.4,1.7,3.6c2.1,4.8,4,9.8,5.6,14.8c0.8,2.5,1.6,5,2.3,7.6c0.7,2.5,1.4,5.1,2.1,7.6
				C277.1,304.7,278.2,309.8,279.3,315z"/>
		</g>
		<path class="st42" d="M329.3,242.1l-29-91c0,0-22.6-5.3-31.5,1.9l-8.1,119.4L329.3,242.1z"/>
		<path class="st17" d="M207.5,199.6c0.3,3-1.7,5.6-4.5,5.9c-2.8,0.3-5.4-1.8-5.7-4.8c-0.3-3,1.7-5.6,4.5-5.9
			C204.6,194.4,207.1,196.6,207.5,199.6z"/>
		<path class="st17" d="M172.7,202.5c0.3,2.9-1.7,5.5-4.4,5.8c-2.8,0.3-5.3-1.8-5.6-4.7c-0.3-2.9,1.7-5.5,4.4-5.8
			C169.9,197.5,172.4,199.6,172.7,202.5z"/>
		<path class="st17" d="M242.9,187.6c0.3,2.9-1.7,5.6-4.5,5.9c-2.8,0.3-5.3-1.8-5.6-4.8c-0.3-2.9,1.7-5.6,4.5-5.9
			C240.1,182.5,242.6,184.7,242.9,187.6z"/>
		<path class="st38" d="M288.5,134.3c0,0-11.8-52.2-33.1-49.2c-21.3,2.9-16.6,50.3-12.2,68.7s5.4,21.7,5.4,21.7
			c16.1-5.7,29.1-18.8,38.8-39.6"/>
		<path class="st17" d="M268,133c-6.1,2-13.5-4.7-16.9-15.2c-3.4-10.5-1.3-20.3,4.7-22.2c6.1-2,13.5,4.7,16.9,15.2
			C276.2,121.3,274.1,131.1,268,133z M256.6,97.7c-4.7,1.5-6.2,10.4-3.3,19.4c2.9,9,9.3,15.3,14,13.8c4.7-1.5,6.2-10.4,3.3-19.4
			C267.7,102.5,261.3,96.2,256.6,97.7z"/>
		<polygon class="st17" points="251.3,104.3 272.7,116.9 274.2,121.1 250.8,114.4 		"/>
		<path class="st18" d="M186.5,214.2c0,0-42.1-8.8-61.7,21.4l4-53.7L186.5,214.2z"/>
		<g>
			<path class="st6" d="M183,214.3c-2.5-0.6-5-1-7.5-1.2c-2.5-0.2-5-0.3-7.5-0.1c-1.2,0.1-2.5,0.1-3.7,0.3l-1.9,0.2
				c-0.6,0.1-1.2,0.2-1.9,0.3l-0.9,0.1l-0.9,0.2l-1.9,0.4c-1.2,0.2-2.5,0.6-3.8,0.8c1.1-0.7,2.2-1.3,3.4-1.9c1.2-0.5,2.4-1,3.7-1.4
				c2.5-0.8,5.1-1.2,7.7-1.4c2.6-0.1,5.3,0.1,7.8,0.7C178.4,211.9,180.9,212.8,183,214.3z"/>
		</g>
		<path class="st6" d="M230.4,204c0.4,1.4-0.4,2.9-1.9,3.4c-1.5,0.5-3.1-0.2-3.5-1.6c-0.4-1.4,0.4-2.9,1.9-3.4
			C228.4,201.9,230,202.6,230.4,204z"/>
		<path class="st6" d="M180.9,219.2c0,1.4-1.2,2.7-2.7,2.7c-1.6,0-2.9-1.1-2.9-2.5c0-1.4,1.2-2.7,2.7-2.7
			C179.6,216.6,180.9,217.7,180.9,219.2z"/>
		<g>
			<path class="st6" d="M229.6,204.8c0.6,3.1,1.6,6.3,2.8,9.4c1.1,3.1,2.4,6.2,3.9,9.2c1.5,3,3,5.9,4.8,8.8c1.7,2.9,3.7,5.6,5.7,8.3
				c-2.2-2.5-4.4-5.1-6.4-7.8c-2-2.7-3.9-5.5-5.6-8.5c-1.7-2.9-3.3-5.9-4.7-9c-1.4-3.1-2.7-6.2-3.7-9.6L229.6,204.8z"/>
		</g>
		<g>
			<path class="st6" d="M180,220.5c0.2,3.3,0.2,6.5,0,9.7c-0.2,3.2-0.5,6.4-1.1,9.6c-0.6,3.2-1.3,6.3-2.3,9.3
				c-1.1,3-2.5,5.9-4.2,8.6c1.5-2.8,2.6-5.8,3.4-8.8c0.7-3.1,1.2-6.2,1.5-9.3c0.2-3.1,0.3-6.3,0.2-9.4c-0.1-3.1-0.4-6.3-0.8-9.3
				L180,220.5z"/>
		</g>
		<path class="st18" d="M289.9,126.3c0,0-13.7,43.6-65.3,73.7c0,0,25.1-12.5,44.2-10.3c19.6,2.3,31.4,11.2,31.4,11.2L289.9,126.3z"
			/>
		<g>
			<path class="st6" d="M265.8,189.8c-3.5-0.1-6.9,0.1-10.2,0.4c-1.7,0.2-3.4,0.4-5,0.7l-2.5,0.4l-2.5,0.5c-0.8,0.1-1.6,0.4-2.5,0.6
				c-0.8,0.2-1.6,0.4-2.4,0.7l-2.4,0.7l-2.4,0.8c-1.6,0.5-3.2,1.2-4.8,1.8c-1.6,0.6-3.1,1.4-4.8,2c1.4-1,2.8-2.1,4.3-3
				c1.5-0.8,3-1.8,4.6-2.4c3.1-1.5,6.5-2.6,9.9-3.4c3.4-0.8,6.9-1.2,10.4-1.2C258.9,188.4,262.5,188.7,265.8,189.8z"/>
		</g>
		<path class="st62" d="M152.1,69.4c5.5-3.2,12-5.5,19.2-6.3c0.4,1.3,0.3,1.4,0.6,2.7c-6.8,0.6-12.6,4-17.8,7
			C153.6,71.6,152.9,70.5,152.1,69.4z"/>
	</g>
</g>
</svg>
