<?xml version="1.0" encoding="utf-8"?>
<!-- Generator: Adobe Illustrator 21.1.0, SVG Export Plug-In . SVG Version: 6.00 Build 0)  -->
<svg version="1.1" id="headmaster" xmlns="http://www.w3.org/2000/svg" xmlns:xlink="http://www.w3.org/1999/xlink" x="0px" y="0px"
	 viewBox="0 0 234 296" enable-background="new 0 0 234 296" xml:space="preserve" width="234" height="296" preserveAspectRatio="none">
<g>
	<path fill="#F89521" d="M46.5,177.6c0,0,2.2-6.3-0.5-10c-2.7-3.7-5.4,7.7-5.4,8.4c-1.4-0.4-11.9-8.5-14-7c-2.8,2,5.5,9.5,5.5,9.5
		S20,175.2,20,177.8c0,2.6,11.2,6.2,11.2,6.2s-10-0.1-10,2.7c0.1,2,6.8,3.6,13.2,3.5c2.5,3.1,6.1,7.5,6.1,7.5l12-13.9
		C52.6,183.8,51.6,180,46.5,177.6z"/>
	<path fill="#D44E24" d="M54.8,18.5c0,0,35.8-8.2,108.5,55.8c72.7,64,53.5,120.2,53.5,120.2s-22.7-15.3-38.7-7.3
		c-18.6,9.4-13.6,27.8-13.6,27.8s-27-14.9-38.6-8.5c-11.6,6.4-11.6,14-11.6,14l-23.6-20.2c0,0,12.3-37.4-0.4-89.6
		C77.5,58.5,54.8,18.5,54.8,18.5z"/>
	<g>
		<path fill="#FEE66A" d="M95.5,56.4c0,0-0.8-7.1-4.8-12.6c-3.1-4.4-10.5-7.6-10.5-7.6l6.4,18.7c0,0-5-8.4-18-13.6
			C55.3,36,46.4,34.8,43.1,40s9,11.6,9,11.6s-9.7-1.9-21.6,1.5c-11.9,3.4-24.5,9-24.5,9S7.4,74.4,23.8,78s17.4,1.9,17.4,1.9
			l57.2-14.1c0,0,5.6-6.3,5.3-13.6s-5.8-11.7-5.8-11.7L95.5,56.4z"/>
		<g>
			<path fill="#F9B418" d="M60,50.4c1.6,1.1,3.2,2.3,4.5,3.8c1.3,1.4,2.4,3.2,3.1,5c0.7,1.9,1.2,3.8,1.3,5.8l0.1,1.6l-0.9-1.3
				c-0.5-0.7-1.2-1.3-1.9-1.8c-0.7-0.6-1.5-1-2.3-1.4c-1.7-0.8-3.4-1.4-5.2-1.8c-3.6-0.8-7.3-1.3-11-1.1c-3.7,0.2-7.3,0.8-10.9,1.8
				c-3.6,1-7.1,2.3-10.4,4c1.6-1,3.3-1.8,5-2.6c1.7-0.8,3.4-1.4,5.2-2c3.5-1.1,7.2-1.9,11-2.1c3.7-0.2,7.5,0.2,11.2,1
				c1.9,0.5,3.7,1.1,5.4,1.9c0.9,0.4,1.7,0.9,2.5,1.5c0.8,0.6,1.5,1.2,2.1,2.1L68.1,65c-0.1-1.8-0.6-3.7-1.2-5.5
				c-0.7-1.8-1.6-3.5-2.8-5c-1.3-1.5-2.7-2.8-4.3-3.9c-1.6-1.1-3.3-2.1-5.1-2.7C56.5,48.5,58.2,49.3,60,50.4z"/>
		</g>
		<path fill="#F89521" d="M65,65.5c-17.5,4.3-25.7,9.6-25.7,9.6s1.6,35.4,23.2,61.1c22.1,26.5,23,34.9,23,34.9l15.8-3.1
			c0,0,0-32.5,1.1-52.1c1.2-19.3-9.1-52-9.1-52S82.4,61.2,65,65.5z"/>
		<g>
			
				<ellipse transform="matrix(0.9941 -0.1086 0.1086 0.9941 -10.2758 7.3882)" fill="#FFFCE9" cx="62.7" cy="98" rx="6.6" ry="8.7"/>
			
				<ellipse transform="matrix(0.9941 -0.1086 0.1086 0.9941 -10.4578 7.3638)" fill="#3C1026" cx="62.4" cy="99.7" rx="3.3" ry="3.9"/>
		</g>
		<g>
			
				<ellipse transform="matrix(0.9941 -0.1086 0.1086 0.9941 -10.481 6.1807)" fill="#FFFCE9" cx="51.5" cy="99.3" rx="4.9" ry="6.8"/>
			<ellipse transform="matrix(0.9941 -0.1086 0.1086 0.9941 -10.577 6.285)" fill="#3C1026" cx="52.4" cy="100.3" rx="2.6" ry="3"/>
		</g>
		<path fill="#3C1026" d="M56.1,81.6c3.7-0.9,7.8-0.6,11.4,1.1c-0.1,0.2-0.1,0.5-0.1,0.8c-3.6-1.5-7.7-1.7-11.5-0.5
			C56,82.5,56,82.1,56.1,81.6z"/>
		<path fill="#3C1026" d="M51.8,87.3c-3.9,0.6-7.5,2.5-10.2,5.4c0.1,0.3,0.3,0.5,0.4,0.8c2.7-2.7,6.4-4.4,10.4-4.8
			C52.1,88.3,51.9,87.8,51.8,87.3z"/>
		<path fill="#FEE66A" d="M96.2,60c0,0,7.7,6,9.9,22.3c2.3,16.3-2,26.5-2,26.5s-15.8-8.4-19.7-21.6c-3.9-13.1-0.7-24.9-0.7-24.9
			L96.2,60z"/>
		<g>
			<path fill="#F9B418" d="M97.4,68.1c-0.4-0.2-0.8-0.3-1.2-0.4c-0.8-0.1-1.7,0-2.5,0.1c-1.6,0.3-3.3,0.8-4.8,1.5
				c-1.5,0.8-2.8,1.8-3.8,3.1c-1,1.3-1.6,2.9-1.7,4.5l-0.8-0.4c1.3-1,2.6-1.8,4-2.5s2.9-1.3,4.5-1.5c1.6-0.3,3.2-0.2,4.7,0.4
				c1.5,0.6,2.7,1.8,3.1,3.3c-0.6-1.5-1.9-2.5-3.3-2.9c-1.4-0.5-3-0.5-4.4-0.2c-1.5,0.4-2.9,0.9-4.2,1.6c-1.3,0.7-2.6,1.5-3.8,2.4
				l-0.9,0.7l0.1-1.1c0.1-1.9,0.8-3.5,1.9-5c1.2-1.4,2.7-2.5,4.3-3.2c1.7-0.7,3.3-1.1,5.1-1.3c0.8,0,1.7,0,2.6,0.2
				c0.8,0.2,1.7,0.6,2.1,1.4C98.1,68.4,97.8,68.2,97.4,68.1z"/>
		</g>
		<g>
			<path fill="#F89521" d="M110.2,106.8c-13.4,11.6-17.8,1.9-17.8,1.9l-0.5-9.2c0,0,6.2-10.8,15.4-19.6c9.3-8.8,16-9.5,16-9.5
				S123.5,95,110.2,106.8z"/>
			<g>
				<path fill="#D54F27" d="M111.7,82.9c-2.2,1.9-4.2,4.1-6,6.3c-1.7,2.2-3,4.8-3.8,7.6c-0.8,2.8-1.1,5.7-0.9,8.5l-0.9,0
					c0.5-1.6,1-3.2,1.8-4.7c0.7-1.5,1.7-2.9,3.1-4c0.7-0.4,1.5-0.9,2.4-0.9c0.8-0.1,1.7,0,2.5,0.4c0.9,0.4,1.3,1.3,1.4,2.1
					c0,0.8-0.2,1.6-0.5,2.4c0.3-0.8,0.4-1.6,0.3-2.4c-0.1-0.8-0.6-1.5-1.3-1.8c-0.7-0.3-1.5-0.3-2.3-0.2c-0.8,0-1.5,0.5-2.1,0.9
					c-1.2,1-2.1,2.4-2.8,3.9c-0.7,1.5-1.2,3-1.6,4.6l-0.6,2.6l-0.3-2.6c-0.2-3.1,0.1-6,0.9-8.9c0.8-2.9,2.2-5.6,4.1-7.9
					c1.9-2.2,4-4.3,6.3-6.1c2.3-1.8,4.8-3.5,7.5-4.6C116.4,79.5,114,81.2,111.7,82.9z"/>
			</g>
		</g>
		<g>
			<path fill="#D54F27" d="M73.3,141.7c1.1-0.2,2.2-0.6,3.1-1.2c0.9-0.6,1.8-1.4,2.5-2.3c0.8-0.9,1.4-1.9,1.9-3
				c-0.2,1.2-0.6,2.4-1.3,3.4c-0.7,1-1.5,1.9-2.6,2.6c-1,0.7-2.3,1.1-3.5,1.2c-1.2,0-2.5-0.1-3.6-0.5C71,142,72.2,141.9,73.3,141.7z
				"/>
		</g>
		
			<ellipse transform="matrix(0.9941 -0.1086 0.1086 0.9941 -10.7125 9.6817)" fill="#D54F27" cx="83.5" cy="103.2" rx="1.5" ry="1.5"/>
		<path fill="#3C1026" d="M72.1,121.8c7.3-4.1,8.7-9.6,8.7-9.6s0.3,13.8-3.1,20.8c-3.5,7-10,5.9-12.8,2.1c-2.8-3.8-6.2-8-6.2-8
			S64.7,125.8,72.1,121.8z"/>
		<path fill="#FFFEEF" d="M59.7,126.8c0,0,3.4-0.9,4.4-1.1c0.9-0.2,5.8-3.4,8.7-5c2.9-1.6,7.9-8.6,7.9-8.6c0.1,2.3,0.2,3.1,0,5.1
			c0,0-3.1,5.8-9.8,9.8c-6.7,4-8.5,2.6-8.5,2.6L59.7,126.8z"/>
		<path fill="#FFFEEF" d="M69.9,138c0.5,0.1,2.8,0.2,5.3-1.5c2.4-1.7,2.8-4.3,2.8-4.3s-2.6,2-6.6,2.9c-3.3,0.8-4.3,0.8-4.3,0.8
			C68.8,138,68.5,137.9,69.9,138z"/>
		<path fill="#F89521" d="M62.4,106.4c11,6.3,18.3,5.6,18.3,5.6l-0.9,1.9c0,0-4.8,5.7-5.9,6.5c-1.2,0.8-12.3,6.1-12.3,6.1
			s-11.2,2.7-21,3s-23.7-3-23.7-3s1.4-6,1.6-6.5c0.2-0.5,4.5-9.2,7.9-11.9c3.4-2.6,10.6-5.3,10.6-5.3S51.4,100.2,62.4,106.4z"/>
		<g>
			<path fill="#D54F27" d="M64.3,107.5c-2.5-1.4-5.2-2.5-8-3.3c-5.5-1.5-11.4-1.9-17.1-1.3c-5.6,0.7-10.8,3.6-14.4,8
				c-3.6,4.4-5.9,9.9-6.9,15.4l-0.6-1c3.1,0.9,6.4,1.5,9.6,1.9c3.2,0.5,6.5,0.7,9.8,0.8c6.6,0.2,13.2-0.5,19.7-1.6
				c3.3-0.5,6.5-1.3,9.5-2.5c1.5-0.6,3-1.4,4.4-2.2c1.4-0.8,2.8-1.7,4-2.8c5.1-4.2,8.5-10.3,9.5-16.9c-0.2,3.3-1.2,6.6-2.7,9.6
				c-1.5,3-3.6,5.7-6.1,8c-5,4.6-11.6,7.2-18.2,8.4c-6.5,1.4-13.3,2-20,1.9s-13.4-0.8-20-2.7l-0.8-0.2l0.1-0.8
				c0.6-3,1.5-5.8,2.7-8.6c1.2-2.7,2.7-5.3,4.7-7.6c1-1.2,2-2.2,3.2-3.2c1.2-0.9,2.5-1.8,3.8-2.5c2.7-1.4,5.6-2.3,8.6-2.6
				c3-0.3,6-0.2,8.9,0.1c3,0.3,5.9,0.9,8.7,1.8c2.8,0.9,5.5,2.2,8,3.8c2.4,1.7,4.7,3.6,6.3,6.1C69.2,111.2,66.9,109.4,64.3,107.5z"
				/>
		</g>
		<path fill="#D54F27" d="M40.6,108.5c-1-0.4-1.7-1.3-1.5-2s1.3-1,2.4-0.7c0.2,0.1,0.4,0.1,0.5,0.2l0,0c0.4,0.2,0.8,0.5,1.1,0.8
			c0.4,0.3,0.6,0.7,0.8,1.1c0.3,0.8,0.2,1.7,0,2.4c0.1-0.8-0.1-1.6-0.5-2.1c-0.1-0.1-0.2-0.2-0.3-0.3
			C42.8,108.6,41.8,108.8,40.6,108.5z"/>
	</g>
	
		<ellipse transform="matrix(0.9896 -0.144 0.144 0.9896 -37.9088 19.6838)" opacity="0.1" fill="#384E7D" cx="117" cy="271.7" rx="116.9" ry="15.5"/>
	<path fill="#D44E24" d="M120.7,220.1c0,0,11.5,18.3,25.4,23.3c13.9,5.1,56-2.5,66.2,4.6c4.4,3.1-42.6,15.9-63,19.2
		c-42,6.7-63.9-30.7-63.9-30.7L120.7,220.1z"/>
	<g>
		<path fill="#F7941D" d="M126.1,1.6c0,0,51.6-3.9,87.8,85.9c36.3,89.8-0.8,146-0.8,146s-13.4-23.9-31.4-23.9
			c-20.8,0-24.6,18.7-24.6,18.7s-17.5-25.4-30.7-24.9c-13.2,0.5-16.6,7.4-16.6,7.4l-12-28.6c0,0,27.8-27.9,39.8-80.3
			C149.7,49.5,126.1,1.6,126.1,1.6z"/>
		<path fill="#98D7D6" d="M126.5,203.4c-13.2,0.5-16.6,7.4-16.6,7.4l-7.7-18.3c10.8-11.6,27-32.6,38.6-63.5
			c18.8-50.3,1.7-100.9,1.7-100.9s51.6,2.9,75.8,96.7c9.3,35.9,8.5,65.6,4,88.5c-4.4,13.2-9.1,20.3-9.1,20.3s-13.4-23.9-31.4-23.9
			c-20.8,0-24.6,18.7-24.6,18.7S139.7,202.9,126.5,203.4z"/>
		<g>
			<path fill="#228DBB" d="M153.9,89c0.7,0,1.3,0.3,1.9,0.6c0.3,0.2,0.6,0.4,0.9,0.6c0.3,0.2,0.5,0.4,0.8,0.6c0.5,0.4,1,0.9,1.5,1.4
				c0.5,0.5,0.9,1,1.3,1.6c1.6,2.2,3.1,4.5,4.3,6.9c2.5,4.8,4.5,9.8,6.3,14.9c0.8,2.6,1.8,5.1,2.4,7.8c0.4,1.3,0.6,2.7,0.9,4
				c0.2,1.3,0.5,2.7,0.7,4c0.7,5.4,0.9,10.8,0.9,16.2c-0.2,10.8-1.5,21.6-3.5,32.2c-2,10.6-4.6,21.1-7.9,31.3
				c1.2-5.2,2.4-10.5,3.4-15.7c1.1-5.3,2-10.5,2.8-15.8c1.6-10.6,2.8-21.3,3-31.9c0.1-5.3-0.1-10.7-0.8-15.9
				c-0.1-1.3-0.4-2.6-0.6-3.9c-0.3-1.3-0.5-2.6-0.8-3.9c-0.6-2.6-1.4-5.1-2.2-7.7c-1.6-5.1-3.4-10.2-5.6-15c-1.1-2.4-2.4-4.8-3.8-7
				c-0.4-0.5-0.7-1.1-1.2-1.6c-0.4-0.5-0.8-1-1.3-1.5c-0.2-0.2-0.5-0.5-0.7-0.7c-0.3-0.2-0.5-0.4-0.8-0.6
				C155.1,89.4,154.5,89.1,153.9,89z"/>
		</g>
	</g>
	<path fill="#228DBB" d="M50.5,213c0,0,4.8,0.6,19.1-11.9c14.3-12.5,22.6-32.5,22.6-32.5l-11.8-1.3l-17.9,21.7l-10.3-9.2l-16.9,14.9
		L50.5,213z"/>
	<path fill="#F7941D" d="M150.7,193.2c0,0,2.3,4.1,0.4,8.3c-1.9,4.2-5.7,4.4-5.7,4.4s11.5,2.4,10.8,5.7c-0.7,3.3-11-1.3-11-1.3
		s7.9,9.6,5.5,10.7c-2.4,1.1-10.3-7.7-10.3-7.7s5.2,8.9,2.6,10c-2.6,1-15.1-12.5-13.9-19c1.2-6.6,6.8-13.7,6.8-13.7L150.7,193.2z"/>
	<path fill="#228DBB" d="M122.6,226.6c0,0,4.3,8.1,8.6,18.9c4.1,10.3,5.4,19.3,5.4,19.3l-24.5,3.6l-1.5-37.4L122.6,226.6z"/>
	<path fill="#228DBB" d="M66.7,239.4c-0.9-8.8-4.6-21.2,0.6-37.8c6.9-21.9,12.7-34.3,12.7-34.3l23.5-3.4c0,0,9.3,6.6,22,25.5
		c11.2,16.7,11.6,33.2,12.9,38.8L66.7,239.4z"/>
	<path fill="#FFFDED" d="M82.6,178.9c-1.1-5-1.2-9.2-1-11.9l20.4-3c0.8,1.6,1.5,4.5,1.5,9.3c0,12.2-8.7,29.1-8.7,29.1
		S84.5,187.7,82.6,178.9z"/>
	<path fill="#228DBB" d="M162.7,177.9c0,0-1.8-4.5-19.8-10.6c-18-6.1-39.5-3.4-39.5-3.4l4.8,10.8l27.7,4.7l-2.8,13.5l21.3,7.2
		L162.7,177.9z"/>
	<path fill="#C51F2E" d="M90.9,177.2l-5.1-5.6l4.5-4.7l4.8,3.2l-2.4,7.1l8,10.9c-2.5,7.9-5.9,14.4-5.9,14.4s-5.7-8.2-9.4-15.9
		L90.9,177.2z"/>
	<g>
		<path fill="#98D7D6" d="M101.5,173.9c-1.1-0.4-2.1-0.8-3.1-1.3c-1-0.5-2-1-3-1.5c-1.9-1-3.8-2.1-5.7-3.3l1.3-0.2
			c-1.4,1.4-2.7,2.8-4.2,4.2c-1.4,1.3-2.9,2.6-4.6,3.8c1-1.7,2.2-3.3,3.5-4.8c1.2-1.5,2.5-3,3.8-4.5l0.5-0.6l0.7,0.4
			c1.9,1.1,3.7,2.4,5.5,3.6c0.9,0.6,1.8,1.3,2.6,2C99.9,172.4,100.7,173.1,101.5,173.9z"/>
	</g>
	<g>
		<path fill="#004B78" d="M108,168.2l6.3,6.4l0.2,0.2l-0.3,0.1l-3.6,1.7l0-0.5l5.2,2.8l0.2,0.1l0,0.2c-0.1,1.4-0.5,2.6-1,3.9
			c-0.5,1.2-1,2.4-1.7,3.6c-1.3,2.3-2.8,4.5-4.5,6.5c-1.7,2-3.6,3.8-5.7,5.5c-2.1,1.7-4.2,3.1-6.6,4.4l0.3-0.5
			c0.7,5.2,1.5,10.4,2.2,15.7l1,7.8l0.9,7.9l-1.3-7.8l-1.3-7.8c-0.9-5.2-1.6-10.4-2.4-15.6l0-0.3l0.3-0.2c2.2-1.2,4.4-2.7,6.4-4.3
			c2-1.6,3.9-3.4,5.6-5.3c1.7-1.9,3.1-4.1,4.4-6.3c1.2-2.2,2.4-4.6,2.7-7.1l0.2,0.3l-5.1-2.9l-0.5-0.3l0.5-0.2l3.6-1.6l-0.1,0.3
			L108,168.2z"/>
	</g>
	<g>
		<path fill="#004B78" d="M76.9,172.7c-1.2,2.8-2.5,5.5-3.7,8.2l-0.2-0.5l3.9,0.5l0.8,0.1l-0.6,0.6l-4.1,4.3l0.1-0.5
			c0.4,0.9,1,1.9,1.7,2.7c0.7,0.9,1.4,1.7,2.1,2.5c1.5,1.6,3.2,3,4.9,4.4c3.5,2.7,7.5,4.7,11.6,6.3c-4.3-1.2-8.4-3-12.1-5.6
			c-1.8-1.3-3.5-2.8-5.1-4.4c-1.6-1.6-3-3.4-4-5.6l-0.1-0.3l0.2-0.2l4.2-4.2l0.2,0.7l-3.9-0.7l-0.5-0.1l0.2-0.4
			C74,178,75.4,175.3,76.9,172.7z"/>
	</g>
	<ellipse transform="matrix(0.9896 -0.144 0.144 0.9896 -29.1887 15.447)" fill="#004B78" cx="92.1" cy="209.3" rx="2.4" ry="2.4"/>
	
		<ellipse transform="matrix(0.9896 -0.144 0.144 0.9896 -30.7176 15.7838)" fill="#004B78" cx="93.7" cy="220.1" rx="2.4" ry="2.4"/>
	<path fill="#228DBB" d="M81.8,232.5c0,0-1.8,9-2.9,20.5c-1,11-0.2,20.1-0.2,20.1l24.9-3.6l-9.1-36.3L81.8,232.5z"/>
	<path fill="#F7941D" d="M111.8,265.1c0,0,6.3,1.9,12.6,1c6.3-0.9,20.5-5.3,20.5-5.3s4.6-6.4,7.9-3.9c3.4,2.5-0.4,6.3-0.4,6.3
		l-1,0.9c0,0,7.7-2.8,6.8,1.3c-0.9,4.1-9,1.9-9,1.9s5.4,2.2,4,4c-1.5,1.7-2.8,1.9-5.2,0.9c-2.4-1-1.9-2.7-1.9-2.7s-34,6.9-36.1,4.1
		C108.7,271.6,111.8,265.1,111.8,265.1z"/>
	<path fill="#F7941D" d="M103.2,266.4c0,0-6.5,3.7-12.8,4.6c-6.3,0.9-20.2,0.6-20.2,0.6s-6.2-4.8-8.7-1.4c-2.5,3.4,2.2,5.9,2.2,5.9
		l1.2,0.6c0,0-8.2-0.5-6.2,3.2c2,3.7,9.2-0.8,9.2-0.8s-4.6,3.7-2.7,4.9c1.9,1.2,3.2,1,5.2-0.6c2-1.6,1.1-3.2,1.1-3.2
		s34.5-3,35.8-6.3C108,271.7,103.2,266.4,103.2,266.4z"/>
</g>
</svg>
