<?xml version="1.0" encoding="utf-8"?>
<!-- Generator: Adobe Illustrator 23.0.3, SVG Export Plug-In . SVG Version: 6.00 Build 0)  -->
<svg version="1.1" xmlns="http://www.w3.org/2000/svg" xmlns:xlink="http://www.w3.org/1999/xlink" x="0px" y="0px"
	 viewBox="0 0 173 230" enable-background="new 0 0 173 230" xml:space="preserve" width="173" height="230" preserveAspectRatio="none">
<g id="Grok_Cast_Shadow">
</g>
<g id="Grok_Hair">
</g>
<g id="Grok_Right_Leg_Front">
</g>
<g id="Grok_Right_Leg_Middle">
</g>
<g id="Grok_Right_Leg_Back">
</g>
<g id="Grok_Left_Leg_Front">
</g>
<g id="Grok_Left_Leg_Middle">
</g>
<g id="Grok_Left_Leg_Back">
</g>
<g id="Grok_Right_Arm">
</g>
<g id="Grok_Body">
</g>
<g id="Grok_Left_Arm">
</g>
<g id="Grok_Right_Ear">
</g>
<g id="Grok_Left_Ear">
</g>
<g id="Grok_Head">
</g>
<g id="Grok_Eyes">
</g>
<g id="Grok_Eyebrows">
</g>
<g id="Grok_Glasses_and_Eyebrows">
</g>
<g id="Grok_Nose">
</g>
<g id="Text">
	<g id="Grok_Moustache">
	</g>
</g>
<g id="Layer_21">
	<g>
		<path fill="#677476" d="M57.5,172.7c2.6,10.8,24.1,15,52.9,12.1c31.9-3.2,57.1-9.2,45.8-32.1c-10-20.3-34.2-9.4-58.2-2.5
			c-21.2,6.1-32.1,2.8-37.4,7.7C58.2,160,55.6,164.7,57.5,172.7z"/>
		<path fill="#C1DCE8" d="M88.3,118.8c0.2,0.5,5.1,42.1,2.2,43.5c-2.9,1.4-25.9,6.6-26.6,4.8s-7.2-46.9-7.2-46.9
			S85.7,111,88.3,118.8z"/>
		<path fill="#C9362C" d="M139.9,199.2c-22.8-3.1-19,8.2-19,8.2c21.1,1,31.5-4.8,31.5-4.8c-3-3.7-7.3-15.1-7.3-15.1
			c-3.8,0.8-7.7,0.7-7.7,0.7C137.8,193.6,139.9,199.2,139.9,199.2"/>
		<path fill="#69131D" d="M143,201.6C143,201.6,143,201.6,143,201.6l-15.1,1.2c-0.3,0-0.5-0.2-0.5-0.5c0-0.3,0.2-0.5,0.5-0.5
			l14.5-1.2l-2.4-12.5c-0.1-0.3,0.1-0.5,0.4-0.6c0.3-0.1,0.5,0.1,0.6,0.4l2.5,13c0,0.1,0,0.3-0.1,0.4
			C143.3,201.5,143.1,201.6,143,201.6z"/>
		<path fill="#69131D" d="M132.5,202.4C132.5,202.4,132.5,202.4,132.5,202.4c-0.3,0-0.6-0.2-0.6-0.5l0.1-3.1c0-0.3,0.2-0.5,0.5-0.5
			c0.3,0,0.5,0.2,0.5,0.5l-0.1,3.1C132.9,202.1,132.7,202.3,132.5,202.4z"/>
		<path fill="#69131D" d="M137.7,202c-0.2,0-0.5-0.1-0.5-0.4l-0.7-2.6c-0.1-0.3,0.1-0.5,0.4-0.6c0.3-0.1,0.5,0.1,0.6,0.4l0.7,2.6
			C138.2,201.7,138.1,202,137.7,202C137.8,202,137.7,202,137.7,202z"/>
		<path fill="#69131D" d="M140.9,191.4C140.9,191.4,140.9,191.4,140.9,191.4l-3.1,0.3c-0.3,0-0.5-0.2-0.5-0.5c0-0.3,0.2-0.5,0.5-0.5
			l3.1-0.2c0.3,0,0.5,0.2,0.5,0.5C141.3,191.2,141.1,191.4,140.9,191.4z"/>
		<path fill="#69131D" d="M141.9,195.7c0,0-0.1,0-0.1,0l-3.3-0.3c-0.3,0-0.5-0.3-0.5-0.5c0-0.3,0.3-0.5,0.5-0.5l3.3,0.3
			c0.3,0,0.5,0.3,0.5,0.5C142.3,195.5,142.1,195.7,141.9,195.7z"/>
		<path fill="#FFFFFF" d="M130.3,198.7L130.3,198.7c-8.3,0.8-8.1,5.3-7.9,7.3l0,0c0,0.2,0,0.3,0.1,0.5c0,0,0,0,0,0
			c0,0.1,0,0.2,0.1,0.3c0,0,0,0,0,0c0,0,0,0.1,0,0.1c0,0,0,0,0,0c0,0,0,0.1,0,0.1c0,0,0,0,0,0c0,0,0,0,0,0.1c0,0,0,0,0,0
			c0,0,0.1,0.6,0.1,0.6c1.8,0.1,5.5,0.1,9.6-0.5c0,0-0.7-1.8-1.3-3.9C130.4,201.3,130.4,200.2,130.3,198.7z"/>
		<path fill="#D1D2D3" d="M120.6,207.5c0,0-0.2,1.1,0.3,3c0,0.1,0.1,0.2,0.1,0.3c0.7,2,33.2-3.6,34-5.1c0,0-1.1-1.9-2.4-3.1
			C152.6,202.6,146.1,205.7,120.6,207.5"/>
		<path fill="#677476" d="M142.2,163.5c0,0,1.6,20.8,8.1,33.8l-12.2,0.9c0,0-3.9-21.2-1.2-34.1L142.2,163.5z"/>
		<g>
			<path fill="#C9362C" d="M106.2,204.3c-22.8-3.1-19,8.2-19,8.2c21.1,1,31.5-4.8,31.5-4.8c-3-3.7-7.3-15.1-7.3-15.1
				c-3.8,0.8-7.7,0.7-7.7,0.7C104.1,198.7,106.2,204.3,106.2,204.3"/>
			<path fill="#69131D" d="M109.4,206.7C109.4,206.7,109.4,206.7,109.4,206.7l-15.1,1.2c-0.3,0-0.5-0.2-0.5-0.5
				c0-0.3,0.2-0.5,0.5-0.5l14.5-1.2l-2.4-12.5c-0.1-0.3,0.1-0.5,0.4-0.6c0.3-0.1,0.5,0.1,0.6,0.4l2.5,13c0,0.1,0,0.3-0.1,0.4
				C109.6,206.6,109.5,206.7,109.4,206.7z"/>
			<path fill="#69131D" d="M99.3,207.4C99.2,207.4,99.2,207.4,99.3,207.4c-0.3,0-0.6-0.2-0.6-0.5l0.1-3.1c0-0.3,0.2-0.5,0.5-0.5
				c0.3,0,0.5,0.2,0.5,0.5l-0.1,3.1C99.7,207.2,99.5,207.4,99.3,207.4z"/>
			<path fill="#69131D" d="M104.1,207.1c-0.2,0-0.5-0.1-0.5-0.4l-0.7-2.6c-0.1-0.3,0.1-0.5,0.4-0.6c0.3-0.1,0.5,0.1,0.6,0.4l0.7,2.6
				C104.6,206.8,104.4,207.1,104.1,207.1C104.1,207.1,104.1,207.1,104.1,207.1z"/>
			<path fill="#69131D" d="M107.3,196.5C107.2,196.5,107.2,196.5,107.3,196.5l-3.1,0.3c-0.3,0-0.5-0.2-0.5-0.5
				c0-0.3,0.2-0.5,0.5-0.5l3.1-0.2c0.3,0,0.5,0.2,0.5,0.5C107.7,196.3,107.5,196.5,107.3,196.5z"/>
			<path fill="#69131D" d="M108.2,200.8c0,0-0.1,0-0.1,0l-3.3-0.3c-0.3,0-0.5-0.3-0.5-0.5c0-0.3,0.3-0.5,0.5-0.5l3.3,0.3
				c0.3,0,0.5,0.3,0.5,0.5C108.7,200.6,108.5,200.8,108.2,200.8z"/>
			<path fill="#FFFFFF" d="M94.7,204L94.7,204c-7.6,1.1-8.1,5.3-7.9,7.3l0,0c0,0.2,0,0.3,0.1,0.5c0,0,0,0,0,0c0,0.1,0,0.2,0.1,0.3
				c0,0,0,0,0,0c0,0,0,0.1,0,0.1c0,0,0,0,0,0c0,0,0,0.1,0,0.1c0,0,0,0,0,0c0,0,0,0,0,0.1c0,0,0,0,0,0c0,0,0.1,0.6,0.1,0.6
				c1.8,0.1,5.5,0.1,9.6-0.5c0,0-0.7-1.8-1.3-3.9C94.8,206.6,94.8,205.6,94.7,204z"/>
			<path fill="#D1D2D3" d="M86.9,212.6c0,0-0.2,1.1,0.3,3c0,0.1,0.1,0.2,0.1,0.3c0.7,2,33.2-3.6,34-5.1c0,0-1.1-1.9-2.4-3.1
				C119,207.7,112.5,210.8,86.9,212.6"/>
			<path fill="#677476" d="M107.9,167.9c0,0,2.5,23.8,8.1,33.8l-12.2,0.9c0,0-3.9-21.2-1.2-34.1L107.9,167.9z"/>
		</g>
		<path fill="#C9362C" d="M67.3,209.1c-22.8-3.1-19,8.2-19,8.2c21.1,1,31.5-4.8,31.5-4.8c-3-3.7-7.3-15.1-7.3-15.1
			c-3.8,0.8-7.7,0.7-7.7,0.7C65.2,203.5,67.3,209.1,67.3,209.1"/>
		<path fill="#69131D" d="M70.4,211.5C70.4,211.5,70.4,211.5,70.4,211.5l-15.1,1.2c-0.3,0-0.5-0.2-0.5-0.5c0-0.3,0.2-0.5,0.5-0.5
			l14.5-1.2l-2.4-12.5c-0.1-0.3,0.1-0.5,0.4-0.6c0.3-0.1,0.5,0.1,0.6,0.4l2.5,13c0,0.1,0,0.3-0.1,0.4
			C70.7,211.4,70.6,211.5,70.4,211.5z"/>
		<path fill="#69131D" d="M60.3,212.2C60.3,212.2,60.3,212.2,60.3,212.2c-0.3,0-0.6-0.2-0.6-0.5l0.1-3.1c0-0.3,0.2-0.5,0.5-0.5
			c0.3,0,0.5,0.2,0.5,0.5l-0.1,3.1C60.7,211.9,60.6,212.1,60.3,212.2z"/>
		<path fill="#69131D" d="M65.2,211.9c-0.2,0-0.5-0.1-0.5-0.4l-0.7-2.6c-0.1-0.3,0.1-0.5,0.4-0.6c0.3-0.1,0.5,0.1,0.6,0.4l0.7,2.6
			C65.6,211.5,65.5,211.8,65.2,211.9C65.2,211.9,65.2,211.9,65.2,211.9z"/>
		<path fill="#69131D" d="M68.3,201.3C68.3,201.3,68.3,201.3,68.3,201.3l-3.1,0.3c-0.3,0-0.5-0.2-0.5-0.5c0-0.3,0.2-0.5,0.5-0.5
			l3.1-0.2c0.3,0,0.5,0.2,0.5,0.5C68.8,201,68.6,201.2,68.3,201.3z"/>
		<path fill="#69131D" d="M69.3,205.5c0,0-0.1,0-0.1,0l-3.3-0.3c-0.3,0-0.5-0.3-0.5-0.5c0-0.3,0.3-0.5,0.5-0.5l3.3,0.3
			c0.3,0,0.5,0.3,0.5,0.5C69.7,205.3,69.5,205.5,69.3,205.5z"/>
		<path fill="#FFFFFF" d="M55.8,208.8L55.8,208.8c-7.6,1.1-8.1,5.3-7.9,7.3l0,0c0,0.2,0,0.3,0.1,0.5c0,0,0,0,0,0
			c0,0.1,0,0.2,0.1,0.3c0,0,0,0,0,0c0,0,0,0.1,0,0.1c0,0,0,0,0,0c0,0,0,0.1,0,0.1c0,0,0,0,0,0c0,0,0,0,0,0.1c0,0,0,0,0,0
			c0,0,0.1,0.6,0.1,0.6c1.8,0.1,5.5,0.1,9.6-0.5c0,0-0.7-1.8-1.3-3.9C55.9,211.4,55.8,210.3,55.8,208.8z"/>
		<path fill="#D1D2D3" d="M48,217.3c0,0-0.2,1.1,0.3,3c0,0.1,0.1,0.2,0.1,0.3c0.7,2,33.2-3.6,34-5.1c0,0-1.1-1.9-2.4-3.1
			C80,212.4,73.5,215.6,48,217.3"/>
		<path fill="#C9362C" d="M85.6,216.9c-22.8-3.1-19,8.2-19,8.2c21.1,1,31.5-4.8,31.5-4.8c-3-3.7-7.3-15.1-7.3-15.1
			c-3.8,0.8-7.7,0.7-7.7,0.7C83.5,211.3,85.6,216.9,85.6,216.9"/>
		<path fill="#69131D" d="M88.8,219.3C88.8,219.3,88.7,219.3,88.8,219.3l-15.1,1.2c-0.3,0-0.5-0.2-0.5-0.5c0-0.3,0.2-0.5,0.5-0.5
			l14.5-1.2l-2.4-12.5c-0.1-0.3,0.1-0.5,0.4-0.6c0.3-0.1,0.5,0.1,0.6,0.4l2.5,13c0,0.1,0,0.3-0.1,0.4
			C89,219.2,88.9,219.3,88.8,219.3z"/>
		<path fill="#69131D" d="M78.6,220C78.6,220,78.6,220,78.6,220c-0.3,0-0.6-0.2-0.6-0.5l0.1-3.1c0-0.3,0.2-0.5,0.5-0.5
			c0.3,0,0.5,0.2,0.5,0.5l-0.1,3.1C79.1,219.8,78.9,220,78.6,220z"/>
		<path fill="#69131D" d="M83.5,219.7c-0.2,0-0.5-0.1-0.5-0.4l-0.7-2.6c-0.1-0.3,0.1-0.5,0.4-0.6c0.3-0.1,0.5,0.1,0.6,0.4l0.7,2.6
			C84,219.4,83.8,219.7,83.5,219.7C83.5,219.7,83.5,219.7,83.5,219.7z"/>
		<path fill="#FFFFFF" d="M74.1,216.6L74.1,216.6c-7.6,1.1-8.1,5.3-7.9,7.3l0,0c0,0.2,0,0.3,0.1,0.5c0,0,0,0,0,0
			c0,0.1,0,0.2,0.1,0.3c0,0,0,0,0,0c0,0,0,0.1,0,0.1c0,0,0,0,0,0c0,0,0,0.1,0,0.1c0,0,0,0,0,0c0,0,0,0,0,0.1c0,0,0,0,0,0
			c0,0,0.1,0.6,0.1,0.6c1.8,0.1,5.5,0.1,9.6-0.5c0,0-0.7-1.8-1.3-3.9C74.2,219.2,74.2,218.1,74.1,216.6z"/>
		<path fill="#D1D2D3" d="M66.3,225.2c0,0-0.2,1.1,0.3,3c0,0.1,0.1,0.2,0.1,0.3c0.7,2,33.2-3.6,34-5.1c0,0-1.1-1.9-2.4-3.1
			C98.4,220.3,91.8,223.4,66.3,225.2"/>
		<path fill="#C9362C" d="M156.8,207.2c-22.8-3.1-19,8.2-19,8.2c21.1,1,31.5-4.8,31.5-4.8c-3-3.7-7.3-15.1-7.3-15.1
			c-3.8,0.8-7.7,0.7-7.7,0.7C154.7,201.7,156.8,207.2,156.8,207.2"/>
		<path fill="#69131D" d="M159.9,209.6C159.9,209.6,159.9,209.6,159.9,209.6l-15.1,1.2c-0.3,0-0.5-0.2-0.5-0.5
			c0-0.3,0.2-0.5,0.5-0.5l14.5-1.2l-2.4-12.5c-0.1-0.3,0.1-0.5,0.4-0.6c0.3-0.1,0.5,0.1,0.6,0.4l2.5,13c0,0.1,0,0.3-0.1,0.4
			C160.2,209.5,160.1,209.6,159.9,209.6z"/>
		<path fill="#69131D" d="M149.8,210.3C149.8,210.3,149.7,210.3,149.8,210.3c-0.3,0-0.6-0.2-0.6-0.5l0.1-3.1c0-0.3,0.2-0.5,0.5-0.5
			c0.3,0,0.5,0.2,0.5,0.5l-0.1,3.1C150.2,210.1,150,210.3,149.8,210.3z"/>
		<path fill="#69131D" d="M154.6,210.1c-0.2,0-0.5-0.1-0.5-0.4l-0.7-2.6c-0.1-0.3,0.1-0.5,0.4-0.6c0.3-0.1,0.5,0.1,0.6,0.4l0.7,2.6
			C155.1,209.7,155,210,154.6,210.1C154.7,210,154.7,210.1,154.6,210.1z"/>
		<path fill="#69131D" d="M159,199.3C159,199.3,158.9,199.3,159,199.3l-3.1,0.3c-0.3,0-0.5-0.2-0.5-0.5c0-0.3,0.2-0.5,0.5-0.5
			l3.1-0.2c0.3,0,0.5,0.2,0.5,0.5C159.4,199,159.2,199.3,159,199.3z"/>
		<path fill="#69131D" d="M158.8,203.7c0,0-0.1,0-0.1,0l-3.3-0.3c-0.3,0-0.5-0.3-0.5-0.5c0-0.3,0.3-0.5,0.5-0.5l3.3,0.3
			c0.3,0,0.5,0.3,0.5,0.5C159.2,203.5,159,203.7,158.8,203.7z"/>
		<path fill="#FFFFFF" d="M145.5,206.8L145.5,206.8c-7.6,1.1-8.1,5.3-7.9,7.3l0,0c0,0.2,0,0.3,0.1,0.5c0,0,0,0,0,0
			c0,0.1,0,0.2,0.1,0.3c0,0,0,0,0,0c0,0,0,0.1,0,0.1c0,0,0,0,0,0c0,0,0,0.1,0,0.1c0,0,0,0,0,0c0,0,0,0,0,0.1c0,0,0,0,0,0
			c0,0,0.1,0.6,0.1,0.6c1.8,0.1,5.5,0.1,9.6-0.5c0,0-0.7-1.8-1.3-3.9C145.6,209.5,145.5,208.4,145.5,206.8z"/>
		<path fill="#D1D2D3" d="M137.5,215.5c0,0-0.2,1.1,0.3,3c0,0.1,0.1,0.2,0.1,0.3c0.7,2,33.2-3.6,34-5.1c0,0-1.1-1.9-2.4-3.1
			C169.5,210.6,163,213.7,137.5,215.5"/>
		<path fill="#677476" d="M70.2,172.1c0,0,1.6,19.7,7,34.2L65,207.2c0,0-3.9-21.2-1.2-34.1L70.2,172.1z"/>
		<path fill="#677476" d="M88.4,178.8c0,0,1.6,19.7,7,34.2l-12.2,0.9c0,0-3.9-21.2-1.2-34.1L88.4,178.8z"/>
		<g>
			<path fill="#C9362C" d="M121.3,212.6c-22.8-3.1-19,8.2-19,8.2c21.1,1,31.5-4.8,31.5-4.8c-3-3.7-7.3-15.1-7.3-15.1
				c-3.8,0.8-7.7,0.7-7.7,0.7C119.2,207,121.3,212.6,121.3,212.6"/>
			<path fill="#69131D" d="M124.5,215C124.5,215,124.5,215,124.5,215l-15.1,1.2c-0.3,0-0.5-0.2-0.5-0.5s0.2-0.5,0.5-0.5l14.5-1.2
				l-2.4-12.5c-0.1-0.3,0.1-0.5,0.4-0.6c0.3-0.1,0.5,0.1,0.6,0.4l2.5,13c0,0.1,0,0.3-0.1,0.4C124.7,214.9,124.6,214.9,124.5,215z"/>
			<path fill="#69131D" d="M114.4,215.7C114.3,215.7,114.3,215.7,114.4,215.7c-0.3,0-0.6-0.2-0.6-0.5l0.1-3.1c0-0.3,0.2-0.5,0.5-0.5
				c0.3,0,0.5,0.2,0.5,0.5l-0.1,3.1C114.8,215.4,114.6,215.6,114.4,215.7z"/>
			<path fill="#69131D" d="M119.2,215.4c-0.2,0-0.5-0.1-0.5-0.4l-0.7-2.6c-0.1-0.3,0.1-0.5,0.4-0.6c0.3-0.1,0.5,0.1,0.6,0.4l0.7,2.6
				C119.7,215,119.5,215.3,119.2,215.4C119.2,215.4,119.2,215.4,119.2,215.4z"/>
			<path fill="#FFFFFF" d="M109.8,212.3L109.8,212.3c-7.6,1.1-8.1,5.3-7.9,7.3l0,0c0,0.2,0,0.3,0.1,0.5c0,0,0,0,0,0
				c0,0.1,0,0.2,0.1,0.3c0,0,0,0,0,0c0,0,0,0.1,0,0.1c0,0,0,0,0,0c0,0,0,0.1,0,0.1c0,0,0,0,0,0c0,0,0,0,0,0.1c0,0,0,0,0,0
				c0,0,0.1,0.6,0.1,0.6c1.8,0.1,5.5,0.1,9.6-0.5c0,0-0.7-1.8-1.3-3.9C109.9,214.9,109.9,213.8,109.8,212.3z"/>
			<path fill="#D1D2D3" d="M102,220.8c0,0-0.2,1.1,0.3,3c0,0.1,0.1,0.2,0.1,0.3c0.7,2,33.2-3.6,34-5.1c0,0-1.1-1.9-2.4-3.1
				C134.1,215.9,127.6,219.1,102,220.8"/>
			<path fill="#677476" d="M124.5,175.3c0,0,1.6,19.7,7,34.2l-12.2,0.9c0,0-3.9-21.2-1.2-34.1L124.5,175.3z"/>
		</g>
		<path fill="#677476" d="M159.1,163.7c0,0,2.3,25.5,7.7,39.9l-12.2,0.9c0,0-4.6-26.9-1.9-39.9L159.1,163.7z"/>
		<g>
			<g>
				<path fill="#485052" d="M78.6,167.2c0.2,1,0.3,1.9,0.4,2.9c0.1,1,0.2,1.9,0.4,2.9c0.2,1.9,0.4,3.8,0.6,5.7l0,0.5l-0.5,0
					c-1.9,0.1-3.8,0.2-5.7,0.2l-0.4,0l-0.1-0.4c-0.3-1.8-0.7-3.6-0.9-5.5c-0.3-1.8-0.6-3.7-0.8-5.5c0.5,1.8,1,3.6,1.4,5.4
					c0.4,1.8,0.8,3.6,1.2,5.4l-0.5-0.4c1.9-0.1,3.8-0.2,5.7-0.2l-0.4,0.5c-0.1-1.9-0.3-3.8-0.4-5.8c0-1-0.1-1.9-0.1-2.9
					C78.7,169.1,78.6,168.2,78.6,167.2z"/>
			</g>
			<polygon fill="#4B5461" points="60.8,171.6 105.2,164.3 103.5,158.2 60.3,164.9 			"/>
			<polygon fill="#E2E5E7" points="68.9,163.3 70.7,170 80.1,168.6 80.6,161.7 			"/>
			<polygon fill="#677476" points="98.3,166 96.6,166.4 95.4,159.1 97.9,158.7 			"/>
			<polygon fill="#677476" points="87.9,167.4 86.3,167.9 85,160.8 87.8,160.3 			"/>
			<polygon fill="#677476" points="65.3,171 63.5,171.5 61.9,164.4 64.2,164.2 			"/>
		</g>
		<path fill="#8DD3D5" d="M28,136.6c0,0,0.5-2.3,0.4-5.8c-0.1-3.4-1.7-6.6-3.3-6.3c-1.5,0.3-0.9,10-0.9,10S14.5,124,12,127.4
			c-1.2,1.7,5.5,7.6,5.5,7.6s-11.4-1.4-11.3,1.6c0.1,3.1,11.7,3.2,11.7,3.2s-9.4,4.1-7.5,5.8c1.9,1.7,11.2-3.4,11.2-3.4
			s3,2.1,5.5,4.2l4.1-6.8C29.8,138.8,28,136.6,28,136.6z"/>
		<path fill="#F1F3F4" d="M59,116.4c0,0-2.6,20.8-14,23.3c-5.8,1.3-13-4.1-13-4.1l-7.5,12.5c0,0,15.3,6.5,25.5,2.1
			c11.7-5.1,12.8-23.8,12.8-23.8L59,116.4z"/>
		<path fill="#F1F3F4" d="M93.3,111.1c0,0,20.2,5.6,21.1,17.2c0.4,6-5.9,12.3-5.9,12.3l11.3,9.2c0,0,8.6-14.2,5.7-24.9
			c-3.4-12.3-21.7-16-21.7-16L93.3,111.1z"/>
		<path fill="#F1F3F4" d="M86.1,188.7c0,0,27.9-1.9,41.2-3.8c36.3-5.1,40.8-12.4,40.8-12.4s-5.3-8.1-6.4-11.2
			c-3.4-9.4-1.5-15.3-4.9-21.4c-3.4-6.1-13.5-5.6-18.7-4.8c-5.2,0.8-15.9,4-15.9,4c-4.2-2.6-7.8-0.9-7.8-0.9
			c-7.5-17.7-12.7-31.4-12.7-31.4s-4.4,5-19.8,5.8L86.1,188.7z"/>
		<path fill="#F1F3F4" d="M63.8,115.4c-8.3,1.4-9.7-0.7-9.7-0.7c0,0.4,4.1,15.4,4.1,15.8c2.3,24.6-6.4,57-6.4,57
			c6.8,1.1,16.6,0.4,16.6,0.4L63.8,115.4z"/>
		<path fill="#CAD5DA" d="M104.8,179.9l-11.8-3.5L92.2,159l21.7-1.4l0.7,18.1L104.8,179.9z M94,175.7l10.7,3.2l8.7-3.8l-0.6-16.4
			l-19.6,1.3L94,175.7z"/>
		
			<rect x="92.9" y="165" transform="matrix(0.9979 -6.417996e-02 6.417996e-02 0.9979 -10.4114 6.958)" fill="#CAD5DA" width="20.4" height="1"/>
		<path fill="#CAD5DA" d="M56.2,169.5c-0.3,0-0.5-0.1-0.6-0.4c0-0.3,0.1-0.5,0.4-0.6l8.1-1.5c0.3,0,0.5,0.1,0.6,0.4
			c0,0.3-0.1,0.5-0.4,0.6L56.2,169.5C56.2,169.5,56.2,169.5,56.2,169.5z"/>
		<path fill="#CAD5DA" d="M161.6,161.5c0,0-0.3-0.6-0.8-1.7c-0.2-0.5-0.5-1.2-0.7-2c-0.3-0.8-0.5-1.7-0.8-2.6
			c-0.2-1-0.5-2.1-0.6-3.2c-0.2-1.1-0.4-2.3-0.5-3.6c-0.2-1.2-0.4-2.5-0.7-3.7c-0.3-1.2-0.7-2.4-1.3-3.5l-0.2-0.4l-0.1-0.2l0-0.1
			c0-0.1,0,0.1,0,0.1l0,0l0,0l-0.1-0.1l-0.5-0.8c-0.4-0.4-0.7-0.8-1.2-1.2c-0.4-0.4-1-0.7-1.4-1c-0.5-0.3-1-0.5-1.6-0.7
			c-1.1-0.4-2.2-0.7-3.3-0.9c-1.1-0.2-2.1-0.3-3.1-0.4c-1-0.1-1.9-0.1-2.7-0.1c-0.8,0-1.5,0-2.1,0c-1.2,0-1.8,0-1.8,0s0.2,0,0.5-0.1
			c0.3-0.1,0.7-0.2,1.3-0.3c0.6-0.1,1.3-0.3,2.1-0.4c0.8-0.1,1.7-0.2,2.8-0.2c1-0.1,2.1,0,3.3,0.1c1.2,0.1,2.4,0.3,3.7,0.7
			c1.3,0.4,2.6,1,3.7,1.9c0.6,0.4,1.1,1,1.6,1.6l0.6,0.8l0.1,0.1l0.1,0.1l0,0.1l0.1,0.2l0.2,0.5c0.6,1.3,1.1,2.6,1.4,3.9
			c0.3,1.3,0.4,2.6,0.6,3.9c0.1,1.3,0.2,2.5,0.3,3.6c0.1,1.1,0.2,2.2,0.3,3.2c0.1,1,0.2,1.9,0.4,2.7c0.1,0.8,0.3,1.5,0.4,2.1
			C161.4,160.8,161.6,161.5,161.6,161.5z"/>
		<path fill="#CAD5DA" d="M59.5,182.3l-5.6-1.1c-0.3-0.1-0.4-0.3-0.4-0.6c0.1-0.3,0.3-0.4,0.6-0.4l5.2,1.1l5.9-4.4L63,161.6
			l-5.9,1.3c-0.3,0-0.5-0.1-0.6-0.4c0-0.3,0.1-0.5,0.4-0.6l6.9-1.4l2.5,16.9L59.5,182.3z"/>
		<g>
			<path fill="#8DD3D5" d="M104.1,141.3c-3.4,0.2-6.5,1.9-6.2,3.4c0.3,1.4,8.5,0.8,9.9,0.7l2-3.9
				C109.3,141.4,107.2,141.1,104.1,141.3z"/>
			<path fill="#8DD3D5" d="M115.8,147.8c0,0,2-3,4.1-5.6l-6.9-3.9c-0.9,1.4-3.1,3.2-3.1,3.2s0,0-0.1,0l-2,3.9c0.1,0,0.2,0,0.2,0
				s-0.1,0.1-0.4,0.4l-0.5,0.9l0.5-0.9c-1.9,1.8-9.6,9.8-6.5,12c1.7,1.2,7.5-5.6,7.5-5.6s-1.2,11.4,1.9,11.2c3.1-0.2,3-11.8,3-11.8
				s2.9,8.2,4.6,6.3C119.7,155.9,115.8,147.8,115.8,147.8z"/>
		</g>
		<g>
			<polygon fill="#3E4093" points="72.6,125.2 77.2,131.5 73.3,136.1 68.7,133 			"/>
			<polygon fill="#3E4093" points="73,134.2 81.2,147.3 75.3,159.4 66.9,149.9 			"/>
			
				<ellipse transform="matrix(0.9927 -0.121 0.121 0.9927 -15.623 9.7044)" fill="#F1F3F4" cx="72.1" cy="133.5" rx="0.6" ry="0.7"/>
			
				<ellipse transform="matrix(0.9927 -0.121 0.121 0.9927 -15.3467 10.0124)" fill="#F1F3F4" cx="74.8" cy="131.4" rx="0.6" ry="0.7"/>
			<g>
				<defs>
					<polygon id="SVGID_5_" points="73,134.2 81.2,147.3 75.3,159.4 66.9,149.9 					"/>
				</defs>
				<clipPath id="SVGID_2_">
					<use xlink:href="#SVGID_5_"  overflow="visible"/>
				</clipPath>
				<g clip-path="url(#SVGID_2_)">
					<g>
						<path fill="#FFD943" d="M77.8,143.9c0.1,0,0.1,0.1,0.2,0.1C77.9,143.9,77.9,143.9,77.8,143.9z"/>
						<path fill="#FFD943" d="M78,144c0,0,0.1,0.1,0.1,0.1c0,0,0,0,0,0C78.1,144,78.1,144,78,144z"/>
						<path fill="#FFD943" d="M74.1,146.4c0,0,0,0.1,0,0.1c0,0,0,0,0,0C74.1,146.5,74.1,146.5,74.1,146.4z"/>
						<path fill="#FFD943" d="M77.7,143.8C77.6,143.8,77.6,143.8,77.7,143.8c0,0,0.1,0,0.1,0.1C77.7,143.8,77.7,143.8,77.7,143.8z"
							/>
						<path fill="#FFD943" d="M74.1,146C74.1,146,74.1,146,74.1,146C74.1,146,74.1,146,74.1,146C74.1,146,74.1,146,74.1,146z"/>
						<path fill="#FFD943" d="M79.2,146.1C79.2,146.1,79.2,146.1,79.2,146.1C79.2,146.1,79.2,146.1,79.2,146.1
							C79.2,146.1,79.2,146.1,79.2,146.1z"/>
						<path fill="#FFD943" d="M75.7,148.6c1,0.4,2.2,0.1,2.9-0.9c0.3-0.4,0.5-0.8,0.5-1.3c-0.3,0.2-1,0.8-1.7,1.3
							C76.8,148.1,76.2,148.4,75.7,148.6z"/>
						<path fill="#FFD943" d="M77.4,146.3c-0.1,0-0.1,0.1-0.2,0.1C77.3,146.3,77.3,146.3,77.4,146.3z"/>
						<path fill="#FFD943" d="M74.6,147.8c0.1,0,0.2-0.1,0.2-0.1C74.8,147.7,74.7,147.7,74.6,147.8
							C74.6,147.8,74.6,147.8,74.6,147.8z"/>
						<path fill="#FFD943" d="M74.1,146.4c0,0,0,0.1,0,0.1c0,0.3,0.2,0.7,0.3,1c0.5-0.2,2.7-1.3,4.3-2.8c-0.2-0.2-0.3-0.5-0.6-0.7
							c0,0,0,0,0,0c0,0,0,0,0,0c0,0-0.1-0.1-0.1-0.1c0,0,0,0,0,0c-0.1,0-0.1-0.1-0.2-0.1c0,0,0,0-0.1,0c0,0-0.1,0-0.1-0.1
							c-1-0.4-2.3-0.1-3,0.8c-0.3,0.4-0.5,0.9-0.5,1.3c0,0,0,0,0,0C74.1,146.1,74.1,146.3,74.1,146.4z"/>
						<path fill="#FFD943" d="M79.1,143.2c0,0-0.1,0-0.1,0c-0.4,0.1-0.7,0.3-1.1,0.4c0.2,0.1,0.4,0.2,0.5,0.3
							c0.3-0.1,0.6-0.2,0.9-0.3c0.4-0.1,0.6-0.1,0.7,0c0.1,0.2-0.2,0.6-0.9,1.2c-0.4,0.4-0.9,0.8-1.6,1.2c0,0,0,0,0,0
							c-0.1,0-0.1,0.1-0.2,0.1c-0.7,0.4-1.5,0.9-2.3,1.3c-0.1,0-0.2,0.1-0.2,0.1c-0.1,0.1-0.3,0.1-0.4,0.2c-0.8,0.3-1.2,0.3-1.3,0.1
							c0-0.1,0-0.3,0.2-0.6c0.1-0.1,0.2-0.3,0.4-0.5c0,0,0,0,0,0c0.1-0.1,0.3-0.2,0.4-0.4c0-0.1-0.1-0.3-0.1-0.6
							c-0.2,0.2-0.4,0.3-0.6,0.5c-1,0.9-1.8,1.9-1.5,2.4c0.4,0.6,1.9,0.2,3.6-0.6c0.3-0.1,0.6-0.3,0.9-0.4c0.7-0.4,1.6-1,2.8-1.9
							c0,0,0,0,0.1,0c0.4-0.3,0.8-0.7,1-1c0.1-0.1,0.2-0.3,0.4-0.4c0.4-0.5,0.7-1.1,0.5-1.4l0,0C80.8,142.8,79.8,143,79.1,143.2z"/>
					</g>
					<g>
						
							<ellipse transform="matrix(0.9927 -0.121 0.121 0.9927 -16.9555 9.4663)" fill="#F1F3F4" cx="69.5" cy="144.3" rx="0.6" ry="0.7"/>
						
							<ellipse transform="matrix(0.9927 -0.121 0.121 0.9927 -17.8315 10.1181)" fill="#F1F3F4" cx="74.4" cy="151.9" rx="0.6" ry="0.7"/>
						
							<ellipse transform="matrix(0.9927 -0.121 0.121 0.9927 -18.4779 10.2384)" fill="#F1F3F4" cx="75.1" cy="157.3" rx="0.6" ry="0.7"/>
						
							<ellipse transform="matrix(0.9927 -0.121 0.121 0.9927 -16.4557 10.3113)" fill="#F1F3F4" cx="76.7" cy="140.6" rx="0.6" ry="0.7"/>
						
							<ellipse transform="matrix(0.9927 -0.121 0.121 0.9927 -17.6944 10.664)" fill="#F1F3F4" cx="79" cy="151" rx="0.6" ry="0.7"/>
						
							<ellipse transform="matrix(0.9927 -0.121 0.121 0.9927 -17.4593 9.4346)" fill="#F1F3F4" cx="68.9" cy="148.5" rx="0.6" ry="0.7"/>
						<polygon fill="#FFD943" points="70.9,139.8 70.3,137.8 72.3,138.5 74,137.4 73.7,139.5 75.5,140.7 73.5,141.1 72.8,143.2 
							71.8,141.3 69.6,141.4 						"/>
						<path fill="#FFD943" d="M71.7,154.3c-1.3-1.1-1.5-2.8-1-4c-0.4,0.2-0.7,0.5-0.9,0.9c-1.1,1.5-0.8,3.6,0.7,4.6
							c1.5,1.1,3.5,0.7,4.6-0.8c0.3-0.4,0.4-0.8,0.6-1.2C74.6,154.7,72.9,155.3,71.7,154.3z"/>
					</g>
				</g>
			</g>
		</g>
		<path fill="#FFD943" d="M73.7,128.8c0-0.2-0.6,2.3-0.6,2.3l-1.5-2L73.7,128.8z"/>
		<g>
			<g>
				<path fill="#E2E5E7" d="M152.2,43.3c2.4-13.8,4.2-39.6,4.2-39.6s-21.1,3.5-42.2,8.6c0.6-1.5,1.1-3.2,1.2-4.8
					c0.2-4.3-1.8-6.3-1.8-6.3s-5.8,5.5-9.9,8.9c-2.8,2.3-11.3,7.2-16.5,10.1c-4.8,1.8-8.9,3.6-11.7,5.5
					C58.3,37.1,54.9,50.9,54.9,50.9l1-10.2c0,0-11.5,2.6-17.5,15.5c-6,12.9,1,20.7,1,20.7c36.8-10.2,54.6-0.7,53.1,28.7
					c0,0,4.9,6.1,18.3,11.1c13.4,5,25.3-3.1,25.3-3.1s-7.4-2.3-14.1-7.4c-0.5-0.4-0.9-0.7-1.3-1c1-0.2,1.9-0.3,3-0.5
					c14-2.8,19.8-16,19.8-16s-5.1,1.4-11.7,1.4C150.1,77.8,150.4,53.4,152.2,43.3z"/>
			</g>
			<path fill="#7EA6B3" d="M111.4,20.6c-1.4,0.2-2.7,0.5-4.1,0.8c-1.3,0.3-2.7,0.7-4,1.2c-7.2,2.5-13.6,6.5-19.5,11.3
				c-6.8,5.5-11.4,13.7-13.1,22.3c-0.3,1.3-0.5,2.7-0.6,4c-0.1,1.3-0.2,2.7-0.2,4l-1.9-0.4c0.8-1.3,1.7-2.4,2.6-3.6
				c0.9-1.1,1.9-2.2,2.9-3.3c7.9-8.2,17.5-14.6,28.1-18.9c8.2-3.3,16.6-4.8,25.3-5.1c-8.4,0.3-16.8,2.8-24.5,6.2
				c-10.2,4.6-19.8,11-27.5,19.2c-0.9,1-1.9,2.1-2.7,3.2c-0.9,1.1-1.7,2.2-2.4,3.3l-1.8,2.9L68,64.3c0-1.5,0.1-2.9,0.2-4.3
				c0.2-1.4,0.4-2.8,0.7-4.2c2-9.7,7.8-18.4,15.8-24.3c6.6-4.9,14.4-8.8,22.6-10.3C108.6,20.9,110,20.7,111.4,20.6z"/>
			<g>
				<path fill="#8DD3D5" d="M1.2,77c0.9-2.1,16.7-1.7,28.9,3.3C42.3,85.2,44.6,91,44.6,91l-0.3,9.5c0,0-14.3,2.1-24.7-1.8
					C9.1,94.8,0.2,79.1,1.2,77z"/>
				<path fill="#00AFBA" d="M31.1,96.3c0.1-5.4,4.1-4.3,4.1-4.3s-8.7-7.3-19.9-9.9C10.5,81,5.9,80.5,2,80.3
					c2.4,5.4,9.5,15.4,17.5,18.4c4.2,1.6,8.9,2.2,13.2,2.3C31.7,99.7,31,98.1,31.1,96.3z"/>
			</g>
			<g>
				<path fill="#8DD3D5" d="M155.5,58.1c-2.3-1.9-24.5,2.9-39.3,11.2c-14.9,8.3-15.6,27.4-15.6,27.4l5.1-3.5c0,0,21.3-1.9,34.2-8.6
					C152.8,77.9,157.9,60,155.5,58.1z"/>
				<path fill="#00AFBA" d="M122.4,85.5c-2.7-5.3-7.9-3.1-7.9-3.1s8.8-9.6,23.5-15.3c6.1-2.4,12.5-4.2,17.9-5.4
					c-0.8,6-6.1,17.8-16,23c-5.2,2.7-11.6,4.6-17.6,5.9C123.1,89,123.3,87.2,122.4,85.5z"/>
			</g>
			<path fill="#8DD3D5" d="M36.8,74.5c0,0,11.2-9.1,41.9-11.1c30.7-1.9,37.8,7.3,37.8,7.3s-12.9,52.4-45.3,51.3
				C38.9,121.1,36.8,74.5,36.8,74.5z"/>
			<g>
				<path fill="#FFFFFF" d="M57.7,93.3c0.2,3.7-2.4,6.8-5.7,7c-3.3,0.2-6.2-2.7-6.4-6.4c-0.2-3.7,2.4-6.8,5.7-7
					C54.7,86.7,57.6,89.6,57.7,93.3z"/>
				<path fill="#00313B" d="M56.1,94.1c0.1,1.5-1,2.7-2.3,2.8c-1.3,0.1-2.5-1.1-2.5-2.5c-0.1-1.5,1-2.7,2.3-2.8
					C54.9,91.5,56,92.6,56.1,94.1z"/>
				<path fill="#FFFFFF" d="M91.6,88.7c0.2,3.7-2.4,6.8-5.7,7c-3.3,0.2-6.2-2.7-6.4-6.4c-0.2-3.7,2.4-6.8,5.7-7
					C88.6,82.1,91.4,85,91.6,88.7z"/>
				<path fill="#00313B" d="M89.4,90c0.1,1.5-1,2.7-2.3,2.8c-1.3,0.1-2.5-1.1-2.5-2.5c-0.1-1.5,1-2.7,2.3-2.8
					C88.2,87.4,89.3,88.5,89.4,90z"/>
			</g>
			<path fill="#FFFFFF" d="M62.1,81.5c0,0,1.2-3.1-2.3-8.3C56.3,67.8,46.6,65,46.6,65l0.7,3.8c0,0-4.4-1.4-10.4-0.1
				c-5.9,1.4-8.8,3.7-8.8,3.7l5.7,13L62.1,81.5z"/>
			<path fill="#FFFFFF" d="M72.9,80.4c0,0-2.1-2.6-0.2-8.7c1.8-6.1,10.2-11.6,10.2-11.6l0.4,3.8c0,0,3.8-2.7,9.9-3.1
				c6.1-0.4,9.5,0.9,9.5,0.9l-1.6,14.1L72.9,80.4z"/>
			<path fill="#C9E0E4" d="M36.5,72.6c1.2,0,2.4,0.2,3.6,0.6c1.7,0.6,3.3,1.6,4.7,2.8c0.7,0.6,1.4,1.3,2,2c0.2,0.3,1.5,2.2,1.7,2.2
				l-1.3,0.1c0.9-2.2,2.2-4.7,2.3-7.1c0-0.8,0-1.7-0.3-2.5c0.5,0.7,0.8,1.6,0.9,2.5c0.4,2.6-0.6,5.4-1.6,7.7
				c-0.1,0.4-0.3,0.9-0.5,1.1c-1-1.2-1.7-2.5-2.8-3.6c-1.6-1.8-3.3-3.3-5.4-4.5C38.8,73.4,37.7,72.9,36.5,72.6z"/>
			<path fill="#C9E0E4" d="M94.2,67.6c-2.1,0.9-4.1,2.2-5.7,3.8c-0.8,0.8-1.6,1.7-2.2,2.6c-0.7,0.9-1.2,2-1.9,2.9l-0.7,1.2L83.1,77
				c-0.9-1.6-1.7-3.3-2.1-5.1c-0.2-0.8-0.3-1.7-0.3-2.5c0-0.4,0.1-0.9,0.2-1.3c0.1-0.4,0.4-0.8,0.4-1.1c-0.6,3.4,1.4,6.5,3,9.4
				c-0.4,0-0.9,0-1.3,0c0.3-0.5,0.6-1.1,0.9-1.6C86.3,71.2,90,68,94.2,67.6z"/>
			<path fill="#00313B" d="M66.3,88.5c-2.6,0.4-4.1,2.9-4.1,2.9l0.8,6.1l9.5-1l0.4-7.5C73,88.9,68.9,88.1,66.3,88.5z"/>
			<polygon opacity="0.3" fill="#A5DCDF" points="33.8,85.4 40.4,82.7 59.9,81.8 63.6,102.7 49.9,106.9 35.2,106.4 			"/>
			<polygon opacity="0.3" fill="#A5DCDF" points="73.7,80 80.3,77.3 99.7,76.4 103.5,97.3 89.8,101.5 75.1,101 			"/>
			<path fill="#00313B" d="M31.9,83.1c-1.1,0.4-1.9,1.4-1.8,2.4c0.9,7.1,1.8,14.2,2.7,21.3c0.1,0.9,1.1,1.8,2.3,1.9
				c10,0.7,20.3-0.6,29.8-3.7c1.1-0.4,1.9-1.5,1.8-2.4c-0.9-7.1-1.8-14.2-2.7-21.3c-0.1-0.9-1.1-1.8-2.3-1.9
				C51.6,78.6,41.4,79.9,31.9,83.1z M61.1,99.9c0.1,1-0.7,2-1.8,2.3c-6.4,1.4-13,2.2-19.5,2.5c-1.1,0-2.2-0.8-2.3-1.8
				c-0.6-5-1.2-9.9-1.9-14.9c-0.1-1,0.7-2,1.8-2.3c6.4-1.4,13-2.2,19.5-2.4c1.1,0,2.2,0.8,2.3,1.8C59.9,90,60.5,95,61.1,99.9z"/>
			<path fill="#00313B" d="M71.7,77.6C70.6,78,69.9,79.1,70,80c0.9,7.1,1.8,14.2,2.7,21.3c0.1,0.9,1.1,1.8,2.3,1.9
				c10,0.7,20.3-0.6,29.8-3.7c1.1-0.4,1.9-1.4,1.8-2.4c-0.9-7.1-1.8-14.2-2.7-21.3c-0.1-0.9-1.1-1.8-2.3-1.9
				C91.5,73.2,81.3,74.5,71.7,77.6z M101,94.5c0.1,1-0.7,2-1.8,2.3c-6.4,1.4-13,2.2-19.5,2.5c-1.1,0-2.2-0.8-2.3-1.8
				c-0.6-5-1.2-9.9-1.9-14.9c-0.1-1,0.7-2,1.8-2.3c6.4-1.4,13-2.2,19.5-2.4c1.1,0,2.2,0.8,2.3,1.8C99.7,84.6,100.4,89.5,101,94.5z"
				/>
			<g>
				<path fill="#E2E5E7" d="M41.2,112.5c0,0,6.3-5.6,15.7-8c9.4-2.4,25.8-4.8,34.6-1.7c8.8,3.1,18.3,14.7,16.4,28.6l-2.4-0.3
					L94,129.7l-4.2-10.3l-0.4,8.5l-8.4,0.4c0,0-1.8-4-1.7-6.8c0,0-2.1,5.5-1.9,6.8l-15.3,2.9c0,0-1.8-5.9-1.2-10.2c0,0-4,7-3.4,12.2
					l-13.9,5.3c0,0-4.9-7.2-2.4-16.4c0,0-4.2,5.2-4.3,8.3C36.8,130.5,34.6,122.8,41.2,112.5z"/>
				<path fill="#7EA6B3" d="M63.2,104.7c-0.8,0-2.3,1.4-2.9,1.9c-1.4,1.1-2.7,2.3-3.9,3.7c-1.8,2.2-3.3,4.7-4.6,7.2
					c-0.6,1.2-1.2,2.3-1.8,3.5c-0.2,0.4-0.9,1.3-0.9,1.8c0,0,0.1-1.5,0.7-3.7c1.7-6.1,5.8-12.8,12.5-14.1
					C62.8,104.7,63.2,104.7,63.2,104.7z"/>
				<path fill="#7EA6B3" d="M68.3,105c-0.7,0.3-1.4,2.3-1.7,2.9c-0.7,1.5-1.2,3-1.5,4.6c-0.8,3.4-0.8,7-1.2,10.4
					c0-0.4-0.4-1-0.5-1.4c-0.6-2-0.9-4.1-0.8-6.2c0.2-3.7,1.7-7.9,4.9-9.9C68,105.1,68.3,105,68.3,105z"/>
				<path fill="#7EA6B3" d="M71.7,104.9c0,0,0.4-0.1,1-0.1c0.7,0,1.6,0,2.8,0.3c3.7,0.8,6.9,3,9.4,5.8c1.3,1.4,2.2,3,3.1,4.7
					c0.5,0.8,0.9,1.7,1.3,2.6c0.1,0.3,0.2,0.9,0.4,1.1c-4.3-4.8-8.4-10.3-14.5-13C73.2,105.2,71.7,104.9,71.7,104.9z"/>
				<path fill="#7EA6B3" d="M67.8,104.9c0,0,0.3,0,0.8,0.2c3.3,1,5.6,3.8,7,6.8c0.7,1.5,1.2,3.2,1.4,4.9c0.1,0.8,0.2,1.7,0.2,2.5
					c0,0.4-0.2,1.3-0.1,1.6c-2.1-4.8-3.5-10-7.1-13.9C68.8,105.7,67.8,104.9,67.8,104.9z"/>
				<path fill="#00AFBA" d="M77.4,100.7c0.2,4-3.3,8.3-8.3,8.5c-5,0.2-9.7-3.6-9.9-7.7c-0.2-4,3.7-7.5,8.8-7.8
					C73,93.5,77.2,96.6,77.4,100.7z"/>
			</g>
		</g>
	</g>
</g>
</svg>
