<?xml version="1.0" encoding="utf-8"?>
<!-- Generator: Adobe Illustrator 23.0.6, SVG Export Plug-In . SVG Version: 6.00 Build 0)  -->
<svg version="1.1" id="headmaster" xmlns="http://www.w3.org/2000/svg" xmlns:xlink="http://www.w3.org/1999/xlink" x="0px" y="0px"
	 viewBox="0 0 414 414" enable-background="new 0 0 414 414" xml:space="preserve" width="414" height="414" preserveAspectRatio="none">
<g>
	<path fill="#D44F27" d="M59.6,31c0,0,52.8-15.7,167.9,73c115.1,88.7,80.1,142.2,80.1,142.2s-23.8,11.7-47,25.3
		c-26.9,15.8-30.6,47.4-30.6,47.4s-29.1-26-48.3-13.9c-16.8,10.6-13.4,22.4-13.4,22.4L131,299.6c0,0,14.8-57.2-9.3-134.1
		C97.5,88.7,59.6,31,59.6,31z"/>
	<g>
		<g>
			<path fill="#F69320" d="M180.8,2.6c0,0,75.6-2,148.9,98.1c50.2,68.5,67.1,181.2,67.1,181.2l-59.2-68.9l-125.8,6.8l-47.9,77.7
				l-23.7-64.6c0,0,46.5-33.2,66.4-107.5C225.8,53.7,180.8,2.6,180.8,2.6z"/>
			<path fill="#97D6D4" d="M220,35.9c0,0,42.3,7.2,104.9,85.8c41.7,52.3,71.8,160.2,71.8,160.2s-39.4-33.3-75.4-22.5
				c-35.3,10.5-52.2,51.1-52.2,51.1s-20.3-45.9-58.6-38.3c-38.3,7.6-42.2,39.6-42.2,39.6l-23.6-66.8c0,0,48.7-35.6,72.8-110.3
				C236.3,76.1,220,35.9,220,35.9z"/>
			<g>
				<path fill="#228DBB" d="M250.6,82.4c3.5,2.9,6.3,6.5,8.9,10.2c2.5,3.8,4.7,7.8,6.7,11.9c3.8,8.3,6.7,16.9,8.8,25.8
					c2.1,8.8,3.5,17.8,4.3,26.9c0.3,2.3,0.4,4.5,0.5,6.8c0.1,2.3,0.3,4.5,0.4,6.8l0.2,6.8c0,2.3,0,4.5,0,6.8
					c-0.1,18.1-1.8,36.2-4.5,54.1c-1.3,8.9-3,17.8-4.8,26.7c-1,4.4-1.9,8.8-3,13.2c-1.1,4.4-2.2,8.8-3.3,13.1
					c0.8-4.4,1.6-8.9,2.4-13.3c0.8-4.4,1.5-8.9,2.2-13.3l0.6-3.3l0.5-3.3l1-6.7c0.7-4.4,1.2-8.9,1.8-13.4c1.1-8.9,2-17.9,2.7-26.8
					c0.3-4.5,0.6-9,0.8-13.4l0.2-6.7l0.1-3.4l0-3.4c0.2-9-0.3-17.9-1-26.9c-0.2-2.2-0.4-4.5-0.6-6.7l-0.8-6.7l-1-6.6l-1.2-6.6
					c-1.8-8.8-4.3-17.4-7.7-25.7c-1.7-4.1-3.6-8.2-5.9-12c-1.1-1.9-2.4-3.8-3.7-5.6C253.7,85.7,252.3,84,250.6,82.4z"/>
			</g>
		</g>
		<path fill="#F69320" d="M214.6,237.9c-0.9-2-5.3-5.1-20.3-9.1c-27.5-7.4-59.4-1.3-59.4-1.3l7.6,15.7c18.4-5.5,38.2-6.3,57-1.1
			c0,0-16.2,16.8-27,28.3c5.6,4,16.8,10.5,16.8,10.5S215.3,239.5,214.6,237.9z"/>
		<path fill="#228DBB" d="M135.3,227.3c11.5-1.6,23.1-2.9,33.6-2.1l-1.3,14.7l-29.6,4l-2.6-13.9L135.3,227.3z"/>
		<g>
			<path fill="#014C78" d="M161.7,225.5c0.3,1.2,0.4,2.5,0.5,3.7c0.1,1.2,0.1,2.5,0,3.7c0,1.2-0.1,2.5-0.3,3.7
				c-0.1,1.2-0.4,2.5-0.7,3.7c-0.3-1.2-0.4-2.5-0.5-3.7c-0.1-1.2-0.1-2.5,0-3.7c0-1.2,0.1-2.5,0.3-3.7
				C161.1,227.9,161.3,226.7,161.7,225.5z"/>
		</g>
		<path fill="#D44F27" d="M172.5,308.6c0,0,19,26.3,40.3,32.5c21.3,6.2,83.6-9.2,99.6,0.5c6.9,4.2-62.2,27.9-92.5,34.8
			c-62.3,14.1-98.7-39.8-98.7-39.8L172.5,308.6z"/>
		<path fill="#F69320" d="M122.6,81.4c0,0,18.3,47,17.1,75.9c-1.2,29.5-2.1,79.9-2.1,79.9l-10.4,14.5l-16.1-12c0,0-2-9.1-32.8-48.9
			C47.7,151,41.8,99.9,41.8,99.9S53.9,91.8,80,84.8C106.1,77.7,122.6,81.4,122.6,81.4z"/>
		<polygon fill="#228DBB" points="126.1,241.1 125.9,241.4 125.6,241.3 		"/>
		<path fill="#603B17" d="M172.7,298.3c1.3,2.8,2.6,5.5,3.8,8.3l-68.8,14.6c0.4-3.1,0.7-6.2,1.1-9.2L172.7,298.3z"/>
		<path fill="#228DBB" d="M107.7,233.2l17.9,8.6l0.3-0.3l0.4,0.2l12.8-15.1c0,0,17.2,36.4,33.6,71.8l-63.9,13.6
			C113.5,265.8,107.7,233.2,107.7,233.2z"/>
		<path fill="#F69320" d="M120.1,140.9c0,0,1.5,34.1-42.3,39.8c-39.5,5.1-60.5-4.6-60.5-4.6s-0.7-27.7,21.9-34.2
			c22.5-6.6,48.7,9.8,48.7,9.8L120.1,140.9z"/>
		<path fill="#F69320" d="M186.5,112c0,0-10.1-0.9-26.3,9.3c-16.2,10.2-28.3,24.4-28.3,24.4l-1.9,13.6c0,0,3.7,15.6,26.7,2.3
			C179.7,148.5,186.5,112,186.5,112z"/>
		<path fill="#FEE56A" d="M119.5,74.5c0,0-5.7,18.3,0.5,37.9c6.2,19.6,20,36.1,20,36.1s6.6-16.9,2.7-41.2
			c-3.9-24.3-10.6-30.8-10.6-30.8L119.5,74.5z"/>
		<path fill="#FFFCE8" d="M84,127.2c0.9,7.2,6.1,12.4,11.5,11.7c5.4-0.7,9.1-7.1,8.2-14.3c-0.9-7.2-6.1-12.4-11.5-11.7
			C86.7,113.6,83.1,120,84,127.2z"/>
		<path fill="#FFFCE8" d="M66.8,131.1c0.8,6.3,5.2,11,9.7,10.4c4.6-0.6,7.6-6.2,6.8-12.5c-0.8-6.3-5.2-11-9.7-10.4
			C69,119.2,66,124.8,66.8,131.1z"/>
		<path fill="#3B1026" d="M88.5,129c0.4,3.2,2.9,5.5,5.6,5.1c2.7-0.3,4.5-3.2,4.1-6.4c-0.4-3.2-2.9-5.5-5.6-5.1
			C89.9,123,88.1,125.8,88.5,129z"/>
		<path fill="#3B1026" d="M72.3,132.2c0.4,2.8,2.6,4.8,5,4.5c2.4-0.3,4.1-2.8,3.7-5.7c-0.4-2.8-2.6-4.8-5-4.5
			C73.6,126.8,71.9,129.4,72.3,132.2z"/>
		<g>
			<path fill="#D44F27" d="M90.7,156.6c-1.3-1.7-2.8-3.1-4.4-4.4c-1.6-1.3-3.3-2.5-5.1-3.5c-3.6-2.1-7.5-3.6-11.5-4.7
				c-8-2.2-16.4-2.6-24.6-2c-4.1,0.4-8,1.4-11.6,3.3c-3.6,1.8-6.6,4.5-8.9,7.8c-2.3,3.3-3.8,7.1-4.7,11c-0.9,3.9-1.3,8.1-1.1,12
				l-1-1.3c4.7,1.5,9.8,2.6,14.8,3.5c5,0.9,10.1,1.6,15.1,1.9c5.1,0.4,10.2,0.5,15.2,0.3c5.1-0.2,10.2-0.6,15.2-1.4
				c5-0.8,10-1.8,14.8-3.5c4.7-1.7,9.3-4,13.2-7.2c3.9-3.2,7.1-7.2,9.2-11.8c1.1-2.3,1.9-4.7,2.4-7.2c0.5-2.5,0.8-5.1,0.7-7.6
				c1,10.3-3.3,21-11.3,27.9c-3.9,3.5-8.6,6.1-13.5,8c-4.9,1.9-10,3.1-15.1,4c-10.2,1.8-20.7,2.2-31,1.5
				c-10.4-0.7-20.6-2.5-30.6-5.6l-0.9-0.3l-0.1-1c-0.1-2.3,0-4.4,0.2-6.5c0.2-2.1,0.6-4.3,1.1-6.4c1-4.2,2.7-8.3,5.3-11.9
				c2.6-3.6,6-6.6,9.9-8.5c3.9-1.9,8.2-2.9,12.5-3.2c4.3-0.3,8.5-0.2,12.7,0.3c4.2,0.4,8.4,1.3,12.4,2.6c4,1.3,7.9,3.1,11.5,5.4
				C85,150.3,88.3,153.1,90.7,156.6z"/>
		</g>
		<path fill="#3B1026" d="M84.2,100.1c5.7-1.9,11.8-1.8,17.2,0.3c0-0.4,0-0.8,0.1-1.3C96.1,96.8,90,96.4,84.3,98
			C84.3,98.7,84.3,99.4,84.2,100.1z"/>
		<path fill="#3B1026" d="M78.8,107.7c-5.9,0.7-11.4,3.3-15.5,7.6c-0.2-0.4-0.4-0.8-0.6-1.1c3.9-4.5,9.3-7.4,15.1-8.4
			C78.2,106.4,78.5,107,78.8,107.7z"/>
		<g>
			<path fill="#F7B319" d="M141.2,118.6c-0.7,1.1-2.1,1.7-3.4,1.8c-1.3,0.2-2.7,0.1-3.9-0.2c-2.6-0.5-5-1.4-7.4-2.7
				c-2.3-1.3-4.4-3.2-5.9-5.4c-1.4-2.3-2.2-5-2.1-7.8l0.1-1.6l1.2,1.1c1.6,1.5,3.4,2.9,5.3,4.2c1.9,1.2,3.9,2.3,6,3
				c2.1,0.7,4.4,0.9,6.6,0.5c2.2-0.4,4.2-1.7,5.3-3.8c-0.8,2.2-2.9,3.8-5.1,4.4c-1.1,0.3-2.3,0.5-3.5,0.4c-0.6,0-1.2-0.1-1.8-0.1
				c-0.6-0.1-1.2-0.2-1.7-0.4c-2.3-0.6-4.4-1.7-6.4-2.9c-2-1.2-3.8-2.7-5.6-4.3l1.3-0.5c0,1.1,0.1,2.4,0.4,3.6
				c0.3,1.2,0.8,2.3,1.4,3.4c1.3,2.1,3.1,3.8,5.2,5.2l1.7,0.9c0.6,0.3,1.2,0.5,1.7,0.8c0.6,0.3,1.2,0.5,1.8,0.7
				c0.6,0.2,1.2,0.4,1.8,0.6c1.2,0.4,2.5,0.5,3.7,0.5c0.6,0,1.3-0.1,1.8-0.4C140.3,119.5,140.8,119.1,141.2,118.6z"/>
		</g>
		<g>
			<path fill="#D44F27" d="M177.9,122.1c-4.2,1.3-8.1,3.2-11.9,5.3c-3.8,2.2-7.4,4.7-10.6,7.5c-3.2,2.8-5.9,6.2-7.9,10.1
				c-1.9,3.8-3.3,8-3.8,12.2l-1.3-0.3c1.1-2.3,2.4-4.5,4-6.5c1.6-2,3.4-3.8,5.8-5c1.2-0.5,2.5-0.9,3.8-0.7c0.7,0.1,1.3,0.3,1.9,0.4
				l0.9,0.4c0.3,0.1,0.6,0.4,0.8,0.5c0.3,0.2,0.5,0.5,0.7,0.7c0.2,0.3,0.4,0.6,0.5,0.9c0.3,0.6,0.3,1.3,0.2,1.9
				c-0.2,1.3-0.7,2.4-1.4,3.5c0.6-1.1,1-2.3,1.1-3.5c0.1-1.2-0.4-2.4-1.4-3c-0.3-0.1-0.5-0.3-0.8-0.4l-0.8-0.3
				c-0.6-0.1-1.2-0.3-1.8-0.3c-1.2-0.1-2.3,0.2-3.4,0.8c-2.1,1.1-3.8,2.9-5.2,4.9c-1.4,2-2.7,4.1-3.7,6.3l-1.7,3.8l0.4-4.1
				c0.4-4.5,1.8-8.8,3.8-12.8c1-2,2.3-3.8,3.6-5.6c0.7-0.8,1.4-1.7,2.2-2.5l1.2-1.2l1.3-1.1c3.4-2.8,7.2-5.2,11.1-7.2
				c2-1,4-1.9,6-2.7C173.6,123.2,175.7,122.5,177.9,122.1z"/>
		</g>
		<path fill="#D44F27" d="M37.2,153.7c-0.2,0.1-0.3,0.3-0.5,0.4c-0.7,0.8-1,2-1,3.1c-0.2-1.1-0.3-2.4,0.2-3.6
			c0.3-0.6,0.7-1.1,1.2-1.6c0.5-0.4,1-0.8,1.8-1l0,0.1c0.2-0.1,0.5-0.2,0.7-0.3c1.7-0.4,3.2,0.2,3.5,1.3c0.3,1.1-0.8,2.4-2.5,2.8
			C39,155.3,37.5,154.8,37.2,153.7z"/>
		<path fill="#D44F27" d="M65,150.5c0.2,0.1,0.4,0.2,0.5,0.4c0.7,0.7,1.1,1.9,1.3,3c0.2-1.2,0.2-2.4-0.5-3.6
			c-0.3-0.6-0.8-1.1-1.4-1.5c-0.6-0.4-1.1-0.7-1.9-0.9l0,0.1c-0.2-0.1-0.5-0.2-0.7-0.2c-1.7-0.3-3.2,0.4-3.4,1.6
			c-0.2,1.1,1,2.3,2.7,2.6C63.3,152.2,64.8,151.6,65,150.5z"/>
		<path fill="#D44F27" d="M116,140.6c0.2,1.2,1.3,2,2.4,1.9c1.2-0.2,2-1.3,1.9-2.4c-0.2-1.2-1.3-2-2.4-1.9
			C116.7,138.3,115.9,139.4,116,140.6z"/>
		<g>
			<path fill="#D44F27" d="M93.1,185.7c2-0.1,4-0.3,5.9-0.7c1.9-0.5,3.7-1.1,5.3-2c1.6-1,3.1-2.2,4.4-3.6c1.3-1.4,2.5-3,3.4-4.8
				c-0.3,2-1.3,3.9-2.5,5.5c-1.2,1.7-2.8,3.1-4.6,4.2c-1.8,1.1-3.9,1.7-5.9,1.9C97.1,186.3,95,186.2,93.1,185.7z"/>
		</g>
		<path fill="#FEE56A" d="M18.5,101.4C15.8,87.4,37.7,65,84.9,63c17.4-0.7,34.8,2.8,34.8,2.8l2.7-12.6l3.7,16.5
			c0,0,5.1-2.7,14.3-2.2c-10.2,4.1-7.1,10.9-7.1,10.9l-15.1,4.1l-0.7,4.3l-6.4,1.4l-0.9-5.9l-2.1,6.6l-19.6,3.5l-6.7-5.4l1.1,6.1
			l-21.7,4.3l-2.5-3.5l-1,4.2L30,103.7c0,0-1.1-6.1,3.1-13.4L18.5,101.4z"/>
		<g>
			<path fill="#F7B319" d="M47.4,85c-0.8,2.6-1.4,5-1.6,7.5c-0.1,1.2,0,2.5,0.1,3.7c0.2,1.2,0.6,2.4,1.1,3.7c-1-0.9-1.8-2.1-2.2-3.4
				c-0.4-1.3-0.6-2.7-0.5-4.1c0.1-1.4,0.4-2.7,1-4C45.8,87.2,46.5,86,47.4,85z"/>
		</g>
		<g>
			<path fill="#F7B319" d="M101.2,89.4c-0.4-0.4-0.6-1-0.8-1.5c-0.2-0.5-0.3-1.1-0.4-1.7c-0.2-1.1-0.2-2.3-0.2-3.4
				c0.1-1.1,0.3-2.3,0.7-3.4c0.4-1.1,1-2.1,1.9-2.9c-0.4,1.1-0.6,2.1-0.7,3.1c-0.1,1-0.2,2.1-0.3,3.2l-0.2,3.2l0,1.6
				C101.1,88.4,101.1,88.9,101.2,89.4z"/>
		</g>
		<g>
			<path fill="#F7B319" d="M69.1,81.4c0.5,1.1,0.9,2.2,1.2,3.4c0.3,1.1,0.6,2.3,0.8,3.5c0.2,1.2,0.4,2.4,0.5,3.5
				c0.1,1.2,0.1,2.4,0,3.6c-0.5-1.1-0.9-2.3-1.2-3.4c-0.3-1.1-0.6-2.3-0.8-3.5c-0.2-1.2-0.4-2.3-0.5-3.5
				C69.1,83.9,69,82.7,69.1,81.4z"/>
		</g>
		<g>
			<path fill="#014C78" d="M125.6,241.8c1.2,0.9,2.3,1.9,3.4,2.8c1.1,0.9,2.3,1.9,3.4,2.9c2.2,1.9,4.4,3.9,6.6,5.9l-1.2,0.5
				c0-2.3,0-4.6,0.1-6.9c0-2.3,0.1-4.6,0.2-6.9c0.1-2.3,0.2-4.6,0.4-6.9c0.2-2.3,0.3-4.6,0.6-6.9c0.1,2.3,0.2,4.6,0.3,6.9
				c0.1,2.3,0.1,4.6,0.1,6.9c0,2.3,0,4.6,0,6.9c0,2.3-0.1,4.6-0.2,6.9l0,1.6l-1.2-1.1c-2.1-2.1-4.2-4.1-6.3-6.2
				c-1-1.1-2.1-2.1-3.1-3.2C127.6,243.9,126.6,242.9,125.6,241.8z"/>
		</g>
		<g>
			<path fill="#F69320" d="M93.2,288.6c0,0,10.6,3.6,15.2,13.1c4.3,9-5.5,34.2-9.7,34c-4.2-0.1-1.5-15.4-1.5-15.4
				s-6.5,16.4-10.5,16.1c-4-0.3,2.2-18,2.2-18s-12,11.5-14.7,7.2c-2.7-4.3,12.2-13.3,12.2-13.3s-7.5-2.1-7-9.6l9.7-15.8L93.2,288.6z
				"/>
			<path fill="#F69320" d="M39.5,275.1c0-2.2,2.8-6.8,14.9-16.6c22.1-18,53.8-25.3,53.8-25.3l-0.6,17.4
				c-19.1,2.4-37.5,9.8-52.5,22.2c0,0,21.7,8.8,36.2,14.9c-3.5,6-11.1,16.4-11.1,16.4S39.5,276.9,39.5,275.1z"/>
			<path fill="#228DBB" d="M107.6,233.2c-11.1,3.2-22.3,6.8-31.5,11.8l7.1,12.9l28.7-8.4l-3.3-13.8L107.6,233.2z"/>
			<g>
				<path fill="#014C78" d="M82.8,242.2c0.8,1,1.5,2,2.1,3.1c0.6,1.1,1.2,2.2,1.8,3.3c0.5,1.1,1,2.3,1.5,3.4
					c0.4,1.2,0.8,2.3,1.1,3.6c-0.8-1-1.5-2-2.1-3.1c-0.6-1.1-1.2-2.2-1.8-3.3c-0.5-1.1-1-2.3-1.5-3.4
					C83.4,244.7,83.1,243.5,82.8,242.2z"/>
			</g>
		</g>
		<circle fill="#014C78" cx="127.1" cy="248.2" r="2.1"/>
		<circle fill="#014C78" cx="128.5" cy="254.9" r="2.1"/>
		<path fill="#999484" d="M107.8,321.1c0,0,0.6,9,5.1,14.6l65.6-14.1c0,0,3.9-9.1-2-15L107.8,321.1z"/>
		<g>
			<path fill="#014C78" d="M125.6,241.8c-0.4,1.4-1,2.8-1.4,4.2c-0.5,1.4-1,2.8-1.5,4.2c-1,2.8-2.1,5.5-3.2,8.3l-0.6,1.5l-0.7-1.5
				c-1-2.1-2-4.2-3-6.2c-1-2.1-1.9-4.2-2.9-6.3c-0.9-2.1-1.8-4.2-2.7-6.4c-0.9-2.1-1.7-4.3-2.6-6.4c1.1,2,2.2,4,3.3,6.1
				c1.1,2,2.1,4.1,3.1,6.2c1,2.1,2,4.1,3,6.2c1,2.1,1.9,4.2,2.9,6.3l-1.3,0c1.2-2.7,2.4-5.4,3.6-8.1c0.6-1.3,1.2-2.7,1.9-4
				C124.3,244.4,124.9,243.1,125.6,241.8z"/>
		</g>
		
			<rect x="116.5" y="309.6" transform="matrix(-0.9781 0.2079 -0.2079 -0.9781 299.715 597.3796)" fill="#999484" width="3.8" height="9.6"/>
		
			<rect x="159.9" y="300.2" transform="matrix(-0.9781 0.2079 -0.2079 -0.9781 384.1706 570.1055)" fill="#999484" width="4.5" height="10.1"/>
		
			<rect x="130.4" y="304.8" transform="matrix(-0.9781 0.2079 -0.2079 -0.9781 340.4585 583.8068)" fill="#D2D3D4" width="18.2" height="9.9"/>
		<g>
			<g>
				<path fill="#8FC640" d="M90.3,402.6c6.2-10.1,35.8-12,35.8-12l25.1-4.6l3.6,7.1l-59.8,14.7L90.3,402.6z"/>
				<polygon fill="#2075BC" points="124.1,390.4 129.7,399.9 133.5,399.1 128.5,389.7 				"/>
				<polygon fill="#2075BC" points="130.5,389.1 136.1,398.6 139.8,397.8 134.9,388.4 				"/>
				<polygon fill="#2075BC" points="136.8,387.7 142.4,397.2 146.2,396.4 141.2,387 				"/>
				<path fill="#FFFFFF" d="M90.3,402.6c4.4-0.5,6.8,0.8,8.8,3.6l54.8-14.8l2.5,5.1l-64.5,15c0,0-3.9-3.5-2.2-7.7
					C89.9,403.3,90.1,403,90.3,402.6z"/>
			</g>
			<path fill="#999484" d="M115.4,332.8c0,0-7.7,24.3,6,58.3l33.3-4.3c0,0-26.2-34.3-19.7-57.7L115.4,332.8z"/>
		</g>
		<g>
			<g>
				<path fill="#8FC640" d="M225.9,373.8c-9.8-6.7-37.5,3.6-37.5,3.6l-24.8,6l-0.4,8l60.6-10.9L225.9,373.8z"/>
				<polygon fill="#2075BC" points="190,376.4 188.8,387.4 185,388.2 185.7,377.6 				"/>
				<polygon fill="#2075BC" points="183.7,377.8 182.5,388.7 178.7,389.5 179.4,378.9 				"/>
				<polygon fill="#2075BC" points="177.3,379.1 176.1,390.1 172.3,390.9 173,380.3 				"/>
				<path fill="#FFFFFF" d="M225.9,373.8c-4.2,1.3-5.9,3.5-6.6,6.9l-56.1,8.7L163,395l65.1-12.5c0,0,2.2-4.8-1.2-7.9
					C226.6,374.3,226.3,374,225.9,373.8z"/>
			</g>
			<path fill="#999484" d="M174.6,320.2c0,0,17,19.1,18.2,55.7l-32.2,9.7c0,0,10-42-5.5-60.7L174.6,320.2z"/>
		</g>
		<path fill="#F69320" d="M171,272c0,0-8.2,7.6-8.5,18.1c-0.3,10,18.9,29,22.7,27.2c3.8-1.8-4.9-14.6-4.9-14.6s12.6,12.3,16.1,10.5
			c3.5-1.9-9.3-15.5-9.3-15.5s15.6,5.6,16.4,0.6c0.7-5-16.6-7.2-16.6-7.2s6-5,2.5-11.6L174,269L171,272z"/>
		<g>
			<path fill="#6E6F72" d="M125.5,318.5c-0.4,1.5-1.2,3-2.2,4.3c-0.9,1.3-2.1,2.4-3.4,3.4c-0.6,0.5-1.3,0.9-2,1.3
				c-0.7,0.3-1.4,0.7-2.2,0.9c-1.5,0.6-3.1,0.7-4.7,0.7c1.5-0.6,2.9-1.1,4.3-1.8c1.4-0.7,2.6-1.5,3.8-2.4
				C121.5,323.2,123.6,321,125.5,318.5z"/>
		</g>
		<g>
			<path fill="#6E6F72" d="M155.1,312.2c2.8,1.5,5.6,2.7,8.5,3.3c1.5,0.4,3,0.5,4.5,0.6c1.5,0.1,3,0,4.6-0.1c-1.4,0.7-3,1.2-4.6,1.3
				c-0.8,0.1-1.6,0-2.4,0.1c-0.8-0.1-1.6-0.2-2.4-0.4c-1.6-0.4-3.1-0.9-4.5-1.7C157.4,314.4,156.1,313.4,155.1,312.2z"/>
		</g>
	</g>
</g>
</svg>
