<svg version="1.1" xmlns="http://www.w3.org/2000/svg" xmlns:xlink="http://www.w3.org/1999/xlink" x="0px" y="0px" viewBox="0 0 243 236" style="enable-background:new 0 0 243 236;" xml:space="preserve" width="243" height="236" preserveAspectRatio="none"><style type="text/css">
	.st0{fill:#BC276A;}
	.st1{fill:#231F20;}
	.st2{fill:#DE944E;}
	.st3{fill:#A63049;}
	.st4{fill:#FFFFFF;}
	.st5{fill:#CFCCC4;}
	.st6{fill:#F49E4D;}
	.st7{fill:#D23575;}
	.st8{fill:#A5A5A5;}
	.st9{fill:#9E5024;}
	.st10{fill:#F0EFEF;}
	.st11{fill:#288340;}
	.st12{fill:#CB71AD;}
	.st13{fill:#7382C0;}
	.st14{fill:#DBE8EF;}
	.st15{fill:#2E9C47;}
	.st16{fill:#9CB3C6;}
	.st17{fill:#B662A7;}
	.st18{fill:#CF89BB;}
	.st19{fill:#7CAE53;}
	.st20{fill:#CE7139;}
	.st21{fill:#21734B;}
	.st22{fill:#6BBE4B;}
	.st23{fill:#F4A962;}
	.st24{fill:none;stroke:#9E5024;stroke-miterlimit:10;}
	.st25{clip-path:url(#SVGID_00000001634173387436030400000017997116068249261485_);}
	.st26{clip-path:url(#SVGID_00000122695497738091036920000012740338832016917378_);}
	.st27{clip-path:url(#SVGID_00000130630057417655698370000012539301891438395312_);}
	.st28{clip-path:url(#SVGID_00000014607104913949137100000004357902764569840523_);}
</style><g id="_x35_th_Grade"><g id="_x33__Stars_2_" /><g id="_x32__Stars_2_" /><g id="_x31__Star_2_" /><g id="_x30__Stars_1_" /></g><g id="_x34_th_Grade"><g id="_x33__Stars_1_" /><g id="_x32__Stars_1_" /><g id="_x31__Star_1_" /><g id="_x30__Stars_2_" /></g><g id="_x33_rd_Grade"><g id="_x33__Stars" /><g id="_x32__Stars" /><g id="_x31__Star" /><g id="_x30__Stars" /></g><g id="Labels" /><g id="Layer_17"><g><g><path class="st6" d="M44.8,69.1c-1.6-4.9,1.1-10.2,6.1-11.8c1.1-0.4,2.3-0.5,3.4-0.4c-1.8,5.6-1.6,12.3-0.2,18.7
				C50,75.7,46.1,73.2,44.8,69.1z" /></g><path class="st9" d="M54,59.6c0,0-2.9-0.3-4.5,2.6c-2.9,5.1,1.6,10.7,4.3,11.3C53.8,73.5,52.2,64.9,54,59.6z" /></g><g><defs><rect id="SVGID_1_" width="243" height="236" /></defs><clipPath id="SVGID_00000126307743876870433250000005937274919138624653_"><use xlink:href="#SVGID_1_" style="overflow:visible;" /></clipPath><g style="clip-path:url(#SVGID_00000126307743876870433250000005937274919138624653_);"><g><g><path class="st6" d="M96.9,105.8c0,0-10.3,14.7-20.5,25.2c0,0,6.1,7.9,14.8,15.1c2.4,2,7.2,7.7,10.1,8.1c0,0,3.1-4.7,4.6-9.1
						c3.3-9.3,4.4-22.7,3.9-27.1L96.9,105.8z" /><path class="st6" d="M15.8,165.5c1.7-0.1,4.8-1.3,7.5-2.5c-8.6-0.1-11.6-5.4-11.6-5.4c1.7-0.5,4.7-1.6,7.5-2.6
						c-4.6-1.9-7.2-5.1-7.2-5.1c4-3.5,15.6-5.6,15.6-5.6s-0.6-7.2,4.5-13.3c0.4-0.5,4.3,8.5,6.4,11.3c14.9,7.5,28.5-1.8,33.9-7.1
						c2.7-2.7,4.6-4.8,4.6-4.8l24.3,23.9c-6.4,6.4-12.3,11.8-18.2,14.3c-21.3,9-43,0.5-43,0.5C28.4,176.4,12.6,165.7,15.8,165.5z" /><path class="st6" d="M29.9,154.2c0,0,9.5-7.7,13.5-0.6C43.4,153.6,37.3,150.5,29.9,154.2z" /><path class="st6" d="M77,130.4c-3.4,3.1-7.4,8.2,1.4,7.3c0,0-0.6,12,11.5,10.8c0,0,0.4,16.2,11.5,5.7L77,130.4z" /></g><g><path class="st11" d="M96.9,105.8c0,0-10.3,14.7-20.5,25.2c0,0,6.1,7.9,14.8,15.1c2.4,2,7.2,7.7,10.1,8.1c0,0,3.1-4.7,4.6-9.1
						c3.3-9.3,4.4-22.7,3.9-27.1L96.9,105.8z" /><path class="st6" d="M15.8,165.5c1.7-0.1,4.8-1.3,7.5-2.5c-8.6-0.1-11.6-5.4-11.6-5.4c1.7-0.5,4.7-1.6,7.5-2.6
						c-4.6-1.9-7.2-5.1-7.2-5.1c4-3.5,15.6-5.6,15.6-5.6s-0.6-7.2,4.5-13.3c0.4-0.5,4.3,8.5,6.4,11.3c14.9,7.5,28.5-1.8,33.9-7.1
						c2.7-2.7,4.6-4.8,4.6-4.8l24.3,23.9c-6.4,6.4-12.3,11.8-18.2,14.3c-21.3,9-43,0.5-43,0.5C28.4,176.4,12.6,165.7,15.8,165.5z" /><path class="st9" d="M29.9,154.2c0,0,9.5-7.7,13.5-0.6C43.4,153.6,37.3,150.5,29.9,154.2z" /><path class="st12" d="M77,130.4c-3.4,3.1-7.4,8.2,1.4,7.3c0,0-0.6,12,11.5,10.8c0,0,0.4,16.2,11.5,5.7L77,130.4z" /></g></g><path class="st15" d="M207.3,101.2c-21-14.7-33.6-13.4-33.6-13.4l7.9,49c1,0.4,1.7,0.6,1.7,0.6c12.9-1,24.5-30.8,24.5-30.8
				L207.3,101.2z" /><path class="st6" d="M207.3,101.2c13.6,8.8,27.8,22.9,35.5,45.7l0.8,4.6c0,0,0.9,7.8-16.3,8.2c0,0-7.7-15.5-36.5-26.4l16.3-27.4
				L207.3,101.2z" /><path class="st6" d="M195.1,189.6c1.5,0.9,14.7,36.8-0.3,67.7c0,0-8,2.2-11.9,1.4c-3.9-0.8-23.3-47.4-22.9-48.8
				S195.1,189.6,195.1,189.6z" /><path class="st6" d="M104,199.5c-1.3,1.2-6.7,39.1,14.5,66.1c0,0,8.3,0.5,11.9-1.1c3.6-1.6,12.9-51.2,12.1-52.5
				S104,199.5,104,199.5z" /><path class="st6" d="M207.4,184.7c0,0,45.3,12.9,65.7-13.5c0,0,11.5-9.2,2.1,19.4c-9.5,28.6-48.2,33.3-48.2,33.3
				s-23.6,6.3-55.5-11.8c-11.8-6.7,5.1-22.3,5.1-22.3L207.4,184.7z" /><path class="st15" d="M175.9,87.7l-4.5,0c0,0-65.9,18.1-66.2,18.4c-39.9,34.3-11.3,60-11.3,60c5,20.4-1.5,41.5-1.5,41.5
				s9,16.8,48.5,16.7c47.7-0.2,75.4-42,75.4-42c1.4-2.6-9.1-14.3-19.4-33.4c-1.7-3.1-3.2-6.8-4.5-10.6L175.9,87.7z" /><path class="st20" d="M278,170.5c-0.2-0.3-1.2-0.3-3.7,8.2c-2.5,8.5-22.6,44.1-73.3,33.4l0.6,11.5c0,0,45.9,9.9,69.2-24.2
				C270.9,199.3,283.2,180.7,278,170.5z" /><path class="st12" d="M207.4,101c0,0.6,14.5,5.8-1.9,12.9c0,0,9.8,9.9-6.4,13.7c0,0,3.7,6.5,1,9.1c0,0-3.8-0.7-9.2-3.2L207.4,101
				z" /><path class="st6" d="M240,148.1c0.9-0.4,5.9-4.1,16.7-1.8c0,0-4.9,1.7-7.4,5c0,0,9.4-0.8,13.8,4c0,0-5.7,0.5-9.6,3.4
				c0,0,6.7,0.7,10.1,8.8c0,0-17.4-4.8-25.6,0.2c0,0-4.8,0.6-6.4,9.3c0,0-2.7-1.9-4.4-4.4c-4.3-6.3,0.1-12.8,0.1-12.8L240,148.1z" /><path class="st21" d="M84.3,146.4c0,0,2.8,27.6,27.6,29.4C111.8,175.8,91.5,171.6,84.3,146.4z" /><path class="st0" d="M175.5,77.6c0.4-0.3,13-10.6,18.8,1.3c3.4,6.8-0.7,10.3-0.7,10.3s-23.5-1.9-23.2-2.3S175.5,77.6,175.5,77.6
				L175.5,77.6z" /><path class="st6" d="M54.2,75.6c-1.3-6.3-1.6-13.1,0.2-18.7c0.2-0.8,1.4-3.2,1.7-3.9c0,0,7.3-8.3,17-8.6
				c13.2-0.4,17.2-1.9,22.7,0.8c6.7,3.4,7,3.5,6.7,3.4c3.6-9.7,6.3-21.1,6.3-21.1c5.4-3.7,11.4-9,15.8-10
				c15.7-3.5,39.1,9.9,39.1,9.9s13.7,31.4,9.7,52c-7.1,36.4-35.2,45.2-40.2,46.2c-17.2,3.3-32.7-7.8-36.4-14.1c0,0-6.7-10-6.8-9.8
				c-8.5,0.4-10.8,3-10.8,3s-7.8,0.4-15.7-9C60.7,92.3,56.1,84.6,54.2,75.6z" /><path class="st7" d="M124.7,17.5c0.8-1,6.1,14.3,18.6,11.9c0,0-1.4,8.1,9.8,11.1c0,0-0.8,14.8,11.3,15.3c0,0,2.4,7.6-9.2,8
				c0,0-0.4,4.5,4.6,7.4c7.6,4.4,11.9-1.9,11.9-1.9s1.1,3.1-0.8,7.1c-0.9,1.9-2.1,3.5-5.4,6c-1.4,1.1,7.7,1.2,13.4-1.8
				c7.8-4,12-15.3,4.1-25c0,0,10.2-0.6,5.2-13.3c0,0-7.9,2.5-11.4-3c0,0,6.3-2.7,6.1-8.3c-0.1-4.2-1.9-9-8.9-11.5
				c0,0,1.4,8.2-7.8,5.6c0,0,0.3-0.2-2-5.4c-2.3-5.3-7.2-12.3-20.2-7c0,0-6.2-18.6-19.8-8.7c0,0-0.9,1.2-1.7,1.1
				c-2.8-0.6-12.6-1.3-14.4,7.8c0,0-5.5-0.5-9.6,2.5c-7,5.1-8,11-1.8,13.9c0,0-11,8.8,8,14.2l3.3-12.1l1-3.9
				C108.9,27.5,116.8,27.9,124.7,17.5z" /><path class="st8" d="M95.9,45.3c0,0-22.4-12.8-24.6-12.1c-8.4,2.7-15.1,19.9-15.1,19.9S79,43.1,95.9,45.3z" /><circle class="st9" cx="92.6" cy="62.5" r="9.4" /><path class="st0" d="M123.2,13c0,0,3.6,21,25.8,15.6c0,0-8.8,1.7-15.6-3.5C125.6,19,123.2,13,123.2,13z" /><path class="st6" d="M82.5,66.5c1.4,4.3,6.7,5.6,11.1,4.2c4.3-1.4,6.7-6,5.3-10.3c-1.4-4.3-6-6.7-10.3-5.3
				C84.3,56.5,81.1,62.2,82.5,66.5z" /><circle class="st9" cx="90.4" cy="63.9" r="5.8" /><path class="st0" d="M143.2,29.5c0,0,5.3,10.6,15.7,9.8c0,0-1.2,0.9-3.5,1.1c0,0,1.5,15.5,13.5,14.8c0,0-16.4,5.4-15.8-14.6
				C153.1,40.6,143.2,40.4,143.2,29.5z" /><path class="st9" d="M135,59.6c0,0,8.2-8,13.3,0.1C148.3,59.7,143.9,56.7,135,59.6z" /><path class="st10" d="M63,44.6c0,0,2.6-6.2,6.5-8c1.7-0.8,2.5-0.4,2.6-0.4C72.4,36.1,67.7,38.6,63,44.6z" /><path class="st0" d="M188.2,42.4c0,0,1.5,14.7-13.7,8.7c0,0,4,4.9,8.5,4.6C187.5,55.3,192,51.4,188.2,42.4z" /><path class="st0" d="M174,19.5c0,0,14.1,11-0.1,17.8c0,0-2.8,0.9-7,0c0,0,4.8,2.9,9.8,2.1S188.2,26,174,19.5z" /><path class="st0" d="M185.5,59.6c0,0,1.1,18-14.2,21.5c0,0,4.4-5.2,3.8-8.9c-0.5-2.7-1.4-6.7-4.2-8c0,0-4.9,8.1-11.5,4.5
				c-1.6-0.8-3-2.1-4.1-5c0,0-0.7,5.4,6.6,8.4c6.7,2.8,9.8-2.9,9.8-2.9s2.2,7.4-6.8,13.3c0,0,4.6,2.8,8.8,2
				C177.9,83.9,193.6,79,185.5,59.6z" /><path class="st0" d="M143.9,12.7c0,0-10.3-16.2-20-6.7c0,0-2.2,2.4-2.3,2.2c-0.1-0.2-4.5-3.6-10,0c0,0-3.3,1-2.6,6.1
				c0,0-8.7-1-13.7,6.9c0,0-2.5,3.9,1.2,8.2c0,0-9.2-3.2-0.2-12.2c0,0,4.5-4.6,11.6-4.2c0,0-0.6-4.7,4.5-7.3
				c5.6-2.9,8.8-0.3,8.8-0.3S133.8-8.2,143.9,12.7z" /><path class="st0" d="M124.7,17.5c0,0-10.5,10.3-20.3,8.5c0,0,1.3,5.1,12.6-1.2C123.7,21.1,124.7,17.5,124.7,17.5z" /><g><path class="st9" d="M90,101.7c17.9-4.8,35.7-13.8,45.9-29.9c2.9-4.4,5-9.3,6.7-14.3c-0.6,4.6-1.9,9.1-3.8,13.3
					C130.2,89.3,109.8,100.3,90,101.7L90,101.7z" /></g><path class="st22" d="M177.2,86.3c-0.7,3.3-25.5,53.7-45.7,44c-7-3.3-7.8-6.9-7.8-6.9s17-3.8,27.9-13.3
				c15.9-13.9,20.9-25.4,20.9-25.4L177.2,86.3z" /><path class="st22" d="M97.5,113c0,0,11.2,9.3,26.9,10.6c0,0-1.7,7.7-12,8.6c-15.6,1.4-17.1-16.5-17-16.6
				C95.4,115.6,97.5,113,97.5,113z" /><path class="st22" d="M125.3,123.1c0,0,3.5,20.7,4.7,24.4c0,0-5.9,1.5-6,1.1c-0.1-0.4-1.7-25.3-1.7-25.3L125.3,123.1z" /><path class="st21" d="M177.1,127.6c0,0,6.2,0.5,13.8,5.9" /><g><path class="st1" d="M141.9,27c0-0.5,2.9,5.8-3.1,6.9l-0.8-0.7C138.1,33.1,142.5,32.5,141.9,27z" /><path class="st1" d="M144.6,30.2c0.1-0.5,0.6,6.5-5.4,5.3l-0.4-1C138.7,34.5,143,35.6,144.6,30.2z" /><path class="st1" d="M145.7,34.5c0.3-0.4-2.2,6.1-7.1,2.4l0-1.1C138.5,35.9,142,38.7,145.7,34.5z" /><path class="st1" d="M107.5,29.3c0.1-0.5-3,5.7,3,6.9l0.8-0.7C111.2,35.5,106.8,34.9,107.5,29.3z" /><path class="st1" d="M104.8,32.5c-0.1-0.5-0.7,6.4,5.3,5.4l0.5-1C110.5,36.9,106.2,37.9,104.8,32.5z" /><path class="st1" d="M103.6,36.8c-0.3-0.4,2.1,6.1,7.1,2.6l0-1.1C110.7,38.3,107.2,41,103.6,36.8z" /><circle class="st4" cx="133.2" cy="39" r="7.6" /><circle class="st4" cx="116.9" cy="39.9" r="7.6" /><circle class="st1" cx="133.9" cy="40.7" r="4.4" /><circle class="st1" cx="118.1" cy="42.2" r="4.4" /><circle class="st4" cx="135.2" cy="38.5" r="2.3" /><circle class="st4" cx="119.8" cy="40.4" r="2.3" /></g></g></g></g></svg>