<?xml version="1.0" encoding="utf-8"?>
<!-- Generator: Adobe Illustrator 21.1.0, SVG Export Plug-In . SVG Version: 6.00 Build 0)  -->
<svg version="1.1" xmlns="http://www.w3.org/2000/svg" xmlns:xlink="http://www.w3.org/1999/xlink" x="0px" y="0px"
	 viewBox="0 0 318 422" style="enable-background:new 0 0 318 422;" xml:space="preserve" width="318" height="422" preserveAspectRatio="none">
<style type="text/css">
	.st0{fill:#00313B;}
	.st1{fill:#FFFFFF;}
	.st2{fill:#CC4385;}
	.st3{fill:#49C8F5;}
	.st4{fill:#007EC3;}
	.st5{opacity:0.1;}
	.st6{fill:#384E7D;}
	.st7{fill:#D1B489;}
	.st8{fill:#6F4D27;}
	.st9{fill:#C8DCD8;}
	.st10{fill:#71805D;}
	.st11{fill:#D1BC9D;}
	.st12{fill:#546444;}
	.st13{fill:#524034;}
	.st14{fill:#4FC7F3;}
	.st15{fill:#93AD3C;}
	.st16{fill:#566B30;}
	.st17{fill:#02313B;}
	.st18{fill:#CC4485;}
	.st19{fill:#0880C3;}
	.st20{fill:#5F3411;}
	.st21{fill:#C9DCD7;}
	.st22{fill:none;}
	.st23{fill:#94AD28;}
	.st24{fill:#55690E;}
	.st25{fill:#603001;}
	.st26{font-family:'MyriadPro-Regular';}
	.st27{font-size:20px;}
</style>
<g id="Rote_Pop-ins">
	<g>
		<path class="st0" d="M73.3,94.1c0,0,5.7,0.9,7.3,9.9c1.6,8.9-3.2,13.3-3.2,13.3s-34.3,9-41.8-16.5c-7.5-25.6,7.8-40.2,7.8-40.2
			S45.4,76.1,54.4,85C63.4,93.9,73.3,94.1,73.3,94.1"/>
		<g>
			<path class="st0" d="M77.1,119.4c3.2,3.7,12.6,11.5,16,37.3c2.3,17.7-10.4,54.7-10.4,54.7l103,8.3c0,0-4.8-94.9-5.4-109
				C151.4,98.8,98.4,105.6,77.1,119.4z"/>
			<path class="st1" d="M131.1,133.1c-1.4-0.4-2.9-0.8-4.3-1.2c-2.5-0.7-5.1-1.3-7.7-1.7c-5.1-0.8-10.3-0.8-15.3-0.2
				c-5.2,0.7-10.1,2.3-15,3.9c-3.7,1.2-7.4,2.4-11.1,3.5c0,0,14.2,18.4,16.9,18.4c1.4,0,3-5.8,4.2-11.3c5.5-0.7,18.3-1.3,36.4,3.5
				c1.7,5.9,3.7,11.3,5,11.9c3,1.3,18.4-18.2,18.4-18.2C149.4,138.9,140.3,135.7,131.1,133.1z"/>
			<path class="st2" d="M100.7,198.4c0,0,1.8-20.8,35.9-29.5c34.1-8.7,65,17.8,65,17.8s-37,78.5-42.5,75.1
				C153.7,258.4,100.7,198.4,100.7,198.4z"/>
			<path class="st1" d="M171.8,162.5c-1.7,0.2-3.5,6.6-4.9,12.9c-4.6-0.3-9.7-0.3-15.5,0.1c-25.1,1.6-37.4,9.5-37.4,9.5l71,13.3
				l7.1-16.7C192.2,181.7,174.6,162.2,171.8,162.5z"/>
			<path class="st3" d="M165.4,76c13.2,4,34.7,17.3,51.3,60.8c10.8,28.4,24.3,106,24.3,106s-43.9,55.6-93.6,64.3
				c-49.7,8.7-87.6-47.4-87.6-47.4s-10.4-8-13.4-27.6c-3-19.5,2.4-32.4,2.4-32.4s23-11.8,59-15.6c41-4.3,72.4,0.4,72.4,0.4
				s-3.6-33.5-58.2-44.5c-26.1-5.3-55.4,5.2-55.4,5.2l1.9-54.9C68.5,90.2,158.1,73.8,165.4,76z"/>
			<path class="st4" d="M77.6,206.5c3.8-2.2,7.9-3.8,12-5.3c4.2-1.4,8.4-2.4,12.8-3.2c8.7-1.4,17.9-1.1,26.4,2l4.3,1.6
				c-7.1,2.3-14.7,4.8-19.7,10.7c-1.5,1.7-2.7,3.7-3.1,5.9c-0.3,2,0,4,0.7,5.9c1.2,3.3,3.3,6,5.7,8.6c2.3,2.4,4.6,4.5,7.1,6.7
				c-4-2.6-8-5.2-11.1-8.7c-3.1-3.6-5.2-8.2-4.7-12.9c0.8-7.2,7.3-12,13.3-15c2.1-1-10.2-3-18.6-2.3c-4.3,0.4-8.5,1.2-12.7,2.2
				C85.8,203.7,81.6,205,77.6,206.5z"/>
			<g>
				<path class="st4" d="M109.5,94.9c1,10.7-5,19.9-13.5,20.7c-8.5,0.8-16.1-7.2-17.2-17.9c-1-10.7,5.1-19.9,13.5-20.7
					C100.8,76.3,108.5,84.3,109.5,94.9"/>
				<path class="st1" d="M107.5,92.4c0.9,9.2-4.5,17.2-12,17.9C88,111,81.2,104.1,80.4,95c-0.9-9.2,4.5-17.2,12-17.9
					C99.9,76.4,106.6,83.2,107.5,92.4"/>
				<path class="st0" d="M100,95.8c0.4,4.4-2,8.3-5.4,8.6c-3.4,0.3-6.5-3-6.9-7.4c-0.4-4.4,2-8.3,5.4-8.6
					C96.5,88,99.6,91.4,100,95.8"/>
				<path class="st4" d="M137.4,86.2c3.6,10.1-0.1,20.6-8.1,23.4c-8,2.8-17.4-3.1-21-13.2c-3.6-10.1,0.1-20.6,8.1-23.4
					C124.4,70.2,133.8,76.1,137.4,86.2"/>
				<path class="st1" d="M134.8,84.2c3.1,8.7-0.2,17.7-7.3,20.2c-7.1,2.5-15.3-2.5-18.4-11.2c-3.1-8.7,0.2-17.7,7.3-20.2
					C123.5,70.5,131.7,75.6,134.8,84.2"/>
				<path class="st0" d="M128,88.8c1.5,4.2,0.1,8.5-3.1,9.6c-3.2,1.1-7-1.3-8.5-5.5c-1.5-4.2-0.1-8.5,3.1-9.6
					C122.8,82.1,126.6,84.6,128,88.8"/>
			</g>
		</g>
		<g>
			<g>
				<g>
					<path class="st0" d="M198.9,352.7l-6.5,36.1c0,0,17.7-19.1,33.5-20.3c15.7-1.2,19.1,17.7,19.1,17.7L186,396.6l-2.5-40.2
						L198.9,352.7z"/>
				</g>
				<path class="st7" d="M192.2,319.2l-12.6,2.5c0,0,5.3,15.9-1.9,31.9l6.4,11.6l13-2.3l11.1-13.1
					C208,349.8,203.7,330.8,192.2,319.2z"/>
			</g>
			<g>
				<g>
					<path class="st0" d="M144,362.4l18.4,31.7c0,0-23.2-11.9-38.4-7.6c-15.2,4.2-11.9,23.2-11.9,23.2l58.9-10.4l-11.4-38.6
						L144,362.4z"/>
				</g>
				<path class="st7" d="M138.8,328.7l12.7-2c0,0,0.4,16.7,12.7,29.3l-2,13.1l-13,2.2l-14.9-8.6
					C134.5,362.7,131.9,343.4,138.8,328.7z"/>
			</g>
		</g>
		<path class="st3" d="M72.4,85.8c10.8-9.8,22.5-10.9,42.8-14.5c6.3-1.1,19.8,4.9,25.4,3.8l1.6,7.3L73.2,94.4
			C73.1,91.5,72.8,88.5,72.4,85.8z"/>
		<g>
			<g>
				<path class="st3" d="M61.8,257.3c0,0-46.7,22.1-32,60.4c14.6,37.9,64.8,17,64.8,17l-0.6-6.9c0,0-30.1-3.8-22.7-21.9
					c5-12.3,23.3-19.2,23.3-19.2L61.8,257.3z"/>
				<path class="st3" d="M87.7,327.1c0,0,3.9-0.6,5.4-2.4c3.6-4.6,7.4-13.2,10.5-11.5c4.3,2.4-4.3,12.1-4.3,12.1s17.9,0.2,18.1,6.4
					c0.1,5.2-14.6-0.3-14.6-0.3s17,7.6,13.2,13.1c-2.2,3.2-14.2-6.8-14.2-6.8s7.6,10.9,3.4,11.7c-5.9,1.1-7.6-13.1-7.6-13.1
					s-2.3,2.7-6.1,1.6c-2.7-0.8-4-3.7-4-3.7L87.7,327.1z"/>
			</g>
			<path class="st7" d="M54.5,254.5c0,0-7.8,6.5-10.8,9.6c-10.7,10.8-13.9,21-13.9,21l43.8,23l30.6-22.9l-14.3-15L54.5,254.5z"/>
			<polygon class="st8" points="30.8,276.8 24.8,291.5 74.7,314.1 81.2,306.1 			"/>
		</g>
		<g>
			<g>
				<path class="st3" d="M243.6,225.2c0,0,51.3,6,49.6,47c-1.7,40.6-56,36.8-56,36.8l-1.6-6.8c0,0,27.3-13.2,14.5-28
					c-8.6-10.1-28.2-10.7-28.2-10.7L243.6,225.2z"/>
				<path class="st3" d="M241.4,299.7c0,0-3.9,0.7-5.9-0.6c-4.9-3.2-11.2-10.1-13.6-7.5c-3.3,3.7,7.9,10.1,7.9,10.1
					s-16.9,5.9-15.1,11.9c1.5,5,13.8-5,13.8-5s-13.7,12.6-8.3,16.7c3.1,2.3,11.2-11,11.2-11s-3.7,12.8,0.5,12.2
					c5.9-0.8,3.1-14.8,3.1-14.8s3,1.9,6.3-0.4c2.3-1.6,2.6-4.8,2.6-4.8L241.4,299.7z"/>
			</g>
			<path class="st7" d="M282.7,241.3L248.6,277l-36.3-11.9l22.1-47.4c0,0,14.9,1.3,28.5,8.1C276.5,232.7,282.7,241.3,282.7,241.3z"
				/>
			<polygon class="st8" points="279.2,233.8 289.6,245.7 249.5,283.2 240.8,277.7 			"/>
		</g>
		<path class="st7" d="M150.2,271.3L57,257.6c16.8,38.1,58.8,76.5,58.8,76.5l102.8-17.9c0,0,25.9-42.3,26-93L150.2,271.3z"/>
		<path class="st8" d="M158.4,275.2l52.9-18.1l-4.3-14.1l27.1,4.8c0,0,1.5-27.3,1.5-30.5l-85.4,54.1L158.4,275.2z"/>
		<path class="st8" d="M144.1,278.1l-55.8,4.8l-1.8-14.7l-22.8,15.3c0,0-8.3-26.2-9.6-29.1l95.8,16.9L144.1,278.1z"/>
		<polygon class="st0" points="227.7,296.2 101.8,317.9 94.9,311.5 230.2,287.6 		"/>
		
			<rect x="148.5" y="295.5" transform="matrix(0.9848 -0.1736 0.1736 0.9848 -50.2097 32.2834)" class="st9" width="21.7" height="15.3"/>
		
			<rect x="118.8" y="303.6" transform="matrix(0.9848 -0.1736 0.1736 0.9848 -52.1951 25.7485)" class="st7" width="4.4" height="15.1"/>
		
			<rect x="200.9" y="289.1" transform="matrix(0.9848 -0.1736 0.1736 0.9848 -48.4365 39.7759)" class="st7" width="4.4" height="15.1"/>
		<path class="st0" d="M157.4,75.4c0,0-5.6,3.1-3.8,13c1.7,9.8,8.3,12.6,8.3,12.6s38.9-3.6,37-32.8c-1.9-29.3-23.3-38.7-23.3-38.7
			s3.9,16.9-2.1,29.5C167.6,71.5,157.4,75.4,157.4,75.4"/>
		<path class="st7" d="M62.4,74.3L50.3,61.1c13.5-7.5,23.3-24.2,22.7-39c20.2,3.6,37.9,1.9,57.4-9.7c5.4,13.9,22.5,26.6,37.1,28
			l-8.9,18.5c-14.7-7-32.9-9.6-51.6-6.3C89.1,55.8,73.7,63.7,62.4,74.3z"/>
		<path class="st7" d="M109.5,67.3c13.6-2.4,26.7-0.7,37.6,4.1L73.4,86.2C82.1,76.9,94.7,69.9,109.5,67.3z"/>
		<path class="st8" d="M147.1,71.3c-10.9-4.8-24-6.5-37.6-4.1c-14.5,2.6-27,9.4-35.6,18.5L62.4,74.3c11.3-10.6,26.8-18.5,44.5-21.7
			c18.8-3.3,36.9-0.7,51.6,6.3c0,0,0,0,0,0l-6.9,14.7C150.2,72.8,148.6,72,147.1,71.3z"/>
		<path class="st7" d="M56.8,97.8l111-19.6l-14-8.9c-24.7-7.8-62.5-2.5-82.3,13.7L56.8,97.8z"/>
		<g>
			<path class="st8" d="M129.5,14.6c-2.2,5.6-3.5,11.4-4.5,17.2c-0.9,5.8-1.6,11.7-1.4,17.7c2.2-5.6,3.5-11.4,4.5-17.2
				C129.1,26.5,129.8,20.6,129.5,14.6z"/>
		</g>
		<g>
			<g>
				<path class="st8" d="M75.2,24.2c1.8,5.8,4.5,11,7.3,16.2c3,5.1,6.1,10.1,10.1,14.6c-1.8-5.8-4.5-11-7.3-16.2
					C82.4,33.6,79.2,28.6,75.2,24.2z"/>
			</g>
		</g>
	</g>
</g>
<g id="Rote_Instructions">
</g>
<g id="Rote_Design_Extras">
</g>
<g id="Labels">
	<text transform="matrix(1 0 0 1 6.5375 -45.5671)"><tspan x="0" y="0" class="st1 st26 st27">4th Grade:</tspan><tspan x="0" y="24" class="st1 st26 st27">Pop-in</tspan></text>
</g>
</svg>
