<?xml version="1.0" encoding="utf-8"?>
<!-- Generator: Adobe Illustrator 19.2.0, SVG Export Plug-In . SVG Version: 6.00 Build 0)  -->
<svg version="1.1" xmlns="http://www.w3.org/2000/svg" xmlns:xlink="http://www.w3.org/1999/xlink" x="0px" y="0px"
	 viewBox="0 0 396.3 426.3" enable-background="new 0 0 396.3 426.3" xml:space="preserve" width="396.3" height="426.3" preserveAspectRatio="none">
<g id="Teacher_Pop-up">
	<g>
		<g>
			<path fill="#A72C22" d="M109.9,340.1c0,0-4.8-23.3-2.2-27c2.3-3.3,25.8-5.5,25.8-5.5C130,320.4,121.5,330.9,109.9,340.1z"/>
			<g>
				<path fill="#F26C3B" d="M162.9,392.3c0,0,20.5-9.4,36.3-5.8c15.8,3.6,19.6,11.3,7.7,14.4c-11.9,3.1-30.6,6.6-40.1,2.6
					c0,0-7.6,13.8-15.2,13.8c-7.6,0-0.9-13.6-0.9-13.6s-13.1,12.1-22.7,9.3c-9.5-2.8,2.3-17.3,13-18.2c0,0-11.9-2.6-10-7.5
					C132.9,382.4,156.7,380.3,162.9,392.3z"/>
				<path fill="#9C7250" d="M168.7,346.6l-5.8,45.7c0,0,31.7,5.7,50.9,2.6l-11.4-56.9L168.7,346.6z"/>
			</g>
			<g>
				<path fill="#4687C3" d="M269,380.4c0,0-22.2-3.7-36.5,4c-14.3,7.6-15.9,16-3.7,15.9c12.3-0.1,31.2-1.6,39.3-8
					c0,0,10.9,11.4,18.3,9.3c7.3-2-2.7-13.3-2.7-13.3s15.9,8.3,24.3,3c8.5-5.2-6.7-16.1-17.3-14.2c0,0,10.9-5.6,7.7-9.9
					C295.3,363,271.9,367.2,269,380.4z"/>
				<path fill="#9C7250" d="M251.4,337.8l17.6,42.6c0,0-27.6,10.7-48.4,16l-3.9-58L251.4,337.8z"/>
			</g>
			<path fill="#4687C3" d="M290.5,251.8c0,0,86.6,17.8,70.5,77.8c0,0,18.9-2.6,18.1,3.8c-0.8,6.4-16.2,3.7-16.2,3.7
				s8.9,9.2,6.2,12.6c-2.7,3.4-7.6-0.1-11.9-7.3c0,0-3.9,15.2-8.3,13.9c-4.3-1.3,3.1-16.5,3.1-16.5s-11.3,3.5-12.7,2.1
				c-1.4-1.4,1.8-12.8,13.4-8.1c0,0-16.1-27.6-67.8-27.1L290.5,251.8z"/>
			<path fill="#4687C3" d="M273.9,212.1c0,0,82.1-22.3,94.3,36.1c0,0,15.1-10.5,17.2-4.6c2.1,5.9-12.3,10.2-12.3,10.2
				s11.6,4,10.8,8.1c-0.8,4.1-6.5,3.3-13.4-1.1c0,0,3.2,14.7-1.1,15.5c-4.3,0.8-4.5-15.5-4.5-15.5s-8.2,7.9-10,7.3
				c-1.9-0.6-4-11.8,8-12.7c0,0-25.8-16.8-70,6.2L273.9,212.1z"/>
			<path fill="#F26C3B" d="M91.2,362.5c0,0-2,8,0.1,14.4c0,0-13.3-2.6-16.5,7.1c-3.2,9.6,14.3-3.5,14.3-3.5s-10.9,12.2-7.1,20.1
				c3.8,7.9,9.7-18.9,9.7-18.9s0.7,15.8,9.4,16.7c6.8,0.7-3.8-15.1-4.1-19.7c0,0,2.4-0.5,6.1,2.4c3.8,2.8,6.8,3.9,9,3.2
				c2.2-0.8-3.8-11.9-14.5-11c0,0-2.1-5.6-1.4-10.8L91.2,362.5z"/>
			<path fill="#F26C3B" d="M65.3,315.5c0,0-6.1,5.9-7.8,12.7c0,0-10.2-9.5-18.3-2.8c-8.1,6.7,14.4,4.8,14.4,4.8s-16.3,4.7-17.2,13.7
				c-1,9,18.8-11.3,18.8-11.3s-8.1,14.2-0.9,19.8c5.6,4.4,5-15.3,7.1-19.5c0,0,2.3,0.9,4.1,5.4c1.8,4.5,3.9,7.2,6.2,7.7
				c2.3,0.5,3.1-12.5-6.7-17.6c0,0,1.2-6.1,4.7-10.2L65.3,315.5z"/>
			<path fill="#9C7250" d="M308.6,218.6c-72.3-3.2-151.7,4.8-211.5,29.3C91,262,77.8,295.8,86,316.9c8.1,21.1,44.4,34.5,50.7,35.4
				c23,3.1,113,10.5,160.7-22.3C330.5,307.1,319.2,246.9,308.6,218.6z"/>
			<path fill="#9C7250" d="M95.7,257.7c0,0-28.8,24.8-42.4,56.6l18.9,10.4c0,0,12.8-47.4,25.2-55.6L95.7,257.7z"/>
			<polygon fill="#59331A" points="58.5,303.7 74.5,317 75.4,313.9 59.1,302.7 			"/>
			<path fill="#9C7250" d="M305.7,207.9c-14.4,0.5-27.7,2-27.7,2c1.8,21.1,3.7,24.9,9.5,37.7l5.4,14c18.7-9.7,34-12.3,45.6-12.1
				l10.2-31.3C336.2,209.8,319.9,207.7,305.7,207.9z"/>
			<path fill="#9C7250" d="M357,292.7c-17.3-30.7-66.5-40.8-66.5-40.8l-5.6,54.8c21.9-0.2,37.3,4.6,47.9,10.2L357,292.7z"/>
			<path fill="#59331A" d="M321.8,312.1c0.7,0.2,1.4,0.5,2.1,0.7l19.3-36.4c-1-0.9-2.1-1.7-3.1-2.5L321.8,312.1z"/>
			<path fill="#59331A" d="M330.6,315.7c0.8,0.4,1.5,0.8,2.2,1.1l24.2-24.2c-0.8-1.4-1.6-2.7-2.5-4L330.6,315.7z"/>
			<path fill="#59331A" d="M327.1,250.2c0.7-0.1,1.4-0.2,2.1-0.3l0.7-39.7c-1.3-0.3-2.5-0.6-3.8-0.8L327.1,250.2z"/>
			<path fill="#59331A" d="M336.1,249.5c0.8,0,1.6,0,2.4,0l10.2-31.3c-1.3-0.8-2.6-1.6-3.9-2.3L336.1,249.5z"/>
			<path fill="#9C7250" d="M86.5,299.7c0,0-10.9,35.1-5.8,68.1l20.9-1.2c0,0-13.8-45.5-7.8-58.5L86.5,299.7z"/>
			<polygon fill="#59331A" points="79.7,358.8 98.2,354.1 97.6,351.8 79.6,357 			"/>
			<g>
				<path fill="#A72C22" d="M114.9,117c0,0,18.6,13,18.5,17.9C133.2,137.7,118,151,118,151L114.9,117z"/>
				<path fill="#A72C22" d="M116.6,153.8c0,0,21.3,7.7,22.5,12.5c0.5,2.8-10.8,19.6-10.8,19.6L116.6,153.8z"/>
				<path fill="#A72C22" d="M125.5,195.3c0,0,24.1-1.6,26.2,2.8c1,2.7-8.6,26.5-8.6,26.5L125.5,195.3z"/>
				<path fill="#384E7D" d="M64.9,71c-0.1-0.5-0.1-1-0.2-1.5c-0.3-2.6-0.1-5.5,0.6-8.1c0.7-2.7,2.1-5,4.2-6.8
					c0.4-0.3,0.8-0.6,1.2-0.9c0.8-0.6,1.7-1.1,2.7-1.5c-1.7,0.7-3.3,1-4.8,2.1c-1.4,1-2.4,2.4-3.4,3.8c-2.7,3.6-3.1,7.3-2.5,10.9
					c0,0,0,0.1,0,0.1c-0.1-0.1-0.2-0.2-0.3-0.4c-2.8-3.8-5.7-8-5.8-12.8c-0.2-4.7,2.1-8.9,5-12.5c-1.1,0.9-2,1.9-2.9,3
					c-2.3,2.9-4,6.5-3.8,10.3c0.2,4.8,3,9.5,5.8,13.3c0.8,1.1,1.7,2.2,2.6,3.3l0.9,1.1c0.3-0.5,0.7-0.9,1-1.3l-0.1-0.7
					C65,72,65,71.5,64.9,71z"/>
				<path fill="#384E7D" d="M88.5,60.4c6.8-8.2,16.6-13.8,27.1-15.2c1-0.1,1.9-0.2,2.9-0.3c1.9-0.1,3.9-0.1,5.9,0.2
					c-1.9-0.3-3.7-0.6-5.6-0.7c-13.2-0.3-25.9,6.4-33.8,17c0,0.1-0.1,0.1-0.1,0.2c0-0.4-0.1-0.8-0.1-1.1c-0.6-8.7,0.7-17.4,6-24.7
					c4.7-6.4,12.1-11.2,19.9-12.8c1.3-0.3,2.6-0.5,3.9-0.6c1.3-0.1,2.6-0.2,3.9,0c-1.3-0.3-2.6-0.3-3.9-0.3
					c-11.3,0.1-22.5,7-28,16.8c-3.7,6.6-4.5,14.3-3.9,21.8c0.1,1.3,0.3,2.6,0.5,4c0.8-0.1,1.5-0.2,2.3-0.2c0.4-0.6,0.8-1.2,1.2-1.8
					C87.3,61.9,87.9,61.2,88.5,60.4z"/>
				<path fill="#4687C3" d="M160.6,50.9c-7-12.2-16.7-19.3-16.7-19.3l11.4-8.6c0,0-16.4-15.7-45.4-10.1c-29,5.5-35.2,25.4-35.2,25.4
					l0.3-12.9c0,0-25.3,10.1-26.7,29.9c-1.2,17,12.7,27.5,12.7,27.5c0.4-3.2,1.5-6,3.1-8.3l-0.9-1.1c-0.9-1.1-1.8-2.2-2.6-3.3
					c-2.8-3.8-5.6-8.5-5.8-13.3c-0.2-3.8,1.5-7.4,3.8-10.3c0.9-1.1,1.8-2.1,2.9-3c-2.9,3.6-5.1,7.8-5,12.5c0.2,4.9,3,9,5.8,12.8
					c0.1,0.1,0.2,0.2,0.3,0.4c0-0.1,0-0.1,0-0.1c-0.5-3.6-0.2-7.3,2.5-10.9c1-1.4,2.1-2.8,3.4-3.8c1.5-1.1,3.1-1.4,4.8-2.1
					c-1,0.4-1.9,0.9-2.7,1.5c-0.4,0.3-0.8,0.6-1.2,0.9c-2.1,1.8-3.5,4.2-4.2,6.8c-0.7,2.6-0.8,5.5-0.6,8.1c0,0.5,0.1,1,0.2,1.5
					c0.1,0.5,0.1,1,0.2,1.4l0.1,0.7c4.2-4.9,11-7.5,18-8.4c-0.3-1.4-0.4-2.7-0.5-4c-0.6-7.5,0.2-15.2,3.9-21.8
					c5.5-9.8,16.7-16.7,28-16.8c1.3,0,2.7,0.1,3.9,0.3c-1.3-0.1-2.6-0.1-3.9,0c-1.3,0.1-2.6,0.3-3.9,0.6
					c-7.8,1.6-15.3,6.4-19.9,12.8c-5.3,7.2-6.6,15.9-6,24.7c0,0.4,0.1,0.7,0.1,1.1c0-0.1,0.1-0.1,0.1-0.2
					c7.8-10.6,20.5-17.3,33.8-17c1.9,0,3.7,0.4,5.6,0.7c-1.9-0.3-3.9-0.3-5.9-0.2c-1,0.1-1.9,0.2-2.9,0.3
					c-10.6,1.4-20.4,6.9-27.1,15.2c-0.6,0.7-1.2,1.5-1.8,2.3c-0.4,0.6-0.8,1.2-1.2,1.8c8-0.6,15.9,0.9,20.2,3.7
					c0.9,0.6,2,1.9,2.8,2.9c-0.9,1-2.5,3.4-2.9,8.6c-0.7,7.5,5.5,17.3,5.5,17.3l0.6-8.7c0,0,0,0,0,0.1l1.8,15.5l12.7,12.6l9.8-14.3
					l12.7,16.4c0,0,8.9-12.1,8.3-26.7c-0.6-14.7-5.6-23.4-5.6-23.4l17.3,5.6C169,73.9,167.6,63.1,160.6,50.9z"/>
				<path fill="#EEE9D9" d="M45.6,142.5c0,0,0.7,12.6-1.6,12c-2.3-0.5-8.2-12.5-8.2-12.5L45.6,142.5z"/>
				<path fill="#F26C3B" d="M134.2,269.4c9.5-5.6,17.4-30.8,17.4-30.8s-1.4-1.9-3.7-5.9c-5.7-10-16.7-32.9-24.1-70.8
					c-10.2-53-10.1-92-10.1-92s-16.2-10.7-33.9-8.2c-17.7,2.5-20.3,13.8-20.3,13.8S54.9,81.2,62,91c7.1,9.8,13.5,13.1,13.5,13.1
					l-11.4,11.4c0,0-19.2-19.9-35.7-10.5c-16.4,9.4,6.3,42.3,6.3,42.3s2.1,1.7,14.3-0.5c12.2-2.2,16.2-6,16.2-6s3.2,9.7,12.4,8.9
					c9.3-0.8,21.8-22.5,21.8-22.5s-2.8,37.5-3.4,62.2c-0.6,22.8,3.4,55.6,4,60.6c0.1,0.4,0.1,0.7,0.1,0.7S116.9,270.7,134.2,269.4z"
					/>
				<path fill="#EEE9D9" d="M75.7,135.3c0,0,5.1,8.7,6.4,7.3c1.3-1.4-0.1-11.9-0.1-11.9L75.7,135.3z"/>
				
					<ellipse transform="matrix(0.9661 -0.2581 0.2581 0.9661 -24.9225 29.5442)" fill="#A72C22" cx="100.1" cy="109.7" rx="1.8" ry="1.8"/>
				<path fill="#A72C22" d="M65.3,140.8c0,0,0.7-0.2,1.8-0.8c1.1-0.6,2.7-1.5,4.6-2.7c10.1-6.6,21-14.8,27.6-25.1
					c0.7-1.1,1-1.7,1-1.7s-0.2,0.7-0.7,1.9c-0.3,0.6-0.6,1.3-1,2.1c-5.7,10.5-15.8,18.4-26.4,23.8c-2,1-3.8,1.7-5,2.1
					C66,140.7,65.3,140.8,65.3,140.8z"/>
				
					<ellipse transform="matrix(0.9661 -0.2581 0.2581 0.9661 -24.0522 11.1935)" fill="#F26C3B" cx="30.6" cy="97.2" rx="8.3" ry="11.1"/>
				
					<ellipse transform="matrix(0.9661 -0.2581 0.2581 0.9661 -24.0522 11.1935)" fill="#A72C22" cx="30.6" cy="97.2" rx="4.6" ry="6.2"/>
				
					<ellipse transform="matrix(0.5683 -0.8229 0.8229 0.5683 -85.2406 63.1085)" fill="#F26C3B" cx="17.5" cy="112.8" rx="6.9" ry="9.3"/>
				
					<ellipse transform="matrix(0.5683 -0.8228 0.8228 0.5683 -85.2355 63.0974)" fill="#A72C22" cx="17.5" cy="112.8" rx="3.9" ry="5.2"/>
				<g>
					<path fill="#F26C3B" d="M108.4,94.9l28.3-53.5l-0.3,45.4c0,0-3.3,1.2-7.2,4.9c-3.9,3.6-3.4,10.8-3.4,10.8L108.4,94.9z"/>
					<path fill="#A72C22" d="M120.6,82.8c-3.4,9.4,5.2,19.6,5.2,19.6c0-1-0.2-7.3,3.4-10.7c3.9-3.7,7.2-4.9,7.2-4.9l0.2-27.1
						C136.6,59.7,124,73.4,120.6,82.8"/>
				</g>
				<g>
					<path fill="#EEE9D9" d="M83,89.6c1.2,4.5-0.8,8.9-4.3,9.8c-3.6,0.9-7.4-2-8.6-6.4c-1.2-4.5,0.8-8.9,4.3-9.8
						C78,82.2,81.9,85.1,83,89.6"/>
					<path fill="#EEE9D9" d="M97.7,85.9c1.2,4.5-0.8,8.9-4.3,9.8c-3.6,0.9-7.4-2-8.6-6.4c-1.2-4.5,0.8-8.9,4.3-9.8
						C92.7,78.5,96.5,81.4,97.7,85.9"/>
					<path fill="#26221D" d="M81.1,91.2c0.6,2.2-0.4,4.4-2.2,4.9c-1.8,0.5-3.7-0.9-4.3-3.1c-0.6-2.2,0.4-4.4,2.2-4.9
						C78.6,87.6,80.6,89,81.1,91.2"/>
					<path fill="#26221D" d="M95.1,87.7c0.6,2.2-0.4,4.4-2.2,4.9c-1.8,0.5-3.7-0.9-4.3-3.1C88,87.2,89,85,90.8,84.5
						C92.6,84.1,94.5,85.5,95.1,87.7"/>
					<path fill="#A72C22" d="M83.4,74.6c0,1.3,0.6,2.2,1.3,2c3.9-1,8-0.8,11.9,0.4c0.7,0.2,0.8-0.3,0.8-1.1c0,0-0.1-0.8-1.2-1.3
						c-3.7-1.7-7.5-2.6-11.1-2.6C83.5,72.3,83.4,73.3,83.4,74.6"/>
					<path fill="#A72C22" d="M77.4,74.7c0.8,1.1,0.9,2.1,0.2,2.4c-3.7,1.6-6.8,4.2-9.2,7.6c-0.4,0.6-0.8,0.2-1.3-0.4
						c0,0-0.4-0.7,0.1-1.8c1.9-3.6,4.4-6.6,7.3-8.8C75.8,72.9,76.6,73.7,77.4,74.7"/>
				</g>
				<g>
					<path fill="#26221D" d="M99.5,98.1C99.5,98.1,99.5,98.1,99.5,98.1l-12.3,2.8c-0.2,0-0.3,0-0.4-0.1c0,0-2.4-1.8-5-0.9
						c-2.7,0.9-3.3,2.8-3.4,2.8c-0.1,0.3-0.4,0.4-0.7,0.3c-0.3-0.1-0.4-0.4-0.3-0.7c0-0.1,0.8-2.4,4-3.5c2.7-0.9,5.1,0.4,5.8,0.9
						l11.9-2.7L114.9,85c0.2-0.2,0.6-0.1,0.8,0.1c0.2,0.2,0.1,0.6-0.1,0.8L99.7,98C99.6,98.1,99.6,98.1,99.5,98.1z"/>
					<path fill="#83D2E5" d="M81.8,101.9c0.9,3.4-1.8,7.1-6.1,8.3c-4.3,1.2-8.5-0.7-9.4-4.1c-0.9-3.4,1.8-7.1,6.1-8.3
						C76.6,96.6,80.9,98.4,81.8,101.9"/>
					<path fill="#83D2E5" d="M101.8,97.6c0.9,3.4-1.8,7.1-6.1,8.3c-4.3,1.2-8.5-0.7-9.4-4.1c-0.9-3.4,1.8-7.1,6.1-8.3
						C96.6,92.4,100.8,94.2,101.8,97.6"/>
				</g>
			</g>
			<g>
				<path fill="#384E7D" d="M186.6,139.3c-1.3-2.3-8.5,6.9-7.2,17.3c1.4,11.6,9.3,15.8,9.3,15.8s7.9,6.7,17.3,2
					c9.4-4.7,2.1-11.2,2.1-11.2s1.7-6.4-5.5-7.5C192.9,154.1,188,141.7,186.6,139.3z"/>
				<path fill="#4687C3" d="M167.6,241c0,0-0.6-4.6-0.5-11.1c0-17.8,4.3-49.9,36.2-40.3c0,0-41.2-54.4,35.9-47.1
					c30.1,2.9,55,46.2,64.9,66.1c3,6,4.6,9.9,4.6,9.9s-36.4,48.1-66.3,55.6c-14,3.5-31.3-3.6-45.8-12.1
					C180.2,252.4,167.6,241,167.6,241z"/>
				<path fill="#384E7D" d="M253.7,122.6c1.7-2,12.4,6.7,15,17.2c2.7,10.6-0.5,17.9-0.5,17.9s-1.3,2.1-10.3-0.1
					c-9-2.2-12.1-6.1-12.1-6.1s3.9-4.5,6.6-11.7C255.2,132.5,252,124.5,253.7,122.6z"/>
				<g>
					<path fill="#F26C3B" d="M241,169.1c0,0,17.3-3.5,8.6-11.5c-2.9-2.7-11.6,2.6-11.6,2.6s9.4-22.3-6.3-25.5c-6.3-1.3-5,16-5,16
						s-3.8-16.7-13.5-16.4c-5.9,0.2,0.6,19,0.6,19s-10.3-12-14.3-6.9c-4,5.1,5.2,15.5,5.2,15.5s-7.5-0.8-9.3,4
						c-2.4,6.2,7.9,7.7,7.9,7.7L241,169.1z"/>
					
						<ellipse transform="matrix(0.9877 -0.1567 0.1567 0.9877 -24.1778 36.9412)" fill="#EEE9D9" cx="222.2" cy="171.8" rx="19" ry="17.7"/>
					
						<ellipse transform="matrix(0.9877 -0.1567 0.1567 0.9877 -24.5649 37.3639)" fill="#26221D" cx="224.7" cy="174.5" rx="5.4" ry="6.5"/>
					<path fill="#384E7D" d="M203.5,174.8c-1.5-9.6,5.6-18.8,16-20.4c10.3-1.6,20,4.8,21.5,14.5c0,0.1,0,0.2,0,0.3
						c-6.1-8.6-13.4-11.1-20.7-9.8c-8.9,1.6-14.7,7.3-15.9,18.7C204,177,203.7,175.9,203.5,174.8z"/>
				</g>
				<path fill="#EEE9D9" d="M262.4,194c0,0-9.7-5.7-11.5-4.7c-1.8,1-3.1,13.2-3.1,13.2l8.2-3.6L262.4,194z"/>
				<path fill="#EEE9D9" d="M220.7,207.1c0,0-4.3-11-6-11.1c-1.7-0.1-8.2,10.7-8.2,10.7l7.5,1.1L220.7,207.1z"/>
				
					<ellipse transform="matrix(0.9877 -0.1567 0.1567 0.9877 -24.4121 44.9291)" fill="#384E7D" cx="272.8" cy="177.3" rx="2.3" ry="2.3"/>
				<path fill="#384E7D" d="M273.2,178c0,0-0.4,1.6-1.7,4c-3,5.7-7.5,10-12.7,13.8c-4,2.9-8.9,4.8-13.5,6.3
					c-5.3,1.7-10.7,2.5-16.2,3.3c-9.9,1.2-20,1.4-29.9-0.2c-5.1-0.8-10.6-1.9-15.2-4.2c0,0,0.3,0.2,1,0.6c4.3,2.5,9.1,4.1,14,5.2
					c9.9,2.2,20.4,2.6,30.5,1.3c5-0.7,10-1.4,14.9-2.9c5.3-1.7,11.4-4,15.7-7.6c2.3-1.7,4.2-3.5,5.8-5.3c2.1-2.4,3.9-4.9,5.3-7.8
					c0.4-0.8,0.7-1.5,0.9-2.1c0.5-1.3,0.8-2.4,1-3.1C273.1,178.3,273.2,178,273.2,178z"/>
				<path fill="#384E7D" d="M224.6,228c-0.2-0.3-0.3-0.6-0.5-0.8c-1-1.1-2.6-1.8-4.2-2.2c1.7-0.1,3.5,0,5.1,1.1
					c0.8,0.6,1.5,1.3,2,2.2c0.5,0.9,1,2.9,1,2.9c0.6,2.4-0.7,5.8-2.3,6c-1.7,0.2-3.2-1.8-3.5-4.3C221.9,230.4,223,228.2,224.6,228z"
					/>
			</g>
			<path fill="#59331A" d="M248.7,273.5c2.7,0.6,5.4,1.3,8,2c2.7,0.7,5.3,1.4,8,2.2c4.6,1.4,9.3,2.9,13.7,5c0.6,0.3,1.3,0.7,1.9,1
				l-1.2,0.2c0.3,0,0.9-1.1,1-1.3c0.4-0.5,0.8-1.1,1.2-1.6c0.6-0.9,1.3-1.8,1.9-2.7c1.3-2.1,2.7-4.9,3.9-7c2.4-4.3,4.4-7.9,6.4-12.3
				c4.5-10,7.8-19.1,11.2-28.9c0.5-1.5,1-3,1.5-4.5c0.2-0.7,1.1-2.2,0.9-2.9c0.5-1.4,1-2.9,1.4-4.3c-0.3,1.5-0.7,3-1,4.4l-1.1,4.4
				c-2.4,9.7-5.7,19.2-9.5,28.5c-2,4.9-4.2,9.6-6.7,14.3c-2.8,5.3-5.8,10.8-9.8,15.2l-0.5,0.5l-0.7-0.4c-4.8-2.6-9.9-4.5-15-6.4
				l-7.8-2.8L248.7,273.5z"/>
			<path fill="#59331A" d="M167.5,240.6c0.7,1.5,1.5,2.8,2.3,4.3c0.8,1.4,1.6,2.8,2.5,4.2c5.1,8.3,11,16.4,17.6,23.6
				c6.6,7.1,14.5,14.5,23.3,18.8c0.8,0.4,1.7,0.7,2.5,1c1.4,0.7,2.9,1.2,4.4,1.8l-1.1,0.4c0.4-0.6,0.9-1.2,1.3-1.7
				c0.4-0.6,0.9-1.1,1.4-1.6c5.7-6.4,12.6-11.4,20.1-15.5c0.6-0.4,1.3-0.6,1.9-0.9l1.9-0.9c-1.2,0.7-2.4,1.4-3.6,2.2
				c-7.6,4.8-14.9,10.8-20.2,18c-0.4,0.5-0.8,1.1-1.2,1.6l-0.4,0.6l-0.7-0.2c-18.9-6.8-32.7-21.5-43.1-38.2
				c-0.8-1.4-1.7-2.8-2.5-4.2c-0.8-1.4-1.6-2.8-2.3-4.3C170.1,246.5,168.7,243.6,167.5,240.6z"/>
			<path fill="#59331A" d="M246.6,275.2c0,0,2.8,13.9,2.1,32.7c0,0,2,1.8,9.1,2.3c0,0-7.7-28.4-9.4-35.3L246.6,275.2z"/>
			<path fill="#EEE9D9" d="M248.7,273.5l-3.1,0.5l0.7,11.4l5.9-1.9L248.7,273.5z M247,279.5l2.6-0.4l1,3l-3,1.4L247,279.5z"/>
			<g>
				<path fill="#59331A" d="M135.4,277.5c0,0,3.8,17.4,5.1,40.8c0,0,1.9,2.3,8.1,3.2c0,0-9.5-35.6-11.7-44.4L135.4,277.5z"/>
				<path fill="#EEE9D9" d="M138.4,276.2l-3.1,0.1l-0.8,11.4l6.1-1.1L138.4,276.2z M135.9,281.9l2.6-0.1l0.6,3.1l-3.1,1L135.9,281.9
					z"/>
				<path fill="#59331A" d="M99.1,256.9c0.1,1.2,0.7,2.6,1,3.8c0.4,1.3,0.8,2.6,1.2,4c0.8,2.6,1.8,5.2,2.8,7.8
					c2.1,5.1,4.6,9.9,7.8,14.4c1.4,2,3,3.9,4.7,5.7l1.9,1.9l-1.6,0.5c0.2-0.6,0.4-1.1,0.7-1.6c0.2-0.5,0.5-1,0.8-1.5
					c3.2-5.7,8.1-10.2,13.6-13.6c0.9-0.6,1.9-1.1,2.8-1.6l-2.5,2c-0.8,0.7-1.6,1.3-2.4,2.1c-3.8,3.5-7.5,7.5-9.8,12.1
					c-0.2,0.5-0.5,0.9-0.7,1.4c-0.2,0.5-0.4,1-0.5,1.4l-0.5,1.6c0,0-1.2-1.1-1.2-1.1c-7.5-7.3-12.6-16.1-15.6-26.1
					C100.3,265.6,99.4,261.3,99.1,256.9z"/>
				<path fill="#59331A" d="M136.1,276.2c1-0.1,2,0,3,0c6,0.3,11.9,2.5,17.2,5.3c0.9,0.5,1.8,1,2.6,1.5l-1.4,0.4
					c0.3-0.8,0.6-1.7,0.9-2.6c3-9.8,3.7-20.9,0.6-30.8c-0.2-0.8-0.5-1.5-0.8-2.3c-1-2.7-2.2-5.3-3.5-7.8c0.9,1.6,2.2,3.1,3.1,4.7
					c1,1.7,1.8,3.5,2.5,5.3c3.8,10,3.5,21.4,0,31.4c-0.4,1.3-1,2.5-1.5,3.8l-1-0.6c-5.8-3.5-12.2-6.7-18.9-7.8
					C138,276.6,137.1,276.2,136.1,276.2z"/>
			</g>
			<path fill="#59331A" d="M136.3,352.3c0,0,29.7,8.2,74.5,3.9c24.8-2.4,59.6-9.6,84.6-24.6c0,0-31.9,15.2-76.4,20.5
				C193.9,355.2,164.6,356.6,136.3,352.3z"/>
		</g>
	</g>
</g>
</svg>
