<?xml version="1.0" encoding="utf-8"?>
<!-- Generator: Adobe Illustrator 21.1.0, SVG Export Plug-In . SVG Version: 6.00 Build 0)  -->
<svg version="1.1" xmlns="http://www.w3.org/2000/svg" xmlns:xlink="http://www.w3.org/1999/xlink" x="0px" y="0px"
	 viewBox="0 0 425.2 524.1" enable-background="new 0 0 425.2 524.1" xml:space="preserve" width="425.2" height="524.1" preserveAspectRatio="none">
<g id="BG">
</g>
<g id="Clod_x27_s_Desk">
</g>
<g id="Left_Back_Smoke">
</g>
<g id="Right_Back_Smoke">
</g>
<g id="White_Frame_Drop_Shadow">
</g>
<g id="White_Frame_BG">
</g>
<g id="Submit_Button_1_">
</g>
<g id="Left_Tool_Bar_Tab">
</g>
<g id="Right_Info_Tab">
</g>
<g id="Top_Tab">
</g>
<g id="Left_Tools">
</g>
<g id="Clod_x27_s_Cape">
</g>
<g id="Clod_x27_s_Mask">
</g>
<g id="Microscope_1_">
</g>
<g id="Right_Front_Smoke">
</g>
<g id="Left_Front_Smoke">
</g>
<g id="Keyboard">
</g>
<g id="Clod_Pop-up">
</g>
<g id="Layer_28">
	<g>
		<path fill="#EE4036" d="M172.1,415.7c0,0,25.8-17.4,65.4-27.3c34.3-8.6,73.2-11.1,79.7-9.1c0,0-22.1-209.8-103.5-201.6
			c-104.8,10.5-59.4,176-50.2,228.7L172.1,415.7z"/>
		<path fill="#070000" d="M159.3,426.6c0,0-36.7-188.3,1-227.5c37.7-39.2,69.6-29.7,99.6-9s82.3,153.6,85.8,200.6
			c0,0-17,16-52.3,25.4c0,0,12.8-246-85.5-227.8c-90.6,3.3-28.7,220.5-16.6,245.7C191.4,434,174.9,435.9,159.3,426.6"/>
	</g>
	<g>
		<path fill="#37302E" d="M198.7,308.5l-2-0.8c0,0-67.2,1.6-79.2,44.1c-1.1,3.9,12.3,7,13.1,3.9c3.4-12.8,12.1-33.4,68.4-35.9
			C198.9,319.7,202.5,314.9,198.7,308.5z"/>
		<path fill="#070000" d="M119.3,332l-9.1,29.7c-4.1-10.1-11.7-12.3-14.7-11.7c-7.5,1.7-6.7,10-6.7,10c10.6-2.7,14.8,4.1,14.8,4.1
			l-4.1-0.5c-25.1-4-13.7,20.7-13.7,20.7c3.2-8.1,23.4-13.8,23.4-13.8l-6.1,4.6c-17,17.8,5.3,25.1,5.3,25.1
			c-2.9-17.2,9.1-28.9,9.1-28.9s5.1,0.7,7.4,4.5c2.2,3.7,4.3,10.5,4.3,10.5c14.9-23.1-9.4-20.1-9.4-20.1l19.9-9.8
			C139.5,356.5,139.5,340.8,119.3,332z"/>
	</g>
	<g>
		<path fill="#37302E" d="M188.3,270.5c0,0-72.2-10.3-91,29.7c-1.7,3.6,11,8.9,12.3,6c5.4-12.1,23-30.1,78.9-23.4
			C188.5,282.8,190.9,277.4,188.3,270.5"/>
		<path fill="#070000" d="M102.3,281l-13.8,27.8c-2.4-10.6-9.6-14.1-12.6-13.9c-7.7,0.4-8.3,8.8-8.3,8.8c10.9-1,13.9,6.4,13.9,6.4
			l-4-1.1c-24.2-8-16.9,18.2-16.9,18.2c4.5-7.5,25.3-9.8,25.3-9.8l-6.8,3.5c-19.7,14.8,1.1,25.7,1.1,25.7c-0.1-17.5,13.7-27,13.7-27
			s4.9,1.6,6.6,5.6c1.6,4,2.5,11.1,2.5,11.1c18.4-20.4-6-21.4-6-21.4l21.2-6.4C118.2,308.4,120.8,292.9,102.3,281z"/>
	</g>
	<g>
		<path fill="#37302E" d="M186.3,230.4c0,0-70.1-20.2-94.2,16.8c-2.2,3.4,9.7,10.4,11.3,7.7c7-11.2,26.9-26.6,81.4-12.2
			C184.8,242.6,188,237.7,186.3,230.4"/>
		<path fill="#070000" d="M99.7,228.9l-17.5,25.7c-0.9-10.9-7.5-15.3-10.6-15.5c-7.6-0.6-9.4,7.6-9.4,7.6c11,0.5,12.9,8.3,12.9,8.3
			l-3.8-1.7C48.5,242,52,268.9,52,268.9c5.5-6.8,26.4-6.2,26.4-6.2l-7.2,2.5c-21.5,12-2.4,25.6-2.4,25.6
			c2.3-17.3,17.3-24.9,17.3-24.9s4.7,2.2,5.7,6.5c1,4.2,1,11.3,1,11.3c21.1-17.6-3-22-3-22l21.9-3.4
			C111.7,258.3,116.4,243.3,99.7,228.9z"/>
	</g>
	<path fill="#4C4341" d="M294.5,129.3c-3.6-12.2,7.4-15.2-1.2-36.9c-8.7-21.7-38.8-24.7-38.8-24.7l26-19.5c0,0-43.7-33.2-89.5-24.7
		c-37.9,7.1-46.1,15.7-47.8,18.5l9.9-20.8c0,0-50.9,8.7-67.6,39.8c-8.4,15.7-3.9,33.6,1.8,41.5c5.7,8,13.3,10.6,14,11.5
		c4.8-16.6,26.5-33.7,74.6-40.5c20.8-3,33.3-2,42.4,1.7c-1.1,6.5,0.6,18.1,2.8,28c9.4,43.1,43.6,70.6,68.3,62.7
		c24.6-7.9,25.4-26.9,25.4-26.9S298,141.6,294.5,129.3z"/>
	<path fill="#4C4341" d="M138.1,49c0,0,6.6-16.6,27.7-28c21.1-11.4,53-3.8,53-3.8l-39.9,26.9L138.1,49z"/>
	<path fill="#292F2F" d="M117.6,84.6c-3.1-1.8-4-6.1-4.4-9.4c-0.9-9.8,0.8-19.9,6.2-28.3c3.8-6.1,9.3-11.5,15.2-15.5
		c1.1-0.7,2-1.3,2.8-1.8c1.6-1,2.5-1.4,2.5-1.4s-0.9,0.6-2.3,1.7c-9.6,7.5-17.7,16.9-21.2,28.8c-1.6,5.2-2.3,11-2,16.5
		c0.1,3.1,0.7,5.7,1.5,7.3c0.4,0.8,0.8,1.4,1.2,1.7C117.3,84.5,117.6,84.6,117.6,84.6z"/>
	<path fill="#292F2F" d="M222.5,31.6c-1.9-0.6-3.8-0.9-5.8-1.1c-6.9-0.6-13.9,0-20.7,1.5c-6.5,1.4-13.3,3.5-19.2,6.7
		c-11.1,6.1-19.2,16.3-24.1,27.9c-0.4,1-0.8,1.9-1.2,2.9c-0.7,1.8-1.3,3.7-1.8,5.5l-1.5-1.1c3.6-2,7.2-3.9,10.9-5.6
		c13.5-6.4,27.9-11.6,42.8-13c9.3-0.9,19-0.7,28.2,0.9c2,0.3,4,0.7,6,1.3c1.9,0.6,3.9,1.2,5.6,2.2c-1.8-1-3.8-1.5-5.7-1.9
		c-2-0.5-4-0.7-6-1c-20-2.6-40.4,0.9-59.1,8.5c-7.5,3-14.8,6.5-21.7,10.5l-2.1,1.2l0.6-2.3c0.5-2,1.2-3.9,1.9-5.8
		c3.7-9.8,9.5-18.9,17.7-25.6c7.5-6.1,16.4-9.7,25.8-11.5c7.8-1.5,15.7-2.5,23.6-1.5C218.7,30.5,220.6,30.9,222.5,31.6z"/>
	<path fill="#292F2F" d="M298.1,154.5c-16.7,4.4-31.7-6.9-42.5-18.1c-6.5-6.7-12.7-13.3-18.4-20.7c-4.2-5.5-8-11.6-11.9-17.2
		c2.5,2.1,5,4.2,7.6,6.3c4.5,3.5,9.2,7,14,10.1c1.2,0.7,2.4,1.6,3.7,2.3c6.6,3.6,13,5.9,20.7,5.1c1.4-0.2,2.9-0.4,4.2-0.9
		c1.4-0.5,2.7-1,3.8-2c-3.8,3-10.2,2.8-14.7,2c-4.7-0.8-9.3-2.9-13.4-5.3c-1.2-0.7-2.4-1.5-3.6-2.3c-4.7-3.2-9.2-6.7-13.7-10.3
		c-4.4-3.6-10.7-9.2-12.7-11.9c-1.9-2.7-3.3-6.9-3.3-6.9l1.1,8.4c5.5,10.3,10.7,17.1,16.5,24.5c5.8,7.4,12,13.3,18.6,20.1
		c0.6,0.6,1.1,1.1,1.7,1.7c10.9,10.7,26.2,20.7,42.2,15.5c2.2-0.7,4.4-1.9,5.8-3.8C302.5,152.9,300.3,153.9,298.1,154.5z"/>
	<path fill="#59C4C6" d="M248.6,134.5c-7.9-17.5-24.4-40.8-22.3-61.4C220.2,63,206,49.3,173.7,50.9c-48.5,2.4-71.6,25.6-83.1,51
		c-4.6,10-7.3,20.4-9.1,30c-4.5,24.1,9.7,47.5,18.5,58.5c11.8,14.6,47,4.5,47,4.5c2.9-0.9,6.3-1.9,10-2.9c3.9,1.5,8.3,4,13,8.3
		c15.7,14.3,21.2,46.2,21.2,46.2l31.2-10.1c0,0-23.6-34.3-28.9-56.2C225.4,168.6,256.8,152.7,248.6,134.5z"/>
	<path fill="#37302E" d="M166.4,266.3c10.7,39.5,2.2,80,26.1,90.8s72-4.4,80.3-22.4c8.3-18.1,6.3-75.4-12.6-119.2
		c-24.7-57.2-92-35-103.1-16.8C143.3,221.1,156.8,231.2,166.4,266.3"/>
	<path fill="#191818" d="M180.6,183.5c0,0,0,0.7-0.1,2c-0.4,8.8,2.2,17.3,4.9,25.6c2.9,9,6.1,17.9,8.6,27.1
		c2.8,10.2,4.7,20.7,5.9,31.2c2.4,20.4,2.8,41.4,9.4,61.1c0.7,1.9,1.4,3.9,2.1,5.8c2,5.2,4.6,10,7.2,14.8c0.1,0.1,0.1,0.2,0.2,0.4
		c1.3,2.1,2.3,3.8,3,4.9c0.7,1.1,1.1,1.7,1.1,1.7s-0.4-0.6-1.2-1.7c-0.7-1.1-1.9-2.7-3.3-4.8c-6.2-9.7-10.8-20.4-13.7-31.5
		c-1.3-5-2.1-10-3-15.1c-0.8-5.3-1.4-10.8-1.9-16.3c-2.2-20.8-4.7-41.3-10.7-61.4c-1.6-5.3-3.2-10.6-4.9-15.9
		c-2.4-8.1-5.1-17.5-3.9-26C180.6,184.2,180.6,183.5,180.6,183.5z"/>
	<path fill="#191818" d="M243.5,192.8c0,0-0.2,0.1-0.6,0.2c-0.4,0.1-0.9,0.4-1.5,0.7c-1.2,0.6-2.9,1.9-4.2,3.9
		c-1.4,1.9-2.2,4.6-2.3,7.5c-0.1,5.4,3.1,11,8.3,13c4.6,1.7,9.7,0.3,13-3.2c0.2-0.2,0.4-0.4,0.5-0.6c0.9-1.1,1.4-1.8,1.4-1.8
		s-0.1,0.2-0.2,0.5c-0.2,0.3-0.4,0.9-0.8,1.5c-0.8,1.2-2.1,2.9-4.3,4.3c-2.1,1.4-5.4,2.3-8.6,1.6c-8.6-1.9-13.3-12.2-10-20.1
		c1.3-3.1,3.8-5.8,7-6.9c0.7-0.3,1.2-0.4,1.6-0.4C243.3,192.8,243.5,192.8,243.5,192.8z"/>
	<path fill="#191818" d="M268.7,240.6c-2.5-0.5-5.1-0.2-7.4,0.9c-3.6,1.7-6.5,5.4-7.1,9.4c-0.7,4.4,1,8.9,4.5,11.5
		c1.1,0.9,2.3,1.5,3.5,1.9c3.5,1.3,7.3,0.8,10.4-1.1c0.3-0.2,0.5-0.3,0.5-0.3s-0.1,0.1-0.4,0.4c-0.3,0.2-0.7,0.7-1.3,1
		c-3,1.6-6.3,2.5-9.7,1.5c-1.4-0.4-2.9-1-4.2-1.9c-4.3-3.1-6.5-8.2-5.4-13.4c0.3-1.7,1-3.2,1.8-4.6c1.5-2.3,3.7-4.2,6.3-5.2
		C263,239.6,266,239.7,268.7,240.6z"/>
	<path fill="#191818" d="M276.3,287.8c0,0-0.2-0.1-0.6-0.2c-0.4-0.1-0.9-0.3-1.6-0.4c-4.6-0.5-9.2,1.2-12.2,4.8
		c-0.9,1.1-1.7,2.4-2.2,3.8c-1.1,2.8-1,6,0.2,8.8c1.5,3.5,4.5,6.4,8.1,7.7c2.9,1,5.8,0.8,8.6-0.1c0,0-0.2,0.1-0.5,0.3
		c-0.4,0.1-0.8,0.5-1.5,0.7c-0.7,0.2-1.5,0.5-2.6,0.6c-5.8,0.6-11.7-3-14-8.4c-1.4-3.4-1.4-6.8-0.2-10.3c2.7-7,11.1-10.5,17.9-7.6
		C276.1,287.7,276.3,287.8,276.3,287.8z"/>
	<path fill="#191818" d="M261.3,241.2c-0.5,0.1-1-0.2-1.2-0.7c-2.5-7.2-5.5-14.2-8.8-20.8c-0.3-0.5-0.1-1.1,0.4-1.4
		c0.5-0.3,1.1-0.1,1.4,0.4c3.4,6.7,6.4,13.8,8.9,21.1c0.2,0.5-0.1,1.1-0.6,1.3C261.3,241.2,261.3,241.2,261.3,241.2z"/>
	<path fill="#191818" d="M270.4,286.8c-0.1,0-0.1,0-0.2,0c-0.6,0-1.1-0.4-1.1-1c-0.5-6.7-1.3-13.5-2.5-20.1c-0.1-0.6,1.9-0.9,2-0.4
		c1.2,6.7,2.1,13.6,2.6,20.4C271.3,286.2,270.9,286.7,270.4,286.8z"/>
	<path fill="#191818" d="M266.1,342.5c0,0,1.3-7.1,2-14.3c0.8-7.2,1-14.3,1-14.3c0-0.6,0.5-1,1.1-1c0.6,0,1,0.5,1,1.1
		c0,0,0,0.1,0,0.1c0,0-0.7,7.2-2,14.3C267.9,335.6,266.1,342.5,266.1,342.5z"/>
	<path fill="#070000" d="M176.1,179.6c50.1-16.7,65.1,0.3,78.6,8.2c0,0-27.7,28.9-23.3,52c0,0-29.6-27.5-46.2-27.5
		c-10.7,6.2-24.4,25.2-22.6,41.6C157.2,249.5,130.2,194.9,176.1,179.6"/>
	<g>
		<path fill="#37302E" d="M242.8,204.9c0,0,54.6-48.4,92.3-25.4c3.4,2.1-4.3,13.5-7,11.8c-11.2-7.1-35.7-12.4-78.8,24
			C249.4,215.3,244.4,212.2,242.8,204.9"/>
		<path fill="#070000" d="M320.4,166.3l26.9,15.6c-3.9-10.2,0.2-17,2.9-18.6c6.6-3.9,11.7,2.8,11.7,2.8c-9.7,5.2-8.1,13-8.1,13
			l2.7-3.1c15.7-20,24.1,5.9,24.1,5.9c-7.9-3.8-26.5,5.8-26.5,5.8l7.6-0.8c24.6,1.5,13.2,22,13.2,22c-9.6-14.6-26.3-15-26.3-15
			s-3.3,4-2.4,8.3c0.9,4.3,4,10.6,4,10.6c-26.6-6.8-6.8-21.2-6.8-21.2l-21.2,6.4C322.2,198,311.5,186.5,320.4,166.3z"/>
	</g>
	<g>
		<path fill="#37302E" d="M261.7,247.5c0,0,60.8-40.4,94.9-12.3c3.1,2.6-6.1,12.8-8.5,10.7c-10.1-8.6-33.7-17.3-81.3,12.8
			C266.8,258.7,262.2,255,261.7,247.5"/>
		<path fill="#070000" d="M343.8,220l24.4,19.2c-2.4-10.6,2.6-16.8,5.4-18c7.1-2.9,11.2,4.4,11.2,4.4c-10.3,3.8-9.8,11.8-9.8,11.8
			l3.1-2.7c18.4-17.6,23.1,9.1,23.1,9.1c-7.3-4.8-27,2-27,2l7.7,0.3c24.1,4.9,10,23.6,10,23.6c-7.4-15.8-24-18.5-24-18.5
			s-3.8,3.5-3.5,7.9c0.3,4.3,2.5,11.1,2.5,11.1c-25.4-10.5-3.8-21.9-3.8-21.9l-21.9,3.4C341.2,251.7,332.2,238.8,343.8,220z"/>
	</g>
	<g>
		<path fill="#37302E" d="M262.4,295.1c0,0,66.5-30,95.7,3.3c2.7,3-8.1,11.6-10.2,9.2c-8.6-10.1-30.4-22.5-82.3-0.6
			C265.6,307,261.8,302.5,262.4,295.1"/>
		<path fill="#070000" d="M348,281.4l21,22.9c-0.7-10.9,5.3-16.2,8.3-16.9c7.5-1.7,10.4,6.2,10.4,6.2c-10.8,2.1-11.6,10-11.6,10
			l3.5-2.2c21-14.4,21.3,12.8,21.3,12.8c-6.4-5.9-27-2.4-27-2.4l7.5,1.5c23,8.8,6,25,6,25c-4.8-16.8-20.7-22.2-20.7-22.2
			s-4.3,2.9-4.7,7.2c-0.4,4.3,0.6,11.3,0.6,11.3c-23.4-14.4-0.2-22.2-0.2-22.2l-22.2-0.3C340.3,312.1,333.5,298,348,281.4z"/>
	</g>
	<g>
		<path fill="#8BD2D4" d="M17.2,122.7c1.5-4.6,34-7,60.1,0.7c26.1,7.7,32,19.1,32,19.1l1.4,19.5c0,0-29,7.3-51.3,1.5
			C37.2,157.6,15.8,127.3,17.2,122.7z"/>
		<path fill="#00AEB9" d="M82.8,156.3c-0.9-11.1,7.5-9.7,7.5-9.7S71,133.5,47.2,130.3c-9.9-1.3-19.6-1.3-27.6-1
			c6.1,10.6,22.7,29.6,39.9,34.1c8.9,2.3,18.8,2.6,27.6,2C84.8,163,83.1,159.9,82.8,156.3z"/>
	</g>
	<g>
		<path fill="#8BD2D4" d="M341,48.3c-5.2-3.4-50.3,9.2-77,32.2c-25.6,22.1-25.5,44.8-25.5,44.8l7.4,5.6c0,0,43.4-8.2,68.5-24.8
			C339.6,89.6,346.2,51.6,341,48.3z"/>
		<path fill="#00AEB9" d="M278.6,111.5c-6.7-10.3-16.8-4.8-16.8-4.8s16.1-21.5,45.1-36.4c12.1-6.2,24.8-11.1,35.6-14.9
			c-0.5,12.6-8.8,38-28.2,50.7c-10,6.6-23,11.8-34.9,15.8C280.7,118.5,280.8,114.9,278.6,111.5z"/>
	</g>
	<path fill="#59C4C6" d="M275.5,453.9c0,0-32.3,0.7-31.5,30l12.6-10.1c0,0-8.7,10.6-2.3,19.9c0,0,13.5-11.8,19.6-13.2
		c0,0-3.5,6.2,2,15.4c0,0,8.7-14.1,12.8-15.7c0,0-0.1,5.4,1.9,8.3c0,0,12-16.1,23.3-20.5c3-5.7-2.4-10.2-12-17
		C301.9,451,282.3,443.3,275.5,453.9"/>
	<path fill="#37302E" d="M241.9,349.9c0,0,14.4,81.5,32,104.4c0,0,4.8,5.9,35.6,2.5c0,0-46.3-36.4-56.7-111.3L241.9,349.9z"/>
	<path fill="#59C4C6" d="M209.6,453.3c0,0-27.2,0.6-25.7,28.1l10.2-7.8c0,0-5.9,8.2-0.3,16.3c0,0,11.3-10.4,15.8-11.7
		c0,0-5.4,5.6-0.1,13.5c0,0,8.2-12,11.5-13.3c0,0,0.1,5,1.8,7.8c0,0,8.8-13,17.6-18.2c4.7-4.7-1.6-5.1-8.9-16.8
		C231.4,451.2,214.8,443.6,209.6,453.3"/>
	<path fill="#37302E" d="M199.5,356.2c0,0-4.8,48.5,10.1,97.2c0,0,13,8.7,29.6,7.5c0,0-23.4-19.5-30.9-105.5L199.5,356.2z"/>
	<g>
		<path fill="#4C4341" d="M132.4,129c0,0,1.5-3.9-2.9-13c-4.4-9.1-15.2-12.9-15.2-12.9l-0.2,5.3c0,0-9.3-13.8-16.1-16.1
			c-6.8-2.4-19.2-5.7-24.2-1.7c-5,4,12,11.2,12,11.2s-21.1-3.4-23,2.3c-1.8,5.7,14,8.9,14,8.9s-13.9,6.6-11.2,12.7
			c2.7,6.1,27.3,3.4,27.3,3.4L132.4,129z"/>
		<path fill="#4C4341" d="M154.3,120.9c0,0-3.4-2.5-4.5-12.5c-1.2-10,5.9-19,5.9-19l3,4.3c0,0,0.4-16.6,4.9-22.2
			c4.5-5.6,13.2-15,19.5-14.3c6.4,0.8-4.1,15.9-4.1,15.9s16-14.2,20.7-10.3c4.6,3.9-7,15-7,15s15.2-1.8,16.3,4.8
			c1,6.6-21.2,17.4-21.2,17.4L154.3,120.9z"/>
		<path fill="#070000" d="M232,101.4c-10.7-7.1-33.6-19.9-53.8-13.5c-27.3,8.6-42.3,42-42.3,42s-18.6-17.3-40.1-15
			c-4.3,0.4-7.8,1.4-10.5,2.6c-1.6,4.6-2.9,9.4-3.8,14.4c-2.1,11-0.2,21.8,3.3,31.4c11.5,2.9,36.3,7.7,57.4,2.3
			c23.2-6,78-39.9,96.1-51.8L232,101.4z"/>
		<path fill="#FFFFFF" d="M87.3,134.6c0,0,0.2,15.4,12.8,17.9c14.5,2.9,20.1-13,20.1-13s-5.8-3.6-17.4-5.5
			C91.3,132.2,87.3,134.6,87.3,134.6z"/>
		<path fill="#070000" d="M111.7,139.2c0.7,3.6-1.4,7-4.8,7.7c-3.3,0.7-6.6-1.7-7.3-5.3c-0.7-3.6,1.4-7,4.8-7.7
			C107.8,133.2,111,135.6,111.7,139.2"/>
		<path fill="#FFFFFF" d="M176.1,110c0,0,7.9,13.2-1.5,22c-10.8,10.1-23.9-0.6-23.9-0.6s3-6.1,11.9-13.8
			C171.4,110,176.1,110,176.1,110z"/>
		<path fill="#070000" d="M157.8,126.7c1.3,3.4,4.9,5.2,8.1,4.1c3.2-1.2,4.7-4.9,3.4-8.4c-1.3-3.4-4.9-5.2-8.1-4.1
			C158,119.6,156.5,123.3,157.8,126.7"/>
	</g>
	<g>
		<g>
			<path fill="#4C4341" d="M113.5,161.7c-11.3,12.3-13.7,23.5-21.5,30.7c-7.8,7.2-24.3,11.2-26.9-4.8c-2.5-16,16.5-13.8,16.5-13.8
				s-11.9-4.3-21.3-0.1c-9.4,4.1-17.2,50.9,24.9,51.5c27.7,0.4,49.2-25.4,49.2-25.4s0.4,6.2,5,7.6c4.7,1.4,12.4-13.4,12.4-13.4
				s0.3,13.2,7.5,11.1c7.2-2.1,9.2-39-8.5-52.4C133.1,139.3,124.7,149.4,113.5,161.7"/>
			<path fill="#292F2F" d="M80.4,218c1.8,0.1,3.6-0.3,5.3-0.8c5.9-1.7,11-5.4,14.9-10.1c4.2-4.9,6.4-10.7,8.4-16.7
				c2.2-6.7,4-13.7,8.4-19.4c4.7-5.9,12.3-11.1,20-11.4l2.5-0.1c-7.4,9.5-10.6,25.3-5,36.4c-1.4-2.8-2.6-5.3-3.2-8.4
				c-0.6-3.1-0.8-6.3-0.7-9.5c0.3-6.3,2.1-12.5,5.4-17.9c0.3,0.6,0.6,1.3,1,1.9c-7.3,0.7-14.2,5.7-18.4,11.5
				c-4.2,5.7-5.8,12.9-8.2,19.4c-3.1,8.3-7.4,15.4-14.9,20.4c-1.6,1-3.2,1.9-4.8,2.7c-1.7,0.7-3.4,1.3-5.2,1.7
				C84,218.1,82.1,218.3,80.4,218"/>
			<path fill="#4C4341" d="M191.8,139.1c16.2,4.4,24.2,12.6,34.6,14.4c10.5,1.9,26.6-3.5,20.1-18.4c-6.5-14.9-21.4-2.9-21.4-2.9
				s7.7-9.9,17.9-11.5c10.2-1.5,41.9,33.8,6.6,56.8c-23.2,15.1-55.2,4.8-55.2,4.8s3,5.4-0.2,9.1c-3.2,3.7-17.6-4.7-17.6-4.7
				s6.8,11.3-0.4,13.4c-7.2,2.1-23.8-26.9-20.9-48.8C158,131.2,175.7,134.7,191.8,139.1"/>
			<path fill="#292F2F" d="M225.2,132.2c0,0,0.3-0.5,1.1-1.3c0.7-0.9,1.8-2.1,3.3-3.5c1.5-1.4,3.5-3.1,6.1-4.6
				c3-1.8,6.6-3.3,10.1-2.6c3.7,0.7,7,3.6,9.7,6.1c10.3,9.4,15.4,25.3,8.7,38.2c-5.8,10.8-17.6,17.7-29.2,20.4
				c-8.6,2-18.1,2.3-26.7,0.7c-2.9-0.4-5.4-1-7.4-1.4c-4.1-1-6.3-1.8-6.3-1.8s2.3,0.6,6.4,1.3c2,0.4,4.5,0.7,7.4,1
				c10.1,0.9,20.5,0.3,30.1-3.1c9.2-3.2,18.5-9.4,23.2-18.2c6.3-12,1.2-26.3-7.6-35.5c-2.5-2.5-5.8-5.7-9.5-6.2
				c-2.8-0.4-5.8,0.9-8.3,2.1c-2.5,1.3-4.6,2.8-6.2,4.1C226.7,130.4,225.2,132.2,225.2,132.2"/>
			<path fill="#292F2F" d="M240.3,171.8c-7.7,6.8-22,5.1-30.4,0.8c-8.9-4.5-15.5-12.8-24.6-16.9c-7.2-3.3-15.7-3.6-23.1-1
				c-0.3-0.5-0.3-1.2-0.2-1.7c11,5.5,19,16.7,20.5,29c-2.8-12.3-11.9-23-23.7-27.7c5-3.2,11.1-4.7,17-4
				c12.1,1.3,20.5,10.1,29.8,16.9c0.7,0.5,1.4,1.1,2.2,1.5C216.1,174.4,231.1,178.4,240.3,171.8"/>
			<path fill="#292F2F" d="M152.8,185.8c-1.2-0.9-1.9-2.3-2.6-3.6c-3.8-8.3-5.1-17.8-3.5-26.8c7.2,6.9,12.6,15.7,15.4,25.2
				c-4.5-7.5-9.2-15-15.4-21.1c0.8-0.3,1.6-0.5,2.4-0.8c-0.8,0.2-0.1,10,0,11.2c0.4,4.7,1,9.9,2.8,14.3c0.2,0.5,0.5,1.1,1,1.4"/>
		</g>
		<path fill="#59C4C6" d="M157.4,142.9c0,0-25.8-9.4-30.8-5.3c-5.1,4.1-8.8,26.7,9.3,28.4C160.5,168.2,157.4,142.9,157.4,142.9z"/>
	</g>
</g>
<g id="Keys">
</g>
<g id="Header">
</g>
<g id="Header_Buttons">
</g>
<g id="Progress_Indicator_1_">
</g>
<g id="Title">
</g>
<g id="Problem_Screen">
</g>
<g id="Teacher_Pop-up_Design">
</g>
<g id="Solution_Screen" display="none">
</g>
<g id="Isadora_Screenshot" display="none">
</g>
</svg>
