<?xml version="1.0" encoding="utf-8"?>
<!-- Generator: Adobe Illustrator 23.0.6, SVG Export Plug-In . SVG Version: 6.00 Build 0)  -->
<svg version="1.1" id="headmaster" xmlns="http://www.w3.org/2000/svg" xmlns:xlink="http://www.w3.org/1999/xlink" x="0px" y="0px"
	 viewBox="0 0 414 414" enable-background="new 0 0 414 414" xml:space="preserve" width="414" height="414" preserveAspectRatio="none">
<g>
	<path fill="#D44F27" d="M63,35.5c0,0,52.8-15.7,167.9,73C345.9,197.1,311,250.7,311,250.7s-22.7,13.7-47,25.3
		c-28.9,13.8-31.8,32.1-31.8,32.1s-14.2-22.1-39.5-10c-17.9,8.6-26.6,29.3-26.6,29.3l-31.6-23.3c0,0,14.8-57.2-9.3-134.1
		C100.9,93.2,63,35.5,63,35.5z"/>
	<g>
		<g>
			<path fill="#F69320" d="M179.1,3.2c0,0,75.6-2,148.9,98.1c50.2,68.5,67.1,181.2,67.1,181.2l-59.2-68.9L210,220.4l-47.9,77.7
				l-23.7-64.6c0,0,46.5-33.2,66.4-107.5C224.1,54.4,179.1,3.2,179.1,3.2z"/>
			<path fill="#97D6D4" d="M218.3,36.5c0,0,42.3,7.2,104.9,85.8C365,174.7,395,282.5,395,282.5s-39.4-33.3-75.4-22.5
				c-35.3,10.5-52.2,51.1-52.2,51.1s-20.3-45.9-58.6-38.3c-38.3,7.6-42.2,39.6-42.2,39.6L143,245.6c0,0,48.7-35.6,72.8-110.3
				C234.6,76.7,218.3,36.5,218.3,36.5z"/>
			<g>
				<path fill="#228DBB" d="M248.9,83.1c3.5,2.9,6.3,6.5,8.9,10.2c2.5,3.8,4.7,7.8,6.7,11.9c3.8,8.3,6.7,16.9,8.8,25.8
					c2.1,8.8,3.5,17.8,4.3,26.9c0.3,2.3,0.4,4.5,0.5,6.8c0.1,2.3,0.3,4.5,0.4,6.8l0.2,6.8c0,2.3,0,4.5,0,6.8
					c-0.1,18.1-1.8,36.2-4.5,54.1c-1.3,8.9-3,17.8-4.8,26.7c-1,4.4-1.9,8.8-3,13.2c-1.1,4.4-2.2,8.8-3.3,13.1
					c0.8-4.4,1.6-8.9,2.4-13.3c0.8-4.4,1.5-8.9,2.2-13.3l0.6-3.3l0.5-3.3l1-6.7c0.7-4.4,1.2-8.9,1.8-13.4c1.1-8.9,2-17.9,2.7-26.8
					c0.3-4.5,0.6-9,0.8-13.4l0.2-6.7l0.1-3.4l0-3.4c0.2-9-0.3-17.9-1-26.9c-0.2-2.2-0.4-4.5-0.6-6.7l-0.8-6.7l-1-6.6l-1.2-6.6
					c-1.8-8.8-4.3-17.4-7.7-25.7c-1.7-4.1-3.6-8.2-5.9-12c-1.1-1.9-2.4-3.8-3.7-5.6C252,86.4,250.6,84.6,248.9,83.1z"/>
			</g>
		</g>
		<path fill="#D44F27" d="M174.2,308c0,0,19,26.3,40.3,32.5c21.3,6.2,83.6-9.2,99.6,0.5c6.9,4.2-62.2,27.9-92.5,34.8
			c-62.3,14.1-98.7-39.8-98.7-39.8L174.2,308z"/>
		<path fill="#999484" d="M109.5,320.5c0.4-3.1,0.7-6.2,1.1-9.2l63.9-13.6c1.3,2.8,2.6,5.5,3.8,8.3l0,0c5.9,5.9,2,15,2,15L114.6,335
			C110.1,329.5,109.5,320.5,109.5,320.5z"/>
		<g>
			<path fill="#6E6F72" d="M135.9,306.4c0.8,2.6,1.5,5.3,2.2,8c0.7,2.7,1.3,5.3,1.9,8l-0.8-0.5c2-0.5,4.1-0.9,6.1-1.4l6.1-1.3
				l-0.5,0.8c-0.6-2.9-1.1-5.8-1.6-8.7c-0.5-2.9-1-5.8-1.4-8.8c0.8,2.8,1.6,5.7,2.3,8.6c0.7,2.9,1.4,5.7,2.1,8.6l0.2,0.7l-0.7,0.2
				l-6.1,1.3c-2,0.4-4.1,0.9-6.1,1.2l-0.7,0.1l-0.1-0.7c-0.5-2.7-1-5.4-1.5-8.1C136.7,311.9,136.3,309.2,135.9,306.4z"/>
		</g>
		<path fill="#F69320" d="M124.3,80.8c0,0,18.3,47,17.1,75.9c-1.2,29.5-2.1,79.9-2.1,79.9L129,251.1l-16.1-12c0,0-2-9.1-32.8-48.9
			c-30.7-39.8-36.6-90.9-36.6-90.9s12.1-8.1,38.2-15.2C107.8,77.1,124.3,80.8,124.3,80.8z"/>
		<polygon fill="#228DBB" points="127.8,240.5 127.6,240.8 127.3,240.6 		"/>
		<path fill="#F69320" d="M121.8,140.2c0,0,1.5,34.1-42.3,39.8C40,185.2,19,175.5,19,175.5s-0.7-27.7,21.9-34.2
			c22.5-6.6,48.7,9.8,48.7,9.8L121.8,140.2z"/>
		<path fill="#F69320" d="M188.2,111.4c0,0-10.1-0.9-26.3,9.3c-16.2,10.2-28.3,24.4-28.3,24.4l-1.9,13.6c0,0,3.7,15.6,26.7,2.3
			C181.4,147.8,188.2,111.4,188.2,111.4z"/>
		<path fill="#FEE56A" d="M121.3,73.9c0,0-5.7,18.3,0.5,37.9c6.2,19.6,20,36.1,20,36.1s6.6-16.9,2.7-41.2
			c-3.9-24.3-10.6-30.8-10.6-30.8L121.3,73.9z"/>
		<path fill="#FFFCE8" d="M85.7,126.6c0.9,7.2,6.1,12.4,11.5,11.7c5.4-0.7,9.1-7.1,8.2-14.3c-0.9-7.2-6.1-12.4-11.5-11.7
			C88.4,113,84.8,119.4,85.7,126.6z"/>
		<path fill="#FFFCE8" d="M68.5,130.4c0.8,6.3,5.2,11,9.7,10.4c4.6-0.6,7.6-6.2,6.8-12.5c-0.8-6.3-5.2-11-9.7-10.4
			C70.7,118.5,67.7,124.1,68.5,130.4z"/>
		<path fill="#3B1026" d="M90.2,128.4c0.4,3.2,2.9,5.5,5.6,5.1c2.7-0.3,4.5-3.2,4.1-6.4c-0.4-3.2-2.9-5.5-5.6-5.1
			C91.7,122.3,89.8,125.2,90.2,128.4z"/>
		<path fill="#3B1026" d="M74,131.5c0.4,2.8,2.6,4.8,5,4.5c2.4-0.3,4.1-2.8,3.7-5.7c-0.4-2.8-2.6-4.8-5-4.5
			C75.3,126.2,73.7,128.7,74,131.5z"/>
		<g>
			<path fill="#D44F27" d="M92.4,155.9c-1.3-1.7-2.8-3.1-4.4-4.4c-1.6-1.3-3.3-2.5-5.1-3.5c-3.6-2.1-7.5-3.6-11.5-4.7
				c-8-2.2-16.4-2.6-24.6-2c-4.1,0.4-8,1.4-11.6,3.3c-3.6,1.8-6.6,4.5-8.9,7.8c-2.3,3.3-3.8,7.1-4.7,11c-0.9,3.9-1.3,8.1-1.1,12
				l-1-1.3c4.7,1.5,9.8,2.6,14.8,3.5c5,0.9,10.1,1.6,15.1,1.9c5.1,0.4,10.2,0.5,15.2,0.3c5.1-0.2,10.2-0.6,15.2-1.4
				c5-0.8,10-1.8,14.8-3.5c4.7-1.7,9.3-4,13.2-7.2c3.9-3.2,7.1-7.2,9.2-11.8c1.1-2.3,1.9-4.7,2.4-7.2c0.5-2.5,0.8-5.1,0.7-7.6
				c1,10.3-3.3,21-11.3,27.9c-3.9,3.5-8.6,6.1-13.5,8c-4.9,1.9-10,3.1-15.1,4c-10.2,1.8-20.7,2.2-31,1.5
				c-10.4-0.7-20.6-2.5-30.6-5.6l-0.9-0.3l-0.1-1c-0.1-2.3,0-4.4,0.2-6.5c0.2-2.1,0.6-4.3,1.1-6.4c1-4.2,2.7-8.3,5.3-11.9
				c2.6-3.6,6-6.6,9.9-8.5c3.9-1.9,8.2-2.9,12.5-3.2c4.3-0.3,8.5-0.2,12.7,0.3c4.2,0.4,8.4,1.3,12.4,2.6c4,1.3,7.9,3.1,11.5,5.4
				C86.7,149.6,90,152.4,92.4,155.9z"/>
		</g>
		<path fill="#3B1026" d="M86,99.5c5.7-1.9,11.8-1.8,17.2,0.3c0-0.4,0-0.8,0.1-1.3c-5.5-2.4-11.5-2.8-17.2-1.2
			C86,98,86,98.8,86,99.5z"/>
		<path fill="#3B1026" d="M80.5,107c-5.9,0.7-11.4,3.3-15.5,7.6c-0.2-0.4-0.4-0.8-0.6-1.1c3.9-4.5,9.3-7.4,15.1-8.4
			C79.9,105.7,80.2,106.4,80.5,107z"/>
		<g>
			<path fill="#D44F27" d="M179.6,121.4c-4.2,1.3-8.1,3.2-11.9,5.3c-3.8,2.2-7.4,4.7-10.6,7.5c-3.2,2.8-5.9,6.2-7.9,10.1
				c-1.9,3.8-3.3,8-3.8,12.2l-1.3-0.3c1.1-2.3,2.4-4.5,4-6.5c1.6-2,3.4-3.8,5.8-5c1.2-0.5,2.5-0.9,3.8-0.7c0.7,0.1,1.3,0.3,1.9,0.4
				l0.9,0.4c0.3,0.1,0.6,0.4,0.8,0.5c0.3,0.2,0.5,0.5,0.7,0.7c0.2,0.3,0.4,0.6,0.5,0.9c0.3,0.6,0.3,1.3,0.2,1.9
				c-0.2,1.3-0.7,2.4-1.4,3.5c0.6-1.1,1-2.3,1.1-3.5c0.1-1.2-0.4-2.4-1.4-3c-0.3-0.1-0.5-0.3-0.8-0.4l-0.8-0.3
				c-0.6-0.1-1.2-0.3-1.8-0.3c-1.2-0.1-2.3,0.2-3.4,0.8c-2.1,1.1-3.8,2.9-5.2,4.9c-1.4,2-2.7,4.1-3.7,6.3l-1.7,3.8l0.4-4.1
				c0.4-4.5,1.8-8.8,3.8-12.8c1-2,2.3-3.8,3.6-5.6c0.7-0.8,1.4-1.7,2.2-2.5l1.2-1.2l1.3-1.1c3.4-2.8,7.2-5.2,11.1-7.2
				c2-1,4-1.9,6-2.7C175.3,122.5,177.4,121.9,179.6,121.4z"/>
		</g>
		<path fill="#D44F27" d="M38.9,153c-0.2,0.1-0.3,0.3-0.5,0.4c-0.7,0.8-1,2-1,3.1c-0.2-1.1-0.3-2.4,0.2-3.6c0.3-0.6,0.7-1.1,1.2-1.6
			c0.5-0.4,1-0.8,1.8-1l0,0.1c0.2-0.1,0.5-0.2,0.7-0.3c1.7-0.4,3.2,0.2,3.5,1.3c0.3,1.1-0.8,2.4-2.5,2.8
			C40.7,154.7,39.2,154.1,38.9,153z"/>
		<path fill="#D44F27" d="M66.7,149.8c0.2,0.1,0.4,0.2,0.5,0.4c0.7,0.7,1.1,1.9,1.3,3c0.2-1.2,0.2-2.4-0.5-3.6
			c-0.3-0.6-0.8-1.1-1.4-1.5c-0.6-0.4-1.1-0.7-1.9-0.9l0,0.1c-0.2-0.1-0.5-0.2-0.7-0.2c-1.7-0.3-3.2,0.4-3.4,1.6
			c-0.2,1.1,1,2.3,2.7,2.6C65,151.6,66.5,150.9,66.7,149.8z"/>
		<path fill="#D44F27" d="M117.7,140c0.2,1.2,1.3,2,2.4,1.9c1.2-0.2,2-1.3,1.9-2.4c-0.2-1.2-1.3-2-2.4-1.9
			C118.4,137.7,117.6,138.8,117.7,140z"/>
		<g>
			<path fill="#D44F27" d="M94.8,185c2-0.1,4-0.3,5.9-0.7c1.9-0.5,3.7-1.1,5.3-2c1.6-1,3.1-2.2,4.4-3.6c1.3-1.4,2.5-3,3.4-4.8
				c-0.3,2-1.3,3.9-2.5,5.5c-1.2,1.7-2.8,3.1-4.6,4.2c-1.8,1.1-3.9,1.7-5.9,1.9C98.8,185.6,96.7,185.5,94.8,185z"/>
		</g>
		<path fill="#FEE56A" d="M24.2,83.2c0,0,13.9,4.6,26.5-1.7c8.2-4.1,27-17.9,44.8-18.8c18.7-0.9,32.4,6.3,32.4,6.3s5.1-1.6,12.3-7
			c-4.4,12.4-5.1,15.7-5.1,15.7l-9.6,1.9c0,0-36.3-3.3-82.4,19.7C43.1,99.4,34.5,92,24.2,83.2z"/>
		<g>
			<path fill="#F2F2F2" d="M99.8,399.7c-2,0.3-3.3-0.6-4.1-1.5c10-6.9,32-8.3,32-8.3l25.1-4.6l3.6,7.1l-29.2,7.2
				c-0.2-0.8-0.5-1.6-0.9-2.5C122.8,390,103.8,399.1,99.8,399.7z"/>
			<path fill="#EC2227" d="M92,402c0.9-1.4,2.2-2.6,3.7-3.7c0.8,0.9,2,1.8,4.1,1.5c4-0.6,23-9.7,26.5-2.6c0.4,0.9,0.7,1.7,0.9,2.5
				l-30.6,7.5L92,402z"/>
			<g>
				<polygon fill="#8FC640" points="125.8,389.8 131.4,399.3 135.2,398.5 130.2,389.1 				"/>
				<polygon fill="#8FC640" points="132.2,388.4 137.8,397.9 141.5,397.1 136.6,387.7 				"/>
				<polygon fill="#8FC640" points="138.5,387.1 144.1,396.6 147.9,395.8 143,386.4 				"/>
				<path fill="#BDBEC0" d="M92,402c4.4-0.5,6.8,0.8,8.8,3.6l54.8-14.8l2.5,5.1l-64.5,15c0,0-3.9-3.5-2.2-7.7
					C91.6,402.7,91.8,402.3,92,402z"/>
			</g>
		</g>
		<g>
			<path fill="#F2F2F2" d="M218.1,374.6c2-0.5,2.8-1.9,3.1-3c-12-2.2-32.6,5.4-32.6,5.4l-24.8,6l-0.4,8l29.6-5.3
				c-0.2-0.8-0.2-1.7-0.2-2.7C193.2,375,214.3,375.7,218.1,374.6z"/>
			<path fill="#EC2227" d="M226.2,373.4c-1.3-0.9-3-1.5-4.9-1.9c-0.3,1.1-1.1,2.4-3.1,3c-3.9,1.1-25,0.4-25.3,8.4c0,1,0,1.8,0.2,2.7
				l31-5.6L226.2,373.4z"/>
			<g>
				<polygon fill="#8FC640" points="190.3,376.1 189.1,387 185.3,387.8 186,377.2 				"/>
				<polygon fill="#8FC640" points="183.9,377.4 182.7,388.4 178.9,389.2 179.6,378.6 				"/>
				<polygon fill="#8FC640" points="177.6,378.8 176.3,389.7 172.6,390.5 173.3,379.9 				"/>
				<path fill="#BDBEC0" d="M226.2,373.4c-4.2,1.3-5.9,3.5-6.6,6.9l-56.1,8.7l-0.2,5.6l65.1-12.5c0,0,2.2-4.8-1.2-7.9
					C226.8,373.9,226.5,373.7,226.2,373.4z"/>
			</g>
		</g>
		<path fill="#999484" d="M117.1,332.2c0,0-7.7,24.3,6,58.3l33.3-4.3c0,0-26.2-34.3-19.7-57.7L117.1,332.2z"/>
		<path fill="#999484" d="M176.3,319.6c0,0,17,19.1,18.2,55.7l-32.2,9.7c0,0,10-42-5.5-60.7L176.3,319.6z"/>
		<path fill="#FEE56A" d="M118,78.4c-2.8,4.1-3.8,9.9-4.4,16.2l11.5-9.1l0.8-10.7L118,78.4z"/>
		<g>
			<path fill="#F7B319" d="M67.4,89.5c-2.3-0.7-4.4-1.5-6.6-2.4c-1.1-0.4-2.2-0.9-3.2-1.3c-1.1-0.5-2.1-0.9-3.2-1.4l0.9-1.1
				c1.1,1.4,2.3,2.8,3.3,4.3c1.1,1.5,2.1,3,3,4.5c-1.4-1.2-2.6-2.5-3.9-3.8c-1.2-1.3-2.4-2.7-3.6-4.1l-2-2.4L55,83
				c1.1,0.5,2.1,1,3.2,1.5c1,0.5,2.1,1,3.1,1.6C63.4,87.1,65.4,88.3,67.4,89.5z"/>
		</g>
		<g>
			<path fill="#F69320" d="M67.3,303.5c0,0-0.3,7,5.1,11.4c5.3,4.3,10.6,2,10.6,2s-13.8,10.7-10.6,14.6c3.2,3.9,13.8-8.9,13.8-8.9
				s-4.1,18.3-0.1,18.1c4-0.2,8.5-17.2,8.5-17.2s-0.9,15.5,3.2,15.1c4.1-0.4,11.7-26.9,5.7-34.9c-6-8-18.3-13.8-18.3-13.8
				L67.3,303.5z"/>
			<path fill="#014C78" d="M40.8,291.3c0,0-0.6-7.3,19.3-27.7c19.9-20.4,50.5-31.3,50.5-31.3l1,17.7l-33.9,25.1l7,8.8l-25.4,24.5
				L40.8,291.3z"/>
			<polygon fill="#FFFCEE" points="84.7,284 90.6,291.4 68.6,313.7 61,306.7 			"/>
			
				<ellipse transform="matrix(0.9478 -0.3189 0.3189 0.9478 -94.4314 37.4466)" fill="#CAC5CF" cx="67.2" cy="307.1" rx="2.3" ry="2.2"/>
		</g>
		<g>
			<path fill="#F69320" d="M209.7,274.4c0,0,3,6.4-0.2,12.4c-3.2,6.1-9,6-9,6s17,4.7,15.6,9.6c-1.4,4.9-16.3-3-16.3-3
				s10.9,15.2,7.2,16.6c-3.7,1.4-14.6-12.5-14.6-12.5s6.9,13.9,2.9,15.2c-4,1.3-21.3-20.2-18.9-29.9S188,269,188,269L209.7,274.4z"
				/>
			<polygon fill="#FFFCEE" points="212.8,284.4 183.5,272.3 186,263.6 217.3,274.6 			"/>
			<path fill="#014C78" d="M148.1,242.5l-6-16.7c0,0,32.4-1.9,58.7,9.1c26.3,11,28.6,17.9,28.6,17.9l-10.2,22.7L186,263.6l3.1-11.3
				L148.1,242.5z"/>
			
				<ellipse transform="matrix(0.997 -7.700896e-02 7.700896e-02 0.997 -20.7582 17.1443)" fill="#CAC5CF" cx="211.9" cy="277.7" rx="2.3" ry="2.2"/>
		</g>
		<g>
			<polygon fill="#FFFCEE" points="133.1,284.3 125.5,285.6 106.4,227.2 122.8,230.4 140.1,220.8 139.3,284.8 			"/>
			<g>
				<path fill="#8FC640" d="M124.8,246.9l-8.2-7.9l6.3-7.5l7.4,4.3l-2.8,10.9l13,15.5c-3,12-7.4,22.2-7.4,22.2s-9.3-11.7-15.6-22.9
					L124.8,246.9z"/>
				<g>
					<path fill="#CAC5CF" d="M140.4,240.8c-1.5-0.6-3-1.3-4.5-2c-1.5-0.7-3-1.4-4.5-2.1c-3-1.5-5.9-3-8.8-4.5l0.9-0.2
						c-0.9,1.1-1.9,2.3-2.8,3.4c-1,1.1-1.9,2.2-2.9,3.3c-1,1.1-2,2.2-3,3.3c-1,1.1-2,2.2-3.1,3.2c0.8-1.2,1.7-2.4,2.5-3.6
						c0.9-1.2,1.7-2.4,2.6-3.6c0.9-1.2,1.8-2.3,2.7-3.5c0.9-1.2,1.8-2.3,2.8-3.5l0.4-0.5l0.5,0.3c2.9,1.5,5.8,3.1,8.7,4.8
						c1.4,0.8,2.8,1.7,4.3,2.5C137.6,239.1,139,239.9,140.4,240.8z"/>
				</g>
				<path fill="#014C78" d="M102.1,283.5c-1-34.4,4.2-49.4,4.2-49.4l1.6-0.7c0,4,25.2,50.9,25.2,50.9s8.4-55.8,7-58.2l2.2-0.5
					c0,0,8.1,10.7,20.8,39.1c12.3,27.6,17.8,35.3,20.2,43.5l-81.2,18.6C99.9,313.9,102.9,310.9,102.1,283.5z"/>
				<path fill="#0C3B5E" d="M126.2,295.5c0.4,1.9,2.3,3.1,4.2,2.7c1.9-0.4,3.1-2.3,2.7-4.2c-0.4-1.9-2.3-3.1-4.2-2.7
					C127,291.8,125.8,293.6,126.2,295.5z"/>
				<path fill="#0C3B5E" d="M129.6,311.5c0.4,1.9,2.3,3.1,4.2,2.7c1.9-0.4,3.1-2.3,2.7-4.2c-0.4-1.9-2.3-3.1-4.2-2.7
					C130.4,307.7,129.2,309.5,129.6,311.5z"/>
				<g>
					<path fill="#0C3B5E" d="M141.4,226c5.4,2.7,10.7,5.4,16,8.2l0.6,0.3l-0.5,0.4l-14.4,13.2l0-1l7.8,5.5l0.5,0.4l-0.3,0.6
						l-4.1,8.3l-4.1,8.2l-4.2,8.2l-4.2,8.2l0.1-0.8c1.2,5,2.2,10,3.3,15c0.5,2.5,1,5,1.5,7.6c0.4,2.5,0.9,5.1,1.3,7.6
						c-0.8-2.4-1.5-4.9-2.2-7.4c-0.7-2.5-1.4-4.9-2.1-7.4c-1.3-5-2.6-9.9-3.9-14.9l-0.1-0.4l0.2-0.4l4.2-8.2l4.2-8.2l4.3-8.1
						l4.4-8.1l0.2,1l-7.6-5.8l-0.6-0.5l0.6-0.5l14.6-12.9l0.1,0.7C151.8,232,146.6,229,141.4,226z"/>
				</g>
				<g>
					<path fill="#0C3B5E" d="M106.5,234.2c-1.4,2.5-2.9,5.1-4.4,7.6c-1.5,2.5-3,5-4.5,7.5l-0.4-1.1c1.9,0.7,3.9,1.3,5.8,2.1
						c1.9,0.7,3.9,1.4,5.8,2.1l0.9,0.3l-0.2,0.9l-2.1,8.9l-0.3-1.1c4,3.8,8,7.6,11.9,11.5c3.9,3.9,7.7,7.8,11.4,11.9
						c-4.3-3.4-8.5-7-12.6-10.7c-4.1-3.6-8.2-7.4-12.2-11.1l-0.5-0.4l0.2-0.6l2.2-8.9l0.7,1.3c-1.9-0.8-3.8-1.6-5.7-2.3
						c-1.9-0.8-3.8-1.6-5.7-2.4l-0.9-0.4l0.5-0.8c1.7-2.4,3.3-4.8,5-7.2C103.1,238.9,104.8,236.6,106.5,234.2z"/>
				</g>
			</g>
		</g>
		<g>
			<path fill="#F7B319" d="M51,96c-1.6-0.6-3.1-1.4-4.6-2.2c-1.5-0.8-2.9-1.7-4.4-2.6c-1.4-0.9-2.8-1.8-4.2-2.8c-1.4-1-2.7-2-4-3.2
				c1.6,0.6,3.1,1.4,4.6,2.2c1.5,0.8,2.9,1.7,4.4,2.6c1.4,0.9,2.8,1.8,4.2,2.8C48.4,93.8,49.7,94.8,51,96z"/>
		</g>
		<g>
			<path fill="#F7B319" d="M146.5,123.9c-1.7,0.2-3.4,0-5-0.3c-1.6-0.4-3.2-0.9-4.8-1.5c-3.1-1.4-6-3.1-8.6-5.2
				c-2.6-2.2-4.7-5-6.2-8c-1.5-3.1-2.6-6.3-3-9.7l-0.3-2.5l1.6,2c1.6,1.9,3.4,3.8,5.2,5.5c1.8,1.8,3.8,3.4,5.8,4.8
				c2.1,1.5,4.3,2.5,6.7,3.4c2.4,0.8,4.9,1.5,7.5,1.4c-1.3,0.2-2.6,0.2-3.9,0c-1.3-0.1-2.6-0.4-3.8-0.7c-2.5-0.7-4.9-1.7-7.2-3.1
				c-2.2-1.4-4.2-3-6.2-4.8c-1.9-1.7-3.7-3.6-5.4-5.6l1.3-0.5c0.4,3.1,1.4,6.3,2.8,9.3c1.4,2.9,3.3,5.6,5.7,7.8
				c2.4,2.1,5.2,4,8.2,5.4C139.9,122.8,143.1,123.9,146.5,123.9z"/>
		</g>
	</g>
</g>
</svg>
