<?xml version="1.0" encoding="utf-8"?>
<!-- Generator: Adobe Illustrator 19.2.0, SVG Export Plug-In . SVG Version: 6.00 Build 0)  -->
<svg version="1.1" xmlns="http://www.w3.org/2000/svg" xmlns:xlink="http://www.w3.org/1999/xlink" x="0px" y="0px"
	 viewBox="0 0 424.2 453.4" enable-background="new 0 0 424.2 453.4" xml:space="preserve" width="424.2" height="453.4" preserveAspectRatio="none">
<g id="Teacher_Pop-up">
	<g>
		<g>
			<path opacity="0.75" fill="#8ED6EC" d="M239.6,25.4c-3.3-0.2-6.5-1.2-9.4-2.7c-2.9,6.5-8.5,11.7-15.8,13.8
				c-9.9,2.9-20.3-0.7-26.5-8.3c-1.4,8.5-7.4,15.9-16.2,18.5c-7.1,2.1-14.4,0.5-20-3.6c-2.3,9.1-9.2,16.7-18.7,19.5
				c-2.7,0.8-5.4,1.1-8.1,1.1c-14.1,22.7-18.9,51.3-10.7,79.2c15.1,51.6,68.4,81.4,119.2,66.5c50.7-14.8,79.6-68.7,64.6-120.2
				C288.9,58.8,266.7,35.9,239.6,25.4z"/>
			
				<ellipse transform="matrix(0.9629 -0.27 0.27 0.9629 -12.5788 43.2485)" fill="#CFECFB" cx="150.9" cy="67.3" rx="3.7" ry="3.7"/>
			<ellipse transform="matrix(0.9629 -0.27 0.27 0.9629 -4.551 68.0082)" fill="#CFECFB" cx="244.9" cy="50.5" rx="6" ry="6"/>
			<ellipse transform="matrix(0.9629 -0.27 0.27 0.9629 -6.6129 59.4808)" fill="#CFECFB" cx="212.9" cy="53.8" rx="4" ry="4"/>
			<ellipse transform="matrix(0.9629 -0.27 0.27 0.9629 -10.2283 72.8266)" fill="#CFECFB" cx="259.6" cy="73.6" rx="7" ry="7"/>
			<ellipse transform="matrix(0.9629 -0.27 0.27 0.9629 -11.5618 46.614)" fill="#CFECFB" cx="163.6" cy="65.3" rx="2.3" ry="2.3"/>
			<ellipse transform="matrix(0.9629 -0.27 0.27 0.9629 -30.7861 38.8124)" fill="#CFECFB" cx="125.7" cy="131.3" rx="4" ry="4"/>
			
				<ellipse transform="matrix(0.9629 -0.27 0.27 0.9629 -34.0367 38.3796)" fill="#CFECFB" cx="122.5" cy="142.9" rx="2.1" ry="2.1"/>
			
				<ellipse transform="matrix(0.9629 -0.27 0.27 0.9629 -15.7306 74.1263)" fill="#CFECFB" cx="261.6" cy="94.2" rx="2.1" ry="2.1"/>
			
				<ellipse transform="matrix(0.9629 -0.27 0.27 0.9629 -16.8267 77.4916)" fill="#CFECFB" cx="273.2" cy="99.9" rx="2.1" ry="2.1"/>
			<ellipse transform="matrix(0.9629 -0.27 0.27 0.9629 -10.6703 76.903)" fill="#CFECFB" cx="274.2" cy="77.2" rx="4.8" ry="4.8"/>
			<path fill="#994627" d="M196.8,326.2c0,0-2.1-10.9-27-3.9c-27.5,7.7-22.1,16.7-22.1,16.7c23.2,25.2,37.5,74.8,37.5,74.8
				c-0.8,19.1,6.6,6.8,6.6,6.8C214.7,384.4,196.8,326.2,196.8,326.2z"/>
			<path fill="#994627" d="M281.3,310.1c-4.7-6.4-22.8-7.2-40.2,3.6c-19.6,12.2-7.8,33.4-7.8,33.4s5.1,37.2,43.5,56.1
				c0,0,12.7,6.1,3.4-10.2c0,0-7.4-12.5-1.3-40.7C279,352.4,286,316.5,281.3,310.1z"/>
			<path fill="#C1592B" d="M125.9,311.4c0,0,9.7,27.9,15.4,39.1c0,0,24.9,47.5,3.7,76.6c0,0-13.6,16.7,8.3,7.5
				c0,0,63.8-25.6,33.6-111.2c-8.2-23.2-14.5-34.3-20.2-40.8c-8.1-2.4-19.4,1.9-30.8,10.3C125.4,302,124.8,308.5,125.9,311.4z"/>
			<path fill="#C1592B" d="M201.9,290.1c-24.6,4.3-21,21.5-21,21.5s0.1,11.2,10.3,57.3c0.6,2.8,13.1,43.9,44,51.2
				c0,0,26,6.4,8.4-8.1c0,0-9.7-15.4-3.7-47.1c5.7-30.3,1.7-38.8,2.9-47.3C244.5,305.5,225.4,286,201.9,290.1z"/>
			<path fill="#ECE7D7" d="M187.5,351.6c1.1,5.1,2.3,10.8,3.7,17.2c0.4,1.8,5.6,18.9,17.1,33l30.8-3.4c-1.4-7.8-2-19,0.7-33.7
				c2.5-13.3,3.1-22.4,3.2-29.1L187.5,351.6z"/>
			<path fill="#A48B7F" d="M241.3,355.9l-52.2,3.4c0.1,0.4,0.2,0.7,0.2,1.1l51.6-2.2C241.1,357.4,241.2,356.6,241.3,355.9z"/>
			<path fill="#A48B7F" d="M194,377l45.9-12.3c0.1-0.6,0.2-1.2,0.3-1.8l-46.5,13.4C193.8,376.5,193.9,376.7,194,377z"/>
			<path fill="#A48B7F" d="M198.9,387.5l39.4,5.4c-0.1-0.7-0.1-1.3-0.2-2l-39.9-4.5C198.5,386.8,198.7,387.1,198.9,387.5z"/>
			<path fill="#C1592B" d="M376.6,373.7c0,0-20.9-7.9-28.1-47.2c0,0-4.5-17.8-8.1-43.6c0,0-2.6-16.8-8.5-24.2
				c-5.2-0.6-5.3-1.6-12.7-1.1c-11.2,0.7-32.1,7.7-36.2,14.4c-4.1,6.7,15.3,55.2,19.2,62.3c11.3,25.1,29.1,51.1,63.5,49
				C365.6,383.3,405.3,381,376.6,373.7z"/>
			<path fill="#ECE7D7" d="M302.1,334.3c5.9,13,13.5,26.2,24.2,35.7l28.9-20.9l0,0c-2.7-6-5.1-13.5-6.8-22.6c0,0-2.3-9.1-4.9-23.7
				c-9.8,4-42.5,17.2-46.8,19.2C299.1,327.9,301.1,332.5,302.1,334.3z"/>
			<path fill="#A48B7F" d="M299.8,329.3c0.2,0.5,0.5,1.1,0.7,1.5l44.1-22.9c-0.1-0.5-0.2-0.9-0.3-1.4L299.8,329.3z"/>
			<path fill="#A48B7F" d="M304.8,340.1l37.4-13.5l-23.9,35c0.2,0.2,0.4,0.4,0.5,0.7l4.9-6.9L354,346c-0.1-0.4-0.3-0.7-0.4-1.1
				c-5.7,1.5-24.2,6.6-27.9,7.7l19.1-27l3.2-1.2c-0.1-0.3-0.2-0.7-0.2-1l-43.7,15C304.3,339,304.6,339.5,304.8,340.1z"/>
			<polygon fill="#672E1D" points="287.8,372 311.7,406.3 321.6,401 304,364.8 			"/>
			<polygon fill="#421B0D" points="296.4,383.3 310.2,375.9 307.2,368.1 291.2,374.2 			"/>
			<polygon fill="#672E1D" points="256.8,357.7 310.2,332.6 319.1,353.2 271.8,378.8 			"/>
			<polygon fill="#672E1D" points="279.4,372.1 289.3,380.1 311.6,369.8 309.4,355.4 			"/>
			<path fill="#8F4432" d="M256.8,357.7l53.3-25.1c0,0,5.6,14.2-15.8,25.5C294.4,358.1,270.3,368.4,256.8,357.7"/>
			<path fill="#C1592B" d="M237.6,306.2c0,0,2.5,38.9,32.2,52.7c0,0,22.1-4.3,36.1-15.8c0,0,1.9-27.9-11.1-58L237.6,306.2z"/>
			<polygon fill="#421B0D" points="281.3,373.6 309.8,358.2 310.6,362.3 283.6,375.5 			"/>
			<path fill="#25221D" d="M92,291.7c0,0,2.2,0.4,3.5-0.8c1.3-1.2,11.6-11.6,11.6-11.6l33.1,37.7l-14.7,20.4
				c0,0-21.6-22.6-22.1-23.2C102.9,313.7,92,291.7,92,291.7z"/>
			<path fill="#25221D" d="M89.2,284.6c0,0-37.2-40-65.1-5.9c-27.9,34.2,33.8,92.8,33.8,92.8l17.9-16.9c0,0,24.5,15.7,42,2.9
				c17.6-12.8-0.1-58.6-0.1-58.6L89.2,284.6z"/>
			<path fill="#C8A15F" d="M134.8,328c2.6-9.9,3.2-18.2,3.2-18.2l-34.1-17.6l-2.4,15.1l-14.9-3.5l-6.2,24l-15.1-3l-7.4,26.9l-16,2.1
				c8.6,10.7,16,17.8,16,17.8l17.9-16.9c0,0,3.6,2.3,9,4.4l5.5-21.5l11.3-5.4l5.1-18.8L134.8,328z"/>
			<path fill="#7C6C36" d="M57.9,371.5c1.3-1.6,2.7-3.1,4-4.7c1.4-1.6,2.7-3.1,4.1-4.6c1.4-1.5,2.8-3,4.2-4.5c1.4-1.5,2.8-3,4.2-4.5
				l-0.6,1.1l1.1-9.6c0.4-3.2,0.8-6.4,1.2-9.6l0.2-1.4l1.5-0.6c2.6-1,5.1-2.1,7.7-3.1l7.7-3l-1.7,1.9c0.8-3.2,1.6-6.5,2.5-9.7
				c0.8-3.2,1.7-6.5,2.6-9.7l0.8-3.1l2.7,1.5c2.9,1.6,5.8,3.1,8.7,4.8l4.4,2.4c1.5,0.8,2.9,1.6,4.3,2.5c2.9,1.6,5.7,3.3,8.6,5.1
				c2.8,1.7,5.7,3.5,8.5,5.3c-3.1-1.1-6.2-2.3-9.3-3.6c-3.1-1.2-6.2-2.5-9.2-3.8c-1.5-0.7-3.1-1.3-4.6-2l-4.5-2
				c-3-1.3-6.1-2.7-9.1-4.1l3.6-1.7c-0.7,3.3-1.5,6.5-2.2,9.8c-0.7,3.3-1.6,6.5-2.3,9.7l-0.3,1.4l-1.4,0.5l-7.8,2.9
				c-2.6,0.9-5.2,1.9-7.8,2.8l1.7-2c-0.6,3.2-1.2,6.3-1.7,9.5l-1.9,9.5l-0.1,0.7l-0.4,0.4c-1.6,1.3-3.2,2.6-4.7,4
				c-1.6,1.3-3.2,2.6-4.8,3.9c-1.6,1.3-3.2,2.6-4.8,3.8C61.2,369.1,59.6,370.3,57.9,371.5z"/>
			
				<ellipse transform="matrix(0.389 -0.9212 0.9212 0.389 -270.9007 234.411)" fill="#52687E" cx="41.3" cy="321.4" rx="6.5" ry="6.5"/>
			
				<ellipse transform="matrix(0.3889 -0.9213 0.9213 0.3889 -238.3188 209.8255)" fill="#52687E" cx="39" cy="284.6" rx="3.4" ry="3.4"/>
			
				<ellipse transform="matrix(0.3889 -0.9213 0.9213 0.3889 -246.623 305.7578)" fill="#52687E" cx="107.2" cy="338.8" rx="3.4" ry="3.4"/>
			
				<ellipse transform="matrix(0.3889 -0.9213 0.9213 0.3889 -242.135 237.801)" fill="#52687E" cx="58.2" cy="301.4" rx="3.4" ry="3.4"/>
			
				<ellipse transform="matrix(0.389 -0.9213 0.9213 0.389 -225.3489 252.2079)" fill="#52687E" cx="77.5" cy="296" rx="6.3" ry="6.3"/>
			
				<ellipse transform="matrix(0.3889 -0.9213 0.9213 0.3889 -264.2867 319.3393)" fill="#52687E" cx="108.6" cy="358.9" rx="6.3" ry="6.4"/>
			
				<ellipse transform="matrix(0.3889 -0.9213 0.9213 0.3889 -271.4919 206.3977)" fill="#52687E" cx="19.8" cy="307.9" rx="6.8" ry="6.8"/>
			
				<ellipse transform="matrix(0.389 -0.9213 0.9213 0.389 -211.0085 222.5474)" fill="#52687E" cx="62.3" cy="270.3" rx="5.2" ry="5.2"/>
			<path fill="#C1592B" d="M337,242c0,0-12.7,8-7.5,28.9c5.1,20.8,17.3,26.5,17.3,26.5l3.1-8.8l11.4,11.6l-2.6-13.3l20.6,5.6
				l-10.4-16.4l14.3-16.1l-27.2-30.4L337,242z"/>
			<g>
				<line fill="#C1592B" x1="354.3" y1="268.5" x2="336.9" y2="271.9"/>
				<path fill="#A02C36" d="M354.3,268.5c0,0-0.2,0.2-0.7,0.5c-0.4,0.3-1.1,0.7-1.8,1.2c-1.5,0.8-3.6,1.6-5.8,2
					c-2.2,0.4-4.4,0.5-6.2,0.3c-0.9-0.1-1.6-0.2-2.1-0.4c-0.5-0.1-0.8-0.3-0.8-0.3s0.2-0.2,0.7-0.6c0.4-0.3,1.1-0.7,1.8-1.2
					c1.5-0.8,3.6-1.6,5.8-2c2.2-0.4,4.4-0.5,6.2-0.3c0.9,0.1,1.6,0.2,2.1,0.4C354,268.4,354.3,268.5,354.3,268.5z"/>
			</g>
			<g>
				<line fill="#C1592B" x1="356.5" y1="259.9" x2="339.1" y2="263.3"/>
				<path fill="#A02C36" d="M356.5,259.9c0,0-1,0.5-2.6,1c-0.8,0.3-1.7,0.6-2.7,0.8c-1,0.3-2.1,0.5-3.2,0.7
					c-0.5,0.1-1.1,0.2-1.6,0.3c-0.5,0.1-1.1,0.2-1.6,0.2c-1,0.1-2,0.2-2.8,0.3c-1.7,0.1-2.8,0-2.8,0s1-0.5,2.6-1
					c0.8-0.3,1.7-0.6,2.7-0.8c0.5-0.1,1-0.3,1.6-0.4c0.5-0.1,1.1-0.2,1.6-0.4c1.1-0.2,2.2-0.4,3.2-0.5c1-0.1,2-0.2,2.8-0.3
					C355.4,259.8,356.5,259.9,356.5,259.9z"/>
			</g>
			<path fill="#284180" d="M123.4,204.4l-10.2,9.2c0,0,14.8,25.9,2.3,45.1c-12.5,19.2-26.4,26.5-26.4,26.5l36,54.6
				c0,0,35.1-17.4,45.9-47.2c10.8-29.8-27.6-77.7-27.6-77.7L123.4,204.4z"/>
			<path fill="#F1CD2E" d="M162.1,308.9l-48-48.1c-6.3,9.1-12.7,15.3-17.5,19.2l1.8,11.4l15,2.9l6.9-6.3l17.5,16.1l-7.6,7.4
				l-0.8,14.3l12.4,3.4C148.5,324,156,317.2,162.1,308.9z"/>
			
				<ellipse transform="matrix(0.7402 -0.6724 0.6724 0.7402 -161.4657 146.0564)" fill="#EC9F21" cx="108.3" cy="282" rx="4.4" ry="4.4"/>
			
				<ellipse transform="matrix(0.7403 -0.6723 0.6723 0.7403 -176.207 176.9763)" fill="#EC9F21" cx="141" cy="316.6" rx="4.4" ry="4.4"/>
			<path fill="#A02C36" d="M157.1,82.2c-3.5-2-7.4-3.8-11.4-5c3.9,1.7,7.7,4,11,6.6C156.8,83.2,156.9,82.7,157.1,82.2z"/>
			<path fill="#A02C36" d="M154.2,84.1c-1.5-0.1-3.1-0.2-4.7-0.2c1.8,0.5,3.5,1,5.1,1.5C154.5,84.9,154.4,84.5,154.2,84.1z"/>
			<path fill="#A02C36" d="M163.2,79.8c-1.8-1.6-3.8-3-5.9-4.3c1.9,1.5,3.7,3.1,5.3,4.9C162.8,80.2,163,80,163.2,79.8z"/>
			<polygon fill="#A02C36" points="191.5,69.1 189,56.1 188.6,69.1 			"/>
			<polygon fill="#A02C36" points="186.2,67.7 182.7,61.3 184.7,68.2 			"/>
			<polygon fill="#A02C36" points="193.3,66.5 195.3,59.5 191.9,65.8 			"/>
			<path fill="#C1592B" d="M312.4,176.1c-6.2-11.6-13.7-24.2-22.9-37.5C245,74.1,188.8,63.3,188.8,63.3L153.3,84l25.9,70.8
				c0,0-29.5,36.8-40.6,76.2C175.2,233.7,236.2,226.8,312.4,176.1z"/>
			<path fill="#EDE8D8" d="M214,151.6c0,0-0.1,2.3,7.8,10.1c9.5,9.4,23.5,11,23.5,11l-8.1-23.3l-9.2,0.9L214,151.6z"/>
			<path fill="#EDE8D8" d="M157.8,169c0,0,0.6,1.8,8.5,9.6c9.5,9.4,19.1,10,19.1,10l-11.2-33.9c0,0-3.7-2.8-11.5,3.5
				C155,164.3,157.8,169,157.8,169z"/>
			<path fill="#C1592B" d="M157.4,174.8c2.9,0.6,5.9,0.7,8.9,0.4c1.5-0.2,3-0.4,4.4-0.8c0.7-0.2,2.5-0.4,3.5-0.9l0.5-7.3l0.5-7.7
				l0.3-3.9l1.9,3.5c0.4,0.7,0.9,1.5,1.5,2.1c0.6,0.7,1.2,1.3,1.9,1.9c5.2,4.5,12.8,5.5,19.5,5c5.3-0.4,10.8-1.6,15.8-3.6l-8.1-9.4
				l-2.2-2.5l3.3-0.3L226,150l13.1-0.9c-3.8-2.9-7.6-5.9-11.3-8.9c-0.4-0.3-0.7-0.5-1-0.8c0,0,3.2-4.4,3.5-4.9
				c1-1.7,1.9-3.5,2.5-5.4c1.5-4.5,1.3-8.8-0.9-13c-0.7-1.2-1.4-2.4-2.3-3.5c-0.8-1.1-1.8-2.2-2.8-3.1c0.1,0.1,0.3,0.2,0.4,0.3
				c-0.2-0.1-0.3-0.3-0.5-0.4c-6.3-1.2-19.7-2.9-40.8-0.7c-30.5,3.3-51.9,25.1-51.9,25.1l-1,19.7l9.3-6.1c-1.1,1.5-1.8,5.5,2.3,16.1
				c0.8,2,1.8,4,3,5.9c1.1,1.1,2.6,2.3,4.4,3.4C153.6,173.7,155.5,174.3,157.4,174.8z"/>
			
				<ellipse transform="matrix(0.9315 -0.3638 0.3638 0.9315 -35.389 65.8437)" fill="#A02C36" cx="157.1" cy="126.9" rx="1.6" ry="1.6"/>
			
				<ellipse transform="matrix(0.9314 -0.3639 0.3639 0.9314 -37.1906 64.0713)" fill="#A02C36" cx="151.4" cy="130.7" rx="1.2" ry="1.2"/>
			
				<ellipse transform="matrix(0.9315 -0.3638 0.3638 0.9315 -37.8887 66.3329)" fill="#A02C36" cx="157.1" cy="133.7" rx="0.8" ry="0.8"/>
			<path fill="#C1592B" d="M151.9,172.8c0,0,4.1,2.7,10.7,2.9c6.7,0.2,12.3-1.9,12.3-1.9l1.4-15.3c0,0,4.2,8.9,17.5,10.1
				c13.4,1.2,25-4.5,25-4.5l-9.6-11.1l33.8-2.7l-14.6-11c0,0,4.9-5,6.1-13.8c1.1-8.8-7.8-15.9-7.8-15.9"/>
			<path fill="#A02C36" d="M229.8,138.7c7.4-3.6,18.7-9.1,17.6-15c-0.5,0,2.3-0.1-4.2-0.8c0.6,6.4-6.7,9.5-10.5,11.9
				c-1.7,1.1-6.7,3.3-6.8,3.3c0.3,0.3,9.4,8.2,13.2,11.1L226,150l-16.9,1.3l-3.3,0.3l2.2,2.5l8.1,9.4c-5,2-10.5,3.3-15.8,3.6
				c-6.7,0.5-14.2-0.6-19.5-5c-0.7-0.6-1.3-1.2-1.9-1.9c-0.6-0.7-1.2-1.5-1.5-2.1l-1.9-3.5l-0.3,3.9l-0.5,7.7l-0.5,7.3
				c-1,0.5-2.7,0.7-3.5,0.9c-1.4,0.4-2.9,0.6-4.4,0.8c-3,0.3-6,0.3-8.9-0.4c-1.9-0.4-3.8-1-5.6-2c1.7,1.1,3.5,1.9,5.4,2.4
				c5.7,1.7,12.3,1.1,17.9-0.7l0.4-0.1l0.1-0.5l0.9-7.7l0.5-4.5c0.6,0.8,1.3,1.5,2.1,2.2c1.5,1.4,3.3,2.6,5.1,3.5
				c10.5,5.3,25,3,35.3-1.8l1.9-0.9l-1.4-1.6l-7.4-8.6l13.6-1.1l16.9-1.5l3.9-0.3l-3.1-2.3C239.4,145.7,234.4,142,229.8,138.7z"/>
			
				<ellipse transform="matrix(0.9314 -0.3639 0.3639 0.9314 -27.4737 87.6875)" fill="#A02C36" cx="219" cy="116.8" rx="1.6" ry="1.6"/>
			
				<ellipse transform="matrix(0.9315 -0.3639 0.3639 0.9315 -29.2691 85.8898)" fill="#A02C36" cx="213.3" cy="120.6" rx="1.2" ry="1.2"/>
			
				<ellipse transform="matrix(0.9315 -0.3638 0.3638 0.9315 -29.9731 88.1573)" fill="#A02C36" cx="219" cy="123.6" rx="0.8" ry="0.8"/>
			<path fill="#A02C36" d="M189.2,176.5c0,0,0.4,0.2,1.1,0.4c2.2,0.8,4.5,1.1,6.8,1.4c2.7,0.3,5.4,0.6,8.1,0.6
				c2.7,0.1,5.4,0.1,8-0.4c0.7-0.1,1.1-0.3,1.1-0.3s-0.2,0.4-0.8,0.9c-2.6,2.2-6.5,3-9.8,3c-3.8,0.1-8-0.7-11.3-2.7
				c-1.1-0.7-1.9-1.4-2.4-2C189.4,176.9,189.2,176.5,189.2,176.5z"/>
			<path fill="none" d="M151.9,172.8c0.2,0.1,0.4,0.2,0.6,0.3C152.2,173,152.1,172.9,151.9,172.8
				C151.9,172.8,151.9,172.8,151.9,172.8z"/>
			<path fill="#A02C36" d="M239.6,123.6c0,0,0-0.1-0.1-0.2c0-0.1-0.1-0.3-0.1-0.6c0-0.3,0.1-0.6,0.3-0.9c0.2-0.3,0.5-0.6,0.9-0.9
				c0.4-0.2,0.8-0.4,1.2-0.6c0.4-0.2,0.9-0.3,1.4-0.3c0.3,0,0.4-0.1,0.8-0.1c0.2,0,0.4,0,0.7,0c0.6,0.1,1.2,0.2,1.6,0.3
				c2,0.6,3.6,1.9,4.6,3c0.5,0.6,0.8,1.1,1,1.5c0.2,0.4,0.3,0.7,0.3,0.7s-0.3,0-0.7-0.2c-0.4-0.1-1-0.3-1.7-0.5
				c-1.3-0.4-2.9-1-4.4-1.4c-0.4-0.1-0.7-0.2-1-0.3c-0.2,0-0.4-0.1-0.7-0.1c-0.1,0-0.3-0.1-0.5-0.1c-0.4-0.1-0.7-0.1-1.1-0.2
				c-0.3-0.1-0.6-0.1-0.9-0.1c-0.6,0-1,0-1.3,0.2C239.7,123.3,239.6,123.6,239.6,123.6z"/>
			
				<ellipse transform="matrix(0.9177 -0.3974 0.3974 0.9177 -25.5504 79.2194)" fill="#A02C36" cx="178.4" cy="101.3" rx="12.2" ry="16.2"/>
			<path fill="#A02C36" d="M206,98.3c-0.8,7.8-6.2,13.6-12.1,13c-5.8-0.6-11.9-9-11.1-16.8c0.8-7.8,8.2-12,14-11.4
				C202.7,83.7,206.8,90.5,206,98.3z"/>
			
				<ellipse transform="matrix(0.9177 -0.3974 0.3974 0.9177 -25.6792 79.3895)" fill="#EDE8D8" cx="178.7" cy="101.7" rx="9.5" ry="12.7"/>
			
				<ellipse transform="matrix(0.1031 -0.9947 0.9947 0.1031 74.7988 280.2543)" fill="#EDE8D8" cx="192.8" cy="98.6" rx="11.8" ry="8.8"/>
			
				<ellipse transform="matrix(0.9315 -0.3639 0.3639 0.9315 -24.6406 72.3864)" fill="#25221D" cx="179.8" cy="101.6" rx="4.9" ry="6.4"/>
			
				<ellipse transform="matrix(0.9315 -0.3638 0.3638 0.9315 -23.289 76.7045)" fill="#25221D" cx="192" cy="100.2" rx="4" ry="5.2"/>
			<path fill="#751A14" d="M161.3,80.7c5.6-3,12.3-4.9,19.5-5.4c0.3,1.3,0.3,1.4,0.5,2.7c-6.9,0.3-12.8,3.4-18.1,6.1
				C162.7,83,162,81.8,161.3,80.7z"/>
			<path fill="#751A14" d="M184.7,79c5.6-1.7,11.6-0.8,18.2,0.1c0.1,1.3,0.3,1,0.3,2.2c-6.2-0.9-12.1-0.5-17.4,1
				C185.5,81.3,185.1,80.2,184.7,79z"/>
			<path fill="#25221D" d="M191.6,124.8c8.6-3.4,14.4-10.3,15.2-17.1c-5.9-0.1-12.9,0.2-21,1.1c-7.8,0.8-15.1,2.9-21.5,5.5
				c0.1,1,0.4,2.1,0.8,3.1C168.4,125.9,180.3,129.3,191.6,124.8z"/>
			<path fill="#52687E" d="M169.9,117.8c-1.4,0.5-2.4,1.7-2.7,3.1c1.8,2.2,4.3,3.8,7.3,4.8c1.5-1.2,2.2-3.3,1.4-5.2
				C174.9,118.1,172.2,116.9,169.9,117.8z"/>
			<path fill="#52687E" d="M193.5,115.3c-3.5,1.4-5.2,5.3-3.9,8.8c0.2,0.4,0.4,0.8,0.6,1.2c0.5-0.2,0.9-0.3,1.4-0.5
				c4.1-1.6,7.5-4,10.1-6.8C200,115.3,196.6,114.1,193.5,115.3z"/>
			<path fill="#87298C" d="M136.4,83c0,0-1.3-6.7-4.9-9.1c-2.7-1.8-4.8-1.9-5.8-0.8c-1,1.1,2.7,4.8,2.7,4.8s-4.1-1.1-4.7,0.9
				c-0.5,2,3.4,2.6,3.4,2.6s-4.8,1.1-4,3.3c0.7,2.2,4.2,1,4.2,1s-3.4,1.9-2.7,3.8c0.8,1.9,6.1,1.2,6.3,1
				C131,90.3,136.3,83.4,136.4,83z"/>
			<path fill="#27B24B" d="M129.7,102.4c0,0-3.6-19.5,5.5-22c9.1-2.5,13.7,20,13.7,20l-3.5,1c0,0,1,9.5-5.3,10.8
				C133.7,113.5,129.7,102.4,129.7,102.4z"/>
			<path fill="#3D5059" d="M135.2,80.4c-0.1,0-0.1,0.1-0.2,0.1l8.3,29.7c2.6-3.2,2-8.8,2-8.8l3.5-1
				C148.9,100.4,144.2,77.9,135.2,80.4z"/>
			<path fill="#25221D" d="M139.2,100.9c0,0,0.6,0,1.6,0c0.9,0,2.1,0,3.2-0.1c0.6-0.1,1.1-0.2,1.7-0.3c0.6-0.1,1.1-0.2,1.6-0.2
				c0.9-0.1,1.6,0.1,1.6,0.1s-0.5,0.4-1.4,0.9c-0.4,0.2-0.9,0.5-1.5,0.7c-0.5,0.2-1.2,0.4-1.9,0.5c-0.7,0.1-1.4,0-2-0.1
				c-0.6-0.1-1.2-0.3-1.6-0.5C139.7,101.4,139.2,100.9,139.2,100.9z"/>
			<ellipse transform="matrix(0.9629 -0.27 0.27 0.9629 -20.3433 39.8481)" fill="#EDE8D8" cx="134.7" cy="93.9" rx="2.9" ry="5"/>
			
				<ellipse transform="matrix(0.9629 -0.27 0.27 0.9629 -20.5525 40.3312)" fill="#25221D" cx="136.3" cy="94.9" rx="1.7" ry="2.6"/>
			<polygon fill="#27B24B" points="138.2,110.4 134.2,118.8 139.6,118.8 			"/>
			<polygon fill="#27B24B" points="140.1,111.5 143.4,117 146.9,113.2 			"/>
			<path fill="#87298C" d="M130.1,100.6c0,0-1.3-3.4-4.1-6.9c-2.9-3.5-6.1-3.5-6.1-3.5s-0.9,4.4,1.6,7.6c2.5,3.2,6.7,3.2,6.7,3.2
				s-1.6,1.5-2.2,4.5c-0.6,3,0.9,8.9,0.9,8.9s1.7-0.9,3.3-4.4C131.8,106.4,130.1,100.6,130.1,100.6z"/>
			
				<ellipse transform="matrix(0.9598 -0.2807 0.2807 0.9598 -24.5531 62.3921)" opacity="0.2" fill="#55C9F4" cx="205.5" cy="116.9" rx="102" ry="102"/>
			<path fill="#284180" d="M314.4,160.9c0,0,86.1,2.5,91.3,56.3c3.6,37.4-25.1,62-25.1,62l-46.4-40.4c0,0,3-2.8,6.5-5.1
				c8.9-6,3.7-22.1-0.1-28.4c-4.4-7.5-30.4-24-46.7-27.4C291.4,177.4,314.4,160.9,314.4,160.9z"/>
			<path fill="#F1CD2E" d="M335.1,234.3l7.7,12.3l11.3,1.6l10.6-11.6l14.5,11.2l-6,11l8.1,10.2l8.4,0.4c3.3-4.3,7.2-10.1,11.2-16.9
				l-53.5-37.2C342.7,221.5,335.7,233.8,335.1,234.3z"/>
			
				<ellipse transform="matrix(0.5741 -0.8188 0.8188 0.5741 -48.223 425.4297)" fill="#EC9F21" cx="384.8" cy="259.1" rx="4.1" ry="4.3"/>
			
				<ellipse transform="matrix(0.5741 -0.8188 0.8188 0.5741 -44.5499 386.3968)" fill="#EC9F21" cx="349.1" cy="236" rx="4.1" ry="4.3"/>
			<path fill="#C1592B" d="M128.7,227.8c-1.8,4.5-3.4,9-4.7,13.5c-12,43.4,8.9,89.2,8.9,89.2c82.3,7.9,159.2-7.3,202.6-63.6
				c0,0-6.2-34.5-25.7-81.1C225.9,229.6,166,233.8,128.7,227.8z"/>
			<polygon fill="#EDE8D8" points="175.5,266.1 199.8,262.2 207.1,244.2 214.7,260.9 229.9,258.1 233.2,249.2 241.5,255.6 
				265.8,248.8 239.7,201.4 170.2,212.8 			"/>
			<path fill="#284180" d="M138.4,276.7l7.7-15.7l2.9,13.6l35.8-5.5l-10.3-60.5l-28.4-10c-10.6,12.2-20.3,26.7-24.6,42.6
				c-3.1,11.4-3.4,23.2-2,34.5L138.4,276.7z"/>
			<path fill="#284180" d="M229.9,202.3l22.5,54.6l28.3-7.9l2.4-15.9l12.6,12.4l19.3-4.7l1.9-15.1l15.2,8.1c0,0-11.6-37.4-20.9-54.1
				c-9.2-16.7-12.6-14-12.6-14s-17.5,12.2-36.6,25.6C243,204.8,229.9,202.3,229.9,202.3z"/>
			<path fill="#EC9F21" d="M255.5,231.7c0,0,0.5-8.7,4.2-6.8c3.7,1.9-2.1,7.6-2.1,7.6s6.3-1.7,5.3,2.3c-1,3.9-6.5,0.5-6.5,0.5
				L255.5,231.7z"/>
			
				<ellipse transform="matrix(0.9792 -0.2027 0.2027 0.9792 -42.2261 56.3008)" fill="#F1CD2E" cx="253.8" cy="234.3" rx="4.5" ry="4.5"/>
			<path fill="#EC9F21" d="M168.3,247.4c0,0-5.4-6.8-7.3-3.1c-1.9,3.7,6,5,6,5s-6.1,2.3-3,4.9c3.1,2.6,5.6-3.4,5.6-3.4L168.3,247.4z
				"/>
			
				<ellipse transform="matrix(0.9161 -0.4009 0.4009 0.9161 -85.275 89.4758)" fill="#F1CD2E" cx="171.2" cy="248.5" rx="4.5" ry="4.5"/>
			<path fill="#25221D" d="M119.9,299.2c0,0,28.7-12.6,108.3-28.2c79.6-15.6,105-20.1,105-20.1l9.5,28.6l-208.6,60.8L119.9,299.2z"
				/>
			<path fill="#CBD7DC" d="M192.3,277.5l14,42.5l50.2-14.2l-8.5-40.6L192.3,277.5z M248.9,302.2l-38.7,11.8l-4.2-15l-2.6-9.1
				l-2.1-7.6l42.1-8.6L248.9,302.2z"/>
			<path fill="#CBD7DC" d="M202.8,293.5c0.2-0.1,9.1-0.7,9.1-0.7l1.5,5.4l-7.9,2.9L202.8,293.5z"/>
			<polygon fill="#614B45" points="173.5,291.9 185.4,325.4 184.2,325.8 172.5,292.2 			"/>
			<polygon fill="#614B45" points="161.9,296.5 171.6,329.4 173.1,329 162.5,296.2 			"/>
			<polygon fill="#614B45" points="133.9,307.6 143.5,337.7 144.7,337.3 135,307.2 			"/>
			<path fill="#EC9F21" d="M133.9,307.6l39.7-15.7c0,0-12.5-21.4-29.1-12.3C144.5,279.6,127.2,284.7,133.9,307.6"/>
			<path fill="#F1CD2E" d="M143.4,279.9c0,0,10.6-5.5,18.5,16.6l11.6-4.6C173.5,291.9,163.7,270,143.4,279.9z"/>
			<path fill="#52687E" d="M156.6,298.6c0,0-4-14.7-12.6-9.6c0,0-7.5,4.2-2.7,15.7L156.6,298.6z"/>
			<path fill="#EC9F21" d="M161.1,286l-0.1-1.5l3.5-0.5c0,0,5.1,2.4,7.1,8.6l-3.5,1.4L161.1,286z"/>
			<path fill="#52687E" d="M164.8,295.3c0,0-0.7-5.5-3.7-9.4l3.9-0.5c0,0,3.8,2.6,5.8,7.6L164.8,295.3z"/>
			<path fill="#25221D" d="M166.2,286.5l-4.2,0.8c0.2,0.3,0.3,0.5,0.5,0.8l4.3-1.1C166.6,286.9,166.4,286.7,166.2,286.5z"/>
			<path fill="#25221D" d="M169.2,290l-5.4,1.1c0.1,0.3,0.2,0.6,0.3,0.9l5.5-1.4C169.4,290.3,169.3,290.2,169.2,290z"/>
			<path fill="#614B45" d="M316.5,287.2l-8.8-31.4c-0.3,0.1-0.7,0.1-1.1,0.2c2.8,11.3-6,18.1-6,18.1c-14.7,8.3-24-9.1-25.4-12
				c-0.6,0.1-1.3,0.2-1.9,0.4l7.6,35.2l1.1-0.3l-6.2-31.6c7.9,15.8,22.1,10.8,22.1,10.8c8.8-3.3,9.9-11.8,9.7-16.9l7.1,28.2
				L316.5,287.2z"/>
			
				<ellipse transform="matrix(0.9629 -0.27 0.27 0.9629 -61.9307 89.6206)" fill="#CBD7DC" cx="294.8" cy="269.9" rx="2.9" ry="2.9"/>
			<g>
				<path fill="#F1CD2E" d="M152.4,207.3c0,0,5.6,21,0,23.5c-5.7,2.4-4-7.6-4-7.6s-2.7,14.2-6.9,14.3c-4.2,0.2-3.5-13-3.5-13
					s-2.4,11.2-8.3,10.6c-6-0.6-2-9.8-2-9.8s-11.2,9.7-14.5,6.3c-3.3-3.3,3.1-12.9,3.1-12.9s-5.9,10.2-10.4,7.3
					c-4.5-2.9,12.4-27,12.4-27L152.4,207.3z"/>
				<path fill="#EC9F21" d="M158.5,206.7l-43.3-17.5l-0.5,5.1c0,0-0.8,13.8,13,19.4C141.5,219.4,158.5,206.7,158.5,206.7z"/>
				<path fill="#F1CD2E" d="M159,201.6l-43.8-12.4c0,0-0.8,13.8,13,19.4C142.1,214.3,159,201.6,159,201.6z"/>
			</g>
			<path fill="#A91E33" d="M144.2,197.4c0,0-5.2,19.1-0.3,37.9l134.5-23.9c0,0,9.8-26.3,31.8-42.7l-21.7-1.6
				C288.4,167,215.5,212,144.2,197.4"/>
			<path fill="#751B16" d="M149.4,198.3c0,0,1.8,18.2,22.6,32l-28.1,5c0,0-5.7-18,0.3-37.9L149.4,198.3z"/>
			<path fill="#751B16" d="M268.7,176.7c0,0-24.3,17.2-14.3,38.9l24.1-4.3c0,0,10.3-26.2,31.8-42.7l-13.1-9.3L268.7,176.7z"/>
			<path fill="#F1CD2E" d="M291.4,170.1c0,0-2.2,23.4,4.3,24.9c6.5,1.5,2.9-8.8,2.9-8.8s5.4,14.6,9.9,14c4.5-0.6,1.3-14.4,1.3-14.4
				s4.6,11.4,10.8,9.7c6.2-1.7,0.3-10.8,0.3-10.8s13.7,8.2,16.5,4.1c2.9-4.1-5.7-13.1-5.7-13.1s8.1,9.8,12.4,5.9
				c4.3-3.9-18.1-26.4-18.1-26.4L291.4,170.1z"/>
			<path fill="#EC9F21" d="M284.8,170.6l-1.5-5.3l44.3-21.1l1.5,5.3c0,0,3.4,14.5-10.3,23C305.1,181,284.8,170.6,284.8,170.6z"/>
			<path fill="#F1CD2E" d="M283.3,165.3l44.3-21.1c0,0,3.4,14.5-10.3,23C303.6,175.7,283.3,165.3,283.3,165.3z"/>
			
				<ellipse transform="matrix(0.9629 -0.27 0.27 0.9629 -39.9892 81.8704)" fill="#A91E33" cx="277.6" cy="186.3" rx="5.9" ry="5.9"/>
			<polygon fill="#751B16" points="275.9,178.1 276.5,194 278.2,194.1 278.8,176.9 			"/>
			<polygon fill="#751B16" points="196.9,220 194.2,220.7 194,206.6 196.7,205.9 			"/>
			<polygon fill="#751B16" points="206.8,218.1 204.1,218.8 203.9,204.7 206.6,204 			"/>
			<polygon fill="#751B16" points="212,217.2 209.4,217.9 209.2,203.8 211.8,203.1 			"/>
			<polygon fill="#751B16" points="201.9,219.1 199.2,219.8 199,205.7 201.7,205 			"/>
		</g>
	</g>
</g>
</svg>
