<?xml version="1.0" encoding="utf-8"?>
<!-- Generator: Adobe Illustrator 22.0.1, SVG Export Plug-In . SVG Version: 6.00 Build 0)  -->
<svg version="1.1" xmlns="http://www.w3.org/2000/svg" xmlns:xlink="http://www.w3.org/1999/xlink" x="0px" y="0px"
	 viewBox="0 0 617 576" style="enable-background:new 0 0 617 576;" xml:space="preserve" width="617" height="576" preserveAspectRatio="none">
<style type="text/css">
	.st0{opacity:0.1;fill:#384E7D;}
	.st1{fill:#72B2C6;}
	.st2{fill:#0067AC;}
	.st3{fill:#0092A1;}
	.st4{fill:#00454D;}
	.st5{fill:#FFC641;}
	.st6{fill:#F5843C;}
	.st7{fill:#FFED82;}
	.st8{fill:none;stroke:#0067AC;stroke-width:2;stroke-miterlimit:10;}
	.st9{fill:#410025;}
	.st10{fill:#FFFFFF;}
	.st11{fill:#8ED5F6;}
	.st12{fill:#F47729;}
	.st13{fill:#39B54A;}
	.st14{fill:#DB5983;}
	.st15{fill:#882890;}
	.st16{fill:#003E6E;}
	.st17{fill:#BD4161;}
	.st18{fill:#27AAE1;}
	.st19{fill:#822741;}
	.st20{fill:#34BCAA;}
	.st21{fill:#1C8478;}
	.st22{fill:#9B6BAE;}
	.st23{fill:#7A4490;}
	.st24{fill:none;stroke:#0067AC;stroke-width:2.4572;stroke-miterlimit:10;}
	.st25{fill:#F4833D;}
	.st26{fill:#72B1C4;}
	.st27{fill:#0468AC;}
	.st28{fill:#0691A1;}
	.st29{fill:#04454C;}
	.st30{fill:#FDEB82;}
	.st31{fill:none;stroke:#0468AC;stroke-width:2.4572;stroke-miterlimit:10;}
	.st32{fill:#3B1026;}
	.st33{fill:#8ED3F5;}
	.st34{fill:#F37829;}
	.st35{fill:#38B34A;}
	.st36{fill:#DB5A83;}
	.st37{fill:#87298D;}
	.st38{fill:#16406D;}
	.st39{fill:none;stroke:#0067AC;stroke-width:2.4571;stroke-miterlimit:10;}
	.st40{fill:#FFC642;}
	.st41{fill:#F5843D;}
	.st42{fill:#73B3C7;}
	.st43{fill:#FDED83;}
	.st44{fill:#0268AD;}
	.st45{fill:#0392A1;}
	.st46{fill:#3C1026;}
	.st47{fill:#8FD5F6;}
	.st48{fill:#39BCAA;}
	.st49{fill:#1E8579;}
	.st50{fill:#03454D;}
	.st51{fill:#BE4261;}
	.st52{fill:#F4782A;}
	.st53{fill:#3DB54A;}
	.st54{fill:#882A8E;}
	.st55{fill:#832942;}
	.st56{fill:none;stroke:#0067AC;stroke-width:2.6462;stroke-miterlimit:10;}
</style>
<g id="MsQ_Cast_Shadow">
</g>
<g id="MsQ_Bun">
</g>
<g id="MsQ_Right_Antennae">
</g>
<g id="MsQ_Right_Feet">
</g>
<g id="MsQ_Tail">
</g>
<g id="MsQ_MidSection">
</g>
<g id="MsQ_Front_Body">
</g>
<g id="MsQ_Feet">
</g>
<g id="MsQ_5th_Grade_Front_Hair">
</g>
<g id="MsQ_Left_Antennae">
</g>
<g id="MsQ_Eyes">
</g>
<g id="MsQ_Specs">
</g>
<g id="MsQ_Beak">
</g>
<g id="MsQ_3rd_Grade_Apron">
</g>
<g id="MsQ_4th_Grade_Apron">
</g>
<g id="MsQ_5th_Grade_Apron">
</g>
<g id="MsQ_Left_Arm">
</g>
<g id="MsQ_Right_Arm_1_">
</g>
<g id="Labels">
	<g>
		<g>
			<path class="st5" d="M114.6,317.9c-2.7,2.5-5.2,4.5-7.1,5.3c-8.6,3.6-42.9-8.9-55.4-8.3c-12.5,0.6-6.4,16.3-6.4,16.3
				c5.2,37.6,28.3,65.4,47.6,66.8c19.9,1.4,45.2-25.1,50.8-68.9L114.6,317.9z"/>
			<path class="st6" d="M45.4,332.8c0,0,0.3,2.4,1.3,6.5c0.9,4.1,2.5,10,4.9,16.8c1.2,3.4,2.6,7.1,4.4,10.9
				c1.8,3.8,3.7,7.8,6.1,11.7c2.4,4,5.2,7.9,8.5,11.7c3.3,3.7,7.2,7.2,11.9,9.9c1.1,0.7,2.4,1.2,3.6,1.8c0.6,0.3,1.3,0.5,1.9,0.7
				l1,0.3l0.2,0.1l0.3,0.1l0.1,0l0.1,0l0.4,0.1l1.7,0.4c0.6,0.1,1.5,0.2,2.2,0.3c1.5,0.2,2.9,0.1,4.3,0c5.6-0.5,10.5-2.9,14.4-5.9
				c4-2.9,7-6.4,9.6-9.8c2.6-3.4,4.7-6.8,6.4-10.1c1.8-3.2,3.1-6.3,4.3-9c1.2-2.7,2-5.2,2.7-7.2c0.7-2,1.1-3.6,1.4-4.7
				c0.3-1.1,0.4-1.7,0.4-1.7s-1.1,2.1-3.2,5.8c-2.1,3.6-5.2,8.7-9.3,14.5c-2.1,2.8-4.4,5.8-7.1,8.7c-2.7,2.9-5.7,5.7-9.1,7.9
				c-1.7,1.1-3.5,2-5.4,2.8c-1.9,0.7-3.8,1.1-5.7,1.3c-1,0-2,0.1-2.8-0.1c-0.5-0.1-0.8,0-1.4-0.2l-1.7-0.4l-0.4-0.1l-0.1,0l-0.1,0
				c-0.1,0,0.4,0.1,0.2,0l-0.2-0.1l-0.7-0.3c-0.5-0.2-1-0.3-1.4-0.5c-0.9-0.5-1.9-0.8-2.8-1.4c-3.7-2.1-7.1-5-10.1-8.2
				c-3-3.2-5.8-6.8-8.3-10.3c-2.5-3.6-4.7-7.2-6.8-10.7c-2-3.5-3.8-6.9-5.5-10c-3.2-6.3-5.8-11.7-7.5-15.6
				C46.4,335,45.4,332.8,45.4,332.8z"/>
			<path class="st5" d="M37.9,310.9c-7.4,3.4-22.7,8.2-33,10.6c-1.5,0.3-3.3,1.1-3.5,2.6c-0.1,0.7,0.2,1.3,0.5,1.9
				c4,8.2,12.1,12.5,21.2,11.9c-3.6,2.8-7.1,5.5-10.7,8.3c-0.7,0.5-1.4,1.2-1.6,2c-0.2,1.6,1.7,2.6,3.3,2.9c7.3,1.4,15-0.3,21.6-3.9
				c6.5-3.6,11.2-11,15.5-17.2L37.9,310.9z"/>
			<path class="st5" d="M42.3,329.5c0,0-12.4-1.7-9.3-15.3c4-18-1.4-22.3,0.9-24s18.6,8.9,20.3,17.3c2.8,14.1-6.7,18.7-6.7,18.7
				L42.3,329.5z"/>
			<path class="st6" d="M39.4,330.2c0,0-8.2-3.4-9.1-11.3c-1.2-10.4,10.3-10.5,10.3-10.5s-4.9,3.4-6,9.5
				C33.8,322.6,39.4,330.2,39.4,330.2z"/>
			<g>
				<path class="st6" d="M20.7,320c1.1,2.1,2.2,4.1,3.3,6c1.2,1.9,2.5,3.6,4,5.1c1.5,1.4,3.4,2.6,5.3,3.7c2,1.1,4,2,6.2,2.9
					c-2.4,0.2-4.8-0.2-7-1c-2.3-0.8-4.4-2-6.3-3.7c-1.8-1.7-3.1-3.9-4-6.1C21.3,324.7,20.8,322.4,20.7,320z"/>
			</g>
		</g>
		<path class="st2" d="M175.2,141.7c0,0-10.9,10.8-5.4,18.9c3.5,5.2,6.9,2.4,6.9,2.4s-1.1,7,5.7,13.8c6.9,6.8,16.6-5.4,16.6-5.4
			s2.1-21.6,1.8-22.9c-0.3-1.3-7.4-14-7.4-14l-6.6-2.3L175.2,141.7z"/>
		<g>
			<path class="st5" d="M138.7,73.2c8.5,8.3,12,18.5,7.8,22.8c-4.2,4.3-14.5,1-22.9-7.3c-8.5-8.3-12-18.5-7.8-22.8
				C120,61.6,130.2,64.9,138.7,73.2z"/>
			<path class="st5" d="M196.3,136.1c0,0-14.4-34.4-38.9-54.3C133.1,62.1,121.1,64,121.1,64l23.1,33.4c0,0,4.1-3.3,10-1.4
				c24,7.8,35.8,43,35.8,43L196.3,136.1z"/>
			<path class="st6" d="M137.7,76.3c5.4,6,7,15.7,4.8,18c-2.3,2.3-8.8-0.4-14.6-6.1c-5.8-5.7-10.3-14.5-8-16.8
				C122.2,69.1,130,67.8,137.7,76.3z"/>
		</g>
		<path class="st1" d="M188.3,541c0,0-2.2,8.2,1,17.9c3.1,9.7,6.8,15.4,9.1,15.6c2.3,0.2,10.7-23.9,10.7-23.9s-2-4.9-7.7-7.4
			C195.5,540.7,188.3,541,188.3,541z"/>
		<path class="st1" d="M203,545.9c0,0,1,8.4,7.4,16.3c6.4,7.9,12,11.9,14.2,11.3c2.2-0.6,1.3-26.1,1.3-26.1s-3.6-3.8-9.9-4.1
			C209.6,543,203,545.9,203,545.9z"/>
		<path class="st1" d="M217.8,547.8c0,0,3.2,7.9,11.4,13.8c8.3,5.9,14.7,8.3,16.6,7.1c2-1.2-5.7-25.6-5.7-25.6s-4.5-2.7-10.7-1.4
			C223.4,543.2,217.8,547.8,217.8,547.8z"/>
		<path class="st5" d="M571.5,229.2c-35.6-13-59,2.3-66.4,7.2c-64.7,42.1,4.2,95.1,63.8,140.5c4.8,3.7,27.2,20.5,36.2,17.1
			C615.2,390.1,633.5,251.8,571.5,229.2z"/>
		<path class="st7" d="M605.7,393.5c0.4-0.3,3.1-4.1,3.8-5.8c2.4-6.9,3-15,3.9-22.2c0.4-3,2.5-10.1,1.4-12.8c-0.9-2-1.9-4.1-3-6.2
			c-18.7-35.1-54.6-36.4-54.6-36.4s-38-0.9-56.8,8c13.8,15.6,30.1,29,46.5,41.9c9.1,7.1,17.8,14.8,27.2,21.4c4.8,3.3,9.8,6.4,15.1,9
			C593.7,392.4,600.8,396.6,605.7,393.5z"/>
		<path class="st5" d="M595.4,361.3c7.3-6.3,10-15.8,10.7-23.9c-0.7-1-1.5-1.9-2.3-2.9c-0.3,8.2-2.3,18.8-10.2,24.7
			c-11.8,8.9-28.1,9.1-36.9,8.3c0.3,0.2,0.5,0.4,0.8,0.6c6.2,1,15.7,1.8,25.4-0.2C586.8,367,591.1,365,595.4,361.3z"/>
		<path class="st5" d="M535.3,350.7c14.4-4.3,38.5-13.3,44.7-26.2c1.1-2.4,1.8-4.8,2.1-7.3c-1.6-0.8-3.2-1.5-4.8-2.2
			c-0.3,2.1-0.8,4.2-1.7,6.3c-5.2,12.1-27.8,23-41.2,28.5C534.7,350.1,535,350.4,535.3,350.7z"/>
		<path class="st5" d="M503.5,237.6c0,0-6-14-42.8-26.3c-36.8-12.3-66.8,0.3-66.8,0.3s-22.2,8.1-36.5,52.1
			c-16.8,51.9-8.2,276.5,104.4,245.9c35.6-9.7,39.1-10.6,47.3-12.8c35.3-9.6,56.7-119.3,56.7-119.3s0.9-47-8.5-71.7
			C538.1,254.9,503.5,237.6,503.5,237.6z"/>
		<path class="st6" d="M491.6,227.3c0.5,0.2,0.9,0.3,1.4,0.5c0.9,0.4,2.2,0.9,3.7,1.8c18.1,9.8,29.9,27.7,34.5,47.5
			c2.5,10.8,3.1,22,2.6,33c-0.2,5.6-0.7,11.1-1.3,16.7c-0.6,4.9-1.8,9.3-2.8,14.2c-0.1,0.3-0.2,0.5-0.3,0.8
			c-0.8-3.3-0.3-7.6-0.4-11.1c-0.1-3.9-0.3-7.8-0.6-11.7c-0.5-8-1.3-15.9-2.2-23.8c-1-8.4-2.3-16.8-4.9-24.9
			C516.2,253.8,505.2,238,491.6,227.3z"/>
		<path class="st6" d="M545.5,279.4c0,0,1.6,2.5,3.9,7.1c16.3,33.2,21.6,71.5,15.4,107.8c-3.9,22.8-12,45.1-23.9,65
			c1.2-2.4,1.5-5,2.3-7.5c1.4-4.4,3-8.7,4.4-13.1c2.7-8.8,4.9-17.7,6.7-26.7c3.6-18,5.3-36.4,5.2-54.8c-0.1-12.3-2.3-25.2-4.1-37.4
			c-2-13-4.8-26-9.1-38.5C545.8,280.1,545.5,279.4,545.5,279.4z"/>
		<path class="st5" d="M429.7,350.2c-10.8-56.8-21.7-110.7-32.5-133.8c-0.8-1.7-1.6-3.4-2.4-5.1c-0.7,0.2-1,0.4-1,0.4
			s-11.9-23.5-23.2-36.1c-43.2-48.4-118.5-67-164.8-48.9s-11.5,64.4-11.5,64.4s-115.8-24.3-76.7,234.8
			c24.7,163.7,154.8,135.2,154.8,135.2s197.2-54,203.4-55.7c29.5-8,37.2-38.4,17-78.6C472.7,386.8,439.6,396.3,429.7,350.2z"/>
		<path class="st7" d="M479.5,503.5c-18.3-3-37.4-8.8-54.3-19.2C371.6,450.9,324.9,197,324.9,197s-13.8,16.5-32,12.1
			c-17.8-4.3-19.7-8.9-27.1-15.3c-1.3-1.2-20.2-4-20.2-4l-13.9-2.1c0,0-0.7,30.1-21.5,39.5c-20.5,9.3-36.2-5.3-36.2-5.3
			s-37.1,155.4-2.8,245.2c15.2,39.9,30,68.6,41.7,88c32.8,10.1,61.2,3.9,61.2,3.9S411.8,521.8,479.5,503.5z"/>
		<path class="st5" d="M329.7,526.7c-94.5,25.6-127.3,23-128.6,22.9l0.2-2.6c0.3,0,33.8,2.6,127.7-22.8
			c97.5-26.5,114-41.6,114.1-41.8l1.9,1.9C444.4,484.9,428.5,499.9,329.7,526.7z"/>
		<path class="st5" d="M260.7,317.8c-94.5,25.6-127.3,23-128.6,22.9l0.2-2.6c0.3,0,33.8,2.6,127.7-22.8
			c97.5-26.5,114-41.6,114.1-41.8l1.9,1.9C375.4,276,359.5,291,260.7,317.8z"/>
		<path class="st6" d="M363.4,168.9c0,0,0.6,0.4,1.8,1.3c11.4,9.1,20.7,20.9,27.9,33.6c5.8,10.1,10.4,20.9,13.8,32
			c0.9,2.9,1.9,5.8,2.7,8.8c9.7,34.4,17.5,69.8,20.4,105.5c0,0-0.2-0.7-0.7-2.1c-0.4-1.4-1-3.4-1.8-6c-4.9-17.2-9.5-34.5-14-51.7
			c-9.2-35.3-16.9-72.6-36.9-103.8c-3.6-5.5-7.4-10.9-11.7-15.9C363.9,169.5,363.4,168.9,363.4,168.9z"/>
		<path class="st5" d="M261.7,370.7c-73.9,20-118.1,16.3-118.7,16.3l0.2-2.6c0.9,0.1,89.5,7.5,225.9-56.3l1.1,2.4
			C329.5,349.5,292.9,362.2,261.7,370.7z"/>
		<path class="st5" d="M267.3,425.7c-20.8,5.6-42.2,10.1-63.2,12.5c-39.4,4.6-58.7-0.2-59.5-0.4l0.6-2.6c0.2,0,19.8,4.8,58.8,0.3
			c65.3-7.6,134-34.9,180-56.5l1.1,2.4C353.6,396.2,311.6,413.7,267.3,425.7z"/>
		<path class="st5" d="M276.6,486.4c-17.9,4.9-33.8,8-47.2,10c-42,6.3-68.4,3.2-68.7,3.1l0.3-2.6c0.3,0,26.4,3.1,68.1-3.1
			c38.5-5.8,98.4-20.9,165.6-60.3l1.3,2.3C351.9,461.7,310.7,477.2,276.6,486.4z"/>
		<path class="st1" d="M557.6,425.9c0,0,3-0.1,6-2.3c2.9-2.1,4.5-4,4.3-4.8c-0.2-0.8-9.2-1-9.2-1s-1.4,1.2-1.7,3.4
			C556.7,423.4,557.6,425.9,557.6,425.9z"/>
		<path class="st1" d="M418.4,483.6c0,0-2.2,8.2,1,17.9c3.1,9.7,6.8,15.4,9.1,15.6c2.3,0.2,10.7-23.9,10.7-23.9s-2-4.9-7.7-7.4
			C425.7,483.3,418.4,483.6,418.4,483.6z"/>
		<path class="st1" d="M432.4,490.5c0,0,1.7,8.3,8.7,15.7c7.1,7.3,12.9,10.9,15,10.1c2.1-0.8-0.9-26.2-0.9-26.2s-3.9-3.5-10.2-3.3
			C438.7,487,432.4,490.5,432.4,490.5z"/>
		<path class="st1" d="M452.7,495.1c0,0,3.9,6.8,12.2,11.1c8.3,4.3,14.4,5.6,16.1,4.3c1.6-1.3-8.5-22.5-8.5-22.5s-4.5-1.9-9.9,0.2
			C457.2,490.2,452.7,495.1,452.7,495.1z"/>
		<path class="st1" d="M475.5,498.8c0,0,7.1,6.2,18.3,7.9c11.2,1.7,18.8,0.8,20.1-1.3c1.3-2.1-18.6-22.5-18.6-22.5s-5.9-0.4-11.3,4
			C478.8,491.3,475.5,498.8,475.5,498.8z"/>
		<path class="st1" d="M500.9,494.4c0,0,7.7,4,18.1,3c10.3-1,16.9-3.4,17.6-5.7c0.7-2.2-21.5-15.9-21.5-15.9s-5.3,0.9-9.1,6.1
			C502.1,487.1,500.9,494.4,500.9,494.4z"/>
		<path class="st1" d="M520.3,481.8c0,0,7.4,2.2,16.2-0.3c8.9-2.5,14.2-5.7,14.5-7.7c0.3-2-21.3-10.4-21.3-10.4s-4.5,1.7-7,6.8
			C520.2,475.2,520.3,481.8,520.3,481.8z"/>
		<path class="st1" d="M536.4,467.6c0,0,5.9,1.8,12.9-0.2c7-2,11.3-4.5,11.5-6.2c0.2-1.6-16.9-8.3-16.9-8.3s-3.6,1.3-5.5,5.4
			C536.3,462.4,536.4,467.6,536.4,467.6z"/>
		<path class="st1" d="M545.8,455.7c0,0,4.5,0.8,9.5-1.3c5-2.1,7.9-4.3,8-5.5c0-1.2-13.2-4.7-13.2-4.7s-2.5,1.3-3.7,4.4
			C545.3,451.8,545.8,455.7,545.8,455.7z"/>
		<path class="st1" d="M552.2,445.4c0,0,4.2-0.2,8.3-3.1c4.1-2.9,6.3-5.6,6-6.7c-0.2-1.1-12.9-1.5-12.9-1.5s-2,1.7-2.4,4.8
			C550.9,442,552.2,445.4,552.2,445.4z"/>
		<path class="st1" d="M556.3,434.9c0,0,3.5-0.2,6.9-2.6c3.4-2.4,5.2-4.6,5-5.5c-0.2-0.9-10.7-1.2-10.7-1.2s-1.7,1.4-2,4
			C555.3,432,556.3,434.9,556.3,434.9z"/>
		<path class="st22" d="M111.5,289.7c0,0,19.7,20.4,35.6,45.7c10.9,17.4,23,39.4,23,39.4l135.4-36.7c0,0,22.8-47.3,43.2-73.4
			c20.3-26.1,53.6-43.3,53.6-43.3l4.6,17c0,0-68.6,46.9-18.5,167.7c16.7,40.2,30.6,53.5,30.6,53.5l-257.4,55.5
			c0,0-1.2-58.6-9.5-104.4s-42.4-97.4-42.4-97.4C110.1,306,110.7,298,111.5,289.7z"/>
		<path class="st22" d="M362.4,365.2c0,0,20.9-1.4,38.3-11.2c17.4-9.8,26.6-23.8,26.6-23.8l0.6,3.7c0,0-3.8,11.7-20.6,23.5
			c-16.8,11.8-39.6,17.6-39.6,17.6L362.4,365.2z"/>
		<path class="st22" d="M119.2,434.8c0.5,0.1,1.1,0.1,1.6,0.2c20.5,1.7,43.1-4.9,43.1-4.9l-0.4-11c0,0-18.8,9.3-38.7,9.7
			c-2.3,0-4.5,0-6.7-0.2C118.5,430.7,118.8,432.8,119.2,434.8z"/>
		<g>
			<path class="st5" d="M397.4,297.7c-6.1,5-55.1,30.5-62,38.8c-6.9,8.3,9.2,19,9.2,19s32.5,33.6,54.1,20.3
				c21.6-13.3,13.9-65.6,13.9-65.6L397.4,297.7z"/>
			<path class="st6" d="M344.6,355.5c0,0,1.6,1.3,4.6,3.6c2.9,2.2,7.2,5.3,12.4,8.6c2.6,1.6,5.6,3.3,8.7,4.8
				c3.1,1.5,6.5,2.9,10.1,3.8c3.5,0.9,7.3,1.4,10.7,0.8c3.5-0.5,6.7-2.1,9.3-4.6c2.6-2.4,4.5-5.8,6-9.3c1.5-3.5,2.5-7.3,3.3-11
				c0.8-3.7,1.3-7.4,1.7-10.9c0.4-3.5,0.6-6.9,0.8-10c0.3-6.2,0.4-11.5,0.4-15.2c0-3.7,0-5.8,0-5.8s0.6,2,1.3,5.7
				c0.7,3.6,1.6,8.9,2.1,15.3c0.2,3.2,0.4,6.7,0.3,10.4c-0.1,3.7-0.3,7.6-0.9,11.7c-0.6,4-1.5,8.2-3.1,12.4
				c-1.6,4.1-3.9,8.3-7.4,11.7l-1.5,1.3l-0.4,0.3l-0.3,0.2l-0.6,0.4l-0.6,0.5l-0.3,0.2c-0.3,0.2-0.1,0.1-0.2,0.1l-0.1,0l-0.1,0.1
				l-0.2,0.1l-1.6,0.9c-2.2,1-4.6,1.8-6.9,2c-1.2,0.2-2.4,0.2-3.5,0.2c-1.1-0.1-2.3-0.1-3.4-0.3c-2.2-0.3-4.4-0.8-6.4-1.5
				c-4-1.3-7.6-3.2-10.8-5.1c-3.2-1.9-6-4-8.5-6.1c-5-4.1-8.7-8-11.1-10.8c-1.2-1.4-2.1-2.5-2.8-3.3
				C344.9,355.9,344.6,355.5,344.6,355.5z"/>
			<path class="st5" d="M347.2,353.9c-6.4,2.8-18.2,10-25.6,15.4c-1.1,0.8-2.6,1.5-3.7,0.8c-0.5-0.3-0.7-0.9-0.9-1.4
				c-3.1-7.2-1.2-15,4.4-20.5c-3.8,0.7-7.6,1.5-11.4,2.2c-0.7,0.1-1.6,0.3-2.2-0.1c-1.2-0.8-0.7-2.6,0-3.8
				c3.2-5.5,8.7-9.6,14.7-11.8c6-2.2,12.6-2.6,19-1.9L347.2,353.9z"/>
		</g>
		<g>
			<path class="st23" d="M157.6,457.4c19-5.3,38-10.3,57.1-15.1c9.5-2.4,19.1-4.8,28.6-7.1l28.7-6.9l28.7-6.7
				c9.6-2.2,19.2-4.4,28.8-6.5c19.2-4.3,38.4-8.4,57.8-12.1c-18.9,5.3-38,10.3-57.1,15.1c-9.5,2.4-19.1,4.7-28.6,7.1l-28.7,6.9
				l-28.7,6.7c-9.6,2.2-19.2,4.4-28.8,6.5C196.2,449.6,177,453.7,157.6,457.4z"/>
		</g>
		<g>
			<path class="st23" d="M313.6,420.2c1.7,4.8,3.2,9.7,4.7,14.5c1.6,4.8,3.1,9.6,4.7,14.3c1.6,4.8,3.3,9.5,5,14.2
				c1.7,4.7,3.6,9.4,5.4,14.2c-3.2-4-6-8.4-8.2-13c-2.3-4.6-4.3-9.3-5.9-14.2c-1.6-4.9-3-9.8-3.9-14.8
				C314.4,430.4,313.6,425.3,313.6,420.2z"/>
		</g>
		<g>
			<path class="st23" d="M225.8,441.1c1.9,4.5,3.3,9.2,4.5,14c1.2,4.7,2.1,9.5,2.8,14.4c0.7,4.8,1.1,9.7,1.2,14.6
				c0.1,4.9-0.1,9.8-0.8,14.7c-0.9-4.8-1.6-9.6-2.3-14.4c-0.7-4.8-1.4-9.5-2.1-14.3c-0.7-4.8-1.3-9.5-1.9-14.4
				C226.7,450.8,226.1,446,225.8,441.1z"/>
		</g>
		<path class="st1" d="M219.1,121.3c0,0-2.9,19.9-6.3,17.6s-6.1-8.9-6.1-8.9s-10.9,24-16.9,21.9c-6-2-3-12.9-3-12.9
			s-12.2,12.5-15.9,6.4c-2.4-4-1-12.2,4.8-16.7c5.2-3.9,11.5-4.9,11.5-4.9s-6.4-3.3,0.2-9.2c6.6-5.9,34.6-5.7,34.6-5.7L219.1,121.3z
			"/>
		<g>
			<path class="st2" d="M203.7,110.4c1,1.7,2.1,3.2,3.2,4.6c1.1,1.4,2.3,2.8,3.5,4c1.3,1.2,2.6,2.5,4,3.5c0.7,0.6,1.5,1.1,2.2,1.6
				c0.7,0.6,1.6,1,2.3,1.7c-1-0.1-1.9-0.2-2.9-0.5c-0.9-0.3-1.9-0.6-2.7-1.1c-1.8-0.8-3.4-2-4.8-3.4c-1.4-1.4-2.6-3.1-3.4-4.8
				C204.2,114.3,203.6,112.3,203.7,110.4z"/>
		</g>
		<path class="st1" d="M347.3,155.8c0,0,6,10.4,15.5,13.2c3.8,1.1,4.7-6.3-0.5-17c-5.2-10.6-16.6-20-16.6-20s9.5-12.9-8.7-20
			c-15.5-6-24.4-4.9-24.4-4.9s-15-26.6-42.2-21.4c-9.1,1.7-6.5,8.8-6.5,8.8s-41.5-14.8-61.3,1.2c-10.8,8.7,17.9,38.1,35.4,37.1
			c5.3-0.3-1.4-12.6-1.4-12.6s6.5,7.8,27.5,8.9c15,0.8,15.2-5.6,15.2-5.6s12.2,19.2,27.1,20.2c9.5,0.6,9.5-4.4,9.5-4.4
			S335,173.1,347.3,155.8z"/>
		<g>
			<path class="st2" d="M325.8,120.8c2.7,0.9,5.3,2.2,7.6,3.9c2.4,1.6,4.6,3.7,6.1,6.2c0.8,1.3,1.3,2.7,1.5,4.3
				c0.1,0.8,0.1,1.5,0.1,2.3c0,0.7-0.2,1.8-1,2.6c-0.8,0.7-1.8,0.9-2.6,1c-0.8,0-1.6-0.1-2.4-0.3c-1.5-0.4-2.8-0.9-4.2-1.6l1.1-1.4
				c0.7,1,1.3,1.9,1.7,2.9c0.5,1,0.8,2.1,1.1,3.1c0.2,1.1,0.4,2.2,0.4,3.3c0,1.1-0.2,2.2-0.5,3.2c0.1-2.1-0.3-4.2-1.1-6.1
				c-0.4-1-0.8-1.9-1.3-2.7c-0.5-0.9-1.1-1.7-1.7-2.4l-2.9-3.3l4,1.9c1.2,0.6,2.5,1.1,3.8,1.3c1.2,0.3,2.6,0.3,3.2-0.2
				c0.3-0.3,0.4-0.7,0.4-1.3c0-0.3,0.1-0.6,0-1c0-0.3,0-0.6-0.1-1c-0.1-1.3-0.6-2.5-1.2-3.7c-1.2-2.4-3.2-4.4-5.3-6.2
				C330.7,123.7,328.3,122.2,325.8,120.8z"/>
		</g>
		<g>
			<path class="st5" d="M207.8,18c5.6,11.6,5.4,23.3-0.5,26.2c-5.9,2.8-15.2-4.3-20.8-15.9C181,16.6,181.2,4.9,187,2
				C192.9-0.8,202.2,6.4,207.8,18z"/>
			<g>
				<path class="st5" d="M242.6,102.2c0,0-1.2-39.2-18.8-68.5C206.2,4.6,193.2,2.1,193.2,2.1l11.3,42.7c0,0,5.4-1.9,10.7,2.2
					c21.7,16.8,21,59.1,21,59.1L242.6,102.2z"/>
				<path class="st6" d="M205.6,20.8C209,29,207,39.5,203.9,41c-3.2,1.5-8.9-3.6-12.7-11.6c-3.8-7.9-5.2-18.6-2-20.2
					C192.4,7.7,200.9,9.2,205.6,20.8z"/>
			</g>
		</g>
		
			<ellipse transform="matrix(0.3164 -0.9486 0.9486 0.3164 61.3312 299.8991)" class="st1" cx="238.7" cy="107.4" rx="5.6" ry="16.3"/>
		<g>
			<g>
				<path class="st9" d="M200.2,119.2c0,0-0.6,2.4-0.9,6c-0.2,1.8-0.2,3.9-0.1,6.2c0.5,6.8,3.7,12.9,7.7,18.2
					c1.1,1.4,2.1,2.5,2.8,3.3c0.3,0.4,0.6,0.7,0.8,0.8c0.2,0.2,0.3,0.3,0.3,0.3l-1.8,1.9c0,0-0.1-0.1-0.3-0.4
					c-0.2-0.2-0.5-0.6-0.8-1c-0.7-0.9-1.6-2.1-2.7-3.6c-3.8-5.8-6.7-12.4-6.7-19.4c0-2.3,0.2-4.4,0.5-6.2
					C199.4,121.5,200.2,119.2,200.2,119.2z"/>
				<path class="st9" d="M211.5,112c0,0-1,2.2-2,5.7c-0.5,1.7-0.9,3.8-1.2,6.1c-0.7,6.8,1.3,13.3,4.4,19.3c0.8,1.6,1.6,2.8,2.1,3.7
					c0.3,0.4,0.5,0.8,0.7,1c0.1,0.2,0.2,0.3,0.2,0.3l-2.2,1.5c0,0-0.1-0.1-0.3-0.4c-0.2-0.3-0.4-0.6-0.6-1.1c-0.5-1-1.2-2.3-2-4.1
					c-2.7-6.4-4.4-13.4-3.2-20.3c0.4-2.3,1-4.3,1.6-6.1C210.3,114.1,211.5,112,211.5,112z"/>
				<path class="st9" d="M221.1,115.5c0,0-1,2.2-2,5.7c-0.5,1.7-0.9,3.8-1.2,6.1c-0.7,6.8,1.3,13.3,4.4,19.3
					c0.8,1.6,1.6,2.8,2.1,3.7c0.3,0.4,0.5,0.8,0.7,1c0.1,0.2,0.2,0.3,0.2,0.3l-2.2,1.5c0,0-0.1-0.1-0.3-0.4
					c-0.2-0.3-0.4-0.6-0.6-1.1c-0.5-1-1.2-2.3-2-4.1c-0.7-1.7-1.5-3.7-2.1-6c-1.4-4.7-1.9-9.5-1.1-14.4c0.4-2.3,1-4.3,1.6-6.1
					C219.9,117.7,221.1,115.5,221.1,115.5z"/>
				<path class="st9" d="M245.2,109c0,0-0.6,2.4-0.9,6c-0.2,1.8-0.2,3.9-0.1,6.2c0.5,6.8,3.7,12.8,7.7,18.2c1.1,1.4,2.1,2.5,2.7,3.3
					c0.3,0.4,0.6,0.7,0.8,0.8c0.2,0.2,0.3,0.3,0.3,0.3l-1.8,1.9c0,0-0.1-0.1-0.3-0.4c-0.2-0.2-0.5-0.6-0.8-1
					c-0.7-0.9-1.6-2.1-2.7-3.6c-3.8-5.8-6.7-12.4-6.7-19.4c0-2.3,0.2-4.4,0.5-6.2C244.4,111.3,245.2,109,245.2,109z"/>
				<path class="st9" d="M256.5,101.8c0,0-1,2.2-2,5.7c-0.5,1.7-0.9,3.8-1.2,6.1c-0.7,6.8,1.3,13.3,4.4,19.3
					c0.8,1.6,1.6,2.8,2.1,3.7c0.3,0.4,0.5,0.8,0.7,1c0.1,0.2,0.2,0.3,0.2,0.3l-2.2,1.5c0,0-0.1-0.1-0.3-0.4
					c-0.2-0.3-0.4-0.6-0.6-1.1c-0.5-1-1.2-2.3-2-4.1c-2.7-6.4-4.4-13.4-3.2-20.3c0.4-2.3,1-4.3,1.6-6.1
					C255.3,104,256.5,101.8,256.5,101.8z"/>
				<path class="st9" d="M266.1,105.4c0,0-1,2.2-2,5.7c-2.4,8.8-0.9,17.3,3.2,25.3c0.8,1.6,1.6,2.8,2.1,3.7c0.3,0.4,0.5,0.8,0.7,1
					c0.1,0.2,0.2,0.3,0.2,0.3l-2.2,1.5c0,0-0.1-0.1-0.3-0.4c-0.2-0.3-0.4-0.6-0.6-1.1c-0.5-1-1.2-2.3-2-4.1
					c-2.7-6.4-4.4-13.4-3.2-20.3c0.4-2.3,1-4.3,1.6-6.1C264.9,107.5,266.1,105.4,266.1,105.4z"/>
			</g>
			<path class="st10" d="M235.8,158.7c2.8,10.3-1.7,20.5-10,22.8c-8.3,2.3-17.3-4.3-20.1-14.6c-2.8-10.3,1.7-20.5,10-22.8
				S233,148.4,235.8,158.7z"/>
			<path class="st9" d="M231.6,166.2c1.2,4.6-0.7,9.1-4.3,10c-3.6,1-7.6-1.9-8.8-6.5c-1.2-4.6,0.7-9.1,4.3-10
				C226.4,158.8,230.3,161.7,231.6,166.2z"/>
			<path class="st10" d="M277.9,147.3c2.8,10.3-1.7,20.5-10,22.8c-8.3,2.3-17.3-4.3-20.1-14.6c-2.8-10.3,1.7-20.5,10-22.8
				C266,130.4,275.1,136.9,277.9,147.3z"/>
			<path class="st9" d="M271.7,155.3c1.2,4.6-0.7,9.1-4.3,10c-3.6,1-7.6-1.9-8.8-6.5c-1.2-4.6,0.7-9.1,4.3-10
				C266.5,147.9,270.5,150.8,271.7,155.3z"/>
		</g>
		<path class="st9" d="M257.3,177.6c-2.7-3.7-8.3-9.4-11.7-8.6c-3.8,0.9-6.1,7.3-6.6,9.8l-2.6-0.6c0.1-0.4,2.5-10.4,8.6-11.8
			c6.1-1.4,13.6,8.5,14.4,9.6L257.3,177.6z"/>
		<g>
			<path class="st11" d="M242.2,181.2c1.8,6.5-4.3,13.9-13.7,16.4c-9.3,2.5-18.3-0.7-20.1-7.2s4.3-13.9,13.7-16.4
				C231.5,171.4,240.5,174.6,242.2,181.2z"/>
			<path class="st9" d="M228.9,198.8c-10,2.7-19.7-1-21.7-8.2c-2-7.2,4.6-15.3,14.6-18c10-2.7,19.7,0.9,21.7,8.2
				C245.5,188,238.9,196.1,228.9,198.8z M222.5,175.2c-8.6,2.3-14.3,9-12.7,14.8c1.6,5.8,9.8,8.6,18.4,6.3c8.6-2.3,14.3-9,12.7-14.8
				C239.4,175.7,231.1,172.9,222.5,175.2z"/>
		</g>
		<g>
			<path class="st11" d="M289.9,168.3c1.8,6.5-4.6,13.9-14.3,16.6c-9.7,2.6-19-0.5-20.7-7.1c-1.8-6.5,4.6-13.9,14.3-16.6
				C278.8,158.6,288.1,161.7,289.9,168.3z"/>
			<path class="st9" d="M275.9,186.1c-10.4,2.8-20.4-0.8-22.4-8c-2-7.2,4.9-15.4,15.3-18.2c10.4-2.8,20.4,0.8,22.4,8
				C293.1,175.1,286.2,183.3,275.9,186.1z M269.5,162.5c-9,2.4-15,9.1-13.4,14.9c1.6,5.8,10.1,8.6,19.1,6.1c9-2.4,15-9.1,13.4-14.9
				C287,162.8,278.4,160,269.5,162.5z"/>
		</g>
		<path class="st9" d="M296.3,166.8c0.5,1.8-0.6,3.6-2.3,4.1c-1.8,0.5-3.6-0.6-4.1-2.3c-0.5-1.8,0.6-3.6,2.3-4.1
			C294,164,295.8,165,296.3,166.8z"/>
		<path class="st9" d="M208.6,190.6c0.5,1.8-0.6,3.6-2.3,4.1c-1.8,0.5-3.6-0.6-4.1-2.3c-0.5-1.8,0.6-3.6,2.3-4.1
			C206.3,187.7,208.1,188.8,208.6,190.6z"/>
		<g>
			<path class="st1" d="M268.1,194.7c0,0-10.8-8.5-22.4-10.5c-11.6-2-14.9,2.3-14.9,2.3s-6.1,9.8-3.5,17.6
				c2.5,7.8,10.9,18.3,14.7,18.1c3.8-0.2,10.2-6.2,10.2-6.2s4.1,7.4,6.4,8c2.3,0.7,7-4,10.1-12.9
				C271.8,202.2,268.1,194.7,268.1,194.7z"/>
			<path class="st2" d="M253.3,190.4c0,0,0.4,0.5,0.9,1.4c0.5,0.9,1.1,2.3,1.7,4.1c1.9,6.5,2,14.7-2.5,20.2c-2.1,3-5.6,4.9-9.1,5.7
				c-0.5,0.1-0.9,0.2-1.2,0.2c-0.3,0-0.4,0-0.4,0s0.6-0.2,1.5-0.7c5.2-2.8,8.8-7.4,10-13.2c1.1-5.2,0.8-11-0.4-16.2
				C253.5,191,253.3,190.4,253.3,190.4z"/>
			<path class="st2" d="M254.4,190.2c0.2,0.8-0.3,1.6-1.1,1.8c-0.8,0.2-1.6-0.3-1.8-1.1c-0.2-0.8,0.3-1.6,1.1-1.8
				C253.3,189,254.1,189.4,254.4,190.2z"/>
		</g>
		<g>
			<path class="st2" d="M272.6,110c1.5,0.4,2.8,1.2,3.9,2.2c1.2,1,2.2,2.1,3,3.5c0.7,1.4,1.2,3,1.1,4.6c0,1.6-0.6,3.1-1.5,4.3
				c0.1-1.5,0.2-2.9,0-4.2c-0.2-1.3-0.7-2.5-1.3-3.7C276.5,114.3,274.6,112.2,272.6,110z"/>
		</g>
		<g>
			<path class="st2" d="M315.8,140.2c-0.2-1.1-0.2-2.2-0.4-3.3c-0.1-1.1-0.4-2.1-0.7-3.1c-0.6-2-1.6-3.8-3.1-5.2
				c-0.3-0.4-0.7-0.7-1.1-1c-0.4-0.4-0.8-0.6-1.2-0.9c-0.4-0.3-0.8-0.6-1.3-0.8c-0.5-0.2-0.9-0.5-1.4-0.7c-0.5-0.3-1-0.4-1.5-0.6
				l-1.5-0.6c-1-0.3-2.1-0.7-3.1-1.1c1.1,0,2.2,0.1,3.3,0.1c1.1,0.2,2.2,0.4,3.3,0.8c2.2,0.7,4.2,1.9,5.9,3.6
				c1.7,1.7,2.8,3.9,3.1,6.2C316.7,135.7,316.4,138,315.8,140.2z"/>
		</g>
		<g>
			<path class="st2" d="M186.2,140.9c-0.2-1.5-0.1-2.9,0.2-4.3c0.3-1.4,0.8-2.8,1.5-4.1c0.7-1.3,1.6-2.5,2.6-3.6
				c1.1-1,2.4-1.8,3.8-2.2c-1,1.1-1.9,2.1-2.6,3.2c-0.8,1.1-1.4,2.3-2,3.4c-0.6,1.2-1.2,2.4-1.7,3.7
				C187.4,138.3,186.8,139.6,186.2,140.9z"/>
		</g>
		<g>
			<path class="st2" d="M249.7,105.1c-2.9-0.9-5.8-1.7-8.6-2.5c-2.9-0.8-5.8-1.5-8.7-1.9c-1.4-0.2-2.9-0.3-4.3-0.3
				c-1.4,0-2.8,0.4-3.4,1.1c-0.2,0.3-0.3,0.6-0.1,1.1c0.2,0.5,0.6,1.1,1.1,1.6c0.9,1,2.1,1.9,3.2,2.7l3.2,2.1l-3.7-0.5
				c-2.5-0.4-5.1-0.6-7.6-0.8c-1.3-0.1-2.6-0.1-3.8-0.1c-1.3,0-2.6,0.1-3.8,0.3c1.2-0.5,2.5-0.8,3.8-1c1.3-0.2,2.6-0.3,3.9-0.4
				c1.3-0.1,2.6-0.1,3.9,0c1.3,0,2.6,0.1,3.9,0.2l-0.6,1.6c-1.3-0.8-2.6-1.7-3.7-2.9c-0.6-0.6-1.1-1.2-1.5-2.1
				c-0.2-0.4-0.3-0.9-0.3-1.5c0-0.6,0.3-1.2,0.6-1.6c0.7-0.8,1.6-1.2,2.4-1.5c0.8-0.2,1.7-0.3,2.5-0.3c1.6,0,3.1,0.2,4.6,0.5
				c3,0.6,5.9,1.5,8.7,2.5C244.3,102.5,247,103.7,249.7,105.1z"/>
		</g>
		<g>
			<path class="st2" d="M263.2,94c0.9,1.3,1.8,2.5,2.8,3.6c1,1.1,2.1,2,3.3,2.7c1.2,0.7,2.5,1.4,3.9,1.7c0.7,0.2,1.4,0.3,2.2,0.5
				c0.8,0.1,1.5,0.2,2.3,0.3c-0.7,0.3-1.5,0.5-2.3,0.7c-0.8,0.1-1.6,0.2-2.4,0.1c-1.7-0.1-3.3-0.6-4.7-1.5c-1.4-0.9-2.6-2.1-3.5-3.5
				C263.9,97.2,263.3,95.7,263.2,94z"/>
		</g>
	</g>
</g>
</svg>
