<?xml version="1.0" encoding="utf-8"?>
<!-- Generator: Adobe Illustrator 22.0.1, SVG Export Plug-In . SVG Version: 6.00 Build 0)  -->
<svg version="1.1" xmlns="http://www.w3.org/2000/svg" xmlns:xlink="http://www.w3.org/1999/xlink" x="0px" y="0px"
	 viewBox="0 0 319 437" enable-background="new 0 0 319 437" xml:space="preserve" width="319" height="437" preserveAspectRatio="none">
<g id="_x33_rd_Grade">
	<g id="_x30__Stars">
		<g>
			<g>
				<path fill="#B8A7CC" d="M162.6,225.8c-2,6.6-5.1,14.5-9.2,19.6c-4.8,5.9-10.6,8.9-16.8,10.2c-12.7,2.6-26.1-0.5-27.2-2.4
					c-8.7-15.2-18.4-16.1-19.1-11.6c-0.8,5.7,11.8,14,11.8,14c-14.4,1-28.8,6.8-27.4,10.1c2.4,5.7,21.3-0.9,21.3-0.9
					s-23.5,13.6-18.9,17.9c6.9,6.4,24.7-15.4,24.7-15.4s-8.9,13.9-4.4,15.8c8.5,3.6,13-20.6,13-20.6c9.8,5.1,21.9,4.1,29.3,2.8
					c5-0.9,9.7-2.9,12.1-4.4c3.4-2,7-5.2,10.2-9.9c5.3-7.6,7.7-16.3,8.8-22.8L162.6,225.8z"/>
				<g>
					<path fill="#50C8F4" d="M178.7,243.6c0,0,5.1-10.6,4.4-23.3c-0.7-12.5-2.5-14.2-2.5-14.2l-9.7-0.7L155.3,229L178.7,243.6z"/>
					<path fill="#F7B5D1" d="M157.4,225.7l3.8-5.8l21.1,10.9c-0.4,1.8-0.7,3.5-1.1,4.9L157.4,225.7z"/>
					<path fill="#F7B5D1" d="M183.1,220c0,0.2,0.1,0.2,0.1,0.4c0.1,2.2,0.1,4.2-0.1,6.2L164,216l3.3-4.9L183.1,220z"/>
				</g>
			</g>
			<g>
				<path fill="#B869A2" d="M175.2,318.9c-9.6,39.3-16,78.8-19.2,117.3l22.1-2.7c-3-37.1-2.9-75.2,0.2-113.1
					C177.4,319.9,176.3,319.4,175.2,318.9"/>
				<path fill="#410025" d="M156.1,436.3l22.1-2.7c-0.5-6.2-0.9-12.4-1.2-18.6l-18.3-4.2C157.6,419.3,156.8,427.8,156.1,436.3"/>
				<polygon fill="#7D0052" points="166.7,435 163.9,418.3 161.5,435.6 				"/>
			</g>
			<g>
				<path fill="#B869A2" d="M206.2,310.3c-1.3,40.4,0.6,80.4,5.4,118.8l21.1-7.2c-10.6-35.7-18.3-73-23-110.8
					C208.5,310.8,207.3,310.5,206.2,310.3"/>
				<path fill="#410025" d="M211.6,429.1l22.6-2.8c-1.8-5.9-3.8-12.4-5.4-18.4l-19.5-0.8C209.9,415.7,210.5,420.6,211.6,429.1"/>
				<polygon fill="#7D0052" points="222.4,427.7 215.8,411.8 216.9,428.4 				"/>
			</g>
			<path fill="#B869A2" d="M313.7,138.9c24.5,54.1-58,81.6-55.5,117.3c2.4,35.6,45.8,30.7,45.8,30.7s-31.5,45.5-63.8,24.1
				c-23.5-15.6-48.3-70.7-40.1-98.5c6.7-22.4,41.2-27.9,33.1-46.2c-8.1-18.3-22.4-8.6-39.2-12.6c-20.9-4.9-18.3-33.3-12.1-42.8
				C212.5,69.4,288.5,83.3,313.7,138.9"/>
			<path fill="#7D0052" d="M260,211.8c3.1-1.9,6-4,8.7-6.4c2.7-2.4,5.3-4.9,7.6-7.7c12.1-14.2,16.4-33.1,10.5-51
				c-1.1-3.5-2.6-6.8-4.3-10.1c-1.8-3.3-4.4-6.1-7.3-8.4c-2.9-2.3-6.2-4-9.5-5.5c-6.7-2.9-13.9-4.5-21-5.6
				c-7.2-1.1-14.4-1.6-21.6-1.7c-7.2-0.1-14.4,0.2-21.6,0.8l-5.1,0.5l4.8,1.8c10.1,3.7,20.1,8.4,29.1,14.3
				c7.5,4.9,14.6,10.9,18.1,19.4c1.5,3.7,2.4,7.5,2.5,11.5c0.2,3.9-0.2,7.9-1.2,11.8c-0.5,1.9-1.1,3.8-1.9,5.7
				c-0.8,1.8-1.6,3.7-2.7,5.4c2.4-3.3,4.1-7,5.3-10.8c1.2-3.9,1.9-7.9,1.8-12c-0.1-6.2-1.6-12.4-5-17.6c-3.3-5-7.7-9.3-12.6-12.9
				c-9.8-7.2-21.3-12.6-32.6-16.8l-0.3,2.2c7.1-0.6,14.2-0.8,21.4-0.7c7.1,0.1,14.3,0.6,21.3,1.6c10.9,1.6,24.1,4.3,32,12.7
				c3.2,3.4,5.6,7.5,7.4,11.8c4.5,10.9,5.5,23.3,2,34.5c-2.1,6.8-5.7,13-10.1,18.6c-2.2,2.8-4.7,5.4-7.3,7.8
				C265.7,207.5,263,209.8,260,211.8"/>
			<path fill="#7D0052" d="M206.1,92c8.6,4.4,14.1,12.5,13.5,21.3c-0.9,12.7-14,22.1-29.3,21c-4.7-0.3-9-1.6-12.7-3.5
				c-0.4-7.9,1.6-15.9,4.4-20.1C188.3,102.1,196.6,95.9,206.1,92z"/>
			<path fill="#C21B7B" d="M192.6,124c5.1,0.1,10.1-1.4,13.6-5.2c3.5-3.8,4.7-9,3.7-14c-0.1-0.6-0.3-1.1-0.4-1.5
				c-0.3-0.8-0.5-1.3-0.5-1.3s0,0.5,0.2,1.4c0.7,5.1-0.7,10.3-4.1,14.2c-1.5,1.8-3.4,3.3-5.5,4.3C197.3,123.1,194.7,123,192.6,124"
				/>
			<path fill="#C21B7B" d="M212.1,100.7c0,0,0.4,0.6,0.8,1.7c0.5,1.1,1.1,2.8,1.4,4.8c0.3,2,0.5,4.5,0,7c-1.1,5.4-4.5,10-9.6,12.1
				c-4,1.7-8,1.5-12.3,1.8c1.4,1.4,4.5,0.8,6.2,0.8c3.3,0,6.3-0.5,9.1-2.2c4.3-2.6,6.9-7.3,7.6-12.2c0.4-2.7,0.2-5.2-0.4-7.3
				c-0.5-2.1-1.3-3.7-1.8-4.8C212.5,101.3,212.1,100.7,212.1,100.7"/>
			<path fill="#7D0052" d="M215.2,273.9c0,0,9.6,5.3,24.4,1.6c24.3-6.1,28.9-20.6,28.9-20.6s10.2,14.9,0.2,28.1
				c-6.7,8.9-16.8,12.5-16.8,12.5s10.9,9.1,9.6,13.9c-1.4,4.7-8.2,5.9-17,5.4c-14.5-0.8-26.7-25.5-26.7-25.5L215.2,273.9z"/>
			<path fill="#7D0052" d="M187.1,265.6c0,0,21.4-14.8,34.7,6.4c20.3,32.3-2.9,58.2-6.1,57.9c-3.2-0.2-7.7-16.6-7.7-16.6
				s-2.3,22.3-7.2,23.5c-4.9,1.2-13.3-16.6-13.3-16.6s-1,12.1-4.7,13.1c-3.6,1.1-6.1-8.7-6.1-8.7s-3.4,13-9.2,12.4
				c-5.7-0.6-6.1-18.7-6.1-18.7s-7.6,21.6-11.8,22.1c-4.1,0.5-18.8-31.4-14.3-46.6c4.6-15.5,18.2-17.4,18.2-17.4L187.1,265.6z"/>
			<g>
				<path fill="#B869A2" d="M173.5,270.5C173.5,270.5,173.5,270.5,173.5,270.5C173.6,270.6,173.6,270.6,173.5,270.5
					C173.5,270.5,173.5,270.5,173.5,270.5z"/>
				<path fill="#B869A2" d="M173.8,270l2.7-0.9c0.2,0.3,0.4,0.5,0.6,0.8c1.9,3,2.7,6.7,3.3,10.1c0.4,2.2,0.8,4.4,1,6.6
					c0.3,2.2,0.4,4.4,0.3,6.7c-0.1,4.4-0.6,8.8-1.6,13.1c-1,4.3-2.3,8.5-4.1,12.5c1.6-4.1,2.6-8.3,3.3-12.6c0.7-4.3,1-8.6,0.8-12.9
					c-0.2-4.3-1-8.5-2.1-12.7c-0.5-2.1-1.2-4.1-2-6.1c-0.4-1-0.8-1.9-1.4-2.7c-0.3-0.4-0.5-0.7-0.8-1c-0.1-0.1-0.3-0.2-0.3-0.3l0,0
					c0.1,0,0,0,0.3,0L173.8,270z"/>
			</g>
			<path fill="#B869A2" d="M145.9,317.6c-0.6-4.3-0.7-8.7-0.5-13.1c0.3-4.4,1-8.8,2.2-13c0.6-2.1,1.3-4.2,2.2-6.3c0.9-2,1.8-4,2.8-6
				c0.4-0.9,0.9-1.7,1.4-2.6l4-1.3c-1.3,1.7-2.4,3.6-3.3,5.1c-2.2,3.7-4.2,7.5-5.6,11.6c-1.4,4.1-2.4,8.3-2.9,12.6
				C145.7,308.8,145.5,313.2,145.9,317.6z"/>
			<g>
				<path fill="#B869A2" d="M186,266C186,266,186,266,186,266C186.1,266,186.1,266,186,266C186.1,266,186.1,266,186,266
					C186,266,186,266,186,266z"/>
				<path fill="#B869A2" d="M187.1,265.6c0,0,0.7-0.5,2-1.2c0.3,0.4,0.6,0.7,0.9,1.1c1.9,2.7,3,6.1,3.9,9.2c0.6,2.1,1.2,4.3,1.7,6.4
					c0.5,2.2,0.8,4.4,1,6.6c0.4,4.4,0.3,8.8-0.3,13.2c-0.6,4.4-1.5,8.7-2.9,12.8c1.2-4.2,1.8-8.6,2.1-12.9c0.3-4.3,0.1-8.7-0.5-12.9
					c-0.6-4.3-1.9-8.4-3.3-12.4c-0.7-2-1.6-4-2.5-5.8c-0.5-0.9-1-1.8-1.6-2.5c-0.3-0.4-0.6-0.7-0.9-0.9c-0.1-0.1-0.3-0.2-0.4-0.2
					c0.1,0,0,0,0.3,0l0-0.1L187.1,265.6z"/>
			</g>
			<g>
				<path fill="#B8A6CC" d="M0.8,112.7c-0.6-4.4,29.9-21.5,58-11.3c28.1,10.2,46.2,41.6,46.2,41.6s-17.6,0.6-48.5-3.1
					C35.2,137.3,1.4,117.1,0.8,112.7"/>
				<path fill="#F7B5D2" d="M52.7,110.5c-20.8-4.3-45.7,2.6-45.6,2.9c0.6,4,32.2,21.1,51.9,23.5c17.8,2.2,30.8,2.8,38.1,2.9
					C91.2,130.7,77.9,115.6,52.7,110.5"/>
			</g>
			<path fill="#B8A6CC" d="M78.3,121.4c-5.3-28,4.9-59.3,29.6-74.9c27.6-17.3,66.1-10.9,85,16.2c4.1,5.9,7.1,12.6,8.8,19.6
				c3.1,12.8,1.6,25.6-3.4,37c-5,12.8-13.6,23.2-23.5,31.3c6.2,13.1,13.9,41.6,13.9,41.6L175.6,209l-5.1-3.2
				c-2.3-17-0.4-32.1-6.6-47.4c-19.6,12.2-40.9,16.8-48.7,14.9C89.5,167.3,83.5,149.1,78.3,121.4z"/>
			<path fill="#B8A6CC" d="M205.4,206.4c0,0,29.8-2.6,38.2,14.5c5,10.3-15,38.1-15,38.1s20-6.5,20.8,0.4c0.8,6.9-18.1,4.4-18.1,4.4
				s22.6,12.2,18.1,17c-4.4,4.8-23.3-13.6-23.3-13.6s10.2,13.1,4.7,15.8c-5.5,2.7-18.1-17.2-14.4-25.2c3.8-8,13.9-17.3,17.9-24.9
				c8.6-16.6-25.7-24.6-25.7-24.6L205.4,206.4z"/>
			<path fill="#49C8F5" d="M190.3,192l26.1,74.1c0,0-21.8,15.5-47.5,13.8c-16.8-1.1-15.3-3.2-15.3-3.2s17.6-29.3,17.1-74.5
				c0,0,3.3,7.7,6.6,6.3C182.2,206.3,188.2,194.5,190.3,192z"/>
			<polygon fill="#F7B5D2" points="184.4,220.1 187.4,257.4 193.5,257 194,264.4 172.4,268.9 172.7,259.3 180,258.3 178.3,233
				174.6,233.3 177.5,221.4 			"/>
			<path fill="#49C8F5" d="M227.9,202.1c0,0-10.8-5-23.3-4.2c-12.6,0.8-14.2,2.6-14.2,2.6l-0.6,9.7l23.8,15.5L227.9,202.1z"/>
			<path fill="#F7B5D2" d="M210.2,223.5l-5.8-3.8l10.8-21.2c1.8,0.3,3.5,0.6,5,1L210.2,223.5z"/>
			<path fill="#F7B5D2" d="M204.2,198c0.1,0,0.2,0,0.4,0c2.2-0.1,4.2-0.1,6.2,0l-10.4,19.1l-5-3.3L204.2,198z"/>
			<g>
				<path fill="#F7B5D2" d="M170.6,202.1l5.6,4.2l12.5-19l2.9,8.3l-15.6,18.9l-5.7-6.2C170.4,208.4,170.6,202.5,170.6,202.1z"/>
			</g>
			<g>
				<path fill="#61439A" d="M144.9,143c-0.2,1.3,0.8,2.5,2.1,2.7c1.3,0.2,2.5-0.8,2.7-2.1c0.2-1.3-0.8-2.5-2.1-2.7
					C146.3,140.7,145,141.6,144.9,143"/>
				<path fill="#61439A" d="M146.4,142.5c0,0-3.7,2.2-8.9,3.8c-9.2,2.9-20.8-0.3-20.8-0.3s8.4,7,20.3,3.6
					C146,147.1,146.4,142.5,146.4,142.5z"/>
			</g>
			<path fill="#61439A" d="M98.4,147c0.4,0.7,0.2,1.5-0.5,1.9c-0.7,0.4-1.5,0.2-1.9-0.5c-0.4-0.6-0.2-1.5,0.5-1.9
				C97.2,146.1,98.1,146.3,98.4,147"/>
			<path fill="#61439A" d="M109,147.4c0.4,0.6,0.2,1.5-0.5,1.9c-0.7,0.4-1.5,0.2-1.9-0.5c-0.4-0.7-0.2-1.5,0.5-1.9
				C107.7,146.5,108.6,146.7,109,147.4"/>
			<path fill="#61439A" d="M104,154.2c0.4,0.7,0.2,1.5-0.5,1.9c-0.7,0.4-1.5,0.2-1.9-0.5c-0.4-0.7-0.2-1.5,0.5-1.9
				C102.7,153.3,103.6,153.5,104,154.2"/>
			<path fill="#61439A" d="M167.7,126.8c0.2,0.7,0.9,1.2,1.6,1c0.7-0.2,1.2-0.9,1-1.6c-0.2-0.7-0.9-1.2-1.6-1
				C168,125.4,167.5,126.1,167.7,126.8"/>
			<path fill="#61439A" d="M160.3,134.1c0.2,0.7,0.9,1.2,1.6,1c0.7-0.2,1.2-0.9,1-1.6c-0.2-0.7-0.9-1.2-1.6-1
				C160.6,132.7,160.1,133.4,160.3,134.1"/>
			<path fill="#61439A" d="M168.5,135.7c0.2,0.7,0.9,1.2,1.6,1c0.7-0.2,1.2-0.9,1-1.6c-0.2-0.7-0.9-1.2-1.6-1
				C168.8,134.3,168.3,135,168.5,135.7"/>
			<path fill="#410025" d="M177.9,82.5c0,0-0.5,1.3-1.5,2.9c-3.1,4.9-8.1,8.3-13.8,9.5c0.3,1,0.5,2.1,0.7,3.1c0,0.1,4.5-2.1,4.9-2.4
				c3.8-2.4,6.9-5.9,8.7-10C177.7,83.8,177.9,82.5,177.9,82.5"/>
			<path fill="#410025" d="M172.6,72c0,0-0.1,1.5-0.6,3.5c-0.5,2.1-1.7,4.7-3.2,7c-0.8,1.2-1.6,2.2-2.5,3.2c-0.9,1-1.7,1.8-2.5,2.5
				c-0.8,0.7-1.4,1.2-1.9,1.6c-0.5,0.4-0.7,0.6-0.7,0.5l2,2.5c0,0,0.3-0.3,0.8-0.8c0.5-0.5,1.1-1.2,1.8-2c0.7-0.9,1.5-1.9,2.3-3.1
				c0.8-1.1,1.5-2.5,2.1-3.8c1.3-2.7,2-5.5,2.3-7.7C172.8,73.4,172.6,72,172.6,72"/>
			<path fill="#410025" d="M165,66.5c0,0,0.4,1.4,0.3,3.6c-0.1,5.2-2.2,10.1-5,14.4c-0.6,0.9-1.1,1.6-1.4,2.1
				c-0.4,0.5-0.6,0.7-0.6,0.7l2.6,1.9c0,0,0.2-0.4,0.5-0.9c0.3-0.6,0.7-1.4,1.2-2.4c2.2-4.9,3.8-10.4,3.1-15.8
				C165.6,67.8,165,66.5,165,66.5"/>
			<path fill="#FFFFFF" d="M128.3,118.4c0,0,12.3,15.8,28.5,8.3c18.4-8.5,13.7-33,13.7-33s-13.8-5.8-23.3-2.1
				C127.1,99.4,128.3,118.4,128.3,118.4"/>
			<path fill="#410025" d="M61.4,113.7c0,0,0.8,1.1,2.4,2.4c2.6,2.2,5.7,3.7,8.9,4.6c2.6,0.7,6,1.2,8.7,0.6l-0.7-3.1
				c0.1,0-1.1,0.4-3,0.6c-4.7,0.5-9.5-0.5-13.6-3C62.4,114.6,61.4,113.7,61.4,113.7"/>
			<path fill="#410025" d="M61.5,101.9c0,0,0.5,1.4,1.7,3.2c1.2,1.8,3.1,4.1,5.5,5.9c2.8,2.2,6.1,4,9.5,5.2c0.6,0.2,1,0.3,1,0.3
				l0.7-3.1c0,0-0.3,0-0.9-0.2c-5.8-1.2-11.5-4-15.4-8.5C62.2,103.2,61.5,101.9,61.5,101.9"/>
			<path fill="#410025" d="M67.1,94.7c0,0,0.1,1.5,0.8,3.5c2.1,6,6.8,10.8,11.9,14.4c0.5,0.4,0.9,0.6,0.9,0.6l1.5-2.8
				c0,0-0.3-0.1-0.8-0.4c-5.2-2.6-10.4-6.7-13.1-12C67.4,96.1,67.1,94.7,67.1,94.7"/>
			<path fill="#FFFFFF" d="M77.3,119.8c1.6-9.3,10.4-14.5,17-15.8c19.8-3.8,26.9,18.2,26.9,18.2s-6.5,14-19.1,17.9
				c-5.1,1.6-12.5,1-16.4-3.1C81.9,133,78.1,126.8,77.3,119.8"/>
			<path fill="#0092A1" d="M109.8,115.2c4.2,7.4,2.6,16.2-3.6,19.7c-6.2,3.5-14.5,0.3-18.7-7c-4.2-7.4-2.6-16.2,3.6-19.7
				C97.3,104.7,105.6,107.8,109.8,115.2"/>
			<path fill="#410025" d="M105.4,117.7c2.5,4.5,1.6,9.8-2.2,11.9c-3.7,2.1-8.8,0.2-11.4-4.3c-2.5-4.5-1.6-9.8,2.2-11.9
				C97.8,111.3,102.9,113.2,105.4,117.7"/>
			<path fill="#FFFFFF" d="M85.6,116.2c0.4,3.3,2,7.1,4.8,6.6c2.8-0.4,4.8-4.8,4.4-8.1c-0.4-3.3-1.4-7-4.1-6.5
				C87.9,108.7,85.2,113,85.6,116.2"/>
			<path fill="#FFFFFF" d="M103,127.3c0.7,2.1,2.6,3.3,4.2,2.6c1.6-0.6,2.4-2.8,1.8-4.8c-0.7-2.1-2.6-3.3-4.2-2.6
				C103.1,123.1,102.3,125.3,103,127.3"/>
			<g>
				<path fill="#0092A1" d="M139.3,109.1c0.3,8.9,6.6,16,14,15.8c7.5-0.2,13.3-7.7,13-16.6c-0.3-8.9-6.6-16-14-15.8
					C144.9,92.7,139,100.1,139.3,109.1"/>
				<path fill="#410025" d="M144.6,108.9c0.2,5.4,4,9.7,8.5,9.5c4.5-0.1,8.1-4.7,7.9-10.1c-0.2-5.4-4-9.7-8.5-9.5
					C148,99,144.5,103.5,144.6,108.9"/>
				<path fill="#FFFFFF" d="M155.1,115c0,2.2,1.5,3.9,3.2,3.8c1.8-0.1,3.2-1.9,3.1-4.1c0-2.2-1.5-3.9-3.2-3.8
					C156.4,111,155,112.9,155.1,115"/>
				<path fill="#FFFFFF" d="M141.1,100.3c-0.6,3.3-0.2,7.4,2.6,7.8c2.8,0.4,6-3.2,6.6-6.4c0.6-3.3,0.8-7-2-7.4
					C145.5,93.7,141.7,97,141.1,100.3"/>
			</g>
			<path fill="#410025" d="M152.9,68.6c-0.3-1.3-8.8-5.2-15.8-2.6c-7,2.5-8.2,7.1-7.3,7.6c0.9,0.5,3.3-2.4,8.5-4
				C146,67.2,153.2,69.9,152.9,68.6"/>
			<path fill="#410025" d="M79.3,98.7c-0.5-1.2,4.5-9.1,11.7-10.9c7.2-1.8,10.8,1.4,10.3,2.3c-0.5,0.9-4.1-0.2-9.3,1.3
				C84.2,93.7,79.8,99.9,79.3,98.7"/>
			<path fill="#61439A" d="M170.5,93.8c0,0-11.9-14.4-28.4-5.6c-16.6,8.7-14.3,29.7-14.3,29.7s2.8-17.9,16.7-24.7
				C156.3,87.4,170.5,93.8,170.5,93.8z"/>
			<path fill="#61439A" d="M77.3,120.4c0,0,3.2-22.3,21.9-20.9c18.7,1.4,21.5,20.4,21.5,20.4s-7.5-14.8-23-15.4
				C84.6,104,77.3,120.4,77.3,120.4z"/>
			<path fill="#B869A2" d="M61.9,41.7C60.5-15.1,103.7,1,113.3,9.6c5.5,5,27.4,25.1,37.5,17.6c12.1-8.8,1.4-21.3,1.4-21.3
				s31.5-7.4,33.3,15.4c0.3,3.3-0.4,6.3-1.5,9c18.5,6.4,24.5,22.5,25.4,25.2c5.7,17.5-3.7,50.8-7.7,53c-0.1,0.1-0.2,0.1-0.4,0.2
				c-1.8-1.4-2.2-1-4.1-2.9c1.2,2.4,4.3,11.7-7.3,17.4c0,0-3.8,2.2-8,0.6c-4.9-1.9-5.8-9.1-5.8-9.1c-3.2-13.4,8.2-4.8,8.2-4.8
				c-7.1-0.3-2.5,4.3-2.5,4.3c1.3,0.8,2.8,1,4.7,0.4c0.3-0.1,0.6-0.3,0.8-0.6c1.4-1.7,5.9-8.7-1.7-20.9c-6.9-8.3-9.3-17.2-9.7-25
				l0,0c0,0-7.2-27.8-46.9-4.1l0,0c-8.8,7.1-17,14.3-17,14.3s-24.5-2.4-30,0.9c-0.8,2.7-1.6,5-2.4,7.7
				C77.2,84.1,62.4,64.4,61.9,41.7z"/>
			<path fill="#7D0052" d="M135.7,36c0,0-2.5,1.3-5.7,4c-8.9,7.5-15.9,19.7-14.4,31.7c0.1,1.2,0.4,1.9,0.4,1.9s0-0.7,0.1-1.9
				c1.3-11.9,7.1-21.8,14.9-30.7C133.7,38,135.7,36,135.7,36"/>
			<path fill="#7D0052" d="M120,26.9c0,0-0.7,0.4-1.9,1.2c-1.1,0.9-2.6,2.3-4.1,4.3c-0.7,1-1.5,2.1-2.2,3.3
				c-6.5,11.7-6.5,26.8-0.7,38.7c0,0-0.7-3.2-1.3-7.9c-1.3-10-0.8-20.8,3.6-30c0.6-1.2,1.1-2.4,1.7-3.4c1.2-2,2.4-3.6,3.3-4.7
				C119.4,27.5,120,26.9,120,26.9"/>
			<path fill="#7D0052" d="M95.1,5.9c0,0-1.1,0.6-2.8,1.9c-1.7,1.3-4.1,3.4-6.6,6.2c-2.4,2.9-4.9,6.6-6.7,11.1
				c-1.8,4.4-2.7,9.6-2.6,14.7c0,12.2,4.9,24.2,10.8,34.8c1.1,1.9,1.8,2.9,1.8,2.9s-0.5-1.1-1.4-3.1c-4.5-10.6-8.6-22.9-8.9-34.6
				c-0.1-4.8,0.6-9.6,2.1-13.9c1.5-4.3,3.6-8,5.8-11c2.2-3,4.3-5.2,5.8-6.7C94.1,6.6,95.1,5.9,95.1,5.9"/>
			<path fill="#7D0052" d="M203.2,44.5c-10-1.6-20,7-22.1,16.3c-1.4,5.7-1.3,11.8-0.6,17.6l0.5,4l1.8-3.7
				c3.6-7.5,9.4-13.7,16.7-17.7c1.2-0.6,2.5-1.2,3.8-1.6c0.7-0.2,1.3-0.3,2-0.4c0.7-0.1,1.4-0.1,2.1,0c-0.7-0.3-1.4-0.3-2.1-0.4
				c-0.7,0-1.4,0.1-2.1,0.2c-8.6,1.5-15.7,7.9-20.3,15c-0.8,1.2-1.5,2.4-2.2,3.8l2.2,0.4c-0.2-1.8-0.3-3.8-0.3-5.7
				c-0.1-1.9,0-3.8,0.1-5.7c0.5-6.2,1.6-11.8,6.5-16c2.5-2.1,5.4-4.1,8.5-5.2c0.9-0.3,1.8-0.6,2.7-0.8
				C201.3,44.6,202.2,44.4,203.2,44.5"/>
			<g>
				<path fill="#B8A6CC" d="M273.6,38.4c-1.9-4.4-32.2-4.2-57.6,21.7c-21.6,22.1-20.4,59.1-20.4,59.1s16.4-8.3,42.5-27.3
					C256,78.7,275.5,42.7,273.6,38.4"/>
				<path fill="#F7B5D2" d="M225.9,66.9c15.3-13.9,33.7-22.5,43.2-25.8c0.5,0.1-10.6,28.5-31.8,46.2c-15.5,13-27.2,19.5-33.4,23.5
					C203.2,101.8,207.4,83.8,225.9,66.9"/>
			</g>
		</g>
	</g>
</g>
</svg>
