<?xml version="1.0" encoding="utf-8"?>
<!-- Generator: Adobe Illustrator 19.2.0, SVG Export Plug-In . SVG Version: 6.00 Build 0)  -->
<!DOCTYPE svg PUBLIC "-//W3C//DTD SVG 1.1//EN" "http://www.w3.org/Graphics/SVG/1.1/DTD/svg11.dtd">
<svg version="1.1" xmlns="http://www.w3.org/2000/svg" xmlns:xlink="http://www.w3.org/1999/xlink" x="0px" y="0px"
	 viewBox="0 0 305.6 150.7" enable-background="new 0 0 305.6 150.7" xml:space="preserve" width="305.6" height="150.7" preserveAspectRatio="none">
<g id="BG">
</g>
<g id="Desk_Background">
</g>
<g id="Right_Stack_of_Books">
</g>
<g id="Left_Blue_Book">
</g>
<g id="White_Frame_Drop_Shadow">
</g>
<g id="White_Frame_BG">
</g>
<g id="Submit_Button_1_">
</g>
<g id="Left_Tool_Bar_Tab">
</g>
<g id="Right_Info_Tab">
</g>
<g id="Top_Tab">
</g>
<g id="Left_Tools">
</g>
<g id="MsQ_x27_s_Specs">
</g>
<g id="Red_x2F_Blue_Pen">
</g>
<g id="Coffee_Pencil_x2F_Postit_Rubberband_Ball">
	<g>
		<g>
			<path opacity="0.5" fill="#8D5424" d="M7.4,93.3l-3.9,0.4c0,0-0.3,5.3,8.1,12.1s31.7,12.6,31.7,12.6l-24.7,9.5
				c0,0-2.5,3.3-1.5,7.6c1,4.3,6.5,7.3,6.5,7.3l75.8-12.3l19.9,17.1l77.8-14.9l-17.9-12.8L99.2,99L41,87.4L7.4,93.3"/>
			<g>
				<g>
					<path fill="#009868" d="M107.8,29.8c-15.1,0-27.3,12.2-27.3,27.3c0,15.1,12.2,27.3,27.3,27.3c15.1,0,27.3-12.2,27.3-27.3
						C135.1,42,122.9,29.8,107.8,29.8z M107.8,72.3c-8.4,0-15.1-6.8-15.1-15.1c0-8.4,6.8-15.1,15.1-15.1c8.4,0,15.1,6.8,15.1,15.1
						C122.9,65.5,116.2,72.3,107.8,72.3z"/>
					<path fill="#009868" d="M109.2,93.3c0,2.6-2.8,6.7-6.6,8.6c-26,12.9-62.6,12.9-88.6,0c-3.8-1.9-6.6-6-6.6-8.6
						c0-25.3,0-48,0-73.3c0.4,0,2.8-4.7,6.6-6.7c26-12.9,62.6-13.1,88.6-0.2c3.8,1.9,6.6,6,6.6,6.8
						C109.2,45.2,109.2,68.1,109.2,93.3z"/>
					<path fill="#82C891" d="M32.4,7C25.9,8.6,19.7,9.8,14,12.6c-3.8,1.9-6.6,5-6.6,7.6v73.1c0,2.6,2.8,6.7,6.6,8.6
						c5.7,2.8,11.9,5,18.3,6.6V7z"/>
					<path fill="#29B473" d="M19.5,11c-0.3,1-0.4-2.5-0.4-1.7c0,30.7,0,61.5,0,92.2c0,0.8,0.2,1.8,0.4,2.8c23.6,9.6,54,9.6,77.6,0
						c0.3-1,0.4-2,0.4-2.8c0-30.7,0-61.5,0-92.2c0-0.9-0.2,2.7-0.4,1.7C73.5,1.4,43.1,1.4,19.5,11z"/>
					<path fill="#29B473" d="M57.7,33c24.6,0,45.1-6.3,51.5-12.5c0-0.5,0-1.1,0-1.6c0-2.4-2.9-5.8-6.6-7.8
						C81.4-0.4,38.3-2.4,14,11.1c-3.7,2-6.6,5.4-6.6,7.8c0,1,0,0.3,0,1.3C15.6,27.8,35,33,57.7,33z"/>
					<path fill="#009868" d="M99,17.7c-0.2,3-18.6,8.6-41.6,8.6c-23,0-42-5.6-42.1-8.6C15.2,10.8,34.5,5.5,57.5,5.5
						C80.5,5.5,99.4,11.2,99,17.7z"/>
					<path fill="#CA924F" d="M98.1,18.4c0,2.5-17.6,7.9-40.6,7.9c-23,0-40.9-5.3-40.9-7.8c0-2.5,17.9-8,40.9-8
						C80.4,10.5,98.1,15.9,98.1,18.4z"/>
					<path fill="#DFB370" d="M57.4,12.2c-16.5,0-30.3,3.1-34,5.2c6.4-1.7,16.8-3.2,28.5-3.2c19.3,0,35,4.2,35,6.2c0,0.3-0.3,0.6-1,1
						c4.1-1.1,6.5-2.2,6.5-2.9C92.5,16.4,76.8,12.2,57.4,12.2z"/>
				</g>
				<path fill="#82C891" d="M101.5,19.9c0,0.5-0.5,0.9-0.8,1.2c-0.4,0.3-0.8,0.6-1.2,0.9c-0.8,0.5-1.7,1-2.6,1.4
					c-1.7,0.8-3.6,1.5-5.4,2.1c-3.7,1.2-7.4,2.2-11.2,3c-3.8,0.8-7.6,1.3-11.4,1.7c-3.8,0.4-7.7,0.5-11.6,0.5
					c-7.7-0.1-15.4-0.8-23-2.4c-3.8-0.8-7.5-1.7-11.2-3c-1.8-0.6-3.6-1.3-5.4-2.1c-0.9-0.4-1.7-0.8-2.6-1.3
					c-0.4-0.3-0.8-0.5-1.2-0.8c-0.3-0.3-0.8-0.7-0.8-1.2c0.1,0.5,0.5,0.8,0.9,1c0.4,0.3,0.8,0.5,1.3,0.7c0.9,0.4,1.7,0.7,2.6,1
					c1.8,0.6,3.6,1.1,5.5,1.6c3.7,0.9,7.4,1.6,11.2,2.2c3.8,0.6,7.5,1,11.3,1.3c3.8,0.3,7.6,0.5,11.4,0.5c3.8,0,7.6-0.1,11.4-0.4
					c3.8-0.3,7.5-0.7,11.3-1.3c3.7-0.6,7.5-1.3,11.2-2.3c1.8-0.5,3.7-1,5.5-1.6c0.9-0.3,1.8-0.7,2.6-1.1c0.4-0.2,0.8-0.4,1.2-0.7
					C101,20.6,101.5,20.4,101.5,19.9z"/>
			</g>
			<g>
				<polygon fill="#FFC93E" points="86.4,107.6 84.7,94.4 155.9,97.9 192.5,114.1 188.7,128.6 120.4,138.8 				"/>
				<polygon fill="#FFDF3D" points="84.7,94.4 154.1,84.8 192.8,114.6 119.8,124.3 				"/>
				<g>
					<path fill="#DB9D36" d="M175.6,124.5l-18.2,2.7l-18.2,2.8l-18,2.8c-6.2-5.5-12.4-11.1-18.6-16.6l-9.4-8.3l-7.8-6.8l0,0.1
						l7.5,6.9l9.2,8.5c6.2,5.6,12.4,11.2,18.6,16.8l0.1,0.1l0.2,0l18.2-2.8l18.2-2.9l18.1-2.9l14.6-2.4l0-0.1L175.6,124.5z"/>
					<path fill="#DB9D36" d="M189.5,125.7l-13.8,2l-18.2,2.7l-18.2,2.8l-18,2.8c-6.2-5.5-12.4-11.1-18.6-16.6l-9.4-8.3l-7.3-6.4
						l0,0.1l7.1,6.5l9.2,8.5c6.2,5.6,12.4,11.2,18.6,16.8l0.1,0.1l0.2,0l18.2-2.8l18.2-2.9l18.1-2.9l13.8-2.3L189.5,125.7z"/>
					<polygon fill="#DB9D36" points="157.2,123.9 138.6,126.3 120.1,128.8 138.7,126.6 157.3,124.4 190.9,120.2 191.1,119.6 					
						"/>
					<polygon fill="#DB9D36" points="119.7,127.1 119.8,127.2 119.9,127.2 158.1,121.9 177.2,119.3 191.7,117.2 191.9,116.5 
						177.1,118.5 158,121.3 119.9,126.7 104.1,113 88.2,99.3 103.9,113.3 					"/>
				</g>
			</g>
			<polygon opacity="0.4" fill="#DB9D36" points="153.6,104.7 134.1,104.7 97.7,113.3 97.1,117.4 107.2,126.6 111.2,117.4 
				133.9,113.5 			"/>
			<g>
				<path fill="#C6557D" d="M18.8,122.3l12.2-2.9l3.2,13.6L22,135.9c0,0-1.9-1.4-3-6.4C17.8,124.6,18.8,122.3,18.8,122.3z"/>
				<path fill="#EB6592" d="M32.1,124.7l-1.2-5.3l-12.2,2.9c0,0-0.8,1.8-0.1,5.6L32.1,124.7z"/>
				
					<rect x="30.9" y="108" transform="matrix(0.9731 -0.2306 0.2306 0.9731 -24.4026 21.3734)" fill="#AA64A7" width="96.7" height="14.3"/>
				
					<rect x="31.7" y="114.8" transform="matrix(0.9731 -0.2306 0.2306 0.9731 -25.1597 21.648)" fill="#772B8F" width="96.7" height="7.3"/>
				<g>
					<path fill="#CBBE92" d="M125.3,103.5c0.2,0.9,0,1.8-0.6,2.4c0.3,0.5,0.5,1.1,0.7,1.7c0.3,1.3,0.2,2.7-0.1,3.9l2.8-0.7l23.1-13
						L124.7,97l-2,0.5c0.3,0.4,0.5,0.9,0.6,1.5c0.2,0.9,0.1,1.8-0.1,2.5C124.2,101.7,125,102.5,125.3,103.5z"/>
				</g>
				<path fill="#E4D5A3" d="M123.3,100.8l25.7-1.4l2-1.5L124.7,97l-2,0.5c0.3,0.4,0.5,0.9,0.6,1.5
					C123.4,99.6,123.4,100.2,123.3,100.8z"/>
				<path fill="#363121" d="M139.7,97.5c0.1,1.1,0.2,2.2,0.5,3.3c0.2,0.9,0.5,1.8,0.9,2.7l10-5.7L139.7,97.5z"/>
				<path fill="#772B8F" d="M68.1,113.5l-2.5,8.6c0,0-0.5-3.7-0.1-5.3C65.9,115.2,68.1,113.5,68.1,113.5z"/>
				<path fill="#772B8F" d="M110.4,104.9l8.8,2.1c0,0-3.7,0.7-5.3,0.4C112.2,107.1,110.4,104.9,110.4,104.9z"/>
				<path fill="#AA64A7" d="M104,114.3l5.6-4.7c0,0-1.3,2.7-2.3,3.6C106.3,114.2,104,114.3,104,114.3z"/>
				<path fill="#AA64A7" d="M59.2,126.7c-0.5-2-2.5-3.2-4.5-2.8l-6.9,1.6c-2,0.5-3.2,2.5-2.8,4.5c0,0.2,0.1,0.3,0.1,0.4l14.1-3.3
					C59.2,127,59.2,126.9,59.2,126.7z"/>
				<g>
					
						<rect x="28.4" y="118.5" transform="matrix(0.9731 -0.2305 0.2305 0.9731 -28.1689 11.0363)" fill="#90D6ED" width="9.5" height="15.1"/>
				</g>
				
					<rect x="30" y="118.7" transform="matrix(0.9731 -0.2305 0.2305 0.9731 -27.0067 10.6131)" fill="#90D6ED" width="3.9" height="4.5"/>
			</g>
			
				<rect x="31.2" y="118.5" transform="matrix(0.9731 -0.2305 0.2305 0.9731 -28.1626 11.0333)" fill="#C7E8F0" width="3.9" height="15.1"/>
			
				<rect x="29" y="123.4" transform="matrix(0.973 -0.2306 0.2306 0.973 -28.7202 11.2395)" fill="#90D6ED" width="9.5" height="10.2"/>
		</g>
		<g>
			<ellipse opacity="0.5" fill="#8D5424" cx="258.5" cy="94.3" rx="44.8" ry="15.8"/>
			<g>
				<path fill="#90D6ED" d="M245.3,98.9c-0.8-1.8-1.6-3.7-2.3-5.6c0.1,1.9,0.3,3.9,0.5,5.8C244,99.1,244.6,99,245.3,98.9z"/>
				<path fill="#90D6ED" d="M222.6,86.1C222.6,86.1,222.6,86.1,222.6,86.1c0.1,0.1,0.1,0.1,0.2,0.1
					C222.7,86.1,222.6,86.1,222.6,86.1z"/>
				<path fill="#90D6ED" d="M229,96.3c1-1.7,2-3.3,3.1-5c-3.1,0.2-6.2,0.4-9.3,0.4C224.6,93.6,226.7,95.1,229,96.3z"/>
				<path fill="#90D6ED" d="M237.4,99.1c-0.1-0.8-0.2-1.6-0.2-2.4c-0.5,0.7-0.9,1.4-1.3,2.2C236.3,98.9,236.9,99,237.4,99.1z"/>
				<path fill="#90D6ED" d="M250.2,21.1c0.4,0.1,0.8,0.3,1.1,0.4c0.1-0.1,0.1-0.2,0.2-0.3C251,21.2,250.6,21.1,250.2,21.1z"/>
				<path fill="#90D6ED" d="M255.4,73.8c-3,3.1-5.8,6.2-8.5,9.5c0,0.1,0.1,0.2,0.1,0.3c0.1,0,0.1,0,0.2,0c2.8-0.5,5.6-1.2,8.4-1.9
					C255.4,79,255.4,76.4,255.4,73.8z"/>
				<path fill="#90D6ED" d="M264.5,44.1c-0.1,0.3-0.1,0.5-0.2,0.8c2.7,1.8,5.3,3.8,7.9,5.8c1.3-0.9,2.7-1.8,4.1-2.7
					c-0.1-0.4-0.1-0.8-0.2-1.2C272.2,46.1,268.3,45.2,264.5,44.1z"/>
				<path fill="#90D6ED" d="M244,25.2c-0.9,0.8-1.8,1.6-2.7,2.4c2,1,4.1,2,6.1,2.9c0.5-1.2,0.9-2.3,1.4-3.5
					C247.2,26.4,245.6,25.8,244,25.2z"/>
				<path fill="#90D6ED" d="M263.6,26c-2-1.5-4.3-2.7-6.7-3.5c-0.2,0.4-0.4,0.8-0.6,1.2c2.3,1,4.7,2.1,7,3.3
					C263.4,26.6,263.5,26.3,263.6,26z"/>
				<path fill="#90D6ED" d="M261.5,32.6c-2.5-1.3-5-2.4-7.6-3.5c-0.5,1.2-0.9,2.3-1.4,3.5c2.7,1.1,5.4,2,8.1,2.9
					C261,34.6,261.2,33.6,261.5,32.6z"/>
				<path fill="#90D6ED" d="M266.1,37.2c2.2,0.6,4.4,1.2,6.6,1.7c-2-1.2-4.1-2.4-6.1-3.6C266.4,35.9,266.2,36.5,266.1,37.2z"/>
				<path fill="#90D6ED" d="M212.9,70.6c0.2,1.7,0.5,3.4,1,5c0.9,0.3,1.8,0.7,2.7,1c0.2-1.2,0.4-2.3,0.6-3.5
					c-0.9-0.8-1.9-1.6-2.8-2.4C213.9,70.7,213.4,70.6,212.9,70.6z"/>
				<path fill="#90D6ED" d="M223.4,78.8c0.5,0.2,1.1,0.3,1.6,0.5c-0.5-0.4-1-0.7-1.5-1.1C223.5,78.3,223.5,78.6,223.4,78.8z"/>
				<path fill="#90D6ED" d="M244.9,60.3c-0.2,1.3-0.4,2.5-0.6,3.8c2.4-0.2,4.7-0.5,7.1-0.9C249.1,62.3,247,61.3,244.9,60.3z"/>
				<path fill="#90D6ED" d="M264.2,68c-0.9,0.2-1.8,0.4-2.8,0.6c-0.1,3.8-0.1,7.6,0,11.4c3.6-1.1,7.2-2.3,10.7-3.7
					c0.8-1.8,1.6-3.6,2.2-5.5C271,70,267.6,69.1,264.2,68z"/>
				<path fill="#90D6ED" d="M252.1,96.9c0.8-0.3,1.6-0.7,2.4-1.1c-1.2-0.5-2.3-1-3.5-1.5C251.4,95.1,251.7,96,252.1,96.9z"/>
				<path fill="#90D6ED" d="M213.6,61c1.2,1.1,2.4,2.2,3.7,3.3c0.6,0,1.1,0.1,1.7,0.1c1-4,2.1-8,3.5-12c-0.9-0.3-1.8-0.6-2.6-0.9
					C217.6,54.6,215.5,57.8,213.6,61z"/>
				<path fill="#90D6ED" d="M241,50.2c0.9-3.5,1.9-7,3-10.4c-1.5-0.7-3-1.5-4.5-2.2c0,4.1,0.3,8.1,0.6,12.1c0.2,0.1,0.5,0.3,0.7,0.4
					C240.9,50.2,240.9,50.2,241,50.2z"/>
				<path fill="#90D6ED" d="M243.5,71.2c0.3,1.3,0.6,2.6,0.9,3.8c1.3-1.5,2.6-2.9,4-4.3C246.8,70.9,245.2,71.1,243.5,71.2z"/>
				<path fill="#90D6ED" d="M217.6,43.1c-0.1,0.1-0.1,0.3-0.2,0.4c0.3,0.1,0.5,0.2,0.8,0.3c0,0,0.1-0.1,0.1-0.1
					C218.1,43.5,217.9,43.3,217.6,43.1z"/>
				<path fill="#90D6ED" d="M262.9,52.8c0.9,0,1.7,0.1,2.6,0.1c-0.8-0.6-1.6-1.1-2.4-1.7C263.1,51.8,263,52.3,262.9,52.8z"/>
				<path fill="#90D6ED" d="M225.2,32.1c-1.5,1.6-2.9,3.3-4.2,5.2c0.5,0.4,1,0.8,1.6,1.2c1.6-1.9,3.3-3.8,5.1-5.6
					C226.9,32.6,226.1,32.4,225.2,32.1z"/>
				<path fill="#90D6ED" d="M236.8,78.7c0.1-1.3,0.1-2.6,0.2-3.9c-0.3-1-0.5-2.1-0.7-3.2c-3.3,0.1-6.6,0.1-9.9,0
					C229.8,74.1,233.3,76.5,236.8,78.7z"/>
				<path fill="#90D6ED" d="M249.2,42.5c-0.9,2.9-1.7,5.8-2.4,8.7c3.5,0.5,6.9,1,10.4,1.2c0.2-1.6,0.5-3.2,0.8-4.8
					C255.1,45.8,252.1,44.1,249.2,42.5z"/>
				<path fill="#90D6ED" d="M226.2,64.7c2.9,0.1,5.8,0.1,8.7,0c-0.5-3-0.9-6-1.3-9c-1.5-0.4-3-0.8-4.5-1.2
					C228.1,57.9,227.1,61.3,226.2,64.7z"/>
				<path fill="#90D6ED" d="M232.8,45.5c0-0.3,0-0.5,0-0.8c-0.1,0.2-0.2,0.4-0.2,0.6C232.7,45.4,232.7,45.4,232.8,45.5z"/>
				<path fill="#4DC7EA" d="M217.6,43.1c-2-1.6-4-3.2-6-4.9c-0.5,0.8-1,1.6-1.5,2.4c2.4,1,4.8,2,7.3,2.9
					C217.5,43.4,217.6,43.3,217.6,43.1z"/>
				<path fill="#4DC7EA" d="M222.8,91.8c-0.2,0-0.4,0-0.6,0c0,0.3,0,0.7,0,1c2.1,1.4,4.3,2.7,6.7,3.7c0-0.1,0.1-0.1,0.1-0.2
					C226.7,95.1,224.6,93.6,222.8,91.8z"/>
				<path fill="#4DC7EA" d="M225.2,32.1c-2.1-0.7-4.3-1.3-6.5-1.9c-1.1,0.9-2.1,1.9-3,2.9c1.7,1.5,3.5,2.9,5.3,4.2
					C222.3,35.4,223.7,33.7,225.2,32.1z"/>
				<path fill="#4DC7EA" d="M215.7,83.9c-1.2-0.4-2.5-0.9-3.7-1.3c0.8,1.2,1.7,2.4,2.7,3.5c0.3,0,0.5,0,0.8,0
					C215.6,85.4,215.6,84.7,215.7,83.9z"/>
				<path fill="#4DC7EA" d="M214.1,49.4c-2.2-0.9-4.4-1.8-6.6-2.8c-0.3,0.9-0.7,1.9-0.9,2.9c-0.3,1.2-0.6,2.5-0.8,3.7
					c1.2,1.2,2.3,2.4,3.5,3.6C210.7,54.2,212.4,51.8,214.1,49.4z"/>
				<path fill="#4DC7EA" d="M208.6,70c-0.5,1-1,1.9-1.4,2.9c2.2,1,4.4,1.9,6.7,2.7c-0.4-1.6-0.7-3.3-1-5
					C211.5,70.4,210,70.2,208.6,70z"/>
				<path fill="#4DC7EA" d="M205.7,62.6c-0.2-0.2-0.4-0.4-0.6-0.6c0,0.3,0,0.6,0,0.9c0.1,0,0.3,0,0.4,0.1
					C205.6,62.8,205.7,62.7,205.7,62.6z"/>
				<path fill="#4DC7EA" d="M233.4,22.2c-0.5,0.1-0.9,0.3-1.4,0.4c0.4,0.3,0.9,0.5,1.3,0.7C233.3,22.9,233.4,22.5,233.4,22.2z"/>
				<path fill="#4DC7EA" d="M250.2,21.1c0.4,0,0.9,0.1,1.3,0.1c0,0,0-0.1,0.1-0.1c-0.7-0.1-1.5-0.2-2.2-0.3v0
					C249.6,20.9,249.9,21,250.2,21.1z"/>
				<path fill="#CAE9F0" d="M272.2,76.3c3.2-1.2,6.2-2.6,9.3-4c-2.4-0.4-4.7-0.9-7.1-1.5C273.7,72.7,273,74.6,272.2,76.3z"/>
				<path fill="#CAE9F0" d="M235.8,98.8C235.8,98.8,235.8,98.8,235.8,98.8c0.5,0.2,1.1,0.3,1.6,0.4c0,0,0-0.1,0-0.1
					C236.9,99,236.3,98.9,235.8,98.8z"/>
				<path fill="#CAE9F0" d="M267.3,92.8c0.7-0.5,1.3-1,2-1.5c-2,0.1-3.9,0.2-5.9,0.2C264.7,91.9,266,92.4,267.3,92.8z"/>
				<path fill="#CAE9F0" d="M254.5,95.7c-0.8,0.4-1.6,0.8-2.4,1.1c0.3,0.7,0.6,1.4,0.9,2.1c1.4-0.3,2.8-0.7,4.2-1.2
					c-0.1-0.3-0.1-0.7-0.2-1C256.3,96.5,255.4,96.1,254.5,95.7z"/>
				<path fill="#CAE9F0" d="M279.6,64.5c-0.2-0.2-0.5-0.4-0.7-0.7c-0.3,0.1-0.6,0.2-0.9,0.3C278.5,64.3,279,64.4,279.6,64.5z"/>
				<path fill="#CAE9F0" d="M283.5,52.1c0-0.2-0.1-0.5-0.1-0.7c-0.4,0.3-0.9,0.6-1.3,0.8C282.6,52.2,283.1,52.2,283.5,52.1z"/>
				<path fill="#CAE9F0" d="M276.3,48.1c0.5-0.3,0.9-0.6,1.4-0.9c-0.5-0.1-1.1-0.2-1.6-0.3C276.1,47.3,276.2,47.7,276.3,48.1z"/>
				<path fill="#CAE9F0" d="M243.4,99.2c0,0.2,0,0.4,0.1,0.6c0.7,0,1.5,0,2.2,0c-0.1-0.3-0.3-0.6-0.4-0.9
					C244.6,99,244,99.1,243.4,99.2z"/>
				<path fill="#CAE9F0" d="M263.6,26c0.1-0.2,0.1-0.4,0.2-0.6c-2.2-1.2-4.5-2.2-6.9-3c0,0,0,0,0,0C259.3,23.3,261.6,24.5,263.6,26z
					"/>
				<path fill="#CAE9F0" d="M272.9,32.3c-1.4-1.4-2.8-2.6-4.4-3.8c-0.1,0.4-0.2,0.7-0.3,1.1C269.8,30.4,271.3,31.3,272.9,32.3z"/>
				<path fill="#CAE9F0" d="M267.6,84.4c3-0.1,5.9-0.3,8.9-0.5c0.9-1.2,1.8-2.5,2.6-3.9C275.3,81.6,271.5,83.1,267.6,84.4z"/>
				<path fill="#1C8C3A" d="M275.8,63.6c0.7,0.2,1.4,0.3,2.1,0.5c0.3-0.1,0.6-0.2,0.9-0.3c-0.3-0.3-0.7-0.6-1-0.9
					C277.2,63.2,276.5,63.4,275.8,63.6z"/>
				<path fill="#1C8C3A" d="M214.4,70.7c-0.5-0.4-1-0.8-1.4-1.3c-1.3-0.2-2.5-0.3-3.8-0.5c-0.2,0.3-0.4,0.7-0.5,1
					c1.4,0.2,2.9,0.4,4.3,0.6C213.4,70.6,213.9,70.7,214.4,70.7z"/>
				<path fill="#1C8C3A" d="M264.2,68c-0.7-0.2-1.4-0.5-2.1-0.7c-0.2,0.2-0.4,0.4-0.6,0.6c0,0.2,0,0.5,0,0.7
					C262.4,68.5,263.3,68.3,264.2,68z"/>
				<path fill="#1C8C3A" d="M224.9,70.5c0.5,0.4,1,0.8,1.5,1.1c3.3,0.1,6.6,0.1,9.9,0c-0.1-0.4-0.2-0.8-0.3-1.1
					C232.4,70.6,228.6,70.6,224.9,70.5C224.9,70.4,224.9,70.5,224.9,70.5z"/>
				<path fill="#1C8C3A" d="M249.7,69.4c-2.1,0.3-4.2,0.5-6.3,0.6c0,0.2,0,0.4-0.1,0.6c0,0.2,0.1,0.4,0.1,0.5
					c1.7-0.1,3.3-0.3,4.9-0.5C248.9,70.3,249.3,69.9,249.7,69.4z"/>
				<path fill="#1C8C3A" d="M283.6,60.8c0.3,0.3,0.6,0.6,0.9,0.9c0.3-0.1,0.6-0.3,0.9-0.4c0-0.4,0-0.8,0-1.2
					C284.9,60.3,284.3,60.5,283.6,60.8z"/>
				<path fill="#2DB24A" d="M224.9,70.4c3.7,0.2,7.5,0.2,11.2,0.1c-0.4-1.9-0.8-3.9-1.1-5.8c-2.9,0.1-5.8,0.1-8.7,0
					C225.7,66.6,225.3,68.5,224.9,70.4z"/>
				<path fill="#2DB24A" d="M218.7,65.5c0.1-0.4,0.2-0.7,0.3-1.1c-0.6,0-1.1-0.1-1.7-0.1C217.8,64.7,218.2,65.1,218.7,65.5z"/>
				<path fill="#2DB24A" d="M251.3,63.2c-2.3,0.3-4.7,0.6-7.1,0.9c-0.3,2-0.6,4-0.8,6c2.1-0.2,4.2-0.4,6.3-0.6
					c1.6-1.6,3.3-3.2,5-4.8C253.6,64.2,252.4,63.7,251.3,63.2z"/>
				<path fill="#2DB24A" d="M275.8,63.6c0.7-0.2,1.4-0.5,2.1-0.7c-1.1-1-2.2-2-3.3-2.9c-1.2,0.1-2.4,0.1-3.6,0.1
					c-0.7,0.6-1.4,1.1-2.1,1.7C271.1,62.5,273.4,63.1,275.8,63.6z"/>
				<path fill="#2DB24A" d="M282.2,59.5c0.5,0.4,0.9,0.9,1.4,1.3c0.6-0.2,1.2-0.5,1.8-0.8c0-0.3,0-0.6,0-0.9
					C284.4,59.2,283.3,59.3,282.2,59.5z"/>
				<path fill="#2DB24A" d="M231.7,21.5c0.6,0.1,1.2,0.3,1.8,0.5c0-0.3,0.1-0.7,0.1-1C232.9,21.1,232.3,21.3,231.7,21.5z"/>
				<path fill="#2DB24A" d="M263.3,27c-2.3-1.2-4.6-2.3-7-3.3c-0.8,1.8-1.6,3.6-2.4,5.4c2.5,1.1,5.1,2.3,7.6,3.5
					C262.1,30.7,262.7,28.9,263.3,27z"/>
				<path fill="#2DB24A" d="M266.6,35.3c2.1,1.1,4.1,2.3,6.1,3.6c2.6,0.6,5.1,1.1,7.7,1.5c-1.2-2.1-2.5-4.1-4.1-6
					c-1.1-0.7-2.3-1.4-3.4-2.1c-1.6-0.9-3.1-1.8-4.7-2.7C267.6,31.5,267.1,33.4,266.6,35.3z"/>
				<path fill="#2DB24A" d="M214.1,49.4c-1.7,2.4-3.4,4.9-4.9,7.4c1.4,1.4,2.9,2.9,4.4,4.2c1.9-3.2,4-6.4,6.2-9.5
					C217.9,50.8,216,50.1,214.1,49.4z"/>
				<path fill="#2DB24A" d="M222.6,38.5c1.3,1,2.7,2,4,2.9c1.1-2.6,2.3-5.1,3.5-7.6c-0.8-0.3-1.7-0.6-2.5-0.9
					C225.9,34.7,224.2,36.6,222.6,38.5z"/>
				<path fill="#2DB24A" d="M218.2,43.8c0.2,0.1,0.3,0.1,0.5,0.2c-0.1-0.1-0.3-0.2-0.4-0.3C218.3,43.7,218.3,43.8,218.2,43.8z"/>
				<path fill="#2DB24A" d="M207.1,72.9c0.5-1,1-2,1.4-2.9c0.2-0.3,0.3-0.7,0.5-1c1.3,0.2,2.5,0.4,3.8,0.5c-2.5-2.2-4.9-4.5-7.2-6.9
					c-0.1,0.1-0.1,0.2-0.2,0.3c-0.1,0-0.3,0-0.4-0.1c-0.4-0.1-0.8-0.1-1.1-0.2c0.2,3.3,0.8,6.5,1.8,9.7
					C206.2,72.5,206.7,72.7,207.1,72.9z"/>
				<path fill="#2DB24A" d="M241.2,27.5C241.2,27.5,241.2,27.6,241.2,27.5c1-0.8,1.9-1.6,2.8-2.3c1.6,0.6,3.3,1.2,4.9,1.8
					c0.8-1.8,1.6-3.6,2.4-5.4c-0.4-0.1-0.8-0.3-1.1-0.4c-0.3-0.1-0.6-0.2-0.8-0.3v0c0.4-0.3,0.8-0.6,1.2-1c-1.5-0.2-3-0.4-4.4-0.4
					C244.4,22.1,242.7,24.8,241.2,27.5z"/>
				<path fill="#5D297B" d="M218.3,43.7c0.1,0.1,0.3,0.2,0.4,0.3c1.2,0.4,2.3,0.8,3.5,1.2c-3.7-2.7-7.3-5.6-10.8-8.6
					c-0.2,0.3-0.4,0.6-0.6,0.9c0.3,0.2,0.6,0.5,0.9,0.7c2,1.7,4,3.3,6,4.9C217.9,43.3,218.1,43.5,218.3,43.7z"/>
				<path fill="#5D297B" d="M274.4,70.8c2.4,0.6,4.7,1,7.1,1.5c0.7-0.3,1.4-0.7,2-1c-6.8-1.1-13.5-2.8-20.2-4.9
					c-0.4,0.3-0.8,0.7-1.1,1c0.7,0.2,1.4,0.5,2.1,0.7C267.6,69.1,271,70,274.4,70.8z"/>
				<path fill="#5D297B" d="M245.1,59c-0.1,0.4-0.2,0.8-0.2,1.3c2.1,1,4.3,2,6.4,3c1.1,0.5,2.3,1,3.4,1.4c0.3-0.3,0.7-0.6,1.1-1
					C252.2,62.3,248.6,60.7,245.1,59z"/>
				<path fill="#D1571C" d="M223.5,78.1c0.5,0.4,1,0.8,1.5,1.1c1,0.3,2.1,0.6,3.2,0.8c-1.5-1-3-2.1-4.5-3.2
					C223.7,77.3,223.6,77.7,223.5,78.1z"/>
				<path fill="#D1571C" d="M250.3,92.7c0.2,0.5,0.4,1,0.6,1.6c1.2,0.5,2.3,1,3.5,1.5c0.9,0.4,1.8,0.7,2.7,1.1
					c-0.1-0.4-0.1-0.9-0.2-1.3C254.7,94.6,252.5,93.7,250.3,92.7z"/>
				<path fill="#D1571C" d="M212.9,69.5c0.5,0.4,1,0.8,1.4,1.3c0.9,0.8,1.9,1.6,2.8,2.4c0.1-0.4,0.2-0.8,0.2-1.3
					c-4.7-3.9-9.2-8.1-13.5-12.6c0,0.5,0,1,0,1.6c0.4,0.4,0.8,0.8,1.2,1.2c0.2,0.2,0.4,0.4,0.6,0.6C208.1,65,210.5,67.3,212.9,69.5z
					"/>
				<path fill="#F6921E" d="M236.8,78.7c-3.5-2.2-7-4.5-10.4-7.1c-0.5-0.4-1-0.8-1.5-1.1c-0.4,2.1-0.8,4.2-1.2,6.4
					c1.5,1.1,3,2.2,4.5,3.2c2.8,0.7,5.6,1.3,8.5,1.9C236.7,80.9,236.8,79.8,236.8,78.7z"/>
				<path fill="#F6921E" d="M262.4,91.5c0.2,1.7,0.5,3.4,0.7,5c1.9-1,3.7-2.1,5.4-3.3c-0.4-0.1-0.9-0.3-1.3-0.4
					c-1.3-0.4-2.6-0.9-3.9-1.3C263.1,91.5,262.8,91.5,262.4,91.5z"/>
				<path fill="#F6921E" d="M250.3,92.7c2.2,1,4.4,1.9,6.6,2.8c-0.2-1.4-0.4-2.7-0.6-4.1c-2.2-0.1-4.5-0.2-6.7-0.4
					C249.9,91.6,250.1,92.1,250.3,92.7z"/>
				<path fill="#F6921E" d="M217.4,71.9c0.4-2.1,0.8-4.2,1.3-6.3c-0.5-0.4-1-0.8-1.4-1.2c-1.2-1.1-2.5-2.2-3.7-3.3
					c-1.5-1.4-3-2.8-4.4-4.2c-1.2-1.2-2.3-2.4-3.5-3.6c-0.3-0.3-0.6-0.7-0.9-1c-0.5,2.4-0.8,4.7-0.8,7.1
					C208.2,63.7,212.7,68,217.4,71.9z"/>
				<path fill="#5D297B" d="M227.2,85.9c-1.5-0.4-3-0.8-4.5-1.2c0,0.4-0.1,0.9-0.1,1.3c0.1,0,0.1,0,0.2,0.1
					C224.2,86.1,225.7,86,227.2,85.9z"/>
				<path fill="#5D297B" d="M262.3,90.2c0.1,0.4,0.1,0.9,0.2,1.3c0.3,0,0.6,0,1,0c1.9,0,3.9-0.1,5.9-0.2c0.6,0,1.3-0.1,1.9-0.1
					c0.5-0.5,1.1-0.9,1.6-1.4C269.3,90,265.8,90.1,262.3,90.2z"/>
				<path fill="#5D297B" d="M256.4,91.4c-0.1-0.5-0.1-0.9-0.1-1.4c-2.4-0.1-4.7-0.2-7.1-0.4c0.2,0.5,0.4,0.9,0.5,1.4
					C251.9,91.2,254.1,91.3,256.4,91.4z"/>
				<path fill="#86288F" d="M240.1,49.8c0,0.1,0,0.2,0,0.3c0.2,0,0.5,0.1,0.7,0.1C240.6,50,240.3,49.9,240.1,49.8z"/>
				<path fill="#86288F" d="M222.3,45.2c0.8,0.3,1.7,0.6,2.5,0.8c0.6-1.5,1.2-3.1,1.9-4.6c-1.4-0.9-2.7-1.9-4-2.9
					c-0.5-0.4-1-0.8-1.6-1.2c-1.8-1.4-3.6-2.8-5.3-4.2c-0.3-0.2-0.6-0.5-0.9-0.7c-1.2,1.3-2.4,2.7-3.4,4.2
					C214.9,39.6,218.6,42.5,222.3,45.2z"/>
				<path fill="#86288F" d="M279.6,64.5c-0.6-0.1-1.1-0.2-1.7-0.3c-0.7-0.2-1.4-0.3-2.1-0.5c-2.3-0.6-4.7-1.2-7-1.9
					c-1.9,1.5-3.7,3-5.5,4.6c6.7,2.2,13.4,3.8,20.2,4.9c0.2-0.1,0.4-0.2,0.5-0.3c0.2-0.6,0.3-1.2,0.5-1.8
					C282.9,67.6,281.2,66,279.6,64.5z"/>
				<path fill="#86288F" d="M261.5,80c-0.2-3.8-0.2-7.6,0-11.4c0-0.2,0-0.5,0-0.7c-2.1,1.9-4.1,3.8-6.1,5.8c0,2.6,0,5.3,0.2,7.9
					C257.6,81.2,259.5,80.6,261.5,80z"/>
				<path fill="#86288F" d="M263.3,27c-0.6,1.9-1.2,3.8-1.8,5.7c-0.3,1-0.6,1.9-0.8,2.9c1.8,0.6,3.6,1.1,5.4,1.6
					c0.2-0.6,0.3-1.2,0.5-1.9c0.5-1.9,1.1-3.8,1.6-5.7c0.1-0.4,0.2-0.7,0.3-1.1c0.1-0.4,0.2-0.8,0.4-1.1c-1.5-1.1-3.1-2.1-4.7-3
					c-0.1,0.4-0.3,0.7-0.4,1.1c-0.1,0.2-0.1,0.4-0.2,0.6C263.5,26.3,263.4,26.6,263.3,27z"/>
				<path fill="#86288F" d="M262.1,43.5c0.7,0.5,1.4,1,2.2,1.5c0.1-0.3,0.1-0.5,0.2-0.8C263.7,43.9,262.9,43.7,262.1,43.5z"/>
				<path fill="#86288F" d="M257.9,47.7c-0.3,1.6-0.6,3.2-0.8,4.8c1.9,0.2,3.9,0.3,5.8,0.4c0.1-0.5,0.2-1.1,0.2-1.6
					C261.4,50,259.7,48.8,257.9,47.7z"/>
				<path fill="#86288F" d="M245.3,58.1c-0.1,0.3-0.1,0.6-0.2,0.9c3.5,1.7,7.1,3.3,10.7,4.7c1.4-1.3,2.9-2.6,4.4-3.8
					C255.2,59.5,250.2,59,245.3,58.1z"/>
				<path fill="#2E3191" d="M241,50.2c1.9,0.4,3.8,0.7,5.8,1c0.7-2.9,1.5-5.8,2.4-8.7c3,1.6,5.9,3.4,8.8,5.2
					c1.8,1.1,3.5,2.3,5.2,3.5c0.8,0.6,1.6,1.1,2.4,1.7c1.2,0,2.3,0,3.5,0c1-0.7,2.1-1.5,3.1-2.2c-2.6-2-5.2-4-7.9-5.8
					c-0.7-0.5-1.4-1-2.2-1.5c-7.7-2.3-15.3-5.3-22.7-9c0,1.1,0,2.1,0,3.2c1.5,0.7,3,1.4,4.5,2.2C242.9,43.2,241.9,46.7,241,50.2z"/>
				<path fill="#2E3191" d="M251.3,21.5c-0.9,1.8-1.7,3.6-2.4,5.4c-0.5,1.2-1,2.3-1.4,3.5c1.7,0.8,3.4,1.5,5.2,2.2
					c0.4-1.2,0.9-2.3,1.4-3.5c0.7-1.8,1.5-3.6,2.4-5.4c0.2-0.4,0.4-0.8,0.6-1.2c0,0,0,0,0,0c0.2-0.3,0.3-0.7,0.5-1
					c-0.5-0.2-1.1-0.3-1.6-0.5c-1.2-0.3-2.5-0.6-3.7-0.9c-0.2,0.3-0.3,0.7-0.5,1c0,0,0,0.1-0.1,0.1
					C251.4,21.3,251.3,21.4,251.3,21.5z"/>
				<path fill="#2E3191" d="M242.9,93.4c-0.4-1.1-0.9-2.2-1.3-3.3c-1.6,2.2-3.1,4.4-4.5,6.6c0.1,0.8,0.1,1.6,0.2,2.4
					c0,0,0,0.1,0,0.1c0,0.4,0.1,0.8,0.1,1.2c2,0.4,4.1,0.6,6.1,0.6c0-0.4-0.1-0.8-0.1-1.1c0-0.2,0-0.4-0.1-0.6
					C243.2,97.3,243,95.3,242.9,93.4z"/>
				<path fill="#2E3191" d="M244.2,64.1c0.2-1.3,0.4-2.5,0.6-3.8c0.1-0.4,0.2-0.8,0.2-1.3c0.1-0.3,0.1-0.6,0.2-0.9
					c-1.4-0.2-2.9-0.5-4.3-0.8c0.6,4.5,1.5,9,2.5,13.4c0-0.2,0-0.4,0.1-0.6C243.7,68.1,243.9,66.1,244.2,64.1z"/>
				<path fill="#2E3191" d="M236.7,81.9c0.6,0.1,1.2,0.2,1.8,0.3c0.1-0.2,0.3-0.4,0.4-0.5c-0.7-2.3-1.3-4.6-1.9-7
					c-0.1,1.3-0.2,2.6-0.2,3.9C236.8,79.8,236.7,80.9,236.7,81.9z"/>
				<path fill="#2E3191" d="M225.2,32.1c0.8,0.3,1.6,0.5,2.4,0.8c0.8,0.3,1.7,0.6,2.5,0.9c0.6-1.1,1.1-2.3,1.7-3.4
					c-2.8-1.6-5.6-3.3-8.3-5.1c-2.2,1.3-4.2,2.8-6.1,4.5c0.4,0.1,0.9,0.2,1.3,0.3C220.9,30.8,223.1,31.4,225.2,32.1z"/>
				<path fill="#2E3191" d="M283.6,60.8c-0.5-0.4-0.9-0.9-1.4-1.3c-2.6,0.3-5.1,0.4-7.7,0.5c1.1,1,2.2,1.9,3.3,2.9
					c0.3,0.3,0.7,0.6,1,0.9c0.2,0.2,0.5,0.4,0.7,0.7c1.7,1.5,3.3,3.1,4.9,4.8c0.5-2.2,0.8-4.5,1-6.7c-0.3-0.3-0.6-0.6-0.9-0.9
					C284.2,61.4,283.9,61.1,283.6,60.8z"/>
				<path fill="#2E3191" d="M215.5,86.1c-0.3,0-0.5,0-0.8,0c-0.5,0-1,0-1.5,0c0.7,0.8,1.4,1.6,2.1,2.4
					C215.4,87.7,215.4,86.9,215.5,86.1z"/>
				<path fill="#2E3191" d="M281.4,72.3c-3,1.5-6.1,2.8-9.3,4c-3.5,1.4-7.1,2.6-10.7,3.7c-2,0.6-3.9,1.1-5.9,1.6
					c-2.8,0.7-5.6,1.3-8.4,1.9c6.7,0.8,13.5,1.1,20.4,0.9c3.9-1.3,7.8-2.8,11.5-4.4c0.6-0.2,1.1-0.5,1.7-0.7c1.3-2.5,2.4-5.2,3.2-8
					c0-0.1,0-0.1,0-0.2c-0.2,0.1-0.4,0.2-0.5,0.3C282.8,71.6,282.1,72,281.4,72.3z"/>
				<path fill="#2E3191" d="M222.7,86.1c-0.1,0-0.1,0-0.2,0c-0.2,1.9-0.3,3.8-0.4,5.7c0.2,0,0.4,0,0.6,0c3.1,0,6.2-0.2,9.3-0.4
					c0.8-1.3,1.7-2.6,2.6-3.8c-2.5-0.5-4.9-1-7.4-1.6C225.7,86,224.2,86.1,222.7,86.1z"/>
				<path fill="#D1571C" d="M229.2,54.5c1.5,0.4,3,0.8,4.5,1.2c0-0.4-0.1-0.8-0.1-1.2c-1.3-0.3-2.7-0.7-4-1.1
					C229.4,53.8,229.3,54.2,229.2,54.5z"/>
				<path fill="#D1571C" d="M272.5,58.9c-0.5,0.4-1.1,0.8-1.6,1.2c1.2,0,2.4,0,3.6-0.1c2.6-0.1,5.2-0.3,7.7-0.5
					c1.1-0.1,2.2-0.2,3.3-0.4c0-0.4,0-0.8-0.1-1.1C281.2,58.5,276.8,58.8,272.5,58.9z"/>
				<path fill="#D1571C" d="M219.8,51.5c0.9,0.3,1.8,0.6,2.6,0.9c0.1-0.4,0.2-0.7,0.4-1.1c-5.4-1.8-10.7-3.9-16-6.3
					c-0.1,0.3-0.2,0.7-0.4,1c0.3,0.2,0.7,0.3,1,0.5c2.2,1,4.4,1.9,6.6,2.8C216,50.1,217.9,50.8,219.8,51.5z"/>
				<path fill="#D1571C" d="M245.3,58.1c5,0.8,9.9,1.4,14.9,1.7c0.4-0.4,0.9-0.7,1.3-1.1c-6.9-0.4-13.8-1.2-20.7-2.6
					c0.1,0.4,0.1,0.8,0.2,1.2C242.4,57.6,243.8,57.9,245.3,58.1z"/>
				<path fill="#F6921E" d="M272.5,58.9c4.4-0.1,8.7-0.4,12.9-1c-0.1-2-0.4-4-0.8-5.9c-0.4,0-0.7,0.1-1.1,0.1
					c-0.5,0.1-1,0.1-1.5,0.1C278.8,54.4,275.6,56.6,272.5,58.9z"/>
				<path fill="#F6921E" d="M229.5,53.4c1.3,0.4,2.7,0.7,4,1.1c-0.2-2-0.4-4.1-0.5-6.1c-0.5-0.1-1-0.3-1.5-0.4
					C230.8,49.8,230.2,51.6,229.5,53.4z"/>
				<path fill="#F6921E" d="M222.8,51.4c0.6-1.8,1.3-3.6,2-5.3c-0.8-0.3-1.7-0.5-2.5-0.8c-1.2-0.4-2.3-0.8-3.5-1.2
					c-0.2-0.1-0.3-0.1-0.5-0.2c-0.3-0.1-0.5-0.2-0.8-0.3c-2.4-0.9-4.9-1.9-7.3-2.9c-0.3-0.1-0.7-0.3-1-0.5c-0.9,1.6-1.7,3.2-2.4,4.9
					C212.1,47.5,217.4,49.6,222.8,51.4z"/>
				<path fill="#F6921E" d="M261.5,58.8c2.5-2,5-3.9,7.6-5.8c-1.2,0-2.3,0-3.5,0c-0.9,0-1.7,0-2.6-0.1c-1.9-0.1-3.9-0.2-5.8-0.4
					c-3.4-0.3-6.9-0.7-10.4-1.2c-1.9-0.3-3.8-0.6-5.8-1c-0.1,0-0.1,0-0.2,0c-0.2,0-0.5-0.1-0.7-0.1c0.2,2.1,0.4,4.1,0.7,6.1
					C247.7,57.5,254.6,58.4,261.5,58.8z"/>
				<path fill="#9D1522" d="M231.9,30.4c0.2-0.3,0.3-0.7,0.5-1c-2.6-1.5-5.2-3.1-7.8-4.7c-0.4,0.2-0.7,0.4-1.1,0.6
					C226.3,27.1,229.1,28.8,231.9,30.4z"/>
				<path fill="#9D1522" d="M262.1,43.5c0.8,0.2,1.6,0.5,2.3,0.7c3.8,1.1,7.7,2,11.6,2.7c0.5,0.1,1.1,0.2,1.6,0.3
					c0.5-0.3,1-0.6,1.5-0.9c-13.5-2.3-26.9-6.7-39.7-13.1c0,0.4,0,0.8,0,1.3C246.9,38.2,254.4,41.2,262.1,43.5z"/>
				<path fill="#BE1E2D" d="M232.4,29.4c0.2-0.3,0.4-0.6,0.5-1c0.1-1.7,0.2-3.4,0.4-5.1c-0.4-0.2-0.9-0.5-1.3-0.7
					c-0.4-0.2-0.8-0.5-1.3-0.7c-2.1,0.8-4.2,1.7-6.2,2.8C227.2,26.4,229.8,27.9,232.4,29.4z"/>
				<path fill="#86288F" d="M215.8,82.6c0.2-2,0.5-4,0.8-6c-0.9-0.3-1.8-0.6-2.7-1c-2.3-0.8-4.5-1.7-6.7-2.7
					c-0.5-0.2-0.9-0.4-1.4-0.6c0.8,2.7,2,5.3,3.4,7.8C211.3,81,213.6,81.8,215.8,82.6z"/>
				<path fill="#86288F" d="M247.2,83.5c-0.1,0-0.1,0-0.2,0c0.7,2.1,1.4,4.1,2.2,6.1c2.4,0.2,4.7,0.4,7.1,0.4c0,0.5,0.1,0.9,0.1,1.4
					c0.2,1.4,0.4,2.7,0.6,4.1c0.1,0.4,0.1,0.9,0.2,1.3c0.1,0.3,0.1,0.7,0.2,1c0.1,0.4,0.1,0.8,0.2,1.1c2-0.6,3.8-1.4,5.7-2.4
					c-0.3-1.7-0.5-3.3-0.7-5c-0.1-0.4-0.1-0.9-0.2-1.3c3.5,0,7-0.1,10.5-0.4c1.9-1.8,3.7-3.8,5.2-6c-0.5,0-1,0.1-1.5,0.1
					c-3,0.3-6,0.4-8.9,0.5C260.7,84.6,253.9,84.3,247.2,83.5z"/>
				<path fill="#5D297B" d="M232.8,31.2c0-0.9,0.1-1.8,0.1-2.7c-0.2,0.3-0.4,0.6-0.5,1c-0.2,0.3-0.3,0.7-0.5,1
					c-0.6,1.1-1.2,2.2-1.7,3.4c-1.2,2.5-2.4,5.1-3.5,7.6c-0.7,1.5-1.3,3.1-1.9,4.6c-0.7,1.8-1.3,3.6-2,5.3c-0.1,0.3-0.2,0.7-0.4,1.1
					c-1.3,4-2.5,8-3.5,12c-0.1,0.4-0.2,0.7-0.3,1.1c-0.5,2.1-0.9,4.2-1.3,6.3c-0.1,0.4-0.2,0.8-0.2,1.3c-0.2,1.2-0.4,2.3-0.6,3.5
					c-0.3,2-0.6,4-0.8,6c-2.3-0.8-4.5-1.6-6.7-2.5c0.3,0.6,0.7,1.2,1.1,1.8c0.6,0.2,1.2,0.5,1.8,0.7c1.2,0.5,2.5,0.9,3.7,1.3
					c-0.1,0.7-0.1,1.5-0.2,2.2c-0.1,0.8-0.1,1.6-0.2,2.3c0.3,0.3,0.6,0.7,1,1C217.4,69.8,223,49.9,232.8,31.2z"/>
				<path fill="#86288F" d="M222.6,86.1C222.6,86.1,222.6,86.1,222.6,86.1c0-0.5,0.1-0.9,0.1-1.4c1.5,0.4,3,0.8,4.5,1.2
					c2.4,0.6,4.9,1.1,7.4,1.6c1.3-1.8,2.5-3.6,3.9-5.3c-0.6-0.1-1.2-0.2-1.8-0.3c-2.9-0.5-5.7-1.2-8.5-1.9c-1.1-0.3-2.1-0.5-3.2-0.8
					c-0.5-0.2-1.1-0.3-1.6-0.5c0-0.2,0.1-0.4,0.1-0.7c0.1-0.4,0.1-0.8,0.2-1.3c0.3-2.1,0.7-4.3,1.2-6.4c0,0,0,0,0,0
					c0.4-1.9,0.8-3.8,1.3-5.7c0.9-3.4,1.9-6.8,3-10.2c0.1-0.4,0.2-0.7,0.4-1.1c0.6-1.8,1.3-3.6,2-5.4c0.5,0.1,1,0.3,1.5,0.4
					c-0.1-1-0.1-1.9-0.2-2.9c-0.1-0.1-0.2-0.1-0.3-0.2c0.1-0.2,0.2-0.4,0.2-0.6c-0.2-4.5-0.2-9,0-13.6
					c-9.8,18.7-15.3,38.6-16.5,58.3c1.8,1.7,3.7,3.3,5.8,4.7c0-0.4,0-0.9,0-1.3c0-0.3,0-0.7,0-1C222.3,89.9,222.4,88,222.6,86.1z"/>
				<path fill="#86288F" d="M239.5,30.5c0.5-1,1.1-2,1.6-3c1.5-2.7,3.2-5.5,4.9-8.1c-2-0.1-3.9,0-5.8,0.2
					C239.9,23.3,239.7,26.9,239.5,30.5z"/>
				<path fill="#FAAF40" d="M239.3,83.1c-0.1-0.5-0.3-0.9-0.4-1.4c-0.1,0.2-0.3,0.4-0.4,0.5c-1.3,1.7-2.6,3.5-3.9,5.3
					c-0.9,1.3-1.7,2.5-2.6,3.8c-1.1,1.6-2.1,3.3-3.1,5c0,0.1-0.1,0.1-0.1,0.2c-0.2,0.3-0.4,0.7-0.6,1c0.4,0.2,0.7,0.3,1.1,0.5
					C232.3,92.8,235.7,87.9,239.3,83.1z"/>
				<path fill="#FAAF40" d="M279.2,46.3c-0.5,0.3-1,0.6-1.5,0.9c-0.5,0.3-0.9,0.6-1.4,0.9c-1.4,0.9-2.7,1.8-4.1,2.7
					c-1.1,0.7-2.1,1.4-3.1,2.2c-2.6,1.9-5.1,3.8-7.6,5.8c-0.4,0.4-0.9,0.7-1.3,1.1c-1.5,1.2-3,2.5-4.4,3.8c-0.4,0.3-0.7,0.6-1.1,1
					c-1.7,1.6-3.4,3.2-5,4.8c-0.4,0.4-0.9,0.9-1.3,1.3c-1.4,1.4-2.7,2.9-4,4.3c0.1,0.5,0.2,0.9,0.4,1.3c10.5-12,23.2-22.5,37.9-31
					c-0.1-0.3-0.3-0.7-0.4-1C281.3,45,280.2,45.6,279.2,46.3z"/>
				<path fill="#F9EC31" d="M237.2,96.6c1.4-2.2,2.9-4.4,4.5-6.6c-0.8-2.3-1.6-4.6-2.3-6.9c-3.7,4.8-7,9.7-10,14.9
					c1.4,0.6,2.8,1.1,4.3,1.5c0.5,0.1,1,0.3,1.5,0.4c0.2-0.3,0.4-0.7,0.6-1c0,0,0,0,0,0C236.3,98.1,236.7,97.4,237.2,96.6z"/>
				<path fill="#F9EC31" d="M244.8,76.4c0.6,2.3,1.3,4.6,2,6.8c2.7-3.3,5.5-6.4,8.5-9.5c2-2,4-3.9,6.1-5.8c0.2-0.2,0.4-0.4,0.6-0.6
					c0.4-0.3,0.8-0.7,1.1-1c1.8-1.6,3.6-3.1,5.5-4.6c0.7-0.6,1.4-1.1,2.1-1.7c0.5-0.4,1-0.8,1.6-1.2c3.1-2.3,6.3-4.5,9.6-6.6
					c0.4-0.3,0.9-0.6,1.3-0.8c0.3-0.2,0.7-0.4,1-0.6c-0.4-1.8-1-3.7-1.7-5.4C268.1,53.9,255.3,64.4,244.8,76.4z"/>
				<path fill="#9D1522" d="M234.7,20.6c-0.4,0.1-0.7,0.2-1.1,0.3c0,0.3-0.1,0.7-0.1,1c0,0.1,0,0.1,0,0.2c0,0.4-0.1,0.8-0.1,1.2
					c-0.2,1.7-0.3,3.4-0.4,5.1c-0.1,0.9-0.1,1.8-0.1,2.7c-0.2,4.6-0.2,9.1,0,13.6c0,0.3,0,0.5,0,0.8c0,1,0.1,1.9,0.2,2.9
					c0.1,2,0.3,4.1,0.5,6.1c0,0.4,0.1,0.8,0.1,1.2c0.3,3,0.8,6,1.3,9c0.3,1.9,0.7,3.9,1.1,5.8c0.1,0.4,0.2,0.8,0.3,1.1
					c0.2,1.1,0.5,2.1,0.7,3.2c0.6,2.3,1.2,4.7,1.9,7c0.1,0.5,0.3,0.9,0.4,1.4c0.7,2.3,1.5,4.6,2.3,6.9c0.4,1.1,0.8,2.2,1.3,3.3
					c0.7,1.9,1.5,3.7,2.3,5.6c0.1,0.3,0.3,0.6,0.4,0.9c0.2,0.4,0.3,0.7,0.5,1.1c0.4,0,0.8,0,1.2-0.1C236.3,77,231.7,49.3,234.7,20.6
					z"/>
				<path fill="#BE1E2D" d="M251,94.2c-0.2-0.5-0.4-1-0.6-1.6c-0.2-0.6-0.5-1.1-0.7-1.7c-0.2-0.5-0.4-0.9-0.5-1.4
					c-0.8-2-1.5-4-2.2-6.1c0-0.1-0.1-0.2-0.1-0.3c-0.7-2.3-1.4-4.5-2-6.8c-0.1-0.4-0.2-0.9-0.4-1.3c-0.3-1.3-0.6-2.5-0.9-3.8
					c0-0.2-0.1-0.4-0.1-0.5c-1-4.4-1.8-8.8-2.5-13.4c-0.1-0.4-0.1-0.8-0.2-1.2c-0.3-2-0.5-4.1-0.7-6.1c0-0.1,0-0.2,0-0.3
					c-0.4-4-0.6-8.1-0.6-12.1c0-1.1,0-2.1,0-3.2c0-0.4,0-0.8,0-1.3c12.8,6.4,26.2,10.8,39.7,13.1c1-0.6,2.1-1.3,3.1-1.9
					c-0.6-1.4-1.2-2.7-1.9-4c-2.6-0.4-5.2-1-7.7-1.5c-2.2-0.5-4.4-1.1-6.6-1.7c-1.8-0.5-3.6-1-5.4-1.6c-2.7-0.9-5.4-1.9-8.1-2.9
					c-1.7-0.7-3.5-1.4-5.2-2.2c-2.1-0.9-4.1-1.9-6.1-2.9c0,0-0.1,0-0.1,0c-0.6,1-1.1,2-1.6,3c0.1-3.6,0.4-7.2,0.7-10.9
					c-1.9,0.2-3.8,0.6-5.6,1c-3,28.6,1.6,56.4,12.8,80.2c2.1-0.1,4.2-0.4,6.2-0.9c-0.2-0.3-0.3-0.7-0.5-1c-0.3-0.7-0.6-1.4-0.9-2.1
					C251.7,96,251.4,95.1,251,94.2z"/>
			</g>
		</g>
	</g>
</g>
<g id="Right_Pink_and_Blue_Post_its">
</g>
<g id="Left_Pink_Post_it">
</g>
<g id="Yellow_Post_it">
</g>
<g id="Keyboard">
</g>
<g id="Header">
</g>
<g id="Header_Buttons">
</g>
<g id="Progress_Indicator_1_">
</g>
<g id="Title">
</g>
<g id="Problem_Screen">
</g>
<g id="Solution_Screen" display="none">
</g>
<g id="Isadora_Screen" display="none">
</g>
</svg>
