<?xml version="1.0" encoding="utf-8"?>
<!-- Generator: Adobe Illustrator 19.2.0, SVG Export Plug-In . SVG Version: 6.00 Build 0)  -->
<!DOCTYPE svg PUBLIC "-//W3C//DTD SVG 1.1//EN" "http://www.w3.org/Graphics/SVG/1.1/DTD/svg11.dtd">
<svg version="1.1" xmlns="http://www.w3.org/2000/svg" xmlns:xlink="http://www.w3.org/1999/xlink" x="0px" y="0px"
	 viewBox="0 0 256.3 153.2" enable-background="new 0 0 256.3 153.2" xml:space="preserve" width="256.3" height="153.2" preserveAspectRatio="none">
<g id="BG">
</g>
<g id="Desk_Background">
</g>
<g id="Right_Stack_of_Books">
	<g>
		<path opacity="0.5" fill="#8D5424" d="M13.5,100L1,104l135.5,48l107.1-26.1c0,0,6.1-1.1,7.4-1.5c0.7-0.2,1.3-0.5,1.2-0.9
			c0-0.4-0.6-0.8-1.2-1.2c-1.1-0.6-7.5-2.5-7.5-2.5L134.7,90.3L13.5,100z"/>
		<g>
			<path fill="#29B473" d="M234.1,80c0,0,7.7,6.9,7.7,17.7c0,10.7-6.9,20.7-6.9,20.7l-96.8,20L33.3,103.6L13.7,70.1l106.7-20.7
				L234.1,80z"/>
			<path fill="#009868" d="M234.1,80c0,0,7.7,6.9,7.7,17.7c0,10.7-6.9,20.7-6.9,20.7l-96.8,20L12.2,101.5l0.3-6.1l2.8,0.6V77.5
				L13,76.9l0.8-6.8l120.6,33.8L234.1,80z"/>
			<path fill="#E4D5A3" d="M15.3,77.5v18.6l122.4,35.5l92.4-18c0,0,6.1-5.8,6.1-14.5c0-8.7-4.4-12.2-4.4-12.2l-97.1,24.1L15.3,77.5z
				"/>
			<path fill="#AFA580" d="M137.7,131.5L15.3,96.1V77.5l119.5,33.4c0,0,4.4,4.4,4.4,10.2C139.1,126.9,137.7,131.5,137.7,131.5z"/>
			<g opacity="0.5">
				<path fill="#AFA580" d="M232,93.1c-7.8,2.1-15.6,4.1-23.4,6.2l-11.7,3l-11.7,3c-7.8,2-15.6,4-23.5,5.9l-23.5,5.8l-0.2,0.1
					l-0.2-0.1c-4.7-1.3-9.5-2.6-14.2-4l-14.2-4l-28.3-8.1l-28.3-8.3l-14.1-4.2c-4.7-1.4-9.4-2.8-14.1-4.3c4.8,1.2,9.5,2.4,14.3,3.7
					l14.2,3.8l28.4,7.7l28.4,7.9l14.2,3.9c4.7,1.3,9.4,2.7,14.2,4l-0.5,0l23.5-5.7c7.8-1.9,15.7-3.8,23.5-5.6l11.8-2.8l11.8-2.7
					C216.3,96.7,224.2,94.9,232,93.1z"/>
			</g>
			<g opacity="0.5">
				<path fill="#AFA580" d="M224,100.4c-7,1.9-14.1,3.7-21.1,5.6c-7,1.9-14.1,3.6-21.1,5.4c-7.1,1.8-14.1,3.6-21.2,5.3l-21.2,5.2
					l-0.2,0.1l-0.2-0.1l-14.9-4.3l-14.9-4.4l-29.8-8.7l-29.7-8.9c-5-1.5-9.9-3-14.9-4.5c-4.9-1.5-9.9-3-14.8-4.6c5,1.3,10,2.7,15,4
					c5,1.4,10,2.7,15,4.1l29.9,8.3l29.9,8.5l14.9,4.3l14.9,4.4l-0.5,0l21.2-5.1c7.1-1.7,14.2-3.3,21.3-5c7.1-1.6,14.2-3.3,21.3-4.9
					C209.8,103.6,216.9,102,224,100.4z"/>
			</g>
			<g opacity="0.5">
				<path fill="#AFA580" d="M229.8,104.1c0,0-1.3,0.3-3.6,0.9c-2.3,0.6-5.6,1.4-9.6,2.4c-4,0.9-8.6,2.1-13.6,3.3
					c-5,1.2-10.3,2.4-15.6,3.6c-5.3,1.2-10.6,2.4-15.6,3.5c-5,1.1-9.6,2.1-13.6,3c-4,0.8-7.3,1.5-9.7,2c-2.3,0.5-3.7,0.7-3.7,0.7
					s1.3-0.3,3.6-0.9c2.3-0.6,5.6-1.4,9.6-2.4c4-0.9,8.6-2.1,13.6-3.3c5-1.2,10.3-2.4,15.6-3.6c5.3-1.2,10.6-2.4,15.6-3.5
					c5-1.1,9.6-2.1,13.6-3c4-0.8,7.3-1.5,9.7-2C228.5,104.4,229.8,104.1,229.8,104.1z"/>
			</g>
			<g opacity="0.5">
				<path fill="#AFA580" d="M233.1,107.4c0,0-1.3,0.4-3.6,1c-2.3,0.6-5.6,1.5-9.6,2.5c-4,1-8.6,2.2-13.5,3.3
					c-5,1.2-10.3,2.4-15.6,3.6c-5.3,1.2-10.6,2.4-15.6,3.5c-5,1.1-9.7,2-13.6,2.9c-4,0.8-7.3,1.5-9.7,1.9c-2.3,0.4-3.7,0.7-3.7,0.7
					s1.3-0.4,3.6-1c2.3-0.6,5.6-1.5,9.6-2.5c4-1,8.6-2.2,13.5-3.3c5-1.2,10.3-2.4,15.6-3.6c5.3-1.2,10.6-2.4,15.6-3.5
					c5-1.1,9.7-2,13.6-2.9c4-0.8,7.3-1.5,9.7-1.9C231.8,107.6,233.1,107.4,233.1,107.4z"/>
			</g>
			<g opacity="0.5">
				<path fill="#AFA580" d="M101.3,115c0,0-1.3-0.4-3.6-1c-2.3-0.6-5.6-1.5-9.5-2.7c-3.9-1.1-8.5-2.4-13.4-3.9
					c-4.9-1.4-10.1-3-15.3-4.6c-5.2-1.6-10.4-3.2-15.2-4.8c-4.9-1.6-9.4-3.1-13.3-4.4c-3.9-1.3-7.1-2.4-9.3-3.2
					c-2.2-0.8-3.5-1.2-3.5-1.2s1.3,0.4,3.6,1c2.3,0.6,5.6,1.5,9.5,2.7c3.9,1.1,8.5,2.4,13.4,3.9c4.9,1.4,10.1,3,15.3,4.6
					c5.2,1.6,10.4,3.2,15.2,4.8c4.9,1.6,9.4,3.1,13.3,4.4c3.9,1.3,7.1,2.4,9.3,3.2C100,114.5,101.3,115,101.3,115z"/>
			</g>
			<g opacity="0.5">
				<path fill="#AFA580" d="M134,127.8c0,0-1.3-0.3-3.6-0.9c-2.3-0.6-5.6-1.5-9.5-2.6c-3.9-1.1-8.5-2.4-13.4-3.8
					c-4.9-1.4-10.1-3-15.3-4.5c-5.2-1.6-10.4-3.2-15.3-4.7c-4.9-1.5-9.4-3-13.3-4.3c-3.9-1.2-7.1-2.4-9.4-3.1
					c-2.3-0.8-3.5-1.2-3.5-1.2s1.3,0.3,3.6,0.9c2.3,0.6,5.6,1.5,9.5,2.6c3.9,1.1,8.5,2.4,13.4,3.8c4.9,1.4,10.1,3,15.3,4.5
					c5.2,1.6,10.4,3.2,15.3,4.7c4.9,1.5,9.4,3,13.3,4.3c3.9,1.2,7.1,2.4,9.4,3.1C132.7,127.4,134,127.8,134,127.8z"/>
			</g>
		</g>
		<g>
			<path fill="#772B8F" d="M55.5,45.7l87.1-15.9l81.9,24.5c0,0,3.8,2.4,3.2,9.6c-0.6,7-4.7,8.6-4.7,8.6L132,93.3l-75.9-27
				C55.9,59.6,57,52.8,55.5,45.7z"/>
			<path fill="#9D3E96" d="M224.6,54.3c0,0,0.9,0.6,1.8,2l-9.7,2.1c1,1.7,2.2,4.9,0.8,9.9c-0.8,2.9-1.7,4.8-2.6,6.1l-7.9,1.8
				c0.8-1.8,2-4.8,2.1-7.9c0.2-3.1-0.8-6.1-1.5-7.9l-52.4,11.4c1.3,1.3,3.8,4.7,2.6,10.7c-0.5,2.4-1.1,4.1-1.8,5.4l-8.4,1.9
				c0.6-1.8,1.3-4.5,1.2-7.2c-0.1-3.7-2-7.2-2.9-8.7l-15.1,3.3c0,0,2.1,5.2,2.8,9.7c0.4,2.3-0.7,4.7-1.8,6.5L46.3,62.9l-1.4-4.1
				l2.7,0.8l-2.1-7.3L43,51l-0.8-2.8l100.4-18.4L224.6,54.3z"/>
			<path fill="#AFA580" d="M125.6,77.7L45.6,52.2l1.9,7.5l79.5,28.9c0,0,1.6,0.6,1.7-3.6C128.8,80.8,125.6,77.7,125.6,77.7z"/>
			<g opacity="0.5">
				<path fill="#AFA580" d="M123.1,79.7c0,0-1.1-0.3-3.1-0.9c-1.9-0.6-4.7-1.4-8.1-2.5c-3.3-1-7.2-2.2-11.4-3.6
					c-4.2-1.3-8.6-2.8-13-4.2c-4.4-1.5-8.8-2.9-13-4.3c-4.1-1.4-8-2.7-11.3-3.9c-3.3-1.1-6-2.1-8-2.8c-1.9-0.7-3-1.1-3-1.1
					s1.1,0.3,3.1,0.9c1.9,0.6,4.7,1.4,8.1,2.4c3.3,1,7.2,2.2,11.4,3.6c4.2,1.3,8.6,2.8,13,4.2c4.4,1.5,8.8,2.9,13,4.3
					c4.1,1.4,8,2.7,11.3,3.9c3.3,1.1,6,2.1,8,2.8C122,79.3,123.1,79.7,123.1,79.7z"/>
			</g>
			<g opacity="0.5">
				<path fill="#AFA580" d="M125.8,82.8c0,0-1.1-0.3-3-0.9c-1.9-0.6-4.7-1.4-8-2.4c-3.3-1-7.2-2.2-11.3-3.5
					c-4.1-1.3-8.5-2.7-12.9-4.1c-4.4-1.4-8.7-2.9-12.8-4.2c-4.1-1.3-7.9-2.7-11.2-3.8c-3.3-1.1-6-2.1-7.9-2.8c-1.9-0.7-3-1.1-3-1.1
					s1.1,0.3,3,0.9c1.9,0.6,4.7,1.4,8,2.4c3.3,1,7.2,2.2,11.3,3.5c4.1,1.3,8.5,2.7,12.9,4.1c4.4,1.4,8.7,2.9,12.8,4.2
					c4.1,1.4,7.9,2.7,11.2,3.8c3.3,1.1,6,2.1,7.9,2.8C124.7,82.4,125.8,82.8,125.8,82.8z"/>
			</g>
			<g opacity="0.5">
				<path fill="#AFA580" d="M122.5,84.9c0,0-1.1-0.3-3-0.9c-1.9-0.6-4.6-1.5-7.9-2.6c-3.3-1.1-7.1-2.3-11.1-3.7
					c-4.1-1.4-8.4-2.9-12.7-4.4c-4.3-1.5-8.6-3.1-12.7-4.5c-4.1-1.4-7.8-2.8-11-4c-3.2-1.2-5.9-2.2-7.8-2.9
					c-1.9-0.7-2.9-1.1-2.9-1.1s1.1,0.3,3,0.9c1.9,0.6,4.6,1.5,7.9,2.6c3.3,1.1,7.1,2.3,11.1,3.7c4.1,1.4,8.4,2.9,12.7,4.4
					c4.3,1.5,8.6,3.1,12.7,4.5c4.1,1.4,7.8,2.8,11,4c3.2,1.2,5.9,2.2,7.8,2.9C121.4,84.5,122.5,84.9,122.5,84.9z"/>
			</g>
		</g>
		<g>
			<path fill="#F05A28" d="M210.9,23.7c0,0,5,5.1,4.2,13c-0.8,8-6.4,15.4-6.4,15.4l-70.1,15.1L66.6,42L55.1,17.2l77.3-15.7
				L210.9,23.7z"/>
			<path fill="#C3333D" d="M210.9,23.7c0,0,5,5.1,4.2,13c-0.8,8-6.4,15.4-6.4,15.4l-70.1,15.1L51.7,40.5l0.6-4.5l2,0.4l1.3-13.8
				L54,22.2l1-5.1l83.2,24.5L210.9,23.7z"/>
			<path fill="#E4D5A3" d="M55.7,22.7l-1.3,13.8l84.4,25.8l66.9-13.7c0,0,4.8-4.3,5.4-10.8c0.6-6.5-2.2-9-2.2-9l-70.7,18.2
				L55.7,22.7z"/>
			<path fill="#AFA580" d="M138.7,62.2L54.3,36.4l1.3-13.8l82.5,24.3c0,0,2.8,3.2,2.4,7.5C140.1,58.8,138.7,62.2,138.7,62.2z"/>
			<g opacity="0.5">
				<path fill="#AFA580" d="M208.5,33.4c-5.7,1.6-11.3,3.2-17,4.8c-2.8,0.8-5.7,1.5-8.5,2.3l-8.5,2.3c-5.7,1.5-11.4,3.1-17.1,4.5
					l-17.1,4.4l-0.3,0.1l-0.3-0.1c-3.3-1-6.5-1.9-9.8-2.9l-9.8-2.9l-19.5-5.9L81.2,34l-9.7-3.1c-3.2-1-6.5-2.1-9.7-3.2
					c3.3,0.8,6.6,1.7,9.9,2.6l9.9,2.7l19.7,5.5l19.6,5.7l9.8,2.8c3.3,0.9,6.5,1.9,9.8,2.9l-0.5,0l17.1-4.3
					c5.7-1.4,11.4-2.8,17.2-4.2l8.6-2.1c2.9-0.7,5.7-1.4,8.6-2C197,36,202.7,34.7,208.5,33.4z"/>
			</g>
			<g opacity="0.5">
				<path fill="#AFA580" d="M202.2,38.9c-5.1,1.5-10.2,2.9-15.3,4.3l-7.7,2.1l-7.7,2.1l-15.4,4.1l-15.4,4l-0.3,0.1l-0.3-0.1
					l-10.3-3.1l-10.3-3.2c-6.9-2.1-13.7-4.3-20.5-6.4c-6.8-2.2-13.7-4.3-20.5-6.6l-10.2-3.4c-3.4-1.1-6.8-2.3-10.2-3.4
					c3.5,0.9,6.9,1.9,10.4,2.8l10.4,2.9c6.9,2,13.8,4,20.7,6c6.9,2,13.7,4.1,20.6,6.2l10.3,3.1l10.3,3.2l-0.5,0l15.5-3.8l15.5-3.7
					l7.7-1.8l7.8-1.8C191.9,41.2,197,40,202.2,38.9z"/>
			</g>
			<g opacity="0.5">
				<path fill="#AFA580" d="M206.1,41.5c0,0-1,0.3-2.6,0.7c-1.7,0.4-4.1,1.1-6.9,1.8c-2.9,0.7-6.2,1.6-9.8,2.5
					c-3.6,0.9-7.5,1.8-11.3,2.8c-3.9,0.9-7.7,1.8-11.3,2.6c-3.6,0.8-7,1.6-9.9,2.2c-2.9,0.6-5.3,1.1-7,1.5c-1.7,0.3-2.7,0.5-2.7,0.5
					s1-0.3,2.6-0.7c1.7-0.4,4.1-1.1,6.9-1.8c2.9-0.7,6.2-1.6,9.8-2.5c3.6-0.9,7.5-1.8,11.3-2.8c3.9-0.9,7.7-1.8,11.3-2.6
					c3.6-0.8,7-1.6,9.9-2.2c2.9-0.6,5.3-1.1,7-1.5C205.1,41.7,206.1,41.5,206.1,41.5z"/>
			</g>
			<g opacity="0.5">
				<path fill="#AFA580" d="M208.2,44c0,0-1,0.3-2.6,0.8c-1.7,0.5-4,1.2-6.9,1.9c-2.9,0.8-6.2,1.7-9.8,2.6
					c-3.6,0.9-7.5,1.8-11.3,2.8c-3.9,0.9-7.7,1.8-11.3,2.6c-3.6,0.8-7,1.5-9.9,2.1c-2.9,0.6-5.4,1-7.1,1.4c-1.7,0.3-2.7,0.5-2.7,0.5
					s1-0.3,2.6-0.8c1.7-0.5,4-1.2,6.9-1.9c2.9-0.8,6.2-1.7,9.8-2.6c3.6-0.9,7.5-1.8,11.3-2.8c3.9-0.9,7.7-1.8,11.3-2.6
					c3.6-0.8,7-1.5,9.9-2.1c2.9-0.6,5.4-1,7.1-1.4C207.2,44.1,208.2,44,208.2,44z"/>
			</g>
			<g opacity="0.5">
				<path fill="#AFA580" d="M114,50.1c0,0-0.9-0.2-2.5-0.7c-1.6-0.5-3.9-1.1-6.6-1.9c-2.7-0.8-5.9-1.7-9.2-2.8
					c-3.4-1-7-2.2-10.5-3.4c-3.6-1.2-7.1-2.4-10.5-3.5c-3.3-1.1-6.4-2.2-9.1-3.2c-2.7-1-4.8-1.8-6.4-2.4c-1.5-0.6-2.4-0.9-2.4-0.9
					s0.9,0.2,2.5,0.7c1.6,0.5,3.9,1.1,6.6,1.9c2.7,0.8,5.9,1.7,9.2,2.8c3.4,1,7,2.2,10.5,3.4c3.6,1.2,7.1,2.4,10.5,3.5
					c3.3,1.1,6.4,2.2,9.1,3.2c2.7,1,4.8,1.8,6.4,2.4C113.2,49.7,114,50.1,114,50.1z"/>
			</g>
			<g opacity="0.5">
				<path fill="#AFA580" d="M136.3,59.5c0,0-0.9-0.2-2.5-0.6c-1.6-0.4-3.9-1-6.6-1.8c-2.7-0.8-5.9-1.7-9.3-2.7
					c-3.4-1-7-2.1-10.6-3.3c-3.6-1.2-7.2-2.3-10.5-3.4c-3.3-1.1-6.5-2.2-9.1-3.1c-2.7-0.9-4.9-1.8-6.4-2.3c-1.5-0.6-2.4-0.9-2.4-0.9
					s0.9,0.2,2.5,0.6c1.6,0.4,3.9,1,6.6,1.8c2.7,0.8,5.9,1.7,9.3,2.7c3.4,1,7,2.1,10.6,3.3c3.6,1.2,7.2,2.3,10.5,3.4
					c3.3,1.1,6.5,2.2,9.1,3.1c2.7,0.9,4.9,1.8,6.4,2.3C135.4,59.1,136.3,59.5,136.3,59.5z"/>
			</g>
		</g>
	</g>
</g>
<g id="Left_Blue_Book">
</g>
<g id="White_Frame_Drop_Shadow">
</g>
<g id="White_Frame_BG">
</g>
<g id="Submit_Button_1_">
</g>
<g id="Left_Tool_Bar_Tab">
</g>
<g id="Right_Info_Tab">
</g>
<g id="Top_Tab">
</g>
<g id="Left_Tools">
</g>
<g id="MsQ_x27_s_Specs">
</g>
<g id="Red_x2F_Blue_Pen">
</g>
<g id="Coffee_Pencil_x2F_Postit_Rubberband_Ball">
</g>
<g id="Right_Pink_and_Blue_Post_its">
</g>
<g id="Left_Pink_Post_it">
</g>
<g id="Yellow_Post_it">
</g>
<g id="Keyboard">
</g>
<g id="Header">
</g>
<g id="Header_Buttons">
</g>
<g id="Progress_Indicator_1_">
</g>
<g id="Title">
</g>
<g id="Problem_Screen">
</g>
<g id="Solution_Screen" display="none">
</g>
<g id="Isadora_Screen" display="none">
</g>
</svg>
