<?xml version="1.0" encoding="utf-8"?>
<!-- Generator: Adobe Illustrator 19.2.0, SVG Export Plug-In . SVG Version: 6.00 Build 0)  -->
<!DOCTYPE svg PUBLIC "-//W3C//DTD SVG 1.1//EN" "http://www.w3.org/Graphics/SVG/1.1/DTD/svg11.dtd">
<svg version="1.1" xmlns="http://www.w3.org/2000/svg" xmlns:xlink="http://www.w3.org/1999/xlink" x="0px" y="0px"
	 viewBox="0 0 217.5 91.5" enable-background="new 0 0 217.5 91.5" xml:space="preserve" width="217.5" height="91.5" preserveAspectRatio="none">
<g id="BG">
</g>
<g id="Desk_Background">
</g>
<g id="Right_Stack_of_Books">
</g>
<g id="Left_Blue_Book">
	<g>
		<polygon opacity="0.5" fill="#8D5424" points="195,47 178.8,42.4 139.9,47.4 87.5,64.8 87,66.3 42.4,55 6.8,57 1.3,59.8 
			97.5,89.9 217.2,55.1 		"/>
		<g>
			<path fill="#0D56A7" d="M8.3,24.6c0,0-6.9,5.9-7.2,15.4c-0.3,9.5,5.3,18.5,5.3,18.5L89.5,79l91.7-27.5l18-29.1L107.5,0.9
				L8.3,24.6z"/>
			<path fill="#063272" d="M8.3,24.6c0,0-6.9,5.9-7.2,15.4c-0.3,9.5,5.3,18.5,5.3,18.5L89.5,79l110.1-28.8l-0.1-5.4l-2.4,0.4
				l0.6-16.4l2-0.4l-0.4-6.1L93.9,48.6L8.3,24.6z"/>
			<path fill="#E4D5A3" d="M197.6,28.9l-0.6,16.4L90.1,73L10.7,54.3c0,0-5.1-5.3-4.8-13C6.1,33.6,10,30.6,10,30.6l83.3,24.2
				L197.6,28.9z"/>
			<path fill="#AFA580" d="M90.1,73l107-27.7l0.6-16.4L93.3,54.8c0,0-3.9,3.7-4.1,8.9C89,68.8,90.1,73,90.1,73z"/>
			<g opacity="0.5">
				<path fill="#AFA580" d="M9.7,36.2c6.8,1.7,13.5,3.6,20.3,5.4l10.1,2.8l10.1,2.8c6.7,1.8,13.5,3.7,20.2,5.6l20.2,5.7l-0.5,0
					c4.1-1,8.2-2.1,12.4-3.1l12.4-3l24.8-6.1l24.8-5.9l12.4-2.9c4.1-1,8.3-1.9,12.5-2.8c-4.1,1.1-8.2,2.3-12.3,3.4l-12.3,3.3
					l-24.7,6.5l-24.7,6.3l-12.4,3.1c-4.1,1.1-8.3,2-12.4,3.1l-0.3,0.1l-0.2-0.1l-20.1-5.9c-6.7-1.9-13.4-3.9-20.1-6l-10-3l-10-3
					C23,40.4,16.3,38.4,9.7,36.2z"/>
			</g>
			<g opacity="0.5">
				<path fill="#AFA580" d="M16.4,42.9c6.1,1.6,12.2,3.2,18.3,4.8c6.1,1.6,12.2,3.3,18.3,4.9c6.1,1.7,12.2,3.3,18.2,5l18.2,5.1
					l-0.5,0l13-3.4l13-3.3l26.1-6.6l26.1-6.4c4.4-1.1,8.7-2.1,13.1-3.1c4.4-1,8.7-2.1,13.1-3.1c-4.3,1.2-8.6,2.5-13,3.7
					c-4.3,1.2-8.6,2.4-13,3.6l-26,7l-26,6.8l-13,3.4l-13,3.3l-0.3,0.1l-0.2-0.1l-18.2-5.3c-6.1-1.7-12.1-3.6-18.1-5.4
					c-6-1.8-12.1-3.6-18.1-5.4C28.5,46.7,22.4,44.8,16.4,42.9z"/>
			</g>
			<g opacity="0.5">
				<path fill="#AFA580" d="M11.2,46c0,0,1.1,0.3,3.2,0.8c2,0.5,4.9,1.2,8.3,2c3.4,0.9,7.4,1.9,11.7,3c4.3,1.1,8.8,2.3,13.4,3.5
					c4.5,1.2,9.1,2.5,13.4,3.7c4.3,1.2,8.2,2.3,11.6,3.3c3.4,1,6.2,1.8,8.2,2.4c2,0.6,3.1,0.9,3.1,0.9s-1.1-0.3-3.2-0.8
					c-2-0.5-4.9-1.2-8.3-2c-3.4-0.9-7.4-1.9-11.7-3c-4.3-1.1-8.8-2.3-13.4-3.5c-4.5-1.3-9.1-2.5-13.4-3.7c-4.3-1.2-8.2-2.3-11.6-3.3
					c-3.4-1-6.2-1.8-8.2-2.4C12.4,46.3,11.2,46,11.2,46z"/>
			</g>
			<g opacity="0.5">
				<path fill="#AFA580" d="M8.3,48.8c0,0,1.2,0.3,3.2,0.7c2,0.5,4.9,1.1,8.3,2c3.4,0.9,7.4,1.8,11.7,2.9c4.3,1.1,8.8,2.3,13.4,3.5
					c4.5,1.2,9.1,2.5,13.3,3.7c4.3,1.2,8.2,2.4,11.6,3.4c3.4,1,6.2,1.9,8.2,2.5c2,0.6,3.1,1,3.1,1S80,68.2,78,67.7
					c-2-0.5-4.9-1.1-8.3-2c-3.4-0.9-7.4-1.8-11.7-2.9c-4.3-1.1-8.8-2.3-13.4-3.5c-4.5-1.2-9.1-2.5-13.3-3.7
					c-4.3-1.2-8.2-2.4-11.6-3.4c-3.4-1-6.2-1.9-8.2-2.5C9.4,49.2,8.3,48.8,8.3,48.8z"/>
			</g>
			<g opacity="0.5">
				<path fill="#AFA580" d="M122.1,59.4c0,0,1.1-0.4,3.1-1c2-0.6,4.8-1.5,8.2-2.6c3.4-1,7.3-2.2,11.6-3.5c4.2-1.2,8.8-2.5,13.3-3.8
					c4.6-1.3,9.1-2.5,13.4-3.6c4.3-1.1,8.3-2.1,11.7-3c3.4-0.9,6.3-1.5,8.3-2c2-0.5,3.2-0.7,3.2-0.7s-1.1,0.4-3.1,1
					c-2,0.6-4.8,1.5-8.2,2.6c-3.4,1-7.3,2.2-11.6,3.5c-4.2,1.2-8.8,2.5-13.3,3.8c-4.6,1.3-9.1,2.5-13.4,3.6c-4.3,1.1-8.3,2.1-11.7,3
					c-3.4,0.9-6.3,1.5-8.3,2C123.3,59.2,122.1,59.4,122.1,59.4z"/>
			</g>
			<g opacity="0.5">
				<path fill="#AFA580" d="M93.5,69.8c0,0,1.1-0.4,3.1-1c2-0.6,4.8-1.5,8.2-2.5c3.4-1,7.4-2.2,11.6-3.4c4.3-1.2,8.8-2.5,13.4-3.7
					c4.6-1.2,9.1-2.4,13.4-3.5c4.3-1.1,8.3-2.1,11.7-2.9c3.4-0.9,6.3-1.5,8.3-2c2-0.4,3.2-0.7,3.2-0.7s-1.1,0.4-3.1,1
					c-2,0.6-4.8,1.5-8.2,2.5c-3.4,1-7.4,2.2-11.6,3.4c-4.3,1.2-8.8,2.5-13.4,3.7c-4.6,1.2-9.1,2.4-13.4,3.5
					c-4.3,1.1-8.3,2.1-11.7,2.9c-3.4,0.9-6.3,1.5-8.3,2C94.6,69.5,93.5,69.8,93.5,69.8z"/>
			</g>
		</g>
	</g>
</g>
<g id="White_Frame_Drop_Shadow">
</g>
<g id="White_Frame_BG">
</g>
<g id="Submit_Button_1_">
</g>
<g id="Left_Tool_Bar_Tab">
</g>
<g id="Right_Info_Tab">
</g>
<g id="Top_Tab">
</g>
<g id="Left_Tools">
</g>
<g id="MsQ_x27_s_Specs">
</g>
<g id="Red_x2F_Blue_Pen">
</g>
<g id="Coffee_Pencil_x2F_Postit_Rubberband_Ball">
</g>
<g id="Right_Pink_and_Blue_Post_its">
</g>
<g id="Left_Pink_Post_it">
</g>
<g id="Yellow_Post_it">
</g>
<g id="Keyboard">
</g>
<g id="Header">
</g>
<g id="Header_Buttons">
</g>
<g id="Progress_Indicator_1_">
</g>
<g id="Title">
</g>
<g id="Problem_Screen">
</g>
<g id="Solution_Screen" display="none">
</g>
<g id="Isadora_Screen" display="none">
</g>
</svg>
