<svg width="210" height="200" xmlns="http://www.w3.org/2000/svg" xmlns:svg="http://www.w3.org/2000/svg" preserveAspectRatio="none">
 <g>
  <title>Layer 1</title>
  <g id="Layer_3"/>
  <rect stroke="#000000" id="svg_33" height="140.33333" width="176.00001" y="53.62267" x="37.83332" stroke-width="0" fill="#ffffff"/>
  <g stroke="null" id="Layer_2">
   <g stroke="null" id="svg_1">
    <path stroke="null" id="svg_2" d="m195.8,88.7c-10.7,1.7 -26.6,5.2 -49.3,12.1c-0.1,2.5 -0.4,4.9 -0.7,7.2c0.3,8.5 -1.4,16 -6,21.3c8.6,6.3 23.7,15.4 48.3,25c0.9,-2.1 1.8,-4.2 2.6,-6.6c7.1,-20.4 7.7,-40.1 5.1,-59z" fill="#2695E7"/>
    <path stroke="null" id="svg_3" d="m190.1,61.3c-2.6,-9.6 -5.6,-17.8 -8.8,-24.8c-10.4,2.5 -25.4,7.9 -42.1,21.7c4.6,11.6 7.9,28.1 7.3,42.5c22.7,-6.9 38.6,-10.3 49.3,-12.1c-1.2,-9.2 -3.3,-18.3 -5.7,-27.3z" fill="#F9DC6B"/>
    <path stroke="null" id="svg_4" d="m159.5,4.9c-0.2,-0.2 -0.4,-0.4 -0.6,-0.5c-0.2,-0.6 -0.6,-1.1 -1,-1.5c-3.8,-2.8 -14.3,4.9 -23.4,17.3c-3.9,5.2 -6.9,10.4 -8.8,14.9c1.8,2.3 6.7,8.9 11.2,17.9c0.8,1.6 1.6,3.4 2.4,5.3c16.7,-13.7 31.7,-19.2 42.1,-21.7c-8.3,-18.1 -17.6,-27.8 -21.9,-31.7z" fill="#2695E7"/>
    <ellipse stroke="null" id="svg_5" ry="27.9" rx="9.6" cy="165.7" cx="12.5" fill="#1B65A8"/>
    <path stroke="null" id="svg_6" d="m12.5,192.8c-4.3,0 -8.8,-10.9 -8.8,-27.1c0,-16 4.4,-26.7 8.6,-27.1l0,-2c0,0 0,0 0,0c-5.8,0.3 -9.6,12.9 -9.6,29s3.9,29.3 9.7,29.3c0.1,0 0.1,0 0.2,0l-0.1,-2.1c0,0 0,0 0,0z" fill="#F9DC6B"/>
    <path stroke="null" id="svg_7" d="m39.9,139.3c-15.7,-0.5 -26.9,-1.2 -26.9,-1.2c13.6,6.4 12.1,49.2 -0.2,55.8c2.8,-0.1 12.9,-0.5 26.2,-1c12.2,-20.1 7.9,-41 0.9,-53.6z" fill="#2695E7"/>
    <path stroke="null" id="svg_8" d="m123.7,137c-9.4,1.7 -22.7,2.4 -36.8,2.7c4.8,13.5 6.8,34.2 -0.8,51.4c17.4,-0.6 33.7,-1.2 43.7,-1.6c3.4,-19.4 -2.1,-40.6 -6.1,-52.5z" fill="#2695E7"/>
    <path stroke="null" id="svg_9" d="m127.7,136.1c-1.2,0.3 -2.6,0.6 -4,0.8c4,11.9 9.5,33.2 6.1,52.5c4,-0.1 7,-0.3 8.6,-0.3c4.5,-0.2 18.4,-3.8 24.1,-7c11.3,-6.3 19.2,-13.6 25.5,-28c-24.5,-9.6 -39.7,-18.7 -48.3,-25c-2.7,3.4 -6.7,5.8 -12,7z" fill="#F9DC6B"/>
    <path stroke="null" id="svg_10" d="m139.8,129.2c8.6,6.3 23.7,15.4 48.3,25c0.9,-2.1 1.8,-4.2 2.6,-6.6c7.2,-20.3 7.7,-40 5.2,-58.9c-10.9,1.8 -27.2,5.3 -50.6,12.4c1.4,11.2 0.3,21.4 -5.5,28.1z" fill="#2695E7"/>
    <path stroke="null" id="svg_11" d="m134.8,20.5c-4.4,5.9 -7.9,12 -9.7,17.2c-1.5,4.2 -1.8,7.4 -0.8,9l32.7,-43.7c-0.3,-0.1 -0.6,-0.2 -1,-0.2c-4.2,0 -12.7,6.3 -21.2,17.7z" fill="none"/>
    <path stroke="null" id="svg_12" d="m152,137.1c-3.1,7 -12,14.7 -20.9,18.9c0,0 -1.9,-10 -4.9,-16.8c0,0 13.3,-3.9 16.4,-8c2.1,1.6 7.8,4.9 9.4,5.9z" fill="#FFEB7A"/>
    <path stroke="null" id="svg_13" d="m41,141.4c0,0 4.5,7.6 5.5,19.7l-22.4,0.4c0,0 -2.9,-14.2 -4.6,-17.2c-1.7,-3 -1.6,-3.1 -1.6,-3.1l23.1,0.2z" fill="#36A9FF"/>
    <path stroke="null" id="svg_14" d="m92.7,160.8c0,0 22.2,-1 36.3,-3.8c0,0 -1.7,-9.3 -4.4,-17.3c-11.9,1.5 -21.9,2 -35.3,2.5c-0.1,-0.1 3.5,8.9 3.4,18.6z" fill="#36A9FF"/>
    <path stroke="null" id="svg_15" d="m152,134.6l-7.7,-5.6c0,0 3.9,-4.8 5.1,-18.8c2,9.9 2.8,16.7 2.6,24.4z" fill="#36A9FF"/>
    <path stroke="null" id="svg_16" d="m182.5,91.2l10.2,-2c0.5,2.3 1.6,17 -1.1,26.3c-3.1,-9.6 -6,-16.5 -9.1,-24.3z" fill="#36A9FF"/>
    <path stroke="null" id="svg_17" d="m153.6,2.6c0,0 13.1,8.8 23.6,32.9c0,0 -7,1.6 -14.4,5.8c0,0 -7.6,-16.9 -20.5,-30.2c0,0 5.4,-6.1 11.3,-8.5z" fill="#36A9FF"/>
    <path stroke="null" id="svg_18" d="m86.9,139.7c-16.1,0.3 -33.3,0 -47,-0.4c7,12.6 11.3,33.6 -0.9,53.6c13.7,-0.5 30.8,-1.1 47.1,-1.7c7.7,-17.3 5.6,-38 0.8,-51.5z" fill="#F9DC6B"/>
    <path stroke="null" id="svg_19" d="m43.2,141.4c0,0 2.6,4 4,9.9c1.2,5.1 1.6,10.4 1.6,10.4c12.6,-0.2 29,-0.6 42.4,-0.9c0,0 -0.9,-11.9 -3.5,-18.9l-44.5,-0.5z" fill="#FFEB7A"/>
    <path stroke="null" id="svg_20" d="m178.2,37.4c2.9,4.9 12.7,35.2 14.3,49.1c-6.7,1.4 -10.4,2.3 -10.4,2.3s-6.5,-24.4 -18.6,-46c6,-3.1 14.7,-5.4 14.7,-5.4z" fill="#FFEB7A"/>
    <path stroke="null" id="svg_21" d="m21.1,185.3l22,-0.4c-1.4,3.1 -2.8,5.9 -4.1,8l-24.4,0.9l6.5,-8.5z" fill="#1B72C4"/>
    <path stroke="null" id="svg_22" d="m12.3,136.6l0,2c0.1,0 0.1,0 0.2,0c4.3,0 8.8,10.9 8.8,27.1c0,16.1 -4.5,27 -8.8,27.1l0,2.1c6.8,-0.3 11.4,-10.7 11.9,-28.6c0.4,-16 -4.2,-30.1 -12.1,-29.7z" fill="#F9DC6B"/>
    <path stroke="null" id="svg_23" d="m17.5,139.4c0,0 -0.5,-0.1 -0.9,0.1c-0.4,0.1 -0.4,0.1 -0.4,0.1s5.8,6.2 6.1,23.2l1.5,0c-0.3,-7.4 -1.4,-16 -6.3,-23.4z" fill="#FFEB7A"/>
    <path stroke="null" id="svg_24" d="m43,184.9l45.9,-1.6c0,0 -1.3,4.7 -2.8,7.8l-47.1,1.9c1.6,-2.7 2.9,-5.4 4,-8.1z" fill="#DEBE5F"/>
    <path stroke="null" id="svg_25" d="m89,183.3c13.2,-0.4 27.8,-0.5 41.7,-1.8c-0.2,2.8 -0.5,5.5 -0.9,8.1l-43.7,1.5c0,0 2.4,-6.3 2.9,-7.8z" fill="#1B72C4"/>
    <path stroke="null" id="svg_26" d="m130.7,181.4c0,0 36.1,-0.6 52.7,-29l4.6,1.8c0,0 -11.5,35.4 -58.2,35.4c0,0 0.6,-5.2 0.9,-8.2z" fill="#DEBE5F"/>
    <path stroke="null" id="svg_27" d="m197.2,107.3c0,0 3.6,17.8 -13.7,45.1l4.6,1.8c0,0 10.3,-21.9 9.1,-46.9z" fill="#1B72C4"/>
    <path stroke="null" id="svg_28" d="m139.2,58.2c-1.6,1.4 -3.3,2.8 -5,4.3c5.1,11.1 9.2,25.8 10.9,38.6c0.4,-0.1 0.9,-0.3 1.3,-0.4c0.8,-14.3 -2.6,-30.9 -7.2,-42.5z" fill="#DEBE5F"/>
    <path stroke="null" id="svg_29" d="m145.2,101.1c0.3,2.3 0.5,4.6 0.6,6.8c0.4,-2.3 0.6,-4.7 0.7,-7.2c-0.4,0.2 -0.9,0.3 -1.3,0.4z" fill="#1B72C4"/>
    <path stroke="null" id="svg_30" d="m125.6,35c-2.6,6.1 -3.2,10.9 -1,12.5c0.1,0.1 0.2,0.2 0.4,0.2c0.1,0.2 1.1,0 1.2,0.2c2.3,3.7 5.3,8.5 8.1,14.5c1.7,-1.5 3.3,-2.9 5,-4.3c-0.8,-1.9 -1.6,-3.7 -2.4,-5.3c-4.6,-8.9 -9.5,-15.5 -11.3,-17.8z" fill="#1B72C4"/>
    <path stroke="null" id="svg_31" d="m125.1,46.2c-1,-1.6 -1.5,-4.3 0,-8.5c1.8,-5.1 5.3,-11.2 9.7,-17.2c8.5,-11.4 16.5,-17.7 20.7,-17.8c1,0 1.6,0.2 1.6,0.2s0.9,0.7 2.5,2.1c0.2,-1.2 0.2,-2.4 -0.7,-3.5c-3.2,-3.7 -12.9,-2.3 -27,17.3c-4.4,6.1 -8.5,12.8 -10,18.3c-1.4,5.5 -1,9 1.9,10.9c1.4,0.9 2,0.3 2.4,0.1c-0.4,-0.7 -1.1,-1.9 -1.1,-1.9z" fill="#F9DC6B"/>
    <path stroke="null" id="svg_32" d="m156.7,0.7c0,0 -4.5,0 -11.7,6.4c-3.6,3.2 -8.2,7.8 -13.1,15.2l-1.2,-0.8c0,-0.1 14.1,-23 26,-20.8z" fill="#FFEB7A"/>
   </g>
  </g>
 </g>
</svg>
