<?xml version="1.0" encoding="utf-8"?>
<!-- Generator: Adobe Illustrator 21.0.0, SVG Export Plug-In . SVG Version: 6.00 Build 0)  -->
<svg version="1.1" xmlns="http://www.w3.org/2000/svg" xmlns:xlink="http://www.w3.org/1999/xlink" x="0px" y="0px"
	 viewBox="0 0 56 24" enable-background="new 0 0 56 24" xml:space="preserve" width="56" height="24" preserveAspectRatio="none">
<g id="Layer_3">
</g>
<g id="Layer_2">
	<g>
		<path fill-rule="evenodd" clip-rule="evenodd" fill="#F30000" d="M30.1,8.3c10.4,5.8,24.7,7.4,24.7,7.4c-3.9,2.3-14.3,5-24.8,3.7
			c-13.3-1.7-23.1,3.6-23.1,3.6s1-3.4,1.4-9.5C8.6,7.3,6.8,1.1,6.8,1.1C11.1,1.5,19.6,2.5,30.1,8.3z M10.6,3.7
			c0.6,0,1.1,0.5,1.1,1.2s-0.5,1.2-1.1,1.2c-0.6,0-1.1-0.5-1.1-1.2S9.9,3.7,10.6,3.7z M10.8,16.9c0.6,0,1,0.5,1,1.1
			c0,0.6-0.5,1.1-1,1.1s-1-0.5-1-1.1C9.8,17.4,10.2,16.9,10.8,16.9z"/>
		<g>
			<path fill="#FFEFAB" d="M19.7,15.4c0,0-0.4-0.3-0.5-0.3c0,0-1,0.2-1.2,0.3c0,0-3.6,3.1-3.4,2.7l1.5-4.5c0.1-0.3,0.2-0.5,0.2-0.6
				c0-0.1-0.2-0.3-0.4-0.5l-3.1-2.9c-0.2-0.2-0.1-0.4,0.1-0.4l3.7-0.9c0.3-0.1,0.5-0.1,0.6-0.1c0,0,0.1-0.2,0.2-0.4l0.9-3.3
				c0.1-0.3,0.3-0.3,0.4-0.1l1.9,3.8c0.1,0.2,0.2,0.5,0.3,0.5c0,0,0.3,0.1,0.6,0.2l4.9,1c0.3,0-0.4,0.4-0.6,0.6c0,0-2.9,1.8-3,1.9
				c0,0,0.1,1.1,0.2,1.3l0.5,3.7c0,0.3-0.1,0.4-0.4,0.3C23.2,17.7,19.8,15.4,19.7,15.4z"/>
			<path fill="#FFD941" d="M18.9,15.5c0,0-0.1,0-0.1,0l-4.3,3l1.7-5.2c0-0.1,0-0.2-0.1-0.3l-3.3-3.4L16.9,9C17,9,17,8.9,17,8.8
				l1.2-3.9l2,4.4c0,0.1,0.1,0.1,0.2,0.1l5.5,1l-3.3,2.5c-0.1,0.1-0.1,0.1-0.1,0.2l0.7,4.6l-4.1-2.2C19,15.5,19,15.5,18.9,15.5z"/>
		</g>
		<path fill="#01465F" d="M9.1,4.9c0-0.8,0.7-1.5,1.5-1.5S12,4,12,4.9s-0.7,1.5-1.5,1.5S9.1,5.7,9.1,4.9z M9.4,4.9
			c0,0.7,0.5,1.2,1.1,1.2c0.6,0,1.1-0.5,1.1-1.2s-0.5-1.2-1.1-1.2C9.9,3.7,9.4,4.2,9.4,4.9z"/>
		<path fill="#01465F" d="M9.5,18c0-0.8,0.6-1.4,1.4-1.4c0.7,0,1.4,0.6,1.4,1.4c0,0.8-0.6,1.4-1.4,1.4C10.1,19.4,9.5,18.8,9.5,18z
			 M9.8,18c0,0.6,0.5,1.1,1,1.1s1-0.5,1-1.1c0-0.6-0.5-1.1-1-1.1S9.8,17.4,9.8,18z"/>
		<path fill="#C9B57E" d="M10,4.1c0,0-5.9-1-7.5-1.3C0.9,2.6,0.8,4.2,2.7,4.6c1.6,0.3,5.4,1,7.5,1.2C11,5.9,11.2,4.3,10,4.1z"/>
		<path fill="#C9B57E" d="M10.7,17.3c0.6,0,0.7,1.5,0.2,1.7c-1,0.4-7.9,0.9-8.8,0.8c-0.9-0.1-1.2-1.5,0.1-1.7
			C3.6,17.8,10.1,17.3,10.7,17.3z"/>
	</g>
</g>
<g id="Layer_6">
</g>
<g id="Layer_7">
</g>
<g id="Layer_7_copy">
</g>
<g id="Layer_4">
</g>
<g id="Layer_5">
</g>
</svg>
