<?xml version="1.0" encoding="utf-8"?>
<!-- Generator: Adobe Illustrator 19.2.0, SVG Export Plug-In . SVG Version: 6.00 Build 0)  -->
<svg version="1.1" xmlns="http://www.w3.org/2000/svg" xmlns:xlink="http://www.w3.org/1999/xlink" x="0px" y="0px"
	 viewBox="0 0 438 70" enable-background="new 0 0 438 70" xml:space="preserve" width="438" height="70" preserveAspectRatio="none">
<g id="Layer_3">
</g>
<g id="Layer_2">
	<g>
		<path fill="#C7F7FF" d="M436.6,20.3c-0.9-3-8.5-5-23-5.8c-14.2-0.8-58.6-3.9-166.4-3.9c-20.1,0-24.6-2.2-20.2-2.8
			c7.3-0.8,11-1.7,5.7-2.5c-5.1-0.7-21-3.2-59.3-2.6c-31.6,0.5-48,0.4-84.1,2.8c-25.5,1.8-44.4,5.8-31.6,6.9
			c17.2,1.4,8.1,9.2-24.9,10.1c-17.5,0.5-28.7,4-31.2,7.3c-5.8,7.7,56.2,9.4,78,11.2c21.9,1.8,9.5,4.4-12.3,9.7
			c-21.8,5.4-10.5,14,73.2,16.4c116.6,3.3,191.3-0.9,215.6-5.5c21.3-4,0.1-8.5-4.1-12.4c-9.9-9.2,13.4-15.5,54-19.6
			C429.6,27.5,437.4,23,436.6,20.3z"/>
		<path fill="#9ADBE6" d="M55.3,10.4c0,0,63.2-9.3,177.4-5.1c0,0-8.5-3.3-37.7-3.6S84.1,0.6,55.3,10.4z"/>
		<path fill="#9ADBE6" d="M64.2,17.6c0,0-2.3,2.7-9.7,4c-6,1.1-17.6,1.8-30.3,2.8c-12.1,1-17.8,4.5-19.8,6.1c-2,1.5-0.7,2.9-0.7,2.9
			s-4.1-0.8-2.2-3.4s8.6-5.4,16-6.3c7.4-0.9,23.7-1.6,32.8-2.8C59.2,19.8,61.8,19.1,64.2,17.6z"/>
		<path fill="#9ADBE6" d="M90.9,43.8c0,0-2.9,4.3-9.5,6.2c-6.6,2-16.2,4.4-19.4,6.2c-3,1.7,0.9,3.6,0.9,3.6s-9-1.7-5.6-4.5
			c6.1-4.9,17.5-6.1,23.5-7.8S90.9,43.8,90.9,43.8z"/>
		<path fill="#9ADBE6" d="M225.3,8.5c0,0,4.7,2.1,10.3,2.8c5.5,0.6,48.2,0.9,82,1.8c33.8,0.8,96.6,3,105.5,4.1
			c8.9,1.2,11.9,4.2,11.8,5c-0.1,0.8-1.2,1.7-1.2,1.7s4.5-1.1,2.9-3.4s-3-4.5-14.6-5.8c-22.6-2.4-122.8-3.6-122.8-3.6
			S234,11.4,225.3,8.5z"/>
		<path fill="#9ADBE6" d="M349.7,45.8c0,0,1,4,6.6,6.1c4.6,1.8,7.2,3,8.9,4.1c1.3,0.8,1.8,2.1,0.2,3.3c-1.6,1.2-3.6,1-3.6,1
			s3.6-1,1.1-2.7C360.6,56,349.7,54.3,349.7,45.8z"/>
	</g>
</g>
<g id="Layer_4">
</g>
</svg>
