<?xml version="1.0" encoding="utf-8"?>
<!-- Generator: Adobe Illustrator 19.2.0, SVG Export Plug-In . SVG Version: 6.00 Build 0)  -->
<svg version="1.1" xmlns="http://www.w3.org/2000/svg" xmlns:xlink="http://www.w3.org/1999/xlink" x="0px" y="0px"
	 viewBox="0 0 52 90" enable-background="new 0 0 52 90" xml:space="preserve" width="52" height="90" preserveAspectRatio="none">
<g id="Layer_3">
</g>
<g id="Layer_2">
	<g>
		<path fill="#948172" d="M22.7,37.6c0,0,2.4,15.6,2,31.1c-0.2,10.5-1.9,19.4-1.9,19.4s7.4,0.9,7.5,0.1c1.6-18.4-5.5-53.1-6.8-53.1
			L22.7,37.6z"/>
		<g>
			<path fill="#51BDAF" d="M19.7,59.8c-4.1,3.7-9.9,3.7-9.9,3.7s3.7-3.7,4.6-7.2c-6.3,3.3-10,0.7-13.4-1.7
				c20.8-4.3,19.6-20.2,19.6-20.2l6.6-3.2c0,0,5.2,10.3,11.9,14.4c6.1,3.6,12.1,3.1,12.1,3.1s-7.3,4.4-13.4,3.6
				c-4.6-0.6-5.1-2.5-5.1-2.5c-1.1,3.6,0.7,9.5,5.4,13.5c-7.1-0.8-14-3.8-15.2-8.1C23,55.2,22.9,57,19.7,59.8z"/>
			<path fill="#3C8C82" d="M3.4,56.2c0,0,4.8,4.2,12.5,0c3.1-1.7,5-4.1,5.2-4.3S10.4,59.4,3.4,56.2z"/>
			<path fill="#3C8C82" d="M44.4,51.6c0,0-4.4,0.5-7.4,0c-3.1-0.6-4.7-3.1-4.7-3.1s0,2.7,3.4,3.6C38,52.8,40.9,53,44.4,51.6z"/>
			<path fill="#51BDAF" d="M33.1,36.8c-2.3,0.2,2.7,5.5,7.3,6.4c0,0-3.1,1-6.6,0.6c-3.5-0.4-3.7-0.7-3.7-0.7s-3.7-4.3-3.9-4.6
				C26.1,38.2,33.1,36.8,33.1,36.8z"/>
			<path fill="#51BDAF" d="M15.7,37.7c0,0-2,4.7-4.4,6.8c-2.4,2.1-3.8,3.2-3.8,3.2s5.1,1.2,9.8-0.4c4.7-1.7,6.2-4.5,6.2-4.5L22.1,38
				l-1.9-3.5L15.7,37.7z"/>
			<path fill="#3C8C82" d="M7.5,47.7c0,0,2.9,0.2,5.7-0.8c1.9-0.7,3.9-2.7,3.9-2.7s-0.7,3-3.5,3.8C11.1,48.7,8.2,47.9,7.5,47.7z"/>
			<path fill="#3C8C82" d="M39.9,43.3c-1.2,0.2-4.2,1-7.3,0.2c-0.9-0.2-1.9-1.1-1.9-1.1s-1.4,2.2-3.6,2.8c-1.8,0.5-2.3,0.4-2.3,0.4
				s1.3,0.5,3.3-0.1s2.9-2,2.9-2S33,46.3,39.9,43.3z"/>
			<path fill="#3C8C82" d="M32.2,62.2c0,0-3.2-1.4-5.6-4.1c-2.4-2.7-3.5-4.9-3.5-4.9s-0.6,2.7-3.2,5.5s-3.3,3.2-3.3,3.2
				s1.7-0.6,3.5-2c1.8-1.4,2.9-3.1,2.9-3.1S25.3,60.4,32.2,62.2z"/>
			<path fill="#51BDAF" d="M21.8,14.7c0,0-4.5,16-8.2,20.5c-4,4.8-11.3,6.1-11.3,6.1s4.9,3.7,10.6,1.9c5.7-1.8,13.8-7.1,13.8-7.1
				s1.6,1.5,9.3,1.9c4.3,0.2,8.8-3.3,8.8-3.3S22.2,30.9,21.8,14.7z"/>
			<path fill="#51BDAF" d="M11.9,22.2c0,0-0.8,5-2.6,7.7s-2.8,4-2.8,4s5.8,0.6,9.9-2.1s4.4-6.6,4.4-6.6l-2.6-4.2L15.5,18L11.9,22.2z
				"/>
			<path fill="#3C8C82" d="M43,35.9c0,0-4.1,3-8.8,2.8c-4.4-0.2-6.9-2.4-6.9-2.4s-2.3,2.3-4.9,2.5c-2.5,0.1-3.2-1.7-3.2-1.7
				s1.2,1.6,4.5,0.4c2.3-0.9,3.1-3.2,3.1-3.2S33.4,40.6,43,35.9z"/>
			<path fill="#3C8C82" d="M7.7,33.9c-0.2,0,3.1-0.4,5.2-1.3c2.1-0.9,3.7-2,3.7-2S16.2,34.1,7.7,33.9z"/>
			<path fill="#3C8C82" d="M4,42.2c0,0,4.7,1,8.7,0.2c3.9-0.8,4.9-2,4.9-2s-0.3,1.4-3.3,2.6C11.1,44.1,6.5,43.9,4,42.2z"/>
			<g>
				<g>
					<path fill="#51BDAF" d="M18.4,9.7c0,0,2.2,3.5,3.9,3.9c1.4,0.4,2.6,0.5,2.6,0.5s-2.2,1.1-4,1.1c-1,0-2.9,0.1-2.9,0.1l-1-0.4
						L18.4,9.7z"/>
					<g>
						<path fill="#51BDAF" d="M17.9,10.1c0,0,5.8,7.2,10.1,9.9c3.8,2.4,7.9,2.9,7.9,2.9s-4.2,3.3-9.2,2.9s-8-4.7-8-4.7
							s-1.5,6.4-9.8,9.5c-5.7,2.2-8.1,0.7-8.1,0.7S5.5,30,10.9,20.7c2.9-5,3.6-9.9,3.6-9.9L17.9,10.1z"/>
						<path fill="#51BDAF" d="M13.9,11.4c0,0-1.7,4.9-5.4,7.6s-3.7,2.7-3.7,2.7s4.1-0.5,6-1.4s3.7-1,4.4-1.9
							c0.7-0.9,0.8-1.8,1.1-2.5S13.9,11.4,13.9,11.4z"/>
						<path fill="#3C8C82" d="M4.8,21.6c0,0,4.9-0.5,8.8-3.6c1.3-1.1,1.2-1.2,1.2-1.2S12.3,22.1,4.8,21.6z"/>
						<path fill="#3C8C82" d="M30.4,25.4c-2.8-0.1-5.7-0.6-8.1-1.8c-2.4-1.2-3.6-3.4-3.6-3.4s-2.8,8.6-13.8,11.4
							c6-0.1,9.7-4.4,11-5.7c1.4-1.4,3-3.2,3-3.2S23.6,27.3,30.4,25.4z"/>
					</g>
					<path fill="#3C8C82" d="M24.4,14.3c0,0-2.3,0.8-3.7,0.5c-0.8-0.2-1.2-0.4-1.2-0.4S20.8,16.6,24.4,14.3z"/>
				</g>
				<g>
					<path fill="#51BDAF" d="M11.9,1.4c0,0,3.5,5,7.3,6.8c3.3,1.5,6.7,1.1,6.7,1.1S23.5,11,21,11s-4-0.3-4-0.3s-3.9,2.4-6.1,3.6
						s-4.7,0.9-4.7,0.9S13.9,10.8,11.9,1.4z"/>
					<path fill="#3C8C82" d="M8.8,15c1.5-0.7,2.9-1.2,4.4-2.8c1.8-1.8,1.8-2.7,1.8-2.7s1.3,0.9,3.5,1.3c2.8,0.4,4.1,0,4.6-0.1
						c-0.6,0.2-2,0.6-4,0.8c-1.9,0.2-3.5-0.5-3.5-0.5S12.3,14.6,8.8,15z"/>
				</g>
			</g>
		</g>
	</g>
</g>
<g id="Layer_4">
</g>
</svg>
