<svg id="Chapter_Icon_3A" data-name="Chapter Icon 3A" xmlns="http://www.w3.org/2000/svg" viewBox="0 0 40 40" width="40" height="40" preserveAspectRatio="none"><defs><style>.cls-1{fill:#fff;}.cls-2{fill:#ffce41;}</style></defs><title>Donut</title><path class="cls-1" d="M20.29568,2.01573C9.61638,2.388,1.66068,9.51461,1.66068,19.539a18.61528,18.61528,0,0,0,17.725,18.76256A18.07483,18.07483,0,0,0,38.33932,20.16277C38.33932,10.1384,30.42114,1.66279,20.29568,2.01573Zm8.10751,20.54193a8.658,8.658,0,0,1-11.13341,5.82789A8.91685,8.91685,0,0,1,11.60689,17.3951c1.33254-4.61316,5.941-6.83518,10.90492-5.587A8.51471,8.51471,0,0,1,28.40319,22.55766Z"/><path class="cls-2" d="M11.60691,17.39517a8.91675,8.91675,0,0,0,5.66284,10.99036,8.65792,8.65792,0,0,0,11.13343-5.82788A8.51481,8.51481,0,0,0,22.51182,11.808C17.54783,10.56,12.93943,12.78189,11.60691,17.39517Z"/></svg>