<svg xmlns="http://www.w3.org/2000/svg" version="1.1" viewBox="0 0 100 100" width="100" height="100" preserveAspectRatio="none"><defs><style>
      .cls-1 {
        fill: #000000;
        stroke-width: 0px;
      }
    </style></defs><path class="cls-1" d="M85.6236,47.4547c-.7723-1.0959-1.8228-1.966-3.0434-2.5205-2.5561-1.241-5.5848-.9936-7.9056.6456-.651.4969-1.1569,1.1591-1.4653,1.9178-.4878,1.4755-1.8784,2.4624-3.4323,2.4357-1.3763.1-2.5914-.8917-2.7693-2.2601-.3777-3.4531-.6891-6.9212-.8191-10.3912-.1108-2.9551.0688-5.9211.121-8.9393-1.067.0755-2.1242.1081-3.1708.2314-5.5401.6529-11.0776,1.329-16.6161,1.9955-.2351.0335-.4721.0528-.7095.0579-1.2116.163-2.4069-.3963-3.058-1.431-.5355-1.1011-.3582-2.4161.45-3.336.2148-.3328.4676-.6396.7533-.9141,1.9056-1.7708,2.6315-4.4749,1.8689-6.9619-.721-3.126-3.4848-5.3545-6.6926-5.3964-.3481-.0383-.692-.115-1.0378-.1739-1.1055.0783-2.211.1566-3.3163.2347-1.4626.5608-2.8861,1.2189-4.2609,1.9696-2.6598,1.583-4.1722,4.5545-3.8865,7.6366.041,1.5801.9109,3.022,2.2895,3.7951.3377.2055.6839.3993,1.0084.6241.7274.5037,1.5056,1.0424,1.2695,2.0739-.1499,1.1049-1.0123,1.9775-2.1153,2.1404-2.4703.2932-4.9517.555-7.4355.655-2.7648.1112-5.5374.0249-8.3065.0332-.3907.0012-.7813.0515-1.2915.0879-.022.4621-.082.9213-.0594,1.3763.2376,4.781.4776,9.562.7463,14.3413.045.7901.1663,1.574.3624,2.3407.1054.4184.3023.8083.5764,1.1415.4496.243.9494.3787,1.4602.3965,1.5622.2928,3.1366-.4465,3.909-1.8356.373-.8121.9395-1.5203,1.65-2.0625,2.2178-1.5168,5.1137-1.6107,7.425-.2406,1.0864.5662,1.9828,1.4387,2.5781,2.5094,2.1559,3.4872,2.3638,7.8389.55,11.5157-1.53,3.4765-6.5821,6.4264-10.1751,2.6469-.6319-.6221-1.364-1.1335-2.1656-1.5125-1.6805-.9261-3.7936-.3146-4.7197,1.3658-.1137.2062-.2061.4235-.2758.6484.197,2.1924.4415,4.3842.8228,6.5484.8577,4.8671,1.8821,9.7044,2.7921,14.5626.0148.7249.6144,1.3005,1.3392,1.2857.0006,0,.0012,0,.0017,0,5.584.7516,11.2216,1.0297,16.8525.8314,1.4871-.1367,2.7234-.5541,3.1983-2.1436.5577-1.4875.143-3.1648-1.0435-4.2211-2.1314-2.5122-1.8228-6.2766.6894-8.4081.29-.2461.6029-.4638.9344-.6503,2.8076-1.5165,6.1703-1.603,9.0521-.2327,2.4068,1.0935,3.4714,3.9309,2.378,6.3377-.2553.5619-.6168,1.0692-1.0647,1.4938-1.1817,1.1244-1.2282,2.9938-.1038,4.1755.1652.1736.3509.3265.553.4552.9932.7073,2.1765,1.0987,3.3955,1.1232,2.2385-.2345,4.4516-.6683,6.613-1.2964,3.5682-.6398,7.075-1.6229,10.6993-2.4776-.5333-2.6406-1.1063-5.0922-1.5091-7.5715-.4815-2.9632-.9746-5.9396-1.1764-8.9297-.2421-3.5861,1.7629-4.916,5.1282-3.5873.6645.2472,1.2694.632,1.775,1.1291,2.5634,2.8297,6.9354,3.0455,9.7651.4821.8285-.7505,1.4626-1.6908,1.848-2.7401,1.9048-4.2507,1.4376-9.1894-1.2303-13.0076Z" /></svg>