<?xml version="1.0" encoding="utf-8"?>
<!-- Generator: Adobe Illustrator 23.0.6, SVG Export Plug-In . SVG Version: 6.00 Build 0)  -->
<svg version="1.1" xmlns="http://www.w3.org/2000/svg" xmlns:xlink="http://www.w3.org/1999/xlink" x="0px" y="0px"
	 viewBox="0 0 142 54" style="enable-background:new 0 0 142 54;" xml:space="preserve" width="142" height="54" preserveAspectRatio="none">
<style type="text/css">
	.st0{fill:#006838;}
	.st1{fill:#FFFFFF;}
	.st2{fill:#F68736;}
	.st3{fill:url(#SVGID_1_);}
	.st4{fill:#141E89;}
	.st5{fill:url(#SVGID_2_);}
	.st6{fill:#2C2F91;}
	.st7{fill:#FE0000;}
	.st8{fill:#FE9900;}
	.st9{fill:#FFFFFF;stroke:#231F20;stroke-width:0.25;stroke-miterlimit:10;}
	.st10{fill:url(#SVGID_3_);}
	.st11{fill:none;stroke:#231F20;stroke-width:0.25;stroke-miterlimit:10;}
	.st12{fill:url(#SVGID_4_);}
	.st13{fill:#FFCE41;}
	.st14{fill:#BDE1FC;}
	.st15{fill:#8ADCFF;}
	.st16{fill:#C2B59B;}
	.st17{fill:#1A58AA;}
	.st18{fill:#0057A7;}
	.st19{opacity:0.3;fill:#FFFFFF;}
	.st20{fill:#ED1941;}
	.st21{fill:#FFFCEC;}
	.st22{opacity:0.4;fill:#231F20;}
	.st23{fill:#4191CE;}
	.st24{fill:#F40942;}
	.st25{fill:url(#SVGID_5_);}
	.st26{fill:url(#SVGID_6_);}
	.st27{fill:url(#SVGID_7_);}
	.st28{fill:url(#SVGID_8_);}
	.st29{fill:url(#SVGID_9_);}
	.st30{fill:url(#SVGID_10_);}
	.st31{fill:#FFEB9C;}
	.st32{fill:#EDB83C;}
	.st33{fill:url(#SVGID_11_);}
	.st34{fill:url(#SVGID_12_);}
	.st35{fill:url(#SVGID_13_);}
	.st36{fill:#C5C5C5;}
	.st37{fill:#999999;}
	.st38{fill:#CBCDCE;}
	.st39{fill:#606060;}
	.st40{fill:#7D7D7D;}
	.st41{opacity:0.2;fill:#FFFFFF;enable-background:new    ;}
	.st42{fill:#38942C;}
	.st43{fill:#FFC72E;}
	.st44{fill:#FCC220;}
	.st45{fill:#FFD24D;}
	.st46{fill:#404041;}
	.st47{fill:#FFD941;}
	.st48{fill:#FFF200;}
	.st49{fill:#2E3192;}
	.st50{fill:#ED1C24;}
	.st51{fill:#F15A29;}
	.st52{fill:#00A651;}
	.st53{fill:#00AEEF;}
	.st54{fill:#59331A;}
	.st55{fill:#751B16;}
	.st56{opacity:0.2;fill:#55C9F4;}
	.st57{fill:#E2E4E6;}
	.st58{fill:#7EA5B3;}
	.st59{fill:#00AEB9;}
	.st60{fill:#C8352C;}
	.st61{fill:#6A121D;}
	.st62{fill:none;}
	.st63{fill:#D0D1D2;}
	.st64{fill:#F1F2F3;}
	.st65{fill:#FFD15F;}
	.st66{fill:#C9D4D9;}
	.st67{fill:#8BD2D4;}
	.st68{fill:#00313B;}
	.st69{fill:#C8DFE3;}
	.st70{opacity:0.3;fill:#A4DBDE;}
	.st71{fill:#F1F2F2;}
	.st72{fill:#BCBEC0;}
	.st73{fill:#CE1337;}
	.st74{fill:#F04E58;}
	.st75{fill:#0058A9;}
	.st76{fill:#2B6DB6;}
	.st77{fill:#001C25;}
	.st78{fill:#B37452;}
	.st79{fill:#DFBA71;}
	.st80{fill:url(#);}
	.st81{opacity:0.2;fill:#231F20;}
	.st82{fill:#D6EFFB;}
	.st83{fill:#005663;}
	.st84{fill:#73472E;}
	.st85{opacity:0.6;fill:#FFFFFF;}
	.st86{fill:#FFC640;}
	.st87{fill:#FFF0B5;}
	.st88{fill:#B8BEB4;}
	.st89{opacity:0.3;fill:#231F20;}
	.st90{fill:#FFAC2D;}
	.st91{fill:#231F20;}
	.st92{opacity:0.3;}
	.st93{fill:#009444;}
	.st94{fill:url(#SVGID_14_);}
	.st95{clip-path:url(#SVGID_16_);fill:#FFC541;}
	.st96{fill:#E56627;}
	.st97{fill:#2D7C24;}
	.st98{fill:#2B82AE;}
	.st99{fill:#7B3680;}
	.st100{opacity:0.5;}
	.st101{filter:url(#Adobe_OpacityMaskFilter);}
	.st102{mask:url(#SVGID_17_);}
	.st103{fill:#6D6E71;}
	.st104{filter:url(#Adobe_OpacityMaskFilter_1_);}
	.st105{mask:url(#SVGID_18_);}
	.st106{filter:url(#Adobe_OpacityMaskFilter_2_);}
	.st107{mask:url(#SVGID_19_);}
	.st108{filter:url(#AI_Shadow_1);}
	.st109{fill:#949699;}
	.st110{fill:#808285;}
	.st111{fill:#D39519;}
	.st112{fill:#B8883F;}
	.st113{fill:#0067AB;}
	.st114{fill:#CC4284;}
	.st115{fill:#48C7F4;}
	.st116{fill:#007FC2;}
	.st117{fill:#72805D;}
	.st118{fill:#524034;}
	.st119{fill:#546444;}
	.st120{fill:#FFC541;}
	.st121{opacity:0.8;fill:#FFFFFF;}
	.st122{fill:#888888;}
	.st123{fill:#4090CD;}
	.st124{fill:#0358A5;}
	.st125{fill:#033D73;}
	.st126{opacity:0.4;fill:#221F1F;}
	.st127{fill:#A7A8AB;}
	.st128{fill:#545557;}
	.st129{fill:#E6E7E8;}
	.st130{fill:none;stroke:#000000;stroke-width:4;stroke-linecap:round;stroke-miterlimit:10;}
	.st131{fill:#016FD0;}
	.st132{fill:#201D1C;}
	.st133{clip-path:url(#SVGID_21_);}
	.st134{clip-path:url(#SVGID_23_);fill:url(#XMLID_12_);}
	.st135{fill:#010101;}
	.st136{fill:#F16522;}
	.st137{fill:#E41B24;}
	.st138{fill:#F89E1C;}
	.st139{fill:#ED1940;}
	.st140{fill:#0091A1;}
	.st141{fill:#FFD626;}
	.st142{fill:#EA7EB1;}
	.st143{fill:#C2105D;}
	.st144{fill:#B0D9B0;}
	.st145{fill:#00886D;}
	.st146{fill:#004735;}
	.st147{fill:#400025;}
	.st148{fill:#01B8E2;}
	.st149{fill:#45B6E8;}
	.st150{fill:#0077B4;}
	.st151{fill:#160D47;}
	.st152{fill:#FFFCE6;}
	.st153{fill:#00669E;}
	.st154{fill:#C8DBD7;}
	.st155{fill:#716558;}
	.st156{fill:#3B2314;}
	.st157{fill:#E0DBBD;}
	.st158{fill:#BAB69D;}
	.st159{fill:#278F48;}
	.st160{fill:#64B646;}
	.st161{fill:#006B3E;}
	.st162{fill:#CFC679;}
	.st163{fill:#958F57;}
	.st164{fill:#AA60A5;}
	.st165{fill:#5B1B75;}
	.st166{fill:#00B8C2;}
	.st167{fill:#22004F;}
	.st168{fill:#330100;}
	.st169{fill:#80C242;}
	.st170{fill:#F07199;}
	.st171{fill:#00722D;}
	.st172{fill:#EEE9D9;}
	.st173{fill:#52677D;}
	.st174{fill:#CD4385;}
	.st175{fill:#8A295D;}
	.st176{fill:#FFE88A;}
	.st177{clip-path:url(#SVGID_25_);}
	.st178{opacity:0.1;fill:#384E7D;}
	.st179{fill:#72B1C5;}
	.st180{fill:#00454C;}
	.st181{fill:#F4833C;}
	.st182{fill:#FFEC81;}
	.st183{fill:none;stroke:#0067AB;stroke-width:0.208;stroke-miterlimit:10;}
	.st184{fill:#8DD4F5;}
	.st185{fill:#F37728;}
	.st186{fill:#37B34A;}
	.st187{fill:#DB5982;}
	.st188{fill:#86288F;}
	.st189{fill:#003E6E;}
	.st190{clip-path:url(#SVGID_27_);}
	.st191{clip-path:url(#SVGID_29_);}
	.st192{clip-path:url(#SVGID_31_);}
	.st193{fill:#D2D6D9;}
	.st194{fill:#D7EBF0;}
	.st195{fill:#BAD5DB;}
	.st196{opacity:0.3;fill:#A4DBDE;enable-background:new    ;}
	.st197{clip-path:url(#SVGID_33_);}
	.st198{clip-path:url(#SVGID_35_);}
	.st199{fill:#C51941;}
	.st200{fill:#FFBA75;}
	.st201{fill:#F47D38;}
	.st202{fill:#F59120;}
	.st203{fill:#95D5D3;}
	.st204{fill:#208CBA;}
	.st205{fill:#024C78;}
	.st206{fill:#FDE369;}
	.st207{fill:#FFFBE7;}
	.st208{fill:#3A0F25;}
	.st209{fill:#D34F27;}
	.st210{fill:#F6B119;}
	.st211{fill:#F49021;}
	.st212{fill:#F79421;}
	.st213{fill:#1F8BB9;}
	.st214{fill:#004C78;}
	.st215{fill:#61BB4B;}
	.st216{fill:#399545;}
	.st217{fill:#979383;}
	.st218{fill:#FFFBEC;}
	.st219{fill:#016938;}
	.st220{fill:#BCBDBF;}
	.st221{fill:#6E6C60;}
	.st222{fill:#AF71B0;}
	.st223{fill:#84328C;}
	.st224{fill:#C9C4CE;}
	.st225{fill:#8DC540;}
	.st226{fill:#0D3B5E;}
	.st227{fill:#66C0EC;}
	.st228{fill:#3399CC;}
	.st229{fill:#C4202E;}
	.st230{fill:#FFB061;}
	.st231{fill:#FFD796;}
	.st232{fill:#CAE892;}
	.st233{fill:#E6D5ED;}
	.st234{fill:#BBE5F0;}
	.st235{fill:#FFA594;}
	.st236{fill:#F36B3B;}
	.st237{fill:#FFCCCC;}
	.st238{fill:#939598;}
	.st239{fill:#79C879;}
	.st240{fill:#43A443;}
	.st241{fill:#CEE5B7;}
	.st242{fill:#22D2DF;}
	.st243{fill:#15AFB9;}
	.st244{fill:#99FFFF;}
	.st245{fill:#D34948;}
	.st246{fill:#B82025;}
	.st247{fill:#E9ABAA;}
	.st248{clip-path:url(#SVGID_41_);}
	.st249{fill:#EE4036;}
	.st250{fill:#090405;}
	.st251{fill:#37302E;}
	.st252{fill:#4C4341;}
	.st253{fill:#292F2E;}
	.st254{fill:#59C4C5;}
	.st255{fill:#191818;}
	.st256{fill:#8BD0D2;}
	.st257{fill:#00ADB8;}
	.st258{fill:#929497;}
	.st259{clip-path:url(#SVGID_43_);fill:#E6E6E6;}
	.st260{fill:#7BC479;}
	.st261{fill:#43A347;}
	.st262{fill:#DDE4B7;}
	.st263{clip-path:url(#SVGID_45_);}
	.st264{fill:#009345;}
	.st265{fill:#8BB7CC;}
	.st266{fill:#C9DDE7;}
	.st267{clip-path:url(#SVGID_47_);fill:none;stroke:#C9DDE7;stroke-width:0.2646;stroke-miterlimit:10;}
	.st268{clip-path:url(#SVGID_49_);fill:none;stroke:#C9DDE7;stroke-width:0.2646;stroke-miterlimit:10;}
	.st269{fill:#779FB2;}
	.st270{fill:#FFD227;}
	.st271{fill:#395E6E;}
	.st272{fill:#97D7F6;}
	.st273{fill:none;stroke:#C9DDE7;stroke-width:0.5292;stroke-miterlimit:10;}
	.st274{fill:none;stroke:#395E6E;stroke-width:0.5292;stroke-miterlimit:10;}
	.st275{clip-path:url(#SVGID_51_);fill:none;stroke:#C9DDE7;stroke-width:0.2646;stroke-miterlimit:10;}
	.st276{clip-path:url(#SVGID_53_);fill:none;stroke:#C9DDE7;stroke-width:0.2646;stroke-miterlimit:10;}
	.st277{clip-path:url(#SVGID_55_);fill:none;stroke:#C9DDE7;stroke-width:0.2646;stroke-miterlimit:10;}
	.st278{fill:#77BF47;}
	.st279{clip-path:url(#SVGID_57_);}
	.st280{fill:none;stroke:#009345;stroke-width:0.2646;stroke-miterlimit:10;}
	.st281{clip-path:url(#SVGID_59_);}
	.st282{fill:none;stroke:#009345;stroke-width:0.2521;stroke-miterlimit:10;}
	.st283{clip-path:url(#SVGID_61_);}
	.st284{fill:none;stroke:#FFD227;stroke-width:0.5042;stroke-miterlimit:10;}
	.st285{clip-path:url(#SVGID_63_);}
	.st286{clip-path:url(#SVGID_65_);}
	.st287{fill:none;stroke:#395E6E;stroke-width:0.2646;stroke-miterlimit:10;}
	.st288{fill:#6499B1;}
	.st289{clip-path:url(#SVGID_67_);}
	.st290{fill:none;stroke:#8BB7CC;stroke-width:0.2646;stroke-miterlimit:10;}
	.st291{clip-path:url(#SVGID_69_);}
	.st292{fill:#753B0C;}
	.st293{fill:#B2E2F9;}
	.st294{fill:#FAAF40;}
	.st295{fill:#652D90;}
	.st296{fill:#1B75BB;}
	.st297{fill:#F6A09D;}
	.st298{clip-path:url(#SVGID_71_);fill:#C46976;}
	.st299{opacity:0.56;}
	.st300{fill:#D1EDFB;}
	.st301{fill:#B2C4CE;}
	.st302{fill:#FFFAD1;}
	.st303{clip-path:url(#SVGID_73_);fill:none;stroke:#FAAF40;stroke-width:0.2646;stroke-miterlimit:10;}
	.st304{fill:#F05A38;}
	.st305{clip-path:url(#SVGID_75_);}
	.st306{clip-path:url(#SVGID_77_);}
	.st307{clip-path:url(#SVGID_79_);}
	.st308{clip-path:url(#SVGID_79_);fill:#E6E6E6;}
	.st309{fill:#F6A294;}
	.st310{fill:#F26C3B;}
	.st311{fill:#FACBCB;}
	.st312{clip-path:url(#SVGID_81_);}
	.st313{fill:#A72C22;}
	.st314{fill:#9C7250;}
	.st315{fill:#4687C3;}
	.st316{fill:#384E7D;}
	.st317{fill:#26221D;}
	.st318{fill:#83D2E5;}
	.st319{clip-path:url(#SVGID_83_);fill:#E6E6E6;}
	.st320{opacity:0.15;fill:#221F1F;}
</style>
<g id="Green_Backgrounds">
</g>
<g id="Miscellaneous_Artwork">
</g>
<g id="Assets">
</g>
<g id="Headings">
	<polygon class="st200" points="15.8,43.5 137.1,44 132.5,10.5 16.3,10.4 	"/>
	<polygon class="st201" points="19.3,39.4 20,14.4 128.4,14 133.1,40.5 	"/>
	<path class="st1" d="M27.7,7.7C17,7.7,8.2,16.4,8.2,27.1c0,10.7,8.8,19.4,19.5,19.4c10.8,0,19.5-8.7,19.5-19.4
		C47.3,16.4,38.5,7.7,27.7,7.7z"/>
	<path class="st202" d="M23,37.9L22.8,40l0.3-4.3c0,0-8.1-3-14.5-12.8c-0.2,1-0.4,2-0.4,3.1C15.1,34.9,23,37.9,23,37.9z"/>
	<path class="st203" d="M23,37.9c0,0-7.9-3-14.7-11.8c0,0.4-0.1,0.7-0.1,1.1c0,8.9,6,16.4,14.2,18.7l0.4-5.8L23,37.9z"/>
	<path class="st202" d="M28.1,35.7l0.6,4.2l-0.3-2.1c0,0,9.2-4.1,15.6-15.4c0.6-1.1,1.1-2.1,1.6-3.1c-0.4-0.9-0.9-1.8-1.5-2.7
		c-0.4,1.3-0.9,2.5-1.5,3.9C36.8,31.9,28.1,35.7,28.1,35.7z"/>
	<path class="st203" d="M28.4,37.8l0.3,2.1l0.9,6.5c1.3-0.1,2.5-0.4,3.7-0.7c1,0.1,2.1-0.5,2.8-1.1c6.7-3.1,11.3-9.8,11.3-17.6
		c0-2.8-0.6-5.4-1.7-7.8c-0.4,1-0.9,2-1.6,3.1C37.6,33.7,28.4,37.8,28.4,37.8z"/>
	<path class="st200" d="M27.7,4.2c-12.7,0-23,10.3-23,22.9C4.7,39.8,15,50,27.7,50s23-10.3,23-22.9C50.8,14.5,40.5,4.2,27.7,4.2z
		 M27.7,46.5C17,46.5,8.2,37.8,8.2,27.1C8.2,16.4,17,7.7,27.7,7.7c10.8,0,19.5,8.7,19.5,19.4C47.3,37.8,38.5,46.5,27.7,46.5z"/>
	<path class="st202" d="M40,39.1c-0.1-0.4-0.7-1-3-2.2c-4.2-2.2-9.6-2.3-9.6-2.3l0.7,2.8c3.2-0.3,6.4,0.3,9.3,1.8
		c0,0-3.2,2.2-5.4,3.7c0.8,0.9,2.4,2.3,2.4,2.3S40.1,39.4,40,39.1z"/>
	<path class="st204" d="M27.5,34.6c1.9,0.1,3.9,0.3,5.5,0.8l-0.7,2.3l-5-0.4l0.1-2.4L27.5,34.6z"/>
	<g>
		<path class="st205" d="M31.8,35.2c0,0.4-0.1,0.8-0.2,1.2c-0.1,0.4-0.2,0.8-0.4,1.2c0-0.4,0.1-0.8,0.2-1.2
			C31.5,36,31.6,35.6,31.8,35.2z"/>
	</g>
	<path class="st202" d="M30.5,10.5c0,0,1.3,8.3,0.2,12.9c-1.2,4.8-3.1,12.9-3.1,12.9l-2.2,2l-2.2-2.5c0,0,0-1.5-3.6-9.1
		c-3.6-7.5-2.8-16.1-2.8-16.1s2.2-0.9,6.7-1.1C27.9,9.3,30.5,10.5,30.5,10.5z"/>
	<path class="st202" d="M28,20c0,0-0.9,5.6-8.3,5c-6.6-0.5-9.7-2.8-9.7-2.8s0.8-4.5,4.7-4.8c3.9-0.3,7.6,3.3,7.6,3.3L28,20z"/>
	<path class="st202" d="M39.8,17.6c0,0-1.6-0.5-4.6,0.6c-3,1.1-5.4,3-5.4,3L29,23.4c0,0,0.1,2.7,4.3,1.3
		C37.4,23.3,39.8,17.6,39.8,17.6z"/>
	<path class="st206" d="M30.2,9.2c0,0-1.6,2.8-1.2,6.2c0.3,3.4,2,6.6,2,6.6s1.7-2.5,1.9-6.6c0.2-4.1-0.7-5.4-0.7-5.4L30.2,9.2z"/>
	<path class="st207" d="M22.6,16.6c-0.1,1.2,0.6,2.2,1.5,2.3c0.9,0.1,1.7-0.8,1.8-2c0.1-1.2-0.6-2.2-1.5-2.3
		C23.5,14.5,22.7,15.4,22.6,16.6z"/>
	<path class="st207" d="M19.7,16.6c-0.1,1.1,0.5,2,1.2,2c0.8,0.1,1.4-0.7,1.5-1.8c0.1-1.1-0.5-2-1.2-2
		C20.4,14.7,19.8,15.6,19.7,16.6z"/>
	<path class="st208" d="M23.3,17c0,0.5,0.3,1,0.7,1c0.5,0,0.9-0.4,0.9-0.9c0-0.5-0.3-1-0.7-1C23.7,16.1,23.3,16.5,23.3,17z"/>
	<path class="st208" d="M20.5,17c0,0.5,0.3,0.9,0.7,0.9c0.4,0,0.8-0.3,0.8-0.8c0-0.5-0.3-0.9-0.7-0.9C20.9,16.2,20.6,16.5,20.5,17z"
		/>
	<g>
		<path class="st209" d="M22.7,21.6c-0.6-1.2-1.8-2.2-3-2.8c-1.2-0.6-2.6-1-3.9-1.2c-1.3-0.2-2.7,0.2-3.7,1.1
			c-1,0.9-1.5,2.2-1.7,3.5L10.2,22c1.5,0.8,3.1,1.4,4.7,1.9c1.6,0.5,3.3,0.8,5,0.9c1.7,0.1,3.4,0,4.9-0.8c1.5-0.7,2.6-2.2,2.9-3.9
			c-0.2,1.7-1.3,3.3-2.8,4.1c-1.5,0.9-3.4,1-5.1,1c-1.7-0.1-3.4-0.4-5.1-0.8c-1.7-0.5-3.3-1.1-4.8-2l-0.1-0.1l0-0.2
			c0.2-1.4,0.8-2.8,1.9-3.8c1.1-1,2.7-1.3,4.1-1.1c1.4,0.2,2.8,0.6,4,1.3C21,19.3,22.1,20.3,22.7,21.6z"/>
	</g>
	<path class="st208" d="M23.6,12.2c1-0.1,2,0.1,2.8,0.7c0-0.1,0-0.1,0.1-0.2c-0.8-0.6-1.8-0.9-2.8-0.8
		C23.6,11.9,23.6,12.1,23.6,12.2z"/>
	<path class="st208" d="M22.4,13.2c-1-0.1-2,0.1-2.8,0.7c0-0.1,0-0.1-0.1-0.2c0.8-0.6,1.8-0.9,2.7-0.8C22.4,13,22.4,13.1,22.4,13.2z
		"/>
	<g>
		<path class="st210" d="M32.2,17.2c-0.3,0.3-0.9,0.2-1.2,0c-0.4-0.2-0.8-0.4-1.1-0.7C29.2,15.9,28.8,15,29,14l0.1-0.3l0.2,0.2
			c0.4,0.6,0.9,1.2,1.6,1.6c0.3,0.2,0.7,0.3,1.1,0.3c0.4,0,0.8-0.1,1-0.4c-0.2,0.3-0.6,0.5-1,0.5c-0.4,0-0.8-0.1-1.1-0.3
			c-0.7-0.4-1.2-0.9-1.7-1.6l0.2,0c-0.1,0.4-0.1,0.8,0.1,1.2c0.1,0.4,0.4,0.7,0.7,1c0.3,0.3,0.7,0.5,1,0.7
			C31.4,17.2,31.8,17.4,32.2,17.2z"/>
	</g>
	<g>
		<path class="st209" d="M38,19c-0.7,0.1-1.4,0.2-2.1,0.5c-0.7,0.2-1.4,0.5-2,0.8c-1.3,0.7-2.2,1.9-2.7,3.2l-0.2-0.1
			c0.5-0.6,1.1-1.3,2-1.5c0.4-0.1,0.9,0,1.2,0.4c0.3,0.4,0,0.9-0.2,1.1c0.3-0.3,0.5-0.8,0.2-1.1c-0.3-0.3-0.7-0.4-1.1-0.3
			c-0.8,0.2-1.3,0.9-1.8,1.5L30.9,24l0.2-0.6c0.5-1.4,1.5-2.7,2.8-3.3C35.1,19.4,36.6,19,38,19z"/>
	</g>
	<path class="st209" d="M14.1,19.3C14,19.3,14,19.3,14.1,19.3c-0.2,0.2-0.3,0.3-0.4,0.5c0-0.2,0-0.4,0.2-0.6
		c0.1-0.1,0.2-0.2,0.3-0.2c0.1-0.1,0.2-0.1,0.3-0.1l0,0c0,0,0.1,0,0.1,0c0.3,0,0.5,0.1,0.5,0.3c0,0.2-0.2,0.4-0.5,0.4
		C14.3,19.6,14.1,19.4,14.1,19.3z"/>
	<path class="st209" d="M18.7,19.7C18.7,19.7,18.8,19.8,18.7,19.7c0.2,0.2,0.2,0.4,0.2,0.6c0.1-0.2,0.1-0.4,0-0.6
		c0-0.1-0.1-0.2-0.2-0.3c-0.1-0.1-0.2-0.2-0.3-0.2l0,0c0,0-0.1,0-0.1-0.1c-0.3-0.1-0.5,0-0.6,0.1c-0.1,0.2,0.1,0.4,0.4,0.5
		C18.4,19.9,18.6,19.9,18.7,19.7z"/>
	<path class="st209" d="M27.3,19.9c0,0.2,0.1,0.4,0.3,0.4c0.2,0,0.4-0.1,0.4-0.3c0-0.2-0.1-0.4-0.3-0.4
		C27.5,19.5,27.4,19.7,27.3,19.9z"/>
	<g>
		<path class="st209" d="M22.1,26.4c0.3,0.1,0.7,0.1,1,0.1c0.3,0,0.6,0,0.9-0.2c0.3-0.1,0.6-0.3,0.8-0.4c0.3-0.2,0.5-0.4,0.7-0.7
			c-0.3,0.6-0.8,1.1-1.5,1.3C23.4,26.8,22.7,26.7,22.1,26.4z"/>
	</g>
	<path class="st206" d="M12.8,10.1c0.1-2.4,4.4-5.3,12.1-3.9c2.9,0.5,5.6,1.7,5.6,1.7l0.9-2l0,2.8c0,0,0.9-0.3,2.4,0.1
		c-1.8,0.3-1.5,1.5-1.5,1.5l-2.6,0.1l-0.3,0.7h-1.1l0.1-1l-0.6,1L24.6,11l-0.9-1.1l0,1l-3.7-0.1l-0.3-0.7l-0.3,0.7l-4.7,0
		c0,0,0-1,1-2.1L12.8,10.1z"/>
	<g>
		<path class="st210" d="M18.1,8.4c-0.2,0.4-0.4,0.8-0.5,1.2c-0.1,0.2-0.1,0.4-0.1,0.6c0,0.2,0,0.4,0,0.6c-0.1-0.2-0.2-0.4-0.2-0.6
			c0-0.2,0-0.5,0.1-0.7C17.5,9.1,17.7,8.7,18.1,8.4z"/>
	</g>
	<g>
		<path class="st210" d="M26.7,11c-0.2-0.4-0.1-0.8,0-1.1C26.8,9.6,27,9.2,27.3,9c-0.1,0.2-0.2,0.3-0.2,0.5C27,9.6,27,9.8,26.9,10
			c-0.1,0.2-0.1,0.3-0.1,0.5C26.8,10.7,26.7,10.8,26.7,11z"/>
	</g>
	<g>
		<path class="st210" d="M21.8,8.6c0.1,0.4,0.1,0.8,0.1,1.2c0,0.4,0,0.8-0.2,1.2c-0.1-0.4-0.1-0.8-0.1-1.2C21.6,9.4,21.6,9,21.8,8.6
			z"/>
	</g>
	<path class="st62" d="M28.7,39.9l-0.6-4.2c0,0,8.7-3.8,14.5-15.2c0.7-1.3,1.2-2.6,1.5-3.9c-3.5-5.4-9.5-8.9-16.4-8.9
		c-9.3,0-17.1,6.5-19.1,15.2c6.4,9.8,14.5,12.8,14.5,12.8L22.8,40l-0.4,5.8c1.7,0.5,3.5,0.7,5.3,0.7c0.6,0,1.2,0,1.8-0.1L28.7,39.9z
		"/>
	<path class="st62" d="M45.6,19.3c-0.4-0.9-0.9-1.8-1.5-2.7c-3.5-5.4-9.5-8.9-16.4-8.9c-9.3,0-17.1,6.5-19.1,15.2
		c-0.2,1-0.4,2-0.4,3.1c0,0.4-0.1,0.7-0.1,1.1c0,8.9,6,16.4,14.2,18.7c1.7,0.5,3.5,0.7,5.3,0.7c0.6,0,1.2,0,1.8-0.1
		c0.1,0,0.1,0,0.2,0c0-0.2,0-0.5,0-0.6c0.4-1.7,2-2.7,2-2.7l0.6-0.4l2.1,2.2c0,0.1,0,0.2,0.1,0.3c0.5-0.2,1-0.4,1.5-0.6
		c6.7-3.1,11.3-9.8,11.3-17.6C47.3,24.4,46.7,21.7,45.6,19.3z"/>
	<path class="st202" d="M32.3,42.7l-0.6,0.4c0,0-1.6,1-2,2.7c0,0.2,0,0.4,0,0.6c1.2-0.1,2.4-0.3,3.5-0.7c0.4-0.1,0.9-0.3,1.3-0.4
		c0-0.1,0-0.2-0.1-0.3L32.3,42.7z"/>
	<path class="st62" d="M45.6,19.3c-0.4-0.9-0.9-1.8-1.5-2.7c-3.5-5.4-9.5-8.9-16.4-8.9c-9.3,0-17.1,6.5-19.1,15.2
		c-0.2,1-0.4,2-0.4,3.1c0,0.4-0.1,0.7-0.1,1.1c0,8.3,5.3,15.4,12.7,18.2c1.7-6.2,1.9-10.7,1.9-10.7l2.6,2l2.6-1.9
		c0,0,1.4,5.7,2.8,11.6c0.8-0.1,1.6-0.3,2.4-0.5c0.4-0.1,0.9-0.3,1.3-0.4c0.5-0.2,1-0.4,1.5-0.6c6.7-3.1,11.3-9.8,11.3-17.6
		C47.3,24.4,46.7,21.7,45.6,19.3z"/>
	<path class="st204" d="M25.4,36.6l-2.6-2c0,0-0.2,4.4-1.9,10.7c0.5,0.2,1,0.4,1.5,0.5c1.7,0.5,3.5,0.7,5.3,0.7c0.6,0,1.2,0,1.8-0.1
		c0.1,0,0.1,0,0.2,0c0.4,0,0.8-0.1,1.1-0.2C29.5,40.4,28,34.7,28,34.7L25.4,36.6z"/>
	<path class="st211" d="M22.2,35.3c-2.8,2.1-6,3.4-9.5,3.8c-0.1,0-0.3,0-0.4,0c0,0-1.7-2.2-3-7.1c-1.5,0.9-4,2.8-4,2.8
		s3.5,7.6,8.7,6.3c5.2-1.3,10.3-3.8,10.3-3.8L22.2,35.3z"/>
	<g>
		<path class="st212" d="M9.1,31.3c0,0,0.9-1.5,0.4-2.7c-0.5-1.2-2,1.7-2.1,2c-0.4-0.2-2.7-3.1-3.4-2.9c-0.9,0.4,0.9,3,0.9,3
			s-3.1-1.7-3.3-1c-0.2,0.7,2.6,2.4,2.6,2.4s-2.7-0.7-2.9,0.1c-0.1,0.6,1.6,1.3,3.4,1.7c0.5,1,1,1.9,1,1.9L10,34
			C10,34,9.7,33.1,9.1,31.3z"/>
		<g>
			<path class="st209" d="M7.1,30.7c-0.5,0.3-0.9,0.6-1.2,1.1c-0.3,0.4-0.4,1-0.6,1.5c-0.1-0.3-0.1-0.6,0-0.9c0-0.3,0.2-0.6,0.3-0.8
				C6,31.2,6.5,30.8,7.1,30.7z"/>
		</g>
	</g>
	<path class="st213" d="M24.3,37.5c-1.9,1.1-3.9,2.1-5.8,2.6l-0.8-2.7l5-2.8l1.3,2.3L24.3,37.5z"/>
	<g>
		<path class="st205" d="M25.4,36.6c0.6,0.8,1.2,1.6,1.8,2.4L27,39c0.3-1.4,0.6-2.9,1.1-4.3c-0.2,1.5-0.5,2.9-0.8,4.3l-0.1,0.3
			L27,39.1C26.4,38.3,25.9,37.5,25.4,36.6z"/>
	</g>
	<circle class="st205" cx="25.4" cy="37.7" r="0.4"/>
	<circle class="st205" cx="25.4" cy="38.9" r="0.4"/>
	<g>
		<path class="st205" d="M25.4,36.6c-0.5,0.8-1,1.7-1.6,2.5l-0.1,0.2l-0.1-0.3c-0.3-1.5-0.6-2.9-0.8-4.4c0.4,1.4,0.8,2.9,1.1,4.4
			l-0.2,0C24.2,38.2,24.8,37.4,25.4,36.6z"/>
	</g>
	<g>
		<path class="st214" d="M19.8,39.6c-0.3-0.4-0.4-0.8-0.6-1.3c-0.1-0.4-0.3-0.9-0.3-1.4c0.3,0.4,0.4,0.8,0.6,1.3
			C19.6,38.7,19.8,39.1,19.8,39.6z"/>
	</g>
</g>
</svg>
