<?xml version="1.0" encoding="utf-8"?>
<!-- Generator: Adobe Illustrator 19.2.0, SVG Export Plug-In . SVG Version: 6.00 Build 0)  -->
<!DOCTYPE svg PUBLIC "-//W3C//DTD SVG 1.1//EN" "http://www.w3.org/Graphics/SVG/1.1/DTD/svg11.dtd">
<svg version="1.1" xmlns="http://www.w3.org/2000/svg" xmlns:xlink="http://www.w3.org/1999/xlink" x="0px" y="0px"
	 viewBox="0 0 220 80" enable-background="new 0 0 220 80" xml:space="preserve" width="220" height="80" preserveAspectRatio="none">
<g id="BG" display="none">
	<rect x="-555.8" y="-127" display="inline" fill="#C2B59B" width="1496" height="1244"/>
</g>
<g id="Clod">
	<polygon fill="#6E6F72" points="65.2,17.2 209,13.8 204.7,68.8 53.2,67 	"/>
	<polygon fill="#939598" points="50.9,24.1 202.5,18 198.6,64.6 52.2,61.1 	"/>
	<circle fill="#6E6F72" cx="44.5" cy="42.8" r="34.3"/>
	<circle fill="#939598" cx="44.5" cy="42.1" r="28.9"/>
	<g>
		<defs>
			<path id="SVGID_23_" d="M81.8,12.1L53.6,2.4L8.2,12.9l1.1,31.3l6.2,33.3l8.4,0.6l5.3-12.6c4.3,2.7,9.3,4.3,14.7,4.3
				c6.9,0,11.6-1.2,16.4-5.4l1.6,0.3l7.6,14.9l13.6-15.9l0.9-27.9L81.8,12.1z"/>
		</defs>
		<clipPath id="SVGID_4_">
			<use xlink:href="#SVGID_23_"  overflow="visible"/>
		</clipPath>
		<path clip-path="url(#SVGID_4_)" fill="#E7E7E7" d="M78.7,58.9c0,0,0.2-4.9-3.7-2.5l-0.7,0.4c0,0,0.2-1.4,2.2-1.7
			c0,0-0.4-1.5-1.8-1.2c-0.6,0.1-1.7,1-1.7,3l-3.6-4.4c-0.4,0.4-0.7,0.7-0.9,1.1c-2.7-1.4-6.2-1.4-9.1-0.9c-0.7-2.7-1.5-5-2.3-6.7
			c4.3-1.5,7.1-1.2,8.9-0.4c-0.1,1.3,0.4,2.1,0.4,2.1l4-0.3c0,0-4.1,1.8,0.4,4c0,0-0.3-1.3-0.3-2c0-0.8,0.8-1.4,0.8-1.4
			s3,0.7,4.1,3.7c0,0,2.8-3.2-1.5-4.4l-1.4-0.2c0,0,3.7-0.9,4.9,0c0,0-0.4-4.9-4-2l-0.6,0.4c0,0,0-1.5,2-2c0,0-0.6-1.4-2-1
			c-0.5,0.2-1.5,1.2-1.3,3.2l-4.1-3.9c-0.3,0.4-0.6,0.8-0.7,1.2C63.3,41.9,59,42.9,56,44c-0.1-0.1-0.1-0.2-0.2-0.3
			c-0.7-0.8-1.5-1.5-2.2-2.2c1.5-0.3,3-1,4-2.2c0,0,0.1-0.1,0.1-0.1c1.4,1,2.8,1.5,4.3,1.4c4.7-0.4,5.6-3.8,5.6-3.8
			s-3.1-0.2-3.2-2.5c-0.1-1,0.3-1.6,0.7-2.3c0.1,0,0.2,0,0.3-0.1c0.1,0,0.2,0,0.2,0c0.5-0.1,1-0.2,1.5-0.3c0.1,0,0.2-0.1,0.3-0.1
			c0.5-0.1,1-0.3,1.5-0.5c0.3-0.1,0.6-0.2,0.8-0.4c0.1,0,0.2-0.1,0.2-0.1c0.2-0.1,0.4-0.2,0.6-0.3c0.1-0.1,0.2-0.1,0.2-0.2
			c0.2-0.1,0.4-0.3,0.6-0.4c0,0,0.1-0.1,0.1-0.1c0.2-0.2,0.5-0.4,0.7-0.6c0.1-0.1,0.1-0.1,0.2-0.2c0.2-0.2,0.3-0.3,0.5-0.5
			c0.1-0.1,0.1-0.1,0.2-0.2c0.1-0.2,0.3-0.3,0.4-0.5c0.1-0.1,0.1-0.1,0.2-0.2c0.2-0.2,0.3-0.4,0.5-0.7c0-0.1,0.1-0.1,0.1-0.2
			c0.1-0.2,0.2-0.3,0.3-0.5c0.1-0.1,0.1-0.2,0.2-0.2c0.1-0.1,0.2-0.3,0.2-0.4c0-0.1,0.1-0.2,0.1-0.2c0.1-0.2,0.2-0.3,0.2-0.5
			c0-0.1,0.1-0.2,0.1-0.3c0.1-0.1,0.1-0.3,0.2-0.4c0-0.1,0.1-0.2,0.1-0.3c0-0.1,0.1-0.2,0.1-0.3c0-0.1,0.1-0.2,0.1-0.2
			c0,0,0,0,0-0.1c0,0,0,0,0,0c0.2-0.7,0.2-1.2,0-1.3c-0.7-0.7-7.5-0.5-13,1.7c-1.6-1.2-3.2-1.7-3.2-1.7l5.4-2.4
			c0,0-4.6-5.5-11.3-7.4l1.6-0.6c0,0-5.4-2.6-9.6-1.5c-2,0.5-3.4,1.4-4.4,2.2l2.1-2.7c0,0-9.4-0.5-13.6,4.4
			c-1.3,1.5-1.7,3.2-1.8,4.7c-0.6-0.1-1.1-0.2-1.5,0c-1,0.5,1.7,2.5,1.7,2.5s-3.6-1.5-4.2-0.5c-0.6,0.9,2.1,2.1,2.1,2.1
			s-1.5,0.3-2.2,1c-4-1.7-8.4-2.3-8.8-1.7c-0.1,0.2,0,0.6,0.2,1.3c0,0,0,0,0,0c0,0,0,0,0,0.1c0,0.1,0,0.1,0.1,0.2
			c0,0.1,0.1,0.2,0.1,0.3c0,0.1,0.1,0.2,0.1,0.2c0.1,0.1,0.1,0.3,0.2,0.4c0,0.1,0.1,0.1,0.1,0.2c0.1,0.2,0.2,0.3,0.2,0.5
			c0,0.1,0.1,0.2,0.1,0.2c0.1,0.1,0.1,0.3,0.2,0.4c0,0.1,0.1,0.2,0.1,0.2c0.1,0.2,0.2,0.3,0.3,0.5c0,0,0.1,0.1,0.1,0.1
			c0.1,0.2,0.3,0.4,0.4,0.6c0,0.1,0.1,0.1,0.1,0.2c0.1,0.2,0.2,0.3,0.4,0.5c0,0.1,0.1,0.1,0.2,0.2c0.1,0.2,0.3,0.3,0.4,0.5
			c0,0,0.1,0.1,0.1,0.1c0.2,0.2,0.4,0.4,0.5,0.6c0,0,0.1,0.1,0.1,0.1c0.2,0.1,0.3,0.3,0.5,0.4c0.1,0.1,0.1,0.1,0.2,0.2
			c0.1,0.1,0.3,0.2,0.4,0.3c0.1,0,0.1,0.1,0.2,0.1c0.2,0.1,0.4,0.3,0.6,0.4c0.3,0.2,0.7,0.3,1,0.5c0.1,0,0.2,0.1,0.2,0.1
			c0.3,0.1,0.7,0.3,1.1,0.4c0.1,0,0.1,0,0.2,0c0.3,0.1,0.7,0.2,1,0.3c0.1,0,0.1,0,0.2,0c0.3,0.1,0.6,0.1,0.9,0.2
			c0.2,1.6,0.7,3,1.2,4.1c-0.4,0.3-0.7,0.6-1.1,0.9c-1.7,1-4.8,1-4.6-1.9c0.2-2.9,3.5-1.8,3.5-1.8s-1.9-1.2-3.8-0.9
			c-1.8,0.4-5.1,8.4,2.4,10.1c4.9,1.2,9.8-2.5,9.8-2.5s-0.2,1.1,0.6,1.6c0.8,0.4,2.7-1.9,2.7-1.9s-0.1,0.5-0.1,1
			c-0.7,1-1.1,2.1-1.3,3.3c-0.2,0.3-0.4,0.7-0.6,1.1c-2.6-0.6-5.5-0.9-8,0c-0.2-0.4-0.4-0.8-0.7-1.2L21.6,48c0.3-2-0.7-3-1.3-3.2
			c-1.3-0.4-2,1-2,1c1.9,0.5,2,2,2,2l-0.6-0.4c-3.6-2.9-4,2-4,2c1.2-1,4.9,0,4.9,0l-1.4,0.2c-4.3,1.3-1.5,4.4-1.5,4.4
			c1.1-3,4.1-3.7,4.1-3.7s0.7,0.6,0.8,1.4c0,0.8-0.3,2-0.3,2c4.5-2.3,0.4-4,0.4-4l4,0.3c0,0,0.5-0.8,0.4-2.1c1.4-0.6,3.5-1,6.5-0.3
			c-0.7,1.8-1.3,3.8-1.8,6c-2.3-0.1-4.8,0.1-6.8,1.2c-0.2-0.4-0.5-0.7-0.9-1.1l-3.6,4.4c0-2-1.1-2.9-1.7-3c-1.4-0.2-1.8,1.2-1.8,1.2
			c2,0.3,2.2,1.7,2.2,1.7l-0.7-0.4c-4-2.4-3.7,2.5-3.7,2.5c1.1-1.2,4.9-0.7,4.9-0.7l-1.4,0.4c-4.1,1.8-0.8,4.6-0.8,4.6
			c0.7-3.1,3.5-4.2,3.5-4.2s0.8,0.5,0.9,1.3c0.1,0.8,0,2.1,0,2.1c4.1-2.9-0.2-4-0.2-4l4-0.3c0,0,0.4-0.9,0.1-2.2
			c1.2-0.7,2.9-1.3,5.3-1.2c-0.5,2.2-0.8,4.4-1.2,6.6c-1.4,0.4-2.8,1-4,1.9c-0.3-0.3-0.6-0.6-1-0.9l-2.8,4.9c-0.3-2-1.6-2.7-2.1-2.7
			c-1.4,0-1.6,1.5-1.6,1.5c2-0.1,2.5,1.3,2.5,1.3l-0.7-0.2C16,66.4,17,71.2,17,71.2c0.9-1.3,4.7-1.5,4.7-1.5l-1.3,0.6
			c-3.7,2.5-0.1,4.7-0.1,4.7c0.2-3.2,2.8-4.8,2.8-4.8s0.9,0.3,1.1,1.1c0.2,0.8,0.3,2,0.3,2c3.6-3.5-0.9-4-0.9-4l3.9-0.9
			c0,0,0.2-1-0.3-2.3c0.6-0.6,1.3-1.2,2.4-1.6c-1.2,9-1.4,17.1-1.4,17.1c2.4,2.3,5.4,2.6,5.4,2.6c-0.2-0.8-0.4-2.4-0.5-4.7
			c0.9-0.2,2-0.5,3.4-0.8c-0.4,2.8-0.6,6.2-0.4,9.6l0,0c0,0,0,0,0,0c0,0-2.6-0.5-4.3,1.1c-8.2,0.8-13.7,2.4-13.7,4.3
			c0,2.7,11.6,4.9,25.8,4.9c14.3,0,25.8-2.2,25.8-4.9c0-2.2-7.7-4.1-18.3-4.7c-1.3-2.6-2.7-6.3-3.2-11.1c2.1,0.1,4.2,0.3,5.8,0.6
			c-0.8,3.9-1.6,6.5-1.6,6.5C59.3,85,63,82.8,63,82.8c0.6-3.8,0.1-10.9-1-18.1c1.5,0.4,2.6,1.1,3.4,1.8c-0.4,1.2-0.2,2.2-0.2,2.2
			l3.9,0.9c0,0-4.4,0.5-0.9,4c0,0,0.1-1.3,0.3-2c0.2-0.8,1.1-1.1,1.1-1.1s2.6,1.6,2.8,4.8c0,0,3.7-2.2-0.1-4.7l-1.3-0.6
			c0,0,3.8,0.2,4.7,1.5c0,0,1-4.8-3.3-3.1l-0.7,0.2c0,0,0.5-1.4,2.5-1.3c0,0-0.2-1.5-1.6-1.5c-0.6,0-1.8,0.7-2.1,2.7l-2.8-4.9
			c-0.4,0.3-0.8,0.6-1.1,0.9c-1.5-1.1-3.2-1.7-5.1-2.1c-0.4-2.6-1-5.3-1.5-7.7c3.7-0.5,6.1,0.1,7.6,1.1c-0.2,1.3,0.1,2.2,0.1,2.2
			l4,0.3c0,0-4.3,1.2-0.2,4c0,0-0.1-1.3,0-2.1c0.1-0.8,0.9-1.3,0.9-1.3s2.8,1.1,3.5,4.2c0,0,3.3-2.8-0.8-4.6l-1.4-0.4
			C73.9,58.2,77.6,57.8,78.7,58.9z M47,89.1c-1,0-1.9,0-2.9,0c-1.3,0-2.5,0-3.7,0.1c-0.6-1.8-1.3-5.2-1.1-10.7
			c1.4-0.2,2.9-0.3,4.5-0.3c0.7,0,1.5,0,2.2,0C46.1,81.7,46.3,86.1,47,89.1z"/>
	</g>
</g>
<g id="Locks">
	<path opacity="0.15" fill="#231F20" d="M57.1,28.2l-4.4,1.5l-3.1-13.7c0,0-17.5-11.3-22.3,5.5l4.2,15.6L26.3,39l6.8,30.2L72,56.8
		L57.1,28.2z M35,27.1c0,0,1.1-7.9,9.9-4.6l3.6,8.7l-11.7,4.1L35,27.1z M47.2,58.4l-2.2-8.9c-1.7-0.4-3.1-1.8-3.4-3.6
		c-0.3-2.4,1.4-4.6,3.8-4.9s4.7,1.3,5,3.7c0.1,1-0.1,2-0.6,2.9l4.9,7.2L47.2,58.4z"/>
</g>
</svg>
