<?xml version="1.0" encoding="utf-8"?>
<!-- Generator: Adobe Illustrator 19.2.0, SVG Export Plug-In . SVG Version: 6.00 Build 0)  -->
<!DOCTYPE svg PUBLIC "-//W3C//DTD SVG 1.1//EN" "http://www.w3.org/Graphics/SVG/1.1/DTD/svg11.dtd">
<svg version="1.1" xmlns="http://www.w3.org/2000/svg" xmlns:xlink="http://www.w3.org/1999/xlink" x="0px" y="0px"
	 viewBox="0 0 150 164" enable-background="new 0 0 150 164" xml:space="preserve" width="150" height="164" preserveAspectRatio="none">
<g id="PB1">
</g>
<g id="PB2">
</g>
<g id="PB3">
</g>
<g id="Kraken">
</g>
<g id="Fiona">
</g>
<g id="Clod">
</g>
<g id="Announcer">
</g>
<g id="R_x26_G">
</g>
<g id="Q">
	<polygon opacity="0.3" fill="#231F20" points="9.9,32.1 16.7,126.8 141.4,128 141.4,32.1 	"/>
	<polygon fill="#FDF5A5" points="7.5,29.5 14.1,124.3 138.9,125.5 138.9,29.5 	"/>
	<polygon fill="#6E6F72" points="7.5,29.5 14.1,124.3 138.9,125.5 138.9,29.5 	"/>
	<g>
		<defs>
			<path id="SVGID_63_" d="M142.9,51.4c0-34.5-30.7-62.4-68.5-62.4C36.5-11,5.8,16.9,5.8,51.4c0,12.4,4,23.9,10.8,33.7l3.1,35.4
				h114.9V81.2C139.9,72.3,142.9,62.2,142.9,51.4z"/>
		</defs>
		<clipPath id="SVGID_2_">
			<use xlink:href="#SVGID_63_"  overflow="visible"/>
		</clipPath>
		<g clip-path="url(#SVGID_2_)">
			<ellipse opacity="0.1" fill="#E7E7E7" cx="78.2" cy="150.8" rx="66.1" ry="6.9"/>
			<g>
				
					<ellipse transform="matrix(0.8091 -0.5877 0.5877 0.8091 -1.9979 57.8895)" fill="#E7E7E7" cx="88.1" cy="32" rx="9.3" ry="16.3"/>
				<path fill="#E7E7E7" d="M84.7,24.7c-0.2,0.2-0.4,0.4-0.6,0.6c-0.2,0.2-0.3,0.5-0.4,0.7c-0.5,1.4-0.6,3-0.6,4.4
					c0,1.8,0.3,3.6,0.7,5.4c0.1,0.3,0.1,0.5,0.2,0.8c0.1,0.3,0.1,0.5,0.2,0.8l-1,0c0.1-0.3,0.2-0.6,0.3-0.8c0.1-0.3,0.2-0.5,0.3-0.8
					c1.6-3.5,5.3-5.9,9.1-6.2c-2.3,0.5-4.5,1.8-6.1,3.6c-1.6,1.8-2.7,4-3,6.4c-0.3-0.9-0.6-1.8-0.8-2.7C83,36.6,83,36.3,82.9,36
					c-0.3-1.7-0.5-3.4-0.4-5.1c0.1-1.6,0.2-3.6,1.1-5c0.2-0.2,0.3-0.5,0.5-0.7C84.3,25,84.5,24.8,84.7,24.7z"/>
				<path fill="#E7E7E7" d="M86.4,39.7c0,0,0.2,0,0.5,0.1c0.3,0,0.7,0.1,1.3,0.1c2.7,0,5.1-0.6,7.5-1.8c1-0.5,1.6-0.9,1.6-0.9
					s-0.6,0.4-1.5,1c-2.3,1.4-4.8,2.2-7.5,2.3c-0.5,0-1,0-1.3,0c-0.3,0-0.5,0-0.5,0L86.4,39.7z"/>
				<path fill="#E7E7E7" d="M77.6,43.2l5.3-6.1c0,0,1.6-0.2,3.5,1.7c1.9,1.9,1.5,3.2,1.5,3.2l-5.4,4.6L77.6,43.2z"/>
				<path fill="#E7E7E7" d="M86.1,41.1c-1-1.2-2.3-2-3.7-2.5c-0.2-0.1-0.4-0.1-0.6-0.2l-0.1,0.1c0.2,0.1,0.5,0.2,0.7,0.3
					c0.7,0.3,1.5,0.7,2.1,1.2c0.6,0.5,1.2,1,1.6,1.7c0.1,0.2,0.3,0.4,0.4,0.6c0.1,0.2,0.3,0.5,0.4,0.7l0.3-0.2
					c-0.1-0.2-0.2-0.4-0.3-0.6C86.6,41.7,86.4,41.4,86.1,41.1z"/>
				<path fill="#E7E7E7" d="M84.1,43.1c-0.4-0.6-0.9-1.2-1.4-1.8c-0.6-0.6-1.4-1-2.3-1.3l-0.1,0.1c0.2,0.1,0.4,0.2,0.5,0.2
					c0.7,0.4,1.3,0.8,1.8,1.3c0.4,0.5,0.8,1,1.1,1.5c0.2,0.2,0.3,0.5,0.5,0.8c0,0.1,0.5,0.8,0.5,0.8l0.3-0.2
					C84.7,44,84.4,43.5,84.1,43.1z"/>
			</g>
			<g>
				
					<ellipse transform="matrix(0.8628 -0.5056 0.5056 0.8628 -3.9539 23.4497)" fill="#E7E7E7" cx="41.2" cy="19" rx="2.9" ry="5.7"/>
				<path fill="#E7E7E7" d="M54.1,37.7c0,0-1.3-9.8-6.2-16.6c-4.9-6.7-8.1-7.1-8.1-7.1l3.6,10.2c0,0,1.3-0.6,2.7,0.3
					c5.6,3.7,6.2,13.5,6.2,13.5L54.1,37.7z"/>
				<path fill="#E7E7E7" d="M43.2,18.3c1,1.9,0.7,4.5,0,5c-0.7,0.4-2.2-0.7-3.3-2.6c-1.1-1.9-1.6-4.4-0.9-4.9
					C39.7,15.4,41.9,15.6,43.2,18.3z"/>
			</g>
			<path fill="#E7E7E7" d="M23.9,141.1c0,0-1.1,2-1,4.7c0.1,2.7,0.7,4.4,1.2,4.6c0.6,0.2,4.4-5.4,4.4-5.4s-0.2-1.4-1.5-2.4
				C25.7,141.5,23.9,141.1,23.9,141.1z"/>
			<path fill="#E7E7E7" d="M27.3,143.3c0,0-0.3,2.2,0.8,4.7c1.1,2.5,2.2,3.9,2.9,3.9c0.6,0,2.1-6.6,2.1-6.6s-0.7-1.2-2.3-1.7
				C29.2,143,27.3,143.3,27.3,143.3z"/>
			<path fill="#E7E7E7" d="M31,144.8c0,0,0.3,2.2,2,4.3c1.7,2.1,3.2,3.2,3.8,3c0.6-0.2,0.3-7,0.3-7s-1-1-2.6-1.1
				C32.7,144,31,144.8,31,144.8z"/>
			<path fill="#E7E7E7" d="M143.9,87.7c-8.2-5.8-15.3-3.5-17.5-2.8c-19.5,6.3-5.5,24.7,6.6,40.5c1,1.3,5.6,7.2,8.1,6.9
				C143.9,132,158.2,97.8,143.9,87.7z"/>
			<path fill="#E7E7E7" d="M141.2,132.3c0.1,0,1.1-0.8,1.4-1.2c1.1-1.6,1.8-3.6,2.6-5.4c0.3-0.7,1.4-2.4,1.2-3.2
				c-0.1-0.6-0.2-1.2-0.3-1.8c-2.3-10.3-11.5-13.1-11.5-13.1s-9.7-2.9-15.1-1.9c2.5,5,5.7,9.5,9,14c1.8,2.5,3.5,5,5.5,7.4
				c1,1.2,2.1,2.3,3.3,3.4C138.2,131.1,139.7,132.7,141.2,132.3z"/>
			<path fill="#E7E7E7" d="M140.8,123.3c2.3-1.1,3.7-3.4,4.4-5.4c-0.1-0.3-0.2-0.6-0.4-0.9c-0.6,2.1-1.9,4.7-4.3,5.6
				c-3.7,1.5-7.8,0.4-10.1-0.4c0.1,0.1,0.1,0.1,0.2,0.2c1.5,0.7,3.9,1.6,6.5,1.7C138.2,124.1,139.5,123.9,140.8,123.3z"/>
			<path fill="#E7E7E7" d="M126.1,116.4c4-0.1,10.8-0.7,13.3-3.6c0.5-0.5,0.8-1.1,1-1.7c-0.4-0.3-0.7-0.6-1.1-0.9
				c-0.2,0.5-0.5,1-0.9,1.5c-2.2,2.7-8.7,4-12.6,4.5C126,116.2,126.1,116.3,126.1,116.4z"/>
			<path fill="#E7E7E7" d="M125.8,85.1c0,0-0.6-4-9.2-9.7c-8.6-5.7-17.2-4.6-17.2-4.6s-6.3,0.5-13,10.8
				c-7.9,12.2-21.3,70.4,9.7,70.4c9.8,0,10.8,0,13,0c9.7,0,22.9-26.7,22.9-26.7s3.5-12,2.8-19C133.5,92,125.8,85.1,125.8,85.1z"/>
			<path fill="#E7E7E7" d="M123.5,81.7c0.1,0.1,0.2,0.2,0.3,0.2c0.2,0.2,0.5,0.4,0.8,0.7c4,3.8,5.7,9.2,5.5,14.6
				c-0.1,2.9-0.7,5.9-1.6,8.7c-0.4,1.4-1,2.8-1.5,4.2c-0.5,1.2-1.1,2.3-1.7,3.4c0,0.1-0.1,0.1-0.1,0.2c0-0.9,0.5-2,0.7-2.9
				c0.2-1,0.5-2,0.7-3c0.4-2.1,0.8-4.2,1.1-6.3c0.3-2.2,0.6-4.5,0.5-6.7C128,90.2,126.2,85.4,123.5,81.7z"/>
			<path fill="#E7E7E7" d="M133.7,98.8c0,0,0.2,0.7,0.5,2.1c1.9,9.6,0.6,19.8-3.6,28.7c-2.6,5.6-6.2,10.8-10.7,15
				c0.5-0.5,0.7-1.2,1.1-1.8c0.7-1,1.4-2,2-3c1.3-2.1,2.5-4.2,3.6-6.4c2.2-4.4,3.9-9,5.1-13.7c0.8-3.2,1.2-6.6,1.5-9.9
				c0.4-3.5,0.6-7,0.3-10.5C133.7,99,133.7,98.8,133.7,98.8z"/>
			<path fill="#E7E7E7" d="M99.2,108.9c1.2-15.3,2.1-29.9,1-36.6c-0.1-0.5-0.2-1-0.3-1.5c-0.2,0-0.3,0-0.3,0S98.1,64,96.1,60
				c-7.7-15.4-25.7-25.5-38.9-24c-13.2,1.4-7.4,15.7-7.4,15.7s-28-14.3-36,54.9c-5.1,43.7,30.3,45.5,30.3,45.5s54.4-0.1,56.1-0.1
				c8.1,0,12.2-7.3,9.8-19C107.6,121.3,98.5,121.4,99.2,108.9z"/>
			<path fill="#E7E7E7" d="M100.6,152.1c-4.5-2-9-4.9-12.6-8.7c-11.4-12.3-5.7-80.7-5.7-80.7s-4.7,3.3-9.1,0.9
				c-5-2.8-4.4-4.1-6.8-7.1c-2-2.5-3.1-2.7-3.1-2.7h-4.3c0,0-2.3,7.7-8.3,8.6c-5.9,1-8.9-3.9-8.9-3.9s-20.3,37.3-17.8,62.7
				c1.1,11.3,2.9,19.7,4.6,25.5c7.7,4.9,15.4,5.3,15.4,5.3S82,152.1,100.6,152.1z"/>
			<path fill="#E7E7E7" d="M61.2,147.2c-26,0-34.3-2.9-34.6-3.1l0.2-0.7c0.1,0,8.5,3,34.4,3c26.9,0,32.1-2.7,32.2-2.8l0.3,0.6
				C93.5,144.5,88.4,147.2,61.2,147.2z"/>
			<path fill="#E7E7E7" d="M58,88.8c-26,0-34.3-2.9-34.6-3.1l0.2-0.7c0.1,0,8.5,3,34.4,3c26.9,0,32.1-2.7,32.2-2.8l0.3,0.6
				C90.3,86.1,85.2,88.8,58,88.8z"/>
			<path fill="#E7E7E7" d="M94.7,57.8c0,0,0.1,0.2,0.4,0.5c2.3,3.1,3.8,6.8,4.8,10.6c0.8,3,1.2,6.1,1.3,9.2c0,0.8,0.1,1.6,0.1,2.4
				c0.1,9.5-0.4,19.1-2.1,28.5c0,0,0-0.2,0-0.6c0-0.4,0-0.9,0-1.7c0-4.8,0-9.5,0-14.3c0.1-9.7,0.7-19.8-2.2-29.2
				c-0.5-1.7-1.1-3.3-1.9-4.9C94.8,57.9,94.7,57.8,94.7,57.8z"/>
			<path fill="#E7E7E7" d="M54.6,102.4c-20.3,0-31.4-4-31.6-4.1l0.2-0.7c0.2,0.1,22.4,8.1,61.9,1.3l0.1,0.7
				C73.4,101.7,63.2,102.4,54.6,102.4z"/>
			<path fill="#E7E7E7" d="M52.2,117c-5.7,0-11.5-0.3-17.1-1.2c-10.4-1.6-15.1-4.1-15.2-4.2l0.3-0.6c0,0,4.7,2.6,15.1,4.2
				c17.3,2.6,36.8,0.4,50.1-2l0.1,0.7C76.4,115.4,64.4,117,52.2,117z"/>
			<path fill="#E7E7E7" d="M50.3,133.2c-4.9,0-9.2-0.3-12.8-0.7c-11.2-1.3-17.8-4-17.8-4l0.3-0.7c0.1,0,6.6,2.6,17.7,3.9
				c10.3,1.2,26.7,1.5,46.7-3.9l0.2,0.7C71.4,132.1,59.7,133.2,50.3,133.2z"/>
			<path fill="#E7E7E7" d="M126.6,137.2c0,0,0.8,0.2,1.7-0.2c0.9-0.3,1.4-0.7,1.4-0.9c0-0.2-2.3-0.9-2.3-0.9s-0.5,0.2-0.7,0.8
				C126.6,136.5,126.6,137.2,126.6,137.2z"/>
			<path fill="#E7E7E7" d="M86.9,142.3c0,0-1.1,2-1,4.7c0.1,2.7,0.7,4.4,1.2,4.6c0.6,0.2,4.4-5.4,4.4-5.4s-0.2-1.4-1.5-2.4
				C88.8,142.8,86.9,142.3,86.9,142.3z"/>
			<path fill="#E7E7E7" d="M90,145.1c0,0-0.2,2.3,1.1,4.6c1.3,2.4,2.6,3.7,3.2,3.6c0.6-0.1,1.6-6.8,1.6-6.8s-0.8-1.2-2.4-1.6
				C91.9,144.6,90,145.1,90,145.1z"/>
			<path fill="#E7E7E7" d="M94.9,147.7c0,0,0.5,2,2.4,3.7c1.8,1.7,3.3,2.5,3.8,2.2c0.5-0.2-0.6-6.4-0.6-6.4s-1-0.8-2.5-0.6
				C96.4,146.7,94.9,147.7,94.9,147.7z"/>
			<path fill="#E7E7E7" d="M100.5,150.2c0,0,1.4,2.1,4.2,3.3c2.8,1.2,4.8,1.5,5.3,1.1c0.5-0.5-3.2-7.1-3.2-7.1s-1.5-0.5-3.2,0.3
				C101.9,148.5,100.5,150.2,100.5,150.2z"/>
			<path fill="#E7E7E7" d="M107.3,150.9c0,0,1.7,1.6,4.4,2c2.7,0.5,4.6,0.3,4.9-0.2c0.3-0.5-4.4-5.6-4.4-5.6s-1.4-0.1-2.8,0.9
				C108.2,149.1,107.3,150.9,107.3,150.9z"/>
			<path fill="#E7E7E7" d="M113.2,149c0,0,1.7,1.1,4.2,1.1c2.5,0,4-0.5,4.2-1c0.2-0.5-4.7-4.2-4.7-4.2s-1.3,0.1-2.3,1.3
				C113.6,147.3,113.2,149,113.2,149z"/>
			<path fill="#E7E7E7" d="M118.3,146.4c0,0,1.4,0.9,3.3,0.8c1.9,0,3.2-0.4,3.4-0.8c0.2-0.4-3.8-3.3-3.8-3.3s-1,0.1-1.8,1
				C118.6,145.1,118.3,146.4,118.3,146.4z"/>
			<path fill="#E7E7E7" d="M121.6,144c0,0,1.1,0.5,2.5,0.3c1.4-0.2,2.3-0.5,2.4-0.9c0.1-0.3-3.1-2.1-3.1-2.1s-0.7,0.1-1.2,0.9
				C121.7,143,121.6,144,121.6,144z"/>
			<path fill="#E7E7E7" d="M123.9,141.8c0,0,1.1,0.2,2.4-0.2c1.3-0.5,2-1,2-1.3c0-0.3-3.2-1.3-3.2-1.3s-0.6,0.3-0.9,1.1
				C123.8,140.9,123.9,141.8,123.9,141.8z"/>
			<path fill="#E7E7E7" d="M125.7,139.4c0,0,0.9,0.2,2-0.2c1-0.4,1.7-0.8,1.7-1.1c0-0.2-2.7-1.1-2.7-1.1s-0.5,0.2-0.8,0.9
				C125.6,138.6,125.7,139.4,125.7,139.4z"/>
			<g>
				
					<ellipse transform="matrix(0.9831 -0.1831 0.1831 0.9831 -1.4889 11.1378)" fill="#E7E7E7" cx="59.6" cy="13.6" rx="3.1" ry="6.2"/>
				<g>
					<path fill="#E7E7E7" d="M65.9,37.5c0,0,2.3-10.5-0.2-19.3C63.2,9.5,60,8,60,8l-0.1,11.7c0,0,1.5-0.1,2.6,1.3
						c4.4,5.8,1.3,16.1,1.3,16.1L65.9,37.5z"/>
					<path fill="#E7E7E7" d="M61.9,13.6c0.3,2.3-0.9,4.9-1.9,5.1c-0.9,0.2-2-1.6-2.4-3.9c-0.4-2.3,0-5.1,0.9-5.3
						C59.4,9.3,61.5,10.3,61.9,13.6z"/>
				</g>
			</g>
			<g>
				<g>
					<path fill="#E7E7E7" d="M56.3,33.6c0,0-0.3,0.6-0.7,1.5c-0.2,0.5-0.3,1-0.4,1.6c-0.3,1.8,0,3.6,0.7,5.2c0.2,0.4,0.4,0.8,0.5,1
						c0.1,0.1,0.1,0.2,0.2,0.3c0,0.1,0.1,0.1,0.1,0.1L56,43.6c0,0,0,0-0.1-0.1c0-0.1-0.1-0.2-0.1-0.3c-0.1-0.3-0.3-0.7-0.4-1.1
						c-0.6-1.8-0.9-3.6-0.4-5.5c0.2-0.6,0.4-1.1,0.6-1.6C55.9,34.2,56.3,33.6,56.3,33.6z"/>
					<path fill="#E7E7E7" d="M59.7,32.6c0,0-0.4,0.5-0.9,1.3c-0.2,0.4-0.5,0.9-0.7,1.5c-0.7,1.7-0.6,3.5-0.2,5.2
						c0.1,0.5,0.2,0.8,0.3,1.1c0,0.1,0.1,0.2,0.1,0.3c0,0.1,0,0.1,0,0.1l-0.7,0.2c0,0,0,0,0-0.1c0-0.1-0.1-0.2-0.1-0.3
						c-0.1-0.3-0.2-0.7-0.2-1.2c-0.3-1.8-0.2-3.7,0.6-5.4c0.3-0.6,0.6-1,0.8-1.4C59.2,33,59.7,32.6,59.7,32.6z"/>
					<path fill="#E7E7E7" d="M61.9,34.2c0,0-0.4,0.5-0.9,1.3c-0.2,0.4-0.5,0.9-0.7,1.5c-0.7,1.7-0.6,3.5-0.2,5.2
						c0.1,0.5,0.2,0.8,0.3,1.1c0,0.1,0.1,0.2,0.1,0.3c0,0.1,0,0.1,0,0.1l-0.7,0.2c0,0,0,0,0-0.1c0-0.1-0.1-0.2-0.1-0.3
						c-0.1-0.3-0.2-0.7-0.2-1.2c-0.1-0.5-0.1-1.1-0.1-1.7c0-1.3,0.2-2.6,0.7-3.8c0.3-0.6,0.6-1,0.8-1.4
						C61.5,34.6,61.9,34.2,61.9,34.2z"/>
					<path fill="#E7E7E7" d="M68.5,34.2c0,0-0.3,0.6-0.7,1.5c-0.2,0.5-0.3,1-0.4,1.6c-0.3,1.8,0,3.6,0.7,5.2c0.2,0.4,0.4,0.8,0.5,1
						c0.1,0.1,0.1,0.2,0.2,0.3c0,0.1,0.1,0.1,0.1,0.1l-0.6,0.4c0,0,0,0-0.1-0.1c0-0.1-0.1-0.2-0.1-0.3c-0.1-0.3-0.3-0.7-0.4-1.1
						c-0.6-1.8-0.9-3.6-0.4-5.5c0.2-0.6,0.4-1.1,0.6-1.6C68.2,34.7,68.5,34.2,68.5,34.2z"/>
					<path fill="#E7E7E7" d="M71.9,33.1c0,0-0.4,0.5-0.9,1.3c-0.2,0.4-0.5,0.9-0.7,1.5c-0.7,1.7-0.6,3.5-0.2,5.2
						c0.1,0.5,0.2,0.8,0.3,1.1c0,0.1,0.1,0.2,0.1,0.3c0,0.1,0,0.1,0,0.1l-0.7,0.2c0,0,0,0,0-0.1c0-0.1-0.1-0.2-0.1-0.3
						c-0.1-0.3-0.2-0.7-0.2-1.2c-0.3-1.8-0.2-3.7,0.6-5.4c0.3-0.6,0.6-1,0.8-1.4C71.5,33.6,71.9,33.1,71.9,33.1z"/>
					<path fill="#E7E7E7" d="M74.1,34.7c0,0-0.4,0.5-0.9,1.3c-1.2,2.1-1.4,4.4-0.9,6.7c0.1,0.5,0.2,0.8,0.3,1.1
						c0,0.1,0.1,0.2,0.1,0.3c0,0.1,0,0.1,0,0.1l-0.7,0.2c0,0,0,0,0-0.1c0-0.1-0.1-0.2-0.1-0.3c-0.1-0.3-0.2-0.7-0.2-1.2
						c-0.3-1.8-0.2-3.7,0.6-5.4c0.3-0.6,0.6-1,0.8-1.4C73.7,35.1,74.1,34.7,74.1,34.7z"/>
				</g>
				<ellipse fill="#E7E7E7" cx="58.5" cy="46.2" rx="4.1" ry="5.1"/>
				<ellipse fill="#E7E7E7" cx="59.3" cy="47.9" rx="1.8" ry="2.3"/>
				<ellipse fill="#E7E7E7" cx="70.1" cy="46.2" rx="4.1" ry="5.1"/>
				<ellipse fill="#E7E7E7" cx="70.3" cy="47.9" rx="1.8" ry="2.3"/>
			</g>
			<g>
				<path fill="#E7E7E7" d="M66.9,52.6c-0.4-1.1-1.5-3-2.4-3c-1,0-2.1,1.5-2.4,2l-0.6-0.3c0.1-0.1,1.4-2.5,3-2.4
					c1.7,0.1,2.9,3.1,3,3.5L66.9,52.6z"/>
				<g>
					<ellipse fill="#E7E7E7" cx="58.1" cy="52.5" rx="4.6" ry="3.3"/>
					<path fill="#E7E7E7" d="M58.1,56.1c-2.8,0-5-1.6-5-3.6c0-2,2.2-3.6,5-3.6c2.8,0,5,1.6,5,3.6C63.1,54.5,60.9,56.1,58.1,56.1z
						 M58.1,49.6c-2.4,0-4.3,1.3-4.3,2.9c0,1.6,1.9,2.9,4.3,2.9c2.4,0,4.3-1.3,4.3-2.9C62.4,50.9,60.5,49.6,58.1,49.6z"/>
				</g>
				<g>
					<ellipse fill="#E7E7E7" cx="71.1" cy="52.5" rx="4.8" ry="3.3"/>
					<path fill="#E7E7E7" d="M71.1,56.1c-2.9,0-5.2-1.6-5.2-3.6c0-2,2.3-3.6,5.2-3.6c2.9,0,5.2,1.6,5.2,3.6
						C76.2,54.5,73.9,56.1,71.1,56.1z M71.1,49.6c-2.5,0-4.5,1.3-4.5,2.9c0,1.6,2,2.9,4.5,2.9c2.5,0,4.5-1.3,4.5-2.9
						C75.5,50.9,73.5,49.6,71.1,49.6z"/>
				</g>
				<circle fill="#E7E7E7" cx="76.8" cy="52.5" r="0.9"/>
				<circle fill="#E7E7E7" cx="52.6" cy="52.5" r="0.9"/>
			</g>
			<g>
				<path fill="#E7E7E7" d="M68.5,57.7c0,0-2.2-2.9-5-4.3c-2.8-1.3-4-0.5-4-0.5s-2.2,2.1-2.1,4.3c0.1,2.2,1.5,5.5,2.5,5.7
					c1,0.2,3.1-0.9,3.1-0.9s0.5,2.2,1.1,2.5c0.5,0.3,2.1-0.5,3.5-2.6C68.9,59.9,68.5,57.7,68.5,57.7z"/>
				<path fill="#E7E7E7" d="M64.9,55.6c0,0,0.1,0.1,0.1,0.4c0.1,0.3,0.1,0.7,0.1,1.2c0,1.8-0.5,3.9-2,5c-0.8,0.6-1.8,0.9-2.7,0.8
					c-0.1,0-0.3,0-0.3,0C60,63,60,63,60,63s0.2,0,0.4-0.1c1.5-0.4,2.8-1.3,3.5-2.7c0.6-1.3,1-2.8,1-4.2C65,55.8,64.9,55.6,64.9,55.6
					z"/>
				<circle fill="#E7E7E7" cx="64.8" cy="55.6" r="0.4"/>
			</g>
			<g>
				<path fill="#E7E7E7" d="M21.7,71.3c0,0,3.6,6.5,5.9,14.1c1.6,5.2,3.2,11.7,3.2,11.7h37.3c0,0,9.1-10.6,16.2-15.8
					c7-5.3,16.8-7.4,16.8-7.4v4.7c0,0-20.9,7.3-16.4,41.7c1.5,11.5,4.1,15.9,4.1,15.9l-69.9-3.7c0,0,3.8-15.1,4.8-27.4
					s-4.1-27.8-4.1-27.8L21.7,71.3z"/>
				<path fill="#E7E7E7" d="M80.8,108.1c0,0,5.5,1.1,10.6-0.2c5.1-1.3,8.5-4.3,8.5-4.3l-0.1,1c0,0-1.8,2.7-6.9,4.6
					c-5.1,1.9-11.4,1.7-11.4,1.7L80.8,108.1z"/>
				<path fill="#E7E7E7" d="M13.5,109c0.1,0.1,0.3,0.1,0.4,0.2c5.1,1.9,11.4,1.7,11.4,1.7l0.7-2.8c0,0-5.5,1.1-10.6-0.2
					c-0.6-0.2-1.2-0.3-1.7-0.5C13.6,107.9,13.6,108.4,13.5,109z"/>
				<path fill="#E7E7E7" d="M60.9,111.1c0,0.6-1,1.2-1.5,1.2l0,0c-0.6,0-1.5-0.2-1.5-0.8l0.5-7.4c0-0.6,0.5-1,1-1l0,0
					c0.6,0,1,0.5,1,1L60.9,111.1z"/>
				<path fill="#E7E7E7" d="M34.9,112.4c0,0.4-1,0.9-1.5,0.9l0,0c-0.6,0-1.5-0.2-1.5-0.6l0.5-5.8c0-0.4,0.5-0.8,1-0.8l0,0
					c0.6,0,1,0.4,1,0.8L34.9,112.4z"/>
				<path fill="#E7E7E7" d="M44.3,112.4c0,0.4-0.9,1-1.4,1l0,0c-0.6,0-1.6-0.1-1.6-0.5l-0.1-5.8c0-0.4,0.4-0.8,0.9-0.9l0,0
					c0.6,0,1.1,0.3,1.1,0.7L44.3,112.4z"/>
				<path fill="#E7E7E7" d="M48,112.7c0,0.4-0.9,1-1.4,1l0,0c-0.6,0-1.6-0.1-1.6-0.5l-0.1-5.8c0-0.4,0.4-0.8,0.9-0.9l0,0
					c0.6,0,1.1,0.3,1.1,0.7L48,112.7z"/>
				<path fill="#E7E7E7" d="M52.5,112.2c0,0.4-1,0.9-1.5,0.9l0,0c-0.6,0-1.5-0.1-1.5-0.6l0.4-5.8c0-0.4,0.4-0.8,1-0.8l0,0
					c0.6,0,1,0.4,1,0.8L52.5,112.2z"/>
				<rect x="57.2" y="106.1" fill="#E7E7E7" width="4.5" height="2.3"/>
				<path fill="#E7E7E7" d="M62.9,113c0,0.6-0.6,1.1-1.3,1.1h-4.1c-0.7,0-1.3-0.5-1.3-1.1v-4.4c0-0.6,0.6-1.1,1.3-1.1h4.1
					c0.7,0,1.3,0.5,1.3,1.1V113z"/>
				<path fill="#E7E7E7" d="M31.2,111.9c0,0.4-1,0.9-1.5,0.9l0,0c-0.6,0-1.5-0.2-1.5-0.6l0.5-5.8c0-0.4,0.5-0.8,1-0.8l0,0
					c0.6,0,1,0.4,1,0.8L31.2,111.9z"/>
				<g>
					<polygon fill="#E7E7E7" points="37.5,113.7 53.5,114.5 53.2,109.7 37.5,109.7 					"/>
					<polygon fill="#E7E7E7" points="54.3,128.9 53.5,115.2 37.5,114.5 37.5,128.1 					"/>
					<path fill="#E7E7E7" d="M54.4,109.7l0.2,4.9l11.8,0.6c-0.1-3.2,0-5.5,0-5.5H54.4z"/>
					<path fill="#E7E7E7" d="M66.4,115.7l-11.8-0.5L55,129l12.9,0.6c0,0,0,0-0.9-6.4C66.7,120.7,66.5,118,66.4,115.7z"/>
					<polygon fill="#E7E7E7" points="36.9,114.5 26.9,114.1 26,127.5 36.3,128 					"/>
					<polygon fill="#E7E7E7" points="36.9,113.7 37.1,109.9 37.2,109.7 27.2,109.7 27,113.2 					"/>
				</g>
			</g>
			<g>
				<path fill="#E7E7E7" d="M94.5,93.2c-1.9,0.9-16.3,4-18.6,5.6c-2.3,1.6,1,5.5,1,5.5s6,10.9,12.5,9c6.5-1.9,8.1-15.9,8.1-15.9
					L94.5,93.2z"/>
				<path fill="#E7E7E7" d="M76.9,104.3c0,0,0.3,0.5,0.9,1.2c0.6,0.8,1.5,1.9,2.6,3.1c0.6,0.6,1.2,1.2,1.9,1.8
					c0.7,0.6,1.5,1.2,2.3,1.7c0.8,0.5,1.8,0.9,2.7,0.9c0.9,0.1,1.9-0.1,2.7-0.5c0.8-0.4,1.6-1.2,2.2-2c0.6-0.8,1.2-1.7,1.6-2.6
					c0.5-0.9,0.9-1.8,1.2-2.7c0.3-0.9,0.6-1.7,0.9-2.5c0.5-1.6,0.9-2.9,1.2-3.9c0.3-1,0.4-1.5,0.4-1.5s0,0.6-0.1,1.6
					c-0.1,1-0.2,2.4-0.5,4.1c-0.2,0.8-0.4,1.7-0.6,2.7c-0.3,0.9-0.6,1.9-1,2.9c-0.4,1-1,2-1.7,3c-0.7,0.9-1.6,1.9-2.7,2.5l-0.5,0.2
					l-0.1,0.1l-0.1,0l-0.2,0.1l-0.2,0.1l-0.1,0c-0.1,0,0,0-0.1,0l0,0l0,0l-0.1,0l-0.5,0.1c-0.6,0.1-1.3,0.1-1.9,0
					c-0.3,0-0.6-0.1-0.9-0.2c-0.3-0.1-0.6-0.2-0.9-0.3c-0.6-0.2-1.1-0.5-1.5-0.8c-0.9-0.6-1.7-1.4-2.4-2.1c-0.7-0.7-1.3-1.5-1.8-2.2
					c-1-1.4-1.7-2.6-2.1-3.5c-0.2-0.4-0.4-0.8-0.5-1C76.9,104.4,76.9,104.3,76.9,104.3z"/>
				<path fill="#E7E7E7" d="M77.7,104.1c-1.8,0.3-5.4,1.3-7.6,2.2c-0.3,0.1-0.8,0.2-1-0.1c-0.1-0.1-0.1-0.3-0.1-0.4
					c-0.3-2.1,0.7-3.9,2.6-5c-1-0.1-2.1-0.1-3.1-0.2c-0.2,0-0.4,0-0.6-0.2c-0.3-0.3,0-0.7,0.3-1c1.2-1.2,2.9-1.9,4.6-2
					c1.7-0.1,3.4,0.2,5,0.8V104.1z"/>
			</g>
			<path fill="#E7E7E7" d="M20.5,86.7c0,0,3.7,6.2,5.5,7.3c1.9,1,10-1,12.8-0.6c2.8,0.4,1.1,3.9,1.1,3.9c-2.1,8.4-8,14.2-12.4,14.1
				c-5.2-0.2-11.1-8.7-9.8-21.2C18.7,89,19.6,87.9,20.5,86.7z"/>
			<path fill="#E7E7E7" d="M39.9,97.6c0,0-0.1,0.5-0.4,1.5c-0.3,0.9-0.8,2.2-1.5,3.7c-0.4,0.8-0.8,1.6-1.3,2.4
				c-0.5,0.8-1,1.7-1.7,2.5c-0.6,0.8-1.4,1.7-2.2,2.5c-0.8,0.8-1.8,1.5-2.9,2c-0.3,0.1-0.6,0.2-0.9,0.3c-0.1,0-0.3,0.1-0.5,0.1
				l-0.2,0.1l-0.1,0l-0.1,0l0,0l0,0l-0.1,0l-0.4,0c-0.1,0-0.3,0-0.5,0c-0.4,0-0.7-0.1-1-0.1c-1.3-0.3-2.3-0.9-3.1-1.7
				c-0.8-0.8-1.4-1.6-2-2.5c-0.5-0.8-0.9-1.7-1.2-2.4c-0.3-0.8-0.6-1.5-0.8-2.2c-0.2-0.6-0.3-1.2-0.4-1.7c-0.1-0.5-0.2-0.8-0.2-1.1
				c0-0.3-0.1-0.4-0.1-0.4s0.2,0.5,0.6,1.4c0.4,0.9,1,2.1,1.8,3.5c0.4,0.7,0.9,1.4,1.4,2.2c0.5,0.7,1.2,1.4,1.9,2
				c0.4,0.3,0.7,0.5,1.2,0.8c0.4,0.2,0.8,0.3,1.3,0.4c0.2,0,0.5,0.1,0.6,0c0.1,0,0.2,0,0.3,0l0.4-0.1l0.1,0l0,0l0,0c0,0,0,0,0,0
				l0.2,0c0.1,0,0.2-0.1,0.3-0.1c0.2-0.1,0.5-0.1,0.7-0.3c0.9-0.4,1.7-1,2.5-1.6c0.8-0.7,1.5-1.4,2.1-2.2c0.6-0.8,1.2-1.5,1.8-2.3
				c0.5-0.8,1-1.5,1.5-2.2c0.9-1.4,1.6-2.5,2.1-3.4C39.6,98.1,39.9,97.6,39.9,97.6z"/>
			<path fill="#E7E7E7" d="M39,98.5c1.8-0.2,5.5-0.2,7.9,0c0.4,0,0.8,0,0.9-0.3c0.1-0.1,0-0.3,0-0.4c-0.3-2.1-1.8-3.6-3.8-4.1
				c1-0.3,1.9-0.7,2.9-1c0.2-0.1,0.4-0.2,0.5-0.3c0.2-0.3-0.2-0.7-0.5-0.9c-1.5-0.8-3.3-1-5-0.7s-3.2,1.6-4.6,2.6L39,98.5z"/>
		</g>
	</g>
</g>
<g id="Rote">
</g>
<g id="Grok">
</g>
<g id="Locked_Blocks">
</g>
<g id="Locks">
</g>
</svg>
