<svg xmlns="http://www.w3.org/2000/svg" viewBox="0 0 150 135" width="150" height="135" preserveAspectRatio="none"><defs><style>.cls-1{fill:#fff;}.cls-2{fill:#8bd2d4;}.cls-3{fill:#825329;}.cls-4{fill:#002444;}.cls-5{fill:#58a1ba;}.cls-6{fill:#ffbc5e;}.cls-7{fill:#2e75b0;}.cls-8{fill:none;stroke:#2e3192;stroke-miterlimit:10;stroke-width:3px;}.cls-9{fill:#999;}.cls-10{fill:#5e5e5e;}.cls-11{fill:#323333;}.cls-12{fill:#c27942;}</style></defs><g id="Layer_21" data-name="Layer 21"><polygon class="cls-1" points="96.09 95.08 133.81 94.53 135.14 62.57 92.27 62.94 96.09 95.08" /><path class="cls-2" d="M94.41,79.11s5.47-4.39,3.7-5.46-6.12-.22-6.7,2.53,3.28,6.3,3.28,6.3Z" /></g><g id="Legs"><polygon class="cls-3" points="112.23 82.49 110.67 89.6 113.56 89.6 113.82 82.49 112.23 82.49" /><polygon class="cls-4" points="113.66 86.95 111.19 87.22 110.67 89.6 113.56 89.6 113.66 86.95" /><polygon class="cls-5" points="112.07 89.6 112.11 87.58 111.42 89.6 112.07 89.6" /><polygon class="cls-3" points="116.81 89.6 119.62 89.6 118.18 83.32 116.81 83.17 116.81 89.6" /><polygon class="cls-4" points="116.81 89.6 119.62 89.6 119.23 87.37 116.81 87.11 116.81 89.6" /><polygon class="cls-5" points="117.86 87.72 117.9 89.6 118.5 89.6 117.86 87.72" /><path class="cls-3" d="M110.13,82.49a10.69,10.69,0,0,0,10.47,0Z" /><path class="cls-3" d="M116,82.49a2.73,2.73,0,0,0,.1,1.13l-1.1.17c1,1.35,1.76.86,1.93.7a14.09,14.09,0,0,0-.65,1.27c2.73-.09,2.62-2.08,2.62-2.08l.26.73a2.29,2.29,0,0,0,.44-1.12,4.33,4.33,0,0,0,0-.8Z" /><path class="cls-3" d="M111.16,82.49a2.88,2.88,0,0,0-.17,1.58l-1.11,0c.81,1.46,1.65,1,1.84.92a13.08,13.08,0,0,0-.8,1.19c2.73.21,2.84-1.77,2.84-1.77l.18.76a2.25,2.25,0,0,0,.56-1.07,3.55,3.55,0,0,0,0-1.65Z" /></g><g id="Bodies"><path class="cls-6" d="M108.56,80.05a3.49,3.49,0,0,1,.41-2.42c.7-.76,3-.19,3-.19l.08-.87s-2-1.12-3.65-.06-1.21,3.27-1.21,3.27Z" /><path class="cls-6" d="M122,80.05s.27-1.61-.4-2.34-2.93-.18-2.93-.18l-.08-.85s2-1.08,3.53-.05a3.28,3.28,0,0,1,1.16,3.15Z" /><path class="cls-7" d="M111,76a4.41,4.41,0,0,0-1.53-.45,2.58,2.58,0,0,0-1.9.84l2.38,2.32Z" /><line class="cls-8" x1="107.51" y1="76.26" x2="109.3" y2="78.37" /><path class="cls-7" d="M121.28,82.49c0-1.18-.08-5.76-.83-6.86a.93.93,0,0,0-.51-.41c-3,0-9.13,0-10.19,0,0,.16-.14.83-.16,1v.09l-.06.48v.07c0,.17,0,.33,0,.5v0c0,.17,0,.34,0,.51h0c0,.16,0,.33,0,.49a32.47,32.47,0,0,0,0,4.09Z" /><path class="cls-6" d="M122.32,79.69s-1.27-.24-1.38,0,.23.46.54.5a1.34,1.34,0,0,0,.54,0,5.21,5.21,0,0,0,0,1.11c.07.5.36,1,.6,1s.36-.19.3-.54a4.27,4.27,0,0,0-.32-.88s.88,1,1.45.66c.24-.16,0-.38-.25-.54a5.18,5.18,0,0,0-.87-.39,3.33,3.33,0,0,0,1.12-.07c.27-.13,0-.49-.35-.43l-.66.1a2.06,2.06,0,0,0,.36-.55.76.76,0,0,0-.12-.58Z" /><path class="cls-7" d="M119.29,76.12a4.27,4.27,0,0,1,1.48-.43,2.54,2.54,0,0,1,1.84.81l-2.3,2.24Z" /><line class="cls-8" x1="122.62" y1="76.38" x2="120.89" y2="78.42" /><path class="cls-6" d="M108.24,79.69s1.32-.26,1.42,0-.23.48-.55.52a1.44,1.44,0,0,1-.56,0,5.59,5.59,0,0,1,0,1.15c-.07.51-.37,1.07-.63,1.07s-.36-.2-.3-.56a4.19,4.19,0,0,1,.33-.9s-.91,1-1.5.68c-.25-.16,0-.4.26-.56a6.21,6.21,0,0,1,.9-.41,3.8,3.8,0,0,1-1.16-.06c-.28-.14,0-.52.37-.45l.68.1a2.28,2.28,0,0,1-.38-.57.81.81,0,0,1,.12-.6Z" /></g><g id="Heads"><path class="cls-9" d="M109.77,72l.44-2.61a2.32,2.32,0,0,0-2,.47l.44,2.37A2.83,2.83,0,0,1,109.77,72Z" /><path class="cls-9" d="M107.91,70.13a3.75,3.75,0,0,0-.71,3.38,3.13,3.13,0,0,1,1.26-1.21L108,70Z" /><path class="cls-10" d="M109.92,72l.43-2.59-.14,0L109.77,72Z" /><path class="cls-10" d="M108.46,72.3l.14-.06-.44-2.37L108,70Z" /><path class="cls-9" d="M111,72.31l1.11-2.06a6.05,6.05,0,0,0-1.8-.82L109.92,72A2.58,2.58,0,0,1,111,72.31Z" /><path class="cls-9" d="M122.67,73.1a4.36,4.36,0,0,0-1.14-3.84,3.09,3.09,0,0,0-.39-.33l-.43,2.77A3.49,3.49,0,0,1,122.67,73.1Z" /><path class="cls-9" d="M119.19,71.67l-.63-2.94a7.23,7.23,0,0,0-1.91,1.07l1.48,2.28A3,3,0,0,1,119.19,71.67Z" /><path class="cls-9" d="M120.57,71.67l.43-2.82a2.78,2.78,0,0,0-2.3-.17l.64,3A3.41,3.41,0,0,1,120.57,71.67Z" /><path class="cls-10" d="M119.34,71.65l-.64-3-.14,0,.63,2.94Z" /><path class="cls-10" d="M120.71,71.7l.43-2.77-.14-.08-.43,2.82Z" /><path class="cls-6" d="M119.94,75.22c0-2.22-1-1.89-1.47-2.85a30.29,30.29,0,0,0-1.92-3.59c-.71-.9-3-.7-3-.7a11.33,11.33,0,0,0-3.43,5.69c-.12.46-.23,1-.32,1.45Z" /><ellipse class="cls-1" cx="114.9" cy="70.97" rx="2.16" ry="1.74" /><ellipse class="cls-11" cx="114.88" cy="70.94" rx="0.94" ry="0.92" /><ellipse class="cls-6" cx="114.84" cy="73.27" rx="2.89" ry="1.16" /><ellipse class="cls-1" cx="115.44" cy="70.49" rx="0.3" ry="0.29" /><circle class="cls-12" cx="112.46" cy="72.54" r="0.21" /><polygon class="cls-1" points="116.54 73.76 116.78 72.2 117.65 73.26 116.54 73.76" /><path class="cls-12" d="M112.46,72.58a2.29,2.29,0,0,0,.48.63,2.62,2.62,0,0,0,.66.44,3.38,3.38,0,0,0,1.54.28,5.5,5.5,0,0,0,1.55-.28,4.75,4.75,0,0,0,.73-.32,4.29,4.29,0,0,0,.68-.42,4.11,4.11,0,0,1-1.37.85,4.75,4.75,0,0,1-1.59.33,4.53,4.53,0,0,1-.82-.06,3.14,3.14,0,0,1-.78-.27A2.26,2.26,0,0,1,112.46,72.58Z" /><path class="cls-12" d="M116.85,74.23a1.33,1.33,0,0,1-.3.28,2.43,2.43,0,0,1-.35.2,3,3,0,0,1-.39.14l-.4.08h-.1l0-.09c.08-.14.15-.29.22-.42l.07.06a1.17,1.17,0,0,1-.31.12,1.65,1.65,0,0,1-.32.06,1.53,1.53,0,0,1-.64-.08,1.75,1.75,0,0,0,.32,0l.31,0a1.57,1.57,0,0,0,.31-.08,1.18,1.18,0,0,0,.28-.12l.13-.09-.06.15-.21.43,0-.08.39-.07a2.65,2.65,0,0,0,.37-.12,1.49,1.49,0,0,0,.36-.17A1.5,1.5,0,0,0,116.85,74.23Z" /></g></svg>