<?xml version="1.0" encoding="utf-8"?>
<!-- Generator: Adobe Illustrator 19.2.0, SVG Export Plug-In . SVG Version: 6.00 Build 0)  -->
<!DOCTYPE svg PUBLIC "-//W3C//DTD SVG 1.1//EN" "http://www.w3.org/Graphics/SVG/1.1/DTD/svg11.dtd">
<svg version="1.1" xmlns="http://www.w3.org/2000/svg" xmlns:xlink="http://www.w3.org/1999/xlink" x="0px" y="0px"
	 viewBox="0 0 150 164" enable-background="new 0 0 150 164" xml:space="preserve" width="150" height="164" preserveAspectRatio="none">
<g id="PB1">
</g>
<g id="PB2">
</g>
<g id="PB3">
</g>
<g id="Kraken">
	<g>
		<defs>
			<path id="SVGID_5_" d="M-8.3,43.7c0-46.1-35.3-83.5-78.7-83.5c-43.5,0-78.7,37.4-78.7,83.5c0,17.8,7.8,35.7,16.8,49.3l2.7,29.6
				h117.9l-0.2-27.7C-17.9,80.6-8.3,63.3-8.3,43.7z"/>
		</defs>
		<clipPath id="SVGID_2_">
			<use xlink:href="#SVGID_5_"  overflow="visible"/>
		</clipPath>
		<g clip-path="url(#SVGID_2_)">
		</g>
	</g>
</g>
<g id="Fiona">
	<polyline opacity="0.3" fill="#231F20" points="142.7,33 10.6,34.7 19.3,127 144.1,127 142.7,33 	"/>
	<polyline fill="#A6D6EA" points="141,30.3 8.9,32 16.9,124.3 141.2,124.3 141,30.3 	"/>
	<polyline fill="#CFE5B8" points="141,30.3 8.9,32 16.9,124.3 141.2,124.3 141,30.3 	"/>
	<g>
		<defs>
			<path id="SVGID_13_" d="M151.3,45.9c0-33.5-33.7-60.7-75.2-60.7c-41.5,0-75.2,27.2-75.2,60.7c0,11.4,5.5,22,12.3,31.2l2.5,45.5
				l119.6,0l1.8-43C145,70,151.3,58.4,151.3,45.9z"/>
		</defs>
		<clipPath id="SVGID_4_">
			<use xlink:href="#SVGID_13_"  overflow="visible"/>
		</clipPath>
		<g clip-path="url(#SVGID_4_)">
			<g>
				<path fill="#B969A1" d="M87.8,163.1c6.9,18.3,12.3,36.8,16.1,55H93.1c-0.7-18-3-36.2-6.8-54.1C86.8,163.7,87.3,163.4,87.8,163.1
					"/>
			</g>
			<g>
				<path fill="#B969A1" d="M72.4,160.8c3,19.3,4.4,38.5,4.4,57.2l-10.5-2.2c3-17.7,4.5-36,4.5-54.4C71.4,161.2,71.9,161,72.4,160.8
					"/>
			</g>
			<path fill="#B969A1" d="M61.2,113.2c-1.6-6.8-2.6-13.1-1.1-16.7c1.6-3.9,5-6.3,8.6-9.1c8.2-6.4,5-18.4,1-22.2
				c-18.9-16-43-7.6-52.3,22.2c0,0-7.4,22.3,20.6,41.6l0,0c5,3.4,8.2,9.9,8.3,12.1c0.2,4.4-1.2,6.5-3.8,10.1
				c-1.4,1.9-3.3,3.6-5.6,3.9c-2.3,0.4-5-1-5.5-3.3c-0.5-2.3,1.9-4.9,4.1-4c0.3-1.1-1-2.2-2.2-2c-1.2,0.2-2,1.3-2.5,2.3
				c-1.7,3.5-1.2,7.7,0.4,11.2c1.2,2.8,3.3,5.5,6.2,6.5c0.4,0.1,0.8,0.2,1.2,0.3c-1.9,3.6-3.2,7.5-4,11.5c-0.6,3-0.8,6.1-0.2,9
				c0.4,1.9,1.2,3.7,2.3,5.3c0.5,0.9,1.2,1.7,2,2.4c2.4,2.2,5.7,3.4,9,3.6c5,0.4,10.2-1.3,13.5-5.1c2.3-2.7,3.5-6.5,2.9-10.1
				c-0.5-3-2.8-7.4-6.5-6.8c-1.8,0.3-3.1,2.9-1.7,4.2c0.2-1.1,1.5-3.4,2.7-1.7c0.4,0.6,0.4,1.4,0.3,2.1c-0.4,2.3-1.7,4.6-3.9,5.5
				c-3.9,1.5-5.9-1.1-6.3-4.7c-0.4-3.4,3.3-7.6,5.2-10.1c3.8-5.1,11-7.6,15.1-12.8c5.7-7.1,0.6-33.4-6.7-44.8
				C62.1,113.7,61.7,113.4,61.2,113.2z"/>
			<path fill="#7D1A55" d="M44.5,121.3c-1.6-0.5-3.2-1.2-4.8-2c-1.5-0.8-3-1.7-4.4-2.7c-7.3-5.3-11.4-13.7-10.6-22.7
				c0.1-1.8,0.4-3.5,0.9-5.2c0.5-1.8,1.4-3.4,2.5-4.8c1.1-1.4,2.4-2.6,3.9-3.6c2.8-2.1,6-3.7,9.2-5c3.2-1.3,6.6-2.3,9.9-3.2
				c3.4-0.8,6.8-1.5,10.2-2l2.4-0.3l-2.1,1.4c-4.3,2.9-8.5,6.2-12.1,10c-3,3.1-5.6,6.8-6.3,11.1C43,94,43,96,43.4,97.8
				c0.4,1.9,1,3.7,1.9,5.4c0.5,0.8,1,1.7,1.5,2.4c0.6,0.8,1.2,1.5,1.9,2.2c-1.5-1.3-2.7-2.8-3.7-4.5c-1-1.7-1.8-3.5-2.2-5.4
				c-0.6-2.9-0.6-6,0.4-8.8c1-2.7,2.6-5.2,4.5-7.4c3.8-4.5,8.6-8.3,13.4-11.5l0.4,1c-3.4,0.5-6.8,1.2-10.1,2
				c-3.3,0.8-6.6,1.9-9.8,3.1c-5,2-10.8,4.7-13.6,9.5c-1.1,2-1.8,4.1-2.1,6.4c-0.9,5.6,0,11.5,2.9,16.4c1.8,2.9,4.1,5.5,6.8,7.6
				c1.4,1.1,2.8,2,4.3,2.9C41.3,120,42.9,120.7,44.5,121.3"/>
			<path fill="#7D1A55" d="M56.4,59.1c-3.5,3-5.2,7.4-3.9,11.5c1.8,5.8,9,8.8,16.1,6.6c2.2-0.7,4-1.8,5.6-3.1
				c-0.7-3.8-2.5-7.3-4.3-8.9C65.9,61.9,61.3,59.9,56.4,59.1z"/>
			<path fill="#C31B7C" d="M66.3,72.6c-2.4,0.6-4.9,0.5-6.9-0.9c-2.1-1.4-3.2-3.7-3.3-6.1c0-0.3,0-0.6,0-0.8c0-0.4,0.1-0.7,0.1-0.7
				s0,0.2,0.1,0.7c0.3,2.5,1.5,4.7,3.5,6.2c0.9,0.7,2,1.1,3.1,1.4C64,72.7,65.2,72.4,66.3,72.6"/>
			<path fill="#C31B7C" d="M54.6,63.9c0,0-0.1,0.3-0.2,0.9c-0.1,0.6-0.2,1.4-0.1,2.4c0.1,1,0.3,2.1,0.8,3.3c1.1,2.4,3.2,4.2,5.9,4.6
				c2.1,0.3,3.9-0.2,6-0.5c-0.5,0.8-2,0.9-2.8,1c-1.5,0.4-3,0.5-4.5,0c-2.3-0.8-4.1-2.6-4.9-4.9c-0.5-1.2-0.7-2.4-0.6-3.5
				c0-1,0.2-1.9,0.3-2.4C54.4,64.2,54.6,63.9,54.6,63.9"/>
			<path fill="#7D1A55" d="M72.1,145.8l-4.1-7.3c0,0-5.8,2.9-13.3,4.9c-12.3,3.4-16.1-3.5-16.1-3.5s-2.1,6.9,2.2,13.7
				c2.6,4.1,7.3,6.1,7.3,6.1s-5.9,1.4-4,2.8c1.8,1.3,6.3,2.7,10.5,2c1.5-0.3,3.1-0.4,4.4-1.5c0,0-3.5,2.9-0.8,3
				c5.1,0.3,13.6-7.1,15.2-12.1C75,148.9,72.1,145.8,72.1,145.8z"/>
			<path fill="#7D1A55" d="M79,138.3c0,0-11.1-5.8-16.2,5.1c-7.8,16.6,4.8,27.7,6.3,27.4c1.5-0.3,2.7-8.4,2.7-8.4s2.4,10.5,4.8,10.8
				c2.4,0.3,5.4-8.7,5.4-8.7s1.2,5.7,3,6c1.8,0.3,2.4-4.5,2.4-4.5s2.4,6,5.1,5.4c2.7-0.6,1.8-9.3,1.8-9.3s4.9,9.9,6.9,9.9
				c2,0,7.2-16.1,4.1-23.1c-3.1-7.1-9.7-7.2-9.7-7.2L79,138.3z"/>
			<g>
				<path fill="#B969A1" d="M85.7,139.8C85.7,139.8,85.7,139.8,85.7,139.8C85.7,139.8,85.7,139.8,85.7,139.8
					C85.7,139.8,85.7,139.8,85.7,139.8z"/>
				<path fill="#B969A1" d="M85.6,139.6l-1.4-0.3c-0.1,0.1-0.2,0.3-0.2,0.4c-0.7,1.5-0.9,3.4-1,5c-0.1,1.1-0.1,2.1-0.1,3.2
					c0,1.1,0.1,2.1,0.2,3.2c0.3,2.1,0.8,4.2,1.5,6.2c0.7,2,1.6,3.9,2.7,5.7c-1-1.9-1.7-3.8-2.3-5.8c-0.6-2-1-4.1-1.1-6.1
					c-0.2-2.1,0-4.1,0.3-6.2c0.1-1,0.3-2,0.6-3c0.1-0.5,0.3-1,0.5-1.4c0.1-0.2,0.2-0.4,0.3-0.5c0.1-0.1,0.1-0.1,0.2-0.1h0
					c0,0,0,0-0.2,0L85.6,139.6z"/>
			</g>
			<path fill="#B969A1" d="M101.7,160.7c0-2.1-0.2-4.2-0.6-6.3c-0.4-2.1-1-4.1-1.8-6.1c-0.4-1-0.9-2-1.4-2.9
				c-0.5-0.9-1.1-1.8-1.7-2.7c-0.3-0.4-0.5-0.8-0.8-1.2l-2-0.4c0.7,0.7,1.4,1.6,1.9,2.2c1.3,1.7,2.5,3.4,3.4,5.2
				c0.9,1.9,1.6,3.8,2.1,5.9C101.3,156.5,101.6,158.6,101.7,160.7z"/>
			<g>
				<path fill="#B969A1" d="M79.5,138.4C79.5,138.4,79.5,138.4,79.5,138.4C79.4,138.4,79.4,138.4,79.5,138.4
					C79.4,138.4,79.4,138.4,79.5,138.4C79.5,138.4,79.5,138.4,79.5,138.4z"/>
				<path fill="#B969A1" d="M79,138.3c0,0-0.4-0.2-1-0.5c-0.1,0.2-0.2,0.4-0.3,0.6c-0.7,1.4-1.1,3.1-1.3,4.6
					c-0.2,1.1-0.3,2.1-0.4,3.2c-0.1,1.1-0.1,2.1-0.1,3.2c0.1,2.1,0.4,4.2,0.9,6.3c0.5,2.1,1.2,4.1,2.1,6c-0.8-1.9-1.4-4-1.7-6
					c-0.4-2.1-0.6-4.1-0.5-6.2c0-2.1,0.4-4.1,0.9-6.2c0.2-1,0.5-2,0.9-2.9c0.2-0.5,0.4-0.9,0.6-1.3c0.1-0.2,0.3-0.4,0.4-0.5
					c0.1-0.1,0.1-0.1,0.2-0.1c0,0,0,0-0.2,0l0-0.1L79,138.3z"/>
			</g>
			<g>
				<path fill="#B7A6CB" d="M151.3,43.4c-0.4-2.1-17-5.2-28.2,3.7c-11.3,9-14.7,26.1-14.7,26.1s8.1-2.4,21.7-8.9
					C139.3,59.9,151.7,45.5,151.3,43.4"/>
				<path fill="#F5B4D1" d="M127.2,50.3c8.8-5.1,21.3-5.8,21.3-5.7c0.4,1.9-11.5,14.6-20.1,18.7c-7.8,3.7-13.6,6-17,7.2
					C112.7,65.5,116.5,56.6,127.2,50.3"/>
			</g>
			<path fill="#B7A6CB" d="M119.6,58.6c-0.7-13.7-8.9-27.3-22.3-31.8c-14.9-5-32.2,2.3-38,17.1c-1.3,3.2-1.9,6.7-1.9,10.2
				c0,6.3,2.1,12.2,5.7,17c3.8,5.4,9,9.3,14.5,12.1c-1.4,6.8-4,17.8-4,17.8l7.1,8.3l2.4-2.3c-0.8-8.2-0.7-13.4,0.5-21.4
				c10.6,3.5,21,3.3,24.5,1.6C119.5,81.4,120.2,72.2,119.6,58.6z"/>
			<path fill="#B7A6CB" d="M135.1,94.2c0.3-3.1-18.4,5.4-18.4,5.4s8.5-8.3,6.8-10.5c-1.7-2.2-9.5,3.1-11,11.4
				c-1.4-3-3.5-7.5-4.7-6.8c-2.4,1.4,0.4,9.6,4.5,11.6c-1.6,3.6-5,9.3-10.5,10.5c-8.2,1.8-11.6-3.5-11.6-3.5l-2.3,2.5
				c0,0,4.7,5,14.6,5c12.6,0,15.2-15,15.2-15s12.7,2.6,14.2,0.4c1.5-2.2-13.8-2.9-13.8-2.9S134.6,99,135.1,94.2"/>
			<path fill="#B7A6CB" d="M66.7,111c0,0-14.4,0.5-17.4,9.2c-1.8,5.2,9.4,17.4,9.4,17.4s-9.9-1.9-9.9,1.4c0,3.4,8.9,1,8.9,1
				s-10.1,7.2-7.7,9.2c2.4,2.1,10.4-7.9,10.4-7.9s-4.1,6.9-1.3,7.8c2.8,1,7.7-9.3,5.4-12.9c-2.3-3.6-7.7-7.5-10-10.9
				c-5.1-7.4,10.9-13.3,10.9-13.3L66.7,111z"/>
			<path fill="#4DC6F3" d="M92.6,125.1c0,0-5.2-2.3-8.9-7.1c-3.7-4.8-3.6-6-3.6-6l3.3-3.3l13.2,3.7L92.6,125.1z"/>
			<path fill="#F5B4D1" d="M94.6,111.8l-3.2-0.9l-4.2,10.7c0.7,0.6,1.3,1.1,2,1.5L94.6,111.8z"/>
			<path fill="#F5B4D1" d="M83.5,117.8c0,0,0.1,0.1,0.1,0.1c0.6,0.8,1.3,1.6,2,2.2l3.6-9.9l-2.8-0.8L83.5,117.8z"/>
			<path fill="#4DC6F3" d="M73.1,103.2l-8.1,37c0,0,11.3,6.1,23.6,3.8c8-1.5,7.1-2.4,7.1-2.4s-10.1-13-12.5-34.7
				c0,0-1.1,3.9-2.8,3.4C77.8,109.6,74.2,104.3,73.1,103.2z"/>
			<polygon fill="#F5B4D1" points="78.3,116.3 75.5,121.8 78.2,122.2 79.1,134.4 76.1,134.5 76.3,138.1 86.9,139 86.2,134.4 
				82.6,134.4 81.7,116.6 			"/>
			<path fill="#4DC6F3" d="M55.7,110.3c0,0,4.9-3,10.9-3.4c6.1-0.3,6.9,0.4,6.9,0.4l0.8,4.6l-10.5,8.8L55.7,110.3z"/>
			<path fill="#F5B4D1" d="M65.4,119.5l2.6-2.2l-6.4-9.5c-0.9,0.2-1.6,0.5-2.3,0.8L65.4,119.5z"/>
			<path fill="#F5B4D1" d="M66.8,106.9c-0.1,0-0.1,0-0.2,0c-1,0.1-2,0.2-3,0.4l6.1,8.5l2.2-1.9L66.8,106.9z"/>
			<g>
				<path fill="#F5B4D1" d="M83.1,106.9l-2.4,2.3l-7.1-8.3l-0.9,4.1l8.6,8.1l2.3-3.3C83.6,109.9,83.1,107.1,83.1,106.9z"/>
			</g>
			<path fill="#61449A" d="M87.8,76.4c0,0,0.2,0.2,0.5,0.5c0.3,0.3,0.8,0.7,1.3,1.1c3.6,2.5,7.9,1.7,11.5-0.2c0,0-0.5,0.9-1.8,1.7
				c-2.8,2-6.7,2.1-9.4-0.1c-0.3-0.3-0.6-0.6-0.9-0.9c-0.5-0.6-0.8-1.1-1-1.5C87.8,76.7,87.8,76.4,87.8,76.4"/>
			<path fill="#61449A" d="M89,76.1c0.2,0.6-0.2,1.3-0.8,1.4c-0.6,0.2-1.3-0.2-1.4-0.8c-0.2-0.6,0.2-1.3,0.8-1.4
				C88.2,75.1,88.9,75.5,89,76.1"/>
			<path fill="#61449A" d="M113,75.1c-0.1,0.3,0.1,0.7,0.4,0.8c0.3,0.1,0.7-0.1,0.8-0.4c0.1-0.3-0.1-0.7-0.4-0.8
				C113.4,74.6,113.1,74.8,113,75.1"/>
			<path fill="#61449A" d="M108.1,76.5c-0.1,0.3,0.1,0.7,0.4,0.8c0.3,0.1,0.7-0.1,0.8-0.4c0.1-0.3-0.1-0.7-0.4-0.8
				C108.5,75.9,108.2,76.1,108.1,76.5"/>
			<path fill="#61449A" d="M111.2,79.1c-0.1,0.3,0.1,0.7,0.4,0.8c0.4,0.1,0.7-0.1,0.8-0.4c0.1-0.3-0.1-0.7-0.4-0.8
				C111.6,78.6,111.3,78.8,111.2,79.1"/>
			<path fill="#61449A" d="M80.3,76.9c0-0.4,0.2-0.7,0.6-0.7c0.4,0,0.7,0.2,0.7,0.6c0,0.4-0.2,0.7-0.6,0.7
				C80.7,77.5,80.3,77.2,80.3,76.9"/>
			<path fill="#61449A" d="M75.8,74.7c0-0.4,0.2-0.7,0.6-0.7c0.4,0,0.7,0.2,0.7,0.6c0,0.4-0.2,0.7-0.6,0.7
				C76.1,75.3,75.8,75.1,75.8,74.7"/>
			<path fill="#61449A" d="M79.2,72.7c0-0.4,0.2-0.7,0.6-0.7c0.4,0,0.7,0.2,0.7,0.6c0,0.4-0.2,0.7-0.6,0.7
				C79.6,73.3,79.3,73,79.2,72.7"/>
			<g>
				<path fill="#3B1026" d="M69,50.7c0,0,0.3,0.6,0.9,1.3c1.8,2.1,4.5,3.4,7.3,3.6c0,0.5-0.1,1-0.1,1.5c0,0.1-2.3-0.7-2.5-0.8
					c-2-0.9-3.7-2.3-4.8-4.2C69.2,51.3,69,50.7,69,50.7"/>
				<path fill="#3B1026" d="M70.8,45.3c0,0,0.1,0.7,0.5,1.6c0.4,0.9,1.1,2.1,2,3.1c0.5,0.5,0.9,1,1.4,1.4c0.5,0.4,0.9,0.8,1.4,1
					c0.4,0.3,0.8,0.5,1,0.6c0.2,0.1,0.4,0.2,0.4,0.2l-0.8,1.3c0,0-0.2-0.1-0.4-0.3c-0.3-0.2-0.6-0.5-1-0.8c-0.4-0.4-0.8-0.8-1.3-1.3
					c-0.4-0.5-0.9-1.1-1.3-1.7c-0.8-1.2-1.4-2.5-1.6-3.5C70.8,46,70.8,45.3,70.8,45.3"/>
				<path fill="#3B1026" d="M74.1,42.2c0,0-0.1,0.7,0.1,1.7c0.4,2.5,1.8,4.7,3.4,6.5c0.3,0.4,0.6,0.7,0.8,0.9
					c0.2,0.2,0.3,0.3,0.3,0.3l-1.1,1.1c0,0-0.1-0.2-0.3-0.4c-0.2-0.3-0.5-0.6-0.7-1.1c-1.4-2.2-2.5-4.7-2.6-7.3
					C73.9,42.9,74.1,42.2,74.1,42.2"/>
				<path fill="#FFFFFF" d="M95.2,64.4c0,0-4.6,7.6-13,6c-7.6-1.5-8.8-14.8-8.8-14.8s8.8-8.9,13.6-7.8C97,50.1,95.2,64.4,95.2,64.4"
					/>
				<path fill="#0691A1" d="M89.6,59.7c0.5,4.3-2,8.1-5.6,8.5c-3.6,0.4-6.9-2.7-7.4-7c-0.5-4.3,2-8.1,5.6-8.5
					C85.8,52.2,89.1,55.4,89.6,59.7"/>
				<path fill="#3B1026" d="M87,60c0.3,2.6-1.2,4.9-3.4,5.1c-2.2,0.2-4.2-1.7-4.5-4.3c-0.3-2.6,1.2-4.9,3.4-5.1
					C84.7,55.5,86.7,57.4,87,60"/>
				<path fill="#61449A" d="M73.4,55.6c0,0,0.3-0.5,0.9-1.3c0.6-0.8,1.5-1.9,2.8-3.1c0.6-0.6,1.3-1.2,2.2-1.8
					c0.8-0.6,1.7-1.2,2.8-1.6c1-0.4,2.2-0.8,3.5-0.8c2.5-0.1,4.9,1.2,6.6,2.9c0.9,0.9,1.5,1.9,2,2.9c1,2.1,1.3,4.1,1.4,5.9
					c0.1,1.8,0,3.2-0.1,4.2c-0.1,1-0.3,1.6-0.3,1.6s0-0.6-0.1-1.6c-0.1-1-0.2-2.4-0.5-4.1c-0.8-4.6-3.7-10.3-9.2-10.4
					c-1,0-2,0.2-3,0.6c-1.9,0.7-3.6,1.8-4.9,2.9c-1.3,1-2.4,2-3.1,2.7C73.8,55.2,73.4,55.6,73.4,55.6"/>
				<path fill="#3B1026" d="M125.5,51.4c0,0-0.2,0.6-0.7,1.5c-0.8,1.4-1.9,2.6-3.3,3.6c-1.1,0.7-2.5,1.6-3.8,1.7l-0.2-1.5
					c0,0,0.6,0,1.4-0.2c2.2-0.6,4.2-1.8,5.6-3.6C125.2,52,125.5,51.4,125.5,51.4"/>
				<path fill="#3B1026" d="M123.4,46.1c0,0,0,0.7-0.2,1.7c-0.2,1-0.7,2.4-1.5,3.6c-0.9,1.5-2.1,2.8-3.4,4c-0.2,0.2-0.4,0.3-0.4,0.3
					l-0.8-1.3c0,0,0.1-0.1,0.4-0.2c2.4-1.5,4.5-3.7,5.5-6.4C123.3,46.8,123.4,46.1,123.4,46.1"/>
				<path fill="#3B1026" d="M119.7,43.8c0,0,0.2,0.7,0.2,1.7c0.1,3.1-1.2,6-2.9,8.5c-0.2,0.3-0.3,0.4-0.3,0.4l-1.2-1
					c0,0,0.1-0.1,0.3-0.3c1.9-2.1,3.5-4.8,3.9-7.6C119.8,44.5,119.7,43.8,119.7,43.8"/>
				<path fill="#FFFFFF" d="M118.5,56.3c-2.7-3.7-8.4-6.6-11.5-5.8c-9.4,2.5-7,16-7,16s6.5,6.2,12.5,4.4c2.8-0.8,5.1-2.7,6-5.3
					C119.3,63,119.6,59.6,118.5,56.3"/>
				<path fill="#0691A1" d="M103.4,61.1c-0.3,4.1,2.3,7.6,5.7,7.8c3.4,0.2,6.4-2.9,6.7-7c0.3-4.1-2.3-7.6-5.7-7.8
					C106.7,53.9,103.7,57.1,103.4,61.1"/>
				<path fill="#3B1026" d="M105.9,61.3c-0.2,2.5,1.4,4.6,3.4,4.7c2.1,0.1,3.9-1.8,4-4.2c0.2-2.5-1.4-4.6-3.4-4.7
					C107.8,56.9,106,58.8,105.9,61.3"/>
				<path fill="#61449A" d="M118.5,56.3c0,0-0.4-0.4-1-1c-0.7-0.6-1.6-1.4-2.9-2.3c-3-2-6.6-2.8-9.8-0.8c-0.8,0.5-1.5,1.1-2.1,1.9
					c-0.6,0.7-1,1.6-1.4,2.4c-0.7,1.7-1.1,3.4-1.3,4.9c-0.2,1.5-0.2,2.8-0.2,3.7c0,0.9,0,1.4,0,1.4s-0.1-0.5-0.3-1.4
					c-0.2-0.9-0.3-2.2-0.3-3.8c0-1.6,0.2-3.4,0.9-5.3c0.4-0.9,0.8-1.9,1.5-2.8c0.6-0.9,1.5-1.7,2.4-2.3c2.8-1.8,6.1-1.8,9-0.2
					c0.8,0.5,1.5,1,2.1,1.5c1.2,1,2,2,2.6,2.8C118.2,55.9,118.5,56.3,118.5,56.3"/>
				<path fill="#FFFFFF" d="M82.5,63.6c0.1,1-0.4,1.9-1.3,2c-0.8,0.1-1.6-0.7-1.8-1.7c-0.1-1,0.4-1.9,1.3-2
					C81.5,61.8,82.3,62.6,82.5,63.6"/>
				<path fill="#FFFFFF" d="M114.1,56.9c0.5,1.5,0.6,3.5-0.7,3.9c-1.3,0.4-3.1-1.1-3.6-2.6c-0.5-1.5-0.9-3.3,0.4-3.7
					C111.5,54.1,113.6,55.4,114.1,56.9"/>
				<path fill="#FFFFFF" d="M108.9,65c0.1,1-0.4,1.9-1.3,2c-0.8,0.1-1.6-0.7-1.8-1.7c-0.1-1,0.4-1.9,1.3-2
					C108,63.2,108.8,63.9,108.9,65"/>
				<path fill="#FFFFFF" d="M87.9,55.8c0.5,1.5,0.6,3.5-0.7,3.9c-1.3,0.4-3.1-1.1-3.6-2.6c-0.5-1.5-0.9-3.3,0.4-3.7
					C85.4,53,87.4,54.3,87.9,55.8"/>
			</g>
			<path fill="#3B1026" d="M79.4,43.7c-0.1-0.6,3.4-3.5,7-3.3c3.6,0.3,4.7,2.3,4.4,2.6c-0.4,0.3-1.8-0.7-4.5-0.8
				C82.4,42.1,79.5,44.3,79.4,43.7"/>
			<path fill="#3B1026" d="M114.7,44.9c0-0.6-3.6-3.4-7.1-3c-3.6,0.4-4.6,2.5-4.2,2.8c0.4,0.3,1.8-0.8,4.4-1
				C111.7,43.5,114.7,45.5,114.7,44.9"/>
			<path fill="#B969A1" d="M106.3,25.2C78.8,6.1,75,23.6,69,25.2c-2.5,0.7-10.1,2-12.9,4.4c-7.9,5.1-6.2,10.9-5.8,13.8
				c1.1,8.8,8,22.4,10.2,22.9c0.1,0,0.1,0,0.2,0.1c0.7-0.9,0.9-0.7,1.6-1.8c-0.3,1.3-0.7,6,5.4,7.3c0,0,2,0.6,3.8-0.6
				c2.1-1.4,1.7-4.9,1.7-4.9c0-6.6-4.4-1.3-4.4-1.3c3.3-0.9,1.7,1.7,1.7,1.7c-0.5,0.5-1.2,0.8-2.2,0.7c-0.2,0-0.3-0.1-0.4-0.2
				c-0.9-0.6-3.7-3.4-1.5-10c2.3-4.7,2.4-9.1,1.7-12.8l0,0c0,0,0.3-13.8,21.5-7.2l0,0c4.9,2.3,9.6,4.8,9.6,4.8s11.2-3.9,14.2-3
				c0.7,1.2,1.3,2.2,2,3.4C119.2,37.9,119.3,34.3,106.3,25.2z"/>
			<path fill="#7D1A55" d="M74.6,23.5c0,0,0.4-0.1,1.1-0.1c0.7,0,1.7,0,2.8,0.3c0.6,0.1,1.2,0.3,1.8,0.5c6,2.3,10.8,7.8,12.4,14
				c0,0-0.7-1.4-2-3.3c-2.6-4.1-6.2-7.9-10.7-9.9c-0.6-0.3-1.2-0.5-1.7-0.7c-1.1-0.4-2-0.6-2.7-0.7C75,23.5,74.6,23.5,74.6,23.5"/>
			<path fill="#7D1A55" d="M52.4,36.5c4.5-1.9,10.1,1,12.2,5.2c1.3,2.5,1.9,5.4,2.3,8.2l0.2,1.9l-1.2-1.5c-2.5-3.1-5.9-5.4-9.8-6.4
				c-0.6-0.2-1.3-0.3-2-0.3c-0.3,0-0.7,0-1,0c-0.3,0-0.7,0.1-1,0.3c0.3-0.2,0.6-0.3,0.9-0.4c0.3-0.1,0.7-0.1,1-0.1
				c4.2-0.2,8.2,1.9,11.2,4.8c0.5,0.5,1,1,1.4,1.5l-1,0.4c-0.1-0.9-0.3-1.8-0.5-2.7c-0.2-0.9-0.4-1.8-0.7-2.7
				c-0.9-2.8-2.1-5.4-4.8-6.8c-1.4-0.7-3-1.3-4.6-1.5c-0.5-0.1-0.9-0.1-1.4-0.1C53.3,36.4,52.9,36.4,52.4,36.5"/>
			<path fill="#B969A1" d="M99.2,42.3c4.1-3.3,7.9-8.7,8.2-13.9s-1.8-10.6-5.7-14.1c-1.4-1.3-3-2.3-4.7-3.1
				c-11-5.5-25.5-2.9-33.8,6.2c-1.2,1.3-2.2,3.1-1.3,4.6c1,1.7,3.6,1.2,5.4,0.5c1.1-0.4,2.2-0.8,2.8-1.8c0.7-0.9,0.5-2.5-0.5-2.9
				c0,1.5-1.2,2.9-2.7,3.1c-0.6,0.1-1.2,0-1.6-0.4c-0.9-1,0.2-2.6,1.4-3.3c4.8-2.8,11-2.4,15.8,0.2c4.8,2.7,8.3,7.5,10,12.7
				c0.8,2.4,1.3,4.9,2.3,7.3c1,2.3,1.8,3.8,4.1,4.7L99.2,42.3z"/>
			<path fill="#7D1A55" d="M88.6,9.4c0,0,0.6,0.2,1.5,0.6c1,0.4,2.3,1.1,3.8,2.2c1.5,1.1,3.1,2.6,4.4,4.4c1.3,1.9,2.4,4.2,2.9,6.6
				c1.4,5.7,0.4,11.9-1.2,17.5c-0.3,1-0.5,1.6-0.5,1.6s0.1-0.6,0.3-1.6c0.9-5.5,1.5-11.7,0.3-17.2c-0.5-2.3-1.4-4.4-2.6-6.3
				c-1.2-1.8-2.6-3.3-3.9-4.5c-1.3-1.2-2.6-2-3.5-2.5C89.1,9.7,88.6,9.4,88.6,9.4"/>
			<path fill="#7D1A55" d="M106.3,24.8c0,0,0.3,1.2,0.3,3c0.1,5-1.9,10.7-6.2,13.7c-0.4,0.3-0.7,0.4-0.7,0.4s0.2-0.2,0.6-0.6
				c3.5-3.9,5.1-8.5,5.8-13.6C106.2,26,106.3,24.8,106.3,24.8"/>
			<g>
				<path fill="#B7A6CB" d="M18.7,41.5c0.4-2.3,14.6-5.6,29.4,3.7c12.6,7.9,16.2,25.4,16.2,25.4s-8.6-2-23-8.1
					C31.5,58.5,18.3,43.8,18.7,41.5"/>
				<path fill="#F5B4D1" d="M44.3,49.6c-8.7-4.8-18.3-6.8-23.2-7.3c-0.2,0.1,8.2,12.2,20.1,18.1c8.7,4.4,14.9,6.1,18.3,7.3
					C58.8,63.4,54.8,55.4,44.3,49.6"/>
			</g>
		</g>
	</g>
</g>
<g id="Clod">
</g>
<g id="Announcer">
</g>
<g id="R_x26_G">
</g>
<g id="Q">
</g>
<g id="Rote">
</g>
<g id="Grok">
</g>
<g id="Locked_Blocks">
</g>
<g id="Locks">
</g>
</svg>
