<?xml version="1.0" encoding="utf-8"?>
<!-- Generator: Adobe Illustrator 22.0.1, SVG Export Plug-In . SVG Version: 6.00 Build 0)  -->
<!DOCTYPE svg PUBLIC "-//W3C//DTD SVG 1.1//EN" "http://www.w3.org/Graphics/SVG/1.1/DTD/svg11.dtd">
<svg version="1.1" xmlns="http://www.w3.org/2000/svg" xmlns:xlink="http://www.w3.org/1999/xlink" x="0px" y="0px"
	 viewBox="0 0 152 164" enable-background="new 0 0 152 164" xml:space="preserve" width="152" height="164" preserveAspectRatio="none">
<g id="BG">
</g>
<g id="PB1">
</g>
<g id="PB2">
</g>
<g id="PB3">
</g>
<g id="Kraken">
</g>
<g id="Fiona">
</g>
<g id="Clod">
</g>
<g id="Announcer">
</g>
<g id="R_x26_G">
</g>
<g id="Q">
</g>
<g id="Rote">
</g>
<g id="Grok">
</g>
<g id="Locked_Blocks">
</g>
<g id="Locks">
</g>
<g id="Layer_15">
	<g>
		<polyline opacity="0.3" fill="#231F20" points="142.6,31.9 11.7,34.4 17,123.2 140.2,123.2 142.6,31.9 		"/>
		<polyline fill="#940707" points="141,29.3 10.1,31.9 14.7,120.7 137.5,120.6 141,29.3 		"/>
	</g>
	<g>
		<defs>
			<path id="SVGID_129_" d="M151.3,44c0-33.5-33.6-60.6-75.1-60.6C34.7-16.6,1,10.5,1,44c0,11.4,5.5,22,12.3,31.1l2.5,45.5l119.5,0
				l1.8-43C145,68,151.3,56.5,151.3,44z"/>
		</defs>
		<clipPath id="SVGID_2_">
			<use xlink:href="#SVGID_129_"  overflow="visible"/>
		</clipPath>
		<path clip-path="url(#SVGID_2_)" fill="#E6E6E6" d="M98.8,83.4c2.5-0.2,4.5-0.6,5.7-1.2c8.2-4.1,10.9-9.9,11.5-17.9
			c3-1.2,6.4-2.8,10.4-4.7c9.2-4.4,21.5-18.8,21.1-20.9c-0.4-2.1-16.5-5.1-27.8,3.5c0.1-0.4,0.1-0.7,0.1-0.7s-0.1,0.3-0.2,0.8
			c-0.1,0-0.1,0.1-0.2,0.1c-1.7,1.3-3.2,2.9-4.5,4.5c0-0.1,0-0.1,0-0.2c0.9-1.8,1.4-3.8,1.4-5.8c0-1-0.2-1.7-0.2-1.7s0.2,0.7,0,1.7
			c-0.2,1.5-0.7,3-1.5,4.4c-1.1-3.7-2.7-7.3-4.8-10.5c0.3-0.6-0.5-4.4-4.6-7.7c-19.5-15.4-40.9-10-49.9-4.1
			c-5.9,3.9-7.7,13.6-8.3,19c-0.7-0.5-1.4-1-2.1-1.5c-14.7-9.3-28.9-6-29.3-3.7c-0.4,2.3,12.7,16.9,22.5,21c2.1,0.9,4.1,1.7,6,2.4
			c-6.8,23.1-9.9,42.8-7.7,63.1c0,0,4.5-0.3,11.6-0.6c0.3,0.5,0.5,0.9,0.5,0.9l0,0c2.8,4.6,6.8,8.8,6.8,8.8s-9.9-1.9-9.9,1.4
			c0,3.3,8.9,1,8.9,1s-10.1,7.1-7.7,9.2c2.4,2,10.3-7.9,10.3-7.9s-4.1,6.8-1.3,7.8c2.1,0.7,5.5-5.1,5.9-9.4c7,3.7,20.4,3.5,27,0.6
			c0,0-2-4.3-4.4-12.5c7.3,0.3,14.6,0.8,21.1,1.7c0,0-1.4-4-3-9.7c0.6-0.2,1-0.4,1.4-0.5c8.5-3.1,10.4-14.1,10.4-14.1
			s12.6,2.6,14.2,0.5c1.5-2.2-13.7-2.9-13.7-2.9s16.5-3.5,16.9-8.3c0.3-3-18.3,5.4-18.3,5.4s8.5-8.3,6.7-10.4
			c-1.7-2.2-9.4,3-10.9,11.4c-1.3-3-3.5-7.4-4.7-6.7c-2.4,1.4,0.5,9.6,4.5,11.5c-1.2,2.6-3.3,6.3-6.4,8.6l0-0.1c0,0-0.5,0.3-1.3,0.5
			C99.1,101.4,97.6,91.4,98.8,83.4z M53.9,122.7c3.2-0.1,6.6-0.2,10.3-0.2l-2.5,10.9c0-0.9-0.2-1.6-0.6-2.2
			C59.1,128.1,56.1,125.5,53.9,122.7z"/>
	</g>
</g>
</svg>
