<?xml version="1.0" encoding="utf-8"?>
<!-- Generator: Adobe Illustrator 21.1.0, SVG Export Plug-In . SVG Version: 6.00 Build 0)  -->
<svg version="1.1" xmlns="http://www.w3.org/2000/svg" xmlns:xlink="http://www.w3.org/1999/xlink" x="0px" y="0px"
	 viewBox="0 0 150 135" enable-background="new 0 0 150 135" xml:space="preserve" width="150" height="135" preserveAspectRatio="none">
<g id="BG">
</g>
<g id="PB1">
</g>
<g id="PB2">
</g>
<g id="PB3">
</g>
<g id="Kraken">
</g>
<g id="Fiona">
</g>
<g id="Clod">
</g>
<g id="Announcer">
</g>
<g id="R_x26_G">
</g>
<g id="Q">
</g>
<g id="Rote">
</g>
<g id="Grok">
</g>
<g id="Locked_Blocks">
</g>
<g id="Locks">
</g>
<g id="Layer_15">
	<polygon opacity="0.3" fill="#231F20" points="14.6,35.4 18.5,104.1 142,105.1 142,35.4 	"/>
	<polygon fill="#6E6F72" points="12,33.3 15.9,102.1 139.4,103.1 139.4,33.3 	"/>
	<g>
		<defs>
			<path id="SVGID_123_" d="M97.2,33.3C95.1,17.2,80.6,4.7,62.9,4.7S30.7,17.2,28.7,33.3H12l3.9,68.9l123.6,1V33.3H97.2z"/>
		</defs>
		<clipPath id="SVGID_2_">
			<use xlink:href="#SVGID_123_"  overflow="visible"/>
		</clipPath>
		<g clip-path="url(#SVGID_2_)">
			<path fill="#E7E7E7" d="M150.9,96.9c-8-5.7-14.9-3.7-17.4-2.9c-0.6-0.8-1.2-1.6-1.9-2.2c0,0-0.1-0.1-0.1-0.1
				c-1.2-1.7-3.5-4.2-7.9-7.2c-7.1-4.7-14.2-4.8-16.5-4.7c-0.1-0.7-0.3-1.3-0.5-2c-0.9-3.6-2.4-7.1-4.5-10.1c-1-1.8-2.1-3.6-3.4-5.2
				c0.4-0.1,0.8-0.2,1.2-0.3c4.1-1.8,5-9,1.9-16.3c-3.1-7.2-8.9-11.6-13.1-9.8c-2,0.8-3.2,3-3.6,5.7c-0.7-0.7-1.5-1.3-2.4-1.8
				c-1.4-0.9-2.9-1.5-4.5-1.9c-0.9-0.2-1.9-0.3-2.9-0.3c0.5-3.7,1-10.1-0.6-15.8C72.2,13.2,69,11.6,69,11.6v0
				c-0.5-0.4-1.1-0.5-1.6-0.4c-1.7,0.3-2.6,3.3-2,6.7c0.5,2.9,2,5.1,3.5,5.5l0,0c0,0,0,0,0,0c0.2,0.1,0.4,0.1,0.6,0.1
				c0.5,0.1,1.4,0.4,2,1.3c2.8,3.7,2.6,9.4,2,13.1c-0.1,0-0.2,0-0.2,0c-1.6,0.3-3.1,1.2-4.2,2.4c-0.3,0.3-0.5,0.6-0.7,0.9
				c-0.8-0.5-5.5-3-10-2.8c-1-2.9-2.3-6-4.3-8.7c-4.9-6.8-8.1-7.2-8.1-7.2l0,0c-0.6-0.2-1.1-0.2-1.5,0.1c-1.4,0.8-1.2,3.7,0.4,6.4
				c1.4,2.3,3.3,3.8,4.7,3.7l0,0c0,0,0,0,0,0c0.2,0,0.3-0.1,0.4-0.1c0.5-0.1,1.3-0.1,2.2,0.5c2,1.3,3.4,3.4,4.3,5.6
				c-2.5,0.7-4.7,2.5-5.8,6.6c-1,3.7,3.1,9.4,4,10.6c0.3,2.6,1.1,4.6,1.1,4.6s-28.2-14.4-36.3,55.3c-2.2,18.6,3,29.7,9.6,36.3
				c-0.2,0.8-0.5,1.9-0.4,3.2c0,0.5,0.1,0.9,0.1,1.3c-6.9,1.1-10.9,2.4-10.9,3.8c0,3.8,29.8,6.9,66.6,6.9c36.8,0,66.6-3.1,66.6-6.9
				c0-1.9-7.6-3.7-19.9-4.9c-0.4-0.4-1.1-1-1.8-1.5c0.4,0.1,0.8,0.1,1.3,0c1.4-0.2,2.4-0.6,2.4-0.9c0.1-0.2-1.3-1.1-2.3-1.6
				c0.4,0,1.2,0,2-0.3c1.3-0.5,2-1,2-1.3c0-0.2-1-0.6-1.9-0.9c0.4,0,0.8-0.1,1.3-0.2c1.1-0.4,1.7-0.8,1.7-1.1c0-0.2-1.4-0.7-2.2-0.9
				c0.3,0,0.8,0,1.2-0.2c0.9-0.3,1.4-0.7,1.5-0.9c0-0.2-1.7-0.7-2.2-0.9c1.1-1.8,2.2-3.7,3.1-5.7c0.7-1.5,1.3-3,1.8-4.6
				c0.5,0.6,1,1.3,1.5,1.9c1,1.2,2.1,2.4,3.3,3.4c0.9,0.8,2.3,2.2,3.7,2.1c0.1,0,0.1,0,0.2,0c0,0,0.1,0,0.1-0.1c0,0,0,0,0.1,0
				c0,0,0.1,0,0.1-0.1c0,0,0,0,0,0c0.3-0.2,1-0.8,1.3-1.2c1.1-1.6,1.8-3.7,2.6-5.5c0.3-0.7,1.4-2.4,1.3-3.2l0,0
				C157.4,120.8,160.4,103.6,150.9,96.9z M55.1,51.2c0,0.1,0,0.1,0,0.2C55,51.3,55,51.3,55.1,51.2C55.1,51.2,55.1,51.2,55.1,51.2z
				 M128.2,152.9c0.2-0.2,0.4-0.5,0.6-0.7c-0.2,0.3-0.3,0.6-0.3,0.9C128.4,153,128.3,152.9,128.2,152.9z M130.3,151
				c0,0-0.3,0.1-0.6,0.2c0.4-0.5,0.8-1,1.2-1.4c-0.2,0.5-0.2,1.2-0.2,1.5C130.5,151.1,130.3,151,130.3,151z M133.5,146.7
				c0,0-0.5,0.3-0.8,0.9c-0.2,0.5-0.2,1-0.2,1.3c-0.4-0.1-0.6-0.2-0.6-0.2s0,0-0.1,0c0.6-0.8,1.2-1.6,1.7-2.4
				C133.5,146.4,133.5,146.6,133.5,146.7z"/>
		</g>
	</g>
</g>
</svg>
