<svg version="1.1" xmlns="http://www.w3.org/2000/svg" xmlns:xlink="http://www.w3.org/1999/xlink" x="0px" y="0px" viewBox="0 0 150 135" enable-background="new 0 0 150 135" xml:space="preserve" width="150" height="135" preserveAspectRatio="none"><g id="BG" /><g id="PB1" /><g id="PB2" /><g id="PB3" /><g id="Kraken" /><g id="Fiona" /><g id="Clod" /><g id="Announcer" /><g id="R_x26_G" /><g id="Q"><g><polygon opacity="0.3" fill="#221F1F" points="14.6,35.4 18.5,104.2 142,105.1 142,35.4 		" /><polygon fill="#FCF4A4" points="12,33.3 15.9,102.1 139.4,103.1 139.4,33.3 		" /><g><defs><path id="SVGID_95_" d="M106.3,33.3c0-0.3,0-0.7,0-1C106.4,20,84,14.6,70,14.6c-15,0-36.1,5.4-36.1,17.6c0,0.3,0,0.7,0,1H12
					l3.9,68.9l123.6,1V33.3H106.3z" /></defs><clipPath id="SVGID_2_"><use xlink:href="#SVGID_95_" overflow="visible" /></clipPath><g clip-path="url(#SVGID_2_)"><g><path fill="#72AFC4" d="M96.6,36.2c5.1,7,5.9,15,1.9,17.9c-4,2.9-11.4-0.4-16.5-7.4c-5.1-7-5.9-15-1.9-17.9
						C84.2,25.9,91.5,29.2,96.6,36.2z" /><path fill="#0068AB" d="M86.1,34.4c-0.2,0.2-0.4,0.4-0.5,0.6c-0.1,0.2-0.3,0.5-0.4,0.7c-0.5,1.3-0.6,2.9-0.5,4.3
						c0,1.7,0.3,3.4,0.6,5.1c0.1,0.3,0.1,0.5,0.2,0.8c0.1,0.3,0.1,0.5,0.2,0.8l-1,0c0.1-0.3,0.2-0.5,0.3-0.8
						c0.1-0.3,0.2-0.5,0.3-0.7c1.6-3.4,5-5.7,8.8-6c-2.2,0.5-4.3,1.7-5.9,3.4c-1.6,1.7-2.6,3.9-2.9,6.1c-0.3-0.9-0.6-1.7-0.8-2.6
						c-0.1-0.3-0.1-0.5-0.2-0.8c-0.3-1.6-0.5-3.3-0.4-4.9c0.1-1.6,0.2-3.4,1-4.8c0.1-0.2,0.3-0.5,0.5-0.7
						C85.7,34.7,85.9,34.5,86.1,34.4z" /><path fill="#0068AB" d="M87.7,48.8c0,0,0.2,0,0.4,0.1c0.3,0,0.7,0.1,1.2,0.1c2.6,0,4.9-0.6,7.2-1.7c0.9-0.5,1.5-0.8,1.5-0.8
						s-0.6,0.4-1.4,0.9c-2.2,1.3-4.6,2.1-7.2,2.2c-0.5,0-1,0-1.3,0c-0.3,0-0.5,0-0.5,0L87.7,48.8z" /><path fill="#0190A0" d="M79.3,52.1l5.1-5.9c0,0,1.6-0.2,3.4,1.6c1.8,1.8,1.5,3,1.5,3l-5.2,4.4L79.3,52.1z" /><path fill="#02454C" d="M87.5,50.2c-0.9-1.1-2.2-1.9-3.6-2.4c-0.2-0.1-0.4-0.1-0.6-0.2l-0.1,0.1c0.2,0.1,0.4,0.2,0.7,0.2
						c0.7,0.3,1.4,0.6,2,1.1c0.6,0.5,1.1,1,1.6,1.6c0.1,0.2,0.3,0.4,0.4,0.6c0.1,0.2,0.2,0.4,0.3,0.7l0.3-0.2
						c-0.1-0.2-0.2-0.4-0.3-0.6C87.9,50.7,87.7,50.4,87.5,50.2z" /><path fill="#02454C" d="M85.5,52c-0.4-0.6-0.9-1.2-1.4-1.7c-0.6-0.6-1.4-1-2.2-1.3l-0.1,0.1c0.2,0.1,0.3,0.1,0.5,0.2
						c0.6,0.3,1.2,0.7,1.7,1.3c0.4,0.4,0.8,0.9,1.1,1.4c0.2,0.2,0.3,0.5,0.5,0.7c0,0.1,0.5,0.8,0.4,0.8l0.2-0.2
						C86.1,52.9,85.8,52.5,85.5,52z" /></g><g><path fill="#FFC540" d="M46.7,27.5c1.5,2.6,1.7,5.4,0.4,6.1c-1.3,0.8-3.6-0.7-5.2-3.3c-1.5-2.6-1.7-5.4-0.4-6.1
						C42.9,23.4,45.2,24.9,46.7,27.5z" /><path fill="#FFC540" d="M56.7,46.9c0,0-1.3-9.4-5.9-16c-4.7-6.5-7.8-6.8-7.8-6.8l3.4,9.8c0,0,1.2-0.5,2.6,0.3
						c5.4,3.5,5.9,13,5.9,13L56.7,46.9z" /><path fill="#F3823D" d="M46.3,28.2c0.9,1.8,0.7,4.3,0,4.8c-0.7,0.4-2.1-0.7-3.2-2.5c-1-1.8-1.6-4.3-0.8-4.7
						C42.9,25.4,45,25.6,46.3,28.2z" /></g><path fill="#FFC540" d="M142.9,94.9c-7.9-5.6-14.7-3.4-16.8-2.7c-18.7,6.1-5.3,23.7,6.3,38.9c0.9,1.2,5.3,6.9,7.8,6.6
					C142.9,137.4,156.6,104.6,142.9,94.9z" /><path fill="#FDEA80" d="M140.3,137.6c0.1,0,1-0.8,1.3-1.2c1-1.5,1.7-3.5,2.5-5.2c0.3-0.7,1.3-2.3,1.2-3.1
					c-0.1-0.6-0.2-1.1-0.3-1.7c-2.3-9.9-11-12.6-11-12.6s-9.3-2.8-14.5-1.8c2.4,4.8,5.5,9.2,8.7,13.4c1.8,2.4,3.4,4.8,5.3,7.1
					c1,1.1,2,2.2,3.1,3.2C137.5,136.6,138.9,138.1,140.3,137.6z" /><path fill="#FFC540" d="M139.9,129c2.2-1.1,3.5-3.2,4.2-5.2c-0.1-0.3-0.2-0.6-0.4-0.9c-0.6,2-1.8,4.5-4.2,5.4
					c-3.5,1.4-7.5,0.4-9.7-0.4c0.1,0.1,0.1,0.1,0.2,0.2c1.5,0.7,3.7,1.5,6.3,1.7C137.5,129.8,138.6,129.6,139.9,129z" /><path fill="#FFC540" d="M125.9,122.4c3.8-0.1,10.4-0.7,12.8-3.5c0.4-0.5,0.8-1.1,1-1.7c-0.3-0.3-0.7-0.6-1-0.9
					c-0.2,0.5-0.5,1-0.9,1.4c-2.1,2.6-8.4,3.8-12,4.3C125.7,122.2,125.8,122.3,125.9,122.4z" /><path fill="#FFC540" d="M125.6,92.4c0,0-0.5-3.8-8.8-9.3c-8.2-5.5-16.5-4.4-16.5-4.4s-6,0.5-12.5,10.4
					c-7.6,11.7-20.5,67.6,9.3,67.6c9.4,0,10.3,0,12.5,0c9.3,0,21.9-25.6,21.9-25.6s3.4-11.5,2.7-18.2
					C132.9,99,125.6,92.4,125.6,92.4z" /><path fill="#F3823D" d="M123.3,89.1c0.1,0.1,0.2,0.1,0.3,0.2c0.2,0.2,0.5,0.4,0.8,0.7c3.8,3.6,5.5,8.8,5.3,14
					c-0.1,2.8-0.7,5.6-1.6,8.3c-0.4,1.4-0.9,2.7-1.4,4c-0.5,1.2-1.1,2.2-1.6,3.3c0,0.1-0.1,0.1-0.1,0.2c0-0.9,0.4-1.9,0.6-2.8
					c0.2-1,0.4-1.9,0.6-2.9c0.4-2,0.8-4,1-6c0.3-2.1,0.5-4.3,0.5-6.5C127.6,97.3,125.9,92.6,123.3,89.1z" /><path fill="#F3823D" d="M133.1,105.5c0,0,0.2,0.7,0.5,2c1.8,9.3,0.6,19-3.4,27.6c-2.5,5.4-6,10.3-10.2,14.4
					c0.5-0.5,0.7-1.1,1.1-1.7c0.6-1,1.3-1.9,1.9-2.9c1.2-2,2.4-4,3.4-6.1c2.1-4.2,3.7-8.6,4.9-13.1c0.8-3,1.1-6.4,1.5-9.5
					c0.4-3.3,0.6-6.7,0.3-10.1C133.1,105.7,133.1,105.5,133.1,105.5z" /><path fill="#FFC540" d="M100,115.2c1.1-14.7,2.1-28.7,0.9-35.1c-0.1-0.5-0.2-0.9-0.3-1.4c-0.2,0-0.3,0-0.3,0s-1.4-6.6-3.3-10.4
					c-7.4-14.8-24.7-24.4-37.3-23.1c-12.6,1.4-7.1,15.1-7.1,15.1S25.7,46.6,18,113c-4.9,42,29.1,43.6,29.1,43.6s52.2-0.1,53.8-0.1
					c7.8,0,11.7-7,9.5-18.2C108.1,127.1,99.3,127.2,100,115.2z" /><path fill="#FDEA80" d="M101.4,156.6c-4.3-2-8.6-4.7-12.1-8.4c-11-11.8-5.5-77.4-5.5-77.4s-4.5,3.1-8.7,0.8
					c-4.8-2.7-4.2-3.9-6.5-6.8c-1.9-2.4-2.9-2.6-2.9-2.6h-4.2c0,0-2.2,7.4-7.9,8.3c-5.7,0.9-8.6-3.7-8.6-3.7s-19.5,35.8-17.1,60.2
					c1.1,10.9,2.8,18.9,4.4,24.5c7.4,4.7,14.8,5,14.8,5S83.5,156.6,101.4,156.6z" /><path fill="#FFC540" d="M60.5,96c-25,0-32.9-2.8-33.2-2.9l0.2-0.6c0.1,0,8.1,2.9,33,2.9c25.8,0,30.9-2.6,30.9-2.7l0.3,0.6
					C91.5,93.3,86.6,96,60.5,96z" /><path fill="#F3823D" d="M95.7,66.1c0,0,0.1,0.1,0.3,0.4c2.2,3,3.7,6.5,4.6,10.1c0.7,2.9,1.2,5.8,1.3,8.8c0,0.8,0.1,1.6,0.1,2.3
					c0.1,9.1-0.4,18.4-2,27.3c0,0,0-0.2,0-0.6c0-0.4,0-0.9,0-1.6c0-4.6,0-9.1,0-13.7c0.1-9.3,0.7-19-2.2-28
					c-0.5-1.6-1.1-3.2-1.8-4.7C95.8,66.3,95.7,66.1,95.7,66.1z" /><path fill="#FFC540" d="M57.2,109c-19.5,0-30.2-3.9-30.3-3.9l0.2-0.6c0.2,0.1,21.5,7.8,59.4,1.2l0.1,0.7
					C75.3,108.3,65.4,109,57.2,109z" /><path fill="#FFC540" d="M54.9,123c-5.5,0-11.1-0.3-16.4-1.1c-10-1.5-14.5-4-14.6-4.1l0.3-0.6c0,0,4.5,2.5,14.5,4
					c16.6,2.5,35.3,0.3,48.1-1.9l0.1,0.7C78.1,121.5,66.6,123,54.9,123z" /><path fill="#FFC540" d="M53.1,138.5c-4.7,0-8.9-0.3-12.3-0.7c-10.8-1.3-17.1-3.8-17.1-3.8l0.3-0.6c0.1,0,6.3,2.5,17,3.8
					c9.9,1.1,25.6,1.4,44.8-3.8l0.2,0.7C73.3,137.5,62.1,138.5,53.1,138.5z" /><g><path fill="#FFC540" d="M64.9,23.2c0.6,3.2-0.2,6.1-1.9,6.4c-1.6,0.3-3.4-2.1-4-5.3c-0.6-3.2,0.2-6.1,1.9-6.4
						C62.5,17.6,64.3,20,64.9,23.2z" /><g><path fill="#FFC540" d="M68,46.7c0,0,2.2-10.1-0.2-18.5c-2.4-8.3-5.4-9.8-5.4-9.8l-0.1,11.3c0,0,1.5-0.1,2.5,1.3
							c4.2,5.6,1.3,15.5,1.3,15.5L68,46.7z" /><path fill="#F3823D" d="M64.2,23.8c0.3,2.2-0.9,4.7-1.8,4.9c-0.9,0.2-1.9-1.5-2.4-3.7c-0.4-2.2,0-4.9,0.9-5.1
							C61.8,19.7,63.8,20.6,64.2,23.8z" /></g></g><g><g><path fill="#3A0F25" d="M58.8,43c0,0-0.3,0.5-0.6,1.4c-0.2,0.4-0.3,1-0.4,1.5c-0.3,1.7,0,3.4,0.7,5c0.2,0.4,0.3,0.8,0.5,1
							c0.1,0.1,0.1,0.2,0.1,0.3c0,0.1,0.1,0.1,0.1,0.1l-0.6,0.3c0,0,0,0-0.1-0.1c0-0.1-0.1-0.2-0.1-0.3c-0.1-0.3-0.3-0.6-0.4-1.1
							c-0.6-1.7-0.8-3.5-0.4-5.2c0.2-0.6,0.3-1.1,0.5-1.5C58.5,43.5,58.8,43,58.8,43z" /><path fill="#3A0F25" d="M62.1,42c0,0-0.4,0.5-0.9,1.3c-0.2,0.4-0.5,0.9-0.7,1.4c-0.6,1.6-0.6,3.4-0.2,5
							c0.1,0.4,0.2,0.8,0.3,1.1c0,0.1,0.1,0.2,0.1,0.3c0,0.1,0,0.1,0,0.1l-0.6,0.2c0,0,0,0,0-0.1c0-0.1-0.1-0.2-0.1-0.3
							c-0.1-0.3-0.1-0.7-0.2-1.1c-0.2-1.8-0.2-3.6,0.6-5.2c0.3-0.5,0.5-1,0.8-1.4C61.6,42.4,62.1,42,62.1,42z" /><path fill="#3A0F25" d="M64.2,43.5c0,0-0.4,0.5-0.9,1.3c-0.2,0.4-0.5,0.9-0.7,1.4c-0.6,1.6-0.6,3.4-0.2,5
							c0.1,0.4,0.2,0.8,0.3,1.1c0,0.1,0.1,0.2,0.1,0.3c0,0.1,0,0.1,0,0.1l-0.6,0.2c0,0,0,0,0-0.1c0-0.1-0.1-0.2-0.1-0.3
							c-0.1-0.3-0.1-0.7-0.2-1.1c-0.1-0.5-0.1-1-0.1-1.6c0-1.3,0.2-2.5,0.7-3.6c0.3-0.5,0.5-1,0.8-1.4
							C63.8,43.9,64.2,43.5,64.2,43.5z" /><path fill="#3A0F25" d="M70.6,43.5c0,0-0.3,0.5-0.6,1.4c-0.2,0.4-0.3,1-0.4,1.5c-0.3,1.7,0,3.4,0.7,5c0.2,0.4,0.3,0.8,0.5,1
							c0.1,0.1,0.1,0.2,0.1,0.3c0,0.1,0.1,0.1,0.1,0.1l-0.6,0.3c0,0,0,0-0.1-0.1c0-0.1-0.1-0.2-0.1-0.3c-0.1-0.3-0.3-0.6-0.4-1.1
							c-0.6-1.7-0.8-3.5-0.4-5.2c0.2-0.6,0.3-1.1,0.5-1.5C70.2,44,70.6,43.5,70.6,43.5z" /><path fill="#3A0F25" d="M73.8,42.5c0,0-0.4,0.5-0.9,1.3c-0.2,0.4-0.5,0.9-0.7,1.4c-0.6,1.6-0.6,3.4-0.2,5
							c0.1,0.4,0.2,0.8,0.3,1.1c0,0.1,0.1,0.2,0.1,0.3c0,0.1,0,0.1,0,0.1l-0.6,0.2c0,0,0,0,0-0.1c0-0.1-0.1-0.2-0.1-0.3
							c-0.1-0.3-0.1-0.7-0.2-1.1c-0.2-1.8-0.2-3.6,0.6-5.2c0.3-0.5,0.5-1,0.8-1.4C73.4,42.9,73.8,42.5,73.8,42.5z" /><path fill="#3A0F25" d="M76,44c0,0-0.4,0.5-0.9,1.3c-1.2,2-1.4,4.2-0.9,6.5c0.1,0.4,0.2,0.8,0.3,1.1c0,0.1,0.1,0.2,0.1,0.3
							c0,0.1,0,0.1,0,0.1L74,53.4c0,0,0,0,0-0.1c0-0.1-0.1-0.2-0.1-0.3c-0.1-0.3-0.1-0.7-0.2-1.1c-0.2-1.8-0.2-3.6,0.6-5.2
							c0.3-0.5,0.5-1,0.8-1.4C75.5,44.4,76,44,76,44z" /></g><ellipse fill="#FFFFFF" cx="61" cy="55.1" rx="4" ry="4.9" /><path fill="#3A0F25" d="M63.4,56.7c0,1.2-0.8,2.2-1.7,2.2s-1.7-1-1.7-2.2c0-1.2,0.8-2.2,1.7-2.2S63.4,55.5,63.4,56.7z" /><ellipse fill="#FFFFFF" cx="72.1" cy="55.1" rx="4" ry="4.9" /><path fill="#3A0F25" d="M74,56.7c0,1.2-0.8,2.2-1.7,2.2c-1,0-1.7-1-1.7-2.2c0-1.2,0.8-2.2,1.7-2.2C73.2,54.5,74,55.5,74,56.7z" /></g><g><path fill="#3A0F25" d="M69,61.2c-0.4-1.1-1.4-2.9-2.3-2.9c-1,0-2,1.4-2.3,2l-0.6-0.3c0.1-0.1,1.3-2.4,2.9-2.3
						c1.6,0.1,2.8,3,2.9,3.3L69,61.2z" /><g><path fill="#8DD2F4" d="M65,61.1c0,1.7-2,3.1-4.5,3.1c-2.5,0-4.5-1.4-4.5-3.1s2-3.1,4.5-3.1C63,57.9,65,59.3,65,61.1z" /><path fill="#3A0F25" d="M60.6,64.5c-2.6,0-4.8-1.6-4.8-3.5s2.2-3.5,4.8-3.5c2.6,0,4.8,1.6,4.8,3.5S63.2,64.5,60.6,64.5z
							 M60.6,58.3c-2.3,0-4.1,1.2-4.1,2.8c0,1.5,1.8,2.8,4.1,2.8c2.3,0,4.1-1.2,4.1-2.8C64.7,59.5,62.8,58.3,60.6,58.3z" /></g><g><path fill="#8DD2F4" d="M77.6,61.1c0,1.7-2.1,3.1-4.6,3.1c-2.6,0-4.6-1.4-4.6-3.1s2.1-3.1,4.6-3.1
							C75.5,57.9,77.6,59.3,77.6,61.1z" /><path fill="#3A0F25" d="M73,64.5c-2.7,0-5-1.6-5-3.5s2.2-3.5,5-3.5c2.7,0,5,1.6,5,3.5S75.7,64.5,73,64.5z M73,58.3
							c-2.4,0-4.3,1.2-4.3,2.8c0,1.5,1.9,2.8,4.3,2.8c2.4,0,4.3-1.2,4.3-2.8C77.3,59.5,75.4,58.3,73,58.3z" /></g><path fill="#3A0F25" d="M79.3,61.1c0,0.5-0.4,0.8-0.8,0.8c-0.5,0-0.8-0.4-0.8-0.8c0-0.5,0.4-0.8,0.8-0.8
						C78.9,60.3,79.3,60.6,79.3,61.1z" /><path fill="#3A0F25" d="M56.1,61.1c0,0.5-0.4,0.8-0.8,0.8c-0.5,0-0.8-0.4-0.8-0.8c0-0.5,0.4-0.8,0.8-0.8
						C55.7,60.3,56.1,60.6,56.1,61.1z" /></g><g><path fill="#72AFC4" d="M70.5,66.1c0,0-2.1-2.8-4.8-4.1c-2.7-1.3-3.8-0.4-3.8-0.4s-2.1,2-2,4.1c0.1,2.1,1.5,5.2,2.4,5.4
						c0.9,0.2,2.9-0.8,2.9-0.8s0.5,2.1,1,2.4c0.5,0.3,2-0.5,3.4-2.5C70.9,68.2,70.5,66.1,70.5,66.1z" /><path fill="#0068AB" d="M67.1,64.1c0,0,0.1,0.1,0.1,0.4c0.1,0.3,0.1,0.7,0.1,1.1c0,1.7-0.5,3.8-2,4.8c-0.7,0.6-1.7,0.8-2.6,0.8
						c-0.1,0-0.2,0-0.3,0c-0.1,0-0.1,0-0.1,0s0.2,0,0.4-0.1c1.5-0.3,2.7-1.2,3.3-2.6c0.6-1.2,0.9-2.7,1-4
						C67.1,64.2,67.1,64.1,67.1,64.1z" /><path fill="#0068AB" d="M67.4,64.1c0,0.2-0.2,0.4-0.4,0.4c-0.2,0-0.4-0.2-0.4-0.4c0-0.2,0.2-0.4,0.4-0.4
						C67.2,63.7,67.4,63.9,67.4,64.1z" /></g><g><path fill="#0068AB" d="M25.6,79.2c0,0,3.5,6.2,5.7,13.5c1.5,5,3,11.3,3,11.3h35.8c0,0,8.8-10.1,15.5-15.2
						c6.8-5.1,16.1-7.1,16.1-7.1v4.5c0,0-20,7-15.8,40.1c1.4,11,4,15.2,4,15.2l-67.1-3.5c0,0,3.6-14.5,4.6-26.3s-3.9-26.7-3.9-26.7
						L25.6,79.2z" /><path fill="#0068AB" d="M82.3,114.4c0,0,5.3,1,10.2-0.2c4.9-1.3,8.1-4.1,8.1-4.1l-0.1,0.9c0,0-1.7,2.6-6.6,4.4
						c-4.9,1.8-10.9,1.7-10.9,1.7L82.3,114.4z" /><path fill="#0068AB" d="M17.8,115.3c0.1,0.1,0.3,0.1,0.4,0.2c4.9,1.8,10.9,1.7,10.9,1.7l0.6-2.7c0,0-5.3,1-10.2-0.2
						c-0.6-0.1-1.1-0.3-1.6-0.5C17.9,114.2,17.8,114.8,17.8,115.3z" /><path fill="#F27727" d="M63.3,117.3c0,0.5-0.9,1.1-1.5,1.1l0,0c-0.5,0-1.5-0.2-1.5-0.7l0.5-7.1c0-0.5,0.4-1,1-1l0,0
						c0.5,0,1,0.4,1,1L63.3,117.3z" /><path fill="#39B24A" d="M38.3,118.6c0,0.4-0.9,0.9-1.5,0.9l0,0c-0.5,0-1.5-0.2-1.5-0.6l0.5-5.6c0-0.4,0.4-0.8,1-0.8l0,0
						c0.5,0,1,0.3,1,0.8L38.3,118.6z" /><path fill="#DA5A81" d="M47.3,118.6c0,0.4-0.8,0.9-1.4,1l0,0c-0.5,0-1.5-0.1-1.5-0.5l-0.1-5.6c0-0.4,0.4-0.8,0.9-0.8l0,0
						c0.5,0,1,0.3,1.1,0.7L47.3,118.6z" /><path fill="#85298D" d="M50.9,118.8c0,0.4-0.8,0.9-1.4,1l0,0c-0.5,0-1.5-0.1-1.5-0.5l-0.1-5.6c0-0.4,0.4-0.8,0.9-0.8l0,0
						c0.5,0,1,0.3,1.1,0.7L50.9,118.8z" /><path fill="#FFC540" d="M55.2,118.4c0,0.4-0.9,0.9-1.5,0.9l0,0c-0.5,0-1.5-0.1-1.5-0.6l0.4-5.6c0-0.4,0.4-0.8,1-0.8l0,0
						c0.5,0,1,0.3,1,0.8L55.2,118.4z" /><rect x="59.7" y="112.5" fill="#F27727" width="4.3" height="2.2" /><path fill="#FFFFFF" d="M65.1,119.1c0,0.6-0.5,1-1.2,1h-4c-0.7,0-1.2-0.5-1.2-1v-4.2c0-0.6,0.5-1,1.2-1h4c0.7,0,1.2,0.5,1.2,1
						V119.1z" /><path fill="#F27727" d="M34.7,118.1c0,0.4-0.9,0.9-1.5,0.9l0,0c-0.5,0-1.5-0.2-1.5-0.6l0.5-5.6c0-0.4,0.4-0.8,1-0.8l0,0
						c0.5,0,1,0.3,1,0.8L34.7,118.1z" /><g><polygon fill="#173F6D" points="40.8,119.8 56.1,120.6 55.9,116 40.8,116 						" /><polygon fill="#173F6D" points="56.9,134.4 56.2,121.2 40.8,120.6 40.8,133.6 						" /><path fill="#173F6D" d="M57,116l0.2,4.7l11.4,0.6c-0.1-3,0-5.2,0-5.2H57z" /><path fill="#173F6D" d="M68.5,121.7l-11.4-0.5l0.4,13.2l12.4,0.6c0,0,0,0-0.9-6.1C68.8,126.5,68.6,123.9,68.5,121.7z" /><polygon fill="#173F6D" points="40.2,120.6 30.6,120.2 29.7,133.1 39.6,133.6 						" /><polygon fill="#173F6D" points="40.2,119.8 40.4,116.2 40.5,116 30.9,116 30.7,119.3 						" /></g></g><g><path fill="#FFC540" d="M95.5,100.1c-1.8,0.8-15.6,3.8-17.9,5.4c-2.2,1.6,1,5.3,1,5.3s5.8,10.4,12,8.6
						c6.2-1.8,7.8-15.2,7.8-15.2L95.5,100.1z" /><path fill="#F3823D" d="M78.6,110.8c0,0,0.3,0.4,0.9,1.2c0.6,0.7,1.4,1.8,2.5,3c0.5,0.6,1.1,1.2,1.8,1.8
						c0.7,0.6,1.4,1.2,2.2,1.6c0.8,0.5,1.7,0.8,2.6,0.9c0.9,0.1,1.8-0.1,2.6-0.5c0.8-0.4,1.5-1.1,2.1-1.9c0.6-0.8,1.1-1.6,1.6-2.5
						c0.4-0.9,0.8-1.7,1.2-2.6c0.3-0.8,0.6-1.7,0.9-2.4c0.5-1.5,0.9-2.8,1.1-3.7c0.2-0.9,0.4-1.4,0.4-1.4s0,0.5,0,1.5
						c-0.1,0.9-0.2,2.3-0.5,3.9c-0.2,0.8-0.3,1.7-0.6,2.6c-0.3,0.9-0.6,1.9-1,2.8c-0.4,1-0.9,1.9-1.6,2.8c-0.7,0.9-1.5,1.8-2.6,2.4
						l-0.4,0.2l-0.1,0.1l-0.1,0l-0.2,0.1l-0.2,0.1l-0.1,0c-0.1,0,0,0-0.1,0l0,0l0,0l-0.1,0l-0.5,0.1c-0.6,0.1-1.2,0.1-1.8,0
						c-0.3,0-0.6-0.1-0.9-0.2c-0.3-0.1-0.6-0.2-0.8-0.3c-0.5-0.2-1-0.5-1.5-0.8c-0.9-0.6-1.7-1.3-2.3-2c-0.7-0.7-1.2-1.4-1.7-2.1
						c-1-1.3-1.6-2.5-2-3.4c-0.2-0.4-0.4-0.8-0.5-1C78.6,110.9,78.6,110.8,78.6,110.8z" /><path fill="#FFC540" d="M79.3,110.6c-1.8,0.3-5.2,1.3-7.3,2.1c-0.3,0.1-0.7,0.2-1-0.1c-0.1-0.1-0.1-0.3-0.1-0.4
						c-0.3-2,0.7-3.8,2.4-4.8c-1-0.1-2-0.1-3-0.2c-0.2,0-0.4,0-0.5-0.2c-0.2-0.3,0-0.7,0.3-0.9c1.2-1.1,2.8-1.8,4.4-1.9
						c1.6-0.1,3.3,0.2,4.8,0.8V110.6z" /></g><path fill="#FFC540" d="M24.5,93.9c0,0,3.5,6,5.3,7c1.8,1,9.6-1,12.3-0.6c2.7,0.4,1,3.7,1,3.7c-2,8.1-7.7,13.7-11.9,13.5
					c-5-0.2-10.7-8.4-9.4-20.3C22.7,96.1,23.6,95,24.5,93.9z" /><path fill="#F3823D" d="M43.1,104.4c0,0-0.1,0.5-0.4,1.4c-0.3,0.9-0.8,2.1-1.5,3.6c-0.3,0.7-0.7,1.5-1.2,2.3
					c-0.5,0.8-1,1.6-1.6,2.4c-0.6,0.8-1.3,1.6-2.1,2.4c-0.8,0.7-1.7,1.4-2.8,1.9c-0.3,0.1-0.6,0.2-0.8,0.3c-0.1,0-0.3,0.1-0.4,0.1
					l-0.2,0l-0.1,0l-0.1,0l0,0l0,0l-0.1,0l-0.4,0c-0.1,0-0.3,0-0.5,0c-0.3,0-0.6-0.1-0.9-0.1c-1.2-0.2-2.2-0.9-3-1.6
					c-0.8-0.7-1.4-1.6-1.9-2.4c-0.5-0.8-0.9-1.6-1.2-2.3c-0.3-0.7-0.5-1.4-0.7-2.1c-0.2-0.6-0.3-1.2-0.4-1.6
					c-0.1-0.5-0.2-0.8-0.2-1.1c0-0.2-0.1-0.4-0.1-0.4s0.2,0.5,0.6,1.3c0.4,0.8,0.9,2,1.7,3.4c0.4,0.7,0.8,1.4,1.4,2.1
					c0.5,0.7,1.1,1.4,1.8,1.9c0.3,0.3,0.7,0.5,1.1,0.7c0.4,0.2,0.8,0.3,1.2,0.4c0.2,0,0.4,0.1,0.6,0c0.1,0,0.2,0,0.3,0l0.4,0l0.1,0
					l0,0l0,0c0,0,0,0,0,0l0.2,0c0.1,0,0.2,0,0.3-0.1c0.2-0.1,0.4-0.1,0.6-0.2c0.9-0.4,1.7-0.9,2.4-1.6c0.7-0.6,1.4-1.3,2-2.1
					c0.6-0.7,1.2-1.5,1.7-2.2c0.5-0.7,1-1.4,1.4-2.1c0.9-1.3,1.5-2.4,2-3.2C42.8,104.9,43.1,104.4,43.1,104.4z" /><path fill="#FFC540" d="M42.2,105.2c1.8-0.2,5.3-0.2,7.6,0c0.3,0,0.8,0,0.9-0.3c0.1-0.1,0-0.3,0-0.4c-0.3-2-1.7-3.4-3.6-3.9
					c0.9-0.3,1.9-0.7,2.8-1c0.2-0.1,0.4-0.1,0.5-0.3c0.2-0.3-0.2-0.7-0.5-0.8c-1.4-0.8-3.2-1-4.8-0.6s-3.1,1.5-4.4,2.5L42.2,105.2z" /></g></g></g></g><g id="Rote" /><g id="Grok" /><g id="Locked_Blocks" /><g id="Locks" /><g id="Layer_15" /><g id="Layer_16" /></svg>