<svg xmlns="http://www.w3.org/2000/svg" viewBox="0 0 150 135" width="150" height="135" preserveAspectRatio="none"><defs><style>.cls-1{fill:#fff;}.cls-2{fill:#8bd2d4;}.cls-3{fill:#2484c6;}.cls-4{fill:#ffe07a;}.cls-5{fill:#e37ab1;}.cls-6{fill:#00529a;}.cls-7{fill:#483516;}.cls-8{fill:#f7996c;}.cls-9{fill:#fffce4;}</style></defs><g id="Layer_21" data-name="Layer 21"><polygon class="cls-1" points="96.09 95.08 133.81 94.53 135.14 62.57 92.27 62.94 96.09 95.08"/><path class="cls-2" d="M94.41,79.11s5.47-4.39,3.7-5.46-6.12-.22-6.7,2.53,3.28,6.3,3.28,6.3Z"/></g><g id="Layer_3" data-name="Layer 3"><path class="cls-3" d="M111.88,88.3s-1.53-.78-3.65-4.09c-.43-.69-1.58-3.41-2.08-4.44-1.29-2.7-3.06-3-4-2.5a3,3,0,0,0-1.45,3c.27,1,1,.82,1.72.39s.88-1.57,1.85-1.23c.7.24,1.9,1.88,2.46,3.68.83,2.72,1.7,6.41,4.79,7.6Z"/><path class="cls-4" d="M103.76,78.82c.71-.85,1.11-.16,1.11-.16a1,1,0,0,0-1.22-.86,1.06,1.06,0,0,1,.92-.14,2.27,2.27,0,0,0-2.43-.39,3,3,0,0,0-1.45,3c.27,1,1,.82,1.72.39s.88-1.57,1.85-1.23a1,1,0,0,1,.6,0A.81.81,0,0,0,103.76,78.82Z"/><path class="cls-4" d="M106.23,79.94a1.49,1.49,0,0,1-.55.93s.41.68.5.87c0,0,.57-.1.64-.52C106.82,81.22,106.5,80.45,106.23,79.94Z"/><path class="cls-4" d="M107.93,83.65s0,.41-.83.69c0,0,.17.65.55,1.68,0,0,1-.18,1.28-.77A18.7,18.7,0,0,1,107.93,83.65Z"/><path class="cls-4" d="M110.09,86.71a5.22,5.22,0,0,1-1.42,1.48,7.49,7.49,0,0,0,1.59,1.86l1.59.26-.34-2.17S111,87.59,110.09,86.71Z"/><path class="cls-3" d="M115.64,82.71A10.67,10.67,0,0,0,114,86.94a2.25,2.25,0,0,0-2.57-.7c-.68.32-1.15,1.6,0,3.86,0,0-3.79-2.2-3.51,1.87h21.29s.47-3.93-3.76-2.15c0,0,1.53-2,.68-3.25-.47-.7-1.76-.89-3,.33a12.52,12.52,0,0,0-1.61-4.47S119.76,83.39,115.64,82.71Z"/><path class="cls-3" d="M119.9,67.71a9.09,9.09,0,0,1,9.86-3.39S127.05,69,126.6,72.1Z"/><path class="cls-5" d="M123.43,70l3.17,2.08c.45-3.06,3.16-7.78,3.16-7.78S124.24,65.44,123.43,70Z"/><path class="cls-3" d="M114.89,68.15a10,10,0,0,0-11.72-2.6s5,3.79,6.4,7.81Z"/><path class="cls-5" d="M111.79,71.17l-2.22,2.19c-1.45-4-6.4-7.81-6.4-7.81S110.66,64.65,111.79,71.17Z"/><path class="cls-3" d="M130.6,76.94a4.1,4.1,0,0,1-3-1.14c0-.13,0-.25,0-.37,0-4.4-4.27-8-9.53-8s-9.53,3.56-9.53,8a6.18,6.18,0,0,0,.14,1.37,3.47,3.47,0,0,1-2.68.44s1.57,3.09,3.91,2.67a4,4,0,0,1-1.66.79s11,6.69,19.7-.74a2,2,0,0,1-1.31-1A4.76,4.76,0,0,0,130.6,76.94Z"/><path class="cls-1" d="M110.44,76.7s-1-4.74,3.25-5.36c2.09-.31,4,1.27,3.53,4.63C117.22,76,114.9,75.48,110.44,76.7Z"/><path class="cls-6" d="M118.09,83.93s-.68,5,.12,8h-.28S117,89.17,118.09,83.93Z"/><path class="cls-6" d="M115,92a1,1,0,0,1,.47-1.26,1.61,1.61,0,0,0-.18,1.26Z"/><path class="cls-6" d="M117.29,83.93a27.08,27.08,0,0,0-1.23,6.38l.23.08A61.58,61.58,0,0,1,117.29,83.93Z"/><path class="cls-6" d="M114.05,92s-.74-3.45,3.33-1.13c0,0-3.71-1.71-3.07,1.13Z"/><path class="cls-6" d="M116.12,92s-.44-.64.16-1a2,2,0,0,0,.13,1Z"/><path class="cls-6" d="M119.08,84.2a54.5,54.5,0,0,1,.48,7.77h.38A30.19,30.19,0,0,0,119.08,84.2Z"/><path class="cls-6" d="M119.93,83.85a25,25,0,0,1,1.56,6.55l.23-.05A19,19,0,0,0,119.93,83.85Z"/><path class="cls-6" d="M120.53,91s3.12-2.4,3,1h-.23S123.45,89.31,120.53,91Z"/><path class="cls-6" d="M122.88,92s.07-1-.77-1.27a1.13,1.13,0,0,1,.31,1.26Z"/><path class="cls-6" d="M121.92,92s.12-.8-.5-1a1.24,1.24,0,0,1,.11,1Z"/><path class="cls-6" d="M128.23,92s.46-2.5-1.61-2.24c0,0,1.48.14,1.32,2.24Z"/><path class="cls-6" d="M126.76,92a1.12,1.12,0,0,0-.61-1.74,1.72,1.72,0,0,1,.28,1.74Z"/><path class="cls-6" d="M125.38,92a1.08,1.08,0,0,0-.25-1.57,1.42,1.42,0,0,1,0,1.57Z"/><path class="cls-6" d="M109.22,92s-1.21-2,1.24-2.15c0,0-1.32.11-1,2.15Z"/><path class="cls-6" d="M110.59,92a1.15,1.15,0,0,1,.7-1.73A1.37,1.37,0,0,0,111,92Z"/><path class="cls-6" d="M111.7,92a1.32,1.32,0,0,1,.57-1.51,1.44,1.44,0,0,0-.21,1.51Z"/><path class="cls-4" d="M114.74,68l-.93,2.18s2.06.26,2.45-1.46l2.46,3.17s2.13-1.27.61-3l2.61,1.56s.58-1.79-2-2.8A10.4,10.4,0,0,0,114.74,68Z"/><path class="cls-4" d="M121.91,83.08s.06.87-1.19,1.81a6.13,6.13,0,0,0,1.93,0A8.34,8.34,0,0,0,121.91,83.08Z"/><path class="cls-4" d="M122.71,85.12a4,4,0,0,1-1.16,1.53,2.62,2.62,0,0,0,1.49-.18A10.53,10.53,0,0,0,122.71,85.12Z"/><path class="cls-4" d="M115.25,83.35a4.35,4.35,0,0,0,1.15,2.22,3.35,3.35,0,0,1-2-.55A10.42,10.42,0,0,1,115.25,83.35Z"/><path class="cls-4" d="M114.38,85.23a6.57,6.57,0,0,0,.94,2,4,4,0,0,1-1.32-.53A8.84,8.84,0,0,1,114.38,85.23Z"/><path class="cls-6" d="M114,87a4.32,4.32,0,0,0,.25,2.07S113.23,87.65,114,87Z"/><path class="cls-6" d="M123.12,86.9a4.32,4.32,0,0,1-.25,2.07S123.85,87.59,123.12,86.9Z"/><path class="cls-4" d="M114.29,83s-5-6.09,3.84-6.78c2.74-.21,6.41.57,4.41,6.66A13.29,13.29,0,0,1,114.29,83Z"/><path class="cls-1" d="M125.86,76.72s1.24-4.71-3-5.33c-2.09-.3-4.26,1.24-3.74,4.6C119.08,76,121.4,75.5,125.86,76.72Z"/><path class="cls-4" d="M116.13,74.21a2.29,2.29,0,1,0-3.65,2,20.16,20.16,0,0,1,3.11-.35A2.26,2.26,0,0,0,116.13,74.21Z"/><path class="cls-7" d="M113.72,72.63a1.76,1.76,0,0,0-.35,3.44c.49-.07.93-.12,1.33-.15a1.76,1.76,0,0,0-1-3.29Z"/><polygon class="cls-8" points="118.32 78.32 118.24 79.76 117.95 78.35 118.32 78.32"/><path class="cls-8" d="M114.54,78.07a.24.24,0,0,1-.25.24.24.24,0,0,1-.24-.24.25.25,0,0,1,.49,0Z"/><path class="cls-8" d="M116.09,78.38a.24.24,0,1,1-.24-.24A.25.25,0,0,1,116.09,78.38Z"/><path class="cls-8" d="M115.51,79.67a.17.17,0,0,1-.34,0,.17.17,0,0,1,.34,0Z"/><path class="cls-8" d="M121.74,78.75a.29.29,0,0,0,.32.25.29.29,0,1,0-.07-.57A.3.3,0,0,0,121.74,78.75Z"/><path class="cls-8" d="M120.17,77.72a.28.28,0,0,0,.32.25.29.29,0,1,0-.07-.57A.28.28,0,0,0,120.17,77.72Z"/><path class="cls-8" d="M120.58,79.39a.21.21,0,0,0,.22.18.2.2,0,1,0-.22-.18Z"/><path class="cls-9" d="M113.93,73.67a.81.81,0,0,1-1,.55c-.48-.06-.84-.41-.8-.77a.81.81,0,0,1,1-.54C113.62,73,114,73.31,113.93,73.67Z"/><path class="cls-8" d="M116.35,79.33a3.67,3.67,0,0,0,3.39-.13,3,3,0,0,1-1.5.83A2.33,2.33,0,0,1,116.35,79.33Z"/><path class="cls-4" d="M120.15,74.23a2.29,2.29,0,1,1,4.57.34,2.26,2.26,0,0,1-.92,1.67,19,19,0,0,0-3.1-.35A2.27,2.27,0,0,1,120.15,74.23Z"/><path class="cls-7" d="M122.57,72.65a1.76,1.76,0,0,1,.35,3.44c-.49-.07-.94-.12-1.33-.15a1.76,1.76,0,0,1,1-3.29Z"/><path class="cls-9" d="M122.64,73.57a.81.81,0,0,1-1,.54c-.48-.06-.84-.4-.8-.77a.81.81,0,0,1,1-.54C122.33,72.86,122.68,73.2,122.64,73.57Z"/><path class="cls-6" d="M110.44,76.7s-.15-4.5,2.86-5.17c.76-.18,4-1,3.92,4.44,0,0,1-4.82-2.93-4.92-2.44-.06-4.34,1-4.29,3.56a2.11,2.11,0,0,1-1.79-.71s.13,2,2,1.81c0,0-.78.62-1.39.35C108.79,76.06,109,76.67,110.44,76.7Z"/><path class="cls-6" d="M125.86,76.72s.47-4.52-2.53-5.19c-.76-.17-4.38-1-4.25,4.46,0,0-1-4.47,2.87-5,1.7-.24,4.83.46,4.41,3.62,0,0,.5.25,1.8-.78a2.07,2.07,0,0,1-1.78,1.88,1,1,0,0,0,1,.22S127.14,76.56,125.86,76.72Z"/><path class="cls-6" d="M121.12,77.47a4.35,4.35,0,0,1,4.28.15A8,8,0,0,0,121.12,77.47Z"/><path class="cls-6" d="M121.53,78.25a4.45,4.45,0,0,1,4.25.86A7.82,7.82,0,0,0,121.53,78.25Z"/><path class="cls-6" d="M122.25,79.22a4.07,4.07,0,0,1,3.12,1.1A9.73,9.73,0,0,0,122.25,79.22Z"/><path class="cls-6" d="M115.13,77.69a3.56,3.56,0,0,0-4.07.47A6.4,6.4,0,0,1,115.13,77.69Z"/><path class="cls-6" d="M114.8,78.51a5.05,5.05,0,0,0-4.18,1.2A10.11,10.11,0,0,1,114.8,78.51Z"/><path class="cls-6" d="M114.74,79.61a3.3,3.3,0,0,0-3.25,1.06A6.79,6.79,0,0,1,114.74,79.61Z"/><path class="cls-5" d="M118.16,77.07a3,3,0,0,0-1.49.53c.19.57,1.54,1.09,1.54,1.09s1.35-.78,1.37-1.39A3.08,3.08,0,0,0,118.16,77.07Z"/></g></svg>