<svg version="1.1" xmlns="http://www.w3.org/2000/svg" xmlns:xlink="http://www.w3.org/1999/xlink" x="0px" y="0px" viewBox="0 0 150 135" enable-background="new 0 0 150 135" xml:space="preserve" width="150" height="135" preserveAspectRatio="none"><g id="BG" /><g id="PB1" /><g id="PB2" /><g id="PB3" /><g id="Kraken" /><g id="Fiona"><g><polygon opacity="0.3" fill="#221F1F" points="10,32.2 18.5,104.2 141.2,105.1 142.5,34.4 		" /><polygon fill="#CDE4B7" points="7.5,29.9 16,101.9 138.8,102.9 140,32.2 		" /><g><defs><path id="SVGID_39_" d="M111.4,31.7C110.1,20.1,97.2,11,81.4,11c-15.3,0-27.9,8.6-29.9,19.7l-44-0.7l8.5,72l122.8,1l1.2-70.7
					L111.4,31.7z" /></defs><clipPath id="SVGID_2_"><use xlink:href="#SVGID_39_" overflow="visible" /></clipPath><g clip-path="url(#SVGID_2_)"><g><path fill="#B869A0" d="M80,127.9c5,13.2,8.9,26.6,11.6,39.9h-7.8c-0.5-13-2.2-26.2-4.9-39.2C79.3,128.4,79.6,128.1,80,127.9" /></g><g><path fill="#B869A0" d="M68.9,126.2c2.2,14,3.2,27.9,3.2,41.4l-7.6-1.6c2.1-12.8,3.2-26.1,3.3-39.4
						C68.1,126.5,68.5,126.4,68.9,126.2" /></g><path fill="#B869A0" d="M60.8,91.8c-1.2-4.9-1.9-9.5-0.8-12.1c1.1-2.8,3.6-4.6,6.2-6.6c5.9-4.6,3.6-13.4,0.7-16.1
					c-13.7-11.6-31.2-5.5-37.9,16.1c0,0-5.4,16.1,15,30.2l0,0c3.6,2.5,6,7.1,6,8.8c0.2,3.2-0.9,4.7-2.8,7.3c-1,1.4-2.4,2.6-4.1,2.8
					c-1.7,0.3-3.6-0.7-4-2.4c-0.4-1.7,1.4-3.5,3-2.9c0.3-0.8-0.7-1.6-1.6-1.4c-0.8,0.2-1.4,0.9-1.8,1.7c-1.2,2.5-0.8,5.6,0.3,8.1
					c0.9,2.1,2.4,4,4.5,4.7c0.3,0.1,0.6,0.2,0.9,0.2c-1.4,2.6-2.3,5.4-2.9,8.3c-0.4,2.2-0.6,4.4-0.1,6.5c0.3,1.4,0.8,2.7,1.7,3.8
					c0.4,0.7,0.9,1.3,1.4,1.8c1.8,1.6,4.1,2.4,6.5,2.6c3.6,0.3,7.4-0.9,9.8-3.7c1.7-2,2.5-4.7,2.1-7.3c-0.4-2.1-2-5.4-4.7-4.9
					c-1.3,0.2-2.3,2.1-1.3,3c0.2-0.8,1.1-2.5,2-1.2c0.3,0.4,0.3,1,0.2,1.5c-0.3,1.7-1.3,3.3-2.8,4c-2.9,1.1-4.3-0.8-4.6-3.4
					c-0.3-2.5,2.4-5.5,3.8-7.3c2.7-3.7,7.9-5.5,10.9-9.2c4.1-5.2,0.4-24.2-4.8-32.4C61.4,92.1,61.1,92,60.8,91.8z" /><path fill="#7C1A55" d="M48.7,97.7c-1.2-0.4-2.4-0.9-3.5-1.5c-1.1-0.6-2.2-1.2-3.2-2c-5.3-3.9-8.3-9.9-7.7-16.5
					c0.1-1.3,0.3-2.5,0.6-3.8c0.3-1.3,1-2.4,1.8-3.4c0.8-1,1.8-1.9,2.8-2.6c2.1-1.5,4.3-2.7,6.7-3.6c2.3-0.9,4.8-1.7,7.2-2.3
					c2.4-0.6,4.9-1.1,7.4-1.5l1.8-0.2l-1.5,1c-3.1,2.1-6.1,4.5-8.7,7.2c-2.2,2.3-4.1,4.9-4.6,8c-0.2,1.4-0.2,2.8,0.1,4.1
					c0.3,1.4,0.7,2.7,1.4,3.9c0.3,0.6,0.7,1.2,1.1,1.8c0.4,0.6,0.9,1.1,1.4,1.6c-1.1-0.9-2-2-2.7-3.3c-0.7-1.2-1.3-2.5-1.6-3.9
					c-0.5-2.1-0.5-4.3,0.3-6.4c0.7-2,1.9-3.8,3.2-5.4c2.7-3.2,6.2-6,9.7-8.4l0.3,0.7c-2.5,0.4-4.9,0.9-7.3,1.5
					c-2.4,0.6-4.8,1.3-7.1,2.3c-3.6,1.4-7.8,3.4-9.8,6.9c-0.8,1.4-1.3,3-1.5,4.6c-0.7,4.1,0,8.3,2.1,11.9c1.3,2.1,3,4,4.9,5.5
					c1,0.8,2,1.5,3.1,2.1C46.4,96.7,47.5,97.3,48.7,97.7" /><path fill="#7C1A55" d="M57.3,52.6c-2.6,2.2-3.8,5.4-2.9,8.3c1.3,4.2,6.5,6.4,11.6,4.8c1.6-0.5,2.9-1.3,4-2.2
					c-0.5-2.7-1.8-5.3-3.1-6.5C64.1,54.6,60.8,53.2,57.3,52.6z" /><path fill="#C21B7C" d="M64.4,62.4c-1.7,0.5-3.5,0.3-5-0.7c-1.5-1-2.3-2.7-2.4-4.4c0-0.2,0-0.4,0-0.6c0-0.3,0.1-0.5,0.1-0.5
					s0,0.2,0.1,0.5c0.2,1.8,1.1,3.4,2.5,4.5c0.7,0.5,1.4,0.8,2.2,1C62.7,62.5,63.6,62.2,64.4,62.4" /><path fill="#C21B7C" d="M55.9,56.1c0,0-0.1,0.2-0.1,0.7c-0.1,0.4-0.1,1-0.1,1.7c0.1,0.7,0.2,1.6,0.6,2.4c0.8,1.7,2.3,3,4.2,3.3
					c1.5,0.2,2.9-0.1,4.3-0.4c-0.4,0.6-1.5,0.6-2,0.8c-1.1,0.3-2.2,0.3-3.3,0C57.9,64,56.6,62.6,56,61c-0.4-0.9-0.5-1.8-0.5-2.5
					c0-0.7,0.1-1.4,0.2-1.8C55.8,56.3,55.9,56.1,55.9,56.1" /><path fill="#7C1A55" d="M68.7,115.4l-3-5.3c0,0-4.2,2.1-9.6,3.6c-8.9,2.5-11.6-2.5-11.6-2.5s-1.5,5,1.6,9.9
					c1.8,2.9,5.3,4.4,5.3,4.4s-4.3,1-2.9,2.1c1.3,1,4.6,2,7.6,1.4c1.1-0.2,2.3-0.3,3.2-1.1c0,0-2.5,2.1-0.6,2.2
					c3.7,0.2,9.8-5.1,11-8.7C70.7,117.6,68.7,115.4,68.7,115.4z" /><path fill="#7C1A55" d="M73.6,110c0,0-8-4.2-11.8,3.7c-5.7,12.1,3.5,20,4.6,19.8c1.1-0.2,2-6.1,2-6.1s1.7,7.6,3.5,7.8
					c1.7,0.2,3.9-6.3,3.9-6.3s0.9,4.1,2.2,4.4c1.3,0.2,1.7-3.3,1.7-3.3s1.7,4.4,3.7,3.9c2-0.4,1.3-6.8,1.3-6.8s3.6,7.2,5,7.2
					c1.4,0,5.2-11.7,3-16.8c-2.3-5.2-7-5.2-7-5.2L73.6,110z" /><g><path fill="#B869A0" d="M78.5,111.1C78.5,111.1,78.5,111.1,78.5,111.1C78.5,111.1,78.5,111.1,78.5,111.1
						C78.5,111.1,78.5,111.1,78.5,111.1z" /><path fill="#B869A0" d="M78.4,110.9l-1-0.2c-0.1,0.1-0.1,0.2-0.2,0.3c-0.5,1.1-0.6,2.4-0.7,3.7c-0.1,0.8-0.1,1.5-0.1,2.3
						c0,0.8,0.1,1.6,0.2,2.3c0.2,1.5,0.6,3,1.1,4.5c0.5,1.4,1.2,2.8,2,4.1c-0.7-1.3-1.3-2.8-1.7-4.2c-0.4-1.5-0.7-3-0.8-4.5
						c-0.1-1.5,0-3,0.2-4.5c0.1-0.7,0.2-1.5,0.4-2.2c0.1-0.3,0.2-0.7,0.4-1c0.1-0.1,0.2-0.3,0.2-0.4c0,0,0.1-0.1,0.1-0.1h0
						c0,0,0,0-0.1,0L78.4,110.9z" /></g><path fill="#B869A0" d="M90.1,126.2c0-1.5-0.1-3.1-0.4-4.6c-0.3-1.5-0.7-3-1.3-4.4c-0.3-0.7-0.6-1.4-1-2.1
					c-0.4-0.7-0.8-1.3-1.2-2c-0.2-0.3-0.4-0.6-0.6-0.8l-1.4-0.3c0.5,0.5,1,1.1,1.3,1.6c0.9,1.2,1.8,2.4,2.4,3.8
					c0.7,1.4,1.2,2.8,1.5,4.3C89.8,123.2,90,124.7,90.1,126.2z" /><g><path fill="#B869A0" d="M74,110C74,110,74,110,74,110C74,110,74,110,74,110C74,110,74,110,74,110C74,110,74,110,74,110z" /><path fill="#B869A0" d="M73.6,110c0,0-0.3-0.1-0.7-0.3c-0.1,0.1-0.2,0.3-0.3,0.4c-0.5,1-0.8,2.2-1,3.4
						c-0.1,0.8-0.2,1.5-0.3,2.3c-0.1,0.8-0.1,1.6-0.1,2.3c0.1,1.5,0.3,3.1,0.7,4.6c0.4,1.5,0.9,2.9,1.5,4.3c-0.6-1.4-1-2.9-1.3-4.4
						c-0.3-1.5-0.4-3-0.4-4.5c0-1.5,0.3-3,0.6-4.5c0.2-0.7,0.4-1.5,0.6-2.1c0.1-0.3,0.3-0.7,0.5-0.9c0.1-0.1,0.2-0.3,0.3-0.4
						c0,0,0.1-0.1,0.1-0.1c0,0,0,0-0.1,0l0,0L73.6,110z" /></g><g><path fill="#B6A5CA" d="M126,41.2c-0.3-1.5-12.3-3.8-20.4,2.7c-8.2,6.5-10.7,18.9-10.7,18.9s5.9-1.7,15.7-6.4
						C117.3,53.2,126.3,42.7,126,41.2" /><path fill="#F4B3D0" d="M108.6,46.2C115,42.5,124,42,124,42.1c0.3,1.4-8.3,10.6-14.6,13.6c-5.6,2.7-9.9,4.3-12.3,5.2
						C98.1,57.2,100.8,50.8,108.6,46.2" /></g><path fill="#B6A5CA" d="M103,52.2c-0.5-9.9-6.5-19.8-16.1-23c-10.8-3.7-23.4,1.7-27.6,12.4C58.4,43.9,58,46.4,58,49
					c0,4.6,1.5,8.8,4.2,12.3c2.7,3.9,6.5,6.8,10.5,8.7c-1,4.9-2.9,12.9-2.9,12.9l5.1,6l1.8-1.7c-0.6-6-0.5-9.7,0.4-15.5
					c7.7,2.6,15.2,2.4,17.8,1.1C103,68.7,103.5,62.1,103,52.2z" /><path fill="#B6A5CA" d="M114.3,78c0.2-2.2-13.3,3.9-13.3,3.9s6.2-6,4.9-7.6c-1.3-1.6-6.9,2.2-8,8.3c-1-2.2-2.5-5.4-3.4-4.9
					c-1.8,1,0.3,7,3.3,8.4c-1.2,2.6-3.6,6.7-7.6,7.6c-5.9,1.3-8.4-2.6-8.4-2.6l-1.7,1.8c0,0,3.4,3.6,10.6,3.6c9.1,0,11-10.9,11-10.9
					s9.2,1.9,10.3,0.3c1.1-1.6-10-2.1-10-2.1S113.9,81.5,114.3,78" /><path fill="#B6A5CA" d="M64.7,90.2c0,0-10.5,0.4-12.6,6.7c-1.3,3.8,6.8,12.6,6.8,12.6s-7.2-1.4-7.2,1c0,2.4,6.5,0.8,6.5,0.8
					s-7.3,5.2-5.6,6.7c1.7,1.5,7.5-5.7,7.5-5.7s-3,5-1,5.7c2,0.7,5.6-6.7,3.9-9.3c-1.7-2.6-5.6-5.4-7.3-7.9
					c-3.7-5.4,7.9-9.6,7.9-9.6L64.7,90.2z" /><path fill="#4CC5F2" d="M83.5,100.4c0,0-3.8-1.7-6.5-5.1c-2.7-3.5-2.6-4.3-2.6-4.3l2.4-2.4l9.6,2.7L83.5,100.4z" /><path fill="#F4B3D0" d="M85,90.8l-2.3-0.6l-3.1,7.7c0.5,0.4,1,0.8,1.4,1.1L85,90.8z" /><path fill="#F4B3D0" d="M76.9,95.1c0,0,0.1,0.1,0.1,0.1c0.5,0.6,1,1.1,1.5,1.6l2.6-7.2l-2-0.6L76.9,95.1z" /><path fill="#4CC5F2" d="M69.3,84.6l-5.9,26.8c0,0,8.2,4.4,17.1,2.8c5.8-1.1,5.2-1.8,5.2-1.8s-7.4-9.4-9.1-25.1
					c0,0-0.8,2.8-2,2.5C72.8,89.2,70.2,85.3,69.3,84.6z" /><polygon fill="#F4B3D0" points="73.1,94 71.1,98 73,98.3 73.7,107.1 71.6,107.2 71.7,109.8 79.3,110.5 78.9,107.1 76.3,107.1 
					75.6,94.2 				" /><path fill="#4CC5F2" d="M56.7,89.7c0,0,3.5-2.2,7.9-2.4c4.4-0.2,5,0.3,5,0.3l0.6,3.3l-7.6,6.4L56.7,89.7z" /><path fill="#F4B3D0" d="M63.8,96.3l1.9-1.6L61,87.9c-0.6,0.2-1.2,0.4-1.7,0.6L63.8,96.3z" /><path fill="#F4B3D0" d="M64.8,87.2c0,0-0.1,0-0.1,0c-0.8,0-1.5,0.1-2.2,0.3l4.4,6.2l1.6-1.3L64.8,87.2z" /><g><path fill="#F4B3D0" d="M76.6,87.2l-1.8,1.7l-5.1-6l-0.7,3l6.2,5.9l1.7-2.4C76.9,89.4,76.6,87.4,76.6,87.2z" /></g><path fill="#614399" d="M80,65.1c0,0,0.1,0.1,0.3,0.3c0.2,0.2,0.6,0.5,1,0.8c2.6,1.8,5.7,1.2,8.3-0.1c0,0-0.4,0.6-1.3,1.3
					c-2,1.4-4.9,1.5-6.8,0c-0.3-0.2-0.5-0.4-0.6-0.6c-0.4-0.4-0.6-0.8-0.7-1.1C80,65.3,80,65.1,80,65.1" /><path fill="#614399" d="M80.9,64.9c0.1,0.5-0.2,0.9-0.6,1c-0.5,0.1-0.9-0.2-1-0.6c-0.1-0.5,0.2-0.9,0.6-1
					C80.3,64.2,80.8,64.5,80.9,64.9" /><path fill="#614399" d="M98.2,64.2c-0.1,0.3,0.1,0.5,0.3,0.6c0.3,0.1,0.5-0.1,0.6-0.3c0.1-0.3-0.1-0.5-0.3-0.6
					C98.6,63.8,98.3,63.9,98.2,64.2" /><path fill="#614399" d="M94.7,65.2c-0.1,0.3,0.1,0.5,0.3,0.6c0.3,0.1,0.5-0.1,0.6-0.3c0.1-0.3-0.1-0.5-0.3-0.6
					C95,64.8,94.8,64.9,94.7,65.2" /><path fill="#614399" d="M96.9,67.1c-0.1,0.3,0.1,0.5,0.3,0.6c0.3,0.1,0.5-0.1,0.6-0.3c0.1-0.3-0.1-0.5-0.3-0.6
					C97.3,66.7,97,66.8,96.9,67.1" /><path fill="#614399" d="M74.6,65.5c0-0.3,0.2-0.5,0.4-0.5c0.3,0,0.5,0.2,0.5,0.4c0,0.3-0.2,0.5-0.4,0.5
					C74.8,65.9,74.6,65.7,74.6,65.5" /><path fill="#614399" d="M71.3,63.9c0-0.3,0.2-0.5,0.4-0.5c0.3,0,0.5,0.2,0.5,0.4c0,0.3-0.1,0.5-0.4,0.5
					C71.6,64.4,71.3,64.2,71.3,63.9" /><path fill="#614399" d="M73.8,62.4c0-0.3,0.2-0.5,0.4-0.5c0.3,0,0.5,0.2,0.5,0.4c0,0.3-0.2,0.5-0.4,0.5
					C74.1,62.9,73.8,62.7,73.8,62.4" /><g><path fill="#3A0F25" d="M66.4,46.5c0,0,0.2,0.4,0.7,0.9c1.3,1.5,3.2,2.5,5.3,2.6c0,0.4-0.1,0.7-0.1,1.1c0,0.1-1.7-0.5-1.8-0.6
						c-1.4-0.6-2.7-1.7-3.5-3C66.6,47,66.4,46.5,66.4,46.5" /><path fill="#3A0F25" d="M67.7,42.6c0,0,0.1,0.5,0.4,1.2c0.3,0.7,0.8,1.5,1.5,2.3c0.3,0.4,0.7,0.7,1,1c0.3,0.3,0.7,0.5,1,0.8
						c0.3,0.2,0.6,0.4,0.7,0.5c0.2,0.1,0.3,0.2,0.3,0.1l-0.6,1c0,0-0.1-0.1-0.3-0.2c-0.2-0.1-0.4-0.3-0.7-0.6
						c-0.3-0.3-0.6-0.6-0.9-0.9c-0.3-0.4-0.7-0.8-0.9-1.2c-0.6-0.9-1-1.8-1.2-2.5C67.7,43.1,67.7,42.6,67.7,42.6" /><path fill="#3A0F25" d="M70.1,40.3c0,0-0.1,0.5,0.1,1.2c0.3,1.8,1.3,3.4,2.5,4.7c0.2,0.3,0.4,0.5,0.6,0.6
						c0.1,0.1,0.2,0.2,0.2,0.2L72.6,48c0,0-0.1-0.1-0.2-0.3c-0.1-0.2-0.3-0.5-0.5-0.8c-1-1.6-1.8-3.4-1.9-5.3
						C69.9,40.8,70.1,40.3,70.1,40.3" /><path fill="#FFFFFF" d="M85.4,56.4c0,0-3.3,5.5-9.4,4.3c-5.5-1.1-6.4-10.7-6.4-10.7s6.4-6.4,9.9-5.6
						C86.7,46.1,85.4,56.4,85.4,56.4" /><path fill="#0190A0" d="M81.3,53c0.4,3.1-1.5,5.9-4.1,6.2c-2.6,0.3-5-2-5.3-5.1c-0.4-3.1,1.5-5.9,4.1-6.2
						C78.5,47.6,80.9,49.9,81.3,53" /><path fill="#3A0F25" d="M79.4,53.2c0.2,1.9-0.9,3.6-2.5,3.7c-1.6,0.2-3-1.2-3.2-3.1c-0.2-1.9,0.9-3.6,2.5-3.7
						C77.8,50,79.2,51.3,79.4,53.2" /><path fill="#614399" d="M69.6,50.1c0,0,0.2-0.4,0.7-0.9c0.4-0.6,1.1-1.4,2-2.3c0.5-0.4,1-0.9,1.6-1.3c0.6-0.4,1.3-0.9,2-1.2
						c0.8-0.3,1.6-0.6,2.5-0.6c1.8-0.1,3.6,0.9,4.8,2.1c0.6,0.6,1.1,1.4,1.4,2.1c0.7,1.5,1,3,1.1,4.3c0.1,1.3,0,2.3-0.1,3.1
						c-0.1,0.7-0.2,1.1-0.2,1.1s0-0.4,0-1.1c0-0.7-0.1-1.8-0.4-3c-0.6-3.3-2.7-7.5-6.6-7.5c-0.7,0-1.5,0.2-2.2,0.4
						c-1.4,0.5-2.6,1.3-3.6,2.1c-1,0.7-1.7,1.4-2.3,1.9C69.8,49.8,69.6,50.1,69.6,50.1" /><path fill="#3A0F25" d="M107.3,47c0,0-0.1,0.4-0.5,1.1c-0.6,1-1.4,1.9-2.4,2.6c-0.8,0.5-1.8,1.1-2.8,1.2l-0.1-1.1
						c0,0,0.4,0,1-0.2c1.6-0.4,3.1-1.3,4.1-2.6C107.1,47.5,107.3,47,107.3,47" /><path fill="#3A0F25" d="M105.8,43.2c0,0,0,0.5-0.2,1.2c-0.2,0.7-0.5,1.7-1.1,2.6c-0.7,1.1-1.5,2.1-2.5,2.9
						c-0.2,0.2-0.3,0.2-0.3,0.2l-0.6-0.9c0,0,0.1,0,0.3-0.2c1.7-1.1,3.3-2.7,4-4.7C105.7,43.7,105.8,43.2,105.8,43.2" /><path fill="#3A0F25" d="M103.1,41.5c0,0,0.2,0.5,0.2,1.3c0,2.2-0.9,4.4-2.1,6.2c-0.1,0.2-0.2,0.3-0.2,0.3l-0.9-0.7
						c0,0,0.1-0.1,0.2-0.2c1.4-1.5,2.6-3.5,2.8-5.5C103.2,42,103.1,41.5,103.1,41.5" /><path fill="#FFFFFF" d="M102.3,50.6c-1.9-2.7-6.1-4.8-8.4-4.2C87.1,48.2,88.8,58,88.8,58s4.7,4.5,9.1,3.2c2-0.6,3.7-2,4.3-3.9
						C102.8,55.5,103.1,52.9,102.3,50.6" /><path fill="#0190A0" d="M91.3,54.1c-0.2,3,1.6,5.5,4.1,5.7c2.5,0.2,4.6-2.1,4.8-5.1c0.2-3-1.6-5.5-4.1-5.7
						C93.7,48.9,91.5,51.1,91.3,54.1" /><path fill="#3A0F25" d="M93.1,54.2c-0.1,1.8,1,3.3,2.5,3.4c1.5,0.1,2.8-1.3,2.9-3.1c0.1-1.8-1-3.3-2.5-3.4
						C94.5,51,93.2,52.4,93.1,54.2" /><path fill="#614399" d="M102.3,50.6c0,0-0.3-0.3-0.7-0.7c-0.5-0.4-1.2-1-2.1-1.7c-2.1-1.4-4.8-2-7.1-0.6
						c-0.6,0.4-1.1,0.8-1.5,1.4c-0.4,0.5-0.8,1.1-1,1.7c-0.5,1.2-0.8,2.5-0.9,3.6c-0.1,1.1-0.2,2-0.2,2.7c0,0.6,0,1,0,1
						s-0.1-0.4-0.2-1c-0.1-0.6-0.2-1.6-0.2-2.7c0-1.1,0.1-2.5,0.6-3.9c0.3-0.7,0.6-1.4,1.1-2c0.5-0.6,1.1-1.2,1.7-1.6
						c2-1.3,4.4-1.3,6.5-0.1c0.6,0.3,1.1,0.7,1.5,1.1c0.9,0.7,1.5,1.5,1.9,2C102.1,50.3,102.3,50.6,102.3,50.6" /><path fill="#FFFFFF" d="M76.1,55.9c0.1,0.8-0.3,1.4-0.9,1.5c-0.6,0.1-1.2-0.5-1.3-1.3c-0.1-0.8,0.3-1.4,0.9-1.5
						C75.5,54.6,76,55.1,76.1,55.9" /><path fill="#FFFFFF" d="M99.1,51c0.4,1.1,0.4,2.5-0.5,2.8c-0.9,0.3-2.2-0.8-2.6-1.9c-0.4-1.1-0.6-2.4,0.3-2.7
						C97.2,48.9,98.7,49.9,99.1,51" /><path fill="#FFFFFF" d="M95.3,56.9c0.1,0.8-0.3,1.4-0.9,1.5c-0.6,0.1-1.2-0.5-1.3-1.3c-0.1-0.8,0.3-1.4,0.9-1.5
						C94.6,55.5,95.2,56.1,95.3,56.9" /><path fill="#FFFFFF" d="M80.1,50.2c0.4,1.1,0.4,2.5-0.5,2.8c-0.9,0.3-2.2-0.8-2.6-1.9c-0.4-1.1-0.6-2.4,0.3-2.7
						C78.2,48.2,79.7,49.1,80.1,50.2" /></g><path fill="#3A0F25" d="M73.9,41.4c0-0.5,2.5-2.6,5.1-2.4c2.6,0.2,3.4,1.6,3.2,1.9c-0.3,0.2-1.3-0.5-3.2-0.6
					C76.1,40.3,74,41.9,73.9,41.4" /><path fill="#3A0F25" d="M99.5,42.3c0-0.5-2.6-2.4-5.2-2.1c-2.6,0.3-3.3,1.8-3.1,2c0.3,0.2,1.3-0.6,3.2-0.7
					C97.3,41.3,99.5,42.8,99.5,42.3" /><path fill="#B869A0" d="M93.4,28.1c-19.9-13.9-22.6-1.2-27,0c-1.8,0.5-7.3,1.5-9.4,3.2c-5.8,3.7-4.5,7.9-4.2,10
					c0.8,6.4,5.8,16.2,7.4,16.6c0,0,0.1,0,0.1,0c0.5-0.6,0.7-0.5,1.2-1.3c-0.2,0.9-0.5,4.3,3.9,5.3c0,0,1.5,0.4,2.8-0.5
					c1.5-1,1.2-3.6,1.2-3.6c0-4.8-3.2-1-3.2-1c2.4-0.7,1.2,1.3,1.2,1.3c-0.4,0.4-0.9,0.6-1.6,0.5c-0.1,0-0.2-0.1-0.3-0.1
					c-0.6-0.5-2.7-2.5-1.1-7.2c1.7-3.4,1.8-6.6,1.3-9.3l0,0c0,0,0.2-10,15.6-5.2l0,0c3.6,1.7,6.9,3.5,6.9,3.5s8.1-2.8,10.3-2.1
					c0.5,0.9,1,1.6,1.5,2.4C102.8,37.3,102.8,34.6,93.4,28.1z" /><path fill="#7C1A55" d="M70.5,26.8c0,0,0.3-0.1,0.8-0.1c0.5,0,1.2,0,2.1,0.2c0.4,0.1,0.9,0.2,1.3,0.4c4.4,1.6,7.8,5.6,9,10.1
					c0,0-0.5-1-1.4-2.4c-1.9-3-4.5-5.7-7.8-7.2c-0.4-0.2-0.8-0.4-1.2-0.5c-0.8-0.3-1.5-0.4-1.9-0.5C70.8,26.8,70.5,26.8,70.5,26.8" /><path fill="#7C1A55" d="M54.4,36.2c3.3-1.3,7.3,0.8,8.8,3.7c0.9,1.8,1.4,3.9,1.6,5.9l0.2,1.4l-0.9-1.1c-1.8-2.3-4.3-3.9-7.1-4.7
					c-0.5-0.1-0.9-0.2-1.4-0.2c-0.2,0-0.5,0-0.7,0c-0.2,0-0.5,0.1-0.7,0.2c0.2-0.1,0.4-0.2,0.7-0.3c0.2-0.1,0.5-0.1,0.7-0.1
					c3.1-0.2,6,1.4,8.1,3.5c0.4,0.3,0.7,0.7,1,1.1L64,46c-0.1-0.6-0.2-1.3-0.3-1.9c-0.1-0.6-0.3-1.3-0.5-1.9
					c-0.7-2.1-1.5-3.9-3.5-4.9c-1-0.5-2.2-1-3.3-1.1c-0.3,0-0.7,0-1,0C55,36.1,54.7,36.2,54.4,36.2" /><path fill="#B869A0" d="M88.2,40.4c2.9-2.4,5.7-6.3,5.9-10.1c0.2-3.8-1.3-7.7-4.1-10.2c-1-0.9-2.2-1.6-3.4-2.3
					c-7.9-4-18.5-2.1-24.5,4.5c-0.8,0.9-1.6,2.3-1,3.3c0.7,1.2,2.6,0.9,3.9,0.4c0.8-0.3,1.6-0.6,2-1.3c0.5-0.7,0.4-1.8-0.4-2.1
					c0,1.1-0.9,2.1-1.9,2.2c-0.4,0.1-0.9,0-1.2-0.3c-0.7-0.7,0.2-1.9,1-2.4c3.4-2,8-1.8,11.5,0.2c3.5,2,6,5.4,7.2,9.2
					c0.6,1.7,0.9,3.6,1.6,5.3c0.7,1.7,1.3,2.7,3,3.4L88.2,40.4z" /><path fill="#7C1A55" d="M80.6,16.6c0,0,0.4,0.1,1.1,0.4c0.7,0.3,1.7,0.8,2.7,1.6c1.1,0.8,2.2,1.8,3.2,3.2c1,1.4,1.7,3,2.1,4.8
					c1,4.2,0.3,8.6-0.9,12.7c-0.2,0.7-0.4,1.1-0.4,1.1s0.1-0.4,0.2-1.2c0.7-4,1.1-8.5,0.2-12.5c-0.3-1.6-1-3.2-1.8-4.6
					c-0.9-1.3-1.9-2.4-2.9-3.3c-1-0.8-1.9-1.4-2.5-1.8C81,16.8,80.6,16.6,80.6,16.6" /><path fill="#7C1A55" d="M93.4,27.8c0,0,0.2,0.8,0.2,2.1c0.1,3.6-1.4,7.8-4.5,9.9c-0.3,0.2-0.5,0.3-0.5,0.3s0.2-0.1,0.4-0.4
					c2.5-2.8,3.7-6.2,4.2-9.8C93.3,28.6,93.4,27.8,93.4,27.8" /><g><path fill="#B6A5CA" d="M30,39.9c0.3-1.6,10.6-4,21.3,2.7C60.4,48.3,63,61,63,61s-6.2-1.5-16.7-5.8
						C39.2,52.2,29.7,41.5,30,39.9" /><path fill="#F4B3D0" d="M48.5,45.7c-6.3-3.5-13.3-4.9-16.8-5.3c-0.2,0.1,5.9,8.8,14.5,13.1c6.3,3.2,10.8,4.4,13.3,5.3
						C59,55.7,56.1,49.9,48.5,45.7" /></g></g></g></g></g><g id="Clod" /><g id="Announcer" /><g id="R_x26_G" /><g id="Q" /><g id="Rote" /><g id="Grok" /><g id="Locked_Blocks" /><g id="Locks" /><g id="Layer_15" /><g id="Layer_16" /></svg>