<svg version="1.1" xmlns="http://www.w3.org/2000/svg" xmlns:xlink="http://www.w3.org/1999/xlink" x="0px" y="0px" viewBox="0 0 150 135" enable-background="new 0 0 150 135" xml:space="preserve" width="150" height="135" preserveAspectRatio="none"><g id="BG" /><g id="PB1" /><g id="PB2" /><g id="PB3" /><g id="Kraken" /><g id="Fiona" /><g id="Clod" /><g id="Announcer" /><g id="R_x26_G" /><g id="Q" /><g id="Rote" /><g id="Grok" /><g id="Locked_Blocks" /><g id="Locks" /><g id="Layer_15"><polygon opacity="0.3" fill="#221F1F" points="10,32.2 18.5,104.2 141.2,105.1 142.5,34.4 	" /><polygon fill="#CDE4B7" points="7.5,29.9 16,101.9 138.8,102.9 140,32.2 	" /><g><defs><path id="SVGID_00000166658137300351228030000003520591421816302262_" d="M7.5,29.9l8.5,72l122.8,1l1.2-70.7
				C107.2,16.6,59.9,6.5,7.5,29.9z" /></defs><clipPath id="SVGID_00000091731286553394404020000002735038812157049992_"><use xlink:href="#SVGID_00000166658137300351228030000003520591421816302262_" overflow="visible" /></clipPath><g clip-path="url(#SVGID_00000091731286553394404020000002735038812157049992_)"><g><path fill="#268240" d="M75.3,95.4c0,0,8.5,5,17.2,3.5c0,0,1.8,5.7,2.4,12.5c0.2,1.9,1.3,6.2,0.6,7.8c0,0-3.4-0.1-6.1-0.8
					c-5.7-1.6-12.7-5.6-14.7-7.3c-3.2-2.9,0.2-15.8,0.2-15.8" /><path fill="#F49D4D" d="M130.1,80.8c-0.6,0.8-2.3,1.9-3.8,2.9c2.9-4.3,1.3-7.5,1.3-7.5c-0.8,0.7-2.4,1.8-3.8,2.8
					c0.6-2.9-0.1-5.3-0.1-5.3c-3.1,0.8-8.1,5.8-8.1,5.8s-3.3-2.8-8.1-2.3c-0.4,0,2.7,5,3.4,7c-1.4,9.9-10.6,13.4-15.1,14.3
					c-2.3,0.4-3.9,0.6-3.9,0.6l3.5,20.1c5.3-1,10-2,13.3-4.1c11.7-7.4,14.9-21,14.9-21C131.2,90.8,131.3,79.4,130.1,80.8z" /><path fill="#BB266A" d="M28,72.7c-0.3-0.1-9.9-1.8-9.5,6.1c0.2,4.6,3.3,5.2,3.3,5.2s11.8-7.8,11.5-7.9C33.1,76,28,72.7,28,72.7
					L28,72.7z" /><path fill="#2C9B47" d="M34.2,76.3L23.1,89c0,0-3.1,14.5-8.3,22.6c-7,11-14.5,17.4-13.8,19.1c0,0,14.7,26.2,43.2,28.5
					c23.6,1.9,29.7-7.8,29.7-7.8s-2.9-12.9,1-24.9c0,0,18.3-14.1-4.1-36.4C70.7,89.9,34.2,76.3,34.2,76.3L31,75.7
					c0,0-6.6,2.6-20.7,9.1c0,0-0.7,18.5,6.7,20.8c0,0,12.8-0.7,15.1-9.5c1.3-4.9,2.6-14.1,2.6-14.1L34.2,76.3z" /><path fill="#F49D4D" d="M10.2,84.8c0,0-9.1,2.6-20,12.6c0,0-7.7,6.7-7.4,9.1c0,0,0.2,6.5,10.2,9c0,0,5.6-7.4,23.8-10L10.2,84.8z
					" /><path fill="#CA70AC" d="M10.2,84.8c-0.1,0.4-9.1,2-0.1,7.8c0,0-6.8,4.9,2.5,8.7c0,0-2.8,3.5-1.4,5.3c0,0,2.3,0,5.8-1L10.2,84.8z
					" /><path fill="#6BBD4B" d="M31,75.7c0.8,2.2,11.2,29.8,22.5,25.8c4.4-1.6,5-3.7,5-3.7s-8.9-1.1-13.9-7C41.4,86.9,34.3,76,34.3,76
					L31,75.7z" /><path fill="#6BBD4B" d="M57.6,97.6c0,0-2,12.4-2.8,14.7c0,0,3.5,0.9,3.6,0.6c0-0.3,0.9-15.2,0.9-15.2L57.6,97.6z" /><path fill="#221F1F" d="M69.3,74c0.3,0.8,5.5,12.1,11.1,15.6c0,0-21.4,7.1-27.7,0.5s-6.1-37.9-6.1-37.9L69.3,74z" /><path fill="#6BBD4B" d="M75.2,92.9c0,0-7.2,4.9-16.6,4.8c0,0,0.6,4.7,6.7,5.8c9.2,1.7,11.2-10.1,11.2-10.2
					C76.4,93.4,75.2,92.9,75.2,92.9z" /><path fill="#F49D4D" d="M75.1,78.3c0.1,0.4,2.6,7.4,6.9,9.9S79.8,94,77,93.3s3.3-3.7,3.3-3.7s-7.8-3.7-8.4-12.1L75.1,78.3z" /><path fill="#A52F49" d="M50.3,66.1c0-0.1,14.3,3.8,16.2,19.3C66.6,85.3,50,86.7,50.3,66.1z" /><path fill="#FFFFFF" d="M59.8,69.9c0,0-0.4,8.1,12.2,13.7c2.9,1.3,6.5,1.9,10.7,2.2l2.2-2.3L59.8,69.9z" /><path fill="#CDCAC2" d="M84.8,82.6c-0.1,0.1-2.5,2.7-2.5,2.7s-5.6-0.1-10.3-1.8c0,0,5.4,2.6,10.7,2.2l2.2-2.3L84.8,82.6z" /><path fill="#F49D4D" d="M104.6,66.6c0.6-3.8,0.5-7.9-0.8-11.2c-0.2-0.4-0.9-1.8-1.2-2.3c0,0-4.7-4.7-10.5-4.6
					c-7.9,0.2-10.4-0.6-13.5,1.3c-3.9,2.3-4,2.4-3.9,2.3c-2.5-5.7-4.5-12.4-4.5-12.4c-3.4-2-7.1-5-9.8-5.5
					c-9.5-1.6-23.1,7.3-23.1,7.3s-7.1,19.2-4,31.5C38.8,94.5,57.3,99,57.3,99c0.1,0,1.3,0.2,1.7,0.2c10.5,0.8,19.3-5.8,21.3-9.7
					c0,0-5.7-0.9-12.8-3.8c-14-5.6-16.1-27.2-15.8-26.6c2.1,4.9,3.6,11.2,7.6,14.4c13.3,10.8,24.8,9.8,24.9,9.9
					c5.1-0.1,6.6,1.4,6.6,1.4s4.7,0,9.1-6C101.2,76.8,103.7,72.1,104.6,66.6z" /><path fill="#D13475" d="M60.4,34.3c-0.5-0.6-3.2,8.7-10.7,7.8c0,0,1.1,4.8-5.5,7c0,0,1,8.8-6.2,9.5c0,0-1.2,4.7,5.8,4.5
					c0,0,0.4,2.7-2.5,4.6c-4.4,2.9-7.2-0.8-7.2-0.8s-0.6,1.9,0.7,4.2c0.6,1.1,1.4,2,3.4,3.4c0.8,0.6-4.6,1-8.1-0.6
					c-4.8-2.2-7.7-8.7-3.3-14.8c0,0-6.1,0-3.6-7.8c0,0,4.8,1.2,6.7-2.2c0,0-3.8-1.4-3.9-4.8c-0.1-2.5,0.8-5.4,4.9-7.2
					c0,0-0.6,5,4.9,3.1c0,0-0.2-0.1,1-3.3c1.2-3.3,3.9-7.6,11.9-4.9c0,0,3-11.3,11.5-5.9c0,0,0.6,0.7,1.1,0.6
					c1.7-0.5,7.5-1.2,8.9,4.2c0,0,3.3-0.5,5.8,1.2c4.3,2.8,5.2,6.3,1.6,8.3c0,0,6.9,4.9-4.3,8.8L70.9,42l-0.7-2.3
					C70.2,39.7,65.5,40.2,60.4,34.3z" /><path fill="#A4A3A3" d="M78.6,49.9c0,0,12.9-8.4,14.3-8.1c5.1,1.3,9.7,11.4,9.7,11.4S88.6,48,78.6,49.9z" /><circle fill="#9D4F24" cx="81.2" cy="60.1" r="5.6" /><path fill="#BB266A" d="M61.1,31.5c0,0-1.4,12.7-14.9,10.2c0,0,5.3,0.7,9.2-2.6C59.9,35.2,61.1,31.5,61.1,31.5z" /><path fill="#F49D4D" d="M87.3,62.1c-0.7,2.6-3.8,3.6-6.5,2.9c-2.6-0.7-4.2-3.3-3.5-6s3.3-4.2,6-3.5C85.9,56.2,88,59.5,87.3,62.1
					z" /><path fill="#F49D4D" d="M109.9,62.4c0.8-3-1-6.1-4-6.8c-0.7-0.2-1.4-0.2-2.1-0.1c1.3,3.3,1.4,7.3,0.8,11.2
					C107,66.5,109.2,64.9,109.9,62.4z" /><circle fill="#9D4F24" cx="82.5" cy="60.9" r="3.5" /><path fill="#9D4F24" d="M104,57.1c0,0,1.7-0.3,2.8,1.4c1.9,3-0.6,6.5-2.2,6.9C104.7,65.4,105.3,60.1,104,57.1z" /><path fill="#BB266A" d="M49.7,42.1c0,0-2.8,6.5-9,6.4c0,0,0.8,0.5,2.2,0.6c0,0-0.4,9.3-7.6,9.3c0,0,10,2.6,9-9.3
					C44.2,49.1,50.1,48.6,49.7,42.1z" /><path fill="#9D4F24" d="M55.7,59.8c0,0-5.2-4.5-8,0.5C47.7,60.3,50.2,58.4,55.7,59.8z" /><path fill="#EFEEEE" d="M98.2,48.3c0,0-1.8-3.6-4.2-4.5c-1.1-0.4-1.5-0.1-1.6-0.2C92.3,43.6,95.2,44.9,98.2,48.3z" /><path fill="#BB266A" d="M23.2,51.3c0,0-0.4,8.8,8.5,4.7c0,0-2.2,3.1-4.9,3S21.3,56.9,23.2,51.3z" /><path fill="#BB266A" d="M30.9,37.2c0,0-8,7.1,0.7,10.6c0,0,1.7,0.4,4.2-0.2c0,0-2.8,1.9-5.8,1.6S22.7,41.6,30.9,37.2z" /><path fill="#BB266A" d="M25.4,61.6c0,0,0,10.8,9.3,12.4c0,0-2.8-2.9-2.6-5.2c0.2-1.7,0.6-4.1,2.2-4.9c0,0,3.2,4.7,7,2.3
					c0.9-0.6,1.7-1.4,2.3-3.1c0,0,0.6,3.2-3.7,5.3c-3.9,1.9-6-1.4-6-1.4s-1.1,4.5,4.5,7.7c0,0-2.7,1.9-5.2,1.5
					C30.8,75.8,21.3,73.4,25.4,61.6z" /><path fill="#BB266A" d="M48.7,32c0,0,5.6-10.1,11.7-4.7c0,0,1.4,1.4,1.4,1.2c0-0.1,2.6-2.3,6-0.4c0,0,2,0.5,1.8,3.6
					c0,0,5.2-0.9,8.4,3.7c0,0,1.6,2.3-0.5,4.9c0,0,5.4-2.2-0.3-7.3c0,0-2.9-2.6-7.1-2.1c0,0,0.2-2.8-2.9-4.2
					c-3.4-1.5-5.3,0.1-5.3,0.1S54.1,19.2,48.7,32z" /><path fill="#BB266A" d="M60.4,34.3c0,0,6.7,5.8,12.5,4.4c0,0-0.6,3.1-7.6-0.3C61.1,36.3,60.4,34.3,60.4,34.3z" /><path fill="#221F1F" d="M50.5,40.5c0-0.3-1.6,3.6,2.1,4l0.4-0.5C53,44.1,50.4,43.8,50.5,40.5z" /><path fill="#221F1F" d="M49,42.5c-0.1-0.3-0.1,3.9,3.4,3l0.2-0.6C52.7,44.9,50.1,45.6,49,42.5z" /><path fill="#221F1F" d="M48.5,45.1c-0.2-0.2,1.5,3.6,4.3,1.3l0-0.6C52.8,45.7,50.9,47.5,48.5,45.1z" /><path fill="#221F1F" d="M71.2,40.9c0-0.3,2,3.3-1.6,4.2l-0.5-0.4C69.2,44.7,71.8,44.2,71.2,40.9z" /><path fill="#221F1F" d="M73,42.7c0.1-0.3,0.6,3.8-3,3.4l-0.3-0.6C69.6,45.5,72.2,46,73,42.7z" /><path fill="#221F1F" d="M73.8,45.2c0.2-0.2-1.1,3.7-4.2,1.7l0-0.6C69.6,46.3,71.7,47.9,73.8,45.2z" /><circle fill="#FFFFFF" cx="56.1" cy="47.4" r="4.6" /><circle fill="#FFFFFF" cx="65.9" cy="47.5" r="4.6" /><circle fill="#221F1F" cx="55.8" cy="48.4" r="2.7" /><circle fill="#221F1F" cx="65.2" cy="48.9" r="2.7" /><circle fill="#FFFFFF" cx="54.9" cy="47.2" r="1.4" /><circle fill="#FFFFFF" cx="64.2" cy="47.9" r="1.4" /><path fill="#577D38" d="M81.7,114.8c0,0-2.9,16.4-17.8,16.4C63.9,131.2,76.2,129.6,81.7,114.8z" /></g><path fill="#9D4F24" d="M119.7,83.9c0,0-7,2-4.9,6.5C114.8,90.4,115.3,86.3,119.7,83.9z" /></g></g></g><g id="Layer_16" /></svg>