<?xml version="1.0" encoding="utf-8"?>
<!-- Generator: Adobe Illustrator 19.2.0, SVG Export Plug-In . SVG Version: 6.00 Build 0)  -->
<!DOCTYPE svg PUBLIC "-//W3C//DTD SVG 1.1//EN" "http://www.w3.org/Graphics/SVG/1.1/DTD/svg11.dtd">
<svg version="1.1" xmlns="http://www.w3.org/2000/svg" xmlns:xlink="http://www.w3.org/1999/xlink" x="0px" y="0px"
	 viewBox="0 0 150 164" enable-background="new 0 0 150 164" xml:space="preserve" width="150" height="164" preserveAspectRatio="none">
<g id="PB1">
</g>
<g id="PB2">
</g>
<g id="PB3">
	<polygon fill="rgba(255,255,255,0)" points="2,16.5 14,162.1 148,156.9 144,25.3 	"/>
	<polygon fill="rgba(255,255,255,0)" points="14,162.1 16.1,162 5.2,20 144.1,27.8 144,25.3 2,16.5 	"/>
	<polygon fill="rgba(255,255,255,0)" points="2,16.5 14,162.1 148,156.9 144,25.3 	"/>
	<polygon fill="rgba(255,255,255,0)" points="14,162.1 16.1,162 5.2,20 144.1,27.8 144,25.3 2,16.5 	"/>
</g>
<g id="Kraken">
</g>
<g id="Fiona">
</g>
<g id="Clod">
</g>
<g id="Announcer">
</g>
<g id="R_x26_G">
</g>
<g id="Q">
</g>
<g id="Rote">
</g>
<g id="Grok">
</g>
<g id="Locked_Blocks">
</g>
<g id="Locks">
	<path opacity="0.15" fill="#231F20" d="M102.9,61.5l-10.7,3.7l-7.6-33.2c0,0-42.5-27.5-54.1,13.3l10.3,37.8L28,87.6l16.5,73.3
		l94.5-29.9L102.9,61.5z M49.3,58.7c0,0,2.7-19.1,24.1-11.3l8.8,21.2l-28.4,9.9L49.3,58.7z M78.9,134.7l-5.2-21.5
		c-4.2-1-7.5-4.3-8.2-8.8c-0.8-5.8,3.3-11.1,9.2-12c5.9-0.8,11.3,3.2,12.1,9c0.3,2.5-0.3,4.9-1.5,6.9l12,17.5L78.9,134.7z"/>
</g>
</svg>
