<svg version="1.1" xmlns="http://www.w3.org/2000/svg" xmlns:xlink="http://www.w3.org/1999/xlink" x="0px" y="0px" viewBox="0 0 150 135" enable-background="new 0 0 150 135" xml:space="preserve" width="150" height="135" preserveAspectRatio="none"><g id="BG" /><g id="PB1" /><g id="PB2" /><g id="PB3" /><g id="Kraken" /><g id="Fiona" /><g id="Clod" /><g id="Announcer" /><g id="R_x26_G" /><g id="Q" /><g id="Rote" /><g id="Grok" /><g id="Locked_Blocks" /><g id="Locks" /><g id="Layer_15"><polygon opacity="0.3" fill="#221F1F" points="9.2,32.4 17.9,105.1 143.2,105.1 143.2,33.7 	" /><polygon fill="#6D6E71" points="6.8,30.3 15.2,103.1 140.8,103.1 140.8,31.7 	" /><g><defs><path id="SVGID_00000036967780707538500340000011901048083564421515_" d="M118.5,31.5C112.4,20,97.3,11.8,79.6,11.8
				c-17.3,0-32.1,7.8-38.5,18.9L6.8,30.3l8.4,72.8h125.6V31.7L118.5,31.5z" /></defs><clipPath id="SVGID_00000010273189801100688600000004214854568901642640_"><use xlink:href="#SVGID_00000036967780707538500340000011901048083564421515_" overflow="visible" /></clipPath><g clip-path="url(#SVGID_00000010273189801100688600000004214854568901642640_)"><g opacity="0.75"><g><path fill="#E6E6E6" d="M108.3,26.9c-1.3-0.9-2.4-1.6-3.7-2.3c-2,2.4-5,4-8.4,4c-4.6,0.1-8.5-2.7-10.3-6.7
						c-1.6,3.5-5.1,5.9-9.1,5.9c-3.3,0-6.2-1.5-8.1-3.9c-2.1,3.6-5.9,6-10.3,6.1c-1.2,0-2.4-0.2-3.6-0.5c-8.7,8-14.1,19.5-14,32.4
						c0.3,23.7,19.4,42.7,42.7,42.4c23.3-0.3,42-19.7,41.7-43.4C125.3,46.9,118.6,34.6,108.3,26.9" /></g></g><path fill="#E6E6E6" d="M67.3,34.1c0,0.9-0.7,1.6-1.6,1.6c-0.9,0-1.6-0.7-1.6-1.6c0-0.9,0.7-1.6,1.6-1.6
				C66.6,32.5,67.3,33.2,67.3,34.1" /><path fill="#E6E6E6" d="M72.3,34.8c0,0.6-0.5,1-1,1c-0.6,0-1-0.5-1-1c0-0.6,0.5-1,1-1C71.9,33.8,72.3,34.2,72.3,34.8" /><path fill="#E6E6E6" d="M49.1,58.3c0,1-0.8,1.8-1.8,1.8c-1,0-1.8-0.8-1.8-1.8c0-1,0.8-1.8,1.8-1.8C48.3,56.5,49.1,57.3,49.1,58.3
				" /><path fill="#E6E6E6" d="M48.3,65.2c0,0.5-0.4,0.9-0.9,0.9s-0.9-0.4-0.9-0.9c0-0.5,0.4-0.9,0.9-0.9S48.3,64.7,48.3,65.2" /><path fill="#E6E6E6" d="M62.7,43.7c0-0.2,0-0.3-0.1-0.5c-0.4-2.3-1.2-4.4-3-4.6c-0.1-1-0.3-2.4-1-3.2c-0.9-1.1-1.8-1.4-2.4-1
				c-0.6,0.3,0.6,2.4,0.6,2.4s-1.6-1-2.1-0.2c-0.5,0.8,1.1,1.5,1.1,1.5S53.7,38,53.8,39c0.1,1,1.7,0.9,1.7,0.9s-1.7,0.4-1.6,1.3
				c0.1,0.6,1,0.9,1.8,1.1c-0.5,1.2-0.7,2.4-0.9,3.4c-0.1-0.6-0.4-1.5-0.8-2.4c-0.8-1.8-2.2-2.2-2.2-2.2s-0.9,1.8-0.2,3.4
				c0.7,1.7,2.4,2.2,2.4,2.2s-0.9,0.5-1.5,1.6c-0.6,1.2-0.7,3.9-0.7,3.9s0.8-0.2,1.9-1.5c0.5-0.5,0.7-1.3,0.9-2c0.3,1.2,0.8,3,2,3.7
				l-2.2,2.5l2.3,0.6l0.3-2.9c0.1,0,0.2,0.1,0.3,0.1c0.2,0.2,0.4,0.3,0.6,0.3l0.6,2.2l1.9-1.2l-2-1.2c0.1-0.1,0.2-0.1,0.3-0.3
				c0.2-0.1,0.4-0.2,0.6-0.3v0c0,0,0,0,0.1,0c0,0,0.1-0.1,0.1-0.1c0.1,0,0.1-0.1,0.2-0.1c0,0,0.1-0.1,0.1-0.1
				c0.1-0.1,0.1-0.2,0.2-0.2c0-0.1,0.1-0.1,0.1-0.2c0-0.1,0.1-0.1,0.1-0.2c0-0.1,0.1-0.1,0.1-0.2c0-0.1,0.1-0.1,0.1-0.2
				c0-0.1,0.1-0.1,0.1-0.2c0-0.1,0.1-0.1,0.1-0.2c0,0,0-0.1,0.1-0.1c0-0.1,0.1-0.2,0.1-0.3c0,0,0-0.1,0-0.1c0-0.1,0-0.1,0.1-0.2
				c0,0,0-0.1,0-0.1c0-0.1,0-0.1,0.1-0.2c0,0,0,0,0-0.1c0-0.1,0-0.2,0.1-0.2c0,0,0,0,0,0c0,0,0,0,0,0c0.1,0,0.2,0,0.3,0
				c0.3,0,0.5-0.1,0.7-0.1c0.4-0.1,0.7-0.2,0.7-0.2s0-0.6,0-1.6S62.8,45,62.7,43.7z" /><path fill="#E6E6E6" d="M95.4,35.8c0,1-0.8,1.8-1.8,1.8c-1,0-1.8-0.8-1.8-1.8c0-1,0.8-1.8,1.8-1.8C94.6,34,95.4,34.8,95.4,35.8" /><g opacity="0.2"><g><path opacity="0.2" fill="#E6E6E6" d="M127.9,61.2C128.2,86,108,103.7,83.2,104C58.4,104.3,38.3,87,38,62.2
						C37.7,37.4,57.6,17,82.5,16.7C107.3,16.5,127.7,36.4,127.9,61.2" /></g></g><path fill="#E6E6E6" d="M114.7,62.5c0,0.5-0.4,0.9-0.9,0.9s-0.9-0.4-0.9-0.9c0-0.5,0.4-0.9,0.9-0.9S114.7,62,114.7,62.5" /><path fill="#E6E6E6" d="M119,53c0,1.2-0.9,2.1-2.1,2.1c-1.2,0-2.1-1-2.1-2.1c0-1.2,1-2.1,2.1-2.1C118,50.9,119,51.9,119,53" /><path fill="#E8DFD3" d="M139.4,112.1c2.4-4.6,4.5-11.1,4.5-11.1s-0.6-0.2-1.4-0.4c-0.9,2.2-2.3,6.1-4.9,10.9L139.4,112.1z" /><path fill="#E6E6E6" d="M136.7,113.2l-3.5-3.1l4.4,1.4c2.6-4.8,4-8.7,4.9-10.9c-1.5-0.4-3.5-1.1-5.2-1.6l0,0
				c-2.3-0.6-5.6-1.7-5.6-1.7l0,0c-1-0.3-2.1-0.7-3.3-1c1.2-0.8,1.9-1.3,1.9-1.3l-3.2-1.1l-10.3-4.1c-0.3-1.3-0.6-2.6-0.9-3.9
				c-6.5-27.6-22-41.6-27.4-45.8l1.4-1.9l-1.8,1.6c-0.3-0.2-0.6-0.4-0.8-0.6l0.6-3.3l-1.3,2.9l0,0l-1.9,0.3L84.5,37l-0.2,2.2
				l-7.6,1.2c1.4-0.6,2.6-1.3,3.7-2.2c-0.4-0.4-0.7-0.9-1.1-1.4c-1.9,1.4-4,2.9-6.5,3.6c-0.3-0.6-0.7-1.1-1.1-1.6
				c0.3,0.5,0.6,1.1,0.9,1.7c-0.3,0.1-0.5,0.1-0.8,0.2c0.1,0.2,0.1,0.3,0.1,0.4l-1.5,0.2c-1.1-1.3-2.4-2.6-3.8-3.7
				c1.2,1.1,2.2,2.5,3.1,3.8l-1,0.2l0,0c-0.5-0.2-1-0.4-1.5-0.7c0.5,0.4,1,0.8,1.5,1.1l-0.3,13.7C59.6,55.9,52.8,59,52.8,59
				l-3.6,7.9l4.8-1c-0.7,0.5-1.6,2-1.6,7c0,0.9,0.1,1.9,0.3,2.9c0.3,0.6,0.7,1.4,1.3,2.1l0,0c0,0,1.2,1.8,3.9,2.9
				c0.1,0.1,0.3,0.1,0.4,0.2c0,0.1,0.1,0.2,0.1,0.3c-2.1,1.6-4.5,3.4-6.9,5.4c0,0,0,0,0,0l-10.2,5.7l-1.8,1.1c0,0,0,0,0,0
				c-0.1,0.1-1,0.6-3.4,1.7c0,0,0,0,0,0c-5.7,2.3-10.7,2.5-15.1,1.2l2.2,2.3c0,0,0,0,0,0l0,0l0.1,0.1c0,0,0,0,0,0l1.7,1.4l-2,0.2
				c-0.1,4-0.1,9.1,0.3,15.3l1.7,0.2l-0.6,0.4c0,0,0,0.1,0,0.2l-1,0.5c0.1,0.8,0.1,1.7,0.2,2.5l0.7,0.9l-0.5,0.4
				c0.2,2.8,0.4,4.3,1.3,6.9c0.3-0.4,0.6-0.4,1-0.5c-0.5,2.2-0.6,4.2-0.4,6.3c-0.1,0.5-0.1,1-0.2,1.5c-0.1,0-0.1-0.1-0.1-0.1
				c-2.8,1.1-1.8,2.8-1.1,3.6c0,0.2,0,0.5,0,0.7c-0.1,0.3-0.2,0.7-0.2,1.2c-2.6,1-6.2,2.8-6.9,4.8l2.1,3c0,0,2.8-3.5,5.2-5.6
				c0,0,0.1,0.1,0.1,0.1c0.1,0.1,0.3,0.2,0.4,0.3c0,0.2,0,0.4,0,0.6c-1.6,3.1-3.5,7.7-2,8.8c2.3,1.7,2.9,0.9,2.9,0.9
				s0.6-4.1,1.3-7.6c0.5,0.1,1.1,0.3,1.7,0.4c-0.1,3.1-0.1,6-0.1,8.6l14,0.8l3.1-5.6c0.2,0.1,0.5,0.1,0.7,0.2l-1.2,4.4l3.5-3.8
				c0.7,0.2,1.3,0.3,2,0.5l-0.7,4.6c0,0,9.8,2.2,19.1,1.1c0,0,0.9-1.2,1.5-2.8c1.2,0.1,2.4,0.1,3.6,0.2l0.8,2.8
				c9.9,3.4,48.8-4,48.8-4s-0.9-2.8-1.4-4.9c0.1,0,0.1,0,0.1,0s-0.4-2.3-0.8-4.8c2.1-1.3-0.1-2.9-0.5-3.2c-0.1-0.6-0.2-1.1-0.2-1.6
				c-0.1,0-0.2,0.1-0.3,0.1c0,0,0,0,0,0c0.1,0,0.2-0.1,0.3-0.1c-0.1-0.9-0.1-1.8-0.2-2.7c0-1.1,0.1-2.3,0.1-3.7
				c4.2-2,16.9-15.2,16.9-15.2l-1.9-1.8l3-0.3L136.7,113.2z M24.3,138.7C24.3,138.7,24.3,138.7,24.3,138.7
				C24.3,138.7,24.3,138.7,24.3,138.7c0,0.1,0,0.1,0,0.2C24.3,138.9,24.3,138.8,24.3,138.7z M92.1,152.9c1.1-0.2,2.2-0.4,3.2-0.7
				c5.3-0.5,10.3-1.2,14.5-1.9C104,151.5,98.4,152.4,92.1,152.9z" /></g></g></g><g id="Layer_16" /></svg>