<svg version="1.1" xmlns="http://www.w3.org/2000/svg" xmlns:xlink="http://www.w3.org/1999/xlink" x="0px" y="0px" viewBox="0 0 150 135" enable-background="new 0 0 150 135" xml:space="preserve" width="150" height="135" preserveAspectRatio="none"><g id="BG" /><g id="PB1" /><g id="PB2" /><g id="PB3" /><g id="Kraken" /><g id="Fiona" /><g id="Clod" /><g id="Announcer" /><g id="R_x26_G" /><g id="Q" /><g id="Rote" /><g id="Grok" /><g id="Locked_Blocks" /><g id="Locks" /><g id="Layer_15"><g><g><polygon opacity="0.3" fill="#211E1F" points="11.6,33.3 18.5,105.1 141,104.6 141,33.9 			" /><polygon fill="#6D6E71" points="9,31.2 15.9,103.1 138.4,103.3 138.4,32.4 			" /></g><g><defs><path id="SVGID_185_" d="M99.7,30.6C98,22.3,87.7,15.9,75.3,15.9c-12.6,0-23,6.6-24.4,15.1L9,31.2l6.9,71.9l122.6,0.2V32.4
					L99.7,30.6z" /></defs><clipPath id="SVGID_2_"><use xlink:href="#SVGID_185_" overflow="visible" /></clipPath><path clip-path="url(#SVGID_2_)" fill="#E6E6E6" d="M114.9,88.4c0-2.4-0.7-4.3-1.9-5.8l0.7-0.7L111,79l-0.4,0.5
				c-0.8-0.7-2.1-1.6-3.7-2.3c-2.8-1.3-5.8-1.6-6.8-1.7c0-0.1,0-0.1,0-0.2l-0.1,0c-0.1-6.4-0.4-15.9-1.3-20.5
				c-1.1-5.8-2.9-9.8-4.8-12.4c1.5-0.8,2.9-2.1,3.4-4.2h3.4v-3.6c0,0-1,0.3-3.2,0.6c-0.2-5.9-4.1-8.5-4.1-8.5s0.2,4.3-1.8,7.1
				c-0.7,1-1.5,1.7-2.2,2.2c-0.5,0-1,0.1-1.5,0.1l-1.9-10.6l-10.6-5.2l-9.7,4.6L64,36.1c-0.7,0-1.3-0.1-1.9-0.1
				c-0.2-0.3-0.5-0.6-0.7-0.9c-1.8-2.6-1.6-6.5-1.6-6.5s-3.2,2.1-3.7,6.8c-3.2-0.4-4.6-0.8-4.6-0.8v3.6h4.6c0.5,4.1,4.2,5.3,6.8,5.7
				l-1.4,6.5c0,0,2-1.2,4.7-2.5c0.2,0.3,0.6,0.6,0.9,0.9c0.6,1.5,1.1,3.9,1,7.7c-0.1,1.8-0.8,4.1-1.6,6.4c-0.6-0.1-1.1-0.2-1.7-0.3
				c-8.9-1.2-10,0.4-10,0.4s-1.9,2.9-2,7.8c-0.1,3,0.7,5,1.3,6.2l-0.5-0.2l-0.1,0c0,0,0,0,0,0.1c-0.9,0.2-1.9,0.6-2.9,1
				c-1.7,0.7-2.9,1.6-3.7,2.3l-0.4-0.5l-2.7,2.9l0.7,0.7c-1.1,1.5-1.9,3.4-1.9,5.8c0,8.1,8.6,9.5,12.1,9.7c0.1,0.2,0.2,0.4,0.4,0.5
				c0.8,0.6,1.6,0.2,1.6,0.2s-0.9,3.5,0.6,3.7c1.1,0.2,0.3-3,0.3-3s1.9,3.4,2.7,2.9c1.4-1-1.9-4.2-1.9-4.2s2.9,2.6,3.4,1.4
				c0.5-1.5-3.6-3.1-3.6-3.1s2.9-1.5,2.1-2.4c-0.6-0.7-2.2,1-3.5,1.7c-0.3,0.2-0.8,0.2-1.1,0.1c-1.4-1-3.8-3-3.1-5.1l0.9,0.9
				l2.2-1.3l-0.5-0.6l4.3-1.2c3.1,5.5,6.2,9.7,6.2,9.7l5.3,0c-0.1,1.1-0.3,2.4-0.4,3.9c-0.5,4.4,0,6,0,6h1.8l2.5,6.8
				c0,0-5.2-3.9-9.1-3.5c-3.9,0.4-3.9,5.2-3.9,5.2h14.9l-1-8.5h1.9c0,0-1.6-2.5-3.2-7.6c-0.3-0.8-0.4-1.6-0.5-2.2l9.8,0
				c-0.1,0.7-0.3,1.4-0.5,2.2c-1.6,5.1-3.2,7.6-3.2,7.6h1.9l-1,8.5h14.9c0,0,0-4.8-3.9-5.2c-3.9-0.4-9.1,3.5-9.1,3.5l2.5-6.8h1.8
				c0,0,0.5-1.6,0-6c-0.2-1.5-0.3-2.7-0.4-3.8l4.9,0c0,0,3.6-4,6.6-10.3l4.2,1.2l-0.5,0.6l2.2,1.3l0.9-0.9c0.6,2.2-1.7,4.1-3.1,5.1
				c-0.3,0-0.8,0-1.1-0.1c-1.3-0.8-2.9-2.4-3.5-1.7c-0.8,1,2.1,2.4,2.1,2.4s-4.1,1.6-3.6,3.1c0.4,1.2,3.4-1.4,3.4-1.4
				s-3.3,3.3-1.9,4.2c0.8,0.5,2.7-2.9,2.7-2.9s-0.8,3.2,0.3,3c1.5-0.3,0.6-3.7,0.6-3.7s0.8,0.4,1.6-0.2c0.2-0.2,0.3-0.3,0.4-0.5
				C106.2,97.9,114.9,96.5,114.9,88.4z" /></g></g></g><g id="Layer_16" /></svg>