<?xml version="1.0" encoding="utf-8"?>
<!-- Generator: Adobe Illustrator 19.2.0, SVG Export Plug-In . SVG Version: 6.00 Build 0)  -->
<!DOCTYPE svg PUBLIC "-//W3C//DTD SVG 1.1//EN" "http://www.w3.org/Graphics/SVG/1.1/DTD/svg11.dtd">
<svg version="1.1" xmlns="http://www.w3.org/2000/svg" xmlns:xlink="http://www.w3.org/1999/xlink" x="0px" y="0px"
	 viewBox="0 0 150 164" enable-background="new 0 0 150 164" xml:space="preserve" width="150" height="164" preserveAspectRatio="none">
<g id="Locks">
	<path fill="#CCCCCC" d="M100.8,64l-11,2.8l-4.7-33.7c0,0-39.9-31.2-55.1,8.5l7,38.5l-13,3.3L34,157.9l96.8-21.5
		L100.8,64z M47.6,56.6c0,0,4.4-18.8,25-9.1l6.9,21.9l-29.1,7.4L47.6,56.6z M70.5,134.8l-3.3-21.9c-4.1-1.3-7.1-5-7.4-9.5
		c-0.3-5.8,4.3-10.8,10.2-11.1c5.9-0.3,11,4.2,11.3,10c0.1,2.5-0.7,4.9-2.1,6.8l10.4,18.5L70.5,134.8z"/>
</g>
</svg>
