<?xml version="1.0" encoding="utf-8"?>
<!-- Generator: Adobe Illustrator 21.1.0, SVG Export Plug-In . SVG Version: 6.00 Build 0)  -->
<svg version="1.1" xmlns="http://www.w3.org/2000/svg" xmlns:xlink="http://www.w3.org/1999/xlink" x="0px" y="0px"
	 viewBox="0 0 150 135" enable-background="new 0 0 150 135" xml:space="preserve" width="150" height="135" preserveAspectRatio="none">
<g id="BG">
</g>
<g id="PB1">
</g>
<g id="PB2">
</g>
<g id="PB3">
	<g>
		<rect x="4.9" y="-29.5" fill="none" width="264.7" height="30"/>
		<text transform="matrix(1 0 0 1 4.8827 -13.1286)" fill="#FFFFFF" font-family="'MyriadPro-Regular'" font-size="23px">Teachers Locked 4th Grade</text>
	</g>
</g>
<g id="Kraken">
</g>
<g id="Fiona">
</g>
<g id="Clod">
</g>
<g id="Announcer">
</g>
<g id="R_x26_G">
</g>
<g id="Q">
</g>
<g id="Rote">
</g>
<g id="Grok">
</g>
<g id="Locked_Blocks">
</g>
<g id="Locks">
</g>
<g id="Layer_15">
	<g>
		<g>
			<g>
				<defs>
					<path id="SVGID_121_" d="M118.5-148.6c-6.1-11.5-21.2-19.6-38.9-19.6c-17.3,0-32.1,7.8-38.5,18.9l-34.3-0.3l8.4,72.8h125.6
						v-71.4L118.5-148.6z"/>
				</defs>
				<clipPath id="SVGID_2_">
					<use xlink:href="#SVGID_121_"  overflow="visible"/>
				</clipPath>
				<g clip-path="url(#SVGID_2_)">
					<path opacity="0.1" fill="#384F7E" d="M-28.4,8.7C-15,2.8,41.2,1.2,72.6,1c44.8-0.3,81.2,7.6,81.2,17.5
						c0.1,9.9-36.2,18.2-81,18.5c-26,0.2-55.3-3.3-66.8-13.4l-25.3,0.7C-41.8,21.7-35.4,11.7-28.4,8.7"/>
					<path fill="#9A4728" d="M50.2-20.1c0,0,0.4-5.1-11.4-5.1c-13.1,0-11.9,4.7-11.9,4.7c7.1,14,7.3,37.7,7.3,37.7
						c-2.7,8.4,2.1,3.8,2.1,3.8C50.9,7.9,50.2-20.1,50.2-20.1z"/>
					<path fill="#9A4728" d="M89.6-16.7c-1.3-3.4-9.2-6-18.2-3.4c-10.2,3-7.6,13.8-7.6,13.8s-2.3,17.1,12.3,30.2
						c0,0,4.9,4.3,2.8-4.1c0,0-1.7-6.4,4.5-18.2C83.3,1.7,90.9-13.3,89.6-16.7z"/>
					<path fill="#C15A2A" d="M20.7-35.4c0,0,0.8,13.6,2,19.2c0,0,5.1,24.1-7.9,34.3c0,0-8.1,5.7,2.8,4.3c0,0,31.4-3.4,28.6-45
						c-0.8-11.3-2.2-17-3.9-20.6c-3.3-2.1-8.8-1.6-14.9,0.7C21.6-39.7,20.6-36.9,20.7-35.4z"/>
					<path fill="#C15A2A" d="M57-35.4c-11.4-1.1-12,6.9-12,6.9s-1.3,5-2.5,26.6c-0.1,1.3,0.4,21.1,13.1,28.1c0,0,10.7,6,4.7-2.6
						c0,0-2.4-8,4.2-21.3c6.3-12.7,5.6-16.9,7.1-20.6C73.9-23.3,67.9-34.3,57-35.4z"/>
					<path fill="#EBE7D7" d="M43-10c-0.2,2.4-0.3,5.1-0.5,8.1c0,0.8,0.1,9,3.5,16.7L60,17.1c0.3-3.6,1.4-8.6,4.5-14.8
						c2.8-5.6,4.2-9.5,5-12.5L43-10z"/>
					<path fill="#A48B7F" d="M42.7,2l21.8,0.2c0.1-0.3,0.2-0.5,0.4-0.7L42.6,1.7C42.7,1.8,42.7,1.9,42.7,2z"/>
					<path fill="#A48B7F" d="M43.5,7.3l16.8,7.3c0.1-0.3,0.1-0.6,0.2-0.9L43.4,6.7C43.5,6.9,43.5,7.1,43.5,7.3z"/>
					<path fill="#C15A2A" d="M123.9,23.2c0,0-8.3-6.1-6.6-24.3c0,0,0.2-8.4,1.8-20.3c0,0,0.9-7.8-0.8-11.7c-2.2-0.9-2.1-1.4-5.5-2.1
						c-5.1-1.1-15.2-0.6-17.8,1.9C92.4-30.9,95-7.1,95.8-3.4c1.9,12.5,6.5,26.2,22,29.5C117.8,26.1,135.7,30,123.9,23.2z"/>
					<path fill="#EBE7D7" d="M95.8-3.4c1,6.5,2.7,13.3,6.3,18.8l15.4-5.7l0,0c-0.5-3-0.6-6.6-0.2-10.8c0,0,0.1-4.3,0.8-11.1
						c-4.8,0.5-20.9,2.3-23.1,2.7C95.3-6.6,95.6-4.4,95.8-3.4z"/>
					<path fill="#A48B7F" d="M96.3-0.5l18.2-1.3L99.6,10.7c0.1,0.1,0.1,0.2,0.2,0.4l3-2.4l14.6-0.4c0-0.2,0-0.4-0.1-0.5
						c-2.7,0-11.5-0.1-13.3,0L115.8-2l1.6-0.1c0-0.1,0-0.3,0-0.5L96.2-1.4C96.2-1.1,96.3-0.8,96.3-0.5z"/>
					<polygon fill="#682F1D" points="85.6,11 90.3,29.6 95.4,29 93.7,10.5 					"/>
					<polygon fill="#411D11" points="87.2,17.5 94.2,15.9 93.9,12.1 86,12.9 					"/>
					<polygon fill="#682F1D" points="72.9,1.3 99.6,-3.2 101,7 76.9,12.5 					"/>
					<polygon fill="#682F1D" points="81.1,10.4 84.5,15.2 95.6,13.5 96.4,6.8 					"/>
					<path fill="#904533" d="M72.9,1.3l26.7-4.5c0,0,0.7,7-10.2,9.3C89.4,6.1,77.5,7.7,72.9,1.3"/>
					<path fill="#C15A2A" d="M70.8-23.9c0,0-3.7,17.5,7.7,27.3c0,0,10.3,0.8,17.9-2.5c0,0,4.3-12.1,2.3-27L70.8-23.9z"/>
					<polygon fill="#411D11" points="81.7,11.4 96.3,8.1 96.1,10 82.5,12.5 					"/>
				</g>
			</g>
		</g>
	</g>
	<g>
		<polygon opacity="0.3" fill="#231F20" points="9.2,32.4 17.9,105.1 143.2,105.1 143.2,33.7 		"/>
		<polygon fill="#6E6F72" points="6.8,30.3 15.2,103.1 140.8,103.1 140.8,31.7 		"/>
		<g>
			<defs>
				<path id="SVGID_123_" d="M118.5,31.5C112.4,20,97.3,11.8,79.6,11.8c-17.3,0-32.1,7.8-38.5,18.9L6.8,30.3l8.4,72.8h125.6V31.7
					L118.5,31.5z"/>
			</defs>
			<clipPath id="SVGID_4_">
				<use xlink:href="#SVGID_123_"  overflow="visible"/>
			</clipPath>
			<g clip-path="url(#SVGID_4_)">
				<g opacity="0.75">
					<g>
						<path fill="#E7E7E7" d="M105.7,29.3c-1.4-0.5-2.7-1.3-3.8-2.4c-2.1,2.5-5.2,4.1-8.7,4.2c-4.8,0.1-8.9-2.8-10.7-7
							c-1.7,3.6-5.3,6.1-9.4,6.2c-3.4,0-6.4-1.6-8.4-4.1c-2.2,3.7-6.1,6.3-10.7,6.3c-1.3,0-2.6-0.2-3.7-0.5
							c-9.1,8.3-14.7,20.4-14.6,33.7c0.3,24.7,20.2,44.5,44.5,44.2c24.3-0.3,43.8-20.5,43.5-45.2C123.4,50.2,116.4,37.4,105.7,29.3"
							/>
					</g>
				</g>
				<g opacity="0.2">
					<g>
						<path fill="#E7E7E7" d="M126.2,65.1c0.3,25.9-20.5,47.1-46.3,47.4C54,112.7,32.8,92,32.5,66.1C32.2,40.2,52.9,19,78.8,18.7
							C104.7,18.5,125.9,39.2,126.2,65.1"/>
					</g>
				</g>
				<g>
					<path fill="#E7E7E7" d="M117.1,183.7c0-0.1,0-0.1,0-0.2c0-0.2,0-0.4,0-0.6c0-0.3,0-0.5,0-0.8c0-0.3,0-0.6,0-0.9
						c0-0.2,0-0.4,0-0.7c0-0.5,0.1-1.1,0.1-1.6c0,0,0,0,0-0.1c0,0,0-0.1,0-0.1c0,0,0-0.1,0-0.2c0,0,0-0.1,0-0.1c0-0.1,0-0.2,0-0.4
						c0,0,0-0.1,0-0.2c0-0.1,0-0.2,0-0.3c0,0,0-0.1,0-0.1c0-0.1,0-0.2,0-0.2c0-0.2,0-0.4,0-0.6c0-0.1,0-0.1,0-0.2c0-0.2,0-0.5,0-0.7
						c0-0.1,0-0.2,0-0.4c0-0.2,0-0.4,0-0.7c0-0.1,0-0.2,0-0.4c0-0.3,0-0.7,0.1-1.1c0-0.1,0-0.2,0-0.3c0-0.3,0-0.6,0.1-0.9
						c0-0.1,0-0.3,0-0.4c0-0.4,0.1-0.8,0.1-1.2c0-0.1,0-0.2,0-0.3c0-0.4,0.1-0.9,0.1-1.3c0-0.2,0-0.3,0-0.5c0.1-1,0.2-2,0.3-3.1
						l0.5-0.1c0.7,0.8,1.6,1.7,2.7,2.6c7.7,6.1,13.8,4.8,13.8,4.8l-1.3-4.1l7.4,1l-4.7-4.1l9.1-3.8l-7.2-3.1l0.3-4.8
						c0-0.4,0.1-0.9,0.1-1.4l0-0.1l0,0c0-0.7,0.1-1.4,0.1-2.3l0,0c0-0.1,0-0.3,0-0.4c0-0.2,0-0.3,0-0.5c0-0.1,0-0.3,0-0.4
						c0-0.2,0-0.4,0-0.7c0-0.1,0-0.2,0-0.2c0-0.3,0-0.6,0-0.9c0,0,0-0.1,0-0.1c-0.1-6.5-0.9-15.8-4.4-24.8c-1.9-4.8-4.4-8.7-7-11.9
						l2.1-5.9l-3.3-0.9l0,0l-2.3-0.7l0,0l-4.8-1.4l0-0.1l-0.2-0.1l-4.2-5.2c-0.3-1.7-0.7-3.4-1.1-5.1c-6.8-28.8-23-43.4-28.6-47.7
						l1.5-2l-1.9,1.6c-0.3-0.3-0.6-0.5-0.9-0.6l0.6-3.5l-1.3,3c0,0,0,0,0,0l-2,0.3l-0.3-2.2l-0.2,2.2l-7.9,1.2
						c1.4-0.6,2.7-1.4,3.9-2.2c-0.4-0.5-0.8-0.9-1.1-1.4c-2,1.4-4.2,3-6.8,3.7c-0.4-0.6-0.7-1.1-1.1-1.7c0.3,0.6,0.6,1.1,0.9,1.7
						c-0.3,0.1-0.5,0.1-0.8,0.2c0.1,0.2,0.1,0.3,0.1,0.5l-1.6,0.2c-1.1-1.4-2.5-2.7-3.9-3.9c1.2,1.2,2.3,2.6,3.2,4l-1.1,0.2l0,0
						c-0.5-0.2-1-0.5-1.6-0.7c0.5,0.4,1.1,0.8,1.5,1.2l-0.3,14.3c-9.2,0.1-16.3,3.3-16.3,3.3L44.1,71l5-1.1
						c-0.7,0.5-1.7,2.1-1.7,7.3c0,1,0.1,2,0.3,3c0.3,0.6,0.7,1.4,1.3,2.2l0,0c0,0,0,0,0,0c0,0,0,0,0,0l0,0c0,0,0.2,0.2,0.5,0.5
						c0.4,0.5,0.9,1,1.5,1.4c0.8,0.6,1.7,1.2,2.7,1.6c0,0,0,0,0,0c-3.1,2.3-6.6,5.1-10.1,8.3c-0.5-0.2-1-0.4-1.4-0.7
						c-0.2,0.3-0.4,0.6-0.6,0.9l-17.7,1.7l1,6.9l1.4-0.2c-0.2,4.7-1.6,12.2-8.5,14c-0.5,0.1-0.9,0.2-1.4,0.3
						c-0.5,0.1-1.1,0.2-1.6,0.3c0,0,0,0,0,0c-4.1,0.8-7.6,0.9-10.1,0.7l0,0c-1.9-0.1-3.1-0.4-3.3-0.5c0.3-2.1,0.6-5.1,0.5-8.2
						c1.1-0.2,1.9-1.2,1.9-2.3c0-1.3-1.1-2.4-2.4-2.4c0,0-0.1,0-0.1,0c-1.1-5.1-4-10-10.3-12.3c-4-1.5-7.8-0.9-11.3,0.8
						c-0.5-0.3-1.1-0.5-1.8-0.5c-1.7,0-3.1,1.4-3.1,3.1c0,0.2,0,0.5,0.1,0.7c-9.5,8.2-15.9,23.8-17,26.4c-0.1,0.2-0.1,0.4-0.1,0.4
						l0,0c0,0,0,0,0,0c0.8,0.5,1.6,1,2.5,1.4c0.8,0.5,1.7,0.9,2.5,1.4c0.8,0.5,1.7,0.9,2.5,1.3c0.8,0.4,1.7,0.9,2.5,1.3l0.2,0.1l0,0
						c-0.1,0.8-0.2,2.1-0.1,3.7c0,0,0,0,0,0l0,0c0.1,2.5,0.5,5.6,1.9,8.5c-0.3,0.4-0.4,1-0.4,1.5c0,1.6,1.3,2.9,2.9,2.9
						c0.3,0,0.6-0.1,0.9-0.2c0.4,0.3,0.9,0.7,1.3,0.9c2.8,1.7,6.3,2.2,9.7,2.3c0.3,0.2,0.6,0.3,1,0.3c0.4,0,0.8-0.1,1.1-0.3
						c1.3-0.1,2.5-0.2,3.7-0.4c0,0,0,0,0,0c0,0,0,0,0,0c2.4-0.3,4.5-0.8,6-1.2v0c0,0,3.6,1.3,8.9,1.9l0,0.1c0.9,0.1,1.8,0.1,2.7,0.2
						c2.7,0.1,5.6,0,8.6-0.4c0,0,0,0,0.1,0c0.3-0.1,0.6-0.1,1-0.2c0.2,0,0.5-0.1,0.7-0.1l0,0c0.4-0.1,0.9-0.2,1.3-0.3l0.4,7.5l0.9,0
						l-2.4,7.3h0l-2,6l7,0.4c0.3,3.5,0.4,8.3-0.3,13.1c-22.7,1.1-43.9,3.1-51.5,6.4c-7,3-13.4,13.1,9.1,15.6L6,203.6
						c11.5,10.1,40.8,13.6,66.8,13.4c44.8-0.3,81.1-8.5,81-18.5C153.8,192.2,139.2,186.8,117.1,183.7z M0.9,121.2L0.9,121.2
						L0.9,121.2L0.9,121.2z"/>
					<circle fill="#E7E7E7" cx="61.3" cy="36.9" r="1.7"/>
					<circle fill="#E7E7E7" cx="55.9" cy="44.8" r="1.3"/>
					<circle fill="#E7E7E7" cx="90.4" cy="38.6" r="1.8"/>
					<circle fill="#E7E7E7" cx="49.1" cy="49.1" r="3.2"/>
					<circle fill="#E7E7E7" cx="67.2" cy="37.6" r="1.1"/>
					<circle fill="#E7E7E7" cx="42.2" cy="62" r="1.9"/>
					<circle fill="#E7E7E7" cx="42.2" cy="69.2" r="1"/>
					<circle fill="#E7E7E7" cx="111.4" cy="66.5" r="1"/>
					<circle fill="#E7E7E7" cx="114.6" cy="56.5" r="2.2"/>
					<path fill="#E7E7E7" d="M99.7,52.1c0,0,0.3,0.1,0.7,0.2c0.2,0.1,0.5,0.1,0.7,0.1c0.1,0,0.2,0,0.3,0c0,0,0,0,0,0c0,0,0,0,0,0
						c0,0.1,0,0.2,0.1,0.3c0,0,0,0,0,0.1c0,0.1,0,0.1,0.1,0.2c0,0,0,0.1,0,0.1c0,0.1,0,0.1,0.1,0.2c0,0,0,0.1,0,0.1
						c0,0.1,0.1,0.2,0.1,0.3c0,0,0,0.1,0.1,0.1c0,0.1,0.1,0.2,0.1,0.2c0,0.1,0.1,0.1,0.1,0.2c0,0.1,0.1,0.1,0.1,0.2
						c0,0.1,0.1,0.1,0.1,0.2c0,0.1,0.1,0.1,0.1,0.2c0,0.1,0.1,0.1,0.1,0.2c0.1,0.1,0.1,0.2,0.2,0.3c0,0,0.1,0.1,0.1,0.1
						c0.1,0.1,0.1,0.1,0.2,0.2c0,0,0.1,0.1,0.1,0.1c0,0,0,0,0.1,0.1v0c0.2,0.1,0.4,0.2,0.6,0.3c0.1,0.1,0.2,0.2,0.3,0.3l-2.1,1.2
						l2,1.2l0.6-2.3c0.3,0,0.5-0.1,0.7-0.3c0.1,0,0.2-0.1,0.3-0.1l0.3,3l2.4-0.7l-2.3-2.6c1.2-0.8,1.8-2.6,2-3.9
						c0.2,0.7,0.4,1.5,0.9,2.1c1.2,1.4,2,1.5,2,1.5s-0.1-2.8-0.7-4c-0.7-1.2-1.5-1.7-1.5-1.7s1.8-0.5,2.6-2.3
						c0.7-1.7-0.2-3.6-0.2-3.6s-1.4,0.4-2.3,2.3c-0.4,1-0.7,1.9-0.8,2.5c-0.2-1-0.5-2.3-1-3.5c0.8-0.2,1.8-0.5,1.8-1.1
						c0.1-1-1.7-1.4-1.7-1.4s1.7,0.1,1.7-1c0.1-1-2.2-1-2.2-1s1.7-0.7,1.2-1.6c-0.5-0.8-2.2,0.2-2.2,0.2s1.2-2.1,0.6-2.5
						c-0.6-0.3-1.5-0.1-2.5,1.1c-0.7,0.9-1,2.3-1,3.4c-1.8,0.2-2.7,2.4-3.1,4.8c-0.2,1.5-0.3,3-0.3,4.1
						C99.7,51.4,99.7,52.1,99.7,52.1z"/>
				</g>
			</g>
		</g>
	</g>
</g>
</svg>
