<?xml version="1.0" encoding="utf-8"?>
<!-- Generator: Adobe Illustrator 21.1.0, SVG Export Plug-In . SVG Version: 6.00 Build 0)  -->
<svg version="1.1" xmlns="http://www.w3.org/2000/svg" xmlns:xlink="http://www.w3.org/1999/xlink" x="0px" y="0px"
	 viewBox="0 0 150 135" enable-background="new 0 0 150 135" xml:space="preserve" width="150" height="135" preserveAspectRatio="none">
<g id="BG">
</g>
<g id="PB1">
</g>
<g id="PB2">
</g>
<g id="PB3">
</g>
<g id="Kraken">
</g>
<g id="Fiona">
</g>
<g id="Clod">
</g>
<g id="Announcer">
</g>
<g id="R_x26_G">
</g>
<g id="Q">
</g>
<g id="Rote">
</g>
<g id="Grok">
</g>
<g id="Locked_Blocks">
</g>
<g id="Locks">
</g>
<g id="Layer_15">
	<g>
		<g>
			<polygon opacity="0.3" fill="#221F1F" points="11.6,33.3 18.5,105.1 141,104.6 141,33.9 			"/>
			<polygon fill="#EDE5D9" points="9,31.2 15.9,103.1 138.4,103.3 138.4,32.4 			"/>
		</g>
		<g>
			<defs>
				<path id="SVGID_121_" d="M99.7,30.6C98,22.3,87.7,15.9,75.3,15.9c-12.6,0-23,6.6-24.4,15.1L9,31.2l6.9,71.9l122.6,0.2V32.4
					L99.7,30.6z"/>
			</defs>
			<clipPath id="SVGID_2_">
				<use xlink:href="#SVGID_121_"  overflow="visible"/>
			</clipPath>
			<g clip-path="url(#SVGID_2_)">
				<g opacity="0.1">
					<g>
						<path fill="#384F7E" d="M112.4,115.4c0,2.8-15.1,5-33.7,5c-18.6,0-33.7-2.2-33.7-5c0-2.8,15.1-5,33.7-5
							C97.3,110.4,112.4,112.7,112.4,115.4"/>
					</g>
				</g>
				<g>
					<g>
						<g>
							<path fill="#02313B" d="M85.2,106.9l-3.2,8.6c0,0,5.2-3.9,9.1-3.5c3.9,0.4,3.9,5.2,3.9,5.2H80.2l1.1-10L85.2,106.9z"/>
						</g>
						<path fill="#D1B489" d="M85,98.4l-3.2,0.1c0,0,0.6,4.1-1.9,7.8l1.1,3.1l3.3,0l3.3-2.7C87.6,106.6,87.4,101.7,85,98.4z"/>
					</g>
					<g>
						<g>
							<path fill="#02313B" d="M71.3,106.9l3.2,8.6c0,0-5.2-3.9-9.1-3.5c-3.9,0.4-3.9,5.2-3.9,5.2h14.9l-1.1-10L71.3,106.9z"/>
						</g>
						<path fill="#D1B489" d="M71.5,98.4l3.2,0.1c0,0-0.6,4.1,1.9,7.8l-1.1,3.1l-3.3,0l-3.3-2.7C69,106.6,69.2,101.7,71.5,98.4z"/>
					</g>
				</g>
				<g>
					<path fill="#4FC7F3" d="M102.1,77.1c0,0,12.8,1,12.8,11.2c0,10.1-13.6,9.8-13.6,9.8l-0.5-1.7c0,0,6.7-3.6,3.3-7.1
						c-2.3-2.4-7.1-2.4-7.1-2.4L102.1,77.1z"/>
					<path fill="#4FC7F3" d="M102.3,95.7c0,0-1,0.2-1.5-0.1c-1.3-0.8-2.9-2.4-3.5-1.7c-0.8,1,2.1,2.4,2.1,2.4s-4.2,1.6-3.6,3.1
						c0.4,1.2,3.4-1.4,3.4-1.4s-3.3,3.3-1.9,4.2c0.8,0.5,2.7-2.9,2.7-2.9s-0.8,3.2,0.3,3c1.5-0.3,0.6-3.7,0.6-3.7s0.8,0.4,1.6-0.2
						c0.6-0.4,0.6-1.2,0.6-1.2L102.3,95.7z"/>
				</g>
				<g>
					<path fill="#4FC7F3" d="M55.4,77.8c0,0-12.8,1-12.8,11.2c0,10.1,13.6,9.8,13.6,9.8l0.5-1.7c0,0-6.7-3.6-3.3-7.1
						c2.3-2.4,7.1-2.4,7.1-2.4L55.4,77.8z"/>
					<path fill="#4FC7F3" d="M55.2,96.4c0,0,1,0.2,1.5-0.1c1.3-0.8,2.9-2.4,3.5-1.7c0.8,1-2.1,2.4-2.1,2.4s4.2,1.6,3.6,3.1
						c-0.4,1.2-3.4-1.4-3.4-1.4s3.3,3.3,1.9,4.2c-0.8,0.5-2.7-2.9-2.7-2.9s0.8,3.2-0.3,3c-1.5-0.3-0.6-3.7-0.6-3.7s-0.8,0.4-1.6-0.2
						c-0.6-0.4-0.6-1.2-0.6-1.2L55.2,96.4z"/>
				</g>
				<path fill="#02313B" d="M65.6,38c0,0,1.4,0.5,1.4,2.7c0,2.3-1.4,3.1-1.4,3.1S56.8,44.6,56,38c-0.7-6.6,3.7-9.5,3.7-9.5
					s-0.2,3.9,1.6,6.5C63.2,37.5,65.6,38,65.6,38"/>
				<path fill="#02313B" d="M66,46.5c0.6,1.1,2.3,3.4,2.1,9.9c-0.2,4.4-4.4,13-4.4,13L86,75.8c0,0,2.6-23.5,3-27
					C83.2,44.7,71.2,44,66,46.5z"/>
				<path fill="#FFFFFF" d="M78.8,44.8c-0.4-0.1-0.7-0.1-1.1-0.2c-0.6-0.1-1.3-0.2-2-0.2c-1.3-0.1-2.6,0-3.8,0.3
					c-1.3,0.3-2.4,0.8-3.6,1.3c-0.9,0.4-1.8,0.8-2.7,1.1c0,0,3.9,4.3,4.6,4.2c0.3,0,0.6-1.5,0.8-2.9c1.3-0.3,4.5-0.7,9.1,0
					c0.6,1.4,1.2,2.7,1.5,2.8c0.8,0.3,4.2-4.9,4.2-4.9C83.5,45.8,81.2,45.3,78.8,44.8z"/>
				<path fill="#CC4485" d="M69.8,67.5c0,0,1.3-5,10.1-5.7C88.6,61.1,95,69,95,69S82.6,86.6,81.4,85.6
					C80.2,84.5,69.8,67.5,69.8,67.5z"/>
				<path fill="#FFFFFF" d="M83,64.3c-0.4-0.1-1.4,1.3-2.2,2.6c-1-0.5-2.2-0.9-3.6-1.3c-6-1.8-9.6-1-9.6-1l15.5,9.2l3.1-3.3
					C86.1,70.5,83.7,64.4,83,64.3z"/>
				<path fill="#4FC7F3" d="M88.8,37.5c3.1,1.6,7.8,5.8,10,17.1c1.4,7.4,1.4,27.1,1.4,27.1S86.9,93.5,74.3,93.5
					C61.8,93.4,54.9,78,54.9,78s-2.2-2.4-2.1-7.3c0.1-4.9,2-7.9,2-7.9s1.1-1.6,10-0.4c9.6,1.3,18.1,9.7,18.1,9.7s12-22.1-6.8-26.6
					c-5.1-1.2-14.6,4.6-14.6,4.6l2.9-13.4l1.6-1.8l0.9-1.8C75.1,31.4,87.1,36.7,88.8,37.5z"/>
				<path fill="#0880C3" d="M59.1,66.1c1.1-0.1,2.2-0.1,3.3,0c1.1,0.1,2.2,0.3,3.2,0.6c2.1,0.6,4.2,1.6,5.8,3.2l0.8,0.8
					c-1.9-0.2-3.8-0.4-5.6,0.4c-0.5,0.2-1,0.6-1.3,1c-0.3,0.4-0.4,0.9-0.4,1.4c-0.1,0.9,0.1,1.7,0.4,2.5c0.3,0.8,0.6,1.5,0.9,2.2
					c-0.6-1-1.3-2-1.6-3.1c-0.3-1.1-0.3-2.4,0.3-3.4c0.9-1.6,2.9-2,4.6-2c0.6,0-2-1.7-4-2.4c-1-0.3-2.1-0.6-3.1-0.8
					C61.3,66.3,60.2,66.2,59.1,66.1z"/>
				<g>
					<path fill="#0880C3" d="M74.2,39.7c-0.2,2.7-2.1,4.7-4.2,4.5c-2.1-0.2-3.7-2.5-3.4-5.1c0.2-2.7,2.1-4.7,4.2-4.5
						C72.9,34.8,74.5,37.1,74.2,39.7"/>
					<path fill="#FFFFFF" d="M73.9,39c-0.2,2.3-1.9,4-3.7,3.9c-1.9-0.2-3.2-2.1-3-4.4c0.2-2.3,1.8-4,3.7-3.9
						C72.7,34.8,74,36.7,73.9,39"/>
					<path fill="#02313B" d="M71.9,39.5c-0.1,1.1-0.8,1.9-1.7,1.9c-0.8-0.1-1.5-1-1.4-2.1c0.1-1.1,0.8-1.9,1.7-1.9
						C71.4,37.5,72,38.4,71.9,39.5"/>
					<path fill="#0880C3" d="M81.5,38.8c0.4,2.6-0.9,5-3,5.4c-2.1,0.3-4.1-1.5-4.6-4.1c-0.4-2.6,0.9-5,3-5.4
						C79,34.3,81,36.2,81.5,38.8"/>
					<path fill="#FFFFFF" d="M80.9,38.2c0.4,2.3-0.8,4.3-2.7,4.7c-1.9,0.3-3.7-1.3-4-3.5C73.8,37,75,35,76.9,34.7
						C78.7,34.4,80.5,35.9,80.9,38.2"/>
					<path fill="#02313B" d="M79.1,39c0.2,1.1-0.4,2.1-1.2,2.2c-0.8,0.1-1.7-0.6-1.8-1.7c-0.2-1.1,0.4-2.1,1.2-2.2
						C78.1,37.2,78.9,37.9,79.1,39"/>
				</g>
				<path fill="#4FC7F3" d="M65.7,35.9c3.1-1.9,6-1.7,11.1-1.7c1.6,0,4.7,2,6.1,2L83,38H65.6C65.7,37.3,65.7,36.6,65.7,35.9z"/>
				<path fill="#D1B489" d="M54,76.5c0,0-2.4,0.8-3.4,1.3c-3.5,1.6-5.1,3.6-5.1,3.6l8.1,9.3l9.2-2.6l-2-4.8L54,76.5z"/>
				<polygon fill="#714E28" points="46.5,79.6 43.8,82.4 53.3,92.2 55.6,90.9 				"/>
				<path fill="#D1B489" d="M112,80.7l-8.1,9.3l-9.2-2.6l5-12c0,0,3.7,0.2,7.2,1.7C110.3,78.7,112,80.7,112,80.7z"/>
				<polygon fill="#714E28" points="111,78.9 113.8,81.8 104.2,91.5 101.9,90.3 				"/>
				<path fill="#D1B489" d="M76.8,84.8l-22.3-7.4C57,87.5,65.6,98.7,65.6,98.7l26,0c0,0,8.2-9.3,10.4-21.7L76.8,84.8z"/>
				<path fill="#714E28" d="M78.6,86.1l13.8-2.2L92,80.3l6.4,2.3c0,0,1.6-6.6,1.7-7.4l-23.3,9.6L78.6,86.1z"/>
				<path fill="#714E28" d="M75,86.2L61.1,85l0.2-3.7L55,84c0,0-0.9-6.8-1.1-7.5l22.8,8.3L75,86.2z"/>
				<polygon fill="#02313B" points="94.7,94.3 62.9,94.1 61.5,92.3 95.7,92.3 				"/>
				<rect x="75" y="91.1" fill="#C9DCD7" width="5.4" height="3.8"/>
				<rect x="67.4" y="91.4" fill="#D1B489" width="1.1" height="3.8"/>
				<rect x="88.1" y="91.4" fill="#D1B489" width="1.1" height="3.8"/>
				<path fill="#02313B" d="M87.1,37c0,0-1.5,0.5-1.5,3c0,2.5,1.5,3.5,1.5,3.5s9.7,0.8,10.5-6.5c0.8-7.3-4-10.5-4-10.5
					s0.2,4.3-1.8,7.2C89.7,36.5,87.1,37,87.1,37"/>
				<path fill="none" d="M65.9,36l18.7-0.5c3.2,2.1,5.2,5.3,5.2,8.9c0,6.4-6.4,11.5-14.2,11.5c-7.9,0-14.2-5.1-14.2-11.5
					C61.4,41.1,63.2,38.1,65.9,36z"/>
				<path fill="#D1B489" d="M63.8,32.6l-2.4-3.8c3.6-1.3,6.8-4.9,7.3-8.6c4.8,1.7,9.2,2.1,14.5,0.1c0.7,3.6,4.4,7.5,7.9,8.5L88,33
					c-3.3-2.3-7.7-3.8-12.4-3.8C71.1,29.2,67,30.5,63.8,32.6z"/>
				<path fill="#D1B489" d="M75.6,32.9c3.4,0,6.6,1,9.1,2.6L65.9,36C68.5,34.1,71.9,32.9,75.6,32.9z"/>
				<path fill="#714E28" d="M84.7,35.6c-2.5-1.6-5.6-2.6-9.1-2.6c-3.7,0-7,1.1-9.6,3l-2.3-3.3c3.2-2.1,7.4-3.4,11.9-3.4
					c4.8,0,9.1,1.4,12.4,3.8c0,0,0,0,0,0l-2.3,3.3C85.4,36.1,85,35.8,84.7,35.6z"/>
				<path fill="#D1B489" d="M61.4,38.2l28.1,0l-3-2.8c-5.7-3-15.2-3.3-20.8-0.2L61.4,38.2z"/>
				<g>
					<path fill="#714E28" d="M82.8,20.9c-0.8,1.3-1.4,2.6-1.9,4c-0.5,1.4-0.9,2.8-1.1,4.3c0.8-1.3,1.4-2.6,1.9-4
						C82.2,23.8,82.6,22.4,82.8,20.9z"/>
				</g>
				<g>
					<g>
						<path fill="#714E28" d="M69.1,20.9c0.2,1.5,0.6,2.9,1.1,4.3c0.5,1.4,1.1,2.7,1.9,4c-0.2-1.5-0.6-2.9-1.1-4.3
							C70.4,23.5,69.9,22.1,69.1,20.9z"/>
					</g>
				</g>
			</g>
		</g>
	</g>
</g>
</svg>
