<?xml version="1.0" encoding="utf-8"?>
<!-- Generator: Adobe Illustrator 21.1.0, SVG Export Plug-In . SVG Version: 6.00 Build 0)  -->
<svg version="1.1" xmlns="http://www.w3.org/2000/svg" xmlns:xlink="http://www.w3.org/1999/xlink" x="0px" y="0px"
	 viewBox="0 0 150 135" enable-background="new 0 0 150 135" xml:space="preserve" width="150" height="135" preserveAspectRatio="none">
<g id="BG">
</g>
<g id="PB1">
	<g>
		<polygon opacity="0.3" fill="#231F20" points="9.7,32.4 18.4,105.1 141.7,105.1 141.7,33.7 		"/>
		<polygon fill="#E7CFE4" points="8.3,30.3 16.7,103.1 140.3,103.1 140.3,31.7 		"/>
		<g>
			<defs>
				<path id="SVGID_27_" d="M132.4,31.6c-1.3-10.9-15.4-19.4-32.6-19.4C83,12.2,69.2,20.4,67.4,31L8.3,30.3l7.4,72.8h123.6V31.7
					L132.4,31.6z"/>
			</defs>
			<clipPath id="SVGID_2_">
				<use xlink:href="#SVGID_27_"  overflow="visible"/>
			</clipPath>
			<g clip-path="url(#SVGID_2_)">
				<path opacity="0.1" fill="#384F7E" d="M123.7,133.5c0,5.1-18.9,9.3-42.1,9.3c-23.3,0-42.1-4.2-42.1-9.3c0-5.1,18.9-9.3,42.1-9.3
					C104.8,124.2,123.7,128.3,123.7,133.5"/>
				<g>
					<path fill="#01AEB9" d="M105.4,106.5c0,0-1.6,7-0.4,14.2c0,0-2.4,0-2.8-0.1c-0.5,0-1.4-0.2-1.4-0.2s-0.9-9.5,1.1-13.8
						L105.4,106.5z"/>
					<path fill="#C8352C" d="M101.4,126.2c-12.1-3.2-10.8,3.2-10.8,3.2c11.3,1.9,17.3-0.5,17.3-0.5c-1.4-2.2-3-8.6-3-8.6
						c-2.1,0.2-4.2-0.1-4.2-0.1C100.6,123,101.4,126.2,101.4,126.2"/>
					<path fill="#6A131E" d="M102.9,127.7C102.9,127.7,102.9,127.7,102.9,127.7l-8.2-0.3c-0.1,0-0.3-0.1-0.3-0.3
						c0-0.1,0.1-0.3,0.3-0.3l7.9,0.3l-0.5-6.9c0-0.1,0.1-0.3,0.3-0.3c0.2,0,0.3,0.1,0.3,0.3l0.5,7.2c0,0.1,0,0.2-0.1,0.2
						C103.1,127.6,103,127.7,102.9,127.7z"/>
					<path fill="#6A131E" d="M97.4,127.4C97.4,127.4,97.4,127.4,97.4,127.4c-0.2,0-0.3-0.2-0.3-0.3l0.2-1.7c0-0.1,0.2-0.2,0.3-0.2
						c0.1,0,0.3,0.2,0.2,0.3l-0.2,1.7C97.7,127.3,97.6,127.4,97.4,127.4z"/>
					<path fill="#6A131E" d="M100.1,127.6c-0.1,0-0.2-0.1-0.3-0.2l-0.2-1.5c0-0.1,0.1-0.3,0.2-0.3c0.1,0,0.3,0.1,0.3,0.2l0.2,1.5
						C100.3,127.4,100.2,127.5,100.1,127.6C100.1,127.6,100.1,127.6,100.1,127.6z"/>
					<path fill="#6A131E" d="M102.4,122.1C102.4,122.1,102.4,122.1,102.4,122.1l-1.7-0.1c-0.1,0-0.3-0.1-0.3-0.3
						c0-0.1,0.1-0.3,0.3-0.3l1.7,0.1c0.1,0,0.3,0.1,0.3,0.3C102.7,121.9,102.6,122.1,102.4,122.1z"/>
					<path fill="#6A131E" d="M102.7,124.4C102.7,124.4,102.7,124.4,102.7,124.4l-1.8-0.4c-0.1,0-0.2-0.2-0.2-0.3
						c0-0.1,0.2-0.2,0.3-0.2l1.7,0.4c0.1,0,0.2,0.2,0.2,0.3C102.9,124.3,102.8,124.4,102.7,124.4z"/>
					<path fill="none" d="M101.4,126.2c-12.1-3.2-10.8,3.2-10.8,3.2c11.3,1.9,17.3-0.5,17.3-0.5c-1.4-2.2-3-8.6-3-8.6
						c-2.1,0.2-4.2-0.1-4.2-0.1C100.6,123,101.4,126.2,101.4,126.2"/>
					<path fill="#FFFFFF" d="M95.2,125.3L95.2,125.3c-4.1,0.1-4.7,2.3-4.7,3.4v0c0,0.1,0,0.2,0,0.2c0,0,0,0,0,0c0,0.1,0,0.1,0,0.2
						c0,0,0,0,0,0c0,0,0,0,0,0.1c0,0,0,0,0,0c0,0,0,0,0,0c0,0,0,0,0,0c0,0,0,0,0,0c0,0,0,0,0,0c0,0,0,0.3,0,0.3
						c1,0.2,2.9,0.4,5.2,0.4c0,0-0.3-1-0.4-2.2C95.1,126.7,95.1,126.1,95.2,125.3z"/>
					<path fill="#D0D1D2" d="M90.5,129.4c0,0-0.2,0.6,0,1.6c0,0,0,0.1,0,0.1c0.2,1.1,18.1,0.3,18.6-0.5c0,0-0.5-1.1-1.1-1.8
						C108,128.8,104.3,130.1,90.5,129.4"/>
				</g>
				<g>
					<path fill="#01AEB9" d="M84.8,107c0,0-1.6,7-0.4,14.2c0,0-2.4,0-2.8-0.1c-0.5,0-1.4-0.2-1.4-0.2s-0.9-9.5,1.1-13.8L84.8,107z"
						/>
					<path fill="#C8352C" d="M80.8,126.7c-12.1-3.2-10.8,3.2-10.8,3.2c11.3,1.9,17.3-0.5,17.3-0.5c-1.4-2.2-3-8.6-3-8.6
						c-2.1,0.2-4.2-0.1-4.2-0.1C80,123.6,80.8,126.7,80.8,126.7"/>
					<path fill="#6A131E" d="M82.3,128.2C82.3,128.2,82.3,128.2,82.3,128.2l-8.2-0.3c-0.1,0-0.3-0.1-0.3-0.3c0-0.1,0.1-0.3,0.3-0.3
						l7.9,0.3l-0.5-6.9c0-0.1,0.1-0.3,0.3-0.3c0.2,0,0.3,0.1,0.3,0.3l0.5,7.2c0,0.1,0,0.2-0.1,0.2C82.5,128.2,82.4,128.2,82.3,128.2
						z"/>
					<path fill="#6A131E" d="M76.8,127.9C76.8,127.9,76.8,127.9,76.8,127.9c-0.2,0-0.3-0.2-0.3-0.3l0.2-1.7c0-0.1,0.2-0.2,0.3-0.2
						c0.1,0,0.3,0.2,0.2,0.3l-0.2,1.7C77.1,127.8,77,127.9,76.8,127.9z"/>
					<path fill="#6A131E" d="M79.5,128.1c-0.1,0-0.2-0.1-0.3-0.2l-0.2-1.5c0-0.1,0.1-0.3,0.2-0.3c0.1,0,0.3,0.1,0.3,0.2l0.2,1.5
						C79.7,127.9,79.6,128.1,79.5,128.1C79.5,128.1,79.5,128.1,79.5,128.1z"/>
					<path fill="#6A131E" d="M81.8,122.6C81.8,122.6,81.8,122.6,81.8,122.6l-1.7-0.1c-0.1,0-0.3-0.1-0.3-0.3c0-0.1,0.1-0.3,0.3-0.3
						l1.7,0.1c0.1,0,0.3,0.1,0.3,0.3C82.1,122.5,82,122.6,81.8,122.6z"/>
					<path fill="#6A131E" d="M82.1,125C82.1,125,82.1,124.9,82.1,125l-1.8-0.4c-0.1,0-0.2-0.2-0.2-0.3c0-0.1,0.2-0.2,0.3-0.2
						l1.7,0.4c0.1,0,0.2,0.2,0.2,0.3C82.3,124.9,82.2,125,82.1,125z"/>
					<path fill="none" d="M80.8,126.7c-12.1-3.2-10.8,3.2-10.8,3.2c11.3,1.9,17.3-0.5,17.3-0.5c-1.4-2.2-3-8.6-3-8.6
						c-2.1,0.2-4.2-0.1-4.2-0.1C80,123.6,80.8,126.7,80.8,126.7"/>
					<path fill="#FFFFFF" d="M74.6,125.8L74.6,125.8c-4.1,0.1-4.7,2.3-4.7,3.4v0c0,0.1,0,0.2,0,0.2c0,0,0,0,0,0c0,0.1,0,0.1,0,0.2
						c0,0,0,0,0,0c0,0,0,0,0,0.1c0,0,0,0,0,0c0,0,0,0,0,0c0,0,0,0,0,0c0,0,0,0,0,0c0,0,0,0,0,0c0,0,0,0.3,0,0.3
						c1,0.2,2.9,0.4,5.2,0.4c0,0-0.3-1-0.4-2.2C74.5,127.2,74.5,126.6,74.6,125.8z"/>
					<path fill="#D0D1D2" d="M69.9,129.9c0,0-0.2,0.6,0,1.6c0,0,0,0.1,0,0.1c0.2,1.1,18.1,0.3,18.6-0.5c0,0-0.5-1.1-1.1-1.8
						C87.4,129.4,83.7,130.6,69.9,129.9"/>
				</g>
				<g>
					<path fill="#01AEB9" d="M63.1,107c0,0-1.6,7-0.4,14.2c0,0-2.4,0-2.8-0.1c-0.5,0-1.4-0.2-1.4-0.2s-0.9-9.5,1.1-13.8L63.1,107z"
						/>
					<path fill="#C8352C" d="M59.1,126.7c-12.1-3.2-10.8,3.2-10.8,3.2c11.3,1.9,17.3-0.5,17.3-0.5c-1.4-2.2-3-8.6-3-8.6
						c-2.1,0.2-4.2-0.1-4.2-0.1C58.3,123.6,59.1,126.7,59.1,126.7"/>
					<path fill="#6A131E" d="M60.6,128.2C60.6,128.2,60.6,128.2,60.6,128.2l-8.2-0.3c-0.1,0-0.3-0.1-0.3-0.3c0-0.1,0.1-0.3,0.3-0.3
						l7.9,0.3l-0.5-6.9c0-0.1,0.1-0.3,0.3-0.3c0.2,0,0.3,0.1,0.3,0.3l0.5,7.2c0,0.1,0,0.2-0.1,0.2C60.8,128.2,60.7,128.2,60.6,128.2
						z"/>
					<path fill="#6A131E" d="M55.1,127.9C55.1,127.9,55.1,127.9,55.1,127.9c-0.2,0-0.3-0.2-0.3-0.3l0.2-1.7c0-0.1,0.2-0.2,0.3-0.2
						c0.1,0,0.3,0.2,0.2,0.3l-0.2,1.7C55.4,127.8,55.3,127.9,55.1,127.9z"/>
					<path fill="#6A131E" d="M57.8,128.1c-0.1,0-0.2-0.1-0.3-0.2l-0.2-1.5c0-0.1,0.1-0.3,0.2-0.3c0.1,0,0.3,0.1,0.3,0.2l0.2,1.5
						C58.1,127.9,58,128.1,57.8,128.1C57.8,128.1,57.8,128.1,57.8,128.1z"/>
					<path fill="#6A131E" d="M60.2,122.6C60.2,122.6,60.2,122.6,60.2,122.6l-1.7-0.1c-0.1,0-0.3-0.1-0.3-0.3c0-0.1,0.1-0.3,0.3-0.3
						l1.7,0.1c0.1,0,0.3,0.1,0.3,0.3C60.4,122.5,60.3,122.6,60.2,122.6z"/>
					<path fill="#6A131E" d="M60.4,125C60.4,125,60.4,124.9,60.4,125l-1.8-0.4c-0.1,0-0.2-0.2-0.2-0.3c0-0.1,0.2-0.2,0.3-0.2
						l1.7,0.4c0.1,0,0.2,0.2,0.2,0.3C60.7,124.9,60.5,125,60.4,125z"/>
					<path fill="none" d="M59.1,126.7c-12.1-3.2-10.8,3.2-10.8,3.2c11.3,1.9,17.3-0.5,17.3-0.5c-1.4-2.2-3-8.6-3-8.6
						c-2.1,0.2-4.2-0.1-4.2-0.1C58.3,123.6,59.1,126.7,59.1,126.7"/>
					<path fill="#FFFFFF" d="M52.9,125.8L52.9,125.8c-4.1,0.1-4.7,2.3-4.7,3.4v0c0,0.1,0,0.2,0,0.2c0,0,0,0,0,0c0,0.1,0,0.1,0,0.2
						c0,0,0,0,0,0c0,0,0,0,0,0.1c0,0,0,0,0,0c0,0,0,0,0,0c0,0,0,0,0,0c0,0,0,0,0,0c0,0,0,0,0,0c0,0,0,0.3,0,0.3
						c1,0.2,2.9,0.4,5.2,0.4c0,0-0.3-1-0.4-2.2C52.8,127.2,52.9,126.6,52.9,125.8z"/>
					<path fill="#D0D1D2" d="M48.2,129.9c0,0-0.2,0.6,0,1.6c0,0,0,0.1,0,0.1c0.2,1.1,18.1,0.3,18.6-0.5c0,0-0.5-1.1-1.1-1.8
						C65.7,129.4,62,130.6,48.2,129.9"/>
				</g>
				<path fill="#F2F3F4" d="M61.6,79.4c0,0-4,9.6-7.2,10.1c-3.2,0.6-5-0.7-5-0.7l-0.3,3.7c0,0,3.2,3.6,8.5,0.7
					c5.3-2.9,6-11.9,6-11.9L61.6,79.4z"/>
				<path fill="#FFD160" d="M54.1,88.2l-1.2,7.9c0,0-1.9-0.7-4.7-2.5c-2.8-1.8-5.7-4.9-5.7-4.9s-3.6,4.6-4.6,3.6c-1-1,2.6-5,2.6-5
					S34,90.7,34,89.1c0-1.7,6.4-4.3,6.4-4.3s-5,0.1-4.9-1c0.1-1.1,4.9-1.7,6.1-1.4c2.1,0.5,2.8,1.7,2.8,1.7s-0.6-5.1,0.3-5.3
					c0.8-0.1,1.7,1.2,1.9,3.1c0.3,1.8-0.3,3.7-0.3,3.7s1.4,1.8,3.3,2.4C51.6,88.5,54.1,88.2,54.1,88.2z"/>
				<g>
					<path fill="#01AEB9" d="M115.2,111.9c0,0-1.6,7-0.4,14.2c0,0-2.4,0-2.8-0.1c-0.5,0-1.4-0.2-1.4-0.2s-0.9-9.5,1.1-13.8
						L115.2,111.9z"/>
					<path fill="#C8352C" d="M111.1,131.6c-12.1-3.2-10.8,3.2-10.8,3.2c11.3,1.9,17.3-0.5,17.3-0.5c-1.4-2.2-3-8.6-3-8.6
						c-2.1,0.2-4.2-0.1-4.2-0.1C110.4,128.5,111.1,131.6,111.1,131.6"/>
					<path fill="#6A131E" d="M112.7,133.1C112.7,133.1,112.7,133.1,112.7,133.1l-8.2-0.3c-0.1,0-0.3-0.1-0.3-0.3
						c0-0.1,0.1-0.3,0.3-0.3l7.9,0.3l-0.5-6.9c0-0.1,0.1-0.3,0.3-0.3c0.2,0,0.3,0.1,0.3,0.3l0.5,7.2c0,0.1,0,0.2-0.1,0.2
						C112.8,133.1,112.8,133.1,112.7,133.1z"/>
					<path fill="#6A131E" d="M107.2,132.8C107.2,132.8,107.2,132.8,107.2,132.8c-0.2,0-0.3-0.2-0.3-0.3l0.2-1.7
						c0-0.1,0.2-0.2,0.3-0.2c0.1,0,0.3,0.2,0.2,0.3l-0.2,1.7C107.4,132.7,107.3,132.8,107.2,132.8z"/>
					<path fill="#6A131E" d="M109.8,133c-0.1,0-0.2-0.1-0.3-0.2l-0.2-1.5c0-0.1,0.1-0.3,0.2-0.3c0.1,0,0.3,0.1,0.3,0.2l0.2,1.5
						C110.1,132.8,110,133,109.8,133C109.8,133,109.8,133,109.8,133z"/>
					<path fill="#6A131E" d="M112.2,127.5L112.2,127.5l-1.7-0.1c-0.1,0-0.3-0.1-0.3-0.3c0-0.1,0.1-0.3,0.3-0.3l1.7,0.1
						c0.1,0,0.3,0.1,0.3,0.3C112.5,127.4,112.4,127.5,112.2,127.5z"/>
					<path fill="#6A131E" d="M112.5,129.8C112.4,129.8,112.4,129.8,112.5,129.8l-1.8-0.4c-0.1,0-0.2-0.2-0.2-0.3
						c0-0.1,0.2-0.2,0.3-0.2l1.7,0.4c0.1,0,0.2,0.2,0.2,0.3C112.7,129.7,112.6,129.8,112.5,129.8z"/>
					<path fill="none" d="M111.1,131.6c-12.1-3.2-10.8,3.2-10.8,3.2c11.3,1.9,17.3-0.5,17.3-0.5c-1.4-2.2-3-8.6-3-8.6
						c-2.1,0.2-4.2-0.1-4.2-0.1C110.4,128.5,111.1,131.6,111.1,131.6"/>
					<path fill="#FFFFFF" d="M105,130.7L105,130.7c-4.1,0.1-4.7,2.3-4.7,3.4v0c0,0.1,0,0.2,0,0.2c0,0,0,0,0,0c0,0.1,0,0.1,0,0.2
						c0,0,0,0,0,0c0,0,0,0,0,0.1c0,0,0,0,0,0c0,0,0,0,0,0c0,0,0,0,0,0c0,0,0,0,0,0c0,0,0,0,0,0c0,0,0,0.3,0,0.3
						c1,0.2,2.9,0.4,5.2,0.4c0,0-0.3-1-0.4-2.2C104.9,132.1,104.9,131.5,105,130.7z"/>
					<path fill="#D0D1D2" d="M100.2,134.8c0,0-0.2,0.6,0,1.6c0,0,0,0.1,0,0.1c0.2,1.1,18.1,0.3,18.6-0.5c0,0-0.5-1.1-1.1-1.8
						C117.8,134.2,114.1,135.5,100.2,134.8"/>
				</g>
				<g>
					<path fill="#01AEB9" d="M94.6,112.4c0,0-1.6,7-0.4,14.2c0,0-2.4,0-2.8-0.1s-1.4-0.2-1.4-0.2s-0.9-9.5,1.1-13.8L94.6,112.4z"/>
					<path fill="#C8352C" d="M90.5,132.1c-12.1-3.2-10.8,3.2-10.8,3.2c11.3,1.9,17.3-0.5,17.3-0.5c-1.4-2.2-3-8.6-3-8.6
						c-2.1,0.2-4.2-0.1-4.2-0.1C89.8,129,90.5,132.1,90.5,132.1"/>
					<path fill="#6A131E" d="M92.1,133.6L92.1,133.6l-8.2-0.3c-0.1,0-0.3-0.1-0.3-0.3s0.1-0.3,0.3-0.3l7.9,0.3l-0.5-6.9
						c0-0.1,0.1-0.3,0.3-0.3c0.2,0,0.3,0.1,0.3,0.3l0.5,7.2c0,0.1,0,0.2-0.1,0.2C92.2,133.6,92.2,133.6,92.1,133.6z"/>
					<path fill="#6A131E" d="M86.6,133.4C86.6,133.4,86.6,133.4,86.6,133.4c-0.2,0-0.3-0.2-0.3-0.3l0.2-1.7c0-0.1,0.2-0.2,0.3-0.2
						c0.1,0,0.3,0.2,0.2,0.3l-0.2,1.7C86.8,133.3,86.7,133.4,86.6,133.4z"/>
					<path fill="#6A131E" d="M89.2,133.5c-0.1,0-0.2-0.1-0.3-0.2l-0.2-1.5c0-0.1,0.1-0.3,0.2-0.3c0.1,0,0.3,0.1,0.3,0.2l0.2,1.5
						C89.5,133.4,89.4,133.5,89.2,133.5C89.2,133.5,89.2,133.5,89.2,133.5z"/>
					<path fill="#6A131E" d="M91.6,128L91.6,128l-1.7-0.1c-0.1,0-0.3-0.1-0.3-0.3c0-0.1,0.1-0.3,0.3-0.3l1.7,0.1
						c0.1,0,0.3,0.1,0.3,0.3C91.9,127.9,91.7,128,91.6,128z"/>
					<path fill="#6A131E" d="M91.9,130.4C91.8,130.4,91.8,130.4,91.9,130.4l-1.8-0.4c-0.1,0-0.2-0.2-0.2-0.3c0-0.1,0.2-0.2,0.3-0.2
						l1.7,0.4c0.1,0,0.2,0.2,0.2,0.3C92.1,130.3,92,130.4,91.9,130.4z"/>
					<path fill="none" d="M90.5,132.1c-12.1-3.2-10.8,3.2-10.8,3.2c11.3,1.9,17.3-0.5,17.3-0.5c-1.4-2.2-3-8.6-3-8.6
						c-2.1,0.2-4.2-0.1-4.2-0.1C89.8,129,90.5,132.1,90.5,132.1"/>
					<path fill="#FFFFFF" d="M84.4,131.2L84.4,131.2c-4.1,0.1-4.7,2.3-4.7,3.4v0c0,0.1,0,0.2,0,0.2c0,0,0,0,0,0c0,0.1,0,0.1,0,0.2
						c0,0,0,0,0,0c0,0,0,0,0,0.1c0,0,0,0,0,0c0,0,0,0,0,0c0,0,0,0,0,0c0,0,0,0,0,0c0,0,0,0,0,0c0,0,0,0.3,0,0.3
						c1,0.2,2.9,0.4,5.2,0.4c0,0-0.3-1-0.4-2.2C84.3,132.6,84.3,132.1,84.4,131.2z"/>
					<path fill="#D0D1D2" d="M79.6,135.3c0,0-0.2,0.6,0,1.6c0,0,0,0.1,0,0.1c0.2,1.1,18.1,0.3,18.6-0.5c0,0-0.5-1.1-1.1-1.8
						C97.2,134.8,93.5,136.1,79.6,135.3"/>
				</g>
				<g>
					<path fill="#01AEB9" d="M72.9,112.4c0,0-1.6,7-0.4,14.2c0,0-2.4,0-2.8-0.1s-1.4-0.2-1.4-0.2s-0.9-9.5,1.1-13.8L72.9,112.4z"/>
					<path fill="#C8352C" d="M68.9,132.1c-12.1-3.2-10.8,3.2-10.8,3.2c11.3,1.9,17.3-0.5,17.3-0.5c-1.4-2.2-3-8.6-3-8.6
						c-2.1,0.2-4.2-0.1-4.2-0.1C68.1,129,68.9,132.1,68.9,132.1"/>
					<path fill="#6A131E" d="M70.4,133.6C70.4,133.6,70.4,133.6,70.4,133.6l-8.2-0.3c-0.1,0-0.3-0.1-0.3-0.3c0-0.1,0.1-0.3,0.3-0.3
						l7.9,0.3l-0.5-6.9c0-0.1,0.1-0.3,0.3-0.3c0.2,0,0.3,0.1,0.3,0.3l0.5,7.2c0,0.1,0,0.2-0.1,0.2C70.5,133.6,70.5,133.6,70.4,133.6
						z"/>
					<path fill="#6A131E" d="M64.9,133.4C64.9,133.4,64.9,133.4,64.9,133.4c-0.2,0-0.3-0.2-0.3-0.3l0.2-1.7c0-0.1,0.2-0.2,0.3-0.2
						c0.1,0,0.3,0.2,0.2,0.3l-0.2,1.7C65.2,133.3,65,133.4,64.9,133.4z"/>
					<path fill="#6A131E" d="M67.5,133.5c-0.1,0-0.2-0.1-0.3-0.2l-0.2-1.5c0-0.1,0.1-0.3,0.2-0.3c0.1,0,0.3,0.1,0.3,0.2l0.2,1.5
						C67.8,133.4,67.7,133.5,67.5,133.5C67.6,133.5,67.5,133.5,67.5,133.5z"/>
					<path fill="#6A131E" d="M69.9,128C69.9,128,69.9,128,69.9,128l-1.7-0.1c-0.1,0-0.3-0.1-0.3-0.3c0-0.1,0.1-0.3,0.3-0.3l1.7,0.1
						c0.1,0,0.3,0.1,0.3,0.3C70.2,127.9,70.1,128,69.9,128z"/>
					<path fill="#6A131E" d="M70.2,130.4C70.2,130.4,70.1,130.4,70.2,130.4l-1.8-0.4c-0.1,0-0.2-0.2-0.2-0.3c0-0.1,0.2-0.2,0.3-0.2
						l1.7,0.4c0.1,0,0.2,0.2,0.2,0.3C70.4,130.3,70.3,130.4,70.2,130.4z"/>
					<path fill="none" d="M68.9,132.1c-12.1-3.2-10.8,3.2-10.8,3.2c11.3,1.9,17.3-0.5,17.3-0.5c-1.4-2.2-3-8.6-3-8.6
						c-2.1,0.2-4.2-0.1-4.2-0.1C68.1,129,68.9,132.1,68.9,132.1"/>
					<path fill="#FFFFFF" d="M62.7,131.2L62.7,131.2c-4.1,0.1-4.7,2.3-4.7,3.4v0c0,0.1,0,0.2,0,0.2c0,0,0,0,0,0c0,0.1,0,0.1,0,0.2
						c0,0,0,0,0,0c0,0,0,0,0,0.1c0,0,0,0,0,0c0,0,0,0,0,0c0,0,0,0,0,0c0,0,0,0,0,0c0,0,0,0,0,0c0,0,0,0.3,0,0.3
						c1,0.2,2.9,0.4,5.2,0.4c0,0-0.3-1-0.4-2.2C62.6,132.6,62.6,132.1,62.7,131.2z"/>
					<path fill="#D0D1D2" d="M57.9,135.3c0,0-0.2,0.6,0,1.6c0,0,0,0.1,0,0.1c0.2,1.1,18.1,0.3,18.6-0.5c0,0-0.5-1.1-1.1-1.8
						C75.5,134.8,71.8,136.1,57.9,135.3"/>
				</g>
				<path fill="#F2F3F4" d="M70.4,76.8c-4.6,0.2-10.6-1-10.6-1c0,0.2,1.2,8.6,1.2,8.8c-0.4,13.4-7.2,30.3-7.2,30.3
					c3.6,1,13.8,1.3,13.8,1.3l0.9-4.4l1.1,5.6c0,0,17.7,1.2,24.9,1.1c19.9-0.4,22.8-4,22.8-4s-2.3-4.7-2.7-6.4
					c-1.2-5.3,0.2-8.3-1.2-11.8c-1.4-3.5-6.9-3.9-9.8-3.8c-2.8,0.1-8.8,1.1-8.8,1.1c-2.1-1.7-4.2-1-4.2-1c-2.9-10-4.8-17.7-4.8-17.7
					S78.8,77.4,70.4,76.8"/>
				<path fill="#CAD4D9" d="M69.4,80.9c0,0,0.1,1.9,0.2,4.7c0,1.4,0.1,3,0.1,4.8c0,0.9,0,1.8,0,2.7c0,0.9,0,1.9,0,2.8
					c0,0.9-0.1,1.9-0.1,2.8c0,0.9-0.1,1.8-0.1,2.7c-0.1,1.8-0.2,3.4-0.3,4.8c-0.2,2.8-0.4,4.7-0.4,4.7s-0.1-1.9-0.2-4.7
					c0-1.4-0.1-3-0.1-4.8c0-0.9,0-1.8,0-2.7c0-0.9,0-1.9,0-2.8c0-0.9,0.1-1.9,0.1-2.8c0-0.9,0.1-1.8,0.1-2.7
					c0.1-1.8,0.2-3.4,0.3-4.8C69.1,82.8,69.4,80.9,69.4,80.9z"/>
				<path fill="#CAD4D9" d="M81.7,111.5l-6.1-2.6l0.7-9.5l11.7,0.7l-0.8,9.8L81.7,111.5z M76.1,108.5l5.6,2.4l4.9-1.5l0.7-8.8
					L76.7,100L76.1,108.5z"/>
				
					<rect x="81.4" y="98.1" transform="matrix(5.705115e-02 -0.9984 0.9984 5.705115e-02 -26.454 179.3074)" fill="#CAD4D9" width="0.5" height="11.1"/>
				<path fill="#E2E4E5" d="M81,70.5c0,0,2.2,3.6,9.1,7.2c6.9,3.6,13.8,0,13.8,0s-3.9-1.7-7.1-4.9c-3.2-3.2-4.9-5.7-4.9-5.7L81,70.5
					z"/>
				<path fill="#E2E4E5" d="M86.3,70.8c0,0,3.8,1.9,11.5,1.2c7.7-0.6,11.7-7.3,11.7-7.3s-4.2,0.6-8.6-0.4c-4.4-1-7.2-2.2-7.2-2.2
					L86.3,70.8z"/>
				<path fill="#E2E4E5" d="M54.4,51.6c0,0-3.2-4.6,0.8-11.2c4.1-6.6,10.4-7.2,10.4-7.2l-1.2,5.4c0,0,2.7-7.2,12.7-12.2
					c10-5,45-6.5,45-6.5s-2.7,13.8-4.9,21.1c-2.2,7.2-4.7,29.1-29.7,25.8c-10.3-1.3-9,7.8-9,7.8L54.4,51.6z"/>
				<path fill="#7FA5B3" d="M96.8,26c-0.7,0-1.5,0.1-2.2,0.2c-0.7,0.1-1.5,0.2-2.2,0.4c-0.7,0.2-1.5,0.3-2.2,0.6
					c-0.4,0.1-0.7,0.2-1.1,0.3c-0.4,0.1-0.7,0.2-1.1,0.4l-1,0.4l-1,0.4c-0.7,0.3-1.3,0.7-2,1c-0.6,0.4-1.3,0.7-1.9,1.1l-0.9,0.6
					l-0.2,0.1l-0.1,0c0,0,0,0,0,0l-0.1,0.1L80.2,32l-0.9,0.7l-0.8,0.7c-0.6,0.5-1,1-1.6,1.5c-0.3,0.3-0.5,0.6-0.7,0.8
					c-0.2,0.3-0.5,0.6-0.7,0.9l-0.6,0.9l-0.6,0.9c-0.2,0.3-0.4,0.6-0.5,1c-0.2,0.3-0.3,0.6-0.5,1c-0.3,0.7-0.6,1.4-0.8,2
					c-0.2,0.7-0.4,1.4-0.6,2.1c-0.2,0.7-0.3,1.4-0.4,2.1l-1-0.4c0.5-0.7,1.1-1.2,1.6-1.8c0.6-0.6,1.2-1.1,1.7-1.6
					c0.6-0.5,1.2-1,1.9-1.4c0.6-0.5,1.3-0.9,1.9-1.3c0.7-0.4,1.3-0.8,2-1.2c0.7-0.4,1.4-0.7,2.1-1.1c0.7-0.3,1.4-0.7,2.1-1
					c0.7-0.3,1.4-0.6,2.2-0.9l1.1-0.4c0.4-0.1,0.7-0.2,1.1-0.4c0.7-0.3,1.5-0.5,2.2-0.7c0.7-0.2,1.5-0.4,2.3-0.5
					c0.8-0.1,1.5-0.3,2.3-0.4c0.8-0.1,1.5-0.2,2.3-0.3c0.8-0.1,1.5-0.1,2.3-0.1c1.5,0,3.1,0,4.6,0.3c-0.8-0.1-1.5-0.1-2.3-0.1
					c-0.8,0-1.5,0-2.3,0.1c-0.8,0.1-1.5,0.1-2.3,0.2c-0.8,0.1-1.5,0.2-2.3,0.4c-0.8,0.1-1.5,0.3-2.2,0.5c-0.7,0.2-1.5,0.4-2.2,0.6
					c-0.7,0.2-1.5,0.4-2.2,0.7c-0.4,0.1-0.7,0.2-1.1,0.4l-1.1,0.4c-0.7,0.3-1.4,0.6-2.1,0.9c-0.7,0.3-1.4,0.7-2.1,1
					c-0.7,0.4-1.3,0.7-2,1.1c-0.7,0.4-1.3,0.8-1.9,1.2c-0.6,0.4-1.3,0.9-1.9,1.3c-0.6,0.4-1.2,0.9-1.8,1.4c-0.6,0.5-1.1,1-1.7,1.5
					c-0.5,0.5-1.1,1.1-1.5,1.6l-1.2,1.5l0.2-1.8c0.1-0.8,0.2-1.5,0.4-2.3c0.2-0.7,0.4-1.5,0.6-2.2c0.3-0.7,0.5-1.4,0.9-2.1
					c0.1-0.4,0.3-0.7,0.5-1c0.2-0.3,0.3-0.7,0.6-1l0.6-1l0.7-0.9c0.2-0.3,0.5-0.6,0.7-0.9c0.3-0.3,0.5-0.6,0.8-0.9
					c0.5-0.5,1.1-1.1,1.7-1.6l0.9-0.7l0.9-0.6l0.5-0.3l0.1-0.1l0.1-0.1l0.1,0l0.2-0.1l1-0.6c0.6-0.4,1.3-0.7,2-1.1
					c0.7-0.3,1.4-0.7,2.1-0.9l1.1-0.4l1.1-0.4c0.4-0.1,0.7-0.2,1.1-0.3c0.4-0.1,0.7-0.2,1.1-0.3c0.7-0.2,1.5-0.3,2.2-0.5
					c0.7-0.1,1.5-0.2,2.2-0.3C95.2,26,96,26,96.8,26z"/>
				<path fill="#8CD3D4" d="M33.7,49.1c0.6-1.1,9.1,0.2,15.3,3.7c6.2,3.5,7.1,6.7,7.1,6.7l-0.8,5.1c0,0-7.8,0.2-13.2-2.6
					C36.8,59.2,33.1,50.2,33.7,49.1z"/>
				<path fill="#01AEB9" d="M48.6,61.5c0.4-2.9,2.5-2,2.5-2S46.9,55,41,52.8c-2.4-0.9-4.9-1.5-7-1.8c0.9,3.1,4.1,8.9,8.2,11
					c2.1,1.1,4.7,1.7,6.9,2.1C48.7,63.3,48.4,62.4,48.6,61.5z"/>
				<path fill="#8CD3D4" d="M53.1,50.1c0,0,6.6-4.2,23.3-3.2c16.7,1,19.8,6.4,19.8,6.4s-9.3,28.7-26.7,26
					C52.2,76.7,53.1,50.1,53.1,50.1z"/>
				<path fill="#E2E4E5" d="M95,40.1c0,0-1.8-1.5-5.6,5.1c-3.8,6.6-1.9,21.3-1.9,21.3l14.3-18.7L95,40.1z"/>
				<path fill="#8CD3D4" d="M118,49.1c-1.1-1.2-13.3,0-21.9,3.4C87.6,56,85.9,66.3,85.9,66.3l3-1.5c0,0,11.6,0.4,19-2.4
					C115.3,59.6,119.2,50.3,118,49.1z"/>
				<path fill="#01AEB9" d="M98.4,61.7c-1.1-3-4-2.2-4-2.2s5.4-4.6,13.6-6.7c3.4-0.9,7-1.4,10-1.7c-0.8,3.2-4.5,9.2-10.1,11.3
					c-2.9,1.1-6.6,1.7-9.8,2C98.6,63.6,98.8,62.7,98.4,61.7z"/>
				<path fill="#FFFFFF" d="M66.2,55.5c0,0,0.9-1.6-0.7-4.6C64,47.8,59,45.7,59,45.7l0.1,2.1c0,0-2.3-1.1-5.6-0.7
					c-3.3,0.3-5,1.4-5,1.4l2.2,7.4L66.2,55.5z"/>
				<path fill="#FFFFFF" d="M72.1,55.6c0,0-0.9-1.5,0.4-4.7c1.4-3.2,6.3-5.6,6.3-5.6l0,2.1c0,0,2.2-1.2,5.5-1
					c3.3,0.2,5.1,1.1,5.1,1.1l-1.8,7.5L72.1,55.6z"/>
				<path fill="#C9DFE3" d="M53.1,49.1c0.6,0.1,1.3,0.3,1.9,0.6c0.6,0.3,1.2,0.7,1.7,1.1c0.2,0.2,0.5,0.5,0.7,0.7
					c0.2,0.2,0.4,0.5,0.6,0.8c0.2,0.3,0.4,0.5,0.6,0.8c0.2,0.3,0.3,0.6,0.5,0.9l-0.7,0c0.2-0.4,0.5-0.8,0.7-1.2l0.3-0.6l0.2-0.3
					c0.1-0.1,0.1-0.2,0.2-0.3c0.1-0.2,0.2-0.4,0.2-0.6c0.1-0.2,0.1-0.4,0.2-0.6c0.1-0.4,0.1-0.9,0-1.4c0.2,0.4,0.3,0.9,0.3,1.4
					c0,0.2,0,0.5,0,0.7c0,0.2-0.1,0.5-0.2,0.7c0,0.1-0.1,0.2-0.1,0.3l-0.1,0.3c-0.1,0.2-0.2,0.4-0.3,0.6c-0.2,0.4-0.4,0.9-0.6,1.3
					l-0.4,0.6l-0.3-0.6c-0.1-0.3-0.3-0.5-0.5-0.8c-0.2-0.3-0.3-0.5-0.5-0.8c-0.2-0.3-0.4-0.5-0.6-0.7c-0.2-0.2-0.4-0.5-0.6-0.7
					c-0.4-0.5-0.9-0.9-1.4-1.2C54.2,49.7,53.6,49.3,53.1,49.1z"/>
				<path fill="#F2F3F4" d="M97.8,86.6C95.4,81.1,86.6,80,86.6,80l-0.2,3.3c0,0,7.1,2.8,7.3,6.1c0.2,3.2-1.2,4.9-1.2,4.9l3.7,0.6
					C96.3,95,100.2,92.1,97.8,86.6z"/>
				<path fill="#C9DFE3" d="M84.4,50.2c-0.6,0.2-1.2,0.4-1.8,0.7c-0.6,0.3-1.1,0.6-1.6,1c-0.3,0.2-0.5,0.4-0.7,0.6
					c-0.2,0.2-0.5,0.4-0.7,0.7c-0.2,0.2-0.4,0.5-0.6,0.7c-0.2,0.2-0.4,0.5-0.6,0.7l-0.4,0.6l-0.3-0.7c-0.2-0.5-0.3-0.9-0.4-1.4
					c-0.1-0.2-0.1-0.5-0.2-0.7l-0.1-0.3c0-0.1-0.1-0.2-0.1-0.4c0-0.2-0.1-0.5-0.1-0.7c0-0.2,0-0.5,0.1-0.7c0.1-0.5,0.3-0.9,0.5-1.3
					c-0.1,0.5-0.2,0.9-0.2,1.4c0,0.2,0,0.4,0.1,0.7c0,0.2,0.1,0.4,0.2,0.6c0,0.1,0.1,0.2,0.1,0.3l0.1,0.3l0.2,0.7
					c0.2,0.4,0.3,0.9,0.5,1.3l-0.7-0.1c0.2-0.3,0.4-0.5,0.6-0.8c0.2-0.3,0.4-0.5,0.7-0.7c0.2-0.2,0.5-0.5,0.7-0.7
					c0.3-0.2,0.5-0.4,0.8-0.6c0.6-0.4,1.2-0.7,1.8-0.9C83.1,50.3,83.8,50.2,84.4,50.2z"/>
				<polygon opacity="0.79" fill="#A5DBDE" points="50.7,55.8 54.5,54.8 65,55.6 65.7,67.1 58,68.4 50.1,67.2 				"/>
				<path fill="#02313B" d="M49.9,54.4c-0.6,0.1-1.1,0.7-1.1,1.2c0,3.9,0,7.8,0,11.7c0,0.5,0.5,1,1.1,1.2c5.4,1,10.9,1,16.3-0.1
					c0.6-0.1,1.1-0.7,1.1-1.2c0-3.9,0-7.8,0-11.7c0-0.5-0.5-1-1.1-1.2C60.8,53.3,55.2,53.3,49.9,54.4z M64.5,65.4
					c0,0.5-0.5,1.1-1.1,1.1c-3.5,0.3-7.1,0.3-10.7,0c-0.6-0.1-1.1-0.6-1.1-1.1c0-2.7,0-5.4,0-8.1c0-0.5,0.5-1.1,1.1-1.1
					c3.5-0.3,7.1-0.3,10.7,0c0.6,0.1,1.1,0.6,1.1,1.1C64.5,60,64.5,62.7,64.5,65.4z"/>
				<polygon opacity="0.79" fill="#A5DBDE" points="72.6,55.5 76.3,54.5 86.8,55.3 87.5,66.8 79.8,68.1 71.9,66.9 				"/>
				
					<ellipse transform="matrix(7.473644e-02 -0.9972 0.9972 7.473644e-02 -5.8399 116.4359)" fill="#FFFFFF" cx="59.8" cy="61.4" rx="3.6" ry="3.3"/>
				
					<ellipse transform="matrix(7.471366e-02 -0.9972 0.9972 7.471366e-02 -5.342 117.8907)" fill="#02313B" cx="60.9" cy="61.8" rx="1.4" ry="1.3"/>
				
					<ellipse transform="matrix(7.461345e-02 -0.9972 0.9972 7.461345e-02 11.5574 134.7014)" fill="#FFFFFF" cx="78.4" cy="61.1" rx="3.6" ry="3.3"/>
				<path fill="#E2E4E5" d="M52.9,70.9c0,0,3.7-2.6,9-3.3c5.2-0.7,14.2-0.9,18.7,1.4c4.5,2.3,8.9,9.1,6.9,16.5l-1.2-0.3l-6.1-1.5
					l-1.6-5.8l-0.8,4.5L73.3,82c0,0-0.7-2.3-0.5-3.7c0,0-1.5,2.8-1.5,3.5l-8.4,0.6c0,0-0.6-3.3,0-5.6c0,0-2.6,3.5-2.6,6.4l-7.8,1.9
					c0,0-2.2-4.2-0.2-9c0,0-2.6,2.5-2.8,4.2C49.4,80.3,48.7,76,52.9,70.9z"/>
				<path fill="#7FA5B3" d="M65.3,68.1c0,0-0.8,0.3-1.8,0.9c-0.3,0.1-0.5,0.3-0.8,0.5c-0.3,0.2-0.6,0.4-0.8,0.6
					c-0.3,0.2-0.6,0.5-0.8,0.7c-0.1,0.1-0.3,0.3-0.4,0.4l-0.4,0.4c-0.3,0.3-0.5,0.6-0.7,0.9c-0.2,0.3-0.5,0.6-0.7,0.9
					c-0.4,0.6-0.8,1.2-1.2,1.7c-0.7,1-1.2,1.7-1.2,1.7s0.1-0.8,0.6-2c0.2-0.6,0.5-1.2,0.9-1.9c0.2-0.3,0.4-0.7,0.6-1
					c0.2-0.3,0.5-0.7,0.8-1c0.1-0.2,0.3-0.3,0.4-0.5c0.1-0.2,0.3-0.3,0.4-0.4c0.3-0.3,0.7-0.5,1-0.7c0.3-0.2,0.7-0.4,1-0.6
					c0.3-0.2,0.6-0.3,0.9-0.4c0.6-0.2,1.1-0.3,1.5-0.3C65.1,68.1,65.3,68.1,65.3,68.1z"/>
				<path fill="#7FA5B3" d="M68,68.6c0,0-0.5,0.5-1,1.3c-0.1,0.2-0.3,0.4-0.4,0.6c-0.1,0.2-0.3,0.5-0.4,0.7
					c-0.1,0.3-0.2,0.6-0.4,0.8c-0.1,0.1-0.1,0.3-0.2,0.4l-0.1,0.4c-0.1,0.3-0.2,0.6-0.2,0.9c-0.1,0.3-0.1,0.6-0.2,0.9
					c-0.1,0.6-0.2,1.1-0.3,1.6c-0.2,1-0.3,1.6-0.3,1.6s-0.2-0.6-0.3-1.6c0-0.5,0-1.1,0-1.7c0-0.3,0.1-0.6,0.1-1
					c0.1-0.3,0.1-0.7,0.2-1c0.1-0.2,0.1-0.3,0.2-0.5c0.1-0.2,0.1-0.3,0.2-0.5c0.2-0.3,0.3-0.6,0.5-0.9c0.2-0.3,0.4-0.5,0.6-0.7
					c0.2-0.2,0.4-0.4,0.6-0.6c0.4-0.3,0.8-0.6,1-0.7C67.9,68.6,68,68.6,68,68.6z"/>
				<path fill="#7FA5B3" d="M69.8,68.8c0,0,0.2,0,0.6,0c0.4,0,0.9,0.1,1.5,0.3c0.3,0.1,0.6,0.2,0.9,0.4c0.3,0.2,0.7,0.3,1,0.6
					c0.3,0.2,0.7,0.5,1,0.7c0.1,0.1,0.3,0.3,0.4,0.4c0.1,0.2,0.3,0.3,0.4,0.5c0.3,0.3,0.5,0.7,0.8,1c0.2,0.3,0.4,0.7,0.6,1
					c0.4,0.7,0.7,1.3,0.9,1.9c0.5,1.2,0.6,2,0.6,2s-0.5-0.7-1.1-1.7c-0.3-0.5-0.7-1.1-1.2-1.7c-0.2-0.3-0.4-0.6-0.7-0.9
					c-0.2-0.3-0.5-0.6-0.7-0.9L74.5,72c-0.1-0.1-0.3-0.3-0.4-0.4c-0.3-0.2-0.5-0.5-0.8-0.7c-0.3-0.2-0.6-0.4-0.8-0.6
					c-0.3-0.2-0.5-0.4-0.8-0.5C70.6,69,69.8,68.8,69.8,68.8z"/>
				<path fill="#7FA5B3" d="M67.8,68.5c0,0,0.2,0,0.4,0.2c0.3,0.1,0.6,0.3,1,0.7c0.2,0.2,0.4,0.3,0.6,0.6c0.2,0.2,0.4,0.5,0.6,0.7
					c0.2,0.3,0.4,0.5,0.5,0.9c0.1,0.1,0.1,0.3,0.2,0.4c0.1,0.2,0.1,0.3,0.2,0.5c0.1,0.3,0.2,0.7,0.3,1c0.1,0.3,0.1,0.6,0.2,1
					c0.1,0.6,0.1,1.2,0.1,1.7c0,1-0.2,1.7-0.2,1.7s-0.2-0.6-0.4-1.6c-0.1-0.5-0.3-1-0.4-1.6c-0.1-0.3-0.2-0.6-0.2-0.9
					c-0.1-0.3-0.2-0.6-0.3-0.9l-0.2-0.4c-0.1-0.1-0.1-0.3-0.2-0.4c-0.1-0.2-0.2-0.5-0.4-0.8c-0.1-0.3-0.3-0.5-0.4-0.7
					c-0.1-0.2-0.3-0.4-0.4-0.6C68.2,69,67.8,68.5,67.8,68.5z"/>
				<path fill="#02313B" d="M68,59.6c-1.4,0-2.4,1.3-2.4,1.3l0,3.3l5.2,0.1l0.7-4C71.6,60.3,69.5,59.5,68,59.6z"/>
				<path fill="#E2E4E5" d="M99.2,15.7c0,0-3.5,2.6-5.9,4.2c-2.5,1.6-12,5.3-12,5.3L97.2,24c0,0,2.1-2.5,2.5-4.8
					C100.1,16.9,99.2,15.7,99.2,15.7z"/>
				<path fill="#02313B" d="M71.7,54.1c-0.6,0.1-1.1,0.7-1.1,1.2c0,3.9,0,7.8,0,11.7c0,0.5,0.5,1,1.1,1.2c5.4,1,10.9,1,16.3-0.1
					c0.6-0.1,1.1-0.7,1.1-1.2c0-3.9,0-7.8,0-11.7c0-0.5-0.5-1-1.1-1.2C82.6,53,77,53,71.7,54.1z M86.3,65.1c0,0.5-0.5,1.1-1.1,1.1
					c-3.5,0.3-7.1,0.3-10.7,0c-0.6-0.1-1.1-0.6-1.1-1.1c0-2.7,0-5.4,0-8.1c0-0.5,0.5-1.1,1.1-1.1c3.5-0.3,7.1-0.3,10.7,0
					c0.6,0.1,1.1,0.6,1.1,1.1C86.3,59.7,86.3,62.4,86.3,65.1z"/>
				<path fill="#01AEB9" d="M73.2,66.9c-0.2,2.2-2.3,4.2-5,4c-2.7-0.2-5-2.6-4.8-4.8c0.2-2.2,2.5-3.8,5.2-3.6
					C71.3,62.7,73.4,64.7,73.2,66.9z"/>
				
					<ellipse transform="matrix(7.471367e-02 -0.9972 0.9972 7.471367e-02 11.4768 136.0167)" fill="#02313B" cx="79" cy="61.8" rx="1.4" ry="1.3"/>
				<circle fill="#CAD4D9" cx="72.2" cy="87.3" r="1.6"/>
				<circle fill="#CAD4D9" cx="72.2" cy="97.6" r="1.6"/>
				<path fill="#CAD4D9" d="M57.7,103.3c-0.1,0-0.3-0.1-0.3-0.3c0-0.1,0.1-0.3,0.3-0.3l5.3-0.3c0.1,0,0.3,0.1,0.3,0.3
					c0,0.1-0.1,0.3-0.3,0.3L57.7,103.3L57.7,103.3z"/>
				<path fill="none" d="M70.4,76.8c-4.6,0.2-10.6-1-10.6-1c0,0.2,1.2,8.6,1.2,8.8c-0.4,13.4-7.2,30.3-7.2,30.3
					c3.6,1,13.8,1.3,13.8,1.3l0.9-4.4l1.1,5.6c0,0,17.7,1.2,24.9,1.1c19.9-0.4,22.8-4,22.8-4s-2.3-4.7-2.7-6.4
					c-1.2-5.3,0.2-8.3-1.2-11.8c-1.4-3.5-6.9-3.9-9.8-3.8c-2.8,0.1-8.8,1.1-8.8,1.1c-2.1-1.7-4.2-1-4.2-1c-2.9-10-4.8-17.7-4.8-17.7
					S78.8,77.4,70.4,76.8"/>
				<path fill="#CAD4D9" d="M114.6,108c0,0-0.1-0.3-0.3-0.9c-0.1-0.3-0.2-0.7-0.3-1.1c-0.1-0.4-0.2-0.9-0.2-1.5
					c-0.1-0.5-0.1-1.1-0.1-1.8c0-0.6,0-1.3-0.1-1.9c0-0.7-0.1-1.3-0.1-2c-0.1-0.7-0.2-1.3-0.5-2l-0.1-0.2l0-0.1l0,0c0,0,0,0,0,0l0,0
					l0,0l0-0.1l-0.2-0.5c-0.2-0.3-0.3-0.5-0.6-0.7c-0.2-0.2-0.5-0.4-0.7-0.6c-0.3-0.2-0.5-0.4-0.8-0.5c-0.6-0.3-1.1-0.5-1.7-0.7
					c-0.6-0.2-1.1-0.3-1.7-0.4c-0.5-0.1-1-0.2-1.4-0.2c-0.4-0.1-0.8-0.1-1.1-0.1c-0.6-0.1-1-0.1-1-0.1s0.1,0,0.3,0
					c0.2,0,0.4-0.1,0.7-0.1c0.3,0,0.7-0.1,1.1-0.1c0.4,0,0.9,0,1.5,0c0.5,0,1.1,0.1,1.8,0.3c0.6,0.1,1.3,0.3,1.9,0.6
					c0.6,0.3,1.3,0.7,1.9,1.3c0.3,0.3,0.5,0.6,0.8,1l0.2,0.5l0,0.1l0,0.1l0,0l0,0.1l0.1,0.3c0.2,0.7,0.4,1.5,0.5,2.2
					c0.1,0.7,0.1,1.5,0,2.1c0,0.7-0.1,1.3-0.1,1.9c0,0.6,0,1.2,0,1.7c0,0.5,0,1,0,1.5c0,0.4,0,0.8,0.1,1.1
					C114.5,107.6,114.6,108,114.6,108z"/>
				<path fill="#CAD4D9" d="M58.6,110.4l-2.9-1c-0.1,0-0.2-0.2-0.2-0.3c0-0.1,0.2-0.2,0.3-0.2l2.7,0.9L63,108l-0.2-8.3l-4.2,0.2
					c-0.2,0-0.3-0.1-0.3-0.3c0-0.1,0.1-0.3,0.3-0.3l4.8-0.3l0.2,9.2L58.6,110.4z"/>
				<path fill="#FFD160" d="M93.1,89.2l7.7,2.3c0,0-0.9,1.8-3.1,4.3c-2.2,2.5-5.6,5-5.6,5s4,4.2,3,5c-1.1,0.8-4.6-3.3-4.6-3.3
					s2.4,6.9,0.8,6.7c-1.6-0.2-3.4-6.9-3.4-6.9s-0.5,5-1.6,4.7c-1.1-0.3-1-5-0.6-6.2c0.7-2,2-2.5,2-2.5s-5.2-0.1-5.2-1
					c0-0.8,1.5-1.5,3.3-1.5c1.8,0,3.7,0.8,3.7,0.8s2-1.1,2.8-3C93,91.7,93.1,89.2,93.1,89.2z"/>
			</g>
		</g>
	</g>
</g>
<g id="PB2">
</g>
<g id="PB3">
</g>
<g id="Kraken">
</g>
<g id="Fiona">
</g>
<g id="Clod">
</g>
<g id="Announcer">
</g>
<g id="R_x26_G">
</g>
<g id="Q">
</g>
<g id="Rote">
</g>
<g id="Grok">
</g>
<g id="Locked_Blocks">
</g>
<g id="Locks">
</g>
<g id="Layer_15">
</g>
</svg>
