<svg xmlns="http://www.w3.org/2000/svg" viewBox="0 0 150 135" width="150" height="135" preserveAspectRatio="none"><defs><style>.cls-1{fill:#fff;}.cls-2{fill:#8bd2d4;}.cls-3{fill:none;stroke:#00aeb9;stroke-miterlimit:10;}.cls-4{font-size:12px;fill:#00aeb9;font-family:MyriadPro-Regular, Myriad Pro;}</style></defs><g id="Layer_21" data-name="Layer 21"><polygon class="cls-1" points="96.09 95.08 133.81 94.53 135.14 62.57 92.27 62.94 96.09 95.08" /><path class="cls-2" d="M94.41,79.11s5.47-4.39,3.7-5.46-6.12-.22-6.7,2.53,3.28,6.3,3.28,6.3Z" /><polygon class="cls-3" points="103.36 79.47 103.36 86.45 109.41 89.94 115.45 86.45 115.45 79.47 109.41 75.98 103.36 79.47" /><polygon class="cls-3" points="109.41 76.19 109.41 69.21 115.45 65.72 121.5 69.21 121.5 76.19 115.45 79.68 109.41 76.19" /><polygon class="cls-3" points="115.45 79.47 115.45 86.45 121.5 89.94 127.55 86.45 127.55 79.47 121.5 75.98 115.45 79.47" /><text class="cls-4" transform="translate(118.37 86.41)">2</text><text class="cls-4" transform="translate(106.4 86.85)">3</text></g></svg>