<?xml version="1.0" encoding="utf-8"?>
<!-- Generator: Adobe Illustrator 21.1.0, SVG Export Plug-In . SVG Version: 6.00 Build 0)  -->
<svg version="1.1" xmlns="http://www.w3.org/2000/svg" xmlns:xlink="http://www.w3.org/1999/xlink" x="0px" y="0px"
	 viewBox="0 0 150 135" enable-background="new 0 0 150 135" xml:space="preserve" width="150" height="135" preserveAspectRatio="none">
<g id="BG">
</g>
<g id="PB1">
	<polygon opacity="0.3" fill="#231F20" points="9.7,32.4 18.4,105.1 141.7,105.1 141.7,33.7 	"/>
	<polygon fill="#6E6F72" points="8.3,30.3 16.7,103.1 140.3,103.1 140.3,31.7 	"/>
	<g>
		<defs>
			<path id="SVGID_9_" d="M132.4,31.6c-1.3-10.9-15.4-19.4-32.6-19.4C83,12.2,69.2,20.4,67.4,31L8.3,30.3l7.4,72.8h123.6V31.7
				L132.4,31.6z"/>
		</defs>
		<clipPath id="SVGID_2_">
			<use xlink:href="#SVGID_9_"  overflow="visible"/>
		</clipPath>
		<path clip-path="url(#SVGID_2_)" fill="#E7E7E7" d="M115.3,127.9c-0.4-1.3-0.6-2.3-0.6-2.3c0,0,0,0,0,0c-0.5-3.6-0.4-7.2-0.1-9.8
			c2.2-0.8,2.7-1.4,2.7-1.4s-2.3-4.7-2.7-6.4c0,0,0-0.4-0.1-1c0-0.3,0-0.7-0.1-1.1c0-0.4,0-0.9,0-1.5c0-0.5,0-1.1,0-1.7
			c0-0.6,0.1-1.3,0.1-1.9c0-0.7,0-1.4,0-2.1c-0.1-0.7-0.2-1.5-0.5-2.2l-0.1-0.3l-0.1-0.1l0,0l0-0.1l0-0.1l-0.2-0.5
			c-0.2-0.3-0.5-0.7-0.8-1c-0.5-0.6-1.2-1-1.9-1.3c-0.6-0.3-1.3-0.5-1.9-0.6c-0.6-0.1-1.2-0.2-1.8-0.3c-0.5-0.1-1.1-0.1-1.5,0
			c-0.4,0-0.8,0-1.1,0.1c-0.3,0-0.6,0.1-0.7,0.1c-0.2,0-0.3,0-0.3,0c-0.9,0-2.2,0.2-3.6,0.3c0.5-0.8,0.7-1.2,0.7-1.2l-2.2-0.7
			c0.1-1.2,0-2.6-0.7-4.2c-1.8-4.1-7.2-5.8-9.8-6.3c-0.2-1.6-0.6-3.2-1.2-4.6c1,0.6,2.1,1.3,3.4,2c6.9,3.6,13.8,0,13.8,0
			s-3.9-1.7-7.1-4.9c-0.2-0.2-0.4-0.4-0.6-0.7c0.5,0,1.1,0,1.6-0.1c7.7-0.6,11.7-7.3,11.7-7.3s-2.9,0.4-6.4,0c1-0.5,1.9-1.1,2.8-1.7
			c0.2-0.1,0.5-0.1,0.7-0.2c0.1,0,0.1,0,0.2-0.1c0.3-0.1,0.7-0.2,1-0.4c0.4-0.2,0.8-0.3,1.2-0.5c0.1-0.1,0.2-0.1,0.4-0.2
			c0.3-0.1,0.6-0.3,0.8-0.5c0.1-0.1,0.2-0.1,0.4-0.2c0.3-0.2,0.6-0.4,0.9-0.6c0.1,0,0.1-0.1,0.2-0.1c0.3-0.3,0.7-0.5,1-0.8
			c0.1-0.1,0.2-0.2,0.2-0.2c0.2-0.2,0.5-0.4,0.7-0.7c0.1-0.1,0.2-0.2,0.3-0.3c0.2-0.2,0.4-0.5,0.6-0.7c0.1-0.1,0.1-0.2,0.2-0.3
			c0.3-0.3,0.5-0.6,0.7-0.9c0.1-0.1,0.1-0.2,0.2-0.2c0.2-0.2,0.3-0.5,0.5-0.7c0.1-0.1,0.1-0.2,0.2-0.4c0.1-0.2,0.2-0.4,0.4-0.6
			c0.1-0.1,0.1-0.2,0.2-0.4c0.1-0.2,0.2-0.5,0.4-0.7c0.1-0.1,0.1-0.3,0.2-0.4c0.1-0.2,0.2-0.4,0.3-0.6c0-0.1,0.1-0.2,0.1-0.4
			c0.1-0.1,0.1-0.3,0.1-0.4c0-0.1,0.1-0.2,0.1-0.4c0,0,0-0.1,0-0.1c0,0,0,0,0,0c0.3-1,0.3-1.7,0-1.9c-0.3-0.3-1.4-0.5-2.9-0.4
			c1-3.1,1.6-5.9,2.1-7.7c2.2-7.2,4.9-21.1,4.9-21.1s-11.6,0.5-23.3,1.9c0.4-0.8,0.8-1.7,0.9-2.5c0.4-2.3-0.6-3.5-0.6-3.5
			s-3.5,2.6-5.9,4.2c-1.7,1.1-6.6,3.1-9.5,4.4c-2.7,0.6-5,1.4-6.6,2.2c-10,5-12.7,12.2-12.7,12.2l1.2-5.4c0,0-6.4,0.6-10.4,7.2
			c-1.6,2.6-2.1,4.9-2,6.7c-3,0.4-4.6,1.3-4.6,1.3l1.5,4.9c-0.3-0.2-0.6-0.4-0.9-0.6c-6.2-3.5-14.7-4.8-15.3-3.7
			c-0.1,0.3-0.1,0.9,0.2,1.8c0,0,0,0,0,0c0,0,0,0.1,0,0.1c0,0.1,0.1,0.2,0.1,0.3c0,0.1,0.1,0.3,0.2,0.4c0,0.1,0.1,0.2,0.1,0.3
			c0.1,0.2,0.2,0.4,0.3,0.6c0,0.1,0.1,0.2,0.1,0.3c0.1,0.2,0.2,0.5,0.3,0.7c0.1,0.1,0.1,0.2,0.2,0.3c0.1,0.2,0.2,0.4,0.3,0.6
			c0.1,0.1,0.1,0.2,0.2,0.3c0.1,0.2,0.3,0.5,0.4,0.7c0,0.1,0.1,0.1,0.1,0.2c0.2,0.3,0.4,0.6,0.6,0.9c0.1,0.1,0.1,0.2,0.2,0.2
			c0.2,0.2,0.3,0.5,0.5,0.7c0.1,0.1,0.1,0.2,0.2,0.3c0.2,0.2,0.4,0.5,0.6,0.7c0.1,0.1,0.1,0.1,0.2,0.2c0.3,0.3,0.5,0.6,0.8,0.8
			c0,0,0.1,0.1,0.1,0.1c0.2,0.2,0.4,0.4,0.7,0.6c0.1,0.1,0.2,0.1,0.3,0.2c0.2,0.2,0.4,0.3,0.6,0.5c0.1,0.1,0.2,0.1,0.3,0.2
			c0.3,0.2,0.6,0.4,0.9,0.5c0.5,0.2,1,0.5,1.5,0.7c0.1,0,0.2,0.1,0.3,0.1c0.5,0.2,1,0.4,1.5,0.5c0.1,0,0.2,0,0.3,0.1
			c0.5,0.1,1,0.3,1.4,0.4c0.1,0,0.2,0,0.2,0.1c0.4,0.1,0.9,0.2,1.3,0.3c0,1.1,0,2.1,0,3.2c0,0.5,0.5,1,1.1,1.2
			c2.1,0.4,4.2,0.6,6.4,0.7c-2.1,0.9-3.3,1.7-3.3,1.7c-4.2,5.1-3.5,9.4-3.5,9.4c0.2-1.7,2.8-4.2,2.8-4.2c-1.9,4.8,0.2,9,0.2,9
			l7.2-1.8c-1.5,2.7-3.5,5.9-5.3,6.2c-0.2,0-0.3,0-0.5,0.1l0.2-1.3c0,0-2.5,0.3-4.4-0.3c-1.9-0.6-3.3-2.4-3.3-2.4s0.6-1.9,0.3-3.7
			c-0.3-1.8-1.1-3.2-1.9-3.1c-0.8,0.1-0.3,5.3-0.3,5.3s-0.7-1.2-2.8-1.7c-1.2-0.3-6,0.3-6.1,1.4c-0.1,1.1,4.9,1,4.9,1
			S34,87.4,34,89.1c0,1.7,6.5-1.7,6.5-1.7s-3.6,4-2.6,5c1,1,4.6-3.6,4.6-3.6s2.9,3.1,5.7,4.9c2.8,1.8,4.7,2.5,4.7,2.5l0.3-1.8
			c1.2,0.1,2.7-0.2,4.4-1.1c1.2-0.6,2.1-1.6,2.8-2.7c-0.4,3-1,5.9-1.7,8.7l-0.1,0c-0.1,0-0.3,0.1-0.3,0.3c0,0.1,0.1,0.2,0.2,0.2
			c-0.3,1-0.5,2-0.8,3l-0.1,0c-0.1,0-0.3,0.1-0.3,0.3c0,0.1,0.1,0.2,0.2,0.2c-0.6,2.1-1.2,4-1.7,5.6c-0.1,0-0.3,0-0.3,0.2
			c0,0.1,0,0.3,0.2,0.3c-1.1,3.3-2,5.4-2,5.4c1.1,0.3,2.8,0.5,4.6,0.7c0,2.4,0.1,4.4,0.2,5.1c0,0,0,0,0,0c0,0.5,0,0.9,0,1.4
			c-0.1,0-0.3,0.1-0.3,0.3c0,0.1,0.1,0.3,0.3,0.3l0,0c0,0.5,0.1,1.1,0.1,1.5c-0.1,0-0.2,0.1-0.2,0.2c0,0.1,0.1,0.3,0.2,0.3l0.1,0
			c0.1,0.4,0.1,0.7,0.2,1c-1,0.1-1.9,0.3-2.8,0.4c-0.1,0-0.3,0-0.4-0.1l0,0c0-0.1-0.1-0.3-0.2-0.3c-0.2,0-0.3,0.1-0.3,0.2l0,0
			c-0.8-0.1-1.6-0.1-2.2-0.1c0,0,0,0,0,0h0c-2.6,0.1-3.8,1-4.3,1.9c-5.7,1.6-9.2,3.6-9.2,5.8c0,5.1,18.9,9.3,42.1,9.3
			c23.3,0,42.1-4.2,42.1-9.3C123.7,131.4,120.6,129.5,115.3,127.9z M89.9,118.4c-0.2,2.2-0.1,4.5,0,6c-1.5-0.1-3-0.1-4.5-0.1
			c-0.6-1.9-1-3.5-1-3.5c0,0,0,0,0,0c-0.1-0.9-0.2-1.8-0.3-2.6C86.1,118.2,88.1,118.3,89.9,118.4z M100.8,120.1
			C100.8,120.1,100.8,120.1,100.8,120.1c-0.1,0.5-0.1,0.9,0,1.4c-0.1,0-0.3,0.1-0.3,0.3c0,0.1,0.1,0.3,0.3,0.3l0,0
			c0,0.5,0.1,1.1,0.1,1.5c-0.1,0-0.2,0.1-0.2,0.2c0,0.1,0.1,0.3,0.2,0.3l0.1,0c0.1,0.5,0.1,0.9,0.2,1.2c-2.3-0.3-4.7-0.5-7.3-0.7
			c-0.2-2.2-0.2-4.3-0.1-6.2c0.2,0,0.5,0,0.7,0c2.3,0,4.3-0.1,6.2-0.2C100.7,119.1,100.8,119.7,100.8,120.1z M72.2,117.5
			c1.9,0.1,4.8,0.3,7.9,0.5c0,1.3,0.1,2.2,0.1,2.7c0,0,0,0,0,0c0,0.5,0,0.9,0,1.4c-0.1,0-0.3,0.1-0.3,0.3c0,0.1,0.1,0.3,0.3,0.3l0,0
			c0,0.5,0.1,1.1,0.1,1.5c-0.1,0-0.1,0-0.2,0.1c-2.7,0-5.4,0.1-7.9,0.2C72,121.9,72,119.5,72.2,117.5z M110.6,125.5
			C110.5,125.5,110.5,125.5,110.6,125.5c-0.1,0.4-0.1,0.8,0,1.2c-1.2-0.3-2.5-0.5-3.8-0.7c-0.9-2.6-1.7-5.8-1.7-5.8c0,0,0,0,0,0
			c-0.1-0.8-0.2-1.6-0.3-2.4c2.4-0.2,4.3-0.5,5.9-0.9C110.2,120.6,110.5,124.5,110.6,125.5z M93.7,89.4l-0.7-0.2c0,0,0,1.7-0.5,3.3
			c-1.2-0.2-2,0-2,0c-0.9-3-1.6-5.8-2.3-8.3C90.4,85.3,93.5,87.2,93.7,89.4z M60.5,81.6C60.5,81.6,60.5,81.6,60.5,81.6
			C60.5,81.6,60.5,81.6,60.5,81.6C60.5,81.6,60.5,81.6,60.5,81.6z M67.6,116.1l0.9-4.4l0.5,2.3c-0.9,3.3-0.8,8.2-0.7,10.7
			c-1.5,0.1-2.9,0.2-4.3,0.4c-0.7-2.2-1.2-4.3-1.2-4.3c0,0,0,0,0,0c-0.2-1.7-0.4-3.3-0.4-4.9C65.2,116.1,67.6,116.1,67.6,116.1z"/>
	</g>
</g>
<g id="PB2">
</g>
<g id="PB3">
</g>
<g id="Kraken">
</g>
<g id="Fiona">
</g>
<g id="Clod">
</g>
<g id="Announcer">
</g>
<g id="R_x26_G">
</g>
<g id="Q">
</g>
<g id="Rote">
</g>
<g id="Grok">
</g>
<g id="Locked_Blocks">
</g>
<g id="Locks">
</g>
<g id="Layer_15">
</g>
</svg>
