<?xml version="1.0" encoding="utf-8"?>
<!-- Generator: Adobe Illustrator 22.0.1, SVG Export Plug-In . SVG Version: 6.00 Build 0)  -->
<!DOCTYPE svg PUBLIC "-//W3C//DTD SVG 1.1//EN" "http://www.w3.org/Graphics/SVG/1.1/DTD/svg11.dtd">
<svg version="1.1" xmlns="http://www.w3.org/2000/svg" xmlns:xlink="http://www.w3.org/1999/xlink" x="0px" y="0px"
	 viewBox="0 0 152 164" enable-background="new 0 0 152 164" xml:space="preserve" width="152" height="164" preserveAspectRatio="none">
<g id="BG">
</g>
<g id="PB1">
</g>
<g id="PB2">
</g>
<g id="PB3">
</g>
<g id="Kraken">
</g>
<g id="Fiona">
</g>
<g id="Clod">
</g>
<g id="Announcer">
</g>
<g id="R_x26_G">
</g>
<g id="Q">
</g>
<g id="Rote">
</g>
<g id="Grok">
</g>
<g id="Locked_Blocks">
</g>
<g id="Locks">
</g>
<g id="Layer_15">
	<g>
		<g>
			<polyline opacity="0.3" fill="#231F20" points="142.6,31.9 11.7,34.4 17,123.2 140.2,123.2 142.6,31.9 			"/>
			<polyline fill="#CEE5B7" points="141,29.3 10.1,31.9 14.7,120.7 137.5,120.6 141,29.3 			"/>
		</g>
		<g>
			<defs>
				<path id="SVGID_131_" d="M151.3,44c0-33.5-33.6-60.6-75.1-60.6C34.7-16.6,1,10.5,1,44c0,11.4,5.5,22,12.3,31.1l2.5,45.5l119.5,0
					l1.8-43C145,68,151.3,56.5,151.3,44z"/>
			</defs>
			<clipPath id="SVGID_2_">
				<use xlink:href="#SVGID_131_"  overflow="visible"/>
			</clipPath>
			<g clip-path="url(#SVGID_2_)">
				<path fill="#7C1A55" d="M36.3,123.4c0,0,41.6-2.7,68.9,1c0,0-11.9-33-4.4-47.7c-3.9-3.3-54.4-24.2-54.4-24.2
					C38,79,33.9,100.8,36.3,123.4z"/>
				<path fill="#B869A1" d="M97.3,121.8c0,0,0.2-7.3-3-18.1c0,0,1.7,10.7,1.7,17.7L97.3,121.8z"/>
				<path fill="#B869A1" d="M46.2,121.5c0-0.5-1.4-7.2,1.3-27.8c0,0-3.7,11-2.7,28L46.2,121.5z"/>
				<path fill="#B869A1" d="M48.3,68.6c0,0-6.7,21.1-7,35.3c-0.3,14.3,1.2,18.2,1.2,18.2l-2.2,0.4C40.3,122.6,36.9,96.4,48.3,68.6z"
					/>
				<path fill="#7C1A55" d="M68.2,140.7l-4.1-7.4c0,0-5.8,2.9-13.2,5c-12.3,3.4-16-3.5-16-3.5s-2.1,6.9,2.2,13.6
					c2.6,4,7.3,6.1,7.3,6.1s-5.9,1.4-3.9,2.8c1.8,1.3,6.3,2.7,10.5,1.9c1.5-0.3,3.1-0.4,4.3-1.5c0,0-3.5,2.9-0.9,3
					c5.1,0.3,13.5-7,15.1-12C71,143.8,68.2,140.7,68.2,140.7z"/>
				<polygon fill="#FFFFFF" points="62.9,127.8 55.9,157.3 65.2,157.2 67.2,128.8 				"/>
				<g>
					<path fill="#B869A1" d="M87.9,152.1c4.6,23,12,44.2,17.9,60.4H95c-4.1-18-8.7-36.6-10.7-60.4H87.9z"/>
				</g>
				<g>
					<path fill="#B869A1" d="M70,155.5c0.4,22.6,2,41.5,4.4,57L64,210.2c-0.5-17.2,1-35.8,2.8-56C67.2,154,69.5,155.6,70,155.5"/>
				</g>
				<path fill="#0057A7" d="M87.6,133.4l-20.4-4.7l-2,28.5l11.3-0.1l0.8-4l1,2.9l20.8-1C92,144.6,87.6,133.4,87.6,133.4z"/>
				<g>
					<path fill="#B8A6CC" d="M147.6,38.7c-0.4-2.1-16.9-5.2-28.1,3.7c-11.2,9-14.7,26-14.7,26s8.1-2.3,21.7-8.8
						C135.6,55.2,147.9,40.8,147.6,38.7"/>
					<path fill="#F6B4D1" d="M123.6,45.7c8.8-5.1,21.2-5.8,21.2-5.6c0.4,1.9-11.5,14.5-20,18.6c-7.7,3.7-13.6,6-16.9,7.1
						C109.2,60.8,112.9,51.9,123.6,45.7"/>
				</g>
				<path fill="#B8A6CC" d="M116,53.9c-0.7-13.7-8.9-27.2-22.2-31.7c-14.8-5-32.1,2.3-37.9,17c-1.2,3.3-1.9,6.7-1.9,10.1
					c0,6.3,2.1,12.1,5.7,16.9c3.8,5.4,9,9.3,14.5,12c-1.4,6.8-4,17.7-4,17.7l7,8.3l2.4-2.3c-0.8-8.2-0.7-13.4,0.5-21.3
					c10.5,3.6,21,3.3,24.5,1.5C115.9,76.6,116.7,67.4,116,53.9z"/>
				<path fill="#B8A6CC" d="M131.5,89.3c0.3-3-18.3,5.4-18.3,5.4s8.5-8.3,6.7-10.4c-1.7-2.2-9.4,3-10.9,11.4c-1.3-3-3.5-7.4-4.7-6.7
					c-2.4,1.4,0.5,9.6,4.5,11.5c-1.6,3.6-5,9.3-10.4,10.4c-8.1,1.8-11.5-3.5-11.5-3.5l-2.3,2.5c0,0,4.6,5,14.5,5
					C111.5,115,114,100,114,100s12.6,2.6,14.2,0.5c1.5-2.2-13.7-2.9-13.7-2.9S131,94.1,131.5,89.3"/>
				<g>
					<path fill="#0057A7" d="M79.5,101l-2.4,3.1l-6.8-8l-0.9,4.1l8.5,8.1l2.3-3.3C80.2,105,79.5,101.3,79.5,101z"/>
				</g>
				<path fill="#B8A6CC" d="M63.3,106.1c0,0-14.4,0.5-17.3,9.1c-1.8,5.2,9.4,17.3,9.4,17.3s-9.9-1.9-9.9,1.4c0,3.3,8.9,1,8.9,1
					s-10.1,7.1-7.7,9.2c2.4,2,10.3-7.9,10.3-7.9s-4.1,6.8-1.3,7.8c2.8,0.9,7.7-9.3,5.4-12.8c-2.2-3.6-5.7-6.3-8-9.8
					c-7-9.9,8.9-14.3,8.9-14.3L63.3,106.1z"/>
				<path fill="#61449A" d="M84.3,71.6c0,0,0.2,0.2,0.5,0.5c0.3,0.3,0.8,0.7,1.3,1.1c3.6,2.5,7.9,1.7,11.5-0.2c0,0-0.5,0.9-1.8,1.7
					c-2.8,1.9-6.7,2.2-9.4-0.1c-0.3-0.3-0.6-0.5-0.9-0.9c-0.5-0.5-0.8-1.2-1-1.5C84.3,71.9,84.3,71.6,84.3,71.6"/>
				<path fill="#61449A" d="M85.6,71.3c0.2,0.6-0.2,1.2-0.9,1.4c-0.6,0.2-1.2-0.2-1.4-0.9s0.2-1.2,0.9-1.4S85.4,70.7,85.6,71.3"/>
				<path fill="#61449A" d="M109.4,70.4c-0.1,0.3,0.1,0.7,0.5,0.9c0.3,0.1,0.7-0.1,0.9-0.5c0.1-0.3-0.1-0.7-0.5-0.9
					C109.9,69.8,109.5,70,109.4,70.4"/>
				<path fill="#61449A" d="M104.5,71.7c-0.1,0.3,0.1,0.7,0.5,0.9c0.3,0.1,0.7-0.1,0.9-0.5c0.1-0.3-0.1-0.7-0.5-0.9
					C105,71.2,104.6,71.4,104.5,71.7"/>
				<path fill="#61449A" d="M107.6,74.3c-0.1,0.3,0.1,0.7,0.5,0.9c0.4,0.1,0.7-0.1,0.9-0.5c0.1-0.3-0.1-0.7-0.5-0.9
					C108.1,73.8,107.7,74,107.6,74.3"/>
				<path fill="#61449A" d="M77.3,72.9c-0.1-0.4,0.2-0.7,0.5-0.8c0.4-0.1,0.7,0.2,0.8,0.5c0.1,0.3-0.2,0.7-0.5,0.8
					C77.7,73.6,77.4,73.3,77.3,72.9"/>
				<path fill="#61449A" d="M72.6,71.3c-0.1-0.4,0.2-0.7,0.5-0.8c0.4-0.1,0.7,0.2,0.8,0.5c0.1,0.3-0.2,0.7-0.5,0.8
					C73,71.9,72.6,71.7,72.6,71.3"/>
				<path fill="#61449A" d="M75.7,68.9c-0.1-0.3,0.2-0.7,0.5-0.8c0.4-0.1,0.7,0.2,0.8,0.5c0.1,0.3-0.2,0.7-0.5,0.8
					C76.2,69.5,75.8,69.3,75.7,68.9"/>
				<g>
					<path fill="#3C0F26" d="M65.6,46.1c0,0,0.3,0.5,0.9,1.3c1.9,2.1,4.4,3.4,7.2,3.6c-0.1,0.5-0.1,1-0.2,1.5c0,0.1-2.3-0.7-2.5-0.8
						c-1.9-0.9-3.6-2.3-4.8-4.2C65.8,46.6,65.6,46.1,65.6,46.1"/>
					<path fill="#3C0F26" d="M67.4,40.7c0,0,0.2,0.7,0.5,1.6c0.4,0.9,1.1,2.1,2,3.1c0.5,0.5,0.9,0.9,1.4,1.4c0.5,0.4,0.9,0.8,1.4,1
						c0.4,0.3,0.8,0.5,1,0.6c0.2,0.2,0.4,0.2,0.4,0.2L73.3,50c0,0-0.2-0.1-0.4-0.3c-0.2-0.2-0.6-0.5-1-0.9c-0.4-0.4-0.9-0.8-1.3-1.3
						c-0.5-0.5-0.9-1.1-1.2-1.6c-0.8-1.2-1.3-2.5-1.6-3.5C67.5,41.4,67.4,40.7,67.4,40.7"/>
					<path fill="#3C0F26" d="M70.6,37.6c0,0-0.1,0.7,0.1,1.7c0.4,2.5,1.8,4.6,3.4,6.5c0.3,0.4,0.6,0.7,0.9,0.9
						c0.2,0.2,0.3,0.3,0.3,0.3L74.1,48c0,0-0.2-0.2-0.3-0.4c-0.2-0.2-0.5-0.6-0.8-1.1c-1.4-2.2-2.5-4.6-2.6-7.3
						C70.5,38.3,70.6,37.6,70.6,37.6"/>
					<path fill="#FFFFFF" d="M91.7,59.7c0,0-4.6,7.6-12.9,6C71.2,64.2,69.9,51,69.9,51s8.7-8.8,13.5-7.7
						C93.5,45.5,91.7,59.7,91.7,59.7"/>
					<path fill="#0091A0" d="M86.1,55c0.5,4.3-2,8-5.6,8.4c-3.6,0.4-6.8-2.7-7.4-7c-0.5-4.3,2-8,5.6-8.4
						C82.3,47.6,85.6,50.7,86.1,55"/>
					<path fill="#3C0F26" d="M83.6,55.3c0.3,2.6-1.2,4.9-3.4,5.1c-2.2,0.2-4.2-1.6-4.4-4.3c-0.3-2.6,1.2-4.9,3.4-5.1
						C81.2,50.8,83.2,52.7,83.6,55.3"/>
					<path fill="#61449A" d="M69.9,50.9c0,0,0.3-0.5,0.9-1.3c0.6-0.8,1.5-1.9,2.8-3.1c0.6-0.6,1.3-1.2,2.2-1.8
						c0.9-0.6,1.7-1.2,2.8-1.6c1-0.5,2.2-0.8,3.5-0.8c2.5-0.1,5,1.2,6.6,2.9c0.9,0.9,1.5,1.9,2,2.9c1,2,1.3,4.1,1.5,5.9
						c0.2,1.8,0,3.2-0.1,4.2c-0.2,1-0.2,1.5-0.2,1.5s0-0.5-0.1-1.5c-0.1-1-0.2-2.4-0.5-4.1c-0.9-4.6-3.7-10.3-9.1-10.3
						c-1,0-2,0.2-2.9,0.5c-1.9,0.7-3.6,1.9-4.9,2.9s-2.4,2-3.1,2.7C70.3,50.5,69.9,50.9,69.9,50.9"/>
					<path fill="#3C0F26" d="M121.9,46.8c0,0-0.2,0.6-0.7,1.5c-0.8,1.4-1.9,2.6-3.3,3.6c-1.1,0.8-2.5,1.5-3.8,1.7l-0.2-1.5
						c0,0,0.5,0,1.5-0.2c2.2-0.5,4.2-1.8,5.6-3.6C121.6,47.3,121.9,46.8,121.9,46.8"/>
					<path fill="#3C0F26" d="M119.8,41.5c0,0,0,0.7-0.2,1.7c-0.2,1-0.7,2.3-1.5,3.6c-0.9,1.5-2.1,2.8-3.4,3.9
						c-0.2,0.2-0.4,0.3-0.4,0.3l-0.9-1.3c0,0,0.2-0.1,0.4-0.2c2.4-1.5,4.5-3.7,5.5-6.4C119.7,42.2,119.8,41.5,119.8,41.5"/>
					<path fill="#3C0F26" d="M116.1,39.2c0,0,0.2,0.7,0.2,1.7c0.1,3.1-1.2,6-2.9,8.5c-0.2,0.2-0.3,0.4-0.3,0.4l-1.2-1
						c0,0,0.1-0.1,0.3-0.3c1.9-2,3.6-4.8,3.9-7.6C116.2,39.9,116.1,39.2,116.1,39.2"/>
					<path fill="#FFFFFF" d="M114.9,51.7c-2.6-3.7-8.4-6.6-11.5-5.7c-9.4,2.5-7,15.9-7,15.9s6.4,6.1,12.5,4.3c2.8-0.9,5.1-2.7,6-5.3
						C115.7,58.3,116.1,54.8,114.9,51.7"/>
					<path fill="#0091A0" d="M99.9,56.5c-0.3,4.1,2.2,7.5,5.6,7.7c3.4,0.2,6.3-2.9,6.7-7c0.3-4.1-2.2-7.5-5.6-7.7
						C103.1,49.3,100.2,52.4,99.9,56.5"/>
					<path fill="#3C0F26" d="M102.4,56.6c-0.2,2.5,1.4,4.6,3.4,4.7c2.1,0.2,3.9-1.8,4-4.2c0.2-2.5-1.4-4.6-3.4-4.7
						C104.3,52.3,102.5,54.1,102.4,56.6"/>
					<path fill="#61449A" d="M114.9,51.7c0,0-0.4-0.4-1-1s-1.6-1.5-2.9-2.2c-2.9-2-6.6-2.8-9.8-0.8c-0.8,0.5-1.5,1.2-2,1.9
						c-0.5,0.8-1,1.5-1.4,2.4c-0.7,1.7-1.1,3.4-1.2,4.9c-0.2,1.5-0.2,2.8-0.2,3.6c0,0.9,0,1.4,0,1.4s-0.2-0.5-0.3-1.4
						c-0.2-0.9-0.3-2.2-0.3-3.7s0.2-3.4,0.9-5.3c0.4-0.9,0.8-1.9,1.5-2.8c0.6-0.9,1.5-1.6,2.4-2.2c2.8-1.9,6.1-1.8,9-0.2
						c0.8,0.5,1.5,1,2.1,1.5c1.2,1,2,2,2.6,2.7C114.7,51.2,114.9,51.7,114.9,51.7"/>
					<path fill="#FFFFFF" d="M79,58.9c0.2,1-0.5,1.9-1.2,2c-0.9,0.1-1.6-0.7-1.8-1.7c-0.2-1,0.5-1.9,1.2-2
						C78.1,57.1,78.9,57.8,79,58.9"/>
					<path fill="#FFFFFF" d="M110.6,52.2c0.5,1.5,0.6,3.5-0.7,3.9s-3.1-1.1-3.6-2.6c-0.5-1.5-0.9-3.3,0.5-3.7
						C107.9,49.4,110,50.7,110.6,52.2"/>
					<path fill="#FFFFFF" d="M105.4,60.2c0.2,1-0.5,1.9-1.2,2c-0.9,0.1-1.6-0.7-1.8-1.7s0.5-1.9,1.2-2
						C104.4,58.5,105.2,59.2,105.4,60.2"/>
					<path fill="#FFFFFF" d="M84.5,51.2c0.5,1.5,0.6,3.5-0.7,3.9s-3.1-1.1-3.6-2.6c-0.5-1.5-0.9-3.3,0.5-3.7
						C81.9,48.4,83.9,49.6,84.5,51.2"/>
				</g>
				<path fill="#3C0F26" d="M76,39c-0.1-0.6,3.4-3.5,7-3.3c3.6,0.2,4.7,2.2,4.3,2.6c-0.4,0.3-1.9-0.7-4.5-0.8C79,37.5,76,39.7,76,39
					"/>
				<path fill="#3C0F26" d="M111.2,40.3c0-0.6-3.6-3.3-7.1-2.9c-3.6,0.4-4.6,2.5-4.3,2.8c0.4,0.3,1.8-0.8,4.4-1
					C108.1,38.8,111.2,40.9,111.2,40.3"/>
				<path fill="#B869A1" d="M105.1,27.2c-19.5-15.4-40.9-10-49.9-4.1c-8,5.2-8.5,21.3-8.6,22.7c-0.7,8.8,8.3,15.4,10.4,16
					c0.1,0,0.2,0,0.2,0.1c0.7-0.9,0.9-0.7,1.6-1.8c5.4-6.4,6-18.5,3.8-26.9c0,0,5.3-6.6,31.9-0.6c2.9,0.7,11.9,1.3,14.8,2.2
					C110.2,35.9,110.2,31.2,105.1,27.2z"/>
				<path fill="#7C1A55" d="M78.4,17.6c0,0,0.4-0.1,1.2-0.1c0.7,0,1.7,0.1,3,0.4c0.6,0.1,1.3,0.4,1.9,0.6c6.2,2.5,10.8,8.1,12,14.1
					c0,0-0.7-1.4-1.8-3.2c-2.5-4-6-7.8-10.6-10c-0.6-0.3-1.2-0.5-1.8-0.8c-1.1-0.4-2.1-0.7-2.8-0.8C78.8,17.6,78.4,17.6,78.4,17.6"
					/>
				<g>
					<path fill="#B8A6CC" d="M15.5,36.9c0.4-2.2,14.6-5.6,29.3,3.7C57.4,48.5,61,65.9,61,65.9s-8.6-2-22.9-8
						C28.2,53.8,15.1,39.2,15.5,36.9"/>
					<path fill="#F6B4D1" d="M41,44.9c-8.7-4.8-18.3-6.7-23.1-7.3c-0.2,0.2,8.1,12.1,20,18.1c8.7,4.3,14.9,6,18.3,7.3
						C55.5,58.7,51.5,50.7,41,44.9"/>
				</g>
				<g>
					<path fill="#7C1A55" d="M98.5,32.9c0.4-0.6,0.7-1.3,1-1.9c0.3-0.7,0.6-1.3,0.8-2c0.2-0.7,0.3-1.4,0.2-2.1
						c0-0.7-0.2-1.4-0.5-2.1c0.5,0.5,0.9,1.2,1.1,2c0.2,0.8,0.1,1.6-0.1,2.3C100.6,30.6,99.7,32,98.5,32.9z"/>
				</g>
				<g>
					<path fill="#7C1A55" d="M83.5,29.8c-1.8-1.9-3.9-3.3-6.2-4.4c-2.3-1.1-4.7-1.9-7.2-2.3c-1.2-0.2-2.5-0.4-3.8-0.4
						c-0.6,0-1.3-0.1-1.9-0.1c-0.6,0-1.3,0.1-1.9,0.1c-0.6,0-1.3,0.1-1.9,0.2L58.8,23c-1.3,0.2-2.5,0.5-3.8,0.6
						c1.2-0.5,2.4-1,3.7-1.4c1.3-0.3,2.5-0.7,3.9-0.8c2.6-0.4,5.3-0.3,7.9,0c2.6,0.5,5.2,1.4,7.5,2.8C80.1,25.7,82.2,27.4,83.5,29.8
						z"/>
				</g>
				<g>
					<path fill="#7C1A55" d="M49.2,40.4c1.3-0.1,2.5-0.6,3.8-1.1c1.2-0.5,2.4-1.1,3.6-1.6c1.2-0.6,2.3-1.2,3.3-2
						c1-0.8,2-1.7,2.8-2.6l0.8-1.1l-0.1,1.3c-0.2,1.5-0.5,3-0.8,4.5c-0.4,1.5-0.9,2.9-1.5,4.3c-1.3,2.7-3.1,5.3-5.5,7.1
						c2.2-2,3.8-4.6,5-7.3c0.6-1.4,1-2.8,1.4-4.2c0.4-1.4,0.6-2.9,0.8-4.4l0.7,0.2c-0.9,1.1-1.9,2-3,2.8c-1.1,0.8-2.3,1.4-3.5,2
						c-1.2,0.5-2.5,1-3.7,1.4c-0.6,0.2-1.3,0.4-1.9,0.5C50.6,40.3,49.9,40.5,49.2,40.4z"/>
				</g>
				<path fill="#0057A7" d="M79.6,102.3c0,0-1.2,3.9-2.8,3.4c-2.6-0.8-6-6-7.2-7.1l-2.3,9.9l13.2,0
					C80.2,106.5,79.9,104.4,79.6,102.3z"/>
				<path fill="#0057A7" d="M79.5,102.2l-0.8,3.6c0,0,0.9,1,2.5,2.4l2.9-2.7C81.5,103.8,79.5,102.2,79.5,102.2z"/>
				<path fill="#E6E6E6" d="M102.3,109c0,0-2.8,1.6-8.1,0.9c-1.7-0.2-3.6-0.9-5.4-1.8l-3.2,3.4c2.1,1.3,4.5,2.5,7.2,3.2
					c7.4,1.9,11.7-1,11.7-1L102.3,109z"/>
				<path fill="#E64141" d="M84.2,105.5l-2.9,2.7c1.1,1,2.6,2.1,4.3,3.2l3.2-3.4C87.1,107.4,85.5,106.4,84.2,105.5z"/>
				<path fill="#E6E6E6" d="M88.5,135.3c0,0-3.4-7.3-6.8-21.3l-15.7-0.1l-4.7,20.6C68.3,138.4,81.9,138.2,88.5,135.3z"/>
				<path fill="#E64141" d="M80.6,108.4l-13.2,0l-1.3,5.5l15.7,0.1C81.4,112.2,81,110.4,80.6,108.4z"/>
				<path fill="#E64141" d="M57.1,103.1l4.3,4.9c1.6-0.6,3.1-1.2,4.4-1.6l-4.3-4.7C60.1,102.1,58.6,102.6,57.1,103.1z"/>
				<path fill="#E6E6E6" d="M45.9,110.9c-2.9,4.6,2.6,12.8,2.6,12.8l4.5-2.1c0,0-2.6-4.3-0.3-8.2c1.1-2,5-3.9,8.7-5.4l-4.3-4.9
					C52.7,104.8,48.2,107.3,45.9,110.9z"/>
				<path fill="#0057A7" d="M69.3,100.2c0,0-3.5,0.4-7.8,1.6l4.3,4.7c1.7-0.6,2.9-0.9,2.9-0.9s0.9-0.8,1.1-2.4
					C69.9,101.5,69.3,100.2,69.3,100.2z"/>
				<path fill="#FFFFFF" d="M79.4,100.4c0,0.1-1.6,2.6-1.6,2.6l2.9,2.9L79.4,100.4z"/>
				<polygon fill="#FFFFFF" points="70.2,95.2 76,102.8 72.3,107.4 68.9,100.3 				"/>
				<g>
					<path fill="#1B3460" d="M84.1,141.7c-0.8,0.9-1.7,1.7-2.7,2.4c-1,0.7-2.1,1.3-3.2,1.8l0.2-0.3c0,1.1-0.1,2.2-0.3,3.2
						c-0.1,1.1-0.3,2.1-0.6,3.2c-0.1-1.1-0.1-2.2-0.1-3.3c0-1.1,0.1-2.2,0.3-3.2l0-0.2l0.2-0.1C80.1,144.4,82.2,143.2,84.1,141.7z"
						/>
				</g>
			</g>
		</g>
	</g>
</g>
</svg>
