<?xml version="1.0" encoding="utf-8"?>
<!-- Generator: Adobe Illustrator 21.1.0, SVG Export Plug-In . SVG Version: 6.00 Build 0)  -->
<svg version="1.1" xmlns="http://www.w3.org/2000/svg" xmlns:xlink="http://www.w3.org/1999/xlink" x="0px" y="0px"
	 viewBox="0 0 150 135" enable-background="new 0 0 150 135" xml:space="preserve" width="150" height="135" preserveAspectRatio="none">
<g id="BG">
</g>
<g id="PB1">
</g>
<g id="PB2">
</g>
<g id="PB3">
</g>
<g id="Kraken">
</g>
<g id="Fiona">
</g>
<g id="Clod">
</g>
<g id="Announcer">
</g>
<g id="R_x26_G">
</g>
<g id="Q">
</g>
<g id="Rote">
</g>
<g id="Grok">
</g>
<g id="Locked_Blocks">
</g>
<g id="Locks">
</g>
<g id="Layer_15">
	<g>
		<polygon opacity="0.3" fill="#221F1F" points="11.6,33.3 18.5,105.1 141,104.6 141,33.9 		"/>
		<polygon fill="#EDE5D9" points="9,31.2 15.9,103.1 138.4,103.3 138.4,32.4 		"/>
		<g>
			<defs>
				<path id="SVGID_123_" d="M99.7,30.6C98,22.3,87.7,11.9,75.3,11.9c-12.6,0-23,10.6-24.4,19.1L9,31.2l6.9,71.9l122.6,0.2V32.4
					L99.7,30.6z"/>
			</defs>
			<clipPath id="SVGID_2_">
				<use xlink:href="#SVGID_123_"  overflow="visible"/>
			</clipPath>
			<g clip-path="url(#SVGID_2_)">
				<g opacity="0.1">
					<g>
						<path fill="#384F7E" d="M112.4,115.6c0,2.7-15,5-33.4,5c-18.5,0-33.4-2.2-33.4-5c0-2.7,15-5,33.4-5
							C97.4,110.6,112.4,112.8,112.4,115.6"/>
					</g>
				</g>
				<g>
					<g>
						<g>
							<path fill="#02313B" d="M84.4,107.1l-3.1,8.5c0,0,5.1-3.9,9-3.5c3.9,0.4,3.9,5.1,3.9,5.1H79.4l1.1-9.9L84.4,107.1z"/>
						</g>
						<path fill="#73805E" d="M84.2,98.7l-3.2,0.1c0,0,0.6,4.1-1.8,7.7l1.1,3.1l3.3,0l3.3-2.7C86.8,106.8,86.6,102,84.2,98.7z"/>
					</g>
					<g>
						<g>
							<path fill="#02313B" d="M70.6,107.1l3.1,8.5c0,0-5.1-3.9-9-3.5c-3.9,0.4-3.9,5.1-3.9,5.1h14.8l-1.1-9.9L70.6,107.1z"/>
						</g>
						<path fill="#73805E" d="M70.8,98.7l3.2,0.1c0,0-0.6,4.1,1.8,7.7l-1.1,3.1l-3.3,0l-3.3-2.7C68.3,106.8,68.5,102,70.8,98.7z"/>
					</g>
				</g>
				<g>
					<path fill="#4FC7F3" d="M102.2,77.6c0,0,12.8,0.9,12.8,11.1c0,10.1-13.5,9.7-13.5,9.7l-0.5-1.7c0,0,6.6-3.5,3.3-7.1
						c-2.2-2.4-7.1-2.4-7.1-2.4L102.2,77.6z"/>
					<path fill="#4FC7F3" d="M102.4,96c0,0-1,0.2-1.5-0.1c-1.3-0.7-2.9-2.4-3.4-1.7c-0.8,0.9,2.1,2.4,2.1,2.4s-4.1,1.6-3.6,3.1
						c0.4,1.2,3.4-1.4,3.4-1.4s-3.3,3.3-1.9,4.2c0.8,0.5,2.7-2.8,2.7-2.8s-0.8,3.2,0.3,3c1.5-0.3,0.6-3.7,0.6-3.7s0.8,0.4,1.5-0.2
						c0.5-0.4,0.6-1.2,0.6-1.2L102.4,96z"/>
				</g>
				<g>
					<path fill="#4FC7F3" d="M55.9,78.2c0,0-12.8,0.9-12.8,11.1c0,10.1,13.5,9.7,13.5,9.7l0.5-1.7c0,0-6.6-3.5-3.3-7.1
						c2.2-2.4,7.1-2.4,7.1-2.4L55.9,78.2z"/>
					<path fill="#4FC7F3" d="M55.6,96.6c0,0,1,0.2,1.5-0.1c1.3-0.7,2.9-2.4,3.4-1.7c0.8,0.9-2.1,2.4-2.1,2.4s4.1,1.6,3.6,3.1
						c-0.4,1.2-3.4-1.4-3.4-1.4s3.3,3.3,1.9,4.2c-0.8,0.5-2.7-2.8-2.7-2.8s0.8,3.2-0.3,3c-1.5-0.3-0.6-3.7-0.6-3.7s-0.8,0.4-1.5-0.2
						C55,99.1,55,98.3,55,98.3L55.6,96.6z"/>
				</g>
				<path fill="#02313B" d="M62.4,36.4c1.7,1.9,3.6,2.2,3.6,2.2s1.4,0.5,1.4,2.7c0,2.2-1.4,3.1-1.4,3.1s-8.7,0.7-9.5-5.8
					c-0.1-0.8-0.1-1.5-0.1-2.2H62.4z"/>
				<path fill="#02313B" d="M66.4,47.1c0.6,1,2.3,3.3,2.1,9.8c-0.2,4.4-4.4,12.9-4.4,12.9l22.2,6.4c0,0,2.6-23.3,3-26.8
					C83.4,45.3,71.6,44.7,66.4,47.1z"/>
				<path fill="#FFFFFF" d="M79.1,45.5c-0.4-0.1-0.7-0.1-1.1-0.2c-0.6-0.1-1.3-0.2-1.9-0.2c-1.3-0.1-2.5,0-3.8,0.3
					c-1.3,0.3-2.4,0.8-3.6,1.3c-0.9,0.4-1.8,0.7-2.6,1.1c0,0,3.9,4.2,4.6,4.2c0.3,0,0.6-1.5,0.8-2.9c1.3-0.3,4.5-0.7,9.1,0
					c0.6,1.4,1.2,2.7,1.5,2.8C82.7,52.2,86,47,86,47C83.7,46.5,81.4,45.9,79.1,45.5z"/>
				<path fill="#CC4485" d="M70.1,67.9c0,0,1.3-5,10-5.6c8.7-0.7,15.1,7.1,15.1,7.1S82.8,87,81.6,85.9
					C80.4,84.8,70.1,67.9,70.1,67.9z"/>
				<path fill="#FFFFFF" d="M83.2,64.8c-0.4-0.1-1.4,1.2-2.2,2.6c-1-0.4-2.2-0.9-3.6-1.3c-6-1.8-9.5-0.9-9.5-0.9l15.4,9.1l3.1-3.3
					C86.3,71,83.9,64.9,83.2,64.8z"/>
				<path fill="#4FC7F3" d="M89,38.2c3,1.5,7.7,5.7,9.9,17c1.4,7.4,1.4,26.9,1.4,26.9S87.1,93.8,74.6,93.8
					c-12.5,0-19.3-15.3-19.3-15.3s-2.2-2.4-2.1-7.3c0.1-4.9,2-7.8,2-7.8s1.1-1.6,10-0.4c9.5,1.3,17.9,9.7,17.9,9.7s11.9-22-6.8-26.4
					c-5-1.2-14.5,4.6-14.5,4.6l2.8-13.3l1.6-1.8l0.9-1.8C75.4,32.2,87.3,37.4,89,38.2z"/>
				<path fill="#0880C3" d="M59.5,66.6c1.1-0.1,2.2-0.1,3.2,0c1.1,0.1,2.2,0.3,3.2,0.6c2.1,0.6,4.2,1.6,5.8,3.1l0.8,0.8
					c-1.8-0.2-3.8-0.4-5.5,0.4c-0.5,0.2-1,0.6-1.3,1c-0.3,0.4-0.4,0.9-0.4,1.4c-0.1,0.9,0.1,1.7,0.4,2.5c0.3,0.8,0.6,1.5,0.9,2.2
					c-0.6-1-1.3-2-1.6-3.1c-0.3-1.1-0.3-2.4,0.3-3.4c0.9-1.5,2.9-1.9,4.5-2c0.6,0-2-1.7-4-2.4c-1-0.3-2-0.6-3.1-0.8
					C61.7,66.8,60.6,66.7,59.5,66.6z"/>
				<g>
					<path fill="#0880C3" d="M74.5,40.4c-0.2,2.6-2.1,4.6-4.2,4.5c-2.1-0.2-3.6-2.4-3.4-5.1c0.2-2.6,2.1-4.6,4.2-4.5
						C73.2,35.5,74.8,37.8,74.5,40.4"/>
					<path fill="#FFFFFF" d="M74.2,39.7c-0.2,2.3-1.8,4-3.7,3.8c-1.9-0.1-3.2-2.1-3-4.4c0.2-2.3,1.8-4,3.7-3.8
						C73,35.5,74.3,37.5,74.2,39.7"/>
					<path fill="#02313B" d="M72.2,40.2c-0.1,1.1-0.8,1.9-1.7,1.9c-0.8-0.1-1.5-1-1.4-2.1c0.1-1.1,0.8-1.9,1.7-1.9
						C71.7,38.2,72.3,39.1,72.2,40.2"/>
					<path fill="#0880C3" d="M81.7,39.5c0.4,2.6-0.9,5-3,5.4c-2.1,0.3-4.1-1.5-4.5-4.1c-0.4-2.6,0.9-5,3-5.4
						C79.2,35.1,81.3,36.9,81.7,39.5"/>
					<path fill="#FFFFFF" d="M81.2,38.9c0.4,2.2-0.8,4.3-2.7,4.6c-1.8,0.3-3.6-1.3-4-3.5c-0.4-2.2,0.8-4.3,2.7-4.6
						C79,35.1,80.8,36.7,81.2,38.9"/>
					<path fill="#02313B" d="M79.3,39.7c0.2,1.1-0.3,2.1-1.2,2.2c-0.8,0.1-1.7-0.6-1.8-1.7c-0.2-1.1,0.3-2.1,1.2-2.2
						C78.3,37.9,79.1,38.6,79.3,39.7"/>
				</g>
				<path fill="#4FC7F3" d="M66.1,36.6c3-1.9,6-1.7,11-1.7c1.6,0,4.6,2,6,2l0.1,1.8H65.9C66,38,66.1,37.3,66.1,36.6z"/>
				<path fill="#D0BB9C" d="M54.4,76.9c0,0-2.4,0.8-3.3,1.2c-3.4,1.5-5.1,3.6-5.1,3.6l8.1,9.2l9.1-2.6l-2-4.7L54.4,76.9z"/>
				<path fill="#D0BB9C" d="M112,81.2l-8.1,9.1l-9.1-2.6l5-11.9c0,0,3.7,0.2,7.1,1.7C110.5,79.1,112,81.2,112,81.2z"/>
				<path fill="#73805E" d="M111.2,80.3c0.9,0.9,1.5,1.6,2,2.5l-9.1,7.6l-2.9-0.9L111.2,80.3z"/>
				<path fill="#73805E" d="M46.2,81.5c-0.8,0.9-1.4,1.6-1.9,2.6l8.7,7.2l2.9-0.9L46.2,81.5z"/>
				<path fill="#D0BB9C" d="M77.1,85.2l-22.1-7.4C57.4,87.8,66,99,66,99l25.8,0c0,0,8.1-9.2,10.3-21.6L77.1,85.2z"/>
				<polygon fill="#73805E" points="77.1,87.8 51.2,78.1 54.5,76.9 77.3,85.1 100.2,75.6 103.8,76.5 77.7,87.8 77.4,87.9 				"/>
				<g>
					<polygon fill="#73805E" points="77.5,94.6 83.3,96.8 83.3,92.4 77.4,89.7 71.4,92.4 71.5,96.8 77.3,94.6 77.4,94.6 					"/>
					<g>
						<g>
							<path fill="#566545" d="M71.6,93.8c2-0.7,3.9-1.5,5.9-2.4l-0.2,0c1,0.4,2,0.9,2.9,1.3c1,0.4,2,0.8,3,1.2
								c-0.9-0.5-1.9-1-2.9-1.5c-1-0.5-1.9-0.9-2.9-1.4l-0.1,0l-0.1,0C75.4,91.9,73.4,92.8,71.6,93.8z"/>
						</g>
					</g>
					<g>
						<g>
							<path fill="#566545" d="M71.6,95.4c2-0.7,3.9-1.5,5.8-2.3l-0.1,0c1,0.4,2,0.9,2.9,1.3c1,0.4,2,0.8,3,1.2
								c-0.9-0.5-1.9-1-2.9-1.4c-1-0.5-1.9-0.9-2.9-1.3l-0.1,0l-0.1,0C75.4,93.6,73.4,94.5,71.6,95.4z"/>
						</g>
					</g>
				</g>
				<path fill="#02313B" d="M87.3,37.7c0,0,1.2-0.2,2.7-1.3h7.9c0,0.4,0,0.8-0.1,1.3c-0.8,7.2-10.4,6.4-10.4,6.4s-1.5-1-1.5-3.4
					C85.8,38.2,87.3,37.7,87.3,37.7z"/>
				<path fill="none" d="M66.3,36.8l18.6-0.5c3.1,2.1,5.1,5.3,5.1,8.8c0,6.3-6.3,11.4-14.1,11.4c-7.8,0-14.1-5.1-14.1-11.4
					C61.8,41.8,63.5,38.8,66.3,36.8z"/>
				<ellipse fill="#73805E" cx="77.6" cy="36.5" rx="35" ry="2.7"/>
				<path fill="#02313B" d="M91.9,34.4c2-2.8,1.8-7.1,1.8-7.1s4.2,2.8,4.1,9.1h-7.9C90.6,35.9,91.3,35.3,91.9,34.4z"/>
				<path fill="#02313B" d="M60.1,29.2c0,0-0.2,3.9,1.6,6.4c0.2,0.3,0.4,0.5,0.6,0.8h-5.9C56.8,31.4,60.1,29.2,60.1,29.2z"/>
				<g>
					<path fill="#73805E" d="M62.5,21.6c2.1-0.4,7.6,1.9,7.6,1.9s3.3-8.6,6.7-8.6s6.7,8.6,6.7,8.6s5.5-2.3,7.6-1.9
						c1.6,0.3-2.8,13.7-2.8,13.7h-23C65.3,35.3,60.9,21.9,62.5,21.6z"/>
					<polygon fill="#534135" points="65.2,36 88.3,36 89.4,31.6 64.1,31.6 					"/>
				</g>
				<g>
					<g>
						<path fill="#566545" d="M80,22.3c0,0.8,0.3,1.7,0.7,2.4c0.4,0.8,1,1.5,1.7,2c0.2,0.1,0.4,0.3,0.6,0.3l0.6,0.3
							c0.4,0.1,0.9,0.2,1.3,0.2c0.9,0,1.7-0.3,2.4-0.7c-0.4,0-0.8,0.1-1.2,0.1c-0.4,0-0.8,0-1.2,0c-0.8-0.1-1.5-0.3-2.1-0.8
							c-0.6-0.4-1.2-1-1.6-1.7C80.7,23.8,80.3,23.1,80,22.3z"/>
					</g>
					<g>
						<g>
							<path fill="#566545" d="M73.6,22.3c-0.4,0.8-0.8,1.5-1.2,2.1c-0.5,0.6-1,1.2-1.6,1.7c-0.6,0.5-1.3,0.7-2.1,0.8
								c-0.4,0.1-0.8,0-1.2,0c-0.4,0-0.8-0.1-1.2-0.1c0.7,0.4,1.6,0.7,2.4,0.7c0.4,0,0.9-0.1,1.3-0.2l0.6-0.3
								c0.2-0.1,0.4-0.2,0.6-0.3c0.7-0.5,1.3-1.2,1.7-2C73.3,24,73.6,23.2,73.6,22.3z"/>
						</g>
					</g>
				</g>
			</g>
		</g>
	</g>
</g>
</svg>
