<svg version="1.1" xmlns="http://www.w3.org/2000/svg" xmlns:xlink="http://www.w3.org/1999/xlink" x="0px" y="0px" viewBox="0 0 150 135" enable-background="new 0 0 150 135" xml:space="preserve" width="150" height="135" preserveAspectRatio="none"><g id="BG" /><g id="PB1" /><g id="PB2" /><g id="PB3" /><g id="Kraken" /><g id="Fiona" /><g id="Clod" /><g id="Announcer" /><g id="R_x26_G" /><g id="Q" /><g id="Rote" /><g id="Grok" /><g id="Locked_Blocks" /><g id="Locks" /><g id="Layer_15"><polygon opacity="0.3" fill="#221F1F" points="10,32.2 18.5,104.2 141.2,105.1 142.5,34.4 	" /><polygon fill="#6D6E71" points="7.5,29.9 16,101.9 138.8,102.9 140,32.2 	" /><g><defs><path id="SVGID_00000162323933456914140820000011081963262630912943_" d="M7.5,29.9l8.5,72l122.8,1l1.2-70.7
				C107.2,16.6,59.9,6.5,7.5,29.9z" /></defs><clipPath id="SVGID_00000063592918887206775070000000354260221693397395_"><use xlink:href="#SVGID_00000162323933456914140820000011081963262630912943_" overflow="visible" /></clipPath><path clip-path="url(#SVGID_00000063592918887206775070000000354260221693397395_)" fill="#E6E6E6" d="M130.1,80.8
			c-0.6,0.8-2.3,1.9-3.8,2.9c2.9-4.3,1.3-7.5,1.3-7.5c-0.8,0.7-2.4,1.8-3.8,2.8c0.6-2.9-0.1-5.3-0.1-5.3c-3.1,0.8-8.1,5.8-8.1,5.8
			s-3.3-2.8-8.1-2.3c-0.4,0,2.7,5,3.4,7c-1.4,9.9-10.6,13.4-15.1,14.3c-1.5,0.3-2.7,0.5-3.4,0.5c0,0,0,0,0,0
			c-7.4,1.2-14.7-2.2-16.6-3.2c0.2-0.8,0.4-1.4,0.5-1.8c0.3-0.2,0.5-0.4,0.8-0.6c2.8,0.6,9.1-2.7,4.8-5.1c-1.1-0.6-2.1-1.6-2.9-2.6
			c1.2,0.2,2.5,0.2,3.7,0.2l2.2-2.3l0,0c4.4,0.1,5.8,1.4,5.8,1.4s4.7,0,9.1-6c1.5-2,4-6.8,4.8-12.3c2.5-0.1,4.7-1.7,5.3-4.2
			c0.8-3-1-6.1-4-6.8c-0.7-0.2-1.4-0.2-2.1-0.1c-0.2-0.4-0.9-1.8-1.2-2.3c0,0-4.6-10.1-9.7-11.4c-1.4-0.4-14.3,8.1-14.3,8.1
			c0,0,0,0,0,0c-3.9,2.3-4,2.4-3.9,2.3c-0.4-1-0.9-2-1.3-3.1c11.1-3.9,4.2-8.8,4.2-8.8s3.2-1.3,2.1-4.2c-0.3-1-1.1-2.1-2.3-3
			c0,0,0,0,0,0c0,0-0.1-0.1-0.4-0.3c-0.3-0.2-0.6-0.4-0.9-0.6c-2.5-1.6-5.8-1.2-5.8-1.2s0.2-2.8-2.9-4.2c-2.4-1.1-4-0.6-4.8-0.2
			c-0.3,0-0.5,0.1-0.7,0.1c-0.7-0.6-3.3-2.5-6.3-1.9C50.6,25,48.7,32,48.7,32c-8-2.8-10.7,1.6-11.9,4.9c-1.2,3.2-1,3.3-1,3.3
			c-5.4,1.9-4.9-3.1-4.9-3.1c-4.1,1.8-5,4.7-4.9,7.2c0,1.4,0.7,2.4,1.5,3.2c0.7,0.9,1.6,1.5,2.4,1.6c-1.9,3.4-6.7,2.2-6.7,2.2
			c-0.6,1.8-0.8,3.3-0.5,4.5c0,0,0,0,0,0.1c0,0.2,0.1,0.4,0.2,0.6c0,0.1,0,0.1,0.1,0.2c0.1,0.2,0.2,0.3,0.3,0.5c0,0,0,0.1,0,0.1
			c0.7,1.2,2,1.8,3.3,1.9c0.2,0,0.3,0,0.3,0c-0.6,0.8-1,1.7-1.4,2.5c0,0,0,0,0,0c0,0.1,0,0.1-0.1,0.2c-0.2,0.6-0.4,1.1-0.5,1.7
			c-1.1,4.3-0.2,7.2,1.4,9.2c-2.8-0.1-8,0.4-7.8,6.3c0,0.8,0.2,1.5,0.3,2c-2.5,1.1-5.3,2.4-8.6,3.9c0,0-9.1,2.6-20,12.6
			c0,0-7.7,6.7-7.4,9.1c0,0,0.2,6.5,10.2,9c0,0,5.6-7.4,23.8-10c0,0,0.4,0,1.1-0.1c-0.9,2.2-2,4.3-3.1,6.1
			c-7,11-14.5,17.4-13.8,19.1c0,0,14.7,26.2,43.2,28.5c23.6,1.9,29.7-7.8,29.7-7.8s-2.8-12.3,0.7-24c2.6-2.2,4.3-5.1,5.4-7.5
			c0.7-1.3,1.2-2.9,1.6-4.6c2.5,1.2,5.2,2.4,7.7,3.1c2.7,0.7,6.1,0.8,6.1,0.8c5.3-1,10-2,13.3-4.1c11.7-7.4,14.9-21,14.9-21
			C131.2,90.8,131.3,79.4,130.1,80.8z" /></g></g><g id="Layer_16" /></svg>