<?xml version="1.0" encoding="utf-8"?>
<!-- Generator: Adobe Illustrator 21.1.0, SVG Export Plug-In . SVG Version: 6.00 Build 0)  -->
<svg version="1.1" xmlns="http://www.w3.org/2000/svg" xmlns:xlink="http://www.w3.org/1999/xlink" x="0px" y="0px"
	 viewBox="0 0 150 135" enable-background="new 0 0 150 135" xml:space="preserve" width="150" height="135" preserveAspectRatio="none">
<g id="BG">
</g>
<g id="PB1">
</g>
<g id="PB2">
</g>
<g id="PB3">
</g>
<g id="Kraken">
</g>
<g id="Fiona">
</g>
<g id="Clod">
</g>
<g id="Announcer">
</g>
<g id="R_x26_G">
</g>
<g id="Q">
</g>
<g id="Rote">
</g>
<g id="Grok">
</g>
<g id="Locked_Blocks">
</g>
<g id="Locks">
</g>
<g id="Layer_15">
	<polygon opacity="0.3" fill="#231F20" points="9.8,32.2 18.3,104.2 141,105.1 142.3,34.4 	"/>
	<polygon fill="#6E6F72" points="7.7,30.2 16.2,102.2 139,103.1 140.2,32.4 	"/>
	<g>
		<defs>
			<path id="SVGID_125_" d="M112.7,31.9c-4.1-11.3-18.8-19.7-36.4-19.7c-16.9,0-31.2,7.8-35.9,18.4L7.7,30.2l8.5,72l122.8,1
				l1.2-70.7L112.7,31.9z"/>
		</defs>
		<clipPath id="SVGID_2_">
			<use xlink:href="#SVGID_125_"  overflow="visible"/>
		</clipPath>
		<g clip-path="url(#SVGID_2_)">
			<path fill="#E7E7E7" d="M104.4,61.8c2.3-1,5-2.1,8-3.6c7.2-3.4,16.7-14.6,16.4-16.2c-0.3-1.6-12.9-4-21.6,2.7
				c0-0.4,0.1-0.6,0.1-0.6s0,0.3-0.2,0.7c0,0-0.1,0.1-0.1,0.1c-1.3,1-2.4,2.2-3.5,3.4c0-0.1,0-0.1,0-0.2c0.7-1.4,1.1-2.9,1.1-4.5
				c0-0.8-0.2-1.3-0.2-1.3s0.1,0.5,0,1.3c-0.1,1.2-0.6,2.4-1.2,3.4c-0.5-1.8-1.2-3.5-2-5.2c0.8-3.6,2-4.9,0.8-8.7
				c0-0.1-0.1-0.2-0.1-0.3c0,0,0-0.1,0-0.1c0-0.1-0.1-0.2-0.1-0.3c-0.1-0.2-0.1-0.4-0.2-0.6c-0.6-1.3-1.3-2.4-2.1-3.1c0,0,0,0,0,0
				c-10.5-12.1-31.2-1.4-35.8-4.2c-3.7-2.2-1.1-5.3-1.1-5.3s-8.2-1-6.8,7.4c0.2,1.2,0.9,2.2,1.5,3c-1.6,1.1-2.8,2.5-3.6,3.9
				c-2.1,1.1-5.4,3.4-7,7.1c-0.1,0.3-0.3,0.7-0.4,1C36,36.7,26.8,39,26.5,40.6c-0.3,1.8,9.9,13.1,17.5,16.3c0.2,0.1,0.3,0.1,0.5,0.2
				c-0.1,2.1-0.3,3.9-0.6,4.7c-1.2,2.8-3.4,4.6-3.4,4.6s2.6,0.4,6-2c0.6,3.9,1.8,8.8,1.8,8.8s4.8,0.3,9.6,1.9c4.8,1.6,9.5,4,9.5,4
				s-1-2.1-2.3-5.4c1.6,0.4,3.8,0.9,6.4,1.6c-1.1,5.1-2.6,11.2-2.6,11.2l-0.4,2c0,0,0,0,0,0l-0.3,1.3c-0.5,0.1-14,1.7-18.1,8.3
				c-2.3,3.6,2.1,9.9,2.1,9.9l0,0c2.2,3.6,5.3,6.9,5.3,6.9s-7.7-1.5-7.7,1.1c0,2.6,6.9,0.8,6.9,0.8s-1.7,1.2-3.4,2.7
				c-9,2.2-11.7-2.9-11.7-2.9s-1.6,5.3,1.7,10.6c2,3.1,5.7,4.7,5.7,4.7s-4.5,1.1-3.1,2.2c1.4,1,4.9,2.1,8.1,1.5
				c1.2-0.2,2.4-0.3,3.4-1.2c0,0-2.7,2.2-0.6,2.3c1.8,0.1,4-1,6.1-2.6l0.6,16.9c-0.1,6.6-0.7,12.4-1.6,18.7l0,0
				c-0.3,2.3-0.8,4.8-1.2,7h4.4H67h2v0l0,0c0-0.1,0-0.3,0-0.4c0-2.9,0.1-4.7,0-7.8l0,0c0-5.7-0.2-11.5-0.5-17.3h0l-1.1-17.9
				c0,0,2.1,0.4,3.7-1.2c1.2-1.2,2-6,2-6l2.5,0.2c0,0,0.6,0.7,0.1,1.6s-1.7,1.6-1.7,1.6l4.3,21.5c1.2,6.6,2.2,13.2,2.8,19.9
				c0.1,0.8,0.1,1.5,0.2,2.3c0.1,1.2,0.2,2.5,0.2,3.7h4.3h1.9h2c-0.5-2.5-1.1-5.1-1.7-7.6c-0.1-0.2-0.1-0.4-0.2-0.7
				c-0.1-0.3-0.2-0.7-0.2-1l0,0c-1.3-5.5-2.6-10.9-4.1-16.5l0,0l-1.4-5.2c-1-3.7-2-7.5-3-11.5l0,0l-0.3-1.2c0,0,1.5,0.2,3.2-0.8
				c1.7-1,4.9-4.2,4.4-8.4c-0.3-2.3-0.7-3.3-1.4-5c0,0-0.7-1.5-1.3-2.5c0,0,0,0,0,0c-1.9-3.7-5.2-11.3-7-21.3
				c1.8,1.7,5.2,4.5,9.6,5.6c5.7,1.5,9-0.8,9-0.8l0,0c6-2.7,7.4-10.7,7.4-10.7s9.8,2,11,0.3c1.2-1.7-10.6-2.2-10.6-2.2
				s12.8-2.6,13.2-6.3c0.3-2.4-14.2,4.2-14.2,4.2s6.6-6.4,5.2-8.1c-1.3-1.7-7.3,2.4-8.5,8.8c-1-2.3-2.7-5.8-3.7-5.2
				c-1.9,1.1,0.3,7.4,3.5,8.9c-0.9,2-2.5,4.9-5,6.7c-0.1,0.1-2.3,1.2-6.3,0.7c-4.6-0.6-10.5-5.3-11.2-5.9c0-0.1,0-0.2,0-0.2
				c-0.6-5.6-0.5-9.4,0.1-14.4c4.8,1.4,10.4,3.3,15.9,5.7l-0.4-5.7c1.7-0.1,3-0.4,3.8-0.9C101.8,72.6,103.9,68,104.4,61.8z
				 M55.5,106.2c0,0-2-3.3-0.3-6.4c1.5-2.6,9.7-5.3,11.9-5.9l-4.7,20.3l-0.3,0.9c-0.1-0.5-0.2-1-0.4-1.3
				C60,111,57.4,108.8,55.5,106.2z M100.8,41.1c0,0.1,0.1,0.1,0.1,0.2c0,0,0,0.1,0,0.1C100.9,41.3,100.9,41.2,100.8,41.1z"/>
		</g>
	</g>
</g>
</svg>
