<svg version="1.1" xmlns="http://www.w3.org/2000/svg" xmlns:xlink="http://www.w3.org/1999/xlink" x="0px" y="0px" viewBox="0 0 150 135" enable-background="new 0 0 150 135" xml:space="preserve" width="150" height="135" preserveAspectRatio="none"><g id="BG" /><g id="PB1" /><g id="PB2" /><g id="PB3" /><g id="Kraken" /><g id="Fiona" /><g id="Clod" /><g id="Announcer" /><g id="R_x26_G" /><g id="Q" /><g id="Rote" /><g id="Grok" /><g id="Locked_Blocks" /><g id="Locks" /><g id="Layer_15"><polygon opacity="0.3" fill="#221F1F" points="14.6,35.4 18.5,104.2 142,105.1 142,35.4 	" /><polygon fill="#6D6E71" points="12,33.3 15.9,102.1 139.4,103.1 139.4,33.3 	" /><g><defs><path id="SVGID_00000106121559867895626060000002064641565807960744_" d="M12,33.3l3.9,68.9l123.6,1V33.3
				C99.6,0.8,56.9,4.5,12,33.3z" /></defs><clipPath id="SVGID_00000134955647702478786310000018044302994031693462_"><use xlink:href="#SVGID_00000106121559867895626060000002064641565807960744_" overflow="visible" /></clipPath><g clip-path="url(#SVGID_00000134955647702478786310000018044302994031693462_)"><path fill="#E6E6E6" d="M139.9,96c-7.5-5.3-14-3.2-16-2.5c-0.2,0.1-0.3,0.1-0.5,0.2c-0.6-0.8-1.2-1.6-2-2.3
				c-0.1-0.1-0.2-0.2-0.3-0.3c-1.1-1.6-3.2-3.8-7.1-6.4c-2.9-1.9-5.8-3-8.3-3.6c1.2-0.9,0.1-2.7,0.1-2.7c1.4,1.1,3.8,1.6,4.3,0.6
				c0.8-1.6-1.4-4.1-1.4-4.1c3.4,1.5,5.1,0.6,4.5-1.7c-0.5-1.7-3.8-3.3-3.8-3.3c4.3-5.1-6.2-3.5-6.2-3.5c1.2-3.8-3.5-2-5.3-1.1
				C97.3,64,96.4,64,96.4,64c-0.2-0.6-0.6-0.8-1-0.8c-0.8-2.3-2.2-4.3-2.2-4.3s3-2.4-0.8-5.2C89.1,51.3,87,51,87,51
				s-1.8-7.2-8.5-7.7c-2.2-0.2-2.1,1.6-2.1,1.6s-2.1-1.4-4.9-2.6c0.5-3.4,0.9-9-0.6-14.1c-2.3-7.9-5.2-9.3-5.2-9.3v0
				c-0.5-0.3-1-0.5-1.4-0.4c-1.6,0.3-2.3,3-1.8,6.1c0.5,2.6,1.8,4.6,3.1,5v0c0,0,0,0,0,0c0.2,0.1,0.4,0.1,0.5,0.1
				c0.5,0.1,1.2,0.4,1.8,1.2c2.3,3.1,2.3,7.6,2,11c-2.6-0.9-5.6-1.4-8-0.4c-1.1,0.5-1.2,1.8-0.7,3.4c-1.6-0.2-3.2-0.3-4,0.1
				c-0.2,0.1-0.3,0.2-0.5,0.3c-0.9-3-2.3-6.8-4.5-9.9c-4.4-6.2-7.4-6.5-7.4-6.5l0,0c-0.5-0.1-1-0.1-1.4,0.1
				c-1.3,0.7-1.1,3.3,0.4,5.8c1.2,2.1,3,3.4,4.3,3.3l0,0c0,0,0,0,0,0c0.1,0,0.3-0.1,0.4-0.1c0.5-0.1,1.2-0.1,2,0.4
				c3,1.9,4.4,5.7,5.1,8.6c-0.6,0-1.3,0.1-2.1,0.4c-1,0.4-1.7,1.3-2,2.1c-2.3,1.7-3.8,4.6-3.9,8c-0.2-0.2-0.4-0.3-0.6-0.3
				c-0.5,0-0.9,0.4-0.9,0.9c0,0.5,0.4,0.9,0.9,0.9c0.3,0,0.5-0.1,0.6-0.3c0,0.1,0,0.3,0,0.4c0.1,1.1,0.4,2.1,0.7,3
				c-5.5,0.1-13.7,3.3-20.1,19.5c-0.2-1.6-0.3-2.5-0.3-2.6c-0.2-0.1-2-1.6-3.1,1.2c-0.9,2.3,0.9,6.8,1.2,7.6v0c0,0-0.7,2.1-1.1,4
				c0,0,0,0,0,0c-1.4,5.4-2.6,11.7-3.5,19.2c0,0-0.1-0.1-0.1-0.1c-0.4,3.4-2.3,9.4-3,11.9c-2.1,7.7-7,13.2-7,13.2s5.5-1.9,11.2-1.9
				c3.2,10.1,9.9,15.3,15.8,17.9c0,0.1,0.1,0.1,0.1,0.2c1.6,1.9,2.9,2.9,3.4,2.7c0.2,0,0.2-0.6,0.3-1.4c3.8,1.2,6.5,1.3,6.5,1.3
				s49.6-0.1,51.2-0.1c0.3,0,0.6,0,0.9,0c3.8,0,4.7,0,6.2,0c8.9,0,20.8-24.3,20.8-24.3s0.2-0.6,0.4-1.6c0.8,1.1,1.6,2.1,2.4,3.2
				c0.9,1.1,1.9,2.1,3,3.1c0.8,0.7,2.1,2,3.3,1.9c0.1,0,0.1,0,0.2,0c0,0,0.1,0,0.1,0c0,0,0,0,0.1,0c0,0,0,0,0.1-0.1c0,0,0,0,0,0
				c0.3-0.2,0.9-0.7,1.1-1.1c1-1.5,1.7-3.3,2.3-4.9c0.3-0.7,1.2-2.2,1.1-2.9c0,0,0,0,0,0C145.8,117.6,148.5,102,139.9,96z
				 M51.4,50.6c0,0.1,0,0.2,0,0.3c0,0.1,0.1,0.2,0.1,0.2c-0.8,0.7-1.8,1.9-1.3,3.2c0.5,1.4,1.5,1,1.5,1S51,57,52.1,59
				c0.3,0.5,0.7,0.7,1.1,0.8c0.3,1.9,0.9,3.3,0.9,3.3s-1.9-1-4.8-1.1c-0.4-1-0.7-2-0.8-3.1C48.2,55.6,49.3,52.5,51.4,50.6z" /><path fill="#E6E6E6" d="M28.1,78.8C28.1,78.8,28.1,78.8,28.1,78.8C28.1,78.9,28.1,78.9,28.1,78.8z" /></g></g></g><g id="Layer_16" /></svg>