<?xml version="1.0" encoding="utf-8"?>
<!-- Generator: Adobe Illustrator 21.1.0, SVG Export Plug-In . SVG Version: 6.00 Build 0)  -->
<svg version="1.1" xmlns="http://www.w3.org/2000/svg" xmlns:xlink="http://www.w3.org/1999/xlink" x="0px" y="0px"
	 viewBox="0 0 150 135" enable-background="new 0 0 150 135" xml:space="preserve" width="150" height="135" preserveAspectRatio="none">
<g id="BG">
</g>
<g id="PB1">
</g>
<g id="PB2">
</g>
<g id="PB3">
</g>
<g id="Kraken">
</g>
<g id="Fiona">
</g>
<g id="Clod">
</g>
<g id="Announcer">
</g>
<g id="R_x26_G">
</g>
<g id="Q">
</g>
<g id="Rote">
</g>
<g id="Grok">
</g>
<g id="Locked_Blocks">
</g>
<g id="Locks">
</g>
<g id="Layer_15">
	<g>
		<polygon opacity="0.3" fill="#231F20" points="9.8,32.2 18.3,104.2 141,105.1 142.3,34.4 		"/>
		<polygon fill="#CFE5B8" points="7.7,30.2 16.2,102.2 139,103.1 140.2,32.4 		"/>
		<g>
			<defs>
				<path id="SVGID_115_" d="M112.7,31.9c-4.1-11.3-18.8-19.7-36.4-19.7c-16.9,0-31.2,7.8-35.9,18.4L7.7,30.2l8.5,72l122.8,1
					l1.2-70.7L112.7,31.9z"/>
			</defs>
			<clipPath id="SVGID_2_">
				<use xlink:href="#SVGID_115_"  overflow="visible"/>
			</clipPath>
			<g clip-path="url(#SVGID_2_)">
				<g>
					<path fill="#B969A1" d="M79.3,134.5c4.1,15.7,7.6,28.4,10.5,42.5h-8.3c-0.6-13.9-3.4-27.8-6.3-41.6c0.4-0.2,1.8-0.6,2.2-0.9"/>
				</g>
				<g>
					<path fill="#B969A1" d="M66.5,132.7c2.3,14.9,2.5,29.7,2.5,44.1l-8.1-1.7c2.3-13.7,3.2-23.8,1.9-41.7c0-0.4,2.4-0.6,2.8-0.7"/>
				</g>
				<path fill="#7D1A55" d="M62,73.1c0,0,15.4,2.8,30.2,9.2l-0.5-7.2L60.3,59.2L62,73.1z"/>
				<path fill="#B969A1" d="M62,66.6c-1.6-4.1-6.4-33.8-6.4-33.8s-6.4,2.2-9,8S45,59,43.8,61.8c-1.2,2.8-3.4,4.6-3.4,4.6
					s2.6,0.4,6-2c0.6,3.9,1.8,8.8,1.8,8.8s4.8,0.3,9.6,1.9c4.8,1.6,9.5,4,9.5,4S64.8,73.6,62,66.6z"/>
				<g>
					<path fill="#7D1A55" d="M51.9,52.6c-0.8,1.4-1.3,2.8-1.8,4.3c-0.4,1.5-0.7,3-0.6,4.6c0,1.5,0.2,3.1,0.4,4.7
						c0.1,0.8,0.3,1.5,0.5,2.3c0.2,0.8,0.4,1.5,0.8,2.2c-0.9-1.3-1.4-2.9-1.7-4.4c-0.3-1.6-0.5-3.1-0.6-4.7c0-1.6,0.3-3.2,0.8-4.7
						C50.2,55.3,50.9,53.8,51.9,52.6z"/>
				</g>
				<g>
					<path fill="#7D1A55" d="M55.6,57.1c-0.3,1.5-0.5,3.1-0.4,4.7c0.1,1.6,0.3,3.1,0.7,4.6c0.4,1.5,1.1,2.9,1.8,4.3
						c0.3,0.7,0.7,1.4,1.2,2c0.4,0.7,0.9,1.3,1.4,1.9c-1.2-1-2.1-2.4-3-3.7c-0.8-1.4-1.4-2.8-1.9-4.4c-0.5-1.5-0.7-3.2-0.6-4.8
						C54.8,60.1,55.1,58.5,55.6,57.1z"/>
				</g>
				<path fill="#7D1A55" d="M67.3,121.1l-3.2-5.7c0,0-4.5,2.2-10.3,3.8c-9.5,2.7-12.4-2.7-12.4-2.7s-1.6,5.3,1.7,10.6
					c2,3.1,5.7,4.7,5.7,4.7s-4.5,1.1-3.1,2.2c1.4,1,4.9,2.1,8.1,1.5c1.2-0.2,2.4-0.3,3.4-1.2c0,0-2.7,2.2-0.6,2.3
					c4,0.2,10.5-5.5,11.7-9.3C69.5,123.5,67.3,121.1,67.3,121.1z"/>
				<g>
					<path fill="#B969A1" d="M78.2,116.5C78.2,116.5,78.2,116.5,78.2,116.5C78.2,116.5,78.2,116.5,78.2,116.5
						C78.2,116.5,78.2,116.5,78.2,116.5z"/>
				</g>
				<g>
					<path fill="#B969A1" d="M73.4,115.4C73.4,115.4,73.4,115.4,73.4,115.4C73.4,115.4,73.4,115.4,73.4,115.4
						C73.4,115.4,73.4,115.4,73.4,115.4C73.4,115.4,73.4,115.4,73.4,115.4z"/>
				</g>
				<path fill="#4E5556" d="M63.8,113.9c0,0-3.1,2.9-2.9,7.5c0.1,3.4,3,4.2,3.1,5.9c0.1,1.7-1.3,2.3-1.3,2.3l0.7,21.6h5.1l-1.1-17.9
					c0,0,2.1,0.4,3.7-1.2c1.2-1.2,2-6,2-6l2.5,0.2c0,0,0.6,0.7,0.1,1.6c-0.5,0.9-1.7,1.6-1.7,1.6l4.4,21.9l5.3-0.3L79,133.3
					c0,0,1.5,0.2,3.2-0.8c1.7-1,4.9-4.2,4.4-8.4c-0.3-2.3-0.7-3.3-1.4-5c-1.1-1.9-1.5-2.7-1.5-2.7L63.8,113.9z"/>
				<g>
					<path fill="#B8A5CB" d="M128.9,42c-0.3-1.6-13.1-4-21.8,2.9c-8.7,6.9-11.4,20.2-11.4,20.2s6.3-1.9,16.8-6.9
						C119.6,54.8,129.2,43.6,128.9,42"/>
					<path fill="#F5B4D1" d="M110.3,47.4c6.8-4,16.4-4.5,16.4-4.4c0.3,1.5-8.9,11.3-15.5,14.5c-6,2.9-10.5,4.6-13.1,5.5
						C99.1,59.1,102,52.2,110.3,47.4"/>
				</g>
				<path fill="#B8A5CB" d="M104.4,53.8c-0.5-10.6-6.9-21.1-17.2-24.6C75.7,25.3,62.3,31,57.8,42.4c-1,2.5-1.5,5.2-1.5,7.9
					c0,4.9,1.6,9.4,4.4,13.1c2.9,4.2,6.9,7.2,11.2,9.3c-1.1,5.3-3.1,13.7-3.1,13.7l5.5,6.4l1.9-1.8c-0.6-6.4-0.5-10.4,0.4-16.5
					c8.2,2.7,16.3,2.6,18.9,1.2C104.3,71.4,104.9,64.3,104.4,53.8z"/>
				<path fill="#B8A5CB" d="M116.4,81.2c0.3-2.4-14.2,4.2-14.2,4.2s6.6-6.4,5.2-8.1c-1.3-1.7-7.3,2.4-8.5,8.8
					c-1-2.3-2.7-5.8-3.7-5.2c-1.9,1.1,0.3,7.4,3.5,8.9c-1.3,2.8-3.9,7.2-8.1,8.1c-6.3,1.4-8.9-2.7-8.9-2.7l-1.8,1.9
					c0,0,3.6,3.9,11.3,3.9c9.7,0,11.7-11.6,11.7-11.6s9.8,2,11,0.3c1.2-1.7-10.6-2.2-10.6-2.2S116,84.9,116.4,81.2"/>
				<path fill="#F5B4D1" d="M93.7,96.5l1.7,3.6c0,0-3.3,2.3-9,0.8C80,99.3,75.5,94,75.5,94l0.6-2.8c0,0,6.4,5.4,11.3,6
					C91.6,97.8,93.7,96.5,93.7,96.5z"/>
				<path fill="#4FC7F3" d="M68.4,88.4L62,116.3c0,0,8.9,4.7,18.3,3.6c4.5-0.6,4.9-0.7,4.9-0.7s-6.8-11.2-9-27.9c0,0-0.9,3-2.2,2.6
					C72,93.3,69.3,89.2,68.4,88.4"/>
				<g>
					<path fill="#F5B4D1" d="M76.2,91.1l-1.9,1.8l-5.5-6.4l-0.7,3.2l6.6,6.3l1.8-2.5C76.6,93.4,76.2,91.2,76.2,91.1z"/>
				</g>
				<path fill="#F5B4D1" d="M73.8,117.3c-5.6-0.5-9.3-2-11.3-3.2l-0.8,2.8c0,0,12.1,5.4,23.5,2.2c0,0-0.7-1.5-1.3-2.5
					C81.3,117.4,78.5,117.7,73.8,117.3z"/>
				<path fill="#B8A5CB" d="M63.5,94.3c0,0-11.1,0.4-13.4,7.1c-1.4,4,7.3,13.4,7.3,13.4s-7.7-1.5-7.7,1.1c0,2.6,6.9,0.8,6.9,0.8
					s-7.8,5.5-5.9,7.1c1.9,1.6,8-6.1,8-6.1s-3.2,5.3-1,6c2.1,0.7,5.9-7.2,4.2-9.9c-1.8-2.8-4.4-4.9-6.3-7.6
					c-5.4-7.7,6.9-11.1,6.9-11.1L63.5,94.3z"/>
				<path fill="#F5B4D1" d="M52.1,107.8l3.5-1.6c0,0-2-3.3-0.3-6.4c1.7-3,12.4-6.1,12.4-6.1s0.7-0.6,0.8-1.8
					c0.1-1.2-0.4-2.3-0.4-2.3S54.2,91.2,50,98C47.7,101.6,52.1,107.8,52.1,107.8z"/>
				<path fill="#61449A" d="M79.8,67.5c0,0,0.1,0.1,0.4,0.4c0.2,0.2,0.6,0.5,1,0.8c2.7,1.9,6.1,1.3,8.9-0.1c0,0-0.4,0.7-1.4,1.3
					c-2.1,1.5-5.2,1.7-7.3,0c-0.3-0.2-0.5-0.4-0.7-0.7c-0.4-0.4-0.6-0.9-0.8-1.2C79.8,67.7,79.8,67.5,79.8,67.5"/>
				<path fill="#61449A" d="M80.8,67.3c0.1,0.5-0.2,1-0.6,1.1c-0.5,0.1-1-0.2-1.1-0.6c-0.1-0.5,0.2-1,0.6-1.1
					C80.2,66.5,80.7,66.8,80.8,67.3"/>
				<path fill="#61449A" d="M99.3,66.5c-0.1,0.3,0.1,0.6,0.3,0.6c0.3,0.1,0.6-0.1,0.6-0.3c0.1-0.3-0.1-0.6-0.3-0.6
					C99.6,66.1,99.3,66.2,99.3,66.5"/>
				<path fill="#61449A" d="M95.5,67.6c-0.1,0.3,0.1,0.6,0.3,0.6c0.3,0.1,0.6-0.1,0.6-0.3c0.1-0.3-0.1-0.6-0.3-0.6
					C95.8,67.1,95.6,67.3,95.5,67.6"/>
				<path fill="#61449A" d="M97.9,69.6c-0.1,0.3,0.1,0.6,0.3,0.6c0.3,0.1,0.6-0.1,0.6-0.3c0.1-0.3-0.1-0.6-0.3-0.6
					C98.3,69.2,98,69.3,97.9,69.6"/>
				<path fill="#61449A" d="M74.3,68.5c-0.1-0.3,0.1-0.5,0.4-0.6c0.3-0.1,0.5,0.1,0.6,0.4c0.1,0.3-0.1,0.5-0.4,0.6
					C74.7,69,74.4,68.8,74.3,68.5"/>
				<path fill="#61449A" d="M70.7,67.3c-0.1-0.3,0.1-0.5,0.4-0.6c0.3-0.1,0.5,0.1,0.6,0.4c0.1,0.3-0.1,0.5-0.4,0.6
					C71,67.7,70.8,67.5,70.7,67.3"/>
				<path fill="#61449A" d="M73.2,65.4c-0.1-0.3,0.1-0.5,0.4-0.6c0.3-0.1,0.5,0.1,0.6,0.4c0.1,0.3-0.1,0.5-0.4,0.6
					C73.5,65.9,73.3,65.7,73.2,65.4"/>
				<g>
					<path fill="#3B1026" d="M65.3,47.7c0,0,0.2,0.4,0.7,1c1.4,1.6,3.4,2.6,5.6,2.7c0,0.4-0.1,0.8-0.1,1.2c0,0.1-1.8-0.5-1.9-0.6
						c-1.5-0.7-2.8-1.8-3.7-3.2C65.5,48.1,65.3,47.7,65.3,47.7"/>
					<path fill="#3B1026" d="M66.7,43.5c0,0,0.1,0.5,0.4,1.3c0.3,0.7,0.9,1.6,1.6,2.4c0.4,0.4,0.7,0.7,1.1,1.1
						c0.4,0.3,0.7,0.6,1.1,0.8c0.3,0.2,0.6,0.4,0.8,0.5c0.2,0.1,0.3,0.2,0.3,0.2l-0.6,1c0,0-0.1-0.1-0.3-0.2
						c-0.2-0.2-0.5-0.4-0.8-0.7c-0.3-0.3-0.7-0.6-1-1c-0.3-0.4-0.7-0.8-1-1.3c-0.6-0.9-1-1.9-1.3-2.7C66.7,44.1,66.7,43.5,66.7,43.5
						"/>
					<path fill="#3B1026" d="M69.2,41.1c0,0-0.1,0.5,0.1,1.3c0.3,1.9,1.4,3.6,2.6,5.1c0.3,0.3,0.5,0.5,0.6,0.7
						c0.2,0.2,0.2,0.2,0.2,0.2l-0.9,0.8c0,0-0.1-0.1-0.2-0.3c-0.1-0.2-0.3-0.5-0.6-0.8c-1.1-1.7-1.9-3.6-2-5.6
						C69.1,41.6,69.2,41.1,69.2,41.1"/>
					<path fill="#FFFFFF" d="M85.5,58.3c0,0-3.5,5.9-10,4.6c-5.9-1.1-6.8-11.4-6.8-11.4s6.8-6.9,10.5-6C87,47.2,85.5,58.3,85.5,58.3
						"/>
					<path fill="#0691A1" d="M81.2,54.6c0.4,3.3-1.6,6.2-4.3,6.6c-2.8,0.3-5.3-2.1-5.7-5.4c-0.4-3.3,1.6-6.2,4.3-6.6
						C78.3,48.9,80.8,51.3,81.2,54.6"/>
					<path fill="#3B1026" d="M79.2,54.8c0.2,2-0.9,3.8-2.6,4c-1.7,0.2-3.2-1.3-3.4-3.3c-0.2-2,0.9-3.8,2.6-4
						C77.5,51.3,79,52.8,79.2,54.8"/>
					<path fill="#61449A" d="M68.7,51.4c0,0,0.2-0.4,0.7-1c0.5-0.6,1.2-1.5,2.2-2.4c0.5-0.5,1-1,1.7-1.4c0.6-0.5,1.3-0.9,2.2-1.3
						c0.8-0.3,1.7-0.6,2.7-0.6c1.9-0.1,3.8,0.9,5.1,2.3c0.7,0.7,1.2,1.5,1.5,2.2c0.8,1.6,1,3.2,1.1,4.5c0.1,1.4,0,2.5-0.1,3.3
						c-0.1,0.8-0.2,1.2-0.2,1.2s0-0.4,0-1.2c0-0.8-0.1-1.9-0.4-3.2c-0.7-3.5-2.9-8-7.1-8c-0.8,0-1.6,0.2-2.3,0.4
						c-1.5,0.5-2.7,1.4-3.8,2.2c-1,0.8-1.9,1.5-2.4,2.1C69,51.1,68.7,51.4,68.7,51.4"/>
					<path fill="#3B1026" d="M108.9,48.2c0,0-0.1,0.5-0.5,1.1c-0.6,1.1-1.5,2-2.5,2.8c-0.8,0.6-1.9,1.2-2.9,1.3l-0.2-1.2
						c0,0,0.4,0,1.1-0.2c1.7-0.4,3.3-1.4,4.3-2.8C108.7,48.7,108.9,48.2,108.9,48.2"/>
					<path fill="#3B1026" d="M107.3,44.1c0,0,0,0.5-0.2,1.3c-0.2,0.8-0.6,1.8-1.1,2.8c-0.7,1.2-1.6,2.2-2.6,3.1
						c-0.2,0.2-0.3,0.2-0.3,0.3l-0.7-1c0,0,0.1-0.1,0.3-0.2c1.9-1.2,3.5-2.9,4.3-5C107.3,44.7,107.3,44.1,107.3,44.1"/>
					<path fill="#3B1026" d="M104.4,42.3c0,0,0.2,0.5,0.2,1.3c0,2.4-1,4.7-2.3,6.6c-0.1,0.2-0.2,0.3-0.2,0.3l-0.9-0.8
						c0,0,0.1-0.1,0.2-0.2c1.5-1.6,2.7-3.7,3-5.9C104.5,42.9,104.4,42.3,104.4,42.3"/>
					<path fill="#FFFFFF" d="M103.6,52c-2.1-2.9-6.5-5.1-8.9-4.5c-7.3,1.9-5.4,12.4-5.4,12.4s5,4.8,9.7,3.4c2.2-0.7,4-2.1,4.6-4.1
						C104.1,57.2,104.4,54.5,103.6,52"/>
					<path fill="#0691A1" d="M91.9,55.7c-0.2,3.2,1.8,5.8,4.4,6c2.6,0.2,4.9-2.2,5.1-5.4c0.2-3.2-1.8-5.8-4.4-6
						C94.4,50.2,92.1,52.6,91.9,55.7"/>
					<path fill="#3B1026" d="M93.8,55.9c-0.1,1.9,1.1,3.5,2.7,3.7c1.6,0.1,3-1.4,3.1-3.3c0.1-1.9-1.1-3.5-2.7-3.7
						C95.3,52.5,93.9,53.9,93.8,55.9"/>
					<path fill="#61449A" d="M103.6,52c0,0-0.3-0.3-0.8-0.8c-0.5-0.5-1.3-1.1-2.2-1.8c-2.3-1.5-5.1-2.2-7.5-0.6
						c-0.6,0.4-1.2,0.9-1.6,1.5c-0.4,0.6-0.8,1.2-1.1,1.8c-0.6,1.3-0.8,2.6-1,3.8c-0.1,1.2-0.2,2.1-0.2,2.8c0,0.7,0,1.1,0,1.1
						s-0.1-0.4-0.2-1.1c-0.1-0.7-0.2-1.7-0.2-2.9c0-1.2,0.2-2.6,0.7-4.1c0.3-0.7,0.6-1.5,1.1-2.1c0.5-0.7,1.1-1.3,1.8-1.7
						c2.2-1.4,4.7-1.4,6.9-0.1c0.6,0.4,1.2,0.8,1.6,1.1c0.9,0.8,1.6,1.6,2,2.1C103.4,51.7,103.6,52,103.6,52"/>
					<path fill="#FFFFFF" d="M75.7,57.6c0.1,0.8-0.3,1.5-1,1.6c-0.7,0.1-1.3-0.5-1.4-1.3c-0.1-0.8,0.3-1.5,1-1.6
						C75,56.2,75.6,56.8,75.7,57.6"/>
					<path fill="#FFFFFF" d="M100.1,52.4c0.4,1.2,0.5,2.7-0.5,3c-1,0.3-2.4-0.9-2.8-2c-0.4-1.2-0.7-2.6,0.3-2.9
						C98.1,50.3,99.7,51.3,100.1,52.4"/>
					<path fill="#FFFFFF" d="M96.2,58.7c0.1,0.8-0.3,1.5-1,1.6c-0.7,0.1-1.3-0.5-1.4-1.3c-0.1-0.8,0.3-1.5,1-1.6
						C95.4,57.3,96,57.9,96.2,58.7"/>
					<path fill="#FFFFFF" d="M79.9,51.6c0.4,1.2,0.5,2.7-0.5,3c-1,0.3-2.4-0.9-2.8-2c-0.4-1.2-0.7-2.6,0.3-2.9
						C77.9,49.5,79.5,50.5,79.9,51.6"/>
				</g>
				<path fill="#3B1026" d="M73.4,42.3c0-0.5,2.6-2.7,5.4-2.5c2.8,0.2,3.6,1.7,3.4,2c-0.3,0.3-1.4-0.5-3.5-0.6
					C75.7,41,73.4,42.7,73.4,42.3"/>
				<path fill="#3B1026" d="M100.6,43.2c0-0.5-2.7-2.6-5.5-2.3c-2.7,0.3-3.6,1.9-3.3,2.2c0.3,0.2,1.4-0.6,3.4-0.8
					C98.3,42.1,100.6,43.7,100.6,43.2"/>
				<path fill="#B969A1" d="M100.6,30.2c-10.1-14.3-32.1-2.7-36.9-5.5c-3.7-2.2-1.1-5.3-1.1-5.3s-8.2-1-6.8,7.4
					c0.2,1.2,0.9,2.2,1.5,3c-5.3,3.6-5.9,10.4-6,11.4c-0.6,6.8,5.7,18.1,7.4,18.5c0.1,0,0.1,0,0.2,0c0.5-0.7,0.7-0.5,1.2-1.4
					c-0.2,1-0.6,4.6,4.2,5.7c0,0,1.6,0.5,3-0.5c1.6-1.1,1.3-3.8,1.3-3.8c0-5.1-3.4-1-3.4-1c2.5-0.7,1.3,1.3,1.3,1.3
					c-0.4,0.4-0.9,0.6-1.7,0.6c-0.1,0-0.2-0.1-0.3-0.1c-0.7-0.5-2.9-2.6-1.2-7.7c1.8-3.6,1.9-7,1.3-9.9l0,0c0,0,0.2-10.7,16.6-5.5
					l0,0c3.8,1.8,7.4,3.7,7.4,3.7s8.7-3,10.9-2.3c0.5,0.9,1,1.7,1.5,2.6C101.6,40.2,104.2,35.3,100.6,30.2z"/>
				<path fill="#7D1A55" d="M74.4,33.1c0,0,1-0.1,2.6,0.1c4.3,0.5,9,2.9,11,6.9c0.2,0.4,0.3,0.7,0.3,0.7s-0.1-0.2-0.4-0.6
					c-2.9-3.4-6.7-5.3-10.9-6.5C75.4,33.3,74.4,33.1,74.4,33.1"/>
				<path fill="#7D1A55" d="M77.4,27.1c0,0,0.3,0,0.8,0c0.5,0,1.3,0.2,2.1,0.5c0.4,0.1,0.9,0.3,1.4,0.6c4.4,2.3,7.5,7,8.1,11.9
					c0,0-0.4-1.1-1.2-2.7c-1.6-3.4-4-6.6-7.3-8.6c-0.4-0.3-0.8-0.5-1.2-0.7c-0.8-0.4-1.5-0.6-2-0.8C77.7,27.1,77.4,27.1,77.4,27.1"
					/>
				<path fill="#7D1A55" d="M88.3,23.7c0,0,0.3,0.1,0.7,0.3c0.4,0.2,1.1,0.5,1.7,1c0.7,0.5,1.4,1.2,2,2c0.6,0.9,1.1,1.9,1.3,3
					c0.6,2.6,0.2,5.5-0.5,8c-0.1,0.5-0.2,0.7-0.2,0.7s0.1-0.3,0.1-0.7c0.4-2.5,0.7-5.4,0.1-7.9c-0.2-1-0.6-2-1.2-2.9
					c-0.5-0.8-1.2-1.5-1.8-2.1C90,24.7,89.4,24.3,89,24C88.6,23.8,88.3,23.7,88.3,23.7"/>
				<path fill="#7D1A55" d="M51.6,36.8c3.5-1.4,7.8,0.8,9.4,4c1,2,1.5,4.2,1.7,6.3l0.2,1.5l-1-1.2c-1.9-2.4-4.6-4.2-7.6-5
					c-0.5-0.1-1-0.2-1.5-0.2c-0.3,0-0.5,0-0.8,0c-0.3,0-0.5,0.1-0.8,0.2c0.2-0.2,0.5-0.2,0.7-0.3c0.3-0.1,0.5-0.1,0.8-0.1
					c3.3-0.2,6.4,1.5,8.7,3.7c0.4,0.4,0.8,0.8,1.1,1.2l-0.8,0.3c-0.1-0.7-0.2-1.4-0.4-2.1c-0.1-0.7-0.3-1.4-0.5-2
					c-0.7-2.2-1.6-4.1-3.7-5.2c-1.1-0.6-2.3-1-3.5-1.2c-0.4,0-0.7-0.1-1.1,0C52.3,36.7,51.9,36.7,51.6,36.8"/>
				<path fill="#4FC7F3" d="M73.7,29.2c-12.3,4.3-19.9,17.9-19.9,17.9l1.7,2c0,0,8.6-11.7,18.8-13.9c19.2-4.2,25.8,3.1,26.9,6.8
					c0.8-3.8,2.1-5.1,0.7-9.3c-0.6-1.7-1.5-3.1-2.4-4C93.8,25.9,83.6,25.8,73.7,29.2z"/>
				<g>
					<path fill="#B8A5CB" d="M26.5,40.6c0.3-1.8,11.3-4.3,22.7,2.9c9.7,6.1,12.5,19.6,12.5,19.6s-6.7-1.6-17.8-6.2
						C36.3,53.7,26.2,42.3,26.5,40.6"/>
					<path fill="#F5B4D1" d="M46.2,46.8c-6.7-3.7-14.2-5.2-17.9-5.6c-0.2,0.1,6.3,9.4,15.5,14c6.8,3.4,11.5,4.7,14.1,5.6
						C57.5,57.5,54.4,51.3,46.2,46.8"/>
				</g>
			</g>
		</g>
	</g>
</g>
</svg>
