<svg version="1.1" xmlns="http://www.w3.org/2000/svg" xmlns:xlink="http://www.w3.org/1999/xlink" x="0px" y="0px" viewBox="0 0 150 135" enable-background="new 0 0 150 135" xml:space="preserve" width="150" height="135" preserveAspectRatio="none"><g id="BG" /><g id="PB1" /><g id="PB2" /><g id="PB3" /><g id="Kraken" /><g id="Fiona" /><g id="Clod" /><g id="Announcer" /><g id="R_x26_G" /><g id="Q" /><g id="Rote" /><g id="Grok" /><g id="Locked_Blocks" /><g id="Locks" /><g id="Layer_15"><g><polygon opacity="0.3" fill="#221F1F" points="14.6,35.4 18.5,104.2 142,105.1 142,35.4 		" /><polygon fill="#FCF4A4" points="12,33.3 15.9,102.1 139.4,103.1 139.4,33.3 		" /><g><defs><path id="SVGID_00000136398819069885635550000010362019326642315917_" d="M12,33.3l3.9,68.9l123.6,1V33.3
					C99.6,0.8,56.9,4.5,12,33.3z" /></defs><clipPath id="SVGID_00000118387278658947941780000004180514732471327375_"><use xlink:href="#SVGID_00000136398819069885635550000010362019326642315917_" overflow="visible" /></clipPath><g clip-path="url(#SVGID_00000118387278658947941780000004180514732471327375_)"><path fill="#72B1C5" d="M97,65.6c0.2-0.2,7.5-3.9,6.1,0.7c0,0,10.5-1.6,6.2,3.5c0,0,3.3,1.6,3.8,3.3c0.6,2.3-1,3.2-4.5,1.7
					c0,0,2.2,2.6,1.4,4.1c-0.5,1-2.9,0.5-4.3-0.6c0,0,2.2,3.3-2.4,3.1c-4.6-0.2-8.5,0.8-8.3,0.7c0.2-0.1-1.8-12.8-1.6-13
					C93.6,68.9,97,65.6,97,65.6z" /><path fill="#04527B" d="M95,63.2c0,0,1.1-0.2,1.4,0.8c0,0,1,0,1.5,1.4c0.4,1.4,0,7.7-1,6.1c-0.2-0.3-2.2-3.7-2.2-3.7L95,63.2z" /><g><path fill="#0067AB" d="M52.7,50.3c0,0-3.2,1.8-2.5,4.1c0.5,1.4,1.5,1,1.5,1S51,57,52.1,59c1.2,2,4.2-0.2,4.2-0.2
						s1.9-4.9,1.9-5.2c0-0.3-0.9-3.7-0.9-3.7l-1.4-1L52.7,50.3z" /><g><path fill="#FFC640" d="M48.5,32c1.5,2.5,1.6,5.1,0.4,5.8c-1.3,0.7-3.4-0.7-4.9-3.2c-1.5-2.5-1.6-5.1-0.4-5.8
							C44.8,28.1,47,29.5,48.5,32z" /><path fill="#FFC640" d="M58,50.4c0,0-1.2-9-5.7-15.2c-4.4-6.2-7.4-6.5-7.4-6.5l3.3,9.3c0,0,1.2-0.5,2.4,0.3
							c5.1,3.4,5.7,12.3,5.7,12.3L58,50.4z" /><path fill="#F4833C" d="M48,32.7c0.9,1.8,0.6,4.1,0,4.5c-0.7,0.4-2-0.7-3-2.3c-1-1.7-1.5-4.1-0.8-4.5
							C44.9,30,46.8,30.2,48,32.7z" /></g><path fill="#FFC640" d="M139.9,96c-7.5-5.3-14-3.2-16-2.5c-17.8,5.8-5.1,22.5,6,36.9c0.9,1.2,5.1,6.5,7.4,6.3
						C139.9,136.4,153,105.2,139.9,96z" /><path fill="#FFEC81" d="M137.5,136.6c0.1,0,1-0.8,1.3-1.1c1-1.5,1.7-3.3,2.3-4.9c0.3-0.7,1.2-2.2,1.1-2.9
						c-0.1-0.5-0.2-1.1-0.3-1.6c-2.1-9.4-10.5-12-10.5-12s-8.8-2.6-13.8-1.7c2.2,4.5,5.2,8.7,8.2,12.8c1.7,2.2,3.2,4.6,5,6.7
						c0.9,1.1,1.9,2.1,3,3.1C134.7,135.6,136.1,137,137.5,136.6z" /><path fill="#FFC640" d="M137.1,128.4c2.1-1,3.3-3.1,4-4.9c-0.1-0.3-0.2-0.6-0.3-0.8c-0.6,1.9-1.7,4.3-4,5.1
						c-3.3,1.3-7.2,0.3-9.2-0.4c0.1,0.1,0.1,0.1,0.2,0.2c1.4,0.6,3.6,1.4,6,1.6C134.7,129.2,135.8,129,137.1,128.4z" /><path fill="#FFC640" d="M123.7,122.1c3.6-0.1,9.9-0.7,12.1-3.3c0.4-0.5,0.7-1,0.9-1.6c-0.3-0.3-0.7-0.6-1-0.8
						c-0.2,0.5-0.5,0.9-0.8,1.4c-2,2.5-8,3.6-11.5,4.1C123.6,122,123.6,122,123.7,122.1z" /><path fill="#FFC640" d="M122.3,93.5c0,0-0.5-3.7-8.3-8.9c-7.8-5.2-15.7-4.2-15.7-4.2s-5.7,0.5-11.8,9.9
						c-7.2,11.1-19.5,64.2,8.8,64.2c9,0,9.8,0,11.9,0c8.9,0,20.8-24.3,20.8-24.3s3.2-10.9,2.6-17.3
						C129.3,99.7,122.3,93.5,122.3,93.5z" /><path fill="#F4833C" d="M120.3,90.5c0.1,0.1,0.2,0.1,0.3,0.2c0.2,0.1,0.4,0.4,0.8,0.7c3.6,3.4,5.2,8.4,5.1,13.3
						c-0.1,2.7-0.7,5.3-1.5,7.9c-0.4,1.3-0.9,2.6-1.4,3.8c-0.4,1.1-1,2.1-1.6,3.1c0,0.1-0.1,0.1-0.1,0.2c0-0.8,0.4-1.8,0.6-2.6
						c0.2-0.9,0.4-1.8,0.6-2.8c0.4-1.9,0.7-3.8,1-5.7c0.3-2,0.5-4.1,0.4-6.1C124.4,98.2,122.8,93.8,120.3,90.5z" /><path fill="#F4833C" d="M129.6,106.1c0,0,0.2,0.7,0.5,1.9c1.7,8.8,0.5,18.1-3.2,26.2c-2.4,5.1-5.7,9.8-9.7,13.7
						c0.4-0.5,0.7-1.1,1-1.6c0.6-0.9,1.3-1.8,1.9-2.8c1.2-1.9,2.3-3.8,3.3-5.8c2-4,3.6-8.2,4.7-12.5c0.8-2.9,1.1-6,1.4-9
						c0.4-3.2,0.5-6.4,0.3-9.6C129.7,106.3,129.6,106.1,129.6,106.1z" /><path fill="#FFC640" d="M99.2,115.3c1.1-14,2-27.3,0.9-33.4c-0.1-0.4-0.2-0.9-0.2-1.3c-0.2,0-0.3,0-0.3,0s-1.3-6.3-3.1-9.9
						c-7-14.1-23.5-23.2-35.5-21.9s-6.8,14.3-6.8,14.3s-25.6-13-32.9,50.1c-4.6,39.9,27.7,41.5,27.7,41.5s49.6-0.1,51.2-0.1
						c7.4,0,11.2-6.6,9-17.3C106.9,126.6,98.6,126.7,99.2,115.3z" /><path fill="#FFEC81" d="M101,154.2c-4.1-1.9-8.2-4.4-11.5-7.9c-10.4-11.2-5.2-73.6-5.2-73.6s-4.3,3-8.3,0.8
						c-3.9-2.1-4.1-3.3-5.4-5.3c-0.2-0.4-4.5-2.2-4.5-2.2l-3.1-1.4c0,0-2.1,7-7.5,7.9c-5.4,0.9-8.1-3.5-8.1-3.5s-18.6,34-16.2,57.2
						c1,10.3,2.7,18,4.2,23.3c7,4.4,14.1,4.8,14.1,4.8S84,154.2,101,154.2z" /><path fill="#FFC640" d="M61.5,97c-23.8,0-31.3-2.7-31.6-2.8l0.2-0.6c0.1,0,7.7,2.8,31.3,2.8c24.5,0,29.3-2.5,29.4-2.5l0.3,0.6
						C91,94.5,86.3,97,61.5,97z" /><path fill="#F4833C" d="M95,68.7c0,0,0.1,0.1,0.3,0.4c2.1,2.9,3.5,6.2,4.4,9.6c0.7,2.7,1.1,5.5,1.2,8.4c0,0.7,0.1,1.5,0.1,2.2
						c0.1,8.7-0.3,17.5-1.9,26c0,0,0-0.2,0-0.5c0-0.3,0-0.9,0-1.5c0-4.3,0-8.7,0-13c0.1-8.8,0.7-18.1-2-26.6c-0.5-1.5-1-3-1.7-4.5
						C95.1,68.8,95,68.7,95,68.7z" /><path fill="#FFC640" d="M58.4,109.4c-18.6,0-28.7-3.7-28.8-3.7l0.2-0.6c0.2,0.1,20.5,7.4,56.4,1.2l0.1,0.6
						C75.6,108.8,66.2,109.4,58.4,109.4z" /><path fill="#FFC640" d="M56.2,122.7c-5.2,0-10.5-0.3-15.6-1.1c-9.5-1.4-13.7-3.8-13.9-3.9l0.3-0.6c0,0,4.3,2.4,13.7,3.8
						c15.8,2.4,33.6,0.3,45.7-1.8l0.1,0.6C78.3,121.3,67.3,122.7,56.2,122.7z" /><path fill="#FFC640" d="M54.5,137.5c-4.5,0-8.4-0.3-11.7-0.7c-10.2-1.2-16.2-3.6-16.3-3.6l0.2-0.6c0.1,0,6,2.4,16.1,3.6
						c9.4,1.1,24.4,1.4,42.6-3.6l0.2,0.6C73.7,136.5,63.1,137.5,54.5,137.5z" /><path fill="#E06E8E" d="M26.9,80.9c0,0-1,4.9,0.1,7.3c1.1,2.3,4.2,2.1,5.3,5.6c1.5,4.8,2.9,10.7,2.9,10.7h36.4
						c0,0,8.7-7.3,15.1-12.1c6.4-4.8,12.6-9.1,12.6-9.1l0.2,4.1c0,0-17,2.5-14.6,31.2c0.1,1.1,6.8,0.9,7,2.1
						c0.3,2.3,11.6,0.8,12.5,3.1c2.8,7.4,7.5,9.7,7.5,9.7s-6.7,5.3-12.3,5c-3.4-0.2-7.1-4-11.4-4c-3.5,0-4.9,4.5-11.8,4.4
						c-4.8-0.1-11.3-4.4-19.7-4.4c-4.2,0-8.6,4.7-17,4.9c0,0-6.8-0.9-10.2-4.2c-7.1-2.9-18,0.8-18,0.8s4.9-5.4,7-13.2
						c0.7-2.4,2.6-8.4,3-11.9c0,0,3.3,3.4,5.2,1.3c1.8-2,1.8,2.3,2-0.4c0.5-5.5-0.3-11.7-1.4-16.6c-1.3-5.6-2.1-3.5-2.1-3.5
						c0.4-1.9,1.1-4,1.1-4L26.9,80.9z" /><path fill="#E06E8E" d="M82.3,114.5c0,0,5,1,9.7-0.2s7.7-3.9,7.7-3.9l0.1,1c0-0.1,0.8,4.1,4.2,11c4.9,10.1,9.5,12.2,6.7,11.9
						c-8.6-1.1-30.4-18-27.9-17.3L82.3,114.5z" /><g><path fill="#FFC640" d="M94.8,101c-1.7,0.8-14.8,3.6-17,5.1c-2.1,1.5,0.9,5,0.9,5s5.5,9.9,11.4,8.2c5.9-1.7,7.4-14.5,7.4-14.5
							L94.8,101z" /><path fill="#F4833C" d="M78.7,111.1c0,0,0.3,0.4,0.8,1.1c0.5,0.7,1.3,1.7,2.4,2.8c0.5,0.6,1.1,1.1,1.7,1.7
							c0.6,0.6,1.3,1.1,2.1,1.5c0.8,0.4,1.6,0.8,2.5,0.9c0.9,0.1,1.7-0.1,2.5-0.5c0.8-0.4,1.4-1.1,2-1.8c0.6-0.7,1.1-1.6,1.5-2.4
							c0.4-0.8,0.8-1.6,1.1-2.5c0.3-0.8,0.6-1.6,0.8-2.3c0.5-1.4,0.8-2.7,1.1-3.5c0.2-0.9,0.4-1.4,0.4-1.4s0,0.5,0,1.4
							c-0.1,0.9-0.2,2.2-0.5,3.7c-0.1,0.8-0.3,1.6-0.6,2.4c-0.2,0.9-0.5,1.8-0.9,2.7c-0.4,0.9-0.9,1.8-1.5,2.7
							c-0.6,0.9-1.4,1.7-2.5,2.3l-0.4,0.2l-0.1,0.1l-0.1,0l-0.2,0.1l-0.2,0.1l-0.1,0c-0.1,0,0,0-0.1,0l0,0l0,0l-0.1,0l-0.4,0.1
							c-0.6,0.1-1.2,0.1-1.8,0c-0.3,0-0.6-0.1-0.8-0.2c-0.3-0.1-0.5-0.2-0.8-0.3c-0.5-0.2-1-0.5-1.4-0.7c-0.9-0.6-1.6-1.2-2.2-1.9
							c-0.6-0.7-1.2-1.3-1.6-2c-0.9-1.3-1.5-2.4-1.9-3.2c-0.2-0.4-0.3-0.7-0.4-1C78.8,111.3,78.7,111.1,78.7,111.1z" /><path fill="#FFC640" d="M79.4,110.9c-1.7,0.3-4.9,1.2-7,2c-0.3,0.1-0.7,0.2-0.9-0.1c-0.1-0.1-0.1-0.2-0.1-0.4
							c-0.3-1.9,0.7-3.6,2.3-4.5c-0.9-0.1-1.9-0.1-2.8-0.2c-0.2,0-0.4,0-0.5-0.2c-0.2-0.3,0-0.7,0.2-0.9c1.1-1.1,2.6-1.7,4.2-1.8
							c1.6-0.1,3.1,0.2,4.6,0.8V110.9z" /></g><path fill="#FFC640" d="M27.3,95.1c0,0,3.3,5.7,5,6.6c1.7,0.9,5.4,16,1.4,15.8c-4.7-0.2-10.1-7.9-8.9-19.3
						C25.6,97.2,26.5,96.1,27.3,95.1z" /><path fill="#F4833C" d="M45,105c0,0-0.1,0.5-0.4,1.3c-0.3,0.8-0.7,2-1.4,3.4c-0.3,0.7-0.7,1.4-1.2,2.2
						c-0.4,0.8-0.9,1.5-1.5,2.3c-0.6,0.8-1.2,1.5-2,2.2c-0.8,0.7-1.7,1.3-2.7,1.8c-0.2,0.1-0.5,0.2-0.8,0.3c-0.1,0-0.3,0.1-0.4,0.1
						l-0.2,0l-0.1,0l-0.1,0l0,0l0,0l-0.1,0l-0.4,0c-0.1,0-0.3,0-0.5,0c-0.3,0-0.6-0.1-0.9-0.1c-1.1-0.2-2.1-0.8-2.9-1.5
						c-0.8-0.7-1.3-1.5-1.8-2.2c-0.5-0.8-0.8-1.5-1.1-2.2c-0.3-0.7-0.5-1.4-0.7-2c-0.2-0.6-0.3-1.1-0.4-1.5c-0.1-0.4-0.2-0.8-0.2-1
						c0-0.2,0-0.4,0-0.4s0.2,0.5,0.5,1.3c0.4,0.8,0.9,1.9,1.6,3.2c0.4,0.6,0.8,1.3,1.3,2c0.5,0.7,1.1,1.3,1.7,1.8
						c0.3,0.3,0.7,0.5,1.1,0.7c0.4,0.2,0.8,0.3,1.2,0.4c0.2,0,0.4,0.1,0.6,0c0.1,0,0.2,0,0.3,0l0.4,0l0.1,0l0,0l0,0c0,0-0.1,0,0,0
						l0,0l0.2,0c0.1,0,0.2,0,0.3-0.1c0.2-0.1,0.4-0.1,0.6-0.2c0.8-0.3,1.6-0.9,2.3-1.5c0.7-0.6,1.3-1.3,1.9-2
						c0.6-0.7,1.1-1.4,1.6-2.1c0.5-0.7,0.9-1.3,1.4-2c0.8-1.2,1.5-2.3,1.9-3.1C44.8,105.5,45,105,45,105z" /><g><path fill="#7B448F" d="M19.6,122.7c28,2.1,56.2,2.2,84.3,1C75.9,126.1,47.6,126.1,19.6,122.7L19.6,122.7z" /></g><path fill="#72B1C5" d="M64.2,48.3c0,0-1.9,4.5-2.6,3.7c-0.6-0.7-0.9-2.5-0.9-2.5s-4.1,4.9-5.3,4.1c-1.3-0.9,0.1-3.2,0.1-3.2
						s-3.6,2.2-4.1,0.5c-0.3-1.1,0.5-2.9,2.2-3.6c1.5-0.6,3-0.4,3-0.4s-1.3-1.2,0.6-2.1s8.5,0.9,8.5,0.9L64.2,48.3z" /><g><path fill="#0067AB" d="M61.3,44.8c0.5,1.8,1.4,3.2,2.6,4.6C62.1,48.8,60.9,46.7,61.3,44.8L61.3,44.8z" /></g><path fill="#72B1C5" d="M92,64.6c0,0,0.8,2.8,2.8,4.1c0.8,0.5,1.5-1.2,1-4c-0.5-2.8-2.6-5.7-2.6-5.7s3-2.4-0.8-5.2
						C89.1,51.3,87,51,87,51s-1.8-7.2-8.5-7.7c-2.2-0.2-2.1,1.6-2.1,1.6s-8.8-6.1-14.4-3.6c-3.1,1.4,1.8,10.1,5.9,10.9
						c1.3,0.3,0.5-3,0.5-3s1,2.2,5.9,3.8c3.5,1.1,3.9-0.3,3.9-0.3s1.6,5.3,5.1,6.5c2.2,0.8,2.5-0.4,2.5-0.4S88.1,67.8,92,64.6z" /><g><path fill="#0067AB" d="M89.3,55c1.4,1,2.8,2.5,2.7,4.3c-0.2,1.9-1.7,1.1-2.6,0.3c0,0,0.3-0.3,0.3-0.3c0.4,1,0.4,2.2-0.2,3.1
							c0.4-1.3-0.1-2.6-0.6-3.8c0.8,0.7,2.4,2.3,2.6,0.6C91.6,57.6,90.4,56.2,89.3,55L89.3,55z" /></g><g><path fill="#0067AB" d="M104,69.5c1.8-0.1,4.3,0.6,4.8,2.7c0.1,0.2,0.1,0.4-0.1,0.6c-0.6,0.7-1.4,0.4-2.1,0.3
							c0.3,0,0.7,0,1-0.1c0.8-0.1,0.9-0.5,0.5-1.2C107.3,70.4,105.5,70,104,69.5L104,69.5z" /></g><g><path fill="#FFC640" d="M68.2,23.4c0.6,3.1-0.2,5.8-1.8,6.1c-1.6,0.3-3.3-2-3.8-5.1c-0.6-3.1,0.2-5.8,1.8-6.1
							C65.9,18.1,67.6,20.4,68.2,23.4z" /><g><path fill="#FFC640" d="M70.9,45.4c0,0,2.2-9.3-0.1-17.2c-2.3-7.9-5.2-9.3-5.2-9.3l-0.1,10.7c0,0,1.4-0.1,2.4,1.2
								c4,5.3,1.2,15.2,1.2,15.2L70.9,45.4z" /><path fill="#F4833C" d="M67.5,24c0.3,2.1-0.9,4.5-1.7,4.6c-0.8,0.2-1.8-1.4-2.2-3.5c-0.4-2.1,0-4.7,0.8-4.9
								C65.2,20.1,67.1,21,67.5,24z" /></g></g><g><path fill="#0067AB" d="M55.3,50.9c0.2-1.3,1.4-2.8,2.8-2.8C56.9,48.7,56.2,49.8,55.3,50.9L55.3,50.9z" /></g><ellipse transform="matrix(0.5537 -0.8327 0.8327 0.5537 -7.4755 78.7379)" fill="#72B1C5" cx="69.7" cy="46.3" rx="1.3" ry="4" /><g><g><g><path fill="#400025" d="M58.2,46.7c0,0-0.3,0.5-0.6,1.3c-0.1,0.4-0.3,0.9-0.4,1.4c-0.3,1.6,0,3.2,0.7,4.7
									c0.2,0.4,0.3,0.7,0.4,0.9c0.1,0.1,0.1,0.2,0.1,0.2c0,0.1,0,0.1,0,0.1l-0.6,0.3c0,0,0,0-0.1-0.1c0-0.1-0.1-0.2-0.1-0.3
									c-0.1-0.2-0.3-0.6-0.4-1c-0.5-1.6-0.8-3.3-0.3-5c0.1-0.5,0.3-1,0.5-1.4C57.9,47.1,58.2,46.7,58.2,46.7z" /><path fill="#400025" d="M61.3,45.7c0,0-0.4,0.5-0.8,1.2c-0.2,0.4-0.5,0.8-0.7,1.3c-0.6,1.5-0.5,3.2-0.2,4.8
									c0.1,0.4,0.2,0.8,0.3,1c0,0.1,0.1,0.2,0.1,0.3c0,0.1,0,0.1,0,0.1l-0.6,0.2c0,0,0,0,0-0.1c0-0.1,0-0.2-0.1-0.3
									c-0.1-0.3-0.1-0.6-0.2-1.1c-0.2-1.7-0.2-3.4,0.5-5c0.2-0.5,0.5-0.9,0.8-1.3C60.9,46.1,61.3,45.7,61.3,45.7z" /><path fill="#400025" d="M63.3,47.1c0,0-0.4,0.5-0.8,1.2c-0.2,0.4-0.5,0.8-0.7,1.3c-0.6,1.5-0.5,3.2-0.2,4.8
									c0.1,0.4,0.2,0.8,0.3,1c0,0.1,0.1,0.2,0.1,0.3c0,0.1,0,0.1,0,0.1l-0.6,0.2c0,0,0,0,0-0.1c0-0.1,0-0.2-0.1-0.3
									c-0.1-0.3-0.1-0.6-0.2-1.1C61,54.1,61,53.6,61,53c0-1.2,0.2-2.3,0.7-3.4c0.2-0.5,0.5-0.9,0.8-1.3
									C62.9,47.6,63.3,47.1,63.3,47.1z" /><path fill="#400025" d="M71.1,47.1c0,0-0.3,0.5-0.6,1.3c-0.1,0.4-0.3,0.9-0.4,1.4c-0.3,1.6,0,3.2,0.7,4.7
									c0.2,0.4,0.3,0.7,0.4,0.9c0.1,0.1,0.1,0.2,0.1,0.2c0,0.1,0,0.1,0,0.1l-0.6,0.3c0,0,0,0-0.1-0.1c0-0.1-0.1-0.2-0.1-0.3
									c-0.1-0.2-0.3-0.6-0.4-1c-0.5-1.6-0.8-3.3-0.3-5c0.1-0.5,0.3-1,0.5-1.4C70.8,47.6,71.1,47.1,71.1,47.1z" /><path fill="#400025" d="M74.2,46.2c0,0-0.4,0.5-0.8,1.2c-0.2,0.4-0.5,0.8-0.7,1.3c-0.6,1.5-0.5,3.2-0.2,4.8
									c0.1,0.4,0.2,0.8,0.3,1c0,0.1,0.1,0.2,0.1,0.3c0,0.1,0,0.1,0,0.1l-0.6,0.2c0,0,0,0,0-0.1c0-0.1,0-0.2-0.1-0.3
									c-0.1-0.3-0.1-0.6-0.2-1.1c-0.2-1.7-0.2-3.4,0.5-5c0.2-0.5,0.5-0.9,0.8-1.3C73.8,46.6,74.2,46.2,74.2,46.2z" /><path fill="#400025" d="M76.2,47.6c0,0-0.4,0.5-0.8,1.2c-1.1,1.9-1.3,4-0.9,6.1c0.1,0.4,0.2,0.8,0.3,1
									c0,0.1,0.1,0.2,0.1,0.3c0,0.1,0,0.1,0,0.1l-0.6,0.2c0,0,0,0,0-0.1c0-0.1,0-0.2-0.1-0.3c-0.1-0.3-0.1-0.6-0.2-1.1
									c-0.2-1.7-0.2-3.4,0.5-5c0.2-0.5,0.5-0.9,0.8-1.3C75.8,48,76.2,47.6,76.2,47.6z" /></g><path fill="#FFFFFF" d="M64,58.2c0,2.6-1.7,4.7-3.8,4.7s-3.8-2.1-3.8-4.7c0-2.6,1.7-4.7,3.8-4.7S64,55.6,64,58.2z" /><path fill="#400025" d="M62.6,59.7c0,1.1-0.7,2.1-1.6,2.1s-1.6-0.9-1.6-2.1c0-1.1,0.7-2.1,1.6-2.1S62.6,58.5,62.6,59.7z" /><path fill="#FFFFFF" d="M76.3,58.2c0,2.6-1.7,4.7-3.8,4.7c-2.1,0-3.8-2.1-3.8-4.7c0-2.6,1.7-4.7,3.8-4.7
								C74.6,53.5,76.3,55.6,76.3,58.2z" /><path fill="#400025" d="M74.4,59.7c0,1.1-0.7,2.1-1.6,2.1c-0.9,0-1.6-0.9-1.6-2.1c0-1.1,0.7-2.1,1.6-2.1
								C73.7,57.6,74.4,58.5,74.4,59.7z" /></g></g><g><path fill="#0067AB" d="M77.5,49.1c1.2,0.7,1.9,2.8,0.6,3.8C78.7,51.6,78.1,50.3,77.5,49.1L77.5,49.1z" /></g><g><path fill="#0067AB" d="M85.7,58.9c0.4-1.5,0.1-3.1-1.2-4.1c-0.4-0.3-0.8-0.6-1.3-0.9c0.3,0.1,0.5,0.2,0.8,0.2
							C86,54.9,86.9,57.1,85.7,58.9L85.7,58.9z" /></g><g><path fill="#0067AB" d="M72.4,46.5c-1.5-0.9-3-2-4.8-2.5c-2.1-0.4-0.2,1.7,0.4,2.3c-1.4-0.6-2.8-1.3-4.4-1.4
							c1.3-0.1,2.5,0.3,3.7,0.7c0,0-0.2,0.3-0.2,0.3c-0.4-0.4-0.8-0.9-0.9-1.5C66.5,41.7,71.6,45.6,72.4,46.5L72.4,46.5z" /></g><g><path fill="#0067AB" d="M76.3,44.8c0.4,1.5,1.4,2.5,2.9,3C77.5,48,76,46.4,76.3,44.8L76.3,44.8z" /></g></g><ellipse transform="matrix(0.1057 -0.9944 0.9944 0.1057 8.5287 125.8025)" fill="none" stroke="#231F20" stroke-width="0.8257" stroke-miterlimit="10" cx="74.2" cy="58.2" rx="9.7" ry="8.6" /><ellipse transform="matrix(0.9945 -0.1051 0.1051 0.9945 -5.7976 6.2401)" fill="none" stroke="#231F20" stroke-width="0.8081" stroke-miterlimit="10" cx="56.3" cy="58.1" rx="8.2" ry="9.7" /><line fill="none" stroke="#231F20" stroke-width="0.6419" stroke-miterlimit="10" x1="65.5" y1="59.9" x2="64.7" y2="59.9" /><path fill="#231F20" d="M84.5,58c0,0.5-0.4,0.9-0.9,0.9c-0.5,0-0.9-0.4-0.9-0.9c0-0.5,0.4-0.9,0.9-0.9
					C84.2,57.2,84.5,57.6,84.5,58z" /><path fill="#231F20" d="M47.9,58c0,0.5-0.4,0.9-0.9,0.9c-0.5,0-0.9-0.4-0.9-0.9c0-0.5,0.4-0.9,0.9-0.9
					C47.5,57.2,47.9,57.6,47.9,58z" /><g><path fill="#0067AB" d="M98.5,65.8c1.4,0,3-0.1,4.1,1c0.5,0.5,0.5,1.3,0.2,2c-0.5,0.8-1.6,0.8-2.4,0.7c0,0,0.2-0.4,0.2-0.4
						c0.8,0.7,2.2,2,1.3,3.1c-1.1,0.8-2.4-0.4-3.3-1c0,0,0.2-0.2,0.2-0.2c0.3,1,0.5,2.2,0.3,3.2c0.1-1.1-0.2-2.1-0.5-3.1l-0.2-0.4
						l0.4,0.3c0.7,0.5,2.1,1.5,2.8,0.9c0.3-0.3,0.1-0.9-0.2-1.3c-0.4-0.7-1.2-1.3-1.8-1.8c0.8,0.2,2,0.5,2.7-0.1
						c0.4-0.4,0.5-1.2,0.1-1.7C101.4,66,99.8,65.9,98.5,65.8L98.5,65.8z" /></g><g><g><path fill="#72B1C5" d="M71,68.7c0,0-2-2.7-4.6-3.9c-2.6-1.2-3.6-0.4-3.6-0.4s-2,1.9-1.9,3.9c0.1,2,1.4,5,2.3,5.2
							c0.9,0.2,2.8-0.8,2.8-0.8s0.5,2,1,2.3c0.5,0.3,1.9-0.5,3.2-2.4C71.4,70.6,71,68.7,71,68.7z" /><path fill="#0067AB" d="M67.8,66.7c0,0,0.1,0.1,0.1,0.4c0.1,0.3,0.1,0.6,0.1,1.1c0,1.6-0.5,3.6-1.9,4.6
							c-0.7,0.6-1.6,0.8-2.5,0.8c-0.1,0-0.2,0-0.3,0c-0.1,0-0.1,0-0.1,0s0.1,0,0.4-0.1c1.4-0.3,2.5-1.2,3.2-2.5
							c0.6-1.1,0.9-2.5,0.9-3.8C67.9,66.9,67.8,66.7,67.8,66.7z" /><path fill="#0067AB" d="M68.1,66.7c0,0.2-0.2,0.4-0.4,0.4c-0.2,0-0.4-0.2-0.4-0.4c0-0.2,0.2-0.4,0.4-0.4
							C68,66.4,68.1,66.5,68.1,66.7z" /></g></g><path fill="#E06E8E" d="M101,87.5l3.8-11.4c-1.8-0.4-4.6,3-5.2,3.6c0,0-1.1,1.3-3-0.3c-2.9-2.5-5.3,6.3-6.2,7.7
					c-1.2,1.9-4,3.8-5,3c-2.9-2.2-5.5,0.3-5.5,0.3c-6.3,5.3-8.4,14-8.4,14l22.6-16.1L101,87.5z" /><path fill="#E06E8E" d="M34.5,102.1c0-1.1,0.7-8.5-0.8-12.7c-1-2.9-2.7-2.9-3.3-2.9c0,0-1.6,0.4-1.9-3.5c-0.2-3-0.5-4.3-0.4-4.1
					c0.1,0.3-1.9-1.9-3.1,1.3c-0.9,2.6,1.3,7.8,1.3,7.8L34.5,102.1z" /></g></g></g></g><g id="Layer_16" /></svg>