<svg xmlns="http://www.w3.org/2000/svg" viewBox="0 0 120 120" width="120" height="120" preserveAspectRatio="none"><defs><style>.cls-1{fill:#93c955;}.cls-2{fill:#63b246;}.cls-3{fill:#00a34b;}.cls-4{fill:#008347;}.cls-5{fill:#058d53;}</style></defs><title>Grid_1</title><g id="Layer_3" data-name="Layer 3"><rect class="cls-1" width="120" height="120"/><path class="cls-2" d="M55.28,88.12C53.87,80.44,49.85,59.4,47.54,57c0,0,2.18,19.6,2.09,31.12h5.65Z"/><path class="cls-3" d="M84.75,67S76.5,78.27,73.84,88.11H69.37C71.44,81.82,76.21,70.63,84.75,67Z"/><path class="cls-3" d="M41.33,62.13s9,15.63,11.61,26h4.32C56.41,83.68,52.8,69.11,41.33,62.13Z"/><path class="cls-4" d="M65.59,61.15c-6.72,6.22-8.36,20.39-8.76,27h4A235.53,235.53,0,0,1,65.59,61.15Z"/><path class="cls-2" d="M63.09,66.38c-1.74,4.39-.8,14.54.18,21.74h5.46C66.84,82.14,63.09,66.38,63.09,66.38Z"/><path class="cls-2" d="M33,88.12l.47-26.24s-3.82,15.43-4.26,25.43l.46.81Z"/><path class="cls-3" d="M28.63,88.12l-.47-.81C24.9,81.69,16,67.94,6,65.91c0,0,11.31,12,17.58,22.21Z"/><path class="cls-4" d="M35.19,56.41s0,26.34-1.5,31.71h6C39.51,80.3,38.74,61.81,35.19,56.41Z"/><path class="cls-3" d="M30.64,88.12c.1-8.54-.33-26.07-5.19-34.51,0,0,1.41,21.14,1.06,34.51h4.13Z"/><path class="cls-5" d="M120,120H0V0H120ZM1,119H119V1H1Z"/></g></svg>