<?xml version="1.0" encoding="utf-8"?>
<!-- Generator: Adobe Illustrator 19.2.0, SVG Export Plug-In . SVG Version: 6.00 Build 0)  -->
<svg version="1.1" xmlns="http://www.w3.org/2000/svg" xmlns:xlink="http://www.w3.org/1999/xlink" x="0px" y="0px"
	 viewBox="0 0 80 180" enable-background="new 0 0 80 180" xml:space="preserve" width="80" height="180" preserveAspectRatio="none">
<g id="Rote_Screen_BG">
</g>
<g id="Barrel_and_Bucket__x28_Ground_x29_">
</g>
<g id="Water_Level_1">
</g>
<g id="Bucket_Pour_3_Water_Level_1">
</g>
<g id="Bucket_Pour_4_Water_Level_1">
</g>
<g id="Water_Level_2">
</g>
<g id="Bucket_Pour_3_Water_Level_2">
</g>
<g id="Bucket_Pour_4_Water_Level_2">
</g>
<g id="Water_Level_3">
</g>
<g id="Bucket_Pour_3_Water_Level_3">
</g>
<g id="Bucket_Pour_4_Water_Level_3">
</g>
<g id="Water_Level_4">
</g>
<g id="Bucket_Pour_3_Water_Level_4">
	<g id="Bucket_Pour_4_Water_Level_3_copy">
	</g>
</g>
<g id="Bucket_Pour_4_Water_Level_4">
</g>
<g id="Water_Level_5">
</g>
<g id="Bucket_Pour_3_Water_Level_5">
</g>
<g id="Bucket_Pour_4_Water_Level_5">
</g>
<g id="Water_Level_6">
</g>
<g id="Bucket_Pour_3_Water_Level_6">
</g>
<g id="Bucket_Pour_4_Water_Level_6">
</g>
<g id="Water_Level_7">
</g>
<g id="Bucket_Pour_3_Water_Level_7">
</g>
<g id="Bucket_Pour_4_Water_Level_7">
</g>
<g id="Water_Level_8">
</g>
<g id="Bucket_Pour_3_Water_Level_8">
</g>
<g id="Bucket_Pour_4_Water_Level_8">
</g>
<g id="Water_Level_9">
</g>
<g id="Bucket_Pour_3_Water_Level_9">
</g>
<g id="Bucket_Pour_4_Water_Level_9">
</g>
<g id="Water_Level_10">
</g>
<g id="Bucket_Pour_3_Water_Level_10_1_">
</g>
<g id="Bucket_Pour_4_Water_Level_10">
</g>
<g id="Layer_69">
</g>
<g id="Puddle_Xtra_Large">
</g>
<g id="Puddle_Large">
</g>
<g id="Puddle_Medium">
</g>
<g id="Puddle_Small">
</g>
<g id="Bucket_Pour_0">
</g>
<g id="Bucket_Pour_1">
</g>
<g id="Bucket_Pour_2_Water_Level_8-10">
</g>
<g id="Bucket_Pour_2_Water_Level_1-7">
</g>
<g id="Bucket_Pour_3">
</g>
<g id="Bucket_Pour_4_1_">
</g>
<g id="Bucket_Pour_4a">
</g>
<g id="Bucket_Pour_5">
</g>
<g id="Barrel_FG">
</g>
<g id="Rote">
</g>
<g id="Hole_1_Stream_1">
</g>
<g id="Hole_1_Stream_2">
</g>
<g id="Hole_1_Stream_3">
</g>
<g id="Hole_1_Stream_3a">
</g>
<g id="Hole_1_Stream_3b">
</g>
<g id="Hole_2_Stream_1">
</g>
<g id="Hole_2_Stream_2">
</g>
<g id="Hole_2_Stream_3">
</g>
<g id="Hole_2_Stream_4">
</g>
<g id="Hole_2_Stream_5">
</g>
<g id="Hole_2_Stream_5a">
</g>
<g id="Hole_2_Stream_5b">
</g>
<g id="Hole_3_Stream_1_1_">
</g>
<g id="Hole_3_Stream_2_1_">
</g>
<g id="Hole_3_Stream_3_1_">
</g>
<g id="Hole_3_Stream_4_1_">
</g>
<g id="Hole_3_Stream_5">
</g>
<g id="Hole_3_Stream_5a">
</g>
<g id="Hole_3_Stream_5b">
	<g>
		<path opacity="0.74" fill="#8CD8ED" d="M74.3,173.2c-1.7,0.2-2.5,0-2.9-1.1c-0.4-1.1-2-1.6-2.9-1.5c-0.5-1.5-1.8-5.3-2.6-10.7
			c-1.7-12.5-10.2-97.1-24.2-123.2c-1.6-2.9-3.1-5.7-4.8-8.2C22.8,6.8,4.9,0.7,4.9,0.7C2.1,0.2,1.1,2.3,1.1,2.3
			c0.6,1.6,1.6,3.2,3.6,3.3c8.5,5.8,16.4,13.8,21.2,22.3c21.5,38.5,25,140.9,25,142.6c-2,1.5-4.1,0.5-6.7,1.8
			c-0.2,0.1-0.4,0.2-0.5,0.3c-1.5,1.3,2.3,2.8,4.1,2.9c1.9,0,1.9,1.2,3.2,2.2c1.3,1,5.3,0.3,7-0.1c1.6-0.4,3.7,0.3,5.4,1
			c1.7,0.7,5.2-0.7,6.3-1.2c1.2-0.5,2.7-0.6,4.4-0.2c1.6,0.4,4.2-0.4,4.6-1.7c0-0.1,0-0.1,0-0.2C78.9,173.9,76.1,173,74.3,173.2z"/>
		<path opacity="0.75" fill="#66C0E3" d="M78.9,175.6l-0.2-0.1c-0.4,1.3-3,2.1-4.6,1.7c-1.7-0.4-3.3-0.4-4.4,0.2
			c-1.2,0.5-4.6,1.9-6.3,1.2c-1.7-0.7-3.8-1.4-5.4-1c-1.6,0.4-5.7,1.2-7,0.1c-1.3-1-1.3-2.2-3.2-2.2c-1.8,0-5.6-1.6-4.1-2.9
			c-0.1,0-0.2,0-0.2,0.1c-0.5,0.2-1.2,1-0.7,1.7c0.5,0.7,2.6,1.3,3.9,1.6c1.3,0.3,1.7,1,2.7,1.6s2.6,1.2,4.8,1.2
			c2.3,0,3.8-0.1,5.4-0.5c1.6-0.3,5,1.1,6.2,1c1.2-0.1,3.4-0.7,4.5-1.3c1.1-0.6,2.4-0.2,3.2-0.2s2.8,0.2,4.1-0.5
			c1.4-0.6,1.1-1.8,1-1.8L78.9,175.6z"/>
		<path opacity="0.75" fill="#C4F7FF" d="M69.3,176.9c0,0-3.5,1.1-4.5,1c-1-0.1-2.1-0.8-0.9-0.9c1.2-0.1,2.2-0.2,3.2-0.4
			S70.1,176.5,69.3,176.9z"/>
		<path opacity="0.75" fill="#C4F7FF" d="M58.4,176.8c0,0-4.2,1.3-5.4,0.7c-1.3-0.5-1.5-1,0.2-1C54.9,176.5,57.8,177,58.4,176.8z"/>
		<path opacity="0.75" fill="#C4F7FF" d="M43.8,173.8c0,0,0.1,0.1,0.2,0.1c0.3,0.2,1,0.6,2,0.7c1.4,0.2,2.8-0.1,1.8-0.2
			c-1-0.1-2.6-0.5-2.4-0.8c0.2-0.3,0.8-0.7,0.8-0.7s-1-0.2-1.7,0.1L43.8,173.8z"/>
		<path fill="#C4F7FF" d="M69.5,171.1c0,0,1.2,0.4,1.4,0.9c0.3,0.5,0.2,0.9-0.2,0.5c-0.4-0.4-0.7-0.6-1.3-0.8
			C68.8,171.6,68.7,171.1,69.5,171.1z"/>
		<path fill="#C4F7FF" d="M76.3,174.3c0.2,0,1.8,0.2,1.5,0.9c-0.3,0.8-2.4,1.1-2.7,1c-0.4-0.1-0.3-0.3,0.5-0.7s1.6-0.1,1.1-0.6
			C76.1,174.5,75.2,174.4,76.3,174.3z"/>
		<path fill="#C4F7FF" d="M54,166.5c0.3,2.2,1.1,4.3,0.3,5.4c-0.8,1.1-3.3,0.6-2.3,0.4c1-0.2,2.1-0.8,1.8-2
			c-0.3-1.1-0.8-5.5-0.8-5.5S53.7,164.3,54,166.5z"/>
		<path fill="#C4F7FF" d="M59.7,140.2c0,0,2.7,26.3,3.7,29.4c1,3.1,3.6,3.1,2.9,3.5c-1.6,1-3.6-1.6-4.1-3.9S58.7,140,58.7,140
			S58.9,135.6,59.7,140.2z"/>
		<path fill="#C4F7FF" d="M34.8,27.4c0,0,6.8,11.1,11.1,25.4s4.6,17.1,4.6,17.1s-0.7,1.2-1.9-3.2c-1.1-4.4-2.1-11.4-6.6-22.2
			s-7.7-16-8.9-17.7C31.9,25.2,31.2,22.7,34.8,27.4z"/>
		<path fill="#C4F7FF" d="M53.2,81.8c0,0,2.3,11.5,2.6,13.5c0.4,2.5-0.7,2.1-0.9,0.1c-0.2-2-2.8-14.2-2.8-14.2S52.4,77.4,53.2,81.8z
			"/>
		<path fill="#C4F7FF" d="M59.4,132.2c-0.2,1.2-2.2,0-1.5-0.7C58.7,130.8,59.8,130.4,59.4,132.2z"/>
		<path fill="#C4F7FF" d="M49.9,72.1c0.1-1,1.4-0.3,1.6,0.9S49.7,73.5,49.9,72.1z"/>
		<path fill="#C4F7FF" d="M36.9,47.6c0,0,4,7.4,6.6,23.5s4.4,23.7,4,24.1c-0.6,0.5-0.9-0.9-1.6-5.2c-1-5.8-3.9-23.2-5.9-30.4
			C37.9,51.7,35.5,46.9,36.9,47.6z"/>
		<path fill="#C4F7FF" d="M53,116.9c0,0,3.8,31.9,4.6,40.8c0.8,8.9,1.8,12.7,0.8,11.1c-1-1.6-4.7-39.7-5.5-45.1
			c-0.8-5.4-1-8.1-1-8.1S52.3,111.5,53,116.9z"/>
		<path fill="#C4F7FF" d="M47.8,99.9c-1,0.3-0.9-1.9,0.1-2S49.2,99.5,47.8,99.9z"/>
		<path fill="#C4F7FF" d="M14.2,9.2c0,0,8,7.6,11.3,12.8c2.7,4.1,4,6.8,2.3,4.8c-1.4-1.6-6.4-9.3-10.3-13.4
			c-3.1-3.2-4.4-3.5-5.8-4.8S10.2,5.9,14.2,9.2z"/>
		<path fill="#C4F7FF" d="M52.5,147c-0.5,0.7-1.3-0.9-0.6-1.3C52.5,145.3,53.3,146,52.5,147z"/>
		<path fill="#C4F7FF" d="M53.3,151.1c0,0,0.5,8.7,0.6,10.1s-0.6,2-0.8,0.7s-0.9-11.3-1.1-12.6S52.5,146.4,53.3,151.1z"/>
	</g>
</g>
<g id="Droplets_1">
</g>
<g id="Droplets_2">
</g>
<g id="Droplets_3">
</g>
<g id="Band_Aids">
</g>
<g id="Rote_Screen_FG">
</g>
<g id="Labels">
</g>
</svg>
