<?xml version="1.0" encoding="utf-8"?>
<!-- Generator: Adobe Illustrator 19.2.0, SVG Export Plug-In . SVG Version: 6.00 Build 0)  -->
<svg version="1.1" xmlns="http://www.w3.org/2000/svg" xmlns:xlink="http://www.w3.org/1999/xlink" x="0px" y="0px"
	 viewBox="0 0 80 86" enable-background="new 0 0 80 86" xml:space="preserve" width="80" height="86" preserveAspectRatio="none">
<g id="Rote_Screen_BG">
</g>
<g id="Barrel_and_Bucket__x28_Ground_x29_">
</g>
<g id="Bucket_Pour_0">
</g>
<g id="Layer_84">
</g>
<g id="Bucket_Pour_1">
</g>
<g id="Bucket_Pour_2_Water_Level_8-10">
</g>
<g id="Bucket_Pour_2_Water_Level_1-7">
</g>
<g id="Bucket_Pour_3">
</g>
<g id="Water_Level_0">
</g>
<g id="Bucket_Pour_3_Water_Level_0">
</g>
<g id="Bucket_Pour_4_Water_Level_0">
</g>
<g id="Water_Level_1">
</g>
<g id="Bucket_Pour_3_Water_Level_1">
</g>
<g id="Bucket_Pour_4_Water_Level_1">
</g>
<g id="Water_Level_2">
</g>
<g id="Bucket_Pour_3_Water_Level_2">
</g>
<g id="Bucket_Pour_4_Water_Level_2">
</g>
<g id="Water_Level_3">
</g>
<g id="Bucket_Pour_3_Water_Level_3">
</g>
<g id="Bucket_Pour_4_Water_Level_3">
</g>
<g id="Water_Level_4">
</g>
<g id="Bucket_Pour_3_Water_Level_4">
	<g id="Bucket_Pour_4_Water_Level_3_copy">
	</g>
</g>
<g id="Bucket_Pour_4_Water_Level_4">
</g>
<g id="Water_Level_5">
</g>
<g id="Bucket_Pour_3_Water_Level_5">
</g>
<g id="Bucket_Pour_4_Water_Level_5">
</g>
<g id="Water_Level_6">
</g>
<g id="Bucket_Pour_3_Water_Level_6">
</g>
<g id="Bucket_Pour_4_Water_Level_6">
</g>
<g id="Water_Level_7">
</g>
<g id="Bucket_Pour_3_Water_Level_7">
</g>
<g id="Bucket_Pour_4_Water_Level_7">
</g>
<g id="Water_Level_8">
</g>
<g id="Bucket_Pour_3_Water_Level_8">
</g>
<g id="Bucket_Pour_4_Water_Level_8">
</g>
<g id="Water_Level_9">
</g>
<g id="Bucket_Pour_3_Water_Level_9">
</g>
<g id="Bucket_Pour_4_Water_Level_9">
</g>
<g id="Water_Level_10">
</g>
<g id="Bucket_Pour_3_Water_Level_10_1_">
</g>
<g id="Bucket_Pour_4_Water_Level_10">
</g>
<g id="Bucket_Pour_0_copy">
</g>
<g id="Layer_69">
</g>
<g id="Puddle_Xtra_Large">
</g>
<g id="Puddle_Large">
</g>
<g id="Puddle_Medium">
</g>
<g id="Puddle_Small">
</g>
<g id="Bucket_Pour_4_1_">
</g>
<g id="Bucket_Pour_4a">
</g>
<g id="Bucket_Pour_5">
</g>
<g id="Rote_x27_s_Leak_1">
</g>
<g id="Rote_x27_s_Leak_2">
</g>
<g id="Rote_x27_s_Leak_3">
</g>
<g id="Rote_x27_s_Leak_4">
</g>
<g id="Barrel_FG">
</g>
<g id="Spigot_Handle_1">
</g>
<g id="Spigot_Handle_2">
</g>
<g id="Rote">
</g>
<g id="Hole_1_Stream_1">
</g>
<g id="Hole_1_Stream_2">
</g>
<g id="Hole_1_Stream_3">
</g>
<g id="Hole_1_Stream_3a">
</g>
<g id="Hole_1_Stream_3b">
</g>
<g id="Hole_2_Stream_1">
</g>
<g id="Hole_2_Stream_2">
</g>
<g id="Hole_2_Stream_3">
</g>
<g id="Hole_2_Stream_4">
</g>
<g id="Hole_2_Stream_5">
</g>
<g id="Hole_2_Stream_5a">
</g>
<g id="Hole_2_Stream_5b">
</g>
<g id="Hole_3_Stream_1_1_">
</g>
<g id="Hole_3_Stream_2_1_">
</g>
<g id="Hole_3_Stream_3_1_">
</g>
<g id="Hole_3_Stream_4_1_">
</g>
<g id="Hole_3_Stream_5">
</g>
<g id="Hole_3_Stream_5a">
</g>
<g id="Hole_3_Stream_5b">
	<path opacity="0.75" fill="#66C0E3" d="M63.5,80.5c-0.5,0-0.5,0.2-0.4,0.4c0.4,0,1.1-0.1,1.5-0.4c0.6-0.4,0.5-0.8,0.5-0.8
		C64.9,80.2,64.4,80.5,63.5,80.5z"/>
	<path opacity="0.75" fill="#66C0E3" d="M53.4,80.5c-0.7-0.2-1.8-0.2-2.7-0.3c-1-0.1-1.2-0.3-1.1-0.5c-0.3,0.2-0.4,0.4-0.2,0.7
		c0.3,0.4,2.9,0.4,3.9,0.5C53.8,80.8,54,80.7,53.4,80.5z"/>
	<path opacity="0.75" fill="#66C0E3" d="M57.9,82c-2.5,0.9-5.8,0-5.9-0.4c-0.1,0.3,1,0.7,2,0.9c1.2,0.2,1.8,0.3,3.1,0
		c1.4-0.4,2.1-0.4,2.8-0.2c1.2,0.4,1.8,0.4,2.6,0.3c0.7-0.1,0.8-0.5,0.8-0.6c-0.2,0.1-0.4,0.2-0.8,0.2C60.4,82.4,60.1,81.2,57.9,82z
		"/>
	<path opacity="0.74" fill="#8CD8ED" d="M63.5,80.5c0.9,0,1.4-0.3,1.6-0.7c0.1-0.3-0.5-0.8-2.1-1c-4.1-0.4-3.2-4.6-4.6-14.6
		c-1.4-9.9-3.3-17.6-5.9-17.1c-1.9,0.3,0.1,4.9,1.2,12.1c1.6,10.7,1.2,16.2,0,18.5c-1,1.8-2.7,1.4-3.3,1.5c-0.2,0.1-0.6,0.3-0.7,0.5
		c-0.1,0.2,0.1,0.4,1.1,0.5c0.9,0.1,2,0.1,2.7,0.3c0.6,0.2,0.4,0.3,0,0.4c-0.6,0.1-1.6,0.3-1.4,0.7c0.1,0.3,3.4,1.3,5.9,0.4
		c2.2-0.8,2.6,0.5,4.5,0.2c0.4,0,0.7-0.1,0.8-0.2c0.5-0.3,0.1-0.7-0.1-1.1C63,80.7,63,80.5,63.5,80.5z"/>
	<path fill="#C4F7FF" d="M53.8,52.7c0,0,1.5,7.5,2,12.1s0.5,6.9,0.2,5.6s-0.5-5.4-1-8c-0.5-2.6-1.6-9.6-1.6-9.6S53.2,51.1,53.8,52.7
		z"/>
	<path fill="#C4F7FF" d="M58.9,73.1c0.2,1.5,0.1,2.9,1.2,5c0.6,1.1,1.8,1,1.6,1.2c-0.1,0.2-0.9,0.3-1.5-0.2c-0.6-0.5-1.2-2-1.5-3.4
		c-0.2-1-0.2-1.9-0.3-2.7C58.6,72,58.8,71.6,58.9,73.1z"/>
	<path fill="#C4F7FF" d="M56.5,72c0,0,0.4,4.6,0.6,6c0.2,1.4,0.1,2.5-0.9,2.6c-1,0.1-1.3-0.1-0.5-0.4c1.2-0.5,1-1.9,0.8-2.8
		c-0.2-0.9-0.5-5.6-0.5-5.6S56.3,70,56.5,72z"/>
	<path fill="#C4F7FF" d="M62.8,81.2c0,0,0.3,0.5-0.5,0.6c-0.8,0.1-2-0.4-1.3-0.4S62.8,81.5,62.8,81.2z"/>
	<path fill="#C4F7FF" d="M64.7,79.5c0,0,0,0.3-0.6,0.5c-0.7,0.2-1,0-0.7-0.1S64.7,79.5,64.7,79.5z"/>
	<path fill="#C4F7FF" d="M53.4,81.9c0.1,0,1.1,0.4,2.3,0.2c1.2-0.2,2.5-0.7,1.8-0.5c-0.7,0.1-2.3,0.3-3.1,0.1
		c-0.8-0.1-1.1-0.3-1.1-0.3S52.3,81.6,53.4,81.9z"/>
	<path fill="#C4F7FF" d="M50.3,79.7c0,0,0.1,0.1,0.9,0.2c0.8,0.1,1.7,0.1,1.7,0.1s-0.4-0.2-1.1-0.3C51,79.6,51,79.6,51,79.6
		S50.1,79.2,50.3,79.7z"/>
	<path fill="#C4F7FF" d="M55,77c0,0-0.1,0.9-0.7,1.3s-1,0.7-0.5,0.7s1.2-0.5,1.3-1.1c0.1-0.6,0-1.5,0-1.5S54.9,75.9,55,77z"/>
	<path fill="#C4F7FF" d="M58.8,71.2c-0.3,0.5-1-0.3-0.5-0.5C58.7,70.5,59.1,70.6,58.8,71.2z"/>
	<path fill="#C4F7FF" d="M55.4,75.5c0,0.3-0.6,0.5-0.6,0.1C54.8,75.1,55.4,74.6,55.4,75.5z"/>
	<path fill="#C4F7FF" d="M57.9,62.1c0.3,0.3-0.4,1.1-0.6,0.5S57.4,61.6,57.9,62.1z"/>
	<path fill="#C4F7FF" d="M58.1,64c0,0,0.2,2.6,0.4,3.8s-0.3,1-0.5,0.5c-0.1-0.5-0.4-4.4-0.4-4.4S57.8,62.3,58.1,64z"/>
</g>
<g id="Droplets_1">
</g>
<g id="Droplets_2">
</g>
<g id="Droplets_3">
</g>
<g id="Band_Aids">
</g>
<g id="Rote_Screen_FG">
</g>
<g id="Labels">
</g>
</svg>
