<?xml version="1.0" encoding="utf-8"?>
<!-- Generator: Adobe Illustrator 19.2.0, SVG Export Plug-In . SVG Version: 6.00 Build 0)  -->
<svg version="1.1" xmlns="http://www.w3.org/2000/svg" xmlns:xlink="http://www.w3.org/1999/xlink" x="0px" y="0px"
	 viewBox="0 0 80 86" enable-background="new 0 0 80 86" xml:space="preserve" width="80" height="86" preserveAspectRatio="none">
<g id="Hole_1_Stream_3a">
	<g>
		<path fill="#66C0E3" d="M78.7,81.5c-0.4,1.3-3,2.1-4.6,1.7c-1.7-0.4-3.3-0.4-4.4,0.2c-1.2,0.5-4.3,1.2-6,0.5
			c-1.7-0.7-3.7,0-5.3,0.4c-1.6,0.4-6.1,0.5-7.4-0.5c-1.3-1,0.1-2.3-1.8-2.4c-1.5,0-4.8-1-4.8-2.1c-0.1,0.2-0.3,0.4-0.2,0.6
			c0,0.5,2.1,1.3,3.4,1.6s1.9,0.6,2.1,1.2c0.2,0.6,0.6,1.1,1.6,1.7s2.9,0.7,4.9,0.6c2,0,3.3-0.8,4.4-0.9c1.1-0.2,2.1,0.1,3.2,0.3
			c1.1,0.2,1.8,0.3,3.2,0.1c1.4-0.2,3.2-0.9,4.4-1.2c1.2-0.2,2.6,0.3,3.5,0.4c1,0.1,2.6-0.3,3.3-1c0.7-0.7,0.7-1.5,0.7-1.5
			C78.7,81.4,78.7,81.5,78.7,81.5z"/>
		<path opacity="0.75" fill="#8CD8ED" d="M49.1,81.5c1.9,0,0.6,1.3,1.8,2.4c1.3,1,5.7,1,7.4,0.5c1.6-0.4,3.6-1.1,5.3-0.4
			c1.7,0.7,4.9,0,6-0.5c1.2-0.5,2.7-0.6,4.4-0.2c1.6,0.4,4.2-0.4,4.6-1.7c0-0.1,0-0.1,0-0.2c0.1-1.4-1.7-2.6-3.5-2.4
			c-1.7,0.2-2.3,0.1-2.7-1c-0.4-1.1-1.7-1.3-4-1.3c-0.2-0.5-7.9-33.7-20.7-49.5C24.6-1.3,4.9,0.7,4.9,0.7C2.1,1.2,1.2,2.1,1.2,2.1
			c0.3,1.3,1.2,3.2,3.3,3.5c5.1,1,10.1,2,15.2,4.8c32.3,17.2,32.1,61.9,32,66.5c-2,1.5-4,0.2-6.7,1.5c-0.2,0.1-0.4,0.2-0.5,0.3
			c-0.2,0.2-0.3,0.4-0.3,0.6C44.4,80.4,47.6,81.4,49.1,81.5z"/>
		<path opacity="0.75" fill="#C4F7FF" d="M13.1,5.8c0,0,11.4,5.3,18.6,12.2c0.4,0.4,0.8,0.8,1.2,1.1c1.3,0.6,1.6,0.4,0.9-0.6
			C29,14,19.1,7.1,13.1,5.8z"/>
		<path opacity="0.75" fill="#C4F7FF" d="M47.3,38.2c0,0,2.3,5.3,4.2,12.1c1.9,6.8,2.1,7.6,2.1,7.6s0.5,0.5,0.3-2.4S50,41,47.3,38.2
			z"/>
		<path opacity="0.75" fill="#C4F7FF" d="M36.5,21.1c-0.8-0.8-1.3-0.2-0.8,0.4c0.5,0.6,3.3,3.7,4.8,5.3c2.3,2.3,4.9,6.9,6.1,8.9
			c1.2,1.9,0.3-0.9-0.6-2.5C43.7,28.9,37.3,21.9,36.5,21.1z"/>
		<path fill="#C4F7FF" d="M51.2,58.7c0.5,2.3,1.3,10.4,1.7,14.9c0.4,4.3-1.4,4.3-0.3,4.8c1.2,0.6,0.8,0.9-0.4,0.6
			c-2-0.7,0.3-1.5,0.2-2.9c-0.1-1.5-0.3-4.6-0.6-8.1c-0.4-4.6-1.2-7.8-1.1-8.8C50.7,58,50.8,56.7,51.2,58.7z"/>
		<path fill="#C4F7FF" d="M33.1,13.5c0,0,7.6,6.9,9.7,9.5s2.9,4.2,1.9,3.2c-1-1-5-5.6-7.6-8c-2.7-2.3-5-4.4-5-4.4S32,12.6,33.1,13.5
			z"/>
		<path fill="#C4F7FF" d="M59.2,50.4c0,0,4,11.5,5.2,16.8c1.2,5.3,0.7,6.6,0.2,5.5c-0.5-1.1-1.3-7.6-3-12.3s-2.9-9.6-2.9-9.6
			S58.7,49.6,59.2,50.4z"/>
		<path fill="#C4F7FF" d="M58.4,56.1c0,0,2,4.3,2.3,6.5c0.3,2.2,0,2.9-0.3,1.9c-0.3-0.9-1-3.4-1.7-4.9s-1.2-3.3-1.2-3.3
			S57.2,54.2,58.4,56.1z"/>
		<path fill="#C4F7FF" d="M56.5,64.9c0,0,1.2,7,1.6,8.9c0.4,1.9,1.5,4,1.1,4.7c-0.6,1-1.9,0.6-2.8,0.7c-0.8,0.1,0.7-0.1,1.6-0.8
			c0.9-0.7-1.1-6.6-1.5-8.4c-0.4-1.8-0.7-5.4-0.7-5.4S55.9,62.6,56.5,64.9z"/>
		<path fill="#C4F7FF" d="M59.7,71c0.1,0.2,0.9,5.3,1.3,6.5c0.2,0.7,0.3,1.3,1.1,1.6c1.4,0.5,2.4-0.1,2.3,0.3c-0.2,0.6-2.1,0.4-3,0
			c-0.9-0.4-0.9-1.7-1.2-2.8S59,70.9,59,70.9S59.3,69.6,59.7,71z"/>
		<path fill="#C4F7FF" d="M61.5,65.9c0.5,0.7,0.6,1.7-0.2,1.3C60.6,66.8,60.8,64.9,61.5,65.9z"/>
		<path fill="#C4F7FF" d="M45.3,28.6c0.8,0.5,1,1.4,0.3,1.2C44.9,29.6,44.1,27.9,45.3,28.6z"/>
		<path fill="#C4F7FF" d="M47.6,31.2c0.1,0.4-1.5-0.2-1.1-0.5S47.3,30.3,47.6,31.2z"/>
		<path fill="#C4F7FF" d="M55.9,60.7c-0.2,0.7-1.9-0.1-1.2-0.6C55.3,59.5,56.3,59.5,55.9,60.7z"/>
		<path fill="#C4F7FF" d="M58.1,47.5c0,0.5-1.8-0.3-1.3-0.8C57.4,46.1,58.2,46.1,58.1,47.5z"/>
		<path fill="#C4F7FF" d="M31,12.1c0.4,0.3-0.1,0.8-1,0.3C29.2,12,29.7,11.3,31,12.1z"/>
		<path fill="#C4F7FF" d="M49,33.6c0,0,4.4,7.4,6,12.8c1.5,5.4,1.1,5.7,0.6,4.2c-0.5-1.5-2.6-8-4.8-12.3s-2.9-5.3-2.9-5.3
			S47.7,31.8,49,33.6z"/>
		<path opacity="0.75" fill="#C4F7FF" d="M46.7,79.4c0,0,0.1,0.1,0.2,0.1c0.3,0.2,1,0.6,2,0.7c1.4,0.2,2.8-0.1,1.8-0.2
			c-1-0.1-2.6-0.5-2.4-0.8c0.2-0.3,0.8-0.7,0.8-0.7s-1-0.2-1.7,0.1L46.7,79.4z"/>
		<path opacity="0.75" fill="#C4F7FF" d="M75.4,80c0,0,0.7,1.1-0.7,1.6s-3.3,0.3-3.3,0.3s-0.3-0.4,0.6-0.4
			C73,81.5,75.2,80.5,75.4,80z"/>
		<path opacity="0.75" fill="#C4F7FF" d="M63.2,82.7c0,0,3.8,1.1,4.6,0.6c0.8-0.5,1-0.9-0.2-0.7s-3.5-0.2-3.5-0.2
			S62.1,82.3,63.2,82.7z"/>
		<path opacity="0.75" fill="#C4F7FF" d="M52.6,82c0,0,1.6,1.3,3.6,1.1c2-0.2,3-0.8,2.1-0.8s-2.6,0.2-3.4-0.1
			C54.1,81.9,51.8,81.3,52.6,82z"/>
		<path opacity="0.75" fill="#C4F7FF" d="M70.2,77.3c0,0,1.5,0.3,1.3,0.9c-0.2,0.6-1.1,1.1-0.9,0.8c0.2-0.2,0.9-0.8,0.4-1
			C70.4,77.9,69.3,77.5,70.2,77.3z"/>
	</g>
</g>
</svg>
