<?xml version="1.0" encoding="utf-8"?>
<!-- Generator: Adobe Illustrator 19.2.0, SVG Export Plug-In . SVG Version: 6.00 Build 0)  -->
<svg version="1.1" xmlns="http://www.w3.org/2000/svg" xmlns:xlink="http://www.w3.org/1999/xlink" x="0px" y="0px"
	 viewBox="0 0 80 126" enable-background="new 0 0 80 126" xml:space="preserve" width="80" height="126" preserveAspectRatio="none">
<g id="Rote_Screen_BG">
</g>
<g id="Barrel_and_Bucket__x28_Ground_x29_">
</g>
<g id="Bucket_Pour_0">
</g>
<g id="Layer_84">
</g>
<g id="Bucket_Pour_1">
</g>
<g id="Bucket_Pour_2_Water_Level_8-10">
</g>
<g id="Bucket_Pour_2_Water_Level_1-7">
</g>
<g id="Bucket_Pour_3">
</g>
<g id="Water_Level_0">
</g>
<g id="Bucket_Pour_3_Water_Level_0">
</g>
<g id="Bucket_Pour_4_Water_Level_0">
</g>
<g id="Water_Level_1">
</g>
<g id="Bucket_Pour_3_Water_Level_1">
</g>
<g id="Bucket_Pour_4_Water_Level_1">
</g>
<g id="Water_Level_2">
</g>
<g id="Bucket_Pour_3_Water_Level_2">
</g>
<g id="Bucket_Pour_4_Water_Level_2">
</g>
<g id="Water_Level_3">
</g>
<g id="Bucket_Pour_3_Water_Level_3">
</g>
<g id="Bucket_Pour_4_Water_Level_3">
</g>
<g id="Water_Level_4">
</g>
<g id="Bucket_Pour_3_Water_Level_4">
	<g id="Bucket_Pour_4_Water_Level_3_copy">
	</g>
</g>
<g id="Bucket_Pour_4_Water_Level_4">
</g>
<g id="Water_Level_5">
</g>
<g id="Bucket_Pour_3_Water_Level_5">
</g>
<g id="Bucket_Pour_4_Water_Level_5">
</g>
<g id="Water_Level_6">
</g>
<g id="Bucket_Pour_3_Water_Level_6">
</g>
<g id="Bucket_Pour_4_Water_Level_6">
</g>
<g id="Water_Level_7">
</g>
<g id="Bucket_Pour_3_Water_Level_7">
</g>
<g id="Bucket_Pour_4_Water_Level_7">
</g>
<g id="Water_Level_8">
</g>
<g id="Bucket_Pour_3_Water_Level_8">
</g>
<g id="Bucket_Pour_4_Water_Level_8">
</g>
<g id="Water_Level_9">
</g>
<g id="Bucket_Pour_3_Water_Level_9">
</g>
<g id="Bucket_Pour_4_Water_Level_9">
</g>
<g id="Water_Level_10">
</g>
<g id="Bucket_Pour_3_Water_Level_10_1_">
</g>
<g id="Bucket_Pour_4_Water_Level_10">
</g>
<g id="Bucket_Pour_0_copy">
</g>
<g id="Layer_69">
</g>
<g id="Puddle_Xtra_Large">
</g>
<g id="Puddle_Large">
</g>
<g id="Puddle_Medium">
</g>
<g id="Puddle_Small">
</g>
<g id="Bucket_Pour_4_1_">
</g>
<g id="Bucket_Pour_4a">
</g>
<g id="Bucket_Pour_5">
</g>
<g id="Rote_x27_s_Leak_1">
</g>
<g id="Rote_x27_s_Leak_2">
</g>
<g id="Rote_x27_s_Leak_3">
</g>
<g id="Rote_x27_s_Leak_4">
</g>
<g id="Barrel_FG">
</g>
<g id="Spigot_Handle_1">
</g>
<g id="Spigot_Handle_2">
</g>
<g id="Rote">
</g>
<g id="Hole_1_Stream_1">
</g>
<g id="Hole_1_Stream_2">
</g>
<g id="Hole_1_Stream_3">
</g>
<g id="Hole_1_Stream_3a">
</g>
<g id="Hole_1_Stream_3b">
</g>
<g id="Hole_2_Stream_1">
</g>
<g id="Hole_2_Stream_2">
</g>
<g id="Hole_2_Stream_3">
</g>
<g id="Hole_2_Stream_4">
</g>
<g id="Hole_2_Stream_5">
</g>
<g id="Hole_2_Stream_5a">
</g>
<g id="Hole_2_Stream_5b">
</g>
<g id="Hole_3_Stream_1_1_">
</g>
<g id="Hole_3_Stream_2_1_">
</g>
<g id="Hole_3_Stream_3_1_">
</g>
<g id="Hole_3_Stream_4_1_">
</g>
<g id="Hole_3_Stream_5">
</g>
<g id="Hole_3_Stream_5a">
</g>
<g id="Hole_3_Stream_5b">
	<g>
		<path opacity="0.75" fill="#66C0E3" d="M58.7,122.2c-1.4,0.4-3.5,1.1-5.2,0.5c-0.2-0.1-0.4-0.2-0.6-0.2c0.3,0.3,0.7,0.6,1.5,0.8
			c1.6,0.4,2.7-0.2,3.6-0.4c1-0.3,1.5-0.3,2.5-0.1c1.1,0.2,2,0.4,2.8,0.2c0.1,0,0.2-0.1,0.3-0.1C61.9,123,61,121.6,58.7,122.2z"/>
		<path opacity="0.75" fill="#66C0E3" d="M67.6,121.1c-0.9-0.2-1.4,0.1-1.8,0.5c0.2,0,0.4-0.1,0.7-0.1c0.8,0,1.6,0.2,2.4-0.2
			c0.3-0.2,0.4-0.3,0.5-0.4C69,121.2,68.4,121.3,67.6,121.1z"/>
		<path opacity="0.75" fill="#66C0E3" d="M47.1,119.6C47.1,119.6,47.1,119.6,47.1,119.6c-0.3,0.1-0.4,0.3-0.3,0.6
			c0.2,0.6,1.8,0.9,3.4,1c0.8,0,1.4,0.2,1.8,0.3c-0.4-0.4-0.7-0.8-1.4-0.8C49.1,120.8,47.1,120.4,47.1,119.6z"/>
		<path opacity="0.74" fill="#8CD8ED" d="M51.9,121.6c0.3,0.3,0.6,0.5,1,0.8c-0.3-0.3-0.3-0.5-0.3-0.5S52.4,121.7,51.9,121.6z"/>
		<path opacity="0.74" fill="#8CD8ED" d="M63.8,122.7c0.2,0,0.4-0.1,0.6-0.1c0.7-0.2,1-0.6,1.4-0.9c-0.4,0.1-0.8,0.1-0.8,0.1
			S64.4,122.4,63.8,122.7z"/>
		<path opacity="0.74" fill="#8CD8ED" d="M69.4,120.1c-0.5-0.6-1.8-0.5-2.2-1.1c-0.6-1-1.7-1.1-2.8-0.9c-2.2,0.3-2.7-7.9-3-13.4
			c-2-34.3-8.3-43.9-13.6-56.3c-3.5-8.2-6.8-10.6-8.8-10.2c-1.9,0.4-0.3,3.7,1.4,7.6c17,37.9,12.3,69.6,12.3,70.7
			c-0.4,2-2.3,0.9-4.9,2.2c-0.2,0.1-0.4,0.2-0.5,0.3c-0.3,0.2-0.4,0.5-0.4,0.7c0,0,0,0,0,0.1c0,0.8,2.1,1.1,3.5,1.1
			c0.7,0,1,0.4,1.4,0.8c0.4,0.1,0.7,0.3,0.7,0.3s0.1,0.2,0.3,0.5c0.2,0.1,0.3,0.2,0.6,0.2c1.7,0.6,3.8-0.1,5.2-0.5
			c2.3-0.6,3.2,0.8,5.1,0.5c0.6-0.3,1.2-0.9,1.2-0.9s0.3-0.1,0.8-0.1c0.4-0.4,0.9-0.7,1.8-0.5c0.8,0.2,1.4,0.1,1.8-0.2
			C69.6,120.7,69.7,120.4,69.4,120.1z"/>
		<path fill="#C4F7FF" d="M44,42.3c0,0,2.2,3.6,3.7,7.1c1.5,3.5,1.5,4.9,1.1,4.2c-0.4-0.7-2.9-6.9-3.9-8.6
			C43.9,43.4,42.6,40.4,44,42.3z"/>
		<path fill="#C4F7FF" d="M55.1,81.2c0,0,1.2,12.2,1.3,18c0.1,5.8-0.7,9.3-0.9,7.5c-0.2-1.8,0.3-6.8-0.3-12.7c-0.5-6-1-13.2-1-13.2
			S54,78.1,55.1,81.2z"/>
		<path fill="#C4F7FF" d="M60.6,111.1c0,0,0.6,4.5,1.3,5.8c0.9,1.6,2.2,1.7,1.9,2.1c-0.3,0.3-1.2,0.2-1.9-0.7
			c-0.7-0.9-1.3-2.8-1.6-4.8c-0.3-2-0.4-2.1-0.4-3.1C59.9,109.5,60.4,108.8,60.6,111.1z"/>
		<path fill="#C4F7FF" d="M58.5,116.6c0,0,0.5,2,0.1,2.6c-0.4,0.6-2.7,0.3-2,0.2c0.7-0.2,1.6-0.6,1.6-1.3c0-0.7,0-0.8-0.1-1.5
			C57.9,115.8,58.2,114.8,58.5,116.6z"/>
		<path fill="#C4F7FF" d="M54.3,116.2c0,0,0.2,1.8-0.6,2.1c-0.9,0.3-2.6,0.5-1.6,0.5s2,0.4,2.5-0.5c0.5-1,0.2-4.6,0.2-4.6
			S54.1,113.3,54.3,116.2z"/>
		<path fill="#C4F7FF" d="M60.3,107.8c-0.1,0.9-2.1-0.9-1.1-1.3C60.1,106,60.4,106.4,60.3,107.8z"/>
		<path fill="#C4F7FF" d="M54.5,78.1c-0.5,0.9-1.3-0.3-0.8-1C54.2,76.3,55.1,76.9,54.5,78.1z"/>
		<path fill="#C4F7FF" d="M59.7,99.4c0.1,1.3,0.2,4.2,0.2,4.2s-0.6,0.3-0.9-2.1S58.6,97,58.6,97S59.4,96,59.7,99.4z"/>
		<path fill="#C4F7FF" d="M68.8,120.2c0,0,0.3,0.4-0.2,0.6c-0.5,0.1-1.1,0-1.1,0s0.8-0.2,0.9-0.4C68.5,120.1,68.9,119.9,68.8,120.2z
			"/>
		<path fill="#C4F7FF" d="M65,121.8c-0.1,0.1-0.6,0.6-1.6,0.6c-1,0-1.9-0.5-1.2-0.4c0.7,0.1,1.5,0.1,2.1-0.1
			C64.9,121.6,65.3,121.3,65,121.8z"/>
		<path fill="#C4F7FF" d="M52.3,121.5c0,0,1.2,1,2.2,1c1,0,2.8-0.5,2-0.4c-0.8,0-2.2,0-3-0.3c-0.8-0.4-1.3-0.6-1.3-0.6
			S51.7,121,52.3,121.5z"/>
		<path fill="#C4F7FF" d="M48.7,118.6c-0.2,0.1-1.2,0.5-0.9,1c0.3,0.5,1.8,0.8,1.8,0.8s0.1-0.3-0.4-0.4c-0.5-0.2-1-0.6-0.6-0.8
			s1-0.5,1-0.5S50.2,118.2,48.7,118.6z"/>
		<path fill="#C4F7FF" d="M66.3,118.5c0.3,0.1-0.1,0.6-0.7,0.4S65.4,118.1,66.3,118.5z"/>
		<path fill="#C4F7FF" d="M46.8,56c0,0,2.2,4.8,3.5,10c1.3,5.2,1.6,7.2,1.4,7.7c-0.2,0.5-0.6-0.4-1.1-2.8c-0.5-2.5-1.9-7.5-3.1-10.5
			c-1.2-3-1.8-4.3-1.8-4.3S45.6,53.3,46.8,56z"/>
		<path fill="#C4F7FF" d="M55.7,69.8c0,0,0.6,2.2,1.3,5.6c0.8,3.4,0.8,4.8,0.4,4c-0.4-0.8-0.9-3.6-1.4-5.7c-0.5-1.9-1-3.4-1-3.4
			S54.6,67.4,55.7,69.8z"/>
		<path fill="#C4F7FF" d="M58.4,82.2c-0.2,0.5-1.3-0.9-0.7-1.2C58.4,80.8,58.8,81.5,58.4,82.2z"/>
	</g>
</g>
<g id="Droplets_1">
</g>
<g id="Droplets_2">
</g>
<g id="Droplets_3">
</g>
<g id="Band_Aids">
</g>
<g id="Rote_Screen_FG">
</g>
<g id="Labels">
</g>
</svg>
