<?xml version="1.0" encoding="utf-8"?>
<!-- Generator: Adobe Illustrator 19.2.0, SVG Export Plug-In . SVG Version: 6.00 Build 0)  -->
<svg version="1.1" xmlns="http://www.w3.org/2000/svg" xmlns:xlink="http://www.w3.org/1999/xlink" x="0px" y="0px"
	 viewBox="0 0 80 126" enable-background="new 0 0 80 126" xml:space="preserve" width="80" height="126" preserveAspectRatio="none">
<g id="Rote_Screen_BG">
</g>
<g id="Barrel_and_Bucket__x28_Ground_x29_">
</g>
<g id="Bucket_Pour_0">
</g>
<g id="Layer_84">
</g>
<g id="Bucket_Pour_1">
</g>
<g id="Bucket_Pour_2_Water_Level_8-10">
</g>
<g id="Bucket_Pour_2_Water_Level_1-7">
</g>
<g id="Bucket_Pour_3">
</g>
<g id="Water_Level_0">
</g>
<g id="Bucket_Pour_3_Water_Level_0">
</g>
<g id="Bucket_Pour_4_Water_Level_0">
</g>
<g id="Water_Level_1">
</g>
<g id="Bucket_Pour_3_Water_Level_1">
</g>
<g id="Bucket_Pour_4_Water_Level_1">
</g>
<g id="Water_Level_2">
</g>
<g id="Bucket_Pour_3_Water_Level_2">
</g>
<g id="Bucket_Pour_4_Water_Level_2">
</g>
<g id="Water_Level_3">
</g>
<g id="Bucket_Pour_3_Water_Level_3">
</g>
<g id="Bucket_Pour_4_Water_Level_3">
</g>
<g id="Water_Level_4">
</g>
<g id="Bucket_Pour_3_Water_Level_4">
	<g id="Bucket_Pour_4_Water_Level_3_copy">
	</g>
</g>
<g id="Bucket_Pour_4_Water_Level_4">
</g>
<g id="Water_Level_5">
</g>
<g id="Bucket_Pour_3_Water_Level_5">
</g>
<g id="Bucket_Pour_4_Water_Level_5">
</g>
<g id="Water_Level_6">
</g>
<g id="Bucket_Pour_3_Water_Level_6">
</g>
<g id="Bucket_Pour_4_Water_Level_6">
</g>
<g id="Water_Level_7">
</g>
<g id="Bucket_Pour_3_Water_Level_7">
</g>
<g id="Bucket_Pour_4_Water_Level_7">
</g>
<g id="Water_Level_8">
</g>
<g id="Bucket_Pour_3_Water_Level_8">
</g>
<g id="Bucket_Pour_4_Water_Level_8">
</g>
<g id="Water_Level_9">
</g>
<g id="Bucket_Pour_3_Water_Level_9">
</g>
<g id="Bucket_Pour_4_Water_Level_9">
</g>
<g id="Water_Level_10">
</g>
<g id="Bucket_Pour_3_Water_Level_10_1_">
</g>
<g id="Bucket_Pour_4_Water_Level_10">
</g>
<g id="Bucket_Pour_0_copy">
</g>
<g id="Layer_69">
</g>
<g id="Puddle_Xtra_Large">
</g>
<g id="Puddle_Large">
</g>
<g id="Puddle_Medium">
</g>
<g id="Puddle_Small">
</g>
<g id="Bucket_Pour_4_1_">
</g>
<g id="Bucket_Pour_4a">
</g>
<g id="Bucket_Pour_5">
</g>
<g id="Rote_x27_s_Leak_1">
</g>
<g id="Rote_x27_s_Leak_2">
</g>
<g id="Rote_x27_s_Leak_3">
</g>
<g id="Rote_x27_s_Leak_4">
</g>
<g id="Barrel_FG">
</g>
<g id="Spigot_Handle_1">
</g>
<g id="Spigot_Handle_2">
</g>
<g id="Rote">
</g>
<g id="Hole_1_Stream_1">
</g>
<g id="Hole_1_Stream_2">
</g>
<g id="Hole_1_Stream_3">
</g>
<g id="Hole_1_Stream_3a">
</g>
<g id="Hole_1_Stream_3b">
</g>
<g id="Hole_2_Stream_1">
</g>
<g id="Hole_2_Stream_2">
</g>
<g id="Hole_2_Stream_3">
</g>
<g id="Hole_2_Stream_4">
</g>
<g id="Hole_2_Stream_5">
</g>
<g id="Hole_2_Stream_5a">
</g>
<g id="Hole_2_Stream_5b">
</g>
<g id="Hole_3_Stream_1_1_">
</g>
<g id="Hole_3_Stream_2_1_">
</g>
<g id="Hole_3_Stream_3_1_">
</g>
<g id="Hole_3_Stream_4_1_">
</g>
<g id="Hole_3_Stream_5">
</g>
<g id="Hole_3_Stream_5a">
</g>
<g id="Hole_3_Stream_5b">
	<g>
		<path opacity="0.75" fill="#66C0E3" d="M63.5,120.5c-0.5,0-0.5,0.2-0.4,0.4c0.4,0,1.1-0.1,1.5-0.4c0.6-0.4,0.5-0.8,0.5-0.8
			C64.9,120.2,64.4,120.5,63.5,120.5z"/>
		<path opacity="0.75" fill="#66C0E3" d="M53.4,120.5c-0.7-0.2-1.8-0.2-2.7-0.3c-1-0.1-1.2-0.3-1.1-0.5c-0.3,0.2-0.4,0.4-0.2,0.7
			c0.3,0.4,2.9,0.4,3.9,0.5C53.8,120.8,54,120.7,53.4,120.5z"/>
		<path opacity="0.75" fill="#66C0E3" d="M57.9,122c-2.5,0.9-5.8,0-5.9-0.4c-0.1,0.3,1,0.7,2,0.9c1.2,0.2,1.8,0.3,3.1,0
			c1.4-0.4,2.1-0.4,2.8-0.2c1.2,0.4,1.8,0.4,2.6,0.3c0.7-0.1,0.8-0.5,0.8-0.6c-0.2,0.1-0.4,0.2-0.8,0.2
			C60.4,122.4,60.1,121.2,57.9,122z"/>
		<path opacity="0.74" fill="#8CD8ED" d="M63,118.8c-1.9-0.2-2.2-4-3.6-10.2c-0.3-1.3-1.6-2.8-3-3.4c-1-0.4-2.2,0.4-2.2,1.8
			c0.2,6.1-0.7,9.3-0.7,9.6c-0.2,2.3-1.8,2.3-3.2,2.7c-0.2,0.1-0.6,0.3-0.7,0.5c-0.1,0.2,0.1,0.4,1.1,0.5c0.9,0.1,2,0.1,2.7,0.3
			c0.6,0.2,0.4,0.3,0,0.4c-0.6,0.1-1.6,0.3-1.4,0.7c0.1,0.3,3.4,1.3,5.9,0.4c2.2-0.8,2.6,0.5,4.5,0.2c0.4,0,0.7-0.1,0.8-0.2
			c0.5-0.3,0.1-0.7-0.1-1.1c-0.1-0.2-0.1-0.4,0.4-0.4c0.9,0,1.4-0.3,1.6-0.7C65.2,119.4,64.6,118.9,63,118.8z"/>
		<path fill="#C4F7FF" d="M59.2,113c0.4,1.4,1.1,3.8,1.7,5c0.6,1.1,1.6,1.1,1.5,1.3s-0.9,0.3-1.5-0.2c-0.6-0.5-1.1-2.6-1.4-3.6
			c-0.3-1-0.5-1.6-0.7-2.5C58.7,112,58.8,111.5,59.2,113z"/>
		<path fill="#C4F7FF" d="M57.1,111.9c0,0,0.6,4.6,0.9,5.9c0.3,1.4,0.2,2.5-0.8,2.6s-1.3,0-0.5-0.4c1.2-0.5,0.9-1.9,0.7-2.8
			c-0.2-0.9-0.8-5.5-0.8-5.5S56.8,109.9,57.1,111.9z"/>
		<path fill="#C4F7FF" d="M62.8,121.2c0,0,0.3,0.5-0.5,0.6s-2-0.4-1.3-0.4S62.8,121.5,62.8,121.2z"/>
		<path fill="#C4F7FF" d="M64.7,119.5c0,0,0,0.3-0.6,0.5c-0.7,0.2-1,0-0.7-0.1S64.7,119.5,64.7,119.5z"/>
		<path fill="#C4F7FF" d="M53.4,121.9c0.1,0,1.1,0.4,2.3,0.2c1.2-0.2,2.5-0.7,1.8-0.5c-0.7,0.1-2.3,0.3-3.1,0.1
			c-0.8-0.1-1.1-0.3-1.1-0.3S52.3,121.6,53.4,121.9z"/>
		<path fill="#C4F7FF" d="M50.3,119.7c0,0,0.1,0.1,0.9,0.2c0.8,0.1,1.7,0.1,1.7,0.1s-0.4-0.2-1.1-0.3s-0.8-0.1-0.8-0.1
			S50.1,119.2,50.3,119.7z"/>
		<path fill="#C4F7FF" d="M54.4,116.9c0,0-0.1,0.9-0.7,1.3s-1,0.7-0.5,0.7s1.2-0.5,1.3-1.1c0.1-0.6,0-1.5,0-1.5
			S54.4,115.8,54.4,116.9z"/>
		<path fill="#C4F7FF" d="M59,111.1c-0.3,0.5-1-0.3-0.5-0.5C58.9,110.4,59.3,110.6,59,111.1z"/>
		<path fill="#C4F7FF" d="M54.7,115c0,0.3-0.6,0.5-0.6,0.1C54.1,114.7,54.7,114.2,54.7,115z"/>
	</g>
</g>
<g id="Droplets_1">
</g>
<g id="Droplets_2">
</g>
<g id="Droplets_3">
</g>
<g id="Band_Aids">
</g>
<g id="Rote_Screen_FG">
</g>
<g id="Labels">
</g>
</svg>
