<?xml version="1.0" encoding="utf-8"?>
<!-- Generator: Adobe Illustrator 19.2.0, SVG Export Plug-In . SVG Version: 6.00 Build 0)  -->
<svg version="1.1" xmlns="http://www.w3.org/2000/svg" xmlns:xlink="http://www.w3.org/1999/xlink" x="0px" y="0px"
	 viewBox="0 0 80 180" enable-background="new 0 0 80 180" xml:space="preserve" width="80" height="180" preserveAspectRatio="none">
<g id="Rote_Screen_BG">
</g>
<g id="Barrel_and_Bucket__x28_Ground_x29_">
</g>
<g id="Water_Level_1">
</g>
<g id="Bucket_Pour_3_Water_Level_1">
</g>
<g id="Bucket_Pour_4_Water_Level_1">
</g>
<g id="Water_Level_2">
</g>
<g id="Bucket_Pour_3_Water_Level_2">
</g>
<g id="Bucket_Pour_4_Water_Level_2">
</g>
<g id="Water_Level_3">
</g>
<g id="Bucket_Pour_3_Water_Level_3">
</g>
<g id="Bucket_Pour_4_Water_Level_3">
</g>
<g id="Water_Level_4">
</g>
<g id="Bucket_Pour_3_Water_Level_4">
	<g id="Bucket_Pour_4_Water_Level_3_copy">
	</g>
</g>
<g id="Bucket_Pour_4_Water_Level_4">
</g>
<g id="Water_Level_5">
</g>
<g id="Bucket_Pour_3_Water_Level_5">
</g>
<g id="Bucket_Pour_4_Water_Level_5">
</g>
<g id="Water_Level_6">
</g>
<g id="Bucket_Pour_3_Water_Level_6">
</g>
<g id="Bucket_Pour_4_Water_Level_6">
</g>
<g id="Water_Level_7">
</g>
<g id="Bucket_Pour_3_Water_Level_7">
</g>
<g id="Bucket_Pour_4_Water_Level_7">
</g>
<g id="Water_Level_8">
</g>
<g id="Bucket_Pour_3_Water_Level_8">
</g>
<g id="Bucket_Pour_4_Water_Level_8">
</g>
<g id="Water_Level_9">
</g>
<g id="Bucket_Pour_3_Water_Level_9">
</g>
<g id="Bucket_Pour_4_Water_Level_9">
</g>
<g id="Water_Level_10">
</g>
<g id="Bucket_Pour_3_Water_Level_10_1_">
</g>
<g id="Bucket_Pour_4_Water_Level_10">
</g>
<g id="Layer_69">
</g>
<g id="Puddle_Xtra_Large">
</g>
<g id="Puddle_Large">
</g>
<g id="Puddle_Medium">
</g>
<g id="Puddle_Small">
</g>
<g id="Bucket_Pour_0">
</g>
<g id="Bucket_Pour_1">
</g>
<g id="Bucket_Pour_2_Water_Level_8-10">
</g>
<g id="Bucket_Pour_2_Water_Level_1-7">
</g>
<g id="Bucket_Pour_3">
</g>
<g id="Bucket_Pour_4_1_">
</g>
<g id="Bucket_Pour_4a">
</g>
<g id="Bucket_Pour_5">
</g>
<g id="Barrel_FG">
</g>
<g id="Rote">
</g>
<g id="Hole_1_Stream_1">
</g>
<g id="Hole_1_Stream_2">
</g>
<g id="Hole_1_Stream_3">
</g>
<g id="Hole_1_Stream_3a">
</g>
<g id="Hole_1_Stream_3b">
</g>
<g id="Hole_2_Stream_1">
</g>
<g id="Hole_2_Stream_2">
</g>
<g id="Hole_2_Stream_3">
</g>
<g id="Hole_2_Stream_4">
</g>
<g id="Hole_2_Stream_5">
</g>
<g id="Hole_2_Stream_5a">
</g>
<g id="Hole_2_Stream_5b">
</g>
<g id="Hole_3_Stream_1_1_">
</g>
<g id="Hole_3_Stream_2_1_">
</g>
<g id="Hole_3_Stream_3_1_">
</g>
<g id="Hole_3_Stream_4_1_">
</g>
<g id="Hole_3_Stream_5">
</g>
<g id="Hole_3_Stream_5a">
	<g>
		<path opacity="0.74" fill="#8CD8ED" d="M74.3,173.2c-1.7,0.2-2.5,0-2.9-1.1c-0.4-1.1-2-1.6-2.9-1.5c-0.5-1.5-1.8-5.3-2.6-10.7
			c-1.7-12.5-10.2-97.1-24.2-123.2c-1.6-2.9-3.1-5.7-4.8-8.2C22.8,6.8,4.9,0.7,4.9,0.7C2.1,0.2,1.1,2.3,1.1,2.3
			c0.6,1.6,1.6,3.2,3.6,3.3c8.5,5.8,16.4,13.8,21.2,22.3c21.5,38.5,25,140.9,25,142.6c-2,1.5-4.1,0.5-6.7,1.8
			c-0.2,0.1-0.4,0.2-0.5,0.3c-1.5,1.3,2.3,2.8,4.1,2.9c1.9,0,1.9,1.2,3.2,2.2c1.3,1,5.3,0.3,7-0.1c1.6-0.4,3.7,0.3,5.4,1
			c1.7,0.7,5.2-0.7,6.3-1.2c1.2-0.5,2.7-0.6,4.4-0.2c1.6,0.4,4.2-0.4,4.6-1.7c0-0.1,0-0.1,0-0.2C78.9,173.9,76.1,173,74.3,173.2z"/>
		<path opacity="0.75" fill="#66C0E3" d="M78.9,175.6l-0.2-0.1c-0.4,1.3-3,2.1-4.6,1.7c-1.7-0.4-3.3-0.4-4.4,0.2
			c-1.2,0.5-4.6,1.9-6.3,1.2c-1.7-0.7-3.8-1.4-5.4-1c-1.6,0.4-5.7,1.2-7,0.1c-1.3-1-1.3-2.2-3.2-2.2c-1.8,0-5.6-1.6-4.1-2.9
			c-0.1,0-0.2,0-0.2,0.1c-0.5,0.2-1.2,1-0.7,1.7c0.5,0.7,2.6,1.3,3.9,1.6c1.3,0.3,1.7,1,2.7,1.6s2.6,1.2,4.8,1.2
			c2.3,0,3.8-0.1,5.4-0.5c1.6-0.3,5,1.1,6.2,1c1.2-0.1,3.4-0.7,4.5-1.3c1.1-0.6,2.4-0.2,3.2-0.2s2.8,0.2,4.1-0.5
			c1.4-0.6,1.1-1.8,1-1.8L78.9,175.6z"/>
		<path opacity="0.75" fill="#C4F7FF" d="M52.5,159.6c0.3,7.4,0.5,10.6-0.6,11.4c-0.7,0.5-1.9,0.7-1.9,1.2c0,0.5,2.3,1,2.9,1.1
			c0.6,0,1.1-0.3,0.4-0.4c-0.6-0.1-2.3-0.4-2-0.7c0.3-0.3,1.7-0.4,1.8-1c0.2-1.2,0.1-6.1,0-11.8C52.9,158.9,52.7,158.7,52.5,159.6z"
			/>
		<path opacity="0.75" fill="#C4F7FF" d="M68.5,175.8c0,0-3.5,1.1-4.5,1s-2.1-0.8-0.9-0.9c1.2-0.1,2.2-0.2,3.2-0.4
			C67.2,175.3,69.2,175.4,68.5,175.8z"/>
		<path opacity="0.75" fill="#C4F7FF" d="M58.5,175.9c0,0-4.2,1.3-5.4,0.7c-1.3-0.5-1.5-1,0.2-1C55.1,175.6,57.9,176.1,58.5,175.9z"
			/>
		<path opacity="0.75" fill="#C4F7FF" d="M44.4,173.5c0,0,0.1,0.1,0.2,0.1c0.3,0.2,1,0.6,2,0.7c1.4,0.2,2.8-0.1,1.8-0.2
			c-1-0.1-2.6-0.5-2.4-0.8c0.2-0.3,0.8-0.7,0.8-0.7s-1-0.2-1.7,0.1L44.4,173.5z"/>
		<path opacity="0.75" fill="#C4F7FF" d="M56.4,154.5c0,0,0.8,5.8,0.9,9.3c0.1,3.5,0,9.2-0.3,8.4c-0.4-0.8-0.3-4.4-0.5-8.5
			c-0.2-4-1.1-12.9-1.1-12.9S56.1,148.8,56.4,154.5z"/>
		<path fill="#C4F7FF" d="M51.8,140.7c0.6,7.2,1.4,13.9,0.5,11.4c-0.9-2.5-2.1-18.8-2.1-18.8S51.2,133.4,51.8,140.7z"/>
		<path fill="#C4F7FF" d="M52.7,107.2c0,0,1.8,11,2.5,16.8c0.7,5.5,0.3,8-0.3,4.7c-0.6-3.3-2.1-14.5-2.6-17.7
			C51.7,107.9,51.4,101.5,52.7,107.2z"/>
		<path fill="#C4F7FF" d="M61.1,146.9c0,0,1.3,13.9,2.2,18.7c0.9,4.8,2.1,7.7-0.5,8c-1,0.1,1.3-0.3,0.7-2.3
			c-0.5-2-3.4-24.1-3.4-24.1S60.5,144.6,61.1,146.9z"/>
		<path fill="#C4F7FF" d="M61.1,144c-0.3,0.7-1.8-0.2-1.2-1S61.6,143.1,61.1,144z"/>
		<path fill="#C4F7FF" d="M60.7,169.6c-0.5,0.8-2-1.5-0.9-1.9S61.4,168.3,60.7,169.6z"/>
		<path fill="#C4F7FF" d="M48.8,84.2c-0.5,0.7-1.4-0.8-0.8-1.2C48.6,82.5,49.5,83.1,48.8,84.2z"/>
		<path fill="#C4F7FF" d="M59,153.8c-0.3,0.8-1.6-1.3-0.6-1.5C59.4,152.2,59.3,153.1,59,153.8z"/>
		<path fill="#C4F7FF" d="M20.9,14.5c-0.5,0.8-2-1.5-0.9-1.9S21.6,13.2,20.9,14.5z"/>
		<path fill="#C4F7FF" d="M44.1,75.9c-0.3,0.8-1.6-1.3-0.6-1.5C44.5,74.2,44.4,75.1,44.1,75.9z"/>
		<path fill="#C4F7FF" d="M49.9,88.2c0,0,1.4,8.6,1.6,10c0.2,1.4-0.4,2.1-0.7,0.8c-0.3-1.3-2-11.1-2.4-12.4
			C48.1,85.2,48.7,83.6,49.9,88.2z"/>
		<path fill="#C4F7FF" d="M69.7,171.7c0,0,1.2,0.4,1.4,0.9c0.3,0.5,0.2,0.9-0.2,0.5c-0.4-0.4-0.7-0.6-1.3-0.8
			C69,172.1,68.8,171.7,69.7,171.7z"/>
		<path fill="#C4F7FF" d="M72.4,173.7c0.2,0,1.8,0.2,1.5,0.9c-0.3,0.8-2.4,1.1-2.7,1s-0.3-0.3,0.5-0.7c0.8-0.4,1.6-0.1,1.1-0.6
			C72.2,173.9,71.3,173.8,72.4,173.7z"/>
		<path fill="#C4F7FF" d="M47.1,56.1c0,0,4.1,15.5,6.8,30c2.8,14.4,4.1,22.5,4.1,22.5s-0.5,1.5-1.2-1.4c-0.8-2.9-4.4-25.5-7.2-35.8
			s-4.1-17.1-4.1-17.3C45.2,52.5,45.4,50.1,47.1,56.1z"/>
		<path fill="#C4F7FF" d="M44.6,79.9c0,0,2.8,14.4,4,24.9s1.8,17.8,1.8,17.8s-1,1.5-1.4-2.6s-2.9-25.8-3.9-32s-1.6-9.1-1.6-9.1
			S43.4,76.4,44.6,79.9z"/>
		<path fill="#C4F7FF" d="M38,37.7c0.2,0.4,3.4,7.8,4.8,12.8s1.4,8.5,0.9,7.5s-1.2-6.2-3.4-11.4s-3.3-8.9-3.3-8.9S36,33.7,38,37.7z"
			/>
		<path fill="#C4F7FF" d="M37.2,49.2c0.8,2.3,2.5,7.2,1.5,5.8s-3-6.5-3-6.5S36.2,46.2,37.2,49.2z"/>
		<path fill="#C4F7FF" d="M23.8,15.8c0.2,0.2,7.5,8.5,9,11.3c1.5,2.8,0.6,3.3-0.2,2c-0.8-1.4-4-6.2-6.3-9s-4.1-4.5-3.9-4.5
			C22.7,15.6,22.2,13.8,23.8,15.8z"/>
	</g>
</g>
<g id="Hole_3_Stream_5b">
</g>
<g id="Droplets_1">
</g>
<g id="Droplets_2">
</g>
<g id="Droplets_3">
</g>
<g id="Band_Aids">
</g>
<g id="Rote_Screen_FG">
</g>
<g id="Labels">
</g>
</svg>
