<?xml version="1.0" encoding="utf-8"?>
<!-- Generator: Adobe Illustrator 19.2.0, SVG Export Plug-In . SVG Version: 6.00 Build 0)  -->
<svg version="1.1" xmlns="http://www.w3.org/2000/svg" xmlns:xlink="http://www.w3.org/1999/xlink" x="0px" y="0px"
	 viewBox="0 0 80 86" enable-background="new 0 0 80 86" xml:space="preserve" width="80" height="86" preserveAspectRatio="none">
<g id="Rote_Screen_BG">
</g>
<g id="Barrel_and_Bucket__x28_Ground_x29_">
</g>
<g id="Bucket_Pour_0">
</g>
<g id="Layer_84">
</g>
<g id="Bucket_Pour_1">
</g>
<g id="Bucket_Pour_2_Water_Level_8-10">
</g>
<g id="Bucket_Pour_2_Water_Level_1-7">
</g>
<g id="Bucket_Pour_3">
</g>
<g id="Water_Level_0">
</g>
<g id="Bucket_Pour_3_Water_Level_0">
</g>
<g id="Bucket_Pour_4_Water_Level_0">
</g>
<g id="Water_Level_1">
</g>
<g id="Bucket_Pour_3_Water_Level_1">
</g>
<g id="Bucket_Pour_4_Water_Level_1">
</g>
<g id="Water_Level_2">
</g>
<g id="Bucket_Pour_3_Water_Level_2">
</g>
<g id="Bucket_Pour_4_Water_Level_2">
</g>
<g id="Water_Level_3">
</g>
<g id="Bucket_Pour_3_Water_Level_3">
</g>
<g id="Bucket_Pour_4_Water_Level_3">
</g>
<g id="Water_Level_4">
</g>
<g id="Bucket_Pour_3_Water_Level_4">
	<g id="Bucket_Pour_4_Water_Level_3_copy">
	</g>
</g>
<g id="Bucket_Pour_4_Water_Level_4">
</g>
<g id="Water_Level_5">
</g>
<g id="Bucket_Pour_3_Water_Level_5">
</g>
<g id="Bucket_Pour_4_Water_Level_5">
</g>
<g id="Water_Level_6">
</g>
<g id="Bucket_Pour_3_Water_Level_6">
</g>
<g id="Bucket_Pour_4_Water_Level_6">
</g>
<g id="Water_Level_7">
</g>
<g id="Bucket_Pour_3_Water_Level_7">
</g>
<g id="Bucket_Pour_4_Water_Level_7">
</g>
<g id="Water_Level_8">
</g>
<g id="Bucket_Pour_3_Water_Level_8">
</g>
<g id="Bucket_Pour_4_Water_Level_8">
</g>
<g id="Water_Level_9">
</g>
<g id="Bucket_Pour_3_Water_Level_9">
</g>
<g id="Bucket_Pour_4_Water_Level_9">
</g>
<g id="Water_Level_10">
</g>
<g id="Bucket_Pour_3_Water_Level_10_1_">
</g>
<g id="Bucket_Pour_4_Water_Level_10">
</g>
<g id="Bucket_Pour_0_copy">
</g>
<g id="Layer_69">
</g>
<g id="Puddle_Xtra_Large">
</g>
<g id="Puddle_Large">
</g>
<g id="Puddle_Medium">
</g>
<g id="Puddle_Small">
</g>
<g id="Bucket_Pour_4_1_">
</g>
<g id="Bucket_Pour_4a">
</g>
<g id="Bucket_Pour_5">
</g>
<g id="Rote_x27_s_Leak_1">
</g>
<g id="Rote_x27_s_Leak_2">
</g>
<g id="Rote_x27_s_Leak_3">
</g>
<g id="Rote_x27_s_Leak_4">
</g>
<g id="Barrel_FG">
</g>
<g id="Spigot_Handle_1">
</g>
<g id="Spigot_Handle_2">
</g>
<g id="Rote">
</g>
<g id="Hole_1_Stream_1">
</g>
<g id="Hole_1_Stream_2">
</g>
<g id="Hole_1_Stream_3">
</g>
<g id="Hole_1_Stream_3a">
</g>
<g id="Hole_1_Stream_3b">
</g>
<g id="Hole_2_Stream_1">
</g>
<g id="Hole_2_Stream_2">
</g>
<g id="Hole_2_Stream_3">
</g>
<g id="Hole_2_Stream_4">
</g>
<g id="Hole_2_Stream_5">
</g>
<g id="Hole_2_Stream_5a">
</g>
<g id="Hole_2_Stream_5b">
</g>
<g id="Hole_3_Stream_1_1_">
</g>
<g id="Hole_3_Stream_2_1_">
</g>
<g id="Hole_3_Stream_3_1_">
</g>
<g id="Hole_3_Stream_4_1_">
</g>
<g id="Hole_3_Stream_5">
</g>
<g id="Hole_3_Stream_5a">
</g>
<g id="Hole_3_Stream_5b">
	<path opacity="0.75" fill="#66C0E3" d="M58.7,82.2c-1.4,0.4-3.5,1.1-5.2,0.5c-0.2-0.1-0.4-0.2-0.6-0.2c0.3,0.3,0.7,0.6,1.5,0.8
		c1.6,0.4,2.7-0.2,3.6-0.4c1-0.3,1.5-0.3,2.5-0.1c1.1,0.2,2,0.4,2.8,0.2c0.1,0,0.2-0.1,0.3-0.1C61.9,83,61,81.6,58.7,82.2z"/>
	<path opacity="0.75" fill="#66C0E3" d="M67.6,81.1c-0.9-0.2-1.4,0.1-1.8,0.5c0.2,0,0.4-0.1,0.7-0.1c0.8,0,1.6,0.2,2.4-0.2
		c0.3-0.2,0.4-0.3,0.5-0.4C69,81.2,68.4,81.3,67.6,81.1z"/>
	<path opacity="0.75" fill="#66C0E3" d="M47.1,79.6C47.1,79.6,47.1,79.6,47.1,79.6c-0.3,0.1-0.4,0.3-0.3,0.6c0.2,0.6,1.8,0.9,3.4,1
		c0.8,0,1.4,0.2,1.8,0.3c-0.4-0.4-0.7-0.8-1.4-0.8C49.1,80.8,47.1,80.4,47.1,79.6z"/>
	<path opacity="0.74" fill="#8CD8ED" d="M51.9,81.6c0.3,0.3,0.6,0.5,1,0.8c-0.3-0.3-0.3-0.5-0.3-0.5S52.4,81.7,51.9,81.6z"/>
	<path opacity="0.74" fill="#8CD8ED" d="M63.8,82.7c0.2,0,0.4-0.1,0.6-0.1c0.7-0.2,1-0.6,1.4-0.9c-0.4,0.1-0.8,0.1-0.8,0.1
		S64.4,82.4,63.8,82.7z"/>
	<path opacity="0.74" fill="#8CD8ED" d="M69.4,80.1c-0.5-0.6-1.8-0.5-2.2-1.1c-0.6-1-1.7-1.1-2.8-0.9c-2.2,0.3-2.5-8-3-13.4
		c-1.1-12.2-6-21.9-9.4-28.4c-4.2-7.9-6.8-9.2-8.7-8.9c-1.9,0.4,1.5,4.1,3.1,8.2c12,30.2,7.1,38.6,6.5,40.9c-0.4,2-2.3,0.9-4.9,2.2
		c-0.2,0.1-0.4,0.2-0.5,0.3c-0.3,0.2-0.4,0.5-0.4,0.7c0,0,0,0,0,0.1c0,0.8,2.1,1.1,3.5,1.1c0.7,0,1,0.4,1.4,0.8
		c0.4,0.1,0.7,0.3,0.7,0.3s0.1,0.2,0.3,0.5c0.2,0.1,0.3,0.2,0.6,0.2c1.7,0.6,3.8-0.1,5.2-0.5c2.3-0.6,3.2,0.8,5.1,0.5
		c0.6-0.3,1.2-0.9,1.2-0.9s0.3-0.1,0.8-0.1c0.4-0.4,0.9-0.7,1.8-0.5c0.8,0.2,1.4,0.1,1.8-0.2C69.6,80.7,69.7,80.4,69.4,80.1z"/>
	<path fill="#C4F7FF" d="M50.3,41.7c0,0,4,11.7,4.9,17.4s0.7,9.3,0.3,7.6c-0.4-1.8-0.7-6.7-2.1-12.5s-3.9-12.8-3.9-12.8
		S48.9,38.9,50.3,41.7z"/>
	<path fill="#C4F7FF" d="M60.6,71.1c0,0,0.6,4.5,1.3,5.8c0.9,1.6,2.2,1.7,1.9,2.1c-0.3,0.3-1.2,0.2-1.9-0.7
		c-0.7-0.9-1.3-2.8-1.6-4.8c-0.3-2-0.4-2.1-0.4-3.1C59.9,69.5,60.4,68.8,60.6,71.1z"/>
	<path fill="#C4F7FF" d="M58.5,76.6c0,0,0.5,2,0.1,2.6c-0.4,0.6-2.7,0.3-2,0.2c0.7-0.2,1.6-0.6,1.6-1.3c0-0.7,0-0.8-0.1-1.5
		C57.9,75.8,58.2,74.8,58.5,76.6z"/>
	<path fill="#C4F7FF" d="M54.6,76.1c0,1.1-0.1,1.9-0.9,2.2c-0.9,0.3-2.6,0.5-1.6,0.5s2,0.4,2.5-0.5c0.5-1,0.6-5.5,0.6-5.5
		S54.6,73.6,54.6,76.1z"/>
	<path fill="#C4F7FF" d="M60.7,68c-0.1,0.9-2.1-0.9-1.1-1.3S60.9,66.6,60.7,68z"/>
	<path fill="#C4F7FF" d="M59.1,55.9c-0.5,0.9-1.3-0.3-0.8-1C58.8,54.1,59.7,54.7,59.1,55.9z"/>
	<path fill="#C4F7FF" d="M59.7,59.4c0.1,1.3,0.2,4.2,0.2,4.2s-0.3,0.3-0.6-2.2S59,57,59,57S59.4,56,59.7,59.4z"/>
	<path fill="#C4F7FF" d="M68.8,80.2c0,0,0.3,0.4-0.2,0.6c-0.5,0.1-1.1,0-1.1,0s0.8-0.2,0.9-0.4C68.5,80.1,68.9,79.9,68.8,80.2z"/>
	<path fill="#C4F7FF" d="M65,81.8c-0.1,0.1-0.6,0.6-1.6,0.6c-1,0-1.9-0.5-1.2-0.4c0.7,0.1,1.5,0.1,2.1-0.1
		C64.9,81.6,65.3,81.3,65,81.8z"/>
	<path fill="#C4F7FF" d="M52.3,81.5c0,0,1.2,1,2.2,1c1,0,2.8-0.5,2-0.4c-0.8,0-2.2,0-3-0.3c-0.8-0.4-1.3-0.6-1.3-0.6
		S51.7,81,52.3,81.5z"/>
	<path fill="#C4F7FF" d="M48.7,78.6c-0.2,0.1-1.2,0.5-0.9,1c0.3,0.5,1.8,0.8,1.8,0.8s0.1-0.3-0.4-0.4c-0.5-0.2-1-0.6-0.6-0.8
		s1-0.5,1-0.5S50.2,78.2,48.7,78.6z"/>
	<path fill="#C4F7FF" d="M66.3,78.5c0.3,0.1-0.1,0.6-0.7,0.4S65.4,78.1,66.3,78.5z"/>
	<path fill="#C4F7FF" d="M50,34.2c0,0,1.3,1.7,2.9,4.8c1.6,3.1,1.9,4.7,1.3,4c-0.6-0.6-1.6-3.4-2.6-5.3c-1-1.8-1.9-3-1.9-3
		S48.3,32.2,50,34.2z"/>
	<path fill="#C4F7FF" d="M55.5,45.1c-0.2,0.5-1.3-0.9-0.7-1.2C55.5,43.6,55.8,44.3,55.5,45.1z"/>
</g>
<g id="Droplets_1">
</g>
<g id="Droplets_2">
</g>
<g id="Droplets_3">
</g>
<g id="Band_Aids">
</g>
<g id="Rote_Screen_FG">
</g>
<g id="Labels">
</g>
</svg>
