<?xml version="1.0" encoding="utf-8"?>
<!-- Generator: Adobe Illustrator 19.2.0, SVG Export Plug-In . SVG Version: 6.00 Build 0)  -->
<svg version="1.1" xmlns="http://www.w3.org/2000/svg" xmlns:xlink="http://www.w3.org/1999/xlink" x="0px" y="0px"
	 viewBox="0 0 128 32" enable-background="new 0 0 128 32" xml:space="preserve" width="128" height="32" preserveAspectRatio="none">
<g id="Rote_Screen_BG">
</g>
<g id="Barrel_and_Bucket__x28_Ground_x29_">
</g>
<g id="Bucket_Pour_0">
</g>
<g id="Bucket_Pour_1">
</g>
<g id="Bucket_Pour_2_Water_Level_8-10">
</g>
<g id="Bucket_Pour_2_Water_Level_1-7">
</g>
<g id="Bucket_Pour_3">
</g>
<g id="Layer_75">
</g>
<g id="Water_Level_1">
</g>
<g id="Bucket_Pour_3_Water_Level_1">
</g>
<g id="Bucket_Pour_4_Water_Level_1">
</g>
<g id="Water_Level_2">
</g>
<g id="Bucket_Pour_3_Water_Level_2">
</g>
<g id="Bucket_Pour_4_Water_Level_2">
</g>
<g id="Water_Level_3">
</g>
<g id="Bucket_Pour_3_Water_Level_3">
</g>
<g id="Bucket_Pour_4_Water_Level_3">
</g>
<g id="Water_Level_4">
</g>
<g id="Bucket_Pour_3_Water_Level_4">
	<g id="Bucket_Pour_4_Water_Level_3_copy">
	</g>
</g>
<g id="Bucket_Pour_4_Water_Level_4">
</g>
<g id="Water_Level_5">
</g>
<g id="Bucket_Pour_3_Water_Level_5">
</g>
<g id="Bucket_Pour_4_Water_Level_5">
</g>
<g id="Water_Level_6">
</g>
<g id="Bucket_Pour_3_Water_Level_6">
</g>
<g id="Bucket_Pour_4_Water_Level_6">
</g>
<g id="Water_Level_7">
</g>
<g id="Bucket_Pour_3_Water_Level_7">
</g>
<g id="Bucket_Pour_4_Water_Level_7">
</g>
<g id="Water_Level_8">
</g>
<g id="Bucket_Pour_3_Water_Level_8">
</g>
<g id="Bucket_Pour_4_Water_Level_8">
</g>
<g id="Water_Level_9">
</g>
<g id="Bucket_Pour_3_Water_Level_9">
</g>
<g id="Bucket_Pour_4_Water_Level_9">
</g>
<g id="Water_Level_10">
</g>
<g id="Bucket_Pour_3_Water_Level_10_1_">
</g>
<g id="Bucket_Pour_4_Water_Level_10">
</g>
<g id="Bucket_Pour_0_copy">
</g>
<g id="Layer_69">
</g>
<g id="Puddle_Xtra_Large">
</g>
<g id="Puddle_Large">
</g>
<g id="Puddle_Medium">
</g>
<g id="Puddle_Small">
	<g>
		<path opacity="0.75" fill="#66C0E3" d="M61.6,15c-0.1-0.2-0.3-0.4-0.5-0.6c0.2,1.5-0.9,3.1-6.1,3.1c-7.9-0.1-10.1,0.6-11.5,1.7
			c-1.3,1.1-3.8,1-6.5,0.1c-2.7-0.9-6.8-0.7-9.3-0.6s-4.6-2.9-7.7-3.2s-10.2-1.1-11-2.3C9.1,13,9,12.7,8.9,12.4c0,0.3,0,1.1,1.2,1.7
			c1.5,0.8,9,1.5,10.9,2.3s3.2,2.6,5.4,2.9c2.2,0.2,6.3-0.1,8.3,0.2s3.5,1.1,6,1s3.6-1.7,5.5-2c1.9-0.3,11-0.2,13.2-0.8
			C61.5,17.2,62.1,15.9,61.6,15z"/>
		<path opacity="0.75" fill="#8CD8ED" d="M61.1,14.4c-0.1-0.8-0.6-1.6-1.1-2.1C58.7,11,53,9.9,51.4,9.9s0.1-0.7-1.6-1.9
			c-1.7-1.2-7.9-1.3-7.9-1.3c-1.5,0-11.3-0.7-13.5,0.1c-2.2,0.9-5,0.4-12.8,1.7c-6.3,1.1-7,2.7-6.7,4C9,12.7,9.1,13,9.3,13.2
			c0.7,1.2,7.9,2.1,11,2.3s5.2,3.3,7.7,3.2s6.6-0.2,9.3,0.6c2.7,0.9,5.1,1,6.5-0.1c1.3-1.1,3.5-1.8,11.5-1.7
			C60.2,17.6,61.3,15.9,61.1,14.4z"/>
		<path opacity="0.75" fill="#C4F7FF" d="M60.3,14.9c0,0,0.2,0.8-1.4,1.3c-1.6,0.5-6,1-5,0.6c1-0.4,3.4-0.6,4.7-1.3
			C59.8,14.8,60.7,14.4,60.3,14.9z"/>
		<path opacity="0.75" fill="#C4F7FF" d="M42.6,18.7c0,0-0.7,0.7-1.5,0.6c-0.8-0.1-3.5-0.9-4.8-1c-1.3,0-4.2-0.1-3.8-0.3
			s2.5-0.4,3.6-0.1s3.8,0.8,4.9,0.5C42.3,18.3,43.5,18.2,42.6,18.7z"/>
		<path opacity="0.75" fill="#C4F7FF" d="M25.3,17.2c0,0,0.5,0.6,2.4,0.9S31,18,30.1,18c-0.9,0-2.5-0.3-3.5-0.7S24.7,16.8,25.3,17.2
			z"/>
		<path opacity="0.75" fill="#C4F7FF" d="M10.2,13.1c0,0,0.1,0,0.2,0.1c0.5,0.3,2,1,4.4,1.3c2.9,0.3,7.1,0.8,5.9,0.4
			c-1.1-0.4-5-0.6-6.9-1.3s-2.4-1.2-2.8-1.4c-1-0.4-0.8-0.8-1.2-0.7C9.4,11.6,8.9,12.3,10.2,13.1z"/>
	</g>
</g>
<g id="Bucket_Pour_4_1_">
</g>
<g id="Bucket_Pour_4a">
</g>
<g id="Bucket_Pour_5">
</g>
<g id="Barrel_FG">
</g>
<g id="Rote">
</g>
<g id="Hole_1_Stream_1">
</g>
<g id="Hole_1_Stream_2">
</g>
<g id="Hole_1_Stream_3">
</g>
<g id="Hole_1_Stream_3a">
</g>
<g id="Hole_1_Stream_3b">
</g>
<g id="Hole_2_Stream_1">
</g>
<g id="Hole_2_Stream_2">
</g>
<g id="Hole_2_Stream_3">
</g>
<g id="Hole_2_Stream_4">
</g>
<g id="Hole_2_Stream_5">
</g>
<g id="Hole_2_Stream_5a">
</g>
<g id="Hole_2_Stream_5b">
</g>
<g id="Hole_3_Stream_1_1_">
</g>
<g id="Hole_3_Stream_2_1_">
</g>
<g id="Hole_3_Stream_3_1_">
</g>
<g id="Hole_3_Stream_4_1_">
</g>
<g id="Hole_3_Stream_5">
</g>
<g id="Hole_3_Stream_5a">
</g>
<g id="Hole_3_Stream_5b">
</g>
<g id="Droplets_1">
</g>
<g id="Droplets_2">
</g>
<g id="Droplets_3">
</g>
<g id="Band_Aids">
</g>
<g id="Rote_Screen_FG">
</g>
<g id="Labels">
</g>
</svg>
