<?xml version="1.0" encoding="utf-8"?>
<!-- Generator: Adobe Illustrator 19.2.0, SVG Export Plug-In . SVG Version: 6.00 Build 0)  -->
<svg version="1.1" xmlns="http://www.w3.org/2000/svg" xmlns:xlink="http://www.w3.org/1999/xlink" x="0px" y="0px"
	 viewBox="0 0 128 32" enable-background="new 0 0 128 32" xml:space="preserve" width="128" height="32" preserveAspectRatio="none">
<g id="Rote_Screen_BG">
</g>
<g id="Barrel_and_Bucket__x28_Ground_x29_">
</g>
<g id="Bucket_Pour_0">
</g>
<g id="Bucket_Pour_1">
</g>
<g id="Bucket_Pour_2_Water_Level_8-10">
</g>
<g id="Bucket_Pour_2_Water_Level_1-7">
</g>
<g id="Bucket_Pour_3">
</g>
<g id="Layer_75">
</g>
<g id="Water_Level_1">
</g>
<g id="Bucket_Pour_3_Water_Level_1">
</g>
<g id="Bucket_Pour_4_Water_Level_1">
</g>
<g id="Water_Level_2">
</g>
<g id="Bucket_Pour_3_Water_Level_2">
</g>
<g id="Bucket_Pour_4_Water_Level_2">
</g>
<g id="Water_Level_3">
</g>
<g id="Bucket_Pour_3_Water_Level_3">
</g>
<g id="Bucket_Pour_4_Water_Level_3">
</g>
<g id="Water_Level_4">
</g>
<g id="Bucket_Pour_3_Water_Level_4">
	<g id="Bucket_Pour_4_Water_Level_3_copy">
	</g>
</g>
<g id="Bucket_Pour_4_Water_Level_4">
</g>
<g id="Water_Level_5">
</g>
<g id="Bucket_Pour_3_Water_Level_5">
</g>
<g id="Bucket_Pour_4_Water_Level_5">
</g>
<g id="Water_Level_6">
</g>
<g id="Bucket_Pour_3_Water_Level_6">
</g>
<g id="Bucket_Pour_4_Water_Level_6">
</g>
<g id="Water_Level_7">
</g>
<g id="Bucket_Pour_3_Water_Level_7">
</g>
<g id="Bucket_Pour_4_Water_Level_7">
</g>
<g id="Water_Level_8">
</g>
<g id="Bucket_Pour_3_Water_Level_8">
</g>
<g id="Bucket_Pour_4_Water_Level_8">
</g>
<g id="Water_Level_9">
</g>
<g id="Bucket_Pour_3_Water_Level_9">
</g>
<g id="Bucket_Pour_4_Water_Level_9">
</g>
<g id="Water_Level_10">
</g>
<g id="Bucket_Pour_3_Water_Level_10_1_">
</g>
<g id="Bucket_Pour_4_Water_Level_10">
</g>
<g id="Bucket_Pour_0_copy">
</g>
<g id="Layer_69">
</g>
<g id="Puddle_Xtra_Large">
</g>
<g id="Puddle_Large">
</g>
<g id="Puddle_Medium">
</g>
<g id="Puddle_Small">
	<g>
		<path opacity="0.75" fill="#66C0E3" d="M115.4,13.8c0.5,3.1-5.7,5.2-13.4,6.5c-10.1,1.7-22.5,2-28.7,1.8c-6.2-0.2-17.7,2-26.1,3.4
			c-8.4,1.4-21.5,0-26.2-1.2s-6.9-3.7-8.2-5.1s-4.5-2.1-6.4-2.5c-1.9-0.4-3.7-2.9-3.7-2.9s0.5,1.6,1.8,2.5c2.2,1.7,4.9,1.6,6.9,3.5
			c2,1.9,3.8,3.5,8.3,5.4c4.5,1.9,17.2,2.9,23.3,2.1c6.1-0.7,22.9-4.4,28.4-4.2c5.4,0.1,25.7,0,32.6-1.6c6.9-1.6,10.9-3.2,12-5.8
			C116.2,15.1,115.9,14.4,115.4,13.8z"/>
		<path opacity="0.74" fill="#8CD8ED" d="M6.4,16.7c1.9,0.4,5.1,1.2,6.4,2.5s3.4,3.9,8.2,5.1s17.8,2.5,26.2,1.2
			c8.4-1.4,20-3.6,26.1-3.4c6.2,0.2,18.6-0.1,28.7-1.8c7.6-1.3,13.9-3.4,13.4-6.5c-0.2-1-1-2.1-2.7-3.3c-10-6.9-34.7-8.9-47.9-8.7
			C45.1,2.1,58.8,5.7,50.2,5C48,4.8,35,4.4,29.9,4.7C24.8,5,4.1,6.9,2.7,13.8C2.7,13.8,4.5,16.3,6.4,16.7z"/>
		<path opacity="0.75" fill="#C4F7FF" d="M79.8,6c0,0,13,1.1,15.6,1.8c3.3,0.8,7.7,1.5,1.5,2.6c-4.5,0.8-4.5,1.8-0.3,2.3
			c4.2,0.5,16.1,2,13.1,4s-15.9,2.7-19.7,2.9c-3.8,0.2-7.6,0,0.2-0.8c7.8-0.8,17.1-3.3,12-4.1c-5.2-0.8-16.4-1.5-12.2-3
			C94,10,98.6,9,94.2,8.3c-4.4-0.7-8.5-1.2-12.8-1.4C81.4,6.9,74.1,6,79.8,6z"/>
	</g>
</g>
<g id="Bucket_Pour_4_1_">
</g>
<g id="Bucket_Pour_4a">
</g>
<g id="Bucket_Pour_5">
</g>
<g id="Barrel_FG">
</g>
<g id="Rote">
</g>
<g id="Hole_1_Stream_1">
</g>
<g id="Hole_1_Stream_2">
</g>
<g id="Hole_1_Stream_3">
</g>
<g id="Hole_1_Stream_3a">
</g>
<g id="Hole_1_Stream_3b">
</g>
<g id="Hole_2_Stream_1">
</g>
<g id="Hole_2_Stream_2">
</g>
<g id="Hole_2_Stream_3">
</g>
<g id="Hole_2_Stream_4">
</g>
<g id="Hole_2_Stream_5">
</g>
<g id="Hole_2_Stream_5a">
</g>
<g id="Hole_2_Stream_5b">
</g>
<g id="Hole_3_Stream_1_1_">
</g>
<g id="Hole_3_Stream_2_1_">
</g>
<g id="Hole_3_Stream_3_1_">
</g>
<g id="Hole_3_Stream_4_1_">
</g>
<g id="Hole_3_Stream_5">
</g>
<g id="Hole_3_Stream_5a">
</g>
<g id="Hole_3_Stream_5b">
</g>
<g id="Droplets_1">
</g>
<g id="Droplets_2">
</g>
<g id="Droplets_3">
</g>
<g id="Band_Aids">
</g>
<g id="Rote_Screen_FG">
</g>
<g id="Labels">
</g>
</svg>
