<svg
   version="1.1"
   x="0px"
   y="0px"
   viewBox="0 0 64 71"
   xml:space="preserve"
   width="64"
   height="71"
   preserveAspectRatio="none"
   xmlns="http://www.w3.org/2000/svg"
   xmlns:svg="http://www.w3.org/2000/svg">
<style type="text/css">
	.st0{fill:none;}
	.st338{fill:#E0D4A1;}
	.st339{fill:#ED1C24;}
</style>
<circle class="st0" cx="32" cy="43" r="21.6" />
<path class="st338" d="m 55.3,20.5 c 0,0 -5.8,-7.4 -15.2,-8.8 C 30.7,10.5 22.8,13 22.8,13 l -8,3.3 -2.7,-5 -6.4,17.8 7.8,0.4 c -3,3.9 -4.7,8.7 -4.7,14 0,12.7 10.3,23.1 23.1,23.1 C 44.7,66.6 55,56.3 55,43.5 55,38 53.1,32.9 49.8,29 Z" />
<path class="st339" d="M 57.2,20.4 56.8,19.8 C 56.6,19.5 51.2,12.6 38.9,10.6 27.2,8.7 20,12.5 15.8,14.8 L 12.5,9.1 4.2,29.9 11,30.2 C 8.7,34 7.4,38.3 7.4,43 c 0,13.5 11,24.6 24.6,24.6 13.6,0 24.6,-11 24.6,-24.6 0,-5.5 -1.8,-10.6 -4.9,-14.7 z M 32,64.6 C 20.1,64.6 10.4,54.9 10.4,43 c 0,-4.7 1.5,-9 4.1,-12.6 l 9.9,0.5 -2.8,-5.2 C 24.3,24 29.2,21.5 36,23 c 8.4,1.9 12,7.9 12.1,8 l 0.8,1.3 1,-1.4 c 2.3,3.4 3.7,7.6 3.7,12.1 0,11.9 -9.7,21.6 -21.6,21.6 z m -17.2,-47 1.7,-0.9 c 4.3,-2.3 10.8,-5.8 22,-4 9.5,1.5 14.7,6.3 16.2,7.9 L 49,28.8 c -1.6,-2.1 -5.6,-6.1 -12.5,-7.7 -1.6,-0.4 -3.2,-0.5 -4.6,-0.5 -5.8,0 -9.9,2.6 -12.1,4 l -0.9,0.4 2,3.7 L 7.1,28 12.8,13.8 Z" />
</svg>
