<svg
   version="1.1"
   x="0px"
   y="0px"
   viewBox="0 0 64 71"
   xml:space="preserve"
   width="64"
   height="71"
   preserveAspectRatio="none"
   xmlns="http://www.w3.org/2000/svg"
   xmlns:svg="http://www.w3.org/2000/svg">
<style type="text/css">
	.st0{fill:none;}
	.st335{fill:#259659;}
	.st336{fill:#D9FFA8;}
	.st337{fill:#00FF7B;}
</style>
<circle class="st0" cx="32" cy="43" r="21.6" />
<path class="st336" d="m 55.3,20.5 c 0,0 -5.8,-7.4 -15.2,-8.8 -9.4,-1.2 -17.3,1.3 -17.3,1.3 l -8,3.3 -2.7,-5 -6.4,17.8 7.8,0.4 c -3,3.9 -4.7,8.7 -4.7,14 0,12.7 10.3,23.1 23.1,23.1 12.8,0 23.1,-10.3 23.1,-23.1 0,-5.5 -1.9,-10.6 -5.2,-14.5 z" />
<path class="st337" d="m 12.5,9.4 3.1,5.8 c 3.5,-1.9 8.8,-4.7 17,-4.7 1.9,0 4,0.2 6.2,0.5 12.3,2 17.7,8.9 17.9,9.2 l 0.4,0.6 -5.3,7.6 c 3,4.1 4.7,9 4.7,14.4 0,13.5 -11,24.6 -24.6,24.6 -13.6,0 -24.5,-11.1 -24.5,-24.6 0,-4.5 1.2,-8.7 3.3,-12.3 L 4.2,30.2 12.5,9.4 m 0,-2 c 0,0 -0.1,0 -0.1,0 -0.8,0 -1.5,0.5 -1.7,1.3 L 2.4,29.5 c -0.2,0.6 -0.2,1.3 0.2,1.8 0.4,0.5 0.9,0.9 1.6,0.9 l 3.4,0.2 c -1.4,3.3 -2.2,6.9 -2.2,10.5 0,14.7 11.9,26.6 26.6,26.6 14.7,0 26.6,-11.9 26.6,-26.6 0,-5.1 -1.5,-10.1 -4.3,-14.4 l 4.5,-6.5 c 0.5,-0.7 0.5,-1.7 -0.1,-2.4 l -0.4,-0.6 c -0.2,-0.3 -6.1,-7.8 -19.2,-9.9 -2.2,-0.4 -4.4,-0.5 -6.5,-0.5 -7.4,0 -12.6,2.2 -16.2,4 l -2.2,-4 c -0.3,-0.8 -1,-1.2 -1.7,-1.2 z" />
<path class="st335" d="m 57.2,20.4 -0.4,-0.6 c -0.2,-0.3 -5.6,-7.2 -17.9,-9.2 -11.7,-1.9 -18.9,1.9 -23.1,4.2 l -3.3,-5.7 -8.3,20.8 6.8,0.3 C 8.7,34 7.4,38.3 7.4,43 c 0,13.5 11,24.6 24.6,24.6 13.6,0 24.6,-11 24.6,-24.6 0,-5.5 -1.8,-10.6 -4.9,-14.7 z m -25.2,44.2 c -11.9,0 -21.6,-9.7 -21.6,-21.6 0,-4.7 1.5,-9 4.1,-12.6 l 9.9,0.5 -2.8,-5.2 c 2.7,-1.7 7.6,-4.2 14.4,-2.7 8.4,1.9 12,7.9 12.1,8 l 0.8,1.3 1,-1.4 c 2.3,3.4 3.7,7.6 3.7,12.1 0,11.9 -9.7,21.6 -21.6,21.6 z m -17.2,-47 1.7,-0.9 c 4.3,-2.3 10.8,-5.8 22,-4 9.5,1.5 14.7,6.3 16.2,7.9 l -5.7,8.2 c -1.6,-2.1 -5.6,-6.1 -12.5,-7.7 -1.6,-0.4 -3.2,-0.5 -4.6,-0.5 -5.8,0 -9.9,2.6 -12.1,4 l -0.9,0.4 2,3.7 L 7.1,28 12.8,13.8 Z" />
</svg>
