<svg
   version="1.1"
   x="0px"
   y="0px"
   viewBox="0 0 64 71"
   xml:space="preserve"
   width="64"
   height="71"
   preserveAspectRatio="none"
   xmlns="http://www.w3.org/2000/svg"
   xmlns:svg="http://www.w3.org/2000/svg">
<style type="text/css">
	.st0{fill:none;}
   .st335{fill:#259659;}
   .st336{fill:#D9FFA8;}
   .st337{fill:#00FF7B;}
</style>
<circle class="st0" cx="31.999544" cy="43" r="21.6" />
<path class="st336" d="m 58.299544,29.4 -7.1,-17.6 -2.8,4.8 c 0,0 -7,-5 -18.5,-4.7 -11.5,0.3 -21.9000002,8.9 -21.9000002,8.9 L 13.999544,29 c -3.2,4 -5.1000002,9 -5.1000002,14.5 0,12.7 10.3000002,23.1 23.1000002,23.1 12.8,0 23,-10.4 23,-23.1 0,-5.1 -1.7,-9.8 -4.5,-13.6 z" />
<path class="st335" d="m 59.799544,30.4 -8.3,-20.8 -3.1,5.8 c -4.3,-2.3 -11.4,-6.1 -23.1,-4.2 -12.3,2 -17.7000002,8.9 -17.9000002,9.2 l -0.4,0.6 5.3000002,7.6 c -3.0000002,4.1 -4.7000002,9 -4.7000002,14.4 0,13.5 11.0000002,24.6 24.6000002,24.6 13.6,0 24.6,-11 24.6,-24.6 0,-4.5 -1.2,-8.7 -3.3,-12.3 z m -34.3,-17.2 c 11.1,-1.8 17.6,1.7 22,4 l 1.7,0.9 2,-3.8 5.7,14.2 -13.8,0.7 2,-3.7 -0.8,-0.5 c -2.7,-1.7 -8.5,-5.3 -16.8,-3.4 -6.9,1.6 -10.8,5.6 -12.5,7.7 L 9.2995438,21 C 10.799544,19.4 15.999544,14.7 25.499544,13.2 Z m 28.1,29.8 c 0,11.9 -9.7,21.6 -21.6,21.6 -11.9,0 -21.6,-9.7 -21.6,-21.6 0,-4.4 1.3,-8.4 3.6,-11.8 l 1.1,1.6 0.8,-1.3 c 0,-0.1 3.7,-6.1 12.1,-8 6.8,-1.5 11.7,1 14.5,2.7 l -2.8,5.2 10.2,-0.5 c 2.3,3.4 3.7,7.6 3.7,12.1 z" />
<path class="st337" d="m 51.499544,9.6 8.3,20.8 -6.5,0.3 c 2.1,3.6 3.3,7.8 3.3,12.3 0,13.5 -11,24.6 -24.6,24.6 -13.6,0 -24.6000002,-11.1 -24.6000002,-24.6 0,-5.4 1.8,-10.4 4.7000002,-14.4 L 6.7995438,21 l 0.4,-0.6 c 0.2,-0.3 5.6000002,-7.2 17.9000002,-9.2 2.2,-0.4 4.3,-0.5 6.2,-0.5 8.1,0 13.5,2.8 17,4.7 l 3.2,-5.8 m 0,-2 c -0.7,0 -1.4,0.4 -1.8,1 l -2.2,4 c -3.5,-1.8 -8.8,-4 -16.2,-4 -2.1,0 -4.3,0.2 -6.5,0.5 -13.1,2.1 -19.0000002,9.6 -19.2000002,9.9 l -0.4,0.6 c -0.5,0.7 -0.5,1.6 -0.1,2.4 l 4.5,6.5 c -2.7,4.4 -4.2,9.4 -4.2,14.5 0,14.7 11.9000002,26.6 26.6000002,26.6 14.7,0 26.6,-11.9 26.6,-26.6 0,-3.6 -0.7,-7.2 -2.2,-10.5 l 3.4,-0.2 c 0.6,0 1.2,-0.4 1.6,-0.9 0.4,-0.5 0.4,-1.2 0.2,-1.8 l -8.3,-20.7 c -0.3,-0.7 -1,-1.2 -1.7,-1.3 0,0 -0.1,0 -0.1,0 z" />
</svg>
