<svg
   version="1.1"
   x="0px"
   y="0px"
   viewBox="0 0 58 62"
   xml:space="preserve"
   width="58"
   height="62"
   preserveAspectRatio="none"
   xmlns="http://www.w3.org/2000/svg"
   xmlns:svg="http://www.w3.org/2000/svg">
   <style
     type="text/css" >
	.st335{fill:#259659;}
	.st336{fill:#D9FFA8;}
	.st337{fill:#00FF7B;}
</style><polygon
     class="st336"
     points="14.7,31 14.5,5.7 43.7,5.5 43.7,31 51.8,31.3 29.1,51.8 5.7,31.1 "
     transform="translate(0,5)" /><path
     class="st335"
     d="M 13.4,8.7 H 44.5 V 34.5 H 55 L 29,57.4 2.9,34.5 h 10.5 z m 29.1,2.1 h -27 V 36.6 H 8.4 L 29,54.7 49.6,36.5 h -7.1 z" /><path
     class="st337"
     d="M 29,57.4 2.9,34.5 H 13.4 V 8.7 H 44.5 V 34.5 H 55 L 29,57.4 m 0,2 c 0.5,0 0.9,-0.2 1.3,-0.5 L 56.4,36 C 57,35.5 57.2,34.6 57,33.8 56.7,33 56,32.5 55.1,32.5 H 46.6 V 8.7 c 0,-1.1 -0.9,-2 -2,-2 H 13.4 c -1.1,0 -2,0.9 -2,2 V 32.5 H 2.9 C 2.1,32.5 1.3,33 1,33.8 0.7,34.6 1,35.4 1.6,36 l 26.1,22.9 c 0.4,0.4 0.8,0.5 1.3,0.5 z" /></svg>
