<?xml version="1.0" encoding="utf-8"?>
<!-- Generator: Adobe Illustrator 19.2.0, SVG Export Plug-In . SVG Version: 6.00 Build 0)  -->
<svg version="1.1" id="Layer_1" xmlns="http://www.w3.org/2000/svg" xmlns:xlink="http://www.w3.org/1999/xlink" x="0px" y="0px"
	 viewBox="0 0 128 58" enable-background="new 0 0 128 58" xml:space="preserve" width="128" height="58" preserveAspectRatio="none">
<g>
	<polygon fill="#4191CE" points="121,50.1 126.1,8.3 2.1,5.9 10.8,54.4 	"/>
	<polygon fill="#0659A6" points="116.3,45.3 120,13.5 8,11.1 15,49.2 	"/>
	<g>
		<g>
			<path fill="#FFFFFF" d="M37,36.4c-0.5,0.5-1.1,0.9-2,1.2s-2,0.6-3.4,0.6c-1.9,0-3.5-0.6-4.7-1.9s-1.8-3-1.8-5v-0.5
				c0-2.1,0.6-3.9,1.8-5.2s2.7-2,4.7-2c1.1,0,2.1,0.2,3.1,0.5s1.7,0.8,2.3,1.4v2.9h-2.1l-0.4-1.9c-0.3-0.2-0.6-0.4-1-0.5
				s-0.9-0.2-1.5-0.2c-1.2,0-2.2,0.5-2.9,1.4s-1,2.1-1,3.6v0.5c0,1.4,0.3,2.6,1,3.5s1.7,1.3,2.9,1.3c0.6,0,1,0,1.4-0.1
				s0.6-0.2,0.8-0.3v-2.4l-2-0.2v-2H37V36.4z"/>
			<path fill="#FFFFFF" d="M38.4,25.5v-1.7h5.9v1.7l-1.5,0.3V36l1.5,0.3V38h-5.9v-1.7L40,36V25.8L38.4,25.5z"/>
			<path fill="#FFFFFF" d="M50.4,25.5l-1.1,0.2l2.5,8.5L52,35h0.1l0.2-0.8l2.5-8.5l-1.1-0.2v-1.7h5.2v1.7l-1.2,0.2L53.5,38h-2.9
				l-4.2-12.3l-1.2-0.2v-1.7h5.2V25.5z"/>
			<path fill="#FFFFFF" d="M68.9,31.7h-4.8v4.1h4.6l0.1-1.7H71V38H59.7v-1.7l1.5-0.3V25.8l-1.5-0.3v-1.7h1.5H71v3.9h-2.2L68.7,26
				h-4.6v3.6h4.8V31.7z"/>
			<path fill="#FFFFFF" d="M83.1,23.8v1.7l-1.5,0.3v7.4c0,0.9,0.3,1.6,0.8,2.1s1.2,0.7,2.1,0.7c0.9,0,1.6-0.2,2.1-0.7
				s0.8-1.2,0.8-2.1v-7.4l-1.5-0.3v-1.7h5.9v1.7l-1.5,0.3v7.4c0,1.6-0.5,2.8-1.6,3.7s-2.4,1.3-4.1,1.3c-1.7,0-3.1-0.4-4.1-1.3
				s-1.6-2.1-1.6-3.7v-7.4l-1.5-0.3v-1.7h1.5h2.9H83.1z"/>
			<path fill="#FFFFFF" d="M99.3,23.8c1.6,0,2.9,0.4,3.9,1.3s1.4,1.9,1.4,3.3c0,1.4-0.5,2.5-1.4,3.3c-0.9,0.8-2.2,1.2-3.9,1.2h-2.4
				V36l1.5,0.3V38h-5.9v-1.7L94,36V25.8l-1.5-0.3v-1.7H94H99.3z M96.9,30.6h2.4c0.8,0,1.4-0.2,1.8-0.6s0.6-1,0.6-1.7
				c0-0.7-0.2-1.2-0.6-1.7s-1-0.7-1.8-0.7h-2.4V30.6z"/>
		</g>
	</g>
	<polygon fill="#4191CE" points="121,50.1 126.1,8.3 2.1,5.9 10.8,54.4 	"/>
	<polygon fill="#0659A6" points="116.3,45.3 120,13.5 8,11.1 15,49.2 	"/>
	<g>
		<g>
			<path fill="#FFFFFF" d="M37,36.4c-0.5,0.5-1.1,0.9-2,1.2s-2,0.6-3.4,0.6c-1.9,0-3.5-0.6-4.7-1.9s-1.8-3-1.8-5v-0.5
				c0-2.1,0.6-3.9,1.8-5.2s2.7-2,4.7-2c1.1,0,2.1,0.2,3.1,0.5s1.7,0.8,2.3,1.4v2.9h-2.1l-0.4-1.9c-0.3-0.2-0.6-0.4-1-0.5
				s-0.9-0.2-1.5-0.2c-1.2,0-2.2,0.5-2.9,1.4s-1,2.1-1,3.6v0.5c0,1.4,0.3,2.6,1,3.5s1.7,1.3,2.9,1.3c0.6,0,1,0,1.4-0.1
				s0.6-0.2,0.8-0.3v-2.4l-2-0.2v-2H37V36.4z"/>
			<path fill="#FFFFFF" d="M38.4,25.5v-1.7h5.9v1.7l-1.5,0.3V36l1.5,0.3V38h-5.9v-1.7L40,36V25.8L38.4,25.5z"/>
			<path fill="#FFFFFF" d="M50.4,25.5l-1.1,0.2l2.5,8.5L52,35h0.1l0.2-0.8l2.5-8.5l-1.1-0.2v-1.7h5.2v1.7l-1.2,0.2L53.5,38h-2.9
				l-4.2-12.3l-1.2-0.2v-1.7h5.2V25.5z"/>
			<path fill="#FFFFFF" d="M68.9,31.7h-4.8v4.1h4.6l0.1-1.7H71V38H59.7v-1.7l1.5-0.3V25.8l-1.5-0.3v-1.7h1.5H71v3.9h-2.2L68.7,26
				h-4.6v3.6h4.8V31.7z"/>
			<path fill="#FFFFFF" d="M83.1,23.8v1.7l-1.5,0.3v7.4c0,0.9,0.3,1.6,0.8,2.1s1.2,0.7,2.1,0.7c0.9,0,1.6-0.2,2.1-0.7
				s0.8-1.2,0.8-2.1v-7.4l-1.5-0.3v-1.7h5.9v1.7l-1.5,0.3v7.4c0,1.6-0.5,2.8-1.6,3.7s-2.4,1.3-4.1,1.3c-1.7,0-3.1-0.4-4.1-1.3
				s-1.6-2.1-1.6-3.7v-7.4l-1.5-0.3v-1.7h1.5h2.9H83.1z"/>
			<path fill="#FFFFFF" d="M99.3,23.8c1.6,0,2.9,0.4,3.9,1.3s1.4,1.9,1.4,3.3c0,1.4-0.5,2.5-1.4,3.3c-0.9,0.8-2.2,1.2-3.9,1.2h-2.4
				V36l1.5,0.3V38h-5.9v-1.7L94,36V25.8l-1.5-0.3v-1.7H94H99.3z M96.9,30.6h2.4c0.8,0,1.4-0.2,1.8-0.6s0.6-1,0.6-1.7
				c0-0.7-0.2-1.2-0.6-1.7s-1-0.7-1.8-0.7h-2.4V30.6z"/>
		</g>
	</g>
</g>
</svg>
