<?xml version="1.0" encoding="utf-8"?>
<!-- Generator: Adobe Illustrator 19.2.0, SVG Export Plug-In . SVG Version: 6.00 Build 0)  -->
<svg version="1.1" id="Layer_1" xmlns="http://www.w3.org/2000/svg" xmlns:xlink="http://www.w3.org/1999/xlink" x="0px" y="0px"
	 viewBox="0 0 148 58" enable-background="new 0 0 148 58" xml:space="preserve" width="148" height="58" preserveAspectRatio="none">
<g>
	<polygon fill="#4191CE" points="23.5,48.6 2.1,1 139.6,5.9 145.9,47.5 	"/>
	<polygon fill="#0659A6" points="135.3,10.8 140.5,43.6 26.8,43.6 9.8,6.3 	"/>
	<g>
		<path fill="#FFFFFF" d="M35.3,20.3c1.6,0,2.9,0.4,3.9,1.3c0.9,0.8,1.4,1.9,1.4,3.3c0,1.4-0.5,2.5-1.4,3.3
			c-0.9,0.8-2.2,1.2-3.9,1.2h-2.4v3.2l1.5,0.3v1.7h-5.9v-1.7l1.5-0.3V22.4l-1.5-0.3v-1.7h1.5H35.3z M32.9,27.2h2.4
			c0.8,0,1.4-0.2,1.8-0.6c0.4-0.4,0.6-1,0.6-1.7c0-0.7-0.2-1.2-0.6-1.7c-0.4-0.4-1-0.7-1.8-0.7h-2.4V27.2z"/>
		<path fill="#FFFFFF" d="M47.9,20.3c1.6,0,2.9,0.4,3.8,1.1c0.9,0.7,1.4,1.8,1.4,3.1c0,0.7-0.2,1.3-0.6,1.9s-0.9,1-1.7,1.3
			c0.8,0.2,1.4,0.7,1.8,1.2s0.6,1.3,0.6,2.1v0.7c0,0.3,0.1,0.6,0.2,0.7c0.1,0.2,0.3,0.3,0.6,0.3l0.4,0v1.7h-1.5
			c-0.9,0-1.6-0.2-2-0.8c-0.4-0.5-0.6-1.1-0.6-1.9v-0.8c0-0.7-0.2-1.2-0.6-1.6c-0.4-0.4-0.9-0.6-1.6-0.6h-2.3v3.7l1.5,0.3v1.7h-5.9
			v-1.7l1.5-0.3V22.4l-1.5-0.3v-1.7H43H47.9z M45.9,26.6h2c0.8,0,1.4-0.2,1.8-0.5c0.4-0.3,0.6-0.8,0.6-1.5c0-0.6-0.2-1.1-0.6-1.5
			s-1-0.6-1.7-0.6h-2V26.6z"/>
		<path fill="#FFFFFF" d="M64.4,28.3h-4.8v4.1h4.6l0.1-1.7h2.2v3.9H55.3v-1.7l1.5-0.3V22.4l-1.5-0.3v-1.7h1.5h9.7v3.9h-2.2l-0.1-1.7
			h-4.6v3.6h4.8V28.3z"/>
		<path fill="#FFFFFF" d="M73,22.1l-1.1,0.2l2.5,8.5l0.2,0.8h0.1l0.2-0.8l2.5-8.5l-1.1-0.2v-1.7h5.2v1.7l-1.2,0.2l-4.2,12.3h-2.9
			L69,22.2l-1.2-0.2v-1.7H73V22.1z"/>
		<path fill="#FFFFFF" d="M82.4,22.1v-1.7h5.9v1.7l-1.5,0.3v10.2l1.5,0.3v1.7h-5.9v-1.7l1.5-0.3V22.4L82.4,22.1z"/>
		<path fill="#FFFFFF" d="M102.3,27.6c0,2.1-0.6,3.8-1.8,5.2c-1.2,1.4-2.8,2-4.7,2c-1.9,0-3.5-0.7-4.7-2c-1.2-1.4-1.8-3.1-1.8-5.2
			v-0.2c0-2.1,0.6-3.8,1.8-5.2s2.7-2.1,4.6-2.1c1.9,0,3.5,0.7,4.7,2.1s1.8,3.1,1.8,5.2V27.6z M99.5,27.3c0-1.5-0.3-2.7-0.9-3.6
			s-1.5-1.4-2.7-1.4s-2.1,0.5-2.7,1.4c-0.6,0.9-0.9,2.1-0.9,3.6v0.2c0,1.5,0.3,2.7,0.9,3.6c0.6,0.9,1.5,1.4,2.7,1.4
			c1.2,0,2.1-0.5,2.7-1.4c0.6-0.9,0.9-2.1,0.9-3.6V27.3z"/>
		<path fill="#FFFFFF" d="M109.2,20.3v1.7l-1.5,0.3v7.4c0,0.9,0.3,1.6,0.8,2.1c0.5,0.5,1.2,0.7,2.1,0.7c0.9,0,1.6-0.2,2.1-0.7
			c0.5-0.5,0.8-1.2,0.8-2.1v-7.4l-1.5-0.3v-1.7h5.9v1.7l-1.5,0.3v7.4c0,1.6-0.5,2.8-1.6,3.7c-1.1,0.9-2.4,1.3-4.1,1.3
			c-1.7,0-3.1-0.4-4.1-1.3c-1-0.9-1.6-2.1-1.6-3.7v-7.4l-1.5-0.3v-1.7h1.5h2.9H109.2z"/>
		<path fill="#FFFFFF" d="M129.4,24.9h-2.1l-0.4-2c-0.2-0.2-0.6-0.3-1.1-0.4s-1-0.2-1.5-0.2c-0.8,0-1.4,0.2-1.8,0.5
			c-0.4,0.3-0.6,0.8-0.6,1.3c0,0.5,0.2,0.9,0.7,1.2c0.4,0.3,1.2,0.6,2.3,1c1.6,0.4,2.8,1,3.6,1.7c0.8,0.7,1.2,1.7,1.2,2.8
			c0,1.2-0.5,2.2-1.4,2.9c-1,0.7-2.2,1.1-3.8,1.1c-1.1,0-2.1-0.2-3.1-0.5c-0.9-0.4-1.7-0.9-2.3-1.5v-3h2.2l0.3,2
			c0.3,0.2,0.7,0.4,1.2,0.6c0.5,0.2,1,0.2,1.6,0.2c0.8,0,1.4-0.2,1.8-0.5c0.4-0.3,0.6-0.7,0.6-1.3c0-0.5-0.2-1-0.6-1.3
			s-1.1-0.6-2-0.9c-1.7-0.5-3-1.1-3.8-1.7c-0.9-0.7-1.3-1.6-1.3-2.8c0-1.2,0.5-2.1,1.5-2.8s2.2-1.1,3.7-1.1c1.1,0,2.1,0.2,3,0.5
			c0.9,0.3,1.7,0.8,2.3,1.3V24.9z"/>
	</g>
</g>
</svg>
