<svg id="Layer_1" data-name="Layer 1" xmlns="http://www.w3.org/2000/svg" viewBox="0 0 622 622" width="622" height="622" preserveAspectRatio="none"><defs><style>
      .cls-1 {
        fill: #F2A44B;
        stroke-width: 0px;
      }
    </style></defs><path class="cls-1" d="M347.18,5.55C232.9,7.32,117.44,10.6,4.15,15.04c2.56,58.2,5.44,118.52,9.58,176.09,4.05,57.4,8.97,114.58,14.46,171.62-.66,6.01-1.36,12.03-2.13,18.03-8.09,65-20.26,130.72-23.65,196.06,0,0-2.41,41.63-2.41,41.63,37.14,1.36,82.4,4.25,119.36,3.35,90.85-1.35,181.79-6.65,271.78-16.42,70.31,4.77,140.68,8.63,210.76,11.09l2.3-39.66c2.91-53.53,5.38-109.79,7.25-163.38,2.7-73.37,4.29-147.55,5.18-221.69,4.57-62.34,5.29-128.63,5.37-191.43-91.16-1.31-183.53,1.32-274.82,5.21ZM402.18,550c-96.12-10.58-192.3-18.48-288.41-19.81-5.22-.05-10.44-.06-15.66-.04-5.63-53.63-14.97-107.33-21.75-160.59-1.26-9.72-2.38-19.44-3.36-29.17,8.96-91.69,17.23-183.58,22.69-273.39,76.85,2.61,154.22,4.57,230.83,5.95,14.79.25,30.89.5,47.67.74,53.37,2.2,106.74,4.34,160.15,5.28,2,.03,4,.06,6,.09.91,21.76,2.22,43.53,3.85,65.31,1.29,121.45,4.55,243.41,10.27,364.17.49,10.49,1,20.98,1.54,31.46-50.91,2.76-102.27,6.19-153.82,10.01Z" /></svg>