<svg id="Layer_2" data-name="Layer 2" xmlns="http://www.w3.org/2000/svg" xmlns:xlink="http://www.w3.org/1999/xlink" viewBox="0 0 176.9 160" width="176.9" height="160" preserveAspectRatio="none"><defs><style>
      .cls-1 {
        clip-path: url(#clippath);
      }

      .cls-2, .cls-3 {
        fill: #ffff79;
      }

      .cls-4 {
        fill: #45b6e8;
      }

      .cls-4, .cls-5, .cls-6, .cls-7, .cls-8, .cls-9, .cls-10, .cls-11, .cls-12, .cls-13, .cls-3, .cls-14, .cls-15, .cls-16 {
        stroke-width: 0px;
      }

      .cls-5 {
        fill: #716558;
      }

      .cls-6 {
        fill: #278f48;
      }

      .cls-7 {
        fill: #3b2314;
      }

      .cls-8 {
        fill: #160d47;
      }

      .cls-9 {
        fill: #a4cfcf;
      }

      .cls-10 {
        fill: #fdff79;
      }

      .cls-11 {
        fill: #64b646;
      }

      .cls-12 {
        fill: #fffce6;
      }

      .cls-13 {
        fill: #fff;
      }

      .cls-14 {
        fill: #00669e;
      }

      .cls-15 {
        fill: #0077b4;
      }

      .cls-16 {
        fill: #006b3e;
      }
    </style><clipPath id="clippath"><circle class="cls-3" cx="87.95" cy="80" r="80" /></clipPath></defs><g id="Layer_1-2" data-name="Layer 1"><circle class="cls-10" cx="87.95" cy="80" r="80" /><g><g><circle class="cls-2" cx="87.95" cy="80" r="80" /><g class="cls-1"><g><g><path class="cls-15" d="m34.63,151.53c-1.08.38,2.2,7.36,2.2,7.36l11.45-.53s-12.57-7.21-13.64-6.83" /><path class="cls-4" d="m70.46,139.76s-5.3,9.58-17.34,14.24c-29.21,11.3-45-14.03-46.78-13.49-1.79.54.29,11.09,5.59,16.41,5.3,5.33,13.81,6.27,13.81,6.27,0,0-.89,1.93-1.29,6.12-.4,4.18,2.26,9.02,3.5,9.47,1.25.45,8.55-15.14,8.55-15.14,0,0,17.77,11.44,31.46,7.22,13.68-4.22,16.74-13.84,16.74-13.84l-14.23-17.27Z" /></g><g><path class="cls-15" d="m136.4,112.58s-1.57,9.96-2.97,11.88c-1.4,1.92-6.46-.87-6.46-.87l9.43-11.01Z" /><path class="cls-4" d="m108.04,120.07s9.44,4.5,15.02,1.56c5.58-2.95,9.66-11.31,10.25-13.83.59-2.53,7.16-10.49,9.85-10.13,2.69.36-3.49,7.05-3.49,7.05,0,0,9.09-.09,9.54,2.67.46,2.76-8.76-.37-8.76-.37,0,0,8.95,6.41,7.5,8.67-1.45,2.26-7.48-6.04-7.48-6.04,0,0,3.64,7.29,2.03,8.56-1.61,1.28-4.59-6.93-4.59-6.93,0,0-3.16,11.45-12.12,14.75-8.96,3.3-18.3-4.25-18.3-4.25l.53-1.71Z" /></g><g><path class="cls-15" d="m33.23,132.4s2.95,9.64,4.6,11.35c1.65,1.71,6.28-1.77,6.28-1.77l-10.88-9.58Z" /><path class="cls-4" d="m62.37,135.86s-8.72,5.78-14.66,3.64c-5.94-2.14-11.14-9.85-12.08-12.27-.94-2.42-8.56-9.39-11.17-8.65-2.61.74,4.43,6.5,4.43,6.5,0,0-9.01,1.18-9.08,3.97-.07,2.79,8.62-1.59,8.62-1.59,0,0-7.97,7.59-6.22,9.63,1.75,2.04,6.56-7.03,6.56-7.03,0,0-2.58,7.72-.81,8.76,1.77,1.04,3.57-7.5,3.57-7.5,0,0,4.73,10.89,14.06,12.91,9.33,2.02,17.53-6.76,17.53-6.76l-.76-1.62Z" /></g><g><path class="cls-15" d="m34.43,112.15s1.57,9.96,2.97,11.88c1.4,1.92,6.46-.87,6.46-.87l-9.43-11.01Z" /><path class="cls-4" d="m62.79,119.65s-9.44,4.5-15.02,1.56c-5.58-2.95-9.66-11.31-10.25-13.83-.59-2.53-7.16-10.49-9.85-10.13-2.69.36,3.49,7.05,3.49,7.05,0,0-9.09-.09-9.54,2.67-.46,2.76,8.76-.37,8.76-.37,0,0-8.95,6.41-7.5,8.67,1.45,2.26,7.48-6.05,7.48-6.05,0,0-3.64,7.29-2.03,8.56,1.61,1.28,4.59-6.93,4.59-6.93,0,0,3.16,11.45,12.12,14.75,8.96,3.3,18.3-4.25,18.3-4.25l-.53-1.71Z" /></g><path class="cls-15" d="m77.65,87.93s-13.8,10.85-14.79,13.8c-.98,2.96,9.86,12.32,9.86,12.32l4.93-26.13Z" /><path class="cls-4" d="m138.62,72.51c-4.01-15.43-12.9-22.05-14.91-21.36-2.01.69-9.68,10.96-30.89,6.61-21.2-4.35-26.88-18.46-29.43-19.25-2.55-.79-15.4,5.89-23.53,25.74-8.13,19.86,1.21,31.36,3.38,31.54,1.75.15,12.71-8.14,33.86-9.93-1.96,6.04-6.28,20.12-8.02,31.94-.11.72-.2,1.5-.29,2.31,7.94,3.54,20.48,6.77,34.54,1.58-.01-.08-.03-.16-.05-.24-2.94-16.01-2.89-28.89-2.62-34.9,26.19,3,27.52,8.52,30.34,8.62,3.04.11,11.63-7.23,7.62-22.67Z" /><g><path class="cls-4" d="m55.55,40.24c.86,15.33-10.87,28.45-26.2,29.31C14.02,70.4.9,58.68.04,43.35-.81,28.02,10.92,14.9,26.24,14.04c15.33-.86,28.45,10.87,29.31,26.2" /><path class="cls-13" d="m49.36,41.03c.74,13.36-8.79,24.77-21.29,25.47-12.51.7-23.25-9.57-24-22.93-.75-13.36,8.79-24.77,21.29-25.47,12.51-.7,23.25,9.57,24,22.93" /><path class="cls-8" d="m41.62,46.62c-.14,7.01-4.71,12.6-10.2,12.5-5.5-.11-9.85-5.88-9.71-12.89.14-7.01,4.71-12.6,10.21-12.5,5.5.11,9.84,5.88,9.71,12.88" /><path class="cls-13" d="m29.31,40.04c-.98,2.4-3.16,3.77-4.85,3.08-1.69-.7-2.27-3.2-1.29-5.6.98-2.39,3.16-3.77,4.85-3.08,1.7.7,2.28,3.2,1.29,5.6" /></g><g><path class="cls-4" d="m176.86,49.33c.75,13.42-9.52,24.92-22.95,25.67-13.42.75-24.92-9.52-25.67-22.94-.75-13.43,9.52-24.92,22.94-25.67,13.43-.75,24.92,9.52,25.67,22.95" /><path class="cls-13" d="m171.44,50.02c.66,11.71-7.69,21.69-18.65,22.31-10.95.61-20.36-8.38-21.02-20.09-.66-11.71,7.69-21.69,18.65-22.3,10.96-.61,20.37,8.38,21.02,20.09" /><path class="cls-8" d="m160.95,54.6c.15,6.64-3.95,12.11-9.16,12.23-5.21.12-9.55-5.17-9.7-11.8-.15-6.64,3.95-12.11,9.16-12.23,5.21-.12,9.55,5.17,9.7,11.81" /><path class="cls-13" d="m148.83,48.34c-1.07,2.21-3.2,3.38-4.77,2.62-1.56-.76-1.96-3.16-.89-5.36,1.07-2.21,3.2-3.38,4.76-2.62,1.56.76,1.96,3.16.89,5.37" /></g><g><path class="cls-15" d="m117.87,154.88s10.7-3.42,12.11-5.33c1.41-1.91-2.78-5.9-2.78-5.9l-9.32,11.23Z" /><path class="cls-4" d="m111.77,133s16.41,4,17.67,10.31c.79,3.97-11.78,12.41-11.78,12.41,0,0,10.31,2.1,10.1,4-.21,1.89-7.57.21-7.57.21,0,0,6.52,5.47,5.26,6.31-1.26.84-6.94-4.63-6.94-4.63,0,0,4.84,7.15,3.58,7.78-1.26.63-12.62-8.2-11.15-14.1,1.47-5.89,11.78-6.52,11.99-12.62.14-4.06-11.57-6.31-11.57-6.31l.42-3.37Z" /></g><g><path class="cls-5" d="m68.18,170.24h51.07s-3.58-9.09-8.03-22.18l-44.9-1.13c0,12.43,1.86,23.31,1.86,23.31" /><path class="cls-7" d="m100.47,158.8c-1.34,1.01-2.72,1.99-4.22,2.79-.77.39-1.57.67-2.36.95-.8.28-1.6.54-2.42.77l.25-.35.82,7.27h-1.12l-.36-7.21v-.29s.25-.06.25-.06c.81-.18,1.63-.38,2.43-.61.8-.23,1.62-.45,2.37-.78,1.52-.69,2.96-1.57,4.36-2.49" /></g><path class="cls-7" d="m89.15,151.13c.17,2.63.03,5.27-.06,7.9,0,0-.41-.36-.41-.36,2.2-.45,4.41-.86,6.62-1.23l-.27.4c-.43-2.47-.83-4.95-1.12-7.44.34,1.21.66,2.42.94,3.65.31,1.33.64,2.66.91,4-2.46.51-4.93.97-7.4,1.39.19-2.77.51-5.53.78-8.29h0Z" /><path class="cls-7" d="m75.31,151c-.34,4.24-4.62,7.02-8.45,7.87.44-.27.89-.49,1.32-.73,2.94-1.67,5.96-3.81,7.13-7.13h0Z" /><path class="cls-7" d="m105.12,149.33c1.17,3.32,4.19,5.46,7.13,7.13.44.24.89.46,1.32.73-3.83-.84-8.11-3.62-8.45-7.87h0Z" /><g><path class="cls-12" d="m116.01,132.12l-10.81-1.99c-.26-1.05-.51-2.1-.75-3.15l6.23,2.33.96-12.95-9.16.4c-.1-.6-.2-1.22-.29-1.8l-14.95,4.22-17.68-4.22c-.08.48-.15.96-.23,1.45l-11.13,2.05,3.84,12.4,6.22-4.11c-.1,1.63-.17,3.33-.24,5.07l-10.37,3.5,5.54,11.75,4.61-4.07c-.02,2.98.46,4.18.49,6.97l41.53-2.26c-1.1-3.03-.05-2.09-1.13-5.49l3.5,2.31,3.84-12.4Z" /><polygon class="cls-14" points="86.77 119.39 83.03 123.42 86.19 124.85 82.88 138.81 89.07 143.27 94.97 138.67 87.63 124.71 90.37 123.13 86.77 119.39" /><path class="cls-9" d="m81.92,126.48l5.44-6.48,5.39,7.21,9.74-10.37c-.1-.64-.21-1.28-.31-1.9l-14.95,4.22-17.68-4.22c-.07.42-.13.83-.2,1.25l12.57,10.29Z" /><path class="cls-6" d="m69.35,116.19s-2.1,4.54-3.05,14.59c-.94,10.05,0,19.22,0,19.22,0,0,8.76,1.06,25.87-.04,17.12-1.1,19.03-1.9,19.03-1.9,0,0-3.75-12.74-5.15-17.97-1.73-6.44-3.57-13.24-3.57-13.24l-14.05,15.35-19.1-16Z" /><path class="cls-11" d="m88.91,137.38l14.42-17.56c-.47-1.58-.84-2.97-.84-2.97l-14.15,14.88-18.99-15.53s-.55,1.2-1.22,3.72l20.79,17.46Z" /></g><path class="cls-16" d="m70.26,144.54c.2,2.05-.1,4.03-.92,5.92-.21-2.05.1-4.03.92-5.92h0Z" /><path class="cls-16" d="m77.73,144.51c.48,2,.46,4.01-.09,5.99-.49-2-.45-4,.09-5.99h0Z" /><path class="cls-16" d="m86.07,144.55c.17,2.05-.16,4.03-1,5.9-.18-2.05.16-4.03,1-5.9h0Z" /><path class="cls-16" d="m93.86,143.96c.75,1.91.99,3.91.72,5.94-.75-1.91-.99-3.91-.72-5.94h0Z" /><path class="cls-16" d="m100.47,143.65c.75,1.91.99,3.91.72,5.94-.75-1.91-.99-3.91-.72-5.94h0Z" /><path class="cls-16" d="m107.51,142.72c.75,1.91.99,3.91.72,5.94-.75-1.91-.99-3.91-.72-5.94h0Z" /><g><path class="cls-15" d="m82.79,96s.06.27.23.69c.08.2.67,2.89,5.39,3.96,1.8.41,3.46.43,4.82.46,2.11.04,3.49-.05,3.49-.05,0,0-.95.53-2.53.92-3.22.81-8.9.81-11.05-3.24-.38-.78-.45-1.51-.45-1.99,0-.49.1-.75.1-.75" /><path class="cls-15" d="m83.5,95.4c0,.64-.52,1.16-1.16,1.16s-1.16-.52-1.16-1.16.52-1.16,1.16-1.16,1.16.52,1.16,1.16" /><path class="cls-15" d="m87.03,109.33c3.16.09,5.06-.85,7.54-1.7,0,0-.29.46-.88.98-1.32,1.15-3.29,2.05-5.48,1.33-.77-.24-1.18-.61-1.18-.61" /></g></g></g></g><path class="cls-4" d="m4.06,43.57c-.75-13.37,8.79-24.77,21.29-25.47,3.47-.19,6.81.46,9.83,1.79,1.34-1.17,2.71-2.31,4.12-3.39-3.97-1.81-8.42-2.72-13.07-2.46C10.92,14.9-.81,28.02.04,43.35c.44,7.91,4.15,14.85,9.74,19.61.27-1.23.56-2.45.88-3.65-3.79-4.07-6.26-9.57-6.61-15.73Z" /><path class="cls-13" d="m35.19,19.89c-3.03-1.33-6.36-1.98-9.83-1.79-12.51.7-22.04,12.1-21.29,25.47.35,6.16,2.82,11.66,6.61,15.73,4.14-15.5,12.82-29.13,24.52-39.41Z" /><path class="cls-4" d="m176.86,49.33c-.75-13.43-12.24-23.7-25.67-22.95-1.19.07-2.35.22-3.49.45.9,1.01,1.78,2.05,2.63,3.11.03,0,.05,0,.08,0,10.96-.61,20.37,8.38,21.02,20.09.32,5.79-1.56,11.16-4.87,15.19.3,1.6.55,3.21.75,4.84,6.2-4.73,10.02-12.35,9.55-20.72Z" /><path class="cls-13" d="m171.44,50.02c-.66-11.71-10.07-20.7-21.02-20.09-.03,0-.05,0-.08,0,8.07,10.05,13.76,22.08,16.23,35.26,3.31-4.02,5.2-9.39,4.87-15.19Z" /></g></g></svg>