<svg id="Layer_2" data-name="Layer 2" xmlns="http://www.w3.org/2000/svg" viewBox="0 0 385.35 238.5" width="385.35" height="238.5" preserveAspectRatio="none"><defs><style>
      .cls-1 {
        fill: #716b64;
      }

      .cls-1, .cls-2, .cls-3, .cls-4, .cls-5, .cls-6, .cls-7, .cls-8, .cls-9, .cls-10, .cls-11, .cls-12, .cls-13, .cls-14, .cls-15, .cls-16, .cls-17, .cls-18, .cls-19, .cls-20, .cls-21, .cls-22, .cls-23, .cls-24, .cls-25, .cls-26, .cls-27, .cls-28 {
        stroke-width: 0px;
      }

      .cls-2 {
        fill: #503d2b;
      }

      .cls-3 {
        fill: #26221d;
      }

      .cls-4 {
        fill: #4e4e4e;
      }

      .cls-5 {
        fill: #5b2974;
      }

      .cls-6 {
        fill: #9b9389;
      }

      .cls-7 {
        fill: #71743e;
      }

      .cls-8 {
        fill: #a35986;
      }

      .cls-9 {
        fill: #959058;
      }

      .cls-10 {
        fill: #08839b;
      }

      .cls-11 {
        fill: #09afd0;
      }

      .cls-12 {
        fill: #24144f;
      }

      .cls-13 {
        fill: #cacaca;
      }

      .cls-14 {
        fill: #c5b873;
      }

      .cls-15 {
        fill: #b2b2b2;
      }

      .cls-16 {
        fill: #d97e27;
      }

      .cls-17 {
        fill: #ab61a6;
      }

      .cls-18 {
        fill: #cec679;
      }

      .cls-19 {
        fill: #805c9c;
      }

      .cls-20 {
        fill: #a0924c;
      }

      .cls-21 {
        fill: #818181;
      }

      .cls-22 {
        fill: #fffcee;
      }

      .cls-23 {
        fill: #fff;
      }

      .cls-24 {
        fill: #e4e4e4;
      }

      .cls-25 {
        fill: #eee9d9;
      }

      .cls-26 {
        fill: #f5b752;
      }

      .cls-27 {
        fill: #010101;
      }

      .cls-28 {
        fill: #674e38;
      }
    </style></defs><g id="labels"><g><ellipse class="cls-24" cx="188.28" cy="226.49" rx="97.92" ry="12.01" /><ellipse class="cls-24" cx="329.89" cy="225.09" rx="44.43" ry="4.75" /><g><g><path class="cls-19" d="m366.55,194.24l.08-1.51c.08-1.51-1.18-4.34-1.18-4.34l-1.58,2.76s.08-2.4-1.62-4.78c-.28-.39-.6-.73-.94-1.02,2.22-.72,4.58-1.06,6.91-1.04,2.94,6.05-1.67,9.94-1.67,9.94Z" /><path class="cls-19" d="m375.81,201.03l.43-2.22-3.1.46.7-1.42c.7-1.42,2.28-5.07,2.28-5.07l-2.74,1.08s.79-2.04,1.22-4.27c.27-1.39-.64-3.36-1.37-4.65,3.38.85,6.42,2.52,8.48,5,0,0-5.38.92-4.78,1.13,3.13,1.11,5.43,3.36,6.82,6.08-3.16,2.84-7.94,3.88-7.94,3.88Z" /><path class="cls-19" d="m375.06,209.28c2.57.16,5.85-1.54,5.85-1.54l-2.58-1.05s1.59-.54,3.28-1.26c.99-.42,2.55-1.86,3.68-2.97.34,3.64-.65,7.39-3.06,10.16-3.83-.2-7.17-3.34-7.17-3.34Z" /><path class="cls-26" d="m353.1,190.95c2.07-2.7,4.99-4.56,8.21-5.61.34.3.67.63.94,1.02,1.7,2.39,1.62,4.78,1.62,4.78l1.58-2.76s1.26,2.83,1.18,4.34l-.08,1.51s4.61-3.89,1.67-9.94c1.71.02,3.4.23,5.01.64.72,1.28,1.64,3.26,1.37,4.65-.43,2.22-1.22,4.27-1.22,4.27l2.74-1.08s-1.58,3.65-2.28,5.07l-.7,1.42,3.1-.46-.43,2.22s4.78-1.04,7.94-3.88c.84,1.64,1.35,3.46,1.52,5.31-1.12,1.11-2.69,2.55-3.68,2.97-1.68.72-3.28,1.26-3.28,1.26l2.58,1.05s-3.27,1.7-5.85,1.54c0,0,3.34,3.14,7.17,3.34-2.55,2.93-6.69,4.77-12.55,4.22l2.26-2.24s-10.37-1.18-10.08-1.33c4.6-2.45,11.89-12.13,2.64-16.4-9.73-4.49-15.12,5.23-15.12,5.23l-2.61-.99c.05-.16,2.26-4.83,6.34-10.15Z" /></g><g><path class="cls-16" d="m334.16,209l1.7,14.8s-4.94.35-4.92.94c.01.59,3.58.27,3.58.27,0,0-2.81,1.35-1.59,1.72,1.22.37,4.76-1.54,4.76-1.54l5.3.04.88-13.74-9.7-2.49Z" /><path class="cls-16" d="m336.07,223.55s-5.21-.91-4.42-.11,4.53,1.47,4.53,1.47l-.11-1.36Z" /></g><polygon class="cls-1" points="334.51 211.85 343.9 210.89 345.09 216.08 333.71 216.22 334.51 211.85" /><g><path class="cls-22" d="m303.17,185.28s-3.78,1.94-5.18,4.8l4.54,2.37.65-7.17Z" /><g><path class="cls-26" d="m297.19,191.62s-4.05,11.98-11.39,12.73l-.58,1.15s11.36,5.46,16.92-6.21l2.01-6.59-6.96-1.08Z" /><path class="cls-19" d="m303.63,194.2c.16-.52.34-1.02.52-1.49l-6.17-2.63c-.36.38-.62,1.2-.94,1.72l6.59,2.4Z" /><g><path class="cls-26" d="m288.65,203.93s-3.17-2.04-4.81-2.61c-1.99-.69-3.69-.36-4.01.42-.17.43.2,1.36,1.41,1.6,1.2.24,3.22.03,3.22.03,0,0-5.23,2.46-3.87,3.84.71.72,1.27.36,2.05-.15.78-.51,2.31-2.3,2.31-2.3,0,0-1.54,2.17-1.26,3.18.33,1.2,1.73.74,2.37-.45.69-1.27.6-2.87.6-2.87l1.99-.69Z" /><path class="cls-26" d="m286.18,203.26s-.17-5.8,1.78-4.43c2.39,1.69-.18,4.97-.18,4.97l-1.6-.54Z" /></g></g></g><path class="cls-26" d="m271,123.95c-5.02.16-13.52,1.53-14.46,4.54,5.45-.03,8.23.56,8.23.56l-4.4,5.49,12.68-7.5-2.06-3.09Z" /><path class="cls-16" d="m294.86,133.32c8.09,11.23,5.88,33.96,5.88,33.96-12.7,2.12-25.48-2.55-31.34-12.43-3.56-6-5.16-12.53-2.52-30.69,7.41,1.85,19.89-2.07,27.98,9.16Z" /><path class="cls-26" d="m304.25,141.16c-9.79-25.1-42.63-15.91-42.63-15.91,7.63-1.08,15.82-.42,21.2,2.04,16.47,7.54,18.85,29.15,18.85,29.15l15.84-13.82.43.39v-1.91l-13.69.06Z" /><path class="cls-26" d="m292.93,151.27c-.25-.12-12.2-1.21-13.73,1.55-1.19,2.14,6.97,1.94,6.97,1.94,0,0-5.96,3.58-4.45,4.77,2.45,1.93,13.95-4.76,13.95-4.76l-2.73-3.49Z" /><g><path class="cls-26" d="m301.62,209l1.7,14.8s-4.94.35-4.92.94c.01.59,3.58.27,3.58.27,0,0-2.81,1.35-1.59,1.72,1.22.37,4.76-1.54,4.76-1.54l5.3.04.88-13.74-9.7-2.49Z" /><path class="cls-26" d="m303.53,223.55s-5.21-.91-4.42-.11,4.53,1.47,4.53,1.47l-.11-1.36Z" /></g><g><path class="cls-26" d="m325.86,209l-1.7,14.8s4.94.35,4.92.94c-.01.59-3.58.27-3.58.27,0,0,2.81,1.35,1.59,1.72-1.22.37-4.76-1.54-4.76-1.54l-5.3.04-.88-13.74,9.7-2.49Z" /><path class="cls-26" d="m323.03,223.29s5.21-.91,4.42-.11c-.79.79-4.53,1.47-4.53,1.47l.11-1.36Z" /></g><g><path class="cls-26" d="m357.47,209l-1.7,14.8s4.94.35,4.92.94c-.01.59-3.58.27-3.58.27,0,0,2.81,1.35,1.59,1.72-1.22.37-4.76-1.54-4.76-1.54l-5.3.04-.88-13.74,9.7-2.49Z" /><path class="cls-26" d="m354.64,223.29s5.21-.91,4.42-.11c-.79.79-4.53,1.47-4.53,1.47l.11-1.36Z" /></g><path class="cls-26" d="m304.93,191.4s-1.05,1.74-2.24-8.39c0,0-5.47-.68-6.43-1.03-10.76-3.89-17.19-10.87-11.67-21.1,7.77-14.38,22.43-21.01,38.35-19.14,9.73,1.15,14.72,7.14,17.59,17.59-1.46,8.49-20.26,29.12-20.16,29.12l-1.42.16-14.02,2.77Z" /><path class="cls-6" d="m326.17,199.87c2.62-1.7,30.71-16.33,32.28,2.06,0,6.39,0,10.69,0,10.69l-29.94.56.58,3.29h-13.89s-1.19-3.42-1.19-3.42l-.79,3.42h-12.96s1.7-19.05,1.7-19.05l24.23,2.46Z" /><polygon class="cls-6" points="358.42 209.05 358.42 216.06 346.18 216.15 346.58 211.09 358.42 209.05" /><path class="cls-3" d="m303.47,164.63c-.03.08-.05.16-.08.24.12-.03.25-.04.38-.02.56.09,1,.68.99,1.3-.01.63-.48,1.06-1.04.97-.37-.06-.68-.34-.85-.69-.03-.05-.05-.1-.06-.15h0c-.02-.06-.03-.12-.04-.17-.02-.1-.03-.19-.03-.29,0-.06.01-.11.02-.16.01-.11.03-.22.06-.32.09-.33.24-.62.39-.88.33-.55.87-.89,1.44-.94-.54.16-.97.59-1.17,1.13Z" /><path class="cls-3" d="m310.42,164.63c.03.08.05.16.08.24-.12-.03-.25-.04-.38-.02-.56.09-1,.68-.99,1.3.01.63.48,1.06,1.04.97.37-.06.68-.34.85-.69.03-.05.05-.1.06-.15h0c.02-.06.03-.12.04-.17.02-.1.03-.19.03-.29,0-.06-.01-.11-.02-.16-.01-.11-.03-.22-.06-.32-.09-.33-.24-.62-.39-.88-.33-.55-.87-.89-1.44-.94.54.16.97.59,1.17,1.13Z" /><path class="cls-27" d="m292.32,168.39s18.57,4.22,32.44,1c0,0-6.41,10.93-22.21,9.48-4.84-2.03-8.03-5.75-10.23-10.48Z" /><path class="cls-16" d="m306.83,181.97c.57.38,1.12.77,1.66,1.19.54.41,1.07.83,1.59,1.26l-.46.19c.05-.95.11-1.9.19-2.85l.04-.49.39.3c.33.26.76.46,1.18.63.43.17.88.29,1.33.37.46.07.93.11,1.4.11.47,0,.94-.04,1.42-.1-.91.28-1.89.41-2.86.33-.49-.05-.97-.14-1.44-.29-.48-.15-.92-.35-1.36-.65l.43-.19c-.04.95-.1,1.91-.17,2.86l-.04.56-.41-.37c-.5-.45-.99-.92-1.47-1.4-.49-.47-.96-.96-1.41-1.47Z" /><path class="cls-25" d="m297.6,171.57s14.84,2.54,25.29.2c.66-.66,1.28-1.47,1.86-2.38,0,0-12.26,2.52-28.93-.39l1.78,2.57Z" /><path class="cls-8" d="m317.68,175.89s-7.6-.86-10.93-.06c-3.31.79-5.24,2.55-5.24,2.55l.98.48s7.96,1.47,15.19-2.97Z" /><g><path class="cls-26" d="m363.26,123.95c5.02.16,13.52,1.53,14.46,4.54-5.45-.03-8.23.56-8.23.56l4.4,5.49-12.68-7.5,2.06-3.09Z" /><path class="cls-16" d="m339.4,133.32c-8.09,11.23-5.88,33.96-5.88,33.96,12.7,2.12,28.5-7.36,31.34-12.43,2.85-5.07,6.18-8.4,2.52-30.69-7.41,1.85-19.89-2.07-27.98,9.16Z" /><path class="cls-26" d="m330.02,141.16c9.79-25.1,42.63-15.91,42.63-15.91-7.63-1.08-15.49-.42-20.86,2.04-16.47,7.54-19.19,29.15-19.19,29.15l-15.84-13.82-.43.39v-1.91s13.69.06,13.69.06Z" /><g><path class="cls-26" d="m332.06,150.63c.26-.07,12.19,1.3,13.12,4.32.73,2.34-7.22.48-7.22.48,0,0,5.1,4.72,3.39,5.57-2.79,1.39-12.68-7.5-12.68-7.5l3.39-2.86Z" /><ellipse class="cls-26" cx="332.59" cy="159.98" rx="4.24" ry="4.01" /></g></g><g><path class="cls-16" d="m296.14,160.7l2.77-1.72s1.09-2.14.41-3.55c-.68-1.41-2.33-5.91-3.55-5.4-1.22.51.46,4.78.46,4.78,0,0-2.96-2.56-4.01-1.85-1.05.71,2.62,3.24,2.62,3.24,0,0-2.73.13-3.08,1.08-.36.96,2.16,1.7,2.16,1.7l2.22,1.72Z" /><path class="cls-16" d="m300.49,156.34s1.04-2.21,1.47-3.98c.22-.91.29-1.7-.03-2.01-.93-.93-2.93,1.85-3.24,4.01l1.79,1.98Z" /></g><g><path class="cls-16" d="m322.07,160.7l-2.77-1.72s-1.09-2.14-.41-3.55c.68-1.41,2.33-5.91,3.55-5.4,1.22.51-.46,4.78-.46,4.78,0,0,2.96-2.56,4.01-1.85,1.05.71-2.62,3.24-2.62,3.24,0,0,2.73.13,3.08,1.08.36.96-2.16,1.7-2.16,1.7l-2.22,1.72Z" /><path class="cls-16" d="m317.72,156.34s-1.04-2.21-1.47-3.98c-.22-.91-.29-1.7.03-2.01.93-.93,2.93,1.85,3.24,4.01l-1.79,1.98Z" /></g><path class="cls-25" d="m300.11,155.29c-1.16-1.75-2.82-2.46-4.22-1.59-1.87,1.15-2.58,4.67-1.59,7.86.99,3.18,3.31,4.82,5.18,3.67,1.87-1.16,2.58-4.67,1.59-7.86-.25-.8-.58-1.5-.97-2.08" /><path class="cls-3" d="m298.81,159.04c.11,1.51-.86,2.84-2.17,2.99-1.31.14-2.45-.96-2.56-2.47-.11-1.51.86-2.84,2.17-2.99,1.3-.14,2.45.96,2.56,2.47Z" /><path class="cls-25" d="m316.06,156c1.31-1.75,3.1-2.4,4.54-1.46,1.92,1.26,2.49,4.89,1.29,8.1-1.21,3.22-3.74,4.8-5.66,3.55-1.92-1.26-2.49-4.89-1.29-8.1.3-.8.69-1.51,1.12-2.09" /><path class="cls-3" d="m314.4,160.11c-.19,1.54.77,2.95,2.14,3.14,1.37.2,2.64-.89,2.83-2.42.19-1.54-.77-2.95-2.14-3.14-1.37-.2-2.64.89-2.82,2.43Z" /><path class="cls-22" d="m323.98,185.14l2.54,15.21c-10.71.26-13.31.3-24.95.53l1.35-14.78c8.33,3.93,16.33,1.36,21.06-.96Z" /><path class="cls-1" d="m311.55,200.65c.14,1.14.2,2.28.25,3.43.04,1.14.05,2.28.03,3.43l-.28-.29c.8.03,1.6.09,2.4.16.8.06,1.6.15,2.4.27-.8.07-1.61.11-2.41.13-.8.03-1.61.03-2.41.02h-.28s0-.29,0-.29c-.02-1.14,0-2.28.03-3.43.06-1.14.11-2.28.25-3.43Z" /><g><g><path class="cls-26" d="m345.43,186.02s-6.31,4.43-11.37,4.46c-5.07.03-9.59-5.66-9.59-5.66l-2.35,4.04s-.69,6.66,8.46,8.9c9.16,2.24,15.36-10.73,15.36-10.73l-.52-1Z" /><g><path class="cls-26" d="m344.19,187.19s1.95-3.22,3.18-4.46c1.48-1.49,3.16-1.94,3.78-1.38.35.31.42,1.31-.56,2.06-.97.75-2.87,1.44-2.87,1.44,0,0,5.78-.09,5.16,1.75-.32.95-.98.88-1.9.77-.92-.11-3.08-1.05-3.08-1.05,0,0,2.33,1.27,2.53,2.3.23,1.22-1.23,1.43-2.33.64-1.18-.84-1.8-2.32-1.8-2.32l-2.82,4.07.73-3.82Z" /><path class="cls-26" d="m346.11,185.5s-2.4-5.29-3.55-3.19c-1.41,2.57,2.35,4.38,2.35,4.38l1.2-1.19Z" /></g></g><g><path class="cls-19" d="m329.06,188.86l-4.42,5.9c-.48-.46-.87-.94-1.19-1.41l4.25-5.44c.42.33.88.65,1.36.95Z" /><path class="cls-22" d="m320.87,188.12l3.6-3.3s1.27,1.6,3.22,3.09l-4.25,5.44c-1.55-2.3-2.58-5.23-2.58-5.23Z" /></g></g><path class="cls-19" d="m302.92,186.09l-.07-1.62c5.7,2.7,14.33,2.31,21.73-.69l.25,1.36c-4.73,2.31-13.57,4.89-21.9.96Z" /></g><path class="cls-18" d="m90.65,158.75s11.72,9.33,8.13,19.07c0,0-3.82,6.36-19.26.58-8.24-3.08,11.13-19.65,11.13-19.65" /><path class="cls-18" d="m58.74,195.76s-6.48,4.71-9.98,6.05c-3.5,1.34-8.74.98-8.74.98,0,0-11.4,15.89-14.85,10.2-6.18-10.19,8.41-19.64,8.41-19.64,0,0-20.63,14.94-26.01,5.44-4.8-8.48,16.91-18.19,16.91-18.19,0,0-21.55,8.62-24.33-1.26-2.12-7.53,18.32-11.51,18.32-11.51-8.43-.54-12.46-7.06-7.51-13.51,3.09-4.01,7.32-1.47,12.97,2.78s17.21,3.11,17.21,3.11l17.6,35.55Z" /><path class="cls-17" d="m77.18,135.77c3.1-5.3,16.98-12.44,20.65-1.28,1.39,10.63,2.65,30.68-5.09,43.35-10.92,17.89-42.6,23.15-42.6,23.15,0,0-1.43-.28-3.73-4.72-2.3-4.44,4.79-12.64,4.79-12.64,0,0-9.38,5.69-11.68,1.25-2.3-4.44,6.34-10.06,6.34-10.06,0,0-9.47-.87-10.79-4.34-1.33-3.47,7.39-4.48,7.39-4.48,0,0-.74.06-3.43-1.81-2.69-1.87-2.87-4.09-2.87-4.09,0,0,12.3-2.4,27.71-10.96,6.15-3.42,10.41-8.5,13.31-13.37Z" /><path class="cls-11" d="m97.83,134.49c.68,5.22,1.33,12.72.9,20.49l-31.79-7.8c4.53-3.25,7.85-7.41,10.24-11.42,3.1-5.3,16.98-12.44,20.65-1.28Z" /><path class="cls-10" d="m98.74,154.99l-31.79-7.8c2.35-1.68,4.36-3.61,6.09-5.63l25.83,7.46c.02,1.94-.02,3.94-.14,5.96Z" /><g><path class="cls-14" d="m185.95,210.3c2.95,1.67,6.66,1.08,6.66,1.08,0,0,7.19-6.75,10.88-5.9,10.1,2.34-2.03,7.15-2.03,7.15,0,0,9.8,4.53,6.68,8.82-3.12,4.29-8.39-2.49-8.39-2.49,0,0,.71,4.88-3.19,5.49-3.9.61-3.81-4.16-3.81-4.16,0,0-5.19.03-12.36-.21-14.83.37-12.88-4.09-12.88-4.09l5.33-8.6s10.16,1.22,13.11,2.9" /><path class="cls-17" d="m178.29,184.52s5.02,2.45,7.44,8.54c2.43,6.09,4.46,18.39,4.46,18.39l-6.97-.67s-.07,4.97-3.02,5.27c-2.94.31-3.24-4.42-3.24-4.42,0,0-.78,5.83-3.52,6.12-2.75.29-2.28-4.72-2.28-4.72,0,0,.06.59-1.38,1.93-1.45,1.34-2.27,1.03-2.27,1.03,0,0,5.81-8.94,4.63-20.12-.55-5.3-3.88-10.5-3.88-10.5l10.03-.85Z" /><path class="cls-20" d="m183.77,189.48c1.09,1.71,2.41,4,3.68,6.82,3.7,8.18,2.4,13.02,2.4,13.02,0,0-2.96.49-11.51,1.95-8.69,1.48-8.99,1.17-8.99,1.17,0,0,.28-6.81-.67-13.14-.4-2.66-.68-6.19-1.19-8.61-.2.02,9.26-1.27,16.28-1.21Z" /><polygon class="cls-7" points="179.81 191.16 182.71 204.33 170.88 205.69 171.08 193.89 179.81 191.16" /><path class="cls-20" d="m173.39,197.86c.21.91,1.12,1.47,2.03,1.26s1.47-1.12,1.26-2.03-1.12-1.47-2.03-1.26-1.47,1.12-1.26,2.03Z" /></g><path class="cls-18" d="m244.6,150.65s14.05-5.19,20.53,2.93c0,0,3.46,6.56-9.49,16.77-6.91,5.45-11.04-19.71-11.04-19.71" /><path class="cls-18" d="m262.05,197.23s-3.04,7.94-4.12,11.62c-1.05,3.6-3.22,8.04-3.22,8.04,0,0,4.82-7.12,9.73,1.23,2.14,3.63-6.31,7.98-12.42,7.99-9.51,0-8.73-8.6-8.73-8.6,0,0,3.53,10.77-7.38,10.44-9.74-.29-8.24-9.28-8.24-9.28,0,0,5.08,11.17-9.55,8.05-7.65-1.63-4.48-9.53-4.48-9.53,0,0-1.15,6.62-8.57,4.16-9.3-3.09-3.68-8.96,3.32-12.75,6.48-3.51,10.49-14.74,10.49-14.74l43.17,3.38Z" /><path class="cls-9" d="m215.77,212.8c-1.38,3.75-2.17,7.35-2.34,10.31-1.31-2.39-1.27-6.66.36-11.05,1.62-4.39,4.36-7.66,6.91-8.63-1.79,2.36-3.54,5.61-4.93,9.36" /><path class="cls-17" d="m211.47,126.28s37.42,14.57,49.72,31.55c12.3,16.98-2.19,47.75-2.19,47.75,0,0-.53,1.92-5.04,3.18-4.81,1.34-10.2-11.27-10.2-11.27,0,0,1.63,10.85-3.35,11.26-4.98.41-6.84-9.73-6.84-9.73,0,0-4.45,8.4-8.17,8.28-3.71-.11-1.28-8.54-1.28-8.54,0,0-.23.71-2.99,2.47-2.76,1.76-5.85.16-5.85.16,0,0,7.15-16.15,5.19-33.68-1.96-17.52-16.61-29.36-16.61-29.36l7.61-12.07Z" /><g><path class="cls-14" d="m131.69,211.71c-2.77,1.96-6.51,1.76-6.51,1.76,0,0-7.84-5.99-11.43-4.76-9.81,3.35,2.74,6.91,2.74,6.91,0,0-9.28,5.5-5.75,9.45,3.54,3.95,8.1-3.33,8.1-3.33,0,0-.21,4.93,3.73,5.14,3.94.21,3.37-4.53,3.37-4.53,0,0,5.18-.51,12.29-1.48,14.8-1.14,12.39-5.36,12.39-5.36l-6.18-8.01s-9.98,2.25-12.75,4.21" /><path class="cls-17" d="m136.69,185.29s-4.74,2.95-6.53,9.25c-1.79,6.31-2.02,18.74-2.02,18.74l6.32-1.37s.58,4.93,3.54,4.94c2.96,0,2.77-4.73,2.77-4.73,0,0,1.37,5.72,4.13,5.73,2.76,0,1.79-4.93,1.79-4.93,0,0,0,.59,1.57,1.78,1.58,1.19,2.37.8,2.37.8,0,0-6.68-8.3-6.65-19.55.01-5.33,2.79-10.84,2.79-10.84l-10.06.17Z" /><path class="cls-5" d="m140.74,201.14s-.09.07-.24.22c-.16.14-.41.34-.75.54-.68.4-1.74.8-3.06.92-1.17.1-2.42-.01-3.53-.41-1.17-.42-2.59-1.49-2.28-2.91.36-1.9,2.73-2.46,4.36-2.31.11.01.21.02.32.04.44.06.87.18,1.29.36.89.39,1.69,1.34,1.12,2.32-.7,1.22-2.62,1.3-3.76.73-.43-.21-.88-.67-.72-1.2.25-.83,1.34-.96,2.05-.77.2.06.3.11.3.11,0,0-.1-.04-.3-.08-.63-.11-1.7.05-1.88.8-.06.25.09.51.31.68.22.18.51.28.82.36.81.2,1.81.08,2.48-.44.22-.17.4-.4.46-.67.16-.67-.49-1.17-1.04-1.39-.37-.16-.77-.26-1.18-.31-.82-.11-1.68-.04-2.47.24-.77.26-1.56.82-1.72,1.63-.24,1.18,1.02,2,1.96,2.37,1.07.42,2.26.6,3.41.54,1.31-.06,2.74-.36,3.81-1.17.17-.13.26-.2.26-.2" /></g><path class="cls-5" d="m197.81,51.8c14.54-5,32.92.85,44.11,13.88,22.15,25.79-12.93,39.87-13.41,45.38-.91,10.45,10.65,15.26,10.65,15.26,0,0-35.9,21.81-51.8-16.36-11.07-26.56-4.09-53.16,10.45-58.16Z" /><path class="cls-17" d="m226.6,51.22s-63.55-35.93-115.33,4.8c-51.78,40.73-36.84,99.77,16.88,131.82,0,0,34.62,6.02,72.28,0l26.17-136.62Z" /><path class="cls-20" d="m204.77,165.16c-5.59,1.55-19.71,4.03-52.19,3.44-32.23-.58-47.39-3.37-53.69-5.04,7.73,9.06,17.57,17.3,29.26,24.27,0,0,2.92.22,5.13.53-1.21,2.05-4.05,6.18-4.93,10.45-1.65,8.02-.03,12.81-.03,12.81,0,0,3.1-.23,11.91.17,6.2.28,8.09.17,8.09.17,0,0-1.54-6.32-1.05-12.33.25-3.13.74-6.96,1.37-9.63,16.85,2.87,49.04-1.73,51.79-2.16l4.34-22.68Z" /><path class="cls-7" d="m152.58,168.6c-32.23-.58-47.39-3.37-53.69-5.04,2.14,2.51,4.45,4.96,6.91,7.33,6.1,1.34,20.82,3.8,48.9,4.52,28.85.75,43.1-1.74,48.71-3.15l1.36-7.1c-5.59,1.55-19.71,4.03-52.19,3.44Z" /><path class="cls-20" d="m125.36,177.33l5.04-.51-.93-9.14c-1.8-.12-3.51-.25-5.13-.38l1.02,10.03Z" /><path class="cls-20" d="m174.65,168.5l-.06,9.27,5.07.03.06-9.51c-1.6.08-3.29.15-5.07.2Z" /><circle class="cls-20" cx="148.81" cy="172.37" r="1.77" /><path class="cls-7" d="m145.36,175.56c-.04.8,0,1.59.02,2.39l.07,2.39.13,4.78-.21-.22c3.24.18,6.48.39,9.72.63l-.24.27c-.36-1.63-.67-3.26-1-4.89-.34-1.63-.62-3.27-.93-4.91.41,1.62.85,3.22,1.22,4.85.39,1.62.79,3.24,1.15,4.86l.06.29-.3-.02c-3.24-.18-6.48-.4-9.72-.64l-.21-.02v-.2c-.03-1.6,0-3.19.02-4.79,0-.8.03-1.6.06-2.39.04-.8.05-1.6.14-2.39Z" /><path class="cls-7" d="m180.09,176.2c.72,1.11,1.55,2.14,2.47,3.05.93.91,1.94,1.72,3.07,2.33.54.35,1.14.59,1.73.85.61.21,1.22.42,1.85.55,1.26.33,2.57.37,3.9.42-.65.09-1.32.21-1.99.23-.67-.01-1.35,0-2.01-.13-1.34-.18-2.63-.67-3.82-1.33-1.16-.69-2.24-1.55-3.12-2.57-.87-1.02-1.62-2.16-2.09-3.41Z" /><path class="cls-7" d="m124.98,174.15c-.4,1.61-1.37,3.07-2.67,4.16-.65.54-1.4.97-2.21,1.23-.79.3-1.66.34-2.47.3.8-.22,1.57-.43,2.27-.79.71-.35,1.38-.75,1.97-1.27.61-.49,1.16-1.06,1.67-1.67.5-.62.99-1.26,1.43-1.96Z" /><path class="cls-11" d="m79.91,123.59c2,14.08,8.59,27.83,19.08,40.09,11.22,4.22,32.88,5.85,56.34,6.21,18.92.29,37.66-.15,48.97-2.27l7.72-40.32c-11,4.5-29.55,9.64-56.86,9.64s-56.59-7.28-75.26-13.36Z" /><path class="cls-11" d="m212.03,127.3c-.52.21-1.06.43-1.61.64l-7.57,16.6s14.7,4.87,17.38,21.43l26.41-21.36c-17.96-12.73-34.61-17.31-34.61-17.31Z" /><path class="cls-10" d="m79.91,123.59c.27,1.94.64,3.86,1.09,5.78,20.88,6.51,48.28,12.87,75.7,12.87,23.29,0,41.07-3.48,53.91-7.55l1.41-7.39c-11,4.5-29.55,9.64-56.86,9.64s-56.59-7.28-75.26-13.36Z" /><path class="cls-10" d="m244.93,143.43c-.07-.05-.13-.09-.2-.14-.5-.34-1-.68-1.5-1.01-.04-.02-.07-.05-.11-.07-1.09-.72-2.18-1.41-3.25-2.07h0s-21.97,18.27-21.97,18.27c.73,1.53,1.34,3.21,1.81,5.06.02.04.04.08.05.13.04.19.09.37.13.56.02.07.03.14.04.21.11.52.22,1.05.3,1.6l26.41-21.36c-.57-.4-1.14-.8-1.7-1.19Z" /><path class="cls-23" d="m205.2,107.84s-11.43-5.47-13.74-4.23c-2.31,1.24-2.89,13.52-2.89,13.52l16.63-9.29Z" /><path class="cls-17" d="m175.75,141.6s-6.93-2.57-7.37-6.09c-.44-3.52,7.32-5.87,17.17-10.42,13.26-6.12,24.19-21.43,24.19-21.43,0,0-8.1,7.18-14.94,10.42-4.69,2.22-15.12,6.9-32.73,9.39-17.61,2.5-37.28-2.35-49.91-6.46-12.62-4.11-21.43-10.86-21.43-10.86l.15.88,5.43,14.09c.88,2.44,2.41,6.57,3.64,8.39,7.5,11.12,22.71,11.74,22.71,11.74-1.34-5.89,2.87-9.77,2.87-9.77,0,0,3.78,15.89,15.79,17.21,0,0-4.98-6.35-2.92-9.91,0,0,8.45,11.46,27.3,9.91,0,0-6.35-2.17-6-9.75,0,0,6.56,4.32,16.05,2.66Z" /><path class="cls-5" d="m212.33,102.31c0,1.01-.82,1.82-1.82,1.82s-1.82-.81-1.82-1.82.82-1.82,1.82-1.82,1.82.81,1.82,1.82" /><path class="cls-5" d="m167.55,141.28c-2.54-.51-5-1.41-7.25-2.74-.41-.24-.8-.52-1.21-.79-.12,2.59-.02,5.18,1.34,7.47.56.95,1.28,1.82,2.13,2.53.08.07.17.13.25.2-5.2.06-10.66-.96-15.32-3.33-3.56-1.81-6.74-4.27-9.24-7.4.05.06-.68,1.39-.75,1.57-.22.56-.38,1.15-.43,1.76-.1,1.28.32,2.6.79,3.77.36.88.81,1.71,1.29,2.51.16.27.34.53.51.79-.18-.01-.41-.09-.61-.13-1.43-.29-2.79-1.04-4-1.83-3.14-2.06-5.4-5.23-7.15-8.5-.95-1.82-1.77-3.72-2.38-5.69.43,2.02,1.1,4,1.93,5.91.84,1.91,1.87,3.74,3.14,5.43,1.44,1.92,3.2,3.53,5.26,4.76,1.1.66,2.32,1.12,3.56,1.45,1.17.31,2.41.37,3.56.71-.36-.39-.56-.76-.82-1.1-.39-.52-.76-1.06-1.1-1.61-.64-1.03-1.2-2.12-1.66-3.25-.39-.96-.85-2.13-.62-3.18.09.07,1.17,1.15,1.66,1.58.98.85,2.02,1.63,3.11,2.35,4.43,2.9,9.62,4.58,14.89,5.06,3.39.31,6.69.16,10.06-.22.37-.04.96-.1,1.38-.11-1.48-.51-3.06-.91-4.47-1.6-2.78-1.38-4.7-4.13-5-7.22-.01-.12-.02-.25-.02-.37,3.48,1.65,7.4,2.36,11.24,2.15,1.4-.08,2.78-.29,4.13-.6-2.73.31-5.51.21-8.2-.32Z" /><path class="cls-23" d="m104.99,113.49s10.37-7.29,12.85-6.44c2.48.84,5.08,12.86,5.08,12.86l-17.93-6.42Z" /><path class="cls-23" d="m183.36,119.16s-9-4.88-10.52-4.5c-1.52.38-5.44,8.72-5.44,8.72l15.96-4.22Z" /><path class="cls-5" d="m94.42,116.79c-1.4-3.48-2.83-6.95-4.2-10.43l-.65-1.64,1.5.98c2.19,1.43,4.54,2.72,6.9,3.92,2.37,1.21,4.78,2.32,7.23,3.35,4.9,2.05,9.92,3.81,15.03,5.23,10.22,2.86,20.8,4.42,31.4,4.68,5.3.12,10.6-.14,15.84-.89,5.24-.76,10.42-1.94,15.45-3.62,5.04-1.66,9.92-3.8,14.58-6.37,4.65-2.58,9.1-5.58,13.04-9.19-1.82,1.96-3.86,3.72-5.98,5.36-2.12,1.64-4.34,3.17-6.63,4.58-4.58,2.82-9.47,5.15-14.54,6.99-10.14,3.69-21.02,5.36-31.81,5.12-10.78-.18-21.54-1.82-31.89-4.85-5.17-1.53-10.25-3.35-15.16-5.58-4.91-2.23-9.68-4.71-14.14-7.82l.85-.66c1.27,3.53,3.73,10.61,4.97,14.15" /><path class="cls-5" d="m99.95,129.51c1.46,1.67,2.96,3.25,4.73,4.51,1.75,1.27,3.59,2.42,5.56,3.29,1.96.89,4,1.62,6.09,2.18,2.08.55,4.24.98,6.35,1.18l-.59.7c-.15-.92-.25-1.85-.17-2.78.04-.93.26-1.84.57-2.7.3-.87.74-1.68,1.25-2.42.51-.75,1.1-1.43,1.79-1.99-.57.68-1.04,1.43-1.44,2.2-.4.77-.68,1.6-.89,2.43-.21.83-.31,1.68-.3,2.52-.02.84.14,1.68.32,2.49l.16.74-.75-.03c-2.28-.1-4.47-.47-6.65-1.03-2.17-.56-4.28-1.35-6.29-2.35-2.02-.97-3.88-2.28-5.56-3.76l-1.22-1.16c-.38-.41-.72-.86-1.08-1.28l-.53-.64-.46-.7c-.31-.46-.6-.94-.89-1.4Z" /><g><path class="cls-5" d="m145.01,111.86c.05-.17.1-.34.18-.49.39-.72,1.2-1.3,2.06-1.68-.93.14-1.91.44-2.69,1.21-.37.4-.64.88-.83,1.39-.17.53-.28,1.02-.27,1.66h.05c0,.19,0,.4.02.61.18,1.37,1.08,2.39,2.02,2.27.94-.12,1.56-1.33,1.38-2.7-.17-1.33-1.03-2.32-1.94-2.27Z" /><path class="cls-5" d="m151.49,112.11c-.05-.17-.1-.34-.18-.49-.38-.73-1.19-1.31-2.05-1.7.93.15,1.9.45,2.68,1.23.37.4.64.88.82,1.4.17.53.28,1.02.25,1.67h-.05c0,.19,0,.4-.03.61-.19,1.37-1.1,2.38-2.04,2.25-.94-.13-1.55-1.34-1.36-2.71.18-1.33,1.04-2.31,1.95-2.25Z" /></g><path class="cls-23" d="m146.56,99.04c.23,4.84-2.48,8.93-6.05,9.14-3.57.21-6.64-3.54-6.87-8.38-.23-4.84,2.48-8.93,6.05-9.14,3.57-.21,6.64,3.54,6.87,8.38" /><path class="cls-12" d="m146.08,101.59c.1,2.32-1.35,4.3-3.24,4.42-1.89.12-3.5-1.66-3.6-3.98-.1-2.32,1.35-4.3,3.24-4.42,1.89-.12,3.5,1.66,3.6,3.98" /><path class="cls-23" d="m166.08,95.22c.32,6.98-3.54,12.89-8.64,13.2-5.09.3-9.48-5.11-9.8-12.1-.32-6.99,3.54-12.89,8.64-13.2,5.09-.3,9.48,5.12,9.8,12.1" /><path class="cls-12" d="m164.54,100.56c.14,3.22-1.93,5.97-4.62,6.14-2.69.17-4.99-2.3-5.13-5.52-.14-3.22,1.93-5.97,4.62-6.14,2.69-.17,4.99,2.3,5.13,5.52" /><path class="cls-12" d="m145.3,86.31c-5.28-.38-10.62-.09-15.9.87v-4.21c5.16-2.03,10.38-3.42,15.54-4.18.12,2.5.24,5.01.36,7.51Z" /><path class="cls-12" d="m168.7,81.51c-6.79-1.16-13.67-1.47-20.46-.91.11-2.54.22-5.08.34-7.62,6.6.22,13.28,1.25,19.88,3.09.08,1.81.17,3.63.25,5.44Z" /><path class="cls-5" d="m248.02,36.59c-7.55-5.49-21.04-7.84-27.21-7.79,2.02-1.89,3.74-4,4.81-6.64,1.32-3.28,1.84-6.89,1.44-10.41-.17-1.53-1.19-6.24-3.62-5.73-.54.11-.82.7-1,1.23-.64,1.91-.97,3.91-1.37,5.89-.66,3.3-1.29,7.06-2.15,10.61-6.1-41.12-53.62-16.03-64.63-1.69-7.25-.51-17.91-2.93-33-5.47C99.7,12.95,101.89,0,101.89,0c0,0-16.22,7.54-8.9,18.38-3.99,1.23-10.07,3.55-13.73,5.58-19.35,10.78-31.03,32.42-31.84,47.99,9.97-11.63,23.32-14.91,23.32-14.91,0,0-9.22,3.76-15.66,16.61-9.48,18.92,24.18,39.61,24.18,39.61,0,0,.89-17.3,7.35-25.13,3.36,4.17,8.79,3.14,12.81,3.14-2.88-5.68-2.71-12.21-2.71-12.21,0,0,1.77,5.19,6.16,7.45,4.64,2.39,12.97,2.59,12.97,2.59,0,0-1.9-8.43.32-14.09,1.94-4.93,3.66-7.43,3.32-12.72,1.19,8.02,3.92,10.69,8.51,12.72-1.68-6.09-1.68-9.33,1.4-16.96,7.64,12.59,42.43,29.13,49.98,30.08.53-1.94,2.15-14.82,7.25-22.89,2.98,8.16,1.54,12.75.69,18.79,6,1.63,12.73-1.8,16.67-4.37.2,1.3-.35,4.73-.68,6.13-.67,2.8-1.6,5.25-3.34,7.54,5.15.41,9.48-.93,12.35-4.36-2.58,7.12,6.09,8.15,9.42,9.26.74-2.28,1.11-4.65,1.44-7.02.59-4.22,1.05-8.46,1.38-12.71.1-1.28.04-2.85-.88-3.63.02-.02.04-.04.05-.06,0,0,17.16,6.94,32.27,22.73,7.22-13.26,17.25-42.62-7.99-60.95Z" /><path class="cls-12" d="m244.6,72.98c-.63-5.32-2.58-10.39-5.34-14.86-2.77-4.49-6.51-8.3-10.82-11.27-4.31-2.99-9.18-5.1-14.21-6.58-5.05-1.47-10.29-2.32-15.57-2.7l.7-1.73c1.41,1.25,2.56,2.59,3.68,4.01,1.1,1.42,2.11,2.91,2.99,4.47,1.78,3.12,3.03,6.53,3.73,10.05.66,3.52.71,7.15.12,10.65-.61,3.5-1.73,6.88-3.32,10.01,1.26-3.27,2.17-6.67,2.52-10.11.31-3.45.13-6.92-.68-10.25-.78-3.34-2.12-6.53-3.88-9.45-1.75-2.91-3.96-5.66-6.42-7.86l-2.15-1.92,2.85.19c5.39.36,10.79,1.15,16,2.74,1.3.4,2.6.8,3.87,1.31,1.29.45,2.53,1.02,3.77,1.59,2.44,1.21,4.84,2.54,7.03,4.17,4.4,3.23,8.18,7.35,10.78,12.13,1.32,2.37,2.33,4.91,3.09,7.49.73,2.59,1.25,5.26,1.26,7.95Z" /><path class="cls-12" d="m73.75,36.59c2.48-2,5.34-3.52,8.31-4.73,2.97-1.22,6.14-2.01,9.36-2.36,3.21-.34,6.5-.35,9.7.24,1.62.19,3.18.67,4.76,1.07.8.17,1.54.51,2.31.79l2.28.87,2.28.87-2.34.96c-1.87.77-3.77,1.78-5.53,2.89-1.78,1.11-3.5,2.33-5.11,3.68-3.21,2.7-6.04,5.86-8.23,9.44-2.2,3.57-3.72,7.56-4.54,11.72-.36,2.08-.68,4.2-.72,6.33-.09,2.14.04,4.28.19,6.43-.87-4.22-1.07-8.6-.56-12.94.33-2.15.74-4.32,1.47-6.39.71-2.07,1.59-4.11,2.67-6.02,2.21-3.81,5.07-7.25,8.44-10.09,3.37-2.85,7.07-5.21,11.23-6.91l-.06,1.84-2.16-.85c-.73-.27-1.43-.61-2.18-.79-1.49-.42-2.96-.92-4.5-1.14-3.04-.62-6.16-.77-9.26-.57-.77.08-1.56.08-2.33.21l-2.32.35-2.29.52c-.76.2-1.51.43-2.27.64-3,.93-5.9,2.25-8.6,3.93Z" /><path class="cls-12" d="m179.38,88.14c-6.19-1.64-12.26-3.79-18.16-6.33-5.91-2.53-11.65-5.49-17.07-9.01-2.68-1.8-5.33-3.68-7.76-5.85-2.41-2.18-4.71-4.53-6.56-7.24-1.86-2.69-3.3-5.77-3.74-9.05-.42-3.28.2-6.62,1.69-9.46l-.65,2.3c-.18.77-.24,1.57-.37,2.34-.09.78,0,1.57-.02,2.35.03.78.23,1.54.34,2.31.65,3.04,2.18,5.82,4.05,8.29,3.82,4.94,8.87,8.86,14.14,12.31,2.62,1.76,5.38,3.35,8.15,4.88,2.77,1.56,5.61,2.98,8.46,4.39,5.73,2.77,11.56,5.39,17.5,7.78Z" /><path class="cls-18" d="m115,33.65s23.8-27.97,33.29-28.79c15.66-1.36,38.05,28.11,38.05,28.11,0,0-39.76-18.54-49.3,3.61,0,0-2.61-3.92-8.94-4.91-9.41-1.47-13.1,1.98-13.1,1.98" /><path class="cls-9" d="m26.09,167.6c.22,2.73.62,5.37,1.21,7.95.6,2.58,1.39,5.09,2.45,7.48,1,2.41,2.29,4.7,3.83,6.84,1.47,2.2,3.33,4.1,5.18,6.14-2.39-1.31-4.69-2.95-6.51-5.08-1-.98-1.73-2.19-2.56-3.32-.69-1.22-1.42-2.42-1.94-3.72-1.09-2.58-1.84-5.3-2.12-8.06-.29-2.76-.21-5.57.47-8.23Z" /><g><path class="cls-13" d="m225.24,129.86h-71.48c-1.05,0-1.91.26-2.02,1.28h75.53c-.11-1.02-.97-1.28-2.02-1.28Z" /><path class="cls-15" d="m151.74,131.13c0,.07-.02.15-.02.22l3.83,45.68c0,1.13.92,2.05,2.05,2.05h64.92c1.13,0,2.05-.92,2.05-2.05l2.73-45.68c0-.08-.01-.15-.02-.22h-75.53Z" /><rect class="cls-21" x="154.42" y="178.11" width="71.28" height="2.31" rx="1.15" ry="1.15" /><rect class="cls-4" x="214.08" y="178.96" width="5.95" height=".77" rx=".38" ry=".38" /></g><rect class="cls-28" x="261.6" y="185.99" width="7.63" height="49.04" /><rect class="cls-2" x="248.64" y="184.9" width="6.67" height="42.79" /><rect class="cls-2" x="128.23" y="184.9" width="7.33" height="42.79" /><rect class="cls-28" x="115.01" y="185.99" width="7.63" height="49.04" /><rect class="cls-28" x="101.93" y="179.81" width="180.92" height="7.49" /></g></g></svg>