<svg width="112" height="112" viewBox="0 0 112 112" fill="none" xmlns="http://www.w3.org/2000/svg" preserveAspectRatio="none"><rect width="112" height="112" rx="56" fill="#40A933" /><g clip-path="url(#clip0_365_45017)"><path d="M44.5299 44.645C44.4399 44.285 44.2999 43.755 43.9499 43.575C43.5999 43.395 43.0199 43.565 42.6699 43.655C41.7099 43.315 40.6899 43.165 39.6799 43.185C39.1399 42.555 38.1799 41.665 37.3299 42.185C36.5399 42.665 35.8299 43.565 35.4199 44.385C34.6899 44.845 34.0799 45.415 33.5699 46.055C33.0799 46.125 32.2699 46.285 32.0199 46.785C31.7699 47.285 32.0199 48.135 32.1699 48.635C32.0499 48.995 31.9499 49.355 31.8799 49.725C28.1099 49.955 28.4399 55.335 28.5699 57.955C28.7399 61.185 29.3199 64.795 31.4899 67.335C33.3099 69.455 36.0499 70.175 38.7699 69.935C41.4899 69.695 44.7199 68.285 45.7599 65.475C47.0399 62.015 43.8699 59.485 40.9399 58.475C48.2599 52.735 47.9199 47.205 44.5199 44.655L44.5299 44.645ZM42.6999 52.025C42.6799 52.295 42.6299 52.575 42.5699 52.865C42.3899 53.635 42.0999 54.335 41.7299 55.025C41.4999 55.415 41.2299 55.795 40.9399 56.155C40.2399 56.945 39.4699 57.635 38.5499 58.165C38.7299 57.925 38.9199 57.695 39.1099 57.455C39.5499 56.885 39.9799 56.325 40.3999 55.745C40.6299 55.385 40.8499 55.025 41.0699 54.655C41.1399 54.525 41.1999 54.395 41.2699 54.265C41.5499 53.775 41.7299 53.215 41.9199 52.685C41.9999 52.425 42.0799 52.165 42.1399 51.925C42.2099 51.685 42.2499 51.445 42.2999 51.225C42.3899 50.725 42.4799 50.225 42.5899 49.735C42.6899 50.245 42.7299 50.755 42.7399 51.275C42.7399 51.505 42.7399 51.765 42.6999 52.025C42.7299 51.755 42.6799 52.295 42.6999 52.025ZM41.7999 44.525C42.1799 44.025 43.0199 43.755 43.6299 43.875C43.6899 43.875 43.7399 43.895 43.7899 43.915C43.8599 43.935 43.9199 43.975 43.9799 44.015C43.9899 44.025 43.9999 44.035 43.9999 44.035C43.2399 44.105 42.4899 44.475 41.7399 44.615C41.7399 44.615 41.7599 44.585 41.8099 44.525C41.7699 44.575 41.8499 44.475 41.8099 44.525H41.7999ZM41.2999 44.405C41.0899 45.025 44.1999 46.515 44.5399 45.995C44.7799 46.305 44.3699 46.395 44.1299 46.405C43.5799 46.435 42.9899 46.235 42.5099 45.985C42.3499 45.905 40.3999 44.505 41.2999 44.405C41.2899 44.445 40.8099 44.455 41.2999 44.405ZM35.8899 44.655C36.0799 43.925 36.5799 43.195 37.1699 42.745C37.2499 42.675 37.3399 42.615 37.4299 42.565C37.5099 42.505 37.6099 42.475 37.6899 42.435C37.7699 42.405 37.8599 42.385 37.9299 42.375C38.0099 42.375 38.0699 42.375 38.1199 42.375C38.2299 42.405 38.2699 42.425 38.2699 42.425C38.2699 42.425 38.2099 42.435 38.1199 42.455C38.0799 42.475 38.0299 42.495 37.9699 42.525C37.9199 42.565 37.8599 42.595 37.7999 42.645C37.7399 42.695 37.6799 42.745 37.6099 42.815C36.9599 43.405 36.4299 44.155 35.8599 44.815C35.8599 44.815 35.8599 44.755 35.8899 44.665C35.8699 44.765 35.9099 44.565 35.8899 44.665V44.655ZM35.2399 44.965C35.2499 45.675 37.3599 45.175 37.7199 45.105C38.1599 45.015 40.1399 44.735 40.1399 44.075C40.6999 44.245 39.9199 44.745 39.7299 44.865C38.9699 45.315 38.0799 45.575 37.2099 45.725C36.6599 45.825 35.6599 46.045 35.1399 45.705C34.7999 45.475 34.9699 45.185 35.2399 44.975C34.5099 45.555 35.2399 45.075 35.2399 44.975V44.965ZM34.2899 48.645C33.5699 50.475 32.5699 50.885 32.6299 49.705C33.1799 50.475 33.8999 48.735 34.0699 48.365C34.2399 47.995 35.0299 46.525 34.6199 46.165C35.1799 45.955 35.0099 46.835 34.2799 48.645C33.5599 50.475 34.9999 46.825 34.2799 48.645H34.2899ZM33.0099 51.085C33.6699 51.625 33.8099 52.935 33.7699 53.715C33.7299 54.495 33.3099 55.195 32.8499 54.175C33.6799 54.655 33.5099 53.455 33.4699 52.965C33.4199 52.405 33.3699 51.545 33.0099 51.075C33.2499 51.275 33.3299 51.485 33.0099 51.075V51.085ZM32.2599 47.015C32.2899 46.965 32.3499 46.875 32.4299 46.795C32.8799 46.355 33.7299 46.195 34.3099 46.445C33.6399 46.765 32.8999 46.855 32.2199 47.115C32.2199 47.115 32.2299 47.075 32.2599 47.015C32.2899 46.965 32.2299 47.075 32.2599 47.015ZM30.1899 58.185C30.2899 60.655 30.7099 63.075 31.2999 65.465C30.0999 63.305 29.5599 60.785 29.4399 58.335C29.3699 56.945 29.4399 55.535 29.7299 54.175C29.9099 53.315 30.2799 51.455 31.2599 51.125C31.2899 51.115 31.2999 51.105 31.2999 51.105C31.2999 51.105 31.2899 51.105 31.2699 51.135C30.4599 51.665 30.3799 53.415 30.2899 54.265C30.1499 55.565 30.1299 56.885 30.1899 58.185C30.2099 58.645 30.1699 57.725 30.1899 58.185ZM31.8299 52.665L31.7799 52.725C31.7399 52.625 31.7299 52.525 31.7499 52.425C31.7999 51.965 32.2899 51.445 32.7799 51.495C32.8299 51.495 32.8599 51.515 32.8599 51.515C32.8599 51.515 32.8399 51.535 32.7999 51.575C32.7699 51.605 32.7299 51.655 32.6699 51.715C32.4099 52.045 32.0899 52.325 31.8299 52.655C31.7999 52.695 31.8599 52.615 31.8299 52.655V52.665ZM37.6399 67.125C35.8099 67.125 34.9499 65.375 34.6099 63.815C34.1099 61.505 34.3399 59.005 34.7399 56.735C33.1699 56.505 32.3699 55.325 32.2099 54.005C32.7199 55.145 33.6199 55.935 34.8699 56.055C35.3999 56.105 35.9999 56.035 36.6599 55.815C36.1999 54.235 36.2899 52.345 36.8599 50.805C37.2999 49.615 38.4299 48.195 39.8899 48.565C42.0499 49.115 41.2299 52.405 40.5699 53.725C39.3899 56.105 37.3399 58.015 35.2699 59.625C41.4899 62.215 41.1799 67.135 37.6399 67.135V67.125ZM41.7399 65.595C41.5599 66.645 40.8899 67.635 39.8599 68.005C39.7799 68.025 39.6999 68.055 39.6199 68.065C39.5399 68.075 39.4699 68.095 39.3999 68.095C39.2799 68.105 39.1699 68.105 39.0499 68.095C38.9599 68.095 38.8799 68.075 38.8299 68.065C38.7799 68.055 38.7499 68.045 38.7499 68.045C38.8899 67.995 39.0299 67.945 39.1599 67.885C39.2099 67.855 39.2599 67.835 39.3099 67.805C39.3599 67.775 39.4199 67.745 39.4799 67.715C39.5399 67.675 39.5899 67.645 39.6499 67.605C39.7099 67.555 39.7699 67.525 39.8199 67.465C39.8499 67.435 39.8799 67.415 39.9099 67.395C40.1199 67.185 40.2999 66.965 40.4699 66.715C40.7499 66.225 40.9299 65.715 41.0599 65.165C41.1599 64.535 41.1799 63.945 41.1699 63.305C41.1599 63.155 41.1399 63.015 41.1299 62.865C41.1299 62.865 41.1499 62.885 41.1799 62.925C41.6999 63.715 41.8999 64.645 41.7199 65.585C41.6799 65.805 41.7599 65.365 41.7199 65.585L41.7399 65.595Z" fill="white" /><path d="M62.7899 62.805L60.2999 50.805H61.7199V44.825H46.0799C47.5499 46.135 47.9999 48.545 47.4999 50.795L45.4999 60.245C47.3099 62.055 48.2099 65.745 44.4399 68.775H52.6299V62.805H51.3599L51.7699 60.675H56.0299L56.4399 62.805H55.2699V68.775H64.9699V62.805H62.7899ZM52.8199 55.735L53.9499 50.175L55.0299 55.735H52.8199Z" fill="white" /><path d="M80.4199 50.905L72.66 47.755L63.7299 50.535L62.2 54.055L63.7799 61.595H66.09V66.665L70.86 69.235L80.08 67.155L83.5 59.435L80.4199 50.905ZM77.07 62.395C75.2999 65.975 68.2599 65.195 68.2599 60.825H70.88C70.88 62.525 73.3199 63.045 74.3499 61.935C74.8599 61.385 74.93 60.485 74.65 59.805C74.31 58.985 73.45 58.735 72.63 58.735H71.2299V56.685H72.63C74.09 56.685 75.33 55.125 74.25 53.775C73.38 52.695 71.04 53.105 71.04 54.665H68.4199C68.4199 51.495 72.22 50.525 74.72 51.355C77.62 52.325 78.1399 56.335 75.2099 57.665C77.15 58.355 77.98 60.535 77.06 62.395C76.82 62.875 77.3 61.915 77.06 62.395H77.07Z" fill="white" /></g><defs><clipPath id="clip0_365_45017"><rect width="55" height="27.95" fill="white" transform="translate(28.5 42.025)" /></clipPath></defs></svg>