<svg xmlns="http://www.w3.org/2000/svg" version="1.1" viewBox="0 0 100 100" width="100" height="100" preserveAspectRatio="none"><defs><style>
      .cls-1 {
        fill: #000000;
        stroke-width: 0px;
      }
    </style></defs><polygon class="cls-1" points="32.2814 63.6918 35.0198 63.6918 39.53 73.0343 50.6445 67.0744 61.7589 71.4236 67.5578 63.6918 78.189 88.3369 65.4637 84.7931 59.1816 93.8136 50.8055 74.4841 44.2013 88.659 36.4695 80.6051 24.5496 85.2764 32.2814 63.6918" /><path class="cls-1" d="M77.8669,37.2747l4.1882-10.309-7.893-4.0269-1.2886-9.3426h-11.2755l-6.6043-7.4097-8.5371,4.1881-9.9868-3.3826-3.383,8.215-10.3091,1.7718,2.8996,7.7318-9.1816,4.0269,7.5707,7.8929-7.5707,10.1481,10.6314,2.7383-.6446,9.987h9.5039l4.1877,7.5707,9.8262-4.9935,11.1143,4.9935,5.638-8.8593,8.5371,1.9328v-10.309l8.2148-3.7048-5.6375-8.8595Z" /></svg>