<?xml version="1.0" encoding="utf-8"?>
<!-- Generator: Adobe Illustrator 21.0.0, SVG Export Plug-In . SVG Version: 6.00 Build 0)  -->
<!DOCTYPE svg PUBLIC "-//W3C//DTD SVG 1.1//EN" "http://www.w3.org/Graphics/SVG/1.1/DTD/svg11.dtd">
<svg version="1.1" xmlns="http://www.w3.org/2000/svg" xmlns:xlink="http://www.w3.org/1999/xlink" x="0px" y="0px"
	 viewBox="0 0 96.6 190.5" enable-background="new 0 0 96.6 190.5" xml:space="preserve" width="96.6" height="190.5" preserveAspectRatio="none">
<g id="sky" display="none">
</g>
<g id="clouds">
</g>
<g id="Text" display="none">
</g>
<g id="mountains">
</g>
<g id="back_hills">
	<path fill="#0FA164" d="M18,108c-0.9-3.3-1.3-6.7-1.3-10.1c0-19.1,13.7-35.6,33.5-43C51,41.5,61.2,30.3,75.5,25.7
		c-0.1-0.8-0.2-1.5-0.2-2.3c0-9.2,9.2-16.9,21.3-18.8v170.8c-9.8,6.6-22.3,10.6-35.9,10.6c-31.3,0-56.7-21.1-56.7-47.1
		C4.1,127.1,9.4,116.3,18,108z"/>
	<path fill="#0A7748" d="M79.1,83.8c1.8,2.6,5.1,3.4,5.1,3.4s0.4-3.4-1.4-6c-1.8-2.6-5.1-3.4-5.1-3.4S77.3,81.2,79.1,83.8z"/>
	<path fill="#0A7748" d="M79.9,90.7c1.9,0,3.5-1.5,3.5-1.5s-1.6-1.3-3.5-1.3c-1.9,0-3.5,1.5-3.5,1.5S78,90.7,79.9,90.7z"/>
	<path fill="#0A7748" d="M39.9,82.5c2.6-0.1,4.6-1.9,4.6-1.9s-2.1-1.8-4.7-1.7c-2.6,0.1-4.6,1.9-4.6,1.9S37.4,82.6,39.9,82.5z"/>
	<path fill="#0A7748" d="M39.2,74.7c2.3,2.9,6.3,3.6,6.3,3.6s0.2-4-2.2-6.9C41,68.5,37,67.8,37,67.8S36.8,71.8,39.2,74.7z"/>
	<path fill="#0A7748" d="M65.2,45.9c-0.1,2.6,1.7,4.7,1.7,4.7s1.9-2,1.9-4.6c0.1-2.6-1.7-4.7-1.7-4.7S65.3,43.3,65.2,45.9z"/>
	<path fill="#0A7748" d="M48.7,74.1c-1.1,2.3-0.3,5-0.3,5s2.5-1.1,3.6-3.4c1.1-2.3,0.3-5,0.3-5S49.7,71.8,48.7,74.1z"/>
	<path fill="#0A7748" d="M72.5,45c-3,2.2-3.9,6.1-3.9,6.1s4,0.4,7-1.8c3-2.2,3.9-6.1,3.9-6.1S75.6,42.8,72.5,45z"/>
</g>
<g id="back_trees">
</g>
<g id="front_ground">
</g>
<g id="trees_flowers">
</g>
<g id="path">
</g>
<g id="right_building">
</g>
<g id="left_building">
</g>
<g id="info_board">
</g>
<g id="Shadows">
</g>
<g id="bird_elephant">
</g>
<g id="frog_creature">
</g>
<g id="purple_creature">
</g>
<g id="Characters">
</g>
<g id="Glow" display="none">
</g>
<g id="BG_Purple_2" display="none">
</g>
</svg>
