<?xml version="1.0" encoding="utf-8"?>
<!-- Generator: Adobe Illustrator 21.0.0, SVG Export Plug-In . SVG Version: 6.00 Build 0)  -->
<!DOCTYPE svg PUBLIC "-//W3C//DTD SVG 1.1//EN" "http://www.w3.org/Graphics/SVG/1.1/DTD/svg11.dtd">
<svg version="1.1" xmlns="http://www.w3.org/2000/svg" xmlns:xlink="http://www.w3.org/1999/xlink" x="0px" y="0px"
	 viewBox="0 0 260.6 254.2" enable-background="new 0 0 260.6 254.2" xml:space="preserve" width="260.6" height="254.2" preserveAspectRatio="none">
<g id="sky" display="none">
</g>
<g id="clouds">
</g>
<g id="Text" display="none">
</g>
<g id="mountains">
</g>
<g id="back_hills">
</g>
<g id="back_trees">
</g>
<g id="front_ground">
</g>
<g id="trees_flowers">
</g>
<g id="path">
</g>
<g id="right_building">
</g>
<g id="left_building">
</g>
<g id="info_board">
</g>
<g id="Shadows">
	<g>
		<path fill="#542502" d="M74,146.8c-1.7,1.5-3.4,3.1-5,4.6c-4-0.5-8-0.9-12-1.3c0-16.2,0-32.3,0-48.5c5.2-0.3,10.5-0.6,15.7-0.8
			C73.2,116.2,73.6,131.5,74,146.8z"/>
		<path fill="#542502" d="M164.2,160.4c-1.7,1.4-3.4,2.8-5,4.2c-4-0.8-8-1.6-12-2.3c0-16.2,0-32.3,0-48.5c5.3,0.2,10.5,0.4,15.8,0.6
			C163.3,129.7,163.8,145.1,164.2,160.4z"/>
		<path fill="#542502" d="M44.5,4.8C41.1,6,37.7,7.3,34.4,8.7C83,50.6,131.9,96,180.5,144.9c2.3-2.6,4.6-5.2,6.9-7.7
			c2.5-39.5,5-79,7.5-118.5C144.9,10.4,94.6,5.7,44.5,4.8z"/>
		<path fill="#7F3E1C" d="M34.4,8.7c1.3,37.5,2.5,75,3.8,112.5c47.4,4.6,95,12.6,142.4,23.8c3-40.2,6-80.4,9.1-120.5
			C137.9,15.2,86,10,34.4,8.7z"/>
		<path fill="#DBC493" d="M43.2,16.8c0.4,31.9,0.8,63.8,1.3,95.7c42.2,4.4,84.5,11.5,126.6,21.2c1.7-35,3.4-69.9,5-104.9
			C131.9,21.9,87.5,17.9,43.2,16.8z"/>
		<path fill="#A09C72" d="M155.7,46.7c-32.6-4.3-65.3-7-97.9-8.2c0.5-5,0.9-10.1,1.4-15.1c32.6,1.2,65.3,4,97.9,8.3
			C156.6,36.7,156.2,41.7,155.7,46.7z"/>
	</g>
	<g>
		<path fill="#CBA962" d="M76.1,67.3c1-5.4,1.8-10.9,2.2-16.4c-6.5-0.6-13.1-1.2-19.6-1.8c-1,9.2-2.8,18.3-5.4,27.2
			c6.5,1.8,13,3.6,19.4,5.3c0.8-3,1.6-5.9,2.2-8.9c0.1,8.4-1.2,17-4,25.3c7.5,0.7,15.1,1.5,22.7,2.2c2.6-10.9,2.9-22.1,0.9-33
			C88.5,67.3,82.3,67.3,76.1,67.3z"/>
		<path fill="#CBA962" d="M160.1,70.8c-5.1,0-10.2,0-15.3,0c-1-5.5-2.3-10.9-4.1-16.2c-4.4,1.4-8.8,2.8-13.2,4.3
			c0.7,2.4,1.3,4.8,1.9,7.3c-2.4-0.5-4.8-0.9-7.2-1.4c-0.9,4.4-2.3,8.7-3.9,12.9c3,1.2,6.1,2.3,9.1,3.5c1.2-3.1,2.2-6.3,3.1-9.6
			c0.4,2.1,0.7,4.3,1,6.5c3-0.4,6-0.8,9-1.2c0,4.3-0.3,8.7-1.1,13.1c-4.6-0.8-9.2-1.6-13.8-2.4c-1.8,9.1-4.3,18-7.6,26.7
			c6.3,2.3,12.6,4.6,18.9,6.9c2.3-6.2,4.2-12.5,5.8-18.9c4,0.4,8.1,0.8,12.1,1.2l0.8-4.9l1.3,1.9l0.6-0.8l0.6,0.9l2.1-1.4
			C161.9,89.5,161.9,80,160.1,70.8z"/>
	</g>
	<path fill="#E0F1ED" d="M56.8,47.1c6.5,0.6,13.1,1.2,19.6,1.8c-0.9,10.4-2.8,20.7-5.6,30.7c-6.5-1.8-13-3.5-19.4-5.3
		C53.9,65.4,55.7,56.3,56.8,47.1z"/>
	<polygon fill="#C3E4DC" points="58.9,51.5 73.6,54.2 73,56.2 58.5,53.3 	"/>
	<polygon fill="#C3E4DC" points="59.4,56.5 70.9,59.2 67.5,73.7 57.1,70.7 	"/>
	<circle fill="#BA2744" cx="65.2" cy="50.5" r="1.2"/>
	<path fill="#A8E0F9" d="M72.8,65.3c6.6,0,13.2,0,19.8,0c2,10.9,1.7,22.1-0.9,33c-7.6-0.7-15.1-1.5-22.7-2.2
		C72.4,85.9,73.6,75.4,72.8,65.3z"/>
	<circle fill="#8B172E" cx="82.4" cy="69" r="1.2"/>
	<polygon fill="#6CCBF5" points="76.6,74.2 90.7,74.5 90.7,77 76.8,76.2 	"/>
	<polygon fill="#6CCBF5" points="76.8,78.9 90.7,79.4 89.7,81.9 76.8,81.2 	"/>
	<polygon fill="#6CCBF5" points="75.9,84.4 90.2,85.1 89.7,87.9 75.4,86.9 	"/>
	<polygon fill="#6CCBF5" points="72.4,89.8 91.2,91.1 91.2,92.8 72.1,91.1 	"/>
	<polygon fill="#6CCBF5" points="73.6,95.3 75.1,90.8 76.6,90.8 74.6,95 	"/>
	<polygon fill="#6CCBF5" points="81.8,90.8 81.3,95.5 79.8,95.8 80.9,91.3 	"/>
	<polygon fill="#6CCBF5" points="85.2,96.2 86.3,91.6 87.8,91.4 86.2,95.8 	"/>
	<path fill="#FCFF77" d="M152.8,101.3l0.8-4.9l1.3,1.9l0.6-0.8l0.6,0.9l2.1-1.4c1.6-9.3,1.6-18.9-0.1-28.1c-6.6,0-13.2,0-19.8,0
		c0.8,10.1-0.4,20.6-3.8,30.7C140.6,100.1,146.7,100.7,152.8,101.3z"/>
	<circle fill="#8B172E" cx="147.9" cy="72.5" r="1.2"/>
	<polygon fill="#F9D900" points="141.9,75.9 156,76.2 156,78.7 142.1,77.9 	"/>
	<polygon fill="#F9D900" points="141.8,79.3 156.2,80 155.7,82.8 141.3,81.8 	"/>
	<polygon fill="#F9D900" points="137.9,93.3 156.7,94.5 156.7,96.3 137.7,94.5 	"/>
	<polygon fill="#6CCBF5" points="139.1,98.7 140.6,94.3 142.1,94.3 140.1,98.5 	"/>
	<polygon fill="#F9D900" points="147.3,94.3 146.8,98.9 145.3,99.2 146.4,94.7 	"/>
	<polygon fill="#F9D900" points="150.8,99.6 151.8,95 153.3,94.9 151.7,99.3 	"/>
	<path fill="#FCF1ED" d="M123.7,85.4c6.5,1.1,13,2.3,19.4,3.4c-1.8,10.3-4.5,20.4-8.1,30.2c-6.3-2.3-12.6-4.6-18.9-6.9
		C119.3,103.4,121.9,94.5,123.7,85.4z"/>
	<polygon fill="#FCD4B9" points="125.4,89.9 139.8,93.8 139.1,95.7 124.9,91.7 	"/>
	<path fill="#A8E0F9" d="M125.5,56.8c4.4-1.4,8.8-2.9,13.2-4.3c2.3,7,3.9,14.2,4.9,21.5c-4.7,0.6-9.4,1.3-14.1,1.9
		C128.7,69.5,127.4,63.1,125.5,56.8z"/>
	<polygon fill="#6CCBF5" points="128.1,59.1 138.4,56.7 138.6,58.2 128.4,60.3 	"/>
	<path fill="#FCFF77" d="M120.3,62.7c3.1,0.6,6.3,1.2,9.4,1.8c-0.9,5-2.3,9.9-4.2,14.6c-3-1.2-6.1-2.3-9.1-3.5
		C118,71.4,119.3,67.1,120.3,62.7z"/>
	<polygon fill="#F9D900" points="120.6,66.5 127.5,68.5 127.2,69.5 120.3,67.4 	"/>
	<polygon fill="#F9D900" points="119.8,68.5 126.7,70.5 126.4,71.4 119.5,69.3 	"/>
	<polygon fill="#F9D900" points="125.9,73.4 118.8,72 119.1,71.1 126.1,72.6 	"/>
	<circle fill="#8B172E" cx="132" cy="57.5" r="1.2"/>
	<circle fill="#8B172E" cx="108.6" cy="50.3" r="1.2"/>
	<circle fill="#BA2744" cx="111.8" cy="54.9" r="1.2"/>
	
		<ellipse transform="matrix(8.274295e-02 -0.9966 0.9966 8.274295e-02 31.7396 213.455)" fill="#BA2744" cx="131.8" cy="89.5" rx="1.2" ry="1.2"/>
	
		<ellipse transform="matrix(8.273941e-02 -0.9966 0.9966 8.273941e-02 48.349 183.4146)" fill="#BA2744" cx="123.8" cy="65.4" rx="1.2" ry="1.2"/>
	<polygon fill="#FCD4B9" points="124.2,93.1 131,94.9 128.4,103 122.7,101.1 	"/>
	<polygon fill="#FCD4B9" points="130.1,102.5 128.1,112.3 133.5,114.3 136.1,104.6 	"/>
	<polygon fill="#FCD4B9" points="132,96 131.7,97.8 136.7,99.4 137.1,97.8 	"/>
	<polygon fill="#FCD4B9" points="131.2,99.3 130.9,101.1 135.9,102.7 136.3,101.1 	"/>
	<polygon fill="#FCD4B9" points="122.6,103 122.2,104.8 127.3,106.4 127.6,104.8 	"/>
	<polygon fill="#FCD4B9" points="121.8,106.6 121.4,108.4 126.5,110 126.8,108.4 	"/>
	<polygon fill="#F9D900" points="148.7,84.4 154.6,85.3 153.9,91.2 148.2,90.5 	"/>
	<polygon fill="#F9D900" points="140.8,83.8 146.8,84.1 146.8,85 140.7,85.3 	"/>
	<polygon fill="#6CCBF5" points="130.7,62 137.5,60.2 140.1,72.2 132.8,73 	"/>
	<g opacity="0.2">
		<path fill="#97A7B0" d="M192.7,176.4c-5.1-0.7-10.4-1.3-15.8-1.9c-3.5-5.5-12.4-11.2-16-17c-3.5-0.4-1.8-0.8-5.4-1.3
			c-0.8,1-7.5,5-8.3,6c3.2,4.7,12.2,6.2,15.3,10.7c-22.8-2.2-47.6-3.7-74.6-4.1c-4.1-5.8-10.6-17.6-14.7-23.6
			c-4.6-0.1-6.8,0.1-11.6,0c-1.1,1.3-3.4,3.6-4.6,4.8c3.6,4.8,8.1,14.1,11.7,18.7c-6.8,0.1-13.7,0.2-20.8,0.4
			c-1.2,2.4-2.4,4.8-3.7,7.2c18.3,28.4,72.9,89.9,90.1,112.7c51.5-10.3,141-12,141-12S207.4,198.2,192.7,176.4z"/>
	</g>
</g>
<g id="bird_elephant">
</g>
<g id="frog_creature">
</g>
<g id="purple_creature">
</g>
<g id="Characters">
</g>
<g id="Glow" display="none">
</g>
<g id="BG_Purple_2" display="none">
</g>
</svg>
