<?xml version="1.0" encoding="utf-8"?>
<!-- Generator: Adobe Illustrator 21.0.0, SVG Export Plug-In . SVG Version: 6.00 Build 0)  -->
<!DOCTYPE svg PUBLIC "-//W3C//DTD SVG 1.1//EN" "http://www.w3.org/Graphics/SVG/1.1/DTD/svg11.dtd">
<svg version="1.1" xmlns="http://www.w3.org/2000/svg" xmlns:xlink="http://www.w3.org/1999/xlink" x="0px" y="0px"
   viewBox="0 0 475 960" enable-background="new 0 0 475 960" xml:space="preserve" width="475" height="960" preserveAspectRatio="none">
 <pattern viewBox="0 0 69.3 120" id="RedArgyle" patternUnits="userSpaceOnUse" height="120" width="69.3" y="1035.9" x="-3448">
  <g id="svg_1">
   <rect id="svg_2" height="120" width="69.3" fill="#E81C34" y="0" x="0"/>
   <polyline id="svg_3" points="0,0 17.299999237060547,30 34.599998474121094,0 " fill="#E21D35"/>
   <polyline id="svg_4" points="34.599998474121094,0 52,30 69.30000305175781,0 " fill="#E21D35"/>
   <polyline id="svg_5" points="0,60 17.299999237060547,30 0,0 " fill="#E51D36"/>
   <polygon id="svg_6" points="34.599998474121094,0 17.299999237060547,30 34.599998474121094,60 52,30 " fill="#DD1E33"/>
   <polyline id="svg_7" points="69.30000305175781,0 52,30 69.30000305175781,60 " fill="#E51D36"/>
   <polygon id="svg_8" points="17.299999237060547,30 0,60 17.299999237060547,90 34.599998474121094,60 " fill="#E21D35"/>
   <polygon id="svg_9" points="52,30 34.599998474121094,60 52,90 69.30000305175781,60 " fill="#E21D35"/>
   <polyline id="svg_10" points="0,120 17.299999237060547,90 0,60 " fill="#DD1E33"/>
   <polygon id="svg_11" points="34.599998474121094,60 17.299999237060547,90 34.599998474121094,120 52,90 " fill="#E51D36"/>
   <polyline id="svg_12" points="69.30000305175781,60 52,90 69.30000305175781,120 " fill="#DD1E33"/>
   <polyline id="svg_13" points="34.599998474121094,120 17.299999237060547,90 0,120 " fill="#E21D35"/>
   <polyline id="svg_14" points="69.30000305175781,120 52,90 34.599998474121094,120 " fill="#E21D35"/>
   <path id="svg_15" d="m52.3,120l-0.6,0l0,0l-17,-29.5l-17.1,29.5l0,0l-0.6,0l0,0l-17,-29.5l0,-1l17,-29.5l-17,-29.5l0,-1l17,-29.5l0.6,0l17,29.5l17,-29.5l0.6,0l17,29.5l0,1l-16.9,29.5l17,29.5l0,1l-17,29.5l0,0zm-17.4,-90l17,29.5l17.1,-29.5l-17,-29.5l-17.1,29.5zm-17.6,29.5l17,-29.5l-17,-29.5l-17,29.5l17,29.5zm17.1,30.5l-17,-29.5l-17.1,29.5l17,29.5l17.1,-29.5zm0.2,-0.5l17,-29.5l-17,-29.5l-17,29.5l17,29.5zm17.4,30l17,-29.5l-17,-29.5l-17.1,29.5l17.1,29.5z" fill="#E81C34"/>
  </g>
 </pattern>
 <g>
  <title>Layer 1</title>
  <g display="none" id="sky"/>
  <g id="clouds"/>
  <g display="none" id="Text"/>
  <g id="mountains"/>
  <g id="back_hills">
   <path id="svg_16" d="m86.81111,755.55555c-0.9,-3.3 -1.3,-6.7 -1.3,-10.1c0,-19.1 13.7,-35.6 33.5,-43c0.8,-13.3 11.1,-24.6 25.3,-29.2c-0.1,-0.8 -0.2,-1.5 -0.2,-2.3c0,-9.2 9.2,-16.9 21.3,-18.8l0,170.8c-9.8,6.6 -22.3,10.6 -35.9,10.6c-31.3,0 -56.7,-21.1 -56.7,-47.1c0.1,-11.8 5.4,-22.6 14,-30.9z" fill="#0FA164"/>
   <path id="svg_17" d="m147.91111,731.35555c1.8,2.6 5.1,3.4 5.1,3.4s0.4,-3.4 -1.4,-6c-1.8,-2.6 -5.1,-3.4 -5.1,-3.4s-0.4,3.4 1.4,6z" fill="#0A7748"/>
   <path id="svg_18" d="m148.81111,738.25555c1.9,0 3.5,-1.5 3.5,-1.5s-1.6,-1.3 -3.5,-1.3c-1.9,0 -3.5,1.5 -3.5,1.5s1.5,1.3 3.5,1.3z" fill="#0A7748"/>
   <path id="svg_19" d="m108.81111,730.05555c2.6,-0.1 4.6,-1.9 4.6,-1.9s-2.1,-1.8 -4.7,-1.7c-2.6,0.1 -4.6,1.9 -4.6,1.9s2.1,1.8 4.7,1.7z" fill="#0A7748"/>
   <path id="svg_20" d="m108.01111,722.25555c2.3,2.9 6.3,3.6 6.3,3.6s0.2,-4 -2.2,-6.9c-2.3,-2.9 -6.3,-3.6 -6.3,-3.6s-0.1,4 2.2,6.9z" fill="#0A7748"/>
   <path id="svg_21" d="m134.01111,693.45555c-0.1,2.6 1.7,4.7 1.7,4.7s1.9,-2 1.9,-4.6c0.1,-2.6 -1.7,-4.7 -1.7,-4.7s-1.8,2 -1.9,4.6z" fill="#0A7748"/>
   <path id="svg_22" d="m117.51111,721.65555c-1.1,2.3 -0.3,5 -0.3,5s2.5,-1.1 3.6,-3.4c1.1,-2.3 0.3,-5 0.3,-5s-2.5,1.1 -3.6,3.4z" fill="#0A7748"/>
   <path id="svg_23" d="m141.41111,692.55555c-3,2.2 -3.9,6.1 -3.9,6.1s4,0.4 7,-1.8c3,-2.2 3.9,-6.1 3.9,-6.1s-4,-0.4 -7,1.8z" fill="#0A7748"/>
  </g>
  <g id="back_trees"/>
  <g id="Shadows">
   <g id="svg_30" opacity="0.1">
    <path id="svg_31" d="m198.31111,917.75555c-5.1,-0.7 -10.4,-1.3 -15.8,-1.9c-3.5,-5.5 -12.4,-11.2 -16,-17c-3.5,-0.4 -1.8,-0.8 -5.4,-1.3c-0.8,1 -7.5,5 -8.3,6c3.2,4.7 12.2,6.2 15.3,10.7c-22.8,-2.2 -47.6,-3.7 -74.6,-4.1c-4.1,-5.8 -10.6,-17.6 -14.7,-23.6c-4.6,-0.1 -6.8,0.1 -11.6,0c-1.1,1.3 -3.4,3.6 -4.6,4.8c3.6,4.8 8.1,14.1 11.7,18.7c-6.8,0.1 -13.7,0.2 -20.8,0.4c-1.2,2.4 -2.4,4.8 -3.7,7.2c18.3,28.4 72.9,89.9 90.1,112.7c51.5,-10.3 141,-12 141,-12s-67.9,-78.8 -82.6,-100.6z" fill="#384E7D"/>
   </g>
   <path id="svg_32" d="m551.11111,845.55555c-101.9,4.9 -206,14 -306.2,25.7c8.7,8.1 17.3,16.4 25.6,24.8c-0.6,1.6 -0.9,3.3 -0.9,5c0,10.1 11.1,18.7 26.5,21.8c44.9,29.5 101.9,86.5 134.9,113.5c51.4,-2 57.9,-4 109.3,-5.9c16.5,-55.4 18.2,-129.6 10.8,-184.9z" fill="#384E7D" opacity="0.1"/>
   <path id="svg_33" d="m114.41111,869.35555c0,11.3 -24.6,13.1 -49,13.1s-44.2,-9.1 -44.2,-20.4c0,-11.3 19.8,-20.4 44.2,-20.4s49,16.4 49,27.7z" fill="#384E7D" opacity="0.1"/>
  </g>
  <g id="front_ground"/>
  <g id="trees_flowers">
   <path id="svg_24" d="m69.81111,817.75555c0.3,-1.2 0.5,-2.5 0.5,-3.8c0,-7.2 -5.4,-13 -12.4,-13.8c-2.6,-5.9 -8.5,-10.1 -15.3,-10.1c-8.8,0 -16,6.8 -16.6,15.5c-5.5,1.3 -9.6,6.3 -9.6,12.2c0,0.1 0,0.3 0,0.4c-6.2,4.2 -10.9,11.3 -10.3,19.4c2.3,30.8 43.2,26.8 45.4,24.6c2.8,1.2 6,1.8 9.2,1.8c13.3,0 24,-10.8 24,-24c0.1,-10 -6.1,-18.6 -14.9,-22.2z" fill="#00864C"/>
   <path id="svg_25" d="m32.81111,839.45555c0,0 -3.8,1 -6.4,-0.8c-2.5,-1.8 -2.8,-5.8 -2.8,-5.8s3.8,-1 6.4,0.8c2.5,1.8 2.8,5.8 2.8,5.8z" fill="#71BE4E"/>
   <path id="svg_26" d="m32.41111,843.45555c0,0 -1.4,2.1 -3.4,2.2c-2,0.2 -3.7,-1.7 -3.7,-1.7s1.4,-2.1 3.4,-2.2c1.9,-0.1 3.7,1.7 3.7,1.7z" fill="#71BE4E"/>
   <path id="svg_27" d="m40.61111,813.05555c0,0 -2.8,-2.8 -2.6,-5.9c0.3,-3.1 3.5,-5.4 3.5,-5.4s2.8,2.8 2.6,5.9c-0.2,3.2 -3.5,5.4 -3.5,5.4z" fill="#71BE4E"/>
   <path id="svg_28" d="m36.91111,814.85555c0,0 -2.5,-0.2 -3.7,-1.8c-1.1,-1.6 -0.5,-4.1 -0.5,-4.1s2.5,0.2 3.7,1.8c1.2,1.6 0.5,4.1 0.5,4.1z" fill="#71BE4E"/>
   <path id="svg_29" d="m39.91111,901.75555c-1.3,-2.8 -2.6,-6.7 -2.6,-11c0,-1.1 0.1,-2.2 0.2,-3.3c0.7,7.4 4.9,13.1 4.9,13.1s4.4,-5.6 5.3,-13c0.1,1.1 0.1,2.2 0.1,3.3c-0.1,4.3 -1.5,8.1 -2.8,10.9l-5.1,0z" fill="#5AA94C"/>
  </g>
  <g id="path"/>
  <g id="right_building">
   <path id="svg_34" d="m162.21111,703.05555c-13.1,1.8 -22.9,12.1 -24.7,24.5c-0.4,0 -0.8,0 -1.2,0.1c-9,1.3 -15.8,9.6 -14,18.5c3.5,17.2 40.5,15.3 47.9,14.3c15.9,-2.2 26.9,-16.9 24.7,-32.7c-2.2,-15.8 -16.9,-26.9 -32.7,-24.7z" fill="#00864C"/>
   <polygon id="svg_35" points="202.41109704971313,339.9555459022522 208.31112146377563,341.4555459022522 211.31112146377563,337.4555459022522 206.21111536026,336.65555810928345 " fill="#8B172E"/>
   <polyline id="svg_36" points="209.81112146377563,314.3555397987366 296.61112451553345,294.5555520057678 505.51114892959595,338.65555810928345 " stroke-miterlimit="10" stroke-width="3" stroke="#8B172E" fill="none"/>
   <ellipse id="svg_37" ry="12.3" rx="7.6" cy="314.35555" cx="209.71111" fill="#8B172E"/>
   <ellipse id="svg_38" ry="12.3" rx="7.6" cy="314.35555" cx="209.71111" fill="#8B172E"/>
   <path id="svg_39" d="m208.51111,326.45555c2.4,-2.7 4,-7.9 4,-14c0,-3.9 -1.5,-7.4 -3.1,-10.1c-1.5,1.2 -7.3,6.1 -7.3,12c0,6.1 2.8,11.2 6.4,12.1z" fill="#BA2744"/>
   <ellipse id="svg_40" ry="15.3" rx="9.5" cy="296.85555" cx="293.11111" fill="#8B172E"/>
   <ellipse id="svg_41" ry="15.3" rx="9.5" cy="296.85555" cx="293.11111" fill="#8B172E"/>
   <path id="svg_42" d="m291.61111,311.95555c3,-3.3 5,-9.9 5,-17.4c0,-4.8 -1.8,-9.2 -3.9,-12.6c-1.9,1.5 -9,7.6 -9,14.9c-0.1,7.6 3.4,13.9 7.9,15.1z" fill="#BA2744"/>
   <g id="svg_43">
    <path id="svg_44" d="m149.01111,446.75555c3,106.8 6,213.3 9,319.4c28.9,35.7 57.9,70.7 86.9,105.2c87,-13.5 174.4,-20 261.2,-19.4c6,-125.2 12,-249.4 18,-372.4c-124.7,-25.2 -250.5,-36.1 -375.1,-32.8z" fill="#F4EEC2"/>
    <path id="svg_45" d="m244.91111,459.75555c0,137.2 0,274.3 0,411.5c87,-13.1 174.4,-19.4 261.2,-18.9c6,-121.4 12,-241.8 18,-361.2c-92.8,-18 -186.2,-28.5 -279.2,-31.4z" fill="#DBC493"/>
   </g>
   <polygon id="svg_46" points="377.0111184120178,604.3555703163147 380.0111184120178,853.4556069374084 503.01114892959595,955.4556069374084 512.0110878944397,655.3555703163147 " fill="#F4EEC2"/>
   <path id="svg_47" d="m311.81111,858.85555c0,0 -14.2,-56.2 22.4,-66.5c22.6,-6.3 37.9,16.7 37.9,16.7s15.7,-43.4 50.6,-31.9c34.8,11.5 30.1,74.1 30.1,74.1s17.9,-5 39.5,14.1c21.4,19.2 8.8,70.2 8.8,70.2s-20.1,17.6 -48.4,8.9c-33.3,-10.2 -40.9,-39.6 -40.9,-39.6s-16.1,14.1 -52.7,0c-36.6,-14 -47.3,-46 -47.3,-46z" fill="#DBC493"/>
   <path id="svg_48" d="m252.51111,447.25555c-34.6,-1.3 -69.1,-1.4 -103.6,-0.5c0.2,6.6 0.4,13.2 0.6,19.8l99.9,19.8l3.1,-39.1z" fill="#DBC493"/>
   <pattern patternTransform="matrix(0.9999 0 0 1 1393.2999 1579.2662)" xlink:href="#RedArgyle" id="SVGID_1_"></pattern>
   <polygon id="svg_49" points="207.81112146377563,337.8555397987366 129.81110620498657,457.4555459022522 238.71111536026,470.3555397987366 292.11112451553345,321.8555397987366 " fill="url(#SVGID_1_)"/>
   <pattern patternTransform="matrix(0.9999 0 0 1 1393.2999 1579.2662)" xlink:href="#RedArgyle" id="SVGID_2_"></pattern>
   <polygon id="svg_50" points="291.11112451553345,321.8555397987366 527.1110634803772,367.7555642127991 545.3110756874084,505.5555520057678 237.71111536026,470.3555397987366 " fill="url(#SVGID_2_)"/>
   <polygon id="svg_51" points="291.11112451553345,321.8555397987366 527.1110634803772,367.7555642127991 545.3110756874084,505.5555520057678 237.71111536026,470.3555397987366 " fill="#CA1932" opacity="0.7"/>
   <path id="svg_52" d="m370.11111,643.05555c50.1,23.2 100.5,51.1 150.6,83.6c0,-12.1 0,-24.2 0,-36.3c-51.2,-28.7 -102.7,-52.5 -153.8,-71.6c1.1,8.1 2.1,16.2 3.2,24.3z" fill="#DBC493"/>
   <pattern patternTransform="matrix(0.9999 0 0 1 1393.2999 1579.2662)" xlink:href="#RedArgyle" id="SVGID_3_"></pattern>
   <path id="svg_53" d="m530.01111,523.35555c-58.9,23.4 -118.1,52.4 -177,87c57.9,23.5 116.1,52.4 174,86.7c1,-57.9 2,-115.8 3,-173.7z" fill="url(#SVGID_3_)"/>
   <path id="svg_54" d="m357.31111,625.85555c-1.4,-5.2 -2.9,-10.3 -4.3,-15.5c57.6,22.3 115.5,50 173.1,83.2c-0.4,4.2 -0.7,8.5 -1.1,12.7c-55.8,-31.9 -111.9,-58.7 -167.7,-80.4z" fill="#8B172E"/>
   <path id="svg_55" d="m235.61111,864.95555c-0.8,-2.8 -1.6,-6.7 -1.5,-11c0,-1.1 0,-2.2 0.1,-3.3c0.4,7.4 2.9,13.1 2.9,13.1s2.6,-5.6 3.2,-13c0,1.1 0.1,2.2 0,3.3c0,4.3 -0.9,8.1 -1.7,10.9l-3,0z" fill="#71BE4E"/>
   <g id="svg_56">
    <path id="svg_57" d="m415.51111,710.95555c-0.9,40.3 -1.9,80.6 -2.8,120.9c29,17.7 58.4,39.6 87.1,65.8c5.5,-42.7 10.9,-85.4 16.3,-128c-33,-25.1 -67.1,-44.7 -100.6,-58.7z" fill="#7F3E1C"/>
    <path id="svg_58" d="m519.41111,767.15555c-31.5,-24.5 -64.1,-43.9 -96.3,-58.2c-3.7,1 -3.9,0.9 -7.6,2c33.8,15.3 68.2,36.3 101.4,63.1c2,-2.7 0.5,-4.2 2.5,-6.9z" fill="#542502"/>
    <path id="svg_59" d="m431.61111,734.05555c-2.1,29.9 -4.3,59.7 -6.4,89.6c25.6,16.3 51.4,35.9 76.6,58.8c4.1,-32.2 8.2,-64.4 12.3,-96.5c-27.1,-21.1 -54.9,-38.4 -82.5,-51.9z" fill="#A8E0F9"/>
    <g id="svg_60">
     <path id="svg_61" d="m480.01111,843.05555c-2.4,-28.8 -4.8,-57.5 -7.3,-86.1c-9.8,-6.1 -19.6,-11.8 -29.3,-16.9c12.2,33.4 24.4,67.7 36.6,103z" fill="#E0F1ED"/>
     <path id="svg_62" d="m437.01111,798.45555c1.7,12.1 3.3,24.3 5,36.4c4.9,3.4 9.8,6.9 14.8,10.6c-6.6,-16 -13.2,-31.6 -19.8,-47z" fill="#E0F1ED"/>
    </g>
    <path id="svg_63" d="m459.61111,852.95555c-2.9,-0.1 -5.9,-0.2 -8.8,-0.3c2.2,-36.7 4.4,-73.4 6.5,-110.1c2.9,0 5.9,0.1 8.8,0.3c-2.1,36.7 -4.3,73.4 -6.5,110.1z" fill="#7F3E1C"/>
    <path id="svg_64" d="m417.31111,778.55555c1.7,-2.5 3.4,-4.9 5.2,-7.4c33.5,17.9 67.3,41.5 99.9,70.6c-1.7,1.9 -3.4,3.9 -5.1,5.8c-32.7,-28.6 -66.6,-51.6 -100,-69z" fill="#7F3E1C"/>
   </g>
   <polygon id="svg_65" points="206.71111536026,325.0555520057678 202.41109704971313,339.9555459022522 287.9111123085022,327.15555810928345 527.1110634803772,367.7555642127991 528.2110390663147,356.0555520057678 291.11112451553345,307.9555459022522 " fill="#8B172E"/>
   <g id="svg_66">
    <path id="svg_67" d="m501.91111,881.65555c-1.9,-6.4 -5,-12.1 -9.7,-16.3c-10.8,-9.6 -20.6,-13.1 -27.8,-14.3c12.6,9.7 25.1,20.1 37.5,31.3c-0.1,-0.2 0,-0.4 0,-0.7z" fill="#7DD0F6"/>
    <path id="svg_68" d="m428.31111,779.65555c-1,14.6 -2.1,29.3 -3.1,43.9c9.2,5.9 18.5,12.2 27.7,18.9c-0.1,-16.2 -3.1,-50.7 -24.6,-62.8z" fill="#7DD0F6"/>
   </g>
   <g id="svg_69">
    <line id="svg_70" y2="316.25555" x2="313.31111" y1="289.15555" x1="314.11111" stroke-miterlimit="10" stroke-linecap="round" stroke-width="3" stroke="#8B172E" fill="none"/>
    <line id="svg_71" y2="319.75555" x2="331.61111" y1="293.05555" x1="332.41111" stroke-miterlimit="10" stroke-linecap="round" stroke-width="3" stroke="#8B172E" fill="none"/>
    <line id="svg_72" y2="323.25555" x2="349.91111" y1="296.85555" x1="350.71111" stroke-miterlimit="10" stroke-linecap="round" stroke-width="3" stroke="#8B172E" fill="none"/>
    <line id="svg_73" y2="326.75555" x2="368.21111" y1="300.75555" x1="369.01111" stroke-miterlimit="10" stroke-linecap="round" stroke-width="3" stroke="#8B172E" fill="none"/>
    <line id="svg_74" y2="330.25555" x2="386.51111" y1="304.55555" x1="387.31111" stroke-miterlimit="10" stroke-linecap="round" stroke-width="3" stroke="#8B172E" fill="none"/>
    <line id="svg_75" y2="333.75555" x2="404.81111" y1="308.35555" x1="405.61111" stroke-miterlimit="10" stroke-linecap="round" stroke-width="3" stroke="#8B172E" fill="none"/>
    <line id="svg_76" y2="337.25555" x2="423.11111" y1="312.25555" x1="423.91111" stroke-miterlimit="10" stroke-linecap="round" stroke-width="3" stroke="#8B172E" fill="none"/>
    <line id="svg_77" y2="340.75555" x2="441.41111" y1="316.05555" x1="442.21111" stroke-miterlimit="10" stroke-linecap="round" stroke-width="3" stroke="#8B172E" fill="none"/>
    <line id="svg_78" y2="344.25555" x2="459.71111" y1="319.85555" x1="460.51111" stroke-miterlimit="10" stroke-linecap="round" stroke-width="3" stroke="#8B172E" fill="none"/>
   </g>
   <line id="svg_79" y2="329.55555" x2="223.11111" y1="303.55555" x1="224.21111" stroke-miterlimit="10" stroke-linecap="round" stroke-width="3" stroke="#8B172E" fill="none"/>
   <line id="svg_80" y2="314.75555" x2="273.61111" y1="286.75555" x1="274.71111" stroke-miterlimit="10" stroke-linecap="round" stroke-width="3" stroke="#8B172E" fill="none"/>
   <path id="svg_81" d="m492.21111,865.35555c-0.4,-0.4 -0.9,-0.8 -1.3,-1.1c-0.2,2.7 -0.3,5.4 -0.5,8.1c-8.6,-7.5 -17.3,-14.5 -26.1,-21.2c-7.1,-1.1 -11.6,0.1 -11.6,0.1s0.7,-9.5 -0.5,-21.8c-0.2,4 -0.5,8.1 -0.7,12.1c-8.8,-6.4 -17.6,-12.3 -26.3,-17.9c0.9,-13.1 1.9,-26.2 2.8,-39.3c4.3,2.4 8.5,4.8 12.8,7.4c-4.4,-6.6 -10.2,-11.9 -18.2,-14.5c-3,-1 -5.9,-1.6 -8.6,-1.8c-0.4,18.8 -0.9,37.7 -1.3,56.5c29,17.7 58.4,39.6 87.1,65.8c0.7,-5.1 1.3,-10.2 2,-15.3c-1,-0.9 -2,-1.8 -3.1,-2.8c0.1,-1.8 0.2,-3.5 0.3,-5.3c-1.8,-3.4 -4,-6.5 -6.8,-9z" fill="#542502"/>
   <line id="svg_82" y2="324.65555" x2="239.31111" y1="296.65555" x1="240.41111" stroke-miterlimit="10" stroke-linecap="round" stroke-width="3" stroke="#8B172E" fill="none"/>
   <line id="svg_83" y2="319.95555" x2="257.41111" y1="292.05555" x1="258.51111" stroke-miterlimit="10" stroke-linecap="round" stroke-width="3" stroke="#8B172E" fill="none"/>
   <g id="svg_84">
    <g id="svg_85">
     <g id="svg_86">
      <path id="svg_87" d="m174.21111,730.85555c15.8,13.2 32,28.2 48.2,44.8c0.5,0.1 3.3,-0.3 4.8,-0.8c-0.3,-32 -0.6,-66.8 -0.8,-99.8c-0.4,-0.5 0.1,-3.8 -1,-4.6c-17.1,-13.3 -49,-35 -57.6,-37.4c0,0 -2,0.5 -1.9,1.3c1.2,31.1 7.2,66.2 8.3,96.5z" fill="#542502"/>
      <path id="svg_88" d="m169.31111,726.75555c17.4,14.2 35.2,30.5 53.2,48.9c-0.4,-34.3 -0.8,-69.2 -1.2,-104.7c-18.8,-14.7 -37.5,-27.1 -55.6,-37.2c1.2,31.4 2.4,62.4 3.6,93z" fill="#7F3E1C"/>
      <path id="svg_89" d="m175.71111,724.25555c12.5,10.3 25.2,21.6 38.1,34.1c-0.4,-27.8 -0.9,-56 -1.3,-84.6c-13.3,-10.2 -26.5,-19.3 -39.5,-27.2c0.9,26.2 1.8,52.1 2.7,77.7z" fill="#A8E0F9"/>
     </g>
     <g id="svg_90">
      <path id="svg_91" d="m173.21111,652.75555c9.4,17.7 18.9,35.9 28.4,54.8c-9.3,-13 -18.6,-25.4 -27.8,-37.2c-0.2,-5.9 -0.4,-11.7 -0.6,-17.6z" fill="#E0F1ED"/>
      <path id="svg_92" d="m213.61111,747.15555c-9.8,-20.5 -19.6,-40.4 -29.3,-59.7c9.6,13.1 19.3,26.7 29,41c0.1,6.2 0.2,12.5 0.3,18.7z" fill="#E0F1ED"/>
     </g>
     <path id="svg_93" d="m169.81111,672.45555c15.8,10.6 32,23 48.3,37.1c0,-1.7 0,-3.5 -0.1,-5.2c-16.4,-13.9 -32.6,-26.1 -48.4,-36.6c0.1,1.6 0.2,3.2 0.2,4.7z" fill="#7F3E1C"/>
     <path id="svg_94" d="m170.91111,701.15555c15.6,11.7 31.6,25.2 47.7,40.3c0,-1.7 0,-3.4 -0.1,-5.1c-16.2,-14.9 -32.2,-28.2 -47.8,-39.8c0.1,1.5 0.1,3.1 0.2,4.6z" fill="#7F3E1C"/>
     <path id="svg_95" d="m195.91111,747.55555c-0.8,-30.8 -1.6,-62 -2.3,-93.7c-1.3,-0.9 -2.6,-1.8 -4,-2.6c0.8,31.4 1.7,62.4 2.5,92.9c1.2,1.1 2.5,2.3 3.8,3.4z" fill="#7F3E1C"/>
    </g>
    <g id="svg_96">
     <g id="svg_97">
      <path id="svg_98" d="m169.81111,608.95555c16.7,8.4 33.8,18.8 51.1,31c1.9,-0.3 2.8,-0.5 4.6,-0.9c-0.3,-36.9 -0.4,-82.1 -0.7,-120.4c-1.1,-1.2 -14.4,-7 -28.7,-11.4c-16.3,-5 -32.4,-8.2 -32.4,-8.2l-3,2.1c-0.1,-0.2 7.8,72.7 9.1,107.8z" fill="#542502"/>
      <path id="svg_99" d="m164.61111,606.35555c18.3,8.8 37.2,20 56.3,33.5c-0.4,-39.6 -0.9,-79.9 -1.4,-120.9c-20.1,-8.5 -39.9,-14.5 -59,-18c1.4,35.7 2.8,70.8 4.1,105.4z" fill="#7F3E1C"/>
      <path id="svg_100" d="m171.41111,600.75555c13.2,6.4 26.7,14.1 40.3,22.9c-0.5,-32 -1,-64.4 -1.5,-97.4c-14.2,-5.8 -28.2,-10.4 -41.9,-13.8c1,29.8 2,59.2 3.1,88.3z" fill="#A8E0F9"/>
     </g>
     <g id="svg_101">
      <path id="svg_102" d="m168.51111,519.65555c10,16.2 20,33.1 30.1,50.7c-9.9,-10.9 -19.7,-21.1 -29.4,-30.7c-0.2,-6.7 -0.5,-13.4 -0.7,-20z" fill="#E0F1ED"/>
      <path id="svg_103" d="m211.41111,610.75555c-10.4,-19.4 -20.8,-38.1 -31.1,-56.1c10.2,10.9 20.5,22.4 30.8,34.7c0.1,7.1 0.2,14.3 0.3,21.4z" fill="#E0F1ED"/>
     </g>
     <path id="svg_104" d="m165.01111,543.85555c16.7,5.3 33.8,12.5 51.2,21.5c0,-2 -0.1,-4 -0.1,-6c-17.4,-8.8 -34.6,-15.8 -51.4,-20.8c0.2,1.7 0.3,3.5 0.3,5.3z" fill="#7F3E1C"/>
     <path id="svg_105" d="m166.21111,576.25555c16.5,6.7 33.4,15.3 50.5,25.7c0,-1.9 0,-3.9 -0.1,-5.8c-17.2,-10.2 -34.1,-18.6 -50.6,-25c0.1,1.7 0.2,3.4 0.2,5.1z" fill="#7F3E1C"/>
     <path id="svg_106" d="m192.61111,618.85555c-0.9,-35.1 -1.8,-70.9 -2.7,-107.2c-1.4,-0.4 -2.8,-0.9 -4.2,-1.3c1,35.9 1.9,71.3 2.9,106.1c1.4,0.9 2.7,1.6 4,2.4z" fill="#7F3E1C"/>
    </g>
   </g>
   <polygon id="svg_107" points="236.11110925674438,798.7555947303772 221.81112146377563,784.4556069374084 220.81112146377563,800.7555947303772 237.11110925674438,816.9556069374084 " fill="#DBC493"/>
   <polygon id="svg_108" points="211.01110315322876,806.055582523346 222.61110925674438,818.8555703163147 223.71111536026,808.555582523346 214.61110925674438,797.6555581092834 " fill="#DBC493"/>
   <g id="svg_109">
    <path id="svg_110" d="m267.71111,523.15555c1.3,40.7 2.5,81 3.8,120.9c1.4,0.7 2.7,1.4 4.1,2.1c16.9,-1.1 34,-1.4 51.4,-1c3.5,-37.4 7,-75.2 10.6,-113.4c-1.8,-1.4 -3.6,-2.7 -5.4,-4.1c-21.9,-2.7 -43.4,-4.3 -64.5,-4.5z" fill="#542502"/>
    <path id="svg_111" d="m271.71111,527.35555c1.3,40.1 2.6,79.7 3.9,119c18,-1.3 36.4,-1.7 55,-1.1c2.3,-37.4 4.6,-75.2 6.9,-113.4c-22.2,-3 -44.2,-4.5 -65.8,-4.5z" fill="#7F3E1C"/>
    <path id="svg_112" d="m278.41111,533.65555c1,34.8 2,69.3 3,103.4c13.7,-1 27.7,-1.4 41.7,-0.9c1.9,-32.7 3.7,-65.8 5.6,-99.1c-16.9,-2.3 -33.7,-3.4 -50.3,-3.4z" fill="#7DD0F6"/>
    <g id="svg_113">
     <path id="svg_114" d="m328.21111,547.05555c-12.8,13.4 -25.5,27.4 -38,41.7c12.2,-7.8 24.5,-15 36.9,-21.8c0.3,-6.6 0.7,-13.2 1.1,-19.9z" fill="#A8E0F9"/>
     <path id="svg_115" d="m281.11111,626.85555c10.8,-15.8 21.8,-31.4 32.9,-46.6c-11.3,8.4 -22.5,17.2 -33.5,26.4c0.2,6.7 0.4,13.5 0.6,20.2z" fill="#A8E0F9"/>
    </g>
    <path id="svg_116" d="m276.71111,567.95555c18.2,-0.7 36.6,-0.2 55.3,1.5c-0.4,1.6 -0.8,3.2 -1.1,4.9c-18.3,-1.8 -36.3,-2.4 -54.1,-2c-0.1,-1.5 -0.1,-2.9 -0.1,-4.4z" fill="#7F3E1C"/>
    <path id="svg_117" d="m275.91111,603.25555c18.1,-0.9 36.5,-0.6 55.1,0.8c-0.3,1.6 -0.7,3.2 -1,4.8c-18.2,-1.6 -36.2,-2 -53.9,-1.3c-0.1,-1.4 -0.2,-2.8 -0.2,-4.3z" fill="#7F3E1C"/>
    <path id="svg_118" d="m300.71111,641.55555c0.2,-36.6 0.5,-73.6 0.7,-111c1.6,0.7 3.3,1.4 4.9,2.2c-0.4,36.5 -0.8,72.7 -1.2,108.5c-1.5,0.1 -3,0.2 -4.4,0.3z" fill="#7F3E1C"/>
   </g>
   <path id="svg_119" d="m271.71111,675.55555c0.4,37.4 0.9,75.3 1.3,113.8c1.1,0.7 2.3,1.4 3.4,2.2c14.6,-0.8 30,-0.8 46.2,0c3.3,-38.5 6.6,-76.9 9.9,-115.2c-1.7,-1.1 -3.4,-2.3 -5.1,-3.4c-19.7,-0.2 -38.3,0.7 -55.7,2.6z" fill="#542502"/>
   <path id="svg_120" d="m274.91111,678.95555c0.5,37 1,74.6 1.5,112.8c15.6,-1 32.2,-1 49.7,0c2.2,-38.7 4.3,-77.2 6.4,-115.3c-20.4,-0.5 -39.6,0.4 -57.6,2.5z" fill="#7F3E1C"/>
   <path id="svg_121" d="m280.31111,684.15555c0.4,32.4 0.8,65.3 1.2,98.6c12,-0.9 24.5,-1.1 37.5,-0.6c1.8,-33.5 3.6,-66.7 5.3,-99.7c-15.3,-0.4 -30,0.2 -44,1.7z" fill="#7DD0F6"/>
   <g id="svg_122">
    <path id="svg_123" d="m323.81111,692.35555c-11.8,14.2 -23.2,28.6 -34.2,43.1c10.7,-8.1 21.7,-15.9 33.2,-23.3c0.3,-6.6 0.7,-13.2 1,-19.8z" fill="#A8E0F9"/>
    <path id="svg_124" d="m281.41111,772.75555c9.5,-15.6 19.3,-31.2 29.4,-46.7c-10.2,8.8 -20,17.8 -29.6,27c0,6.6 0.1,13.1 0.2,19.7z" fill="#A8E0F9"/>
   </g>
   <path id="svg_125" d="m278.41111,716.35555c15.4,-1.8 31.8,-2.5 49,-2.1c-0.4,1.6 -0.7,3.3 -1.1,4.9c-16.8,-0.6 -32.8,-0.2 -47.9,1.3c0,-1.4 0,-2.7 0,-4.1z" fill="#7F3E1C"/>
   <path id="svg_126" d="m277.21111,749.95555c15.5,-1.3 31.9,-1.6 49.2,-0.7c-0.3,1.7 -0.6,3.3 -1,5c-16.9,-1.2 -32.9,-1.2 -48.1,-0.1c0,-1.4 0,-2.8 -0.1,-4.2z" fill="#7F3E1C"/>
   <path id="svg_127" d="m298.41111,787.45555c0.5,-36.6 1,-72.7 1.5,-108.4c1.4,0.5 2.8,1 4.3,1.6c-0.6,35.1 -1.2,70.7 -1.8,106.6c-1.4,0 -2.7,0.1 -4,0.2z" fill="#7F3E1C"/>
   <polygon id="svg_128" points="376.2111306190491,525.3555092811584 373.8111367225647,547.1555581092834 404.4111123085022,545.5555214881897 406.0111184120178,531.0555214881897 " fill="#A09C72"/>
   <polygon id="svg_129" points="420.11112451553345,529.0555214881897 422.3111367225647,512.6555581092834 399.11112451553345,513.255533695221 397.61112451553345,524.255533695221 " fill="#A09C72"/>
   <polygon id="svg_130" points="340.9111123085022,708.3555703163147 340.11112451553345,724.9556069374084 363.2111306190491,722.2555947303772 363.7111306190491,711.2555947303772 " fill="#A09C72"/>
   <polygon id="svg_131" points="261.8111367225647,814.1555581092834 261.0111184120178,830.7555947303772 284.11112451553345,828.055582523346 284.61112451553345,817.055582523346 " fill="#A09C72"/>
   <path id="svg_132" d="m275.61111,875.05555c0,0 -16.9,-56.2 26.6,-66.5c26.8,-6.3 45,16.7 45,16.7s18.7,-43.4 60,-31.9c41.4,11.5 35.8,74.1 35.8,74.1s21.3,-5 46.9,14.1c25.5,19.2 10.6,70.2 10.6,70.2s-23.8,17.6 -57.5,8.9c-39.6,-10.2 -48.5,-39.6 -48.5,-39.6s-19.2,14.1 -62.6,0c-43.5,-14 -56.3,-46 -56.3,-46z" fill="#00864C"/>
   <ellipse id="svg_133" ry="31.9" rx="27.9" cy="807.3274" cx="299.42982" fill="#00864C" transform="matrix(0.3263,-0.9453,0.9453,0.3263,-566.1432,904.6729) "/>
   <path id="svg_134" d="m293.01111,901.35555c0,0 8,20.5 47.6,39.2c55,26 93.4,11.1 93.4,11.1l0,-23.1l-140.6,-49.4l-0.4,22.2z" fill="#00864C"/>
   <path id="svg_135" d="m379.31111,836.85555c0,4.9 -4.4,8.9 -4.4,8.9s-4.5,-4 -4.5,-8.9c0,-4.9 4.5,-8.9 4.5,-8.9s4.4,3.9 4.4,8.9z" fill="#71BE4E"/>
   <path id="svg_136" d="m389.21111,848.55555c-4.2,2.6 -9.9,1 -9.9,1s1,-5.9 5.2,-8.5c4.2,-2.6 9.9,-1 9.9,-1s-1,5.9 -5.2,8.5z" fill="#71BE4E"/>
   <path id="svg_137" d="m391.11111,916.25555c0.4,4.9 5.1,8.5 5.1,8.5s4.1,-4.3 3.8,-9.2c-0.4,-4.9 -5.1,-8.5 -5.1,-8.5s-4.2,4.3 -3.8,9.2z" fill="#71BE4E"/>
   <path id="svg_138" d="m456.81111,914.85555c-4.7,1.3 -7.4,6.7 -7.4,6.7s5,3.2 9.8,1.9c4.7,-1.3 7.4,-6.7 7.4,-6.7s-5,-3.2 -9.8,-1.9z" fill="#71BE4E"/>
   <path id="svg_139" d="m443.41111,909.15555c-0.3,4.9 4,9.1 4,9.1s4.6,-3.8 4.9,-8.7c0.3,-4.9 -4,-9.1 -4,-9.1s-4.7,3.8 -4.9,8.7z" fill="#71BE4E"/>
   <path id="svg_140" d="m382.11111,928.75555c4.3,2.3 9.9,0.2 9.9,0.2s-1.4,-5.8 -5.8,-8.1c-4.3,-2.3 -9.9,-0.2 -9.9,-0.2s1.4,5.8 5.8,8.1z" fill="#71BE4E"/>
   <path id="svg_141" d="m306.31111,866.65555c0,4.9 4.4,8.9 4.4,8.9s4.5,-4 4.5,-8.9c0,-4.9 -4.5,-8.9 -4.5,-8.9s-4.4,4 -4.4,8.9z" fill="#71BE4E"/>
   <path id="svg_142" d="m296.31111,878.35555c4.2,2.6 9.9,1 9.9,1s-1,-5.9 -5.2,-8.5c-4.2,-2.6 -9.9,-1 -9.9,-1s1.1,5.9 5.2,8.5z" fill="#71BE4E"/>
   <path id="svg_143" d="m404.01111,957.95555c-2,-4.3 -4,-10.3 -3.9,-16.9c0,-1.8 0.1,-3.4 0.3,-5.1c1,11.4 7.6,20.2 7.6,20.2s6.8,-8.6 8.2,-20c0.1,1.6 0.1,3.3 0.1,5.1c-0.1,6.6 -2.3,12.5 -4.4,16.7l-7.9,0z" fill="#71BE4E"/>
   <polygon id="svg_144" points="406.9111123085022,932.055582523346 406.9111123085022,958.2555947303772 410.0111184120178,958.2555947303772 " fill="#71BE4E"/>
   <g id="svg_145">
    <polygon id="svg_146" points="426.3111367225647,342.2555642127991 426.8111367225647,350.7555642127991 429.7111306190491,351.2555642127991 " fill="#BA2744"/>
    <polygon id="svg_147" points="392.7111306190491,334.2555642127991 393.11112451553345,345.0555520057678 396.2111306190491,345.5555520057678 " fill="#BA2744"/>
    <polygon id="svg_148" points="314.5111184120178,317.9555459022522 315.11112451553345,331.7555642127991 319.0111184120178,332.4555459022522 " fill="#BA2744"/>
    <polygon id="svg_149" points="353.7111306190491,327.2555642127991 354.3111367225647,338.4555459022522 358.2111306190491,339.15555810928345 " fill="#BA2744"/>
    <polygon id="svg_150" points="220.81112146377563,337.2555642127991 221.51110315322876,326.4555459022522 216.51110315322876,337.8555397987366 " fill="#BA2744"/>
    <polygon id="svg_151" points="258.4111123085022,331.65555810928345 259.11112451553345,317.8555397987366 254.11112451553345,332.2555642127991 " fill="#BA2744"/>
    <polygon id="svg_152" points="459.21110010147095,347.5555520057678 459.51114892959595,356.3555397987366 462.01114892959595,356.7555642127991 " fill="#BA2744"/>
   </g>
   <path id="svg_153" d="m144.31111,745.45555c2.1,-0.6 3.3,-2.6 3.3,-2.6s-2.1,-1 -4.2,-0.3c-2.1,0.6 -3.3,2.6 -3.3,2.6s2.2,0.9 4.2,0.3z" fill="#71BE4E"/>
   <path id="svg_154" d="m141.61111,739.85555c2.6,1.8 6,1.5 6,1.5s-0.8,-3.3 -3.4,-5.1c-2.6,-1.8 -6,-1.5 -6,-1.5s0.9,3.3 3.4,5.1z" fill="#71BE4E"/>
   <polygon id="svg_155" points="154.9111123085022,476.5555520057678 155.81110620498657,488.65555810928345 171.4111123085022,491.3555397987366 172.31110620498657,482.65555810928345 " fill="#DBC493"/>
  </g>
  <g id="left_building"/>
  <g id="info_board">
   <g id="svg_156">
    <path id="svg_157" d="m79.61111,888.15555c-1.7,1.5 -3.4,3.1 -5,4.6c-4,-0.5 -8,-0.9 -12,-1.3c0,-16.2 0,-32.3 0,-48.5c5.2,-0.3 10.5,-0.6 15.7,-0.8c0.5,15.4 0.9,30.7 1.3,46z" fill="#542502"/>
    <path id="svg_158" d="m169.81111,901.75555c-1.7,1.4 -3.4,2.8 -5,4.2c-4,-0.8 -8,-1.6 -12,-2.3c0,-16.2 0,-32.3 0,-48.5c5.3,0.2 10.5,0.4 15.8,0.6c0.3,15.3 0.7,30.7 1.2,46z" fill="#542502"/>
    <path id="svg_159" d="m50.01111,746.15555c-3.4,1.3 -6.7,2.6 -10.1,3.9c48.6,41.9 97.5,87.4 146.2,136.3c2.3,-2.6 4.6,-5.2 6.9,-7.7c2.5,-39.5 5,-79 7.5,-118.5c-50,-8.4 -100.3,-13.1 -150.5,-14z" fill="#542502"/>
    <path id="svg_160" d="m40.01111,750.05555c1.3,37.5 2.5,75 3.8,112.5c47.4,4.6 95,12.6 142.4,23.8c3,-40.2 6,-80.4 9.1,-120.5c-51.8,-9.3 -103.7,-14.5 -155.3,-15.8z" fill="#7F3E1C"/>
    <path id="svg_161" d="m48.81111,758.15555c0.4,31.9 0.8,63.8 1.3,95.7c42.2,4.4 84.5,11.5 126.6,21.2c1.7,-35 3.4,-69.9 5,-104.9c-44.2,-6.9 -88.7,-10.9 -132.9,-12z" fill="#DBC493"/>
    <path id="svg_162" d="m161.31111,788.05555c-32.6,-4.3 -65.3,-7 -97.9,-8.2c0.5,-5 0.9,-10.1 1.4,-15.1c32.6,1.2 65.3,4 97.9,8.3c-0.5,5 -0.9,10 -1.4,15z" fill="#A09C72"/>
   </g>
   <g id="svg_163">
    <path id="svg_164" d="m81.71111,808.65555c1,-5.4 1.8,-10.9 2.2,-16.4c-6.5,-0.6 -13.1,-1.2 -19.6,-1.8c-1,9.2 -2.8,18.3 -5.4,27.2c6.5,1.8 13,3.6 19.4,5.3c0.8,-3 1.6,-5.9 2.2,-8.9c0.1,8.4 -1.2,17 -4,25.3c7.5,0.7 15.1,1.5 22.7,2.2c2.6,-10.9 2.9,-22.1 0.9,-33c-6.1,0.1 -12.2,0.1 -18.4,0.1z" fill="#CBA962"/>
    <path id="svg_165" d="m165.71111,812.05555c-5.1,0 -10.2,0 -15.3,0c-1,-5.5 -2.3,-10.9 -4.1,-16.2c-4.4,1.4 -8.8,2.8 -13.2,4.3c0.7,2.4 1.3,4.8 1.9,7.3c-2.4,-0.5 -4.8,-0.9 -7.2,-1.4c-0.9,4.4 -2.3,8.7 -3.9,12.9c3,1.2 6.1,2.3 9.1,3.5c1.2,-3.1 2.2,-6.3 3.1,-9.6c0.4,2.1 0.7,4.3 1,6.5c3,-0.4 6,-0.8 9,-1.2c0,4.3 -0.3,8.7 -1.1,13.1c-4.6,-0.8 -9.2,-1.6 -13.8,-2.4c-1.8,9.1 -4.3,18 -7.6,26.7c6.3,2.3 12.6,4.6 18.9,6.9c2.3,-6.2 4.2,-12.5 5.8,-18.9c4,0.4 8.1,0.8 12.1,1.2l0.8,-4.9l1.3,1.9l0.6,-0.8l0.6,0.9l2.1,-1.4c1.7,-9.6 1.6,-19.1 -0.1,-28.4z" fill="#CBA962"/>
   </g>
   <path id="svg_166" d="m62.41111,788.45555c6.5,0.6 13.1,1.2 19.6,1.8c-0.9,10.4 -2.8,20.7 -5.6,30.7c-6.5,-1.8 -13,-3.5 -19.4,-5.3c2.5,-8.9 4.3,-18 5.4,-27.2z" fill="#E0F1ED"/>
   <polygon id="svg_167" points="64.51111078262329,792.8555703163147 79.21112298965454,795.555582523346 78.61111688613892,797.555582523346 64.11111688613892,794.6555581092834 " fill="#C3E4DC"/>
   <polygon id="svg_168" points="65.01111078262329,797.8555703163147 76.51110315322876,800.555582523346 73.11111688613892,815.055582523346 62.71110773086548,812.055582523346 " fill="#C3E4DC"/>
   <circle id="svg_169" r="1.2" cy="791.85555" cx="70.81111" fill="#BA2744"/>
   <path id="svg_170" d="m78.41111,806.65555c6.6,0 13.2,0 19.8,0c2,10.9 1.7,22.1 -0.9,33c-7.6,-0.7 -15.1,-1.5 -22.7,-2.2c3.4,-10.2 4.6,-20.7 3.8,-30.8z" fill="#A8E0F9"/>
   <circle id="svg_171" r="1.2" cy="810.35555" cx="88.01111" fill="#8B172E"/>
   <polygon id="svg_172" points="82.21112298965454,815.555582523346 96.31110620498657,815.8555703163147 96.31110620498657,818.2555947303772 82.4111123085022,817.555582523346 " fill="#6CCBF5"/>
   <polygon id="svg_173" points="82.4111123085022,820.2555947303772 96.31110620498657,820.7555947303772 95.31110620498657,823.2555947303772 82.4111123085022,822.555582523346 " fill="#6CCBF5"/>
   <polygon id="svg_174" points="81.4111123085022,825.7555947303772 95.8111138343811,826.4556069374084 95.31110620498657,829.2555947303772 81.01111078262329,828.2555947303772 " fill="#6CCBF5"/>
   <polygon id="svg_175" points="78.01111078262329,831.1555581092834 96.8111138343811,832.4556069374084 96.8111138343811,834.1555581092834 77.71112298965454,832.4556069374084 " fill="#6CCBF5"/>
   <polygon id="svg_176" points="79.21112298965454,836.6555581092834 80.71112298965454,832.1555581092834 82.21112298965454,832.1555581092834 80.21112298965454,836.3555703163147 " fill="#6CCBF5"/>
   <polygon id="svg_177" points="87.4111123085022,832.1555581092834 86.91111993789673,836.8555703163147 85.4111123085022,837.1555581092834 86.51110315322876,832.6555581092834 " fill="#6CCBF5"/>
   <polygon id="svg_178" points="90.8111138343811,837.555582523346 91.91111993789673,832.9556069374084 93.4111123085022,832.7555947303772 91.8111138343811,837.1555581092834 " fill="#6CCBF5"/>
   <path id="svg_179" d="m158.41111,842.65555l0.8,-4.9l1.3,1.9l0.6,-0.8l0.6,0.9l2.1,-1.4c1.6,-9.3 1.6,-18.9 -0.1,-28.1c-6.6,0 -13.2,0 -19.8,0c0.8,10.1 -0.4,20.6 -3.8,30.7c6.1,0.5 12.2,1.1 18.3,1.7z" fill="#FCFF77"/>
   <circle id="svg_180" r="1.2" cy="813.85555" cx="153.51111" fill="#8B172E"/>
   <polygon id="svg_181" points="147.51110315322876,817.2555947303772 161.61110925674438,817.555582523346 161.61110925674438,820.055582523346 147.71111536026,819.2555947303772 " fill="#F9D900"/>
   <polygon id="svg_182" points="147.4111123085022,820.6555581092834 161.81110620498657,821.3555703163147 161.31110620498657,824.055582523346 146.9111123085022,823.1555581092834 " fill="#F9D900"/>
   <polygon id="svg_183" points="143.51110315322876,834.6555581092834 162.31110620498657,835.8555703163147 162.31110620498657,837.6555581092834 143.31110620498657,835.8555703163147 " fill="#F9D900"/>
   <polygon id="svg_184" points="144.71111536026,840.055582523346 146.21111536026,835.6555581092834 147.71111536026,835.6555581092834 145.71111536026,839.8555703163147 " fill="#6CCBF5"/>
   <polygon id="svg_185" points="152.9111123085022,835.6555581092834 152.4111123085022,840.2555947303772 150.9111123085022,840.555582523346 152.01110315322876,836.055582523346 " fill="#F9D900"/>
   <polygon id="svg_186" points="156.31110620498657,840.9556069374084 157.4111123085022,836.3555703163147 158.9111123085022,836.2555947303772 157.31110620498657,840.6555581092834 " fill="#F9D900"/>
   <path id="svg_187" d="m129.21111,826.75555c6.5,1.1 13,2.3 19.4,3.4c-1.8,10.3 -4.5,20.4 -8.1,30.2c-6.3,-2.3 -12.6,-4.6 -18.9,-6.9c3.3,-8.7 5.9,-17.7 7.6,-26.7z" fill="#FCF1ED"/>
   <polygon id="svg_188" points="131.01110315322876,831.2555947303772 145.4111123085022,835.1555581092834 144.71111536026,837.055582523346 130.51110315322876,833.055582523346 " fill="#FCD4B9"/>
   <path id="svg_189" d="m131.11111,798.15555c4.4,-1.4 8.8,-2.9 13.2,-4.3c2.3,7 3.9,14.2 4.9,21.5c-4.7,0.6 -9.4,1.3 -14.1,1.9c-0.8,-6.4 -2.1,-12.8 -4,-19.1z" fill="#A8E0F9"/>
   <polygon id="svg_190" points="133.71111536026,800.4556069374084 144.01110315322876,798.055582523346 144.21111536026,799.555582523346 134.01110315322876,801.6555581092834 " fill="#6CCBF5"/>
   <path id="svg_191" d="m125.81111,804.05555c3.1,0.6 6.3,1.2 9.4,1.8c-0.9,5 -2.3,9.9 -4.2,14.6c-3,-1.2 -6.1,-2.3 -9.1,-3.5c1.7,-4.2 3,-8.5 3.9,-12.9z" fill="#FCFF77"/>
   <polygon id="svg_192" points="126.21111536026001,807.8555703163147 133.11110925674438,809.8555703163147 132.81110620498657,810.8555703163147 125.9111123085022,808.7555947303772 " fill="#F9D900"/>
   <polygon id="svg_193" points="125.4111123085022,809.8555703163147 132.31110620498657,811.8555703163147 132.01110315322876,812.7555947303772 125.11110925674438,810.6555581092834 " fill="#F9D900"/>
   <polygon id="svg_194" points="131.51110315322876,814.7555947303772 124.4111123085022,813.3555703163147 124.71111536026001,812.4556069374084 131.71111536026,813.9556069374084 " fill="#F9D900"/>
   <circle id="svg_195" r="1.2" cy="798.85555" cx="137.61111" fill="#8B172E"/>
   <circle id="svg_196" r="1.2" cy="791.65555" cx="114.21111" fill="#8B172E"/>
   <circle id="svg_197" r="1.2" cy="796.25555" cx="117.41111" fill="#BA2744"/>
   <ellipse id="svg_198" ry="1.2" rx="1.2" cy="741.54962" cx="154.16051" fill="#BA2744" transform="matrix(0.08274295,-0.9966,0.9966,0.08274295,-614.3148,923.1307) "/>
   <ellipse id="svg_199" ry="1.2" rx="1.2" cy="717.44946" cx="146.16068" fill="#BA2744" transform="matrix(0.08273941,-0.9966,0.9966,0.08273941,-597.7054,893.0928) "/>
   <polygon id="svg_200" points="129.81110620498657,834.4556069374084 136.61110925674438,836.2555947303772 134.01110315322876,844.3555703163147 128.31110620498657,842.4556069374084 " fill="#FCD4B9"/>
   <polygon id="svg_201" points="135.71111536026,843.8555703163147 133.71111536026,853.6555581092834 139.11110925674438,855.555582523346 141.71111536026,845.9556069374084 " fill="#FCD4B9"/>
   <polygon id="svg_202" points="137.61110925674438,837.3555703163147 137.31110620498657,839.1555581092834 142.31110620498657,840.7555947303772 142.71111536026,839.1555581092834 " fill="#FCD4B9"/>
   <polygon id="svg_203" points="136.81110620498657,840.6555581092834 136.51110315322876,842.4556069374084 141.51110315322876,844.055582523346 141.9111123085022,842.4556069374084 " fill="#FCD4B9"/>
   <polygon id="svg_204" points="128.21111536026,844.3555703163147 127.81110620498657,846.1555581092834 132.9111123085022,847.7555947303772 133.21111536026,846.1555581092834 " fill="#FCD4B9"/>
   <polygon id="svg_205" points="127.4111123085022,847.9556069374084 127.01110315322876,849.7555947303772 132.11110925674438,851.3555703163147 132.4111123085022,849.7555947303772 " fill="#FCD4B9"/>
   <polygon id="svg_206" points="154.31110620498657,825.7555947303772 160.21111536026,826.6555581092834 159.51110315322876,832.555582523346 153.81110620498657,831.8555703163147 " fill="#F9D900"/>
   <polygon id="svg_207" points="146.4111123085022,825.1555581092834 152.4111123085022,825.4556069374084 152.4111123085022,826.3555703163147 146.31110620498657,826.6555581092834 " fill="#F9D900"/>
   <polygon id="svg_208" points="136.31110620498657,803.3555703163147 143.11110925674438,801.555582523346 145.71111536026,813.555582523346 138.4111123085022,814.3555703163147 " fill="#6CCBF5"/>
  </g>
  <g id="bird_elephant"/>
  <g id="frog_creature"/>
  <g id="purple_creature"/>
  <g id="Characters"/>
  <g display="none" id="Glow"/>
  <g display="none" id="BG_Purple_2"/>
 </g>
</svg>
