<?xml version="1.0" encoding="utf-8"?>
<!-- Generator: Adobe Illustrator 21.0.0, SVG Export Plug-In . SVG Version: 6.00 Build 0)  -->
<!DOCTYPE svg PUBLIC "-//W3C//DTD SVG 1.1//EN" "http://www.w3.org/Graphics/SVG/1.1/DTD/svg11.dtd">
<svg version="1.1" xmlns="http://www.w3.org/2000/svg" xmlns:xlink="http://www.w3.org/1999/xlink" x="0px" y="0px"
	 viewBox="0 0 82.7 77.6" enable-background="new 0 0 82.7 77.6" xml:space="preserve" width="82.7" height="77.6" preserveAspectRatio="none">
<g id="sky" display="none">
</g>
<g id="clouds">
</g>
<g id="Text" display="none">
</g>
<g id="mountains">
</g>
<g id="back_hills">
</g>
<g id="back_trees">
</g>
<g id="front_ground">
</g>
<g id="trees_flowers">
	<path fill="#00864C" d="M65.7,29.3c0.3-1.2,0.5-2.5,0.5-3.8c0-7.2-5.4-13-12.4-13.8C51.3,5.8,45.4,1.6,38.5,1.6
		c-8.8,0-16,6.8-16.6,15.5c-5.5,1.3-9.6,6.3-9.6,12.2c0,0.1,0,0.3,0,0.4C6.1,34,1.4,41.1,2,49.2c2.3,30.8,43.2,26.8,45.4,24.6
		c2.8,1.2,6,1.8,9.2,1.8c13.3,0,24-10.8,24-24C80.7,41.5,74.5,32.9,65.7,29.3z"/>
	<path fill="#71BE4E" d="M28.7,51c0,0-3.8,1-6.4-0.8c-2.5-1.8-2.8-5.8-2.8-5.8s3.8-1,6.4,0.8C28.4,47,28.7,51,28.7,51z"/>
	<path fill="#71BE4E" d="M28.3,55c0,0-1.4,2.1-3.4,2.2c-2,0.2-3.7-1.7-3.7-1.7s1.4-2.1,3.4-2.2C26.5,53.2,28.3,55,28.3,55z"/>
	<path fill="#71BE4E" d="M36.5,24.6c0,0-2.8-2.8-2.6-5.9c0.3-3.1,3.5-5.4,3.5-5.4s2.8,2.8,2.6,5.9C39.8,22.4,36.5,24.6,36.5,24.6z"
		/>
	<path fill="#71BE4E" d="M32.8,26.4c0,0-2.5-0.2-3.7-1.8c-1.1-1.6-0.5-4.1-0.5-4.1s2.5,0.2,3.7,1.8C33.5,23.9,32.8,26.4,32.8,26.4z"
		/>
</g>
<g id="path">
</g>
<g id="right_building">
</g>
<g id="left_building">
</g>
<g id="info_board">
</g>
<g id="Shadows">
</g>
<g id="bird_elephant">
</g>
<g id="frog_creature">
</g>
<g id="purple_creature">
</g>
<g id="Characters">
</g>
<g id="Glow" display="none">
</g>
<g id="BG_Purple_2" display="none">
</g>
</svg>
