<?xml version="1.0" encoding="utf-8"?>
<!-- Generator: Adobe Illustrator 21.0.2, SVG Export Plug-In . SVG Version: 6.00 Build 0)  -->
<!DOCTYPE svg PUBLIC "-//W3C//DTD SVG 1.1//EN" "http://www.w3.org/Graphics/SVG/1.1/DTD/svg11.dtd">
<svg version="1.1" xmlns="http://www.w3.org/2000/svg" xmlns:xlink="http://www.w3.org/1999/xlink" x="0px" y="0px"
	 viewBox="0 0 180 51.4" enable-background="new 0 0 180 51.4" xml:space="preserve" width="180" height="51.4" preserveAspectRatio="none">
<g id="frog_creature">
	<g>
		<path fill="#006F7F" d="M12.6,18.8c0,0,3.4-5.7,1.3-6c-2-0.2-2.5,2.2-2.5,2.2s-3-6-5.3-4.3C4.4,11.9,8,14,8,14s-6.1-0.4-6,2.2
			c0.1,2.5,4.1,1.2,4.1,1.2s-2.9,2.3-1.7,3.4C5.6,21.8,7,20,7,20s-2.3,2.4,0.1,4c1.6,1,5.2-0.8,5.2-0.8L12.6,18.8z"/>
		<path fill="#059092" d="M13.4,42.4c0.1-0.7,2.6,0.4,2.5-0.6c-0.1-0.5-3.2-0.2-3.2-0.2l-1.2,0.1c0.7-1.1,2.1-3.3,2.8-4.8
			C16.7,31,15.2,22,15.2,22l-0.8-0.1c0,0-0.5,2.8-1.2,5.2c-1.4,4.5-3.7,4.1-5.5,8c-1.6,3.4,0.9,6.4,1.5,7.2v0c0,0,0.7,1.1,2.2,1.7
			c1.5,0.6,2.7,1.1,3.3,0.5c0.5-0.5-2.6-0.4-2.5-1c0.2-0.6,4.2,0.9,4.5,0.3C17.6,42.4,13.3,43.1,13.4,42.4z"/>
		<path fill="#20C5CD" d="M11.5,18.7c0,0-0.7,3.8-1.6,7c-1.9,6.1-5,5.6-7.4,10.9c-2.5,5.3,2.3,10,2.3,10L7,46.4c0,0,3.1-4.6,4.3-7.3
			c3.4-8,1.2-20.2,1.2-20.2L11.5,18.7z"/>
		<path fill="#20C5CD" d="M10.1,46.5c0.2-0.9,3.6,0.6,3.4-0.8c-0.1-0.7-4.4-0.3-4.4-0.3l-4.7,0.4v0.5c0,0,1,1.4,3,2.3
			c2,0.8,3.7,1.4,4.4,0.7c0.7-0.7-3.6-0.5-3.4-1.3c0.2-0.8,5.6,1.2,6.1,0.4C15.8,46.4,9.9,47.4,10.1,46.5z"/>
		<path fill="#059092" d="M33.2,42.9c0.2-0.9,3.6,0.6,3.4-0.8c-0.1-0.5-1.9-0.4-3.2-0.4c0.5-0.7,1-1.7,1.4-3.2
			c1.7-5.3-4.7-12.3-4.7-12.3l-1.1,0.1c0,0,0.5,2.4,0.5,4.4c0,4-3.1,4.2-4,7.8c-0.6,2.5,1,3.7,2.1,4.2c0.4,0.5,1.3,1.4,2.8,2
			c2,0.8,3.7,1.4,4.4,0.7c0.7-0.7-3.6-0.5-3.4-1.3c0.2-0.8,5.6,1.2,6.1,0.4C38.9,42.8,33,43.8,33.2,42.9z"/>
		<path fill="#20C5CD" d="M30.6,30.3c0,0,0.5,2.4,0.5,4.4c0,4-3.1,4.2-4,7.8c-0.8,3.6,3,4.6,3,4.6h2.5c0,0,2,0.6,3.7-4.7
			c1.7-5.3-4.7-12.3-4.7-12.3L30.6,30.3z"/>
		<path fill="#20C5CD" d="M58.2,9.3c0.4,3.6,0.1,7.7-4,7.7c-4.1,0-7.4-3.7-7.4-8.4C46.8,4,50.3,0,54.3,1C60.1,2.4,58,8,58.2,9.3z"/>
		<ellipse fill="#FFE01F" cx="53.8" cy="9.5" rx="5.5" ry="6.2"/>
		<ellipse fill="#002B1E" cx="53.8" cy="10.4" rx="3.3" ry="3.5"/>
		<circle fill="#006F7F" cx="52.7" cy="9.1" r="1.6"/>
		<circle fill="#006F7F" cx="55.4" cy="12.5" r="0.8"/>
		<path fill="#20C5CD" d="M11.8,17.3c0,0,4.3,5.6,12,3.2c7.7-2.3,4.1-12,10.1-12c5.9,0,15.8,0,15.8,0s7,9.9,2.5,16.7
			c-2.3,3.5-6.1,10.4-22.1,10.4c-14.2,0-19.6-12.4-19.6-12.4L11.8,17.3z"/>
		<path fill="#006F7F" d="M39.6,9.1c0,0,1.8-5,5.3-5c3.5,0,4.7,2.7,5.7,4.7c0.9,2,0.4,7,0.4,7s-1.1-4-4.1-6
			C43.8,7.7,39.6,9.1,39.6,9.1z"/>
		<path fill="#002B1E" d="M39.6,9.1c0.3-0.9,0.7-1.8,1.2-2.6c0.5-0.8,1.2-1.6,2-2.1c0.4-0.3,0.9-0.5,1.4-0.6
			c0.2-0.1,0.5-0.1,0.8-0.1c0.2,0,0.5,0,0.7,0c0.5,0.1,1,0.2,1.4,0.4C47.6,4.4,48,4.7,48.4,5c0.8,0.6,1.3,1.5,1.8,2.3
			c0.2,0.4,0.4,0.9,0.6,1.3c0.2,0.5,0.3,0.9,0.4,1.4c0.1,1,0.1,1.9,0.1,2.9c-0.1,0.9-0.1,1.9-0.3,2.8c0-0.9,0.1-1.9,0-2.8
			c0-0.9-0.1-1.9-0.2-2.8c-0.1-0.5-0.2-0.9-0.4-1.3c-0.2-0.4-0.4-0.8-0.6-1.3c-0.4-0.8-1-1.6-1.7-2.1c-0.3-0.3-0.7-0.5-1.1-0.7
			c-0.4-0.2-0.8-0.3-1.3-0.3c-0.2,0-0.4,0-0.7-0.1c-0.2,0-0.4,0-0.7,0c-0.4,0.1-0.9,0.2-1.2,0.5c-0.8,0.5-1.4,1.1-2,1.9
			C40.5,7.4,40,8.2,39.6,9.1z"/>
		<path fill="#006F7F" d="M34.7,9.3c0,0,0.8-6.7,4.3-6.7c3.5,0,5,3.9,5.9,6.4c0.9,2.5,0.4,5.9,0.4,5.9s-0.6-3.4-4-5.2
			C37.9,7.9,34.7,9.3,34.7,9.3z"/>
		<path fill="#006F7F" d="M28.5,9.2c0,0,1.5-5.2,4.4-5.2c2.9,0,3.9,2.8,4.7,4.9c0.8,2-0.2,6.4-0.2,6.4L32.7,9L28.5,9.2z"/>
		<path fill="#002B1E" d="M39,2.6c0.6-0.1,1.3,0,1.9,0.3c0.6,0.3,1.1,0.7,1.6,1.1c0.9,0.9,1.5,2.1,2,3.3c0.1,0.3,0.2,0.6,0.4,0.9
			c0.1,0.3,0.2,0.6,0.3,0.9c0.2,0.6,0.3,1.3,0.3,1.9c0.1,1.3,0,2.6-0.3,3.8c0.1-1.3,0-2.5-0.1-3.8c-0.1-0.6-0.2-1.2-0.4-1.8
			c-0.2-0.6-0.4-1.2-0.7-1.8c-0.2-0.6-0.5-1.1-0.8-1.7c-0.3-0.5-0.6-1.1-1-1.5c-0.4-0.5-0.9-0.9-1.4-1.2C40.3,2.8,39.6,2.7,39,2.6z"
			/>
		<path fill="#002B1E" d="M28.5,9.2c0.2-0.9,0.5-1.7,0.9-2.5c0.4-0.8,0.9-1.6,1.6-2.2c0.3-0.3,0.7-0.6,1.2-0.7
			c0.2-0.1,0.5-0.1,0.7-0.1h0.2c0.1,0,0.1,0,0.2,0c0.1,0,0.2,0,0.3,0c0.5,0.1,0.9,0.2,1.3,0.5c0.4,0.2,0.8,0.5,1.1,0.9
			c0.6,0.7,1,1.5,1.4,2.3c0.2,0.4,0.3,0.8,0.5,1.2C38,9.1,38,9.5,38.1,10c0.1,0.9,0,1.8-0.1,2.7c-0.1,0.9-0.3,1.7-0.5,2.6
			c0.1-0.9,0.2-1.7,0.3-2.6c0-0.9,0.1-1.7,0-2.6c-0.1-0.4-0.1-0.8-0.3-1.2c-0.2-0.4-0.3-0.8-0.5-1.2c-0.3-0.8-0.7-1.6-1.3-2.2
			c-0.3-0.3-0.6-0.6-0.9-0.8c-0.3-0.2-0.7-0.3-1.1-0.4c-0.1,0-0.2,0-0.3,0c-0.1,0-0.1,0-0.2,0l-0.2,0c-0.2,0-0.4,0-0.6,0.1
			c-0.4,0.1-0.7,0.3-1.1,0.6c-0.6,0.5-1.2,1.2-1.6,2C29.2,7.6,28.9,8.3,28.5,9.2z"/>
		<path fill="#20C5CD" d="M35.5,8.8c0,4.5-3.3,8.2-7.4,8.2c-4.1,0-4.3-3.4-5.5-7.8c-0.9-3.2,0.3-8.4,5.5-8.6
			C32.2,0.5,35.5,4.2,35.5,8.8z"/>
		<ellipse fill="#FFE01F" cx="27.9" cy="9.6" rx="5.5" ry="6.1"/>
		<ellipse fill="#002B1E" cx="27.3" cy="10.6" rx="3.3" ry="3.5"/>
		<ellipse fill="#006F7F" cx="26.2" cy="9.2" rx="1.6" ry="1.6"/>
		<ellipse fill="#006F7F" cx="28.9" cy="12.6" rx="0.8" ry="0.8"/>
		<path fill="#002B1E" d="M33.8,18c0,0,1.9,2.7,9,2.5c7.2-0.1,8.6-2.4,8.6-2.4s0.3,7.5-6.8,8.4C34.9,27.8,33.8,18,33.8,18z"/>
		<path fill="#D26288" d="M42.4,23.5c-2.8-0.1-4.4,0.5-5.3,1c1.6,1.5,4,2.5,7.6,2c1.4-0.2,2.5-0.6,3.4-1.2
			C47,24.4,45.1,23.6,42.4,23.5z"/>
		<path fill="#20C5CD" d="M41.2,32c0,0,0.4,2,0.4,3.8c0,3.4-2.7,3.6-3.4,6.6c-0.7,3.1,2.6,3.9,2.6,3.9H43c0,0,1.7,0.5,3.2-4
			c1.4-4.5-4-10.4-4-10.4L41.2,32z"/>
		<g>
			<path fill="#20C5CD" d="M34.7,46.7c0.2-0.9,3.6,0.6,3.4-0.8c-0.1-0.7-4.4-0.3-4.4-0.3L29,46v0.5c0,0,1,1.4,3,2.3
				c2,0.8,3.7,1.4,4.4,0.7c0.7-0.7-3.6-0.5-3.4-1.3c0.2-0.8,5.6,1.2,6.1,0.4C40.3,46.7,34.5,47.6,34.7,46.7z"/>
			<path fill="#20C5CD" d="M44.6,45.7c0.1-0.7,2.6,0.4,2.5-0.6c-0.1-0.5-3.2-0.2-3.2-0.2l-3.4,0.3v0.3c0,0,0.7,1,2.2,1.6
				c1.5,0.6,2.7,1,3.2,0.5c0.5-0.5-2.6-0.3-2.4-1c0.2-0.6,4.1,0.9,4.4,0.3C48.7,45.6,44.5,46.3,44.6,45.7z"/>
		</g>
		<circle fill="#20C5CD" cx="35.1" cy="35.4" r="1.6"/>
		<circle fill="#20C5CD" cx="43.3" cy="33.3" r="1.1"/>
		<path fill="#20C5CD" d="M22.5,46.9c0.2-1,3.6,0.6,3.4-0.8c-0.1-0.5-1.9-0.5-3.2-0.4c0.5-0.7,1-1.8,1.4-3.3c1.7-5.6-4.7-13-4.7-13
			l-1.1,0.1c0,0,0.5,2.5,0.5,4.7c0,4.2-3.1,4.5-4,8.3c-0.6,2.6,1,3.9,2.1,4.5c0.4,0.5,1.3,1.5,2.8,2.1c2,0.9,3.7,1.5,4.4,0.8
			c0.7-0.8-3.6-0.5-3.4-1.4c0.2-0.9,5.6,1.3,6.1,0.4C28.2,46.8,22.3,47.9,22.5,46.9z"/>
		<path fill="#059092" d="M25.5,16.2c0.1,0.1,0.2,0.1,0.3,0.2c0.1,0.1,0.2,0.1,0.3,0.1c0.2,0.1,0.4,0.1,0.6,0.1
			c0.4,0.1,0.8,0.1,1.2,0.1c0.4,0,0.8,0,1.3,0c0.2,0,0.4,0,0.6-0.1c0.2,0,0.4-0.1,0.6-0.1c0.8-0.2,1.5-0.6,2.1-1.2
			c0.7-0.5,1.2-1.1,1.8-1.8c-0.3,0.8-0.8,1.6-1.4,2.2c-0.6,0.6-1.4,1.2-2.3,1.4c-0.2,0.1-0.4,0.1-0.7,0.2c-0.2,0-0.5,0.1-0.7,0.1
			c-0.4,0-0.9,0-1.3-0.1c-0.4-0.1-0.9-0.2-1.3-0.3c-0.2-0.1-0.4-0.2-0.6-0.3C25.8,16.6,25.6,16.4,25.5,16.2z"/>
		<path fill="#059092" d="M23.8,39.5c0.1,0.2,0.1,0.4,0,0.6c-0.1,0.2-0.2,0.4-0.4,0.5c-0.3,0.3-0.8,0.5-1.2,0.5
			c-0.4,0.1-0.9,0-1.3-0.1c-0.2-0.1-0.4-0.2-0.6-0.4c-0.2-0.2-0.3-0.4-0.3-0.7c0-0.3,0.2-0.6,0.4-0.7c0.2-0.2,0.4-0.3,0.7-0.3
			c0.4-0.1,1-0.1,1.4,0.2c0.2,0.1,0.4,0.4,0.3,0.7c0,0.2-0.1,0.3-0.2,0.3c-0.1,0.1-0.2,0.1-0.3,0.2c-0.2,0.1-0.4,0.1-0.7,0
			c-0.1,0-0.2-0.1-0.3-0.2c-0.1-0.1-0.1-0.2-0.1-0.3c0,0.1,0.1,0.2,0.2,0.2c0.1,0,0.2,0.1,0.3,0.1c0.2,0,0.4,0,0.5-0.1
			c0.2-0.1,0.3-0.2,0.3-0.3c0-0.1-0.1-0.2-0.2-0.3c-0.1-0.1-0.3-0.1-0.5-0.1c-0.2,0-0.3,0-0.5,0.1c-0.2,0-0.3,0.1-0.4,0.2
			c-0.1,0.1-0.2,0.2-0.2,0.3c0,0.1,0.1,0.3,0.2,0.4c0.1,0.1,0.3,0.2,0.4,0.3c0.3,0.2,0.7,0.2,1.1,0.2c0.4,0,0.8-0.1,1.1-0.3
			c0.2-0.1,0.3-0.2,0.4-0.4C23.8,39.9,23.9,39.7,23.8,39.5z"/>
		<path fill="#059092" d="M10.2,37.4c0.1,0.2,0.1,0.5,0,0.7c-0.1,0.2-0.3,0.4-0.5,0.6c-0.4,0.3-0.9,0.5-1.4,0.6
			c-0.5,0.1-1,0-1.5-0.1c-0.2-0.1-0.5-0.2-0.7-0.5c-0.2-0.2-0.4-0.5-0.4-0.8c0-0.2,0.1-0.3,0.1-0.5c0.1-0.1,0.2-0.2,0.3-0.3
			c0.2-0.2,0.5-0.3,0.7-0.4C7.4,36.7,8,36.7,8.5,37c0.1,0.1,0.2,0.2,0.3,0.3c0.1,0.1,0.1,0.3,0.1,0.5c0,0.2-0.1,0.3-0.2,0.4
			c-0.1,0.1-0.2,0.2-0.4,0.2c-0.3,0.1-0.5,0.1-0.8,0c-0.1,0-0.2-0.1-0.3-0.2C7.1,38.2,7,38.1,7,37.9c0,0.1,0.1,0.2,0.2,0.3
			c0.1,0.1,0.2,0.1,0.3,0.1c0.2,0,0.4,0,0.6-0.1c0.2-0.1,0.3-0.3,0.3-0.4c0-0.1,0-0.1-0.1-0.2c0-0.1-0.1-0.1-0.2-0.2
			c-0.2-0.1-0.4-0.2-0.6-0.2c-0.2,0-0.4,0-0.6,0.1c-0.2,0.1-0.4,0.1-0.5,0.3c-0.1,0.1-0.2,0.3-0.2,0.4v0l0,0c0,0,0,0,0,0
			c0,0,0,0.1,0,0.1c0,0.1,0.1,0.2,0.2,0.2c0.1,0.1,0.3,0.3,0.5,0.3C7.4,38.9,7.8,39,8.3,39c0.4,0,0.9-0.2,1.3-0.4
			c0.2-0.1,0.4-0.3,0.5-0.5C10.1,37.9,10.2,37.7,10.2,37.4z"/>
		<path fill="#059092" d="M35.2,39.8c0.1,0.2,0.1,0.4,0,0.6c-0.1,0.2-0.2,0.4-0.4,0.5c-0.3,0.3-0.8,0.5-1.2,0.5
			c-0.4,0.1-0.9,0-1.3-0.1c-0.2-0.1-0.4-0.2-0.6-0.4c-0.2-0.2-0.3-0.4-0.3-0.7c0-0.3,0.2-0.6,0.4-0.7c0.2-0.2,0.4-0.3,0.7-0.3
			c0.4-0.1,1-0.1,1.4,0.2c0.2,0.1,0.4,0.4,0.3,0.7c0,0.2-0.1,0.3-0.2,0.3c-0.1,0.1-0.2,0.1-0.3,0.2c-0.2,0.1-0.4,0.1-0.7,0
			c-0.1,0-0.2-0.1-0.3-0.2c-0.1-0.1-0.1-0.2-0.1-0.3c0,0.1,0.1,0.2,0.2,0.2c0.1,0,0.2,0.1,0.3,0.1c0.2,0,0.4,0,0.5-0.1
			c0.2-0.1,0.3-0.2,0.3-0.3c0-0.1-0.1-0.2-0.2-0.3c-0.1-0.1-0.3-0.1-0.5-0.1c-0.2,0-0.3,0-0.5,0.1c-0.2,0-0.3,0.1-0.4,0.2
			c-0.1,0.1-0.2,0.2-0.2,0.3c0,0.1,0.1,0.3,0.2,0.4c0.1,0.1,0.3,0.2,0.4,0.3c0.3,0.2,0.7,0.2,1.1,0.2c0.4,0,0.8-0.1,1.1-0.3
			c0.2-0.1,0.3-0.2,0.4-0.4C35.2,40.2,35.2,40,35.2,39.8z"/>
		<path fill="#059092" d="M42.1,39.7c0,0.2,0.1,0.4,0.2,0.6c0.1,0.2,0.2,0.3,0.4,0.4c0.3,0.2,0.7,0.3,1.1,0.3c0.4,0,0.7,0,1.1-0.2
			c0.2-0.1,0.3-0.2,0.4-0.3c0.1-0.1,0.2-0.3,0.2-0.4c0-0.1-0.1-0.2-0.2-0.3c-0.1-0.1-0.3-0.2-0.4-0.2c-0.2,0-0.3-0.1-0.5-0.1
			c-0.2,0-0.3,0.1-0.5,0.1c-0.1,0.1-0.2,0.2-0.2,0.3c0,0.1,0.1,0.2,0.3,0.3c0.2,0.1,0.3,0.1,0.5,0.1c0.1,0,0.2,0,0.3-0.1
			c0.1,0,0.2-0.1,0.2-0.2c0,0.1-0.1,0.2-0.1,0.3c-0.1,0.1-0.2,0.1-0.3,0.2c-0.2,0.1-0.4,0.1-0.7,0c-0.1,0-0.2-0.1-0.3-0.2
			c-0.1-0.1-0.2-0.2-0.2-0.3c0-0.3,0.1-0.6,0.3-0.7c0.4-0.3,0.9-0.3,1.4-0.2c0.2,0.1,0.5,0.1,0.7,0.3c0.2,0.2,0.4,0.4,0.4,0.7
			c0,0.3-0.1,0.5-0.3,0.7c-0.2,0.2-0.4,0.3-0.6,0.4c-0.4,0.2-0.9,0.2-1.3,0.1c-0.4-0.1-0.8-0.2-1.2-0.5c-0.2-0.1-0.3-0.3-0.4-0.5
			C42.1,40.1,42.1,39.9,42.1,39.7z"/>
		<path fill="#059092" d="M28.6,17.4c-0.1,0.2-0.1,0.5-0.1,0.8c0,0.3-0.1,0.5-0.1,0.8c0,0.5-0.1,1.1,0,1.6c0,1.1,0.1,2.2,0.2,3.3
			c0.1,1.1,0.4,2.1,1,3.1c0.3,0.5,0.6,0.9,1,1.3c0.4,0.4,0.8,0.8,1.3,1.1c-0.5-0.3-0.9-0.6-1.4-1c-0.4-0.4-0.8-0.8-1.1-1.3
			c-0.6-0.9-1-2-1.2-3.1c-0.2-1.1-0.3-2.2-0.4-3.3c0-0.6,0-1.1,0-1.7c0-0.3,0-0.6,0-0.8c0-0.3,0.1-0.6,0.1-0.9L28.6,17.4z"/>
	</g>
	<path fill="#FFFFF0" d="M50.6,18.8c-1.1,0.7-3.3,1.6-7.7,1.7c-3.9,0.1-6.3-0.7-7.6-1.4c0.6,1.4,1.5,3.5,2,3.6
		c0.8,0.1,0.7-1.2,0.7-1.2s1.5,1.3,5.3,1.2c3.9,0,5.3-0.9,5.3-0.9s-0.2,0.8,0.7,0.7C49.9,22.6,50.3,20.5,50.6,18.8z"/>
	<path fill="#006F7F" d="M132.6,20.8c0,0,3.4-5.7,1.3-6c-2-0.2-2.5,2.2-2.5,2.2s-3-6-5.3-4.3c-1.6,1.2,1.9,3.4,1.9,3.4
		s-6.1-0.4-6,2.2c0.1,2.5,4.1,1.2,4.1,1.2s-2.9,2.3-1.7,3.4c1.2,1.1,2.6-0.7,2.6-0.7s-2.3,2.4,0.1,4c1.6,1,5.2-0.8,5.2-0.8
		L132.6,20.8z"/>
	<path fill="#059092" d="M133.4,42.4c0.1-0.7,2.6,0.4,2.5-0.6c-0.1-0.5-3.2-0.2-3.2-0.2l-1.2,0.1c0.7-1.1,2.1-3.3,2.8-4.8
		c2.5-5.9,0.9-14.9,0.9-14.9l-0.8-0.1c0,0-0.5,2.8-1.2,5.2c-1.4,4.5-3.7,4.1-5.5,8c-1.6,3.4,0.9,6.4,1.5,7.2v0c0,0,0.7,1.1,2.2,1.7
		c1.5,0.6,2.7,1.1,3.3,0.5c0.5-0.5-2.6-0.4-2.5-1c0.2-0.6,4.2,0.9,4.5,0.3C137.6,42.4,133.3,43.1,133.4,42.4z"/>
	<path fill="#20C5CD" d="M131.5,21.7c0,0-0.7,0.8-1.6,4c-1.9,6.1-5,5.6-7.4,10.9c-2.5,5.3,2.3,10,2.3,10l2.3-0.1
		c0,0,3.1-4.6,4.3-7.3c3.4-8,1.2-17.2,1.2-17.2L131.5,21.7z"/>
	<path fill="#20C5CD" d="M130.1,46.5c0.2-0.9,3.6,0.6,3.4-0.8c-0.1-0.7-4.4-0.3-4.4-0.3l-4.7,0.4v0.5c0,0,1,1.4,3,2.3
		c2,0.8,3.7,1.4,4.4,0.7c0.7-0.7-3.6-0.5-3.4-1.3c0.2-0.8,5.6,1.2,6.1,0.4C135.8,46.4,129.9,47.4,130.1,46.5z"/>
	<path fill="#059092" d="M153.2,42.9c0.2-0.9,3.6,0.6,3.4-0.8c-0.1-0.5-1.9-0.4-3.2-0.4c0.5-0.7,1-1.7,1.4-3.2
		c1.7-5.3-4.7-12.3-4.7-12.3l-1.1,0.1c0,0,0.5,2.4,0.5,4.4c0,4-3.1,4.2-4,7.8c-0.6,2.5,1,3.7,2.1,4.2c0.4,0.5,1.3,1.4,2.8,2
		c2,0.8,3.7,1.4,4.4,0.7c0.7-0.7-3.6-0.5-3.4-1.3c0.2-0.8,5.6,1.2,6.1,0.4C158.9,42.8,153,43.8,153.2,42.9z"/>
	<path fill="#20C5CD" d="M150.6,30.3c0,0,0.5,2.4,0.5,4.4c0,4-3.1,4.2-4,7.8c-0.8,3.6,3,4.6,3,4.6h2.5c0,0,2,0.6,3.7-4.7
		c1.7-5.3-4.7-12.3-4.7-12.3L150.6,30.3z"/>
	<path fill="#20C5CD" d="M178.2,11.3c0.4,3.6,0.1,7.7-4,7.7c-4.1,0-7.4-3.7-7.4-8.4c0-4.6,3.5-8.6,7.5-7.7
		C180.1,4.4,178,10,178.2,11.3z"/>
	<path fill="#006F7F" d="M174.8,13.8c-3.1,0.6-6,0.5-7.6-0.3c0.7,1.9,3.4,2.9,6.4,2.3c2.1-0.4,3.8-1.6,4.5-2.9
		C177.1,13.3,176,13.6,174.8,13.8z"/>
	<path fill="#20C5CD" d="M131.8,19.3c0,0,4.3,5.6,12,3.2c7.7-2.3,4.1-12,10.1-12c5.9,0,15.8,0,15.8,0s7,9.9,2.5,16.7
		c-2.3,3.5-6.1,10.4-22.1,10.4c-14.2,0-19.6-12.4-19.6-12.4L131.8,19.3z"/>
	<path fill="#006F7F" d="M159.6,11.1c0,0,1.8-5,5.3-5c3.5,0,4.7,2.7,5.7,4.7c0.9,2,0.4,7,0.4,7s-1.1-4-4.1-6
		C163.8,9.7,159.6,11.1,159.6,11.1z"/>
	<path fill="#002B1E" d="M159.6,11.1c0.3-0.9,0.7-1.8,1.2-2.6c0.5-0.8,1.2-1.6,2-2.1c0.4-0.3,0.9-0.5,1.4-0.6
		c0.2-0.1,0.5-0.1,0.8-0.1c0.2,0,0.5,0,0.7,0c0.5,0.1,1,0.2,1.4,0.4c0.5,0.2,0.9,0.5,1.3,0.8c0.8,0.6,1.3,1.5,1.8,2.3
		c0.2,0.4,0.4,0.9,0.6,1.3c0.2,0.5,0.3,0.9,0.4,1.4c0.1,1,0.1,1.9,0.1,2.9c-0.1,0.9-0.1,1.9-0.3,2.8c0-0.9,0.1-1.9,0-2.8
		c0-0.9-0.1-1.9-0.2-2.8c-0.1-0.5-0.2-0.9-0.4-1.3c-0.2-0.4-0.4-0.8-0.6-1.3c-0.4-0.8-1-1.6-1.7-2.1c-0.3-0.3-0.7-0.5-1.1-0.7
		c-0.4-0.2-0.8-0.3-1.3-0.3c-0.2,0-0.4,0-0.7-0.1c-0.2,0-0.4,0-0.7,0c-0.4,0.1-0.9,0.2-1.2,0.5c-0.8,0.5-1.4,1.1-2,1.9
		C160.5,9.4,160,10.2,159.6,11.1z"/>
	<path fill="#006F7F" d="M154.7,11.3c0,0,0.8-6.7,4.3-6.7c3.5,0,5,3.9,5.9,6.4c0.9,2.5,0.4,5.9,0.4,5.9s-0.6-3.4-4-5.2
		C157.9,9.9,154.7,11.3,154.7,11.3z"/>
	<path fill="#006F7F" d="M148.5,11.2c0,0,1.5-5.2,4.4-5.2c2.9,0,3.9,2.8,4.7,4.9c0.8,2-0.2,6.4-0.2,6.4l-4.7-6.2L148.5,11.2z"/>
	<path fill="#002B1E" d="M159,4.6c0.6-0.1,1.3,0,1.9,0.3c0.6,0.3,1.1,0.7,1.6,1.1c0.9,0.9,1.5,2.1,2,3.3c0.1,0.3,0.2,0.6,0.4,0.9
		c0.1,0.3,0.2,0.6,0.3,0.9c0.2,0.6,0.3,1.3,0.3,1.9c0.1,1.3,0,2.6-0.3,3.8c0.1-1.3,0-2.5-0.1-3.8c-0.1-0.6-0.2-1.2-0.4-1.8
		c-0.2-0.6-0.4-1.2-0.7-1.8c-0.2-0.6-0.5-1.1-0.8-1.7c-0.3-0.5-0.6-1.1-1-1.5c-0.4-0.5-0.9-0.9-1.4-1.2C160.3,4.8,159.6,4.7,159,4.6
		z"/>
	<path fill="#002B1E" d="M148.5,11.2c0.2-0.9,0.5-1.7,0.9-2.5c0.4-0.8,0.9-1.6,1.6-2.2c0.3-0.3,0.7-0.6,1.2-0.7
		c0.2-0.1,0.5-0.1,0.7-0.1h0.2c0.1,0,0.1,0,0.2,0c0.1,0,0.2,0,0.3,0c0.5,0.1,0.9,0.2,1.3,0.5c0.4,0.2,0.8,0.5,1.1,0.9
		c0.6,0.7,1,1.5,1.4,2.3c0.2,0.4,0.3,0.8,0.5,1.2c0.2,0.4,0.2,0.9,0.3,1.3c0.1,0.9,0,1.8-0.1,2.7c-0.1,0.9-0.3,1.7-0.5,2.6
		c0.1-0.9,0.2-1.7,0.3-2.6c0-0.9,0.1-1.7,0-2.6c-0.1-0.4-0.1-0.8-0.3-1.2c-0.2-0.4-0.3-0.8-0.5-1.2c-0.3-0.8-0.7-1.6-1.3-2.2
		c-0.3-0.3-0.6-0.6-0.9-0.8c-0.3-0.2-0.7-0.3-1.1-0.4c-0.1,0-0.2,0-0.3,0c-0.1,0-0.1,0-0.2,0l-0.2,0c-0.2,0-0.4,0-0.6,0.1
		c-0.4,0.1-0.7,0.3-1.1,0.6c-0.6,0.5-1.2,1.2-1.6,2C149.2,9.6,148.9,10.3,148.5,11.2z"/>
	<path fill="#20C5CD" d="M155.5,10.8c0,4.5-3.3,8.2-7.4,8.2c-4.1,0-4.3-3.4-5.5-7.8c-0.9-3.2,0.3-8.4,5.5-8.6
		C152.2,2.5,155.5,6.2,155.5,10.8z"/>
	<path fill="#002B1E" d="M153.8,20c0,0,1.9,2.7,9,2.5c7.2-0.1,8.6-2.4,8.6-2.4s0.3,7.5-6.8,8.4C154.9,29.8,153.8,20,153.8,20z"/>
	<path fill="#D26288" d="M162.4,25.5c-2.8-0.1-4.4,0.5-5.3,1c1.6,1.5,4,2.5,7.6,2c1.4-0.2,2.5-0.6,3.4-1.2
		C167,26.4,165.1,25.6,162.4,25.5z"/>
	<path fill="#20C5CD" d="M161.2,32c0,0,0.4,2,0.4,3.8c0,3.4-2.7,3.6-3.4,6.6c-0.7,3.1,2.6,3.9,2.6,3.9h2.1c0,0,1.7,0.5,3.2-4
		c1.4-4.5-4-10.4-4-10.4L161.2,32z"/>
	<g>
		<path fill="#20C5CD" d="M154.7,46.7c0.2-0.9,3.6,0.6,3.4-0.8c-0.1-0.7-4.4-0.3-4.4-0.3L149,46v0.5c0,0,1,1.4,3,2.3
			c2,0.8,3.7,1.4,4.4,0.7c0.7-0.7-3.6-0.5-3.4-1.3c0.2-0.8,5.6,1.2,6.1,0.4C160.3,46.7,154.5,47.6,154.7,46.7z"/>
		<path fill="#20C5CD" d="M164.6,45.7c0.1-0.7,2.6,0.4,2.5-0.6c-0.1-0.5-3.2-0.2-3.2-0.2l-3.4,0.3v0.3c0,0,0.7,1,2.2,1.6
			c1.5,0.6,2.7,1,3.2,0.5c0.5-0.5-2.6-0.3-2.4-1c0.2-0.6,4.1,0.9,4.4,0.3C168.7,45.6,164.5,46.3,164.6,45.7z"/>
	</g>
	<circle fill="#20C5CD" cx="155.1" cy="35.4" r="1.6"/>
	<circle fill="#20C5CD" cx="163.3" cy="33.3" r="1.1"/>
	<path fill="#20C5CD" d="M142.5,46.9c0.2-1,3.6,0.6,3.4-0.8c-0.1-0.5-1.9-0.5-3.2-0.4c0.5-0.7,1-1.8,1.4-3.3c1.7-5.6-4.7-13-4.7-13
		l-1.1,0.1c0,0,0.5,2.5,0.5,4.7c0,4.2-3.1,4.5-4,8.3c-0.6,2.6,1,3.9,2.1,4.5c0.4,0.5,1.3,1.5,2.8,2.1c2,0.9,3.7,1.5,4.4,0.8
		c0.7-0.8-3.6-0.5-3.4-1.4c0.2-0.9,5.6,1.3,6.1,0.4C148.2,46.8,142.3,47.9,142.5,46.9z"/>
	<path fill="#059092" d="M145.5,18.2c0.1,0.1,0.2,0.1,0.3,0.2c0.1,0.1,0.2,0.1,0.3,0.1c0.2,0.1,0.4,0.1,0.6,0.1
		c0.4,0.1,0.8,0.1,1.2,0.1c0.4,0,0.8,0,1.3,0c0.2,0,0.4,0,0.6-0.1c0.2,0,0.4-0.1,0.6-0.1c0.8-0.2,1.5-0.6,2.1-1.2
		c0.7-0.5,1.2-1.1,1.8-1.8c-0.3,0.8-0.8,1.6-1.4,2.2c-0.6,0.6-1.4,1.2-2.3,1.4c-0.2,0.1-0.4,0.1-0.7,0.2c-0.2,0-0.5,0.1-0.7,0.1
		c-0.4,0-0.9,0-1.3-0.1c-0.4-0.1-0.9-0.2-1.3-0.3c-0.2-0.1-0.4-0.2-0.6-0.3C145.8,18.6,145.6,18.4,145.5,18.2z"/>
	<path fill="#059092" d="M143.8,39.5c0.1,0.2,0.1,0.4,0,0.6c-0.1,0.2-0.2,0.4-0.4,0.5c-0.3,0.3-0.8,0.5-1.2,0.5
		c-0.4,0.1-0.9,0-1.3-0.1c-0.2-0.1-0.4-0.2-0.6-0.4c-0.2-0.2-0.3-0.4-0.3-0.7c0-0.3,0.2-0.6,0.4-0.7c0.2-0.2,0.4-0.3,0.7-0.3
		c0.4-0.1,1-0.1,1.4,0.2c0.2,0.1,0.4,0.4,0.3,0.7c0,0.2-0.1,0.3-0.2,0.3c-0.1,0.1-0.2,0.1-0.3,0.2c-0.2,0.1-0.4,0.1-0.7,0
		c-0.1,0-0.2-0.1-0.3-0.2c-0.1-0.1-0.1-0.2-0.1-0.3c0,0.1,0.1,0.2,0.2,0.2c0.1,0,0.2,0.1,0.3,0.1c0.2,0,0.4,0,0.5-0.1
		c0.2-0.1,0.3-0.2,0.3-0.3c0-0.1-0.1-0.2-0.2-0.3c-0.1-0.1-0.3-0.1-0.5-0.1c-0.2,0-0.3,0-0.5,0.1c-0.2,0-0.3,0.1-0.4,0.2
		c-0.1,0.1-0.2,0.2-0.2,0.3c0,0.1,0.1,0.3,0.2,0.4c0.1,0.1,0.3,0.2,0.4,0.3c0.3,0.2,0.7,0.2,1.1,0.2c0.4,0,0.8-0.1,1.1-0.3
		c0.2-0.1,0.3-0.2,0.4-0.4C143.8,39.9,143.9,39.7,143.8,39.5z"/>
	<path fill="#059092" d="M130.2,37.4c0.1,0.2,0.1,0.5,0,0.7c-0.1,0.2-0.3,0.4-0.5,0.6c-0.4,0.3-0.9,0.5-1.4,0.6
		c-0.5,0.1-1,0-1.5-0.1c-0.2-0.1-0.5-0.2-0.7-0.5c-0.2-0.2-0.4-0.5-0.4-0.8c0-0.2,0.1-0.3,0.1-0.5c0.1-0.1,0.2-0.2,0.3-0.3
		c0.2-0.2,0.5-0.3,0.7-0.4c0.5-0.1,1.1-0.1,1.6,0.3c0.1,0.1,0.2,0.2,0.3,0.3c0.1,0.1,0.1,0.3,0.1,0.5c0,0.2-0.1,0.3-0.2,0.4
		c-0.1,0.1-0.2,0.2-0.4,0.2c-0.3,0.1-0.5,0.1-0.8,0c-0.1,0-0.2-0.1-0.3-0.2c-0.1-0.1-0.2-0.2-0.2-0.3c0,0.1,0.1,0.2,0.2,0.3
		c0.1,0.1,0.2,0.1,0.3,0.1c0.2,0,0.4,0,0.6-0.1c0.2-0.1,0.3-0.3,0.3-0.4c0-0.1,0-0.1-0.1-0.2c0-0.1-0.1-0.1-0.2-0.2
		c-0.2-0.1-0.4-0.2-0.6-0.2c-0.2,0-0.4,0-0.6,0.1c-0.2,0.1-0.4,0.1-0.5,0.3c-0.1,0.1-0.2,0.3-0.2,0.4v0l0,0c0,0,0,0,0,0
		c0,0,0,0.1,0,0.1c0,0.1,0.1,0.2,0.2,0.2c0.1,0.1,0.3,0.3,0.5,0.3c0.4,0.2,0.8,0.2,1.3,0.2c0.4,0,0.9-0.2,1.3-0.4
		c0.2-0.1,0.4-0.3,0.5-0.5C130.1,37.9,130.2,37.7,130.2,37.4z"/>
	<path fill="#059092" d="M155.2,39.8c0.1,0.2,0.1,0.4,0,0.6c-0.1,0.2-0.2,0.4-0.4,0.5c-0.3,0.3-0.8,0.5-1.2,0.5
		c-0.4,0.1-0.9,0-1.3-0.1c-0.2-0.1-0.4-0.2-0.6-0.4c-0.2-0.2-0.3-0.4-0.3-0.7c0-0.3,0.2-0.6,0.4-0.7c0.2-0.2,0.4-0.3,0.7-0.3
		c0.4-0.1,1-0.1,1.4,0.2c0.2,0.1,0.4,0.4,0.3,0.7c0,0.2-0.1,0.3-0.2,0.3c-0.1,0.1-0.2,0.1-0.3,0.2c-0.2,0.1-0.4,0.1-0.7,0
		c-0.1,0-0.2-0.1-0.3-0.2c-0.1-0.1-0.1-0.2-0.1-0.3c0,0.1,0.1,0.2,0.2,0.2c0.1,0,0.2,0.1,0.3,0.1c0.2,0,0.4,0,0.5-0.1
		c0.2-0.1,0.3-0.2,0.3-0.3c0-0.1-0.1-0.2-0.2-0.3c-0.1-0.1-0.3-0.1-0.5-0.1c-0.2,0-0.3,0-0.5,0.1c-0.2,0-0.3,0.1-0.4,0.2
		c-0.1,0.1-0.2,0.2-0.2,0.3c0,0.1,0.1,0.3,0.2,0.4c0.1,0.1,0.3,0.2,0.4,0.3c0.3,0.2,0.7,0.2,1.1,0.2c0.4,0,0.8-0.1,1.1-0.3
		c0.2-0.1,0.3-0.2,0.4-0.4C155.2,40.2,155.2,40,155.2,39.8z"/>
	<path fill="#059092" d="M162.1,39.7c0,0.2,0.1,0.4,0.2,0.6c0.1,0.2,0.2,0.3,0.4,0.4c0.3,0.2,0.7,0.3,1.1,0.3c0.4,0,0.7,0,1.1-0.2
		c0.2-0.1,0.3-0.2,0.4-0.3c0.1-0.1,0.2-0.3,0.2-0.4c0-0.1-0.1-0.2-0.2-0.3c-0.1-0.1-0.3-0.2-0.4-0.2c-0.2,0-0.3-0.1-0.5-0.1
		c-0.2,0-0.3,0.1-0.5,0.1c-0.1,0.1-0.2,0.2-0.2,0.3c0,0.1,0.1,0.2,0.3,0.3c0.2,0.1,0.3,0.1,0.5,0.1c0.1,0,0.2,0,0.3-0.1
		c0.1,0,0.2-0.1,0.2-0.2c0,0.1-0.1,0.2-0.1,0.3c-0.1,0.1-0.2,0.1-0.3,0.2c-0.2,0.1-0.4,0.1-0.7,0c-0.1,0-0.2-0.1-0.3-0.2
		c-0.1-0.1-0.2-0.2-0.2-0.3c0-0.3,0.1-0.6,0.3-0.7c0.4-0.3,0.9-0.3,1.4-0.2c0.2,0.1,0.5,0.1,0.7,0.3c0.2,0.2,0.4,0.4,0.4,0.7
		c0,0.3-0.1,0.5-0.3,0.7c-0.2,0.2-0.4,0.3-0.6,0.4c-0.4,0.2-0.9,0.2-1.3,0.1c-0.4-0.1-0.8-0.2-1.2-0.5c-0.2-0.1-0.3-0.3-0.4-0.5
		C162.1,40.1,162.1,39.9,162.1,39.7z"/>
	<path fill="#059092" d="M148.6,19.4c-0.1,0.2-0.1,0.5-0.1,0.8c0,0.3-0.1,0.5-0.1,0.8c0,0.5-0.1,1.1,0,1.6c0,1.1,0.1,2.2,0.2,3.3
		c0.1,1.1,0.4,2.1,1,3.1c0.3,0.5,0.6,0.9,1,1.3c0.4,0.4,0.8,0.8,1.3,1.1c-0.5-0.3-0.9-0.6-1.4-1c-0.4-0.4-0.8-0.8-1.1-1.3
		c-0.6-0.9-1-2-1.2-3.1c-0.2-1.1-0.3-2.2-0.4-3.3c0-0.6,0-1.1,0-1.7c0-0.3,0-0.6,0-0.8c0-0.3,0.1-0.6,0.1-0.9L148.6,19.4z"/>
	<path fill="#FFFFF0" d="M170.6,20.8c-1.1,0.7-3.3,1.6-7.7,1.7c-3.9,0.1-6.3-0.7-7.6-1.4c0.6,1.4,1.5,3.5,2,3.6
		c0.8,0.1,0.7-1.2,0.7-1.2s1.5,1.3,5.3,1.2c3.9,0,5.3-0.9,5.3-0.9s-0.2,0.8,0.7,0.7C169.9,24.6,170.3,22.5,170.6,20.8z"/>
	<path fill="#006F7F" d="M72.6,20.8c0,0,3.4-5.7,1.3-6c-2-0.2-2.5,2.2-2.5,2.2s-3-6-5.3-4.3C64.4,13.9,68,16,68,16s-6.1-0.4-6,2.2
		c0.1,2.5,4.1,1.2,4.1,1.2s-2.9,2.3-1.7,3.4C65.6,23.8,67,22,67,22s-2.3,2.4,0.1,4c1.6,1,5.2-0.8,5.2-0.8L72.6,20.8z"/>
	<path fill="#059092" d="M73.4,42.4c0.1-0.7,2.6,0.4,2.5-0.6c-0.1-0.5-3.2-0.2-3.2-0.2l-1.2,0.1c0.7-1.1,2.1-3.3,2.8-4.8
		C76.7,31,75.2,22,75.2,22l-0.8-0.1c0,0-0.5,2.8-1.2,5.2c-1.4,4.5-3.7,4.1-5.5,8c-1.6,3.4,0.9,6.4,1.5,7.2v0c0,0,0.7,1.1,2.2,1.7
		c1.5,0.6,2.7,1.1,3.3,0.5c0.5-0.5-2.6-0.4-2.5-1c0.2-0.6,4.2,0.9,4.5,0.3C77.6,42.4,73.3,43.1,73.4,42.4z"/>
	<path fill="#20C5CD" d="M71.5,21.7c0,0-0.7,0.8-1.6,4c-1.9,6.1-5,5.6-7.4,10.9c-2.5,5.3,2.3,10,2.3,10l2.3-0.1c0,0,3.1-4.6,4.3-7.3
		c3.4-8,1.2-17.2,1.2-17.2L71.5,21.7z"/>
	<path fill="#20C5CD" d="M70.1,46.5c0.2-0.9,3.6,0.6,3.4-0.8c-0.1-0.7-4.4-0.3-4.4-0.3l-4.7,0.4v0.5c0,0,1,1.4,3,2.3
		c2,0.8,3.7,1.4,4.4,0.7c0.7-0.7-3.6-0.5-3.4-1.3c0.2-0.8,5.6,1.2,6.1,0.4C75.8,46.4,69.9,47.4,70.1,46.5z"/>
	<path fill="#059092" d="M93.2,42.9c0.2-0.9,3.6,0.6,3.4-0.8c-0.1-0.5-1.9-0.4-3.2-0.4c0.5-0.7,1-1.7,1.4-3.2
		c1.7-5.3-4.7-12.3-4.7-12.3l-1.1,0.1c0,0,0.5,2.4,0.5,4.4c0,4-3.1,4.2-4,7.8c-0.6,2.5,1,3.7,2.1,4.2c0.4,0.5,1.3,1.4,2.8,2
		c2,0.8,3.7,1.4,4.4,0.7c0.7-0.7-3.6-0.5-3.4-1.3c0.2-0.8,5.6,1.2,6.1,0.4C98.9,42.8,93,43.8,93.2,42.9z"/>
	<path fill="#20C5CD" d="M90.6,30.3c0,0,0.5,2.4,0.5,4.4c0,4-3.1,4.2-4,7.8c-0.8,3.6,3,4.6,3,4.6h2.5c0,0,2,0.6,3.7-4.7
		c1.7-5.3-4.7-12.3-4.7-12.3L90.6,30.3z"/>
	<path fill="#20C5CD" d="M118.2,11.3c0.4,3.6,0.1,7.7-4,7.7c-4.1,0-7.4-3.7-7.4-8.4c0-4.6,3.5-8.6,7.5-7.7
		C120.1,4.4,118,10,118.2,11.3z"/>
	<ellipse fill="#FFE01F" cx="113.8" cy="11.5" rx="5.5" ry="6.2"/>
	<ellipse fill="#002B1E" cx="113.8" cy="12.4" rx="3.3" ry="3.5"/>
	<circle fill="#006F7F" cx="112.7" cy="11.1" r="1.6"/>
	<circle fill="#006F7F" cx="115.4" cy="14.5" r="0.8"/>
	<path fill="#20C5CD" d="M71.8,19.3c0,0,4.3,5.6,12,3.2c7.7-2.3,4.1-12,10.1-12c5.9,0,15.8,0,15.8,0s7,9.9,2.5,16.7
		c-2.3,3.5-6.1,10.4-22.1,10.4c-14.2,0-19.6-12.4-19.6-12.4L71.8,19.3z"/>
	<path fill="#006F7F" d="M99.6,11.1c0,0,1.8-5,5.3-5c3.5,0,4.7,2.7,5.7,4.7c0.9,2,0.4,7,0.4,7s-1.1-4-4.1-6
		C103.8,9.7,99.6,11.1,99.6,11.1z"/>
	<path fill="#002B1E" d="M99.6,11.1c0.3-0.9,0.7-1.8,1.2-2.6c0.5-0.8,1.2-1.6,2-2.1c0.4-0.3,0.9-0.5,1.4-0.6
		c0.2-0.1,0.5-0.1,0.8-0.1c0.2,0,0.5,0,0.7,0c0.5,0.1,1,0.2,1.4,0.4c0.5,0.2,0.9,0.5,1.3,0.8c0.8,0.6,1.3,1.5,1.8,2.3
		c0.2,0.4,0.4,0.9,0.6,1.3c0.2,0.5,0.3,0.9,0.4,1.4c0.1,1,0.1,1.9,0.1,2.9c-0.1,0.9-0.1,1.9-0.3,2.8c0-0.9,0.1-1.9,0-2.8
		c0-0.9-0.1-1.9-0.2-2.8c-0.1-0.5-0.2-0.9-0.4-1.3c-0.2-0.4-0.4-0.8-0.6-1.3c-0.4-0.8-1-1.6-1.7-2.1c-0.3-0.3-0.7-0.5-1.1-0.7
		c-0.4-0.2-0.8-0.3-1.3-0.3c-0.2,0-0.4,0-0.7-0.1c-0.2,0-0.4,0-0.7,0c-0.4,0.1-0.9,0.2-1.2,0.5c-0.8,0.5-1.4,1.1-2,1.9
		C100.5,9.4,100,10.2,99.6,11.1z"/>
	<path fill="#006F7F" d="M94.7,11.3c0,0,0.8-6.7,4.3-6.7c3.5,0,5,3.9,5.9,6.4c0.9,2.5,0.4,5.9,0.4,5.9s-0.6-3.4-4-5.2
		C97.9,9.9,94.7,11.3,94.7,11.3z"/>
	<path fill="#006F7F" d="M88.5,11.2c0,0,1.5-5.2,4.4-5.2c2.9,0,3.9,2.8,4.7,4.9c0.8,2-0.2,6.4-0.2,6.4L92.7,11L88.5,11.2z"/>
	<path fill="#002B1E" d="M99,4.6c0.6-0.1,1.3,0,1.9,0.3c0.6,0.3,1.1,0.7,1.6,1.1c0.9,0.9,1.5,2.1,2,3.3c0.1,0.3,0.2,0.6,0.4,0.9
		c0.1,0.3,0.2,0.6,0.3,0.9c0.2,0.6,0.3,1.3,0.3,1.9c0.1,1.3,0,2.6-0.3,3.8c0.1-1.3,0-2.5-0.1-3.8c-0.1-0.6-0.2-1.2-0.4-1.8
		c-0.2-0.6-0.4-1.2-0.7-1.8c-0.2-0.6-0.5-1.1-0.8-1.7c-0.3-0.5-0.6-1.1-1-1.5c-0.4-0.5-0.9-0.9-1.4-1.2C100.3,4.8,99.6,4.7,99,4.6z"
		/>
	<path fill="#002B1E" d="M88.5,11.2c0.2-0.9,0.5-1.7,0.9-2.5c0.4-0.8,0.9-1.6,1.6-2.2c0.3-0.3,0.7-0.6,1.2-0.7
		c0.2-0.1,0.5-0.1,0.7-0.1h0.2c0.1,0,0.1,0,0.2,0c0.1,0,0.2,0,0.3,0c0.5,0.1,0.9,0.2,1.3,0.5c0.4,0.2,0.8,0.5,1.1,0.9
		c0.6,0.7,1,1.5,1.4,2.3c0.2,0.4,0.3,0.8,0.5,1.2c0.2,0.4,0.2,0.9,0.3,1.3c0.1,0.9,0,1.8-0.1,2.7c-0.1,0.9-0.3,1.7-0.5,2.6
		c0.1-0.9,0.2-1.7,0.3-2.6c0-0.9,0.1-1.7,0-2.6c-0.1-0.4-0.1-0.8-0.3-1.2c-0.2-0.4-0.3-0.8-0.5-1.2c-0.3-0.8-0.7-1.6-1.3-2.2
		c-0.3-0.3-0.6-0.6-0.9-0.8c-0.3-0.2-0.7-0.3-1.1-0.4c-0.1,0-0.2,0-0.3,0c-0.1,0-0.1,0-0.2,0l-0.2,0c-0.2,0-0.4,0-0.6,0.1
		c-0.4,0.1-0.7,0.3-1.1,0.6c-0.6,0.5-1.2,1.2-1.6,2C89.2,9.6,88.9,10.3,88.5,11.2z"/>
	<path fill="#20C5CD" d="M95.5,10.8c0,4.5-3.3,8.2-7.4,8.2c-4.1,0-4.3-3.4-5.5-7.8c-0.9-3.2,0.3-8.4,5.5-8.6
		C92.2,2.5,95.5,6.2,95.5,10.8z"/>
	<ellipse fill="#FFE01F" cx="87.9" cy="11.6" rx="5.5" ry="6.1"/>
	<ellipse fill="#002B1E" cx="87.3" cy="12.6" rx="3.3" ry="3.5"/>
	<ellipse fill="#006F7F" cx="86.2" cy="11.2" rx="1.6" ry="1.6"/>
	<ellipse fill="#006F7F" cx="88.9" cy="14.6" rx="0.8" ry="0.8"/>
	<path fill="#002B1E" d="M93.8,20c0,0,1.9,2.7,9,2.5c7.2-0.1,8.6-2.4,8.6-2.4s0.3,7.5-6.8,8.4C94.9,29.8,93.8,20,93.8,20z"/>
	<path fill="#D26288" d="M102.4,25.5c-2.8-0.1-4.4,0.5-5.3,1c1.6,1.5,4,2.5,7.6,2c1.4-0.2,2.5-0.6,3.4-1.2
		C107,26.4,105.1,25.6,102.4,25.5z"/>
	<path fill="#20C5CD" d="M101.2,32c0,0,0.4,2,0.4,3.8c0,3.4-2.7,3.6-3.4,6.6c-0.7,3.1,2.6,3.9,2.6,3.9h2.1c0,0,1.7,0.5,3.2-4
		c1.4-4.5-4-10.4-4-10.4L101.2,32z"/>
	<g>
		<path fill="#20C5CD" d="M94.7,46.7c0.2-0.9,3.6,0.6,3.4-0.8c-0.1-0.7-4.4-0.3-4.4-0.3L89,46v0.5c0,0,1,1.4,3,2.3
			c2,0.8,3.7,1.4,4.4,0.7c0.7-0.7-3.6-0.5-3.4-1.3c0.2-0.8,5.6,1.2,6.1,0.4C100.3,46.7,94.5,47.6,94.7,46.7z"/>
		<path fill="#20C5CD" d="M104.6,45.7c0.1-0.7,2.6,0.4,2.5-0.6c-0.1-0.5-3.2-0.2-3.2-0.2l-3.4,0.3v0.3c0,0,0.7,1,2.2,1.6
			c1.5,0.6,2.7,1,3.2,0.5c0.5-0.5-2.6-0.3-2.4-1c0.2-0.6,4.1,0.9,4.4,0.3C108.7,45.6,104.5,46.3,104.6,45.7z"/>
	</g>
	<circle fill="#20C5CD" cx="95.1" cy="35.4" r="1.6"/>
	<circle fill="#20C5CD" cx="103.3" cy="33.3" r="1.1"/>
	<path fill="#20C5CD" d="M82.5,46.9c0.2-1,3.6,0.6,3.4-0.8c-0.1-0.5-1.9-0.5-3.2-0.4c0.5-0.7,1-1.8,1.4-3.3c1.7-5.6-4.7-13-4.7-13
		l-1.1,0.1c0,0,0.5,2.5,0.5,4.7c0,4.2-3.1,4.5-4,8.3c-0.6,2.6,1,3.9,2.1,4.5c0.4,0.5,1.3,1.5,2.8,2.1c2,0.9,3.7,1.5,4.4,0.8
		c0.7-0.8-3.6-0.5-3.4-1.4c0.2-0.9,5.6,1.3,6.1,0.4C88.2,46.8,82.3,47.9,82.5,46.9z"/>
	<path fill="#059092" d="M85.5,18.2c0.1,0.1,0.2,0.1,0.3,0.2c0.1,0.1,0.2,0.1,0.3,0.1c0.2,0.1,0.4,0.1,0.6,0.1
		c0.4,0.1,0.8,0.1,1.2,0.1c0.4,0,0.8,0,1.3,0c0.2,0,0.4,0,0.6-0.1c0.2,0,0.4-0.1,0.6-0.1c0.8-0.2,1.5-0.6,2.1-1.2
		c0.7-0.5,1.2-1.1,1.8-1.8c-0.3,0.8-0.8,1.6-1.4,2.2c-0.6,0.6-1.4,1.2-2.3,1.4c-0.2,0.1-0.4,0.1-0.7,0.2c-0.2,0-0.5,0.1-0.7,0.1
		c-0.4,0-0.9,0-1.3-0.1S87,19.2,86.6,19c-0.2-0.1-0.4-0.2-0.6-0.3C85.8,18.6,85.6,18.4,85.5,18.2z"/>
	<path fill="#059092" d="M83.8,39.5c0.1,0.2,0.1,0.4,0,0.6c-0.1,0.2-0.2,0.4-0.4,0.5c-0.3,0.3-0.8,0.5-1.2,0.5
		c-0.4,0.1-0.9,0-1.3-0.1c-0.2-0.1-0.4-0.2-0.6-0.4c-0.2-0.2-0.3-0.4-0.3-0.7c0-0.3,0.2-0.6,0.4-0.7c0.2-0.2,0.4-0.3,0.7-0.3
		c0.4-0.1,1-0.1,1.4,0.2c0.2,0.1,0.4,0.4,0.3,0.7c0,0.2-0.1,0.3-0.2,0.3c-0.1,0.1-0.2,0.1-0.3,0.2c-0.2,0.1-0.4,0.1-0.7,0
		c-0.1,0-0.2-0.1-0.3-0.2c-0.1-0.1-0.1-0.2-0.1-0.3c0,0.1,0.1,0.2,0.2,0.2c0.1,0,0.2,0.1,0.3,0.1c0.2,0,0.4,0,0.5-0.1
		c0.2-0.1,0.3-0.2,0.3-0.3c0-0.1-0.1-0.2-0.2-0.3c-0.1-0.1-0.3-0.1-0.5-0.1c-0.2,0-0.3,0-0.5,0.1c-0.2,0-0.3,0.1-0.4,0.2
		c-0.1,0.1-0.2,0.2-0.2,0.3c0,0.1,0.1,0.3,0.2,0.4c0.1,0.1,0.3,0.2,0.4,0.3c0.3,0.2,0.7,0.2,1.1,0.2c0.4,0,0.8-0.1,1.1-0.3
		c0.2-0.1,0.3-0.2,0.4-0.4C83.8,39.9,83.9,39.7,83.8,39.5z"/>
	<path fill="#059092" d="M70.2,37.4c0.1,0.2,0.1,0.5,0,0.7c-0.1,0.2-0.3,0.4-0.5,0.6c-0.4,0.3-0.9,0.5-1.4,0.6c-0.5,0.1-1,0-1.5-0.1
		c-0.2-0.1-0.5-0.2-0.7-0.5c-0.2-0.2-0.4-0.5-0.4-0.8c0-0.2,0.1-0.3,0.1-0.5c0.1-0.1,0.2-0.2,0.3-0.3c0.2-0.2,0.5-0.3,0.7-0.4
		c0.5-0.1,1.1-0.1,1.6,0.3c0.1,0.1,0.2,0.2,0.3,0.3c0.1,0.1,0.1,0.3,0.1,0.5c0,0.2-0.1,0.3-0.2,0.4c-0.1,0.1-0.2,0.2-0.4,0.2
		c-0.3,0.1-0.5,0.1-0.8,0c-0.1,0-0.2-0.1-0.3-0.2c-0.1-0.1-0.2-0.2-0.2-0.3c0,0.1,0.1,0.2,0.2,0.3c0.1,0.1,0.2,0.1,0.3,0.1
		c0.2,0,0.4,0,0.6-0.1c0.2-0.1,0.3-0.3,0.3-0.4c0-0.1,0-0.1-0.1-0.2c0-0.1-0.1-0.1-0.2-0.2c-0.2-0.1-0.4-0.2-0.6-0.2
		c-0.2,0-0.4,0-0.6,0.1c-0.2,0.1-0.4,0.1-0.5,0.3c-0.1,0.1-0.2,0.3-0.2,0.4v0l0,0c0,0,0,0,0,0c0,0,0,0.1,0,0.1
		c0,0.1,0.1,0.2,0.2,0.2c0.1,0.1,0.3,0.3,0.5,0.3c0.4,0.2,0.8,0.2,1.3,0.2c0.4,0,0.9-0.2,1.3-0.4c0.2-0.1,0.4-0.3,0.5-0.5
		C70.1,37.9,70.2,37.7,70.2,37.4z"/>
	<path fill="#059092" d="M95.2,39.8c0.1,0.2,0.1,0.4,0,0.6c-0.1,0.2-0.2,0.4-0.4,0.5c-0.3,0.3-0.8,0.5-1.2,0.5
		c-0.4,0.1-0.9,0-1.3-0.1c-0.2-0.1-0.4-0.2-0.6-0.4c-0.2-0.2-0.3-0.4-0.3-0.7c0-0.3,0.2-0.6,0.4-0.7c0.2-0.2,0.4-0.3,0.7-0.3
		c0.4-0.1,1-0.1,1.4,0.2c0.2,0.1,0.4,0.4,0.3,0.7c0,0.2-0.1,0.3-0.2,0.3c-0.1,0.1-0.2,0.1-0.3,0.2c-0.2,0.1-0.4,0.1-0.7,0
		c-0.1,0-0.2-0.1-0.3-0.2c-0.1-0.1-0.1-0.2-0.1-0.3c0,0.1,0.1,0.2,0.2,0.2c0.1,0,0.2,0.1,0.3,0.1c0.2,0,0.4,0,0.5-0.1
		c0.2-0.1,0.3-0.2,0.3-0.3c0-0.1-0.1-0.2-0.2-0.3c-0.1-0.1-0.3-0.1-0.5-0.1c-0.2,0-0.3,0-0.5,0.1c-0.2,0-0.3,0.1-0.4,0.2
		c-0.1,0.1-0.2,0.2-0.2,0.3c0,0.1,0.1,0.3,0.2,0.4c0.1,0.1,0.3,0.2,0.4,0.3c0.3,0.2,0.7,0.2,1.1,0.2c0.4,0,0.8-0.1,1.1-0.3
		c0.2-0.1,0.3-0.2,0.4-0.4C95.2,40.2,95.2,40,95.2,39.8z"/>
	<path fill="#059092" d="M102.1,39.7c0,0.2,0.1,0.4,0.2,0.6c0.1,0.2,0.2,0.3,0.4,0.4c0.3,0.2,0.7,0.3,1.1,0.3c0.4,0,0.7,0,1.1-0.2
		c0.2-0.1,0.3-0.2,0.4-0.3c0.1-0.1,0.2-0.3,0.2-0.4c0-0.1-0.1-0.2-0.2-0.3c-0.1-0.1-0.3-0.2-0.4-0.2c-0.2,0-0.3-0.1-0.5-0.1
		c-0.2,0-0.3,0.1-0.5,0.1c-0.1,0.1-0.2,0.2-0.2,0.3c0,0.1,0.1,0.2,0.3,0.3c0.2,0.1,0.3,0.1,0.5,0.1c0.1,0,0.2,0,0.3-0.1
		c0.1,0,0.2-0.1,0.2-0.2c0,0.1-0.1,0.2-0.1,0.3c-0.1,0.1-0.2,0.1-0.3,0.2c-0.2,0.1-0.4,0.1-0.7,0c-0.1,0-0.2-0.1-0.3-0.2
		c-0.1-0.1-0.2-0.2-0.2-0.3c0-0.3,0.1-0.6,0.3-0.7c0.4-0.3,0.9-0.3,1.4-0.2c0.2,0.1,0.5,0.1,0.7,0.3c0.2,0.2,0.4,0.4,0.4,0.7
		c0,0.3-0.1,0.5-0.3,0.7c-0.2,0.2-0.4,0.3-0.6,0.4c-0.4,0.2-0.9,0.2-1.3,0.1c-0.4-0.1-0.8-0.2-1.2-0.5c-0.2-0.1-0.3-0.3-0.4-0.5
		C102.1,40.1,102.1,39.9,102.1,39.7z"/>
	<path fill="#059092" d="M88.6,19.4c-0.1,0.2-0.1,0.5-0.1,0.8c0,0.3-0.1,0.5-0.1,0.8c0,0.5-0.1,1.1,0,1.6c0,1.1,0.1,2.2,0.2,3.3
		c0.1,1.1,0.4,2.1,1,3.1c0.3,0.5,0.6,0.9,1,1.3c0.4,0.4,0.8,0.8,1.3,1.1c-0.5-0.3-0.9-0.6-1.4-1c-0.4-0.4-0.8-0.8-1.1-1.3
		c-0.6-0.9-1-2-1.2-3.1c-0.2-1.1-0.3-2.2-0.4-3.3c0-0.6,0-1.1,0-1.7c0-0.3,0-0.6,0-0.8c0-0.3,0.1-0.6,0.1-0.9L88.6,19.4z"/>
	<path fill="#FFFFF0" d="M110.6,20.8c-1.1,0.7-3.3,1.6-7.7,1.7c-3.9,0.1-6.3-0.7-7.6-1.4c0.6,1.4,1.5,3.5,2,3.6
		c0.8,0.1,0.7-1.2,0.7-1.2s1.5,1.3,5.3,1.2c3.9,0,5.3-0.9,5.3-0.9s-0.2,0.8,0.7,0.7C109.9,24.6,110.3,22.5,110.6,20.8z"/>
	<path fill="#006F7F" d="M151.1,13.6c-3.1,0.5-6,0.1-7.6-0.7c0.6,1.9,3.3,3,6.2,2.6c2.1-0.3,3.8-1.4,4.7-2.7
		C153.4,13.2,152.3,13.4,151.1,13.6z"/>
</g>
</svg>
