<?xml version="1.0" encoding="utf-8"?>
<!-- Generator: Adobe Illustrator 21.0.0, SVG Export Plug-In . SVG Version: 6.00 Build 0)  -->
<svg version="1.1" xmlns="http://www.w3.org/2000/svg" xmlns:xlink="http://www.w3.org/1999/xlink" x="0px" y="0px"
	 viewBox="0 0 2800 287.9" enable-background="new 0 0 2800 287.9" xml:space="preserve" width="2800" height="287.9" preserveAspectRatio="none">
<pattern  x="809.2" y="-3493" width="69.3" height="120" patternUnits="userSpaceOnUse" id="Green_Argyle_Light" viewBox="0 0 69.3 120" overflow="visible"><g transform="translate(0 120)">
		<rect y="-120" fill="#77B55B" width="69.3" height="120"/>
		<polyline fill="#70B14F" points="0,-120 17.3,-90 34.6,-120 		"/>
		<polyline fill="#70B14F" points="34.6,-120 52,-90 69.3,-120 		"/>
		<polyline fill="#78B353" points="0,-60 17.3,-90 0,-120 		"/>
		<polygon fill="#6BAF4A" points="34.6,-120 17.3,-90 34.6,-60 52,-90 		"/>
		<polyline fill="#78B353" points="69.3,-120 52,-90 69.3,-60 		"/>
		<polygon fill="#70B14F" points="17.3,-90 0,-60 17.3,-30 34.6,-60 		"/>
		<polygon fill="#70B14F" points="52,-90 34.6,-60 52,-30 69.3,-60 		"/>
		<polyline fill="#6BAF4A" points="0,0 17.3,-30 0,-60 		"/>
		<polygon fill="#78B353" points="34.6,-60 17.3,-30 34.6,0 52,-30 		"/>
		<polyline fill="#6BAF4A" points="69.3,-60 52,-30 69.3,0 		"/>
		<polyline fill="#70B14F" points="34.6,0 17.3,-30 0,0 		"/>
		<polyline fill="#70B14F" points="69.3,0 52,-30 34.6,0 		"/>
		<path fill="#77B55B" d="M52.3,0h-0.6l0,0l-17-29.5L17.6,0l0,0H17l0,0L0-29.5v-1L17-60L0-89.5v-1L17-120h0.6l17,29.5l17-29.5h0.6
			l17,29.5v1L52.3-60l17,29.5v1L52.3,0L52.3,0z M34.9-90l17,29.5L69-90l-17-29.5L34.9-90z M17.3-60.5l17-29.5l-17-29.5L0.3-90
			L17.3-60.5z M34.4-30l-17-29.5L0.3-30l17,29.5L34.4-30z M34.6-30.5l17-29.5l-17-29.5L17.6-60L34.6-30.5z M52-0.5L69-30L52-59.5
			L34.9-30L52-0.5z"/>
	</g>
</pattern>
<g id="sky">
</g>
<g id="clouds">
</g>
<g id="Text">
</g>
<g id="mountains">
</g>
<g id="back_hills">
</g>
<g id="back_trees">
</g>
<g id="front_ground">
</g>
<g id="trees_flowers">
	<pattern  id="SVGID_1_" xlink:href="#Green_Argyle_Light" patternTransform="matrix(0.7652 0 0 0.7653 -191.447 376.0063)">
	</pattern>
	<path fill="url(#SVGID_1_)" d="M1408.7,15.9C697,15.9,226.5,85.1,0,128.8v159.1h2800V123.7C2573.6,85.6,2069.6,15.9,1408.7,15.9z"
		/>
	<path fill="#5AA94C" d="M777.2,100.6c-6.3,5.8,3.4,7.5,5.5,1.7c4.2,1.2,6.9-0.4,7.4-1.5c0.3-1.5-2.1-2.3-5.3-2.4
		c6.6-7.7-4.7-6.8-5.5-1.7C769.1,92.7,768.2,99.3,777.2,100.6z"/>
	<path fill="#5AA94C" d="M802,97c4.5,5.9-3.9,5.9-4.8,0.6c-3.7,0.4-5.8-1.3-6-2.4c0-1.3,2.1-1.6,4.8-1.3c-4.4-7.5,4.9-5.1,4.8-0.6
		C809.9,91.5,809.7,97.2,802,97z"/>
	<path fill="#5AA94C" d="M753.5,88c5.1,4.5-2.8,5.8-4.4,1.3c-3.4,1-5.5-0.3-6-1.1c-0.2-1.1,1.7-1.8,4.2-1.9
		c-5.2-5.9,3.8-5.2,4.4-1.3C760.1,81.9,760.7,87,753.5,88z"/>
	<path fill="#5AA94C" d="M752.9,69.7c-0.3,1.8-0.5,3.7-0.8,5.5c0.7-0.3,1.4-0.4,2.1-0.3c1-1.4,2-2.5,2.9-3.4c-1.1,0.3-2.4,1-3.7,2.2
		C753.3,72.3,753.1,71,752.9,69.7z"/>
	<path fill="#5AA94C" d="M810.4,68.4c-0.6-1.3-1.2-3.1-1.1-5.1c0-0.5,0-1,0.1-1.5c0.3,3.4,2.2,6,2.2,6s2-2.6,2.4-6c0,0.5,0,1,0,1.5
		c0,2-0.7,3.7-1.3,5H810.4z"/>
	<path fill="#5AA94C" d="M856.8,73.5c-0.6-1.9-1-4.5,0-7.4c0.3-0.8,0.6-1.5,0.9-2.2c-1.9,4.6,0.2,8.8,0.1,8.8c0-0.1,1.7-3.5,4-7.9
		c-0.3,0.7-0.6,1.4-0.8,2.2c-0.9,2.8-1.6,5.2-2.1,6.8C858.2,73.6,857.5,73.5,856.8,73.5z"/>
	<g>
		<path fill="#FFD943" d="M777.1,99.7c-6.3,6.1,4,7.3,5.8,1.4c4.4,1,7.2-0.7,7.6-1.9c0.2-1.5-2.3-2.2-5.6-2.2c6.4-8-5.3-6.5-5.8-1.4
			C768.2,92.3,767.7,98.9,777.1,99.7z"/>
		<path fill="#FFD943" d="M801.2,96c4.8,5.9-4.1,5.9-5.1,0.6c-3.9,0.4-6.1-1.3-6.4-2.4c0-1.3,2.2-1.6,5-1.3
			c-4.7-7.5,5.2-5.1,5.1-0.6C809.6,90.5,809.4,96.2,801.2,96z"/>
		<path fill="#FFD943" d="M754.1,86.9c5.1,4.5-2.8,5.8-4.4,1.3c-3.4,1-5.5-0.3-6-1.1c-0.2-1.1,1.7-1.8,4.2-1.9
			c-5.2-5.9,3.8-5.2,4.4-1.3C760.7,80.8,761.3,85.9,754.1,86.9z"/>
		
			<ellipse transform="matrix(0.9987 -5.008021e-02 5.008021e-02 0.9987 -3.9426 39.2125)" fill="#F6A66F" cx="780.5" cy="98.3" rx="4.3" ry="1.9"/>
	</g>
	<g>
		
			<ellipse transform="matrix(0.165 -0.9863 0.9863 0.165 573.5584 866.3437)" fill="#F6A66F" cx="798.4" cy="94.4" rx="1.7" ry="3.7"/>
	</g>
	<g>
		<ellipse fill="#F6A66F" cx="751.4" cy="85.9" rx="3.3" ry="1.5"/>
	</g>
	<path fill="#5AA94C" d="M858.2,117.4c-0.5,3.6-1,7.2-1.5,10.7c1.3-0.6,2.7-0.8,4.1-0.7c2-2.7,4-4.9,5.7-6.7c-2.1,0.6-4.7,2-7.2,4.4
		C858.8,122.5,858.5,119.9,858.2,117.4z"/>
	<path fill="#5AA94C" d="M901.7,43c-0.4,2.7-0.8,5.4-1.2,8.1c1-0.4,2-0.6,3.1-0.5c1.5-2,3-3.7,4.3-5c-1.6,0.4-3.5,1.5-5.4,3.3
		C902.2,46.8,901.9,44.8,901.7,43z"/>
	<path fill="#5AA94C" d="M825.6,53.8c0.3,4.1,0.5,8.2,0.8,12.2c-1-0.6-2.2-0.8-3.3-0.6c-1.5-3-3-5.5-4.3-7.4
		c1.7,0.6,3.7,2.1,5.7,4.7C824.9,59.6,825.2,56.6,825.6,53.8z"/>
	<path fill="#5AA94C" d="M1740.1,79.9c0.4,5.4,0.7,10.9,1.1,16.3c-1.4-0.8-2.9-1-4.4-0.8c-2-4-4-7.3-5.8-9.9c2.3,0.8,5,2.8,7.6,6.3
		C1739.1,87.7,1739.6,83.7,1740.1,79.9z"/>
	<path fill="#5AA94C" d="M1753.8,58.8c-0.2,3.5-0.5,6.9-0.7,10.4c0.9-0.5,1.8-0.7,2.8-0.5c1.3-2.6,2.6-4.7,3.7-6.3
		c-1.4,0.5-3.2,1.8-4.8,4C1754.4,63.8,1754.1,61.2,1753.8,58.8z"/>
	<path fill="#5AA94C" d="M2067.6,252.7c-9.7,6.8,3.3,10.8,7.1,3.3c5.5,2.4,9.5,0.7,10.4-0.7c0.6-1.9-2.5-3.5-6.7-4.3
		c10.3-9.3-5.2-10.1-7.1-3.3C2057.9,240.5,2055.5,249.3,2067.6,252.7z"/>
	<path fill="#5AA94C" d="M2101.9,252.4c5.1,8.8-6.5,7.3-6.7,0c-5.1-0.1-7.6-2.9-7.8-4.3c0.2-1.7,3.2-1.9,6.7-0.9
		c-4.7-11,7.6-6,6.7,0C2113.8,246.4,2112.4,254.1,2101.9,252.4z"/>
	<path fill="#FFD943" d="M2067.6,251.6c-9.7,7.2,4.1,10.7,7.6,3c5.8,2.2,9.9,0.3,10.8-1.2c0.5-2-2.8-3.4-7.2-4c10.2-9.7-6-9.8-7.6-3
		C2056.8,239.8,2054.9,248.7,2067.6,251.6z"/>
	<path fill="#FFD943" d="M2101.1,250.9c5.4,8.9-6.7,7.2-7-0.1c-5.4-0.1-8-2.9-8.2-4.4c0.2-1.7,3.3-1.8,7.1-0.9c-5-11.1,8-5.9,7,0.1
		C2113.5,244.9,2112.2,252.7,2101.1,250.9z"/>
	
		<ellipse transform="matrix(8.322179e-02 -0.9965 0.9965 8.322179e-02 1650.693 2294.6477)" fill="#F6A66F" cx="2072.5" cy="250.2" rx="2.6" ry="5.8"/>
	<g>
		
			<ellipse transform="matrix(0.2947 -0.9556 0.9556 0.2947 1242.3303 2179.5264)" fill="#F6A66F" cx="2097.6" cy="248.2" rx="2.3" ry="5"/>
	</g>
	<path fill="#5AA94C" d="M2467.6,182.7c-9.7,6.8,3.3,10.8,7.1,3.3c5.5,2.4,9.5,0.7,10.4-0.7c0.6-1.9-2.5-3.5-6.7-4.3
		c10.3-9.3-5.2-10.1-7.1-3.3C2457.9,170.5,2455.5,179.3,2467.6,182.7z"/>
	<path fill="#5AA94C" d="M2501.9,182.4c5.1,8.8-6.5,7.3-6.7,0c-5.1-0.1-7.6-2.9-7.8-4.3c0.2-1.7,3.2-1.9,6.7-0.9
		c-4.7-11,7.6-6,6.7,0C2513.8,176.4,2512.4,184.1,2501.9,182.4z"/>
	<path fill="#FFD943" d="M2467.6,181.6c-9.7,7.2,4.1,10.7,7.6,3c5.8,2.2,9.9,0.3,10.8-1.2c0.5-2-2.8-3.4-7.2-4c10.2-9.7-6-9.8-7.6-3
		C2456.8,169.8,2454.9,178.7,2467.6,181.6z"/>
	<path fill="#FFD943" d="M2501.1,180.9c5.4,8.9-6.7,7.2-7-0.1c-5.4-0.1-8-2.9-8.2-4.4c0.2-1.7,3.3-1.8,7.1-0.9c-5-11.1,8-5.9,7,0.1
		C2513.5,174.9,2512.2,182.7,2501.1,180.9z"/>
	
		<ellipse transform="matrix(8.322179e-02 -0.9965 0.9965 8.322179e-02 2087.1616 2629.0854)" fill="#F6A66F" cx="2472.5" cy="180.2" rx="2.6" ry="5.8"/>
	<g>
		
			<ellipse transform="matrix(0.2947 -0.9556 0.9556 0.2947 1591.3617 2512.3938)" fill="#F6A66F" cx="2497.6" cy="178.2" rx="2.3" ry="5"/>
	</g>
	<path fill="#5AA94C" d="M846.4,133.1c-1.3-2.8-2.6-6.7-2.6-11c0-1.1,0.1-2.2,0.2-3.3c0.7,7.4,4.9,13.1,4.9,13.1s4.4-5.6,5.3-13
		c0.1,1.1,0.1,2.2,0.1,3.3c-0.1,4.3-1.5,8.1-2.8,10.9H846.4z"/>
	<path fill="#5AA94C" d="M1753.7,81.5c-8.4,4.4,1.5,9,5.4,3.4c4.1,2.5,7.5,1.6,8.4,0.5c0.7-1.5-1.6-3-4.9-4.1
		c9.2-6.3-3.1-8.6-5.3-3.3C1747.2,70.7,1744.5,77.5,1753.7,81.5z"/>
	<path fill="#FFD943" d="M1753.8,80.6c-8.5,4.7,2.2,9,5.8,3.1c4.4,2.4,7.9,1.3,8.7,0.2c0.6-1.5-1.9-3-5.4-3.9
		c9.1-6.7-3.8-8.5-5.7-3.1C1746.4,70.1,1744,77,1753.8,80.6z"/>
	
		<ellipse transform="matrix(0.21 -0.9777 0.9777 0.21 1310.5775 1781.9126)" fill="#F6A66F" cx="1757.9" cy="80" rx="2.1" ry="4.7"/>
	<path fill="#5AA94C" d="M1741.8,73.4c6,4.4-2.3,6.7-4.5,1.9c-3.5,1.4-6,0.3-6.5-0.6c-0.3-1.2,1.6-2.1,4.3-2.5
		c-6.3-6,3.5-6.2,4.5-1.9C1748.1,65.9,1749.4,71.5,1741.8,73.4z"/>
	<path fill="#FFD943" d="M1741.8,72.7c5.9,4.7-2.8,6.6-4.8,1.7c-3.7,1.3-6.2,0-6.7-0.9c-0.3-1.2,1.8-2.1,4.6-2.4
		c-6.2-6.3,4-6.1,4.8-1.7C1748.8,65.5,1749.9,71.1,1741.8,72.7z"/>
	
		<ellipse transform="matrix(0.9987 -5.166282e-02 5.166282e-02 0.9987 -1.3831 89.9263)" fill="#F6A66F" cx="1738.8" cy="71.7" rx="3.7" ry="1.7"/>
	<path fill="#5AA94C" d="M1770.5,39.4c-5,2.1,0.4,5.2,2.9,2.2c2.2,1.6,4.2,1.3,4.7,0.7c0.5-0.8-0.8-1.8-2.6-2.6
		c5.5-3.2-1.3-5-2.9-2.2C1767.3,33,1765.4,36.7,1770.5,39.4z"/>
	<path fill="#FFD943" d="M1770.6,38.9c-5,2.3,0.8,5.2,3.1,2.1c2.4,1.6,4.4,1.1,4.9,0.5c0.4-0.8-0.9-1.8-2.9-2.5
		c5.5-3.4-1.7-5-3.1-2.1C1766.9,32.6,1765.1,36.4,1770.6,38.9z"/>
	
		<ellipse transform="matrix(0.294 -0.9558 0.9558 0.294 1214.5905 1721.9429)" fill="#F6A66F" cx="1772.9" cy="38.8" rx="1.2" ry="2.7"/>
	<path fill="#5AA94C" d="M2080.5,99.4c-5,2.1,0.4,5.2,2.9,2.2c2.2,1.6,4.2,1.3,4.7,0.7c0.5-0.8-0.8-1.8-2.6-2.6
		c5.5-3.2-1.3-5-2.9-2.2C2077.3,93,2075.4,96.7,2080.5,99.4z"/>
	<path fill="#FFD943" d="M2080.6,98.9c-5,2.3,0.8,5.2,3.1,2.1c2.4,1.6,4.4,1.1,4.9,0.5c0.4-0.8-0.9-1.8-2.9-2.5
		c5.5-3.4-1.7-5-3.1-2.1C2076.9,92.6,2075.1,96.4,2080.6,98.9z"/>
	
		<ellipse transform="matrix(0.294 -0.9558 0.9558 0.294 1376.1034 2060.6033)" fill="#F6A66F" cx="2082.9" cy="98.8" rx="1.2" ry="2.7"/>
	<path fill="#5AA94C" d="M310.5,119.4c-5,2.1,0.4,5.2,2.9,2.2c2.2,1.6,4.2,1.3,4.7,0.7c0.5-0.8-0.8-1.8-2.6-2.6
		c5.5-3.2-1.3-5-2.9-2.2C307.3,113,305.4,116.7,310.5,119.4z"/>
	<path fill="#FFD943" d="M310.6,118.9c-5,2.3,0.8,5.2,3.1,2.1c2.4,1.6,4.4,1.1,4.9,0.5c0.4-0.8-0.9-1.8-2.9-2.5
		c5.5-3.4-1.7-5-3.1-2.1C306.9,112.6,305.1,116.4,310.6,118.9z"/>
	
		<ellipse transform="matrix(0.294 -0.9558 0.9558 0.294 107.3594 382.9453)" fill="#F6A66F" cx="312.9" cy="118.8" rx="1.2" ry="2.7"/>
	<path fill="#5AA94C" d="M1787.4,194.1c-1.3-2.8-2.6-6.7-2.6-11c0-1.1,0.1-2.2,0.2-3.3c0.7,7.4,4.9,13.1,4.9,13.1s4.4-5.6,5.3-13
		c0.1,1.1,0.1,2.2,0.1,3.3c-0.1,4.3-1.5,8.1-2.8,10.9H1787.4z"/>
	<path fill="#5AA94C" d="M1694.1,49.8c-1-2.1-2-5.1-2-8.5c0-0.9,0.1-1.7,0.1-2.5c0.5,5.7,3.8,10.1,3.8,10.1s3.4-4.3,4.1-10
		c0.1,0.8,0.1,1.7,0.1,2.5c0,3.3-1.1,6.2-2.2,8.3H1694.1z"/>
	<path fill="#5AA94C" d="M884.8,46.8c5.4,4.6-2.6,6.3-4.5,1.6c-3.4,1.1-5.7-0.1-6.2-1c-0.3-1.2,1.7-2,4.3-2.2
		c-5.7-6.2,3.7-5.7,4.5-1.6C891.4,40,892.3,45.4,884.8,46.8z"/>
	<path fill="#FFD943" d="M884.9,46.1c5.4,4.9-3.1,6.2-4.7,1.3c-3.6,1-6-0.4-6.4-1.3c-0.2-1.2,1.9-1.9,4.6-2
		c-5.5-6.4,4.2-5.6,4.7-1.3C892.1,39.6,892.7,45.1,884.9,46.1z"/>
	
		<ellipse transform="matrix(1.275290e-02 -0.9999 0.9999 1.275290e-02 825.7999 926.3731)" fill="#F6A66F" cx="882" cy="45" rx="1.6" ry="3.5"/>
	<path fill="#5AA94C" d="M1440.6,209.7c-9.7,6.8,3.3,10.8,7.1,3.3c5.5,2.4,9.5,0.7,10.4-0.7c0.6-1.9-2.5-3.5-6.7-4.3
		c10.3-9.3-5.2-10.1-7.1-3.3C1430.9,197.5,1428.5,206.3,1440.6,209.7z"/>
	<path fill="#FFD943" d="M1440.6,208.6c-9.7,7.2,4.1,10.7,7.6,3c5.8,2.2,9.9,0.3,10.8-1.2c0.5-2-2.8-3.4-7.2-4c10.2-9.7-6-9.8-7.6-3
		C1429.8,196.8,1427.9,205.7,1440.6,208.6z"/>
	
		<ellipse transform="matrix(8.322179e-02 -0.9965 0.9965 8.322179e-02 1118.7239 1630.4011)" fill="#F6A66F" cx="1445.5" cy="207.2" rx="2.6" ry="5.8"/>
	<path fill="#5AA94C" d="M1441.8,196.8c5.4,4.6-2.6,6.3-4.5,1.6c-3.4,1.1-5.7-0.1-6.2-1c-0.3-1.2,1.7-2,4.3-2.2
		c-5.7-6.2,3.7-5.7,4.5-1.6C1448.4,190,1449.3,195.4,1441.8,196.8z"/>
	<path fill="#FFD943" d="M1441.9,196.1c5.4,4.9-3.1,6.2-4.7,1.3c-3.6,1-6-0.4-6.4-1.3c-0.2-1.2,1.9-1.9,4.6-2
		c-5.5-6.4,4.2-5.6,4.7-1.3C1449.1,189.6,1449.7,195.1,1441.9,196.1z"/>
	
		<ellipse transform="matrix(1.275287e-02 -0.9999 0.9999 1.275287e-02 1225.7087 1631.4149)" fill="#F6A66F" cx="1439" cy="195" rx="1.6" ry="3.5"/>
	<path fill="#5AA94C" d="M519.2,229.7c9.7,6.8-3.3,10.8-7.1,3.3c-5.5,2.4-9.5,0.7-10.4-0.7c-0.6-1.9,2.5-3.5,6.7-4.3
		c-10.3-9.3,5.2-10.1,7.1-3.3C528.9,217.5,531.2,226.3,519.2,229.7z"/>
	<path fill="#FFD943" d="M519.2,228.6c9.7,7.2-4.1,10.7-7.6,3c-5.8,2.2-9.9,0.3-10.8-1.2c-0.5-2,2.8-3.4,7.2-4
		c-10.2-9.7,6-9.8,7.6-3C530,216.8,531.9,225.7,519.2,228.6z"/>
	
		<ellipse transform="matrix(0.9965 -8.322179e-02 8.322179e-02 0.9965 -17.1222 43.5863)" fill="#F6A66F" cx="514.3" cy="227.2" rx="5.8" ry="2.6"/>
	<path fill="#5AA94C" d="M517.9,216.8c-5.4,4.6,2.6,6.3,4.5,1.6c3.4,1.1,5.7-0.1,6.2-1c0.3-1.2-1.7-2-4.3-2.2
		c5.7-6.2-3.7-5.7-4.5-1.6C511.4,210,510.5,215.4,517.9,216.8z"/>
	<path fill="#FFD943" d="M517.8,216.1c-5.4,4.9,3.1,6.2,4.7,1.3c3.6,1,6-0.4,6.4-1.3c0.2-1.2-1.9-1.9-4.6-2c5.5-6.4-4.2-5.6-4.7-1.3
		C510.7,209.6,510.1,215.1,517.8,216.1z"/>
	
		<ellipse transform="matrix(0.9999 -1.275287e-02 1.275287e-02 0.9999 -2.6994 6.6581)" fill="#F6A66F" cx="520.7" cy="215" rx="3.5" ry="1.6"/>
	<path fill="#5AA94C" d="M1127.6,141.7c-9.7,6.8,3.3,10.8,7.1,3.3c5.5,2.4,9.5,0.7,10.4-0.7c0.6-1.9-2.5-3.5-6.7-4.3
		c10.3-9.3-5.2-10.1-7.1-3.3C1117.9,129.5,1115.5,138.3,1127.6,141.7z"/>
	<path fill="#5AA94C" d="M1161.9,141.4c5.1,8.8-6.5,7.3-6.7,0c-5.1-0.1-7.6-2.9-7.8-4.3c0.2-1.7,3.2-1.9,6.7-0.9
		c-4.7-11,7.6-6,6.7,0C1173.8,135.4,1172.4,143.1,1161.9,141.4z"/>
	<path fill="#FFD943" d="M1127.6,140.6c-9.7,7.2,4.1,10.7,7.6,3c5.8,2.2,9.9,0.3,10.8-1.2c0.5-2-2.8-3.4-7.2-4c10.2-9.7-6-9.8-7.6-3
		C1116.8,128.8,1114.9,137.7,1127.6,140.6z"/>
	<path fill="#FFD943" d="M1161.1,139.9c5.4,8.9-6.7,7.2-7-0.1c-5.4-0.1-8-2.9-8.2-4.4c0.2-1.7,3.3-1.8,7.1-0.9c-5-11.1,8-5.9,7,0.1
		C1173.5,133.9,1172.2,141.7,1161.1,139.9z"/>
	
		<ellipse transform="matrix(8.322179e-02 -0.9965 0.9965 8.322179e-02 899.5364 1256.146)" fill="#F6A66F" cx="1132.5" cy="139.2" rx="2.6" ry="5.8"/>
	<g>
		
			<ellipse transform="matrix(0.2947 -0.9556 0.9556 0.2947 685.3755 1202.9644)" fill="#F6A66F" cx="1157.6" cy="137.2" rx="2.3" ry="5"/>
	</g>
	<path fill="#5AA94C" d="M1524.6,30.6c-6.3,4.4,2.1,7,4.6,2.1c3.5,1.6,6.1,0.5,6.7-0.5c0.4-1.2-1.6-2.3-4.3-2.8
		c6.7-6-3.4-6.5-4.6-2.1C1518.3,22.7,1516.8,28.4,1524.6,30.6z"/>
	<path fill="#5AA94C" d="M1546.7,30.4c3.3,5.7-4.2,4.7-4.3,0c-3.3,0-4.9-1.8-5-2.8c0.1-1.1,2-1.2,4.3-0.6c-3-7.1,4.9-3.9,4.3,0
		C1554.4,26.5,1553.5,31.5,1546.7,30.4z"/>
	<path fill="#FFD943" d="M1524.6,29.8c-6.2,4.6,2.6,6.9,4.9,1.9c3.8,1.4,6.4,0.2,6.9-0.7c0.3-1.3-1.8-2.2-4.7-2.6
		c6.6-6.3-3.9-6.3-4.9-1.9C1517.6,22.2,1516.4,28,1524.6,29.8z"/>
	<path fill="#FFD943" d="M1546.2,29.4c3.5,5.7-4.3,4.7-4.5,0c-3.5-0.1-5.2-1.9-5.3-2.8c0.1-1.1,2.1-1.2,4.6-0.6
		c-3.2-7.1,5.1-3.8,4.5,0C1554.2,25.6,1553.3,30.6,1546.2,29.4z"/>
	
		<ellipse transform="matrix(8.322231e-02 -0.9965 0.9965 8.322231e-02 1371.7317 1548.9661)" fill="#F6A66F" cx="1527.7" cy="29" rx="1.7" ry="3.8"/>
	<g>
		
			<ellipse transform="matrix(0.2947 -0.9556 0.9556 0.2947 1062.524 1494.8827)" fill="#F6A66F" cx="1543.9" cy="27.7" rx="1.5" ry="3.3"/>
	</g>
</g>
<g id="path">
</g>
<g id="right_building">
</g>
<g id="left_building">
</g>
<g id="info_board">
</g>
<g id="Shadows">
</g>
<g id="bird_elephant">
</g>
<g id="frog_creature">
</g>
<g id="purple_creature">
</g>
<g id="Characters">
</g>
<g id="Glow">
</g>
<g id="BG_Purple_2">
</g>
</svg>
