<?xml version="1.0" encoding="utf-8"?>
<!-- Generator: Adobe Illustrator 21.0.0, SVG Export Plug-In . SVG Version: 6.00 Build 0)  -->
<!DOCTYPE svg PUBLIC "-//W3C//DTD SVG 1.1//EN" "http://www.w3.org/Graphics/SVG/1.1/DTD/svg11.dtd">
<svg version="1.1" id="Layer_1" xmlns="http://www.w3.org/2000/svg" xmlns:xlink="http://www.w3.org/1999/xlink" x="0px" y="0px"
	 viewBox="0 0 955.8 600" enable-background="new 0 0 955.8 600" xml:space="preserve" width="955.8" height="600" preserveAspectRatio="none">
<pattern  y="445.4" width="69.3" height="120" patternUnits="userSpaceOnUse" id="SVGID_1_" viewBox="0 0 69.3 120" overflow="visible"><g transform="translate(0 120)">
		<rect y="-120" fill="none" width="69.3" height="120"/>
		<g transform="translate(0 120)">
			<rect y="-240" fill="none" width="69.3" height="120"/>
			<polyline fill="#00B3DB" points="0,-120 17.3,-150 34.6,-120 			"/>
			<polyline fill="#00B3DB" points="34.6,-120 52,-150 69.3,-120 			"/>
			<polyline fill="#01B6DC" points="0,-180 17.3,-150 0,-120 			"/>
			<polygon fill="#05AFD6" points="34.6,-120 17.3,-150 34.6,-180 52,-150 			"/>
			<polyline fill="#01B6DC" points="69.3,-120 52,-150 69.3,-180 			"/>
			<polygon fill="#00B3DB" points="17.3,-150 0,-180 17.3,-210 34.6,-180 			"/>
			<polygon fill="#00B3DB" points="52,-150 34.6,-180 52,-210 69.3,-180 			"/>
			<polyline fill="#05AFD6" points="0,-240 17.3,-210 0,-180 			"/>
			<polygon fill="#01B6DC" points="34.6,-180 17.3,-210 34.6,-240 52,-210 			"/>
			<polyline fill="#05AFD6" points="69.3,-180 52,-210 69.3,-240 			"/>
			<polyline fill="#00B3DB" points="34.6,-240 17.3,-210 0,-240 			"/>
			<polyline fill="#00B3DB" points="69.3,-240 52,-210 34.6,-240 			"/>
			<path fill="#05B9DE" d="M52.3-240h-0.6l0,0l-17,29.5L17.6-240l0,0H17l0,0L0-210.5v1L17-180L0-150.5v1L17-120h0.6l17-29.5l17,29.5
				h0.6l17-29.5v-1L52.3-180l17-29.5v-1L52.3-240L52.3-240z M34.9-150l17-29.5L69-150l-17,29.5L34.9-150z M17.3-179.5l17,29.5
				l-17,29.5L0.3-150L17.3-179.5z M34.4-210l-17,29.5L0.3-210l17-29.5L34.4-210z M34.6-209.5l17,29.5l-17,29.5l-17-29.5L34.6-209.5z
				 M52-239.5L69-210l-17,29.5L34.9-210L52-239.5z"/>
		</g>
	</g>
</pattern>
<pattern  y="445.4" width="69.3" height="120" patternUnits="userSpaceOnUse" id="SVGID_3_" viewBox="0 0 69.3 120" overflow="visible"><g transform="translate(0 120)">
		<rect y="-120" fill="none" width="69.3" height="120"/>
		<g transform="translate(0 120)">
			<rect y="-240" fill="none" width="69.3" height="120"/>
			<polyline fill="#F2F2F2" points="0,-120 17.3,-150 34.6,-120 			"/>
			<polyline fill="#F2F2F2" points="34.6,-120 52,-150 69.3,-120 			"/>
			<polyline fill="#F6F6F6" points="0,-180 17.3,-150 0,-120 			"/>
			<polygon fill="#EFEEEE" points="34.6,-120 17.3,-150 34.6,-180 52,-150 			"/>
			<polyline fill="#F6F6F6" points="69.3,-120 52,-150 69.3,-180 			"/>
			<polygon fill="#F2F2F2" points="17.3,-150 0,-180 17.3,-210 34.6,-180 			"/>
			<polygon fill="#F2F2F2" points="52,-150 34.6,-180 52,-210 69.3,-180 			"/>
			<polyline fill="#EFEEEE" points="0,-240 17.3,-210 0,-180 			"/>
			<polygon fill="#F6F6F6" points="34.6,-180 17.3,-210 34.6,-240 52,-210 			"/>
			<polyline fill="#EFEEEE" points="69.3,-180 52,-210 69.3,-240 			"/>
			<polyline fill="#F2F2F2" points="34.6,-240 17.3,-210 0,-240 			"/>
			<polyline fill="#F2F2F2" points="69.3,-240 52,-210 34.6,-240 			"/>
			<path fill="#FFFFFF" d="M52.3-240h-0.6l0,0l-17,29.5L17.6-240l0,0H17l0,0L0-210.5v1L17-180L0-150.5v1L17-120h0.6l17-29.5l17,29.5
				h0.6l17-29.5v-1L52.3-180l17-29.5v-1L52.3-240L52.3-240z M34.9-150l17-29.5L69-150l-17,29.5L34.9-150z M17.3-179.5l17,29.5
				l-17,29.5L0.3-150L17.3-179.5z M34.4-210l-17,29.5L0.3-210l17-29.5L34.4-210z M34.6-209.5l17,29.5l-17,29.5l-17-29.5L34.6-209.5z
				 M52-239.5L69-210l-17,29.5L34.9-210L52-239.5z"/>
		</g>
	</g>
</pattern>
<pattern  y="445.4" width="69.3" height="120" patternUnits="userSpaceOnUse" id="SVGID_4_" viewBox="0 0 69.3 120" overflow="visible"><g transform="translate(0 120)">
		<rect y="-120" fill="none" width="69.3" height="120"/>
		<g transform="translate(0 120)">
			<rect y="-240" fill="none" width="69.3" height="120"/>
			<polyline fill="#00B3DB" points="0,-120 17.3,-150 34.6,-120 			"/>
			<polyline fill="#00B3DB" points="34.6,-120 52,-150 69.3,-120 			"/>
			<polyline fill="#01B6DC" points="0,-180 17.3,-150 0,-120 			"/>
			<polygon fill="#05AFD6" points="34.6,-120 17.3,-150 34.6,-180 52,-150 			"/>
			<polyline fill="#01B6DC" points="69.3,-120 52,-150 69.3,-180 			"/>
			<polygon fill="#00B3DB" points="17.3,-150 0,-180 17.3,-210 34.6,-180 			"/>
			<polygon fill="#00B3DB" points="52,-150 34.6,-180 52,-210 69.3,-180 			"/>
			<polyline fill="#05AFD6" points="0,-240 17.3,-210 0,-180 			"/>
			<polygon fill="#01B6DC" points="34.6,-180 17.3,-210 34.6,-240 52,-210 			"/>
			<polyline fill="#05AFD6" points="69.3,-180 52,-210 69.3,-240 			"/>
			<polyline fill="#00B3DB" points="34.6,-240 17.3,-210 0,-240 			"/>
			<polyline fill="#00B3DB" points="69.3,-240 52,-210 34.6,-240 			"/>
			<path fill="#05B9DE" d="M52.3-240h-0.6l0,0l-17,29.5L17.6-240l0,0H17l0,0L0-210.5v1L17-180L0-150.5v1L17-120h0.6l17-29.5l17,29.5
				h0.6l17-29.5v-1L52.3-180l17-29.5v-1L52.3-240L52.3-240z M34.9-150l17-29.5L69-150l-17,29.5L34.9-150z M17.3-179.5l17,29.5
				l-17,29.5L0.3-150L17.3-179.5z M34.4-210l-17,29.5L0.3-210l17-29.5L34.4-210z M34.6-209.5l17,29.5l-17,29.5l-17-29.5L34.6-209.5z
				 M52-239.5L69-210l-17,29.5L34.9-210L52-239.5z"/>
		</g>
	</g>
</pattern>
<pattern  y="445.4" width="69.3" height="120" patternUnits="userSpaceOnUse" id="SVGID_5_" viewBox="0 0 69.3 120" overflow="visible"><g transform="translate(0 120)">
		<rect y="-120" fill="none" width="69.3" height="120"/>
		<g transform="translate(0 120)">
			<rect y="-240" fill="none" width="69.3" height="120"/>
			<polyline fill="#F2F2F2" points="0,-120 17.3,-150 34.6,-120 			"/>
			<polyline fill="#F2F2F2" points="34.6,-120 52,-150 69.3,-120 			"/>
			<polyline fill="#F6F6F6" points="0,-180 17.3,-150 0,-120 			"/>
			<polygon fill="#EFEEEE" points="34.6,-120 17.3,-150 34.6,-180 52,-150 			"/>
			<polyline fill="#F6F6F6" points="69.3,-120 52,-150 69.3,-180 			"/>
			<polygon fill="#F2F2F2" points="17.3,-150 0,-180 17.3,-210 34.6,-180 			"/>
			<polygon fill="#F2F2F2" points="52,-150 34.6,-180 52,-210 69.3,-180 			"/>
			<polyline fill="#EFEEEE" points="0,-240 17.3,-210 0,-180 			"/>
			<polygon fill="#F6F6F6" points="34.6,-180 17.3,-210 34.6,-240 52,-210 			"/>
			<polyline fill="#EFEEEE" points="69.3,-180 52,-210 69.3,-240 			"/>
			<polyline fill="#F2F2F2" points="34.6,-240 17.3,-210 0,-240 			"/>
			<polyline fill="#F2F2F2" points="69.3,-240 52,-210 34.6,-240 			"/>
			<path fill="#FFFFFF" d="M52.3-240h-0.6l0,0l-17,29.5L17.6-240l0,0H17l0,0L0-210.5v1L17-180L0-150.5v1L17-120h0.6l17-29.5l17,29.5
				h0.6l17-29.5v-1L52.3-180l17-29.5v-1L52.3-240L52.3-240z M34.9-150l17-29.5L69-150l-17,29.5L34.9-150z M17.3-179.5l17,29.5
				l-17,29.5L0.3-150L17.3-179.5z M34.4-210l-17,29.5L0.3-210l17-29.5L34.4-210z M34.6-209.5l17,29.5l-17,29.5l-17-29.5L34.6-209.5z
				 M52-239.5L69-210l-17,29.5L34.9-210L52-239.5z"/>
		</g>
	</g>
</pattern>
<g id="back_trees">
	<path fill="#A2B0B9" d="M370.5,50.9C468.9,52.5,471.7,220,471.7,220l-205.9,11C265.8,231,272.2,49.3,370.5,50.9z"/>
	<pattern  id="SVGID_2_" xlink:href="#SVGID_1_" patternTransform="matrix(1 0 0 -1 273.964 -13247.0098)">
	</pattern>
	<path opacity="0.5" fill="url(#SVGID_2_)" enable-background="new    " d="M370.5,50.9C468.9,52.5,471.7,220,471.7,220l-205.9,11
		C265.8,231,272.2,49.3,370.5,50.9z"/>

		<linearGradient id="SVGID_6_" gradientUnits="userSpaceOnUse" x1="388.4311" y1="338.5732" x2="379.744" y2="291.415" gradientTransform="matrix(1 0 0 -1 0 448)">
		<stop  offset="0" style="stop-color:#FFFFFF"/>
		<stop  offset="1" style="stop-color:#6191AD"/>
	</linearGradient>
	<path opacity="0.5" fill="url(#SVGID_6_)" enable-background="new    " d="M370.5,50.9C468.9,52.5,471.7,220,471.7,220l-205.9,11
		C265.8,231,272.2,49.3,370.5,50.9z"/>
	<pattern  id="SVGID_7_" xlink:href="#SVGID_3_" patternTransform="matrix(1.2501 0 0 -1.247 6163.1489 -19271.2949)">
	</pattern>
	<path fill="url(#SVGID_7_)" d="M370.5,50.9c36.4,0.6,59.7,23.9,74.6,53c-19.5,0.7-29.4-25.1-29.4-25.1s8.8,41-23.5,42.9
		s-35.4-53.5-35.4-53.5s-19,41.8-45.3,32.4c-4.4-1.6-7.3-4.4-9.3-8.1C317.7,68,339.6,50.4,370.5,50.9z"/>
	<path fill="#A2B0B9" d="M501.4,101.8c-74,1.2-76.1,127.1-76.1,127.1l154.8,8.3C580.2,237.2,575.4,100.6,501.4,101.8z"/>
	<pattern  id="SVGID_8_" xlink:href="#SVGID_4_" patternTransform="matrix(1 0 0 -1 273.964 -13247.0098)">
	</pattern>
	<path opacity="0.5" fill="url(#SVGID_8_)" enable-background="new    " d="M501.4,101.8c-74,1.2-76.1,127.1-76.1,127.1l154.8,8.3
		C580.2,237.2,575.4,100.6,501.4,101.8z"/>
	<pattern  id="SVGID_9_" xlink:href="#SVGID_5_" patternTransform="matrix(1.2501 0 0 -1.247 6163.1489 -19271.2949)">
	</pattern>
	<path fill="url(#SVGID_9_)" d="M501.4,101.8c-27.4,0.4-44.9,18-56.1,39.9c14.7,0.5,22.1-18.9,22.1-18.9s-6.6,30.9,17.7,32.3
		c24.3,1.4,26.6-40.2,26.6-40.2s14.3,31.4,34,24.3c3.3-1.2,5.5-3.3,7-6.1C541.1,114.7,524.7,101.4,501.4,101.8z"/>

		<linearGradient id="SVGID_10_" gradientUnits="userSpaceOnUse" x1="373.2281" y1="469.8252" x2="521.0153" y2="-521.9046" gradientTransform="matrix(1 0 0 -1 0 448)">
		<stop  offset="0" style="stop-color:#06844F"/>
		<stop  offset="1" style="stop-color:#003D16"/>
	</linearGradient>
	<path fill="url(#SVGID_10_)" d="M0,101.4c0,0,145.7-1.9,406.6,63.7C726.1,245.5,927,433.9,938.5,444.9c0.3,0.3,17.3,15.3,17.3,15.3
		l0,439.8L0,900.9V101.4z"/>
	<g>
		<path fill="#004827" d="M363.1,131.3c0,0,3.1,10.7,6.6,15.3c2.7,3.5,7.6,6.9,7.6,6.9s-0.6,0.4-3,0.5s-3.7-0.8-3.7-0.8
			s1.8,2.7,3.3,4.2s5.7,2,5.7,2s-2.1,1.8-4.1,2.3s-3.3,0.4-3.3,0.4s0.5,1.7,2.6,2.7c2,1,5.5,0.5,5.5,0.5s-0.4,2.7-3.3,4
			c-2.5,1.1-5.4,0.1-5.4,0.1s1,2.1,2.4,3.6c2.8,2.9,6.9,2.9,6.9,2.9s-1.1,2.3-4.3,2.7c-2.4,0.3-4.9-0.4-4.9-0.4s2.4,2.5,5,3.5
			c1.5,0.6,4.1,1.1,4.1,1.1s-2.8,4.2-8.6,3.4c-4.2-0.5-5.9-2.9-5.9-2.9s-1.2,3.1-6.2,3.7c-5,0.6-8.4-4-8.4-4s2.9,0,5.1-1.2
			c2.3-1.2,4.7-2.9,4.7-2.9s-2.9,1.1-6.2,0.3c-3.3-0.8-4.5-4.2-4.5-4.2s4.9,0.5,7.6-0.7c2.7-1.3,3.6-3.1,3.6-3.1s-1.2,0.7-4.3,0.3
			c-3.1-0.4-4.7-4.1-4.7-4.1s3.6-0.5,6-2c2.5-1.6,3.1-3.6,3.1-3.6s-1.5,0.5-4.4,0.3s-4-1.9-4-1.9s3-1.6,5.4-4
			c2.4-2.3,2.5-3.6,2.5-3.6s-0.7,0.7-3.2,0.9c-2.5,0.1-3.9-0.9-3.9-0.9s4.3-2.4,6.2-8.1C362.5,138.9,363.1,131.3,363.1,131.3z"/>
		<path fill="#003A27" d="M368.4,178.7c0.4,0.9,0.8,1.8,1.3,2.5c0.1,0.2,0.3,0.3,0.4,0.5c0.2,0.1,0.4,0.3,0.6,0.4
			c0.4,0.2,0.9,0.4,1.4,0.5c1,0.3,2,0.4,3.1,0.5c-1.1,0.2-2.2,0.2-3.3,0.1c-0.5-0.1-1.1-0.1-1.6-0.3c-0.3-0.1-0.5-0.2-0.8-0.3
			s-0.5-0.3-0.8-0.5c-0.4-0.3-0.7-0.7-1-1c-0.2,3.5-0.1,6.7-0.5,9.8c-1-0.1-2.1-0.1-3.1-0.1c0.3-2.8,0.6-6,0.8-9.5
			c-0.4,0.5-0.9,1-1.4,1.4c-1,0.8-2.2,1.2-3.3,1.5c-0.6,0.1-1.1,0.2-1.7,0.2s-1.1-0.1-1.6-0.2c1.1-0.2,2.1-0.5,3.1-1
			c1-0.4,1.9-1,2.6-1.7s1.3-1.5,1.7-2.4c0.2-0.5,0.4-0.9,0.6-1.4c0.1-0.2,0.2-0.5,0.3-0.7c0-0.1,0.1-0.2,0.1-0.3
			c0.1-1,0.1-1.9,0.1-2.9c-0.7,0.8-1.5,1.5-2.5,2c-0.2,0.1-0.3,0.1-0.5,0.2c-0.2,0.1-0.3,0.1-0.5,0.2c-0.3,0.1-0.6,0.2-0.9,0.3
			c-0.6,0.1-1.2,0.2-1.9,0.3c-1.2,0.1-2.5,0.1-3.7-0.1c0.6-0.1,1.2-0.1,1.8-0.2c0.6-0.1,1.2-0.2,1.8-0.4c0.6-0.1,1.2-0.3,1.7-0.5
			s1.1-0.4,1.5-0.8c0.8-0.7,1.5-1.7,2.1-2.7c0.4-0.6,0.8-1.3,1.2-2c0.1-1.7,0.1-3.2,0.1-4.8c-0.4,0.6-0.9,1.2-1.5,1.7
			c-1,0.8-2.1,1.2-3.2,1.5c-0.6,0.1-1.1,0.2-1.7,0.2s-1.1-0.1-1.7-0.2c1.1-0.2,2.1-0.5,3-1c0.9-0.4,1.8-1,2.4-1.7s1.1-1.5,1.5-2.4
			c0.2-0.5,0.3-0.9,0.5-1.4c0.1-0.2,0.1-0.5,0.2-0.7c0-0.2,0.1-0.5,0.1-0.7c0.1-0.8,0.2-1.6,0.3-2.4c0-0.4,0-0.8,0-1.2
			c-0.5,0.8-1,1.5-1.8,2.1c-0.2,0.2-0.5,0.3-0.8,0.5c-0.3,0.1-0.5,0.2-0.8,0.3c-0.5,0.2-1.1,0.3-1.6,0.4c-1.1,0.1-2.2,0.1-3.3,0
			c1.1-0.1,2.1-0.3,3.1-0.6c0.5-0.2,1-0.3,1.4-0.6c0.2-0.1,0.4-0.2,0.6-0.4c0.2-0.1,0.3-0.3,0.4-0.5c0.5-0.7,0.9-1.7,1.3-2.6
			c0.4-0.9,0.7-1.9,0.9-2.8c0.1-0.2,0.1-0.5,0.2-0.7c-0.1-1.6-0.2-3-0.3-4.2c-0.2,0.5-0.4,1.1-0.6,1.6c-0.2,0.4-0.4,0.8-0.8,1.1
			s-0.8,0.5-1.2,0.7c-0.8,0.3-1.7,0.3-2.6,0.2c0.8-0.1,1.7-0.3,2.3-0.7c0.2-0.1,0.3-0.2,0.5-0.3c0.1-0.1,0.3-0.3,0.4-0.4
			c0.2-0.3,0.3-0.6,0.4-1c0.2-0.7,0.3-1.5,0.5-2.3c0.1-0.8,0.2-1.6,0.3-2.4c0.1-1.3,0.2-2.6,0.3-3.9c0.5,1.3,0.9,2.7,1.4,4
			c0.3,0.8,0.6,1.6,0.9,2.4c0.3,0.8,0.7,1.6,1.2,2.3c0.2,0.4,0.5,0.7,0.8,1s0.6,0.6,1,0.8c0.7,0.5,1.5,0.9,2.4,1
			c-0.8,0.3-1.9,0.2-2.8-0.2c-0.5-0.2-0.9-0.5-1.3-0.8s-0.8-0.7-1.1-1.1c-0.2-0.2-0.3-0.4-0.5-0.6c0.2,0.8,0.3,1.7,0.5,2.6
			c0.1,0.4,0.3,0.8,0.4,1.3c0.1,0.2,0.2,0.5,0.2,0.7c0.1,0.2,0.2,0.5,0.3,0.7c0.2,0.5,0.4,0.9,0.7,1.4c0.5,0.9,1.1,1.7,1.8,2.4
			c0.7,0.6,1.6,1.2,2.5,1.6c1,0.4,2,0.7,3.1,0.8c-0.5,0.2-1.1,0.2-1.6,0.3c-0.6,0-1.1,0-1.7-0.1c-1.1-0.2-2.3-0.6-3.3-1.4
			c-0.6-0.4-1.1-0.9-1.5-1.4c0.1,1.2,0.3,2.5,0.4,3.8c0.2,0.5,0.5,0.9,0.7,1.4c0.5,0.9,1,1.8,1.6,2.5c0.2,0.2,0.3,0.4,0.5,0.5
			s0.4,0.3,0.6,0.4c0.5,0.2,0.9,0.4,1.4,0.5c1,0.3,2.1,0.4,3.1,0.5c-1.1,0.2-2.2,0.2-3.2,0.1c-0.5-0.1-1.1-0.1-1.6-0.3
			c-0.3-0.1-0.5-0.2-0.8-0.3s-0.6-0.3-0.8-0.5c-0.5-0.4-0.9-0.8-1.3-1.2c0.1,1.3,0.1,2.6,0.1,4c0,0.1,0.1,0.2,0.1,0.3
			s0.1,0.3,0.1,0.4c0.1,0.3,0.2,0.5,0.3,0.8c0.2,0.5,0.4,1,0.7,1.5c0.5,0.9,1.2,1.7,2,2.4c0.9,0.6,1.9,1.1,2.9,1.5
			c1.1,0.4,2.2,0.7,3.4,0.8c-0.6,0.2-1.2,0.3-1.9,0.3c-0.6,0-1.3,0-1.9,0c-1.3-0.1-2.5-0.5-3.6-1.1c-0.9-0.5-1.6-1.1-2.3-1.9
			c0,1.2-0.1,2.4-0.1,3.6C368.1,178,368.2,178.3,368.4,178.7z"/>
	</g>
	<g>
		<path fill="#004827" d="M302,313.5c0,0,4.6,15.7,9.8,22.5c4,5.2,11.1,10.2,11.1,10.2s-0.9,0.6-4.4,0.7s-5.4-1.1-5.4-1.1
			s2.6,4,4.9,6.2c2.3,2.3,8.3,3,8.3,3s-3,2.6-6,3.4s-4.9,0.6-4.9,0.6s0.8,2.5,3.8,4s8.1,0.7,8.1,0.7s-0.6,4-4.9,5.9
			c-3.7,1.6-7.9,0.2-7.9,0.2s1.4,3.1,3.5,5.3c4.1,4.3,10.1,4.2,10.1,4.2s-1.6,3.4-6.3,4c-3.6,0.4-7.2-0.5-7.2-0.5s3.6,3.7,7.3,5.1
			c2.3,0.9,6,1.6,6,1.6s-4.1,6.1-12.7,5c-6.2-0.8-8.7-4.3-8.7-4.3s-1.8,4.5-9.1,5.4c-7.4,0.8-12.3-5.9-12.3-5.9s4.2,0,7.6-1.8
			s6.9-4.3,6.9-4.3s-4.3,1.6-9.1,0.5c-4.8-1.1-6.6-6.2-6.6-6.2s7.2,0.8,11.1-1.1s5.3-4.6,5.3-4.6s-1.7,1.1-6.2,0.5
			c-4.5-0.5-6.8-6-6.8-6s5.3-0.8,8.7-3c3.6-2.3,4.5-5.3,4.5-5.3s-2.2,0.8-6.5,0.5s-5.9-2.7-5.9-2.7s4.4-2.4,8-5.8s3.7-5.2,3.7-5.2
			s-1,1.1-4.7,1.3c-3.7,0.2-5.7-1.4-5.7-1.4s6.3-3.6,9-11.9C301.1,324.6,302,313.5,302,313.5z"/>
		<path fill="#003A27" d="M309.8,383c0.6,1.3,1.2,2.6,2,3.7c0.2,0.3,0.4,0.5,0.6,0.7s0.6,0.4,0.9,0.5c0.6,0.3,1.3,0.6,2,0.8
			c1.4,0.4,2.9,0.6,4.5,0.8c-1.6,0.3-3.2,0.3-4.8,0.2c-0.8-0.1-1.6-0.2-2.4-0.4c-0.4-0.1-0.8-0.3-1.2-0.4c-0.4-0.2-0.8-0.4-1.1-0.7
			c-0.6-0.5-1.1-1-1.5-1.5c-0.4,5.1-0.2,9.9-0.7,14.3c-1.5-0.1-3.1-0.2-4.6-0.2c0.4-4.1,0.8-8.9,1.2-13.9c-0.6,0.7-1.3,1.4-2.1,2
			c-1.5,1.1-3.2,1.8-4.9,2.2c-0.8,0.2-1.7,0.3-2.5,0.3s-1.6-0.1-2.4-0.3c1.6-0.3,3.2-0.8,4.6-1.4c1.4-0.7,2.7-1.5,3.8-2.5
			c1-1,1.9-2.3,2.5-3.6c0.3-0.7,0.6-1.4,0.9-2.1c0.1-0.3,0.3-0.7,0.4-1.1c0-0.1,0.1-0.3,0.1-0.4c0.1-1.4,0.1-2.8,0.2-4.2
			c-1,1.1-2.2,2.2-3.7,2.9c-0.2,0.1-0.5,0.2-0.7,0.3c-0.2,0.1-0.5,0.2-0.7,0.2c-0.5,0.2-0.9,0.3-1.4,0.4c-0.9,0.2-1.8,0.3-2.7,0.4
			c-1.8,0.1-3.6,0.1-5.4-0.1c0.9-0.1,1.8-0.2,2.7-0.4c0.9-0.2,1.8-0.3,2.6-0.5c0.9-0.2,1.7-0.5,2.5-0.8s1.6-0.6,2.2-1.2
			c1.2-1.1,2.2-2.5,3.2-3.9c0.6-0.9,1.2-2,1.7-3c0.1-2.4,0.1-4.8,0.1-7c-0.6,0.9-1.3,1.7-2.2,2.4c-1.4,1.1-3,1.8-4.7,2.2
			c-0.8,0.2-1.7,0.3-2.5,0.3s-1.6-0.1-2.4-0.3c1.6-0.3,3.1-0.8,4.4-1.4c1.3-0.7,2.6-1.5,3.5-2.5s1.6-2.3,2.2-3.6
			c0.3-0.7,0.5-1.4,0.7-2.1c0.1-0.3,0.2-0.7,0.3-1.1c0.1-0.3,0.1-0.7,0.2-1c0.2-1.2,0.3-2.3,0.4-3.5c0-0.6,0-1.2-0.1-1.7
			c-0.7,1.1-1.5,2.2-2.6,3.1c-0.3,0.3-0.7,0.5-1.1,0.7s-0.8,0.3-1.2,0.5c-0.8,0.3-1.6,0.4-2.4,0.5c-1.6,0.2-3.2,0.2-4.8,0
			c1.6-0.2,3.1-0.5,4.5-0.9c0.7-0.2,1.4-0.5,2-0.8c0.3-0.2,0.6-0.3,0.9-0.6c0.2-0.2,0.4-0.5,0.6-0.7c0.8-1.1,1.4-2.4,1.9-3.8
			c0.5-1.3,1-2.8,1.4-4.1c0.1-0.4,0.2-0.7,0.3-1.1c-0.1-2.3-0.3-4.4-0.4-6.2c-0.2,0.8-0.5,1.6-0.9,2.3c-0.3,0.6-0.6,1.1-1.2,1.6
			s-1.1,0.7-1.8,1c-1.2,0.4-2.6,0.5-3.9,0.3c1.2-0.2,2.4-0.5,3.4-1.1c0.2-0.1,0.5-0.3,0.7-0.5s0.4-0.4,0.5-0.6
			c0.2-0.4,0.4-1,0.6-1.5c0.3-1.1,0.5-2.3,0.7-3.4c0.2-1.2,0.3-2.4,0.4-3.5c0.2-1.9,0.3-3.8,0.4-5.7c0.7,1.9,1.4,3.9,2,5.9
			c0.4,1.2,0.8,2.4,1.3,3.6s1,2.3,1.7,3.4c0.3,0.5,0.7,1,1.1,1.5s0.9,0.9,1.4,1.2c1,0.7,2.2,1.3,3.6,1.4c-1.2,0.4-2.7,0.2-4.1-0.3
			c-0.7-0.3-1.3-0.7-1.9-1.1c-0.6-0.5-1.2-1-1.6-1.6c-0.2-0.3-0.5-0.6-0.7-0.9c0.2,1.2,0.5,2.5,0.7,3.9c0.2,0.6,0.4,1.2,0.6,1.9
			c0.1,0.3,0.2,0.7,0.4,1c0.1,0.3,0.3,0.7,0.4,1c0.3,0.7,0.6,1.4,1,2c0.7,1.3,1.6,2.5,2.6,3.5s2.3,1.8,3.7,2.4
			c1.4,0.6,2.9,1,4.5,1.2c-0.8,0.3-1.6,0.4-2.4,0.4s-1.7,0-2.5-0.2c-1.7-0.3-3.3-0.9-4.8-2c-0.8-0.6-1.6-1.3-2.2-2.1
			c0.2,1.8,0.4,3.7,0.5,5.6c0.3,0.7,0.7,1.4,1.1,2c0.7,1.3,1.5,2.6,2.4,3.7c0.2,0.3,0.5,0.5,0.7,0.7c0.3,0.2,0.6,0.4,0.9,0.5
			c0.7,0.3,1.4,0.6,2.1,0.8c1.5,0.4,3,0.6,4.6,0.8c-1.6,0.3-3.2,0.3-4.8,0.2c-0.8-0.1-1.6-0.2-2.4-0.5c-0.4-0.1-0.8-0.3-1.2-0.4
			c-0.4-0.2-0.8-0.4-1.2-0.7c-0.7-0.5-1.3-1.1-1.9-1.8c0.1,1.9,0.1,3.8,0.1,5.8c0,0.1,0.1,0.3,0.1,0.4c0.1,0.2,0.1,0.4,0.2,0.6
			c0.1,0.4,0.3,0.8,0.4,1.1c0.3,0.7,0.6,1.5,1,2.1c0.8,1.4,1.8,2.5,3,3.5c1.3,0.9,2.7,1.7,4.3,2.2c1.6,0.6,3.3,1,5,1.2
			c-0.9,0.3-1.8,0.4-2.7,0.5c-0.9,0.1-1.8,0.1-2.8,0c-1.8-0.2-3.7-0.7-5.4-1.6c-1.3-0.7-2.4-1.7-3.3-2.8c-0.1,1.8-0.1,3.6-0.2,5.3
			C309.3,382,309.6,382.5,309.8,383z"/>
	</g>
	<g>
		<path fill="#004827" d="M303.3,98.5c0,0,4.6,15.9,9.9,22.7c4.1,5.3,11.2,10.3,11.2,10.3s-0.9,0.6-4.5,0.7
			c-3.6,0.1-5.5-1.1-5.5-1.1s2.7,4,5,6.3s8.5,3,8.5,3s-3.1,2.7-6.1,3.5s-5,0.6-5,0.6s0.8,2.6,3.8,4.1s8.2,0.7,8.2,0.7s-0.6,4-5,6
			c-3.7,1.7-8,0.2-8,0.2s1.5,3.2,3.5,5.3c4.2,4.3,10.2,4.3,10.2,4.3s-1.6,3.5-6.4,4c-3.6,0.4-7.3-0.6-7.3-0.6s3.6,3.7,7.4,5.2
			c2.3,0.9,6.1,1.7,6.1,1.7s-4.2,6.2-12.8,5.1c-6.2-0.8-8.8-4.3-8.8-4.3s-1.8,4.6-9.2,5.4c-7.5,0.8-12.5-5.9-12.5-5.9s4.2,0,7.6-1.8
			s7-4.4,7-4.4s-4.3,1.6-9.2,0.5c-4.9-1.1-6.7-6.3-6.7-6.3s7.3,0.8,11.3-1.1c4-1.9,5.4-4.7,5.4-4.7s-1.8,1.1-6.3,0.5
			c-4.6-0.6-6.9-6-6.9-6s5.4-0.8,8.8-3c3.7-2.3,4.6-5.4,4.6-5.4s-2.2,0.8-6.6,0.5c-4.3-0.3-6-2.8-6-2.8s4.4-2.4,8.1-5.9
			c3.6-3.5,3.8-5.3,3.8-5.3s-1,1.1-4.8,1.3s-5.8-1.4-5.8-1.4s6.4-3.6,9.2-12.1C302.4,109.8,303.3,98.5,303.3,98.5z"/>
		<path fill="#003A27" d="M311.2,168.9c0.6,1.3,1.2,2.7,2,3.8c0.2,0.3,0.4,0.5,0.6,0.7s0.6,0.4,0.9,0.5c0.6,0.3,1.3,0.6,2.1,0.8
			c1.4,0.4,3,0.6,4.6,0.8c-1.6,0.3-3.2,0.3-4.8,0.2c-0.8-0.1-1.6-0.2-2.4-0.4c-0.4-0.1-0.8-0.3-1.2-0.4c-0.4-0.2-0.8-0.4-1.1-0.7
			c-0.6-0.5-1.1-1-1.5-1.5c-0.4,5.2-0.2,10-0.7,14.5c-1.6-0.1-3.1-0.2-4.6-0.2c0.4-4.1,0.8-9,1.2-14.1c-0.6,0.7-1.3,1.4-2.1,2
			c-1.6,1.1-3.3,1.8-5,2.2c-0.9,0.2-1.7,0.3-2.5,0.3s-1.6-0.1-2.4-0.3c1.6-0.3,3.2-0.8,4.6-1.4c1.4-0.7,2.8-1.5,3.8-2.5
			s1.9-2.3,2.6-3.6c0.4-0.7,0.6-1.4,0.9-2.1c0.1-0.4,0.3-0.7,0.4-1.1c0-0.1,0.1-0.3,0.1-0.4c0.1-1.4,0.1-2.9,0.2-4.3
			c-1.1,1.1-2.3,2.2-3.8,2.9c-0.2,0.1-0.5,0.2-0.7,0.3s-0.5,0.2-0.7,0.2c-0.5,0.2-0.9,0.3-1.4,0.4c-0.9,0.2-1.9,0.3-2.8,0.4
			c-1.8,0.1-3.7,0.1-5.5-0.1c0.9-0.1,1.8-0.2,2.7-0.4c0.9-0.2,1.8-0.3,2.6-0.5c0.9-0.2,1.7-0.5,2.6-0.8c0.8-0.3,1.7-0.7,2.2-1.2
			c1.2-1.1,2.3-2.5,3.2-4c0.6-1,1.2-2,1.7-3c0.1-2.5,0.1-4.8,0.1-7.1c-0.6,0.9-1.3,1.7-2.2,2.5c-1.4,1.1-3.1,1.8-4.7,2.2
			c-0.8,0.2-1.7,0.3-2.5,0.3s-1.7-0.1-2.5-0.3c1.6-0.3,3.1-0.8,4.5-1.4c1.4-0.7,2.6-1.5,3.6-2.5c0.9-1,1.6-2.3,2.2-3.6
			c0.3-0.7,0.5-1.4,0.7-2.1c0.1-0.4,0.2-0.7,0.3-1.1c0.1-0.3,0.1-0.7,0.2-1c0.2-1.2,0.3-2.4,0.4-3.6c0-0.6,0-1.2-0.1-1.7
			c-0.7,1.1-1.5,2.2-2.6,3.1c-0.3,0.3-0.7,0.5-1.1,0.7s-0.8,0.4-1.2,0.5c-0.8,0.3-1.6,0.4-2.4,0.6c-1.6,0.2-3.2,0.2-4.8,0
			c1.6-0.2,3.1-0.5,4.6-1c0.7-0.2,1.4-0.5,2.1-0.8c0.3-0.2,0.7-0.3,0.9-0.6c0.2-0.2,0.4-0.5,0.6-0.7c0.8-1.1,1.4-2.5,2-3.8
			c0.5-1.4,1-2.8,1.4-4.2c0.1-0.4,0.2-0.7,0.3-1.1c-0.1-2.3-0.3-4.4-0.4-6.2c-0.2,0.8-0.5,1.6-0.9,2.3c-0.3,0.6-0.7,1.1-1.2,1.6
			c-0.6,0.5-1.1,0.8-1.8,1c-1.3,0.4-2.6,0.5-3.9,0.3c1.3-0.2,2.5-0.5,3.4-1.1c0.2-0.1,0.5-0.3,0.7-0.5s0.4-0.4,0.5-0.6
			c0.3-0.4,0.4-1,0.6-1.5c0.3-1.1,0.5-2.3,0.7-3.5s0.3-2.4,0.4-3.6c0.2-1.9,0.3-3.9,0.4-5.8c0.7,2,1.4,3.9,2,5.9
			c0.4,1.2,0.8,2.4,1.3,3.6s1.1,2.4,1.7,3.4c0.3,0.5,0.7,1,1.1,1.5s0.9,0.9,1.4,1.3c1,0.8,2.3,1.3,3.6,1.4c-1.2,0.4-2.8,0.2-4.1-0.3
			c-0.7-0.3-1.3-0.7-1.9-1.2s-1.2-1-1.6-1.6c-0.2-0.3-0.5-0.6-0.7-0.9c0.2,1.2,0.5,2.5,0.7,3.9c0.2,0.6,0.4,1.3,0.6,1.9
			c0.1,0.3,0.2,0.7,0.4,1c0.1,0.4,0.3,0.7,0.4,1.1c0.3,0.7,0.6,1.4,1,2c0.7,1.3,1.6,2.5,2.6,3.5s2.4,1.8,3.8,2.4
			c1.4,0.6,3,1,4.6,1.3c-0.8,0.3-1.6,0.4-2.4,0.4s-1.7,0-2.5-0.2c-1.7-0.3-3.4-0.9-4.9-2c-0.9-0.6-1.6-1.3-2.3-2.1
			c0.2,1.8,0.4,3.7,0.5,5.7c0.3,0.7,0.7,1.4,1.1,2c0.7,1.3,1.5,2.7,2.4,3.8c0.2,0.3,0.5,0.5,0.7,0.7c0.3,0.2,0.6,0.4,0.9,0.5
			c0.7,0.3,1.4,0.6,2.1,0.8c1.5,0.4,3.1,0.7,4.7,0.8c-1.6,0.3-3.2,0.3-4.8,0.2c-0.8-0.1-1.6-0.2-2.4-0.5c-0.4-0.1-0.8-0.3-1.2-0.4
			c-0.4-0.2-0.8-0.4-1.2-0.7c-0.7-0.5-1.4-1.1-1.9-1.8c0.1,1.9,0.1,3.9,0.1,5.9c0,0.1,0.1,0.3,0.1,0.5c0.1,0.2,0.1,0.4,0.2,0.6
			c0.1,0.4,0.3,0.8,0.4,1.1c0.3,0.7,0.7,1.5,1.1,2.2c0.8,1.4,1.8,2.6,3,3.5c1.3,0.9,2.8,1.7,4.4,2.2c1.6,0.6,3.3,1,5.1,1.2
			c-0.9,0.3-1.8,0.4-2.8,0.5c-0.9,0.1-1.9,0.1-2.8,0c-1.9-0.2-3.7-0.7-5.4-1.6c-1.3-0.7-2.4-1.7-3.4-2.8c-0.1,1.9-0.1,3.6-0.2,5.4
			C310.8,167.9,311,168.4,311.2,168.9z"/>
	</g>
	<g>
		<path fill="#004827" d="M524.3,146.8c0,0,3.5,12,7.4,17.1c3,4,8.4,7.7,8.4,7.7s-0.6,0.4-3.3,0.5s-4.1-0.9-4.1-0.9s2,3,3.7,4.7
			s6.3,2.3,6.3,2.3s-2.3,2-4.6,2.6s-3.7,0.5-3.7,0.5s0.6,1.9,2.9,3.1c2.3,1.1,6.2,0.5,6.2,0.5s-0.4,3-3.7,4.5c-2.8,1.2-6,0.1-6,0.1
			s1.1,2.4,2.7,4c3.1,3.2,7.7,3.2,7.7,3.2s-1.2,2.6-4.8,3c-2.7,0.3-5.5-0.4-5.5-0.4s2.7,2.8,5.6,3.9c1.7,0.6,4.6,1.2,4.6,1.2
			s-3.1,4.7-9.6,3.8c-4.7-0.6-6.6-3.2-6.6-3.2s-1.3,3.5-6.9,4.1c-5.6,0.6-9.4-4.5-9.4-4.5s3.2,0,5.7-1.4c2.6-1.3,5.2-3.3,5.2-3.3
			s-3.2,1.2-6.9,0.4c-3.7-0.9-5-4.7-5-4.7s5.5,0.6,8.5-0.8c3-1.4,4-3.5,4-3.5s-1.3,0.8-4.8,0.4c-3.4-0.4-5.2-4.5-5.2-4.5
			s4-0.6,6.6-2.3c2.8-1.8,3.5-4.1,3.5-4.1s-1.7,0.6-4.9,0.4c-3.3-0.2-4.5-2.1-4.5-2.1s3.3-1.8,6.1-4.4c2.7-2.6,2.8-4,2.8-4
			s-0.8,0.8-3.6,1c-2.8,0.1-4.3-1-4.3-1s4.8-2.7,6.9-9.1C523.6,155.2,524.3,146.8,524.3,146.8z"/>
		<path fill="#003A27" d="M530.2,199.6c0.4,1,0.9,2,1.5,2.8c0.2,0.2,0.3,0.4,0.5,0.5c0.2,0.2,0.4,0.3,0.7,0.4c0.5,0.2,1,0.4,1.5,0.6
			c1.1,0.3,2.2,0.5,3.4,0.6c-1.2,0.2-2.4,0.3-3.6,0.1c-0.6-0.1-1.2-0.2-1.8-0.3c-0.3-0.1-0.6-0.2-0.9-0.3c-0.3-0.1-0.6-0.3-0.8-0.5
			c-0.4-0.4-0.8-0.7-1.2-1.2c-0.3,3.9-0.1,7.5-0.5,10.9c-1.2-0.1-2.3-0.1-3.5-0.1c0.3-3.1,0.6-6.7,0.9-10.6c-0.5,0.6-1,1.1-1.6,1.5
			c-1.2,0.9-2.4,1.4-3.7,1.6c-0.6,0.1-1.3,0.2-1.9,0.2c-0.6,0-1.2-0.1-1.8-0.2c1.2-0.2,2.4-0.6,3.5-1.1s2.1-1.2,2.9-1.9
			c0.8-0.8,1.4-1.7,1.9-2.7c0.3-0.5,0.5-1,0.7-1.6c0.1-0.3,0.2-0.5,0.3-0.8c0-0.1,0.1-0.2,0.1-0.3c0.1-1.1,0.1-2.1,0.2-3.2
			c-0.8,0.9-1.7,1.6-2.8,2.2c-0.2,0.1-0.4,0.2-0.6,0.2c-0.2,0.1-0.4,0.1-0.5,0.2c-0.4,0.1-0.7,0.2-1.1,0.3c-0.7,0.2-1.4,0.3-2.1,0.3
			c-1.4,0.1-2.8,0.1-4.1-0.1c0.7-0.1,1.4-0.2,2-0.3c0.7-0.1,1.3-0.2,2-0.4s1.3-0.4,1.9-0.6c0.6-0.2,1.2-0.5,1.7-0.9
			c0.9-0.8,1.7-1.9,2.4-3c0.5-0.7,0.9-1.5,1.3-2.3c0.1-1.8,0.1-3.6,0.1-5.3c-0.5,0.7-1,1.3-1.7,1.8c-1.1,0.9-2.3,1.4-3.6,1.7
			c-0.6,0.1-1.3,0.2-1.9,0.2c-0.6,0-1.2-0.1-1.8-0.2c1.2-0.2,2.3-0.6,3.4-1.1c1-0.5,2-1.2,2.7-1.9c0.7-0.8,1.2-1.7,1.6-2.7
			c0.2-0.5,0.4-1,0.5-1.6c0.1-0.3,0.1-0.5,0.2-0.8c0.1-0.3,0.1-0.6,0.1-0.8c0.1-0.9,0.2-1.8,0.3-2.7c0-0.4,0-0.9,0-1.3
			c-0.5,0.9-1.1,1.7-2,2.3c-0.3,0.2-0.5,0.4-0.9,0.5c-0.3,0.1-0.6,0.3-0.9,0.4c-0.6,0.2-1.2,0.3-1.8,0.4c-1.2,0.1-2.4,0.2-3.6,0
			c1.2-0.1,2.3-0.4,3.4-0.7c0.5-0.2,1.1-0.4,1.6-0.6c0.2-0.1,0.5-0.3,0.7-0.4c0.2-0.2,0.3-0.4,0.5-0.6c0.6-0.8,1.1-1.9,1.5-2.9
			s0.8-2.1,1.1-3.1c0.1-0.3,0.2-0.5,0.2-0.8c-0.1-1.8-0.2-3.3-0.3-4.7c-0.2,0.6-0.4,1.2-0.7,1.8c-0.2,0.4-0.5,0.9-0.9,1.2
			c-0.4,0.4-0.9,0.6-1.3,0.7c-0.9,0.3-2,0.4-2.9,0.2c0.9-0.1,1.8-0.4,2.6-0.8c0.2-0.1,0.4-0.2,0.5-0.4c0.2-0.1,0.3-0.3,0.4-0.4
			c0.2-0.3,0.3-0.7,0.4-1.1c0.2-0.8,0.4-1.7,0.5-2.6c0.1-0.9,0.2-1.8,0.3-2.7c0.1-1.5,0.2-2.9,0.3-4.4c0.5,1.5,1,3,1.5,4.5
			c0.3,0.9,0.6,1.8,1,2.7s0.8,1.8,1.3,2.6c0.3,0.4,0.5,0.8,0.8,1.1s0.7,0.7,1.1,0.9c0.8,0.6,1.7,1,2.7,1.1c-0.9,0.3-2.1,0.2-3.1-0.3
			c-0.5-0.2-1-0.5-1.5-0.9s-0.9-0.8-1.2-1.2c-0.2-0.2-0.4-0.5-0.5-0.7c0.2,0.9,0.4,1.9,0.5,2.9c0.2,0.5,0.3,0.9,0.4,1.4
			c0.1,0.2,0.2,0.5,0.3,0.8s0.2,0.5,0.3,0.8c0.2,0.5,0.5,1,0.8,1.5c0.5,1,1.2,1.9,2,2.6c0.8,0.7,1.8,1.3,2.8,1.8
			c1.1,0.5,2.2,0.8,3.4,0.9c-0.6,0.2-1.2,0.3-1.8,0.3s-1.3,0-1.9-0.1c-1.3-0.2-2.5-0.7-3.7-1.5c-0.6-0.5-1.2-1-1.7-1.6
			c0.1,1.4,0.3,2.8,0.4,4.3c0.3,0.5,0.5,1,0.8,1.5c0.6,1,1.1,2,1.8,2.8c0.2,0.2,0.4,0.4,0.5,0.5c0.2,0.2,0.5,0.3,0.7,0.4
			c0.5,0.2,1.1,0.4,1.6,0.6c1.1,0.3,2.3,0.5,3.5,0.6c-1.2,0.2-2.4,0.3-3.6,0.2c-0.6-0.1-1.2-0.2-1.8-0.3c-0.3-0.1-0.6-0.2-0.9-0.3
			c-0.3-0.1-0.6-0.3-0.9-0.5c-0.5-0.4-1-0.9-1.5-1.3c0.1,1.4,0.1,2.9,0.1,4.4c0,0.1,0.1,0.2,0.1,0.3s0.1,0.3,0.1,0.4
			c0.1,0.3,0.2,0.6,0.3,0.9c0.2,0.6,0.5,1.1,0.8,1.6c0.6,1,1.3,1.9,2.3,2.6c1,0.7,2.1,1.3,3.3,1.7s2.5,0.7,3.8,0.9
			c-0.7,0.2-1.4,0.3-2.1,0.4c-0.7,0.1-1.4,0-2.1,0c-1.4-0.1-2.8-0.5-4.1-1.2c-1-0.5-1.8-1.3-2.5-2.1c0,1.4-0.1,2.7-0.2,4
			C529.9,198.8,530.1,199.2,530.2,199.6z"/>
	</g>
	<g>
		<path fill="#004827" d="M498.9,188.4c0,0,3.4,11.5,7.1,16.4c2.9,3.8,8.1,7.4,8.1,7.4s-0.6,0.4-3.2,0.5c-2.6,0.1-4-0.8-4-0.8
			s1.9,2.9,3.6,4.6c1.7,1.6,6.1,2.2,6.1,2.2s-2.2,1.9-4.4,2.5s-3.6,0.4-3.6,0.4s0.6,1.8,2.8,2.9c2.2,1.1,5.9,0.5,5.9,0.5
			s-0.4,2.9-3.6,4.3c-2.7,1.2-5.8,0.1-5.8,0.1s1,2.3,2.6,3.8c3,3.1,7.4,3.1,7.4,3.1s-1.2,2.5-4.6,2.9c-2.6,0.3-5.3-0.4-5.3-0.4
			s2.6,2.7,5.4,3.7c1.7,0.6,4.4,1.2,4.4,1.2s-3,4.5-9.3,3.7c-4.5-0.6-6.4-3.1-6.4-3.1s-1.3,3.3-6.7,3.9c-5.4,0.6-9-4.3-9-4.3
			s3.1,0,5.5-1.3c2.5-1.3,5-3.2,5-3.2s-3.1,1.2-6.6,0.4s-4.8-4.5-4.8-4.5s5.3,0.6,8.2-0.8c2.9-1.4,3.9-3.4,3.9-3.4s-1.3,0.8-4.6,0.4
			c-3.3-0.4-5-4.4-5-4.4s3.9-0.6,6.4-2.2c2.6-1.7,3.3-3.9,3.3-3.9s-1.6,0.6-4.7,0.4c-3.1-0.2-4.3-2-4.3-2s3.2-1.7,5.8-4.2
			c2.6-2.5,2.7-3.8,2.7-3.8s-0.7,0.8-3.5,0.9c-2.7,0.1-4.2-1-4.2-1s4.6-2.6,6.6-8.7C498.3,196.6,498.9,188.4,498.9,188.4z"/>
		<path fill="#003A27" d="M504.6,239.3c0.4,1,0.9,1.9,1.4,2.7c0.1,0.2,0.3,0.4,0.5,0.5c0.2,0.2,0.4,0.3,0.6,0.4
			c0.5,0.2,1,0.4,1.5,0.6c1,0.3,2.2,0.5,3.3,0.6c-1.2,0.2-2.3,0.2-3.5,0.1c-0.6-0.1-1.2-0.2-1.7-0.3c-0.3-0.1-0.5-0.2-0.8-0.3
			s-0.6-0.3-0.8-0.5c-0.4-0.3-0.8-0.7-1.1-1.1c-0.3,3.7-0.1,7.2-0.5,10.5c-1.1-0.1-2.2-0.1-3.4-0.1c0.3-3,0.6-6.5,0.9-10.2
			c-0.4,0.5-1,1-1.5,1.5c-1.1,0.8-2.4,1.3-3.6,1.6c-0.6,0.1-1.2,0.2-1.8,0.2c-0.6,0-1.2-0.1-1.7-0.2c1.2-0.2,2.3-0.6,3.3-1
			c1-0.5,2-1.1,2.8-1.8s1.4-1.6,1.9-2.6c0.3-0.5,0.5-1,0.7-1.5c0.1-0.3,0.2-0.5,0.3-0.8c0-0.1,0.1-0.2,0.1-0.3
			c0.1-1,0.1-2.1,0.2-3.1c-0.8,0.8-1.6,1.6-2.7,2.1c-0.2,0.1-0.3,0.2-0.5,0.2c-0.2,0.1-0.3,0.1-0.5,0.2c-0.3,0.1-0.7,0.2-1,0.3
			c-0.7,0.2-1.3,0.2-2,0.3c-1.3,0.1-2.7,0.1-3.9-0.1c0.7-0.1,1.3-0.2,2-0.3c0.6-0.1,1.3-0.2,1.9-0.4s1.3-0.3,1.9-0.6
			c0.6-0.2,1.2-0.5,1.6-0.9c0.9-0.8,1.6-1.8,2.3-2.9c0.4-0.7,0.9-1.4,1.3-2.2c0.1-1.8,0.1-3.5,0.1-5.1c-0.4,0.7-1,1.3-1.6,1.8
			c-1,0.8-2.2,1.3-3.4,1.6c-0.6,0.1-1.2,0.2-1.8,0.2c-0.6,0-1.2-0.1-1.8-0.2c1.2-0.2,2.2-0.6,3.2-1c1-0.5,1.9-1.1,2.6-1.8
			s1.2-1.6,1.6-2.6c0.2-0.5,0.4-1,0.5-1.5c0.1-0.3,0.1-0.5,0.2-0.8c0.1-0.2,0.1-0.5,0.1-0.7c0.1-0.9,0.2-1.7,0.3-2.6
			c0-0.4,0-0.8,0-1.3c-0.5,0.8-1.1,1.6-1.9,2.3c-0.2,0.2-0.5,0.4-0.8,0.5s-0.6,0.3-0.9,0.3c-0.6,0.2-1.2,0.3-1.7,0.4
			c-1.2,0.1-2.3,0.1-3.5,0c1.1-0.1,2.3-0.3,3.3-0.7c0.5-0.2,1-0.4,1.5-0.6c0.2-0.1,0.5-0.2,0.6-0.4c0.2-0.1,0.3-0.3,0.5-0.5
			c0.6-0.8,1-1.8,1.4-2.8s0.7-2,1-3c0.1-0.3,0.1-0.5,0.2-0.8c-0.1-1.7-0.2-3.2-0.3-4.5c-0.2,0.6-0.4,1.1-0.7,1.7
			c-0.2,0.4-0.5,0.8-0.9,1.2c-0.4,0.3-0.8,0.5-1.3,0.7c-0.9,0.3-1.9,0.3-2.8,0.2c0.9-0.1,1.8-0.4,2.5-0.8c0.2-0.1,0.3-0.2,0.5-0.4
			c0.1-0.1,0.3-0.3,0.4-0.4c0.2-0.3,0.3-0.7,0.4-1.1c0.2-0.8,0.4-1.7,0.5-2.5c0.1-0.9,0.2-1.7,0.3-2.6c0.1-1.4,0.2-2.8,0.3-4.2
			c0.5,1.4,1,2.9,1.5,4.3c0.3,0.8,0.6,1.8,1,2.6c0.4,0.9,0.8,1.7,1.2,2.5c0.2,0.4,0.5,0.7,0.8,1.1c0.3,0.3,0.6,0.6,1,0.9
			c0.7,0.5,1.6,0.9,2.6,1c-0.9,0.3-2,0.2-3-0.2c-0.5-0.2-1-0.5-1.4-0.8s-0.8-0.8-1.2-1.2c-0.2-0.2-0.3-0.4-0.5-0.7
			c0.2,0.9,0.3,1.8,0.5,2.8c0.1,0.5,0.3,0.9,0.4,1.4c0.1,0.2,0.2,0.5,0.3,0.7c0.1,0.3,0.2,0.5,0.3,0.8c0.2,0.5,0.5,1,0.7,1.5
			c0.5,1,1.1,1.8,1.9,2.5s1.7,1.3,2.7,1.7s2.1,0.8,3.3,0.9c-0.6,0.2-1.2,0.3-1.8,0.3c-0.6,0-1.2,0-1.8-0.1c-1.2-0.2-2.4-0.7-3.5-1.5
			c-0.6-0.4-1.2-1-1.6-1.5c0.1,1.3,0.3,2.7,0.4,4.1c0.2,0.5,0.5,1,0.8,1.5c0.5,1,1.1,1.9,1.8,2.7c0.2,0.2,0.3,0.4,0.5,0.5
			c0.2,0.2,0.4,0.3,0.7,0.4c0.5,0.2,1,0.4,1.6,0.6c1.1,0.3,2.2,0.5,3.4,0.6c-1.1,0.2-2.3,0.2-3.5,0.1c-0.6-0.1-1.2-0.2-1.8-0.3
			c-0.3-0.1-0.6-0.2-0.9-0.3s-0.6-0.3-0.9-0.5c-0.5-0.4-1-0.8-1.4-1.3c0.1,1.4,0.1,2.8,0.1,4.3c0,0.1,0.1,0.2,0.1,0.3
			s0.1,0.3,0.1,0.4c0.1,0.3,0.2,0.6,0.3,0.8c0.2,0.5,0.5,1.1,0.8,1.6c0.6,1,1.3,1.9,2.2,2.5c0.9,0.7,2,1.2,3.2,1.6
			c1.2,0.4,2.4,0.7,3.7,0.9c-0.7,0.2-1.3,0.3-2,0.3c-0.7,0.1-1.4,0-2,0c-1.4-0.1-2.7-0.5-3.9-1.1c-0.9-0.5-1.8-1.2-2.4-2
			c0,1.3-0.1,2.6-0.2,3.9C504.3,238.5,504.5,238.9,504.6,239.3z"/>
	</g>
	<path fill="#0A7748" d="M526.3,244.2c-1.6,1.6-3.3,3.3-4.9,4.9c1.8-4.7,3.3-9.4,4.4-14c-0.8,1.3-1.7,2.7-2.6,4
		c0.6-5.9,0.6-11.7,0.2-17.4c2.2,4,4.1,8.1,5.8,12.2c-1-0.6-2-1.2-3.1-1.8c2.5,4.3,4.8,8.6,6.8,13c-1.6-1.7-3.3-3.5-5.1-5.2
		c1.8,5.1,3.3,10.3,4.4,15.4c-1.2-0.9-2.4-1.8-3.7-2.7c0.1,2.6,0.1,5.2-0.1,7.7c-0.8,0-1.7,0-2.5-0.1c0.3-2.8,0.5-5.7,0.6-8.5
		c-1.4,1.8-2.8,3.7-4.3,5.5C523.9,252.9,525.2,248.5,526.3,244.2z"/>
	<path fill="#0A7748" d="M372.6,239.1c-2.1,2.1-4.2,4.3-6.4,6.4c2.3-6.1,4.2-12.2,5.8-18.2c-1.1,1.7-2.2,3.5-3.4,5.2
		c0.7-7.6,0.8-15.2,0.3-22.6c2.8,5.2,5.3,10.5,7.5,15.8c-1.3-0.8-2.6-1.6-4-2.3c3.3,5.6,6.2,11.2,8.8,16.8c-2.1-2.3-4.3-4.5-6.6-6.8
		c2.4,6.6,4.3,13.3,5.7,20c-1.6-1.2-3.2-2.3-4.8-3.5c0.1,3.4,0.1,6.7-0.1,10.1c-1.1,0-2.1-0.1-3.2-0.1c0.4-3.7,0.7-7.4,0.8-11.1
		c-1.8,2.4-3.7,4.8-5.6,7.2C369.4,250.3,371.2,244.7,372.6,239.1z"/>
	<path fill="#0FA164" d="M559.2,225.6c-2.2,2.2-4.4,4.4-6.7,6.6c2.4-6.3,4.4-12.6,6-18.9c-1.1,1.8-2.3,3.6-3.5,5.4
		c0.8-7.9,0.8-15.8,0.3-23.5c2.9,5.4,5.5,10.9,7.8,16.4c-1.4-0.8-2.7-1.6-4.1-2.4c3.4,5.8,6.5,11.6,9.1,17.4c-2.2-2.3-4.5-4.7-6.8-7
		c2.5,6.9,4.4,13.8,5.9,20.7c-1.6-1.2-3.3-2.4-4.9-3.6c0.1,3.5,0.1,7-0.1,10.4c-1.1,0-2.2-0.1-3.3-0.1c0.4-3.8,0.7-7.6,0.8-11.5
		c-1.9,2.5-3.8,5-5.8,7.4C555.9,237.2,557.8,231.4,559.2,225.6z"/>
	<path fill="#0FA164" d="M437,194.8c-2.2,2.2-4.4,4.4-6.7,6.6c2.4-6.3,4.4-12.6,6-18.9c-1.1,1.8-2.3,3.6-3.5,5.4
		c0.8-7.9,0.8-15.8,0.3-23.5c2.9,5.4,5.5,10.9,7.8,16.4c-1.4-0.8-2.7-1.6-4.1-2.4c3.4,5.8,6.5,11.6,9.1,17.4c-2.2-2.3-4.5-4.7-6.8-7
		c2.5,6.9,4.4,13.8,5.9,20.7c-1.6-1.2-3.3-2.4-4.9-3.6c0.1,3.5,0.1,7-0.1,10.4c-1.1,0-2.2-0.1-3.3-0.1c0.4-3.8,0.7-7.6,0.8-11.5
		c-1.9,2.5-3.8,5-5.8,7.4C433.8,206.4,435.6,200.6,437,194.8z"/>
	<path fill="#0FA164" d="M454.7,211c-1.7,1.7-3.4,3.4-5.1,5.1c1.9-4.9,3.4-9.7,4.6-14.6c-0.9,1.4-1.8,2.8-2.7,4.1
		c0.6-6.1,0.7-12.2,0.2-18.1c2.3,4.2,4.3,8.4,6,12.7c-1.1-0.6-2.1-1.3-3.2-1.9c2.6,4.5,5,9,7,13.5c-1.7-1.8-3.5-3.6-5.3-5.4
		c1.9,5.3,3.4,10.7,4.5,16c-1.3-0.9-2.5-1.9-3.8-2.8c0.1,2.7,0.1,5.4-0.1,8.1c-0.9,0-1.7-0.1-2.6-0.1c0.3-3,0.6-5.9,0.7-8.9
		c-1.5,1.9-2.9,3.8-4.5,5.8C452.1,220,453.5,215.5,454.7,211z"/>
	<path fill="#0FA164" d="M338.4,187.2c-1.7,1.7-3.4,3.4-5.1,5.1c1.9-4.9,3.4-9.7,4.6-14.6c-0.9,1.4-1.8,2.8-2.7,4.1
		c0.6-6.1,0.7-12.2,0.2-18.1c2.3,4.2,4.3,8.4,6,12.7c-1.1-0.6-2.1-1.3-3.2-1.9c2.6,4.5,5,9,7,13.5c-1.7-1.8-3.5-3.6-5.3-5.4
		c1.9,5.3,3.4,10.7,4.5,16c-1.3-0.9-2.5-1.9-3.8-2.8c0.1,2.7,0.1,5.4-0.1,8.1c-0.9,0-1.7-0.1-2.6-0.1c0.3-3,0.6-5.9,0.7-8.9
		c-1.5,1.9-2.9,3.8-4.5,5.8C335.9,196.1,337.3,191.6,338.4,187.2z"/>
	<g>
		<path fill="#004827" d="M421,237.2c0,0,5,18.5,10.7,26.3c4.4,6.1,12.2,11.9,12.2,11.9s-0.9,0.7-4.8,0.8c-3.9,0.1-6-1.3-6-1.3
			s2.9,4.7,5.4,7.3c2.5,2.6,9.2,3.5,9.2,3.5s-3.3,3.1-6.6,4c-3.3,0.9-5.4,0.7-5.4,0.7s0.9,3,4.2,4.7c3.3,1.8,8.9,0.8,8.9,0.8
			s-0.6,4.6-5.4,6.9c-4.1,1.9-8.7,0.2-8.7,0.2s1.6,3.7,3.8,6.2c4.5,5,11.1,4.9,11.1,4.9s-1.8,4-7,4.7c-3.9,0.5-7.9-0.6-7.9-0.6
			s3.9,4.3,8.1,6c2.5,1,6.6,1.9,6.6,1.9s-4.5,7.2-13.9,5.9c-6.8-0.9-9.5-5-9.5-5s-1.9,5.3-10,6.3s-13.6-6.9-13.6-6.9s4.6,0,8.3-2.1
			c3.7-2.1,7.6-5.1,7.6-5.1s-4.7,1.9-10,0.6s-7.3-7.3-7.3-7.3s7.9,0.9,12.2-1.3c4.3-2.2,5.8-5.4,5.8-5.4s-1.9,1.2-6.9,0.6
			c-4.9-0.6-7.5-7-7.5-7s5.8-0.9,9.6-3.5c4-2.7,5-6.3,5-6.3s-2.4,0.9-7.1,0.6c-4.7-0.4-6.5-3.2-6.5-3.2s4.8-2.8,8.8-6.8
			s4.1-6.1,4.1-6.1s-1.1,1.3-5.2,1.5s-6.2-1.6-6.2-1.6s7-4.2,9.9-14C420,250.3,421,237.2,421,237.2z"/>
		<path fill="#003A27" d="M429.6,318.8c0.6,1.6,1.3,3.1,2.2,4.3c0.2,0.3,0.5,0.6,0.7,0.8c0.3,0.2,0.6,0.4,1,0.6
			c0.7,0.4,1.5,0.7,2.2,0.9c1.6,0.5,3.2,0.7,4.9,0.9c-1.7,0.3-3.5,0.4-5.3,0.2c-0.9-0.1-1.7-0.2-2.6-0.5c-0.4-0.1-0.8-0.3-1.3-0.5
			s-0.9-0.5-1.2-0.8c-0.6-0.5-1.2-1.1-1.7-1.8c-0.4,6-0.2,11.6-0.8,16.8c-1.7-0.2-3.4-0.2-5-0.2c0.4-4.8,0.9-10.4,1.3-16.3
			c-0.7,0.9-1.4,1.7-2.3,2.4c-1.7,1.3-3.5,2.1-5.4,2.5c-0.9,0.2-1.9,0.3-2.8,0.3s-1.8-0.1-2.6-0.4c1.8-0.3,3.5-0.9,5-1.7
			c1.6-0.8,3-1.8,4.2-2.9c1.1-1.2,2.1-2.6,2.8-4.2c0.4-0.8,0.7-1.6,1-2.4c0.1-0.4,0.3-0.8,0.4-1.2c0-0.2,0.1-0.3,0.1-0.5
			c0.1-1.6,0.2-3.3,0.2-5c-1.2,1.3-2.5,2.5-4.1,3.4c-0.3,0.1-0.5,0.3-0.8,0.4s-0.5,0.2-0.8,0.3c-0.5,0.2-1,0.3-1.5,0.4
			c-1,0.2-2,0.4-3,0.5c-2,0.2-4,0.2-5.9-0.1c1-0.1,2-0.3,2.9-0.4c1-0.2,1.9-0.4,2.9-0.6c0.9-0.3,1.9-0.6,2.8-0.9
			c0.9-0.4,1.8-0.8,2.4-1.4c1.3-1.2,2.4-2.9,3.5-4.6c0.7-1.1,1.3-2.3,1.9-3.5c0.1-2.8,0.1-5.6,0.2-8.2c-0.7,1.1-1.4,2-2.4,2.8
			c-1.6,1.3-3.3,2.1-5.1,2.5c-0.9,0.2-1.8,0.3-2.7,0.3c-0.9,0-1.8-0.1-2.7-0.4c1.8-0.3,3.4-0.9,4.9-1.7c1.5-0.8,2.8-1.8,3.9-2.9
			c1-1.2,1.8-2.6,2.4-4.2c0.3-0.8,0.5-1.6,0.8-2.4c0.1-0.4,0.2-0.8,0.3-1.2c0.1-0.4,0.2-0.9,0.2-1.2c0.2-1.4,0.3-2.8,0.5-4.1
			c0-0.7,0-1.4-0.1-2c-0.8,1.3-1.6,2.6-2.8,3.6c-0.4,0.3-0.8,0.6-1.2,0.8c-0.5,0.2-0.9,0.4-1.3,0.6c-0.9,0.3-1.7,0.5-2.6,0.6
			c-1.8,0.2-3.5,0.2-5.3,0c1.7-0.2,3.4-0.6,5-1.1c0.8-0.3,1.6-0.6,2.3-1c0.3-0.2,0.7-0.4,1-0.7c0.2-0.2,0.5-0.5,0.7-0.9
			c0.9-1.3,1.5-2.9,2.1-4.4c0.6-1.6,1.1-3.3,1.5-4.9c0.1-0.4,0.2-0.8,0.3-1.2c-0.1-2.7-0.3-5.1-0.4-7.2c-0.3,0.9-0.6,1.8-1,2.7
			c-0.3,0.7-0.7,1.3-1.3,1.9c-0.6,0.6-1.2,0.9-1.9,1.1c-1.4,0.5-2.8,0.5-4.2,0.3c1.4-0.2,2.7-0.6,3.7-1.3c0.3-0.2,0.5-0.4,0.7-0.6
			s0.4-0.4,0.6-0.7c0.3-0.5,0.5-1.1,0.6-1.8c0.3-1.3,0.6-2.7,0.7-4c0.2-1.4,0.3-2.8,0.4-4.1c0.2-2.2,0.3-4.5,0.4-6.7
			c0.8,2.3,1.5,4.6,2.2,6.9c0.4,1.4,0.9,2.8,1.5,4.2c0.5,1.4,1.1,2.7,1.9,4c0.4,0.6,0.7,1.2,1.2,1.7s1,1,1.5,1.5
			c1.1,0.9,2.4,1.5,3.9,1.6c-1.3,0.5-3,0.3-4.5-0.4c-0.7-0.4-1.4-0.8-2.1-1.3s-1.3-1.2-1.8-1.9c-0.3-0.3-0.5-0.7-0.8-1.1
			c0.3,1.4,0.5,2.9,0.8,4.6c0.2,0.7,0.4,1.5,0.7,2.2c0.1,0.3,0.3,0.8,0.4,1.2c0.1,0.4,0.3,0.8,0.5,1.2c0.3,0.8,0.7,1.6,1.1,2.4
			c0.8,1.5,1.7,3,2.8,4.1c1.1,1.1,2.6,2.1,4.1,2.8c1.5,0.7,3.2,1.2,5,1.4c-0.8,0.3-1.7,0.4-2.6,0.5s-1.8,0-2.7-0.2
			c-1.8-0.3-3.7-1.1-5.3-2.3c-0.9-0.7-1.7-1.6-2.5-2.5c0.2,2.1,0.4,4.3,0.6,6.6c0.4,0.8,0.8,1.6,1.2,2.4c0.8,1.6,1.6,3.1,2.6,4.4
			c0.3,0.3,0.5,0.6,0.8,0.8c0.3,0.3,0.7,0.4,1,0.6c0.7,0.4,1.5,0.7,2.3,0.9c1.6,0.5,3.3,0.8,5.1,0.9c-1.7,0.3-3.5,0.4-5.2,0.2
			c-0.9-0.1-1.8-0.2-2.7-0.5c-0.4-0.1-0.9-0.3-1.3-0.5c-0.5-0.2-0.9-0.5-1.3-0.8c-0.8-0.6-1.5-1.3-2.1-2.1c0.1,2.2,0.1,4.5,0.2,6.9
			c0,0.1,0.1,0.4,0.1,0.5c0.1,0.2,0.1,0.4,0.2,0.7c0.1,0.4,0.3,0.9,0.5,1.3c0.3,0.9,0.7,1.7,1.2,2.5c0.9,1.6,1.9,3,3.3,4.1
			s3,1.9,4.7,2.6s3.6,1.1,5.5,1.4c-1,0.3-2,0.5-3,0.6s-2,0.1-3,0c-2-0.2-4-0.8-5.9-1.8c-1.4-0.8-2.6-2-3.6-3.3
			c-0.1,2.1-0.1,4.2-0.2,6.2C429.1,317.6,429.3,318.2,429.6,318.8z"/>
	</g>
	<g>
		<path fill="#004827" d="M52.5,85.5c0,0,4,13.6,8.4,19.4c3.5,4.5,9.6,8.8,9.6,8.8s-0.7,0.5-3.8,0.6c-3.1,0.1-4.7-1-4.7-1
			s2.3,3.4,4.2,5.4c2,1.9,7.2,2.6,7.2,2.6s-2.6,2.3-5.2,3s-4.2,0.5-4.2,0.5s0.7,2.2,3.3,3.5s7,0.6,7,0.6s-0.5,3.4-4.2,5.1
			c-3.2,1.4-6.8,0.2-6.8,0.2s1.2,2.7,3,4.5c3.5,3.7,8.7,3.6,8.7,3.6s-1.4,3-5.5,3.4c-3.1,0.4-6.2-0.5-6.2-0.5s3.1,3.2,6.3,4.4
			c2,0.7,5.2,1.4,5.2,1.4s-3.6,5.3-10.9,4.3c-5.3-0.7-7.5-3.7-7.5-3.7s-1.5,3.9-7.9,4.6c-6.4,0.7-10.6-5.1-10.6-5.1s3.6,0,6.5-1.5
			s5.9-3.7,5.9-3.7s-3.7,1.4-7.8,0.4s-5.7-5.3-5.7-5.3s6.2,0.7,9.6-0.9c3.4-1.6,4.6-4,4.6-4s-1.5,0.9-5.4,0.4s-5.9-5.2-5.9-5.2
			s4.6-0.7,7.5-2.6c3.1-2,3.9-4.6,3.9-4.6s-1.9,0.7-5.6,0.4c-3.7-0.3-5.1-2.4-5.1-2.4s3.8-2.1,6.9-5c3.1-3,3.2-4.5,3.2-4.5
			s-0.9,0.9-4.1,1.1c-3.2,0.1-4.9-1.2-4.9-1.2s5.5-3.1,7.8-10.3C51.7,95.1,52.5,85.5,52.5,85.5z"/>
		<path fill="#003A27" d="M59.2,145.4c0.5,1.1,1,2.3,1.7,3.2c0.2,0.2,0.4,0.4,0.5,0.6c0.2,0.2,0.5,0.3,0.8,0.5
			c0.5,0.3,1.1,0.5,1.8,0.7c1.2,0.3,2.5,0.5,3.9,0.7c-1.4,0.2-2.7,0.3-4.1,0.2c-0.7-0.1-1.4-0.2-2-0.4c-0.3-0.1-0.6-0.2-1-0.4
			s-0.7-0.4-1-0.6c-0.5-0.4-0.9-0.8-1.3-1.3c-0.3,4.4-0.1,8.5-0.6,12.3c-1.3-0.1-2.6-0.2-4-0.2c0.3-3.5,0.7-7.6,1-12
			c-0.5,0.6-1.1,1.2-1.8,1.7c-1.3,1-2.8,1.6-4.2,1.9c-0.7,0.1-1.5,0.2-2.2,0.2s-1.4-0.1-2.1-0.3c1.4-0.2,2.7-0.6,3.9-1.2
			c1.2-0.6,2.4-1.3,3.3-2.2c0.9-0.9,1.6-1.9,2.2-3.1c0.3-0.6,0.6-1.2,0.8-1.8c0.1-0.3,0.2-0.6,0.3-0.9c0-0.1,0.1-0.2,0.1-0.3
			c0.1-1.2,0.1-2.4,0.2-3.7c-0.9,1-1.9,1.9-3.2,2.5c-0.2,0.1-0.4,0.2-0.6,0.3c-0.2,0.1-0.4,0.1-0.6,0.2c-0.4,0.1-0.8,0.2-1.2,0.3
			c-0.8,0.2-1.6,0.3-2.4,0.4c-1.6,0.1-3.1,0.1-4.6-0.1c0.8-0.1,1.5-0.2,2.3-0.3s1.5-0.3,2.3-0.5c0.7-0.2,1.5-0.4,2.2-0.7
			s1.4-0.6,1.9-1c1-0.9,1.9-2.1,2.7-3.4c0.5-0.8,1-1.7,1.5-2.6c0.1-2.1,0.1-4.1,0.1-6c-0.5,0.8-1.1,1.5-1.9,2.1
			c-1.2,1-2.6,1.6-4,1.9c-0.7,0.2-1.4,0.2-2.1,0.2c-0.7,0-1.4-0.1-2.1-0.3c1.4-0.2,2.6-0.7,3.8-1.2c1.2-0.6,2.2-1.3,3-2.2
			c0.8-0.9,1.4-1.9,1.9-3.1c0.2-0.6,0.4-1.2,0.6-1.8c0.1-0.3,0.2-0.6,0.2-0.9c0.1-0.3,0.1-0.6,0.2-0.9c0.1-1,0.3-2,0.4-3
			c0-0.5,0-1,0-1.5c-0.6,1-1.3,1.9-2.2,2.7c-0.3,0.2-0.6,0.4-1,0.6s-0.7,0.3-1,0.4c-0.7,0.2-1.4,0.4-2,0.5c-1.4,0.2-2.8,0.2-4.1,0
			c1.3-0.2,2.7-0.4,3.9-0.8c0.6-0.2,1.2-0.4,1.8-0.7c0.3-0.1,0.6-0.3,0.8-0.5s0.4-0.4,0.6-0.6c0.7-0.9,1.2-2.1,1.7-3.3
			c0.5-1.2,0.9-2.4,1.2-3.6c0.1-0.3,0.2-0.6,0.3-0.9c-0.1-2-0.2-3.8-0.3-5.3c-0.2,0.7-0.5,1.3-0.8,2c-0.3,0.5-0.6,1-1,1.4
			c-0.5,0.4-1,0.6-1.5,0.8c-1.1,0.4-2.2,0.4-3.3,0.2c1.1-0.1,2.1-0.4,2.9-0.9c0.2-0.1,0.4-0.3,0.6-0.4c0.2-0.2,0.4-0.3,0.5-0.5
			c0.2-0.4,0.4-0.8,0.5-1.3c0.3-0.9,0.4-2,0.6-3c0.1-1,0.2-2,0.3-3c0.1-1.6,0.3-3.3,0.4-4.9c0.6,1.7,1.2,3.4,1.7,5
			c0.3,1,0.7,2.1,1.1,3.1c0.4,1,0.9,2,1.5,2.9c0.3,0.5,0.6,0.9,1,1.3s0.8,0.8,1.2,1.1c0.9,0.6,1.9,1.1,3.1,1.2
			c-1.1,0.4-2.3,0.2-3.5-0.3c-0.6-0.3-1.1-0.6-1.7-1c-0.5-0.4-1-0.9-1.4-1.4c-0.2-0.3-0.4-0.5-0.6-0.8c0.2,1,0.4,2.2,0.6,3.3
			c0.2,0.5,0.3,1.1,0.5,1.6c0.1,0.3,0.2,0.6,0.3,0.9s0.2,0.6,0.4,0.9c0.3,0.6,0.5,1.2,0.9,1.7c0.6,1.1,1.4,2.2,2.2,3
			c0.9,0.8,2,1.5,3.2,2s2.5,0.9,3.9,1.1c-0.7,0.2-1.4,0.3-2.1,0.3s-1.4,0-2.2-0.1c-1.4-0.3-2.9-0.8-4.2-1.7
			c-0.7-0.5-1.4-1.1-1.9-1.8c0.2,1.5,0.3,3.2,0.4,4.8c0.3,0.6,0.6,1.2,0.9,1.7c0.6,1.1,1.3,2.3,2.1,3.2c0.2,0.2,0.4,0.4,0.6,0.6
			c0.2,0.2,0.5,0.3,0.8,0.5c0.6,0.3,1.2,0.5,1.8,0.6c1.3,0.4,2.6,0.6,4,0.7c-1.3,0.2-2.7,0.3-4.1,0.2c-0.7-0.1-1.4-0.2-2.1-0.4
			c-0.4-0.1-0.7-0.2-1-0.4c-0.4-0.2-0.7-0.4-1-0.6c-0.6-0.5-1.2-1-1.7-1.5c0.1,1.6,0.1,3.3,0.1,5c0,0.1,0.1,0.3,0.1,0.4
			c0.1,0.2,0.1,0.3,0.2,0.5c0.1,0.3,0.2,0.7,0.4,1c0.3,0.6,0.6,1.3,0.9,1.8c0.7,1.2,1.5,2.2,2.6,3s2.4,1.4,3.7,1.9
			c1.4,0.5,2.8,0.8,4.3,1c-0.8,0.2-1.6,0.3-2.4,0.4c-0.8,0.1-1.6,0.1-2.4,0c-1.6-0.2-3.2-0.6-4.6-1.4c-1.1-0.6-2.1-1.4-2.9-2.4
			c0,1.6-0.1,3.1-0.2,4.6C58.8,144.6,59,145,59.2,145.4z"/>
	</g>
	<g>
		<path fill="#004827" d="M214.3,116.8c0,0,3.5,12,7.4,17.1c3,4,8.4,7.7,8.4,7.7s-0.6,0.4-3.3,0.5s-4.1-0.9-4.1-0.9s2,3,3.7,4.7
			s6.3,2.3,6.3,2.3s-2.3,2-4.6,2.6s-3.7,0.5-3.7,0.5s0.6,1.9,2.9,3.1c2.3,1.1,6.2,0.5,6.2,0.5s-0.4,3-3.7,4.5c-2.8,1.2-6,0.1-6,0.1
			s1.1,2.4,2.7,4c3.1,3.2,7.7,3.2,7.7,3.2s-1.2,2.6-4.8,3c-2.7,0.3-5.5-0.4-5.5-0.4s2.7,2.8,5.6,3.9c1.7,0.6,4.6,1.2,4.6,1.2
			s-3.1,4.7-9.6,3.8c-4.7-0.6-6.6-3.2-6.6-3.2s-1.3,3.5-6.9,4.1c-5.6,0.6-9.4-4.5-9.4-4.5s3.2,0,5.7-1.4c2.6-1.3,5.2-3.3,5.2-3.3
			s-3.2,1.2-6.9,0.4c-3.7-0.9-5-4.7-5-4.7s5.5,0.6,8.5-0.8c3-1.4,4-3.5,4-3.5s-1.3,0.8-4.8,0.4c-3.4-0.4-5.2-4.5-5.2-4.5
			s4-0.6,6.6-2.3c2.8-1.8,3.5-4.1,3.5-4.1s-1.7,0.6-4.9,0.4c-3.3-0.2-4.5-2.1-4.5-2.1s3.3-1.8,6.1-4.4c2.7-2.6,2.8-4,2.8-4
			s-0.8,0.8-3.6,1c-2.8,0.1-4.3-1-4.3-1s4.8-2.7,6.9-9.1C213.6,125.2,214.3,116.8,214.3,116.8z"/>
		<path fill="#003A27" d="M220.2,169.6c0.4,1,0.9,2,1.5,2.8c0.2,0.2,0.3,0.4,0.5,0.5c0.2,0.2,0.4,0.3,0.7,0.4c0.5,0.2,1,0.4,1.5,0.6
			c1.1,0.3,2.2,0.5,3.4,0.6c-1.2,0.2-2.4,0.3-3.6,0.1c-0.6-0.1-1.2-0.2-1.8-0.3c-0.3-0.1-0.6-0.2-0.9-0.3c-0.3-0.1-0.6-0.3-0.8-0.5
			c-0.4-0.4-0.8-0.7-1.2-1.2c-0.3,3.9-0.1,7.5-0.5,10.9c-1.2-0.1-2.3-0.1-3.5-0.1c0.3-3.1,0.6-6.7,0.9-10.6c-0.5,0.6-1,1.1-1.6,1.5
			c-1.2,0.9-2.4,1.4-3.7,1.6c-0.6,0.1-1.3,0.2-1.9,0.2c-0.6,0-1.2-0.1-1.8-0.2c1.2-0.2,2.4-0.6,3.5-1.1s2.1-1.2,2.9-1.9
			c0.8-0.8,1.4-1.7,1.9-2.7c0.3-0.5,0.5-1,0.7-1.6c0.1-0.3,0.2-0.5,0.3-0.8c0-0.1,0.1-0.2,0.1-0.3c0.1-1.1,0.1-2.1,0.2-3.2
			c-0.8,0.9-1.7,1.6-2.8,2.2c-0.2,0.1-0.4,0.2-0.6,0.2c-0.2,0.1-0.4,0.1-0.5,0.2c-0.4,0.1-0.7,0.2-1.1,0.3c-0.7,0.2-1.4,0.3-2.1,0.3
			c-1.4,0.1-2.8,0.1-4.1-0.1c0.7-0.1,1.4-0.2,2-0.3c0.7-0.1,1.3-0.2,2-0.4s1.3-0.4,1.9-0.6c0.6-0.2,1.2-0.5,1.7-0.9
			c0.9-0.8,1.7-1.9,2.4-3c0.5-0.7,0.9-1.5,1.3-2.3c0.1-1.8,0.1-3.6,0.1-5.3c-0.5,0.7-1,1.3-1.7,1.8c-1.1,0.9-2.3,1.4-3.6,1.7
			c-0.6,0.1-1.3,0.2-1.9,0.2c-0.6,0-1.2-0.1-1.8-0.2c1.2-0.2,2.3-0.6,3.4-1.1c1-0.5,2-1.2,2.7-1.9c0.7-0.8,1.2-1.7,1.6-2.7
			c0.2-0.5,0.4-1,0.5-1.6c0.1-0.3,0.1-0.5,0.2-0.8c0.1-0.3,0.1-0.6,0.1-0.8c0.1-0.9,0.2-1.8,0.3-2.7c0-0.4,0-0.9,0-1.3
			c-0.5,0.9-1.1,1.7-2,2.3c-0.3,0.2-0.5,0.4-0.9,0.5c-0.3,0.1-0.6,0.3-0.9,0.4c-0.6,0.2-1.2,0.3-1.8,0.4c-1.2,0.1-2.4,0.2-3.6,0
			c1.2-0.1,2.3-0.4,3.4-0.7c0.5-0.2,1.1-0.4,1.6-0.6c0.2-0.1,0.5-0.3,0.7-0.4c0.2-0.2,0.3-0.4,0.5-0.6c0.6-0.8,1.1-1.9,1.5-2.9
			s0.8-2.1,1.1-3.1c0.1-0.3,0.2-0.5,0.2-0.8c-0.1-1.8-0.2-3.3-0.3-4.7c-0.2,0.6-0.4,1.2-0.7,1.8c-0.2,0.4-0.5,0.9-0.9,1.2
			c-0.4,0.4-0.9,0.6-1.3,0.7c-0.9,0.3-2,0.4-2.9,0.2c0.9-0.1,1.8-0.4,2.6-0.8c0.2-0.1,0.4-0.2,0.5-0.4c0.2-0.1,0.3-0.3,0.4-0.4
			c0.2-0.3,0.3-0.7,0.4-1.1c0.2-0.8,0.4-1.7,0.5-2.6c0.1-0.9,0.2-1.8,0.3-2.7c0.1-1.5,0.2-2.9,0.3-4.4c0.5,1.5,1,3,1.5,4.5
			c0.3,0.9,0.6,1.8,1,2.7s0.8,1.8,1.3,2.6c0.3,0.4,0.5,0.8,0.8,1.1s0.7,0.7,1.1,0.9c0.8,0.6,1.7,1,2.7,1.1c-0.9,0.3-2.1,0.2-3.1-0.3
			c-0.5-0.2-1-0.5-1.5-0.9s-0.9-0.8-1.2-1.2c-0.2-0.2-0.4-0.5-0.5-0.7c0.2,0.9,0.4,1.9,0.5,2.9c0.2,0.5,0.3,0.9,0.4,1.4
			c0.1,0.2,0.2,0.5,0.3,0.8s0.2,0.5,0.3,0.8c0.2,0.5,0.5,1,0.8,1.5c0.5,1,1.2,1.9,2,2.6c0.8,0.7,1.8,1.3,2.8,1.8
			c1.1,0.5,2.2,0.8,3.4,0.9c-0.6,0.2-1.2,0.3-1.8,0.3s-1.3,0-1.9-0.1c-1.3-0.2-2.5-0.7-3.7-1.5c-0.6-0.5-1.2-1-1.7-1.6
			c0.1,1.4,0.3,2.8,0.4,4.3c0.3,0.5,0.5,1,0.8,1.5c0.6,1,1.1,2,1.8,2.8c0.2,0.2,0.4,0.4,0.5,0.5c0.2,0.2,0.5,0.3,0.7,0.4
			c0.5,0.2,1.1,0.4,1.6,0.6c1.1,0.3,2.3,0.5,3.5,0.6c-1.2,0.2-2.4,0.3-3.6,0.2c-0.6-0.1-1.2-0.2-1.8-0.3c-0.3-0.1-0.6-0.2-0.9-0.3
			c-0.3-0.1-0.6-0.3-0.9-0.5c-0.5-0.4-1-0.9-1.5-1.3c0.1,1.4,0.1,2.9,0.1,4.4c0,0.1,0.1,0.2,0.1,0.3s0.1,0.3,0.1,0.4
			c0.1,0.3,0.2,0.6,0.3,0.9c0.2,0.6,0.5,1.1,0.8,1.6c0.6,1,1.3,1.9,2.3,2.6c1,0.7,2.1,1.3,3.3,1.7s2.5,0.7,3.8,0.9
			c-0.7,0.2-1.4,0.3-2.1,0.4c-0.7,0.1-1.4,0-2.1,0c-1.4-0.1-2.8-0.5-4.1-1.2c-1-0.5-1.8-1.3-2.5-2.1c0,1.4-0.1,2.7-0.2,4
			C219.9,168.8,220.1,169.2,220.2,169.6z"/>
	</g>
	<g>
		<path fill="#004827" d="M188.9,158.4c0,0,3.4,11.5,7.1,16.4c2.9,3.8,8.1,7.4,8.1,7.4s-0.6,0.4-3.2,0.5c-2.6,0.1-4-0.8-4-0.8
			s1.9,2.9,3.6,4.6c1.7,1.6,6.1,2.2,6.1,2.2s-2.2,1.9-4.4,2.5s-3.6,0.4-3.6,0.4s0.6,1.8,2.8,2.9c2.2,1.1,5.9,0.5,5.9,0.5
			s-0.4,2.9-3.6,4.3c-2.7,1.2-5.8,0.1-5.8,0.1s1,2.3,2.6,3.8c3,3.1,7.4,3.1,7.4,3.1s-1.2,2.5-4.6,2.9c-2.6,0.3-5.3-0.4-5.3-0.4
			s2.6,2.7,5.4,3.7c1.7,0.6,4.4,1.2,4.4,1.2s-3,4.5-9.3,3.7c-4.5-0.6-6.4-3.1-6.4-3.1s-1.3,3.3-6.7,3.9c-5.4,0.6-9-4.3-9-4.3
			s3.1,0,5.5-1.3c2.5-1.3,5-3.2,5-3.2s-3.1,1.2-6.6,0.4s-4.8-4.5-4.8-4.5s5.3,0.6,8.2-0.8c2.9-1.4,3.9-3.4,3.9-3.4s-1.3,0.8-4.6,0.4
			c-3.3-0.4-5-4.4-5-4.4s3.9-0.6,6.4-2.2c2.6-1.7,3.3-3.9,3.3-3.9s-1.6,0.6-4.7,0.4c-3.1-0.2-4.3-2-4.3-2s3.2-1.7,5.8-4.2
			s2.7-3.8,2.7-3.8s-0.7,0.8-3.5,0.9c-2.7,0.1-4.2-1-4.2-1s4.6-2.6,6.6-8.7C188.3,166.6,188.9,158.4,188.9,158.4z"/>
		<path fill="#003A27" d="M194.6,209.3c0.4,1,0.9,1.9,1.4,2.7c0.1,0.2,0.3,0.4,0.5,0.5c0.2,0.2,0.4,0.3,0.6,0.4
			c0.5,0.2,1,0.4,1.5,0.6c1,0.3,2.2,0.5,3.3,0.6c-1.2,0.2-2.3,0.2-3.5,0.1c-0.6-0.1-1.2-0.2-1.7-0.3c-0.3-0.1-0.5-0.2-0.8-0.3
			s-0.6-0.3-0.8-0.5c-0.4-0.3-0.8-0.7-1.1-1.1c-0.3,3.7-0.1,7.2-0.5,10.5c-1.1-0.1-2.2-0.1-3.4-0.1c0.3-3,0.6-6.5,0.9-10.2
			c-0.4,0.5-1,1-1.5,1.5c-1.1,0.8-2.4,1.3-3.6,1.6c-0.6,0.1-1.2,0.2-1.8,0.2s-1.2-0.1-1.7-0.2c1.2-0.2,2.3-0.6,3.3-1
			c1-0.5,2-1.1,2.8-1.8s1.4-1.6,1.9-2.6c0.3-0.5,0.5-1,0.7-1.5c0.1-0.3,0.2-0.5,0.3-0.8c0-0.1,0.1-0.2,0.1-0.3
			c0.1-1,0.1-2.1,0.2-3.1c-0.8,0.8-1.6,1.6-2.7,2.1c-0.2,0.1-0.3,0.2-0.5,0.2c-0.2,0.1-0.3,0.1-0.5,0.2c-0.3,0.1-0.7,0.2-1,0.3
			c-0.7,0.2-1.3,0.2-2,0.3c-1.3,0.1-2.7,0.1-3.9-0.1c0.7-0.1,1.3-0.2,2-0.3c0.6-0.1,1.3-0.2,1.9-0.4c0.6-0.2,1.3-0.3,1.9-0.6
			c0.6-0.2,1.2-0.5,1.6-0.9c0.9-0.8,1.6-1.8,2.3-2.9c0.4-0.7,0.9-1.4,1.3-2.2c0.1-1.8,0.1-3.5,0.1-5.1c-0.4,0.7-1,1.3-1.6,1.8
			c-1,0.8-2.2,1.3-3.4,1.6c-0.6,0.1-1.2,0.2-1.8,0.2s-1.2-0.1-1.8-0.2c1.2-0.2,2.2-0.6,3.2-1c1-0.5,1.9-1.1,2.6-1.8
			c0.7-0.7,1.2-1.6,1.6-2.6c0.2-0.5,0.4-1,0.5-1.5c0.1-0.3,0.1-0.5,0.2-0.8c0.1-0.2,0.1-0.5,0.1-0.7c0.1-0.9,0.2-1.7,0.3-2.6
			c0-0.4,0-0.8,0-1.3c-0.5,0.8-1.1,1.6-1.9,2.3c-0.2,0.2-0.5,0.4-0.8,0.5s-0.6,0.3-0.9,0.3c-0.6,0.2-1.2,0.3-1.7,0.4
			c-1.2,0.1-2.3,0.1-3.5,0c1.1-0.1,2.3-0.3,3.3-0.7c0.5-0.2,1-0.4,1.5-0.6c0.2-0.1,0.5-0.2,0.6-0.4c0.2-0.1,0.3-0.3,0.5-0.5
			c0.6-0.8,1-1.8,1.4-2.8s0.7-2,1-3c0.1-0.3,0.1-0.5,0.2-0.8c-0.1-1.7-0.2-3.2-0.3-4.5c-0.2,0.6-0.4,1.1-0.7,1.7
			c-0.2,0.4-0.5,0.8-0.9,1.2c-0.4,0.3-0.8,0.5-1.3,0.7c-0.9,0.3-1.9,0.3-2.8,0.2c0.9-0.1,1.8-0.4,2.5-0.8c0.2-0.1,0.3-0.2,0.5-0.4
			c0.1-0.1,0.3-0.3,0.4-0.4c0.2-0.3,0.3-0.7,0.4-1.1c0.2-0.8,0.4-1.7,0.5-2.5c0.1-0.9,0.2-1.7,0.3-2.6c0.1-1.4,0.2-2.8,0.3-4.2
			c0.5,1.4,1,2.9,1.5,4.3c0.3,0.8,0.6,1.8,1,2.6c0.4,0.9,0.8,1.7,1.2,2.5c0.2,0.4,0.5,0.7,0.8,1.1c0.3,0.3,0.6,0.6,1,0.9
			c0.7,0.5,1.6,0.9,2.6,1c-0.9,0.3-2,0.2-3-0.2c-0.5-0.2-1-0.5-1.4-0.8s-0.8-0.8-1.2-1.2c-0.2-0.2-0.3-0.4-0.5-0.7
			c0.2,0.9,0.3,1.8,0.5,2.8c0.1,0.5,0.3,0.9,0.4,1.4c0.1,0.2,0.2,0.5,0.3,0.7c0.1,0.3,0.2,0.5,0.3,0.8c0.2,0.5,0.5,1,0.7,1.5
			c0.5,1,1.1,1.8,1.9,2.5c0.8,0.7,1.7,1.3,2.7,1.7s2.1,0.8,3.3,0.9c-0.6,0.2-1.2,0.3-1.8,0.3s-1.2,0-1.8-0.1
			c-1.2-0.2-2.4-0.7-3.5-1.5c-0.6-0.4-1.2-1-1.6-1.5c0.1,1.3,0.3,2.7,0.4,4.1c0.2,0.5,0.5,1,0.8,1.5c0.5,1,1.1,1.9,1.8,2.7
			c0.2,0.2,0.3,0.4,0.5,0.5c0.2,0.2,0.4,0.3,0.7,0.4c0.5,0.2,1,0.4,1.6,0.6c1.1,0.3,2.2,0.5,3.4,0.6c-1.1,0.2-2.3,0.2-3.5,0.1
			c-0.6-0.1-1.2-0.2-1.8-0.3c-0.3-0.1-0.6-0.2-0.9-0.3c-0.3-0.1-0.6-0.3-0.9-0.5c-0.5-0.4-1-0.8-1.4-1.3c0.1,1.4,0.1,2.8,0.1,4.3
			c0,0.1,0.1,0.2,0.1,0.3s0.1,0.3,0.1,0.4c0.1,0.3,0.2,0.6,0.3,0.8c0.2,0.5,0.5,1.1,0.8,1.6c0.6,1,1.3,1.9,2.2,2.5
			c0.9,0.7,2,1.2,3.2,1.6c1.2,0.4,2.4,0.7,3.7,0.9c-0.7,0.2-1.3,0.3-2,0.3c-0.7,0.1-1.4,0-2,0c-1.4-0.1-2.7-0.5-3.9-1.1
			c-0.9-0.5-1.8-1.2-2.4-2c0,1.3-0.1,2.6-0.2,3.9C194.3,208.5,194.5,208.9,194.6,209.3z"/>
	</g>
	<path fill="#0A7748" d="M216.3,214.2c-1.6,1.6-3.3,3.3-4.9,4.9c1.8-4.7,3.3-9.4,4.4-14c-0.8,1.3-1.7,2.7-2.6,4
		c0.6-5.9,0.6-11.7,0.2-17.4c2.2,4,4.1,8.1,5.8,12.2c-1-0.6-2-1.2-3.1-1.8c2.5,4.3,4.8,8.6,6.8,13c-1.6-1.7-3.3-3.5-5.1-5.2
		c1.8,5.1,3.3,10.3,4.4,15.4c-1.2-0.9-2.4-1.8-3.7-2.7c0.1,2.6,0.1,5.2-0.1,7.7c-0.8,0-1.7,0-2.5-0.1c0.3-2.8,0.5-5.7,0.6-8.5
		c-1.4,1.8-2.8,3.7-4.3,5.5C213.9,222.9,215.2,218.5,216.3,214.2z"/>
	<path fill="#0A7748" d="M62.6,209.1c-2.1,2.1-4.2,4.3-6.4,6.4c2.3-6.1,4.2-12.2,5.8-18.2c-1.1,1.7-2.2,3.5-3.4,5.2
		c0.7-7.6,0.8-15.2,0.3-22.6c2.8,5.2,5.3,10.5,7.5,15.8c-1.3-0.8-2.6-1.6-4-2.3c3.3,5.6,6.2,11.2,8.8,16.8c-2.1-2.3-4.3-4.5-6.6-6.8
		c2.4,6.6,4.3,13.3,5.7,20c-1.6-1.2-3.2-2.3-4.8-3.5c0.1,3.4,0.1,6.7-0.1,10.1c-1.1,0-2.1-0.1-3.2-0.1c0.4-3.7,0.7-7.4,0.8-11.1
		c-1.8,2.4-3.7,4.8-5.6,7.2C59.4,220.3,61.2,214.7,62.6,209.1z"/>
	<path fill="#0FA164" d="M249.2,195.6c-2.2,2.2-4.4,4.4-6.7,6.6c2.4-6.3,4.4-12.6,6-18.9c-1.1,1.8-2.3,3.6-3.5,5.4
		c0.8-7.9,0.8-15.8,0.3-23.5c2.9,5.4,5.5,10.9,7.8,16.4c-1.4-0.8-2.7-1.6-4.1-2.4c3.4,5.8,6.5,11.6,9.1,17.4c-2.2-2.3-4.5-4.7-6.8-7
		c2.5,6.9,4.4,13.8,5.9,20.7c-1.6-1.2-3.3-2.4-4.9-3.6c0.1,3.5,0.1,7-0.1,10.4c-1.1,0-2.2-0.1-3.3-0.1c0.4-3.8,0.7-7.6,0.8-11.5
		c-1.9,2.5-3.8,5-5.8,7.4C245.9,207.2,247.8,201.4,249.2,195.6z"/>
	<path fill="#0A7748" d="M162.6,389.1c-2.1,2.1-4.2,4.3-6.4,6.4c2.3-6.1,4.2-12.2,5.8-18.2c-1.1,1.7-2.2,3.5-3.4,5.2
		c0.7-7.6,0.8-15.2,0.3-22.6c2.8,5.2,5.3,10.5,7.5,15.8c-1.3-0.8-2.6-1.6-4-2.3c3.3,5.6,6.2,11.2,8.8,16.8c-2.1-2.3-4.3-4.5-6.6-6.8
		c2.4,6.6,4.3,13.3,5.7,20c-1.6-1.2-3.2-2.3-4.8-3.5c0.1,3.4,0.1,6.7-0.1,10.1c-1.1,0-2.1-0.1-3.2-0.1c0.4-3.7,0.7-7.4,0.8-11.1
		c-1.8,2.4-3.7,4.8-5.6,7.2C159.4,400.3,161.2,394.7,162.6,389.1z"/>
	<path fill="#0FA164" d="M128.4,337.2c-1.7,1.7-3.4,3.4-5.1,5.1c1.9-4.9,3.4-9.7,4.6-14.6c-0.9,1.4-1.8,2.8-2.7,4.1
		c0.6-6.1,0.7-12.2,0.2-18.1c2.3,4.2,4.3,8.4,6,12.7c-1.1-0.6-2.1-1.3-3.2-1.9c2.6,4.5,5,9,7,13.5c-1.7-1.8-3.5-3.6-5.3-5.4
		c1.9,5.3,3.4,10.7,4.5,16c-1.3-0.9-2.5-1.9-3.8-2.8c0.1,2.7,0.1,5.4-0.1,8.1c-0.9,0-1.7-0.1-2.6-0.1c0.3-3,0.6-5.9,0.7-8.9
		c-1.5,1.9-2.9,3.8-4.5,5.8C125.9,346.1,127.3,341.6,128.4,337.2z"/>
	<path fill="#0FA164" d="M39.2,345.6c-2.2,2.2-4.4,4.4-6.7,6.6c2.4-6.3,4.4-12.6,6-18.9c-1.1,1.8-2.3,3.6-3.5,5.4
		c0.8-7.9,0.8-15.8,0.3-23.5c2.9,5.4,5.5,10.9,7.8,16.4c-1.4-0.8-2.7-1.6-4.1-2.4c3.4,5.8,6.5,11.6,9.1,17.4c-2.2-2.3-4.5-4.7-6.8-7
		c2.5,6.9,4.4,13.8,5.9,20.7c-1.6-1.2-3.3-2.4-4.9-3.6c0.1,3.5,0.1,7-0.1,10.4c-1.1,0-2.2-0.1-3.3-0.1c0.4-3.8,0.7-7.6,0.8-11.5
		c-1.9,2.5-3.8,5-5.8,7.4C35.9,357.2,37.8,351.4,39.2,345.6z"/>
	<path fill="#0FA164" d="M127,164.8c-2.2,2.2-4.4,4.4-6.7,6.6c2.4-6.3,4.4-12.6,6-18.9c-1.1,1.8-2.3,3.6-3.5,5.4
		c0.8-7.9,0.8-15.8,0.3-23.5c2.9,5.4,5.5,10.9,7.8,16.4c-1.4-0.8-2.7-1.6-4.1-2.4c3.4,5.8,6.5,11.6,9.1,17.4c-2.2-2.3-4.5-4.7-6.8-7
		c2.5,6.9,4.4,13.8,5.9,20.7c-1.6-1.2-3.3-2.4-4.9-3.6c0.1,3.5,0.1,7-0.1,10.4c-1.1,0-2.2-0.1-3.3-0.1c0.4-3.8,0.7-7.6,0.8-11.5
		c-1.9,2.5-3.8,5-5.8,7.4C123.8,176.4,125.6,170.6,127,164.8z"/>
	<path fill="#0FA164" d="M144.7,181c-1.7,1.7-3.4,3.4-5.1,5.1c1.9-4.9,3.4-9.7,4.6-14.6c-0.9,1.4-1.8,2.8-2.7,4.1
		c0.6-6.1,0.7-12.2,0.2-18.1c2.3,4.2,4.3,8.4,6,12.7c-1.1-0.6-2.1-1.3-3.2-1.9c2.6,4.5,5,9,7,13.5c-1.7-1.8-3.5-3.6-5.3-5.4
		c1.9,5.3,3.4,10.7,4.5,16c-1.3-0.9-2.5-1.9-3.8-2.8c0.1,2.7,0.1,5.4-0.1,8.1c-0.9,0-1.7-0.1-2.6-0.1c0.3-3,0.6-5.9,0.7-8.9
		c-1.5,1.9-2.9,3.8-4.5,5.8C142.1,190,143.5,185.5,144.7,181z"/>
	<path fill="#0FA164" d="M28.4,157.2c-1.7,1.7-3.4,3.4-5.1,5.1c1.9-4.9,3.4-9.7,4.6-14.6c-0.9,1.4-1.8,2.8-2.7,4.1
		c0.6-6.1,0.7-12.2,0.2-18.1c2.3,4.2,4.3,8.4,6,12.7c-1.1-0.6-2.1-1.3-3.2-1.9c2.6,4.5,5,9,7,13.5c-1.7-1.8-3.5-3.6-5.3-5.4
		c1.9,5.3,3.4,10.7,4.5,16c-1.3-0.9-2.5-1.9-3.8-2.8c0.1,2.7,0.1,5.4-0.1,8.1c-0.9,0-1.7-0.1-2.6-0.1c0.3-3,0.6-5.9,0.7-8.9
		c-1.5,1.9-2.9,3.8-4.5,5.8C25.9,166.1,27.3,161.6,28.4,157.2z"/>
	<g>
		<path fill="#004827" d="M175.2,226.9c0,0,4.3,15.7,9.1,22.4c3.7,5.2,10.4,10.2,10.4,10.2s-0.8,0.6-4.1,0.7s-5.1-1.1-5.1-1.1
			s2.5,4,4.6,6.2c2.1,2.3,7.8,3,7.8,3s-2.8,2.6-5.6,3.4s-4.6,0.6-4.6,0.6s0.7,2.5,3.5,4s7.6,0.7,7.6,0.7s-0.5,3.9-4.6,5.9
			c-3.5,1.6-7.4,0.2-7.4,0.2s1.3,3.1,3.3,5.2c3.8,4.3,9.5,4.2,9.5,4.2s-1.5,3.4-5.9,4c-3.4,0.4-6.7-0.5-6.7-0.5s3.3,3.7,6.9,5.1
			c2.1,0.9,5.6,1.6,5.6,1.6s-3.9,6.1-11.8,5c-5.8-0.8-8.1-4.3-8.1-4.3s-1.6,4.5-8.5,5.4c-6.9,0.8-11.5-5.9-11.5-5.9s3.9,0,7.1-1.8
			c3.1-1.8,6.4-4.3,6.4-4.3s-4,1.6-8.5,0.5s-6.2-6.2-6.2-6.2s6.7,0.8,10.4-1.1s5-4.6,5-4.6s-1.6,1.1-5.9,0.5c-4.2-0.5-6.4-6-6.4-6
			s5-0.8,8.2-3c3.4-2.3,4.3-5.3,4.3-5.3s-2,0.8-6.1,0.5c-4-0.3-5.6-2.7-5.6-2.7s4.1-2.4,7.5-5.8s3.5-5.2,3.5-5.2s-0.9,1.1-4.4,1.3
			c-3.5,0.2-5.3-1.4-5.3-1.4s5.9-3.6,8.5-11.9C174.3,238.1,175.2,226.9,175.2,226.9z"/>
		<path fill="#003A27" d="M182.5,296.4c0.5,1.3,1.1,2.6,1.8,3.7c0.2,0.3,0.4,0.5,0.6,0.7c0.2,0.2,0.5,0.4,0.8,0.5
			c0.6,0.3,1.2,0.6,1.9,0.8c1.3,0.4,2.8,0.6,4.2,0.8c-1.5,0.3-3,0.3-4.5,0.2c-0.7-0.1-1.5-0.2-2.2-0.4c-0.4-0.1-0.7-0.3-1.1-0.4
			c-0.4-0.2-0.7-0.4-1-0.7c-0.5-0.5-1-1-1.4-1.5c-0.3,5.1-0.1,9.9-0.7,14.3c-1.4-0.1-2.9-0.2-4.3-0.2c0.4-4.1,0.8-8.8,1.1-13.9
			c-0.6,0.7-1.2,1.4-2,2c-1.4,1.1-3,1.8-4.6,2.2c-0.8,0.2-1.6,0.3-2.3,0.3c-0.8,0-1.5-0.1-2.2-0.3c1.5-0.3,3-0.8,4.3-1.4
			c1.3-0.7,2.6-1.5,3.5-2.5c1-1,1.7-2.2,2.4-3.6c0.3-0.7,0.6-1.4,0.9-2.1c0.1-0.3,0.2-0.7,0.3-1.1c0-0.1,0.1-0.3,0.1-0.4
			c0.1-1.4,0.1-2.8,0.2-4.2c-1,1.1-2.1,2.2-3.5,2.9c-0.2,0.1-0.4,0.2-0.7,0.3c-0.2,0.1-0.4,0.2-0.7,0.2c-0.4,0.2-0.9,0.3-1.3,0.4
			c-0.9,0.2-1.7,0.3-2.6,0.4c-1.7,0.1-3.4,0.1-5-0.1c0.8-0.1,1.7-0.2,2.5-0.4c0.8-0.2,1.6-0.3,2.5-0.5c0.8-0.2,1.6-0.5,2.4-0.8
			c0.8-0.3,1.5-0.6,2-1.2c1.1-1.1,2.1-2.5,3-3.9c0.6-0.9,1.1-2,1.6-3c0.1-2.4,0.1-4.8,0.1-7c-0.6,0.9-1.2,1.7-2,2.4
			c-1.3,1.1-2.8,1.8-4.4,2.2c-0.8,0.2-1.6,0.3-2.3,0.3c-0.8,0-1.5-0.1-2.3-0.3c1.5-0.3,2.9-0.8,4.1-1.4c1.3-0.7,2.4-1.5,3.3-2.5
			c0.9-1,1.5-2.3,2-3.6c0.3-0.7,0.5-1.4,0.6-2.1c0.1-0.3,0.2-0.7,0.2-1.1c0.1-0.3,0.1-0.7,0.2-1c0.1-1.2,0.3-2.3,0.4-3.5
			c0-0.6,0-1.2,0-1.7c-0.6,1.1-1.4,2.2-2.4,3.1c-0.3,0.3-0.7,0.5-1.1,0.7c-0.4,0.2-0.7,0.3-1.1,0.5c-0.7,0.3-1.5,0.4-2.2,0.5
			c-1.5,0.2-3,0.2-4.5,0c1.5-0.2,2.9-0.5,4.2-0.9c0.7-0.2,1.3-0.5,1.9-0.8c0.3-0.2,0.6-0.3,0.8-0.6c0.2-0.2,0.4-0.5,0.6-0.7
			c0.7-1.1,1.3-2.4,1.8-3.8c0.5-1.3,0.9-2.8,1.3-4.1c0.1-0.3,0.2-0.7,0.3-1.1c-0.1-2.3-0.3-4.4-0.4-6.2c-0.2,0.8-0.5,1.6-0.9,2.3
			c-0.3,0.6-0.6,1.1-1.1,1.6s-1.1,0.7-1.6,1c-1.2,0.4-2.4,0.5-3.6,0.3c1.2-0.2,2.3-0.5,3.2-1.1c0.2-0.1,0.4-0.3,0.6-0.5
			c0.2-0.2,0.4-0.4,0.5-0.6c0.2-0.4,0.4-0.9,0.6-1.5c0.3-1.1,0.5-2.3,0.6-3.4c0.2-1.2,0.3-2.4,0.4-3.5c0.2-1.9,0.3-3.8,0.4-5.7
			c0.6,1.9,1.3,3.9,1.9,5.8c0.4,1.2,0.8,2.4,1.2,3.6c0.5,1.2,1,2.3,1.6,3.4c0.3,0.5,0.6,1,1,1.5s0.8,0.9,1.3,1.2
			c0.9,0.7,2.1,1.3,3.3,1.4c-1.1,0.4-2.5,0.2-3.8-0.3c-0.6-0.3-1.2-0.7-1.8-1.1c-0.6-0.5-1.1-1-1.5-1.6c-0.2-0.3-0.4-0.6-0.6-0.9
			c0.2,1.2,0.4,2.5,0.7,3.9c0.2,0.6,0.4,1.2,0.6,1.9c0.1,0.3,0.2,0.7,0.3,1s0.3,0.7,0.4,1c0.3,0.7,0.6,1.4,0.9,2
			c0.7,1.3,1.5,2.5,2.4,3.5c1,1,2.2,1.8,3.5,2.4s2.7,1,4.2,1.2c-0.7,0.3-1.5,0.4-2.2,0.4c-0.8,0-1.6,0-2.3-0.2
			c-1.6-0.3-3.1-0.9-4.5-2c-0.8-0.6-1.5-1.3-2.1-2.1c0.2,1.8,0.3,3.7,0.5,5.6c0.3,0.7,0.7,1.4,1,2c0.7,1.3,1.4,2.6,2.2,3.7
			c0.2,0.3,0.4,0.5,0.7,0.7c0.2,0.2,0.6,0.4,0.9,0.5c0.6,0.3,1.3,0.6,2,0.8c1.4,0.4,2.8,0.6,4.3,0.8c-1.5,0.3-3,0.3-4.5,0.2
			c-0.8-0.1-1.5-0.2-2.3-0.5c-0.4-0.1-0.7-0.3-1.1-0.4c-0.4-0.2-0.8-0.4-1.1-0.7c-0.7-0.5-1.3-1.1-1.8-1.8c0.1,1.9,0.1,3.8,0.1,5.8
			c0,0.1,0.1,0.3,0.1,0.4c0.1,0.2,0.1,0.4,0.2,0.6c0.1,0.4,0.2,0.8,0.4,1.1c0.3,0.7,0.6,1.5,1,2.1c0.7,1.4,1.6,2.5,2.8,3.5
			c1.2,0.9,2.6,1.7,4,2.2c1.5,0.6,3,1,4.7,1.2c-0.8,0.3-1.7,0.4-2.6,0.5c-0.9,0.1-1.7,0.1-2.6,0c-1.7-0.2-3.4-0.7-5-1.6
			c-1.2-0.7-2.2-1.7-3.1-2.8c-0.1,1.8-0.1,3.6-0.2,5.3C182.1,295.4,182.3,295.9,182.5,296.4z"/>
	</g>
	<g>
		<path fill="#004827" d="M112.2,210c0,0,3.4,12.5,7.3,17.9c3,4.2,8.3,8.1,8.3,8.1s-0.6,0.5-3.3,0.5c-2.7,0.1-4.1-0.9-4.1-0.9
			s2,3.2,3.7,5s6.2,2.4,6.2,2.4s-2.3,2.1-4.5,2.7c-2.2,0.6-3.7,0.5-3.7,0.5s0.6,2,2.8,3.2c2.2,1.2,6.1,0.6,6.1,0.6s-0.4,3.2-3.7,4.7
			c-2.8,1.3-5.9,0.2-5.9,0.2s1.1,2.5,2.6,4.2c3.1,3.4,7.6,3.4,7.6,3.4s-1.2,2.7-4.7,3.2c-2.7,0.3-5.4-0.4-5.4-0.4s2.7,2.9,5.5,4.1
			c1.7,0.7,4.5,1.3,4.5,1.3s-3.1,4.9-9.5,4c-4.6-0.6-6.5-3.4-6.5-3.4s-1.3,3.6-6.8,4.3c-5.5,0.7-9.2-4.7-9.2-4.7s3.1,0,5.6-1.4
			s5.1-3.4,5.1-3.4s-3.2,1.3-6.8,0.4c-3.6-0.9-4.9-4.9-4.9-4.9s5.4,0.6,8.3-0.9s4-3.7,4-3.7s-1.3,0.8-4.7,0.4
			c-3.4-0.4-5.1-4.8-5.1-4.8s4-0.6,6.5-2.4c2.7-1.9,3.4-4.3,3.4-4.3s-1.6,0.6-4.8,0.4c-3.2-0.2-4.4-2.2-4.4-2.2s3.3-1.9,6-4.6
			c2.7-2.7,2.8-4.2,2.8-4.2s-0.7,0.9-3.5,1s-4.2-1.1-4.2-1.1s4.7-2.8,6.8-9.5C111.5,218.9,112.2,210,112.2,210z"/>
		<path fill="#003A27" d="M118,265.5c0.4,1.1,0.9,2.1,1.5,3c0.1,0.2,0.3,0.4,0.5,0.6s0.4,0.3,0.7,0.4c0.5,0.2,1,0.4,1.5,0.6
			c1.1,0.3,2.2,0.5,3.4,0.6c-1.2,0.2-2.4,0.3-3.6,0.2c-0.6-0.1-1.2-0.2-1.8-0.4c-0.3-0.1-0.6-0.2-0.9-0.3c-0.3-0.2-0.6-0.3-0.8-0.5
			c-0.4-0.4-0.8-0.8-1.1-1.2c-0.3,4.1-0.1,7.9-0.5,11.4c-1.1-0.1-2.3-0.2-3.4-0.1c0.3-3.3,0.6-7.1,0.9-11.1c-0.5,0.6-1,1.1-1.6,1.6
			c-1.2,0.9-2.4,1.4-3.7,1.7c-0.6,0.1-1.3,0.2-1.9,0.2s-1.2-0.1-1.8-0.2c1.2-0.2,2.4-0.6,3.4-1.1c1.1-0.5,2.1-1.2,2.8-2
			c0.8-0.8,1.4-1.8,1.9-2.9c0.3-0.5,0.5-1.1,0.7-1.6c0.1-0.3,0.2-0.6,0.3-0.8c0-0.1,0.1-0.2,0.1-0.3c0.1-1.1,0.1-2.2,0.2-3.4
			c-0.8,0.9-1.7,1.7-2.8,2.3c-0.2,0.1-0.4,0.2-0.5,0.3c-0.2,0.1-0.4,0.1-0.5,0.2c-0.3,0.1-0.7,0.2-1,0.3c-0.7,0.2-1.4,0.3-2.1,0.3
			c-1.4,0.1-2.7,0.1-4-0.1c0.7-0.1,1.3-0.2,2-0.3c0.7-0.1,1.3-0.3,2-0.4c0.6-0.2,1.3-0.4,1.9-0.6s1.2-0.5,1.6-0.9
			c0.9-0.8,1.7-2,2.4-3.1c0.5-0.8,0.9-1.6,1.3-2.4c0.1-1.9,0.1-3.8,0.1-5.6c-0.4,0.7-1,1.4-1.6,1.9c-1.1,0.9-2.3,1.4-3.5,1.7
			c-0.6,0.1-1.2,0.2-1.9,0.2c-0.6,0-1.2-0.1-1.8-0.2c1.2-0.2,2.3-0.6,3.3-1.1s1.9-1.2,2.6-2s1.2-1.8,1.6-2.9
			c0.2-0.5,0.4-1.1,0.5-1.6c0.1-0.3,0.1-0.6,0.2-0.8c0.1-0.3,0.1-0.6,0.1-0.8c0.1-0.9,0.2-1.9,0.3-2.8c0-0.5,0-0.9,0-1.4
			c-0.5,0.9-1.1,1.7-1.9,2.5c-0.3,0.2-0.5,0.4-0.8,0.6c-0.3,0.1-0.6,0.3-0.9,0.4c-0.6,0.2-1.2,0.3-1.8,0.4c-1.2,0.2-2.4,0.2-3.6,0
			c1.2-0.1,2.3-0.4,3.4-0.7c0.5-0.2,1.1-0.4,1.5-0.7c0.2-0.1,0.5-0.3,0.7-0.5s0.3-0.4,0.5-0.6c0.6-0.9,1-1.9,1.4-3s0.7-2.2,1-3.3
			c0.1-0.3,0.2-0.6,0.2-0.8c-0.1-1.9-0.2-3.5-0.3-4.9c-0.2,0.6-0.4,1.2-0.7,1.8c-0.2,0.5-0.5,0.9-0.9,1.3c-0.4,0.4-0.8,0.6-1.3,0.8
			c-0.9,0.3-1.9,0.4-2.9,0.2c0.9-0.1,1.8-0.4,2.5-0.9c0.2-0.1,0.4-0.2,0.5-0.4c0.2-0.1,0.3-0.3,0.4-0.5c0.2-0.3,0.3-0.8,0.4-1.2
			c0.2-0.9,0.4-1.8,0.5-2.7s0.2-1.9,0.3-2.8c0.1-1.5,0.2-3.1,0.3-4.6c0.5,1.6,1,3.1,1.5,4.7c0.3,0.9,0.6,1.9,1,2.9
			c0.4,0.9,0.8,1.9,1.3,2.7c0.3,0.4,0.5,0.8,0.8,1.2s0.7,0.7,1,1c0.8,0.6,1.7,1,2.7,1.1c-0.9,0.4-2,0.2-3-0.3
			c-0.5-0.2-1-0.5-1.4-0.9c-0.5-0.4-0.9-0.8-1.2-1.3c-0.2-0.2-0.3-0.5-0.5-0.7c0.2,1,0.3,2,0.5,3.1c0.2,0.5,0.3,1,0.4,1.5
			c0.1,0.2,0.2,0.5,0.3,0.8c0.1,0.3,0.2,0.6,0.3,0.8c0.2,0.5,0.5,1.1,0.7,1.6c0.5,1,1.2,2,1.9,2.8c0.8,0.8,1.8,1.4,2.8,1.9
			c1.1,0.5,2.2,0.8,3.4,1c-0.6,0.2-1.2,0.3-1.8,0.3c-0.6,0-1.2,0-1.9-0.1c-1.3-0.2-2.5-0.7-3.6-1.6c-0.6-0.5-1.2-1.1-1.7-1.7
			c0.1,1.4,0.3,2.9,0.4,4.5c0.3,0.5,0.5,1.1,0.8,1.6c0.5,1.1,1.1,2.1,1.8,3c0.2,0.2,0.4,0.4,0.5,0.6c0.2,0.2,0.5,0.3,0.7,0.4
			c0.5,0.2,1,0.4,1.6,0.6c1.1,0.3,2.3,0.5,3.4,0.6c-1.2,0.2-2.4,0.3-3.6,0.2c-0.6-0.1-1.2-0.2-1.8-0.4c-0.3-0.1-0.6-0.2-0.9-0.3
			c-0.3-0.2-0.6-0.3-0.9-0.5c-0.5-0.4-1-0.9-1.4-1.4c0.1,1.5,0.1,3.1,0.1,4.7c0,0.1,0.1,0.2,0.1,0.4c0,0.1,0.1,0.3,0.1,0.5
			c0.1,0.3,0.2,0.6,0.3,0.9c0.2,0.6,0.5,1.2,0.8,1.7c0.6,1.1,1.3,2,2.2,2.8c0.9,0.7,2,1.3,3.2,1.8c1.2,0.4,2.4,0.8,3.8,1
			c-0.7,0.2-1.4,0.3-2,0.4c-0.7,0.1-1.4,0-2.1,0c-1.4-0.1-2.7-0.5-4-1.3c-1-0.6-1.8-1.3-2.5-2.2c0,1.5-0.1,2.9-0.2,4.2
			C117.7,264.7,117.8,265.1,118,265.5z"/>
	</g>
	<g>
		<path fill="#004827" d="M78.2,314.1c0,0,4.8,17.5,10.2,24.9c4.2,5.8,11.6,11.3,11.6,11.3s-0.9,0.6-4.6,0.7s-5.6-1.2-5.6-1.2
			s2.7,4.4,5.1,6.9s8.7,3.3,8.7,3.3s-3.2,2.9-6.3,3.8c-3.1,0.9-5.1,0.7-5.1,0.7s0.8,2.8,3.9,4.5s8.4,0.8,8.4,0.8s-0.6,4.4-5.1,6.5
			c-3.8,1.8-8.2,0.2-8.2,0.2s1.5,3.5,3.6,5.8c4.3,4.7,10.5,4.7,10.5,4.7s-1.7,3.8-6.6,4.4c-3.7,0.5-7.5-0.6-7.5-0.6s3.7,4.1,7.6,5.7
			c2.4,0.9,6.3,1.8,6.3,1.8s-4.3,6.8-13.2,5.6c-6.4-0.9-9-4.7-9-4.7s-1.8,5-9.5,6c-7.7,0.9-12.8-6.5-12.8-6.5s4.4,0,7.9-2
			s7.2-4.8,7.2-4.8s-4.4,1.8-9.4,0.5s-6.9-6.9-6.9-6.9s7.5,0.9,11.6-1.2s5.5-5.1,5.5-5.1s-1.8,1.2-6.5,0.6s-7.1-6.6-7.1-6.6
			s5.5-0.9,9.1-3.3c3.8-2.6,4.7-5.9,4.7-5.9s-2.3,0.9-6.7,0.5c-4.5-0.3-6.2-3-6.2-3s4.6-2.6,8.3-6.4s3.9-5.8,3.9-5.8s-1,1.2-4.9,1.4
			c-4.1,0-6.1-1.7-6.1-1.7s6.6-4,9.4-13.2C77.2,326.4,78.2,314.1,78.2,314.1z"/>
		<path fill="#003A27" d="M86.3,391.2c0.6,1.5,1.2,2.9,2.1,4.1c0.2,0.3,0.4,0.6,0.7,0.8c0.2,0.2,0.6,0.4,0.9,0.6
			c0.7,0.3,1.4,0.6,2.1,0.8c1.5,0.4,3.1,0.7,4.7,0.8c-1.7,0.3-3.3,0.4-5,0.2c-0.8-0.1-1.7-0.2-2.5-0.5c-0.4-0.1-0.8-0.3-1.2-0.5
			c-0.4-0.2-0.8-0.5-1.2-0.7c-0.6-0.5-1.1-1.1-1.6-1.7c-0.4,5.7-0.2,11-0.7,15.9c-1.6-0.1-3.2-0.2-4.8-0.2c0.4-4.5,0.9-9.8,1.2-15.5
			c-0.6,0.8-1.4,1.6-2.2,2.2c-1.6,1.2-3.3,2-5.1,2.4c-0.9,0.2-1.8,0.3-2.6,0.3c-0.9,0-1.7-0.1-2.5-0.3c1.7-0.3,3.3-0.8,4.8-1.6
			c1.5-0.7,2.9-1.7,3.9-2.8c1.1-1.1,1.9-2.5,2.7-4c0.4-0.7,0.7-1.5,1-2.3c0.1-0.4,0.3-0.8,0.4-1.2c0-0.1,0.1-0.3,0.1-0.4
			c0.1-1.6,0.2-3.1,0.2-4.7c-1.1,1.2-2.3,2.4-3.9,3.2c-0.2,0.1-0.5,0.2-0.8,0.4c-0.2,0.1-0.5,0.2-0.7,0.3c-0.5,0.2-1,0.3-1.4,0.4
			c-1,0.2-1.9,0.4-2.9,0.5c-1.9,0.2-3.8,0.1-5.6-0.1c0.9-0.1,1.9-0.2,2.8-0.4c0.9-0.2,1.8-0.4,2.7-0.6c0.9-0.2,1.8-0.5,2.6-0.9
			c0.8-0.3,1.7-0.7,2.3-1.3c1.3-1.2,2.3-2.7,3.3-4.3c0.6-1.1,1.2-2.2,1.8-3.3c0.1-2.7,0.1-5.3,0.1-7.7c-0.6,1-1.4,1.9-2.3,2.7
			c-1.5,1.2-3.1,2-4.9,2.4c-0.9,0.2-1.7,0.3-2.6,0.3s-1.7-0.1-2.5-0.3c1.7-0.3,3.2-0.8,4.6-1.6c1.4-0.7,2.7-1.7,3.7-2.8
			c1-1.1,1.7-2.5,2.2-4c0.3-0.7,0.5-1.5,0.7-2.3c0.1-0.4,0.2-0.8,0.3-1.2c0.1-0.4,0.2-0.8,0.2-1.1c0.2-1.3,0.3-2.6,0.4-3.9
			c0-0.6,0-1.3-0.1-1.9c-0.7,1.2-1.6,2.4-2.7,3.4c-0.4,0.3-0.7,0.6-1.2,0.8c-0.4,0.2-0.8,0.4-1.2,0.5c-0.8,0.3-1.6,0.5-2.5,0.6
			c-1.7,0.2-3.3,0.2-5,0c1.6-0.2,3.2-0.5,4.7-1c0.7-0.3,1.5-0.6,2.1-0.9c0.3-0.2,0.7-0.4,0.9-0.6c0.2-0.2,0.5-0.5,0.7-0.8
			c0.8-1.2,1.4-2.7,2-4.2s1-3.1,1.4-4.6c0.1-0.4,0.2-0.8,0.3-1.2c-0.1-2.6-0.3-4.9-0.4-6.8c-0.3,0.9-0.6,1.7-1,2.6
			c-0.3,0.6-0.7,1.2-1.2,1.8c-0.6,0.5-1.2,0.8-1.8,1.1c-1.3,0.5-2.7,0.5-4,0.3c1.3-0.2,2.5-0.6,3.5-1.2c0.3-0.2,0.5-0.3,0.7-0.5
			s0.4-0.4,0.5-0.6c0.3-0.5,0.5-1.1,0.6-1.7c0.3-1.2,0.5-2.5,0.7-3.8s0.3-2.6,0.4-3.9c0.2-2.1,0.3-4.2,0.4-6.4
			c0.7,2.2,1.4,4.3,2.1,6.5c0.4,1.3,0.9,2.7,1.4,4s1.1,2.6,1.8,3.8c0.3,0.6,0.7,1.1,1.2,1.6c0.4,0.5,0.9,1,1.5,1.4
			c1.1,0.8,2.3,1.4,3.7,1.6c-1.3,0.5-2.8,0.3-4.2-0.4c-0.7-0.3-1.4-0.8-2-1.3s-1.2-1.1-1.7-1.8c-0.3-0.3-0.5-0.7-0.7-1
			c0.2,1.3,0.5,2.8,0.7,4.3c0.2,0.7,0.4,1.4,0.6,2.1c0.1,0.3,0.2,0.7,0.4,1.1c0.1,0.4,0.3,0.8,0.4,1.2c0.3,0.8,0.7,1.5,1,2.2
			c0.7,1.5,1.6,2.8,2.7,3.9s2.4,2,3.9,2.6c1.5,0.7,3,1.1,4.7,1.4c-0.8,0.3-1.6,0.4-2.5,0.4s-1.7,0-2.6-0.2c-1.7-0.3-3.5-1-5-2.2
			c-0.9-0.7-1.6-1.5-2.3-2.3c0.2,2,0.4,4.1,0.5,6.2c0.4,0.8,0.7,1.5,1.1,2.2c0.8,1.5,1.5,2.9,2.5,4.1c0.2,0.3,0.5,0.6,0.7,0.8
			c0.3,0.2,0.6,0.4,1,0.6c0.7,0.3,1.4,0.6,2.2,0.8c1.5,0.5,3.1,0.7,4.8,0.8c-1.6,0.3-3.3,0.4-5,0.2c-0.8-0.1-1.7-0.2-2.5-0.5
			c-0.4-0.1-0.8-0.3-1.3-0.5s-0.9-0.5-1.2-0.7c-0.8-0.6-1.4-1.2-2-2c0.1,2.1,0.1,4.3,0.1,6.5c0,0.1,0.1,0.3,0.1,0.5
			c0.1,0.2,0.1,0.4,0.2,0.6c0.1,0.4,0.3,0.8,0.4,1.2c0.3,0.8,0.7,1.6,1.1,2.4c0.8,1.5,1.8,2.8,3.1,3.8c1.3,1,2.8,1.8,4.5,2.5
			c1.6,0.6,3.4,1.1,5.2,1.3c-0.9,0.3-1.9,0.4-2.8,0.5c-1,0.1-1.9,0.1-2.9,0c-1.9-0.2-3.8-0.8-5.6-1.7c-1.4-0.8-2.5-1.9-3.4-3.1
			c-0.1,2-0.1,4-0.2,5.9C85.8,390.1,86,390.7,86.3,391.2z"/>
	</g>
	<g>
		<path fill="#004827" d="M660.9,283.1c0,0,3.8,13.9,8.1,19.8c3.3,4.6,9.2,9,9.2,9s-0.7,0.5-3.6,0.6c-2.9,0.1-4.5-1-4.5-1
			s2.2,3.5,4.1,5.5c1.9,2,6.9,2.6,6.9,2.6s-2.5,2.3-5,3s-4.1,0.5-4.1,0.5s0.7,2.2,3.1,3.5c2.5,1.3,6.7,0.6,6.7,0.6s-0.5,3.5-4.1,5.2
			c-3.1,1.4-6.5,0.2-6.5,0.2s1.2,2.7,2.9,4.6c3.4,3.8,8.3,3.7,8.3,3.7s-1.3,3-5.2,3.5c-3,0.4-5.9-0.5-5.9-0.5s2.9,3.2,6.1,4.5
			c1.9,0.8,5,1.4,5,1.4s-3.4,5.4-10.4,4.4c-5.1-0.7-7.2-3.8-7.2-3.8s-1.4,4-7.5,4.7s-10.2-5.2-10.2-5.2s3.5,0,6.2-1.6
			c2.8-1.6,5.7-3.8,5.7-3.8s-3.5,1.4-7.5,0.4s-5.5-5.5-5.5-5.5s5.9,0.7,9.2-0.9c3.2-1.6,4.4-4.1,4.4-4.1s-1.4,0.9-5.2,0.4
			c-3.7-0.5-5.7-5.3-5.7-5.3s4.4-0.7,7.2-2.6c3-2,3.8-4.7,3.8-4.7s-1.8,0.7-5.3,0.4c-3.5-0.3-4.9-2.4-4.9-2.4s3.6-2.1,6.6-5.1
			s3.1-4.6,3.1-4.6s-0.8,1-3.9,1.1c-3.1,0.1-4.7-1.2-4.7-1.2s5.2-3.1,7.5-10.5C660.2,292.9,660.9,283.1,660.9,283.1z"/>
		<path fill="#003A27" d="M667.3,344.3c0.5,1.2,1,2.3,1.6,3.3c0.2,0.2,0.3,0.5,0.5,0.6c0.2,0.2,0.5,0.3,0.7,0.5
			c0.5,0.3,1.1,0.5,1.7,0.7c1.2,0.4,2.4,0.6,3.7,0.7c-1.3,0.2-2.6,0.3-3.9,0.2c-0.7-0.1-1.3-0.2-1.9-0.4c-0.3-0.1-0.6-0.2-1-0.4
			c-0.3-0.2-0.6-0.4-0.9-0.6c-0.5-0.4-0.9-0.9-1.3-1.3c-0.3,4.5-0.1,8.7-0.6,12.6c-1.3-0.1-2.5-0.2-3.8-0.2c0.3-3.6,0.7-7.8,1-12.3
			c-0.5,0.6-1.1,1.2-1.7,1.8c-1.3,1-2.7,1.6-4,1.9c-0.7,0.2-1.4,0.2-2.1,0.2c-0.7,0-1.3-0.1-2-0.3c1.3-0.2,2.6-0.7,3.8-1.2
			c1.2-0.6,2.3-1.3,3.1-2.2c0.9-0.9,1.5-2,2.1-3.2c0.3-0.6,0.5-1.2,0.8-1.8c0.1-0.3,0.2-0.6,0.3-0.9c0-0.1,0.1-0.2,0.1-0.4
			c0.1-1.2,0.1-2.5,0.2-3.7c-0.9,1-1.8,1.9-3.1,2.5c-0.2,0.1-0.4,0.2-0.6,0.3c-0.2,0.1-0.4,0.1-0.6,0.2c-0.4,0.1-0.8,0.2-1.1,0.3
			c-0.8,0.2-1.5,0.3-2.3,0.4c-1.5,0.1-3,0.1-4.4-0.1c0.7-0.1,1.5-0.2,2.2-0.3c0.7-0.1,1.5-0.3,2.2-0.5s1.4-0.4,2.1-0.7
			c0.7-0.3,1.4-0.6,1.8-1c1-0.9,1.8-2.2,2.6-3.4c0.5-0.8,1-1.7,1.4-2.6c0.1-2.1,0.1-4.2,0.1-6.1c-0.5,0.8-1.1,1.5-1.8,2.1
			c-1.2,1-2.5,1.6-3.9,1.9c-0.7,0.2-1.4,0.2-2.1,0.2c-0.7,0-1.4-0.1-2-0.3c1.3-0.2,2.5-0.7,3.7-1.2c1.1-0.6,2.1-1.3,2.9-2.2
			c0.8-0.9,1.3-2,1.8-3.2c0.2-0.6,0.4-1.2,0.6-1.8c0.1-0.3,0.1-0.6,0.2-0.9c0.1-0.3,0.1-0.6,0.2-0.9c0.1-1,0.2-2.1,0.4-3.1
			c0-0.5,0-1,0-1.5c-0.6,1-1.2,1.9-2.1,2.7c-0.3,0.2-0.6,0.4-0.9,0.6c-0.3,0.2-0.6,0.3-1,0.4c-0.6,0.2-1.3,0.4-2,0.5
			c-1.3,0.2-2.6,0.2-3.9,0c1.3-0.2,2.5-0.4,3.7-0.8c0.6-0.2,1.2-0.4,1.7-0.7c0.3-0.2,0.5-0.3,0.7-0.5s0.4-0.4,0.5-0.6
			c0.7-1,1.1-2.1,1.6-3.3c0.4-1.2,0.8-2.4,1.1-3.6c0.1-0.3,0.2-0.6,0.2-0.9c-0.1-2-0.2-3.9-0.3-5.4c-0.2,0.7-0.4,1.4-0.8,2
			c-0.3,0.5-0.5,1-1,1.4s-0.9,0.7-1.4,0.9c-1,0.4-2.1,0.4-3.2,0.2c1-0.1,2-0.4,2.8-0.9c0.2-0.1,0.4-0.3,0.6-0.4
			c0.2-0.2,0.3-0.3,0.4-0.5c0.2-0.4,0.4-0.8,0.5-1.3c0.2-1,0.4-2,0.5-3s0.2-2.1,0.3-3.1c0.1-1.7,0.2-3.4,0.3-5.1
			c0.6,1.7,1.1,3.4,1.6,5.2c0.3,1,0.7,2.1,1.1,3.1c0.4,1,0.9,2.1,1.4,3c0.3,0.5,0.6,0.9,0.9,1.3c0.3,0.4,0.7,0.8,1.2,1.1
			c0.8,0.7,1.8,1.1,2.9,1.2c-1,0.4-2.2,0.2-3.4-0.3c-0.6-0.3-1.1-0.6-1.6-1s-1-0.9-1.3-1.4c-0.2-0.3-0.4-0.5-0.6-0.8
			c0.2,1.1,0.4,2.2,0.6,3.4c0.2,0.5,0.3,1.1,0.5,1.6c0.1,0.3,0.2,0.6,0.3,0.9s0.2,0.6,0.4,0.9c0.3,0.6,0.5,1.2,0.8,1.8
			c0.6,1.2,1.3,2.2,2.1,3.1c0.9,0.8,1.9,1.6,3.1,2.1c1.2,0.5,2.4,0.9,3.7,1.1c-0.6,0.2-1.3,0.3-2,0.4c-0.7,0-1.4,0-2.1-0.1
			c-1.4-0.3-2.7-0.8-4-1.7c-0.7-0.5-1.3-1.2-1.8-1.9c0.2,1.6,0.3,3.2,0.4,4.9c0.3,0.6,0.6,1.2,0.9,1.8c0.6,1.2,1.2,2.3,2,3.3
			c0.2,0.2,0.4,0.5,0.6,0.6c0.2,0.2,0.5,0.3,0.8,0.5c0.6,0.3,1.1,0.5,1.8,0.7c1.2,0.4,2.5,0.6,3.8,0.7c-1.3,0.2-2.6,0.3-3.9,0.2
			c-0.7-0.1-1.3-0.2-2-0.4c-0.3-0.1-0.6-0.2-1-0.4c-0.4-0.2-0.7-0.4-1-0.6c-0.6-0.5-1.1-1-1.6-1.5c0.1,1.7,0.1,3.4,0.1,5.2
			c0,0.1,0.1,0.3,0.1,0.4c0.1,0.2,0.1,0.3,0.2,0.5c0.1,0.3,0.2,0.7,0.3,1c0.3,0.6,0.5,1.3,0.9,1.9c0.6,1.2,1.4,2.2,2.4,3
			s2.3,1.5,3.6,2s2.7,0.9,4.2,1.1c-0.7,0.2-1.5,0.4-2.3,0.4c-0.8,0.1-1.5,0.1-2.3,0c-1.5-0.2-3-0.6-4.4-1.4c-1.1-0.6-2-1.5-2.7-2.5
			c0,1.6-0.1,3.2-0.2,4.7C667,343.5,667.2,343.9,667.3,344.3z"/>
	</g>
	<g>
		<path fill="#004827" d="M633.4,341.4c0,0,3.6,13.3,7.8,19c3.2,4.4,8.8,8.6,8.8,8.6s-0.7,0.5-3.5,0.6s-4.3-0.9-4.3-0.9
			s2.1,3.4,3.9,5.3c1.8,1.9,6.6,2.5,6.6,2.5s-2.4,2.2-4.8,2.9c-2.4,0.7-3.9,0.5-3.9,0.5s0.6,2.1,3,3.4s6.4,0.6,6.4,0.6
			s-0.4,3.4-3.9,5c-2.9,1.4-6.3,0.2-6.3,0.2s1.1,2.6,2.8,4.5c3.3,3.6,8,3.6,8,3.6s-1.3,2.9-5,3.4c-2.9,0.4-5.7-0.5-5.7-0.5
			s2.8,3.1,5.8,4.3c1.8,0.7,4.8,1.4,4.8,1.4s-3.3,5.2-10.1,4.3c-4.9-0.7-6.9-3.6-6.9-3.6s-1.4,3.9-7.3,4.5c-5.9,0.7-9.8-5-9.8-5
			s3.3,0,6-1.5s5.5-3.7,5.5-3.7s-3.4,1.4-7.2,0.4s-5.3-5.2-5.3-5.2s5.7,0.7,8.9-0.9c3.1-1.6,4.2-3.9,4.2-3.9s-1.4,0.9-5,0.4
			s-5.4-5.1-5.4-5.1s4.2-0.7,6.9-2.5c2.9-2,3.6-4.5,3.6-4.5s-1.7,0.7-5.1,0.4c-3.4-0.3-4.7-2.3-4.7-2.3s3.5-2,6.3-4.9
			c2.9-2.9,3-4.4,3-4.4s-0.8,0.9-3.8,1.1c-3,0.1-4.5-1.1-4.5-1.1s5-3,7.2-10.1C632.6,350.9,633.4,341.4,633.4,341.4z"/>
		<path fill="#003A27" d="M639.5,400.3c0.5,1.1,0.9,2.2,1.6,3.1c0.2,0.2,0.3,0.4,0.5,0.6s0.5,0.3,0.7,0.4c0.5,0.3,1,0.5,1.6,0.6
			c1.1,0.3,2.3,0.5,3.6,0.6c-1.3,0.2-2.5,0.3-3.8,0.2c-0.6-0.1-1.3-0.2-1.9-0.4c-0.3-0.1-0.6-0.2-0.9-0.4c-0.3-0.2-0.6-0.3-0.9-0.6
			c-0.5-0.4-0.9-0.8-1.2-1.3c-0.3,4.3-0.1,8.4-0.6,12.1c-1.2-0.1-2.4-0.2-3.6-0.2c0.3-3.5,0.7-7.5,0.9-11.8c-0.5,0.6-1,1.2-1.7,1.7
			c-1.2,1-2.6,1.5-3.9,1.8c-0.7,0.1-1.3,0.2-2,0.2s-1.3-0.1-1.9-0.3c1.3-0.2,2.5-0.6,3.6-1.2s2.2-1.3,3-2.1c0.8-0.9,1.5-1.9,2-3
			c0.3-0.6,0.5-1.2,0.7-1.7c0.1-0.3,0.2-0.6,0.3-0.9c0-0.1,0.1-0.2,0.1-0.3c0.1-1.2,0.1-2.4,0.2-3.6c-0.8,1-1.8,1.8-2.9,2.5
			c-0.2,0.1-0.4,0.2-0.6,0.3c-0.2,0.1-0.4,0.1-0.6,0.2c-0.4,0.1-0.7,0.2-1.1,0.3c-0.7,0.2-1.5,0.3-2.2,0.3c-1.4,0.1-2.9,0.1-4.3-0.1
			c0.7-0.1,1.4-0.2,2.1-0.3c0.7-0.1,1.4-0.3,2.1-0.5c0.7-0.2,1.4-0.4,2-0.7c0.6-0.3,1.3-0.5,1.7-1c1-0.9,1.8-2.1,2.5-3.3
			c0.5-0.8,0.9-1.7,1.4-2.5c0.1-2.1,0.1-4,0.1-5.9c-0.5,0.8-1,1.5-1.7,2.1c-1.1,0.9-2.4,1.5-3.7,1.8c-0.7,0.2-1.3,0.2-2,0.2
			s-1.3-0.1-1.9-0.3c1.3-0.2,2.4-0.6,3.5-1.2s2-1.3,2.8-2.1c0.7-0.9,1.3-1.9,1.7-3c0.2-0.6,0.4-1.2,0.5-1.7c0.1-0.3,0.1-0.6,0.2-0.9
			c0.1-0.3,0.1-0.6,0.1-0.9c0.1-1,0.2-2,0.3-3c0-0.5,0-1,0-1.5c-0.5,0.9-1.2,1.9-2.1,2.6c-0.3,0.2-0.6,0.4-0.9,0.6
			c-0.3,0.2-0.6,0.3-0.9,0.4c-0.6,0.2-1.3,0.4-1.9,0.5c-1.3,0.2-2.5,0.2-3.8,0c1.2-0.2,2.5-0.4,3.6-0.8c0.6-0.2,1.1-0.4,1.6-0.7
			c0.2-0.1,0.5-0.3,0.7-0.5s0.3-0.4,0.5-0.6c0.6-0.9,1.1-2.1,1.5-3.2s0.8-2.4,1.1-3.5c0.1-0.3,0.2-0.6,0.2-0.9
			c-0.1-2-0.2-3.7-0.3-5.2c-0.2,0.7-0.4,1.3-0.7,2c-0.2,0.5-0.5,1-0.9,1.4s-0.9,0.6-1.4,0.8c-1,0.3-2,0.4-3.1,0.2
			c1-0.1,1.9-0.4,2.7-0.9c0.2-0.1,0.4-0.3,0.5-0.4c0.2-0.2,0.3-0.3,0.4-0.5c0.2-0.4,0.3-0.8,0.5-1.3c0.2-0.9,0.4-1.9,0.5-2.9
			s0.2-2,0.3-3c0.1-1.6,0.2-3.2,0.3-4.9c0.6,1.7,1.1,3.3,1.6,5c0.3,1,0.7,2,1.1,3c0.4,1,0.8,2,1.3,2.9c0.3,0.5,0.5,0.9,0.9,1.2
			c0.3,0.4,0.7,0.7,1.1,1.1c0.8,0.6,1.8,1.1,2.8,1.2c-1,0.4-2.2,0.2-3.2-0.3c-0.5-0.3-1-0.6-1.5-1s-0.9-0.9-1.3-1.4
			c-0.2-0.3-0.4-0.5-0.5-0.8c0.2,1,0.4,2.1,0.6,3.3c0.2,0.5,0.3,1.1,0.5,1.6c0.1,0.2,0.2,0.6,0.3,0.9s0.2,0.6,0.3,0.9
			c0.2,0.6,0.5,1.2,0.8,1.7c0.6,1.1,1.2,2.1,2.1,3c0.8,0.8,1.9,1.5,3,2s2.3,0.9,3.6,1c-0.6,0.2-1.3,0.3-1.9,0.3c-0.7,0-1.3,0-2-0.1
			c-1.3-0.3-2.6-0.8-3.8-1.7c-0.7-0.5-1.3-1.1-1.8-1.8c0.2,1.5,0.3,3.1,0.4,4.8c0.3,0.6,0.6,1.2,0.8,1.7c0.6,1.1,1.2,2.2,1.9,3.1
			c0.2,0.2,0.4,0.4,0.6,0.6c0.2,0.2,0.5,0.3,0.7,0.5c0.5,0.3,1.1,0.5,1.7,0.6c1.2,0.3,2.4,0.5,3.6,0.6c-1.2,0.2-2.5,0.3-3.8,0.2
			c-0.6-0.1-1.3-0.2-1.9-0.4c-0.3-0.1-0.6-0.2-1-0.4c-0.4-0.2-0.7-0.3-0.9-0.6c-0.6-0.4-1.1-1-1.5-1.5c0.1,1.6,0.1,3.3,0.1,5
			c0,0.1,0.1,0.3,0.1,0.4c0.1,0.2,0.1,0.3,0.1,0.5c0.1,0.3,0.2,0.6,0.3,1c0.2,0.6,0.5,1.2,0.8,1.8c0.6,1.2,1.4,2.2,2.4,2.9
			c1,0.8,2.2,1.4,3.4,1.9c1.3,0.5,2.6,0.8,4,1c-0.7,0.2-1.4,0.3-2.2,0.4c-0.7,0.1-1.5,0.1-2.2,0c-1.5-0.2-2.9-0.6-4.3-1.3
			c-1-0.6-1.9-1.4-2.6-2.4c0,1.5-0.1,3-0.2,4.5C639.2,399.5,639.4,399.9,639.5,400.3z"/>
	</g>
	<g>
		<path fill="#004827" d="M279.7,219.9c0,0,3.6,13.3,7.8,19c3.2,4.4,8.8,8.6,8.8,8.6s-0.7,0.5-3.5,0.6s-4.3-0.9-4.3-0.9
			s2.1,3.4,3.9,5.3c1.8,1.9,6.6,2.5,6.6,2.5s-2.4,2.2-4.8,2.9s-3.9,0.5-3.9,0.5s0.6,2.1,3,3.4s6.4,0.6,6.4,0.6s-0.4,3.4-3.9,5
			c-2.9,1.4-6.3,0.2-6.3,0.2s1.1,2.6,2.8,4.5c3.3,3.6,8,3.6,8,3.6s-1.3,2.9-5,3.4c-2.9,0.4-5.7-0.5-5.7-0.5s2.8,3.1,5.8,4.3
			c1.8,0.7,4.8,1.4,4.8,1.4s-3.3,5.2-10.1,4.3c-4.9-0.7-6.9-3.6-6.9-3.6s-1.4,3.9-7.3,4.5c-5.9,0.7-9.8-5-9.8-5s3.3,0,6-1.5
			s5.5-3.7,5.5-3.7s-3.4,1.4-7.2,0.4c-3.8-1-5.3-5.2-5.3-5.2s5.7,0.7,8.9-0.9c3.1-1.6,4.2-3.9,4.2-3.9s-1.4,0.9-5,0.4
			s-5.4-5.1-5.4-5.1s4.2-0.7,6.9-2.5c2.9-2,3.6-4.5,3.6-4.5s-1.7,0.7-5.1,0.4c-3.4-0.3-4.7-2.3-4.7-2.3s3.5-2,6.3-4.9
			c2.9-2.9,3-4.4,3-4.4s-0.8,0.9-3.8,1.1c-3,0.1-4.5-1.1-4.5-1.1s5-3,7.2-10.1C279,229.3,279.7,219.9,279.7,219.9z"/>
		<path fill="#003A27" d="M285.9,278.8c0.5,1.1,0.9,2.2,1.6,3.1c0.2,0.2,0.3,0.4,0.5,0.6s0.5,0.3,0.7,0.4c0.5,0.3,1,0.5,1.6,0.6
			c1.1,0.3,2.3,0.5,3.6,0.6c-1.3,0.2-2.5,0.3-3.8,0.2c-0.6-0.1-1.3-0.2-1.9-0.4c-0.3-0.1-0.6-0.2-0.9-0.4c-0.3-0.2-0.6-0.3-0.9-0.6
			c-0.5-0.4-0.9-0.8-1.2-1.3c-0.3,4.3-0.1,8.4-0.6,12.1c-1.2-0.1-2.4-0.2-3.6-0.2c0.3-3.5,0.7-7.5,0.9-11.8c-0.5,0.6-1,1.2-1.7,1.7
			c-1.2,1-2.6,1.5-3.9,1.8c-0.7,0.1-1.3,0.2-2,0.2c-0.6,0-1.3-0.1-1.9-0.3c1.3-0.2,2.5-0.6,3.6-1.2s2.2-1.3,3-2.1
			c0.8-0.9,1.5-1.9,2-3c0.3-0.6,0.5-1.2,0.7-1.7c0.1-0.3,0.2-0.6,0.3-0.9c0-0.1,0.1-0.2,0.1-0.3c0.1-1.2,0.1-2.4,0.2-3.6
			c-0.8,1-1.8,1.8-2.9,2.5c-0.2,0.1-0.4,0.2-0.6,0.3c-0.2,0.1-0.4,0.1-0.6,0.2c-0.4,0.1-0.7,0.2-1.1,0.3c-0.7,0.2-1.5,0.3-2.2,0.3
			c-1.4,0.1-2.9,0.1-4.3-0.1c0.7-0.1,1.4-0.2,2.1-0.3c0.7-0.1,1.4-0.3,2.1-0.5s1.4-0.4,2-0.7c0.6-0.3,1.3-0.5,1.7-1
			c1-0.9,1.8-2.1,2.5-3.3c0.5-0.8,0.9-1.7,1.4-2.5c0.1-2.1,0.1-4,0.1-5.9c-0.5,0.8-1,1.5-1.7,2.1c-1.1,0.9-2.4,1.5-3.7,1.8
			c-0.7,0.2-1.3,0.2-2,0.2s-1.3-0.1-1.9-0.3c1.3-0.2,2.4-0.6,3.5-1.2s2-1.3,2.8-2.1c0.7-0.9,1.3-1.9,1.7-3c0.2-0.6,0.4-1.2,0.5-1.7
			c0.1-0.3,0.1-0.6,0.2-0.9s0.1-0.6,0.1-0.9c0.1-1,0.2-2,0.3-3c0-0.5,0-1,0-1.5c-0.5,0.9-1.2,1.9-2.1,2.6c-0.3,0.2-0.6,0.4-0.9,0.6
			c-0.3,0.2-0.6,0.3-0.9,0.4c-0.6,0.2-1.3,0.4-1.9,0.5c-1.3,0.2-2.5,0.2-3.8,0c1.2-0.2,2.5-0.4,3.6-0.8c0.6-0.2,1.1-0.4,1.6-0.7
			c0.2-0.1,0.5-0.3,0.7-0.5s0.3-0.4,0.5-0.6c0.6-0.9,1.1-2.1,1.5-3.2c0.4-1.1,0.8-2.4,1.1-3.5c0.1-0.3,0.2-0.6,0.2-0.9
			c-0.1-2-0.2-3.7-0.3-5.2c-0.2,0.7-0.4,1.3-0.7,2c-0.2,0.5-0.5,1-0.9,1.4s-0.9,0.6-1.4,0.8c-1,0.3-2,0.4-3.1,0.2
			c1-0.1,1.9-0.4,2.7-0.9c0.2-0.1,0.4-0.3,0.5-0.4c0.2-0.2,0.3-0.3,0.4-0.5c0.2-0.4,0.3-0.8,0.5-1.3c0.2-0.9,0.4-1.9,0.5-2.9
			s0.2-2,0.3-3c0.1-1.6,0.2-3.2,0.3-4.9c0.6,1.7,1.1,3.3,1.6,5c0.3,1,0.7,2,1.1,3s0.8,2,1.3,2.9c0.3,0.5,0.5,0.9,0.9,1.2
			c0.3,0.4,0.7,0.7,1.1,1.1c0.8,0.6,1.8,1.1,2.8,1.2c-1,0.4-2.2,0.2-3.2-0.3c-0.5-0.3-1-0.6-1.5-1s-0.9-0.9-1.3-1.4
			c-0.2-0.3-0.4-0.5-0.5-0.8c0.2,1,0.4,2.1,0.6,3.3c0.2,0.5,0.3,1.1,0.5,1.6c0.1,0.2,0.2,0.6,0.3,0.9c0.1,0.3,0.2,0.6,0.3,0.9
			c0.2,0.6,0.5,1.2,0.8,1.7c0.6,1.1,1.2,2.1,2.1,3c0.8,0.8,1.9,1.5,3,2s2.3,0.9,3.6,1c-0.6,0.2-1.3,0.3-1.9,0.3c-0.7,0-1.3,0-2-0.1
			c-1.3-0.3-2.6-0.8-3.8-1.7c-0.7-0.5-1.3-1.1-1.8-1.8c0.2,1.5,0.3,3.1,0.4,4.8c0.3,0.6,0.6,1.2,0.8,1.7c0.6,1.1,1.2,2.2,1.9,3.1
			c0.2,0.2,0.4,0.4,0.6,0.6s0.5,0.3,0.7,0.5c0.5,0.3,1.1,0.5,1.7,0.6c1.2,0.3,2.4,0.5,3.6,0.6c-1.2,0.2-2.5,0.3-3.8,0.2
			c-0.6-0.1-1.3-0.2-1.9-0.4c-0.3-0.1-0.6-0.2-1-0.4c-0.4-0.2-0.7-0.3-0.9-0.6c-0.6-0.4-1.1-1-1.5-1.5c0.1,1.6,0.1,3.3,0.1,5
			c0,0.1,0.1,0.3,0.1,0.4c0.1,0.2,0.1,0.3,0.1,0.5c0.1,0.3,0.2,0.6,0.3,1c0.2,0.6,0.5,1.2,0.8,1.8c0.6,1.2,1.4,2.2,2.4,2.9
			c1,0.8,2.2,1.4,3.4,1.9c1.3,0.5,2.6,0.8,4,1c-0.7,0.2-1.4,0.3-2.2,0.4c-0.7,0.1-1.5,0.1-2.2,0c-1.5-0.2-2.9-0.6-4.3-1.3
			c-1-0.6-1.9-1.4-2.6-2.4c0,1.5-0.1,3-0.2,4.5C285.6,278,285.7,278.4,285.9,278.8z"/>
	</g>
	<path fill="#0A7748" d="M663.1,406.1c-1.8,1.9-3.5,3.8-5.4,5.7c1.9-5.4,3.5-10.9,4.8-16.2c-0.9,1.5-1.9,3.1-2.8,4.6
		c0.6-6.8,0.7-13.6,0.2-20.2c2.4,4.7,4.5,9.4,6.3,14.1c-1.1-0.7-2.2-1.4-3.3-2.1c2.8,5,5.2,10,7.3,15c-1.8-2-3.6-4-5.5-6.1
		c2,5.9,3.6,11.9,4.7,17.8c-1.3-1-2.6-2.1-4-3.1c0.1,3,0.1,6-0.1,9c-0.9,0-1.8-0.1-2.7-0.1c0.4-3.3,0.6-6.6,0.7-9.9
		c-1.5,2.1-3.1,4.3-4.7,6.4C660.5,416.1,661.9,411.1,663.1,406.1z"/>
	<path fill="#0A7748" d="M496.1,400.1c-2.3,2.5-4.6,4.9-7,7.4c2.5-7.1,4.6-14.1,6.3-21.1c-1.2,2-2.4,4-3.7,6
		c0.8-8.8,0.9-17.6,0.3-26.2c3.1,6,5.8,12.2,8.1,18.3c-1.4-0.9-2.9-1.8-4.3-2.7c3.6,6.5,6.8,13,9.5,19.5c-2.3-2.6-4.7-5.2-7.2-7.9
		c2.6,7.7,4.7,15.4,6.1,23.1c-1.7-1.4-3.4-2.7-5.2-4.1c0.1,3.9,0.1,7.8-0.1,11.7c-1.2,0-2.3-0.1-3.5-0.1c0.5-4.3,0.8-8.6,0.9-12.8
		c-2,2.8-4,5.6-6.1,8.3C492.7,413.1,494.6,406.6,496.1,400.1z"/>
	<path fill="#0FA164" d="M698.8,384.5c-2.4,2.6-4.8,5.1-7.2,7.7c2.6-7.3,4.8-14.6,6.5-21.9c-1.2,2.1-2.5,4.1-3.8,6.2
		c0.8-9.2,0.9-18.3,0.3-27.2c3.2,6.3,6,12.6,8.4,19c-1.5-0.9-3-1.9-4.5-2.8c3.7,6.7,7,13.4,9.9,20.2c-2.4-2.7-4.9-5.4-7.4-8.1
		c2.7,8,4.8,16,6.4,24c-1.8-1.4-3.5-2.8-5.4-4.2c0.1,4,0.1,8.1-0.1,12.1c-1.2,0-2.4-0.1-3.6-0.1c0.5-4.4,0.8-8.9,0.9-13.3
		c-2,2.9-4.1,5.8-6.3,8.6C695.3,397.9,697.2,391.2,698.8,384.5z"/>
	<path fill="#0FA164" d="M738.6,356.1c-1.8,2-3.7,3.9-5.6,5.9c2-5.6,3.7-11.3,5-16.9c-1,1.6-1.9,3.2-2.9,4.8
		c0.6-7.1,0.7-14.1,0.2-21c2.5,4.8,4.6,9.7,6.5,14.7c-1.1-0.7-2.3-1.4-3.5-2.2c2.9,5.2,5.4,10.4,7.6,15.6c-1.9-2.1-3.8-4.2-5.7-6.3
		c2.1,6.2,3.7,12.4,4.9,18.5c-1.4-1.1-2.7-2.2-4.1-3.3c0.1,3.1,0.1,6.2-0.1,9.3c-0.9,0-1.9-0.1-2.8-0.1c0.4-3.4,0.6-6.8,0.7-10.3
		c-1.6,2.2-3.2,4.4-4.9,6.7C735.8,366.4,737.4,361.2,738.6,356.1z"/>
	<path fill="#0FA164" d="M459.1,340c-1.8,2-3.7,3.9-5.6,5.9c2-5.6,3.7-11.3,5-16.9c-1,1.6-1.9,3.2-2.9,4.8c0.6-7.1,0.7-14.1,0.2-21
		c2.5,4.8,4.6,9.7,6.5,14.7c-1.1-0.7-2.3-1.4-3.5-2.2c2.9,5.2,5.4,10.4,7.6,15.6c-1.9-2.1-3.8-4.2-5.7-6.3
		c2.1,6.2,3.7,12.4,4.9,18.5c-1.4-1.1-2.7-2.2-4.1-3.3c0.1,3.1,0.1,6.2-0.1,9.3c-0.9,0-1.9-0.1-2.8-0.1c0.4-3.4,0.6-6.8,0.7-10.3
		c-1.6,2.2-3.2,4.4-4.9,6.7C456.3,350.3,457.8,345.1,459.1,340z"/>
	<path fill="#0A7748" d="M366.1,340.1c-2.3,2.5-4.6,4.9-7,7.4c2.5-7.1,4.6-14.1,6.3-21.1c-1.2,2-2.4,4-3.7,6
		c0.8-8.8,0.9-17.6,0.3-26.2c3.1,6,5.8,12.2,8.1,18.3c-1.4-0.9-2.9-1.8-4.3-2.7c3.6,6.5,6.8,13,9.5,19.5c-2.3-2.6-4.7-5.2-7.2-7.9
		c2.6,7.7,4.7,15.4,6.1,23.1c-1.7-1.4-3.4-2.7-5.2-4.1c0.1,3.9,0.1,7.8-0.1,11.7c-1.2,0-2.3-0.1-3.5-0.1c0.5-4.3,0.8-8.6,0.9-12.8
		c-2,2.8-4,5.6-6.1,8.3C362.7,353.1,364.6,346.6,366.1,340.1z"/>
	<path fill="#0FA164" d="M329.1,280c-1.8,2-3.7,3.9-5.6,5.9c2-5.6,3.7-11.3,5-16.9c-1,1.6-1.9,3.2-2.9,4.8c0.6-7.1,0.7-14.1,0.2-21
		c2.5,4.8,4.6,9.7,6.5,14.7c-1.1-0.7-2.3-1.4-3.5-2.2c2.9,5.2,5.4,10.4,7.6,15.6c-1.9-2.1-3.8-4.2-5.7-6.3
		c2.1,6.2,3.7,12.4,4.9,18.5c-1.4-1.1-2.7-2.2-4.1-3.3c0.1,3.1,0.1,6.2-0.1,9.3c-0.9,0-1.9-0.1-2.8-0.1c0.4-3.4,0.6-6.8,0.7-10.3
		c-1.6,2.2-3.2,4.4-4.9,6.7C326.3,290.3,327.8,285.1,329.1,280z"/>
	<g>
		<path fill="#004827" d="M545.1,313.9c0,0,4.7,17.3,10.1,24.7c4.1,5.7,11.5,11.2,11.5,11.2s-0.9,0.6-4.5,0.7
			c-3.7,0.1-5.6-1.2-5.6-1.2s2.7,4.4,5.1,6.9c2.3,2.5,8.6,3.3,8.6,3.3s-3.1,2.9-6.2,3.8c-3.1,0.9-5.1,0.7-5.1,0.7s0.8,2.8,3.9,4.4
			c3.1,1.7,8.4,0.8,8.4,0.8s-0.6,4.4-5.1,6.5c-3.8,1.8-8.2,0.2-8.2,0.2s1.5,3.4,3.6,5.8c4.2,4.7,10.4,4.6,10.4,4.6s-1.7,3.8-6.5,4.4
			c-3.7,0.5-7.4-0.6-7.4-0.6s3.7,4,7.6,5.6c2.3,0.9,6.2,1.8,6.2,1.8s-4.3,6.8-13.1,5.5c-6.4-0.9-9-4.7-9-4.7s-1.8,5-9.4,5.9
			c-7.6,0.9-12.7-6.5-12.7-6.5s4.3,0,7.8-2c3.5-1.9,7.1-4.8,7.1-4.8s-4.4,1.8-9.4,0.5c-5-1.2-6.8-6.8-6.8-6.8s7.4,0.9,11.5-1.2
			c4.1-2,5.5-5.1,5.5-5.1s-1.8,1.2-6.4,0.6c-4.6-0.6-7.1-6.6-7.1-6.6s5.5-0.9,9-3.3c3.7-2.6,4.7-5.9,4.7-5.9s-2.3,0.9-6.7,0.5
			c-4.4-0.3-6.1-3-6.1-3s4.5-2.6,8.2-6.4s3.8-5.8,3.8-5.8s-1,1.2-4.9,1.4c-3.9,0.2-5.9-1.5-5.9-1.5s6.5-3.9,9.3-13.1
			C544.2,326.2,545.1,313.9,545.1,313.9z"/>
		<path fill="#003A27" d="M553.2,390.4c0.6,1.5,1.2,2.9,2,4.1c0.2,0.3,0.4,0.6,0.7,0.8c0.2,0.2,0.6,0.4,0.9,0.6
			c0.7,0.3,1.4,0.6,2.1,0.8c1.5,0.4,3,0.7,4.6,0.8c-1.6,0.3-3.3,0.4-4.9,0.2c-0.8-0.1-1.6-0.2-2.4-0.5c-0.4-0.1-0.8-0.3-1.2-0.5
			s-0.8-0.5-1.1-0.7c-0.6-0.5-1.1-1.1-1.6-1.7c-0.4,5.6-0.2,10.9-0.7,15.8c-1.6-0.1-3.2-0.2-4.7-0.2c0.4-4.5,0.9-9.8,1.2-15.3
			c-0.6,0.8-1.4,1.6-2.2,2.2c-1.6,1.2-3.3,2-5.1,2.4c-0.9,0.2-1.7,0.3-2.6,0.3c-0.8,0-1.7-0.1-2.5-0.3c1.7-0.3,3.3-0.8,4.7-1.6
			c1.5-0.7,2.8-1.7,3.9-2.8c1.1-1.1,1.9-2.5,2.6-3.9c0.4-0.7,0.7-1.5,0.9-2.3c0.1-0.4,0.3-0.8,0.4-1.2c0-0.1,0.1-0.3,0.1-0.4
			c0.1-1.5,0.2-3.1,0.2-4.7c-1.1,1.2-2.3,2.4-3.8,3.2c-0.2,0.1-0.5,0.2-0.8,0.3c-0.2,0.1-0.5,0.2-0.7,0.3c-0.5,0.2-0.9,0.3-1.4,0.4
			c-0.9,0.2-1.9,0.4-2.8,0.5c-1.9,0.2-3.7,0.1-5.6-0.1c0.9-0.1,1.8-0.2,2.8-0.4c0.9-0.2,1.8-0.4,2.7-0.6s1.8-0.5,2.6-0.9
			c0.8-0.3,1.7-0.7,2.3-1.3c1.3-1.2,2.3-2.7,3.3-4.3c0.6-1,1.2-2.2,1.8-3.3c0.1-2.7,0.1-5.2,0.1-7.7c-0.6,1-1.4,1.9-2.2,2.7
			c-1.5,1.2-3.1,2-4.8,2.4c-0.9,0.2-1.7,0.3-2.6,0.3c-0.9,0-1.7-0.1-2.5-0.3c1.6-0.3,3.2-0.8,4.6-1.6c1.4-0.7,2.7-1.7,3.6-2.8
			c0.9-1.1,1.7-2.5,2.2-3.9c0.3-0.7,0.5-1.5,0.7-2.3c0.1-0.4,0.2-0.8,0.3-1.2c0.1-0.4,0.2-0.8,0.2-1.1c0.2-1.3,0.3-2.6,0.4-3.9
			c0-0.6,0-1.3-0.1-1.9c-0.7,1.2-1.5,2.4-2.7,3.4c-0.3,0.3-0.7,0.6-1.2,0.8c-0.4,0.2-0.8,0.4-1.2,0.5c-0.8,0.3-1.6,0.5-2.5,0.6
			c-1.6,0.2-3.3,0.2-4.9,0c1.6-0.2,3.2-0.5,4.7-1c0.7-0.3,1.5-0.6,2.1-0.9c0.3-0.2,0.7-0.4,0.9-0.6s0.5-0.5,0.7-0.8
			c0.8-1.2,1.4-2.7,2-4.2c0.5-1.5,1-3.1,1.4-4.6c0.1-0.4,0.2-0.8,0.3-1.2c-0.1-2.6-0.3-4.8-0.4-6.8c-0.3,0.9-0.6,1.7-1,2.5
			c-0.3,0.6-0.7,1.2-1.2,1.8c-0.6,0.5-1.2,0.8-1.8,1.1c-1.3,0.5-2.6,0.5-4,0.3c1.3-0.2,2.5-0.6,3.5-1.2c0.2-0.2,0.5-0.3,0.7-0.5
			s0.4-0.4,0.5-0.6c0.3-0.5,0.4-1,0.6-1.6c0.3-1.2,0.5-2.5,0.7-3.8s0.3-2.6,0.4-3.9c0.2-2.1,0.3-4.2,0.4-6.3
			c0.7,2.1,1.4,4.3,2.1,6.4c0.4,1.3,0.9,2.7,1.4,3.9c0.5,1.3,1.1,2.6,1.8,3.7c0.3,0.6,0.7,1.1,1.1,1.6c0.4,0.5,0.9,1,1.4,1.4
			c1,0.8,2.3,1.4,3.7,1.5c-1.3,0.5-2.8,0.3-4.2-0.4c-0.7-0.3-1.4-0.8-2-1.3s-1.2-1.1-1.7-1.8c-0.2-0.3-0.5-0.7-0.7-1
			c0.2,1.3,0.5,2.8,0.7,4.3c0.2,0.7,0.4,1.4,0.6,2.1c0.1,0.3,0.2,0.7,0.4,1.1c0.1,0.4,0.3,0.8,0.4,1.1c0.3,0.8,0.6,1.5,1,2.2
			c0.7,1.4,1.6,2.8,2.7,3.8c1.1,1.1,2.4,1.9,3.9,2.6s3,1.1,4.7,1.4c-0.8,0.3-1.6,0.4-2.5,0.4c-0.8,0-1.7,0-2.6-0.2
			c-1.7-0.3-3.4-1-5-2.2c-0.9-0.7-1.6-1.5-2.3-2.3c0.2,2,0.4,4,0.5,6.2c0.4,0.8,0.7,1.5,1.1,2.2c0.8,1.5,1.5,2.9,2.5,4.1
			c0.2,0.3,0.5,0.6,0.7,0.8c0.3,0.2,0.6,0.4,1,0.6c0.7,0.3,1.4,0.6,2.2,0.8c1.5,0.5,3.1,0.7,4.7,0.8c-1.6,0.3-3.3,0.4-4.9,0.2
			c-0.8-0.1-1.7-0.2-2.5-0.5c-0.4-0.1-0.8-0.3-1.3-0.5s-0.9-0.5-1.2-0.7c-0.7-0.6-1.4-1.2-2-1.9c0.1,2.1,0.1,4.2,0.1,6.4
			c0,0.1,0.1,0.3,0.1,0.5c0.1,0.2,0.1,0.4,0.2,0.6c0.1,0.4,0.3,0.8,0.4,1.2c0.3,0.8,0.7,1.6,1.1,2.3c0.8,1.5,1.8,2.8,3.1,3.8
			s2.8,1.8,4.4,2.4c1.6,0.6,3.4,1.1,5.2,1.3c-0.9,0.3-1.9,0.4-2.8,0.5c-1,0.1-1.9,0.1-2.9,0c-1.9-0.2-3.8-0.7-5.5-1.7
			c-1.3-0.8-2.5-1.8-3.4-3.1c-0.1,2-0.1,4-0.2,5.8C552.7,389.3,553,389.9,553.2,390.4z"/>
	</g>
</g>
</svg>
