<?xml version="1.0" encoding="utf-8"?>
<!-- Generator: Adobe Illustrator 21.0.2, SVG Export Plug-In . SVG Version: 6.00 Build 0)  -->
<!DOCTYPE svg PUBLIC "-//W3C//DTD SVG 1.1//EN" "http://www.w3.org/Graphics/SVG/1.1/DTD/svg11.dtd">
<svg version="1.1" xmlns="http://www.w3.org/2000/svg" xmlns:xlink="http://www.w3.org/1999/xlink" x="0px" y="0px"
	 viewBox="0 0 540 271" enable-background="new 0 0 540 271" xml:space="preserve" width="540" height="271" preserveAspectRatio="none">
<g id="sky" display="none">
</g>
<g id="clouds">
</g>
<g id="Text" display="none">
</g>
<g id="mountains">
</g>
<g id="back_hills">
</g>
<g id="back_trees">
</g>
<g id="front_ground">
</g>
<g id="trees_flowers">
</g>
<g id="path">
</g>
<g id="right_building">
</g>
<g id="left_building">
</g>
<g id="info_board">
</g>
<g id="Shadows">
</g>
<g id="bird_elephant">
</g>
<g id="frog_creature">
</g>
<g id="purple_creature">
</g>
<g id="Characters">
	<path opacity="0.1" fill="#384E7D" d="M29.6,225.7c17.2-7.5,88.9-9.6,129-9.8c57.2-0.3,103.7,9.7,103.7,22.4
		c0.1,12.7-46.2,23.3-103.5,23.6c-33.2,0.2-70.6-4.2-85.3-17.1l-32.3,0.9C12.4,242.3,20.6,229.5,29.6,225.7z"/>
	<g>
		<path opacity="0.75" fill="#8ED6EC" d="M200.9,22.1c-1.8-0.6-3.5-1.7-4.9-3c-2.7,3.2-6.7,5.3-11.1,5.3c-6.1,0.1-11.3-3.6-13.7-8.9
			c-2.1,4.6-6.7,7.8-12.1,7.9c-4.3,0-8.2-2-10.7-5.2c-2.8,4.8-7.8,8-13.7,8.1c-1.7,0-3.3-0.2-4.8-0.7c-11.6,10.6-18.8,26-18.6,43.1
			c0.3,31.5,25.8,56.8,56.8,56.5c31-0.3,55.9-26.2,55.5-57.7C223.5,48.8,214.5,32.4,200.9,22.1z"/>
		<circle fill="#CFECFB" cx="144.1" cy="31.7" r="2.2"/>
		<circle fill="#CFECFB" cx="194" cy="47.8" r="3.5"/>
		<circle fill="#CFECFB" cx="181.3" cy="33.9" r="2.3"/>
		<circle fill="#CFECFB" cx="199.2" cy="34.8" r="4.1"/>
		<circle fill="#CFECFB" cx="151.6" cy="32.6" r="1.4"/>
		<circle fill="#CFECFB" cx="119.7" cy="63.9" r="2.4"/>
		<circle fill="#CFECFB" cx="119.7" cy="73.1" r="1.3"/>
		<circle fill="#CFECFB" cx="199.7" cy="55.5" r="1.3"/>
		<circle fill="#CFECFB" cx="208.1" cy="69.5" r="1.3"/>
		<circle fill="#CFECFB" cx="212.2" cy="56.9" r="2.8"/>
	</g>
	<path fill="#994627" d="M126.9,199.2c0,0,3,21.8-15.7,38.6c0,0-6.1,5.8-2.7-4.9c0,0,2.5-5.6-6.6-23.5c0,0,2.8-25,3.3-25.1
		c0.5-0.2,17.9-0.5,17.9,0C123.2,184.7,126.9,199.2,126.9,199.2"/>
	<path fill="#994627" d="M146.4,202.9c0,0-3,21.8,15.7,38.6c0,0,6.2,5.5,3.5-5.2c0,0-2.2-8.2,5.7-23.2c0,0-2.8-24.9-3.3-25.1
		c-0.5-0.2-17.9-0.5-17.9,0C150.1,188.5,146.4,202.9,146.4,202.9"/>
	<path fill="#C1592B" d="M223.1,240.6c0,0-10.6-7.8-8.4-31.1c0,0,1.6-10.8,3.6-26c0,0,1.7-9.2,2.9-23.3
		c-43.5-11.9-86.9-12.7-130.1,0c0,1.8,0,3.6,0.2,5.4c0,0,1.1,17.3,2.5,24.5c0,0,6.5,30.8-10.1,43.9c0,0-10.3,7.3,3.5,5.5
		c0,0,26.9-0.3,32.2-28.9c0,0-1.3,24.4,16.3,33.7c0,0,13.7,7.7,6-3.3c0,0-5.1-11,6.2-28c0,0,6.1-6.7,7.1-19.3
		c0.7,6.1,2.7,14,8.1,19.4c0,0,9,6.3,24.4-2c0,0,0.4-1.2,0.9-3.1c1.2,15,7,32,26.8,36.2C215.4,244.3,238.2,249.3,223.1,240.6"/>
	<path fill="#ECE7D7" d="M217,195.1c0,0-29.1,3.2-28.9,3.5c0.1,0.3-0.6,21.7,7.1,31.8l19.8-7.1C215,223.3,213.3,213.5,217,195.1"/>
	<path fill="#ECE7D7" d="M154.5,197.6l-34.4-1.1c0,0-2.9,16.4,2.2,31.3l18.6,3.8c0,0,2.5-11.9,9-21
		C149.9,210.7,154.2,203.9,154.5,197.6"/>
	<polygon fill="#A48B7F" points="190.4,202.5 216.6,197.3 216.6,198.1 190.2,203.6 	"/>
	<polygon fill="#A48B7F" points="192.3,208.9 215.1,207.6 214.9,208.3 192.5,210.1 	"/>
	<polygon fill="#A48B7F" points="211.3,208.6 192.1,224.3 192.1,224.9 212.9,208.4 	"/>
	<path fill="#A48B7F" d="M197.3,220.8c0.2-0.1,17.4,0,17.4,0v0.6l-19,0.6L197.3,220.8z"/>
	<polygon fill="#A48B7F" points="119.6,200.9 150.9,208.9 150.2,210.1 119.6,201.6 	"/>
	<polygon fill="#A48B7F" points="119.3,211.2 148.8,212.2 148.1,213.1 119.4,211.7 	"/>
	<polygon fill="#A48B7F" points="120.1,217.6 142,227.5 141.6,228.6 119.9,218.2 	"/>
	<polygon fill="#672E1D" points="174.2,225 180.2,248.7 186.7,247.9 184.6,224.3 	"/>
	<polygon fill="#421B0D" points="176.3,233.3 185.2,231.3 184.8,226.4 174.8,227.4 	"/>
	<polygon fill="#672E1D" points="158,212.6 192.1,206.8 193.8,219.9 163.1,226.9 	"/>
	<polygon fill="#672E1D" points="168.4,224.3 172.8,230.4 187,228.1 188,219.6 	"/>
	<path fill="#8F4432" d="M158,212.6l34.1-5.7c0,0,0.9,8.9-13,11.9C179.1,218.8,163.9,220.7,158,212.6"/>
	<path fill="#C1592B" d="M155.3,180.5c0,0-4.8,22.4,9.9,34.9c0,0,13.2,1.1,22.9-3.2c0,0,5.5-15.5,2.9-34.5L155.3,180.5z"/>
	<polygon fill="#421B0D" points="169.3,225.5 187.8,221.3 187.6,223.7 170.3,226.9 	"/>
	<g>
		<path fill="#25221D" d="M65.4,139c0,0,0.8,1,1.8,1s9.6-0.5,9.6-0.5L76.4,169l-14.4,3.1c0,0-0.5-18.3-0.5-18.8
			C61.5,152.9,65.4,139,65.4,139z"/>
		<g>
			<path fill="#25221D" d="M66.3,139.5c0,0,13.2-29.2-11.7-36.5c-24.8-7.3-42.4,39.5-42.4,39.5l13.2,5.8c0,0-2.9,16.8,8,23.4
				c11,6.6,30.4,0,30.4,0L66.3,139.5z"/>
			<path fill="#C8A15F" d="M53.2,174c6-0.9,10.6-2.4,10.6-2.4l1.7-22.5l-8.7,2.2l-1.5-8.9l-14.4,2.1l-1.8-8.9l-16.2,2.1l-4.8-8.2
				c-3.8,7.1-6,12.7-6,12.7l13.2,5.8c0,0-0.4,2.5-0.3,5.9l12.9-1.9l5.5,4.9l11.3-1.5L53.2,174z"/>
			<path fill="#7C6C36" d="M12.2,142.4c1.2,0.4,2.3,0.7,3.5,1.1c1.1,0.4,2.3,0.8,3.4,1.2c1.1,0.4,2.3,0.8,3.4,1.2
				c1.1,0.4,2.3,0.8,3.4,1.3l-0.7-0.1l5.4-1.6c1.8-0.5,3.6-1,5.5-1.5l0.8-0.2l0.7,0.7c1.2,1.1,2.3,2.3,3.4,3.5l3.4,3.5l-1.4-0.5
				c1.9-0.3,3.9-0.6,5.8-0.9c1.9-0.3,3.9-0.5,5.8-0.8l1.9-0.3l-0.2,1.8c-0.2,1.9-0.4,3.9-0.6,5.8l-0.3,2.9c-0.1,1-0.2,1.9-0.4,2.9
				c-0.2,1.9-0.5,3.9-0.8,5.8c-0.3,1.9-0.6,3.9-0.9,5.8c-0.1-2-0.2-3.9-0.2-5.9c0-2-0.1-3.9,0-5.9c0-1,0-1.9,0-2.9l0.1-2.9
				c0-1.9,0.1-3.9,0.2-5.8l1.7,1.6c-1.9,0.3-3.9,0.7-5.8,1c-1.9,0.3-3.9,0.6-5.8,1l-0.8,0.1l-0.6-0.6l-3.3-3.5
				c-1.1-1.2-2.2-2.4-3.3-3.6l1.5,0.4c-1.8,0.4-3.7,0.8-5.5,1.2l-5.6,1.1l-0.4,0.1l-0.3-0.2c-1.1-0.5-2.1-1.1-3.2-1.7
				c-1.1-0.5-2.1-1.1-3.2-1.7c-1.1-0.6-2.1-1.1-3.2-1.7C14.2,143.6,13.2,143,12.2,142.4z"/>
			<circle fill="#52687E" cx="35.4" cy="122" r="3.8"/>
			<circle fill="#52687E" cx="54.9" cy="112.3" r="2"/>
			<circle fill="#52687E" cx="41.1" cy="161.6" r="2"/>
			<circle fill="#52687E" cx="50.1" cy="126.5" r="2"/>
			<circle fill="#52687E" cx="57.4" cy="135.7" r="3.7"/>
			<circle fill="#52687E" cx="47.1" cy="172.4" r="2.5"/>
			<circle fill="#52687E" cx="30.5" cy="166.9" r="3.7"/>
			<circle fill="#52687E" cx="37.9" cy="107.3" r="4"/>
			<circle fill="#52687E" cx="67.8" cy="121.7" r="3.1"/>
		</g>
	</g>
	<g>
		<path fill="#C1592B" d="M214.1,182.7c0,0-3,8.3,6.9,16.1c9.9,7.8,17.6,6.1,17.6,6.1l-1.7-5.2l9.4,1.3l-6-5.2l11.6-4.8l-10.7-3.9
			l0.9-12.6l-23.6-4.4L214.1,182.7z"/>
		<g>
			<line fill="#C1592B" x1="231.7" y1="188.8" x2="224.8" y2="196.6"/>
			<path fill="#A02C36" d="M231.7,188.8c0,0,0,0.2-0.1,0.5c-0.1,0.3-0.2,0.7-0.4,1.2c-0.4,0.9-1.1,2.1-2,3c-0.9,1-1.9,1.8-2.7,2.4
				c-0.4,0.3-0.8,0.5-1.1,0.6c-0.3,0.1-0.5,0.2-0.5,0.2s0-0.2,0.1-0.5c0.1-0.3,0.2-0.7,0.4-1.2c0.4-0.9,1.1-2.1,2-3
				c0.9-1,1.9-1.8,2.7-2.4c0.4-0.3,0.8-0.5,1.1-0.6C231.5,188.8,231.7,188.8,231.7,188.8z"/>
		</g>
		<g>
			<line fill="#C1592B" x1="229.6" y1="184" x2="222.8" y2="191.8"/>
			<path fill="#A02C36" d="M229.6,184c0,0-0.3,0.6-0.8,1.4c-0.3,0.4-0.6,0.9-1,1.4c-0.4,0.5-0.8,1-1.2,1.5c-0.2,0.2-0.4,0.5-0.7,0.7
				c-0.2,0.2-0.4,0.5-0.7,0.7c-0.4,0.4-0.8,0.8-1.2,1.1c-0.7,0.7-1.3,1-1.3,1s0.3-0.6,0.8-1.4c0.3-0.4,0.6-0.9,1-1.4
				c0.2-0.2,0.4-0.5,0.6-0.7c0.2-0.2,0.4-0.5,0.6-0.7c0.4-0.5,0.9-1,1.3-1.4c0.4-0.4,0.8-0.8,1.2-1.1
				C229.1,184.4,229.6,184,229.6,184z"/>
		</g>
	</g>
	<path fill="#284180" d="M113.5,113.5l-14.1-2.3c0,0,2.3,19.3-10.7,22.7c-13,3.4-21.9,1.1-21.9,1.1L60.8,173c0,0,22.1,6.3,38.6-2.4
		c16.5-8.7,18.7-44.7,18.7-44.7L113.5,113.5z"/>
	<circle fill="#EC9F21" cx="76.3" cy="141.2" r="2.6"/>
	<circle fill="#EC9F21" cx="76.9" cy="169.1" r="2.6"/>
	<path fill="#F1CD2E" d="M89.1,174.2l-1.9-39.9c-6.3,1.5-11.6,1.6-15.2,1.4l-3.7,5.6l5.4,7.2l5.5,0l1.2,13.9l-6.2,0.2l-6,5.9
		l4.1,6.4C77.2,175.4,83.1,175.4,89.1,174.2z"/>
	<g>
		<path fill="#A02C36" d="M150.7,41.5c-1.5-1.9-3.2-3.6-5.2-5.1c1.8,1.7,3.4,3.8,4.6,6C150.3,42,150.5,41.8,150.7,41.5z"/>
		<path fill="#A02C36" d="M148.7,41.9c-0.8-0.4-1.6-0.7-2.5-1.1c0.9,0.6,1.7,1.3,2.5,1.9C148.7,42.5,148.7,42.2,148.7,41.9z"/>
		<path fill="#A02C36" d="M154.5,41.5c-0.7-1.2-1.4-2.5-2.3-3.6c0.7,1.2,1.4,2.5,1.9,3.8C154.2,41.7,154.4,41.6,154.5,41.5z"/>
	</g>
	<polygon fill="#A02C36" points="172.3,41.7 173.7,34.1 170.7,41.1 	"/>
	<polygon fill="#A02C36" points="169.7,39.8 169.1,35.6 168.7,39.8 	"/>
	<polygon fill="#A02C36" points="173.8,40.7 176.4,37.3 173.2,40 	"/>
	<path fill="#C1592B" d="M215.5,126c-0.9-7.7-2.3-16.1-4.5-25.4C200.5,55.9,172,38,172,38l-23.8,3.7l-1,44.2c0,0-24,13.8-38.5,33
		C128.2,128.2,163,137.5,215.5,126z"/>
	<path fill="#EDE8D8" d="M166.9,91.6c0,0-0.5,1.2,2.1,7.2c3.2,7.2,10.5,11,10.5,11l0.6-14.5l-5.2-1.5L166.9,91.6z"/>
	<path fill="#EDE8D8" d="M132.5,89.1c0,0,0,1.1,2.6,7.1c3.2,7.2,8.3,9.6,8.3,9.6l1.1-20.9l-5.8,5L132.5,89.1z"/>
	<path fill="#C1592B" d="M131.1,92.2c1.5,1,3.1,1.7,4.8,2.1c0.8,0.2,1.7,0.4,2.6,0.5c0.4,0.1,1.5,0.3,2.1,0.2l1.8-3.9l1.9-4.1l1-2.1
		l0.3,2.3c0.1,0.4,0.2,1,0.4,1.5c0.2,0.5,0.4,1,0.6,1.5c1.9,3.6,5.8,5.8,9.6,6.9c3,0.9,6.3,1.4,9.4,1.4l-2.4-6.8l-0.7-1.8l1.9,0.6
		l9.5,2.9l7.3,2.3c-1.4-2.4-2.9-4.8-4.3-7.3c-0.1-0.2-0.3-0.4-0.4-0.7c0,0,2.7-1.7,2.9-1.9c0.9-0.7,1.8-1.5,2.5-2.4
		c1.7-2.1,2.6-4.5,2.3-7.3c-0.1-0.8-0.3-1.6-0.5-2.4c-0.2-0.8-0.5-1.6-0.9-2.3c0.1,0.1,0.1,0.2,0.1,0.3c-0.1-0.1-0.1-0.2-0.2-0.3
		c-3.2-2-10.1-5.8-22.2-9.1c-17.4-4.7-33.7,2.6-33.7,2.6l-4.7,10.5l6.4-1.4c-0.9,0.6-2.2,2.6-2.2,9.3c0,1.3,0.1,2.6,0.4,3.9
		c0.4,0.8,0.9,1.8,1.7,2.8C129.2,90.8,130.1,91.6,131.1,92.2z"/>
	<circle fill="#A02C36" cx="141.1" cy="65.9" r="0.9"/>
	<circle fill="#A02C36" cx="137.2" cy="66.8" r="0.7"/>
	<circle fill="#A02C36" cx="139.7" cy="69.7" r="0.5"/>
	<path fill="#C1592B" d="M128.5,89.9c0,0,1.6,2.3,5.2,3.9c3.6,1.5,7.1,1.6,7.1,1.6l4-8.1c0,0,0.4,5.7,7.4,9.3
		c7,3.5,14.6,2.9,14.6,2.9l-2.9-8.1l19,5.7l-5.6-9.1c0,0,3.8-1.7,6.3-6.3c2.5-4.6-0.9-10.4-0.9-10.4"/>
	<path fill="#A02C36" d="M183.8,96.6c-1.8-2.8-3.6-5.6-5.4-8.4c4.2-2.6,7.4-7.2,6.3-12.3c-0.4-1.6-1-3.2-1.9-4.6
		c0.4,0.7,0.6,1.5,0.9,2.3c0.2,0.8,0.4,1.6,0.5,2.4c0.3,2.8-0.5,5.1-2.3,7.3c-0.7,0.9-1.6,1.7-2.5,2.4c-0.2,0.2-2.9,1.9-2.9,1.9
		c0.1,0.2,0.2,0.5,0.4,0.7c1.4,2.4,2.9,4.8,4.3,7.3l-7.3-2.3l-9.5-2.9l-1.9-0.6l0.7,1.8l2.4,6.8c-3.2,0.1-6.5-0.5-9.4-1.4
		c-3.8-1.2-7.7-3.3-9.6-6.9c-0.3-0.5-0.5-1-0.6-1.5c-0.2-0.5-0.3-1-0.4-1.5l-0.3-2.3l-1,2.1l-1.9,4.1l-1.8,3.9
		c-0.6,0.1-1.6-0.2-2.1-0.2c-0.9-0.1-1.7-0.3-2.6-0.5c-1.7-0.4-3.3-1.1-4.8-2.1c-1-0.6-1.9-1.4-2.6-2.3c0.7,1,1.5,1.8,2.5,2.5
		c2.8,2.2,6.5,3.3,9.9,3.4l0.3,0l0.1-0.3l2.1-4l1.2-2.4c0.2,0.6,0.4,1.1,0.7,1.6c0.5,1.1,1.2,2.1,2,3c4.6,5.1,13,7,19.7,6.5l1.3-0.1
		l-0.4-1.2l-2.2-6.3l7.7,2.3l9.5,2.8l2.2,0.6L183.8,96.6z"/>
	<circle fill="#A02C36" cx="177.1" cy="73.6" r="0.9"/>
	<circle fill="#A02C36" cx="173.2" cy="74.5" r="0.7"/>
	<circle fill="#A02C36" cx="175.7" cy="77.4" r="0.5"/>
	<path fill="#A02C36" d="M148.5,99.5c0,0,0.2,0.2,0.5,0.4c1.1,0.8,2.4,1.4,3.6,1.9c1.5,0.6,2.9,1.2,4.5,1.6c1.5,0.5,3.1,0.9,4.6,1.1
		c0.4,0,0.7,0,0.7,0s-0.2,0.2-0.6,0.4c-1.8,0.8-4.2,0.6-6,0.1c-2.2-0.6-4.4-1.7-6-3.3c-0.5-0.6-0.9-1.1-1.1-1.5
		C148.5,99.7,148.5,99.5,148.5,99.5z"/>
	<path fill="none" d="M130.9,92.4c2.8,2.2,6.5,3.3,9.9,3.4l0.3,0l0.1-0.3l2.1-4l1.2-2.4c0.2,0.6,0.4,1.1,0.7,1.6
		c0.5,1.1,1.2,2.1,2,3c4.6,5.1,13,7,19.7,6.5l1.3-0.1l-0.4-1.2l-2.2-6.3l7.7,2.3l9.5,2.8l2.2,0.6l-1.2-1.9c-1.8-2.8-3.6-5.6-5.4-8.4
		c4.2-2.6,7.4-7.2,6.3-12.3c-0.4-1.6-1-3.2-1.9-4.6c0.4,0.7,0.6,1.5,0.9,2.3c0.2,0.8,0.4,1.6,0.5,2.4c0.3,2.8-0.5,5.1-2.3,7.3
		c-0.7,0.9-1.6,1.7-2.5,2.4c-0.2,0.2-2.9,1.9-2.9,1.9c0.1,0.2,0.2,0.5,0.4,0.7c1.4,2.4,2.9,4.8,4.3,7.3l-7.3-2.3l-9.5-2.9l-1.9-0.6
		l0.7,1.8l2.4,6.8c-3.2,0.1-6.5-0.5-9.4-1.4c-3.8-1.2-7.7-3.3-9.6-6.9c-0.3-0.5-0.5-1-0.6-1.5c-0.2-0.5-0.3-1-0.4-1.5l-0.3-2.3
		l-1,2.1l-1.9,4.1l-1.8,3.9c-0.6,0.1-1.6-0.2-2.1-0.2c-0.9-0.1-1.7-0.3-2.6-0.5c-1.7-0.4-3.3-1.1-4.8-2.1c-1-0.6-1.9-1.4-2.6-2.3
		c0.1,0.1,0.2,0.2,0.2,0.3c0.2,0.3,0.5,0.6,0.8,0.8c-0.3-0.3-0.5-0.5-0.8-0.8C129.3,91,130.1,91.8,130.9,92.4z"/>
	<path fill="none" d="M183.7,73.7c0.2,0.8,0.4,1.6,0.5,2.4c0.3,2.8-0.5,5.1-2.3,7.3c-0.7,0.9-1.6,1.7-2.5,2.4
		c-0.2,0.2-2.9,1.9-2.9,1.9c0.1,0.2,0.2,0.5,0.4,0.7c1.4,2.4,2.9,4.8,4.3,7.3l-7.3-2.3l-9.5-2.9l-1.9-0.6l0.7,1.8l2.4,6.8
		c-3.2,0.1-6.5-0.5-9.4-1.4c-3.8-1.2-7.7-3.3-9.6-6.9c-0.3-0.5-0.5-1-0.6-1.5c-0.2-0.5-0.3-1-0.4-1.5l-0.3-2.3l-1,2.1l-1.9,4.1
		l-1.8,3.9c-0.6,0.1-1.6-0.2-2.1-0.2c-0.9-0.1-1.7-0.3-2.6-0.5c-1.7-0.4-3.3-1.1-4.8-2.1c-1-0.6-1.9-1.4-2.6-2.3
		c0.1,0.1,0.1,0.2,0.2,0.3c0.6,0.8,1.4,1.5,2.2,2.2c2.8,2.2,6.5,3.3,9.9,3.4l0.3,0l0.1-0.3l2.1-4l1.2-2.4c0.2,0.6,0.4,1.1,0.7,1.6
		c0.5,1.1,1.2,2.1,2,3c4.6,5.1,13,7,19.7,6.5l1.3-0.1l-0.4-1.2l-2.2-6.3l7.7,2.3l9.5,2.8l2.2,0.6l-1.2-1.9c-1.8-2.8-3.6-5.6-5.4-8.4
		c4.2-2.6,7.4-7.2,6.3-12.3c-0.3-1.5-0.9-3-1.7-4.4c0.2,0.3,0.3,0.6,0.4,0.8c-0.1-0.2-0.2-0.5-0.4-0.8c-0.1-0.1-0.1-0.2-0.1-0.3
		C183.2,72.1,183.5,72.9,183.7,73.7z"/>
	<path fill="none" d="M128.5,89.9c0.1,0.1,0.2,0.2,0.2,0.3C128.6,90.1,128.6,90,128.5,89.9C128.5,89.9,128.5,89.9,128.5,89.9z"/>
	<path fill="#A02C36" d="M180.4,71.9c0,0,0,0-0.1-0.1c0-0.1-0.1-0.2,0-0.3c0-0.1,0.1-0.4,0.2-0.5c0.1-0.2,0.3-0.4,0.5-0.5
		c0.2-0.1,0.5-0.3,0.7-0.3c0.3-0.1,0.5-0.1,0.8-0.2c0.2,0,0.3,0,0.5,0c0.1,0,0.3,0,0.4,0c0.3,0,0.7,0.1,1,0.2
		c1.2,0.3,2.1,1.1,2.7,1.8c0.3,0.3,0.5,0.7,0.6,0.9c0.1,0.2,0.1,0.4,0.1,0.4s-0.2,0-0.4-0.1c-0.2-0.1-0.6-0.2-1-0.3
		c-0.8-0.2-1.7-0.6-2.6-0.8c-0.2-0.1-0.4-0.1-0.6-0.2c-0.1,0-0.3,0-0.4-0.1c0,0-0.2,0-0.3-0.1c-0.2,0-0.4-0.1-0.6-0.1
		c-0.2,0-0.4,0-0.5-0.1c-0.3,0-0.6,0-0.8,0.1C180.5,71.8,180.4,71.9,180.4,71.9z"/>
	<path fill="#25221D" d="M160.4,72.2c5.4,0,10.1-2.5,12-6.1c-3.2-1.3-7.1-2.6-11.7-3.9c-4.5-1.2-8.9-1.6-12.9-1.6
		c-0.2,0.6-0.2,1.2-0.2,1.8C147.5,67.8,153.3,72.2,160.4,72.2z"/>
	<path fill="#52687E" d="M150,63.7c-0.9,0-1.7,0.4-2.1,1.1c0.5,1.6,1.6,3,3,4.2c1.1-0.3,1.9-1.4,1.9-2.6
		C152.7,64.9,151.5,63.7,150,63.7z"/>
	<path fill="#52687E" d="M163.5,67.4c-2.2,0-4,1.8-4,4c0,0.3,0,0.5,0.1,0.8c0.3,0,0.6,0,0.9,0c2.6,0,5-0.6,7-1.6
		C167.1,68.8,165.4,67.4,163.5,67.4z"/>
	
		<ellipse transform="matrix(0.9993 -3.624912e-02 3.624912e-02 0.9993 -1.9437 5.7729)" fill="#A02C36" cx="158.2" cy="56.5" rx="7.1" ry="9.5"/>
	<path fill="#A02C36" d="M173.9,60.8c-2.1,4.1-6.3,6.1-9.4,4.5c-3.1-1.6-4.6-7.5-2.5-11.6c2.1-4.1,7-4.8,10.1-3.2
		C175.3,52.1,176,56.7,173.9,60.8z"/>
	
		<ellipse transform="matrix(0.9993 -3.626688e-02 3.626688e-02 0.9993 -1.9548 5.7795)" fill="#EDE8D8" cx="158.3" cy="56.8" rx="5.6" ry="7.4"/>
	<ellipse transform="matrix(0.458 -0.889 0.889 0.458 38.6606 179.6814)" fill="#EDE8D8" cx="166.7" cy="58.1" rx="6.9" ry="5.2"/>
	<ellipse fill="#25221D" cx="158.9" cy="57" rx="2.8" ry="3.7"/>
	<ellipse fill="#25221D" cx="165.9" cy="58.8" rx="2.3" ry="3.1"/>
	
		<ellipse transform="matrix(0.9993 -3.624912e-02 3.624912e-02 0.9993 -1.9437 5.7729)" fill="#C1592B" cx="158.2" cy="56.5" rx="7.1" ry="9.5"/>
	<path fill="#C1592B" d="M173.9,60.8c-2.1,4.1-6.3,6.1-9.4,4.5c-3.1-1.6-4.6-7.5-2.5-11.6c2.1-4.1,7-4.8,10.1-3.2
		C175.3,52.1,176,56.7,173.9,60.8z"/>
	<path fill="#25221D" d="M160.4,72.2c5.4,0,10.1-2.5,12-6.1c-3.2-1.3-7.1-2.6-11.7-3.9c-4.5-1.2-8.9-1.6-12.9-1.6
		c-0.2,0.6-0.2,1.2-0.2,1.8C147.5,67.8,153.3,72.2,160.4,72.2z"/>
	<path fill="#A02C36" d="M160.7,61.4c-4.3,0-7.8-3.2-8-7.2c-0.7,1-1.1,2.2-1.1,3.5c0,3.4,2.6,6.1,5.9,6.1c2,0,3.7-1,4.7-2.5
		C161.7,61.4,161.2,61.4,160.7,61.4z"/>
	<path fill="#A02C36" d="M174.3,58.3c-3.2,2.8-8,2.7-10.8-0.1c0.1,1.2,0.6,2.3,1.5,3.3c2.2,2.5,6,2.8,8.4,0.7c1.5-1.3,2.1-3.2,1.9-5
		C175,57.6,174.7,58,174.3,58.3z"/>
	<path fill="#751A14" d="M163.8,37.2c-3,2.2-6.7,3.9-10.9,4.8c-0.3-0.7-0.3-0.8-0.5-1.5c4-0.8,7.1-3,10-5.1
		C162.8,35.9,163.3,36.6,163.8,37.2z"/>
	<path fill="#751A14" d="M166,41.9c3.4,0.4,6.5,2.2,9.8,4.2c-0.2,0.7-0.1,0.6-0.4,1.3c-3.1-1.9-6.5-3-9.6-3.4
		C166,43.3,166,42.6,166,41.9z"/>
	<path fill="#87298C" d="M137.3,38.3c0,0,0.3-4-1.3-5.9c-1.2-1.4-2.4-1.8-3.1-1.4c-0.7,0.4,0.7,3.1,0.7,3.1s-2.2-1.3-2.8-0.2
		c-0.6,1.1,1.5,2,1.5,2s-2.9-0.1-2.8,1.2c0.1,1.3,2.2,1.2,2.2,1.2s-2.2,0.5-2.1,1.7c0.1,1.2,3.3,1.7,3.4,1.6
		C133,41.6,137.1,38.5,137.3,38.3z"/>
	<path fill="#27B24B" d="M130.3,48.2c0,0,1.1-11.6,6.6-11.6c5.5,0,4.6,13.5,4.6,13.5h-2.2c0,0-0.9,5.5-4.7,5.2
		C130.9,55.1,130.3,48.2,130.3,48.2z"/>
	<path fill="#3D5059" d="M136.9,36.6c0,0-0.1,0-0.1,0v18.1c2-1.4,2.6-4.7,2.6-4.7h2.2C141.5,50.1,142.5,36.6,136.9,36.6z"/>
	<path fill="#25221D" d="M135.9,43.9c-1.1,0.9-2.6,0.9-3.5,0c0,0.4,0.2,0.8,0.5,1.1c0.7,0.8,1.9,0.9,2.8,0.2c0.5-0.4,0.7-1,0.7-1.6
		C136.1,43.7,136,43.8,135.9,43.9z"/>
	<path fill="#25221D" d="M136,48.9c0,0,0.4,0.1,0.9,0.3c0.5,0.1,1.2,0.3,1.8,0.4c0.3,0.1,0.6,0.1,1,0.1c0.3,0,0.7,0.1,0.9,0.2
		c0.5,0.1,0.9,0.3,0.9,0.3s-0.4,0.2-0.9,0.3c-0.3,0.1-0.6,0.1-0.9,0.2c-0.3,0-0.7,0.1-1.1,0c-0.4-0.1-0.8-0.2-1.1-0.4
		c-0.3-0.2-0.6-0.4-0.8-0.6C136.2,49.2,136,48.9,136,48.9z"/>
	<polygon fill="#27B24B" points="133.9,54.1 130.3,58.2 133.4,59 	"/>
	<polygon fill="#27B24B" points="134.8,55 135.8,58.6 138.4,57 	"/>
	<path fill="#87298C" d="M130.9,47.3c0,0-0.2-2.1-1.2-4.5c-1.1-2.4-2.9-3-2.9-3s-1.2,2.3-0.3,4.5c0.9,2.2,3.3,2.9,3.3,2.9
		s-1.1,0.6-2,2.2c-0.8,1.6-0.9,5.1-0.9,5.1s1.1-0.2,2.6-2C130.9,50.8,130.9,47.3,130.9,47.3z"/>
	
		<ellipse transform="matrix(0.9999 -1.108776e-02 1.108776e-02 0.9999 -0.7483 1.8574)" opacity="0.2" fill="#55C9F4" cx="167.1" cy="68.4" rx="59.8" ry="59.8"/>
	<path fill="#284180" d="M212.5,111.5c0,0,17.1,8.4,25.2,28.9c8.1,20.5,5.1,42.7,5.1,42.7l-36-2.1c0,0,0.4-2.4,1.2-4.7
		c4.5-13.6,7.2-50.7-0.3-53.3C206.2,122.5,212.5,111.5,212.5,111.5z"/>
	<path fill="#F1CD2E" d="M208,176.3c-0.1,0.4-0.3,0.9-0.4,1.3l7.4,3.3l5.6-3l1.7-11.8l10.7,0.4l-0.4,10l6.9,2.2l3.9-2.7
		c0.1-3.2,0.1-7.3-0.3-11.9l-31.9-3.3C210.3,167,209.2,172.5,208,176.3z"/>
	<ellipse fill="#EC9F21" cx="238.8" cy="173.3" rx="2.4" ry="2.4"/>
	<ellipse fill="#EC9F21" cx="214.5" cy="173.7" rx="2.4" ry="2.4"/>
	<path fill="#C1592B" d="M106.1,118.9c-1.7,2.2-3.4,4.5-4.8,6.9c-13.6,22.6-9.1,51.8-9.1,51.8c45.3,17.5,91.1,21.1,124.5-3.9
		c0,0,1.9-20.5-1.7-49.9C160.8,135.3,126.3,128.2,106.1,118.9z"/>
	<polygon fill="#EDE8D8" points="126.5,147.9 140.9,149.6 147.8,140.6 149.5,151.2 158.5,152.1 161.8,147.5 165.5,152.5 
		180.3,152.5 173.1,121.5 132,117 	"/>
	<path fill="#284180" d="M103.9,148.1l6.9-7.6l-0.5,8.1l21.1,2.5l3.8-35.8l-14.5-10.1c-7.9,5.2-15.7,11.9-20.7,20.1
		c-3.6,5.9-5.6,12.6-6.6,19.2L103.9,148.1z"/>
	<path fill="#284180" d="M167.4,120.5l4.1,34.4h17.2l3.9-8.6l5.2,9l11.6,0.4l3.4-8.2l7.3,7c0,0-0.7-23-3.2-33.9
		c-2.6-10.9-4.9-9.9-4.9-9.9s-11.8,4.1-24.7,8.7C174.4,124,167.4,120.5,167.4,120.5z"/>
	<path fill="#EC9F21" d="M177.2,141.2c0,0,1.7-4.8,3.4-3.2c1.8,1.7-2.4,3.9-2.4,3.9s3.8,0.1,2.6,2.1c-1.2,2.1-3.8-0.7-3.8-0.7
		L177.2,141.2z"/>
	
		<ellipse transform="matrix(6.916109e-02 -0.9976 0.9976 6.916109e-02 21.5819 307.9051)" fill="#F1CD2E" cx="175.8" cy="142.4" rx="2.6" ry="2.6"/>
	<path fill="#EC9F21" d="M125.4,136.2c0,0-2-4.7-3.6-2.9c-1.6,1.8,2.6,3.8,2.6,3.8s-3.8,0.3-2.5,2.3c1.3,2,3.7-1,3.7-1L125.4,136.2z
		"/>
	
		<ellipse transform="matrix(0.9903 -0.1387 0.1387 0.9903 -17.8174 18.9201)" fill="#F1CD2E" cx="126.9" cy="137.3" rx="2.6" ry="2.6"/>
	<g>
		<path fill="#25221D" d="M89.8,157.9c0,0,18.2-2.6,65.6,1.2c47.4,3.8,62.5,5.3,62.5,5.3l0.8,17.6l-127.5,1.3L89.8,157.9z"/>
		<path fill="#CBD7DC" d="M134.2,157.1l1.2,26.2l30.6-0.1l1.6-24.3L134.2,157.1z M162.3,180l-23.7,0.6v-9.1v-5.6v-4.6l25.1,1.8
			L162.3,180z"/>
		<path fill="#CBD7DC" d="M137.6,167.7c0.1,0,5.2,1,5.2,1v3.3l-4.9,0.4L137.6,167.7z"/>
		<polygon fill="#614B45" points="121.3,162.2 122.7,183 122,183 120.7,162.2 		"/>
		<polygon fill="#614B45" points="114.1,163 114.3,183.1 115.2,183.1 114.4,162.9 		"/>
		<polygon fill="#614B45" points="96.4,164.8 97.1,183.3 97.8,183.3 97.1,164.8 		"/>
		<path fill="#EC9F21" d="M96.4,164.8l24.9-2.6c0,0-3.7-14-14.5-11.6C106.9,150.6,96.3,150.8,96.4,164.8"/>
		<path fill="#F1CD2E" d="M106.2,150.7c0,0,6.8-1.4,7.8,12.3l7.3-0.7C121.3,162.2,119.3,148.3,106.2,150.7z"/>
		<path fill="#52687E" d="M110.7,163.3c0,0,0.1-8.9-5.6-7.4c0,0-4.9,1.2-4,8.4L110.7,163.3z"/>
		<path fill="#EC9F21" d="M115.2,156.9l0.2-0.9l2.1,0.3c0,0,2.5,2.2,2.7,6l-2.2,0.2L115.2,156.9z"/>
		<path fill="#52687E" d="M115.9,162.8c0,0,0.5-3.2-0.6-5.9l2.3,0.3c0,0,1.7,2.1,2.1,5.2L115.9,162.8z"/>
		<path fill="#25221D" d="M118.1,158l-2.5-0.2c0.1,0.2,0.1,0.4,0.1,0.5l2.6,0.1C118.2,158.3,118.1,158.1,118.1,158z"/>
		<path fill="#25221D" d="M119.2,160.4l-3.2-0.2c0,0.2,0,0.4,0,0.5l3.3,0.1C119.2,160.7,119.2,160.5,119.2,160.4z"/>
		<path fill="#614B45" d="M202.9,182.2V163c-0.2,0-0.4,0-0.6-0.1c-0.2,6.8-6.3,9.3-6.3,9.3c-9.6,2.4-12.1-8.9-12.4-10.8
			c-0.4,0-0.8-0.1-1.1-0.1l-1.3,21.1l0.7,0l1.5-18.9c1.9,10.2,10.8,9.6,10.8,9.6c5.5-0.5,7.5-5.1,8.1-8l-0.5,17.1L202.9,182.2z"/>
		<circle fill="#CBD7DC" cx="193.3" cy="169" r="1.7"/>
	</g>
	<g>
		<g>
			<path fill="#F1CD2E" d="M122.8,111.1c0,0-0.1,12.8-3.7,13.3c-3.6,0.5-1.1-5-1.1-5s-3.8,7.6-6.2,7c-2.4-0.6,0.1-7.9,0.1-7.9
				s-3.1,5.9-6.4,4.7c-3.3-1.3,0.4-5.9,0.4-5.9s-7.9,3.7-9.2,1.3c-1.3-2.4,3.8-6.8,3.8-6.8s-4.9,4.8-7,2.5
				c-2.1-2.3,11.3-13.3,11.3-13.3L122.8,111.1z"/>
			<path fill="#EC9F21" d="M126.3,111.7L104.6,95l-1.1,2.8c0,0-2.6,7.6,4.3,13C114.7,116.2,126.3,111.7,126.3,111.7z"/>
			<path fill="#F1CD2E" d="M127.4,108.9L104.6,95c0,0-2.6,7.6,4.3,13C115.8,113.4,127.4,108.9,127.4,108.9z"/>
		</g>
		<path fill="#A91E33" d="M119.7,104.1c0,0-5.9,10-6.2,21.4l79.8,7.8c0,0,9.7-13.3,24.7-19.1l-12-4.4
			C206,109.9,157.7,123.7,119.7,104.1"/>
		<path fill="#751B16" d="M122.5,105.5c0,0-1.9,10.5,7.7,21.7l-16.7-1.6c0,0-0.4-11.1,6.2-21.4L122.5,105.5z"/>
		<path fill="#751B16" d="M193.4,112.2c0,0-16.5,5.9-14.2,19.7l14.3,1.4c0,0,10-13.1,24.7-19.1l-5.9-7.3L193.4,112.2z"/>
		<path fill="#F1CD2E" d="M207.2,112.1c0,0-4.9,12.9-1.5,14.8c3.4,1.9,3-4.5,3-4.5s0.8,9.1,3.4,9.5c2.6,0.4,3-7.9,3-7.9
			s0.8,7.2,4.5,7.2c3.8,0,1.9-6.1,1.9-6.1s6.4,6.8,8.7,4.9c2.3-1.9-1.1-8.3-1.1-8.3s3,6.8,6.1,5.3c3-1.5-6.1-17.8-6.1-17.8
			L207.2,112.1z"/>
		<path fill="#EC9F21" d="M203.4,111.3v-3.3l28.4-4.9v3.3c0,0-0.4,8.7-9.5,11.4C213.2,120.4,203.4,111.3,203.4,111.3z"/>
		<path fill="#F1CD2E" d="M203.4,108.1l28.4-4.9c0,0-0.4,8.7-9.5,11.4C213.2,117.1,203.4,108.1,203.4,108.1z"/>
		<circle fill="#A91E33" cx="196.8" cy="119" r="3.4"/>
		<polygon fill="#751B16" points="197.2,114.1 195,123.2 195.9,123.6 199,113.9 		"/>
		<polygon fill="#751B16" points="145.9,125.3 144.3,125.2 146.4,117.2 148,117.3 		"/>
		<polygon fill="#751B16" points="151.8,125.8 150.2,125.7 152.3,117.7 153.9,117.8 		"/>
		<polygon fill="#751B16" points="154.9,126.1 153.3,126.1 155.4,118.1 157,118.1 		"/>
		<polygon fill="#751B16" points="148.9,125.6 147.3,125.5 149.4,117.5 151,117.6 		"/>
	</g>
	<g>
		<path opacity="0.1" fill="#384E7D" d="M299.6,225.7c17.2-7.5,88.9-9.6,129-9.8c57.2-0.3,103.7,9.7,103.7,22.4
			c0.1,12.7-46.2,23.3-103.5,23.6c-33.2,0.2-70.6-4.2-85.3-17.1l-32.3,0.9C282.4,242.3,290.6,229.5,299.6,225.7z"/>
		<g>
			<path opacity="0.75" fill="#8ED6EC" d="M470.9,22.1c-1.8-0.6-3.5-1.7-4.9-3c-2.7,3.2-6.7,5.3-11.1,5.3
				c-6.1,0.1-11.3-3.6-13.7-8.9c-2.1,4.6-6.7,7.8-12.1,7.9c-4.3,0-8.2-2-10.7-5.2c-2.8,4.8-7.8,8-13.7,8.1c-1.7,0-3.3-0.2-4.8-0.7
				c-11.6,10.6-18.8,26-18.6,43.1c0.3,31.5,25.8,56.8,56.8,56.5c31-0.3,55.9-26.2,55.5-57.7C493.5,48.8,484.5,32.4,470.9,22.1z"/>
			<circle fill="#CFECFB" cx="414.1" cy="31.7" r="2.2"/>
			<circle fill="#CFECFB" cx="464" cy="47.8" r="3.5"/>
			<circle fill="#CFECFB" cx="451.3" cy="33.9" r="2.3"/>
			<circle fill="#CFECFB" cx="469.2" cy="34.8" r="4.1"/>
			<circle fill="#CFECFB" cx="421.6" cy="32.6" r="1.4"/>
			<circle fill="#CFECFB" cx="389.7" cy="63.9" r="2.4"/>
			<circle fill="#CFECFB" cx="389.7" cy="73.1" r="1.3"/>
			<circle fill="#CFECFB" cx="469.7" cy="55.5" r="1.3"/>
			<circle fill="#CFECFB" cx="478.1" cy="69.5" r="1.3"/>
			<circle fill="#CFECFB" cx="482.2" cy="56.9" r="2.8"/>
		</g>
		<path fill="#994627" d="M396.9,199.2c0,0,3,21.8-15.7,38.6c0,0-6.1,5.8-2.7-4.9c0,0,2.5-5.6-6.6-23.5c0,0,2.8-25,3.3-25.1
			c0.5-0.2,17.9-0.5,17.9,0C393.2,184.7,396.9,199.2,396.9,199.2"/>
		<path fill="#994627" d="M416.4,202.9c0,0-3,21.8,15.7,38.6c0,0,6.2,5.5,3.5-5.2c0,0-2.2-8.2,5.7-23.2c0,0-2.8-24.9-3.3-25.1
			c-0.5-0.2-17.9-0.5-17.9,0C420.1,188.5,416.4,202.9,416.4,202.9"/>
		<path fill="#C1592B" d="M493.1,240.6c0,0-10.6-7.8-8.4-31.1c0,0,1.6-10.8,3.6-26c0,0,1.7-9.2,2.9-23.3
			c-43.5-11.9-86.9-12.7-130.1,0c0,1.8,0,3.6,0.2,5.4c0,0,1.1,17.3,2.5,24.5c0,0,6.5,30.8-10.1,43.9c0,0-10.3,7.3,3.5,5.5
			c0,0,26.9-0.3,32.2-28.9c0,0-1.3,24.4,16.3,33.7c0,0,13.7,7.7,6-3.3c0,0-5.1-11,6.2-28c0,0,6.1-6.7,7.1-19.3
			c0.7,6.1,2.7,14,8.1,19.4c0,0,9,6.3,24.4-2c0,0,0.4-1.2,0.9-3.1c1.2,15,7,32,26.8,36.2C485.4,244.3,508.2,249.3,493.1,240.6"/>
		<path fill="#ECE7D7" d="M487,195.1c0,0-29.1,3.2-28.9,3.5c0.1,0.3-0.6,21.7,7.1,31.8l19.8-7.1C485,223.3,483.3,213.5,487,195.1"/>
		<path fill="#ECE7D7" d="M424.5,197.6l-34.4-1.1c0,0-2.9,16.4,2.2,31.3l18.6,3.8c0,0,2.5-11.9,9-21
			C419.9,210.7,424.2,203.9,424.5,197.6"/>
		<polygon fill="#A48B7F" points="460.4,202.5 486.6,197.3 486.6,198.1 460.2,203.6 		"/>
		<polygon fill="#A48B7F" points="462.3,208.9 485.1,207.6 484.9,208.3 462.5,210.1 		"/>
		<polygon fill="#A48B7F" points="481.3,208.6 462.1,224.3 462.1,224.9 482.9,208.4 		"/>
		<path fill="#A48B7F" d="M467.3,220.8c0.2-0.1,17.4,0,17.4,0v0.6l-19,0.6L467.3,220.8z"/>
		<polygon fill="#A48B7F" points="389.6,200.9 420.9,208.9 420.2,210.1 389.6,201.6 		"/>
		<polygon fill="#A48B7F" points="389.3,211.2 418.8,212.2 418.1,213.1 389.4,211.7 		"/>
		<polygon fill="#A48B7F" points="390.1,217.6 412,227.5 411.6,228.6 389.9,218.2 		"/>
		<polygon fill="#672E1D" points="444.2,225 450.2,248.7 456.7,247.9 454.6,224.3 		"/>
		<polygon fill="#421B0D" points="446.3,233.3 455.2,231.3 454.8,226.4 444.8,227.4 		"/>
		<polygon fill="#672E1D" points="428,212.6 462.1,206.8 463.8,219.9 433.1,226.9 		"/>
		<polygon fill="#672E1D" points="438.4,224.3 442.8,230.4 457,228.1 458,219.6 		"/>
		<path fill="#8F4432" d="M428,212.6l34.1-5.7c0,0,0.9,8.9-13,11.9C449.1,218.8,433.9,220.7,428,212.6"/>
		<path fill="#C1592B" d="M425.3,180.5c0,0-4.8,22.4,9.9,34.9c0,0,13.2,1.1,22.9-3.2c0,0,5.5-15.5,2.9-34.5L425.3,180.5z"/>
		<polygon fill="#421B0D" points="439.3,225.5 457.8,221.3 457.6,223.7 440.3,226.9 		"/>
		<g>
			<path fill="#25221D" d="M335.4,139c0,0,0.8,1,1.8,1c1,0,9.6-0.5,9.6-0.5l-0.5,29.4l-14.4,3.1c0,0-0.5-18.3-0.5-18.8
				C331.5,152.9,335.4,139,335.4,139z"/>
			<g>
				<path fill="#25221D" d="M336.3,139.5c0,0,13.2-29.2-11.7-36.5c-24.8-7.3-42.4,39.5-42.4,39.5l13.2,5.8c0,0-2.9,16.8,8,23.4
					c11,6.6,30.4,0,30.4,0L336.3,139.5z"/>
				<path fill="#C8A15F" d="M323.2,174c6-0.9,10.6-2.4,10.6-2.4l1.7-22.5l-8.7,2.2l-1.5-8.9l-14.4,2.1l-1.8-8.9l-16.2,2.1l-4.8-8.2
					c-3.8,7.1-6,12.7-6,12.7l13.2,5.8c0,0-0.4,2.5-0.3,5.9l12.9-1.9l5.5,4.9l11.3-1.5L323.2,174z"/>
				<path fill="#7C6C36" d="M282.2,142.4c1.2,0.4,2.3,0.7,3.5,1.1c1.1,0.4,2.3,0.8,3.4,1.2c1.1,0.4,2.3,0.8,3.4,1.2
					c1.1,0.4,2.3,0.8,3.4,1.3l-0.7-0.1l5.4-1.6c1.8-0.5,3.6-1,5.5-1.5l0.8-0.2l0.7,0.7c1.2,1.1,2.3,2.3,3.4,3.5l3.4,3.5l-1.4-0.5
					c1.9-0.3,3.9-0.6,5.8-0.9c1.9-0.3,3.9-0.5,5.8-0.8l1.9-0.3l-0.2,1.8c-0.2,1.9-0.4,3.9-0.6,5.8l-0.3,2.9c-0.1,1-0.2,1.9-0.4,2.9
					c-0.2,1.9-0.5,3.9-0.8,5.8c-0.3,1.9-0.6,3.9-0.9,5.8c-0.1-2-0.2-3.9-0.2-5.9c0-2-0.1-3.9,0-5.9c0-1,0-1.9,0-2.9l0.1-2.9
					c0-1.9,0.1-3.9,0.2-5.8l1.7,1.6c-1.9,0.3-3.9,0.7-5.8,1c-1.9,0.3-3.9,0.6-5.8,1l-0.8,0.1l-0.6-0.6l-3.3-3.5
					c-1.1-1.2-2.2-2.4-3.3-3.6l1.5,0.4c-1.8,0.4-3.7,0.8-5.5,1.2l-5.6,1.1l-0.4,0.1l-0.3-0.2c-1.1-0.5-2.1-1.1-3.2-1.7
					c-1.1-0.5-2.1-1.1-3.2-1.7c-1.1-0.6-2.1-1.1-3.2-1.7C284.2,143.6,283.2,143,282.2,142.4z"/>
				<circle fill="#52687E" cx="305.4" cy="122" r="3.8"/>
				<circle fill="#52687E" cx="324.9" cy="112.3" r="2"/>
				<circle fill="#52687E" cx="311.1" cy="161.6" r="2"/>
				<circle fill="#52687E" cx="320.1" cy="126.5" r="2"/>
				<circle fill="#52687E" cx="327.4" cy="135.7" r="3.7"/>
				<circle fill="#52687E" cx="317.1" cy="172.4" r="2.5"/>
				<circle fill="#52687E" cx="300.5" cy="166.9" r="3.7"/>
				<circle fill="#52687E" cx="307.9" cy="107.3" r="4"/>
				<circle fill="#52687E" cx="337.8" cy="121.7" r="3.1"/>
			</g>
		</g>
		<g>
			<path fill="#C1592B" d="M484.1,182.7c0,0-3,8.3,6.9,16.1c9.9,7.8,17.6,6.1,17.6,6.1l-1.7-5.2l9.4,1.3l-6-5.2l11.6-4.8l-10.7-3.9
				l0.9-12.6l-23.6-4.4L484.1,182.7z"/>
			<g>
				<line fill="#C1592B" x1="501.7" y1="188.8" x2="494.8" y2="196.6"/>
				<path fill="#A02C36" d="M501.7,188.8c0,0,0,0.2-0.1,0.5c-0.1,0.3-0.2,0.7-0.4,1.2c-0.4,0.9-1.1,2.1-2,3c-0.9,1-1.9,1.8-2.7,2.4
					c-0.4,0.3-0.8,0.5-1.1,0.6c-0.3,0.1-0.5,0.2-0.5,0.2s0-0.2,0.1-0.5c0.1-0.3,0.2-0.7,0.4-1.2c0.4-0.9,1.1-2.1,2-3
					c0.9-1,1.9-1.8,2.7-2.4c0.4-0.3,0.8-0.5,1.1-0.6C501.5,188.8,501.7,188.8,501.7,188.8z"/>
			</g>
			<g>
				<line fill="#C1592B" x1="499.6" y1="184" x2="492.8" y2="191.8"/>
				<path fill="#A02C36" d="M499.6,184c0,0-0.3,0.6-0.8,1.4c-0.3,0.4-0.6,0.9-1,1.4c-0.4,0.5-0.8,1-1.2,1.5
					c-0.2,0.2-0.4,0.5-0.7,0.7c-0.2,0.2-0.4,0.5-0.7,0.7c-0.4,0.4-0.8,0.8-1.2,1.1c-0.7,0.7-1.3,1-1.3,1s0.3-0.6,0.8-1.4
					c0.3-0.4,0.6-0.9,1-1.4c0.2-0.2,0.4-0.5,0.6-0.7c0.2-0.2,0.4-0.5,0.6-0.7c0.4-0.5,0.9-1,1.3-1.4c0.4-0.4,0.8-0.8,1.2-1.1
					C499.1,184.4,499.6,184,499.6,184z"/>
			</g>
		</g>
		<path fill="#284180" d="M383.5,113.5l-14.1-2.3c0,0,2.3,19.3-10.7,22.7c-13,3.4-21.9,1.1-21.9,1.1l-5.9,37.9
			c0,0,22.1,6.3,38.6-2.4c16.5-8.7,18.7-44.7,18.7-44.7L383.5,113.5z"/>
		<circle fill="#EC9F21" cx="346.3" cy="141.2" r="2.6"/>
		<circle fill="#EC9F21" cx="346.9" cy="169.1" r="2.6"/>
		<path fill="#F1CD2E" d="M359.1,174.2l-1.9-39.9c-6.3,1.5-11.6,1.6-15.2,1.4l-3.7,5.6l5.4,7.2l5.5,0l1.2,13.9l-6.2,0.2l-6,5.9
			l4.1,6.4C347.2,175.4,353.1,175.4,359.1,174.2z"/>
		<g>
			<path fill="#A02C36" d="M420.7,41.5c-1.5-1.9-3.2-3.6-5.2-5.1c1.8,1.7,3.4,3.8,4.6,6C420.3,42,420.5,41.8,420.7,41.5z"/>
			<path fill="#A02C36" d="M418.7,41.9c-0.8-0.4-1.6-0.7-2.5-1.1c0.9,0.6,1.7,1.3,2.5,1.9C418.7,42.5,418.7,42.2,418.7,41.9z"/>
			<path fill="#A02C36" d="M424.5,41.5c-0.7-1.2-1.4-2.5-2.3-3.6c0.7,1.2,1.4,2.5,1.9,3.8C424.2,41.7,424.4,41.6,424.5,41.5z"/>
		</g>
		<polygon fill="#A02C36" points="442.3,41.7 443.7,34.1 440.7,41.1 		"/>
		<polygon fill="#A02C36" points="439.7,39.8 439.1,35.6 438.7,39.8 		"/>
		<polygon fill="#A02C36" points="443.8,40.7 446.4,37.3 443.2,40 		"/>
		<path fill="#C1592B" d="M485.5,126c-0.9-7.7-2.3-16.1-4.5-25.4C470.5,55.9,442,38,442,38l-23.8,3.7l-1,44.2c0,0-24,13.8-38.5,33
			C398.2,128.2,433,137.5,485.5,126z"/>
		<path fill="#EDE8D8" d="M436.9,91.6c0,0-0.5,1.2,2.1,7.2c3.2,7.2,10.5,11,10.5,11l0.6-14.5l-5.2-1.5L436.9,91.6z"/>
		<path fill="#EDE8D8" d="M402.5,89.1c0,0,0,1.1,2.6,7.1c3.2,7.2,8.3,9.6,8.3,9.6l1.1-20.9l-5.8,5L402.5,89.1z"/>
		<path fill="#C1592B" d="M401.1,92.2c1.5,1,3.1,1.7,4.8,2.1c0.8,0.2,1.7,0.4,2.6,0.5c0.4,0.1,1.5,0.3,2.1,0.2l1.8-3.9l1.9-4.1
			l1-2.1l0.3,2.3c0.1,0.4,0.2,1,0.4,1.5c0.2,0.5,0.4,1,0.6,1.5c1.9,3.6,5.8,5.8,9.6,6.9c3,0.9,6.3,1.4,9.4,1.4l-2.4-6.8l-0.7-1.8
			l1.9,0.6l9.5,2.9l7.3,2.3c-1.4-2.4-2.9-4.8-4.3-7.3c-0.1-0.2-0.3-0.4-0.4-0.7c0,0,2.7-1.7,2.9-1.9c0.9-0.7,1.8-1.5,2.5-2.4
			c1.7-2.1,2.6-4.5,2.3-7.3c-0.1-0.8-0.3-1.6-0.5-2.4c-0.2-0.8-0.5-1.6-0.9-2.3c0.1,0.1,0.1,0.2,0.1,0.3c-0.1-0.1-0.1-0.2-0.2-0.3
			c-3.2-2-10.1-5.8-22.2-9.1c-17.4-4.7-33.7,2.6-33.7,2.6l-4.7,10.5l6.4-1.4c-0.9,0.6-2.2,2.6-2.2,9.3c0,1.3,0.1,2.6,0.4,3.9
			c0.4,0.8,0.9,1.8,1.7,2.8C399.2,90.8,400.1,91.6,401.1,92.2z"/>
		<circle fill="#A02C36" cx="411.1" cy="65.9" r="0.9"/>
		<circle fill="#A02C36" cx="407.2" cy="66.8" r="0.7"/>
		<circle fill="#A02C36" cx="409.7" cy="69.7" r="0.5"/>
		<path fill="#C1592B" d="M398.5,89.9c0,0,1.6,2.3,5.2,3.9c3.6,1.5,7.1,1.6,7.1,1.6l4-8.1c0,0,0.4,5.7,7.4,9.3
			c7,3.5,14.6,2.9,14.6,2.9l-2.9-8.1l19,5.7l-5.6-9.1c0,0,3.8-1.7,6.3-6.3c2.5-4.6-0.9-10.4-0.9-10.4"/>
		<path fill="#A02C36" d="M453.8,96.6c-1.8-2.8-3.6-5.6-5.4-8.4c4.2-2.6,7.4-7.2,6.3-12.3c-0.4-1.6-1-3.2-1.9-4.6
			c0.4,0.7,0.6,1.5,0.9,2.3c0.2,0.8,0.4,1.6,0.5,2.4c0.3,2.8-0.5,5.1-2.3,7.3c-0.7,0.9-1.6,1.7-2.5,2.4c-0.2,0.2-2.9,1.9-2.9,1.9
			c0.1,0.2,0.2,0.5,0.4,0.7c1.4,2.4,2.9,4.8,4.3,7.3l-7.3-2.3l-9.5-2.9l-1.9-0.6l0.7,1.8l2.4,6.8c-3.2,0.1-6.5-0.5-9.4-1.4
			c-3.8-1.2-7.7-3.3-9.6-6.9c-0.3-0.5-0.5-1-0.6-1.5c-0.2-0.5-0.3-1-0.4-1.5l-0.3-2.3l-1,2.1l-1.9,4.1l-1.8,3.9
			c-0.6,0.1-1.6-0.2-2.1-0.2c-0.9-0.1-1.7-0.3-2.6-0.5c-1.7-0.4-3.3-1.1-4.8-2.1c-1-0.6-1.9-1.4-2.6-2.3c0.7,1,1.5,1.8,2.5,2.5
			c2.8,2.2,6.5,3.3,9.9,3.4l0.3,0l0.1-0.3l2.1-4l1.2-2.4c0.2,0.6,0.4,1.1,0.7,1.6c0.5,1.1,1.2,2.1,2,3c4.6,5.1,13,7,19.7,6.5
			l1.3-0.1l-0.4-1.2l-2.2-6.3l7.7,2.3l9.5,2.8l2.2,0.6L453.8,96.6z"/>
		<circle fill="#A02C36" cx="447.1" cy="73.6" r="0.9"/>
		<circle fill="#A02C36" cx="443.2" cy="74.5" r="0.7"/>
		<circle fill="#A02C36" cx="445.7" cy="77.4" r="0.5"/>
		<path fill="#A02C36" d="M418.5,99.5c0,0,0.2,0.2,0.5,0.4c1.1,0.8,2.4,1.4,3.6,1.9c1.5,0.6,2.9,1.2,4.5,1.6
			c1.5,0.5,3.1,0.9,4.6,1.1c0.4,0,0.7,0,0.7,0s-0.2,0.2-0.6,0.4c-1.8,0.8-4.2,0.6-6,0.1c-2.2-0.6-4.4-1.7-6-3.3
			c-0.5-0.6-0.9-1.1-1.1-1.5C418.5,99.7,418.5,99.5,418.5,99.5z"/>
		<path fill="none" d="M400.9,92.4c2.8,2.2,6.5,3.3,9.9,3.4l0.3,0l0.1-0.3l2.1-4l1.2-2.4c0.2,0.6,0.4,1.1,0.7,1.6
			c0.5,1.1,1.2,2.1,2,3c4.6,5.1,13,7,19.7,6.5l1.3-0.1l-0.4-1.2l-2.2-6.3l7.7,2.3l9.5,2.8l2.2,0.6l-1.2-1.9
			c-1.8-2.8-3.6-5.6-5.4-8.4c4.2-2.6,7.4-7.2,6.3-12.3c-0.4-1.6-1-3.2-1.9-4.6c0.4,0.7,0.6,1.5,0.9,2.3c0.2,0.8,0.4,1.6,0.5,2.4
			c0.3,2.8-0.5,5.1-2.3,7.3c-0.7,0.9-1.6,1.7-2.5,2.4c-0.2,0.2-2.9,1.9-2.9,1.9c0.1,0.2,0.2,0.5,0.4,0.7c1.4,2.4,2.9,4.8,4.3,7.3
			l-7.3-2.3l-9.5-2.9l-1.9-0.6l0.7,1.8l2.4,6.8c-3.2,0.1-6.5-0.5-9.4-1.4c-3.8-1.2-7.7-3.3-9.6-6.9c-0.3-0.5-0.5-1-0.6-1.5
			c-0.2-0.5-0.3-1-0.4-1.5l-0.3-2.3l-1,2.1l-1.9,4.1l-1.8,3.9c-0.6,0.1-1.6-0.2-2.1-0.2c-0.9-0.1-1.7-0.3-2.6-0.5
			c-1.7-0.4-3.3-1.1-4.8-2.1c-1-0.6-1.9-1.4-2.6-2.3c0.1,0.1,0.2,0.2,0.2,0.3c0.2,0.3,0.5,0.6,0.8,0.8c-0.3-0.3-0.5-0.5-0.8-0.8
			C399.3,91,400.1,91.8,400.9,92.4z"/>
		<path fill="none" d="M453.7,73.7c0.2,0.8,0.4,1.6,0.5,2.4c0.3,2.8-0.5,5.1-2.3,7.3c-0.7,0.9-1.6,1.7-2.5,2.4
			c-0.2,0.2-2.9,1.9-2.9,1.9c0.1,0.2,0.2,0.5,0.4,0.7c1.4,2.4,2.9,4.8,4.3,7.3l-7.3-2.3l-9.5-2.9l-1.9-0.6l0.7,1.8l2.4,6.8
			c-3.2,0.1-6.5-0.5-9.4-1.4c-3.8-1.2-7.7-3.3-9.6-6.9c-0.3-0.5-0.5-1-0.6-1.5c-0.2-0.5-0.3-1-0.4-1.5l-0.3-2.3l-1,2.1l-1.9,4.1
			l-1.8,3.9c-0.6,0.1-1.6-0.2-2.1-0.2c-0.9-0.1-1.7-0.3-2.6-0.5c-1.7-0.4-3.3-1.1-4.8-2.1c-1-0.6-1.9-1.4-2.6-2.3
			c0.1,0.1,0.1,0.2,0.2,0.3c0.6,0.8,1.4,1.5,2.2,2.2c2.8,2.2,6.5,3.3,9.9,3.4l0.3,0l0.1-0.3l2.1-4l1.2-2.4c0.2,0.6,0.4,1.1,0.7,1.6
			c0.5,1.1,1.2,2.1,2,3c4.6,5.1,13,7,19.7,6.5l1.3-0.1l-0.4-1.2l-2.2-6.3l7.7,2.3l9.5,2.8l2.2,0.6l-1.2-1.9
			c-1.8-2.8-3.6-5.6-5.4-8.4c4.2-2.6,7.4-7.2,6.3-12.3c-0.3-1.5-0.9-3-1.7-4.4c0.2,0.3,0.3,0.6,0.4,0.8c-0.1-0.2-0.2-0.5-0.4-0.8
			c-0.1-0.1-0.1-0.2-0.1-0.3C453.2,72.1,453.5,72.9,453.7,73.7z"/>
		<path fill="none" d="M398.5,89.9c0.1,0.1,0.2,0.2,0.2,0.3C398.6,90.1,398.6,90,398.5,89.9C398.5,89.9,398.5,89.9,398.5,89.9z"/>
		<path fill="#A02C36" d="M450.4,71.9c0,0,0,0-0.1-0.1c0-0.1-0.1-0.2,0-0.3c0-0.1,0.1-0.4,0.2-0.5c0.1-0.2,0.3-0.4,0.5-0.5
			c0.2-0.1,0.5-0.3,0.7-0.3c0.3-0.1,0.5-0.1,0.8-0.2c0.2,0,0.3,0,0.5,0c0.1,0,0.3,0,0.4,0c0.3,0,0.7,0.1,1,0.2
			c1.2,0.3,2.1,1.1,2.7,1.8c0.3,0.3,0.5,0.7,0.6,0.9c0.1,0.2,0.1,0.4,0.1,0.4s-0.2,0-0.4-0.1c-0.2-0.1-0.6-0.2-1-0.3
			c-0.8-0.2-1.7-0.6-2.6-0.8c-0.2-0.1-0.4-0.1-0.6-0.2c-0.1,0-0.3,0-0.4-0.1c0,0-0.2,0-0.3-0.1c-0.2,0-0.4-0.1-0.6-0.1
			c-0.2,0-0.4,0-0.5-0.1c-0.3,0-0.6,0-0.8,0.1C450.5,71.8,450.4,71.9,450.4,71.9z"/>
		<g>
			<path fill="#25221D" d="M430.4,72.2c5.4,0,10.1-2.5,12-6.1c-3.2-1.3-7.1-2.6-11.7-3.9c-4.5-1.2-8.9-1.6-12.9-1.6
				c-0.2,0.6-0.2,1.2-0.2,1.8C417.5,67.8,423.3,72.2,430.4,72.2z"/>
			<path fill="#52687E" d="M420,63.7c-0.9,0-1.7,0.4-2.1,1.1c0.5,1.6,1.6,3,3,4.2c1.1-0.3,1.9-1.4,1.9-2.6
				C422.7,64.9,421.5,63.7,420,63.7z"/>
			<path fill="#52687E" d="M433.5,67.4c-2.2,0-4,1.8-4,4c0,0.3,0,0.5,0.1,0.8c0.3,0,0.6,0,0.9,0c2.6,0,5-0.6,7-1.6
				C437.1,68.8,435.4,67.4,433.5,67.4z"/>
		</g>
		<g>
			
				<ellipse transform="matrix(0.9993 -3.624912e-02 3.624912e-02 0.9993 -1.7662 15.5602)" fill="#A02C36" cx="428.2" cy="56.5" rx="7.1" ry="9.5"/>
			<path fill="#A02C36" d="M443.9,60.8c-2.1,4.1-6.3,6.1-9.4,4.5c-3.1-1.6-4.6-7.5-2.5-11.6c2.1-4.1,7-4.8,10.1-3.2
				C445.3,52.1,446,56.7,443.9,60.8z"/>
			
				<ellipse transform="matrix(0.9993 -3.626688e-02 3.626688e-02 0.9993 -1.7772 15.5715)" fill="#EDE8D8" cx="428.3" cy="56.8" rx="5.6" ry="7.4"/>
			
				<ellipse transform="matrix(0.458 -0.889 0.889 0.458 185.0133 419.705)" fill="#EDE8D8" cx="436.7" cy="58.1" rx="6.9" ry="5.2"/>
			<ellipse fill="#25221D" cx="428.9" cy="57" rx="2.8" ry="3.7"/>
			<ellipse fill="#25221D" cx="435.9" cy="58.8" rx="2.3" ry="3.1"/>
			<path fill="#751A14" d="M433.8,37.2c-3,2.2-6.7,3.9-10.9,4.8c-0.3-0.7-0.3-0.8-0.5-1.5c4-0.8,7.1-3,10-5.1
				C432.8,35.9,433.3,36.6,433.8,37.2z"/>
			<path fill="#751A14" d="M436,41.9c3.4,0.4,6.5,2.2,9.8,4.2c-0.2,0.7-0.1,0.6-0.4,1.3c-3.1-1.9-6.5-3-9.6-3.4
				C436,43.3,436,42.6,436,41.9z"/>
		</g>
		<g>
			<path fill="#87298C" d="M407.3,38.3c0,0,0.3-4-1.3-5.9c-1.2-1.4-2.4-1.8-3.1-1.4c-0.7,0.4,0.7,3.1,0.7,3.1s-2.2-1.3-2.8-0.2
				c-0.6,1.1,1.5,2,1.5,2s-2.9-0.1-2.8,1.2c0.1,1.3,2.2,1.2,2.2,1.2s-2.2,0.5-2.1,1.7c0.1,1.2,3.3,1.7,3.4,1.6
				C403,41.6,407.1,38.5,407.3,38.3z"/>
			<path fill="#27B24B" d="M400.3,48.2c0,0,1.1-11.6,6.6-11.6c5.5,0,4.6,13.5,4.6,13.5h-2.2c0,0-0.9,5.5-4.7,5.2
				C400.9,55.1,400.3,48.2,400.3,48.2z"/>
			<path fill="#3D5059" d="M406.9,36.6c0,0-0.1,0-0.1,0v18.1c2-1.4,2.6-4.7,2.6-4.7h2.2C411.5,50.1,412.5,36.6,406.9,36.6z"/>
			<path fill="#25221D" d="M406,48.9c0,0,0.4,0.1,0.9,0.3c0.5,0.1,1.2,0.3,1.8,0.4c0.3,0.1,0.6,0.1,1,0.1c0.3,0,0.7,0.1,0.9,0.2
				c0.5,0.1,0.9,0.3,0.9,0.3s-0.4,0.2-0.9,0.3c-0.3,0.1-0.6,0.1-0.9,0.2c-0.3,0-0.7,0.1-1.1,0c-0.4-0.1-0.8-0.2-1.1-0.4
				c-0.3-0.2-0.6-0.4-0.8-0.6C406.2,49.2,406,48.9,406,48.9z"/>
			<ellipse fill="#EDE8D8" cx="404.5" cy="44.2" rx="1.7" ry="3"/>
			<ellipse fill="#25221D" cx="405.3" cy="45" rx="1" ry="1.5"/>
			<polygon fill="#27B24B" points="403.9,54.1 400.3,58.2 403.4,59 			"/>
			<polygon fill="#27B24B" points="404.8,55 405.8,58.6 408.4,57 			"/>
			<path fill="#87298C" d="M400.9,47.3c0,0-0.2-2.1-1.2-4.5c-1.1-2.4-2.9-3-2.9-3s-1.2,2.3-0.3,4.5c0.9,2.2,3.3,2.9,3.3,2.9
				s-1.1,0.6-2,2.2c-0.8,1.6-0.9,5.1-0.9,5.1s1.1-0.2,2.6-2C400.9,50.8,400.9,47.3,400.9,47.3z"/>
		</g>
		
			<ellipse transform="matrix(0.9999 -1.108776e-02 1.108776e-02 0.9999 -0.7317 4.8511)" opacity="0.2" fill="#55C9F4" cx="437.1" cy="68.4" rx="59.8" ry="59.8"/>
		<path fill="#284180" d="M482.5,111.5c0,0,17.1,8.4,25.2,28.9c8.1,20.5,5.1,42.7,5.1,42.7l-36-2.1c0,0,0.4-2.4,1.2-4.7
			c4.5-13.6,7.2-50.7-0.3-53.3C476.2,122.5,482.5,111.5,482.5,111.5z"/>
		<path fill="#F1CD2E" d="M478,176.3c-0.1,0.4-0.3,0.9-0.4,1.3l7.4,3.3l5.6-3l1.7-11.8l10.7,0.4l-0.4,10l6.9,2.2l3.9-2.7
			c0.1-3.2,0.1-7.3-0.3-11.9l-31.9-3.3C480.3,167,479.2,172.5,478,176.3z"/>
		<ellipse fill="#EC9F21" cx="508.8" cy="173.3" rx="2.4" ry="2.4"/>
		<ellipse fill="#EC9F21" cx="484.5" cy="173.7" rx="2.4" ry="2.4"/>
		<path fill="#C1592B" d="M376.1,118.9c-1.7,2.2-3.4,4.5-4.8,6.9c-13.6,22.6-9.1,51.8-9.1,51.8c45.3,17.5,91.1,21.1,124.5-3.9
			c0,0,1.9-20.5-1.7-49.9C430.8,135.3,396.3,128.2,376.1,118.9z"/>
		<polygon fill="#EDE8D8" points="396.5,147.9 410.9,149.6 417.8,140.6 419.5,151.2 428.5,152.1 431.8,147.5 435.5,152.5 
			450.3,152.5 443.1,121.5 402,117 		"/>
		<path fill="#284180" d="M373.9,148.1l6.9-7.6l-0.5,8.1l21.1,2.5l3.8-35.8l-14.5-10.1c-7.9,5.2-15.7,11.9-20.7,20.1
			c-3.6,5.9-5.6,12.6-6.6,19.2L373.9,148.1z"/>
		<path fill="#284180" d="M437.4,120.5l4.1,34.4h17.2l3.9-8.6l5.2,9l11.6,0.4l3.4-8.2l7.3,7c0,0-0.7-23-3.2-33.9
			c-2.6-10.9-4.9-9.9-4.9-9.9s-11.8,4.1-24.7,8.7C444.4,124,437.4,120.5,437.4,120.5z"/>
		<path fill="#EC9F21" d="M447.2,141.2c0,0,1.7-4.8,3.4-3.2c1.8,1.7-2.4,3.9-2.4,3.9s3.8,0.1,2.6,2.1c-1.2,2.1-3.8-0.7-3.8-0.7
			L447.2,141.2z"/>
		
			<ellipse transform="matrix(6.916109e-02 -0.9976 0.9976 6.916109e-02 272.9084 577.2586)" fill="#F1CD2E" cx="445.8" cy="142.4" rx="2.6" ry="2.6"/>
		<path fill="#EC9F21" d="M395.4,136.2c0,0-2-4.7-3.6-2.9c-1.6,1.8,2.6,3.8,2.6,3.8s-3.8,0.3-2.5,2.3c1.3,2,3.7-1,3.7-1L395.4,136.2
			z"/>
		
			<ellipse transform="matrix(0.9903 -0.1387 0.1387 0.9903 -15.2088 56.361)" fill="#F1CD2E" cx="396.9" cy="137.3" rx="2.6" ry="2.6"/>
		<g>
			<path fill="#25221D" d="M359.8,157.9c0,0,18.2-2.6,65.6,1.2c47.4,3.8,62.5,5.3,62.5,5.3l0.8,17.6l-127.5,1.3L359.8,157.9z"/>
			<path fill="#CBD7DC" d="M404.2,157.1l1.2,26.2l30.6-0.1l1.6-24.3L404.2,157.1z M432.3,180l-23.7,0.6v-9.1v-5.6v-4.6l25.1,1.8
				L432.3,180z"/>
			<path fill="#CBD7DC" d="M407.6,167.7c0.1,0,5.2,1,5.2,1v3.3l-4.9,0.4L407.6,167.7z"/>
			<polygon fill="#614B45" points="391.3,162.2 392.7,183 392,183 390.7,162.2 			"/>
			<polygon fill="#614B45" points="384.1,163 384.3,183.1 385.2,183.1 384.4,162.9 			"/>
			<polygon fill="#614B45" points="366.4,164.8 367.1,183.3 367.8,183.3 367.1,164.8 			"/>
			<path fill="#EC9F21" d="M366.4,164.8l24.9-2.6c0,0-3.7-14-14.5-11.6C376.9,150.6,366.3,150.8,366.4,164.8"/>
			<path fill="#F1CD2E" d="M376.2,150.7c0,0,6.8-1.4,7.8,12.3l7.3-0.7C391.3,162.2,389.3,148.3,376.2,150.7z"/>
			<path fill="#52687E" d="M380.7,163.3c0,0,0.1-8.9-5.6-7.4c0,0-4.9,1.2-4,8.4L380.7,163.3z"/>
			<path fill="#EC9F21" d="M385.2,156.9l0.2-0.9l2.1,0.3c0,0,2.5,2.2,2.7,6l-2.2,0.2L385.2,156.9z"/>
			<path fill="#52687E" d="M385.9,162.8c0,0,0.5-3.2-0.6-5.9l2.3,0.3c0,0,1.7,2.1,2.1,5.2L385.9,162.8z"/>
			<path fill="#25221D" d="M388.1,158l-2.5-0.2c0.1,0.2,0.1,0.4,0.1,0.5l2.6,0.1C388.2,158.3,388.1,158.1,388.1,158z"/>
			<path fill="#25221D" d="M389.2,160.4l-3.2-0.2c0,0.2,0,0.4,0,0.5l3.3,0.1C389.2,160.7,389.2,160.5,389.2,160.4z"/>
			<path fill="#614B45" d="M472.9,182.2V163c-0.2,0-0.4,0-0.6-0.1c-0.2,6.8-6.3,9.3-6.3,9.3c-9.6,2.4-12.1-8.9-12.4-10.8
				c-0.4,0-0.8-0.1-1.1-0.1l-1.3,21.1l0.7,0l1.5-18.9c1.9,10.2,10.8,9.6,10.8,9.6c5.5-0.5,7.5-5.1,8.1-8l-0.5,17.1L472.9,182.2z"/>
			<circle fill="#CBD7DC" cx="463.3" cy="169" r="1.7"/>
		</g>
		<g>
			<g>
				<path fill="#F1CD2E" d="M392.8,111.1c0,0-0.1,12.8-3.7,13.3c-3.6,0.5-1.1-5-1.1-5s-3.8,7.6-6.2,7c-2.4-0.6,0.1-7.9,0.1-7.9
					s-3.1,5.9-6.4,4.7c-3.3-1.3,0.4-5.9,0.4-5.9s-7.9,3.7-9.2,1.3c-1.3-2.4,3.8-6.8,3.8-6.8s-4.9,4.8-7,2.5
					c-2.1-2.3,11.3-13.3,11.3-13.3L392.8,111.1z"/>
				<path fill="#EC9F21" d="M396.3,111.7L374.6,95l-1.1,2.8c0,0-2.6,7.6,4.3,13C384.7,116.2,396.3,111.7,396.3,111.7z"/>
				<path fill="#F1CD2E" d="M397.4,108.9L374.6,95c0,0-2.6,7.6,4.3,13C385.8,113.4,397.4,108.9,397.4,108.9z"/>
			</g>
			<path fill="#A91E33" d="M389.7,104.1c0,0-5.9,10-6.2,21.4l79.8,7.8c0,0,9.7-13.3,24.7-19.1l-12-4.4
				C476,109.9,427.7,123.7,389.7,104.1"/>
			<path fill="#751B16" d="M392.5,105.5c0,0-1.9,10.5,7.7,21.7l-16.7-1.6c0,0-0.4-11.1,6.2-21.4L392.5,105.5z"/>
			<path fill="#751B16" d="M463.4,112.2c0,0-16.5,5.9-14.2,19.7l14.3,1.4c0,0,10-13.1,24.7-19.1l-5.9-7.3L463.4,112.2z"/>
			<path fill="#F1CD2E" d="M477.2,112.1c0,0-4.9,12.9-1.5,14.8c3.4,1.9,3-4.5,3-4.5s0.8,9.1,3.4,9.5c2.6,0.4,3-7.9,3-7.9
				s0.8,7.2,4.5,7.2c3.8,0,1.9-6.1,1.9-6.1s6.4,6.8,8.7,4.9c2.3-1.9-1.1-8.3-1.1-8.3s3,6.8,6.1,5.3c3-1.5-6.1-17.8-6.1-17.8
				L477.2,112.1z"/>
			<path fill="#EC9F21" d="M473.4,111.3v-3.3l28.4-4.9v3.3c0,0-0.4,8.7-9.5,11.4C483.2,120.4,473.4,111.3,473.4,111.3z"/>
			<path fill="#F1CD2E" d="M473.4,108.1l28.4-4.9c0,0-0.4,8.7-9.5,11.4C483.2,117.1,473.4,108.1,473.4,108.1z"/>
			<circle fill="#A91E33" cx="466.8" cy="119" r="3.4"/>
			<polygon fill="#751B16" points="467.2,114.1 465,123.2 465.9,123.6 469,113.9 			"/>
			<polygon fill="#751B16" points="415.9,125.3 414.3,125.2 416.4,117.2 418,117.3 			"/>
			<polygon fill="#751B16" points="421.8,125.8 420.2,125.7 422.3,117.7 423.9,117.8 			"/>
			<polygon fill="#751B16" points="424.9,126.1 423.3,126.1 425.4,118.1 427,118.1 			"/>
			<polygon fill="#751B16" points="418.9,125.6 417.3,125.5 419.4,117.5 421,117.6 			"/>
		</g>
	</g>
	<path fill="#52687E" d="M150,63.7c-0.9,0-1.7,0.4-2.1,1.1c0.5,1.6,1.6,3,3,4.2c1.1-0.3,1.9-1.4,1.9-2.6
		C152.7,64.9,151.5,63.7,150,63.7z"/>
	<path fill="#52687E" d="M163.5,67.4c-2.2,0-4,1.8-4,4c0,0.3,0,0.5,0.1,0.8c0.3,0,0.6,0,0.9,0c2.6,0,5-0.6,7-1.6
		C167.1,68.8,165.4,67.4,163.5,67.4z"/>
</g>
<g id="Glow" display="none">
</g>
<g id="BG_Purple_2" display="none">
</g>
</svg>
