<?xml version="1.0" encoding="utf-8"?>
<!-- Generator: Adobe Illustrator 21.0.0, SVG Export Plug-In . SVG Version: 6.00 Build 0)  -->
<svg version="1.1" xmlns="http://www.w3.org/2000/svg" xmlns:xlink="http://www.w3.org/1999/xlink" x="0px" y="0px"
	 viewBox="0 0 70 70" enable-background="new 0 0 70 70" xml:space="preserve" width="70" height="70" preserveAspectRatio="none">
<g id="sky">
</g>
<g id="clouds">
</g>
<g id="Text">
</g>
<g id="mountains">
</g>
<g id="back_hills">
</g>
<g id="back_trees">
</g>
<g id="front_ground">
</g>
<g id="trees_flowers">
</g>
<g id="path">
</g>
<g id="right_building">
</g>
<g id="left_building">
</g>
<g id="info_board">
</g>
<g id="Shadows">
</g>
<g id="bird_elephant">
</g>
<g id="frog_creature">
</g>
<g id="purple_creature">
</g>
<g id="Characters">
</g>
<g id="Isadora_Screen_Shot">
</g>
<g id="BG_Purple_2">
	<g>
		<ellipse transform="matrix(0.2069 -0.9784 0.9784 0.2069 -6.484 62.0015)" fill="#F58528" cx="35" cy="35" rx="34" ry="34"/>
		<path fill="#001C25" d="M34.6,28.4C41.2,16,47.7,9.5,52.9,6.1c-0.3-0.2-0.7-0.4-1-0.6C46.7,9,40.2,15.6,33.7,27.9
			c-11-6.7-16.1-14.5-18.5-20.5c-0.3,0.2-0.6,0.4-0.9,0.6c2.3,5.7,7.4,13.8,18.9,20.7c-0.6,1.2-1.2,2.4-1.8,3.6L5.6,18
			c-0.2,0.3-0.3,0.6-0.5,0.9l26,14.4c-0.7,1.6-1.3,3.2-1.9,4.8c-0.7-0.4-1.4-0.9-2.1-1.3C18.1,31.4,9.5,28.5,2,27
			c-0.1,0.3-0.2,0.6-0.2,1c0,0,0,0,0,0c7.5,1.5,16,4.4,24.8,9.7c0.8,0.5,1.5,0.9,2.2,1.4c-3.5,9.9-4.9,19.8-5.3,28
			c0.3,0.1,0.6,0.2,1,0.3c0.4-8.1,1.7-17.9,5.1-27.8C41.5,47,50.2,55.1,56.2,61.6c0.3-0.2,0.5-0.4,0.8-0.7
			C51.3,54.8,42.4,46.4,30,38.6c0.6-1.6,1.2-3.2,1.9-4.8l32.6,18.1c0.2-0.3,0.3-0.6,0.5-0.9L32.4,32.9c0.6-1.2,1.1-2.4,1.8-3.6
			c10.3,6,23.4,9.1,34.5,10.7c0-0.3,0.1-0.7,0.1-1C57.7,37.4,44.8,34.3,34.6,28.4z"/>
	</g>
</g>
</svg>
