<svg xmlns="http://www.w3.org/2000/svg" xmlns:xlink="http://www.w3.org/1999/xlink" viewBox="0 0 497.34 373.19" width="497.34" height="373.19" preserveAspectRatio="none"><defs><style>.cls-1{fill:url(#linear-gradient);}.cls-2{fill:#ffe500;}.cls-3{fill:#ff9023;}</style><linearGradient id="linear-gradient" x1="262.95" y1="55.19" x2="235.69" y2="276.67" gradientUnits="userSpaceOnUse"><stop offset="0" stop-color="#46bc1f" /><stop offset="1" stop-color="#24863d" /></linearGradient></defs><g id="BG_hills" data-name="BG hills"><path class="cls-1" d="M7.47,7.34S270.42-15.47,493,309.67l-58.19,58L10.19,369.38Z" /></g><g id="SPRING"><path class="cls-2" d="M171.6,88c2.1-3.28,6-.7,2.83,1.3,2.67.22,2.86,1.34,2.23,1.81a3.32,3.32,0,0,1-3.6-.16c-2.25,3.5-6,.86-2.92-1.14C164.77,88,168.26,85.51,171.6,88Z" /><ellipse class="cls-3" cx="172.11" cy="89.32" rx="0.96" ry="1.95" transform="translate(53.66 242.84) rotate(-79.77)" /><path class="cls-2" d="M238.52,124.19c-1.84-3.42-5.94-1.16-2.92,1.08-2.68,0-3,1.12-2.36,1.64a3.32,3.32,0,0,0,3.59.12c2,3.66,5.9,1.31,3-.92C245.33,124.68,242,121.94,238.52,124.19Z" /><ellipse class="cls-3" cx="237.91" cy="125.45" rx="1.95" ry="0.96" transform="translate(-11.54 24.88) rotate(-5.85)" /><path class="cls-2" d="M311.58,148.64c-1.67-3.31-5.62-1.25-2.81,1-2.55,0-2.84,1-2.28,1.5a3.15,3.15,0,0,0,3.42.2c1.79,3.54,5.57,1.4,2.88-.8C318.06,149.27,315,146.58,311.58,148.64Z" /><ellipse class="cls-3" cx="310.97" cy="149.82" rx="1.86" ry="0.91" transform="translate(-10.48 24.05) rotate(-4.36)" /><path class="cls-2" d="M291.72,124.32c-1.4-2.77-4.71-1-2.35.8-2.14,0-2.39.83-1.92,1.26a2.65,2.65,0,0,0,2.87.17c1.5,3,4.67,1.17,2.41-.67C297.14,124.85,294.57,122.6,291.72,124.32Z" /><ellipse class="cls-3" cx="291.21" cy="125.31" rx="1.56" ry="0.76" transform="translate(-8.68 22.48) rotate(-4.36)" /><path class="cls-2" d="M22.66,269.29c-1.4-2.77-4.71-1-2.35.8-2.14,0-2.39.83-1.92,1.26a2.65,2.65,0,0,0,2.87.17c1.5,3,4.67,1.17,2.41-.67C28.09,269.82,25.51,267.57,22.66,269.29Z" /><ellipse class="cls-3" cx="22.15" cy="270.28" rx="1.56" ry="0.76" transform="translate(-20.46 2.46) rotate(-4.36)" /><path class="cls-2" d="M58,160.48c-1.76-3.48-5.91-1.31-3,1-2.68,0-3,1-2.4,1.58a3.34,3.34,0,0,0,3.59.21c1.89,3.71,5.86,1.46,3-.84C64.76,161.14,61.53,158.32,58,160.48Z" /><ellipse class="cls-3" cx="57.32" cy="161.72" rx="1.95" ry="0.96" transform="translate(-12.13 4.83) rotate(-4.36)" /><path class="cls-2" d="M30.64,53.8c-1.75-3.16-5.9-1.19-2.95.91-2.67-.05-3,.94-2.39,1.43a3.62,3.62,0,0,0,3.59.19c1.88,3.37,5.85,1.33,3-.76C37.44,54.4,34.22,51.84,30.64,53.8Z" /><ellipse class="cls-3" cx="30" cy="54.92" rx="1.95" ry="0.87" transform="translate(-3.53 2.08) rotate(-3.75)" /><path class="cls-2" d="M365.12,199.9c-1.67-3.3-5.62-1.24-2.81,1-2.55-.05-2.84,1-2.28,1.5a3.17,3.17,0,0,0,3.42.2c1.79,3.53,5.57,1.4,2.88-.8C371.6,200.54,368.52,197.85,365.12,199.9Z" /><ellipse class="cls-3" cx="364.51" cy="201.09" rx="1.86" ry="0.91" transform="translate(-14.22 28.26) rotate(-4.36)" /></g></svg>