<?xml version="1.0" encoding="utf-8"?>
<!-- Generator: Adobe Illustrator 20.1.0, SVG Export Plug-In . SVG Version: 6.00 Build 0)  -->
<!DOCTYPE svg PUBLIC "-//W3C//DTD SVG 1.1//EN" "http://www.w3.org/Graphics/SVG/1.1/DTD/svg11.dtd">
<svg version="1.1" xmlns="http://www.w3.org/2000/svg" xmlns:xlink="http://www.w3.org/1999/xlink" x="0px" y="0px"
	 viewBox="0 0 275.3 245.4" enable-background="new 0 0 275.3 245.4" xml:space="preserve" width="275.3" height="245.4" preserveAspectRatio="none">
<g id="porcupuma">
</g>
<g id="spotted_jackalope">
</g>
<g id="octopug">
</g>
<g id="flamingoat">
</g>
<g id="orangutoad">
</g>
<g id="tarantulemur">
</g>
<g id="tortusk">
</g>
<g id="chimpanda">
</g>
<g id="rhinocerabbit">
</g>
<g id="buffalobster">
</g>
<g id="hippopotamoose">
</g>
<g id="alligopher">
	<path fill="#005F2E" d="M165.6,11.9c0,0,5.2,1.8,9,5.4c3.8,3.6,5,10.6,5,10.6l-4.8,0.8c0,0-2.2-6.8-3.6-10S165.6,11.9,165.6,11.9z"
		/>
	<path fill="#005F2E" d="M174.3,14.1c0,0,2.9,2.8,4.4,6.4c1.4,3.6,0.1,8.7,0.1,8.7l-3.5-1c0,0,0.6-5.3,0.7-7.9
		C176,17.8,174.3,14.1,174.3,14.1z"/>
	<g>
		<path fill="#F68624" d="M2.6,94.9c1.2-3.1,2.9-5.9,4.9-8.6c2-2.6,4.4-5,7.1-6.9c2.7-1.9,5.7-3.4,8.7-4.7c3.1-1.3,6.2-2.4,9.5-3
			l2.6-0.5l-2.3,1.4c-2.3,1.5-4.6,3.2-6.6,5.1c-2,1.9-3.9,4-5.1,6.5c-1.2,2.5-1.8,5.3-2,8c-0.3,2.8-0.2,5.6,0,8.4
			c-0.5-2.8-0.6-5.6-0.5-8.5c0.2-2.8,0.7-5.7,1.8-8.3c1.2-2.6,3.1-4.8,5.2-6.8c2.1-2,4.3-3.7,6.7-5.3l0.3,0.9
			c-3.1,0.7-6.3,1.7-9.3,2.9c-3,1.2-5.9,2.8-8.6,4.5c-2.7,1.8-5.1,4.1-7.1,6.6C5.8,89.1,4,91.9,2.6,94.9z"/>
	</g>
	<path fill="#005F2E" d="M140.8,84.6c0,0-4,15.1-6.5,17.4c-2.5,2.3-5.1-4-10.2-4c-5.1,0-8.2,1.2-9.6,10.4c-1.4,9.2,1.8,9.6,1.8,9.6
		s4.8,0.3,6.6-3.7c1.8-4,1.1-5.2,1.1-5.2s5.8,4.7,10,5.5c9.7,2.2,13.5-6.9,13.5-6.9L140.8,84.6z"/>
	<path fill="#005F2E" d="M127.9,141.6c0,0-32.7-2.3-36.3,24.9c-3.6,27.2,25.2,44.8,25.2,44.8s-6,0-11.4,2.8
		c-5.4,2.8-10.3,9.5-10.3,9.5s13.7,7.2,26.7,6.2c13-1.1,24.5-11.1,24.5-11.1s6.1-25,0.6-38.8c-5.5-13.8-14.9-21.2-14.9-21.2
		L127.9,141.6z"/>
	
		<ellipse transform="matrix(0.9171 -0.3987 0.3987 0.9171 6.3855 61.0266)" fill="#4CB74C" cx="149.9" cy="15.2" rx="9.5" ry="12.6"/>
	<path fill="#FDEFB4" d="M91,78c0,0,11.9,11.7,14.5,11.2c2.7-0.4,6.1-8.8,6.1-8.8s5.7,5.3,7.6,5.1c1.8-0.2,10.8-16.8,10.8-16.8
		L91,78z"/>
	<polygon fill="#FDEFB4" points="25.3,69.8 29.4,87.6 41.5,93.8 53.8,78 	"/>
	<polygon fill="#FFCD15" points="35.6,70 35.8,89.5 38.8,72.1 	"/>
	<path fill="#4CB74C" d="M16.8,67.3c0,0-1.3-9.3,8.5-10.9c7.2-1.2,9.4,7.7,9.4,7.7s2.4-5.4,10.6-4.1c3.2,0.5,4.9,4.9,4.9,4.9
		s15.5-0.8,39.2-8.2c23.7-7.4,45.8-31.9,66.2-32.7s24.5,9,24.5,9s-7.4,49-1.6,80.1c5.7,31,17.2,43.3,17.2,43.3l22.1-61.3
		c0,0,2.5-21.2,19.6-17.2c17.2,4.1,34.3,16.3,34.3,16.3l-41.7,4.1c0,0,9.8,31,2.5,70.3c-7.4,39.2-37.6,51.5-37.6,51.5
		s-94,25.3-89.9-56.4c1.2-24,35.1-93.1,35.1-93.1s-18.8,9.8-62.9,13.1S16.8,67.3,16.8,67.3z"/>
	<circle fill="#005F2E" cx="156.5" cy="48.5" r="9.3"/>
	<circle fill="#FDEFB4" cx="156.5" cy="48.5" r="7.1"/>
	<path fill="#FFCD15" d="M155.8,223.4c10-21.2,21.4-54.3,17.1-89.1c-7.4-58.8-23.7-67.8-23.7-67.8l-9.5,4.6
		c-4.7,9.8-33.5,70.6-34.6,92.6C102.8,208.9,130.6,221.3,155.8,223.4z"/>
	<path fill="#4CB74C" d="M138.2,52.9c0,0,4.3-4.7,16-1.2c10.2,3.1,12.5,11.2,12.5,11.2L164,69l-28.6-8.2L138.2,52.9z"/>
	<g>
		<path fill="#005F2E" d="M155.4,61.7c-1.1,1.4-2.5,2.7-4,3.8c-1.4,1.2-2.9,2.2-4.5,3.2c-1.5,1-3.1,1.9-4.8,2.8
			c-1.7,0.9-3.4,1.6-5.1,2.3c-3.4,1.3-7,2.5-10.5,3.4c-3.5,0.9-7.1,1.8-10.7,2.5c-3.6,0.7-7.2,1.3-10.8,1.8c-3.6,0.5-7.2,1-10.9,1.3
			C87,83.5,79.7,84,72.4,83.9l21.6-3.3c3.6-0.6,7.2-1.2,10.7-1.8c3.6-0.7,7.1-1.3,10.7-2c7.1-1.5,14.1-3.1,20.9-5.4
			c1.7-0.6,3.4-1.2,5-2c1.6-0.7,3.3-1.5,4.9-2.3C149.3,65.5,152.5,63.8,155.4,61.7z"/>
	</g>
	<g>
		<path fill="#005F2E" d="M149.9,59.8c1.1-0.9,2.6-1,3.9-0.7c1.3,0.2,2.6,0.8,3.7,1.6c1.1,0.7,2.1,1.6,2.9,2.8
			c0.4,0.6,0.7,1.2,0.8,2c0.1,0.7-0.1,1.5-0.6,2c0.1-0.6,0-1.2-0.3-1.7c-0.3-0.5-0.7-0.9-1.1-1.3c-0.8-0.8-1.8-1.5-2.8-2.1
			c-1-0.7-2-1.3-3-1.7C152.3,60.1,151.2,59.8,149.9,59.8z"/>
	</g>
	
		<ellipse transform="matrix(0.8851 -0.4655 0.4655 0.8851 -4.4143 78.5723)" fill="#431313" cx="156.9" cy="48.2" rx="4.3" ry="4.3"/>
	<ellipse transform="matrix(0.885 -0.4656 0.4656 0.885 -4.0036 79.9377)" fill="#FFFFFF" cx="159.8" cy="48.1" rx="1.8" ry="1.8"/>
	<g>
		<path fill="#005F2E" d="M138.2,52.9c0.9-1.2,2.2-1.9,3.6-2.4c1.4-0.5,2.9-0.8,4.3-0.9c3-0.2,5.9,0.4,8.7,1.2
			c2.8,0.9,5.5,2.4,7.6,4.5c2.1,2.1,3.7,4.7,4.2,7.6c-1.3-2.6-3.1-4.7-5.2-6.4c-2.1-1.7-4.6-3-7.2-3.8c-2.6-0.8-5.3-1.4-8.1-1.6
			c-1.4-0.1-2.7,0-4.1,0.2C140.8,51.6,139.4,52.1,138.2,52.9z"/>
	</g>
	<ellipse fill="#005F2E" cx="26.4" cy="63.7" rx="2.5" ry="3.3"/>
	<ellipse fill="#005F2E" cx="43.3" cy="68" rx="2.5" ry="3.3"/>
	<path fill="#005F2E" d="M180.2,33c0,0-0.9-10.8-12.5-16.5c-11.7-5.7-25.4-6.1-25.8-0.2c-0.4,5.9,16.8,4.3,16.8,4.3
		s-17.6,3.7-14.3,9.8c3.3,6.1,17-3.1,17-3.1s-4.5,6.7-0.6,9.6c3.9,2.9,4.1-4.3,9.2-5.7C175,29.8,180.2,33,180.2,33z"/>
	
		<ellipse transform="matrix(0.7227 -0.6911 0.6911 0.7227 35.0361 136.8166)" fill="#4CB74C" cx="188" cy="24.7" rx="12.6" ry="9.5"/>
	<path fill="#FFCD15" d="M198.3,17.6c-3,0.9-6.2,2.4-9.4,4.3c-4.7,2.8-7.9,7.1-10,10.9c0.1,0.4,0.1,0.7,0.1,0.7s10.6,3,15.7-1.8
		C199,27.4,200.4,21.5,198.3,17.6z"/>
	<g>
		<path fill="#F68624" d="M193.5,24.8c-1.4,0.1-2.8,0.5-4.2,1.1c-1.3,0.5-2.6,1.3-3.7,2c-1.2,0.8-2.3,1.7-3.4,2.6
			c-1,1-2.1,2-2.9,3.1l-0.5-0.7c1.7-0.4,3.4-0.8,5-1.2c1.7-0.4,3.4-0.7,5.1-1c-1.6,0.6-3.3,1.1-4.9,1.6c-1.6,0.5-3.3,1-5,1.5
			l-1.3,0.4l0.8-1.1c0.9-1.3,1.9-2.3,3-3.3c1.1-1,2.3-1.9,3.5-2.6c1.3-0.8,2.6-1.4,4-1.8C190.5,25,192,24.7,193.5,24.8z"/>
	</g>
	<g>
		<path fill="#F68624" d="M160.6,212.5c-4.8,0.4-9.9,0.5-15.3,0.4c-8.7-0.2-16.5-0.9-23.5-1.8c0.5,0.4,1,0.8,1.5,1.2
			c6.6,0.8,13.9,1.4,22,1.6c1.3,0,2.5,0,3.7,0c3.9,0,7.6-0.1,11.2-0.4C160.3,213.2,160.4,212.9,160.6,212.5z"/>
		<path fill="#F68624" d="M124,105.6c5.9,1,13.1,1.7,21.9,1.9c8.5,0.2,15.8-0.6,22-1.8c-0.1-0.3-0.2-0.7-0.2-1
			c-6.1,1.2-13.3,2-21.7,1.8c-8.6-0.2-15.7-0.9-21.5-1.9C124.3,105,124.1,105.3,124,105.6z"/>
		<path fill="#F68624" d="M149.3,172.9c-22.6-0.5-36.5-4.1-44.3-7.1c0,0.4,0,0.8,0,1.1c7.9,3,21.8,6.4,44.3,6.9
			c8.6,0.2,16.1-0.4,22.7-1.5c0.1-0.3,0.1-0.7,0.2-1C165.5,172.5,157.9,173.1,149.3,172.9z"/>
		<path fill="#F68624" d="M142.5,139.9c1,0,2.1,0,3.1,0c10.6,0,19.8-1.2,27.6-2.8c0-0.3-0.1-0.7-0.1-1c-8.4,1.8-18.7,3-30.5,2.8
			c-12.1-0.3-22.3-1.6-30.4-3.2c-0.1,0.3-0.2,0.6-0.3,1C120,138.3,130.3,139.6,142.5,139.9z"/>
	</g>
	<g>
		<path fill="#005F2E" d="M181.9,126.7c1.7,4.4,3.5,8.6,5.4,12.8c1,2.1,2,4.2,3.1,6.2c1.1,2,2.2,4,3.4,5.9c1.2,1.9,2.6,3.7,4,5.4
			c1.4,1.8,3,3.4,4.6,5c3.3,3.2,6.9,6.1,10.7,8.7c-4.5-1.5-8.6-4-12.3-6.9c-1.9-1.5-3.6-3.1-5.2-4.9c-1.6-1.8-3.1-3.7-4.4-5.7
			c-2.6-4-4.6-8.4-6.1-12.8C183.6,136,182.4,131.4,181.9,126.7z"/>
	</g>
	<path fill="#4CB74C" d="M176.7,144.3c0,0-32.6,4-30.9,31.4s33.3,39.2,33.3,39.2s-5.9,1.2-10.6,5c-4.7,3.8-8.3,11.3-8.3,11.3
		s14.9,4.5,27.4,0.9c12.5-3.5,22-15.6,22-15.6s1.2-25.7-6.8-38.2c-8-12.5-18.6-17.9-18.6-17.9L176.7,144.3z"/>
	<g>
		<path fill="#005F2E" d="M176.7,144.3c-4.2,0.8-8.3,2.1-12.2,3.9c-3.9,1.8-7.5,4.1-10.5,7.1c-3,3-5.2,6.6-6.4,10.6
			c-1.2,4-1.2,8.2-0.6,12.4c0.6,4.1,2,8.1,4,11.8c2,3.6,4.6,7,7.6,9.9c3,3,6.3,5.6,9.8,7.8c1.8,1.1,3.6,2.2,5.5,3.2
			c1.8,1,3.8,1.9,5.7,2.6l4.4,1.7l-4.6,1.1c-1.9,0.4-3.9,1.2-5.8,2c-1.8,0.9-3.6,2-5,3.3c-1.5,1.4-2.7,3-3.9,4.7
			c-1.2,1.7-2.2,3.6-3.1,5.4l-0.9-2.1c4.2,1.2,8.8,1.9,13.2,2.2c4.5,0.3,8.9,0,13.2-1.1c4.2-1.1,8.2-3.3,11.8-5.9
			c3.6-2.6,6.9-5.8,9.8-9.1l-0.3,0.7c0.2-5.4,0.1-10.8-0.4-16.2c-0.5-5.4-1.3-10.7-3.1-15.8c-0.9-2.5-2-4.9-3.5-7.2
			c-1.5-2.3-3.1-4.4-4.9-6.5c-1.8-2-3.7-3.9-5.8-5.7c-2.1-1.8-4.2-3.4-6.6-4.8c4.9,2.5,9.2,6,13,9.9c1.9,2,3.7,4.1,5.3,6.3
			c1.6,2.2,3,4.7,4,7.3c2,5.2,3,10.7,3.7,16.1c0.6,5.5,0.9,11,0.8,16.5l0,0.4l-0.2,0.3c-3,3.7-6.4,6.9-10.1,9.8
			c-3.8,2.8-8,5.2-12.6,6.5c-4.6,1.3-9.4,1.5-14.1,1.3c-4.7-0.3-9.3-1-13.9-2.3l-1.7-0.5l0.8-1.6c1-2.1,2.1-4,3.4-5.8
			c1.3-1.8,2.7-3.6,4.4-5.2c1.8-1.6,3.7-2.8,5.8-3.8c2.1-1,4.1-1.7,6.5-2.3l-0.2,2.8c-4.2-1.7-8-3.8-11.6-6.2
			c-3.6-2.4-7.1-5.2-10.2-8.3c-3.1-3.1-5.8-6.7-7.8-10.6c-2-3.9-3.4-8.2-4-12.6c-0.5-4.4-0.3-8.9,1.1-13.1c1.3-4.2,3.9-8,7.1-11
			c3.2-3,7.1-5.2,11-6.8C168.2,145.9,172.4,144.8,176.7,144.3z"/>
	</g>
	<g>
		<path fill="#005F2E" d="M176.4,220.7c-1.3,0.4-2.6,1.1-3.7,1.9c-1.1,0.8-2.2,1.6-3.2,2.6c-1,0.9-1.8,2-2.5,3.2
			c-0.7,1.1-1.3,2.4-1.6,3.6l-1.9-0.6c0.6-1.5,1.4-2.6,2.3-3.8c0.9-1.1,1.9-2.2,3.1-3.1c1.2-0.9,2.4-1.6,3.6-2.2
			C173.7,221.5,175,221,176.4,220.7z"/>
	</g>
	<g>
		<path fill="#005F2E" d="M184.7,221.2c-1.3,0.4-2.6,1.1-3.7,1.9c-1.1,0.8-2.2,1.6-3.2,2.6c-1,0.9-1.8,2-2.5,3.2
			c-0.7,1.1-1.3,2.4-1.6,3.6l-1.9-0.6c0.6-1.5,1.4-2.6,2.3-3.8c0.9-1.1,1.9-2.2,3.1-3.1c1.2-0.9,2.4-1.6,3.6-2.2
			C182,222,183.3,221.5,184.7,221.2z"/>
	</g>
	<path fill="#4CB74C" d="M165.9,84.2c0,0-4.5,16.9-7.3,19.5c-2.8,2.5-5.7-4.5-11.4-4.5c-5.7,0-9.2,1.3-10.7,11.6
		c-1.5,10.3,2,10.7,2,10.7s5.3,0.3,7.3-4.1c2-4.4,1.2-5.9,1.2-5.9s6.5,5.2,11.2,6.2c10.9,2.5,15-7.7,15-7.7L165.9,84.2z"/>
	<g>
		<path fill="#005F2E" d="M165.9,84.2c-1,5.2-2.3,10.4-4.1,15.4c-0.5,1.3-1,2.5-1.7,3.7c-0.4,0.6-0.9,1.3-1.9,1.7
			c-0.5,0.2-1,0.2-1.5,0.1c-0.4-0.1-0.8-0.3-1.2-0.5c-1.3-0.8-2.3-1.7-3.3-2.4c-1-0.8-2.1-1.4-3.2-1.7c-0.5-0.2-1.1-0.3-1.7-0.3
			c-0.6,0-1.3,0-1.9,0c-1.2,0.1-2.4,0.3-3.4,0.8c-2.1,1-3.2,3.4-4,5.8c-0.4,1.2-0.7,2.5-0.9,3.8c-0.3,1.3-0.5,2.6-0.6,3.9
			c-0.1,1.3-0.2,2.6,0,3.9c0.1,0.6,0.2,1.3,0.5,1.8c0.3,0.6,0.7,1.1,1.3,1.4c-0.7-0.1-1.2-0.6-1.6-1.2c-0.4-0.6-0.6-1.2-0.8-1.9
			c-0.4-1.3-0.4-2.7-0.5-4c0-2.7,0.3-5.4,1-8c0.3-1.3,0.8-2.7,1.5-3.9c0.7-1.2,1.7-2.4,3.1-3.1c1.3-0.7,2.8-1,4.2-1.1
			c0.7,0,1.4-0.1,2.1-0.1c0.8,0,1.5,0.2,2.2,0.4c2.9,0.9,4.8,3.2,6.8,4.4c0.5,0.3,0.9,0.4,1.2,0.3c0.3-0.1,0.7-0.4,1-0.9
			c0.7-1,1.2-2.2,1.8-3.4C162.4,94.2,164.1,89.2,165.9,84.2z"/>
	</g>
	<g>
		<path fill="#005F2E" d="M141.6,109.8c-0.5,0.9-0.7,1.8-1,2.8c-0.2,1-0.4,2-0.5,2.9c-0.1,1,0,1.9,0.2,2.9c0.2,1,0.4,1.9,0.7,2.9
			c-0.7-0.8-1.1-1.7-1.5-2.7c-0.3-1-0.5-2.1-0.4-3.1c0.1-1.1,0.4-2.1,0.7-3.1C140.2,111.5,140.7,110.4,141.6,109.8z"/>
	</g>
	<g>
		<path fill="#005F2E" d="M34.8,64c0.8-2,2.3-3.8,4.4-4.9c1-0.6,2.2-0.9,3.4-0.9c0.6,0,1.2,0,1.8,0.1l0.4,0.1c0.2,0,0.3,0.1,0.5,0.1
			c0.3,0.1,0.6,0.2,0.9,0.3c2.3,1,3.8,2.9,4.8,4.9c1,2,1.7,4.1,1.9,6.3c-1-1.9-2-3.8-3.2-5.4c-1.2-1.6-2.6-3.1-4.3-3.9
			c-0.2-0.1-0.4-0.2-0.6-0.2c-0.1,0-0.2-0.1-0.3-0.1L44,60.2c-0.5-0.1-0.9-0.1-1.4-0.1c-0.9,0-1.9,0.2-2.8,0.5
			C38,61.2,36.3,62.5,34.8,64z"/>
	</g>
	<g>
		<path fill="#F68624" d="M91.6,98.8c-1.4-3-3.2-5.7-5.3-8.2c-2.1-2.5-4.4-4.8-7.1-6.6c-2.7-1.8-5.6-3.3-8.6-4.5
			c-3-1.2-6.1-2.2-9.3-2.9l0.3-0.9c2.4,1.6,4.6,3.3,6.7,5.3c2,2,4,4.2,5.2,6.8c1.2,2.6,1.7,5.5,1.8,8.3c0.1,2.8,0,5.7-0.5,8.5
			c0.3-2.8,0.3-5.6,0-8.4c-0.3-2.8-0.8-5.6-2-8c-1.3-2.5-3.1-4.6-5.1-6.5c-2-1.9-4.3-3.6-6.6-5.1L58.8,75l2.6,0.5
			c3.3,0.7,6.4,1.8,9.5,3c3,1.3,6,2.8,8.7,4.7c2.7,1.9,5.1,4.3,7.1,6.9C88.7,92.9,90.4,95.7,91.6,98.8z"/>
	</g>
	<circle fill="#005F2E" cx="57.2" cy="76.6" r="0.7"/>
	<circle fill="#005F2E" cx="61.4" cy="72.9" r="0.7"/>
	<circle fill="#005F2E" cx="61.1" cy="78.1" r="0.7"/>
	<g>
		<path fill="#005F2E" d="M147,111.5c2.3,1.3,4.6,2.5,6.9,3.6c1.2,0.5,2.3,1,3.5,1.3c0.3,0.1,0.6,0.2,0.9,0.2
			c0.3,0.1,0.7,0.1,0.9,0.2c0.6,0.1,1.2,0.2,1.8,0.2c2.4,0.1,4.8-0.5,6.9-1.8c2.1-1.3,3.9-3.2,5.4-5.3c-0.7,2.6-2.3,4.9-4.5,6.6
			c-1.1,0.9-2.4,1.5-3.7,1.9c-1.4,0.4-2.8,0.6-4.2,0.5c-0.7,0-1.4-0.1-2.1-0.3c-0.4-0.1-0.7-0.1-1-0.2c-0.4-0.1-0.7-0.2-1-0.3
			c-1.3-0.5-2.5-1.1-3.7-1.8C150.9,115.1,148.8,113.5,147,111.5z"/>
	</g>
</g>
<g id="chipmonkey">
</g>
<g id="pelicamel">
</g>
</svg>
