<?xml version="1.0" encoding="utf-8"?>
<!-- Generator: Adobe Illustrator 20.1.0, SVG Export Plug-In . SVG Version: 6.00 Build 0)  -->
<!DOCTYPE svg PUBLIC "-//W3C//DTD SVG 1.1//EN" "http://www.w3.org/Graphics/SVG/1.1/DTD/svg11.dtd">
<svg version="1.1" xmlns="http://www.w3.org/2000/svg" xmlns:xlink="http://www.w3.org/1999/xlink" x="0px" y="0px"
	 viewBox="0 0 321.9 275.8" enable-background="new 0 0 321.9 275.8" xml:space="preserve" width="321.9" height="275.8" preserveAspectRatio="none">
<g id="porcupuma">
</g>
<g id="spotted_jackalope">
</g>
<g id="octopug">
</g>
<g id="flamingoat">
</g>
<g id="orangutoad">
</g>
<g id="tarantulemur">
</g>
<g id="tortusk">
</g>
<g id="chimpanda">
</g>
<g id="rhinocerabbit">
</g>
<g id="buffalobster">
	<path fill="#310800" d="M118.4,236.6c-0.7,13.5-17.8,24.8-26.5,25.7c-17.6,1.8-44.7-14-44.5-17.5c0.7-13.5,17.7-28.9,36.2-27.9
		C102.1,217.8,118.8,230.6,118.4,236.6z"/>
	<path fill="#8D0805" d="M57.5,192.6c0,0-4.1,1.7-3.4,7.1c0.7,5.3,4.7,8.4,4.7,12.4c0,3.9-2.4,5.9-2.4,5.9s6.8,1.6,14.9-7.5
		c8.1-9.2,6.8-17.6,6.8-17.6L57.5,192.6z"/>
	<path fill="#310800" d="M135.6,199.2c0,2.6-0.1,5-0.3,7.5c-0.2,2.5-0.5,4.9-0.9,7.4c-0.8,4.9-2,9.9-4.5,14.9
		c-1.3,2.5-2.9,4.9-5.3,7.1c-2.5,2.2-5.2,3.5-8,4.5c-2.8,0.9-5.6,1.4-8.3,1.6c-1.4,0.1-2.8,0.1-4.1,0.1c-0.7,0-1.4,0-2.1-0.1
		L101,242l-0.5-0.1c-0.2,0-0.3,0-0.7-0.1c-3.2-0.6-5.3-3.8-4.7-7s3.8-5.3,7-4.7c0,0,0.1,0,0.2,0.1l0.3,0.1l0.7,0.1
		c0.5,0.1,1,0.2,1.5,0.2c1,0.1,2,0.2,3,0.2c2,0.1,4-0.1,5.8-0.5c1.8-0.4,3.5-1.1,4.6-1.9c1.3-0.9,2.5-2.4,3.6-4
		c2.2-3.4,3.7-7.7,4.9-12c1.2-4.4,2-9,2.4-13.5l0-0.1c0.2-1.7,1.7-3,3.4-2.8C134.3,196.2,135.5,197.6,135.6,199.2z"/>
	<path fill="#8D0805" d="M131.9,209.8l-7.4,57.1h30.9l-12.6-43.1c0,0,13.5,0,17.9-13.9c4.4-13.9-5.2-18.3-5.2-18.3L131.9,209.8z"/>
	<path fill="#310800" d="M150.9,251.4c-4.7-3.4-11.6-7.4-19.4-8.1c-1.4-0.1-2.7-0.2-3.9-0.1l-3.1,23.6h30.9L150.9,251.4z"/>
	<path fill="#8D0805" d="M179.7,209.8l-7.4,57.1h30.9l-12.6-43.1c0,0,13.5,0,17.9-13.9c4.4-13.9-5.2-18.3-5.2-18.3L179.7,209.8z"/>
	<path fill="#310800" d="M198.7,251.4c-4.7-3.4-11.6-7.4-19.4-8.1c-1.4-0.1-2.7-0.2-3.9-0.1l-3.1,23.6h30.9L198.7,251.4z"/>
	<path fill="#8D0805" d="M227.2,209.8l-7.4,57.1h30.9l-12.6-43.1c0,0,13.5,0,17.9-13.9c4.4-13.9-5.2-18.3-5.2-18.3L227.2,209.8z"/>
	<path fill="#310800" d="M246.2,251.4c-4.7-3.4-11.6-7.4-19.4-8.1c-1.4-0.1-2.7-0.2-3.9-0.1l-3.1,23.6h30.9L246.2,251.4z"/>
	<g>
		<path fill="#F69170" d="M187,216.1c-4.6,19-6.1,38.4-4.3,57.1c10.3,0,20.6,0,30.9,0c-7.4-14.2-13-28.7-16.7-43.2
			c0.1,0,13.2,0,18.9-14c6.1-13.9-2-18.2-2.2-18.2C204.4,203.9,195.5,210,187,216.1z"/>
		<path fill="#310800" d="M206.3,257.9c-5.1-3.4-12.4-7.4-20.3-8.1c-1.5-0.1-2.7-0.2-3.9-0.1c-0.4,7.9-0.2,15.8,0.5,23.6
			c10.3,0,20.6,0,30.9,0C210.9,268.1,208.5,263,206.3,257.9z"/>
		<path fill="#8D0805" d="M195.7,273.2c-2.8-6-5.3-12.1-7.5-18.2c0.1,6.1,0.4,12.2,1.1,18.2C191.5,273.2,193.6,273.2,195.7,273.2z"
			/>
	</g>
	<path fill="#F69170" d="M235.3,216.1l-7.4,57.1h30.9l-12.6-43.1c0,0,13.5,0,17.9-13.9c4.4-13.9-5.2-18.3-5.2-18.3L235.3,216.1z"/>
	<path fill="#310800" d="M254.3,257.8c-4.7-3.4-11.6-7.4-19.4-8.1c-1.4-0.1-2.7-0.2-3.9-0.1l-3.1,23.6h30.9L254.3,257.8z"/>
	<polygon fill="#8D0805" points="241,273.2 236.6,254.9 234.7,273.2 	"/>
	<path fill="#FEEE9F" d="M57.9,77.8c0,0-3.8,1.9-10.3-1.5c-6.5-3.4-7.2-11-7.2-11s-6.8,8-3,17.1c3.8,9.1,14.1,10.3,14.1,10.3
		L57.9,77.8z"/>
	<path fill="#F69170" d="M44.3,195.8c0,0-20.1-22.7-7.9-76c12.2-53.3,34.1-67.3,74.3-58.5c89.1,15.7,157.2,138,157.2,138l-0.9,15.7
		c0,0-16.6,14-37.6,12.2c-13.8-1.1-31.4-9.6-31.4-9.6l12.2,14.9c0,0-16.6,8.7-59.4-4.4c-42.8-13.1-55-40.2-55-40.2
		s-2.6,3.5-22.7,7.9C53.1,200.1,44.3,195.8,44.3,195.8z"/>
	<path fill="#ED2124" d="M149.1,72.6c0,0-34.9,41.9-2.6,88.2c32.3,46.3,118.8,45.4,118.8,45.4s-8.7,26.2,2.6,35.8
		c11.4,9.6,17.5,5.2,17.5,5.2l-2.6-27.1c0,0,21,16.6,28,7.9c7-8.7-21.8-25.3-21.8-25.3s34.1-1.7,29.7-16.6
		c-4.4-14.9-37.6,3.5-37.6,3.5l15.7-24.5c0,0-6.1-7.9-19.2,0c-13.1,7.9-16.6,21-16.6,21s-25.3-46.3-49.8-71.6
		C186.7,89.2,149.1,72.6,149.1,72.6z"/>
	<g>
		<path fill="#8D0805" d="M210.5,199.1c1.8-1.9,3.6-3.9,5.4-5.9c5.9-6.7,11.5-13.8,16.2-21.5c3.7-6.1,6.4-12.7,8.2-19.4
			c-0.6-0.8-1.1-1.7-1.7-2.5c-2.2,7.2-5.2,14-9.4,20.2c-4.8,7.3-10.5,14-16.5,20.5c-2.3,2.5-4.7,5-7.2,7.4
			C207.2,198.2,208.9,198.7,210.5,199.1z"/>
		<path fill="#8D0805" d="M186.7,138.9c-3.9,8.7-9.2,16.8-15.1,24.4c-3,3.8-6.1,7.4-9.4,10.9c-0.5,0.5-1,1.1-1.5,1.6
			c1.2,1,2.5,2,3.8,2.9c3.8-4.1,7.3-8.3,10.7-12.8c6-7.9,11.1-16.5,14.9-25.7c1.9-4.6,3.3-9.4,4.4-14.2c1.2-4.8,2-9.7,2.6-14.6
			c0.4-3.1,0.6-6.1,0.7-9.2c-0.5-0.4-1-0.8-1.5-1.2c-0.4,3.4-0.8,6.7-1.4,10C193.2,120.8,190.6,130.1,186.7,138.9z"/>
	</g>
	<path fill="#8D0805" d="M79.1,110.7c-0.1,0.9-0.2,1.8-0.2,2.7c0,9.2,7.4,16.6,16.6,16.6c9.2,0,16.6-7.4,16.6-16.6
		c0-0.9-0.1-1.8-0.2-2.7H79.1z"/>
	<path fill="#FFFFFF" d="M82.4,112.3c-0.1,0.6-0.2,1.2-0.2,1.8c0,6.1,4.9,11,11,11c6.1,0,11-4.9,11-11c0-0.6-0.1-1.2-0.2-1.8H82.4z"
		/>
	<path fill="#310800" d="M83.8,112.3c0.1,5.4,4.3,9.8,9.4,9.8c5.2,0,9.3-4.4,9.4-9.8H83.8z"/>
	<circle fill="#FFFFFF" cx="98" cy="118.5" r="2.4"/>
	<g>
		<path fill="#8D0805" d="M79.3,110.9c-0.2,3.2,0,6.4,0.7,9.4c0.7,3,2,5.8,4,8.2c0.9,1.2,2.1,2.3,3.3,3.3c1.2,1,2.4,1.9,3.8,2.7
			c2.7,1.5,5.7,2.7,8.9,2.8c-3.2,0.7-6.6,0-9.6-1.4c-3-1.4-5.7-3.5-7.9-6.1c-2.1-2.6-3.5-5.9-4-9.2C78.1,117.4,78.3,114,79.3,110.9z
			"/>
	</g>
	<g>
		<path fill="#ED2124" d="M6,31.6c0.6-1.3,1.2-2.4,1.8-3.5c0.6-1.1,1.3-2.2,2-3.3c1.4-2.1,3-4.2,4.6-6.1c3.4-3.9,7.4-7.4,12-9.9
			c4.6-2.5,10-3.9,15.3-3.9c5.3,0,10.5,1.5,15.1,3.6c4.6,2.1,8.9,4.9,12.7,8.2c3.8,3.4,7,7.3,9.7,11.5c2.7,4.2,4.9,8.7,6.6,13.3
			c1.7,4.7,3,9.4,3.6,14.4l-1.2-1.2h0l11.8,1.1l-1.3,0.6l0,0c2-3.8,3.7-7.9,4.8-12.1c1.1-4.2,1.6-8.4,1.1-12.5
			c-0.5-4-2-7.7-4.7-10.5c-2.6-2.8-6.3-4.8-10-5.9c-3.7-1-7.7-1.1-11.6-0.3c-3.9,0.8-7.8,2.2-11.5,4.1c-3.7,1.9-7.2,4.2-10.6,6.7
			c-1.7,1.3-3.3,2.6-4.9,4c-0.8,0.7-1.6,1.4-2.3,2.1L48,33.2c-0.4,0.3-0.8,0.8-1,1c-2.1,2.2-5.5,2.4-7.8,0.3
			c-2.2-2.1-2.4-5.5-0.3-7.8c0.1-0.1,0.2-0.2,0.3-0.3l0.1-0.1c0.5-0.5,1-0.8,1.4-1.3l1.4-1.1c0.9-0.7,1.9-1.5,2.8-2.2
			c1.9-1.4,3.8-2.7,5.8-4c4-2.5,8.1-4.8,12.6-6.6c4.4-1.8,9.1-3.2,14-3.8C82.2,6.8,87.4,7.2,92.2,9c2.4,0.9,4.6,2.1,6.7,3.5
			c2.1,1.4,4,3.1,5.6,5.1c1.6,2,2.9,4.3,3.7,6.6c0.8,2.4,1.3,4.9,1.4,7.3c0.2,4.9-0.8,9.6-2.3,13.9c-1.5,4.4-3.5,8.5-6,12.4l0,0
			l-0.4,0.7l-0.8-0.1l-11.8-1.1h0l-1-0.1l-0.2-1.1c-0.8-4.6-2.2-9.2-4-13.5c-1.8-4.4-4-8.6-6.7-12.4c-2.7-3.8-5.8-7.3-9.4-10.2
			c-3.6-2.9-7.6-5.3-11.8-7c-4.3-1.7-8.7-2.8-13.1-2.6c-4.4,0.1-8.6,1.4-12.4,3.6c-3.8,2.2-7.1,5.3-9.9,8.8
			c-1.4,1.8-2.7,3.6-3.9,5.6c-0.6,1-1.1,2-1.7,3c-0.5,1-1,2.1-1.4,3l0,0c-0.8,1.8-2.9,2.7-4.7,2c-1.8-0.8-2.7-2.9-2-4.7
			C6,31.7,6,31.6,6,31.6z"/>
	</g>
	<path fill="#8D0805" d="M122.2,64.5c0,0-1.3-6-21.3-12.7c-20-6.7-52.7-2-51.3,7.3c1.3,9.3,23.3,3.3,23.3,3.3s-11.3,10.7-7.3,15.3
		s6.7,2,14.7-0.7s14-11.3,14-11.3s-6,11.3,0.7,14.7C101.6,83.8,122.2,64.5,122.2,64.5z"/>
	<path fill="#FEEE9F" d="M117.6,77.8c0,0,3.8,1.9,10.3-1.5c6.5-3.4,7.2-11,7.2-11s6.8,8,3,17.1s-14.1,10.3-14.1,10.3
		s-3.8,0.8-7.2-5.3C113.5,81.2,117.6,77.8,117.6,77.8z"/>
	<path fill="#F69170" d="M142.3,216.1l-7.4,57.1h30.9l-12.6-43.1c0,0,13.5,0,17.9-13.9c4.4-13.9-5.2-18.3-5.2-18.3L142.3,216.1z"/>
	<g>
		<path fill="#ED2124" d="M165.8,273.2c-1.4-3.5-2.6-7-3.9-10.6c-1.2-3.5-2.4-7.1-3.6-10.7c-1.2-3.6-2.3-7.1-3.4-10.7l-3.2-10.8
			l-0.6-1.9l2,0c0.7,0,1.7-0.1,2.5-0.3c0.9-0.2,1.7-0.4,2.5-0.6c1.7-0.5,3.2-1.3,4.7-2.3c2.9-1.9,5.1-4.8,6.5-8
			c1.4-3.3,2.3-6.9,1.9-10.5c-0.3-3.5-2.3-7-5.4-9c3.5,1.5,6.1,4.9,6.9,8.8c0.8,3.9,0.1,7.9-1.1,11.6c-1.3,3.7-3.8,7.1-7.1,9.5
			c-1.6,1.2-3.5,2.1-5.4,2.7c-0.9,0.3-1.9,0.6-2.9,0.8c-1,0.2-1.9,0.3-3.1,0.4l1.4-1.9l3.1,10.8c1,3.6,2,7.2,2.9,10.9
			c1,3.6,1.9,7.3,2.7,10.9C164.2,265.9,165,269.5,165.8,273.2z"/>
	</g>
	<path fill="#310800" d="M161.3,257.8c-4.7-3.4-11.6-7.4-19.4-8.1c-1.4-0.1-2.7-0.2-3.9-0.1l-3.1,23.6h30.9L161.3,257.8z"/>
	<polygon fill="#8D0805" points="148,273.2 143.6,254.9 141.6,273.2 	"/>
	<g>
		<path fill="#ED2124" d="M139.8,192.5c0.6,2.8,1,5.4,1.3,8.1c0.3,2.7,0.6,5.4,0.7,8.1c0.2,5.5,0,11.1-1.6,17
			c-0.8,2.9-2,5.9-4.1,8.7c-2.2,2.9-4.8,5-7.6,6.6c-2.8,1.6-5.7,2.7-8.6,3.6c-1.5,0.4-2.9,0.8-4.4,1c-0.7,0.1-1.5,0.3-2.2,0.4
			l-1.2,0.1l-0.6,0.1c-0.2,0-0.4,0-0.7,0c-3.6,0-6.5-2.9-6.6-6.4c0-3.6,2.9-6.5,6.4-6.6c0,0,0.2,0,0.3,0l0.4,0l0.8,0
			c0.5,0,1.1,0,1.6-0.1c1.1-0.1,2.2-0.2,3.3-0.4c2.2-0.4,4.2-1,6.1-1.8c1.8-0.8,3.5-1.9,4.6-3.1c1.2-1.3,2.2-3.1,3-5.1
			c1.6-4.1,2.3-9,2.6-14c0.3-4.9,0.1-10.1-0.4-15l0-0.1c-0.2-1.9,1.2-3.6,3.1-3.8C137.8,189.6,139.5,190.8,139.8,192.5z"/>
	</g>
	<path fill="#ED2124" d="M129.8,236.4c2.2,14.6-13.6,30.5-22.7,33.4c-18.5,5.9-51-5.1-51.6-8.9c-2.2-14.6,12.6-34.9,32.6-38
		C108,219.9,128.8,230,129.8,236.4z"/>
	<path fill="#ED2124" d="M135.1,182.8c-0.7,0.1-1.3,0.3-1.9,0.5c5,0.2,9.4,3.9,10.2,9.1c0.8,5.2-2.3,10-7,11.7c0.6,0,1.3,0,2-0.1
		c5.8-0.9,9.8-6.3,9-12.1C146.3,185.9,140.9,181.9,135.1,182.8z"/>
	<path fill="#8D0805" d="M94.4,255.1l-6.1-5.9l-0.6-0.6l-0.7,0.6l-11.3,9.7l-6.5-6.5l-1-1l-1.3,0.9l-11.5,8.1c0,0.2,0,0.4,0.1,0.6
		c0.1,0.7,1.3,1.6,3.2,2.7l9.3-7.5l6.7,5.9l1.1,0.9l0.9-0.9l11-10.9l6.2,5.3l0.4,0.4l0.4-0.3l13.7-12.3L94.4,255.1z"/>
	<g>
		<path fill="#ED2124" d="M61,214.3c1.1-1.5,1.9-3.4,1.8-5.2c0-0.9-0.4-1.8-0.7-2.7c-0.3-0.9-0.7-1.7-1.1-2.6
			c-0.4-0.9-0.7-1.8-0.9-2.8c-0.2-1-0.2-2,0-3c0.4-2,1.6-3.8,3.4-4.9l0.3-0.2l0.3,0.3c1.1,1.2,2,2.4,2.7,3.8
			c0.8,1.4,1.4,2.8,1.8,4.3c0.4,1.5,0.7,3.1,0.5,4.6c-0.2,1.5-0.7,3.1-1.7,4.2c0.8-1.3,1.2-2.8,1.3-4.3c0.1-1.5-0.2-3-0.7-4.4
			c-0.5-1.4-1.1-2.8-1.9-4c-0.8-1.3-1.7-2.5-2.7-3.5l0.6,0.1c-1.4,1-2.6,2.6-2.9,4.3c-0.2,0.9-0.2,1.8-0.1,2.7
			c0.1,0.9,0.4,1.8,0.7,2.7c0.3,0.9,0.7,1.8,1,2.7c0.3,0.9,0.6,1.9,0.6,2.9C63.3,211.1,62.3,212.9,61,214.3z"/>
	</g>
	<g>
		<path fill="#ED2124" d="M63.5,196c1.7,2.4,2.7,5.2,3.1,8.1c0.2,1.5,0.2,3-0.1,4.4c-0.2,1.4-0.7,2.9-1.3,4.2
			c0.3-1.4,0.4-2.8,0.5-4.2c0.1-1.4,0.1-2.8-0.1-4.2c-0.2-1.4-0.5-2.8-0.8-4.2C64.5,198.8,64.1,197.4,63.5,196z"/>
	</g>
	<g>
		<path fill="#ED2124" d="M101.4,155.7c3.3,3.8,4.7,9.1,4.4,14.3c-0.1,2.6-0.7,5.1-1.6,7.6c-0.9,2.5-2.2,4.7-3.9,6.8
			c-1.7,2-3.6,3.8-5.7,5.3c-2.1,1.4-4.4,2.7-6.8,3.6c-4.7,1.8-9.8,2.8-14.8,2.6c4.8-1.1,9.5-2.6,13.8-4.7c2.1-1.1,4.2-2.3,6.1-3.7
			c1.9-1.4,3.6-3,5-4.9c1.5-1.8,2.7-3.8,3.6-6c0.9-2.2,1.5-4.4,1.9-6.8C104.2,165.1,103.6,160.1,101.4,155.7z"/>
	</g>
	<g>
		<path fill="#ED2124" d="M80.9,55.2c0.5-0.5,1.2-0.7,1.8-0.9c0.7-0.2,1.3-0.2,2-0.2c1.3,0,2.7,0.1,4,0.3c2.7,0.4,5.3,1.1,7.8,2
			c2.5,0.9,5,2.1,7.3,3.5c2.3,1.4,4.5,3,6.4,5l2.1,2.1l-2.7-1.4c-2.4-1.2-4.9-2.1-7.5-2.7c-2.6-0.6-5.3-0.9-7.9-0.6
			c-1.3,0.1-2.6,0.5-3.9,0.9c-1.3,0.4-2.6,0.8-3.8,1.3c-2.5,1-4.9,2.2-7.2,3.8c2.1-1.7,4.5-3.1,7-4.2c1.2-0.6,2.5-1.1,3.8-1.5
			c1.3-0.4,2.6-0.8,4-1c2.8-0.4,5.5-0.1,8.2,0.5c2.7,0.6,5.3,1.5,7.8,2.8l-0.6,0.8c-1.8-1.9-3.9-3.5-6.2-4.9
			c-2.2-1.4-4.6-2.6-7.1-3.6c-2.5-1-5-1.7-7.6-2.2c-1.3-0.3-2.6-0.5-3.9-0.5c-0.7,0-1.3,0-2,0.1C82.1,54.6,81.4,54.7,80.9,55.2z"/>
	</g>
	<path fill="#310800" d="M50.2,168.5c-7.6,0-12.7,0.3-16.3,1.2c3.2,18,10.3,26.1,10.3,26.1s6.9,3.5,22.6,1.1
		c3.3-3.6,5.3-8.3,5.3-13.4C72.2,171.9,63,168.5,50.2,168.5z"/>
	<ellipse fill="#8D0805" cx="46.6" cy="181.2" rx="4.3" ry="6"/>
	<ellipse fill="#8D0805" cx="59.9" cy="181.2" rx="4.3" ry="6"/>
	<path fill="#ED2124" d="M101.8,156.2c2-0.7,4.1,0.1,5.2,1.8c0-0.3-0.1-0.5-0.2-0.8c-0.8-2.2-3.3-3.4-5.6-2.6
		c-2.3,0.8-3.4,3.3-2.6,5.6c0.1,0.3,0.2,0.5,0.4,0.8C98.7,158.9,99.8,156.9,101.8,156.2z"/>
</g>
<g id="hippopotamoose">
</g>
<g id="alligopher">
</g>
<g id="chipmonkey">
</g>
<g id="pelicamel">
</g>
</svg>
