<?xml version="1.0" encoding="utf-8"?>
<!-- Generator: Adobe Illustrator 20.1.0, SVG Export Plug-In . SVG Version: 6.00 Build 0)  -->
<!DOCTYPE svg PUBLIC "-//W3C//DTD SVG 1.1//EN" "http://www.w3.org/Graphics/SVG/1.1/DTD/svg11.dtd">
<svg version="1.1" xmlns="http://www.w3.org/2000/svg" xmlns:xlink="http://www.w3.org/1999/xlink" x="0px" y="0px"
	 viewBox="0 0 231.7 262.5" enable-background="new 0 0 231.7 262.5" xml:space="preserve" width="231.7" height="262.5" preserveAspectRatio="none">
<g id="porcupuma">
</g>
<g id="spotted_jackalope">
</g>
<g id="octopug">
</g>
<g id="flamingoat">
</g>
<g id="orangutoad">
</g>
<g id="tarantulemur">
</g>
<g id="tortusk">
</g>
<g id="chimpanda">
	<path fill="#D5C1DE" d="M56,215.3c0,0,1.8,7.7-9.5,10.2C35.1,228,4.9,211.7,8.1,206.2c3.2-5.4,26.6,6.8,26.6,6.8
		s-17.9-15-12.7-18.6c5.2-3.6,18.6,16.3,18.6,16.3s-9.8-19.1-1.8-19.7c7.9-0.7,12.5,17.7,12.5,17.7s14.8-8.2,17.3-3.2
		C70.9,210.6,56,215.3,56,215.3z"/>
	<g>
		<path fill="#D271AD" d="M29.2,214.9c0.4-1,1.2-1.8,2.1-2.3c0.9-0.6,1.9-0.9,3-1.2c2.1-0.5,4.2-0.6,6.3-0.3
			c2.1,0.3,4.2,1.1,5.9,2.2c1.8,1.2,3.3,2.7,4.2,4.5c-1.8-1-3.5-1.8-5.3-2.4c-1.8-0.6-3.5-1.1-5.3-1.4c-1.8-0.3-3.7-0.4-5.5-0.4
			c-0.9,0-1.8,0.1-2.8,0.2C30.9,214.1,30,214.3,29.2,214.9z"/>
	</g>
	<path fill="#25294A" d="M179.8,91.8c0,0,11.1,0.9,19.5,6.2c8.4,5.3,13.7,12,13.7,12l-4,1.3c0,0,14.6,5.3,17.3,27.5
		c2.7,22.2-14.6,24-14.6,24l-11.1-4l-0.4,7.1c0,0-4,0-10.6-4c-6.7-4-11.5-9.3-11.5-9.3l-12.4-32.4L179.8,91.8z"/>
	<path fill="#25294A" d="M135.1,9.4c3.3-3.8,9.1-4.2,12.9-0.8c3.8,3.3,4.2,9.1,0.8,12.9c-3.3,3.8-14.7,2.1-14.7,2.1
		S131.8,13.2,135.1,9.4z"/>
	<path fill="#D5C1DE" d="M99.4,236.8c0,0,4.2,6.7-1.3,11.8c-5.5,5.1-12,8.5-13.7,6.2c-1.8-2.3,7-7.5,4-10.7
		c-3-3.2-15.6,8.7-27.9,8.9c-12.4,0.2-14-3.6-13.6-6.2c0.4-2.6,5.6-1.5,5.6-1.5s-7.3-2.7-6.2-5.4c1.1-2.7,6.8-2.9,6.8-2.9
		s-2.7,0.8,0.9-2.6c3.5-3.4,10.4,4.1,19.9,4.2c9.5,0.2,17.2-4.9,17.2-4.9L99.4,236.8z"/>
	<g>
		<path fill="#D271AD" d="M68.9,245.6c-2,0.3-3.9,0.3-5.8,0.3c-1.9,0-3.8-0.1-5.7-0.3c-1.9-0.1-3.7-0.4-5.4-0.3
			c-1.7,0.1-3.5,0.4-5.2,1.5c0.3-1,1.1-1.8,1.9-2.4c0.9-0.6,1.8-1.1,2.9-1.4c1-0.3,2.1-0.4,3.1-0.4c1,0,2,0,3,0.1
			c1.9,0.2,3.9,0.5,5.7,0.9C65.2,244.1,67.1,244.7,68.9,245.6z"/>
	</g>
	<g>
		<path fill="#D271AD" d="M67.7,240c-2.1,0-4.1-0.2-6.1-0.4c-2-0.2-3.9-0.5-5.8-0.8c-1-0.1-1.9-0.3-2.8-0.4l-0.7-0.1l-0.7,0
			c-0.4,0-0.8,0-1.2,0.1c-0.8,0.1-1.6,0.4-2.3,0.9c-0.7,0.5-1.3,1.3-1.7,2.2c-0.2-1,0-2.2,0.6-3.2c0.6-1,1.7-1.8,2.8-2.2
			c0.6-0.2,1.1-0.3,1.7-0.4l0.4,0l0.4,0l0.8,0c1.1,0,2.1,0.1,3.1,0.3c2,0.3,4,0.8,5.9,1.5C64.1,238,66,238.8,67.7,240z"/>
	</g>
	<path fill="#D5C1DE" d="M153.6,236.8c0,0-4.2,6.7,1.3,11.8c5.5,5.1,12,8.5,13.7,6.2c1.8-2.3-7-7.5-4-10.7c3-3.2,15.6,8.7,27.9,8.9
		c12.4,0.2,14-3.6,13.6-6.2c-0.4-2.6-5.6-1.5-5.6-1.5s7.3-2.7,6.2-5.4c-1.1-2.7-7.6-0.7-7.6-0.7s3.5-1.3-0.1-4.7
		c-3.5-3.4-10.4,4.1-19.9,4.2c-9.5,0.2-17.2-4.9-17.2-4.9L153.6,236.8z"/>
	<g>
		<path fill="#D271AD" d="M184.1,245.6c1.8-0.9,3.6-1.5,5.5-2c1.9-0.5,3.8-0.8,5.7-0.9c1-0.1,2-0.1,3-0.1c1,0,2.1,0.2,3.1,0.4
			c1,0.3,2,0.7,2.9,1.4c0.8,0.6,1.6,1.4,1.9,2.4c-1.7-1.1-3.4-1.4-5.2-1.5c-1.7-0.1-3.5,0.2-5.4,0.3c-1.9,0.1-3.8,0.3-5.7,0.3
			C188,246,186.1,245.9,184.1,245.6z"/>
	</g>
	<g>
		<path fill="#D271AD" d="M185.3,240c1.8-0.9,3.6-1.5,5.5-2c1.9-0.5,3.8-0.8,5.7-0.9c1-0.1,2-0.1,3-0.1c1,0,2.1,0.2,3.1,0.4
			c1,0.3,2,0.7,2.9,1.4c0.8,0.6,1.6,1.4,1.9,2.4c-1.7-1.1-3.4-1.4-5.2-1.5c-1.7-0.1-3.5,0.2-5.4,0.3c-1.9,0.1-3.8,0.3-5.7,0.3
			C189.2,240.3,187.3,240.2,185.3,240z"/>
	</g>
	<path fill="#25294A" d="M98.2,19.1l-26.3,59c0,0-6.4-3.6-20.9-2.7s-14.5,6.4-14.5,6.4l9.1,1.8c0,0-25.4,0.9-39,36.3
		c-8.5,22.2,16.7,56.7,31.8,78.9c8.9,13.2,10,21.8,10,21.8h7.3c0,0,4.5-8.2,7.3-31.8c2.7-23.6-0.9-51.7-0.9-51.7s2.7,13.1,11.8,25.4
		c9.1,12.3,25.4,17.2,25.4,17.2s-29,9.1-27.2,27.2c1.8,18.1,20,30.8,20,30.8l10.9,3.6c0,0-10-11.8-8.2-24.5
		c1.8-12.7,28.1-14.5,28.1-14.5s39-1.8,41.7,9.1c2.7,10.9-13.6,28.1-13.6,28.1l11.8-3.6c0,0,29-14.5,25.4-36.3
		c-3.6-21.8-36.3-19.1-36.3-19.1s23.6-13.6,36.3-30.8c12.7-17.2-10.9-37.2-10.9-37.2s10.9-10,2.7-25.4s-25.4-14.5-25.4-14.5
		s1.8-11.8-3.6-25.4c-5.4-13.6-13.6-25.4-13.6-25.4L98.2,19.1z"/>
	<path fill="#D5C1DE" d="M188,149.8c12.7-17.2-10.9-37.2-10.9-37.2s10.9-10,2.7-25.4s-25.4-14.5-25.4-14.5s1.8-11.8-3.6-25.4
		c-5.4-13.6-13.6-25.4-13.6-25.4l-39-2.7l-26.3,59c0,0-0.4-0.2-1.3-0.6c-0.5,3.2-0.5,8.3,2.3,14c4.6,9.6,14.7,7.9,14.7,7.9
		s-11.8,4.3-20,17.2c-8.2,12.9-3.4,18.6-3.3,28.2c1.8,4.9,4.8,11.4,9.5,17.8c9.1,12.3,25.4,17.2,25.4,17.2s-0.5,0.1-1.2,0.4
		c12.6,5.5,35.3,6.1,35.3,6.1s3.5-1,19.8-6.4C158.1,176.8,177.1,164.6,188,149.8z"/>
	
		<ellipse transform="matrix(0.1979 -0.9802 0.9802 0.1979 25.5453 154.1405)" fill="#25294A" cx="107" cy="61.5" rx="22.9" ry="17"/>
	<path fill="#25294A" d="M163.6,74c-5.1-1.5-9.2-1.3-9.2-1.3s1.8-11.8-3.6-25.4c-1-2.5-2.1-4.9-3.2-7.2c-4.2-1.5-8.4-1.4-12,0.6
		c-8.2,4.5-9.9,17.2-3.9,28.2c6.1,11.1,17.7,16.4,25.9,11.9C160.4,79.3,162.3,76.9,163.6,74z"/>
	<circle fill="#FFFFFF" cx="113" cy="62.7" r="8.3"/>
	<circle fill="#002C3E" cx="113" cy="62.7" r="4.8"/>
	<path fill="#25294A" d="M87.1,16.6c-2.5-4.4-1-9.9,3.4-12.4c4.4-2.5,9.9-1,12.4,3.4c2.5,4.4-2.8,14.6-2.8,14.6S89.6,21,87.1,16.6z"
		/>
	<path fill="#D49BC5" d="M155.4,67.2c-4.8,0-12.7,3.3-20.9,8.2c-4.5-4-10.5-6.4-17-6.4c-14.2,0-25.7,11.5-25.7,25.7
		c0,10.1,5.8,18.9,14.3,23.1c11.3,8.2,38.4,11.1,49.3,8c13.7-3.9,31.1-18.3,31.1-32.5C186.5,79.1,169.6,67.2,155.4,67.2z"/>
	<circle fill="#D5C1DE" cx="115.8" cy="75.5" r="1.3"/>
	<circle fill="#D5C1DE" cx="121.8" cy="77.3" r="1.3"/>
	<circle fill="#D5C1DE" cx="118" cy="80.2" r="1.3"/>
	<circle fill="#D5C1DE" cx="165.4" cy="74.6" r="1.3"/>
	<circle fill="#D5C1DE" cx="171.4" cy="76.5" r="1.3"/>
	<circle fill="#D5C1DE" cx="167.7" cy="79.3" r="1.3"/>
	<g>
		<path fill="#AA5B8D" d="M108.6,77.5c1.5,3,3.8,5.4,6.3,7.4c2.6,2,5.5,3.5,8.5,4.6c1.5,0.6,3.1,1,4.6,1.4c1.6,0.4,3.2,0.7,4.8,1
			c3.2,0.5,6.5,0.8,9.7,0.8c3.2,0,6.5-0.2,9.7-0.7c3.2-0.5,6.4-1.3,9.5-2.3c3.1-1.1,6.1-2.3,9-3.9c2.9-1.5,5.7-3.3,8.3-5.4
			c-2.2,2.6-4.8,4.7-7.6,6.6c-2.8,1.9-5.8,3.5-8.9,4.8c-3.1,1.3-6.4,2.3-9.8,2.9c-3.4,0.6-6.8,0.9-10.2,0.9
			c-3.4-0.1-6.8-0.4-10.2-1.1c-3.3-0.7-6.7-1.5-9.8-3c-3.1-1.4-6.1-3.3-8.6-5.7C111.5,83.7,109.4,80.8,108.6,77.5z"/>
	</g>
	<g>
		<path fill="#AA5B8D" d="M106.4,78.9c-0.3-0.7-0.1-1.4,0.3-2c0.4-0.6,1.2-1.1,1.9-1.1c0.8-0.1,1.6,0.1,2.1,0.5c0.5,0.4,1,1,1.1,1.7
			c-0.7-0.1-1.2-0.2-1.7-0.2c-0.5,0-0.9,0-1.2,0c-0.4,0.1-0.7,0.1-1.1,0.3C107.3,78.1,106.9,78.4,106.4,78.9z"/>
	</g>
	<g>
		<path fill="#D271AD" d="M76.1,151.1c4.1-1.6,8.3-2.8,12.6-3.8c4.3-1,8.6-1.7,13.1-2.1c4.4-0.4,8.9-0.3,13.3,0.2
			c4.4,0.5,8.7,1.3,13,2c4.3,0.8,8.6,1.7,12.9,2.6c4.3,0.9,8.5,1.8,12.8,2.8l6.4,1.4c2.1,0.4,4.3,0.9,6.4,1.2c2.1,0.3,4.2,0,6-1
			c1.8-1,3.3-2.7,4.1-4.7c-0.6,2.1-1.8,4.1-3.7,5.4c-1.9,1.4-4.3,1.9-6.6,1.8c-4.5-0.2-8.8-1-13.1-1.7c-4.3-0.7-8.6-1.6-12.9-2.3
			c-4.3-0.8-8.6-1.6-12.8-2.4c-4.3-0.8-8.6-1.5-12.8-2.2c-4.2-0.7-8.5-0.8-12.8-0.7C93.2,147.9,84.6,149.2,76.1,151.1z"/>
	</g>
	<path fill="#25294A" d="M172.2,126.9c0,0-1.8,13.7,1.3,23.1c3.1,9.3,9.8,12.9,9.8,12.9l9.3-13.3l3.5-30.6l-16.4-4.9L172.2,126.9z"
		/>
	<g>
		<path fill="#664966" d="M178,119.8c2.3-2,4.9-3.6,7.7-4.9c2.8-1.2,5.9-2.1,9-2.3c3.1-0.2,6.3,0.3,9.2,1.4c2.9,1.1,5.6,2.7,7.8,4.9
			c-2.7-1.5-5.4-2.6-8.2-3.4c-2.8-0.8-5.7-1.1-8.6-0.9c-2.9,0.2-5.8,0.9-8.6,1.8C183.5,117.3,180.7,118.4,178,119.8z"/>
	</g>
	<g>
		<path fill="#664966" d="M49.8,102.9c3,4.4,5.5,9.1,7.6,13.9c2.1,4.9,3.9,9.9,5.1,15.1c1.1,5.3,1.5,10.6,1.6,15.9
			c0,5.3-0.2,10.6-1.4,15.8c-0.1-5.3-0.5-10.5-0.9-15.7c-0.3-2.6-0.5-5.2-0.9-7.8c-0.3-2.6-0.7-5.1-1.3-7.6c-0.5-2.5-1.2-5-1.9-7.5
			c-0.7-2.5-1.6-5-2.4-7.4C53.6,112.7,51.7,107.8,49.8,102.9z"/>
	</g>
	<path fill="#D5C1DE" d="M179.8,122.9c0,0-6.7-3.5-15.5-5.8c-8.9-2.2-25.7-0.9-25.3,6.7c0.4,7.5,17.1-0.2,17.1-0.2
		s-6.2,3.6-8.4,10.8c-2.1,6.9,1.5,10.1,3.7,8.8c2.2-1.3,2.2-5.5,4-8.7c1.8-3.3,4.2-6,4.2-6s-1.3,9.3,0,15.1c1.1,5.3,6.4,5.4,7.5,3.9
		c1.4-1.9,0.2-6.7-0.6-9.4c-0.7-2.7,0-6.8,0-6.8s0.9,2.1,4.4,2.7c3.5,0.5,10.1-2,11.2-5.6C183.3,124.8,179.8,122.9,179.8,122.9z"/>
	<path fill="#D5C1DE" d="M174.4,121.6c0,0-2.4-6.7-5-9.4c-2.5-2.7-7-4.8-9.1-2.2c-3.1,4,7.3,12,7.3,12L174.4,121.6z"/>
	<g>
		<path fill="#D271AD" d="M182.2,128.4c0.2-0.7,0.3-1.5,0.1-2.2c-0.2-0.7-0.5-1.4-1-1.9c-0.5-0.5-1-1-1.7-1.3
			c-0.7-0.3-1.3-0.6-2-0.9c-2.7-1.2-5.4-2.2-8.2-3c-1.4-0.4-2.8-0.8-4.2-1.2c-1.4-0.4-2.8-0.6-4.3-0.8c-2.9-0.3-5.8-0.4-8.7-0.1
			c-2.9,0.3-5.7,0.8-8.3,1.9c-1.3,0.6-2.5,1.3-3.3,2.3c-0.8,0.9-1.1,2.2-0.8,3.4c0.2,0.5,0.4,1,0.9,1.3c0.4,0.3,1,0.5,1.7,0.5
			c1.3,0.2,2.7,0,4.1-0.3c2.8-0.6,5.5-1.6,8.1-2.7l5.9-2.6l-5,4.2c-2.5,2.1-4.8,4.8-6.2,7.8c-0.4,0.7-0.7,1.5-0.9,2.3
			c-0.1,0.4-0.2,0.8-0.3,1.2c-0.1,0.4-0.2,0.8-0.2,1.2c-0.2,1.6,0,3.2,0.8,4.3c0.4,0.5,0.9,0.9,1.4,0.9c0.2,0,0.5,0,0.7-0.2
			c0.1-0.1,0.2-0.1,0.2-0.1c0,0,0.1-0.1,0.2-0.1c0.1-0.1,0.2-0.2,0.3-0.4c0.8-1.2,1.2-2.9,1.7-4.6c0.3-0.9,0.6-1.7,1-2.6
			c0.4-0.9,0.9-1.6,1.4-2.3c1-1.5,2-2.9,3.2-4.3l1.9-2.2l-0.4,2.9c-0.4,3.4-0.6,6.9-0.6,10.3c0,1.7,0.2,3.4,0.6,5
			c0.4,1.5,1.4,2.8,2.8,3.4c0.7,0.3,1.5,0.4,2.2,0.3c0.4,0,0.7-0.2,1-0.3c0.2-0.1,0.4-0.4,0.5-0.7c0.2-0.7,0.3-1.5,0.2-2.4
			c0-0.8-0.2-1.7-0.3-2.5c-0.1-0.8-0.3-1.7-0.5-2.5l-0.3-1.3c-0.1-0.5-0.1-0.9-0.2-1.4c-0.1-1.8,0.1-3.6,0.4-5.3l0.2-1l0.5,0.9
			c0.4,0.9,1.4,1.6,2.4,2c1,0.4,2.1,0.7,3.2,0.6c1.1,0,2.2-0.2,3.3-0.5c1.1-0.3,2.1-0.7,3.1-1.3c-1,0.6-2,1.1-3.1,1.5
			c-1.1,0.4-2.2,0.7-3.4,0.7c-1.2,0.1-2.3-0.1-3.4-0.5c-1.1-0.4-2.1-1.1-2.8-2.2l0.6-0.1c-0.2,1.7-0.3,3.4-0.1,5.1
			c0,0.4,0.1,0.8,0.2,1.2l0.4,1.2c0.2,0.8,0.4,1.7,0.6,2.6c0.2,0.9,0.3,1.7,0.4,2.7c0.1,0.9,0.1,1.8-0.2,2.8c-0.2,0.5-0.4,1-1,1.4
			c-0.5,0.3-1,0.5-1.5,0.5c-1,0.2-2,0-2.9-0.3c-0.9-0.4-1.7-1-2.4-1.7c-0.6-0.8-1.1-1.6-1.3-2.6c-0.5-1.8-0.6-3.5-0.7-5.3
			c-0.2-3.5,0.1-7,0.5-10.6l1.5,0.7c-1.1,1.3-2.1,2.7-3,4.1c-0.4,0.7-0.9,1.5-1.2,2.2c-0.3,0.7-0.6,1.5-0.9,2.3l-0.7,2.5
			c-0.3,0.9-0.6,1.8-1.2,2.6c-0.1,0.2-0.3,0.4-0.5,0.6c-0.1,0.1-0.2,0.2-0.3,0.3c-0.1,0.1-0.2,0.2-0.3,0.2c-0.5,0.4-1.2,0.5-1.8,0.5
			c-1.3-0.1-2.3-0.9-2.9-1.7c-1.2-1.8-1.4-3.8-1.2-5.7c0.2-1.9,0.8-3.6,1.6-5.3c0.8-1.6,1.8-3.1,3-4.5c1.2-1.4,2.4-2.7,3.8-3.8
			l1,1.6c-2.8,1.2-5.6,2.2-8.6,2.8c-1.5,0.3-3,0.5-4.7,0.3c-0.8-0.1-1.7-0.3-2.4-0.9c-0.8-0.5-1.4-1.4-1.6-2.3
			c-0.1-0.2-0.1-0.4-0.1-0.7l0-0.3l0-0.2l0-0.2c0-0.4,0-0.9,0.1-1.3c0.2-0.9,0.6-1.7,1.2-2.3c1.1-1.3,2.5-2.1,3.9-2.7
			c2.9-1.1,5.9-1.6,8.8-1.8c3-0.2,6-0.1,8.9,0.4c3,0.4,5.8,1.3,8.6,2.3c2.8,1,5.5,2.1,8.2,3.4c0.7,0.3,1.3,0.7,2,1
			c0.7,0.4,1.2,0.9,1.7,1.5c0.5,0.6,0.8,1.3,0.9,2C182.5,126.9,182.4,127.7,182.2,128.4z"/>
	</g>
	<g>
		<path fill="#664966" d="M89.1,6c1.7,0.1,3.4,0.6,5,1.5c0.8,0.4,1.5,1,2.2,1.7c0.7,0.7,1.2,1.5,1.6,2.3c0.8,1.6,1.3,3.3,1.8,5
			c0.4,1.7,0.7,3.4,0.9,5.1l0,0c0.1,0.5-0.3,1-0.8,1.1c-0.5,0.1-0.9-0.2-1-0.7c-0.3-0.8-0.7-1.7-1.2-2.5c-0.5-0.8-1.1-1.6-1.7-2.2
			c-1.4-1.3-3.2-2.2-5.1-2.8c1,0,2.1,0.1,3.1,0.4c1,0.3,2,0.8,2.9,1.4c0.9,0.6,1.7,1.4,2.3,2.3c0.6,0.9,1.2,1.8,1.6,2.9l-1.8,0.4
			c-0.3-1.6-0.6-3.3-1-4.9c-0.4-1.6-0.8-3.2-1.4-4.7c-0.3-0.7-0.7-1.4-1.1-2c-0.5-0.6-1-1.2-1.7-1.7C92.2,7.5,90.7,6.7,89.1,6z"/>
	</g>
	<circle fill="#FFFFFF" cx="111.3" cy="60.8" r="1.7"/>
	<circle fill="#FFFFFF" cx="140.1" cy="62.7" r="8.3"/>
	<circle fill="#002C3E" cx="140.2" cy="62.7" r="4.8"/>
	<circle fill="#FFFFFF" cx="138.5" cy="60.8" r="1.7"/>
	<ellipse fill="#002C3E" cx="145.2" cy="76.1" rx="14.5" ry="8.6"/>
	<ellipse fill="#004961" cx="141.3" cy="79.2" rx="2.7" ry="3.8"/>
	<ellipse fill="#004961" cx="152.2" cy="79.2" rx="2.7" ry="3.8"/>
</g>
<g id="rhinocerabbit">
</g>
<g id="buffalobster">
</g>
<g id="hippopotamoose">
</g>
<g id="alligopher">
</g>
<g id="chipmonkey">
</g>
<g id="pelicamel">
</g>
</svg>
