<?xml version="1.0" encoding="utf-8"?>
<!-- Generator: Adobe Illustrator 19.2.0, SVG Export Plug-In . SVG Version: 6.00 Build 0)  -->
<!DOCTYPE svg PUBLIC "-//W3C//DTD SVG 1.1//EN" "http://www.w3.org/Graphics/SVG/1.1/DTD/svg11.dtd">
<svg version="1.1" xmlns="http://www.w3.org/2000/svg" xmlns:xlink="http://www.w3.org/1999/xlink" width="328.7" height="311.8" preserveAspectRatio="none" x="0px" y="0px"
	 viewBox="0 0 328.7 311.8" enable-background="new 0 0 328.7 311.8" xml:space="preserve">
<g id="porcupuma">
</g>
<g id="spotted_jackalope">
</g>
<g id="octopug">
</g>
<g id="flamingoat">
	<path fill="#D59829" d="M4.6,18.1c0,0,48.7-26.3,69.7-1.3c21,25,10.5,64.4,10.5,64.4H73c0,0-2.6-38.1-14.5-50
		C46.7,19.5,4.6,18.1,4.6,18.1z"/>
	<path fill="#A6590D" d="M74.4,76.7c0,0-2.6-38.1-14.5-50C51.2,18,26.2,15,13.5,14c-5.5,2.3-8.9,4.1-8.9,4.1s42.1,1.3,53.9,13.2
		c11.8,11.8,14.5,50,14.5,50h11.8c0,0,0.4-1.7,1-4.6H74.4z"/>
	<g>
		<path fill="#A6590D" d="M24.5,19.9c0.6-2.9,1.2-5.8,1.7-8.7l0.4-1.8c-0.2,0.1-0.5,0.1-0.7,0.2l-0.2,1.5c-0.5,2.9-0.9,5.8-1.4,8.7
			C24.4,19.9,24.4,19.9,24.5,19.9z"/>
		<path fill="#A6590D" d="M43.7,13.2l2.5-7.1c-0.7,0-1.3,0.1-2,0.1l-2.4,6.4c-1.2,3.3-2.5,6.5-3.7,9.8c0.7,0.2,1.5,0.3,2.2,0.5
			C41.4,19.7,42.6,16.4,43.7,13.2z"/>
		<path fill="#A6590D" d="M87.4,54.5c0-0.1,0-0.2,0-0.3c-2.9,0.8-5.7,1.6-8.6,2.4l-8.9,2.5c0.1,0.3,0.1,0.7,0.2,1l8.9-2.9
			C81.8,56.4,84.6,55.4,87.4,54.5z"/>
		<path fill="#A6590D" d="M70.4,13c-0.7-0.5-1.4-1.1-2.1-1.5l-8.8,10.5l-5.2,6.2c0.8,0.4,1.5,0.9,2.2,1.4l5-6L70.4,13z"/>
		<path fill="#A6590D" d="M76,42.1c3.1-1.1,6.1-2.2,9.2-3.3c-0.2-0.7-0.4-1.5-0.6-2.2c-3.1,1.2-6.2,2.4-9.3,3.6l-9.6,3.7
			c0.2,0.6,0.4,1.1,0.6,1.7L76,42.1z"/>
	</g>
	<g>
		<path fill="#FFC430" d="M4.6,18.1c5.1-3,10.6-5.5,16.1-7.7C26.3,8.4,32.1,6.7,38,5.7c5.9-1,12.1-1.3,18.1-0.4c6,1,12,3.5,16.6,7.8
			c2.3,2.1,4.2,4.6,5.9,7.1c1.7,2.5,3.2,5.2,4.4,8c2.4,5.6,3.9,11.5,4.7,17.5c0.8,6,0.8,12,0.3,18c-0.5,6-1.5,11.9-3.2,17.6
			c1.1-5.8,1.6-11.7,1.8-17.6c0.1-5.9-0.2-11.8-1.2-17.6c-1-5.8-2.5-11.4-5-16.7c-1.2-2.6-2.6-5.2-4.2-7.5c-1.6-2.4-3.4-4.7-5.5-6.5
			c-4.1-3.9-9.5-6.2-15.1-7.2C50.1,7,44.2,7.2,38.4,8c-5.8,0.8-11.5,2.1-17.2,3.9C15.6,13.6,10,15.7,4.6,18.1z"/>
	</g>
	<path fill="#C5334D" d="M250.7,152.3c0,0,14.2-3.6,31.3,15.3c14.4,15.9,9.6,21.2,14.4,33.8c4.9,12.6,28.7,14.3,28.7,14.3
		s-9.3,12.1-32.4,5.8C269.6,215.3,250.7,152.3,250.7,152.3z"/>
	<path fill="#C5334D" d="M266.3,178.5c0,0,1.7,21.4,8.7,33.8c7,12.4,24.2,15,24.2,15s-13.9-6.2-15.6-13.7
		c-1.8-7.6,0.5-18.8,0.5-18.8L266.3,178.5z"/>
	<path fill="#FFFDE5" d="M70.3,127.6c0,0-10.3-0.6-8.9,23c1.4,23.5,13.2,38.1,13.2,38.1s-4.2-14.5-1.4-29.1
		c2.8-14.5,14.5-28.4,14.5-28.4L70.3,127.6z"/>
	<path fill="#EAC67C" d="M67.9,162.4c-0.6-1.6-1.1-3.2-1.5-4.8c-0.4-1.6-0.8-3.3-1-4.9c-0.5-3.3-0.7-6.7-0.2-10.1
		c0.2-1.7,0.7-3.4,1.4-5c0.6-1.6,1.4-3.1,2.4-4.6c1-1.4,2.1-2.7,3.4-3.9c1.3-1.2,2.7-2.1,4.4-2.9l0.5-0.2l0.4,0.4l3.9,3.4l1.1,0.9
		l-1.4,0.5c-2,0.7-4,1.9-5.5,3.4c-0.8,0.8-1.5,1.6-2,2.6c-0.5,1-0.9,2-1.2,3.1c-0.6,2.2-1,4.5-1.3,6.7c-0.3,2.3-0.5,4.6-0.6,6.9
		c-0.2-2.3-0.2-4.6-0.1-7c0.1-2.3,0.3-4.7,0.8-7c0.3-1.1,0.6-2.3,1.2-3.4c0.6-1.1,1.3-2.1,2.1-3c0.8-0.9,1.8-1.7,2.8-2.3
		c1-0.7,2.1-1.2,3.3-1.7l-0.3,1.4l-3.9-3.3l0.9,0.1c-1.3,0.6-2.7,1.6-3.9,2.6c-1.2,1.1-2.3,2.3-3.2,3.6c-1.8,2.6-3.2,5.6-3.8,8.8
		c-0.6,3.2-0.6,6.5-0.3,9.8C66.5,155.9,67.1,159.1,67.9,162.4z"/>
	<path fill="#D59829" d="M190.7,47.2c0,0-39.3-39-66.5-21c-27.2,18-28.3,58.9-28.3,58.9l11.4,3.3c0,0,13.3-35.8,28-43.9
		C149.9,36.5,190.7,47.2,190.7,47.2z"/>
	<g>
		<path fill="#FFC430" d="M190.7,47.2c-4.5-3.9-9.2-7.4-14.2-10.7c-4.9-3.3-10-6.2-15.4-8.6c-5.3-2.3-10.9-4.2-16.6-4.8
			c-5.7-0.6-11.5,0.1-16.5,2.7c-2.5,1.2-4.9,2.9-7.1,4.7c-2.2,1.8-4.3,3.9-6.2,6.1c-3.8,4.4-6.9,9.3-9.5,14.6
			c-2.5,5.3-4.5,10.8-6.1,16.5c-1.5,5.7-2.7,11.5-3.3,17.4c0-6,0.7-11.9,1.9-17.8c1.2-5.9,2.9-11.6,5.4-17.1
			c2.4-5.5,5.5-10.8,9.4-15.5c2-2.3,4.1-4.5,6.5-6.5c2.4-1.9,4.8-3.8,7.6-5.2c5.6-2.8,12.1-3.5,18.2-2.8c6.1,0.8,11.9,2.8,17.3,5.5
			c5.4,2.6,10.5,5.9,15.2,9.5C182.1,38.9,186.6,42.8,190.7,47.2z"/>
	</g>
	<path fill="#A6590D" d="M107.2,83.6c0,0,13.3-35.8,28-43.9c10.8-5.9,35.7-1.7,48.2,0.9c4.6,3.7,7.4,6.5,7.4,6.5
		s-40.7-10.6-55.4-2.6c-14.7,8-28,43.9-28,43.9l-11.4-3.3c0,0,0-1.7,0.4-4.7L107.2,83.6z"/>
	<g>
		<path fill="#A6590D" d="M171.1,43.2c0.3-2.9,0.5-5.9,0.8-8.8l0.2-1.9c0.2,0.1,0.4,0.3,0.6,0.4l-0.2,1.5c-0.4,2.9-0.8,5.8-1.2,8.8
			C171.2,43.3,171.2,43.2,171.1,43.2z"/>
		<path fill="#A6590D" d="M154.6,31.4l-0.4-7.6c0.6,0.2,1.3,0.4,1.9,0.7l0.5,6.8c0.3,3.5,0.5,7,0.8,10.5c-0.7,0-1.5-0.1-2.2-0.1
			C154.9,38.2,154.8,34.8,154.6,31.4z"/>
		<path fill="#A6590D" d="M101,58.7c0-0.1,0.1-0.2,0.1-0.3c2.5,1.6,5,3.1,7.5,4.7l7.8,5c-0.2,0.3-0.3,0.6-0.5,0.9l-7.7-5.3
			C105.8,62,103.4,60.4,101,58.7z"/>
		<path fill="#A6590D" d="M129,23.6c0.8-0.3,1.6-0.6,2.4-0.9l5.5,12.5l3.2,7.4c-0.9,0.2-1.7,0.5-2.5,0.7l-3.1-7.1L129,23.6z"/>
		<path fill="#A6590D" d="M115.4,50c-2.6-1.9-5.3-3.9-7.9-5.8c0.4-0.6,0.8-1.3,1.2-1.9c2.6,2,5.3,4.1,7.9,6.1l8.1,6.3
			c-0.4,0.5-0.7,1-1.1,1.5L115.4,50z"/>
	</g>
	<path fill="#40003E" d="M76,105l-6.7-6.7c0,0-30.9,6.7-48.5,20c-17.6,13.3,0.8,51.1,0.8,51.1s0-12.6,20.9-25.9
		c20.9-13.3,49.3-12.6,49.3-12.6L76,105z"/>
	<path fill="#62041A" d="M23.8,118.9c3.3-2.5,7.2-4.8,11.2-6.9c-0.4-0.5-0.8-0.9-1.2-1.4c-4.7,2.3-9.1,4.9-13,7.8
		c-17.6,13.3,0.8,51.1,0.8,51.1s0-1.6,0.9-4.2C18.3,154.7,10.1,129.3,23.8,118.9z"/>
	<path fill="#C5334D" d="M56.6,101.8c-7.4,2.3-16.9,5.6-25.5,10.2c2,3.6,4.1,7.8,6,12.7c2.4,6,3.8,12.8,4.7,19.4
		c0.2-0.2,0.5-0.3,0.7-0.5c7.1-4.5,15.1-7.4,22.6-9.3L56.6,101.8z"/>
	<path fill="#F4878D" d="M56.6,104.3l7.9,30.1c0.2-0.1,0.4-0.1,0.6-0.2l-8.5-32.5c-7.4,2.3-16.9,5.6-25.5,10.2
		c0.4,0.6,0.7,1.3,1.1,2C40.5,109.6,49.5,106.4,56.6,104.3z"/>
	<path fill="#F4878D" d="M124,241.7c-10.9,0-21.8-4.1-29.6-11.2c-6-5.5-13.3-15.6-13.9-32.5c-0.7-19.1,8.1-29.7,15.2-38.3
		c5.5-6.6,9.5-11.4,10.1-20.2c1.5-21.1-13.5-38.9-13.6-39.1l24.4-14.2c0.9,1,18,22.8,15.8,55c-1.2,17.4-9.5,27.4-16.1,35.4
		c-5.9,7.1-9.4,11.4-9.1,20.3c0.2,6.2,2,10.8,5.3,13.8c3.8,3.4,9.1,4.4,12.5,4.3c7-0.4,9.9-3,11.6-5c5.9-7.1,5.4-20.7,5-24l26.4-3.5
		c0.4,2.8,3.2,27.5-10.9,44.5c-7.3,8.8-17.9,13.9-30.6,14.6C125.5,241.7,124.8,241.7,124,241.7z"/>
	<path fill="#C5334D" d="M135.5,203.9c0,0-2,21.2,0.7,35.6c2.6,14.4,3.3,22.9,3.3,22.9l-4.6,29.6l24.3,0.9l-11.2-39
		c0,0,3.3-15.3,7.2-32.2c3.9-17-1.3-28.8-1.3-28.8L135.5,203.9z"/>
	<polygon fill="#40003E" points="153.7,273.9 137.5,274.8 134.8,292 159.2,293 	"/>
	<path fill="#C5334D" d="M239.8,204.8c0,0,2,21.2-0.7,35.6c-2.6,14.4-3.3,22.9-3.3,22.9l2,28.7h-23.6l13.1-37.2
		c0,0-3.3-15.3-7.2-32.2c-3.9-17,1.3-28.8,1.3-28.8L239.8,204.8z"/>
	<polygon fill="#40003E" points="236.6,272.9 220.7,273.8 214.3,292 237.9,292 	"/>
	<path fill="#F4878D" d="M131.6,166.1c-5.6,17.5-6.6,27.7-4.6,38.2c2,10.6,12.5,29.7,12.5,29.7l0.7-15.2c0,0,1.3,10.5,7.9,16.5
		c6.6,5.9,9.7,10.3,20.4,10.5c46.7,1.2,72.5-34.3,72.5-34.3s-5.9,4.6-6.6,18.5c-0.7,13.8,21.9,29.7,21.9,29.7l16.6-37.2
		c0,0,16.6-57.9-12.5-71.4c-20.6-9.5-23.6-0.1-61.2,0.5c-19.8,0.3-37.7-2.3-37.7-2.3S138.1,145.9,131.6,166.1z"/>
	<path fill="#F4878D" d="M150.4,215.1c0,0-2,21.2,0.7,35.6c2.6,14.4,3.3,22.9,3.3,22.9l-4.6,29.6l24.3,0.9l-11.2-39
		c0,0,3.3-15.3,7.2-32.2c3.9-17-1.3-28.8-1.3-28.8L150.4,215.1z"/>
	<path fill="#F4878D" d="M269.8,217c0,0,2,21.2-0.7,35.6c-2.6,14.4-3.3,22.9-3.3,22.9l2,28.7h-23.6l13.1-37.2c0,0-3.3-15.3-7.2-32.2
		c-3.9-17,1.3-28.8,1.3-28.8L269.8,217z"/>
	<path fill="#C5334D" d="M146,175.3c0,2.9,0.3,5.9,0.8,8.7c0.5,2.9,1.2,5.7,2,8.5c1.7,5.6,4.1,10.9,7.1,15.9
		c3,4.9,6.9,9.2,11.7,12.3c2.4,1.5,5,2.8,7.6,3.8c1.3,0.5,2.7,0.9,4.1,1.2c1.4,0.3,2.8,0.6,4.1,0.6l-1.3,1.9l-6-14.4l-6-14.4l-2.5-6
		l5.1,4.1c2.2,1.8,4.8,3.4,7.4,4.9c2.6,1.5,5.3,2.8,8.1,3.9c5.5,2.2,11.4,3.8,17.3,4.4c5.9,0.6,12,0.7,17.8-0.4
		c2.9-0.6,5.6-1.5,8.1-2.9c1.2-0.7,2.3-1.5,3.3-2.5c0.5-0.5,0.9-1,1.3-1.5c0.2-0.3,0.4-0.5,0.5-0.8c0.1-0.1,0.1-0.3,0.2-0.4l0.1-0.3
		l1.2,2.2l-17.3-5c-5.8-1.6-11.5-3.4-17.3-5l-8.1-2.4l8.4-0.3c2.4-0.1,4.9-0.5,7.3-1c2.4-0.5,4.8-1.1,7.2-2c2.4-0.8,4.7-1.8,6.9-2.9
		c2.2-1.1,4.4-2.3,6.4-3.8c4-2.9,7.4-6.7,10.3-10.8c2.8-4.2,5.2-8.7,6.9-13.4c-1.4,4.9-3.5,9.6-6.2,13.9c-2.7,4.3-6,8.3-10.1,11.6
		c-4.1,3.2-8.7,5.7-13.5,7.6c-4.8,1.9-9.8,3.2-15.1,3.6l0.3-2.7c5.8,1.5,11.6,3,17.4,4.6l17.4,4.7l1.8,0.5l-0.6,1.7
		c-0.1,0.4-0.2,0.5-0.3,0.8c-0.1,0.2-0.2,0.4-0.3,0.6c-0.2,0.4-0.5,0.8-0.7,1.1c-0.5,0.7-1.1,1.4-1.7,2c-1.2,1.2-2.6,2.2-4,3.1
		c-2.9,1.7-6,2.7-9.2,3.3c-6.3,1.2-12.7,1.1-18.9,0.5c-6.3-0.7-12.4-2.4-18.2-4.8c-2.9-1.2-5.7-2.6-8.5-4.1
		c-2.7-1.6-5.3-3.3-7.9-5.3l2.7-1.9l5.7,14.5l5.6,14.5l0.8,2.1l-2.1-0.2c-1.6-0.1-3.1-0.4-4.6-0.8c-1.5-0.4-2.9-0.8-4.3-1.4
		c-2.8-1.1-5.5-2.5-8-4.3c-5-3.4-9.1-8.1-11.9-13.3c-2.9-5.2-5.1-10.7-6.5-16.5C146.5,187.1,145.7,181.2,146,175.3z"/>
	<polygon fill="#40003E" points="168.4,284.1 152.6,285 149.8,303.2 174.1,304.2 	"/>
	<polygon fill="#40003E" points="266.4,284.1 251,284.9 244.2,304.2 267.8,304.2 	"/>
	<path fill="#F4878D" d="M153.5,236.8c0,0,2.8,2.8,14,9.4c11.2,6.5,32.7,0.9,32.7,0.9s-6.5-5.6-15.9-11.2
		c-9.4-5.6-13.1-5.6-13.1-5.6L153.5,236.8z"/>
	<circle fill="#F4878D" cx="90" cy="105.8" r="33.7"/>
	<path fill="#FFFDE5" d="M64.8,83.5c-5.3,5.9-8.5,13.8-8.5,22.4c0,16.1,11.2,29.5,26.3,32.9c6.8-5.7,11.2-14.3,11.2-24
		C93.8,98.2,81,84.7,64.8,83.5z"/>
	<circle fill="#FFFDE5" cx="90.8" cy="101.6" r="19.2"/>
	<path fill="#FFFDE5" d="M64,99.7c-5.1,1.3-13.1,3.7-21.5,7.1c2.8,2.8,6.2,7.1,9.3,13.1c2.7,5.3,3.8,11.6,4.2,17.2
		c6.6-2.4,13.2-3.9,19-4.8L64,99.7z"/>
	<path fill="#40003E" d="M107,103c0,7.8-7.3,12-15.5,12c-8.2,0-16.6-6.2-16.6-14s8.4-14.2,16.6-14.2C99.7,86.8,107,95.2,107,103z"/>
	<ellipse fill="#D59829" cx="91.4" cy="100.9" rx="12.5" ry="11.8"/>
	<path fill="#FFC430" d="M91.4,91c-0.5,0-0.9,0-1.4,0.1c5.1,0.7,9.1,4.8,9.1,9.8c0,5-3.9,9.1-9.1,9.8c0.5,0.1,0.9,0.1,1.4,0.1
		c5.8,0,10.5-4.4,10.5-9.9C101.9,95.5,97.2,91,91.4,91z"/>
	<path fill="#40003E" d="M99.3,104.6c-0.9,2.1-2.4,2.5-3.7,1.2c-3-2.7-6.7-4.2-10.8-4.6c-1.8,0-2.6-1.4-1.7-3.5l0,0
		c0.9-2.1,2.4-2.5,3.7-1.2c3,2.7,6.7,4.3,10.8,4.6C99.3,101.1,100.1,102.5,99.3,104.6L99.3,104.6z"/>
	<path fill="#F4878D" d="M95.3,77.4c0,0-5.6-6-15.7-10.5c-10.1-4.5-21,0.4-21,0.4s9.4,4.9,17.6,6.7C84.4,75.9,95.3,77.4,95.3,77.4z"
		/>
	<path fill="#F4878D" d="M90.7,75.5c0,0-0.4-4.2-3.1-9.2c-2.7-5-8.6-6.5-8.6-6.5s2.3,4.9,5,8.3C86.7,71.4,90.7,75.5,90.7,75.5z"/>
	<path fill="#40003E" d="M34.3,135.6c0,0,26.9-6.6,30.7-12.4c3.7-5.8,2.4-15.5,2.4-15.5s3.6,9.6-0.2,16.5
		c-3.8,7-29.6,14.9-29.6,14.9L34.3,135.6z"/>
	<path fill="#F4878D" d="M86.1,213c0,0-2.2,2.6,4.1,18.4c6.4,15.7,20.2,19.5,20.2,19.5l-3.4-10.9c0,0,3.7,5.2,16.5,7.5
		c12.7,2.3,17.6,1.5,17.6,1.5l-2.6-7.5c0,0,3.5,0.7,7.5-1.1c11.6-5.2,8.2-26.2,8.2-26.2l-7.9,7.9L86.1,213z"/>
	<path fill="#C5334D" d="M88.4,196.5c-0.4,1-0.6,2-0.7,3c-0.1,1-0.2,2-0.2,3.1c0,2,0.3,4.1,0.8,6c0.5,2,1.2,3.9,2,5.7
		c0.8,1.9,1.8,3.6,3,5.2c2.3,3.3,5.3,6.1,8.6,8.3c1.7,1.1,3.4,2.1,5.2,3c1.8,0.8,3.7,1.6,5.5,2.1l-1.7,1.4c-0.2-2.6-0.5-5.2-0.7-7.9
		l-0.2-2.9l2.3,1.7c2.2,1.7,4.8,3.1,7.4,4.3c2.6,1.2,5.4,2.1,8.2,2.7c2.8,0.6,5.7,0.8,8.6,0.6c2.9-0.3,5.8-0.9,8.4-2.4
		c-1.1,0.9-2.5,1.7-3.9,2.2c-1.4,0.6-2.9,1-4.3,1.2c-3,0.6-6,0.5-9.1,0.2c-3-0.4-6-1.3-8.8-2.4c-2.8-1.2-5.5-2.5-8.1-4.3l2.1-1.2
		c0.3,2.6,0.5,5.2,0.8,7.9l0.2,1.9l-1.9-0.5c-2.2-0.6-4.1-1.4-6.1-2.3c-1.9-0.9-3.8-2-5.5-3.3c-3.5-2.5-6.6-5.6-8.9-9.3
		c-2.3-3.7-3.8-7.7-4.5-11.9c-0.3-2.1-0.5-4.2-0.3-6.4C86.9,200.4,87.3,198.3,88.4,196.5z"/>
	<path fill="#C5334D" d="M95.3,77.4c-1.3-1.1-2.6-2.2-3.9-3.2c-1.4-1-2.7-1.9-4.2-2.8c-2.9-1.7-5.8-3.4-8.9-4.6
		c-3.1-1.2-6.5-1.6-9.8-1.5c-1.7,0.1-3.3,0.3-5,0.6c-1.7,0.3-3.3,0.7-4.9,1.3c3.1-1.4,6.4-2.3,9.8-2.6c3.4-0.3,6.9,0.1,10.1,1.3
		c1.6,0.6,3.1,1.4,4.6,2.2c1.5,0.8,3,1.7,4.4,2.6C90.3,72.8,93,74.9,95.3,77.4z"/>
</g>
<g id="orangutoad">
</g>
<g id="tarantulemur">
</g>
<g id="tortusk">
</g>
</svg>
