<?xml version="1.0" encoding="utf-8"?>
<!-- Generator: Adobe Illustrator 19.2.0, SVG Export Plug-In . SVG Version: 6.00 Build 0)  -->
<svg version="1.1" xmlns="http://www.w3.org/2000/svg" xmlns:xlink="http://www.w3.org/1999/xlink" x="0px" y="0px"
	 viewBox="0 0 26 44" enable-background="new 0 0 26 44" xml:space="preserve" width="26" height="44" preserveAspectRatio="none">
<g id="Rote_Screen_BG">
</g>
<g id="Barrel_and_Bucket__x28_Ground_x29_">
	<g>
		<path fill="#87298C" d="M7.9,12.1c0,0-0.5-6,2-8.9c1.8-2.2,3.6-2.7,4.7-2.1c1.1,0.6-1.1,4.7-1.1,4.7s3.3-2,4.2-0.4
			c0.9,1.6-2.2,3-2.2,3s4.3-0.2,4.2,1.8c-0.1,2-3.3,1.8-3.3,1.8s3.4,0.8,3.2,2.6c-0.2,1.8-4.9,2.5-5.1,2.4
			C14.2,17,8.1,12.3,7.9,12.1z"/>
		<path fill="#27B24B" d="M18.3,27c0,0-1.6-17.4-9.9-17.4S1.5,29.8,1.5,29.8h3.2c0,0,1.4,8.3,7.1,7.9C17.5,37.3,18.3,27,18.3,27z"/>
		<path fill="#3D5059" d="M8.4,9.6c0.1,0,0.1,0,0.2,0v27.3c-3-2.1-3.8-7-3.8-7H1.5C1.5,29.8,0.1,9.6,8.4,9.6z"/>
		<path fill="#25221D" d="M9.8,27.9c0,0-0.5,0.2-1.3,0.4c-0.8,0.2-1.7,0.5-2.7,0.6c-0.5,0.1-0.9,0.1-1.5,0.2c-0.5,0.1-1,0.1-1.4,0.2
			c-0.8,0.2-1.4,0.4-1.4,0.4s0.5,0.3,1.4,0.4c0.4,0.1,0.9,0.2,1.4,0.2c0.5,0.1,1.1,0.1,1.7,0c0.6-0.1,1.2-0.3,1.7-0.5
			c0.5-0.3,0.9-0.5,1.2-0.8C9.5,28.5,9.8,27.9,9.8,27.9z"/>
		<ellipse fill="#EDE8D8" cx="12" cy="20.9" rx="2.6" ry="4.4"/>
		<ellipse fill="#25221D" cx="10.8" cy="22.1" rx="1.5" ry="2.3"/>
		<polygon fill="#27B24B" points="12.9,35.8 18.3,42 13.7,43.2 		"/>
		<polygon fill="#27B24B" points="11.6,37.2 10.1,42.6 6.2,40.2 		"/>
		<path fill="#87298C" d="M17.5,25.5c0,0,0.3-3.2,1.9-6.8c1.6-3.6,4.3-4.4,4.3-4.4s1.8,3.5,0.5,6.8c-1.4,3.3-4.9,4.3-4.9,4.3
			s1.7,0.9,3,3.3c1.3,2.4,1.4,7.7,1.4,7.7s-1.6-0.3-3.9-3C17.4,30.9,17.5,25.5,17.5,25.5z"/>
	</g>
</g>
<g id="Water_Level_1">
</g>
<g id="Bucket_Pour_3_Water_Level_1">
</g>
<g id="Bucket_Pour_4_Water_Level_1">
</g>
<g id="Water_Level_2">
</g>
<g id="Bucket_Pour_3_Water_Level_2">
</g>
<g id="Bucket_Pour_4_Water_Level_2">
</g>
<g id="Water_Level_3">
</g>
<g id="Bucket_Pour_3_Water_Level_3">
</g>
<g id="Bucket_Pour_4_Water_Level_3">
</g>
<g id="Water_Level_4">
</g>
<g id="Bucket_Pour_3_Water_Level_4">
	<g id="Bucket_Pour_4_Water_Level_3_copy">
	</g>
</g>
<g id="Bucket_Pour_4_Water_Level_4">
</g>
<g id="Water_Level_5">
</g>
<g id="Bucket_Pour_3_Water_Level_5">
</g>
<g id="Bucket_Pour_4_Water_Level_5">
</g>
<g id="Water_Level_6">
</g>
<g id="Bucket_Pour_3_Water_Level_6">
</g>
<g id="Bucket_Pour_4_Water_Level_6">
</g>
<g id="Water_Level_7">
</g>
<g id="Bucket_Pour_3_Water_Level_7">
</g>
<g id="Bucket_Pour_4_Water_Level_7">
</g>
<g id="Water_Level_8">
</g>
<g id="Bucket_Pour_3_Water_Level_8">
</g>
<g id="Bucket_Pour_4_Water_Level_8">
</g>
<g id="Water_Level_9">
</g>
<g id="Bucket_Pour_3_Water_Level_9">
</g>
<g id="Bucket_Pour_4_Water_Level_9">
</g>
<g id="Water_Level_10">
</g>
<g id="Bucket_Pour_3_Water_Level_10_1_">
</g>
<g id="Bucket_Pour_4_Water_Level_10">
</g>
<g id="Puddle_Xtra_Large">
</g>
<g id="Puddle_Large">
</g>
<g id="Puddle_Medium">
</g>
<g id="Puddle_Small">
</g>
<g id="Bucket_Pour_0">
</g>
<g id="Bucket_Pour_1">
</g>
<g id="Bucket_Pour_2_Water_Level_1-7">
</g>
<g id="Bucket_Pour_2_Water_Level_8-10">
</g>
<g id="Bucket_Pour_3">
</g>
<g id="Bucket_Pour_4_1_">
</g>
<g id="Bucket_Pour_4a">
</g>
<g id="Bucket_Pour_5">
</g>
<g id="Barrel_FG">
</g>
<g id="Rote">
</g>
<g id="Hole_1_Stream_1">
</g>
<g id="Hole_1_Stream_2">
</g>
<g id="Hole_1_Stream_3">
</g>
<g id="Hole_1_Stream_3a">
</g>
<g id="Hole_1_Stream_3b">
</g>
<g id="Hole_2_Stream_1">
</g>
<g id="Hole_2_Stream_2">
</g>
<g id="Hole_2_Stream_3">
</g>
<g id="Hole_2_Stream_4">
</g>
<g id="Hole_2_Stream_5">
</g>
<g id="Hole_3_Stream_1_1_">
</g>
<g id="Hole_3_Stream_2_1_">
</g>
<g id="Hole_3_Stream_3_1_">
</g>
<g id="Hole_3_Stream_4_1_">
</g>
<g id="Hole_3_Stream_5">
</g>
<g id="Droplets_1">
</g>
<g id="Droplets_2">
</g>
<g id="Droplets_3">
</g>
<g id="Band_Aids">
</g>
<g id="Rote_Screen_FG">
</g>
<g id="Labels">
</g>
</svg>
