<?xml version="1.0" encoding="utf-8"?>
<!-- Generator: Adobe Illustrator 19.2.0, SVG Export Plug-In . SVG Version: 6.00 Build 0)  -->
<svg version="1.1" xmlns="http://www.w3.org/2000/svg" xmlns:xlink="http://www.w3.org/1999/xlink" x="0px" y="0px"
	 viewBox="0 0 1024 231.1" enable-background="new 0 0 1024 231.1" xml:space="preserve" width="1024" height="231.1" preserveAspectRatio="none">
<g id="BG" display="none">
</g>
<g id="Track_and_Infield">
	<g>
		<path fill="#008242" d="M-130.5,40.8c0,0,156.4-23.8,678.4-23.8s617.2,23.3,617.2,23.3l-6,54.8c-413.8,32.4-844.8,32-1289.2,6
			L-130.5,40.8z"/>
		<path fill="#BF4E3D" d="M1173.1,213.7c-439.8,0-879.7,0-1319.5,0c0-57.6,0-115.3,0-172.9c435.3,88.1,884.3,87.9,1319.6-0.5
			C1173.1,98.1,1173.1,155.9,1173.1,213.7z"/>
		<path fill="#BF4E3D" d="M1173.1,40.2c0,57.8,0,146.7,0,204.5c-439.8,0-879.7,0-1319.5,0c0-57.6,0-146.3,0-203.9"/>
		<g>
			<path fill="#F1DACB" d="M18.4,205.3c-6.1-0.5-10.7-1.6-13.6-3.4c-3-1.8-4.8-4.6-5.5-8.6c-0.1-0.5-0.1-1-0.2-1.4
				c0-0.2,0.1-0.4,0.1-0.6c0-1,0.1-2.1,0.1-3.1c0-0.4-0.1-0.9-0.1-1.3c-0.3-2-1.3-3.3-3.2-4.1c-1.8,2.9-3.7,5.7-5.5,8.6
				c-1.9,3-2.4,5.4-1.3,7.2c1,1.8,3.7,3.5,8.1,4.9c1.2,0.3,2.3,0.6,3.5,0.9c-15.1-0.2-30.1-0.5-45.2-0.7
				c5.4-8.7,10.7-17.3,16.1-25.8c2.2,0.1,4.3,0.2,6.5,0.3c6.3,0.2,11.7,0.7,16.2,1.4c3.8,0.6,7.3,1.4,10.4,2.5
				c2,0.7,3.7,1.3,5.1,1.9c1.4,0.6,3.7,1.7,7,3.4c0.7,0.3,1.4,0.6,2,0.9c4.9,2,9.3,3.4,13.4,4.2c3.5,0.7,6.8,1.1,10.2,1.2
				c6.8,0.2,11-0.9,12.6-3.2c0.2-0.4,0.4-0.8,0.5-1.4c0.1-0.5-0.1-1.2-0.6-1.9c-0.8,0.2-1.7,0.5-2.5,0.7c-2.7,0.6-5.2,1-7.5,1.1
				c-2.3,0.2-4.4,0.2-6.2,0.2c-3.9-0.1-6.8-0.6-8.7-1.5c-1.9-0.9-2.5-2-1.6-3.3c0.8-1.2,2.8-2.2,5.9-3c3.1-0.7,6.6-1,10.3-0.9
				c1.6,0.1,3.3,0.2,4.9,0.5c4.5,0.6,7.6,1.7,9.5,3.3c2,1.7,2.6,4,1.7,6.9c-0.3,0.9-0.8,1.8-1.3,2.6c-2.4,3.6-7.1,6.5-13.9,8.6
				c-6.9,2.1-14.3,3.2-22.3,3C21.5,205.5,19.9,205.4,18.4,205.3z"/>
		</g>
		<path fill="#A13F34" d="M13.7,146.1c0,1.4-3.2,2.3-7.2,2c-4-0.3-7.2-1.6-7.2-3.1c0-1.4,3.2-2.3,7.2-2
			C10.4,143.4,13.7,144.8,13.7,146.1z"/>
		<path fill="#A13F34" d="M11.8,132.1c0,0.5-1.2,0.8-2.7,0.7c-1.5-0.1-2.7-0.7-2.7-1.2c0-0.5,1.2-0.8,2.7-0.7
			C10.5,131,11.8,131.5,11.8,132.1z"/>
		<path fill="#A13F34" d="M5.7,77.4c0,0.5-1.2,0.8-2.7,0.6c-1.5-0.2-2.7-0.8-2.7-1.3c0-0.5,1.2-0.8,2.7-0.6
			C4.5,76.2,5.7,76.8,5.7,77.4z"/>
		<path fill="#A13F34" d="M225.7,137c0,0.4-1.2,0.8-2.7,0.7s-2.7-0.4-2.7-0.8c0-0.4,1.2-0.8,2.7-0.7
			C224.5,136.2,225.7,136.5,225.7,137z"/>
		
			<ellipse transform="matrix(1.808449e-03 -1 1 1.808449e-03 220.0819 633.2375)" fill="#A13F34" cx="427.2" cy="206.4" rx="0.7" ry="2.7"/>
		<path fill="#A13F34" d="M695.6,196.6c0,0.4-1.3,0.7-2.8,0.7c-1.5,0-2.7-0.4-2.6-0.8c0-0.4,1.3-0.7,2.8-0.7
			C694.5,195.8,695.7,196.2,695.6,196.6z"/>
		<path fill="#A13F34" d="M793.4,204.4c-0.1,0.7-2.1,1.2-4.5,1.1c-2.4-0.1-4.4-0.7-4.3-1.4c0.1-0.7,2.1-1.2,4.5-1.1
			C791.5,203,793.5,203.7,793.4,204.4z"/>
		<path fill="#A13F34" d="M674.8,191.6c0,0.4-1.2,0.7-2.7,0.7c-1.5,0-2.7-0.3-2.7-0.7c0-0.4,1.2-0.7,2.7-0.7
			C673.6,190.9,674.8,191.2,674.8,191.6z"/>
		<path fill="#A13F34" d="M907.7,203.4c0,0.5-1.2,0.9-2.7,0.9c-1.5,0-2.7-0.4-2.7-0.8c0-0.5,1.2-0.9,2.7-0.9
			C906.5,202.5,907.7,202.9,907.7,203.4z"/>
		<path fill="#A13F34" d="M661.7,141.9c0,0.5-1.2,0.8-2.7,0.9c-1.5,0-2.7-0.3-2.7-0.8c0-0.4,1.2-0.8,2.7-0.9
			C660.5,141.2,661.7,141.5,661.7,141.9z"/>
		<path fill="#A13F34" d="M652.7,205.5c0,0.9-2.7,1.6-6.1,1.6c-3.4,0-6.1-0.7-6.1-1.6c0-0.9,2.7-1.6,6.1-1.6
			C650,203.9,652.7,204.6,652.7,205.5z"/>
		<path fill="#A13F34" d="M810.8,198c0,0.7-2.1,1.3-4.6,1.4c-2.5,0-4.6-0.5-4.6-1.3c0-0.7,2.1-1.3,4.6-1.4
			C808.8,196.7,810.8,197.3,810.8,198z"/>
		<path fill="#A13F34" d="M685.8,142.2c0,0.4-1.3,0.7-2.8,0.7c-1.5,0-2.7-0.4-2.6-0.8c0-0.4,1.3-0.7,2.8-0.7
			C684.6,141.4,685.8,141.8,685.8,142.2z"/>
		<path fill="#A13F34" d="M798.8,142.3c-0.1,0.7-2.1,1.2-4.5,1.1c-2.4-0.1-4.4-0.7-4.3-1.4c0.1-0.7,2.1-1.2,4.5-1.1
			C796.9,141,798.8,141.6,798.8,142.3z"/>
		<path fill="#A13F34" d="M695,135.5c0,0.4-1.2,0.7-2.7,0.7c-1.5,0-2.7-0.3-2.7-0.7c0-0.4,1.2-0.7,2.7-0.7
			C693.8,134.8,695,135.1,695,135.5z"/>
		<path fill="#A13F34" d="M553.1,156.4c0,0.9-2.7,1.6-6.1,1.6c-3.4,0-6.1-0.7-6.1-1.6c0-0.9,2.7-1.6,6.1-1.6
			C550.4,154.8,553.1,155.5,553.1,156.4z"/>
		<path fill="#A13F34" d="M817.6,134.8c0,0.7-2.1,1.3-4.6,1.4c-2.5,0-4.6-0.5-4.6-1.3c0-0.7,2.1-1.3,4.6-1.4
			C815.5,133.5,817.6,134,817.6,134.8z"/>
		<path fill="#A13F34" d="M399.3,192.7c0,0.7-2.1,1.2-4.7,1.2c-2.6,0-4.7-0.6-4.8-1.3c0-0.7,2.1-1.2,4.7-1.2
			C397.1,191.4,399.3,192,399.3,192.7z"/>
		<path fill="#A13F34" d="M452.8,205.2c0,0.7-2.1,1.2-4.7,1.2c-2.6,0-4.7-0.6-4.7-1.2c0-0.7,2.1-1.2,4.7-1.2
			C450.7,204,452.8,204.5,452.8,205.2z"/>
		<path fill="#A13F34" d="M209,140.9c0,0.4-1.2,0.8-2.7,0.8c-1.5,0-2.7-0.4-2.7-0.9c0-0.5,1.2-0.8,2.7-0.8
			C207.8,140,209,140.4,209,140.9z"/>
		<path fill="#A13F34" d="M206.8,130.2c0,0.7-2,1.2-4.4,1.2c-2.4,0-4.4-0.6-4.4-1.3c0-0.7,2-1.2,4.4-1.2
			C204.8,128.9,206.7,129.5,206.8,130.2z"/>
		<path fill="#A03E37" d="M940.7,184.7c0,0.7-1.7,1.2-3.7,1.3c-2,0.1-3.7-0.4-3.7-1.1c0-0.7,1.7-1.2,3.7-1.3
			C939.1,183.6,940.8,184.1,940.7,184.7z"/>
		<polygon fill="#0A8246" points="36.7,2 40.6,35.6 48.8,34.5 		"/>
		<path fill="#0A8246" d="M49.9,5.9c-5.9,9-7.2,19.6-3.9,28.6c0,0,6.3,0.5,5.6-1c-0.4-0.6-3.9-7.7-3.9-14.5
			C47.1,12.2,50,5.7,49.9,5.9z"/>
		<path fill="#0A8246" d="M27.7,15.4c9.3,5.4,15.2,14.3,16.3,23.9c0,0-5.4,3.3-5.4,1.6c0.1-0.7,0-8.6-3-14.7
			C33,19.8,27.5,15.3,27.7,15.4z"/>
		<polygon fill="#0A8246" points="1003.2,2.3 994.9,29.7 1001.7,31.6 		"/>
		<path fill="#0A8246" d="M1012.2,9.7c-7.6,5-12.1,12.9-12.6,21c0,0,4.7,2.5,4.7,1c-0.2-0.6-0.5-7.3,1.8-12.6
			C1007.8,13.7,1012.3,9.6,1012.2,9.7z"/>
		<path opacity="0.8" fill="#FFFDED" d="M-24.3,151.2c14.6-17.8,29.2-34.7,43.7-50.8c382,45.2,770.1,37.6,1150.1-22.8
			c0-3.5,0-7,0-10.5c-435.7,74.6-883,74.4-1318.6-0.6c0,3.5,0,7,0,10.5c51.9,8.3,104,15.6,156.2,21.9
			c-16.4,16.1-32.8,33.1-49.2,51.1c-35.1-2.5-70.2-5.2-105.2-8.1c0,5.7,0,11.4,0,17c90.4,5.8,180.9,10.3,271.6,13.7
			c-5.9,11.2-11.9,22.5-17.8,34c0,0-2.5,4.8-3.6,7c0,0,0,0,0,0l-15.9,31h25.1l14.8-36.7c4.8-11.7,9.6-23.3,14.4-34.7
			c343.8,12.3,689.1,7.4,1031.8-14.4c0-5.7,0-11.4,0-17.1C775.8,175.1,373.8,178.2-24.3,151.2z"/>
	</g>
</g>
<g id="Balls" display="none">
</g>
<g id="White_Frame_Drop_Shadow" display="none">
</g>
<g id="White_Frame_BG" display="none">
</g>
<g id="Submit_Button" display="none">
</g>
<g id="Left_Tool_Bar_Tab" display="none">
</g>
<g id="Right_Info_Tab" display="none">
</g>
<g id="Top_Tab" display="none">
</g>
<g id="Left_Tools" display="none">
</g>
<g id="Water_Bottle_Gym_Bag" display="none">
</g>
<g id="Medals" display="none">
</g>
<g id="Lacrosse_Stick" display="none">
</g>
<g id="Hockey_Stick" display="none">
</g>
<g id="Field_Hockey_Stick" display="none">
</g>
<g id="Keyboard" display="none">
</g>
<g id="Teacher_Pop-up" display="none">
</g>
<g id="Keys" display="none">
</g>
<g id="Header" display="none">
</g>
<g id="Header_Buttons" display="none">
</g>
<g id="Progress_Indicator" display="none">
</g>
<g id="Title" display="none">
</g>
<g id="Layer_20" display="none">
</g>
</svg>
