<?xml version="1.0" encoding="utf-8"?>
<!-- Generator: Adobe Illustrator 19.2.0, SVG Export Plug-In . SVG Version: 6.00 Build 0)  -->
<!DOCTYPE svg PUBLIC "-//W3C//DTD SVG 1.1//EN" "http://www.w3.org/Graphics/SVG/1.1/DTD/svg11.dtd">
<svg version="1.1" xmlns="http://www.w3.org/2000/svg" xmlns:xlink="http://www.w3.org/1999/xlink" x="0px" y="0px"
	 viewBox="0 0 68.2 91.6" enable-background="new 0 0 68.2 91.6" xml:space="preserve" width="68.2" height="91.6" preserveAspectRatio="none">
<g id="BG">
</g>
<g id="Tabletop_BG">
</g>
<g id="Microscope">
</g>
<g id="White_Frame_Drop_Shadow">
</g>
<g id="White_Frame_BG">
</g>
<g id="Submit_Button_1_">
</g>
<g id="Left_Tool_Bar_Tab">
</g>
<g id="Right_Info_Tab">
</g>
<g id="Top_Tab">
</g>
<g id="Left_Tools">
</g>
<g id="Lab_Safety_Goggles">
	<ellipse transform="matrix(0.335 -0.9422 0.9422 0.335 -54.2534 44.505)" fill="#003842" cx="4.4" cy="60.7" rx="3.6" ry="3.6"/>
	<polygon fill="#003842" points="20.5,15.5 5.8,49.5 13.5,52.3 21.7,28.1 	"/>
	<polygon opacity="0.5" fill="#231F20" points="40.4,0.9 61.8,59.3 53.1,56.7 34,0.6 	"/>
	<path opacity="0.5" fill="#231F20" d="M31.6,78.3c1.1,6.1,6.6,11.2,13.8,12.3c8.9,1.3,17-3.9,18.2-11.7c1.2-7.8-5-15.2-13.9-16.6
		c-5.7-0.9-16.9-2.6-25-3.8l2.5,24.6C29.1,81.9,30.6,80.2,31.6,78.3z"/>
	
		<ellipse transform="matrix(2.253060e-003 -1 1 2.253060e-003 -8.8125 137.4995)" opacity="0.5" fill="#231F20" cx="64.5" cy="73.2" rx="3.3" ry="1.7"/>
	<polygon fill="#005561" points="42.7,1 62.9,54.9 54.2,52.3 35.3,0.6 	"/>
	<path fill="#96D7E7" d="M3.7,56.8c-0.1-1.1-0.1-2.3,0-3.4C5,45.6,13.1,40.4,22,41.7c7.2,1.1,23.4,3.6,30.7,4.7
		c8.9,1.3,15.1,8.8,13.9,16.6l-1.9,12.6l-8.8-1.3c-2.3,0.6-4.9,0.8-7.5,0.4c-2.6-0.4-5-1.3-7-2.6l-16.1-2.5
		c-2.3,0.6-4.9,0.8-7.5,0.4c-2.6-0.4-5-1.3-7-2.6l-8.3-1.3L3.7,56.8z"/>
	<path fill="#BAE3E9" d="M20.2,53.3c7.2,1.1,23.4,3.6,30.7,4.7c8.9,1.3,15.1,8.8,13.9,16.6c-1.2,7.8-9.3,13.1-18.2,11.7
		c-7.2-1.1-12.7-6.2-13.8-12.3c-2.9,5.5-9.6,8.7-16.9,7.7C7,80.2,0.8,72.8,2,65C3.2,57.2,11.3,51.9,20.2,53.3z"/>
	<path fill="#96D7E7" d="M35.6,73.6c1,5.2,5.5,9.3,11.4,10.1c7.3,1.1,14-3.2,15-9.6c1-6.4-4.2-12.5-11.4-13.7l-30.7-4.7
		c-7.3-1.1-14,3.2-15,9.6C3.9,71.9,9,78,16.3,79.1c5.8,0.9,11.4-1.6,13.9-6.3l3.9-7.4L35.6,73.6z"/>
	<polygon fill="#BAE3E9" points="44.3,58.4 55.9,75.5 37.4,57.8 	"/>
	<polygon fill="#BAE3E9" points="17.3,55.3 26.5,68.9 11.8,54.8 	"/>
	<polygon fill="#BAE3E9" points="53.6,84.5 43.3,73 50.4,85.1 	"/>
	<polygon fill="#BAE3E9" points="20.8,79.6 10.5,68 17.6,80.1 	"/>
	
		<ellipse transform="matrix(2.253059e-003 -1 1 2.253059e-003 -3.3217 134.2134)" fill="#003842" cx="65.6" cy="68.8" rx="3.3" ry="1.7"/>
</g>
<g id="Left_Potion_Bottles">
</g>
<g id="Microscope_1_">
</g>
<g id="Right_Potion_Bottles">
</g>
<g id="Keyboard">
</g>
<g id="Header">
</g>
<g id="Header_Buttons">
</g>
<g id="Progress_Indicator_1_">
</g>
<g id="Title">
</g>
<g id="Problem_Screen">
</g>
<g id="Solution_Screen" display="none">
</g>
<g id="Isadora_Screenshot" display="none">
</g>
</svg>
