<?xml version="1.0" encoding="utf-8"?>
<!-- Generator: Adobe Illustrator 19.2.0, SVG Export Plug-In . SVG Version: 6.00 Build 0)  -->
<!DOCTYPE svg PUBLIC "-//W3C//DTD SVG 1.1//EN" "http://www.w3.org/Graphics/SVG/1.1/DTD/svg11.dtd">
<svg version="1.1" xmlns="http://www.w3.org/2000/svg" xmlns:xlink="http://www.w3.org/1999/xlink" x="0px" y="0px"
	 viewBox="0 0 184 196" enable-background="new 0 0 184 196" xml:space="preserve" width="184" height="196" preserveAspectRatio="none">
<g id="BG">
</g>
<g id="Tabletop_BG">
</g>
<g id="Microscope">
</g>
<g id="White_Frame_Drop_Shadow">
</g>
<g id="White_Frame_BG">
</g>
<g id="Submit_Button_1_">
</g>
<g id="Left_Tool_Bar_Tab">
</g>
<g id="Right_Info_Tab">
</g>
<g id="Top_Tab">
</g>
<g id="Left_Tools">
</g>
<g id="Lab_Safety_Goggles">
</g>
<g id="Left_Potion_Bottles">
	<g>
		<path opacity="0.5" fill="#231F20" d="M167.1,172.8l-2.6,0.8l-17.1-13.5l-0.4-0.2c10.4-3.4,14.8-8.8,14.8-14.7
			c0-10.3-18-18.7-43-18.7c-11.9,0-22.8,1.9-30.9,5.1l-7.4-12.2l-11.3-6.9l-10.3-0.4l-8.4,0.3l5.3,13.3l12,2.7l3.7,14.8l2.4-0.1
			c-0.2,0.7-0.3,1.5-0.3,2.3c0,0.4,0,0.8,0.1,1.2L61.3,136l-1.4-1.1l-39.7-1.6l13.2,27l-5.1,8.6l49.3-16.2
			c6.9,6.7,22.9,11.3,41.5,11.3c3.5,0,6.8-0.2,10.1-0.5l14.7,16.8l-2.6,1.1c0,0,6.3,8.7,7.3,8.3s28-10,28-10L167.1,172.8z"/>
		<g>
			<g>
				<g>
					<path fill="#96D7E7" d="M73.9,62.3h-8.2c-6.1,15.2-26.1,47.7-18.6,49.1c8.1,1.5,41.1,2.7,48.3,0C101.7,109,79.6,76.2,73.9,62.3
						z"/>
					<rect x="63.1" y="38.9" fill="#96D7E7" width="13.7" height="45.8"/>
					<path fill="#BAE3E9" d="M73.3,84.8h-6.7V47c0,0,1.9,0.2,3.4,0.2c1.5,0,3.4-0.2,3.4-0.2V84.8z"/>
					<path fill="#BAE3E9" d="M80.6,43.6c-6.9,1.7-14.1,1.7-21,0c0-2.8,0-5.6,0-8.5c6.9-1.7,14.1-1.7,21,0
						C80.6,38,80.6,40.8,80.6,43.6z"/>
					<path fill="#39C3E3" d="M47.1,111.4c2,0.3,4,0.4,6,0.5c2,0.1,4,0.2,6,0.2c4,0.1,8,0.2,12.1,0.1c4,0,8-0.1,12-0.3
						c2-0.1,4-0.2,6-0.4c1-0.1,2-0.2,2.9-0.4c1-0.2,1.9-0.4,2.8-0.7l0.1,0l0,0l0,0c0,0,0,0,0,0c0,0,0.1-0.1,0.1-0.1
						c0,0,0.1,0,0.1-0.1c0.1,0,0.1-0.1,0.2-0.2c0.1-0.2,0.1-0.6,0.1-1.1c0-0.8-0.3-1.8-0.5-2.7c-0.6-1.8-1.3-3.7-2.2-5.5
						c-0.8-1.8-1.7-3.6-2.6-5.4c-0.9-1.8-1.8-3.6-2.8-5.3C83.6,83,79.6,76,76,68.8l-0.1-0.2l0-0.2l0.2-12l0.1-6l0.2-6l0-0.4l0.3,0
						c0.6-0.1,1.3-0.2,1.9-0.3c0.6-0.1,1.3-0.2,1.9-0.3l-0.2,0.3c0.1-2.8,0.2-5.6,0.3-8.5c0.1,2.8,0.2,5.6,0.3,8.5l0,0.2l-0.2,0.1
						c-0.6,0.2-1.3,0.3-1.9,0.5c-0.6,0.1-1.3,0.3-1.9,0.4l0.4-0.4l0.2,6l0.1,6l0.2,12L77.6,68c1.9,3.5,3.8,7,5.8,10.6
						c2,3.5,3.9,7,5.9,10.6c1.9,3.5,3.8,7.1,5.5,10.9c0.8,1.9,1.6,3.8,2.2,5.8c0.3,1,0.6,2,0.6,3.2c0,0.6,0,1.2-0.3,1.9
						c-0.1,0.3-0.4,0.7-0.7,1c-0.2,0.1-0.3,0.3-0.5,0.4c-0.1,0.1-0.2,0.1-0.2,0.1l-0.2,0.1c-1.1,0.3-2.1,0.5-3.1,0.7
						c-1,0.2-2,0.3-3.1,0.3c-2,0.2-4.1,0.3-6.1,0.3c-4,0.1-8.1,0.1-12.1-0.1c-4-0.1-8.1-0.4-12.1-0.7c-2-0.2-4-0.4-6-0.6
						C51.1,112.1,49.1,111.8,47.1,111.4z"/>
					<path fill="#BAE3E9" d="M73.2,69.4h-6.3c-4.7,11.6-20.2,36.3-14.4,37.4c6.5,1.2,32.2,1.7,37.3,0C94.7,105.2,77.6,80,73.2,69.4z
						"/>
					<path fill="#AE3693" d="M64.5,79c-5.3,10.8-13.3,24.1-9.3,25c5.4,1.2,27.5,1.4,31.8,0c3.4-1.1-5.1-14.5-10.7-25H64.5z"/>
					<circle fill="#EA66A5" cx="65.3" cy="95.4" r="2"/>
					<circle fill="#EA66A5" cx="61.1" cy="96.5" r="0.7"/>
					<circle fill="#EA66A5" cx="75.9" cy="95" r="1.5"/>
					<circle fill="#EA66A5" cx="71.4" cy="85.2" r="1.6"/>
				</g>
				<path fill="#882473" d="M76.4,79c0,0-2.6,0.8-5.8,0.8c-3.2,0-5.8-0.8-5.8-0.8s2.6-0.8,5.8-0.8C73.8,78.2,76.4,79,76.4,79z"/>
				<path fill="#39C3E3" d="M80.6,43.6c-1.6,0.8-3.4,1.4-5.1,1.8c-1.8,0.4-3.6,0.6-5.4,0.6c-1.8,0-3.6-0.2-5.4-0.5
					c-1.8-0.4-3.5-0.9-5.1-1.8c1.8,0,3.6,0,5.3,0.1c1.7,0,3.5,0.1,5.2,0.1c1.7,0,3.5,0,5.2-0.1C77,43.7,78.7,43.6,80.6,43.6z"/>
				<path fill="#39C3E3" d="M61.3,36.1c1.5,0.3,3,0.4,4.5,0.4c1.5,0,3,0.1,4.5,0.1c1.5,0,3,0,4.5-0.1c1.5-0.1,3-0.2,4.5-0.5
					c-1.3,0.8-2.9,1.1-4.4,1.4c-1.5,0.3-3,0.4-4.6,0.4c-1.5,0-3.1-0.1-4.6-0.3c-0.8-0.1-1.5-0.3-2.3-0.4
					C62.7,36.7,61.9,36.5,61.3,36.1z"/>
				<path fill="#39C3E3" d="M77.3,36.2c0,0-3.6,1-7,1c-3.4,0-7.4-0.9-7.4-0.9s4-0.9,7.4-0.9C73.7,35.5,77.3,36.2,77.3,36.2z"/>
			</g>
			<g>
				<g>
					<g>
						<path fill="#96D7E7" d="M56.6,138c-5.4,1.6-10.3,2.1-17.9,2.1c-6.7,0-14.6-1.3-15.9-2.1c-3.1-2.1-2.8-6.7-2.8-6.7v-47
							l-6.4-7.6c0,0,7.8-3.1,25-3.1c17.2,0,21.4,3.1,21.4,3.1v53.6C60,130.3,60.7,136.8,56.6,138z"/>
					</g>
				</g>
				<path fill="#BAE3E9" d="M20.4,78.9l3.4,4.1v25.6c4.2-5.5,6.5-12.3,6.5-19.4c0-3.9-0.7-7.8-2.1-11.4C25,78.1,22.4,78.5,20.4,78.9
					z"/>
				<path fill="#8BC53F" d="M23.7,103v25.9c0,2.1,1.6,4.1,3.9,5c0,0,3.1,1.1,12,1.1c9,0,11.9-1.3,11.9-1.3c2-0.7,3.9-2.7,3.9-4.8
					V103H23.7z"/>
				<ellipse fill="#57A03A" cx="39.5" cy="102.3" rx="15.8" ry="2.4"/>
				<circle fill="#57A03A" cx="29.1" cy="110.8" r="2.2"/>
				<circle fill="#57A03A" cx="31.6" cy="114.1" r="0.8"/>
				<circle fill="#57A03A" cx="51.1" cy="126.2" r="1.6"/>
				<circle fill="#57A03A" cx="51" cy="120.9" r="0.6"/>
				<circle fill="#57A03A" cx="37.4" cy="121.1" r="1"/>
				<circle fill="#57A03A" cx="30.3" cy="125.6" r="2"/>
				<path fill="#BAE3E9" d="M46.6,130.1c-0.5,0-0.9-0.4-0.9-0.8V83.9c0-0.5,0.4-0.8,0.9-0.8c0.5,0,0.9,0.4,0.9,0.8v45.4
					C47.5,129.7,47.1,130.1,46.6,130.1z"/>
				<g>
					<path fill="#BAE3E9" d="M46.1,88.4h-6.7c-0.2,0-0.4-0.2-0.4-0.4c0-0.2,0.2-0.4,0.4-0.4h6.7c0.2,0,0.4,0.2,0.4,0.4
						C46.6,88.2,46.4,88.4,46.1,88.4z"/>
					<path fill="#BAE3E9" d="M46.1,97.9h-6.7c-0.2,0-0.4-0.2-0.4-0.4c0-0.2,0.2-0.4,0.4-0.4h6.7c0.2,0,0.4,0.2,0.4,0.4
						C46.6,97.7,46.4,97.9,46.1,97.9z"/>
					<path fill="#BAE3E9" d="M46.1,107.3h-6.7c-0.2,0-0.4-0.2-0.4-0.4s0.2-0.4,0.4-0.4h6.7c0.2,0,0.4,0.2,0.4,0.4
						S46.4,107.3,46.1,107.3z"/>
					<path fill="#BAE3E9" d="M46.1,116.7h-6.7c-0.2,0-0.4-0.2-0.4-0.4c0-0.2,0.2-0.4,0.4-0.4h6.7c0.2,0,0.4,0.2,0.4,0.4
						C46.6,116.5,46.4,116.7,46.1,116.7z"/>
					<path fill="#BAE3E9" d="M46.1,126.1h-6.7c-0.2,0-0.4-0.2-0.4-0.4c0-0.2,0.2-0.4,0.4-0.4h6.7c0.2,0,0.4,0.2,0.4,0.4
						C46.6,125.9,46.4,126.1,46.1,126.1z"/>
				</g>
				<path fill="#BAE3E9" d="M56.8,77.7c0,0-2.2-2.5-18.3-2.5c-16.1,0-19.8,2.3-19.8,2.3s4,2.6,19.4,2.6
					C53.4,80.2,56.8,77.7,56.8,77.7z"/>
				<path fill="#39C3E3" d="M16.4,77.1c1.7,0.6,3.4,0.9,5.2,1.2c1.8,0.3,3.5,0.5,5.3,0.7c1.8,0.1,3.5,0.3,5.3,0.3
					c1.8,0.1,3.5,0.1,5.3,0.1c1.8,0,3.5,0,5.3-0.1c1.8,0,3.5-0.2,5.3-0.3c1.8-0.1,3.5-0.3,5.3-0.6c1.8-0.3,3.5-0.6,5.2-1.2
					c-1.5,0.9-3.3,1.5-5,2c-1.7,0.5-3.5,0.8-5.3,1.1c-1.8,0.3-3.6,0.4-5.4,0.5c-1.8,0.1-3.6,0.1-5.4,0.1c-3.6,0-7.2-0.2-10.8-0.8
					c-1.8-0.3-3.6-0.7-5.3-1.1C19.7,78.5,18,78,16.4,77.1z"/>
				<path fill="#39C3E3" d="M13.6,76.7c1.8-0.8,3.7-1.4,5.6-1.9c1.9-0.5,3.9-0.9,5.8-1.2c2-0.3,3.9-0.6,5.9-0.8
					c2-0.2,3.9-0.3,5.9-0.4c4-0.1,7.9-0.2,11.9,0.1c2,0.2,4,0.4,6,0.8c1,0.2,2,0.4,3,0.7c0.5,0.2,1,0.3,1.5,0.5
					c0.3,0.1,0.5,0.2,0.8,0.3c0.1,0.1,0.3,0.1,0.4,0.2l0.2,0.1l0.1,0.1c0.1,0,0.1,0,0.2,0.1l0.6,0.5l0,0.8c0,4.5,0.1,8.9,0,13.4
					l-0.1,6.7l-0.1,6.7c-0.1,4.5-0.2,8.9-0.3,13.4c-0.2,4.5-0.3,8.9-0.6,13.4l0-0.1c0,0.8,0,1.6-0.1,2.4c-0.1,0.8-0.3,1.5-0.6,2.3
					c-0.3,0.7-0.7,1.4-1.2,2c-0.5,0.6-1.3,1-2,1.1c0.7-0.3,1.3-0.7,1.8-1.3c0.4-0.6,0.7-1.3,0.9-2c0.2-0.7,0.3-1.4,0.3-2.2
					c0-0.7,0-1.5-0.1-2.2v0l0-0.1c-0.2-4.5-0.4-8.9-0.6-13.4c-0.1-4.5-0.3-8.9-0.3-13.4l-0.1-6.7l-0.1-6.7c0-4.5,0-8.9,0-13.4L59,78
					c0.1,0,0,0,0,0l0,0l-0.1-0.1l-0.3-0.1c-0.2-0.1-0.4-0.2-0.6-0.3c-0.4-0.2-0.8-0.3-1.3-0.5c-0.9-0.3-1.8-0.5-2.7-0.7
					c-1.8-0.4-3.7-0.7-5.7-0.9c-3.8-0.4-7.7-0.6-11.6-0.7c-1.9,0-3.9,0-5.8,0c-1.9,0-3.9,0.1-5.8,0.3C21.3,75.3,17.4,75.7,13.6,76.7
					z"/>
			</g>
			<g>
				<g>
					<circle fill="#96D7E7" cx="115.4" cy="107.7" r="46"/>
					<rect x="105.1" y="16.3" fill="#96D7E7" width="20.5" height="72.8"/>
					<path fill="#39C3E3" d="M69.3,107.7c0.1,4.3,0.9,8.6,2.2,12.6c1.3,4.1,3.1,7.9,5.5,11.5c2.3,3.5,5.2,6.7,8.4,9.5
						c3.2,2.8,6.8,5,10.6,6.8c3.8,1.8,7.8,3,12,3.6c4.1,0.6,8.3,0.7,12.5,0.2c4.1-0.5,8.2-1.6,12-3.2c3.8-1.6,7.4-3.8,10.6-6.4
						c6.5-5.2,11.4-12.2,14.2-20c2.8-7.8,3.3-16.4,1.4-24.5c-1.8-8.1-5.9-15.7-11.7-21.6c-2.9-3-6.2-5.6-9.9-7.6
						c-3.6-2.1-7.6-3.6-11.6-4.6l-0.9-0.2l0-0.9l0.2-11.6l0.3-11.6l0.3-11.6c0.1-3.9,0.2-7.8,0.4-11.6c0.1,3.9,0.3,7.8,0.4,11.6
						l0.3,11.6l0.3,11.6l0.2,11.6l-0.9-1.1c8.6,1.8,16.7,6.2,23.1,12.4c6.3,6.2,10.9,14.3,12.9,23c2,8.7,1.5,18-1.4,26.4
						c-2.9,8.4-8.4,16-15.4,21.5c-7,5.6-15.6,9-24.4,9.9c-8.8,0.9-17.9-0.7-25.8-4.7c-7.9-4-14.6-10.2-19.1-17.7
						C71.2,125.1,69,116.3,69.3,107.7z"/>
					<rect x="110.1" y="16.3" fill="#BAE3E9" width="10.6" height="72.8"/>
					<path fill="#96D7E7" d="M129.5,21.3c-9.2,2.2-18.8,2.2-28,0c0-3.7,0-7.5,0-11.2c9.2-2.2,18.8-2.2,28,0
						C129.5,13.8,129.5,17.5,129.5,21.3z"/>
					<circle fill="#BAE3E9" cx="115.4" cy="107.7" r="39.2"/>
					<path fill="#F05A28" d="M81.1,101.5c-0.4,2-0.6,4.1-0.6,6.2c0,19.2,15.6,34.8,34.8,34.8c19.2,0,34.8-15.6,34.8-34.8
						c0-2.1-0.2-4.2-0.6-6.2H81.1z"/>
					<circle fill="#F69127" cx="99.3" cy="112.4" r="4"/>
					<circle fill="#F69127" cx="109" cy="125.8" r="2.5"/>
					<circle fill="#F69127" cx="131.4" cy="114.6" r="2.5"/>
					<circle fill="#F69127" cx="127.6" cy="122.7" r="1.2"/>
					<circle fill="#F69127" cx="113.3" cy="114.6" r="1.2"/>
				</g>
				<path fill="#C34E1F" d="M149.6,101.5c0,0-10.8,3.6-34.7,3.6c-23,0-34.8-3.2-33.8-3.8c1-0.7,15.1-3.8,33.8-3.8
					S149.6,101.5,149.6,101.5z"/>
				<path fill="#F05A28" d="M133.2,99.1c0,0.5-6,0.5-6,0c0-0.5,1.3-1.7,3-1.7C131.8,97.4,133.2,98.6,133.2,99.1z"/>
				<path fill="#F69127" d="M103.1,100.4c0,1.2-12.7,1.2-12.7,0c0-1.2,2.8-4.2,6.4-4.2C100.3,96.3,103.1,99.2,103.1,100.4z"/>
				<ellipse fill="#F05A28" cx="124.9" cy="102.1" rx="1.5" ry="0.4"/>
				<ellipse fill="#F69127" cx="129.2" cy="101.2" rx="0.9" ry="0.3"/>
				<ellipse fill="#F69127" cx="108.8" cy="101" rx="2.7" ry="0.7"/>
				<ellipse fill="#F05A28" cx="104.2" cy="102.8" rx="1.7" ry="0.4"/>
				<path opacity="0.5" fill="#FFFFFF" d="M115.4,75.6c-1.1,0-2.1,0.1-3.1,0.2c16.3,1.6,29,15.3,29,31.9c0,16.7-12.7,30.4-29,31.9
					c1,0.1,2.1,0.2,3.1,0.2c17.7,0,32.1-14.4,32.1-32.1C147.5,90,133.1,75.6,115.4,75.6z"/>
				<path fill="#39C3E3" d="M103.6,11.7c2,0.1,4,0.3,6,0.4c2,0.1,4,0.1,6,0.1c2,0,4-0.2,6-0.3c2-0.2,4-0.3,6-0.4
					c-1.9,0.8-3.9,1.4-5.9,1.8c-2,0.4-4,0.7-6.1,0.7c-2.1,0-4.1-0.1-6.1-0.5C107.4,13.1,105.4,12.6,103.6,11.7z"/>
				<path fill="#39C3E3" d="M129.5,21.3c-2.1,1.3-4.4,2.1-6.8,2.6c-2.4,0.5-4.8,0.8-7.2,0.8c-2.4,0-4.8-0.3-7.2-0.8
					c-2.4-0.6-4.7-1.4-6.8-2.6c2.5-0.2,4.8-0.1,7.1-0.1l6.9,0l6.9,0C124.7,21.1,127,21.1,129.5,21.3z"/>
			</g>
		</g>
	</g>
</g>
<g id="Microscope_1_">
</g>
<g id="Right_Potion_Bottles">
</g>
<g id="Keyboard">
</g>
<g id="Header">
</g>
<g id="Header_Buttons">
</g>
<g id="Progress_Indicator_1_">
</g>
<g id="Title">
</g>
<g id="Problem_Screen">
</g>
<g id="Solution_Screen" display="none">
</g>
<g id="Isadora_Screenshot" display="none">
</g>
</svg>
