<svg width="40" height="40" viewBox="0 0 40 40" fill="none" xmlns="http://www.w3.org/2000/svg" preserveAspectRatio="none"><circle cx="20" cy="20" r="20" fill="#60bce0" /><g clip-path="url(#clip0)"><path d="M13.785 19.981C15.7976 19.981 17.4291 18.4025 17.4291 16.4553C17.4291 14.5082 15.7976 12.9297 13.785 12.9297C11.7725 12.9297 10.141 14.5082 10.141 16.4553C10.141 18.4025 11.7725 19.981 13.785 19.981Z" fill="white" /><path d="M13.785 32.0002C9.30558 32.0002 9.30558 25.1161 9.30558 25.1161C9.30558 22.7332 9.16155 20.7822 13.785 20.7822C18.4085 20.7822 18.2429 22.7471 18.2429 25.1161C18.2429 25.1161 18.2429 32.0002 13.785 32.0002Z" fill="white" /><path d="M12.1821 23.7212C12.5938 23.0313 12.3495 22.1492 11.6365 21.7509C10.9234 21.3527 10.0117 21.589 9.60006 22.2789L6.20087 27.9751C5.78921 28.665 6.03351 29.5471 6.74652 29.9454C7.45953 30.3436 8.37126 30.1073 8.78292 29.4174L12.1821 23.7212Z" fill="white" /><path d="M18.8195 29.4481C19.2311 30.138 20.1428 30.3743 20.8559 29.976C21.5689 29.5778 21.8132 28.6957 21.4015 28.0058L18.0023 22.3095C17.5907 21.6197 16.6789 21.3833 15.9659 21.7816C15.2529 22.1799 15.0086 23.062 15.4203 23.7518L18.8195 29.4481Z" fill="white" /><path d="M23.032 16.2531C25.673 16.2531 27.8139 14.1817 27.8139 11.6265C27.8139 9.07137 25.673 7 23.032 7C20.3911 7 18.2501 9.07137 18.2501 11.6265C18.2501 14.1817 20.3911 16.2531 23.032 16.2531Z" fill="white" /><path d="M23.032 32.0002C17.1626 32.0002 17.1626 23.0258 17.1626 23.0258C17.1626 19.9043 16.9682 17.3472 23.032 17.3472C29.0958 17.3472 28.9086 19.9043 28.9086 23.0258C28.9086 23.0258 28.9086 32.0002 23.032 32.0002Z" fill="white" /><path d="M20.9244 21.1522C21.4653 20.2457 21.1457 19.0874 20.2105 18.565C19.2754 18.0426 18.0787 18.354 17.5378 19.2604L13.0872 26.7187C12.5463 27.6251 12.8659 28.7835 13.8011 29.3058C14.7362 29.8282 15.9329 29.5169 16.4738 28.6104L20.9244 21.1522Z" fill="white" /><path d="M29.6284 28.6528C30.1693 29.5592 31.3659 29.8706 32.3011 29.3482C33.2363 28.8258 33.5559 27.6675 33.015 26.761L28.5644 19.3028C28.0234 18.3963 26.8268 18.085 25.8916 18.6074C24.9565 19.1298 24.6368 20.2881 25.1778 21.1945L29.6284 28.6528Z" fill="white" /></g><defs><clipPath id="clip0"><rect width="27.2727" height="25" fill="white" transform="translate(6 7)" /></clipPath></defs></svg>