<svg width="40" height="40" viewBox="0 0 40 40" fill="none" xmlns="http://www.w3.org/2000/svg" preserveAspectRatio="none"><circle cx="20" cy="20" r="20" fill="#60bce0" /><path d="M33.4816 12.125H28.3039V10.1719C28.3039 9.52246 27.7712 9 27.1091 9H13.5674C12.9053 9 12.3725 9.52246 12.3725 10.1719V12.125H7.19485C6.53271 12.125 6 12.6475 6 13.2969V16.0312C6 17.7744 7.12017 19.5664 9.08172 20.9482C10.65 22.0566 12.5568 22.7598 14.5581 22.9844C16.1214 25.5283 17.9485 26.5781 17.9485 26.5781V30.0938H15.5588C13.8014 30.0938 12.3725 31.1045 12.3725 32.8281V33.4141C12.3725 33.7363 12.6414 34 12.97 34H27.7065C28.0351 34 28.3039 33.7363 28.3039 33.4141V32.8281C28.3039 31.1045 26.8751 30.0938 25.1176 30.0938H22.7279V26.5781C22.7279 26.5781 24.5551 25.5283 26.1183 22.9844C28.1247 22.7598 30.0315 22.0566 31.5947 20.9482C33.5513 19.5664 34.6765 17.7744 34.6765 16.0312V13.2969C34.6765 12.6475 34.1438 12.125 33.4816 12.125ZM10.9437 18.4141C9.72894 17.5547 9.18627 16.5977 9.18627 16.0312V15.25H12.3825C12.4323 16.8418 12.6713 18.2383 13.0198 19.459C12.268 19.2051 11.566 18.8535 10.9437 18.4141ZM31.4902 16.0312C31.4902 16.8174 30.609 17.7939 29.7328 18.4141C29.1104 18.8535 28.4035 19.2051 27.6517 19.459C28.0002 18.2383 28.2392 16.8418 28.289 15.25H31.4902V16.0312Z" fill="white" /></svg>