<svg id="about_to_hop" data-name="about to hop" xmlns="http://www.w3.org/2000/svg" viewBox="0 0 335.34 332.76" width="335.34" height="332.76" preserveAspectRatio="none"><title>KangaroosterPrehop</title><path d="M141.85,190.77s-16.56,28.61.75,45.18S181,246.49,181,246.49s3.76,6.78.75,25.6-18.31,34.5-18.31,34.5a368.81,368.81,0,0,0,39.39,3.15c19.06,0.26,31.27-1.94,31.27-1.94a25.35,25.35,0,0,0-22.23-13.12c-15.81,0-35.35,6.35-35.35,6.35s26.65-40.55,22.55-83.15c-3.4-35.35-37.65-47.44-37.65-47.44Z" fill="#c5632e"/><path d="M295.92,124.79s21.31-15.6,18.63-35.89-12.35-25.65-19-24.25,3.23,23.29-5.37,24.18S288,73.66,272.44,61.61,244.74,54.21,241,60s19.15,14.4,15.48,22.51-11.27-1-25.77,4.23S212,103.63,216.73,108.32s18.77-5.87,23.3-.25c2.55,3.17-4.89,3.29-8.46,9.83-4.85,8.9-3.28,19.57,1.25,20.11s7.94-5.34,13.91-8.57,8.95-2.8,8.95-2.8Z" fill="#d93744"/><path d="M261.8,212.41s-25.35,13-22.93,22.59S263,233.64,263,233.64s-16.47,22.55-12.6,26.24,17.94-10.72,17.94-10.72S240.83,282,250.59,288.4s20.72-3.67,24.32-11.58,5.17-26.09,5.17-26.09,3.26,18.57,8.11,20.44c3.25,1.25,7.94-1.28,8.95-15.9C298.45,236.08,270,202.1,270,202.1Z" fill="#76370c"/><path d="M285.2,141.53s4.38,3,11,.93,8.36-9.23,8.36-9.23l-16.66-8.42Z" fill="#fbb040"/><path d="M285.44,133s8.12-.69,13.38,2.17a28.33,28.33,0,0,1,8.53,7.39A21.31,21.31,0,0,0,309.42,128a21.77,21.77,0,0,0-7.48-12.08L294.33,117Z" fill="#f5d235"/><path d="M273.67,155.26c2.75-21.9,16.48-47.83,16.48-47.83S278.8,94.12,263.73,94s-18,12-18,12l11,2.92s-8.5,2.11-8.62,17,19.08,26.57-.66,56.55S189,165.73,159.32,166.3c-35.73.69-44.16,32.19-48.77,64.36,5,7,13.3,10.93,21.1,14.06,9.44,3.8,18.92,7.13,29,8.86a1.64,1.64,0,0,1,.85.41c20.61,4.33,89.44,16,107.37-16.51C283.54,210.8,270.92,177.16,273.67,155.26Z" fill="#fbb040"/><path d="M111.37,226c-4.09,30.13-7.07,67.65-25.22,72.31C47.94,308.16,11,274.71,11,274.71s20.25,44.47,75.21,44.24,69.16-66.59,69.16-66.59Z" fill="#fbb040"/><path d="M290.15,107.43S278.8,94.12,263.73,94s-18,12-18,12l11,2.92s-8.5,2.11-8.62,17,19.08,26.57-.66,56.55c-8.54,13-23.58,12.69-33.93,2.43-1.07,3.59-2.13,11.42-1.79,14.58,0.65,6.12,9.15,8.81,9.9,9-1.11-.33-15.77-4.58-16.81,1.86-1.08,6.69,13.5,8.48,13.5,8.48s-21,20.05-15.1,29.59,15,2.44,15,2.44a94.77,94.77,0,0,0-6.31,10.7c23.36-.07,47.38-6.79,56.89-24,14.7-26.67,2.07-60.31,4.83-82.21S290.15,107.43,290.15,107.43Z" fill="#c5632e"/><path d="M263.73,94c-15.07-.12-18,12-18,12l11,2.92s-8.5,2.11-8.62,17,19.08,26.57-.66,56.55A12.38,12.38,0,0,1,237,188.06c0.94,3.23,8.14,4.29,12,3.66a23.72,23.72,0,0,0,13.89-8S252.68,200.9,258.63,203s9.58-16.75,9.58-16.75-0.85,4.43,2.92,10.2c4,6.14,6.63,6.28,7.65,6.36-1.6-6.39-6.74-34.66-5.12-47.55,2.75-21.9,16.48-47.83,16.48-47.83S278.8,94.12,263.73,94Z" fill="#76370c"/><path d="M286.4,102.58s-5.1-1.41-7.49,1.91,0.09,7.31.09,7.31l-2.14,22.47,10.6-.45s0.63-4.45,6.13-10.51,10.69-5.91,10.69-5.91a38,38,0,0,0-8.23-8.52A93.91,93.91,0,0,0,286.4,102.58Z" fill="#f26652"/><circle cx="274.08" cy="116.41" r="10.11" transform="translate(115.28 368.32) rotate(-80.79)" fill="#fffde9"/><circle cx="277.56" cy="115.41" r="6.36" transform="translate(119.2 370.92) rotate(-80.79)" fill="#3c2415"/><circle cx="274.68" cy="114.37" r="3.02" transform="translate(117.8 367.18) rotate(-80.78)" fill="#76370c"/><path d="M269,96.44a5.64,5.64,0,0,0-2.54.87,12.85,12.85,0,0,0-2.12,1.58,23.34,23.34,0,0,0-1.86,1.91,9.71,9.71,0,0,0-1.43,2.07,16,16,0,0,0-1.51,5,42.9,42.9,0,0,0-.4,5.51,14,14,0,0,1-1.16-5.62,12.29,12.29,0,0,1,1.29-5.78,9.36,9.36,0,0,1,1.83-2.45,14.91,14.91,0,0,1,2.28-1.84,9.64,9.64,0,0,1,2.69-1.25A4.58,4.58,0,0,1,269,96.44Z" fill="#3c2415"/><ellipse cx="277.67" cy="129.54" rx="8.18" ry="10.58" transform="matrix(0.16, -0.99, 0.99, 0.16, 105.34, 382.89)" fill="#f26652"/><path d="M276.82,130.84s-6.65,8.53-8.87,17.28,0,25.46,9.57,28.47c7.65,2.39,15.3-6.34,13.06-19.71s-6-9.05-3-22.57,16-17,16-17l-13.85-3.1Z" fill="#f26652"/><path d="M267.79,126.08a7.64,7.64,0,0,1,3.91-4.19,13.6,13.6,0,0,1,5.69-1.48,11.68,11.68,0,0,1,5.75,1.38,11.22,11.22,0,0,1,4.26,3.83,23.45,23.45,0,0,0-4.89-2.39,14.72,14.72,0,0,0-5.08-.81,19.18,19.18,0,0,0-5.12.9A10.8,10.8,0,0,0,267.79,126.08Z" fill="#d93744"/><path d="M243.26,213.58s-27.58,7.23-27.29,17.08,23.83,3.9,23.83,3.9-21,18.44-18,22.89,19.84-6.58,19.84-6.58-34,26.12-25.82,34.45,21,0.9,26.26-6,10.7-24.35,10.7-24.35-0.85,18.83,3.49,21.72c2.9,1.93,8,.47,12.18-13.59,5.45-18.45-15-57.78-15-57.78Z" fill="#c5632e"/><path d="M243.26,213.58a103.69,103.69,0,0,0-14.15,5.26,49.7,49.7,0,0,0-6.59,3.62,16.93,16.93,0,0,0-5.29,5.09c-1.27,2-1.14,4.9.74,6.33a8.12,8.12,0,0,0,3.23,1.44,19.55,19.55,0,0,0,3.65.46,57.13,57.13,0,0,0,14.8-1.83l2.52-.6-2,1.7c-2.86,2.49-5.66,5.08-8.34,7.77a64.5,64.5,0,0,0-7.38,8.54,15.57,15.57,0,0,0-1.34,2.36,3.24,3.24,0,0,0-.36,2.13,2,2,0,0,0,1.48,1.35,6.09,6.09,0,0,0,2.48,0A22.35,22.35,0,0,0,232,255.6a45.89,45.89,0,0,0,5-2.55l7.29-4.3L238,254.48c-3,2.72-5.84,5.56-8.61,8.48a115.69,115.69,0,0,0-7.89,9.11,49.27,49.27,0,0,0-3.36,4.92,15.42,15.42,0,0,0-2.12,5.24,3.21,3.21,0,0,0,.37,2.24,3.88,3.88,0,0,0,.39.47c0.18,0.2.32,0.33,0.48,0.5a12,12,0,0,0,1.06.9,9.72,9.72,0,0,0,5.11,1.89c3.75,0.27,7.57-1.2,10.87-3.25a25.24,25.24,0,0,0,8.29-8.13,76.45,76.45,0,0,0,5.21-10.8c1.51-3.73,2.88-7.54,4.12-11.36l1.93-5.93L253.67,255a89.18,89.18,0,0,0,.37,12.83,25.52,25.52,0,0,0,1.29,6.12,4.23,4.23,0,0,0,1.55,2.19,3.13,3.13,0,0,0,2.52.33c1.77-.52,3.21-2.19,4.33-3.91a31.45,31.45,0,0,0,2.78-5.69q0.57-1.49,1.06-3a22.68,22.68,0,0,0,.8-3.06,30.62,30.62,0,0,0,.42-6.34A66.35,66.35,0,0,0,267,241.7a129.07,129.07,0,0,0-3.58-12.43,215.45,215.45,0,0,0-9.88-24A197.4,197.4,0,0,1,264,229a129.85,129.85,0,0,1,3.88,12.43,65.41,65.41,0,0,1,2,12.91,31.82,31.82,0,0,1-.35,6.6,24,24,0,0,1-.79,3.23c-0.32,1-.66,2.08-1,3.11a32.74,32.74,0,0,1-2.82,6,15.17,15.17,0,0,1-2.09,2.69,7.32,7.32,0,0,1-3,1.92,4.68,4.68,0,0,1-3.74-.45,4.32,4.32,0,0,1-1.41-1.34,8.63,8.63,0,0,1-.83-1.58,26.8,26.8,0,0,1-1.49-6.52,90.79,90.79,0,0,1-.44-13.1l1.71,0.3c-1.24,3.89-2.61,7.72-4.12,11.51a78,78,0,0,1-5.29,11.1,27.14,27.14,0,0,1-8.86,8.78,25.82,25.82,0,0,1-5.68,2.72,16.64,16.64,0,0,1-6.36.87,11.72,11.72,0,0,1-6.15-2.25,12.54,12.54,0,0,1-1.26-1.07c-0.19-.19-0.42-0.42-0.57-0.6a5.59,5.59,0,0,1-.57-0.7,5.17,5.17,0,0,1-.67-3.61,17.16,17.16,0,0,1,2.4-6,51.49,51.49,0,0,1,3.52-5.1,117.32,117.32,0,0,1,8.07-9.22c2.83-2.94,5.73-5.78,8.75-8.53l1.06,1.43a47.57,47.57,0,0,1-5.22,2.63,23.94,23.94,0,0,1-5.67,1.74,7.7,7.7,0,0,1-3.2-.11,3.92,3.92,0,0,1-1.58-.86,3.59,3.59,0,0,1-.6-0.71,4.1,4.1,0,0,1-.38-0.79,3.46,3.46,0,0,1-.09-1.88,7.28,7.28,0,0,1,.51-1.53,17.13,17.13,0,0,1,1.52-2.6,65.73,65.73,0,0,1,7.69-8.66c2.75-2.68,5.59-5.24,8.53-7.72l0.56,1.1a71,71,0,0,1-7.52,1.32,45,45,0,0,1-7.64.34,20.59,20.59,0,0,1-3.84-.54,8.94,8.94,0,0,1-3.58-1.7,5.05,5.05,0,0,1-1.8-3.6,6.41,6.41,0,0,1,1-3.83,17.55,17.55,0,0,1,5.62-5.2,50.21,50.21,0,0,1,6.74-3.51A97.24,97.24,0,0,1,243.26,213.58Z" fill="#76370c"/><path d="M136.78,207.94s-16.56,28.61.75,45.18,38.4,10.54,38.4,10.54,3.76,6.78.75,25.6-18.31,34.5-18.31,34.5a368.81,368.81,0,0,0,39.39,3.15C216.83,327.16,229,325,229,325a25.35,25.35,0,0,0-22.23-13.12c-15.81,0-35.35,6.35-35.35,6.35S198.11,277.65,194,235c-3.4-35.35-37.65-47.44-37.65-47.44Z" fill="#fbb040"/><path d="M206.8,311.85a83.05,83.05,0,0,0-9.13.79c-3,.42-6,1-9,1.59s-5.95,1.37-8.9,2.15-5.89,1.62-8.77,2.56l-0.19-1.19a1.08,1.08,0,1,0-.45.2l0,0,0-.06,0.09-.12,0.17-.23L171,317l0.68-1q0.67-1,1.32-2,1.29-2,2.49-4,2.4-4.06,4.44-8.32a97.45,97.45,0,0,0,6.58-17.61c1.7-6.07,3.16-12.21,4.31-18.4a147.47,147.47,0,0,0,2.38-18.69,72.83,72.83,0,0,0-1.07-18.67,51.37,51.37,0,0,0-7-17.21,59.57,59.57,0,0,0-12.6-13.86,67.14,67.14,0,0,0-16.16-9.75A63.68,63.68,0,0,1,173,196.7a57.72,57.72,0,0,1,13.22,13.77,50.34,50.34,0,0,1,7.6,17.6,58,58,0,0,1,1.24,9.55,93.94,93.94,0,0,1,0,9.58c-0.59,12.77-3.33,25.29-6.82,37.5a96.32,96.32,0,0,1-6.85,17.85q-2.16,4.27-4.69,8.33-1.26,2-2.62,4-0.68,1-1.38,2l-0.71,1-0.36.48-0.18.24-0.09.12,0,0.06,0,0c-0.1,0,.27,0-0.5.26l-0.19-1.19a156.84,156.84,0,0,1,17.91-4.25A94.67,94.67,0,0,1,206.8,311.85Z" fill="#c5632e"/><path d="M136.78,207.94a62.47,62.47,0,0,0-4.34,10.36,53.73,53.73,0,0,0-2.34,11,34,34,0,0,0,.6,11.1,24.55,24.55,0,0,0,4.79,9.9,29.44,29.44,0,0,0,3.91,3.93,43.62,43.62,0,0,0,4.45,3.33,39.76,39.76,0,0,0,10,4.71,41.91,41.91,0,0,0,10.92,1.83,39.77,39.77,0,0,0,11-1.06l0.56-.14,0.23,0.47a17.38,17.38,0,0,1,1.3,4.14,37.15,37.15,0,0,1,.58,4.17,60.57,60.57,0,0,1,.09,8.36c-0.15,2.78-.45,5.54-0.84,8.29a47.4,47.4,0,0,1-1.86,8.18,67.46,67.46,0,0,1-7.22,15.05,86,86,0,0,1-10.22,13.2l-0.53-1.52,20,1.84c3.33,0.24,6.65.66,10,.92,1.67,0.13,3.33.3,5,.47l5,0.49c-1.68.1-3.35,0.14-5,.17s-3.36.06-5,0c-3.35-.08-6.71-0.09-10.05-0.33s-6.69-.44-10-0.7-6.67-.7-10-1.1l-1.77-.22,1.24-1.3a84.4,84.4,0,0,0,10-12.87,65.77,65.77,0,0,0,7.08-14.65,46.89,46.89,0,0,0,1.86-7.9c0.42-2.71.74-5.42,0.91-8.14a59.14,59.14,0,0,0,0-8.15,35.7,35.7,0,0,0-.52-4,16.59,16.59,0,0,0-1.11-3.75l0.79,0.33a40.9,40.9,0,0,1-11.39,1,43.11,43.11,0,0,1-11.21-2,40.39,40.39,0,0,1-18.7-12.54,25.31,25.31,0,0,1-4.77-10.28,34.54,34.54,0,0,1-.43-11.29,52.61,52.61,0,0,1,2.56-11A62.59,62.59,0,0,1,136.78,207.94Z" fill="#c5632e"/></svg>