<?xml version="1.0" encoding="utf-8"?>
<!-- Generator: Adobe Illustrator 19.2.0, SVG Export Plug-In . SVG Version: 6.00 Build 0)  -->
<!DOCTYPE svg PUBLIC "-//W3C//DTD SVG 1.1//EN" "http://www.w3.org/Graphics/SVG/1.1/DTD/svg11.dtd">
<svg version="1.1" xmlns="http://www.w3.org/2000/svg" xmlns:xlink="http://www.w3.org/1999/xlink" x="0px" y="0px"
	 viewBox="0 0 102.7 214" enable-background="new 0 0 102.7 214" xml:space="preserve" width="102.7" height="214" preserveAspectRatio="none">
<g id="Original_Frog" display="none">
</g>
<g id="Up_Frog">
	<g>
		<g>
			<g>
				<path fill="#F7933D" d="M47.7,136.6c0.3,0-0.3-6-2.3-12.7c-1-3.2-2.3-6.7-4.1-9.4c-3.5-5.3-3.9-9.9-4.9-9.8
					c-4.4,0.5-6.9,2.4-8.1,6.3c-1.6,5.4,14.2,30,15.7,32.3l5.5,4.3L47.7,136.6z"/>
				<path fill="#F7933D" d="M42.5,140.7c0.1,0.1,2.6,3.6,1.1,3.9c-1.1,0.3-20.6,3.1-27.7-6.7c-12.9,0-13.1,10.4-13.1,10.4l46.7,0
					c1.3-0.3,1.1-1.9,0.1-3.4c-0.2-0.2-0.8-2.7-1-2.9L42.5,140.7z"/>
				<path fill="#D47433" d="M3.4,145.6c2.8,0.5,6.3,0.5,8.6-1.9c1.8-1.9,1.9-3.8,1.5-5.5C6.9,138.9,4.4,142.8,3.4,145.6z"/>
				<path fill="#D47433" d="M48.5,138.9c-0.6-4-1.1-7.7-1.9-11.6c-2.4-11.9-6.8-15.7-7.7-16.4c-0.8-0.6-1.7-1.2-2.8-1.5
					c-1-0.3-2.2-0.2-2.9,0.6c0.9-0.5,1.9-0.4,2.7,0c0.8,0.4,1.6,1,2.2,1.7c0.7,0.7,4.8,4.5,7.5,15.8c1.1,4.5,1.7,8.1,2.5,13.1
					c0.3,1.9,0.7,2.5,1.4,4.1C49,142.5,48.8,140.9,48.5,138.9z"/>
			</g>
			<path fill="#67CCE6" d="M47.5,97.4c5.4-13.9,1.4-21.5,1.4-21.5l-8.1-1.5c-12.3,9-14,20.5-13.2,28.6c3,2,7.8,4.7,14,6.2
				C43.5,106.3,45.6,102.5,47.5,97.4z"/>
			<path fill="#F7933D" d="M27.6,102.9c0.6,5.9,2.5,10,2.5,10l5.6,3.3c0,0,2.6-2,5.9-7.1C35.4,107.6,30.6,105,27.6,102.9z"/>
		</g>
		<g>
			<g>
				<path fill="#F7933D" d="M54,136.6c-0.3,0,0.3-6,2.3-12.7c1-3.2,2.3-6.7,4.1-9.4c3.5-5.3,3.9-9.9,4.9-9.8
					c4.4,0.5,6.9,2.4,8.1,6.3c1.6,5.4-14.2,30-15.7,32.3l-5.5,4.3L54,136.6z"/>
				<path fill="#F7933D" d="M59.2,140.7c-0.1,0.1-2.6,3.6-1.1,3.9c1.1,0.3,20.6,3.1,27.7-6.7c12.9,0,13.1,10.4,13.1,10.4l-46.7,0
					c-1.3-0.3-1.1-1.9-0.1-3.4c0.2-0.2,0.8-2.7,1-2.9L59.2,140.7z"/>
				<path fill="#D47433" d="M98.3,145.6c-2.8,0.5-6.3,0.5-8.6-1.9c-1.8-1.9-1.9-3.8-1.5-5.5C94.8,138.9,97.3,142.8,98.3,145.6z"/>
				<path fill="#D47433" d="M53.2,138.9c0.6-4,1.1-7.7,1.9-11.6c2.4-11.9,6.8-15.7,7.7-16.4c0.8-0.6,1.7-1.2,2.8-1.5
					c1-0.3,2.2-0.2,2.9,0.6c-0.9-0.5-1.9-0.4-2.7,0c-0.8,0.4-1.6,1-2.2,1.7c-0.7,0.7-4.8,4.5-7.5,15.8c-1.1,4.5-1.7,8.1-2.5,13.1
					c-0.3,1.9-0.7,2.5-1.4,4.1C52.7,142.5,53,140.9,53.2,138.9z"/>
			</g>
			<path fill="#67CCE6" d="M54.2,97.4c-5.4-13.9-1.4-21.5-1.4-21.5l8.1-1.5c12.3,9,14,20.5,13.2,28.6c-3,2-7.8,4.7-14,6.2
				C58.2,106.3,56.1,102.5,54.2,97.4z"/>
			<path fill="#F7933D" d="M74.1,102.9c-0.6,5.9-2.5,10-2.5,10l-5.6,3.3c0,0-2.6-2-5.9-7.1C66.3,107.6,71.1,105,74.1,102.9z"/>
		</g>
	</g>
	<g>
		<path fill="#00AA9E" d="M59.6,102H39.1c-1.1,0-2-0.9-2-2v-0.5c0-1.1,0.9-2,2-2h20.5c1.1,0,2,0.9,2,2v0.5
			C61.6,101.1,60.7,102,59.6,102z"/>
		<path fill="#003842" d="M88.1,103.7H60.6c-1.1,0-2-0.9-2-2v-3.7c0-1.1,0.9-2,2-2h27.5c1.1,0,2,0.9,2,2v3.7
			C90.1,102.8,89.2,103.7,88.1,103.7z"/>
		<path fill="#003842" d="M13.6,103.7h27.5c1.1,0,2-0.9,2-2v-3.7c0-1.1-0.9-2-2-2H13.6c-1.1,0-2,0.9-2,2v3.7
			C11.6,102.8,12.5,103.7,13.6,103.7z"/>
	</g>
	<path fill="#F7933D" d="M86.8,27.5c1.8,2.8-4.9,8.3-8.3,8.3c-3.3,0-6-2.7-6-6s-0.1-5.5,3.3-5.5C79.1,24.3,85.1,24.8,86.8,27.5z"/>
	<path fill="#F7933D" d="M91,35.9c2,3-5.7,9.1-9.5,9.1c-3.8,0-6.9-3-6.9-6.7c0-3.7-0.1-6.1,3.8-6.1C82.1,32.3,89,32.8,91,35.9z"/>
	<path fill="#F7933D" d="M88.5,45.8c1.8,2.8-4.9,8.3-8.3,8.3c-3.3,0-6-2.7-6-6s-0.1-5.5,3.3-5.5C80.9,42.5,86.8,43,88.5,45.8z"/>
	<path fill="#F7933D" d="M44.9,143.7l-0.9-0.1c0.9,0.9,1.7,1.9,2.6,2.8C46.1,145.5,45.5,144.6,44.9,143.7z"/>
	<circle fill="#F7933D" cx="33.5" cy="19.7" r="10"/>
	<path fill="#FCF5A3" d="M29.8,10.4c-3.7,1.5-6.3,5.1-6.3,9.3c0,4.2,2.6,7.8,6.3,9.3c3.5-1.5,6-5.1,6-9.3
		C35.8,15.5,33.3,11.9,29.8,10.4z"/>
	<path fill="#FBB040" d="M68.4,76.7C76.3,67.8,82,53.9,82,43.9c0-15.6-12.6-28.2-28.2-28.2c-15.6,0-28.2,12.6-28.2,28.2
		c0,10,1.6,23.8,5,33L68.4,76.7z"/>
	<ellipse fill="#02585F" cx="30.2" cy="19.8" rx="5.2" ry="5.4"/>
	<ellipse fill="#FCF5A3" cx="33.9" cy="19.1" rx="1.9" ry="2"/>
	<ellipse transform="matrix(0.9723 -0.2338 0.2338 0.9723 -3.098 12.0112)" fill="#F7933D" cx="49.1" cy="19.1" rx="2.4" ry="1.1"/>
	<ellipse transform="matrix(0.9723 -0.2338 0.2338 0.9723 -3.1716 13.1985)" fill="#F7933D" cx="54.1" cy="20" rx="1.5" ry="0.7"/>
	<ellipse transform="matrix(0.9723 -0.2338 0.2338 0.9723 -3.5193 10.627)" fill="#F7933D" cx="43.1" cy="20.2" rx="1.5" ry="0.7"/>
	<path fill="#A4C0CE" d="M53.2,206.4h-4.6l0-109.6c1-1.4,3.9-1.3,4.6,0L53.2,206.4z"/>
	<polygon fill="#003842" points="54.3,212.1 47.4,212.1 46.2,202 55.5,202 	"/>
	<g>
		
			<rect x="52.8" y="148.4" transform="matrix(-1 -5.244883e-011 5.244883e-011 -1 128.9765 300.1322)" fill="#003842" width="23.4" height="3.3"/>
		<rect x="25.7" y="148.4" fill="#003842" width="23.4" height="3.3"/>
		<path fill="#00AA9E" d="M25.5,151.8c8.2,0.2,15.1,1.9,20.9,4.7l0,3.3h4.4v-9.5H25.5V151.8z"/>
		<path fill="#00AA9E" d="M76.1,151.8c-8.2,0.2-15.1,1.9-20.9,4.7l0,3.3h-4.4v-9.5h25.4V151.8z"/>
		<rect x="46.9" y="159.6" fill="#003842" width="7.9" height="1.9"/>
	</g>
	<path fill="#E6F3EC" d="M33.7,39.6c0,0,1.3-7.6,4.2-7.4c2.9,0.2,4,0.5,6.1,1.6c2.2,1.1-1.4,8.7-1.4,8.7L33.7,39.6z"/>
	<path fill="#E6F3EC" d="M46.9,41.2c0,0-0.5-5,1.4-5.4c1.9-0.4,2.6-0.3,4.2,0C54,36,53,41.5,53,41.5L46.9,41.2z"/>
	<path fill="#FBB040" d="M70.9,30c0,0-2.3,5.3-15.7,7.2C23.9,41.8,15.8,28,15.8,28s-0.6,5.4,2.8,19.8C22,62.3,34.6,79.2,34.6,79.2
		l37.7-34.7L70.9,30z"/>
	<path fill="#67CCE6" d="M21.7,60.1c4.1,12.1,13,23.2,13,23.2l29-0.2c5.8-6.7,12.5-16.6,14.8-22.6L21.7,60.1z"/>
	<path fill="#E6F3EC" d="M17.5,46.7c1.4,6.9,4,15.2,7.5,21.2l49.8,0c4.7-6.8,6.8-16.8,7.2-22.7c-0.2-0.1-0.1-0.1-0.2-0.2
		c-3.8,2-14.7,7-33.1,7C31.8,52,21.9,48.5,17.5,46.7z"/>
	<path fill="#CA2A2A" d="M48.5,54.3c16.4,0,27.3-3.3,33.1-5.6c0.2-1.7,0.4-3.3,0.4-4.8c0,0,0,0,0-0.1C78.5,45.8,67.5,51,48.6,51
		c-16.8,0-26.8-3.5-31.2-5.4c0.2,1.8,0.5,3.4,1,5C24.5,52.3,34.4,54.3,48.5,54.3z"/>
	<g>
		<path fill="#FBB040" d="M41.7,63.6l-6.4,30c0,0-11.6-2.9-14,1.4c-0.1,0.2-0.1,0.4-0.1,0.5c0,0,0,0.1,0.1,0.1
			c-0.6,0.5-0.9,1.2-0.6,2.1c0.4,1.5,2.4,3,3.8,1.8c4.2-3.6,10.1-3.2,10.1-3.2s-7.1,4.3-3.5,7.2c0.9,0.7,2.9,0.7,3.7-0.4
			c0.3-0.4,0.4-0.7,0.6-1.1c3-5,6.8-5.7,6.8-5.7l1.9-32.4L41.7,63.6z"/>
		<path fill="#F7933D" d="M21.2,95.6c0,0,2.4-2.3,10.6-1.2c0,0-6.7-2.1-10.7,0.8C21.2,95.3,21.1,95.5,21.2,95.6z"/>
	</g>
	<g>
		<path fill="#FBB040" d="M59.2,64l7.1,29.5c0,0,11.5-3.2,14,1.1c0.1,0.2,0.1,0.4,0.1,0.5c0,0,0,0.1,0,0.1c0.6,0.5,0.9,1.2,0.7,2.1
			c-0.4,1.5-2.3,3.1-3.8,1.9c-4.3-3.4-10.2-3-10.2-3s7.2,4.1,3.7,7.1c-0.9,0.7-2.8,0.8-3.7-0.3c-0.3-0.4-0.4-0.7-0.6-1.1
			c-3.2-5-6.9-5.5-6.9-5.5l-2.5-32.2L59.2,64z"/>
		<path fill="#F7933D" d="M80.4,95.1c0,0-2.5-2.2-10.7-0.9c0,0,6.6-2.3,10.7,0.5C80.4,94.8,80.5,95,80.4,95.1z"/>
	</g>
	<path fill="#CA2A2A" d="M39.7,54l-1.6,9.9c0,0,0.6,1.3,4.1,1.4c3.6,0.1,4.4-0.9,4.4-0.9l0.8-8.8c0,0-0.7-3-4.6-3.4
		C40,52,39.7,54,39.7,54z"/>
	<path fill="#CA2A2A" d="M61,53.8l2,9.8c0,0-0.5,1.4-4.1,1.6c-3.6,0.3-4.5-0.7-4.5-0.7l-1.2-8.7c0,0,0.6-3,4.4-3.6
		C60.6,51.8,61,53.8,61,53.8z"/>
	<g>
		<path fill="#CA2A2A" d="M50.8,12.3c0,0,3.1-9.3,10.5-9.3s9.3,15.2,9.3,15.2l-15.1-1.8L50.8,12.3z"/>
		<path fill="#67CCE6" d="M62.7,6.1c-0.4-1.2-0.9-2.3-1.5-3.1c-7.3,0.1-10.4,9.3-10.4,9.3l4.8,3.9l5.9,1.7
			C62.6,14.2,63.7,9,62.7,6.1z"/>
		<path fill="#CA2A2A" d="M42.2,2c0,0-2.9,3.6,2.1,9.1c5,5.5,12.9,6.4,12.9,6.4l2.9-1.9L42.2,2z"/>
	</g>
	<circle fill="#FBB040" cx="68.1" cy="20.4" r="11.2"/>
	<path fill="#FCF5A3" d="M71.6,9.7c-0.1,0-0.1,0-0.2,0C65.7,9.7,61,14.2,61,19.8C61,25.4,65.7,30,71.4,30c1.2,0,2.3-0.2,3.4-0.6
		c2.8-2,4.6-5.3,4.6-9C79.4,15.4,76.1,11.1,71.6,9.7z"/>
	<ellipse fill="#02585F" cx="70" cy="19.8" rx="5.2" ry="5.4"/>
	<ellipse transform="matrix(0.2721 -0.9623 0.9623 0.2721 20.2686 88.614)" fill="#FBB040" cx="68.7" cy="30.9" rx="6.9" ry="9.9"/>
	<ellipse fill="#FCF5A3" cx="73.8" cy="19.3" rx="1.9" ry="2"/>
	<path fill="#F7933D" d="M70.9,30c-0.5,1.2-1.4,2.1-2.4,2.9c-1,0.8-2.1,1.5-3.2,2.1c-2.3,1.2-4.7,1.9-7.2,2.5
		c-5,1.1-10,1.6-15.1,1.6c-5.1,0-10.2-0.7-15-2.3c-2.4-0.8-4.7-2-6.9-3.4C19,32,17,30.2,15.8,28c1.6,1.9,3.7,3.4,5.8,4.6
		c2.2,1.2,4.5,2.1,6.8,2.7c4.7,1.3,9.7,1.8,14.6,1.8c2.5,0,4.9-0.1,7.4-0.3c2.5-0.2,4.9-0.5,7.4-0.9c2.4-0.4,4.8-1,7.1-1.9
		c1.1-0.4,2.3-1,3.3-1.6C69.2,31.8,70.2,31.1,70.9,30z"/>
</g>
<g id="Middle_Frog" display="none">
	<g display="inline">
		<g>
			<circle fill="#F7933D" cx="33.5" cy="58.3" r="10"/>
			<path fill="#FCF5A3" d="M29.8,49c-3.7,1.5-6.3,5.1-6.3,9.3c0,4.2,2.6,7.8,6.3,9.3c3.5-1.5,6-5.1,6-9.3
				C35.8,54.1,33.3,50.5,29.8,49z"/>
			<ellipse fill="#02585F" cx="30.2" cy="58.4" rx="5.2" ry="5.4"/>
			<ellipse fill="#FCF5A3" cx="33.9" cy="57.7" rx="1.9" ry="2"/>
		</g>
		<path fill="#F7933D" d="M86.8,65.9c1.8,2.8-4.9,8.3-8.3,8.3c-3.3,0-6-2.7-6-6s-0.1-5.5,3.3-5.5C79.1,62.7,85.1,63.2,86.8,65.9z"/>
		<path fill="#F7933D" d="M91,74.3c2,3-5.7,9.1-9.5,9.1c-3.8,0-6.9-3-6.9-6.7c0-3.7-0.1-6.1,3.8-6.1C82.1,70.7,89,71.2,91,74.3z"/>
		<path fill="#F7933D" d="M88.5,84.2c1.8,2.8-4.9,8.3-8.3,8.3c-3.3,0-6-2.7-6-6s-0.1-5.5,3.3-5.5C80.9,80.9,86.8,81.4,88.5,84.2z"/>
		<g>
			<path fill="#CA2A2A" d="M51.4,51.9c0,0,1.6-9.7,8.9-10.8c7.3-1.2,11.6,13.6,11.6,13.6l-15.6,2L51.4,51.9z"/>
			<path fill="#67CCE6" d="M62.1,43.9c-0.6-1.2-1.3-2.1-2-2.8c-7.2,1.2-8.8,10.8-8.8,10.8l4.9,4.8l6.7-0.9
				C63.3,51.9,63.6,46.6,62.1,43.9z"/>
		</g>
		<path fill="#FBB040" d="M67.3,115.3c7.9-8.8,14.7-23,14.7-33.1c0-15.6-12.6-28.2-28.2-28.2c-15.6,0-28.2,12.6-28.2,28.2
			c0,10,2.7,23.8,6.2,33L67.3,115.3z"/>
		
			<ellipse transform="matrix(0.9723 -0.2338 0.2338 0.9723 -12.072 13.0751)" fill="#F7933D" cx="49.1" cy="57.5" rx="2.4" ry="1.1"/>
		
			<ellipse transform="matrix(0.9723 -0.2338 0.2338 0.9723 -12.1463 14.2625)" fill="#F7933D" cx="54.1" cy="58.4" rx="1.5" ry="0.7"/>
		
			<ellipse transform="matrix(0.9723 -0.2338 0.2338 0.9723 -12.4939 11.691)" fill="#F7933D" cx="43.1" cy="58.5" rx="1.5" ry="0.7"/>
		<path fill="#CA2A2A" d="M39.9,45.5c0,0-1.2,4.4,5.5,7.5c6.7,3.1,14.4,0.9,14.4,0.9l1.9-2.9L39.9,45.5z"/>
		<circle fill="#FBB040" cx="68.1" cy="58.7" r="11.2"/>
		<path fill="#FCF5A3" d="M71.6,48.1c-0.1,0-0.1,0-0.2,0C65.7,48,61,52.6,61,58.2c0,5.6,4.6,10.2,10.3,10.2c1.2,0,2.3-0.2,3.4-0.6
			c2.8-2,4.6-5.3,4.6-9C79.4,53.7,76.1,49.5,71.6,48.1z"/>
		<ellipse fill="#02585F" cx="70" cy="58.2" rx="5.2" ry="5.4"/>
		
			<ellipse transform="matrix(0.2721 -0.9623 0.9623 0.2721 -15.7023 115.823)" fill="#FBB040" cx="68.7" cy="68.3" rx="6.9" ry="9.9"/>
		<path fill="#E6F3EC" d="M33.7,75c0,0,1.3-7.6,4.2-7.4c2.9,0.2,4,0.5,6.1,1.6c2.2,1.1-1.4,8.7-1.4,8.7L33.7,75z"/>
		<path fill="#E6F3EC" d="M46.9,76.5c0,0-0.5-5,1.4-5.4c1.9-0.4,2.6-0.3,4.2,0c1.6,0.3,0.6,5.7,0.6,5.7L46.9,76.5z"/>
		<path fill="#FBB040" d="M70.9,65.4c0,0-2.3,5.3-15.7,7.2c-31.3,4.5-39.4-9.2-39.4-9.2s-2.3,5.6,1.1,20.1
			c3.4,14.5,14.9,31.7,14.9,31.7l40.6-35.4L70.9,65.4z"/>
		<path fill="#67CCE6" d="M22.3,98.9c4,9.1,9.7,16.8,9.7,16.8l35.3-0.4c4-4.5,8.8-10.3,11.1-16.3H22.3z"/>
		<path fill="#E6F3EC" d="M17,84.1c1.6,6.5,4.6,13.5,7.3,19.3l52.4-0.4C80,96,82,88.4,82,82.3c0,0,0,0,0-0.1
			c-3.4,1.9-14.5,7.2-33.4,7.2C31.8,89.4,21.5,86,17,84.1z"/>
		<path fill="#CA2A2A" d="M48.5,92.7c16.4,0,27.4-3.3,33.1-5.6c0.2-1.7,0.4-3.3,0.4-4.8c0,0,0,0,0-0.1c-3.4,1.9-14.5,7.2-33.4,7.2
			c-16.8,0-27.1-3.4-31.6-5.2c0.4,1.6,0.9,3.2,1.4,4.8C24.5,90.7,34.4,92.7,48.5,92.7z"/>
		<ellipse fill="#FCF5A3" cx="73.8" cy="57.6" rx="1.9" ry="2"/>
		<g>
			<g>
				<path fill="#F7933D" d="M40.7,159.3c0.1,0.1,3.7,3.6,1.7,3.9c-1.1,0.2-20.6,3.1-27.7-6.7C1.8,156.6,1.6,167,1.6,167l46.7,0
					c1.3-0.3,1.1-1.9,0.1-3.4c-0.2-0.2-1.3-2.7-1.5-2.9L40.7,159.3z"/>
				<path fill="#D47433" d="M2.2,164.2c2.8,0.5,6.3,0.5,8.6-1.9c1.8-1.9,1.9-3.8,1.5-5.5C5.7,157.5,3.2,161.4,2.2,164.2z"/>
				<g>
					<g>
						<path fill="#67CCE6" d="M39.7,129.6c11.7-9.2,12.2-17.8,12.2-17.8l-6.2-5.5c-15.2,1.4-22.5,10.5-25.9,17.8
							c1.5,3.3,4.3,8,8.8,12.5C31.7,135.2,35.4,132.9,39.7,129.6z"/>
						<path fill="#F7933D" d="M19.8,124.2c-2.5,5.4-3,9.9-3,9.9l3.1,5.7c0,0,7,0.1,12.9-5.4C27.2,130.3,22.6,127.2,19.8,124.2z"/>
					</g>
					<g>
						<path fill="#F7933D" d="M43.6,153.8c0,0-2.8-6.1-6.8-11.2c-2-2.6-4.5-5.4-7.1-7.3c-5.2-3.7-7.2-7.9-8.1-7.4
							c-3.9,2-5.6,4.7-5.3,8.8c0.4,5.7,24,23,26.2,24.6L48,163L43.6,153.8z"/>
						<path fill="#D47433" d="M39.1,145.5c-6.5-10.2-12-12.3-13-12.6c-1-0.3-2-0.5-3.1-0.4c-1,0.1-2.2,0.6-2.5,1.6
							c0.6-0.8,1.6-1,2.6-1c0.9,0.1,1.8,0.4,2.7,0.8c0.9,0.4,6.1,2.5,12.6,12.1c2.6,3.8,8.2,14,9.3,15.9
							C46.7,159.7,41.7,149.7,39.1,145.5z"/>
					</g>
				</g>
			</g>
			<g>
				<path fill="#F7933D" d="M61,159.3c-0.1,0.1-3.7,3.6-1.7,3.9c1.1,0.2,20.6,3.1,27.7-6.7c12.9,0,13.1,10.4,13.1,10.4l-46.7,0
					c-1.3-0.3-1.1-1.9-0.1-3.4c0.2-0.2,1.3-2.7,1.5-2.9L61,159.3z"/>
				<path fill="#D47433" d="M99.5,164.2c-2.8,0.5-6.3,0.5-8.6-1.9c-1.8-1.9-1.9-3.8-1.5-5.5C96.1,157.5,98.6,161.4,99.5,164.2z"/>
				<g>
					<g>
						<path fill="#67CCE6" d="M62.1,129.6c-11.7-9.2-12.2-17.8-12.2-17.8l6.2-5.5c15.2,1.4,22.5,10.5,25.9,17.8
							c-1.5,3.3-4.3,8-8.8,12.5C70,135.2,66.3,132.9,62.1,129.6z"/>
						<path fill="#F7933D" d="M82,124.2c2.5,5.4,3,9.9,3,9.9l-3.1,5.7c0,0-7,0.1-12.9-5.4C74.5,130.3,79.1,127.2,82,124.2z"/>
					</g>
					<g>
						<path fill="#F7933D" d="M58.1,153.8c0,0,2.8-6.1,6.8-11.2c2-2.6,4.5-5.4,7.1-7.3c5.2-3.7,7.2-7.9,8.1-7.4
							c3.9,2,5.6,4.7,5.3,8.8c-0.4,5.7-24,23-26.2,24.6l-5.6,1.7L58.1,153.8z"/>
						<path fill="#D47433" d="M62.7,145.5c6.5-10.2,12-12.3,13-12.6c1-0.3,2-0.5,3.1-0.4c1,0.1,2.2,0.6,2.5,1.6
							c-0.6-0.8-1.6-1-2.6-1c-0.9,0.1-1.8,0.4-2.7,0.8c-0.9,0.4-6.1,2.5-12.6,12.1c-2.6,3.8-8.2,14-9.3,15.9
							C55,159.7,60,149.7,62.7,145.5z"/>
					</g>
				</g>
			</g>
		</g>
		<g>
			<path fill="#00AA9E" d="M59.6,135.4H39.1c-1.1,0-2-0.9-2-2V133c0-1.1,0.9-2,2-2h20.5c1.1,0,2,0.9,2,2v0.5
				C61.6,134.5,60.7,135.4,59.6,135.4z"/>
			<path fill="#003842" d="M88.1,137.1H60.6c-1.1,0-2-0.9-2-2v-3.7c0-1.1,0.9-2,2-2h27.5c1.1,0,2,0.9,2,2v3.7
				C90.1,136.2,89.2,137.1,88.1,137.1z"/>
			<path fill="#003842" d="M13.6,137.1h27.5c1.1,0,2-0.9,2-2v-3.7c0-1.1-0.9-2-2-2H13.6c-1.1,0-2,0.9-2,2v3.7
				C11.6,136.2,12.5,137.1,13.6,137.1z"/>
		</g>
		<path fill="#A4C0CE" d="M53.2,206.2h-4.6l0-76.2c1-1.3,3.9-1.2,4.6,0L53.2,206.2z"/>
		<g>
			
				<rect x="52.8" y="166.8" transform="matrix(-1 -5.229340e-011 5.229340e-011 -1 128.9765 336.8955)" fill="#003842" width="23.4" height="3.3"/>
			<rect x="25.7" y="166.8" fill="#003842" width="23.4" height="3.3"/>
			<path fill="#00AA9E" d="M25.5,170.2c8.2,0.2,15.1,1.9,20.9,4.7l0,3.3h4.4v-9.5H25.5V170.2z"/>
			<path fill="#00AA9E" d="M76.1,170.2c-8.2,0.2-15.1,1.9-20.9,4.7l0,3.3h-4.4v-9.5h25.4V170.2z"/>
			<rect x="46.9" y="178" fill="#003842" width="7.9" height="1.9"/>
		</g>
		<g>
			<path fill="#FBB040" d="M36,127c0,0-13.5-6-14.2-2.9c-0.7,3,10.9,4.6,10.9,4.6L36,127z"/>
			<path fill="#FBB040" d="M41.5,97.3l-6.2,29.7c-3.8-1.2-11.8-0.6-14.1,2.1c-0.6,0.5-0.9,1.2-0.6,2.1c0.4,1.5,2.4,3,3.8,1.8
				c4.2-3.6,10.1-3.2,10.1-3.2s-7.1,4.3-3.5,7.2c0.9,0.7,2.9,0.7,3.7-0.4c0.3-0.4,0.4-0.7,0.6-1.1c3-5,6.8-5.7,6.8-5.7L43.3,98
				L41.5,97.3z"/>
			<path fill="#F7933D" d="M25,127c0,0,6-1.1,10.1,0.1C35,127.1,30.9,124.9,25,127z"/>
		</g>
		<g>
			<path fill="#FBB040" d="M65.6,127c0,0,13.5-6,14.2-2.9S69,128.6,69,128.6L65.6,127z"/>
			<path fill="#FBB040" d="M60,97.3l6.2,29.7c3.8-1.2,11.8-0.6,14.1,2.1c0.6,0.5,0.9,1.2,0.6,2.1c-0.4,1.5-2.4,3-3.8,1.8
				c-4.2-3.6-10.1-3.2-10.1-3.2s7.1,4.3,3.5,7.2c-0.9,0.7-2.9,0.7-3.7-0.4c-0.3-0.4-0.4-0.7-0.6-1.1c-3-5-6.8-5.7-6.8-5.7L58.2,98
				L60,97.3z"/>
			<path fill="#F7933D" d="M76.6,127c0,0-6-1.1-10.1,0.1C66.5,127.1,70.7,124.9,76.6,127z"/>
		</g>
		<polygon fill="#003842" points="54.3,212.2 47.4,212.2 46.2,202 55.5,202 		"/>
		<path fill="#CA2A2A" d="M40.4,89.4l-2.4,9.8c0,0,0.5,1.4,4,1.8c3.5,0.4,4.5-0.5,4.5-0.5l1.5-8.7c0,0-0.5-3-4.3-3.7
			C40.9,87.4,40.4,89.4,40.4,89.4z"/>
		<path fill="#CA2A2A" d="M60.6,89.3l2.5,9.7c0,0-0.4,1.4-4,1.8c-3.5,0.4-4.5-0.5-4.5-0.5L53,91.7c0,0,0.4-3,4.2-3.8
			C60.1,87.4,60.6,89.3,60.6,89.3z"/>
		<path fill="#F7933D" d="M70.9,65.4c-0.5,1.2-1.4,2.1-2.4,2.9c-1,0.8-2.1,1.5-3.2,2.1c-2.3,1.2-4.7,1.9-7.2,2.5
			c-5,1.1-10,1.6-15.1,1.6c-5.1,0-10.2-0.7-15-2.3c-2.4-0.8-4.7-2-6.9-3.4c-2.1-1.5-4-3.2-5.3-5.4c1.6,1.9,3.7,3.4,5.8,4.6
			c2.2,1.2,4.5,2.1,6.8,2.7c4.7,1.3,9.7,1.8,14.6,1.8c2.5,0,4.9-0.1,7.4-0.3c2.5-0.2,4.9-0.5,7.4-0.9c2.4-0.4,4.8-1,7.1-1.9
			c1.1-0.4,2.3-1,3.3-1.6C69.2,67.2,70.2,66.5,70.9,65.4z"/>
	</g>
	<g display="inline">
		<g>
			<path fill="#FFFFFF" d="M94.5,67.3c3.2,0,3.2-5,0-5C91.3,62.3,91.3,67.3,94.5,67.3L94.5,67.3z"/>
		</g>
	</g>
</g>
<g id="Down_Frog" display="none">
	<g display="inline">
		<circle fill="#F7933D" cx="33.5" cy="81.9" r="10"/>
		<path fill="#FCF5A3" d="M29.8,72.7c-3.7,1.5-6.3,5.1-6.3,9.3c0,4.2,2.6,7.8,6.3,9.3c3.5-1.5,6-5.1,6-9.3
			C35.8,77.7,33.3,74.2,29.8,72.7z"/>
		<ellipse fill="#02585F" cx="30.2" cy="82" rx="5.2" ry="5.4"/>
		<ellipse fill="#FCF5A3" cx="33.9" cy="81.3" rx="1.9" ry="2"/>
	</g>
	<path display="inline" fill="#F7933D" d="M86.8,89.8c1.8,2.8-4.9,8.3-8.3,8.3c-3.3,0-6-2.7-6-6s-0.1-5.5,3.3-5.5
		C79.1,86.5,85.1,87,86.8,89.8z"/>
	<path display="inline" fill="#F7933D" d="M91,98.1c2,3-5.7,9.1-9.5,9.1c-3.8,0-6.9-3-6.9-6.7c0-3.7-0.1-6.1,3.8-6.1
		C82.1,94.5,89,95.1,91,98.1z"/>
	<path display="inline" fill="#F7933D" d="M88.5,108c1.8,2.8-4.9,8.3-8.3,8.3c-3.3,0-6-2.7-6-6s-0.1-5.5,3.3-5.5
		C80.9,104.8,86.8,105.3,88.5,108z"/>
	<path display="inline" fill="#FBB040" d="M68.9,139.2c7.9-8.8,13.1-23,13.1-33c0-15.6-12.6-28.2-28.2-28.2
		c-15.6,0-28.2,12.6-28.2,28.2c0,10,1.6,23.8,5,33H68.9z"/>
	<g display="inline">
		<g>
			<g>
				<path fill="#67CCE6" d="M26.7,133.3c13.8-5.6,21.5-1.8,21.5-1.8l2.3,7.5c-8.8,12.5-20.8,14.9-28.9,14.3
					c-2.1-2.9-4.8-7.7-6.5-13.9C17.9,137.5,21.7,135.3,26.7,133.3z"/>
				<path fill="#F7933D" d="M21.5,153.3c-5.9-0.5-10.1-2.3-10.1-2.3l-4.2-6c0,0,2.7-2.2,7.7-5.6C16.7,145.6,19.5,150.3,21.5,153.3z"
					/>
			</g>
			<path fill="#F7933D" d="M37.3,162.9c0,0-23.6-23-30.2-17.9c-3.5,2.7-4.2,6.6-2.5,10.3c2.1,4.8,25.5,11.5,31.8,13.9
				c3,1.2,5.6,3.3,5.8,3.4c2.3,0.2,4.1-0.2,4.4-1.9L37.3,162.9z"/>
			<path fill="#F7933D" d="M42.2,168c0.1,0.1,2.9,3.5,1.4,3.9c-1.1,0.3-20.6,3.1-27.7-6.7c-12.9,0-13.1,10.4-13.1,10.4h49.5
				l-2.1-2.7L42.2,168z"/>
			<path fill="#D47433" d="M3.5,172.8c2.8,0.5,6.3,0.5,8.6-1.9c1.8-1.9,1.9-3.8,1.5-5.5C6.9,166.2,4.4,170,3.5,172.8z"/>
			<path fill="#D47433" d="M38.4,163.3c-3-2.6-6.1-5.1-9.4-7.5c-3.3-2.3-6.6-4.6-10.3-6.3c-0.5-0.2-1-0.4-1.5-0.6
				c-0.3-0.1-0.5-0.2-0.8-0.2c-0.1,0-0.3-0.1-0.4-0.1c-0.1,0-0.3-0.1-0.4-0.1c-1-0.2-2.1-0.2-3.1-0.2c-1,0-2.1,0.2-3.1,0.7
				c-1,0.4-1.8,1.3-1.8,2.4c0.3-1,1.2-1.5,2.1-1.8c0.9-0.3,1.9-0.2,2.8-0.2c1,0.1,1.9,0.3,2.8,0.5l0.3,0.1c0.1,0,0.2,0.1,0.3,0.1
				c0.2,0.1,0.4,0.1,0.6,0.2c0.4,0.2,0.9,0.4,1.3,0.6c3.4,1.8,6.7,4.1,9.9,6.4c5.4,3.9,18.7,13.2,18.7,13.2
				C44.5,168.6,40.7,165.2,38.4,163.3z"/>
		</g>
		<g>
			<g>
				<path fill="#67CCE6" d="M75.1,133.3c-13.8-5.6-21.5-1.8-21.5-1.8l-2.3,7.5c8.8,12.5,20.8,14.9,28.9,14.3
					c2.1-2.9,4.8-7.7,6.5-13.9C83.9,137.5,80.1,135.3,75.1,133.3z"/>
				<path fill="#F7933D" d="M80.2,153.3c5.9-0.5,10.1-2.3,10.1-2.3l4.2-6c0,0-2.7-2.2-7.7-5.6C85,145.6,82.3,150.3,80.2,153.3z"/>
			</g>
			<path fill="#F7933D" d="M64.4,162.9c0,0,23.6-23,30.2-17.9c3.5,2.7,4.2,6.6,2.5,10.3c-2.1,4.8-25.5,11.5-31.8,13.9
				c-3,1.2-5.6,3.3-5.8,3.4c-2.3,0.2-4.1-0.2-4.4-1.9L64.4,162.9z"/>
			<path fill="#F7933D" d="M59.5,168c-0.1,0.1-2.9,3.5-1.4,3.9c1.1,0.3,20.6,3.1,27.7-6.7c12.9,0,13.1,10.4,13.1,10.4H49.3l2.1-2.7
				L59.5,168z"/>
			<path fill="#D47433" d="M98.3,172.8c-2.8,0.5-6.3,0.5-8.6-1.9c-1.8-1.9-1.9-3.8-1.5-5.5C94.8,166.2,97.3,170,98.3,172.8z"/>
			<path fill="#D47433" d="M63.3,163.3c3-2.6,6.1-5.1,9.4-7.5c3.3-2.3,6.6-4.6,10.3-6.3c0.5-0.2,1-0.4,1.5-0.6
				c0.3-0.1,0.5-0.2,0.8-0.2c0.1,0,0.3-0.1,0.4-0.1c0.1,0,0.3-0.1,0.4-0.1c1-0.2,2.1-0.2,3.1-0.2c1,0,2.1,0.2,3.1,0.7
				c1,0.4,1.8,1.3,1.8,2.4c-0.3-1-1.2-1.5-2.1-1.8c-0.9-0.3-1.9-0.2-2.8-0.2c-1,0.1-1.9,0.3-2.8,0.5l-0.3,0.1
				c-0.1,0-0.2,0.1-0.3,0.1c-0.2,0.1-0.4,0.1-0.6,0.2c-0.4,0.2-0.9,0.4-1.3,0.6c-3.4,1.8-6.7,4.1-9.9,6.4
				c-5.4,3.9-18.7,13.2-18.7,13.2C57.2,168.6,61.1,165.2,63.3,163.3z"/>
		</g>
	</g>
	<g display="inline">
		<path fill="#00AA9E" d="M59.6,156.3H39.1c-1.1,0-2-0.9-2-2v-0.5c0-1.1,0.9-2,2-2h20.5c1.1,0,2,0.9,2,2v0.5
			C61.6,155.4,60.7,156.3,59.6,156.3z"/>
		<path fill="#003842" d="M88.1,157.9H60.6c-1.1,0-2-0.9-2-2v-3.7c0-1.1,0.9-2,2-2h27.5c1.1,0,2,0.9,2,2v3.7
			C90.1,157,89.2,157.9,88.1,157.9z"/>
		<path fill="#003842" d="M13.6,157.9h27.5c1.1,0,2-0.9,2-2v-3.7c0-1.1-0.9-2-2-2H13.6c-1.1,0-2,0.9-2,2v3.7
			C11.6,157,12.5,157.9,13.6,157.9z"/>
	</g>
	<path display="inline" fill="#F7933D" d="M44.9,171l-0.9-0.1c0.9,0.9,1.7,1.9,2.6,2.8C46.1,172.7,45.5,171.8,44.9,171z"/>
	<path display="inline" fill="#E6F3EC" d="M33.7,98.8c0,0,1.3-7.6,4.2-7.4c2.9,0.2,4,0.5,6.1,1.6c2.2,1.1-1.4,8.7-1.4,8.7L33.7,98.8
		z"/>
	<path display="inline" fill="#E6F3EC" d="M46.9,100.4c0,0-0.5-5,1.4-5.4c1.9-0.4,2.6-0.3,4.2,0c1.6,0.3,0.6,5.7,0.6,5.7L46.9,100.4
		z"/>
	<path display="inline" fill="#FBB040" d="M70.9,89.3c0,0-2.3,5.3-15.7,7.2c-31.3,4.5-39.4-9.2-39.4-9.2s-2.3,5.6,1.1,20.1
		c3.4,14.5,13.7,31.8,13.7,31.8l41.7-35.4L70.9,89.3z"/>
	
		<ellipse transform="matrix(0.9723 -0.2338 0.2338 0.9723 -17.6519 13.7366)" display="inline" fill="#F7933D" cx="49.1" cy="81.3" rx="2.4" ry="1.1"/>
	
		<ellipse transform="matrix(0.9723 -0.2338 0.2338 0.9723 -17.7265 14.9241)" display="inline" fill="#F7933D" cx="54.1" cy="82.2" rx="1.5" ry="0.7"/>
	
		<ellipse transform="matrix(0.9723 -0.2338 0.2338 0.9723 -18.0741 12.3526)" display="inline" fill="#F7933D" cx="43.1" cy="82.4" rx="1.5" ry="0.7"/>
	<path display="inline" fill="#67CCE6" d="M22.3,122.8c4,9.1,8.3,16.4,8.3,16.4h38.3c4-4.5,7.3-10.4,9.6-16.4H22.3z"/>
	<path display="inline" fill="#E6F3EC" d="M17,108c1.6,6.5,3.4,11.3,6.1,17.1l54.7-0.6c3.3-7,4.1-12.2,4.1-18.3c0,0,0,0,0-0.1
		c-3.4,1.9-14.5,7.2-33.4,7.2C31.8,113.2,21.5,109.9,17,108z"/>
	<path display="inline" fill="#CA2A2A" d="M48.5,116.6c16.4,0,27.4-3.3,33.1-5.6c0.2-1.7,0.4-3.3,0.4-4.8c0,0,0,0,0-0.1
		c-3.4,1.9-14.5,7.2-33.4,7.2c-16.8,0-27.1-3.4-31.6-5.2c0.4,1.6,0.9,3.2,1.4,4.8C24.5,114.6,34.4,116.6,48.5,116.6z"/>
	<path display="inline" fill="#FBB040" d="M41.5,118.1l-6.2,29.2c0,0-13.5-6-14.2-2.9c-0.7,3,10.9,4.6,10.9,4.6s-12.7-1.7-11.3,3.1
		c1.4,4.8,14-1.5,14-1.5s-7.1,4.3-3.5,7.2c0.9,0.7,2.9,0.7,3.7-0.4c0.3-0.4,0.4-0.7,0.6-1.1c3-5,6.8-5.7,6.8-5.7l1.2-31.6
		L41.5,118.1z"/>
	<path display="inline" fill="#FBB040" d="M60.4,118l6.2,29.2c0,0,13.5-6,14.2-2.9c0.7,3-10.9,4.6-10.9,4.6s12.7-1.7,11.3,3.1
		c-1.4,4.8-14-1.5-14-1.5s7.1,4.3,3.5,7.2c-0.9,0.7-2.9,0.7-3.7-0.4c-0.3-0.4-0.4-0.7-0.6-1.1c-3-5-6.8-5.7-6.8-5.7l-1.2-31.6
		L60.4,118z"/>
	<path display="inline" fill="#CA2A2A" d="M38.6,116.3l-1,10c0,0,0.7,1.3,4.2,1.2c3.6-0.1,4.4-1.2,4.4-1.2l0.2-8.8
		c0,0-0.9-2.9-4.8-3.1C38.9,114.3,38.6,116.3,38.6,116.3z"/>
	<path display="inline" fill="#CA2A2A" d="M62.8,115.5l1.9,9.9c0,0-0.5,1.4-4.1,1.6c-3.6,0.2-4.5-0.7-4.5-0.7l-1.1-8.7
		c0,0,0.6-3,4.4-3.6C62.3,113.5,62.8,115.5,62.8,115.5z"/>
	<path display="inline" fill="#A4C0CE" d="M53.2,205.4h-4.6l0-54.6c1-1.1,3.9-1.1,4.6,0L53.2,205.4z"/>
	<polygon display="inline" fill="#003842" points="54.3,212.3 47.4,212.3 46.2,202.2 55.5,202.2 	"/>
	<g display="inline">
		
			<rect x="52.8" y="175.7" transform="matrix(-1 -5.244883e-011 5.244883e-011 -1 128.9765 354.6259)" fill="#003842" width="23.4" height="3.3"/>
		<rect x="25.7" y="175.7" fill="#003842" width="23.4" height="3.3"/>
		<path fill="#00AA9E" d="M25.5,179c8.2,0.2,15.1,1.9,20.9,4.7l0,3.3h4.4v-9.5H25.5V179z"/>
		<path fill="#00AA9E" d="M76.1,179c-8.2,0.2-15.1,1.9-20.9,4.7l0,3.3h-4.4v-9.5h25.4V179z"/>
		<rect x="46.9" y="186.8" fill="#003842" width="7.9" height="1.9"/>
	</g>
	<path display="inline" fill="#F7933D" d="M70.9,89.3c-0.5,1.2-1.4,2.1-2.4,2.9c-1,0.8-2.1,1.5-3.2,2.1c-2.3,1.2-4.7,1.9-7.2,2.5
		c-5,1.1-10,1.6-15.1,1.6c-5.1,0-10.2-0.7-15-2.3c-2.4-0.8-4.7-2-6.9-3.4c-2.1-1.5-4-3.2-5.3-5.4c1.6,1.9,3.7,3.4,5.8,4.6
		c2.2,1.2,4.5,2.1,6.8,2.7c4.7,1.3,9.7,1.8,14.6,1.8c2.5,0,4.9-0.1,7.4-0.3c2.5-0.2,4.9-0.5,7.4-0.9c2.4-0.4,4.8-1,7.1-1.9
		c1.1-0.4,2.3-1,3.3-1.6C69.2,91.1,70.2,90.3,70.9,89.3z"/>
	<g display="inline">
		<g>
			<path fill="#CA2A2A" d="M51.6,77.1c0,0,0.3-9.8,7.4-11.9c7.1-2.1,13.2,12,13.2,12l-15,3L51.6,77.1z"/>
			<path fill="#67CCE6" d="M61.3,67.8c-0.7-1.1-1.5-1.9-2.3-2.5c-5.1,1.5-6.7,7.1-7.1,10c-0.2,1.1-0.6,4.2-0.6,4.2l6.3,0.8l6-0.7
				C63.5,75.6,63.1,70.4,61.3,67.8z"/>
		</g>
		<path fill="#CA2A2A" d="M40,71.9c0,0-1.2,4.4,5.6,7.4c6.8,3,14.4,0.7,14.4,0.7l1.8-2.9L40,71.9z"/>
	</g>
	<g display="inline">
		<circle fill="#FBB040" cx="68.1" cy="82.6" r="11.2"/>
		<path fill="#FCF5A3" d="M71.6,71.9c-0.1,0-0.1,0-0.2,0c-5.7,0-10.3,4.5-10.3,10.1c0,5.6,4.6,10.2,10.3,10.2c1.2,0,2.3-0.2,3.4-0.6
			c2.8-2,4.6-5.3,4.6-9C79.4,77.6,76.1,73.4,71.6,71.9z"/>
		<ellipse fill="#02585F" cx="70" cy="82" rx="5.2" ry="5.4"/>
		<ellipse fill="#FCF5A3" cx="73.8" cy="81.5" rx="1.9" ry="2"/>
	</g>
	
		<ellipse transform="matrix(0.2721 -0.9623 0.9623 0.2721 -36.5134 131.7438)" display="inline" fill="#FBB040" cx="68.8" cy="90" rx="6.9" ry="9.9"/>
</g>
</svg>
