<svg version="1.1" id="Layer_1" xmlns="http://www.w3.org/2000/svg" xmlns:xlink="http://www.w3.org/1999/xlink" x="0px" y="0px" viewBox="0 0 20 37" style="enable-background:new 0 0 20 37;" xml:space="preserve" width="20" height="37" preserveAspectRatio="none"><style type="text/css">
	.st0{fill:#66C9A2;}
	.st1{fill:#BD5608;}
	.st2{fill:#0071BC;}
	.st3{fill:#0E917D;}
	.st4{fill:none;}
	.st5{fill:#2084F7;}
	.st6{fill:#B456F7;}
	.st7{fill:#CB82FF;}
	.st8{fill:#F79C56;}
	.st9{fill:#D44E4E;}
	.st10{fill:none;stroke:#000000;stroke-width:0.962;stroke-miterlimit:10;}
</style><g><path class="st0" d="M16.3,19.1c0-0.8-0.1-1.9,0.3-3c1-3.4,4.9-11.6,1.5-12.3c-4.4-0.9-2.9,11.3-5.7,10.9C9.9,14.3,11.5,2,7.5,2.1
		C2.9,2.2,8.9,14.2,7.2,14.7c-0.4,0.1-1-0.2-1.3-0.3c-1.4-0.4-2.4,0.3-3,1.5c-0.1,0.5-0.1,1.1-0.4,1.2c-0.8,0.4-2,0.2-1.8,3
		c-0.2,2.3,1.4,7.2,2.6,8.4c0.3,0.2,0.6,0.4,1.1,0.5c0.3,1.9,0.5,4.8-0.2,7.6l7.8,0c0,0,0.2-6.2,2.4-9.6c0.5-0.8,0.9-1.5,2.2-3.2
		C17.8,22,18.5,19,16.3,19.1z" /><g><path class="st3" d="M15.7,17.2c-1.4-0.2-2.8-0.3-4.1-0.4c-1.4-0.1-2.7-0.1-4.1,0c1.3-0.7,2.8-0.9,4.2-0.8
			C13,16.2,14.5,16.5,15.7,17.2z" /></g><g><path class="st3" d="M13.2,21.3c-0.9,0.7-1.6,1.4-2.1,2.2c-0.6,0.8-0.9,1.8-1.2,2.9c-0.3-1.1-0.1-2.3,0.6-3.3
			C11.1,22.2,12.1,21.5,13.2,21.3z" /></g><g><path class="st3" d="M4.1,28.8c0.5,0.2,1,0.3,1.5,0.3c0.5,0.1,1,0.1,1.6,0.2c-0.3,0.2-0.5,0.2-0.8,0.3c-0.3,0.1-0.6,0.1-0.9,0
			c-0.3,0-0.6-0.1-0.8-0.3C4.5,29.3,4.3,29.1,4.1,28.8z" /></g><g><path class="st3" d="M12.8,22.4c0,0.2,0.2,0.2,0.3,0.3l0.4,0.3c0.1,0.1,0.3,0.2,0.4,0.3c0.1,0.1,0.3,0.2,0.4,0.4
			c-0.4,0-0.7-0.1-1-0.3c-0.1-0.1-0.3-0.2-0.4-0.4c0-0.1-0.1-0.2-0.1-0.3C12.6,22.6,12.7,22.4,12.8,22.4z" /></g><g><path class="st0" d="M4,17.2c0,0,4,4.4,2.4,5.8c-2.6,2.4-5.8-3.7-5.8-3.7" /><path class="st3" d="M4,17.2C5,18,5.8,19,6.4,20c0.3,0.5,0.6,1.1,0.7,1.8c0,0.3,0,0.7-0.2,1.1c-0.2,0.4-0.5,0.6-0.8,0.7
			c-0.6,0.4-1.5,0.3-2.1,0C3.5,23.4,3,23,2.5,22.5c-0.8-0.9-1.5-2-1.9-3.2c0.7,1,1.5,1.9,2.3,2.8c0.8,0.8,1.9,1.5,2.8,1
			c0.5-0.3,0.7-0.6,0.7-1.1c0-0.5-0.3-1.1-0.5-1.6C5.4,19.2,4.7,18.2,4,17.2z" /></g><g><path class="st0" d="M7.5,15.6c2.5,2,4.2,5.3,2.3,6.3c-2.3,1.3-4.3-2-6.2-4.9" /><path class="st3" d="M7.5,15.6c1.2,0.7,2.2,1.8,2.9,3c0.3,0.6,0.6,1.3,0.6,2.1c0,0.4-0.2,0.8-0.5,1.1c-0.3,0.3-0.7,0.5-1,0.6
			c-0.8,0.3-1.6,0-2.2-0.4c-0.6-0.4-1.1-1-1.5-1.5c-0.8-1.1-1.5-2.3-2.1-3.5c0.9,1.1,1.7,2.2,2.6,3.2c0.5,0.5,0.9,1,1.5,1.3
			c0.5,0.3,1.1,0.5,1.6,0.3c0.6-0.2,1-0.5,1-1.1c0.1-0.6-0.1-1.2-0.4-1.8C9.3,17.7,8.5,16.6,7.5,15.6z" /></g><g><path class="st0" d="M16.2,19c-3.2,0.5-7.3-0.2-9.1-0.4c-3.1-0.5-1,3.2,1.5,3.7c2.5,0.5,5.3-0.2,5.3-0.2" /><path class="st3" d="M16.2,19c-1.7,0.4-3.5,0.4-5.3,0.3c-0.9-0.1-1.8-0.1-2.6-0.2c-0.8-0.1-1.9-0.4-2.3,0c-0.1,0.1-0.1,0.5,0,0.8
			c0.2,0.3,0.4,0.7,0.7,1c0.6,0.6,1.3,1.1,2,1.2c0.8,0.2,1.7,0.3,2.5,0.3c0.9,0,1.7-0.1,2.6-0.2c-1.7,0.5-3.5,0.8-5.3,0.5
			c-0.9-0.1-1.8-0.6-2.5-1.3c-0.3-0.3-0.6-0.7-0.8-1.2c-0.1-0.2-0.2-0.5-0.2-0.8c0-0.3,0.1-0.6,0.3-0.9c0.5-0.4,1.1-0.4,1.6-0.3
			l1.3,0.2c0.9,0.1,1.7,0.3,2.6,0.4C12.7,19,14.4,19.2,16.2,19z" /></g></g></svg>