<svg version="1.1" id="Layer_1" xmlns="http://www.w3.org/2000/svg" xmlns:xlink="http://www.w3.org/1999/xlink" x="0px" y="0px" viewBox="0 0 25 37" style="enable-background:new 0 0 25 37;" xml:space="preserve" width="25" height="37" preserveAspectRatio="none"><style type="text/css">
	.st0{fill:#5C67E6;}
	.st1{fill:#BD5608;}
	.st2{fill:#0071BC;}
	.st3{fill:#3940A6;}
	.st4{fill:none;}
	.st5{fill:#2084F7;}
	.st6{fill:#B456F7;}
	.st7{fill:#CB82FF;}
	.st8{fill:#F79C56;}
	.st9{fill:#D44E4E;}
	.st10{fill:none;stroke:#000000;stroke-width:0.962;stroke-miterlimit:10;}
</style><g><path class="st0" d="M15.7,21.9c0-0.8,0.5-4.7,0.8-5.9c1-3.4,4.9-11.6,1.5-12.3c-4.4-0.9-2.9,11.3-5.7,10.9C10,14.3,11.5,1.9,7.6,2
		C2.9,2.2,8.9,14.1,7.2,14.6c-0.4,0.1-1-0.2-1.3-0.3c-1.4-0.4-2.4,0.3-3,1.5c-0.1,0.5-0.1,1.1-0.4,1.2c-0.8,0.4-2,0.2-1.8,3
		c-0.2,2.3,1.4,7.2,2.6,8.4c0.3,0.2,0.6,0.4,1.1,0.5c0.3,1.9,0.5,4.8-0.2,7.6l7.8,0c0,0,0.2-6.2,2.4-9.6C15,26,15.5,26.1,15.7,21.9z
		" /><path class="st0" d="M15.4,20.9l-1.1,6.1c2.3-2.3,6-3.7,8.6-4.4C26.8,21.4,21.8,16.8,15.4,20.9z" /><path class="st0" d="M3.9,26.7c0,0,1.4,5,0.2,9.8h7.8c0,0,0.3-7.9,3.4-10.8L3.9,26.7z" /><g><path class="st3" d="M4.2,28.5c0.5,0.3,1,0.4,1.5,0.5c0.5,0.1,1,0.2,1.6,0.4c-0.3,0.1-0.5,0.2-0.8,0.2c-0.3,0-0.6,0-0.9-0.1
			c-0.3-0.1-0.6-0.2-0.8-0.4C4.6,29,4.3,28.8,4.2,28.5z" /></g><path class="st0" d="M12.4,15.5c-0.1-0.2-5-0.9-5.2-0.8c-0.4,0.1-0.7-0.2-1.3-0.3c-1.2-0.3-2.7,0.4-3,1.5c-0.1,0.5-0.1,1.1-0.4,1.2
		c-0.8,0.4-2,0.2-1.8,3c-0.2,2.3,1.4,7.2,2.6,8.4c0.3,0.2,0.6,0.4,1.1,0.5c0.3,1.9,0.5,4.8-0.2,7.6l7.8,0c0,0,0.2-6.2,2.4-9.6
		C14.8,26.3,13.1,16.5,12.4,15.5z" /><g><path class="st3" d="M4.2,28.8c0.5,0.2,1,0.3,1.5,0.3c0.5,0.1,1,0.1,1.6,0.2c-0.3,0.2-0.5,0.2-0.8,0.3c-0.3,0.1-0.6,0.1-0.9,0
			c-0.3,0-0.6-0.1-0.8-0.3C4.6,29.3,4.3,29.1,4.2,28.8z" /></g><g><path class="st3" d="M15.2,20.8c-0.7,0.2-1.3,0.5-1.9,0.8c-0.6,0.3-1.2,0.7-1.6,1.2c-0.5,0.5-0.9,1-1.1,1.6
			c-0.3,0.6-0.5,1.3-0.7,2c-0.1-0.7-0.1-1.5,0.1-2.2c0.2-0.7,0.6-1.4,1.2-1.9C12.2,21.1,13.8,20.6,15.2,20.8z" /></g><g><path class="st3" d="M14.9,17.4c-1.4-0.2-2.8-0.3-4.1-0.4c-1.4-0.1-2.7-0.1-4.1,0c1.3-0.7,2.8-0.9,4.2-0.8
			C12.3,16.4,13.7,16.7,14.9,17.4z" /></g><g><path class="st0" d="M4.3,17.6c0,0,3.1,4.8,1.4,5.9c-3,2-4.6-3.8-4.6-3.8" /><path class="st3" d="M4.3,17.6c0.7,0.9,1.3,1.8,1.8,2.9c0.2,0.5,0.4,1.1,0.5,1.7c0,0.3,0,0.7-0.2,1c-0.1,0.3-0.5,0.6-0.7,0.7
			c-0.5,0.3-1.3,0.4-1.9,0.2c-0.6-0.2-1.1-0.7-1.4-1.2c-0.7-1-1-2.1-1.2-3.2c0.5,1,1,2,1.7,2.8c0.3,0.4,0.7,0.8,1.2,0.9
			c0.4,0.2,0.9,0.1,1.3-0.1c0.9-0.3,0.6-1.6,0.3-2.6C5.3,19.6,4.8,18.6,4.3,17.6z" /></g><g><path class="st0" d="M8.3,15.8c2.1,2.4,2.7,5.8,0.7,6.5c-2.5,0.9-2.4-1.9-5.3-5.8" /><path class="st3" d="M8.3,15.8c1,0.9,1.8,2.1,2.1,3.5c0.2,0.7,0.2,1.4-0.1,2.2c-0.1,0.4-0.4,0.7-0.7,0.9c-0.4,0.2-0.7,0.3-1.1,0.4
			c-0.4,0.1-0.8,0-1.2-0.2c-0.4-0.2-0.6-0.5-0.8-0.8c-0.4-0.6-0.7-1.2-1-1.8c-0.6-1.2-1.2-2.4-1.9-3.6c0.9,1,1.7,2.1,2.4,3.3
			c0.4,0.6,0.7,1.2,1,1.7c0.4,0.5,0.8,0.8,1.4,0.7C9,22,9.5,21.7,9.7,21.2c0.2-0.5,0.2-1.2,0.1-1.8C9.6,18.1,9.1,16.9,8.3,15.8z" /></g></g></svg>