<svg version="1.1" id="Layer_1" xmlns="http://www.w3.org/2000/svg" xmlns:xlink="http://www.w3.org/1999/xlink" x="0px" y="0px" viewBox="0 0 18 37" style="enable-background:new 0 0 18 37;" xml:space="preserve" width="18" height="37" preserveAspectRatio="none"><style type="text/css">
	.st0{fill:#FFF68C;}
	.st1{fill:#BD5608;}
	.st2{fill:#0071BC;}
	.st3{fill:#F2C41C;}
	.st4{fill:none;}
	.st5{fill:#2084F7;}
	.st6{fill:#B456F7;}
	.st7{fill:#CB82FF;}
	.st8{fill:#F79C56;}
	.st9{fill:#D44E4E;}
	.st10{fill:none;stroke:#000000;stroke-width:0.962;stroke-miterlimit:10;}
</style><g><path class="st0" d="M16.1,19.1c0-0.8,0.1-1.7,0.1-2.9c0.2-4.2,1.7-12.1-1.9-12.2c-3.8-0.1-0.8,10.6-2.2,10.7
		c-0.3,0-0.2,0.1-0.7-0.6c-0.5-0.7-2-1.3-3.4-0.3c-0.3,0.2-0.8,0.8-1,0.9c-0.4,0.1-0.7-0.2-1.3-0.3c-1.2-0.3-2.7,0.4-3,1.5
		c-0.1,0.5-0.1,1.1-0.4,1.2c-0.8,0.4-2,0.2-1.8,3c-0.2,2.3,1.4,7.2,2.6,8.4c0.3,0.2,0.6,0.4,1.1,0.5c0.3,1.9,0.5,4.8-0.2,7.6l7.8,0
		c0,0,0.2-6.2,2.4-9.6c0.5-0.8,0.9-1.5,2.2-3.2C17.6,22,18.3,19,16.1,19.1z" /><g><path class="st3" d="M15.5,17.2c-1.4-0.2-2.8-0.3-4.1-0.4c-1.4-0.1-2.7-0.1-4.1,0c1.3-0.7,2.8-0.9,4.2-0.8
			C12.9,16.2,14.3,16.5,15.5,17.2z" /></g><g><path class="st3" d="M13.1,21.3c-0.9,0.7-1.6,1.4-2.1,2.2c-0.6,0.8-0.9,1.8-1.2,2.9c-0.3-1.1-0.1-2.3,0.6-3.3
			C10.9,22.2,12,21.5,13.1,21.3z" /></g><g><path class="st3" d="M4,28.8c0.5,0.2,1,0.3,1.5,0.3c0.5,0.1,1,0.1,1.6,0.2c-0.3,0.2-0.5,0.2-0.8,0.3c-0.3,0.1-0.6,0.1-0.9,0
			c-0.3,0-0.6-0.1-0.8-0.3C4.4,29.3,4.1,29.1,4,28.8z" /></g><g><path class="st3" d="M12.6,22.4c0,0.2,0.2,0.2,0.3,0.3l0.4,0.3c0.1,0.1,0.3,0.2,0.4,0.3c0.1,0.1,0.3,0.2,0.4,0.4
			c-0.4,0-0.7-0.1-1-0.3c-0.1-0.1-0.3-0.2-0.4-0.4c0-0.1-0.1-0.2-0.1-0.3C12.5,22.6,12.5,22.4,12.6,22.4z" /></g><g><path class="st0" d="M3.9,17.2c0,0,4,4.4,2.4,5.8c-2.6,2.4-5.8-3.7-5.8-3.7" /><path class="st3" d="M3.9,17.2C4.8,18,5.6,19,6.3,20c0.3,0.5,0.6,1.1,0.7,1.8c0,0.3,0,0.7-0.2,1.1c-0.2,0.4-0.5,0.6-0.8,0.7
			c-0.6,0.4-1.5,0.3-2.1,0c-0.6-0.3-1.1-0.7-1.5-1.2c-0.8-0.9-1.5-2-1.9-3.2c0.7,1,1.5,1.9,2.3,2.8c0.8,0.8,1.9,1.5,2.8,1
			c0.5-0.3,0.7-0.6,0.7-1.1c0-0.5-0.3-1.1-0.5-1.6C5.2,19.2,4.6,18.2,3.9,17.2z" /></g><g><path class="st0" d="M7.9,15.9c2.5,2,3.7,5,1.8,6c-2.3,1.3-4.3-2-6.2-4.9" /><path class="st3" d="M7.9,15.9c1.1,0.7,2.1,1.7,2.7,3c0.3,0.6,0.5,1.4,0.3,2.2c-0.1,0.4-0.4,0.7-0.7,1c-0.3,0.2-0.7,0.4-1.1,0.5
			C8.3,22.7,7.5,22.4,7,22c-0.6-0.4-1-1-1.4-1.5c-0.8-1.1-1.5-2.3-2.1-3.4c0.9,1,1.6,2.1,2.5,3.1c0.4,0.5,0.9,0.9,1.4,1.3
			c0.5,0.3,1.1,0.5,1.6,0.4c0.5-0.1,1-0.5,1.2-1c0.2-0.5,0.1-1.1-0.1-1.7C9.6,17.9,8.8,16.9,7.9,15.9z" /></g><g><path class="st0" d="M12.1,15c1.6,2.6,2.5,5.2,0.5,5.9c-2.5,0.8-3.8-3.7-5.1-5.6" /><path class="st3" d="M12.1,15c0.8,1,1.5,2.1,1.8,3.3c0.2,0.6,0.3,1.4-0.1,2.1c-0.2,0.3-0.5,0.6-0.9,0.7c-0.3,0.1-0.7,0.2-1.1,0.2
			c-0.8-0.1-1.4-0.5-1.8-1c-0.4-0.5-0.8-1.1-1-1.6c-0.6-1.1-1-2.3-1.5-3.4c0.8,1,1.4,2.1,2,3.2c0.3,0.5,0.7,1,1.1,1.4
			c0.4,0.4,0.9,0.7,1.4,0.8c0.5,0,1.1-0.2,1.3-0.6c0.3-0.4,0.3-1,0.2-1.6c-0.1-0.6-0.3-1.2-0.5-1.7C12.6,16.1,12.3,15.5,12.1,15z" /></g><g><path class="st0" d="M16,19c-3.2,0.5-7.3-0.2-9.1-0.4c-3.1-0.5-1,3.2,1.5,3.7c2.5,0.5,5.3-0.2,5.3-0.2" /><path class="st3" d="M16,19c-1.7,0.4-3.5,0.4-5.3,0.3c-0.9-0.1-1.8-0.1-2.6-0.2c-0.8-0.1-1.9-0.4-2.3,0c-0.1,0.1-0.1,0.5,0,0.8
			c0.2,0.3,0.4,0.7,0.7,1c0.6,0.6,1.3,1.1,2,1.2c0.8,0.2,1.7,0.3,2.5,0.3c0.9,0,1.7-0.1,2.6-0.2c-1.7,0.5-3.5,0.8-5.3,0.5
			C7.6,22.5,6.7,22,6,21.4c-0.3-0.3-0.6-0.7-0.8-1.2C5.1,20,5,19.7,5,19.4c0-0.3,0.1-0.6,0.3-0.9c0.5-0.4,1.1-0.4,1.6-0.3l1.3,0.2
			c0.9,0.1,1.7,0.3,2.6,0.4C12.5,19,14.2,19.2,16,19z" /></g></g></svg>