<?xml version="1.0" encoding="utf-8"?>
<!-- Generator: Adobe Illustrator 20.1.0, SVG Export Plug-In . SVG Version: 6.00 Build 0)  -->
<!DOCTYPE svg PUBLIC "-//W3C//DTD SVG 1.1//EN" "http://www.w3.org/Graphics/SVG/1.1/DTD/svg11.dtd">
<svg version="1.1" xmlns="http://www.w3.org/2000/svg" xmlns:xlink="http://www.w3.org/1999/xlink" x="0px" y="0px"
	 viewBox="0 0 40 40" enable-background="new 0 0 40 40" xml:space="preserve" width="40" height="40" preserveAspectRatio="none">
<g id="BG" display="none">
</g>
<g id="warren">
</g>
<g id="Kraken_Tusks">
</g>
<g id="Kraken_x27_s_Snout">
</g>
<g id="Layer_1">
</g>
<g id="Header_Buttons">
	<path fill="#FFFFFF" d="M34.5,4.6L22,1.5L9.5,4l-9,14.9l5.7,16.8l14.4,2.6l12.2-3.1l7-16L34.5,4.6z"/>
	<polygon fill="#2E3192" points="20.6,17.7 21.3,3.1 11.2,5.1 7.9,9.7 	"/>
	<polygon fill="#ED1C24" points="22.7,17.9 35.8,11.4 33.2,5.9 23.6,3 	"/>
	<polygon fill="#F15A29" points="23.6,19.6 34.9,27.4 38.4,19 36.1,13.3 	"/>
	<polygon fill="#FFF200" points="22.4,21.2 21.5,36.5 31.6,33.8 34.3,28.8 	"/>
	<polygon fill="#00A651" points="20.4,21.2 5.3,28.9 7.4,34.2 19.7,36.5 	"/>
	<polygon fill="#00AEEF" points="19.5,19.4 6.9,11.4 2.7,19.1 4.7,26.7 	"/>
</g>
</svg>
