<svg xmlns="http://www.w3.org/2000/svg" viewBox="0 0 40 40" width="40" height="40" preserveAspectRatio="none"><defs><style>.cls-1{fill:#ffffff;}</style></defs><g id="Layer_1" data-name="Layer 1"><path class="cls-1" d="M35.37,14.89l-8.5-1.42-3.08-5H15.54l-2.84,5L4.21,14.89,2.79,31.18h34.7ZM25.62,27.14c-2.94,3.14-8,2.6-11.1-.35s-2.83-8.18.12-11.33,8-2.41,11.14.54S28.57,24,25.62,27.14Z"/><path class="cls-1" d="M16.28,17.22c-2.07,2.2-2.29,5.88-.09,8s5.73,2.45,7.8.24,2.31-5.75.11-7.82S18.35,15,16.28,17.22Z"/><polygon class="cls-1" points="4.97 14.06 10.36 13.28 9.64 11.26 5.52 11.65 4.97 14.06"/></g></svg>