<?xml version="1.0" encoding="utf-8"?>
<!-- Generator: Adobe Illustrator 20.1.0, SVG Export Plug-In . SVG Version: 6.00 Build 0)  -->
<!DOCTYPE svg PUBLIC "-//W3C//DTD SVG 1.1//EN" "http://www.w3.org/Graphics/SVG/1.1/DTD/svg11.dtd">
<svg version="1.1" xmlns="http://www.w3.org/2000/svg" xmlns:xlink="http://www.w3.org/1999/xlink" x="0px" y="0px"
	 viewBox="0 0 40 40" enable-background="new 0 0 40 40" xml:space="preserve" width="40" height="40" preserveAspectRatio="none">
<g id="BG" display="none">
</g>
<g id="Header_Buttons">
	<path fill="#FFFFFF" d="M29.7,29.7l-7.5,0.7l2.4,2.4c-0.5,0.9-1.2,1.6-2.1,2.1c-2.3,1.2-5.1,0.3-6.4-2l2.9-1.5L12,28.6l-1.7,7.3
		l2.8-1.5c0.9,1.7,2.5,3.2,4.4,3.9c3.6,1.4,7.6,0,9.7-3l2,1.9L29.7,29.7z"/>
	<polygon fill="#FFFFFF" points="24.3,4.1 26.2,26 39,24.8 	"/>
	<path fill="#FFFFFF" d="M1,24.8L13.8,26l1.8-22L1,24.8z M11.2,23l-4.8-0.5l5.4-8.9L11.2,23z"/>
	<g>
		<polygon fill="#FFFFFF" points="21.7,16.7 18.4,16.3 18.3,21.3 21.8,20.8 		"/>
		<polygon fill="#FFFFFF" points="18.5,12.7 21.6,12.4 21.5,9 18.5,9 		"/>
		<polygon fill="#FFFFFF" points="18.3,24 18.2,27.4 21.9,27.6 21.8,23.8 		"/>
		<polygon fill="#FFFFFF" points="21.5,4.9 21.4,1.9 18.6,2.1 18.6,5.1 		"/>
	</g>
</g>
<g id="Layer_1">
</g>
<g id="elliot">
</g>
</svg>
