<svg version="1.1" xmlns="http://www.w3.org/2000/svg" xmlns:xlink="http://www.w3.org/1999/xlink" x="0px" y="0px" viewBox="0 0 280 275" enable-background="new 0 0 280 275" xml:space="preserve" width="280" height="275" preserveAspectRatio="none"><g id="label" /><g id="BG_Circles" /><g id="winnie_bot" /><g id="lizzie_bot" /><g id="alex_bot" /><g id="grogg_bot"><g><ellipse opacity="0.65" cx="153.2" cy="259.7" rx="64.9" ry="9.3" /><g><g><path fill="#577685" d="M244.3,155.1c1.3-0.2,2.7,0,3.9,0.3c1.3,0.3,2.5,0.8,3.7,1.5c1.2,0.7,2.3,1.6,3,2.8
					c0.8,1.2,1.1,2.7,0.7,4c-0.5-1.3-1.1-2.2-1.9-3c-0.8-0.8-1.8-1.4-2.8-2c-1-0.6-2.1-1.2-3.2-1.7
					C246.6,156.3,245.4,155.7,244.3,155.1z" /></g><path fill="#8CBACC" d="M41.8,141c0,0-15.8,0.9-10.8-18.4c0,0,4.1,14.7,18,18.2L41.8,141z" /><path fill="#7CA4B7" d="M198.9,132.8c0,0,45.9-2.7,61.9,14.6s-54.8,39.9-54.8,39.9l0.3-14.6c0,0,38.8-12.3,38.3-19.4
				c-0.5-8.4-44.3-6.6-44.3-6.6L198.9,132.8z" /><path fill="#8CBACC" d="M36.3,144.5c0,0-12.3,1.6-19.4-11.3c0,0,21.5,11.9,26.8,6L36.3,144.5z" /><path fill="#8CBACC" d="M44.9,142.2c0,0,9.8,8.6,23.3-5.8L44.9,142.2z" /><ellipse cx="169.4" cy="259.2" rx="6.4" ry="5.7" /><ellipse cx="185.8" cy="259.8" rx="6.4" ry="5.7" /><g><path fill="#D9EEFA" d="M199,258.2c0-11.3-10.4-27.2-23.2-27.2s-23.2,15.9-23.2,27.2H199z" /></g><ellipse cx="134.8" cy="259.9" rx="6.4" ry="5.7" /><ellipse cx="119.4" cy="260.2" rx="5.7" ry="5" /><g><path fill="#D9EEFA" d="M151.4,259.1c0-11.3-10.4-27.2-23.2-27.2c-12.8,0-23.2,15.9-23.2,27.2H151.4z" /></g><path fill="#7CA4B7" d="M163,213.7l3.9,22.2c4.8,2.1,9.4,2.4,13.2-1.6l-3.5-21.9L163,213.7z" /><path fill="#7CA4B7" d="M141,213.7l-3.9,22.2c-4.9,1.7-9.2,1-13.2-1.6l3.5-21.9L141,213.7z" /><path d="M191.9,199.4c0,0,4.3,0,3.3,2.7c-1,2.7-10.6,8.3-45.2,8c-34.6-0.3-42.2-6.7-35.2-8C121.8,200.8,191.9,199.4,191.9,199.4z
				" /><path d="M192.8,204.7c0,0,4.3,0,3.3,2.7c-1,2.7-10.6,8.3-45.2,8c-34.6-0.3-42.2-6.7-35.2-8C122.7,206.1,192.8,204.7,192.8,204.7z
				" /><path d="M192.7,208.4c0,0,4.3,0,3.3,2.7c-1,2.7-10.6,8.3-45.2,8c-34.6-0.3-42.2-6.7-35.2-8C122.5,209.7,192.7,208.4,192.7,208.4z
				" /><g><path fill="#D9EEFA" d="M93.6,198.8c38.8,9.3,76.4,8.7,113,0c0,0,13.5-124.1-54.1-124.1C89.4,74.7,93.6,198.8,93.6,198.8z" /></g><ellipse fill="#FFFFFF" stroke="#7CA4B7" stroke-width="2" stroke-miterlimit="10" cx="149.5" cy="141.3" rx="18.3" ry="17.8" /><ellipse fill="#FFFFFF" stroke="#7CA4B7" stroke-width="2" stroke-miterlimit="10" cx="186.7" cy="140.9" rx="17.3" ry="16.9" /><circle cx="149" cy="142.1" r="5.8" /><circle cx="183.5" cy="141.3" r="5.4" /><g><path fill="#577685" d="M177.6,219.5c-0.7,1-1.7,1.7-2.8,2.2c-1.1,0.5-2.3,0.9-3.5,1.1c-2.4,0.3-4.9,0-7-1.2
					c2.3,0.5,4.6,0.6,6.8,0.3c1.1-0.1,2.2-0.4,3.3-0.8C175.6,220.6,176.6,220.1,177.6,219.5z" /></g><g><path fill="#577685" d="M139.7,222.6c-2.3,0.7-4.6,1-7,0.8c-1.2-0.1-2.4-0.3-3.5-0.7c-1.1-0.4-2.2-1.1-2.9-2.1
					c2,1.3,4.2,1.6,6.5,1.8C135,222.6,137.3,222.5,139.7,222.6z" /></g><g><path fill="#577685" d="M138.2,230.9c-1,0.6-2.2,0.9-3.4,1.1c-1.2,0.2-2.4,0.2-3.6,0c-1.2-0.2-2.4-0.4-3.5-1
					c-1.1-0.5-2.1-1.2-2.8-2.2c1,0.7,2,1.1,3.1,1.5c1.1,0.3,2.2,0.6,3.3,0.7C133.6,231.3,135.8,231.3,138.2,230.9z" /></g><g><path fill="#577685" d="M179.1,228.2c-0.5,1.1-1.6,2-2.7,2.5c-1.1,0.5-2.4,0.8-3.6,1c-1.2,0.1-2.5,0.1-3.7-0.2
					c-1.2-0.2-2.4-0.7-3.4-1.3c2.4,0.5,4.7,0.7,7,0.5c1.2-0.1,2.3-0.3,3.4-0.7C177.2,229.6,178.2,229,179.1,228.2z" /></g><g><ellipse fill="#D9EEFA" cx="103.4" cy="144.9" rx="9.3" ry="17.1" /><g><path fill="#7CA4B7" d="M94.1,144.9c0,3.5,0.6,7.1,2.1,10.3c0.7,1.6,1.7,3.1,2.9,4.3c1.2,1.2,2.8,1.9,4.3,1.8
						c1.5-0.1,2.9-1,3.9-2.2c1-1.2,1.8-2.7,2.3-4.3c1.2-3.1,1.6-6.5,1.6-9.9c0-3.4-0.4-6.8-1.6-9.9c-0.6-1.5-1.3-3-2.3-4.3
						c-1-1.2-2.3-2.1-3.9-2.2c-1.5-0.1-3.1,0.6-4.3,1.8c-1.2,1.2-2.2,2.7-2.9,4.3c-0.7,1.6-1.3,3.3-1.6,5
						C94.3,141.4,94.2,143.1,94.1,144.9z M94.1,144.9c0-3.5,0.5-7.1,1.7-10.4c0.6-1.7,1.4-3.3,2.6-4.7c1.2-1.4,2.9-2.6,5-2.7
						c2.1-0.1,4,0.9,5.4,2.3c1.4,1.4,2.4,3,3.2,4.7c1.6,3.4,2.2,7.2,2.2,10.9c0,3.7-0.7,7.4-2.2,10.9c-0.8,1.7-1.8,3.3-3.2,4.7
						c-1.4,1.4-3.3,2.4-5.4,2.3c-2.1-0.1-3.8-1.3-5-2.7c-1.2-1.4-2-3-2.6-4.7C94.6,152,94.2,148.4,94.1,144.9z" /></g></g><path fill="#2A5AA1" d="M170.7,119.9c-16.4,1-37.3-45.9-60.5-14.5c0,0,13.1-32.8,41.7-33.3c26-0.5,34.1,14.4,36.9,19.9
				C188.7,92,180.6,119.3,170.7,119.9z" /><path fill="#55B0D8" d="M169.7,119.9c0,0,17.9-33.1-6.8-56.6c-6.8-6.4-14.8,1.9-14.8,1.9S174.8,79.3,169.7,119.9z" /><path fill="#224286" d="M169.7,119.9c0,0,4.3-35.2-12.9-53.7c-8-8.7-14.2,6.4-14.2,6.4S166.8,86.4,169.7,119.9z" /><g><path fill="#577685" d="M194.8,204.7c-6.3,2-12.9,3.2-19.4,4.1c-6.6,0.9-13.2,1.3-19.8,1.5c-3.3,0-6.6,0.1-10-0.1
					c-1.7-0.1-3.3-0.1-5-0.2l-5-0.3l-2.5-0.2l-2.5-0.3l-4.9-0.5c-3.3-0.4-6.6-1-9.8-1.5c3.3,0.3,6.6,0.7,9.9,1l4.9,0.4l2.5,0.2
					l2.5,0.1l5,0.2c1.7,0.1,3.3,0.1,5,0.1c3.3,0.1,6.6,0,9.9,0c6.6-0.1,13.2-0.6,19.8-1.3c1.6-0.2,3.3-0.4,4.9-0.6l2.5-0.3l2.4-0.4
					C188.3,206.2,191.6,205.5,194.8,204.7z" /></g><g><path fill="#577685" d="M195.4,208.7c-6.2,2.5-12.8,4-19.5,5.1c-6.6,1.1-13.4,1.6-20.1,1.7c-1.7,0-3.4,0-5.1-0.1
					c-0.8,0-1.7,0-2.5-0.1l-2.5-0.2l-5-0.3l-5-0.6l-2.5-0.3l-2.5-0.4l-5-0.8c-1.7-0.3-3.3-0.7-4.9-1.1l-4.9-1.1
					c3.3,0.5,6.6,1.2,9.9,1.7l5,0.7l2.5,0.3l2.5,0.2l5,0.5l5,0.3l2.5,0.1c0.8,0,1.7,0,2.5,0l5,0c6.7-0.1,13.4-0.6,20-1.5l2.5-0.3
					l2.5-0.4c1.7-0.3,3.3-0.6,4.9-1C189,210.6,192.3,209.8,195.4,208.7z" /></g><path fill="#7CA4B7" d="M167.6,135.4c0,0-11.3-20.1-35.6,3.3c0,0-0.7-13,15.3-15.3S167.6,135.4,167.6,135.4z" /><path fill="#7CA4B7" d="M170.9,135.4c0,0,0-2.3,11-2c13.3,0.3,23,5.5,23,5.5s-5.2-14.7-18.3-14.9
				C173.6,123.8,170.9,135.4,170.9,135.4z" /><ellipse fill="#FFFFFF" cx="145.4" cy="138.8" rx="1.9" ry="2" /><ellipse fill="#FFFFFF" cx="180.1" cy="138.4" rx="2.2" ry="2" /><path fill="#7CA4B7" d="M108.1,144.4c0,0-6.5,44.9-30.6,61.4c-24.9,17-41.4-63-41.4-63s4.6-6.1,14.2-2.1c0,0,10,53,21.1,52.1
				c3.4-0.3,11.2-13.3,21.1-46.1c0.6-1.9,1.1-3.9,1.7-6C94.1,140.7,103.9,129.2,108.1,144.4z" /><path fill="#608090" d="M195.6,182c0,0-3.6-16.7-26.7-15.8c-19.4,0.8-25.3,18.5-25.3,18.5" /><path fill="#7CA4B7" d="M182.9,168.3c10.7,4.3,12.7,13.7,12.7,13.7l-11.3,0.6C184.4,177.9,183.9,173,182.9,168.3z" /><path fill="#608090" d="M169,166.2c5.8-0.2,10.3,0.7,13.9,2.1c1.1,4.7,1.6,9.5,1.4,14.3l-40.6,2.1
				C143.6,184.8,149.5,167,169,166.2z" /><g><path fill="#577685" d="M209.6,132.6c1,0.9,1.7,2,2.3,3.2c0.5,1.2,0.9,2.5,1,3.8c0.3,2.6-0.4,5.4-2,7.4c0-1.3,0.2-2.5,0.2-3.7
					c0-1.2,0-2.4-0.1-3.5C210.7,137.4,210.2,135.1,209.6,132.6z" /></g><g><path fill="#577685" d="M235.6,135.2c0.9,0.8,1.6,1.9,2,3c0.4,1.1,0.7,2.4,0.6,3.6c0,1.3-0.5,2.5-1.1,3.6
					c-0.7,1.1-1.7,1.9-2.8,2.4c0.5-1.1,1.1-2,1.3-3.1c0.3-1,0.5-2,0.5-3C236.4,139.7,236,137.6,235.6,135.2z" /></g><g><path fill="#577685" d="M230.6,163.6c1.1,0.3,2.1,0.9,3,1.6c0.9,0.7,1.7,1.5,2.4,2.5c0.7,1,1.2,2,1.5,3.2c0.3,1.2,0.4,2.4,0,3.5
					c-0.5-1.1-0.9-2-1.5-2.9c-0.5-0.9-1.1-1.7-1.7-2.6C233.2,167.2,231.8,165.6,230.6,163.6z" /></g><g><path fill="#577685" d="M211,171.5c1.1,0.5,2,1.3,2.7,2.2c0.8,0.9,1.4,1.9,1.9,2.9c0.5,1.1,0.8,2.2,0.9,3.4
					c0.1,1.2-0.1,2.4-0.5,3.5c-0.4-1.1-0.6-2.2-1-3.2c-0.4-1-0.8-2-1.2-2.9C213,175.5,211.9,173.6,211,171.5z" /></g><g><path fill="#577685" d="M92.1,146.8c1.1-0.9,2.5-1.5,4-1.7c1.4-0.3,3-0.2,4.5,0.2c1.5,0.4,2.8,1.2,3.9,2.2
					c0.6,0.5,1,1.1,1.4,1.7c0.4,0.6,0.7,1.3,0.9,2c-0.6-0.4-1.1-0.9-1.6-1.3c-0.6-0.4-1.1-0.8-1.6-1.1c-1.1-0.7-2.3-1.2-3.5-1.5
					c-1.2-0.3-2.5-0.5-3.8-0.6C94.9,146.6,93.5,146.7,92.1,146.8z" /></g><g><path fill="#577685" d="M87,163.9c1.3-0.7,2.7-1,4.2-1.2c1.5-0.1,3,0,4.4,0.3c1.5,0.4,2.8,1.1,4,2.2c1.1,1,1.9,2.4,2.2,3.8
					c-1.1-1-2-1.9-3.2-2.6c-1.1-0.6-2.3-1.1-3.6-1.5C92.6,164.4,89.9,164.2,87,163.9z" /></g><g><path fill="#577685" d="M80.1,180c1.4-0.1,2.8,0.1,4.1,0.5c1.3,0.4,2.7,0.9,3.9,1.7c1.2,0.7,2.3,1.7,3.2,2.8
					c0.9,1.1,1.5,2.5,1.6,3.9c-0.9-1.1-1.8-2-2.7-2.9c-1-0.8-2-1.5-3.1-2.2C84.8,182.5,82.5,181.4,80.1,180z" /></g><g><path fill="#577685" d="M72.3,192c1.1,0.9,1.9,2.1,2.6,3.4c0.7,1.3,1.1,2.6,1.3,4.1c0.3,1.4,0.2,2.9-0.1,4.3
					c-0.2,1.4-0.9,2.8-1.8,3.9c0.1-1.4,0.3-2.7,0.2-4c0-1.3-0.1-2.6-0.3-3.9c-0.2-1.3-0.5-2.5-0.8-3.8
					C73.1,194.7,72.8,193.4,72.3,192z" /></g><g><path fill="#577685" d="M63.2,184.5c-0.3,1.1-1.1,2.1-1.9,2.9c-0.9,0.8-1.8,1.4-2.9,1.9c-1,0.5-2.2,0.8-3.3,0.9
					c-0.6,0.1-1.1,0.1-1.7,0.1c-0.6,0-1.1-0.1-1.7-0.2c0.5-0.3,1-0.5,1.5-0.8c0.5-0.2,1-0.4,1.5-0.7c1-0.4,1.9-0.8,2.9-1.2
					c0.9-0.4,1.9-0.8,2.8-1.3C61.4,185.6,62.3,185.1,63.2,184.5z" /></g><g><path fill="#577685" d="M55.4,163.8c-0.9,0.7-1.9,1.3-2.9,1.8c-1,0.5-2.1,0.9-3.1,1.2c-1.1,0.3-2.1,0.6-3.2,0.8
					c-1.1,0.2-2.2,0.3-3.4,0.3c0.9-0.7,1.9-1.3,2.9-1.8c1-0.5,2.1-0.9,3.1-1.2c1.1-0.3,2.1-0.6,3.2-0.8
					C53.1,163.8,54.2,163.7,55.4,163.8z" /></g><g><path fill="#577685" d="M51.8,146c-2.5,0.4-4.8,0.5-7.1,0.8c-1.1,0.1-2.3,0.3-3.3,0.5c-1.1,0.3-2.1,0.6-3.1,1.4
					c0.3-1.3,1.4-2.2,2.6-2.8c1.2-0.6,2.4-0.9,3.7-1.1c1.3-0.1,2.5-0.1,3.7,0.1C49.4,145.1,50.6,145.4,51.8,146z" /></g></g></g></g></svg>