<svg version="1.1" xmlns="http://www.w3.org/2000/svg" xmlns:xlink="http://www.w3.org/1999/xlink" x="0px" y="0px" viewBox="0 0 280 275" enable-background="new 0 0 280 275" xml:space="preserve" width="280" height="275" preserveAspectRatio="none"><g id="label" /><g id="BG_Circles" /><g id="winnie_bot" /><g id="lizzie_bot" /><g id="alex_bot" /><g id="grogg_bot"><g><ellipse opacity="0.65" cx="148.1" cy="259.7" rx="47.6" ry="9.3" /><g><path fill="#8CBACC" d="M45.1,147.7c0,0-15.7-2.2-7.1-20.1c0,0,1.2,15.2,14.2,21.3L45.1,147.7z" /><path fill="#8CBACC" d="M44.5,151.8c0,0-12.3,1.6-19.4-11.3c0,0,21.5,11.9,26.8,6L44.5,151.8z" /><path fill="#8CBACC" d="M54,152.6c0,0,10.1-8.2-1.8-23.9L54,152.6z" /><path fill="#8CBACC" d="M227.8,254.5c0,0,4-5.8,11.1-5.8c7.1,0,10.2,3.1,10.2,3.1c-8.6,0-15.1,1.3-17.7,4.9L227.8,254.5z" /><path fill="#8CBACC" d="M218.9,256.7c-0.3,0.7-13.3-6.7-20.4,3.5c8-1.8,14.6-1.8,24.4,0.4L218.9,256.7z" /><path fill="#8CBACC" d="M231.4,256.7c0,0,15.1-8,23.5,3.5c-7.1-2.8-15.2-2.8-23.9-1.3L231.4,256.7z" /><g><ellipse cx="149.9" cy="259.8" rx="6.4" ry="5.7" /><ellipse cx="134.5" cy="260" rx="5.7" ry="5" /><g><path fill="#D9EEFA" d="M166.4,258.9c0-11.3-10.4-27.2-23.2-27.2c-12.8,0-23.2,15.9-23.2,27.2H166.4z" /></g></g><g><path fill="#7CA4B7" d="M158.3,215.7l-5.9,21.7c-4.8,0.8-13.3-2-13-2.8l5.5-21.4L158.3,215.7z" /><g><path fill="#577685" d="M143,220c2.2,1,4.4,1.8,6.7,2.2c2.3,0.4,4.6,0.5,7,0.6c-2.3,0.7-4.8,0.8-7.2,0.4
						C147.1,222.7,144.8,221.6,143,220z" /></g><g><path fill="#577685" d="M141.2,227.5c2.3,0.7,4.5,1.5,6.7,1.9c2.3,0.5,4.5,0.7,6.9,0.8c-2.3,0.7-4.8,0.6-7.1,0.1
						C145.4,229.8,143.1,228.9,141.2,227.5z" /></g></g><g><ellipse transform="matrix(0.3572 -0.934 0.934 0.3572 -124.6612 321.1957)" cx="171" cy="251.2" rx="6.4" ry="5.7" /><ellipse transform="matrix(0.3572 -0.934 0.934 0.3572 -106.373 317.4163)" cx="177.4" cy="236" rx="6.4" ry="5.7" /><g><path fill="#D9EEFA" d="M180.7,223.1c-10.6-4.1-29.2,0-33.7,12c-4.6,12,6.5,27.4,17.1,31.4L180.7,223.1z" /></g></g><path fill="#7CA4B7" d="M126.3,212.6c0,0-5,3.9-3.5,13.5c1.9,12.8,28.5,17.9,28.5,17.9c3.6-4,3.2-8,1.5-12.7c0,0-16.5-1-17.4-7.1
				c-1-6.1,5.7-10.2,5.7-10.2L126.3,212.6z" /><path d="M182.7,200.1c0,0,4.3,0,3.3,2.7c-1,2.7-10.6,8.3-45.2,8c-34.6-0.3-42.3-14.3-35.3-15.6
				C112.5,193.8,182.7,200.1,182.7,200.1z" /><path d="M183,203.4c0,0,4.3,0,3.3,2.7c-1,2.7-10.6,8.3-45.2,8c-34.6-0.3-44.8-10.4-37.6-13.9C109.8,197.1,183,203.4,183,203.4z" /><path d="M183,206.8c0,0,3.8-1.2,2.8,1.5c-1,2.7-9.8,9.4-44.4,9.4c-34.1,0-43-10.6-35.6-11.2C112.9,205.9,183,206.8,183,206.8z" /><g><path fill="#577685" d="M185.2,203.9c-6.8,0.8-13.6,1.1-20.4,1.2c-6.8,0.1-13.6-0.1-20.4-0.4c-3.4-0.2-6.8-0.4-10.2-0.7
					l-5.1-0.4l-5.1-0.5c-3.4-0.3-6.7-0.8-10.1-1.3c-3.4-0.5-6.7-1-10.1-1.6c6.8,0.7,13.5,1.5,20.3,2.1c6.8,0.6,13.5,1.1,20.3,1.4
					c6.8,0.4,13.6,0.6,20.3,0.6c3.4,0,6.8,0,10.2,0C178.5,204.2,181.8,204.1,185.2,203.9z" /></g><g><path fill="#577685" d="M185.9,207.9c-6.6,1.9-13.4,2.9-20.2,3.5c-6.8,0.6-13.7,0.8-20.6,0.7c-1.7,0-3.4-0.2-5.1-0.2l-2.6-0.1
					l-2.6-0.2l-5.1-0.5l-5.1-0.7c-3.4-0.4-6.8-1.1-10.1-1.7c-1.7-0.3-3.3-0.7-5-1.1l-5-1.2c3.4,0.6,6.7,1.3,10.1,1.8
					c3.4,0.5,6.7,1.1,10.2,1.4l5.1,0.6l5.1,0.4l2.6,0.2l2.6,0.1c1.7,0.1,3.4,0.2,5.1,0.2c6.8,0.2,13.7,0,20.5-0.4l2.6-0.2l2.5-0.3
					c1.7-0.1,3.4-0.4,5.1-0.6C179.2,209.2,182.6,208.7,185.9,207.9z" /></g><path fill="#7CA4B7" d="M203.9,150.6l30.8,106.6c0,0-5.5,8.6-17.9,3l-21.8-103L203.9,150.6z" /><g><path fill="#D9EEFA" d="M88.9,189.9c36.9,15.1,74.1,20.4,111.6,17.4c0,0,32.5-120.6-34.2-131C104,66.6,88.9,189.9,88.9,189.9z" /></g><ellipse transform="matrix(0.1544 -0.988 0.988 0.1544 -10.5404 271.0046)" fill="#FFFFFF" stroke="#7CA4B7" stroke-width="2" stroke-miterlimit="10" cx="153" cy="141.7" rx="17.8" ry="18.3" /><ellipse transform="matrix(0.1544 -0.988 0.988 0.1544 15.3233 311.9428)" fill="#FFFFFF" stroke="#7CA4B7" stroke-width="2" stroke-miterlimit="10" cx="189.9" cy="147" rx="16.9" ry="17.3" /><circle cx="188.3" cy="147.7" r="5.4" /><circle cx="151.1" cy="143" r="5.4" /><g><ellipse transform="matrix(0.1544 -0.988 0.988 0.1544 -46.0111 222.5551)" fill="#D9EEFA" cx="107" cy="138.2" rx="17.1" ry="9.3" /><g><path fill="#7CA4B7" d="M97.8,136.7c-0.5,3.5-0.5,7.1,0.5,10.5c0.5,1.7,1.2,3.3,2.2,4.7c1,1.4,2.5,2.3,4,2.5
						c1.5,0.1,3-0.5,4.2-1.6c1.2-1,2.2-2.4,3-3.8c1.6-2.9,2.5-6.2,3.1-9.5c0.5-3.3,0.6-6.7-0.1-10c-0.3-1.6-0.8-3.2-1.7-4.6
						c-0.8-1.4-2-2.4-3.5-2.8c-1.5-0.3-3.2,0.1-4.5,1.1c-1.4,1-2.6,2.3-3.5,3.8c-1,1.5-1.8,3-2.4,4.7
						C98.5,133.3,98.1,135,97.8,136.7z M97.8,136.7c0.6-3.5,1.5-6.9,3.3-10.1c0.9-1.5,1.9-3,3.3-4.3c1.4-1.2,3.3-2.1,5.3-1.9
						c2,0.2,3.8,1.5,5,3.1c1.2,1.6,1.9,3.3,2.4,5.2c1,3.6,1.1,7.4,0.5,11.1c-0.6,3.6-1.8,7.2-3.9,10.4c-1,1.6-2.3,3-3.9,4.2
						c-1.5,1.1-3.7,1.8-5.7,1.4c-2-0.5-3.6-1.9-4.5-3.4c-1-1.6-1.5-3.3-1.9-5.1C97.2,143.8,97.3,140.2,97.8,136.7z" /></g></g><path fill="#7CA4B7" d="M171.5,137.6l-36.4-2.4c0,0,3.2-12.3,18.1-11.8S171.5,137.6,171.5,137.6z" /><path fill="#2A5AA1" d="M177,123.7c-16.4-1.6-29.7-51.2-57.5-23.6c0,0,18-30.4,46.3-26.5c25.8,3.5,31.5,19.5,33.3,25.4
				C199.2,99,187,124.7,177,123.7z" /><path fill="#55B0D8" d="M176.3,123.6c0,0,10.4-13.7,10.8-30.9c0.2-8.2-2-17.3-8.7-26.1c-5.7-7.4-14.9-0.4-14.9-0.4
				S187.6,84.4,176.3,123.6z" /><path fill="#224286" d="M176.3,123.6c0,0,9.7-34.1-4.4-55c-6.6-9.8-15.4,5.1-15.4,5.1S178.6,90.1,176.3,123.6z" /><ellipse transform="matrix(0.1544 -0.988 0.988 0.1544 -13.6705 264.6653)" fill="#FFFFFF" cx="147.8" cy="140.3" rx="2" ry="1.9" /><ellipse transform="matrix(0.1544 -0.988 0.988 0.1544 11.5851 305.5885)" fill="#FFFFFF" cx="184.3" cy="146" rx="2" ry="2.2" /><g><path fill="#577685" d="M143.9,229.7c0.2,1,0.3,2,0.3,3.1c0,1-0.1,2.1-0.3,3.1c-0.2,1-0.5,2-1,3c-0.5,0.9-1.1,1.8-2,2.4
					c1.1-1.7,1.6-3.6,2-5.6C143.3,233.7,143.6,231.8,143.9,229.7z" /></g><g><path fill="#577685" d="M128.3,234.8c1.2-1.6,2.5-3,3.9-4.5c1.3-1.4,2.6-2.9,4.1-4.3c-0.8,1.8-2,3.5-3.4,4.9
					C131.5,232.4,130,233.8,128.3,234.8z" /></g><g><path fill="#577685" d="M122.9,218.6c2.1,0.9,4.2,1.6,6.4,1.9c1.1,0.2,2.2,0.2,3.3,0.1c1.1,0,2.2-0.3,3.3-0.6
					c-1,0.6-2,1.1-3.2,1.3c-1.2,0.2-2.4,0.3-3.5,0.1c-1.2-0.2-2.3-0.5-3.4-1C124.7,220,123.7,219.4,122.9,218.6z" /></g><path fill="#7CA4B7" d="M112.5,135.1c0,0-5.9,68.7-30.7,72.1c-24.3,3.4-40-57.3-40-57.3s4.8-7.1,15.7-3.7c0,0,9.1,45.3,23.9,45
				c9.3-0.2,16.9-56.7,16.9-56.7s1.3-5.8,6.2-6C106.9,128.4,111,130.8,112.5,135.1z" /><path fill="#7CA4B7" d="M205.2,139.7l-23.5-6.8c0,0,0.8-4.3,11-1.8S205.2,139.7,205.2,139.7z" /><g><path fill="#7CA4B7" d="M146.1,242.5c0.3,1.6,0.7,3.1,1.1,4.6c0.4,1.5,0.9,2.9,1.6,4.3c0.6,1.4,1.3,2.8,2.2,4
					c0.8,1.3,1.8,2.5,2.9,3.6c-1.3-0.9-2.6-1.9-3.5-3.2c-1-1.3-1.8-2.6-2.5-4.1C146.5,248.8,145.9,245.6,146.1,242.5z" /></g><path fill="#608090" d="M143.8,164.7c0,0,28.6,12,49.2,6.7c0,0-10,16.6-39.9,14.6C123.2,184,143.8,164.7,143.8,164.7z" /><path fill="#7CA4B7" d="M193,171.3c0,0-5.8,9.7-21.8,13.4c2.4-3.9,4.4-8.2,6.5-12.1C182.9,172.9,188.2,172.6,193,171.3z" /><g><path fill="#577685" d="M232.2,248.3c-1,1.2-2.3,2.2-3.6,2.9c-1.4,0.7-2.9,1.3-4.5,1.6c-1.6,0.3-3.2,0.4-4.7,0.2
					c-1.6-0.2-3.1-0.6-4.5-1.4c1.6-0.1,3-0.1,4.5-0.2c1.5-0.1,2.9-0.3,4.3-0.6C226.6,250.3,229.4,249.4,232.2,248.3z" /></g><g><path fill="#577685" d="M210.7,173.6c-0.1,0.5-0.4,0.9-0.6,1.2c-0.3,0.3-0.5,0.5-0.9,0.6c-0.3,0.1-0.7,0.2-1,0.3
					c-0.4,0-0.8,0-1.3-0.3c0.1-0.5,0.4-0.9,0.6-1.2c0.3-0.3,0.5-0.5,0.9-0.6c0.3-0.1,0.7-0.2,1-0.2
					C209.8,173.3,210.2,173.3,210.7,173.6z" /></g><g><path fill="#577685" d="M216.5,194.6c-0.3,1.2-1.1,2.2-2.1,3.1c-1,0.8-2.1,1.4-3.3,1.8c-1.2,0.4-2.5,0.5-3.7,0.4
					c-0.6,0-1.2-0.1-1.8-0.2c-0.6-0.2-1.2-0.3-1.7-0.6c0.6-0.2,1.2-0.3,1.8-0.4c0.6-0.1,1.1-0.2,1.7-0.3c1.1-0.2,2.2-0.5,3.2-0.8
					c1-0.3,2-0.7,3-1.2C214.5,195.9,215.5,195.4,216.5,194.6z" /></g><g><path fill="#577685" d="M224.7,222.6c-0.5,1.4-1.5,2.4-2.7,3.3c-1.2,0.8-2.6,1.4-4,1.6c-1.4,0.3-2.8,0.3-4.2,0.1
					c-0.7-0.1-1.4-0.3-2-0.4c-0.7-0.2-1.3-0.5-1.9-0.8c0.7-0.1,1.4-0.1,2.1-0.2c0.7-0.1,1.3-0.1,2-0.1c1.3-0.1,2.6-0.2,3.8-0.5
					c1.2-0.3,2.4-0.6,3.6-1C222.4,224,223.6,223.4,224.7,222.6z" /></g><g><path fill="#577685" d="M97.9,139.2c0.8-1.1,2-1.8,3.2-2.3c1.3-0.5,2.7-0.6,4-0.5c1.4,0.2,2.7,0.6,3.8,1.4
					c0.6,0.3,1.1,0.8,1.6,1.2c0.5,0.5,0.9,1,1.3,1.5c-0.7-0.2-1.2-0.5-1.8-0.7l-0.9-0.3c-0.3-0.1-0.6-0.2-0.9-0.3
					c-1.1-0.4-2.3-0.6-3.4-0.8C102.7,138.2,100.4,138.4,97.9,139.2z" /></g><g><path fill="#577685" d="M94.8,159.1c1.1-0.7,2.3-1.1,3.6-1.3c1.3-0.2,2.6-0.1,3.8,0.2c0.6,0.1,1.2,0.4,1.8,0.6
					c0.6,0.3,1.2,0.6,1.7,1c1,0.8,1.9,1.8,2.4,2.9c-1.2-0.6-2.1-1.2-3.2-1.6c-0.5-0.3-1.1-0.4-1.6-0.6c-0.5-0.1-1.1-0.3-1.6-0.5
					C99.5,159.5,97.3,159.3,94.8,159.1z" /></g><g><path fill="#577685" d="M89.5,180.2c1.1-0.7,2.4-0.9,3.7-0.9c1.3,0,2.6,0.3,3.8,0.8c1.2,0.6,2.3,1.4,3.1,2.4
					c0.4,0.5,0.7,1.1,1,1.6c0.3,0.6,0.4,1.2,0.6,1.8c-1-0.8-1.8-1.7-2.7-2.3c-0.9-0.7-1.8-1.3-2.8-1.7C94.2,181,92,180.5,89.5,180.2
					z" /></g><g><path fill="#577685" d="M81.5,191.3c1.4,0.4,2.5,1.4,3.4,2.5c0.9,1.1,1.6,2.5,1.9,3.9c0.3,1.4,0.3,2.9,0,4.3
					c-0.1,0.7-0.4,1.4-0.6,2c-0.3,0.6-0.6,1.3-1,1.8c0-0.7,0.1-1.4,0.1-2.1l0-1c0-0.3,0-0.6,0-1c0-1.3-0.2-2.5-0.4-3.8
					C84.3,195.7,83.2,193.5,81.5,191.3z" /></g><g><path fill="#577685" d="M71.7,184c0,1.4-0.6,2.7-1.3,3.8c-0.8,1.1-1.8,2-2.9,2.8c-1.1,0.8-2.4,1.3-3.6,1.6
					c-0.6,0.2-1.3,0.3-1.9,0.4c-0.7,0-1.3,0.1-2,0.1c0.6-0.4,1.1-0.7,1.7-1c0.5-0.3,1.1-0.6,1.6-0.9c1.1-0.6,2.1-1.2,3.1-1.9
					c1-0.7,2-1.3,2.8-2.1C70.1,185.9,71,185.1,71.7,184z" /></g><g><path fill="#577685" d="M63,165.4c-0.9,1-2.1,1.9-3.2,2.6c-1.2,0.7-2.4,1.3-3.7,1.8c-1.3,0.5-2.6,0.8-4,0.9
					c-1.4,0.2-2.8,0.1-4.1-0.2c1.3-0.5,2.6-0.9,3.8-1.3l3.7-1.3c1.2-0.4,2.5-0.9,3.7-1.3C60.4,166.1,61.6,165.7,63,165.4z" /></g><g><path fill="#577685" d="M58.8,151.2c-2.9,0-5.5,0-8.1,0.4c-1.3,0.2-2.5,0.6-3.7,1c-1.2,0.5-2.3,1.3-3.5,2.1
					c0.5-1.3,1.4-2.6,2.7-3.5c1.2-0.9,2.7-1.4,4.2-1.7c1.5-0.2,3-0.2,4.4,0.1C56.2,149.9,57.6,150.4,58.8,151.2z" /></g></g></g></g></svg>