<svg version="1.1" xmlns="http://www.w3.org/2000/svg" xmlns:xlink="http://www.w3.org/1999/xlink" x="0px" y="0px" viewBox="0 0 280 275" enable-background="new 0 0 280 275" xml:space="preserve" width="280" height="275" preserveAspectRatio="none"><g id="label" /><g id="BG_Circles" /><g id="winnie_bot" /><g id="lizzie_bot" /><g id="alex_bot" /><g id="grogg_bot"><g><ellipse opacity="0.65" cx="140.4" cy="259.7" rx="64.9" ry="9.3" /><g><path fill="#7CA4B7" d="M190.8,154.6l-1.4-17c0,0,14.7-10.5,26.5-24.9l8.8,16.1C216.1,138.8,204.8,147.9,190.8,154.6z" /><ellipse cx="156.6" cy="259.2" rx="6.4" ry="5.7" /><ellipse cx="173" cy="259.8" rx="6.4" ry="5.7" /><g><path fill="#D9EEFA" d="M186.2,258.2c0-11.3-10.4-27.2-23.2-27.2s-23.2,15.9-23.2,27.2H186.2z" /></g><ellipse cx="122" cy="259.9" rx="6.4" ry="5.7" /><ellipse cx="106.6" cy="260.2" rx="5.7" ry="5" /><g><path fill="#D9EEFA" d="M138.5,259.1c0-11.3-10.4-27.2-23.2-27.2s-23.2,15.9-23.2,27.2H138.5z" /></g><path fill="#7CA4B7" d="M150.2,213.7l3.9,22.2c4.7,1.2,13.4-0.8,13.2-1.6l-3.5-21.9L150.2,213.7z" /><path fill="#7CA4B7" d="M128.2,213.7l-3.9,22.2c-4,1.7-8.5,0.9-13.2-1.6l3.5-21.9L128.2,213.7z" /><path d="M179.1,199.5c0,0,4.3,0,3.3,2.7c-1,2.7-10.6,8.3-45.2,8c-34.6-0.3-42.2-6.7-35.2-8C108.9,200.8,179.1,199.5,179.1,199.5z
				" /><path d="M179.3,202.7c0,0,4.3,0,3.3,2.7c-1,2.7-10.6,8.3-45.2,8c-34.6-0.3-42.2-6.7-35.2-8C109.2,204,179.3,202.7,179.3,202.7z" /><path d="M179.3,206.1c0,0,4.3,0,3.3,2.7c-1,2.7-10.6,8.3-45.2,8c-34.6-0.3-42.2-6.7-35.2-8C109.2,207.5,179.3,206.1,179.3,206.1z
				" /><g><path fill="#D9EEFA" d="M80.7,198.8c38.8,9.3,76.4,8.7,113,0c0,0,13.5-124.1-54.1-124.1C76.6,74.7,80.7,198.8,80.7,198.8z" /></g><ellipse fill="#FFFFFF" stroke="#7CA4B7" stroke-width="2" stroke-miterlimit="10" cx="136.6" cy="141.3" rx="18.3" ry="17.8" /><ellipse fill="#FFFFFF" stroke="#7CA4B7" stroke-width="2" stroke-miterlimit="10" cx="173.9" cy="140.9" rx="17.3" ry="16.9" /><circle cx="172.4" cy="141.8" r="5.4" /><circle cx="134.9" cy="142.9" r="5.4" /><g><path fill="#577685" d="M165.1,219.4c-1.9,1.5-4.3,2.3-6.7,2.5c-2.4,0.2-4.9-0.1-7.1-1c2.4,0.1,4.7,0.2,7,0
					C160.6,220.8,162.8,220.2,165.1,219.4z" /></g><g><path fill="#577685" d="M127.3,220.8c-2.3,0.7-4.8,0.8-7.1,0.4c-2.4-0.4-4.7-1.3-6.7-2.6c2.3,0.6,4.5,1.2,6.8,1.6
					C122.7,220.6,125,220.8,127.3,220.8z" /></g><g><path fill="#577685" d="M126.2,229.3c-2.2,1-4.8,1.3-7.2,0.9c-2.4-0.4-4.7-1.5-6.6-3c2.2,0.9,4.4,1.7,6.7,2
					C121.4,229.6,123.7,229.5,126.2,229.3z" /></g><g><path fill="#577685" d="M166.2,227c-2,1.2-4.4,2-6.8,2.3c-2.4,0.3-4.9,0.1-7.1-0.8c2.4,0.1,4.7,0.1,7-0.2
					C161.6,228.1,163.8,227.5,166.2,227z" /></g><g><ellipse fill="#D9EEFA" cx="90.6" cy="144.9" rx="9.3" ry="17.1" /><g><path fill="#7CA4B7" d="M81.3,144.9c0,3.5,0.6,7.1,2.1,10.3c0.7,1.6,1.7,3.1,2.9,4.3c1.2,1.2,2.8,1.9,4.3,1.8
						c1.5-0.1,2.9-1,3.9-2.3c1-1.2,1.8-2.7,2.3-4.3c1.2-3.1,1.6-6.5,1.6-9.9c0-3.4-0.4-6.8-1.6-9.9c-0.6-1.5-1.3-3-2.3-4.3
						c-1-1.2-2.3-2.1-3.9-2.2c-1.5-0.1-3.1,0.6-4.3,1.8c-1.2,1.2-2.2,2.7-2.9,4.3c-0.7,1.6-1.3,3.3-1.6,5
						C81.5,141.4,81.3,143.1,81.3,144.9z M81.3,144.9c0-3.5,0.5-7.1,1.7-10.4c0.6-1.7,1.4-3.3,2.6-4.7c1.2-1.4,2.9-2.6,5-2.7
						c2.1-0.1,4,0.9,5.4,2.3c1.4,1.4,2.4,3,3.2,4.7c1.6,3.4,2.2,7.2,2.2,10.9c0,3.7-0.7,7.4-2.2,10.9c-0.8,1.7-1.8,3.3-3.2,4.7
						c-1.4,1.4-3.3,2.4-5.4,2.3c-2.1-0.1-3.8-1.3-5-2.7c-1.2-1.4-2-3-2.6-4.7C81.8,152,81.3,148.4,81.3,144.9z" /></g></g><path fill="#608090" d="M176.1,174.6c-16.6-1.1-32.1-4.2-46.8-8.7l-5.5,9.4c13.9,6.7,33.5,7.8,51.3,7.3L176.1,174.6z" /><path fill="#7CA4B7" d="M153.1,131.3l-35.4,8.7c0,0-0.7-12.7,13.7-16.7C145.8,119.3,153.1,131.3,153.1,131.3z" /><path fill="#2A5AA1" d="M157.6,119.9c-16.4,1-37.3-45.9-60.5-14.5c0,0,13.1-32.8,41.7-33.3c26-0.5,34.1,14.4,36.9,19.9
				C175.6,92,167.6,119.3,157.6,119.9z" /><path fill="#8CBACC" d="M165.8,68.9c0,0-5.3-18.6-12.6-16c-7.3,2.7-10.3,9.6-10.3,9.6s10.3-7.6,12.6-5s7,13.3,7,13.3L165.8,68.9z
				" /><path fill="#55B0D8" d="M156.8,119.9c0,0,8.2-15.1,5.9-32.2c-1.1-8.2-4.6-16.8-12.6-24.4c-6.8-6.4-14.8,1.9-14.8,1.9
				S162,79.3,156.8,119.9z" /><path fill="#224286" d="M156.8,119.9c0,0,4.3-35.2-12.9-53.7c-8-8.7-14.2,6.4-14.2,6.4S153.9,86.4,156.8,119.9z" /><path fill="#8CBACC" d="M120.8,67.6c0,0,5.3-18.6,12.6-16s10.3,9.6,10.3,9.6s-10.3-7.6-12.6-5s-7,13.3-7,13.3L120.8,67.6z" /><path fill="#8CBACC" d="M122.9,66.3c0,0,14.3-9.5,25-0.6c-10.4-0.1-18.8,1.8-24.5,6.7L122.9,66.3z" /><path fill="#8CBACC" d="M124.3,71.6c0,0,12.3-5.3,24.3,6.1c0,0-16.2-6.1-25.2-0.8L124.3,71.6z" /><path fill="#8CBACC" d="M165.8,68.9c0,0-14.6-7.6-22.9,1c0,0,22.9,2,24.6,4.3C169.1,76.6,165.8,68.9,165.8,68.9z" /><path fill="#8CBACC" d="M167.4,74.2c0,0-14.3-1.3-17.3,15.6c0,0,14.6-13,25.9-12.3L167.4,74.2z" /><g><path fill="#577685" d="M181.6,203.3c-6.3,2-12.9,3.2-19.4,4.1c-6.6,0.9-13.2,1.3-19.8,1.5c-3.3,0-6.6,0.1-10-0.1
					c-1.7-0.1-3.3-0.1-5-0.2l-5-0.3L120,208l-2.5-0.3l-4.9-0.5c-3.3-0.4-6.6-1-9.8-1.5c3.3,0.3,6.6,0.7,9.9,1l4.9,0.4l2.5,0.2
					l2.5,0.1l5,0.2c1.7,0.1,3.3,0.1,5,0.1c3.3,0.1,6.6,0,9.9,0c6.6-0.1,13.2-0.6,19.8-1.3c1.6-0.2,3.3-0.4,4.9-0.6l2.5-0.3l2.4-0.4
					C175.2,204.7,178.4,204.1,181.6,203.3z" /></g><g><path fill="#577685" d="M182.3,207.3c-6.2,2.5-12.8,4-19.5,5.1c-6.6,1.1-13.4,1.6-20.1,1.7c-1.7,0-3.4,0-5.1-0.1
					c-0.8,0-1.7,0-2.5-0.1l-2.5-0.2l-5-0.3l-5-0.6l-2.5-0.3l-2.5-0.4l-5-0.8c-1.7-0.3-3.3-0.7-4.9-1.1l-4.9-1.1
					c3.3,0.5,6.6,1.2,9.9,1.7l5,0.7l2.5,0.3l2.5,0.2l5,0.5l5,0.3l2.5,0.1c0.8,0,1.7,0,2.5,0l5,0c6.7-0.1,13.4-0.6,20-1.5l2.5-0.3
					l2.5-0.4c1.7-0.3,3.3-0.6,4.9-1C175.8,209.2,179.1,208.4,182.3,207.3z" /></g><ellipse fill="#FFFFFF" cx="131.2" cy="140.8" rx="1.9" ry="2" /><ellipse fill="#FFFFFF" cx="168.2" cy="140.8" rx="2.2" ry="2" /><path fill="#7CA4B7" d="M235.2,53c15.6,16.4,11.7,49.5-10.5,75.7l-8.8-16.1c11.6-14.2,18.5-30.2,8.2-45.9
				c-7.3-11.1-32.4,4-50.9,13c-5.3-2.2-9.6-11.3-9.4-16.1C163.8,63.6,218.9,35.9,235.2,53z" /><path fill="#7CA4B7" d="M42.3,59.4c14.8-19.8,78.1-0.3,78.1-0.3c5.3,3.6,5,16.5,1.3,20.4c-14.6-5.3-59.8-24.3-67-9.8
				c-18.2,37.1,36,65.9,36,65.9c3.7,3.1,3.3,15.2-2.3,17.9C29.9,125.5,29.2,76.9,42.3,59.4z" /><path fill="#7CA4B7" d="M176.1,174.6l-1,8c-2.3,0.1-4.7,0.1-7.1,0.1c-0.5-3-1-6-1.5-9C169.7,174.1,172.9,174.4,176.1,174.6z" /><g><path fill="#577685" d="M194.1,134.5c1.2,0.8,2.1,1.8,3,2.9c0.8,1.1,1.6,2.3,2.1,3.6c0.5,1.3,0.9,2.7,1,4.1
					c0.1,1.4-0.1,2.9-0.8,4.2c-0.2-1.4-0.4-2.7-0.8-3.9c-0.4-1.2-0.8-2.4-1.3-3.6C196.4,139.5,195.2,137.1,194.1,134.5z" /></g><g><path fill="#577685" d="M212.8,117.5c1.5,0.1,2.9,0.6,4.2,1.3c1.3,0.7,2.5,1.7,3.5,2.8c1,1.1,1.7,2.6,2.1,4
					c0.4,1.5,0.3,3-0.1,4.4c-0.5-1.4-0.8-2.7-1.4-3.9c-0.6-1.2-1.3-2.3-2.2-3.3c-0.9-1-1.8-1.9-2.8-2.8
					C215.1,119.2,213.9,118.4,212.8,117.5z" /></g><g><path fill="#577685" d="M226.1,98.9c1.3-0.5,2.7-0.7,4-0.6c1.4,0.1,2.8,0.3,4.1,0.9c1.3,0.6,2.5,1.5,3.4,2.6
					c0.9,1.1,1.4,2.5,1.6,3.8c-0.9-1-1.7-2-2.7-2.7c-1-0.7-2-1.3-3.1-1.8C231.1,100,228.7,99.5,226.1,98.9z" /></g><g><path fill="#577685" d="M228.7,77.6c0.9-1.1,2.1-2,3.3-2.8c1.2-0.8,2.6-1.4,4-1.8c1.4-0.4,2.9-0.6,4.5-0.4c1.5,0.2,3,0.8,4,2
					c-1.4-0.4-2.7-0.5-4-0.4c-1.3,0.1-2.6,0.4-3.9,0.8c-1.3,0.4-2.6,0.8-3.9,1.3C231.4,76.6,230.1,77.1,228.7,77.6z" /></g><g><path fill="#577685" d="M219.6,63.2c-0.4-1.3-0.6-2.6-0.7-3.9c-0.1-1.3,0-2.6,0.2-4c0.2-1.3,0.5-2.6,1-3.9
					c0.5-1.2,1.2-2.5,2.3-3.3c-0.4,1.3-0.6,2.5-0.8,3.8c-0.2,1.2-0.4,2.5-0.6,3.7c-0.2,1.2-0.4,2.5-0.6,3.8
					C220.3,60.6,220,61.9,219.6,63.2z" /></g><g><path fill="#577685" d="M196.4,51.4c0.6,2.7,0.9,5.3,1.3,7.9c0.2,1.3,0.4,2.6,0.7,3.8c0.3,1.3,0.7,2.5,1.2,3.8
					c-1.2-0.8-2.1-2-2.7-3.2c-0.6-1.3-1-2.7-1.3-4c-0.2-1.4-0.3-2.8-0.2-4.2C195.6,54.1,195.9,52.7,196.4,51.4z" /></g><g><path fill="#577685" d="M171.5,59.8c0.6,1.5,1.1,3,1.7,4.4c0.6,1.4,1.2,2.8,1.9,4.1c0.7,1.3,1.5,2.6,2.4,3.8
					c0.9,1.2,2,2.3,3.1,3.4c-1.6-0.4-3.1-1.2-4.3-2.4c-1.2-1.1-2.3-2.5-3-3.9c-0.8-1.5-1.3-3-1.6-4.6
					C171.4,63.1,171.3,61.4,171.5,59.8z" /></g><g><path fill="#577685" d="M112.1,57.4c1.1,1.3,1.9,2.8,2.5,4.4c0.6,1.6,0.9,3.3,0.9,5c0.1,1.7-0.2,3.4-0.7,5
					c-0.4,1.6-1.3,3.1-2.3,4.5c0.3-1.7,0.6-3.2,0.8-4.8c0.2-1.6,0.2-3.1,0.2-4.7C113.4,63.7,112.9,60.6,112.1,57.4z" /></g><g><path fill="#577685" d="M83.4,132.2c0.9,1.3,1.4,2.9,1.7,4.5c0.3,1.6,0.4,3.2,0.1,4.9c-0.3,1.6-1,3.2-2.1,4.5
					c-1.1,1.3-2.6,2.1-4.2,2.5c1.1-1.1,2.2-2.1,2.9-3.4c0.7-1.2,1.2-2.6,1.4-4C83.7,138.3,83.5,135.3,83.4,132.2z" /></g><g><path fill="#577685" d="M64.7,65.8c-0.3-1.5-0.5-2.9-0.8-4.3c-0.3-1.4-0.6-2.7-1.1-4c-0.5-1.3-1.1-2.4-1.8-3.5
					c-0.8-1.1-1.8-1.9-3.1-2.8c1.5,0.1,3,0.7,4.2,1.8c1.2,1.1,2,2.5,2.6,3.9c0.6,1.5,0.8,3,0.8,4.5C65.4,62.9,65.2,64.4,64.7,65.8z" /></g><g><path fill="#577685" d="M51.1,81.3c-1.1,0.8-2.4,1.2-3.7,1.6c-1.3,0.3-2.6,0.6-4,0.6c-1.4,0-2.7-0.1-4.1-0.4
					c-1.3-0.4-2.6-1-3.6-2c1.3,0.2,2.6,0.4,3.8,0.4c1.2,0.1,2.5,0,3.7,0C45.9,81.5,48.4,81.3,51.1,81.3z" /></g><g><path fill="#577685" d="M55.2,101.9c-0.5,1.4-1.4,2.5-2.5,3.5c-1.1,1-2.4,1.7-3.7,2.2c-1.4,0.5-2.8,0.8-4.3,0.8
					c-0.7,0.1-1.4-0.1-2.1-0.2c-0.7-0.1-1.4-0.3-2.1-0.6c0.7-0.2,1.4-0.3,2-0.4l1-0.2c0.3-0.1,0.7-0.1,1-0.2
					c1.3-0.3,2.5-0.7,3.7-1.1C50.7,104.8,52.9,103.6,55.2,101.9z" /></g><g><path fill="#577685" d="M67.8,118.8c0.2,1.6-0.1,3.1-0.5,4.6c-0.4,1.5-1.1,3-2.1,4.3c-0.9,1.3-2.2,2.4-3.6,3.2
					c-1.4,0.8-3,1.2-4.6,1.1c1.4-0.8,2.6-1.4,3.7-2.4c1.1-0.9,2-2,2.8-3.1C65.3,124.2,66.5,121.6,67.8,118.8z" /></g><g><path fill="#577685" d="M89.7,51.9c1.1,1.2,1.9,2.7,2.5,4.2c0.6,1.5,1.1,3.1,1.1,4.8c0.1,1.7-0.1,3.4-0.8,5
					c-0.7,1.6-1.9,2.9-3.3,3.7c0.9-1.4,1.5-2.8,1.9-4.2c0.3-1.4,0.4-2.9,0.3-4.4c-0.1-1.5-0.3-3-0.6-4.5
					C90.5,55,90.1,53.4,89.7,51.9z" /></g></g></g></g></svg>