<svg version="1.1" xmlns="http://www.w3.org/2000/svg" xmlns:xlink="http://www.w3.org/1999/xlink" x="0px" y="0px" viewBox="0 0 275 275" enable-background="new 0 0 275 275" xml:space="preserve" width="275" height="275" preserveAspectRatio="none"><g id="label" /><g id="BG_Circles" /><g id="winnie_bot" /><g id="lizzie_bot" /><g id="alex_bot" /><g id="grogg_bot"><g><ellipse opacity="0.65" cx="137" cy="259.7" rx="64.9" ry="9.3" /><g><path fill="#7CA4B7" d="M182.5,143.8c-5.4-3.6-2.7-14.7,3.3-16.6c0,0,41.3,36.1,31.3,58.1c-0.4,0.9-1,1.7-1.9,2.5l-14.5-14.7
				C204.4,161.2,182.5,143.8,182.5,143.8z" /><ellipse cx="153.8" cy="259.2" rx="6.4" ry="5.7" /><ellipse cx="170.3" cy="259.8" rx="6.4" ry="5.7" /><g><path fill="#D9EEFA" d="M183.5,258.2c0-11.3-10.4-27.2-23.2-27.2S137,246.9,137,258.2H183.5z" /></g><ellipse cx="119.2" cy="259.9" rx="6.4" ry="5.7" /><ellipse cx="103.9" cy="260.2" rx="5.7" ry="5" /><g><path fill="#D9EEFA" d="M135.8,259.1c0-11.3-10.4-27.2-23.2-27.2s-23.2,15.9-23.2,27.2H135.8z" /></g><path fill="#7CA4B7" d="M147.4,213.7l3.9,22.2c4.4,1.8,8.8,1.8,13.2-1.6l-3.5-21.9L147.4,213.7z" /><path fill="#7CA4B7" d="M125.4,213.7l-3.9,22.2c-5.5,2.6-9.7,1.5-13.2-1.6l3.5-21.9L125.4,213.7z" /><g><path fill="#577685" d="M162.3,219.4c-1.9,1.5-4.4,2.1-6.8,2.3c-2.4,0.2-4.8-0.1-7.1-0.8c2.4-0.1,4.7,0,7-0.2
					C157.8,220.6,160,220.2,162.3,219.4z" /></g><g><path fill="#577685" d="M124.6,220.8c-2.2,1.1-4.7,1.6-7.1,1.4c-1.2-0.1-2.5-0.4-3.6-0.9c-1.1-0.5-2.2-1.1-3.1-1.9
					c2.2,1,4.5,1.6,6.8,1.8C119.9,221.4,122.2,221.1,124.6,220.8z" /></g><g><path fill="#577685" d="M122.9,229c-2.2,0.8-4.5,1.1-6.9,0.8c-2.3-0.3-4.6-1.2-6.4-2.6c2.2,0.7,4.3,1.4,6.5,1.7
					C118.3,229.1,120.6,229,122.9,229z" /></g><g><path fill="#577685" d="M163.4,227c-3.8,3-9.5,3.5-13.9,1.5c2.4,0.2,4.7,0.4,7,0.1C158.9,228.5,161.1,227.8,163.4,227z" /></g><path fill="#8CBACC" d="M76.3,94.3c0,0-15.7-2.2-7.1-20.1c0,0,1.2,15.2,14.2,21.3L76.3,94.3z" /><path fill="#8CBACC" d="M75.7,98.4c0,0-12.3,1.6-19.4-11.3c0,0,21.5,11.9,26.8,6L75.7,98.4z" /><path fill="#8CBACC" d="M86.7,97.6c0,0,13,1.3,15.6-18.2L86.7,97.6z" /><path d="M178,200.8c0,0,4.3,0,3.3,2.7s-10.6,8.3-45.2,8c-34.6-0.3-42.2-6.7-35.2-8C107.8,202.1,178,200.8,178,200.8z" /><path d="M178.2,204c0,0,4.3,0,3.3,2.7c-1,2.7-10.6,8.3-45.2,8c-34.6-0.3-42.2-6.7-35.2-8C108.1,205.4,178.2,204,178.2,204z" /><path d="M178.2,207.5c0,0,4.3,0,3.3,2.7c-1,2.7-10.6,8.3-45.2,8c-34.6-0.3-42.2-6.7-35.2-8C108.1,208.8,178.2,207.5,178.2,207.5z
				" /><g><path fill="#D9EEFA" d="M79.6,200.2c38.8,9.3,76.4,8.7,113,0c0,0,13.5-124.1-54.1-124.1C75.5,76,79.6,200.2,79.6,200.2z" /></g><ellipse fill="#FFFFFF" stroke="#7CA4B7" stroke-width="2" stroke-miterlimit="10" cx="135.5" cy="142.6" rx="18.3" ry="17.8" /><ellipse fill="#FFFFFF" stroke="#7CA4B7" stroke-width="2" stroke-miterlimit="10" cx="172.8" cy="142.2" rx="17.3" ry="16.9" /><circle cx="171.3" cy="143.2" r="5.4" /><circle cx="133.8" cy="144.3" r="5.4" /><g><ellipse fill="#D9EEFA" cx="89.5" cy="146.2" rx="9.3" ry="17.1" /><g><path fill="#7CA4B7" d="M80.2,146.2c0,3.5,0.6,7.1,2.1,10.3c0.7,1.6,1.7,3.1,2.9,4.3c1.2,1.2,2.8,1.9,4.3,1.8
						c1.5-0.1,2.9-1,3.9-2.3c1-1.2,1.8-2.7,2.3-4.3c1.2-3.1,1.6-6.5,1.6-9.9c0-3.4-0.4-6.8-1.6-9.9c-0.6-1.5-1.3-3-2.3-4.3
						c-1-1.2-2.3-2.1-3.9-2.2c-1.5-0.1-3.1,0.6-4.3,1.8c-1.2,1.2-2.2,2.7-2.9,4.3c-0.7,1.6-1.3,3.3-1.6,5
						C80.4,142.7,80.2,144.5,80.2,146.2z M80.2,146.2c0-3.5,0.5-7.1,1.7-10.4c0.6-1.7,1.4-3.3,2.6-4.7c1.2-1.4,2.9-2.6,5-2.7
						c2.1-0.1,4,0.9,5.4,2.3c1.4,1.4,2.4,3,3.2,4.7c1.6,3.4,2.2,7.2,2.2,10.9c0,3.7-0.7,7.4-2.2,10.9c-0.8,1.7-1.8,3.3-3.2,4.7
						c-1.4,1.4-3.3,2.4-5.4,2.3c-2.1-0.1-3.8-1.3-5-2.7c-1.2-1.4-2-3-2.6-4.7C80.7,153.3,80.2,149.8,80.2,146.2z" /></g></g><path fill="#2A5AA1" d="M156.5,121.2c-16.4,1-37.3-45.9-60.5-14.5c0,0,13.1-32.8,41.7-33.3c26-0.5,34.1,14.4,36.9,19.9
				C174.5,93.3,166.5,120.6,156.5,121.2z" /><path fill="#55B0D8" d="M155.7,121.2c0,0,8.2-15.1,5.9-32.2c-1.1-8.2-4.6-16.8-12.6-24.4c-6.8-6.4-14.8,1.9-14.8,1.9
				S160.9,80.7,155.7,121.2z" /><path fill="#224286" d="M155.7,121.2c0,0,4.3-35.2-12.9-53.7c-8-8.7-14.4,7.4-14.4,7.4S152.8,87.7,155.7,121.2z" /><g><path fill="#577685" d="M180.5,204.6c-6.3,2-12.9,3.2-19.4,4.1c-6.6,0.9-13.2,1.3-19.8,1.5c-3.3,0-6.6,0.1-10-0.1
					c-1.7-0.1-3.3-0.1-5-0.2l-5-0.3l-2.5-0.2l-2.5-0.3l-4.9-0.5c-3.3-0.4-6.6-1-9.8-1.5c3.3,0.3,6.6,0.7,9.9,1l4.9,0.4l2.5,0.2
					l2.5,0.1l5,0.2c1.7,0.1,3.3,0.1,5,0.1c3.3,0.1,6.6,0,9.9,0c6.6-0.1,13.2-0.6,19.8-1.3c1.6-0.2,3.3-0.4,4.9-0.6l2.5-0.3l2.4-0.4
					C174.1,206,177.3,205.4,180.5,204.6z" /></g><g><path fill="#577685" d="M181.2,208.6c-6.2,2.5-12.8,4-19.5,5.1c-6.6,1.1-13.4,1.6-20.1,1.7c-1.7,0-3.4,0-5.1-0.1
					c-0.8,0-1.7,0-2.5-0.1l-2.5-0.2l-5-0.3l-5-0.6l-2.5-0.3l-2.5-0.4l-5-0.8c-1.7-0.3-3.3-0.7-4.9-1.1l-4.9-1.1
					c3.3,0.5,6.6,1.2,9.9,1.7l5,0.7l2.5,0.3l2.5,0.2l5,0.5l5,0.3l2.5,0.1c0.8,0,1.7,0,2.5,0l5,0c6.7-0.1,13.4-0.6,20-1.5l2.5-0.3
					l2.5-0.4c1.7-0.3,3.3-0.6,4.9-1C174.7,210.5,178,209.7,181.2,208.6z" /></g><ellipse fill="#FFFFFF" cx="130.1" cy="142.1" rx="1.9" ry="2" /><ellipse fill="#FFFFFF" cx="167.1" cy="142.1" rx="2.2" ry="2" /><path fill="#8CBACC" d="M84,190.7c0,0-15.7,2.3-7,20.2c0,0,1.1-15.2,14-21.4L84,190.7z" /><path fill="#8CBACC" d="M83.2,187.9c0,0-12.3,0.9-16.8,14.9c0,0,18.7-15.9,25.1-11.1L83.2,187.9z" /><path fill="#8CBACC" d="M86,182.3c0,0-11.1-5.5-22,4.5c0,0,24.2-4.3,27.3,3L86,182.3z" /><path fill="#7CA4B7" d="M86.9,178.9c0,0,105.1,10.6,113.1-3.8c0.4-0.6,0.6-1.3,0.8-1.9l14.5,14.7c-19.1,18.3-129.8,9.7-129.8,9.7
				S77.9,184.9,86.9,178.9z" /><path fill="#7CA4B7" d="M86.9,142.5c0,0-12,29.3,14.2,43c18.8,9.9-8-89.6-8-89.6s-8.9-10.2-20,1.3L86.9,142.5z" /><path fill="#7CA4B7" d="M142.7,126.6l-23.5,8.9C119.2,135.4,124.5,118.1,142.7,126.6z" /><path fill="#7CA4B7" d="M158.2,134.1l30.2-0.9C188.4,133.2,171.5,115.9,158.2,134.1z" /><path fill="#608090" d="M178.6,169.4c0,0-6.9-3.7-23.5-3.9c-10.3-0.1-22.2,5.8-37.4-1.1c5.7,5.3,10.5,7.5,17,11.3l38.3,1.4
				C177.1,175.4,179,173.5,178.6,169.4z" /><path fill="#608090" d="M117.8,164.4c15.2,6.9,27.1,1,37.4,1.1c7.7,0.1,13.3,0.9,17.1,1.8c-1.7,3.1-3.3,6.5-5.1,9.7l-32.4-1.2
				C128.3,171.9,123.4,169.7,117.8,164.4z" /><path fill="#7CA4B7" d="M178.6,169.4c0.4,4.1-1.6,6-5.5,7.8l-6-0.2c1.8-3.2,3.3-6.5,5.1-9.7C176.6,168.3,178.6,169.4,178.6,169.4
				z" /><g><path fill="#577685" d="M191.7,142.5c0.1-0.7,0.5-1.3,0.9-1.9c0.4-0.5,0.9-1,1.5-1.3c0.6-0.3,1.2-0.6,1.9-0.7
					c0.7-0.1,1.4,0,2.1,0.3c-0.6,0.5-1.1,0.8-1.5,1.1c-0.5,0.3-0.9,0.6-1.4,0.9c-0.5,0.3-1,0.6-1.5,0.8
					C193,142.1,192.4,142.4,191.7,142.5z" /></g><g><path fill="#577685" d="M199.3,162.1c0.7-1.1,1.6-1.9,2.6-2.6c1-0.7,2.1-1.2,3.3-1.6c1.2-0.4,2.5-0.5,3.7-0.4
					c1.3,0.1,2.5,0.6,3.5,1.3c-1.3,0.1-2.4,0.1-3.5,0.3c-1.1,0.2-2.1,0.4-3.2,0.7C203.7,160.5,201.7,161.3,199.3,162.1z" /></g><g><path fill="#577685" d="M197.7,177.5c1.4,0.7,2.6,1.7,3.7,2.8c1.1,1.1,2.1,2.3,2.8,3.7c0.8,1.4,1.3,2.9,1.5,4.5
					c0.2,1.6,0,3.3-0.8,4.7c-0.1-1.6-0.3-3-0.7-4.3c-0.4-1.4-1.1-2.6-1.7-3.9C201.2,182.4,199.5,180.1,197.7,177.5z" /></g><g><path fill="#577685" d="M172.3,182.3c0.7,1.2,1.2,2.5,1.5,3.9c0.4,1.3,0.6,2.7,0.7,4.1c0.1,1.4,0.1,2.8-0.1,4.2
					c-0.2,1.4-0.5,2.8-1.3,4c0-1.4-0.2-2.7-0.3-4l-0.4-3.9c-0.1-1.3-0.2-2.6-0.3-4C172.2,185,172.2,183.7,172.3,182.3z" /></g><g><path fill="#577685" d="M143.4,182.4c0.4,1.4,0.6,2.8,0.7,4.3c0.1,1.4,0.2,2.8,0.2,4.2c0,1.4-0.1,2.8-0.3,4.2
					c-0.2,1.4-0.4,2.8-0.8,4.2c-0.4-1.4-0.6-2.8-0.7-4.3c-0.1-1.4-0.2-2.8-0.2-4.2c0-1.4,0.1-2.8,0.3-4.2
					C142.8,185.2,143,183.8,143.4,182.4z" /></g><g><path fill="#577685" d="M114.3,181.1c-0.3,3.1-0.8,6-0.9,8.9c-0.1,1.5-0.1,2.9,0,4.3c0.1,1.4,0.4,2.9,0.8,4.4
					c-1.1-1.1-1.9-2.6-2.3-4.1c-0.4-1.5-0.6-3.1-0.5-4.7c0.1-1.6,0.4-3.1,0.9-4.6C112.7,183.8,113.4,182.4,114.3,181.1z" /></g><g><path fill="#577685" d="M92.3,197.3c-1.1-1.2-1.9-2.6-2.4-4.1c-0.3-0.8-0.4-1.6-0.5-2.4c-0.1-0.8-0.1-1.6,0-2.4
					c0.1-1.6,0.5-3.2,1.2-4.7c0.7-1.5,1.5-2.8,2.7-3.9c-0.5,1.5-0.9,3-1.2,4.4c-0.3,1.4-0.5,2.9-0.7,4.3c-0.1,0.7,0,1.4-0.1,2.2
					c0,0.7,0.1,1.4,0.2,2.2C91.6,194.3,92,195.7,92.3,197.3z" /></g><g><path fill="#577685" d="M94.2,100.6c-1.7-0.6-3.3-1-4.9-1.2c-1.6-0.2-3.2-0.3-4.8-0.1c-0.4,0-0.8,0.1-1.2,0.2
					c-0.4,0.1-0.8,0.1-1.2,0.2l-1.2,0.3c-0.4,0.1-0.8,0.3-1.2,0.4l-0.6,0.2l-0.6,0.2l-1.2,0.5c-0.8,0.3-1.5,0.7-2.4,1.1
					c0.6-0.7,1.2-1.3,1.8-1.9c0.7-0.5,1.4-1.1,2.2-1.5c0.4-0.2,0.8-0.4,1.2-0.6l1.3-0.5c0.4-0.2,0.9-0.3,1.3-0.4
					c0.4-0.1,0.9-0.2,1.3-0.2c1.8-0.2,3.7,0,5.4,0.6C91.4,98.4,93,99.3,94.2,100.6z" /></g><g><path fill="#577685" d="M99.3,121c-1.6-0.5-3.2-0.9-4.8-1.2c-1.6-0.3-3.2-0.4-4.7-0.4c-0.8,0-1.5,0.1-2.3,0.2
					c-0.8,0.2-1.5,0.3-2.3,0.5c-1.5,0.4-3,1.2-4.5,1.9c1-1.3,2.3-2.6,3.9-3.3c0.8-0.5,1.6-0.7,2.5-1c0.9-0.2,1.8-0.3,2.6-0.3
					c1.8-0.1,3.5,0.3,5.2,0.9C96.5,119,98,119.8,99.3,121z" /></g><g><path fill="#577685" d="M104.4,144.5c-1.3,0.6-2.6,1.1-4,1.4c-1.3,0.4-2.7,0.7-4.1,0.9c-1.4,0.2-2.7,0.4-4.1,0.4
					c-1.4,0.1-2.8,0.1-4.2-0.1c1.3-0.6,2.6-1.1,4-1.4c1.3-0.4,2.7-0.7,4.1-0.9c1.4-0.2,2.7-0.4,4.1-0.4
					C101.5,144.3,102.9,144.3,104.4,144.5z" /></g><g><path fill="#577685" d="M107.9,167.1c-0.9,1.1-2,2-3.2,2.8c-1.2,0.8-2.5,1.4-3.8,1.9c-1.4,0.5-2.9,0.7-4.4,0.6
					c-1.5-0.1-3.1-0.7-3.9-2c1.3,0.5,2.6,0.6,3.9,0.4c1.3-0.2,2.5-0.5,3.7-0.9C102.7,169.1,105.2,168,107.9,167.1z" /></g><g><path fill="#577685" d="M85.5,167.4c-0.5-0.8-0.7-1.7-0.8-2.6c0-0.9,0.1-1.9,0.6-2.8c0.5-0.9,1.3-1.6,2.2-2
					c0.9-0.4,1.9-0.3,2.8,0.1c-0.8,0.5-1.5,0.8-2,1.3c-0.5,0.5-0.9,1-1.2,1.6C86.5,164.1,86.1,165.6,85.5,167.4z" /></g><g><path fill="#6592A0" d="M108.4,180.7c-5,0.3-10.1,0.2-15.1,0.2c-0.4,0-0.7-0.3-0.8-0.7l0,0c-0.6-3.1-1.2-6.2-1.8-9.3
					c-0.6-3.1-1.1-6.2-1.5-9.4c-0.5-3.1-0.9-6.3-1.3-9.4c-0.4-3.1-0.7-6.3-1-9.5c0.8,3.1,1.6,6.2,2.2,9.3c0.7,3.1,1.3,6.2,1.9,9.3
					c0.6,3.1,1.2,6.2,1.7,9.4c0.5,3.1,1,6.3,1.5,9.4l-0.8-0.7C98.3,179.5,103.4,180,108.4,180.7z" /></g></g></g></g></svg>