<svg id="Layer_1" data-name="Layer 1" xmlns="http://www.w3.org/2000/svg" viewBox="0 0 45 45" width="45" height="45" preserveAspectRatio="none"><defs><style>.cls-1{fill:#013c24;}.cls-2{fill:#4ab749;}.cls-3{fill:#8b5e3c;}.cls-4{fill:#ffc641;}.cls-5{fill:#c4a25f;}</style></defs><path class="cls-1" d="M17.53,22.6s3.39-4.51,4.07-4.51l5.24,8.27S32.71,17.19,38.5,8.08l4.94,6.84s-9.63,9.4-15.35,17.55Z" /><path class="cls-2" d="M17.71,20.64s3.39-4.51,4.07-4.51L27,24.4s5.87-9.16,11.66-18.27L43.62,13S34,22.37,28.27,30.52Z" /><polygon class="cls-3" points="9.39 28.13 10.5 21.35 16.19 27.07 21.39 26.1 18.25 32.09 20.62 38.1 12.94 35.65 7.31 38.87 7.6 33.61 1.38 28.88 9.39 28.13" /><polygon class="cls-3" points="9.11 12.12 12.06 6.13 15.6 12.69 20.56 14.43 16.32 18.72 16.25 24.21 10.96 20.23 4.53 21.31 7.04 17.49 2.21 10.64 9.11 12.12" /><polygon class="cls-4" points="8.14 27.16 10.5 21.35 14.89 26.82 21.39 26.1 17.01 31.89 19.37 37.13 12.32 34.75 7.31 38.87 7.67 32.46 1.38 28.88 8.14 27.16" /><polygon class="cls-4" points="8.37 10.8 12.06 6.13 14.65 12.36 20.56 14.43 15.58 17.4 15.86 23.15 10.21 18.91 4.53 21.31 7.04 15.66 2.21 10.64 8.37 10.8" /><polygon class="cls-5" points="1.38 28.88 7.6 26.51 10.5 21.35 8.14 27.16 1.38 28.88" /><polygon class="cls-5" points="2.25 10.73 7.89 10.35 12.11 6.22 8.41 10.89 2.25 10.73" /></svg>