<svg version="1.1" xmlns="http://www.w3.org/2000/svg" x="0px" y="0px" viewBox="0 0 39 39" style="enable-background:new 0 0 39 39;" width="39" height="39" preserveAspectRatio="none"><style type="text/css">
	.st73{fill:#FCFCFC;}
	.st84{fill:#4B5E6D;}
</style><g><circle class="st73" cx="19.5" cy="19.5" r="18.5" /></g><g><path class="st84" d="M15.5,21.6h-5.4v-2.2h5.4V21.6z" /><path class="st84" d="M20.4,18.3h1.5c0.7,0,1.2-0.2,1.6-0.5c0.3-0.4,0.5-0.8,0.5-1.4c0-0.3,0-0.5-0.1-0.7
			c-0.1-0.2-0.2-0.4-0.3-0.6c-0.2-0.2-0.4-0.3-0.6-0.4c-0.2-0.1-0.5-0.1-0.8-0.1c-0.3,0-0.5,0-0.7,0.1c-0.2,0.1-0.4,0.2-0.6,0.3
			s-0.3,0.3-0.4,0.5c-0.1,0.2-0.1,0.4-0.1,0.7h-2.8c0-0.6,0.1-1.1,0.4-1.6c0.2-0.5,0.6-0.9,1-1.2c0.4-0.3,0.9-0.6,1.4-0.8
			s1.1-0.3,1.8-0.3c0.7,0,1.3,0.1,1.9,0.3c0.6,0.2,1.1,0.4,1.5,0.8c0.4,0.3,0.7,0.7,1,1.2c0.2,0.5,0.3,1.1,0.3,1.7
			c0,0.3,0,0.6-0.1,0.9s-0.2,0.6-0.4,0.8c-0.2,0.3-0.4,0.5-0.7,0.7c-0.3,0.2-0.6,0.4-0.9,0.6c0.8,0.3,1.4,0.7,1.8,1.3
			c0.4,0.6,0.6,1.2,0.6,2c0,0.7-0.1,1.2-0.4,1.7c-0.3,0.5-0.6,0.9-1,1.3c-0.4,0.3-1,0.6-1.6,0.8c-0.6,0.2-1.3,0.3-2,0.3
			c-0.6,0-1.2-0.1-1.7-0.2c-0.6-0.2-1.1-0.4-1.5-0.7c-0.4-0.3-0.8-0.7-1.1-1.2c-0.3-0.5-0.4-1.1-0.4-1.8H20c0,0.3,0.1,0.5,0.2,0.7
			c0.1,0.2,0.2,0.4,0.4,0.6c0.2,0.2,0.4,0.3,0.6,0.4c0.2,0.1,0.5,0.1,0.8,0.1c0.3,0,0.6,0,0.9-0.1c0.3-0.1,0.5-0.2,0.7-0.4
			c0.2-0.2,0.3-0.4,0.4-0.6c0.1-0.2,0.1-0.5,0.1-0.8c0-0.4-0.1-0.7-0.2-1c-0.1-0.3-0.3-0.5-0.5-0.6c-0.2-0.2-0.4-0.3-0.7-0.4
			c-0.3-0.1-0.6-0.1-1-0.1h-1.5V18.3z" /></g></svg>