<svg version="1.1" xmlns="http://www.w3.org/2000/svg" xmlns:xlink="http://www.w3.org/1999/xlink" x="0px" y="0px" viewBox="0 0 276 46" style="enable-background:new 0 0 276 46;" xml:space="preserve" width="276" height="46" preserveAspectRatio="none"><style type="text/css">
	.st76{fill:#E6E6E6;}
	.st191{fill:none;stroke:#576D7C;stroke-miterlimit:10;}
	.st200{fill:none;stroke:#576D7C;stroke-width:2;stroke-linecap:round;stroke-miterlimit:10;}
	.st201{fill:none;stroke:#88A2B3;stroke-width:2;stroke-linecap:round;stroke-miterlimit:10;}
	.st212{fill:none;stroke:#3A4C59;stroke-miterlimit:10;}
	.st274{fill:#7492A6;}
	.st277{fill:#93AFC2;}
</style><path class="st277" d="M269.3,44.7H6.7c-3,0-5.5-2.5-5.5-5.5V6.8c0-3,2.5-5.5,5.5-5.5h262.7c3,0,5.5,2.5,5.5,5.5v32.5
	C274.8,42.3,272.4,44.7,269.3,44.7z M6.7,2.3c-2.5,0-4.5,2-4.5,4.5v32.5c0,2.5,2,4.5,4.5,4.5h262.7c2.5,0,4.5-2,4.5-4.5V6.8
	c0-2.5-2-4.5-4.5-4.5H6.7z" /><path class="st274" d="M269.3,44.2H6.7c-2.8,0-5-2.2-5-5V6.8c0-2.8,2.2-5,5-5h262.7c2.8,0,5,2.2,5,5v32.5
	C274.3,42,272.1,44.2,269.3,44.2z M259.5,34.2V11.8c0-1.7-1.4-3-3-3H20.3c-1.7,0-3,1.4-3,3v22.4c0,1.7,1.4,3,3,3h236.2
	C258.2,37.3,259.5,35.9,259.5,34.2z" /><path class="st76" d="M17.2,11.8c0-1.7,1.4-3,3-3h236.2c1.7,0,3,1.4,3,3H17.2z" /><path class="st212" d="M17.2,11.8c0-1.7,1.4-3,3-3" /><path class="st191" d="M259.5,34.2c0,1.7-1.4,3-3,3H20.3c-1.7,0-3-1.4-3-3V11.8" /><path class="st212" d="M20.3,8.8h236.2c1.7,0,3,1.4,3,3v22.4" /><g><g><line class="st200" x1="11.6" y1="36.4" x2="11.6" y2="11.1" /><line class="st201" x1="10.9" y1="35.9" x2="10.9" y2="10.6" /></g><g><line class="st200" x1="7.1" y1="36.4" x2="7.1" y2="11.1" /><line class="st201" x1="6.4" y1="35.9" x2="6.4" y2="10.6" /></g></g><g><g><line class="st200" x1="269.6" y1="10.6" x2="269.6" y2="35.9" /><line class="st201" x1="268.9" y1="11.1" x2="268.9" y2="36.4" /></g><g><line class="st200" x1="265.1" y1="10.6" x2="265.1" y2="35.9" /><line class="st201" x1="264.4" y1="11.1" x2="264.4" y2="36.4" /></g></g></svg>