<svg version="1.1" xmlns="http://www.w3.org/2000/svg" x="0px" y="0px" viewBox="0 0 18 28" style="enable-background:new 0 0 18 28;" width="39" height="39" preserveAspectRatio="none">
<style type="text/css">
	.st188{fill:#576D7C;}
</style>
	<path class="st188" d="M15.7,26.5c1.5-1,0.9-24.5-1.1-25C12.6,0.9,1,11.7,1.4,14.7C1.9,17.8,14.2,27.4,15.7,26.5"/>
	<path class="st188" d="M15.4,27c-0.4,0-0.8-0.1-1.4-0.4c-3.4-1.6-12.7-8.9-13.1-11.8C0.6,12.6,5.4,7.6,8.3,5
		c1.8-1.6,5.1-4.4,6.4-4c0.5,0.1,1,0.7,1.5,3.7c0.8,5.3,1.4,21.1-0.3,22.2l0,0C15.8,27,15.7,27,15.4,27z M14.4,1.9
		c-0.5,0-2.8,1.3-6.1,4.4c-3.8,3.5-6.6,7.1-6.4,8.4c0.3,1.8,5.8,6.8,10.1,9.7c2.4,1.6,3.2,1.7,3.4,1.7c0,0,0,0,0,0
		c0.7-1.2,0.9-11.6,0.1-19.1C15.1,2.5,14.5,2,14.4,1.9C14.4,1.9,14.4,1.9,14.4,1.9z"/>
</svg>
