<svg version="1.1" xmlns="http://www.w3.org/2000/svg" xmlns:xlink="http://www.w3.org/1999/xlink" x="0px" y="0px" viewBox="0 0 232 399" style="enable-background:new 0 0 232 399;" width="232" height="399" preserveAspectRatio="none"><style type="text/css">
	.st73{fill:#FCFCFC;}
	.st80{fill:none;stroke:#4B5E6D;stroke-linecap:round;stroke-linejoin:round;stroke-miterlimit:10;}
	.st81{fill:none;stroke:#4B5E6D;stroke-width:2;stroke-linecap:round;stroke-miterlimit:10;}
	.st83{fill:none;stroke:#4B5E6D;stroke-linecap:round;stroke-miterlimit:10;}
	.st84{fill:#4B5E6D;}
	.st107{fill:#657787;}
	.st108{fill:#CC786E;}
	.st128{fill:#DE7962;}
	.st129{fill:#C74949;}
	.st131{fill:#FFE9D4;}
	.st172{fill:#A0644E;}
	.st177{fill:#D1634B;}
	.st178{fill:#BF4943;}
	.st205{fill:#DEC4B8;}
	.st206{fill:#F0E2CB;}
	.st207{fill:#9C3948;}
	.st208{fill:#E66251;}
	.st267{fill:#918DCC;}
	.st268{fill:#A099DE;}
	.st269{fill:#FFC852;}
	.st270{fill:#EB8D68;}
	.st271{fill:#F7A76D;}
</style><path class="st270" d="M184.6,31.2l-0.1,364.5l-72.9-0.1l1.5-364.8C136.9,30.5,160.8,31,184.6,31.2z M162,46.6
	c-4.5-1.6-9-2.3-13.5-2.2c-3.9,0.1-7.8,0.8-11.8,2.2L135.2,65h25.9h2L162,46.6z M153.3,148.4c-5.8-0.6-11.7,0.1-17.8,2.5l0,18.1
	v0.2h27.9v-18.3C160.1,149.6,156.7,148.8,153.3,148.4z M174.3,189.2c-3.6-2.3-7.1-1.9-10.6,1.2l0.8,13.2l0.1,1.2l10.2-0.9
	l1.1-13.5C175.4,189.9,174.8,189.6,174.3,189.2z M133.4,189.8c-3.6-2.3-7.1-1.9-10.6,1.2l0,12.5v1.1h12L135,191
	C134.4,190.5,133.9,190.1,133.4,189.8z M153.7,189.8c-3.6-2.3-7.1-1.9-10.6,1.2l0.4,12.4l0,1.1L155,204l0.2-13.1
	C154.7,190.5,154.2,190.1,153.7,189.8z M167.5,217.4c-4.3-2.7-9.4-1.3-13,2.1l0.8,20.3l0,1l14.2,0.4l0.2-21.9
	C169.1,218.5,168.3,217.9,167.5,217.4z M141.5,217.4c-4.3-2.7-9.4-1.3-13,2.1l0.8,20.3l0,1l14.2,0.4l0.2-21.9
	C143.1,218.5,142.3,217.9,141.5,217.4z M168.4,116c-4.2-2.4-9.2-1-12.7,2.2l0.8,20.3l0,1l14.2,0.4l0.2-21.9
	C170.1,117.2,169.2,116.5,168.4,116z M139.7,115.9c-3.9-1.4-8.1,0.1-11.2,2.9l0.8,20.3l0,0.9l14.2,0.4l0.2-21.9
	C142.5,117.3,141.1,116.4,139.7,115.9z M170.4,76.6c-2.1-0.1-4.2,0.8-6.3,2.6l0.9,14.1l0,0.3l10.2-0.9l1.1-13.5
	C174.4,77.5,172.4,76.7,170.4,76.6z M149.4,76.6c-2,0-4.1,0.9-6.1,2.7l0.4,13.3l0,0.2l11.5-0.4l0.2-13.1
	C153.4,77.5,151.4,76.6,149.4,76.6z M129.3,76.7c-2.4-0.4-4.9,0.4-7.3,2.5v13.1v0.4h12l0.2-13.5C132.6,77.8,130.9,77,129.3,76.7
	z M162,257.7c-4.5-1.6-9-2.3-13.5-2.2c-3.9,0.1-7.8,0.8-11.8,2.2l-1.4,18.4h25.9h2L162,257.7z M153.3,364.1
	c-5.8-0.6-11.7,0.1-17.8,2.5l0,18.1v0.2h27.9v-18.3C160.1,365.3,156.7,364.5,153.3,364.1z M166.9,325.1
	c-3.9-1.4-8.1,0.1-11.2,2.9l0.8,20.3l0,0.9l14.2,0.4l0.2-21.9C169.7,326.5,168.3,325.6,166.9,325.1z M138.7,325.7
	c-3.9-1.4-8.1,0.1-11.2,2.9l0.8,20.3l0,0.9l14.2,0.4l0.2-21.9C141.5,327,140.1,326.2,138.7,325.7z M170.4,289.3
	c-2.1-0.1-4.2,0.8-6.3,2.6L165,306l0,0.3l10.2-0.9l1.1-13.5C174.4,290.3,172.4,289.4,170.4,289.3z M149.4,289.3
	c-2,0-4.1,0.9-6.1,2.7l0.4,13.3l0,0.2l11.5-0.4l0.2-13.1C153.4,290.2,151.4,289.3,149.4,289.3z M129.3,289.4
	c-2.4-0.4-4.9,0.4-7.3,2.5v13.1v0.4h12l0.2-13.5C132.6,290.5,130.9,289.7,129.3,289.4z" /><polyline class="st80" points="191.2,313.3 229.3,313.3 229.3,290.7" /><line class="st81" x1="191.2" y1="295.2" x2="229.3" y2="295.2" /><line class="st81" x1="191.2" y1="311.3" x2="229.3" y2="311.3" /><line class="st83" x1="220.7" y1="310.9" x2="219.5" y2="290.3" /><line class="st83" x1="209.8" y1="310.9" x2="209.8" y2="290.3" /><ellipse class="st84" cx="229.4" cy="290.1" rx="1.4" ry="1.4" /><ellipse class="st84" cx="229.5" cy="81.1" rx="1.4" ry="1.4" /><ellipse class="st84" cx="219.5" cy="290.1" rx="1.4" ry="1.4" /><ellipse class="st84" cx="209.7" cy="290.1" rx="1.4" ry="1.4" /><ellipse class="st84" cx="200.5" cy="291.3" rx="1.4" ry="1.4" /><line class="st83" x1="200.7" y1="292.3" x2="199.8" y2="311.8" /><polyline class="st107" points="178.3,19.3 190.4,19.3 190,7.2 193.4,7.2 193.4,23 177.2,23" /><rect x="190.1" y="138.5" class="st172" width="13.7" height="2.7" /><rect x="189.9" y="230" class="st172" width="17.5" height="2.7" /><polyline class="st80" points="191.2,104.6 229.3,104.6 229.3,82" /><line class="st81" x1="191.2" y1="86.4" x2="229.3" y2="86.4" /><line class="st81" x1="191.2" y1="102.6" x2="229.3" y2="102.6" /><path class="st267" d="M193.5,339.1l-4.9,23.5c10-1.7,11.5,4.8,11.5,4.8s0,0,0-0.1C200.4,350.6,197.2,342.9,193.5,339.1z" /><path class="st268" d="M195.2,338c7.5,4,16.6,12.3,18.4,29.4c0.1-0.6,0.9-4.6,5.6-4.9c4.5-0.3,5.7,4.8,5.7,4.8
	C226.2,342,201.5,338.5,195.2,338z" /><path class="st269" d="M195.2,338c-0.9-0.1-2.9-0.1-2.9-0.1l-0.3,1.2c3.6,3.8,8.3,11.5,8.1,28.3c0.2-0.7,2-5.2,6.6-4.9
	c5,0.3,6.8,5,6.8,5s0,0,0-0.1C211.8,350.2,202.8,341.9,195.2,338z" /><path class="st177" d="M102.3,391.5l12.3,4l1.5-364.8c-3.4,0-7.3,0.1-13.8,0.2V391.5z" /><path class="st178" d="M102.8,30.6l0,3.9c3.4-0.1,6.8-0.1,10.3-0.2l0-3.7L102.8,30.6z" /><path class="st177" d="M113.1,28.5l0,5.9c23.8-0.3,47.7,0.3,71.5,0.4l0-5.8L113.1,28.5z" /><path class="st271" d="M184.5,395.7l8.6-3.4l0-31.6V348v-24.3l-3.3-5.3l3.3-6.7v-24.9v-9v-24.1l-2.3-4.3l2.3-6.7v-26.4V205
	v-22.4l-2.3-4l2.3-5.3v-27.8v-11v-21.7l-2.3-5.3l2.3-4.7V73v-9.3V31.3c-2.8,0-5.7,0-8.5,0L184.5,395.7z" /><path class="st128" d="M184.6,29l0,5.8c2.8,0,5.7,0,8.5,0v-5.8L184.6,29z" /><line class="st83" x1="220.7" y1="102.2" x2="219.5" y2="81.5" /><line class="st83" x1="209.8" y1="102.2" x2="209.8" y2="81.5" /><line class="st83" x1="200.7" y1="82.9" x2="199.8" y2="102.4" /><path class="st269" d="M226.5,247.8c-8.6,4.2-17.5,4.7-26.6,0v-124c9.1-5.5,18-4.9,26.6,0V247.8z" /><g><g><path class="st108" d="M206.1,136.9v-1.8h6.2v1.8l-1.6,0.3v4.3h6.1v-4.3l-1.6-0.3v-1.8h1.6h3h1.6v1.8l-1.6,0.3V148l1.6,0.3
			v1.8h-6.2v-1.8l1.6-0.3v-4.1h-6.1v4.1l1.6,0.3v1.8h-6.2v-1.8l1.6-0.3v-10.8L206.1,136.9z" /></g></g><g><g><path class="st108" d="M220.2,163c0,2.2-0.6,4-1.9,5.5s-2.9,2.2-4.9,2.2c-2,0-3.7-0.7-4.9-2.2c-1.2-1.4-1.9-3.3-1.9-5.5v-0.2
			c0-2.2,0.6-4,1.9-5.4c1.2-1.4,2.9-2.2,4.9-2.2c2,0,3.7,0.7,4.9,2.2c1.3,1.4,1.9,3.3,1.9,5.4V163z M217.2,162.7
			c0-1.6-0.3-2.8-1-3.8s-1.6-1.5-2.9-1.5s-2.2,0.5-2.8,1.4s-0.9,2.2-0.9,3.8v0.2c0,1.6,0.3,2.9,0.9,3.8s1.6,1.4,2.8,1.4
			c1.3,0,2.2-0.5,2.9-1.4s1-2.2,1-3.8V162.7z" /></g></g><g><g><path class="st108" d="M220.8,176.1v4h-2.3l-0.1-1.7h-2.8V189l1.6,0.3v1.8H211v-1.8l1.6-0.3v-10.6h-2.8l-0.1,1.7h-2.3v-4
			H220.8z" /></g></g><g><g><path class="st108" d="M218.1,205H213v4.3h4.8l0.1-1.8h2.3v4.1h-11.9v-1.8l1.6-0.3v-10.8l-1.6-0.3v-1.8h1.6h10.3v4.1H218
			l-0.1-1.8H213v3.8h5.1V205z" /></g></g><g><g><path class="st108" d="M209.3,233.5v-1.8l1.6-0.3v-10.8l-1.6-0.3v-1.8h1.6h3h1.6v1.8l-1.6,0.3v10.6h4.2l0.1-1.9h2.3v4.2H209.3
			z" /></g></g><g><path class="st73" d="M205.4,136.4v-1.8h6.2v1.8l-1.6,0.3v4.3h6.1v-4.3l-1.6-0.3v-1.8h1.6h3h1.6v1.8l-1.6,0.3v10.8l1.6,0.3v1.8
		h-6.2v-1.8l1.6-0.3v-4.1H210v4.1l1.6,0.3v1.8h-6.2v-1.8l1.6-0.3v-10.8L205.4,136.4z" /></g><g><path class="st73" d="M219.5,162.5c0,2.2-0.6,4-1.9,5.5s-2.9,2.2-4.9,2.2c-2,0-3.7-0.7-4.9-2.2c-1.2-1.4-1.9-3.3-1.9-5.5v-0.2
		c0-2.2,0.6-4,1.9-5.4c1.2-1.4,2.9-2.2,4.9-2.2c2,0,3.7,0.7,4.9,2.2c1.3,1.4,1.9,3.3,1.9,5.4V162.5z M216.5,162.2
		c0-1.6-0.3-2.8-1-3.8s-1.6-1.5-2.9-1.5s-2.2,0.5-2.8,1.4s-0.9,2.2-0.9,3.8v0.2c0,1.6,0.3,2.9,0.9,3.8s1.6,1.4,2.8,1.4
		c1.3,0,2.2-0.5,2.9-1.4s1-2.2,1-3.8V162.2z" /></g><g><path class="st73" d="M220.2,175.6v4h-2.3l-0.1-1.7H215v10.6l1.6,0.3v1.8h-6.2v-1.8l1.6-0.3v-10.6h-2.8l-0.1,1.7h-2.3v-4H220.2
		z" /></g><g><path class="st73" d="M217.4,204.5h-5.1v4.3h4.8l0.1-1.8h2.3v4.1h-11.9v-1.8l1.6-0.3v-10.8l-1.6-0.3v-1.8h1.6h10.3v4.1h-2.3
		l-0.1-1.8h-4.8v3.8h5.1V204.5z" /></g><g><path class="st73" d="M208.6,232.9v-1.8l1.6-0.3v-10.8l-1.6-0.3v-1.8h1.6h3h1.6v1.8l-1.6,0.3v10.6h4.2l0.1-1.9h2.3v4.2H208.6z" /></g><path class="st129" d="M148.5,44.4c-4.6-0.1-9.2,0.6-13.8,2.2L133.2,65h2l1.4-18.4C140.6,45.3,144.6,44.5,148.5,44.4z" /><rect x="131.3" y="64.4" class="st131" width="35.2" height="2.8" /><path class="st129" d="M153.3,148.4c-6.3-1-12.9-0.4-19.7,2.3l0,18.3h1.8l0-18.1C141.6,148.5,147.6,147.8,153.3,148.4z" /><rect x="131.3" y="168.5" class="st131" width="35.2" height="2.8" /><rect x="116.9" y="150.4" class="st271" width="6.5" height="3.7" /><rect x="114.2" y="58.4" class="st271" width="6.5" height="3.4" /><rect x="118.8" y="63" class="st271" width="6.5" height="3.4" /><rect x="122.2" y="58.3" class="st271" width="6.5" height="3.4" /><rect x="122.9" y="209" transform="matrix(-1 -1.224647e-16 1.224647e-16 -1 252.3002 421.4439)" class="st271" width="6.5" height="3.4" /><rect x="114.7" y="209" transform="matrix(-1 -1.224647e-16 1.224647e-16 -1 235.9237 421.4439)" class="st271" width="6.5" height="3.4" /><rect x="118.3" y="213.6" transform="matrix(-1 -1.224647e-16 1.224647e-16 -1 243.1708 430.7079)" class="st271" width="6.5" height="3.4" /><rect x="174.5" y="155.8" transform="matrix(-1 -1.224647e-16 1.224647e-16 -1 355.547 314.9434)" class="st271" width="6.5" height="3.4" /><rect x="170" y="151.2" transform="matrix(-1 -1.224647e-16 1.224647e-16 -1 346.4176 305.7603)" class="st271" width="6.5" height="3.4" /><rect x="166.6" y="155.9" transform="matrix(-1 -1.224647e-16 1.224647e-16 -1 339.6412 315.1721)" class="st271" width="6.5" height="3.4" /><path class="st129" d="M174.3,189.2c-4.1-3.4-8.1-3.4-12,0.1l0.9,14.4l1.4-0.1l-0.8-13.2C167.2,187.3,170.7,186.9,174.3,189.2z" /><path class="st129" d="M133.4,189.8c-4.1-3.4-8.1-3.4-12,0.1v13.5h1.4l0-12.5C126.3,187.8,129.8,187.5,133.4,189.8z" /><rect x="162" y="203.3" class="st131" width="14.9" height="2.4" /><path class="st129" d="M153.7,189.8c-4.1-3.4-8.1-3.4-12,0.1l0.4,13.5l1.4-0.1l-0.4-12.4C146.6,187.8,150.1,187.5,153.7,189.8z" /><rect x="141.4" y="203.5" class="st131" width="14.9" height="2.4" /><rect x="120.9" y="203.5" class="st131" width="14.9" height="2.4" /><path class="st129" d="M167.5,217.4c-4.5-4-10.4-2.7-14.4,1l0.9,21.3l1.4,0l-0.8-20.3C158.1,216.1,163.2,214.7,167.5,217.4z" /><rect x="152.1" y="239.5" class="st131" width="19.8" height="2.4" /><path class="st129" d="M141.5,217.4c-4.5-4-10.4-2.7-14.4,1l0.9,21.3l1.4,0l-0.8-20.3C132.1,216.1,137.2,214.7,141.5,217.4z" /><rect x="125.9" y="239.5" class="st131" width="19.8" height="2.4" /><path class="st129" d="M168.4,116c-4.5-3.7-10.2-2.4-14.1,1.2l0.9,21.3l1.4,0l-0.8-20.3C159.2,115,164.1,113.6,168.4,116z" /><rect x="153" y="138.5" class="st131" width="19.8" height="2.4" /><path class="st129" d="M139.7,115.9c-4.3-2.8-9.6-1.4-13.2,1.9l0.9,21.3l2,0.1l-0.8-20.3C131.6,115.9,135.8,114.5,139.7,115.9z" /><rect x="126" y="138.5" class="st131" width="19.8" height="2.4" /><path class="st129" d="M170.4,76.6c-2.6-0.6-5.1,0.2-7.7,2.5l0.9,14.4l1.4-0.1l-0.9-14.1C166.2,77.3,168.3,76.5,170.4,76.6z" /><rect x="162.4" y="91.9" class="st131" width="14.9" height="2.4" /><path class="st129" d="M149.4,76.6c-2.6-0.6-5.1,0.2-7.6,2.5l0.4,13.5l1.6-0.1l-0.4-13.3C145.3,77.4,147.3,76.5,149.4,76.6z" /><rect x="141.5" y="91.9" class="st131" width="14.9" height="2.4" /><path class="st129" d="M129.3,76.7c-2.9-1.1-5.8-0.4-8.6,2.2v13.5h1.4V79.2C124.4,77.1,126.8,76.2,129.3,76.7z" /><rect x="120.5" y="92.1" class="st131" width="14.9" height="2.4" /><path class="st129" d="M148.5,255.5c-4.6-0.1-9.2,0.6-13.8,2.2l-1.4,18.4h2l1.4-18.4C140.6,256.3,144.6,255.6,148.5,255.5z" /><rect x="131.3" y="275.4" class="st131" width="35.2" height="2.8" /><path class="st129" d="M153.3,364.1c-6.3-1-12.9-0.4-19.7,2.3l0,18.3h1.8l0-18.1C141.6,364.2,147.6,363.5,153.3,364.1z" /><rect x="131.3" y="384.2" class="st131" width="35.2" height="2.8" /><rect x="170.7" y="263" class="st271" width="6.5" height="3.7" /><rect x="166.9" y="267.7" class="st271" width="6.5" height="3.7" /><rect x="174.6" y="267.7" class="st271" width="6.5" height="3.7" /><rect x="123.4" y="371.6" transform="matrix(-1 -1.224647e-16 1.224647e-16 -1 253.3355 746.5661)" class="st271" width="6.5" height="3.4" /><rect x="118.9" y="367" transform="matrix(-1 -1.224647e-16 1.224647e-16 -1 244.2061 737.383)" class="st271" width="6.5" height="3.4" /><rect x="115.5" y="371.7" transform="matrix(-1 -1.224647e-16 1.224647e-16 -1 237.4296 746.7947)" class="st271" width="6.5" height="3.4" /><path class="st129" d="M166.9,325.1c-4.3-2.8-9.6-1.4-13.2,1.9l0.9,21.3l2,0.1l-0.8-20.3C158.8,325.1,163,323.7,166.9,325.1z" /><rect x="153" y="348.3" class="st131" width="19.8" height="2.4" /><path class="st129" d="M138.7,325.7c-4.3-2.8-9.6-1.4-13.2,1.9l0.9,21.3l2,0.1l-0.8-20.3C130.6,325.7,134.8,324.3,138.7,325.7z" /><rect x="125" y="348.3" class="st131" width="19.8" height="2.4" /><path class="st129" d="M170.4,289.3c-2.6-0.6-5.1,0.2-7.7,2.5l0.9,14.4l1.4-0.1l-0.9-14.1C166.2,290.1,168.3,289.2,170.4,289.3z
	" /><rect x="162.4" y="304.6" class="st131" width="14.9" height="2.4" /><path class="st129" d="M149.4,289.3c-2.6-0.6-5.1,0.2-7.6,2.5l0.4,13.5l1.6-0.1l-0.4-13.3C145.3,290.1,147.3,289.3,149.4,289.3z
	" /><rect x="141.5" y="304.6" class="st131" width="14.9" height="2.4" /><path class="st129" d="M129.3,289.4c-2.9-1.1-5.8-0.4-8.6,2.2v13.5h1.4v-13.1C124.4,289.8,126.8,289,129.3,289.4z" /><rect x="120.5" y="304.8" class="st131" width="14.9" height="2.4" /><polygon class="st107" points="192,1.2 198.7,9.5 184.7,9.2 				" /><ellipse class="st84" cx="219.5" cy="81.3" rx="1.4" ry="1.4" /><ellipse class="st84" cx="209.7" cy="81.3" rx="1.4" ry="1.4" /><ellipse class="st84" cx="200.5" cy="81.9" rx="1.4" ry="1.4" /><rect x="118.3" y="259.9" class="st271" width="6.5" height="3.4" /><rect x="168.7" y="359" transform="matrix(-1 -8.907154e-11 8.907154e-11 -1 343.9866 721.3426)" class="st271" width="6.5" height="3.4" /><rect x="172.3" y="363.6" transform="matrix(-1 -8.907154e-11 8.907154e-11 -1 351.0294 730.5661)" class="st271" width="6.5" height="3.4" /><polygon class="st131" points="192.6,318.9 192.6,314.7 184.5,315.7 184.5,319.9 				" /><polygon class="st131" points="194,250.2 194,246.1 184.5,246.5 184.5,250.5 				" /><polygon class="st131" points="194.3,175.8 184.5,176.5 184.5,180.5 194.3,179.8 				" /><polygon class="st131" points="193.4,105.9 184.5,106.8 184.5,110.9 193.4,109.9 				" /><polygon class="st205" points="100.8,318.9 111.4,319.9 111.4,315.7 100.8,314.7 				" /><rect x="111.4" y="315.7" class="st206" width="73.1" height="4.2" /><rect x="111.4" y="246.5" class="st206" width="73.1" height="4" /><polygon class="st205" points="101.6,249.5 111.4,250.5 111.4,246.5 101.6,245.5 				" /><polygon class="st205" points="100.8,179.7 111.4,180.7 111.4,176.7 100.8,175.7 				" /><polygon class="st206" points="184.5,180.5 184.5,176.5 111.4,176.7 111.4,180.7 				" /><rect x="111.4" y="106.8" class="st206" width="73.1" height="4" /><polygon class="st205" points="100.8,105.8 100.8,109.9 111.4,110.9 111.4,106.8 				" /><path class="st207" d="M199.9,33.3L95.4,32.7l0.4-1.7c0,0,3.6-3,7.5-1.1c3.8-0.6,7.8-1.2,8.1-1.2c0.9-0.2,81.2-0.3,81.2-0.3
	l7.1,2.8L199.9,33.3z" /><path class="st208" d="M123,12.3c0,0-26.2,17.5-27.5,18.9c0.9-0.5,4.7-3.4,9.2,0.8c3.9-3.1,7.8-3.1,12.2,0.5
	c3.2-4.1,9.9-4.5,13.5,0.1c4.9-5.3,9.5-3.9,12.2,0c4-4.2,10.4-3.7,13.2,0c4.3-3.8,8.8-3.4,12.1,0c4.4-3.8,8.5-2.7,11.1,0
	c3.3-3,7.7-2.7,11,0c3.8-2.8,7.1-2.4,9.9-1.1c-7.3-5.1-28.9-18.4-28.9-18.4L123,12.3z" /><g><path class="st207" d="M144,14.4c-0.1,5.2-0.5,10.4-1.3,15.6C142.8,24.8,143.2,19.6,144,14.4L144,14.4z" /></g><g><path class="st207" d="M150.5,14.4c2.2,5.3,4,10.7,5.5,16.2C153.8,25.3,152,19.9,150.5,14.4L150.5,14.4z" /></g><g><path class="st207" d="M136.9,15.5c-1.9,4.9-4,9.7-6.5,14.3C132.3,24.9,134.5,20.2,136.9,15.5L136.9,15.5z" /></g><g><path class="st207" d="M157.8,15.3c3.6,4.8,7,9.9,10.1,15.1C164.3,25.6,160.9,20.6,157.8,15.3L157.8,15.3z" /></g><g><path class="st207" d="M166.1,15.9c4.6,4.4,8.9,9.1,13,13.9C174.5,25.4,170.2,20.8,166.1,15.9L166.1,15.9z" /></g><g><path class="st207" d="M129.2,15.9c-4,4.8-8.3,9.4-12.8,13.7C120.4,24.8,124.7,20.3,129.2,15.9L129.2,15.9z" /></g><g><path class="st207" d="M105.3,29.3c5.2-4.6,10.6-8.9,16.3-13C116.3,20.9,110.9,25.2,105.3,29.3L105.3,29.3z" /></g><g><path class="st207" d="M189.4,29.3c-5.5-3.8-10.7-7.9-15.8-12.2C179.1,20.8,184.4,24.9,189.4,29.3L189.4,29.3z" /></g></svg>