<svg version="1.1" xmlns="http://www.w3.org/2000/svg" xmlns:xlink="http://www.w3.org/1999/xlink" x="0px" y="0px" viewBox="0 0 232 399" style="enable-background:new 0 0 232 399;" width="232" height="399" preserveAspectRatio="none"><style type="text/css">
	.st75{fill:#A4DCDE;}
	.st77{fill:#938FC4;}
	.st78{fill:#CEEBE5;}
	.st79{fill:#384752;}
	.st264{fill:#B9B6DB;}
	.st267{fill:#918DCC;}
</style><rect x="48.9" y="28" class="st264" width="53" height="360.3" /><rect x="10.4" y="36.3" class="st75" width="42.4" height="35.1" /><rect x="10.4" y="35.7" class="st78" width="40.6" height="1.2" /><rect x="10.4" y="352.7" class="st75" width="42.4" height="35.1" /><rect x="10.4" y="317.5" class="st75" width="42.4" height="35.1" /><rect x="10.4" y="282.4" class="st75" width="42.4" height="35.1" /><rect x="10.4" y="247.2" class="st75" width="42.4" height="35.1" /><rect x="10.4" y="212.1" class="st75" width="42.4" height="35.1" /><rect x="10.4" y="176.9" class="st75" width="42.4" height="35.1" /><rect x="10.4" y="141.8" class="st75" width="42.4" height="35.1" /><rect x="10.4" y="106.6" class="st75" width="42.4" height="35.1" /><rect x="10.4" y="141.2" class="st78" width="40.6" height="1.2" /><rect x="10.4" y="176.3" class="st78" width="40.6" height="1.2" /><rect x="10.4" y="211.5" class="st78" width="40.6" height="1.2" /><rect x="10.4" y="246.6" class="st78" width="40.6" height="1.2" /><rect x="10.4" y="281.8" class="st78" width="40.6" height="1.2" /><rect x="10.4" y="316.9" class="st78" width="40.6" height="1.2" /><rect x="10.4" y="352.1" class="st78" width="40.6" height="1.2" /><rect x="10.4" y="387.2" class="st78" width="40.6" height="1.2" /><rect x="10.4" y="388.4" class="st78" width="40.6" height="5" /><rect x="10.4" y="71.5" class="st75" width="42.4" height="35.1" /><rect x="10.4" y="70.9" class="st78" width="40.6" height="1.2" /><polygon class="st267" points="51,391.4 58.6,390 58.4,30 51,30" /><polygon class="st267" points="105.1,392.3 97.3,390.2 97.3,30.7 105.1,30.7" /><polygon class="st77" points="54.7,390.1 62.1,387.2 93.3,387.1 99.8,390.3" /><path class="st79" d="M78.2,387.1h-3.2c0,0,0-1.6,1.6-1.6C78,385.5,78.2,387.1,78.2,387.1z" /><rect x="10.4" y="106" class="st78" width="40.6" height="1.2" /></svg>