<svg version="1.1" xmlns="http://www.w3.org/2000/svg" xmlns:xlink="http://www.w3.org/1999/xlink" x="0px" y="0px" viewBox="0 0 17 17" style="enable-background:new 0 0 17 17;" width="17" height="17" preserveAspectRatio="none"><style type="text/css">
	.st84{fill:#4B5E6D;}
	.st89{fill:#647D91;}
	.st192{fill:none;stroke:#35424D;stroke-width:0.25;stroke-miterlimit:10;}
</style><g><polygon class="st84" points="8.9,6.5 8,6.8 7.6,1.2 9.5,1.2 					" /><polygon class="st84" points="8.9,10.2 8,10 7.6,15.6 9.5,15.6 					" /></g><g><polygon class="st84" points="8.9,6.5 8,6.8 7.6,1.2 9.5,1.2 					" /><polygon class="st84" points="8.9,10.2 8,10 7.6,15.6 9.5,15.6 					" /></g><g><polygon class="st84" points="7.1,7.1 6.9,8 1.8,5.6 2.8,4 					" /><polygon class="st84" points="10.3,8.9 9.7,9.6 14.3,12.8 15.2,11.2 					" /></g><g><polygon class="st84" points="6.7,8.9 7.4,9.6 2.8,12.8 1.8,11.2 					" /><polygon class="st84" points="9.9,7.1 10.2,8 15.2,5.6 14.3,4 					" /></g><path class="st84" d="M0.8,8.5c0-4.3,3.5-7.7,7.7-7.7s7.7,3.5,7.7,7.7s-3.5,7.7-7.7,7.7S0.8,12.8,0.8,8.5z M8.5,15.1
	c3.7,0,6.6-3,6.6-6.6s-3-6.6-6.6-6.6s-6.6,3-6.6,6.6S4.8,15.1,8.5,15.1z" /><circle class="st192" cx="8.5" cy="8.5" r="6.6" /><g><path class="st89" d="M11.7,2C6.4,0,1.8,3.3,1.1,8.8C0.9,3.1,6.5-0.8,11.7,2L11.7,2z" /></g><circle class="st89" cx="8.5" cy="8.5" r="2.6" /><circle class="st84" cx="8.5" cy="8.5" r="1.2" /></svg>