<?xml version="1.0" encoding="utf-8"?>
<!-- Generator: Adobe Illustrator 22.0.1, SVG Export Plug-In . SVG Version: 6.00 Build 0)  -->
<!DOCTYPE svg PUBLIC "-//W3C//DTD SVG 1.1//EN" "http://www.w3.org/Graphics/SVG/1.1/DTD/svg11.dtd">
<svg version="1.1" id="Layer_1" xmlns="http://www.w3.org/2000/svg" xmlns:xlink="http://www.w3.org/1999/xlink" x="0px" y="0px"
	 viewBox="0 0 480 80" style="enable-background:new 0 0 480 80;" xml:space="preserve" width="480" height="80" preserveAspectRatio="none">
<style type="text/css">
	.st0{fill:none;stroke:#23272B;stroke-width:6;stroke-miterlimit:10;}
	.st1{fill:none;stroke:#282D33;stroke-width:6;stroke-miterlimit:10;}
	.st2{fill:#34383D;}
	.st3{fill:#2B3136;}
	.st4{fill:#677378;}
	.st5{fill:#57646B;}
	.st6{fill:#8A9AA1;}
	.st7{fill:none;stroke:#8A9AA1;stroke-width:1.6879;stroke-miterlimit:10;}
	.st8{fill:none;stroke:#FFFFFF;stroke-width:0.25;stroke-linecap:round;stroke-miterlimit:10;}
	.st9{fill:none;stroke:#FFFFFF;stroke-width:0.5;stroke-linecap:round;stroke-miterlimit:10;}
	.st10{fill:none;stroke:#FFFFFF;stroke-width:0.1;stroke-linecap:round;stroke-miterlimit:10;}
	.st11{fill:#FFFBBA;stroke:#FBEE3B;stroke-width:1.5591;stroke-linejoin:round;stroke-miterlimit:10;}
	.st12{fill:none;stroke:#64807C;stroke-width:1.0394;stroke-miterlimit:10;}
	.st13{fill:none;stroke:#FBDB4E;stroke-width:1.0394;stroke-miterlimit:10;}
	.st14{fill:#64807C;}
	.st15{fill:url(#SVGID_1_);}
	.st16{fill:#B3B3B3;}
	.st17{fill:#EBEBEB;}
	.st18{fill:#808080;}
	.st19{fill:url(#SVGID_2_);}
	.st20{fill:url(#SVGID_3_);}
	.st21{fill:#FFFBBA;stroke:#FBEE3B;stroke-width:1.2095;stroke-linejoin:round;stroke-miterlimit:10;}
	.st22{fill:url(#SVGID_4_);}
	.st23{fill:none;stroke:#64807C;stroke-width:0.9669;stroke-miterlimit:10;}
	.st24{fill:none;stroke:#FBDB4E;stroke-width:0.9669;stroke-miterlimit:10;}
	.st25{fill:url(#SVGID_5_);}
	.st26{fill:#FFFBBA;stroke:#FBEE3B;stroke-width:1.5755;stroke-linejoin:round;stroke-miterlimit:10;}
	.st27{fill:url(#SVGID_6_);}
	.st28{fill:#FFFBBA;stroke:#FBEE3B;stroke-width:1.377;stroke-linejoin:round;stroke-miterlimit:10;}
	.st29{fill:url(#SVGID_7_);}
	.st30{fill:#1D2121;}
	.st31{fill:#282D33;}
	.st32{fill:#32525C;}
	.st33{fill:#5B5C37;}
	.st34{fill:none;stroke:#BF9651;stroke-width:0.5596;stroke-miterlimit:10;}
	.st35{fill:none;stroke:#996933;stroke-width:0.5596;stroke-miterlimit:10;}
	.st36{fill:none;stroke:#E0B161;stroke-width:0.1865;stroke-miterlimit:10;}
	.st37{fill:#375C3C;}
	.st38{fill:#5C3737;}
	.st39{fill:#37435C;}
	.st40{fill:#444063;}
	.st41{fill:#694B3E;}
	.st42{fill:#38A8D2;}
	.st43{fill:#3493C7;}
	.st44{fill:#307EBC;}
	.st45{fill:#2B68B1;}
	.st46{fill:#2753A6;}
	.st47{fill:#233E9B;}
	.st48{fill:#CCCCCC;stroke:#515559;stroke-width:1.5;stroke-miterlimit:10;}
	.st49{fill:#9EA4A6;}
	.st50{fill:#60676B;}
	.st51{fill:#858A8C;}
	.st52{fill:url(#SVGID_8_);stroke:#006837;stroke-miterlimit:10;}
	.st53{fill:#B83B3B;stroke:#75141C;stroke-miterlimit:10;}
	.st54{fill:#AFB5B8;}
	.st55{fill:#389CD4;}
	.st56{fill:url(#SVGID_9_);stroke:#006837;stroke-miterlimit:10;}
	.st57{fill:#499C34;stroke:#006837;stroke-miterlimit:10;}
	.st58{fill:url(#SVGID_10_);stroke:#75141C;stroke-miterlimit:10;}
	.st59{fill:url(#SVGID_11_);stroke:#75141C;stroke-miterlimit:10;}
	.st60{fill:none;stroke:#996933;stroke-width:0.75;stroke-miterlimit:10;}
	.st61{fill:none;stroke:#BF9651;stroke-width:0.75;stroke-miterlimit:10;}
	.st62{fill:none;stroke:#E0B161;stroke-width:0.25;stroke-miterlimit:10;}
	.st63{fill:#373A3D;}
	.st64{fill:#5A5F63;}
	.st65{fill:#FFFFFF;}
	.st66{fill:#C7BFB1;}
	.st67{fill:#40484D;}
	.st68{fill:#4C565C;}
	.st69{fill:url(#SVGID_12_);stroke:#006837;stroke-miterlimit:10;}
	.st70{fill:none;stroke:#FFFFFF;stroke-linecap:round;stroke-miterlimit:10;}
	.st71{fill:url(#SVGID_13_);stroke:#006837;stroke-miterlimit:10;}
	.st72{fill:url(#SVGID_14_);stroke:#006837;stroke-miterlimit:10;}
	.st73{fill:url(#SVGID_15_);stroke:#75141C;stroke-miterlimit:10;}
	.st74{fill:url(#SVGID_16_);stroke:#75141C;stroke-miterlimit:10;}
	.st75{fill:url(#SVGID_17_);stroke:#006837;stroke-miterlimit:10;}
	.st76{fill:url(#SVGID_18_);stroke:#006837;stroke-miterlimit:10;}
	.st77{fill:url(#SVGID_19_);stroke:#006837;stroke-miterlimit:10;}
	.st78{fill:url(#SVGID_20_);stroke:#75141C;stroke-miterlimit:10;}
	.st79{fill:url(#SVGID_21_);stroke:#75141C;stroke-miterlimit:10;}
	.st80{fill:url(#SVGID_22_);stroke:#006837;stroke-miterlimit:10;}
	.st81{fill:url(#SVGID_23_);stroke:#006837;stroke-miterlimit:10;}
	.st82{fill:url(#SVGID_24_);stroke:#75141C;stroke-miterlimit:10;}
	.st83{fill:url(#SVGID_25_);stroke:#75141C;stroke-miterlimit:10;}
	.st84{fill:url(#SVGID_26_);stroke:#006837;stroke-miterlimit:10;}
	.st85{fill:url(#SVGID_27_);stroke:#006837;stroke-miterlimit:10;}
	.st86{fill:url(#SVGID_28_);stroke:#006837;stroke-miterlimit:10;}
	.st87{fill:url(#SVGID_29_);stroke:#75141C;stroke-miterlimit:10;}
	.st88{fill:url(#SVGID_30_);stroke:#75141C;stroke-miterlimit:10;}
</style>
<g>
	<g>
		<path class="st0" d="M2.5,45.9c0,0,17-7,32-4.3c1.7,0.3,3.4,0.7,5,1"/>
		<path class="st1" d="M10.8,40.9c0,0,32.5-13.8,62.1-5.8"/>
		<path class="st1" d="M12.7,46.6c0,0,12.8-22.5,26.2-20.4c7.9,1.3,12.7,6.8,18.3,11.1"/>
		<path class="st1" d="M8.5,51c0,0,54.2,4.4,75.7-13"/>
		<path class="st1" d="M39.4,42.6c12.1,2.9,20.1,7.8,29.4,10c10.5,2.6,24.7-0.3,24.7-0.3"/>
		<path class="st1" d="M9.9,58.3c0,0,39.4-24.9,74-27"/>
		<path class="st2" d="M32.2,24.4c4.3-1.2,8.3-0.7,11.7,0.5c3.4,1.2,7.7,4.7,7.7,4.7l-2.7,0.1c0,0-5.2-4.4-11.8-4.1
			c-8.8,0.3-14.3,7.4-14.3,7.4L19,33.7C19,33.7,26.5,26.1,32.2,24.4z"/>
		<path class="st2" d="M18.2,37c0,0,14.4-3.8,26.3-4.3s22.7,0.5,22.7,0.5l-0.1-1.8c0,0-16.3-1.6-27.1-0.2
			c-10.7,1.3-22.1,3.7-22.1,3.7S18,37.1,18.2,37z"/>
		<path class="st2" d="M53.1,35.2l0.9,0l2.5,0c0,0-10.4,3.6-18.2,7.6s-11.1,5.4-11.1,5.4l-2.9-0.1C31.7,43.9,39.3,40.1,53.1,35.2z"
			/>
		<path class="st2" d="M20.2,49.4l25.1-1.2l1.8,1c0,0-13.4,1.2-17.5,1.2S20.2,51,20.2,51S20.4,49.5,20.2,49.4z"/>
		<path class="st3" d="M39.2,40l-2,0.9c-3.5-1-6.9-1.5-11.4-1.6l2.9-0.8C31.8,38.5,36.1,39.4,39.2,40z"/>
		<path class="st2" d="M48.7,42.7l-2,0.6c0,0,8.1,3.7,11.2,5.1c3.2,1.4,8.1,3.3,8.1,3.3l-0.1-1.8L48.7,42.7z"/>
	</g>
	<path class="st0" d="M57.3,37.3c3.9,3,8.2,5.4,14.1,5.2"/>
	<path class="st2" d="M58.2,46c0.2-0.1,2.9,1,2.9,1l4.8-1.1l0.1-1.6L58.2,46z"/>
	<rect x="68.6" y="1" class="st4" width="408.9" height="78"/>
	<g>
		<polygon class="st5" points="271.6,43.2 272.5,40.7 266.6,42.9 266.8,44.9 267.5,44.8 		"/>
		<path class="st5" d="M270.1,31.4c-0.5-1.2,9.2-3.5,9.2-3.5l-7.6,11.5l6.5-2.2l-9.5,15l1.2,1.2l9.4-7.9l2.6-9.5l-0.7-8.2l-5.3-1.5
			l-5.2,1l-2.1,1.3L270.1,31.4z"/>
		<path class="st5" d="M237.2,32.3c2,0,3.5,0.4,4.7,1.2c1.1,0.8,1.7,1.9,1.7,3.5c0,0.8-0.2,1.5-0.6,2.1s-1,1.1-1.8,1.4
			c1,0.2,1.8,0.7,2.3,1.4c0.5,0.7,0.8,1.5,0.8,2.5c0,1.6-0.5,2.8-1.6,3.7c-1.1,0.8-2.6,1.2-4.5,1.2h-8.3v-2l1.8-0.3V34.7l-1.8-0.3
			v-2h1.8H237.2z M234.9,39.3h2.4c0.9,0,1.6-0.2,2.1-0.6c0.5-0.4,0.7-0.9,0.7-1.6c0-0.8-0.2-1.4-0.7-1.7c-0.5-0.4-1.2-0.6-2.2-0.6
			h-2.3V39.3z M234.9,41.7v4.9h3.1c0.9,0,1.6-0.2,2.1-0.6c0.5-0.4,0.7-1,0.7-1.7c0-0.8-0.2-1.5-0.6-1.9s-1-0.7-1.9-0.7H234.9z"/>
		<path class="st6" d="M238.2,31.3c2,0,3.5,0.4,4.7,1.2c1.1,0.8,1.7,1.9,1.7,3.5c0,0.8-0.2,1.5-0.6,2.1s-1,1.1-1.8,1.4
			c1,0.2,1.8,0.7,2.3,1.4s0.8,1.5,0.8,2.5c0,1.6-0.5,2.8-1.6,3.7c-1.1,0.8-2.6,1.2-4.5,1.2h-8.3v-2l1.8-0.3V33.7l-1.8-0.3v-2h1.8
			H238.2z M235.9,38.3h2.4c0.9,0,1.6-0.2,2.1-0.6c0.5-0.4,0.7-0.9,0.7-1.6c0-0.8-0.2-1.4-0.7-1.7c-0.5-0.4-1.2-0.6-2.2-0.6h-2.3
			V38.3z M235.9,40.7v4.9h3.1c0.9,0,1.6-0.2,2.1-0.6c0.5-0.4,0.7-1,0.7-1.7c0-0.8-0.2-1.5-0.6-1.9s-1-0.7-1.9-0.7H235.9z"/>
		<path class="st5" d="M312.9,41.7h-5.7v4.8h5.5l0.2-2h2.6v4.6H302v-2l1.8-0.3V34.7l-1.8-0.3v-2h1.8h11.6v4.6h-2.6l-0.2-2h-5.4v4.3
			h5.7V41.7z"/>
		<path class="st6" d="M313.9,40.7h-5.7v4.8h5.5l0.2-2h2.6v4.6H303v-2l1.8-0.3V33.7l-1.8-0.3v-2h1.8h11.6v4.6h-2.6l-0.2-2h-5.4v4.3
			h5.7V40.7z"/>
		<path class="st5" d="M267.8,26c0,0-7.3-2.3-3.8-10.3c-7.9,2.7-11.3,12.3-1.9,15.8L267.8,26z"/>
		<path class="st5" d="M278.3,26c0,0,7.3-2.3,3.8-10.3c7.9,2.7,11.3,12.3,1.9,15.8L278.3,26z"/>
		<path class="st5" d="M259.8,55.4c-3.8-1.6-6.4-3.9-6.4-6.5c0-0.7,0-6.3,0.1-7c1.1-10,9.5-20.1,18.7-20.1c0.2,0,0.3,0,0.5,0
			L259.8,55.4z"/>
		<path class="st6" d="M268.8,25c0,0-7.3-2.3-3.8-10.3c-7.9,2.7-11.3,12.3-1.9,15.8L268.8,25z"/>
		<path class="st6" d="M279.3,25c0,0,7.3-2.3,3.8-10.3c7.9,2.7,11.3,12.3,1.9,15.8L279.3,25z"/>
		<path class="st6" d="M292.6,48.3c-2.5,4.3-9.3,9.2-18.2,9.2c-8.9,0-19.4-3.7-19.4-9c0-0.7,0-6.3,0.1-7c1.1-10,9.5-20.1,18.7-20.1
			c9,0,17.1,11,18.4,21C292.3,43.2,293,47.5,292.6,48.3z M267.4,43.6l4.8-1.7l-2.6,10.2c0,0,9.2-13.9,9.4-14.5
			c0.2-0.6-6.3,1.6-6.3,1.6l6.8-10.4l-8,1.4L267.4,43.6z"/>
		<path class="st5" d="M272.5,57.9c-13,0-23.5-10.5-23.5-23.5s10.5-23.5,23.5-23.5S296,21.5,296,34.4c0,4.3-1.2,8.4-3.2,11.8
			l0.6,2.3c2.7-4,4.4-8.9,4.4-14.1c0-13.9-11.3-25.2-25.2-25.2s-25.2,11.3-25.2,25.2s11.3,25.2,25.2,25.2c7.1,0,13.5-3,18.1-7.7
			l-1.4-1C285,55.2,279.1,57.9,272.5,57.9z"/>
		<circle class="st7" cx="273.5" cy="33.4" r="24.3"/>
		<g>
			<path class="st5" d="M229.7,70.4v-8h2.7c0.7,0,1.2,0.2,1.5,0.5c0.4,0.3,0.6,0.8,0.6,1.4c0,1.1-0.5,1.7-1.5,1.9
				c1.2,0.1,1.8,0.7,1.8,1.9c0,0.8-0.2,1.3-0.6,1.7s-1,0.6-1.7,0.6H229.7z M230.7,65.8h1.5c0.8,0,1.2-0.4,1.2-1.3
				c0-0.4-0.1-0.7-0.3-0.9c-0.2-0.2-0.5-0.3-0.9-0.3h-1.4V65.8z M230.7,69.6h1.5c0.4,0,0.8-0.1,1-0.4c0.3-0.3,0.4-0.6,0.4-1
				c0-0.5-0.1-0.9-0.4-1.1c-0.3-0.2-0.7-0.4-1.4-0.4h-1.2V69.6z"/>
			<path class="st5" d="M237.2,70.4v-8h4.2v0.9h-3.1v2.5h2.9v0.9h-2.9v2.8h3.2v0.9H237.2z"/>
			<path class="st5" d="M242.9,70.4l2.5-8h1.3l2.6,8h-1.1l-0.6-1.9h-3.1l-0.6,1.9H242.9z M244.7,67.6h2.5l-1.3-4.3L244.7,67.6z"/>
			<path class="st5" d="M251,68.1h1v0.3c0,0.4,0.1,0.7,0.4,1c0.2,0.2,0.6,0.4,1.1,0.4c0.4,0,0.7-0.1,1-0.3c0.2-0.2,0.4-0.5,0.4-0.9
				c0-0.3-0.1-0.6-0.4-0.9c-0.2-0.2-0.7-0.5-1.3-0.8c-0.8-0.4-1.3-0.8-1.6-1.1c-0.3-0.3-0.4-0.7-0.4-1.2c0-0.6,0.2-1.2,0.6-1.6
				c0.4-0.4,1-0.6,1.7-0.6c0.7,0,1.3,0.2,1.7,0.5c0.4,0.4,0.6,0.9,0.6,1.5v0.3h-1c0-1-0.4-1.5-1.2-1.5c-0.4,0-0.7,0.1-0.9,0.3
				s-0.3,0.5-0.3,0.8c0,0.4,0.2,0.7,0.5,1c0.2,0.2,0.6,0.4,1.3,0.7c0.6,0.3,1.1,0.6,1.4,1c0.3,0.4,0.5,0.8,0.5,1.4
				c0,1.5-0.9,2.2-2.6,2.2c-0.7,0-1.3-0.2-1.7-0.6c-0.4-0.4-0.6-0.9-0.6-1.7V68.1z"/>
			<path class="st5" d="M257.5,62.5h5.2v0.9h-2.1v7.1h-1v-7.1h-2.1V62.5z"/>
			<path class="st5" d="M267.9,70.4v-8h4.2v0.9h-3.1v2.5h2.9v0.9h-2.9v2.8h3.2v0.9H267.9z"/>
			<path class="st5" d="M274.3,62.5h1v7.1h2.9v0.9h-4V62.5z"/>
			<path class="st5" d="M280,70.4v-8h4.2v0.9h-3.1v2.5h2.9v0.9h-2.9v2.8h3.2v0.9H280z"/>
			<path class="st5" d="M290.1,68.1h1c0,0.9-0.2,1.5-0.6,1.9c-0.4,0.4-1,0.6-1.7,0.6c-0.8,0-1.4-0.2-1.8-0.6
				c-0.4-0.4-0.6-1.2-0.6-2.4v-2.4c0-1.9,0.8-2.9,2.5-2.9c1.4,0,2.2,0.6,2.2,1.8v0.5h-1v-0.3c0-0.8-0.4-1.2-1.2-1.2
				c-0.4,0-0.8,0.1-1,0.4c-0.3,0.3-0.4,0.9-0.4,1.8v2.3c0,0.7,0.1,1.2,0.3,1.6c0.2,0.3,0.6,0.5,1.1,0.5c0.4,0,0.7-0.1,0.9-0.4
				C289.9,69,290.1,68.6,290.1,68.1z"/>
			<path class="st5" d="M292.7,62.5h5.2v0.9h-2.1v7.1h-1v-7.1h-2.1V62.5z"/>
			<path class="st5" d="M299.8,70.4v-8h2.7c0.6,0,1.1,0.2,1.4,0.5c0.3,0.3,0.5,0.8,0.5,1.5c0,1-0.5,1.6-1.5,1.8c0.4,0,0.7,0.2,1,0.4
				c0.2,0.2,0.3,0.7,0.4,1.3c0,1,0.1,1.9,0.3,2.5h-1.1c-0.1-0.2-0.2-0.5-0.2-1c0-0.5-0.1-1.1-0.1-1.6c0-0.7-0.4-1-1.2-1h-1.2v3.7
				H299.8z M300.8,65.9h1.5c0.3,0,0.6-0.1,0.8-0.4c0.2-0.2,0.3-0.6,0.3-1c0-0.3-0.1-0.6-0.3-0.9c-0.2-0.2-0.4-0.4-0.8-0.4h-1.5V65.9
				z"/>
			<path class="st5" d="M306.9,62.5h1v8h-1V62.5z"/>
			<path class="st5" d="M314.4,68.1h1c0,0.9-0.2,1.5-0.6,1.9c-0.4,0.4-1,0.6-1.7,0.6c-0.8,0-1.4-0.2-1.8-0.6
				c-0.4-0.4-0.6-1.2-0.6-2.4v-2.4c0-1.9,0.8-2.9,2.5-2.9c1.4,0,2.2,0.6,2.2,1.8v0.5h-1v-0.3c0-0.8-0.4-1.2-1.2-1.2
				c-0.4,0-0.8,0.1-1,0.4c-0.3,0.3-0.4,0.9-0.4,1.8v2.3c0,0.7,0.1,1.2,0.3,1.6c0.2,0.3,0.6,0.5,1.1,0.5c0.4,0,0.7-0.1,0.9-0.4
				C314.2,69,314.4,68.6,314.4,68.1z"/>
		</g>
		<g>
			<path class="st6" d="M230.7,69.4v-8h2.7c0.7,0,1.2,0.2,1.5,0.5c0.4,0.3,0.6,0.8,0.6,1.4c0,1.1-0.5,1.7-1.5,1.9
				c1.2,0.1,1.8,0.7,1.8,1.9c0,0.8-0.2,1.3-0.6,1.7c-0.4,0.4-1,0.6-1.7,0.6H230.7z M231.7,64.8h1.5c0.8,0,1.2-0.4,1.2-1.3
				c0-0.4-0.1-0.7-0.3-0.9c-0.2-0.2-0.5-0.3-0.9-0.3h-1.4V64.8z M231.7,68.6h1.5c0.4,0,0.8-0.1,1-0.4s0.4-0.6,0.4-1
				c0-0.5-0.1-0.9-0.4-1.1c-0.3-0.2-0.7-0.4-1.4-0.4h-1.2V68.6z"/>
			<path class="st6" d="M238.2,69.4v-8h4.2v0.9h-3.1v2.5h2.9v0.9h-2.9v2.8h3.2v0.9H238.2z"/>
			<path class="st6" d="M243.9,69.4l2.5-8h1.3l2.6,8h-1.1l-0.6-1.9h-3.1l-0.6,1.9H243.9z M245.7,66.6h2.5l-1.3-4.3L245.7,66.6z"/>
			<path class="st6" d="M252,67.1h1v0.3c0,0.4,0.1,0.7,0.4,1c0.2,0.2,0.6,0.4,1.1,0.4c0.4,0,0.7-0.1,1-0.3c0.2-0.2,0.4-0.5,0.4-0.9
				c0-0.3-0.1-0.6-0.4-0.9c-0.2-0.2-0.7-0.5-1.3-0.8c-0.8-0.4-1.3-0.8-1.6-1.1c-0.3-0.3-0.4-0.7-0.4-1.2c0-0.6,0.2-1.2,0.6-1.6
				c0.4-0.4,1-0.6,1.7-0.6c0.7,0,1.3,0.2,1.7,0.5c0.4,0.4,0.6,0.9,0.6,1.5v0.3h-1c0-1-0.4-1.5-1.2-1.5c-0.4,0-0.7,0.1-0.9,0.3
				c-0.2,0.2-0.3,0.5-0.3,0.8c0,0.4,0.2,0.7,0.5,1c0.2,0.2,0.6,0.4,1.3,0.7c0.6,0.3,1.1,0.6,1.4,1c0.3,0.4,0.5,0.8,0.5,1.4
				c0,1.5-0.9,2.2-2.6,2.2c-0.7,0-1.3-0.2-1.7-0.6c-0.4-0.4-0.6-0.9-0.6-1.7V67.1z"/>
			<path class="st6" d="M258.5,61.5h5.2v0.9h-2.1v7.1h-1v-7.1h-2.1V61.5z"/>
			<path class="st6" d="M268.9,69.4v-8h4.2v0.9h-3.1v2.5h2.9v0.9h-2.9v2.8h3.2v0.9H268.9z"/>
			<path class="st6" d="M275.3,61.5h1v7.1h2.9v0.9h-4V61.5z"/>
			<path class="st6" d="M281,69.4v-8h4.2v0.9h-3.1v2.5h2.9v0.9h-2.9v2.8h3.2v0.9H281z"/>
			<path class="st6" d="M291.1,67.1h1c0,0.9-0.2,1.5-0.6,1.9c-0.4,0.4-1,0.6-1.7,0.6c-0.8,0-1.4-0.2-1.8-0.6
				c-0.4-0.4-0.6-1.2-0.6-2.4v-2.4c0-1.9,0.8-2.9,2.5-2.9c1.4,0,2.2,0.6,2.2,1.8v0.5h-1v-0.3c0-0.8-0.4-1.2-1.2-1.2
				c-0.4,0-0.8,0.1-1,0.4c-0.3,0.3-0.4,0.9-0.4,1.8v2.3c0,0.7,0.1,1.2,0.3,1.6c0.2,0.3,0.6,0.5,1.1,0.5c0.4,0,0.7-0.1,0.9-0.4
				C290.9,68,291.1,67.6,291.1,67.1z"/>
			<path class="st6" d="M293.7,61.5h5.2v0.9h-2.1v7.1h-1v-7.1h-2.1V61.5z"/>
			<path class="st6" d="M300.8,69.4v-8h2.7c0.6,0,1.1,0.2,1.4,0.5c0.3,0.3,0.5,0.8,0.5,1.5c0,1-0.5,1.6-1.5,1.8c0.4,0,0.7,0.2,1,0.4
				c0.2,0.2,0.3,0.7,0.4,1.3c0,1,0.1,1.9,0.3,2.5h-1.1c-0.1-0.2-0.2-0.5-0.2-1c0-0.5-0.1-1.1-0.1-1.6c0-0.7-0.4-1-1.2-1h-1.2v3.7
				H300.8z M301.8,64.9h1.5c0.3,0,0.6-0.1,0.8-0.4c0.2-0.2,0.3-0.6,0.3-1c0-0.3-0.1-0.6-0.3-0.9c-0.2-0.2-0.4-0.4-0.8-0.4h-1.5V64.9
				z"/>
			<path class="st6" d="M307.9,61.5h1v8h-1V61.5z"/>
			<path class="st6" d="M315.4,67.1h1c0,0.9-0.2,1.5-0.6,1.9c-0.4,0.4-1,0.6-1.7,0.6c-0.8,0-1.4-0.2-1.8-0.6
				c-0.4-0.4-0.6-1.2-0.6-2.4v-2.4c0-1.9,0.8-2.9,2.5-2.9c1.4,0,2.2,0.6,2.2,1.8v0.5h-1v-0.3c0-0.8-0.4-1.2-1.2-1.2
				c-0.4,0-0.8,0.1-1,0.4c-0.3,0.3-0.4,0.9-0.4,1.8v2.3c0,0.7,0.1,1.2,0.3,1.6c0.2,0.3,0.6,0.5,1.1,0.5c0.4,0,0.7-0.1,0.9-0.4
				C315.2,68,315.4,67.6,315.4,67.1z"/>
		</g>
		<path class="st8" d="M231.5,31.8c0,0,6.2,0,7.6,0.1c0.9,0,5-0.4,4.8,4.6c-0.1,1.4-2,2.4-2,2.4"/>
		<path class="st9" d="M284,15.6c0,0,4.1,2,5.2,5.8s-0.4,5.6-2.5,7.1"/>
		<path class="st9" d="M264.1,15.5c0,0-3,4.2,0.8,8.2"/>
		<path class="st9" d="M278.4,23.2c0,0,7.2,3.1,10.7,11.2c3.6,8.3,2.5,12.6,2.5,12.6"/>
		<polyline class="st8" points="303.6,31.8 315.7,31.8 315.8,35.4 		"/>
		<line class="st8" x1="308.3" y1="38.6" x2="313.4" y2="38.6"/>
		<line class="st8" x1="303.4" y1="46.6" x2="304.8" y2="46.3"/>
		<line class="st8" x1="308.3" y1="46" x2="314.1" y2="46.1"/>
		<polyline class="st8" points="316,47.9 315.9,43.9 314.2,43.9 		"/>
		<line class="st8" x1="230.9" y1="46.7" x2="232.5" y2="46.3"/>
		<path class="st8" d="M241.9,40c0,0,3,0.1,2.6,4.5c-0.1,1.2-1.4,2.5-2,2.7"/>
		<path class="st10" d="M231,61.7c0,0,2.2-0.3,3,0c0.8,0.3,1.4,1.2,1.2,2"/>
		<path class="st10" d="M231.9,65.4c0,0,2-0.1,2.6,0.2c0.6,0.4,1.2,1.1,1,2"/>
		<line class="st10" x1="231.8" y1="68.8" x2="233.9" y2="68.8"/>
		<polyline class="st10" points="239.2,65.1 241.9,65.2 241.9,65.6 		"/>
		<polyline class="st10" points="239.2,68.7 242.3,68.8 242.3,69.2 		"/>
		<polyline class="st10" points="242.1,62.3 242.1,61.7 238.4,61.7 		"/>
		<polyline class="st10" points="246.5,61.7 247.5,61.7 250,69.2 		"/>
		<line class="st10" x1="245.6" y1="66.9" x2="248.3" y2="66.8"/>
		<path class="st10" d="M256.5,63.3c0-0.1,0.1-1.1-0.9-1.5c-0.9-0.4-2.1-0.6-2.9,0.7c-0.3,0.5-0.2,1-0.2,1"/>
		<path class="st10" d="M253.3,64.3c0,0,1.8,0.8,2.4,1.5c0.6,0.6,0.9,1.1,0.8,1.8"/>
		<path class="st10" d="M252.7,67.3c0,0,0.1,1.1,0.7,1.4c0.6,0.3,1.5,0.3,1.7,0.1"/>
		<polyline class="st10" points="258.6,61.6 263.5,61.6 263.5,62.2 		"/>
		<line class="st10" x1="261.4" y1="62.5" x2="261.4" y2="69.2"/>
		<polyline class="st10" points="269.1,61.7 272.8,61.7 272.9,62.3 		"/>
		<polyline class="st10" points="269.9,65.1 272.6,65.2 272.7,65.7 		"/>
		<polyline class="st10" points="269.9,68.8 272.9,68.8 272.9,69.2 		"/>
		<polyline class="st10" points="275.4,61.7 276.1,61.7 276.2,68.9 279,68.8 		"/>
		<polyline class="st10" points="285,62.3 284.9,61.6 281.2,61.7 		"/>
		<polyline class="st10" points="284.8,65.7 284.7,65.1 282.1,65.1 		"/>
		<polyline class="st10" points="285,69.3 285,68.8 282.1,68.8 		"/>
		<path class="st10" d="M291.8,63.4c0,0,0.1-1.2-0.9-1.7c-1-0.5-2.5-0.5-3.1,0.8"/>
		<path class="st10" d="M288.4,68.3c0,0,0.4,0.6,1.1,0.7c0.6,0.1,1.2,0,1.5-0.4c0.3-0.4,0.2-1.3,0.2-1.3h0.7"/>
		<polyline class="st10" points="298.7,62.2 298.7,61.7 293.9,61.6 		"/>
		<path class="st10" d="M301,61.7c0,0,2.4-0.1,2.9,0c0.5,0.1,1.4,0.5,1.4,1.8c-0.1,1.3-1.1,1.4-1.1,1.4"/>
		<path class="st10" d="M303.5,65.4c0,0,0.9-0.1,1.2,0.4c0.3,0.5,0.4,1.2,0.5,1.9s0.2,1.4,0.2,1.4"/>
		<line class="st10" x1="308.7" y1="61.7" x2="308.8" y2="69.2"/>
		<path class="st10" d="M316.1,63.3c0,0,0.1-1.1-0.6-1.5c-0.7-0.4-2.4-0.5-3.1,0.4"/>
		<path class="st10" d="M316.2,67.3l-0.6,0c0,0,0.1,0.9-0.7,1.4s-1.4,0.3-1.8-0.1"/>
		<line class="st8" x1="271.6" y1="42.4" x2="269" y2="51.9"/>
		<path class="st8" d="M271.3,30.2c0,0-4.1,13.2-4.3,13.2"/>
	</g>
</g>
</svg>
