<?xml version="1.0" encoding="utf-8"?>
<!-- Generator: Adobe Illustrator 22.0.1, SVG Export Plug-In . SVG Version: 6.00 Build 0)  -->
<!DOCTYPE svg PUBLIC "-//W3C//DTD SVG 1.1//EN" "http://www.w3.org/Graphics/SVG/1.1/DTD/svg11.dtd">
<svg version="1.1" xmlns="http://www.w3.org/2000/svg" xmlns:xlink="http://www.w3.org/1999/xlink" x="0px" y="0px"
	 viewBox="0 0 17 82" style="enable-background:new 0 0 17 82;" xml:space="preserve" width="17" height="82" preserveAspectRatio="none">
	<style type="text/css">
		.st1{fill:#000101;}
		.st2{fill:#282D33;}
		.st3{fill:#436D7A;}
	</style>
	<g>
		<path class="st1" d="M15.3,1.7c0,0-1.2,4.4-1.2,4.9c-0.5,2.9-2.1,13.2-2.4,21c-0.5,9.2,0.2,14.2,0.2,14.2l-7.1,0.5
			c0,0-1.2-19.5,2.5-35.4c0.1-0.3,1.3-5.1,1.4-5.3L15.3,1.7z"/>
		<path class="st2" d="M11.5,1.6c0,0-3.5,17.3-3.5,28.5c0,7.1,0,11.1,0,11.1l2.4-0.1c0,0-0.9-20.7,3.5-39.3L11.5,1.6z"/>
		<path class="st3" d="M10.5,79.6l-4.5,0.9c-0.9,0-1.7-0.8-1.7-1.7L1.7,42c0-0.9,0.8-1.7,1.7-1.7l9.6-0.9c1.5,0,1.4,2.9,1.4,3.9
			l-2.2,34.7C12.2,78.8,11.4,79.6,10.5,79.6z"/>
	</g>
</svg>
