<svg version="1.1" xmlns="http://www.w3.org/2000/svg" xmlns:xlink="http://www.w3.org/1999/xlink" x="0px" y="0px" viewBox="0 0 97 97" style="enable-background:new 0 0 97 97;" xml:space="preserve" width="97" height="97" preserveAspectRatio="none"><style type="text/css">.st1{fill:#586665;}
.st2{fill:#1C8689;}
.st3{fill:#176E70;}
.st6{fill:#F2F2F2;}
.st44{fill:#FFFFFF;}
.st67{fill:#06443F;}
.st332{fill:#B3B2B3;}
.st340{fill:#8C9ABE;}
.st472{fill:#8ADB82;}</style>
<path class="st340" d="M48.3,77.8c-1.4,0-2.8-0.3-4-1c-3.3-1.8-8-4.5-12.9-7.8c-0.1,1.1-0.2,2-0.4,2.8l-0.1,0.6l-0.6,0.3
c-0.3,0.2-0.6,0.3-0.9,0.4l-0.1,0c-1.5,0.7-3,1.1-4.7,1.1h-0.2c-1.6,0-3.2-0.4-4.7-1.2l0,0c-0.3-0.1-0.6-0.3-0.9-0.4l-0.6-0.3
l-0.1-0.6c-0.2-0.9-0.3-1.9-0.4-3.1c-0.2-2.1-0.4-4.4-0.3-6.8c0-1.4,0-3,0-4.8c-3.3-3.7-5.4-7.3-6.3-11c-0.5-1.9-0.3-5.3,0.1-6.8
c1.1-4.2,3.2-7.7,6.1-10.6c0-0.5,0-1,0-1.6c0-2.2,0.1-4.4,0.3-6.4c0.1-1.1,0.2-2.1,0.4-3l0.1-0.6l0.6-0.3c0.3-0.2,0.6-0.3,0.9-0.4
l0.1,0c1.5-0.7,3-1.1,4.7-1.1h0.2c1.6,0,3.2,0.4,4.7,1.2l0,0c0.3,0.1,0.6,0.3,0.9,0.4l0.6,0.3l0.1,0.6c0.1,0.9,0.3,1.9,0.4,3
c0,0.2,0,0.3,0.1,0.5c4.9-1.3,10.6-1.9,17.1-1.9c5.5,0,10.5,0.5,15,1.4c0,0,0,0,0,0c0.1-1.1,0.2-2.1,0.4-3l0.1-0.6l0.6-0.3
c0.3-0.2,0.6-0.3,0.9-0.4c1.5-0.8,3.1-1.2,4.7-1.2h0.2c1.6,0,3.2,0.4,4.7,1.2l0,0c0.3,0.1,0.6,0.3,0.9,0.4l0.6,0.3l0.1,0.6
c0.1,0.9,0.3,1.9,0.4,3c0.2,1.8,0.3,3.8,0.3,5.9c4.4,3.3,7.3,7.6,8.3,12.7c0.1,0.4,0.2,0.8,0.2,1.3c0,0,0.3,3.5-0.4,5.7
c-1.3,3.8-3.8,7.7-7.3,11.3c0,1.6,0,3.1,0,4.7c0,2.2-0.1,4.4-0.3,6.4c-0.1,1.1-0.2,2.1-0.4,3l-0.1,0.6L77,72.7
c-0.3,0.2-0.6,0.3-0.9,0.4c-1.5,0.8-3.1,1.2-4.7,1.2h-0.2c-1.6,0-3.2-0.4-4.7-1.2l0,0c-0.3-0.1-0.6-0.3-0.9-0.4l-0.6-0.3l-0.1-0.6
c-0.1-0.8-0.2-1.6-0.3-2.5c-4.6,3.2-8.9,5.7-11.9,7.4C51.3,77.4,49.8,77.8,48.3,77.8z" />
<path class="st67" d="M77.4,46.8c-0.1,4.5,0,21.9,0,21.9H65.1l-0.4-8.1L77.4,46.8z" />
<path class="st1" d="M76.4,68.6c0.2-2,0.3-4.2,0.3-6.3c0.1-4.3-0.1-8.5-0.4-11.1l-5.2,0.9l-5.2-0.9c-0.3,2.6-0.5,6.8-0.4,11.1
c0,2.1,0.1,4.3,0.3,6.3c0.1,1,0.2,2,0.4,3c0.3,0.2,0.6,0.3,0.9,0.4c1.3,0.7,2.6,1,4,1c1.4,0,2.7-0.3,4-1c0.3-0.1,0.6-0.3,0.9-0.4
C76.2,70.7,76.3,69.7,76.4,68.6z" />
<path class="st67" d="M18.2,42.7c0.1-4.5,0-21.9,0-21.9l12.3,0l0.4,8.1L18.2,42.7z" />
<path class="st1" d="M30,27.2c0-2.1-0.1-4.3-0.3-6.3c-0.1-1-0.2-2-0.4-3c-0.3-0.2-0.6-0.3-0.9-0.4c-1.3-0.7-2.6-1-4-1
c-1.4,0-2.7,0.3-4,1c-0.3,0.1-0.6,0.3-0.9,0.4c-0.2,0.9-0.3,1.9-0.4,3c-0.2,2-0.3,4.2-0.3,6.3c-0.1,4.3,0.1,8.5,0.4,11.1l5.2-0.9
l5.2,0.9C29.9,35.7,30.1,31.5,30,27.2z" />
<path class="st67" d="M76.5,42.7c-0.1-4.5,0-21.9,0-21.9l-12.3,0l-0.4,8.1L76.5,42.7z" />
<path class="st1" d="M75.8,27.2c0-2.1-0.1-4.3-0.3-6.3c-0.1-1-0.2-2-0.4-3c-0.3-0.2-0.6-0.3-0.9-0.4c-1.3-0.7-2.6-1-4-1
c-1.4,0-2.7,0.3-4,1c-0.3,0.1-0.6,0.3-0.9,0.4c-0.2,0.9-0.3,1.9-0.4,3c-0.2,2-0.3,4.2-0.3,6.3c-0.1,4.3,0.1,8.5,0.4,11.1l5.2-0.9
l5.2,0.9C75.7,35.7,75.9,31.5,75.8,27.2z" />
<path class="st67" d="M18,49.9c-0.3,9.1,0.1,19.9,0.1,18.9l12.3,0l0.6-6.3L18,49.9z" />
<path class="st1" d="M30,61.9c0-4-0.1-8-0.2-11.5l-5.4,1.4l-5.4-1.4c-0.1,3.5-0.3,7.6-0.2,11.5c0,2.3,0.1,4.6,0.3,6.7
c0.1,1.1,0.2,2.1,0.4,3c0.3,0.2,0.6,0.3,0.9,0.4c1.3,0.7,2.6,1,4,1c1.4,0,2.7-0.3,4-1c0.3-0.1,0.6-0.3,0.9-0.4
c0.2-0.9,0.3-2,0.4-3C29.9,66.4,30,64.1,30,61.9z" />
<path class="st67" d="M28.8,20.8c-3-0.6-5.8-0.6-8.8,0C22.6,19.2,26.2,19.3,28.8,20.8L28.8,20.8z" />
<path class="st67" d="M28.8,25.7c-3,0.2-5.8,0.2-8.8,0C22.9,25,25.9,25,28.8,25.7L28.8,25.7z" />
<path class="st67" d="M65.9,20.8c2.7-1.5,6.2-1.5,8.8,0C71.7,20.1,68.9,20.2,65.9,20.8L65.9,20.8z" />
<path class="st67" d="M65.9,25.7c2.9-0.7,5.9-0.8,8.8,0C71.7,25.9,68.8,25.9,65.9,25.7L65.9,25.7z" />
<path class="st67" d="M66.7,68.8c3,0.6,5.8,0.6,8.8,0C72.9,70.3,69.4,70.2,66.7,68.8L66.7,68.8z" />
<path class="st67" d="M66.7,63.8c3-0.2,5.8-0.2,8.8,0C72.7,64.6,69.6,64.5,66.7,63.8L66.7,63.8z" />
<path class="st67" d="M20,69.5c1.6,0,3,0.1,4.4,0.1c1.4,0.1,3-0.2,4.4,0C26.1,70.6,22.6,70.8,20,69.5L20,69.5z" />
<path class="st67" d="M20,64.5c2.8-0.6,6.2-0.7,8.8,0.1C26,64.9,22.7,65.1,20,64.5L20,64.5z" />
<path class="st2" d="M84.2,39.6C86.8,51.8,68.2,62,48.5,62s-39-10.3-35.7-22.4c3.6-13.1,16-18.9,35.7-18.9S81.6,26.9,84.2,39.6z" />
<path class="st3" d="M12.8,39.6C15.4,28,26.5,22.3,37.6,20.9c10.9-1.3,22.3-1.2,32.6,2.9c6.8,2.6,12.8,8.4,14,15.8
c-1.7-7.2-7.5-12.6-14.3-15.1c-6.8-2.6-14.1-3.3-21.3-3.3C34.5,21.1,17.2,24.2,12.8,39.6L12.8,39.6z" />
<path class="st6" d="M12.3,43.4c0,13.4,24,27.5,32.8,32.3c2,1.1,4.4,1,6.4-0.1c8.8-5,32.9-19.8,32.9-32.4
C79.5,59.3,19.3,62,12.3,43.4z" />
<polygon class="st332" points="48,76.5 47.4,56.2 48.5,56.2 48,76.5 " />
<path class="st44" d="M84.4,43.2c-2.3,6.6-10,9.1-16.1,11c-15,3.9-35.6,4.3-49.4-3.4c-2.9-1.8-5.5-4.2-6.6-7.4
c1.3,3.1,4,5.4,6.9,7c13.6,7,34.3,6.5,48.9,3C74.1,51.7,81.8,49.5,84.4,43.2L84.4,43.2z" />
<path class="st472" d="M511.5-7756.7c-0.2-9.7-0.5-12.6-0.8-8.6c-0.3,4.3-0.5,14.4-0.7,30.2c-0.2,15.8-0.3,32.9-0.3,51.3
c0,18,0.1,32,0.4,42.1c0.2,9.7,0.5,12.6,0.8,8.6c0.3-4.3,0.5-14.4,0.7-30.2c0.2-15.8,0.3-32.9,0.3-51.3
C511.9-7732.6,511.8-7746.6,511.5-7756.7z" />
<path class="st472" d="M511.2-8890.5c0.3,4.5,0.5,1.2,0.7-9.8c0.2-11.5,0.3-27.4,0.3-47.9c0-20.9-0.1-40.3-0.2-58.3
c-0.2-18-0.4-29.5-0.7-34.4c-0.3-4.5-0.5-1.2-0.7,9.8c-0.2,11.5-0.3,27.4-0.3,47.9c0,20.9,0.1,40.3,0.2,58.3
S511-8895.4,511.2-8890.5z" />
</svg>