<svg version="1.1" xmlns="http://www.w3.org/2000/svg" xmlns:xlink="http://www.w3.org/1999/xlink" x="0px" y="0px" viewBox="0 0 432 408" style="enable-background:new 0 0 432 408;" xml:space="preserve" width="432" height="408" preserveAspectRatio="none"><style type="text/css">
	.st0{fill:#FFFFFF;}
	.st1{fill:#D0A637;}
	.st2{fill:#F56272;}
	.st3{fill:#2959A1;}
	.st4{fill:#5AB04D;}
	.st5{fill:#9ED96A;}
	.st6{fill:#1D3E70;}
	.st7{fill:#C1272D;}
	.st8{fill:#4A53FF;stroke:#000000;stroke-width:1.6;stroke-miterlimit:10;}
	.st9{fill:#FF575C;stroke:#000000;stroke-width:1.6;stroke-miterlimit:10;}
	.st10{fill:#FF9921;stroke:#000000;stroke-width:1.6;stroke-miterlimit:10;}
	.st11{fill:#AEE862;stroke:#000000;stroke-width:1.6;stroke-miterlimit:10;}
	.st12{fill:#37ACDE;stroke:#000000;stroke-width:1.6;stroke-miterlimit:10;}
	.st13{fill:#E349AD;stroke:#000000;stroke-width:1.8058;stroke-miterlimit:10;}
	.st14{fill:none;stroke:#C5DFEA;stroke-width:3;stroke-linejoin:round;stroke-miterlimit:10;}
	.st15{fill:#808080;}
	.st16{fill:#4D4D4D;}
	.st17{fill:#B3B3B3;}
	.st18{fill:#FFC2EF;}
	.st19{fill:#FFFFD4;}
	.st20{stroke:#000000;stroke-width:0.9864;stroke-miterlimit:10;}
	.st21{fill:#333333;}
	.st22{fill:none;}
	.st23{fill:#C5DFEA;}
	.st24{fill:#42152F;}
	.st25{fill:#611E45;}
	.st26{fill:#9C3589;}
	.st27{fill:#7D1D6C;}
	.st28{fill:none;stroke:#FFFFFF;stroke-width:6;stroke-miterlimit:10;}
	.st29{fill:#666666;}
	.st30{fill:#8A583F;}
	.st31{fill:#89C661;}
	.st32{fill:#8E1B24;}
	.st33{fill:#E53E4B;}
	.st34{fill:#0057A7;}
	.st35{fill:#C4F74F;}
	.st36{fill:none;stroke:#999999;stroke-width:0.5088;stroke-miterlimit:10;}
	.st37{fill:none;stroke:#2959A1;stroke-width:5;stroke-miterlimit:10;}
	.st38{fill:none;stroke:#FFFFFF;stroke-width:3;stroke-miterlimit:10;}
	.st39{fill:#2A56A1;}
	.st40{fill:#37ACDE;stroke:#000000;stroke-width:0.4427;stroke-miterlimit:10;}
	.st41{fill:none;stroke:#999999;stroke-width:0.3446;stroke-miterlimit:10;}
	.st42{fill:#E349AD;stroke:#000000;stroke-width:0.529;stroke-miterlimit:10;}
	.st43{fill:#AEE862;stroke:#000000;stroke-width:0.5475;stroke-miterlimit:10;}
	.st44{fill:#FF9921;stroke:#000000;stroke-width:0.4865;stroke-miterlimit:10;}
	.st45{fill:none;stroke:#2959A1;stroke-width:4.5998;stroke-miterlimit:10;}
	.st46{fill:#E349AD;stroke:#000000;stroke-width:1.6;stroke-miterlimit:10;}
	.st47{fill:none;stroke:#2959A1;stroke-width:4;stroke-miterlimit:10;}
	.st48{fill:#FFFFFF;stroke:#000000;stroke-miterlimit:10;}
	.st49{fill:none;stroke:#FFFFFF;stroke-miterlimit:10;}
	.st50{fill:none;stroke:#EA0000;stroke-width:4;stroke-miterlimit:10;}
	.st51{fill:none;stroke:#EA0000;stroke-width:4;stroke-miterlimit:10;stroke-dasharray:6.0068,6.0068;}
	.st52{fill:none;stroke:#EA0000;stroke-width:4;stroke-miterlimit:10;stroke-dasharray:6.0172,6.0172;}
	.st53{fill:none;stroke:#C1272D;stroke-miterlimit:10;}
	.st54{fill:none;stroke:#000000;stroke-miterlimit:10;}
	.st55{fill:none;stroke:#C5DFEA;stroke-width:2.1339;stroke-linejoin:round;stroke-miterlimit:10;}
	.st56{fill:#5A89D1;}
	.st57{fill:#9FBAE3;}
	.st58{fill:#163B73;}
	.st59{fill:#CEE9F5;}
	.st60{fill:none;stroke:#C1272D;stroke-width:0.7113;stroke-miterlimit:10;}
	.st61{fill:#A37AC2;}
	.st62{fill:#714592;}
	.st63{fill:#CCA4DE;}
	.st64{fill:#47295E;}
	.st65{fill:#4A53FF;stroke:#000000;stroke-width:0.5581;stroke-miterlimit:10;}
	.st66{fill:#E349AD;stroke:#000000;stroke-width:0.8048;stroke-miterlimit:10;}
	.st67{fill:none;stroke:#BDE0D8;stroke-width:2.1339;stroke-linejoin:round;stroke-miterlimit:10;}
	.st68{fill:#C78C63;}
	.st69{fill:#F2D5BA;}
	.st70{fill:#FFF8D9;}
	.st71{fill:#FFC9CD;}
	.st72{fill:#573827;}
	.st73{fill:#D0F2EA;}
	.st74{fill:#E349AD;stroke:#000000;stroke-width:0.6708;stroke-miterlimit:10;}
	.st75{fill:none;stroke:#EDE5BB;stroke-width:2.1339;stroke-linejoin:round;stroke-miterlimit:10;}
	.st76{fill:#A1B2C2;}
	.st77{fill:#7C8C99;}
	.st78{fill:#C5D0D9;}
	.st79{fill:#F2F2F2;}
	.st80{fill:#FFC4DA;}
	.st81{fill:#515F6E;}
	.st82{fill:#8B98A3;}
	.st83{fill:#FFF9D4;}
	.st84{fill:#AEE862;stroke:#000000;stroke-width:0.5391;stroke-miterlimit:10;}
	.st85{fill:none;stroke:#000000;stroke-linecap:round;stroke-miterlimit:10;}
	.st86{display:none;}
	.st87{display:inline;fill:#FF5CD4;}
	.st88{fill:#FF5CD4;}
	.st89{fill:#FFFFFF;stroke:#FFFFFF;stroke-miterlimit:10;}
	.st90{fill:#CCCCCC;}
	.st91{fill:#E6E6E6;}
	.st92{fill:#FF4D4D;}
</style><g id="Layer_3" /><g id="BG" /><g id="Open_Mouth" /><g id="Chew_1" /><g id="Chew_2" /><g id="Chew_3" /><g id="Chew_4" /><g id="Chew_5" /><g id="Chew_6" /><g id="Yucky_1" /><g id="Yucky_2" /><g id="Yucky_3" /><g id="Yummy_0" /><g id="Yummy_1" /><g id="Yummy_2" /><g id="Yummy_3" /><g id="Neutral_1" /><g id="Win_1" /><g id="Win_2" /><g id="Win_3" /><g id="Win_4" /><g id="Win_5" /><g id="Win_6" /><g id="Win_7" /><g id="Win_8" /><g id="Win_9_00000070117181118771457000000017804805890223002288_" /><g id="Lose_1" /><g id="Lose_2"><path class="st16" d="M113.8,281.1c-3.2-0.8-28.3-6.3-35,10.3c-7.5,18.4-28.5,32.6-48.2,19.3c0,0,12.9,18,27.4,12.6
		c0,0-16,19.4-50.1,2.4c0,0,51.2,47.8,87.7,9c8.2-8.7,25.5-36,27.5-41.6l-8.5-12.9C114.4,280.5,114.1,280.8,113.8,281.1z" /><path class="st16" d="M210.1,245c0,0-13.5-14.7-24.8-19.7c-16.7-7.5-38.8-3.4-48.8,16.6c-11.9,24-15.4,34.2-23.8,39.8l8.2,14.1
		c0,0,8.3-5.4,18.4-33.1c12.5-34.6,42-37.1,55.3-9.7c2.2,4.5,0,0,0,0l19.7-6.3" /><g><g><path class="st15" d="M397.6,288.1c1.9,1,6.8-3,6.3-9.7c-1.2-13.9-18.3-14.5-21.5-15.9c-20.2-27.6-57-43.1-60-40.7l-0.4,8.7
				c13.9,0.2,47.5,25.2,56.1,36.4c0,0-3.3,6.3,0.8,13.3c2.2,3.7,4.7,4.8,7.1,4.1c2.3-0.7-2.9-11.4-0.5-12.2
				C387.9,271.2,392.4,285.2,397.6,288.1z" /></g><g><g><path class="st16" d="M391.5,270.9c1.6,0.5,3.1,1.4,4.4,2.6c1.3,1.2,2.3,2.6,3.1,4.1c0.7,1.6,1.2,3.2,1.4,4.9
					c0.1,0.8,0.1,1.7,0.1,2.5c-0.1,0.8-0.2,1.7-0.3,2.5c-0.1-0.8-0.1-1.7-0.2-2.5l-0.2-1.2c-0.1-0.4-0.1-0.8-0.2-1.2l-0.3-1.2
					c-0.1-0.4-0.2-0.8-0.4-1.2c-0.2-0.8-0.6-1.5-0.9-2.3c-0.7-1.5-1.6-2.8-2.7-4C394.2,272.8,392.9,271.7,391.5,270.9z" /></g></g></g><path class="st14" d="M259.7,210c0,0-12.7,2.3-18.4-12.7C235.5,182.3,254.5,175.3,259.7,210z" /><g><path class="st15" d="M398.1,373.9c0.2-0.3,0.3-0.6,0.3-0.9c1.8-8.1-4.5-18.1-18.1-18.9c-8.9-0.5-25.8,10.2-33,15
			c-3.6,1.2-5.9,2.1-5.9,2.1l0.5,0.2c-10.3,1.6-19.9,4.6-22.1,7.4c0,0,23.3-4.7,34.8,6.4c11.6,11.2,23.8,21.2,29.3,13.6
			c2.1-2.9,2.4-6,1.5-9c4.1,1.6,8.4,2.4,10.9,0.3C400.4,386.9,401.5,379.8,398.1,373.9z" /></g><g><path class="st16" d="M362.9,365.3c2.9-1.9,6.1-3.2,9.5-4c1.7-0.4,3.4-0.6,5.2-0.7c1.8,0,3.5,0.1,5.3,0.4c1.7,0.4,3.4,0.9,5,1.7
			c1.6,0.8,3.1,1.8,4.3,3c2.6,2.4,4.4,5.4,5.6,8.7c-1.9-2.8-4.1-5.4-6.6-7.5c-2.6-2-5.6-3.4-8.8-4c-3.2-0.7-6.5-0.6-9.8-0.2
			C369.4,363.3,366.1,364.1,362.9,365.3z" /></g><g><path class="st16" d="M385.3,390.3c0-3.6-0.6-7.1-2.1-10.2c-1.5-3.1-4.1-5.4-7.2-6.7c-1.6-0.6-3.2-1.1-4.9-1.3
			c-0.8-0.1-1.7-0.2-2.6-0.3c-0.9,0-1.7-0.1-2.6-0.1c-3.5,0-7,0.4-10.6,0.8c3.4-1.2,6.9-2,10.6-2.3c3.6-0.3,7.4,0,10.9,1.4
			c1.7,0.7,3.4,1.8,4.8,3.1c1.3,1.4,2.4,3,3.1,4.7C386.1,383,386.2,386.8,385.3,390.3z" /></g><g><path class="st15" d="M242.2,377.1l0.5-0.2c0,0-2.2-0.9-5.9-2.1c-7.1-4.8-24.1-15.5-33-15c-13.6,0.7-19.9,10.8-18.1,18.9
			c0.1,0.3,0.2,0.6,0.3,0.9c-3.4,5.9-2.3,13,1.7,16.3c2.5,2.1,6.8,1.3,10.9-0.3c-0.8,3.1-0.6,6.1,1.5,9c5.5,7.5,17.7-2.5,29.3-13.6
			c11.5-11.1,34.8-6.4,34.8-6.4C262.1,381.7,252.5,378.8,242.2,377.1z" /></g><g><path class="st16" d="M221.2,370.9c-3.2-1.1-6.5-2-9.8-2.4c-3.3-0.4-6.6-0.5-9.8,0.2c-3.2,0.6-6.2,2-8.8,4c-2.6,2-4.7,4.6-6.6,7.5
			c1.2-3.2,3-6.2,5.6-8.7c1.3-1.2,2.8-2.2,4.3-3c1.6-0.8,3.3-1.4,5-1.7c1.7-0.3,3.5-0.5,5.3-0.4c1.8,0.1,3.5,0.3,5.2,0.7
			C215,367.7,218.3,369,221.2,370.9z" /></g><g><path class="st16" d="M198.7,396c-0.9-3.5-0.7-7.3,0.7-10.8c0.7-1.8,1.7-3.4,3.1-4.7c1.4-1.4,3-2.4,4.8-3.1
			c3.5-1.4,7.3-1.7,10.9-1.4c3.6,0.3,7.2,1.1,10.6,2.3c-3.6-0.4-7.1-0.8-10.6-0.8c-0.9,0-1.7,0.1-2.6,0.1c-0.9,0.1-1.7,0.1-2.6,0.3
			c-1.7,0.2-3.4,0.7-4.9,1.3c-3.1,1.2-5.7,3.6-7.2,6.7C199.3,388.8,198.7,392.4,198.7,396z" /></g><path class="st16" d="M329.5,236.5c-2.5-6.8-3.7-14.9-2.9-24.5l-73-41.6c0,0-2.7,19.2,4,34c6.7,14.8,6.3,43.2-23.7,45.2
		c-6.6,0.4-20.6-1.7-26.1-6.5l-13.1,9.8c-1.7,5.4-3.8,11.3-6,17.3c-5.8,15.7-17.9,87.3,52.8,109.2c42.6,13.2,85.7,8.6,110.8-9.3
		L329.5,236.5z" /><path class="st17" d="M329.5,236.5c0,0-5.1-17.8-3.3-33l-46.6,1.3c0,0-4.5,53.3-41.2,62.7l11.6,3.6c0.1-0.1-19.7,5.9-31.8,26.4
		l11.6-4c0,0-60,60.8,11.6,86c66.3,23.3,110.2-7.8,110.2-7.8c16.6-11.8,25.8-32.5,21.4-54.4l7.2,4.4c0,0,3.6-31.3-21.5-45.7
		l11.6,1.2c0,0-7.6-9.6-17.4-14.6C344.9,258.5,334.9,251.3,329.5,236.5" /><path class="st14" d="M259.1,210.5c0,0-21.3-6.1-21.3,9.6S256.5,215.2,259.1,210.5z" /><g><g><path class="st15" d="M198.8,297.1c-1.7,1.3-7.3-1.7-7.9-8.5c-1.2-13.9,15.5-17.5,18.5-19.4c15.1-30.7,48.6-52.4,52-50.5l1.9,8.5
				c-13.6,2.6-42.3,33-48.9,45.6c0,0,4.3,5.6,1.6,13.2c-1.5,4.1-3.8,5.5-6.3,5.2c-2.4-0.3,0.8-11.7-1.7-12.1
				C205.5,278.8,203.4,293.3,198.8,297.1z" /></g><g><g><path class="st16" d="M201.8,279c-1.3,1.1-2.3,2.4-3.2,3.7c-0.9,1.4-1.5,2.9-2,4.4c-0.2,0.8-0.4,1.6-0.5,2.4
					c0,0.4-0.1,0.8-0.2,1.2L196,292c0,0.4,0,0.8,0,1.2l0,1.2c0,0.8,0.2,1.7,0.2,2.5c-0.3-0.8-0.5-1.6-0.7-2.4
					c-0.1-0.8-0.3-1.7-0.3-2.5c-0.1-1.7,0.1-3.4,0.5-5.1c0.5-1.7,1.3-3.2,2.3-4.6C199,281,200.3,279.8,201.8,279z" /></g></g></g><g><g><path class="st18" d="M268.2,163.6c0,0-29.5,4.5-45.2-21.4s-9-40.4,0.2-53.2c0,0-2.1,12,6,17.3s29.5,2.9,39.2,18
				c9.7,15.1,12.8,30.8,12.8,30.8L268.2,163.6z" /></g><g><path class="st16" d="M223.9,82.3c0,0-6.3,20.2,17.1,24.1s39.9,12.3,42.3,35.2l-10.4,10.7c0,0-0.3-27.6-18.5-34.6
				C246.1,114.5,213.9,111.1,223.9,82.3z" /></g><g><path class="st16" d="M229.5,69.8c-1.4,2.6-2.4,5.4-3.2,8.3c-0.8,2.8-1.2,5.7-1.3,8.6c-0.1,2.9,0.3,5.7,1.1,8.4l0.7,2l0.9,1.9
				c0.2,0.3,0.3,0.6,0.5,0.9l0.6,0.9l1.1,1.7l-3.5,2.3l-1.1-2.2l-0.5-1.1c-0.1-0.4-0.3-0.8-0.4-1.1l-0.8-2.3l-0.5-2.3
				c-0.5-3.1-0.6-6.3-0.1-9.3c0.4-3,1.3-6,2.4-8.8C226.4,75,227.8,72.3,229.5,69.8z" /></g><g><path class="st16" d="M230.2,108.2c-0.6-0.7-1.1-1.4-1.5-2c-0.5-0.7-0.9-1.4-1.3-2.1c-0.8-1.4-1.5-2.9-2-4.5
				c-0.5-1.6-0.9-3.3-0.9-5c0-1.7,0.3-3.5,1.1-5.1c0.7-1.6,1.8-2.9,3.1-3.9c1.2-1.1,2.6-1.8,4-2.5c2.8-1.3,5.8-2.1,8.8-2.6
				c-2.9,1-5.7,2.2-8.2,3.8c-1.2,0.8-2.4,1.7-3.3,2.8c-0.9,1.1-1.6,2.3-2,3.5c-0.8,2.5-0.2,5.2,1,7.6c0.6,1.2,1.4,2.4,2.2,3.5
				c0.4,0.6,0.9,1.1,1.3,1.6c0.5,0.5,1,1,1.4,1.4L230.2,108.2z" /></g></g><g><path class="st18" d="M374,104.2c0,0,10.6,0.9,14.2-8.7c0,0,7.7,46.8-29.6,50.5l-22.1-14.6c0,0,3.1-19.3,15.6-23.2
			S374,104.2,374,104.2z" /><g><path class="st16" d="M333.6,129.8l7.8,5.9c0,0-1-18.8,15.6-24.7c13.8-4.9,27.3-1.6,30.6-12.3c0,0-8.3,3.8-19.7,4.3
				C357,103.5,332.4,105.9,333.6,129.8z" /></g><g><path class="st16" d="M378.2,102.2c3.8-1.4,7.3-3.5,9.6-6.7c2.3-3.1,3.2-7.3,2.6-11.3c-0.5-4.1-2.2-8-4.6-11.5
				c-2.4-3.5-5.4-6.6-8.9-9.1c3.7,2.2,7,5.1,9.7,8.5c2.7,3.4,4.9,7.4,5.8,11.8c0.5,2.2,0.6,4.5,0.3,6.8c-0.3,2.3-1.1,4.6-2.4,6.6
				c-1.2,2-2.8,3.8-4.7,5.2c-1.8,1.5-3.8,2.6-5.9,3.6L378.2,102.2z" /></g><g><path class="st16" d="M380.9,101c0.4-0.2,1-0.5,1.5-0.8c0.5-0.3,1-0.7,1.5-1.1c0.9-0.8,1.8-1.8,2.3-2.8c1.2-2.1,1.4-4.8,0.8-7.3
				c-0.7-2.6-2-5.1-3.6-7.3c-1.6-2.3-3.5-4.4-5.5-6.4c2.2,1.8,4.4,3.6,6.4,5.8c1.9,2.1,3.7,4.5,4.8,7.4c0.5,1.4,0.9,3,0.9,4.6
				c0,1.6-0.2,3.2-0.9,4.8c-0.6,1.5-1.5,2.9-2.6,4.1c-0.5,0.6-1.1,1.1-1.7,1.7c-0.6,0.5-1.2,1-2.1,1.4L380.9,101z" /></g></g><ellipse transform="matrix(0.9999 -1.712466e-02 1.712466e-02 0.9999 -2.764 6.6625)" class="st19" cx="387.6" cy="164.7" rx="20.6" ry="19" /><g><path class="st16" d="M381.4,146.7c1.9-0.6,3.9-0.9,6-0.9c8.4-0.1,15.7,4.3,19,10.9C397.3,153.5,387.1,149.8,381.4,146.7z" /></g><ellipse transform="matrix(0.9999 -1.712485e-02 1.712485e-02 0.9999 -2.8652 6.7747)" cx="394.1" cy="170.7" rx="11.1" ry="11.5" /><g><path class="st16" d="M325.7,127.2c-41.5,0.7-70,21.7-74.4,50.3c-4.1,26.7,34.5,48.4,76,47.7c36.3-0.6,66.4-14.5,73.1-36.1
			c0.9-3.1,1.4-6.3,1.4-9.7C401.4,152.3,367.3,126.5,325.7,127.2z" /></g><g><path class="st16" d="M405.3,189.1l-14.5,4l-1.2-41.2C389.7,151.9,404,167.1,405.3,189.1z" /></g><ellipse transform="matrix(0.9999 -1.712459e-02 1.712459e-02 0.9999 -2.8783 5.4004)" class="st19" cx="313.9" cy="170.8" rx="22.7" ry="21.8" /><g><path class="st16" d="M324.9,144.9c-12.3,10.3-27.6,14.6-44.3,15.8c0,0,3.6-22.1,5.8-21.6c2.2,0.5,32.4-1,32.4-1L324.9,144.9z" /></g><ellipse transform="matrix(0.9999 -1.712485e-02 1.712485e-02 0.9999 -3.0319 5.3549)" cx="311.2" cy="179.7" rx="12.9" ry="13.4" /><ellipse transform="matrix(0.6949 -0.7191 0.7191 0.6949 -13.1855 327.6401)" class="st21" cx="379.5" cy="179.4" rx="6.1" ry="3.6" /><ellipse transform="matrix(0.6668 -0.7453 0.7453 0.6668 -0.8011 353.2283)" class="st21" cx="394.6" cy="177.5" rx="3.4" ry="5.2" /><g><path class="st21" d="M327.8,145c3.3,2.7,5.9,6.2,8.1,9.9c2.1,3.7,3.7,7.9,4.5,12.2c0.4,2.2,0.5,4.4,0.5,6.6
			c-0.1,2.2-0.4,4.4-1,6.5c-1.2,4.3-3.5,8.1-6.5,11.1c0.8-2,1.6-3.9,2.2-5.8c0.3-1,0.5-2,0.8-2.9c0.2-1,0.4-2,0.5-2.9
			c0.2-1,0.2-2,0.3-2.9c0-1,0.1-2,0-3c-0.1-2-0.2-3.9-0.6-5.9c-0.7-3.9-1.9-7.7-3.4-11.5C331.6,152.4,329.8,148.7,327.8,145z" /></g><path class="st24" d="M400,190.5c0,0-8.1,2.1-21.7,3.2c-15.9,1.2-27.8,1.7-43.1,1.5c-33.1-0.5-37.9,0.1-43.9,0.9
		c-3.8,0.5,6.5,11.6,23.4,9.7c19.9-2.1,30.2,0.1,41.1,1.5c11.7,1.5,18.9,2.7,18.9,2.7S395.8,203.7,400,190.5z" /><path class="st26" d="M326.5,205.2c0,0,22.2-12,51.3-6.3c37,7.3-5.8,22.9-29,11.7C329.1,201.1,326.5,205.2,326.5,205.2z" /><g><path class="st27" d="M341.6,200.1c3.6-1.5,7.6-2.1,11.5-2.1c3.9,0,7.9,0.5,11.7,1.5c1.9,0.6,3.8,1.1,5.6,1.9
			c0.9,0.4,1.8,0.8,2.7,1.2c0.9,0.4,1.7,0.9,2.6,1.4l1.3,0.7c0.4,0.3,0.8,0.5,1.2,0.8l2.4,1.6c1.6,1.2,3,2.5,4.5,3.8
			c-1.8-0.8-3.5-1.7-5.2-2.5l-2.6-1.2c-0.4-0.2-0.9-0.4-1.3-0.6l-1.3-0.5c-0.9-0.3-1.8-0.7-2.6-1.1c-0.9-0.3-1.8-0.6-2.7-0.9
			l-1.3-0.5c-0.4-0.2-0.9-0.3-1.3-0.4c-0.9-0.3-1.8-0.6-2.7-0.8l-2.7-0.7c-0.9-0.3-1.8-0.3-2.7-0.6c-0.9-0.2-1.8-0.3-2.8-0.5
			c-0.9-0.1-1.9-0.3-2.8-0.4C349.2,199.9,345.4,199.8,341.6,200.1z" /></g><path class="st23" d="M328.4,223.3c0,0,72.6,56.2-21.8,56.5c-64.2,0.2-58.5-10.8-49.5-76.7C269.9,224.7,290.7,231.7,328.4,223.3z" /></g><g id="Lose_3" /><g id="Lose_4" /></svg>