<svg version="1.1" id="Layer_1" xmlns="http://www.w3.org/2000/svg" xmlns:xlink="http://www.w3.org/1999/xlink" x="0px" y="0px" viewBox="0 0 432 408" style="enable-background:new 0 0 432 408;" xml:space="preserve" width="432" height="408" preserveAspectRatio="none"><style type="text/css">
	.st0{fill:#FFC2EF;}
	.st1{fill:#4D4D4D;}
	.st2{fill:#808080;}
	.st3{fill:none;stroke:#C5DFEA;stroke-width:3;stroke-linejoin:round;stroke-miterlimit:10;}
	.st4{fill:#B3B3B3;}
	.st5{fill:#FFFFD4;}
	.st6{fill:#333333;}
	.st7{fill:#42152F;}
	.st8{fill:#9C3589;}
	.st9{fill:#7D1D6C;}
	.st10{fill:#C5DFEA;}
</style><g id="Layer_3" /><g id="BG" /><g id="Open_Mouth" /><g id="Chew_1" /><g id="Chew_2" /><g id="Chew_3" /><g id="Chew_4" /><g id="Chew_5" /><g id="Chew_6" /><g id="Yucky_1" /><path class="st0" d="M387.89999,125.4c0,0,9,5.7,16.60001-1.2c0,0-14.70001,45.1-49.60001,31.2l-12.79999-23.2
	c0,0,11.70001-15.7,24.5-13.4C379.5,121,387.89999,125.4,387.89999,125.4z" /><g><path class="st1" d="M340.29999,129.5l4.20001,8.8c0,0,7.79999-17.2,25.20001-14.7c14.5,2,25,11.10001,32.79999,3.2
		c0,0-9.10001-0.4-19.39999-5.2C373.20001,117,350.29999,107.7,340.29999,129.5z" /></g><g><path class="st1" d="M392.60001,125.6c4,0.5,8.10001,0.2,11.60001-1.5s6.20001-5,7.5-8.9c1.39999-3.9,1.70001-8.2,1.20001-12.4
		c-0.5-4.2-1.79999-8.4-3.70001-12.2c2.20001,3.7,3.89999,7.8,4.70001,12c0.79999,4.3,0.89999,8.8-0.29999,13.2
		c-0.60001,2.2-1.5,4.3-2.89999,6.2c-1.29999,1.9-3.10001,3.5-5.10001,4.8c-2,1.2-4.29999,1.99999-6.60001,2.49999
		c-2.29999,0.5-4.60001,0.60001-6.89999,0.5L392.60001,125.6z" /></g><g><path class="st1" d="M395.60001,125.7c0.39999,0,1.20001,0,1.70001,0c0.60001-0.1,1.20001-0.2,1.79999-0.3
		c1.20001-0.3,2.39999-0.7,3.39999-1.4c2-1.3,3.5-3.6,4.10001-6.2s0.5-5.4,0.10001-8.2c-0.39999-2.8-1.10001-5.5-2-8.3
		c1.20001,2.6,2.20001,5.3,3,8.1c0.70001,2.8,1.20001,5.7,0.89999,8.8c-0.20001,1.5-0.60001,3-1.29999,4.5
		c-0.70001,1.4-1.70001,2.8-3,3.8c-1.20001,1.1-2.70001,1.89999-4.20001,2.39999c-0.79999,0.3-1.5,0.5-2.29999,0.7s-1.5,0.3-2.5,0.3
		L395.60001,125.7z" /></g><g><path class="st0" d="M275,165.89999c0,0-25.10001,16.3-50.10001-0.89999S200,131.89999,203.2,116.4c0,0,3.10001,11.8,12.60001,13.2
		c9.5,1.5,28-9.5,43.09999,0.2c15.10001,9.7,24.39999,22.8,24.39999,22.8L275,165.89999z" /></g><g><path class="st1" d="M201.2,110c0,0,2.60001,21,25.5,14.9s41.40001-5.2,53.00002,14.6l-5,14c0,0-11.60001-25-31.10001-23.89999
		C234.7,130.2,204,140.39999,201.2,110z" /></g><g><path class="st1" d="M201.10001,96.4c-0.2,3,0,6,0.5,8.9s1.3,5.7,2.39999,8.4c1.10001,2.7,2.7,5.1,4.5,7.2l1.39999,1.5l1.60001,1.3
		c0.3,0.2,0.5,0.4,0.8,0.7L213.2,125l1.7,1.1l-2.2,3.50001l-1.89999-1.5l-0.89999-0.8c-0.3-0.3-0.60001-0.6-0.8-0.9L207.5,124.7
		l-1.39999-1.9c-1.8-2.6-3.2-5.5-4-8.4c-0.8-3-1.3-6-1.39999-9C200.39999,102.3,200.5,99.3,201.10001,96.4z" /></g><g><path class="st1" d="M217.60001,131c-0.89999-0.39999-1.5-0.8-2.3-1.2c-0.7-0.39999-1.39999-0.89999-2.10001-1.39999
		c-1.3-1-2.60001-2-3.7-3.3c-1.10001-1.2-2.10001-2.6-2.89999-4.2c-0.7-1.6-1.10001-3.3-1.10001-5s0.5-3.4,1.2-4.9
		s1.60001-2.8,2.60001-4c2-2.4,4.39999-4.3,6.89999-6c-2.2,2.1-4.3,4.3-5.89999,6.8c-0.7,1.3-1.39999,2.6-1.8,3.9
		c-0.39999,1.3-0.60001,2.7-0.39999,4c0.3,2.6,2,4.8,4.10001,6.5c1.10001,0.9,2.2,1.6,3.5,2.2c0.60001,0.3,1.2,0.6,1.89999,0.9
		c0.60001,0.3,1.3,0.5,1.89999,0.7L217.60001,131z" /></g><path class="st2" d="M323,222.8c0,0,39.5-3.3,64.89999,37.59999c0,0,20.29999-1.70001,23,17
	c0.79999,5.60001-7.20001,7.89999-13.70001,0.29999c-2.89999-3.39999-5.20001-6.5-8.70001-7.29999
	c-6.5-1.39999,2.70001,14.29999-5.20001,10.20001c-9.10001-4.70001-2.39999-17-2.39999-17S362.5,230,319.60001,231L323,222.8z" /><g><path class="st1" d="M394.39999,266.79999c1.79999,0.10001,3.5,0.70001,5.20001,1.5c1.60001,0.79999,3.10001,2,4.29999,3.39999
		c0.29999,0.39999,0.60001,0.70001,0.89999,1.10001L405.5,274c0.20001,0.39999,0.39999,0.89999,0.60001,1.29999
		c0.10001,0.20001,0.20001,0.39999,0.29999,0.60001l0.20001,0.70001c0.60001,1.79999,0.5,3.70001,0.20001,5.39999
		c-0.5-1.70001-0.89999-3.39999-1.60001-4.89999S403.60001,274.20001,402.5,273s-2.29999-2.29999-3.60001-3.39999
		C397.39999,268.60001,395.89999,267.70001,394.39999,266.79999z" /></g><g><path class="st1" d="M404.5,265.89999c1.20001,0.5,2.29999,1.39999,3.20001,2.39999c0.89999,1,1.60001,2.20001,2.20001,3.39999
		c0.5,1.29999,0.89999,2.60001,1,3.89999c0.10001,0.70001,0.10001,1.29999,0.10001,2s-0.10001,1.29999-0.20001,2
		c-0.10001-0.70001-0.20001-1.29999-0.29999-1.89999c-0.10001-0.60001-0.20001-1.29999-0.39999-1.89999
		c-0.29999-1.29999-0.70001-2.5-1.20001-3.60001c-0.5-1.20001-1.10001-2.29999-1.89999-3.29999
		C406.39999,267.70001,405.5,266.79999,404.5,265.89999z" /></g><path class="st3" d="M259.70001,210c0,0-12.7,2.3-18.39999-12.7C235.5,182.3,254.5,175.3,259.70001,210z" /><path class="st3" d="M259.10001,210.5c0,0-21.3-6.10001-21.3,9.60001S256.5,215.2,259.10001,210.5z" /><path class="st1" d="M329.5,236.5c-2.5-6.8-3.70001-14.89999-2.89999-24.5l-73-41.60001c0,0-2.7,19.2,4,34
	c6.70001,14.8,6.29999,43.2-23.7,45.2c-6.5,0.39999-19.89999-1.60001-25.7-6.2l-13,7.8c0,0.10001-0.10001,0.2-0.10001,0.3
	c-1.7,5.70001-4,12.10001-6.39999,18.60001c-5.8,15.70001-17.89999,87.30002,52.8,109.19998
	c42.59999,13.20001,85.7,8.60001,110.8-9.29999L329.5,236.5z" /><path class="st2" d="M398.10001,373.89999c0.20001-0.29999,0.29999-0.60001,0.29999-0.89999
	c1.79999-8.10001-4.5-18.10001-18.10001-18.89999c-8.89999-0.5-25.79999,10.20001-33,15
	c-3.60001,1.20001-5.89999,2.10001-5.89999,2.10001l0.5,0.20001c-10.29999,1.60001-19.89999,4.60001-22.10001,7.39999
	c0,0,23.29999-4.70001,34.79999,6.39999c11.60001,11.20001,23.79999,21.20001,29.29999,13.60001c2.10001-2.89999,2.39999-6,1.5-9
	c4.10001,1.60001,8.39999,2.39999,10.89999,0.29999C400.39999,386.89999,401.5,379.79999,398.10001,373.89999z" /><path class="st1" d="M362.89999,365.29999c2.89999-1.89999,6.10001-3.20001,9.5-4c1.70001-0.39999,3.39999-0.60001,5.20001-0.70001
	c1.79999,0,3.5,0.10001,5.29999,0.39999c1.70001,0.39999,3.39999,0.89999,5,1.70001c1.60001,0.79999,3.10001,1.79999,4.29999,3
	c2.60001,2.39999,4.39999,5.39999,5.60001,8.70001c-1.89999-2.79999-4.10001-5.39999-6.60001-7.5
	c-2.60001-2-5.60001-3.39999-8.79999-4c-3.20001-0.70001-6.5-0.60001-9.79999-0.20001
	C369.39999,363.29999,366.10001,364.10001,362.89999,365.29999z" /><path class="st1" d="M385.29999,390.29999c0-3.60001-0.60001-7.10001-2.10001-10.20001s-4.10001-5.39999-7.20001-6.70001
	c-1.60001-0.60001-3.20001-1.10001-4.89999-1.29999c-0.79999-0.10001-1.70001-0.20001-2.60001-0.29999
	c-0.89999,0-1.70001-0.10001-2.60001-0.10001c-3.5,0-7,0.39999-10.60001,0.79999c3.39999-1.20001,6.89999-2,10.60001-2.29999
	c3.60001-0.29999,7.39999,0,10.89999,1.39999c1.70001,0.70001,3.39999,1.79999,4.79999,3.10001
	c1.29999,1.39999,2.39999,3,3.10001,4.70001C386.10001,383,386.20001,386.79999,385.29999,390.29999z" /><path class="st2" d="M242.2,377.10001l0.5-0.20001c0,0-2.2-0.89999-5.89999-2.10001c-7.10001-4.79999-24.10001-15.5-33-15
	C190.2,360.5,183.90001,370.59998,185.7,378.69998c0.10001,0.29999,0.2,0.60001,0.3,0.89999c-3.39999,5.89999-2.3,13,1.7,16.29999
	c2.5,2.10001,6.8,1.29999,10.89999-0.29999c-0.8,3.10001-0.60001,6.10001,1.5,9c5.5,7.5,17.7-2.5,29.3-13.60001
	c11.5-11.10001,34.79999-6.39999,34.79999-6.39999C262.10001,381.70001,252.5,378.79999,242.2,377.10001z" /><path class="st1" d="M221.2,370.89999c-3.2-1.10001-6.5-2-9.8-2.39999s-6.60001-0.5-9.8,0.20001c-3.2,0.60001-6.2,2-8.8,4
	s-4.7,4.60001-6.60001,7.5c1.2-3.20001,3-6.20001,5.60001-8.70001c1.3-1.20001,2.8-2.20001,4.3-3
	c1.60001-0.79999,3.3-1.39999,5-1.70001c1.7-0.29999,3.5-0.5,5.3-0.39999s3.5,0.29999,5.2,0.70001
	C215,367.70001,218.3,369,221.2,370.89999z" /><path class="st1" d="M198.7,396c-0.89999-3.5-0.7-7.29999,0.7-10.79999c0.7-1.79999,1.7-3.39999,3.10001-4.70001
	c1.39999-1.39999,3-2.39999,4.8-3.10001C210.8,376,214.60001,375.69998,218.2,376c3.60001,0.29999,7.2,1.10001,10.60001,2.29999
	C225.2,377.89999,221.7,377.5,218.2,377.5c-0.89999,0-1.7,0.10001-2.60001,0.10001c-0.89999,0.10001-1.7,0.10001-2.60001,0.29999
	c-1.7,0.20001-3.39999,0.70001-4.89999,1.29999c-3.10001,1.20001-5.7,3.60001-7.2,6.70001
	C199.3,388.79999,198.7,392.39999,198.7,396z" /><path class="st4" d="M329.5,236.5c0,0-5.10001-17.8-3.29999-33l-46.60001,1.3c0,0-4.5,53.3-41.2,62.7l11.60001,3.60001
	c0.10001-0.10001-19.7,5.89999-31.8,26.39999l11.60001-4c0,0-60,60.79999,11.60001,86
	c66.29999,23.29999,110.20001-7.79999,110.20001-7.79999c16.60001-11.79999,25.79999-32.5,21.39999-54.39999l7.20001,4.39999
	c0,0,3.60001-31.29999-21.5-45.70001l11.60001,1.20001c0,0-7.60001-9.60001-17.39999-14.60001
	C344.89999,258.5,334.89999,251.3,329.5,236.5" /><ellipse transform="matrix(0.03408 -0.99942 0.99942 0.03408 211.13441 551.05157)" class="st5" cx="390.64798" cy="166.29761" rx="18.99964" ry="20.59961" /><ellipse transform="matrix(0.03408 -0.99942 0.99942 0.03408 211.05186 562.62323)" cx="396.59314" cy="172.12617" rx="11.49978" ry="11.09979" /><path class="st1" d="M404,181.70001c1-27.10004-31.79993-54.60004-73.29999-56c-41.5-1.40002-71.44601,17.0071-77.246,45.30708
	l0.54373,1.10551c-5.38544,26.49493,32.00885,50.08765,73.50226,51.48737c36.29999,1.20001,67.09998-11.09998,74.79999-32.29999
	l-0.19183-0.02484C403.20294,188.28217,403.90027,185.09076,404,181.70001z" /><path class="st1" d="M407.10001,191.60001l-12.5,1.39999l-1.20001-39.39999
	C393.29999,153.60001,406.89999,169.5,407.10001,191.60001z" /><ellipse transform="matrix(0.03408 -0.99942 0.99942 0.03408 137.42789 479.38293)" class="st5" cx="316.71771" cy="168.59457" rx="21.79957" ry="22.69956" /><ellipse transform="matrix(0.03408 -0.99942 0.99942 0.03408 133.8537 481.61942)" cx="316.08759" cy="171.5619" rx="13.39974" ry="12.89975" /><ellipse transform="matrix(0.7308 -0.6826 0.6826 0.7308 -20.43468 309.20169)" class="st6" cx="381.78973" cy="180.50801" rx="6.10004" ry="3.60003" /><ellipse transform="matrix(0.7041 -0.7101 0.7101 0.7041 -9.93831 334.97311)" class="st6" cx="396.96545" cy="179.41154" rx="3.39999" ry="5.19999" /><path class="st6" d="M331.89999,143.5c3.20001,2.89999,5.60001,6.5,7.60001,10.3c1.89999,3.8,3.29999,8,3.89999,12.39999
	c0.29999,2.2,0.29999,4.39999,0.10001,6.60001c-0.20001,2.2-0.60001,4.39999-1.39999,6.5C340.70001,183.5,338.20001,187.2,335,190
	c0.89999-2,1.79999-3.8,2.5-5.7c0.39999-0.89999,0.60001-1.89999,0.89999-2.89999c0.20001-1,0.5-1.89999,0.60001-2.89999
	c0.20001-1,0.29999-2,0.39999-2.89999c0.10001-1,0.20001-2,0.20001-2.89999c0-2,0-3.89999-0.29999-5.89999
	c-0.5-3.89999-1.5-7.8-2.79999-11.7C335.29999,151.2,333.70001,147.39999,331.89999,143.5z" /><path class="st1" d="M337.10001,158.60001c-12.79999,9.60001-28.29999,13.2-45,13.5c0,0-2.39999-12.5,6.89999-21.3
	c14.5-13.60001,34.29999-1.89999,34.29999-1.89999L337.10001,158.60001z" /><path class="st7" d="M402.60001,192.2c0,0-0.10001-1.8-13.79999-2.7c-15.89999-1-36.79999,5.60001-52.10001,4.5
	c-33-2.2-43.79999-27.5-63.89999-13.5c-14.10001,9.7,9.10001,33.7,25.29999,28.7c22-6.7,36.5,3.7,47.20001,8.60001
	c10.70001,4.89999,32.79999-2.8,32.79999-2.8S397.60001,205.10001,402.60001,192.2z" /><path class="st8" d="M310,200c0,0,66.29999-10.39999,97,11.5s-20.29999,22.60001-37.60001,11.10001C342,204.60001,310,200,310,200z" /><path class="st9" d="M355.79999,198c5.39999-0.7,10.89999-0.2,16.29999,0.8c5.39999,1.10001,10.60001,3,15.5,5.60001
	c2.39999,1.39999,4.79999,2.8,6.89999,4.5c0.60001,0.39999,1.10001,0.89999,1.60001,1.3c0.5,0.39999,1.10001,0.89999,1.5,1.39999
	c0.5,0.5,1,0.89999,1.5,1.39999l1.39999,1.5c3.70001,4.10001,6.5,8.89999,8.39999,14c-3-4.5-6.29999-8.8-10.10001-12.39999
	c-3.79999-3.60001-8.10001-6.7-12.70001-9.2c-2.29999-1.3-4.70001-2.39999-7.10001-3.39999s-5-1.8-7.5-2.60001
	C366.5,199.7,361.20001,198.60001,355.79999,198z" /><path class="st1" d="M378.39999,151c3.60001-2.39999,8.10001-3.8,12.89999-3.60001c11.39999,0.39999,20.29999,9.2,20,19.7
	C402.79999,165.39999,390.5,158.10001,378.39999,151z" /><path class="st1" d="M147.3,345.39999c0,0-15.39999-27-33-19.60001c-18.3,7.70001-43.2,2.70001-47.7-20.60001
	c0,0-3.7,21.89999,10.4,28.29999c0,0-25.1,2.29999-37-33.89999c0,0,2.1,70,55.3,68.60001
	c16.8-0.39999,38.40001-5.29999,51.90001-10.60001C155,354.79999,157.2,344.89999,147.3,345.39999z" /><path class="st1" d="M208.2,243.39999c0,0-20.2-21.60001-38.5-5.10001c-14.7,13.2,3.39999,91.5-25.60001,108.29999v12.29999
	c0,0,20-1.79999,28.3-32.89999c6.10001-23-8.39999-98,22.60001-71.60001L208.2,243.39999z" /><path class="st2" d="M261.60001,219.39999c0,0-39.60001,1.60001-59.8,45.29999c0,0-20.39999,0.79999-20.7,19.70001
	C181,290,189.20001,291.39999,194.70001,283c2.5-3.70001,4.39999-7.10001,7.7-8.29999c6.2-2.20001-0.89999,14.5,6.39999,9.5
	c8.39999-5.79999,0.3-17.10001,0.3-17.10001s14.2-35.60001,56.89999-40L261.60001,219.39999z" /><g><path class="st1" d="M196.10001,271.79999c-1.39999,1.10001-2.7,2.20001-4,3.29999c-1.2,1.20001-2.3,2.39999-3.2,3.79999
		c-0.89999,1.29999-1.60001,2.79999-2.10001,4.39999c-0.60001,1.60001-0.7,3.20001-1,5c-0.5-1.70001-0.8-3.60001-0.5-5.39999
		l0.10001-0.70001c0-0.20001,0.10001-0.39999,0.2-0.70001c0.10001-0.39999,0.3-0.89999,0.39999-1.29999l0.60001-1.29999
		c0.2-0.39999,0.5-0.79999,0.7-1.20001c1-1.5,2.39999-2.79999,3.89999-3.89999
		C192.7,272.89999,194.39999,272.10001,196.10001,271.79999z" /></g><g><path class="st1" d="M186,272.10001c-0.89999,1-1.60001,2-2.2,3.10001c-0.60001,1.10001-1.10001,2.29999-1.5,3.5
		c-0.3,1.20001-0.60001,2.5-0.7,3.79999C181.5,283.10001,181.5,283.79999,181.5,284.39999c0,0.70001,0,1.29999,0,2
		c-0.2-0.60001-0.3-1.29999-0.39999-1.89999c-0.10001-0.70001-0.2-1.29999-0.2-2c0-1.29999,0.2-2.70001,0.5-4
		c0.39999-1.29999,1-2.5,1.8-3.60001C183.8,273.79999,184.8,272.79999,186,272.10001z" /></g><path class="st10" d="M328.39999,223.3c0,0,72.60001,56.2-21.79999,56.49998c-64.2,0.20001-58.5-10.79999-49.5-76.7
	C269.89999,224.7,290.70001,231.7,328.39999,223.3z" /><g id="Yucky_3" /><g id="Yummy_0" /><g id="Yummy_1" /><g id="Yummy_2" /><g id="Yummy_3" /><g id="Neutral_1" /><g id="Win_1" /><g id="Win_2" /><g id="Win_3" /><g id="Win_4" /><g id="Win_5" /><g id="Win_6" /><g id="Win_7" /><g id="Win_8" /><g id="Win_9_00000070117181118771457000000017804805890223002288_" /><g id="Lose_1" /><g id="Lose_2" /><g id="Lose_3" /></svg>