<svg version="1.1" xmlns="http://www.w3.org/2000/svg" xmlns:xlink="http://www.w3.org/1999/xlink" x="0px" y="0px" viewBox="0 0 432 408" style="enable-background:new 0 0 432 408;" xml:space="preserve" width="432" height="408" preserveAspectRatio="none"><style type="text/css">
	.st0{fill:#1A1A1A;}
	.st1{fill:none;stroke:#B3B3B3;stroke-width:2.6767;stroke-miterlimit:10;}
	.st2{fill:#CCCCCC;}
	.st3{fill:#FFFFFF;stroke:#B3B3B3;stroke-width:0.8336;stroke-miterlimit:10;}
	.st4{fill:#47956C;}
	.st5{fill:#904592;}
	.st6{fill:#ED1C24;}
	.st7{fill:#F7931E;}
	.st8{fill:#D0A637;}
	.st9{fill:#FFFFFF;}
	.st10{fill:#4A53FF;stroke:#000000;stroke-width:1.6;stroke-miterlimit:10;}
	.st11{fill:#FF575C;stroke:#000000;stroke-width:1.6;stroke-miterlimit:10;}
	.st12{fill:#FF9921;stroke:#000000;stroke-width:1.6;stroke-miterlimit:10;}
	.st13{fill:#AEE862;stroke:#000000;stroke-width:1.6;stroke-miterlimit:10;}
	.st14{fill:#37ACDE;stroke:#000000;stroke-width:1.6;stroke-miterlimit:10;}
	.st15{fill:#E349AD;stroke:#000000;stroke-width:1.8058;stroke-miterlimit:10;}
	.st16{fill:none;stroke:#C5DFEA;stroke-width:3;stroke-linejoin:round;stroke-miterlimit:10;}
	.st17{fill:#808080;}
	.st18{fill:#4D4D4D;}
	.st19{fill:#B3B3B3;}
	.st20{fill:#FFC2EF;}
	.st21{fill:#FFFFD4;}
	.st22{stroke:#000000;stroke-width:0.9864;stroke-miterlimit:10;}
	.st23{fill:#333333;}
	.st24{fill:none;}
	.st25{fill:#C5DFEA;}
	.st26{fill:#42152F;}
	.st27{fill:#611E45;}
	.st28{fill:#9C3589;}
	.st29{fill:#7D1D6C;}
	.st30{fill:none;stroke:#FFFFFF;stroke-width:6;stroke-miterlimit:10;}
	.st31{fill:#666666;}
	.st32{fill:#2959A1;}
	.st33{fill:#996729;}
	.st34{fill:#89C661;}
	.st35{fill:#C1272D;}
	.st36{fill:#8E1B24;}
	.st37{fill:#E53E4B;}
	.st38{fill:#0057A7;}
	.st39{fill:#C4F74F;}
	.st40{fill:#37ACDE;stroke:#000000;stroke-width:0.6424;stroke-miterlimit:10;}
	.st41{fill:none;stroke:#999999;stroke-width:0.5;stroke-miterlimit:10;}
	.st42{fill:#E349AD;stroke:#000000;stroke-width:0.7676;stroke-miterlimit:10;}
	.st43{fill:none;stroke:#999999;stroke-width:0.5088;stroke-miterlimit:10;}
	.st44{fill:none;stroke:#2959A1;stroke-width:4;stroke-miterlimit:10;}
	.st45{fill:none;stroke:#2959A1;stroke-width:5;stroke-miterlimit:10;}
	.st46{fill:none;stroke:#FFFFFF;stroke-width:3;stroke-miterlimit:10;}
	.st47{fill:#2A56A1;}
	.st48{fill:#37ACDE;stroke:#000000;stroke-width:0.4427;stroke-miterlimit:10;}
	.st49{fill:none;stroke:#999999;stroke-width:0.3446;stroke-miterlimit:10;}
	.st50{fill:#E349AD;stroke:#000000;stroke-width:0.529;stroke-miterlimit:10;}
	.st51{fill:#AEE862;stroke:#000000;stroke-width:0.5475;stroke-miterlimit:10;}
	.st52{fill:#FF9921;stroke:#000000;stroke-width:0.4865;stroke-miterlimit:10;}
	.st53{fill:none;stroke:#2959A1;stroke-width:4.5998;stroke-miterlimit:10;}
	.st54{fill:#E349AD;stroke:#000000;stroke-width:1.6;stroke-miterlimit:10;}
	.st55{fill:#FFFFFF;stroke:#000000;stroke-miterlimit:10;}
	.st56{fill:none;stroke:#FFFFFF;stroke-miterlimit:10;}
	.st57{fill:none;stroke:#EA0000;stroke-width:4;stroke-miterlimit:10;}
	.st58{fill:none;stroke:#EA0000;stroke-width:4;stroke-miterlimit:10;stroke-dasharray:6.0068,6.0068;}
	.st59{fill:none;stroke:#EA0000;stroke-width:4;stroke-miterlimit:10;stroke-dasharray:6.0172,6.0172;}
</style><g id="Layer_3" /><g id="BG" /><g id="Open_Mouth" /><g id="Chew_1" /><g id="Chew_2" /><g id="Chew_3" /><g id="Chew_4" /><g id="Chew_5" /><g id="Chew_6" /><g id="Yucky_1" /><g id="Yucky_2"><g><path class="st17" d="M330.6,221.7c0,0,33.5,10.1,58.1,41.4c18.7,4.8,26.9,17,15.3,18.1c-14.2,1.3-21.9-16-21.9-16
			c-14.8-17.9-31.5-27.7-53.9-39L330.6,221.7z" /></g><path class="st17" d="M382.2,265.2c0,0-11.3,15.6-2.3,14.2c8.9-1.4,6.8-15,6.8-15L382.2,265.2z" /><path class="st16" d="M259.8,210.1c0,0-11,6.6-21.7-5.4C227.5,192.7,242.8,179.5,259.8,210.1z" /><g><path class="st17" d="M319.8,378.9c0,0,23.3-4.7,34.8,6.4c11.6,11.2,23.8,21.2,29.3,13.6c6.9-9.5-5.8-21.3-14.7-26.7
			S324.3,373,319.8,378.9z" /><path class="st17" d="M341.5,371.3c0,0,22.4-9.4,41.2-6.7c18.8,2.7,20.7,19.9,13.8,25.6c-6.3,5.1-22.9-7-22.9-7L341.5,371.3z" /><g><path class="st17" d="M344,371.5c0,0,24.8-17.9,36.3-17.3c13.6,0.7,19.9,10.8,18.1,18.9c-1.8,8.1-36.8,8.1-36.8,8.1L344,371.5z" /></g><g><path class="st18" d="M362.9,365.3c2.9-1.9,6.1-3.2,9.5-4c1.7-0.4,3.4-0.6,5.2-0.7c1.8,0,3.5,0.1,5.3,0.4c1.7,0.4,3.4,0.9,5,1.7
				c1.6,0.8,3.1,1.8,4.3,3c2.6,2.4,4.4,5.4,5.6,8.7c-1.9-2.8-4.1-5.4-6.6-7.5c-2.6-2-5.6-3.4-8.8-4c-3.2-0.7-6.5-0.6-9.8-0.2
				C369.4,363.3,366.1,364.1,362.9,365.3z" /></g><g><path class="st18" d="M385.3,390.3c0-3.6-0.6-7.1-2.1-10.2c-1.5-3.1-4.1-5.4-7.2-6.7c-1.6-0.6-3.2-1.1-4.9-1.3
				c-0.8-0.1-1.7-0.2-2.6-0.3c-0.9,0-1.7-0.1-2.6-0.1c-3.5,0-7,0.4-10.6,0.8c3.4-1.2,6.9-2,10.6-2.3c3.6-0.3,7.4,0,10.9,1.4
				c1.7,0.7,3.4,1.8,4.8,3.1c1.3,1.4,2.4,3,3.1,4.7C386.1,383,386.2,386.8,385.3,390.3z" /></g></g><g><path class="st17" d="M264.3,384.5c0,0-23.3-4.7-34.8,6.4c-11.6,11.2-23.8,21.2-29.3,13.6c-6.9-9.5,5.8-21.3,14.7-26.7
			C223.8,372.5,259.8,378.7,264.3,384.5z" /><path class="st17" d="M242.6,377c0,0-22.4-9.4-41.2-6.7s-20.7,19.9-13.8,25.6c6.3,5.1,22.9-7,22.9-7L242.6,377z" /><g><path class="st17" d="M240,377.1c0,0-24.8-17.9-36.3-17.3c-13.6,0.7-19.9,10.8-18.1,18.9s36.8,8.1,36.8,8.1L240,377.1z" /></g><g><path class="st18" d="M221.2,370.9c-3.2-1.1-6.5-2-9.8-2.4c-3.3-0.4-6.6-0.5-9.8,0.2c-3.2,0.6-6.2,2-8.8,4
				c-2.6,2-4.7,4.6-6.6,7.5c1.2-3.2,3-6.2,5.6-8.7c1.3-1.2,2.8-2.2,4.3-3c1.6-0.8,3.3-1.4,5-1.7c1.7-0.3,3.5-0.5,5.3-0.4
				c1.8,0.1,3.5,0.3,5.2,0.7C215,367.7,218.3,369,221.2,370.9z" /></g><g><path class="st18" d="M198.7,396c-0.9-3.5-0.7-7.3,0.7-10.8c0.7-1.8,1.7-3.4,3.1-4.7c1.4-1.4,3-2.4,4.8-3.1
				c3.5-1.4,7.3-1.7,10.9-1.4c3.6,0.3,7.2,1.1,10.6,2.3c-3.6-0.4-7.1-0.8-10.6-0.8c-0.9,0-1.7,0.1-2.6,0.1c-0.9,0.1-1.7,0.1-2.6,0.3
				c-1.7,0.2-3.4,0.7-4.9,1.3c-3.1,1.2-5.7,3.6-7.2,6.7C199.3,388.8,198.7,392.4,198.7,396z" /></g></g><path class="st18" d="M329.5,236.5c-2.5-6.8-3.7-14.9-2.9-24.5l-73-41.6c0,0-2.7,19.2,4,34c6.7,14.8,6.3,43.2-23.7,45.2
		c-6.7,0.4-20.3-1.2-25.6-6.1c0,0,0-0.1,0.1-0.3l-11.6,3.7c-2,7-4.7,14.8-8,23.4c-6.1,15.6-17.9,87.3,52.8,109.2
		c42.6,13.2,85.7,8.6,110.8-9.3L329.5,236.5z" /><path class="st19" d="M329.5,236.5c0,0-5.1-17.8-3.3-33l-46.6,1.3c0,0-4.5,53.3-41.2,62.7l11.6,3.6c0.1-0.1-19.7,5.9-31.8,26.4
		l11.6-4c0,0-60,60.8,11.6,86c66.3,23.3,110.2-7.8,110.2-7.8c16.6-11.8,25.8-32.5,21.4-54.4l7.2,4.4c0,0,3.6-31.3-21.5-45.7
		l11.6,1.2c0,0-7.6-9.6-17.4-14.6C344.9,258.5,334.9,251.3,329.5,236.5" /><g><path class="st17" d="M265.2,226.8c0,0-28.6,4-63.7,37.5c-9.9,3.2-20,30.1-4.6,29c11.9-0.9,11.6-25.7,11.6-25.7
			c7.6-7.3,39.8-32.4,55.5-32.1L265.2,226.8z" /></g><path class="st17" d="M208.2,267.5c0,0,13.4,9.3,8.8,16.7c-4.8,7.7-10.6-12.5-10.6-12.5L208.2,267.5z" /><path class="st16" d="M259.2,210.5c0,0-22.1,0.4-17.5,15.4C246.3,241,258,215.8,259.2,210.5z" /><g><path class="st18" d="M200.5,268.1c-0.6,0.9-1.3,1.8-1.8,2.7c-0.6,0.9-1.1,1.9-1.6,2.8c-1,1.9-1.8,3.9-2.5,6
			c-0.7,2.1-1,4.2-1.2,6.3l-0.1,1.6c0,0.5,0.1,1.1,0.1,1.6l0,0.8l0.1,0.8c0.1,0.5,0.2,1.1,0.3,1.6c-0.8-2.1-1.3-4.3-1.3-6.5
			c0-2.2,0.3-4.5,1-6.6c0.7-2.1,1.6-4.2,2.7-6.1C197.5,271.4,198.9,269.6,200.5,268.1z" /></g><g><path class="st18" d="M390.2,266.5c1.9,0.3,3.7,0.9,5.5,1.7c1.8,0.8,3.5,1.7,5,2.9c1.5,1.2,2.9,2.5,4.1,4.1
			c1.1,1.6,1.9,3.4,2.2,5.3c-0.8-1.8-1.7-3.4-2.9-4.8c-1.2-1.4-2.6-2.7-4.1-3.8c-1.5-1.1-3.1-2.1-4.8-3
			C393.7,268,392,267.2,390.2,266.5z" /></g><path class="st18" d="M202.1,180.4c-1-1.1-7.5-7-15-10.7c-5.4-2.6-10.9-3.9-15.9-4.4c-10.8-1.8-28.7-0.6-39.9,1
		c0,0-21.2-20-35.9-7.8c-15.3,12.7-40.5,15.2-51.6-5.9c0,0,2.9,22,18.2,24.1c0,0-23.3,9.5-45.2-21.7c0,0,22.4,66.3,72.9,49.5
		c19-6.3,38.6-21.2,52.2-26.5c9.7-3.8,26.8-4.8,40.3,0c6,2.1,11.5,7.2,14.4,10.3c8,8.8,11,27.9-2.6,67.5l15.3-11.6
		c-0.2-0.2-0.4-0.4-0.6-0.5C208.6,243.7,221.9,201.8,202.1,180.4z" /><path class="st25" d="M328.4,223.3c0,0,72.6,56.2-21.8,56.5c-64.2,0.2-58.5-10.8-49.5-76.7C269.9,224.7,290.7,231.7,328.4,223.3z" /><g><ellipse transform="matrix(0.9992 -4.031137e-02 4.031137e-02 0.9992 -5.92 15.4787)" class="st21" cx="380.9" cy="154.5" rx="20.6" ry="19" /><ellipse transform="matrix(0.9992 -4.031146e-02 4.031146e-02 0.9992 -6.005 15.762)" cx="387.8" cy="156.8" rx="11.1" ry="12.8" /><g><path class="st31" d="M360.8,159.3c-0.3-1.2-0.5-2.5-0.6-3.9c-0.4-10.5,8.5-19.3,19.9-19.8c7.6-0.3,14.3,3.2,18.2,8.6
				L360.8,159.3z" /></g><g><path class="st31" d="M401.2,157.5c-1.6,8.7-9.6,15.5-19.6,15.9c-9.9,0.4-18.5-5.7-20.8-14.2L401.2,157.5z" /></g><g><path class="st20" d="M358.4,95.9c0,0,9.9-4.1,8.5-14.3c0,0,28.5,37.9-2.8,58.5l-26.3-2.7c0,0-6.2-18.6,3-27.8
				S358.4,95.9,358.4,95.9z" /><g><path class="st18" d="M334.4,137.3l9.7,1.6c0,0-9.6-16.2,2.4-29.1c9.9-10.7,23.4-14.1,21.4-25.1c0,0-5.6,7.2-15.4,13
					C343,103.2,322.3,116.7,334.4,137.3z" /></g><g><path class="st18" d="M361.2,92.2c2.7-3,4.8-6.5,5.4-10.4c0.6-3.9-0.5-7.9-2.9-11.3c-2.4-3.4-5.7-6.1-9.4-8.1
					c-3.7-2-7.9-3.3-12.1-4c4.3,0.3,8.6,1.3,12.6,3c4,1.8,7.8,4.3,10.6,7.8c1.4,1.7,2.7,3.7,3.4,5.9c0.8,2.2,1.1,4.6,1,6.9
					c-0.1,2.4-0.8,4.7-1.7,6.8c-0.9,2.1-2.2,4.1-3.6,5.9L361.2,92.2z" /></g><g><path class="st18" d="M363,89.9c0.3-0.3,0.7-0.9,1-1.4c0.3-0.5,0.6-1.1,0.8-1.7c0.4-1.2,0.7-2.4,0.8-3.6
					c0.1-2.4-0.9-4.9-2.7-6.8c-1.8-2-4.1-3.5-6.6-4.8c-2.5-1.3-5.2-2.3-7.9-3.1c2.8,0.5,5.6,1.2,8.3,2.2c2.7,1,5.4,2.3,7.7,4.3
					c1.1,1,2.2,2.2,3,3.6c0.8,1.4,1.3,3,1.4,4.6c0.2,1.6,0,3.3-0.4,4.8c-0.2,0.8-0.5,1.5-0.8,2.3c-0.3,0.8-0.6,1.4-1.2,2.2L363,89.9
					z" /></g></g><g><g><path class="st20" d="M256.4,156.6c0,0-23.2-18.8-14.6-47.9s23.9-33.8,39.5-35.6c0,0-10.3,6.5-8.7,16.1s17.7,23.7,13.1,41.1
					c-4.6,17.4-14.2,30.2-14.2,30.2L256.4,156.6z" /></g><g><path class="st18" d="M286.8,69.2c0,0-19.2,8.9-6.3,28.8s17.7,37.8,2.4,54.9l-14.9-0.5c0,0,20.2-18.8,13.2-37
					C277.9,107.3,258.8,81.2,286.8,69.2z" /></g><g><path class="st18" d="M299.7,64.9c-2.9,0.7-5.7,1.8-8.3,3.2c-2.6,1.3-5.1,3-7.3,4.8c-2.2,1.8-4,4.1-5.5,6.5l-1,1.8l-0.8,1.9
					c-0.1,0.3-0.3,0.6-0.4,1l-0.3,1l-0.5,2l-4.1-1l0.9-2.3l0.4-1.1c0.2-0.4,0.4-0.7,0.6-1.1l1.2-2.1l1.4-1.9c2-2.5,4.2-4.7,6.8-6.4
					c2.6-1.7,5.3-3.1,8.1-4.1C293.9,66.1,296.8,65.3,299.7,64.9z" /></g><g><path class="st18" d="M271.9,91.3c0.1-1,0.3-1.7,0.5-2.5c0.2-0.8,0.4-1.6,0.7-2.4c0.5-1.6,1.1-3.1,2-4.6c0.8-1.5,1.8-2.9,3.1-4
					c1.3-1.2,2.8-2.1,4.5-2.6c1.7-0.5,3.4-0.6,5-0.4c1.6,0.2,3.1,0.7,4.6,1.3c2.9,1.2,5.5,2.9,7.9,4.7c-2.7-1.5-5.4-2.7-8.3-3.5
					c-1.4-0.3-2.9-0.6-4.3-0.5c-1.4,0-2.8,0.3-4,0.9c-2.4,1.1-4,3.4-5,5.9c-0.5,1.3-0.8,2.6-1.1,4c-0.1,0.7-0.2,1.4-0.3,2.1
					c-0.1,0.7-0.1,1.4-0.1,2L271.9,91.3z" /></g></g><g><path class="st18" d="M399.3,177.5c2.5,26.9-29.4,47.5-70.7,51.3c-41.4,3.9-81.5-14.8-79.4-41.8c2.2-28.8,29-51.9,70.3-55.8
				S396.7,150.5,399.3,177.5z" /></g><path class="st18" d="M371.4,202.2c0,0,24.4,27.8-2,33.4c-30.6,6.5-85.2-11.6-94.8-23.6l6.3-8.7c0,0,56,31.5,89.2,22.9
			C378,224.1,372.7,212.8,371.4,202.2z" /><path class="st29" d="M332.6,221.4c0,0-12.5-6.8-24.9-10.1c-7.1-1.8-29.9-7.8-8.5-13.5C317.7,193,332.6,221.4,332.6,221.4z" /><path class="st27" d="M270.2,203.1c13.6-6.3,58.4,34.9,100.1,24.5c22.4-5.6-13-42.5-16.6-44.1c-0.1,0,2.2-1.2,5.7-3.3
			c-53.8-0.5-80.9,15.9-90.5,23.4C269.3,203.5,269.8,203.3,270.2,203.1z" /><path class="st26" d="M386.5,180.2c-44.7-6-52.3,3.2-88.7,5.8c-27.4,1.9-49.8,22.6-16.8,16.9c17.1-4.2,39.3-2.2,90.4,15
			C382.2,215.3,414.6,183.9,386.5,180.2z" /><g><path class="st28" d="M335.7,190.9c37.1-0.5,50.3,27.2,32.6,32.3c-15.7,4.5-24.5,1.3-60.2-17.3c-13.4-7-29.1-2.7-29.1-2.7
				S301.9,191.4,335.7,190.9z" /><g><path class="st29" d="M314.8,192.9c2.7-1.1,5.6-1.6,8.5-2c2.9-0.3,5.9-0.4,8.8-0.1c5.9,0.5,11.8,2.1,17.1,4.8
					c5.3,2.7,10.1,6.4,14,10.9c3.9,4.4,7.1,9.4,9.4,14.7c-3.4-4.7-7-9.2-11.1-13.1c-0.5-0.5-1-1-1.6-1.4l-1.6-1.4
					c-0.5-0.5-1.1-0.9-1.7-1.3l-0.8-0.7l-0.9-0.6c-2.3-1.7-4.7-3.1-7.2-4.4c-2.5-1.3-5.1-2.4-7.8-3.2c-2.7-0.9-5.4-1.5-8.2-1.9
					C326.3,192.2,320.5,192.1,314.8,192.9z" /></g></g><path class="st9" d="M388.9,180.7c0,0-0.9,13.6,1,15.6c1.8,2,5.3-1.8,7.9-8.3C397.7,187.9,397.2,182,388.9,180.7z" /><path class="st9" d="M357.3,178.2c0,0-7.6,20.1-12.3,20.4c-7.1,0.5-10-18-10-18C341.5,179.2,347.9,178.5,357.3,178.2z" /><path class="st25" d="M394,214.4c0,0,15.9-1.5,13.1,5.8C404.3,227.7,394,214.4,394,214.4z" /><path class="st25" d="M380.8,238.3c0,0,9.7,15.2,1.7,15.8C374.2,254.8,380.8,238.3,380.8,238.3z" /><path class="st25" d="M396.1,229.2c0,0,13.5,6.7,7.6,11.3C397.5,245.2,396.1,229.2,396.1,229.2z" /><ellipse transform="matrix(0.9992 -4.031131e-02 4.031131e-02 0.9992 -6.0697 12.4123)" class="st21" cx="304.8" cy="156.7" rx="22.7" ry="21.8" /><ellipse transform="matrix(0.9992 -4.031151e-02 4.031151e-02 0.9992 -6.2618 12.4373)" cx="305.3" cy="161.5" rx="12.9" ry="13.7" /><g><path class="st23" d="M319.2,135.7c3.6,0.5,7.1,2.1,10.2,4.3c3,2.2,5.6,5.2,7.3,8.8c1.6,3.5,2.2,7.6,1.7,11.3
				c-0.5,3.8-1.8,7.3-3.8,10.4c0.5-3.6,0.8-7.1,0.6-10.5c-0.1-3.4-0.9-6.6-2.2-9.5c-1.4-2.9-3.3-5.6-5.7-8.1
				C325,139.9,322.2,137.7,319.2,135.7z" /></g><g><path class="st31" d="M321.4,171.5c-3.9,4.1-9.5,6.8-15.8,7c-11.2,0.5-20.8-6.9-23-17.1L321.4,171.5z" /></g><g><path class="st31" d="M282.7,151.6c2.4-9.2,10.8-16.2,21.1-16.6c12.5-0.5,23,8.8,23.5,20.9" /></g><ellipse transform="matrix(0.6382 -0.7699 0.7699 0.6382 4.8356 349.2461)" class="st23" cx="374" cy="169.5" rx="6.1" ry="3.6" /><ellipse transform="matrix(0.6082 -0.7938 0.7938 0.6082 17.5107 376.4857)" class="st23" cx="390.1" cy="170.5" rx="3.4" ry="5.2" /></g></g><g id="Yucky_3" /><g id="Yummy_0" /><g id="Yummy_1" /><g id="Yummy_2" /><g id="Yummy_3" /></svg>