<svg version="1.1" xmlns="http://www.w3.org/2000/svg" xmlns:xlink="http://www.w3.org/1999/xlink" x="0px" y="0px" viewBox="0 0 80 80" style="enable-background:new 0 0 80 80;" xml:space="preserve" width="80" height="80" preserveAspectRatio="none"><style type="text/css">
	.st5{fill:#F2F2F2;}
	.st7{fill:#CCCCCC;}
	.st43{fill:#FFFFFF;}
	.st71{fill:none;}
	.st401{fill:#FFA340;}
	.st402{fill:#FF8336;}
	.st403{fill:#FF7221;}
	.st404{fill:#E8601C;}
	.st411{fill:#FF8921;}
	.st412{fill:#FFBA6B;}
</style><g id="Layer_1" /><g id="Layer_2"><g><path class="st403" d="M76.2,76.2c1.6-1.6,2.6-3.9,2.6-6.4V10.1c0-2.5-1-4.7-2.6-6.4L40,40L76.2,76.2z" /><path class="st404" d="M40,40L3.8,76.2c1.6,1.6,3.9,2.6,6.4,2.6h59.7c2.5,0,4.7-1,6.4-2.6L40,40z" /><path class="st403" d="M3.8,3.8c-1.6,1.6-2.6,3.9-2.6,6.4v59.7c0,2.5,1,4.7,2.6,6.4L40,40L3.8,3.8z" /><path class="st402" d="M76.2,3.8c-1.6-1.6-3.9-2.6-6.4-2.6H10.1c-2.5,0-4.7,1-6.4,2.6L40,40L76.2,3.8z" /><polygon class="st5" points="7.1,54 26.4,72.9 58,72.9 7.1,23.3 		" /><path class="st401" d="M7.1,67.9c0,2.8,2.2,5,5,5h14.3L7.1,54V67.9z" /><polygon class="st5" points="72.9,26 53.6,7.1 22,7.1 72.9,56.7 		" /><path class="st401" d="M72.9,67.9V56.7L22,7.1h-9.9c-2.8,0-5,2.2-5,5v11.2L58,72.9h9.9C70.6,72.9,72.9,70.6,72.9,67.9z" /><path class="st401" d="M72.9,12.1c0-2.8-2.2-5-5-5H53.6L72.9,26V12.1z" /><path class="st71" d="M22.5,7.6l49.9,48.6c0-5.8,0.1-12.8,0.1-16.2c0-3,0.1-8.9,0.1-14.3L53.8,7.4C43.6,7.5,32.7,7.6,22.5,7.6z" /><path class="st71" d="M16.2,72.7c3.2-0.1,6.6-0.1,10-0.1L7.4,54.3c0,3.9-0.1,7.5-0.1,9.5l-0.1,4c0,1.3,0.5,2.6,1.4,3.6
			c1,0.9,2.3,1.4,3.6,1.4L16.2,72.7z" /><path class="st71" d="M7.5,40c0,3-0.1,8.9-0.1,14.3l18.8,18.3c10.2-0.1,21.1-0.2,31.3-0.2L7.6,23.8C7.6,29.6,7.5,36.6,7.5,40z" /><path class="st71" d="M63.8,7.3c-3.2,0.1-6.6,0.1-10,0.1l18.8,18.3c0-3.9,0.1-7.5,0.1-9.5l0.1-4c0-1.3-0.5-2.6-1.4-3.6
			c-1-0.9-2.3-1.4-3.6-1.4L63.8,7.3z" /><path class="st71" d="M12.2,7.6c-2.5-0.1-4.6,2.1-4.6,4.6l0,4c0,1.7,0,4.5,0,7.6l49.9,48.6c3.5,0,7,0,10.3,0
			c2.5,0.1,4.6-2.1,4.6-4.6l0-4c0-1.7,0-4.5,0-7.6L22.5,7.6C19,7.6,15.5,7.6,12.2,7.6z" /><path class="st411" d="M72.7,16.2c0,2.1-0.1,5.7-0.1,9.5l0.5,0.5c0-4.1-0.1-7.9-0.1-10l-0.1-4c0-1.3-0.6-2.7-1.5-3.6
			c0.9,1,1.4,2.3,1.4,3.6L72.7,16.2z" /><path class="st7" d="M26.2,72.6l0.5,0.5c10.4,0.1,21.7,0.2,31.7,0.2l-0.9-0.9C47.3,72.4,36.4,72.5,26.2,72.6z" /><path class="st411" d="M16.2,72.7l-4,0.1c-1.3,0-2.6-0.5-3.6-1.4c0.9,1,2.2,1.5,3.6,1.5l4,0.1c3.3,0.1,6.9,0.1,10.6,0.1l-0.5-0.5
			C22.7,72.6,19.4,72.7,16.2,72.7z" /><path class="st411" d="M72.4,63.8l0,4c0.1,2.5-2.1,4.6-4.6,4.6c-3.3,0-6.8,0-10.3,0l0.9,0.9c1.8,0,3.7,0,5.4,0l4,0
			c1.4,0,2.9-0.6,3.9-1.6c1-1,1.6-2.5,1.6-3.9l0-4c0-1.6,0-4,0-6.7l-0.9-0.9C72.4,59.3,72.4,62.1,72.4,63.8z" /><path class="st7" d="M73.1,26.2l-0.5-0.5C72.6,31.1,72.5,37,72.5,40c0,3.4,0,10.4-0.1,16.2l0.9,0.9c0-6-0.1-13.5-0.1-17.1
			C73.2,37.1,73.2,31.5,73.1,26.2z" /><path class="st412" d="M7.6,16.2l0-4c-0.1-2.5,2.1-4.6,4.6-4.6c3.3,0,6.8,0,10.3,0l-0.9-0.9c-1.8,0-3.7,0-5.4,0l-4,0
			c-1.4,0-2.9,0.6-3.9,1.6c-1,1-1.6,2.5-1.6,3.9l0,4c0,1.6,0,4,0,6.7l0.9,0.9C7.6,20.7,7.6,17.9,7.6,16.2z" /><path class="st43" d="M53.8,7.4l-0.5-0.5C42.9,6.8,31.6,6.7,21.6,6.7l0.9,0.9C32.7,7.6,43.6,7.5,53.8,7.4z" /><path class="st43" d="M7.5,40c0-3.4,0-10.4,0.1-16.2l-0.9-0.9c0,6,0.1,13.5,0.1,17.1c0,2.9,0.1,8.5,0.1,13.8l0.5,0.5
			C7.4,48.9,7.5,43,7.5,40z" /><path class="st412" d="M7.3,63.8c0-2.1,0.1-5.7,0.1-9.5l-0.5-0.5c0,4.1,0.1,7.9,0.1,10l0.1,4c0,1.3,0.6,2.7,1.5,3.6
			c-0.9-1-1.4-2.3-1.4-3.6L7.3,63.8z" /><path class="st412" d="M63.8,7.3l4-0.1c1.3,0,2.6,0.5,3.6,1.4c-0.9-1-2.2-1.5-3.6-1.5l-4-0.1c-3.3-0.1-6.9-0.1-10.6-0.1l0.5,0.5
			C57.3,7.4,60.6,7.3,63.8,7.3z" /></g></g><g id="Layer_4" /></svg>