<svg version="1.1" xmlns="http://www.w3.org/2000/svg" xmlns:xlink="http://www.w3.org/1999/xlink" x="0px" y="0px" viewBox="0 0 55 55" style="enable-background:new 0 0 55 55;" xml:space="preserve" width="55" height="55" preserveAspectRatio="none"><style type="text/css">
	.st342{fill:#8C9ABE;}
	.st343{fill:#506286;}
	.st345{fill:#6DDE77;}
</style><g id="Layer_1" /><g id="Layer_2"><g><g><circle class="st343" cx="27.5" cy="27.5" r="24.1" /><path class="st342" d="M27.5,3.4c13.3,0,24.1,10.8,24.1,24.1c0,13.3-10.8,24.1-24.1,24.1S3.4,40.8,3.4,27.5
				C3.4,14.2,14.2,3.4,27.5,3.4 M27.5,1.3C13,1.3,1.3,13,1.3,27.5C1.3,42,13,53.7,27.5,53.7S53.7,42,53.7,27.5
				C53.7,13,42,1.3,27.5,1.3L27.5,1.3z" /></g><polygon class="st345" points="31.2,10.3 16.9,28 27.2,28 19.2,45.7 39.2,24.6 27,24.6 		" /></g></g><g id="Layer_4" /></svg>