<svg width="169" height="335" viewBox="0 0 169 335" fill="none" xmlns="http://www.w3.org/2000/svg" preserveAspectRatio="none"><g clip-path="url(#clip0_84_259)"><path opacity="0.74" d="M20.8001 336.5C18.9001 335.6 20.2001 326.4 18.4001 317C17.8001 313.6 16.3001 307.9 17.7001 303.1C19.8001 295.7 21.4001 288.1 17.9001 285.6C13.5001 282.5 8.60006 284.5 9.00006 290.3C9.60006 296 12.5001 298 12.0001 304C11.6001 308.1 9.40006 315 8.80006 318.5C7.20006 327 7.30006 336.3 7.30006 336.3L20.8001 336.5Z" fill="#8CD8ED" /><path d="M15.3001 285.9C15.3001 285.9 18.3001 286.7 18.4001 288.4C18.5001 290.1 17.2001 289.8 16.1001 288.7C15.0001 287.6 14.4001 287.1 13.5001 286.9C12.6001 286.7 13.1001 285.2 15.3001 285.9Z" fill="#C4F7FF" /><path d="M13.9 288.4C15.4 288.2 16.4 289.5 15.3 290C14.2 290.5 12.2 288.7 13.9 288.4Z" fill="#C4F7FF" /></g><defs><clipPath id="clip0_84_259"><rect width="150" height="335" fill="white" /></clipPath></defs></svg>