<svg width="169" height="335" viewBox="0 0 169 335" fill="none" xmlns="http://www.w3.org/2000/svg" preserveAspectRatio="none"><g clip-path="url(#clip0_84_737)"><path opacity="0.8" d="M55.0169 12.1254L55.0023 12.1777C55.2695 12.0267 55.499 11.8089 55.7662 11.6579C55.499 11.8089 55.2318 11.9599 55.0169 12.1254Z" fill="#90D6ED" /><path opacity="0.2" d="M55.0022 12.1777C54.372 12.622 53.7271 13.1187 53.0823 13.6153L50.313 23.552C52.1637 21.757 53.5943 19.4504 54.3899 16.7977C54.8126 15.2811 55.0118 13.7585 54.9876 12.23L55.0022 12.1777Z" fill="#56C9F4" /><path d="M72.4073 115.49C103.216 124.471 135.463 106.687 144.457 75.8279C153.451 44.9691 135.719 12.6921 104.91 3.71136C87.5286 -1.35814 69.678 2.12109 55.833 11.62C68.6166 3.91062 84.5886 1.31684 100.195 5.89159C129.608 14.4272 146.615 44.8673 138.16 73.7911C129.743 102.782 99.0672 119.369 69.6681 110.782C53.444 106.204 40.9314 94.7696 34.4406 80.505L34.4115 80.6096C40.7138 96.9635 54.2804 110.269 72.4073 115.49Z" fill="#DDF4FD" /><path opacity="0.2" d="M40.1395 60.0565L38.4634 66.0708C38.92 65.2399 39.2868 64.3277 39.5637 63.334C39.8698 62.2357 40.0569 61.1606 40.1395 60.0565Z" fill="#56C9F4" /><path d="M69.6681 110.782C99.0672 119.37 129.728 102.834 138.16 73.7914C146.615 44.8675 129.556 14.4128 100.195 5.89182C84.574 1.36938 68.6166 3.91085 55.833 11.6203C55.5659 11.7713 55.3364 11.9891 55.0692 12.1401C55.0934 13.6686 52.8506 13.438 52.4133 15.007C52.0635 16.2621 52.6172 16.6983 51.9687 17.8138C51.3202 18.9294 51.3794 22.553 50.38 23.5144L40.2064 60.0188C40.1238 61.1229 39.9889 62.2126 39.6306 63.2963C39.3537 64.29 38.9347 65.1877 38.5302 66.0331L34.5075 80.4675C34.93 81.3743 34.0045 83.4835 34.4416 84.338C34.8787 85.1925 36.6783 84.7923 37.1677 85.6614C44.12 97.4621 55.4428 106.705 69.6827 110.73L69.6681 110.782ZM70.7725 102.579C70.9474 101.952 71.6299 101.522 72.3087 101.711C72.9875 101.9 73.3639 102.569 73.1744 103.249C72.9849 103.928 72.317 104.306 71.6382 104.117C70.9594 103.928 70.583 103.259 70.7725 102.579ZM82.7296 105.912C82.3798 107.167 81.1108 107.884 79.8576 107.535C78.6045 107.185 77.8894 105.915 78.2392 104.66C78.589 103.405 79.858 102.688 81.1111 103.037C82.3643 103.386 83.0794 104.656 82.7296 105.912ZM108.619 19.6807C109.027 18.2164 110.496 17.3859 111.958 17.7934C113.42 18.2008 114.248 19.6716 113.84 21.1359C113.432 22.6003 111.962 23.4307 110.5 23.0232C109.038 22.6158 108.21 21.1451 108.619 19.6807ZM97.1493 20.655C97.3388 19.9751 98.0067 19.5977 98.6855 19.7868C99.3642 19.976 99.7406 20.6445 99.5512 21.3244C99.3617 22.0043 98.6938 22.3817 98.015 22.1926C97.3362 22.0034 96.9598 21.3349 97.1493 20.655ZM129.603 34.434C131.744 35.0306 132.986 37.2367 132.388 39.3809C131.791 41.5252 129.587 42.7708 127.446 42.1742C125.305 41.5776 124.063 39.3715 124.661 37.2273C125.258 35.083 127.462 33.8374 129.603 34.434ZM108.054 32.2046C108.244 31.5247 108.912 31.1473 109.59 31.3364C110.269 31.5256 110.646 32.1941 110.456 32.874C110.267 33.5539 109.599 33.9313 108.92 33.7422C108.241 33.553 107.865 32.8845 108.054 32.2046ZM111.685 38.9651C112.195 37.1347 114.065 36.0778 115.892 36.5871C117.72 37.0964 118.774 38.9682 118.264 40.7987C117.753 42.6291 115.883 43.686 114.056 43.1767C112.228 42.6674 111.174 40.7956 111.685 38.9651ZM122.459 54.8182C122.794 53.6153 124.063 52.8981 125.264 53.2328C126.465 53.5675 127.18 54.8377 126.845 56.0406C126.51 57.2434 125.241 57.9606 124.04 57.6259C122.839 57.2912 122.124 56.0211 122.459 54.8182ZM116.861 83.1854C117.05 82.5055 117.785 82.0903 118.463 82.2794C119.142 82.4686 119.556 83.204 119.367 83.8839C119.177 84.5637 118.443 84.9789 117.764 84.7898C117.085 84.6006 116.671 83.8652 116.861 83.1854ZM114.893 90.2457C115.214 89.0951 116.401 88.468 117.498 88.7736C118.594 89.0791 119.272 90.2824 118.966 91.3807C118.66 92.479 117.457 93.1584 116.361 92.8528C115.264 92.5473 114.587 91.3439 114.893 90.2457Z" fill="#9BDBF2" /><path d="M118.965 91.3808C119.286 90.2302 118.594 89.0792 117.498 88.7736C116.401 88.468 115.199 89.1475 114.893 90.2458C114.587 91.344 115.264 92.5473 116.361 92.8529C117.457 93.1585 118.659 92.4791 118.965 91.3808Z" fill="#D1ECFA" /><path opacity="0.2" d="M118.965 91.3808C119.286 90.2302 118.594 89.0792 117.498 88.7736C116.401 88.468 115.199 89.1475 114.893 90.2458C114.587 91.344 115.264 92.5473 116.361 92.8529C117.457 93.1585 118.659 92.4791 118.965 91.3808Z" fill="#DDF4FD" /><path d="M118.263 40.7987C118.773 38.9683 117.72 37.0965 115.892 36.5872C114.065 36.0778 112.194 37.1347 111.684 38.9652C111.174 40.7956 112.228 42.6675 114.056 43.1768C115.883 43.6861 117.753 42.6292 118.263 40.7987Z" fill="#D1ECFA" /><path opacity="0.2" d="M118.263 40.7987C118.773 38.9683 117.72 37.0965 115.892 36.5872C114.065 36.0778 112.194 37.1347 111.684 38.9652C111.174 40.7956 112.228 42.6675 114.056 43.1768C115.883 43.6861 117.753 42.6292 118.263 40.7987Z" fill="#DDF4FD" /><path d="M126.793 56.0258C127.128 54.8229 126.413 53.5528 125.212 53.2181C124.011 52.8834 122.742 53.6006 122.407 54.8035C122.072 56.0063 122.787 57.2765 123.988 57.6112C125.189 57.9459 126.458 57.2287 126.793 56.0258Z" fill="#D1ECFA" /><path opacity="0.2" d="M126.793 56.0258C127.128 54.8229 126.413 53.5528 125.212 53.2181C124.011 52.8834 122.742 53.6006 122.407 54.8035C122.072 56.0063 122.787 57.2765 123.988 57.6112C125.189 57.9459 126.458 57.2287 126.793 56.0258Z" fill="#DDF4FD" /><path d="M127.446 42.174C129.587 42.7706 131.791 41.525 132.388 39.3807C132.986 37.2365 131.744 35.0304 129.603 34.4338C127.462 33.8372 125.258 35.0828 124.661 37.2271C124.063 39.3713 125.305 41.5774 127.446 42.174Z" fill="#D1ECFA" /><path opacity="0.2" d="M127.446 42.174C129.587 42.7706 131.791 41.525 132.388 39.3807C132.986 37.2365 131.744 35.0304 129.603 34.4338C127.462 33.8372 125.258 35.0828 124.661 37.2271C124.063 39.3713 125.305 41.5774 127.446 42.174Z" fill="#DDF4FD" /><path d="M119.315 83.8693C119.504 83.1895 119.09 82.4541 118.411 82.2649C117.732 82.0758 116.998 82.491 116.808 83.1709C116.619 83.8507 117.033 84.5861 117.712 84.7753C118.39 84.9644 119.125 84.5492 119.315 83.8693Z" fill="#D1ECFA" /><path opacity="0.2" d="M119.315 83.8693C119.504 83.1895 119.09 82.4541 118.411 82.2649C117.732 82.0758 116.998 82.491 116.808 83.1709C116.619 83.8507 117.033 84.5861 117.712 84.7753C118.39 84.9644 119.125 84.5492 119.315 83.8693Z" fill="#DDF4FD" /><path d="M78.2914 104.675C77.9416 105.93 78.6567 107.2 79.9099 107.549C81.163 107.898 82.432 107.181 82.7818 105.926C83.1316 104.671 82.4165 103.401 81.1634 103.051C79.9102 102.702 78.6412 103.419 78.2914 104.675Z" fill="#D1ECFA" /><path opacity="0.2" d="M78.2914 104.675C77.9416 105.93 78.6567 107.2 79.9099 107.549C81.163 107.898 82.432 107.181 82.7818 105.926C83.1316 104.671 82.4165 103.401 81.1634 103.051C79.9102 102.702 78.6412 103.419 78.2914 104.675Z" fill="#DDF4FD" /><path d="M73.122 103.234C73.2969 102.606 72.9351 101.885 72.2563 101.696C71.5775 101.507 70.9096 101.885 70.7201 102.564C70.5306 103.244 70.907 103.913 71.5858 104.102C72.2646 104.291 72.9325 103.914 73.122 103.234Z" fill="#D1ECFA" /><path opacity="0.2" d="M73.122 103.234C73.2969 102.606 72.9351 101.885 72.2563 101.696C71.5775 101.507 70.9096 101.885 70.7201 102.564C70.5306 103.244 70.907 103.913 71.5858 104.102C72.2646 104.291 72.9325 103.914 73.122 103.234Z" fill="#DDF4FD" /><path d="M110.404 32.8596C110.593 32.1797 110.217 31.5112 109.538 31.322C108.859 31.1329 108.191 31.5103 108.002 32.1902C107.812 32.8701 108.189 33.5386 108.868 33.7278C109.546 33.9169 110.214 33.5395 110.404 32.8596Z" fill="#D1ECFA" /><path opacity="0.2" d="M110.404 32.8596C110.593 32.1797 110.217 31.5112 109.538 31.322C108.859 31.1329 108.191 31.5103 108.002 32.1902C107.812 32.8701 108.189 33.5386 108.868 33.7278C109.546 33.9169 110.214 33.5395 110.404 32.8596Z" fill="#DDF4FD" /><path d="M99.4988 21.3098C99.6883 20.6299 99.3119 19.9614 98.6331 19.7722C97.9543 19.583 97.2864 19.9605 97.097 20.6404C96.9075 21.3203 97.2839 21.9888 97.9626 22.178C98.6414 22.3671 99.3093 21.9897 99.4988 21.3098Z" fill="#D1ECFA" /><path opacity="0.2" d="M99.4988 21.3098C99.6883 20.6299 99.3119 19.9614 98.6331 19.7722C97.9543 19.583 97.2864 19.9605 97.097 20.6404C96.9075 21.3203 97.2839 21.9888 97.9626 22.178C98.6414 22.3671 99.3093 21.9897 99.4988 21.3098Z" fill="#DDF4FD" /><path d="M113.872 21.0998C114.275 19.6556 113.432 18.1591 111.99 17.7573C110.549 17.3554 109.053 18.2004 108.651 19.6446C108.249 21.0888 109.091 22.5853 110.533 22.9871C111.975 23.3889 113.47 22.544 113.872 21.0998Z" fill="#D1ECFA" /><path opacity="0.2" d="M113.872 21.0998C114.275 19.6556 113.432 18.1591 111.99 17.7573C110.549 17.3554 109.053 18.2004 108.651 19.6446C108.249 21.0888 109.091 22.5853 110.533 22.9871C111.975 23.3889 113.47 22.544 113.872 21.0998Z" fill="#DDF4FD" /><path d="M49.9845 50.8074C56.1385 28.2132 58.2762 9.12046 54.7592 8.16252C51.2422 7.20458 43.4022 24.7442 37.2482 47.3384C31.0942 69.9326 28.9565 89.0253 32.4735 89.9833C35.9905 90.9412 43.8304 73.4016 49.9845 50.8074Z" fill="#96A3AB" /><path d="M49.9845 50.8074C56.1385 28.2132 58.2762 9.12046 54.7592 8.16252C51.2422 7.20458 43.4022 24.7442 37.2482 47.3384C31.0942 69.9326 28.9565 89.0253 32.4735 89.9833C35.9905 90.9412 43.8304 73.4016 49.9845 50.8074Z" fill="#9BDBF2" fill-opacity="0.5" /><path d="M37.0001 47.4793C30.6929 70.7445 28.4812 90.5303 32.1123 91.528C32.9015 91.6926 33.8391 91.2672 34.9331 90.1522C34.8983 89.3468 34.6561 88.6247 34.2145 87.8865C33.5354 88.8346 32.8968 89.2843 32.5062 89.1522C32.2072 89.1278 31.9244 88.9042 31.7575 88.4893C29.7408 84.914 32.1484 67.6523 37.5901 47.6277C43.4523 26.1322 50.6442 9.25982 54.0573 9.23651L54.8337 7.0924C51.03 6.98361 43.1591 24.8041 37.0001 47.4793Z" fill="#DDF4FD" /><path d="M58.3374 10.8891C58.3374 10.8891 60.1399 19.5638 56.7437 36.6447C53.3556 53.6259 44.4339 81.8955 37.0076 89.3178L35.4048 89.2877L40.1133 80.7414L48.3005 59.0338L54.4628 33.8505C54.4628 33.8505 56.4254 18.3586 56.3582 17.9519C56.2909 17.5451 55.9591 9.29098 55.9591 9.29098L58.3374 10.8891Z" fill="#8FCCDE" /><path d="M40.1061 77.1291L41.6384 79.2603C42.4982 77.3237 43.4821 75.0961 44.3744 72.7608L43.0983 69.948C42.082 72.5743 41.0819 75.0012 40.1061 77.1291Z" fill="#DDF4FD" /><path d="M55.1328 7.11687C55.0331 7.10876 54.9334 7.10065 54.8338 7.09255L54.1489 9.34443C54.2486 9.35254 54.3482 9.36065 54.4479 9.36875C57.0985 10.086 56.0768 22.6446 52.3224 39.1946C51.516 42.9416 50.4939 46.8716 49.3641 50.8933C47.4845 57.9641 45.255 64.4046 43.0984 69.9479L44.3745 72.7607C46.6551 66.9264 49.0492 59.6967 51.4572 51.0635C53.4283 44.1005 54.8281 37.9938 55.7724 32.5525C58.6564 16.8346 57.7833 7.83416 55.1328 7.11687Z" fill="#DDF4FD" /><path d="M39.8515 82.7266C40.439 81.6708 40.935 80.5072 41.5388 79.252L40.0065 77.1207C37.683 82.2492 35.6724 85.9985 34.2145 87.8865C34.6561 88.6247 34.7987 89.3387 34.9332 90.1522C36.3505 88.7626 38.0564 86.2928 39.8515 82.7266Z" fill="#DDF4FD" /><path opacity="0.74" d="M40.4951 76.1929C44.2951 67.3929 49.6951 53.9929 53.7951 30.9929C53.7951 30.9929 36.4951 62.2929 30.1951 86.8929C29.0951 91.0929 26.9951 98.3929 27.9951 102.293C28.4951 104.093 29.1951 106.193 30.9951 106.193C37.9951 106.493 36.1951 100.893 34.7951 93.9929C33.4951 87.9929 38.8951 81.3929 40.4951 76.1929Z" fill="#8CD8ED" /><path d="M31.2951 105.593C31.0951 105.693 34.6951 105.493 35.1951 102.493C35.7951 99.4929 34.3951 96.3929 34.3951 98.0929C34.4951 101.193 34.2951 103.693 31.2951 105.593Z" fill="#C4F7FF" /></g><defs><clipPath id="clip0_84_737"><rect width="150" height="335" fill="white" /></clipPath></defs></svg>