<svg width="169" height="335" viewBox="0 0 169 335" fill="none" xmlns="http://www.w3.org/2000/svg" preserveAspectRatio="none"><g clip-path="url(#clip0_84_234)"><path opacity="0.75" d="M14.9001 199.6C16.5001 181.3 25.4001 161.3 13.1001 165.1C3.70011 168 5.00011 177.4 7.40011 198.8C8.90011 212.7 4.60011 246.2 4.60011 271.9C4.60011 276.8 4.50011 292.5 4.60011 297.9C4.70011 306.1 7.40011 336.7 7.40011 337.2L18.1001 336.9C18.0001 336.1 19.0001 314.6 19.6001 299.4C19.9001 292 19.5001 278.8 18.7001 271.4C16.3001 249.9 13.1001 220 14.9001 199.6Z" fill="#8CD8ED" /><path d="M15.1001 167.2C15.1001 167.2 18.5001 168.3 18.5001 171.5C18.5001 174.7 16.9001 176 16.9001 176C16.9001 176 17.1001 171.3 15.3001 169.5C13.5001 167.7 11.9001 167 11.9001 167C11.9001 167 13.1001 166.3 15.1001 167.2Z" fill="#C4F7FF" /><path d="M12.9 208.4C12.9 208.4 14 245.6 14.6 257.3C15.3 269.7 16.8 277.8 15.5 277.9C14.2 278 13.8 271.8 13.7 269.3C13.3 261.1 11.5 222.9 11.3 216C11.1 209.9 12.2 205.5 12.9 208.4Z" fill="#C4F7FF" /><path d="M7.70009 174.3C7.70009 174.3 6.40009 180.9 7.70009 184.7C9.00009 188.5 9.50009 185.9 9.20009 184.4C8.90009 182.9 8.70009 175.8 9.50009 173.6C10.3001 171.5 8.50009 171 7.70009 174.3Z" fill="#C4F7FF" /></g><defs><clipPath id="clip0_84_234"><rect width="150" height="335" fill="white" /></clipPath></defs></svg>