<svg width="169" height="335" viewBox="0 0 169 335" fill="none" xmlns="http://www.w3.org/2000/svg" preserveAspectRatio="none"><g clip-path="url(#clip0_84_70)"><path opacity="0.8" d="M148.246 29.4485L148.192 29.4485C148.409 29.6653 148.68 29.828 148.897 30.0449C148.68 29.828 148.463 29.6112 148.246 29.4485Z" fill="#90D6ED" /><path opacity="0.2" d="M148.192 29.4484C147.595 28.9605 146.943 28.4725 146.292 27.9845L135.976 27.9824C138.202 29.2838 140.808 30.0432 143.577 30.0979C145.151 30.0983 146.672 29.8817 148.137 29.4484L148.192 29.4484Z" fill="#56C9F4" /><path d="M53.3352 73.9307C52.9487 106.019 78.7318 132.314 110.872 132.7C143.013 133.086 169.35 107.344 169.736 75.2553C169.957 57.1512 161.817 40.8882 148.952 30.099C159.808 40.3458 166.591 55.0365 166.371 71.2977C166.039 101.923 141.277 126.472 111.145 126.087C80.9591 125.755 56.7502 100.654 57.1365 70.0288C57.1942 53.1713 64.8524 38.0499 76.8529 27.9704L76.7443 27.9703C62.6806 38.4289 53.502 55.0677 53.3352 73.9307Z" fill="#DDF4FD" /><path opacity="0.2" d="M98.0808 27.9747L91.8373 27.9734C92.7602 28.1904 93.7374 28.299 94.769 28.2992C95.9091 28.2994 96.9949 28.1913 98.0808 27.9747Z" fill="#56C9F4" /><path d="M57.1363 70.029C56.75 100.654 80.9047 125.756 111.145 126.087C141.277 126.473 166.039 101.869 166.371 71.2979C166.537 55.0367 159.808 40.346 148.952 30.0992C148.734 29.8824 148.463 29.7197 148.246 29.5028C146.78 29.9362 146.4 27.7137 144.772 27.7134C143.469 27.7131 143.197 28.3635 141.948 28.038C140.7 27.7126 137.225 28.7417 136.031 28.0368L98.135 28.0291C97.0492 28.2457 95.9633 28.4081 94.8232 28.3537C93.7916 28.3535 92.8144 28.1907 91.8915 28.0279L76.907 28.0248C76.1468 28.6751 73.8666 28.3494 73.1607 28.9997C72.4548 29.65 73.3231 31.2763 72.6172 31.9808C63.1141 41.8441 57.2479 55.2313 57.1906 70.029L57.1363 70.029ZM65.3346 68.8924C65.9861 68.8925 66.5832 69.4347 66.583 70.1393C66.5829 70.844 66.0399 71.3859 65.3341 71.3858C64.6283 71.3856 64.0855 70.8435 64.0856 70.1388C64.0858 69.4342 64.6288 68.8922 65.3346 68.8924ZM65.332 81.3051C64.029 81.3049 62.9977 80.2748 62.998 78.9739C62.9982 77.673 64.03 76.6433 65.333 76.6436C66.636 76.6438 67.6673 77.6739 67.6671 78.9748C67.6668 80.2757 66.635 81.3054 65.332 81.3051ZM155.347 83.1122C156.867 83.1125 158.062 84.3052 158.061 85.823C158.061 87.3407 156.866 88.5329 155.346 88.5326C153.826 88.5323 152.632 87.3396 152.632 85.8219C152.632 84.3041 153.827 83.1119 155.347 83.1122ZM151.332 72.3248C152.038 72.3249 152.58 72.867 152.58 73.5717C152.58 74.2764 152.037 74.8183 151.331 74.8181C150.626 74.818 150.083 74.2758 150.083 73.5712C150.083 72.8665 150.626 72.3246 151.332 72.3248ZM146.764 107.286C146.764 109.508 144.972 111.296 142.746 111.296C140.52 111.295 138.729 109.506 138.729 107.284C138.729 105.061 140.521 103.273 142.747 103.274C144.973 103.274 146.765 105.063 146.764 107.286ZM143.131 85.9283C143.837 85.9285 144.38 86.4706 144.379 87.1753C144.379 87.8799 143.836 88.4219 143.13 88.4217C142.425 88.4216 141.882 87.8794 141.882 87.1748C141.882 86.4701 142.425 85.9282 143.131 85.9283ZM137.592 91.2392C139.492 91.2396 141.012 92.7576 141.012 94.6548C141.011 96.5519 139.491 98.0693 137.591 98.0689C135.691 98.0685 134.171 96.5505 134.171 94.6534C134.171 92.7562 135.692 91.2388 137.592 91.2392ZM125.211 105.872C126.459 105.872 127.491 106.902 127.49 108.149C127.49 109.396 126.458 110.425 125.21 110.425C123.961 110.425 122.93 109.395 122.93 108.148C122.93 106.901 123.962 105.872 125.211 105.872ZM96.3814 108.088C97.0872 108.088 97.6843 108.685 97.6841 109.389C97.684 110.094 97.0867 110.69 96.3809 110.69C95.6751 110.69 95.078 110.094 95.0781 109.389C95.0783 108.684 95.6756 108.088 96.3814 108.088ZM89.052 108.087C90.2464 108.087 91.1692 109.063 91.169 110.201C91.1687 111.339 90.1913 112.315 89.0512 112.315C87.911 112.315 86.934 111.339 86.9342 110.2C86.9345 109.062 87.9119 108.087 89.052 108.087Z" fill="#9BDBF2" /><path d="M89.0511 112.315C90.2455 112.315 91.1687 111.339 91.1689 110.201C91.1691 109.063 90.1921 108.087 89.0519 108.087C87.9118 108.086 86.9344 109.062 86.9341 110.2C86.9339 111.338 87.911 112.314 89.0511 112.315Z" fill="#D1ECFA" /><path opacity="0.2" d="M89.0511 112.315C90.2455 112.315 91.1687 111.339 91.1689 110.201C91.1691 109.063 90.1921 108.087 89.0519 108.087C87.9118 108.086 86.9344 109.062 86.9341 110.2C86.9339 111.338 87.911 112.314 89.0511 112.315Z" fill="#DDF4FD" /><path d="M137.591 98.0687C139.491 98.0691 141.012 96.5517 141.012 94.6545C141.012 92.7574 139.492 91.2394 137.592 91.239C135.692 91.2386 134.172 92.756 134.171 94.6531C134.171 96.5503 135.691 98.0683 137.591 98.0687Z" fill="#D1ECFA" /><path opacity="0.2" d="M137.591 98.0687C139.491 98.0691 141.012 96.5517 141.012 94.6545C141.012 92.7574 139.492 91.2394 137.592 91.239C135.692 91.2386 134.172 92.756 134.171 94.6531C134.171 96.5503 135.691 98.0683 137.591 98.0687Z" fill="#DDF4FD" /><path d="M125.21 110.371C126.459 110.371 127.49 109.341 127.491 108.094C127.491 106.848 126.459 105.818 125.211 105.817C123.962 105.817 122.93 106.847 122.93 108.093C122.93 109.34 123.961 110.37 125.21 110.371Z" fill="#D1ECFA" /><path opacity="0.2" d="M125.21 110.371C126.459 110.371 127.49 109.341 127.491 108.094C127.491 106.848 126.459 105.818 125.211 105.817C123.962 105.817 122.93 106.847 122.93 108.093C122.93 109.34 123.961 110.37 125.21 110.371Z" fill="#DDF4FD" /><path d="M138.729 107.284C138.729 109.506 140.52 111.295 142.746 111.295C144.972 111.296 146.764 109.508 146.764 107.285C146.765 105.063 144.973 103.274 142.747 103.273C140.521 103.273 138.729 105.061 138.729 107.284Z" fill="#D1ECFA" /><path opacity="0.2" d="M138.729 107.284C138.729 109.506 140.52 111.295 142.746 111.295C144.972 111.296 146.764 109.508 146.764 107.285C146.765 105.063 144.973 103.274 142.747 103.273C140.521 103.273 138.729 105.061 138.729 107.284Z" fill="#DDF4FD" /><path d="M96.3808 110.636C97.0866 110.636 97.684 110.04 97.6841 109.335C97.6842 108.63 97.0872 108.034 96.3814 108.034C95.6756 108.034 95.0782 108.63 95.0781 109.335C95.078 110.039 95.675 110.636 96.3808 110.636Z" fill="#D1ECFA" /><path opacity="0.2" d="M96.3808 110.636C97.0866 110.636 97.684 110.04 97.6841 109.335C97.6842 108.63 97.0872 108.034 96.3814 108.034C95.6756 108.034 95.0782 108.63 95.0781 109.335C95.078 110.039 95.675 110.636 96.3808 110.636Z" fill="#DDF4FD" /><path d="M65.3332 76.6977C64.0302 76.6975 62.9984 77.7271 62.9982 79.028C62.9979 80.3289 64.0292 81.359 65.3322 81.3593C66.6352 81.3596 67.667 80.3299 67.6673 79.029C67.6675 77.7281 66.6362 76.698 65.3332 76.6977Z" fill="#D1ECFA" /><path opacity="0.2" d="M65.3332 76.6977C64.0302 76.6975 62.9984 77.7271 62.9982 79.028C62.9979 80.3289 64.0292 81.359 65.3322 81.3593C66.6352 81.3596 67.667 80.3299 67.6673 79.029C67.6675 77.7281 66.6362 76.698 65.3332 76.6977Z" fill="#DDF4FD" /><path d="M65.3341 71.3313C65.9856 71.3314 66.583 70.7895 66.5831 70.0849C66.5832 69.3802 66.0404 68.838 65.3346 68.8379C64.6289 68.8378 64.0858 69.3797 64.0857 70.0843C64.0855 70.789 64.6283 71.3311 65.3341 71.3313Z" fill="#D1ECFA" /><path opacity="0.2" d="M65.3341 71.3313C65.9856 71.3314 66.583 70.7895 66.5831 70.0849C66.5832 69.3802 66.0404 68.838 65.3346 68.8379C64.6289 68.8378 64.0858 69.3797 64.0857 70.0843C64.0855 70.789 64.6283 71.3311 65.3341 71.3313Z" fill="#DDF4FD" /><path d="M143.131 88.3674C143.836 88.3676 144.379 87.8256 144.379 87.121C144.38 86.4163 143.837 85.8742 143.131 85.874C142.425 85.8739 141.882 86.4158 141.882 87.1205C141.882 87.8251 142.425 88.3673 143.131 88.3674Z" fill="#D1ECFA" /><path opacity="0.2" d="M143.131 88.3674C143.836 88.3676 144.379 87.8256 144.379 87.121C144.38 86.4163 143.837 85.8742 143.131 85.874C142.425 85.8739 141.882 86.4158 141.882 87.1205C141.882 87.8251 142.425 88.3673 143.131 88.3674Z" fill="#DDF4FD" /><path d="M151.331 74.7637C152.037 74.7638 152.58 74.2219 152.58 73.5172C152.58 72.8126 152.038 72.2704 151.332 72.2703C150.626 72.2701 150.083 72.8121 150.083 73.5167C150.083 74.2214 150.626 74.7635 151.331 74.7637Z" fill="#D1ECFA" /><path opacity="0.2" d="M151.331 74.7637C152.037 74.7638 152.58 74.2219 152.58 73.5172C152.58 72.8126 152.038 72.2704 151.332 72.2703C150.626 72.2701 150.083 72.8121 150.083 73.5167C150.083 74.2214 150.626 74.7635 151.331 74.7637Z" fill="#DDF4FD" /><path d="M155.39 88.554C156.889 88.5543 158.104 87.3412 158.105 85.8444C158.105 84.3476 156.89 83.1339 155.391 83.1336C153.892 83.1333 152.676 84.3465 152.676 85.8433C152.675 87.3401 153.89 88.5537 155.39 88.554Z" fill="#D1ECFA" /><path opacity="0.2" d="M155.39 88.554C156.889 88.5543 158.104 87.3412 158.105 85.8444C158.105 84.3476 156.89 83.1339 155.391 83.1336C153.892 83.1333 152.676 84.3465 152.676 85.8433C152.675 87.3401 153.89 88.5537 155.39 88.554Z" fill="#DDF4FD" /><path d="M109.632 34.9776C133.049 34.8448 152.015 31.7822 151.995 28.1371C151.974 24.492 132.974 21.6448 109.557 21.7776C86.1401 21.9104 67.1737 24.973 67.1944 28.6181C67.2151 32.2632 86.215 35.1104 109.632 34.9776Z" fill="#96A3AB" /><path d="M109.632 34.9776C133.049 34.8448 152.015 31.7822 151.995 28.1371C151.974 24.492 132.974 21.6448 109.557 21.7776C86.1401 21.9104 67.1737 24.973 67.1944 28.6181C67.2151 32.2632 86.215 35.1104 109.632 34.9776Z" fill="#9BDBF2" fill-opacity="0.5" /><path opacity="0.54" d="M71.4321 31.3977C71.4321 31.3977 101.762 24.9683 149.303 30.771C149.303 30.771 132.568 34.294 131.27 34.2176C129.972 34.1413 102.807 34.4461 98.5029 34.3931C94.0929 34.4341 71.4321 31.3977 71.4321 31.3977Z" fill="#8CD8ED" /><path d="M109.355 21.5763C85.2505 21.7415 65.5966 24.9188 65.6095 28.6844C65.6628 29.4889 66.3241 30.278 67.6916 31.0328C68.4583 30.7832 69.0888 30.3561 69.6815 29.7326C68.5861 29.3328 67.9815 28.8382 68.004 28.4265C67.9472 28.132 68.0868 27.7995 68.4417 27.5274C71.345 24.6255 88.6197 22.3141 109.37 22.1844C131.65 22.0653 149.834 24.4671 150.772 27.7489L153.046 27.9217C152.13 24.2282 132.851 21.4264 109.355 21.5763Z" fill="#DDF4FD" /><path d="M150.328 32.3154C150.328 32.3154 142.455 36.379 125.089 37.6895C107.821 38.9811 78.1945 37.9702 69.052 32.8073L68.651 31.2552L78.1472 33.4984L101.255 35.562L127.169 34.7426C127.169 34.7426 142.619 32.4773 142.993 32.3034C143.367 32.1295 151.229 29.5956 151.229 29.5956L150.328 32.3154Z" fill="#8FCCDE" /><path d="M81.6251 32.5224L79.983 34.5702C82.0794 34.879 84.4892 35.2293 86.9783 35.4624L89.3456 33.4784C86.543 33.2039 83.9368 32.8916 81.6251 32.5224Z" fill="#DDF4FD" /><path d="M153.102 28.2162C153.083 28.118 153.064 28.0198 153.046 27.9216L150.693 27.866C150.711 27.9642 150.73 28.0624 150.749 28.1606C150.769 30.9064 138.397 33.2912 121.446 34.1143C117.621 34.3425 113.56 34.4123 109.383 34.4027C102.067 34.489 95.2647 34.0689 89.3459 33.4784L86.9787 35.4624C93.2109 36.0942 100.818 36.4611 109.781 36.4648C117.017 36.4957 123.275 36.2059 128.771 35.6559C144.686 34.2176 153.122 30.962 153.102 28.2162Z" fill="#DDF4FD" /><path d="M76.1644 33.7785C77.3391 34.0612 78.5931 34.2269 79.9643 34.4718L81.6064 32.424C76.0426 31.5615 71.8913 30.6303 69.6814 29.7324C69.0887 30.3558 68.4392 30.6847 67.6915 31.0325C69.4104 32.0251 72.2473 33.0059 76.1644 33.7785Z" fill="#DDF4FD" /></g><defs><clipPath id="clip0_84_70"><rect width="169" height="318" fill="white" /></clipPath></defs></svg>