<svg id="headmaster" xmlns="http://www.w3.org/2000/svg" viewBox="0 0 288.36 228.19" width="288.36" height="228.19" preserveAspectRatio="none"><defs><style>.cls-1{fill:#005196;opacity:0.5;}.cls-2{fill:#001c25;}.cls-3{fill:#b47452;}.cls-4{fill:#dfba71;}.cls-5{fill:#003842;}.cls-6{fill:#fff;}.cls-7{fill:#d7f0fc;}.cls-8{fill:#005663;}.cls-9{fill:#72472e;}</style></defs><title>HeaderChalkboard 1</title><polygon class="cls-1" points="34.03 183.19 1.54 225.42 285.34 223.63 246.11 179.82 34.03 183.19"/><path class="cls-2" d="M14,214.81A8.78,8.78,0,1,0,22.76,206,8.78,8.78,0,0,0,14,214.81"/><path class="cls-2" d="M31,193.1a6.72,6.72,0,1,0,6.72-6.72A6.72,6.72,0,0,0,31,193.1"/><path class="cls-2" d="M267.24,207.69a8.78,8.78,0,1,1-9.8-7.64,8.79,8.79,0,0,1,9.8,7.64"/><path class="cls-2" d="M247.65,188.25a6.72,6.72,0,1,1-7.49-5.84,6.72,6.72,0,0,1,7.49,5.84"/><polygon class="cls-3" points="241.79 185.6 233.01 177.92 234.57 184.7 260.25 213.78 272.87 213.78 273.61 208.1 241.79 185.6"/><polygon class="cls-4" points="242.89 177.38 233.01 177.92 260.99 208.1 273.61 208.1 242.89 177.38"/><polygon class="cls-3" points="251.58 197.36 262.79 198.88 252 198.88 251.58 197.36"/><polygon class="cls-3" points="36.47 185.6 43.12 177.92 43.97 185.35 23.49 216.33 10.87 216.33 10.87 208.1 36.47 185.6"/><polygon class="cls-4" points="33.09 177.38 43.12 177.92 23.49 208.1 10.87 208.1 33.09 177.38"/><rect class="cls-4" x="252.76" y="44.91" width="7.13" height="151.67"/><polygon class="cls-3" points="253.86 203.89 246.73 196.58 246.73 48.75 253.86 44.91 253.86 203.89"/><rect class="cls-4" x="21.24" y="44.91" width="7.13" height="151.67"/><polygon class="cls-3" points="27.27 197.78 34.41 189.99 34.41 48.75 27.27 44.91 27.27 197.78"/><polygon class="cls-3" points="27.23 196.26 20.05 197.78 26.96 197.78 27.23 196.26"/><rect class="cls-4" x="38.37" y="1.62" width="211.77" height="156.91"/><rect class="cls-4" x="30.52" y="1.62" width="219.62" height="156.91"/><rect class="cls-5" x="40.19" y="11.99" width="201.05" height="135.51"/><polygon class="cls-3" points="39.27 144.76 248.03 144.76 254.74 148.76 248.03 154.09 35.21 154.09 33.55 148.17 39.27 144.76"/><rect class="cls-3" x="35.79" y="149.96" width="214.1" height="6.04"/><rect class="cls-4" x="32.62" y="148.05" width="221.77" height="6.04"/><path class="cls-6" d="M211.24,146.07l-10.31.07a2.38,2.38,0,0,1-2.14-2.48,2.49,2.49,0,0,1,2.23-2.51l10.22.1c1.89,0,2,4.82,0,4.82"/><path class="cls-7" d="M202.63,143.66a2,2,0,1,1-2-2.48,2.26,2.26,0,0,1,2,2.48"/><path class="cls-6" d="M203.37,140.42l-9.11,4.84a2.39,2.39,0,0,1-3-1.21,2.49,2.49,0,0,1,.82-3.26l9.1-4.64c1.67-.87,4,3.36,2.23,4.27"/><path class="cls-7" d="M194.62,142.27a2,2,0,1,1-2.88-1.29,2.26,2.26,0,0,1,2.88,1.29"/><polygon class="cls-8" points="131.43 148.21 113.52 148.21 110.22 145.05 110.22 139.22 115.37 139.22 131.43 139.22 131.43 148.21"/><rect class="cls-2" x="113.52" y="139.22" width="23.64" height="8.98"/><rect class="cls-3" x="112.64" y="137.54" width="25.47" height="3.26"/><polygon class="cls-9" points="112.64 140.79 109.47 139.54 109.47 137.53 112.64 137.53 112.64 140.79"/><path class="cls-6" d="M55.69,29.43l1.53-7.49h1.72l-2.3,10H55l-1.89-7.27-1.93,7.27H49.5l-2.3-10h1.72l1.54,7.48,1.9-7.48h1.45Z"/><path class="cls-6" d="M61.68,25.3a2.75,2.75,0,0,1,.9-.69,2.62,2.62,0,0,1,1.16-.25,3.05,3.05,0,0,1,1,.15,1.85,1.85,0,0,1,.76.48,2.23,2.23,0,0,1,.49.86,4.22,4.22,0,0,1,.17,1.28v4.76H64.47V27.12A1.46,1.46,0,0,0,64.14,26a1.36,1.36,0,0,0-1-.32,1.62,1.62,0,0,0-.89.24,1.77,1.77,0,0,0-.6.65v5.28H60V21.39h1.66Z"/><path class="cls-6" d="M72.23,31.89a1.41,1.41,0,0,1-.11-.31c0-.12-.06-.25-.08-.38a2.93,2.93,0,0,1-.37.32,2.52,2.52,0,0,1-.44.26A2.66,2.66,0,0,1,70.1,32a3,3,0,0,1-1-.17,2.37,2.37,0,0,1-.8-.46,2.16,2.16,0,0,1-.52-.7,2,2,0,0,1-.19-.87,2.35,2.35,0,0,1,.23-1.05,2,2,0,0,1,.66-.77,3.13,3.13,0,0,1,1.06-.47,5.73,5.73,0,0,1,1.43-.16h1v-.49a1.3,1.3,0,0,0-.32-.92,1.28,1.28,0,0,0-1-.34,1.69,1.69,0,0,0-.53.08,1.3,1.3,0,0,0-.41.21,1,1,0,0,0-.26.32.87.87,0,0,0-.09.4H67.73a1.78,1.78,0,0,1,.21-.84,2.3,2.3,0,0,1,.61-.72,3.1,3.1,0,0,1,1-.51,3.9,3.9,0,0,1,1.26-.19,4,4,0,0,1,1.15.16,2.62,2.62,0,0,1,.91.48,2.17,2.17,0,0,1,.59.79,2.72,2.72,0,0,1,.21,1.11v3.28a3.77,3.77,0,0,0,.28,1.59v.12Zm-1.83-1.2a1.86,1.86,0,0,0,.54-.08,1.9,1.9,0,0,0,.45-.2,1.67,1.67,0,0,0,.35-.28,1.6,1.6,0,0,0,.24-.32V28.42h-.9a2.45,2.45,0,0,0-1.39.32,1,1,0,0,0-.46.91,1.12,1.12,0,0,0,.08.42.88.88,0,0,0,.23.33,1,1,0,0,0,.37.22A1.46,1.46,0,0,0,70.41,30.69Z"/><path class="cls-6" d="M77.47,22.69v1.8h1.31v1.23H77.47v4.13a1.25,1.25,0,0,0,.05.41.53.53,0,0,0,.16.24.57.57,0,0,0,.24.12,1.53,1.53,0,0,0,.31,0l.33,0,.25,0v1.29l-.46.11a3.44,3.44,0,0,1-.63.05,2.55,2.55,0,0,1-.76-.11,1.52,1.52,0,0,1-.61-.36,1.65,1.65,0,0,1-.4-.64,2.87,2.87,0,0,1-.14-1V25.72H74.59V24.49h1.22v-1.8Z"/><path class="cls-6" d="M83.53,22.57a.89.89,0,0,1,.24-.64.92.92,0,0,1,.69-.25.93.93,0,0,1,.7.25.88.88,0,0,1,.25.64.86.86,0,0,1-.25.63.94.94,0,0,1-.7.25.93.93,0,0,1-.69-.25A.87.87,0,0,1,83.53,22.57Zm1.76,9.32H83.64v-7.4H85.3Z"/><path class="cls-6" d="M91.25,29.88a.93.93,0,0,0-.06-.33.69.69,0,0,0-.23-.29,1.86,1.86,0,0,0-.48-.25,5.65,5.65,0,0,0-.81-.22,7.22,7.22,0,0,1-1.08-.31,3.37,3.37,0,0,1-.84-.45,2,2,0,0,1-.54-.62A1.68,1.68,0,0,1,87,26.6a1.92,1.92,0,0,1,.2-.86,2.13,2.13,0,0,1,.57-.71,2.85,2.85,0,0,1,.9-.49,3.65,3.65,0,0,1,1.19-.18,3.94,3.94,0,0,1,1.24.18A2.84,2.84,0,0,1,92,25a2.14,2.14,0,0,1,.79,1.68H91.17a1.08,1.08,0,0,0-.08-.41,1,1,0,0,0-.25-.36,1.21,1.21,0,0,0-.41-.25,1.6,1.6,0,0,0-.56-.09,1.72,1.72,0,0,0-.55.08,1.23,1.23,0,0,0-.39.21.8.8,0,0,0-.23.29.84.84,0,0,0-.08.35.75.75,0,0,0,.07.33.66.66,0,0,0,.24.26,2,2,0,0,0,.47.21,6.69,6.69,0,0,0,.74.2,8.66,8.66,0,0,1,1.15.32,3.25,3.25,0,0,1,.86.45,1.82,1.82,0,0,1,.54.63,1.87,1.87,0,0,1,.18.86,1.94,1.94,0,0,1-.21.9,2.09,2.09,0,0,1-.61.71,3,3,0,0,1-.95.46,4.32,4.32,0,0,1-1.23.16,3.9,3.9,0,0,1-1.34-.21,3.09,3.09,0,0,1-1-.56,2.36,2.36,0,0,1-.6-.79,2.15,2.15,0,0,1-.2-.9h1.61a1.26,1.26,0,0,0,.16.57,1.14,1.14,0,0,0,.35.38,1.47,1.47,0,0,0,.48.21,2.31,2.31,0,0,0,.55.06,1.68,1.68,0,0,0,1-.25A.77.77,0,0,0,91.25,29.88Z"/><path class="cls-6" d="M99.9,22.69v1.8h1.31v1.23H99.9v4.13a1.25,1.25,0,0,0,.05.41.53.53,0,0,0,.16.24.57.57,0,0,0,.24.12,1.53,1.53,0,0,0,.31,0l.33,0,.25,0v1.29l-.46.11a3.44,3.44,0,0,1-.63.05,2.55,2.55,0,0,1-.76-.11,1.52,1.52,0,0,1-.61-.36,1.65,1.65,0,0,1-.4-.64,2.87,2.87,0,0,1-.14-1V25.72H97V24.49h1.22v-1.8Z"/><path class="cls-6" d="M104.11,25.3a2.75,2.75,0,0,1,.9-.69,2.62,2.62,0,0,1,1.16-.25,3.05,3.05,0,0,1,1,.15,1.85,1.85,0,0,1,.76.48,2.23,2.23,0,0,1,.49.86,4.22,4.22,0,0,1,.17,1.28v4.76H106.9V27.12a1.46,1.46,0,0,0-.33-1.08,1.36,1.36,0,0,0-1-.32,1.62,1.62,0,0,0-.89.24,1.77,1.77,0,0,0-.6.65v5.28h-1.66V21.39h1.66Z"/><path class="cls-6" d="M113.5,32a3.8,3.8,0,0,1-1.48-.27,3.24,3.24,0,0,1-1.11-.75,3.29,3.29,0,0,1-.7-1.13,4,4,0,0,1-.25-1.42v-.27a4.56,4.56,0,0,1,.26-1.58,3.62,3.62,0,0,1,.71-1.2,3.15,3.15,0,0,1,1.06-.77,3.23,3.23,0,0,1,1.32-.27,3.37,3.37,0,0,1,1.4.27,2.65,2.65,0,0,1,1,.76,3.25,3.25,0,0,1,.58,1.16,5.36,5.36,0,0,1,.19,1.47v.71h-4.83a2.65,2.65,0,0,0,.18.79,2,2,0,0,0,.4.63,1.84,1.84,0,0,0,.6.41,1.94,1.94,0,0,0,.78.15,2.21,2.21,0,0,0,1.07-.25,2.51,2.51,0,0,0,.79-.68l.9.85a3,3,0,0,1-.44.52,3,3,0,0,1-.62.45,3.6,3.6,0,0,1-.8.31A3.87,3.87,0,0,1,113.5,32Zm-.2-6.34a1.4,1.4,0,0,0-1.1.48,2.48,2.48,0,0,0-.54,1.33h3.17v-.12a3,3,0,0,0-.11-.63,1.6,1.6,0,0,0-.26-.54,1.27,1.27,0,0,0-.46-.38A1.56,1.56,0,0,0,113.3,25.69Z"/><path class="cls-6" d="M125.39,29.88a1,1,0,0,0-.06-.33.69.69,0,0,0-.23-.29,1.84,1.84,0,0,0-.48-.25,5.74,5.74,0,0,0-.81-.22,7.22,7.22,0,0,1-1.08-.31,3.37,3.37,0,0,1-.84-.45,2,2,0,0,1-.54-.62,1.68,1.68,0,0,1-.19-.82,1.92,1.92,0,0,1,.2-.86,2.13,2.13,0,0,1,.57-.71,2.85,2.85,0,0,1,.9-.49,3.65,3.65,0,0,1,1.19-.18,4,4,0,0,1,1.24.18,2.83,2.83,0,0,1,.93.5,2.16,2.16,0,0,1,.59.75,2.19,2.19,0,0,1,.2.93h-1.66a1.08,1.08,0,0,0-.08-.41,1,1,0,0,0-.25-.36,1.21,1.21,0,0,0-.41-.25,1.6,1.6,0,0,0-.56-.09,1.72,1.72,0,0,0-.55.08,1.23,1.23,0,0,0-.39.21.8.8,0,0,0-.23.29.84.84,0,0,0-.08.35.75.75,0,0,0,.07.33.66.66,0,0,0,.24.26,2,2,0,0,0,.47.21,6.69,6.69,0,0,0,.74.2,8.72,8.72,0,0,1,1.15.32,3.31,3.31,0,0,1,.86.45,1.83,1.83,0,0,1,.54.63,1.87,1.87,0,0,1,.19.86,1.92,1.92,0,0,1-.21.9,2.08,2.08,0,0,1-.6.71,3,3,0,0,1-.95.46A4.32,4.32,0,0,1,124,32a3.9,3.9,0,0,1-1.34-.21,3.09,3.09,0,0,1-1-.56,2.36,2.36,0,0,1-.6-.79,2.15,2.15,0,0,1-.2-.9h1.61a1.26,1.26,0,0,0,.16.57,1.14,1.14,0,0,0,.35.38,1.47,1.47,0,0,0,.48.21,2.31,2.31,0,0,0,.55.06,1.67,1.67,0,0,0,1-.25A.77.77,0,0,0,125.39,29.88Z"/><path class="cls-6" d="M132.95,31.16a2.36,2.36,0,0,1-.86.64,3.34,3.34,0,0,1-2.21.07,1.91,1.91,0,0,1-.77-.48,2.25,2.25,0,0,1-.5-.86,3.92,3.92,0,0,1-.18-1.25V24.49h1.66v4.8a2,2,0,0,0,.1.67,1.14,1.14,0,0,0,.26.42.9.9,0,0,0,.37.23,1.52,1.52,0,0,0,.44.06,2,2,0,0,0,1-.23,1.48,1.48,0,0,0,.59-.64V24.49h1.66v7.4H133Z"/><path class="cls-6" d="M137.81,24.49l0,.77a2.55,2.55,0,0,1,.9-.67,3,3,0,0,1,1.23-.24,2.64,2.64,0,0,1,1.21.27,1.82,1.82,0,0,1,.82.87,2.65,2.65,0,0,1,2.27-1.13,3.14,3.14,0,0,1,1,.15,1.84,1.84,0,0,1,.76.48,2.23,2.23,0,0,1,.48.85,4.12,4.12,0,0,1,.17,1.25v4.79h-1.66v-4.8a2.1,2.1,0,0,0-.09-.67,1,1,0,0,0-.27-.42,1,1,0,0,0-.42-.22,2.25,2.25,0,0,0-.55-.06,1.38,1.38,0,0,0-.93.3,1.6,1.6,0,0,0-.5.8s0,0,0,.07a.6.6,0,0,1,0,.07v4.93h-1.66V27.11a2,2,0,0,0-.09-.66,1,1,0,0,0-.69-.67,2,2,0,0,0-.55-.07,1.62,1.62,0,0,0-.88.22,1.49,1.49,0,0,0-.54.59v5.36h-1.66v-7.4Z"/><path class="cls-6" d="M151.6,28.12a4.59,4.59,0,0,1,.24-1.49,3.54,3.54,0,0,1,.68-1.19,3.09,3.09,0,0,1,1.08-.79,3.47,3.47,0,0,1,1.44-.29,3.54,3.54,0,0,1,1.46.29,3.1,3.1,0,0,1,1.08.79,3.51,3.51,0,0,1,.67,1.19,4.62,4.62,0,0,1,.23,1.49v.14a4.65,4.65,0,0,1-.23,1.5,3.47,3.47,0,0,1-.67,1.19,3.08,3.08,0,0,1-1.08.79,3.85,3.85,0,0,1-2.9,0,3.06,3.06,0,0,1-1.08-.79,3.49,3.49,0,0,1-.68-1.19,4.63,4.63,0,0,1-.24-1.5Zm1.66.14a4.18,4.18,0,0,0,.1.94,2.36,2.36,0,0,0,.32.78,1.54,1.54,0,0,0,1.36.71A1.54,1.54,0,0,0,156.4,30a2.47,2.47,0,0,0,.32-.78,4,4,0,0,0,.11-.94v-.14a3.94,3.94,0,0,0-.11-.93,2.42,2.42,0,0,0-.32-.77,1.68,1.68,0,0,0-.56-.53,1.57,1.57,0,0,0-.8-.2,1.53,1.53,0,0,0-.8.2,1.69,1.69,0,0,0-.55.53,2.37,2.37,0,0,0-.32.77,4.1,4.1,0,0,0-.1.93Z"/><path class="cls-6" d="M160.47,31.89V25.72h-1.13V24.49h1.13v-.7a3.07,3.07,0,0,1,.18-1.09,2.12,2.12,0,0,1,.52-.8,2.23,2.23,0,0,1,.82-.49,3.3,3.3,0,0,1,1.08-.17,3.34,3.34,0,0,1,.47,0l.46.09,0,1.3-.3,0h-.34a1.21,1.21,0,0,0-.88.3,1.18,1.18,0,0,0-.31.88v.7h1.5v1.23h-1.5v6.17Z"/><path class="cls-6" d="M171.59,32a3.8,3.8,0,0,1-1.48-.27A3.25,3.25,0,0,1,169,31a3.29,3.29,0,0,1-.7-1.13,4,4,0,0,1-.25-1.42v-.27a4.58,4.58,0,0,1,.26-1.58,3.62,3.62,0,0,1,.71-1.2,3.14,3.14,0,0,1,1.06-.77,3.22,3.22,0,0,1,1.32-.27,3.37,3.37,0,0,1,1.4.27,2.65,2.65,0,0,1,1,.76,3.25,3.25,0,0,1,.58,1.16,5.32,5.32,0,0,1,.19,1.47v.71h-4.83a2.62,2.62,0,0,0,.18.79,1.93,1.93,0,0,0,.4.63,1.84,1.84,0,0,0,.6.41,1.93,1.93,0,0,0,.78.15,2.21,2.21,0,0,0,1.07-.25,2.51,2.51,0,0,0,.79-.68l.9.85a3.05,3.05,0,0,1-1.06,1,3.6,3.6,0,0,1-.8.31A3.87,3.87,0,0,1,171.59,32Zm-.2-6.34a1.39,1.39,0,0,0-1.1.48,2.47,2.47,0,0,0-.54,1.33h3.17v-.12a3,3,0,0,0-.11-.63,1.6,1.6,0,0,0-.26-.54,1.26,1.26,0,0,0-.46-.38A1.56,1.56,0,0,0,171.39,25.69Z"/><path class="cls-6" d="M178.37,29.78l1.57-5.29h1.72l-2.56,7.4h-1.44l-2.58-7.4h1.72Z"/><path class="cls-6" d="M185.86,32a3.8,3.8,0,0,1-1.48-.27,3.25,3.25,0,0,1-1.11-.75,3.29,3.29,0,0,1-.7-1.13,4,4,0,0,1-.25-1.42v-.27a4.58,4.58,0,0,1,.26-1.58,3.62,3.62,0,0,1,.71-1.2,3.14,3.14,0,0,1,1.06-.77,3.22,3.22,0,0,1,1.32-.27,3.37,3.37,0,0,1,1.4.27,2.65,2.65,0,0,1,1,.76,3.25,3.25,0,0,1,.58,1.16,5.32,5.32,0,0,1,.19,1.47v.71H184a2.62,2.62,0,0,0,.18.79,1.93,1.93,0,0,0,.4.63,1.84,1.84,0,0,0,.6.41,1.93,1.93,0,0,0,.78.15,2.21,2.21,0,0,0,1.07-.25,2.51,2.51,0,0,0,.79-.68l.9.85a3.05,3.05,0,0,1-1.06,1,3.6,3.6,0,0,1-.8.31A3.87,3.87,0,0,1,185.86,32Zm-.2-6.34a1.39,1.39,0,0,0-1.1.48A2.47,2.47,0,0,0,184,27.5h3.17v-.12a3,3,0,0,0-.11-.63,1.6,1.6,0,0,0-.26-.54,1.26,1.26,0,0,0-.46-.38A1.56,1.56,0,0,0,185.66,25.69Z"/><path class="cls-6" d="M194,26l-.33,0h-.35a1.83,1.83,0,0,0-1,.23,1.42,1.42,0,0,0-.56.64v5.06h-1.66v-7.4h1.59l0,.83a2.16,2.16,0,0,1,.69-.71,1.82,1.82,0,0,1,1-.26l.32,0a1.28,1.28,0,0,1,.26.06Z"/><path class="cls-6" d="M197.74,29.51l1.5-5H201L198.07,33a5.43,5.43,0,0,1-.27.61,2.6,2.6,0,0,1-.44.6,2.29,2.29,0,0,1-.66.47,2.11,2.11,0,0,1-.93.19,2.32,2.32,0,0,1-.42,0l-.38-.08V33.47l.16,0h.15a2.54,2.54,0,0,0,.54-.05,1.13,1.13,0,0,0,.4-.17,1.1,1.1,0,0,0,.29-.31,2.1,2.1,0,0,0,.22-.47l.24-.64-2.6-7.36h1.79Z"/><path class="cls-6" d="M47.73,37a.89.89,0,0,1,.24-.64.92.92,0,0,1,.69-.25.93.93,0,0,1,.7.25.88.88,0,0,1,.25.64.86.86,0,0,1-.25.63.94.94,0,0,1-.7.25A.93.93,0,0,1,48,37.6.87.87,0,0,1,47.73,37Zm1.76,9.32H47.83V38.9h1.66Z"/><path class="cls-6" d="M52.84,38.9l0,.85a2.7,2.7,0,0,1,.94-.73A2.8,2.8,0,0,1,55,38.76a3,3,0,0,1,1,.15,1.79,1.79,0,0,1,.74.48,2.2,2.2,0,0,1,.47.85,4.23,4.23,0,0,1,.17,1.28v4.78H55.73V41.5a2.09,2.09,0,0,0-.09-.65,1,1,0,0,0-.25-.43,1,1,0,0,0-.41-.24,2,2,0,0,0-.56-.07,1.6,1.6,0,0,0-.89.25,1.79,1.79,0,0,0-.6.66v5.26H51.27V38.9Z"/><path class="cls-6" d="M61.17,37.1v1.8h1.31v1.23H61.17v4.13a1.25,1.25,0,0,0,.05.41.53.53,0,0,0,.16.24.57.57,0,0,0,.24.12,1.53,1.53,0,0,0,.31,0l.33,0,.25,0v1.29l-.46.11a3.44,3.44,0,0,1-.63.05,2.55,2.55,0,0,1-.76-.11A1.52,1.52,0,0,1,60,46a1.65,1.65,0,0,1-.4-.64,2.87,2.87,0,0,1-.14-1V40.13H58.29V38.9H59.5V37.1Z"/><path class="cls-6" d="M67,46.43a3.8,3.8,0,0,1-1.48-.27,3.24,3.24,0,0,1-1.11-.75,3.29,3.29,0,0,1-.7-1.13,4,4,0,0,1-.25-1.42v-.27A4.56,4.56,0,0,1,63.72,41a3.62,3.62,0,0,1,.71-1.2A3.15,3.15,0,0,1,65.49,39a3.23,3.23,0,0,1,1.32-.27,3.37,3.37,0,0,1,1.4.27,2.65,2.65,0,0,1,1,.76,3.25,3.25,0,0,1,.58,1.16A5.36,5.36,0,0,1,70,42.41v.71H65.13a2.65,2.65,0,0,0,.18.79,2,2,0,0,0,.4.63,1.84,1.84,0,0,0,.6.41,1.94,1.94,0,0,0,.78.15,2.21,2.21,0,0,0,1.07-.25,2.51,2.51,0,0,0,.79-.68l.9.85a3,3,0,0,1-.44.52,3,3,0,0,1-.62.45,3.6,3.6,0,0,1-.8.31A3.87,3.87,0,0,1,67,46.43Zm-.2-6.34a1.4,1.4,0,0,0-1.1.48,2.48,2.48,0,0,0-.54,1.33h3.17v-.12a3,3,0,0,0-.11-.63,1.6,1.6,0,0,0-.26-.54,1.27,1.27,0,0,0-.46-.38A1.56,1.56,0,0,0,66.8,40.09Z"/><path class="cls-6" d="M71,42.54A5.44,5.44,0,0,1,71.17,41a3.6,3.6,0,0,1,.59-1.2A2.84,2.84,0,0,1,75.08,39a2.41,2.41,0,0,1,.83.65L76,38.9h1.5v7.19a3.37,3.37,0,0,1-.25,1.33,2.72,2.72,0,0,1-.69,1,3,3,0,0,1-1.06.6,4.2,4.2,0,0,1-1.36.21,4.07,4.07,0,0,1-.68-.06,4,4,0,0,1-.76-.21,3.66,3.66,0,0,1-.73-.38,2.35,2.35,0,0,1-.59-.57l.79-1a2.5,2.5,0,0,0,.89.7,2.44,2.44,0,0,0,1,.21,1.84,1.84,0,0,0,1.31-.45,1.72,1.72,0,0,0,.48-1.32v-.5a2.34,2.34,0,0,1-.82.59,2.72,2.72,0,0,1-1.09.21,2.61,2.61,0,0,1-1.22-.28,2.81,2.81,0,0,1-.93-.78,3.62,3.62,0,0,1-.59-1.19A5.21,5.21,0,0,1,71,42.69Zm1.65.14a4.19,4.19,0,0,0,.1.93,2.36,2.36,0,0,0,.31.76,1.58,1.58,0,0,0,.53.52,1.51,1.51,0,0,0,.77.19,1.62,1.62,0,0,0,.92-.24,1.79,1.79,0,0,0,.57-.62V41a1.69,1.69,0,0,0-.58-.62,1.66,1.66,0,0,0-.9-.23,1.52,1.52,0,0,0-.78.19,1.57,1.57,0,0,0-.54.52,2.48,2.48,0,0,0-.31.77,4.15,4.15,0,0,0-.1.94Z"/><path class="cls-6" d="M82.45,46.43A3.8,3.8,0,0,1,81,46.16a3.24,3.24,0,0,1-1.11-.75,3.29,3.29,0,0,1-.7-1.13,4,4,0,0,1-.25-1.42v-.27A4.56,4.56,0,0,1,79.16,41a3.62,3.62,0,0,1,.71-1.2A3.15,3.15,0,0,1,80.94,39a3.23,3.23,0,0,1,1.32-.27,3.37,3.37,0,0,1,1.4.27,2.65,2.65,0,0,1,1,.76,3.25,3.25,0,0,1,.58,1.16,5.36,5.36,0,0,1,.19,1.47v.71H80.58a2.65,2.65,0,0,0,.18.79,2,2,0,0,0,.4.63,1.84,1.84,0,0,0,.6.41,1.94,1.94,0,0,0,.78.15,2.21,2.21,0,0,0,1.07-.25,2.51,2.51,0,0,0,.79-.68l.9.85a3,3,0,0,1-.44.52,3,3,0,0,1-.62.45,3.6,3.6,0,0,1-.8.31A3.87,3.87,0,0,1,82.45,46.43Zm-.2-6.34a1.4,1.4,0,0,0-1.1.48,2.48,2.48,0,0,0-.54,1.33h3.17v-.12a3,3,0,0,0-.11-.63,1.6,1.6,0,0,0-.26-.54,1.27,1.27,0,0,0-.46-.38A1.56,1.56,0,0,0,82.25,40.09Z"/><path class="cls-6" d="M90.57,40.42l-.33,0H89.9a1.83,1.83,0,0,0-1,.23,1.42,1.42,0,0,0-.56.64v5.06H86.7V38.9h1.59l0,.83A2.16,2.16,0,0,1,89,39a1.82,1.82,0,0,1,1-.26l.32,0a1.28,1.28,0,0,1,.26.06Z"/><path class="cls-6" d="M95.69,46.29V40.13H94.57V38.9h1.13v-.7a3.09,3.09,0,0,1,.18-1.09,2.13,2.13,0,0,1,.52-.8,2.22,2.22,0,0,1,.82-.49,3.3,3.3,0,0,1,1.08-.17,3.35,3.35,0,0,1,.47,0l.46.09,0,1.3-.3,0h-.34a1.21,1.21,0,0,0-.88.3,1.18,1.18,0,0,0-.31.88v.7h1.5v1.23h-1.5v6.17Z"/><path class="cls-6" d="M103.94,40.42l-.33,0h-.34a1.83,1.83,0,0,0-1,.23,1.42,1.42,0,0,0-.56.64v5.06h-1.66V38.9h1.59l0,.83a2.16,2.16,0,0,1,.69-.71,1.82,1.82,0,0,1,1-.26l.32,0a1.28,1.28,0,0,1,.26.06Z"/><path class="cls-6" d="M104.43,42.53a4.56,4.56,0,0,1,.24-1.49,3.53,3.53,0,0,1,.68-1.19,3.11,3.11,0,0,1,1.08-.79,3.47,3.47,0,0,1,1.44-.29,3.54,3.54,0,0,1,1.46.29,3.09,3.09,0,0,1,1.08.79,3.5,3.5,0,0,1,.67,1.19,4.64,4.64,0,0,1,.23,1.49v.14a4.68,4.68,0,0,1-.23,1.5,3.45,3.45,0,0,1-.67,1.19,3.06,3.06,0,0,1-1.08.79,3.85,3.85,0,0,1-2.9,0,3.07,3.07,0,0,1-1.08-.79,3.49,3.49,0,0,1-.68-1.19,4.6,4.6,0,0,1-.24-1.5Zm1.66.14a4.18,4.18,0,0,0,.1.94,2.34,2.34,0,0,0,.32.78,1.54,1.54,0,0,0,1.36.71,1.53,1.53,0,0,0,1.35-.71,2.45,2.45,0,0,0,.32-.78,4,4,0,0,0,.11-.94v-.14a3.94,3.94,0,0,0-.11-.93,2.42,2.42,0,0,0-.32-.77,1.68,1.68,0,0,0-.56-.53,1.56,1.56,0,0,0-.8-.2,1.53,1.53,0,0,0-.8.2,1.69,1.69,0,0,0-.55.53,2.35,2.35,0,0,0-.32.77,4.1,4.1,0,0,0-.1.93Z"/><path class="cls-6" d="M114.27,38.9l0,.77a2.55,2.55,0,0,1,.9-.67,3,3,0,0,1,1.23-.24,2.64,2.64,0,0,1,1.21.27,1.82,1.82,0,0,1,.82.87,2.65,2.65,0,0,1,2.27-1.13,3.14,3.14,0,0,1,1,.15,1.83,1.83,0,0,1,.76.48,2.21,2.21,0,0,1,.48.85,4.09,4.09,0,0,1,.17,1.25v4.79h-1.66V41.5a2.07,2.07,0,0,0-.09-.67,1,1,0,0,0-.27-.42,1,1,0,0,0-.42-.22,2.24,2.24,0,0,0-.55-.06,1.39,1.39,0,0,0-.93.3,1.61,1.61,0,0,0-.5.8s0,0,0,.07a.6.6,0,0,1,0,.07v4.93h-1.66V41.52a2,2,0,0,0-.09-.66,1.05,1.05,0,0,0-.27-.43,1,1,0,0,0-.42-.24,2,2,0,0,0-.55-.07,1.62,1.62,0,0,0-.88.22,1.48,1.48,0,0,0-.54.59v5.36h-1.66V38.9Z"/><path class="cls-6" d="M131.6,42.73H128V41.39h3.59Z"/><path class="cls-6" d="M133.31,41.36l.54-5h5.35v1.44h-4L135,40.16a3.5,3.5,0,0,1,.64-.27,3,3,0,0,1,.92-.13,3.27,3.27,0,0,1,1.26.23,2.51,2.51,0,0,1,.94.67,3,3,0,0,1,.59,1.06,4.43,4.43,0,0,1,.21,1.4,4.1,4.1,0,0,1-.2,1.3,2.93,2.93,0,0,1-.61,1.05,2.85,2.85,0,0,1-1,.71,3.69,3.69,0,0,1-1.44.26,3.87,3.87,0,0,1-1.19-.18,3.08,3.08,0,0,1-1-.54,2.82,2.82,0,0,1-.72-.89,3,3,0,0,1-.32-1.22h1.61a1.75,1.75,0,0,0,.52,1.11,1.76,1.76,0,0,0,1.81.24,1.39,1.39,0,0,0,.51-.42,1.91,1.91,0,0,0,.3-.64,3.11,3.11,0,0,0,.1-.82,2.66,2.66,0,0,0-.11-.79,1.79,1.79,0,0,0-.34-.63,1.53,1.53,0,0,0-.55-.41,1.89,1.89,0,0,0-.77-.15,2.45,2.45,0,0,0-.5,0,1.52,1.52,0,0,0-.38.13,1.76,1.76,0,0,0-.3.19l-.27.23Z"/><path class="cls-6" d="M147.31,42.1a7.47,7.47,0,0,1-.23,2,3.66,3.66,0,0,1-.66,1.34,2.46,2.46,0,0,1-1,.75,4,4,0,0,1-2.67,0,2.51,2.51,0,0,1-1-.75,3.64,3.64,0,0,1-.67-1.34,7.43,7.43,0,0,1-.24-2V40.5a7.43,7.43,0,0,1,.23-2,3.55,3.55,0,0,1,.66-1.33,2.45,2.45,0,0,1,1-.74,4.07,4.07,0,0,1,2.67,0,2.44,2.44,0,0,1,1,.74,3.54,3.54,0,0,1,.66,1.33,7.43,7.43,0,0,1,.23,2Zm-1.66-1.86a6.41,6.41,0,0,0-.11-1.27,2.43,2.43,0,0,0-.31-.83,1.22,1.22,0,0,0-.5-.46,1.73,1.73,0,0,0-1.36,0,1.22,1.22,0,0,0-.5.46,2.43,2.43,0,0,0-.31.83,6.41,6.41,0,0,0-.11,1.27v2.1a6.37,6.37,0,0,0,.11,1.28,2.63,2.63,0,0,0,.31.85,1.27,1.27,0,0,0,.51.48,1.5,1.5,0,0,0,.68.15,1.48,1.48,0,0,0,.68-.15,1.25,1.25,0,0,0,.5-.48,2.57,2.57,0,0,0,.3-.85,6.8,6.8,0,0,0,.1-1.28Z"/><path class="cls-6" d="M154.46,37.1v1.8h1.31v1.23h-1.31v4.13a1.28,1.28,0,0,0,.05.41.53.53,0,0,0,.16.24.57.57,0,0,0,.24.12,1.53,1.53,0,0,0,.31,0l.33,0,.25,0v1.29l-.46.11a3.45,3.45,0,0,1-.63.05,2.54,2.54,0,0,1-.76-.11,1.52,1.52,0,0,1-.61-.36,1.66,1.66,0,0,1-.4-.64,2.87,2.87,0,0,1-.14-1V40.13h-1.22V38.9h1.22V37.1Z"/><path class="cls-6" d="M156.54,42.53a4.59,4.59,0,0,1,.24-1.49,3.54,3.54,0,0,1,.68-1.19,3.09,3.09,0,0,1,1.08-.79,3.47,3.47,0,0,1,1.44-.29,3.54,3.54,0,0,1,1.46.29,3.1,3.1,0,0,1,1.08.79,3.51,3.51,0,0,1,.67,1.19,4.62,4.62,0,0,1,.23,1.49v.14a4.65,4.65,0,0,1-.23,1.5,3.47,3.47,0,0,1-.67,1.19,3.08,3.08,0,0,1-1.08.79,3.85,3.85,0,0,1-2.9,0,3.06,3.06,0,0,1-1.08-.79,3.49,3.49,0,0,1-.68-1.19,4.63,4.63,0,0,1-.24-1.5Zm1.66.14a4.18,4.18,0,0,0,.1.94,2.36,2.36,0,0,0,.32.78,1.54,1.54,0,0,0,1.36.71,1.54,1.54,0,0,0,1.35-.71,2.47,2.47,0,0,0,.32-.78,4,4,0,0,0,.11-.94v-.14a3.94,3.94,0,0,0-.11-.93,2.42,2.42,0,0,0-.32-.77,1.68,1.68,0,0,0-.56-.53,1.57,1.57,0,0,0-.8-.2,1.53,1.53,0,0,0-.8.2,1.69,1.69,0,0,0-.55.53,2.37,2.37,0,0,0-.32.77,4.1,4.1,0,0,0-.1.93Z"/><path class="cls-6" d="M168.64,41.36l.54-5h5.35v1.44h-4l-.27,2.38a3.5,3.5,0,0,1,.64-.27,3,3,0,0,1,.92-.13,3.27,3.27,0,0,1,1.26.23,2.51,2.51,0,0,1,.94.67,3,3,0,0,1,.59,1.06,4.43,4.43,0,0,1,.21,1.4,4.1,4.1,0,0,1-.2,1.3,2.93,2.93,0,0,1-.61,1.05,2.85,2.85,0,0,1-1,.71,3.69,3.69,0,0,1-1.44.26,3.87,3.87,0,0,1-1.19-.18,3.08,3.08,0,0,1-1-.54,2.82,2.82,0,0,1-.72-.89,3,3,0,0,1-.32-1.22h1.61a1.75,1.75,0,0,0,.52,1.11,1.76,1.76,0,0,0,1.81.24,1.39,1.39,0,0,0,.51-.42,1.91,1.91,0,0,0,.3-.64,3.11,3.11,0,0,0,.1-.82,2.66,2.66,0,0,0-.11-.79,1.79,1.79,0,0,0-.34-.63,1.53,1.53,0,0,0-.55-.41,1.89,1.89,0,0,0-.77-.15,2.45,2.45,0,0,0-.5,0,1.52,1.52,0,0,0-.38.13,1.76,1.76,0,0,0-.3.19l-.27.23Z"/><path class="cls-6" d="M182.64,42.1a7.47,7.47,0,0,1-.23,2,3.66,3.66,0,0,1-.66,1.34,2.46,2.46,0,0,1-1,.75,4,4,0,0,1-2.67,0,2.51,2.51,0,0,1-1-.75,3.64,3.64,0,0,1-.67-1.34,7.43,7.43,0,0,1-.24-2V40.5a7.43,7.43,0,0,1,.23-2,3.55,3.55,0,0,1,.66-1.33,2.45,2.45,0,0,1,1-.74,4.07,4.07,0,0,1,2.67,0,2.44,2.44,0,0,1,1,.74,3.54,3.54,0,0,1,.66,1.33,7.43,7.43,0,0,1,.23,2ZM181,40.24a6.41,6.41,0,0,0-.11-1.27,2.43,2.43,0,0,0-.31-.83,1.22,1.22,0,0,0-.5-.46,1.73,1.73,0,0,0-1.36,0,1.22,1.22,0,0,0-.5.46,2.43,2.43,0,0,0-.31.83,6.41,6.41,0,0,0-.11,1.27v2.1a6.37,6.37,0,0,0,.11,1.28,2.63,2.63,0,0,0,.31.85,1.27,1.27,0,0,0,.51.48,1.5,1.5,0,0,0,.68.15,1.48,1.48,0,0,0,.68-.15,1.25,1.25,0,0,0,.5-.48,2.57,2.57,0,0,0,.3-.85,6.8,6.8,0,0,0,.1-1.28Z"/><path class="cls-6" d="M185.76,43.37a5.3,5.3,0,0,1,.06-.84,2.53,2.53,0,0,1,.19-.66,2.57,2.57,0,0,1,.34-.56,6.22,6.22,0,0,1,.52-.57l.43-.43a3.62,3.62,0,0,0,.36-.41,1.94,1.94,0,0,0,.24-.45,1.51,1.51,0,0,0,.09-.53,1.38,1.38,0,0,0-.32-1,1.22,1.22,0,0,0-.93-.34,1.68,1.68,0,0,0-.48.07,1.18,1.18,0,0,0-.42.22,1.12,1.12,0,0,0-.3.38,1.29,1.29,0,0,0-.11.56h-1.66a2.71,2.71,0,0,1,.24-1.13,2.33,2.33,0,0,1,.63-.82,2.71,2.71,0,0,1,.94-.5,3.88,3.88,0,0,1,1.17-.17,3.94,3.94,0,0,1,1.23.18,2.51,2.51,0,0,1,.92.52,2.19,2.19,0,0,1,.57.83,3,3,0,0,1,.2,1.11,2.41,2.41,0,0,1-.14.84,3.2,3.2,0,0,1-.38.73,5.24,5.24,0,0,1-.55.66l-.64.62a1.69,1.69,0,0,0-.5.75,3.23,3.23,0,0,0-.13.92Zm-.12,2.13a1,1,0,0,1,.06-.36.82.82,0,0,1,.18-.29.83.83,0,0,1,.29-.19,1.21,1.21,0,0,1,.8,0,.83.83,0,0,1,.29.19.87.87,0,0,1,.19.29,1,1,0,0,1,.06.36.87.87,0,0,1-.25.63.93.93,0,0,1-.7.25.91.91,0,0,1-.69-.25A.87.87,0,0,1,185.64,45.49Z"/><path class="cls-6" d="M55.69,72.63l1.53-7.49h1.72l-2.3,10H55l-1.89-7.27-1.93,7.27H49.5l-2.3-10h1.72l1.54,7.48,1.9-7.48h1.45Z"/><path class="cls-6" d="M61.68,68.5a2.75,2.75,0,0,1,.9-.69,2.62,2.62,0,0,1,1.16-.25,3.05,3.05,0,0,1,1,.15,1.85,1.85,0,0,1,.76.48,2.23,2.23,0,0,1,.49.86,4.22,4.22,0,0,1,.17,1.28v4.76H64.47V70.32a1.46,1.46,0,0,0-.33-1.08,1.36,1.36,0,0,0-1-.32,1.62,1.62,0,0,0-.89.24,1.77,1.77,0,0,0-.6.65v5.28H60V64.59h1.66Z"/><path class="cls-6" d="M72.23,75.09a1.41,1.41,0,0,1-.11-.31c0-.12-.06-.25-.08-.38a2.93,2.93,0,0,1-.37.32,2.52,2.52,0,0,1-.44.26,2.66,2.66,0,0,1-1.13.24,3,3,0,0,1-1-.17,2.37,2.37,0,0,1-.8-.46,2.16,2.16,0,0,1-.52-.7,2,2,0,0,1-.19-.87A2.35,2.35,0,0,1,67.8,72a2,2,0,0,1,.66-.77,3.13,3.13,0,0,1,1.06-.47,5.73,5.73,0,0,1,1.43-.16h1v-.49a1.3,1.3,0,0,0-.32-.92,1.28,1.28,0,0,0-1-.34,1.69,1.69,0,0,0-.53.08,1.3,1.3,0,0,0-.41.21,1,1,0,0,0-.26.32.87.87,0,0,0-.09.4H67.73a1.78,1.78,0,0,1,.21-.84,2.3,2.3,0,0,1,.61-.72,3.1,3.1,0,0,1,1-.51,3.9,3.9,0,0,1,1.26-.19,4,4,0,0,1,1.15.16,2.62,2.62,0,0,1,.91.48,2.17,2.17,0,0,1,.59.79,2.72,2.72,0,0,1,.21,1.11v3.28A3.77,3.77,0,0,0,73.93,75v.12Zm-1.83-1.2a1.86,1.86,0,0,0,.54-.08,1.9,1.9,0,0,0,.45-.2,1.67,1.67,0,0,0,.35-.28A1.6,1.6,0,0,0,72,73V71.62h-.9a2.45,2.45,0,0,0-1.39.32,1,1,0,0,0-.46.91,1.12,1.12,0,0,0,.08.42.88.88,0,0,0,.23.33,1,1,0,0,0,.37.22A1.46,1.46,0,0,0,70.41,73.9Z"/><path class="cls-6" d="M77.47,65.9v1.8h1.31v1.23H77.47v4.13a1.25,1.25,0,0,0,.05.41.53.53,0,0,0,.16.24.57.57,0,0,0,.24.12,1.53,1.53,0,0,0,.31,0l.33,0,.25,0v1.29l-.46.11a3.44,3.44,0,0,1-.63.05,2.55,2.55,0,0,1-.76-.11,1.52,1.52,0,0,1-.61-.36,1.65,1.65,0,0,1-.4-.64,2.87,2.87,0,0,1-.14-1V68.93H74.59V67.7h1.22V65.9Z"/><path class="cls-6" d="M83.53,65.78a.89.89,0,0,1,.24-.64.92.92,0,0,1,.69-.25.93.93,0,0,1,.7.25.88.88,0,0,1,.25.64.86.86,0,0,1-.25.63.94.94,0,0,1-.7.25.93.93,0,0,1-.69-.25A.87.87,0,0,1,83.53,65.78Zm1.76,9.32H83.64V67.7H85.3Z"/><path class="cls-6" d="M91.25,73.08a.93.93,0,0,0-.06-.33.69.69,0,0,0-.23-.29,1.86,1.86,0,0,0-.48-.25,5.65,5.65,0,0,0-.81-.22,7.22,7.22,0,0,1-1.08-.31,3.37,3.37,0,0,1-.84-.45,2,2,0,0,1-.54-.62A1.68,1.68,0,0,1,87,69.8a1.92,1.92,0,0,1,.2-.86,2.13,2.13,0,0,1,.57-.71,2.85,2.85,0,0,1,.9-.49,3.65,3.65,0,0,1,1.19-.18,3.94,3.94,0,0,1,1.24.18,2.84,2.84,0,0,1,.93.5,2.14,2.14,0,0,1,.79,1.68H91.17a1.08,1.08,0,0,0-.08-.41,1,1,0,0,0-.25-.36,1.21,1.21,0,0,0-.41-.25,1.6,1.6,0,0,0-.56-.09,1.72,1.72,0,0,0-.55.08,1.23,1.23,0,0,0-.39.21.8.8,0,0,0-.23.29.84.84,0,0,0-.08.35.75.75,0,0,0,.07.33.66.66,0,0,0,.24.26,2,2,0,0,0,.47.21,6.69,6.69,0,0,0,.74.2,8.66,8.66,0,0,1,1.15.32,3.25,3.25,0,0,1,.86.45,1.82,1.82,0,0,1,.54.63,1.87,1.87,0,0,1,.18.86,1.94,1.94,0,0,1-.21.9,2.09,2.09,0,0,1-.61.71,3,3,0,0,1-.95.46,4.32,4.32,0,0,1-1.23.16A3.9,3.9,0,0,1,88.55,75a3.09,3.09,0,0,1-1-.56,2.36,2.36,0,0,1-.6-.79,2.15,2.15,0,0,1-.2-.9h1.61a1.26,1.26,0,0,0,.16.57,1.14,1.14,0,0,0,.35.38,1.47,1.47,0,0,0,.48.21,2.31,2.31,0,0,0,.55.06,1.68,1.68,0,0,0,1-.25A.77.77,0,0,0,91.25,73.08Z"/><path class="cls-6" d="M99.9,65.9v1.8h1.31v1.23H99.9v4.13a1.25,1.25,0,0,0,.05.41.53.53,0,0,0,.16.24.57.57,0,0,0,.24.12,1.53,1.53,0,0,0,.31,0l.33,0,.25,0v1.29l-.46.11a3.44,3.44,0,0,1-.63.05,2.55,2.55,0,0,1-.76-.11,1.52,1.52,0,0,1-.61-.36,1.65,1.65,0,0,1-.4-.64,2.87,2.87,0,0,1-.14-1V68.93H97V67.7h1.22V65.9Z"/><path class="cls-6" d="M104.11,68.5a2.75,2.75,0,0,1,.9-.69,2.62,2.62,0,0,1,1.16-.25,3.05,3.05,0,0,1,1,.15,1.85,1.85,0,0,1,.76.48,2.23,2.23,0,0,1,.49.86,4.22,4.22,0,0,1,.17,1.28v4.76H106.9V70.32a1.46,1.46,0,0,0-.33-1.08,1.36,1.36,0,0,0-1-.32,1.62,1.62,0,0,0-.89.24,1.77,1.77,0,0,0-.6.65v5.28h-1.66V64.59h1.66Z"/><path class="cls-6" d="M113.5,75.23A3.8,3.8,0,0,1,112,75a3.24,3.24,0,0,1-1.11-.75,3.29,3.29,0,0,1-.7-1.13,4,4,0,0,1-.25-1.42v-.27a4.56,4.56,0,0,1,.26-1.58,3.62,3.62,0,0,1,.71-1.2,3.15,3.15,0,0,1,1.06-.77,3.23,3.23,0,0,1,1.32-.27,3.37,3.37,0,0,1,1.4.27,2.65,2.65,0,0,1,1,.76,3.25,3.25,0,0,1,.58,1.16,5.36,5.36,0,0,1,.19,1.47v.71h-4.83a2.65,2.65,0,0,0,.18.79,2,2,0,0,0,.4.63,1.84,1.84,0,0,0,.6.41,1.94,1.94,0,0,0,.78.15,2.21,2.21,0,0,0,1.07-.25,2.51,2.51,0,0,0,.79-.68l.9.85a3,3,0,0,1-.44.52,3,3,0,0,1-.62.45,3.6,3.6,0,0,1-.8.31A3.87,3.87,0,0,1,113.5,75.23Zm-.2-6.34a1.4,1.4,0,0,0-1.1.48,2.48,2.48,0,0,0-.54,1.33h3.17v-.12a3,3,0,0,0-.11-.63,1.6,1.6,0,0,0-.26-.54A1.27,1.27,0,0,0,114,69,1.56,1.56,0,0,0,113.3,68.89Z"/><path class="cls-6" d="M125.11,69.21l-.33,0h-.35a1.83,1.83,0,0,0-1,.23,1.42,1.42,0,0,0-.56.64v5.06h-1.66V67.7h1.59l0,.83a2.16,2.16,0,0,1,.69-.71,1.82,1.82,0,0,1,1-.26l.32,0a1.28,1.28,0,0,1,.26.06Z"/><path class="cls-6" d="M129.3,75.23a3.8,3.8,0,0,1-1.48-.27,3.25,3.25,0,0,1-1.11-.75,3.29,3.29,0,0,1-.7-1.13,4,4,0,0,1-.25-1.42v-.27A4.58,4.58,0,0,1,126,69.8a3.62,3.62,0,0,1,.71-1.2,3.14,3.14,0,0,1,1.06-.77,3.22,3.22,0,0,1,1.32-.27,3.37,3.37,0,0,1,1.4.27,2.65,2.65,0,0,1,1,.76,3.25,3.25,0,0,1,.58,1.16,5.32,5.32,0,0,1,.19,1.47v.71h-4.83a2.62,2.62,0,0,0,.18.79,1.93,1.93,0,0,0,.4.63,1.84,1.84,0,0,0,.6.41,1.93,1.93,0,0,0,.78.15,2.21,2.21,0,0,0,1.07-.25,2.51,2.51,0,0,0,.79-.68l.9.85a3.05,3.05,0,0,1-1.06,1,3.6,3.6,0,0,1-.8.31A3.87,3.87,0,0,1,129.3,75.23Zm-.2-6.34a1.39,1.39,0,0,0-1.1.48,2.47,2.47,0,0,0-.54,1.33h3.17v-.12a3,3,0,0,0-.11-.63,1.6,1.6,0,0,0-.26-.54,1.26,1.26,0,0,0-.46-.38A1.56,1.56,0,0,0,129.1,68.89Z"/><path class="cls-6" d="M135.11,67.7l0,.77a2.55,2.55,0,0,1,.9-.67,3,3,0,0,1,1.23-.24,2.64,2.64,0,0,1,1.21.27,1.82,1.82,0,0,1,.82.87,2.65,2.65,0,0,1,2.27-1.13,3.14,3.14,0,0,1,1,.15,1.84,1.84,0,0,1,.76.48,2.23,2.23,0,0,1,.48.85A4.12,4.12,0,0,1,144,70.3v4.79h-1.66v-4.8a2.1,2.1,0,0,0-.09-.67,1,1,0,0,0-.27-.42,1,1,0,0,0-.42-.22,2.25,2.25,0,0,0-.55-.06,1.38,1.38,0,0,0-.93.3,1.6,1.6,0,0,0-.5.8s0,0,0,.07a.6.6,0,0,1,0,.07v4.93H138V70.31a2,2,0,0,0-.09-.66,1,1,0,0,0-.69-.67,2,2,0,0,0-.55-.07,1.62,1.62,0,0,0-.88.22,1.49,1.49,0,0,0-.54.59v5.36h-1.66V67.7Z"/><path class="cls-6" d="M150.15,75.09a1.36,1.36,0,0,1-.11-.31c0-.12-.06-.25-.08-.38a2.93,2.93,0,0,1-.37.32,2.54,2.54,0,0,1-.44.26,2.76,2.76,0,0,1-.53.18,2.72,2.72,0,0,1-.6.06,3,3,0,0,1-1-.17,2.38,2.38,0,0,1-.8-.46,2.16,2.16,0,0,1-.52-.7,2,2,0,0,1-.19-.87,2.35,2.35,0,0,1,.23-1.05,2,2,0,0,1,.66-.77,3.14,3.14,0,0,1,1.06-.47,5.74,5.74,0,0,1,1.43-.16h1v-.49a1.3,1.3,0,0,0-.32-.92,1.28,1.28,0,0,0-1-.34,1.69,1.69,0,0,0-.53.08,1.31,1.31,0,0,0-.41.21,1,1,0,0,0-.26.32.89.89,0,0,0-.09.4h-1.66a1.77,1.77,0,0,1,.22-.84,2.29,2.29,0,0,1,.61-.72,3.11,3.11,0,0,1,1-.51,3.89,3.89,0,0,1,1.26-.19,3.94,3.94,0,0,1,1.15.16,2.61,2.61,0,0,1,.91.48,2.17,2.17,0,0,1,.59.79,2.71,2.71,0,0,1,.21,1.11v3.28a3.79,3.79,0,0,0,.28,1.59v.12Zm-1.83-1.2a1.87,1.87,0,0,0,.54-.08,1.93,1.93,0,0,0,.45-.2,1.68,1.68,0,0,0,.35-.28,1.56,1.56,0,0,0,.24-.32V71.62H149a2.45,2.45,0,0,0-1.39.32,1,1,0,0,0-.46.91,1.14,1.14,0,0,0,.08.42.88.88,0,0,0,.23.33,1,1,0,0,0,.37.22A1.45,1.45,0,0,0,148.33,73.9Z"/><path class="cls-6" d="M153.31,65.78a.88.88,0,0,1,.24-.64.91.91,0,0,1,.69-.25.93.93,0,0,1,.7.25.88.88,0,0,1,.25.64.86.86,0,0,1-.25.63.94.94,0,0,1-.7.25.92.92,0,0,1-.69-.25A.86.86,0,0,1,153.31,65.78Zm1.76,9.32h-1.66V67.7h1.66Z"/><path class="cls-6" d="M158.42,67.7l0,.85a2.71,2.71,0,0,1,.94-.73,2.8,2.8,0,0,1,1.22-.26,3,3,0,0,1,1,.15,1.79,1.79,0,0,1,.74.48,2.2,2.2,0,0,1,.47.85,4.23,4.23,0,0,1,.17,1.28v4.78h-1.66V70.3a2.12,2.12,0,0,0-.08-.65,1.06,1.06,0,0,0-.25-.43,1,1,0,0,0-.41-.24,2,2,0,0,0-.56-.07,1.6,1.6,0,0,0-.89.25,1.78,1.78,0,0,0-.61.66v5.26h-1.66V67.7Z"/><path class="cls-6" d="M164.36,71.34a5.51,5.51,0,0,1,.2-1.54,3.62,3.62,0,0,1,.58-1.2,2.59,2.59,0,0,1,2.14-1,2.6,2.6,0,0,1,1.08.21,2.4,2.4,0,0,1,.82.61V64.59h1.66v10.5h-1.5l-.08-.77a2.47,2.47,0,0,1-.84.67,2.59,2.59,0,0,1-1.14.24,2.55,2.55,0,0,1-1.21-.28,2.74,2.74,0,0,1-.91-.78,3.72,3.72,0,0,1-.58-1.19,5.21,5.21,0,0,1-.21-1.49Zm1.66.14a4.51,4.51,0,0,0,.09.93,2.41,2.41,0,0,0,.29.76,1.51,1.51,0,0,0,.52.52,1.47,1.47,0,0,0,.77.19,1.57,1.57,0,0,0,.92-.25,1.79,1.79,0,0,0,.57-.66V69.81a1.69,1.69,0,0,0-.57-.65,1.6,1.6,0,0,0-.9-.24,1.47,1.47,0,0,0-.77.19,1.55,1.55,0,0,0-.52.52,2.46,2.46,0,0,0-.3.77,4.45,4.45,0,0,0-.1.94Z"/><path class="cls-6" d="M175.83,75.23a3.8,3.8,0,0,1-1.48-.27,3.25,3.25,0,0,1-1.11-.75,3.29,3.29,0,0,1-.7-1.13,4,4,0,0,1-.25-1.42v-.27a4.58,4.58,0,0,1,.26-1.58,3.62,3.62,0,0,1,.71-1.2,3.14,3.14,0,0,1,1.06-.77,3.22,3.22,0,0,1,1.32-.27,3.37,3.37,0,0,1,1.4.27,2.65,2.65,0,0,1,1,.76,3.25,3.25,0,0,1,.58,1.16,5.32,5.32,0,0,1,.19,1.47v.71H174a2.62,2.62,0,0,0,.18.79,1.93,1.93,0,0,0,.4.63,1.84,1.84,0,0,0,.6.41,1.93,1.93,0,0,0,.78.15,2.21,2.21,0,0,0,1.07-.25,2.51,2.51,0,0,0,.79-.68l.9.85a3.05,3.05,0,0,1-1.06,1,3.6,3.6,0,0,1-.8.31A3.87,3.87,0,0,1,175.83,75.23Zm-.2-6.34a1.39,1.39,0,0,0-1.1.48A2.47,2.47,0,0,0,174,70.7h3.17v-.12a3,3,0,0,0-.11-.63,1.6,1.6,0,0,0-.26-.54,1.26,1.26,0,0,0-.46-.38A1.56,1.56,0,0,0,175.63,68.89Z"/><path class="cls-6" d="M184,69.21l-.33,0h-.35a1.83,1.83,0,0,0-1,.23,1.42,1.42,0,0,0-.56.64v5.06h-1.66V67.7h1.59l0,.83a2.16,2.16,0,0,1,.69-.71,1.82,1.82,0,0,1,1-.26l.32,0a1.28,1.28,0,0,1,.26.06Z"/><path class="cls-6" d="M195,72.8l1.18-5.11h1.62l-2,7.4H194.4L192.81,70l-1.56,5.08h-1.37l-2-7.4h1.62l1.2,5.05,1.52-5.05h1.25Z"/><path class="cls-6" d="M200.53,68.5a2.75,2.75,0,0,1,.9-.69,2.63,2.63,0,0,1,1.16-.25,3,3,0,0,1,1,.15,1.85,1.85,0,0,1,.76.48,2.21,2.21,0,0,1,.49.86,4.19,4.19,0,0,1,.17,1.28v4.76h-1.66V70.32a1.46,1.46,0,0,0-.33-1.08,1.36,1.36,0,0,0-1-.32,1.62,1.62,0,0,0-.89.24,1.77,1.77,0,0,0-.6.65v5.28h-1.66V64.59h1.66Z"/><path class="cls-6" d="M209.93,75.23a3.8,3.8,0,0,1-1.48-.27,3.25,3.25,0,0,1-1.11-.75,3.29,3.29,0,0,1-.7-1.13,4,4,0,0,1-.25-1.42v-.27a4.58,4.58,0,0,1,.26-1.58,3.62,3.62,0,0,1,.71-1.2,3.14,3.14,0,0,1,1.06-.77,3.22,3.22,0,0,1,1.32-.27,3.37,3.37,0,0,1,1.4.27,2.65,2.65,0,0,1,1,.76,3.25,3.25,0,0,1,.58,1.16,5.32,5.32,0,0,1,.19,1.47v.71h-4.83a2.62,2.62,0,0,0,.18.79,1.93,1.93,0,0,0,.4.63,1.84,1.84,0,0,0,.6.41,1.93,1.93,0,0,0,.78.15,2.21,2.21,0,0,0,1.07-.25,2.51,2.51,0,0,0,.79-.68l.9.85a3.05,3.05,0,0,1-1.06,1,3.6,3.6,0,0,1-.8.31A3.87,3.87,0,0,1,209.93,75.23Zm-.2-6.34a1.39,1.39,0,0,0-1.1.48,2.47,2.47,0,0,0-.54,1.33h3.17v-.12a3,3,0,0,0-.11-.63,1.6,1.6,0,0,0-.26-.54,1.26,1.26,0,0,0-.46-.38A1.56,1.56,0,0,0,209.73,68.89Z"/><path class="cls-6" d="M215.72,67.7l0,.85a2.71,2.71,0,0,1,.94-.73,2.8,2.8,0,0,1,1.22-.26,3,3,0,0,1,1,.15,1.79,1.79,0,0,1,.74.48,2.2,2.2,0,0,1,.47.85,4.23,4.23,0,0,1,.17,1.28v4.78h-1.66V70.3a2.12,2.12,0,0,0-.08-.65,1.06,1.06,0,0,0-.25-.43,1,1,0,0,0-.41-.24,2,2,0,0,0-.56-.07,1.6,1.6,0,0,0-.89.25,1.78,1.78,0,0,0-.61.66v5.26h-1.66V67.7Z"/><path class="cls-6" d="M54.24,80.47l-4,9H48.52l4-8.62H47.34V79.55h6.9Z"/><path class="cls-6" d="M62.2,80.47l-4,9H56.48l4-8.62H55.3V79.55h6.9Z"/><path class="cls-6" d="M69.2,80.3v1.8h1.31v1.23H69.2v4.13a1.25,1.25,0,0,0,.05.41.53.53,0,0,0,.16.24.57.57,0,0,0,.24.12,1.53,1.53,0,0,0,.31,0l.33,0,.25,0v1.29l-.46.11a3.44,3.44,0,0,1-.63.05,2.55,2.55,0,0,1-.76-.11,1.52,1.52,0,0,1-.61-.36,1.65,1.65,0,0,1-.4-.64,2.87,2.87,0,0,1-.14-1V83.33H66.33V82.1h1.22V80.3Z"/><path class="cls-6" d="M71.78,80.18a.89.89,0,0,1,.24-.64.92.92,0,0,1,.69-.25.93.93,0,0,1,.7.25.88.88,0,0,1,.25.64.86.86,0,0,1-.25.63.94.94,0,0,1-.7.25.93.93,0,0,1-.69-.25A.87.87,0,0,1,71.78,80.18Zm1.76,9.32H71.88V82.1h1.66Z"/><path class="cls-6" d="M76.92,82.1l0,.77a2.55,2.55,0,0,1,.9-.67A3,3,0,0,1,79.1,82a2.64,2.64,0,0,1,1.21.27,1.82,1.82,0,0,1,.82.87A2.65,2.65,0,0,1,83.4,82a3.14,3.14,0,0,1,1,.15,1.83,1.83,0,0,1,.76.48,2.21,2.21,0,0,1,.48.85,4.09,4.09,0,0,1,.17,1.25V89.5H84.17V84.7a2.07,2.07,0,0,0-.09-.67,1,1,0,0,0-.27-.42,1,1,0,0,0-.42-.22,2.24,2.24,0,0,0-.55-.06,1.39,1.39,0,0,0-.93.3,1.61,1.61,0,0,0-.5.8s0,0,0,.07a.6.6,0,0,1,0,.07V89.5H79.76V84.72a2,2,0,0,0-.09-.66,1.05,1.05,0,0,0-.27-.43A1,1,0,0,0,79,83.4a2,2,0,0,0-.55-.07,1.62,1.62,0,0,0-.88.22,1.48,1.48,0,0,0-.54.59V89.5H75.35V82.1Z"/><path class="cls-6" d="M90.79,89.64a3.8,3.8,0,0,1-1.48-.27,3.24,3.24,0,0,1-1.11-.75,3.29,3.29,0,0,1-.7-1.13,4,4,0,0,1-.25-1.42v-.27a4.56,4.56,0,0,1,.26-1.58,3.62,3.62,0,0,1,.71-1.2,3.15,3.15,0,0,1,1.06-.77A3.23,3.23,0,0,1,90.6,82a3.37,3.37,0,0,1,1.4.27A2.65,2.65,0,0,1,93,83a3.25,3.25,0,0,1,.58,1.16,5.36,5.36,0,0,1,.19,1.47v.71H88.93a2.65,2.65,0,0,0,.18.79,2,2,0,0,0,.4.63,1.84,1.84,0,0,0,.6.41,1.94,1.94,0,0,0,.78.15A2.21,2.21,0,0,0,92,88.06a2.51,2.51,0,0,0,.79-.68l.9.85a3,3,0,0,1-.44.52,3,3,0,0,1-.62.45,3.6,3.6,0,0,1-.8.31A3.87,3.87,0,0,1,90.79,89.64Zm-.2-6.34a1.4,1.4,0,0,0-1.1.48A2.48,2.48,0,0,0,89,85.11h3.17V85a3,3,0,0,0-.11-.63,1.6,1.6,0,0,0-.26-.54,1.27,1.27,0,0,0-.46-.38A1.56,1.56,0,0,0,90.59,83.3Z"/><path class="cls-6" d="M99.19,87.49a.93.93,0,0,0-.06-.33.69.69,0,0,0-.23-.29,1.86,1.86,0,0,0-.48-.25,5.65,5.65,0,0,0-.81-.22,7.22,7.22,0,0,1-1.08-.31,3.37,3.37,0,0,1-.84-.45,2,2,0,0,1-.54-.62,1.68,1.68,0,0,1-.19-.82,1.92,1.92,0,0,1,.2-.86,2.13,2.13,0,0,1,.57-.71,2.85,2.85,0,0,1,.9-.49A3.65,3.65,0,0,1,97.81,82a3.94,3.94,0,0,1,1.24.18,2.84,2.84,0,0,1,.93.5,2.14,2.14,0,0,1,.79,1.68H99.11a1.08,1.08,0,0,0-.08-.41,1,1,0,0,0-.25-.36,1.21,1.21,0,0,0-.41-.25,1.6,1.6,0,0,0-.56-.09,1.72,1.72,0,0,0-.55.08,1.23,1.23,0,0,0-.39.21.8.8,0,0,0-.23.29.84.84,0,0,0-.08.35.75.75,0,0,0,.07.33.66.66,0,0,0,.24.26,2,2,0,0,0,.47.21,6.69,6.69,0,0,0,.74.2,8.66,8.66,0,0,1,1.15.32,3.25,3.25,0,0,1,.86.45,1.82,1.82,0,0,1,.54.63,1.87,1.87,0,0,1,.18.86,1.94,1.94,0,0,1-.21.9A2.09,2.09,0,0,1,100,89a3,3,0,0,1-.95.46,4.32,4.32,0,0,1-1.23.16,3.9,3.9,0,0,1-1.34-.21,3.09,3.09,0,0,1-1-.56,2.36,2.36,0,0,1-.6-.79,2.15,2.15,0,0,1-.2-.9h1.61a1.26,1.26,0,0,0,.16.57,1.14,1.14,0,0,0,.35.38,1.47,1.47,0,0,0,.48.21,2.31,2.31,0,0,0,.55.06,1.68,1.68,0,0,0,1-.25A.77.77,0,0,0,99.19,87.49Z"/><path class="cls-6" d="M111.92,82.17a2.32,2.32,0,0,1-.38,1.3,2.62,2.62,0,0,1-1,.9,3.23,3.23,0,0,1,.67.41,2.6,2.6,0,0,1,.51.55A2.48,2.48,0,0,1,112,86a2.62,2.62,0,0,1,.11.78,2.89,2.89,0,0,1-.25,1.23,2.53,2.53,0,0,1-.68.89,3,3,0,0,1-1,.55,4.61,4.61,0,0,1-2.58,0,3,3,0,0,1-1-.55,2.55,2.55,0,0,1-.69-.89,2.86,2.86,0,0,1-.25-1.23,2.62,2.62,0,0,1,.11-.78,2.53,2.53,0,0,1,.32-.67,2.6,2.6,0,0,1,.51-.55,2.93,2.93,0,0,1,.67-.41,2.6,2.6,0,0,1-1-.9,2.33,2.33,0,0,1-.37-1.3,2.92,2.92,0,0,1,.23-1.18,2.41,2.41,0,0,1,.63-.87,2.7,2.7,0,0,1,1-.53,4.2,4.2,0,0,1,2.44,0,2.71,2.71,0,0,1,1,.53,2.42,2.42,0,0,1,.63.87A2.92,2.92,0,0,1,111.92,82.17Zm-1.44,4.53a1.87,1.87,0,0,0-.12-.67,1.5,1.5,0,0,0-.33-.52,1.43,1.43,0,0,0-.51-.34,1.89,1.89,0,0,0-1.32,0,1.41,1.41,0,0,0-.5.34,1.49,1.49,0,0,0-.32.52,1.92,1.92,0,0,0-.11.67,1.88,1.88,0,0,0,.11.67,1.41,1.41,0,0,0,.32.51,1.38,1.38,0,0,0,.51.32,1.92,1.92,0,0,0,.67.11,1.58,1.58,0,0,0,1.17-.42A1.61,1.61,0,0,0,110.48,86.7Zm-.21-4.47a1.75,1.75,0,0,0-.1-.6,1.41,1.41,0,0,0-.28-.47,1.22,1.22,0,0,0-.44-.31,1.46,1.46,0,0,0-.57-.11,1.3,1.3,0,0,0-1,.4,1.55,1.55,0,0,0-.37,1.09,1.85,1.85,0,0,0,.1.61,1.32,1.32,0,0,0,.27.47,1.18,1.18,0,0,0,.43.3,1.62,1.62,0,0,0,1.16,0,1.19,1.19,0,0,0,.43-.3,1.35,1.35,0,0,0,.27-.47A1.88,1.88,0,0,0,110.27,82.23Z"/><path class="cls-6" d="M119.88,82.17a2.32,2.32,0,0,1-.38,1.3,2.62,2.62,0,0,1-1,.9,3.23,3.23,0,0,1,.67.41,2.6,2.6,0,0,1,.51.55A2.48,2.48,0,0,1,120,86a2.62,2.62,0,0,1,.11.78,2.89,2.89,0,0,1-.25,1.23,2.53,2.53,0,0,1-.68.89,3,3,0,0,1-1,.55,4.61,4.61,0,0,1-2.58,0,3,3,0,0,1-1-.55,2.55,2.55,0,0,1-.69-.89,2.86,2.86,0,0,1-.25-1.23,2.62,2.62,0,0,1,.11-.78,2.53,2.53,0,0,1,.32-.67,2.6,2.6,0,0,1,.51-.55,2.93,2.93,0,0,1,.67-.41,2.6,2.6,0,0,1-1-.9,2.33,2.33,0,0,1-.37-1.3A2.92,2.92,0,0,1,114,81a2.41,2.41,0,0,1,.63-.87,2.7,2.7,0,0,1,1-.53,4.2,4.2,0,0,1,2.44,0,2.71,2.71,0,0,1,1,.53,2.42,2.42,0,0,1,.63.87A2.92,2.92,0,0,1,119.88,82.17Zm-1.44,4.53a1.87,1.87,0,0,0-.12-.67,1.5,1.5,0,0,0-.33-.52,1.43,1.43,0,0,0-.51-.34,1.89,1.89,0,0,0-1.32,0,1.41,1.41,0,0,0-.5.34,1.49,1.49,0,0,0-.32.52,1.92,1.92,0,0,0-.11.67,1.88,1.88,0,0,0,.11.67,1.41,1.41,0,0,0,.32.51,1.38,1.38,0,0,0,.51.32,1.92,1.92,0,0,0,.67.11,1.58,1.58,0,0,0,1.17-.42A1.61,1.61,0,0,0,118.44,86.7Zm-.21-4.47a1.75,1.75,0,0,0-.1-.6,1.41,1.41,0,0,0-.28-.47,1.22,1.22,0,0,0-.44-.31,1.46,1.46,0,0,0-.57-.11,1.3,1.3,0,0,0-1,.4,1.55,1.55,0,0,0-.37,1.09,1.85,1.85,0,0,0,.1.61,1.32,1.32,0,0,0,.27.47,1.18,1.18,0,0,0,.43.3,1.62,1.62,0,0,0,1.16,0,1.19,1.19,0,0,0,.43-.3,1.35,1.35,0,0,0,.27-.47A1.88,1.88,0,0,0,118.23,82.23Z"/><path class="cls-6" d="M125.16,80.18a.88.88,0,0,1,.24-.64.91.91,0,0,1,.69-.25.93.93,0,0,1,.7.25.88.88,0,0,1,.25.64.86.86,0,0,1-.25.63.94.94,0,0,1-.7.25.92.92,0,0,1-.69-.25A.86.86,0,0,1,125.16,80.18Zm1.76,9.32h-1.66V82.1h1.66Z"/><path class="cls-6" d="M132.88,87.49a1,1,0,0,0-.06-.33.69.69,0,0,0-.23-.29,1.87,1.87,0,0,0-.48-.25,5.67,5.67,0,0,0-.81-.22,7.22,7.22,0,0,1-1.08-.31,3.37,3.37,0,0,1-.84-.45,2,2,0,0,1-.54-.62,1.69,1.69,0,0,1-.19-.82,1.93,1.93,0,0,1,.2-.86,2.13,2.13,0,0,1,.57-.71,2.85,2.85,0,0,1,.9-.49A3.65,3.65,0,0,1,131.5,82a4,4,0,0,1,1.24.18,2.83,2.83,0,0,1,.93.5,2.13,2.13,0,0,1,.79,1.68H132.8a1.08,1.08,0,0,0-.08-.41,1,1,0,0,0-.25-.36,1.21,1.21,0,0,0-.41-.25,1.6,1.6,0,0,0-.56-.09,1.73,1.73,0,0,0-.55.08,1.21,1.21,0,0,0-.39.21.8.8,0,0,0-.23.29.85.85,0,0,0-.08.35.75.75,0,0,0,.07.33.67.67,0,0,0,.24.26,2,2,0,0,0,.47.21,6.81,6.81,0,0,0,.74.2,8.68,8.68,0,0,1,1.15.32,3.28,3.28,0,0,1,.86.45,1.83,1.83,0,0,1,.54.63,1.87,1.87,0,0,1,.18.86,1.93,1.93,0,0,1-.21.9,2.1,2.1,0,0,1-.6.71,3,3,0,0,1-.95.46,4.32,4.32,0,0,1-1.23.16,3.9,3.9,0,0,1-1.34-.21,3.11,3.11,0,0,1-1-.56,2.34,2.34,0,0,1-.6-.79,2.14,2.14,0,0,1-.2-.9H130a1.28,1.28,0,0,0,.16.57,1.14,1.14,0,0,0,.35.38,1.48,1.48,0,0,0,.48.21,2.32,2.32,0,0,0,.55.06,1.67,1.67,0,0,0,1-.25A.77.77,0,0,0,132.88,87.49Z"/><path class="cls-6" d="M139.14,85.75a5.51,5.51,0,0,1,.2-1.54,3.62,3.62,0,0,1,.58-1.2,2.59,2.59,0,0,1,2.14-1,2.6,2.6,0,0,1,1.08.21,2.4,2.4,0,0,1,.82.61V79h1.66V89.5h-1.5l-.08-.77a2.47,2.47,0,0,1-.84.67,2.59,2.59,0,0,1-1.14.24,2.55,2.55,0,0,1-1.21-.28,2.74,2.74,0,0,1-.91-.78,3.72,3.72,0,0,1-.58-1.19,5.21,5.21,0,0,1-.21-1.49Zm1.66.14a4.51,4.51,0,0,0,.09.93,2.41,2.41,0,0,0,.29.76,1.51,1.51,0,0,0,.52.52,1.47,1.47,0,0,0,.77.19,1.57,1.57,0,0,0,.92-.25,1.79,1.79,0,0,0,.57-.66V84.21a1.69,1.69,0,0,0-.57-.65,1.6,1.6,0,0,0-.9-.24,1.47,1.47,0,0,0-.77.19,1.55,1.55,0,0,0-.52.52,2.46,2.46,0,0,0-.3.77,4.45,4.45,0,0,0-.1.94Z"/><path class="cls-6" d="M147.35,80.18a.88.88,0,0,1,.24-.64.91.91,0,0,1,.69-.25.93.93,0,0,1,.7.25.88.88,0,0,1,.25.64.86.86,0,0,1-.25.63.94.94,0,0,1-.7.25.92.92,0,0,1-.69-.25A.86.86,0,0,1,147.35,80.18Zm1.76,9.32h-1.66V82.1h1.66Z"/><path class="cls-6" d="M153.53,87.39l1.57-5.29h1.72l-2.56,7.4h-1.44l-2.58-7.4h1.72Z"/><path class="cls-6" d="M157.85,80.18a.88.88,0,0,1,.24-.64.91.91,0,0,1,.69-.25.93.93,0,0,1,.7.25.88.88,0,0,1,.25.64.86.86,0,0,1-.25.63.94.94,0,0,1-.7.25.92.92,0,0,1-.69-.25A.86.86,0,0,1,157.85,80.18Zm1.76,9.32H158V82.1h1.66Z"/><path class="cls-6" d="M161.11,85.75a5.51,5.51,0,0,1,.2-1.54,3.62,3.62,0,0,1,.58-1.2A2.59,2.59,0,0,1,164,82a2.6,2.6,0,0,1,1.08.21,2.4,2.4,0,0,1,.82.61V79h1.66V89.5h-1.5l-.08-.77a2.47,2.47,0,0,1-.84.67,2.59,2.59,0,0,1-1.14.24,2.55,2.55,0,0,1-1.21-.28,2.74,2.74,0,0,1-.91-.78,3.72,3.72,0,0,1-.58-1.19,5.21,5.21,0,0,1-.21-1.49Zm1.66.14a4.51,4.51,0,0,0,.09.93,2.41,2.41,0,0,0,.29.76,1.51,1.51,0,0,0,.52.52,1.47,1.47,0,0,0,.77.19,1.57,1.57,0,0,0,.92-.25,1.79,1.79,0,0,0,.57-.66V84.21a1.69,1.69,0,0,0-.57-.65,1.6,1.6,0,0,0-.9-.24,1.47,1.47,0,0,0-.77.19,1.55,1.55,0,0,0-.52.52,2.46,2.46,0,0,0-.3.77,4.46,4.46,0,0,0-.1.94Z"/><path class="cls-6" d="M172.58,89.64a3.8,3.8,0,0,1-1.48-.27,3.25,3.25,0,0,1-1.11-.75,3.29,3.29,0,0,1-.7-1.13,4,4,0,0,1-.25-1.42v-.27a4.58,4.58,0,0,1,.26-1.58A3.62,3.62,0,0,1,170,83a3.14,3.14,0,0,1,1.06-.77,3.22,3.22,0,0,1,1.32-.27,3.37,3.37,0,0,1,1.4.27,2.65,2.65,0,0,1,1,.76,3.25,3.25,0,0,1,.58,1.16,5.32,5.32,0,0,1,.19,1.47v.71h-4.83a2.62,2.62,0,0,0,.18.79,1.93,1.93,0,0,0,.4.63,1.84,1.84,0,0,0,.6.41,1.93,1.93,0,0,0,.78.15,2.21,2.21,0,0,0,1.07-.25,2.51,2.51,0,0,0,.79-.68l.9.85a3.05,3.05,0,0,1-1.06,1,3.6,3.6,0,0,1-.8.31A3.87,3.87,0,0,1,172.58,89.64Zm-.2-6.34a1.39,1.39,0,0,0-1.1.48,2.47,2.47,0,0,0-.54,1.33h3.17V85a3,3,0,0,0-.11-.63,1.6,1.6,0,0,0-.26-.54,1.26,1.26,0,0,0-.46-.38A1.56,1.56,0,0,0,172.39,83.3Z"/><path class="cls-6" d="M176.53,85.75a5.51,5.51,0,0,1,.2-1.54,3.62,3.62,0,0,1,.58-1.2,2.59,2.59,0,0,1,2.14-1,2.6,2.6,0,0,1,1.08.21,2.4,2.4,0,0,1,.82.61V79H183V89.5h-1.5l-.08-.77a2.47,2.47,0,0,1-.84.67,2.59,2.59,0,0,1-1.14.24,2.55,2.55,0,0,1-1.21-.28,2.74,2.74,0,0,1-.91-.78,3.72,3.72,0,0,1-.58-1.19,5.21,5.21,0,0,1-.21-1.49Zm1.66.14a4.51,4.51,0,0,0,.09.93,2.41,2.41,0,0,0,.29.76,1.51,1.51,0,0,0,.52.52,1.47,1.47,0,0,0,.77.19,1.57,1.57,0,0,0,.92-.25,1.79,1.79,0,0,0,.57-.66V84.21a1.69,1.69,0,0,0-.57-.65,1.6,1.6,0,0,0-.9-.24,1.47,1.47,0,0,0-.77.19,1.55,1.55,0,0,0-.52.52,2.46,2.46,0,0,0-.3.77,4.46,4.46,0,0,0-.1.94Z"/><path class="cls-6" d="M194.72,85.88a5.75,5.75,0,0,1-.19,1.51,3.65,3.65,0,0,1-.55,1.19,2.55,2.55,0,0,1-.9.78,2.94,2.94,0,0,1-2.42,0,2.37,2.37,0,0,1-.85-.69l-.08.8h-1.5V79h1.66v3.81a2.37,2.37,0,0,1,.82-.63,2.64,2.64,0,0,1,1.11-.22,2.71,2.71,0,0,1,1.26.28A2.54,2.54,0,0,1,194,83a3.55,3.55,0,0,1,.55,1.19,5.9,5.9,0,0,1,.18,1.52Zm-1.66-.14a5.19,5.19,0,0,0-.08-.92,2.3,2.3,0,0,0-.27-.77,1.48,1.48,0,0,0-.51-.52,1.5,1.5,0,0,0-.8-.19,1.62,1.62,0,0,0-1,.26,1.66,1.66,0,0,0-.57.69v3a1.72,1.72,0,0,0,.57.7,1.61,1.61,0,0,0,1,.27,1.4,1.4,0,0,0,1.28-.7,2.3,2.3,0,0,0,.28-.76,5.13,5.13,0,0,0,.08-.94Z"/><path class="cls-6" d="M198.67,87.12l1.5-5h1.77L199,90.62a5.43,5.43,0,0,1-.27.61,2.6,2.6,0,0,1-.44.6,2.29,2.29,0,0,1-.66.47,2.11,2.11,0,0,1-.93.19,2.32,2.32,0,0,1-.42,0l-.38-.08V91.08l.16,0h.15a2.54,2.54,0,0,0,.54-.05,1.13,1.13,0,0,0,.4-.17,1.1,1.1,0,0,0,.29-.31,2.1,2.1,0,0,0,.22-.47l.24-.64-2.6-7.36h1.79Z"/><path class="cls-6" d="M207.74,88.17a4.46,4.46,0,0,0,1.49-.22,2.56,2.56,0,0,0,1-.59,2.33,2.33,0,0,0,.55-.9,4.38,4.38,0,0,0,.22-1.12,3,3,0,0,1-.87.64,2.43,2.43,0,0,1-1.08.24,2.76,2.76,0,0,1-1.27-.27,2.64,2.64,0,0,1-.89-.73,3.11,3.11,0,0,1-.53-1.07,4.51,4.51,0,0,1-.17-1.26,4.13,4.13,0,0,1,.22-1.35,3.25,3.25,0,0,1,.63-1.1,2.94,2.94,0,0,1,1-.75,3.26,3.26,0,0,1,1.37-.27,2.91,2.91,0,0,1,2.45,1.2,4,4,0,0,1,.61,1.29,5.75,5.75,0,0,1,.21,1.55V84a10.29,10.29,0,0,1-.1,1.41,6.27,6.27,0,0,1-.32,1.31,4.81,4.81,0,0,1-.59,1.13,3.68,3.68,0,0,1-.91.9,4.35,4.35,0,0,1-1.28.59,6.17,6.17,0,0,1-1.7.21h-.14V88.17Zm1.65-3.25a1.61,1.61,0,0,0,.51-.08,1.79,1.79,0,0,0,.45-.23,1.82,1.82,0,0,0,.37-.34,2,2,0,0,0,.27-.43v-.65a3.86,3.86,0,0,0-.13-1.05,2.43,2.43,0,0,0-.35-.77,1.51,1.51,0,0,0-.52-.46,1.3,1.3,0,0,0-.62-.16,1.35,1.35,0,0,0-.67.16,1.47,1.47,0,0,0-.49.45,2.16,2.16,0,0,0-.3.66,3,3,0,0,0-.11.81,3.19,3.19,0,0,0,.1.79,2.1,2.1,0,0,0,.29.66,1.54,1.54,0,0,0,.49.46A1.38,1.38,0,0,0,209.39,84.92Z"/><path class="cls-6" d="M215.88,86.57a5.3,5.3,0,0,1,.06-.84,2.53,2.53,0,0,1,.19-.66,2.57,2.57,0,0,1,.34-.56,6.22,6.22,0,0,1,.52-.57l.43-.43a3.62,3.62,0,0,0,.36-.41,1.94,1.94,0,0,0,.24-.45,1.51,1.51,0,0,0,.09-.53,1.38,1.38,0,0,0-.32-1,1.22,1.22,0,0,0-.93-.34,1.68,1.68,0,0,0-.48.07,1.18,1.18,0,0,0-.42.22,1.12,1.12,0,0,0-.3.38,1.29,1.29,0,0,0-.11.56H213.9a2.71,2.71,0,0,1,.24-1.13,2.33,2.33,0,0,1,.63-.82,2.71,2.71,0,0,1,.94-.5,3.88,3.88,0,0,1,1.17-.17,3.94,3.94,0,0,1,1.23.18,2.51,2.51,0,0,1,.92.52,2.19,2.19,0,0,1,.57.83,3,3,0,0,1,.2,1.11,2.41,2.41,0,0,1-.14.84,3.2,3.2,0,0,1-.38.73,5.24,5.24,0,0,1-.55.66l-.64.62a1.69,1.69,0,0,0-.5.75,3.23,3.23,0,0,0-.13.92Zm-.12,2.13a1,1,0,0,1,.06-.36.82.82,0,0,1,.18-.29.83.83,0,0,1,.29-.19,1.21,1.21,0,0,1,.8,0,.83.83,0,0,1,.29.19.87.87,0,0,1,.19.29,1,1,0,0,1,.06.36.87.87,0,0,1-.25.63.93.93,0,0,1-.7.25.91.91,0,0,1-.69-.25A.87.87,0,0,1,215.77,88.7Z"/><path class="cls-6" d="M55.69,115.84l1.53-7.49h1.72l-2.3,10H55L53.09,111l-1.93,7.27H49.5l-2.3-10h1.72l1.54,7.48,1.9-7.48h1.45Z"/><path class="cls-6" d="M61.68,111.71a2.75,2.75,0,0,1,.9-.69,2.62,2.62,0,0,1,1.16-.25,3.05,3.05,0,0,1,1,.15,1.85,1.85,0,0,1,.76.48,2.23,2.23,0,0,1,.49.86,4.22,4.22,0,0,1,.17,1.28v4.76H64.47v-4.77a1.46,1.46,0,0,0-.33-1.08,1.36,1.36,0,0,0-1-.32,1.62,1.62,0,0,0-.89.24,1.77,1.77,0,0,0-.6.65v5.28H60V107.8h1.66Z"/><path class="cls-6" d="M72.23,118.3a1.41,1.41,0,0,1-.11-.31c0-.12-.06-.25-.08-.38a2.93,2.93,0,0,1-.37.32,2.52,2.52,0,0,1-.44.26,2.66,2.66,0,0,1-1.13.24,3,3,0,0,1-1-.17,2.37,2.37,0,0,1-.8-.46,2.16,2.16,0,0,1-.52-.7,2,2,0,0,1-.19-.87,2.35,2.35,0,0,1,.23-1.05,2,2,0,0,1,.66-.77,3.13,3.13,0,0,1,1.06-.47,5.73,5.73,0,0,1,1.43-.16h1v-.49a1.3,1.3,0,0,0-.32-.92,1.28,1.28,0,0,0-1-.34,1.69,1.69,0,0,0-.53.08,1.3,1.3,0,0,0-.41.21,1,1,0,0,0-.26.32.87.87,0,0,0-.09.4H67.73a1.78,1.78,0,0,1,.21-.84,2.3,2.3,0,0,1,.61-.72,3.1,3.1,0,0,1,1-.51,3.9,3.9,0,0,1,1.26-.19,4,4,0,0,1,1.15.16,2.62,2.62,0,0,1,.91.48,2.17,2.17,0,0,1,.59.79,2.72,2.72,0,0,1,.21,1.11v3.28a3.77,3.77,0,0,0,.28,1.59v.12Zm-1.83-1.2a1.86,1.86,0,0,0,.54-.08,1.9,1.9,0,0,0,.45-.2,1.67,1.67,0,0,0,.35-.28,1.6,1.6,0,0,0,.24-.32v-1.39h-.9a2.45,2.45,0,0,0-1.39.32,1,1,0,0,0-.46.91,1.12,1.12,0,0,0,.08.42.88.88,0,0,0,.23.33,1,1,0,0,0,.37.22A1.46,1.46,0,0,0,70.41,117.1Z"/><path class="cls-6" d="M77.47,109.1v1.8h1.31v1.23H77.47v4.13a1.25,1.25,0,0,0,.05.41.53.53,0,0,0,.16.24.57.57,0,0,0,.24.12,1.53,1.53,0,0,0,.31,0l.33,0,.25,0v1.29l-.46.11a3.44,3.44,0,0,1-.63.05,2.55,2.55,0,0,1-.76-.11,1.52,1.52,0,0,1-.61-.36,1.65,1.65,0,0,1-.4-.64,2.87,2.87,0,0,1-.14-1v-4.22H74.59V110.9h1.22v-1.8Z"/><path class="cls-6" d="M83.53,109a.89.89,0,0,1,.24-.64.92.92,0,0,1,.69-.25.93.93,0,0,1,.7.25.88.88,0,0,1,.25.64.86.86,0,0,1-.25.63.94.94,0,0,1-.7.25.93.93,0,0,1-.69-.25A.87.87,0,0,1,83.53,109Zm1.76,9.32H83.64v-7.4H85.3Z"/><path class="cls-6" d="M91.25,116.29a.93.93,0,0,0-.06-.33.69.69,0,0,0-.23-.29,1.86,1.86,0,0,0-.48-.25,5.65,5.65,0,0,0-.81-.22,7.22,7.22,0,0,1-1.08-.31,3.37,3.37,0,0,1-.84-.45,2,2,0,0,1-.54-.62A1.68,1.68,0,0,1,87,113a1.92,1.92,0,0,1,.2-.86,2.13,2.13,0,0,1,.57-.71,2.85,2.85,0,0,1,.9-.49,3.65,3.65,0,0,1,1.19-.18,3.94,3.94,0,0,1,1.24.18,2.84,2.84,0,0,1,.93.5,2.14,2.14,0,0,1,.79,1.68H91.17a1.08,1.08,0,0,0-.08-.41,1,1,0,0,0-.25-.36,1.21,1.21,0,0,0-.41-.25,1.6,1.6,0,0,0-.56-.09,1.72,1.72,0,0,0-.55.08,1.23,1.23,0,0,0-.39.21.8.8,0,0,0-.23.29.84.84,0,0,0-.08.35.75.75,0,0,0,.07.33.66.66,0,0,0,.24.26,2,2,0,0,0,.47.21,6.69,6.69,0,0,0,.74.2,8.66,8.66,0,0,1,1.15.32,3.25,3.25,0,0,1,.86.45,1.82,1.82,0,0,1,.54.63,1.87,1.87,0,0,1,.18.86,1.94,1.94,0,0,1-.21.9,2.09,2.09,0,0,1-.61.71,3,3,0,0,1-.95.46,4.32,4.32,0,0,1-1.23.16,3.9,3.9,0,0,1-1.34-.21,3.09,3.09,0,0,1-1-.56,2.36,2.36,0,0,1-.6-.79,2.15,2.15,0,0,1-.2-.9h1.61a1.26,1.26,0,0,0,.16.57,1.14,1.14,0,0,0,.35.38,1.47,1.47,0,0,0,.48.21,2.31,2.31,0,0,0,.55.06,1.68,1.68,0,0,0,1-.25A.77.77,0,0,0,91.25,116.29Z"/><path class="cls-6" d="M99.9,109.1v1.8h1.31v1.23H99.9v4.13a1.25,1.25,0,0,0,.05.41.53.53,0,0,0,.16.24.57.57,0,0,0,.24.12,1.53,1.53,0,0,0,.31,0l.33,0,.25,0v1.29l-.46.11a3.44,3.44,0,0,1-.63.05,2.55,2.55,0,0,1-.76-.11,1.52,1.52,0,0,1-.61-.36,1.65,1.65,0,0,1-.4-.64,2.87,2.87,0,0,1-.14-1v-4.22H97V110.9h1.22v-1.8Z"/><path class="cls-6" d="M104.11,111.71a2.75,2.75,0,0,1,.9-.69,2.62,2.62,0,0,1,1.16-.25,3.05,3.05,0,0,1,1,.15,1.85,1.85,0,0,1,.76.48,2.23,2.23,0,0,1,.49.86,4.22,4.22,0,0,1,.17,1.28v4.76H106.9v-4.77a1.46,1.46,0,0,0-.33-1.08,1.36,1.36,0,0,0-1-.32,1.62,1.62,0,0,0-.89.24,1.77,1.77,0,0,0-.6.65v5.28h-1.66V107.8h1.66Z"/><path class="cls-6" d="M113.5,118.43a3.8,3.8,0,0,1-1.48-.27,3.24,3.24,0,0,1-1.11-.75,3.29,3.29,0,0,1-.7-1.13,4,4,0,0,1-.25-1.42v-.27a4.56,4.56,0,0,1,.26-1.58,3.62,3.62,0,0,1,.71-1.2A3.15,3.15,0,0,1,112,111a3.23,3.23,0,0,1,1.32-.27,3.37,3.37,0,0,1,1.4.27,2.65,2.65,0,0,1,1,.76,3.25,3.25,0,0,1,.58,1.16,5.36,5.36,0,0,1,.19,1.47v.71h-4.83a2.65,2.65,0,0,0,.18.79,2,2,0,0,0,.4.63,1.84,1.84,0,0,0,.6.41,1.94,1.94,0,0,0,.78.15,2.21,2.21,0,0,0,1.07-.25,2.51,2.51,0,0,0,.79-.68l.9.85a3,3,0,0,1-.44.52,3,3,0,0,1-.62.45,3.6,3.6,0,0,1-.8.31A3.87,3.87,0,0,1,113.5,118.43Zm-.2-6.34a1.4,1.4,0,0,0-1.1.48,2.48,2.48,0,0,0-.54,1.33h3.17v-.12a3,3,0,0,0-.11-.63,1.6,1.6,0,0,0-.26-.54,1.27,1.27,0,0,0-.46-.38A1.56,1.56,0,0,0,113.3,112.1Z"/><path class="cls-6" d="M125.72,117.57a2.36,2.36,0,0,1-.86.64,3.35,3.35,0,0,1-2.21.07,1.92,1.92,0,0,1-.77-.48,2.23,2.23,0,0,1-.5-.86,3.89,3.89,0,0,1-.18-1.25V110.9h1.66v4.8a2,2,0,0,0,.1.67,1.14,1.14,0,0,0,.26.42.9.9,0,0,0,.37.23,1.51,1.51,0,0,0,.44.06,2,2,0,0,0,1-.23,1.48,1.48,0,0,0,.6-.64V110.9h1.66v7.4h-1.56Z"/><path class="cls-6" d="M130.56,110.9l0,.85a2.71,2.71,0,0,1,.94-.73,2.8,2.8,0,0,1,1.22-.26,3,3,0,0,1,1,.15,1.79,1.79,0,0,1,.74.48,2.2,2.2,0,0,1,.47.85,4.23,4.23,0,0,1,.17,1.28v4.78h-1.66V113.5a2.12,2.12,0,0,0-.08-.65,1.06,1.06,0,0,0-.25-.43,1,1,0,0,0-.41-.24,2,2,0,0,0-.56-.07,1.6,1.6,0,0,0-.89.25,1.78,1.78,0,0,0-.61.66v5.26H129v-7.4Z"/><path class="cls-6" d="M136.81,109a.88.88,0,0,1,.24-.64.91.91,0,0,1,.69-.25.93.93,0,0,1,.7.25.88.88,0,0,1,.25.64.86.86,0,0,1-.25.63.94.94,0,0,1-.7.25.92.92,0,0,1-.69-.25A.86.86,0,0,1,136.81,109Zm1.76,9.32h-1.66v-7.4h1.66Z"/><path class="cls-6" d="M142.47,109.1v1.8h1.31v1.23h-1.31v4.13a1.28,1.28,0,0,0,.05.41.53.53,0,0,0,.16.24.57.57,0,0,0,.24.12,1.53,1.53,0,0,0,.31,0l.33,0,.25,0v1.29l-.46.11a3.45,3.45,0,0,1-.63.05,2.54,2.54,0,0,1-.76-.11,1.52,1.52,0,0,1-.61-.36,1.66,1.66,0,0,1-.4-.64,2.87,2.87,0,0,1-.14-1v-4.22h-1.22V110.9h1.22v-1.8Z"/><path class="cls-6" d="M149.18,116.29a1,1,0,0,0-.06-.33.69.69,0,0,0-.23-.29,1.87,1.87,0,0,0-.48-.25,5.67,5.67,0,0,0-.81-.22,7.22,7.22,0,0,1-1.08-.31,3.37,3.37,0,0,1-.84-.45,2,2,0,0,1-.54-.62,1.69,1.69,0,0,1-.19-.82,1.93,1.93,0,0,1,.2-.86,2.13,2.13,0,0,1,.57-.71,2.85,2.85,0,0,1,.9-.49,3.65,3.65,0,0,1,1.19-.18,4,4,0,0,1,1.24.18,2.83,2.83,0,0,1,.93.5,2.13,2.13,0,0,1,.79,1.68H149.1a1.08,1.08,0,0,0-.08-.41,1,1,0,0,0-.25-.36,1.21,1.21,0,0,0-.41-.25,1.6,1.6,0,0,0-.56-.09,1.73,1.73,0,0,0-.55.08,1.21,1.21,0,0,0-.39.21.8.8,0,0,0-.23.29.85.85,0,0,0-.08.35.75.75,0,0,0,.07.33.67.67,0,0,0,.24.26,2,2,0,0,0,.47.21,6.81,6.81,0,0,0,.74.2,8.68,8.68,0,0,1,1.15.32,3.28,3.28,0,0,1,.86.45,1.83,1.83,0,0,1,.54.63,1.87,1.87,0,0,1,.18.86,1.93,1.93,0,0,1-.21.9,2.1,2.1,0,0,1-.6.71,3,3,0,0,1-.95.46,4.32,4.32,0,0,1-1.23.16,3.9,3.9,0,0,1-1.34-.21,3.11,3.11,0,0,1-1-.56,2.34,2.34,0,0,1-.6-.79,2.14,2.14,0,0,1-.2-.9h1.61a1.28,1.28,0,0,0,.16.57,1.14,1.14,0,0,0,.35.38,1.48,1.48,0,0,0,.48.21,2.32,2.32,0,0,0,.55.06,1.67,1.67,0,0,0,1-.25A.77.77,0,0,0,149.18,116.29Z"/><path class="cls-6" d="M155.44,114.54a5.51,5.51,0,0,1,.2-1.54,3.62,3.62,0,0,1,.58-1.2,2.59,2.59,0,0,1,2.14-1,2.6,2.6,0,0,1,1.08.21,2.4,2.4,0,0,1,.82.61V107.8h1.66v10.5h-1.5l-.08-.77a2.47,2.47,0,0,1-.84.67,2.59,2.59,0,0,1-1.14.24,2.55,2.55,0,0,1-1.21-.28,2.74,2.74,0,0,1-.91-.78,3.72,3.72,0,0,1-.58-1.19,5.21,5.21,0,0,1-.21-1.49Zm1.66.14a4.51,4.51,0,0,0,.09.93,2.41,2.41,0,0,0,.29.76,1.51,1.51,0,0,0,.52.52,1.47,1.47,0,0,0,.77.19,1.57,1.57,0,0,0,.92-.25,1.79,1.79,0,0,0,.57-.66V113a1.69,1.69,0,0,0-.57-.65,1.6,1.6,0,0,0-.9-.24,1.47,1.47,0,0,0-.77.19,1.55,1.55,0,0,0-.52.52,2.46,2.46,0,0,0-.3.77,4.45,4.45,0,0,0-.1.94Z"/><path class="cls-6" d="M163.66,109a.88.88,0,0,1,.24-.64.91.91,0,0,1,.69-.25.93.93,0,0,1,.7.25.88.88,0,0,1,.25.64.86.86,0,0,1-.25.63.94.94,0,0,1-.7.25.92.92,0,0,1-.69-.25A.86.86,0,0,1,163.66,109Zm1.76,9.32h-1.66v-7.4h1.66Z"/><path class="cls-6" d="M166.94,114.54a5.44,5.44,0,0,1,.21-1.54,3.58,3.58,0,0,1,.59-1.2,2.84,2.84,0,0,1,3.32-.82,2.41,2.41,0,0,1,.83.65l.08-.75h1.5v7.19a3.37,3.37,0,0,1-.25,1.33,2.71,2.71,0,0,1-.69,1,3,3,0,0,1-1.06.6,4.21,4.21,0,0,1-1.36.21,4.08,4.08,0,0,1-.68-.06,4,4,0,0,1-.76-.21,3.69,3.69,0,0,1-.73-.38,2.35,2.35,0,0,1-.59-.57l.79-1a2.5,2.5,0,0,0,.89.7,2.44,2.44,0,0,0,1,.21,1.84,1.84,0,0,0,1.31-.45,1.72,1.72,0,0,0,.48-1.32v-.5a2.34,2.34,0,0,1-.82.59,2.72,2.72,0,0,1-1.09.21,2.6,2.6,0,0,1-1.22-.28,2.79,2.79,0,0,1-.93-.78,3.6,3.6,0,0,1-.59-1.19,5.21,5.21,0,0,1-.21-1.49Zm1.65.14a4.13,4.13,0,0,0,.1.93,2.34,2.34,0,0,0,.31.76,1.59,1.59,0,0,0,.53.52,1.51,1.51,0,0,0,.77.19,1.62,1.62,0,0,0,.92-.24,1.77,1.77,0,0,0,.57-.62V113a1.69,1.69,0,0,0-.58-.62,1.66,1.66,0,0,0-.9-.23,1.52,1.52,0,0,0-.78.19,1.56,1.56,0,0,0-.54.52,2.45,2.45,0,0,0-.31.77,4.15,4.15,0,0,0-.1.94Z"/><path class="cls-6" d="M175.17,109a.88.88,0,0,1,.24-.64.91.91,0,0,1,.69-.25.93.93,0,0,1,.7.25.88.88,0,0,1,.25.64.86.86,0,0,1-.25.63.94.94,0,0,1-.7.25.92.92,0,0,1-.69-.25A.86.86,0,0,1,175.17,109Zm1.76,9.32h-1.66v-7.4h1.66Z"/><path class="cls-6" d="M180.82,109.1v1.8h1.31v1.23h-1.31v4.13a1.28,1.28,0,0,0,.05.41.53.53,0,0,0,.16.24.57.57,0,0,0,.24.12,1.53,1.53,0,0,0,.31,0l.33,0,.25,0v1.29l-.46.11a3.45,3.45,0,0,1-.63.05,2.54,2.54,0,0,1-.76-.11,1.52,1.52,0,0,1-.61-.36,1.66,1.66,0,0,1-.4-.64,2.87,2.87,0,0,1-.14-1v-4.22h-1.22V110.9h1.22v-1.8Z"/><path class="cls-6" d="M186.57,114.53a4.59,4.59,0,0,1,.24-1.49,3.54,3.54,0,0,1,.68-1.19,3.09,3.09,0,0,1,1.08-.79,3.47,3.47,0,0,1,1.44-.29,3.54,3.54,0,0,1,1.46.29,3.1,3.1,0,0,1,1.08.79,3.51,3.51,0,0,1,.67,1.19,4.62,4.62,0,0,1,.23,1.49v.14a4.65,4.65,0,0,1-.23,1.5,3.47,3.47,0,0,1-.67,1.19,3.08,3.08,0,0,1-1.08.79,3.85,3.85,0,0,1-2.9,0,3.06,3.06,0,0,1-1.08-.79,3.49,3.49,0,0,1-.68-1.19,4.63,4.63,0,0,1-.24-1.5Zm1.66.14a4.18,4.18,0,0,0,.1.94,2.36,2.36,0,0,0,.32.78,1.54,1.54,0,0,0,1.36.71,1.54,1.54,0,0,0,1.35-.71,2.47,2.47,0,0,0,.32-.78,4,4,0,0,0,.11-.94v-.14a3.94,3.94,0,0,0-.11-.93,2.42,2.42,0,0,0-.32-.77,1.68,1.68,0,0,0-.56-.53,1.57,1.57,0,0,0-.8-.2,1.53,1.53,0,0,0-.8.2,1.69,1.69,0,0,0-.55.53,2.37,2.37,0,0,0-.32.77,4.1,4.1,0,0,0-.1.93Z"/><path class="cls-6" d="M195.44,118.3v-6.17h-1.13V110.9h1.13v-.7a3.07,3.07,0,0,1,.18-1.09,2.12,2.12,0,0,1,.52-.8,2.23,2.23,0,0,1,.82-.49,3.3,3.3,0,0,1,1.08-.17,3.34,3.34,0,0,1,.47,0l.46.09,0,1.3-.3,0h-.34a1.21,1.21,0,0,0-.88.3,1.18,1.18,0,0,0-.31.88v.7h1.5v1.23h-1.5v6.17Z"/><path class="cls-6" d="M205.12,112.56h1a2.24,2.24,0,0,0,.75-.11,1.52,1.52,0,0,0,.53-.31,1.21,1.21,0,0,0,.31-.48,1.8,1.8,0,0,0,.1-.62,1.54,1.54,0,0,0-.37-1.1,1.5,1.5,0,0,0-1.14-.39,1.83,1.83,0,0,0-.61.1,1.46,1.46,0,0,0-.49.28,1.26,1.26,0,0,0-.32.44,1.38,1.38,0,0,0-.12.58h-1.66a2.53,2.53,0,0,1,.24-1.09A2.65,2.65,0,0,1,204,109a3.07,3.07,0,0,1,1-.57,3.82,3.82,0,0,1,1.27-.21,4.39,4.39,0,0,1,1.3.18,2.83,2.83,0,0,1,1,.54,2.42,2.42,0,0,1,.65.89,3,3,0,0,1,.23,1.23,2.05,2.05,0,0,1-.1.61,2.22,2.22,0,0,1-.29.59,2.73,2.73,0,0,1-.48.53,2.67,2.67,0,0,1-.67.42,2.72,2.72,0,0,1,.78.4,2.2,2.2,0,0,1,.52.55,2.23,2.23,0,0,1,.29.65,2.75,2.75,0,0,1,.09.72,2.93,2.93,0,0,1-.25,1.24,2.61,2.61,0,0,1-.7.92,3.09,3.09,0,0,1-1.06.57,4.5,4.5,0,0,1-2.56,0,3.15,3.15,0,0,1-1-.53,2.58,2.58,0,0,1-.72-.88,2.66,2.66,0,0,1-.27-1.22h1.66a1.53,1.53,0,0,0,.12.6,1.34,1.34,0,0,0,.33.47,1.5,1.5,0,0,0,.51.3,2,2,0,0,0,.67.11,1.72,1.72,0,0,0,1.22-.41,1.54,1.54,0,0,0,.44-1.19,1.87,1.87,0,0,0-.13-.73,1.33,1.33,0,0,0-.37-.51,1.51,1.51,0,0,0-.58-.3,2.81,2.81,0,0,0-.76-.1h-1Z"/><path class="cls-6" d="M212,110.28h.57a1.28,1.28,0,0,0,.43-.07.87.87,0,0,0,.31-.18.7.7,0,0,0,.18-.28,1,1,0,0,0,.06-.36.9.9,0,0,0-.22-.64.87.87,0,0,0-.66-.23,1.07,1.07,0,0,0-.35.06.87.87,0,0,0-.28.16.75.75,0,0,0-.19.25.8.8,0,0,0-.07.34h-1a1.46,1.46,0,0,1,.14-.63,1.52,1.52,0,0,1,.38-.5,1.75,1.75,0,0,1,.59-.33,2.22,2.22,0,0,1,.74-.12,2.57,2.57,0,0,1,.76.11,1.66,1.66,0,0,1,.59.31,1.39,1.39,0,0,1,.38.52,1.76,1.76,0,0,1,.14.72,1.19,1.19,0,0,1-.06.35,1.28,1.28,0,0,1-.17.34,1.62,1.62,0,0,1-.28.31,1.56,1.56,0,0,1-.39.24,1.63,1.63,0,0,1,.45.23,1.29,1.29,0,0,1,.3.32,1.31,1.31,0,0,1,.17.38,1.66,1.66,0,0,1,.05.42,1.72,1.72,0,0,1-.15.73,1.52,1.52,0,0,1-.41.54,1.81,1.81,0,0,1-.62.33,2.62,2.62,0,0,1-1.5,0,1.85,1.85,0,0,1-.61-.31,1.49,1.49,0,0,1-.42-.51,1.54,1.54,0,0,1-.16-.71h1a.9.9,0,0,0,.07.35.8.8,0,0,0,.19.27.86.86,0,0,0,.3.18,1.17,1.17,0,0,0,.39.06,1,1,0,0,0,.71-.24.9.9,0,0,0,.26-.69,1.11,1.11,0,0,0-.08-.43.79.79,0,0,0-.22-.3.89.89,0,0,0-.34-.17,1.63,1.63,0,0,0-.44-.06H212Z"/><path class="cls-6" d="M216.6,110.28h.57a1.28,1.28,0,0,0,.43-.07.87.87,0,0,0,.31-.18.7.7,0,0,0,.18-.28,1,1,0,0,0,.06-.36.9.9,0,0,0-.22-.64.87.87,0,0,0-.66-.23,1.07,1.07,0,0,0-.35.06.87.87,0,0,0-.28.16.75.75,0,0,0-.19.25.8.8,0,0,0-.07.34h-1a1.46,1.46,0,0,1,.14-.63,1.52,1.52,0,0,1,.38-.5,1.75,1.75,0,0,1,.59-.33,2.22,2.22,0,0,1,.74-.12,2.57,2.57,0,0,1,.76.11,1.66,1.66,0,0,1,.59.31,1.39,1.39,0,0,1,.38.52,1.76,1.76,0,0,1,.14.72,1.19,1.19,0,0,1-.06.35,1.28,1.28,0,0,1-.17.34,1.62,1.62,0,0,1-.28.31,1.56,1.56,0,0,1-.39.24,1.63,1.63,0,0,1,.45.23,1.29,1.29,0,0,1,.3.32,1.31,1.31,0,0,1,.17.38,1.66,1.66,0,0,1,.05.42,1.72,1.72,0,0,1-.15.73,1.52,1.52,0,0,1-.41.54,1.81,1.81,0,0,1-.62.33,2.62,2.62,0,0,1-1.5,0,1.85,1.85,0,0,1-.61-.31,1.49,1.49,0,0,1-.42-.51,1.54,1.54,0,0,1-.16-.71h1a.9.9,0,0,0,.07.35.8.8,0,0,0,.19.27.86.86,0,0,0,.3.18,1.17,1.17,0,0,0,.39.06,1,1,0,0,0,.71-.24.9.9,0,0,0,.26-.69,1.11,1.11,0,0,0-.08-.43.79.79,0,0,0-.22-.3.89.89,0,0,0-.34-.17,1.63,1.63,0,0,0-.44-.06h-.57Z"/><path class="cls-6" d="M222.08,115.36a5.3,5.3,0,0,1,.06-.84,2.53,2.53,0,0,1,.19-.66,2.57,2.57,0,0,1,.34-.56,6.22,6.22,0,0,1,.52-.57l.43-.43a3.62,3.62,0,0,0,.36-.41,1.94,1.94,0,0,0,.24-.45,1.51,1.51,0,0,0,.09-.53,1.38,1.38,0,0,0-.32-1,1.22,1.22,0,0,0-.93-.34,1.68,1.68,0,0,0-.48.07,1.18,1.18,0,0,0-.42.22,1.12,1.12,0,0,0-.3.38,1.29,1.29,0,0,0-.11.56H220.1a2.71,2.71,0,0,1,.24-1.13,2.33,2.33,0,0,1,.63-.82,2.71,2.71,0,0,1,.94-.5,3.88,3.88,0,0,1,1.17-.17,3.94,3.94,0,0,1,1.23.18,2.51,2.51,0,0,1,.92.52,2.19,2.19,0,0,1,.57.83,3,3,0,0,1,.2,1.11,2.41,2.41,0,0,1-.14.84,3.2,3.2,0,0,1-.38.73,5.24,5.24,0,0,1-.55.66l-.64.62a1.69,1.69,0,0,0-.5.75,3.23,3.23,0,0,0-.13.92Zm-.12,2.13a1,1,0,0,1,.06-.36.82.82,0,0,1,.18-.29.83.83,0,0,1,.29-.19,1.21,1.21,0,0,1,.8,0,.83.83,0,0,1,.29.19.87.87,0,0,1,.19.29,1,1,0,0,1,.06.36.87.87,0,0,1-.25.63.93.93,0,0,1-.7.25.91.91,0,0,1-.69-.25A.87.87,0,0,1,222,117.49Z"/></svg>