<svg version="1.1" id="Layer_1" xmlns="http://www.w3.org/2000/svg" xmlns:xlink="http://www.w3.org/1999/xlink" x="0px" y="0px" viewBox="0 0 166 166" enable-background="new 0 0 166 166" xml:space="preserve" width="166" height="166" preserveAspectRatio="none"><g><path fill="#D9D9D9" d="M165.5,157.9V8.1c0-2-0.7-3.7-1.9-5.1L158,8.3c1.2,1.3,1.9,3,1.9,4.9v139.6c0,1.9-0.8,3.7-2,5l5.2,5.7
		C164.6,162.1,165.5,160.1,165.5,157.9z" /><path fill="#CCCCCC" d="M6.1,152.8V13.2c0-2,0.8-3.8,2.2-5.1L2.8,2.6C1.4,4,0.5,6,0.5,8.1v149.7c0,2.4,1.1,4.5,2.8,5.9l4.7-6.1
		C6.8,156.4,6.1,154.7,6.1,152.8z" /><path fill="#BFBFBF" d="M157.9,157.7c-1.3,1.3-3.1,2.2-5.1,2.2H13.2c-2.1,0-3.9-0.9-5.2-2.3l-4.7,6.1c1.3,1.1,3,1.7,4.9,1.7h149.7
		c2,0,3.9-0.8,5.3-2.1L157.9,157.7z" /><path fill="#E6E6E6" d="M13.2,6.1h139.6c2.1,0,3.9,0.9,5.2,2.3l5.6-5.3c-1.4-1.6-3.4-2.6-5.7-2.6H8.1c-2.1,0-3.9,0.8-5.3,2.2
		l5.5,5.5C9.5,6.8,11.3,6.1,13.2,6.1z" /><path fill="#F2F2F2" d="M152.8,6.1H13.2c-3.9,0-7.1,3.2-7.1,7.1v139.6c0,3.9,3.2,7.1,7.1,7.1h139.6c3.9,0,7.1-3.2,7.1-7.1V13.2
		C159.9,9.3,156.7,6.1,152.8,6.1z" /><g><path fill="#FFFFFF" d="M159.1,155.2c-0.8-12.2-1.4-24.5-2-36.7l0-36.7V45.1V26.8v-9.2v-2.3v-1.1c0-0.3,0-0.6-0.1-0.8
			c-0.1-1.1-0.7-2.1-1.5-2.9c-0.8-0.8-1.8-1.2-2.9-1.4c-0.5,0-1.3,0-2.1,0h-2.3h-9.2h-18.3H84.1H47.4C35.2,8.4,23,7.9,10.7,7.1
			c12.2-0.8,24.5-1.4,36.7-2h36.7h36.7h18.3h9.2h2.3c0.8,0,1.4,0,2.5,0.1c2,0.2,3.8,1.1,5.2,2.5c1.4,1.4,2.4,3.2,2.7,5.1
			c0.1,0.5,0.1,1,0.1,1.4v1.1v2.3v9.2v18.3v36.7l0,36.7C160.6,130.7,160,143,159.1,155.2z" /></g></g></svg>