<?xml version="1.0" encoding="utf-8"?>
<!-- Generator: Adobe Illustrator 19.2.0, SVG Export Plug-In . SVG Version: 6.00 Build 0)  -->
<!DOCTYPE svg PUBLIC "-//W3C//DTD SVG 1.1//EN" "http://www.w3.org/Graphics/SVG/1.1/DTD/svg11.dtd">
<svg version="1.1" xmlns="http://www.w3.org/2000/svg" xmlns:xlink="http://www.w3.org/1999/xlink" x="0px" y="0px"
	 viewBox="0 0 147.4 269" enable-background="new 0 0 147.4 269" xml:space="preserve" width="147.4" height="269" preserveAspectRatio="none">
<g id="rope_placement">
</g>
<g id="Rope">
</g>
<g id="monster_1_arms_up_legs_down">
	<g>
		<path fill="#185E93" d="M15.9,108.1l-11-8.5c0,0-2,5.5,4.5,15s18.5,16,18.5,16l1-5.5L15.9,108.1z"/>
		<path fill="#185E93" d="M133.8,126.8c4-3,8.5-11,8.5-11s-5.5-2-15,4.5s-16,18.5-16,18.5l4.6-0.2
			C115.8,138.5,129.8,129.8,133.8,126.8z"/>
		<path fill="#185E93" d="M122.9,134.7c0,0,30.3-28.3,17-59.6c-13.3-31.2-59-55-59-55l-3,23.8c0,0,36.2,16.5,44,43.5
			c7.5,26-3.8,44.7-3.8,44.7L122.9,134.7z"/>
		<path fill="#185E93" d="M28.1,127.9c0,0-30-19.8-16.8-52.8s50.3-40.7,50.3-40.7l6.9,21.4c0,0-26.5,3.3-38.7,29.5s3,38.3,3,38.3
			L28.1,127.9z"/>
		<ellipse fill="#185E93" cx="72.7" cy="35.1" rx="11.8" ry="4.8"/>
		<ellipse fill="#27AAE1" cx="72.4" cy="42.5" rx="11.4" ry="5.6"/>
		<ellipse fill="#185E93" cx="73.8" cy="42.5" rx="11.4" ry="5.6"/>
		<ellipse fill="#27AAE1" cx="72.3" cy="51.1" rx="10.1" ry="6.1"/>
		<ellipse fill="#185E93" cx="73.9" cy="51.1" rx="10.1" ry="6.1"/>
		<ellipse transform="matrix(0.2203 -0.9754 0.9754 0.2203 45.6046 84.998)" fill="#185E93" cx="76" cy="14" rx="4.8" ry="11.8"/>
		
			<ellipse transform="matrix(0.2203 -0.9754 0.9754 0.2203 37.4118 89.4537)" fill="#27AAE1" cx="74.7" cy="21.3" rx="5.6" ry="11.4"/>
		
			<ellipse transform="matrix(0.2203 -0.9754 0.9754 0.2203 36.6263 87.8384)" fill="#185E93" cx="73.3" cy="21" rx="5.6" ry="11.4"/>
		
			<ellipse transform="matrix(0.2203 -0.9754 0.9754 0.2203 27.8874 94.2161)" fill="#27AAE1" cx="72.9" cy="29.7" rx="6.1" ry="10.1"/>
		
			<ellipse transform="matrix(0.2203 -0.9754 0.9754 0.2203 26.9973 92.3843)" fill="#185E93" cx="71.3" cy="29.3" rx="6.1" ry="10.1"/>
		<path fill="#185E93" d="M57.7,42.5l2.2-15.3l18.7,1.3c0,0-1.8,9.5-1.5,14.9c0.3,5.4,1.8,8.7,1.8,8.7s-7.1-0.1-8-7.1
			c-0.5-4.4,1.6-10.4,1.6-10.4s-4.5,9.6-8.7,10S57.7,42.5,57.7,42.5z"/>
		<g>
			<path fill="#27AAE1" d="M78.6,28.4c-0.3,2-0.5,3.9-0.7,5.9c-0.2,2-0.4,4-0.4,5.9c-0.1,2,0,3.9,0.3,5.9c0.2,1,0.3,1.9,0.6,2.9
				c0.1,0.5,0.3,0.9,0.4,1.4c0.2,0.5,0.3,0.9,0.5,1.3l0.3,0.7l-0.7,0c-0.5,0-1-0.1-1.5-0.2c-0.5-0.1-0.9-0.2-1.4-0.4
				c-0.5-0.2-0.9-0.3-1.3-0.6c-0.4-0.2-0.8-0.5-1.2-0.8c-0.4-0.3-0.8-0.6-1.1-1c-0.3-0.4-0.6-0.8-0.9-1.2c-0.2-0.4-0.5-0.9-0.6-1.4
				l-0.2-0.7l-0.1-0.7c0-0.2-0.1-0.5-0.1-0.7l-0.1-0.7c0-0.5,0-1,0-1.5c0-1,0.2-1.9,0.3-2.8c0.3-1.9,0.8-3.7,1.4-5.5l0.8,0.3
				c-0.7,1.5-1.6,3-2.6,4.4c-1,1.4-2,2.8-3.3,3.9c-0.3,0.3-0.6,0.6-1,0.8c-0.2,0.1-0.4,0.2-0.6,0.3l-0.6,0.3
				c-0.2,0.1-0.4,0.1-0.6,0.2c-0.2,0-0.4,0.1-0.7,0.1c-0.4,0-0.9,0-1.3,0c-0.4,0-0.8-0.1-1.3-0.2c-0.4-0.1-0.8-0.2-1.2-0.4
				c-0.8-0.4-1.5-0.9-2-1.5c0.6,0.6,1.3,1.1,2.1,1.4c0.4,0.2,0.8,0.3,1.2,0.4c0.4,0.1,0.8,0.1,1.2,0.1c0.4,0,0.8,0,1.2,0
				c0.2,0,0.4-0.1,0.6-0.1c0.2-0.1,0.4-0.1,0.6-0.2l0.5-0.3l0.5-0.3c0.3-0.2,0.6-0.5,0.9-0.8c1.2-1.1,2.1-2.5,3-3.9
				c0.9-1.4,1.7-2.9,2.4-4.4l0.8,0.3c-0.6,1.7-1,3.5-1.3,5.3c-0.1,0.9-0.2,1.8-0.3,2.7c0,0.5,0,0.9,0,1.3l0.1,0.7
				c0,0.2,0.1,0.4,0.1,0.6l0.1,0.6l0.2,0.6c0.1,0.4,0.3,0.8,0.5,1.2c0.2,0.4,0.4,0.7,0.8,1.1c0.3,0.3,0.6,0.6,0.9,0.9
				c0.4,0.3,0.7,0.5,1.1,0.7c0.4,0.2,0.8,0.4,1.2,0.5c0.4,0.2,0.8,0.3,1.3,0.4c0.4,0.1,0.9,0.2,1.3,0.2l-0.4,0.6
				c-0.2-0.5-0.4-1-0.5-1.5c-0.2-0.5-0.3-1-0.4-1.5c-0.2-1-0.4-2-0.5-3c-0.3-2-0.3-4-0.1-6c0.1-2,0.4-4,0.7-6
				C77.8,32.3,78.2,30.4,78.6,28.4z"/>
		</g>
		<path fill="#185E93" d="M89,24.5l1.2-15.4L71.7,6.2c0,0-0.4,9.7-1.8,14.9c-1.4,5.2-3.6,8.1-3.6,8.1s7,1.5,9.4-5.2
			c1.5-4.1,0.8-10.5,0.8-10.5s2.3,10.4,6.3,11.7C86.7,26.4,89,24.5,89,24.5z"/>
		<g>
			<path fill="#27AAE1" d="M71.7,6.2c0,2-0.1,4-0.2,6c-0.1,2-0.3,4-0.6,6c-0.3,2-0.8,3.9-1.5,5.9c-0.3,1-0.7,1.9-1.2,2.8
				c-0.2,0.5-0.5,0.9-0.7,1.3c-0.3,0.4-0.5,0.9-0.8,1.3l-0.3-0.7c0.4,0.1,0.9,0.1,1.3,0.1c0.4,0,0.9,0,1.3-0.1
				c0.4-0.1,0.9-0.1,1.3-0.3c0.4-0.1,0.8-0.3,1.2-0.5c0.4-0.2,0.8-0.4,1.1-0.7c0.4-0.2,0.7-0.6,1-0.9c0.3-0.3,0.6-0.7,0.8-1l0.3-0.6
				l0.3-0.6c0.1-0.2,0.2-0.4,0.3-0.6l0.2-0.7c0.1-0.4,0.2-0.8,0.3-1.3c0.2-0.9,0.3-1.8,0.3-2.7c0.1-1.8,0.1-3.7-0.1-5.5l0.8-0.1
				c0.4,1.6,0.8,3.2,1.4,4.8c0.6,1.6,1.2,3.1,2.1,4.5c0.2,0.3,0.5,0.7,0.7,1l0.4,0.4l0.5,0.4c0.1,0.1,0.3,0.2,0.5,0.3
				c0.2,0.1,0.3,0.2,0.6,0.2c0.4,0.1,0.8,0.2,1.2,0.3c0.4,0.1,0.8,0.1,1.2,0.1c0.4,0,0.8,0,1.2-0.1c0.8-0.1,1.6-0.4,2.3-0.9
				c-0.7,0.5-1.5,0.9-2.3,1c-0.4,0.1-0.8,0.1-1.3,0.2c-0.4,0-0.9,0-1.3-0.1c-0.4-0.1-0.9-0.1-1.3-0.3c-0.2,0-0.4-0.1-0.6-0.2
				C82,25,81.8,25,81.6,24.8l-0.5-0.4c-0.2-0.1-0.3-0.3-0.5-0.5c-0.3-0.3-0.5-0.7-0.8-1c-1-1.4-1.7-3-2.3-4.6
				c-0.6-1.6-1.1-3.2-1.5-4.9l0.8-0.1c0.2,1.9,0.3,3.8,0.2,5.7c0,0.9-0.2,1.9-0.3,2.8c-0.1,0.5-0.2,0.9-0.3,1.4L76.1,24
				c-0.1,0.3-0.2,0.5-0.3,0.7l-0.3,0.7L75.2,26c-0.2,0.4-0.6,0.8-0.9,1.2c-0.4,0.3-0.7,0.7-1.1,1c-0.4,0.3-0.8,0.5-1.3,0.8
				c-0.5,0.2-0.9,0.4-1.4,0.5c-0.5,0.1-1,0.2-1.4,0.3c-0.5,0.1-1,0.1-1.5,0.1c-0.5,0-1,0-1.5-0.1l-0.7-0.1l0.4-0.6
				c0.3-0.4,0.5-0.8,0.8-1.2c0.3-0.4,0.5-0.8,0.7-1.3c0.4-0.9,0.8-1.8,1.2-2.7c0.7-1.8,1.3-3.7,1.6-5.7c0.4-1.9,0.6-3.9,0.9-5.9
				C71.3,10.2,71.5,8.2,71.7,6.2z"/>
		</g>
		<path fill="#27AAE1" d="M55.6,175.4c0,0-8.6,18.6-7.2,31.8c1.4,13.2,13.2,30.9,13.2,30.9s-2.4-1.3-7,3.7c-4.6,5-5,15.8-5,15.8
			l6.3-7.6l1.7,14.8c0,0,8.9-7.3,12.6-14c3.7-6.7,4.8-13.7,4.8-13.7s-15.2-18.3-16.5-28.3c-2.1-15,6.2-29.3,6.2-29.3L55.6,175.4z"/>
		<path fill="#27AAE1" d="M94.8,175.4c0,0,8.6,18.6,7.2,31.8c-1.4,13.2-13.2,30.9-13.2,30.9s2.4-1.3,7,3.7c4.6,5,5,15.8,5,15.8
			l-6.3-7.6l-1.7,14.8c0,0-8.9-7.3-12.6-14c-3.7-6.7-4.8-13.7-4.8-13.7s15.2-18.3,16.6-28.3c2.1-15-6.2-29.3-6.2-29.3L94.8,175.4z"
			/>
		<path fill="#D2421E" d="M50,168.5l-11.3,9.9c0,0,3.3,5.4,11,9.4c7.7,4,13.1,4.5,13.1,4.5l5.8-17.8L50,168.5z"/>
		<path fill="#D2421E" d="M93.2,168.5l11.3,9.9c0,0-2.7,4.7-7.7,7.7c-5,3-16.3,6.1-16.3,6.1l-5.8-17.8L93.2,168.5z"/>
		<path fill="#D2421E" d="M36.9,157.3c0,0,1,22.6,34.1,24c38.9,1.6,36.6-26.6,36.6-26.6L36.9,157.3z"/>
		<path fill="#F7941E" d="M108.5,216.5c-1.2-1-14.1,5.6-14.1,5.6l6.1,4.8C100.5,226.9,109.7,217.5,108.5,216.5z"/>
		<path fill="#F7941E" d="M99.3,213.1c-1.1-0.9-12.1,3.5-12.1,3.5l5.7,4.2C92.9,220.8,100.4,214,99.3,213.1z"/>
		<path fill="#185E93" d="M59.4,156.5c0,0-9.9,25.5,4.2,44.8c19.2,26.4,44.7,29.9,44.7,29.9s-23-15.8-25.8-29.4
			c-2.7-13.4,8.6-36.1,8.6-36.1L59.4,156.5z"/>
		<path fill="#F7941E" d="M41.7,63.1c1.3,0.3,2.8,5.8,7.3,10.5s14.5,5,14.5,5L57,94.1c0,0-8.5-3.3-13.8-12S40.5,62.8,41.7,63.1z"/>
		<path fill="#F7941E" d="M103.9,64.2c-1.3,0.3-2.8,5.8-7.3,10.5s-14.5,5-14.5,5l6.5,15.5c0,0,8.5-3.3,13.8-12S105.1,64,103.9,64.2z
			"/>
		<path fill="#27AAE1" d="M36.6,101.4c-5,10.7-2.5,16.5-2.5,16.5l5.1-4.9c0,0-4.6,14-5.9,27.8c-0.1,0.7-0.1,1.4-0.1,2.1
			c25.3,3.4,51,2.6,76.4-0.4c-1.1-11.6-6.8-26.1-6.8-26.1l5.8,4.7c0,0,0-9.3-3.3-15c-2.7-4.8-3-3.6-3-3.6s8.4,4.7,9,1.6
			c2.3-10.5-15.7-24.2-15.7-24.2l15.2,6.5c0,0,1.3-6.3-7.8-11.8c-9.1-5.4-16.6-4-16.6-4l9.6-4.2c0,0-4.8-5.5-15.3-2.5
			c-7.8,2.3-11.8,7.5-11.8,7.5s-12.3-11.1-16.9-6.5c-3.5,3.5,5,9.6,5,9.6s-12.7,0.5-19,6.6c-6.3,6.2-6.5,14.8-6.5,14.8l10.6-6.3
			C42.2,89.6,40.8,92.6,36.6,101.4z"/>
		<path fill="#F3C936" d="M36.9,122.9l-4.7,17.3l3.9,22.8c0,0,7.9,9.9,38.5,10.4c24.9,0.4,33.7-9.6,33.7-9.6L111,142l-5.2-16.2
			c0,0-11,6.8-34.5,5.8C47.7,130.5,36.9,122.9,36.9,122.9z"/>
		<path fill="#D2421E" d="M86.3,162.2c0,2.4-1.3,4.3-3.9,5.7c-2.3,1.3-5.2,1.9-8.6,1.8c-9.6-0.1-14.5-2.8-14.8-8.2l-0.2-4.7
			l10.8,0.4l-0.2,0.9c-0.1,0.3-0.2,0.5-0.2,0.8c0,1.2,1,1.8,3.1,1.8c1.9,0,3.1-0.2,3.6-0.8c0.3-0.3,0.5-1,0.5-2.1v-1.6
			c0-1.2-0.9-1.8-2.6-1.8c-0.3,0-0.9,0-2,0.1c-1.1,0-1.9,0.1-2.4,0.1v-2.9l11.1-6.5l-14,1.1v0.7l-6.7,0.2l-0.7-8.1l26.7-0.1l0.3,7.6
			l-9.4,5.2h0.2c3.6,0,6.1,0.4,7.4,1.3c1.3,0.9,2,2.5,2,4.7V162.2z"/>
		<g>
			<path fill="#185E93" d="M66.9,99.4c-0.8,0.3-1.4,0.8-1.9,1.4c-0.5,0.6-1,1.3-1.3,2c-0.4,0.7-0.7,1.5-0.9,2.2
				c-0.1,0.4-0.2,0.7-0.3,1.1l-0.1,0.6l-0.1,0.6c-0.1,0.4-0.1,0.8-0.1,1.2c0,0.4,0,0.8,0,1.2c0,0.4,0.1,0.8,0.1,1.2
				c0.1,0.4,0.1,0.8,0.2,1.2c0.2,0.8,0.4,1.5,0.6,2.3c0.1,0.4,0.3,0.7,0.4,1.1c0.1,0.4,0.3,0.7,0.5,1l-1.4-0.1
				c1.7-2.9,3.5-5.8,5.2-8.8l1.3-2.2l0.4,2.6c0.1,0.7,0.3,1.4,0.4,2.1c0.2,0.7,0.4,1.4,0.6,2c0.2,0.7,0.5,1.3,0.8,1.9
				c0.2,0.3,0.3,0.6,0.5,0.9l0.3,0.4l0.3,0.4c0.2,0.3,0.4,0.5,0.6,0.8c0.2,0.3,0.5,0.5,0.7,0.7c0.3,0.2,0.5,0.5,0.8,0.7
				c0.3,0.2,0.5,0.4,0.8,0.6c0.6,0.4,1.1,0.8,1.7,1.1c0.3,0.2,0.6,0.3,0.9,0.5c0.3,0.1,0.6,0.3,0.9,0.4l-1.2,1.2
				c-0.1-0.4-0.2-0.8-0.3-1.1c-0.1-0.4-0.2-0.7-0.2-1.1c-0.1-0.7-0.3-1.5-0.3-2.3c-0.2-1.5-0.2-3,0-4.6L77,112l0-0.3l0.1-0.3
				c0.1-0.3,0.2-0.7,0.3-1.1c0.2-0.7,0.5-1.5,0.7-2.2c0.6-1.4,1.2-2.7,2-4l1.8-2.9l-0.8,3.4c-0.2,1-0.4,2-0.5,3
				c-0.1,1-0.1,2.1,0,3.1c0,0.2,0.1,0.5,0.1,0.7c0,0.2,0.1,0.5,0.2,0.7c0.2,0.5,0.3,1,0.5,1.5c0.2,0.5,0.4,0.9,0.7,1.4
				c0.3,0.4,0.6,0.9,1,1.2c-0.4-0.3-0.8-0.7-1.1-1.1c-0.3-0.4-0.6-0.9-0.9-1.3c-0.3-0.5-0.5-1-0.7-1.4c-0.1-0.2-0.2-0.5-0.3-0.8
				c-0.1-0.3-0.1-0.5-0.2-0.8c-0.2-1.1-0.3-2.1-0.3-3.2c0-1.1,0.1-2.1,0.3-3.2l1.1,0.4c-0.3,0.6-0.6,1.3-0.9,1.9
				c-0.3,0.7-0.5,1.3-0.8,2c-0.2,0.7-0.4,1.4-0.6,2c-0.1,0.3-0.1,0.7-0.2,1l0,0.3l0,0.2l-0.1,0.5c-0.1,1.4-0.1,2.8,0.1,4.2
				c0.1,0.7,0.2,1.4,0.4,2.1c0.1,0.3,0.2,0.7,0.2,1c0.1,0.3,0.2,0.7,0.3,1l0.6,1.8l-1.8-0.6c-0.4-0.1-0.8-0.3-1.1-0.4
				c-0.4-0.2-0.7-0.3-1.1-0.5c-0.7-0.4-1.3-0.8-2-1.2c-0.3-0.2-0.6-0.5-0.9-0.7c-0.3-0.2-0.6-0.5-0.9-0.8c-0.3-0.3-0.6-0.5-0.8-0.9
				c-0.3-0.3-0.5-0.6-0.7-0.9l-0.3-0.4c-0.1-0.2-0.2-0.3-0.3-0.5c-0.2-0.3-0.4-0.7-0.6-1c-0.4-0.7-0.6-1.4-0.9-2.2
				c-0.3-0.7-0.5-1.5-0.7-2.2c-0.2-0.7-0.3-1.5-0.5-2.3l1.8,0.4c-1.8,2.9-3.6,5.7-5.5,8.6l-0.8,1.2l-0.6-1.2
				c-0.2-0.4-0.3-0.8-0.5-1.2c-0.1-0.4-0.3-0.8-0.4-1.2c-0.2-0.8-0.4-1.6-0.5-2.5c-0.1-0.4-0.1-0.8-0.1-1.3c0-0.4,0-0.8,0-1.3
				c0-0.4,0-0.8,0.1-1.3c0.1-0.4,0.1-0.8,0.2-1.3l0.1-0.6l0.2-0.6c0.1-0.4,0.3-0.8,0.4-1.2c0.3-0.8,0.7-1.5,1.2-2.2
				c0.5-0.7,1-1.4,1.6-1.9C65.4,100,66.1,99.6,66.9,99.4z"/>
		</g>
		<path fill="#F3C936" d="M125.5,120.5c-4.4-3.9-9.8-4.6-9.8-4.6l-10.2,10.4c0,0-0.5,0.8-1.6,2.3c2.3,3.3,1.9,10.1,4.5,13.1
			c2.2,2.6,9.8-3.8,10.1-3.8l11.6-5.5C130,132.4,129.9,124.4,125.5,120.5z"/>
		<path fill="#F3C936" d="M33.4,140.8c2.1,1,2.1,1.1,3.5,0.5c2.3-1,3.6-3.8,4.5-6c1.1-2.7,1.9-5.4,2.8-8.2c-3.5-2.4-5.1-4.1-5.1-4.1
			l-8.6-6.1c0,0-5.9,4-7.5,8.8c-1.5,4.8-0.8,10-0.8,10l8.7,3.2L33.4,140.8z"/>
		<path fill="#D2421E" d="M33.1,118.8l-2.7-1.9c0,0-5.9,4-7.5,8.8c-1.5,4.8-0.8,10-0.8,10l2.5,0.9c0.4-2.6,1.2-6.1,2.6-9.7
			C29,122.6,31.4,120.2,33.1,118.8z"/>
		<path fill="#D2421E" d="M130,132.4c0,0-0.1-8-4.5-11.8c-4.4-3.9-9.8-4.6-9.8-4.6l-1.2,1.2c2.1,0.8,5,2.5,7.8,6.2
			c2.8,3.7,4.6,7.4,5.7,9.9L130,132.4z"/>
		<path fill="#D2421E" d="M107.2,125.4l-1.4,0.4c0,0-11,6.8-34.5,5.8c-22.3-1-32.5-8.7-33.6-9.4c3.4,4.5,11.7,13.3,32.5,14.9
			C91.8,138.8,102.8,130.1,107.2,125.4z"/>
	</g>
</g>
<g id="monster_1_arms_up_legs_up">
</g>
<g id="monster_1_arms_down_legs_down">
</g>
<g id="monster_1_arms_down_legs_up">
</g>
<g id="monster_1_arms_up_legs_down_copy">
</g>
<g id="bell_idle">
</g>
<g id="bell_pull_1">
</g>
<g id="bell_pull_2">
</g>
</svg>
