<?xml version="1.0" encoding="utf-8"?>
<!-- Generator: Adobe Illustrator 20.0.0, SVG Export Plug-In . SVG Version: 6.00 Build 0)  -->
<!DOCTYPE svg PUBLIC "-//W3C//DTD SVG 1.1//EN" "http://www.w3.org/Graphics/SVG/1.1/DTD/svg11.dtd">
<svg version="1.1" xmlns="http://www.w3.org/2000/svg" xmlns:xlink="http://www.w3.org/1999/xlink" x="0px" y="0px"
	 viewBox="0 0 147.4 269" enable-background="new 0 0 147.4 269" xml:space="preserve" width="147.4" height="269" preserveAspectRatio="none">
<g id="rope_placement">
</g>
<g id="Rope">
</g>
<g id="monster_1_arms_up_legs_down">
	<path fill="#412F8F" d="M92.9,250.8c0,0,4-4.3,5.2-3.2c2.9,2.7,2.3,9.4,2.3,9.4l-6.1-3.4L92.9,250.8z"/>
	<path fill="#412F8F" d="M89.9,254.3c0,0,4-4.3,5.2-3.2c2.9,2.7,2.3,9.4,2.3,9.4l-6.1-3.4L89.9,254.3z"/>
	<path fill="#776AB0" d="M90.3,176.4c0,0,12.9,15.8,13.2,38.8c0.1,9.6-6.3,18.2-6.3,18.2l-4.2,4.5c0,0,3,2.7,4.6,7.9
		c1.7,5.6-3.9,12.6-3.9,12.6s-8.2-4.2-12.6-10.1c-4.3-5.9-3.6-13.7-3.6-13.7s10.6-6.7,12.4-16.1c4-21-7.4-36.4-7.4-36.4L90.3,176.4z
		"/>
	<path fill="#412F8F" d="M57.2,250.8c0,0-4-4.3-5.2-3.2c-2.9,2.7-2.3,9.4-2.3,9.4l6.1-3.4L57.2,250.8z"/>
	<path fill="#412F8F" d="M60.3,254.3c0,0-4-4.3-5.2-3.2c-2.9,2.7-2.3,9.4-2.3,9.4l6.1-3.4L60.3,254.3z"/>
	<path fill="#776AB0" d="M59.8,176.4c0,0-12.9,15.8-13.2,38.8c-0.1,9.6,6.3,18.2,6.3,18.2l4.2,4.5c0,0-3,2.7-4.6,7.9
		c-1.7,5.6,3.9,12.6,3.9,12.6s8.2-4.2,12.6-10.1c4.3-5.9,3.6-13.7,3.6-13.7s-10.6-6.7-12.4-16.1c-4-21,7.4-36.4,7.4-36.4L59.8,176.4
		z"/>
	<path fill="#00793A" d="M52,164.3l-11.3,9.9c0,0,3.3,5.4,11,9.4s13.1,4.5,13.1,4.5l5.8-17.8L52,164.3z"/>
	<path fill="#00793A" d="M95.2,164.3l11.3,9.9c0,0-2.7,4.7-7.7,7.7c-5,3-16.3,6.1-16.3,6.1l-5.8-17.8L95.2,164.3z"/>
	<path fill="#00793A" d="M41.6,153.8c0,0-1.7,22,31.4,23.3c38.9,1.6,31.9-26,31.9-26L41.6,153.8z"/>
	<path fill="#412F8F" d="M42.8,190.3c0.4,1.4,1.4,2.5,2.5,3.3c1.2,0.7,2.5,1,3.8,0.9c2.6-0.4,4.8-2.4,5.5-4.7
		c0.4-1.2,0.4-2.4,0.1-3.5c0-0.1-0.1-0.3-0.1-0.4l0-0.1c0,0,0-0.1,0-0.1l-0.1-0.3c-0.1-0.3-0.2-0.5-0.4-0.8c-0.3-0.5-0.6-1-1-1.5
		c-1.5-1.8-3.8-2.8-5.9-2.7c-0.5,0-1.1,0.1-1.6,0.2l-0.4,0.1l-0.2,0.1l-0.1,0l0,0c0,0-0.1,0,0,0l0,0l-0.5,0.2
		c-0.1,0.1-0.2,0.1-0.3,0.2c-1,0.5-2,1.1-2.8,1.9c-1.7,1.5-2.8,3.6-3.2,5.6c-0.2,1-0.2,2-0.1,2.9c0.1,0.5,0.2,0.8,0.4,1.3l0.2,0.5
		l0.2,0.4c0.1,0.2,0.2,0.5,0.3,0.8c1,2.1,2.4,3.8,4,4.9c1.6,1.2,3.5,1.8,5.5,2c1,0.1,2.1,0.1,3.2,0c0.3,0,0.6-0.1,0.8-0.1l0.5-0.1
		c0.2,0,0.2,0,0.4-0.1c0.5-0.1,1-0.2,1.5-0.4c4-1.1,6.6-3.7,8.4-7.3c1.7-3.7,2.5-8.4,2.2-12.9L65.3,163l20,1.2L83,181.1
		c-0.3,3.6-1,7-2.1,10.3c-1.1,3.4-2.6,6.7-4.8,9.8c-2.1,3.1-4.9,5.9-8.2,8c-3.3,2.1-7.1,3.4-10.8,3.8c-0.9,0.1-1.8,0.2-2.8,0.2
		l-0.7,0l-0.5,0c-0.5,0-0.9,0-1.4-0.1c-1.8-0.1-3.6-0.4-5.4-0.9c-3.6-1-7.1-2.9-9.8-5.6c-2.7-2.7-4.5-6-5.5-9.3
		c-0.1-0.4-0.2-0.8-0.4-1.3l-0.2-0.7l-0.1-0.5c-0.2-0.9-0.3-2-0.3-2.9c0-2,0.3-3.9,1-5.7c1.3-3.5,3.7-6.3,6.6-8.3
		c2.9-2,6.5-3.2,10.1-2.7c3.6,0.5,6.8,2.6,8.6,5.6c0.5,0.7,0.8,1.5,1.1,2.3c0.1,0.4,0.3,0.9,0.4,1.2l0.1,0.3l0,0.2l0,0.2
		c0,0.2,0.1,0.4,0.1,0.6c0.2,1.7-0.1,3.5-0.9,5c-1.5,3-4.6,5-7.8,5c-1.6,0-3.1-0.6-4.3-1.6C43.8,193.1,43,191.7,42.8,190.3z"/>
	<path fill="#776AB0" d="M123.3,134.1c0,0,30.6-26.3,16.1-60.5c-13.3-31.2-57-52.6-57-52.6l-3,24.1c0,0,36.8,17.4,42.5,42.7
		c5.9,26.4-3.3,43.8-3.3,43.8L123.3,134.1z"/>
	<path fill="#776AB0" d="M27.4,132.6c0,0-26.8-23.2-13.6-59C27,37.7,64.4,34.5,64.4,34.5l4.7,20.8c0,0-26.1,2.6-38.4,31.1
		c-12.3,28.5,1.4,37.9,1.4,37.9L27.4,132.6z"/>
	<ellipse fill="#776AB0" cx="73.2" cy="35.3" rx="11.8" ry="4.8"/>
	<ellipse fill="#412F8F" cx="72.8" cy="42.7" rx="11.4" ry="5.6"/>
	<ellipse fill="#776AB0" cx="74.3" cy="42.7" rx="11.4" ry="5.6"/>
	<ellipse fill="#412F8F" cx="72.7" cy="51.3" rx="10.1" ry="6.1"/>
	<ellipse fill="#776AB0" cx="74.3" cy="51.3" rx="10.1" ry="6.1"/>
	
		<ellipse transform="matrix(0.2203 -0.9754 0.9754 0.2203 45.7362 85.6055)" fill="#776AB0" cx="76.4" cy="14.2" rx="4.8" ry="11.8"/>
	
		<ellipse transform="matrix(0.2203 -0.9754 0.9754 0.2203 37.5422 90.0604)" fill="#412F8F" cx="75.1" cy="21.5" rx="5.6" ry="11.4"/>
	<ellipse transform="matrix(0.2203 -0.9754 0.9754 0.2203 36.758 88.446)" fill="#776AB0" cx="73.7" cy="21.2" rx="5.6" ry="11.4"/>
	
		<ellipse transform="matrix(0.2203 -0.9754 0.9754 0.2203 28.0189 94.8235)" fill="#412F8F" cx="73.3" cy="29.9" rx="6.1" ry="10.1"/>
	
		<ellipse transform="matrix(0.2203 -0.9754 0.9754 0.2203 27.1293 92.9921)" fill="#776AB0" cx="71.7" cy="29.5" rx="6.1" ry="10.1"/>
	<path fill="#776AB0" d="M58.2,42.7l2.2-15.3L79,28.6c0,0-1.8,9.5-1.5,14.9s1.8,8.7,1.8,8.7s-7.1-0.1-8-7.1
		c-0.5-4.4,1.6-10.4,1.6-10.4s-4.5,9.6-8.7,10C60,45.1,58.2,42.7,58.2,42.7z"/>
	<path fill="#412F8F" d="M79,28.6c-0.3,2-0.5,3.9-0.7,5.9c-0.2,2-0.4,4-0.4,5.9c-0.1,2,0,3.9,0.3,5.9c0.2,1,0.3,1.9,0.6,2.9
		c0.1,0.5,0.3,0.9,0.4,1.4c0.2,0.5,0.3,0.9,0.5,1.3l0.3,0.7l-0.7,0c-0.5,0-1-0.1-1.5-0.2c-0.5-0.1-0.9-0.2-1.4-0.4
		c-0.5-0.2-0.9-0.3-1.3-0.6c-0.4-0.2-0.8-0.5-1.2-0.8c-0.4-0.3-0.8-0.6-1.1-1c-0.4-0.4-0.6-0.8-0.9-1.2c-0.2-0.4-0.5-0.9-0.6-1.4
		L71,46.4l-0.1-0.7c0-0.2-0.1-0.5-0.1-0.7l-0.1-0.7c0-0.5,0-1,0-1.5c0-1,0.2-1.9,0.3-2.8c0.3-1.9,0.8-3.7,1.4-5.5l0.8,0.3
		c-0.7,1.5-1.6,3-2.6,4.4c-1,1.4-2,2.8-3.3,3.9c-0.3,0.3-0.6,0.6-1,0.8c-0.2,0.1-0.4,0.2-0.6,0.3l-0.6,0.3c-0.2,0.1-0.4,0.1-0.6,0.2
		c-0.2,0-0.4,0.1-0.7,0.1c-0.4,0-0.9,0-1.3,0c-0.4,0-0.8-0.1-1.3-0.2c-0.4-0.1-0.8-0.2-1.2-0.4c-0.8-0.4-1.5-0.9-2-1.5
		c0.6,0.6,1.3,1.1,2.1,1.4c0.4,0.2,0.8,0.3,1.2,0.4c0.4,0.1,0.8,0.1,1.2,0.1c0.4,0,0.8,0,1.2,0c0.2,0,0.4-0.1,0.6-0.1
		c0.2-0.1,0.4-0.1,0.6-0.2l0.5-0.3l0.5-0.3c0.3-0.2,0.6-0.5,0.9-0.8c1.2-1.1,2.1-2.5,3-3.9c0.9-1.4,1.7-2.9,2.4-4.4l0.8,0.3
		c-0.6,1.7-1,3.5-1.3,5.3c-0.1,0.9-0.2,1.8-0.3,2.7c0,0.5,0,0.9,0,1.3l0.1,0.7c0,0.2,0.1,0.4,0.1,0.6l0.1,0.6l0.2,0.6
		c0.1,0.4,0.3,0.8,0.5,1.2c0.2,0.4,0.4,0.7,0.8,1.1c0.3,0.3,0.6,0.6,0.9,0.9c0.4,0.3,0.7,0.5,1.1,0.7c0.4,0.2,0.8,0.4,1.2,0.5
		c0.4,0.2,0.8,0.3,1.3,0.4c0.4,0.1,0.9,0.2,1.3,0.2l-0.4,0.6c-0.2-0.5-0.4-1-0.5-1.5c-0.2-0.5-0.3-1-0.4-1.5c-0.2-1-0.4-2-0.5-3
		c-0.3-2-0.3-4-0.1-6c0.1-2,0.4-4,0.7-6C78.3,32.6,78.6,30.6,79,28.6z"/>
	<path fill="#776AB0" d="M89.4,24.7l1.2-15.4L72.1,6.4c0,0-0.4,9.7-1.8,14.9c-1.4,5.2-3.6,8.1-3.6,8.1s7,1.5,9.4-5.2
		c1.5-4.1,0.8-10.5,0.8-10.5s2.3,10.4,6.3,11.7C87.1,26.6,89.4,24.7,89.4,24.7z"/>
	<path fill="#412F8F" d="M72.1,6.4c0,2-0.1,4-0.2,6c-0.1,2-0.3,4-0.6,6c-0.3,2-0.8,3.9-1.5,5.9c-0.3,1-0.7,1.9-1.2,2.8
		c-0.2,0.5-0.5,0.9-0.7,1.3c-0.3,0.4-0.5,0.9-0.8,1.3l-0.3-0.7c0.4,0.1,0.9,0.1,1.3,0.1c0.4,0,0.9,0,1.3-0.1
		c0.4-0.1,0.9-0.1,1.3-0.3c0.4-0.1,0.8-0.3,1.2-0.5c0.4-0.2,0.8-0.4,1.1-0.7c0.4-0.2,0.7-0.6,1-0.9c0.3-0.3,0.6-0.7,0.8-1l0.3-0.6
		l0.3-0.6c0.1-0.2,0.2-0.4,0.3-0.6l0.2-0.7c0.1-0.4,0.2-0.8,0.3-1.3c0.2-0.9,0.3-1.8,0.3-2.7c0.1-1.8,0.1-3.7-0.1-5.5l0.8-0.1
		c0.4,1.6,0.8,3.2,1.4,4.8c0.6,1.6,1.2,3.1,2.1,4.5c0.2,0.3,0.5,0.7,0.7,1l0.4,0.4l0.5,0.4c0.1,0.1,0.3,0.2,0.5,0.3
		c0.2,0.1,0.3,0.2,0.6,0.2c0.4,0.1,0.8,0.2,1.2,0.3c0.4,0.1,0.8,0.1,1.2,0.1c0.4,0,0.8,0,1.2-0.1c0.8-0.1,1.6-0.4,2.3-0.9
		c-0.7,0.5-1.5,0.9-2.3,1c-0.4,0.1-0.8,0.1-1.3,0.2c-0.4,0-0.9,0-1.3-0.1c-0.4-0.1-0.9-0.1-1.3-0.3c-0.2,0-0.4-0.1-0.6-0.2
		c-0.2-0.1-0.4-0.2-0.6-0.3l-0.5-0.4c-0.2-0.1-0.3-0.3-0.5-0.5c-0.3-0.3-0.5-0.7-0.8-1c-1-1.4-1.7-3-2.3-4.6
		c-0.6-1.6-1.1-3.2-1.5-4.9l0.8-0.1c0.2,1.9,0.3,3.8,0.2,5.7c0,0.9-0.2,1.9-0.3,2.8c-0.1,0.5-0.2,0.9-0.3,1.4l-0.2,0.7
		c-0.1,0.3-0.2,0.5-0.3,0.7L76,25.5l-0.4,0.6c-0.2,0.4-0.6,0.8-0.9,1.2c-0.4,0.3-0.7,0.7-1.1,1c-0.4,0.3-0.8,0.5-1.3,0.8
		c-0.5,0.2-0.9,0.4-1.4,0.5c-0.5,0.1-1,0.2-1.4,0.3c-0.5,0.1-1,0.1-1.5,0.1c-0.5,0-1,0-1.5-0.1l-0.7-0.1l0.4-0.6
		c0.3-0.4,0.5-0.8,0.8-1.2c0.3-0.4,0.5-0.8,0.7-1.3c0.4-0.9,0.8-1.8,1.2-2.7c0.7-1.8,1.3-3.7,1.6-5.7c0.4-1.9,0.6-3.9,0.9-5.9
		C71.8,10.4,72,8.4,72.1,6.4z"/>
	<path fill="#412F8F" d="M39.2,123.9c0,0-7-54.7,33.3-54.7c42.3,0,31,58.3,31,58.3l-31.3,4L39.2,123.9z"/>
	<path fill="#6BBE57" d="M37.9,117.9l4.3,19.4l-4.3,22c0,0,7.1,8.6,37.7,9.1c24.9,0.4,31.9-6.1,31.9-6.1l-3.7-25.3l2.9-16.1
		c0,0-11,6.8-34.5,5.8C48.7,125.5,37.9,117.9,37.9,117.9z"/>
	<path fill="#6BBE57" d="M129.4,121c-2.9-5.1-7.8-7.5-7.8-7.5l-13,6.6c0,0-0.7,0.6-2.3,1.6c-3.1,3.6-8.9,12.9-7.4,16.6
		c1.3,3.1,18-2.2,18.2-2.1l12.7-2.5C129.9,133.6,132.4,126.1,129.4,121z"/>
	<path fill="#6BBE57" d="M43.2,138.9c2.3,0.3,1.8-1.4,3-2.3c1.9-1.6-2.7-4.3-2.5-6.7c0.3-2.9,0.3-5.8,0.4-8.7c-4-1.3-6-2.5-6-2.5
		l-10-3.4c0,0-4.6,5.5-4.7,10.5c-0.1,5,2.1,9.9,2.1,9.9l9.2,0.6L43.2,138.9z"/>
	<path fill="#00793A" d="M108.2,120.3l-1.4,0.4c0,0-11,6.8-34.5,5.8c-22.3-1-32.5-8.7-33.6-9.4c3.4,4.5,11.7,13.3,32.5,14.9
		C92.8,133.7,103.8,125.1,108.2,120.3z"/>
	<path fill="#00793A" d="M31.2,116.4l-3.1-1.1c0,0-4.6,5.5-4.7,10.5c-0.1,5,2.1,9.9,2.1,9.9l2.6,0.2c-0.3-2.7-0.6-6.2-0.2-10.1
		C28.3,121.2,29.9,118.1,31.2,116.4z"/>
	<path fill="#00793A" d="M129.9,133.6c0,0,2.5-7.6-0.4-12.7c-2.9-5.1-7.8-7.5-7.8-7.5l-1.5,0.8c1.7,1.4,4,4,5.4,8.4
		c1.4,4.4,2,8.5,2.2,11.2L129.9,133.6z"/>
	<path fill="#412F8F" d="M16.1,90.1c-1.4,0-2.7-1.3-3-3.1C13,87.3,13,87.7,13,88c0,2.3,1.4,4.1,3.1,4.1c1.7,0,3.1-1.8,3.1-4.1
		c0-0.4,0-0.7-0.1-1C18.7,88.8,17.5,90.1,16.1,90.1z"/>
	<path fill="#412F8F" d="M20.1,85.7c-1.4,0-2.7-1.3-3-3.1C17,83,17,83.3,17,83.7c0,2.3,1.4,4.1,3.1,4.1c1.7,0,3.1-1.8,3.1-4.1
		c0-0.4,0-0.7-0.1-1C22.7,84.4,21.5,85.7,20.1,85.7z"/>
	<path fill="#412F8F" d="M34.4,89.7c-1.4,0-2.7-1.3-3-3.1c-0.1,0.3-0.1,0.7-0.1,1c0,2.3,1.4,4.1,3.1,4.1s3.1-1.8,3.1-4.1
		c0-0.4,0-0.7-0.1-1C37.1,88.4,35.9,89.7,34.4,89.7z"/>
	<path fill="#412F8F" d="M133.5,97.6c-1.4,0-2.7-1.3-3-3.1c-0.1,0.3-0.1,0.7-0.1,1c0,2.3,1.4,4.1,3.1,4.1s3.1-1.8,3.1-4.1
		c0-0.4,0-0.7-0.1-1C136.2,96.2,135,97.6,133.5,97.6z"/>
	<path fill="#412F8F" d="M37.2,74.6c1.1-0.2,1.8,7.3,4.7,13.3c3.1,6.7,8.3,12,8.3,12l-2,10.3c0,0-5,0.3-9-3.3c-4-3.7-6.7-6-8-16.3
		C29.9,80.3,34.9,74.9,37.2,74.6z"/>
	<path fill="#412F8F" d="M108.2,72.6c-1.1-0.2-1.8,7.3-4.7,13.3c-3.1,6.7-8.3,12-8.3,12l2,10.3c0,0,5,0.3,9-3.3c4-3.7,6.7-6,8-16.3
		C115.5,78.3,110.5,72.9,108.2,72.6z"/>
	<path fill="#754C29" d="M67.3,67.1c0,0-4.4-4.5-9.9-3.7c-5.5,0.8-8.1,4.2-8.1,4.2l6.3,0.6c0,0-5.2,0-9.7,5.9
		c-4.4,5.9-3.1,14.6-3.1,14.6s1-2.8,5-5.6c3.9-2.8,8.6-2.5,8.6-2.5s-3.1,3.5-1.8,7.9c1.8,6.2,5.5,6.7,5.5,6.7s-1.3-3.9,0.8-9
		c2.3-5.6,5.5-5.6,5.5-5.6s-0.5,3.4,0.5,7.3c1,3.9,6.8,6.7,6.8,6.7s3.1-23.8,0-29.3c-3.1-5.5-8.6-4.9-8.6-4.9L67.3,67.1z"/>
	<path fill="#754C29" d="M77.7,66.2c0,0,4.4-4.5,9.9-3.7c5.5,0.8,8.1,4.2,8.1,4.2l-6.3,0.6c0,0,5.2,0,9.7,5.9
		c4.4,5.9,3.1,14.6,3.1,14.6s-1-2.8-5-5.6s-8.6-2.5-8.6-2.5s3.1,3.5,1.8,7.9c-1.8,6.2-5.5,6.7-5.5,6.7s1.3-3.9-0.8-9
		c-2.3-5.6-5.5-5.6-5.5-5.6s0.5,3.4-0.5,7.3c-1,3.9-4.6,7.6-4.6,7.6s-5.3-24.7-2.2-30.2c3.1-5.5,8.6-4.9,8.6-4.9L77.7,66.2z"/>
	<path fill="#754C29" d="M62.8,75.8c0,0-1.4,2.6-1.3,6.2c0.2,3.6,3.8,6.6,3.8,6.6s-0.1-1.2,1.5-5.2c2-4.9,2.9-4.8,2.9-4.8L62.8,75.8
		z"/>
	<path fill="#754C29" d="M82.1,74.5c0,0,1.5,2.5,1.4,6.2c-0.1,3.6-3.7,6.7-3.7,6.7s0.1-1.2-1.6-5.1c-2.1-4.9-3-4.8-3-4.8L82.1,74.5z
		"/>
</g>
<g id="monster_1_arms_up_legs_up">
</g>
<g id="monster_1_arms_down_legs_down">
</g>
<g id="monster_1_arms_down_legs_up">
	<polygon fill="#00793A" points="63.8,134.5 57.5,137.5 57.2,140.7 62.1,141.1 59.8,156.4 55.5,156 54.3,163.1 70.3,164.8 
		70.4,157.4 66,157 68.1,134.9 	"/>
	<path fill="#00793A" d="M83.9,135.3c-7.2,0-12.5,5.4-12.5,14.7c0,9.3,5.1,15.3,12.3,15.3c7.2,0,12-5.3,12-14.6
		C95.7,141.4,91.2,135.3,83.9,135.3z M83.5,158.9c-4,0-5.6-3.1-5.6-8.6s1.8-9.2,5.8-9.2c4,0,5.4,3.5,5.4,9S87.4,158.9,83.5,158.9z"
		/>
</g>
<g id="monster_1_arms_up_legs_down_copy">
</g>
<g id="bell_idle">
</g>
<g id="bell_pull_1">
</g>
<g id="bell_pull_2">
</g>
</svg>
