<?xml version="1.0" encoding="utf-8"?>
<!-- Generator: Adobe Illustrator 20.0.0, SVG Export Plug-In . SVG Version: 6.00 Build 0)  -->
<!DOCTYPE svg PUBLIC "-//W3C//DTD SVG 1.1//EN" "http://www.w3.org/Graphics/SVG/1.1/DTD/svg11.dtd">
<svg version="1.1" xmlns="http://www.w3.org/2000/svg" xmlns:xlink="http://www.w3.org/1999/xlink" x="0px" y="0px"
	 viewBox="0 0 147.4 229.8" enable-background="new 0 0 147.4 229.8" xml:space="preserve" width="147.4" height="229.8" preserveAspectRatio="none">
<g id="rope_placement">
</g>
<g id="Rope">
</g>
<g id="monster_1_arms_up_legs_down">
</g>
<g id="monster_1_arms_up_legs_up">
</g>
<g id="monster_1_arms_down_legs_down">
	<path fill="#EC008C" d="M39.7,149.4L32.2,171l4.3,26.7l-9.8,4.9c0,0,10,2.2,14.5-2.4c4.5-4.6,3.2-6.2,3.2-6.2l-10.2-22.3
		c0,0,3.5-2.9,6.3-7c2.8-4.2,3.1-12.9,3.1-12.9L39.7,149.4z"/>
	<path fill="#EC008C" d="M55.4,163.9l-4,22.5l8.3,25.7l-9,6.3c0,0,10.2,0.6,13.9-4.6c3.7-5.3,2.3-6.6,2.3-6.6l-13.5-20.5
		c0,0,3-3.4,5.1-7.9c2.1-4.5,1.1-13.2,1.1-13.2L55.4,163.9z"/>
	<path fill="#EC008C" d="M108.4,149.4l7.5,21.7l-4.3,26.7l9.8,4.9c0,0-10,2.2-14.5-2.4c-4.5-4.6-3.2-6.2-3.2-6.2l10.2-22.3
		c0,0-3.5-2.9-6.3-7c-2.8-4.2-3.1-12.9-3.1-12.9L108.4,149.4z"/>
	<path fill="#EC008C" d="M93.9,163.9l4,22.5l-8.3,25.7l9,6.3c0,0-10.2,0.6-13.9-4.6c-3.7-5.3-2.3-6.6-2.3-6.6l13.5-20.5
		c0,0-3-3.4-5.1-7.9c-2.1-4.5-1.1-13.2-1.1-13.2L93.9,163.9z"/>
	<path fill="#D91B5A" d="M27.6,105.6c0,0-22.6-8.1-17.6-25.2c13.5-46.2,70-51.9,70-51.9l14.2,14.7c0,0-17.8,1-39.3,11
		c-28.9,13.5-29.7,29-29.7,29l7.3,14.3L27.6,105.6z"/>
	<path fill="#D91B5A" d="M41.6,37.4c0.6,9.4,8.2,16.1,20.5,15.4c12.3-0.7,24.5-13.8,24-18.1c-0.5-4.2-11-16.4-23.3-15.7
		C50.5,19.7,41,28,41.6,37.4z"/>
	<path fill="#EC008C" d="M120.8,106c0,0,22.6-8.1,17.6-25.2c-13.5-46.2-62.4-59.4-62.4-59.4L61.4,39.4c0,0,12.1,2.3,32.1,15.2
		c27.3,17.6,29.7,29,29.7,29l-7.3,14.3L120.8,106z"/>
	<path fill="#63CBE9" d="M105,101c-0.4-3.2-0.1-3.2-0.1-6.4c4.5-1.5,6.6-3.1,6.6-3.1l10.8-6.6c0,0,5,6.1,5.2,11.6
		c0.2,5.6-2.3,10.9-2.3,10.9l-21-1C104.2,106.3,105.3,103.6,105,101z"/>
	<path fill="#35479D" d="M121.1,107.2l4.1,0.2c0,0,2.4-5.3,2.3-10.9c-0.2-5.6-5.2-11.6-5.2-11.6l-3.1,1.9c2,3.8,4.1,9.1,3.6,13.8
		C122.5,102.9,121.9,105.1,121.1,107.2z"/>
	<path fill="#EC008C" d="M92.6,27.7c-1.7,9.3-10.1,15-22.2,12.7c-12.1-2.3-22.6-16.8-21.6-20.9c1-4.1,12.9-15,25-12.7
		C85.9,9.1,94.3,18.4,92.6,27.7z"/>
	<path fill="#92278F" d="M82.3,31.4l-6.2-7.3l-11.7,2.6l-6.1-7l-9.7,0.6c0.1,0.7,0.3,1.7,0.8,2.7l8.4-1.5l6,7.5l12.4-3.4L82.3,31.4z
		"/>
	
		<ellipse transform="matrix(0.1827 -0.9832 0.9832 0.1827 48.0639 82.4542)" fill="#A03E97" cx="73.6" cy="12.3" rx="1.5" ry="2.4"/>
	<ellipse transform="matrix(0.1834 -0.983 0.983 0.1834 49.9494 89.6146)" fill="#A03E97" cx="78.9" cy="14.7" rx="0.9" ry="1.3"/>
	<ellipse transform="matrix(0.183 -0.9831 0.9831 0.183 44.1496 87.4692)" fill="#A03E97" cx="74.7" cy="17.2" rx="0.9" ry="1.3"/>
	<path fill="#92278F" d="M61.2,48.7c0,0,2.8,1.7,4.7,5.5c1.9,3.9,0.8,11.6,0.8,11.6h3.6c0,0,0.3-7.2-1.7-11.3
		c-1.9-4.1-5.5-6.3-5.5-6.3L61.2,48.7z"/>
	<path fill="#92278F" d="M87.1,48.7c0,0-2.8,1.7-4.7,5.5c-1.9,3.9-0.8,11.6-0.8,11.6H78c0,0-0.3-7.2,1.7-11.3
		c1.9-4.1,5.5-6.3,5.5-6.3L87.1,48.7z"/>
	<path fill="#35479D" d="M47.1,135.4l-12.4,11c0,0,3.6,5.9,12.1,10.3c8.4,4.4,14.5,4.9,14.5,4.9l6.3-19.6L47.1,135.4z"/>
	<path fill="#35479D" d="M103.7,135.9l12.4,11c0,0-3,5.2-8.5,8.5c-5.5,3.3-18,6.8-18,6.8l-6.3-19.6L103.7,135.9z"/>
	<path fill="#FEBC23" d="M39.8,126c0,0-1.8,24.2,34.6,25.7c42.8,1.8,35.1-28.6,35.1-28.6L39.8,126z"/>
	<path fill="#35479D" d="M97.7,146.6l7.4,14.8c0,0-4.7,3.7-11.1,4.7c-6.3,1-19.2-0.4-19.2-0.4l1.4-20.5L97.7,146.6z"/>
	<path fill="#35479D" d="M39.4,128.6c0,0-9.3,24.4,34.8,25.2c48.4,0.9,36.1-23.8,36.1-23.8L39.4,128.6z"/>
	<path fill="#EC008C" d="M39.2,94.2c0,0-4.6-35.9,34.1-36.9c40.8-1.1,35.2,40.5,35.2,40.5l-33.7,3.9L39.2,94.2z"/>
	<path fill="#63CBE9" d="M38.9,88.7l-0.2,17.6l-1.8,28.2c0,0,7.8,8.2,41.6,8.8c27.4,0.5,35.2-5.5,35.2-5.5l-4-29.4l2.1-16.9
		c0,0-10.9,7.8-37.8,6.3C48,96.2,38.9,88.7,38.9,88.7z"/>
	<path fill="#63CBE9" d="M43.4,100.6c0.4-3.2,0.4-6.4,0.4-9.5c-4.5-2-6.7-2.8-6.7-2.8l-11-3.8c0,0-5,6.1-5.2,11.6
		c-0.2,5.6,2.3,10.9,2.3,10.9l21-1C44.2,106,43.1,103.2,43.4,100.6z"/>
	<path fill="#35479D" d="M25.6,100c-0.6-5,1.9-10.6,4-14.3l-3.4-1.2c0,0-5,6.1-5.2,11.6c-0.2,5.6,2.3,10.9,2.3,10.9l4.1-0.2
		C26.5,104.7,25.9,102.4,25.6,100z"/>
	<path fill="#35479D" d="M109.1,93.4l-0.3-1.5c0,0-8.1,6.2-34.1,5c-24.6-1.1-34.6-7.4-35.8-8.2c3.8,5,11.7,12.4,34.7,14.3
		C97.4,104.9,104.3,98.7,109.1,93.4z"/>
	<path fill="#35479D" d="M53.8,146.7l-7.4,14.8c0,0,4.7,3.7,11.1,4.7c6.3,1,19.2-0.4,19.2-0.4l-1.4-20.5L53.8,146.7z"/>
	<circle fill="#92278F" cx="59.1" cy="43.1" r="10.2"/>
	<circle fill="#92278F" cx="90.4" cy="42.7" r="10.2"/>
	<circle fill="#92278F" cx="54.5" cy="76.4" r="3.4"/>
	<circle fill="#A03E97" cx="63.8" cy="85.5" r="2.3"/>
	<circle fill="#A03E97" cx="68.4" cy="67.5" r="1.7"/>
	<circle fill="#92278F" cx="88.5" cy="85.1" r="3"/>
	<circle fill="#A03E97" cx="94.1" cy="73.9" r="1.8"/>
</g>
<g id="monster_1_arms_down_legs_up">
	<polygon fill="#35479D" points="74.8,106.9 65.7,110.9 65.9,114.2 73.3,113.9 72.7,130.1 66.2,130.3 65.7,137.8 90.2,137.1 
		89,129.4 82.3,129.7 81.3,106.6 	"/>
</g>
<g id="monster_1_arms_up_legs_down_copy">
</g>
<g id="bell_idle">
</g>
<g id="bell_pull_1">
</g>
<g id="bell_pull_2">
</g>
</svg>
