<?xml version="1.0" encoding="utf-8"?>
<!-- Generator: Adobe Illustrator 19.2.0, SVG Export Plug-In . SVG Version: 6.00 Build 0)  -->
<!DOCTYPE svg PUBLIC "-//W3C//DTD SVG 1.1//EN" "http://www.w3.org/Graphics/SVG/1.1/DTD/svg11.dtd">
<svg version="1.1" xmlns="http://www.w3.org/2000/svg" xmlns:xlink="http://www.w3.org/1999/xlink" x="0px" y="0px"
	 viewBox="0 0 147.4 229.8" enable-background="new 0 0 147.4 229.8" xml:space="preserve" width="147.4" height="229.8" preserveAspectRatio="none">
<g id="rope_placement">
</g>
<g id="Rope">
</g>
<g id="monster_1_arms_up_legs_down">
</g>
<g id="monster_1_arms_up_legs_up">
</g>
<g id="monster_1_arms_down_legs_down">
</g>
<g id="monster_1_arms_down_legs_up">
	<g>
		<path fill="#185E93" d="M142.1,58.1c0,0-8-17.4-5.1-27.6c0,0-15.1,1.7-3.9,21.7c0,0-7.4-9.4-11.4-9.1c-3.9,0.3-4.9,1.5-5.8,2.5
			c-4.2,4.5,2.3,8.4,2.3,8.4l14.4,11.4L142.1,58.1z"/>
		<path fill="#185E93" d="M117.5,117c0,0,13.1,19.3,22.9-10.2c9.8-29.5,1.7-48.7,1.7-48.7l-20.3,10.2c0,0,13.2,16.6,1.3,40.1
			c-7.8,15.5-6.8,4.6-6.8,4.6L117.5,117z"/>
		<path fill="#185E93" d="M28.1,122.8c0,0-30,9.8-16.8-23.2s50.3-40.7,50.3-40.7l6.9,21.4c0,0-26.5,3.3-38.7,29.5s3,8.7,3,8.7
			L28.1,122.8z"/>
		<ellipse transform="matrix(0.604 -0.797 0.797 0.604 8.1332 122.1945)" fill="#27AAE1" cx="127" cy="52.9" rx="5.1" ry="11.4"/>
		
			<ellipse transform="matrix(0.6041 -0.7969 0.7969 0.6041 8.0209 120.8697)" fill="#185E93" cx="125.7" cy="52.4" rx="4.7" ry="11.4"/>
		
			<ellipse transform="matrix(0.3283 -0.9446 0.9446 0.3283 18.321 159.4998)" fill="#27AAE1" cx="121.3" cy="66.9" rx="5.3" ry="10.1"/>
		
			<ellipse transform="matrix(0.3283 -0.9446 0.9446 0.3283 17.7919 157.6851)" fill="#185E93" cx="119.8" cy="66.3" rx="5.3" ry="10.1"/>
		<g>
			<path fill="#27AAE1" d="M142.1,58.1c-1-2.2-1.9-4.4-2.7-6.6c-0.9-2.2-1.7-4.5-2.3-6.8c-0.7-2.3-1.1-4.7-1.4-7.1
				c-0.1-1.2-0.1-2.4-0.1-3.6c0-0.6,0-1.2,0.1-1.8c0.1-0.6,0.1-1.2,0.2-1.8l0.6,0.6c-0.5,0.1-1,0.3-1.5,0.5c-0.5,0.2-1,0.5-1.4,0.7
				c-0.9,0.6-1.7,1.2-2.4,2c-1.4,1.6-1.9,3.7-1.9,5.8c0,0.3,0,0.5,0,0.8l0.1,0.8c0.1,0.5,0.2,1,0.3,1.6c0.1,0.5,0.3,1,0.5,1.6
				c0.2,0.5,0.4,1,0.6,1.5c0.8,2,1.8,4,2.9,5.9l-0.8,0.6c-1.2-1.6-2.5-3.1-4-4.6c-1.4-1.4-2.9-2.8-4.6-3.8c-0.9-0.5-1.8-0.9-2.7-1.1
				c-0.5-0.1-0.9,0-1.5,0c-0.3,0-0.5,0.1-0.7,0.2c-0.2,0.1-0.5,0.1-0.7,0.2c-1.9,0.7-3.5,2.2-4.2,4.1c0.6-2,2.2-3.6,4.1-4.4
				c0.2-0.1,0.5-0.2,0.7-0.3c0.3-0.1,0.5-0.2,0.8-0.2c0.5-0.1,1.1-0.2,1.6-0.1c1.1,0.1,2.1,0.5,3,1c1.8,1,3.4,2.4,4.9,3.8
				c1.5,1.4,2.9,2.9,4.2,4.6l-0.8,0.6c-1.2-1.9-2.2-3.9-3-6c-0.2-0.5-0.4-1.1-0.6-1.6c-0.2-0.5-0.4-1.1-0.5-1.6
				c-0.2-0.5-0.3-1.1-0.4-1.7l-0.1-0.8c0-0.3,0-0.6-0.1-0.9c0-0.6,0-1.2,0.1-1.8c0.1-0.6,0.2-1.2,0.4-1.7c0.4-1.1,1-2.2,1.7-3.1
				c0.8-0.9,1.7-1.7,2.7-2.3c0.5-0.3,1-0.6,1.5-0.8c0.5-0.2,1.1-0.4,1.7-0.6l0.8-0.2l-0.2,0.8c-0.1,0.5-0.2,1.1-0.2,1.7
				c-0.1,0.6-0.1,1.2-0.1,1.7c0,1.2,0,2.3,0,3.5c0.1,2.3,0.5,4.7,1.1,6.9c0.6,2.3,1.3,4.6,2,6.8C140.5,53.6,141.3,55.8,142.1,58.1z"
				/>
		</g>
		<path fill="#185E93" d="M15.9,125.4c-4.9-0.7-12.7-5.6-12.7-5.6s3.9-4.4,15.3-3.2s22.9,8.6,22.9,8.6l-4.1,2
			C37.2,127.2,20.8,126.1,15.9,125.4z"/>
		<path fill="#185E93" d="M138.4,119.5c3.6-1.9,8-7.4,8-7.4s-4.6-1.9-13.1,2.1s-14.9,12.4-14.9,12.4l10.5-1.4
			C128.9,125.1,134.8,121.4,138.4,119.5z"/>
		<path fill="#27AAE1" d="M59,164.7c0,0-14.8,5.3-13.4,17.7c1.4,12.4,16.3,17.9,16.3,17.9s-2.4-1.2-7,3.5
			c-4.5,4.7-4.9,14.9-4.9,14.9l6.3-7.1l1.8,14c0,0,8.8-6.9,12.5-13.2c3.7-6.3,4.8-12.9,4.8-12.9s-17.8-7.3-19.5-16.6
			c-1.7-9.4,8.2-16.7,8.2-16.7L59,164.7z"/>
		<path fill="#27AAE1" d="M88.9,165.4c0,0,14.8,5.3,13.4,17.7c-1.4,12.4-16.3,17.9-16.3,17.9s2.4-1.2,7,3.5c4.5,4.7,5,14.9,5,14.9
			l-6.3-7.1l-1.8,14c0,0-8.8-6.9-12.5-13.2c-3.7-6.3-4.8-12.9-4.8-12.9s17.8-7.3,19.5-16.6c1.7-9.4-8.2-16.7-8.2-16.7L88.9,165.4z"
			/>
		<path fill="#D2421E" d="M50,154.9l-11.3,9.9c0,0,3.3,5.4,11,9.4c7.7,4,13.1,4.5,13.1,4.5l5.8-17.8L50,154.9z"/>
		<path fill="#D2421E" d="M93.2,154.9l11.3,9.9c0,0-2.7,4.7-7.7,7.7c-5,3-16.3,6.1-16.3,6.1L74.6,161L93.2,154.9z"/>
		<path fill="#D2421E" d="M36.9,143.8c0,0,1,22.6,34.1,24c38.9,1.6,36.6-26.6,36.6-26.6L36.9,143.8z"/>
		<path fill="#F7941E" d="M111.2,204c-1.2-1-14.1,5.5-14.1,5.5l6.1,4.8C103.1,214.3,112.4,205,111.2,204z"/>
		<path fill="#F7941E" d="M102,200.5c-1.1-0.9-12.2,3.5-12.2,3.5l5.7,4.2C95.5,208.1,103.1,201.4,102,200.5z"/>
		
			<ellipse transform="matrix(0.3283 -0.9446 0.9446 0.3283 26.6045 156.9675)" fill="#27AAE1" cx="123.7" cy="59.8" rx="4.9" ry="11.4"/>
		
			<ellipse transform="matrix(0.3283 -0.9446 0.9446 0.3283 26.1368 155.3665)" fill="#185E93" cx="122.3" cy="59.3" rx="4.9" ry="11.4"/>
		<path fill="#185E93" d="M62.5,143.6c0,0-10,25.4,3.9,44.8c19,26.5,44.5,30.2,44.5,30.2S87.9,202.7,85.3,189
			c-2.6-13.4,8.9-36,8.9-36L62.5,143.6z"/>
		<path fill="#F7941E" d="M41.7,49.6c1.3,0.3,2.8,5.8,7.3,10.5s14.5,5,14.5,5L57,80.6c0,0-8.5-3.3-13.8-12S40.5,49.3,41.7,49.6z"/>
		<path fill="#F7941E" d="M103.9,50.7c-1.3,0.3-2.8,5.8-7.3,10.5s-14.5,5-14.5,5l6.5,15.5c0,0,8.5-3.3,13.8-12
			S105.1,50.5,103.9,50.7z"/>
		<path fill="#27AAE1" d="M36.6,87.9c-5,10.7-2.5,16.5-2.5,16.5l5.1-4.9c0,0-4.6,14-5.9,27.8c-0.1,0.7-0.1,1.4-0.1,2.1
			c25.3,3.4,51,2.6,76.4-0.4c-1.1-11.6-6.8-26.1-6.8-26.1l5.8,4.7c0,0,0-9.3-3.3-15c-2.7-4.8-3-3.6-3-3.6s8.4,4.7,9,1.6
			c2.3-10.5-15.7-24.2-15.7-24.2l15.2,6.5c0,0,1.3-6.3-7.8-11.7c-9.1-5.4-16.6-4-16.6-4l9.6-4.2c0,0-4.8-5.5-15.3-2.5
			c-7.8,2.3-11.8,7.5-11.8,7.5s-12.3-11.1-16.9-6.5c-3.5,3.5,5,9.6,5,9.6s-12.7,0.5-19,6.6c-6.3,6.2-6.5,14.8-6.5,14.8l10.6-6.3
			C42.2,76.1,40.8,79.1,36.6,87.9z"/>
		<path fill="#F3C936" d="M36.9,109.4l-4.7,17.3l3.9,22.8c0,0,7.9,9.9,38.5,10.4c24.9,0.4,33.7-9.6,33.7-9.6l2.6-21.7l-5.2-16.2
			c0,0-11,6.8-34.5,5.8C47.7,117,36.9,109.4,36.9,109.4z"/>
		<path fill="#F3C936" d="M128.4,112.5c-2.9-5.1-7.8-7.5-7.8-7.5l-13,6.6c0,0-0.7,0.6-2.3,1.6c1.1,3.9-1.4,10.2,0.1,13.8
			c1.3,3.1,10.5,0.6,10.7,0.7l12.7-2.5C128.9,125.1,131.4,117.6,128.4,112.5z"/>
		<path fill="#F3C936" d="M36.6,128.9c2.3,0.3,2.3,0.5,3.5-0.5c1.9-1.6,2.4-4.6,2.7-7c0.3-2.9,0.3-5.8,0.4-8.7c-4-1.3-6-2.5-6-2.5
			l-10-3.4c0,0-4.6,5.5-4.7,10.5c-0.1,5,2.1,9.9,2.1,9.9l9.2,0.6L36.6,128.9z"/>
		<path fill="#D2421E" d="M107.2,111.8l-1.4,0.4c0,0-11,6.8-34.5,5.8c-22.3-1-32.5-8.7-33.6-9.4c3.4,4.5,11.7,13.3,32.5,14.9
			C91.8,125.3,102.8,116.6,107.2,111.8z"/>
		<path fill="#D2421E" d="M30.2,107.9l-3.1-1.1c0,0-4.6,5.5-4.7,10.5c-0.1,5,2.1,9.9,2.1,9.9l2.6,0.2c-0.3-2.7-0.6-6.2-0.2-10.1
			C27.3,112.7,28.9,109.6,30.2,107.9z"/>
		<path fill="#D2421E" d="M128.9,125.1c0,0,2.5-7.6-0.4-12.7c-2.9-5.1-7.8-7.5-7.8-7.5l-1.5,0.8c1.7,1.4,4,4,5.4,8.4
			c1.4,4.4,2,8.5,2.2,11.2L128.9,125.1z"/>
		<path fill="#D2421E" d="M86.3,148.7c0,2.4-1.3,4.3-3.9,5.7c-2.3,1.3-5.2,1.9-8.6,1.8c-9.6-0.1-14.5-2.8-14.8-8.2l-0.2-4.7
			l10.8,0.4l-0.2,0.9c-0.1,0.3-0.2,0.5-0.2,0.8c0,1.2,1,1.8,3.1,1.8c1.9,0,3.1-0.2,3.6-0.8c0.3-0.3,0.5-1,0.5-2.1v-1.6
			c0-1.2-0.9-1.8-2.6-1.8c-0.3,0-0.9,0-2,0.1c-1.1,0-1.9,0.1-2.4,0.1v-2.9l11.1-6.5l-14,1.1v0.7l-6.7,0.2l-0.7-8.1l26.7-0.1l0.3,7.6
			l-9.4,5.2h0.2c3.6,0,6.1,0.4,7.4,1.3c1.3,0.9,2,2.5,2,4.7V148.7z"/>
		<g>
			<path fill="#185E93" d="M66.9,85.9c-0.8,0.3-1.4,0.8-1.9,1.4c-0.5,0.6-1,1.3-1.4,2c-0.7,1.4-1.2,3-1.4,4.5
				c-0.2,1.6-0.1,3.1,0.2,4.7c0.3,1.5,0.8,3.1,1.5,4.4l-1.4-0.1c1.7-2.9,3.5-5.8,5.2-8.8l1.3-2.2l0.4,2.6c0.2,1.4,0.6,2.8,1.1,4.1
				c0.5,1.3,1.1,2.5,1.9,3.6c0.8,1.1,1.8,2.1,2.9,2.9c1.1,0.8,2.4,1.5,3.6,1.9l-1.2,1.2c-0.5-1.5-0.7-3-0.9-4.5
				c-0.2-1.5-0.2-3,0-4.6c0.1-1.5,0.6-3,1.2-4.4c0.6-1.4,1.2-2.7,2-4l1.8-2.9L81.2,91c-0.2,1-0.4,2-0.5,3c-0.1,1-0.1,2.1,0,3.1
				c0.1,1,0.5,2,0.9,2.9c0.4,0.9,0.9,1.9,1.7,2.6c-0.9-0.6-1.5-1.5-2-2.4c-0.5-0.9-0.9-1.9-1.2-3c-0.2-1.1-0.3-2.1-0.3-3.2
				c0-1.1,0.1-2.1,0.3-3.2l1.1,0.4c-0.6,1.3-1.2,2.6-1.6,3.9c-0.5,1.4-0.7,2.7-0.9,4.1c-0.1,1.4-0.1,2.8,0.1,4.2
				c0.2,1.4,0.5,2.8,0.9,4.1l0.6,1.8l-1.8-0.6c-1.6-0.5-2.9-1.3-4.2-2.2c-1.3-0.9-2.4-2-3.4-3.3c-1-1.2-1.7-2.7-2.2-4.2
				c-0.5-1.5-0.9-2.9-1.1-4.5l1.8,0.4c-1.8,2.9-3.6,5.8-5.5,8.6l-0.8,1.2l-0.6-1.3c-0.7-1.6-1.2-3.2-1.4-4.9
				c-0.2-1.7-0.2-3.4,0.1-5.1c0.4-1.7,1-3.2,1.9-4.6C64.1,87.6,65.3,86.3,66.9,85.9z"/>
		</g>
	</g>
</g>
<g id="monster_1_arms_up_legs_down_copy">
</g>
<g id="bell_idle">
</g>
<g id="bell_pull_1">
</g>
<g id="bell_pull_2">
</g>
</svg>
