<?xml version="1.0" encoding="utf-8"?>
<!-- Generator: Adobe Illustrator 20.0.0, SVG Export Plug-In . SVG Version: 6.00 Build 0)  -->
<!DOCTYPE svg PUBLIC "-//W3C//DTD SVG 1.1//EN" "http://www.w3.org/Graphics/SVG/1.1/DTD/svg11.dtd">
<svg version="1.1" xmlns="http://www.w3.org/2000/svg" xmlns:xlink="http://www.w3.org/1999/xlink" x="0px" y="0px"
	 viewBox="0 0 147.4 229.8" enable-background="new 0 0 147.4 229.8" xml:space="preserve" width="147.4" height="229.8" preserveAspectRatio="none">
<g id="rope_placement">
</g>
<g id="Rope">
</g>
<g id="monster_1_arms_up_legs_down">
</g>
<g id="monster_1_arms_up_legs_up">
</g>
<g id="monster_1_arms_down_legs_down">
</g>
<g id="monster_1_arms_down_legs_up">
	<path fill="#633270" d="M91.7,8.7c1.2,0.4,1.6,3.7-0.6,7.8c-2.2,4-8.4,7.4-8.4,7.4l-7.2-6.4c0,0,5.5,1,11.4-3.7
		C89.8,11.5,90.5,8.3,91.7,8.7z"/>
	<path fill="#633270" d="M56.7,15.1c-1.1,0.6-0.9,4,2,7.5c2.9,3.5,9.6,5.7,9.6,5.7l5.9-7.6c0,0-5.3,2-11.9-1.5
		C59.2,17.5,57.8,14.5,56.7,15.1z"/>
	<path fill="#8D4F9F" d="M69.2,131.4c0.1,1,0.2,1.8,0.4,2.7c0.1,0.8,0.3,1.7,0.4,2.5c0.3,1.7,0.7,3.3,1.1,5
		c0.9,3.3,1.9,6.7,3.5,10.1c0.8,1.7,1.8,3.4,3,5.1c1.2,1.7,2.8,3.4,5,4.8c0.3,0.2,0.5,0.3,0.8,0.5l0.4,0.2l0.1,0.1
		c0.1,0.1,0.1,0,0.1,0.1l0.1,0.1l0.6,0.3l0.7,0.3c0.9,0.3,1.8,0.6,2.7,0.9c1.8,0.5,3.5,0.9,5.2,1.1c3.3,0.5,6.1,0.7,8.3,1.5
		c1.1,0.4,2.2,0.9,3.1,1.6c0.5,0.3,1,0.7,1.4,1.2c0.5,0.4,0.9,0.9,1.3,1.4c1.5,1.8,2.3,4.2,2.5,6.9c0.1,1.3,0,2.7-0.1,4.1
		c-0.1,0.7-0.2,1.4-0.4,2.1c-0.2,0.7-0.4,1.4-0.5,1.9l-0.1,0.2c-0.4,1.3,0.2,2.6,1.5,3c1.2,0.4,2.4-0.1,2.9-1.2
		c0.4-0.9,0.7-1.6,1-2.5c0.3-0.8,0.5-1.6,0.8-2.5c0.4-1.7,0.7-3.4,0.8-5.2c0.2-3.5-0.6-7.4-2.7-10.7c-0.5-0.8-1-1.5-1.6-2.3
		c-0.6-0.7-1.2-1.4-1.8-2.1c-1.3-1.4-2.9-2.6-4.6-3.5c-3.4-1.9-6.8-2.7-9.5-3.6c-1.4-0.5-2.6-0.9-3.7-1.5c-0.6-0.3-1.1-0.6-1.6-0.9
		l-0.8-0.5l-0.1-0.1c0,0-0.1-0.1,0,0l0,0l-0.1-0.1l-0.1-0.1c-0.8-0.8-1.8-2.8-2.5-5.2c-0.7-2.4-1.1-5.1-1.4-7.8
		c-0.1-1.4-0.2-2.8-0.2-4.2c0-0.7,0-1.4,0-2.1c0-0.7,0-1.4,0.1-1.9c0.3-4.4-3-8.3-7.4-8.7c-4.4-0.3-8.3,3-8.6,7.4c0,0.5,0,0.9,0,1.4
		L69.2,131.4z"/>
	<path fill="#9F6DAE" d="M74.8,126.8c-0.4,1-0.6,1.7-0.9,2.6c-0.3,0.8-0.5,1.6-0.8,2.5c-0.5,1.6-0.9,3.3-1.3,5
		c-0.8,3.4-1.3,6.8-1.5,10.6c-0.1,1.9,0,3.8,0.3,5.9c0.3,2.1,1,4.3,2.3,6.5c0.2,0.3,0.3,0.5,0.5,0.8l0.3,0.4l0.1,0.1
		c0.1,0.1,0,0.1,0.1,0.1l0.1,0.1l0.4,0.5l0.5,0.6c0.6,0.7,1.3,1.4,2,2c1.4,1.3,2.8,2.4,4.1,3.3c2.7,1.9,5.1,3.4,6.7,5.1
		c0.8,0.8,1.5,1.8,2.1,2.8c0.3,0.5,0.5,1.1,0.8,1.7c0.2,0.6,0.4,1.2,0.5,1.8c0.5,2.3,0.2,4.8-0.9,7.3c-0.5,1.2-1.2,2.4-2,3.5
		c-0.4,0.6-0.8,1.1-1.3,1.7c-0.4,0.5-1,1.1-1.4,1.5l-0.1,0.1c-1,0.9-1,2.4-0.1,3.4c0.8,0.9,2.2,1,3.2,0.3c0.8-0.6,1.4-1.1,2-1.7
		c0.6-0.6,1.2-1.2,1.8-1.8c1.1-1.3,2.2-2.7,3.1-4.3c1.8-3.1,2.8-6.9,2.5-10.8c-0.1-1-0.2-1.8-0.4-2.7c-0.2-0.9-0.4-1.8-0.7-2.7
		c-0.6-1.8-1.5-3.6-2.5-5.2c-2.2-3.2-4.9-5.5-6.9-7.6c-1-1-1.9-2-2.6-3c-0.4-0.5-0.7-1-1-1.5l-0.5-0.8l-0.1-0.1c0,0-0.1-0.1,0,0l0,0
		l0-0.1l-0.1-0.2c-0.3-1-0.4-3.3,0.1-5.7c0.5-2.4,1.3-5,2.3-7.6c0.5-1.3,1.1-2.6,1.7-3.8c0.3-0.6,0.6-1.3,0.9-1.9
		c0.3-0.6,0.7-1.3,0.9-1.7c2.3-3.8,1.1-8.7-2.6-11.1c-3.8-2.3-8.7-1.1-11.1,2.6c-0.2,0.4-0.4,0.8-0.6,1.2L74.8,126.8z"/>
	<path fill="#9F6DAE" d="M83.1,124c0,1,0.1,1.8,0.1,2.6c0.1,0.8,0.1,1.7,0.2,2.5c0.2,1.6,0.4,3.3,0.6,4.9c0.5,3.3,1.2,6.6,2.4,10
		c0.6,1.7,1.3,3.4,2.3,5.2c1,1.7,2.2,3.5,3.9,5.1c0.4,0.4,0.9,0.8,1.4,1.2c0.3,0.2,0.5,0.4,0.8,0.5l0.4,0.3l0.2,0.1
		c0.8,0.5,1.6,0.9,2.5,1.2c1.6,0.7,3.3,1.3,4.9,1.8c6.4,1.8,12.1,2.3,16.4,4.7c2.1,1.1,4.2,2.9,5.7,4.8c0.7,1,1.3,2,1.6,3.1
		c0.2,0.5,0.3,1.1,0.3,1.6c0,0.3,0,0.5,0,0.8c0,0.1,0,0.2,0,0.4l0,0.2c0,0,0,0.1,0,0c-0.5,1.2,0.1,2.6,1.3,3.1
		c1.2,0.5,2.6-0.1,3.1-1.3c0.1-0.3,0.1-0.3,0.2-0.5l0.1-0.4c0.1-0.3,0.1-0.5,0.2-0.7c0.1-0.5,0.2-1,0.2-1.5c0.1-1,0-1.9-0.1-2.8
		c-0.3-1.9-0.9-3.6-1.7-5.2c-0.8-1.6-1.9-3-3-4.3c-1.1-1.3-2.4-2.5-3.8-3.6c-2.8-2.1-5.9-3.6-8.9-4.8c-2.9-1.2-5.7-2.2-8.1-3.3
		c-1.2-0.6-2.3-1.2-3.3-1.8c-0.5-0.3-1-0.7-1.4-1l-0.2-0.2c0,0,0,0,0-0.1c0,0-0.1-0.1-0.1-0.1c-0.1-0.1-0.2-0.2-0.3-0.3
		c-0.7-1.1-1.5-3.2-1.9-5.6c-0.4-2.4-0.6-5-0.6-7.7c0-1.3,0.1-2.7,0.1-4c0-0.7,0.1-1.3,0.2-2c0.1-0.6,0.1-1.4,0.2-1.9
		c0.7-4.4-2.2-8.5-6.6-9.3c-4.4-0.7-8.5,2.2-9.3,6.6c-0.1,0.5-0.1,0.9-0.1,1.4L83.1,124z"/>
	<path fill="#F17BB0" d="M90.2,119.3c4.4,0.7,7.3,4.9,6.6,9.3c-0.1,0.5-0.2,1.2-0.2,1.9c-0.1,0.7-0.1,1.3-0.2,2
		c-0.1,1.3-0.1,2.7-0.1,4c0,2.7,0.2,5.3,0.6,7.7c0.4,2.4,1.2,4.5,1.9,5.6c0.1,0.1,0.2,0.2,0.3,0.3c0,0.1,0.1,0.1,0.1,0.1
		c0,0,0.1,0.1,0,0.1l0.2,0.2c0.4,0.3,0.9,0.7,1.4,1c1,0.7,2.1,1.3,3.3,1.8c2.4,1.2,5.2,2.1,8.1,3.3c2.9,1.2,6,2.6,8.9,4.8
		c1.4,1,2.7,2.3,3.8,3.6c1.1,1.3,2.1,2.7,3,4.3c0.8,1.6,1.5,3.3,1.7,5.2c0.1,0.9,0.2,1.9,0.1,2.9c0,0.2,0,0.5-0.1,0.7
		c-0.5,0.1-1,0.1-1.6-0.1c-1.2-0.5-1.8-1.9-1.3-3.1c0,0.1,0,0,0,0l0-0.2c0-0.1,0-0.2,0-0.4c0-0.3,0-0.5,0-0.8c0-0.5-0.2-1.1-0.3-1.6
		c-0.3-1.1-0.9-2.1-1.6-3.1c-1.5-1.9-3.6-3.7-5.7-4.8c-4.4-2.4-10-2.9-16.4-4.7c-1.6-0.5-3.2-1-4.9-1.8c-0.8-0.4-1.6-0.8-2.5-1.2
		l-0.2-0.1l-0.4-0.3c-0.3-0.2-0.5-0.3-0.8-0.5c-0.5-0.4-1-0.8-1.4-1.2c-1.7-1.6-2.9-3.4-3.9-5.1c-1-1.7-1.7-3.5-2.3-5.2
		c-1.2-3.4-1.9-6.7-2.4-10c-0.3-1.6-0.5-3.3-0.6-4.9c-0.1-0.8-0.1-1.6-0.2-2.5c0-0.9-0.1-1.6-0.1-2.6l0-0.4c0-0.5,0-0.9,0.1-1.4
		c0-0.3,0.1-0.5,0.2-0.8C85.1,119.7,87.6,118.9,90.2,119.3z"/>
	<path fill="#F49AC1" d="M96.6,155.7c-0.3,1.1,0.8,2.4,2.5,2.9c1.7,0.5,3.3,0,3.6-1.1c0.3-1.1-0.8-2.4-2.5-2.9
		C98.5,154.1,96.9,154.6,96.6,155.7z M98,156.1c0.2-0.6,1-0.8,1.9-0.5c0.9,0.3,1.4,0.9,1.3,1.5c-0.2,0.6-1,0.8-1.9,0.5
		C98.4,157.4,97.9,156.7,98,156.1z"/>
	<path fill="#F49AC1" d="M104.6,158.4c-0.2,1.1,1,2.3,2.8,2.6c1.7,0.3,3.3-0.3,3.5-1.5c0.2-1.1-1-2.3-2.8-2.6
		C106.3,156.6,104.8,157.3,104.6,158.4z M106.1,158.7c0.1-0.6,0.9-0.9,1.8-0.7c0.9,0.2,1.5,0.8,1.4,1.3c-0.1,0.6-0.9,0.9-1.8,0.8
		C106.6,159.8,106,159.2,106.1,158.7z"/>
	<path fill="#F49AC1" d="M113.1,160.3c-0.4,1,0.5,2.3,2,2.9c1.5,0.7,3.1,0.4,3.5-0.5c0.4-1-0.5-2.3-2-2.9
		C115.1,159.1,113.5,159.3,113.1,160.3z M114.4,160.9c0.2-0.5,1-0.6,1.8-0.3c0.8,0.3,1.2,1,1,1.5c-0.2,0.5-1,0.6-1.8,0.3
		C114.6,162,114.2,161.3,114.4,160.9z"/>
	<path fill="#F49AC1" d="M120.9,164.2c-0.5,0.6-0.1,1.7,0.9,2.5s2.2,0.9,2.7,0.2c0.5-0.6,0.1-1.7-0.9-2.5
		C122.5,163.7,121.3,163.6,120.9,164.2z M121.7,164.9c0.2-0.3,0.9-0.3,1.4,0.1c0.5,0.4,0.7,1,0.5,1.3c-0.2,0.3-0.9,0.3-1.4-0.1
		C121.7,165.8,121.5,165.2,121.7,164.9z"/>
	<path fill="#F49AC1" d="M125.5,168.4c-0.5,0.2-0.6,1.1-0.3,1.9c0.4,0.8,1.1,1.3,1.6,1.1c0.5-0.2,0.6-1.1,0.3-1.9
		C126.8,168.6,126.1,168.1,125.5,168.4z M125.9,169.1c0.3-0.1,0.6,0.1,0.8,0.6c0.2,0.4,0.1,0.9-0.1,1c-0.3,0.1-0.6-0.1-0.8-0.6
		C125.5,169.7,125.6,169.2,125.9,169.1z"/>
	<path fill="#8D4F9F" d="M74.4,134.4c-0.1,1-0.2,1.8-0.4,2.7c-0.1,0.8-0.3,1.7-0.4,2.5c-0.3,1.7-0.7,3.3-1.1,5
		c-0.9,3.3-1.9,6.7-3.5,10.1c-0.8,1.7-1.8,3.4-3,5.1c-1.2,1.7-2.8,3.4-5,4.8c-0.3,0.2-0.5,0.3-0.8,0.5l-0.4,0.2l-0.1,0.1
		c-0.1,0.1-0.1,0-0.1,0.1l-0.1,0.1l-0.6,0.3l-0.7,0.3c-0.9,0.3-1.8,0.6-2.7,0.9c-1.8,0.5-3.5,0.9-5.2,1.1c-3.3,0.5-6.1,0.7-8.3,1.5
		c-1.1,0.4-2.2,0.9-3.1,1.6c-0.5,0.3-1,0.7-1.4,1.2c-0.5,0.4-0.9,0.9-1.3,1.4c-1.5,1.8-2.3,4.2-2.5,6.9c-0.1,1.3,0,2.7,0.1,4.1
		c0.1,0.7,0.2,1.4,0.4,2.1c0.2,0.7,0.4,1.4,0.5,1.9l0.1,0.2c0.4,1.3-0.2,2.6-1.5,3c-1.2,0.4-2.4-0.1-2.9-1.2c-0.4-0.9-0.7-1.6-1-2.5
		c-0.3-0.8-0.5-1.6-0.8-2.5c-0.4-1.7-0.7-3.4-0.8-5.2c-0.2-3.5,0.6-7.4,2.7-10.7c0.5-0.8,1-1.5,1.6-2.3c0.6-0.7,1.2-1.4,1.8-2.1
		c1.3-1.4,2.9-2.6,4.6-3.5c3.4-1.9,6.8-2.7,9.5-3.6c1.4-0.5,2.6-0.9,3.7-1.5c0.6-0.3,1.1-0.6,1.6-0.9l0.8-0.5l0.1-0.1
		c0,0,0.1-0.1,0,0l0,0l0.1-0.1l0.1-0.1c0.8-0.8,1.8-2.8,2.5-5.2c0.7-2.4,1.1-5.1,1.4-7.8c0.1-1.4,0.2-2.8,0.2-4.2c0-0.7,0-1.4,0-2.1
		c0-0.7,0-1.4-0.1-1.9c-0.3-4.4,3-8.3,7.4-8.7c4.4-0.3,8.3,3,8.6,7.4c0,0.5,0,0.9,0,1.4L74.4,134.4z"/>
	<path fill="#9F6DAE" d="M67.6,129.8c0.4,1,0.6,1.7,0.9,2.6c0.3,0.8,0.5,1.6,0.8,2.5c0.5,1.6,0.9,3.3,1.3,5
		c0.8,3.4,1.3,6.8,1.5,10.6c0.1,1.9,0,3.8-0.3,5.9c-0.3,2.1-1,4.3-2.3,6.5c-0.2,0.3-0.3,0.5-0.5,0.8l-0.3,0.4l-0.1,0.1
		c-0.1,0.1,0,0.1-0.1,0.1l-0.1,0.1l-0.4,0.5l-0.5,0.6c-0.6,0.7-1.3,1.4-2,2c-1.4,1.3-2.8,2.4-4.1,3.3c-2.7,1.9-5.1,3.4-6.7,5.1
		c-0.8,0.8-1.5,1.8-2.1,2.8c-0.3,0.5-0.5,1.1-0.8,1.7c-0.2,0.6-0.4,1.2-0.5,1.8c-0.5,2.3-0.2,4.8,0.9,7.3c0.5,1.2,1.2,2.4,2,3.5
		c0.4,0.6,0.8,1.1,1.3,1.7c0.4,0.5,1,1.1,1.4,1.5l0.1,0.1c1,0.9,1,2.4,0.1,3.4c-0.8,0.9-2.2,1-3.2,0.3c-0.8-0.6-1.4-1.1-2-1.7
		c-0.6-0.6-1.2-1.2-1.8-1.8c-1.1-1.3-2.2-2.7-3.1-4.3c-1.8-3.1-2.8-6.9-2.5-10.8c0.1-1,0.2-1.8,0.4-2.7c0.2-0.9,0.4-1.8,0.7-2.7
		c0.6-1.8,1.5-3.6,2.5-5.2c2.2-3.2,4.9-5.5,6.9-7.6c1-1,1.9-2,2.6-3c0.4-0.5,0.7-1,1-1.5l0.5-0.8l0.1-0.1c0,0,0.1-0.1,0,0l0,0l0-0.1
		l0.1-0.2c0.3-1,0.4-3.3-0.1-5.7c-0.5-2.4-1.3-5-2.3-7.6c-0.5-1.3-1.1-2.6-1.7-3.8c-0.3-0.6-0.6-1.3-0.9-1.9
		c-0.3-0.6-0.7-1.3-0.9-1.7c-2.3-3.8-1.1-8.7,2.6-11.1c3.8-2.3,8.7-1.1,11.1,2.6c0.2,0.4,0.4,0.8,0.6,1.2L67.6,129.8z"/>
	<path fill="#9F6DAE" d="M60.6,127c0,1-0.1,1.8-0.1,2.6c-0.1,0.8-0.1,1.7-0.2,2.5c-0.2,1.6-0.4,3.3-0.6,4.9c-0.5,3.3-1.2,6.6-2.4,10
		c-0.6,1.7-1.3,3.4-2.3,5.2c-1,1.7-2.2,3.5-3.9,5.1c-0.4,0.4-0.9,0.8-1.4,1.2c-0.3,0.2-0.5,0.4-0.8,0.5l-0.4,0.3l-0.2,0.1
		c-0.8,0.5-1.6,0.9-2.5,1.2c-1.6,0.7-3.3,1.3-4.9,1.8c-6.4,1.8-12.1,2.3-16.4,4.7c-2.1,1.1-4.2,2.9-5.7,4.8c-0.7,1-1.3,2-1.6,3.1
		c-0.2,0.5-0.3,1.1-0.3,1.6c0,0.3,0,0.5,0,0.8c0,0.1,0,0.2,0,0.4l0,0.2c0,0,0,0.1,0,0c0.5,1.2-0.1,2.6-1.3,3.1
		c-1.2,0.5-2.6-0.1-3.1-1.3c-0.1-0.3-0.1-0.3-0.2-0.5l-0.1-0.4c-0.1-0.3-0.1-0.5-0.2-0.7c-0.1-0.5-0.2-1-0.2-1.5
		c-0.1-1,0-1.9,0.1-2.8c0.3-1.9,0.9-3.6,1.7-5.2c0.8-1.6,1.9-3,3-4.3c1.1-1.3,2.4-2.5,3.8-3.6c2.8-2.1,5.9-3.6,8.9-4.8
		c2.9-1.2,5.7-2.2,8.1-3.3c1.2-0.6,2.3-1.2,3.3-1.8c0.5-0.3,1-0.7,1.4-1l0.2-0.2c0,0,0,0,0-0.1c0,0,0.1-0.1,0.1-0.1
		c0.1-0.1,0.2-0.2,0.3-0.3c0.7-1.1,1.5-3.2,1.9-5.6c0.4-2.4,0.6-5,0.6-7.7c0-1.3-0.1-2.7-0.1-4c0-0.7-0.1-1.3-0.2-2
		c-0.1-0.6-0.1-1.4-0.2-1.9c-0.7-4.4,2.2-8.5,6.6-9.3c4.4-0.7,8.5,2.2,9.3,6.6c0.1,0.5,0.1,0.9,0.1,1.4L60.6,127z"/>
	<path fill="#F17BB0" d="M53.5,122.3c-4.4,0.7-7.3,4.9-6.6,9.3c0.1,0.5,0.2,1.2,0.2,1.9c0.1,0.7,0.1,1.3,0.2,2
		c0.1,1.3,0.1,2.7,0.1,4c0,2.7-0.2,5.3-0.6,7.7c-0.4,2.4-1.2,4.5-1.9,5.6c-0.1,0.1-0.2,0.2-0.3,0.3c0,0.1-0.1,0.1-0.1,0.1
		c0,0-0.1,0.1,0,0.1l-0.2,0.2c-0.4,0.3-0.9,0.7-1.4,1c-1,0.7-2.1,1.3-3.3,1.8c-2.4,1.2-5.2,2.1-8.1,3.3c-2.9,1.2-6,2.6-8.9,4.8
		c-1.4,1-2.7,2.3-3.8,3.6c-1.1,1.3-2.1,2.7-3,4.3c-0.8,1.6-1.5,3.3-1.7,5.2c-0.1,0.9-0.2,1.9-0.1,2.9c0,0.2,0,0.5,0.1,0.7
		c0.5,0.1,1,0.1,1.6-0.1c1.2-0.5,1.8-1.9,1.3-3.1c0,0.1,0,0,0,0l0-0.2c0-0.1,0-0.2,0-0.4c0-0.3,0-0.5,0-0.8c0-0.5,0.2-1.1,0.3-1.6
		c0.3-1.1,0.9-2.1,1.6-3.1c1.5-1.9,3.6-3.7,5.7-4.8c4.4-2.4,10-2.9,16.4-4.7c1.6-0.5,3.2-1,4.9-1.8c0.8-0.4,1.6-0.8,2.5-1.2l0.2-0.1
		L49,159c0.3-0.2,0.5-0.3,0.8-0.5c0.5-0.4,1-0.8,1.4-1.2c1.7-1.6,2.9-3.4,3.9-5.1c1-1.7,1.7-3.5,2.3-5.2c1.2-3.4,1.9-6.7,2.4-10
		c0.3-1.6,0.5-3.3,0.6-4.9c0.1-0.8,0.1-1.6,0.2-2.5c0-0.9,0.1-1.6,0.1-2.6l0-0.4c0-0.5,0-0.9-0.1-1.4c0-0.3-0.1-0.5-0.2-0.8
		C58.5,122.7,56,121.9,53.5,122.3z"/>
	<g>
		<path fill="#8D4F9F" d="M120.7,101.8c0,0,27-1,18.1-26.4c-11.3-32-69.1-63.6-69.1-63.6s-3.7,4,1.8,12.8
			c7.9,12.7,44.1,44.9,47.1,56.4c4.6,18,0.3,16,0.3,16L120.7,101.8z"/>
		<path fill="#8D4F9F" d="M31.7,101.8c0,0-28.8,3.2-19.6-25.4c10.8-33.9,63.7-54.7,63.7-54.7l10,8.5c0,0-48.1,22-59,54
			c-2.1,6.1,6.8,11.1,6.8,11.1L31.7,101.8z"/>
		<path fill="#FEBC23" d="M46.7,129.7l-11.3,9.9c0,0,3.3,5.4,11,9.4s13.1,4.5,13.1,4.5l5.8-17.8L46.7,129.7z"/>
		<path fill="#FEBC23" d="M98.2,130.2l11.3,9.9c0,0-2.7,4.7-7.7,7.7c-5,3-16.3,6.1-16.3,6.1l-5.8-17.8L98.2,130.2z"/>
		<path fill="#FEBC23" d="M89.7,142.2l6.7,13.4c0,0-4.3,3.4-10,4.3c-5.8,0.9-17.5-0.4-17.5-0.4l1.3-18.7L89.7,142.2z"/>
		<path fill="#FEBC23" d="M40.2,121.2c0,0-1.7,22,31.4,23.3c38.9,1.6,31.9-26,31.9-26L40.2,121.2z"/>
	</g>
	<path fill="#8D4F9F" d="M31.6,104c0,0-28.7,1-19.6-27.6c10.8-33.9,63.7-54.7,63.7-54.7l10.8,8.5c0,0-44.3,33.9-57,55.2
		c-3.3,5.5,4,10,4,10L31.6,104z"/>
	<path fill="#FEBC23" d="M46.7,129.7l-11.3,9.9c0,0,3.3,5.4,11,9.4s13.1,4.5,13.1,4.5l5.8-17.8L46.7,129.7z"/>
	<path fill="#FEBC23" d="M98.2,130.2l11.3,9.9c0,0-2.7,4.7-7.7,7.7c-5,3-16.3,6.1-16.3,6.1l-5.8-17.8L98.2,130.2z"/>
	<path fill="#FEBC23" d="M89.7,142.2l6.7,13.4c0,0-4.3,3.4-10,4.3c-5.8,0.9-17.5-0.4-17.5-0.4l1.3-18.7L89.7,142.2z"/>
	<path fill="#FEBC23" d="M40.2,121.2c0,0-1.7,22,31.4,23.3c38.9,1.6,31.9-26,31.9-26L40.2,121.2z"/>
	<path fill="#9F6DAE" d="M39.6,92.3c0,0-6.9-49,32.6-49c41.4,0,30.3,52.3,30.3,52.3l-30.6,3.6L39.6,92.3z"/>
	<path fill="#F26529" d="M37.6,86.1l4.3,19.4l-4.3,27.2c0,0,7.1,7.5,37.7,8c24.9,0.4,31.9-5,31.9-5l-3.7-30.5l2.9-16.1
		c0,0-11,6.8-34.5,5.8C48.3,93.7,37.6,86.1,37.6,86.1z"/>
	<path fill="#F26529" d="M129.1,89.2c-2.9-5.1-7.8-7.5-7.8-7.5l-13,6.6c0,0-0.7,0.6-2.3,1.6c-3.1,3.6-9,20.3-7.5,24
		c1.3,3.1,13.3-0.3,20.3-3.8s10.8-8.3,10.8-8.3S132,94.3,129.1,89.2z"/>
	<path fill="#FEBC23" d="M129.1,89.2c-2.9-5.1-7.8-7.5-7.8-7.5l-4.1,2.1c1.1,0.6,5.8,3.4,8.8,8.5c2.2,3.9,1.7,9,1.2,12
		c1.6-1.4,2.4-2.5,2.4-2.5S132,94.3,129.1,89.2z"/>
	<path fill="#F26529" d="M42.7,110.4c2.3,0.3,2-4.6,3.2-5.6c1.9-1.6-2.7-4.3-2.5-6.7c0.3-2.9,0.3-5.8,0.4-8.7c-4-1.3-6-2.5-6-2.5
		l-10-3.4c0,0-4.6,5.5-4.7,10.5c-0.1,5,2.1,9.9,2.1,9.9l17.1,9.5L42.7,110.4z"/>
	<path fill="#FEBC23" d="M26.3,96.6c0.1-4.8,3.7-10,5.1-11.8l-3.6-1.3c0,0-4.6,5.5-4.7,10.5c-0.1,5,2.1,9.9,2.1,9.9l2.6,1.4
		C27,103.1,26.2,99.9,26.3,96.6z"/>
	<path fill="#FEBC23" d="M107.8,88.6l-1.4,0.4c0,0-11,6.8-34.5,5.8c-22.3-1-32.5-8.7-33.6-9.4c3.4,4.5,11.7,13.3,32.5,14.9
		C92.5,102,103.4,93.3,107.8,88.6z"/>
	<path fill="#FEBC23" d="M52.9,142l-6.7,13.4c0,0,4.3,3.4,10,4.3c5.8,0.9,17.5-0.4,17.5-0.4l-1.3-18.7L52.9,142z"/>
	<path fill="#F49AC1" d="M43.5,157.6c-1.7,0.5-2.8,1.8-2.5,2.9c0.3,1.1,2,1.6,3.6,1.1c1.7-0.5,2.8-1.8,2.5-2.9
		C46.8,157.6,45.1,157.1,43.5,157.6z M44.4,160.6c-0.9,0.3-1.7,0-1.9-0.5c-0.2-0.6,0.4-1.2,1.3-1.5c0.9-0.3,1.7,0,1.9,0.5
		S45.2,160.4,44.4,160.6z"/>
	<path fill="#F49AC1" d="M35.6,159.9c-1.7,0.3-3,1.5-2.8,2.6c0.2,1.1,1.8,1.8,3.5,1.5c1.7-0.3,3-1.5,2.8-2.6
		C38.9,160.3,37.3,159.6,35.6,159.9z M36.2,163c-0.9,0.2-1.7-0.2-1.8-0.8c-0.1-0.6,0.5-1.2,1.4-1.3c0.9-0.2,1.7,0.2,1.8,0.7
		C37.7,162.2,37,162.8,36.2,163z"/>
	<path fill="#F49AC1" d="M27.1,162.8c-1.5,0.7-2.4,2-2,2.9c0.4,1,2,1.2,3.5,0.5c1.5-0.7,2.4-2,2-2.9
		C30.2,162.3,28.6,162.1,27.1,162.8z M28.2,165.4c-0.8,0.3-1.6,0.2-1.8-0.3c-0.2-0.5,0.2-1.2,1-1.5c0.8-0.3,1.6-0.2,1.8,0.3
		C29.5,164.3,29,165,28.2,165.4z"/>
	<path fill="#F49AC1" d="M20.2,167.4c-1,0.7-1.4,1.9-0.9,2.5c0.5,0.6,1.7,0.5,2.7-0.2s1.4-1.9,0.9-2.5
		C22.3,166.6,21.1,166.7,20.2,167.4z M21.4,169.1c-0.5,0.4-1.1,0.4-1.4,0.1c-0.2-0.3,0-0.9,0.5-1.3c0.5-0.4,1.1-0.4,1.4-0.1
		C22.2,168.2,22,168.8,21.4,169.1z"/>
	<path fill="#F49AC1" d="M16.5,172.5c-0.4,0.8-0.3,1.7,0.3,1.9c0.5,0.2,1.3-0.2,1.6-1.1c0.4-0.8,0.3-1.7-0.3-1.9
		C17.6,171.1,16.9,171.6,16.5,172.5z M17.9,173.1c-0.2,0.4-0.6,0.7-0.8,0.6c-0.3-0.1-0.3-0.6-0.1-1c0.2-0.4,0.6-0.7,0.8-0.6
		C18.1,172.2,18.1,172.7,17.9,173.1z"/>
	<path fill="#41164A" d="M72.9,88.7c14.9,0,25.3-5.8,30.8-9.9c-0.5-15.3-5.9-35.4-31.6-35.4c-24,0-30.9,18.1-32.6,32.4
		C45.8,80.9,57.6,88.7,72.9,88.7z"/>
	<path fill="#FEBC23" d="M79.2,126.4l0.2-3.9h2.9v-4.9h-2.7l-0.2-13.5l-11.4,0.1l-8.8,9.3l-0.5,9.4l14.4-0.2l-0.2,3.8l-2.1,0v6.8
		l11.9,0.3l0.3-7L79.2,126.4z M64,117.4l8.7-8.5l-0.2,8.3L64,117.4z"/>
	<path fill="#8D4F9F" d="M85.2,21.2c0,0,2.5-4.5-5-9.5s-11.3,1-11.3,1L85.2,21.2z"/>
	<path fill="#633270" d="M70.1,20.6c0,0,0.5,1.4,2.9,4.6c2.4,3.3,8.7,12.1,8.7,12.1s-5.1-5.8-8.8-10.1
		C69.2,22.9,70.1,20.6,70.1,20.6z"/>
	<g>
		<path fill="#633270" d="M76.2,46.8c0.6,0,1,0.1,1.4,0.2c0.4,0.1,0.9,0.3,1.3,0.4c0.8,0.3,1.6,0.7,2.4,1.1c1.5,0.8,3,1.7,4.4,2.7
			l0,0l0,0c2.9,2.5,5.4,5.5,7.2,8.9c0.9,1.7,1.7,3.5,2.3,5.3c0.6,1.8,1.1,3.7,1.3,5.6c-0.3-1.9-0.8-3.7-1.4-5.5
			c-0.7-1.8-1.5-3.5-2.4-5.2c-1.9-3.3-4.4-6.2-7.4-8.6l0,0c-1.4-0.9-2.9-1.8-4.4-2.5c-0.8-0.4-1.5-0.7-2.3-1
			c-0.4-0.1-0.8-0.3-1.2-0.4c-0.4-0.1-0.8-0.2-1.1-0.2L76.2,46.8z"/>
	</g>
	<g>
		<path fill="#633270" d="M74,48.8c0.6,0.1,0.9,0.3,1.4,0.5c0.4,0.2,0.8,0.4,1.2,0.7c0.7,0.5,1.4,1,2.1,1.5c1.4,1.1,2.6,2.3,3.8,3.5
			l0,0l0,0c2.4,3,4.2,6.5,5.4,10.1c0.6,1.8,1,3.7,1.2,5.6c0.2,1.9,0.3,3.8,0.2,5.7c0.1-1.9,0-3.8-0.3-5.7c-0.3-1.9-0.8-3.7-1.4-5.5
			c-1.2-3.6-3.2-6.9-5.6-9.8l0,0c-1.2-1.2-2.5-2.3-3.8-3.3c-0.7-0.5-1.4-1-2.1-1.4c-0.4-0.2-0.7-0.4-1.1-0.6
			c-0.4-0.2-0.8-0.3-1.1-0.4L74,48.8z"/>
	</g>
	<g>
		<path fill="#633270" d="M65.1,52.4c-0.3,0-0.7,0.2-1.1,0.4c-0.4,0.2-0.7,0.4-1.1,0.6c-0.7,0.4-1.4,0.9-2.1,1.4
			c-1.3,1-2.6,2.2-3.8,3.3l0,0c-2.4,2.9-4.4,6.2-5.6,9.8c-0.6,1.8-1.1,3.6-1.4,5.5c-0.3,1.9-0.5,3.8-0.3,5.7
			c-0.2-1.9-0.1-3.8,0.2-5.7c0.2-1.9,0.7-3.8,1.2-5.6c1.1-3.7,3-7.1,5.4-10.1l0,0l0,0c1.2-1.2,2.5-2.4,3.8-3.5
			c0.7-0.5,1.4-1.1,2.1-1.5c0.4-0.2,0.8-0.5,1.2-0.7c0.4-0.2,0.8-0.4,1.4-0.5L65.1,52.4z"/>
	</g>
	
		<ellipse transform="matrix(7.715780e-02 -0.997 0.997 7.715780e-02 21.977 114.1551)" fill="#F26529" cx="72.7" cy="45.2" rx="7.6" ry="7.6"/>
	<path fill="#633270" d="M74.9,43.1c0,0-5.1-4.5-13.4-1.3c-5.2,2-13.7,12.1-9.9,24.3c3.3,10.4,14.2,17.2,16.7,24
		c2.5,6.8-2.7,11.9-2.7,11.9s13.9,4.5,15-11.8c0.5-7.6-5.2-17.5-9.2-29.7c-2.7-8.1,3.2-12.7,3.2-12.7L74.9,43.1z"/>
	<g>
		<path fill="#41164A" d="M68,81.3c-3.1-2.3-5.8-5.3-8-8.5c-2.2-3.3-3.9-7-4.6-10.9c-0.4-1.9-0.6-4-0.3-6.1c0.3-2.1,1.2-4.1,2.5-5.7
			c1.4-1.6,3.1-2.9,4.9-3.8c1.9-0.9,3.8-1.5,5.9-1.8l6.1-0.9l-5.6,2.7c-0.2,0.1-0.5,0.3-0.7,0.5c-0.3,0.2-0.5,0.5-0.7,0.8
			c-0.5,0.5-0.9,1.2-1.2,1.8c-0.7,1.3-1.2,2.8-1.5,4.3c-0.3,1.5-0.5,3.1-0.6,4.6c-0.1,1.6,0,3.1,0.3,4.6c0.5,3,1.9,5.9,3.6,8.6
			c1.7,2.6,3.9,5,6.4,7c-2.7-1.8-5-4-7-6.6c-2-2.5-3.5-5.5-4.3-8.7c-0.4-1.6-0.5-3.3-0.5-4.9c0-1.6,0.1-3.3,0.4-4.9
			c0.3-1.6,0.7-3.3,1.5-4.8c0.4-0.8,0.9-1.5,1.4-2.2c0.3-0.3,0.6-0.7,0.9-1c0.4-0.3,0.7-0.6,1.2-0.9l0.5,1.9
			c-3.5,0.6-7.2,2.1-9.6,4.8c-1.2,1.3-2,3-2.3,4.8c-0.3,1.8-0.2,3.6,0.1,5.5c0.6,3.7,2,7.3,3.9,10.7C62.7,75.6,65.1,78.7,68,81.3z"
			/>
	</g>
</g>
<g id="monster_1_arms_up_legs_down_copy">
</g>
<g id="bell_idle">
</g>
<g id="bell_pull_1">
</g>
<g id="bell_pull_2">
</g>
</svg>
