<?xml version="1.0" encoding="utf-8"?>
<!-- Generator: Adobe Illustrator 20.0.0, SVG Export Plug-In . SVG Version: 6.00 Build 0)  -->
<!DOCTYPE svg PUBLIC "-//W3C//DTD SVG 1.1//EN" "http://www.w3.org/Graphics/SVG/1.1/DTD/svg11.dtd">
<svg version="1.1" xmlns="http://www.w3.org/2000/svg" xmlns:xlink="http://www.w3.org/1999/xlink" x="0px" y="0px"
	 viewBox="0 0 147.4 264.6" enable-background="new 0 0 147.4 264.6" xml:space="preserve" width="147.4" height="264.6" preserveAspectRatio="none">
<g id="rope_placement">
</g>
<g id="Rope">
</g>
<g id="monster_1_arms_up_legs_down">
</g>
<g id="monster_1_arms_up_legs_up">
</g>
<g id="monster_1_arms_down_legs_down">
</g>
<g id="monster_1_arms_down_legs_up">
	<path fill="#006838" d="M110,34.9c-0.5,1,1.6,3.2,6.1,4.2c4.4,1,11.1-1,11.1-1l0.2-8.3c0,0-3,4.1-10.4,5
		C113.4,35.3,110.5,33.9,110,34.9z"/>
	<path fill="#006838" d="M63.1,18c-1.2,0.3-2,3.6-0.1,7.8c1.8,4.2,7.7,8.1,7.7,8.1l7.7-5.7c0,0-5.6,0.5-11-4.7
		C64.8,21,64.4,17.7,63.1,18z"/>
	<path fill="#39B54A" d="M68.9,127.6c0.1,1,0.2,1.8,0.4,2.7c0.1,0.8,0.3,1.7,0.4,2.5c0.3,1.7,0.7,3.3,1.1,5
		c0.9,3.3,1.9,6.7,3.5,10.1c0.8,1.7,1.8,3.4,3,5.1c1.2,1.7,2.8,3.4,5,4.8c0.3,0.2,0.5,0.3,0.8,0.5l0.4,0.2l0.1,0.1
		c0.1,0.1,0.1,0,0.1,0.1l0.1,0.1l0.6,0.3l0.7,0.3c0.9,0.3,1.8,0.6,2.7,0.9c1.8,0.5,3.5,0.9,5.2,1.1c3.3,0.5,6.1,0.7,8.3,1.5
		c1.1,0.4,2.2,0.9,3.1,1.6c0.5,0.3,1,0.7,1.4,1.2c0.5,0.4,0.9,0.9,1.3,1.4c1.5,1.8,2.3,4.2,2.5,6.9c0.1,1.3,0,2.7-0.1,4.1
		c-0.1,0.7-0.2,1.4-0.4,2.1c-0.2,0.7-0.4,1.4-0.5,1.9l-0.1,0.2c-0.4,1.3,0.2,2.6,1.5,3c1.2,0.4,2.4-0.1,2.9-1.2
		c0.4-0.9,0.7-1.6,1-2.5c0.3-0.8,0.5-1.6,0.8-2.5c0.4-1.7,0.7-3.4,0.8-5.2c0.2-3.5-0.6-7.4-2.7-10.7c-0.5-0.8-1-1.5-1.6-2.3
		c-0.6-0.7-1.2-1.4-1.8-2.1c-1.3-1.4-2.9-2.6-4.6-3.5c-3.4-1.9-6.8-2.7-9.5-3.6c-1.4-0.5-2.6-0.9-3.7-1.5c-0.6-0.3-1.1-0.6-1.6-0.9
		l-0.8-0.5l-0.1-0.1c0,0-0.1-0.1,0,0l0,0l-0.1-0.1l-0.1-0.1c-0.8-0.8-1.8-2.8-2.5-5.2c-0.7-2.4-1.1-5.1-1.4-7.8
		c-0.1-1.4-0.2-2.8-0.2-4.2c0-0.7,0-1.4,0-2.1c0-0.7,0-1.4,0.1-1.9c0.3-4.4-3-8.3-7.4-8.6c-4.4-0.3-8.3,3-8.6,7.4c0,0.5,0,0.9,0,1.4
		L68.9,127.6z"/>
	<path fill="#009444" d="M74.5,123c-0.4,1-0.6,1.7-0.9,2.6c-0.3,0.8-0.5,1.6-0.8,2.5c-0.5,1.6-0.9,3.3-1.3,5
		c-0.8,3.4-1.3,6.8-1.5,10.6c-0.1,1.9,0,3.8,0.3,5.9c0.3,2.1,1,4.3,2.3,6.5c0.2,0.3,0.3,0.5,0.5,0.8l0.3,0.4l0.1,0.1
		c0.1,0.1,0,0.1,0.1,0.1l0.1,0.1l0.4,0.5l0.5,0.6c0.6,0.7,1.3,1.4,2,2c1.4,1.3,2.8,2.4,4.1,3.3c2.7,1.9,5.1,3.4,6.7,5.1
		c0.8,0.8,1.5,1.8,2.1,2.8c0.3,0.5,0.5,1.1,0.8,1.7c0.2,0.6,0.4,1.2,0.5,1.8c0.5,2.3,0.2,4.8-0.9,7.3c-0.5,1.2-1.2,2.4-2,3.5
		c-0.4,0.6-0.8,1.1-1.3,1.7c-0.4,0.5-1,1.1-1.4,1.5l-0.1,0.1c-1,0.9-1,2.4-0.1,3.4c0.8,0.9,2.2,1,3.2,0.3c0.8-0.6,1.4-1.1,2-1.7
		c0.6-0.6,1.2-1.2,1.8-1.8c1.1-1.3,2.2-2.7,3.1-4.3c1.8-3.1,2.8-6.9,2.5-10.8c-0.1-1-0.2-1.8-0.4-2.7c-0.2-0.9-0.4-1.8-0.7-2.7
		c-0.6-1.8-1.5-3.6-2.5-5.2c-2.2-3.2-4.9-5.5-6.9-7.6c-1-1-1.9-2-2.6-3c-0.4-0.5-0.7-1-1-1.5l-0.5-0.8l-0.1-0.1c0,0-0.1-0.1,0,0l0,0
		l0-0.1l-0.1-0.2c-0.3-1-0.4-3.3,0.1-5.7c0.5-2.4,1.3-5,2.3-7.6c0.5-1.3,1.1-2.6,1.7-3.8c0.3-0.6,0.6-1.3,0.9-1.9
		c0.3-0.6,0.7-1.3,0.9-1.7c2.3-3.8,1.1-8.7-2.6-11.1c-3.8-2.3-8.7-1.1-11.1,2.6c-0.2,0.4-0.4,0.8-0.6,1.2L74.5,123z"/>
	<path fill="#009444" d="M82.8,120.2c0,1,0.1,1.8,0.1,2.6c0.1,0.8,0.1,1.7,0.2,2.5c0.2,1.6,0.4,3.3,0.6,4.9c0.5,3.3,1.2,6.6,2.4,10
		c0.6,1.7,1.3,3.4,2.3,5.2c1,1.7,2.2,3.5,3.9,5.1c0.4,0.4,0.9,0.8,1.4,1.2c0.3,0.2,0.5,0.4,0.8,0.5l0.4,0.3l0.2,0.1
		c0.8,0.5,1.6,0.9,2.5,1.2c1.6,0.7,3.3,1.3,4.9,1.8c6.4,1.8,12.1,2.3,16.4,4.7c2.1,1.1,4.2,2.9,5.7,4.8c0.7,1,1.3,2,1.6,3.1
		c0.2,0.5,0.3,1.1,0.3,1.6c0,0.3,0,0.5,0,0.8c0,0.1,0,0.2,0,0.4l0,0.2c0,0,0,0.1,0,0c-0.5,1.2,0.1,2.6,1.3,3.1
		c1.2,0.5,2.6-0.1,3.1-1.3c0.1-0.3,0.1-0.3,0.2-0.5l0.1-0.4c0.1-0.3,0.1-0.5,0.2-0.7c0.1-0.5,0.2-1,0.2-1.5c0.1-1,0-1.9-0.1-2.8
		c-0.3-1.9-0.9-3.6-1.7-5.2c-0.8-1.6-1.9-3-3-4.3c-1.1-1.3-2.4-2.5-3.8-3.6c-2.8-2.1-5.9-3.6-8.9-4.8c-2.9-1.2-5.7-2.2-8.1-3.3
		c-1.2-0.6-2.3-1.2-3.3-1.8c-0.5-0.3-1-0.7-1.4-1l-0.2-0.2c0,0,0,0,0-0.1c0,0-0.1-0.1-0.1-0.1c-0.1-0.1-0.2-0.2-0.3-0.3
		c-0.7-1.1-1.5-3.2-1.9-5.6c-0.4-2.4-0.6-5-0.6-7.7c0-1.3,0.1-2.7,0.1-4c0-0.7,0.1-1.3,0.2-2c0.1-0.6,0.1-1.4,0.2-1.9
		c0.7-4.4-2.2-8.5-6.6-9.3c-4.4-0.7-8.5,2.2-9.3,6.6c-0.1,0.5-0.1,0.9-0.1,1.4L82.8,120.2z"/>
	<path fill="#F15A29" d="M89.9,115.5c4.4,0.7,7.3,4.9,6.6,9.3c-0.1,0.5-0.2,1.2-0.2,1.9c-0.1,0.7-0.1,1.3-0.2,2
		c-0.1,1.3-0.1,2.7-0.1,4c0,2.7,0.2,5.3,0.6,7.7c0.4,2.4,1.2,4.5,1.9,5.6c0.1,0.1,0.2,0.2,0.3,0.3c0,0.1,0.1,0.1,0.1,0.1
		c0,0,0.1,0.1,0,0.1l0.2,0.2c0.4,0.3,0.9,0.7,1.4,1c1,0.7,2.1,1.3,3.3,1.8c2.4,1.2,5.2,2.1,8.1,3.3c2.9,1.2,6,2.6,8.9,4.8
		c1.4,1,2.7,2.3,3.8,3.6c1.1,1.3,2.1,2.7,3,4.3c0.8,1.6,1.5,3.3,1.7,5.2c0.1,0.9,0.2,1.9,0.1,2.9c0,0.2,0,0.5-0.1,0.7
		c-0.5,0.1-1,0.1-1.6-0.1c-1.2-0.5-1.8-1.9-1.3-3.1c0,0.1,0,0,0,0l0-0.2c0-0.1,0-0.2,0-0.4c0-0.3,0-0.5,0-0.8c0-0.5-0.2-1.1-0.3-1.6
		c-0.3-1.1-0.9-2.1-1.6-3.1c-1.5-1.9-3.6-3.7-5.7-4.8c-4.4-2.4-10-2.9-16.4-4.7c-1.6-0.5-3.2-1-4.9-1.8c-0.8-0.4-1.6-0.8-2.5-1.2
		l-0.2-0.1l-0.4-0.3c-0.3-0.2-0.5-0.3-0.8-0.5c-0.5-0.4-1-0.8-1.4-1.2c-1.7-1.6-2.9-3.4-3.9-5.1c-1-1.7-1.7-3.5-2.3-5.2
		c-1.2-3.4-1.9-6.7-2.4-10c-0.3-1.6-0.5-3.3-0.6-4.9c-0.1-0.8-0.1-1.6-0.2-2.5c0-0.9-0.1-1.6-0.1-2.6l0-0.4c0-0.5,0-0.9,0.1-1.4
		c0-0.3,0.1-0.5,0.2-0.8C84.8,116,87.3,115.1,89.9,115.5z"/>
	<path fill="#FBB040" d="M96.3,151.9c-0.3,1.1,0.8,2.4,2.5,2.9c1.7,0.5,3.3,0,3.6-1.1c0.3-1.1-0.8-2.4-2.5-2.9
		C98.2,150.3,96.6,150.8,96.3,151.9z M97.7,152.3c0.2-0.6,1-0.8,1.9-0.5c0.9,0.3,1.4,0.9,1.3,1.5c-0.2,0.6-1,0.8-1.9,0.5
		C98.1,153.6,97.6,152.9,97.7,152.3z"/>
	<path fill="#FBB040" d="M104.3,154.6c-0.2,1.1,1,2.3,2.8,2.6c1.7,0.3,3.3-0.3,3.5-1.5c0.2-1.1-1-2.3-2.8-2.6
		C106,152.8,104.5,153.5,104.3,154.6z M105.8,154.9c0.1-0.6,0.9-0.9,1.8-0.7c0.9,0.2,1.5,0.8,1.4,1.3c-0.1,0.6-0.9,0.9-1.8,0.8
		C106.3,156.1,105.7,155.5,105.8,154.9z"/>
	<path fill="#FBB040" d="M112.8,156.5c-0.4,1,0.5,2.3,2,2.9c1.5,0.7,3.1,0.4,3.5-0.5c0.4-1-0.5-2.3-2-2.9
		C114.8,155.3,113.2,155.5,112.8,156.5z M114.1,157.1c0.2-0.5,1-0.6,1.8-0.3c0.8,0.3,1.2,1,1,1.5c-0.2,0.5-1,0.6-1.8,0.3
		C114.3,158.2,113.9,157.6,114.1,157.1z"/>
	<path fill="#FBB040" d="M120.6,160.4c-0.5,0.6-0.1,1.7,0.9,2.5s2.2,0.9,2.7,0.2c0.5-0.6,0.1-1.7-0.9-2.5
		C122.2,159.9,121,159.8,120.6,160.4z M121.4,161.1c0.2-0.3,0.9-0.3,1.4,0.1c0.5,0.4,0.7,1,0.5,1.3c-0.2,0.3-0.9,0.3-1.4-0.1
		C121.4,162,121.2,161.4,121.4,161.1z"/>
	<path fill="#FBB040" d="M125.2,164.6c-0.5,0.2-0.6,1.1-0.3,1.9c0.4,0.8,1.1,1.3,1.6,1.1c0.5-0.2,0.6-1.1,0.3-1.9
		C126.5,164.8,125.8,164.4,125.2,164.6z M125.6,165.3c0.3-0.1,0.6,0.1,0.8,0.6c0.2,0.4,0.1,0.9-0.1,1c-0.3,0.1-0.6-0.1-0.8-0.6
		C125.2,165.9,125.3,165.5,125.6,165.3z"/>
	<path fill="#39B54A" d="M74.1,130.6c-0.1,1-0.2,1.8-0.4,2.7c-0.1,0.8-0.3,1.7-0.4,2.5c-0.3,1.7-0.7,3.3-1.1,5
		c-0.9,3.3-1.9,6.7-3.5,10.1c-0.8,1.7-1.8,3.4-3,5.1c-1.2,1.7-2.8,3.4-5,4.8c-0.3,0.2-0.5,0.3-0.8,0.5l-0.4,0.2l-0.1,0.1
		c-0.1,0.1-0.1,0-0.1,0.1l-0.1,0.1l-0.6,0.3l-0.7,0.3c-0.9,0.3-1.8,0.6-2.7,0.9c-1.8,0.5-3.5,0.9-5.2,1.1c-3.3,0.5-6.1,0.7-8.3,1.5
		c-1.1,0.4-2.2,0.9-3.1,1.6c-0.5,0.3-1,0.7-1.4,1.2c-0.5,0.4-0.9,0.9-1.3,1.4c-1.5,1.8-2.3,4.2-2.5,6.9c-0.1,1.3,0,2.7,0.1,4.1
		c0.1,0.7,0.2,1.4,0.4,2.1c0.2,0.7,0.4,1.4,0.5,1.9l0.1,0.2c0.4,1.3-0.2,2.6-1.5,3c-1.2,0.4-2.4-0.1-2.9-1.2c-0.4-0.9-0.7-1.6-1-2.5
		c-0.3-0.8-0.5-1.6-0.8-2.5c-0.4-1.7-0.7-3.4-0.8-5.2c-0.2-3.5,0.6-7.4,2.7-10.7c0.5-0.8,1-1.5,1.6-2.3c0.6-0.7,1.2-1.4,1.8-2.1
		c1.3-1.4,2.9-2.6,4.6-3.5c3.4-1.9,6.8-2.7,9.5-3.6c1.4-0.5,2.6-0.9,3.7-1.5c0.6-0.3,1.1-0.6,1.6-0.9l0.8-0.5l0.1-0.1
		c0,0,0.1-0.1,0,0l0,0l0.1-0.1l0.1-0.1c0.8-0.8,1.8-2.8,2.5-5.2c0.7-2.4,1.1-5.1,1.4-7.8c0.1-1.4,0.2-2.8,0.2-4.2c0-0.7,0-1.4,0-2.1
		c0-0.7,0-1.4-0.1-1.9c-0.3-4.4,3-8.3,7.4-8.6c4.4-0.3,8.3,3,8.6,7.4c0,0.5,0,0.9,0,1.4L74.1,130.6z"/>
	<path fill="#009444" d="M67.3,126c0.4,1,0.6,1.7,0.9,2.6c0.3,0.8,0.5,1.6,0.8,2.5c0.5,1.6,0.9,3.3,1.3,5c0.8,3.4,1.3,6.8,1.5,10.6
		c0.1,1.9,0,3.8-0.3,5.9c-0.3,2.1-1,4.3-2.3,6.5c-0.2,0.3-0.3,0.5-0.5,0.8l-0.3,0.4l-0.1,0.1c-0.1,0.1,0,0.1-0.1,0.1l-0.1,0.1
		l-0.4,0.5l-0.5,0.6c-0.6,0.7-1.3,1.4-2,2c-1.4,1.3-2.8,2.4-4.1,3.3c-2.7,1.9-5.1,3.4-6.7,5.1c-0.8,0.8-1.5,1.8-2.1,2.8
		c-0.3,0.5-0.5,1.1-0.8,1.7c-0.2,0.6-0.4,1.2-0.5,1.8c-0.5,2.3-0.2,4.8,0.9,7.3c0.5,1.2,1.2,2.4,2,3.5c0.4,0.6,0.8,1.1,1.3,1.7
		c0.4,0.5,1,1.1,1.4,1.5l0.1,0.1c1,0.9,1,2.4,0.1,3.4c-0.8,0.9-2.2,1-3.2,0.3c-0.8-0.6-1.4-1.1-2-1.7c-0.6-0.6-1.2-1.2-1.8-1.8
		c-1.1-1.3-2.2-2.7-3.1-4.3c-1.8-3.1-2.8-6.9-2.5-10.8c0.1-1,0.2-1.8,0.4-2.7c0.2-0.9,0.4-1.8,0.7-2.7c0.6-1.8,1.5-3.6,2.5-5.2
		c2.2-3.2,4.9-5.5,6.9-7.6c1-1,1.9-2,2.6-3c0.4-0.5,0.7-1,1-1.5l0.5-0.8l0.1-0.1c0,0,0.1-0.1,0,0l0,0l0-0.1l0.1-0.2
		c0.3-1,0.4-3.3-0.1-5.7c-0.5-2.4-1.3-5-2.3-7.6c-0.5-1.3-1.1-2.6-1.7-3.8c-0.3-0.6-0.6-1.3-0.9-1.9c-0.3-0.6-0.7-1.3-0.9-1.7
		c-2.3-3.8-1.1-8.7,2.6-11.1c3.8-2.3,8.7-1.1,11.1,2.6c0.2,0.4,0.4,0.8,0.6,1.2L67.3,126z"/>
	<path fill="#009444" d="M60.3,123.2c0,1-0.1,1.8-0.1,2.6c-0.1,0.8-0.1,1.7-0.2,2.5c-0.2,1.6-0.4,3.3-0.6,4.9
		c-0.5,3.3-1.2,6.6-2.4,10c-0.6,1.7-1.3,3.4-2.3,5.2c-1,1.7-2.2,3.5-3.9,5.1c-0.4,0.4-0.9,0.8-1.4,1.2c-0.3,0.2-0.5,0.4-0.8,0.5
		l-0.4,0.3l-0.2,0.1c-0.8,0.5-1.6,0.9-2.5,1.2c-1.6,0.7-3.3,1.3-4.9,1.8c-6.4,1.8-12.1,2.3-16.4,4.7c-2.1,1.1-4.2,2.9-5.7,4.8
		c-0.7,1-1.3,2-1.6,3.1c-0.2,0.5-0.3,1.1-0.3,1.6c0,0.3,0,0.5,0,0.8c0,0.1,0,0.2,0,0.4l0,0.2c0,0,0,0.1,0,0c0.5,1.2-0.1,2.6-1.3,3.1
		c-1.2,0.5-2.6-0.1-3.1-1.3c-0.1-0.3-0.1-0.3-0.2-0.5l-0.1-0.4c-0.1-0.3-0.1-0.5-0.2-0.7c-0.1-0.5-0.2-1-0.2-1.5
		c-0.1-1,0-1.9,0.1-2.8c0.3-1.9,0.9-3.6,1.7-5.2c0.8-1.6,1.9-3,3-4.3c1.1-1.3,2.4-2.5,3.8-3.6c2.8-2.1,5.9-3.6,8.9-4.8
		c2.9-1.2,5.7-2.2,8.1-3.3c1.2-0.6,2.3-1.2,3.3-1.8c0.5-0.3,1-0.7,1.4-1l0.2-0.2c0,0,0,0,0-0.1c0,0,0.1-0.1,0.1-0.1
		c0.1-0.1,0.2-0.2,0.3-0.3c0.7-1.1,1.5-3.2,1.9-5.6c0.4-2.4,0.6-5,0.6-7.7c0-1.3-0.1-2.7-0.1-4c0-0.7-0.1-1.3-0.2-2
		c-0.1-0.6-0.1-1.4-0.2-1.9c-0.7-4.4,2.2-8.5,6.6-9.3c4.4-0.7,8.5,2.2,9.3,6.6c0.1,0.5,0.1,0.9,0.1,1.4L60.3,123.2z"/>
	<path fill="#F15A29" d="M53.2,118.5c-4.4,0.7-7.3,4.9-6.6,9.3c0.1,0.5,0.2,1.2,0.2,1.9c0.1,0.7,0.1,1.3,0.2,2
		c0.1,1.3,0.1,2.7,0.1,4c0,2.7-0.2,5.3-0.6,7.7c-0.4,2.4-1.2,4.5-1.9,5.6c-0.1,0.1-0.2,0.2-0.3,0.3c0,0.1-0.1,0.1-0.1,0.1
		c0,0-0.1,0.1,0,0.1l-0.2,0.2c-0.4,0.3-0.9,0.7-1.4,1c-1,0.7-2.1,1.3-3.3,1.8c-2.4,1.2-5.2,2.1-8.1,3.3c-2.9,1.2-6,2.6-8.9,4.8
		c-1.4,1-2.7,2.3-3.8,3.6c-1.1,1.3-2.1,2.7-3,4.3c-0.8,1.6-1.5,3.3-1.7,5.2c-0.1,0.9-0.2,1.9-0.1,2.9c0,0.2,0,0.5,0.1,0.7
		c0.5,0.1,1,0.1,1.6-0.1c1.2-0.5,1.8-1.9,1.3-3.1c0,0.1,0,0,0,0l0-0.2c0-0.1,0-0.2,0-0.4c0-0.3,0-0.5,0-0.8c0-0.5,0.2-1.1,0.3-1.6
		c0.3-1.1,0.9-2.1,1.6-3.1c1.5-1.9,3.6-3.7,5.7-4.8c4.4-2.4,10-2.9,16.4-4.7c1.6-0.5,3.2-1,4.9-1.8c0.8-0.4,1.6-0.8,2.5-1.2l0.2-0.1
		l0.4-0.3c0.3-0.2,0.5-0.3,0.8-0.5c0.5-0.4,1-0.8,1.4-1.2c1.7-1.6,2.9-3.4,3.9-5.1c1-1.7,1.7-3.5,2.3-5.2c1.2-3.4,1.9-6.7,2.4-10
		c0.3-1.6,0.5-3.3,0.6-4.9c0.1-0.8,0.1-1.6,0.2-2.5c0-0.9,0.1-1.6,0.1-2.6l0-0.4c0-0.5,0-0.9-0.1-1.4c0-0.3-0.1-0.5-0.2-0.8
		C58.2,119,55.7,118.1,53.2,118.5z"/>
	<path fill="#39B54A" d="M102.4,95.7c0,0,18.2,15.9,31.7-4c21.6-31.9-7.6-73.9-7.6-73.9s-7.1-0.2-8.2,8.6c-1.1,8.8,21.1,37.7-1.6,60
		c-12.2,12-11.9,5.2-11.9,5.2L102.4,95.7z"/>
	<path fill="#39B54A" d="M31.4,98c0,0-28.8,3.2-19.6-25.4c10.8-33.9,64.7-43.7,64.7-43.7l3.8,11.3c0,0-42.8,8.2-53.8,40.2
		c-2.1,6.1,6.8,11.1,6.8,11.1L31.4,98z"/>
	<path fill="#BE1E2D" d="M46.4,125.9l-11.3,9.9c0,0,3.3,5.4,11,9.4s13.1,4.5,13.1,4.5L65,132L46.4,125.9z"/>
	<path fill="#BE1E2D" d="M97.9,126.4l11.3,9.9c0,0-2.7,4.7-7.7,7.7c-5,3-16.3,6.1-16.3,6.1l-5.8-17.8L97.9,126.4z"/>
	<path fill="#BE1E2D" d="M89.4,138.4l6.7,13.4c0,0-4.3,3.4-10,4.3c-5.8,0.9-17.5-0.4-17.5-0.4l1.3-18.7L89.4,138.4z"/>
	<path fill="#BE1E2D" d="M39.9,117.4c0,0-1.7,22,31.4,23.3c38.9,1.6,31.9-26,31.9-26L39.9,117.4z"/>
	<path fill="#39B54A" d="M31.4,98c0,0-28.8,3.2-19.6-25.4c10.8-33.9,63.7-44.4,63.7-44.4s6.6-2.2,7.3,8.9
		c0.7,11.8-45.3,11.4-56.3,43.4c-2.1,6.1,6.8,11.1,6.8,11.1L31.4,98z"/>
	<path fill="#BE1E2D" d="M46.4,125.9l-11.3,9.9c0,0,3.3,5.4,11,9.4s13.1,4.5,13.1,4.5L65,132L46.4,125.9z"/>
	<path fill="#BE1E2D" d="M97.9,126.4l11.3,9.9c0,0-2.7,4.7-7.7,7.7c-5,3-16.3,6.1-16.3,6.1l-5.8-17.8L97.9,126.4z"/>
	<path fill="#BE1E2D" d="M89.4,138.4l6.7,13.4c0,0-4.3,3.4-10,4.3c-5.8,0.9-17.5-0.4-17.5-0.4l1.3-18.7L89.4,138.4z"/>
	<path fill="#BE1E2D" d="M39.9,117.4c0,0-1.7,22,31.4,23.3c38.9,1.6,31.9-26,31.9-26L39.9,117.4z"/>
	<path fill="#009444" d="M39.3,88.5c0,0-6.9-49,32.6-49c41.4,0,30.3,52.3,30.3,52.3l-30.6,3.6L39.3,88.5z"/>
	<path fill="#F9ED32" d="M37.3,82.4l4.3,19.4l-4.3,27.2c0,0,7.1,7.5,37.7,8c24.9,0.4,31.9-5,31.9-5l-3.7-30.5l2.9-16.1
		c0,0-11,6.8-34.5,5.8C48,89.9,37.3,82.4,37.3,82.4z"/>
	<path fill="#F9ED32" d="M128.7,85.4c-2.9-5.1-7.8-7.5-7.8-7.5l-13,6.6c0,0-0.7,0.6-2.3,1.6c-3.1,3.6-9,20.3-7.5,24
		c1.3,3.1,13.3-0.3,20.3-3.8s10.8-8.3,10.8-8.3S131.7,90.5,128.7,85.4z"/>
	<path fill="#BE1E2D" d="M128.7,85.4c-2.9-5.1-7.8-7.5-7.8-7.5l-4.1,2.1c1.1,0.6,5.8,3.4,8.8,8.5c2.2,3.9,1.7,9,1.2,12
		c1.6-1.4,2.4-2.5,2.4-2.5S131.7,90.5,128.7,85.4z"/>
	<path fill="#F9ED32" d="M42.4,106.6c2.3,0.3,2-4.6,3.2-5.6c1.9-1.6-2.7-4.3-2.5-6.7c0.3-2.9,0.3-5.8,0.4-8.7c-4-1.3-6-2.5-6-2.5
		l-10-3.4c0,0-4.6,5.5-4.7,10.5c-0.1,5,2.1,9.9,2.1,9.9l17.1,9.5L42.4,106.6z"/>
	<path fill="#BE1E2D" d="M26,92.8c0.1-4.8,3.7-10,5.1-11.8l-3.6-1.3c0,0-4.6,5.5-4.7,10.5c-0.1,5,2.1,9.9,2.1,9.9l2.6,1.4
		C26.7,99.4,25.9,96.1,26,92.8z"/>
	<path fill="#BE1E2D" d="M107.5,84.8l-1.4,0.4c0,0-11,6.8-34.5,5.8C49.2,90,39,82.3,38,81.6c3.4,4.5,11.7,13.3,32.5,14.9
		C92.2,98.2,103.1,89.6,107.5,84.8z"/>
	<path fill="#BE1E2D" d="M52.6,138.2l-6.7,13.4c0,0,4.3,3.4,10,4.3c5.8,0.9,17.5-0.4,17.5-0.4l-1.3-18.7L52.6,138.2z"/>
	<path fill="#FBB040" d="M43.2,153.8c-1.7,0.5-2.8,1.8-2.5,2.9c0.3,1.1,2,1.6,3.6,1.1c1.7-0.5,2.8-1.8,2.5-2.9
		C46.5,153.8,44.8,153.3,43.2,153.8z M44.1,156.8c-0.9,0.3-1.7,0-1.9-0.5c-0.2-0.6,0.4-1.2,1.3-1.5c0.9-0.3,1.7,0,1.9,0.5
		C45.5,155.9,44.9,156.6,44.1,156.8z"/>
	<path fill="#FBB040" d="M35.3,156.1c-1.7,0.3-3,1.5-2.8,2.6c0.2,1.1,1.8,1.8,3.5,1.5c1.7-0.3,3-1.5,2.8-2.6
		C38.6,156.5,37,155.8,35.3,156.1z M35.9,159.2c-0.9,0.2-1.7-0.2-1.8-0.8c-0.1-0.6,0.5-1.2,1.4-1.3c0.9-0.2,1.7,0.2,1.8,0.7
		C37.4,158.5,36.7,159.1,35.9,159.2z"/>
	<path fill="#FBB040" d="M26.8,159c-1.5,0.7-2.4,2-2,2.9c0.4,1,2,1.2,3.5,0.5c1.5-0.7,2.4-2,2-2.9C29.9,158.5,28.3,158.3,26.8,159z
		 M27.9,161.6c-0.8,0.3-1.6,0.2-1.8-0.3c-0.2-0.5,0.2-1.2,1-1.5c0.8-0.3,1.6-0.2,1.8,0.3C29.2,160.6,28.7,161.2,27.9,161.6z"/>
	<path fill="#FBB040" d="M19.9,163.6c-1,0.7-1.4,1.9-0.9,2.5c0.5,0.6,1.7,0.5,2.7-0.2c1-0.8,1.4-1.9,0.9-2.5
		C22,162.8,20.8,162.9,19.9,163.6z M21.1,165.4c-0.5,0.4-1.1,0.4-1.4,0.1c-0.2-0.3,0-0.9,0.5-1.3c0.5-0.4,1.1-0.4,1.4-0.1
		C21.9,164.4,21.7,165,21.1,165.4z"/>
	<path fill="#FBB040" d="M16.2,168.7c-0.4,0.8-0.3,1.7,0.3,1.9c0.5,0.2,1.3-0.2,1.6-1.1c0.4-0.8,0.3-1.7-0.3-1.9
		C17.3,167.4,16.6,167.8,16.2,168.7z M17.6,169.3c-0.2,0.4-0.6,0.7-0.8,0.6c-0.3-0.1-0.3-0.6-0.1-1c0.2-0.4,0.6-0.7,0.8-0.6
		C17.8,168.5,17.8,168.9,17.6,169.3z"/>
	<path fill="#2B3990" d="M72.6,84.9c14.9,0,25.3-5.8,30.8-9.9c-0.5-15.3-5.9-35.4-31.6-35.4c-24,0-30.9,18.1-32.6,32.4
		C45.5,77.1,57.3,84.9,72.6,84.9z"/>
	<path fill="#39B54A" d="M125.9,17.8c0,0,7.1-1.3,10.7,5.9c4.6,9.3-4.8,13-4.8,13L125.9,17.8z"/>
	<g>
		<path fill="#27AAE1" d="M76.1,43.9c0.3,0,0.5,0,0.8,0.1c0.2,0,0.5,0.1,0.7,0.2c0.4,0.1,0.9,0.3,1.3,0.4c0.8,0.3,1.6,0.7,2.4,1.1
			c1.5,0.8,3,1.7,4.4,2.7l0,0l0,0c0.7,0.7,1.4,1.3,2.1,2l1,1.1c0.3,0.3,0.6,0.7,0.9,1.1c0.3,0.4,0.6,0.7,0.9,1.1l0.8,1.2
			c0.3,0.4,0.5,0.8,0.8,1.2c0.3,0.4,0.5,0.8,0.7,1.2c0.5,0.8,0.9,1.7,1.3,2.6c0.4,0.9,0.7,1.8,1,2.7c0.6,1.8,1.1,3.7,1.3,5.6
			c-0.3-1.9-0.8-3.7-1.4-5.5c-0.3-0.9-0.7-1.8-1.1-2.6c-0.4-0.9-0.8-1.7-1.3-2.5c-0.2-0.4-0.5-0.8-0.7-1.2c-0.3-0.4-0.5-0.8-0.8-1.2
			l-0.9-1.1c-0.3-0.4-0.6-0.7-0.9-1.1c-0.3-0.4-0.6-0.7-0.9-1.1l-1-1c-0.7-0.7-1.4-1.3-2.1-1.9l0,0c-1.4-0.9-2.9-1.8-4.4-2.5
			c-0.8-0.4-1.5-0.7-2.3-1c-0.4-0.1-0.8-0.3-1.2-0.4c-0.2,0-0.4-0.1-0.6-0.1c-0.2,0-0.4,0-0.5,0L76.1,43.9z"/>
	</g>
	<g>
		<path fill="#27AAE1" d="M73.9,45.9c0.3,0.1,0.5,0.1,0.7,0.2c0.2,0.1,0.4,0.2,0.6,0.3c0.4,0.2,0.8,0.4,1.2,0.7
			c0.7,0.5,1.4,1,2.1,1.5c1.4,1.1,2.6,2.3,3.8,3.5l0,0l0,0c0.6,0.8,1.2,1.5,1.7,2.3l0.8,1.2c0.3,0.4,0.5,0.8,0.7,1.3
			c0.2,0.4,0.5,0.8,0.7,1.3l0.6,1.3c0.2,0.4,0.3,0.9,0.5,1.3c0.2,0.4,0.3,0.9,0.5,1.4c0.3,0.9,0.5,1.8,0.8,2.8
			c0.2,0.9,0.4,1.9,0.5,2.8c0.2,1.9,0.3,3.8,0.2,5.7c0.1-1.9,0-3.8-0.3-5.7c-0.1-0.9-0.4-1.9-0.6-2.8c-0.2-0.9-0.5-1.8-0.8-2.7
			c-0.1-0.5-0.3-0.9-0.5-1.3c-0.2-0.4-0.3-0.9-0.6-1.3l-0.6-1.3c-0.2-0.4-0.5-0.8-0.7-1.2c-0.2-0.4-0.4-0.8-0.7-1.2l-0.8-1.2
			c-0.5-0.8-1.2-1.5-1.7-2.2l0,0c-1.2-1.2-2.5-2.3-3.8-3.3c-0.7-0.5-1.4-1-2.1-1.4c-0.4-0.2-0.7-0.4-1.1-0.6
			c-0.2-0.1-0.4-0.2-0.6-0.2c-0.2-0.1-0.4-0.1-0.5-0.1L73.9,45.9z"/>
	</g>
	<g>
		<path fill="#27AAE1" d="M64.8,48.7c-0.1,0-0.3,0.1-0.5,0.1c-0.2,0.1-0.4,0.1-0.6,0.2c-0.4,0.2-0.7,0.4-1.1,0.6
			c-0.7,0.4-1.4,0.9-2.1,1.4c-1.3,1-2.6,2.2-3.8,3.3l0,0c-0.6,0.8-1.2,1.5-1.7,2.2l-0.8,1.2c-0.3,0.4-0.5,0.8-0.7,1.2
			c-0.2,0.4-0.5,0.8-0.7,1.2l-0.6,1.3c-0.2,0.4-0.4,0.9-0.6,1.3c-0.2,0.4-0.4,0.9-0.5,1.3c-0.3,0.9-0.6,1.8-0.8,2.7
			c-0.2,0.9-0.4,1.9-0.6,2.8c-0.3,1.9-0.5,3.8-0.3,5.7c-0.2-1.9-0.1-3.8,0.2-5.7c0.1-0.9,0.3-1.9,0.5-2.8c0.2-0.9,0.5-1.9,0.8-2.8
			c0.1-0.5,0.3-0.9,0.5-1.4c0.2-0.4,0.3-0.9,0.5-1.3l0.6-1.3c0.2-0.4,0.4-0.9,0.7-1.3c0.2-0.4,0.4-0.9,0.7-1.3l0.8-1.2
			c0.5-0.8,1.1-1.6,1.7-2.3l0,0l0,0c1.2-1.2,2.5-2.4,3.8-3.5c0.7-0.5,1.4-1.1,2.1-1.5c0.4-0.2,0.8-0.5,1.2-0.7
			c0.2-0.1,0.4-0.2,0.6-0.3c0.2-0.1,0.4-0.2,0.7-0.2L64.8,48.7z"/>
	</g>
	<circle fill="#F9ED32" cx="70.9" cy="42.9" r="7.6"/>
	<path fill="#262864" d="M73,40.7c0,0-5.5-4.1-13.5-0.3c-5,2.4-12.8,13.1-8,25C55.6,75.4,67,81.4,70,88c3,6.6-1.8,12.1-1.8,12.1
		s14.3,3.4,14-12.9c-0.1-7.6-6.5-17.1-11.5-28.9C67.5,50.4,73,45.4,73,45.4V40.7z"/>
	<g>
		<path fill="#27AAE1" d="M69,79.3c-1.7-1-3.2-2.3-4.6-3.6c-1.4-1.3-2.8-2.8-4-4.3c-1.2-1.5-2.3-3.2-3.2-5c-0.5-0.9-0.9-1.8-1.3-2.7
			c-0.4-0.9-0.7-1.9-1-2.8c-0.3-0.9-0.5-2-0.7-2.9c-0.1-1.1-0.2-2.1-0.1-3.1c0.1-1,0.3-2.1,0.6-3.1c0.4-1,0.8-1.9,1.4-2.8
			c1.2-1.7,2.9-3.1,4.6-4.1c0.9-0.5,1.8-1,2.8-1.3c1-0.4,1.9-0.7,3-0.9l5.7-1.2l-5,3.1c-0.1,0.1-0.5,0.4-0.7,0.6
			c-0.2,0.2-0.5,0.5-0.7,0.8c-0.4,0.6-0.8,1.2-1.1,1.9c-0.3,0.7-0.5,1.4-0.7,2.1l-0.3,1.1l-0.2,1.1c-0.1,0.8-0.2,1.5-0.2,2.3
			c0,0.8-0.1,1.6,0,2.3c0,0.4,0,0.8,0,1.2c0,0.4,0.1,0.8,0.1,1.2c0.1,0.7,0.3,1.5,0.5,2.2c0.8,3,2.3,5.8,4.3,8.3
			c1,1.2,2,2.4,3.2,3.5c1.2,1.1,2.4,2.1,3.7,3c-2.8-1.6-5.3-3.6-7.5-6c-2.2-2.4-3.9-5.2-5-8.4c-0.3-0.8-0.4-1.6-0.6-2.4
			c-0.1-0.4-0.1-0.8-0.2-1.2c-0.1-0.4-0.1-0.8-0.1-1.2c-0.1-0.8-0.1-1.6-0.1-2.5c0-0.8,0-1.6,0.1-2.5l0.2-1.2l0.2-1.2
			c0.2-0.8,0.4-1.6,0.7-2.4c0.3-0.8,0.7-1.6,1.2-2.3c0.3-0.4,0.5-0.7,0.9-1c0.3-0.3,0.6-0.6,1.1-0.9l0.7,1.8
			c-0.8,0.2-1.8,0.5-2.6,0.8c-0.9,0.3-1.7,0.7-2.5,1.2c-1.6,0.9-3,2.1-4.1,3.5c-1.1,1.4-1.7,3.1-1.9,4.9c-0.1,0.9-0.1,1.8,0,2.7
			c0.1,0.5,0.1,1,0.2,1.4c0.1,0.5,0.2,0.9,0.3,1.4c0.9,3.7,2.6,7.2,4.8,10.3c1.1,1.6,2.3,3.1,3.6,4.5C66.1,76.8,67.5,78.1,69,79.3z"
			/>
	</g>
	<path fill="#BE1E2D" d="M62.3,122.5c5.2,0.1,8.4-0.4,8.4-0.4l-0.3,1.2c0,0.3-0.1,0.6-0.1,0.9c0,1.5,0.9,2.2,2.8,2.2
		c2,0,3-1,2.8-3.1l-0.3-4.5l-0.1,0.1c-1.4,0.9-3.3,1.3-5.7,1.3c-5.5,0-8.3-2-8.3-6.1v-3.5c0-2.6,0.7-4.3,2.1-5.3
		c1.5-1.1,4.2-1.6,8.2-1.7h0.5c4,0,6.8,0.5,8.4,1.7c1.7,1.1,2.5,3,2.6,5.6l0.5,15.3c0.1,2.5-0.5,4.3-1.7,5.5
		c-1.2,1.2-4.5,2.5-8.2,2.5c-1.4,0-5.7,0.1-7.1-0.8C65.6,132.7,60.8,129.6,62.3,122.5z M69.6,112v2.2c0,0.9,0.2,1.6,0.5,1.9
		c0.4,0.6,1.3,0.8,2.5,0.8c1.3,0,2.1-0.3,2.5-0.8c0.3-0.4,0.5-1,0.5-1.9V112c0-0.9-0.1-1.6-0.4-2c-0.4-0.5-1.3-0.8-2.6-0.8
		c-1.3,0-2.1,0.3-2.5,0.8C69.8,110.4,69.6,111.1,69.6,112z"/>
</g>
<g id="monster_1_arms_up_legs_down_copy">
</g>
<g id="bell_idle">
</g>
<g id="bell_pull_1">
</g>
<g id="bell_pull_2">
</g>
</svg>
