<?xml version="1.0" encoding="utf-8"?>
<!-- Generator: Adobe Illustrator 20.0.0, SVG Export Plug-In . SVG Version: 6.00 Build 0)  -->
<!DOCTYPE svg PUBLIC "-//W3C//DTD SVG 1.1//EN" "http://www.w3.org/Graphics/SVG/1.1/DTD/svg11.dtd">
<svg version="1.1" xmlns="http://www.w3.org/2000/svg" xmlns:xlink="http://www.w3.org/1999/xlink" x="0px" y="0px"
	 viewBox="0 0 147.4 229.8" enable-background="new 0 0 147.4 229.8" xml:space="preserve" width="147.4" height="229.8" preserveAspectRatio="none">
<g id="rope_placement">
</g>
<g id="Rope">
</g>
<g id="monster_1_arms_up_legs_down">
</g>
<g id="monster_1_arms_up_legs_up">
	<g>
		<path fill="#F36E21" d="M84.6,192.9c0,0-2.7-1.6-7.2,1.3c-4.5,2.8-4.3,5-4.3,5l4.5-2.5c0,0-3.2,1.3-4.3,4.1
			c-1.1,2.8-0.5,4.7-0.5,4.7L84.6,192.9z"/>
		<path fill="#F36E21" d="M66.1,207.2c0,0,22-15.6,20.7-27.8c-1.3-12.2-8.8-17.2-8.8-17.2l6.6-6.6c0,0,14.7,5.2,15.2,23.5
			c0.5,18.2-17.3,37.2-17.3,37.2C76.6,217.8,66.6,212.4,66.1,207.2z"/>
		<path fill="#F36E21" d="M66.1,207.2c0,0,22-15.6,20.7-27.8c-1.3-12.2-8.8-17.2-8.8-17.2l6.6-6.6c0,0,14.7,5.2,15.2,23.5
			c0.5,18.2-17.3,37.2-17.3,37.2C76.6,217.8,66.6,212.4,66.1,207.2z"/>
		<path fill="#652600" d="M79.6,205.5c3.6,1.4,6.9,2,9.5,2.3c-3.6,5.2-6.7,8.5-6.7,8.5c-5.9,1.6-15.9-3.8-16.4-9.1
			c0,0,2.9-2.1,6.5-5.2C73.9,203,76.1,204.2,79.6,205.5z"/>
		<g>
			<path fill="#CD3A1D" d="M83.5,42.4c-0.4-1.6-1.7-2.7-3.6-3.4c2.2-1.5,3.4-3.3,3-4.9c-0.4-1.6-2.1-2.7-4.6-3.1
				c1.7-1.2,2.6-2.6,2.3-3.8c-0.4-1.7-3.1-2.7-6.8-2.6c-0.1-0.8-0.2-1.6-0.2-2.4l-18,2.8l1.2,14.9c0,0,0.1,0.1,0.3,0.2
				c1.1,0.8,2.6,1,3.9,0.9c0.9,0.7,2.1,1.2,3.6,1.4c-1.4,1.4-2.2,3.1-1.8,4.6c0.7,3.2,5.6,4.8,10.9,3.6c0.3-0.1,0.5-0.1,0.8-0.2
				c0.3,0,0.5-0.1,0.8-0.2C80.6,49.2,84.3,45.6,83.5,42.4z"/>
			<path fill="#F36E21" d="M55.9,192.9c0,0,2.7-1.6,7.2,1.3c4.5,2.8,4.3,5,4.3,5l-4.5-2.5c0,0,3.2,1.3,4.3,4.1
				c1.1,2.8,0.5,4.7,0.5,4.7L55.9,192.9z"/>
			<path fill="#CD3A1D" d="M110.7,124.7c0,0,43.7-27.9,29.2-62.1c-14.5-34.2-60-45.1-60-45.1l-3.4,23.3c0,0,50.3,9.3,47.5,51.6
				c-1,14.6-17.1,21.9-17.1,21.9L110.7,124.7z"/>
			<path fill="#CD3A1D" d="M37,125.3c0,0-40.2-30.2-25.7-66.4c14.5-36.2,51-34.2,51-34.2l4,22.4c0,0-32.9-5.3-40.4,34.5
				c-2.5,13.4,9.2,31.4,9.2,31.4L37,125.3z"/>
			
				<ellipse transform="matrix(0.2203 -0.9754 0.9754 0.2203 47.0508 83.1121)" fill="#CD3A1D" cx="75.5" cy="12.1" rx="4.6" ry="11.4"/>
			
				<ellipse transform="matrix(0.2204 -0.9754 0.9754 0.2204 39.094 87.4327)" fill="#652600" cx="74.2" cy="19.3" rx="5.4" ry="11.1"/>
			
				<ellipse transform="matrix(0.2203 -0.9754 0.9754 0.2203 38.3358 85.8674)" fill="#CD3A1D" cx="72.9" cy="19" rx="5.4" ry="11.1"/>
			<ellipse transform="matrix(0.2203 -0.9754 0.9754 0.2203 28.9973 90.2799)" fill="#CD3A1D" cx="71" cy="27" rx="5.9" ry="9.8"/>
			<path fill="#652600" d="M73.8,21.6c-0.3-0.1-0.5-0.1-0.8-0.2c4.9,1.3,8.2,4.7,7.5,7.7c-0.6,2.6-4,4.1-8.1,4c0,0.1,0,0.1,0,0.2
				c4.8,0.7,8.9-0.9,9.6-3.8C82.8,26.3,79.1,22.8,73.8,21.6z"/>
			<path fill="#652600" d="M74.1,33.2c-0.3,0-0.5-0.1-0.8-0.1c4.9,1,8.2,3.7,7.5,6c-0.5,1.7-3,2.9-6.3,3.1c0,0.1,0.1,0.2,0.1,0.3
				c4,0.1,7.2-1.1,7.7-3.1C83.1,36.9,79.4,34.2,74.1,33.2z"/>
			<path fill="#CD3A1D" d="M88.1,22.3l1.2-14.9l-18-2.8c0,0-0.4,9.4-1.8,14.4c-1.4,5-3.5,7.8-3.5,7.8s6.8,1.4,9.1-5.1
				c1.5-4,0.7-10.2,0.7-10.2s2.2,10,6.1,11.3C85.9,24.2,88.1,22.3,88.1,22.3z"/>
			<g>
				<path fill="#652600" d="M71.4,4.6c0,1.9-0.1,3.9-0.2,5.8c-0.1,1.9-0.3,3.9-0.6,5.8c-0.3,1.9-0.8,3.8-1.4,5.7
					c-0.7,1.8-1.5,3.6-2.7,5.3l-0.3-0.7c1.7,0.3,3.5,0.1,5-0.7c1.5-0.7,2.7-2.1,3.4-3.6c0.7-1.6,0.9-3.4,1.1-5.1
					c0.1-1.8,0.1-3.6-0.1-5.3l0.8-0.1c0.4,1.6,0.8,3.1,1.3,4.7c0.5,1.5,1.2,3,2,4.4c0.4,0.7,0.9,1.3,1.6,1.8
					c0.6,0.5,1.4,0.6,2.2,0.8c1.6,0.3,3.3,0.1,4.7-0.8c-1.3,1-3.1,1.3-4.7,1.1c-0.8-0.1-1.7-0.3-2.4-0.8c-0.7-0.5-1.3-1.1-1.8-1.8
					c-1-1.4-1.6-2.9-2.2-4.4c-0.6-1.5-1.1-3.1-1.5-4.7l0.8-0.1c0.2,1.8,0.2,3.7,0.2,5.5c-0.1,1.8-0.3,3.7-1.1,5.4
					c-0.7,1.8-2.1,3.3-3.9,4.1c-1.8,0.8-3.7,1-5.6,0.7l-0.7-0.1l0.4-0.6c1.1-1.5,1.9-3.3,2.6-5c0.7-1.8,1.2-3.6,1.6-5.5
					C70.6,12.3,71,8.4,71.4,4.6z"/>
			</g>
			<g>
				<path fill="#652600" d="M72.3,26c0,1.9,0.1,3.9,0.2,5.8c0.1,1.9,0.3,3.9,0.6,5.8c0.3,1.9,0.8,3.8,1.4,5.7
					c0.7,1.8,1.5,3.6,2.7,5.3l0.3-0.7c-1.7,0.3-3.5,0.1-5-0.7c-1.5-0.7-2.7-2.1-3.4-3.6c-0.7-1.6-0.9-3.4-1.1-5.1
					c-0.1-1.8-0.1-3.6,0.1-5.3L67.3,33c-0.4,1.6-0.8,3.1-1.3,4.7c-0.5,1.5-1.2,3-2,4.4c-0.4,0.7-0.9,1.3-1.6,1.8
					c-0.6,0.5-1.4,0.6-2.2,0.8c-1.6,0.3-3.3,0.1-4.7-0.8c1.3,1,3.1,1.3,4.7,1.1c0.8-0.1,1.7-0.3,2.4-0.8c0.7-0.5,1.3-1.1,1.8-1.8
					c1-1.4,1.6-2.9,2.2-4.4c0.6-1.5,1.1-3.1,1.5-4.7L67.3,33c-0.2,1.8-0.2,3.7-0.2,5.5c0.1,1.8,0.3,3.7,1.1,5.4
					c0.7,1.8,2.1,3.3,3.9,4.1c1.8,0.8,3.7,1,5.6,0.7l0.7-0.1L77.9,48c-1.1-1.5-1.9-3.3-2.6-5c-0.7-1.8-1.2-3.6-1.6-5.5
					C73,33.7,72.6,29.9,72.3,26z"/>
			</g>
			<path fill="#F36E21" d="M74.3,207.2c0,0-22-15.6-20.7-27.8c1.3-12.2,8.8-17.2,8.8-17.2l-6.6-6.6c0,0-14.7,5.2-15.2,23.5
				C40.2,197.3,58,216.3,58,216.3C63.8,217.8,73.8,212.4,74.3,207.2z"/>
			<path fill="#F36E21" d="M74.3,207.2c0,0-22-15.6-20.7-27.8c1.3-12.2,8.8-17.2,8.8-17.2l-6.6-6.6c0,0-14.7,5.2-15.2,23.5
				C40.2,197.3,58,216.3,58,216.3C63.8,217.8,73.8,212.4,74.3,207.2z"/>
			<path fill="#1F6030" d="M50.1,155.8l-10.5,10.9c0,0,3.1,5.9,10.2,10.3c7.2,4.4,12.3,4.9,12.3,4.9l5.4-19.5L50.1,155.8z"/>
			<path fill="#1F6030" d="M90.5,155.8l10.5,10.9c0,0-2.5,5.2-7.2,8.5s-15.3,6.7-15.3,6.7l-5.4-19.5L90.5,155.8z"/>
			<path fill="#1F6030" d="M41.3,141.6c0,0-2.5,26.8,28.4,28.3C106,171.6,97,140.6,97,140.6L41.3,141.6z"/>
			<path fill="#652600" d="M69.8,156.6c0,0-14.1,1.5-13.7,16.8c0.4,15.3,15.6,16.4,20.2,22.1c4.6,5.7,0.8,13,0.8,13l6.1-6.5v4.6
				c0,0,6.4-1.8,7.5-9c1.1-7.2-10.3-10.6-16.9-23.4c-4.4-8.5-0.9-16.7-0.9-16.7L69.8,156.6z"/>
			<g>
				<path fill="#CD3A1D" d="M71,187.2c-2.6-1.2-5-2.8-7.1-4.9c-2-2.1-3.7-4.6-4.4-7.5c-0.3-1.5-0.3-3,0.1-4.4c0.4-1.4,1-2.8,1.8-4
					c1.6-2.5,3.6-4.6,5.9-6.5l1.6-1.3l-0.8,1.9c-1.1,2.4-1.7,5.1-1.9,7.8c-0.2,2.7,0.1,5.4,0.9,8c0.9,2.5,2.5,4.8,4.4,6.7
					c1.9,2,4.1,3.7,6.4,5.1c-2.4-1.3-4.7-2.9-6.7-4.8c-2-1.9-3.8-4.2-4.8-6.8c-1-2.6-1.3-5.5-1.1-8.3c0.2-2.8,0.8-5.5,1.9-8.2
					l0.7,0.6c-2.2,1.7-4.2,3.8-5.7,6.2c-1.5,2.3-2.5,5.1-1.9,7.8c0.6,2.7,2.1,5.2,4,7.3C66.2,184.1,68.5,185.8,71,187.2z"/>
			</g>
			<path fill="#B0D237" d="M43.5,113.7L43.2,125l-6,24.8c0,0,7.3,10.8,35.9,11.4c23.2,0.5,31.5-10.6,31.5-10.6l-6.4-23.7v-10.9
				c0,0-6.3,0.5-28.3-0.6C47.9,114.2,43.5,113.7,43.5,113.7z"/>
			<path fill="#B0D237" d="M115.9,116.7c-2.7-5.6-7.3-8.2-7.3-8.2l-12.1,7.2c0,0-0.7,0.7-2.1,1.8c1,4.2-1.3,11.2,0.1,15.2
				c1.2,3.4,9.8,0.6,10,0.7l11.9-2.8C116.3,130.6,118.6,122.3,115.9,116.7z"/>
			<path fill="#B0D237" d="M42.3,132.2c2.2,0.4,2.2,0.6,3.3-0.5c1.8-1.7,2.2-5.1,2.5-7.7c0.3-3.2,0.3-6.3,0.3-9.5
				c-3.8-1.5-5.6-2.8-5.6-2.8l-9.3-3.8c0,0-4.3,6-4.4,11.6c-0.1,5.5,1.9,10.8,1.9,10.8l8.6,0.7L42.3,132.2z"/>
			<path fill="#1F6030" d="M36.3,109.1l-2.9-1.2c0,0-4.3,6-4.4,11.6c-0.1,5.5,1.9,10.8,1.9,10.8l2.5,0.2c-0.3-2.9-0.5-6.8-0.2-11
				C33.6,114.4,35.1,111.1,36.3,109.1z"/>
			<path fill="#1F6030" d="M116.3,130.6c0,0,2.3-8.3-0.4-13.9c-2.7-5.6-7.3-8.2-7.3-8.2l-1.4,0.9c1.6,1.6,3.7,4.4,5,9.2
				c1.3,4.8,1.9,9.3,2.1,12.3L116.3,130.6z"/>
			<path fill="#1F6030" d="M86.6,116c-4.1-0.1-9.6-0.3-16.7-0.7c-6.8-0.4-11.9-0.6-15.7-0.9c0.7,4.2,7.8,7.4,16.5,7.4
				C78.3,121.9,84.7,119.4,86.6,116z"/>
			<path fill="#F36E21" d="M62,60.6l-3.4,55.3c0,0,4.7,2.8,13.4,2.8c8.8,0,10-2.2,10-2.2l-5.3-53.7L62,60.6z"/>
			<path fill="#FDC010" d="M51.3,66.2c0,0-7.8,0.9-18.7-2.5c-12.1-3.8-3.4-18.1-3.4-18.1S12,50.3,14.5,67.5
				c2.5,17.2,35,17.2,35,17.2L51.3,66.2z"/>
			<path fill="#FFE000" d="M32.6,63.7c-12.1-3.8-3.4-18.1-3.4-18.1s-1,0.3-2.5,0.9c-3.2,3.3-7.3,9.6-3.1,17.2
				c4.6,8.4,19.7,9.8,27,10l0.8-7.5C51.3,66.2,43.5,67.2,32.6,63.7z"/>
			<polygon fill="#FFE000" points="24.8,61.6 17.6,72.8 26.7,65.6 			"/>
			<polygon fill="#FFE000" points="35.4,70 35.1,81.9 39.5,70 			"/>
			<path fill="#FDC010" d="M88.3,66.2c0,0,7.8,0.9,18.8-2.5c12.1-3.8,3.4-18.1,3.4-18.1s17.2,4.7,14.7,21.9
				c-2.5,17.2-35,17.2-35,17.2L88.3,66.2z"/>
			<path fill="#FFE000" d="M107,63.7c12.1-3.8,3.4-18.1,3.4-18.1s1,0.3,2.5,0.9c3.2,3.3,7.3,9.6,3.1,17.2c-4.6,8.4-19.7,9.8-27,10
				l-0.8-7.5C88.3,66.2,96.1,67.2,107,63.7z"/>
			<polygon fill="#FFE000" points="114.8,61.6 122,72.8 113,65.6 			"/>
			<polygon fill="#FFE000" points="104.2,70 104.5,81.9 100.2,70 			"/>
			<path fill="#F36E21" d="M99.2,80.6c0,16.1,1.6,34.1-28.8,33.4c-26.9-0.6-28.8-17.3-28.8-33.4s12.9-25,28.8-25
				C86.3,55.6,99.2,64.5,99.2,80.6z"/>
			<path fill="#652600" d="M69.2,52.5c0,0-6.9-0.9-13.1,0.3c-6.3,1.3-9.7,7.5-9.7,7.5l9.7-1.6c0,0-4.7,2.5-6.6,9.7
				s0.6,12.5,0.6,12.5l12.8-15.3c0,0-2.2,2.8,0,10C65.1,82.8,76,87.8,76,87.8s3.1-4.7,3.4-10.9c0.3-6.3-4.1-11.3-4.1-11.3l17.2,10.3
				c0,0-0.1-5.6-3.8-9.4c-3.7-3.8-6.1-5.2-6.1-5.2l10.7,0.2c0,0-5.1-9-11.5-9.6C75.7,51.2,69.2,52.5,69.2,52.5z"/>
			<path fill="#652600" d="M72.1,54.2c-2.2-3.9-5.2-6-7.4-6.4c0.5,2,1,4,1.6,6.2C68.2,53,70.4,53.1,72.1,54.2z"/>
			<path fill="#652600" d="M67.8,53.5c3.1-3.2,6.7-4.4,8.9-4.2c-1,1.8-2.1,3.6-3.2,5.5C71.9,53.4,69.7,52.9,67.8,53.5z"/>
			<g>
				<path fill="#CD3A1D" d="M57.8,60.9c-0.1-1,0.2-2,0.8-2.8c0.6-0.8,1.4-1.5,2.3-2c0.9-0.5,1.8-0.9,2.8-1.1c1-0.3,2-0.4,3-0.4
					l2.5,0l-2.4,0.9c-0.3,0.1-0.8,0.5-1,0.9c-0.3,0.4-0.5,0.9-0.6,1.5c-0.2,1.1-0.2,2.2,0,3.4c0.1,1.1,0.5,2.2,1.1,3.2
					c0.6,1,1.4,1.9,2.5,2.4c-1.2-0.3-2.2-1.1-2.9-2.1c-0.7-1-1.2-2.2-1.4-3.4c-0.2-1.2-0.3-2.4-0.1-3.7c0.2-1.2,0.8-2.6,2.3-3.2
					l0.1,1c-0.9,0-1.9,0.1-2.8,0.3c-0.9,0.2-1.8,0.5-2.7,0.9c-0.9,0.4-1.7,0.9-2.3,1.6C58.3,59,57.9,59.9,57.8,60.9z"/>
			</g>
			<g>
				<path fill="#CD3A1D" d="M79.9,61.9c-0.3-1.8-1.2-3.5-2.6-4.4c-0.7-0.5-1.5-0.8-2.4-1.1c-0.8-0.3-1.7-0.5-2.5-0.7l0.5-0.8
					c0.5,0.7,1,1.5,1.4,2.3c0.4,0.8,0.7,1.7,0.8,2.6c0.1,0.9,0,1.8-0.1,2.7c-0.2,0.9-0.3,1.7-0.6,2.5c0.1-0.9,0.2-1.7,0.2-2.6
					c0-0.9,0-1.7-0.1-2.5c-0.2-0.8-0.5-1.6-0.9-2.3c-0.4-0.7-0.8-1.5-1.3-2.1l-0.8-1l1.3,0.3c0.9,0.2,1.8,0.4,2.7,0.8
					c0.9,0.3,1.7,0.7,2.5,1.3c0.8,0.6,1.4,1.4,1.7,2.3C79.8,60.1,80,61,79.9,61.9z"/>
			</g>
			<g>
				<path fill="#1F6030" d="M80.3,133.4l-8.1,14.3l2.1-0.1l0.2,7.9l-11.5,0.3l0.3-7l2.4-0.3l7.3-13.6l-5.8,0.2l0.1,1.4l-4.7,0.4
					l0.2-10.4l18.1,0.3L80.3,133.4z"/>
			</g>
		</g>
		<path fill="#652600" d="M60.8,205.5c-3.6,1.4-6.9,2-9.5,2.3c3.6,5.2,6.7,8.5,6.7,8.5c5.9,1.6,15.9-3.8,16.4-9.1
			c0,0-2.9-2.1-6.5-5.2C66.5,203,64.3,204.2,60.8,205.5z"/>
	</g>
</g>
<g id="monster_1_arms_down_legs_down">
</g>
<g id="monster_1_arms_down_legs_up">
</g>
<g id="monster_1_arms_up_legs_down_copy">
</g>
<g id="bell_idle">
</g>
<g id="bell_pull_1">
</g>
<g id="bell_pull_2">
</g>
</svg>
