<?xml version="1.0" encoding="utf-8"?>
<!-- Generator: Adobe Illustrator 20.0.0, SVG Export Plug-In . SVG Version: 6.00 Build 0)  -->
<!DOCTYPE svg PUBLIC "-//W3C//DTD SVG 1.1//EN" "http://www.w3.org/Graphics/SVG/1.1/DTD/svg11.dtd">
<svg version="1.1" xmlns="http://www.w3.org/2000/svg" xmlns:xlink="http://www.w3.org/1999/xlink" x="0px" y="0px"
	 viewBox="0 0 147.4 229.8" enable-background="new 0 0 147.4 229.8" xml:space="preserve" width="147.4" height="229.8" preserveAspectRatio="none">
<g id="rope_placement">
</g>
<g id="Rope">
</g>
<g id="monster_1_arms_up_legs_down">
</g>
<g id="monster_1_arms_up_legs_up">
</g>
<g id="monster_1_arms_down_legs_down">
</g>
<g id="monster_1_arms_down_legs_up">
	<g>
		<g>
			<path fill="#53A045" d="M118.3,118.9c0,0,13.1,19.3,22.9-10.2c9.8-29.5,0.3-54.1,0.3-54.1l-19,15.6c0,0,13.2,16.6,1.3,40.1
				c-7.8,15.5-6.8,4.6-6.8,4.6L118.3,118.9z"/>
		</g>
		<g>
			<path fill="#DD8826" d="M57.6,217.6c0,0-4.5-3.9-5.6-2.6c-2.6,3-1.2,9.6-1.2,9.6l5.7-4L57.6,217.6z"/>
			<path fill="#DD8826" d="M61,220.7c0,0-4.5-3.9-5.6-2.6c-2.6,3-1.2,9.6-1.2,9.6l5.7-4L61,220.7z"/>
			<g>
				<path fill="#53A045" d="M30.8,127.3c0,0-28.8,3.2-19.6-25.4C22,68,61.5,61.2,61.5,61.2l6.9,21.4c0,0-26.5,3.3-38.8,29.5
					s3,8.7,3,8.7L30.8,127.3z"/>
				<path fill="#53A045" d="M56.8,163.7c0,0-13,7.2-13.7,19.7c-0.5,9.6,8.3,17.3,8.3,17.3l4.7,4c0,0-2.7,3-3.7,8.3
					c-1.1,5.7,5.3,12.1,5.3,12.1s7.7-5.1,11.4-11.4c3.7-6.3,2-14,2-14s-12.4-5.2-14.1-14.6c-1.7-9.4,8.2-16.7,8.2-16.7L56.8,163.7z"
					/>
				<path fill="#DD8826" d="M92.1,217.2c0,0,4-4.3,5.2-3.2c2.9,2.7,2.3,9.4,2.3,9.4l-6.1-3.4L92.1,217.2z"/>
				<path fill="#DD8826" d="M89.1,220.6c0,0,4-4.3,5.2-3.2c2.9,2.7,2.3,9.4,2.3,9.4l-6.1-3.4L89.1,220.6z"/>
				<path fill="#53A045" d="M86.9,163.6c0,0,13.7,5.7,15.8,18c1.6,9.5-6.3,18.2-6.3,18.2l-4.2,4.5c0,0,3,2.7,4.6,7.9
					c1.7,5.6-3.9,12.6-3.9,12.6s-8.2-4.2-12.6-10.1c-4.3-5.9-3.6-13.7-3.6-13.7s11.8-6.6,12.4-16.1c0.6-9.5-10-15.6-10-15.6
					L86.9,163.6z"/>
				<path fill="#3F2979" d="M51.3,157.2L40,167.2c0,0,3.3,5.4,11,9.4s13.1,4.5,13.1,4.5l5.8-17.8L51.3,157.2z"/>
				<path fill="#3F2979" d="M94.4,157.2l11.3,9.9c0,0-2.7,4.7-7.7,7.7c-5,3-16.3,6.1-16.3,6.1l-5.8-17.8L94.4,157.2z"/>
				<path fill="#3F2979" d="M40.8,146.7c0,0-1.7,22,31.4,23.3c38.9,1.6,31.9-26,31.9-26L40.8,146.7z"/>
			</g>
			<path fill="#00793A" d="M42,177.1c0.4,1.4,1.4,2.5,2.5,3.3c1.2,0.7,2.5,1,3.8,0.9c2.6-0.4,4.8-2.4,5.5-4.7
				c0.4-1.2,0.4-2.4,0.1-3.5c0-0.1-0.1-0.3-0.1-0.4l0-0.1c0,0,0-0.1,0-0.1l-0.1-0.3c-0.1-0.3-0.2-0.5-0.4-0.8c-0.3-0.5-0.6-1-1-1.5
				c-1.5-1.8-3.8-2.8-5.9-2.7c-0.5,0-1.1,0.1-1.6,0.2l-0.4,0.1l-0.2,0.1l-0.1,0l0,0c0,0-0.1,0,0,0l0,0l-0.5,0.2
				c-0.1,0.1-0.2,0.1-0.3,0.2c-1,0.5-2,1.1-2.8,1.9c-1.7,1.5-2.8,3.6-3.2,5.6c-0.2,1-0.2,2,0,2.9c0.1,0.5,0.2,0.8,0.4,1.3l0.2,0.5
				l0.2,0.4c0.1,0.2,0.2,0.5,0.3,0.8c1,2.1,2.4,3.8,4,4.9c1.6,1.2,3.5,1.8,5.5,2c1,0.1,2.1,0.1,3.2,0c0.3,0,0.6-0.1,0.8-0.1l0.5-0.1
				c0.2,0,0.2,0,0.4-0.1c0.5-0.1,1-0.2,1.5-0.4c4-1.1,6.6-3.7,8.4-7.3c1.7-3.7,2.5-8.4,2.2-12.9l-0.2-17.6l20,1.2l-2.2,16.9
				c-0.3,3.6-1,7-2.1,10.3c-1.1,3.4-2.6,6.7-4.8,9.8c-2.1,3.1-4.9,5.9-8.2,8c-3.3,2.1-7.1,3.4-10.8,3.8c-0.9,0.1-1.8,0.2-2.8,0.2
				l-0.7,0l-0.5,0c-0.5,0-0.9,0-1.4,0c-1.8-0.1-3.6-0.4-5.4-0.9c-3.6-1-7.1-2.9-9.8-5.6c-2.7-2.7-4.5-6-5.5-9.3
				c-0.1-0.4-0.2-0.8-0.4-1.3l-0.2-0.7l-0.1-0.5c-0.2-0.9-0.3-2-0.3-2.9c0-2,0.3-3.9,1-5.7c1.3-3.5,3.7-6.3,6.6-8.3
				c2.9-2,6.5-3.2,10.1-2.7c3.6,0.5,6.8,2.6,8.6,5.6c0.5,0.7,0.8,1.5,1.1,2.3c0.1,0.4,0.3,0.8,0.4,1.2l0.1,0.3l0,0.2l0,0.2
				c0,0.2,0.1,0.4,0.1,0.6c0.2,1.7-0.1,3.5-0.9,5c-1.5,3-4.6,5-7.8,5c-1.6,0-3.1-0.6-4.3-1.6C43,179.9,42.2,178.5,42,177.1z"/>
			<path fill="#00793A" d="M39.5,117.7c0,0-7-54.7,33.3-54.7c42.3,0,31,58.3,31,58.3l-31.3,4L39.5,117.7z"/>
			<path fill="#C172AF" d="M38.2,111.7l4.3,19.4l-4.3,22c0,0,7.1,8.6,37.7,9.1c24.9,0.4,31.9-6.1,31.9-6.1l-3.7-25.3l2.9-16.1
				c0,0-11,6.8-34.5,5.8C48.9,119.3,38.2,111.7,38.2,111.7z"/>
			<path fill="#C172AF" d="M129.7,114.8c-2.9-5.1-7.8-7.5-7.8-7.5l-13,6.6c0,0-0.7,0.6-2.3,1.6c-3.1,3.6-8.9,12.9-7.4,16.6
				c1.3,3.1,18-2.2,18.2-2.1l12.7-2.5C130.1,127.4,132.6,119.9,129.7,114.8z"/>
			<path fill="#C172AF" d="M43.5,132.7c2.3,0.3,1.8-1.4,3-2.3c1.9-1.6-2.7-4.3-2.5-6.7c0.3-2.9,0.3-5.8,0.4-8.7c-4-1.3-6-2.5-6-2.5
				l-10-3.4c0,0-4.6,5.5-4.7,10.5c-0.1,5,2.1,9.9,2.1,9.9l9.2,0.6L43.5,132.7z"/>
			<path fill="#3F2979" d="M108.4,114.1l-1.4,0.4c0,0-11,6.8-34.5,5.8c-22.3-1-32.5-8.7-33.6-9.4c3.4,4.5,11.7,13.3,32.5,14.9
				C93.1,127.6,104.1,118.9,108.4,114.1z"/>
			<path fill="#3F2979" d="M31.4,110.2l-3.1-1.1c0,0-4.6,5.5-4.7,10.5c-0.1,5,2.1,9.9,2.1,9.9l2.6,0.2c-0.3-2.7-0.6-6.2-0.2-10.1
				C28.5,115,30.1,111.9,31.4,110.2z"/>
			<path fill="#3F2979" d="M130.1,127.4c0,0,2.5-7.6-0.4-12.7c-2.9-5.1-7.8-7.5-7.8-7.5l-1.5,0.8c1.7,1.4,4,4,5.4,8.4
				c1.4,4.4,2,8.5,2.2,11.2L130.1,127.4z"/>
			<path fill="#00793A" d="M21.6,103.2c-1.4,0-2.7-1.3-3-3.1c-0.1,0.3-0.1,0.7-0.1,1c0,2.3,1.4,4.1,3.1,4.1c1.7,0,3.1-1.9,3.1-4.1
				c0-0.4,0-0.7-0.1-1C24.3,101.9,23.1,103.2,21.6,103.2z"/>
			<path fill="#00793A" d="M25.6,98.8c-1.4,0-2.7-1.3-3-3.1c-0.1,0.3-0.1,0.7-0.1,1c0,2.3,1.4,4.1,3.1,4.1c1.7,0,3.1-1.8,3.1-4.1
				c0-0.4,0-0.7-0.1-1C28.3,97.5,27.1,98.8,25.6,98.8z"/>
			<path fill="#00793A" d="M34.6,83.5c-1.4,0-2.7-1.3-3-3.1c-0.1,0.3-0.1,0.7-0.1,1c0,2.3,1.4,4.1,3.1,4.1c1.7,0,3.1-1.9,3.1-4.1
				c0-0.4,0-0.7-0.1-1C37.3,82.2,36.1,83.5,34.6,83.5z"/>
			<path fill="#00793A" d="M37.5,68.4c1.1-0.2,1.8,7.3,4.7,13.3c3.1,6.7,8.3,12,8.3,12l-2,10.3c0,0-5,0.3-9-3.3c-4-3.7-6.7-6-8-16.3
				C30.1,74.1,35.1,68.7,37.5,68.4z"/>
			<path fill="#00793A" d="M108.4,66.4c-1.1-0.2-1.8,7.3-4.7,13.3c-3.1,6.7-8.3,12-8.3,12l2,10.3c0,0,5,0.3,9-3.3
				c4-3.7,6.7-6,8-16.3C115.8,72.1,110.8,66.7,108.4,66.4z"/>
			<path fill="#3F2979" d="M67.6,58.5c0,0-4.4-4.5-9.9-3.7c-5.5,0.8-8.1,4.2-8.1,4.2l6.3,0.6c0,0-5.2,0-9.7,5.9
				C41.7,71.5,43,80.2,43,80.2s1-2.8,5-5.6c3.9-2.8,8.6-2.5,8.6-2.5s-3.1,3.5-1.8,7.9c1.8,6.2,5.5,6.7,5.5,6.7s-1.3-3.9,0.8-9
				c2.3-5.6,5.5-5.6,5.5-5.6S66,75.4,67,79.3c1,3.9,6.8,6.7,6.8,6.7s3.1-23.8,0-29.3c-3.1-5.5-8.6-4.9-8.6-4.9L67.6,58.5z"/>
			<path fill="#3F2979" d="M77.9,57.7c0,0,4.4-4.5,9.9-3.7c5.5,0.8,8.1,4.2,8.1,4.2l-6.3,0.6c0,0,5.2,0,9.7,5.9
				c4.4,5.9,3.1,14.6,3.1,14.6s-1-2.8-5-5.6c-3.9-2.8-8.6-2.5-8.6-2.5s3.1,3.5,1.8,7.9c-1.8,6.2-5.5,6.7-5.5,6.7s1.3-3.9-0.8-9
				c-2.3-5.6-5.5-5.6-5.5-5.6s0.5,3.4-0.5,7.3c-1,3.9-4.6,7.6-4.6,7.6s-5.3-24.7-2.2-30.2c3.1-5.5,8.6-4.9,8.6-4.9L77.9,57.7z"/>
			<path fill="#3F2979" d="M63,69.6c0,0-1.4,2.6-1.3,6.2c0.2,3.6,3.8,6.6,3.8,6.6s-0.1-1.2,1.5-5.2c2-4.9,2.9-4.8,2.9-4.8L63,69.6z"
				/>
			<path fill="#3F2979" d="M82.3,68.3c0,0,1.5,2.5,1.4,6.2c-0.1,3.6-3.7,6.7-3.7,6.7S80,80,78.3,76c-2.1-4.9-3-4.8-3-4.8L82.3,68.3z
				"/>
			<g>
				<path fill="#3F2979" d="M88.3,152.8c0,3.6-3.4,5.3-10,4.9c-3.1-0.2-16.1-2.2-16.1-2.2l-0.4-9.7l10.7,0.2l0,0.6l0,0.3
					c0,0.7,0,1.3,0.2,1.5c0.3,0.4,1,0.6,2.1,0.6c1.8,0.1,2.9,0.1,3.4,0c1.1-0.2,1.7-0.8,1.8-1.9c0.1-1.4-0.2-2.4-0.9-2.9
					c-1.1-0.7-16.3-1.9-16.7-7.6l0.4-7.9l25.8-0.3l-0.7,7.5l-14.8-0.5c-0.1,0.7-0.1,1.3-0.2,1.8c-0.1,1.1,0.4,1.8,1.4,2.2
					c0.2,0.1,1.6,0.3,4.3,0.8c1.6,0.2,3.2,0.4,4.7,0.7c1.7,0.3,3,0.9,3.8,1.5c1,0.9,1.5,2.2,1.4,4L88.3,152.8z"/>
			</g>
			<path fill="#00793A" d="M134.8,95.4c-1.4,0-2.7-1.3-3-3.1c-0.1,0.3-0.1,0.7-0.1,1c0,2.3,1.4,4.1,3.1,4.1c1.7,0,3.1-1.9,3.1-4.1
				c0-0.4,0-0.7-0.1-1C137.5,94.1,136.3,95.4,134.8,95.4z"/>
		</g>
		<path fill="#53A045" d="M142.3,56.4c0,0-8-17.4-5.1-27.6c0,0-15.1,1.7-3.9,21.7c0,0-7.4-9.4-11.4-9.1c-3.9,0.3-4.9,1.5-5.8,2.5
			c-4.2,4.5,2.3,8.4,2.3,8.4l14.4,11.4L142.3,56.4z"/>
		
			<ellipse transform="matrix(0.604 -0.7969 0.7969 0.604 9.519 121.6802)" fill="#006955" cx="127.2" cy="51.3" rx="5.1" ry="11.4"/>
		<ellipse transform="matrix(0.604 -0.797 0.797 0.604 9.41 120.3608)" fill="#53A045" cx="125.8" cy="50.7" rx="4.7" ry="11.4"/>
		
			<ellipse transform="matrix(0.3283 -0.9446 0.9446 0.3283 20.0018 158.5579)" fill="#006955" cx="121.5" cy="65.2" rx="5.3" ry="10.1"/>
		
			<ellipse transform="matrix(0.3283 -0.9446 0.9446 0.3283 19.4716 156.7423)" fill="#53A045" cx="119.9" cy="64.7" rx="5.3" ry="10.1"/>
		<g>
			<g>
				<path fill="#006955" d="M142.3,56.4c-1-2.2-1.9-4.4-2.7-6.6c-0.9-2.2-1.7-4.5-2.3-6.8c-0.7-2.3-1.1-4.7-1.4-7.1
					c-0.1-1.2-0.1-2.4-0.1-3.6c0-0.6,0-1.2,0.1-1.8c0.1-0.6,0.1-1.2,0.2-1.8l0.6,0.6c-0.5,0.1-1,0.3-1.5,0.5c-0.5,0.2-1,0.5-1.4,0.7
					c-0.9,0.6-1.7,1.2-2.4,2c-1.4,1.6-1.9,3.7-1.9,5.8c0,0.3,0,0.5,0,0.8l0.1,0.8c0.1,0.5,0.2,1,0.3,1.6c0.1,0.5,0.3,1,0.5,1.6
					c0.2,0.5,0.4,1,0.6,1.5c0.8,2,1.8,4,2.9,5.9l-0.8,0.6c-1.2-1.6-2.5-3.1-4-4.6c-1.4-1.4-2.9-2.8-4.6-3.8
					c-0.9-0.5-1.8-0.9-2.7-1.1c-0.5-0.1-0.9,0-1.5,0c-0.3,0-0.5,0.1-0.7,0.2c-0.2,0.1-0.5,0.1-0.7,0.2c-1.9,0.7-3.5,2.2-4.2,4.1
					c0.6-2,2.2-3.6,4.1-4.4c0.2-0.1,0.5-0.2,0.7-0.3c0.3-0.1,0.5-0.2,0.8-0.2c0.5-0.1,1.1-0.2,1.6-0.1c1.1,0.1,2.1,0.5,3,1
					c1.8,1,3.4,2.4,4.9,3.8c1.5,1.4,2.9,2.9,4.2,4.6l-0.8,0.6c-1.2-1.9-2.2-3.9-3-6c-0.2-0.5-0.4-1.1-0.6-1.6
					c-0.2-0.5-0.4-1.1-0.5-1.6c-0.2-0.5-0.3-1.1-0.4-1.7l-0.1-0.8c0-0.3,0-0.6-0.1-0.9c0-0.6,0-1.2,0.1-1.8c0.1-0.6,0.2-1.2,0.4-1.7
					c0.4-1.1,1-2.2,1.7-3.1c0.8-0.9,1.7-1.7,2.7-2.3c0.5-0.3,1-0.6,1.5-0.8c0.5-0.2,1.1-0.4,1.7-0.6l0.8-0.2l-0.2,0.8
					c-0.1,0.5-0.2,1.1-0.2,1.7c-0.1,0.6-0.1,1.2-0.1,1.7c0,1.2,0,2.3,0,3.5c0.1,2.3,0.5,4.7,1.1,6.9c0.6,2.3,1.3,4.6,2,6.8
					C140.6,51.9,141.4,54.2,142.3,56.4z"/>
			</g>
		</g>
		
			<ellipse transform="matrix(0.3283 -0.9446 0.9446 0.3283 28.2836 156.0249)" fill="#006955" cx="123.8" cy="58.1" rx="4.9" ry="11.4"/>
		
			<ellipse transform="matrix(0.3283 -0.9446 0.9446 0.3283 27.8148 154.4228)" fill="#53A045" cx="122.5" cy="57.7" rx="4.9" ry="11.4"/>
	</g>
</g>
<g id="monster_1_arms_up_legs_down_copy">
</g>
<g id="bell_idle">
</g>
<g id="bell_pull_1">
</g>
<g id="bell_pull_2">
</g>
</svg>
