<?xml version="1.0" encoding="utf-8"?>
<!-- Generator: Adobe Illustrator 20.0.0, SVG Export Plug-In . SVG Version: 6.00 Build 0)  -->
<!DOCTYPE svg PUBLIC "-//W3C//DTD SVG 1.1//EN" "http://www.w3.org/Graphics/SVG/1.1/DTD/svg11.dtd">
<svg version="1.1" xmlns="http://www.w3.org/2000/svg" xmlns:xlink="http://www.w3.org/1999/xlink" x="0px" y="0px"
	 viewBox="0 0 147.4 229.8" enable-background="new 0 0 147.4 229.8" xml:space="preserve" width="147.4" height="229.8" preserveAspectRatio="none">
<g id="rope_placement">
</g>
<g id="Rope">
</g>
<g id="monster_1_arms_up_legs_down">
</g>
<g id="monster_1_arms_up_legs_up">
	<path fill="#006838" d="M95.5,5c1.2,0.6,1.6,5.2-0.6,10.8c-2.2,5.6-8.4,10.3-8.4,10.3l-7.2-8.9c0,0,5.5,1.4,11.4-5.2
		C93.6,8.9,94.4,4.5,95.5,5z"/>
	<path fill="#006838" d="M60.5,14c-1.1,0.9-0.9,5.6,2,10.5c2.9,4.9,9.6,8,9.6,8L78,21.9c0,0-5.3,2.8-11.9-2.1
		C63,17.4,61.6,13.1,60.5,14z"/>
	<path fill="#39B54A" d="M72,149.1c0.1,1,0.2,1.8,0.4,2.7c0.1,0.8,0.3,1.7,0.4,2.5c0.3,1.7,0.7,3.3,1.1,5c0.9,3.3,1.9,6.7,3.5,10.1
		c0.8,1.7,1.8,3.4,3,5.1c1.2,1.7,2.8,3.4,5,4.8c0.3,0.2,0.5,0.3,0.8,0.5l0.4,0.2l0.1,0.1c0.1,0.1,0.1,0,0.1,0.1l0.1,0.1l0.6,0.3
		l0.7,0.3c0.9,0.3,1.8,0.6,2.7,0.9c1.8,0.5,3.5,0.9,5.2,1.1c3.3,0.5,6.1,0.7,8.3,1.5c1.1,0.4,2.2,0.9,3.1,1.6c0.5,0.3,1,0.7,1.4,1.2
		c0.5,0.4,0.9,0.9,1.3,1.4c1.5,1.8,2.3,4.2,2.5,6.9c0.1,1.3,0,2.7-0.1,4.1c-0.1,0.7-0.2,1.4-0.4,2c-0.2,0.7-0.4,1.4-0.5,1.9
		l-0.1,0.2c-0.4,1.3,0.2,2.6,1.5,3c1.2,0.4,2.4-0.1,2.9-1.2c0.4-0.9,0.7-1.6,1-2.5c0.3-0.8,0.5-1.6,0.8-2.5c0.4-1.7,0.7-3.4,0.8-5.2
		c0.2-3.5-0.6-7.4-2.7-10.7c-0.5-0.8-1-1.5-1.6-2.3c-0.6-0.7-1.2-1.4-1.8-2.1c-1.3-1.4-2.9-2.6-4.6-3.5c-3.4-1.9-6.8-2.7-9.5-3.6
		c-1.4-0.5-2.6-0.9-3.7-1.5c-0.6-0.3-1.1-0.6-1.6-0.9l-0.8-0.5l-0.1-0.1c0,0-0.1-0.1,0,0l0,0l-0.1-0.1l-0.1-0.1
		c-0.8-0.8-1.8-2.8-2.5-5.2c-0.7-2.4-1.1-5.1-1.4-7.8c-0.1-1.4-0.2-2.8-0.2-4.2c0-0.7,0-1.4,0-2.1c0-0.7,0-1.4,0.1-1.9
		c0.3-4.4-3-8.3-7.4-8.6c-4.4-0.3-8.3,3-8.6,7.4c0,0.5,0,0.9,0,1.4L72,149.1z"/>
	<path fill="#009444" d="M77.6,144.5c-0.4,1-0.6,1.7-0.9,2.6c-0.3,0.8-0.5,1.6-0.8,2.5c-0.5,1.6-0.9,3.3-1.3,5
		c-0.8,3.4-1.3,6.8-1.5,10.6c-0.1,1.9,0,3.8,0.3,5.9c0.3,2.1,1,4.3,2.3,6.5c0.2,0.3,0.3,0.5,0.5,0.8l0.3,0.4l0.1,0.1
		c0.1,0.1,0,0.1,0.1,0.1l0.1,0.1l0.4,0.5l0.5,0.6c0.6,0.7,1.3,1.4,2,2c1.4,1.3,2.8,2.4,4.1,3.3c2.7,1.9,5.1,3.4,6.7,5.1
		c0.8,0.8,1.5,1.8,2.1,2.8c0.3,0.5,0.5,1.1,0.8,1.7c0.2,0.6,0.4,1.2,0.5,1.8c0.5,2.3,0.2,4.8-0.9,7.3c-0.5,1.2-1.2,2.4-2,3.5
		c-0.4,0.6-0.8,1.1-1.3,1.7c-0.4,0.5-1,1.1-1.4,1.5l-0.1,0.1c-1,0.9-1,2.4-0.1,3.4c0.8,0.9,2.2,1,3.2,0.3c0.8-0.6,1.4-1.1,2-1.7
		c0.6-0.6,1.2-1.2,1.8-1.8c1.1-1.3,2.2-2.7,3.1-4.3c1.8-3.1,2.8-6.9,2.5-10.8c-0.1-1-0.2-1.8-0.4-2.7c-0.2-0.9-0.4-1.8-0.7-2.7
		c-0.6-1.8-1.5-3.6-2.5-5.2c-2.2-3.2-4.9-5.5-6.9-7.6c-1-1-1.9-2-2.6-3c-0.4-0.5-0.7-1-1-1.5l-0.5-0.8l-0.1-0.1c0,0-0.1-0.1,0,0l0,0
		l0-0.1L86,172c-0.3-1-0.4-3.3,0.1-5.7c0.5-2.4,1.3-5,2.3-7.6c0.5-1.3,1.1-2.6,1.7-3.8c0.3-0.6,0.6-1.3,0.9-1.9
		c0.3-0.6,0.7-1.3,0.9-1.7c2.3-3.8,1.1-8.7-2.6-11.1c-3.8-2.3-8.7-1.1-11.1,2.6c-0.2,0.4-0.4,0.8-0.6,1.2L77.6,144.5z"/>
	<path fill="#009444" d="M85.9,141.7c0,1,0.1,1.8,0.1,2.6c0.1,0.8,0.1,1.7,0.2,2.5c0.2,1.6,0.4,3.3,0.6,4.9c0.5,3.3,1.2,6.6,2.4,10
		c0.6,1.7,1.3,3.4,2.3,5.2c1,1.7,2.2,3.5,3.9,5.1c0.4,0.4,0.9,0.8,1.4,1.2c0.3,0.2,0.5,0.4,0.8,0.5l0.4,0.3l0.2,0.1
		c0.8,0.5,1.6,0.9,2.5,1.2c1.6,0.7,3.3,1.3,4.9,1.8c6.4,1.8,12.1,2.3,16.4,4.7c2.1,1.1,4.2,2.9,5.7,4.8c0.7,1,1.3,2,1.6,3.1
		c0.2,0.5,0.3,1.1,0.3,1.6c0,0.3,0,0.5,0,0.8c0,0.1,0,0.2,0,0.4l0,0.2c0,0,0,0.1,0,0c-0.5,1.2,0.1,2.6,1.3,3.1
		c1.2,0.5,2.6-0.1,3.1-1.3c0.1-0.3,0.1-0.3,0.2-0.5l0.1-0.4c0.1-0.3,0.1-0.5,0.2-0.7c0.1-0.5,0.2-1,0.2-1.5c0.1-1,0-1.9-0.1-2.8
		c-0.3-1.9-0.9-3.6-1.7-5.2c-0.8-1.6-1.9-3-3-4.3c-1.1-1.3-2.4-2.5-3.8-3.6c-2.8-2.1-5.9-3.6-8.9-4.8c-2.9-1.2-5.7-2.2-8.1-3.3
		c-1.2-0.6-2.3-1.2-3.3-1.8c-0.5-0.3-1-0.7-1.4-1l-0.2-0.2c0,0,0,0,0-0.1c0,0-0.1-0.1-0.1-0.1c-0.1-0.1-0.2-0.2-0.3-0.3
		c-0.7-1.1-1.5-3.2-1.9-5.6c-0.4-2.4-0.6-5-0.6-7.7c0-1.3,0.1-2.7,0.1-4c0-0.7,0.1-1.3,0.2-2c0.1-0.6,0.1-1.4,0.2-1.9
		c0.7-4.4-2.2-8.5-6.6-9.3c-4.4-0.7-8.5,2.2-9.3,6.6c-0.1,0.5-0.1,0.9-0.1,1.4L85.9,141.7z"/>
	<path fill="#F15A29" d="M93,137.1c4.4,0.7,7.3,4.9,6.6,9.3c-0.1,0.5-0.2,1.2-0.2,1.9c-0.1,0.7-0.1,1.3-0.2,2
		c-0.1,1.3-0.1,2.7-0.1,4c0,2.7,0.2,5.3,0.6,7.7c0.4,2.4,1.2,4.5,1.9,5.6c0.1,0.1,0.2,0.2,0.3,0.3c0,0.1,0.1,0.1,0.1,0.1
		c0,0,0.1,0.1,0,0.1l0.2,0.2c0.4,0.3,0.9,0.7,1.4,1c1,0.7,2.1,1.3,3.3,1.8c2.4,1.2,5.2,2.1,8.1,3.3c2.9,1.2,6,2.6,8.9,4.8
		c1.4,1,2.7,2.3,3.8,3.6c1.1,1.3,2.1,2.7,3,4.3c0.8,1.6,1.5,3.3,1.7,5.2c0.1,0.9,0.2,1.9,0.1,2.8c0,0.2,0,0.5-0.1,0.7
		c-0.5,0.1-1,0.1-1.6-0.1c-1.2-0.5-1.8-1.9-1.3-3.1c0,0.1,0,0,0,0l0-0.2c0-0.1,0-0.2,0-0.4c0-0.3,0-0.5,0-0.8c0-0.5-0.2-1.1-0.3-1.6
		c-0.3-1.1-0.9-2.1-1.6-3.1c-1.5-1.9-3.6-3.7-5.7-4.8c-4.4-2.4-10-2.9-16.4-4.7c-1.6-0.5-3.2-1-4.9-1.8c-0.8-0.4-1.6-0.8-2.5-1.2
		l-0.2-0.1l-0.4-0.3c-0.3-0.2-0.5-0.3-0.8-0.5c-0.5-0.4-1-0.8-1.4-1.2c-1.7-1.6-2.9-3.4-3.9-5.1c-1-1.7-1.7-3.5-2.3-5.2
		c-1.2-3.4-1.9-6.7-2.4-10c-0.3-1.6-0.5-3.3-0.6-4.9c-0.1-0.8-0.1-1.6-0.2-2.5c0-0.9-0.1-1.6-0.1-2.6l0-0.4c0-0.5,0-0.9,0.1-1.4
		c0-0.3,0.1-0.5,0.2-0.8C87.9,137.5,90.4,136.6,93,137.1z"/>
	<path fill="#FBB040" d="M99.4,173.4c-0.3,1.1,0.8,2.4,2.5,2.9c1.7,0.5,3.3,0,3.6-1.1c0.3-1.1-0.8-2.4-2.5-2.9
		C101.3,171.8,99.7,172.3,99.4,173.4z M100.9,173.9c0.2-0.6,1-0.8,1.9-0.5c0.9,0.3,1.4,0.9,1.3,1.5c-0.2,0.6-1,0.8-1.9,0.5
		C101.3,175.1,100.7,174.4,100.9,173.9z"/>
	<path fill="#FBB040" d="M107.4,176.1c-0.2,1.1,1,2.3,2.8,2.6c1.7,0.3,3.3-0.3,3.5-1.5c0.2-1.1-1-2.3-2.8-2.6
		C109.2,174.3,107.6,175,107.4,176.1z M108.9,176.4c0.1-0.6,0.9-0.9,1.8-0.7c0.9,0.2,1.5,0.8,1.4,1.3c-0.1,0.6-0.9,0.9-1.8,0.7
		C109.4,177.6,108.8,177,108.9,176.4z"/>
	<path fill="#FBB040" d="M115.9,178c-0.4,1,0.5,2.3,2,2.9c1.5,0.7,3.1,0.4,3.5-0.5c0.4-1-0.5-2.3-2-2.9
		C117.9,176.8,116.3,177.1,115.9,178z M117.2,178.6c0.2-0.5,1-0.6,1.8-0.3c0.8,0.3,1.2,1,1,1.5c-0.2,0.5-1,0.6-1.8,0.3
		C117.5,179.8,117,179.1,117.2,178.6z"/>
	<path fill="#FBB040" d="M123.7,181.9c-0.5,0.6-0.1,1.7,0.9,2.5s2.2,0.9,2.7,0.2c0.5-0.6,0.1-1.7-0.9-2.5
		C125.3,181.4,124.2,181.3,123.7,181.9z M124.6,182.6c0.2-0.3,0.9-0.3,1.4,0.1c0.5,0.4,0.7,1,0.5,1.3c-0.2,0.3-0.9,0.3-1.4-0.1
		C124.5,183.5,124.3,182.9,124.6,182.6z"/>
	<path fill="#FBB040" d="M128.4,186.1c-0.5,0.2-0.6,1.1-0.3,1.9c0.4,0.8,1.1,1.3,1.6,1.1c0.5-0.2,0.6-1.1,0.3-1.9
		C129.6,186.4,128.9,185.9,128.4,186.1z M128.7,186.9c0.3-0.1,0.6,0.1,0.8,0.6c0.2,0.4,0.1,0.9-0.1,1c-0.3,0.1-0.6-0.1-0.8-0.6
		C128.4,187.4,128.4,187,128.7,186.9z"/>
	<path fill="#39B54A" d="M77.3,152.1c-0.1,1-0.2,1.8-0.4,2.7c-0.1,0.8-0.3,1.7-0.4,2.5c-0.3,1.7-0.7,3.3-1.1,5
		c-0.9,3.3-1.9,6.7-3.5,10.1c-0.8,1.7-1.8,3.4-3,5.1c-1.2,1.7-2.8,3.4-5,4.8c-0.3,0.2-0.5,0.3-0.8,0.5l-0.4,0.2l-0.1,0.1
		c-0.1,0.1-0.1,0-0.1,0.1l-0.1,0.1l-0.6,0.3l-0.7,0.3c-0.9,0.3-1.8,0.6-2.7,0.9c-1.8,0.5-3.5,0.9-5.2,1.1c-3.3,0.5-6.1,0.7-8.3,1.5
		c-1.1,0.4-2.2,0.9-3.1,1.6c-0.5,0.3-1,0.7-1.4,1.2c-0.5,0.4-0.9,0.9-1.3,1.4c-1.5,1.8-2.3,4.2-2.5,6.9c-0.1,1.3,0,2.7,0.1,4.1
		c0.1,0.7,0.2,1.4,0.4,2c0.2,0.7,0.4,1.4,0.5,1.9l0.1,0.2c0.4,1.3-0.2,2.6-1.5,3c-1.2,0.4-2.4-0.1-2.9-1.2c-0.4-0.9-0.7-1.6-1-2.5
		c-0.3-0.8-0.5-1.6-0.8-2.5c-0.4-1.7-0.7-3.4-0.8-5.2c-0.2-3.5,0.6-7.4,2.7-10.7c0.5-0.8,1-1.5,1.6-2.3c0.6-0.7,1.2-1.4,1.8-2.1
		c1.3-1.4,2.9-2.6,4.6-3.5c3.4-1.9,6.8-2.7,9.5-3.6c1.4-0.5,2.6-0.9,3.7-1.5c0.6-0.3,1.1-0.6,1.6-0.9l0.8-0.5L57,173
		c0,0,0.1-0.1,0,0l0,0l0.1-0.1l0.1-0.1c0.8-0.8,1.8-2.8,2.5-5.2c0.7-2.4,1.1-5.1,1.4-7.8c0.1-1.4,0.2-2.8,0.2-4.2c0-0.7,0-1.4,0-2.1
		c0-0.7,0-1.4-0.1-1.9c-0.3-4.4,3-8.3,7.4-8.6c4.4-0.3,8.3,3,8.6,7.4c0,0.5,0,0.9,0,1.4L77.3,152.1z"/>
	<path fill="#009444" d="M70.5,147.5c0.4,1,0.6,1.7,0.9,2.6c0.3,0.8,0.5,1.6,0.8,2.5c0.5,1.6,0.9,3.3,1.3,5
		c0.8,3.4,1.3,6.8,1.5,10.6c0.1,1.9,0,3.8-0.3,5.9c-0.3,2.1-1,4.3-2.3,6.5c-0.2,0.3-0.3,0.5-0.5,0.8l-0.3,0.4l-0.1,0.1
		c-0.1,0.1,0,0.1-0.1,0.1l-0.1,0.1l-0.4,0.5l-0.5,0.6c-0.6,0.7-1.3,1.4-2,2c-1.4,1.3-2.8,2.4-4.1,3.3c-2.7,1.9-5.1,3.4-6.7,5.1
		c-0.8,0.8-1.5,1.8-2.1,2.8c-0.3,0.5-0.5,1.1-0.8,1.7c-0.2,0.6-0.4,1.2-0.5,1.8c-0.5,2.3-0.2,4.8,0.9,7.3c0.5,1.2,1.2,2.4,2,3.5
		c0.4,0.6,0.8,1.1,1.3,1.7c0.4,0.5,1,1.1,1.4,1.5l0.1,0.1c1,0.9,1,2.4,0.1,3.4c-0.8,0.9-2.2,1-3.2,0.3c-0.8-0.6-1.4-1.1-2-1.7
		c-0.6-0.6-1.2-1.2-1.8-1.8c-1.1-1.3-2.2-2.7-3.1-4.3c-1.8-3.1-2.8-6.9-2.5-10.8c0.1-1,0.2-1.8,0.4-2.7c0.2-0.9,0.4-1.8,0.7-2.7
		c0.6-1.8,1.5-3.6,2.5-5.2c2.2-3.2,4.9-5.5,6.9-7.6c1-1,1.9-2,2.6-3c0.4-0.5,0.7-1,1-1.5l0.5-0.8l0.1-0.1c0,0,0.1-0.1,0,0l0,0l0-0.1
		L62,175c0.3-1,0.4-3.3-0.1-5.7c-0.5-2.4-1.3-5-2.3-7.6c-0.5-1.3-1.1-2.6-1.7-3.8c-0.3-0.6-0.6-1.3-0.9-1.9
		c-0.3-0.6-0.7-1.3-0.9-1.7c-2.3-3.8-1.1-8.7,2.6-11.1c3.8-2.3,8.7-1.1,11.1,2.6c0.2,0.4,0.4,0.8,0.6,1.2L70.5,147.5z"/>
	<path fill="#009444" d="M63.4,144.7c0,1-0.1,1.8-0.1,2.6c-0.1,0.8-0.1,1.7-0.2,2.5c-0.2,1.6-0.4,3.3-0.6,4.9
		c-0.5,3.3-1.2,6.6-2.4,10c-0.6,1.7-1.3,3.4-2.3,5.2c-1,1.7-2.2,3.5-3.9,5.1c-0.4,0.4-0.9,0.8-1.4,1.2c-0.3,0.2-0.5,0.4-0.8,0.5
		l-0.4,0.3l-0.2,0.1c-0.8,0.5-1.6,0.9-2.5,1.2c-1.6,0.7-3.3,1.3-4.9,1.8c-6.4,1.8-12.1,2.3-16.4,4.7c-2.1,1.1-4.2,2.9-5.7,4.8
		c-0.7,1-1.3,2-1.6,3.1c-0.2,0.5-0.3,1.1-0.3,1.6c0,0.3,0,0.5,0,0.8c0,0.1,0,0.2,0,0.4l0,0.2c0,0,0,0.1,0,0c0.5,1.2-0.1,2.6-1.3,3.1
		c-1.2,0.5-2.6-0.1-3.1-1.3c-0.1-0.3-0.1-0.3-0.2-0.5l-0.1-0.4c-0.1-0.3-0.1-0.5-0.2-0.7c-0.1-0.5-0.2-1-0.2-1.5
		c-0.1-1,0-1.9,0.1-2.8c0.3-1.9,0.9-3.6,1.7-5.2c0.8-1.6,1.9-3,3-4.3c1.1-1.3,2.4-2.5,3.8-3.6c2.8-2.1,5.9-3.6,8.9-4.8
		c2.9-1.2,5.7-2.2,8.1-3.3c1.2-0.6,2.3-1.2,3.3-1.8c0.5-0.3,1-0.7,1.4-1l0.2-0.2c0,0,0,0,0-0.1c0,0,0.1-0.1,0.1-0.1
		c0.1-0.1,0.2-0.2,0.3-0.3c0.7-1.1,1.5-3.2,1.9-5.6c0.4-2.4,0.6-5,0.6-7.7c0-1.3-0.1-2.7-0.1-4c0-0.7-0.1-1.3-0.2-2
		c-0.1-0.6-0.1-1.4-0.2-1.9c-0.7-4.4,2.2-8.5,6.6-9.3c4.4-0.7,8.5,2.2,9.3,6.6c0.1,0.5,0.1,0.9,0.1,1.4L63.4,144.7z"/>
	<path fill="#F15A29" d="M56.3,140.1c-4.4,0.7-7.3,4.9-6.6,9.3c0.1,0.5,0.2,1.2,0.2,1.9c0.1,0.7,0.1,1.3,0.2,2
		c0.1,1.3,0.1,2.7,0.1,4c0,2.7-0.2,5.3-0.6,7.7c-0.4,2.4-1.2,4.5-1.9,5.6c-0.1,0.1-0.2,0.2-0.3,0.3c0,0.1-0.1,0.1-0.1,0.1
		c0,0-0.1,0.1,0,0.1l-0.2,0.2c-0.4,0.3-0.9,0.7-1.4,1c-1,0.7-2.1,1.3-3.3,1.8c-2.4,1.2-5.2,2.1-8.1,3.3c-2.9,1.2-6,2.6-8.9,4.8
		c-1.4,1-2.7,2.3-3.8,3.6c-1.1,1.3-2.1,2.7-3,4.3c-0.8,1.6-1.5,3.3-1.7,5.2c-0.1,0.9-0.2,1.9-0.1,2.8c0,0.2,0,0.5,0.1,0.7
		c0.5,0.1,1,0.1,1.6-0.1c1.2-0.5,1.8-1.9,1.3-3.1c0,0.1,0,0,0,0l0-0.2c0-0.1,0-0.2,0-0.4c0-0.3,0-0.5,0-0.8c0-0.5,0.2-1.1,0.3-1.6
		c0.3-1.1,0.9-2.1,1.6-3.1c1.5-1.9,3.6-3.7,5.7-4.8c4.4-2.4,10-2.9,16.4-4.7c1.6-0.5,3.2-1,4.9-1.8c0.8-0.4,1.6-0.8,2.5-1.2l0.2-0.1
		l0.4-0.3c0.3-0.2,0.5-0.3,0.8-0.5c0.5-0.4,1-0.8,1.4-1.2c1.7-1.6,2.9-3.4,3.9-5.1c1-1.7,1.7-3.5,2.3-5.2c1.2-3.4,1.9-6.7,2.4-10
		c0.3-1.6,0.5-3.3,0.6-4.9c0.1-0.8,0.1-1.6,0.2-2.5c0-0.9,0.1-1.6,0.1-2.6l0-0.4c0-0.5,0-0.9-0.1-1.4c0-0.3-0.1-0.5-0.2-0.8
		C61.4,140.5,58.9,139.6,56.3,140.1z"/>
	<path fill="#39B54A" d="M123.5,119.4c0,0,23-14.7,16.9-50.7c-6.2-36.3-67.9-54-67.9-54s-3.3,4.8,1.9,16.4
		c6.6,14.6,47.8,13.7,50.8,70c1.4,25.7-3.8,11.4-3.8,11.4L123.5,119.4z"/>
	<path fill="#BE1E2D" d="M49.6,147.5l-11.3,9.9c0,0,3.3,5.4,11,9.4s13.1,4.5,13.1,4.5l5.8-17.8L49.6,147.5z"/>
	<path fill="#BE1E2D" d="M101,147.9l11.3,9.9c0,0-2.7,4.7-7.7,7.7c-5,3-16.3,6.1-16.3,6.1L82.4,154L101,147.9z"/>
	<path fill="#BE1E2D" d="M92.5,159.9l6.7,13.4c0,0-4.3,3.4-10,4.3c-5.8,0.9-17.5-0.4-17.5-0.4l1.3-18.7L92.5,159.9z"/>
	<path fill="#BE1E2D" d="M43,138.9c0,0-1.7,22,31.4,23.3c38.9,1.6,31.9-26,31.9-26L43,138.9z"/>
	<path fill="#39B54A" d="M34.5,119.4c0,0-30.2-11-25-51.6c6.2-48.2,70.1-44.7,70.1-44.7l15.8,20.4c0,0-65.4-8.6-70.3,37.2
		c-1.8,16.4,11.4,29.8,11.4,29.8L34.5,119.4z"/>
	<path fill="#BE1E2D" d="M49.6,147.5l-11.3,9.9c0,0,3.3,5.4,11,9.4s13.1,4.5,13.1,4.5l5.8-17.8L49.6,147.5z"/>
	<path fill="#BE1E2D" d="M101,147.9l11.3,9.9c0,0-2.7,4.7-7.7,7.7c-5,3-16.3,6.1-16.3,6.1L82.4,154L101,147.9z"/>
	<path fill="#BE1E2D" d="M92.5,159.9l6.7,13.4c0,0-4.3,3.4-10,4.3c-5.8,0.9-17.5-0.4-17.5-0.4l1.3-18.7L92.5,159.9z"/>
	<path fill="#BE1E2D" d="M43,138.9c0,0-1.7,22,31.4,23.3c38.9,1.6,31.9-26,31.9-26L43,138.9z"/>
	<path fill="#009444" d="M42.4,110c0,0-6.9-49,32.6-49c41.4,0,30.3,52.3,30.3,52.3l-30.6,3.6L42.4,110z"/>
	<path fill="#F9ED32" d="M40.4,103.9l4.3,19.4l-4.3,27.2c0,0,7.1,7.5,37.7,8c24.9,0.4,31.9-5,31.9-5l-3.7-30.5l2.9-16.1
		c0,0-11,6.8-34.5,5.8C51.1,111.5,40.4,103.9,40.4,103.9z"/>
	<path fill="#F9ED32" d="M131.9,107c-2.9-5.1-7.8-7.5-7.8-7.5l-13,6.6c0,0-0.7,0.6-2.3,1.6c-3.1,3.6-9,20.3-7.5,24
		c1.3,3.1,13.3-0.3,20.3-3.8c7-3.5,10.8-8.3,10.8-8.3S134.8,112,131.9,107z"/>
	<path fill="#BE1E2D" d="M131.9,107c-2.9-5.1-7.8-7.5-7.8-7.5l-4.1,2.1c1.1,0.6,5.8,3.4,8.8,8.5c2.2,3.9,1.7,9,1.2,12
		c1.6-1.4,2.4-2.5,2.4-2.5S134.8,112,131.9,107z"/>
	<path fill="#F9ED32" d="M45.5,128.2c2.3,0.3,2-4.6,3.2-5.6c1.9-1.6-2.7-4.3-2.5-6.7c0.3-2.9,0.3-5.8,0.4-8.7c-4-1.3-6-2.5-6-2.5
		l-10-3.4c0,0-4.6,5.5-4.7,10.5c-0.1,5,2.1,9.9,2.1,9.9l17.1,9.5L45.5,128.2z"/>
	<path fill="#BE1E2D" d="M29.1,114.4c0.1-4.8,3.7-10,5.1-11.8l-3.6-1.3c0,0-4.6,5.5-4.7,10.5c-0.1,5,2.1,9.9,2.1,9.9l2.6,1.4
		C29.8,120.9,29,117.7,29.1,114.4z"/>
	<path fill="#BE1E2D" d="M110.6,106.3l-1.4,0.4c0,0-11,6.8-34.5,5.8c-22.3-1-32.5-8.7-33.6-9.4c3.4,4.5,11.7,13.3,32.5,14.9
		C95.3,119.7,106.3,111.1,110.6,106.3z"/>
	<path fill="#BE1E2D" d="M55.7,159.7L49,173.1c0,0,4.3,3.4,10,4.3c5.8,0.9,17.5-0.4,17.5-0.4l-1.3-18.7L55.7,159.7z"/>
	<path fill="#FBB040" d="M46.3,175.3c-1.7,0.5-2.8,1.8-2.5,2.9c0.3,1.1,2,1.6,3.6,1.1c1.7-0.5,2.8-1.8,2.5-2.9
		C49.6,175.3,48,174.8,46.3,175.3z M47.2,178.3c-0.9,0.3-1.7,0-1.9-0.5c-0.2-0.6,0.4-1.2,1.3-1.5c0.9-0.3,1.7,0,1.9,0.5
		C48.6,177.4,48,178.1,47.2,178.3z"/>
	<path fill="#FBB040" d="M38.4,177.7c-1.7,0.3-3,1.5-2.8,2.6c0.2,1.1,1.8,1.8,3.5,1.5c1.7-0.3,3-1.5,2.8-2.6
		C41.7,178,40.1,177.3,38.4,177.7z M39,180.7c-0.9,0.2-1.7-0.2-1.8-0.7c-0.1-0.6,0.5-1.2,1.4-1.3c0.9-0.2,1.7,0.2,1.8,0.7
		C40.5,180,39.9,180.6,39,180.7z"/>
	<path fill="#FBB040" d="M29.9,180.5c-1.5,0.7-2.4,2-2,2.9c0.4,1,2,1.2,3.5,0.5c1.5-0.7,2.4-2,2-2.9C33,180.1,31.4,179.8,29.9,180.5
		z M31.1,183.1c-0.8,0.3-1.6,0.2-1.8-0.3c-0.2-0.5,0.2-1.2,1-1.5c0.8-0.3,1.6-0.2,1.8,0.3C32.3,182.1,31.8,182.8,31.1,183.1z"/>
	<path fill="#FBB040" d="M23,185.2c-1,0.8-1.4,1.9-0.9,2.5c0.5,0.6,1.7,0.5,2.7-0.2c1-0.8,1.4-1.9,0.9-2.5
		C25.2,184.3,24,184.4,23,185.2z M24.3,186.9c-0.5,0.4-1.1,0.4-1.4,0.1c-0.2-0.3,0-0.9,0.5-1.3c0.5-0.4,1.1-0.4,1.4-0.1
		C25,185.9,24.8,186.5,24.3,186.9z"/>
	<path fill="#FBB040" d="M19.3,190.2c-0.4,0.8-0.3,1.7,0.3,1.9c0.5,0.2,1.3-0.2,1.6-1.1c0.4-0.8,0.3-1.7-0.3-1.9
		C20.4,188.9,19.7,189.4,19.3,190.2z M20.7,190.9c-0.2,0.4-0.6,0.7-0.8,0.6c-0.3-0.1-0.3-0.6-0.1-1c0.2-0.4,0.6-0.7,0.8-0.6
		C20.9,190,20.9,190.4,20.7,190.9z"/>
	<path fill="#2B3990" d="M75.8,106.4c14.9,0,25.3-5.8,30.8-9.9C106.2,81.2,100.7,61,75,61c-24,0-30.9,18.1-32.6,32.4
		C48.7,98.7,60.4,106.4,75.8,106.4z"/>
	<path fill="#39B54A" d="M89,22.4c0,0,2.9-12.7-6.9-15.8C64.3,1.1,66.9,25.2,66.9,25.2L89,22.4z"/>
	<path fill="#006838" d="M67.3,23.8c0,0,0.5,1.9,2.9,6.5c2.4,4.6,18.5,12.3,18.5,12.3s-14.9-3.5-18.7-9.5
		C66.3,27.1,67.3,23.8,67.3,23.8z"/>
	<g>
		<path fill="#27AAE1" d="M78.9,64.7c0.3,0,0.5,0,0.8,0.1c0.2,0,0.5,0.1,0.7,0.2c0.4,0.1,0.9,0.3,1.3,0.4c0.8,0.3,1.6,0.7,2.4,1.1
			c1.5,0.8,3,1.7,4.4,2.7l0,0l0,0c0.7,0.7,1.4,1.3,2.1,2l1,1.1c0.3,0.3,0.6,0.7,0.9,1.1c0.3,0.4,0.6,0.7,0.9,1.1l0.8,1.2
			c0.3,0.4,0.5,0.8,0.8,1.2c0.3,0.4,0.5,0.8,0.7,1.2c0.5,0.8,0.9,1.7,1.3,2.6c0.4,0.9,0.7,1.8,1,2.7c0.6,1.8,1.1,3.7,1.3,5.6
			c-0.3-1.9-0.8-3.7-1.4-5.5c-0.3-0.9-0.7-1.8-1.1-2.6c-0.4-0.9-0.8-1.7-1.3-2.5c-0.2-0.4-0.5-0.8-0.7-1.2c-0.3-0.4-0.5-0.8-0.8-1.2
			l-0.9-1.1c-0.3-0.4-0.6-0.7-0.9-1.1c-0.3-0.4-0.6-0.7-0.9-1.1l-1-1c-0.7-0.7-1.4-1.3-2.1-1.9l0,0c-1.4-0.9-2.9-1.8-4.4-2.5
			c-0.8-0.4-1.5-0.7-2.3-1c-0.4-0.1-0.8-0.3-1.2-0.4c-0.2,0-0.4-0.1-0.6-0.1c-0.2,0-0.4,0-0.5,0L78.9,64.7z"/>
	</g>
	<g>
		<path fill="#27AAE1" d="M76.7,66.8c0.3,0.1,0.5,0.1,0.7,0.2c0.2,0.1,0.4,0.2,0.6,0.3c0.4,0.2,0.8,0.4,1.2,0.7
			c0.7,0.5,1.4,1,2.1,1.5c1.4,1.1,2.6,2.3,3.8,3.5l0,0l0,0c0.6,0.8,1.2,1.5,1.7,2.3l0.8,1.2c0.3,0.4,0.5,0.8,0.7,1.3
			c0.2,0.4,0.5,0.8,0.7,1.3l0.6,1.3c0.2,0.4,0.3,0.9,0.5,1.3c0.2,0.4,0.3,0.9,0.5,1.4c0.3,0.9,0.5,1.8,0.8,2.8
			c0.2,0.9,0.4,1.9,0.5,2.8c0.2,1.9,0.3,3.8,0.2,5.7c0.1-1.9,0-3.8-0.3-5.7c-0.1-0.9-0.4-1.9-0.6-2.8c-0.2-0.9-0.5-1.8-0.8-2.7
			c-0.1-0.5-0.3-0.9-0.5-1.3c-0.2-0.4-0.3-0.9-0.6-1.3l-0.6-1.3c-0.2-0.4-0.5-0.8-0.7-1.2c-0.2-0.4-0.4-0.8-0.7-1.2l-0.8-1.2
			c-0.5-0.8-1.2-1.5-1.7-2.2l0,0c-1.2-1.2-2.5-2.3-3.8-3.3c-0.7-0.5-1.4-1-2.1-1.4c-0.4-0.2-0.7-0.4-1.1-0.6
			c-0.2-0.1-0.4-0.2-0.6-0.2c-0.2-0.1-0.4-0.1-0.5-0.1L76.7,66.8z"/>
	</g>
	<g>
		<path fill="#27AAE1" d="M67.9,70.2c-0.1,0-0.3,0.1-0.5,0.1c-0.2,0.1-0.4,0.1-0.6,0.2c-0.4,0.2-0.7,0.4-1.1,0.6
			c-0.7,0.4-1.4,0.9-2.1,1.4c-1.3,1-2.6,2.2-3.8,3.3l0,0c-0.6,0.8-1.2,1.5-1.7,2.2l-0.8,1.2c-0.3,0.4-0.5,0.8-0.7,1.2
			c-0.2,0.4-0.5,0.8-0.7,1.2L55.3,83c-0.2,0.4-0.4,0.9-0.6,1.3c-0.2,0.4-0.4,0.9-0.5,1.3c-0.3,0.9-0.6,1.8-0.8,2.7
			c-0.2,0.9-0.4,1.9-0.6,2.8c-0.3,1.9-0.5,3.8-0.3,5.7c-0.2-1.9-0.1-3.8,0.2-5.7c0.1-0.9,0.3-1.9,0.5-2.8c0.2-0.9,0.5-1.9,0.8-2.8
			c0.1-0.5,0.3-0.9,0.5-1.4c0.2-0.4,0.3-0.9,0.5-1.3l0.6-1.3c0.2-0.4,0.4-0.9,0.7-1.3c0.2-0.4,0.4-0.9,0.7-1.3l0.8-1.2
			c0.5-0.8,1.1-1.6,1.7-2.3l0,0l0,0c1.2-1.2,2.5-2.4,3.8-3.5c0.7-0.5,1.4-1.1,2.1-1.5c0.4-0.2,0.8-0.5,1.2-0.7
			c0.2-0.1,0.4-0.2,0.6-0.3c0.2-0.1,0.4-0.2,0.7-0.2L67.9,70.2z"/>
	</g>
	<circle fill="#F9ED32" cx="74.1" cy="63.1" r="7.6"/>
	<path fill="#262864" d="M76.2,60.8c0,0-5.5-4.1-13.5-0.3c-5,2.4-12.8,13.1-8,25c4,10.1,15.5,16,18.5,22.6c3,6.6-1.8,12.1-1.8,12.1
		s14.3,3.4,14-12.9c-0.1-7.6-6.5-17.1-11.5-28.9c-3.3-7.8,2.3-12.9,2.3-12.9V60.8z"/>
	<g>
		<path fill="#27AAE1" d="M72.2,99.5c-1.7-1-3.2-2.3-4.6-3.6c-1.4-1.3-2.8-2.8-4-4.3c-1.2-1.5-2.3-3.2-3.2-5
			c-0.5-0.9-0.9-1.8-1.3-2.7c-0.4-0.9-0.7-1.9-1-2.8c-0.3-0.9-0.5-2-0.7-2.9c-0.1-1.1-0.2-2.1-0.1-3.1c0.1-1,0.3-2.1,0.6-3.1
			c0.4-1,0.8-1.9,1.4-2.8c1.2-1.7,2.9-3.1,4.6-4.1c0.9-0.5,1.8-1,2.8-1.3c1-0.4,1.9-0.7,3-0.9l5.7-1.2l-5,3.1
			c-0.1,0.1-0.5,0.4-0.7,0.6c-0.2,0.2-0.5,0.5-0.7,0.8c-0.4,0.6-0.8,1.2-1.1,1.9c-0.3,0.7-0.5,1.4-0.7,2.1L67,71.1l-0.2,1.1
			c-0.1,0.8-0.2,1.5-0.2,2.3c0,0.8-0.1,1.6,0,2.3c0,0.4,0,0.8,0,1.2c0,0.4,0.1,0.8,0.1,1.2c0.1,0.7,0.3,1.5,0.5,2.2
			c0.8,3,2.3,5.8,4.3,8.3c1,1.2,2,2.4,3.2,3.5c1.2,1.1,2.4,2.1,3.7,3c-2.8-1.6-5.3-3.6-7.5-6c-2.2-2.4-3.9-5.2-5-8.4
			c-0.3-0.8-0.4-1.6-0.6-2.4c-0.1-0.4-0.1-0.8-0.2-1.2c-0.1-0.4-0.1-0.8-0.1-1.2C65,76.2,65,75.3,65,74.5c0-0.8,0-1.6,0.1-2.5
			l0.2-1.2l0.2-1.2c0.2-0.8,0.4-1.6,0.7-2.4c0.3-0.8,0.7-1.6,1.2-2.3c0.3-0.4,0.5-0.7,0.9-1c0.3-0.3,0.6-0.6,1.1-0.9l0.7,1.8
			c-0.8,0.2-1.8,0.5-2.6,0.8c-0.9,0.3-1.7,0.7-2.5,1.2c-1.6,0.9-3,2.1-4.1,3.5c-1.1,1.4-1.7,3.1-1.9,4.9c-0.1,0.9-0.1,1.8,0,2.7
			c0.1,0.5,0.1,1,0.2,1.4c0.1,0.5,0.2,0.9,0.3,1.4c0.9,3.7,2.6,7.2,4.8,10.3c1.1,1.6,2.3,3.1,3.6,4.5C69.2,96.9,70.6,98.3,72.2,99.5
			z"/>
	</g>
</g>
<g id="monster_1_arms_down_legs_down">
</g>
<g id="monster_1_arms_down_legs_up">
	<path fill="#BE1E2D" d="M66.3,142.8c5.2,0.1,8.4-0.4,8.4-0.4l-0.3,1.2c0,0.3-0.1,0.6-0.1,0.9c0,1.5,0.9,2.2,2.8,2.2
		c2,0,3-1,2.8-3.1l-0.3-4.5l-0.1,0.1c-1.4,0.9-3.3,1.3-5.7,1.3c-5.5,0-8.3-2-8.3-6.1V131c0-2.6,0.7-4.3,2.1-5.3
		c1.5-1.1,4.2-1.6,8.2-1.7h0.5c4,0,6.8,0.5,8.4,1.7c1.7,1.1,2.5,3,2.6,5.6l0.5,15.3c0.1,2.5-0.5,4.3-1.7,5.5
		c-1.2,1.2-4.5,2.5-8.2,2.5c-1.4,0-5.7,0.1-7.1-0.8C69.5,152.9,64.8,149.8,66.3,142.8z M73.6,132.2v2.2c0,0.9,0.2,1.6,0.5,1.9
		c0.4,0.6,1.3,0.8,2.5,0.8c1.3,0,2.1-0.3,2.5-0.8c0.3-0.4,0.5-1,0.5-1.9v-2.2c0-0.9-0.1-1.6-0.4-2c-0.4-0.5-1.3-0.8-2.6-0.8
		c-1.3,0-2.1,0.3-2.5,0.8C73.8,130.7,73.6,131.3,73.6,132.2z"/>
</g>
<g id="monster_1_arms_up_legs_down_copy">
</g>
<g id="bell_idle">
</g>
<g id="bell_pull_1">
</g>
<g id="bell_pull_2">
</g>
</svg>
