<?xml version="1.0" encoding="utf-8"?>
<!-- Generator: Adobe Illustrator 20.0.0, SVG Export Plug-In . SVG Version: 6.00 Build 0)  -->
<!DOCTYPE svg PUBLIC "-//W3C//DTD SVG 1.1//EN" "http://www.w3.org/Graphics/SVG/1.1/DTD/svg11.dtd">
<svg version="1.1" xmlns="http://www.w3.org/2000/svg" xmlns:xlink="http://www.w3.org/1999/xlink" x="0px" y="0px"
	 viewBox="0 0 147.4 269" enable-background="new 0 0 147.4 269" xml:space="preserve" width="147.4" height="269" preserveAspectRatio="none">
<g id="rope_placement">
</g>
<g id="Rope">
</g>
<g id="monster_1_arms_up_legs_down">
	<path fill="#39B54A" d="M70.5,167.3c0.1,1.3,0.2,2.3,0.4,3.5c0.1,1.1,0.3,2.2,0.4,3.3c0.3,2.2,0.7,4.3,1.1,6.5
		c0.9,4.3,1.9,8.7,3.5,13.1c0.8,2.2,1.8,4.4,3,6.6c1.2,2.2,2.8,4.4,5,6.2c0.3,0.2,0.5,0.4,0.8,0.6l0.4,0.3l0.1,0.1
		c0.1,0.1,0.1,0,0.1,0.1l0.1,0.1l0.6,0.4l0.7,0.4c0.9,0.4,1.8,0.8,2.7,1.2c1.8,0.7,3.5,1.1,5.2,1.4c3.3,0.6,6.1,0.9,8.3,1.9
		c1.1,0.5,2.2,1.1,3.1,2c0.5,0.4,1,1,1.4,1.5c0.5,0.6,0.9,1.2,1.3,1.8c1.5,2.4,2.3,5.5,2.5,8.9c0.1,1.7,0,3.5-0.1,5.3
		c-0.1,0.9-0.2,1.8-0.4,2.7c-0.2,0.8-0.4,1.8-0.5,2.5l-0.1,0.2c-0.4,1.6,0.2,3.4,1.5,3.9c1.2,0.5,2.4-0.2,2.9-1.6
		c0.4-1.2,0.7-2.1,1-3.2c0.3-1,0.5-2.1,0.8-3.2c0.4-2.2,0.7-4.4,0.8-6.7c0.2-4.6-0.6-9.6-2.7-13.9c-0.5-1.1-1-2-1.6-3
		c-0.6-0.9-1.2-1.9-1.8-2.7c-1.3-1.8-2.9-3.3-4.6-4.5c-3.4-2.4-6.8-3.5-9.5-4.7c-1.4-0.6-2.6-1.2-3.7-2c-0.6-0.4-1.1-0.7-1.6-1.2
		l-0.8-0.6l-0.1-0.1c0,0-0.1-0.1,0,0l0,0l-0.1-0.1l-0.1-0.2c-0.8-1-1.8-3.6-2.5-6.7c-0.7-3.1-1.1-6.6-1.4-10.1
		c-0.1-1.8-0.2-3.6-0.2-5.4c0-0.9,0-1.8,0-2.7c0-0.9,0-1.9,0.1-2.5c0.3-5.7-3-10.8-7.4-11.2c-4.4-0.4-8.3,3.8-8.6,9.6
		c0,0.6,0,1.2,0,1.8L70.5,167.3z"/>
	<path fill="#009444" d="M75.9,165.5c-0.4,1.3-0.6,2.3-0.9,3.4c-0.3,1.1-0.5,2.2-0.7,3.3c-0.5,2.2-0.9,4.4-1.3,6.6
		c-0.7,4.5-1.3,9.1-1.4,14.1c-0.1,2.5,0,5.1,0.3,7.9c0.3,2.8,0.9,5.8,2.2,8.7c0.2,0.4,0.3,0.7,0.5,1.1l0.3,0.5l0.1,0.1
		c0.1,0.1,0,0.1,0.1,0.1l0.1,0.1l0.4,0.7l0.5,0.7c0.6,0.9,1.2,1.8,1.9,2.7c1.3,1.7,2.7,3.2,4,4.5c2.6,2.6,4.9,4.5,6.5,6.8
		c0.8,1.1,1.5,2.4,2,3.8c0.3,0.7,0.5,1.5,0.7,2.3c0.2,0.8,0.4,1.7,0.5,2.4c0.5,3,0.2,6.4-0.8,9.7c-0.5,1.6-1.1,3.2-1.9,4.7
		c-0.4,0.8-0.8,1.5-1.2,2.2c-0.4,0.7-0.9,1.4-1.3,1.9l-0.1,0.2c-0.9,1.2-0.9,3.2-0.1,4.5c0.8,1.2,2.1,1.3,3.1,0.3
		c0.8-0.8,1.3-1.5,2-2.3c0.6-0.8,1.2-1.6,1.7-2.5c1.1-1.7,2.1-3.6,3-5.7c1.7-4.1,2.7-9.2,2.4-14.3c-0.1-1.3-0.2-2.4-0.3-3.7
		c-0.2-1.2-0.4-2.4-0.7-3.6c-0.6-2.4-1.4-4.8-2.4-6.9c-2.1-4.3-4.7-7.3-6.6-10.1c-1-1.4-1.8-2.7-2.6-4.1c-0.4-0.7-0.7-1.4-1-2
		l-0.4-1l-0.1-0.2c0,0-0.1-0.1,0,0l0,0l0-0.1l-0.1-0.3c-0.3-1.4-0.4-4.4,0.1-7.6c0.5-3.2,1.3-6.7,2.3-10.1c0.5-1.7,1-3.4,1.6-5.1
		c0.3-0.8,0.6-1.7,0.9-2.5c0.3-0.8,0.6-1.7,0.9-2.3c2.2-5,1.1-11.7-2.6-14.8c-3.7-3.1-8.5-1.5-10.7,3.5c-0.2,0.5-0.4,1.1-0.6,1.6
		L75.9,165.5z"/>
	<path fill="#009444" d="M84.4,161.7c0,1.3,0.1,2.3,0.1,3.4c0.1,1.1,0.1,2.1,0.2,3.2c0.2,2.1,0.4,4.2,0.6,6.4
		c0.5,4.3,1.2,8.5,2.4,12.9c0.6,2.2,1.3,4.4,2.3,6.7c1,2.2,2.2,4.5,3.9,6.7c0.4,0.5,0.9,1,1.4,1.5c0.3,0.2,0.5,0.5,0.8,0.7l0.4,0.3
		l0.2,0.2c0.8,0.6,1.6,1.1,2.5,1.6c1.6,1,3.3,1.7,4.9,2.3c6.4,2.4,12.1,3,16.4,6.1c2.1,1.5,4.2,3.7,5.7,6.2c0.7,1.3,1.3,2.6,1.6,4
		c0.2,0.7,0.3,1.4,0.3,2.1c0,0.3,0,0.7,0,1c0,0.2,0,0.3,0,0.5l0,0.2c0,0,0,0.2,0,0c-0.5,1.6,0.1,3.4,1.3,4.1
		c1.2,0.7,2.6-0.1,3.1-1.6c0.1-0.4,0.1-0.4,0.2-0.6l0.1-0.5c0.1-0.3,0.1-0.6,0.2-1c0.1-0.6,0.2-1.3,0.2-1.9c0.1-1.2,0-2.5-0.1-3.7
		c-0.3-2.4-0.9-4.7-1.7-6.7c-0.8-2.1-1.9-3.9-3-5.6c-1.1-1.7-2.4-3.3-3.8-4.7c-2.8-2.8-5.9-4.6-8.9-6.2c-2.9-1.5-5.7-2.8-8.1-4.3
		c-1.2-0.7-2.3-1.5-3.3-2.4c-0.5-0.4-1-0.9-1.4-1.3l-0.2-0.2c0,0,0-0.1,0-0.1c0-0.1-0.1-0.1-0.1-0.2c-0.1-0.1-0.2-0.3-0.3-0.5
		c-0.7-1.4-1.5-4.1-1.9-7.2c-0.4-3.1-0.6-6.5-0.6-10c0-1.7,0.1-3.5,0.1-5.2c0-0.9,0.1-1.7,0.2-2.6c0.1-0.8,0.1-1.8,0.2-2.4
		c0.7-5.7-2.2-11.1-6.6-12c-4.4-1-8.5,2.9-9.3,8.5c-0.1,0.6-0.1,1.2-0.1,1.8L84.4,161.7z"/>
	<path fill="#F15A29" d="M91.5,155.7c4.4,1,7.3,6.3,6.6,12c-0.1,0.6-0.2,1.6-0.2,2.4c-0.1,0.9-0.1,1.7-0.2,2.6
		c-0.1,1.7-0.1,3.5-0.1,5.2c0,3.5,0.2,6.9,0.6,10c0.4,3.1,1.2,5.8,1.9,7.2c0.1,0.2,0.2,0.3,0.3,0.4c0,0.1,0.1,0.1,0.1,0.2
		c0,0,0.1,0.1,0,0.1l0.2,0.2c0.4,0.4,0.9,0.9,1.4,1.3c1,0.9,2.1,1.7,3.3,2.4c2.4,1.5,5.2,2.8,8.1,4.3c2.9,1.5,6,3.4,8.9,6.2
		c1.4,1.4,2.7,3,3.8,4.7c1.1,1.7,2.1,3.5,3,5.6c0.8,2,1.5,4.3,1.7,6.7c0.1,1.2,0.2,2.4,0.1,3.7c0,0.3,0,0.6-0.1,0.9
		c-0.5,0.2-1,0.2-1.6-0.1c-1.2-0.7-1.8-2.5-1.3-4.1c0,0.1,0,0,0,0l0-0.2c0-0.1,0-0.3,0-0.5c0-0.3,0-0.7,0-1c0-0.7-0.2-1.4-0.3-2.1
		c-0.3-1.4-0.9-2.7-1.6-4c-1.5-2.5-3.6-4.8-5.7-6.2c-4.4-3.1-10-3.7-16.4-6.1c-1.6-0.6-3.2-1.4-4.9-2.3c-0.8-0.5-1.6-1-2.5-1.6
		l-0.2-0.2l-0.4-0.3c-0.3-0.2-0.5-0.5-0.8-0.7c-0.5-0.5-1-1-1.4-1.5c-1.7-2.1-2.9-4.4-3.9-6.7c-1-2.3-1.7-4.5-2.3-6.7
		c-1.2-4.4-1.9-8.7-2.4-12.9c-0.3-2.1-0.5-4.3-0.6-6.4c-0.1-1.1-0.1-2.1-0.2-3.2c0-1.1-0.1-2.1-0.1-3.4l0-0.6c0-0.6,0-1.2,0.1-1.8
		c0-0.3,0.1-0.7,0.2-1C86.4,156.2,88.9,155.1,91.5,155.7z"/>
	<path fill="#FBB040" d="M97.9,202.8c-0.3,1.4,0.8,3.1,2.5,3.8c1.7,0.7,3.3,0,3.6-1.4c0.3-1.4-0.8-3.1-2.5-3.8
		C99.8,200.7,98.2,201.4,97.9,202.8z M99.3,203.4c0.2-0.7,1-1,1.9-0.7c0.9,0.3,1.4,1.2,1.3,1.9s-1,1-1.9,0.7
		C99.7,204.9,99.2,204.1,99.3,203.4z"/>
	<path fill="#FBB040" d="M105.9,206.3c-0.2,1.5,1,3,2.8,3.4c1.7,0.4,3.3-0.4,3.5-1.9c0.2-1.5-1-3-2.8-3.4
		C107.6,204,106.1,204.8,105.9,206.3z M107.4,206.7c0.1-0.7,0.9-1.2,1.8-1c0.9,0.2,1.5,1,1.4,1.7c-0.1,0.7-0.9,1.2-1.8,1
		C107.9,208.2,107.3,207.4,107.4,206.7z"/>
	<path fill="#FBB040" d="M114.4,208.7c-0.4,1.2,0.5,2.9,2,3.8c1.5,0.9,3.1,0.6,3.5-0.7c0.4-1.2-0.5-2.9-2-3.8
		C116.4,207.2,114.8,207.5,114.4,208.7z M115.7,209.5c0.2-0.6,1-0.8,1.8-0.3c0.8,0.4,1.2,1.3,1,2c-0.2,0.6-1,0.8-1.8,0.3
		C115.9,211,115.5,210.1,115.7,209.5z"/>
	<path fill="#FBB040" d="M122.2,213.8c-0.5,0.8-0.1,2.3,0.9,3.2s2.2,1.1,2.7,0.3c0.5-0.8,0.1-2.3-0.9-3.2
		C123.8,213.2,122.6,213,122.2,213.8z M123,214.7c0.2-0.4,0.9-0.3,1.4,0.2c0.5,0.5,0.7,1.2,0.5,1.7c-0.2,0.4-0.9,0.3-1.4-0.2
		C123,215.8,122.8,215.1,123,214.7z"/>
	<path fill="#FBB040" d="M126.8,219.2c-0.5,0.3-0.6,1.4-0.3,2.5c0.4,1.1,1.1,1.7,1.6,1.4c0.5-0.3,0.6-1.4,0.3-2.5
		C128.1,219.6,127.4,218.9,126.8,219.2z M127.2,220.2c0.3-0.2,0.6,0.2,0.8,0.7c0.2,0.6,0.1,1.1-0.1,1.3c-0.3,0.2-0.6-0.2-0.8-0.7
		C126.8,220.9,126.9,220.4,127.2,220.2z"/>
	<path fill="#39B54A" d="M75.7,171.2c-0.1,1.3-0.2,2.3-0.4,3.5c-0.1,1.1-0.3,2.2-0.4,3.3c-0.3,2.2-0.7,4.3-1.1,6.5
		c-0.9,4.3-1.9,8.7-3.5,13.1c-0.8,2.2-1.8,4.4-3,6.6c-1.2,2.2-2.8,4.4-5,6.2c-0.3,0.2-0.5,0.4-0.8,0.6l-0.4,0.3l-0.1,0.1
		c-0.1,0.1-0.1,0-0.1,0.1l-0.1,0.1l-0.6,0.4l-0.7,0.4c-0.9,0.4-1.8,0.8-2.7,1.2c-1.8,0.7-3.5,1.1-5.2,1.4c-3.3,0.6-6.1,0.9-8.3,1.9
		c-1.1,0.5-2.2,1.1-3.1,2c-0.5,0.4-1,1-1.4,1.5c-0.5,0.6-0.9,1.2-1.3,1.8c-1.5,2.4-2.3,5.5-2.5,8.9c-0.1,1.7,0,3.5,0.1,5.3
		c0.1,0.9,0.2,1.8,0.4,2.7c0.2,0.8,0.4,1.8,0.5,2.5l0.1,0.2c0.4,1.6-0.2,3.4-1.5,3.9c-1.2,0.5-2.4-0.2-2.9-1.6
		c-0.4-1.2-0.7-2.1-1-3.2c-0.3-1-0.5-2.1-0.8-3.2c-0.4-2.2-0.7-4.4-0.8-6.7c-0.2-4.6,0.6-9.6,2.7-13.9c0.5-1.1,1-2,1.6-3
		c0.6-0.9,1.2-1.9,1.8-2.7c1.3-1.8,2.9-3.3,4.6-4.5c3.4-2.4,6.8-3.5,9.5-4.7c1.4-0.6,2.6-1.2,3.7-2c0.6-0.4,1.1-0.7,1.6-1.2l0.8-0.6
		l0.1-0.1c0,0,0.1-0.1,0,0l0,0l0.1-0.1l0.1-0.2c0.8-1,1.8-3.6,2.5-6.7c0.7-3.1,1.1-6.6,1.4-10.1c0.1-1.8,0.2-3.6,0.2-5.4
		c0-0.9,0-1.8,0-2.7c0-0.9,0-1.9-0.1-2.5c-0.3-5.7,3-10.8,7.4-11.2c4.4-0.4,8.3,3.8,8.6,9.6c0,0.6,0,1.2,0,1.8L75.7,171.2z"/>
	<path fill="#009444" d="M69.1,169.5c0.4,1.3,0.6,2.3,0.9,3.4c0.3,1.1,0.5,2.2,0.7,3.3c0.5,2.2,0.9,4.4,1.3,6.6
		c0.7,4.5,1.3,9.1,1.4,14.1c0.1,2.5,0,5.1-0.3,7.9c-0.3,2.8-0.9,5.8-2.2,8.7c-0.2,0.4-0.3,0.7-0.5,1.1l-0.3,0.5l-0.1,0.1
		c-0.1,0.1,0,0.1-0.1,0.1l-0.1,0.1l-0.4,0.7l-0.5,0.7c-0.6,0.9-1.3,1.8-1.9,2.7c-1.3,1.7-2.7,3.2-4,4.4c-2.6,2.6-4.9,4.5-6.5,6.8
		c-0.8,1.1-1.5,2.4-2,3.8c-0.3,0.7-0.5,1.5-0.7,2.3c-0.2,0.8-0.4,1.7-0.5,2.4c-0.5,3-0.2,6.4,0.8,9.7c0.5,1.6,1.1,3.2,1.9,4.7
		c0.4,0.8,0.8,1.5,1.2,2.2c0.4,0.7,0.9,1.4,1.3,1.9l0.1,0.2c0.9,1.2,0.9,3.2,0.1,4.5c-0.8,1.2-2.1,1.3-3.1,0.3
		c-0.8-0.8-1.3-1.5-2-2.3c-0.6-0.8-1.2-1.6-1.7-2.5c-1.1-1.7-2.1-3.6-3-5.7c-1.7-4.1-2.7-9.2-2.4-14.3c0.1-1.3,0.2-2.4,0.3-3.7
		c0.2-1.2,0.4-2.4,0.7-3.6c0.6-2.4,1.4-4.8,2.4-6.9c2.1-4.3,4.7-7.3,6.6-10.1c1-1.4,1.8-2.7,2.6-4.1c0.4-0.7,0.7-1.4,1-2l0.4-1
		l0.1-0.2c0,0,0.1-0.1,0,0l0,0l0-0.1l0.1-0.3c0.3-1.4,0.4-4.4-0.1-7.6c-0.5-3.2-1.3-6.7-2.3-10.1c-0.5-1.7-1-3.4-1.6-5.1
		c-0.3-0.8-0.6-1.7-0.9-2.5c-0.3-0.8-0.6-1.7-0.9-2.3c-2.2-5-1.1-11.7,2.6-14.8c3.7-3.1,8.5-1.5,10.7,3.5c0.2,0.5,0.4,1.1,0.6,1.6
		L69.1,169.5z"/>
	<path fill="#009444" d="M61.9,165.6c0,1.3-0.1,2.3-0.1,3.4c-0.1,1.1-0.1,2.1-0.2,3.2c-0.2,2.1-0.4,4.2-0.6,6.4
		c-0.5,4.3-1.2,8.5-2.4,12.9c-0.6,2.2-1.3,4.4-2.3,6.7c-1,2.2-2.2,4.5-3.9,6.7c-0.4,0.5-0.9,1-1.4,1.5c-0.3,0.2-0.5,0.5-0.8,0.7
		l-0.4,0.3l-0.2,0.2c-0.8,0.6-1.6,1.1-2.5,1.6c-1.6,1-3.3,1.7-4.9,2.3c-6.4,2.4-12.1,3-16.4,6.1c-2.1,1.5-4.2,3.7-5.7,6.2
		c-0.7,1.3-1.3,2.6-1.6,4c-0.2,0.7-0.3,1.4-0.3,2.1c0,0.3,0,0.7,0,1c0,0.2,0,0.3,0,0.5l0,0.2c0,0,0,0.2,0,0c0.5,1.6-0.1,3.4-1.3,4.1
		c-1.2,0.7-2.6-0.1-3.1-1.6c-0.1-0.4-0.1-0.4-0.2-0.6l-0.1-0.5c-0.1-0.3-0.1-0.6-0.2-1c-0.1-0.6-0.2-1.3-0.2-1.9
		c-0.1-1.2,0-2.5,0.1-3.7c0.3-2.4,0.9-4.7,1.7-6.7c0.8-2.1,1.9-3.9,3-5.6c1.1-1.7,2.4-3.3,3.8-4.7c2.8-2.8,5.9-4.6,8.9-6.2
		c2.9-1.5,5.7-2.8,8.1-4.3c1.2-0.7,2.3-1.5,3.3-2.4c0.5-0.4,1-0.9,1.4-1.3l0.2-0.2c0,0,0-0.1,0-0.1c0-0.1,0.1-0.1,0.1-0.2
		c0.1-0.1,0.2-0.3,0.3-0.5c0.7-1.4,1.5-4.1,1.9-7.2c0.4-3.1,0.6-6.5,0.6-10c0-1.7-0.1-3.5-0.1-5.2c0-0.9-0.1-1.7-0.2-2.6
		c-0.1-0.8-0.1-1.8-0.2-2.4c-0.7-5.7,2.2-11.1,6.6-12c4.4-1,8.5,2.9,9.3,8.5c0.1,0.6,0.1,1.2,0.1,1.8L61.9,165.6z"/>
	<path fill="#F15A29" d="M54.7,159.6c-4.4,1-7.3,6.3-6.6,12c0.1,0.6,0.2,1.6,0.2,2.4c0.1,0.9,0.1,1.7,0.2,2.6
		c0.1,1.7,0.1,3.5,0.1,5.2c0,3.5-0.2,6.9-0.6,10c-0.4,3.1-1.2,5.8-1.9,7.2c-0.1,0.2-0.2,0.3-0.3,0.5c0,0.1-0.1,0.1-0.1,0.2
		c0,0-0.1,0.1,0,0.1l-0.2,0.2c-0.4,0.4-0.9,0.9-1.4,1.3c-1,0.9-2.1,1.7-3.3,2.4c-2.4,1.5-5.2,2.8-8.1,4.3c-2.9,1.5-6,3.4-8.9,6.2
		c-1.4,1.4-2.7,3-3.8,4.7c-1.1,1.7-2.1,3.5-3,5.6c-0.8,2-1.5,4.3-1.7,6.7c-0.1,1.2-0.2,2.4-0.1,3.7c0,0.3,0,0.6,0.1,0.9
		c0.5,0.2,1,0.2,1.6-0.1c1.2-0.7,1.8-2.5,1.3-4.1c0,0.1,0,0,0,0l0-0.2c0-0.1,0-0.3,0-0.5c0-0.3,0-0.7,0-1c0-0.7,0.2-1.4,0.3-2.1
		c0.3-1.4,0.9-2.7,1.6-4c1.5-2.5,3.6-4.8,5.7-6.2c4.4-3.1,10-3.7,16.4-6.1c1.6-0.6,3.2-1.3,4.9-2.3c0.8-0.5,1.6-1,2.5-1.6l0.2-0.2
		l0.4-0.3c0.3-0.2,0.5-0.5,0.8-0.7c0.5-0.5,1-1,1.4-1.5c1.7-2.1,2.9-4.4,3.9-6.7c1-2.3,1.7-4.5,2.3-6.7c1.2-4.4,1.9-8.7,2.4-12.9
		c0.3-2.1,0.5-4.3,0.6-6.4c0.1-1.1,0.1-2.1,0.2-3.2c0-1.1,0.1-2.1,0.1-3.4l0-0.6c0-0.6,0-1.2-0.1-1.8c0-0.3-0.1-0.7-0.2-1
		C59.8,160.1,57.3,159,54.7,159.6z"/>
	<path fill="#FBB040" d="M44.8,205.3c-1.7,0.7-2.8,2.3-2.5,3.8c0.3,1.4,2,2,3.6,1.4c1.7-0.7,2.8-2.3,2.5-3.8
		C48.1,205.3,46.4,204.6,44.8,205.3z M45.6,209.2c-0.9,0.3-1.7,0-1.9-0.7c-0.2-0.7,0.4-1.6,1.3-1.9c0.9-0.3,1.7,0,1.9,0.7
		C47.1,208,46.5,208.8,45.6,209.2z"/>
	<path fill="#FBB040" d="M50.8,199.7c-1.4,1.2-1.9,3.1-1.1,4.4c0.8,1.2,2.5,1.3,3.9,0.1c1.4-1.2,1.9-3.1,1.1-4.4
		C53.9,198.6,52.2,198.5,50.8,199.7z M53,203.1c-0.7,0.6-1.6,0.6-2,0c-0.4-0.6-0.2-1.6,0.6-2.2c0.7-0.6,1.6-0.6,2,0
		C53.9,201.5,53.7,202.5,53,203.1z"/>
	<path fill="#FBB040" d="M53.9,191.4c-1,1.5-0.8,3.5,0.3,4.5c1.1,0.9,2.8,0.4,3.7-1.1c1-1.5,0.8-3.5-0.3-4.5
		C56.5,189.4,54.9,189.9,53.9,191.4z M57,194c-0.5,0.8-1.4,1-1.9,0.6c-0.6-0.5-0.6-1.5-0.2-2.3c0.5-0.8,1.4-1,1.9-0.6
		C57.4,192.1,57.4,193.2,57,194z"/>
	<path fill="#FBB040" d="M88.3,192c0.5,1.7,2.2,2.9,3.6,2.7c1.4-0.2,2.2-1.8,1.6-3.6c-0.5-1.7-2.2-2.9-3.6-2.7
		C88.4,188.7,87.7,190.3,88.3,192z M92.2,191.4c0.3,0.9-0.1,1.7-0.8,1.8c-0.7,0.1-1.6-0.5-1.8-1.4c-0.3-0.9,0.1-1.7,0.8-1.8
		C91.1,189.9,91.9,190.5,92.2,191.4z"/>
	<path fill="#FBB040" d="M92,199.3c0.5,1.7,2.2,2.9,3.6,2.7c1.4-0.2,2.2-1.8,1.6-3.6c-0.5-1.7-2.2-2.9-3.6-2.7
		C92.1,196,91.4,197.6,92,199.3z M95.9,198.7c0.3,0.9-0.1,1.7-0.8,1.8c-0.7,0.1-1.6-0.5-1.8-1.4c-0.3-0.9,0.1-1.7,0.8-1.8
		C94.8,197.2,95.6,197.8,95.9,198.7z"/>
	<path fill="#FBB040" d="M36.9,208.3c-1.7,0.4-3,1.9-2.8,3.4c0.2,1.5,1.8,2.3,3.5,1.9c1.7-0.4,3-1.9,2.8-3.4
		C40.2,208.7,38.6,207.9,36.9,208.3z M37.5,212.3c-0.9,0.2-1.7-0.2-1.8-1c-0.1-0.7,0.5-1.5,1.4-1.7c0.9-0.2,1.7,0.2,1.8,1
		C39,211.3,38.3,212.1,37.5,212.3z"/>
	<path fill="#FBB040" d="M28.4,212c-1.5,0.9-2.4,2.6-2,3.8c0.4,1.2,2,1.5,3.5,0.7c1.5-0.9,2.4-2.6,2-3.8
		C31.4,211.4,29.9,211.1,28.4,212z M29.5,215.3c-0.8,0.4-1.6,0.3-1.8-0.3c-0.2-0.6,0.2-1.5,1-2c0.8-0.4,1.6-0.3,1.8,0.3
		C30.8,214,30.3,214.9,29.5,215.3z"/>
	<path fill="#FBB040" d="M21.4,218c-1,1-1.4,2.4-0.9,3.2c0.5,0.8,1.7,0.7,2.7-0.3c1-1,1.4-2.4,0.9-3.2C23.6,216.9,22.4,217,21.4,218
		z M22.7,220.2c-0.5,0.5-1.1,0.6-1.4,0.2c-0.2-0.4,0-1.2,0.5-1.7c0.5-0.5,1.1-0.6,1.4-0.2C23.5,219,23.3,219.7,22.7,220.2z"/>
	<path fill="#FBB040" d="M17.8,224.5c-0.4,1.1-0.3,2.2,0.3,2.5c0.5,0.3,1.3-0.3,1.6-1.4c0.4-1.1,0.3-2.2-0.3-2.5
		C18.9,222.8,18.2,223.4,17.8,224.5z M19.2,225.4c-0.2,0.6-0.6,0.9-0.8,0.7c-0.3-0.2-0.3-0.7-0.1-1.3c0.2-0.6,0.6-0.9,0.8-0.7
		C19.3,224.3,19.4,224.8,19.2,225.4z"/>
	<path fill="#006838" d="M94,13c1.2,0.6,1.6,5.2-0.6,10.8C91.2,29.4,85,34.1,85,34.1l-7.2-8.9c0,0,5.5,1.4,11.4-5.2
		C92,16.9,92.8,12.5,94,13z"/>
	<path fill="#006838" d="M59,22c-1.1,0.9-0.9,5.6,2,10.5c2.9,4.9,9.6,8,9.6,8l5.9-10.6c0,0-5.3,2.8-11.9-2.1
		C61.4,25.4,60.1,21.1,59,22z"/>
	<path fill="#39B54A" d="M122,127.4c0,0,23-14.7,16.9-50.7c-6.2-36.3-67.9-54-67.9-54s-3.3,4.8,1.9,16.4c6.6,14.6,51.4,15.9,50.8,70
		c-0.3,25.8-3.8,11.4-3.8,11.4L122,127.4z"/>
	<path fill="#39B54A" d="M32.9,127.4c0,0-28.7-1.9-23.5-42.6C15.6,36.7,78,31.1,78,31.1l18.8,21.6c0,0-62.5-4.8-67.4,41
		c-1.8,16.4,5.4,24.7,5.4,24.7L32.9,127.4z"/>
	<path fill="#BE1E2D" d="M48,155.5l-11.3,9.9c0,0,3.3,5.4,11,9.4s13.1,4.5,13.1,4.5l5.8-17.8L48,155.5z"/>
	<path fill="#BE1E2D" d="M99.5,155.9l11.3,9.9c0,0-2.7,4.7-7.7,7.7c-5,3-16.3,6.1-16.3,6.1L80.9,162L99.5,155.9z"/>
	<path fill="#BE1E2D" d="M91,167.9l6.7,13.4c0,0-4.3,3.4-10,4.3c-5.8,0.9-17.5-0.4-17.5-0.4l1.3-18.7L91,167.9z"/>
	<path fill="#BE1E2D" d="M41.5,146.9c0,0-1.7,22,31.4,23.3c38.9,1.6,31.9-26,31.9-26L41.5,146.9z"/>
	<path fill="#009444" d="M40.9,118c0,0-6.9-49,32.6-49c41.4,0,30.3,52.3,30.3,52.3l-30.6,3.6L40.9,118z"/>
	<path fill="#F9ED32" d="M38.8,111.9l4.3,19.4l-4.3,27.2c0,0,7.1,7.5,37.7,8c24.9,0.4,31.9-5,31.9-5l-3.7-30.5l2.9-16.1
		c0,0-11,6.8-34.5,5.8C49.6,119.5,38.8,111.9,38.8,111.9z"/>
	<path fill="#F9ED32" d="M130.3,115c-2.9-5.1-7.8-7.5-7.8-7.5l-13,6.6c0,0-0.7,0.6-2.3,1.6c-3.1,3.6-9,20.3-7.5,24
		c1.3,3.1,13.3-0.3,20.3-3.8s10.8-8.3,10.8-8.3S133.3,120,130.3,115z"/>
	<path fill="#BE1E2D" d="M130.3,115c-2.9-5.1-7.8-7.5-7.8-7.5l-4.1,2.1c1.1,0.6,5.8,3.4,8.8,8.5c2.2,3.9,1.7,9,1.2,12
		c1.6-1.4,2.4-2.5,2.4-2.5S133.3,120,130.3,115z"/>
	<path fill="#F9ED32" d="M44,136.2c2.3,0.3,2-4.6,3.2-5.6c1.9-1.6-2.7-4.3-2.5-6.7c0.3-2.9,0.3-5.8,0.4-8.7c-4-1.3-6-2.5-6-2.5
		l-10-3.4c0,0-4.6,5.5-4.7,10.5c-0.1,5,2.1,9.9,2.1,9.9l17.1,9.5L44,136.2z"/>
	<path fill="#BE1E2D" d="M27.6,122.4c0.1-4.8,3.7-10,5.1-11.8l-3.6-1.3c0,0-4.6,5.5-4.7,10.5c-0.1,5,2.1,9.9,2.1,9.9l2.6,1.4
		C28.2,128.9,27.5,125.7,27.6,122.4z"/>
	<path fill="#BE1E2D" d="M109,114.3l-1.4,0.4c0,0-11,6.8-34.5,5.8c-22.3-1-32.5-8.7-33.6-9.4c3.4,4.5,11.7,13.3,32.5,14.9
		C93.7,127.7,104.7,119.1,109,114.3z"/>
	<path fill="#BE1E2D" d="M54.1,167.7l-6.7,13.4c0,0,4.3,3.4,10,4.3c5.8,0.9,17.5-0.4,17.5-0.4l-1.3-18.7L54.1,167.7z"/>
	<path fill="#2B3990" d="M74.2,114.4c14.9,0,25.3-5.8,30.8-9.9C104.6,89.2,99.1,69,73.4,69c-24,0-30.9,18.1-32.6,32.4
		C47.1,106.7,58.9,114.4,74.2,114.4z"/>
	<path fill="#39B54A" d="M87.5,30.4c0,0,2.9-12.7-6.9-15.8C62.7,9.1,65.3,33.2,65.3,33.2L87.5,30.4z"/>
	<path fill="#006838" d="M65.8,31.8c0,0,0.5,1.9,2.9,6.5c2.4,4.6,18.5,12.3,18.5,12.3s-14.9-3.5-18.7-9.5
		C64.8,35.1,65.8,31.8,65.8,31.8z"/>
	<g>
		<path fill="#27AAE1" d="M77.3,72.7c0.3,0,0.5,0,0.8,0.1c0.2,0,0.5,0.1,0.7,0.2c0.4,0.1,0.9,0.3,1.3,0.4c0.8,0.3,1.6,0.7,2.4,1.1
			c1.5,0.8,3,1.7,4.4,2.7l0,0l0,0c0.7,0.7,1.4,1.3,2.1,2l1,1.1c0.3,0.3,0.6,0.7,0.9,1.1c0.3,0.4,0.6,0.7,0.9,1.1l0.8,1.2
			c0.3,0.4,0.5,0.8,0.8,1.2c0.3,0.4,0.5,0.8,0.7,1.2c0.5,0.8,0.9,1.7,1.3,2.6c0.4,0.9,0.7,1.8,1,2.7c0.6,1.8,1.1,3.7,1.3,5.6
			c-0.3-1.9-0.8-3.7-1.4-5.5c-0.3-0.9-0.7-1.8-1.1-2.6c-0.4-0.9-0.8-1.7-1.3-2.5c-0.2-0.4-0.5-0.8-0.7-1.2c-0.3-0.4-0.5-0.8-0.8-1.2
			l-0.9-1.1c-0.3-0.4-0.6-0.7-0.9-1.1c-0.3-0.4-0.6-0.7-0.9-1.1l-1-1c-0.7-0.7-1.4-1.3-2.1-1.9l0,0C85,76.9,83.5,76,82,75.2
			c-0.8-0.4-1.5-0.7-2.3-1c-0.4-0.1-0.8-0.3-1.2-0.4c-0.2,0-0.4-0.1-0.6-0.1c-0.2,0-0.4,0-0.5,0L77.3,72.7z"/>
	</g>
	<g>
		<path fill="#27AAE1" d="M75.1,74.8c0.3,0.1,0.5,0.1,0.7,0.2c0.2,0.1,0.4,0.2,0.6,0.3c0.4,0.2,0.8,0.4,1.2,0.7
			c0.7,0.5,1.4,1,2.1,1.5c1.4,1.1,2.6,2.3,3.8,3.5l0,0l0,0c0.6,0.8,1.2,1.5,1.7,2.3l0.8,1.2c0.3,0.4,0.5,0.8,0.7,1.3
			c0.2,0.4,0.5,0.8,0.7,1.3l0.6,1.3c0.2,0.4,0.3,0.9,0.5,1.3c0.2,0.4,0.3,0.9,0.5,1.4c0.3,0.9,0.5,1.8,0.8,2.8
			c0.2,0.9,0.4,1.9,0.5,2.8c0.2,1.9,0.3,3.8,0.2,5.7c0.1-1.9,0-3.8-0.3-5.7c-0.1-0.9-0.4-1.9-0.6-2.8c-0.2-0.9-0.5-1.8-0.8-2.7
			c-0.1-0.5-0.3-0.9-0.5-1.3c-0.2-0.4-0.3-0.9-0.6-1.3L87,87.3c-0.2-0.4-0.5-0.8-0.7-1.2c-0.2-0.4-0.4-0.8-0.7-1.2l-0.8-1.2
			c-0.5-0.8-1.2-1.5-1.7-2.2l0,0c-1.2-1.2-2.5-2.3-3.8-3.3c-0.7-0.5-1.4-1-2.1-1.4c-0.4-0.2-0.7-0.4-1.1-0.6
			c-0.2-0.1-0.4-0.2-0.6-0.2c-0.2-0.1-0.4-0.1-0.5-0.1L75.1,74.8z"/>
	</g>
	<g>
		<path fill="#27AAE1" d="M66.4,78.2c-0.1,0-0.3,0.1-0.5,0.1c-0.2,0.1-0.4,0.1-0.6,0.2c-0.4,0.2-0.7,0.4-1.1,0.6
			c-0.7,0.4-1.4,0.9-2.1,1.4c-1.3,1-2.6,2.2-3.8,3.3l0,0c-0.6,0.8-1.2,1.5-1.7,2.2l-0.8,1.2c-0.3,0.4-0.5,0.8-0.7,1.2
			c-0.2,0.4-0.5,0.8-0.7,1.2L53.8,91c-0.2,0.4-0.4,0.9-0.6,1.3c-0.2,0.4-0.4,0.9-0.5,1.3c-0.3,0.9-0.6,1.8-0.8,2.7
			c-0.2,0.9-0.4,1.9-0.6,2.8c-0.3,1.9-0.5,3.8-0.3,5.7c-0.2-1.9-0.1-3.8,0.2-5.7c0.1-0.9,0.3-1.9,0.5-2.8c0.2-0.9,0.5-1.9,0.8-2.8
			c0.1-0.5,0.3-0.9,0.5-1.4c0.2-0.4,0.3-0.9,0.5-1.3l0.6-1.3c0.2-0.4,0.4-0.9,0.7-1.3c0.2-0.4,0.4-0.9,0.7-1.3l0.8-1.2
			c0.5-0.8,1.1-1.6,1.7-2.3l0,0l0,0c1.2-1.2,2.5-2.4,3.8-3.5c0.7-0.5,1.4-1.1,2.1-1.5c0.4-0.2,0.8-0.5,1.2-0.7
			c0.2-0.1,0.4-0.2,0.6-0.3c0.2-0.1,0.4-0.2,0.7-0.2L66.4,78.2z"/>
	</g>
	<circle fill="#F9ED32" cx="72.5" cy="71.1" r="7.6"/>
	<path fill="#262864" d="M74.6,68.8c0,0-5.5-4.1-13.5-0.3c-5,2.4-12.8,13.1-8,25c4,10.1,15.5,16,18.5,22.6c3,6.6-1.8,12.1-1.8,12.1
		s14.3,3.4,14-12.9c-0.1-7.6-6.5-17.1-11.5-28.9c-3.3-7.8,2.3-12.9,2.3-12.9V68.8z"/>
	<g>
		<path fill="#27AAE1" d="M70.6,107.5c-1.7-1-3.2-2.3-4.6-3.6c-1.4-1.3-2.8-2.8-4-4.3c-1.2-1.5-2.3-3.2-3.2-5
			c-0.5-0.9-0.9-1.8-1.3-2.7c-0.4-0.9-0.7-1.9-1-2.8c-0.3-0.9-0.5-2-0.7-2.9c-0.1-1.1-0.2-2.1-0.1-3.1c0.1-1,0.3-2.1,0.6-3.1
			c0.4-1,0.8-1.9,1.4-2.8c1.2-1.7,2.9-3.1,4.6-4.1c0.9-0.5,1.8-1,2.8-1.3c1-0.4,1.9-0.7,3-0.9l5.7-1.2l-5,3.1
			c-0.1,0.1-0.5,0.4-0.7,0.6c-0.2,0.2-0.5,0.5-0.7,0.8c-0.4,0.6-0.8,1.2-1.1,1.9c-0.3,0.7-0.5,1.4-0.7,2.1l-0.3,1.1l-0.2,1.1
			c-0.1,0.8-0.2,1.5-0.2,2.3c0,0.8-0.1,1.6,0,2.3c0,0.4,0,0.8,0,1.2c0,0.4,0.1,0.8,0.1,1.2c0.1,0.7,0.3,1.5,0.5,2.2
			c0.8,3,2.3,5.8,4.3,8.3c1,1.2,2,2.4,3.2,3.5c1.2,1.1,2.4,2.1,3.7,3c-2.8-1.6-5.3-3.6-7.5-6c-2.2-2.4-3.9-5.2-5-8.4
			c-0.3-0.8-0.4-1.6-0.6-2.4c-0.1-0.4-0.1-0.8-0.2-1.2c-0.1-0.4-0.1-0.8-0.1-1.2c-0.1-0.8-0.1-1.6-0.1-2.5c0-0.8,0-1.6,0.1-2.5
			l0.2-1.2l0.2-1.2c0.2-0.8,0.4-1.6,0.7-2.4c0.3-0.8,0.7-1.6,1.2-2.3c0.3-0.4,0.5-0.7,0.9-1c0.3-0.3,0.6-0.6,1.1-0.9l0.7,1.8
			c-0.8,0.2-1.8,0.5-2.6,0.8c-0.9,0.3-1.7,0.7-2.5,1.2c-1.6,0.9-3,2.1-4.1,3.5c-1.1,1.4-1.7,3.1-1.9,4.9c-0.1,0.9-0.1,1.8,0,2.7
			c0.1,0.5,0.1,1,0.2,1.4c0.1,0.5,0.2,0.9,0.3,1.4c0.9,3.7,2.6,7.2,4.8,10.3c1.1,1.6,2.3,3.1,3.6,4.5
			C67.7,104.9,69.1,106.3,70.6,107.5z"/>
	</g>
	<path fill="#BE1E2D" d="M64.2,151.5c5.2,0.1,8.4-0.4,8.4-0.4l-0.3,1.2c0,0.3-0.1,0.6-0.1,0.9c0,1.5,0.9,2.2,2.8,2.2
		c2,0,3-1,2.8-3.1l-0.3-4.5l-0.1,0.1c-1.4,0.9-3.3,1.3-5.7,1.3c-5.5,0-8.3-2-8.3-6.1v-3.5c0-2.6,0.7-4.3,2.1-5.3
		c1.5-1.1,4.2-1.6,8.2-1.7h0.5c4,0,6.8,0.5,8.4,1.7c1.7,1.1,2.5,3,2.6,5.6l0.5,15.3c0.1,2.5-0.5,4.3-1.7,5.5
		c-1.2,1.2-4.5,2.5-8.2,2.5c-1.4,0-5.7,0.1-7.1-0.8C67.4,161.7,62.7,158.6,64.2,151.5z M71.5,141v2.2c0,0.9,0.2,1.6,0.5,1.9
		c0.4,0.6,1.3,0.8,2.5,0.8c1.3,0,2.1-0.3,2.5-0.8c0.3-0.4,0.5-1,0.5-1.9V141c0-0.9-0.1-1.6-0.4-2c-0.4-0.5-1.3-0.8-2.6-0.8
		c-1.3,0-2.1,0.3-2.5,0.8C71.7,139.4,71.5,140.1,71.5,141z"/>
</g>
<g id="monster_1_arms_up_legs_up">
</g>
<g id="monster_1_arms_down_legs_down">
</g>
<g id="monster_1_arms_down_legs_up">
</g>
<g id="monster_1_arms_up_legs_down_copy">
</g>
<g id="bell_idle">
</g>
<g id="bell_pull_1">
</g>
<g id="bell_pull_2">
</g>
</svg>
