<?xml version="1.0" encoding="utf-8"?>
<!-- Generator: Adobe Illustrator 20.0.0, SVG Export Plug-In . SVG Version: 6.00 Build 0)  -->
<!DOCTYPE svg PUBLIC "-//W3C//DTD SVG 1.1//EN" "http://www.w3.org/Graphics/SVG/1.1/DTD/svg11.dtd">
<svg version="1.1" xmlns="http://www.w3.org/2000/svg" xmlns:xlink="http://www.w3.org/1999/xlink" x="0px" y="0px"
	 viewBox="0 0 147.4 264.6" enable-background="new 0 0 147.4 264.6" xml:space="preserve" width="147.4" height="264.6" preserveAspectRatio="none">
<g id="rope_placement">
</g>
<g id="Rope">
</g>
<g id="monster_1_arms_up_legs_down">
</g>
<g id="monster_1_arms_up_legs_up">
</g>
<g id="monster_1_arms_down_legs_down">
</g>
<g id="monster_1_arms_down_legs_up">
	<path fill="#776AB0" d="M117.7,90.4c0,0,13.1,19.3,22.9-10.2c9.8-29.5-1.5-59.7-1.5-59.7l-17.2,21.2c0,0,13.2,16.6,1.3,40.1
		c-7.8,15.5-6.8,4.6-6.8,4.6L117.7,90.4z"/>
	<path fill="#412F8F" d="M57.1,189.1c0,0-4.5-3.9-5.6-2.6c-2.6,3-1.2,9.6-1.2,9.6l5.7-4L57.1,189.1z"/>
	<path fill="#412F8F" d="M60.5,192.1c0,0-4.5-3.9-5.6-2.6c-2.6,3-1.2,9.6-1.2,9.6l5.7-4L60.5,192.1z"/>
	<path fill="#776AB0" d="M31.7,98.8c0,0-28.8,3.2-19.6-25.4c10.8-33.9,50.3-40.7,50.3-40.7l6.9,21.4c0,0-26.5,3.3-38.7,29.5
		s3,8.7,3,8.7L31.7,98.8z"/>
	<path fill="#776AB0" d="M56.2,135.2c0,0-13,7.2-13.7,19.7c-0.5,9.6,8.3,17.3,8.3,17.3l4.7,4c0,0-2.7,3-3.7,8.3
		c-1.1,5.7,5.3,12.1,5.3,12.1s7.7-5.1,11.4-11.4c3.7-6.3,2-14,2-14s-12.4-5.2-14.1-14.6c-1.7-9.4,8.2-16.7,8.2-16.7L56.2,135.2z"/>
	<path fill="#412F8F" d="M91.6,188.6c0,0,4-4.3,5.2-3.2c2.9,2.7,2.3,9.4,2.3,9.4l-6.1-3.4L91.6,188.6z"/>
	<path fill="#412F8F" d="M88.5,192.1c0,0,4-4.3,5.2-3.2c2.9,2.7,2.3,9.4,2.3,9.4l-6.1-3.4L88.5,192.1z"/>
	<path fill="#776AB0" d="M86.4,135c0,0,13.7,5.7,15.8,18c1.6,9.5-6.3,18.2-6.3,18.2l-4.2,4.5c0,0,3,2.7,4.6,7.9
		c1.7,5.6-3.9,12.6-3.9,12.6s-8.2-4.2-12.6-10.1c-4.3-5.9-3.6-13.7-3.6-13.7s11.8-6.6,12.4-16.1c0.6-9.5-10-15.6-10-15.6L86.4,135z"
		/>
	<path fill="#00793A" d="M50.7,128.7l-11.3,9.9c0,0,3.3,5.4,11,9.4c7.7,4,13.1,4.5,13.1,4.5l5.8-17.8L50.7,128.7z"/>
	<path fill="#00793A" d="M93.9,128.7l11.3,9.9c0,0-2.7,4.7-7.7,7.7s-16.3,6.1-16.3,6.1l-5.8-17.8L93.9,128.7z"/>
	<path fill="#00793A" d="M40.2,118.2c0,0-1.7,22,31.4,23.3c38.9,1.6,31.9-26,31.9-26L40.2,118.2z"/>
	<path fill="#412F8F" d="M41.4,148.5c0.4,1.4,1.4,2.5,2.5,3.3c1.2,0.7,2.5,1,3.8,0.9c2.6-0.4,4.8-2.4,5.5-4.7
		c0.4-1.2,0.4-2.4,0.1-3.5c0-0.1-0.1-0.3-0.1-0.4l0-0.1c0,0,0-0.1,0-0.1l-0.1-0.3c-0.1-0.3-0.2-0.5-0.4-0.8c-0.3-0.5-0.6-1-1-1.5
		c-1.5-1.8-3.8-2.8-5.9-2.7c-0.5,0-1.1,0.1-1.6,0.2l-0.4,0.1l-0.2,0.1l-0.1,0l0,0c0,0-0.1,0,0,0l0,0l-0.5,0.2
		c-0.1,0.1-0.2,0.1-0.3,0.2c-1,0.5-2,1.1-2.8,1.9c-1.7,1.5-2.8,3.6-3.2,5.6c-0.2,1-0.2,2-0.1,2.9c0.1,0.5,0.2,0.8,0.4,1.3l0.2,0.5
		l0.2,0.4c0.1,0.2,0.2,0.5,0.3,0.8c1,2.1,2.4,3.8,4,4.9c1.6,1.2,3.5,1.8,5.5,2c1,0.1,2.1,0.1,3.2,0c0.3,0,0.6-0.1,0.8-0.1l0.5-0.1
		c0.2,0,0.2,0,0.4-0.1c0.5-0.1,1-0.2,1.5-0.4c4-1.1,6.6-3.7,8.4-7.3c1.7-3.7,2.5-8.4,2.2-12.9l-0.2-17.6l20,1.2l-2.2,16.9
		c-0.3,3.6-1,7-2.1,10.3c-1.1,3.4-2.6,6.7-4.8,9.8c-2.1,3.1-4.9,5.9-8.2,8c-3.3,2.1-7.1,3.4-10.8,3.8c-0.9,0.1-1.8,0.2-2.8,0.2
		l-0.7,0l-0.5,0c-0.5,0-0.9,0-1.4-0.1c-1.8-0.1-3.6-0.4-5.4-0.9c-3.6-1-7.1-2.9-9.8-5.6c-2.7-2.7-4.5-6-5.5-9.3
		c-0.1-0.4-0.2-0.8-0.4-1.3l-0.2-0.7l-0.1-0.5c-0.2-0.9-0.3-2-0.3-2.9c0-2,0.3-3.9,1-5.7c1.3-3.5,3.7-6.3,6.6-8.3
		c2.9-2,6.5-3.2,10.1-2.7c3.6,0.5,6.8,2.6,8.6,5.6c0.5,0.7,0.8,1.5,1.1,2.3c0.1,0.4,0.3,0.8,0.4,1.2l0.1,0.3l0,0.2l0,0.2
		c0,0.2,0.1,0.4,0.1,0.6c0.2,1.7-0.1,3.5-0.9,5c-1.5,3-4.6,5-7.8,5c-1.6,0-3.1-0.6-4.3-1.6C42.4,151.3,41.7,150,41.4,148.5z"/>
	<path fill="#412F8F" d="M38.9,89.2c0,0-7-54.7,33.3-54.7c42.3,0,31,58.3,31,58.3l-31.3,4L38.9,89.2z"/>
	<path fill="#6BBE57" d="M37.6,83.2l4.3,19.4l-4.3,22c0,0,7.1,8.6,37.7,9.1c24.9,0.4,31.9-6.1,31.9-6.1l-3.7-25.3l2.9-16.1
		c0,0-11,6.8-34.5,5.8C48.3,90.8,37.6,83.2,37.6,83.2z"/>
	<path fill="#6BBE57" d="M129.1,86.3c-2.9-5.1-7.8-7.5-7.8-7.5l-13,6.6c0,0-0.7,0.6-2.3,1.6c-3.1,3.6-8.9,12.9-7.4,16.6
		c1.3,3.1,18-2.2,18.2-2.1l12.7-2.5C129.6,98.9,132.1,91.3,129.1,86.3z"/>
	<path fill="#6BBE57" d="M42.9,104.2c2.3,0.3,1.8-1.4,3-2.3c1.9-1.6-2.7-4.3-2.5-6.7c0.3-2.9,0.3-5.8,0.4-8.7c-4-1.3-6-2.5-6-2.5
		l-10-3.4c0,0-4.6,5.5-4.7,10.5c-0.1,5,2.1,9.9,2.1,9.9l9.2,0.6L42.9,104.2z"/>
	<path fill="#00793A" d="M107.8,85.6l-1.4,0.4c0,0-11,6.8-34.5,5.8c-22.3-1-32.5-8.7-33.6-9.4c3.4,4.5,11.7,13.3,32.5,14.9
		C92.5,99,103.5,90.4,107.8,85.6z"/>
	<path fill="#00793A" d="M30.9,81.6l-3.1-1.1c0,0-4.6,5.5-4.7,10.5c-0.1,5,2.1,9.9,2.1,9.9l2.6,0.2c-0.3-2.7-0.6-6.2-0.2-10.1
		C28,86.4,29.6,83.4,30.9,81.6z"/>
	<path fill="#00793A" d="M129.6,98.9c0,0,2.5-7.6-0.4-12.7c-2.9-5.1-7.8-7.5-7.8-7.5l-1.5,0.8c1.7,1.4,4,4,5.4,8.4
		c1.4,4.4,2,8.5,2.2,11.2L129.6,98.9z"/>
	<path fill="#412F8F" d="M21.1,74.6c-1.4,0-2.7-1.3-3-3.1c-0.1,0.3-0.1,0.7-0.1,1c0,2.3,1.4,4.1,3.1,4.1c1.7,0,3.1-1.8,3.1-4.1
		c0-0.4,0-0.7-0.1-1C23.7,73.3,22.5,74.6,21.1,74.6z"/>
	<path fill="#412F8F" d="M25.1,70.3c-1.4,0-2.7-1.3-3-3.1c-0.1,0.3-0.1,0.7-0.1,1c0,2.3,1.4,4.1,3.1,4.1c1.7,0,3.1-1.8,3.1-4.1
		c0-0.4,0-0.7-0.1-1C27.7,69,26.5,70.3,25.1,70.3z"/>
	<path fill="#412F8F" d="M34.1,55c-1.4,0-2.7-1.3-3-3.1c-0.1,0.3-0.1,0.7-0.1,1c0,2.3,1.4,4.1,3.1,4.1c1.7,0,3.1-1.8,3.1-4.1
		c0-0.4,0-0.7-0.1-1C36.7,53.6,35.5,55,34.1,55z"/>
	<path fill="#412F8F" d="M36.9,39.9c1.1-0.2,1.8,7.3,4.7,13.3c3.1,6.7,8.3,12,8.3,12l-2,10.3c0,0-5,0.3-9-3.3c-4-3.7-6.7-6-8-16.3
		C29.6,45.5,34.6,40.2,36.9,39.9z"/>
	<path fill="#412F8F" d="M107.9,37.9c-1.1-0.2-1.8,7.3-4.7,13.3c-3.1,6.7-8.3,12-8.3,12l2,10.3c0,0,5,0.3,9-3.3c4-3.7,6.7-6,8-16.3
		C115.2,43.5,110.2,38.2,107.9,37.9z"/>
	<path fill="#754C29" d="M67,30c0,0-4.4-4.5-9.9-3.7c-5.5,0.8-8.1,4.2-8.1,4.2l6.3,0.6c0,0-5.2,0-9.7,5.9
		c-4.4,5.9-3.1,14.6-3.1,14.6s1-2.8,5-5.6c3.9-2.8,8.6-2.5,8.6-2.5s-3.1,3.5-1.8,7.9c1.8,6.2,5.5,6.7,5.5,6.7s-1.3-3.9,0.8-9
		c2.3-5.6,5.5-5.6,5.5-5.6s-0.5,3.4,0.5,7.3c1,3.9,6.8,6.7,6.8,6.7s3.1-23.8,0-29.3c-3.1-5.5-8.6-4.9-8.6-4.9L67,30z"/>
	<path fill="#754C29" d="M77.4,29.2c0,0,4.4-4.5,9.9-3.7c5.5,0.8,8.1,4.2,8.1,4.2l-6.3,0.6c0,0,5.2,0,9.7,5.9
		c4.4,5.9,3.1,14.6,3.1,14.6s-1-2.8-5-5.6c-3.9-2.8-8.6-2.5-8.6-2.5s3.1,3.5,1.8,7.9c-1.8,6.2-5.5,6.7-5.5,6.7s1.3-3.9-0.8-9
		c-2.3-5.6-5.5-5.6-5.5-5.6s0.5,3.4-0.5,7.3c-1,3.9-4.6,7.6-4.6,7.6s-5.3-24.7-2.2-30.2c3.1-5.5,8.6-4.9,8.6-4.9L77.4,29.2z"/>
	<path fill="#754C29" d="M62.4,41.1c0,0-1.4,2.6-1.3,6.2c0.2,3.6,3.8,6.6,3.8,6.6s-0.1-1.2,1.5-5.2c2-4.9,2.9-4.8,2.9-4.8L62.4,41.1
		z"/>
	<path fill="#754C29" d="M81.8,39.8c0,0,1.5,2.5,1.4,6.2c-0.1,3.6-3.7,6.7-3.7,6.7s0.1-1.2-1.6-5.1c-2.1-4.9-3-4.8-3-4.8L81.8,39.8z
		"/>
	
		<ellipse transform="matrix(0.2203 -0.9754 0.9754 0.2203 75.8517 140.5465)" fill="#776AB0" cx="125.8" cy="22.8" rx="4.8" ry="11.8"/>
	
		<ellipse transform="matrix(0.2203 -0.9754 0.9754 0.2203 67.6535 144.9996)" fill="#412F8F" cx="124.5" cy="30.2" rx="5.6" ry="11.4"/>
	
		<ellipse transform="matrix(0.2203 -0.9754 0.9754 0.2203 66.8685 143.3845)" fill="#776AB0" cx="123.1" cy="29.9" rx="5.6" ry="11.4"/>
	
		<ellipse transform="matrix(0.2203 -0.9754 0.9754 0.2203 58.1349 149.7647)" fill="#412F8F" cx="122.7" cy="38.5" rx="6.1" ry="10.1"/>
	
		<ellipse transform="matrix(0.2203 -0.9754 0.9754 0.2203 57.2435 147.9322)" fill="#776AB0" cx="121.2" cy="38.2" rx="6.1" ry="10.1"/>
	<path fill="#776AB0" d="M138.8,33.3l1.2-15.4L121.6,15c0,0-0.4,9.7-1.8,14.9c-1.4,5.2-3.6,8.1-3.6,8.1s7,1.5,9.4-5.2
		c1.5-4.1,0.8-10.5,0.8-10.5s2.3,10.4,6.3,11.7C136.5,35.3,138.8,33.3,138.8,33.3z"/>
	<path fill="#412F8F" d="M121.6,15c0,2-0.1,4-0.2,6c-0.1,2-0.3,4-0.6,6c-0.3,2-0.8,4-1.5,5.8c-0.7,1.9-1.6,3.7-2.7,5.4l-0.3-0.7
		c1.7,0.3,3.6,0.1,5.2-0.7c1.6-0.7,2.8-2.1,3.5-3.7c0.7-1.6,1-3.5,1.1-5.3c0.1-1.8,0.1-3.7-0.1-5.5l0.8-0.1c0.4,1.6,0.8,3.2,1.4,4.8
		c0.6,1.6,1.2,3.1,2.1,4.5c0.5,0.7,1,1.3,1.6,1.8c0.6,0.5,1.5,0.7,2.3,0.8c1.6,0.3,3.4,0.1,4.8-0.8c-1.3,1.1-3.2,1.4-4.8,1.1
		c-0.8-0.1-1.7-0.3-2.5-0.8c-0.7-0.5-1.3-1.2-1.8-1.9c-1-1.4-1.7-3-2.3-4.6c-0.6-1.6-1.1-3.2-1.5-4.9l0.8-0.1
		c0.2,1.9,0.3,3.8,0.2,5.7c-0.1,1.9-0.4,3.8-1.1,5.6c-0.7,1.8-2.2,3.4-4,4.2c-1.8,0.8-3.8,1-5.8,0.7l-0.7-0.1l0.4-0.6
		c1.1-1.5,2-3.4,2.7-5.2c0.7-1.8,1.3-3.7,1.6-5.7C120.8,23,121.2,19,121.6,15z"/>
	<path fill="#412F8F" d="M134.3,66.9c-1.4,0-2.7-1.3-3-3.1c-0.1,0.3-0.1,0.7-0.1,1c0,2.3,1.4,4.1,3.1,4.1c1.7,0,3.1-1.9,3.1-4.1
		c0-0.4,0-0.7-0.1-1C136.9,65.6,135.7,66.9,134.3,66.9z"/>
	<polygon fill="#00793A" points="61.9,99.9 55.5,102.9 55.3,106 60.1,106.5 57.9,121.8 53.6,121.4 52.4,128.5 68.4,130.2 
		68.5,122.8 64.1,122.4 66.2,100.3 	"/>
	<path fill="#00793A" d="M82,100.7c-7.2,0-12.5,5.4-12.5,14.7s5.1,15.3,12.3,15.3c7.2,0,12-5.3,12-14.6
		C93.8,106.8,89.2,100.7,82,100.7z M81.5,124.3c-4,0-5.6-3.1-5.6-8.6c0-5.5,1.8-9.2,5.8-9.2c4,0,5.4,3.5,5.4,9
		S85.5,124.3,81.5,124.3z"/>
</g>
<g id="monster_1_arms_up_legs_down_copy">
</g>
<g id="bell_idle">
</g>
<g id="bell_pull_1">
</g>
<g id="bell_pull_2">
</g>
</svg>
