<?xml version="1.0" encoding="utf-8"?>
<!-- Generator: Adobe Illustrator 20.0.0, SVG Export Plug-In . SVG Version: 6.00 Build 0)  -->
<!DOCTYPE svg PUBLIC "-//W3C//DTD SVG 1.1//EN" "http://www.w3.org/Graphics/SVG/1.1/DTD/svg11.dtd">
<svg version="1.1" xmlns="http://www.w3.org/2000/svg" xmlns:xlink="http://www.w3.org/1999/xlink" x="0px" y="0px"
	 viewBox="0 0 147.4 229.8" enable-background="new 0 0 147.4 229.8" xml:space="preserve" width="147.4" height="229.8" preserveAspectRatio="none">
<g id="rope_placement">
</g>
<g id="Rope">
</g>
<g id="monster_1_arms_up_legs_down">
</g>
<g id="monster_1_arms_up_legs_up">
</g>
<g id="monster_1_arms_down_legs_down">
</g>
<g id="monster_1_arms_down_legs_up">
	<path fill="#A72430" d="M28,130.4c0,0-22.6-8.1-17.6-25.2c13.5-46.2,70-51.9,70-51.9l14.2,14.7c0,0-17.8,1-39.3,11
		c-28.9,13.5-29.7,29-29.7,29l7.3,14.3L28,130.4z"/>
	<g>
		<path fill="#A72430" d="M42,62.1c0.6,9.4,8.2,16.1,20.5,15.4c12.3-0.7,24.5-13.8,24-18.1c-0.5-4.2-11-16.4-23.3-15.7
			C50.9,44.5,41.4,52.7,42,62.1z"/>
	</g>
	<path fill="#BE1E2D" d="M121.2,130.7c0,0,22.6-8.1,17.6-25.2c-13.5-46.2-62.4-59.4-62.4-59.4L61.9,64.1c0,0,12.1,2.3,32.1,15.2
		c27.3,17.6,29.7,29,29.7,29l-7.3,14.3L121.2,130.7z"/>
	<path fill="#005D9F" d="M105.4,125.7c-0.4-3.2-0.1-3.2-0.1-6.4c4.5-1.5,6.6-3.1,6.6-3.1l10.8-6.6c0,0,5,6.1,5.2,11.6
		c0.2,5.6-2.3,10.9-2.3,10.9l-21-1C104.6,131.1,105.7,128.3,105.4,125.7z"/>
	<path fill="#27AAE1" d="M121.5,131.9l4.1,0.2c0,0,2.4-5.3,2.3-10.9c-0.2-5.6-5.2-11.6-5.2-11.6l-3.1,1.9c2,3.8,4.1,9.1,3.6,13.8
		C122.9,127.6,122.3,129.9,121.5,131.9z"/>
	<g>
		<g>
			<path fill="#BE1E2D" d="M93,52.4c-1.7,9.3-10.1,15-22.2,12.7c-12.1-2.3-22.6-16.8-21.6-20.9c1-4.1,12.9-15,25-12.7
				C86.3,33.8,94.7,43.2,93,52.4z"/>
			<path fill="#792A36" d="M82.7,56.2l-6.2-7.3l-11.7,2.6l-6.1-7l-9.7,0.6c0.1,0.7,0.3,1.7,0.8,2.7l8.4-1.5l6,7.5l12.4-3.4
				L82.7,56.2z"/>
			
				<ellipse transform="matrix(0.1827 -0.9832 0.9832 0.1827 24.0761 103.0775)" fill="#A72430" cx="74" cy="37.1" rx="1.5" ry="2.4"/>
			
				<ellipse transform="matrix(0.1831 -0.9831 0.9831 0.1831 25.9913 110.2384)" fill="#A72430" cx="79.3" cy="39.5" rx="0.9" ry="1.3"/>
			
				<ellipse transform="matrix(0.183 -0.9831 0.9831 0.183 20.1633 108.0828)" fill="#A72430" cx="75.1" cy="41.9" rx="0.9" ry="1.3"/>
		</g>
		<path fill="#530011" d="M61.6,73.5c0,0,2.8,1.7,4.7,5.5c1.9,3.9,0.8,11.6,0.8,11.6h3.6c0,0,0.3-7.2-1.7-11.3
			c-1.9-4.1-5.5-6.3-5.5-6.3L61.6,73.5z"/>
		<path fill="#530011" d="M87.5,73.5c0,0-2.8,1.7-4.7,5.5C80.9,82.8,82,90.6,82,90.6h-3.6c0,0-0.3-7.2,1.7-11.3
			c1.9-4.1,5.5-6.3,5.5-6.3L87.5,73.5z"/>
		<path fill="#BE1E2D" d="M47.6,171.2l-20.4,10.5L36,207l-10.5-3.3c0,0,5.7,8.5,12.1,8.3c6.5-0.2,6.6-2.2,6.6-2.2l-14.5-25.8
			c0,0,6.3,2.9,11.2,2.7c5-0.2,7.7-11,7.7-11L47.6,171.2z"/>
		<path fill="#BE1E2D" d="M59.7,180.1L45.3,198l18.4,19.5l-10.9,1.3c0,0,8.6,5.4,14.4,2.6c5.8-2.8,5.1-4.7,5.1-4.7L48.5,199
			c0,0,6.9,0.1,11.4-2.1c4.5-2.2,2.5-13.2,2.5-13.2L59.7,180.1z"/>
		<path fill="#BE1E2D" d="M101.9,171.2l20.4,10.5l-8.8,25.3l10.5-3.3c0,0-5.7,8.5-12.1,8.3c-6.5-0.2-6.6-2.2-6.6-2.2l14.5-25.8
			c0,0-6.3,2.9-11.2,2.7c-5-0.2-7.7-11-7.7-11L101.9,171.2z"/>
		<path fill="#BE1E2D" d="M89.8,180.1l14.3,17.9l-18.4,19.5l10.9,1.3c0,0-8.6,5.4-14.4,2.6c-5.8-2.8-5.1-4.7-5.1-4.7l23.8-17.6
			c0,0-6.9,0.1-11.4-2.1c-4.5-2.2-2.5-13.2-2.5-13.2L89.8,180.1z"/>
		<g>
			<path fill="#27AAE1" d="M47.5,160.1l-12.4,11c0,0,3.6,5.9,12.1,10.3c8.4,4.4,14.5,4.9,14.5,4.9l6.3-19.6L47.5,160.1z"/>
			<path fill="#27AAE1" d="M104.1,160.7l12.4,11c0,0-3,5.2-8.5,8.5c-5.5,3.3-18,6.8-18,6.8l-6.3-19.6L104.1,160.7z"/>
			<path fill="#FEBC23" d="M40.2,150.7c0,0-1.8,24.2,34.6,25.7c42.8,1.8,35.1-28.6,35.1-28.6L40.2,150.7z"/>
		</g>
		<path fill="#27AAE1" d="M98.1,171.3l7.4,14.8c0,0-4.7,3.7-11.1,4.7c-6.3,1-19.2-0.4-19.2-0.4l1.4-20.5L98.1,171.3z"/>
		<path fill="#27AAE1" d="M39.8,153.3c0,0-9.3,24.4,34.8,25.2c48.4,0.9,36.1-23.8,36.1-23.8L39.8,153.3z"/>
		<path fill="#BE1E2D" d="M39.6,118.9c0,0-4.6-35.9,34.1-36.9c40.8-1.1,35.2,40.5,35.2,40.5l-33.7,3.9L39.6,118.9z"/>
		<path fill="#005D9F" d="M39.3,113.4L39.1,131l-1.8,28.2c0,0,7.8,8.2,41.6,8.8c27.4,0.5,35.2-5.5,35.2-5.5l-4-29.4l2.1-16.9
			c0,0-10.9,7.8-37.8,6.3C48.4,120.9,39.3,113.4,39.3,113.4z"/>
		<path fill="#005D9F" d="M43.8,125.4c0.4-3.2,0.4-6.4,0.4-9.5c-4.5-2-6.7-2.8-6.7-2.8l-11-3.8c0,0-5,6.1-5.2,11.6
			c-0.2,5.6,2.3,10.9,2.3,10.9l21-1C44.6,130.7,43.5,128,43.8,125.4z"/>
		<path fill="#27AAE1" d="M26,124.8c-0.6-5,1.9-10.6,4-14.3l-3.4-1.2c0,0-5,6.1-5.2,11.6c-0.2,5.6,2.3,10.9,2.3,10.9l4.1-0.2
			C27,129.5,26.3,127.2,26,124.8z"/>
		<path fill="#27AAE1" d="M109.5,118.2l-0.3-1.5c0,0-8.1,6.2-34.1,5c-24.6-1.1-34.6-7.4-35.8-8.2c3.8,5,11.7,12.4,34.7,14.3
			C97.8,129.6,104.7,123.4,109.5,118.2z"/>
		<path fill="#27AAE1" d="M54.2,171.4l-7.4,14.8c0,0,4.7,3.7,11.1,4.7c6.3,1,19.2-0.4,19.2-0.4L75.7,170L54.2,171.4z"/>
		<g>
			<path fill="#27AAE1" d="M88.7,132.3l-1,11.9l-9.6-0.2l0.3-1.2c0-0.3,0.1-0.6,0.1-0.9c0-1.5-0.9-2.2-2.8-2.2c-2,0-3,1-2.8,3.1
				l0.3,4.5l0.1-0.1c1.4-0.9,3.3-1.3,5.7-1.3c5.5,0,8.3,2,8.3,6.1v3.5c0,2.6-0.7,4.3-2.1,5.3c-1.5,1.1-4.2,1.6-8.2,1.7h-0.5
				c-4,0-6.8-0.5-8.4-1.7c-1.7-1.1-2.5-3-2.6-5.6l-0.5-15.3c-0.1-2.5,0.5-4.3,1.7-5.5c1.2-1.2,3.3-1.8,6.1-1.8c1.9,0,3,0,3.3,0
				c1.1,0.1,2,0.4,2.8,1V132L88.7,132.3z M79.3,154.1v-2.2c0-0.9-0.2-1.6-0.5-1.9c-0.4-0.6-1.3-0.8-2.5-0.8c-1.3,0-2.1,0.3-2.5,0.8
				c-0.3,0.4-0.5,1-0.5,1.9v2.2c0,0.9,0.1,1.6,0.4,2c0.4,0.5,1.3,0.8,2.6,0.8c1.3,0,2.1-0.3,2.5-0.8C79.1,155.6,79.3,155,79.3,154.1
				z"/>
		</g>
		<circle fill="#530011" cx="59.5" cy="67.8" r="10.2"/>
		<circle fill="#530011" cx="90.8" cy="67.4" r="10.2"/>
		<circle fill="#792A36" cx="54.9" cy="101.2" r="3.4"/>
		<circle fill="#A72430" cx="64.3" cy="110.2" r="2.3"/>
		<circle fill="#A72430" cx="68.8" cy="92.2" r="1.7"/>
		<circle fill="#792A36" cx="88.9" cy="109.8" r="3"/>
		<circle fill="#A72430" cx="94.5" cy="98.7" r="1.8"/>
	</g>
</g>
<g id="monster_1_arms_up_legs_down_copy">
</g>
<g id="bell_idle">
</g>
<g id="bell_pull_1">
</g>
<g id="bell_pull_2">
</g>
</svg>
