<?xml version="1.0" encoding="utf-8"?>
<!-- Generator: Adobe Illustrator 21.1.0, SVG Export Plug-In . SVG Version: 6.00 Build 0)  -->
<svg version="1.1" xmlns="http://www.w3.org/2000/svg" xmlns:xlink="http://www.w3.org/1999/xlink" x="0px" y="0px"
	 viewBox="0 0 94 150" style="enable-background:new 0 0 94 150;" xml:space="preserve" width="94" height="150" preserveAspectRatio="none">
<style type="text/css">
	.st0{fill:#262626;}
	.st1{fill:#CCCCCC;}
	.st2{fill:#FBB03B;}
	.st3{fill:#FCEE21;}
	.st4{fill:#E4EDEC;}
	.st5{fill:#A4BDB9;}
	.st6{fill:none;stroke:#64807C;stroke-width:2;stroke-miterlimit:10;}
	.st7{fill:none;stroke:#64807C;stroke-miterlimit:10;}
	.st8{fill:#B3B3B3;}
	.st9{fill:#808080;}
	.st10{fill:#999999;}
	.st11{fill:#64807C;}
	.st12{fill:#138C54;stroke:#006837;stroke-miterlimit:10;}
	.st13{fill:url(#SVGID_1_);stroke:#75141C;stroke-miterlimit:10;}
	.st14{fill:#FFFBBA;stroke:#FBEE3B;stroke-width:3;stroke-linejoin:round;stroke-miterlimit:10;}
	.st15{fill:none;stroke:#64807C;stroke-width:1.8605;stroke-miterlimit:10;}
	.st16{fill:none;stroke:#FBDB4E;stroke-width:1.8605;stroke-miterlimit:10;}
	.st17{fill:url(#SVGID_2_);}
	.st18{fill:#EBEBEB;}
	.st19{fill:none;stroke:#FBDB4E;stroke-width:2;stroke-miterlimit:10;}
	.st20{fill:url(#SVGID_3_);}
	.st21{fill:url(#SVGID_4_);}
	.st22{fill:#FFFBBA;stroke:#FBEE3B;stroke-width:2.6496;stroke-linejoin:round;stroke-miterlimit:10;}
	.st23{fill:url(#SVGID_5_);}
	.st24{fill:url(#SVGID_6_);}
	.st25{fill:url(#SVGID_7_);}
	.st26{fill:#FFFBBA;stroke:#FBEE3B;stroke-width:2.2086;stroke-linejoin:round;stroke-miterlimit:10;}
	.st27{fill:none;stroke:#64807C;stroke-width:1.3697;stroke-miterlimit:10;}
	.st28{fill:none;stroke:#FBDB4E;stroke-width:1.3697;stroke-miterlimit:10;}
	.st29{fill:url(#SVGID_8_);}
	.st30{fill:#FFFBBA;stroke:#FBEE3B;stroke-width:2.2319;stroke-linejoin:round;stroke-miterlimit:10;}
	.st31{fill:none;stroke:#64807C;stroke-width:1.4724;stroke-miterlimit:10;}
	.st32{fill:none;stroke:#FBDB4E;stroke-width:1.4724;stroke-miterlimit:10;}
	.st33{fill:url(#SVGID_9_);}
	.st34{fill:#FFFBBA;}
	.st35{fill:#FBEE3B;}
	.st36{fill:url(#SVGID_10_);}
	.st37{fill:#FFFBBA;stroke:#FBEE3B;stroke-width:1.9506;stroke-linejoin:round;stroke-miterlimit:10;}
	.st38{fill:url(#SVGID_11_);}
	.st39{fill:url(#SVGID_12_);}
	.st40{fill:url(#SVGID_13_);}
	.st41{fill:#FFFBBA;stroke:#FBEE3B;stroke-width:1.7134;stroke-linejoin:round;stroke-miterlimit:10;}
	.st42{fill:url(#SVGID_14_);}
	.st43{fill:url(#SVGID_15_);stroke:#006837;stroke-width:0.3815;stroke-miterlimit:10;}
	.st44{fill:#B83B3B;stroke:#75141C;stroke-width:0.3815;stroke-miterlimit:10;}
	.st45{fill:#CCCCCC;stroke:#616161;stroke-width:0.75;stroke-miterlimit:10;}
	.st46{fill:url(#SVGID_16_);stroke:#006837;stroke-width:0.75;stroke-miterlimit:10;}
	.st47{fill:#B83B3B;stroke:#75141C;stroke-width:0.75;stroke-miterlimit:10;}
	.st48{fill:url(#SVGID_17_);stroke:#006837;stroke-width:0.3815;stroke-miterlimit:10;}
	.st49{fill:url(#SVGID_18_);stroke:#006837;stroke-width:0.3815;stroke-miterlimit:10;}
	.st50{fill:url(#SVGID_19_);stroke:#006837;stroke-width:0.3815;stroke-miterlimit:10;}
	.st51{fill:url(#SVGID_20_);stroke:#006837;stroke-width:0.3815;stroke-miterlimit:10;}
	.st52{fill:url(#SVGID_21_);}
	.st53{fill:url(#SVGID_22_);}
	.st54{fill:url(#SVGID_23_);}
	.st55{fill:url(#SVGID_24_);}
	.st56{fill:url(#SVGID_25_);}
	.st57{fill:url(#SVGID_26_);}
	.st58{fill:url(#SVGID_27_);}
	.st59{fill:#FFFFFF;}
	.st60{fill:#CCCCCC;stroke:#515559;stroke-width:1.5;stroke-miterlimit:10;}
	.st61{fill:#9EA4A6;}
	.st62{fill:url(#SVGID_28_);}
	.st63{fill:url(#SVGID_29_);stroke:#006837;stroke-miterlimit:10;}
	.st64{fill:#B83B3B;stroke:#75141C;stroke-miterlimit:10;}
	.st65{fill:#9E9E9E;}
	.st66{fill:#6A6B70;}
	.st67{fill:#68979E;}
	.st68{fill:#A6BEC4;}
	.st69{fill:none;stroke:#64807C;stroke-width:1.75;stroke-miterlimit:10;}
	.st70{fill:none;stroke:#828996;stroke-width:1.5865;stroke-miterlimit:10;}
	.st71{fill:none;stroke:#64807C;stroke-width:0.5876;stroke-miterlimit:10;}
	.st72{fill:none;stroke:#828996;stroke-width:0.5326;stroke-miterlimit:10;}
	.st73{fill:#73989E;}
	.st74{fill:#8C8C8C;}
	.st75{fill:#FBD13B;}
	.st76{fill:none;stroke:#FBDB4E;stroke-width:1.5865;stroke-miterlimit:10;}
	.st77{fill:url(#SVGID_30_);}
	.st78{fill:none;stroke:#FBDB4E;stroke-width:0.5326;stroke-miterlimit:10;}
	.st79{fill:url(#SVGID_31_);}
	.st80{fill:#FFFBBA;stroke:#FBD13B;stroke-width:1.8855;stroke-linejoin:round;stroke-miterlimit:10;}
	.st81{fill:url(#SVGID_32_);}
	.st82{fill:url(#SVGID_33_);}
	.st83{fill:#4D4D4D;}
	.st84{fill:url(#SVGID_34_);stroke:#006837;stroke-width:1.1789;stroke-miterlimit:10;}
	.st85{fill:#B83B3B;stroke:#75141C;stroke-width:1.1789;stroke-miterlimit:10;}
	.st86{opacity:0.22;}
	.st87{fill:#499C34;stroke:#006837;stroke-width:1.1789;stroke-miterlimit:10;}
	.st88{fill:url(#SVGID_35_);stroke:#75141C;stroke-width:1.1789;stroke-miterlimit:10;}
	.st89{fill:url(#SVGID_36_);stroke:#75141C;stroke-width:1.1789;stroke-miterlimit:10;}
	.st90{fill:url(#SVGID_37_);}
	.st91{fill:url(#SVGID_38_);}
	.st92{fill:url(#SVGID_39_);}
	.st93{fill:#006837;}
	.st94{fill:#B83B3B;}
	.st95{fill:#75141C;}
	.st96{fill:url(#SVGID_40_);stroke:#75141C;stroke-width:1.1789;stroke-miterlimit:10;}
	.st97{fill:#499C34;}
	.st98{fill:url(#SVGID_41_);}
	.st99{fill:url(#SVGID_42_);stroke:#006837;stroke-width:1.1789;stroke-miterlimit:10;}
	.st100{fill:url(#SVGID_43_);}
	.st101{fill:url(#SVGID_44_);}
	.st102{fill:url(#SVGID_45_);}
	.st103{fill:url(#SVGID_46_);stroke:#75141C;stroke-width:1.1789;stroke-miterlimit:10;}
	.st104{fill:#CC6658;}
	.st105{fill:#7B9E9C;}
	.st106{fill:#A5C7C1;}
	.st107{fill:#948F8E;}
	.st108{fill:#656570;}
	.st109{fill:#94453F;}
	.st110{fill:#E08A77;}
	.st111{fill:none;stroke:#FFFF05;stroke-width:0.75;stroke-miterlimit:10;}
	.st112{fill:url(#SVGID_47_);}
	.st113{fill:url(#SVGID_48_);}
	.st114{fill:url(#SVGID_49_);}
	.st115{fill:url(#SVGID_50_);}
	.st116{fill:url(#SVGID_51_);}
	.st117{fill:#A6BEC4;stroke:#E4EDEC;stroke-miterlimit:10;}
	.st118{fill:url(#SVGID_52_);}
	.st119{fill:url(#SVGID_53_);}
	.st120{fill:url(#SVGID_54_);}
	.st121{fill:url(#SVGID_55_);}
	.st122{fill:#499C34;stroke:#006837;stroke-miterlimit:10;}
	.st123{fill:url(#SVGID_56_);stroke:#75141C;stroke-miterlimit:10;}
</style>
<g id="Layer_1">
	<g>
		<g>
			<path class="st34" d="M61,123.6H33c-7.7,0-22.8-85.5-22.8-85.5c0-7.1,6.3-10.9,14-10.9h45.6c7.7,0,14,3.8,14,10.9
				C83.8,38,68.7,123.6,61,123.6z"/>
			<path class="st75" d="M61,124.7H33c-1.7,0-4-1.7-7.9-14.1c-2.2-7.1-4.7-17-7.5-29.5c-4.7-21.2-8.5-42.6-8.5-42.8
				c0-0.1,0-0.1,0-0.2c0-7.2,6.1-12,15.1-12h45.6c9,0,15.1,4.8,15.1,12c0,0.1,0,0.1,0,0.2c0,0.2-3.8,21.7-8.5,42.8
				C66.7,124.7,62.8,124.7,61,124.7z M11.3,37.9c0.3,1.6,3.9,22,8.4,42.3c8.8,39.8,12.6,42.2,13.3,42.2h28
				c0.7-0.1,4.5-2.5,13.3-42.3c4.5-20.3,8.1-40.7,8.4-42.3c-0.1-7.2-7-9.7-12.9-9.7H24.2C18.3,28.2,11.4,30.8,11.3,37.9z"/>
			<polyline class="st69" points="39.7,122.8 41.9,113 30.7,71 			"/>
			<polyline class="st69" points="55.2,122.3 52.6,108.2 65.2,71 			"/>
			<polyline class="st76" points="30.9,71.8 34.3,61.1 43.8,71.6 48.3,49.6 56,69.8 62.6,62.5 65.2,71.7 			"/>
			<circle class="st11" cx="65.1" cy="71.3" r="2.1"/>
			<circle class="st11" cx="31.1" cy="71.4" r="2.1"/>
			<path class="st8" d="M28.5,119.4l36.2,2.1L62.9,150c0,0-23.7,0-30.9,0C32.2,149,28.5,119.4,28.5,119.4z"/>
			<polygon class="st18" points="60.3,148.6 54.1,148.7 53.4,123.3 62.1,123.3 			"/>
			<polygon class="st9" points="31.5,123.1 36,123.2 37.3,149.2 34.4,149.1 			"/>
		</g>
		<g>
			<radialGradient id="SVGID_1_" cx="47.5473" cy="65.1579" r="39.8163" gradientUnits="userSpaceOnUse">
				<stop  offset="0" style="stop-color:#FFFFFF"/>
				<stop  offset="1" style="stop-color:#FFFFFF;stop-opacity:0"/>
			</radialGradient>
			<ellipse style="fill:url(#SVGID_1_);" cx="47.5" cy="65.2" rx="30.2" ry="31.6"/>
		</g>
	</g>
</g>
<g id="Layer_2">
</g>
</svg>
