<?xml version="1.0" encoding="utf-8"?>
<!-- Generator: Adobe Illustrator 19.2.0, SVG Export Plug-In . SVG Version: 6.00 Build 0)  -->
<svg version="1.1" xmlns="http://www.w3.org/2000/svg" xmlns:xlink="http://www.w3.org/1999/xlink" x="0px" y="0px"
	 viewBox="0 0 18 32" enable-background="new 0 0 18 32" xml:space="preserve" width="18" height="32" preserveAspectRatio="none">
<g id="Band_Aids">
	<g>
		<path fill="#C381E3" d="M7.2,31.1C3.1,31.8,0.5,29.9,1,26L3.5,4.7C3.9,2.2,5,0.3,8,0.8c3.3,0.5,6.5,1.8,6.8,1.9
			c2,1.1,2.4,2.8,2.1,5.8c0,0-1.7,14.8-2.5,17.8c-0.3,1-0.6,1.9-1,2.3C11.9,30.5,9.6,30.7,7.2,31.1z"/>
		<g>
			<path fill="#E49EFF" d="M15,19.1l0.7-6.8c0-0.2,0-0.3-0.1-0.4l-0.5,0.5c0.1,0.1,0.1,0.3,0.1,0.4l-0.6,5.9c0,0.2-0.1,0.3-0.2,0.4
				l0.3,0.5C14.9,19.4,15,19.2,15,19.1z"/>
			<path fill="#B865E0" d="M4,18.3L4.5,11c0-0.2,0.1-0.4,0.3-0.5L4.2,9.7C4,9.8,3.9,10,3.9,10.3l-0.6,8.6c0,0.2,0.1,0.4,0.3,0.6
				l0.6-0.7C4,18.6,3.9,18.4,4,18.3z"/>
			<path fill="#A15FC2" d="M14.4,19c-0.1,0.1-0.2,0.1-0.4,0.1l-9.4-0.2c-0.2,0-0.4-0.1-0.6-0.2l-0.6,0.7c0.2,0.1,0.4,0.2,0.6,0.2
				l10.2,0.1c0.2,0,0.3-0.1,0.4-0.2L14.4,19z"/>
			<path fill="#F1BDFF" d="M5.3,10.4l9.4,1.6c0.2,0,0.3,0.1,0.4,0.2l0.5-0.5c-0.1-0.2-0.2-0.3-0.4-0.3L4.8,9.6c-0.2,0-0.4,0-0.6,0.1
				l0.5,0.8C4.9,10.4,5.1,10.4,5.3,10.4z"/>
			<path fill="#D692F7" d="M14.8,12l-9.4-1.6c-0.4-0.1-0.8,0.2-0.8,0.6L4,18.3c0,0.4,0.3,0.7,0.7,0.7l9.4,0.2c0.3,0,0.6-0.2,0.6-0.5
				l0.6-5.9C15.3,12.4,15,12.1,14.8,12z"/>
		</g>
	</g>
</g>
<g id="Rote_Screen_FG">
</g>
<g id="Labels">
</g>
</svg>
