<?xml version="1.0" encoding="utf-8"?>
<!-- Generator: Adobe Illustrator 19.2.0, SVG Export Plug-In . SVG Version: 6.00 Build 0)  -->
<!DOCTYPE svg PUBLIC "-//W3C//DTD SVG 1.1//EN" "http://www.w3.org/Graphics/SVG/1.1/DTD/svg11.dtd">
<svg version="1.1" xmlns="http://www.w3.org/2000/svg" xmlns:xlink="http://www.w3.org/1999/xlink" x="0px" y="0px"
	 viewBox="0 0 263.8 198.8" enable-background="new 0 0 263.8 198.8" xml:space="preserve" width="263.8" height="198.8" preserveAspectRatio="none">
<g id="BG">
</g>
<g id="Track_and_Infield">
</g>
<g id="Soccer_Ball">
</g>
<g id="White_Frame_Drop_Shadow">
</g>
<g id="White_Frame_BG">
</g>
<g id="Submit_Button">
</g>
<g id="Left_Tool_Bar_Tab">
</g>
<g id="Right_Info_Tab">
</g>
<g id="Top_Tab">
</g>
<g id="Left_Tools">
</g>
<g id="Water_Bottle_Gym_Bag">
	<g>
		<g>
			<path opacity="0.3" fill="#231F20" d="M241.7,109.8C216.2,99.7,99.3,90,96.9,89.6c-2.4-0.4-60.3,8.9-60.3,8.9l7.3,24.7
				c0,0,22.7,9.7,36.8,9.3c1.2,0,2.5-0.1,4-0.2c5,4.1,15.8,12.6,30.5,17.8c17.6,6.2,61.6-1.6,74.8-5.5c24.6,3.9,51.1,5,61.5,2
				C267.2,142.2,267.2,119.9,241.7,109.8z M132.9,142.7c-12.9-2.3-21.7-8.1-26.1-11.8c15-0.6,33,0,48.7,5.7
				c3.9,1.4,8.4,2.7,13.2,3.9C161.1,142.3,146.5,145.1,132.9,142.7z"/>
			<g>
				<path fill="#0D56A7" d="M100.8,28c0,0,5.1-4.1,12.3-1.6c7.3,2.5,11.4,11.1,11.4,11.1L100.8,28z"/>
				<path fill="#0D56A7" d="M194.5,38.6c0,0-4.4-4.8-12-3.3c-7.6,1.5-12.8,9.3-12.8,9.3L194.5,38.6z"/>
				<path fill="#FEC91B" d="M49.9,117.8c-11.6-2.1-18-8.5-12.7-41.2c5.3-32.8,30.6-58.1,43.3-57.1c12.7,1.1,55,24.3,76.1,23.2
					c21.1-1.1,43.3-11.6,58.1-10.6c14.8,1.1,26.4,18,31.7,31.7c5.3,13.7,10.6,44.4,6.3,53.9c-4.2,9.5-1.1,10.6-19,13.7
					c-18,3.2-78.2-8.5-100.4-10.6C111.2,118.8,61.5,119.9,49.9,117.8z"/>
				<path fill="#E39325" d="M75.9,22c0,0-5.4,2.8-8.2,6.3c-2.8,3.5-2.5,8.2-2.5,8.2s9.3,2.1,31.9,10.4c12.6,4.7,35.9,18.3,62,19.3
					c50.7,1.9,64.4-16,64.4-16s-0.7-3.5-2.4-7.1c-2.8-6-7.6-7.6-7.6-7.6s-25.7,10.8-49,11.4c-20.1,0.5-37-6.6-49.6-12.3
					C82.9,20.3,75.9,22,75.9,22z"/>
				<path fill="#013169" d="M161.5,58.5c-3.9,0-7.7-0.3-11.5-0.9c-10.7-1.7-26.3-7.9-41.3-13.9c-12.3-4.9-24-9.5-32.4-11.6
					c-1.5-0.4-2.4-1.9-2.1-3.4c0.4-1.5,1.9-2.4,3.4-2.1c8.8,2.1,20.6,6.8,33.2,11.8c14.8,5.9,30,12,40.1,13.6
					c26.7,4.3,60.3-10.3,60.6-10.4c1.4-0.6,3.1,0,3.7,1.4c0.6,1.4,0,3.1-1.4,3.7C212.5,47.3,186.8,58.5,161.5,58.5z"/>
				<path fill="#001445" d="M159.9,58.5c-1,0-2-0.1-2.9-0.1l0.3-5.6c0.9,0,1.8,0.1,2.7,0.1L159.9,58.5z M164.3,58.4l-0.2-5.6
					c0.9,0,1.8-0.1,2.7-0.1l0.4,5.6C166.2,58.3,165.2,58.4,164.3,58.4z M152.6,58c-0.9-0.1-1.8-0.2-2.6-0.4l-0.3-0.1l0.9-5.6l0.3,0
					c0.8,0.1,1.6,0.2,2.4,0.3L152.6,58z M171.5,57.9l-0.6-5.6c0.9-0.1,1.8-0.2,2.7-0.3l0.7,5.6C173.4,57.7,172.5,57.8,171.5,57.9z
					 M178.7,57l-0.9-5.6c0.9-0.2,1.8-0.3,2.7-0.5l1,5.5C180.6,56.6,179.6,56.8,178.7,57z M145.3,56.7c-0.9-0.2-1.9-0.5-2.8-0.7
					l1.5-5.4c0.9,0.2,1.8,0.5,2.6,0.7L145.3,56.7z M185.7,55.6l-1.2-5.5c0.9-0.2,1.8-0.4,2.7-0.6l1.3,5.5
					C187.6,55.2,186.7,55.4,185.7,55.6z M138.4,54.7c-0.9-0.3-1.8-0.6-2.7-0.9l1.8-5.4c0.9,0.3,1.8,0.6,2.6,0.8L138.4,54.7z
					 M192.7,53.9l-1.5-5.4c0.9-0.2,1.8-0.5,2.7-0.7l1.5,5.4C194.6,53.4,193.6,53.6,192.7,53.9z M131.6,52.5c-0.9-0.3-1.8-0.6-2.7-1
					l1.9-5.3c0.9,0.3,1.8,0.6,2.6,0.9L131.6,52.5z M199.6,51.9l-1.7-5.4c0.9-0.3,1.8-0.6,2.6-0.8l1.8,5.4
					C201.4,51.3,200.5,51.6,199.6,51.9z M124.9,50.1c-0.9-0.3-1.8-0.7-2.7-1l2-5.3c0.9,0.3,1.8,0.7,2.6,1L124.9,50.1z M206.4,49.6
					l-1.9-5.3c1-0.3,1.8-0.7,2.6-1l2,5.3C208.3,48.9,207.4,49.3,206.4,49.6z M118.3,47.5l-2.6-1l2.1-5.2l2.6,1L118.3,47.5z
					 M213.1,47l-2.2-5.2c0.3-0.1,0.5-0.2,0.5-0.2l2.3,5.2C213.7,46.8,213.5,46.9,213.1,47z M111.7,44.9l-2.6-1l2.1-5.2l2.6,1
					L111.7,44.9z M105.1,42.3l-2.6-1l2.1-5.2l2.6,1L105.1,42.3z M98.6,39.7c-0.9-0.3-1.8-0.7-2.6-1l2-5.3c0.9,0.3,1.8,0.7,2.6,1
					L98.6,39.7z M92,37.2c-0.9-0.3-1.8-0.7-2.6-1l1.9-5.3c0.9,0.3,1.8,0.6,2.7,1L92,37.2z M85.5,34.9c-0.9-0.3-1.8-0.6-2.6-0.9
					l1.7-5.4c0.9,0.3,1.8,0.6,2.7,0.9L85.5,34.9z M78.9,32.8c-0.9-0.3-1.8-0.5-2.6-0.7l1.3-5.5c0.9,0.2,1.8,0.5,2.8,0.7L78.9,32.8z"
					/>
				<path fill="#013169" d="M215.2,44.6l-4.1,0.7l-3,16.4l0.6,0.8h7.2L215.2,44.6z M214.4,59.7H211l0.5-3.4h2.7L214.4,59.7z"/>
				<path fill="#001445" d="M214.7,43.8l-4.1,0.7l-2.4,17.2h7.2L214.7,43.8z M213.8,59h-3.4l0.5-3.4h2.7L213.8,59z"/>
				<path fill="#E39325" d="M234.8,88.2c-3.2-12.7,1.1-29.6,1.1-29.6s-6.3,3.2-10.6,19c-4.2,15.9,0.9,35.9,0.9,35.9
					s-10.6,3.7-24.4,3.7c-13.7,0-44.5-11.3-67.4-9c-22.5,2.2-64.9,7.2-87.1-6.6C38,96,35.9,85.9,35.9,85.9s-7.5,29.5,14.8,33
					c11.7,1.9,60.5-0.1,82.7,2c22.2,2.1,82.4,13.7,100.4,10.6c18-3.2,14.8-4.2,19-13.7c1.8-4,1.9-11.6,1-20.2l-5.2,11.8
					C248.6,109.3,238,100.8,234.8,88.2z"/>
				<path fill="#E39325" d="M205.6,121c0,0,9.8-3.4,14.9-8.1c5.1-4.7,9.8-26.7,9.8-26.7l-3.4,40.3L205.6,121z"/>
				<path fill="#0D56A7" d="M105.6,50.1l-13-7c0,0-17,19.1-21.6,40.3c-2.3,10.5-0.4,26.8,1.4,36.8c5.7,0.1,12,0.2,18.4,0.3
					c-2.7-9.1-5.7-23.8-3.6-34C90.8,69.7,105.6,50.1,105.6,50.1z"/>
				<path fill="#0D56A7" d="M206.2,132c3.3-9.6,7.7-26,7-37.2c-1.4-21.6-13-36.5-13-36.5l-13.6,2.9c0,0,9.2,17.1,10.1,34.3
					c0.6,10.8-4.9,25.6-9,34.2C194.1,130.6,200.3,131.4,206.2,132z"/>
				<path fill="#E39325" d="M94,46c0,0-9.5,62.5,37.5,71.1c51.8,9.5,69.2-58.1,69.2-58.1l-12.5,3.4c0,0-30.3,48.7-60,38.6
					c-23.1-7.9-23.8-50.9-23.8-50.9L94,46z"/>
				<path fill="#093E7D" d="M200.7,59l-12.5,3.4c0,0-0.2,0.3-0.6,0.9c1.4,2.8,3.7,8.2,5.7,14.7C198.4,67.8,200.6,59.5,200.7,59
					C200.7,59,200.7,59,200.7,59z"/>
				<path fill="#007ABF" d="M92.6,43.2c0,0-11.7,59.4,35.1,68.9s72.5-53.8,72.5-53.8l-13.4,1.3c0,0-30.3,48.7-60,38.6
					c-23.1-7.9-20.5-49.6-20.5-49.6L92.6,43.2z"/>
			</g>
		</g>
		<g>
			<path opacity="0.3" fill="#231F20" d="M87.8,180c-0.3-3.4-20.5-20.4-20.5-20.4l2.4-5.3l-18.6-23.7h-45c0,0-1.2,0.1-2.3,0.5
				s-2,1.2-1.4,2.6c1.2,2.8,19.8,29.5,19.8,29.5l8.1,2.4c0,0,8.3,20.4,11.6,22.4c1,0.6,5.7,0.4,11.7-0.3l1.8,4.4
				c0,0,1.1,0.2,8.3-0.3c0.5,0,0.9-0.1,1.4-0.1l1.3,1.7l-2.2,0.4l1.5,3.2l16.2-4l-1.8-2.7l-1.4,0.5l-1.6-2.2c2.8-1,4.8-1.8,4.8-1.8
				l-2.8-3.5C84.4,182.2,87.9,180.9,87.8,180z"/>
			<g>
				<g>
					<path fill="#70CCDB" d="M47.9,67.9c0-2.1,3.3-25.8,3.3-36.5c0-2.6-2-5.1-4.6-5.4c-11.9-1.4-23.9-1.4-35.8,0
						c-2.5,0.3-4.6,2.8-4.6,5.4c0,10.7,2.9,34,2.9,36c0,2-2.2,4.9-2.9,9.4c0,19.5,0,34.3,0,53.8c0,2.6,2.1,4.7,4.6,5.4
						c12,3.6,24.1,3.3,35.8,0c2.5-0.7,4.6-2.8,4.6-5.4c0-19.5,0-35.8,0-55.2C49.9,71.5,47.9,70,47.9,67.9z"/>
				</g>
				<g>
					<path fill="#0098B5" d="M46.1,30.3c-10.7,2.7-23.1,2.9-34.8,0c0-5.4,0-10.8,0-16.2c11.7-2.9,24.2-2.9,34.8,0
						C46.1,19.5,46.1,24.9,46.1,30.3z"/>
				</g>
				<g>
					<path fill="#B0DFDE" d="M9.8,38.6c3.2,0.5,6.3,0.9,9.5,1.2c1.6,0.1,3.2,0.3,4.7,0.3c1.6,0.1,3.2,0.1,4.7,0.1
						c3.2,0,6.3-0.1,9.5-0.4c3.2-0.3,6.3-0.7,9.4-1.5c-1.5,0.7-3,1.2-4.6,1.7c-1.6,0.4-3.1,0.8-4.7,1c-3.2,0.5-6.4,0.8-9.6,0.8
						c-1.6,0-3.2-0.1-4.8-0.2c-1.6-0.1-3.2-0.3-4.8-0.6C16,40.5,12.8,39.7,9.8,38.6z"/>
					<path fill="#B0DFDE" d="M10.2,42.1c3.1,0.5,6.2,0.9,9.3,1.2c1.6,0.1,3.1,0.3,4.6,0.3c1.5,0.1,3.1,0.1,4.6,0.1
						c3.1,0,6.2-0.1,9.3-0.4c3.1-0.3,6.2-0.7,9.2-1.5c-1.4,0.7-2.9,1.2-4.5,1.7c-1.5,0.4-3.1,0.8-4.6,1c-3.1,0.5-6.3,0.8-9.4,0.8
						c-1.6,0-3.2-0.1-4.7-0.2c-1.6-0.1-3.1-0.3-4.7-0.6C16.2,44,13.1,43.3,10.2,42.1z"/>
					<path fill="#B0DFDE" d="M10.6,45.7c3,0.5,6.1,0.9,9.1,1.2c1.5,0.1,3,0.3,4.5,0.3c1.5,0.1,3,0.1,4.5,0.1c3,0,6.1-0.1,9.1-0.4
						c3-0.3,6-0.7,9-1.5c-1.4,0.7-2.9,1.2-4.3,1.7c-1.5,0.4-3,0.8-4.5,1c-3.1,0.5-6.2,0.8-9.2,0.8c-1.5,0-3.1-0.1-4.6-0.2
						c-1.5-0.1-3.1-0.3-4.6-0.6C16.5,47.5,13.5,46.8,10.6,45.7z"/>
					<path fill="#B0DFDE" d="M11,49.2c3,0.5,5.9,0.9,8.9,1.2c1.5,0.1,3,0.3,4.4,0.3c1.5,0.1,3,0.1,4.4,0.1c3,0,5.9-0.1,8.9-0.4
						c3-0.3,5.9-0.7,8.8-1.5c-1.4,0.7-2.8,1.2-4.2,1.7c-1.5,0.4-2.9,0.8-4.4,1c-3,0.5-6,0.8-9.1,0.8c-1.5,0-3-0.1-4.5-0.2
						c-1.5-0.2-3-0.3-4.5-0.6C16.7,51.1,13.8,50.4,11,49.2z"/>
					<path fill="#B0DFDE" d="M11.4,52.7c2.9,0.5,5.8,0.9,8.7,1.2c1.5,0.1,2.9,0.3,4.3,0.3c1.4,0.1,2.9,0.1,4.3,0.1
						c2.9,0,5.8-0.1,8.7-0.4c2.9-0.3,5.8-0.7,8.6-1.5c-1.3,0.7-2.7,1.2-4.1,1.7c-1.4,0.4-2.9,0.8-4.3,1c-2.9,0.5-5.9,0.8-8.9,0.8
						c-1.5,0-3-0.1-4.4-0.2c-1.5-0.2-2.9-0.3-4.4-0.6C17,54.6,14.1,53.9,11.4,52.7z"/>
					<path fill="#B0DFDE" d="M11.8,56.3c2.8,0.5,5.7,0.9,8.5,1.2c1.4,0.1,2.8,0.3,4.2,0.3c1.4,0.1,2.8,0.1,4.2,0.1
						c2.8,0,5.7-0.1,8.5-0.4c2.8-0.3,5.6-0.7,8.4-1.5c-1.3,0.7-2.7,1.2-4,1.7c-1.4,0.4-2.8,0.8-4.2,1.1c-2.9,0.5-5.8,0.8-8.7,0.8
						c-1.4,0-2.9-0.1-4.3-0.2c-1.4-0.2-2.9-0.3-4.3-0.6C17.3,58.2,14.4,57.4,11.8,56.3z"/>
					<path fill="#B0DFDE" d="M12.2,59.8c2.8,0.5,5.5,0.9,8.3,1.2c1.4,0.1,2.8,0.3,4.1,0.3c1.4,0.1,2.8,0.1,4.1,0.1
						c2.8,0,5.5-0.1,8.3-0.4c2.8-0.3,5.5-0.7,8.2-1.5c-1.2,0.7-2.6,1.2-3.9,1.7c-1.4,0.4-2.7,0.8-4.1,1c-2.8,0.5-5.6,0.8-8.5,0.8
						c-1.4,0-2.8-0.1-4.2-0.2c-1.4-0.2-2.8-0.3-4.2-0.6C17.5,61.7,14.8,61,12.2,59.8z"/>
					<path fill="#B0DFDE" d="M12.6,63.3c2.7,0.5,5.4,0.9,8.1,1.2c1.4,0.1,2.7,0.3,4,0.3c1.3,0.1,2.7,0.1,4.1,0.1
						c2.7,0,5.4-0.1,8.1-0.4c2.7-0.3,5.4-0.7,8-1.5c-1.2,0.7-2.5,1.2-3.8,1.6c-1.3,0.4-2.7,0.8-4,1.1c-2.7,0.5-5.5,0.8-8.3,0.8
						c-1.4,0-2.8-0.1-4.1-0.2c-1.4-0.2-2.7-0.3-4.1-0.6C17.8,65.2,15.1,64.5,12.6,63.3z"/>
				</g>
				<g>
					<path fill="#007990" d="M28.2,18.6c15.2,0,17.9-3.9,17.9-4.3c-0.1-0.1-0.1-0.2-0.2-0.2c-10.6-2.9-23-2.8-34.6,0.1
						C11.3,14.8,14.2,18.6,28.2,18.6z"/>
				</g>
				<g>
					<path fill="#007990" d="M35.7,14.3c-4.7,1.1-9.8,1.1-14.5,0c0-3.6,0-7.1,0-10.7c4.7-1.1,9.8-1.1,14.5,0
						C35.7,7.2,35.7,10.8,35.7,14.3z"/>
				</g>
				<g>
					<path fill="#0098B5" d="M37.2,5.5c0,1.3-3.9,2.8-8.8,2.8s-8.8-1.5-8.8-2.8c0-1.3,3.9-2.4,8.8-2.4S37.2,4.2,37.2,5.5z"/>
				</g>
				<g>
					<polygon fill="#0098B5" points="37.3,5.6 19.7,5.6 19.7,3.9 37.2,3.9 					"/>
				</g>
				<g>
					<ellipse fill="#007990" cx="28.5" cy="3.9" rx="8.8" ry="2.4"/>
				</g>
				<g>
					<ellipse fill="#005566" cx="28.6" cy="3.9" rx="4.4" ry="0.8"/>
				</g>
				<g>
					<ellipse fill="#B0DFDE" cx="27.9" cy="80.8" rx="17.4" ry="4.5"/>
				</g>
				<g>
					<path fill="#B0DFDE" d="M14.5,81.8v45.5c0,0,7.5,3.4,17.1,3.7c9.5,0.3,16.1-2.4,16.1-2.4s-2,4.5-15.3,4.5s-19.1-1.8-21.3-2.9
						c-2.3-1.1-0.5-49.4-0.5-49.4L14.5,81.8z"/>
				</g>
				<g>
					<polygon fill="#B0DFDE" points="17.5,82.9 17.5,124.1 26.3,83.2 					"/>
				</g>
				<g>
					<ellipse fill="#B0DFDE" cx="29.1" cy="95.2" rx="2.3" ry="2.4"/>
				</g>
				<g>
					<ellipse fill="#B0DFDE" cx="27.7" cy="103.5" rx="0.9" ry="0.9"/>
				</g>
				<g>
					<ellipse fill="#B0DFDE" cx="25.9" cy="121.1" rx="2.4" ry="2.5"/>
				</g>
			</g>
		</g>
	</g>
</g>
<g id="Medals">
</g>
<g id="Lacrosse_Stick">
</g>
<g id="Keyboard">
</g>
<g id="Header">
</g>
<g id="Header_Buttons">
</g>
<g id="Progress_Indicator">
</g>
<g id="Title">
</g>
</svg>
