<?xml version="1.0" encoding="utf-8"?>
<!-- Generator: Adobe Illustrator 19.2.0, SVG Export Plug-In . SVG Version: 6.00 Build 0)  -->
<svg version="1.1" xmlns="http://www.w3.org/2000/svg" xmlns:xlink="http://www.w3.org/1999/xlink" x="0px" y="0px"
	 viewBox="0 0 125.7 139.2" enable-background="new 0 0 125.7 139.2" xml:space="preserve" width="125.7" height="139.2" preserveAspectRatio="none">
<g id="BG">
</g>
<g id="Track_and_Infield">
</g>
<g id="Balls">
	<path opacity="0.3" fill="#231F20" d="M124.5,103.7c0-12.1-26.5-21.8-59.2-21.8S6.1,91.7,6.1,103.7c0,12.1,26.5,21.8,59.2,21.8
		c2,0,4,0,6-0.1c-0.4,0.8-0.7,1.6-0.7,2.4c0,5.5,9.8,9.9,21.8,9.9s21.8-4.4,21.8-9.9c0-3.3-3.6-6.2-9-8
		C117.1,115.8,124.5,110.1,124.5,103.7z"/>
	<g>
		<g>
			<g>
				
					<ellipse transform="matrix(0.1242 -0.9923 0.9923 0.1242 -7.481 106.428)" fill="#FFFCEC" cx="56.5" cy="57.5" rx="54.4" ry="54.4"/>
				<path fill="#DFDED0" d="M107.6,56.3c-3.7,29.8-30.9,51-60.7,47.2c-19.4-2.4-35.2-14.8-42.8-31.4c5.7,20.5,23.2,36.5,45.7,39.3
					c29.8,3.7,57-17.4,60.8-47.2c1.3-10.4-0.4-20.5-4.5-29.3C107.9,41.6,108.6,48.9,107.6,56.3z"/>
				<polygon fill="#BDBC83" points="38.5,53.7 27.3,92.5 25.3,91.9 35.9,55.3 5.1,50.1 5.5,48 				"/>
				<path fill="#BDBC83" d="M80.8,34L49.6,48.5L35.8,41l-0.9-28.2l2.1-0.1l0.9,27l11.9,6.5l28.8-13.4L76.7,21c-1.1-1-5.7-5.4-11.8-8
					c-7.1-3-15.7-5.2-15.8-5.2l0.5-2c0.1,0,8.9,2.2,16.2,5.3c7.3,3.1,12.5,8.4,12.7,8.7l0.2,0.2L80.8,34z"/>
				<path fill="#BDBC83" d="M88.4,63.7c-1.3,8.2-2.8,11.7-2.9,11.9L85.4,76l-15.6,7.3l-22.9-18l1.3-1.6l21.9,17.2l13.6-6.4
					c0.5-1.3,2.1-6.2,3.3-15.6c1.4-11-0.2-17.7-0.2-17.7l2-0.5c0.1,0.3,1.7,7.1,0.3,18.5C88.9,60.8,88.6,62.4,88.4,63.7z"/>
				<polygon fill="#002932" points="21.9,52.2 31.9,70.8 51.5,67.5 54.2,45.8 36,34.8 				"/>
				<path fill="#002932" d="M54.7,3.1C43.5,3.4,32.9,7.3,24.2,13.7L36.9,17l19.6-8.8L54.7,3.1z"/>
				<path fill="#002932" d="M8,49.4c0,0-1.3-4.1-2-7.5c-0.3-1.6-0.3-3-0.2-4.1c-1.6,4.1-2.7,8.4-3.3,12.9C2,55.3,2,59.9,2.6,64.4
					c0.2-1.2,0.6-3.2,1.4-5.8C5.2,54.4,8,49.4,8,49.4z"/>
			</g>
			<g>
				<path fill="#BDBC83" d="M97.7,38.8c0,0,4.5-0.4,6.9,0.8c1.7,0.9,3.6,2.7,4.6,3.8c-0.4-1.4-0.8-2.7-1.2-4
					c-0.8-0.6-1.6-1.2-2.4-1.6c-3-1.6-7.9-1.1-8.1-1L97.7,38.8z"/>
				<path fill="#BDBC83" d="M86.4,20.9l1.9,0.9l2.9-6.2c-0.6-0.5-1.1-0.9-1.7-1.3L86.4,20.9z"/>
				<path fill="#BDBC83" d="M100.7,83c-3.9,2.4-12.1,2.6-12.1,2.6l0.1,2.1c0.4,0,8.8-0.3,13.2-2.9c1.2-0.7,2.2-1.5,3.1-2.3
					c1-2,1.9-4,2.7-6.1C106.4,78,104.1,80.9,100.7,83z"/>
				<path fill="#BDBC83" d="M79.7,106.7l-0.2-10.4L66,96l-28,4.3l0.3,2.1l27.8-4.2l11.4,0.3l0.2,9.3C78.4,107.3,79,107,79.7,106.7z"
					/>
			</g>
			<path fill="#002932" d="M41.1,101.2L25.4,88.4l-14-1c0,0,0.1,0.3,0.4,0.9c6.3,9.1,15.3,16.3,26.1,20.2L41.1,101.2z"/>
			<path fill="#002932" d="M63.6,97.6l14.1,2.9c0,0,3.8-1.7,9.2-6.8c5.3-5.1,6.9-8.6,6.9-8.6l-8.5-13.4l-17.7,8.6L63.6,97.6z"/>
			<path fill="#002932" d="M74.8,17.6L88,18.5c0,0,3.3,2.6,7.2,8.9c3.9,6.3,4.5,10,4.5,10L88.3,48.2L73.2,35.5L74.8,17.6z"/>
			<path fill="#002932" d="M107.1,77.4l-2.7-13l6.6-12.6c0,0,0.4,5.1-0.3,14.1C109.9,74.8,107.1,77.4,107.1,77.4z"/>
		</g>
	</g>
	<g>
		<circle fill="#EFF3D0" cx="89.8" cy="110.1" r="18.5"/>
		<circle fill="#F4FAF7" cx="91.9" cy="109.3" r="16.6"/>
		<g>
			<defs>
				<circle id="SVGID_3_" cx="89.8" cy="110.1" r="18.5"/>
			</defs>
			<clipPath id="SVGID_2_">
				<use xlink:href="#SVGID_3_"  overflow="visible"/>
			</clipPath>
			<polygon clip-path="url(#SVGID_2_)" fill="#DD2D26" points="70.5,98.2 71,97.7 72.1,98.9 71.4,99.3 			"/>
			<polygon clip-path="url(#SVGID_2_)" fill="#DD2D26" points="72.9,96.2 73.6,95.8 74.5,97.8 73.8,98 			"/>
			<polygon clip-path="url(#SVGID_2_)" fill="#DD2D26" points="75.9,95 76.7,94.8 77.1,97.4 76.3,97.4 			"/>
			<polygon clip-path="url(#SVGID_2_)" fill="#DD2D26" points="79.1,94.6 79.9,94.6 79.7,97.5 78.9,97.4 			"/>
			<polygon clip-path="url(#SVGID_2_)" fill="#DD2D26" points="82.3,94.9 83.1,95 82.3,98.1 81.6,97.9 			"/>
			<polygon clip-path="url(#SVGID_2_)" fill="#DD2D26" points="85.4,95.7 86.1,96 84.8,99.2 84.1,98.8 			"/>
			<polygon clip-path="url(#SVGID_2_)" fill="#DD2D26" points="88.3,97.1 88.9,97.5 87.1,100.5 86.4,100.1 			"/>
			<polygon clip-path="url(#SVGID_2_)" fill="#DD2D26" points="90.9,98.8 91.5,99.3 89.3,102.2 88.7,101.7 			"/>
			<polygon clip-path="url(#SVGID_2_)" fill="#DD2D26" points="93.2,100.7 93.8,101.2 91.5,104 90.9,103.5 			"/>
			<polygon clip-path="url(#SVGID_2_)" fill="#DD2D26" points="95.4,102.5 96,103 93.9,105.8 93.3,105.4 			"/>
			<polygon clip-path="url(#SVGID_2_)" fill="#DD2D26" points="97.5,104 98.2,104.3 96.8,107.4 96.1,107.1 			"/>
			<polygon clip-path="url(#SVGID_2_)" fill="#DD2D26" points="99.8,104.9 100.1,104.9 100.4,105 100.2,108.1 99.7,108.1 
				99.3,108.1 			"/>
			<polygon clip-path="url(#SVGID_2_)" fill="#DD2D26" points="102.2,105 102.3,104.9 102.5,104.9 102.8,104.9 103.7,107.6 
				103.2,107.8 102.7,107.9 			"/>
			<polygon clip-path="url(#SVGID_2_)" fill="#DD2D26" points="104.2,104.2 104.5,104 104.7,103.8 106.6,105.5 106.2,105.9 
				106,106.2 			"/>
			<polygon clip-path="url(#SVGID_2_)" fill="#DD2D26" points="105.9,102.4 106.2,101.8 108.1,102.6 107.8,103.3 			"/>
			<polygon clip-path="url(#SVGID_2_)" fill="#DD2D26" points="107,99.9 107.2,99.2 108.7,99.5 108.6,100.3 			"/>
			<polygon clip-path="url(#SVGID_2_)" fill="#DD2D26" points="107.7,97.2 107.8,96.4 108.6,96.4 108.7,97.2 			"/>
			<polygon clip-path="url(#SVGID_2_)" fill="#DD2D26" points="108.1,94.2 108.2,93.8 108.3,94.2 			"/>
			<path clip-path="url(#SVGID_2_)" fill="#DD2D26" d="M72.4,119.4c0.2,0.2,0.4,0.4,0.5,0.5l-1.2,1.1c-0.2-0.2-0.3-0.5-0.5-0.7
				L72.4,119.4z"/>
			<polygon clip-path="url(#SVGID_2_)" fill="#DD2D26" points="74.5,121.1 75.2,121.4 73.9,123.2 73.3,122.7 			"/>
			<polygon clip-path="url(#SVGID_2_)" fill="#DD2D26" points="76.9,122.1 77.6,122.3 76.8,124.7 76.1,124.5 			"/>
			<polygon clip-path="url(#SVGID_2_)" fill="#DD2D26" points="79.5,122.5 80.2,122.5 80,125.5 79.2,125.4 			"/>
			<polygon clip-path="url(#SVGID_2_)" fill="#DD2D26" points="82.1,122.4 82.9,122.3 83.2,125.5 82.4,125.6 			"/>
			<polygon clip-path="url(#SVGID_2_)" fill="#DD2D26" points="84.8,121.9 85.5,121.7 86.3,125.1 85.6,125.2 			"/>
			<polygon clip-path="url(#SVGID_2_)" fill="#DD2D26" points="87.3,121.1 88,120.8 89.4,124.1 88.6,124.3 			"/>
			<polygon clip-path="url(#SVGID_2_)" fill="#DD2D26" points="89.8,119.9 90.4,119.5 92.2,122.7 91.5,123.1 			"/>
			<polygon clip-path="url(#SVGID_2_)" fill="#DD2D26" points="92.3,118.5 92.9,118.1 94.8,121.2 94.1,121.6 			"/>
			<polygon clip-path="url(#SVGID_2_)" fill="#DD2D26" points="94.9,117 95.6,116.6 97.2,119.8 96.5,120.1 			"/>
			<polygon clip-path="url(#SVGID_2_)" fill="#DD2D26" points="97.9,115.7 98.7,115.6 99.6,118.8 98.9,119.1 			"/>
			<polygon clip-path="url(#SVGID_2_)" fill="#DD2D26" points="101.3,115.3 101.7,115.3 102.2,115.4 101.9,118.5 101.6,118.5 
				101.2,118.5 			"/>
			<polygon clip-path="url(#SVGID_2_)" fill="#DD2D26" points="104.7,116 105,116.2 105.5,116.5 104.2,119 104,119 103.8,118.9 
				103.7,118.8 			"/>
			<polygon clip-path="url(#SVGID_2_)" fill="#DD2D26" points="107.6,118.3 107.8,118.6 108.1,119 106,120.4 105.8,120.2 
				105.5,119.9 			"/>
			<polygon clip-path="url(#SVGID_2_)" fill="#DD2D26" points="109,121.4 109.1,122.1 107.1,122.7 106.9,121.9 			"/>
			<polygon clip-path="url(#SVGID_2_)" fill="#DD2D26" points="109.2,124.5 109.1,125.3 107.7,125.3 107.6,124.6 			"/>
			<polygon clip-path="url(#SVGID_2_)" fill="#DD2D26" points="108.8,127.5 108.6,128.3 107.8,128.2 107.8,127.4 			"/>
		</g>
	</g>
</g>
<g id="White_Frame_Drop_Shadow">
</g>
<g id="White_Frame_BG">
</g>
<g id="Submit_Button">
</g>
<g id="Left_Tool_Bar_Tab">
</g>
<g id="Right_Info_Tab">
</g>
<g id="Top_Tab">
</g>
<g id="Left_Tools">
</g>
<g id="Water_Bottle_Gym_Bag">
</g>
<g id="Medals">
</g>
<g id="Lacrosse_Stick" display="none">
</g>
<g id="Hockey_Stick" display="none">
</g>
<g id="Field_Hockey_Stick">
</g>
<g id="Keyboard">
</g>
<g id="Teacher_Pop-up">
</g>
<g id="Keys">
</g>
<g id="Header">
</g>
<g id="Header_Buttons">
</g>
<g id="Progress_Indicator">
</g>
<g id="Title">
</g>
<g id="Layer_20">
</g>
</svg>
