<?xml version="1.0" encoding="utf-8"?>
<!-- Generator: Adobe Illustrator 24.0.3, SVG Export Plug-In . SVG Version: 6.00 Build 0)  -->
<svg version="1.1" xmlns="http://www.w3.org/2000/svg" xmlns:xlink="http://www.w3.org/1999/xlink" x="0px" y="0px"
	 viewBox="0 0 172 172" style="enable-background:new 0 0 172 172;" xml:space="preserve" width="172" height="172" preserveAspectRatio="none">
<style type="text/css">
	.st0{fill:url(#);}
	.st1{fill:#FFFFFF;}
	.st2{fill:#0057A7;}
	.st3{opacity:0.3;fill:#FFFFFF;}
	.st4{opacity:0.3;fill:#3D5BC4;}
	.st5{opacity:0.3;fill:#99B0FF;}
	.st6{fill:#FA9D67;}
	.st7{fill:#280846;}
	.st8{fill:#E6E6E6;}
	.st9{fill:#C0DBB8;}
	.st10{fill:none;}
	.st11{fill:#519479;}
	.st12{fill:#FFD941;}
	.st13{fill:#FFC640;}
	.st14{clip-path:url(#SVGID_2_);}
	.st15{fill:#973C18;}
	.st16{fill:#002444;}
	.st17{fill:#412D2B;}
	.st18{fill:#716558;}
	.st19{fill:#F9A851;}
	.st20{fill:#8EC2B6;}
	.st21{fill:#FFFCEC;}
	.st22{fill:#D7722E;}
	.st23{fill:#C8DBD7;}
	.st24{fill:#1B75BB;}
	.st25{fill:#CCCCCC;}
	.st26{fill:#FAD796;}
	.st27{fill:#009DFF;}
	.st28{fill:#FF00EA;}
	.st29{fill:none;stroke:#ED002D;stroke-width:2;stroke-miterlimit:10;}
	.st30{fill:none;stroke:#ED002D;stroke-miterlimit:10;}
	.st31{fill:#FCC441;}
	.st32{fill:#ED002D;}
	.st33{fill:#F5FBFF;}
	.st34{fill:#FFCE41;}
	.st35{fill:#5CCC50;}
	.st36{fill:#00E5FF;}
	.st37{fill:#6600FF;}
	.st38{opacity:0.32;}
	.st39{fill:#FFAC47;}
	.st40{display:none;fill:#BACDFF;}
	.st41{display:none;fill:#FFFFFF;}
	.st42{fill:#FFDEF1;}
	.st43{fill:#FF61F2;}
	.st44{fill:#FFE4AD;}
	.st45{fill:#FFF3CF;}
	.st46{fill:#FFD080;}
	.st47{fill:url(#SVGID_3_);}
	.st48{fill:url(#SVGID_4_);}
	.st49{fill:url(#SVGID_5_);}
	.st50{fill:url(#SVGID_6_);}
	.st51{fill:url(#SVGID_7_);}
	.st52{fill:url(#SVGID_8_);}
	.st53{fill:#FFF0F9;}
	.st54{fill:url(#SVGID_9_);}
	.st55{fill:url(#SVGID_10_);}
	.st56{fill:url(#SVGID_11_);}
	.st57{fill:url(#SVGID_12_);}
	.st58{fill:url(#SVGID_13_);}
	.st59{fill:url(#SVGID_14_);}
	.st60{fill:url(#SVGID_15_);}
	.st61{fill:url(#SVGID_16_);}
	.st62{fill:url(#SVGID_17_);}
	.st63{fill:#FFF9E8;}
	.st64{fill:#FFF7FC;}
	.st65{fill:#6944A3;}
	.st66{clip-path:url(#SVGID_19_);}
	.st67{fill:#C8352C;}
	.st68{fill:#6A121D;}
	.st69{fill:#D0D1D2;}
	.st70{fill:#677476;}
	.st71{fill:#485152;}
	.st72{fill:#D8D8EC;}
	.st73{fill:#AAA7D3;}
	.st74{fill:#4B5461;}
	.st75{fill:#E2E4E6;}
	.st76{fill:#7EA5B3;}
	.st77{fill:#8BD2D4;}
	.st78{fill:#00AEB9;}
	.st79{fill:#00313B;}
	.st80{fill:#C8DFE3;}
	.st81{opacity:0.3;fill:#A4DBDE;}
</style>
<g id="Layer_8">
</g>
<g id="Firework_Animation">
</g>
<g id="BG">
</g>
<g id="Stars">
</g>
<g id="Layer_5">
	<g id="Layer_12">
	</g>
</g>
<g id="Layer_6">
</g>
<g id="Common_Screeen_Elements">
</g>
<g id="Puzzle_Workboard">
</g>
<g id="Layer_7" class="st38">
</g>
<g id="Layer_10">
</g>
<g id="Layer_13">
</g>
<g id="Layer_14">
</g>
<g id="Layer_15">
</g>
<g id="Layer_16">
</g>
<g id="Layer_17">
	<circle class="st25" cx="86" cy="86" r="85"/>
	<circle class="st65" cx="86" cy="86" r="78.7"/>
	<g>
		<path class="st13" d="M91.8,111.7c-10.4,0-14.3,9.8-14.3,17.9c6,0,20.8,0,28.5,0C106.1,119,101.2,111.7,91.8,111.7z"/>
		<path class="st13" d="M76.1,136.1l2,0l1.3,5.8l-2.1,0.1v2.4h29.6l0.2-3.2l-2.4,0.1l0.6-4.9l2.4,0l0.3-4l-32.3-0.1L76.1,136.1z
			 M80.1,136.1l10.8,0.1l0.2,5.4l-9.7,0.3L80.1,136.1z M102.5,141.3l-9.5,0.3l-0.2-5.3l10.4,0.1L102.5,141.3z"/>
		<path class="st13" d="M104.5,111.5c-3-2.9-6.9-4.4-11.6-4.4v2.1c4.5,0,8.2,1.5,10.9,4.5c3.3,3.7,5.1,9.5,5,16.1l2,0
			c0.1-4.7-0.8-9.1-2.4-12.7l2.1-0.6l-4.5-6.8L104.5,111.5z"/>
		<polygon class="st13" points="115.5,115.1 109.9,105.7 107.3,108.5 112.3,116.1 		"/>
	</g>
	<g>
		<defs>
			<circle id="SVGID_18_" cx="86" cy="86" r="78.7"/>
		</defs>
		<clipPath id="SVGID_2_">
			<use xlink:href="#SVGID_18_"  style="overflow:visible;"/>
		</clipPath>
		<g class="st14">
			<path class="st67" d="M-0.6,142.7c11.5-3,10.3,3,10.3,3c-10.8,1.9-16.5-0.5-16.5-0.5C-5.5,143.1-4,137-4,137c2,0.2,4-0.1,4-0.1
				C0.1,139.7-0.6,142.7-0.6,142.7"/>
			<path class="st68" d="M-2.1,144.1C-2.1,144.1-2.1,144.1-2.1,144.1l7.8-0.3c0.1,0,0.3-0.1,0.2-0.3c0-0.1-0.1-0.3-0.3-0.2l-7.5,0.3
				l0.5-6.6c0-0.1-0.1-0.3-0.2-0.3c-0.1,0-0.3,0.1-0.3,0.2l-0.5,6.9c0,0.1,0,0.1,0.1,0.2C-2.2,144.1-2.1,144.1-2.1,144.1z"/>
			<path class="st68" d="M3.4,143.8C3.4,143.8,3.4,143.8,3.4,143.8c0.2,0,0.3-0.2,0.3-0.3l-0.2-1.6c0-0.1-0.1-0.2-0.3-0.2
				c-0.1,0-0.2,0.2-0.2,0.3l0.2,1.6C3.1,143.7,3.3,143.8,3.4,143.8z"/>
			<path class="st68" d="M0.7,144c0.1,0,0.2-0.1,0.3-0.2l0.2-1.4c0-0.1-0.1-0.3-0.2-0.3c-0.1,0-0.3,0.1-0.3,0.2l-0.2,1.4
				C0.4,143.8,0.5,144,0.7,144C0.7,144,0.7,144,0.7,144z"/>
			<path class="st68" d="M-1.6,138.7C-1.6,138.7-1.6,138.7-1.6,138.7l1.6-0.1c0.1,0,0.3-0.1,0.2-0.3c0-0.1-0.1-0.3-0.3-0.2l-1.6,0.1
				c-0.1,0-0.3,0.1-0.2,0.3C-1.9,138.6-1.8,138.7-1.6,138.7z"/>
			<path class="st68" d="M-1.9,141C-1.8,141-1.8,141-1.9,141l1.7-0.3c0.1,0,0.2-0.2,0.2-0.3c0-0.1-0.2-0.2-0.3-0.2l-1.7,0.3
				c-0.1,0-0.2,0.2-0.2,0.3C-2.1,140.9-2,141-1.9,141z"/>
			<path class="st1" d="M4.3,141.8L4.3,141.8c4.3-0.1,4.5,2.2,4.5,3.3v0c0,0.1,0,0.2,0,0.2c0,0,0,0,0,0c0,0.1,0,0.1,0,0.2
				c0,0,0,0,0,0c0,0,0,0,0,0.1c0,0,0,0,0,0c0,0,0,0,0,0c0,0,0,0,0,0c0,0,0,0,0,0c0,0,0,0,0,0c0,0,0,0.3,0,0.3
				c-0.9,0.2-2.8,0.4-5,0.3c0,0,0.3-1,0.4-2.1C4.4,143.1,4.3,142.6,4.3,141.8z"/>
			<path class="st69" d="M9.8,145.7c0,0,0.2,0.6,0,1.6c0,0,0,0.1,0,0.1c-0.2,1.1-17.3,0.2-17.8-0.5c0,0,0.4-1.1,1-1.7
				C-6.9,145.2-3.4,146.4,9.8,145.7"/>
			<path class="st70" d="M-4,124.5c0,0,0.5,10.8-2.1,17.9l6.3-0.3c0,0,0.7-11.1-1.5-17.6L-4,124.5z"/>
			<g>
				<path class="st67" d="M17,143.2c11.5-3,10.3,3,10.3,3c-10.8,1.9-16.5-0.5-16.5-0.5c1.3-2.1,2.8-8.2,2.8-8.2c2,0.2,4-0.1,4-0.1
					C17.7,140.2,17,143.2,17,143.2"/>
				<path class="st68" d="M15.5,144.6C15.5,144.6,15.5,144.6,15.5,144.6l7.8-0.3c0.1,0,0.3-0.1,0.2-0.3c0-0.1-0.1-0.3-0.3-0.2
					l-7.5,0.3l0.5-6.6c0-0.1-0.1-0.3-0.2-0.3c-0.1,0-0.3,0.1-0.3,0.2l-0.5,6.9c0,0.1,0,0.1,0.1,0.2
					C15.4,144.6,15.5,144.6,15.5,144.6z"/>
				<path class="st68" d="M20.8,144.3C20.8,144.3,20.8,144.3,20.8,144.3c0.2,0,0.3-0.2,0.3-0.3l-0.2-1.6c0-0.1-0.2-0.2-0.3-0.2
					c-0.1,0-0.2,0.2-0.2,0.3l0.2,1.6C20.6,144.2,20.7,144.3,20.8,144.3z"/>
				<path class="st68" d="M18.3,144.5c0.1,0,0.2-0.1,0.3-0.2l0.2-1.4c0-0.1-0.1-0.3-0.2-0.3c-0.1,0-0.3,0.1-0.3,0.2l-0.2,1.4
					C18,144.3,18.1,144.5,18.3,144.5C18.3,144.5,18.3,144.5,18.3,144.5z"/>
				<path class="st68" d="M16,139.2C16,139.2,16,139.2,16,139.2l1.6-0.1c0.1,0,0.3-0.1,0.2-0.3c0-0.1-0.1-0.3-0.3-0.2l-1.6,0.1
					c-0.1,0-0.3,0.1-0.2,0.3C15.8,139.1,15.9,139.2,16,139.2z"/>
				<path class="st68" d="M15.8,141.5C15.8,141.5,15.8,141.5,15.8,141.5l1.7-0.3c0.1,0,0.2-0.2,0.2-0.3c0-0.1-0.2-0.2-0.3-0.2
					l-1.7,0.3c-0.1,0-0.2,0.2-0.2,0.3C15.5,141.4,15.6,141.5,15.8,141.5z"/>
				<path class="st1" d="M22.9,142.3L22.9,142.3c4,0.1,4.5,2.2,4.5,3.3v0c0,0.1,0,0.2,0,0.2c0,0,0,0,0,0c0,0.1,0,0.1,0,0.2
					c0,0,0,0,0,0c0,0,0,0,0,0.1c0,0,0,0,0,0c0,0,0,0,0,0c0,0,0,0,0,0c0,0,0,0,0,0c0,0,0,0,0,0c0,0,0,0.3,0,0.3
					c-0.9,0.2-2.8,0.4-5,0.3c0,0,0.3-1,0.4-2.1C23,143.7,23,143.1,22.9,142.3z"/>
				<path class="st69" d="M27.5,146.2c0,0,0.2,0.6,0,1.6c0,0,0,0.1,0,0.1c-0.2,1.1-17.3,0.2-17.8-0.5c0,0,0.4-1.1,1-1.7
					C10.7,145.7,14.2,146.9,27.5,146.2"/>
				<path class="st70" d="M13.9,124.6c0,0,0.2,12.4-2,17.9l6.3-0.3c0,0,0.7-11.1-1.5-17.6L13.9,124.6z"/>
			</g>
			<path class="st70" d="M37.9,123.8c-0.7,5.7-11.4,9.2-26.5,9.5c-16.6,0.3-29.9-1.1-25.5-13.7c3.9-11.1,17-7,29.8-4.9
				c11.3,1.8,16.7-0.6,19.7,1.6C36.7,117.4,38.4,119.6,37.9,123.8z"/>
			<g>
				<path class="st71" d="M28.6,122.4c0.4,2,0.5,4,0.7,6l-0.5-0.4c1-0.1,2-0.2,3-0.2l-0.4,0.4c0.2-1.9,0.4-3.8,0.9-5.7
					c0.1,1.9,0.1,3.8,0,5.8l0,0.4l-0.4,0c-1,0.1-2,0.2-3,0.3l-0.5,0l0-0.5C28.3,126.4,28.4,124.4,28.6,122.4z"/>
			</g>
			<polygon class="st72" points="18.6,102.4 15.2,120.2 37.9,120.6 34.3,100.7 			"/>
			<g>
				<path class="st73" d="M29.7,104.7c0.5,3.1,0.6,6.1,0.7,9.2c0.1,3.1,0.1,6.1-0.3,9.2c-0.5-3.1-0.6-6.1-0.7-9.2
					C29.4,110.8,29.4,107.8,29.7,104.7z"/>
			</g>
			<path class="st67" d="M37.3,143.2c11.5-3,10.3,3,10.3,3c-10.8,1.9-16.5-0.5-16.5-0.5c1.3-2.1,2.8-8.2,2.8-8.2c2,0.2,4-0.1,4-0.1
				C38.1,140.2,37.3,143.2,37.3,143.2"/>
			<path class="st68" d="M35.9,144.6C35.9,144.6,35.9,144.6,35.9,144.6l7.8-0.3c0.1,0,0.3-0.1,0.2-0.3c0-0.1-0.1-0.3-0.3-0.2
				l-7.5,0.3l0.5-6.6c0-0.1-0.1-0.3-0.2-0.3c-0.1,0-0.3,0.1-0.3,0.2l-0.5,6.9c0,0.1,0,0.1,0.1,0.2C35.7,144.6,35.8,144.6,35.9,144.6
				z"/>
			<path class="st68" d="M41.1,144.3C41.1,144.3,41.1,144.3,41.1,144.3c0.2,0,0.3-0.2,0.3-0.3l-0.2-1.6c0-0.1-0.1-0.2-0.3-0.2
				c-0.1,0-0.2,0.2-0.2,0.3l0.2,1.6C40.9,144.2,41,144.3,41.1,144.3z"/>
			<path class="st68" d="M38.6,144.5c0.1,0,0.2-0.1,0.3-0.2l0.2-1.4c0-0.1-0.1-0.3-0.2-0.3c-0.1,0-0.3,0.1-0.3,0.2l-0.2,1.4
				C38.3,144.3,38.4,144.5,38.6,144.5C38.6,144.5,38.6,144.5,38.6,144.5z"/>
			<path class="st68" d="M36.3,139.2C36.3,139.2,36.3,139.2,36.3,139.2l1.6-0.1c0.1,0,0.3-0.1,0.2-0.3c0-0.1-0.1-0.3-0.3-0.2
				l-1.6,0.1c-0.1,0-0.3,0.1-0.2,0.3C36.1,139.1,36.2,139.2,36.3,139.2z"/>
			<path class="st68" d="M36.1,141.5C36.1,141.5,36.1,141.5,36.1,141.5l1.7-0.3c0.1,0,0.2-0.2,0.2-0.3c0-0.1-0.2-0.2-0.3-0.2L36,141
				c-0.1,0-0.2,0.2-0.2,0.3C35.9,141.4,36,141.5,36.1,141.5z"/>
			<path class="st1" d="M43.3,142.3L43.3,142.3c4,0.1,4.5,2.2,4.5,3.3v0c0,0.1,0,0.2,0,0.2c0,0,0,0,0,0c0,0.1,0,0.1,0,0.2
				c0,0,0,0,0,0c0,0,0,0,0,0.1c0,0,0,0,0,0c0,0,0,0,0,0c0,0,0,0,0,0c0,0,0,0,0,0c0,0,0,0,0,0c0,0,0,0.3,0,0.3
				c-0.9,0.2-2.8,0.4-5,0.3c0,0,0.3-1,0.4-2.1C43.4,143.7,43.3,143.1,43.3,142.3z"/>
			<path class="st69" d="M47.8,146.2c0,0,0.2,0.6,0,1.6c0,0,0,0.1,0,0.1c-0.2,1.1-17.3,0.2-17.8-0.5c0,0,0.4-1.1,1-1.7
				C31,145.7,34.5,146.9,47.8,146.2"/>
			<path class="st67" d="M28.4,148.4c11.5-3,10.3,3,10.3,3c-10.8,1.9-16.5-0.5-16.5-0.5c1.3-2.1,2.8-8.2,2.8-8.2c2,0.2,4-0.1,4-0.1
				C29.1,145.4,28.4,148.4,28.4,148.4"/>
			<path class="st68" d="M26.9,149.8C26.9,149.8,26.9,149.8,26.9,149.8l7.8-0.3c0.1,0,0.3-0.1,0.2-0.3c0-0.1-0.1-0.3-0.3-0.2
				l-7.5,0.3l0.5-6.6c0-0.1-0.1-0.3-0.2-0.3c-0.1,0-0.3,0.1-0.3,0.2l-0.5,6.9c0,0.1,0,0.1,0.1,0.2C26.8,149.8,26.9,149.8,26.9,149.8
				z"/>
			<path class="st68" d="M32.2,149.5C32.2,149.5,32.2,149.5,32.2,149.5c0.2,0,0.3-0.2,0.3-0.3l-0.2-1.6c0-0.1-0.2-0.2-0.3-0.2
				c-0.1,0-0.2,0.2-0.2,0.3l0.2,1.6C32,149.4,32.1,149.5,32.2,149.5z"/>
			<path class="st68" d="M29.7,149.7c0.1,0,0.2-0.1,0.3-0.2l0.2-1.4c0-0.1-0.1-0.3-0.2-0.3c-0.1,0-0.3,0.1-0.3,0.2l-0.2,1.4
				C29.4,149.5,29.5,149.7,29.7,149.7C29.7,149.7,29.7,149.7,29.7,149.7z"/>
			<path class="st1" d="M34.3,147.5L34.3,147.5c4,0.1,4.5,2.2,4.5,3.3v0c0,0.1,0,0.2,0,0.2c0,0,0,0,0,0c0,0.1,0,0.1,0,0.2
				c0,0,0,0,0,0c0,0,0,0,0,0.1c0,0,0,0,0,0c0,0,0,0,0,0c0,0,0,0,0,0c0,0,0,0,0,0c0,0,0,0,0,0c0,0,0,0.3,0,0.3
				c-0.9,0.2-2.8,0.4-5,0.3c0,0,0.3-1,0.4-2.1C34.4,148.8,34.4,148.3,34.3,147.5z"/>
			<path class="st69" d="M38.9,151.4c0,0,0.2,0.6,0,1.6c0,0,0,0.1,0,0.1c-0.2,1.1-17.3,0.2-17.8-0.5c0,0,0.4-1.1,1-1.7
				C22.1,150.9,25.6,152.1,38.9,151.4"/>
			<path class="st67" d="M-8.8,147.9c11.5-3,10.3,3,10.3,3c-10.8,1.9-16.5-0.5-16.5-0.5c1.3-2.1,2.8-8.2,2.8-8.2c2,0.2,4-0.1,4-0.1
				C-8.1,144.8-8.8,147.9-8.8,147.9"/>
			<path class="st1" d="M-3,146.9L-3,146.9c4,0.1,4.5,2.2,4.5,3.3v0c0,0.1,0,0.2,0,0.2c0,0,0,0,0,0c0,0.1,0,0.1,0,0.2c0,0,0,0,0,0
				c0,0,0,0,0,0.1c0,0,0,0,0,0c0,0,0,0,0,0c0,0,0,0,0,0c0,0,0,0,0,0c0,0,0,0,0,0c0,0,0,0.3,0,0.3c-0.9,0.2-2.8,0.4-5,0.3
				c0,0,0.3-1,0.4-2.1C-2.9,148.3-2.9,147.7-3,146.9z"/>
			<path class="st69" d="M1.7,150.9c0,0,0.2,0.6,0,1.6c0,0,0,0.1,0,0.1c-0.2,1.1-17.3,0.2-17.8-0.5c0,0,0.4-1.1,1-1.7
				C-15.1,150.4-11.6,151.6,1.7,150.9"/>
			<path class="st70" d="M33.5,124.4c0,0,0.4,10.3-1.4,18l6.3-0.3c0,0,0.7-11.1-1.5-17.6L33.5,124.4z"/>
			<polygon class="st74" points="38.1,123.5 14.8,122.5 15.2,119.3 37.9,120 			"/>
			<polygon class="st75" points="33.3,119.7 32.9,123.3 27.9,123.2 27.2,119.6 			"/>
			<path class="st70" d="M24.6,128.9c0,0,0.4,10.3-1.4,18l6.3-0.3c0,0,0.7-11.1-1.5-17.6L24.6,128.9z"/>
			<g>
				<path class="st67" d="M9.8,148.4c11.5-3,10.3,3,10.3,3c-10.8,1.9-16.5-0.5-16.5-0.5c1.3-2.1,2.8-8.2,2.8-8.2c2,0.2,4-0.1,4-0.1
					C10.5,145.4,9.8,148.4,9.8,148.4"/>
				<path class="st68" d="M8.3,149.8C8.3,149.8,8.3,149.8,8.3,149.8l7.8-0.3c0.1,0,0.3-0.1,0.2-0.3c0-0.1-0.1-0.3-0.3-0.2l-7.5,0.3
					l0.5-6.6c0-0.1-0.1-0.3-0.2-0.3c-0.1,0-0.3,0.1-0.3,0.2L8,149.5c0,0.1,0,0.1,0.1,0.2C8.2,149.8,8.2,149.8,8.3,149.8z"/>
				<path class="st68" d="M13.5,149.5C13.6,149.5,13.6,149.5,13.5,149.5c0.2,0,0.3-0.2,0.3-0.3l-0.2-1.6c0-0.1-0.2-0.2-0.3-0.2
					c-0.1,0-0.2,0.2-0.2,0.3l0.2,1.6C13.3,149.4,13.4,149.5,13.5,149.5z"/>
				<path class="st68" d="M11,149.7c0.1,0,0.2-0.1,0.3-0.2l0.2-1.4c0-0.1-0.1-0.3-0.2-0.3c-0.1,0-0.3,0.1-0.3,0.2l-0.2,1.4
					C10.8,149.5,10.9,149.7,11,149.7C11,149.7,11,149.7,11,149.7z"/>
				<path class="st1" d="M15.7,147.5L15.7,147.5c4,0.1,4.5,2.2,4.5,3.3v0c0,0.1,0,0.2,0,0.2c0,0,0,0,0,0c0,0.1,0,0.1,0,0.2
					c0,0,0,0,0,0c0,0,0,0,0,0.1c0,0,0,0,0,0c0,0,0,0,0,0c0,0,0,0,0,0c0,0,0,0,0,0c0,0,0,0,0,0c0,0,0,0.3,0,0.3
					c-0.9,0.2-2.8,0.4-5,0.3c0,0,0.3-1,0.4-2.1C15.8,148.8,15.7,148.3,15.7,147.5z"/>
				<path class="st69" d="M20.2,151.4c0,0,0.2,0.6,0,1.6c0,0,0,0.1,0,0.1c-0.2,1.1-17.3,0.2-17.8-0.5c0,0,0.4-1.1,1-1.7
					C3.4,150.9,7,152.1,20.2,151.4"/>
				<path class="st70" d="M5.8,129.4c0,0,0.4,10.3-1.4,18l6.3-0.3c0,0,0.7-11.1-1.5-17.6L5.8,129.4z"/>
			</g>
			<path class="st75" d="M-16.2,67.4c-2.1-6.9-4.7-20.1-4.7-20.1s11,0.5,22.3,1.8c-0.4-0.7-0.8-1.6-0.9-2.4C0.1,44.4,1,43.3,1,43.3
				s3.3,2.5,5.7,4c1.6,1,6.2,3,9.1,4.2c2.6,0.6,4.8,1.3,6.3,2.1c9.5,4.8,12.2,11.7,12.2,11.7L33.1,60c0,0,6.1,0.6,10,6.9
				c3.9,6.3,0.8,10.7,0.8,10.7c-19.6-3-28.1,3-25.5,18.1c0,0-2.1,3.4-8.7,6.9c-6.6,3.4-13.2,0-13.2,0s3.7-1.6,6.8-4.7
				c0.2-0.2,0.4-0.4,0.6-0.6c-0.5,0-1,0-1.6-0.1c-7.4-0.6-11.2-7-11.2-7s2.7,0.4,6.1,0C-13,85-14.7,72.5-16.2,67.4z"/>
			<path class="st76" d="M3.3,53.2c0.7,0,1.4,0.1,2.1,0.2c0.7,0.1,1.4,0.2,2.1,0.4c3.9,0.8,7.4,2.5,10.7,4.6
				c3.8,2.4,6.7,6.3,8.1,10.6c0.2,0.7,0.4,1.3,0.6,2c0.2,0.7,0.3,1.4,0.3,2l0.9-0.3c-0.5-0.6-1-1.2-1.5-1.7c-0.5-0.5-1.1-1-1.7-1.5
				c-4.6-3.7-9.9-6.4-15.6-8C5,60.3,0.6,60-3.9,60.4c4.4-0.4,8.8,0.4,13,1.7c5.5,1.7,10.9,4.4,15.3,8.1c0.5,0.5,1.1,0.9,1.6,1.5
				c0.5,0.5,1,1,1.4,1.6l1.1,1.4l-0.2-1.7c-0.1-0.8-0.2-1.5-0.4-2.2c-0.2-0.7-0.4-1.4-0.6-2.1c-1.6-4.9-5.2-9-9.6-11.5
				c-3.7-2.1-8-3.6-12.3-3.9C4.7,53.1,4,53.1,3.3,53.2z"/>
			<g>
				<path class="st77" d="M52.1,109.1c0,0-0.4-1.2-0.6-3c-0.1-1.7,0.5-3.5,1.3-3.4c0.8,0.1,1.1,5.1,1.1,5.1s4.3-6.1,5.8-4.4
					c0.7,0.8-2.3,4.3-2.3,4.3s5.8-1.4,5.9,0.1c0.1,1.6-5.8,2.4-5.8,2.4s5.1,1.5,4.2,2.5c-0.8,1-6-1-6-1s-1.4,1.3-2.6,2.5l-2.5-3.2
					C51.3,110.4,52.1,109.1,52.1,109.1z"/>
				<path class="st72" d="M34.9,100.7c0,0,3.5,12,9.5,12.6c3.1,0.3,6.4-2.9,6.4-2.9l3.2,3.6c0,0-7.1,5.5-12.4,3.1
					c-5.2-2.4-8.1-11-8.1-11L34.9,100.7z"/>
			</g>
			<path class="st77" d="M63.5,75.2c-0.6-1-8.7,0.2-14.7,3.5c-6,3.3-6.8,6.4-6.8,6.4l0.7,4.8c0,0,7.5,0.2,12.6-2.5
				C60.6,84.9,64.1,76.3,63.5,75.2z"/>
			<path class="st78" d="M49.4,87.1C49,84.3,47,85.1,47,85.1s4-4.3,9.6-6.4c2.3-0.9,4.7-1.4,6.7-1.8c-0.9,2.9-3.9,8.5-7.9,10.5
				c-2,1.1-4.5,1.7-6.6,2C49.2,88.8,49.5,88,49.4,87.1z"/>
			<path class="st77" d="M-17,75.2c1.1-1.1,12.8,0,20.9,3.3c8.2,3.3,9.7,13.1,9.7,13.1l-2.9-1.5c0,0-11.1,0.4-18.1-2.3
				C-14.4,85.2-18.1,76.3-17,75.2z"/>
			<path class="st78" d="M1.7,87.2c1.1-2.9,3.8-2.1,3.8-2.1s-5.1-4.4-13-6.4c-3.3-0.8-6.7-1.4-9.5-1.7c0.8,3,4.3,8.8,9.7,10.8
				c2.8,1.1,6.3,1.6,9.4,1.9C1.6,89.1,1.4,88.2,1.7,87.2z"/>
			<path class="st77" d="M45,76.2c0,0-6.3-4-22.3-3.1c-15.9,0.9-19,6.1-19,6.1s4.7,14.6,13.8,21.5c3.3,2.5,14.1,2.8,15.1,2.4
				C45.8,97.9,45,76.2,45,76.2z"/>
			<path class="st1" d="M35.5,87.2c0.1,1.9,1.7,3.4,3.4,3.2c1.7-0.1,3-1.8,2.9-3.7c-0.1-1.9-1.7-3.4-3.4-3.2
				C36.6,83.6,35.3,85.3,35.5,87.2z"/>
			<path class="st79" d="M36.4,87.5c0.1,0.8,0.7,1.3,1.4,1.3c0.7-0.1,1.2-0.7,1.2-1.5c-0.1-0.8-0.7-1.3-1.4-1.3
				C36.8,86.1,36.3,86.7,36.4,87.5z"/>
			<path class="st1" d="M17.8,86.9c0.1,1.9,1.7,3.4,3.4,3.2c1.7-0.1,3-1.8,2.9-3.7c-0.1-1.9-1.7-3.4-3.4-3.2
				C18.9,83.4,17.6,85,17.8,86.9z"/>
			<path class="st79" d="M19,87.5c0.1,0.8,0.7,1.3,1.4,1.3c0.7-0.1,1.2-0.7,1.2-1.5c-0.1-0.8-0.7-1.3-1.4-1.3
				C19.5,86.1,18.9,86.7,19,87.5z"/>
			<path class="st1" d="M32.5,81.4c0,0-0.8-1.5,0.7-4.4c1.5-2.9,6.3-5,6.3-5l-0.1,2c0,0,2.2-1,5.3-0.7c3.1,0.3,4.8,1.3,4.8,1.3
				l-2.1,7L32.5,81.4z"/>
			<path class="st1" d="M26.9,81.5c0,0,0.9-1.4-0.4-4.5c-1.3-3-6-5.3-6-5.3l0,2c0,0-2.1-1.1-5.3-1c-3.2,0.2-4.8,1.1-4.8,1.1l1.7,7.1
				L26.9,81.5z"/>
			<path class="st80" d="M45.1,75.2c-0.6,0.1-1.2,0.3-1.8,0.5c-0.9,0.4-1.6,1-2.2,1.7c-0.3,0.4-0.6,0.7-0.9,1.1
				c-0.1,0.1-0.6,1.2-0.7,1.2l0.7,0c-0.6-1.1-1.4-2.3-1.6-3.5c-0.1-0.4-0.1-0.9,0-1.3c-0.2,0.4-0.3,0.9-0.3,1.3
				c0,1.4,0.7,2.7,1.3,3.9c0.1,0.2,0.2,0.4,0.3,0.6c0.4-0.7,0.7-1.4,1.2-2c0.7-1,1.5-1.9,2.5-2.6C44,75.8,44.5,75.4,45.1,75.2z"/>
			<path class="st80" d="M15.1,76.3c1.2,0.3,2.2,0.9,3.2,1.6c0.5,0.4,0.9,0.8,1.3,1.2c0.4,0.4,0.7,1,1.2,1.4l0.4,0.6l0.2-0.6
				c0.3-0.9,0.7-1.8,0.8-2.8c0-0.4,0.1-0.9,0-1.3c0-0.2-0.1-0.4-0.2-0.7c-0.1-0.2-0.2-0.4-0.3-0.6c0.5,1.7-0.3,3.4-0.9,5
				c0.2,0,0.4,0,0.7-0.1c-0.2-0.3-0.4-0.5-0.6-0.8C19.4,77.6,17.3,76.2,15.1,76.3z"/>
			<path class="st79" d="M30.8,85.2c1.4,0,2.3,1.2,2.3,1.2l0,3.2l-5,0.1l-0.7-3.8C27.4,85.9,29.4,85.2,30.8,85.2z"/>
			<polygon class="st81" points="47.3,81.6 43.7,80.7 33.7,81.4 33,92.4 40.3,93.7 47.9,92.5 			"/>
			<polygon class="st81" points="26.4,81.3 22.9,80.4 12.8,81.1 12.2,92.1 19.5,93.4 27,92.2 			"/>
			<path class="st79" d="M32.6,80.2c-0.6,0.1-1.1,0.6-1.1,1.1c0,3.7,0,7.4,0,11.1c0,0.5,0.5,1,1.1,1.1c5.1,1,10.5,1,15.6,0.1
				c0.6-0.1,1.1-0.6,1.1-1.1c0-3.7,0-7.4,0-11.1c0-0.5-0.5-1-1.1-1.1C43,79.3,37.7,79.3,32.6,80.2z M34.2,83.1c0-0.5,0.5-1,1.1-1.1
				c3.4-0.3,6.8-0.3,10.2,0c0.6,0.1,1.1,0.5,1.1,1.1c0,2.6,0,5.2,0,7.8c0,0.5-0.5,1-1.1,1.1c-3.4,0.3-6.8,0.3-10.2,0
				c-0.6-0.1-1.1-0.5-1.1-1.1C34.2,88.2,34.2,85.6,34.2,83.1z"/>
			<path class="st79" d="M11.7,80c-0.6,0.1-1.1,0.6-1.1,1.1c0,3.7,0,7.4,0,11.1c0,0.5,0.5,1,1.1,1.1c5.1,1,10.5,1,15.6,0.1
				c0.6-0.1,1.1-0.6,1.1-1.1c0-3.7,0-7.4,0-11.1c0-0.5-0.5-1-1.1-1.1C22.2,79,16.8,79,11.7,80z M13.3,82.8c0-0.5,0.5-1,1.1-1.1
				c3.4-0.3,6.8-0.3,10.2,0c0.6,0.1,1.1,0.5,1.1,1.1c0,2.6,0,5.2,0,7.8c0,0.5-0.5,1-1.1,1.1c-3.4,0.3-6.8,0.3-10.2,0
				c-0.6-0.1-1.1-0.5-1.1-1.1C13.3,87.9,13.3,85.3,13.3,82.8z"/>
			<ellipse class="st73" cx="28.2" cy="109.9" rx="0.7" ry="0.7"/>
			<ellipse class="st73" cx="28.2" cy="118.4" rx="0.7" ry="0.7"/>
			<polygon class="st70" points="18.4,123 19.3,123.1 19.5,119.2 18.1,119.2 			"/>
			<polygon class="st70" points="23.8,123 24.7,123.2 24.9,119.5 23.5,119.4 			"/>
			<polygon class="st70" points="35.7,123.5 36.6,123.6 37,119.9 35.8,119.9 			"/>
			<polygon class="st74" points="22.4,102.8 26.9,115 27.5,114.9 24.1,102.3 			"/>
			<polygon class="st74" points="35.3,102.4 30.8,114.7 30.3,114.7 33.8,102.1 			"/>
			<polygon class="st67" points="34,111.9 24,111.7 24.7,116.8 33,116.9 			"/>
			<path class="st75" d="M28.5,113.4c1.9-0.2,3.6,0.1,3.7,0.5c0.1,0.4-1.4,0.9-3.3,1.1s-3.6-0.1-3.7-0.5
				C25.1,114,26.6,113.5,28.5,113.4z M26,114.3c0.1,0.3,1.4,0.5,2.9,0.3c1.5-0.1,2.7-0.5,2.6-0.8c-0.1-0.3-1.4-0.5-2.9-0.3
				C27.1,113.6,25.9,114,26,114.3z"/>
			<ellipse class="st75" cx="28.8" cy="114.2" rx="1.6" ry="1.5"/>
			<g>
				<path class="st67" d="M30.7,114.2c-0.6,0.3-1.2,0.4-1.9,0.5c-0.3,0-0.6,0-1,0c-0.3,0-0.6-0.1-0.9-0.2
					C28.2,114.5,29.5,114.5,30.7,114.2z"/>
			</g>
			<g>
				<path class="st67" d="M30.8,114.7c-0.6,0.3-1.2,0.4-1.8,0.4c-0.3,0-0.6,0-0.9,0c-0.3,0-0.6,0-0.9-0.1
					C28.3,114.9,29.5,114.9,30.8,114.7z"/>
			</g>
			<g>
				<path class="st77" d="M29.5,116.2c1.6-0.7,3.5-0.6,3.7,0.2c0.2,0.7-3.8,2.3-4.4,2.6l-1.8-1.4C27.1,117.4,28,116.8,29.5,116.2z"
					/>
				<g>
					<path class="st77" d="M25.5,121.9c0,0-1.6-1-3.1-1.7l2.3-3.4c0.7,0.5,2.1,0.8,2.1,0.8s0,0,0,0l1.8,1.4c-0.1,0-0.1,0-0.1,0
						s0.1,0,0.3,0.1l0.4,0.3l-0.4-0.3c1.3,0.4,6.7,2.4,5.7,4.1c-0.5,0.9-4.8-0.9-4.8-0.9s3.1,5.1,1.6,5.7c-1.5,0.6-4-4.8-4-4.8
						s0.5,4.5-0.8,4C25.5,126.5,25.5,121.9,25.5,121.9z"/>
					<path class="st72" d="M15.7,102.4c0,0-8,9.4,7.5,19.1l2.7-4.8c0,0-12.1-3.3-7.5-14L15.7,102.4z"/>
				</g>
			</g>
			<g>
				<path class="st75" d="M45.2,96c0,0-3.6-2.5-8.6-3.1c-5-0.7-13.6-0.9-17.9,1.3c-4.3,2.2-8.5,8.7-6.6,15.7l1.2-0.3l5.9-1.4
					l1.5-5.5l0.8,4.3l4.3-0.3c0,0,0.7-2.2,0.4-3.6c0,0,1.4,2.7,1.4,3.4l8,0.5c0,0,0.5-3.1,0-5.3c0,0,2.5,3.4,2.5,6.1l7.5,1.8
					c0,0,2.1-4,0.2-8.6c0,0,2.5,2.4,2.7,4C48.5,105,49.2,100.9,45.2,96z"/>
				<path class="st76" d="M33.4,93.4c0.4-0.1,1.3,0.6,1.6,0.8c0.8,0.5,1.6,1,2.2,1.6c1.1,1,2,2.2,2.8,3.4c0.4,0.6,0.8,1.1,1.2,1.7
					c0.1,0.2,0.5,0.6,0.6,0.8c0,0-0.1-0.8-0.6-1.9c-1.2-3-3.8-6.2-7.3-6.5C33.6,93.4,33.4,93.4,33.4,93.4z"/>
				<path class="st76" d="M30.7,93.8c0.4,0.1,0.9,1.1,1,1.4c0.4,0.7,0.8,1.5,1.1,2.3c0.6,1.7,0.8,3.5,1.3,5.3c0-0.2,0.1-0.5,0.2-0.7
					c0.2-1.1,0.2-2.2,0-3.2C34,97,32.9,94.9,31.2,94C30.9,93.9,30.7,93.8,30.7,93.8z"/>
				<path class="st76" d="M29,94c0,0-0.2,0-0.5,0c-0.3,0-0.8,0.1-1.4,0.3c-1.8,0.6-3.4,2-4.5,3.6c-0.6,0.8-0.9,1.7-1.3,2.6
					c-0.2,0.5-0.4,0.9-0.5,1.4c0,0.1,0,0.5-0.1,0.6c1.9-2.8,3.7-5.8,6.6-7.6C28.3,94.3,29,94,29,94z"/>
				<path class="st76" d="M31,93.8c0,0-0.2,0-0.4,0.1c-1.6,0.7-2.7,2.3-3.2,3.9c-0.3,0.8-0.4,1.7-0.4,2.6c0,0.4,0,0.9,0.1,1.3
					c0,0.2,0.2,0.7,0.1,0.8C28,100,28.4,97.2,30,95C30.6,94.2,31,93.8,31,93.8z"/>
				<path class="st78" d="M25.8,92.2c0.2,2.1,2.2,4.1,4.8,3.9c2.6-0.2,4.8-2.5,4.6-4.6c-0.2-2.1-2.4-3.6-5-3.4
					C27.6,88.3,25.6,90.1,25.8,92.2z"/>
			</g>
			<g>
				<path class="st73" d="M17.4,108.7c0.2,1,0.7,1.9,1.2,2.7c0.5,0.8,1.2,1.5,1.9,2.2c0.7,0.7,1.5,1.2,2.3,1.8l1.3,0.8
					c0.4,0.3,0.9,0.5,1.3,0.8c-0.5-0.1-1-0.2-1.5-0.4c-0.5-0.2-1-0.4-1.4-0.6c-0.9-0.5-1.8-1-2.6-1.8c-0.8-0.7-1.5-1.6-1.9-2.5
					C17.4,110.8,17.2,109.8,17.4,108.7z"/>
			</g>
			<g>
				<polygon class="st73" points="36.1,106.9 36.4,112.4 35.1,107.1 				"/>
			</g>
			<g>
				<path class="st73" d="M15.9,115.2c0.7,0.7,1.2,1.3,1.8,2c0.6,0.7,1.2,1.3,1.8,2c-0.9-0.2-1.7-0.8-2.3-1.5
					C16.5,117,16.1,116.2,15.9,115.2z"/>
			</g>
		</g>
	</g>
	<g>
		<path class="st1" d="M67.7,46.9c1.9,0,3.3,0.5,4.4,1.4c1.1,1,1.6,2.2,1.6,3.8c0,1.6-0.5,2.8-1.6,3.8c-1.1,1-2.6,1.4-4.4,1.4h-2.8
			V61l1.8,0.3v2h-6.8v-2l1.7-0.3V49.2l-1.7-0.3v-2h1.7H67.7z M64.9,54.8h2.8c0.9,0,1.6-0.2,2.1-0.7s0.7-1.1,0.7-1.9
			c0-0.8-0.2-1.4-0.7-1.9s-1.2-0.8-2.1-0.8h-2.8V54.8z"/>
		<path class="st1" d="M83.4,61.7c-0.4,0.6-0.9,1-1.4,1.3c-0.6,0.3-1.2,0.5-2,0.5c-1.3,0-2.3-0.4-3-1.2c-0.7-0.8-1.1-2.1-1.1-3.8v-5
			l-1.3-0.3v-2h1.3h3.3v7.4c0,0.9,0.1,1.5,0.4,1.9s0.7,0.6,1.3,0.6c0.5,0,1-0.1,1.3-0.3c0.4-0.2,0.7-0.4,0.9-0.7v-6.5l-1.4-0.3v-2
			h1.4h3.3V61l1.5,0.3v2h-4.3L83.4,61.7z"/>
		<path class="st1" d="M93.6,60.7h3.4l0.1-1.6h2.5v4.1H89.5v-1.9l5.8-7.7h-3l-0.1,1.6h-2.5v-4.1h9.7V53L93.6,60.7z"/>
		<path class="st1" d="M105.6,60.7h3.4l0.1-1.6h2.5v4.1h-10.1v-1.9l5.8-7.7h-3l-0.1,1.6h-2.5v-4.1h9.7V53L105.6,60.7z"/>
		<path class="st1" d="M112.9,47.7v-2h5V61l1.6,0.3v2h-6.4v-2l1.6-0.3V48.1L112.9,47.7z"/>
		<path class="st1" d="M126.4,63.5c-1.8,0-3.2-0.6-4.2-1.7c-1-1.1-1.6-2.5-1.6-4.3v-0.4c0-1.8,0.5-3.3,1.5-4.5s2.3-1.7,4-1.7
			c1.6,0,2.9,0.5,3.8,1.5c0.9,1,1.4,2.3,1.4,4v1.8H124l0,0.1c0.1,0.8,0.3,1.5,0.8,2s1.1,0.8,1.9,0.8c0.7,0,1.3-0.1,1.8-0.2
			c0.5-0.1,1-0.4,1.6-0.7l0.9,2c-0.5,0.4-1.2,0.7-1.9,1C128.3,63.4,127.4,63.5,126.4,63.5z M126.1,53.4c-0.6,0-1.1,0.2-1.4,0.7
			c-0.4,0.5-0.6,1.1-0.7,1.8l0,0.1h4v-0.3c0-0.7-0.2-1.3-0.5-1.7C127.3,53.6,126.8,53.4,126.1,53.4z"/>
		<path class="st1" d="M76.8,89.3v-2l1.7-0.3V75.2l-1.7-0.3v-2h1.7h3.3h1.8v2l-1.8,0.3v11.5h4.6l0.2-2.1h2.5v4.6H76.8z"/>
		<path class="st1" d="M98.1,89.3c-0.1-0.2-0.2-0.4-0.2-0.6c-0.1-0.2-0.1-0.4-0.2-0.6c-0.4,0.4-0.9,0.8-1.4,1.1s-1.2,0.4-1.9,0.4
			c-1.2,0-2.1-0.3-2.8-1s-1-1.5-1-2.6c0-1.1,0.5-2,1.4-2.6s2.3-0.9,4-0.9h1.7v-1.2c0-0.6-0.2-1-0.5-1.4s-0.8-0.5-1.5-0.5
			c-0.4,0-0.7,0-1,0.1s-0.5,0.2-0.7,0.3L93.6,81h-2.5l0-2.7c0.6-0.4,1.3-0.7,2.1-1c0.8-0.3,1.6-0.4,2.5-0.4c1.5,0,2.7,0.4,3.7,1.1
			s1.4,1.8,1.4,3.2v5c0,0.2,0,0.4,0,0.5c0,0.2,0,0.3,0,0.5l1,0.1v2H98.1z M95.3,87.1c0.5,0,0.9-0.1,1.3-0.3c0.4-0.2,0.7-0.5,0.9-0.8
			v-1.9h-1.7c-0.7,0-1.2,0.2-1.6,0.5c-0.4,0.3-0.5,0.7-0.5,1.2c0,0.4,0.1,0.7,0.4,1S94.8,87.1,95.3,87.1z"/>
		<path class="st1" d="M114.4,83.5c0,1.8-0.4,3.3-1.2,4.3s-2,1.6-3.5,1.6c-0.7,0-1.3-0.1-1.9-0.4s-1-0.7-1.3-1.3l-0.2,1.5h-2.8V74.1
			l-1.7-0.3v-2h5v6.7c0.4-0.5,0.8-0.9,1.3-1.1c0.5-0.3,1.1-0.4,1.7-0.4c1.5,0,2.7,0.6,3.5,1.7s1.2,2.7,1.2,4.7V83.5z M111.1,83.3
			c0-1.2-0.2-2.1-0.5-2.8c-0.3-0.7-0.9-1-1.8-1c-0.5,0-0.9,0.1-1.3,0.3c-0.4,0.2-0.6,0.5-0.8,0.9v5.1c0.2,0.4,0.5,0.7,0.8,0.9
			s0.8,0.3,1.3,0.3c0.8,0,1.4-0.3,1.8-0.9c0.3-0.6,0.5-1.4,0.5-2.5V83.3z"/>
	</g>
</g>
</svg>
