<?xml version="1.0" encoding="utf-8"?>
<!-- Generator: Adobe Illustrator 24.0.1, SVG Export Plug-In . SVG Version: 6.00 Build 0)  -->
<svg version="1.1" xmlns="http://www.w3.org/2000/svg" xmlns:xlink="http://www.w3.org/1999/xlink" x="0px" y="0px"
	 viewBox="0 0 172 172" style="enable-background:new 0 0 172 172;" xml:space="preserve" width="172" height="172" preserveAspectRatio="none">
<style type="text/css">
	.st0{fill:url(#);}
	.st1{fill:#FFFFFF;}
	.st2{fill:#0057A7;}
	.st3{opacity:0.3;fill:#FFFFFF;}
	.st4{opacity:0.3;fill:#3D5BC4;}
	.st5{opacity:0.3;fill:#99B0FF;}
	.st6{fill:#FA9D67;}
	.st7{display:none;fill:#280846;}
	.st8{fill:#E6E6E6;}
	.st9{fill:#C0DBB8;}
	.st10{fill:none;}
	.st11{fill:#519479;}
	.st12{fill:#FFD941;}
	.st13{fill:#FFC640;}
	.st14{clip-path:url(#SVGID_1_);}
	.st15{fill:#973C18;}
	.st16{fill:#002444;}
	.st17{fill:#412D2B;}
	.st18{fill:#716558;}
	.st19{fill:#F9A851;}
	.st20{fill:#8EC2B6;}
	.st21{fill:#FFFCEC;}
	.st22{fill:#D7722E;}
	.st23{fill:#C8DBD7;}
	.st24{fill:#1B75BB;}
	.st25{fill:#CCCCCC;}
	.st26{fill:#FAD796;}
	.st27{fill:#009DFF;}
	.st28{fill:#FF00EA;}
	.st29{fill:none;stroke:#ED002D;stroke-width:2;stroke-miterlimit:10;}
	.st30{fill:none;stroke:#ED002D;stroke-miterlimit:10;}
	.st31{fill:#FCC441;}
	.st32{fill:#ED002D;}
	.st33{fill:#F5FBFF;}
	.st34{fill:#FFCE41;}
	.st35{fill:#5CCC50;}
	.st36{fill:#00E5FF;}
	.st37{fill:#6600FF;}
	.st38{opacity:0.32;}
	.st39{fill:#6944A3;}
	.st40{opacity:0.6;fill:#FFFFFF;}
	.st41{clip-path:url(#SVGID_2_);}
	.st42{fill:#94C6FF;}
	.st43{fill:#E2E4E6;}
	.st44{fill:#7EA5B3;}
	.st45{fill:#8BD2D4;}
	.st46{fill:#FFD842;}
	.st47{fill:#2D2B6F;}
	.st48{fill:#00AEB9;}
	.st49{fill:#404041;}
	.st50{fill:#4B5461;}
	.st51{fill:#3D4093;}
	.st52{fill:#00313B;}
	.st53{fill:#C8DFE3;}
	.st54{opacity:0.3;fill:#A4DBDE;}
	.st55{fill:#1D1A4B;}
	.st56{clip-path:url(#SVGID_3_);}
	.st57{clip-path:url(#SVGID_4_);}
	.st58{clip-path:url(#SVGID_5_);}
	.st59{clip-path:url(#SVGID_6_);}
	.st60{clip-path:url(#SVGID_8_);}
	.st61{clip-path:url(#SVGID_10_);}
	.st62{clip-path:url(#SVGID_12_);}
</style>
<g id="Layer_8">
</g>
<g id="Firework_Animation">
</g>
<g id="BG">
</g>
<g id="Stars">
</g>
<g id="Layer_5">
</g>
<g id="Layer_6">
</g>
<g id="Common_Screeen_Elements">
</g>
<g id="Puzzle_Workboard">
</g>
<g id="Layer_7" class="st38">
</g>
<g id="Layer_10">
</g>
<g id="Layer_9">
	<g>
		<ellipse class="st8" cx="86" cy="86" rx="86" ry="85"/>
		<ellipse class="st39" cx="86" cy="86" rx="78.6" ry="77.1"/>
		<g>
			<ellipse class="st33" cx="122.2" cy="49.7" rx="1.9" ry="2.1"/>
			<polygon class="st33" points="122.3,48.8 129.4,44.3 123.1,49.9 127.4,57.4 122.1,50.7 115,55.2 121.3,49.6 117,42.1 			"/>
		</g>
		<g>
			<path class="st13" d="M89.3,60c-8.8,7.8-20.5,7.2-27.4,2.3c1,2.8,2.6,5.5,4.7,7.8c8.6,9.5,22.8,9.7,31.7,0.6s9.2-24.2,0.6-33.7
				c-2.1-2.3-4.5-4.1-7.1-5.3C95.9,39.7,97.6,52.7,89.3,60z"/>
			<path class="st40" d="M96.2,37.3c2.3,4.2,3.4,9.3,2.6,14.3c-0.7,5-3.6,9.5-7.3,12.7c-3.6,3.2-8.2,5.3-12.9,5.5
				c-4.7,0.3-9.4-1-13.3-3.6c4.2,1.8,8.8,2.4,13.1,1.9c4.3-0.6,8.4-2.5,11.8-5.5c3.4-2.9,6-6.8,7-11.3
				C98.2,46.7,97.8,41.8,96.2,37.3z"/>
		</g>
	</g>
</g>
</svg>
