<?xml version="1.0" encoding="utf-8"?>
<!-- Generator: Adobe Illustrator 19.2.0, SVG Export Plug-In . SVG Version: 6.00 Build 0)  -->
<svg version="1.1" xmlns="http://www.w3.org/2000/svg" xmlns:xlink="http://www.w3.org/1999/xlink" x="0px" y="0px"
	 viewBox="0 0 1024 213.4" enable-background="new 0 0 1024 213.4" xml:space="preserve" width="1024" height="213.4" preserveAspectRatio="none">
<g id="BG">
</g>
<g id="Tabletop_BG">
	<polygon fill="#4A495E" points="1051.2,146.2 991.5,18.2 42.1,18.2 -23.2,146.2 -23.2,146.2 -23.2,227.7 1051.2,227.7 
		1051.2,146.2 	"/>
	<path fill="#343345" d="M33.6,82.4c1.8-0.7,3.5-1.3,5.3-1.8c1.8-0.5,3.6-0.9,5.4-1.3c1.8-0.4,3.6-0.7,5.5-1
		c1.8-0.3,3.7-0.5,5.6-0.6c-1.7,0.7-3.5,1.3-5.3,1.8c-1.8,0.5-3.6,0.9-5.4,1.3c-1.8,0.4-3.6,0.7-5.5,1
		C37.3,82.1,35.5,82.3,33.6,82.4z"/>
	<path fill="#343345" d="M30.3,86.4c2-0.8,4.1-1.4,6.2-1.9c2.1-0.5,4.2-0.9,6.4-1.1c-2,0.8-4.1,1.4-6.2,1.9
		C34.5,85.7,32.4,86.2,30.3,86.4z"/>
	<path fill="#343345" d="M47.8,130.5c-1.9,0.2-3.7,0.3-5.6,0.3c-1.9,0-3.7-0.1-5.6-0.2c-1.9-0.1-3.7-0.3-5.6-0.5
		c-1.8-0.2-3.7-0.5-5.5-0.9c1.9-0.2,3.7-0.3,5.6-0.3c1.9,0,3.7,0.1,5.6,0.2c1.9,0.1,3.7,0.3,5.6,0.5C44.1,129.7,46,130,47.8,130.5z"
		/>
	<path fill="#343345" d="M36.6,67c-1.7,0.3-3.4,0.3-5.2,0.2c-1.7-0.1-3.4-0.2-5.1-0.6c1.7-0.3,3.4-0.3,5.2-0.2
		C33.2,66.5,34.9,66.6,36.6,67z"/>
	<path fill="#343345" d="M949.6,72.8c1.4-0.6,2.8-1,4.3-1.3c1.4-0.4,2.9-0.6,4.3-0.9c1.5-0.2,2.9-0.4,4.4-0.5c1.5-0.1,3-0.2,4.5-0.1
		c-1.4,0.6-2.8,1-4.3,1.3c-1.4,0.4-2.9,0.6-4.3,0.9c-1.5,0.2-2.9,0.4-4.4,0.5C952.6,72.8,951.2,72.9,949.6,72.8z"/>
	<path fill="#343345" d="M959,75.2c2-0.8,4.1-1.4,6.2-1.9c2.1-0.5,4.2-0.9,6.4-1.1c-2,0.8-4.1,1.4-6.2,1.9
		C963.3,74.5,961.2,75,959,75.2z"/>
	<path fill="#343345" d="M981.6,122.8c-1.9,0.2-3.7,0.3-5.6,0.3c-1.9,0-3.7-0.1-5.6-0.2c-1.9-0.1-3.7-0.3-5.6-0.5
		c-1.8-0.2-3.7-0.5-5.5-0.9c1.9-0.2,3.7-0.3,5.6-0.3c1.9,0,3.7,0.1,5.6,0.2c1.9,0.1,3.7,0.3,5.6,0.5
		C978,122.1,979.8,122.3,981.6,122.8z"/>
	<path fill="#343345" d="M989.5,126.8c-3.5,0.1-6.9,0.1-10.4,0c-3.4-0.1-6.9-0.3-10.3-0.4c-3.4-0.2-6.9-0.5-10.3-0.8
		c-3.4-0.3-6.9-0.7-10.3-1.2c3.5-0.1,6.9-0.1,10.4,0c3.4,0.1,6.9,0.3,10.3,0.4c3.4,0.2,6.9,0.5,10.3,0.8
		C982.7,125.9,986.1,126.2,989.5,126.8z"/>
	<path fill="#343345" d="M993.5,51.3c-1.7,0.3-3.4,0.3-5.2,0.2c-1.7-0.1-3.4-0.2-5.1-0.6c1.7-0.3,3.4-0.3,5.2-0.2
		C990.1,50.8,991.8,50.9,993.5,51.3z"/>
	<path fill="#343345" d="M306.3,123.5c-1.9,0.3-3.7,0.3-5.6,0.4c-1.9,0-3.7,0-5.6-0.1c-1.9-0.1-3.7-0.2-5.6-0.4
		c-1.9-0.2-3.7-0.4-5.5-0.8c1.9-0.3,3.7-0.3,5.6-0.4c1.9,0,3.7,0,5.6,0.1c1.9,0.1,3.7,0.2,5.6,0.4
		C302.6,122.8,304.4,123.1,306.3,123.5z"/>
	<path fill="#343345" d="M310.2,126.9c-2.2,0.2-4.3,0.1-6.5,0c-2.1-0.1-4.3-0.4-6.4-0.8c2.2-0.2,4.3-0.1,6.5,0
		C305.9,126.2,308.1,126.4,310.2,126.9z"/>
</g>
<g id="Microscope">
</g>
<g id="White_Frame_Drop_Shadow">
</g>
<g id="White_Frame_BG">
</g>
<g id="Submit_Button_1_">
</g>
<g id="Left_Tool_Bar_Tab">
</g>
<g id="Right_Info_Tab">
</g>
<g id="Top_Tab">
</g>
<g id="Left_Tools">
</g>
<g id="Lab_Safety_Goggles">
</g>
<g id="Left_Potion_Bottles">
</g>
<g id="Microscope_1_">
</g>
<g id="Right_Potion_Bottles">
</g>
<g id="Keyboard">
</g>
<g id="Header">
</g>
<g id="Header_Buttons">
</g>
<g id="Progress_Indicator_1_">
</g>
<g id="Title">
</g>
<g id="Problem_Screen">
</g>
<g id="Solution_Screen" display="none">
</g>
<g id="Teacher_Rating_Design">
</g>
<g id="Layer_24">
</g>
<g id="Isadora_Screenshot" display="none">
</g>
</svg>
