<?xml version="1.0" encoding="utf-8"?>
<!-- Generator: Adobe Illustrator 19.2.0, SVG Export Plug-In . SVG Version: 6.00 Build 0)  -->
<svg version="1.1" xmlns="http://www.w3.org/2000/svg" xmlns:xlink="http://www.w3.org/1999/xlink" x="0px" y="0px"
	 viewBox="0 0 246 324" enable-background="new 0 0 246 324" xml:space="preserve" width="246" height="324" preserveAspectRatio="none">
<g id="Rote_Screen_BG">
</g>
<g id="Barrel_and_Bucket__x28_Ground_x29_">
	<path fill="#5C8E96" d="M228.5,274.6c0,0-7.4-62.4-10.1-88.4c-2.7-26,8.3-118.3,9.7-127c1.3-8.7,7-43,11.3-49
		c2.1-2.8-29.6,0.3-31.3-3.6C167.4,15.3,133.6,20.3,87.8,23C62.9,24.5,20,25.5,20,25.5l3.8,5.9l8.4,243.9"/>
	<path fill="#6CA6B0" d="M228.6,259c-70.6-7.6-136.6-8-200.3,3.6h0l-0.4-7.7c0,0,58-15.8,200.7-4.8V259z"/>
	<path fill="#75B4BF" d="M28.4,263.1l-0.2-1c59.4-10.8,123.1-11.9,200.4-3.6l-0.1,1C151.3,251.2,87.7,252.3,28.4,263.1z"/>
	<path fill="#679FA8" d="M28,255.4l-0.3-1c0.6-0.2,59.7-15.7,200.8-4.8l-0.1,1C87.6,239.8,28.6,255.2,28,255.4z"/>
	<path fill="#B2C1D6" d="M235.4,308.4c0,7.7-45.5,14.3-105.8,14.3s-109.3-6.2-109.3-13.9s48.9-13.9,109.3-13.9
		S235.4,300.7,235.4,308.4z"/>
	<path fill="#31874C" d="M196.4,283.3c0,0-2.9,6.9-3.4,8.8s-1,5.6-1,5.6s2.6-2.8,4.3-3.7s1.6-0.9,1.6-0.9s-2.8,4.1-3.8,6
		s-1.4,2.8-1.4,2.8l-6,0.5C186.7,302.4,189.4,288.3,196.4,283.3z"/>
	<path fill="#75B4BF" d="M221,271.8c5.3,11.8,9.7,24.9,12.4,37.1c0,0-0.7,1.1-1.7,2.8c-1,0.5-2.4,0.9-4.5,1.4
		c-7.5,1.5-12,1.7-12,1.7l2.8-1l2-2.8c-0.8-11.9-4.2-25-9.2-36.8L221,271.8z"/>
	<g>
		<path fill="#31874C" d="M58.6,301.2c0,0,0.8-8.6-6.9-17.8c0,0,2.3,0,5,3.5c2.9,3.7,5.5,13.4,5.5,13.4L58.6,301.2z"/>
		<path fill="#31874C" d="M62.4,285.2c0,0-1.7,5.6-1.5,9.1c0.2,3.5,0.8,5.5,0.8,5.5l1.9-0.4C63.7,299.4,62.2,288.6,62.4,285.2z"/>
	</g>
	<path fill="#4E7680" d="M183.5,273.7c1,9.6,2.9,17.7,6.2,25.8l2.8,2.4l-18.1,1.5l2.1-2.8c1.2-7.7-0.4-16-3.3-26.1L183.5,273.7z"/>
	<path fill="#4E7680" d="M66.4,273.5c-0.4,9.7-1.8,17.8-4.7,26.1l-2.6,2.5l18.2,0.4l-2.3-2.6c-1.7-7.6-0.5-16,1.8-26.2L66.4,273.5z"
		/>
	<path fill="#5C8E96" d="M33.3,274.8c0,0-4.6,5.3-0.4,14c0.9,0.2,1.7,0.3,2.4,0.5c48.3,9.2,114.8,9.4,167.2,2.4
		c14.3-3.1,30.9-7.8,30.9-7.8l-6.7-14.7"/>
	<g>
		<g>
			<path fill="#95C3C7" d="M67.5,80.2C67.5,80.2,67.5,80.2,67.5,80.2c0.4-2,0.5-2.9,0.9-4.9c0.6,0,0.9,0,1.5,0
				c-0.6,3.1-0.9,4.6-1.5,7.7c-0.6,0-0.9,0-1.4,0c-0.4-1.9-0.6-2.8-1.1-4.7c0,0,0,0,0,0c-0.4,1.9-0.7,2.8-1.1,4.7
				c-0.6,0-0.9,0-1.4,0c-0.6-3.1-0.8-4.6-1.4-7.7c0.6,0,0.9,0,1.5,0c0.3,2,0.5,3,0.8,4.9c0,0,0,0,0,0c0.5-2,0.7-2.9,1.2-4.9
				c0.4,0,0.6,0,1.1,0C66.9,77.3,67.1,78.2,67.5,80.2z"/>
			<path fill="#95C3C7" d="M73.2,83c0-0.1-0.1-0.2-0.1-0.3c0-0.1-0.1-0.2-0.1-0.3c-0.1,0.2-0.3,0.4-0.5,0.6
				c-0.2,0.1-0.4,0.2-0.7,0.2c-0.5,0-0.9-0.2-1.2-0.5c-0.3-0.3-0.4-0.7-0.4-1.2c0-0.6,0.2-1,0.5-1.3c0.4-0.3,0.9-0.5,1.6-0.5
				c0.2,0,0.3,0,0.6,0c0-0.2,0-0.3,0-0.5c0-0.3-0.1-0.5-0.2-0.6c-0.1-0.1-0.3-0.2-0.5-0.2c-0.2,0-0.3,0.1-0.4,0.2s-0.1,0.3-0.1,0.5
				c-0.6,0-0.9,0-1.5,0c0,0,0,0,0,0c0-0.5,0.2-0.9,0.6-1.3c0.4-0.4,0.9-0.5,1.5-0.5c0.6,0,1.1,0.2,1.5,0.5s0.6,0.8,0.6,1.5
				c0,0.9,0,1.4,0,2.3c0,0.3,0,0.5,0.1,0.8c0,0.2,0.1,0.5,0.2,0.7C74.1,83,73.8,83,73.2,83z M72.2,82c0.2,0,0.3,0,0.4-0.1
				c0.1-0.1,0.2-0.2,0.3-0.3c0-0.4,0-0.6,0-1.1c-0.2,0-0.3,0-0.6,0c-0.2,0-0.4,0.1-0.5,0.2c-0.1,0.2-0.2,0.4-0.2,0.6
				c0,0.2,0,0.3,0.1,0.5C71.9,81.9,72,82,72.2,82z"/>
			<path fill="#95C3C7" d="M77.1,75.8c0,0.6,0,0.9,0,1.4c0.3,0,0.5,0,0.8,0c0,0.4,0,0.7,0,1.1c-0.3,0-0.5,0-0.8,0c0,1.1,0,1.7,0,2.9
				c0,0.2,0,0.4,0.1,0.5c0.1,0.1,0.2,0.1,0.3,0.1c0.1,0,0.2,0,0.2,0c0.1,0,0.1,0,0.2,0c0.1,0.5,0.1,0.7,0.1,1.1
				C78,83,77.9,83,77.7,83c-0.1,0-0.3,0-0.5,0c-0.5,0-0.9-0.1-1.1-0.4c-0.3-0.3-0.4-0.8-0.4-1.4c0-1.2,0-1.7,0-2.9
				c-0.3,0-0.4,0-0.7,0c0-0.4,0-0.7,0-1.1c0.3,0,0.4,0,0.7,0c0-0.6,0-0.9,0-1.4C76.2,75.8,76.5,75.8,77.1,75.8z"/>
			<path fill="#95C3C7" d="M81.2,83c-0.7,0-1.3-0.2-1.8-0.7c-0.4-0.5-0.7-1.1-0.7-1.8c0-0.3,0-0.5,0-0.8c0-0.8,0.2-1.4,0.6-1.9
				c0.4-0.5,0.9-0.8,1.6-0.8c0.7,0,1.2,0.2,1.6,0.6c0.4,0.4,0.6,1,0.6,1.8c0,0.4,0,0.6,0,0.9c-1.1,0-1.7,0-2.9,0.1c0,0,0,0,0,0
				c0,0.4,0.1,0.7,0.3,0.9c0.2,0.2,0.4,0.4,0.8,0.3c0.3,0,0.5,0,0.7-0.1c0.2-0.1,0.4-0.2,0.6-0.3c0.2,0.4,0.2,0.6,0.4,0.9
				c-0.2,0.2-0.5,0.4-0.8,0.5C81.9,82.9,81.6,83,81.2,83z M80.9,78.2c-0.2,0-0.4,0.1-0.5,0.3c-0.1,0.2-0.2,0.5-0.2,0.9
				c0.5,0,0.8,0,1.4,0c0-0.1,0-0.1,0-0.2c0-0.3-0.1-0.6-0.2-0.7S81.1,78.2,80.9,78.2z"/>
			<path fill="#95C3C7" d="M86.5,78.3c-0.2,0-0.3,0-0.6,0c-0.2,0-0.3,0-0.4,0.1c-0.1,0.1-0.2,0.2-0.2,0.3c0.1,1.6,0.1,2.4,0.1,3.9
				c-0.6,0-0.9,0-1.5,0c-0.1-2.3-0.1-3.4-0.2-5.7c0.6,0,0.8,0,1.4,0c0,0.3,0.1,0.5,0.1,0.8c0,0,0,0,0,0c0.1-0.3,0.2-0.5,0.4-0.7
				c0.2-0.2,0.3-0.2,0.6-0.3c0.1,0,0.1,0,0.2,0s0.1,0,0.2,0C86.6,77.5,86.6,77.8,86.5,78.3z"/>
			<path fill="#95C3C7" d="M91.5,81.3c1.1-0.1,1.7-0.1,2.9-0.1c0,0.5,0,0.7,0.1,1.2c-1.8,0.1-2.6,0.1-4.4,0.2
				c-0.1-3.1-0.2-4.6-0.3-7.7c0.6,0,0.9,0,1.5-0.1C91.3,77.4,91.3,78.7,91.5,81.3z"/>
			<path fill="#95C3C7" d="M96.2,75.1c-0.6,0-0.9,0.1-1.5,0.1c0-0.5,0-0.7-0.1-1.1c0.6,0,0.9,0,1.5-0.1
				C96.2,74.5,96.2,74.7,96.2,75.1z M96.6,82.2c-0.6,0-0.9,0.1-1.5,0.1c-0.1-2.3-0.2-3.4-0.3-5.7c0.6,0,0.9,0,1.5-0.1
				C96.4,78.8,96.5,80,96.6,82.2z"/>
			<path fill="#95C3C7" d="M98.8,76.4c0,0.3,0.1,0.5,0.1,0.8c0.1-0.3,0.3-0.5,0.5-0.7c0.2-0.2,0.5-0.3,0.8-0.3
				c0.5,0,0.9,0.1,1.2,0.5c0.3,0.3,0.5,0.9,0.5,1.7c0.1,1.4,0.1,2.1,0.2,3.5c-0.6,0-0.9,0.1-1.5,0.1c-0.1-1.4-0.1-2.1-0.2-3.5
				c0-0.4-0.1-0.7-0.2-0.8c-0.1-0.2-0.3-0.2-0.5-0.2c-0.1,0-0.3,0.1-0.4,0.1c-0.1,0.1-0.2,0.2-0.3,0.3c0.1,1.7,0.2,2.5,0.3,4.2
				c-0.6,0-0.9,0.1-1.5,0.1c-0.1-2.3-0.2-3.4-0.3-5.7C97.9,76.4,98.2,76.4,98.8,76.4z"/>
			<path fill="#95C3C7" d="M105.3,81.8c-0.7,0.1-1.3-0.1-1.8-0.6s-0.7-1-0.8-1.7c0-0.3,0-0.5-0.1-0.8c-0.1-0.8,0.1-1.4,0.5-1.9
				c0.4-0.5,0.9-0.8,1.6-0.9c0.7,0,1.2,0.1,1.6,0.6c0.4,0.4,0.6,1,0.7,1.8c0,0.4,0,0.6,0.1,0.9c-1.1,0.1-1.7,0.1-2.9,0.2
				c0,0,0,0,0,0c0,0.4,0.1,0.7,0.3,0.9c0.2,0.2,0.5,0.3,0.8,0.3c0.3,0,0.5-0.1,0.7-0.1c0.2-0.1,0.4-0.2,0.6-0.4
				c0.2,0.4,0.3,0.6,0.5,0.9c-0.2,0.2-0.4,0.4-0.8,0.5C106.1,81.7,105.7,81.8,105.3,81.8z M104.8,77.1c-0.2,0-0.4,0.1-0.5,0.4
				c-0.1,0.2-0.1,0.5-0.1,0.9c0.5,0,0.8-0.1,1.4-0.1c0-0.1,0-0.1,0-0.2c0-0.3-0.1-0.6-0.2-0.7C105.2,77.1,105.1,77.1,104.8,77.1z"/>
		</g>
	</g>
	<path fill="none" stroke="#95C3C7" stroke-width="1.8064" stroke-miterlimit="10" d="M27.7,80c0,0,16.5,0.4,31.2,0"/>
	<path fill="none" stroke="#95C3C7" stroke-width="1.8064" stroke-miterlimit="10" d="M28.5,96.9c0,0,15.7,0.2,31.1-0.4"/>
	<path fill="none" stroke="#95C3C7" stroke-width="1.8064" stroke-miterlimit="10" d="M29.3,113.9c0,0,15-0.1,30.9-0.8"/>
	<path fill="none" stroke="#95C3C7" stroke-width="1.8064" stroke-miterlimit="10" d="M30.1,130.9c0,0,14.2-0.4,30.8-1.2"/>
	<path fill="none" stroke="#95C3C7" stroke-width="1.8064" stroke-miterlimit="10" d="M30.9,147.8c0,0,13.4-0.6,30.7-1.7"/>
	<path fill="none" stroke="#95C3C7" stroke-width="1.8064" stroke-miterlimit="10" d="M31.6,164.8c0,0,12.7-0.9,30.6-2.1"/>
	<path fill="none" stroke="#95C3C7" stroke-width="1.8064" stroke-miterlimit="10" d="M32.4,181.7c0,0,11.9-1.2,30.5-2.5"/>
	<path fill="none" stroke="#95C3C7" stroke-width="1.8064" stroke-miterlimit="10" d="M33.2,198.7c0,0,11.2-1.4,30.3-2.9"/>
	<path fill="none" stroke="#95C3C7" stroke-width="1.8064" stroke-miterlimit="10" d="M34,215.7c0,0,10.4-1.7,30.2-3.3"/>
	<path fill="none" stroke="#95C3C7" stroke-width="1.8064" stroke-miterlimit="10" d="M34.8,232.6c0,0,9.7-2,30.1-3.7"/>
	<path fill="none" stroke="#95C3C7" stroke-width="1.8064" stroke-miterlimit="10" d="M34.8,248.3c0,0,9.7-2,30.1-3.7"/>
	<g display="none">
		<path display="inline" fill="#B8BD7F" d="M73.2,197c0,0,0.4-0.3,0.4-0.3c0,0,0.9,0.1,1.2,0.2c0,0,3.7,2.6,3.5,2.2l-1.8-4.1
			c-0.1-0.2-0.2-0.5-0.2-0.5c0-0.1,0.2-0.3,0.4-0.5l2.7-3c0.2-0.2,0.1-0.4-0.2-0.4l-3.6-0.5c-0.3,0-0.5-0.1-0.5-0.1
			s-0.1-0.1-0.2-0.4l-1.2-3c-0.1-0.2-0.3-0.3-0.4,0l-1.5,3.8c-0.1,0.2-0.2,0.5-0.2,0.5c0,0-0.3,0.1-0.6,0.2l-4.6,1.4
			c-0.2,0.1,0.4,0.4,0.6,0.5c0,0,3,1.5,3,1.5c0,0,0,1,0,1.3l-0.1,3.6c0,0.3,0.2,0.4,0.4,0.2C70.1,199.6,73.1,197,73.2,197z"/>
		<path display="inline" fill="#A2A67B" d="M74,197c0,0,0.1,0,0.1,0l4.4,2.4l-2.1-4.8c0-0.1,0-0.2,0-0.2l2.9-3.5l-4-0.3
			c-0.1,0-0.1-0.1-0.2-0.1l-1.5-3.6l-1.5,4.4c0,0.1-0.1,0.1-0.1,0.1l-5.2,1.5l3.4,2.1c0.1,0,0.1,0.1,0.1,0.2l-0.2,4.4l3.7-2.5
			C73.9,197,73.9,197,74,197z"/>
	</g>
	<path fill="#69BD45" d="M27.2,303c0-0.7,0.2-12.4-10.8-22.1c0,0,6.2,10.6,7.4,23L27.2,303z"/>
	<path fill="#6CA6B0" d="M210.1,146.6c-57.7,0.7-118.4,3.3-181.5,7.7l0.1,7.2c63.1-3.7,125.1-6.1,185.6-7L210.1,146.6z"/>
	<path fill="#6CA6B0" d="M210.1,146.6c-57.7,0.7-118.4,3.3-181.5,7.7l0.1,7.2c63.1-3.7,125.1-6.1,185.6-7L210.1,146.6z"/>
	<path fill="#699DA6" d="M30.4,271.4l-0.7,8.3c65.8,12.5,146,8.6,172.8,1.1l-2.7-14C107.2,256.3,30.4,271.4,30.4,271.4z"/>
	<path fill="#4D7982" d="M199.9,268.3l-0.2-1.6c-92.2-12.9-169.4,5-169.4,5l0.2,1.2C30.5,272.9,116.4,255.8,199.9,268.3L199.9,268.3
		z"/>
	<path fill="#679FA8" d="M210.1,146.6c-57.7,0.7-118.4,3.3-181.5,7.7l0,1.1c63.3-4.3,124.1-7,182.1-7.8L210.1,146.6z"/>
	<path fill="#6CA6B0" d="M210.6,147.6c-58,0.8-118.8,3.5-182.1,7.8l0.1,4.7c62.9-3.6,124.5-6,184.9-7L210.6,147.6z"/>
	<path fill="#75B4BF" d="M28.7,160.1l0,1.4c63.1-3.7,125.1-6.1,185.6-7l-0.8-1.4C153.2,154.1,91.5,156.5,28.7,160.1z"/>
	<path fill="#679FA8" d="M202.9,57.6v-1.8c-32.2,4.3-92.7,10.2-185,10.3l0.2,1.8C108,68,171.1,61.9,202.9,57.6z"/>
	<path fill="#6CA6B0" d="M202.9,63.1v-5.5C171.1,61.9,108,68,18,67.9l0.3,3.9C40.5,72.1,120.7,72.3,202.9,63.1z"/>
	<path fill="#75B4BF" d="M18.4,71.8l0.1,1.6c0,0,87,2.3,184.4-8.8v-1.6C120.7,72.3,40.5,72.1,18.4,71.8z"/>
	<g display="none">
		<path display="inline" fill="#B8BD7F" d="M70.2,98.3c0,0,0.4-0.3,0.4-0.3s0.9,0.1,1.2,0.2c0,0,3.7,2.6,3.5,2.2l-1.8-4.1
			c-0.1-0.2-0.2-0.5-0.2-0.5s0.2-0.3,0.4-0.5l2.7-3c0.2-0.2,0.1-0.4-0.2-0.4l-3.6-0.5c-0.3,0-0.5-0.1-0.5-0.1s-0.1-0.1-0.2-0.4
			l-1.2-3c-0.1-0.2-0.3-0.3-0.4,0l-1.5,3.8c-0.1,0.2-0.2,0.5-0.2,0.5s-0.3,0.1-0.6,0.2l-4.6,1.4c-0.2,0.1,0.4,0.4,0.6,0.5
			c0,0,3,1.5,3,1.5c0,0,0,1,0,1.3l-0.1,3.6c0,0.3,0.2,0.4,0.4,0.2C67.2,100.9,70.2,98.3,70.2,98.3z"/>
		<path display="inline" fill="#A2A67B" d="M71,98.3c0,0,0.1,0,0.1,0l4.4,2.4L73.4,96c0-0.1,0-0.2,0-0.2l2.9-3.5l-4-0.3
			c-0.1,0-0.1-0.1-0.2-0.1l-1.5-3.6l-1.5,4.4c0,0.1-0.1,0.1-0.1,0.1l-5.2,1.5l3.4,2.1c0.1,0,0.1,0.1,0.1,0.2l-0.2,4.4l3.7-2.5
			C70.9,98.3,71,98.3,71,98.3z"/>
	</g>
	<g display="none">
		<path display="inline" fill="#B8BD7F" d="M73.6,147c0,0,0.4-0.3,0.4-0.3c0,0,0.9,0.1,1.2,0.2c0,0,3.7,2.6,3.5,2.2l-1.8-4.1
			c-0.1-0.2-0.2-0.5-0.2-0.5c0-0.1,0.2-0.3,0.4-0.5l2.7-3c0.2-0.2,0.1-0.4-0.2-0.4L76,140c-0.3,0-0.5-0.1-0.5-0.1
			c0,0-0.1-0.1-0.2-0.4l-1.2-3c-0.1-0.2-0.3-0.3-0.4,0l-1.5,3.8c-0.1,0.2-0.2,0.5-0.2,0.5c0,0-0.3,0.1-0.6,0.2l-4.6,1.4
			c-0.2,0.1,0.4,0.4,0.6,0.5c0,0,3,1.5,3,1.5c0,0,0,1,0,1.3l-0.1,3.6c0,0.3,0.2,0.4,0.4,0.2C70.6,149.6,73.6,147,73.6,147z"/>
		<path display="inline" fill="#A2A67B" d="M74.4,147c0,0,0.1,0,0.1,0l4.4,2.4l-2.1-4.8c0-0.1,0-0.2,0-0.2l2.9-3.5l-4-0.3
			c-0.1,0-0.1-0.1-0.2-0.1l-1.5-3.6l-1.5,4.4c0,0.1-0.1,0.1-0.1,0.1l-5.2,1.5l3.4,2.1c0.1,0,0.1,0.1,0.1,0.2l-0.2,4.4l3.7-2.5
			C74.3,147,74.4,147,74.4,147z"/>
	</g>
	<g>
		<path fill="#5C8E96" d="M30.3,281.7c-2.9,7.9-5.2,16-7,23.6c0,0,0.7,1.1,1.7,2.8c1,0.5,2.4,0.9,4.5,1.4c7.5,1.5,12,1.7,12,1.7
			l-2.8-1l-2-2.8c0.5-7.6,2.1-15.7,4.4-23.6L30.3,281.7z"/>
	</g>
	<path fill="#69BD45" d="M28.1,309.6c0,0-0.3-8.5-9.6-12.9c-3.4-1.6-5.3-1.6-5.3-1.6s6,4.4,7.6,8.3c1.6,3.9,2.3,6.2,2.3,6.2H28.1z"
		/>
	<path fill="#31874C" d="M61.4,300c0,0-5.2-4-10.1-3.5c0,0,5.9,2.4,7.7,5.6l6.3,0.1L61.4,300z"/>
	<path fill="#31874C" d="M143.5,320.4c0,0-1-5.6-5.9-9.2c-4.8-3.6-6.3-2.8-6.3-2.8s3.1-1.5,6-0.1c4.6,2.3,5.9,7.7,5.9,7.7l1.4-15
		l1.4,13.9l6.5-5.9l-6.2,10.9L143.5,320.4z"/>
</g>
<g id="Bucket_Pour_0">
</g>
<g id="Layer_84">
</g>
<g id="Bucket_Pour_1">
</g>
<g id="Bucket_Pour_2_Water_Level_8-10">
</g>
<g id="Bucket_Pour_2_Water_Level_1-7">
</g>
<g id="Bucket_Pour_3">
</g>
<g id="Water_Level_0">
</g>
<g id="Bucket_Pour_3_Water_Level_0">
</g>
<g id="Bucket_Pour_4_Water_Level_0">
</g>
<g id="Water_Level_1">
</g>
<g id="Bucket_Pour_3_Water_Level_1">
</g>
<g id="Bucket_Pour_4_Water_Level_1">
</g>
<g id="Water_Level_2">
</g>
<g id="Bucket_Pour_3_Water_Level_2">
</g>
<g id="Bucket_Pour_4_Water_Level_2">
</g>
<g id="Water_Level_3">
</g>
<g id="Bucket_Pour_3_Water_Level_3">
</g>
<g id="Bucket_Pour_4_Water_Level_3">
</g>
<g id="Water_Level_4">
</g>
<g id="Bucket_Pour_3_Water_Level_4">
	<g id="Bucket_Pour_4_Water_Level_3_copy">
	</g>
</g>
<g id="Bucket_Pour_4_Water_Level_4">
</g>
<g id="Water_Level_5">
</g>
<g id="Bucket_Pour_3_Water_Level_5">
</g>
<g id="Bucket_Pour_4_Water_Level_5">
</g>
<g id="Water_Level_6">
</g>
<g id="Bucket_Pour_3_Water_Level_6">
</g>
<g id="Bucket_Pour_4_Water_Level_6">
</g>
<g id="Water_Level_7">
</g>
<g id="Bucket_Pour_3_Water_Level_7">
</g>
<g id="Bucket_Pour_4_Water_Level_7">
</g>
<g id="Water_Level_8">
</g>
<g id="Bucket_Pour_3_Water_Level_8">
</g>
<g id="Bucket_Pour_4_Water_Level_8">
</g>
<g id="Water_Level_9">
</g>
<g id="Bucket_Pour_3_Water_Level_9">
</g>
<g id="Bucket_Pour_4_Water_Level_9">
</g>
<g id="Water_Level_10">
</g>
<g id="Bucket_Pour_3_Water_Level_10_1_">
</g>
<g id="Bucket_Pour_4_Water_Level_10">
</g>
<g id="Bucket_Pour_0_copy">
</g>
<g id="Layer_69">
</g>
<g id="Puddle_Xtra_Large">
</g>
<g id="Puddle_Large">
</g>
<g id="Puddle_Medium">
</g>
<g id="Puddle_Small">
</g>
<g id="Bucket_Pour_4_1_">
</g>
<g id="Bucket_Pour_4a">
</g>
<g id="Bucket_Pour_5">
</g>
<g id="Rote_x27_s_Leak_1">
</g>
<g id="Rote_x27_s_Leak_2">
</g>
<g id="Rote_x27_s_Leak_3">
</g>
<g id="Rote_x27_s_Leak_4">
</g>
<g id="Barrel_FG">
</g>
<g id="Spigot_Handle_1">
</g>
<g id="Spigot_Handle_2">
</g>
<g id="Rote">
</g>
<g id="Hole_1_Stream_1">
</g>
<g id="Hole_1_Stream_2">
</g>
<g id="Hole_1_Stream_3">
</g>
<g id="Hole_1_Stream_3a">
</g>
<g id="Hole_1_Stream_3b">
</g>
<g id="Hole_2_Stream_1">
</g>
<g id="Hole_2_Stream_2">
</g>
<g id="Hole_2_Stream_3">
</g>
<g id="Hole_2_Stream_4">
</g>
<g id="Hole_2_Stream_5">
</g>
<g id="Hole_2_Stream_5a">
</g>
<g id="Hole_2_Stream_5b">
</g>
<g id="Hole_3_Stream_1_1_">
</g>
<g id="Hole_3_Stream_2_1_">
</g>
<g id="Hole_3_Stream_3_1_">
</g>
<g id="Hole_3_Stream_4_1_">
</g>
<g id="Hole_3_Stream_5">
</g>
<g id="Hole_3_Stream_5a">
</g>
<g id="Hole_3_Stream_5b">
</g>
<g id="Droplets_1">
</g>
<g id="Droplets_2">
</g>
<g id="Droplets_3">
</g>
<g id="Band_Aids">
</g>
<g id="Rote_Screen_FG">
</g>
<g id="Labels">
</g>
</svg>
