<svg width="237" height="323" viewBox="0 0 237 323" fill="none" xmlns="http://www.w3.org/2000/svg" preserveAspectRatio="none">
<path d="M217.991 268.876L191.589 269.676L193.69 280.477C167.088 287.875 87.9885 291.776 22.4895 279.677C22.1877 281.979 22.3876 284.978 24.0891 288.479C24.9908 288.679 25.7907 288.777 26.4886 288.977C74.7876 298.179 141.29 298.379 193.69 291.377C207.989 288.275 224.589 283.578 224.589 283.578L217.991 268.88V268.876Z" fill="#14526C" />
<path d="M212.415 271.754C217.64 283.435 221.975 296.368 224.657 308.433C224.68 308.527 224.661 308.622 224.612 308.701C223.386 310.648 221.458 312.047 219.224 312.598C218.991 312.655 218.745 312.715 218.489 312.776C214.531 313.568 211.411 313.998 209.344 314.224C208.91 314.273 208.77 313.658 209.181 313.511C209.253 313.485 209.313 313.44 209.355 313.379L211.211 310.78C211.26 310.708 211.287 310.625 211.279 310.538C210.472 298.809 207.144 285.921 202.255 274.271C202.168 274.063 202.288 273.826 202.507 273.773L211.988 271.543C212.162 271.502 212.335 271.588 212.411 271.751L212.415 271.754Z" fill="#54BFED" />
<path d="M17.5736 284.936C15.4722 291.075 13.7178 297.266 12.2653 303.193C11.9899 304.313 12.1672 305.494 12.7633 306.479L12.7859 306.52C13.3368 307.43 14.1932 308.109 15.2081 308.426C15.9777 308.667 16.9058 308.909 18.0339 309.176C21.9915 309.969 25.1116 310.399 27.1791 310.625C27.6129 310.674 27.7525 310.059 27.3413 309.916C27.2696 309.889 27.2092 309.844 27.1677 309.784L26.1529 308.361C25.5455 307.513 25.27 306.475 25.3606 305.438C25.968 298.318 27.4997 290.811 29.6351 283.476L22.5159 282.092C20.3918 281.677 18.2753 282.888 17.5736 284.936Z" fill="#1C84AA" />
<g opacity="0.6">
<path d="M226.762 29.9385C227.211 27.9125 227.777 25.4602 228.343 24.8943C229.071 23.9699 230.241 23.5021 231.128 22.8419C231.26 22.7438 231.395 22.6419 231.527 22.5401C232.557 21.7629 233.614 20.8876 234.489 19.4237C235.361 17.9637 236.315 16.0471 236.643 13.01C236.824 11.2104 236.191 9.68245 235.466 8.55062C234.749 7.42256 233.689 6.61519 232.52 6.02664C230.452 4.98912 227.958 4.58921 226.181 4.30625C225.959 4.2723 225.748 4.23834 225.551 4.20439C218.342 2.90278 211.547 2.27273 204.243 1.4729L203.341 1.62758C204.182 3.55924 204.869 5.62295 205.099 7.54706C205.329 9.47118 205.103 11.2142 204.179 12.5611C203.073 14.1041 202.066 16.3527 201.153 18.9597C200.24 21.578 199.414 24.5887 198.682 27.6748C197.218 33.8508 196.112 40.3626 195.414 44.7164C194.762 49.0928 192.758 77.3395 190.91 107.842C189.061 138.353 187.36 171.165 187.311 184.675C187.262 197.736 187.959 215.121 188.673 229.231C189.031 236.29 189.389 242.53 189.657 247.009C189.793 249.246 189.906 251.045 189.985 252.283C190.023 252.902 190.057 253.381 190.076 253.705C190.087 253.868 190.095 253.992 190.102 254.075L190.11 254.169V254.192V254.2C190.11 254.2 190.11 254.2 190.487 254.177L190.11 254.203V254.237L190.121 254.271L194.72 272.471L194.807 272.818L195.158 272.746L222.36 267.246L222.292 266.586C211.2 204.437 213.06 112.306 226.755 29.9347L226.762 29.9385ZM205.525 224.523C206.227 227.092 206.608 230.918 205.077 235.449C204.473 235.09 203.915 234.468 203.488 233.642C202.979 232.661 202.67 231.42 202.67 230.076C202.67 228.582 203.032 227.224 203.62 226.217C204.133 225.33 204.801 224.742 205.529 224.523H205.525ZM201.67 191.175C201.67 189.636 202.077 188.259 202.711 187.278C203.345 186.29 204.167 185.75 204.994 185.75H205.016C205.635 187.791 206.084 191.538 203.915 196.265C203.383 195.952 202.869 195.393 202.466 194.624C201.983 193.707 201.673 192.518 201.673 191.175H201.67ZM204.065 140.839C203.122 139.866 202.47 138.119 202.47 136.078C202.47 134.44 202.903 132.988 203.571 131.958C204.243 130.92 205.114 130.355 205.993 130.355H206.348C206.623 130.426 206.831 130.49 207.016 130.592C207.004 132.181 206.846 134.086 206.389 135.938C205.944 137.749 205.212 139.488 204.065 140.839Z" fill="#86D1F1" />
</g>
<path d="M222.51 267.683C222.212 266.182 221.99 264.556 221.688 263.054L192.509 268.985L196.21 279.986C196.21 279.986 198.312 284.487 198.21 289.686C198.21 289.988 199.01 290.588 199.41 290.588C204.511 289.886 209.51 289.086 214.308 288.286C215.708 288.087 222.111 286.287 226.31 284.887C230.211 283.586 230.509 281.786 230.509 279.088C230.211 265.19 223.612 273.286 222.51 267.687V267.683Z" fill="#54BFED" />
<path d="M208.793 191.175C208.793 188.176 207.291 185.675 205.393 185.377C206.091 187.478 206.695 191.575 204.194 196.778C204.492 196.88 204.794 196.978 205.095 196.978C207.095 196.978 208.797 194.379 208.797 191.179L208.793 191.175Z" fill="#366770" />
<path d="M206.593 224.078H205.691C206.593 226.779 206.993 230.978 205.19 235.977C205.488 236.079 205.79 236.177 206.091 236.177C208.291 236.177 209.992 233.476 209.992 230.077C210.091 226.975 208.593 224.376 206.593 224.078Z" fill="#366770" />
<path d="M207.393 130.377C207.393 133.678 206.793 138.477 204.092 141.379C204.394 141.68 204.794 141.88 205.092 141.978C205.393 142.077 205.691 142.178 205.993 142.178C208.193 142.178 209.894 139.477 209.894 136.078C209.894 133.478 208.895 131.279 207.393 130.377Z" fill="#366770" />
<path d="M233.625 20.5556C233.625 20.5556 232.961 21.7327 231.361 22.6306C229.762 23.5323 228.743 25.1584 228.343 25.4602C227.743 25.962 218.889 23.7738 212.188 23.5738C208.087 23.4757 202.387 23.5738 202.387 23.5738C202.387 23.5738 206.888 19.8727 207.785 18.673C208.687 17.5713 209.585 15.9717 209.585 15.9717C209.585 15.9717 224.804 16.4923 234.002 19.9897L233.625 20.5556Z" fill="#1D85A6" />
<path d="M228.09 272.279C228.09 272.279 224.091 273.98 215.391 276.278C207.593 278.379 202.092 278.877 201.892 278.677C201.79 278.477 199.391 276.078 199.591 276.078C199.791 276.078 210.291 274.776 223.092 271.177C223.092 271.177 223.691 271.377 224.491 271.479C225.691 271.479 227.291 271.479 228.09 272.279Z" fill="#138AA7" />
<path d="M205.265 1.20504C202.119 0.537263 199.18 0.963586 196.954 4.27231C196.535 4.89481 196.26 5.60409 196.139 6.34733C194.883 14.1079 191.468 33.1265 190.895 36.4767C190.593 38.6762 190.193 40.9776 189.895 43.3771L189.676 45.0635C189.567 45.9086 189.22 46.6933 188.722 47.3838C186.62 50.285 187.348 53.7975 187.824 55.3179C188.005 55.9027 188.076 56.5214 188.05 57.1326L187.895 60.7809L186.307 254.856C186.299 255.694 186.073 256.508 185.7 257.263C184.172 260.364 185.805 263.473 186.696 264.805C187.054 265.341 187.299 265.937 187.439 266.563C187.737 267.917 188.265 270.438 188.797 273.482C189.559 277.527 189.974 280.639 190.038 284.155C190.076 286.261 191.381 288.139 193.339 288.92L196.569 290.214C199.357 291.331 202.56 289.901 203.488 287.045C204.699 283.322 204.405 278.315 198.893 274.686C198.191 274.286 198.093 275.187 197.591 271.686C197.452 270.637 197.116 267.544 196.927 265.774C196.848 265.031 196.909 264.277 197.154 263.571C198.369 260.062 197.32 257.282 196.543 255.882C196.109 255.101 195.894 254.222 195.901 253.328L197.188 63.3237C197.188 63.1653 197.195 63.0106 197.21 62.8521L197.629 58.5398C197.723 57.5816 198.071 56.6648 198.655 55.8989C201.006 52.8015 200.24 49.5908 199.561 47.9308C199.21 47.0744 199.07 46.1463 199.183 45.2295V45.1842C199.186 45.1163 199.187 45.0497 199.187 44.9843L199.485 43.0828C199.885 40.0834 200.285 37.1822 200.685 34.4847C201.183 30.9835 202.371 23.4946 205.171 21.5969C211.211 17.726 213.788 8.77322 207.842 2.65001C207.144 1.92942 206.239 1.42764 205.258 1.21636L205.265 1.20504Z" fill="#1C84AA" />
<path d="M18.6451 255.777C18.6451 259.776 18.7432 267.276 18.8451 269.676C18.9432 273.777 12.2465 272.777 12.9444 280.175C13.4462 285.676 20.3428 287.174 20.3428 287.174L29.5446 284.072L28.3449 255.973C25.0437 255.871 21.8444 255.773 18.6451 255.773V255.777Z" fill="#1C84AA" />
<path d="M27.9902 253.875L27.8884 251.476L21.2898 73.3746L21.1879 71.6731C22.4895 69.5716 21.9877 66.7722 20.788 65.1726L19.4864 34.1717C19.4864 34.1717 21.286 29.9726 17.8867 22.5704C14.3894 15.1758 0.0905762 16.0737 0.0905762 29.3765C0.0905762 39.978 6.28924 34.1755 7.08907 42.5774C7.88889 50.7794 8.59063 58.4759 9.28859 65.7762H9.1905C9.1905 65.7762 7.7908 67.3759 7.99076 69.5754C8.09262 70.5752 8.29258 72.1748 9.89223 73.0765L9.99033 74.1782L18.6903 251.378C18.6903 251.378 18.7922 252.777 18.7922 253.577C13.2915 257.878 18.2904 261.277 18.2904 261.277L18.8903 261.877C18.8903 262.379 18.9884 264.579 18.9884 267.778C23.0894 267.676 28.4882 267.178 28.4882 267.178L29.19 260.877C30.1897 258.678 29.0919 256.278 27.9902 253.879V253.875Z" fill="#1C84AA" />
</svg>