<?xml version="1.0" encoding="utf-8"?>
<!-- Generator: Adobe Illustrator 19.2.0, SVG Export Plug-In . SVG Version: 6.00 Build 0)  -->
<svg version="1.1" xmlns="http://www.w3.org/2000/svg" xmlns:xlink="http://www.w3.org/1999/xlink" x="0px" y="0px"
	 viewBox="0 0 15 15" enable-background="new 0 0 15 15" xml:space="preserve" width="15" height="15" preserveAspectRatio="none">
<g id="Rote_Screen_BG">
</g>
<g id="Barrel_and_Bucket__x28_Ground_x29_">
</g>
<g id="Bucket_Pour_0">
</g>
<g id="Layer_84">
</g>
<g id="Bucket_Pour_1">
</g>
<g id="Bucket_Pour_2_Water_Level_8-10">
</g>
<g id="Bucket_Pour_2_Water_Level_1-7">
</g>
<g id="Bucket_Pour_3">
</g>
<g id="Water_Level_0">
</g>
<g id="Bucket_Pour_3_Water_Level_0">
</g>
<g id="Bucket_Pour_4_Water_Level_0">
</g>
<g id="Water_Level_1">
</g>
<g id="Bucket_Pour_3_Water_Level_1">
</g>
<g id="Bucket_Pour_4_Water_Level_1">
</g>
<g id="Water_Level_2">
</g>
<g id="Bucket_Pour_3_Water_Level_2">
</g>
<g id="Bucket_Pour_4_Water_Level_2">
</g>
<g id="Water_Level_3">
</g>
<g id="Bucket_Pour_3_Water_Level_3">
</g>
<g id="Bucket_Pour_4_Water_Level_3">
</g>
<g id="Water_Level_4">
</g>
<g id="Bucket_Pour_3_Water_Level_4">
	<g id="Bucket_Pour_4_Water_Level_3_copy">
	</g>
</g>
<g id="Bucket_Pour_4_Water_Level_4">
</g>
<g id="Water_Level_5">
</g>
<g id="Bucket_Pour_3_Water_Level_5">
</g>
<g id="Bucket_Pour_4_Water_Level_5">
</g>
<g id="Water_Level_6">
</g>
<g id="Bucket_Pour_3_Water_Level_6">
</g>
<g id="Bucket_Pour_4_Water_Level_6">
</g>
<g id="Water_Level_7">
</g>
<g id="Bucket_Pour_3_Water_Level_7">
</g>
<g id="Bucket_Pour_4_Water_Level_7">
</g>
<g id="Water_Level_8">
</g>
<g id="Bucket_Pour_3_Water_Level_8">
</g>
<g id="Bucket_Pour_4_Water_Level_8">
</g>
<g id="Water_Level_9">
</g>
<g id="Bucket_Pour_3_Water_Level_9">
</g>
<g id="Bucket_Pour_4_Water_Level_9">
</g>
<g id="Water_Level_10">
</g>
<g id="Bucket_Pour_3_Water_Level_10_1_">
</g>
<g id="Bucket_Pour_4_Water_Level_10">
</g>
<g id="Bucket_Pour_0_copy">
</g>
<g id="Layer_69">
</g>
<g id="Puddle_Xtra_Large">
</g>
<g id="Puddle_Large">
</g>
<g id="Puddle_Medium">
</g>
<g id="Puddle_Small">
</g>
<g id="Bucket_Pour_4_1_">
</g>
<g id="Bucket_Pour_4a">
</g>
<g id="Bucket_Pour_5">
</g>
<g id="Rote_x27_s_Leak_1">
</g>
<g id="Rote_x27_s_Leak_2">
</g>
<g id="Rote_x27_s_Leak_3">
</g>
<g id="Rote_x27_s_Leak_4">
</g>
<g id="Barrel_FG">
	<g>
		<path fill="#95C3C7" d="M7.9,11.5c0,0,0.4-0.3,0.4-0.3c0,0,0.9,0.1,1.2,0.2c0,0,3.7,2.6,3.5,2.2l-1.8-4.1C11,9.3,10.9,9.1,10.9,9
			c0-0.1,0.2-0.3,0.4-0.5l2.7-3c0.2-0.2,0.1-0.4-0.2-0.4l-3.6-0.5c-0.3,0-0.5-0.1-0.5-0.1c0,0-0.1-0.1-0.2-0.4L8.2,1
			C8.1,0.8,7.9,0.7,7.8,1L6.3,4.8C6.2,5.1,6.2,5.3,6.1,5.3c0,0-0.3,0.1-0.6,0.2L1,7C0.7,7.1,1.4,7.3,1.6,7.5c0,0,3,1.5,3,1.5
			c0,0,0,1,0,1.3l-0.1,3.6c0,0.3,0.2,0.4,0.4,0.2C4.8,14.1,7.9,11.5,7.9,11.5z"/>
		<path fill="#74A5AD" d="M8.7,11.5c0,0,0.1,0,0.1,0l4.4,2.4l-2.1-4.8c0-0.1,0-0.2,0-0.2L14,5.4l-4-0.3C9.9,5.1,9.9,5.1,9.8,5
			L8.3,1.3L6.8,5.8c0,0.1-0.1,0.1-0.1,0.1L1.5,7.4l3.4,2.1C5,9.5,5,9.6,5,9.7l-0.2,4.4l3.7-2.5C8.6,11.6,8.6,11.5,8.7,11.5z"/>
	</g>
</g>
<g id="Spigot_Handle_1">
</g>
<g id="Spigot_Handle_2">
</g>
<g id="Rote">
</g>
<g id="Hole_1_Stream_1">
</g>
<g id="Hole_1_Stream_2">
</g>
<g id="Hole_1_Stream_3">
</g>
<g id="Hole_1_Stream_3a">
</g>
<g id="Hole_1_Stream_3b">
</g>
<g id="Hole_2_Stream_1">
</g>
<g id="Hole_2_Stream_2">
</g>
<g id="Hole_2_Stream_3">
</g>
<g id="Hole_2_Stream_4">
</g>
<g id="Hole_2_Stream_5">
</g>
<g id="Hole_2_Stream_5a">
</g>
<g id="Hole_2_Stream_5b">
</g>
<g id="Hole_3_Stream_1_1_">
</g>
<g id="Hole_3_Stream_2_1_">
</g>
<g id="Hole_3_Stream_3_1_">
</g>
<g id="Hole_3_Stream_4_1_">
</g>
<g id="Hole_3_Stream_5">
</g>
<g id="Hole_3_Stream_5a">
</g>
<g id="Hole_3_Stream_5b">
</g>
<g id="Droplets_1">
</g>
<g id="Droplets_2">
</g>
<g id="Droplets_3">
</g>
<g id="Band_Aids">
</g>
<g id="Rote_Screen_FG">
</g>
<g id="Labels">
</g>
</svg>
