<svg width="1919" height="804" viewBox="0 0 1919 804" fill="none" xmlns="http://www.w3.org/2000/svg" preserveAspectRatio="none"><path fill-rule="evenodd" clip-rule="evenodd" d="M0 0.648438H1918.06V684.863C1918.06 684.863 1540.99 805.182 1174.8 803.919C808.622 802.656 570.662 758.279 438 718.037C305.338 677.795 0 571.124 0 571.124V0.648438Z" fill="#00B2DD" /><mask id="mask0_163_3241" style="mask-type:alpha" maskUnits="userSpaceOnUse" x="0" y="0" width="1919" height="804"><path fill-rule="evenodd" clip-rule="evenodd" d="M0 0.648438H1918.06V684.863C1918.06 684.863 1540.99 805.182 1174.8 803.919C808.622 802.656 570.662 758.279 438 718.037C305.338 677.795 0 571.124 0 571.124V0.648438Z" fill="white" /></mask><g mask="url(#mask0_163_3241)"><path opacity="0.16" fill-rule="evenodd" clip-rule="evenodd" d="M2048.39 636.07C2043.77 640.245 2037.58 643.644 2029.33 645.493L2105.8 668.848L2062.27 601.78C2062.27 601.78 2062.76 611.827 2058.13 622.441L1989.64 570.836L1988.24 575.018L1873.64 488.665L1869.04 473.372L1865.41 475.875L1820.9 330.934L1816.96 327.963L1666.37 325.217L1668.78 333.615L1813.76 336.305L1858.16 481.032L1736.52 567.02L1668.78 333.615L1666.37 325.217L1663.09 313.876L1651.91 321.578L1529.43 229.283L1482.6 76.0081L1478.66 73.0371L1324.87 70.4342L1327.43 78.811L1475.46 81.3794L1520.97 230.165L1399.29 315.316L1401.85 323.693L1525.83 236.916L1644.62 326.434L1444.59 464.209L1401.91 323.608L1399.36 315.231L1327.43 78.811L1324.87 70.4342L1317.63 46.6998L1260.54 214.12L1176.55 150.824C1179.68 140.958 1176.51 129.832 1167.77 123.244C1156.71 114.912 1140.99 117.045 1132.6 128.187C1124.2 139.329 1126.48 155.025 1137.54 163.357C1146.28 169.944 1157.85 169.928 1166.47 164.195L1268.98 241.441L1270.38 237.259L1383.95 322.837L1379.82 309.241L1273.28 228.959L1316.73 101.389L1379.9 309.305L1384.04 322.902L1435.12 491.211L1446.09 483.616L1600.88 486.307L1722.25 577.763L1720.95 573.424L1722.25 577.763L1727.02 594.258L1731.27 591.284L1775.42 735.817L1779.36 738.788L1932.31 741.432L1929.75 733.055L1782.56 730.446L1738.46 586.213L1859.75 500.503L1929.82 732.969L1932.38 741.346L1939.66 765.381L1997.91 598.028L2048.39 636.07ZM1458.04 475.422L1644.51 346.91L1599.46 477.847L1458.04 475.422ZM1607.29 480.655L1654.31 344.078L1718.29 564.296L1607.29 480.655ZM1940.71 711.208L1877.78 502.261L1985.34 583.318L1940.71 711.208Z" fill="white" /></g><mask id="mask1_163_3241" style="mask-type:alpha" maskUnits="userSpaceOnUse" x="0" y="0" width="1919" height="804"><path fill-rule="evenodd" clip-rule="evenodd" d="M0 0.648438H1918.06V684.863C1918.06 684.863 1540.99 805.182 1174.8 803.919C808.622 802.656 570.662 758.279 438 718.037C305.338 677.795 0 571.124 0 571.124V0.648438Z" fill="white" /></mask><g mask="url(#mask1_163_3241)"><g opacity="0.16"><path fill-rule="evenodd" clip-rule="evenodd" d="M394.673 -82.2606L644.472 23.7729L635.988 43.7611L386.188 -62.2725L394.673 -82.2606Z" fill="white" /><path fill-rule="evenodd" clip-rule="evenodd" d="M386.191 -62.2789L406.179 -53.7945L308.624 176.03L288.636 167.545L386.191 -62.2789Z" fill="white" /><path fill-rule="evenodd" clip-rule="evenodd" d="M614.922 11.2295L854.74 113.026L846.256 133.014L606.437 31.2176L614.922 11.2295Z" fill="white" /><path fill-rule="evenodd" clip-rule="evenodd" d="M825.189 100.483L1074.99 206.516L1066.5 226.504L816.705 120.471L825.189 100.483Z" fill="white" /><path fill-rule="evenodd" clip-rule="evenodd" d="M1046.52 218.014L1066.51 226.498L968.952 456.322L948.964 447.838L1046.52 218.014Z" fill="white" /><path fill-rule="evenodd" clip-rule="evenodd" d="M301.18 137.995L321.168 146.479L219.377 386.284L199.389 377.8L301.18 137.995Z" fill="white" /><path fill-rule="evenodd" clip-rule="evenodd" d="M961.507 418.287L981.495 426.772L879.704 666.577L859.716 658.092L961.507 418.287Z" fill="white" /><path fill-rule="evenodd" clip-rule="evenodd" d="M211.933 348.249L231.921 356.733L134.366 586.557L114.378 578.073L211.933 348.249Z" fill="white" /><path fill-rule="evenodd" clip-rule="evenodd" d="M872.26 628.541L892.248 637.026L794.694 866.85L774.706 858.365L872.26 628.541Z" fill="white" /><path fill-rule="evenodd" clip-rule="evenodd" d="M114.378 578.073L364.177 684.106L355.693 704.095L105.893 598.061L114.378 578.073Z" fill="white" /><path fill-rule="evenodd" clip-rule="evenodd" d="M334.627 671.563L574.445 773.36L565.961 793.348L326.142 691.551L334.627 671.563Z" fill="white" /><path fill-rule="evenodd" clip-rule="evenodd" d="M544.894 760.816L794.693 866.85L786.209 886.838L536.41 780.804L544.894 760.816Z" fill="white" /><path fill-rule="evenodd" clip-rule="evenodd" d="M612.773 33.907L619.444 36.7387L523.305 263.227L516.634 260.395L612.773 33.907Z" fill="white" /><path fill-rule="evenodd" clip-rule="evenodd" d="M833.248 127.493L839.919 130.325L743.781 356.813L737.109 353.982L833.248 127.493Z" fill="white" /><path fill-rule="evenodd" clip-rule="evenodd" d="M318.477 152.821L548.288 250.37L545.461 257.028L315.65 159.479L318.477 152.821Z" fill="white" /><path fill-rule="evenodd" clip-rule="evenodd" d="M518.737 237.826L758.555 339.623L755.729 346.282L515.91 244.485L518.737 237.826Z" fill="white" /><path fill-rule="evenodd" clip-rule="evenodd" d="M526.352 237.503L533.023 240.335L434.058 473.482L427.387 470.65L526.352 237.503Z" fill="white" /><path fill-rule="evenodd" clip-rule="evenodd" d="M729.004 327.079L958.816 424.629L955.989 431.287L726.178 333.738L729.004 327.079Z" fill="white" /><path fill-rule="evenodd" clip-rule="evenodd" d="M746.827 331.089L753.498 333.921L654.533 567.068L647.862 564.236L746.827 331.089Z" fill="white" /><path fill-rule="evenodd" clip-rule="evenodd" d="M224.895 373.284L454.706 470.833L451.88 477.492L222.069 379.943L224.895 373.284Z" fill="white" /><path fill-rule="evenodd" clip-rule="evenodd" d="M425.156 458.29L664.974 560.087L662.147 566.745L422.329 464.948L425.156 458.29Z" fill="white" /><path fill-rule="evenodd" clip-rule="evenodd" d="M437.101 447.764L443.772 450.596L347.634 677.084L340.962 674.252L437.101 447.764Z" fill="white" /><path fill-rule="evenodd" clip-rule="evenodd" d="M635.423 547.543L865.235 645.092L862.408 651.751L632.597 554.202L635.423 547.543Z" fill="white" /><path fill-rule="evenodd" clip-rule="evenodd" d="M657.576 541.35L664.247 544.182L568.109 770.67L561.438 767.838L657.576 541.35Z" fill="white" /><path fill-rule="evenodd" clip-rule="evenodd" d="M514.935 195.613L371.041 134.533L495.879 40.4683L514.935 195.612L514.935 195.613ZM399.761 131.008L497.52 172.504L484.569 67.1149L399.761 131.008L399.761 131.008Z" fill="white" /><path fill-rule="evenodd" clip-rule="evenodd" d="M696.751 267.959C695.045 267.235 693.613 265.863 692.87 264.011L644.803 145.04C643.302 141.337 645.093 137.116 648.8 135.624C652.497 134.119 656.731 135.916 658.217 139.621L706.284 258.591C707.786 262.295 705.994 266.516 702.287 268.008C700.439 268.76 698.457 268.684 696.751 267.959L696.751 267.959Z" fill="white" /><path fill-rule="evenodd" clip-rule="evenodd" d="M613.22 232.503C611.514 231.778 610.083 230.406 609.34 228.554C607.838 224.851 609.63 220.63 613.337 219.137L732.308 171.07C736.004 169.566 740.238 171.363 741.724 175.067C743.226 178.771 741.434 182.992 737.727 184.484L618.757 232.551C616.908 233.303 614.927 233.227 613.221 232.503L613.22 232.503Z" fill="white" /><path fill-rule="evenodd" clip-rule="evenodd" d="M354.338 373.916C320.764 359.665 305.041 320.764 319.293 287.19C333.544 253.615 372.449 237.902 406.023 252.154C439.597 266.405 455.32 305.306 441.068 338.88C426.817 372.455 387.912 388.168 354.338 373.916L354.338 373.916ZM400.37 265.47C374.147 254.339 343.74 266.619 332.609 292.842C321.478 319.065 333.767 349.469 359.991 360.6C386.214 371.731 416.62 359.451 427.752 333.228C438.883 307.005 426.594 276.601 400.37 265.47Z" fill="white" /><path fill-rule="evenodd" clip-rule="evenodd" d="M607.885 477.314C606.179 476.59 604.748 475.218 604.005 473.366L555.935 354.402C554.433 350.698 556.225 346.478 559.932 344.985C563.629 343.481 567.862 345.278 569.349 348.982L617.418 467.946C618.92 471.65 617.128 475.871 613.421 477.363C611.573 478.115 609.591 478.039 607.885 477.315L607.885 477.314Z" fill="white" /><path fill-rule="evenodd" clip-rule="evenodd" d="M524.355 441.858C522.648 441.133 521.217 439.761 520.474 437.909C518.972 434.206 520.764 429.985 524.471 428.492L643.439 380.432C647.136 378.927 651.37 380.724 652.856 384.429C654.357 388.132 652.565 392.353 648.858 393.846L529.891 441.906C528.042 442.658 526.061 442.582 524.355 441.858L524.355 441.858Z" fill="white" /><path fill-rule="evenodd" clip-rule="evenodd" d="M774.86 552.418C741.286 538.166 725.564 499.265 739.815 465.691C754.067 432.117 792.971 416.403 826.546 430.655C860.12 444.906 875.829 483.802 861.578 517.376C847.327 550.95 808.435 566.669 774.86 552.418L774.86 552.418ZM820.893 443.972C794.67 432.841 764.263 445.12 753.132 471.344C742.001 497.567 754.29 527.97 780.513 539.101C806.736 550.232 837.13 537.947 848.261 511.724C859.392 485.5 847.116 455.103 820.893 443.972Z" fill="white" /><path fill-rule="evenodd" clip-rule="evenodd" d="M307.986 599.221C306.279 598.497 304.848 597.125 304.105 595.273L256.035 476.309C254.534 472.605 256.325 468.385 260.032 466.892C263.729 465.388 267.963 467.185 269.449 470.889L317.519 589.853C319.021 593.557 317.229 597.778 313.522 599.27C311.673 600.022 309.692 599.946 307.986 599.222L307.986 599.221Z" fill="white" /><path fill-rule="evenodd" clip-rule="evenodd" d="M224.467 563.77C222.76 563.046 221.329 561.673 220.586 559.821C219.085 556.118 220.876 551.897 224.583 550.405L343.551 502.344C347.248 500.839 351.482 502.637 352.968 506.341C354.469 510.044 352.678 514.265 348.971 515.758L230.003 563.818C228.155 564.571 226.173 564.494 224.467 563.77L224.467 563.77Z" fill="white" /><path fill-rule="evenodd" clip-rule="evenodd" d="M546.688 705.383L402.807 644.309L527.633 550.238L546.688 705.383L546.688 705.383ZM431.527 640.784L529.273 682.274L516.322 576.885L431.527 640.783L431.527 640.784Z" fill="white" /><path fill-rule="evenodd" clip-rule="evenodd" d="M685.61 762.679C652.036 748.427 636.314 709.526 650.565 675.952C664.816 642.378 703.721 626.664 737.296 640.916C770.87 655.167 786.579 694.063 772.328 727.637C758.077 761.211 719.185 776.93 685.61 762.679ZM731.643 654.232C705.42 643.101 675.013 655.381 663.882 681.604C652.751 707.828 665.04 738.231 691.263 749.362C717.486 760.493 747.88 748.208 759.011 721.984C770.142 695.761 757.866 665.364 731.643 654.232Z" fill="white" /><path fill-rule="evenodd" clip-rule="evenodd" d="M396.23 275.225C392.548 273.662 390.835 269.422 392.398 265.74L443.7 144.882C445.262 141.2 449.502 139.487 453.184 141.05C456.866 142.613 458.579 146.853 457.016 150.535L405.715 271.393C404.152 275.075 399.912 276.788 396.23 275.225Z" fill="white" /><path fill-rule="evenodd" clip-rule="evenodd" d="M668.03 691.337L522.212 629.441C518.53 627.878 516.817 623.638 518.38 619.956C519.943 616.274 524.183 614.561 527.865 616.124L673.683 678.02C677.365 679.583 679.078 683.823 677.515 687.505C675.952 691.187 671.712 692.9 668.03 691.337Z" fill="white" /></g></g></svg>