<svg width="360" height="57" viewBox="0 0 360 57" fill="none" xmlns="http://www.w3.org/2000/svg" preserveAspectRatio="none"><path fill-rule="evenodd" clip-rule="evenodd" d="M1439.24 178.744C1435.66 175.385 1431.17 173.116 1426.18 172.389C1426.18 171.754 1426.26 171.209 1426.26 170.573C1426.26 148.421 1409.46 130.445 1388.67 130.445C1383.6 130.445 1378.86 131.534 1374.45 133.441C1370.88 128.992 1365.64 126.269 1359.73 126.269C1359.65 126.269 1359.57 126.269 1359.4 126.269C1353.17 113.286 1340.53 104.298 1325.89 104.298C1311.5 104.298 1298.95 112.923 1292.63 125.724C1288.3 121.275 1282.4 118.552 1275.91 118.552C1264.77 118.552 1255.37 126.632 1252.54 137.526C1249.8 136.346 1246.8 135.711 1243.73 135.711C1232.09 135.711 1222.36 144.517 1220.03 156.229C1216.53 154.141 1212.54 152.96 1208.3 152.96C1204.81 152.96 1201.57 153.778 1198.57 155.139C1193.83 147.059 1185.43 141.703 1175.87 141.703C1173.46 141.703 1171.13 142.066 1168.97 142.701C1165.97 139.524 1162.4 136.8 1158.32 134.803C1155.25 133.259 1152 132.261 1148.59 131.716C1149.51 115.556 1141.03 100.031 1126.97 93.1307C1119.57 89.4992 1111.42 88.5914 1103.6 90.4071C1101.11 70.252 1089.13 52.8206 1071.59 44.1957C1053.04 35.1169 1031.75 37.4774 1015.37 50.1877C1009.05 47.5548 1002.15 47.2825 995.664 49.2799C979.863 29.3064 953.003 22.134 929.718 33.5734C923.814 36.4787 918.575 40.3826 914.001 45.1036C914.001 45.1036 914.001 45.1036 913.918 45.1036C906.932 42.4707 899.365 42.5615 892.463 45.376C876.08 32.5748 854.792 30.3051 836.247 39.3839C818.784 48.0088 806.809 65.4403 804.231 85.5953C796.414 83.7796 788.264 84.6875 780.863 88.319C766.809 95.2188 758.327 110.653 759.242 126.904C755.832 127.449 752.589 128.538 749.512 129.991C734.959 137.163 726.394 153.505 727.974 170.21C723.15 170.483 718.494 171.663 714.086 173.842C710.261 175.748 706.851 178.2 703.858 181.286C694.294 175.567 683.151 174.205 672.756 177.473C672.423 177.383 672.174 177.201 671.841 177.11C673.504 171.118 674.419 164.763 674.419 158.135C674.419 121.003 646.228 90.9518 611.468 90.9518C593.755 90.9518 577.788 98.7597 566.395 111.289C559.909 105.569 551.593 102.119 542.528 102.119C533.048 102.119 524.4 105.841 517.83 112.015C512.425 107.021 505.689 103.572 498.205 102.482C498.205 101.574 498.288 100.666 498.288 99.7584C498.288 66.5298 473.007 39.5655 441.906 39.5655C434.338 39.5655 427.103 41.1998 420.534 44.0143C415.212 37.3868 407.311 33.2104 398.497 33.2104C398.33 33.2104 398.164 33.2104 398.081 33.2104C388.767 13.6909 369.724 0.25415 347.769 0.25415C326.148 0.25415 307.354 13.2369 297.874 32.3933C291.304 25.7657 282.489 21.5895 272.76 21.5895C256.045 21.5895 241.908 33.6644 237.666 50.0971C233.508 48.3721 229.101 47.3734 224.361 47.3734C206.814 47.3734 192.178 60.6285 188.769 78.1507C183.53 75.0639 177.542 73.2482 171.139 73.2482C165.9 73.2482 160.994 74.4284 156.503 76.5165C149.434 64.3508 136.794 56.2707 122.408 56.2707C100.204 56.2707 82.2417 75.5178 82.2417 99.2136C82.2417 100.212 82.3249 101.302 82.408 102.3C70.1005 108.02 61.535 121.094 61.535 136.255C61.535 141.884 62.7824 147.241 64.8614 151.962C55.797 154.322 48.1463 160.405 43.4063 168.667C40.1631 168.122 36.7536 167.85 33.344 167.85C16.7953 167.85 1.66034 174.296 -10.0651 184.827C-0.0859833 159.134 -8.23564 128.538 -30.7718 112.741C-36.094 109.019 -41.9983 106.295 -48.1521 104.661C-48.1521 104.661 -48.1521 104.661 -48.1521 104.57C-49.7321 96.9439 -53.8069 90.1348 -59.7112 85.5046C-58.2975 64.0785 -67.6114 43.7419 -84.4927 31.8486C-100.459 20.6817 -120.501 19.0474 -137.715 27.4C-140.209 19.9553 -143.952 13.5093 -149.939 8.87907V212.336C-149.856 212.699 1342.1 212.064 1445.89 211.791C1445.89 211.701 1445.97 175.204 1445.89 175.204C1442.4 176.112 1441.48 176.565 1439.24 178.744Z" fill="white" /></svg>