<svg width="83" height="66" viewBox="0 0 83 66" fill="none" xmlns="http://www.w3.org/2000/svg" preserveAspectRatio="none"><g filter="url(#filter0_d_198_5885)"><path fill-rule="evenodd" clip-rule="evenodd" d="M69.2184 55.7388C70.1672 56.3512 71.4058 56.2637 72.2593 55.5268L73.9139 53.5106C74.4603 52.4451 74.1181 51.1385 73.1168 50.4794C70.1361 48.0821 67.9663 46.2272 66.6091 44.9148C64.2079 42.5525 62.2111 39.8129 60.6965 36.8051C60.401 36.1888 61.1573 35.796 61.55 35.6716C71.3338 32.5607 76.2257 27.0855 76.2257 19.2461C76.3735 14.9744 74.6372 10.8564 71.4738 7.9827C68.2132 5.06041 63.9513 3.50885 59.5746 3.65078C55.1533 3.73244 51.0041 5.80313 48.2821 9.28928C45.2703 12.3574 43.5496 16.4618 43.4738 20.7607C43.4679 32.8251 52.0501 44.4832 69.2184 55.7388ZM31.9848 55.7388C32.9337 56.3512 34.1722 56.2637 35.0257 55.5268L36.6803 53.5106C37.2267 52.4451 36.8845 51.1385 35.8832 50.4794C32.9025 48.0821 30.7327 46.2272 29.3756 44.9148C26.9743 42.5525 24.9775 39.8129 23.4629 36.8051C23.1674 36.1888 23.9237 35.796 24.3165 35.6716C34.1002 32.5607 38.9921 27.0855 38.9921 19.2461C39.1399 14.9744 37.4036 10.8564 34.2402 7.9827C30.9777 5.05846 26.7099 3.50691 22.3313 3.65078C17.91 3.73244 13.7608 5.80313 11.0388 9.28928C8.02702 12.3574 6.30629 16.4618 6.23047 20.7607C6.23241 32.8251 14.8166 44.4832 31.9848 55.7388Z" fill="#FF9A15" /></g><defs><filter id="filter0_d_198_5885" x="0.230469" y="0.641602" width="82.0039" height="64.5034" filterUnits="userSpaceOnUse" color-interpolation-filters="sRGB"><feFlood flood-opacity="0" result="BackgroundImageFix" /><feColorMatrix in="SourceAlpha" type="matrix" values="0 0 0 0 0 0 0 0 0 0 0 0 0 0 0 0 0 0 127 0" result="hardAlpha" /><feOffset dy="3" /><feGaussianBlur stdDeviation="3" /><feColorMatrix type="matrix" values="0 0 0 0 0 0 0 0 0 0 0 0 0 0 0 0 0 0 0.160784 0" /><feBlend mode="normal" in2="BackgroundImageFix" result="effect1_dropShadow_198_5885" /><feBlend mode="normal" in="SourceGraphic" in2="effect1_dropShadow_198_5885" result="shape" /></filter></defs></svg>