<svg width="83" height="65" viewBox="0 0 83 65" fill="none" xmlns="http://www.w3.org/2000/svg" preserveAspectRatio="none"><g filter="url(#filter0_d_198_4291)"><path fill-rule="evenodd" clip-rule="evenodd" d="M69.2189 55.4888C70.1677 56.1012 71.4063 56.0137 72.2598 55.2768L73.9144 53.2606C74.4608 52.1951 74.1186 50.8885 73.1172 50.2294C70.1366 47.8321 67.9668 45.9772 66.6096 44.6648C64.2084 42.3025 62.2116 39.5629 60.697 36.5551C60.4014 35.9388 61.1578 35.546 61.5505 35.4216C71.3343 32.3107 76.2262 26.8355 76.2262 18.9961C76.374 14.7244 74.6377 10.6064 71.4743 7.7327C68.2137 4.81041 63.9518 3.25885 59.5751 3.40078C55.1537 3.48244 51.0046 5.55313 48.2825 9.03928C45.2708 12.1074 43.5501 16.2118 43.4743 20.5107C43.4684 32.5751 52.0506 44.2332 69.2189 55.4888ZM31.9853 55.4888C32.9341 56.1012 34.1727 56.0137 35.0262 55.2768L36.6808 53.2606C37.2272 52.1951 36.885 50.8885 35.8837 50.2294C32.903 47.8321 30.7332 45.9772 29.376 44.6648C26.9748 42.3025 24.978 39.5629 23.4634 36.5551C23.1679 35.9388 23.9242 35.546 24.3169 35.4216C34.1007 32.3107 38.9926 26.8355 38.9926 18.9961C39.1404 14.7244 37.4041 10.6064 34.2407 7.7327C30.9782 4.80846 26.7104 3.25691 22.3318 3.40078C17.9104 3.48244 13.7613 5.55313 11.0392 9.03928C8.0275 12.1074 6.30678 16.2118 6.23096 20.5107C6.2329 32.5751 14.817 44.2332 31.9853 55.4888Z" fill="#00B2DD" /></g><defs><filter id="filter0_d_198_4291" x="0.230957" y="0.391602" width="82.0039" height="64.5034" filterUnits="userSpaceOnUse" color-interpolation-filters="sRGB"><feFlood flood-opacity="0" result="BackgroundImageFix" /><feColorMatrix in="SourceAlpha" type="matrix" values="0 0 0 0 0 0 0 0 0 0 0 0 0 0 0 0 0 0 127 0" result="hardAlpha" /><feOffset dy="3" /><feGaussianBlur stdDeviation="3" /><feColorMatrix type="matrix" values="0 0 0 0 0 0 0 0 0 0 0 0 0 0 0 0 0 0 0.160784 0" /><feBlend mode="normal" in2="BackgroundImageFix" result="effect1_dropShadow_198_4291" /><feBlend mode="normal" in="SourceGraphic" in2="effect1_dropShadow_198_4291" result="shape" /></filter></defs></svg>