<?xml version="1.0" encoding="utf-8"?>
<!-- Generator: Adobe Illustrator 21.0.0, SVG Export Plug-In . SVG Version: 6.00 Build 0)  -->
<svg version="1.1" id="Layer_1" xmlns="http://www.w3.org/2000/svg" xmlns:xlink="http://www.w3.org/1999/xlink" x="0px" y="0px"
	 viewBox="0 0 176 176" enable-background="new 0 0 176 176" xml:space="preserve" width="176" height="176" preserveAspectRatio="none">
<g>
	<circle fill="#00B2DD" cx="88.5" cy="88" r="86"/>
	<g>
		<defs>
			<circle id="SVGID_5_" cx="87.5" cy="88" r="86"/>
		</defs>
		<clipPath id="SVGID_2_">
			<use xlink:href="#SVGID_5_"  overflow="visible"/>
		</clipPath>
		<path clip-path="url(#SVGID_2_)" fill="#0058A8" d="M173.1,224.2c0,0-4.1-0.5-10-1.8c1.3-4.4,4.4-15.3,2.8-15.7
			c-1.6-0.4-8.9,9.1-12.1,13.4c-1.1-0.3-2.2-0.6-3.3-1c1.3-3.8,3.6-10.7,2.2-10.9c-1.2-0.2-6.2,4.9-9.5,8.4c-7.8-3-15.2-7-19.4-12.2
			c-5.2-6.5-8.1-17-9.7-26.7c2.8-2,5.1-4.2,7-6.5c0.7,2.3,1.8,4.1,3.1,4.1c3.5,0,9.9-9.5,12.5-22.5c2.5-13-2-22.5-2-22.5l7.3,8.8
			c0,0,0.8-2.4,1.5-6.1c1.2,3.3,2.1,6.7,2.3,10c0.7,11.8-8.3,28.1-8.3,28.1s-8.4,5.4-9.7,10.7c-1.3,5.3-0.2,7,1.8,7.6
			c2.1,0.6,11.9-13.2,11.9-13.2s-2.6,10.8-0.5,14.9c3.5,6.7,12.1,12,15.7,8.9c3.6-3.2-4.3-7.1-4.3-7.1s19.3,4.5,20.3-0.7
			c1-5.3-11.9-6.7-11.9-6.7s11.2-7.9,8-10.5c-3.2-2.6-15.1,6-15.1,6s10.6-26,4.6-43.8c-3.2-9.6-9.7-16.8-15.1-21.4
			c-2.4-9.4-8.3-15.2-9.6-16.4c1.6,1.4,9.7,8.3,11.6,5.6c6.1-8.7-10.9-21.6-20.3-27.7c0.7-0.5,1.4-1,2.2-1.7l12.8,3
			c0,0,2.3-3.9-6.8-9.4c0.5-0.7,0.9-1.3,1.4-2c0.2-0.4,0.5-0.8,0.7-1.2c0.1-0.1,0.1-0.2,0.2-0.3c0.2-0.3,0.3-0.7,0.5-1
			c0-0.1,0.1-0.2,0.1-0.2c0.2-0.4,0.3-0.8,0.5-1.2c0-0.1,0.1-0.2,0.1-0.3c0.1-0.3,0.2-0.6,0.3-1c0-0.1,0.1-0.2,0.1-0.3
			c0.1-0.4,0.2-0.8,0.3-1.2c0,0,0-0.1,0-0.1c0.1-0.4,0.2-0.7,0.2-1.1c0-0.1,0-0.2,0.1-0.3c0.1-0.3,0.1-0.7,0.2-1c0-0.1,0-0.1,0-0.2
			c0.1-0.4,0.1-0.8,0.1-1.1c0-0.1,0-0.2,0-0.3c0-0.3,0.1-0.6,0.1-0.9c0-0.1,0-0.1,0-0.2c0-0.4,0-0.7,0-1.1c0,0,0-0.1,0-0.1
			c0-0.3,0-0.7,0-1c0-0.1,0-0.1,0-0.2c0-0.7-0.1-1.4-0.1-2c0,0,0,0,0-0.1c-0.3-3.2-1.2-5.2-1.8-5.1c-1.4,0.3-3.1,6.5-8.2,11.9
			c-4.7,5-14.9,5.6-16.3,5.7c-2.3,0-3.7,0.1-3.7,0.1l15.3-7c0,0-6.1-7-19.2-3.9c-5.1,1.2-8.9,3.2-11.7,5.3
			c-3.3-11.6-7.9-27-8.7-26.7c-0.7,0.4-3.3,16.4-5.1,27.8c-6.3-4.1-14.9-8.7-18.3-5.5c-2.3,2.1-0.9,4.9,1.5,7.4
			c-1.8-0.8-3.4-1.8-4.7-3.1c-5.1-5.4-6.8-11.6-8.2-11.9c-0.6-0.1-1.5,2-1.8,5.1c0,0,0,0,0,0.1c-0.1,0.6-0.1,1.3-0.1,2
			c0,0.1,0,0.1,0,0.2c0,0.3,0,0.7,0,1c0,0,0,0,0,0.1c0,0.4,0,0.7,0,1.1c0,0.1,0,0.1,0,0.2c0,0.3,0,0.6,0.1,0.9c0,0.1,0,0.2,0,0.3
			c0,0.4,0.1,0.8,0.1,1.2c0,0.1,0,0.1,0,0.2c0.1,0.3,0.1,0.7,0.2,1c0,0.1,0,0.2,0.1,0.3c0.1,0.4,0.2,0.7,0.2,1.1c0,0,0,0.1,0,0.1
			c0.1,0.4,0.2,0.8,0.3,1.2c0,0.1,0.1,0.2,0.1,0.3c0.1,0.3,0.2,0.6,0.3,1c0,0.1,0.1,0.2,0.1,0.3c0.1,0.4,0.3,0.8,0.5,1.2
			c0,0.1,0.1,0.2,0.1,0.2c0.1,0.3,0.3,0.7,0.5,1c0.1,0.1,0.1,0.2,0.2,0.3c0.2,0.4,0.4,0.8,0.7,1.2c0.8,1.3,1.6,2.4,2.4,3.5
			c-4.5,1.2-8.8,3-11.5,5.3c-7.9,7-8.3,14-8.3,14l19.3-5.2c0,0-7.7,5.1-12.8,15c-6.3,12.2-4.4,17.2-4.4,17.2l2.4-1
			c-0.2,0.4-0.4,0.9-0.6,1.4c-0.8,2.1-1.2,4.3-1.4,6.4c-4.6,4-9.4,9.6-12.3,16.8c-6.9,17.2,2.2,44.2,2.2,44.2s-11.4-9.7-14.7-7.4
			c-3.3,2.3,7.4,11.3,7.4,11.3s-13,0.2-12.2,5.6c0.7,5.4,20.2,2.7,20.2,2.7s-8.1,3.2-4.7,6.7c3.4,3.5,11.7,0.1,16.8-6.8
			c3.7-5.1-0.3-15.5-0.3-15.5s9.1,14.7,11.2,14.3c2.1-0.4,3.2-2,2.2-7.4c-1-5.4-9.1-11.6-9.1-11.6s-8.1-17.1-6.7-28.9
			c0.3-2.9,1.3-6,2.5-8.9c0.7,1.7,1.2,2.7,1.2,2.7l3.3-6.9c-0.5,2.6-0.9,5.3-1.1,8c-2.5,25.2,15.3,31.3,15.3,31.3l-0.3-5.7
			c2.7,4.3,7.3,9,15,12.2c-0.6,7.7-1.3,16.7-1.4,22.8c-0.3,12.7,1.4,24,1.4,24s-10.5-1.7-20.9-0.8c-1.9,0.2-3.7,0.5-5.3,1.1
			c0,0,0,0,0,0c0,0,0,0,0,0c-0.2,0.1-0.3,0.1-0.5,0.2c-0.3,0.1-0.7,0.2-1,0.4c-0.2,0.1-0.4,0.2-0.6,0.3c-0.3,0.1-0.5,0.2-0.7,0.3
			c-0.2,0.1-0.4,0.2-0.6,0.3c-0.2,0.1-0.5,0.2-0.7,0.4c-0.2,0.1-0.4,0.2-0.5,0.3c-0.2,0.1-0.5,0.3-0.7,0.4c-0.2,0.1-0.5,0.3-0.7,0.4
			c-0.2,0.2-0.5,0.3-0.7,0.5c-0.2,0.1-0.3,0.2-0.5,0.3c-0.2,0.1-0.3,0.2-0.5,0.4c-0.1,0.1-0.3,0.2-0.4,0.3c-0.1,0.1-0.3,0.2-0.4,0.3
			c-0.1,0.1-0.2,0.2-0.4,0.3c-0.1,0.1-0.3,0.2-0.4,0.3c-0.1,0.1-0.2,0.2-0.3,0.3c-0.2,0.2-0.4,0.3-0.5,0.5c-0.1,0.1-0.1,0.1-0.2,0.2
			c-0.1,0.1-0.2,0.2-0.2,0.3c-0.1,0.1-0.1,0.1-0.2,0.2c-0.1,0.1-0.1,0.1-0.2,0.2c0,0-0.1,0.1-0.1,0.1c-0.1,0.1-0.1,0.1-0.1,0.1
			c0,0,0,0-0.1,0.1c0,0-0.1,0.1-0.1,0.1l20.7-0.6c0,0-4.5,0.5-8.7,1.6c-0.1,0-0.2,0-0.2,0.1c-0.3,0.1-0.6,0.2-0.9,0.3
			c-0.1,0-0.3,0.1-0.4,0.1c-0.3,0.1-0.5,0.2-0.8,0.3c-0.1,0-0.2,0.1-0.4,0.1c-0.4,0.1-0.7,0.3-1,0.4c-4.5,2-7.9,5.1-7.9,5.1
			s0,0,0.1,0c0,0,0,0,0,0c0,0,0.1,0,0.2,0c0,0,0,0,0,0c1.1,0.1,6.2,0.6,13.3,0.6c0,0,0,0,0,0l0,0c4,0,8.7-0.2,13.6-0.6
			c15-1.4,21.8-4,21.8-4s-7.9-21.2-9.1-37.1c-0.4-4.9-0.2-9.8,0.1-14.3c4.4,9.7,11.6,20.4,23.4,27.4c-2.7,12.4-7,24-7,24
			s6.8,2.5,21.8,4c10.1,1,18.9,0.6,23.6,0.3c0,0,0,0,0,0c0.8-0.1,1.5-0.1,2.1-0.2c0,0,0,0,0.1,0c0.2,0,0.3,0,0.5,0c0,0,0,0,0,0
			c0.1,0,0.3,0,0.4,0c0,0,0,0,0,0c0.1,0,0.2,0,0.3,0c0,0,0,0,0,0c0.1,0,0.1,0,0.1,0c0,0,0,0,0,0c0,0,0.1,0,0.1,0s-3.4-3.1-7.9-5.1
			c-0.3-0.1-0.6-0.3-1-0.4c-0.1,0-0.2-0.1-0.3-0.1c-0.3-0.1-0.5-0.2-0.8-0.3c-0.1,0-0.2-0.1-0.2-0.1c-0.3-0.1-0.6-0.2-0.9-0.3
			c0,0-0.1,0-0.1,0c-4.3-1.2-9.1-1.7-9.1-1.7l20.7,0.6c0,0,0,0,0-0.1c0,0,0-0.1-0.1-0.1c0,0,0-0.1-0.1-0.1c0-0.1-0.1-0.1-0.2-0.2
			c0,0,0,0-0.1-0.1c-1.1-1.3-4.6-4.8-10.1-6.7c0,0,0,0,0,0c0,0,0,0,0,0c-1.8-0.6-3.7-1.1-5.9-1.3c-10.5-0.8-20.9,0.8-20.9,0.8
			s0.6-4,1-9.9C141.7,235,173.1,224.2,173.1,224.2z"/>
	</g>
	<g>
		<g>
			<polygon fill="#00B2DD" points="82.8,94.7 73.7,98.5 69.9,111.5 78.6,113.6 83.6,105 89.6,104 93.6,110.1 90.2,115.8 85.4,121.4
				84.9,130.2 92.2,131.1 95.5,125 101.8,119.5 105.1,113.8 104.5,100.5 96,95.5 			"/>
			<polygon fill="#00B2DD" points="84.5,136.1 81.1,142.5 86.5,149.5 95.5,148 96.1,138.3 90.4,135 			"/>
		</g>
	</g>
</g>
</svg>
