<?xml version="1.0" encoding="utf-8"?>
<!-- Generator: Adobe Illustrator 21.0.0, SVG Export Plug-In . SVG Version: 6.00 Build 0)  -->
<svg version="1.1" id="Layer_1" xmlns="http://www.w3.org/2000/svg" xmlns:xlink="http://www.w3.org/1999/xlink" x="0px" y="0px"
	 viewBox="0 0 176 176" style="enable-background:new 0 0 176 176;" xml:space="preserve" width="176" height="176" preserveAspectRatio="none">
<style type="text/css">
	.st0{fill:#00B2DD;}
	.st1{clip-path:url(#SVGID_2_);fill:#0058A8;}
</style>
<g>
	<g>
		<g>
			<circle id="SVGID_5_" class="st0" cx="88" cy="88" r="86"/>
		</g>
		<g>
			<defs>
				<circle id="SVGID_1_" cx="88" cy="88" r="86"/>
			</defs>
			<clipPath id="SVGID_2_">
				<use xlink:href="#SVGID_1_"  style="overflow:visible;"/>
			</clipPath>
			<path class="st1" d="M140.3,147.7c-1.1-4.1-2.3-6.7-3.3-8.3l2.8-1.2c0,0-0.8-2.6-6-5.8c-2.3-1.5-4.1-2.2-5.5-2.5
				c-0.2-0.7-0.3-1.3-0.5-1.7l0,0l0,0c-1.4-5-3.3-10-5.2-14.3l8.6,4c0,0-3.8-9.4-10.9-14c-0.2-0.2-0.4-0.3-0.7-0.4l6-0.6l-4.6-4.1
				l0,0l10.6-1.4c0,0-3.2-1.7-7.7-3.5c7.3-12.5,15.8-27.5,16.1-30.2c0.5-4.7-16.5-32.5-20.5-32.9c-9.1-1-28,11.9-28,11.9
				s1.5,0.2,3.7,0.5h0.1c0.4,0.1,0.8,0.1,1.2,0.2c0.1,0,0.2,0,0.3,0c0.3,0,0.7,0.1,1,0.1c0.2,0,0.3,0,0.5,0.1c0.3,0,0.7,0.1,1,0.2
				c0.2,0,0.3,0.1,0.5,0.1c0.3,0.1,0.7,0.1,1,0.2c0.1,0,0.3,0,0.4,0.1c0.5,0.1,1,0.2,1.5,0.3l0,0c0.5,0.1,0.9,0.2,1.4,0.3
				c0.1,0,0.3,0.1,0.4,0.1c0.3,0.1,0.6,0.1,0.9,0.2c0.2,0,0.3,0.1,0.5,0.1c0.3,0.1,0.5,0.1,0.7,0.2c0.1,0,0.3,0.1,0.4,0.1
				c0.2,0.1,0.4,0.1,0.6,0.2c0.1,0,0.2,0.1,0.4,0.1c0.2,0.1,0.4,0.1,0.5,0.2c0.1,0,0.2,0.1,0.2,0.1c0.2,0.1,0.4,0.2,0.5,0.3
				c2.1,1.7,5.1,14.7,3,18.3c-1.3,2.2-10,13.9-16.2,22.3c-0.9-1.3-1.9-2.5-3.1-3.6c-1.3-1.2-2.6-2.2-4-3.2l-0.5-0.4v0.6
				c0.3,3.9,0.7,7.9,1,11.8L85.6,88l-0.3-0.3v0.4c0.1,0.8,0.1,1.6,0.2,2.4c-4.8-7.4-18.8-26-20.5-28.9C62.9,58,66,45,68,43.3
				c0.1-0.1,0.3-0.2,0.5-0.3c0.1,0,0.2-0.1,0.2-0.1c0.2-0.1,0.3-0.1,0.5-0.2c0.1,0,0.2-0.1,0.3-0.1c0.2-0.1,0.4-0.1,0.6-0.2
				c0.1,0,0.3-0.1,0.4-0.1c0.3-0.1,0.5-0.1,0.8-0.2c0.1,0,0.3-0.1,0.4-0.1c0.3-0.1,0.7-0.1,1-0.2c0.1,0,0.2,0,0.3-0.1
				c0.9-0.2,1.9-0.4,2.9-0.5c0.1,0,0.2,0,0.3-0.1c0.4-0.1,0.8-0.1,1.2-0.2c0.1,0,0.3,0,0.4-0.1c0.4-0.1,0.7-0.1,1-0.2
				c0.2,0,0.3,0,0.4-0.1c0.3-0.1,0.7-0.1,1-0.1c0.1,0,0.3,0,0.4-0.1c0.3,0,0.7-0.1,1-0.1c0.1,0,0.2,0,0.3,0c0.8-0.1,1.6-0.2,2.2-0.3
				c0,0,0,0,0.1,0c0.9-0.1,1.4-0.2,1.4-0.2S67.1,26.9,57.9,28c-3.9,0.5-21,28.2-20.5,32.9c0.4,3.8,17.7,33.1,24.2,44
				c-0.9,1-1.7,2-2.5,3.1c-0.9,1.3-1.7,2.6-2.5,4l-0.4,0.7l0.7-0.2c1.6-0.5,3.2-1,4.8-1.5c-3.3,4.8-6.7,10.8-9.2,17.3l4,1.5l0,0
				l-4-1.5l0,0c0,0.1,0,0.1-0.1,0.2c-0.2,0.4-0.3,0.9-0.5,1.3l0,0c-1.4,0.3-3.3,1.1-5.8,2.6c-5.2,3.3-6,5.8-6,5.8l2.8,1.2
				c-1,1.7-2.2,4.3-3.3,8.3c-3,10.6,4.3,24.2,4.3,24.2l0.9-5.2l7.3,4.7l-1.5-4.9l1.8,0.3c2.9,7.9,6.7,11.8,6.7,11.8l13.3-0.2
				c-1.9,4-4.2,8.6-5.6,12c-1.4-0.2-3.1-0.1-4.9,0.3c-7.5,1.9-9.7,6.7-9.7,6.7l9.2-1.6c-1,1.1-1.4,2-1.4,2l12-2.1
				c-1.9,1.7-2.7,3.2-2.7,3.2l20.5-3.5c0,0,0,0,0.1,0c0.9,0,1.7,0,2.3,0L113,199c0,0-0.7-1.5-2.7-3.2l12,2.1c0,0-0.4-0.9-1.4-2
				l9.2,1.6c0,0-2.2-4.9-9.7-6.7c-1.5-0.4-2.9-0.5-4.1-0.4l-4.7-12.5l13-0.2c0,0,1.4-3.9,2.9-10.9l1.7-0.3l-1.5,4.9l7.3-4.7l0.9,5.2
				C135.9,171.9,143.3,158.4,140.3,147.7z M91.7,190.5l-4.5-11.9c0.1,0,0.1,0,0.2,0c3.4,0.1,6.7,0,10-0.3
				C95.4,182.3,93.2,187.1,91.7,190.5z"/>
		</g>
	</g>
	<g>
		<g>
			<polygon class="st0" points="85.7,109.4 77.5,112.8 74.1,124.6 81.9,126.4 86.4,118.7 91.8,117.8 95.4,123.3 92.4,128.4 
				88.1,133.5 87.6,141.4 94.1,142.2 97.2,136.7 102.8,131.8 105.8,126.7 105.3,114.7 97.6,110.2 			"/>
			<polygon class="st0" points="87.2,146.7 84.2,152.5 89.1,158.8 97.1,157.5 97.7,148.7 92.6,145.7 			"/>
		</g>
	</g>
</g>
</svg>
