<svg xmlns="http://www.w3.org/2000/svg" viewBox="0 0 40 40" width="40" height="40" preserveAspectRatio="none"><defs><style>.cls-1{fill:#1b365d;}.cls-2{fill:#fff;}</style></defs><g data-name="Isolation Mode"><path class="cls-1" d="M38.94,21.82V32.17c0,1.31-.62,1.78-1.88,1.43A28.17,28.17,0,0,0,20.62,34a2.2,2.2,0,0,1-1.22,0A28.17,28.17,0,0,0,3,33.6c-1.27.35-1.9-.11-1.9-1.41q0-10.35,0-20.7A1.76,1.76,0,0,1,2,9.72a.53.53,0,0,0,.26-.4c-.05-.66.39-.92.87-1.17a17.15,17.15,0,0,1,16.25-.29,1.35,1.35,0,0,0,1.32,0,17.13,17.13,0,0,1,16.24.27c.48.25.92.51.88,1.17,0,.14.17.35.32.44a1.7,1.7,0,0,1,.84,1.65C38.93,14.87,38.94,18.35,38.94,21.82Z" /><path class="cls-2" d="M37.05,12.33a18.89,18.89,0,0,0-15.34-.07,2,2,0,0,0,0,.26c0,.91,0,1.83,0,2.75a18.83,18.83,0,0,1,15.35.06v-3Z" /><path class="cls-2" d="M37.05,19.33a18.89,18.89,0,0,0-15.34-.07,2,2,0,0,0,0,.26c0,.91,0,1.83,0,2.75a18.83,18.83,0,0,1,15.35.06v-3Z" /><path class="cls-2" d="M37.05,26.33a18.89,18.89,0,0,0-15.34-.07,2,2,0,0,0,0,.26c0,.91,0,1.83,0,2.75a18.83,18.83,0,0,1,15.35.06v-3Z" /><path class="cls-2" d="M18.31,12.33A18.89,18.89,0,0,0,3,12.26a2,2,0,0,0,0,.26v2.75a18.86,18.86,0,0,1,15.36.06v-3Z" /><path class="cls-2" d="M18.31,19.33A18.89,18.89,0,0,0,3,19.26a2,2,0,0,0,0,.26v2.75a18.86,18.86,0,0,1,15.36.06v-3Z" /><path class="cls-2" d="M18.31,26.33A18.89,18.89,0,0,0,3,26.26a2,2,0,0,0,0,.26v2.75a18.86,18.86,0,0,1,15.36.06v-3Z" /></g></svg>