<?xml version="1.0" encoding="utf-8"?>
<!-- Generator: Adobe Illustrator 21.0.0, SVG Export Plug-In . SVG Version: 6.00 Build 0)  -->
<svg version="1.1" xmlns="http://www.w3.org/2000/svg" xmlns:xlink="http://www.w3.org/1999/xlink" x="0px" y="0px"
	 viewBox="0 0 100 100" enable-background="new 0 0 100 100" xml:space="preserve" width="100" height="100" preserveAspectRatio="none">
<pattern  x="1045.7" y="1262.7" width="69.3" height="120" patternUnits="userSpaceOnUse" id="BrandArgyle" viewBox="0 0 69.3 120" overflow="visible">
	<g transform="translate(0 120)">
		<rect y="-120" fill="none" width="69.3" height="120"/>
		<polyline fill="#0058A8" points="0,-120 17.3,-90 34.6,-120 		"/>
		<polyline fill="#0058A8" points="34.6,-120 52,-90 69.3,-120 		"/>
		<polyline fill="#ED1940" points="0,-60 17.3,-90 0,-120 		"/>
		<polygon fill="#00B2DD" points="34.6,-120 17.3,-90 34.6,-60 52,-90 		"/>
		<polyline fill="#ED1940" points="69.3,-120 52,-90 69.3,-60 		"/>
		<polygon fill="#0058A8" points="17.3,-90 0,-60 17.3,-30 34.6,-60 		"/>
		<polygon fill="#0058A8" points="52,-90 34.6,-60 52,-30 69.3,-60 		"/>
		<polyline fill="#00B2DD" points="0,0 17.3,-30 0,-60 		"/>
		<polygon fill="#ED1940" points="34.6,-60 17.3,-30 34.6,0 52,-30 		"/>
		<polyline fill="#00B2DD" points="69.3,-60 52,-30 69.3,0 		"/>
		<polyline fill="#0058A8" points="34.6,0 17.3,-30 0,0 		"/>
		<polyline fill="#0058A8" points="69.3,0 52,-30 34.6,0 		"/>
		<path fill="#E6BF4E" d="M52.3,0h-0.6l0,0l-17-29.5L17.6,0l0,0H17l0,0L0-29.5v-1L17-60L0-89.5v-1L17-120h0.6l17,29.5l17-29.5h0.6
			l17,29.5v1L52.3-60l17,29.5v1L52.3,0L52.3,0z M34.9-90l17,29.5L69-90l-17-29.5L34.9-90z M17.3-60.5l17-29.5l-17-29.5L0.3-90
			L17.3-60.5z M34.4-30l-17-29.5L0.3-30l17,29.5L34.4-30z M34.6-30.5l17-29.5l-17-29.5L17.6-60L34.6-30.5z M52-0.5L69-30L52-59.5
			L34.9-30L52-0.5z"/>
	</g>
</pattern>
<g id="BG_Purple_2">
	<pattern  id="SVGID_1_" xlink:href="#BrandArgyle" patternTransform="matrix(0.9999 0 0 1 2315.2434 -457.2443)">
	</pattern>
	<path fill="url(#SVGID_1_)" d="M100,0C74.6,2.4,53.5,13.6,33.6,33.6S2.4,74.6,0,100c3.6-10.1,37-38.5,65.1-34.9c0,0,0,0,0,0
		c0,0,0,0,0,0l0,0c0,0,0,0,0,0C61.5,37,89.9,3.6,100,0z"/>
</g>
</svg>
