<?xml version="1.0" encoding="utf-8"?>
<!-- Generator: Adobe Illustrator 21.0.0, SVG Export Plug-In . SVG Version: 6.00 Build 0)  -->
<!DOCTYPE svg PUBLIC "-//W3C//DTD SVG 1.1//EN" "http://www.w3.org/Graphics/SVG/1.1/DTD/svg11.dtd">
<svg version="1.1" id="Header_Buttons" xmlns="http://www.w3.org/2000/svg" xmlns:xlink="http://www.w3.org/1999/xlink" x="0px"
	 y="0px" viewBox="0 0 40 40" enable-background="new 0 0 40 40" xml:space="preserve" width="40" height="40" preserveAspectRatio="none">
<path fill="#FFFFFF" d="M20,5C11.7,5,5,11.7,5,20c0,8.3,6.7,15,15,15c8.3,0,15-6.7,15-15C35,11.7,28.3,5,20,5z M28.8,21.2h-7.6v7.6
	c0,0.7-0.5,1.2-1.2,1.2s-1.2-0.5-1.2-1.2v-7.6h-7.6c-0.7,0-1.2-0.5-1.2-1.2c0-0.7,0.5-1.2,1.2-1.2h7.6v-7.6c0-0.7,0.5-1.2,1.2-1.2
	s1.2,0.5,1.2,1.2v7.6h7.6c0.7,0,1.2,0.5,1.2,1.2C30,20.7,29.5,21.2,28.8,21.2z"/>
</svg>
