<?xml version="1.0" encoding="utf-8"?>
<!-- Generator: Adobe Illustrator 21.0.0, SVG Export Plug-In . SVG Version: 6.00 Build 0)  -->
<!DOCTYPE svg PUBLIC "-//W3C//DTD SVG 1.1//EN" "http://www.w3.org/Graphics/SVG/1.1/DTD/svg11.dtd">
<svg version="1.1" id="Header_Buttons" xmlns="http://www.w3.org/2000/svg" xmlns:xlink="http://www.w3.org/1999/xlink" x="0px"
   y="0px" viewBox="0 0 40 30" enable-background="new 0 0 40 30" xml:space="preserve" width="40" height="30" preserveAspectRatio="none">
 <g>
  <title>Layer 1</title>
  <path transform="rotate(180 28.8,15.3) " id="svg_1" d="m36.8,12.5c0,4.4 -3.6,8 -8,8c0.4,1.9 2.2,4.2 3.9,5.6c-6.3,0 -11.9,-4.1 -11.9,-13.6c0,-4.4 3.6,-8 8,-8c4.4,0 8,3.6 8,8z" fill="#4D8EC5"/>
  <path transform="rotate(180 11.3,15.3) " id="svg_2" d="m19.2,12.5c0,4.4 -3.6,8 -8,8c0.4,1.9 2.2,4.2 3.9,5.6c-6.3,0 -11.9,-4.1 -11.9,-13.6c0,-4.4 3.6,-8 8,-8c4.4,0 8,3.6 8,8z" fill="#4D8EC5"/>
 </g>
</svg>
