<?xml version="1.0" encoding="utf-8"?>
<!-- Generator: Adobe Illustrator 21.0.0, SVG Export Plug-In . SVG Version: 6.00 Build 0)  -->
<!DOCTYPE svg PUBLIC "-//W3C//DTD SVG 1.1//EN" "http://www.w3.org/Graphics/SVG/1.1/DTD/svg11.dtd">
<svg version="1.1" id="Header_Buttons" xmlns="http://www.w3.org/2000/svg" xmlns:xlink="http://www.w3.org/1999/xlink" x="0px"
	 y="0px" viewBox="0 0 246.5 16.2" enable-background="new 0 0 246.5 16.2" xml:space="preserve" width="246.5" height="16.2" preserveAspectRatio="none">
<path fill="#FFC640" d="M212.7,6.1c-5.3,0.5-10.6,0.9-16,1.3l-8,0.5l-2,0.1l-0.3,0c-0.2,0-0.3,0.1-0.4,0.1c-0.2,0.1-0.3,0.3-0.4,0.5
	c-0.2,0.3-0.4,0.6-0.5,1c-0.4,1-0.7,2.1-0.9,3.1c-1-1.3-2-2.6-3.3-3.8c-0.2-0.2-0.4-0.3-0.7-0.4c-0.1-0.1-0.4-0.1-0.5-0.1l-0.4,0
	l-1.4,0.1L175,8.6l-11.6,0.5l-11.6,0.3L146,9.5l-5.8,0c-15.5,0.2-31-0.1-46.4-0.5L82.1,8.7L70.5,8.2c-7.7-0.4-15.5-0.8-23.2-1.3
	c-15.4-1-30.9-2.1-46.3-3.8C16.4,5,31.9,6.5,47.3,7.6C55,8.1,62.8,8.6,70.5,9l11.6,0.5L93.7,10c15.5,0.5,31,0.8,46.5,0.5l5.8-0.1
	l5.8-0.2l11.6-0.3L175,9.5l2.9-0.1l1.5-0.1c0.2,0,0.5,0,0.6,0c0.1,0.1,0.3,0.2,0.5,0.3c1.4,1.2,2.6,2.8,3.7,4.3l0.5,0.7l0.2-0.9
	c0.3-1.3,0.6-2.6,1-3.8c0.1-0.3,0.3-0.6,0.4-0.8c0.1-0.1,0.2-0.2,0.2-0.3c0,0,0,0,0,0l0.2,0l2-0.1l8-0.6c5.3-0.4,10.7-0.9,16-1.5
	c10.6-1.1,21.2-2.5,31.8-4.3C234,3.9,223.4,5.1,212.7,6.1z"/>
</svg>
