<svg id="Header_Buttons" data-name="Header Buttons" xmlns="http://www.w3.org/2000/svg" viewBox="0 0 246.49 11.56" width="246.49" height="11.56" preserveAspectRatio="none"><title>Underline Medium</title><path d="M1.06,10.83Q8.62,9.78,16.21,8.95c5.06-.58,10.12-1.09,15.18-1.59S41.53,6.48,46.6,6L61.82,4.93c20.31-1.33,40.67-2,61-2.2l15.27,0,15.27.3c5.09,0,10.17.33,15.26.52s10.18.35,15.25.78c20.33,1.2,40.58,3.46,60.7,6.49l-15.17-1.6c-2.53-.26-5.05-.58-7.58-.78l-7.6-.58C209.17,7.5,204.11,7,199,6.7l-15.22-.82c-20.3-.88-40.63-1.47-61-1.16-20.32.07-40.65.73-61,1.74L46.69,7.3c-5.07.35-10.15.64-15.22,1C21.32,9,11.19,9.87,1.06,10.83Z" fill="#FFFFFF"/></svg>