<?xml version="1.0" encoding="utf-8"?>
<!-- Generator: Adobe Illustrator 19.2.0, SVG Export Plug-In . SVG Version: 6.00 Build 0)  -->
<!DOCTYPE svg PUBLIC "-//W3C//DTD SVG 1.1//EN" "http://www.w3.org/Graphics/SVG/1.1/DTD/svg11.dtd">
<svg version="1.1" xmlns="http://www.w3.org/2000/svg" xmlns:xlink="http://www.w3.org/1999/xlink" x="0px" y="0px"
	 viewBox="0 0 190 180" enable-background="new 0 0 190 180" xml:space="preserve" width="190" height="180" preserveAspectRatio="none">
<g id="back_water" display="none">
</g>
<g id="Waves_Background">
</g>
<g id="front_water" display="none">
</g>
<g id="front_waves">
</g>
<g id="left_bank">
</g>
<g id="right_bank">
</g>
<g id="splash_1">
	<rect x="-227.7" y="153.7" fill="#009DB5" width="1150" height="39.9"/>
	<path fill="#56C5D0" d="M55.2,150.4c0,0,13.1-10,2.7-15.9c-21.8-12.3,9.4-6.7,9.4-6.7s2.1-13.2-14.3-14c-16.4-0.8-6.9-6.3-6.9-6.3
		S74,95.9,78.6,116c0,0,0.5-14.8,12.5-13.2s19,8.3,19,8.3s5.1-4.2,16.2-4.5c11.1-0.3,37-7,37,5.8s-25.9,15.5-25.9,15.5
		s-10.4,0-10,9.4c0.6,12.4,11,14.8,17.8,15.1c3.9,0.1,5.8,4.9,3,7.7c-4.7,4.8-18.6,9.9-48,10.3C45.3,170.8-1.1,158.1,55.2,150.4z"/>
	<path fill="#009DB5" d="M60.3,151.4c0.5-0.1,0.9-0.3,1.3-0.6c2.2-2,9.7-9.8,1.8-14.6c-15.2-9.3-1.1-7.9,5.4-6.9
		c1.6,0.3,3-1.2,2.8-2.8c-0.5-3.8-2.9-9.6-12.5-10.1c-13-0.7-7.5-5-6.2-5.9c0.1-0.1,0.3-0.2,0.4-0.2c2-0.9,18.5-7.5,25.6,1.9
		c1.2,1.5,3.5,1.2,4.3-0.6c1.4-3.3,4.2-6.5,9.4-5.7c7.6,1.1,13,4.8,15.4,6.7c0.8,0.7,1.9,0.7,2.8,0.2c2-1.2,6.2-3.1,12.8-3.3
		c9.7-0.3,32.5-6.7,32.5,5.5s-23.2,8-23.2,8s-10.4-1.8-8.4,15.7c1.6,13.5,13,15.6,18.3,15.4c1.7-0.1,2.9,0.5,2.5,2.1
		c-1.3,4.9-10.4,11.6-44.9,12C52.3,168.8,11.9,158.7,60.3,151.4z"/>
	<path fill="#009DB5" d="M32.4,111c5-0.5,10,1.4,9.9,1.4c0.1,0-3.3,1.2-6.8,4.1c-3.6,2.7-7.3,7-8.8,8.6c-3.5,3-6.7,3.8-8.4,0.7
		C16.6,122.8,20.7,112.2,32.4,111z"/>
	<path fill="#56C5D0" d="M31.6,112.5c-0.1,0-0.2,0-0.3,0c-9.4,0.9-12.7,9.5-11.3,11.9c0.6,1,1.3,1.5,2.2,1.6
		c-0.1-0.1-0.2-0.2-0.2-0.4C22.3,116.2,31.4,113.1,31.6,112.5z"/>
	<path fill="#009DB5" d="M46.9,103.5c2.4,3,3.3,7,3.3,6.9c0,0.1-2.2-1.6-5.5-2.6c-3.2-1.1-7.5-1.7-9.2-2c-3.4-1-5.2-2.7-4-5.1
		C32.7,98.3,41.2,96.5,46.9,103.5z"/>
	<path fill="#009DB5" d="M99.2,102.1c-2.4,5.9-1.5,12.6-1.5,12.5c0,0.1,2.8-3.5,7.9-6.5c4.8-3.2,12-5.9,14.7-7.2
		c5.3-3,7.4-6.5,3.9-9.9C120.6,87.7,104.8,88.5,99.2,102.1z"/>
	<path fill="#56C5D0" d="M103.1,103.5c0-0.1,0-0.2,0.1-0.3c2.5-10.3,13-12.9,15.7-11c1.1,0.8,1.6,1.7,1.5,2.6
		c-0.1-0.1-0.2-0.3-0.4-0.3C108.7,93.7,103.7,103.3,103.1,103.5z"/>
	<path fill="#56C5D0" d="M94.5,160.1c-13.9,0.2-26.4-0.4-34.9-1.5c2.3,2.8,17.1,4.9,35,4.6c17.9-0.3,32.6-2.7,34.8-5.6
		C120.8,159,108.4,159.9,94.5,160.1z"/>
	<path fill="#56C5D0" d="M96.2,171.8c-25,0.5-45.8-1.6-61.4-4.4c4.1,3,29.2,8.3,61.5,7.7c32.2-0.6,58.9-5.6,62.9-8.7
		C145.5,169,121.3,171.3,96.2,171.8z"/>
	<path fill="#009DB5" d="M48.1,124.4c8,0.3,15.4,4.4,15.2,4.3c0.1,0.1-5.4,1.2-11.5,5c-6.1,3.5-12.9,9.5-15.7,11.6
		c-6.1,4-11.3,4.5-13.3-0.7C20.8,139.6,29.5,123.8,48.1,124.4z"/>
	<path fill="#56C5D0" d="M46.5,126.6c-0.2,0-0.3,0-0.5,0c-14.9-0.5-22,12.2-20.3,16.3c0.7,1.7,1.7,2.6,3.1,2.9
		c-0.1-0.2-0.3-0.4-0.3-0.6C31.2,130.4,46.1,127.4,46.5,126.6z"/>
	<path fill="#009DB5" d="M133.8,125.5c-7.5,1.5-14.1,6.6-14,6.5c-0.1,0.1,5.2,0.3,11.2,3c6,2.4,12.8,7.1,15.6,8.7
		c6,2.9,11,2.6,12.5-2.7C160.7,135.8,151.3,121.9,133.8,125.5z"/>
	<path fill="#56C5D0" d="M135.5,127.3c0.2,0,0.3-0.1,0.5-0.1c14-2.8,21.6,8.3,20.3,12.5c-0.5,1.7-1.4,2.8-2.7,3.3
		c0.1-0.2,0.3-0.4,0.2-0.7C150.2,128.5,136,128,135.5,127.3z"/>
	<path fill="#009DB5" d="M71.8,97.7c5.1,3.8,8.7,9.7,8.6,9.6c0.1,0.1-3.9-1.7-9-2c-5-0.6-11.2,0.3-13.6,0.4
		c-5.1-0.2-8.7-2.2-8.5-6.4C49.6,95.1,59.9,88.9,71.8,97.7z"/>
	<path fill="#56C5D0" d="M70.2,98.3c-0.1-0.1-0.2-0.2-0.3-0.2c-9.5-7-17.9-2.1-18,1.3c-0.1,1.4,0.4,2.5,1.2,3.3c0-0.2-0.1-0.4,0-0.5
		C59.1,93.8,69.6,98.7,70.2,98.3z"/>
	<path fill="#56C5D0" d="M117.4,125.1c0.1-0.2,0.2-0.4,0.3-0.6c10.3-16.7,28.5-13.9,31.6-8.7c1.3,2.1,1.4,4,0.7,5.8
		c-0.1-0.3-0.2-0.7-0.5-0.9C132.5,111.5,118.6,125.2,117.4,125.1z"/>
	<path fill="#56C5D0" d="M102.1,129c0.1,0,0.2-0.1,0.3-0.1c10-3.3,14.7,6.3,13.6,10.2c-0.4,1.6-1.2,2.6-2.1,3.1
		c0.1-0.2,0.2-0.4,0.2-0.6C112.4,129.4,102.4,129.6,102.1,129z"/>
	<path fill="#009DB5" d="M88.3,53.3c2.8,7.1,8.3,7.5,9.9,1.1c1.3-6.4,4.8-13.9,5.9-16.9c1.8-6.4,0.6-11.2-4.8-11.8
		C93.8,25,81.8,36.7,88.3,53.3z"/>
	<path fill="#56C5D0" d="M89.8,51.3c-0.1-0.1-0.1-0.3-0.2-0.4c-5.2-13.3,4.4-22.7,8.8-22.2c1.8,0.2,3,0.9,3.7,2.1
		c-0.2,0-0.5-0.2-0.7-0.1C88.5,36.6,90.4,50.7,89.8,51.3z"/>
	<path fill="#009DB5" d="M96.9,84c-2,2.7-4.2,2.9-4.1,0.5c0.2-2.4-0.3-5.2-0.4-6.4c0.1-2.4,1.1-4.3,3.4-4.5
		C98.1,73.3,101.5,77.6,96.9,84z"/>
</g>
<g id="splash_2">
</g>
<g id="splash_3">
</g>
<g id="inflatible_trampoline">
</g>
<g id="Waves_Foreground">
</g>
<g id="standing_idle_1">
</g>
</svg>
