<?xml version="1.0" encoding="utf-8"?>
<!-- Generator: Adobe Illustrator 19.2.0, SVG Export Plug-In . SVG Version: 6.00 Build 0)  -->
<!DOCTYPE svg PUBLIC "-//W3C//DTD SVG 1.1//EN" "http://www.w3.org/Graphics/SVG/1.1/DTD/svg11.dtd">
<svg version="1.1" xmlns="http://www.w3.org/2000/svg" xmlns:xlink="http://www.w3.org/1999/xlink" x="0px" y="0px"
	 viewBox="0 0 190 180" enable-background="new 0 0 190 180" xml:space="preserve" width="190" height="180" preserveAspectRatio="none">
<g id="back_water" display="none">
</g>
<g id="Waves_Background">
</g>
<g id="front_water" display="none">
</g>
<g id="front_waves">
</g>
<g id="left_bank">
</g>
<g id="right_bank">
</g>
<g id="splash_1">
	<rect x="-893.4" y="153.7" fill="#009DB5" width="1150" height="39.9"/>
	<path fill="#009DB5" d="M72.9,140.7c2,0.7,3.4,2.3,3.4,2.3c0,0-1.4-0.1-3.3,0.3c-1.8,0.3-4,1.3-4.8,1.6c-1.8,0.5-3.2,0.2-3.2-1.3
		C65,142.2,68.4,139,72.9,140.7z"/>
	<path fill="#56C5D0" d="M72.4,141.1c0,0-0.1,0-0.1,0c-3.6-1.3-6.4,1.2-6.3,2.3c0,0.5,0.2,0.8,0.5,1c0-0.1-0.1-0.1,0-0.2
		C68.3,140.8,72.2,141.3,72.4,141.1z"/>
	<path fill="#009DB5" d="M75.8,135.6c1,1.2,1.3,2.9,1.3,2.8c0,0-0.9-0.6-2.3-1.1c-1.3-0.5-3.1-0.7-3.8-0.8c-1.4-0.4-2.1-1.1-1.6-2.1
		C70,133.5,73.5,132.7,75.8,135.6z"/>
	<path fill="#009DB5" d="M106.1,131.7c-1.1,1.2-1.6,2.8-1.5,2.7c0,0,0.9-0.6,2.3-0.9c1.3-0.4,3.1-0.4,3.8-0.5c1.4-0.3,2.2-0.9,1.8-2
		C112.1,130,108.7,129,106.1,131.7z"/>
	<path fill="#009DB5" d="M81.7,157.5c-0.4-1.6-0.4-3.1,0-5.4c1.1-5.4-6.1-10.8-2.5-12.6c3.6-1.8,11.5,11.8,11.5,11.8
		s-5.4-13.2-3.2-20.4c2.2-7.2,10.4-11.8,15.1-7.5c4.7,4.3-6.8,12.2-9,18.7c-2.2,6.5,1.8,10.8,1.8,10.8s1.5-9.5,7.5-14.3
		c3.6-2.9,10.4-2.9,11.5,0.7c1.2,3.9-12.6,5.7-15.4,11.5c-0.7,1.4-0.7,2.6-0.2,3.7c1,2.6-1,5.3-3.7,5.2
		C95,159.6,82.5,160.6,81.7,157.5z"/>
	<path fill="#56C5D0" d="M89.1,132.2c0-0.1,0-0.2,0-0.2c1.8-7.5,9.4-9.3,11.4-8c0.8,0.5,1.1,1.2,1.1,1.9c-0.1-0.1-0.2-0.2-0.3-0.2
		C93.2,125,89.6,132,89.1,132.2z"/>
	<path fill="#009DB5" d="M81.2,148.3c2.7,1.9,4.4,4.9,4.3,4.9c0,0.1-2.2-0.8-5.1-0.8c-2.9-0.2-6.6,0.5-8,0.6c-3,0-4.9-0.9-4.5-3.2
		C68.3,147.5,74.8,143.9,81.2,148.3z"/>
	<path fill="#56C5D0" d="M80.1,148.7c-0.1,0-0.1-0.1-0.2-0.1c-5.1-3.5-10.3-0.6-10.7,1.2c-0.1,0.7,0,1.3,0.4,1.7c0-0.1,0-0.2,0-0.3
		C73.9,146.6,79.8,148.9,80.1,148.7z"/>
	<path fill="#009DB5" d="M101,150c-2.2,2.3-3.3,5.5-3.2,5.5c0,0.1,1.8-1.1,4.5-1.6c2.6-0.6,6-0.6,7.3-0.7c2.7-0.4,4.3-1.7,3.6-3.8
		C112.5,147.3,106.1,144.8,101,150z"/>
	<path fill="#56C5D0" d="M102,150.3c0,0,0.1-0.1,0.1-0.1c4.1-4.2,9.2-2.2,9.8-0.5c0.2,0.7,0.2,1.3-0.2,1.7c0-0.1,0-0.2-0.1-0.3
		C107.3,147.3,102.3,150.4,102,150.3z"/>
	<path fill="#009DB5" d="M84.4,133.8c1,2.4,1,5.3,1,5.2c0,0.1-1-1.4-2.7-2.6c-1.6-1.3-4-2.3-4.9-2.8c-1.8-1.2-2.6-2.6-1.6-4.1
		C77.1,128.1,82.1,128.2,84.4,133.8z"/>
	<path fill="#56C5D0" d="M83.7,133.7c0,0,0-0.1-0.1-0.1c-1.8-4.5-5.8-4.6-6.6-3.4c-0.3,0.5-0.4,0.9-0.3,1.4c0-0.1,0.1-0.2,0.1-0.2
		C80.7,129.8,83.4,133.7,83.7,133.7z"/>
	<path fill="#56C5D0" d="M102.8,141.3c0-0.1,0.1-0.1,0.1-0.2c3.1-5,8.5-4.2,9.5-2.6c0.4,0.6,0.4,1.2,0.2,1.7c0-0.1-0.1-0.2-0.1-0.3
		C107.3,137.2,103.1,141.3,102.8,141.3z"/>
	<path fill="#56C5D0" d="M89.5,155.7c-6.3,0.1-11.9-0.2-15.7-0.7c1,1.3,7.7,2.3,15.7,2.1c8.1-0.1,14.7-1.3,15.7-2.6
		C101.4,155.2,95.8,155.6,89.5,155.7z"/>
	<path fill="#56C5D0" d="M88.7,159.8c-10.5-0.3-19.1-1.6-25.6-3.2c1.7,1.5,12.1,4.5,25.5,4.8c13.5,0.3,24.7-1.5,26.4-2.9
		C109.3,159.5,99.2,160.1,88.7,159.8z"/>
</g>
<g id="splash_2">
</g>
<g id="splash_3">
</g>
<g id="inflatible_trampoline">
</g>
<g id="Waves_Foreground">
</g>
<g id="standing_idle_1">
</g>
</svg>
