<svg xmlns="http://www.w3.org/2000/svg" xmlns:xlink="http://www.w3.org/1999/xlink" style="isolation:isolate" viewBox="0 0 56 64.84" width="56" height="64.84" preserveAspectRatio="none"><defs><clipPath id="_clipPath_an9VjvO1RnZcRr6o4gAH2CEZSRcMvvKe"><rect width="56" height="64.84" /></clipPath></defs><g clip-path="url(#_clipPath_an9VjvO1RnZcRr6o4gAH2CEZSRcMvvKe)"><path d=" M 28.2 0 L 19.58 4.96 L 28.2 9.93 L 36.8 4.96 L 28.2 0 L 28.2 0 Z " fill="rgb(97,173,0)" /><path d=" M 18.62 5.51 L 10.03 10.48 L 18.62 15.44 L 27.22 10.48 L 18.62 5.51 L 18.62 5.51 Z " fill="rgb(97,173,0)" /><path d=" M 37.75 5.51 L 29.15 10.48 L 37.75 15.44 L 46.35 10.48 L 37.75 5.51 L 37.75 5.51 Z " fill="rgb(97,173,0)" /><path d=" M 47.3 11.03 L 38.7 15.99 L 47.3 20.95 L 55.9 15.99 L 47.3 11.03 L 47.3 11.03 Z " fill="rgb(97,173,0)" /><path d=" M 9.07 11.03 L 0.48 15.99 L 9.07 20.95 L 17.67 15.99 L 9.07 11.03 L 9.07 11.03 Z " fill="rgb(97,173,0)" /><path d=" M 0 48.83 L 8.6 53.79 L 8.6 43.86 L 0 38.9 L 0 48.83 L 0 48.83 Z " fill="rgb(27,54,93)" /><path d=" M 9.55 54.34 L 18.15 59.33 L 18.15 49.38 L 9.55 44.42 L 9.55 54.34 L 9.55 54.34 Z " fill="rgb(27,54,93)" /><path d=" M 0 37.8 L 8.6 42.76 L 8.6 32.84 L 0 27.87 L 0 37.8 L 0 37.8 Z " fill="rgb(27,54,93)" /><path d=" M 0 26.77 L 8.6 31.73 L 8.6 21.78 L 0 16.82 L 0 26.77 L 0 26.77 Z " fill="rgb(27,54,93)" /><path d=" M 19.1 59.88 L 27.72 64.84 L 27.72 54.89 L 19.1 49.93 L 19.1 59.88 L 19.1 59.88 Z " fill="rgb(27,54,93)" /><path d=" M 56.4 48.83 L 47.77 53.79 L 47.77 43.86 L 56.4 38.9 L 56.4 48.83 L 56.4 48.83 Z " fill="rgb(197,220,111)" /><path d=" M 46.82 54.34 L 38.23 59.33 L 38.23 49.38 L 46.82 44.42 L 46.82 54.34 L 46.82 54.34 Z " fill="rgb(197,220,111)" /><path d=" M 56.4 37.8 L 47.77 42.76 L 47.77 32.84 L 56.4 27.87 L 56.4 37.8 L 56.4 37.8 Z " fill="rgb(197,220,111)" /><path d=" M 56.4 26.77 L 47.77 31.73 L 47.77 21.78 L 56.4 16.82 L 56.4 26.77 L 56.4 26.77 Z " fill="rgb(197,220,111)" /><path d=" M 37.27 59.88 L 28.68 64.84 L 28.68 54.89 L 37.27 49.93 L 37.27 59.88 L 37.27 59.88 Z " fill="rgb(197,220,111)" /><path d=" M 28.2 54.07 L 36.8 49.1 L 28.2 44.14 L 19.58 49.1 L 28.2 54.07 L 28.2 54.07 Z " fill="rgb(97,173,0)" /><path d=" M 37.75 48.55 L 46.35 43.59 L 37.75 38.63 L 29.15 43.59 L 37.75 48.55 L 37.75 48.55 Z " fill="rgb(97,173,0)" /><path d=" M 18.62 48.55 L 27.22 43.59 L 18.62 38.63 L 10.03 43.59 L 18.62 48.55 L 18.62 48.55 Z " fill="rgb(97,173,0)" /><path d=" M 46.82 21.78 L 38.23 16.82 L 38.23 26.77 L 46.82 31.73 L 46.82 21.78 L 46.82 21.78 Z " fill="rgb(27,54,93)" /><path d=" M 37.27 16.27 L 28.68 11.3 L 28.68 21.23 L 37.27 26.22 L 37.27 16.27 L 37.27 16.27 Z " fill="rgb(27,54,93)" /><path d=" M 46.82 32.84 L 38.23 27.87 L 38.23 37.8 L 46.82 42.76 L 46.82 32.84 L 46.82 32.84 Z " fill="rgb(27,54,93)" /><path d=" M 9.55 21.78 L 18.15 16.82 L 18.15 26.77 L 9.55 31.73 L 9.55 21.78 L 9.55 21.78 Z " fill="rgb(197,220,111)" /><path d=" M 19.1 16.27 L 27.72 11.3 L 27.72 21.23 L 19.1 26.22 L 19.1 16.27 L 19.1 16.27 Z " fill="rgb(197,220,111)" /><path d=" M 9.55 32.84 L 18.15 27.87 L 18.15 37.8 L 9.55 42.76 L 9.55 32.84 L 9.55 32.84 Z " fill="rgb(197,220,111)" /><path d=" M 37.27 37.8 L 37.27 27.87 L 28.68 32.84 L 28.68 42.76 L 37.27 37.8 L 37.27 37.8 Z " fill="rgb(197,220,111)" /><path d=" M 19.1 37.8 L 27.7 42.76 L 27.7 32.84 L 19.1 27.87 L 19.1 37.8 L 19.1 37.8 Z " fill="rgb(27,54,93)" /><path d=" M 28.2 22.06 L 19.58 27.05 L 28.2 32.01 L 36.8 27.05 L 28.2 22.06 L 28.2 22.06 Z " fill="rgb(97,173,0)" /></g></svg>