<svg xmlns="http://www.w3.org/2000/svg" viewBox="0 0 240.24 42.82" width="240.24" height="42.82" preserveAspectRatio="none"><defs><style>.cls-1{fill:#fff;}.cls-2{fill:#1b5091;}.cls-3{fill:#6084b2;}.cls-4{fill:#1b365d;}</style></defs><title>Asset 13</title><g id="Layer_2" data-name="Layer 2"><g id="Layer_1-2" data-name="Layer 1"><path class="cls-1" d="M146.92,42.67l-.79-2.53h-5.22l-.83,2.53h-4.36l6.17-17h3.22l6.17,17Zm-3.31-10.54-1.53,4.53h3Z"/><path class="cls-1" d="M157.65,42.81a6.32,6.32,0,0,1-4.72-1.91c-1.79-1.79-1.72-4.17-1.72-6.72s-.07-4.93,1.72-6.72a6.32,6.32,0,0,1,4.72-1.91,6.14,6.14,0,0,1,6.43,5.53h-4.24a2.1,2.1,0,0,0-2.17-1.81A2,2,0,0,0,156,30c-.38.5-.64,1.1-.64,4.19s.26,3.69.64,4.2a2,2,0,0,0,1.64.71,2.1,2.1,0,0,0,2.17-1.81h4.24A6.14,6.14,0,0,1,157.65,42.81Z"/><path class="cls-1" d="M175,42.67l-.79-2.53H169l-.83,2.53H163.8l6.17-17h3.22l6.17,17Zm-3.31-10.54-1.53,4.53h3Z"/><path class="cls-1" d="M191.19,41a6.32,6.32,0,0,1-4.58,1.67h-6.29v-17h6.29a6.32,6.32,0,0,1,4.58,1.67c2,2,1.76,4.15,1.76,6.82S193.16,39,191.19,41Zm-2.86-10.63a2.17,2.17,0,0,0-2-1h-1.84V39h1.84a2.17,2.17,0,0,0,2-1c.33-.48.45-.93.45-3.81S188.66,30.85,188.33,30.37Z"/><path class="cls-1" d="M195.07,42.67v-17h11.54v3.72h-7.37v2.84h6.29V36h-6.29v3h7.37v3.72Z"/><path class="cls-1" d="M220.46,42.67V34.54L218,38.74h-2.67L213,34.54v8.13H208.8v-17h4.1l3.81,7.48,3.81-7.48h4.1v17Z"/><path class="cls-1" d="M235.12,35.76v6.91h-4.17V35.76L225.82,25.7h4.55L233,31.8l2.65-6.1h4.55Z"/><path class="cls-1" d="M157.86,14c6.28,4.86,9.93-6.62,1.53-7.05-4.17-.22-7.23,2.43-7.47,7.13-.63,12.31,16.68,7.79,11.25,2.09-1.22,2.57-6.57,4-6.24-2.39.43-8.55,6.71-3.58.94.23"/><path class="cls-1" d="M177.81,14.17c0-10.81-13.68-7.92-11.8-1.8,1.94-2.16,6.77-3.65,7.36,1.48-7.36-4.61-11.71,8-2.25,8a7,7,0,0,0,3.92-1,2.63,2.63,0,0,0,2.92.61c-.54-1-.14-3.8-.14-7.25m-4.39.23c0,.18,0,.38,0,.59,0,9.19-7.7,3.4,0-.59"/><path class="cls-1" d="M184,10.93c0-2,4.23-.68,5.49.85,5.24-5.27-10.13-7.59-10.13-.63,0,5.61,8,4,8,6.42,0,2.21-5.34.14-6.89-1.1-5.07,5.11,11.17,8.66,11.17.65,0-5.06-7.61-4.17-7.61-6.19"/><path class="cls-1" d="M223,15.78c-16,0-25,10.83-25-3.17,0-.83,0-2.05.11-3.42.34,0,.68,0,1,0,5.85,0,4.62-4.57,4.62-4.57a20.3,20.3,0,0,1-5.31.76,18.2,18.2,0,0,1,.7-3.36c-1.91-.7-3.74-.45-4.8,2.79A11.83,11.83,0,0,1,191,3.16c-1.21,2.41-.22,4.32,2.65,5.31a45,45,0,0,0-.23,5.06c0,12.13,7.44,8.1,26.66,8.27,8.1.07,11.48,2.65,12.6,6.47C238.29,23.77,234.49,15.78,223,15.78Zm-16.83,3.57,3.87-1.14C214.25,19.34,206.85,20,206.19,19.34Zm6.85-1,4-1.37C221.24,18.47,213.73,19,213,18.36Zm6.69-.89,5.42-.6C228.14,18.65,219.89,18.54,219.73,17.47Zm7.41.31,4.77.53C234.46,21,228,19.51,227.14,17.78Zm6.33,4.08,1.42,1.35C234.77,24.92,233.74,24.82,233.48,21.86Z"/><path class="cls-2" d="M206,19.34c-.5-.42,1.61-2.76,2.4-2.76s2.34,1.82,1.92,2.26-3.76,1-4.32.5"/><path class="cls-3" d="M206.85,18.78a.25.25,0,0,1,0-.1.86.86,0,0,1,.1-.23,1.91,1.91,0,0,1,.44-.55,1.89,1.89,0,0,1,.58-.4,1.32,1.32,0,0,1,.23-.08l.1,0a.25.25,0,0,1,0,.1.86.86,0,0,1-.1.23,1.91,1.91,0,0,1-.44.55,1.89,1.89,0,0,1-.58.4,1.32,1.32,0,0,1-.23.08l-.1,0"/><path class="cls-2" d="M212.69,18.25c-.55-.47,1.84-3,2.71-3s2.55,2,2.06,2.53-4.17,1-4.77.47"/><path class="cls-3" d="M213.51,17.55a.52.52,0,0,0,0-.1,1.86,1.86,0,0,1,.13-.24,2.43,2.43,0,0,1,.52-.58,2.73,2.73,0,0,1,.64-.42,1.33,1.33,0,0,1,.26-.1l.11,0a.52.52,0,0,0,0,.1,1.86,1.86,0,0,1-.13.24,2.43,2.43,0,0,1-.52.58,2.73,2.73,0,0,1-.64.42,1.33,1.33,0,0,1-.26.1.28.28,0,0,1-.11,0"/><path class="cls-2" d="M219.57,17.47c-.56-.58,2.35-3.24,3.34-3.16s2.71,2.56,2.13,3.06-4.82.74-5.46.1"/><path class="cls-3" d="M220.52,16.81a.45.45,0,0,1,.06-.11,1.79,1.79,0,0,1,.19-.29,4.76,4.76,0,0,1,.69-.73,4.28,4.28,0,0,1,.82-.55l.31-.15.13,0a.45.45,0,0,1-.06.11,1.79,1.79,0,0,1-.19.29,4.75,4.75,0,0,1-.69.73,4.28,4.28,0,0,1-.82.55l-.31.15a.28.28,0,0,1-.13,0"/><path class="cls-2" d="M227.08,17.78c-.35-.63,2.74-2.19,3.56-1.9s1.71,2.79,1.1,3.08-4.27-.48-4.66-1.18"/><path class="cls-3" d="M228,17.55l.08-.1a1.48,1.48,0,0,1,.23-.21,4.27,4.27,0,0,1,.77-.48,3.45,3.45,0,0,1,.87-.29l.31,0h.13l-.08.1a1.48,1.48,0,0,1-.23.21,4.27,4.27,0,0,1-.77.48,3.67,3.67,0,0,1-.87.29l-.31,0H228"/><path class="cls-2" d="M233.25,20.21c.26-.44,2.35.85,2.47,1.47s-1.06,2.06-1.47,1.81-1.27-2.77-1-3.27"/><path class="cls-3" d="M233.9,21l0,0,.13,0a.48.48,0,0,1,.56.24.26.26,0,0,1,0,.13.16.16,0,0,1,0,.06l0,0-.13,0a.45.45,0,0,1-.32,0,.55.55,0,0,1-.24-.23.26.26,0,0,1,0-.13.08.08,0,0,1,0,0"/><path class="cls-1" d="M145,0c5.69,0,9.25,6.19,1,12.69,7.34,2.52,4.3,9.55-2.68,9.55-4.79,0-7.65-3.53-7.65-11.59,0-5.29,2-6.3,6.57-4.25-2.23,5.29-2.7,13.46,1,13.46,2.93,0,3.2-4.08-2-6.24,6.89-5.38,5.15-9.21,3.58-9.21-2.56,0-3,4-2.43,6C136.47,12.43,136.67,0,145,0Z"/><path class="cls-4" d="M25.85,42.49,24,36.66H12l-1.92,5.83H0L14.24,3.33h7.42L35.91,42.49ZM18.2,18.18,14.68,28.63H21.5Z"/><path class="cls-4" d="M58.63,39a12.5,12.5,0,0,1-9.51,3.79A12.5,12.5,0,0,1,39.6,39c-2.47-2.69-3.24-5.5-3.24-11.33s.77-8.63,3.24-11.33a12.51,12.51,0,0,1,9.51-3.79,12.51,12.51,0,0,1,9.51,3.79c2.47,2.7,3.25,5.55,3.25,11.33S61.1,36.33,58.63,39ZM51.53,21.54a3.22,3.22,0,0,0-2.42-.83,3.23,3.23,0,0,0-2.42.83c-1.15,1.15-1.32,3.24-1.32,6.16s.17,5,1.32,6.16a3.23,3.23,0,0,0,2.42.82,3.22,3.22,0,0,0,2.42-.82c1.15-1.16,1.32-3.25,1.32-6.16S52.69,22.69,51.53,21.54Z"/><path class="cls-4" d="M81.62,28.52H75.73v14H66.11V3.33H81.62C90.31,3.33,95,9.49,95,15.93S90.31,28.52,81.62,28.52ZM81.18,12H75.73v7.92h5.44a4,4,0,1,0,0-7.92Z"/><path class="cls-4" d="M111,42.82c-6,0-10.89-1.1-14.85-5.17l6.16-6.16c2,2,5.61,2.75,8.74,2.75,3.79,0,5.61-1.26,5.61-3.52a3.27,3.27,0,0,0-.77-2.31,4.37,4.37,0,0,0-2.58-1l-4.73-.66c-3.46-.5-6.1-1.65-7.86-3.46s-2.69-4.51-2.69-7.86C98.06,8.23,103.45,3,112.36,3c5.61,0,9.84,1.32,13.2,4.67l-6,6c-2.47-2.47-5.72-2.31-7.42-2.31-3.35,0-4.73,1.92-4.73,3.63a2.58,2.58,0,0,0,.77,1.81,4.41,4.41,0,0,0,2.7,1.16l4.73.66c3.52.5,6,1.59,7.7,3.25,2.09,2,2.92,4.95,2.92,8.58C126.17,38.47,119.29,42.82,111,42.82Z"/></g></g></svg>