<svg xmlns="http://www.w3.org/2000/svg" width="101" height="36" viewBox="0 0 101 36" fill="none" preserveAspectRatio="none"><path fill-rule="evenodd" clip-rule="evenodd" d="M87.3435 15.3726H79.2432L80.7887 8.76457H77.911L76.3655 15.3726H73.701L73.5944 15.9055H76.2589L72.6885 30.5605C72.422 31.4132 72.2621 32.2658 72.2621 33.1718C72.2621 34.3442 73.0082 35.3567 74.6069 35.3567C77.4846 35.3567 78.9235 31.3066 79.0834 30.827L78.657 30.6671C78.3906 31.3599 77.2715 34.0244 75.8859 34.0244C75.2997 34.0244 75.0865 33.7047 75.0865 33.0119C75.0865 32.5856 75.1398 32.1059 75.2997 31.6796L79.0301 15.9588H84.3591L80.8419 30.5605C80.5755 31.3599 80.4689 32.2125 80.4156 33.1185C80.4156 34.2909 81.1617 35.41 82.7604 35.41C85.6381 35.41 87.077 31.3599 87.2368 30.8803L86.8105 30.7204C86.5441 31.3599 85.3717 34.0777 84.0927 34.0777C83.3466 34.0777 83.24 33.6514 83.24 33.0119C83.24 32.5856 83.2933 32.1592 83.4532 31.7329L87.3434 15.3726L87.3435 15.3726ZM67.9989 33.9711C67.2528 33.9711 67.0929 33.5448 67.0929 32.9586C67.0929 32.479 67.1462 32.0527 67.3061 31.573L69.8641 20.9149C70.1838 19.9556 70.3437 18.9431 70.3437 17.9306C70.3437 16.6516 69.5443 14.9996 67.2528 14.9996C64.6416 14.9996 63.256 17.2911 62.6698 18.2503L63.3626 15.3193H57.8736L57.7137 15.8523H60.325L55.742 34.9304H58.6197L61.7639 22.034C62.5099 19.103 64.1619 16.1187 66.0804 16.1187C66.8798 16.0654 67.5725 16.6516 67.6258 17.451C67.6258 17.5576 67.6258 17.6641 67.6258 17.7174C67.5725 18.4635 67.4127 19.2629 67.1995 20.0089L64.6949 30.5605C64.4817 31.4665 64.3218 32.3724 64.2685 33.2783C64.2685 34.4507 65.0146 35.3567 66.6133 35.3567C69.491 35.3567 70.9299 31.3066 71.143 30.827L70.7167 30.6671C70.3437 31.5198 69.2246 33.9711 67.9989 33.9711M51.532 31.6263L55.4222 15.4258H52.5445L52.0649 17.5042C51.8517 16.0121 50.5195 14.8929 49.0273 14.9462C45.6167 14.9462 43.9114 17.9305 42.8456 20.9681C42.2061 22.78 40.8738 27.2564 40.8205 30.3473C40.714 33.598 42.2061 35.3566 44.5509 35.3566C46.7358 35.3566 48.1747 33.0118 48.7076 31.7861C48.6543 32.2125 48.601 32.6388 48.601 33.0651C48.4944 34.2375 49.4004 35.25 50.5728 35.3566C50.6793 35.3566 50.7859 35.3566 50.9458 35.3566C53.9834 35.3566 55.2623 31.2532 55.4222 30.8269L54.9959 30.667C54.7294 31.3598 53.6103 34.0244 52.2248 34.0244C51.6386 34.0244 51.3721 33.598 51.4254 32.852C51.3721 32.4256 51.4254 31.9993 51.532 31.6263M49.2404 28.802C48.3345 31.9462 46.8956 34.3443 45.137 34.3443C43.9113 34.3443 43.3784 33.5982 43.4317 31.8396C43.5383 28.0027 45.6166 21.1814 46.1495 19.6893C46.9489 17.1313 48.068 15.6925 49.5069 15.6925C50.8391 15.6925 51.4786 16.9182 51.4253 18.357C51.3188 20.4886 50.4128 24.6453 49.2404 28.802ZM36.344 33.9711C35.7578 33.9711 35.5447 33.6514 35.5447 32.9586C35.5447 32.5323 35.598 32.0527 35.7045 31.6263L43.1653 0.877518H37.5697L37.4631 1.41043H40.0744L33.04 30.5605C32.7735 31.4664 32.667 32.3724 32.6137 33.2783C32.6137 34.3442 33.1999 35.3567 34.8519 35.3567C37.8362 35.3567 39.275 31.4132 39.4882 30.827L39.0619 30.6671C38.7954 31.3599 37.623 33.9711 36.344 33.9711ZM87.2368 8.12514C86.2775 8.12514 85.5847 8.9245 85.5847 10.0969C85.5314 11.0028 86.1709 11.7489 87.0769 11.8022C87.9828 11.8022 88.7289 11.0028 88.7289 9.88373C88.7289 8.8712 88.0894 8.12514 87.2368 8.12514ZM96.7227 14.9996C93.2588 14.9996 91.4469 17.6108 90.3811 20.9681C89.6883 23.0998 88.6225 26.617 88.6225 30.4539C88.6225 32.4257 89.4751 35.4099 93.0989 35.4099C96.9358 35.4099 98.5879 30.294 98.801 29.7078L98.2681 29.4414C97.7352 30.7736 96.3496 34.2908 93.8983 34.2908C92.3528 34.2908 91.5002 33.0119 91.5002 30.6138C91.5002 27.1499 92.5127 23.5261 93.3654 20.7017C94.4312 17.2378 95.124 15.5858 96.7227 15.5858C97.7885 15.5858 98.428 16.1187 98.428 16.8114C98.428 17.824 97.8418 18.2503 97.8418 19.1562C97.7885 19.9023 98.3214 20.5418 99.0675 20.5951H99.1208C100.027 20.5951 100.56 19.849 100.56 18.57C100.56 17.2911 99.9201 14.9463 96.7227 14.9996M28.084 33.9711C27.5511 33.9711 27.2313 33.6514 27.2313 32.9586C27.2313 32.5323 27.3379 32.0527 27.4445 31.6263L31.2281 15.9055H34.319L34.4256 15.3726H31.3347L32.9334 8.76457H30.0557L28.457 15.3726H26.0589L25.9523 15.9055H28.2971L24.8332 30.5605C24.5668 31.4132 24.4069 32.3724 24.4069 33.2783C24.4069 34.2909 24.9931 35.3567 26.6451 35.3567C29.6827 35.3567 31.015 31.3599 31.2814 30.827L30.8551 30.6671C30.5886 31.3066 29.4162 33.9711 28.084 33.9711M3.30369 11.2158H2.34446L4.63596 1.62348H5.009C6.07481 1.62348 6.28798 1.73006 5.96823 3.70182H6.23469L6.76759 1.35702H1.43851L0.905603 3.70182H1.17206C1.75826 2.0498 2.02471 1.62348 3.09052 1.62348H3.57014L1.27864 11.2158H0.372695L0.266113 11.5356H3.2504L3.30369 11.2158H3.30369ZM5.48856 11.5356H6.50109L7.5669 7.21905C7.83336 6.09994 8.47285 5.14071 9.11234 5.14071C9.37879 5.14071 9.64524 5.30058 9.64524 5.56703C9.64524 5.62033 9.64524 5.62032 9.64524 5.67362C9.64524 5.99336 9.59195 6.25981 9.48537 6.57956L8.68601 9.88359C8.57943 10.2033 8.52614 10.5231 8.52614 10.8961C8.47285 11.2692 8.7393 11.6422 9.16563 11.6955C9.21892 11.6955 9.27221 11.6955 9.3255 11.6955C10.3913 11.6955 10.8176 10.4165 10.9242 10.0968L10.7111 9.99018C10.6045 10.3099 10.2314 11.1093 9.80512 11.1093C9.64525 11.1093 9.53867 11.0027 9.53867 10.7895C9.53867 10.5231 9.59196 10.2566 9.64525 9.99018L10.4446 6.79273C10.5512 6.41969 10.6045 6.09995 10.6045 5.72691C10.6045 5.194 10.1782 4.71438 9.64525 4.71438C9.59196 4.71438 9.59196 4.71438 9.53867 4.71438C8.68602 4.71438 8.15311 5.51374 7.99324 5.7802L9.05905 1.46364H7.30045L7.19387 1.78338H7.88665L5.48857 11.5356L5.48856 11.5356ZM12.8959 11.6421C14.2282 11.6421 14.8677 9.99011 14.9743 9.67037L14.7611 9.56379C14.4947 10.15 14.015 11.1625 13.1091 11.1625C12.5762 11.1625 12.3097 10.7895 12.3097 10.0967C12.3097 9.67037 12.363 9.19075 12.4696 8.76442C13.6953 8.44468 15.8269 7.32557 15.8269 5.78014C15.8802 5.19394 15.4539 4.66103 14.8677 4.60774C14.7611 4.60774 14.7078 4.60774 14.6012 4.60774C13.0558 4.60774 11.3505 7.32557 11.3505 9.88353C11.2972 10.8428 11.6702 11.6421 12.8959 11.6421M14.6013 4.92746C14.9743 4.92746 15.0809 5.08733 15.0809 5.46036C15.0809 6.57947 14.0151 8.01832 12.5229 8.44465C12.896 6.63276 13.8019 4.92746 14.6013 4.92746Z" fill="#707070" /><path fill-rule="evenodd" clip-rule="evenodd" d="M23.7144 0.18483L1.86518 34.4508H0.106582L0 34.9837H5.48896L5.59554 34.4508H2.55796L10.9246 21.3413H18.7584L17.3728 34.4508H14.8149L14.7083 34.9837H22.6486L22.7552 34.4508H20.517L24.0875 0.18483H23.7144ZM18.8116 20.755H11.2976L20.1972 6.73953H20.3038L18.8116 20.755Z" fill="#707070" /></svg>