<svg version="1.1" id="Layer_1" xmlns="http://www.w3.org/2000/svg" xmlns:xlink="http://www.w3.org/1999/xlink" x="0px" y="0px" viewBox="0 0 184.7 59.6" style="enable-background:new 0 0 184.7 59.6;" xml:space="preserve" width="184.7" height="59.6" preserveAspectRatio="none"><style type="text/css">
	.st0{fill-rule:evenodd;clip-rule:evenodd;fill:#898989;}
</style><path class="st0" d="M107,22.7c-2.2,0-4.3,0.5-6.2,1.6c0-5.5,0-10.6,0.2-12.3l-11.6,2.1v1l1.2,0.2c1.6,0.3,2.1,1.2,2.4,3.3
	c0.3,4.2,0.2,26.3,0,30c3.2,0.8,6.4,1.2,9.7,1.2c9.2,0,14.7-5.7,14.7-14.7C117.4,27.9,112.9,22.7,107,22.7L107,22.7z M103,47.8
	c-0.7,0-1.4,0-2.1-0.2c-0.2-2.4-0.3-12.6-0.2-21.6c0.8-0.3,1.7-0.5,2.6-0.5c3.8,0,5.9,4.5,5.9,10C109.3,42.4,106.7,47.8,103,47.8
	L103,47.8z" /><path class="st0" d="M45.7,12.7H15.2v1.6l1.7,0.2c2.3,0.3,3.1,1.7,3.5,5c0.4,7.6,0.4,15.2,0,22.9c-0.3,3.3-1.2,4.8-3.5,5l-1.7,0.3
	V49h19.6v-1.4l-2.1-0.3c-2.3-0.2-3.1-1.7-3.5-5c-0.2-2.3-0.3-5.9-0.3-10.4l4.2,0.2c2.6,0,3.8,2.1,4.3,5H39V24.8h-1.6
	c-0.5,2.9-1.7,5-4.3,5L28.9,30c0-5.9,0.2-11.4,0.3-14.7h6.1c4.7,0,7.1,2.9,8.8,8.1l1.7-0.5L45.7,12.7L45.7,12.7z" /><path class="st0" d="M55.6,22.4c8.7,0,13,5.9,13,13.7c0,7.4-4.8,13.7-13.5,13.7s-13-5.9-13-13.7C42.1,28.6,46.9,22.4,55.6,22.4
	L55.6,22.4z M55.1,24.1c-3.8,0-4.8,5.2-4.8,11.9c0,6.6,1.7,11.9,5.2,11.9c4,0,5-5.2,5-11.9C60.4,29.5,58.7,24.1,55.1,24.1z" /><path class="st0" d="M119.7,36.2c0-7.1,4.5-13.9,13.3-13.9c7.3,0,10.7,5.4,10.7,12.5h-16.1c-0.2,6.4,2.9,11.1,9.2,11.1
	c2.1,0.1,4.2-0.6,5.9-1.9l0.7,0.9c-2.5,3.1-6.4,4.9-10.4,4.8C125.2,49.7,119.7,44.2,119.7,36.2L119.7,36.2z M127.6,32.9l8.1-0.2
	c0-3.5-0.5-8.7-3.5-8.7S127.8,28.9,127.6,32.9z" /><path class="st0" d="M164.3,23.7c-2.5-1-5.2-1.4-8-1.4c-6.4,0-10.4,3.8-10.4,8.3s2.9,6.4,7.1,7.8c4.3,1.6,5.5,2.8,5.5,4.8
	c0,2.2-1.8,4-4,4c-0.1,0-0.2,0-0.3,0c-3.3,0-5.7-1.9-7.6-7.1l-1.2,0.3l0.2,7.6c2.9,1,6.1,1.6,9.2,1.6c6.8,0,11.1-3.5,11.1-8.8
	c0-3.6-1.9-5.7-6.4-7.4c-4.8-1.9-6.6-3.1-6.6-5.4c-0.1-2,1.4-3.7,3.4-3.8c0.1,0,0.2,0,0.3,0c3.1,0,5.2,1.9,6.8,6.6l1.2-0.3
	L164.3,23.7L164.3,23.7z" /><path class="st0" d="M91.1,23.1c-2.9-1.7-8.1-0.9-10.9,5.4l0.2-6.1l-11.6,2.3v1l1.2,0.2c1.6,0.2,2.3,1,2.4,3.3c0.3,5,0.3,10,0,15.1
	c-0.2,2.1-0.9,3.1-2.4,3.3l-1.2,0.2V49h16.1v-1.4l-2.1-0.2c-1.7-0.2-2.3-1.2-2.4-3.3c-0.3-4.7-0.4-9.4-0.2-14c0.9-1.2,4.7-2.3,8.1,0
	L91.1,23.1L91.1,23.1z" /></svg>