<svg xmlns="http://www.w3.org/2000/svg" width="229" height="27" viewBox="0 0 229 27" fill="none" preserveAspectRatio="none"><path fill-rule="evenodd" clip-rule="evenodd" d="M150.181 1.00664C153.129 0.66998 156.111 1.1995 158.763 2.53046C160.739 3.55058 162.401 5.08647 163.575 6.97516C164.237 8.03153 164.72 9.18998 165.005 10.4038C165.354 11.9868 165.442 13.6162 165.265 15.2276C165.084 17.8173 164.133 20.2938 162.535 22.3396C161.097 24.1154 159.143 25.402 156.944 26.0224C155.636 26.4189 154.279 26.6327 152.913 26.6575C150.029 26.833 147.151 26.2183 144.59 24.8795C142.023 23.4449 140.044 21.152 138.999 18.4032C138.36 16.6579 138.094 14.7977 138.219 12.9431C138.357 11.2127 138.843 9.52812 139.649 7.99064C141.057 5.25873 143.416 3.13598 146.281 2.02211C147.502 1.43288 148.828 1.08774 150.182 1.00603L150.181 1.00664ZM150.701 2.4038C149.315 2.49503 147.974 2.93149 146.8 3.67345C145.467 4.48802 144.316 5.56865 143.419 6.84788C142.517 8.26102 141.981 9.87616 141.859 11.548C141.62 13.2424 141.709 14.9667 142.119 16.6278C142.5 18.1739 143.161 19.6372 144.07 20.9451C144.247 21.2299 144.466 21.4867 144.72 21.707C144.99 22.035 145.296 22.3329 145.63 22.5957C146.052 23.0053 146.535 23.348 147.06 23.6118C148.461 24.3748 150.018 24.809 151.611 24.8814C153.156 24.9924 154.707 24.776 156.163 24.2463C157.101 23.8187 157.976 23.2632 158.763 22.5957C159.615 21.7733 160.28 20.7771 160.714 19.6748C161.257 18.3344 161.607 16.9234 161.754 15.4843C161.906 14.0882 161.862 12.6778 161.624 11.2938C161.342 9.91874 160.86 8.59248 160.193 7.35745C159.157 5.38948 157.45 3.85784 155.382 3.04015C153.884 2.50156 152.289 2.28513 150.701 2.40505L150.701 2.4038Z" fill="#707070" /><path d="M183.7 1.52879H187.211V8.5029C189.291 6.22025 191.502 3.81144 193.58 1.52879H195.921C195.531 2.03591 195.141 2.41624 194.751 2.92336C192.93 4.95245 190.979 6.98092 189.16 9.01C191.608 9.2309 193.506 11.2447 193.581 13.7014C193.802 14.8713 193.889 16.0624 193.841 17.2519C193.82 17.5951 193.864 17.9393 193.971 18.2661V19.1542C194.101 20.5488 194.101 21.9439 194.752 23.3385C194.947 23.829 195.26 24.2642 195.662 24.6063C196.481 24.9238 197.405 24.5301 197.742 23.7189C197.872 23.8456 198.003 23.9724 198.133 23.9724C197.554 24.962 196.542 25.6201 195.402 25.748C194.741 25.8609 194.062 25.7725 193.452 25.4944C192.591 25.0363 191.939 24.2643 191.631 23.3385C191.163 21.9947 190.942 20.5768 190.982 19.1542C190.982 17.6322 190.982 16.1109 190.852 14.5895C190.85 13.6878 190.718 12.791 190.462 11.9265C190.368 11.5533 190.19 11.2064 189.942 10.9123C189.545 10.3573 189.006 9.91939 188.381 9.64452C188 9.53987 187.605 9.49706 187.211 9.51773L187.211 25.2414H183.57V5.20414C183.685 3.98202 183.728 2.75416 183.7 1.52693V1.52879Z" fill="#707070" /><path d="M58.6658 1.65823H61.6565C65.8174 6.8568 69.9788 11.9286 74.1397 17.1278V1.65823H76.0902V25.8768C75.7478 25.5292 75.4427 25.1468 75.1799 24.7358C70.3684 18.6497 65.5576 12.5631 60.7462 6.3503V25.6226H58.7956V15.9861C58.6658 11.1679 58.6658 6.47644 58.6658 1.65822L58.6658 1.65823Z" fill="#707070" /><path d="M89.8344 1.65494H93.6068C94.647 3.81081 95.5574 5.8399 96.5976 7.99576C98.2877 11.6736 100.108 15.4788 101.799 19.1554C102.319 17.887 102.839 16.7435 103.489 15.4776C101.408 10.9123 99.4578 6.4738 97.3774 1.90851C97.3774 1.78174 97.2475 1.65496 97.2475 1.52817H100.758C100.793 1.52644 100.826 1.53913 100.851 1.56319C100.876 1.58726 100.889 1.62052 100.888 1.65496C102.449 4.69828 103.879 7.74221 105.439 10.9123C106.87 7.86899 108.3 4.69827 109.731 1.65496C109.731 1.52817 109.861 1.52817 109.991 1.52817H111.681C111.551 1.90851 111.291 2.28884 111.161 2.6698C109.601 6.22086 108.04 9.77129 106.48 13.4491C106.48 13.5759 106.61 13.7027 106.61 13.8295C107.13 14.8437 107.52 15.8586 108.04 16.8728C108.431 17.6335 108.69 18.268 109.081 19.0286C110.121 16.746 111.161 14.5901 112.071 12.3075C113.632 9.00999 115.062 5.71311 116.622 2.41623L117.013 1.65555H119.223C117.143 6.09407 115.192 10.5326 113.112 14.9711C111.421 18.5221 109.861 22.1993 108.17 25.7504C108.034 25.6119 107.943 25.4349 107.91 25.2433L104.399 18.015C103.359 20.2977 102.319 22.4535 101.279 24.7362C101.16 25.1392 100.985 25.5233 100.758 25.8772C100.248 24.9412 99.8141 23.9659 99.4597 22.9607C96.3391 16.1127 93.2185 9.13802 89.9674 2.29008C89.9674 2.03652 89.8375 1.90974 89.8375 1.65619L89.8344 1.65494Z" fill="#707070" /><path d="M167.83 1.6588H173.031C173.82 1.6174 174.61 1.70302 175.372 1.91235C176.404 2.16126 177.348 2.68732 178.102 3.43372C178.942 4.36821 179.364 5.6045 179.272 6.85738C179.256 8.07803 178.795 9.2507 177.974 10.1542C177.066 10.9966 175.941 11.5673 174.725 11.8011C175.831 11.8978 176.877 12.3415 177.716 13.0689C178.443 13.7277 178.905 14.6293 179.014 15.6045C179.405 17.1258 179.275 18.521 179.275 20.0424C179.334 21.2613 179.598 22.4616 180.055 23.5928C180.27 24.1193 180.694 24.5326 181.225 24.7339C181.963 24.8819 182.708 24.5185 183.046 23.8464C183.176 23.9732 183.306 23.9732 183.436 24.1C183.436 24.2267 183.306 24.2267 183.306 24.3535C182.545 25.3721 181.325 25.9429 180.055 25.8749C179.088 25.826 178.188 25.3644 177.585 24.6071C176.804 23.7196 176.544 22.4512 176.286 21.3102C176.178 20.5544 176.134 19.7907 176.156 19.0275C176.156 17.3794 176.156 15.6039 175.506 14.0801C175.378 13.5216 175.056 13.027 174.596 12.6855C174.01 12.2135 173.265 11.9864 172.515 12.0516V11.5445C173.579 11.3061 174.484 10.6098 174.986 9.64218C175.457 8.8833 175.684 7.99836 175.636 7.1066C175.699 6.13292 175.473 5.1623 174.986 4.31681C174.429 3.55165 173.583 3.04773 172.645 2.92224H170.824V25.3659H167.18V18.3961C167.18 16.748 167.31 15.0992 167.31 13.3249V11.2959C167.31 9.64775 167.44 7.87221 167.44 6.22471V4.57658C167.769 3.64145 167.901 2.64869 167.83 1.66003L167.83 1.6588Z" fill="#707070" /><path d="M213.217 1.65884H217.508C218.464 1.63775 219.42 1.68012 220.369 1.78561C221.519 1.99489 222.569 2.57379 223.36 3.43437C224.138 4.25346 224.559 5.34822 224.53 6.47769C224.596 7.5091 224.322 8.53368 223.75 9.39424C223.114 10.3773 222.144 11.0977 221.019 11.4233C220.629 11.5501 220.109 11.6769 219.721 11.8036C220.898 11.8629 222.01 12.3604 222.839 13.1982C223.575 13.9544 224.033 14.9379 224.138 15.988C224.398 17.5099 224.268 19.0313 224.398 20.5532C224.467 21.8011 224.823 23.0163 225.439 24.1037C225.687 24.3851 225.999 24.6025 226.349 24.7376C227.086 24.8856 227.832 24.5223 228.17 23.8501C228.299 23.9769 228.43 23.9769 228.56 24.1037C227.956 25.0106 227.024 25.6473 225.959 25.8792C225.216 26.055 224.434 25.9653 223.749 25.6256C222.888 25.1676 222.236 24.3956 221.928 23.4698C221.459 22.0821 221.239 20.6224 221.278 19.158C221.278 17.754 221.147 16.3531 220.888 14.9731C220.628 14.2124 220.498 13.4511 219.848 12.944C219.47 12.5574 218.958 12.3305 218.418 12.3102H217.768V11.8012C218.748 11.5315 219.614 10.9533 220.239 10.1524C220.632 9.48915 220.897 8.7578 221.019 7.99656C221.209 6.77366 220.98 5.52256 220.369 4.44614C220.002 3.89208 219.448 3.48746 218.809 3.30513C218.296 3.20004 217.772 3.15747 217.249 3.17834L216.338 3.17832V25.7512H212.697V23.5953C212.697 21.9466 212.697 20.2985 212.827 18.5242V16.7487C212.827 14.8464 212.957 12.9446 212.957 11.1691C212.957 9.77396 212.957 8.37939 213.087 6.98419V4.82833C213.087 3.68732 213.216 2.67247 213.216 1.65822L213.217 1.65884Z" fill="#707070" /><path d="M1.5359 1.91169C1.5359 1.78801 1.66579 1.91169 1.79627 1.78801H17.9244C18.3708 2.77945 18.7614 3.79506 19.0945 4.83008C17.717 3.87524 16.0893 3.3462 14.4136 3.30872L11.4228 3.30874V25.7456H7.91196V3.30937H5.0486C3.59412 3.25191 2.15267 3.60327 0.887775 4.32361C0.627409 4.44729 0.497546 4.57716 0.237793 4.70394C0.237793 4.45037 0.498159 4.19681 0.628029 3.81648C0.888388 3.30936 1.278 2.54869 1.53836 1.91479L1.5359 1.91169Z" fill="#707070" /><path d="M21.3025 1.78801H24.8134V11.5488H33.657V1.78801H36.3874V25.7462H33.657V12.8165H24.8134V25.7462H21.3025V1.78801Z" fill="#707070" /><path d="M38.7927 1.78801H48.5448C48.6747 1.78801 48.6747 1.78801 48.6747 1.91169C48.9351 2.54559 49.3247 3.30564 49.585 3.93955C49.7149 4.06323 49.7149 4.31989 49.8454 4.44667C48.6685 3.50181 47.1932 3.00756 45.6846 3.05271L42.3036 3.05272V11.4177H46.3376C46.8705 11.4579 47.4053 11.371 47.898 11.1641C48.1852 11.041 48.4492 10.8695 48.6784 10.657V13.5723C48.5294 13.4151 48.3532 13.2863 48.1583 13.1919C47.5377 12.9441 46.876 12.8151 46.2078 12.8116H42.3067V23.9651H46.0791C47.6586 23.9023 49.208 23.5138 50.6302 22.8241C50.1101 23.5848 49.4601 24.3448 48.94 24.9787C48.7989 25.2145 48.6236 25.4282 48.4199 25.6126H38.7927V15.9836C38.7927 11.5475 38.7927 6.73117 38.7927 1.78802L38.7927 1.78801Z" fill="#707070" /><path d="M78.9584 1.91821H87.9306C88.191 2.42534 88.4507 2.93245 88.7111 3.56572C88.841 3.94607 89.1013 4.3264 89.2312 4.70612L88.0611 3.94545C87.148 3.5586 86.1849 3.30251 85.2002 3.18478L82.7296 3.18477V11.5497H85.8502C86.7606 11.5497 87.6709 11.6734 88.4507 11.2962C88.7111 11.1725 88.9708 10.9158 89.2312 10.789V14.3376C88.8369 13.9259 88.3448 13.6206 87.8008 13.4502C87.2654 13.2332 86.6861 13.1462 86.1106 13.1966H82.7296V24.2233H85.46C87.0203 24.2233 88.5806 24.2233 90.1409 24.0996C91.7081 23.9222 93.2173 23.403 94.5621 22.5789C94.692 22.4552 94.9523 22.3253 95.0822 22.1985C94.4322 23.3389 93.9121 24.4799 93.2615 25.7471H78.8285V23.846C78.8285 22.0717 78.8285 20.2974 78.9584 18.5225V16.875C78.9584 14.3394 79.0882 11.6802 79.0882 9.1446V3.94975C78.9227 3.28722 78.8787 2.60014 78.9584 1.92189L78.9584 1.91821Z" fill="#707070" /><path d="M123.179 1.91821H125.259C127.47 5.59482 129.681 9.27141 131.761 12.948L138.002 2.29856C138.132 2.17178 138.132 1.91821 138.393 2.045H140.473C138.263 5.84837 135.922 9.77854 133.711 13.5819V26.0063H130.07V13.5819C127.729 9.52498 125.389 5.7216 123.178 1.91822L123.179 1.91821Z" fill="#707070" /><path d="M199.693 1.91829H209.576C209.836 2.29863 209.966 2.80575 210.226 3.1861C210.495 3.62452 210.714 4.09244 210.876 4.58067C210.486 4.32711 210.226 4.07355 209.836 3.81999C209.073 3.41753 208.227 3.20036 207.365 3.1861H203.204V11.5548H206.325C207.107 11.5758 207.89 11.5334 208.666 11.428C209.046 11.338 209.401 11.1648 209.706 10.9209L209.706 13.8374C209.256 13.4596 208.72 13.1984 208.146 13.0767C207.54 13.0133 206.93 13.0133 206.325 13.0767H203.334V24.3613C204.895 24.3613 206.325 24.3613 207.885 24.2345C209.187 24.0923 210.46 23.7502 211.658 23.2203C211.395 23.6313 211.09 24.0137 210.747 24.3613C210.357 24.9952 209.837 25.5023 209.449 26.1362H199.823C199.693 17.8943 199.693 9.90601 199.693 1.91768L199.693 1.91829Z" fill="#707070" /></svg>