<svg version="1.1" id="Layer_1" xmlns="http://www.w3.org/2000/svg" xmlns:xlink="http://www.w3.org/1999/xlink" x="0px" y="0px" viewBox="0 0 328.2 112.9" style="enable-background:new 0 0 328.2 112.9;" xml:space="preserve" width="328.2" height="112.9" preserveAspectRatio="none"><style type="text/css">
	.st0{fill:#898989;}
</style><path class="st0" d="M123.7,46.3V40H97.3v6.3h9.2v25h-9.2v6.3h26.3v-6.3h-10v-25H123.7z" /><path class="st0" d="M167.4,46.6h-10.5v10.3c0,0,5.7-0.2,10.3-0.2s5.8-1,5.8-5.7C173.1,45.7,167.4,46.6,167.4,46.6z" /><path class="st0" d="M137.1,31.2v55.5h54.5V31.2L137.1,31.2z M180.6,68.6v8.7h-7.5v-8.2c0,0,0-6.3-4.3-6.3s-11.8,0.2-11.8,0.2v14.5
	h-7.3V40.1h21.7c0,0,9.3-0.5,9.3,9.7s-5.7,10.7-5.7,10.7S180.6,60.7,180.6,68.6z" /><polygon class="st0" points="201.6,40.1 201.6,46.2 206.8,46.2 206.8,71.4 201.6,71.4 201.6,77.6 233.4,77.6 233.4,65.4 227.1,65.4 
	227.1,71.4 213.6,71.4 213.6,61.2 223.6,61.2 223.6,55.1 213.6,55.1 213.6,46.2 226.6,46.2 226.6,52.2 233.4,52.2 233.4,40.1 " /><path class="st0" d="M276.8,46.4h-11.3v25h11.8c5.7,0,5.8-7.3,5.8-7.3v-9.7C283.1,45.9,276.8,46.4,276.8,46.4z" /><path class="st0" d="M245.6,31.2v55.5h54.5V31.2L245.6,31.2z M277.6,77.9c-13.7,0-19.8,0.2-19.8,0.2V40.2h16.2
	c0,0,16.7-1.8,16.7,13.2v10.5C290.6,63.9,291.3,77.9,277.6,77.9z" /><path class="st0" d="M28.1,31.2v55.5h54.5V31.2L28.1,31.2z M71.4,77.6h-9.3l-6-27.2l-6.5,27.3h-9.2l-7.7-37.5h7.5l5.2,28.5l6.7-28.5
	l8.2,0.2l6.7,28.8l5-29h7.2L71.4,77.6z" /></svg>