<svg xmlns="http://www.w3.org/2000/svg" width="110" height="23" viewBox="0 0 110 23" fill="none" preserveAspectRatio="none"><path d="M38.4989 6.73455V4.21317H27.9331V6.73455H31.6151V16.7401H27.9331V19.2615H38.4589V16.7401H34.4567V6.73455H38.4989Z" fill="#707070" /><path d="M55.9883 6.85459H51.786V10.9769C51.786 10.9769 54.0673 10.8968 55.9083 10.8968C57.7493 10.8968 58.2296 10.4966 58.2296 8.61556C58.2696 6.49439 55.9883 6.85459 55.9883 6.85459Z" fill="#707070" /><path fill-rule="evenodd" clip-rule="evenodd" d="M43.8618 0.691345V22.9036H65.6738V0.691345H43.8618ZM61.2714 15.6595V19.1414H58.2698V15.8596C58.2698 15.8596 58.2698 13.3382 56.5488 13.3382C54.8279 13.3382 51.8262 13.4182 51.8262 13.4182V19.2214H48.9046V4.25319H57.5894C57.5894 4.25319 61.3114 4.05309 61.3114 8.13533C61.3114 12.2176 59.0302 12.4177 59.0302 12.4177C59.0302 12.4177 61.2714 12.4977 61.2714 15.6595V15.6595Z" fill="#707070" /><path d="M69.6761 4.25292V6.69426H71.7573V16.7798H69.6761V19.2612H82.4031V14.3785H79.8818V16.7798H74.4788V12.6976H78.481V10.2562H74.4788V6.69426H79.6817V9.09558H82.4031V4.25291L69.6761 4.25292Z" fill="#707070" /><path d="M99.7727 6.77443H95.2502V16.7799H99.9728C102.254 16.7799 102.294 13.8583 102.294 13.8583V9.97619C102.294 6.57432 99.7727 6.77443 99.7727 6.77443H99.7727Z" fill="#707070" /><path fill-rule="evenodd" clip-rule="evenodd" d="M87.286 0.691345V22.9036H109.098V0.691345H87.286ZM100.093 19.3817C94.61 19.3817 92.1686 19.4617 92.1686 19.4617V4.29336H98.6522C98.6522 4.29336 105.336 3.57296 105.336 9.57627V13.7786C105.296 13.7786 105.576 19.3817 100.093 19.3817Z" fill="#707070" /><path fill-rule="evenodd" clip-rule="evenodd" d="M0.237793 0.691315V22.9035H22.0498V0.691315H0.237793ZM17.5675 19.2614H13.8455L11.4442 8.37544L8.84273 19.3015H5.1607L2.079 4.29319H5.08066L7.1618 15.6995L9.84328 4.29319L13.1251 4.37324L15.8066 15.8996L17.8077 4.29319H20.6892L17.5675 19.2614Z" fill="#707070" /></svg>