<?xml version="1.0" encoding="utf-8"?>
<!-- Generator: Adobe Illustrator 19.2.0, SVG Export Plug-In . SVG Version: 6.00 Build 0)  -->
<svg version="1.1" xmlns="http://www.w3.org/2000/svg" xmlns:xlink="http://www.w3.org/1999/xlink" x="0px" y="0px"
	 viewBox="0 0 46 78" enable-background="new 0 0 46 78" xml:space="preserve" width="46" height="78" preserveAspectRatio="none">
<g id="Layer_3" display="none">
</g>
<g id="Layer_2">
</g>
<g id="Layer_4">
</g>
<g id="Layer_5">
	<g>
		<path fill="#879596" d="M27.7,76.5c-0.7,0-1.3-0.1-1.8-0.4c-2.5-1.5-3.7-4.2-3.6-8.4C22.4,67,22.1,13,22,3.2l0.8,0
			c0,7.9,0.3,64,0.3,64.5c-0.2,5.2,1.7,6.9,3.2,7.7c0.8,0.5,2.5,0.3,3.2-0.1c1.1-0.6,1.9-1.8,2-5.5l0.7,0c-0.2,3.5-0.9,5.2-2.4,6.2
			C29.4,76.3,28.5,76.5,27.7,76.5z"/>
		<circle fill="#879596" cx="22.4" cy="2.8" r="1.3"/>
		<g>
			<path fill="#BE79B2" d="M45,22.9c-2.4-9.2-9.8-16.8-20.7-17.2c3.6,2.6,8.9,7.7,10.2,15.4l1.5,2.3C39.9,23.2,43.2,23,45,22.9z"/>
			<path fill="#BE79B2" d="M19.2,6.1C8.7,8.1,2.3,17.5,1,25.5c2.1-0.1,5.2-0.3,9-0.5l1.3-2.6C11.8,14.2,16.3,8.8,19.2,6.1z"/>
			<path fill="#FFB038" d="M24.3,5.7c-0.8,0-1.5,0-2.3,0c-1,0.1-1.9,0.2-2.8,0.3c-2.9,2.7-7.3,8.1-7.9,16.3l0,0l2.6,2.4
				c6.4-0.4,11.9-0.7,18.3-1l2.3-2.6l0,0.1C33.2,13.4,27.8,8.3,24.3,5.7z"/>
		</g>
	</g>
</g>
</svg>
